<?xml version="1.0" encoding="UTF-8" standalone="no"?>
<!DOCTYPE svg PUBLIC "-//W3C//DTD SVG 1.1//EN"
 "http://www.w3.org/Graphics/SVG/1.1/DTD/svg11.dtd">
<!-- Generated by graphviz version 2.36.0 (20140111.2315)
 -->
<!-- Title: /home/travis/build/elsid/openmw/apps/openmw/mwworld/actionrepair.cpp Pages: 1 -->
<svg width="1516pt" height="510pt"
 viewBox="0.00 0.00 1516.00 510.00" xmlns="http://www.w3.org/2000/svg" xmlns:xlink="http://www.w3.org/1999/xlink">
<g id="graph0" class="graph" transform="scale(1 1) rotate(0) translate(4 506)">
<title>/home/travis/build/elsid/openmw/apps/openmw/mwworld/actionrepair.cpp</title>
<polygon fill="white" stroke="none" points="-4,4 -4,-506 1512,-506 1512,4 -4,4"/>
<!-- Node1 -->
<g id="node1" class="node"><title>Node1</title>
<polygon fill="#bfbfbf" stroke="black" points="730.5,-460.5 730.5,-501.5 885.5,-501.5 885.5,-460.5 730.5,-460.5"/>
<text text-anchor="start" x="738.5" y="-489.5" font-family="FreeSans" font-size="10.00">/home/travis/build</text>
<text text-anchor="start" x="738.5" y="-478.5" font-family="FreeSans" font-size="10.00">/elsid/openmw/apps/openmw</text>
<text text-anchor="middle" x="808" y="-467.5" font-family="FreeSans" font-size="10.00">/mwworld/actionrepair.cpp</text>
</g>
<!-- Node2 -->
<g id="node2" class="node"><title>Node2</title>
<g id="a_node2"><a xlink:href="actionrepair_8hpp.html" target="_top" xlink:title="actionrepair.hpp">
<polygon fill="white" stroke="black" points="719,-404.5 719,-423.5 813,-423.5 813,-404.5 719,-404.5"/>
<text text-anchor="middle" x="766" y="-411.5" font-family="FreeSans" font-size="10.00">actionrepair.hpp</text>
</a>
</g>
</g>
<!-- Node1&#45;&gt;Node2 -->
<g id="edge1" class="edge"><title>Node1&#45;&gt;Node2</title>
<path fill="none" stroke="midnightblue" d="M795.399,-460.498C789.578,-451.49 782.728,-440.888 777.104,-432.185"/>
<polygon fill="midnightblue" stroke="midnightblue" points="779.958,-430.152 771.591,-423.652 774.078,-433.951 779.958,-430.152"/>
</g>
<!-- Node22 -->
<g id="node22" class="node"><title>Node22</title>
<g id="a_node22"><a xlink:href="environment_8hpp.html" target="_top" xlink:title="../mwbase/environment.hpp">
<polygon fill="white" stroke="black" points="980,-404.5 980,-423.5 1130,-423.5 1130,-404.5 980,-404.5"/>
<text text-anchor="middle" x="1055" y="-411.5" font-family="FreeSans" font-size="10.00">../mwbase/environment.hpp</text>
</a>
</g>
</g>
<!-- Node1&#45;&gt;Node22 -->
<g id="edge29" class="edge"><title>Node1&#45;&gt;Node22</title>
<path fill="none" stroke="midnightblue" d="M882.108,-460.498C924.659,-449.3 976.575,-435.638 1012.35,-426.224"/>
<polygon fill="midnightblue" stroke="midnightblue" points="1013.67,-429.497 1022.45,-423.567 1011.88,-422.727 1013.67,-429.497"/>
</g>
<!-- Node23 -->
<g id="node23" class="node"><title>Node23</title>
<g id="a_node23"><a xlink:href="windowmanager_8hpp.html" target="_top" xlink:title="../mwbase/windowmanager.hpp">
<polygon fill="white" stroke="black" points="1129,-292.5 1129,-311.5 1295,-311.5 1295,-292.5 1129,-292.5"/>
<text text-anchor="middle" x="1212" y="-299.5" font-family="FreeSans" font-size="10.00">../mwbase/windowmanager.hpp</text>
</a>
</g>
</g>
<!-- Node1&#45;&gt;Node23 -->
<g id="edge30" class="edge"><title>Node1&#45;&gt;Node23</title>
<path fill="none" stroke="midnightblue" d="M848.659,-460.499C881.512,-444.874 929.027,-422.572 971,-404 1046.18,-370.738 1135.67,-333.96 1181.56,-315.309"/>
<polygon fill="midnightblue" stroke="midnightblue" points="1182.98,-318.509 1190.93,-311.505 1180.35,-312.023 1182.98,-318.509"/>
</g>
<!-- Node28 -->
<g id="node28" class="node"><title>Node28</title>
<g id="a_node28"><a xlink:href="apps_2openmw_2mwbase_2world_8hpp.html" target="_top" xlink:title="../mwbase/world.hpp">
<polygon fill="white" stroke="black" points="810,-348.5 810,-367.5 924,-367.5 924,-348.5 810,-348.5"/>
<text text-anchor="middle" x="867" y="-355.5" font-family="FreeSans" font-size="10.00">../mwbase/world.hpp</text>
</a>
</g>
</g>
<!-- Node1&#45;&gt;Node28 -->
<g id="edge38" class="edge"><title>Node1&#45;&gt;Node28</title>
<path fill="none" stroke="midnightblue" d="M817.611,-460.29C828.886,-437.166 847.418,-399.16 858.289,-376.864"/>
<polygon fill="midnightblue" stroke="midnightblue" points="861.582,-378.097 862.819,-367.575 855.29,-375.029 861.582,-378.097"/>
</g>
<!-- Node31 -->
<g id="node31" class="node"><title>Node31</title>
<g id="a_node31"><a xlink:href="apps_2openmw_2mwworld_2player_8hpp.html" target="_top" xlink:title="../mwworld/player.hpp">
<polygon fill="white" stroke="black" points="375.5,-292.5 375.5,-311.5 494.5,-311.5 494.5,-292.5 375.5,-292.5"/>
<text text-anchor="middle" x="435" y="-299.5" font-family="FreeSans" font-size="10.00">../mwworld/player.hpp</text>
</a>
</g>
</g>
<!-- Node1&#45;&gt;Node31 -->
<g id="edge46" class="edge"><title>Node1&#45;&gt;Node31</title>
<path fill="none" stroke="midnightblue" d="M754.243,-460.422C699.313,-439.753 612.085,-405.078 540,-368 509.774,-352.453 476.716,-331.233 455.925,-317.329"/>
<polygon fill="midnightblue" stroke="midnightblue" points="457.798,-314.371 447.55,-311.68 453.883,-320.174 457.798,-314.371"/>
</g>
<!-- Node38 -->
<g id="node38" class="node"><title>Node38</title>
<g id="a_node38"><a xlink:href="apps_2openmw_2mwmechanics_2actorutil_8hpp.html" target="_top" xlink:title="../mwmechanics/actorutil.hpp">
<polygon fill="white" stroke="black" points="549.5,-348.5 549.5,-367.5 706.5,-367.5 706.5,-348.5 549.5,-348.5"/>
<text text-anchor="middle" x="628" y="-355.5" font-family="FreeSans" font-size="10.00">../mwmechanics/actorutil.hpp</text>
</a>
</g>
</g>
<!-- Node1&#45;&gt;Node38 -->
<g id="edge60" class="edge"><title>Node1&#45;&gt;Node38</title>
<path fill="none" stroke="midnightblue" d="M770.436,-460.277C751.849,-450.084 729.315,-437.065 710,-424 686.679,-408.226 661.541,-387.728 645.333,-374.007"/>
<polygon fill="midnightblue" stroke="midnightblue" points="647.606,-371.345 637.729,-367.51 643.059,-376.667 647.606,-371.345"/>
</g>
<!-- Node3 -->
<g id="node3" class="node"><title>Node3</title>
<g id="a_node3"><a xlink:href="action_8hpp.html" target="_top" xlink:title="action.hpp">
<polygon fill="white" stroke="black" points="724.5,-348.5 724.5,-367.5 791.5,-367.5 791.5,-348.5 724.5,-348.5"/>
<text text-anchor="middle" x="758" y="-355.5" font-family="FreeSans" font-size="10.00">action.hpp</text>
</a>
</g>
</g>
<!-- Node2&#45;&gt;Node3 -->
<g id="edge2" class="edge"><title>Node2&#45;&gt;Node3</title>
<path fill="none" stroke="midnightblue" d="M764.679,-404.083C763.619,-396.927 762.094,-386.635 760.769,-377.691"/>
<polygon fill="midnightblue" stroke="midnightblue" points="764.224,-377.13 759.296,-367.751 757.3,-378.156 764.224,-377.13"/>
</g>
<!-- Node4 -->
<g id="node4" class="node"><title>Node4</title>
<polygon fill="white" stroke="#bfbfbf" points="647,-62.5 647,-81.5 691,-81.5 691,-62.5 647,-62.5"/>
<text text-anchor="middle" x="669" y="-69.5" font-family="FreeSans" font-size="10.00">string</text>
</g>
<!-- Node3&#45;&gt;Node4 -->
<g id="edge3" class="edge"><title>Node3&#45;&gt;Node4</title>
<path fill="none" stroke="midnightblue" d="M756.145,-348.372C749.38,-317.441 724.757,-209.419 693,-124 688.799,-112.7 683.083,-100.464 678.283,-90.8103"/>
<polygon fill="midnightblue" stroke="midnightblue" points="681.369,-89.1578 673.714,-81.8326 675.13,-92.3324 681.369,-89.1578"/>
</g>
<!-- Node5 -->
<g id="node5" class="node"><title>Node5</title>
<g id="a_node5"><a xlink:href="ptr_8hpp.html" target="_top" xlink:title="ptr.hpp">
<polygon fill="white" stroke="black" points="641,-292.5 641,-311.5 691,-311.5 691,-292.5 641,-292.5"/>
<text text-anchor="middle" x="666" y="-299.5" font-family="FreeSans" font-size="10.00">ptr.hpp</text>
</a>
</g>
</g>
<!-- Node3&#45;&gt;Node5 -->
<g id="edge4" class="edge"><title>Node3&#45;&gt;Node5</title>
<path fill="none" stroke="midnightblue" d="M743.219,-348.324C728.733,-339.822 706.427,-326.729 689.507,-316.797"/>
<polygon fill="midnightblue" stroke="midnightblue" points="691.141,-313.698 680.745,-311.655 687.597,-319.735 691.141,-313.698"/>
</g>
<!-- Node5&#45;&gt;Node4 -->
<g id="edge6" class="edge"><title>Node5&#45;&gt;Node4</title>
<path fill="none" stroke="midnightblue" d="M675.556,-292.45C684.088,-284.12 695.989,-270.604 701,-256 703.885,-247.592 701.97,-244.836 701,-236 699.212,-219.708 696.3,-216.055 693,-200 685.122,-161.672 676.84,-116.631 672.361,-91.8078"/>
<polygon fill="midnightblue" stroke="midnightblue" points="675.748,-90.8659 670.535,-81.6421 668.858,-92.1033 675.748,-90.8659"/>
</g>
<!-- Node6 -->
<g id="node6" class="node"><title>Node6</title>
<polygon fill="white" stroke="#bfbfbf" points="640,-236.5 640,-255.5 692,-255.5 692,-236.5 640,-236.5"/>
<text text-anchor="middle" x="666" y="-243.5" font-family="FreeSans" font-size="10.00">cassert</text>
</g>
<!-- Node5&#45;&gt;Node6 -->
<g id="edge5" class="edge"><title>Node5&#45;&gt;Node6</title>
<path fill="none" stroke="midnightblue" d="M666,-292.083C666,-285.006 666,-274.861 666,-265.986"/>
<polygon fill="midnightblue" stroke="midnightblue" points="669.5,-265.751 666,-255.751 662.5,-265.751 669.5,-265.751"/>
</g>
<!-- Node7 -->
<g id="node7" class="node"><title>Node7</title>
<polygon fill="white" stroke="#bfbfbf" points="566,-236.5 566,-255.5 622,-255.5 622,-236.5 566,-236.5"/>
<text text-anchor="middle" x="594" y="-243.5" font-family="FreeSans" font-size="10.00">sstream</text>
</g>
<!-- Node5&#45;&gt;Node7 -->
<g id="edge7" class="edge"><title>Node5&#45;&gt;Node7</title>
<path fill="none" stroke="midnightblue" d="M654.432,-292.324C643.58,-284.185 627.119,-271.839 614.117,-262.087"/>
<polygon fill="midnightblue" stroke="midnightblue" points="615.879,-259.034 605.779,-255.834 611.679,-264.634 615.879,-259.034"/>
</g>
<!-- Node8 -->
<g id="node8" class="node"><title>Node8</title>
<g id="a_node8"><a xlink:href="livecellref_8hpp.html" target="_top" xlink:title="livecellref.hpp">
<polygon fill="white" stroke="black" points="428.5,-236.5 428.5,-255.5 509.5,-255.5 509.5,-236.5 428.5,-236.5"/>
<text text-anchor="middle" x="469" y="-243.5" font-family="FreeSans" font-size="10.00">livecellref.hpp</text>
</a>
</g>
</g>
<!-- Node5&#45;&gt;Node8 -->
<g id="edge8" class="edge"><title>Node5&#45;&gt;Node8</title>
<path fill="none" stroke="midnightblue" d="M640.649,-294.051C607.572,-284.984 549.284,-269.007 509.914,-258.215"/>
<polygon fill="midnightblue" stroke="midnightblue" points="510.661,-254.791 500.091,-255.522 508.81,-261.542 510.661,-254.791"/>
</g>
<!-- Node9 -->
<g id="node9" class="node"><title>Node9</title>
<polygon fill="white" stroke="#bfbfbf" points="441.5,-180.5 441.5,-199.5 496.5,-199.5 496.5,-180.5 441.5,-180.5"/>
<text text-anchor="middle" x="469" y="-187.5" font-family="FreeSans" font-size="10.00">typeinfo</text>
</g>
<!-- Node8&#45;&gt;Node9 -->
<g id="edge9" class="edge"><title>Node8&#45;&gt;Node9</title>
<path fill="none" stroke="midnightblue" d="M469,-236.083C469,-229.006 469,-218.861 469,-209.986"/>
<polygon fill="midnightblue" stroke="midnightblue" points="472.5,-209.751 469,-199.751 465.5,-209.751 472.5,-209.751"/>
</g>
<!-- Node10 -->
<g id="node10" class="node"><title>Node10</title>
<g id="a_node10"><a xlink:href="apps_2openmw_2mwworld_2cellref_8hpp.html" target="_top" xlink:title="cellref.hpp">
<polygon fill="white" stroke="black" points="117.5,-180.5 117.5,-199.5 182.5,-199.5 182.5,-180.5 117.5,-180.5"/>
<text text-anchor="middle" x="150" y="-187.5" font-family="FreeSans" font-size="10.00">cellref.hpp</text>
</a>
</g>
</g>
<!-- Node8&#45;&gt;Node10 -->
<g id="edge10" class="edge"><title>Node8&#45;&gt;Node10</title>
<path fill="none" stroke="midnightblue" d="M428.274,-238.106C367.779,-227.865 254.694,-208.723 192.943,-198.269"/>
<polygon fill="midnightblue" stroke="midnightblue" points="193.205,-194.764 182.761,-196.546 192.036,-201.666 193.205,-194.764"/>
</g>
<!-- Node16 -->
<g id="node16" class="node"><title>Node16</title>
<g id="a_node16"><a xlink:href="refdata_8hpp.html" target="_top" xlink:title="refdata.hpp">
<polygon fill="white" stroke="black" points="557,-180.5 557,-199.5 629,-199.5 629,-180.5 557,-180.5"/>
<text text-anchor="middle" x="593" y="-187.5" font-family="FreeSans" font-size="10.00">refdata.hpp</text>
</a>
</g>
</g>
<!-- Node8&#45;&gt;Node16 -->
<g id="edge17" class="edge"><title>Node8&#45;&gt;Node16</title>
<path fill="none" stroke="midnightblue" d="M488.648,-236.444C508.965,-227.596 540.903,-213.687 564.098,-203.586"/>
<polygon fill="midnightblue" stroke="midnightblue" points="565.673,-206.718 573.444,-199.516 562.878,-200.3 565.673,-206.718"/>
</g>
<!-- Node11 -->
<g id="node11" class="node"><title>Node11</title>
<g id="a_node11"><a xlink:href="components_2esm_2cellref_8hpp.html" target="_top" xlink:title="components/esm/cellref.hpp">
<polygon fill="white" stroke="black" points="75,-124.5 75,-143.5 227,-143.5 227,-124.5 75,-124.5"/>
<text text-anchor="middle" x="151" y="-131.5" font-family="FreeSans" font-size="10.00">components/esm/cellref.hpp</text>
</a>
</g>
</g>
<!-- Node10&#45;&gt;Node11 -->
<g id="edge11" class="edge"><title>Node10&#45;&gt;Node11</title>
<path fill="none" stroke="midnightblue" d="M150.165,-180.083C150.296,-173.006 150.484,-162.861 150.648,-153.986"/>
<polygon fill="midnightblue" stroke="midnightblue" points="154.152,-153.814 150.838,-143.751 147.153,-153.685 154.152,-153.814"/>
</g>
<!-- Node11&#45;&gt;Node4 -->
<g id="edge13" class="edge"><title>Node11&#45;&gt;Node4</title>
<path fill="none" stroke="midnightblue" d="M224.392,-124.499C338.714,-111.257 554.679,-86.2418 636.485,-76.7662"/>
<polygon fill="midnightblue" stroke="midnightblue" points="637.14,-80.2138 646.671,-75.5864 636.334,-73.2603 637.14,-80.2138"/>
</g>
<!-- Node12 -->
<g id="node12" class="node"><title>Node12</title>
<polygon fill="white" stroke="#bfbfbf" points="103,-62.5 103,-81.5 145,-81.5 145,-62.5 103,-62.5"/>
<text text-anchor="middle" x="124" y="-69.5" font-family="FreeSans" font-size="10.00">limits</text>
</g>
<!-- Node11&#45;&gt;Node12 -->
<g id="edge12" class="edge"><title>Node11&#45;&gt;Node12</title>
<path fill="none" stroke="midnightblue" d="M147.132,-124.403C143.202,-115.671 137,-101.889 132.007,-90.7936"/>
<polygon fill="midnightblue" stroke="midnightblue" points="135.157,-89.2635 127.861,-81.5806 128.773,-92.1361 135.157,-89.2635"/>
</g>
<!-- Node13 -->
<g id="node13" class="node"><title>Node13</title>
<g id="a_node13"><a xlink:href="esm_2defs_8hpp.html" target="_top" xlink:title="defs.hpp">
<polygon fill="white" stroke="black" points="250,-62.5 250,-81.5 308,-81.5 308,-62.5 250,-62.5"/>
<text text-anchor="middle" x="279" y="-69.5" font-family="FreeSans" font-size="10.00">defs.hpp</text>
</a>
</g>
</g>
<!-- Node11&#45;&gt;Node13 -->
<g id="edge14" class="edge"><title>Node11&#45;&gt;Node13</title>
<path fill="none" stroke="midnightblue" d="M169.339,-124.403C190.821,-114.334 226.622,-97.5522 251.448,-85.9151"/>
<polygon fill="midnightblue" stroke="midnightblue" points="253.126,-88.9941 260.695,-81.5806 250.155,-82.6559 253.126,-88.9941"/>
</g>
<!-- Node14 -->
<g id="node14" class="node"><title>Node14</title>
<polygon fill="white" stroke="#bfbfbf" points="883.5,-0.5 883.5,-19.5 936.5,-19.5 936.5,-0.5 883.5,-0.5"/>
<text text-anchor="middle" x="910" y="-7.5" font-family="FreeSans" font-size="10.00">stdint.h</text>
</g>
<!-- Node13&#45;&gt;Node14 -->
<g id="edge15" class="edge"><title>Node13&#45;&gt;Node14</title>
<path fill="none" stroke="midnightblue" d="M297.586,-62.3756C303.653,-59.912 310.502,-57.493 317,-56 423.741,-31.4739 760.836,-16.693 873.17,-12.3495"/>
<polygon fill="midnightblue" stroke="midnightblue" points="873.465,-15.8409 883.324,-11.9618 873.197,-8.84597 873.465,-15.8409"/>
</g>
<!-- Node15 -->
<g id="node15" class="node"><title>Node15</title>
<polygon fill="white" stroke="#bfbfbf" points="131.5,-0.5 131.5,-19.5 194.5,-19.5 194.5,-0.5 131.5,-0.5"/>
<text text-anchor="middle" x="163" y="-7.5" font-family="FreeSans" font-size="10.00">osg/Vec3f</text>
</g>
<!-- Node13&#45;&gt;Node15 -->
<g id="edge16" class="edge"><title>Node13&#45;&gt;Node15</title>
<path fill="none" stroke="midnightblue" d="M262.38,-62.4035C243.085,-52.4232 211.041,-35.8487 188.569,-24.2253"/>
<polygon fill="midnightblue" stroke="midnightblue" points="190.079,-21.0661 179.589,-19.5806 186.863,-27.2836 190.079,-21.0661"/>
</g>
<!-- Node16&#45;&gt;Node4 -->
<g id="edge27" class="edge"><title>Node16&#45;&gt;Node4</title>
<path fill="none" stroke="midnightblue" d="M598.712,-180.281C611.263,-161.126 641.429,-115.083 657.866,-89.9944"/>
<polygon fill="midnightblue" stroke="midnightblue" points="660.875,-91.7875 663.428,-81.5048 655.02,-87.9513 660.875,-91.7875"/>
</g>
<!-- Node16&#45;&gt;Node13 -->
<g id="edge18" class="edge"><title>Node16&#45;&gt;Node13</title>
<path fill="none" stroke="midnightblue" d="M593.08,-180.274C592.697,-166.105 589.711,-138.248 573,-124 529.284,-86.7275 372.55,-102.649 317,-88 313.944,-87.1941 310.8,-86.2142 307.692,-85.1454"/>
<polygon fill="midnightblue" stroke="midnightblue" points="308.628,-81.7588 298.036,-81.5321 306.175,-88.3148 308.628,-81.7588"/>
</g>
<!-- Node16&#45;&gt;Node15 -->
<g id="edge28" class="edge"><title>Node16&#45;&gt;Node15</title>
<path fill="none" stroke="midnightblue" d="M556.623,-185.114C540.774,-183.464 521.975,-181.564 505,-180 456.265,-175.51 99.1625,-179.993 66,-144 46.0117,-122.305 61.2216,-95.5739 94,-56 104.97,-42.7556 120.859,-32.0247 134.625,-24.3683"/>
<polygon fill="midnightblue" stroke="midnightblue" points="136.517,-27.3272 143.729,-19.5659 133.251,-21.1357 136.517,-27.3272"/>
</g>
<!-- Node17 -->
<g id="node17" class="node"><title>Node17</title>
<g id="a_node17"><a xlink:href="animationstate_8hpp.html" target="_top" xlink:title="components/esm/animationstate.hpp">
<polygon fill="white" stroke="black" points="811.5,-124.5 811.5,-143.5 1008.5,-143.5 1008.5,-124.5 811.5,-124.5"/>
<text text-anchor="middle" x="910" y="-131.5" font-family="FreeSans" font-size="10.00">components/esm/animationstate.hpp</text>
</a>
</g>
</g>
<!-- Node16&#45;&gt;Node17 -->
<g id="edge19" class="edge"><title>Node16&#45;&gt;Node17</title>
<path fill="none" stroke="midnightblue" d="M629.055,-182.858C682.814,-173.7 784.621,-156.358 849.795,-145.256"/>
<polygon fill="midnightblue" stroke="midnightblue" points="850.657,-148.659 859.927,-143.53 849.481,-141.759 850.657,-148.659"/>
</g>
<!-- Node19 -->
<g id="node19" class="node"><title>Node19</title>
<g id="a_node19"><a xlink:href="apps_2openmw_2mwscript_2locals_8hpp.html" target="_top" xlink:title="../mwscript/locals.hpp">
<polygon fill="white" stroke="black" points="1026.5,-124.5 1026.5,-143.5 1145.5,-143.5 1145.5,-124.5 1026.5,-124.5"/>
<text text-anchor="middle" x="1086" y="-131.5" font-family="FreeSans" font-size="10.00">../mwscript/locals.hpp</text>
</a>
</g>
</g>
<!-- Node16&#45;&gt;Node19 -->
<g id="edge23" class="edge"><title>Node16&#45;&gt;Node19</title>
<path fill="none" stroke="midnightblue" d="M629.05,-185.468C700.592,-178.396 865.825,-161.745 1015.86,-144.11"/>
<polygon fill="midnightblue" stroke="midnightblue" points="1016.65,-147.54 1026.17,-142.893 1015.83,-140.589 1016.65,-147.54"/>
</g>
<!-- Node17&#45;&gt;Node4 -->
<g id="edge20" class="edge"><title>Node17&#45;&gt;Node4</title>
<path fill="none" stroke="midnightblue" d="M875.727,-124.467C829.19,-112.881 746.621,-92.3248 701.19,-81.014"/>
<polygon fill="midnightblue" stroke="midnightblue" points="701.833,-77.5674 691.284,-78.5478 700.142,-84.3601 701.833,-77.5674"/>
</g>
<!-- Node17&#45;&gt;Node14 -->
<g id="edge22" class="edge"><title>Node17&#45;&gt;Node14</title>
<path fill="none" stroke="midnightblue" d="M910,-124.226C910,-104.53 910,-56.4371 910,-29.7004"/>
<polygon fill="midnightblue" stroke="midnightblue" points="913.5,-29.6944 910,-19.6944 906.5,-29.6945 913.5,-29.6944"/>
</g>
<!-- Node18 -->
<g id="node18" class="node"><title>Node18</title>
<polygon fill="white" stroke="#bfbfbf" points="1150.5,-62.5 1150.5,-81.5 1197.5,-81.5 1197.5,-62.5 1150.5,-62.5"/>
<text text-anchor="middle" x="1174" y="-69.5" font-family="FreeSans" font-size="10.00">vector</text>
</g>
<!-- Node17&#45;&gt;Node18 -->
<g id="edge21" class="edge"><title>Node17&#45;&gt;Node18</title>
<path fill="none" stroke="midnightblue" d="M975.245,-124.463C1022.08,-117.332 1086.32,-105.485 1141,-88 1143.28,-87.2722 1145.6,-86.4303 1147.92,-85.5242"/>
<polygon fill="midnightblue" stroke="midnightblue" points="1149.35,-88.7153 1157.17,-81.5655 1146.6,-82.279 1149.35,-88.7153"/>
</g>
<!-- Node19&#45;&gt;Node18 -->
<g id="edge24" class="edge"><title>Node19&#45;&gt;Node18</title>
<path fill="none" stroke="midnightblue" d="M1098.61,-124.403C1112.72,-114.78 1135.83,-99.0242 1152.75,-87.4891"/>
<polygon fill="midnightblue" stroke="midnightblue" points="1155.12,-90.1058 1161.42,-81.5806 1151.18,-84.3222 1155.12,-90.1058"/>
</g>
<!-- Node20 -->
<g id="node20" class="node"><title>Node20</title>
<g id="a_node20"><a xlink:href="types_8hpp.html" target="_top" xlink:title="components/interpreter\l/types.hpp">
<polygon fill="white" stroke="black" points="1001.5,-57 1001.5,-87 1132.5,-87 1132.5,-57 1001.5,-57"/>
<text text-anchor="start" x="1009.5" y="-75" font-family="FreeSans" font-size="10.00">components/interpreter</text>
<text text-anchor="middle" x="1067" y="-64" font-family="FreeSans" font-size="10.00">/types.hpp</text>
</a>
</g>
</g>
<!-- Node19&#45;&gt;Node20 -->
<g id="edge25" class="edge"><title>Node19&#45;&gt;Node20</title>
<path fill="none" stroke="midnightblue" d="M1083.28,-124.403C1080.99,-117.189 1077.62,-106.528 1074.53,-96.7823"/>
<polygon fill="midnightblue" stroke="midnightblue" points="1077.83,-95.6176 1071.48,-87.1408 1071.16,-97.7309 1077.83,-95.6176"/>
</g>
<!-- Node21 -->
<g id="node21" class="node"><title>Node21</title>
<polygon fill="white" stroke="#bfbfbf" points="1035,-0.5 1035,-19.5 1099,-19.5 1099,-0.5 1035,-0.5"/>
<text text-anchor="middle" x="1067" y="-7.5" font-family="FreeSans" font-size="10.00">stdexcept</text>
</g>
<!-- Node20&#45;&gt;Node21 -->
<g id="edge26" class="edge"><title>Node20&#45;&gt;Node21</title>
<path fill="none" stroke="midnightblue" d="M1067,-56.7808C1067,-48.7812 1067,-38.6887 1067,-30.0168"/>
<polygon fill="midnightblue" stroke="midnightblue" points="1070.5,-29.7305 1067,-19.7305 1063.5,-29.7306 1070.5,-29.7305"/>
</g>
<!-- Node23&#45;&gt;Node4 -->
<g id="edge32" class="edge"><title>Node23&#45;&gt;Node4</title>
<path fill="none" stroke="midnightblue" d="M1203.52,-292.056C1189.78,-278.084 1161.25,-251.121 1132,-236 996.743,-166.082 943.335,-200.634 802,-144 761.535,-127.785 717.429,-102.618 691.546,-87.0093"/>
<polygon fill="midnightblue" stroke="midnightblue" points="693.236,-83.9405 682.876,-81.7256 689.594,-89.9181 693.236,-83.9405"/>
</g>
<!-- Node23&#45;&gt;Node14 -->
<g id="edge31" class="edge"><title>Node23&#45;&gt;Node14</title>
<path fill="none" stroke="midnightblue" d="M1217.28,-292.231C1227.73,-274.043 1250,-230.601 1250,-191 1250,-191 1250,-191 1250,-133 1250,-93.5845 1238.5,-78.2967 1206,-56 1184.96,-41.5669 1022.08,-22.8024 947.303,-14.8408"/>
<polygon fill="midnightblue" stroke="midnightblue" points="947.25,-11.3158 936.938,-13.7463 946.515,-18.2771 947.25,-11.3158"/>
</g>
<!-- Node23&#45;&gt;Node18 -->
<g id="edge33" class="edge"><title>Node23&#45;&gt;Node18</title>
<path fill="none" stroke="midnightblue" d="M1211.25,-292.458C1208.9,-266.781 1201.09,-188.11 1188,-124 1185.76,-113.019 1182.47,-100.915 1179.65,-91.2555"/>
<polygon fill="midnightblue" stroke="midnightblue" points="1182.97,-90.1443 1176.73,-81.5783 1176.26,-92.1628 1182.97,-90.1443"/>
</g>
<!-- Node24 -->
<g id="node24" class="node"><title>Node24</title>
<polygon fill="white" stroke="#bfbfbf" points="837,-236.5 837,-255.5 875,-255.5 875,-236.5 837,-236.5"/>
<text text-anchor="middle" x="856" y="-243.5" font-family="FreeSans" font-size="10.00">map</text>
</g>
<!-- Node23&#45;&gt;Node24 -->
<g id="edge34" class="edge"><title>Node23&#45;&gt;Node24</title>
<path fill="none" stroke="midnightblue" d="M1155.59,-292.444C1078.81,-280.797 944.208,-260.38 885.161,-251.423"/>
<polygon fill="midnightblue" stroke="midnightblue" points="885.458,-247.928 875.046,-249.889 884.408,-254.849 885.458,-247.928"/>
</g>
<!-- Node25 -->
<g id="node25" class="node"><title>Node25</title>
<polygon fill="white" stroke="#bfbfbf" points="1091,-236.5 1091,-255.5 1123,-255.5 1123,-236.5 1091,-236.5"/>
<text text-anchor="middle" x="1107" y="-243.5" font-family="FreeSans" font-size="10.00">set</text>
</g>
<!-- Node23&#45;&gt;Node25 -->
<g id="edge35" class="edge"><title>Node23&#45;&gt;Node25</title>
<path fill="none" stroke="midnightblue" d="M1195.13,-292.324C1178.09,-283.562 1151.57,-269.924 1132.07,-259.896"/>
<polygon fill="midnightblue" stroke="midnightblue" points="1133.63,-256.761 1123.14,-255.3 1130.43,-262.986 1133.63,-256.761"/>
</g>
<!-- Node26 -->
<g id="node26" class="node"><title>Node26</title>
<polygon fill="white" stroke="#bfbfbf" points="1278.5,-236.5 1278.5,-255.5 1381.5,-255.5 1381.5,-236.5 1278.5,-236.5"/>
<text text-anchor="middle" x="1330" y="-243.5" font-family="FreeSans" font-size="10.00">MyGUI_KeyCode.h</text>
</g>
<!-- Node23&#45;&gt;Node26 -->
<g id="edge36" class="edge"><title>Node23&#45;&gt;Node26</title>
<path fill="none" stroke="midnightblue" d="M1230.7,-292.444C1249.94,-283.636 1280.15,-269.812 1302.2,-259.722"/>
<polygon fill="midnightblue" stroke="midnightblue" points="1303.75,-262.86 1311.39,-255.516 1300.84,-256.495 1303.75,-262.86"/>
</g>
<!-- Node27 -->
<g id="node27" class="node"><title>Node27</title>
<g id="a_node27"><a xlink:href="mode_8hpp.html" target="_top" xlink:title="../mwgui/mode.hpp">
<polygon fill="white" stroke="black" points="1400,-236.5 1400,-255.5 1508,-255.5 1508,-236.5 1400,-236.5"/>
<text text-anchor="middle" x="1454" y="-243.5" font-family="FreeSans" font-size="10.00">../mwgui/mode.hpp</text>
</a>
</g>
</g>
<!-- Node23&#45;&gt;Node27 -->
<g id="edge37" class="edge"><title>Node23&#45;&gt;Node27</title>
<path fill="none" stroke="midnightblue" d="M1250.35,-292.444C1292.47,-283.043 1360.21,-267.929 1405.87,-257.739"/>
<polygon fill="midnightblue" stroke="midnightblue" points="1406.84,-261.11 1415.83,-255.516 1405.31,-254.278 1406.84,-261.11"/>
</g>
<!-- Node28&#45;&gt;Node5 -->
<g id="edge44" class="edge"><title>Node28&#45;&gt;Node5</title>
<path fill="none" stroke="midnightblue" d="M835.151,-348.444C798.624,-338.63 738.92,-322.591 701.086,-312.426"/>
<polygon fill="midnightblue" stroke="midnightblue" points="701.598,-308.94 691.032,-309.725 699.782,-315.7 701.598,-308.94"/>
</g>
<!-- Node28&#45;&gt;Node18 -->
<g id="edge39" class="edge"><title>Node28&#45;&gt;Node18</title>
<path fill="none" stroke="midnightblue" d="M924.25,-354.291C961.547,-349.862 1009.35,-338.851 1043,-312 1072.68,-288.32 1061.54,-267.982 1082,-236 1109.98,-192.261 1130.52,-190.308 1154,-144 1162.49,-127.253 1167.82,-106.399 1170.82,-91.6356"/>
<polygon fill="midnightblue" stroke="midnightblue" points="1174.28,-92.175 1172.67,-81.7024 1167.4,-90.8899 1174.28,-92.175"/>
</g>
<!-- Node28&#45;&gt;Node24 -->
<g id="edge40" class="edge"><title>Node28&#45;&gt;Node24</title>
<path fill="none" stroke="midnightblue" d="M866.137,-348.368C864.362,-330.617 860.267,-289.666 857.86,-265.597"/>
<polygon fill="midnightblue" stroke="midnightblue" points="861.337,-265.193 856.859,-255.591 854.372,-265.89 861.337,-265.193"/>
</g>
<!-- Node28&#45;&gt;Node25 -->
<g id="edge41" class="edge"><title>Node28&#45;&gt;Node25</title>
<path fill="none" stroke="midnightblue" d="M918.242,-348.484C976.341,-338.446 1064.64,-321.885 1077,-312 1091.38,-300.492 1099.17,-280.521 1103.17,-265.744"/>
<polygon fill="midnightblue" stroke="midnightblue" points="1106.66,-266.219 1105.55,-255.683 1099.84,-264.612 1106.66,-266.219"/>
</g>
<!-- Node29 -->
<g id="node29" class="node"><title>Node29</title>
<g id="a_node29"><a xlink:href="cellid_8hpp.html" target="_top" xlink:title="components/esm/cellid.hpp">
<polygon fill="white" stroke="black" points="734.5,-180.5 734.5,-199.5 883.5,-199.5 883.5,-180.5 734.5,-180.5"/>
<text text-anchor="middle" x="809" y="-187.5" font-family="FreeSans" font-size="10.00">components/esm/cellid.hpp</text>
</a>
</g>
</g>
<!-- Node28&#45;&gt;Node29 -->
<g id="edge42" class="edge"><title>Node28&#45;&gt;Node29</title>
<path fill="none" stroke="midnightblue" d="M863.414,-348.443C856.23,-331.147 839.754,-290.718 828,-256 822.757,-240.514 817.604,-222.672 813.99,-209.604"/>
<polygon fill="midnightblue" stroke="midnightblue" points="817.353,-208.634 811.348,-199.905 810.599,-210.473 817.353,-208.634"/>
</g>
<!-- Node30 -->
<g id="node30" class="node"><title>Node30</title>
<g id="a_node30"><a xlink:href="rendermode_8hpp.html" target="_top" xlink:title="../mwrender/rendermode.hpp">
<polygon fill="white" stroke="black" points="877.5,-292.5 877.5,-311.5 1034.5,-311.5 1034.5,-292.5 877.5,-292.5"/>
<text text-anchor="middle" x="956" y="-299.5" font-family="FreeSans" font-size="10.00">../mwrender/rendermode.hpp</text>
</a>
</g>
</g>
<!-- Node28&#45;&gt;Node30 -->
<g id="edge45" class="edge"><title>Node28&#45;&gt;Node30</title>
<path fill="none" stroke="midnightblue" d="M881.299,-348.324C895.183,-339.9 916.492,-326.971 932.804,-317.074"/>
<polygon fill="midnightblue" stroke="midnightblue" points="935.002,-319.834 941.736,-311.655 931.371,-313.85 935.002,-319.834"/>
</g>
<!-- Node29&#45;&gt;Node4 -->
<g id="edge43" class="edge"><title>Node29&#45;&gt;Node4</title>
<path fill="none" stroke="midnightblue" d="M798.477,-180.281C774.747,-160.619 716.829,-112.63 687.164,-88.0498"/>
<polygon fill="midnightblue" stroke="midnightblue" points="689.198,-85.1899 679.264,-81.5048 684.732,-90.5801 689.198,-85.1899"/>
</g>
<!-- Node31&#45;&gt;Node8 -->
<g id="edge49" class="edge"><title>Node31&#45;&gt;Node8</title>
<path fill="none" stroke="midnightblue" d="M440.614,-292.083C445.367,-284.534 452.318,-273.495 458.152,-264.23"/>
<polygon fill="midnightblue" stroke="midnightblue" points="461.124,-266.078 463.49,-255.751 455.2,-262.349 461.124,-266.078"/>
</g>
<!-- Node31&#45;&gt;Node16 -->
<g id="edge48" class="edge"><title>Node31&#45;&gt;Node16</title>
<path fill="none" stroke="midnightblue" d="M453.475,-292.427C470.753,-284.08 496.975,-270.553 518,-256 539.756,-240.941 562.398,-220.56 577.035,-206.66"/>
<polygon fill="midnightblue" stroke="midnightblue" points="579.509,-209.137 584.286,-199.68 574.654,-204.093 579.509,-209.137"/>
</g>
<!-- Node31&#45;&gt;Node24 -->
<g id="edge47" class="edge"><title>Node31&#45;&gt;Node24</title>
<path fill="none" stroke="midnightblue" d="M494.872,-293.32C586.453,-281.574 757.914,-259.581 826.52,-250.781"/>
<polygon fill="midnightblue" stroke="midnightblue" points="827.146,-254.23 836.62,-249.486 826.256,-247.287 827.146,-254.23"/>
</g>
<!-- Node32 -->
<g id="node32" class="node"><title>Node32</title>
<g id="a_node32"><a xlink:href="drawstate_8hpp.html" target="_top" xlink:title="../mwmechanics/drawstate.hpp">
<polygon fill="white" stroke="black" points="206.5,-236.5 206.5,-255.5 371.5,-255.5 371.5,-236.5 206.5,-236.5"/>
<text text-anchor="middle" x="289" y="-243.5" font-family="FreeSans" font-size="10.00">../mwmechanics/drawstate.hpp</text>
</a>
</g>
</g>
<!-- Node31&#45;&gt;Node32 -->
<g id="edge50" class="edge"><title>Node31&#45;&gt;Node32</title>
<path fill="none" stroke="midnightblue" d="M411.866,-292.444C387.518,-283.438 348.993,-269.189 321.577,-259.049"/>
<polygon fill="midnightblue" stroke="midnightblue" points="322.619,-255.703 312.026,-255.516 320.191,-262.268 322.619,-255.703"/>
</g>
<!-- Node33 -->
<g id="node33" class="node"><title>Node33</title>
<g id="a_node33"><a xlink:href="stat_8hpp.html" target="_top" xlink:title="../mwmechanics/stat.hpp">
<polygon fill="white" stroke="black" points="-0.5,-236.5 -0.5,-255.5 136.5,-255.5 136.5,-236.5 -0.5,-236.5"/>
<text text-anchor="middle" x="68" y="-243.5" font-family="FreeSans" font-size="10.00">../mwmechanics/stat.hpp</text>
</a>
</g>
</g>
<!-- Node31&#45;&gt;Node33 -->
<g id="edge51" class="edge"><title>Node31&#45;&gt;Node33</title>
<path fill="none" stroke="midnightblue" d="M376.848,-292.444C311.349,-282.806 205.037,-267.163 135.815,-256.978"/>
<polygon fill="midnightblue" stroke="midnightblue" points="136.283,-253.51 125.88,-255.516 135.264,-260.435 136.283,-253.51"/>
</g>
<!-- Node35 -->
<g id="node35" class="node"><title>Node35</title>
<g id="a_node35"><a xlink:href="loadskil_8hpp.html" target="_top" xlink:title="components/esm/loadskil.hpp">
<polygon fill="white" stroke="black" points="245,-124.5 245,-143.5 405,-143.5 405,-124.5 245,-124.5"/>
<text text-anchor="middle" x="325" y="-131.5" font-family="FreeSans" font-size="10.00">components/esm/loadskil.hpp</text>
</a>
</g>
</g>
<!-- Node31&#45;&gt;Node35 -->
<g id="edge54" class="edge"><title>Node31&#45;&gt;Node35</title>
<path fill="none" stroke="midnightblue" d="M375.408,-298.17C312.449,-293.785 219.236,-282.834 197,-256 160.782,-212.292 244.385,-168.352 293.088,-147.496"/>
<polygon fill="midnightblue" stroke="midnightblue" points="294.44,-150.724 302.317,-143.639 291.741,-144.265 294.44,-150.724"/>
</g>
<!-- Node37 -->
<g id="node37" class="node"><title>Node37</title>
<g id="a_node37"><a xlink:href="attr_8hpp.html" target="_top" xlink:title="components/esm/attr.hpp">
<polygon fill="white" stroke="black" points="423.5,-124.5 423.5,-143.5 564.5,-143.5 564.5,-124.5 423.5,-124.5"/>
<text text-anchor="middle" x="494" y="-131.5" font-family="FreeSans" font-size="10.00">components/esm/attr.hpp</text>
</a>
</g>
</g>
<!-- Node31&#45;&gt;Node37 -->
<g id="edge58" class="edge"><title>Node31&#45;&gt;Node37</title>
<path fill="none" stroke="midnightblue" d="M430.889,-292.277C426.941,-283.383 421.255,-269.074 419,-256 413.175,-222.23 413.062,-208.56 432,-180 440.754,-166.799 454.781,-156.141 467.28,-148.518"/>
<polygon fill="midnightblue" stroke="midnightblue" points="469.08,-151.52 476.015,-143.51 465.599,-145.448 469.08,-151.52"/>
</g>
<!-- Node33&#45;&gt;Node12 -->
<g id="edge53" class="edge"><title>Node33&#45;&gt;Node12</title>
<path fill="none" stroke="midnightblue" d="M56.7344,-236.427C47.0337,-228.275 33.7207,-215.046 28,-200 24.8411,-191.691 25.3893,-188.497 28,-180 40.4038,-139.63 78.3553,-105.878 102.66,-87.634"/>
<polygon fill="midnightblue" stroke="midnightblue" points="104.891,-90.3395 110.925,-81.6305 100.777,-84.676 104.891,-90.3395"/>
</g>
<!-- Node34 -->
<g id="node34" class="node"><title>Node34</title>
<polygon fill="white" stroke="#bfbfbf" points="37,-180.5 37,-199.5 99,-199.5 99,-180.5 37,-180.5"/>
<text text-anchor="middle" x="68" y="-187.5" font-family="FreeSans" font-size="10.00">algorithm</text>
</g>
<!-- Node33&#45;&gt;Node34 -->
<g id="edge52" class="edge"><title>Node33&#45;&gt;Node34</title>
<path fill="none" stroke="midnightblue" d="M68,-236.083C68,-229.006 68,-218.861 68,-209.986"/>
<polygon fill="midnightblue" stroke="midnightblue" points="71.5001,-209.751 68,-199.751 64.5001,-209.751 71.5001,-209.751"/>
</g>
<!-- Node35&#45;&gt;Node4 -->
<g id="edge55" class="edge"><title>Node35&#45;&gt;Node4</title>
<path fill="none" stroke="midnightblue" d="M373.921,-124.467C445.316,-112.015 576.123,-89.1995 636.671,-78.6388"/>
<polygon fill="midnightblue" stroke="midnightblue" points="637.539,-82.0403 646.789,-76.874 636.336,-75.1444 637.539,-82.0403"/>
</g>
<!-- Node35&#45;&gt;Node13 -->
<g id="edge57" class="edge"><title>Node35&#45;&gt;Node13</title>
<path fill="none" stroke="midnightblue" d="M318.409,-124.403C311.509,-115.403 300.498,-101.041 291.866,-89.7824"/>
<polygon fill="midnightblue" stroke="midnightblue" points="294.44,-87.3872 285.578,-81.5806 288.885,-91.6462 294.44,-87.3872"/>
</g>
<!-- Node36 -->
<g id="node36" class="node"><title>Node36</title>
<polygon fill="white" stroke="#bfbfbf" points="326.5,-62.5 326.5,-81.5 417.5,-81.5 417.5,-62.5 326.5,-62.5"/>
<text text-anchor="middle" x="372" y="-69.5" font-family="FreeSans" font-size="10.00">boost/array.hpp</text>
</g>
<!-- Node35&#45;&gt;Node36 -->
<g id="edge56" class="edge"><title>Node35&#45;&gt;Node36</title>
<path fill="none" stroke="midnightblue" d="M331.734,-124.403C338.784,-115.403 350.035,-101.041 358.854,-89.7824"/>
<polygon fill="midnightblue" stroke="midnightblue" points="361.867,-91.6112 365.279,-81.5806 356.357,-87.2946 361.867,-91.6112"/>
</g>
<!-- Node37&#45;&gt;Node4 -->
<g id="edge59" class="edge"><title>Node37&#45;&gt;Node4</title>
<path fill="none" stroke="midnightblue" d="M519.073,-124.403C550.078,-113.773 602.904,-95.6615 636.858,-84.0201"/>
<polygon fill="midnightblue" stroke="midnightblue" points="638.42,-87.1846 646.745,-80.6304 636.15,-80.5629 638.42,-87.1846"/>
</g>
<!-- Node38&#45;&gt;Node5 -->
<g id="edge61" class="edge"><title>Node38&#45;&gt;Node5</title>
<path fill="none" stroke="midnightblue" d="M634.275,-348.083C639.642,-340.455 647.518,-329.264 654.079,-319.941"/>
<polygon fill="midnightblue" stroke="midnightblue" points="656.949,-321.943 659.842,-311.751 651.225,-317.915 656.949,-321.943"/>
</g>
</g>
</svg>
