<?xml version="1.0" encoding="UTF-8" standalone="no"?>
<!DOCTYPE svg PUBLIC "-//W3C//DTD SVG 1.1//EN"
 "http://www.w3.org/Graphics/SVG/1.1/DTD/svg11.dtd">
<!-- Generated by graphviz version 2.36.0 (20140111.2315)
 -->
<!-- Title: /home/travis/build/elsid/openmw/apps/launcher/advancedpage.cpp Pages: 1 -->
<svg width="1471pt" height="298pt"
 viewBox="0.00 0.00 1471.00 298.00" xmlns="http://www.w3.org/2000/svg" xmlns:xlink="http://www.w3.org/1999/xlink">
<g id="graph0" class="graph" transform="scale(1 1) rotate(0) translate(4 294)">
<title>/home/travis/build/elsid/openmw/apps/launcher/advancedpage.cpp</title>
<polygon fill="white" stroke="none" points="-4,4 -4,-294 1467,-294 1467,4 -4,4"/>
<!-- Node1 -->
<g id="node1" class="node"><title>Node1</title>
<polygon fill="#bfbfbf" stroke="black" points="652.5,-248.5 652.5,-289.5 807.5,-289.5 807.5,-248.5 652.5,-248.5"/>
<text text-anchor="start" x="660.5" y="-277.5" font-family="FreeSans" font-size="10.00">/home/travis/build</text>
<text text-anchor="start" x="660.5" y="-266.5" font-family="FreeSans" font-size="10.00">/elsid/openmw/apps/launcher</text>
<text text-anchor="middle" x="730" y="-255.5" font-family="FreeSans" font-size="10.00">/advancedpage.cpp</text>
</g>
<!-- Node2 -->
<g id="node2" class="node"><title>Node2</title>
<g id="a_node2"><a xlink:href="advancedpage_8hpp.html" target="_top" xlink:title="advancedpage.hpp">
<polygon fill="white" stroke="black" points="141,-186.5 141,-205.5 249,-205.5 249,-186.5 141,-186.5"/>
<text text-anchor="middle" x="195" y="-193.5" font-family="FreeSans" font-size="10.00">advancedpage.hpp</text>
</a>
</g>
</g>
<!-- Node1&#45;&gt;Node2 -->
<g id="edge1" class="edge"><title>Node1&#45;&gt;Node2</title>
<path fill="none" stroke="midnightblue" d="M652.492,-257.714C546.489,-243.646 358.219,-218.661 259.493,-205.559"/>
<polygon fill="midnightblue" stroke="midnightblue" points="259.729,-202.06 249.356,-204.214 258.808,-208.999 259.729,-202.06"/>
</g>
<!-- Node9 -->
<g id="node9" class="node"><title>Node9</title>
<g id="a_node9"><a xlink:href="gamesettings_8hpp.html" target="_top" xlink:title="components/config/gamesettings.hpp">
<polygon fill="white" stroke="black" points="465,-118.5 465,-137.5 663,-137.5 663,-118.5 465,-118.5"/>
<text text-anchor="middle" x="564" y="-125.5" font-family="FreeSans" font-size="10.00">components/config/gamesettings.hpp</text>
</a>
</g>
</g>
<!-- Node1&#45;&gt;Node9 -->
<g id="edge8" class="edge"><title>Node1&#45;&gt;Node9</title>
<path fill="none" stroke="midnightblue" d="M652.31,-262.852C580.195,-256.263 480.409,-241.902 456,-212 447.006,-200.982 448.387,-192.013 456,-180 468.416,-160.406 490.604,-148.198 511.652,-140.662"/>
<polygon fill="midnightblue" stroke="midnightblue" points="512.799,-143.97 521.204,-137.519 510.611,-137.321 512.799,-143.97"/>
</g>
<!-- Node16 -->
<g id="node16" class="node"><title>Node16</title>
<g id="a_node16"><a xlink:href="launchersettings_8hpp.html" target="_top" xlink:title="components/config/launchersettings.hpp">
<polygon fill="white" stroke="black" points="465,-186.5 465,-205.5 677,-205.5 677,-186.5 465,-186.5"/>
<text text-anchor="middle" x="571" y="-193.5" font-family="FreeSans" font-size="10.00">components/config/launchersettings.hpp</text>
</a>
</g>
</g>
<!-- Node1&#45;&gt;Node16 -->
<g id="edge15" class="edge"><title>Node1&#45;&gt;Node16</title>
<path fill="none" stroke="midnightblue" d="M686.132,-248.411C658.502,-236.073 623.632,-220.502 599.546,-209.747"/>
<polygon fill="midnightblue" stroke="midnightblue" points="600.81,-206.478 590.252,-205.597 597.956,-212.87 600.81,-206.478"/>
</g>
<!-- Node19 -->
<g id="node19" class="node"><title>Node19</title>
<polygon fill="white" stroke="#bfbfbf" points="695.5,-186.5 695.5,-205.5 764.5,-205.5 764.5,-186.5 695.5,-186.5"/>
<text text-anchor="middle" x="730" y="-193.5" font-family="FreeSans" font-size="10.00">QFileDialog</text>
</g>
<!-- Node1&#45;&gt;Node19 -->
<g id="edge23" class="edge"><title>Node1&#45;&gt;Node19</title>
<path fill="none" stroke="midnightblue" d="M730,-248.223C730,-238.086 730,-225.807 730,-215.813"/>
<polygon fill="midnightblue" stroke="midnightblue" points="733.5,-215.735 730,-205.735 726.5,-215.735 733.5,-215.735"/>
</g>
<!-- Node20 -->
<g id="node20" class="node"><title>Node20</title>
<polygon fill="white" stroke="#bfbfbf" points="783,-186.5 783,-205.5 857,-205.5 857,-186.5 783,-186.5"/>
<text text-anchor="middle" x="820" y="-193.5" font-family="FreeSans" font-size="10.00">QCompleter</text>
</g>
<!-- Node1&#45;&gt;Node20 -->
<g id="edge24" class="edge"><title>Node1&#45;&gt;Node20</title>
<path fill="none" stroke="midnightblue" d="M755.07,-248.223C769.577,-236.778 787.546,-222.603 800.901,-212.067"/>
<polygon fill="midnightblue" stroke="midnightblue" points="803.244,-214.676 808.928,-205.735 798.909,-209.181 803.244,-214.676"/>
</g>
<!-- Node21 -->
<g id="node21" class="node"><title>Node21</title>
<g id="a_node21"><a xlink:href="contentselector_8hpp.html" target="_top" xlink:title="components/contentselector\l/view/contentselector.hpp">
<polygon fill="white" stroke="black" points="875.5,-181 875.5,-211 1030.5,-211 1030.5,-181 875.5,-181"/>
<text text-anchor="start" x="883.5" y="-199" font-family="FreeSans" font-size="10.00">components/contentselector</text>
<text text-anchor="middle" x="953" y="-188" font-family="FreeSans" font-size="10.00">/view/contentselector.hpp</text>
</a>
</g>
</g>
<!-- Node1&#45;&gt;Node21 -->
<g id="edge25" class="edge"><title>Node1&#45;&gt;Node21</title>
<path fill="none" stroke="midnightblue" d="M791.526,-248.411C825.291,-237.661 866.764,-224.456 899.225,-214.121"/>
<polygon fill="midnightblue" stroke="midnightblue" points="900.524,-217.381 908.991,-211.012 898.401,-210.711 900.524,-217.381"/>
</g>
<!-- Node29 -->
<g id="node29" class="node"><title>Node29</title>
<g id="a_node29"><a xlink:href="esmfile_8hpp.html" target="_top" xlink:title="components/contentselector\l/model/esmfile.hpp">
<polygon fill="white" stroke="black" points="1155.5,-181 1155.5,-211 1310.5,-211 1310.5,-181 1155.5,-181"/>
<text text-anchor="start" x="1163.5" y="-199" font-family="FreeSans" font-size="10.00">components/contentselector</text>
<text text-anchor="middle" x="1233" y="-188" font-family="FreeSans" font-size="10.00">/model/esmfile.hpp</text>
</a>
</g>
</g>
<!-- Node1&#45;&gt;Node29 -->
<g id="edge35" class="edge"><title>Node1&#45;&gt;Node29</title>
<path fill="none" stroke="midnightblue" d="M807.766,-257.023C898.986,-244.147 1049.84,-222.854 1145.19,-209.395"/>
<polygon fill="midnightblue" stroke="midnightblue" points="1145.69,-212.86 1155.1,-207.996 1144.71,-205.928 1145.69,-212.86"/>
</g>
<!-- Node3 -->
<g id="node3" class="node"><title>Node3</title>
<polygon fill="white" stroke="#bfbfbf" points="0,-118.5 0,-137.5 56,-137.5 56,-118.5 0,-118.5"/>
<text text-anchor="middle" x="28" y="-125.5" font-family="FreeSans" font-size="10.00">QWidget</text>
</g>
<!-- Node2&#45;&gt;Node3 -->
<g id="edge2" class="edge"><title>Node2&#45;&gt;Node3</title>
<path fill="none" stroke="midnightblue" d="M172.888,-186.413C146.996,-176.338 102.832,-159.089 65,-144 62.9076,-143.165 60.7501,-142.301 58.5778,-141.428"/>
<polygon fill="midnightblue" stroke="midnightblue" points="59.6982,-138.106 49.1151,-137.608 57.078,-144.597 59.6982,-138.106"/>
</g>
<!-- Node4 -->
<g id="node4" class="node"><title>Node4</title>
<polygon fill="white" stroke="#bfbfbf" points="74,-118.5 74,-137.5 184,-137.5 184,-118.5 74,-118.5"/>
<text text-anchor="middle" x="129" y="-125.5" font-family="FreeSans" font-size="10.00">ui_advancedpage.h</text>
</g>
<!-- Node2&#45;&gt;Node4 -->
<g id="edge3" class="edge"><title>Node2&#45;&gt;Node4</title>
<path fill="none" stroke="midnightblue" d="M186.372,-186.372C175.955,-175.955 158.217,-158.217 145.216,-145.216"/>
<polygon fill="midnightblue" stroke="midnightblue" points="147.387,-142.437 137.841,-137.841 142.437,-147.387 147.387,-142.437"/>
</g>
<!-- Node5 -->
<g id="node5" class="node"><title>Node5</title>
<g id="a_node5"><a xlink:href="settings_8hpp.html" target="_top" xlink:title="components/settings\l/settings.hpp">
<polygon fill="white" stroke="black" points="202,-113 202,-143 320,-143 320,-113 202,-113"/>
<text text-anchor="start" x="210" y="-131" font-family="FreeSans" font-size="10.00">components/settings</text>
<text text-anchor="middle" x="261" y="-120" font-family="FreeSans" font-size="10.00">/settings.hpp</text>
</a>
</g>
</g>
<!-- Node2&#45;&gt;Node5 -->
<g id="edge4" class="edge"><title>Node2&#45;&gt;Node5</title>
<path fill="none" stroke="midnightblue" d="M203.628,-186.372C212.714,-177.286 227.369,-162.631 239.593,-150.407"/>
<polygon fill="midnightblue" stroke="midnightblue" points="242.222,-152.727 246.819,-143.181 237.273,-147.778 242.222,-152.727"/>
</g>
<!-- Node6 -->
<g id="node6" class="node"><title>Node6</title>
<polygon fill="white" stroke="#bfbfbf" points="162,-56.5 162,-75.5 194,-75.5 194,-56.5 162,-56.5"/>
<text text-anchor="middle" x="178" y="-63.5" font-family="FreeSans" font-size="10.00">set</text>
</g>
<!-- Node5&#45;&gt;Node6 -->
<g id="edge5" class="edge"><title>Node5&#45;&gt;Node6</title>
<path fill="none" stroke="midnightblue" d="M241.33,-112.781C228.399,-103.433 211.514,-91.2273 198.432,-81.77"/>
<polygon fill="midnightblue" stroke="midnightblue" points="200.232,-78.7526 190.077,-75.7305 196.131,-84.4255 200.232,-78.7526"/>
</g>
<!-- Node7 -->
<g id="node7" class="node"><title>Node7</title>
<polygon fill="white" stroke="#bfbfbf" points="212,-56.5 212,-75.5 250,-75.5 250,-56.5 212,-56.5"/>
<text text-anchor="middle" x="231" y="-63.5" font-family="FreeSans" font-size="10.00">map</text>
</g>
<!-- Node5&#45;&gt;Node7 -->
<g id="edge6" class="edge"><title>Node5&#45;&gt;Node7</title>
<path fill="none" stroke="midnightblue" d="M253.89,-112.781C249.711,-104.422 244.389,-93.7773 239.928,-84.8565"/>
<polygon fill="midnightblue" stroke="midnightblue" points="242.968,-83.1095 235.365,-75.7305 236.707,-86.2401 242.968,-83.1095"/>
</g>
<!-- Node8 -->
<g id="node8" class="node"><title>Node8</title>
<polygon fill="white" stroke="#bfbfbf" points="268,-56.5 268,-75.5 312,-75.5 312,-56.5 268,-56.5"/>
<text text-anchor="middle" x="290" y="-63.5" font-family="FreeSans" font-size="10.00">string</text>
</g>
<!-- Node5&#45;&gt;Node8 -->
<g id="edge7" class="edge"><title>Node5&#45;&gt;Node8</title>
<path fill="none" stroke="midnightblue" d="M267.873,-112.781C271.913,-104.422 277.058,-93.7773 281.369,-84.8565"/>
<polygon fill="midnightblue" stroke="midnightblue" points="284.58,-86.2571 285.78,-75.7305 278.277,-83.2109 284.58,-86.2571"/>
</g>
<!-- Node10 -->
<g id="node10" class="node"><title>Node10</title>
<polygon fill="white" stroke="#bfbfbf" points="585.5,-56.5 585.5,-75.5 664.5,-75.5 664.5,-56.5 585.5,-56.5"/>
<text text-anchor="middle" x="625" y="-63.5" font-family="FreeSans" font-size="10.00">QTextStream</text>
</g>
<!-- Node9&#45;&gt;Node10 -->
<g id="edge9" class="edge"><title>Node9&#45;&gt;Node10</title>
<path fill="none" stroke="midnightblue" d="M572.74,-118.403C582.162,-109.136 597.364,-94.1828 608.949,-82.7876"/>
<polygon fill="midnightblue" stroke="midnightblue" points="611.601,-85.0883 616.276,-75.5806 606.693,-80.0978 611.601,-85.0883"/>
</g>
<!-- Node11 -->
<g id="node11" class="node"><title>Node11</title>
<polygon fill="white" stroke="#bfbfbf" points="860.5,-56.5 860.5,-75.5 929.5,-75.5 929.5,-56.5 860.5,-56.5"/>
<text text-anchor="middle" x="895" y="-63.5" font-family="FreeSans" font-size="10.00">QStringList</text>
</g>
<!-- Node9&#45;&gt;Node11 -->
<g id="edge10" class="edge"><title>Node9&#45;&gt;Node11</title>
<path fill="none" stroke="midnightblue" d="M611.073,-118.467C674.812,-106.913 787.767,-86.438 850.273,-75.1077"/>
<polygon fill="midnightblue" stroke="midnightblue" points="851.01,-78.5311 860.225,-73.3036 849.761,-71.6434 851.01,-78.5311"/>
</g>
<!-- Node12 -->
<g id="node12" class="node"><title>Node12</title>
<polygon fill="white" stroke="#bfbfbf" points="805.5,-0.5 805.5,-19.5 858.5,-19.5 858.5,-0.5 805.5,-0.5"/>
<text text-anchor="middle" x="832" y="-7.5" font-family="FreeSans" font-size="10.00">QString</text>
</g>
<!-- Node9&#45;&gt;Node12 -->
<g id="edge11" class="edge"><title>Node9&#45;&gt;Node12</title>
<path fill="none" stroke="midnightblue" d="M562.584,-118.162C560.729,-103.148 559.436,-72.6731 576,-56 606.065,-25.7373 731.35,-15.6302 794.812,-12.4138"/>
<polygon fill="midnightblue" stroke="midnightblue" points="795.352,-15.8922 805.175,-11.9222 795.02,-8.90008 795.352,-15.8922"/>
</g>
<!-- Node13 -->
<g id="node13" class="node"><title>Node13</title>
<polygon fill="white" stroke="#bfbfbf" points="489.5,-56.5 489.5,-75.5 528.5,-75.5 528.5,-56.5 489.5,-56.5"/>
<text text-anchor="middle" x="509" y="-63.5" font-family="FreeSans" font-size="10.00">QFile</text>
</g>
<!-- Node9&#45;&gt;Node13 -->
<g id="edge12" class="edge"><title>Node9&#45;&gt;Node13</title>
<path fill="none" stroke="midnightblue" d="M556.12,-118.403C547.706,-109.225 534.181,-94.4699 523.774,-83.1173"/>
<polygon fill="midnightblue" stroke="midnightblue" points="526.203,-80.5871 516.866,-75.5806 521.043,-85.3172 526.203,-80.5871"/>
</g>
<!-- Node14 -->
<g id="node14" class="node"><title>Node14</title>
<polygon fill="white" stroke="#bfbfbf" points="682,-56.5 682,-75.5 726,-75.5 726,-56.5 682,-56.5"/>
<text text-anchor="middle" x="704" y="-63.5" font-family="FreeSans" font-size="10.00">QMap</text>
</g>
<!-- Node9&#45;&gt;Node14 -->
<g id="edge13" class="edge"><title>Node9&#45;&gt;Node14</title>
<path fill="none" stroke="midnightblue" d="M584.059,-118.403C607.762,-108.245 647.406,-91.2547 674.583,-79.6074"/>
<polygon fill="midnightblue" stroke="midnightblue" points="676.166,-82.7369 683.979,-75.5806 673.408,-76.3028 676.166,-82.7369"/>
</g>
<!-- Node15 -->
<g id="node15" class="node"><title>Node15</title>
<polygon fill="white" stroke="#bfbfbf" points="330.5,-56.5 330.5,-75.5 471.5,-75.5 471.5,-56.5 330.5,-56.5"/>
<text text-anchor="middle" x="401" y="-63.5" font-family="FreeSans" font-size="10.00">boost/filesystem/path.hpp</text>
</g>
<!-- Node9&#45;&gt;Node15 -->
<g id="edge14" class="edge"><title>Node9&#45;&gt;Node15</title>
<path fill="none" stroke="midnightblue" d="M540.646,-118.403C512.686,-108.111 465.674,-90.8064 434.009,-79.1504"/>
<polygon fill="midnightblue" stroke="midnightblue" points="434.904,-75.7505 424.311,-75.5806 432.486,-82.3196 434.904,-75.7505"/>
</g>
<!-- Node16&#45;&gt;Node9 -->
<g id="edge22" class="edge"><title>Node16&#45;&gt;Node9</title>
<path fill="none" stroke="midnightblue" d="M570.085,-186.372C569.053,-176.643 567.344,-160.528 565.999,-147.85"/>
<polygon fill="midnightblue" stroke="midnightblue" points="569.473,-147.416 564.938,-137.841 562.512,-148.155 569.473,-147.416"/>
</g>
<!-- Node17 -->
<g id="node17" class="node"><title>Node17</title>
<g id="a_node17"><a xlink:href="settingsbase_8hpp.html" target="_top" xlink:title="settingsbase.hpp">
<polygon fill="white" stroke="black" points="693.5,-118.5 693.5,-137.5 792.5,-137.5 792.5,-118.5 693.5,-118.5"/>
<text text-anchor="middle" x="743" y="-125.5" font-family="FreeSans" font-size="10.00">settingsbase.hpp</text>
</a>
</g>
</g>
<!-- Node16&#45;&gt;Node17 -->
<g id="edge16" class="edge"><title>Node16&#45;&gt;Node17</title>
<path fill="none" stroke="midnightblue" d="M593.486,-186.372C623.571,-174.827 677.086,-154.293 711.266,-141.177"/>
<polygon fill="midnightblue" stroke="midnightblue" points="712.699,-144.376 720.781,-137.526 710.191,-137.841 712.699,-144.376"/>
</g>
<!-- Node17&#45;&gt;Node10 -->
<g id="edge17" class="edge"><title>Node17&#45;&gt;Node10</title>
<path fill="none" stroke="midnightblue" d="M726.093,-118.403C706.466,-108.423 673.869,-91.8487 651.01,-80.2253"/>
<polygon fill="midnightblue" stroke="midnightblue" points="652.375,-76.9933 641.875,-75.5806 649.203,-83.233 652.375,-76.9933"/>
</g>
<!-- Node17&#45;&gt;Node11 -->
<g id="edge18" class="edge"><title>Node17&#45;&gt;Node11</title>
<path fill="none" stroke="midnightblue" d="M764.778,-118.403C790.738,-108.156 834.311,-90.9561 863.835,-79.3021"/>
<polygon fill="midnightblue" stroke="midnightblue" points="865.246,-82.5079 873.263,-75.5806 862.676,-75.9968 865.246,-82.5079"/>
</g>
<!-- Node17&#45;&gt;Node12 -->
<g id="edge19" class="edge"><title>Node17&#45;&gt;Node12</title>
<path fill="none" stroke="midnightblue" d="M760.211,-118.414C775.882,-109.752 798.566,-94.9615 812,-76 821.705,-62.3016 826.799,-43.768 829.41,-29.9962"/>
<polygon fill="midnightblue" stroke="midnightblue" points="832.925,-30.1891 831.067,-19.7585 826.014,-29.0711 832.925,-30.1891"/>
</g>
<!-- Node17&#45;&gt;Node14 -->
<g id="edge21" class="edge"><title>Node17&#45;&gt;Node14</title>
<path fill="none" stroke="midnightblue" d="M737.412,-118.403C731.62,-109.493 722.411,-95.3247 715.126,-84.1177"/>
<polygon fill="midnightblue" stroke="midnightblue" points="717.962,-82.0576 709.577,-75.5806 712.093,-85.8725 717.962,-82.0576"/>
</g>
<!-- Node18 -->
<g id="node18" class="node"><title>Node18</title>
<polygon fill="white" stroke="#bfbfbf" points="744.5,-56.5 744.5,-75.5 803.5,-75.5 803.5,-56.5 744.5,-56.5"/>
<text text-anchor="middle" x="774" y="-63.5" font-family="FreeSans" font-size="10.00">QRegExp</text>
</g>
<!-- Node17&#45;&gt;Node18 -->
<g id="edge20" class="edge"><title>Node17&#45;&gt;Node18</title>
<path fill="none" stroke="midnightblue" d="M747.442,-118.403C751.953,-109.671 759.074,-95.8893 764.807,-84.7936"/>
<polygon fill="midnightblue" stroke="midnightblue" points="768.086,-86.0714 769.567,-75.5806 761.867,-82.8583 768.086,-86.0714"/>
</g>
<!-- Node22 -->
<g id="node22" class="node"><title>Node22</title>
<polygon fill="white" stroke="#bfbfbf" points="820,-118.5 820,-137.5 874,-137.5 874,-118.5 820,-118.5"/>
<text text-anchor="middle" x="847" y="-125.5" font-family="FreeSans" font-size="10.00">QDialog</text>
</g>
<!-- Node21&#45;&gt;Node22 -->
<g id="edge26" class="edge"><title>Node21&#45;&gt;Node22</title>
<path fill="none" stroke="midnightblue" d="M930.26,-180.841C912.337,-169.681 887.469,-154.198 869.585,-143.063"/>
<polygon fill="midnightblue" stroke="midnightblue" points="871.283,-139.996 860.944,-137.682 867.583,-145.939 871.283,-139.996"/>
</g>
<!-- Node23 -->
<g id="node23" class="node"><title>Node23</title>
<polygon fill="white" stroke="#bfbfbf" points="892.5,-118.5 892.5,-137.5 1005.5,-137.5 1005.5,-118.5 892.5,-118.5"/>
<text text-anchor="middle" x="949" y="-125.5" font-family="FreeSans" font-size="10.00">ui_contentselector.h</text>
</g>
<!-- Node21&#45;&gt;Node23 -->
<g id="edge27" class="edge"><title>Node21&#45;&gt;Node23</title>
<path fill="none" stroke="midnightblue" d="M952.132,-180.679C951.552,-171.101 950.781,-158.394 950.15,-147.977"/>
<polygon fill="midnightblue" stroke="midnightblue" points="953.634,-147.598 949.535,-137.828 946.647,-148.022 953.634,-147.598"/>
</g>
<!-- Node24 -->
<g id="node24" class="node"><title>Node24</title>
<g id="a_node24"><a xlink:href="contentmodel_8hpp.html" target="_top" xlink:title="components/contentselector\l/model/contentmodel.hpp">
<polygon fill="white" stroke="black" points="1062.5,-113 1062.5,-143 1217.5,-143 1217.5,-113 1062.5,-113"/>
<text text-anchor="start" x="1070.5" y="-131" font-family="FreeSans" font-size="10.00">components/contentselector</text>
<text text-anchor="middle" x="1140" y="-120" font-family="FreeSans" font-size="10.00">/model/contentmodel.hpp</text>
</a>
</g>
</g>
<!-- Node21&#45;&gt;Node24 -->
<g id="edge28" class="edge"><title>Node21&#45;&gt;Node24</title>
<path fill="none" stroke="midnightblue" d="M993.116,-180.841C1021.68,-170.759 1060.25,-157.147 1090.69,-146.402"/>
<polygon fill="midnightblue" stroke="midnightblue" points="1092.01,-149.651 1100.27,-143.022 1089.68,-143.05 1092.01,-149.651"/>
</g>
<!-- Node24&#45;&gt;Node11 -->
<g id="edge30" class="edge"><title>Node24&#45;&gt;Node11</title>
<path fill="none" stroke="midnightblue" d="M1082.56,-112.933C1038.88,-102.236 979.654,-87.7317 939.529,-77.905"/>
<polygon fill="midnightblue" stroke="midnightblue" points="940.306,-74.4919 929.76,-75.5127 938.641,-81.291 940.306,-74.4919"/>
</g>
<!-- Node25 -->
<g id="node25" class="node"><title>Node25</title>
<polygon fill="white" stroke="#bfbfbf" points="1194.5,-56.5 1194.5,-75.5 1311.5,-75.5 1311.5,-56.5 1194.5,-56.5"/>
<text text-anchor="middle" x="1253" y="-63.5" font-family="FreeSans" font-size="10.00">QAbstractTableModel</text>
</g>
<!-- Node24&#45;&gt;Node25 -->
<g id="edge29" class="edge"><title>Node24&#45;&gt;Node25</title>
<path fill="none" stroke="midnightblue" d="M1166.49,-112.933C1185.05,-103.081 1209.68,-90.0004 1227.92,-80.3182"/>
<polygon fill="midnightblue" stroke="midnightblue" points="1229.61,-83.381 1236.8,-75.6 1226.33,-77.1985 1229.61,-83.381"/>
</g>
<!-- Node26 -->
<g id="node26" class="node"><title>Node26</title>
<polygon fill="white" stroke="#bfbfbf" points="1072.5,-56.5 1072.5,-75.5 1113.5,-75.5 1113.5,-56.5 1072.5,-56.5"/>
<text text-anchor="middle" x="1093" y="-63.5" font-family="FreeSans" font-size="10.00">QSet</text>
</g>
<!-- Node24&#45;&gt;Node26 -->
<g id="edge31" class="edge"><title>Node24&#45;&gt;Node26</title>
<path fill="none" stroke="midnightblue" d="M1128.86,-112.781C1122.03,-104.062 1113.26,-92.8574 1106.09,-83.7153"/>
<polygon fill="midnightblue" stroke="midnightblue" points="1108.76,-81.4445 1099.84,-75.7305 1103.25,-85.7612 1108.76,-81.4445"/>
</g>
<!-- Node27 -->
<g id="node27" class="node"><title>Node27</title>
<polygon fill="white" stroke="#bfbfbf" points="1132,-56.5 1132,-75.5 1176,-75.5 1176,-56.5 1132,-56.5"/>
<text text-anchor="middle" x="1154" y="-63.5" font-family="FreeSans" font-size="10.00">QIcon</text>
</g>
<!-- Node24&#45;&gt;Node27 -->
<g id="edge32" class="edge"><title>Node24&#45;&gt;Node27</title>
<path fill="none" stroke="midnightblue" d="M1143.32,-112.781C1145.21,-104.691 1147.59,-94.4617 1149.63,-85.725"/>
<polygon fill="midnightblue" stroke="midnightblue" points="1153.1,-86.2643 1151.96,-75.7305 1146.28,-84.6736 1153.1,-86.2643"/>
</g>
<!-- Node28 -->
<g id="node28" class="node"><title>Node28</title>
<g id="a_node28"><a xlink:href="loadordererror_8hpp.html" target="_top" xlink:title="loadordererror.hpp">
<polygon fill="white" stroke="black" points="948,-56.5 948,-75.5 1054,-75.5 1054,-56.5 948,-56.5"/>
<text text-anchor="middle" x="1001" y="-63.5" font-family="FreeSans" font-size="10.00">loadordererror.hpp</text>
</a>
</g>
</g>
<!-- Node24&#45;&gt;Node28 -->
<g id="edge33" class="edge"><title>Node24&#45;&gt;Node28</title>
<path fill="none" stroke="midnightblue" d="M1107.41,-112.933C1084.06,-102.855 1052.89,-89.3986 1030.32,-79.6575"/>
<polygon fill="midnightblue" stroke="midnightblue" points="1031.49,-76.3498 1020.92,-75.6 1028.72,-82.7766 1031.49,-76.3498"/>
</g>
<!-- Node28&#45;&gt;Node12 -->
<g id="edge34" class="edge"><title>Node28&#45;&gt;Node12</title>
<path fill="none" stroke="midnightblue" d="M974.221,-56.4435C945.667,-47.3196 900.267,-32.8133 868.463,-22.6509"/>
<polygon fill="midnightblue" stroke="midnightblue" points="869.244,-19.2262 858.653,-19.5164 867.114,-25.8941 869.244,-19.2262"/>
</g>
<!-- Node29&#45;&gt;Node11 -->
<g id="edge37" class="edge"><title>Node29&#45;&gt;Node11</title>
<path fill="none" stroke="midnightblue" d="M1157.7,-180.952C1124.41,-172.93 1085.53,-161.001 1053,-144 1033.13,-133.614 1033.41,-123.225 1014,-112 989.239,-97.6803 959.078,-86.3329 935.316,-78.615"/>
<polygon fill="midnightblue" stroke="midnightblue" points="936.149,-75.2075 925.559,-75.5314 934.039,-81.8821 936.149,-75.2075"/>
</g>
<!-- Node30 -->
<g id="node30" class="node"><title>Node30</title>
<polygon fill="white" stroke="#bfbfbf" points="1384.5,-118.5 1384.5,-137.5 1455.5,-137.5 1455.5,-118.5 1384.5,-118.5"/>
<text text-anchor="middle" x="1420" y="-125.5" font-family="FreeSans" font-size="10.00">QDateTime</text>
</g>
<!-- Node29&#45;&gt;Node30 -->
<g id="edge36" class="edge"><title>Node29&#45;&gt;Node30</title>
<path fill="none" stroke="midnightblue" d="M1273.12,-180.841C1306.72,-168.982 1354.16,-152.239 1385.94,-141.022"/>
<polygon fill="midnightblue" stroke="midnightblue" points="1387.41,-144.216 1395.67,-137.587 1385.08,-137.615 1387.41,-144.216"/>
</g>
<!-- Node31 -->
<g id="node31" class="node"><title>Node31</title>
<g id="a_node31"><a xlink:href="modelitem_8hpp.html" target="_top" xlink:title="modelitem.hpp">
<polygon fill="white" stroke="black" points="1277.5,-118.5 1277.5,-137.5 1366.5,-137.5 1366.5,-118.5 1277.5,-118.5"/>
<text text-anchor="middle" x="1322" y="-125.5" font-family="FreeSans" font-size="10.00">modelitem.hpp</text>
</a>
</g>
</g>
<!-- Node29&#45;&gt;Node31 -->
<g id="edge38" class="edge"><title>Node29&#45;&gt;Node31</title>
<path fill="none" stroke="midnightblue" d="M1252.31,-180.679C1267.1,-169.713 1287.42,-154.645 1302.3,-143.609"/>
<polygon fill="midnightblue" stroke="midnightblue" points="1304.4,-146.406 1310.35,-137.638 1300.23,-140.783 1304.4,-146.406"/>
</g>
<!-- Node32 -->
<g id="node32" class="node"><title>Node32</title>
<polygon fill="white" stroke="#bfbfbf" points="1389,-56.5 1389,-75.5 1463,-75.5 1463,-56.5 1389,-56.5"/>
<text text-anchor="middle" x="1426" y="-63.5" font-family="FreeSans" font-size="10.00">QMimeData</text>
</g>
<!-- Node31&#45;&gt;Node32 -->
<g id="edge39" class="edge"><title>Node31&#45;&gt;Node32</title>
<path fill="none" stroke="midnightblue" d="M1336.9,-118.403C1353.97,-108.557 1382.16,-92.2915 1402.26,-80.6949"/>
<polygon fill="midnightblue" stroke="midnightblue" points="1404.21,-83.6095 1411.13,-75.5806 1400.72,-77.5462 1404.21,-83.6095"/>
</g>
<!-- Node33 -->
<g id="node33" class="node"><title>Node33</title>
<polygon fill="white" stroke="#bfbfbf" points="1329.5,-56.5 1329.5,-75.5 1370.5,-75.5 1370.5,-56.5 1329.5,-56.5"/>
<text text-anchor="middle" x="1350" y="-63.5" font-family="FreeSans" font-size="10.00">QList</text>
</g>
<!-- Node31&#45;&gt;Node33 -->
<g id="edge40" class="edge"><title>Node31&#45;&gt;Node33</title>
<path fill="none" stroke="midnightblue" d="M1326.01,-118.403C1330.09,-109.671 1336.52,-95.8893 1341.7,-84.7936"/>
<polygon fill="midnightblue" stroke="midnightblue" points="1344.94,-86.1225 1346,-75.5806 1338.6,-83.1623 1344.94,-86.1225"/>
</g>
</g>
</svg>
