<?xml version="1.0" encoding="UTF-8" standalone="no"?>
<!DOCTYPE svg PUBLIC "-//W3C//DTD SVG 1.1//EN"
 "http://www.w3.org/Graphics/SVG/1.1/DTD/svg11.dtd">
<!-- Generated by graphviz version 2.36.0 (20140111.2315)
 -->
<!-- Title: /home/scrawl/Dev/openmw/apps/openmw/mwmechanics/aifollow.hpp Pages: 1 -->
<svg width="570pt" height="274pt"
 viewBox="0.00 0.00 569.67 274.00" xmlns="http://www.w3.org/2000/svg" xmlns:xlink="http://www.w3.org/1999/xlink">
<g id="graph0" class="graph" transform="scale(1 1) rotate(0) translate(4 270)">
<title>/home/scrawl/Dev/openmw/apps/openmw/mwmechanics/aifollow.hpp</title>
<polygon fill="white" stroke="none" points="-4,4 -4,-270 565.668,-270 565.668,4 -4,4"/>
<!-- Node1 -->
<g id="node1" class="node"><title>Node1</title>
<polygon fill="#bfbfbf" stroke="black" points="173.5,-224.5 173.5,-265.5 316.5,-265.5 316.5,-224.5 173.5,-224.5"/>
<text text-anchor="start" x="181.5" y="-253.5" font-family="FreeSans" font-size="10.00">/home/scrawl/Dev/openmw</text>
<text text-anchor="start" x="181.5" y="-242.5" font-family="FreeSans" font-size="10.00">/apps/openmw/mwmechanics</text>
<text text-anchor="middle" x="245" y="-231.5" font-family="FreeSans" font-size="10.00">/aifollow.hpp</text>
</g>
<!-- Node2 -->
<g id="node2" class="node"><title>Node2</title>
<g id="a_node2"><a xlink:href="apps_2openmw_2mwmechanics_2aipackage_8hpp.html" target="_top" xlink:title="aipackage.hpp">
<polygon fill="white" stroke="black" points="239.5,-168.5 239.5,-187.5 318.5,-187.5 318.5,-168.5 239.5,-168.5"/>
<text text-anchor="middle" x="279" y="-175.5" font-family="FreeSans" font-size="10.00">aipackage.hpp</text>
</a>
</g>
</g>
<!-- Node1&#45;&gt;Node2 -->
<g id="edge1" class="edge"><title>Node1&#45;&gt;Node2</title>
<path fill="none" stroke="midnightblue" d="M255.201,-224.498C259.812,-215.682 265.223,-205.339 269.719,-196.743"/>
<polygon fill="midnightblue" stroke="midnightblue" points="272.94,-198.136 274.474,-187.652 266.738,-194.891 272.94,-198.136"/>
</g>
<!-- Node3 -->
<g id="node3" class="node"><title>Node3</title>
<g id="a_node3"><a xlink:href="esm_2defs_8hpp.html" target="_top" xlink:title="components/esm/defs.hpp">
<polygon fill="white" stroke="black" points="-0.5,-56.5 -0.5,-75.5 128.5,-75.5 128.5,-56.5 -0.5,-56.5"/>
<text text-anchor="middle" x="64" y="-63.5" font-family="FreeSans" font-size="10.00">components/esm/defs.hpp</text>
</a>
</g>
</g>
<!-- Node1&#45;&gt;Node3 -->
<g id="edge17" class="edge"><title>Node1&#45;&gt;Node3</title>
<path fill="none" stroke="midnightblue" d="M222.653,-224.274C197.993,-202.287 157.374,-165.42 124,-132 107.976,-115.954 90.4764,-96.7944 78.5338,-83.4507"/>
<polygon fill="midnightblue" stroke="midnightblue" points="80.822,-80.757 71.5597,-75.613 75.5925,-85.4103 80.822,-80.757"/>
</g>
<!-- Node6 -->
<g id="node6" class="node"><title>Node6</title>
<g id="a_node6"><a xlink:href="pathfinding_8hpp.html" target="_top" xlink:title="pathfinding.hpp">
<polygon fill="white" stroke="black" points="170.5,-112.5 170.5,-131.5 251.5,-131.5 251.5,-112.5 170.5,-112.5"/>
<text text-anchor="middle" x="211" y="-119.5" font-family="FreeSans" font-size="10.00">pathfinding.hpp</text>
</a>
</g>
</g>
<!-- Node1&#45;&gt;Node6 -->
<g id="edge18" class="edge"><title>Node1&#45;&gt;Node6</title>
<path fill="none" stroke="midnightblue" d="M239.462,-224.29C233.023,-201.375 222.477,-163.846 216.191,-141.473"/>
<polygon fill="midnightblue" stroke="midnightblue" points="219.484,-140.255 213.409,-131.575 212.745,-142.149 219.484,-140.255"/>
</g>
<!-- Node10 -->
<g id="node10" class="node"><title>Node10</title>
<polygon fill="white" stroke="#bfbfbf" points="466,-0.5 466,-19.5 506,-19.5 506,-0.5 466,-0.5"/>
<text text-anchor="middle" x="486" y="-7.5" font-family="FreeSans" font-size="10.00">string</text>
</g>
<!-- Node1&#45;&gt;Node10 -->
<g id="edge16" class="edge"><title>Node1&#45;&gt;Node10</title>
<path fill="none" stroke="midnightblue" d="M316.719,-230.918C394.865,-212.178 514.667,-169.076 559,-76 570.402,-52.0606 540.688,-33.1288 515.802,-22.0104"/>
<polygon fill="midnightblue" stroke="midnightblue" points="516.83,-18.6461 506.255,-18.0024 514.121,-25.1004 516.83,-18.6461"/>
</g>
<!-- Node2&#45;&gt;Node3 -->
<g id="edge2" class="edge"><title>Node2&#45;&gt;Node3</title>
<path fill="none" stroke="midnightblue" d="M251.535,-168.493C227.125,-160.475 190.796,-147.412 161,-132 132.555,-117.287 102.277,-95.9791 83.2614,-81.8193"/>
<polygon fill="midnightblue" stroke="midnightblue" points="85.2177,-78.911 75.1261,-75.6843 81.0029,-84.4999 85.2177,-78.911"/>
</g>
<!-- Node2&#45;&gt;Node6 -->
<g id="edge5" class="edge"><title>Node2&#45;&gt;Node6</title>
<path fill="none" stroke="midnightblue" d="M268.075,-168.324C257.825,-160.185 242.279,-147.839 229.999,-138.087"/>
<polygon fill="midnightblue" stroke="midnightblue" points="232.132,-135.312 222.124,-131.834 227.779,-140.794 232.132,-135.312"/>
</g>
<!-- Node12 -->
<g id="node12" class="node"><title>Node12</title>
<g id="a_node12"><a xlink:href="obstacle_8hpp.html" target="_top" xlink:title="obstacle.hpp">
<polygon fill="white" stroke="black" points="269.5,-112.5 269.5,-131.5 340.5,-131.5 340.5,-112.5 269.5,-112.5"/>
<text text-anchor="middle" x="305" y="-119.5" font-family="FreeSans" font-size="10.00">obstacle.hpp</text>
</a>
</g>
</g>
<!-- Node2&#45;&gt;Node12 -->
<g id="edge12" class="edge"><title>Node2&#45;&gt;Node12</title>
<path fill="none" stroke="midnightblue" d="M283.293,-168.083C286.852,-160.691 292.022,-149.953 296.424,-140.811"/>
<polygon fill="midnightblue" stroke="midnightblue" points="299.602,-142.279 300.787,-131.751 293.295,-139.243 299.602,-142.279"/>
</g>
<!-- Node13 -->
<g id="node13" class="node"><title>Node13</title>
<g id="a_node13"><a xlink:href="aistate_8hpp.html" target="_top" xlink:title="aistate.hpp">
<polygon fill="white" stroke="black" points="418.5,-112.5 418.5,-131.5 481.5,-131.5 481.5,-112.5 418.5,-112.5"/>
<text text-anchor="middle" x="450" y="-119.5" font-family="FreeSans" font-size="10.00">aistate.hpp</text>
</a>
</g>
</g>
<!-- Node2&#45;&gt;Node13 -->
<g id="edge13" class="edge"><title>Node2&#45;&gt;Node13</title>
<path fill="none" stroke="midnightblue" d="M306.095,-168.444C334.988,-159.32 380.925,-144.813 413.105,-134.651"/>
<polygon fill="midnightblue" stroke="midnightblue" points="414.549,-137.865 423.031,-131.516 412.441,-131.19 414.549,-137.865"/>
</g>
<!-- Node4 -->
<g id="node4" class="node"><title>Node4</title>
<polygon fill="white" stroke="#bfbfbf" points="5.5,-0.5 5.5,-19.5 52.5,-19.5 52.5,-0.5 5.5,-0.5"/>
<text text-anchor="middle" x="29" y="-7.5" font-family="FreeSans" font-size="10.00">stdint.h</text>
</g>
<!-- Node3&#45;&gt;Node4 -->
<g id="edge3" class="edge"><title>Node3&#45;&gt;Node4</title>
<path fill="none" stroke="midnightblue" d="M58.2205,-56.083C53.3276,-48.5341 46.1726,-37.4948 40.1674,-28.2298"/>
<polygon fill="midnightblue" stroke="midnightblue" points="43.048,-26.239 34.672,-19.7511 37.174,-30.0463 43.048,-26.239"/>
</g>
<!-- Node5 -->
<g id="node5" class="node"><title>Node5</title>
<polygon fill="white" stroke="#bfbfbf" points="70.5,-0.5 70.5,-19.5 129.5,-19.5 129.5,-0.5 70.5,-0.5"/>
<text text-anchor="middle" x="100" y="-7.5" font-family="FreeSans" font-size="10.00">osg/Vec3f</text>
</g>
<!-- Node3&#45;&gt;Node5 -->
<g id="edge4" class="edge"><title>Node3&#45;&gt;Node5</title>
<path fill="none" stroke="midnightblue" d="M69.9447,-56.083C74.9773,-48.5341 82.3368,-37.4948 88.5135,-28.2298"/>
<polygon fill="midnightblue" stroke="midnightblue" points="91.5311,-30.0131 94.1659,-19.7511 85.7067,-26.1301 91.5311,-30.0131"/>
</g>
<!-- Node6&#45;&gt;Node3 -->
<g id="edge8" class="edge"><title>Node6&#45;&gt;Node3</title>
<path fill="none" stroke="midnightblue" d="M187.707,-112.444C163.193,-103.438 124.404,-89.1891 96.8001,-79.049"/>
<polygon fill="midnightblue" stroke="midnightblue" points="97.7772,-75.6793 87.1836,-75.5164 95.3634,-82.25 97.7772,-75.6793"/>
</g>
<!-- Node7 -->
<g id="node7" class="node"><title>Node7</title>
<polygon fill="white" stroke="#bfbfbf" points="146.5,-56.5 146.5,-75.5 175.5,-75.5 175.5,-56.5 146.5,-56.5"/>
<text text-anchor="middle" x="161" y="-63.5" font-family="FreeSans" font-size="10.00">list</text>
</g>
<!-- Node6&#45;&gt;Node7 -->
<g id="edge6" class="edge"><title>Node6&#45;&gt;Node7</title>
<path fill="none" stroke="midnightblue" d="M202.744,-112.083C195.535,-104.298 184.89,-92.8015 176.154,-83.3665"/>
<polygon fill="midnightblue" stroke="midnightblue" points="178.465,-80.7108 169.103,-75.7511 173.329,-85.4666 178.465,-80.7108"/>
</g>
<!-- Node8 -->
<g id="node8" class="node"><title>Node8</title>
<polygon fill="white" stroke="#bfbfbf" points="193.5,-56.5 193.5,-75.5 240.5,-75.5 240.5,-56.5 193.5,-56.5"/>
<text text-anchor="middle" x="217" y="-63.5" font-family="FreeSans" font-size="10.00">cassert</text>
</g>
<!-- Node6&#45;&gt;Node8 -->
<g id="edge7" class="edge"><title>Node6&#45;&gt;Node8</title>
<path fill="none" stroke="midnightblue" d="M211.991,-112.083C212.786,-104.927 213.929,-94.6353 214.923,-85.6911"/>
<polygon fill="midnightblue" stroke="midnightblue" points="218.402,-86.0765 216.028,-75.7511 211.445,-85.3034 218.402,-86.0765"/>
</g>
<!-- Node9 -->
<g id="node9" class="node"><title>Node9</title>
<g id="a_node9"><a xlink:href="loadpgrd_8hpp.html" target="_top" xlink:title="components/esm/loadpgrd.hpp">
<polygon fill="white" stroke="black" points="259,-56.5 259,-75.5 407,-75.5 407,-56.5 259,-56.5"/>
<text text-anchor="middle" x="333" y="-63.5" font-family="FreeSans" font-size="10.00">components/esm/loadpgrd.hpp</text>
</a>
</g>
</g>
<!-- Node6&#45;&gt;Node9 -->
<g id="edge9" class="edge"><title>Node6&#45;&gt;Node9</title>
<path fill="none" stroke="midnightblue" d="M230.331,-112.444C250.32,-103.596 281.743,-89.6875 304.564,-79.5865"/>
<polygon fill="midnightblue" stroke="midnightblue" points="306.032,-82.7645 313.759,-75.5164 303.198,-76.3635 306.032,-82.7645"/>
</g>
<!-- Node9&#45;&gt;Node10 -->
<g id="edge10" class="edge"><title>Node9&#45;&gt;Node10</title>
<path fill="none" stroke="midnightblue" d="M357.243,-56.4435C384.077,-46.973 427.341,-31.7032 456.216,-21.512"/>
<polygon fill="midnightblue" stroke="midnightblue" points="457.514,-24.7656 465.779,-18.1368 455.184,-18.1646 457.514,-24.7656"/>
</g>
<!-- Node11 -->
<g id="node11" class="node"><title>Node11</title>
<polygon fill="white" stroke="#bfbfbf" points="311.5,-0.5 311.5,-19.5 354.5,-19.5 354.5,-0.5 311.5,-0.5"/>
<text text-anchor="middle" x="333" y="-7.5" font-family="FreeSans" font-size="10.00">vector</text>
</g>
<!-- Node9&#45;&gt;Node11 -->
<g id="edge11" class="edge"><title>Node9&#45;&gt;Node11</title>
<path fill="none" stroke="midnightblue" d="M333,-56.083C333,-49.0059 333,-38.8611 333,-29.9865"/>
<polygon fill="midnightblue" stroke="midnightblue" points="336.5,-29.751 333,-19.7511 329.5,-29.7511 336.5,-29.751"/>
</g>
<!-- Node14 -->
<g id="node14" class="node"><title>Node14</title>
<polygon fill="white" stroke="#bfbfbf" points="425,-56.5 425,-75.5 475,-75.5 475,-56.5 425,-56.5"/>
<text text-anchor="middle" x="450" y="-63.5" font-family="FreeSans" font-size="10.00">typeinfo</text>
</g>
<!-- Node13&#45;&gt;Node14 -->
<g id="edge14" class="edge"><title>Node13&#45;&gt;Node14</title>
<path fill="none" stroke="midnightblue" d="M450,-112.083C450,-105.006 450,-94.8611 450,-85.9865"/>
<polygon fill="midnightblue" stroke="midnightblue" points="453.5,-85.751 450,-75.7511 446.5,-85.7511 453.5,-85.751"/>
</g>
<!-- Node15 -->
<g id="node15" class="node"><title>Node15</title>
<polygon fill="white" stroke="#bfbfbf" points="493,-56.5 493,-75.5 551,-75.5 551,-56.5 493,-56.5"/>
<text text-anchor="middle" x="522" y="-63.5" font-family="FreeSans" font-size="10.00">stdexcept</text>
</g>
<!-- Node13&#45;&gt;Node15 -->
<g id="edge15" class="edge"><title>Node13&#45;&gt;Node15</title>
<path fill="none" stroke="midnightblue" d="M461.568,-112.324C472.42,-104.185 488.881,-91.8395 501.883,-82.0874"/>
<polygon fill="midnightblue" stroke="midnightblue" points="504.321,-84.6339 510.221,-75.8339 500.121,-79.0339 504.321,-84.6339"/>
</g>
</g>
</svg>
