<?xml version="1.0" encoding="UTF-8" standalone="no"?>
<!DOCTYPE svg PUBLIC "-//W3C//DTD SVG 1.1//EN"
 "http://www.w3.org/Graphics/SVG/1.1/DTD/svg11.dtd">
<!-- Generated by graphviz version 2.36.0 (20140111.2315)
 -->
<!-- Title: /home/scrawl/Dev/openmw/apps/openmw/mwmechanics/alchemy.hpp Pages: 1 -->
<svg width="798pt" height="398pt"
 viewBox="0.00 0.00 797.54 398.00" xmlns="http://www.w3.org/2000/svg" xmlns:xlink="http://www.w3.org/1999/xlink">
<g id="graph0" class="graph" transform="scale(1 1) rotate(0) translate(4 394)">
<title>/home/scrawl/Dev/openmw/apps/openmw/mwmechanics/alchemy.hpp</title>
<polygon fill="white" stroke="none" points="-4,4 -4,-394 793.535,-394 793.535,4 -4,4"/>
<!-- Node1 -->
<g id="node1" class="node"><title>Node1</title>
<polygon fill="#bfbfbf" stroke="black" points="153.5,-348.5 153.5,-389.5 296.5,-389.5 296.5,-348.5 153.5,-348.5"/>
<text text-anchor="start" x="161.5" y="-377.5" font-family="FreeSans" font-size="10.00">/home/scrawl/Dev/openmw</text>
<text text-anchor="start" x="161.5" y="-366.5" font-family="FreeSans" font-size="10.00">/apps/openmw/mwmechanics</text>
<text text-anchor="middle" x="225" y="-355.5" font-family="FreeSans" font-size="10.00">/alchemy.hpp</text>
</g>
<!-- Node2 -->
<g id="node2" class="node"><title>Node2</title>
<polygon fill="white" stroke="#bfbfbf" points="152.5,-62.5 152.5,-81.5 195.5,-81.5 195.5,-62.5 152.5,-62.5"/>
<text text-anchor="middle" x="174" y="-69.5" font-family="FreeSans" font-size="10.00">vector</text>
</g>
<!-- Node1&#45;&gt;Node2 -->
<g id="edge1" class="edge"><title>Node1&#45;&gt;Node2</title>
<path fill="none" stroke="midnightblue" d="M210.794,-348.099C195.703,-324.963 174,-285.07 174,-247 174,-247 174,-247 174,-189 174,-154.716 174,-114.732 174,-91.7902"/>
<polygon fill="midnightblue" stroke="midnightblue" points="177.5,-91.731 174,-81.731 170.5,-91.7311 177.5,-91.731"/>
</g>
<!-- Node3 -->
<g id="node3" class="node"><title>Node3</title>
<polygon fill="white" stroke="#bfbfbf" points="341.5,-292.5 341.5,-311.5 370.5,-311.5 370.5,-292.5 341.5,-292.5"/>
<text text-anchor="middle" x="356" y="-299.5" font-family="FreeSans" font-size="10.00">set</text>
</g>
<!-- Node1&#45;&gt;Node3 -->
<g id="edge2" class="edge"><title>Node1&#45;&gt;Node3</title>
<path fill="none" stroke="midnightblue" d="M264.304,-348.498C286.382,-337.544 313.213,-324.23 332.131,-314.844"/>
<polygon fill="midnightblue" stroke="midnightblue" points="333.833,-317.906 341.235,-310.326 330.722,-311.636 333.833,-317.906"/>
</g>
<!-- Node4 -->
<g id="node4" class="node"><title>Node4</title>
<g id="a_node4"><a xlink:href="effectlist_8hpp.html" target="_top" xlink:title="components/esm/effectlist.hpp">
<polygon fill="white" stroke="black" points="0,-292.5 0,-311.5 146,-311.5 146,-292.5 0,-292.5"/>
<text text-anchor="middle" x="73" y="-299.5" font-family="FreeSans" font-size="10.00">components/esm/effectlist.hpp</text>
</a>
</g>
</g>
<!-- Node1&#45;&gt;Node4 -->
<g id="edge3" class="edge"><title>Node1&#45;&gt;Node4</title>
<path fill="none" stroke="midnightblue" d="M179.395,-348.498C154.522,-337.861 124.449,-325.001 102.629,-315.67"/>
<polygon fill="midnightblue" stroke="midnightblue" points="103.804,-312.366 93.2335,-311.652 101.052,-318.803 103.804,-312.366"/>
</g>
<!-- Node5 -->
<g id="node5" class="node"><title>Node5</title>
<g id="a_node5"><a xlink:href="ptr_8hpp.html" target="_top" xlink:title="../mwworld/ptr.hpp">
<polygon fill="white" stroke="black" points="229,-292.5 229,-311.5 323,-311.5 323,-292.5 229,-292.5"/>
<text text-anchor="middle" x="276" y="-299.5" font-family="FreeSans" font-size="10.00">../mwworld/ptr.hpp</text>
</a>
</g>
</g>
<!-- Node1&#45;&gt;Node5 -->
<g id="edge5" class="edge"><title>Node1&#45;&gt;Node5</title>
<path fill="none" stroke="midnightblue" d="M240.302,-348.498C247.519,-339.299 256.042,-328.436 262.95,-319.632"/>
<polygon fill="midnightblue" stroke="midnightblue" points="265.792,-321.68 269.211,-311.652 260.285,-317.359 265.792,-321.68"/>
</g>
<!-- Node4&#45;&gt;Node2 -->
<g id="edge4" class="edge"><title>Node4&#45;&gt;Node2</title>
<path fill="none" stroke="midnightblue" d="M76.836,-292.341C91.6785,-258.835 145.528,-137.273 166.014,-91.0268"/>
<polygon fill="midnightblue" stroke="midnightblue" points="169.31,-92.2288 170.16,-81.6681 162.91,-89.3936 169.31,-92.2288"/>
</g>
<!-- Node6 -->
<g id="node6" class="node"><title>Node6</title>
<polygon fill="white" stroke="#bfbfbf" points="213.5,-236.5 213.5,-255.5 260.5,-255.5 260.5,-236.5 213.5,-236.5"/>
<text text-anchor="middle" x="237" y="-243.5" font-family="FreeSans" font-size="10.00">cassert</text>
</g>
<!-- Node5&#45;&gt;Node6 -->
<g id="edge6" class="edge"><title>Node5&#45;&gt;Node6</title>
<path fill="none" stroke="midnightblue" d="M269.56,-292.083C264.051,-284.455 255.969,-273.264 249.235,-263.941"/>
<polygon fill="midnightblue" stroke="midnightblue" points="252.013,-261.809 243.32,-255.751 246.338,-265.907 252.013,-261.809"/>
</g>
<!-- Node7 -->
<g id="node7" class="node"><title>Node7</title>
<polygon fill="white" stroke="#bfbfbf" points="532,-62.5 532,-81.5 572,-81.5 572,-62.5 532,-62.5"/>
<text text-anchor="middle" x="552" y="-69.5" font-family="FreeSans" font-size="10.00">string</text>
</g>
<!-- Node5&#45;&gt;Node7 -->
<g id="edge7" class="edge"><title>Node5&#45;&gt;Node7</title>
<path fill="none" stroke="midnightblue" d="M294.227,-292.494C336.629,-271.99 443.409,-216.155 511,-144 525.706,-128.301 537.337,-106.394 544.399,-91.0801"/>
<polygon fill="midnightblue" stroke="midnightblue" points="547.708,-92.2506 548.54,-81.6885 541.303,-89.4267 547.708,-92.2506"/>
</g>
<!-- Node8 -->
<g id="node8" class="node"><title>Node8</title>
<polygon fill="white" stroke="#bfbfbf" points="279,-236.5 279,-255.5 329,-255.5 329,-236.5 279,-236.5"/>
<text text-anchor="middle" x="304" y="-243.5" font-family="FreeSans" font-size="10.00">sstream</text>
</g>
<!-- Node5&#45;&gt;Node8 -->
<g id="edge8" class="edge"><title>Node5&#45;&gt;Node8</title>
<path fill="none" stroke="midnightblue" d="M280.624,-292.083C284.456,-284.691 290.024,-273.953 294.765,-264.811"/>
<polygon fill="midnightblue" stroke="midnightblue" points="297.966,-266.24 299.462,-255.751 291.752,-263.018 297.966,-266.24"/>
</g>
<!-- Node9 -->
<g id="node9" class="node"><title>Node9</title>
<g id="a_node9"><a xlink:href="livecellref_8hpp.html" target="_top" xlink:title="livecellref.hpp">
<polygon fill="white" stroke="black" points="596.5,-236.5 596.5,-255.5 671.5,-255.5 671.5,-236.5 596.5,-236.5"/>
<text text-anchor="middle" x="634" y="-243.5" font-family="FreeSans" font-size="10.00">livecellref.hpp</text>
</a>
</g>
</g>
<!-- Node5&#45;&gt;Node9 -->
<g id="edge9" class="edge"><title>Node5&#45;&gt;Node9</title>
<path fill="none" stroke="midnightblue" d="M323.048,-293.399C326.077,-292.922 329.081,-292.452 332,-292 421.694,-278.11 526.502,-262.671 586.084,-253.967"/>
<polygon fill="midnightblue" stroke="midnightblue" points="586.924,-257.382 596.314,-252.474 585.913,-250.455 586.924,-257.382"/>
</g>
<!-- Node10 -->
<g id="node10" class="node"><title>Node10</title>
<polygon fill="white" stroke="#bfbfbf" points="721,-180.5 721,-199.5 771,-199.5 771,-180.5 721,-180.5"/>
<text text-anchor="middle" x="746" y="-187.5" font-family="FreeSans" font-size="10.00">typeinfo</text>
</g>
<!-- Node9&#45;&gt;Node10 -->
<g id="edge10" class="edge"><title>Node9&#45;&gt;Node10</title>
<path fill="none" stroke="midnightblue" d="M651.995,-236.324C670.038,-227.625 698.047,-214.12 718.803,-204.113"/>
<polygon fill="midnightblue" stroke="midnightblue" points="720.562,-207.15 728.05,-199.655 717.522,-200.845 720.562,-207.15"/>
</g>
<!-- Node11 -->
<g id="node11" class="node"><title>Node11</title>
<g id="a_node11"><a xlink:href="apps_2openmw_2mwworld_2cellref_8hpp.html" target="_top" xlink:title="cellref.hpp">
<polygon fill="white" stroke="black" points="641.5,-180.5 641.5,-199.5 702.5,-199.5 702.5,-180.5 641.5,-180.5"/>
<text text-anchor="middle" x="672" y="-187.5" font-family="FreeSans" font-size="10.00">cellref.hpp</text>
</a>
</g>
</g>
<!-- Node9&#45;&gt;Node11 -->
<g id="edge11" class="edge"><title>Node9&#45;&gt;Node11</title>
<path fill="none" stroke="midnightblue" d="M640.275,-236.083C645.642,-228.455 653.518,-217.264 660.079,-207.941"/>
<polygon fill="midnightblue" stroke="midnightblue" points="662.949,-209.943 665.842,-199.751 657.225,-205.915 662.949,-209.943"/>
</g>
<!-- Node16 -->
<g id="node16" class="node"><title>Node16</title>
<g id="a_node16"><a xlink:href="refdata_8hpp.html" target="_top" xlink:title="refdata.hpp">
<polygon fill="white" stroke="black" points="558.5,-180.5 558.5,-199.5 623.5,-199.5 623.5,-180.5 558.5,-180.5"/>
<text text-anchor="middle" x="591" y="-187.5" font-family="FreeSans" font-size="10.00">refdata.hpp</text>
</a>
</g>
</g>
<!-- Node9&#45;&gt;Node16 -->
<g id="edge17" class="edge"><title>Node9&#45;&gt;Node16</title>
<path fill="none" stroke="midnightblue" d="M626.899,-236.083C620.763,-228.377 611.73,-217.033 604.261,-207.653"/>
<polygon fill="midnightblue" stroke="midnightblue" points="606.936,-205.394 597.968,-199.751 601.46,-209.754 606.936,-205.394"/>
</g>
<!-- Node12 -->
<g id="node12" class="node"><title>Node12</title>
<g id="a_node12"><a xlink:href="components_2esm_2cellref_8hpp.html" target="_top" xlink:title="components/esm/cellref.hpp">
<polygon fill="white" stroke="black" points="634.5,-124.5 634.5,-143.5 771.5,-143.5 771.5,-124.5 634.5,-124.5"/>
<text text-anchor="middle" x="703" y="-131.5" font-family="FreeSans" font-size="10.00">components/esm/cellref.hpp</text>
</a>
</g>
</g>
<!-- Node11&#45;&gt;Node12 -->
<g id="edge12" class="edge"><title>Node11&#45;&gt;Node12</title>
<path fill="none" stroke="midnightblue" d="M677.119,-180.083C681.408,-172.613 687.658,-161.724 692.942,-152.52"/>
<polygon fill="midnightblue" stroke="midnightblue" points="696.033,-154.166 697.976,-143.751 689.962,-150.681 696.033,-154.166"/>
</g>
<!-- Node12&#45;&gt;Node7 -->
<g id="edge13" class="edge"><title>Node12&#45;&gt;Node7</title>
<path fill="none" stroke="midnightblue" d="M680.235,-124.437C656.779,-115.552 619.2,-101.141 587,-88 585.118,-87.2319 583.183,-86.4319 581.235,-85.6187"/>
<polygon fill="midnightblue" stroke="midnightblue" points="582.145,-82.2034 571.571,-81.5301 579.417,-88.6501 582.145,-82.2034"/>
</g>
<!-- Node13 -->
<g id="node13" class="node"><title>Node13</title>
<g id="a_node13"><a xlink:href="esm_2defs_8hpp.html" target="_top" xlink:title="defs.hpp">
<polygon fill="white" stroke="black" points="595.5,-62.5 595.5,-81.5 648.5,-81.5 648.5,-62.5 595.5,-62.5"/>
<text text-anchor="middle" x="622" y="-69.5" font-family="FreeSans" font-size="10.00">defs.hpp</text>
</a>
</g>
</g>
<!-- Node12&#45;&gt;Node13 -->
<g id="edge14" class="edge"><title>Node12&#45;&gt;Node13</title>
<path fill="none" stroke="midnightblue" d="M691.395,-124.403C678.523,-114.869 657.526,-99.3154 641.994,-87.8106"/>
<polygon fill="midnightblue" stroke="midnightblue" points="643.703,-84.7204 633.584,-81.5806 639.536,-90.3454 643.703,-84.7204"/>
</g>
<!-- Node14 -->
<g id="node14" class="node"><title>Node14</title>
<polygon fill="white" stroke="#bfbfbf" points="519.5,-0.5 519.5,-19.5 566.5,-19.5 566.5,-0.5 519.5,-0.5"/>
<text text-anchor="middle" x="543" y="-7.5" font-family="FreeSans" font-size="10.00">stdint.h</text>
</g>
<!-- Node13&#45;&gt;Node14 -->
<g id="edge15" class="edge"><title>Node13&#45;&gt;Node14</title>
<path fill="none" stroke="midnightblue" d="M610.681,-62.4035C598.127,-52.8688 577.649,-37.3154 562.501,-25.8106"/>
<polygon fill="midnightblue" stroke="midnightblue" points="564.378,-22.8417 554.298,-19.5806 560.144,-28.4162 564.378,-22.8417"/>
</g>
<!-- Node15 -->
<g id="node15" class="node"><title>Node15</title>
<polygon fill="white" stroke="#bfbfbf" points="681.5,-0.5 681.5,-19.5 740.5,-19.5 740.5,-0.5 681.5,-0.5"/>
<text text-anchor="middle" x="711" y="-7.5" font-family="FreeSans" font-size="10.00">osg/Vec3f</text>
</g>
<!-- Node13&#45;&gt;Node15 -->
<g id="edge16" class="edge"><title>Node13&#45;&gt;Node15</title>
<path fill="none" stroke="midnightblue" d="M634.752,-62.4035C649.027,-52.7797 672.397,-37.0242 689.508,-25.4891"/>
<polygon fill="midnightblue" stroke="midnightblue" points="691.937,-28.0727 698.272,-19.5806 688.024,-22.2684 691.937,-28.0727"/>
</g>
<!-- Node16&#45;&gt;Node7 -->
<g id="edge27" class="edge"><title>Node16&#45;&gt;Node7</title>
<path fill="none" stroke="midnightblue" d="M588.069,-180.281C581.714,-161.379 566.556,-116.295 558.052,-91"/>
<polygon fill="midnightblue" stroke="midnightblue" points="561.364,-89.868 554.859,-81.5048 554.729,-92.0988 561.364,-89.868"/>
</g>
<!-- Node16&#45;&gt;Node13 -->
<g id="edge18" class="edge"><title>Node16&#45;&gt;Node13</title>
<path fill="none" stroke="midnightblue" d="M593.33,-180.281C598.359,-161.463 610.322,-116.697 617.099,-91.3399"/>
<polygon fill="midnightblue" stroke="midnightblue" points="620.527,-92.0694 619.727,-81.5048 613.764,-90.2621 620.527,-92.0694"/>
</g>
<!-- Node16&#45;&gt;Node15 -->
<g id="edge28" class="edge"><title>Node16&#45;&gt;Node15</title>
<path fill="none" stroke="midnightblue" d="M623.828,-181.725C677.301,-169.8 777.55,-147.102 780,-144 810.213,-105.749 759.228,-52.2373 729.726,-26.2991"/>
<polygon fill="midnightblue" stroke="midnightblue" points="731.936,-23.5843 722.06,-19.7499 727.39,-28.9065 731.936,-23.5843"/>
</g>
<!-- Node17 -->
<g id="node17" class="node"><title>Node17</title>
<g id="a_node17"><a xlink:href="animationstate_8hpp.html" target="_top" xlink:title="components/esm/animationstate.hpp">
<polygon fill="white" stroke="black" points="328,-124.5 328,-143.5 502,-143.5 502,-124.5 328,-124.5"/>
<text text-anchor="middle" x="415" y="-131.5" font-family="FreeSans" font-size="10.00">components/esm/animationstate.hpp</text>
</a>
</g>
</g>
<!-- Node16&#45;&gt;Node17 -->
<g id="edge19" class="edge"><title>Node16&#45;&gt;Node17</title>
<path fill="none" stroke="midnightblue" d="M563.112,-180.444C533.246,-171.28 485.685,-156.688 452.544,-146.519"/>
<polygon fill="midnightblue" stroke="midnightblue" points="453.344,-143.104 442.757,-143.516 451.291,-149.796 453.344,-143.104"/>
</g>
<!-- Node18 -->
<g id="node18" class="node"><title>Node18</title>
<g id="a_node18"><a xlink:href="apps_2openmw_2mwscript_2locals_8hpp.html" target="_top" xlink:title="../mwscript/locals.hpp">
<polygon fill="white" stroke="black" points="202,-124.5 202,-143.5 310,-143.5 310,-124.5 202,-124.5"/>
<text text-anchor="middle" x="256" y="-131.5" font-family="FreeSans" font-size="10.00">../mwscript/locals.hpp</text>
</a>
</g>
</g>
<!-- Node16&#45;&gt;Node18 -->
<g id="edge23" class="edge"><title>Node16&#45;&gt;Node18</title>
<path fill="none" stroke="midnightblue" d="M558.269,-183.724C502.954,-174.808 390.077,-156.612 319.001,-145.155"/>
<polygon fill="midnightblue" stroke="midnightblue" points="319.259,-141.652 308.83,-143.516 318.145,-148.563 319.259,-141.652"/>
</g>
<!-- Node17&#45;&gt;Node2 -->
<g id="edge21" class="edge"><title>Node17&#45;&gt;Node2</title>
<path fill="none" stroke="midnightblue" d="M357.398,-124.486C314.626,-117.249 255.251,-105.261 205,-88 203.092,-87.3444 201.148,-86.601 199.21,-85.8043"/>
<polygon fill="midnightblue" stroke="midnightblue" points="200.334,-82.4709 189.78,-81.5366 197.448,-88.8483 200.334,-82.4709"/>
</g>
<!-- Node17&#45;&gt;Node7 -->
<g id="edge20" class="edge"><title>Node17&#45;&gt;Node7</title>
<path fill="none" stroke="midnightblue" d="M434.629,-124.403C457.824,-114.245 496.619,-97.2547 523.213,-85.6074"/>
<polygon fill="midnightblue" stroke="midnightblue" points="524.652,-88.7984 532.408,-81.5806 521.843,-82.3863 524.652,-88.7984"/>
</g>
<!-- Node17&#45;&gt;Node14 -->
<g id="edge22" class="edge"><title>Node17&#45;&gt;Node14</title>
<path fill="none" stroke="midnightblue" d="M424.205,-124.226C445.608,-103.826 498.97,-52.9657 526.297,-26.9198"/>
<polygon fill="midnightblue" stroke="midnightblue" points="529.054,-29.1274 533.878,-19.6944 524.224,-24.0603 529.054,-29.1274"/>
</g>
<!-- Node18&#45;&gt;Node2 -->
<g id="edge24" class="edge"><title>Node18&#45;&gt;Node2</title>
<path fill="none" stroke="midnightblue" d="M244.251,-124.403C231.099,-114.78 209.566,-99.0242 193.802,-87.4891"/>
<polygon fill="midnightblue" stroke="midnightblue" points="195.864,-84.6611 185.727,-81.5806 191.73,-90.3103 195.864,-84.6611"/>
</g>
<!-- Node19 -->
<g id="node19" class="node"><title>Node19</title>
<g id="a_node19"><a xlink:href="types_8hpp.html" target="_top" xlink:title="components/interpreter\l/types.hpp">
<polygon fill="white" stroke="black" points="214,-57 214,-87 330,-87 330,-57 214,-57"/>
<text text-anchor="start" x="222" y="-75" font-family="FreeSans" font-size="10.00">components/interpreter</text>
<text text-anchor="middle" x="272" y="-64" font-family="FreeSans" font-size="10.00">/types.hpp</text>
</a>
</g>
</g>
<!-- Node18&#45;&gt;Node19 -->
<g id="edge25" class="edge"><title>Node18&#45;&gt;Node19</title>
<path fill="none" stroke="midnightblue" d="M258.292,-124.403C260.196,-117.265 263,-106.752 265.576,-97.0903"/>
<polygon fill="midnightblue" stroke="midnightblue" points="269.034,-97.705 268.229,-87.1408 262.271,-95.9013 269.034,-97.705"/>
</g>
<!-- Node20 -->
<g id="node20" class="node"><title>Node20</title>
<polygon fill="white" stroke="#bfbfbf" points="243,-0.5 243,-19.5 301,-19.5 301,-0.5 243,-0.5"/>
<text text-anchor="middle" x="272" y="-7.5" font-family="FreeSans" font-size="10.00">stdexcept</text>
</g>
<!-- Node19&#45;&gt;Node20 -->
<g id="edge26" class="edge"><title>Node19&#45;&gt;Node20</title>
<path fill="none" stroke="midnightblue" d="M272,-56.7808C272,-48.7812 272,-38.6887 272,-30.0168"/>
<polygon fill="midnightblue" stroke="midnightblue" points="275.5,-29.7305 272,-19.7305 268.5,-29.7306 275.5,-29.7305"/>
</g>
</g>
</svg>
