<?xml version="1.0" encoding="UTF-8" standalone="no"?>
<!DOCTYPE svg PUBLIC "-//W3C//DTD SVG 1.1//EN"
 "http://www.w3.org/Graphics/SVG/1.1/DTD/svg11.dtd">
<!-- Generated by graphviz version 2.36.0 (20140111.2315)
 -->
<!-- Title: /home/travis/build/OpenMW/openmw/components/nif/base.hpp Pages: 1 -->
<svg width="2232pt" height="362pt"
 viewBox="0.00 0.00 2232.31 362.00" xmlns="http://www.w3.org/2000/svg" xmlns:xlink="http://www.w3.org/1999/xlink">
<g id="graph0" class="graph" transform="scale(1 1) rotate(0) translate(4 358)">
<title>/home/travis/build/OpenMW/openmw/components/nif/base.hpp</title>
<polygon fill="white" stroke="none" points="-4,4 -4,-358 2228.31,-358 2228.31,4 -4,4"/>
<!-- Node1 -->
<g id="node1" class="node"><title>Node1</title>
<polygon fill="#bfbfbf" stroke="black" points="525.307,-312.5 525.307,-353.5 693.307,-353.5 693.307,-312.5 525.307,-312.5"/>
<text text-anchor="start" x="533.307" y="-341.5" font-family="FreeSans" font-size="10.00">/home/travis/build</text>
<text text-anchor="start" x="533.307" y="-330.5" font-family="FreeSans" font-size="10.00">/OpenMW/openmw/components</text>
<text text-anchor="middle" x="609.307" y="-319.5" font-family="FreeSans" font-size="10.00">/nif/base.hpp</text>
</g>
<!-- Node2 -->
<g id="node2" class="node"><title>Node2</title>
<g id="a_node2"><a xlink:href="controlled_8hpp.html" target="_top" xlink:title="/home/travis/build\l/OpenMW/openmw/components\l/nif/controlled.hpp">
<polygon fill="white" stroke="black" points="171.307,-234.5 171.307,-275.5 339.307,-275.5 339.307,-234.5 171.307,-234.5"/>
<text text-anchor="start" x="179.307" y="-263.5" font-family="FreeSans" font-size="10.00">/home/travis/build</text>
<text text-anchor="start" x="179.307" y="-252.5" font-family="FreeSans" font-size="10.00">/OpenMW/openmw/components</text>
<text text-anchor="middle" x="255.307" y="-241.5" font-family="FreeSans" font-size="10.00">/nif/controlled.hpp</text>
</a>
</g>
</g>
<!-- Node1&#45;&gt;Node2 -->
<g id="edge1" class="edge"><title>Node1&#45;&gt;Node2</title>
<path fill="none" stroke="midnightblue" d="M515.183,-311.816C465.543,-301.168 403.625,-287.883 348.307,-276 345.4,-275.376 342.443,-274.74 339.456,-274.098"/>
<polygon fill="midnightblue" stroke="midnightblue" points="514.75,-315.303 525.261,-313.978 516.218,-308.458 514.75,-315.303"/>
</g>
<!-- Node4 -->
<g id="node4" class="node"><title>Node4</title>
<g id="a_node4"><a xlink:href="components_2nif_2node_8hpp.html" target="_top" xlink:title="/home/travis/build\l/OpenMW/openmw/components\l/nif/node.hpp">
<polygon fill="white" stroke="black" points="469.307,-156.5 469.307,-197.5 637.307,-197.5 637.307,-156.5 469.307,-156.5"/>
<text text-anchor="start" x="477.307" y="-185.5" font-family="FreeSans" font-size="10.00">/home/travis/build</text>
<text text-anchor="start" x="477.307" y="-174.5" font-family="FreeSans" font-size="10.00">/OpenMW/openmw/components</text>
<text text-anchor="middle" x="553.307" y="-163.5" font-family="FreeSans" font-size="10.00">/nif/node.hpp</text>
</a>
</g>
</g>
<!-- Node1&#45;&gt;Node4 -->
<g id="edge54" class="edge"><title>Node1&#45;&gt;Node4</title>
<path fill="none" stroke="midnightblue" d="M587.811,-304.145C582.021,-295.513 576.271,-285.709 572.307,-276 561.758,-250.168 556.963,-218.067 554.856,-197.799"/>
<polygon fill="midnightblue" stroke="midnightblue" points="584.947,-306.156 593.55,-312.339 590.681,-302.14 584.947,-306.156"/>
</g>
<!-- Node14 -->
<g id="node14" class="node"><title>Node14</title>
<g id="a_node14"><a xlink:href="components_2nif_2data_8hpp.html" target="_top" xlink:title="/home/travis/build\l/OpenMW/openmw/components\l/nif/data.hpp">
<polygon fill="white" stroke="black" points="581.307,-234.5 581.307,-275.5 749.307,-275.5 749.307,-234.5 581.307,-234.5"/>
<text text-anchor="start" x="589.307" y="-263.5" font-family="FreeSans" font-size="10.00">/home/travis/build</text>
<text text-anchor="start" x="589.307" y="-252.5" font-family="FreeSans" font-size="10.00">/OpenMW/openmw/components</text>
<text text-anchor="middle" x="665.307" y="-241.5" font-family="FreeSans" font-size="10.00">/nif/data.hpp</text>
</a>
</g>
</g>
<!-- Node1&#45;&gt;Node14 -->
<g id="edge15" class="edge"><title>Node1&#45;&gt;Node14</title>
<path fill="none" stroke="midnightblue" d="M629.689,-304.338C636.734,-294.778 644.474,-284.273 650.934,-275.506"/>
<polygon fill="midnightblue" stroke="midnightblue" points="626.842,-302.301 623.728,-312.428 632.478,-306.454 626.842,-302.301"/>
</g>
<!-- Node28 -->
<g id="node28" class="node"><title>Node28</title>
<g id="a_node28"><a xlink:href="nif_2controller_8hpp.html" target="_top" xlink:title="/home/travis/build\l/OpenMW/openmw/components\l/nif/controller.hpp">
<polygon fill="white" stroke="black" points="957.307,-234.5 957.307,-275.5 1125.31,-275.5 1125.31,-234.5 957.307,-234.5"/>
<text text-anchor="start" x="965.307" y="-263.5" font-family="FreeSans" font-size="10.00">/home/travis/build</text>
<text text-anchor="start" x="965.307" y="-252.5" font-family="FreeSans" font-size="10.00">/OpenMW/openmw/components</text>
<text text-anchor="middle" x="1041.31" y="-241.5" font-family="FreeSans" font-size="10.00">/nif/controller.hpp</text>
</a>
</g>
</g>
<!-- Node1&#45;&gt;Node28 -->
<g id="edge41" class="edge"><title>Node1&#45;&gt;Node28</title>
<path fill="none" stroke="midnightblue" d="M703.639,-317.092C770.623,-306.285 862.618,-290.993 943.307,-276 947.831,-275.159 952.468,-274.278 957.148,-273.375"/>
<polygon fill="midnightblue" stroke="midnightblue" points="702.843,-313.675 693.526,-318.721 703.955,-320.586 702.843,-313.675"/>
</g>
<!-- Node29 -->
<g id="node29" class="node"><title>Node29</title>
<g id="a_node29"><a xlink:href="extra_8hpp.html" target="_top" xlink:title="/home/travis/build\l/OpenMW/openmw/components\l/nif/extra.hpp">
<polygon fill="white" stroke="black" points="767.307,-234.5 767.307,-275.5 935.307,-275.5 935.307,-234.5 767.307,-234.5"/>
<text text-anchor="start" x="775.307" y="-263.5" font-family="FreeSans" font-size="10.00">/home/travis/build</text>
<text text-anchor="start" x="775.307" y="-252.5" font-family="FreeSans" font-size="10.00">/OpenMW/openmw/components</text>
<text text-anchor="middle" x="851.307" y="-241.5" font-family="FreeSans" font-size="10.00">/nif/extra.hpp</text>
</a>
</g>
</g>
<!-- Node1&#45;&gt;Node29 -->
<g id="edge46" class="edge"><title>Node1&#45;&gt;Node29</title>
<path fill="none" stroke="midnightblue" d="M681.576,-309.304C715.832,-298.546 756.344,-285.823 789.197,-275.506"/>
<polygon fill="midnightblue" stroke="midnightblue" points="680.119,-306.093 671.628,-312.428 682.217,-312.771 680.119,-306.093"/>
</g>
<!-- Node31 -->
<g id="node31" class="node"><title>Node31</title>
<g id="a_node31"><a xlink:href="property_8hpp.html" target="_top" xlink:title="/home/travis/build\l/OpenMW/openmw/components\l/nif/property.hpp">
<polygon fill="white" stroke="black" points="357.307,-234.5 357.307,-275.5 525.307,-275.5 525.307,-234.5 357.307,-234.5"/>
<text text-anchor="start" x="365.307" y="-263.5" font-family="FreeSans" font-size="10.00">/home/travis/build</text>
<text text-anchor="start" x="365.307" y="-252.5" font-family="FreeSans" font-size="10.00">/OpenMW/openmw/components</text>
<text text-anchor="middle" x="441.307" y="-241.5" font-family="FreeSans" font-size="10.00">/nif/property.hpp</text>
</a>
</g>
</g>
<!-- Node1&#45;&gt;Node31 -->
<g id="edge50" class="edge"><title>Node1&#45;&gt;Node31</title>
<path fill="none" stroke="midnightblue" d="M556.672,-308.189C533.43,-297.675 506.448,-285.469 484.424,-275.506"/>
<polygon fill="midnightblue" stroke="midnightblue" points="555.489,-311.495 566.042,-312.428 558.374,-305.117 555.489,-311.495"/>
</g>
<!-- Node3 -->
<g id="node3" class="node"><title>Node3</title>
<g id="a_node3"><a xlink:href="controlled_8cpp.html" target="_top" xlink:title="/home/travis/build\l/OpenMW/openmw/components\l/nif/controlled.cpp">
<polygon fill="white" stroke="black" points="245.307,-156.5 245.307,-197.5 413.307,-197.5 413.307,-156.5 245.307,-156.5"/>
<text text-anchor="start" x="253.307" y="-185.5" font-family="FreeSans" font-size="10.00">/home/travis/build</text>
<text text-anchor="start" x="253.307" y="-174.5" font-family="FreeSans" font-size="10.00">/OpenMW/openmw/components</text>
<text text-anchor="middle" x="329.307" y="-163.5" font-family="FreeSans" font-size="10.00">/nif/controlled.cpp</text>
</a>
</g>
</g>
<!-- Node2&#45;&gt;Node3 -->
<g id="edge2" class="edge"><title>Node2&#45;&gt;Node3</title>
<path fill="none" stroke="midnightblue" d="M281.397,-227.204C290.928,-217.416 301.519,-206.539 310.314,-197.506"/>
<polygon fill="midnightblue" stroke="midnightblue" points="278.832,-224.822 274.363,-234.428 283.847,-229.705 278.832,-224.822"/>
</g>
<!-- Node2&#45;&gt;Node4 -->
<g id="edge3" class="edge"><title>Node2&#45;&gt;Node4</title>
<path fill="none" stroke="midnightblue" d="M341.864,-231.925C384.552,-221.038 435.588,-208.022 476.824,-197.506"/>
<polygon fill="midnightblue" stroke="midnightblue" points="340.874,-228.565 332.049,-234.428 342.604,-235.348 340.874,-228.565"/>
</g>
<!-- Node12 -->
<g id="node12" class="node"><title>Node12</title>
<g id="a_node12"><a xlink:href="property_8cpp.html" target="_top" xlink:title="/home/travis/build\l/OpenMW/openmw/components\l/nif/property.cpp">
<polygon fill="white" stroke="black" points="21.3066,-156.5 21.3066,-197.5 189.307,-197.5 189.307,-156.5 21.3066,-156.5"/>
<text text-anchor="start" x="29.3066" y="-185.5" font-family="FreeSans" font-size="10.00">/home/travis/build</text>
<text text-anchor="start" x="29.3066" y="-174.5" font-family="FreeSans" font-size="10.00">/OpenMW/openmw/components</text>
<text text-anchor="middle" x="105.307" y="-163.5" font-family="FreeSans" font-size="10.00">/nif/property.cpp</text>
</a>
</g>
</g>
<!-- Node2&#45;&gt;Node12 -->
<g id="edge13" class="edge"><title>Node2&#45;&gt;Node12</title>
<path fill="none" stroke="midnightblue" d="M207.757,-229.908C187.132,-219.458 163.294,-207.38 143.804,-197.506"/>
<polygon fill="midnightblue" stroke="midnightblue" points="206.176,-233.031 216.678,-234.428 209.339,-226.786 206.176,-233.031"/>
</g>
<!-- Node13 -->
<g id="node13" class="node"><title>Node13</title>
<g id="a_node13"><a xlink:href="particle_8cpp.html" target="_top" xlink:title="/home/travis/build\l/OpenMW/openmw/components\l/nifosg/particle.cpp">
<polygon fill="white" stroke="black" points="49.3066,-0.5 49.3066,-41.5 217.307,-41.5 217.307,-0.5 49.3066,-0.5"/>
<text text-anchor="start" x="57.3066" y="-29.5" font-family="FreeSans" font-size="10.00">/home/travis/build</text>
<text text-anchor="start" x="57.3066" y="-18.5" font-family="FreeSans" font-size="10.00">/OpenMW/openmw/components</text>
<text text-anchor="middle" x="133.307" y="-7.5" font-family="FreeSans" font-size="10.00">/nifosg/particle.cpp</text>
</a>
</g>
</g>
<!-- Node2&#45;&gt;Node13 -->
<g id="edge14" class="edge"><title>Node2&#45;&gt;Node13</title>
<path fill="none" stroke="midnightblue" d="M161.185,-244.356C101.083,-236.033 31.0435,-221.546 12.3066,-198 -30.8691,-143.743 53.5959,-74.841 102.264,-41.6404"/>
<polygon fill="midnightblue" stroke="midnightblue" points="160.743,-247.828 171.12,-245.689 161.674,-240.89 160.743,-247.828"/>
</g>
<!-- Node5 -->
<g id="node5" class="node"><title>Node5</title>
<g id="a_node5"><a xlink:href="nif_2controller_8cpp.html" target="_top" xlink:title="/home/travis/build\l/OpenMW/openmw/components\l/nif/controller.cpp">
<polygon fill="white" stroke="black" points="919.307,-78.5 919.307,-119.5 1087.31,-119.5 1087.31,-78.5 919.307,-78.5"/>
<text text-anchor="start" x="927.307" y="-107.5" font-family="FreeSans" font-size="10.00">/home/travis/build</text>
<text text-anchor="start" x="927.307" y="-96.5" font-family="FreeSans" font-size="10.00">/OpenMW/openmw/components</text>
<text text-anchor="middle" x="1003.31" y="-85.5" font-family="FreeSans" font-size="10.00">/nif/controller.cpp</text>
</a>
</g>
</g>
<!-- Node4&#45;&gt;Node5 -->
<g id="edge4" class="edge"><title>Node4&#45;&gt;Node5</title>
<path fill="none" stroke="midnightblue" d="M647.267,-162.624C719.178,-152.047 820.727,-136.378 909.307,-120 912.588,-119.393 915.93,-118.759 919.304,-118.106"/>
<polygon fill="midnightblue" stroke="midnightblue" points="646.707,-159.168 637.321,-164.082 647.723,-166.094 646.707,-159.168"/>
</g>
<!-- Node6 -->
<g id="node6" class="node"><title>Node6</title>
<g id="a_node6"><a xlink:href="components_2nif_2data_8cpp.html" target="_top" xlink:title="/home/travis/build\l/OpenMW/openmw/components\l/nif/data.cpp">
<polygon fill="white" stroke="black" points="547.307,-78.5 547.307,-119.5 715.307,-119.5 715.307,-78.5 547.307,-78.5"/>
<text text-anchor="start" x="555.307" y="-107.5" font-family="FreeSans" font-size="10.00">/home/travis/build</text>
<text text-anchor="start" x="555.307" y="-96.5" font-family="FreeSans" font-size="10.00">/OpenMW/openmw/components</text>
<text text-anchor="middle" x="631.307" y="-85.5" font-family="FreeSans" font-size="10.00">/nif/data.cpp</text>
</a>
</g>
</g>
<!-- Node4&#45;&gt;Node6 -->
<g id="edge5" class="edge"><title>Node4&#45;&gt;Node6</title>
<path fill="none" stroke="midnightblue" d="M580.808,-149.204C590.853,-139.416 602.017,-128.539 611.288,-119.506"/>
<polygon fill="midnightblue" stroke="midnightblue" points="578.113,-146.943 573.394,-156.428 582.998,-151.956 578.113,-146.943"/>
</g>
<!-- Node7 -->
<g id="node7" class="node"><title>Node7</title>
<g id="a_node7"><a xlink:href="effect_8hpp.html" target="_top" xlink:title="/home/travis/build\l/OpenMW/openmw/components\l/nif/effect.hpp">
<polygon fill="white" stroke="black" points="323.307,-78.5 323.307,-119.5 491.307,-119.5 491.307,-78.5 323.307,-78.5"/>
<text text-anchor="start" x="331.307" y="-107.5" font-family="FreeSans" font-size="10.00">/home/travis/build</text>
<text text-anchor="start" x="331.307" y="-96.5" font-family="FreeSans" font-size="10.00">/OpenMW/openmw/components</text>
<text text-anchor="middle" x="407.307" y="-85.5" font-family="FreeSans" font-size="10.00">/nif/effect.hpp</text>
</a>
</g>
</g>
<!-- Node4&#45;&gt;Node7 -->
<g id="edge6" class="edge"><title>Node4&#45;&gt;Node7</title>
<path fill="none" stroke="midnightblue" d="M506.755,-151.768C486.742,-141.35 463.662,-129.336 444.778,-119.506"/>
<polygon fill="midnightblue" stroke="midnightblue" points="505.222,-154.915 515.708,-156.428 508.454,-148.706 505.222,-154.915"/>
</g>
<!-- Node8 -->
<g id="node8" class="node"><title>Node8</title>
<g id="a_node8"><a xlink:href="effect_8cpp.html" target="_top" xlink:title="/home/travis/build\l/OpenMW/openmw/components\l/nif/effect.cpp">
<polygon fill="white" stroke="black" points="235.307,-0.5 235.307,-41.5 403.307,-41.5 403.307,-0.5 235.307,-0.5"/>
<text text-anchor="start" x="243.307" y="-29.5" font-family="FreeSans" font-size="10.00">/home/travis/build</text>
<text text-anchor="start" x="243.307" y="-18.5" font-family="FreeSans" font-size="10.00">/OpenMW/openmw/components</text>
<text text-anchor="middle" x="319.307" y="-7.5" font-family="FreeSans" font-size="10.00">/nif/effect.cpp</text>
</a>
</g>
</g>
<!-- Node4&#45;&gt;Node8 -->
<g id="edge10" class="edge"><title>Node4&#45;&gt;Node8</title>
<path fill="none" stroke="midnightblue" d="M459.291,-156.771C394.453,-143.059 319.083,-126.025 314.307,-120 296.738,-97.8393 304.056,-63.2121 311.373,-41.6038"/>
<polygon fill="midnightblue" stroke="midnightblue" points="458.676,-160.219 469.183,-158.855 460.119,-153.369 458.676,-160.219"/>
</g>
<!-- Node10 -->
<g id="node10" class="node"><title>Node10</title>
<g id="a_node10"><a xlink:href="nifloader_8cpp.html" target="_top" xlink:title="/home/travis/build\l/OpenMW/openmw/components\l/nifosg/nifloader.cpp">
<polygon fill="white" stroke="black" points="653.307,-0.5 653.307,-41.5 821.307,-41.5 821.307,-0.5 653.307,-0.5"/>
<text text-anchor="start" x="661.307" y="-29.5" font-family="FreeSans" font-size="10.00">/home/travis/build</text>
<text text-anchor="start" x="661.307" y="-18.5" font-family="FreeSans" font-size="10.00">/OpenMW/openmw/components</text>
<text text-anchor="middle" x="737.307" y="-7.5" font-family="FreeSans" font-size="10.00">/nifosg/nifloader.cpp</text>
</a>
</g>
</g>
<!-- Node4&#45;&gt;Node10 -->
<g id="edge12" class="edge"><title>Node4&#45;&gt;Node10</title>
<path fill="none" stroke="midnightblue" d="M538.332,-146.794C529.818,-125.679 523.504,-97.5437 538.307,-78 552.663,-59.0459 605.468,-44.7106 653.075,-35.2904"/>
<polygon fill="midnightblue" stroke="midnightblue" points="535.25,-148.481 542.468,-156.236 541.662,-145.672 535.25,-148.481"/>
</g>
<!-- Node11 -->
<g id="node11" class="node"><title>Node11</title>
<g id="a_node11"><a xlink:href="bulletnifloader_8cpp.html" target="_top" xlink:title="/home/travis/build\l/OpenMW/openmw/components\l/nifbullet/bulletnifloader.cpp">
<polygon fill="white" stroke="black" points="733.307,-78.5 733.307,-119.5 901.307,-119.5 901.307,-78.5 733.307,-78.5"/>
<text text-anchor="start" x="741.307" y="-107.5" font-family="FreeSans" font-size="10.00">/home/travis/build</text>
<text text-anchor="start" x="741.307" y="-96.5" font-family="FreeSans" font-size="10.00">/OpenMW/openmw/components</text>
<text text-anchor="middle" x="817.307" y="-85.5" font-family="FreeSans" font-size="10.00">/nifbullet/bulletnifloader.cpp</text>
</a>
</g>
</g>
<!-- Node4&#45;&gt;Node11 -->
<g id="edge11" class="edge"><title>Node4&#45;&gt;Node11</title>
<path fill="none" stroke="midnightblue" d="M631.185,-153.58C668.757,-142.764 713.404,-129.911 749.55,-119.506"/>
<polygon fill="midnightblue" stroke="midnightblue" points="629.935,-150.298 621.293,-156.428 631.871,-157.025 629.935,-150.298"/>
</g>
<!-- Node7&#45;&gt;Node8 -->
<g id="edge7" class="edge"><title>Node7&#45;&gt;Node8</title>
<path fill="none" stroke="midnightblue" d="M376.945,-71.7785C365.441,-61.8432 352.557,-50.7159 341.892,-41.5056"/>
<polygon fill="midnightblue" stroke="midnightblue" points="374.788,-74.5408 384.644,-78.4281 379.364,-69.243 374.788,-74.5408"/>
</g>
<!-- Node9 -->
<g id="node9" class="node"><title>Node9</title>
<g id="a_node9"><a xlink:href="niffile_8cpp.html" target="_top" xlink:title="/home/travis/build\l/OpenMW/openmw/components\l/nif/niffile.cpp">
<polygon fill="white" stroke="black" points="421.307,-0.5 421.307,-41.5 589.307,-41.5 589.307,-0.5 421.307,-0.5"/>
<text text-anchor="start" x="429.307" y="-29.5" font-family="FreeSans" font-size="10.00">/home/travis/build</text>
<text text-anchor="start" x="429.307" y="-18.5" font-family="FreeSans" font-size="10.00">/OpenMW/openmw/components</text>
<text text-anchor="middle" x="505.307" y="-7.5" font-family="FreeSans" font-size="10.00">/nif/niffile.cpp</text>
</a>
</g>
</g>
<!-- Node7&#45;&gt;Node9 -->
<g id="edge8" class="edge"><title>Node7&#45;&gt;Node9</title>
<path fill="none" stroke="midnightblue" d="M440.749,-72.0648C453.654,-62.0574 468.164,-50.8045 480.155,-41.5056"/>
<polygon fill="midnightblue" stroke="midnightblue" points="438.301,-69.5341 432.544,-78.4281 442.591,-75.0656 438.301,-69.5341"/>
</g>
<!-- Node7&#45;&gt;Node10 -->
<g id="edge9" class="edge"><title>Node7&#45;&gt;Node10</title>
<path fill="none" stroke="midnightblue" d="M501.469,-76.3141C549.229,-65.3149 606.762,-52.0647 653.047,-41.4052"/>
<polygon fill="midnightblue" stroke="midnightblue" points="500.393,-72.9703 491.433,-78.6253 501.964,-79.7917 500.393,-72.9703"/>
</g>
<!-- Node14&#45;&gt;Node3 -->
<g id="edge16" class="edge"><title>Node14&#45;&gt;Node3</title>
<path fill="none" stroke="midnightblue" d="M571.193,-232.712C521.641,-221.504 461.381,-207.874 413.403,-197.022"/>
<polygon fill="midnightblue" stroke="midnightblue" points="570.428,-236.128 580.953,-234.92 571.972,-229.3 570.428,-236.128"/>
</g>
<!-- Node14&#45;&gt;Node4 -->
<g id="edge17" class="edge"><title>Node14&#45;&gt;Node4</title>
<path fill="none" stroke="midnightblue" d="M627.927,-228.635C612.971,-218.487 596.016,-206.982 582.052,-197.506"/>
<polygon fill="midnightblue" stroke="midnightblue" points="626.224,-231.709 636.464,-234.428 630.154,-225.917 626.224,-231.709"/>
</g>
<!-- Node14&#45;&gt;Node5 -->
<g id="edge18" class="edge"><title>Node14&#45;&gt;Node5</title>
<path fill="none" stroke="midnightblue" d="M694.911,-227.693C705.032,-218.472 716.314,-207.935 726.307,-198 744.37,-180.039 743.286,-168.806 765.307,-156 772.221,-151.979 853.522,-133.275 919.204,-118.575"/>
<polygon fill="midnightblue" stroke="midnightblue" points="692.505,-225.15 687.439,-234.456 697.202,-230.34 692.505,-225.15"/>
</g>
<!-- Node14&#45;&gt;Node6 -->
<g id="edge19" class="edge"><title>Node14&#45;&gt;Node6</title>
<path fill="none" stroke="midnightblue" d="M659.656,-224.607C655.821,-205.105 650.518,-178.967 645.307,-156 642.557,-143.882 639.186,-130.364 636.441,-119.646"/>
<polygon fill="midnightblue" stroke="midnightblue" points="656.221,-225.279 661.572,-234.423 663.091,-223.937 656.221,-225.279"/>
</g>
<!-- Node14&#45;&gt;Node11 -->
<g id="edge21" class="edge"><title>Node14&#45;&gt;Node11</title>
<path fill="none" stroke="midnightblue" d="M679.119,-225.085C690.107,-204.175 706.985,-176.171 727.307,-156 741.805,-141.61 760.651,-129.171 777.348,-119.696"/>
<polygon fill="midnightblue" stroke="midnightblue" points="675.926,-223.641 674.494,-234.139 682.16,-226.826 675.926,-223.641"/>
</g>
<!-- Node14&#45;&gt;Node12 -->
<g id="edge20" class="edge"><title>Node14&#45;&gt;Node12</title>
<path fill="none" stroke="midnightblue" d="M571.085,-239.375C558.395,-237.507 545.539,-235.668 533.307,-234 401.559,-216.038 368.044,-216.036 236.307,-198 221.149,-195.925 205.026,-193.578 189.463,-191.241"/>
<polygon fill="midnightblue" stroke="midnightblue" points="570.807,-242.872 581.213,-240.876 571.834,-235.947 570.807,-242.872"/>
</g>
<!-- Node14&#45;&gt;Node13 -->
<g id="edge40" class="edge"><title>Node14&#45;&gt;Node13</title>
<path fill="none" stroke="midnightblue" d="M571.127,-239.726C534.679,-231.35 493.768,-218.265 460.307,-198 438.518,-184.804 442.946,-169.44 421.307,-156 373.644,-126.396 351.766,-142.361 300.307,-120 249.127,-97.7599 194.102,-63.1562 161.738,-41.5744"/>
<polygon fill="midnightblue" stroke="midnightblue" points="570.76,-243.229 581.28,-241.965 572.268,-236.393 570.76,-243.229"/>
</g>
<!-- Node15 -->
<g id="node15" class="node"><title>Node15</title>
<g id="a_node15"><a xlink:href="nifosg_2controller_8hpp.html" target="_top" xlink:title="/home/travis/build\l/OpenMW/openmw/components\l/nifosg/controller.hpp">
<polygon fill="white" stroke="black" points="1384.31,-156.5 1384.31,-197.5 1552.31,-197.5 1552.31,-156.5 1384.31,-156.5"/>
<text text-anchor="start" x="1392.31" y="-185.5" font-family="FreeSans" font-size="10.00">/home/travis/build</text>
<text text-anchor="start" x="1392.31" y="-174.5" font-family="FreeSans" font-size="10.00">/OpenMW/openmw/components</text>
<text text-anchor="middle" x="1468.31" y="-163.5" font-family="FreeSans" font-size="10.00">/nifosg/controller.hpp</text>
</a>
</g>
</g>
<!-- Node14&#45;&gt;Node15 -->
<g id="edge22" class="edge"><title>Node14&#45;&gt;Node15</title>
<path fill="none" stroke="midnightblue" d="M759.315,-233.954C990.674,-200.701 1252.88,-186.505 1384.29,-181.005"/>
<polygon fill="midnightblue" stroke="midnightblue" points="758.758,-230.498 749.365,-235.399 759.764,-237.425 758.758,-230.498"/>
</g>
<!-- Node19 -->
<g id="node19" class="node"><title>Node19</title>
<g id="a_node19"><a xlink:href="nifosg_2controller_8cpp.html" target="_top" xlink:title="/home/travis/build\l/OpenMW/openmw/components\l/nifosg/controller.cpp">
<polygon fill="white" stroke="black" points="1105.31,-78.5 1105.31,-119.5 1273.31,-119.5 1273.31,-78.5 1105.31,-78.5"/>
<text text-anchor="start" x="1113.31" y="-107.5" font-family="FreeSans" font-size="10.00">/home/travis/build</text>
<text text-anchor="start" x="1113.31" y="-96.5" font-family="FreeSans" font-size="10.00">/OpenMW/openmw/components</text>
<text text-anchor="middle" x="1189.31" y="-85.5" font-family="FreeSans" font-size="10.00">/nifosg/controller.cpp</text>
</a>
</g>
</g>
<!-- Node14&#45;&gt;Node19 -->
<g id="edge39" class="edge"><title>Node14&#45;&gt;Node19</title>
<path fill="none" stroke="midnightblue" d="M707.569,-229.244C755.936,-200.993 829.41,-158.357 836.307,-156 946.281,-118.422 980.841,-140.106 1095.31,-120 1098.51,-119.437 1101.77,-118.844 1105.06,-118.228"/>
<polygon fill="midnightblue" stroke="midnightblue" points="705.719,-226.271 698.852,-234.339 709.251,-232.315 705.719,-226.271"/>
</g>
<!-- Node16 -->
<g id="node16" class="node"><title>Node16</title>
<g id="a_node16"><a xlink:href="animation_8cpp.html" target="_top" xlink:title="/home/travis/build\l/OpenMW/openmw/apps\l/openmw/mwrender/animation.cpp">
<polygon fill="white" stroke="black" points="2042.31,-0.5 2042.31,-41.5 2224.31,-41.5 2224.31,-0.5 2042.31,-0.5"/>
<text text-anchor="start" x="2050.31" y="-29.5" font-family="FreeSans" font-size="10.00">/home/travis/build</text>
<text text-anchor="start" x="2050.31" y="-18.5" font-family="FreeSans" font-size="10.00">/OpenMW/openmw/apps</text>
<text text-anchor="middle" x="2133.31" y="-7.5" font-family="FreeSans" font-size="10.00">/openmw/mwrender/animation.cpp</text>
</a>
</g>
</g>
<!-- Node15&#45;&gt;Node16 -->
<g id="edge23" class="edge"><title>Node15&#45;&gt;Node16</title>
<path fill="none" stroke="midnightblue" d="M1562.61,-176.255C1707.68,-175.132 1977.49,-166.589 2060.31,-120 2091.74,-102.317 2113.62,-64.903 2124.77,-41.7614"/>
<polygon fill="midnightblue" stroke="midnightblue" points="1562.36,-172.756 1552.39,-176.323 1562.41,-179.756 1562.36,-172.756"/>
</g>
<!-- Node17 -->
<g id="node17" class="node"><title>Node17</title>
<g id="a_node17"><a xlink:href="ripplesimulation_8cpp.html" target="_top" xlink:title="/home/travis/build\l/OpenMW/openmw/apps\l/openmw/mwrender/ripplesimulation.cpp">
<polygon fill="white" stroke="black" points="1663.31,-78.5 1663.31,-119.5 1873.31,-119.5 1873.31,-78.5 1663.31,-78.5"/>
<text text-anchor="start" x="1671.31" y="-107.5" font-family="FreeSans" font-size="10.00">/home/travis/build</text>
<text text-anchor="start" x="1671.31" y="-96.5" font-family="FreeSans" font-size="10.00">/OpenMW/openmw/apps</text>
<text text-anchor="middle" x="1768.31" y="-85.5" font-family="FreeSans" font-size="10.00">/openmw/mwrender/ripplesimulation.cpp</text>
</a>
</g>
</g>
<!-- Node15&#45;&gt;Node17 -->
<g id="edge24" class="edge"><title>Node15&#45;&gt;Node17</title>
<path fill="none" stroke="midnightblue" d="M1555.44,-153.925C1598.42,-143.038 1649.8,-130.022 1691.31,-119.506"/>
<polygon fill="midnightblue" stroke="midnightblue" points="1554.4,-150.579 1545.56,-156.428 1556.12,-157.365 1554.4,-150.579"/>
</g>
<!-- Node18 -->
<g id="node18" class="node"><title>Node18</title>
<g id="a_node18"><a xlink:href="water_8cpp.html" target="_top" xlink:title="/home/travis/build\l/OpenMW/openmw/apps\l/openmw/mwrender/water.cpp">
<polygon fill="white" stroke="black" points="1891.31,-78.5 1891.31,-119.5 2051.31,-119.5 2051.31,-78.5 1891.31,-78.5"/>
<text text-anchor="start" x="1899.31" y="-107.5" font-family="FreeSans" font-size="10.00">/home/travis/build</text>
<text text-anchor="start" x="1899.31" y="-96.5" font-family="FreeSans" font-size="10.00">/OpenMW/openmw/apps</text>
<text text-anchor="middle" x="1971.31" y="-85.5" font-family="FreeSans" font-size="10.00">/openmw/mwrender/water.cpp</text>
</a>
</g>
</g>
<!-- Node15&#45;&gt;Node18 -->
<g id="edge25" class="edge"><title>Node15&#45;&gt;Node18</title>
<path fill="none" stroke="midnightblue" d="M1562.74,-165.587C1646.89,-155.747 1773.24,-139.594 1882.31,-120 1885.11,-119.496 1887.96,-118.964 1890.84,-118.41"/>
<polygon fill="midnightblue" stroke="midnightblue" points="1562.22,-162.124 1552.69,-166.755 1563.03,-169.077 1562.22,-162.124"/>
</g>
<!-- Node15&#45;&gt;Node19 -->
<g id="edge26" class="edge"><title>Node15&#45;&gt;Node19</title>
<path fill="none" stroke="midnightblue" d="M1386.76,-153.787C1346.9,-142.929 1299.36,-129.978 1260.91,-119.506"/>
<polygon fill="midnightblue" stroke="midnightblue" points="1385.89,-157.177 1396.46,-156.428 1387.73,-150.423 1385.89,-157.177"/>
</g>
<!-- Node20 -->
<g id="node20" class="node"><title>Node20</title>
<g id="a_node20"><a xlink:href="nifloader_8hpp.html" target="_top" xlink:title="/home/travis/build\l/OpenMW/openmw/components\l/nifosg/nifloader.hpp">
<polygon fill="white" stroke="black" points="1477.31,-78.5 1477.31,-119.5 1645.31,-119.5 1645.31,-78.5 1477.31,-78.5"/>
<text text-anchor="start" x="1485.31" y="-107.5" font-family="FreeSans" font-size="10.00">/home/travis/build</text>
<text text-anchor="start" x="1485.31" y="-96.5" font-family="FreeSans" font-size="10.00">/OpenMW/openmw/components</text>
<text text-anchor="middle" x="1561.31" y="-85.5" font-family="FreeSans" font-size="10.00">/nifosg/nifloader.hpp</text>
</a>
</g>
</g>
<!-- Node15&#45;&gt;Node20 -->
<g id="edge27" class="edge"><title>Node15&#45;&gt;Node20</title>
<path fill="none" stroke="midnightblue" d="M1500.04,-150.065C1512.29,-140.057 1526.06,-128.804 1537.44,-119.506"/>
<polygon fill="midnightblue" stroke="midnightblue" points="1497.78,-147.39 1492.26,-156.428 1502.21,-152.81 1497.78,-147.39"/>
</g>
<!-- Node26 -->
<g id="node26" class="node"><title>Node26</title>
<g id="a_node26"><a xlink:href="particle_8hpp.html" target="_top" xlink:title="/home/travis/build\l/OpenMW/openmw/components\l/nifosg/particle.hpp">
<polygon fill="white" stroke="black" points="1291.31,-78.5 1291.31,-119.5 1459.31,-119.5 1459.31,-78.5 1291.31,-78.5"/>
<text text-anchor="start" x="1299.31" y="-107.5" font-family="FreeSans" font-size="10.00">/home/travis/build</text>
<text text-anchor="start" x="1299.31" y="-96.5" font-family="FreeSans" font-size="10.00">/OpenMW/openmw/components</text>
<text text-anchor="middle" x="1375.31" y="-85.5" font-family="FreeSans" font-size="10.00">/nifosg/particle.hpp</text>
</a>
</g>
</g>
<!-- Node15&#45;&gt;Node26 -->
<g id="edge35" class="edge"><title>Node15&#45;&gt;Node26</title>
<path fill="none" stroke="midnightblue" d="M1436.57,-150.065C1424.32,-140.057 1410.55,-128.804 1399.18,-119.506"/>
<polygon fill="midnightblue" stroke="midnightblue" points="1434.4,-152.81 1444.36,-156.428 1438.83,-147.39 1434.4,-152.81"/>
</g>
<!-- Node20&#45;&gt;Node10 -->
<g id="edge32" class="edge"><title>Node20&#45;&gt;Node10</title>
<path fill="none" stroke="midnightblue" d="M1466.93,-78.0839C1194.63,-42.2193 1121.55,-72.8901 853.307,-42 842.953,-40.8077 832.12,-39.2967 821.411,-37.6413"/>
<polygon fill="midnightblue" stroke="midnightblue" points="1466.74,-81.5897 1477.12,-79.4442 1467.67,-74.6513 1466.74,-81.5897"/>
</g>
<!-- Node20&#45;&gt;Node16 -->
<g id="edge29" class="edge"><title>Node20&#45;&gt;Node16</title>
<path fill="none" stroke="midnightblue" d="M1655.27,-77.9485C1822.81,-52.7424 1868.5,-65.9565 2032.31,-42 2035.58,-41.5215 2038.91,-41.0076 2042.26,-40.4661"/>
<polygon fill="midnightblue" stroke="midnightblue" points="1654.73,-74.4903 1645.37,-79.4604 1655.79,-81.41 1654.73,-74.4903"/>
</g>
<!-- Node21 -->
<g id="node21" class="node"><title>Node21</title>
<g id="a_node21"><a xlink:href="editor_8cpp.html" target="_top" xlink:title="/home/travis/build\l/OpenMW/openmw/apps\l/opencs/editor.cpp">
<polygon fill="white" stroke="black" points="1276.81,-0.5 1276.81,-41.5 1407.81,-41.5 1407.81,-0.5 1276.81,-0.5"/>
<text text-anchor="start" x="1284.81" y="-29.5" font-family="FreeSans" font-size="10.00">/home/travis/build</text>
<text text-anchor="start" x="1284.81" y="-18.5" font-family="FreeSans" font-size="10.00">/OpenMW/openmw/apps</text>
<text text-anchor="middle" x="1342.31" y="-7.5" font-family="FreeSans" font-size="10.00">/opencs/editor.cpp</text>
</a>
</g>
</g>
<!-- Node20&#45;&gt;Node21 -->
<g id="edge28" class="edge"><title>Node20&#45;&gt;Node21</title>
<path fill="none" stroke="midnightblue" d="M1495.11,-75.0264C1464.28,-64.3275 1427.99,-51.7343 1398.51,-41.5056"/>
<polygon fill="midnightblue" stroke="midnightblue" points="1494.31,-78.4561 1504.91,-78.4281 1496.61,-71.843 1494.31,-78.4561"/>
</g>
<!-- Node22 -->
<g id="node22" class="node"><title>Node22</title>
<g id="a_node22"><a xlink:href="npcanimation_8cpp.html" target="_top" xlink:title="/home/travis/build\l/OpenMW/openmw/apps\l/openmw/mwrender/npcanimation.cpp">
<polygon fill="white" stroke="black" points="1426.31,-0.5 1426.31,-41.5 1626.31,-41.5 1626.31,-0.5 1426.31,-0.5"/>
<text text-anchor="start" x="1434.31" y="-29.5" font-family="FreeSans" font-size="10.00">/home/travis/build</text>
<text text-anchor="start" x="1434.31" y="-18.5" font-family="FreeSans" font-size="10.00">/OpenMW/openmw/apps</text>
<text text-anchor="middle" x="1526.31" y="-7.5" font-family="FreeSans" font-size="10.00">/openmw/mwrender/npcanimation.cpp</text>
</a>
</g>
</g>
<!-- Node20&#45;&gt;Node22 -->
<g id="edge30" class="edge"><title>Node20&#45;&gt;Node22</title>
<path fill="none" stroke="midnightblue" d="M1548.03,-69.1744C1543.78,-59.9317 1539.16,-49.9188 1535.29,-41.5056"/>
<polygon fill="midnightblue" stroke="midnightblue" points="1544.93,-70.8091 1552.29,-78.4281 1551.29,-67.8809 1544.93,-70.8091"/>
</g>
<!-- Node23 -->
<g id="node23" class="node"><title>Node23</title>
<g id="a_node23"><a xlink:href="cellpreloader_8cpp.html" target="_top" xlink:title="/home/travis/build\l/OpenMW/openmw/apps\l/openmw/mwworld/cellpreloader.cpp">
<polygon fill="white" stroke="black" points="1644.31,-0.5 1644.31,-41.5 1832.31,-41.5 1832.31,-0.5 1644.31,-0.5"/>
<text text-anchor="start" x="1652.31" y="-29.5" font-family="FreeSans" font-size="10.00">/home/travis/build</text>
<text text-anchor="start" x="1652.31" y="-18.5" font-family="FreeSans" font-size="10.00">/OpenMW/openmw/apps</text>
<text text-anchor="middle" x="1738.31" y="-7.5" font-family="FreeSans" font-size="10.00">/openmw/mwworld/cellpreloader.cpp</text>
</a>
</g>
</g>
<!-- Node20&#45;&gt;Node23 -->
<g id="edge31" class="edge"><title>Node20&#45;&gt;Node23</title>
<path fill="none" stroke="midnightblue" d="M1616.11,-74.4689C1640.74,-63.8921 1669.47,-51.5572 1692.88,-41.5056"/>
<polygon fill="midnightblue" stroke="midnightblue" points="1614.7,-71.2665 1606.89,-78.4281 1617.46,-77.6987 1614.7,-71.2665"/>
</g>
<!-- Node24 -->
<g id="node24" class="node"><title>Node24</title>
<g id="a_node24"><a xlink:href="keyframemanager_8cpp.html" target="_top" xlink:title="/home/travis/build\l/OpenMW/openmw/components\l/resource/keyframemanager.cpp">
<polygon fill="white" stroke="black" points="1850.81,-0.5 1850.81,-41.5 2023.81,-41.5 2023.81,-0.5 1850.81,-0.5"/>
<text text-anchor="start" x="1858.81" y="-29.5" font-family="FreeSans" font-size="10.00">/home/travis/build</text>
<text text-anchor="start" x="1858.81" y="-18.5" font-family="FreeSans" font-size="10.00">/OpenMW/openmw/components</text>
<text text-anchor="middle" x="1937.31" y="-7.5" font-family="FreeSans" font-size="10.00">/resource/keyframemanager.cpp</text>
</a>
</g>
</g>
<!-- Node20&#45;&gt;Node24 -->
<g id="edge33" class="edge"><title>Node20&#45;&gt;Node24</title>
<path fill="none" stroke="midnightblue" d="M1655.37,-77.8032C1738.89,-60.8988 1761.4,-58.0144 1841.31,-42 1844.39,-41.3811 1847.54,-40.7472 1850.71,-40.1037"/>
<polygon fill="midnightblue" stroke="midnightblue" points="1654.54,-74.4006 1645.44,-79.8217 1655.94,-81.2604 1654.54,-74.4006"/>
</g>
<!-- Node25 -->
<g id="node25" class="node"><title>Node25</title>
<g id="a_node25"><a xlink:href="scenemanager_8cpp.html" target="_top" xlink:title="/home/travis/build\l/OpenMW/openmw/components\l/resource/scenemanager.cpp">
<polygon fill="white" stroke="black" points="1090.31,-0.5 1090.31,-41.5 1258.31,-41.5 1258.31,-0.5 1090.31,-0.5"/>
<text text-anchor="start" x="1098.31" y="-29.5" font-family="FreeSans" font-size="10.00">/home/travis/build</text>
<text text-anchor="start" x="1098.31" y="-18.5" font-family="FreeSans" font-size="10.00">/OpenMW/openmw/components</text>
<text text-anchor="middle" x="1174.31" y="-7.5" font-family="FreeSans" font-size="10.00">/resource/scenemanager.cpp</text>
</a>
</g>
</g>
<!-- Node20&#45;&gt;Node25 -->
<g id="edge34" class="edge"><title>Node20&#45;&gt;Node25</title>
<path fill="none" stroke="midnightblue" d="M1467.61,-78.0603C1467.51,-78.0402 1467.41,-78.0201 1467.31,-78 1378.68,-60.6 1355.91,-59.497 1267.31,-42 1264.39,-41.4241 1261.42,-40.8303 1258.43,-40.224"/>
<polygon fill="midnightblue" stroke="midnightblue" points="1466.8,-81.466 1477.29,-79.9862 1468.16,-74.6008 1466.8,-81.466"/>
</g>
<!-- Node26&#45;&gt;Node10 -->
<g id="edge37" class="edge"><title>Node26&#45;&gt;Node10</title>
<path fill="none" stroke="midnightblue" d="M1281.05,-78.0775C1090.72,-50.6221 1039.42,-65.8257 853.307,-42 842.969,-40.6766 832.146,-39.0867 821.442,-37.389"/>
<polygon fill="midnightblue" stroke="midnightblue" points="1280.7,-81.564 1291.1,-79.5488 1281.71,-74.6378 1280.7,-81.564"/>
</g>
<!-- Node26&#45;&gt;Node13 -->
<g id="edge38" class="edge"><title>Node26&#45;&gt;Node13</title>
<path fill="none" stroke="midnightblue" d="M1281.08,-78.1237C813.856,-22.0683 688.629,-99.1395 226.307,-42 223.356,-41.6354 220.361,-41.2231 217.342,-40.7718"/>
<polygon fill="midnightblue" stroke="midnightblue" points="1280.78,-81.6126 1291.13,-79.3432 1281.62,-74.6636 1280.78,-81.6126"/>
</g>
<!-- Node27 -->
<g id="node27" class="node"><title>Node27</title>
<g id="a_node27"><a xlink:href="physicssystem_8cpp.html" target="_top" xlink:title="/home/travis/build\l/OpenMW/openmw/apps\l/openmw/mwphysics/physicssystem.cpp">
<polygon fill="white" stroke="black" points="862.807,-0.5 862.807,-41.5 1071.81,-41.5 1071.81,-0.5 862.807,-0.5"/>
<text text-anchor="start" x="870.807" y="-29.5" font-family="FreeSans" font-size="10.00">/home/travis/build</text>
<text text-anchor="start" x="870.807" y="-18.5" font-family="FreeSans" font-size="10.00">/OpenMW/openmw/apps</text>
<text text-anchor="middle" x="967.307" y="-7.5" font-family="FreeSans" font-size="10.00">/openmw/mwphysics/physicssystem.cpp</text>
</a>
</g>
</g>
<!-- Node26&#45;&gt;Node27 -->
<g id="edge36" class="edge"><title>Node26&#45;&gt;Node27</title>
<path fill="none" stroke="midnightblue" d="M1281.61,-78.0601C1281.51,-78.04 1281.41,-78.02 1281.31,-78 1260.79,-73.9893 1155.23,-55.2267 1072.09,-40.5102"/>
<polygon fill="midnightblue" stroke="midnightblue" points="1280.8,-81.4663 1291.29,-79.9795 1282.16,-74.6002 1280.8,-81.4663"/>
</g>
<!-- Node28&#45;&gt;Node4 -->
<g id="edge43" class="edge"><title>Node28&#45;&gt;Node4</title>
<path fill="none" stroke="midnightblue" d="M947.157,-234.676C945.866,-234.447 944.582,-234.221 943.307,-234 838.341,-215.769 716.739,-198.993 637.597,-188.65"/>
<polygon fill="midnightblue" stroke="midnightblue" points="946.706,-238.151 957.171,-236.497 947.958,-231.264 946.706,-238.151"/>
</g>
<!-- Node28&#45;&gt;Node5 -->
<g id="edge42" class="edge"><title>Node28&#45;&gt;Node5</title>
<path fill="none" stroke="midnightblue" d="M1053.05,-224.685C1059.25,-204.725 1063.96,-178.033 1055.31,-156 1049.78,-141.922 1038.86,-129.277 1028.45,-119.581"/>
<polygon fill="midnightblue" stroke="midnightblue" points="1049.73,-223.576 1049.84,-234.17 1056.36,-225.821 1049.73,-223.576"/>
</g>
<!-- Node28&#45;&gt;Node11 -->
<g id="edge44" class="edge"><title>Node28&#45;&gt;Node11</title>
<path fill="none" stroke="midnightblue" d="M1042.97,-224.111C1042.52,-202.532 1038.25,-174.116 1021.31,-156 1012.63,-146.73 953.834,-131.141 901.577,-118.761"/>
<polygon fill="midnightblue" stroke="midnightblue" points="1039.47,-224.362 1042.92,-234.38 1046.47,-224.398 1039.47,-224.362"/>
</g>
<!-- Node28&#45;&gt;Node15 -->
<g id="edge45" class="edge"><title>Node28&#45;&gt;Node15</title>
<path fill="none" stroke="midnightblue" d="M1135.7,-237.2C1209.96,-223.982 1312.5,-205.732 1384.02,-193.002"/>
<polygon fill="midnightblue" stroke="midnightblue" points="1134.65,-233.832 1125.41,-239.03 1135.87,-240.724 1134.65,-233.832"/>
</g>
<!-- Node29&#45;&gt;Node4 -->
<g id="edge47" class="edge"><title>Node29&#45;&gt;Node4</title>
<path fill="none" stroke="midnightblue" d="M764.749,-231.925C722.061,-221.038 671.025,-208.022 629.789,-197.506"/>
<polygon fill="midnightblue" stroke="midnightblue" points="764.009,-235.348 774.564,-234.428 765.739,-228.565 764.009,-235.348"/>
</g>
<!-- Node29&#45;&gt;Node11 -->
<g id="edge49" class="edge"><title>Node29&#45;&gt;Node11</title>
<path fill="none" stroke="midnightblue" d="M842.989,-224.498C840.699,-215.978 838.3,-206.646 836.307,-198 830.077,-170.98 824.212,-139.454 820.69,-119.609"/>
<polygon fill="midnightblue" stroke="midnightblue" points="839.679,-225.665 845.692,-234.388 846.431,-223.819 839.679,-225.665"/>
</g>
<!-- Node30 -->
<g id="node30" class="node"><title>Node30</title>
<g id="a_node30"><a xlink:href="extra_8cpp.html" target="_top" xlink:title="/home/travis/build\l/OpenMW/openmw/components\l/nif/extra.cpp">
<polygon fill="white" stroke="black" points="845.307,-156.5 845.307,-197.5 1013.31,-197.5 1013.31,-156.5 845.307,-156.5"/>
<text text-anchor="start" x="853.307" y="-185.5" font-family="FreeSans" font-size="10.00">/home/travis/build</text>
<text text-anchor="start" x="853.307" y="-174.5" font-family="FreeSans" font-size="10.00">/OpenMW/openmw/components</text>
<text text-anchor="middle" x="929.307" y="-163.5" font-family="FreeSans" font-size="10.00">/nif/extra.cpp</text>
</a>
</g>
</g>
<!-- Node29&#45;&gt;Node30 -->
<g id="edge48" class="edge"><title>Node29&#45;&gt;Node30</title>
<path fill="none" stroke="midnightblue" d="M878.808,-227.204C888.853,-217.416 900.017,-206.539 909.288,-197.506"/>
<polygon fill="midnightblue" stroke="midnightblue" points="876.113,-224.943 871.394,-234.428 880.998,-229.956 876.113,-224.943"/>
</g>
<!-- Node31&#45;&gt;Node4 -->
<g id="edge51" class="edge"><title>Node31&#45;&gt;Node4</title>
<path fill="none" stroke="midnightblue" d="M478.686,-228.635C493.642,-218.487 510.597,-206.982 524.562,-197.506"/>
<polygon fill="midnightblue" stroke="midnightblue" points="476.459,-225.917 470.149,-234.428 480.389,-231.709 476.459,-225.917"/>
</g>
<!-- Node31&#45;&gt;Node11 -->
<g id="edge53" class="edge"><title>Node31&#45;&gt;Node11</title>
<path fill="none" stroke="midnightblue" d="M347.13,-233.731C296.778,-221.943 243.613,-207.571 236.307,-198 224.979,-183.163 223.603,-169.677 236.307,-156 273.232,-116.244 669.592,-127.664 723.307,-120 726.527,-119.54 729.803,-119.035 733.106,-118.493"/>
<polygon fill="midnightblue" stroke="midnightblue" points="346.616,-237.204 357.148,-236.052 348.196,-230.385 346.616,-237.204"/>
</g>
<!-- Node31&#45;&gt;Node12 -->
<g id="edge52" class="edge"><title>Node31&#45;&gt;Node12</title>
<path fill="none" stroke="midnightblue" d="M347.193,-232.712C297.641,-221.504 237.381,-207.874 189.403,-197.022"/>
<polygon fill="midnightblue" stroke="midnightblue" points="346.428,-236.128 356.953,-234.92 347.972,-229.3 346.428,-236.128"/>
</g>
</g>
</svg>
