<?xml version="1.0" encoding="UTF-8" standalone="no"?>
<!DOCTYPE svg PUBLIC "-//W3C//DTD SVG 1.1//EN"
 "http://www.w3.org/Graphics/SVG/1.1/DTD/svg11.dtd">
<!-- Generated by graphviz version 2.36.0 (20140111.2315)
 -->
<!-- Title: /home/scrawl/Dev/openmw/apps/openmw/mwgui/bookpage.hpp Pages: 1 -->
<svg width="581pt" height="96pt"
 viewBox="0.00 0.00 581.00 96.00" xmlns="http://www.w3.org/2000/svg" xmlns:xlink="http://www.w3.org/1999/xlink">
<g id="graph0" class="graph" transform="scale(1 1) rotate(0) translate(4 92)">
<title>/home/scrawl/Dev/openmw/apps/openmw/mwgui/bookpage.hpp</title>
<polygon fill="white" stroke="none" points="-4,4 -4,-92 577,-92 577,4 -4,4"/>
<!-- Node1 -->
<g id="node1" class="node"><title>Node1</title>
<polygon fill="#bfbfbf" stroke="black" points="189.5,-57 189.5,-87 362.5,-87 362.5,-57 189.5,-57"/>
<text text-anchor="start" x="197.5" y="-75" font-family="FreeSans" font-size="10.00">/home/scrawl/Dev/openmw</text>
<text text-anchor="middle" x="276" y="-64" font-family="FreeSans" font-size="10.00">/apps/openmw/mwgui/bookpage.hpp</text>
</g>
<!-- Node2 -->
<g id="node2" class="node"><title>Node2</title>
<polygon fill="white" stroke="#bfbfbf" points="-0.5,-0.5 -0.5,-19.5 86.5,-19.5 86.5,-0.5 -0.5,-0.5"/>
<text text-anchor="middle" x="43" y="-7.5" font-family="FreeSans" font-size="10.00">MyGUI_Colour.h</text>
</g>
<!-- Node1&#45;&gt;Node2 -->
<g id="edge1" class="edge"><title>Node1&#45;&gt;Node2</title>
<path fill="none" stroke="midnightblue" d="M221.372,-56.9327C180.008,-46.2811 123.985,-31.8545 85.834,-22.0302"/>
<polygon fill="midnightblue" stroke="midnightblue" points="86.6145,-18.6171 76.0576,-19.5127 84.8689,-25.3959 86.6145,-18.6171"/>
</g>
<!-- Node3 -->
<g id="node3" class="node"><title>Node3</title>
<polygon fill="white" stroke="#bfbfbf" points="104.5,-0.5 104.5,-19.5 193.5,-19.5 193.5,-0.5 104.5,-0.5"/>
<text text-anchor="middle" x="149" y="-7.5" font-family="FreeSans" font-size="10.00">MyGUI_Widget.h</text>
</g>
<!-- Node1&#45;&gt;Node3 -->
<g id="edge2" class="edge"><title>Node1&#45;&gt;Node3</title>
<path fill="none" stroke="midnightblue" d="M246.224,-56.9327C225.085,-46.9455 196.921,-33.6397 176.348,-23.9205"/>
<polygon fill="midnightblue" stroke="midnightblue" points="177.74,-20.7072 167.203,-19.6 174.75,-27.0364 177.74,-20.7072"/>
</g>
<!-- Node4 -->
<g id="node4" class="node"><title>Node4</title>
<polygon fill="white" stroke="#bfbfbf" points="211.5,-0.5 211.5,-19.5 270.5,-19.5 270.5,-0.5 211.5,-0.5"/>
<text text-anchor="middle" x="241" y="-7.5" font-family="FreeSans" font-size="10.00">functional</text>
</g>
<!-- Node1&#45;&gt;Node4 -->
<g id="edge3" class="edge"><title>Node1&#45;&gt;Node4</title>
<path fill="none" stroke="midnightblue" d="M267.705,-56.7808C262.777,-48.3318 256.486,-37.5481 251.249,-28.5693"/>
<polygon fill="midnightblue" stroke="midnightblue" points="254.155,-26.6048 246.093,-19.7305 248.108,-30.1319 254.155,-26.6048"/>
</g>
<!-- Node5 -->
<g id="node5" class="node"><title>Node5</title>
<polygon fill="white" stroke="#bfbfbf" points="288.5,-0.5 288.5,-19.5 335.5,-19.5 335.5,-0.5 288.5,-0.5"/>
<text text-anchor="middle" x="312" y="-7.5" font-family="FreeSans" font-size="10.00">stdint.h</text>
</g>
<!-- Node1&#45;&gt;Node5 -->
<g id="edge4" class="edge"><title>Node1&#45;&gt;Node5</title>
<path fill="none" stroke="midnightblue" d="M284.531,-56.7808C289.601,-48.3318 296.071,-37.5481 301.458,-28.5693"/>
<polygon fill="midnightblue" stroke="midnightblue" points="304.618,-30.1062 306.762,-19.7305 298.615,-26.5047 304.618,-30.1062"/>
</g>
<!-- Node6 -->
<g id="node6" class="node"><title>Node6</title>
<polygon fill="white" stroke="#bfbfbf" points="353.5,-0.5 353.5,-19.5 448.5,-19.5 448.5,-0.5 353.5,-0.5"/>
<text text-anchor="middle" x="401" y="-7.5" font-family="FreeSans" font-size="10.00">boost/function.hpp</text>
</g>
<!-- Node1&#45;&gt;Node6 -->
<g id="edge5" class="edge"><title>Node1&#45;&gt;Node6</title>
<path fill="none" stroke="midnightblue" d="M305.307,-56.9327C326.019,-46.9907 353.583,-33.7601 373.807,-24.0526"/>
<polygon fill="midnightblue" stroke="midnightblue" points="375.583,-27.0827 383.083,-19.6 372.553,-20.7721 375.583,-27.0827"/>
</g>
<!-- Node7 -->
<g id="node7" class="node"><title>Node7</title>
<polygon fill="white" stroke="#bfbfbf" points="467,-0.5 467,-19.5 573,-19.5 573,-0.5 467,-0.5"/>
<text text-anchor="middle" x="520" y="-7.5" font-family="FreeSans" font-size="10.00">boost/shared_ptr.hpp</text>
</g>
<!-- Node1&#45;&gt;Node7 -->
<g id="edge6" class="edge"><title>Node1&#45;&gt;Node7</title>
<path fill="none" stroke="midnightblue" d="M333.207,-56.9327C376.708,-46.2358 435.691,-31.7317 475.653,-21.905"/>
<polygon fill="midnightblue" stroke="midnightblue" points="476.507,-25.2994 485.382,-19.5127 474.835,-18.5019 476.507,-25.2994"/>
</g>
</g>
</svg>
