<?xml version="1.0" encoding="UTF-8" standalone="no"?>
<!DOCTYPE svg PUBLIC "-//W3C//DTD SVG 1.1//EN"
 "http://www.w3.org/Graphics/SVG/1.1/DTD/svg11.dtd">
<!-- Generated by graphviz version 2.36.0 (20140111.2315)
 -->
<!-- Title: /home/travis/build/OpenMW/openmw/components/nifbullet/bulletnifloader.hpp Pages: 1 -->
<svg width="604pt" height="128pt"
 viewBox="0.00 0.00 604.00 128.00" xmlns="http://www.w3.org/2000/svg" xmlns:xlink="http://www.w3.org/1999/xlink">
<g id="graph0" class="graph" transform="scale(1 1) rotate(0) translate(4 124)">
<title>/home/travis/build/OpenMW/openmw/components/nifbullet/bulletnifloader.hpp</title>
<polygon fill="white" stroke="none" points="-4,4 -4,-124 600,-124 600,4 -4,4"/>
<!-- Node1 -->
<g id="node1" class="node"><title>Node1</title>
<polygon fill="#bfbfbf" stroke="black" points="227,-78.5 227,-119.5 395,-119.5 395,-78.5 227,-78.5"/>
<text text-anchor="start" x="235" y="-107.5" font-family="FreeSans" font-size="10.00">/home/travis/build</text>
<text text-anchor="start" x="235" y="-96.5" font-family="FreeSans" font-size="10.00">/OpenMW/openmw/components</text>
<text text-anchor="middle" x="311" y="-85.5" font-family="FreeSans" font-size="10.00">/nifbullet/bulletnifloader.hpp</text>
</g>
<!-- Node2 -->
<g id="node2" class="node"><title>Node2</title>
<g id="a_node2"><a xlink:href="physicssystem_8cpp.html" target="_top" xlink:title="/home/travis/build\l/OpenMW/openmw/apps\l/openmw/mwphysics/physicssystem.cpp">
<polygon fill="white" stroke="black" points="-0.5,-0.5 -0.5,-41.5 208.5,-41.5 208.5,-0.5 -0.5,-0.5"/>
<text text-anchor="start" x="7.5" y="-29.5" font-family="FreeSans" font-size="10.00">/home/travis/build</text>
<text text-anchor="start" x="7.5" y="-18.5" font-family="FreeSans" font-size="10.00">/OpenMW/openmw/apps</text>
<text text-anchor="middle" x="104" y="-7.5" font-family="FreeSans" font-size="10.00">/openmw/mwphysics/physicssystem.cpp</text>
</a>
</g>
</g>
<!-- Node1&#45;&gt;Node2 -->
<g id="edge1" class="edge"><title>Node1&#45;&gt;Node2</title>
<path fill="none" stroke="midnightblue" d="M248.048,-74.8874C218.99,-64.2185 184.866,-51.6901 157.127,-41.5056"/>
<polygon fill="midnightblue" stroke="midnightblue" points="247.099,-78.2671 257.692,-78.4281 249.511,-71.6959 247.099,-78.2671"/>
</g>
<!-- Node3 -->
<g id="node3" class="node"><title>Node3</title>
<g id="a_node3"><a xlink:href="bulletnifloader_8cpp.html" target="_top" xlink:title="/home/travis/build\l/OpenMW/openmw/components\l/nifbullet/bulletnifloader.cpp">
<polygon fill="white" stroke="black" points="227,-0.5 227,-41.5 395,-41.5 395,-0.5 227,-0.5"/>
<text text-anchor="start" x="235" y="-29.5" font-family="FreeSans" font-size="10.00">/home/travis/build</text>
<text text-anchor="start" x="235" y="-18.5" font-family="FreeSans" font-size="10.00">/OpenMW/openmw/components</text>
<text text-anchor="middle" x="311" y="-7.5" font-family="FreeSans" font-size="10.00">/nifbullet/bulletnifloader.cpp</text>
</a>
</g>
</g>
<!-- Node1&#45;&gt;Node3 -->
<g id="edge2" class="edge"><title>Node1&#45;&gt;Node3</title>
<path fill="none" stroke="midnightblue" d="M311,-68.2965C311,-59.3009 311,-49.6532 311,-41.5056"/>
<polygon fill="midnightblue" stroke="midnightblue" points="307.5,-68.4281 311,-78.4281 314.5,-68.4281 307.5,-68.4281"/>
</g>
<!-- Node4 -->
<g id="node4" class="node"><title>Node4</title>
<g id="a_node4"><a xlink:href="bulletshapemanager_8cpp.html" target="_top" xlink:title="/home/travis/build\l/OpenMW/openmw/components\l/resource/bulletshapemanager.cpp">
<polygon fill="white" stroke="black" points="413.5,-0.5 413.5,-41.5 596.5,-41.5 596.5,-0.5 413.5,-0.5"/>
<text text-anchor="start" x="421.5" y="-29.5" font-family="FreeSans" font-size="10.00">/home/travis/build</text>
<text text-anchor="start" x="421.5" y="-18.5" font-family="FreeSans" font-size="10.00">/OpenMW/openmw/components</text>
<text text-anchor="middle" x="505" y="-7.5" font-family="FreeSans" font-size="10.00">/resource/bulletshapemanager.cpp</text>
</a>
</g>
</g>
<!-- Node1&#45;&gt;Node4 -->
<g id="edge3" class="edge"><title>Node1&#45;&gt;Node4</title>
<path fill="none" stroke="midnightblue" d="M370.354,-74.7481C397.51,-64.1096 429.325,-51.6458 455.209,-41.5056"/>
<polygon fill="midnightblue" stroke="midnightblue" points="368.994,-71.5216 360.96,-78.4281 371.548,-78.0393 368.994,-71.5216"/>
</g>
</g>
</svg>
