<?xml version="1.0" encoding="UTF-8" standalone="no"?>
<!DOCTYPE svg PUBLIC "-//W3C//DTD SVG 1.1//EN"
 "http://www.w3.org/Graphics/SVG/1.1/DTD/svg11.dtd">
<!-- Generated by graphviz version 2.36.0 (20140111.2315)
 -->
<!-- Title: /home/scrawl/Dev/openmw/components/esm/cellstate.cpp Pages: 1 -->
<svg width="1109pt" height="276pt"
 viewBox="0.00 0.00 1109.00 276.00" xmlns="http://www.w3.org/2000/svg" xmlns:xlink="http://www.w3.org/1999/xlink">
<g id="graph0" class="graph" transform="scale(1 1) rotate(0) translate(4 272)">
<title>/home/scrawl/Dev/openmw/components/esm/cellstate.cpp</title>
<polygon fill="white" stroke="none" points="-4,4 -4,-272 1105,-272 1105,4 -4,4"/>
<!-- Node1 -->
<g id="node1" class="node"><title>Node1</title>
<polygon fill="#bfbfbf" stroke="black" points="552,-237 552,-267 702,-267 702,-237 552,-237"/>
<text text-anchor="start" x="560" y="-255" font-family="FreeSans" font-size="10.00">/home/scrawl/Dev/openmw</text>
<text text-anchor="middle" x="627" y="-244" font-family="FreeSans" font-size="10.00">/components/esm/cellstate.cpp</text>
</g>
<!-- Node2 -->
<g id="node2" class="node"><title>Node2</title>
<g id="a_node2"><a xlink:href="cellstate_8hpp.html" target="_top" xlink:title="cellstate.hpp">
<polygon fill="white" stroke="black" points="-0.5,-118.5 -0.5,-137.5 70.5,-137.5 70.5,-118.5 -0.5,-118.5"/>
<text text-anchor="middle" x="35" y="-125.5" font-family="FreeSans" font-size="10.00">cellstate.hpp</text>
</a>
</g>
</g>
<!-- Node1&#45;&gt;Node2 -->
<g id="edge1" class="edge"><title>Node1&#45;&gt;Node2</title>
<path fill="none" stroke="midnightblue" d="M551.976,-238.551C446.902,-220.581 250.237,-184.994 85,-144 80.6267,-142.915 76.0661,-141.686 71.556,-140.409"/>
<polygon fill="midnightblue" stroke="midnightblue" points="72.4357,-137.02 61.8555,-137.576 70.4734,-143.739 72.4357,-137.02"/>
</g>
<!-- Node8 -->
<g id="node8" class="node"><title>Node8</title>
<g id="a_node8"><a xlink:href="esmreader_8hpp.html" target="_top" xlink:title="esmreader.hpp">
<polygon fill="white" stroke="black" points="587,-180.5 587,-199.5 667,-199.5 667,-180.5 587,-180.5"/>
<text text-anchor="middle" x="627" y="-187.5" font-family="FreeSans" font-size="10.00">esmreader.hpp</text>
</a>
</g>
</g>
<!-- Node1&#45;&gt;Node8 -->
<g id="edge7" class="edge"><title>Node1&#45;&gt;Node8</title>
<path fill="none" stroke="midnightblue" d="M627,-236.781C627,-228.781 627,-218.689 627,-210.017"/>
<polygon fill="midnightblue" stroke="midnightblue" points="630.5,-209.73 627,-199.731 623.5,-209.731 630.5,-209.73"/>
</g>
<!-- Node23 -->
<g id="node23" class="node"><title>Node23</title>
<g id="a_node23"><a xlink:href="esmwriter_8hpp.html" target="_top" xlink:title="esmwriter.hpp">
<polygon fill="white" stroke="black" points="945,-180.5 945,-199.5 1021,-199.5 1021,-180.5 945,-180.5"/>
<text text-anchor="middle" x="983" y="-187.5" font-family="FreeSans" font-size="10.00">esmwriter.hpp</text>
</a>
</g>
</g>
<!-- Node1&#45;&gt;Node23 -->
<g id="edge32" class="edge"><title>Node1&#45;&gt;Node23</title>
<path fill="none" stroke="midnightblue" d="M702.063,-238.349C772.257,-226.518 874.991,-209.204 934.823,-199.12"/>
<polygon fill="midnightblue" stroke="midnightblue" points="935.483,-202.558 944.762,-197.445 934.319,-195.655 935.483,-202.558"/>
</g>
<!-- Node3 -->
<g id="node3" class="node"><title>Node3</title>
<g id="a_node3"><a xlink:href="cellid_8hpp.html" target="_top" xlink:title="cellid.hpp">
<polygon fill="white" stroke="black" points="153.5,-56.5 153.5,-75.5 210.5,-75.5 210.5,-56.5 153.5,-56.5"/>
<text text-anchor="middle" x="182" y="-63.5" font-family="FreeSans" font-size="10.00">cellid.hpp</text>
</a>
</g>
</g>
<!-- Node2&#45;&gt;Node3 -->
<g id="edge2" class="edge"><title>Node2&#45;&gt;Node3</title>
<path fill="none" stroke="midnightblue" d="M56.0615,-118.403C81.0589,-108.2 122.942,-91.1055 151.487,-79.4544"/>
<polygon fill="midnightblue" stroke="midnightblue" points="153.042,-82.6001 160.978,-75.5806 150.396,-76.1192 153.042,-82.6001"/>
</g>
<!-- Node5 -->
<g id="node5" class="node"><title>Node5</title>
<g id="a_node5"><a xlink:href="esm_2defs_8hpp.html" target="_top" xlink:title="defs.hpp">
<polygon fill="white" stroke="black" points="8.5,-56.5 8.5,-75.5 61.5,-75.5 61.5,-56.5 8.5,-56.5"/>
<text text-anchor="middle" x="35" y="-63.5" font-family="FreeSans" font-size="10.00">defs.hpp</text>
</a>
</g>
</g>
<!-- Node2&#45;&gt;Node5 -->
<g id="edge4" class="edge"><title>Node2&#45;&gt;Node5</title>
<path fill="none" stroke="midnightblue" d="M35,-118.403C35,-109.938 35,-96.7283 35,-85.8199"/>
<polygon fill="midnightblue" stroke="midnightblue" points="38.5001,-85.5806 35,-75.5806 31.5001,-85.5806 38.5001,-85.5806"/>
</g>
<!-- Node4 -->
<g id="node4" class="node"><title>Node4</title>
<polygon fill="white" stroke="#bfbfbf" points="621,-0.5 621,-19.5 661,-19.5 661,-0.5 621,-0.5"/>
<text text-anchor="middle" x="641" y="-7.5" font-family="FreeSans" font-size="10.00">string</text>
</g>
<!-- Node3&#45;&gt;Node4 -->
<g id="edge3" class="edge"><title>Node3&#45;&gt;Node4</title>
<path fill="none" stroke="midnightblue" d="M210.652,-60.8071C221.691,-59.2346 234.424,-57.4731 246,-56 381.876,-38.7095 544.46,-21.184 610.691,-14.1784"/>
<polygon fill="midnightblue" stroke="midnightblue" points="611.258,-17.6381 620.835,-13.108 610.523,-10.6768 611.258,-17.6381"/>
</g>
<!-- Node6 -->
<g id="node6" class="node"><title>Node6</title>
<polygon fill="white" stroke="#bfbfbf" points="79.5,-0.5 79.5,-19.5 126.5,-19.5 126.5,-0.5 79.5,-0.5"/>
<text text-anchor="middle" x="103" y="-7.5" font-family="FreeSans" font-size="10.00">stdint.h</text>
</g>
<!-- Node5&#45;&gt;Node6 -->
<g id="edge5" class="edge"><title>Node5&#45;&gt;Node6</title>
<path fill="none" stroke="midnightblue" d="M45.9254,-56.324C56.1746,-48.1849 71.7206,-35.8395 84.001,-26.0874"/>
<polygon fill="midnightblue" stroke="midnightblue" points="86.2213,-28.7937 91.8758,-19.8339 81.8681,-23.3119 86.2213,-28.7937"/>
</g>
<!-- Node7 -->
<g id="node7" class="node"><title>Node7</title>
<polygon fill="white" stroke="#bfbfbf" points="2.5,-0.5 2.5,-19.5 61.5,-19.5 61.5,-0.5 2.5,-0.5"/>
<text text-anchor="middle" x="32" y="-7.5" font-family="FreeSans" font-size="10.00">osg/Vec3f</text>
</g>
<!-- Node5&#45;&gt;Node7 -->
<g id="edge6" class="edge"><title>Node5&#45;&gt;Node7</title>
<path fill="none" stroke="midnightblue" d="M34.5046,-56.083C34.1114,-49.0059 33.5478,-38.8611 33.0548,-29.9865"/>
<polygon fill="midnightblue" stroke="midnightblue" points="36.5356,-29.5415 32.4862,-19.7511 29.5464,-29.9299 36.5356,-29.5415"/>
</g>
<!-- Node8&#45;&gt;Node6 -->
<g id="edge8" class="edge"><title>Node8&#45;&gt;Node6</title>
<path fill="none" stroke="midnightblue" d="M586.831,-188.315C472.49,-185.973 151.328,-176.533 118,-144 87.4672,-114.195 93.0184,-58.7192 98.5976,-29.7337"/>
<polygon fill="midnightblue" stroke="midnightblue" points="102.072,-30.2235 100.737,-19.7132 95.226,-28.7622 102.072,-30.2235"/>
</g>
<!-- Node9 -->
<g id="node9" class="node"><title>Node9</title>
<polygon fill="white" stroke="#bfbfbf" points="876.5,-0.5 876.5,-19.5 923.5,-19.5 923.5,-0.5 876.5,-0.5"/>
<text text-anchor="middle" x="900" y="-7.5" font-family="FreeSans" font-size="10.00">string.h</text>
</g>
<!-- Node8&#45;&gt;Node9 -->
<g id="edge9" class="edge"><title>Node8&#45;&gt;Node9</title>
<path fill="none" stroke="midnightblue" d="M667.133,-189.111C740.601,-188.367 892.198,-182.127 925,-144 953.373,-111.021 927.621,-56.1671 911.199,-28.3372"/>
<polygon fill="midnightblue" stroke="midnightblue" points="914.106,-26.3822 905.883,-19.7005 908.144,-30.0513 914.106,-26.3822"/>
</g>
<!-- Node10 -->
<g id="node10" class="node"><title>Node10</title>
<polygon fill="white" stroke="#bfbfbf" points="127.5,-118.5 127.5,-137.5 174.5,-137.5 174.5,-118.5 127.5,-118.5"/>
<text text-anchor="middle" x="151" y="-125.5" font-family="FreeSans" font-size="10.00">cassert</text>
</g>
<!-- Node8&#45;&gt;Node10 -->
<g id="edge10" class="edge"><title>Node8&#45;&gt;Node10</title>
<path fill="none" stroke="midnightblue" d="M586.806,-189.243C508.07,-188.779 328.593,-183.074 184,-144 181.502,-143.325 178.954,-142.479 176.438,-141.536"/>
<polygon fill="midnightblue" stroke="midnightblue" points="177.632,-138.241 167.059,-137.564 174.902,-144.687 177.632,-138.241"/>
</g>
<!-- Node11 -->
<g id="node11" class="node"><title>Node11</title>
<polygon fill="white" stroke="#bfbfbf" points="749.5,-56.5 749.5,-75.5 792.5,-75.5 792.5,-56.5 749.5,-56.5"/>
<text text-anchor="middle" x="771" y="-63.5" font-family="FreeSans" font-size="10.00">vector</text>
</g>
<!-- Node8&#45;&gt;Node11 -->
<g id="edge11" class="edge"><title>Node8&#45;&gt;Node11</title>
<path fill="none" stroke="midnightblue" d="M667.197,-186.121C697.076,-181.753 736.426,-170.887 759,-144 772.43,-128.004 774.026,-103.3 773.177,-86.2066"/>
<polygon fill="midnightblue" stroke="midnightblue" points="776.628,-85.4662 772.314,-75.7893 769.652,-86.0442 776.628,-85.4662"/>
</g>
<!-- Node12 -->
<g id="node12" class="node"><title>Node12</title>
<polygon fill="white" stroke="#bfbfbf" points="193,-118.5 193,-137.5 243,-137.5 243,-118.5 193,-118.5"/>
<text text-anchor="middle" x="218" y="-125.5" font-family="FreeSans" font-size="10.00">sstream</text>
</g>
<!-- Node8&#45;&gt;Node12 -->
<g id="edge12" class="edge"><title>Node8&#45;&gt;Node12</title>
<path fill="none" stroke="midnightblue" d="M586.846,-188.058C517.401,-185.577 370.891,-176.579 252,-144 249.496,-143.314 246.938,-142.472 244.406,-141.542"/>
<polygon fill="midnightblue" stroke="midnightblue" points="245.515,-138.213 234.935,-137.649 242.854,-144.688 245.515,-138.213"/>
</g>
<!-- Node13 -->
<g id="node13" class="node"><title>Node13</title>
<g id="a_node13"><a xlink:href="constrainedfilestream_8hpp.html" target="_top" xlink:title="components/files/constrainedfilestream.hpp">
<polygon fill="white" stroke="black" points="261,-118.5 261,-137.5 461,-137.5 461,-118.5 261,-118.5"/>
<text text-anchor="middle" x="361" y="-125.5" font-family="FreeSans" font-size="10.00">components/files/constrainedfilestream.hpp</text>
</a>
</g>
</g>
<!-- Node8&#45;&gt;Node13 -->
<g id="edge13" class="edge"><title>Node8&#45;&gt;Node13</title>
<path fill="none" stroke="midnightblue" d="M589.171,-180.467C541.704,-169.76 460.272,-151.392 408.614,-139.74"/>
<polygon fill="midnightblue" stroke="midnightblue" points="409.223,-136.29 398.698,-137.503 407.683,-143.118 409.223,-136.29"/>
</g>
<!-- Node16 -->
<g id="node16" class="node"><title>Node16</title>
<g id="a_node16"><a xlink:href="stringops_8hpp.html" target="_top" xlink:title="components/misc/stringops.hpp">
<polygon fill="white" stroke="black" points="479,-118.5 479,-137.5 631,-137.5 631,-118.5 479,-118.5"/>
<text text-anchor="middle" x="555" y="-125.5" font-family="FreeSans" font-size="10.00">components/misc/stringops.hpp</text>
</a>
</g>
</g>
<!-- Node8&#45;&gt;Node16 -->
<g id="edge16" class="edge"><title>Node8&#45;&gt;Node16</title>
<path fill="none" stroke="midnightblue" d="M616.684,-180.403C605.349,-170.958 586.927,-155.606 573.161,-144.134"/>
<polygon fill="midnightblue" stroke="midnightblue" points="575.22,-141.294 565.297,-137.581 570.738,-146.671 575.22,-141.294"/>
</g>
<!-- Node19 -->
<g id="node19" class="node"><title>Node19</title>
<g id="a_node19"><a xlink:href="to__utf8_8hpp.html" target="_top" xlink:title="components/to_utf8\l/to_utf8.hpp">
<polygon fill="white" stroke="black" points="649,-113 649,-143 751,-143 751,-113 649,-113"/>
<text text-anchor="start" x="657" y="-131" font-family="FreeSans" font-size="10.00">components/to_utf8</text>
<text text-anchor="middle" x="700" y="-120" font-family="FreeSans" font-size="10.00">/to_utf8.hpp</text>
</a>
</g>
</g>
<!-- Node8&#45;&gt;Node19 -->
<g id="edge20" class="edge"><title>Node8&#45;&gt;Node19</title>
<path fill="none" stroke="midnightblue" d="M637.459,-180.403C647.161,-172.429 661.985,-160.245 674.766,-149.74"/>
<polygon fill="midnightblue" stroke="midnightblue" points="677.292,-152.194 682.795,-143.141 672.848,-146.787 677.292,-152.194"/>
</g>
<!-- Node21 -->
<g id="node21" class="node"><title>Node21</title>
<g id="a_node21"><a xlink:href="esmcommon_8hpp.html" target="_top" xlink:title="esmcommon.hpp">
<polygon fill="white" stroke="black" points="811,-56.5 811,-75.5 901,-75.5 901,-56.5 811,-56.5"/>
<text text-anchor="middle" x="856" y="-63.5" font-family="FreeSans" font-size="10.00">esmcommon.hpp</text>
</a>
</g>
</g>
<!-- Node8&#45;&gt;Node21 -->
<g id="edge24" class="edge"><title>Node8&#45;&gt;Node21</title>
<path fill="none" stroke="midnightblue" d="M667.266,-182.898C699.498,-176.707 744.951,-164.962 780,-144 806.356,-128.237 830.047,-101.201 843.726,-83.7203"/>
<polygon fill="midnightblue" stroke="midnightblue" points="846.663,-85.6399 849.928,-75.5606 841.091,-81.404 846.663,-85.6399"/>
</g>
<!-- Node22 -->
<g id="node22" class="node"><title>Node22</title>
<g id="a_node22"><a xlink:href="loadtes3_8hpp.html" target="_top" xlink:title="loadtes3.hpp">
<polygon fill="white" stroke="black" points="845.5,-118.5 845.5,-137.5 916.5,-137.5 916.5,-118.5 845.5,-118.5"/>
<text text-anchor="middle" x="881" y="-125.5" font-family="FreeSans" font-size="10.00">loadtes3.hpp</text>
</a>
</g>
</g>
<!-- Node8&#45;&gt;Node22 -->
<g id="edge29" class="edge"><title>Node8&#45;&gt;Node22</title>
<path fill="none" stroke="midnightblue" d="M667.081,-181.077C708.369,-172.7 774.486,-158.689 831,-144 835.194,-142.91 839.565,-141.704 843.901,-140.463"/>
<polygon fill="midnightblue" stroke="midnightblue" points="845.245,-143.716 853.856,-137.543 843.275,-136.999 845.245,-143.716"/>
</g>
<!-- Node14 -->
<g id="node14" class="node"><title>Node14</title>
<polygon fill="white" stroke="#bfbfbf" points="255,-56.5 255,-75.5 303,-75.5 303,-56.5 255,-56.5"/>
<text text-anchor="middle" x="279" y="-63.5" font-family="FreeSans" font-size="10.00">istream</text>
</g>
<!-- Node13&#45;&gt;Node14 -->
<g id="edge14" class="edge"><title>Node13&#45;&gt;Node14</title>
<path fill="none" stroke="midnightblue" d="M349.251,-118.403C336.099,-108.78 314.566,-93.0242 298.802,-81.4891"/>
<polygon fill="midnightblue" stroke="midnightblue" points="300.864,-78.6611 290.727,-75.5806 296.73,-84.3103 300.864,-78.6611"/>
</g>
<!-- Node15 -->
<g id="node15" class="node"><title>Node15</title>
<polygon fill="white" stroke="#bfbfbf" points="321,-56.5 321,-75.5 427,-75.5 427,-56.5 321,-56.5"/>
<text text-anchor="middle" x="374" y="-63.5" font-family="FreeSans" font-size="10.00">boost/shared_ptr.hpp</text>
</g>
<!-- Node13&#45;&gt;Node15 -->
<g id="edge15" class="edge"><title>Node13&#45;&gt;Node15</title>
<path fill="none" stroke="midnightblue" d="M362.863,-118.403C364.716,-109.849 367.619,-96.4497 369.997,-85.4762"/>
<polygon fill="midnightblue" stroke="midnightblue" points="373.444,-86.095 372.141,-75.5806 366.603,-84.6127 373.444,-86.095"/>
</g>
<!-- Node16&#45;&gt;Node4 -->
<g id="edge18" class="edge"><title>Node16&#45;&gt;Node4</title>
<path fill="none" stroke="midnightblue" d="M561.464,-118.281C575.728,-99.0412 610.102,-52.6766 628.646,-27.6641"/>
<polygon fill="midnightblue" stroke="midnightblue" points="631.551,-29.6224 634.695,-19.5048 625.928,-25.4534 631.551,-29.6224"/>
</g>
<!-- Node17 -->
<g id="node17" class="node"><title>Node17</title>
<polygon fill="white" stroke="#bfbfbf" points="538.5,-56.5 538.5,-75.5 583.5,-75.5 583.5,-56.5 538.5,-56.5"/>
<text text-anchor="middle" x="561" y="-63.5" font-family="FreeSans" font-size="10.00">cctype</text>
</g>
<!-- Node16&#45;&gt;Node17 -->
<g id="edge17" class="edge"><title>Node16&#45;&gt;Node17</title>
<path fill="none" stroke="midnightblue" d="M555.86,-118.403C556.706,-109.938 558.027,-96.7283 559.118,-85.8199"/>
<polygon fill="midnightblue" stroke="midnightblue" points="562.629,-85.8793 560.142,-75.5806 555.664,-85.1827 562.629,-85.8793"/>
</g>
<!-- Node18 -->
<g id="node18" class="node"><title>Node18</title>
<polygon fill="white" stroke="#bfbfbf" points="464,-56.5 464,-75.5 520,-75.5 520,-56.5 464,-56.5"/>
<text text-anchor="middle" x="492" y="-63.5" font-family="FreeSans" font-size="10.00">algorithm</text>
</g>
<!-- Node16&#45;&gt;Node18 -->
<g id="edge19" class="edge"><title>Node16&#45;&gt;Node18</title>
<path fill="none" stroke="midnightblue" d="M545.974,-118.403C536.243,-109.136 520.542,-94.1828 508.577,-82.7876"/>
<polygon fill="midnightblue" stroke="midnightblue" points="510.665,-79.9427 501.01,-75.5806 505.837,-85.0117 510.665,-79.9427"/>
</g>
<!-- Node19&#45;&gt;Node4 -->
<g id="edge21" class="edge"><title>Node19&#45;&gt;Node4</title>
<path fill="none" stroke="midnightblue" d="M692.765,-112.776C681.99,-91.5907 661.739,-51.7757 650.015,-28.7245"/>
<polygon fill="midnightblue" stroke="midnightblue" points="653.082,-27.0336 645.429,-19.707 646.842,-30.2071 653.082,-27.0336"/>
</g>
<!-- Node19&#45;&gt;Node11 -->
<g id="edge23" class="edge"><title>Node19&#45;&gt;Node11</title>
<path fill="none" stroke="midnightblue" d="M716.826,-112.781C727.675,-103.613 741.777,-91.6957 752.873,-82.3186"/>
<polygon fill="midnightblue" stroke="midnightblue" points="755.29,-84.8585 760.669,-75.7305 750.772,-79.5119 755.29,-84.8585"/>
</g>
<!-- Node20 -->
<g id="node20" class="node"><title>Node20</title>
<polygon fill="white" stroke="#bfbfbf" points="748.5,-0.5 748.5,-19.5 793.5,-19.5 793.5,-0.5 748.5,-0.5"/>
<text text-anchor="middle" x="771" y="-7.5" font-family="FreeSans" font-size="10.00">cstring</text>
</g>
<!-- Node19&#45;&gt;Node20 -->
<g id="edge22" class="edge"><title>Node19&#45;&gt;Node20</title>
<path fill="none" stroke="midnightblue" d="M707.453,-112.907C715.226,-98.4222 727.936,-75.3214 740,-56 745.904,-46.5446 752.919,-36.289 758.781,-27.9596"/>
<polygon fill="midnightblue" stroke="midnightblue" points="761.637,-29.9834 764.583,-19.8065 755.933,-25.9248 761.637,-29.9834"/>
</g>
<!-- Node21&#45;&gt;Node4 -->
<g id="edge25" class="edge"><title>Node21&#45;&gt;Node4</title>
<path fill="none" stroke="midnightblue" d="M821.933,-56.4435C780.303,-45.9877 710.53,-28.4634 670.895,-18.5085"/>
<polygon fill="midnightblue" stroke="midnightblue" points="671.584,-15.073 661.033,-16.0315 669.879,-21.8621 671.584,-15.073"/>
</g>
<!-- Node21&#45;&gt;Node6 -->
<g id="edge27" class="edge"><title>Node21&#45;&gt;Node6</title>
<path fill="none" stroke="midnightblue" d="M810.728,-57.2318C807.441,-56.7784 804.172,-56.361 801,-56 546.64,-27.0597 237.855,-15.2671 136.782,-12.006"/>
<polygon fill="midnightblue" stroke="midnightblue" points="136.68,-8.50105 126.574,-11.683 136.458,-15.4975 136.68,-8.50105"/>
</g>
<!-- Node21&#45;&gt;Node9 -->
<g id="edge28" class="edge"><title>Node21&#45;&gt;Node9</title>
<path fill="none" stroke="midnightblue" d="M863.266,-56.083C869.545,-48.3768 878.788,-37.0333 886.431,-27.6531"/>
<polygon fill="midnightblue" stroke="midnightblue" points="889.266,-29.7143 892.869,-19.7511 883.839,-25.2926 889.266,-29.7143"/>
</g>
<!-- Node21&#45;&gt;Node20 -->
<g id="edge26" class="edge"><title>Node21&#45;&gt;Node20</title>
<path fill="none" stroke="midnightblue" d="M842.343,-56.324C829.084,-47.9002 808.732,-34.9709 793.154,-25.0741"/>
<polygon fill="midnightblue" stroke="midnightblue" points="794.94,-22.0626 784.623,-19.6545 791.187,-27.9711 794.94,-22.0626"/>
</g>
<!-- Node22&#45;&gt;Node11 -->
<g id="edge30" class="edge"><title>Node22&#45;&gt;Node11</title>
<path fill="none" stroke="midnightblue" d="M865.24,-118.403C847.024,-108.468 816.827,-91.9966 795.532,-80.3812"/>
<polygon fill="midnightblue" stroke="midnightblue" points="797.186,-77.2965 786.731,-75.5806 793.834,-83.4418 797.186,-77.2965"/>
</g>
<!-- Node22&#45;&gt;Node21 -->
<g id="edge31" class="edge"><title>Node22&#45;&gt;Node21</title>
<path fill="none" stroke="midnightblue" d="M877.418,-118.403C873.817,-109.76 868.154,-96.17 863.556,-85.1341"/>
<polygon fill="midnightblue" stroke="midnightblue" points="866.652,-83.4652 859.575,-75.5806 860.191,-86.1575 866.652,-83.4652"/>
</g>
<!-- Node23&#45;&gt;Node21 -->
<g id="edge35" class="edge"><title>Node23&#45;&gt;Node21</title>
<path fill="none" stroke="midnightblue" d="M977.763,-180.135C968.492,-164.939 947.988,-133.483 925,-112 911.926,-99.7817 895.148,-88.757 881.411,-80.678"/>
<polygon fill="midnightblue" stroke="midnightblue" points="882.889,-77.492 872.469,-75.5769 879.421,-83.5722 882.889,-77.492"/>
</g>
<!-- Node23&#45;&gt;Node22 -->
<g id="edge36" class="edge"><title>Node23&#45;&gt;Node22</title>
<path fill="none" stroke="midnightblue" d="M968.386,-180.403C951.647,-170.557 923.996,-154.291 904.281,-142.695"/>
<polygon fill="midnightblue" stroke="midnightblue" points="905.981,-139.634 895.587,-137.581 902.432,-145.668 905.981,-139.634"/>
</g>
<!-- Node24 -->
<g id="node24" class="node"><title>Node24</title>
<polygon fill="white" stroke="#bfbfbf" points="1011,-118.5 1011,-137.5 1055,-137.5 1055,-118.5 1011,-118.5"/>
<text text-anchor="middle" x="1033" y="-125.5" font-family="FreeSans" font-size="10.00">iosfwd</text>
</g>
<!-- Node23&#45;&gt;Node24 -->
<g id="edge33" class="edge"><title>Node23&#45;&gt;Node24</title>
<path fill="none" stroke="midnightblue" d="M990.164,-180.403C997.738,-171.314 1009.87,-156.756 1019.29,-145.449"/>
<polygon fill="midnightblue" stroke="midnightblue" points="1022.14,-147.503 1025.85,-137.581 1016.76,-143.022 1022.14,-147.503"/>
</g>
<!-- Node25 -->
<g id="node25" class="node"><title>Node25</title>
<polygon fill="white" stroke="#bfbfbf" points="1072.5,-118.5 1072.5,-137.5 1101.5,-137.5 1101.5,-118.5 1072.5,-118.5"/>
<text text-anchor="middle" x="1087" y="-125.5" font-family="FreeSans" font-size="10.00">list</text>
</g>
<!-- Node23&#45;&gt;Node25 -->
<g id="edge34" class="edge"><title>Node23&#45;&gt;Node25</title>
<path fill="none" stroke="midnightblue" d="M998.758,-180.417C1014.98,-171.515 1040.94,-157.091 1063,-144 1063.53,-143.687 1064.06,-143.368 1064.6,-143.046"/>
<polygon fill="midnightblue" stroke="midnightblue" points="1066.66,-145.886 1073.36,-137.677 1063,-139.918 1066.66,-145.886"/>
</g>
</g>
</svg>
