<?xml version="1.0" encoding="UTF-8" standalone="no"?>
<!DOCTYPE svg PUBLIC "-//W3C//DTD SVG 1.1//EN"
 "http://www.w3.org/Graphics/SVG/1.1/DTD/svg11.dtd">
<!-- Generated by graphviz version 2.36.0 (20140111.2315)
 -->
<!-- Title: MWWorld::IndexedStore::setUp Pages: 1 -->
<svg width="638pt" height="115pt"
 viewBox="0.00 0.00 638.00 115.00" xmlns="http://www.w3.org/2000/svg" xmlns:xlink="http://www.w3.org/1999/xlink">
<g id="graph0" class="graph" transform="scale(1 1) rotate(0) translate(4 111)">
<title>MWWorld::IndexedStore::setUp</title>
<polygon fill="white" stroke="none" points="-4,4 -4,-111 634,-111 634,4 -4,4"/>
<!-- Node1 -->
<g id="node1" class="node"><title>Node1</title>
<polygon fill="#bfbfbf" stroke="black" points="0,-33 0,-63 128,-63 128,-33 0,-33"/>
<text text-anchor="start" x="8" y="-51" font-family="FreeSans" font-size="10.00">MWWorld::IndexedStore</text>
<text text-anchor="middle" x="64" y="-40" font-family="FreeSans" font-size="10.00">::setUp</text>
</g>
<!-- Node2 -->
<g id="node2" class="node"><title>Node2</title>
<g id="a_node2"><a xlink:href="classMWWorld_1_1ESMStore.html#aded6d469b653d4673f41a9385867a8cf" target="_top" xlink:title="MWWorld::ESMStore::\lsetUp">
<polygon fill="white" stroke="black" points="164,-33 164,-63 282,-63 282,-33 164,-33"/>
<text text-anchor="start" x="172" y="-51" font-family="FreeSans" font-size="10.00">MWWorld::ESMStore::</text>
<text text-anchor="middle" x="223" y="-40" font-family="FreeSans" font-size="10.00">setUp</text>
</a>
</g>
</g>
<!-- Node1&#45;&gt;Node2 -->
<g id="edge1" class="edge"><title>Node1&#45;&gt;Node2</title>
<path fill="none" stroke="midnightblue" d="M138.681,-48C147.157,-48 155.709,-48 163.938,-48"/>
<polygon fill="midnightblue" stroke="midnightblue" points="138.405,-44.5001 128.405,-48 138.405,-51.5001 138.405,-44.5001"/>
</g>
<!-- Node3 -->
<g id="node3" class="node"><title>Node3</title>
<g id="a_node3"><a xlink:href="classMWWorld_1_1ESMStore.html#a34d11ef2e05bd77c602c205d30bd28c7" target="_top" xlink:title="MWWorld::ESMStore::\lreadRecord">
<polygon fill="white" stroke="black" points="322,-77 322,-107 440,-107 440,-77 322,-77"/>
<text text-anchor="start" x="330" y="-95" font-family="FreeSans" font-size="10.00">MWWorld::ESMStore::</text>
<text text-anchor="middle" x="381" y="-84" font-family="FreeSans" font-size="10.00">readRecord</text>
</a>
</g>
</g>
<!-- Node2&#45;&gt;Node3 -->
<g id="edge2" class="edge"><title>Node2&#45;&gt;Node3</title>
<path fill="none" stroke="midnightblue" d="M287.151,-65.8118C300.281,-69.515 313.993,-73.3827 326.725,-76.9738"/>
<polygon fill="midnightblue" stroke="midnightblue" points="287.825,-62.3653 277.25,-63.0192 285.924,-69.1025 287.825,-62.3653"/>
</g>
<!-- Node5 -->
<g id="node5" class="node"><title>Node5</title>
<g id="a_node5"><a xlink:href="classMWWorld_1_1World.html#a77df765318d2267a07a3bbe8a779a86f" target="_top" xlink:title="MWWorld::World::World">
<polygon fill="white" stroke="black" points="320,-38.5 320,-57.5 442,-57.5 442,-38.5 320,-38.5"/>
<text text-anchor="middle" x="381" y="-45.5" font-family="FreeSans" font-size="10.00">MWWorld::World::World</text>
</a>
</g>
</g>
<!-- Node2&#45;&gt;Node5 -->
<g id="edge4" class="edge"><title>Node2&#45;&gt;Node5</title>
<path fill="none" stroke="midnightblue" d="M292.311,-48C301.457,-48 310.783,-48 319.777,-48"/>
<polygon fill="midnightblue" stroke="midnightblue" points="292.089,-44.5001 282.089,-48 292.089,-51.5001 292.089,-44.5001"/>
</g>
<!-- Node6 -->
<g id="node6" class="node"><title>Node6</title>
<g id="a_node6"><a xlink:href="structContentFileTest.html#a0d9df10af237c591e67f8c7086808c9c" target="_top" xlink:title="ContentFileTest::SetUp">
<polygon fill="white" stroke="black" points="318.5,-0.5 318.5,-19.5 443.5,-19.5 443.5,-0.5 318.5,-0.5"/>
<text text-anchor="middle" x="381" y="-7.5" font-family="FreeSans" font-size="10.00">ContentFileTest::SetUp</text>
</a>
</g>
</g>
<!-- Node2&#45;&gt;Node6 -->
<g id="edge5" class="edge"><title>Node2&#45;&gt;Node6</title>
<path fill="none" stroke="midnightblue" d="M291.846,-31.4735C308.582,-27.3967 325.952,-23.1654 340.805,-19.5476"/>
<polygon fill="midnightblue" stroke="midnightblue" points="290.976,-28.0829 282.089,-33.8502 292.633,-34.884 290.976,-28.0829"/>
</g>
<!-- Node4 -->
<g id="node4" class="node"><title>Node4</title>
<g id="a_node4"><a xlink:href="classMWWorld_1_1World.html#a87f889d1e98446df33ca85b4d08d8b4f" target="_top" xlink:title="MWWorld::World::readRecord">
<polygon fill="white" stroke="black" points="480,-82.5 480,-101.5 630,-101.5 630,-82.5 480,-82.5"/>
<text text-anchor="middle" x="555" y="-89.5" font-family="FreeSans" font-size="10.00">MWWorld::World::readRecord</text>
</a>
</g>
</g>
<!-- Node3&#45;&gt;Node4 -->
<g id="edge3" class="edge"><title>Node3&#45;&gt;Node4</title>
<path fill="none" stroke="midnightblue" d="M450.266,-92C460.027,-92 470.107,-92 479.972,-92"/>
<polygon fill="midnightblue" stroke="midnightblue" points="450.231,-88.5001 440.231,-92 450.231,-95.5001 450.231,-88.5001"/>
</g>
</g>
</svg>
