<?xml version="1.0" encoding="UTF-8" standalone="no"?>
<!DOCTYPE svg PUBLIC "-//W3C//DTD SVG 1.1//EN"
 "http://www.w3.org/Graphics/SVG/1.1/DTD/svg11.dtd">
<!-- Generated by graphviz version 2.36.0 (20140111.2315)
 -->
<!-- Title: CSVWorld::DialogueDelegateDispatcherProxy::refWrapper Pages: 1 -->
<svg width="148pt" height="184pt"
 viewBox="0.00 0.00 148.00 184.00" xmlns="http://www.w3.org/2000/svg" xmlns:xlink="http://www.w3.org/1999/xlink">
<g id="graph0" class="graph" transform="scale(1 1) rotate(0) translate(4 180)">
<title>CSVWorld::DialogueDelegateDispatcherProxy::refWrapper</title>
<polygon fill="white" stroke="none" points="-4,4 -4,-180 144,-180 144,4 -4,4"/>
<!-- Node1 -->
<g id="node1" class="node"><title>Node1</title>
<polygon fill="#bfbfbf" stroke="black" points="-0.5,-1 -0.5,-69 140.5,-69 140.5,-1 -0.5,-1"/>
<text text-anchor="start" x="7.5" y="-57" font-family="FreeSans" font-size="10.00">CSVWorld::DialogueDelegate</text>
<text text-anchor="middle" x="70" y="-46" font-family="FreeSans" font-size="10.00">DispatcherProxy::refWrapper</text>
<polyline fill="none" stroke="black" points="-0.5,-39 140.5,-39 "/>
<text text-anchor="middle" x="70" y="-27" font-family="FreeSans" font-size="10.00"> </text>
<polyline fill="none" stroke="black" points="-0.5,-20 140.5,-20 "/>
<text text-anchor="start" x="7.5" y="-8" font-family="FreeSans" font-size="10.00">+ refWrapper()</text>
</g>
<!-- Node2 -->
<g id="node2" class="node"><title>Node2</title>
<polygon fill="white" stroke="#bfbfbf" points="16,-118.5 16,-175.5 124,-175.5 124,-118.5 16,-118.5"/>
<text text-anchor="middle" x="70" y="-163.5" font-family="FreeSans" font-size="10.00">const QModelIndex &amp;</text>
<polyline fill="none" stroke="#bfbfbf" points="16,-156.5 124,-156.5 "/>
<text text-anchor="middle" x="70" y="-144.5" font-family="FreeSans" font-size="10.00"> </text>
<polyline fill="none" stroke="#bfbfbf" points="16,-137.5 124,-137.5 "/>
<text text-anchor="middle" x="70" y="-125.5" font-family="FreeSans" font-size="10.00"> </text>
</g>
<!-- Node2&#45;&gt;Node1 -->
<g id="edge1" class="edge"><title>Node2&#45;&gt;Node1</title>
<path fill="none" stroke="#404040" d="M70,-118.242C70,-107.073 70,-93.8972 70,-81.4036"/>
<polygon fill="none" stroke="#404040" points="70.0001,-81.2368 66,-75.2368 70,-69.2368 74,-75.2367 70.0001,-81.2368"/>
<text text-anchor="middle" x="90" y="-91.5" font-family="FreeSans" font-size="10.00"> +mIndex</text>
</g>
</g>
</svg>
