<?xml version="1.0" encoding="UTF-8" standalone="no"?>
<!DOCTYPE svg PUBLIC "-//W3C//DTD SVG 1.1//EN"
 "http://www.w3.org/Graphics/SVG/1.1/DTD/svg11.dtd">
<!-- Generated by graphviz version 2.36.0 (20140111.2315)
 -->
<!-- Title: MWWorld::Store&lt; ESM::MagicEffect &gt; Pages: 1 -->
<svg width="596pt" height="1024pt"
 viewBox="0.00 0.00 596.00 1024.00" xmlns="http://www.w3.org/2000/svg" xmlns:xlink="http://www.w3.org/1999/xlink">
<g id="graph0" class="graph" transform="scale(1 1) rotate(0) translate(4 1020)">
<title>MWWorld::Store&lt; ESM::MagicEffect &gt;</title>
<polygon fill="white" stroke="none" points="-4,4 -4,-1020 592,-1020 592,4 -4,4"/>
<!-- Node1 -->
<g id="node1" class="node"><title>Node1</title>
<polygon fill="#bfbfbf" stroke="black" points="2.5,-1 2.5,-69 125.5,-69 125.5,-1 2.5,-1"/>
<text text-anchor="start" x="10.5" y="-57" font-family="FreeSans" font-size="10.00">MWWorld::Store&lt; ESM</text>
<text text-anchor="middle" x="64" y="-46" font-family="FreeSans" font-size="10.00">::MagicEffect &gt;</text>
<polyline fill="none" stroke="black" points="2.5,-39 125.5,-39 "/>
<text text-anchor="middle" x="64" y="-27" font-family="FreeSans" font-size="10.00"> </text>
<polyline fill="none" stroke="black" points="2.5,-20 125.5,-20 "/>
<text text-anchor="start" x="10.5" y="-8" font-family="FreeSans" font-size="10.00">+ Store()</text>
</g>
<!-- Node2 -->
<g id="node2" class="node"><title>Node2</title>
<g id="a_node2"><a xlink:href="classMWWorld_1_1IndexedStore.html" target="_top" xlink:title="{MWWorld::IndexedStore\l\&lt; ESM::MagicEffect \&gt;\n||+ IndexedStore()\l+ begin()\l+ end()\l+ load()\l+ getSize()\l+ setUp()\l+ search()\l+ find()\l}">
<polygon fill="white" stroke="black" points="0,-108.5 0,-253.5 128,-253.5 128,-108.5 0,-108.5"/>
<text text-anchor="start" x="8" y="-241.5" font-family="FreeSans" font-size="10.00">MWWorld::IndexedStore</text>
<text text-anchor="middle" x="64" y="-230.5" font-family="FreeSans" font-size="10.00">&lt; ESM::MagicEffect &gt;</text>
<polyline fill="none" stroke="black" points="0,-223.5 128,-223.5 "/>
<text text-anchor="middle" x="64" y="-211.5" font-family="FreeSans" font-size="10.00"> </text>
<polyline fill="none" stroke="black" points="0,-204.5 128,-204.5 "/>
<text text-anchor="start" x="8" y="-192.5" font-family="FreeSans" font-size="10.00">+ IndexedStore()</text>
<text text-anchor="start" x="8" y="-181.5" font-family="FreeSans" font-size="10.00">+ begin()</text>
<text text-anchor="start" x="8" y="-170.5" font-family="FreeSans" font-size="10.00">+ end()</text>
<text text-anchor="start" x="8" y="-159.5" font-family="FreeSans" font-size="10.00">+ load()</text>
<text text-anchor="start" x="8" y="-148.5" font-family="FreeSans" font-size="10.00">+ getSize()</text>
<text text-anchor="start" x="8" y="-137.5" font-family="FreeSans" font-size="10.00">+ setUp()</text>
<text text-anchor="start" x="8" y="-126.5" font-family="FreeSans" font-size="10.00">+ search()</text>
<text text-anchor="start" x="8" y="-115.5" font-family="FreeSans" font-size="10.00">+ find()</text>
</a>
</g>
</g>
<!-- Node2&#45;&gt;Node1 -->
<g id="edge1" class="edge"><title>Node2&#45;&gt;Node1</title>
<path fill="none" stroke="midnightblue" d="M64,-98.1787C64,-87.9937 64,-78.0759 64,-69.2612"/>
<polygon fill="none" stroke="midnightblue" points="60.5001,-98.4218 64,-108.422 67.5001,-98.4219 60.5001,-98.4218"/>
</g>
<!-- Node3 -->
<g id="node3" class="node"><title>Node3</title>
<polygon fill="white" stroke="#bfbfbf" points="9,-303 9,-371 119,-371 119,-303 9,-303"/>
<text text-anchor="start" x="17" y="-359" font-family="FreeSans" font-size="10.00">std::map&lt; int, ESM</text>
<text text-anchor="middle" x="64" y="-348" font-family="FreeSans" font-size="10.00">::MagicEffect &gt;</text>
<polyline fill="none" stroke="#bfbfbf" points="9,-341 119,-341 "/>
<text text-anchor="middle" x="64" y="-329" font-family="FreeSans" font-size="10.00"> </text>
<polyline fill="none" stroke="#bfbfbf" points="9,-322 119,-322 "/>
<text text-anchor="middle" x="64" y="-310" font-family="FreeSans" font-size="10.00"> </text>
</g>
<!-- Node3&#45;&gt;Node2 -->
<g id="edge2" class="edge"><title>Node3&#45;&gt;Node2</title>
<path fill="none" stroke="#404040" d="M64,-302.963C64,-291.866 64,-278.937 64,-265.741"/>
<polygon fill="none" stroke="#404040" points="64.0001,-265.593 60,-259.593 64,-253.593 68,-259.593 64.0001,-265.593"/>
<text text-anchor="middle" x="88.5" y="-275.5" font-family="FreeSans" font-size="10.00"> #mStatic</text>
</g>
<!-- Node4 -->
<g id="node4" class="node"><title>Node4</title>
<g id="a_node4"><a xlink:href="classint.html" target="_top" xlink:title="{int\n||}">
<polygon fill="white" stroke="black" points="28.5,-850.5 28.5,-907.5 57.5,-907.5 57.5,-850.5 28.5,-850.5"/>
<text text-anchor="middle" x="43" y="-895.5" font-family="FreeSans" font-size="10.00">int</text>
<polyline fill="none" stroke="black" points="28.5,-888.5 57.5,-888.5 "/>
<text text-anchor="middle" x="43" y="-876.5" font-family="FreeSans" font-size="10.00"> </text>
<polyline fill="none" stroke="black" points="28.5,-869.5 57.5,-869.5 "/>
<text text-anchor="middle" x="43" y="-857.5" font-family="FreeSans" font-size="10.00"> </text>
</a>
</g>
</g>
<!-- Node4&#45;&gt;Node3 -->
<g id="edge3" class="edge"><title>Node4&#45;&gt;Node3</title>
<path fill="none" stroke="#404040" d="M28.8991,-850.369C26.4769,-844.45 24.3182,-838.13 23,-832 16.0848,-799.843 22.2222,-790.891 22,-758 21.6337,-703.779 18.2071,-690.089 22,-636 28.3162,-545.928 45.2451,-441.66 55.5795,-383.411"/>
<polygon fill="none" stroke="#404040" points="55.6231,-383.168 52.7448,-376.556 57.7411,-371.356 60.6193,-377.968 55.6231,-383.168"/>
<text text-anchor="middle" x="42" y="-609.5" font-family="FreeSans" font-size="10.00"> +keys</text>
</g>
<!-- Node5 -->
<g id="node5" class="node"><title>Node5</title>
<g id="a_node5"><a xlink:href="structESM_1_1MagicEffect.html" target="_top" xlink:title="{ESM::MagicEffect\n|+ mArea\l+ mDescription\l|+ getMagnitudeDisplayType()\l+ load()\l+ save()\l+ blank()\l+ getRecordType()\l+ effectIdToString()\l+ effectStringToId()\l+ getResistanceEffect()\l+ getWeaknessEffect()\l+ indexToId()\l}">
<polygon fill="white" stroke="black" points="185.5,-420.5 185.5,-587.5 342.5,-587.5 342.5,-420.5 185.5,-420.5"/>
<text text-anchor="middle" x="264" y="-575.5" font-family="FreeSans" font-size="10.00">ESM::MagicEffect</text>
<polyline fill="none" stroke="black" points="185.5,-568.5 342.5,-568.5 "/>
<text text-anchor="start" x="193.5" y="-556.5" font-family="FreeSans" font-size="10.00">+ mArea</text>
<text text-anchor="start" x="193.5" y="-545.5" font-family="FreeSans" font-size="10.00">+ mDescription</text>
<polyline fill="none" stroke="black" points="185.5,-538.5 342.5,-538.5 "/>
<text text-anchor="start" x="193.5" y="-526.5" font-family="FreeSans" font-size="10.00">+ getMagnitudeDisplayType()</text>
<text text-anchor="start" x="193.5" y="-515.5" font-family="FreeSans" font-size="10.00">+ load()</text>
<text text-anchor="start" x="193.5" y="-504.5" font-family="FreeSans" font-size="10.00">+ save()</text>
<text text-anchor="start" x="193.5" y="-493.5" font-family="FreeSans" font-size="10.00">+ blank()</text>
<text text-anchor="start" x="193.5" y="-482.5" font-family="FreeSans" font-size="10.00">+ getRecordType()</text>
<text text-anchor="start" x="193.5" y="-471.5" font-family="FreeSans" font-size="10.00">+ effectIdToString()</text>
<text text-anchor="start" x="193.5" y="-460.5" font-family="FreeSans" font-size="10.00">+ effectStringToId()</text>
<text text-anchor="start" x="193.5" y="-449.5" font-family="FreeSans" font-size="10.00">+ getResistanceEffect()</text>
<text text-anchor="start" x="193.5" y="-438.5" font-family="FreeSans" font-size="10.00">+ getWeaknessEffect()</text>
<text text-anchor="start" x="193.5" y="-427.5" font-family="FreeSans" font-size="10.00">+ indexToId()</text>
</a>
</g>
</g>
<!-- Node4&#45;&gt;Node5 -->
<g id="edge12" class="edge"><title>Node4&#45;&gt;Node5</title>
<path fill="none" stroke="#404040" d="M36.1497,-850.305C26.0189,-802.8 12.2309,-704.307 52,-636 78.9483,-589.714 129.407,-557.56 174.338,-536.694"/>
<polygon fill="none" stroke="#404040" points="174.375,-536.677 178.21,-530.57 185.322,-531.761 181.488,-537.868 174.375,-536.677"/>
<text text-anchor="middle" x="75.5" y="-694.5" font-family="FreeSans" font-size="10.00"> +mIndex</text>
</g>
<!-- Node6 -->
<g id="node6" class="node"><title>Node6</title>
<g id="a_node6"><a xlink:href="structESM_1_1MagicEffect_1_1MEDTstruct.html" target="_top" xlink:title="{ESM::MagicEffect::MEDTstruct\n||}">
<polygon fill="white" stroke="black" points="108,-668.5 108,-725.5 266,-725.5 266,-668.5 108,-668.5"/>
<text text-anchor="middle" x="187" y="-713.5" font-family="FreeSans" font-size="10.00">ESM::MagicEffect::MEDTstruct</text>
<polyline fill="none" stroke="black" points="108,-706.5 266,-706.5 "/>
<text text-anchor="middle" x="187" y="-694.5" font-family="FreeSans" font-size="10.00"> </text>
<polyline fill="none" stroke="black" points="108,-687.5 266,-687.5 "/>
<text text-anchor="middle" x="187" y="-675.5" font-family="FreeSans" font-size="10.00"> </text>
</a>
</g>
</g>
<!-- Node4&#45;&gt;Node6 -->
<g id="edge7" class="edge"><title>Node4&#45;&gt;Node6</title>
<path fill="none" stroke="#404040" d="M57.5999,-859.75C80.8353,-830.706 126.702,-773.372 157.113,-735.358"/>
<polygon fill="none" stroke="#404040" points="157.372,-735.035 157.997,-727.851 164.868,-725.664 164.244,-732.848 157.372,-735.035"/>
<text text-anchor="middle" x="149.5" y="-823.5" font-family="FreeSans" font-size="10.00"> +mBlue</text>
<text text-anchor="middle" x="149.5" y="-812.5" font-family="FreeSans" font-size="10.00">+mGreen</text>
<text text-anchor="middle" x="149.5" y="-801.5" font-family="FreeSans" font-size="10.00">+mFlags</text>
<text text-anchor="middle" x="149.5" y="-790.5" font-family="FreeSans" font-size="10.00">+mRed</text>
<text text-anchor="middle" x="149.5" y="-779.5" font-family="FreeSans" font-size="10.00">+mSchool</text>
</g>
<!-- Node5&#45;&gt;Node3 -->
<g id="edge4" class="edge"><title>Node5&#45;&gt;Node3</title>
<path fill="none" stroke="#404040" d="M185.242,-438.024C161.056,-418.071 135.132,-396.684 113.488,-378.828"/>
<polygon fill="none" stroke="#404040" points="113.437,-378.786 106.263,-378.053 104.181,-371.149 111.355,-371.882 113.437,-378.786"/>
<text text-anchor="middle" x="169.5" y="-393.5" font-family="FreeSans" font-size="10.00"> +elements</text>
</g>
<!-- Node6&#45;&gt;Node5 -->
<g id="edge5" class="edge"><title>Node6&#45;&gt;Node5</title>
<path fill="none" stroke="#404040" d="M198.196,-668.227C205.645,-649.751 215.902,-624.307 226.103,-599.003"/>
<polygon fill="none" stroke="#404040" points="226.132,-598.932 224.666,-591.871 230.619,-587.802 232.085,-594.863 226.132,-598.932"/>
<text text-anchor="middle" x="246.5" y="-609.5" font-family="FreeSans" font-size="10.00"> +mData</text>
</g>
<!-- Node7 -->
<g id="node7" class="node"><title>Node7</title>
<polygon fill="white" stroke="#bfbfbf" points="168,-850.5 168,-907.5 206,-907.5 206,-850.5 168,-850.5"/>
<text text-anchor="middle" x="187" y="-895.5" font-family="FreeSans" font-size="10.00">float</text>
<polyline fill="none" stroke="#bfbfbf" points="168,-888.5 206,-888.5 "/>
<text text-anchor="middle" x="187" y="-876.5" font-family="FreeSans" font-size="10.00"> </text>
<polyline fill="none" stroke="#bfbfbf" points="168,-869.5 206,-869.5 "/>
<text text-anchor="middle" x="187" y="-857.5" font-family="FreeSans" font-size="10.00"> </text>
</g>
<!-- Node7&#45;&gt;Node6 -->
<g id="edge6" class="edge"><title>Node7&#45;&gt;Node6</title>
<path fill="none" stroke="#404040" d="M187,-850.269C187,-820.276 187,-772.185 187,-738.081"/>
<polygon fill="none" stroke="#404040" points="187,-737.762 183,-731.762 187,-725.762 191,-731.762 187,-737.762"/>
<text text-anchor="middle" x="221" y="-818" font-family="FreeSans" font-size="10.00"> +mBaseCost</text>
<text text-anchor="middle" x="221" y="-807" font-family="FreeSans" font-size="10.00">+mSpeed</text>
<text text-anchor="middle" x="221" y="-796" font-family="FreeSans" font-size="10.00">+mUnknown1</text>
<text text-anchor="middle" x="221" y="-785" font-family="FreeSans" font-size="10.00">+mUnknown2</text>
</g>
<!-- Node8 -->
<g id="node8" class="node"><title>Node8</title>
<polygon fill="white" stroke="#bfbfbf" points="284,-663 284,-731 400,-731 400,-663 284,-663"/>
<text text-anchor="start" x="292" y="-719" font-family="FreeSans" font-size="10.00">std::map&lt; short, std</text>
<text text-anchor="middle" x="342" y="-708" font-family="FreeSans" font-size="10.00">::string &gt;</text>
<polyline fill="none" stroke="#bfbfbf" points="284,-701 400,-701 "/>
<text text-anchor="middle" x="342" y="-689" font-family="FreeSans" font-size="10.00"> </text>
<polyline fill="none" stroke="#bfbfbf" points="284,-682 400,-682 "/>
<text text-anchor="middle" x="342" y="-670" font-family="FreeSans" font-size="10.00"> </text>
</g>
<!-- Node8&#45;&gt;Node5 -->
<g id="edge8" class="edge"><title>Node8&#45;&gt;Node5</title>
<path fill="none" stroke="#404040" d="M328.413,-662.73C321.099,-644.82 311.672,-621.736 302.3,-598.785"/>
<polygon fill="none" stroke="#404040" points="302.249,-598.661 296.278,-594.619 297.712,-587.552 303.684,-591.594 302.249,-598.661"/>
<text text-anchor="middle" x="336" y="-609.5" font-family="FreeSans" font-size="10.00"> +sNames</text>
</g>
<!-- Node9 -->
<g id="node9" class="node"><title>Node9</title>
<polygon fill="white" stroke="#bfbfbf" points="286.5,-850.5 286.5,-907.5 327.5,-907.5 327.5,-850.5 286.5,-850.5"/>
<text text-anchor="middle" x="307" y="-895.5" font-family="FreeSans" font-size="10.00">short</text>
<polyline fill="none" stroke="#bfbfbf" points="286.5,-888.5 327.5,-888.5 "/>
<text text-anchor="middle" x="307" y="-876.5" font-family="FreeSans" font-size="10.00"> </text>
<polyline fill="none" stroke="#bfbfbf" points="286.5,-869.5 327.5,-869.5 "/>
<text text-anchor="middle" x="307" y="-857.5" font-family="FreeSans" font-size="10.00"> </text>
</g>
<!-- Node9&#45;&gt;Node8 -->
<g id="edge9" class="edge"><title>Node9&#45;&gt;Node8</title>
<path fill="none" stroke="#404040" d="M304.321,-850.4C303.018,-829.69 302.71,-800.765 308,-776 310.402,-764.754 314.487,-753.136 319.009,-742.411"/>
<polygon fill="none" stroke="#404040" points="319.131,-742.138 317.928,-735.028 324.029,-731.184 325.232,-738.294 319.131,-742.138"/>
<text text-anchor="middle" x="325" y="-801.5" font-family="FreeSans" font-size="10.00"> +keys</text>
</g>
<!-- Node10 -->
<g id="node10" class="node"><title>Node10</title>
<g id="a_node10"><a xlink:title="STL class. ">
<polygon fill="white" stroke="#bfbfbf" points="374.5,-850.5 374.5,-907.5 439.5,-907.5 439.5,-850.5 374.5,-850.5"/>
<text text-anchor="middle" x="407" y="-895.5" font-family="FreeSans" font-size="10.00">std::string</text>
<polyline fill="none" stroke="#bfbfbf" points="374.5,-888.5 439.5,-888.5 "/>
<text text-anchor="middle" x="407" y="-876.5" font-family="FreeSans" font-size="10.00"> </text>
<polyline fill="none" stroke="#bfbfbf" points="374.5,-869.5 439.5,-869.5 "/>
<text text-anchor="middle" x="407" y="-857.5" font-family="FreeSans" font-size="10.00"> </text>
</a>
</g>
</g>
<!-- Node10&#45;&gt;Node5 -->
<g id="edge13" class="edge"><title>Node10&#45;&gt;Node5</title>
<path fill="none" stroke="#404040" d="M417.637,-850.126C419.449,-844.225 421.051,-837.973 422,-832 430.427,-778.977 408.029,-636.057 408,-636 394.716,-609.598 373.704,-585.947 351.793,-566.248"/>
<polygon fill="none" stroke="#404040" points="351.754,-566.214 344.603,-565.291 342.704,-558.334 349.856,-559.257 351.754,-566.214"/>
<text text-anchor="middle" x="460" y="-749.5" font-family="FreeSans" font-size="10.00"> +mCastSound</text>
<text text-anchor="middle" x="460" y="-738.5" font-family="FreeSans" font-size="10.00">+mBolt</text>
<text text-anchor="middle" x="460" y="-727.5" font-family="FreeSans" font-size="10.00">+mHit</text>
<text text-anchor="middle" x="460" y="-716.5" font-family="FreeSans" font-size="10.00">+mCasting</text>
<text text-anchor="middle" x="460" y="-705.5" font-family="FreeSans" font-size="10.00">+mHitSound</text>
<text text-anchor="middle" x="460" y="-694.5" font-family="FreeSans" font-size="10.00">+mBoltSound</text>
<text text-anchor="middle" x="460" y="-683.5" font-family="FreeSans" font-size="10.00">+mIcon</text>
<text text-anchor="middle" x="460" y="-672.5" font-family="FreeSans" font-size="10.00">+mAreaSound</text>
<text text-anchor="middle" x="460" y="-661.5" font-family="FreeSans" font-size="10.00">+mParticle</text>
<text text-anchor="middle" x="460" y="-650.5" font-family="FreeSans" font-size="10.00">+mId</text>
<text text-anchor="middle" x="460" y="-639.5" font-family="FreeSans" font-size="10.00">...</text>
</g>
<!-- Node10&#45;&gt;Node8 -->
<g id="edge10" class="edge"><title>Node10&#45;&gt;Node8</title>
<path fill="none" stroke="#404040" d="M377.331,-850.446C372.578,-844.761 368.184,-838.508 365,-832 351.523,-804.452 345.802,-770.352 343.435,-743.445"/>
<polygon fill="none" stroke="#404040" points="343.419,-743.226 338.993,-737.533 342.545,-731.258 346.971,-736.95 343.419,-743.226"/>
<text text-anchor="middle" x="393.5" y="-801.5" font-family="FreeSans" font-size="10.00"> +elements</text>
</g>
<!-- Node11 -->
<g id="node11" class="node"><title>Node11</title>
<g id="a_node11"><a xlink:title="STL class. ">
<polygon fill="white" stroke="#bfbfbf" points="355.5,-947 355.5,-1015 458.5,-1015 458.5,-947 355.5,-947"/>
<text text-anchor="start" x="363.5" y="-1003" font-family="FreeSans" font-size="10.00">std::basic_string&lt;</text>
<text text-anchor="middle" x="407" y="-992" font-family="FreeSans" font-size="10.00"> char &gt;</text>
<polyline fill="none" stroke="#bfbfbf" points="355.5,-985 458.5,-985 "/>
<text text-anchor="middle" x="407" y="-973" font-family="FreeSans" font-size="10.00"> </text>
<polyline fill="none" stroke="#bfbfbf" points="355.5,-966 458.5,-966 "/>
<text text-anchor="middle" x="407" y="-954" font-family="FreeSans" font-size="10.00"> </text>
</a>
</g>
</g>
<!-- Node11&#45;&gt;Node10 -->
<g id="edge11" class="edge"><title>Node11&#45;&gt;Node10</title>
<path fill="none" stroke="midnightblue" d="M407,-936.857C407,-926.952 407,-916.682 407,-907.64"/>
<polygon fill="none" stroke="midnightblue" points="403.5,-936.979 407,-946.979 410.5,-936.979 403.5,-936.979"/>
</g>
<!-- Node12 -->
<g id="node12" class="node"><title>Node12</title>
<polygon fill="white" stroke="#bfbfbf" points="528,-668.5 528,-725.5 588,-725.5 588,-668.5 528,-668.5"/>
<text text-anchor="middle" x="558" y="-713.5" font-family="FreeSans" font-size="10.00">unsigned</text>
<polyline fill="none" stroke="#bfbfbf" points="528,-706.5 588,-706.5 "/>
<text text-anchor="middle" x="558" y="-694.5" font-family="FreeSans" font-size="10.00"> </text>
<polyline fill="none" stroke="#bfbfbf" points="528,-687.5 588,-687.5 "/>
<text text-anchor="middle" x="558" y="-675.5" font-family="FreeSans" font-size="10.00"> </text>
</g>
<!-- Node12&#45;&gt;Node5 -->
<g id="edge14" class="edge"><title>Node12&#45;&gt;Node5</title>
<path fill="none" stroke="#404040" d="M541.697,-668.452C534.236,-657.422 524.674,-645.182 514,-636 466.598,-595.228 404.34,-562.555 353.812,-540.036"/>
<polygon fill="none" stroke="#404040" points="353.551,-539.922 346.449,-541.175 342.561,-535.102 349.662,-533.849 353.551,-539.922"/>
<text text-anchor="middle" x="520" y="-609.5" font-family="FreeSans" font-size="10.00"> +sRecordId</text>
</g>
</g>
</svg>
