<?xml version="1.0" encoding="UTF-8" standalone="no"?>
<!DOCTYPE svg PUBLIC "-//W3C//DTD SVG 1.1//EN"
 "http://www.w3.org/Graphics/SVG/1.1/DTD/svg11.dtd">
<!-- Generated by graphviz version 2.36.0 (20140111.2315)
 -->
<!-- Title: Compiler::Literals::getStringSize Pages: 1 -->
<svg width="1446pt" height="400pt"
 viewBox="0.00 0.00 1446.00 400.00" xmlns="http://www.w3.org/2000/svg" xmlns:xlink="http://www.w3.org/1999/xlink">
<g id="graph0" class="graph" transform="scale(1 1) rotate(0) translate(4 396)">
<title>Compiler::Literals::getStringSize</title>
<polygon fill="white" stroke="none" points="-4,4 -4,-396 1442,-396 1442,4 -4,4"/>
<!-- Node1 -->
<g id="node1" class="node"><title>Node1</title>
<polygon fill="#bfbfbf" stroke="black" points="0,-202 0,-232 100,-232 100,-202 0,-202"/>
<text text-anchor="start" x="8" y="-220" font-family="FreeSans" font-size="10.00">Compiler::Literals</text>
<text text-anchor="middle" x="50" y="-209" font-family="FreeSans" font-size="10.00">::getStringSize</text>
</g>
<!-- Node2 -->
<g id="node2" class="node"><title>Node2</title>
<g id="a_node2"><a xlink:href="classCompiler_1_1Literals.html#a64d96d7fa66ea59c035014327583abdd" target="_top" xlink:title="Compiler::Literals\l::append">
<polygon fill="white" stroke="black" points="136,-224 136,-254 236,-254 236,-224 136,-224"/>
<text text-anchor="start" x="144" y="-242" font-family="FreeSans" font-size="10.00">Compiler::Literals</text>
<text text-anchor="middle" x="186" y="-231" font-family="FreeSans" font-size="10.00">::append</text>
</a>
</g>
</g>
<!-- Node1&#45;&gt;Node2 -->
<g id="edge1" class="edge"><title>Node1&#45;&gt;Node2</title>
<path fill="none" stroke="midnightblue" d="M110.117,-226.706C118.718,-228.118 127.495,-229.559 135.87,-230.934"/>
<polygon fill="midnightblue" stroke="midnightblue" points="110.571,-223.233 100.136,-225.067 109.437,-230.141 110.571,-223.233"/>
</g>
<!-- Node3 -->
<g id="node3" class="node"><title>Node3</title>
<g id="a_node3"><a xlink:href="classCompiler_1_1Output.html#a8f87d46702dc2e36ddf404c2940d36af" target="_top" xlink:title="store generated code in code. ">
<polygon fill="white" stroke="black" points="272.5,-207.5 272.5,-226.5 417.5,-226.5 417.5,-207.5 272.5,-207.5"/>
<text text-anchor="middle" x="345" y="-214.5" font-family="FreeSans" font-size="10.00">Compiler::Output::getCode</text>
</a>
</g>
</g>
<!-- Node1&#45;&gt;Node3 -->
<g id="edge26" class="edge"><title>Node1&#45;&gt;Node3</title>
<path fill="none" stroke="midnightblue" d="M110.69,-214.627C119.184,-214.367 127.813,-214.144 136,-214 180.438,-213.216 191.56,-213.383 236,-214 247.722,-214.163 260.158,-214.425 272.26,-214.728"/>
<polygon fill="midnightblue" stroke="midnightblue" points="110.315,-211.137 100.433,-214.96 110.542,-218.134 110.315,-211.137"/>
</g>
<!-- Node2&#45;&gt;Node3 -->
<g id="edge2" class="edge"><title>Node2&#45;&gt;Node3</title>
<path fill="none" stroke="midnightblue" d="M246.189,-230.706C255.903,-229.345 266.038,-227.925 275.947,-226.536"/>
<polygon fill="midnightblue" stroke="midnightblue" points="245.663,-227.245 236.245,-232.099 246.634,-234.178 245.663,-227.245"/>
</g>
<!-- Node4 -->
<g id="node4" class="node"><title>Node4</title>
<g id="a_node4"><a xlink:href="classMWGui_1_1Console.html#a7739da471e02953030e691d140957fff" target="_top" xlink:title="MWGui::Console::compile">
<polygon fill="white" stroke="black" points="454.5,-312.5 454.5,-331.5 591.5,-331.5 591.5,-312.5 454.5,-312.5"/>
<text text-anchor="middle" x="523" y="-319.5" font-family="FreeSans" font-size="10.00">MWGui::Console::compile</text>
</a>
</g>
</g>
<!-- Node3&#45;&gt;Node4 -->
<g id="edge3" class="edge"><title>Node3&#45;&gt;Node4</title>
<path fill="none" stroke="midnightblue" d="M369.906,-231.872C391.714,-245.376 424.882,-265.758 454,-283 471.214,-293.194 491.08,-304.54 504.877,-312.354"/>
<polygon fill="midnightblue" stroke="midnightblue" points="371.643,-228.831 361.3,-226.534 367.953,-234.779 371.643,-228.831"/>
</g>
<!-- Node5 -->
<g id="node5" class="node"><title>Node5</title>
<g id="a_node5"><a xlink:href="classMWGui_1_1Console.html#ab033e843ca6fb2049c0cccddfa3d7c49" target="_top" xlink:title="MWGui::Console::execute">
<polygon fill="white" stroke="black" points="642.5,-319.5 642.5,-338.5 779.5,-338.5 779.5,-319.5 642.5,-319.5"/>
<text text-anchor="middle" x="711" y="-326.5" font-family="FreeSans" font-size="10.00">MWGui::Console::execute</text>
</a>
</g>
</g>
<!-- Node3&#45;&gt;Node5 -->
<g id="edge9" class="edge"><title>Node3&#45;&gt;Node5</title>
<path fill="none" stroke="midnightblue" d="M386.865,-229.574C460.394,-252.198 613.433,-299.287 679.044,-319.475"/>
<polygon fill="midnightblue" stroke="midnightblue" points="387.622,-226.145 377.034,-226.549 385.563,-232.835 387.622,-226.145"/>
</g>
<!-- Node10 -->
<g id="node10" class="node"><title>Node10</title>
<g id="a_node10"><a xlink:href="classCompiler_1_1ScriptParser.html#a9024a0f4d8ee4d03e7cb7b2dc549107f" target="_top" xlink:title="store generated code in code. ">
<polygon fill="white" stroke="black" points="461.5,-180 461.5,-210 584.5,-210 584.5,-180 461.5,-180"/>
<text text-anchor="start" x="469.5" y="-198" font-family="FreeSans" font-size="10.00">Compiler::ScriptParser</text>
<text text-anchor="middle" x="523" y="-187" font-family="FreeSans" font-size="10.00">::getCode</text>
</a>
</g>
</g>
<!-- Node3&#45;&gt;Node10 -->
<g id="edge10" class="edge"><title>Node3&#45;&gt;Node10</title>
<path fill="none" stroke="midnightblue" d="M427.559,-206.805C438.972,-205.378 450.531,-203.934 461.462,-202.567"/>
<polygon fill="midnightblue" stroke="midnightblue" points="427.075,-203.338 417.586,-208.052 427.943,-210.284 427.075,-203.338"/>
</g>
<!-- Node24 -->
<g id="node24" class="node"><title>Node24</title>
<g id="a_node24"><a xlink:href="classCompiler_1_1ScriptParser.html#a10da1e889f3f50e522c0d17dca0817c0" target="_top" xlink:title="Compiler::ScriptParser\l::parseKeyword">
<polygon fill="white" stroke="black" points="461.5,-107 461.5,-137 584.5,-137 584.5,-107 461.5,-107"/>
<text text-anchor="start" x="469.5" y="-125" font-family="FreeSans" font-size="10.00">Compiler::ScriptParser</text>
<text text-anchor="middle" x="523" y="-114" font-family="FreeSans" font-size="10.00">::parseKeyword</text>
</a>
</g>
</g>
<!-- Node3&#45;&gt;Node24 -->
<g id="edge24" class="edge"><title>Node3&#45;&gt;Node24</title>
<path fill="none" stroke="midnightblue" d="M372.851,-202.507C405.616,-184.821 460.749,-155.062 494.019,-137.103"/>
<polygon fill="midnightblue" stroke="midnightblue" points="370.982,-199.538 363.844,-207.368 374.307,-205.698 370.982,-199.538"/>
</g>
<!-- Node4&#45;&gt;Node5 -->
<g id="edge4" class="edge"><title>Node4&#45;&gt;Node5</title>
<path fill="none" stroke="midnightblue" d="M601.864,-324.93C615.322,-325.437 629.215,-325.96 642.374,-326.455"/>
<polygon fill="midnightblue" stroke="midnightblue" points="601.801,-321.426 591.676,-324.547 601.538,-328.421 601.801,-321.426"/>
</g>
<!-- Node6 -->
<g id="node6" class="node"><title>Node6</title>
<g id="a_node6"><a xlink:href="classMWGui_1_1Console.html#a9d05d488e4fbffa5469ef1ba1453ee18" target="_top" xlink:title="MWGui::Console::executeFile">
<polygon fill="white" stroke="black" points="845,-363.5 845,-382.5 997,-382.5 997,-363.5 845,-363.5"/>
<text text-anchor="middle" x="921" y="-370.5" font-family="FreeSans" font-size="10.00">MWGui::Console::executeFile</text>
</a>
</g>
</g>
<!-- Node5&#45;&gt;Node6 -->
<g id="edge5" class="edge"><title>Node5&#45;&gt;Node6</title>
<path fill="none" stroke="midnightblue" d="M767.271,-340.692C800.918,-347.81 843.358,-356.787 874.955,-363.471"/>
<polygon fill="midnightblue" stroke="midnightblue" points="767.641,-337.193 757.133,-338.547 766.192,-344.041 767.641,-337.193"/>
</g>
<!-- Node8 -->
<g id="node8" class="node"><title>Node8</title>
<g id="a_node8"><a xlink:href="classMWGui_1_1Console.html#ad92278fdad9d0f042fe7b0232e765047" target="_top" xlink:title="MWGui::Console::acceptCommand">
<polygon fill="white" stroke="black" points="830,-321.5 830,-340.5 1012,-340.5 1012,-321.5 830,-321.5"/>
<text text-anchor="middle" x="921" y="-328.5" font-family="FreeSans" font-size="10.00">MWGui::Console::acceptCommand</text>
</a>
</g>
</g>
<!-- Node5&#45;&gt;Node8 -->
<g id="edge7" class="edge"><title>Node5&#45;&gt;Node8</title>
<path fill="none" stroke="midnightblue" d="M789.825,-329.748C802.837,-329.873 816.434,-330.004 829.726,-330.132"/>
<polygon fill="midnightblue" stroke="midnightblue" points="789.565,-326.246 779.532,-329.649 789.497,-333.245 789.565,-326.246"/>
</g>
<!-- Node7 -->
<g id="node7" class="node"><title>Node7</title>
<g id="a_node7"><a xlink:href="classMWGui_1_1WindowManager.html#abf4eb9f6cf95a90d73a75f8c5ca704c0" target="_top" xlink:title="MWGui::WindowManager\l::executeInConsole">
<polygon fill="white" stroke="black" points="1076,-361 1076,-391 1208,-391 1208,-361 1076,-361"/>
<text text-anchor="start" x="1084" y="-379" font-family="FreeSans" font-size="10.00">MWGui::WindowManager</text>
<text text-anchor="middle" x="1142" y="-368" font-family="FreeSans" font-size="10.00">::executeInConsole</text>
</a>
</g>
</g>
<!-- Node6&#45;&gt;Node7 -->
<g id="edge6" class="edge"><title>Node6&#45;&gt;Node7</title>
<path fill="none" stroke="midnightblue" d="M1007.1,-374.166C1029.96,-374.479 1054.32,-374.813 1075.91,-375.108"/>
<polygon fill="midnightblue" stroke="midnightblue" points="1007.11,-370.666 997.061,-374.028 1007.01,-377.665 1007.11,-370.666"/>
</g>
<!-- Node9 -->
<g id="node9" class="node"><title>Node9</title>
<g id="a_node9"><a xlink:href="classMWGui_1_1Console.html#a6df0da8693b4b7a9482c29d9789662c9" target="_top" xlink:title="MWGui::Console::Console">
<polygon fill="white" stroke="black" points="1073.5,-322.5 1073.5,-341.5 1210.5,-341.5 1210.5,-322.5 1073.5,-322.5"/>
<text text-anchor="middle" x="1142" y="-329.5" font-family="FreeSans" font-size="10.00">MWGui::Console::Console</text>
</a>
</g>
</g>
<!-- Node8&#45;&gt;Node9 -->
<g id="edge8" class="edge"><title>Node8&#45;&gt;Node9</title>
<path fill="none" stroke="midnightblue" d="M1022.19,-331.457C1039.54,-331.537 1057.21,-331.617 1073.43,-331.691"/>
<polygon fill="midnightblue" stroke="midnightblue" points="1022.04,-327.957 1012.02,-331.411 1022.01,-334.957 1022.04,-327.957"/>
</g>
<!-- Node11 -->
<g id="node11" class="node"><title>Node11</title>
<g id="a_node11"><a xlink:href="classMWDialogue_1_1DialogueManager.html#a3d8d75e57fd21dbae6545ff4bfa8974c" target="_top" xlink:title="MWDialogue::DialogueManager\l::compile">
<polygon fill="white" stroke="black" points="628.5,-180 628.5,-210 793.5,-210 793.5,-180 628.5,-180"/>
<text text-anchor="start" x="636.5" y="-198" font-family="FreeSans" font-size="10.00">MWDialogue::DialogueManager</text>
<text text-anchor="middle" x="711" y="-187" font-family="FreeSans" font-size="10.00">::compile</text>
</a>
</g>
</g>
<!-- Node10&#45;&gt;Node11 -->
<g id="edge11" class="edge"><title>Node10&#45;&gt;Node11</title>
<path fill="none" stroke="midnightblue" d="M594.65,-195C605.701,-195 617.2,-195 628.471,-195"/>
<polygon fill="midnightblue" stroke="midnightblue" points="594.646,-191.5 584.646,-195 594.646,-198.5 594.646,-191.5"/>
</g>
<!-- Node20 -->
<g id="node20" class="node"><title>Node20</title>
<g id="a_node20"><a xlink:href="classCompiler_1_1FileParser.html#ad70541ee55e67ebcdb768a742e3318fd" target="_top" xlink:title="store generated code in code. ">
<polygon fill="white" stroke="black" points="656,-131 656,-161 766,-161 766,-131 656,-131"/>
<text text-anchor="start" x="664" y="-149" font-family="FreeSans" font-size="10.00">Compiler::FileParser</text>
<text text-anchor="middle" x="711" y="-138" font-family="FreeSans" font-size="10.00">::getCode</text>
</a>
</g>
</g>
<!-- Node10&#45;&gt;Node20 -->
<g id="edge20" class="edge"><title>Node10&#45;&gt;Node20</title>
<path fill="none" stroke="midnightblue" d="M591.026,-177.343C612.336,-171.729 635.623,-165.594 655.901,-160.252"/>
<polygon fill="midnightblue" stroke="midnightblue" points="589.849,-174.033 581.07,-179.965 591.632,-180.802 589.849,-174.033"/>
</g>
<!-- Node12 -->
<g id="node12" class="node"><title>Node12</title>
<g id="a_node12"><a xlink:href="classMWDialogue_1_1DialogueManager.html#aa52fd37fa304b74db6b4f49819c8dfcf" target="_top" xlink:title="MWDialogue::DialogueManager\l::executeScript">
<polygon fill="white" stroke="black" points="838.5,-176 838.5,-206 1003.5,-206 1003.5,-176 838.5,-176"/>
<text text-anchor="start" x="846.5" y="-194" font-family="FreeSans" font-size="10.00">MWDialogue::DialogueManager</text>
<text text-anchor="middle" x="921" y="-183" font-family="FreeSans" font-size="10.00">::executeScript</text>
</a>
</g>
</g>
<!-- Node11&#45;&gt;Node12 -->
<g id="edge12" class="edge"><title>Node11&#45;&gt;Node12</title>
<path fill="none" stroke="midnightblue" d="M803.671,-193.237C815.196,-193.015 826.926,-192.79 838.284,-192.571"/>
<polygon fill="midnightblue" stroke="midnightblue" points="803.541,-189.739 793.61,-193.431 803.676,-196.738 803.541,-189.739"/>
</g>
<!-- Node13 -->
<g id="node13" class="node"><title>Node13</title>
<g id="a_node13"><a xlink:href="classMWDialogue_1_1DialogueManager.html#a868d037ce15fb41dbe6d30844beb4a35" target="_top" xlink:title="MWDialogue::DialogueManager\l::startDialogue">
<polygon fill="white" stroke="black" points="1059.5,-273 1059.5,-303 1224.5,-303 1224.5,-273 1059.5,-273"/>
<text text-anchor="start" x="1067.5" y="-291" font-family="FreeSans" font-size="10.00">MWDialogue::DialogueManager</text>
<text text-anchor="middle" x="1142" y="-280" font-family="FreeSans" font-size="10.00">::startDialogue</text>
</a>
</g>
</g>
<!-- Node12&#45;&gt;Node13 -->
<g id="edge13" class="edge"><title>Node12&#45;&gt;Node13</title>
<path fill="none" stroke="midnightblue" d="M952.929,-211.673C977.76,-227.519 1013.98,-248.979 1048,-263 1056.97,-266.695 1066.64,-269.998 1076.25,-272.899"/>
<polygon fill="midnightblue" stroke="midnightblue" points="954.62,-208.599 944.321,-206.113 950.822,-214.479 954.62,-208.599"/>
</g>
<!-- Node14 -->
<g id="node14" class="node"><title>Node14</title>
<g id="a_node14"><a xlink:href="classMWDialogue_1_1DialogueManager.html#a1145035d53dda66ac07ae0f8c7dbefcd" target="_top" xlink:title="MWDialogue::DialogueManager\l::executeTopic">
<polygon fill="white" stroke="black" points="1059.5,-224 1059.5,-254 1224.5,-254 1224.5,-224 1059.5,-224"/>
<text text-anchor="start" x="1067.5" y="-242" font-family="FreeSans" font-size="10.00">MWDialogue::DialogueManager</text>
<text text-anchor="middle" x="1142" y="-231" font-family="FreeSans" font-size="10.00">::executeTopic</text>
</a>
</g>
</g>
<!-- Node12&#45;&gt;Node14 -->
<g id="edge14" class="edge"><title>Node12&#45;&gt;Node14</title>
<path fill="none" stroke="midnightblue" d="M1000.63,-208.234C1024.15,-213.389 1049.74,-218.998 1072.55,-223.998"/>
<polygon fill="midnightblue" stroke="midnightblue" points="1001.21,-204.778 990.692,-206.056 999.711,-211.616 1001.21,-204.778"/>
</g>
<!-- Node17 -->
<g id="node17" class="node"><title>Node17</title>
<g id="a_node17"><a xlink:href="classMWDialogue_1_1DialogueManager.html#a36d60c956e4ac472f921b601a4583a00" target="_top" xlink:title="MWDialogue::DialogueManager\l::questionAnswered">
<polygon fill="white" stroke="black" points="1059.5,-175 1059.5,-205 1224.5,-205 1224.5,-175 1059.5,-175"/>
<text text-anchor="start" x="1067.5" y="-193" font-family="FreeSans" font-size="10.00">MWDialogue::DialogueManager</text>
<text text-anchor="middle" x="1142" y="-182" font-family="FreeSans" font-size="10.00">::questionAnswered</text>
</a>
</g>
</g>
<!-- Node12&#45;&gt;Node17 -->
<g id="edge17" class="edge"><title>Node12&#45;&gt;Node17</title>
<path fill="none" stroke="midnightblue" d="M1013.91,-190.58C1029.01,-190.511 1044.56,-190.44 1059.38,-190.373"/>
<polygon fill="midnightblue" stroke="midnightblue" points="1013.53,-187.082 1003.55,-190.628 1013.56,-194.082 1013.53,-187.082"/>
</g>
<!-- Node18 -->
<g id="node18" class="node"><title>Node18</title>
<g id="a_node18"><a xlink:href="classMWDialogue_1_1DialogueManager.html#a0a70aba90f927d10b86ed5f9ad9dda43" target="_top" xlink:title="MWDialogue::DialogueManager\l::checkServiceRefused">
<polygon fill="white" stroke="black" points="1059.5,-126 1059.5,-156 1224.5,-156 1224.5,-126 1059.5,-126"/>
<text text-anchor="start" x="1067.5" y="-144" font-family="FreeSans" font-size="10.00">MWDialogue::DialogueManager</text>
<text text-anchor="middle" x="1142" y="-133" font-family="FreeSans" font-size="10.00">::checkServiceRefused</text>
</a>
</g>
</g>
<!-- Node12&#45;&gt;Node18 -->
<g id="edge18" class="edge"><title>Node12&#45;&gt;Node18</title>
<path fill="none" stroke="midnightblue" d="M997.576,-173.745C1022.75,-167.998 1050.57,-161.646 1074.96,-156.077"/>
<polygon fill="midnightblue" stroke="midnightblue" points="996.677,-170.36 987.707,-175.998 998.235,-177.185 996.677,-170.36"/>
</g>
<!-- Node19 -->
<g id="node19" class="node"><title>Node19</title>
<g id="a_node19"><a xlink:href="classMWDialogue_1_1DialogueManager.html#a94736e9eec4efc82bd86daf2e5d7b2e8" target="_top" xlink:title="MWDialogue::DialogueManager::say">
<polygon fill="white" stroke="black" points="1048,-87.5 1048,-106.5 1236,-106.5 1236,-87.5 1048,-87.5"/>
<text text-anchor="middle" x="1142" y="-94.5" font-family="FreeSans" font-size="10.00">MWDialogue::DialogueManager::say</text>
</a>
</g>
</g>
<!-- Node12&#45;&gt;Node19 -->
<g id="edge19" class="edge"><title>Node12&#45;&gt;Node19</title>
<path fill="none" stroke="midnightblue" d="M950.786,-170.033C975.436,-153.044 1012.48,-129.746 1048,-116 1057.84,-112.194 1068.57,-109.103 1079.13,-106.608"/>
<polygon fill="midnightblue" stroke="midnightblue" points="948.478,-167.376 942.291,-175.977 952.491,-173.112 948.478,-167.376"/>
</g>
<!-- Node15 -->
<g id="node15" class="node"><title>Node15</title>
<g id="a_node15"><a xlink:href="classMWDialogue_1_1DialogueManager.html#a5f528ef507d6c7c9aa645208979e8d7a" target="_top" xlink:title="MWDialogue::DialogueManager\l::keywordSelected">
<polygon fill="white" stroke="black" points="1272.5,-249 1272.5,-279 1437.5,-279 1437.5,-249 1272.5,-249"/>
<text text-anchor="start" x="1280.5" y="-267" font-family="FreeSans" font-size="10.00">MWDialogue::DialogueManager</text>
<text text-anchor="middle" x="1355" y="-256" font-family="FreeSans" font-size="10.00">::keywordSelected</text>
</a>
</g>
</g>
<!-- Node14&#45;&gt;Node15 -->
<g id="edge15" class="edge"><title>Node14&#45;&gt;Node15</title>
<path fill="none" stroke="midnightblue" d="M1234.57,-249.85C1247.12,-251.336 1259.93,-252.855 1272.29,-254.319"/>
<polygon fill="midnightblue" stroke="midnightblue" points="1234.92,-246.367 1224.58,-248.666 1234.1,-253.318 1234.92,-246.367"/>
</g>
<!-- Node16 -->
<g id="node16" class="node"><title>Node16</title>
<g id="a_node16"><a xlink:href="classMWDialogue_1_1DialogueManager.html#a577a67d85d48d878f74e0037524a4801" target="_top" xlink:title="MWDialogue::DialogueManager\l::persuade">
<polygon fill="white" stroke="black" points="1272.5,-200 1272.5,-230 1437.5,-230 1437.5,-200 1272.5,-200"/>
<text text-anchor="start" x="1280.5" y="-218" font-family="FreeSans" font-size="10.00">MWDialogue::DialogueManager</text>
<text text-anchor="middle" x="1355" y="-207" font-family="FreeSans" font-size="10.00">::persuade</text>
</a>
</g>
</g>
<!-- Node14&#45;&gt;Node16 -->
<g id="edge16" class="edge"><title>Node14&#45;&gt;Node16</title>
<path fill="none" stroke="midnightblue" d="M1234.57,-228.584C1247.12,-227.157 1259.93,-225.699 1272.29,-224.294"/>
<polygon fill="midnightblue" stroke="midnightblue" points="1234.12,-225.113 1224.58,-229.721 1234.91,-232.068 1234.12,-225.113"/>
</g>
<!-- Node21 -->
<g id="node21" class="node"><title>Node21</title>
<g id="a_node21"><a xlink:href="classMWScript_1_1ScriptManager.html#af4b17515273355f06a3e2a4b5d6f15d6" target="_top" xlink:title="MWScript::ScriptManager\l::compile">
<polygon fill="white" stroke="black" points="852.5,-44 852.5,-74 989.5,-74 989.5,-44 852.5,-44"/>
<text text-anchor="start" x="860.5" y="-62" font-family="FreeSans" font-size="10.00">MWScript::ScriptManager</text>
<text text-anchor="middle" x="921" y="-51" font-family="FreeSans" font-size="10.00">::compile</text>
</a>
</g>
</g>
<!-- Node20&#45;&gt;Node21 -->
<g id="edge21" class="edge"><title>Node20&#45;&gt;Node21</title>
<path fill="none" stroke="midnightblue" d="M775.628,-127.716C781.883,-125.586 788.096,-123.335 794,-121 828.914,-107.192 867.418,-87.5606 892.559,-74.1086"/>
<polygon fill="midnightblue" stroke="midnightblue" points="774.202,-124.501 765.802,-130.958 776.395,-131.148 774.202,-124.501"/>
</g>
<!-- Node22 -->
<g id="node22" class="node"><title>Node22</title>
<g id="a_node22"><a xlink:href="classMWScript_1_1ScriptManager.html#a7cc2e3f3218e3d3c052e615da75027e5" target="_top" xlink:title="Run the script with the given name (compile first, if not compiled yet) ">
<polygon fill="white" stroke="black" points="1063,-49.5 1063,-68.5 1221,-68.5 1221,-49.5 1063,-49.5"/>
<text text-anchor="middle" x="1142" y="-56.5" font-family="FreeSans" font-size="10.00">MWScript::ScriptManager::run</text>
</a>
</g>
</g>
<!-- Node21&#45;&gt;Node22 -->
<g id="edge22" class="edge"><title>Node21&#45;&gt;Node22</title>
<path fill="none" stroke="midnightblue" d="M999.983,-59C1020.39,-59 1042.39,-59 1062.8,-59"/>
<polygon fill="midnightblue" stroke="midnightblue" points="999.793,-55.5001 989.793,-59 999.793,-62.5001 999.793,-55.5001"/>
</g>
<!-- Node23 -->
<g id="node23" class="node"><title>Node23</title>
<g id="a_node23"><a xlink:href="classMWScript_1_1ScriptManager.html#a5f52914640c71170ad20ab768e06296d" target="_top" xlink:title="MWScript::ScriptManager\l::compileAll">
<polygon fill="white" stroke="black" points="1073.5,-0 1073.5,-30 1210.5,-30 1210.5,-0 1073.5,-0"/>
<text text-anchor="start" x="1081.5" y="-18" font-family="FreeSans" font-size="10.00">MWScript::ScriptManager</text>
<text text-anchor="middle" x="1142" y="-7" font-family="FreeSans" font-size="10.00">::compileAll</text>
</a>
</g>
</g>
<!-- Node21&#45;&gt;Node23 -->
<g id="edge23" class="edge"><title>Node21&#45;&gt;Node23</title>
<path fill="none" stroke="midnightblue" d="M999.898,-43.3493C1023.82,-38.5422 1049.95,-33.2926 1073.15,-28.6319"/>
<polygon fill="midnightblue" stroke="midnightblue" points="998.908,-39.9782 989.793,-45.3795 1000.29,-46.841 998.908,-39.9782"/>
</g>
<!-- Node25 -->
<g id="node25" class="node"><title>Node25</title>
<g id="a_node25"><a xlink:href="classCompiler_1_1ScriptParser.html#afb18ea8cd27cc9563428f9097cb7e6a6" target="_top" xlink:title="Compiler::ScriptParser\l::parseSpecial">
<polygon fill="white" stroke="black" points="649.5,-82 649.5,-112 772.5,-112 772.5,-82 649.5,-82"/>
<text text-anchor="start" x="657.5" y="-100" font-family="FreeSans" font-size="10.00">Compiler::ScriptParser</text>
<text text-anchor="middle" x="711" y="-89" font-family="FreeSans" font-size="10.00">::parseSpecial</text>
</a>
</g>
</g>
<!-- Node24&#45;&gt;Node25 -->
<g id="edge25" class="edge"><title>Node24&#45;&gt;Node25</title>
<path fill="none" stroke="midnightblue" d="M594.799,-112.484C612.805,-110.064 631.991,-107.485 649.436,-105.14"/>
<polygon fill="midnightblue" stroke="midnightblue" points="594.091,-109.048 584.646,-113.849 595.023,-115.985 594.091,-109.048"/>
</g>
</g>
</svg>
