<?xml version="1.0" encoding="UTF-8" standalone="no"?>
<!DOCTYPE svg PUBLIC "-//W3C//DTD SVG 1.1//EN"
 "http://www.w3.org/Graphics/SVG/1.1/DTD/svg11.dtd">
<!-- Generated by graphviz version 2.36.0 (20140111.2315)
 -->
<!-- Title: MWRender::SetUpBlendVisitor::apply Pages: 1 -->
<svg width="602pt" height="224pt"
 viewBox="0.00 0.00 602.00 224.00" xmlns="http://www.w3.org/2000/svg" xmlns:xlink="http://www.w3.org/1999/xlink">
<g id="graph0" class="graph" transform="scale(1 1) rotate(0) translate(4 220)">
<title>MWRender::SetUpBlendVisitor::apply</title>
<polygon fill="white" stroke="none" points="-4,4 -4,-220 598,-220 598,4 -4,4"/>
<!-- Node1 -->
<g id="node1" class="node"><title>Node1</title>
<polygon fill="#bfbfbf" stroke="black" points="0.5,-88 0.5,-118 159.5,-118 159.5,-88 0.5,-88"/>
<text text-anchor="start" x="8.5" y="-106" font-family="FreeSans" font-size="10.00">MWRender::SetUpBlendVisitor</text>
<text text-anchor="middle" x="80" y="-95" font-family="FreeSans" font-size="10.00">::apply</text>
</g>
<!-- Node2 -->
<g id="node2" class="node"><title>Node2</title>
<g id="a_node2"><a xlink:href="namespaceTerrain.html#aad89e341593820050c424ef74fd150a9" target="_top" xlink:title="Terrain::traverse">
<polygon fill="white" stroke="black" points="196,-93.5 196,-112.5 290,-112.5 290,-93.5 196,-93.5"/>
<text text-anchor="middle" x="243" y="-100.5" font-family="FreeSans" font-size="10.00">Terrain::traverse</text>
</a>
</g>
</g>
<!-- Node1&#45;&gt;Node2 -->
<g id="edge1" class="edge"><title>Node1&#45;&gt;Node2</title>
<path fill="none" stroke="midnightblue" d="M159.613,-103C168.466,-103 177.349,-103 185.834,-103"/>
<polygon fill="midnightblue" stroke="midnightblue" points="185.958,-106.5 195.958,-103 185.958,-99.5001 185.958,-106.5"/>
</g>
<!-- Node3 -->
<g id="node3" class="node"><title>Node3</title>
<g id="a_node3"><a xlink:href="classTerrain_1_1QuadTreeNode.html#ac790df8c46db2967c539932c60e52049" target="_top" xlink:title="Terrain::QuadTreeNode\l::hasValidBounds">
<polygon fill="white" stroke="black" points="326.5,-186 326.5,-216 451.5,-216 451.5,-186 326.5,-186"/>
<text text-anchor="start" x="334.5" y="-204" font-family="FreeSans" font-size="10.00">Terrain::QuadTreeNode</text>
<text text-anchor="middle" x="389" y="-193" font-family="FreeSans" font-size="10.00">::hasValidBounds</text>
</a>
</g>
</g>
<!-- Node2&#45;&gt;Node3 -->
<g id="edge2" class="edge"><title>Node2&#45;&gt;Node3</title>
<path fill="none" stroke="midnightblue" d="M252.739,-112.687C266.876,-127.887 296.2,-157.51 326,-176 329.143,-177.95 332.465,-179.803 335.872,-181.551"/>
<polygon fill="midnightblue" stroke="midnightblue" points="334.495,-184.772 345.026,-185.933 337.517,-178.458 334.495,-184.772"/>
</g>
<!-- Node4 -->
<g id="node4" class="node"><title>Node4</title>
<g id="a_node4"><a xlink:href="classTerrain_1_1QuadTreeNode.html#a7e3bc8b56e4ccdf10e5e5824633b3511" target="_top" xlink:title="Terrain::QuadTreeNode\l::getBoundingBox">
<polygon fill="white" stroke="black" points="326.5,-137 326.5,-167 451.5,-167 451.5,-137 326.5,-137"/>
<text text-anchor="start" x="334.5" y="-155" font-family="FreeSans" font-size="10.00">Terrain::QuadTreeNode</text>
<text text-anchor="middle" x="389" y="-144" font-family="FreeSans" font-size="10.00">::getBoundingBox</text>
</a>
</g>
</g>
<!-- Node2&#45;&gt;Node4 -->
<g id="edge3" class="edge"><title>Node2&#45;&gt;Node4</title>
<path fill="none" stroke="midnightblue" d="M272.106,-112.564C289.78,-118.578 313.16,-126.533 334.289,-133.723"/>
<polygon fill="midnightblue" stroke="midnightblue" points="333.215,-137.055 343.81,-136.963 335.47,-130.428 333.215,-137.055"/>
</g>
<!-- Node5 -->
<g id="node5" class="node"><title>Node5</title>
<g id="a_node5"><a xlink:href="classTerrain_1_1LodCallback.html#ac6841ac51efcba58d253cb47591e75cb" target="_top" xlink:title="Terrain::LodCallback\l::isSufficientDetail">
<polygon fill="white" stroke="black" points="333.5,-88 333.5,-118 444.5,-118 444.5,-88 333.5,-88"/>
<text text-anchor="start" x="341.5" y="-106" font-family="FreeSans" font-size="10.00">Terrain::LodCallback</text>
<text text-anchor="middle" x="389" y="-95" font-family="FreeSans" font-size="10.00">::isSufficientDetail</text>
</a>
</g>
</g>
<!-- Node2&#45;&gt;Node5 -->
<g id="edge4" class="edge"><title>Node2&#45;&gt;Node5</title>
<path fill="none" stroke="midnightblue" d="M290.355,-103C300.868,-103 312.219,-103 323.335,-103"/>
<polygon fill="midnightblue" stroke="midnightblue" points="323.446,-106.5 333.446,-103 323.446,-99.5001 323.446,-106.5"/>
</g>
<!-- Node6 -->
<g id="node6" class="node"><title>Node6</title>
<g id="a_node6"><a xlink:href="classTerrain_1_1ViewData.html#a35a3a615bfb159d28ba39a0213ca9e50" target="_top" xlink:title="Terrain::ViewData::add">
<polygon fill="white" stroke="black" points="327.5,-49.5 327.5,-68.5 450.5,-68.5 450.5,-49.5 327.5,-49.5"/>
<text text-anchor="middle" x="389" y="-56.5" font-family="FreeSans" font-size="10.00">Terrain::ViewData::add</text>
</a>
</g>
</g>
<!-- Node2&#45;&gt;Node6 -->
<g id="edge5" class="edge"><title>Node2&#45;&gt;Node6</title>
<path fill="none" stroke="midnightblue" d="M275.246,-93.4527C296.286,-87.0237 324.249,-78.4794 347.064,-71.5082"/>
<polygon fill="midnightblue" stroke="midnightblue" points="348.274,-74.7982 356.815,-68.5287 346.229,-68.1037 348.274,-74.7982"/>
</g>
<!-- Node8 -->
<g id="node8" class="node"><title>Node8</title>
<g id="a_node8"><a xlink:href="classTerrain_1_1QuadTreeNode.html#a54d91fefcb6bc5b88c96ecb5c30fc998" target="_top" xlink:title="Terrain::QuadTreeNode\l::getChild">
<polygon fill="white" stroke="black" points="326.5,-0 326.5,-30 451.5,-30 451.5,-0 326.5,-0"/>
<text text-anchor="start" x="334.5" y="-18" font-family="FreeSans" font-size="10.00">Terrain::QuadTreeNode</text>
<text text-anchor="middle" x="389" y="-7" font-family="FreeSans" font-size="10.00">::getChild</text>
</a>
</g>
</g>
<!-- Node2&#45;&gt;Node8 -->
<g id="edge7" class="edge"><title>Node2&#45;&gt;Node8</title>
<path fill="none" stroke="midnightblue" d="M254.472,-93.4341C269.45,-80.1201 298.256,-55.8558 326,-40 329.472,-38.016 333.132,-36.1131 336.867,-34.3056"/>
<polygon fill="midnightblue" stroke="midnightblue" points="338.604,-37.36 346.241,-30.0169 335.691,-30.9946 338.604,-37.36"/>
</g>
<!-- Node7 -->
<g id="node7" class="node"><title>Node7</title>
<g id="a_node7"><a xlink:href="structTerrain_1_1ViewData_1_1Entry.html#a78d943c398504a29397bc29044df17b4" target="_top" xlink:title="Terrain::ViewData::\lEntry::set">
<polygon fill="white" stroke="black" points="488.5,-44 488.5,-74 593.5,-74 593.5,-44 488.5,-44"/>
<text text-anchor="start" x="496.5" y="-62" font-family="FreeSans" font-size="10.00">Terrain::ViewData::</text>
<text text-anchor="middle" x="541" y="-51" font-family="FreeSans" font-size="10.00">Entry::set</text>
</a>
</g>
</g>
<!-- Node6&#45;&gt;Node7 -->
<g id="edge6" class="edge"><title>Node6&#45;&gt;Node7</title>
<path fill="none" stroke="midnightblue" d="M450.578,-59C459.676,-59 469.068,-59 478.191,-59"/>
<polygon fill="midnightblue" stroke="midnightblue" points="478.347,-62.5001 488.347,-59 478.347,-55.5001 478.347,-62.5001"/>
</g>
</g>
</svg>
