<?xml version="1.0" encoding="UTF-8" standalone="no"?>
<!DOCTYPE svg PUBLIC "-//W3C//DTD SVG 1.1//EN"
 "http://www.w3.org/Graphics/SVG/1.1/DTD/svg11.dtd">
<!-- Generated by graphviz version 2.36.0 (20140111.2315)
 -->
<!-- Title: MWWorld::MoonModel::rotation Pages: 1 -->
<svg width="622pt" height="38pt"
 viewBox="0.00 0.00 622.00 38.00" xmlns="http://www.w3.org/2000/svg" xmlns:xlink="http://www.w3.org/1999/xlink">
<g id="graph0" class="graph" transform="scale(1 1) rotate(0) translate(4 34)">
<title>MWWorld::MoonModel::rotation</title>
<polygon fill="white" stroke="none" points="-4,4 -4,-34 618,-34 618,4 -4,4"/>
<!-- Node1 -->
<g id="node1" class="node"><title>Node1</title>
<polygon fill="#bfbfbf" stroke="black" points="0.5,-0 0.5,-30 119.5,-30 119.5,-0 0.5,-0"/>
<text text-anchor="start" x="8.5" y="-18" font-family="FreeSans" font-size="10.00">MWWorld::MoonModel</text>
<text text-anchor="middle" x="60" y="-7" font-family="FreeSans" font-size="10.00">::rotation</text>
</g>
<!-- Node2 -->
<g id="node2" class="node"><title>Node2</title>
<g id="a_node2"><a xlink:href="classMWWorld_1_1MoonModel.html#af66aafa5f98652f82b60f2165fe67bd8" target="_top" xlink:title="MWWorld::MoonModel\l::angle">
<polygon fill="white" stroke="black" points="156.5,-0 156.5,-30 275.5,-30 275.5,-0 156.5,-0"/>
<text text-anchor="start" x="164.5" y="-18" font-family="FreeSans" font-size="10.00">MWWorld::MoonModel</text>
<text text-anchor="middle" x="216" y="-7" font-family="FreeSans" font-size="10.00">::angle</text>
</a>
</g>
</g>
<!-- Node1&#45;&gt;Node2 -->
<g id="edge1" class="edge"><title>Node1&#45;&gt;Node2</title>
<path fill="none" stroke="midnightblue" d="M129.894,-15C138.691,-15 147.631,-15 156.248,-15"/>
<polygon fill="midnightblue" stroke="midnightblue" points="129.66,-11.5001 119.66,-15 129.66,-18.5001 129.66,-11.5001"/>
</g>
<!-- Node3 -->
<g id="node3" class="node"><title>Node3</title>
<g id="a_node3"><a xlink:href="classMWWorld_1_1MoonModel.html#af76422ed6c511432a5da4f396f77a5fb" target="_top" xlink:title="MWWorld::MoonModel\l::calculateState">
<polygon fill="white" stroke="black" points="312.5,-0 312.5,-30 431.5,-30 431.5,-0 312.5,-0"/>
<text text-anchor="start" x="320.5" y="-18" font-family="FreeSans" font-size="10.00">MWWorld::MoonModel</text>
<text text-anchor="middle" x="372" y="-7" font-family="FreeSans" font-size="10.00">::calculateState</text>
</a>
</g>
</g>
<!-- Node2&#45;&gt;Node3 -->
<g id="edge2" class="edge"><title>Node2&#45;&gt;Node3</title>
<path fill="none" stroke="midnightblue" d="M285.894,-15C294.691,-15 303.631,-15 312.248,-15"/>
<polygon fill="midnightblue" stroke="midnightblue" points="285.66,-11.5001 275.66,-15 285.66,-18.5001 285.66,-11.5001"/>
</g>
<!-- Node4 -->
<g id="node4" class="node"><title>Node4</title>
<g id="a_node4"><a xlink:href="classMWWorld_1_1WeatherManager.html#ad158eea4ae0022e40b11c1c138fc80ab" target="_top" xlink:title="MWWorld::WeatherManager\l::update">
<polygon fill="white" stroke="black" points="468,-0 468,-30 614,-30 614,-0 468,-0"/>
<text text-anchor="start" x="476" y="-18" font-family="FreeSans" font-size="10.00">MWWorld::WeatherManager</text>
<text text-anchor="middle" x="541" y="-7" font-family="FreeSans" font-size="10.00">::update</text>
</a>
</g>
</g>
<!-- Node3&#45;&gt;Node4 -->
<g id="edge3" class="edge"><title>Node3&#45;&gt;Node4</title>
<path fill="none" stroke="midnightblue" d="M442.127,-15C450.633,-15 459.344,-15 467.893,-15"/>
<polygon fill="midnightblue" stroke="midnightblue" points="441.878,-11.5001 431.878,-15 441.878,-18.5001 441.878,-11.5001"/>
</g>
</g>
</svg>
