<?xml version="1.0" encoding="UTF-8" standalone="no"?>
<!DOCTYPE svg PUBLIC "-//W3C//DTD SVG 1.1//EN"
 "http://www.w3.org/Graphics/SVG/1.1/DTD/svg11.dtd">
<!-- Generated by graphviz version 2.36.0 (20140111.2315)
 -->
<!-- Title: CSMPrefs::Setting::getLabel Pages: 1 -->
<svg width="450pt" height="136pt"
 viewBox="0.00 0.00 450.00 136.00" xmlns="http://www.w3.org/2000/svg" xmlns:xlink="http://www.w3.org/1999/xlink">
<g id="graph0" class="graph" transform="scale(1 1) rotate(0) translate(4 132)">
<title>CSMPrefs::Setting::getLabel</title>
<polygon fill="white" stroke="none" points="-4,4 -4,-132 446,-132 446,4 -4,4"/>
<!-- Node1 -->
<g id="node1" class="node"><title>Node1</title>
<polygon fill="#bfbfbf" stroke="black" points="0.5,-49 0.5,-79 101.5,-79 101.5,-49 0.5,-49"/>
<text text-anchor="start" x="8.5" y="-67" font-family="FreeSans" font-size="10.00">CSMPrefs::Setting::</text>
<text text-anchor="middle" x="51" y="-56" font-family="FreeSans" font-size="10.00">getLabel</text>
</g>
<!-- Node2 -->
<g id="node2" class="node"><title>Node2</title>
<g id="a_node2"><a xlink:href="classCSMPrefs_1_1ModifierSetting.html#a79864234c89c8a69386e4564774421a6" target="_top" xlink:title="CSMPrefs::ModifierSetting\l::makeWidgets">
<polygon fill="white" stroke="black" points="140,-98 140,-128 270,-128 270,-98 140,-98"/>
<text text-anchor="start" x="148" y="-116" font-family="FreeSans" font-size="10.00">CSMPrefs::ModifierSetting</text>
<text text-anchor="middle" x="205" y="-105" font-family="FreeSans" font-size="10.00">::makeWidgets</text>
</a>
</g>
</g>
<!-- Node1&#45;&gt;Node2 -->
<g id="edge1" class="edge"><title>Node1&#45;&gt;Node2</title>
<path fill="none" stroke="midnightblue" d="M108.64,-82.2591C124.672,-87.4273 141.936,-92.9924 157.309,-97.9484"/>
<polygon fill="midnightblue" stroke="midnightblue" points="109.437,-78.8385 98.8453,-79.1014 107.289,-85.5009 109.437,-78.8385"/>
</g>
<!-- Node3 -->
<g id="node3" class="node"><title>Node3</title>
<g id="a_node3"><a xlink:href="classCSMPrefs_1_1ShortcutSetting.html#a21318642a58432e3a4d88ecafbe26b4e" target="_top" xlink:title="CSMPrefs::ShortcutSetting\l::makeWidgets">
<polygon fill="white" stroke="black" points="138.5,-49 138.5,-79 271.5,-79 271.5,-49 138.5,-49"/>
<text text-anchor="start" x="146.5" y="-67" font-family="FreeSans" font-size="10.00">CSMPrefs::ShortcutSetting</text>
<text text-anchor="middle" x="205" y="-56" font-family="FreeSans" font-size="10.00">::makeWidgets</text>
</a>
</g>
</g>
<!-- Node1&#45;&gt;Node3 -->
<g id="edge2" class="edge"><title>Node1&#45;&gt;Node3</title>
<path fill="none" stroke="midnightblue" d="M111.827,-64C120.535,-64 129.54,-64 138.356,-64"/>
<polygon fill="midnightblue" stroke="midnightblue" points="111.771,-60.5001 101.77,-64 111.77,-67.5001 111.771,-60.5001"/>
</g>
<!-- Node4 -->
<g id="node4" class="node"><title>Node4</title>
<g id="a_node4"><a xlink:href="classCSVPrefs_1_1KeyBindingPage.html#aa09203d023a828b3e3c4f895c10f7ee5" target="_top" xlink:title="CSVPrefs::KeyBindingPage\l::addSetting">
<polygon fill="white" stroke="black" points="138,-0 138,-30 272,-30 272,-0 138,-0"/>
<text text-anchor="start" x="146" y="-18" font-family="FreeSans" font-size="10.00">CSVPrefs::KeyBindingPage</text>
<text text-anchor="middle" x="205" y="-7" font-family="FreeSans" font-size="10.00">::addSetting</text>
</a>
</g>
</g>
<!-- Node1&#45;&gt;Node4 -->
<g id="edge3" class="edge"><title>Node1&#45;&gt;Node4</title>
<path fill="none" stroke="midnightblue" d="M108.64,-45.7409C124.672,-40.5727 141.936,-35.0076 157.309,-30.0516"/>
<polygon fill="midnightblue" stroke="midnightblue" points="107.289,-42.4991 98.8453,-48.8986 109.437,-49.1615 107.289,-42.4991"/>
</g>
<!-- Node5 -->
<g id="node5" class="node"><title>Node5</title>
<g id="a_node5"><a xlink:href="classCSVPrefs_1_1KeyBindingPage.html#afca2afcffb5b2f912236b26f3acd9327" target="_top" xlink:title="CSVPrefs::KeyBindingPage\l::KeyBindingPage">
<polygon fill="white" stroke="black" points="308,-0 308,-30 442,-30 442,-0 308,-0"/>
<text text-anchor="start" x="316" y="-18" font-family="FreeSans" font-size="10.00">CSVPrefs::KeyBindingPage</text>
<text text-anchor="middle" x="375" y="-7" font-family="FreeSans" font-size="10.00">::KeyBindingPage</text>
</a>
</g>
</g>
<!-- Node4&#45;&gt;Node5 -->
<g id="edge4" class="edge"><title>Node4&#45;&gt;Node5</title>
<path fill="none" stroke="midnightblue" d="M282.595,-15C291.013,-15 299.532,-15 307.809,-15"/>
<polygon fill="midnightblue" stroke="midnightblue" points="282.398,-11.5001 272.398,-15 282.398,-18.5001 282.398,-11.5001"/>
</g>
</g>
</svg>
