<?xml version="1.0" encoding="UTF-8" standalone="no"?>
<!DOCTYPE svg PUBLIC "-//W3C//DTD SVG 1.1//EN"
 "http://www.w3.org/Graphics/SVG/1.1/DTD/svg11.dtd">
<!-- Generated by graphviz version 2.36.0 (20140111.2315)
 -->
<!-- Title: MWGui::CharacterCreation::selectCreatedClass Pages: 1 -->
<svg width="682pt" height="786pt"
 viewBox="0.00 0.00 682.00 786.00" xmlns="http://www.w3.org/2000/svg" xmlns:xlink="http://www.w3.org/1999/xlink">
<g id="graph0" class="graph" transform="scale(1 1) rotate(0) translate(4 782)">
<title>MWGui::CharacterCreation::selectCreatedClass</title>
<polygon fill="white" stroke="none" points="-4,4 -4,-782 678,-782 678,4 -4,4"/>
<!-- Node1 -->
<g id="node1" class="node"><title>Node1</title>
<polygon fill="#bfbfbf" stroke="black" points="0.5,-459 0.5,-489 131.5,-489 131.5,-459 0.5,-459"/>
<text text-anchor="start" x="8.5" y="-477" font-family="FreeSans" font-size="10.00">MWGui::CharacterCreation</text>
<text text-anchor="middle" x="66" y="-466" font-family="FreeSans" font-size="10.00">::selectCreatedClass</text>
</g>
<!-- Node2 -->
<g id="node2" class="node"><title>Node2</title>
<g id="a_node2"><a xlink:href="classMWGui_1_1CreateClassDialog.html#a7bc6bc203d45ee0b8aeb616ce1f9f30c" target="_top" xlink:title="MWGui::CreateClassDialog\l::getName">
<polygon fill="white" stroke="black" points="174,-748 174,-778 306,-778 306,-748 174,-748"/>
<text text-anchor="start" x="182" y="-766" font-family="FreeSans" font-size="10.00">MWGui::CreateClassDialog</text>
<text text-anchor="middle" x="240" y="-755" font-family="FreeSans" font-size="10.00">::getName</text>
</a>
</g>
</g>
<!-- Node1&#45;&gt;Node2 -->
<g id="edge1" class="edge"><title>Node1&#45;&gt;Node2</title>
<path fill="none" stroke="midnightblue" d="M68.423,-489.226C73.4011,-533.89 93.9832,-665.944 168,-738 169.475,-739.436 171.037,-740.789 172.67,-742.066"/>
<polygon fill="midnightblue" stroke="midnightblue" points="171.083,-745.213 181.351,-747.824 174.952,-739.38 171.083,-745.213"/>
</g>
<!-- Node3 -->
<g id="node3" class="node"><title>Node3</title>
<g id="a_node3"><a xlink:href="classMWGui_1_1CreateClassDialog.html#afa584fee2654085da39190695aefbf6a" target="_top" xlink:title="MWGui::CreateClassDialog\l::getDescription">
<polygon fill="white" stroke="black" points="174,-699 174,-729 306,-729 306,-699 174,-699"/>
<text text-anchor="start" x="182" y="-717" font-family="FreeSans" font-size="10.00">MWGui::CreateClassDialog</text>
<text text-anchor="middle" x="240" y="-706" font-family="FreeSans" font-size="10.00">::getDescription</text>
</a>
</g>
</g>
<!-- Node1&#45;&gt;Node3 -->
<g id="edge2" class="edge"><title>Node1&#45;&gt;Node3</title>
<path fill="none" stroke="midnightblue" d="M69.9015,-489.163C78.1158,-528.034 105.137,-632.163 168,-689 169.733,-690.567 171.57,-692.036 173.488,-693.415"/>
<polygon fill="midnightblue" stroke="midnightblue" points="172.001,-696.611 182.346,-698.895 175.684,-690.658 172.001,-696.611"/>
</g>
<!-- Node4 -->
<g id="node4" class="node"><title>Node4</title>
<g id="a_node4"><a xlink:href="classMWGui_1_1CreateClassDialog.html#a5d690786fc191372d0a1ff6ef8590485" target="_top" xlink:title="MWGui::CreateClassDialog\l::getSpecializationId">
<polygon fill="white" stroke="black" points="174,-650 174,-680 306,-680 306,-650 174,-650"/>
<text text-anchor="start" x="182" y="-668" font-family="FreeSans" font-size="10.00">MWGui::CreateClassDialog</text>
<text text-anchor="middle" x="240" y="-657" font-family="FreeSans" font-size="10.00">::getSpecializationId</text>
</a>
</g>
</g>
<!-- Node1&#45;&gt;Node4 -->
<g id="edge3" class="edge"><title>Node1&#45;&gt;Node4</title>
<path fill="none" stroke="midnightblue" d="M72.2149,-489.223C84.0732,-521.634 116.12,-597.929 168,-640 170.236,-641.813 172.613,-643.5 175.091,-645.068"/>
<polygon fill="midnightblue" stroke="midnightblue" points="173.403,-648.134 183.84,-649.954 176.816,-642.022 173.403,-648.134"/>
</g>
<!-- Node5 -->
<g id="node5" class="node"><title>Node5</title>
<g id="a_node5"><a xlink:href="classMWGui_1_1CreateClassDialog.html#a3f820557b803a156c166f92de173e63d" target="_top" xlink:title="MWGui::CreateClassDialog\l::getFavoriteAttributes">
<polygon fill="white" stroke="black" points="174,-601 174,-631 306,-631 306,-601 174,-601"/>
<text text-anchor="start" x="182" y="-619" font-family="FreeSans" font-size="10.00">MWGui::CreateClassDialog</text>
<text text-anchor="middle" x="240" y="-608" font-family="FreeSans" font-size="10.00">::getFavoriteAttributes</text>
</a>
</g>
</g>
<!-- Node1&#45;&gt;Node5 -->
<g id="edge4" class="edge"><title>Node1&#45;&gt;Node5</title>
<path fill="none" stroke="midnightblue" d="M76.2763,-489.151C92.1337,-513.856 126.767,-562.875 168,-591 170.895,-592.974 173.962,-594.81 177.134,-596.513"/>
<polygon fill="midnightblue" stroke="midnightblue" points="175.769,-599.741 186.293,-600.97 178.833,-593.447 175.769,-599.741"/>
</g>
<!-- Node7 -->
<g id="node7" class="node"><title>Node7</title>
<g id="a_node7"><a xlink:href="classMWGui_1_1CreateClassDialog.html#a67cb14a17901598b26187cd09ecd950e" target="_top" xlink:title="MWGui::CreateClassDialog\l::getMajorSkills">
<polygon fill="white" stroke="black" points="174,-552 174,-582 306,-582 306,-552 174,-552"/>
<text text-anchor="start" x="182" y="-570" font-family="FreeSans" font-size="10.00">MWGui::CreateClassDialog</text>
<text text-anchor="middle" x="240" y="-559" font-family="FreeSans" font-size="10.00">::getMajorSkills</text>
</a>
</g>
</g>
<!-- Node1&#45;&gt;Node7 -->
<g id="edge6" class="edge"><title>Node1&#45;&gt;Node7</title>
<path fill="none" stroke="midnightblue" d="M86.2071,-489.11C105.88,-504.05 137.778,-526.817 168,-542 172.299,-544.16 176.829,-546.215 181.436,-548.152"/>
<polygon fill="midnightblue" stroke="midnightblue" points="180.365,-551.493 190.95,-551.955 182.964,-544.993 180.365,-551.493"/>
</g>
<!-- Node8 -->
<g id="node8" class="node"><title>Node8</title>
<g id="a_node8"><a xlink:href="classMWGui_1_1CreateClassDialog.html#af1529a7d9669f12627099941af58ffe2" target="_top" xlink:title="MWGui::CreateClassDialog\l::getMinorSkills">
<polygon fill="white" stroke="black" points="174,-503 174,-533 306,-533 306,-503 174,-503"/>
<text text-anchor="start" x="182" y="-521" font-family="FreeSans" font-size="10.00">MWGui::CreateClassDialog</text>
<text text-anchor="middle" x="240" y="-510" font-family="FreeSans" font-size="10.00">::getMinorSkills</text>
</a>
</g>
</g>
<!-- Node1&#45;&gt;Node8 -->
<g id="edge7" class="edge"><title>Node1&#45;&gt;Node8</title>
<path fill="none" stroke="midnightblue" d="M125.712,-489.019C140.023,-492.68 155.46,-496.629 170.195,-500.399"/>
<polygon fill="midnightblue" stroke="midnightblue" points="169.706,-503.886 180.261,-502.974 171.441,-497.105 169.706,-503.886"/>
</g>
<!-- Node9 -->
<g id="node9" class="node"><title>Node9</title>
<g id="a_node9"><a xlink:href="classMWBase_1_1Environment.html#a73f12633762b049c03c80fe215873faa" target="_top" xlink:title="Return instance of this class. ">
<polygon fill="white" stroke="black" points="536.5,-300.5 536.5,-319.5 667.5,-319.5 667.5,-300.5 536.5,-300.5"/>
<text text-anchor="middle" x="602" y="-307.5" font-family="FreeSans" font-size="10.00">MWBase::Environment::get</text>
</a>
</g>
</g>
<!-- Node1&#45;&gt;Node9 -->
<g id="edge8" class="edge"><title>Node1&#45;&gt;Node9</title>
<path fill="none" stroke="midnightblue" d="M131.584,-474.22C181.501,-473.079 251.975,-468.594 312,-454 397.177,-433.29 416.282,-418.545 494,-378 524.735,-361.966 558.153,-339.922 579.318,-325.333"/>
<polygon fill="midnightblue" stroke="midnightblue" points="581.384,-328.159 587.595,-319.576 577.387,-322.412 581.384,-328.159"/>
</g>
<!-- Node10 -->
<g id="node10" class="node"><title>Node10</title>
<g id="a_node10"><a xlink:href="classMWBase_1_1Environment.html#a571bbf2793948af02f188c25f0a4ba23" target="_top" xlink:title="MWBase::Environment\l::getMechanicsManager">
<polygon fill="white" stroke="black" points="180.5,-415 180.5,-445 299.5,-445 299.5,-415 180.5,-415"/>
<text text-anchor="start" x="188.5" y="-433" font-family="FreeSans" font-size="10.00">MWBase::Environment</text>
<text text-anchor="middle" x="240" y="-422" font-family="FreeSans" font-size="10.00">::getMechanicsManager</text>
</a>
</g>
</g>
<!-- Node1&#45;&gt;Node10 -->
<g id="edge9" class="edge"><title>Node1&#45;&gt;Node10</title>
<path fill="none" stroke="midnightblue" d="M125.712,-458.981C140.023,-455.32 155.46,-451.371 170.195,-447.601"/>
<polygon fill="midnightblue" stroke="midnightblue" points="171.441,-450.895 180.261,-445.026 169.706,-444.114 171.441,-450.895"/>
</g>
<!-- Node11 -->
<g id="node11" class="node"><title>Node11</title>
<g id="a_node11"><a xlink:href="classMWBase_1_1MechanicsManager.html#a152cdcedaa8829b72e545de833f0275a" target="_top" xlink:title="Set player class to stock class. ">
<polygon fill="white" stroke="black" points="168,-366 168,-396 312,-396 312,-366 168,-366"/>
<text text-anchor="start" x="176" y="-384" font-family="FreeSans" font-size="10.00">MWBase::MechanicsManager</text>
<text text-anchor="middle" x="240" y="-373" font-family="FreeSans" font-size="10.00">::setPlayerClass</text>
</a>
</g>
</g>
<!-- Node1&#45;&gt;Node11 -->
<g id="edge10" class="edge"><title>Node1&#45;&gt;Node11</title>
<path fill="none" stroke="midnightblue" d="M85.7634,-458.851C105.345,-443.617 137.404,-420.26 168,-405 171.566,-403.221 175.295,-401.525 179.096,-399.916"/>
<polygon fill="midnightblue" stroke="midnightblue" points="180.657,-403.062 188.645,-396.102 178.06,-396.561 180.657,-403.062"/>
</g>
<!-- Node12 -->
<g id="node12" class="node"><title>Node12</title>
<g id="a_node12"><a xlink:href="classMWBase_1_1Environment.html#aeeef9a580df0312f0a9b7380488dea21" target="_top" xlink:title="MWBase::Environment\l::getWindowManager">
<polygon fill="white" stroke="black" points="364.5,-339 364.5,-369 477.5,-369 477.5,-339 364.5,-339"/>
<text text-anchor="start" x="372.5" y="-357" font-family="FreeSans" font-size="10.00">MWBase::Environment</text>
<text text-anchor="middle" x="421" y="-346" font-family="FreeSans" font-size="10.00">::getWindowManager</text>
</a>
</g>
</g>
<!-- Node1&#45;&gt;Node12 -->
<g id="edge11" class="edge"><title>Node1&#45;&gt;Node12</title>
<path fill="none" stroke="midnightblue" d="M74.415,-458.824C88.4118,-432.142 121.545,-377.61 168,-356 226.603,-328.739 301.488,-332.275 354.348,-340.142"/>
<polygon fill="midnightblue" stroke="midnightblue" points="353.86,-343.608 364.284,-341.71 354.951,-336.694 353.86,-343.608"/>
</g>
<!-- Node13 -->
<g id="node13" class="node"><title>Node13</title>
<g id="a_node13"><a xlink:href="classMWBase_1_1WindowManager.html#a2d86908f67a1b6bef81ab809ec2ea3e3" target="_top" xlink:title="set current class of player ">
<polygon fill="white" stroke="black" points="174.5,-278 174.5,-308 305.5,-308 305.5,-278 174.5,-278"/>
<text text-anchor="start" x="182.5" y="-296" font-family="FreeSans" font-size="10.00">MWBase::WindowManager</text>
<text text-anchor="middle" x="240" y="-285" font-family="FreeSans" font-size="10.00">::setPlayerClass</text>
</a>
</g>
</g>
<!-- Node1&#45;&gt;Node13 -->
<g id="edge12" class="edge"><title>Node1&#45;&gt;Node13</title>
<path fill="none" stroke="midnightblue" d="M73.6029,-458.577C87.1504,-428.593 120.831,-361.972 168,-323 172.626,-319.178 177.81,-315.774 183.215,-312.76"/>
<polygon fill="midnightblue" stroke="midnightblue" points="185.138,-315.708 192.459,-308.049 181.96,-309.471 185.138,-315.708"/>
</g>
<!-- Node14 -->
<g id="node14" class="node"><title>Node14</title>
<g id="a_node14"><a xlink:href="classMWGui_1_1WindowBase.html#a4f681670522d795ac3b38f13500ff7ea" target="_top" xlink:title="Sets the visibility of the window. ">
<polygon fill="white" stroke="black" points="183.5,-229 183.5,-259 296.5,-259 296.5,-229 183.5,-229"/>
<text text-anchor="start" x="191.5" y="-247" font-family="FreeSans" font-size="10.00">MWGui::WindowBase::</text>
<text text-anchor="middle" x="240" y="-236" font-family="FreeSans" font-size="10.00">setVisible</text>
</a>
</g>
</g>
<!-- Node1&#45;&gt;Node14 -->
<g id="edge13" class="edge"><title>Node1&#45;&gt;Node14</title>
<path fill="none" stroke="midnightblue" d="M70.1859,-458.868C78.9203,-421.075 106.786,-321.738 168,-268 170.011,-266.235 172.156,-264.599 174.402,-263.082"/>
<polygon fill="midnightblue" stroke="midnightblue" points="176.601,-265.852 183.49,-257.803 173.085,-259.799 176.601,-265.852"/>
</g>
<!-- Node18 -->
<g id="node18" class="node"><title>Node18</title>
<g id="a_node18"><a xlink:href="namespaceanonymous__namespace_02charactercreation_8cpp_03.html#aaf0d65d28eafc9548a309e2c97f06f83" target="_top" xlink:title="anonymous_namespace\l\{charactercreation::\lcpp\}::updatePlayerHealth">
<polygon fill="white" stroke="black" points="178,-76.5 178,-117.5 302,-117.5 302,-76.5 178,-76.5"/>
<text text-anchor="start" x="186" y="-105.5" font-family="FreeSans" font-size="10.00">anonymous_namespace</text>
<text text-anchor="start" x="186" y="-94.5" font-family="FreeSans" font-size="10.00">{charactercreation::</text>
<text text-anchor="middle" x="240" y="-83.5" font-family="FreeSans" font-size="10.00">cpp}::updatePlayerHealth</text>
</a>
</g>
</g>
<!-- Node1&#45;&gt;Node18 -->
<g id="edge19" class="edge"><title>Node1&#45;&gt;Node18</title>
<path fill="none" stroke="midnightblue" d="M72.1497,-458.715C85.8618,-418.585 125.15,-307.236 168,-219 183.853,-186.356 205.122,-150.657 220.237,-126.359"/>
<polygon fill="midnightblue" stroke="midnightblue" points="223.36,-127.967 225.705,-117.635 217.429,-124.25 223.36,-127.967"/>
</g>
<!-- Node6 -->
<g id="node6" class="node"><title>Node6</title>
<g id="a_node6"><a xlink:href="classMWGui_1_1Widgets_1_1MWAttribute.html#af0825019b60d054956f4a0439dc56a4a" target="_top" xlink:title="MWGui::Widgets::MWAttribute\l::getAttributeId">
<polygon fill="white" stroke="black" points="348,-601 348,-631 494,-631 494,-601 348,-601"/>
<text text-anchor="start" x="356" y="-619" font-family="FreeSans" font-size="10.00">MWGui::Widgets::MWAttribute</text>
<text text-anchor="middle" x="421" y="-608" font-family="FreeSans" font-size="10.00">::getAttributeId</text>
</a>
</g>
</g>
<!-- Node5&#45;&gt;Node6 -->
<g id="edge5" class="edge"><title>Node5&#45;&gt;Node6</title>
<path fill="none" stroke="midnightblue" d="M306.129,-616C316.432,-616 327.2,-616 337.83,-616"/>
<polygon fill="midnightblue" stroke="midnightblue" points="337.96,-619.5 347.96,-616 337.96,-612.5 337.96,-619.5"/>
</g>
<!-- Node14&#45;&gt;Node9 -->
<g id="edge16" class="edge"><title>Node14&#45;&gt;Node9</title>
<path fill="none" stroke="midnightblue" d="M290.507,-259.005C297.83,-261.719 305.196,-264.736 312,-268 329.119,-276.211 329.988,-284.996 348,-291 405.784,-310.261 474.961,-314.257 526.364,-313.86"/>
<polygon fill="midnightblue" stroke="midnightblue" points="526.447,-317.36 536.399,-313.725 526.352,-310.36 526.447,-317.36"/>
</g>
<!-- Node14&#45;&gt;Node12 -->
<g id="edge17" class="edge"><title>Node14&#45;&gt;Node12</title>
<path fill="none" stroke="midnightblue" d="M296.783,-258.694C302.197,-261.32 307.384,-264.398 312,-268 335.325,-286.204 325.315,-305.004 348,-324 352.589,-327.843 357.74,-331.253 363.122,-334.266"/>
<polygon fill="midnightblue" stroke="midnightblue" points="361.841,-337.541 372.34,-338.966 365.021,-331.305 361.841,-337.541"/>
</g>
<!-- Node15 -->
<g id="node15" class="node"><title>Node15</title>
<g id="a_node15"><a xlink:href="classMWGui_1_1WindowBase.html#ace3dc06d8e89a926cd05fb5f94ac757e" target="_top" xlink:title="Notify that window has been made visible. ">
<polygon fill="white" stroke="black" points="354,-262.5 354,-281.5 488,-281.5 488,-262.5 354,-262.5"/>
<text text-anchor="middle" x="421" y="-269.5" font-family="FreeSans" font-size="10.00">MWGui::WindowBase::open</text>
</a>
</g>
</g>
<!-- Node14&#45;&gt;Node15 -->
<g id="edge14" class="edge"><title>Node14&#45;&gt;Node15</title>
<path fill="none" stroke="midnightblue" d="M296.656,-252.706C313.213,-255.296 331.583,-258.169 348.979,-260.891"/>
<polygon fill="midnightblue" stroke="midnightblue" points="348.668,-264.384 359.088,-262.472 349.75,-257.468 348.668,-264.384"/>
</g>
<!-- Node16 -->
<g id="node16" class="node"><title>Node16</title>
<g id="a_node16"><a xlink:href="classMWGui_1_1WindowBase.html#af986f66b831360eceacc01740a0a16fa" target="_top" xlink:title="Notify that window has been hidden. ">
<polygon fill="white" stroke="black" points="364.5,-213 364.5,-243 477.5,-243 477.5,-213 364.5,-213"/>
<text text-anchor="start" x="372.5" y="-231" font-family="FreeSans" font-size="10.00">MWGui::WindowBase::</text>
<text text-anchor="middle" x="421" y="-220" font-family="FreeSans" font-size="10.00">close</text>
</a>
</g>
</g>
<!-- Node14&#45;&gt;Node16 -->
<g id="edge15" class="edge"><title>Node14&#45;&gt;Node16</title>
<path fill="none" stroke="midnightblue" d="M296.656,-239.025C314.924,-237.392 335.399,-235.562 354.338,-233.869"/>
<polygon fill="midnightblue" stroke="midnightblue" points="354.73,-237.348 364.379,-232.972 354.107,-230.376 354.73,-237.348"/>
</g>
<!-- Node17 -->
<g id="node17" class="node"><title>Node17</title>
<g id="a_node17"><a xlink:href="classMWBase_1_1WindowManager.html#a24725f89bc9b354a0c51d185f20f38a6" target="_top" xlink:title="Warning: do not use MyGUI::InputManager::setKeyFocusWidget directly. Instead use this. ">
<polygon fill="white" stroke="black" points="355.5,-164 355.5,-194 486.5,-194 486.5,-164 355.5,-164"/>
<text text-anchor="start" x="363.5" y="-182" font-family="FreeSans" font-size="10.00">MWBase::WindowManager</text>
<text text-anchor="middle" x="421" y="-171" font-family="FreeSans" font-size="10.00">::setKeyFocusWidget</text>
</a>
</g>
</g>
<!-- Node14&#45;&gt;Node17 -->
<g id="edge18" class="edge"><title>Node14&#45;&gt;Node17</title>
<path fill="none" stroke="midnightblue" d="M278.979,-228.979C299.362,-221.036 324.963,-211.248 348,-203 353.195,-201.14 358.616,-199.246 364.052,-197.38"/>
<polygon fill="midnightblue" stroke="midnightblue" points="365.464,-200.596 373.804,-194.063 363.21,-193.969 365.464,-200.596"/>
</g>
<!-- Node19 -->
<g id="node19" class="node"><title>Node19</title>
<g id="a_node19"><a xlink:href="namespaceMWMechanics.html#a90645fe67f9b8b658452cd004d2cbb65" target="_top" xlink:title="MWMechanics::getPlayer">
<polygon fill="white" stroke="black" points="358.5,-125.5 358.5,-144.5 483.5,-144.5 483.5,-125.5 358.5,-125.5"/>
<text text-anchor="middle" x="421" y="-132.5" font-family="FreeSans" font-size="10.00">MWMechanics::getPlayer</text>
</a>
</g>
</g>
<!-- Node18&#45;&gt;Node19 -->
<g id="edge20" class="edge"><title>Node18&#45;&gt;Node19</title>
<path fill="none" stroke="midnightblue" d="M302.101,-109.971C322.548,-114.312 345.202,-119.121 365.142,-123.354"/>
<polygon fill="midnightblue" stroke="midnightblue" points="364.484,-126.792 374.993,-125.445 365.938,-119.945 364.484,-126.792"/>
</g>
<!-- Node22 -->
<g id="node22" class="node"><title>Node22</title>
<g id="a_node22"><a xlink:href="classMWWorld_1_1Ptr.html#aa2ac4a5579cd19eaa780596f4543ea46" target="_top" xlink:title="MWWorld::Ptr::getClass">
<polygon fill="white" stroke="black" points="362.5,-87.5 362.5,-106.5 479.5,-106.5 479.5,-87.5 362.5,-87.5"/>
<text text-anchor="middle" x="421" y="-94.5" font-family="FreeSans" font-size="10.00">MWWorld::Ptr::getClass</text>
</a>
</g>
</g>
<!-- Node18&#45;&gt;Node22 -->
<g id="edge24" class="edge"><title>Node18&#45;&gt;Node22</title>
<path fill="none" stroke="midnightblue" d="M302.101,-97C318.288,-97 335.858,-97 352.37,-97"/>
<polygon fill="midnightblue" stroke="midnightblue" points="352.493,-100.5 362.493,-97 352.493,-93.5001 352.493,-100.5"/>
</g>
<!-- Node23 -->
<g id="node23" class="node"><title>Node23</title>
<g id="a_node23"><a xlink:href="classMWWorld_1_1Class.html#a288815e0879a88ccd87b4871be64202b" target="_top" xlink:title="MWWorld::Class::getNpcStats">
<polygon fill="white" stroke="black" points="349,-49.5 349,-68.5 493,-68.5 493,-49.5 349,-49.5"/>
<text text-anchor="middle" x="421" y="-56.5" font-family="FreeSans" font-size="10.00">MWWorld::Class::getNpcStats</text>
</a>
</g>
</g>
<!-- Node18&#45;&gt;Node23 -->
<g id="edge25" class="edge"><title>Node18&#45;&gt;Node23</title>
<path fill="none" stroke="midnightblue" d="M302.101,-84.0288C322.548,-79.6881 345.202,-74.8789 365.142,-70.6457"/>
<polygon fill="midnightblue" stroke="midnightblue" points="365.938,-74.0549 374.993,-68.5545 364.484,-67.2075 365.938,-74.0549"/>
</g>
<!-- Node24 -->
<g id="node24" class="node"><title>Node24</title>
<g id="a_node24"><a xlink:href="classMWMechanics_1_1NpcStats.html#abf41018cfbbaadbcfab573028e84c2ce" target="_top" xlink:title="MWMechanics::NpcStats\l::updateHealth">
<polygon fill="white" stroke="black" points="358.5,-0 358.5,-30 483.5,-30 483.5,-0 358.5,-0"/>
<text text-anchor="start" x="366.5" y="-18" font-family="FreeSans" font-size="10.00">MWMechanics::NpcStats</text>
<text text-anchor="middle" x="421" y="-7" font-family="FreeSans" font-size="10.00">::updateHealth</text>
</a>
</g>
</g>
<!-- Node18&#45;&gt;Node24 -->
<g id="edge26" class="edge"><title>Node18&#45;&gt;Node24</title>
<path fill="none" stroke="midnightblue" d="M276.467,-76.317C296.979,-64.8119 323.504,-50.7001 348,-40 353.002,-37.8151 358.261,-35.6852 363.565,-33.6494"/>
<polygon fill="midnightblue" stroke="midnightblue" points="364.964,-36.8635 373.114,-30.0948 362.522,-30.3032 364.964,-36.8635"/>
</g>
<!-- Node19&#45;&gt;Node9 -->
<g id="edge21" class="edge"><title>Node19&#45;&gt;Node9</title>
<path fill="none" stroke="midnightblue" d="M475.826,-144.59C482.271,-147.045 488.505,-150.128 494,-154 544.631,-189.674 578.733,-257.448 593.182,-290.667"/>
<polygon fill="midnightblue" stroke="midnightblue" points="590.07,-292.297 597.178,-300.154 596.521,-289.579 590.07,-292.297"/>
</g>
<!-- Node20 -->
<g id="node20" class="node"><title>Node20</title>
<g id="a_node20"><a xlink:href="classMWBase_1_1Environment.html#ae14e166d8f5ff8629be119333d502660" target="_top" xlink:title="MWBase::Environment\l::getWorld">
<polygon fill="white" stroke="black" points="545.5,-142 545.5,-172 658.5,-172 658.5,-142 545.5,-142"/>
<text text-anchor="start" x="553.5" y="-160" font-family="FreeSans" font-size="10.00">MWBase::Environment</text>
<text text-anchor="middle" x="602" y="-149" font-family="FreeSans" font-size="10.00">::getWorld</text>
</a>
</g>
</g>
<!-- Node19&#45;&gt;Node20 -->
<g id="edge22" class="edge"><title>Node19&#45;&gt;Node20</title>
<path fill="none" stroke="midnightblue" d="M483.602,-142.571C500.184,-144.609 518.185,-146.822 534.997,-148.888"/>
<polygon fill="midnightblue" stroke="midnightblue" points="534.935,-152.407 545.287,-150.153 535.789,-145.459 534.935,-152.407"/>
</g>
<!-- Node21 -->
<g id="node21" class="node"><title>Node21</title>
<g id="a_node21"><a xlink:href="classMWBase_1_1World.html#a95005e26dcb7b1f6dc906eb518b95762" target="_top" xlink:title="MWBase::World::getPlayerPtr">
<polygon fill="white" stroke="black" points="530.5,-103.5 530.5,-122.5 673.5,-122.5 673.5,-103.5 530.5,-103.5"/>
<text text-anchor="middle" x="602" y="-110.5" font-family="FreeSans" font-size="10.00">MWBase::World::getPlayerPtr</text>
</a>
</g>
</g>
<!-- Node19&#45;&gt;Node21 -->
<g id="edge23" class="edge"><title>Node19&#45;&gt;Node21</title>
<path fill="none" stroke="midnightblue" d="M483.602,-127.429C495.374,-125.982 507.861,-124.447 520.131,-122.939"/>
<polygon fill="midnightblue" stroke="midnightblue" points="520.867,-126.375 530.365,-121.681 520.013,-119.428 520.867,-126.375"/>
</g>
</g>
</svg>
