<?xml version="1.0" encoding="UTF-8" standalone="no"?>
<!DOCTYPE svg PUBLIC "-//W3C//DTD SVG 1.1//EN"
 "http://www.w3.org/Graphics/SVG/1.1/DTD/svg11.dtd">
<!-- Generated by graphviz version 2.36.0 (20140111.2315)
 -->
<!-- Title: EsmTool::Record::print Pages: 1 -->
<svg width="412pt" height="77pt"
 viewBox="0.00 0.00 412.00 77.00" xmlns="http://www.w3.org/2000/svg" xmlns:xlink="http://www.w3.org/1999/xlink">
<g id="graph0" class="graph" transform="scale(1 1) rotate(0) translate(4 73)">
<title>EsmTool::Record::print</title>
<polygon fill="white" stroke="none" points="-4,4 -4,-73 408,-73 408,4 -4,4"/>
<!-- Node1 -->
<g id="node1" class="node"><title>Node1</title>
<polygon fill="#bfbfbf" stroke="black" points="0,-27.5 0,-46.5 122,-46.5 122,-27.5 0,-27.5"/>
<text text-anchor="middle" x="61" y="-34.5" font-family="FreeSans" font-size="10.00">EsmTool::Record::print</text>
</g>
<!-- Node2 -->
<g id="node2" class="node"><title>Node2</title>
<g id="a_node2"><a xlink:href="labels_8cpp.html#a889807aa23fc81d963195b0416b63d69" target="_top" xlink:title="questStatusLabel">
<polygon fill="white" stroke="black" points="175.5,-49.5 175.5,-68.5 276.5,-68.5 276.5,-49.5 175.5,-49.5"/>
<text text-anchor="middle" x="226" y="-56.5" font-family="FreeSans" font-size="10.00">questStatusLabel</text>
</a>
</g>
</g>
<!-- Node1&#45;&gt;Node2 -->
<g id="edge1" class="edge"><title>Node1&#45;&gt;Node2</title>
<path fill="none" stroke="midnightblue" d="M122.232,-45.1295C136.316,-47.0304 151.312,-49.0544 165.37,-50.9518"/>
<polygon fill="midnightblue" stroke="midnightblue" points="165.036,-54.4383 175.414,-52.3074 165.972,-47.5012 165.036,-54.4383"/>
</g>
<!-- Node3 -->
<g id="node3" class="node"><title>Node3</title>
<g id="a_node3"><a xlink:href="namespaceanonymous__namespace_02record_8cpp_03.html#a297c54c1ee53a3fe990bff41ac225f80" target="_top" xlink:title="anonymous_namespace\l\{record::cpp\}::ruleString">
<polygon fill="white" stroke="black" points="158.5,-0 158.5,-30 293.5,-30 293.5,-0 158.5,-0"/>
<text text-anchor="start" x="166.5" y="-18" font-family="FreeSans" font-size="10.00">anonymous_namespace</text>
<text text-anchor="middle" x="226" y="-7" font-family="FreeSans" font-size="10.00">{record::cpp}::ruleString</text>
</a>
</g>
</g>
<!-- Node1&#45;&gt;Node3 -->
<g id="edge2" class="edge"><title>Node1&#45;&gt;Node3</title>
<path fill="none" stroke="midnightblue" d="M122.232,-28.8705C130.706,-27.7268 139.509,-26.5386 148.24,-25.3602"/>
<polygon fill="midnightblue" stroke="midnightblue" points="148.99,-28.7909 158.432,-23.9847 148.053,-21.8538 148.99,-28.7909"/>
</g>
<!-- Node4 -->
<g id="node4" class="node"><title>Node4</title>
<g id="a_node4"><a xlink:href="labels_8cpp.html#a49105eb41ed1633e52fe4fc292501934" target="_top" xlink:title="ruleFunction">
<polygon fill="white" stroke="black" points="330,-5.5 330,-24.5 404,-24.5 404,-5.5 330,-5.5"/>
<text text-anchor="middle" x="367" y="-12.5" font-family="FreeSans" font-size="10.00">ruleFunction</text>
</a>
</g>
</g>
<!-- Node3&#45;&gt;Node4 -->
<g id="edge3" class="edge"><title>Node3&#45;&gt;Node4</title>
<path fill="none" stroke="midnightblue" d="M293.65,-15C302.37,-15 311.151,-15 319.44,-15"/>
<polygon fill="midnightblue" stroke="midnightblue" points="319.637,-18.5001 329.637,-15 319.637,-11.5001 319.637,-18.5001"/>
</g>
</g>
</svg>
