<?xml version="1.0" encoding="UTF-8" standalone="no"?>
<!DOCTYPE svg PUBLIC "-//W3C//DTD SVG 1.1//EN"
 "http://www.w3.org/Graphics/SVG/1.1/DTD/svg11.dtd">
<!-- Generated by graphviz version 2.36.0 (20140111.2315)
 -->
<!-- Title: MWClass::Miscellaneous::canSell Pages: 1 -->
<svg width="620pt" height="175pt"
 viewBox="0.00 0.00 620.00 175.00" xmlns="http://www.w3.org/2000/svg" xmlns:xlink="http://www.w3.org/1999/xlink">
<g id="graph0" class="graph" transform="scale(1 1) rotate(0) translate(4 171)">
<title>MWClass::Miscellaneous::canSell</title>
<polygon fill="white" stroke="none" points="-4,4 -4,-171 616,-171 616,4 -4,4"/>
<!-- Node1 -->
<g id="node1" class="node"><title>Node1</title>
<polygon fill="#bfbfbf" stroke="black" points="0.5,-87 0.5,-117 131.5,-117 131.5,-87 0.5,-87"/>
<text text-anchor="start" x="8.5" y="-105" font-family="FreeSans" font-size="10.00">MWClass::Miscellaneous</text>
<text text-anchor="middle" x="66" y="-94" font-family="FreeSans" font-size="10.00">::canSell</text>
</g>
<!-- Node2 -->
<g id="node2" class="node"><title>Node2</title>
<g id="a_node2"><a xlink:href="classMWWorld_1_1ConstPtr.html#ae3aece4775b5f86d04af63ce0de36cbd" target="_top" xlink:title="MWWorld::ConstPtr::get">
<polygon fill="white" stroke="black" points="170,-128.5 170,-147.5 298,-147.5 298,-128.5 170,-128.5"/>
<text text-anchor="middle" x="234" y="-135.5" font-family="FreeSans" font-size="10.00">MWWorld::ConstPtr::get</text>
</a>
</g>
</g>
<!-- Node1&#45;&gt;Node2 -->
<g id="edge1" class="edge"><title>Node1&#45;&gt;Node2</title>
<path fill="none" stroke="midnightblue" d="M131.655,-116.022C147.188,-119.39 163.623,-122.954 178.634,-126.21"/>
<polygon fill="midnightblue" stroke="midnightblue" points="178.256,-129.709 188.771,-128.408 179.74,-122.868 178.256,-129.709"/>
</g>
<!-- Node4 -->
<g id="node4" class="node"><title>Node4</title>
<g id="a_node4"><a xlink:href="classMWClass_1_1Miscellaneous.html#af8823db57690e080e5142d3acd96e3ff" target="_top" xlink:title="MWClass::Miscellaneous\l::isGold">
<polygon fill="white" stroke="black" points="168.5,-52 168.5,-82 299.5,-82 299.5,-52 168.5,-52"/>
<text text-anchor="start" x="176.5" y="-70" font-family="FreeSans" font-size="10.00">MWClass::Miscellaneous</text>
<text text-anchor="middle" x="234" y="-59" font-family="FreeSans" font-size="10.00">::isGold</text>
</a>
</g>
</g>
<!-- Node1&#45;&gt;Node4 -->
<g id="edge3" class="edge"><title>Node1&#45;&gt;Node4</title>
<path fill="none" stroke="midnightblue" d="M131.655,-88.3679C140.386,-86.527 149.402,-84.6261 158.29,-82.7521"/>
<polygon fill="midnightblue" stroke="midnightblue" points="159.185,-86.1404 168.248,-80.6525 157.741,-79.291 159.185,-86.1404"/>
</g>
<!-- Node3 -->
<g id="node3" class="node"><title>Node3</title>
<g id="a_node3"><a xlink:href="classMWWorld_1_1ConstPtr.html#ace447c99102c91a088f5e51c9664f950" target="_top" xlink:title="MWWorld::ConstPtr::\lgetTypeName">
<polygon fill="white" stroke="black" points="350,-137 350,-167 462,-167 462,-137 350,-137"/>
<text text-anchor="start" x="358" y="-155" font-family="FreeSans" font-size="10.00">MWWorld::ConstPtr::</text>
<text text-anchor="middle" x="406" y="-144" font-family="FreeSans" font-size="10.00">getTypeName</text>
</a>
</g>
</g>
<!-- Node2&#45;&gt;Node3 -->
<g id="edge2" class="edge"><title>Node2&#45;&gt;Node3</title>
<path fill="none" stroke="midnightblue" d="M298.302,-143.213C311.767,-144.322 326.011,-145.495 339.555,-146.61"/>
<polygon fill="midnightblue" stroke="midnightblue" points="339.497,-150.117 349.751,-147.45 340.072,-143.141 339.497,-150.117"/>
</g>
<!-- Node5 -->
<g id="node5" class="node"><title>Node5</title>
<g id="a_node5"><a xlink:href="classMisc_1_1StringUtils.html#a0f8cb0ac134191ba8417f74ab7dc4de6" target="_top" xlink:title="Misc::StringUtils::\lciEqual">
<polygon fill="white" stroke="black" points="356.5,-88 356.5,-118 455.5,-118 455.5,-88 356.5,-88"/>
<text text-anchor="start" x="364.5" y="-106" font-family="FreeSans" font-size="10.00">Misc::StringUtils::</text>
<text text-anchor="middle" x="406" y="-95" font-family="FreeSans" font-size="10.00">ciEqual</text>
</a>
</g>
</g>
<!-- Node4&#45;&gt;Node5 -->
<g id="edge4" class="edge"><title>Node4&#45;&gt;Node5</title>
<path fill="none" stroke="midnightblue" d="M299.755,-80.7128C315.002,-83.9417 331.173,-87.366 346.145,-90.5365"/>
<polygon fill="midnightblue" stroke="midnightblue" points="345.784,-94.0376 356.292,-92.6854 347.234,-87.1895 345.784,-94.0376"/>
</g>
<!-- Node7 -->
<g id="node7" class="node"><title>Node7</title>
<g id="a_node7"><a xlink:href="classMWWorld_1_1ConstPtr.html#afa407c744b51f45e0b8e3eec160cb7a2" target="_top" xlink:title="MWWorld::ConstPtr::\lgetCellRef">
<polygon fill="white" stroke="black" points="350,-39 350,-69 462,-69 462,-39 350,-39"/>
<text text-anchor="start" x="358" y="-57" font-family="FreeSans" font-size="10.00">MWWorld::ConstPtr::</text>
<text text-anchor="middle" x="406" y="-46" font-family="FreeSans" font-size="10.00">getCellRef</text>
</a>
</g>
</g>
<!-- Node4&#45;&gt;Node7 -->
<g id="edge6" class="edge"><title>Node4&#45;&gt;Node7</title>
<path fill="none" stroke="midnightblue" d="M299.755,-62.0482C312.786,-61.0517 326.49,-60.0037 339.545,-59.0054"/>
<polygon fill="midnightblue" stroke="midnightblue" points="340.146,-62.4697 349.85,-58.2174 339.612,-55.4901 340.146,-62.4697"/>
</g>
<!-- Node8 -->
<g id="node8" class="node"><title>Node8</title>
<g id="a_node8"><a xlink:href="classMWWorld_1_1CellRef.html#a2f70b196b33750c0bbc0a11038d2cf72" target="_top" xlink:title="MWWorld::CellRef::getRefId">
<polygon fill="white" stroke="black" points="336,-0.5 336,-19.5 476,-19.5 476,-0.5 336,-0.5"/>
<text text-anchor="middle" x="406" y="-7.5" font-family="FreeSans" font-size="10.00">MWWorld::CellRef::getRefId</text>
</a>
</g>
</g>
<!-- Node4&#45;&gt;Node8 -->
<g id="edge7" class="edge"><title>Node4&#45;&gt;Node8</title>
<path fill="none" stroke="midnightblue" d="M272.601,-51.9207C291.483,-44.5875 314.798,-35.8919 336,-29 343.148,-26.6765 350.771,-24.3902 358.244,-22.2532"/>
<polygon fill="midnightblue" stroke="midnightblue" points="359.246,-25.6074 367.931,-19.5394 357.358,-18.8669 359.246,-25.6074"/>
</g>
<!-- Node6 -->
<g id="node6" class="node"><title>Node6</title>
<g id="a_node6"><a xlink:href="classMisc_1_1StringUtils.html#a0759adb102842ee3bced227707eb6949" target="_top" xlink:title="Misc::StringUtils::\ltoLower">
<polygon fill="white" stroke="black" points="512.5,-88 512.5,-118 611.5,-118 611.5,-88 512.5,-88"/>
<text text-anchor="start" x="520.5" y="-106" font-family="FreeSans" font-size="10.00">Misc::StringUtils::</text>
<text text-anchor="middle" x="562" y="-95" font-family="FreeSans" font-size="10.00">toLower</text>
</a>
</g>
</g>
<!-- Node5&#45;&gt;Node6 -->
<g id="edge5" class="edge"><title>Node5&#45;&gt;Node6</title>
<path fill="none" stroke="midnightblue" d="M455.727,-103C470.404,-103 486.673,-103 501.945,-103"/>
<polygon fill="midnightblue" stroke="midnightblue" points="502.326,-106.5 512.326,-103 502.326,-99.5001 502.326,-106.5"/>
</g>
</g>
</svg>
