<?xml version="1.0" encoding="UTF-8" standalone="no"?>
<!DOCTYPE svg PUBLIC "-//W3C//DTD SVG 1.1//EN"
 "http://www.w3.org/Graphics/SVG/1.1/DTD/svg11.dtd">
<!-- Generated by graphviz version 2.36.0 (20140111.2315)
 -->
<!-- Title: MWGui::WorldItemModel Pages: 1 -->
<svg width="198pt" height="382pt"
 viewBox="0.00 0.00 198.00 382.00" xmlns="http://www.w3.org/2000/svg" xmlns:xlink="http://www.w3.org/1999/xlink">
<g id="graph0" class="graph" transform="scale(1 1) rotate(0) translate(4 378)">
<title>MWGui::WorldItemModel</title>
<polygon fill="white" stroke="none" points="-4,4 -4,-378 194,-378 194,4 -4,4"/>
<!-- Node1 -->
<g id="node1" class="node"><title>Node1</title>
<polygon fill="#bfbfbf" stroke="black" points="53.5,-1 53.5,-135 184.5,-135 184.5,-1 53.5,-1"/>
<text text-anchor="middle" x="119" y="-123" font-family="FreeSans" font-size="10.00">MWGui::WorldItemModel</text>
<polyline fill="none" stroke="black" points="53.5,-116 184.5,-116 "/>
<text text-anchor="middle" x="119" y="-104" font-family="FreeSans" font-size="10.00"> </text>
<polyline fill="none" stroke="black" points="53.5,-97 184.5,-97 "/>
<text text-anchor="start" x="61.5" y="-85" font-family="FreeSans" font-size="10.00">+ WorldItemModel()</text>
<text text-anchor="start" x="61.5" y="-74" font-family="FreeSans" font-size="10.00">+ ~WorldItemModel()</text>
<text text-anchor="start" x="61.5" y="-63" font-family="FreeSans" font-size="10.00">+ copyItem()</text>
<text text-anchor="start" x="61.5" y="-52" font-family="FreeSans" font-size="10.00">+ removeItem()</text>
<text text-anchor="start" x="61.5" y="-41" font-family="FreeSans" font-size="10.00">+ getIndex()</text>
<text text-anchor="start" x="61.5" y="-30" font-family="FreeSans" font-size="10.00">+ update()</text>
<text text-anchor="start" x="61.5" y="-19" font-family="FreeSans" font-size="10.00">+ getItemCount()</text>
<text text-anchor="start" x="61.5" y="-8" font-family="FreeSans" font-size="10.00">+ getItem()</text>
</g>
<!-- Node2 -->
<g id="node2" class="node"><title>Node2</title>
<g id="a_node2"><a xlink:href="classMWGui_1_1ItemModel.html" target="_top" xlink:title="The base class that all item models should derive from. ">
<polygon fill="white" stroke="black" points="0,-195 0,-373 134,-373 134,-195 0,-195"/>
<text text-anchor="middle" x="67" y="-361" font-family="FreeSans" font-size="10.00">MWGui::ItemModel</text>
<polyline fill="none" stroke="black" points="0,-354 134,-354 "/>
<text text-anchor="middle" x="67" y="-342" font-family="FreeSans" font-size="10.00"> </text>
<polyline fill="none" stroke="black" points="0,-335 134,-335 "/>
<text text-anchor="start" x="8" y="-323" font-family="FreeSans" font-size="10.00">+ ItemModel()</text>
<text text-anchor="start" x="8" y="-312" font-family="FreeSans" font-size="10.00">+ ~ItemModel()</text>
<text text-anchor="start" x="8" y="-301" font-family="FreeSans" font-size="10.00">+ getItem()</text>
<text text-anchor="start" x="8" y="-290" font-family="FreeSans" font-size="10.00">+ getItemCount()</text>
<text text-anchor="start" x="8" y="-279" font-family="FreeSans" font-size="10.00">+ getIndex()</text>
<text text-anchor="start" x="8" y="-268" font-family="FreeSans" font-size="10.00">+ update()</text>
<text text-anchor="start" x="8" y="-257" font-family="FreeSans" font-size="10.00">+ moveItem()</text>
<text text-anchor="start" x="8" y="-246" font-family="FreeSans" font-size="10.00">+ copyItem()</text>
<text text-anchor="start" x="8" y="-235" font-family="FreeSans" font-size="10.00">+ removeItem()</text>
<text text-anchor="start" x="8" y="-224" font-family="FreeSans" font-size="10.00">+ allowedToInsertItems()</text>
<text text-anchor="start" x="8" y="-213" font-family="FreeSans" font-size="10.00">&#45; ItemModel()</text>
<text text-anchor="start" x="8" y="-202" font-family="FreeSans" font-size="10.00">&#45; operator=()</text>
</a>
</g>
</g>
<!-- Node2&#45;&gt;Node1 -->
<g id="edge1" class="edge"><title>Node2&#45;&gt;Node1</title>
<path fill="none" stroke="midnightblue" d="M90.8472,-184.86C94.9369,-168.029 99.0981,-150.904 102.922,-135.165"/>
<polygon fill="none" stroke="midnightblue" points="87.4108,-184.179 88.4506,-194.722 94.2129,-185.832 87.4108,-184.179"/>
</g>
<!-- Node3 -->
<g id="node3" class="node"><title>Node3</title>
<polygon fill="white" stroke="#bfbfbf" points="152,-255.5 152,-312.5 190,-312.5 190,-255.5 152,-255.5"/>
<text text-anchor="middle" x="171" y="-300.5" font-family="FreeSans" font-size="10.00">float</text>
<polyline fill="none" stroke="#bfbfbf" points="152,-293.5 190,-293.5 "/>
<text text-anchor="middle" x="171" y="-281.5" font-family="FreeSans" font-size="10.00"> </text>
<polyline fill="none" stroke="#bfbfbf" points="152,-274.5 190,-274.5 "/>
<text text-anchor="middle" x="171" y="-262.5" font-family="FreeSans" font-size="10.00"> </text>
</g>
<!-- Node3&#45;&gt;Node1 -->
<g id="edge2" class="edge"><title>Node3&#45;&gt;Node1</title>
<path fill="none" stroke="#404040" d="M164.308,-255.461C157.675,-228.162 147.2,-185.054 137.992,-147.16"/>
<polygon fill="none" stroke="#404040" points="137.887,-146.728 132.584,-141.842 135.054,-135.067 140.357,-139.953 137.887,-146.728"/>
<text text-anchor="middle" x="162.5" y="-168" font-family="FreeSans" font-size="10.00"> &#45;mLeft</text>
<text text-anchor="middle" x="162.5" y="-157" font-family="FreeSans" font-size="10.00">&#45;mTop</text>
</g>
</g>
</svg>
