<?xml version="1.0" encoding="UTF-8" standalone="no"?>
<!DOCTYPE svg PUBLIC "-//W3C//DTD SVG 1.1//EN"
 "http://www.w3.org/Graphics/SVG/1.1/DTD/svg11.dtd">
<!-- Generated by graphviz version 2.36.0 (20140111.2315)
 -->
<!-- Title: MWGui::TradeItemModel::getItemCount Pages: 1 -->
<svg width="1038pt" height="175pt"
 viewBox="0.00 0.00 1038.00 175.00" xmlns="http://www.w3.org/2000/svg" xmlns:xlink="http://www.w3.org/1999/xlink">
<g id="graph0" class="graph" transform="scale(1 1) rotate(0) translate(4 171)">
<title>MWGui::TradeItemModel::getItemCount</title>
<polygon fill="white" stroke="none" points="-4,4 -4,-171 1034,-171 1034,4 -4,4"/>
<!-- Node1 -->
<g id="node1" class="node"><title>Node1</title>
<polygon fill="#bfbfbf" stroke="black" points="0,-44 0,-74 124,-74 124,-44 0,-44"/>
<text text-anchor="start" x="8" y="-62" font-family="FreeSans" font-size="10.00">MWGui::TradeItemModel</text>
<text text-anchor="middle" x="62" y="-51" font-family="FreeSans" font-size="10.00">::getItemCount</text>
</g>
<!-- Node2 -->
<g id="node2" class="node"><title>Node2</title>
<g id="a_node2"><a xlink:href="classMWGui_1_1InventoryWindow.html#acbe3b6eb50fde30d62837326cf99010d" target="_top" xlink:title="Unequips count items from mSelectedItem, if it is equipped, and then updates mSelectedItem in case th...">
<polygon fill="white" stroke="black" points="160,-88 160,-118 318,-118 318,-88 160,-88"/>
<text text-anchor="start" x="168" y="-106" font-family="FreeSans" font-size="10.00">MWGui::InventoryWindow</text>
<text text-anchor="middle" x="239" y="-95" font-family="FreeSans" font-size="10.00">::ensureSelectedItemUnequipped</text>
</a>
</g>
</g>
<!-- Node1&#45;&gt;Node2 -->
<g id="edge1" class="edge"><title>Node1&#45;&gt;Node2</title>
<path fill="none" stroke="midnightblue" d="M132.544,-76.4855C147.665,-80.2873 163.534,-84.277 178.237,-87.9738"/>
<polygon fill="midnightblue" stroke="midnightblue" points="133.287,-73.0634 122.736,-74.0192 131.58,-79.8521 133.287,-73.0634"/>
</g>
<!-- Node7 -->
<g id="node7" class="node"><title>Node7</title>
<g id="a_node7"><a xlink:href="classMWGui_1_1InventoryWindow.html#ac0cf452b697e42ebb942910bdc98db4c" target="_top" xlink:title="MWGui::InventoryWindow\l::onAvatarClicked">
<polygon fill="white" stroke="black" points="742,-44 742,-74 868,-74 868,-44 742,-44"/>
<text text-anchor="start" x="750" y="-62" font-family="FreeSans" font-size="10.00">MWGui::InventoryWindow</text>
<text text-anchor="middle" x="805" y="-51" font-family="FreeSans" font-size="10.00">::onAvatarClicked</text>
</a>
</g>
</g>
<!-- Node1&#45;&gt;Node7 -->
<g id="edge10" class="edge"><title>Node1&#45;&gt;Node7</title>
<path fill="none" stroke="midnightblue" d="M134.376,-59C279.161,-59 605.212,-59 741.876,-59"/>
<polygon fill="midnightblue" stroke="midnightblue" points="134.27,-55.5001 124.27,-59 134.27,-62.5001 134.27,-55.5001"/>
</g>
<!-- Node9 -->
<g id="node9" class="node"><title>Node9</title>
<g id="a_node9"><a xlink:href="classMWGui_1_1InventoryWindow.html#a217f522ca43031e4a82dac0c62067e92" target="_top" xlink:title="MWGui::InventoryWindow\l::pickUpObject">
<polygon fill="white" stroke="black" points="176,-0 176,-30 302,-30 302,-0 176,-0"/>
<text text-anchor="start" x="184" y="-18" font-family="FreeSans" font-size="10.00">MWGui::InventoryWindow</text>
<text text-anchor="middle" x="239" y="-7" font-family="FreeSans" font-size="10.00">::pickUpObject</text>
</a>
</g>
</g>
<!-- Node1&#45;&gt;Node9 -->
<g id="edge11" class="edge"><title>Node1&#45;&gt;Node9</title>
<path fill="none" stroke="midnightblue" d="M132.544,-41.5145C147.665,-37.7127 163.534,-33.723 178.237,-30.0262"/>
<polygon fill="midnightblue" stroke="midnightblue" points="131.58,-38.1479 122.736,-43.9808 133.287,-44.9366 131.58,-38.1479"/>
</g>
<!-- Node3 -->
<g id="node3" class="node"><title>Node3</title>
<g id="a_node3"><a xlink:href="classMWGui_1_1InventoryWindow.html#a5f8042a02153694f39525c94ccf7f388" target="_top" xlink:title="MWGui::InventoryWindow\l::dragItem">
<polygon fill="white" stroke="black" points="364,-137 364,-167 490,-167 490,-137 364,-137"/>
<text text-anchor="start" x="372" y="-155" font-family="FreeSans" font-size="10.00">MWGui::InventoryWindow</text>
<text text-anchor="middle" x="427" y="-144" font-family="FreeSans" font-size="10.00">::dragItem</text>
</a>
</g>
</g>
<!-- Node2&#45;&gt;Node3 -->
<g id="edge2" class="edge"><title>Node2&#45;&gt;Node3</title>
<path fill="none" stroke="midnightblue" d="M306.895,-120.623C327.244,-125.984 349.408,-131.823 369.038,-136.994"/>
<polygon fill="midnightblue" stroke="midnightblue" points="307.632,-117.198 297.07,-118.035 305.849,-123.967 307.632,-117.198"/>
</g>
<!-- Node8 -->
<g id="node8" class="node"><title>Node8</title>
<g id="a_node8"><a xlink:href="classMWGui_1_1InventoryWindow.html#a8f3658d8fd060461e3f6c63eca1530f9" target="_top" xlink:title="MWGui::InventoryWindow\l::sellItem">
<polygon fill="white" stroke="black" points="364,-88 364,-118 490,-118 490,-88 364,-88"/>
<text text-anchor="start" x="372" y="-106" font-family="FreeSans" font-size="10.00">MWGui::InventoryWindow</text>
<text text-anchor="middle" x="427" y="-95" font-family="FreeSans" font-size="10.00">::sellItem</text>
</a>
</g>
</g>
<!-- Node2&#45;&gt;Node8 -->
<g id="edge8" class="edge"><title>Node2&#45;&gt;Node8</title>
<path fill="none" stroke="midnightblue" d="M328.181,-103C340.267,-103 352.462,-103 363.947,-103"/>
<polygon fill="midnightblue" stroke="midnightblue" points="328.072,-99.5001 318.072,-103 328.072,-106.5 328.072,-99.5001"/>
</g>
<!-- Node4 -->
<g id="node4" class="node"><title>Node4</title>
<g id="a_node4"><a xlink:href="classMWGui_1_1InventoryWindow.html#a5b889ff5cadf8ed97fbb98cfe123055d" target="_top" xlink:title="MWGui::InventoryWindow\l::onItemSelectedFromSourceModel">
<polygon fill="white" stroke="black" points="536.5,-90 536.5,-120 705.5,-120 705.5,-90 536.5,-90"/>
<text text-anchor="start" x="544.5" y="-108" font-family="FreeSans" font-size="10.00">MWGui::InventoryWindow</text>
<text text-anchor="middle" x="621" y="-97" font-family="FreeSans" font-size="10.00">::onItemSelectedFromSourceModel</text>
</a>
</g>
</g>
<!-- Node3&#45;&gt;Node4 -->
<g id="edge3" class="edge"><title>Node3&#45;&gt;Node4</title>
<path fill="none" stroke="midnightblue" d="M499.052,-134.607C518.621,-129.817 539.675,-124.663 558.646,-120.019"/>
<polygon fill="midnightblue" stroke="midnightblue" points="498.159,-131.222 489.278,-137 499.823,-138.022 498.159,-131.222"/>
</g>
<!-- Node5 -->
<g id="node5" class="node"><title>Node5</title>
<g id="a_node5"><a xlink:href="classMWGui_1_1InventoryWindow.html#abbdeec7917453c0625d82da5adf58b7d" target="_top" xlink:title="MWGui::InventoryWindow\l::onItemSelected">
<polygon fill="white" stroke="black" points="742,-93 742,-123 868,-123 868,-93 742,-93"/>
<text text-anchor="start" x="750" y="-111" font-family="FreeSans" font-size="10.00">MWGui::InventoryWindow</text>
<text text-anchor="middle" x="805" y="-100" font-family="FreeSans" font-size="10.00">::onItemSelected</text>
</a>
</g>
</g>
<!-- Node4&#45;&gt;Node5 -->
<g id="edge4" class="edge"><title>Node4&#45;&gt;Node5</title>
<path fill="none" stroke="midnightblue" d="M715.607,-106.543C724.525,-106.69 733.409,-106.836 741.917,-106.977"/>
<polygon fill="midnightblue" stroke="midnightblue" points="715.599,-103.042 705.543,-106.377 715.484,-110.042 715.599,-103.042"/>
</g>
<!-- Node4&#45;&gt;Node7 -->
<g id="edge6" class="edge"><title>Node4&#45;&gt;Node7</title>
<path fill="none" stroke="midnightblue" d="M691.713,-87.3803C709.152,-82.9726 727.696,-78.2856 744.583,-74.0174"/>
<polygon fill="midnightblue" stroke="midnightblue" points="690.431,-84.0941 681.594,-89.9379 692.146,-90.8807 690.431,-84.0941"/>
</g>
<!-- Node6 -->
<g id="node6" class="node"><title>Node6</title>
<g id="a_node6"><a xlink:href="classMWGui_1_1InventoryWindow.html#a12e661e522f594464ed49a782220998f" target="_top" xlink:title="MWGui::InventoryWindow\l::InventoryWindow">
<polygon fill="white" stroke="black" points="904,-68 904,-98 1030,-98 1030,-68 904,-68"/>
<text text-anchor="start" x="912" y="-86" font-family="FreeSans" font-size="10.00">MWGui::InventoryWindow</text>
<text text-anchor="middle" x="967" y="-75" font-family="FreeSans" font-size="10.00">::InventoryWindow</text>
</a>
</g>
</g>
<!-- Node5&#45;&gt;Node6 -->
<g id="edge5" class="edge"><title>Node5&#45;&gt;Node6</title>
<path fill="none" stroke="midnightblue" d="M878.267,-96.7083C886.808,-95.3738 895.468,-94.0207 903.852,-92.7107"/>
<polygon fill="midnightblue" stroke="midnightblue" points="877.658,-93.2609 868.318,-98.2628 878.739,-100.177 877.658,-93.2609"/>
</g>
<!-- Node7&#45;&gt;Node6 -->
<g id="edge7" class="edge"><title>Node7&#45;&gt;Node6</title>
<path fill="none" stroke="midnightblue" d="M878.267,-69.84C886.808,-71.1212 895.468,-72.4201 903.852,-73.6778"/>
<polygon fill="midnightblue" stroke="midnightblue" points="878.727,-66.37 868.318,-68.3477 877.688,-73.2925 878.727,-66.37"/>
</g>
<!-- Node8&#45;&gt;Node4 -->
<g id="edge9" class="edge"><title>Node8&#45;&gt;Node4</title>
<path fill="none" stroke="midnightblue" d="M500.295,-103.753C512.101,-103.876 524.416,-104.004 536.465,-104.13"/>
<polygon fill="midnightblue" stroke="midnightblue" points="500.108,-100.251 490.072,-103.647 500.035,-107.251 500.108,-100.251"/>
</g>
<!-- Node10 -->
<g id="node10" class="node"><title>Node10</title>
<g id="a_node10"><a xlink:href="classMWGui_1_1HUD.html#a7371a5a68d01bcecc0574b4ced993df6" target="_top" xlink:title="MWGui::HUD::onWorldClicked">
<polygon fill="white" stroke="black" points="354,-5.5 354,-24.5 500,-24.5 500,-5.5 354,-5.5"/>
<text text-anchor="middle" x="427" y="-12.5" font-family="FreeSans" font-size="10.00">MWGui::HUD::onWorldClicked</text>
</a>
</g>
</g>
<!-- Node9&#45;&gt;Node10 -->
<g id="edge12" class="edge"><title>Node9&#45;&gt;Node10</title>
<path fill="none" stroke="midnightblue" d="M312.459,-15C326.068,-15 340.294,-15 353.892,-15"/>
<polygon fill="midnightblue" stroke="midnightblue" points="312.194,-11.5001 302.194,-15 312.194,-18.5001 312.194,-11.5001"/>
</g>
<!-- Node11 -->
<g id="node11" class="node"><title>Node11</title>
<g id="a_node11"><a xlink:href="classMWGui_1_1HUD.html#a461afa538370aed6d6283441e44dedd2" target="_top" xlink:title="MWGui::HUD::HUD">
<polygon fill="white" stroke="black" points="572,-5.5 572,-24.5 670,-24.5 670,-5.5 572,-5.5"/>
<text text-anchor="middle" x="621" y="-12.5" font-family="FreeSans" font-size="10.00">MWGui::HUD::HUD</text>
</a>
</g>
</g>
<!-- Node10&#45;&gt;Node11 -->
<g id="edge13" class="edge"><title>Node10&#45;&gt;Node11</title>
<path fill="none" stroke="midnightblue" d="M510.248,-15C531.226,-15 553.099,-15 571.747,-15"/>
<polygon fill="midnightblue" stroke="midnightblue" points="510.04,-11.5001 500.04,-15 510.04,-18.5001 510.04,-11.5001"/>
</g>
</g>
</svg>
