<?xml version="1.0" encoding="UTF-8" standalone="no"?>
<!DOCTYPE svg PUBLIC "-//W3C//DTD SVG 1.1//EN"
 "http://www.w3.org/Graphics/SVG/1.1/DTD/svg11.dtd">
<!-- Generated by graphviz version 2.36.0 (20140111.2315)
 -->
<!-- Title: MWGui::DragAndDrop::drop Pages: 1 -->
<svg width="706pt" height="341pt"
 viewBox="0.00 0.00 706.00 341.00" xmlns="http://www.w3.org/2000/svg" xmlns:xlink="http://www.w3.org/1999/xlink">
<g id="graph0" class="graph" transform="scale(1 1) rotate(0) translate(4 337)">
<title>MWGui::DragAndDrop::drop</title>
<polygon fill="white" stroke="none" points="-4,4 -4,-337 702,-337 702,4 -4,4"/>
<!-- Node1 -->
<g id="node1" class="node"><title>Node1</title>
<polygon fill="#bfbfbf" stroke="black" points="0,-159 0,-189 120,-189 120,-159 0,-159"/>
<text text-anchor="start" x="8" y="-177" font-family="FreeSans" font-size="10.00">MWGui::DragAndDrop</text>
<text text-anchor="middle" x="60" y="-166" font-family="FreeSans" font-size="10.00">::drop</text>
</g>
<!-- Node2 -->
<g id="node2" class="node"><title>Node2</title>
<g id="a_node2"><a xlink:href="classMWGui_1_1ContainerWindow.html#a7b3b20e84d133f523b26c98b306fe838" target="_top" xlink:title="MWGui::ContainerWindow\l::dropItem">
<polygon fill="white" stroke="black" points="180.5,-279 180.5,-309 317.5,-309 317.5,-279 180.5,-279"/>
<text text-anchor="start" x="188.5" y="-297" font-family="FreeSans" font-size="10.00">MWGui::ContainerWindow</text>
<text text-anchor="middle" x="249" y="-286" font-family="FreeSans" font-size="10.00">::dropItem</text>
</a>
</g>
</g>
<!-- Node1&#45;&gt;Node2 -->
<g id="edge1" class="edge"><title>Node1&#45;&gt;Node2</title>
<path fill="none" stroke="midnightblue" d="M78.3731,-197.335C95.7145,-219.008 124.29,-250.618 156,-269 163.446,-273.317 171.663,-276.911 180.031,-279.899"/>
<polygon fill="midnightblue" stroke="midnightblue" points="80.996,-195.008 72.08,-189.284 75.4809,-199.319 80.996,-195.008"/>
</g>
<!-- Node6 -->
<g id="node6" class="node"><title>Node6</title>
<g id="a_node6"><a xlink:href="classMWGui_1_1CompanionWindow.html#a642ee0f71a0a5ebb344b38d4cdf1b2ef" target="_top" xlink:title="MWGui::CompanionWindow\l::onItemSelected">
<polygon fill="white" stroke="black" points="176.5,-230 176.5,-260 321.5,-260 321.5,-230 176.5,-230"/>
<text text-anchor="start" x="184.5" y="-248" font-family="FreeSans" font-size="10.00">MWGui::CompanionWindow</text>
<text text-anchor="middle" x="249" y="-237" font-family="FreeSans" font-size="10.00">::onItemSelected</text>
</a>
</g>
</g>
<!-- Node1&#45;&gt;Node6 -->
<g id="edge6" class="edge"><title>Node1&#45;&gt;Node6</title>
<path fill="none" stroke="midnightblue" d="M97.8628,-193.827C115.18,-202.624 136.306,-212.629 156,-220 165.611,-223.597 175.963,-226.918 186.133,-229.886"/>
<polygon fill="midnightblue" stroke="midnightblue" points="99.1595,-190.558 88.6671,-189.088 95.953,-196.78 99.1595,-190.558"/>
</g>
<!-- Node8 -->
<g id="node8" class="node"><title>Node8</title>
<g id="a_node8"><a xlink:href="classMWGui_1_1CompanionWindow.html#ab55804a4ff7cfc55e58334186d725702" target="_top" xlink:title="MWGui::CompanionWindow\l::onBackgroundSelected">
<polygon fill="white" stroke="black" points="176.5,-181 176.5,-211 321.5,-211 321.5,-181 176.5,-181"/>
<text text-anchor="start" x="184.5" y="-199" font-family="FreeSans" font-size="10.00">MWGui::CompanionWindow</text>
<text text-anchor="middle" x="249" y="-188" font-family="FreeSans" font-size="10.00">::onBackgroundSelected</text>
</a>
</g>
</g>
<!-- Node1&#45;&gt;Node8 -->
<g id="edge8" class="edge"><title>Node1&#45;&gt;Node8</title>
<path fill="none" stroke="midnightblue" d="M130.404,-182.165C145.424,-183.932 161.335,-185.804 176.436,-187.581"/>
<polygon fill="midnightblue" stroke="midnightblue" points="130.508,-178.653 120.168,-180.961 129.691,-185.605 130.508,-178.653"/>
</g>
<!-- Node9 -->
<g id="node9" class="node"><title>Node9</title>
<g id="a_node9"><a xlink:href="classMWGui_1_1HUD.html#a7371a5a68d01bcecc0574b4ced993df6" target="_top" xlink:title="MWGui::HUD::onWorldClicked">
<polygon fill="white" stroke="black" points="171.5,-142.5 171.5,-161.5 326.5,-161.5 326.5,-142.5 171.5,-142.5"/>
<text text-anchor="middle" x="249" y="-149.5" font-family="FreeSans" font-size="10.00">MWGui::HUD::onWorldClicked</text>
</a>
</g>
</g>
<!-- Node1&#45;&gt;Node9 -->
<g id="edge10" class="edge"><title>Node1&#45;&gt;Node9</title>
<path fill="none" stroke="midnightblue" d="M130.258,-165.852C143.661,-164.275 157.778,-162.614 171.4,-161.012"/>
<polygon fill="midnightblue" stroke="midnightblue" points="129.691,-162.395 120.168,-167.039 130.508,-169.347 129.691,-162.395"/>
</g>
<!-- Node11 -->
<g id="node11" class="node"><title>Node11</title>
<g id="a_node11"><a xlink:href="classMWGui_1_1InventoryWindow.html#ae4a86f792c1ee4a94ff9be60f53df453" target="_top" xlink:title="MWGui::InventoryWindow\l::onBackgroundSelected">
<polygon fill="white" stroke="black" points="182,-93 182,-123 316,-123 316,-93 182,-93"/>
<text text-anchor="start" x="190" y="-111" font-family="FreeSans" font-size="10.00">MWGui::InventoryWindow</text>
<text text-anchor="middle" x="249" y="-100" font-family="FreeSans" font-size="10.00">::onBackgroundSelected</text>
</a>
</g>
</g>
<!-- Node1&#45;&gt;Node11 -->
<g id="edge12" class="edge"><title>Node1&#45;&gt;Node11</title>
<path fill="none" stroke="midnightblue" d="M102.036,-154.774C118.589,-147.42 137.998,-139.295 156,-133 166.155,-129.449 177.085,-126.089 187.741,-123.053"/>
<polygon fill="midnightblue" stroke="midnightblue" points="100.336,-151.701 92.652,-158.996 103.208,-158.085 100.336,-151.701"/>
</g>
<!-- Node13 -->
<g id="node13" class="node"><title>Node13</title>
<g id="a_node13"><a xlink:href="classMWGui_1_1InventoryWindow.html#a5b889ff5cadf8ed97fbb98cfe123055d" target="_top" xlink:title="MWGui::InventoryWindow\l::onItemSelectedFromSourceModel">
<polygon fill="white" stroke="black" points="156.5,-44 156.5,-74 341.5,-74 341.5,-44 156.5,-44"/>
<text text-anchor="start" x="164.5" y="-62" font-family="FreeSans" font-size="10.00">MWGui::InventoryWindow</text>
<text text-anchor="middle" x="249" y="-51" font-family="FreeSans" font-size="10.00">::onItemSelectedFromSourceModel</text>
</a>
</g>
</g>
<!-- Node1&#45;&gt;Node13 -->
<g id="edge14" class="edge"><title>Node1&#45;&gt;Node13</title>
<path fill="none" stroke="midnightblue" d="M78.8383,-151.25C96.3297,-130.468 124.846,-100.408 156,-83 162.196,-79.5378 168.907,-76.5616 175.784,-74.0057"/>
<polygon fill="midnightblue" stroke="midnightblue" points="76.1257,-149.038 72.475,-158.984 81.5313,-153.485 76.1257,-149.038"/>
</g>
<!-- Node3 -->
<g id="node3" class="node"><title>Node3</title>
<g id="a_node3"><a xlink:href="classMWGui_1_1ContainerWindow.html#a4ffe65e3e73969e3f9928b622cbc20c6" target="_top" xlink:title="MWGui::ContainerWindow\l::onItemSelected">
<polygon fill="white" stroke="black" points="382.5,-303 382.5,-333 519.5,-333 519.5,-303 382.5,-303"/>
<text text-anchor="start" x="390.5" y="-321" font-family="FreeSans" font-size="10.00">MWGui::ContainerWindow</text>
<text text-anchor="middle" x="451" y="-310" font-family="FreeSans" font-size="10.00">::onItemSelected</text>
</a>
</g>
</g>
<!-- Node2&#45;&gt;Node3 -->
<g id="edge2" class="edge"><title>Node2&#45;&gt;Node3</title>
<path fill="none" stroke="midnightblue" d="M327.874,-303.345C345.859,-305.503 364.851,-307.782 382.359,-309.883"/>
<polygon fill="midnightblue" stroke="midnightblue" points="328.057,-299.842 317.711,-302.125 327.223,-306.792 328.057,-299.842"/>
</g>
<!-- Node5 -->
<g id="node5" class="node"><title>Node5</title>
<g id="a_node5"><a xlink:href="classMWGui_1_1ContainerWindow.html#a699198d251bc0263a25c3f6d0b705c6a" target="_top" xlink:title="MWGui::ContainerWindow\l::onBackgroundSelected">
<polygon fill="white" stroke="black" points="382.5,-254 382.5,-284 519.5,-284 519.5,-254 382.5,-254"/>
<text text-anchor="start" x="390.5" y="-272" font-family="FreeSans" font-size="10.00">MWGui::ContainerWindow</text>
<text text-anchor="middle" x="451" y="-261" font-family="FreeSans" font-size="10.00">::onBackgroundSelected</text>
</a>
</g>
</g>
<!-- Node2&#45;&gt;Node5 -->
<g id="edge4" class="edge"><title>Node2&#45;&gt;Node5</title>
<path fill="none" stroke="midnightblue" d="M327.874,-284.266C345.859,-282.018 364.851,-279.644 382.359,-277.455"/>
<polygon fill="midnightblue" stroke="midnightblue" points="327.2,-280.823 317.711,-285.536 328.068,-287.769 327.2,-280.823"/>
</g>
<!-- Node4 -->
<g id="node4" class="node"><title>Node4</title>
<g id="a_node4"><a xlink:href="classMWGui_1_1ContainerWindow.html#acfb914937a6eb3a24bde7ea54266dbcd" target="_top" xlink:title="MWGui::ContainerWindow\l::ContainerWindow">
<polygon fill="white" stroke="black" points="560.5,-278 560.5,-308 697.5,-308 697.5,-278 560.5,-278"/>
<text text-anchor="start" x="568.5" y="-296" font-family="FreeSans" font-size="10.00">MWGui::ContainerWindow</text>
<text text-anchor="middle" x="629" y="-285" font-family="FreeSans" font-size="10.00">::ContainerWindow</text>
</a>
</g>
</g>
<!-- Node3&#45;&gt;Node4 -->
<g id="edge3" class="edge"><title>Node3&#45;&gt;Node4</title>
<path fill="none" stroke="midnightblue" d="M529.68,-306.966C539.902,-305.514 550.311,-304.035 560.347,-302.61"/>
<polygon fill="midnightblue" stroke="midnightblue" points="528.951,-303.534 519.543,-308.406 529.936,-310.465 528.951,-303.534"/>
</g>
<!-- Node5&#45;&gt;Node4 -->
<g id="edge5" class="edge"><title>Node5&#45;&gt;Node4</title>
<path fill="none" stroke="midnightblue" d="M529.68,-279.593C539.902,-280.987 550.311,-282.406 560.347,-283.775"/>
<polygon fill="midnightblue" stroke="midnightblue" points="529.924,-276.094 519.543,-278.21 528.978,-283.03 529.924,-276.094"/>
</g>
<!-- Node7 -->
<g id="node7" class="node"><title>Node7</title>
<g id="a_node7"><a xlink:href="classMWGui_1_1CompanionWindow.html#a3cfb5477756f65fbcb82ad9452c9399e" target="_top" xlink:title="MWGui::CompanionWindow\l::CompanionWindow">
<polygon fill="white" stroke="black" points="378.5,-205 378.5,-235 523.5,-235 523.5,-205 378.5,-205"/>
<text text-anchor="start" x="386.5" y="-223" font-family="FreeSans" font-size="10.00">MWGui::CompanionWindow</text>
<text text-anchor="middle" x="451" y="-212" font-family="FreeSans" font-size="10.00">::CompanionWindow</text>
</a>
</g>
</g>
<!-- Node6&#45;&gt;Node7 -->
<g id="edge7" class="edge"><title>Node6&#45;&gt;Node7</title>
<path fill="none" stroke="midnightblue" d="M331.668,-234.792C347.084,-232.865 363.102,-230.862 378.188,-228.976"/>
<polygon fill="midnightblue" stroke="midnightblue" points="331.128,-231.332 321.64,-236.045 331.997,-238.278 331.128,-231.332"/>
</g>
<!-- Node8&#45;&gt;Node7 -->
<g id="edge9" class="edge"><title>Node8&#45;&gt;Node7</title>
<path fill="none" stroke="midnightblue" d="M331.668,-205.8C347.084,-207.65 363.102,-209.572 378.188,-211.383"/>
<polygon fill="midnightblue" stroke="midnightblue" points="331.985,-202.313 321.64,-204.597 331.151,-209.263 331.985,-202.313"/>
</g>
<!-- Node10 -->
<g id="node10" class="node"><title>Node10</title>
<g id="a_node10"><a xlink:href="classMWGui_1_1HUD.html#a461afa538370aed6d6283441e44dedd2" target="_top" xlink:title="MWGui::HUD::HUD">
<polygon fill="white" stroke="black" points="398,-142.5 398,-161.5 504,-161.5 504,-142.5 398,-142.5"/>
<text text-anchor="middle" x="451" y="-149.5" font-family="FreeSans" font-size="10.00">MWGui::HUD::HUD</text>
</a>
</g>
</g>
<!-- Node9&#45;&gt;Node10 -->
<g id="edge11" class="edge"><title>Node9&#45;&gt;Node10</title>
<path fill="none" stroke="midnightblue" d="M336.886,-152C357.684,-152 379.253,-152 397.909,-152"/>
<polygon fill="midnightblue" stroke="midnightblue" points="336.753,-148.5 326.753,-152 336.753,-155.5 336.753,-148.5"/>
</g>
<!-- Node12 -->
<g id="node12" class="node"><title>Node12</title>
<g id="a_node12"><a xlink:href="classMWGui_1_1InventoryWindow.html#a12e661e522f594464ed49a782220998f" target="_top" xlink:title="MWGui::InventoryWindow\l::InventoryWindow">
<polygon fill="white" stroke="black" points="562,-49 562,-79 696,-79 696,-49 562,-49"/>
<text text-anchor="start" x="570" y="-67" font-family="FreeSans" font-size="10.00">MWGui::InventoryWindow</text>
<text text-anchor="middle" x="629" y="-56" font-family="FreeSans" font-size="10.00">::InventoryWindow</text>
</a>
</g>
</g>
<!-- Node11&#45;&gt;Node12 -->
<g id="edge13" class="edge"><title>Node11&#45;&gt;Node12</title>
<path fill="none" stroke="midnightblue" d="M326.249,-105.582C381.417,-103.068 457.625,-98.0202 524,-88 539.024,-85.7319 555.094,-82.4544 569.998,-79.0468"/>
<polygon fill="midnightblue" stroke="midnightblue" points="326.037,-102.087 316.2,-106.022 326.343,-109.081 326.037,-102.087"/>
</g>
<!-- Node14 -->
<g id="node14" class="node"><title>Node14</title>
<g id="a_node14"><a xlink:href="classMWGui_1_1InventoryWindow.html#abbdeec7917453c0625d82da5adf58b7d" target="_top" xlink:title="MWGui::InventoryWindow\l::onItemSelected">
<polygon fill="white" stroke="black" points="384,-49 384,-79 518,-79 518,-49 384,-49"/>
<text text-anchor="start" x="392" y="-67" font-family="FreeSans" font-size="10.00">MWGui::InventoryWindow</text>
<text text-anchor="middle" x="451" y="-56" font-family="FreeSans" font-size="10.00">::onItemSelected</text>
</a>
</g>
</g>
<!-- Node13&#45;&gt;Node14 -->
<g id="edge15" class="edge"><title>Node13&#45;&gt;Node14</title>
<path fill="none" stroke="midnightblue" d="M351.589,-61.5397C362.569,-61.8142 373.524,-62.0881 383.923,-62.3481"/>
<polygon fill="midnightblue" stroke="midnightblue" points="351.597,-58.0389 341.513,-61.2878 351.422,-65.0368 351.597,-58.0389"/>
</g>
<!-- Node15 -->
<g id="node15" class="node"><title>Node15</title>
<g id="a_node15"><a xlink:href="classMWGui_1_1InventoryWindow.html#ac0cf452b697e42ebb942910bdc98db4c" target="_top" xlink:title="MWGui::InventoryWindow\l::onAvatarClicked">
<polygon fill="white" stroke="black" points="384,-0 384,-30 518,-30 518,-0 384,-0"/>
<text text-anchor="start" x="392" y="-18" font-family="FreeSans" font-size="10.00">MWGui::InventoryWindow</text>
<text text-anchor="middle" x="451" y="-7" font-family="FreeSans" font-size="10.00">::onAvatarClicked</text>
</a>
</g>
</g>
<!-- Node13&#45;&gt;Node15 -->
<g id="edge17" class="edge"><title>Node13&#45;&gt;Node15</title>
<path fill="none" stroke="midnightblue" d="M328.072,-41.8241C346.47,-37.7766 365.909,-33.5 383.73,-29.5795"/>
<polygon fill="midnightblue" stroke="midnightblue" points="327.284,-38.4138 318.269,-43.9808 328.788,-45.2503 327.284,-38.4138"/>
</g>
<!-- Node14&#45;&gt;Node12 -->
<g id="edge16" class="edge"><title>Node14&#45;&gt;Node12</title>
<path fill="none" stroke="midnightblue" d="M528.234,-64C539.44,-64 550.906,-64 561.886,-64"/>
<polygon fill="midnightblue" stroke="midnightblue" points="528.037,-60.5001 518.037,-64 528.037,-67.5001 528.037,-60.5001"/>
</g>
<!-- Node15&#45;&gt;Node12 -->
<g id="edge18" class="edge"><title>Node15&#45;&gt;Node12</title>
<path fill="none" stroke="midnightblue" d="M516.011,-32.8212C535.014,-38.1118 555.632,-43.8522 573.937,-48.9484"/>
<polygon fill="midnightblue" stroke="midnightblue" points="516.814,-29.4118 506.242,-30.1014 514.937,-36.1554 516.814,-29.4118"/>
</g>
</g>
</svg>
