<?xml version="1.0" encoding="UTF-8" standalone="no"?>
<!DOCTYPE svg PUBLIC "-//W3C//DTD SVG 1.1//EN"
 "http://www.w3.org/Graphics/SVG/1.1/DTD/svg11.dtd">
<!-- Generated by graphviz version 2.36.0 (20140111.2315)
 -->
<!-- Title: Settings::Manager::setBool Pages: 1 -->
<svg width="616pt" height="87pt"
 viewBox="0.00 0.00 616.00 87.00" xmlns="http://www.w3.org/2000/svg" xmlns:xlink="http://www.w3.org/1999/xlink">
<g id="graph0" class="graph" transform="scale(1 1) rotate(0) translate(4 83)">
<title>Settings::Manager::setBool</title>
<polygon fill="white" stroke="none" points="-4,4 -4,-83 612,-83 612,4 -4,4"/>
<!-- Node1 -->
<g id="node1" class="node"><title>Node1</title>
<polygon fill="#bfbfbf" stroke="black" points="0,-24 0,-54 110,-54 110,-24 0,-24"/>
<text text-anchor="start" x="8" y="-42" font-family="FreeSans" font-size="10.00">Settings::Manager::</text>
<text text-anchor="middle" x="55" y="-31" font-family="FreeSans" font-size="10.00">setBool</text>
</g>
<!-- Node2 -->
<g id="node2" class="node"><title>Node2</title>
<g id="a_node2"><a xlink:href="classMWGui_1_1SettingsWindow.html#a999222dcd7c83bcf6ccebc69c9fa9c44" target="_top" xlink:title="MWGui::SettingsWindow\l::onButtonToggled">
<polygon fill="white" stroke="black" points="146,-49 146,-79 276,-79 276,-49 146,-49"/>
<text text-anchor="start" x="154" y="-67" font-family="FreeSans" font-size="10.00">MWGui::SettingsWindow</text>
<text text-anchor="middle" x="211" y="-56" font-family="FreeSans" font-size="10.00">::onButtonToggled</text>
</a>
</g>
</g>
<!-- Node1&#45;&gt;Node2 -->
<g id="edge1" class="edge"><title>Node1&#45;&gt;Node2</title>
<path fill="none" stroke="midnightblue" d="M120.441,-49.4612C128.866,-50.8289 137.497,-52.23 145.916,-53.5967"/>
<polygon fill="midnightblue" stroke="midnightblue" points="120.726,-45.9618 110.295,-47.8141 119.605,-52.8713 120.726,-45.9618"/>
</g>
<!-- Node5 -->
<g id="node5" class="node"><title>Node5</title>
<g id="a_node5"><a xlink:href="classMWInput_1_1InputManager.html#aa7c43bc9a9c5e1fae3ddd83df826310b" target="_top" xlink:title="MWInput::InputManager\l::toggleWalking">
<polygon fill="white" stroke="black" points="146.5,-0 146.5,-30 275.5,-30 275.5,-0 146.5,-0"/>
<text text-anchor="start" x="154.5" y="-18" font-family="FreeSans" font-size="10.00">MWInput::InputManager</text>
<text text-anchor="middle" x="211" y="-7" font-family="FreeSans" font-size="10.00">::toggleWalking</text>
</a>
</g>
</g>
<!-- Node1&#45;&gt;Node5 -->
<g id="edge4" class="edge"><title>Node1&#45;&gt;Node5</title>
<path fill="none" stroke="midnightblue" d="M120.313,-28.9771C128.957,-27.6301 137.82,-26.2489 146.45,-24.9039"/>
<polygon fill="midnightblue" stroke="midnightblue" points="119.636,-25.5403 110.295,-30.5385 120.714,-32.4568 119.636,-25.5403"/>
</g>
<!-- Node3 -->
<g id="node3" class="node"><title>Node3</title>
<g id="a_node3"><a xlink:href="classMWGui_1_1SettingsWindow.html#ac4f47b03b471c1947b8d5c068db21368" target="_top" xlink:title="MWGui::SettingsWindow\l::configureWidgets">
<polygon fill="white" stroke="black" points="312,-49 312,-79 442,-79 442,-49 312,-49"/>
<text text-anchor="start" x="320" y="-67" font-family="FreeSans" font-size="10.00">MWGui::SettingsWindow</text>
<text text-anchor="middle" x="377" y="-56" font-family="FreeSans" font-size="10.00">::configureWidgets</text>
</a>
</g>
</g>
<!-- Node2&#45;&gt;Node3 -->
<g id="edge2" class="edge"><title>Node2&#45;&gt;Node3</title>
<path fill="none" stroke="midnightblue" d="M286.564,-64C295.004,-64 303.549,-64 311.839,-64"/>
<polygon fill="midnightblue" stroke="midnightblue" points="286.346,-60.5001 276.346,-64 286.346,-67.5001 286.346,-60.5001"/>
</g>
<!-- Node4 -->
<g id="node4" class="node"><title>Node4</title>
<g id="a_node4"><a xlink:href="classMWGui_1_1SettingsWindow.html#a313db8c90cc992dff50fb8845c263ec6" target="_top" xlink:title="MWGui::SettingsWindow\l::SettingsWindow">
<polygon fill="white" stroke="black" points="478,-49 478,-79 608,-79 608,-49 478,-49"/>
<text text-anchor="start" x="486" y="-67" font-family="FreeSans" font-size="10.00">MWGui::SettingsWindow</text>
<text text-anchor="middle" x="543" y="-56" font-family="FreeSans" font-size="10.00">::SettingsWindow</text>
</a>
</g>
</g>
<!-- Node3&#45;&gt;Node4 -->
<g id="edge3" class="edge"><title>Node3&#45;&gt;Node4</title>
<path fill="none" stroke="midnightblue" d="M452.564,-64C461.004,-64 469.549,-64 477.839,-64"/>
<polygon fill="midnightblue" stroke="midnightblue" points="452.346,-60.5001 442.346,-64 452.346,-67.5001 452.346,-60.5001"/>
</g>
<!-- Node6 -->
<g id="node6" class="node"><title>Node6</title>
<g id="a_node6"><a xlink:href="classMWInput_1_1InputManager.html#a36df0af06e2c3c1d192cc7f9fccfde5d" target="_top" xlink:title="MWInput::InputManager\l::channelChanged">
<polygon fill="white" stroke="black" points="312.5,-0 312.5,-30 441.5,-30 441.5,-0 312.5,-0"/>
<text text-anchor="start" x="320.5" y="-18" font-family="FreeSans" font-size="10.00">MWInput::InputManager</text>
<text text-anchor="middle" x="377" y="-7" font-family="FreeSans" font-size="10.00">::channelChanged</text>
</a>
</g>
</g>
<!-- Node5&#45;&gt;Node6 -->
<g id="edge5" class="edge"><title>Node5&#45;&gt;Node6</title>
<path fill="none" stroke="midnightblue" d="M286.073,-15C294.828,-15 303.704,-15 312.298,-15"/>
<polygon fill="midnightblue" stroke="midnightblue" points="285.876,-11.5001 275.876,-15 285.876,-18.5001 285.876,-11.5001"/>
</g>
</g>
</svg>
