<?xml version="1.0" encoding="UTF-8" standalone="no"?>
<!DOCTYPE svg PUBLIC "-//W3C//DTD SVG 1.1//EN"
 "http://www.w3.org/Graphics/SVG/1.1/DTD/svg11.dtd">
<!-- Generated by graphviz version 2.36.0 (20140111.2315)
 -->
<!-- Title: MWClass::Container::insertObject Pages: 1 -->
<svg width="452pt" height="189pt"
 viewBox="0.00 0.00 452.00 189.00" xmlns="http://www.w3.org/2000/svg" xmlns:xlink="http://www.w3.org/1999/xlink">
<g id="graph0" class="graph" transform="scale(1 1) rotate(0) translate(4 185)">
<title>MWClass::Container::insertObject</title>
<polygon fill="white" stroke="none" points="-4,4 -4,-185 448,-185 448,4 -4,4"/>
<!-- Node1 -->
<g id="node1" class="node"><title>Node1</title>
<polygon fill="#bfbfbf" stroke="black" points="0.5,-61 0.5,-91 103.5,-91 103.5,-61 0.5,-61"/>
<text text-anchor="start" x="8.5" y="-79" font-family="FreeSans" font-size="10.00">MWClass::Container</text>
<text text-anchor="middle" x="52" y="-68" font-family="FreeSans" font-size="10.00">::insertObject</text>
</g>
<!-- Node2 -->
<g id="node2" class="node"><title>Node2</title>
<g id="a_node2"><a xlink:href="classMWPhysics_1_1PhysicsSystem.html#af08fb39e0942364890248ea19f1ed4ff" target="_top" xlink:title="MWPhysics::PhysicsSystem\l::addObject">
<polygon fill="white" stroke="black" points="153.5,-127 153.5,-157 290.5,-157 290.5,-127 153.5,-127"/>
<text text-anchor="start" x="161.5" y="-145" font-family="FreeSans" font-size="10.00">MWPhysics::PhysicsSystem</text>
<text text-anchor="middle" x="222" y="-134" font-family="FreeSans" font-size="10.00">::addObject</text>
</a>
</g>
</g>
<!-- Node1&#45;&gt;Node2 -->
<g id="edge1" class="edge"><title>Node1&#45;&gt;Node2</title>
<path fill="none" stroke="midnightblue" d="M82.3442,-91.0966C99.002,-99.3434 120.384,-109.394 140,-117 145.943,-119.304 152.194,-121.545 158.478,-123.676"/>
<polygon fill="midnightblue" stroke="midnightblue" points="157.748,-127.121 168.341,-126.931 159.942,-120.474 157.748,-127.121"/>
</g>
<!-- Node5 -->
<g id="node5" class="node"><title>Node5</title>
<g id="a_node5"><a xlink:href="classMWBase_1_1Environment.html#a73f12633762b049c03c80fe215873faa" target="_top" xlink:title="Return instance of this class. ">
<polygon fill="white" stroke="black" points="156.5,-88.5 156.5,-107.5 287.5,-107.5 287.5,-88.5 156.5,-88.5"/>
<text text-anchor="middle" x="222" y="-95.5" font-family="FreeSans" font-size="10.00">MWBase::Environment::get</text>
</a>
</g>
</g>
<!-- Node1&#45;&gt;Node5 -->
<g id="edge4" class="edge"><title>Node1&#45;&gt;Node5</title>
<path fill="none" stroke="midnightblue" d="M103.861,-82.6604C117.15,-84.4006 131.757,-86.3134 146.014,-88.1804"/>
<polygon fill="midnightblue" stroke="midnightblue" points="145.939,-91.7004 156.309,-89.5285 146.848,-84.7596 145.939,-91.7004"/>
</g>
<!-- Node6 -->
<g id="node6" class="node"><title>Node6</title>
<g id="a_node6"><a xlink:href="classMWBase_1_1Environment.html#a571bbf2793948af02f188c25f0a4ba23" target="_top" xlink:title="MWBase::Environment\l::getMechanicsManager">
<polygon fill="white" stroke="black" points="162.5,-39 162.5,-69 281.5,-69 281.5,-39 162.5,-39"/>
<text text-anchor="start" x="170.5" y="-57" font-family="FreeSans" font-size="10.00">MWBase::Environment</text>
<text text-anchor="middle" x="222" y="-46" font-family="FreeSans" font-size="10.00">::getMechanicsManager</text>
</a>
</g>
</g>
<!-- Node1&#45;&gt;Node6 -->
<g id="edge5" class="edge"><title>Node1&#45;&gt;Node6</title>
<path fill="none" stroke="midnightblue" d="M103.861,-69.3396C119.137,-67.3392 136.154,-65.1108 152.378,-62.9862"/>
<polygon fill="midnightblue" stroke="midnightblue" points="152.894,-66.4486 162.355,-61.6797 151.985,-59.5078 152.894,-66.4486"/>
</g>
<!-- Node7 -->
<g id="node7" class="node"><title>Node7</title>
<g id="a_node7"><a xlink:href="classMWBase_1_1MechanicsManager.html#af7c582ab8154859c6ac8de69c62b5158" target="_top" xlink:title="Register an object for management. ">
<polygon fill="white" stroke="black" points="140,-0.5 140,-19.5 304,-19.5 304,-0.5 140,-0.5"/>
<text text-anchor="middle" x="222" y="-7.5" font-family="FreeSans" font-size="10.00">MWBase::MechanicsManager::add</text>
</a>
</g>
</g>
<!-- Node1&#45;&gt;Node7 -->
<g id="edge6" class="edge"><title>Node1&#45;&gt;Node7</title>
<path fill="none" stroke="midnightblue" d="M77.7416,-60.8269C94.7501,-50.9259 118.128,-38.3381 140,-30 147.782,-27.0331 156.155,-24.39 164.461,-22.0749"/>
<polygon fill="midnightblue" stroke="midnightblue" points="165.371,-25.4545 174.14,-19.5082 163.577,-18.6884 165.371,-25.4545"/>
</g>
<!-- Node3 -->
<g id="node3" class="node"><title>Node3</title>
<g id="a_node3"><a xlink:href="classMWPhysics_1_1Object.html#a8738b9be408370c764b9319f51567f02" target="_top" xlink:title="MWPhysics::Object::\lisAnimated">
<polygon fill="white" stroke="black" points="340,-151 340,-181 444,-181 444,-151 340,-151"/>
<text text-anchor="start" x="348" y="-169" font-family="FreeSans" font-size="10.00">MWPhysics::Object::</text>
<text text-anchor="middle" x="392" y="-158" font-family="FreeSans" font-size="10.00">isAnimated</text>
</a>
</g>
</g>
<!-- Node2&#45;&gt;Node3 -->
<g id="edge2" class="edge"><title>Node2&#45;&gt;Node3</title>
<path fill="none" stroke="midnightblue" d="M290.848,-151.693C303.782,-153.54 317.247,-155.464 329.954,-157.279"/>
<polygon fill="midnightblue" stroke="midnightblue" points="329.562,-160.759 339.957,-158.708 330.552,-153.829 329.562,-160.759"/>
</g>
<!-- Node4 -->
<g id="node4" class="node"><title>Node4</title>
<g id="a_node4"><a xlink:href="classMWPhysics_1_1Object.html#ae1d7905b89ad210e125b3de735e08cf1" target="_top" xlink:title="MWPhysics::Object::\lgetCollisionObject">
<polygon fill="white" stroke="black" points="340,-102 340,-132 444,-132 444,-102 340,-102"/>
<text text-anchor="start" x="348" y="-120" font-family="FreeSans" font-size="10.00">MWPhysics::Object::</text>
<text text-anchor="middle" x="392" y="-109" font-family="FreeSans" font-size="10.00">getCollisionObject</text>
</a>
</g>
</g>
<!-- Node2&#45;&gt;Node4 -->
<g id="edge3" class="edge"><title>Node2&#45;&gt;Node4</title>
<path fill="none" stroke="midnightblue" d="M290.848,-131.904C303.782,-129.979 317.247,-127.975 329.954,-126.084"/>
<polygon fill="midnightblue" stroke="midnightblue" points="330.581,-129.53 339.957,-124.596 329.55,-122.606 330.581,-129.53"/>
</g>
</g>
</svg>
