<?xml version="1.0" encoding="UTF-8" standalone="no"?>
<!DOCTYPE svg PUBLIC "-//W3C//DTD SVG 1.1//EN"
 "http://www.w3.org/Graphics/SVG/1.1/DTD/svg11.dtd">
<!-- Generated by graphviz version 2.36.0 (20140111.2315)
 -->
<!-- Title: MWClass::Armor::getToolTipInfo Pages: 1 -->
<svg width="942pt" height="1087pt"
 viewBox="0.00 0.00 942.00 1087.42" xmlns="http://www.w3.org/2000/svg" xmlns:xlink="http://www.w3.org/1999/xlink">
<g id="graph0" class="graph" transform="scale(1 1) rotate(0) translate(4 1083.42)">
<title>MWClass::Armor::getToolTipInfo</title>
<polygon fill="white" stroke="none" points="-4,4 -4,-1083.42 938,-1083.42 938,4 -4,4"/>
<!-- Node1 -->
<g id="node1" class="node"><title>Node1</title>
<polygon fill="#bfbfbf" stroke="black" points="0.5,-568.5 0.5,-587.5 165.5,-587.5 165.5,-568.5 0.5,-568.5"/>
<text text-anchor="middle" x="83" y="-575.5" font-family="FreeSans" font-size="10.00">MWClass::Armor::getToolTipInfo</text>
</g>
<!-- Node2 -->
<g id="node2" class="node"><title>Node2</title>
<g id="a_node2"><a xlink:href="classMWWorld_1_1ConstPtr.html#ae3aece4775b5f86d04af63ce0de36cbd" target="_top" xlink:title="MWWorld::ConstPtr::get">
<polygon fill="white" stroke="black" points="645,-1053.5 645,-1072.5 773,-1072.5 773,-1053.5 645,-1053.5"/>
<text text-anchor="middle" x="709" y="-1060.5" font-family="FreeSans" font-size="10.00">MWWorld::ConstPtr::get</text>
</a>
</g>
</g>
<!-- Node1&#45;&gt;Node2 -->
<g id="edge1" class="edge"><title>Node1&#45;&gt;Node2</title>
<path fill="none" stroke="midnightblue" d="M84.2688,-587.678C86.0694,-634.824 99.7436,-843.067 202,-964 319.313,-1102.74 414.491,-1081.09 596,-1073 608.542,-1072.44 621.85,-1071.53 634.748,-1070.48"/>
<polygon fill="midnightblue" stroke="midnightblue" points="635.313,-1073.95 644.982,-1069.62 634.723,-1066.97 635.313,-1073.95"/>
</g>
<!-- Node4 -->
<g id="node4" class="node"><title>Node4</title>
<g id="a_node4"><a xlink:href="classMWGui_1_1ToolTips.html#a194fa80660d696e3017a0df1b80f7b7e" target="_top" xlink:title="MWGui::ToolTips::getCount\lString">
<polygon fill="white" stroke="black" points="222,-213 222,-243 364,-243 364,-213 222,-213"/>
<text text-anchor="start" x="230" y="-231" font-family="FreeSans" font-size="10.00">MWGui::ToolTips::getCount</text>
<text text-anchor="middle" x="293" y="-220" font-family="FreeSans" font-size="10.00">String</text>
</a>
</g>
</g>
<!-- Node1&#45;&gt;Node4 -->
<g id="edge3" class="edge"><title>Node1&#45;&gt;Node4</title>
<path fill="none" stroke="midnightblue" d="M84.4119,-568.263C86.8115,-524.373 102.621,-343.117 202,-252 205.218,-249.049 208.759,-246.454 212.518,-244.172"/>
<polygon fill="midnightblue" stroke="midnightblue" points="214.402,-247.136 221.637,-239.396 211.154,-240.935 214.402,-247.136"/>
</g>
<!-- Node7 -->
<g id="node7" class="node"><title>Node7</title>
<g id="a_node7"><a xlink:href="classMWClass_1_1Armor.html#a04e6e4685da5c2a9d13fbd30c16a5e6f" target="_top" xlink:title="MWClass::Armor::getEquipment\lSkill">
<polygon fill="white" stroke="black" points="424,-1004 424,-1034 592,-1034 592,-1004 424,-1004"/>
<text text-anchor="start" x="432" y="-1022" font-family="FreeSans" font-size="10.00">MWClass::Armor::getEquipment</text>
<text text-anchor="middle" x="508" y="-1011" font-family="FreeSans" font-size="10.00">Skill</text>
</a>
</g>
</g>
<!-- Node1&#45;&gt;Node7 -->
<g id="edge6" class="edge"><title>Node1&#45;&gt;Node7</title>
<path fill="none" stroke="midnightblue" d="M84.726,-587.728C88.4465,-630.838 109.003,-806.795 202,-904 257.909,-962.438 346.448,-991.469 413.761,-1005.71"/>
<polygon fill="midnightblue" stroke="midnightblue" points="413.455,-1009.22 423.953,-1007.79 414.854,-1002.36 413.455,-1009.22"/>
</g>
<!-- Node8 -->
<g id="node8" class="node"><title>Node8</title>
<g id="a_node8"><a xlink:href="classMWBase_1_1Environment.html#a73f12633762b049c03c80fe215873faa" target="_top" xlink:title="Return instance of this class. ">
<polygon fill="white" stroke="black" points="636,-699.5 636,-718.5 782,-718.5 782,-699.5 636,-699.5"/>
<text text-anchor="middle" x="709" y="-706.5" font-family="FreeSans" font-size="10.00">MWBase::Environment::get</text>
</a>
</g>
</g>
<!-- Node1&#45;&gt;Node8 -->
<g id="edge35" class="edge"><title>Node1&#45;&gt;Node8</title>
<path fill="none" stroke="midnightblue" d="M106.677,-587.63C130.155,-597.274 168.083,-611.948 202,-621 282.467,-642.477 514.931,-679.468 634.719,-697.895"/>
<polygon fill="midnightblue" stroke="midnightblue" points="634.483,-701.4 644.899,-699.458 635.546,-694.481 634.483,-701.4"/>
</g>
<!-- Node14 -->
<g id="node14" class="node"><title>Node14</title>
<g id="a_node14"><a xlink:href="classMWGui_1_1ToolTips.html#a8d60c8c7be3bbc5952d9e2b81e5350da" target="_top" xlink:title="MWGui::ToolTips::toString">
<polygon fill="white" stroke="black" points="641,-439.5 641,-458.5 777,-458.5 777,-439.5 641,-439.5"/>
<text text-anchor="middle" x="709" y="-446.5" font-family="FreeSans" font-size="10.00">MWGui::ToolTips::toString</text>
</a>
</g>
</g>
<!-- Node1&#45;&gt;Node14 -->
<g id="edge14" class="edge"><title>Node1&#45;&gt;Node14</title>
<path fill="none" stroke="midnightblue" d="M135.375,-568.468C227.777,-551.168 428.037,-512.961 596,-476 617.139,-471.348 640.42,-465.805 660.255,-460.954"/>
<polygon fill="midnightblue" stroke="midnightblue" points="661.11,-464.348 669.986,-458.563 659.439,-457.551 661.11,-464.348"/>
</g>
<!-- Node15 -->
<g id="node15" class="node"><title>Node15</title>
<g id="a_node15"><a xlink:href="classMWClass_1_1Armor.html#a9b2937ade28b7653897de5d8167a81fc" target="_top" xlink:title="Get the effective armor rating, factoring in the actor&#39;s skills, for the given armor. ">
<polygon fill="white" stroke="black" points="214.5,-865 214.5,-895 371.5,-895 371.5,-865 214.5,-865"/>
<text text-anchor="start" x="222.5" y="-883" font-family="FreeSans" font-size="10.00">MWClass::Armor::getEffective</text>
<text text-anchor="middle" x="293" y="-872" font-family="FreeSans" font-size="10.00">ArmorRating</text>
</a>
</g>
</g>
<!-- Node1&#45;&gt;Node15 -->
<g id="edge15" class="edge"><title>Node1&#45;&gt;Node15</title>
<path fill="none" stroke="midnightblue" d="M90.685,-587.706C119.449,-629.469 233.141,-794.541 275.755,-856.414"/>
<polygon fill="midnightblue" stroke="midnightblue" points="272.953,-858.516 281.508,-864.766 278.718,-854.546 272.953,-858.516"/>
</g>
<!-- Node19 -->
<g id="node19" class="node"><title>Node19</title>
<g id="a_node19"><a xlink:href="namespaceMWMechanics.html#a90645fe67f9b8b658452cd004d2cbb65" target="_top" xlink:title="MWMechanics::getPlayer">
<polygon fill="white" stroke="black" points="441,-737.5 441,-756.5 575,-756.5 575,-737.5 441,-737.5"/>
<text text-anchor="middle" x="508" y="-744.5" font-family="FreeSans" font-size="10.00">MWMechanics::getPlayer</text>
</a>
</g>
</g>
<!-- Node1&#45;&gt;Node19 -->
<g id="edge25" class="edge"><title>Node1&#45;&gt;Node19</title>
<path fill="none" stroke="midnightblue" d="M91.385,-587.535C108.389,-608.765 152.652,-660.023 202,-685 274.419,-721.654 366.864,-736.64 430.898,-742.766"/>
<polygon fill="midnightblue" stroke="midnightblue" points="430.649,-746.257 440.924,-743.675 431.281,-739.286 430.649,-746.257"/>
</g>
<!-- Node21 -->
<g id="node21" class="node"><title>Node21</title>
<g id="a_node21"><a xlink:href="classMWWorld_1_1Class.html#a5537c9812ceb8e5a8100652eac05ec63" target="_top" xlink:title="Return current item health or throw an exception if class does not have item health. ">
<polygon fill="white" stroke="black" points="210.5,-568.5 210.5,-587.5 375.5,-587.5 375.5,-568.5 210.5,-568.5"/>
<text text-anchor="middle" x="293" y="-575.5" font-family="FreeSans" font-size="10.00">MWWorld::Class::getItemHealth</text>
</a>
</g>
</g>
<!-- Node1&#45;&gt;Node21 -->
<g id="edge29" class="edge"><title>Node1&#45;&gt;Node21</title>
<path fill="none" stroke="midnightblue" d="M165.61,-578C176.966,-578 188.695,-578 200.221,-578"/>
<polygon fill="midnightblue" stroke="midnightblue" points="200.284,-581.5 210.284,-578 200.284,-574.5 200.284,-581.5"/>
</g>
<!-- Node22 -->
<g id="node22" class="node"><title>Node22</title>
<g id="a_node22"><a xlink:href="classMWWorld_1_1ConstPtr.html#afa407c744b51f45e0b8e3eec160cb7a2" target="_top" xlink:title="MWWorld::ConstPtr::\lgetCellRef">
<polygon fill="white" stroke="black" points="452,-612 452,-642 564,-642 564,-612 452,-612"/>
<text text-anchor="start" x="460" y="-630" font-family="FreeSans" font-size="10.00">MWWorld::ConstPtr::</text>
<text text-anchor="middle" x="508" y="-619" font-family="FreeSans" font-size="10.00">getCellRef</text>
</a>
</g>
</g>
<!-- Node1&#45;&gt;Node22 -->
<g id="edge48" class="edge"><title>Node1&#45;&gt;Node22</title>
<path fill="none" stroke="midnightblue" d="M138.83,-587.549C158.69,-590.817 181.319,-594.321 202,-597 284.472,-607.685 379.931,-616.506 441.777,-621.756"/>
<polygon fill="midnightblue" stroke="midnightblue" points="441.526,-625.247 451.785,-622.599 442.114,-618.272 441.526,-625.247"/>
</g>
<!-- Node25 -->
<g id="node25" class="node"><title>Node25</title>
<g id="a_node25"><a xlink:href="classMWGui_1_1ToolTips.html#a6d7220273b7167fbf57ba43f05795ad5" target="_top" xlink:title="MWGui::ToolTips::getValue\lString">
<polygon fill="white" stroke="black" points="438,-388 438,-418 578,-418 578,-388 438,-388"/>
<text text-anchor="start" x="446" y="-406" font-family="FreeSans" font-size="10.00">MWGui::ToolTips::getValue</text>
<text text-anchor="middle" x="508" y="-395" font-family="FreeSans" font-size="10.00">String</text>
</a>
</g>
</g>
<!-- Node1&#45;&gt;Node25 -->
<g id="edge33" class="edge"><title>Node1&#45;&gt;Node25</title>
<path fill="none" stroke="midnightblue" d="M89.3282,-568.192C103.687,-542.832 145.923,-474.981 202,-445 271.912,-407.623 363.191,-399.458 427.612,-399.202"/>
<polygon fill="midnightblue" stroke="midnightblue" points="427.705,-402.702 437.713,-399.226 427.721,-395.702 427.705,-402.702"/>
</g>
<!-- Node26 -->
<g id="node26" class="node"><title>Node26</title>
<g id="a_node26"><a xlink:href="classMWGui_1_1ToolTips.html#adbd9bf389b70158082d567566a1c9c1c" target="_top" xlink:title="Returns a string containing debug tooltip information about the given cellref. ">
<polygon fill="white" stroke="black" points="227.5,-262 227.5,-292 358.5,-292 358.5,-262 227.5,-262"/>
<text text-anchor="start" x="235.5" y="-280" font-family="FreeSans" font-size="10.00">MWGui::ToolTips::getCell</text>
<text text-anchor="middle" x="293" y="-269" font-family="FreeSans" font-size="10.00">RefString</text>
</a>
</g>
</g>
<!-- Node1&#45;&gt;Node26 -->
<g id="edge36" class="edge"><title>Node1&#45;&gt;Node26</title>
<path fill="none" stroke="midnightblue" d="M89.9036,-568.366C106.763,-540.971 156.825,-460.447 202,-396 225.835,-361.996 255.112,-323.914 273.668,-300.196"/>
<polygon fill="midnightblue" stroke="midnightblue" points="276.569,-302.169 279.989,-292.142 271.062,-297.847 276.569,-302.169"/>
</g>
<!-- Node27 -->
<g id="node27" class="node"><title>Node27</title>
<g id="a_node27"><a xlink:href="classMWGui_1_1ToolTips.html#a5b864793b73bc68d765745c771561e45" target="_top" xlink:title="MWGui::ToolTips::getMisc\lString">
<polygon fill="white" stroke="black" points="441,-437 441,-467 575,-467 575,-437 441,-437"/>
<text text-anchor="start" x="449" y="-455" font-family="FreeSans" font-size="10.00">MWGui::ToolTips::getMisc</text>
<text text-anchor="middle" x="508" y="-444" font-family="FreeSans" font-size="10.00">String</text>
</a>
</g>
</g>
<!-- Node1&#45;&gt;Node27 -->
<g id="edge49" class="edge"><title>Node1&#45;&gt;Node27</title>
<path fill="none" stroke="midnightblue" d="M92.2478,-568.209C109.947,-547.978 153.89,-501.804 202,-482 275.406,-451.783 366.843,-446.597 430.362,-447.53"/>
<polygon fill="midnightblue" stroke="midnightblue" points="430.634,-451.036 440.703,-447.739 430.776,-444.037 430.634,-451.036"/>
</g>
<!-- Node35 -->
<g id="node35" class="node"><title>Node35</title>
<g id="a_node35"><a xlink:href="classMWWorld_1_1CellRef.html#adfbe4ecec0fae39aef9dc599a2257248" target="_top" xlink:title="MWWorld::CellRef::getEnchantment\lCharge">
<polygon fill="white" stroke="black" points="202,-164 202,-194 384,-194 384,-164 202,-164"/>
<text text-anchor="start" x="210" y="-182" font-family="FreeSans" font-size="10.00">MWWorld::CellRef::getEnchantment</text>
<text text-anchor="middle" x="293" y="-171" font-family="FreeSans" font-size="10.00">Charge</text>
</a>
</g>
</g>
<!-- Node1&#45;&gt;Node35 -->
<g id="edge50" class="edge"><title>Node1&#45;&gt;Node35</title>
<path fill="none" stroke="midnightblue" d="M83.8897,-568.466C83.8844,-521.183 90.2972,-309.866 202,-203 203.095,-201.952 204.231,-200.949 205.403,-199.988"/>
<polygon fill="midnightblue" stroke="midnightblue" points="207.424,-202.846 213.614,-194.247 203.413,-197.109 207.424,-202.846"/>
</g>
<!-- Node3 -->
<g id="node3" class="node"><title>Node3</title>
<g id="a_node3"><a xlink:href="classMWWorld_1_1ConstPtr.html#ace447c99102c91a088f5e51c9664f950" target="_top" xlink:title="MWWorld::ConstPtr::\lgetTypeName">
<polygon fill="white" stroke="black" points="822,-1048 822,-1078 934,-1078 934,-1048 822,-1048"/>
<text text-anchor="start" x="830" y="-1066" font-family="FreeSans" font-size="10.00">MWWorld::ConstPtr::</text>
<text text-anchor="middle" x="878" y="-1055" font-family="FreeSans" font-size="10.00">getTypeName</text>
</a>
</g>
</g>
<!-- Node2&#45;&gt;Node3 -->
<g id="edge2" class="edge"><title>Node2&#45;&gt;Node3</title>
<path fill="none" stroke="midnightblue" d="M773.136,-1063C785.817,-1063 799.166,-1063 811.913,-1063"/>
<polygon fill="midnightblue" stroke="midnightblue" points="811.982,-1066.5 821.982,-1063 811.982,-1059.5 811.982,-1066.5"/>
</g>
<!-- Node5 -->
<g id="node5" class="node"><title>Node5</title>
<g id="a_node5"><a xlink:href="namespaceanonymous__namespace_02character_8cpp_03.html#a551df780ef62c57fe81b128fa596488c" target="_top" xlink:title="anonymous_namespace\l\{character::cpp\}::toString">
<polygon fill="white" stroke="black" points="437,-0 437,-30 579,-30 579,-0 437,-0"/>
<text text-anchor="start" x="445" y="-18" font-family="FreeSans" font-size="10.00">anonymous_namespace</text>
<text text-anchor="middle" x="508" y="-7" font-family="FreeSans" font-size="10.00">{character::cpp}::toString</text>
</a>
</g>
</g>
<!-- Node4&#45;&gt;Node5 -->
<g id="edge4" class="edge"><title>Node4&#45;&gt;Node5</title>
<path fill="none" stroke="midnightblue" d="M364.214,-216.927C371.596,-213.431 378.426,-208.889 384,-203 435.3,-148.805 368.652,-93.1491 420,-39 422.446,-36.4206 425.142,-34.1099 428.024,-32.0405"/>
<polygon fill="midnightblue" stroke="midnightblue" points="429.867,-35.0161 436.586,-26.8248 426.225,-29.0378 429.867,-35.0161"/>
</g>
<!-- Node6 -->
<g id="node6" class="node"><title>Node6</title>
<g id="a_node6"><a xlink:href="gen__iconv_8cpp.html#a47a14d9c2f599fa2591017202978774d" target="_top" xlink:title="num">
<polygon fill="white" stroke="black" points="690,-5.5 690,-24.5 728,-24.5 728,-5.5 690,-5.5"/>
<text text-anchor="middle" x="709" y="-12.5" font-family="FreeSans" font-size="10.00">num</text>
</a>
</g>
</g>
<!-- Node5&#45;&gt;Node6 -->
<g id="edge5" class="edge"><title>Node5&#45;&gt;Node6</title>
<path fill="none" stroke="midnightblue" d="M579.16,-15C613.625,-15 653.249,-15 679.352,-15"/>
<polygon fill="midnightblue" stroke="midnightblue" points="679.657,-18.5001 689.657,-15 679.657,-11.5001 679.657,-18.5001"/>
</g>
<!-- Node7&#45;&gt;Node2 -->
<g id="edge7" class="edge"><title>Node7&#45;&gt;Node2</title>
<path fill="none" stroke="midnightblue" d="M576.928,-1034.02C602.445,-1039.66 631.052,-1045.99 655.015,-1051.28"/>
<polygon fill="midnightblue" stroke="midnightblue" points="654.458,-1054.75 664.978,-1053.49 655.969,-1047.91 654.458,-1054.75"/>
</g>
<!-- Node7&#45;&gt;Node8 -->
<g id="edge8" class="edge"><title>Node7&#45;&gt;Node8</title>
<path fill="none" stroke="midnightblue" d="M584.708,-1003.81C588.886,-1001.05 592.711,-997.805 596,-994 674.012,-903.742 552.427,-816.886 632,-728 633.049,-726.828 634.158,-725.724 635.32,-724.683"/>
<polygon fill="midnightblue" stroke="midnightblue" points="637.586,-727.364 643.673,-718.693 633.507,-721.676 637.586,-727.364"/>
</g>
<!-- Node9 -->
<g id="node9" class="node"><title>Node9</title>
<g id="a_node9"><a xlink:href="classMWBase_1_1Environment.html#ae14e166d8f5ff8629be119333d502660" target="_top" xlink:title="MWBase::Environment\l::getWorld">
<polygon fill="white" stroke="black" points="647,-808 647,-838 771,-838 771,-808 647,-808"/>
<text text-anchor="start" x="655" y="-826" font-family="FreeSans" font-size="10.00">MWBase::Environment</text>
<text text-anchor="middle" x="709" y="-815" font-family="FreeSans" font-size="10.00">::getWorld</text>
</a>
</g>
</g>
<!-- Node7&#45;&gt;Node9 -->
<g id="edge9" class="edge"><title>Node7&#45;&gt;Node9</title>
<path fill="none" stroke="midnightblue" d="M583.346,-1003.8C587.963,-1001.04 592.251,-997.807 596,-994 638.966,-950.364 593.221,-908.395 632,-861 637.9,-853.789 645.514,-847.824 653.638,-842.928"/>
<polygon fill="midnightblue" stroke="midnightblue" points="655.503,-845.897 662.596,-838.026 652.144,-839.756 655.503,-845.897"/>
</g>
<!-- Node10 -->
<g id="node10" class="node"><title>Node10</title>
<g id="a_node10"><a xlink:href="classMWBase_1_1World.html#a2ba0910cb944786065e37dc5f3fcda35" target="_top" xlink:title="MWBase::World::getStore">
<polygon fill="white" stroke="black" points="640.5,-870.5 640.5,-889.5 777.5,-889.5 777.5,-870.5 640.5,-870.5"/>
<text text-anchor="middle" x="709" y="-877.5" font-family="FreeSans" font-size="10.00">MWBase::World::getStore</text>
</a>
</g>
</g>
<!-- Node7&#45;&gt;Node10 -->
<g id="edge10" class="edge"><title>Node7&#45;&gt;Node10</title>
<path fill="none" stroke="midnightblue" d="M580.916,-1003.9C586.331,-1001.14 591.448,-997.866 596,-994 624.487,-969.804 605.854,-944.708 632,-918 642.214,-907.566 655.89,-899.52 668.825,-893.575"/>
<polygon fill="midnightblue" stroke="midnightblue" points="670.245,-896.775 678.053,-889.614 667.483,-890.343 670.245,-896.775"/>
</g>
<!-- Node11 -->
<g id="node11" class="node"><title>Node11</title>
<g id="a_node11"><a xlink:href="classMWWorld_1_1ESMStore.html#a94ffe201bd012dd41fcdabfb35c69e24" target="_top" xlink:title="MWWorld::ESMStore::get">
<polygon fill="white" stroke="black" points="642,-927.5 642,-946.5 776,-946.5 776,-927.5 642,-927.5"/>
<text text-anchor="middle" x="709" y="-934.5" font-family="FreeSans" font-size="10.00">MWWorld::ESMStore::get</text>
</a>
</g>
</g>
<!-- Node7&#45;&gt;Node11 -->
<g id="edge11" class="edge"><title>Node7&#45;&gt;Node11</title>
<path fill="none" stroke="midnightblue" d="M572.873,-1003.85C580.852,-1001.03 588.748,-997.766 596,-994 614.234,-984.531 614.125,-975.129 632,-965 642.314,-959.156 654.076,-954.124 665.215,-950.003"/>
<polygon fill="midnightblue" stroke="midnightblue" points="666.529,-953.251 674.792,-946.62 664.197,-946.651 666.529,-953.251"/>
</g>
<!-- Node12 -->
<g id="node12" class="node"><title>Node12</title>
<g id="a_node12"><a xlink:href="classMWWorld_1_1Store.html#a3ca0f52b3814776b34ecfea3a44ea5ab" target="_top" xlink:title="MWWorld::Store::find">
<polygon fill="white" stroke="black" points="652,-974.5 652,-993.5 766,-993.5 766,-974.5 652,-974.5"/>
<text text-anchor="middle" x="709" y="-981.5" font-family="FreeSans" font-size="10.00">MWWorld::Store::find</text>
</a>
</g>
</g>
<!-- Node7&#45;&gt;Node12 -->
<g id="edge12" class="edge"><title>Node7&#45;&gt;Node12</title>
<path fill="none" stroke="midnightblue" d="M592.241,-1004.36C609.44,-1001.33 627.305,-998.193 643.706,-995.308"/>
<polygon fill="midnightblue" stroke="midnightblue" points="644.466,-998.728 653.709,-993.549 643.254,-991.834 644.466,-998.728"/>
</g>
<!-- Node13 -->
<g id="node13" class="node"><title>Node13</title>
<g id="a_node13"><a xlink:href="classESM_1_1Variant.html#aea165a94a08dac002c27cdf5784fabc7" target="_top" xlink:title="Will throw an exception, if value can not be represented as a float value. ">
<polygon fill="white" stroke="black" points="648,-1012.5 648,-1031.5 770,-1031.5 770,-1012.5 648,-1012.5"/>
<text text-anchor="middle" x="709" y="-1019.5" font-family="FreeSans" font-size="10.00">ESM::Variant::getFloat</text>
</a>
</g>
</g>
<!-- Node7&#45;&gt;Node13 -->
<g id="edge13" class="edge"><title>Node7&#45;&gt;Node13</title>
<path fill="none" stroke="midnightblue" d="M592.241,-1020.25C607.385,-1020.48 623.045,-1020.72 637.767,-1020.94"/>
<polygon fill="midnightblue" stroke="midnightblue" points="637.74,-1024.44 647.791,-1021.09 637.845,-1017.44 637.74,-1024.44"/>
</g>
<!-- Node15&#45;&gt;Node2 -->
<g id="edge16" class="edge"><title>Node15&#45;&gt;Node2</title>
<path fill="none" stroke="midnightblue" d="M300.394,-895.145C315.497,-928.755 356.917,-1009.27 420,-1043 487.407,-1079.04 576.713,-1079.24 637.903,-1073.51"/>
<polygon fill="midnightblue" stroke="midnightblue" points="638.255,-1076.99 647.852,-1072.5 637.55,-1070.03 638.255,-1076.99"/>
</g>
<!-- Node15&#45;&gt;Node7 -->
<g id="edge17" class="edge"><title>Node15&#45;&gt;Node7</title>
<path fill="none" stroke="midnightblue" d="M309.047,-895.231C336.751,-922.992 395.252,-980.234 420,-994 423.97,-996.208 428.152,-998.237 432.449,-1000.1"/>
<polygon fill="midnightblue" stroke="midnightblue" points="431.414,-1003.45 441.999,-1003.91 434.009,-996.951 431.414,-1003.45"/>
</g>
<!-- Node15&#45;&gt;Node8 -->
<g id="edge20" class="edge"><title>Node15&#45;&gt;Node8</title>
<path fill="none" stroke="midnightblue" d="M301.165,-864.883C317.24,-832.917 359.561,-758.873 420,-728 486.966,-693.792 574.388,-693.161 635.271,-698.496"/>
<polygon fill="midnightblue" stroke="midnightblue" points="635.275,-702.012 645.561,-699.476 635.939,-695.043 635.275,-702.012"/>
</g>
<!-- Node15&#45;&gt;Node9 -->
<g id="edge21" class="edge"><title>Node15&#45;&gt;Node9</title>
<path fill="none" stroke="midnightblue" d="M371.87,-869.279C448.043,-858.791 563.057,-842.956 636.841,-832.797"/>
<polygon fill="midnightblue" stroke="midnightblue" points="637.541,-836.234 646.97,-831.403 636.586,-829.299 637.541,-836.234"/>
</g>
<!-- Node15&#45;&gt;Node10 -->
<g id="edge22" class="edge"><title>Node15&#45;&gt;Node10</title>
<path fill="none" stroke="midnightblue" d="M371.87,-880C445.806,-880 556.335,-880 630.236,-880"/>
<polygon fill="midnightblue" stroke="midnightblue" points="630.413,-883.5 640.413,-880 630.413,-876.5 630.413,-883.5"/>
</g>
<!-- Node15&#45;&gt;Node11 -->
<g id="edge23" class="edge"><title>Node15&#45;&gt;Node11</title>
<path fill="none" stroke="midnightblue" d="M371.711,-888.85C432.78,-896.028 519.937,-906.768 596,-918 611.765,-920.328 628.736,-923.079 644.58,-925.755"/>
<polygon fill="midnightblue" stroke="midnightblue" points="644.36,-929.267 654.806,-927.496 645.536,-922.367 644.36,-929.267"/>
</g>
<!-- Node16 -->
<g id="node16" class="node"><title>Node16</title>
<g id="a_node16"><a xlink:href="classMWWorld_1_1Ptr.html#aa2ac4a5579cd19eaa780596f4543ea46" target="_top" xlink:title="MWWorld::Ptr::getClass">
<polygon fill="white" stroke="black" points="445.5,-775.5 445.5,-794.5 570.5,-794.5 570.5,-775.5 445.5,-775.5"/>
<text text-anchor="middle" x="508" y="-782.5" font-family="FreeSans" font-size="10.00">MWWorld::Ptr::getClass</text>
</a>
</g>
</g>
<!-- Node15&#45;&gt;Node16 -->
<g id="edge18" class="edge"><title>Node15&#45;&gt;Node16</title>
<path fill="none" stroke="midnightblue" d="M316.824,-864.876C341.428,-849.121 382.164,-824.604 420,-809 430.867,-804.518 442.837,-800.602 454.329,-797.305"/>
<polygon fill="midnightblue" stroke="midnightblue" points="455.555,-800.598 464.266,-794.568 453.696,-793.849 455.555,-800.598"/>
</g>
<!-- Node17 -->
<g id="node17" class="node"><title>Node17</title>
<g id="a_node17"><a xlink:href="classMWWorld_1_1Class.html#a34eba4af23abc1b06b41fc93bf816b5c" target="_top" xlink:title="MWWorld::Class::getSkill">
<polygon fill="white" stroke="black" points="442.5,-965.5 442.5,-984.5 573.5,-984.5 573.5,-965.5 442.5,-965.5"/>
<text text-anchor="middle" x="508" y="-972.5" font-family="FreeSans" font-size="10.00">MWWorld::Class::getSkill</text>
</a>
</g>
</g>
<!-- Node15&#45;&gt;Node17 -->
<g id="edge19" class="edge"><title>Node15&#45;&gt;Node17</title>
<path fill="none" stroke="midnightblue" d="M314.295,-895.14C338.323,-912.356 380.126,-940.126 420,-956 426.616,-958.634 433.668,-960.935 440.785,-962.938"/>
<polygon fill="midnightblue" stroke="midnightblue" points="439.934,-966.333 450.495,-965.488 441.712,-959.563 439.934,-966.333"/>
</g>
<!-- Node18 -->
<g id="node18" class="node"><title>Node18</title>
<g id="a_node18"><a xlink:href="classESM_1_1Variant.html#aad77cad9a160b176ea71e09ecf2c55a5" target="_top" xlink:title="ESM::Variant::getInteger">
<polygon fill="white" stroke="black" points="441.5,-927.5 441.5,-946.5 574.5,-946.5 574.5,-927.5 441.5,-927.5"/>
<text text-anchor="middle" x="508" y="-934.5" font-family="FreeSans" font-size="10.00">ESM::Variant::getInteger</text>
</a>
</g>
</g>
<!-- Node15&#45;&gt;Node18 -->
<g id="edge24" class="edge"><title>Node15&#45;&gt;Node18</title>
<path fill="none" stroke="midnightblue" d="M350.242,-895.051C384.98,-904.347 428.975,-916.12 461.508,-924.826"/>
<polygon fill="midnightblue" stroke="midnightblue" points="460.649,-928.219 471.214,-927.423 462.459,-921.457 460.649,-928.219"/>
</g>
<!-- Node19&#45;&gt;Node8 -->
<g id="edge26" class="edge"><title>Node19&#45;&gt;Node8</title>
<path fill="none" stroke="midnightblue" d="M558.959,-737.46C586.045,-732.288 619.708,-725.86 648.183,-720.422"/>
<polygon fill="midnightblue" stroke="midnightblue" points="648.854,-723.858 658.02,-718.544 647.541,-716.982 648.854,-723.858"/>
</g>
<!-- Node19&#45;&gt;Node9 -->
<g id="edge27" class="edge"><title>Node19&#45;&gt;Node9</title>
<path fill="none" stroke="midnightblue" d="M562.978,-756.537C574.048,-759.117 585.517,-762.258 596,-766 623.328,-775.756 652.491,-790.76 674.206,-802.926"/>
<polygon fill="midnightblue" stroke="midnightblue" points="672.606,-806.042 683.029,-807.942 676.066,-799.957 672.606,-806.042"/>
</g>
<!-- Node20 -->
<g id="node20" class="node"><title>Node20</title>
<g id="a_node20"><a xlink:href="classMWBase_1_1World.html#a95005e26dcb7b1f6dc906eb518b95762" target="_top" xlink:title="MWBase::World::getPlayerPtr">
<polygon fill="white" stroke="black" points="632.5,-737.5 632.5,-756.5 785.5,-756.5 785.5,-737.5 632.5,-737.5"/>
<text text-anchor="middle" x="709" y="-744.5" font-family="FreeSans" font-size="10.00">MWBase::World::getPlayerPtr</text>
</a>
</g>
</g>
<!-- Node19&#45;&gt;Node20 -->
<g id="edge28" class="edge"><title>Node19&#45;&gt;Node20</title>
<path fill="none" stroke="midnightblue" d="M575.264,-747C590.289,-747 606.457,-747 622.162,-747"/>
<polygon fill="midnightblue" stroke="midnightblue" points="622.399,-750.5 632.399,-747 622.399,-743.5 622.399,-750.5"/>
</g>
<!-- Node21&#45;&gt;Node22 -->
<g id="edge30" class="edge"><title>Node21&#45;&gt;Node22</title>
<path fill="none" stroke="midnightblue" d="M335.321,-587.506C365.491,-594.446 407.001,-603.995 441.646,-611.965"/>
<polygon fill="midnightblue" stroke="midnightblue" points="441.157,-615.444 451.687,-614.275 442.726,-608.623 441.157,-615.444"/>
</g>
<!-- Node23 -->
<g id="node23" class="node"><title>Node23</title>
<g id="a_node23"><a xlink:href="classMWWorld_1_1CellRef.html#a4b3b28f98b80448c7b7d5c3b364976b7" target="_top" xlink:title="MWWorld::CellRef::getCharge">
<polygon fill="white" stroke="black" points="432,-524.5 432,-543.5 584,-543.5 584,-524.5 432,-524.5"/>
<text text-anchor="middle" x="508" y="-531.5" font-family="FreeSans" font-size="10.00">MWWorld::CellRef::getCharge</text>
</a>
</g>
</g>
<!-- Node21&#45;&gt;Node23 -->
<g id="edge31" class="edge"><title>Node21&#45;&gt;Node23</title>
<path fill="none" stroke="midnightblue" d="M340.218,-568.453C372.735,-561.735 416.432,-552.709 450.941,-545.58"/>
<polygon fill="midnightblue" stroke="midnightblue" points="451.787,-548.979 460.872,-543.529 450.371,-542.124 451.787,-548.979"/>
</g>
<!-- Node24 -->
<g id="node24" class="node"><title>Node24</title>
<g id="a_node24"><a xlink:href="classMWWorld_1_1Class.html#a57ed3b8775968f13bb4460b3833a9021" target="_top" xlink:title="MWWorld::Class::getItemMax\lHealth">
<polygon fill="white" stroke="black" points="431.5,-563 431.5,-593 584.5,-593 584.5,-563 431.5,-563"/>
<text text-anchor="start" x="439.5" y="-581" font-family="FreeSans" font-size="10.00">MWWorld::Class::getItemMax</text>
<text text-anchor="middle" x="508" y="-570" font-family="FreeSans" font-size="10.00">Health</text>
</a>
</g>
</g>
<!-- Node21&#45;&gt;Node24 -->
<g id="edge32" class="edge"><title>Node21&#45;&gt;Node24</title>
<path fill="none" stroke="midnightblue" d="M375.742,-578C390.612,-578 406.164,-578 421.149,-578"/>
<polygon fill="midnightblue" stroke="midnightblue" points="421.417,-581.5 431.417,-578 421.417,-574.5 421.417,-581.5"/>
</g>
<!-- Node25&#45;&gt;Node14 -->
<g id="edge34" class="edge"><title>Node25&#45;&gt;Node14</title>
<path fill="none" stroke="midnightblue" d="M574.16,-418.062C600.96,-424.257 631.548,-431.328 656.711,-437.144"/>
<polygon fill="midnightblue" stroke="midnightblue" points="656.247,-440.629 666.778,-439.471 657.824,-433.809 656.247,-440.629"/>
</g>
<!-- Node26&#45;&gt;Node5 -->
<g id="edge46" class="edge"><title>Node26&#45;&gt;Node5</title>
<path fill="none" stroke="midnightblue" d="M358.667,-268.736C368.235,-264.956 377.159,-259.588 384,-252 448.286,-180.69 355.651,-110.253 420,-39 422.437,-36.3019 425.146,-33.8957 428.06,-31.7507"/>
<polygon fill="midnightblue" stroke="midnightblue" points="430.089,-34.6106 436.751,-26.3717 426.405,-28.6584 430.089,-34.6106"/>
</g>
<!-- Node26&#45;&gt;Node8 -->
<g id="edge42" class="edge"><title>Node26&#45;&gt;Node8</title>
<path fill="none" stroke="midnightblue" d="M319.705,-292.263C344.593,-306.453 383.777,-327.262 420,-340 495.493,-366.547 536.292,-324.719 596,-378 608.326,-388.999 680.777,-620.966 702.099,-689.867"/>
<polygon fill="midnightblue" stroke="midnightblue" points="698.769,-690.945 705.065,-699.466 705.457,-688.879 698.769,-690.945"/>
</g>
<!-- Node26&#45;&gt;Node25 -->
<g id="edge41" class="edge"><title>Node26&#45;&gt;Node25</title>
<path fill="none" stroke="midnightblue" d="M310.332,-292.22C333.281,-312.928 377.087,-350.024 420,-373 427.778,-377.164 436.248,-380.928 444.75,-384.27"/>
<polygon fill="midnightblue" stroke="midnightblue" points="443.735,-387.627 454.327,-387.863 446.194,-381.073 443.735,-387.627"/>
</g>
<!-- Node26&#45;&gt;Node27 -->
<g id="edge37" class="edge"><title>Node26&#45;&gt;Node27</title>
<path fill="none" stroke="midnightblue" d="M302.579,-292.339C320.387,-322.754 364.38,-390.879 420,-427 423.559,-429.311 427.334,-431.413 431.242,-433.323"/>
<polygon fill="midnightblue" stroke="midnightblue" points="429.997,-436.6 440.558,-437.444 432.828,-430.198 429.997,-436.6"/>
</g>
<!-- Node28 -->
<g id="node28" class="node"><title>Node28</title>
<g id="a_node28"><a xlink:href="classMWWorld_1_1CellRef.html#a081ffa75eac6cf345f83b4b22b589267" target="_top" xlink:title="MWWorld::CellRef::getOwner">
<polygon fill="white" stroke="black" points="434,-223.5 434,-242.5 582,-242.5 582,-223.5 434,-223.5"/>
<text text-anchor="middle" x="508" y="-230.5" font-family="FreeSans" font-size="10.00">MWWorld::CellRef::getOwner</text>
</a>
</g>
</g>
<!-- Node26&#45;&gt;Node28 -->
<g id="edge38" class="edge"><title>Node26&#45;&gt;Node28</title>
<path fill="none" stroke="midnightblue" d="M358.775,-263.619C388.098,-257.562 422.433,-250.469 450.67,-244.636"/>
<polygon fill="midnightblue" stroke="midnightblue" points="451.691,-247.999 460.777,-242.549 450.275,-241.144 451.691,-247.999"/>
</g>
<!-- Node29 -->
<g id="node29" class="node"><title>Node29</title>
<g id="a_node29"><a xlink:href="classMWWorld_1_1CellRef.html#a4affaf44d9a6afe1832b71263ed84c78" target="_top" xlink:title="MWWorld::CellRef::getFaction">
<polygon fill="white" stroke="black" points="432,-185.5 432,-204.5 584,-204.5 584,-185.5 432,-185.5"/>
<text text-anchor="middle" x="508" y="-192.5" font-family="FreeSans" font-size="10.00">MWWorld::CellRef::getFaction</text>
</a>
</g>
</g>
<!-- Node26&#45;&gt;Node29 -->
<g id="edge39" class="edge"><title>Node26&#45;&gt;Node29</title>
<path fill="none" stroke="midnightblue" d="M358.716,-263.639C367.535,-260.512 376.219,-256.682 384,-252 403.934,-240.005 399.738,-225.433 420,-214 423.97,-211.76 428.18,-209.784 432.521,-208.041"/>
<polygon fill="midnightblue" stroke="midnightblue" points="433.954,-211.245 442.193,-204.584 431.599,-204.653 433.954,-211.245"/>
</g>
<!-- Node30 -->
<g id="node30" class="node"><title>Node30</title>
<g id="a_node30"><a xlink:href="classMWWorld_1_1CellRef.html#a493f4e36f5fc751f7c507c7f6742de00" target="_top" xlink:title="MWWorld::CellRef::getFactionRank">
<polygon fill="white" stroke="black" points="420.5,-147.5 420.5,-166.5 595.5,-166.5 595.5,-147.5 420.5,-147.5"/>
<text text-anchor="middle" x="508" y="-154.5" font-family="FreeSans" font-size="10.00">MWWorld::CellRef::getFactionRank</text>
</a>
</g>
</g>
<!-- Node26&#45;&gt;Node30 -->
<g id="edge40" class="edge"><title>Node26&#45;&gt;Node30</title>
<path fill="none" stroke="midnightblue" d="M358.858,-266.318C367.954,-262.811 376.68,-258.161 384,-252 412.594,-227.931 390.744,-199.26 420,-176 422.118,-174.316 424.353,-172.774 426.678,-171.362"/>
<polygon fill="midnightblue" stroke="midnightblue" points="428.761,-174.226 436.047,-166.534 425.554,-168.004 428.761,-174.226"/>
</g>
<!-- Node31 -->
<g id="node31" class="node"><title>Node31</title>
<g id="a_node31"><a xlink:href="classMWBase_1_1Environment.html#a571bbf2793948af02f188c25f0a4ba23" target="_top" xlink:title="MWBase::Environment\l::getMechanicsManager">
<polygon fill="white" stroke="black" points="442.5,-98 442.5,-128 573.5,-128 573.5,-98 442.5,-98"/>
<text text-anchor="start" x="450.5" y="-116" font-family="FreeSans" font-size="10.00">MWBase::Environment</text>
<text text-anchor="middle" x="508" y="-105" font-family="FreeSans" font-size="10.00">::getMechanicsManager</text>
</a>
</g>
</g>
<!-- Node26&#45;&gt;Node31 -->
<g id="edge43" class="edge"><title>Node26&#45;&gt;Node31</title>
<path fill="none" stroke="midnightblue" d="M358.719,-267.543C368.049,-263.888 376.884,-258.872 384,-252 422.221,-215.091 381.943,-175.078 420,-138 423.94,-134.162 428.428,-130.906 433.242,-128.144"/>
<polygon fill="midnightblue" stroke="midnightblue" points="434.811,-131.273 442.21,-123.689 431.697,-125.004 434.811,-131.273"/>
</g>
<!-- Node32 -->
<g id="node32" class="node"><title>Node32</title>
<g id="a_node32"><a xlink:href="classMWBase_1_1MechanicsManager.html#adca0673ebad3f7e0f6aab8d86ccce710" target="_top" xlink:title="MWBase::MechanicsManager\l::getStolenItemOwners">
<polygon fill="white" stroke="black" points="430.5,-49 430.5,-79 585.5,-79 585.5,-49 430.5,-49"/>
<text text-anchor="start" x="438.5" y="-67" font-family="FreeSans" font-size="10.00">MWBase::MechanicsManager</text>
<text text-anchor="middle" x="508" y="-56" font-family="FreeSans" font-size="10.00">::getStolenItemOwners</text>
</a>
</g>
</g>
<!-- Node26&#45;&gt;Node32 -->
<g id="edge44" class="edge"><title>Node26&#45;&gt;Node32</title>
<path fill="none" stroke="midnightblue" d="M358.812,-268.269C368.245,-264.533 377.088,-259.302 384,-252 435.3,-197.805 368.652,-142.149 420,-88 420.91,-87.0407 421.854,-86.1186 422.829,-85.2322"/>
<polygon fill="midnightblue" stroke="midnightblue" points="425.03,-87.9559 430.866,-79.1138 420.79,-82.3862 425.03,-87.9559"/>
</g>
<!-- Node33 -->
<g id="node33" class="node"><title>Node33</title>
<g id="a_node33"><a xlink:href="classMWWorld_1_1CellRef.html#a2f70b196b33750c0bbc0a11038d2cf72" target="_top" xlink:title="MWWorld::CellRef::getRefId">
<polygon fill="white" stroke="black" points="438,-311.5 438,-330.5 578,-330.5 578,-311.5 438,-311.5"/>
<text text-anchor="middle" x="508" y="-318.5" font-family="FreeSans" font-size="10.00">MWWorld::CellRef::getRefId</text>
</a>
</g>
</g>
<!-- Node26&#45;&gt;Node33 -->
<g id="edge45" class="edge"><title>Node26&#45;&gt;Node33</title>
<path fill="none" stroke="midnightblue" d="M358.775,-290.381C388.098,-296.438 422.433,-303.531 450.67,-309.364"/>
<polygon fill="midnightblue" stroke="midnightblue" points="450.275,-312.856 460.777,-311.451 451.691,-306.001 450.275,-312.856"/>
</g>
<!-- Node34 -->
<g id="node34" class="node"><title>Node34</title>
<g id="a_node34"><a xlink:href="classMWWorld_1_1CellRef.html#a831fbb88331790878d7b20f0bc5a4f41" target="_top" xlink:title="MWWorld::CellRef::getGlobal\lVariable">
<polygon fill="white" stroke="black" points="434,-262 434,-292 582,-292 582,-262 434,-262"/>
<text text-anchor="start" x="442" y="-280" font-family="FreeSans" font-size="10.00">MWWorld::CellRef::getGlobal</text>
<text text-anchor="middle" x="508" y="-269" font-family="FreeSans" font-size="10.00">Variable</text>
</a>
</g>
</g>
<!-- Node26&#45;&gt;Node34 -->
<g id="edge47" class="edge"><title>Node26&#45;&gt;Node34</title>
<path fill="none" stroke="midnightblue" d="M358.775,-277C379.273,-277 402.22,-277 423.822,-277"/>
<polygon fill="midnightblue" stroke="midnightblue" points="423.969,-280.5 433.969,-277 423.969,-273.5 423.969,-280.5"/>
</g>
</g>
</svg>
