<?xml version="1.0" encoding="UTF-8" standalone="no"?>
<!DOCTYPE svg PUBLIC "-//W3C//DTD SVG 1.1//EN"
 "http://www.w3.org/Graphics/SVG/1.1/DTD/svg11.dtd">
<!-- Generated by graphviz version 2.36.0 (20140111.2315)
 -->
<!-- Title: MWRender::Animation::resetActiveGroups Pages: 1 -->
<svg width="1240pt" height="813pt"
 viewBox="0.00 0.00 1240.00 813.00" xmlns="http://www.w3.org/2000/svg" xmlns:xlink="http://www.w3.org/1999/xlink">
<g id="graph0" class="graph" transform="scale(1 1) rotate(0) translate(4 809)">
<title>MWRender::Animation::resetActiveGroups</title>
<polygon fill="white" stroke="none" points="-4,4 -4,-809 1236,-809 1236,4 -4,4"/>
<!-- Node1 -->
<g id="node1" class="node"><title>Node1</title>
<polygon fill="#bfbfbf" stroke="black" points="0.5,-379 0.5,-409 113.5,-409 113.5,-379 0.5,-379"/>
<text text-anchor="start" x="8.5" y="-397" font-family="FreeSans" font-size="10.00">MWRender::Animation</text>
<text text-anchor="middle" x="57" y="-386" font-family="FreeSans" font-size="10.00">::resetActiveGroups</text>
</g>
<!-- Node2 -->
<g id="node2" class="node"><title>Node2</title>
<g id="a_node2"><a xlink:href="classMWRender_1_1Animation.html#af375135ae7834445da7479dde42b7528" target="_top" xlink:title="MWRender::Animation\l::play">
<polygon fill="white" stroke="black" points="150.5,-526 150.5,-556 263.5,-556 263.5,-526 150.5,-526"/>
<text text-anchor="start" x="158.5" y="-544" font-family="FreeSans" font-size="10.00">MWRender::Animation</text>
<text text-anchor="middle" x="207" y="-533" font-family="FreeSans" font-size="10.00">::play</text>
</a>
</g>
</g>
<!-- Node1&#45;&gt;Node2 -->
<g id="edge1" class="edge"><title>Node1&#45;&gt;Node2</title>
<path fill="none" stroke="midnightblue" d="M80.4856,-416.334C110.895,-446.538 164.339,-499.621 190.58,-525.684"/>
<polygon fill="midnightblue" stroke="midnightblue" points="82.8427,-413.742 73.2812,-409.178 77.9097,-418.708 82.8427,-413.742"/>
</g>
<!-- Node22 -->
<g id="node22" class="node"><title>Node22</title>
<g id="a_node22"><a xlink:href="classMWRender_1_1Animation.html#ae52ecaea6bbf327d968e6d388f37bf44" target="_top" xlink:title="MWRender::Animation\l::disable">
<polygon fill="white" stroke="black" points="150.5,-379 150.5,-409 263.5,-409 263.5,-379 150.5,-379"/>
<text text-anchor="start" x="158.5" y="-397" font-family="FreeSans" font-size="10.00">MWRender::Animation</text>
<text text-anchor="middle" x="207" y="-386" font-family="FreeSans" font-size="10.00">::disable</text>
</a>
</g>
</g>
<!-- Node1&#45;&gt;Node22 -->
<g id="edge31" class="edge"><title>Node1&#45;&gt;Node22</title>
<path fill="none" stroke="midnightblue" d="M123.768,-394C132.576,-394 141.542,-394 150.158,-394"/>
<polygon fill="midnightblue" stroke="midnightblue" points="123.531,-390.5 113.531,-394 123.531,-397.5 123.531,-390.5"/>
</g>
<!-- Node25 -->
<g id="node25" class="node"><title>Node25</title>
<g id="a_node25"><a xlink:href="classMWRender_1_1Animation.html#a94ac28687434bbcd3ad5d97eb594bc4c" target="_top" xlink:title="MWRender::Animation\l::runAnimation">
<polygon fill="white" stroke="black" points="531.5,-49 531.5,-79 644.5,-79 644.5,-49 531.5,-49"/>
<text text-anchor="start" x="539.5" y="-67" font-family="FreeSans" font-size="10.00">MWRender::Animation</text>
<text text-anchor="middle" x="588" y="-56" font-family="FreeSans" font-size="10.00">::runAnimation</text>
</a>
</g>
</g>
<!-- Node1&#45;&gt;Node25 -->
<g id="edge50" class="edge"><title>Node1&#45;&gt;Node25</title>
<path fill="none" stroke="midnightblue" d="M68.166,-369.688C95.2662,-308.396 175.749,-147.774 300,-82 372.693,-43.5189 470.687,-47.1123 531.31,-54.5631"/>
<polygon fill="midnightblue" stroke="midnightblue" points="64.9094,-368.401 64.138,-378.968 71.3305,-371.188 64.9094,-368.401"/>
</g>
<!-- Node3 -->
<g id="node3" class="node"><title>Node3</title>
<g id="a_node3"><a xlink:href="classMWMechanics_1_1CharacterController.html#ae7520b5a1c8a260cad126ef7f7799a48" target="_top" xlink:title="MWMechanics::CharacterController\l::refreshHitRecoilAnims">
<polygon fill="white" stroke="black" points="300,-404 300,-434 468,-434 468,-404 300,-404"/>
<text text-anchor="start" x="308" y="-422" font-family="FreeSans" font-size="10.00">MWMechanics::CharacterController</text>
<text text-anchor="middle" x="384" y="-411" font-family="FreeSans" font-size="10.00">::refreshHitRecoilAnims</text>
</a>
</g>
</g>
<!-- Node2&#45;&gt;Node3 -->
<g id="edge2" class="edge"><title>Node2&#45;&gt;Node3</title>
<path fill="none" stroke="midnightblue" d="M224.291,-517.383C240.869,-495.077 268.547,-462.251 300,-443 305.629,-439.555 311.776,-436.585 318.095,-434.028"/>
<polygon fill="midnightblue" stroke="midnightblue" points="221.33,-515.504 218.293,-525.654 226.997,-519.613 221.33,-515.504"/>
</g>
<!-- Node10 -->
<g id="node10" class="node"><title>Node10</title>
<g id="a_node10"><a xlink:href="classMWMechanics_1_1CharacterController.html#a52bb024bb57b87a4ec574f5a95b9b1c6" target="_top" xlink:title="MWMechanics::CharacterController\l::refreshJumpAnims">
<polygon fill="white" stroke="black" points="300,-355 300,-385 468,-385 468,-355 300,-355"/>
<text text-anchor="start" x="308" y="-373" font-family="FreeSans" font-size="10.00">MWMechanics::CharacterController</text>
<text text-anchor="middle" x="384" y="-362" font-family="FreeSans" font-size="10.00">::refreshJumpAnims</text>
</a>
</g>
</g>
<!-- Node2&#45;&gt;Node10 -->
<g id="edge9" class="edge"><title>Node2&#45;&gt;Node10</title>
<path fill="none" stroke="midnightblue" d="M216.957,-516.234C230.095,-483.403 257.716,-425.913 300,-394 304.55,-390.566 309.577,-387.623 314.841,-385.1"/>
<polygon fill="midnightblue" stroke="midnightblue" points="213.537,-515.373 213.2,-525.963 220.067,-517.895 213.537,-515.373"/>
</g>
<!-- Node11 -->
<g id="node11" class="node"><title>Node11</title>
<g id="a_node11"><a xlink:href="classMWMechanics_1_1CharacterController.html#aca36244b01b14efca38a8e619222dd96" target="_top" xlink:title="MWMechanics::CharacterController\l::refreshMovementAnims">
<polygon fill="white" stroke="black" points="300,-453 300,-483 468,-483 468,-453 300,-453"/>
<text text-anchor="start" x="308" y="-471" font-family="FreeSans" font-size="10.00">MWMechanics::CharacterController</text>
<text text-anchor="middle" x="384" y="-460" font-family="FreeSans" font-size="10.00">::refreshMovementAnims</text>
</a>
</g>
</g>
<!-- Node2&#45;&gt;Node11 -->
<g id="edge11" class="edge"><title>Node2&#45;&gt;Node11</title>
<path fill="none" stroke="midnightblue" d="M242.076,-520.664C259.076,-511.09 280.192,-500.037 300,-492 307.923,-488.786 316.432,-485.813 324.874,-483.133"/>
<polygon fill="midnightblue" stroke="midnightblue" points="240.033,-517.8 233.09,-525.802 243.508,-523.877 240.033,-517.8"/>
</g>
<!-- Node12 -->
<g id="node12" class="node"><title>Node12</title>
<g id="a_node12"><a xlink:href="classMWMechanics_1_1CharacterController.html#ad6ce2c6e356ea107b9620211f45e4117" target="_top" xlink:title="MWMechanics::CharacterController\l::refreshIdleAnims">
<polygon fill="white" stroke="black" points="300,-306 300,-336 468,-336 468,-306 300,-306"/>
<text text-anchor="start" x="308" y="-324" font-family="FreeSans" font-size="10.00">MWMechanics::CharacterController</text>
<text text-anchor="middle" x="384" y="-313" font-family="FreeSans" font-size="10.00">::refreshIdleAnims</text>
</a>
</g>
</g>
<!-- Node2&#45;&gt;Node12 -->
<g id="edge13" class="edge"><title>Node2&#45;&gt;Node12</title>
<path fill="none" stroke="midnightblue" d="M219.064,-516.756C242.736,-464.98 296.442,-348.038 300,-345 303.993,-341.591 308.445,-338.666 313.157,-336.155"/>
<polygon fill="midnightblue" stroke="midnightblue" points="215.856,-515.357 214.883,-525.907 222.223,-518.266 215.856,-515.357"/>
</g>
<!-- Node13 -->
<g id="node13" class="node"><title>Node13</title>
<g id="a_node13"><a xlink:href="classMWMechanics_1_1CharacterController.html#adb9b5a438290f00e857a8ec5caabcbf2" target="_top" xlink:title="MWMechanics::CharacterController\l::playDeath">
<polygon fill="white" stroke="black" points="300,-502 300,-532 468,-532 468,-502 300,-502"/>
<text text-anchor="start" x="308" y="-520" font-family="FreeSans" font-size="10.00">MWMechanics::CharacterController</text>
<text text-anchor="middle" x="384" y="-509" font-family="FreeSans" font-size="10.00">::playDeath</text>
</a>
</g>
</g>
<!-- Node2&#45;&gt;Node13 -->
<g id="edge15" class="edge"><title>Node2&#45;&gt;Node13</title>
<path fill="none" stroke="midnightblue" d="M274.016,-531.946C282.484,-530.785 291.238,-529.585 299.933,-528.392"/>
<polygon fill="midnightblue" stroke="midnightblue" points="273.284,-528.514 263.852,-533.34 274.235,-535.449 273.284,-528.514"/>
</g>
<!-- Node16 -->
<g id="node16" class="node"><title>Node16</title>
<g id="a_node16"><a xlink:href="classMWMechanics_1_1CharacterController.html#aaa80522deac94c638061b047d4e6d251" target="_top" xlink:title="MWMechanics::CharacterController\l::updateIdleStormState">
<polygon fill="white" stroke="black" points="300,-677 300,-707 468,-707 468,-677 300,-677"/>
<text text-anchor="start" x="308" y="-695" font-family="FreeSans" font-size="10.00">MWMechanics::CharacterController</text>
<text text-anchor="middle" x="384" y="-684" font-family="FreeSans" font-size="10.00">::updateIdleStormState</text>
</a>
</g>
</g>
<!-- Node2&#45;&gt;Node16 -->
<g id="edge20" class="edge"><title>Node2&#45;&gt;Node16</title>
<path fill="none" stroke="midnightblue" d="M220.674,-565.107C236.063,-592.217 264.429,-635.859 300,-662 308.149,-667.989 317.613,-672.883 327.172,-676.85"/>
<polygon fill="midnightblue" stroke="midnightblue" points="223.685,-563.319 215.781,-556.263 217.56,-566.708 223.685,-563.319"/>
</g>
<!-- Node17 -->
<g id="node17" class="node"><title>Node17</title>
<g id="a_node17"><a xlink:href="classMWMechanics_1_1CharacterController.html#a4175bf09276ead0120e4ad83f0cc42ad" target="_top" xlink:title="MWMechanics::CharacterController\l::updateCreatureState">
<polygon fill="white" stroke="black" points="300,-551 300,-581 468,-581 468,-551 300,-551"/>
<text text-anchor="start" x="308" y="-569" font-family="FreeSans" font-size="10.00">MWMechanics::CharacterController</text>
<text text-anchor="middle" x="384" y="-558" font-family="FreeSans" font-size="10.00">::updateCreatureState</text>
</a>
</g>
</g>
<!-- Node2&#45;&gt;Node17 -->
<g id="edge22" class="edge"><title>Node2&#45;&gt;Node17</title>
<path fill="none" stroke="midnightblue" d="M274.016,-550.431C282.484,-551.641 291.238,-552.891 299.933,-554.133"/>
<polygon fill="midnightblue" stroke="midnightblue" points="274.247,-546.928 263.852,-548.979 273.257,-553.858 274.247,-546.928"/>
</g>
<!-- Node18 -->
<g id="node18" class="node"><title>Node18</title>
<g id="a_node18"><a xlink:href="classMWMechanics_1_1CharacterController.html#aca17757fd8136b502041f7637398f90e" target="_top" xlink:title="MWMechanics::CharacterController\l::updateWeaponState">
<polygon fill="white" stroke="black" points="300,-775 300,-805 468,-805 468,-775 300,-775"/>
<text text-anchor="start" x="308" y="-793" font-family="FreeSans" font-size="10.00">MWMechanics::CharacterController</text>
<text text-anchor="middle" x="384" y="-782" font-family="FreeSans" font-size="10.00">::updateWeaponState</text>
</a>
</g>
</g>
<!-- Node2&#45;&gt;Node18 -->
<g id="edge24" class="edge"><title>Node2&#45;&gt;Node18</title>
<path fill="none" stroke="midnightblue" d="M211.207,-566.092C218.442,-612.255 240.332,-710.864 300,-765 304.235,-768.843 309.042,-772.095 314.157,-774.849"/>
<polygon fill="midnightblue" stroke="midnightblue" points="214.649,-565.439 209.738,-556.051 207.723,-566.453 214.649,-565.439"/>
</g>
<!-- Node19 -->
<g id="node19" class="node"><title>Node19</title>
<g id="a_node19"><a xlink:href="classMWMechanics_1_1CharacterController.html#ac10ca1f8df58448976e092e9a691d5a1" target="_top" xlink:title="MWMechanics::CharacterController\l::updateAnimQueue">
<polygon fill="white" stroke="black" points="300,-726 300,-756 468,-756 468,-726 300,-726"/>
<text text-anchor="start" x="308" y="-744" font-family="FreeSans" font-size="10.00">MWMechanics::CharacterController</text>
<text text-anchor="middle" x="384" y="-733" font-family="FreeSans" font-size="10.00">::updateAnimQueue</text>
</a>
</g>
</g>
<!-- Node2&#45;&gt;Node19 -->
<g id="edge26" class="edge"><title>Node2&#45;&gt;Node19</title>
<path fill="none" stroke="midnightblue" d="M214.389,-565.941C225.405,-603.929 251.592,-676.073 300,-716 304.644,-719.83 309.863,-723.074 315.364,-725.821"/>
<polygon fill="midnightblue" stroke="midnightblue" points="217.728,-564.885 211.678,-556.188 210.984,-566.76 217.728,-564.885"/>
</g>
<!-- Node20 -->
<g id="node20" class="node"><title>Node20</title>
<g id="a_node20"><a xlink:href="classMWMechanics_1_1CharacterController.html#a742dccae98965b17930d42603cb3e0cc" target="_top" xlink:title="MWMechanics::CharacterController\l::unpersistAnimationState">
<polygon fill="white" stroke="black" points="504,-98 504,-128 672,-128 672,-98 504,-98"/>
<text text-anchor="start" x="512" y="-116" font-family="FreeSans" font-size="10.00">MWMechanics::CharacterController</text>
<text text-anchor="middle" x="588" y="-105" font-family="FreeSans" font-size="10.00">::unpersistAnimationState</text>
</a>
</g>
</g>
<!-- Node2&#45;&gt;Node20 -->
<g id="edge28" class="edge"><title>Node2&#45;&gt;Node20</title>
<path fill="none" stroke="midnightblue" d="M239.254,-561.523C293.138,-594.091 403.894,-648.262 468,-590 530.117,-533.546 471.958,-291.581 504,-214 518.555,-178.758 549.752,-146.274 569.48,-128.106"/>
<polygon fill="midnightblue" stroke="midnightblue" points="240.841,-558.389 230.494,-556.113 237.163,-564.345 240.841,-558.389"/>
</g>
<!-- Node21 -->
<g id="node21" class="node"><title>Node21</title>
<g id="a_node21"><a xlink:href="classMWMechanics_1_1CharacterController.html#a230587d22ef010ae2afe118b7664f5e5" target="_top" xlink:title="MWMechanics::CharacterController\l::playGroup">
<polygon fill="white" stroke="black" points="504,-224 504,-254 672,-254 672,-224 504,-224"/>
<text text-anchor="start" x="512" y="-242" font-family="FreeSans" font-size="10.00">MWMechanics::CharacterController</text>
<text text-anchor="middle" x="588" y="-231" font-family="FreeSans" font-size="10.00">::playGroup</text>
</a>
</g>
</g>
<!-- Node2&#45;&gt;Node21 -->
<g id="edge30" class="edge"><title>Node2&#45;&gt;Node21</title>
<path fill="none" stroke="midnightblue" d="M225.228,-564.099C241.825,-584.245 268.94,-612.06 300,-624 369.694,-650.792 412.146,-673.552 468,-624 518.228,-579.439 475.008,-384.563 504,-324 517.982,-294.792 546.031,-269.44 565.635,-254.2"/>
<polygon fill="midnightblue" stroke="midnightblue" points="227.956,-561.906 218.985,-556.27 222.484,-566.271 227.956,-561.906"/>
</g>
<!-- Node4 -->
<g id="node4" class="node"><title>Node4</title>
<g id="a_node4"><a xlink:href="classMWMechanics_1_1CharacterController.html#a583dc9b83b06b368c48ac9abd1355902" target="_top" xlink:title="MWMechanics::CharacterController\l::refreshCurrentAnims">
<polygon fill="white" stroke="black" points="504,-334 504,-364 672,-364 672,-334 504,-334"/>
<text text-anchor="start" x="512" y="-352" font-family="FreeSans" font-size="10.00">MWMechanics::CharacterController</text>
<text text-anchor="middle" x="588" y="-341" font-family="FreeSans" font-size="10.00">::refreshCurrentAnims</text>
</a>
</g>
</g>
<!-- Node3&#45;&gt;Node4 -->
<g id="edge3" class="edge"><title>Node3&#45;&gt;Node4</title>
<path fill="none" stroke="midnightblue" d="M451.172,-400.623C456.927,-398.558 462.607,-396.346 468,-394 484.986,-386.611 486.974,-380.295 504,-373 511.583,-369.751 519.739,-366.79 527.872,-364.144"/>
<polygon fill="midnightblue" stroke="midnightblue" points="449.779,-397.401 441.455,-403.956 452.05,-404.022 449.779,-397.401"/>
</g>
<!-- Node5 -->
<g id="node5" class="node"><title>Node5</title>
<g id="a_node5"><a xlink:href="classMWMechanics_1_1CharacterController.html#a47540403fbd9f18bbe047cff2c5a3c5f" target="_top" xlink:title="MWMechanics::CharacterController\l::CharacterController">
<polygon fill="white" stroke="black" points="708,-98 708,-128 876,-128 876,-98 708,-98"/>
<text text-anchor="start" x="716" y="-116" font-family="FreeSans" font-size="10.00">MWMechanics::CharacterController</text>
<text text-anchor="middle" x="792" y="-105" font-family="FreeSans" font-size="10.00">::CharacterController</text>
</a>
</g>
</g>
<!-- Node4&#45;&gt;Node5 -->
<g id="edge4" class="edge"><title>Node4&#45;&gt;Node5</title>
<path fill="none" stroke="midnightblue" d="M611.782,-326.604C628.817,-309.572 652.442,-285.338 672,-263 713.606,-215.482 759.003,-155.872 779.646,-128.294"/>
<polygon fill="midnightblue" stroke="midnightblue" points="609.079,-324.356 604.457,-333.89 614.016,-329.319 609.079,-324.356"/>
</g>
<!-- Node6 -->
<g id="node6" class="node"><title>Node6</title>
<g id="a_node6"><a xlink:href="classMWMechanics_1_1CharacterController.html#a1aa04b41faf6c46eef9310e36e405be5" target="_top" xlink:title="MWMechanics::CharacterController\l::update">
<polygon fill="white" stroke="black" points="708,-526 708,-556 876,-556 876,-526 708,-526"/>
<text text-anchor="start" x="716" y="-544" font-family="FreeSans" font-size="10.00">MWMechanics::CharacterController</text>
<text text-anchor="middle" x="792" y="-533" font-family="FreeSans" font-size="10.00">::update</text>
</a>
</g>
</g>
<!-- Node4&#45;&gt;Node6 -->
<g id="edge5" class="edge"><title>Node4&#45;&gt;Node6</title>
<path fill="none" stroke="midnightblue" d="M665.318,-368.719C667.626,-370.054 669.861,-371.479 672,-373 729.972,-414.211 769.723,-492.868 784.551,-525.852"/>
<polygon fill="midnightblue" stroke="midnightblue" points="666.606,-365.445 656.11,-364.001 663.414,-371.675 666.606,-365.445"/>
</g>
<!-- Node9 -->
<g id="node9" class="node"><title>Node9</title>
<g id="a_node9"><a xlink:href="classMWMechanics_1_1CharacterController.html#a81f372cb6cf17fe5b2e49a1d00a99114" target="_top" xlink:title="MWMechanics::CharacterController\l::forceStateUpdate">
<polygon fill="white" stroke="black" points="708,-240 708,-270 876,-270 876,-240 708,-240"/>
<text text-anchor="start" x="716" y="-258" font-family="FreeSans" font-size="10.00">MWMechanics::CharacterController</text>
<text text-anchor="middle" x="792" y="-247" font-family="FreeSans" font-size="10.00">::forceStateUpdate</text>
</a>
</g>
</g>
<!-- Node4&#45;&gt;Node9 -->
<g id="edge8" class="edge"><title>Node4&#45;&gt;Node9</title>
<path fill="none" stroke="midnightblue" d="M630.708,-329.591C668.661,-311.93 723.907,-286.221 758.626,-270.065"/>
<polygon fill="midnightblue" stroke="midnightblue" points="629.045,-326.505 621.455,-333.897 631.998,-332.851 629.045,-326.505"/>
</g>
<!-- Node7 -->
<g id="node7" class="node"><title>Node7</title>
<g id="a_node7"><a xlink:href="classMWMechanics_1_1Actors.html#a1588180bba8597286a1db1389cee106e" target="_top" xlink:title="Update actor stats and store desired velocity vectors in movement. ">
<polygon fill="white" stroke="black" points="912.5,-526 912.5,-556 1025.5,-556 1025.5,-526 912.5,-526"/>
<text text-anchor="start" x="920.5" y="-544" font-family="FreeSans" font-size="10.00">MWMechanics::Actors</text>
<text text-anchor="middle" x="969" y="-533" font-family="FreeSans" font-size="10.00">::update</text>
</a>
</g>
</g>
<!-- Node6&#45;&gt;Node7 -->
<g id="edge6" class="edge"><title>Node6&#45;&gt;Node7</title>
<path fill="none" stroke="midnightblue" d="M886.418,-541C895.157,-541 903.817,-541 912.047,-541"/>
<polygon fill="midnightblue" stroke="midnightblue" points="886.144,-537.5 876.144,-541 886.144,-544.5 886.144,-537.5"/>
</g>
<!-- Node8 -->
<g id="node8" class="node"><title>Node8</title>
<g id="a_node8"><a xlink:href="classMWMechanics_1_1MechanicsManager.html#acf3c8c25fff52b890d0d6ced4b456459" target="_top" xlink:title="MWMechanics::MechanicsManager\l::update">
<polygon fill="white" stroke="black" points="1062.5,-526 1062.5,-556 1231.5,-556 1231.5,-526 1062.5,-526"/>
<text text-anchor="start" x="1070.5" y="-544" font-family="FreeSans" font-size="10.00">MWMechanics::MechanicsManager</text>
<text text-anchor="middle" x="1147" y="-533" font-family="FreeSans" font-size="10.00">::update</text>
</a>
</g>
</g>
<!-- Node7&#45;&gt;Node8 -->
<g id="edge7" class="edge"><title>Node7&#45;&gt;Node8</title>
<path fill="none" stroke="midnightblue" d="M1035.73,-541C1044.43,-541 1053.43,-541 1062.38,-541"/>
<polygon fill="midnightblue" stroke="midnightblue" points="1035.69,-537.5 1025.69,-541 1035.69,-544.5 1035.69,-537.5"/>
</g>
<!-- Node10&#45;&gt;Node4 -->
<g id="edge10" class="edge"><title>Node10&#45;&gt;Node4</title>
<path fill="none" stroke="midnightblue" d="M478.109,-360.32C486.734,-359.424 495.435,-358.519 503.96,-357.633"/>
<polygon fill="midnightblue" stroke="midnightblue" points="477.62,-356.852 468.036,-361.368 478.344,-363.815 477.62,-356.852"/>
</g>
<!-- Node11&#45;&gt;Node4 -->
<g id="edge12" class="edge"><title>Node11&#45;&gt;Node4</title>
<path fill="none" stroke="midnightblue" d="M461.619,-447.722C463.841,-446.256 465.976,-444.685 468,-443 494.888,-420.619 476.988,-395.232 504,-373 508.169,-369.568 512.808,-366.627 517.7,-364.107"/>
<polygon fill="midnightblue" stroke="midnightblue" points="459.597,-444.846 452.673,-452.865 463.087,-450.915 459.597,-444.846"/>
</g>
<!-- Node12&#45;&gt;Node4 -->
<g id="edge14" class="edge"><title>Node12&#45;&gt;Node4</title>
<path fill="none" stroke="midnightblue" d="M478.109,-333.906C486.734,-335.102 495.435,-336.308 503.96,-337.49"/>
<polygon fill="midnightblue" stroke="midnightblue" points="478.421,-330.416 468.036,-332.51 477.46,-337.35 478.421,-330.416"/>
</g>
<!-- Node13&#45;&gt;Node6 -->
<g id="edge19" class="edge"><title>Node13&#45;&gt;Node6</title>
<path fill="none" stroke="midnightblue" d="M478.182,-522.508C547.487,-526.605 641.223,-532.146 707.971,-536.092"/>
<polygon fill="midnightblue" stroke="midnightblue" points="478.329,-519.011 468.14,-521.915 477.916,-525.999 478.329,-519.011"/>
</g>
<!-- Node14 -->
<g id="node14" class="node"><title>Node14</title>
<g id="a_node14"><a xlink:href="classMWMechanics_1_1CharacterController.html#a25d7a6bf598484daefd6658cc09926f7" target="_top" xlink:title="MWMechanics::CharacterController\l::playRandomDeath">
<polygon fill="white" stroke="black" points="504,-383 504,-413 672,-413 672,-383 504,-383"/>
<text text-anchor="start" x="512" y="-401" font-family="FreeSans" font-size="10.00">MWMechanics::CharacterController</text>
<text text-anchor="middle" x="588" y="-390" font-family="FreeSans" font-size="10.00">::playRandomDeath</text>
</a>
</g>
</g>
<!-- Node13&#45;&gt;Node14 -->
<g id="edge16" class="edge"><title>Node13&#45;&gt;Node14</title>
<path fill="none" stroke="midnightblue" d="M454.598,-498.199C459.213,-496.295 463.721,-494.231 468,-492 509.322,-470.458 550.39,-433.768 571.802,-413.176"/>
<polygon fill="midnightblue" stroke="midnightblue" points="453.095,-495.027 445.019,-501.885 455.609,-501.56 453.095,-495.027"/>
</g>
<!-- Node14&#45;&gt;Node9 -->
<g id="edge17" class="edge"><title>Node14&#45;&gt;Node9</title>
<path fill="none" stroke="midnightblue" d="M664.591,-378.028C667.168,-376.475 669.648,-374.802 672,-373 696.081,-354.544 687.315,-337.195 708,-315 724.729,-297.05 747.541,-281.017 765.016,-270.05"/>
<polygon fill="midnightblue" stroke="midnightblue" points="662.698,-375.071 655.514,-382.858 665.986,-381.251 662.698,-375.071"/>
</g>
<!-- Node15 -->
<g id="node15" class="node"><title>Node15</title>
<g id="a_node15"><a xlink:href="classMWMechanics_1_1CharacterController.html#a68765801255b13fab9abd4cce7b87eb7" target="_top" xlink:title="MWMechanics::CharacterController\l::kill">
<polygon fill="white" stroke="black" points="708,-325 708,-355 876,-355 876,-325 708,-325"/>
<text text-anchor="start" x="716" y="-343" font-family="FreeSans" font-size="10.00">MWMechanics::CharacterController</text>
<text text-anchor="middle" x="792" y="-332" font-family="FreeSans" font-size="10.00">::kill</text>
</a>
</g>
</g>
<!-- Node14&#45;&gt;Node15 -->
<g id="edge18" class="edge"><title>Node14&#45;&gt;Node15</title>
<path fill="none" stroke="midnightblue" d="M650.984,-380.203C679.021,-372.152 711.797,-362.742 738.586,-355.05"/>
<polygon fill="midnightblue" stroke="midnightblue" points="649.928,-376.864 641.283,-382.988 651.86,-383.592 649.928,-376.864"/>
</g>
<!-- Node16&#45;&gt;Node6 -->
<g id="edge21" class="edge"><title>Node16&#45;&gt;Node6</title>
<path fill="none" stroke="midnightblue" d="M436.304,-673.562C446.798,-669.761 457.762,-665.768 468,-662 570.279,-624.36 690.385,-579.082 751.275,-556.051"/>
<polygon fill="midnightblue" stroke="midnightblue" points="435.047,-670.294 426.833,-676.987 437.427,-676.877 435.047,-670.294"/>
</g>
<!-- Node17&#45;&gt;Node6 -->
<g id="edge23" class="edge"><title>Node17&#45;&gt;Node6</title>
<path fill="none" stroke="midnightblue" d="M478.182,-560.262C547.487,-555.995 641.223,-550.223 707.971,-546.113"/>
<polygon fill="midnightblue" stroke="midnightblue" points="477.906,-556.772 468.14,-560.881 478.336,-563.759 477.906,-556.772"/>
</g>
<!-- Node18&#45;&gt;Node6 -->
<g id="edge25" class="edge"><title>Node18&#45;&gt;Node6</title>
<path fill="none" stroke="midnightblue" d="M460.993,-772.245C522.123,-755.357 608.065,-725.526 672,-679 720.857,-643.446 763.052,-584.127 781.33,-556.296"/>
<polygon fill="midnightblue" stroke="midnightblue" points="459.76,-768.953 451.023,-774.946 461.59,-775.71 459.76,-768.953"/>
</g>
<!-- Node19&#45;&gt;Node6 -->
<g id="edge27" class="edge"><title>Node19&#45;&gt;Node6</title>
<path fill="none" stroke="midnightblue" d="M447.915,-722.823C454.728,-720.625 461.531,-718.33 468,-716 560.571,-682.653 586.639,-678.938 672,-630 710.496,-607.93 750.982,-575.341 773.405,-556.33"/>
<polygon fill="midnightblue" stroke="midnightblue" points="446.447,-719.616 437.965,-725.966 448.555,-726.291 446.447,-719.616"/>
</g>
<!-- Node20&#45;&gt;Node5 -->
<g id="edge29" class="edge"><title>Node20&#45;&gt;Node5</title>
<path fill="none" stroke="midnightblue" d="M682.109,-113C690.734,-113 699.435,-113 707.96,-113"/>
<polygon fill="midnightblue" stroke="midnightblue" points="682.036,-109.5 672.036,-113 682.036,-116.5 682.036,-109.5"/>
</g>
<!-- Node22&#45;&gt;Node3 -->
<g id="edge32" class="edge"><title>Node22&#45;&gt;Node3</title>
<path fill="none" stroke="midnightblue" d="M274.016,-403.431C282.484,-404.641 291.238,-405.891 299.933,-407.133"/>
<polygon fill="midnightblue" stroke="midnightblue" points="274.247,-399.928 263.852,-401.979 273.257,-406.858 274.247,-399.928"/>
</g>
<!-- Node22&#45;&gt;Node10 -->
<g id="edge33" class="edge"><title>Node22&#45;&gt;Node10</title>
<path fill="none" stroke="midnightblue" d="M274.016,-384.946C282.484,-383.785 291.238,-382.585 299.933,-381.392"/>
<polygon fill="midnightblue" stroke="midnightblue" points="273.284,-381.514 263.852,-386.34 274.235,-388.449 273.284,-381.514"/>
</g>
<!-- Node22&#45;&gt;Node11 -->
<g id="edge34" class="edge"><title>Node22&#45;&gt;Node11</title>
<path fill="none" stroke="midnightblue" d="M242.115,-414.241C259.124,-423.792 280.237,-434.854 300,-443 308.766,-446.613 318.243,-449.962 327.552,-452.958"/>
<polygon fill="midnightblue" stroke="midnightblue" points="243.544,-411.027 233.122,-409.118 240.079,-417.109 243.544,-411.027"/>
</g>
<!-- Node22&#45;&gt;Node12 -->
<g id="edge35" class="edge"><title>Node22&#45;&gt;Node12</title>
<path fill="none" stroke="midnightblue" d="M242.076,-373.664C259.076,-364.09 280.192,-353.037 300,-345 307.923,-341.786 316.432,-338.813 324.874,-336.133"/>
<polygon fill="midnightblue" stroke="midnightblue" points="240.033,-370.8 233.09,-378.802 243.508,-376.877 240.033,-370.8"/>
</g>
<!-- Node22&#45;&gt;Node13 -->
<g id="edge36" class="edge"><title>Node22&#45;&gt;Node13</title>
<path fill="none" stroke="midnightblue" d="M224.338,-417.54C240.951,-439.79 268.654,-472.575 300,-492 306.14,-495.805 312.896,-499.062 319.82,-501.843"/>
<polygon fill="midnightblue" stroke="midnightblue" points="227.045,-415.312 218.326,-409.293 221.388,-419.435 227.045,-415.312"/>
</g>
<!-- Node22&#45;&gt;Node15 -->
<g id="edge48" class="edge"><title>Node22&#45;&gt;Node15</title>
<path fill="none" stroke="midnightblue" d="M221.992,-370.257C237.588,-346.39 265.248,-311.042 300,-296 457.283,-227.924 668.936,-293.272 753.662,-324.963"/>
<polygon fill="midnightblue" stroke="midnightblue" points="218.993,-368.452 216.616,-378.776 224.913,-372.188 218.993,-368.452"/>
</g>
<!-- Node22&#45;&gt;Node16 -->
<g id="edge37" class="edge"><title>Node22&#45;&gt;Node16</title>
<path fill="none" stroke="midnightblue" d="M219.332,-418.555C242.821,-469.396 295.055,-582.13 300,-590 320.769,-623.057 350.825,-657.462 368.494,-676.666"/>
<polygon fill="midnightblue" stroke="midnightblue" points="222.41,-416.872 215.04,-409.261 216.055,-419.807 222.41,-416.872"/>
</g>
<!-- Node22&#45;&gt;Node17 -->
<g id="edge38" class="edge"><title>Node22&#45;&gt;Node17</title>
<path fill="none" stroke="midnightblue" d="M217.041,-418.779C230.252,-451.545 257.928,-508.879 300,-541 305.024,-544.836 310.633,-548.086 316.501,-550.839"/>
<polygon fill="midnightblue" stroke="midnightblue" points="220.299,-417.499 213.406,-409.454 213.777,-420.042 220.299,-417.499"/>
</g>
<!-- Node22&#45;&gt;Node18 -->
<g id="edge39" class="edge"><title>Node22&#45;&gt;Node18</title>
<path fill="none" stroke="midnightblue" d="M221.705,-418.328C234.641,-442.39 253.565,-480.638 264,-516 295.648,-623.245 227.037,-680.268 300,-765 303.339,-768.877 307.255,-772.166 311.536,-774.953"/>
<polygon fill="midnightblue" stroke="midnightblue" points="224.603,-416.333 216.737,-409.235 218.46,-419.689 224.603,-416.333"/>
</g>
<!-- Node22&#45;&gt;Node19 -->
<g id="edge40" class="edge"><title>Node22&#45;&gt;Node19</title>
<path fill="none" stroke="midnightblue" d="M221.438,-418.409C234.176,-442.532 252.956,-480.823 264,-516 291.054,-602.17 239.894,-648.587 300,-716 303.405,-719.819 307.37,-723.065 311.685,-725.822"/>
<polygon fill="midnightblue" stroke="midnightblue" points="224.361,-416.453 216.554,-409.291 218.191,-419.758 224.361,-416.453"/>
</g>
<!-- Node22&#45;&gt;Node20 -->
<g id="edge41" class="edge"><title>Node22&#45;&gt;Node20</title>
<path fill="none" stroke="midnightblue" d="M207.74,-368.803C208.697,-313.233 219.702,-180.388 300,-121 368.029,-70.6862 472.029,-83.5797 534.385,-97.9788"/>
<polygon fill="midnightblue" stroke="midnightblue" points="204.24,-368.817 207.665,-378.842 211.24,-368.869 204.24,-368.817"/>
</g>
<!-- Node22&#45;&gt;Node21 -->
<g id="edge42" class="edge"><title>Node22&#45;&gt;Node21</title>
<path fill="none" stroke="midnightblue" d="M217.499,-369.377C230.819,-338.58 258.204,-286.986 300,-263 361.689,-227.599 443.436,-224.129 503.903,-228.036"/>
<polygon fill="midnightblue" stroke="midnightblue" points="214.125,-368.377 213.521,-378.954 220.589,-371.062 214.125,-368.377"/>
</g>
<!-- Node23 -->
<g id="node23" class="node"><title>Node23</title>
<g id="a_node23"><a xlink:href="classMWMechanics_1_1CharacterController.html#a91cf734388359775935c4f22fdbd05fc" target="_top" xlink:title="MWMechanics::CharacterController\l::clearAnimQueue">
<polygon fill="white" stroke="black" points="300,-131 300,-161 468,-161 468,-131 300,-131"/>
<text text-anchor="start" x="308" y="-149" font-family="FreeSans" font-size="10.00">MWMechanics::CharacterController</text>
<text text-anchor="middle" x="384" y="-138" font-family="FreeSans" font-size="10.00">::clearAnimQueue</text>
</a>
</g>
</g>
<!-- Node22&#45;&gt;Node23 -->
<g id="edge43" class="edge"><title>Node22&#45;&gt;Node23</title>
<path fill="none" stroke="midnightblue" d="M211.15,-368.845C218.292,-322.578 240.033,-223.804 300,-170 303.796,-166.594 308.048,-163.67 312.567,-161.159"/>
<polygon fill="midnightblue" stroke="midnightblue" points="207.662,-368.513 209.702,-378.91 214.591,-369.51 207.662,-368.513"/>
</g>
<!-- Node24 -->
<g id="node24" class="node"><title>Node24</title>
<g id="a_node24"><a xlink:href="classMWMechanics_1_1CharacterController.html#aaa99d12ebe213f98bab349428e383f9a" target="_top" xlink:title="MWMechanics::CharacterController\l::resurrect">
<polygon fill="white" stroke="black" points="300,-180 300,-210 468,-210 468,-180 300,-180"/>
<text text-anchor="start" x="308" y="-198" font-family="FreeSans" font-size="10.00">MWMechanics::CharacterController</text>
<text text-anchor="middle" x="384" y="-187" font-family="FreeSans" font-size="10.00">::resurrect</text>
</a>
</g>
</g>
<!-- Node22&#45;&gt;Node24 -->
<g id="edge49" class="edge"><title>Node22&#45;&gt;Node24</title>
<path fill="none" stroke="midnightblue" d="M215.407,-368.646C227.368,-331.97 254.328,-264.221 300,-225 307.091,-218.911 315.515,-214.02 324.234,-210.103"/>
<polygon fill="midnightblue" stroke="midnightblue" points="211.956,-367.953 212.3,-378.542 218.635,-370.05 211.956,-367.953"/>
</g>
<!-- Node23&#45;&gt;Node6 -->
<g id="edge44" class="edge"><title>Node23&#45;&gt;Node6</title>
<path fill="none" stroke="midnightblue" d="M446.135,-163.775C464.658,-168.938 485.103,-174.416 504,-179 578.121,-196.978 617.262,-160.888 672,-214 721.204,-261.743 685.329,-299.297 708,-364 729.772,-426.14 766.211,-495.746 782.584,-525.817"/>
<polygon fill="midnightblue" stroke="midnightblue" points="446.928,-160.363 436.354,-161.029 445.036,-167.102 446.928,-160.363"/>
</g>
<!-- Node23&#45;&gt;Node9 -->
<g id="edge47" class="edge"><title>Node23&#45;&gt;Node9</title>
<path fill="none" stroke="midnightblue" d="M478.315,-147.207C535.61,-150.412 609.699,-159.043 672,-181 710.777,-194.666 750.217,-222.539 772.546,-239.905"/>
<polygon fill="midnightblue" stroke="midnightblue" points="478.349,-143.705 468.182,-146.687 477.99,-150.696 478.349,-143.705"/>
</g>
<!-- Node23&#45;&gt;Node20 -->
<g id="edge45" class="edge"><title>Node23&#45;&gt;Node20</title>
<path fill="none" stroke="midnightblue" d="M478.109,-130.789C486.734,-129.38 495.435,-127.959 503.96,-126.566"/>
<polygon fill="midnightblue" stroke="midnightblue" points="477.34,-127.368 468.036,-132.435 478.469,-134.277 477.34,-127.368"/>
</g>
<!-- Node23&#45;&gt;Node21 -->
<g id="edge46" class="edge"><title>Node23&#45;&gt;Node21</title>
<path fill="none" stroke="midnightblue" d="M459.712,-165.392C462.567,-166.824 465.342,-168.358 468,-170 488.068,-182.399 484.348,-195.952 504,-209 512.935,-214.932 523.19,-219.864 533.374,-223.898"/>
<polygon fill="midnightblue" stroke="midnightblue" points="460.919,-162.096 450.366,-161.155 458.029,-168.472 460.919,-162.096"/>
</g>
<!-- Node25&#45;&gt;Node5 -->
<g id="edge51" class="edge"><title>Node25&#45;&gt;Node5</title>
<path fill="none" stroke="midnightblue" d="M654.762,-79.9523C678.639,-85.7441 705.519,-92.2646 729.055,-97.9737"/>
<polygon fill="midnightblue" stroke="midnightblue" points="655.275,-76.4753 644.732,-77.5192 653.625,-83.278 655.275,-76.4753"/>
</g>
<!-- Node25&#45;&gt;Node6 -->
<g id="edge52" class="edge"><title>Node25&#45;&gt;Node6</title>
<path fill="none" stroke="midnightblue" d="M654.171,-74.5197C660.924,-77.8941 667.096,-82.2885 672,-88 712.295,-134.927 690.664,-304.626 708,-364 726.36,-426.879 764.212,-495.55 781.73,-525.542"/>
<polygon fill="midnightblue" stroke="midnightblue" points="655.241,-71.1728 644.666,-70.5228 652.528,-77.6255 655.241,-71.1728"/>
</g>
<!-- Node25&#45;&gt;Node9 -->
<g id="edge53" class="edge"><title>Node25&#45;&gt;Node9</title>
<path fill="none" stroke="midnightblue" d="M653.978,-78.0784C660.353,-80.822 666.491,-84.0955 672,-88 675.776,-90.6762 751.975,-199.25 780.416,-239.871"/>
<polygon fill="midnightblue" stroke="midnightblue" points="655.102,-74.7608 644.513,-74.426 652.582,-81.2915 655.102,-74.7608"/>
</g>
<!-- Node26 -->
<g id="node26" class="node"><title>Node26</title>
<g id="a_node26"><a xlink:href="classMWRender_1_1CreatureWeaponAnimation.html#aa3cdcaa0335cc5943ea13fe36103fe37" target="_top" xlink:title="MWRender::CreatureWeapon\lAnimation::runAnimation">
<polygon fill="white" stroke="black" points="721.5,-49 721.5,-79 862.5,-79 862.5,-49 721.5,-49"/>
<text text-anchor="start" x="729.5" y="-67" font-family="FreeSans" font-size="10.00">MWRender::CreatureWeapon</text>
<text text-anchor="middle" x="792" y="-56" font-family="FreeSans" font-size="10.00">Animation::runAnimation</text>
</a>
</g>
</g>
<!-- Node25&#45;&gt;Node26 -->
<g id="edge54" class="edge"><title>Node25&#45;&gt;Node26</title>
<path fill="none" stroke="midnightblue" d="M654.962,-64C676.229,-64 699.861,-64 721.383,-64"/>
<polygon fill="midnightblue" stroke="midnightblue" points="654.732,-60.5001 644.732,-64 654.732,-67.5001 654.732,-60.5001"/>
</g>
<!-- Node27 -->
<g id="node27" class="node"><title>Node27</title>
<g id="a_node27"><a xlink:href="classMWRender_1_1NpcAnimation.html#ad64725966328d0ae74d1c89a6f95619f" target="_top" xlink:title="MWRender::NpcAnimation\l::runAnimation">
<polygon fill="white" stroke="black" points="727,-0 727,-30 857,-30 857,-0 727,-0"/>
<text text-anchor="start" x="735" y="-18" font-family="FreeSans" font-size="10.00">MWRender::NpcAnimation</text>
<text text-anchor="middle" x="792" y="-7" font-family="FreeSans" font-size="10.00">::runAnimation</text>
</a>
</g>
</g>
<!-- Node25&#45;&gt;Node27 -->
<g id="edge55" class="edge"><title>Node25&#45;&gt;Node27</title>
<path fill="none" stroke="midnightblue" d="M654.762,-48.0477C678.639,-42.2559 705.519,-35.7354 729.055,-30.0263"/>
<polygon fill="midnightblue" stroke="midnightblue" points="653.625,-44.722 644.732,-50.4808 655.275,-51.5247 653.625,-44.722"/>
</g>
</g>
</svg>
