<?xml version="1.0" encoding="UTF-8" standalone="no"?>
<!DOCTYPE svg PUBLIC "-//W3C//DTD SVG 1.1//EN"
 "http://www.w3.org/Graphics/SVG/1.1/DTD/svg11.dtd">
<!-- Generated by graphviz version 2.36.0 (20140111.2315)
 -->
<!-- Title: MWClass::Repair::getToolTipInfo Pages: 1 -->
<svg width="728pt" height="739pt"
 viewBox="0.00 0.00 728.00 739.00" xmlns="http://www.w3.org/2000/svg" xmlns:xlink="http://www.w3.org/1999/xlink">
<g id="graph0" class="graph" transform="scale(1 1) rotate(0) translate(4 735)">
<title>MWClass::Repair::getToolTipInfo</title>
<polygon fill="white" stroke="none" points="-4,4 -4,-735 724,-735 724,4 -4,4"/>
<!-- Node1 -->
<g id="node1" class="node"><title>Node1</title>
<polygon fill="#bfbfbf" stroke="black" points="0,-419 0,-449 134,-449 134,-419 0,-419"/>
<text text-anchor="start" x="8" y="-437" font-family="FreeSans" font-size="10.00">MWClass::Repair::getTool</text>
<text text-anchor="middle" x="67" y="-426" font-family="FreeSans" font-size="10.00">TipInfo</text>
</g>
<!-- Node2 -->
<g id="node2" class="node"><title>Node2</title>
<g id="a_node2"><a xlink:href="classMWWorld_1_1ConstPtr.html#ae3aece4775b5f86d04af63ce0de36cbd" target="_top" xlink:title="MWWorld::ConstPtr::get">
<polygon fill="white" stroke="black" points="189,-706.5 189,-725.5 317,-725.5 317,-706.5 189,-706.5"/>
<text text-anchor="middle" x="253" y="-713.5" font-family="FreeSans" font-size="10.00">MWWorld::ConstPtr::get</text>
</a>
</g>
</g>
<!-- Node1&#45;&gt;Node2 -->
<g id="edge1" class="edge"><title>Node1&#45;&gt;Node2</title>
<path fill="none" stroke="midnightblue" d="M69.1656,-449.15C73.4714,-494.155 92.5279,-628.136 170,-696 173.014,-698.64 176.32,-700.945 179.82,-702.955"/>
<polygon fill="midnightblue" stroke="midnightblue" points="178.346,-706.13 188.868,-707.369 181.415,-699.839 178.346,-706.13"/>
</g>
<!-- Node4 -->
<g id="node4" class="node"><title>Node4</title>
<g id="a_node4"><a xlink:href="classMWGui_1_1ToolTips.html#a194fa80660d696e3017a0df1b80f7b7e" target="_top" xlink:title="MWGui::ToolTips::getCount\lString">
<polygon fill="white" stroke="black" points="182,-657 182,-687 324,-687 324,-657 182,-657"/>
<text text-anchor="start" x="190" y="-675" font-family="FreeSans" font-size="10.00">MWGui::ToolTips::getCount</text>
<text text-anchor="middle" x="253" y="-664" font-family="FreeSans" font-size="10.00">String</text>
</a>
</g>
</g>
<!-- Node1&#45;&gt;Node4 -->
<g id="edge3" class="edge"><title>Node1&#45;&gt;Node4</title>
<path fill="none" stroke="midnightblue" d="M70.8826,-449.184C79.0651,-488.077 106.107,-592.075 170,-647 171.975,-648.698 174.063,-650.28 176.24,-651.755"/>
<polygon fill="midnightblue" stroke="midnightblue" points="174.629,-654.869 185.022,-656.929 178.182,-648.837 174.629,-654.869"/>
</g>
<!-- Node7 -->
<g id="node7" class="node"><title>Node7</title>
<g id="a_node7"><a xlink:href="classMWWorld_1_1Class.html#a5537c9812ceb8e5a8100652eac05ec63" target="_top" xlink:title="Return current item health or throw an exception if class does not have item health. ">
<polygon fill="white" stroke="black" points="170.5,-69.5 170.5,-88.5 335.5,-88.5 335.5,-69.5 170.5,-69.5"/>
<text text-anchor="middle" x="253" y="-76.5" font-family="FreeSans" font-size="10.00">MWWorld::Class::getItemHealth</text>
</a>
</g>
</g>
<!-- Node1&#45;&gt;Node7 -->
<g id="edge6" class="edge"><title>Node1&#45;&gt;Node7</title>
<path fill="none" stroke="midnightblue" d="M71.2274,-418.693C80.8652,-375.338 112.4,-249.087 170,-160 186.62,-134.295 212.656,-110.388 230.921,-95.3089"/>
<polygon fill="midnightblue" stroke="midnightblue" points="233.598,-97.6465 239.188,-88.6461 229.205,-92.1962 233.598,-97.6465"/>
</g>
<!-- Node8 -->
<g id="node8" class="node"><title>Node8</title>
<g id="a_node8"><a xlink:href="classMWWorld_1_1ConstPtr.html#afa407c744b51f45e0b8e3eec160cb7a2" target="_top" xlink:title="MWWorld::ConstPtr::\lgetCellRef">
<polygon fill="white" stroke="black" points="404,-88 404,-118 516,-118 516,-88 404,-88"/>
<text text-anchor="start" x="412" y="-106" font-family="FreeSans" font-size="10.00">MWWorld::ConstPtr::</text>
<text text-anchor="middle" x="460" y="-95" font-family="FreeSans" font-size="10.00">getCellRef</text>
</a>
</g>
</g>
<!-- Node1&#45;&gt;Node8 -->
<g id="edge28" class="edge"><title>Node1&#45;&gt;Node8</title>
<path fill="none" stroke="midnightblue" d="M69.8066,-418.725C75.7062,-375.77 98.3503,-252.834 170,-188 232.117,-131.792 329.645,-112.645 393.952,-106.187"/>
<polygon fill="midnightblue" stroke="midnightblue" points="394.344,-109.665 403.977,-105.255 393.696,-102.695 394.344,-109.665"/>
</g>
<!-- Node11 -->
<g id="node11" class="node"><title>Node11</title>
<g id="a_node11"><a xlink:href="classMWGui_1_1ToolTips.html#a8d60c8c7be3bbc5952d9e2b81e5350da" target="_top" xlink:title="MWGui::ToolTips::toString">
<polygon fill="white" stroke="black" points="584,-575.5 584,-594.5 720,-594.5 720,-575.5 584,-575.5"/>
<text text-anchor="middle" x="652" y="-582.5" font-family="FreeSans" font-size="10.00">MWGui::ToolTips::toString</text>
</a>
</g>
</g>
<!-- Node1&#45;&gt;Node11 -->
<g id="edge10" class="edge"><title>Node1&#45;&gt;Node11</title>
<path fill="none" stroke="midnightblue" d="M88.2118,-449.05C108.181,-463.384 140.005,-484.821 170,-499 255.389,-539.364 279.318,-546.821 372,-565 439.292,-578.199 517.238,-582.922 573.609,-584.504"/>
<polygon fill="midnightblue" stroke="midnightblue" points="573.791,-588.009 583.876,-584.764 573.968,-581.012 573.791,-588.009"/>
</g>
<!-- Node12 -->
<g id="node12" class="node"><title>Node12</title>
<g id="a_node12"><a xlink:href="classMWGui_1_1ToolTips.html#a2dfa1ec55251adfe236a230093ded7cc" target="_top" xlink:title="MWGui::ToolTips::getWeight\lString">
<polygon fill="white" stroke="black" points="180.5,-608 180.5,-638 325.5,-638 325.5,-608 180.5,-608"/>
<text text-anchor="start" x="188.5" y="-626" font-family="FreeSans" font-size="10.00">MWGui::ToolTips::getWeight</text>
<text text-anchor="middle" x="253" y="-615" font-family="FreeSans" font-size="10.00">String</text>
</a>
</g>
</g>
<!-- Node1&#45;&gt;Node12 -->
<g id="edge11" class="edge"><title>Node1&#45;&gt;Node12</title>
<path fill="none" stroke="midnightblue" d="M73.7224,-449.005C86.3588,-480.221 119.583,-552.598 170,-593 174.968,-596.981 180.514,-600.464 186.313,-603.504"/>
<polygon fill="midnightblue" stroke="midnightblue" points="185.055,-606.782 195.588,-607.925 188.067,-600.463 185.055,-606.782"/>
</g>
<!-- Node13 -->
<g id="node13" class="node"><title>Node13</title>
<g id="a_node13"><a xlink:href="classMWGui_1_1ToolTips.html#a6d7220273b7167fbf57ba43f05795ad5" target="_top" xlink:title="MWGui::ToolTips::getValue\lString">
<polygon fill="white" stroke="black" points="390,-526 390,-556 530,-556 530,-526 390,-526"/>
<text text-anchor="start" x="398" y="-544" font-family="FreeSans" font-size="10.00">MWGui::ToolTips::getValue</text>
<text text-anchor="middle" x="460" y="-533" font-family="FreeSans" font-size="10.00">String</text>
</a>
</g>
</g>
<!-- Node1&#45;&gt;Node13 -->
<g id="edge13" class="edge"><title>Node1&#45;&gt;Node13</title>
<path fill="none" stroke="midnightblue" d="M123.191,-449.104C194.509,-468.62 318.477,-502.545 394.192,-523.265"/>
<polygon fill="midnightblue" stroke="midnightblue" points="393.52,-526.71 404.089,-525.973 395.368,-519.958 393.52,-526.71"/>
</g>
<!-- Node14 -->
<g id="node14" class="node"><title>Node14</title>
<g id="a_node14"><a xlink:href="classMWBase_1_1Environment.html#a73f12633762b049c03c80fe215873faa" target="_top" xlink:title="Return instance of this class. ">
<polygon fill="white" stroke="black" points="387,-186.5 387,-205.5 533,-205.5 533,-186.5 387,-186.5"/>
<text text-anchor="middle" x="460" y="-193.5" font-family="FreeSans" font-size="10.00">MWBase::Environment::get</text>
</a>
</g>
</g>
<!-- Node1&#45;&gt;Node14 -->
<g id="edge15" class="edge"><title>Node1&#45;&gt;Node14</title>
<path fill="none" stroke="midnightblue" d="M88.5973,-418.935C108.853,-404.394 140.882,-382.124 170,-365 241.275,-323.085 276.636,-338.558 336,-281 359.989,-257.741 345.264,-235.041 372,-215 374.377,-213.218 376.888,-211.596 379.499,-210.121"/>
<polygon fill="midnightblue" stroke="midnightblue" points="381.244,-213.165 388.712,-205.649 378.188,-206.867 381.244,-213.165"/>
</g>
<!-- Node15 -->
<g id="node15" class="node"><title>Node15</title>
<g id="a_node15"><a xlink:href="classMWGui_1_1ToolTips.html#adbd9bf389b70158082d567566a1c9c1c" target="_top" xlink:title="Returns a string containing debug tooltip information about the given cellref. ">
<polygon fill="white" stroke="black" points="187.5,-375 187.5,-405 318.5,-405 318.5,-375 187.5,-375"/>
<text text-anchor="start" x="195.5" y="-393" font-family="FreeSans" font-size="10.00">MWGui::ToolTips::getCell</text>
<text text-anchor="middle" x="253" y="-382" font-family="FreeSans" font-size="10.00">RefString</text>
</a>
</g>
</g>
<!-- Node1&#45;&gt;Node15 -->
<g id="edge16" class="edge"><title>Node1&#45;&gt;Node15</title>
<path fill="none" stroke="midnightblue" d="M130.808,-418.981C146.413,-415.249 163.267,-411.219 179.303,-407.384"/>
<polygon fill="midnightblue" stroke="midnightblue" points="180.251,-410.756 189.163,-405.026 178.623,-403.948 180.251,-410.756"/>
</g>
<!-- Node16 -->
<g id="node16" class="node"><title>Node16</title>
<g id="a_node16"><a xlink:href="classMWGui_1_1ToolTips.html#a5b864793b73bc68d765745c771561e45" target="_top" xlink:title="MWGui::ToolTips::getMisc\lString">
<polygon fill="white" stroke="black" points="393,-137 393,-167 527,-167 527,-137 393,-137"/>
<text text-anchor="start" x="401" y="-155" font-family="FreeSans" font-size="10.00">MWGui::ToolTips::getMisc</text>
<text text-anchor="middle" x="460" y="-144" font-family="FreeSans" font-size="10.00">String</text>
</a>
</g>
</g>
<!-- Node1&#45;&gt;Node16 -->
<g id="edge29" class="edge"><title>Node1&#45;&gt;Node16</title>
<path fill="none" stroke="midnightblue" d="M74.9232,-418.685C89.0517,-388.85 123.813,-322.261 170,-281 245.305,-213.727 278.137,-214.233 372,-177 377.944,-174.642 384.196,-172.403 390.508,-170.303"/>
<polygon fill="midnightblue" stroke="midnightblue" points="391.985,-173.505 400.441,-167.122 389.85,-166.838 391.985,-173.505"/>
</g>
<!-- Node3 -->
<g id="node3" class="node"><title>Node3</title>
<g id="a_node3"><a xlink:href="classMWWorld_1_1ConstPtr.html#ace447c99102c91a088f5e51c9664f950" target="_top" xlink:title="MWWorld::ConstPtr::\lgetTypeName">
<polygon fill="white" stroke="black" points="404,-701 404,-731 516,-731 516,-701 404,-701"/>
<text text-anchor="start" x="412" y="-719" font-family="FreeSans" font-size="10.00">MWWorld::ConstPtr::</text>
<text text-anchor="middle" x="460" y="-708" font-family="FreeSans" font-size="10.00">getTypeName</text>
</a>
</g>
</g>
<!-- Node2&#45;&gt;Node3 -->
<g id="edge2" class="edge"><title>Node2&#45;&gt;Node3</title>
<path fill="none" stroke="midnightblue" d="M317.179,-716C341.37,-716 369.005,-716 393.415,-716"/>
<polygon fill="midnightblue" stroke="midnightblue" points="393.66,-719.5 403.66,-716 393.66,-712.5 393.66,-719.5"/>
</g>
<!-- Node5 -->
<g id="node5" class="node"><title>Node5</title>
<g id="a_node5"><a xlink:href="namespaceanonymous__namespace_02character_8cpp_03.html#a551df780ef62c57fe81b128fa596488c" target="_top" xlink:title="anonymous_namespace\l\{character::cpp\}::toString">
<polygon fill="white" stroke="black" points="389,-652 389,-682 531,-682 531,-652 389,-652"/>
<text text-anchor="start" x="397" y="-670" font-family="FreeSans" font-size="10.00">anonymous_namespace</text>
<text text-anchor="middle" x="460" y="-659" font-family="FreeSans" font-size="10.00">{character::cpp}::toString</text>
</a>
</g>
</g>
<!-- Node4&#45;&gt;Node5 -->
<g id="edge4" class="edge"><title>Node4&#45;&gt;Node5</title>
<path fill="none" stroke="midnightblue" d="M324.263,-670.286C341.784,-669.859 360.705,-669.397 378.671,-668.959"/>
<polygon fill="midnightblue" stroke="midnightblue" points="378.918,-672.454 388.829,-668.711 378.747,-665.456 378.918,-672.454"/>
</g>
<!-- Node6 -->
<g id="node6" class="node"><title>Node6</title>
<g id="a_node6"><a xlink:href="gen__iconv_8cpp.html#a47a14d9c2f599fa2591017202978774d" target="_top" xlink:title="num">
<polygon fill="white" stroke="black" points="633,-657.5 633,-676.5 671,-676.5 671,-657.5 633,-657.5"/>
<text text-anchor="middle" x="652" y="-664.5" font-family="FreeSans" font-size="10.00">num</text>
</a>
</g>
</g>
<!-- Node5&#45;&gt;Node6 -->
<g id="edge5" class="edge"><title>Node5&#45;&gt;Node6</title>
<path fill="none" stroke="midnightblue" d="M531.209,-667C562.927,-667 598.61,-667 622.717,-667"/>
<polygon fill="midnightblue" stroke="midnightblue" points="622.923,-670.5 632.923,-667 622.923,-663.5 622.923,-670.5"/>
</g>
<!-- Node7&#45;&gt;Node8 -->
<g id="edge7" class="edge"><title>Node7&#45;&gt;Node8</title>
<path fill="none" stroke="midnightblue" d="M335.316,-88.5199C354.746,-90.7946 375.238,-93.1937 393.831,-95.3705"/>
<polygon fill="midnightblue" stroke="midnightblue" points="393.608,-98.8681 403.947,-96.5548 394.422,-91.9156 393.608,-98.8681"/>
</g>
<!-- Node9 -->
<g id="node9" class="node"><title>Node9</title>
<g id="a_node9"><a xlink:href="classMWWorld_1_1CellRef.html#a4b3b28f98b80448c7b7d5c3b364976b7" target="_top" xlink:title="MWWorld::CellRef::getCharge">
<polygon fill="white" stroke="black" points="384,-0.5 384,-19.5 536,-19.5 536,-0.5 384,-0.5"/>
<text text-anchor="middle" x="460" y="-7.5" font-family="FreeSans" font-size="10.00">MWWorld::CellRef::getCharge</text>
</a>
</g>
</g>
<!-- Node7&#45;&gt;Node9 -->
<g id="edge8" class="edge"><title>Node7&#45;&gt;Node9</title>
<path fill="none" stroke="midnightblue" d="M273.617,-69.353C296.692,-58.3213 336.379,-40.3281 372,-29 380.242,-26.3787 389.037,-23.9958 397.75,-21.8721"/>
<polygon fill="midnightblue" stroke="midnightblue" points="398.578,-25.2729 407.517,-19.5857 396.982,-18.4571 398.578,-25.2729"/>
</g>
<!-- Node10 -->
<g id="node10" class="node"><title>Node10</title>
<g id="a_node10"><a xlink:href="classMWWorld_1_1Class.html#a57ed3b8775968f13bb4460b3833a9021" target="_top" xlink:title="MWWorld::Class::getItemMax\lHealth">
<polygon fill="white" stroke="black" points="383.5,-39 383.5,-69 536.5,-69 536.5,-39 383.5,-39"/>
<text text-anchor="start" x="391.5" y="-57" font-family="FreeSans" font-size="10.00">MWWorld::Class::getItemMax</text>
<text text-anchor="middle" x="460" y="-46" font-family="FreeSans" font-size="10.00">Health</text>
</a>
</g>
</g>
<!-- Node7&#45;&gt;Node10 -->
<g id="edge9" class="edge"><title>Node7&#45;&gt;Node10</title>
<path fill="none" stroke="midnightblue" d="M332.087,-69.4773C345.521,-67.8389 359.55,-66.128 373.175,-64.4664"/>
<polygon fill="midnightblue" stroke="midnightblue" points="373.996,-67.8923 383.499,-63.2074 373.149,-60.9438 373.996,-67.8923"/>
</g>
<!-- Node12&#45;&gt;Node11 -->
<g id="edge12" class="edge"><title>Node12&#45;&gt;Node11</title>
<path fill="none" stroke="midnightblue" d="M325.692,-618.227C385.284,-614 472.269,-607.232 548,-599 556.668,-598.058 565.734,-596.973 574.737,-595.832"/>
<polygon fill="midnightblue" stroke="midnightblue" points="575.383,-599.278 584.852,-594.525 574.486,-592.335 575.383,-599.278"/>
</g>
<!-- Node13&#45;&gt;Node11 -->
<g id="edge14" class="edge"><title>Node13&#45;&gt;Node11</title>
<path fill="none" stroke="midnightblue" d="M525.856,-556.019C550.11,-561.636 577.288,-567.93 600.105,-573.214"/>
<polygon fill="midnightblue" stroke="midnightblue" points="599.392,-576.641 609.924,-575.488 600.971,-569.822 599.392,-576.641"/>
</g>
<!-- Node15&#45;&gt;Node5 -->
<g id="edge26" class="edge"><title>Node15&#45;&gt;Node5</title>
<path fill="none" stroke="midnightblue" d="M263.543,-405.382C282.934,-436.348 328.772,-508.104 372,-565 393.505,-593.304 420.315,-624.14 438.447,-644.413"/>
<polygon fill="midnightblue" stroke="midnightblue" points="435.888,-646.801 445.176,-651.897 441.093,-642.121 435.888,-646.801"/>
</g>
<!-- Node15&#45;&gt;Node13 -->
<g id="edge21" class="edge"><title>Node15&#45;&gt;Node13</title>
<path fill="none" stroke="midnightblue" d="M273.056,-405.042C290.456,-419.257 316.377,-441.676 336,-464 354.558,-485.112 349.164,-499.61 372,-516 374.831,-518.032 377.824,-519.899 380.93,-521.615"/>
<polygon fill="midnightblue" stroke="midnightblue" points="379.424,-524.775 389.941,-526.062 382.522,-518.498 379.424,-524.775"/>
</g>
<!-- Node15&#45;&gt;Node14 -->
<g id="edge22" class="edge"><title>Node15&#45;&gt;Node14</title>
<path fill="none" stroke="midnightblue" d="M297.016,-374.967C311.21,-368.108 325.926,-358.631 336,-346 373.649,-298.794 328.184,-256.545 372,-215 373.914,-213.185 375.96,-211.527 378.111,-210.015"/>
<polygon fill="midnightblue" stroke="midnightblue" points="380.023,-212.951 386.873,-204.869 376.478,-206.914 380.023,-212.951"/>
</g>
<!-- Node15&#45;&gt;Node16 -->
<g id="edge17" class="edge"><title>Node15&#45;&gt;Node16</title>
<path fill="none" stroke="midnightblue" d="M267.891,-374.81C285.716,-354.657 316.641,-317.373 336,-281 358.981,-237.822 336.502,-210.651 372,-177 375.521,-173.662 379.459,-170.765 383.661,-168.252"/>
<polygon fill="midnightblue" stroke="midnightblue" points="385.341,-171.324 392.609,-163.614 382.12,-165.109 385.341,-171.324"/>
</g>
<!-- Node17 -->
<g id="node17" class="node"><title>Node17</title>
<g id="a_node17"><a xlink:href="classMWWorld_1_1CellRef.html#a081ffa75eac6cf345f83b4b22b589267" target="_top" xlink:title="MWWorld::CellRef::getOwner">
<polygon fill="white" stroke="black" points="386,-399.5 386,-418.5 534,-418.5 534,-399.5 386,-399.5"/>
<text text-anchor="middle" x="460" y="-406.5" font-family="FreeSans" font-size="10.00">MWWorld::CellRef::getOwner</text>
</a>
</g>
</g>
<!-- Node15&#45;&gt;Node17 -->
<g id="edge18" class="edge"><title>Node15&#45;&gt;Node17</title>
<path fill="none" stroke="midnightblue" d="M318.582,-395.986C336.688,-397.664 356.631,-399.512 375.661,-401.276"/>
<polygon fill="midnightblue" stroke="midnightblue" points="375.536,-404.779 385.817,-402.217 376.182,-397.809 375.536,-404.779"/>
</g>
<!-- Node18 -->
<g id="node18" class="node"><title>Node18</title>
<g id="a_node18"><a xlink:href="classMWWorld_1_1CellRef.html#a4affaf44d9a6afe1832b71263ed84c78" target="_top" xlink:title="MWWorld::CellRef::getFaction">
<polygon fill="white" stroke="black" points="384,-361.5 384,-380.5 536,-380.5 536,-361.5 384,-361.5"/>
<text text-anchor="middle" x="460" y="-368.5" font-family="FreeSans" font-size="10.00">MWWorld::CellRef::getFaction</text>
</a>
</g>
</g>
<!-- Node15&#45;&gt;Node18 -->
<g id="edge19" class="edge"><title>Node15&#45;&gt;Node18</title>
<path fill="none" stroke="midnightblue" d="M318.582,-384.014C336.01,-382.399 355.141,-380.626 373.521,-378.922"/>
<polygon fill="midnightblue" stroke="midnightblue" points="374.005,-382.393 383.639,-377.985 373.359,-375.423 374.005,-382.393"/>
</g>
<!-- Node19 -->
<g id="node19" class="node"><title>Node19</title>
<g id="a_node19"><a xlink:href="classMWWorld_1_1CellRef.html#a493f4e36f5fc751f7c507c7f6742de00" target="_top" xlink:title="MWWorld::CellRef::getFactionRank">
<polygon fill="white" stroke="black" points="372.5,-323.5 372.5,-342.5 547.5,-342.5 547.5,-323.5 372.5,-323.5"/>
<text text-anchor="middle" x="460" y="-330.5" font-family="FreeSans" font-size="10.00">MWWorld::CellRef::getFactionRank</text>
</a>
</g>
</g>
<!-- Node15&#45;&gt;Node19 -->
<g id="edge20" class="edge"><title>Node15&#45;&gt;Node19</title>
<path fill="none" stroke="midnightblue" d="M297.411,-374.912C319.577,-367.491 347.063,-358.721 372,-352 381.516,-349.435 391.688,-346.969 401.599,-344.712"/>
<polygon fill="midnightblue" stroke="midnightblue" points="402.39,-348.122 411.389,-342.529 400.866,-341.29 402.39,-348.122"/>
</g>
<!-- Node20 -->
<g id="node20" class="node"><title>Node20</title>
<g id="a_node20"><a xlink:href="classMWBase_1_1Environment.html#a571bbf2793948af02f188c25f0a4ba23" target="_top" xlink:title="MWBase::Environment\l::getMechanicsManager">
<polygon fill="white" stroke="black" points="394.5,-274 394.5,-304 525.5,-304 525.5,-274 394.5,-274"/>
<text text-anchor="start" x="402.5" y="-292" font-family="FreeSans" font-size="10.00">MWBase::Environment</text>
<text text-anchor="middle" x="460" y="-281" font-family="FreeSans" font-size="10.00">::getMechanicsManager</text>
</a>
</g>
</g>
<!-- Node15&#45;&gt;Node20 -->
<g id="edge23" class="edge"><title>Node15&#45;&gt;Node20</title>
<path fill="none" stroke="midnightblue" d="M286.169,-374.942C301.726,-367.116 320.369,-356.914 336,-346 353.552,-333.744 353.247,-324.324 372,-314 376.169,-311.705 380.569,-309.603 385.087,-307.681"/>
<polygon fill="midnightblue" stroke="midnightblue" points="386.465,-310.9 394.49,-303.983 383.903,-304.386 386.465,-310.9"/>
</g>
<!-- Node21 -->
<g id="node21" class="node"><title>Node21</title>
<g id="a_node21"><a xlink:href="classMWBase_1_1MechanicsManager.html#adca0673ebad3f7e0f6aab8d86ccce710" target="_top" xlink:title="MWBase::MechanicsManager\l::getStolenItemOwners">
<polygon fill="white" stroke="black" points="382.5,-225 382.5,-255 537.5,-255 537.5,-225 382.5,-225"/>
<text text-anchor="start" x="390.5" y="-243" font-family="FreeSans" font-size="10.00">MWBase::MechanicsManager</text>
<text text-anchor="middle" x="460" y="-232" font-family="FreeSans" font-size="10.00">::getStolenItemOwners</text>
</a>
</g>
</g>
<!-- Node15&#45;&gt;Node21 -->
<g id="edge24" class="edge"><title>Node15&#45;&gt;Node21</title>
<path fill="none" stroke="midnightblue" d="M294.335,-374.936C308.925,-367.915 324.596,-358.34 336,-346 363.014,-316.769 341.897,-290.039 372,-264 373.344,-262.837 374.74,-261.73 376.181,-260.677"/>
<polygon fill="midnightblue" stroke="midnightblue" points="378.27,-263.497 384.866,-255.206 374.539,-257.574 378.27,-263.497"/>
</g>
<!-- Node22 -->
<g id="node22" class="node"><title>Node22</title>
<g id="a_node22"><a xlink:href="classMWWorld_1_1CellRef.html#a2f70b196b33750c0bbc0a11038d2cf72" target="_top" xlink:title="MWWorld::CellRef::getRefId">
<polygon fill="white" stroke="black" points="390,-487.5 390,-506.5 530,-506.5 530,-487.5 390,-487.5"/>
<text text-anchor="middle" x="460" y="-494.5" font-family="FreeSans" font-size="10.00">MWWorld::CellRef::getRefId</text>
</a>
</g>
</g>
<!-- Node15&#45;&gt;Node22 -->
<g id="edge25" class="edge"><title>Node15&#45;&gt;Node22</title>
<path fill="none" stroke="midnightblue" d="M269.808,-405.033C291.246,-424.578 331.525,-458.406 372,-477 378.487,-479.98 385.456,-482.535 392.524,-484.722"/>
<polygon fill="midnightblue" stroke="midnightblue" points="391.611,-488.101 402.187,-487.481 393.532,-481.37 391.611,-488.101"/>
</g>
<!-- Node23 -->
<g id="node23" class="node"><title>Node23</title>
<g id="a_node23"><a xlink:href="classMWWorld_1_1CellRef.html#a831fbb88331790878d7b20f0bc5a4f41" target="_top" xlink:title="MWWorld::CellRef::getGlobal\lVariable">
<polygon fill="white" stroke="black" points="386,-438 386,-468 534,-468 534,-438 386,-438"/>
<text text-anchor="start" x="394" y="-456" font-family="FreeSans" font-size="10.00">MWWorld::CellRef::getGlobal</text>
<text text-anchor="middle" x="460" y="-445" font-family="FreeSans" font-size="10.00">Variable</text>
</a>
</g>
</g>
<!-- Node15&#45;&gt;Node23 -->
<g id="edge27" class="edge"><title>Node15&#45;&gt;Node23</title>
<path fill="none" stroke="midnightblue" d="M299.563,-405.045C321.422,-412.168 348.015,-420.694 372,-428 379.695,-430.344 387.791,-432.75 395.821,-435.1"/>
<polygon fill="midnightblue" stroke="midnightblue" points="394.97,-438.498 405.55,-437.93 396.925,-431.776 394.97,-438.498"/>
</g>
</g>
</svg>
