<?xml version="1.0" encoding="UTF-8" standalone="no"?>
<!DOCTYPE svg PUBLIC "-//W3C//DTD SVG 1.1//EN"
 "http://www.w3.org/Graphics/SVG/1.1/DTD/svg11.dtd">
<!-- Generated by graphviz version 2.36.0 (20140111.2315)
 -->
<!-- Title: MWGui::PickClassDialog::updateStats Pages: 1 -->
<svg width="1012pt" height="1008pt"
 viewBox="0.00 0.00 1012.00 1008.00" xmlns="http://www.w3.org/2000/svg" xmlns:xlink="http://www.w3.org/1999/xlink">
<g id="graph0" class="graph" transform="scale(1 1) rotate(0) translate(4 1004)">
<title>MWGui::PickClassDialog::updateStats</title>
<polygon fill="white" stroke="none" points="-4,4 -4,-1004 1008,-1004 1008,4 -4,4"/>
<!-- Node1 -->
<g id="node1" class="node"><title>Node1</title>
<polygon fill="#bfbfbf" stroke="black" points="0.5,-247 0.5,-277 129.5,-277 129.5,-247 0.5,-247"/>
<text text-anchor="start" x="8.5" y="-265" font-family="FreeSans" font-size="10.00">MWGui::PickClassDialog</text>
<text text-anchor="middle" x="65" y="-254" font-family="FreeSans" font-size="10.00">::updateStats</text>
</g>
<!-- Node2 -->
<g id="node2" class="node"><title>Node2</title>
<g id="a_node2"><a xlink:href="classMWGui_1_1PickClassDialog.html#a667a2edee4300e62c6ee9bbe504ab4c2" target="_top" xlink:title="MWGui::PickClassDialog\l::PickClassDialog">
<polygon fill="white" stroke="black" points="513.5,-181 513.5,-211 642.5,-211 642.5,-181 513.5,-181"/>
<text text-anchor="start" x="521.5" y="-199" font-family="FreeSans" font-size="10.00">MWGui::PickClassDialog</text>
<text text-anchor="middle" x="578" y="-188" font-family="FreeSans" font-size="10.00">::PickClassDialog</text>
</a>
</g>
</g>
<!-- Node1&#45;&gt;Node2 -->
<g id="edge1" class="edge"><title>Node1&#45;&gt;Node2</title>
<path fill="none" stroke="midnightblue" d="M139.575,-257.385C221.937,-251.541 359.175,-239.776 476,-220 490.216,-217.593 505.41,-214.347 519.583,-211.021"/>
<polygon fill="midnightblue" stroke="midnightblue" points="139.293,-253.896 129.561,-258.085 139.781,-260.879 139.293,-253.896"/>
</g>
<!-- Node3 -->
<g id="node3" class="node"><title>Node3</title>
<g id="a_node3"><a xlink:href="classMWGui_1_1PickClassDialog.html#a4b01d946c9b9a4422709e84fbca71d9d" target="_top" xlink:title="Notify that window has been made visible. ">
<polygon fill="white" stroke="black" points="166.5,-269 166.5,-299 295.5,-299 295.5,-269 166.5,-269"/>
<text text-anchor="start" x="174.5" y="-287" font-family="FreeSans" font-size="10.00">MWGui::PickClassDialog</text>
<text text-anchor="middle" x="231" y="-276" font-family="FreeSans" font-size="10.00">::open</text>
</a>
</g>
</g>
<!-- Node1&#45;&gt;Node3 -->
<g id="edge2" class="edge"><title>Node1&#45;&gt;Node3</title>
<path fill="none" stroke="midnightblue" d="M139.788,-271.898C148.635,-273.085 157.611,-274.289 166.298,-275.455"/>
<polygon fill="midnightblue" stroke="midnightblue" points="140.253,-268.429 129.876,-270.569 139.322,-275.367 140.253,-268.429"/>
</g>
<!-- Node4 -->
<g id="node4" class="node"><title>Node4</title>
<g id="a_node4"><a xlink:href="classMWGui_1_1PickClassDialog.html#aa73e1da51dc02757e91c104081b64ceb" target="_top" xlink:title="MWGui::PickClassDialog\l::setClassId">
<polygon fill="white" stroke="black" points="166.5,-318 166.5,-348 295.5,-348 295.5,-318 166.5,-318"/>
<text text-anchor="start" x="174.5" y="-336" font-family="FreeSans" font-size="10.00">MWGui::PickClassDialog</text>
<text text-anchor="middle" x="231" y="-325" font-family="FreeSans" font-size="10.00">::setClassId</text>
</a>
</g>
</g>
<!-- Node1&#45;&gt;Node4 -->
<g id="edge3" class="edge"><title>Node1&#45;&gt;Node4</title>
<path fill="none" stroke="midnightblue" d="M106.843,-281.446C124.87,-289.858 146.38,-299.664 166,-308 173.795,-311.312 182.189,-314.71 190.25,-317.891"/>
<polygon fill="midnightblue" stroke="midnightblue" points="108.303,-278.265 97.7627,-277.19 105.332,-284.603 108.303,-278.265"/>
</g>
<!-- Node38 -->
<g id="node38" class="node"><title>Node38</title>
<g id="a_node38"><a xlink:href="classMWGui_1_1PickClassDialog.html#adf0de15f0c3fe70c52a89c89118b53d8" target="_top" xlink:title="MWGui::PickClassDialog\l::onSelectClass">
<polygon fill="white" stroke="black" points="166.5,-181 166.5,-211 295.5,-211 295.5,-181 166.5,-181"/>
<text text-anchor="start" x="174.5" y="-199" font-family="FreeSans" font-size="10.00">MWGui::PickClassDialog</text>
<text text-anchor="middle" x="231" y="-188" font-family="FreeSans" font-size="10.00">::onSelectClass</text>
</a>
</g>
</g>
<!-- Node1&#45;&gt;Node38 -->
<g id="edge39" class="edge"><title>Node1&#45;&gt;Node38</title>
<path fill="none" stroke="midnightblue" d="M113.007,-243.083C138.249,-232.924 168.938,-220.574 192.55,-211.071"/>
<polygon fill="midnightblue" stroke="midnightblue" points="111.595,-239.878 103.625,-246.858 114.209,-246.372 111.595,-239.878"/>
</g>
<!-- Node5 -->
<g id="node5" class="node"><title>Node5</title>
<g id="a_node5"><a xlink:href="classMWGui_1_1CharacterCreation.html#a56a9e33b81417cbf53bb8006908c2296" target="_top" xlink:title="MWGui::CharacterCreation\l::spawnDialog">
<polygon fill="white" stroke="black" points="332.5,-318 332.5,-348 475.5,-348 475.5,-318 332.5,-318"/>
<text text-anchor="start" x="340.5" y="-336" font-family="FreeSans" font-size="10.00">MWGui::CharacterCreation</text>
<text text-anchor="middle" x="404" y="-325" font-family="FreeSans" font-size="10.00">::spawnDialog</text>
</a>
</g>
</g>
<!-- Node4&#45;&gt;Node5 -->
<g id="edge4" class="edge"><title>Node4&#45;&gt;Node5</title>
<path fill="none" stroke="midnightblue" d="M305.891,-333C314.68,-333 323.635,-333 332.376,-333"/>
<polygon fill="midnightblue" stroke="midnightblue" points="305.674,-329.5 295.674,-333 305.674,-336.5 305.674,-329.5"/>
</g>
<!-- Node6 -->
<g id="node6" class="node"><title>Node6</title>
<g id="a_node6"><a xlink:href="classMWGui_1_1WindowManager.html#ab9fdbfdc3d3b76fe9813cbb743d334da" target="_top" xlink:title="MWGui::WindowManager\l::updateVisible">
<polygon fill="white" stroke="black" points="512,-318 512,-348 644,-348 644,-318 512,-318"/>
<text text-anchor="start" x="520" y="-336" font-family="FreeSans" font-size="10.00">MWGui::WindowManager</text>
<text text-anchor="middle" x="578" y="-325" font-family="FreeSans" font-size="10.00">::updateVisible</text>
</a>
</g>
</g>
<!-- Node5&#45;&gt;Node6 -->
<g id="edge5" class="edge"><title>Node5&#45;&gt;Node6</title>
<path fill="none" stroke="midnightblue" d="M486.019,-333C494.638,-333 503.324,-333 511.729,-333"/>
<polygon fill="midnightblue" stroke="midnightblue" points="485.952,-329.5 475.952,-333 485.952,-336.5 485.952,-329.5"/>
</g>
<!-- Node7 -->
<g id="node7" class="node"><title>Node7</title>
<g id="a_node7"><a xlink:href="classMWGui_1_1WindowManager.html#a2066d296aa345dcb4008cbd07d3c52c2" target="_top" xlink:title="MWGui::WindowManager\l::initUI">
<polygon fill="white" stroke="black" points="681,-830 681,-860 813,-860 813,-830 681,-830"/>
<text text-anchor="start" x="689" y="-848" font-family="FreeSans" font-size="10.00">MWGui::WindowManager</text>
<text text-anchor="middle" x="747" y="-837" font-family="FreeSans" font-size="10.00">::initUI</text>
</a>
</g>
</g>
<!-- Node6&#45;&gt;Node7 -->
<g id="edge6" class="edge"><title>Node6&#45;&gt;Node7</title>
<path fill="none" stroke="midnightblue" d="M585.597,-358.105C600.747,-415.103 639.825,-558.459 680,-676 699.661,-733.525 727.19,-800.368 739.548,-829.784"/>
<polygon fill="midnightblue" stroke="midnightblue" points="588.915,-356.962 582.972,-348.191 582.148,-358.754 588.915,-356.962"/>
</g>
<!-- Node9 -->
<g id="node9" class="node"><title>Node9</title>
<g id="a_node9"><a xlink:href="classMWGui_1_1WindowManager.html#a044fcf2ab107f7c97dbf184ab0e3e868" target="_top" xlink:title="MWGui::WindowManager\l::interactiveMessageBox">
<polygon fill="white" stroke="black" points="680,-637 680,-667 814,-667 814,-637 680,-637"/>
<text text-anchor="start" x="688" y="-655" font-family="FreeSans" font-size="10.00">MWGui::WindowManager</text>
<text text-anchor="middle" x="747" y="-644" font-family="FreeSans" font-size="10.00">::interactiveMessageBox</text>
</a>
</g>
</g>
<!-- Node6&#45;&gt;Node9 -->
<g id="edge8" class="edge"><title>Node6&#45;&gt;Node9</title>
<path fill="none" stroke="midnightblue" d="M580.623,-358.186C585.548,-414.073 604.992,-549.616 680,-627 683.752,-630.871 688.164,-634.15 692.899,-636.926"/>
<polygon fill="midnightblue" stroke="midnightblue" points="584.104,-357.801 579.819,-348.111 577.126,-358.358 584.104,-357.801"/>
</g>
<!-- Node10 -->
<g id="node10" class="node"><title>Node10</title>
<g id="a_node10"><a xlink:href="classMWGui_1_1WindowManager.html#a0767a1ab9cb727c7bd0243c35226b428" target="_top" xlink:title="MWGui::WindowManager\l::pushGuiMode">
<polygon fill="white" stroke="black" points="681,-588 681,-618 813,-618 813,-588 681,-588"/>
<text text-anchor="start" x="689" y="-606" font-family="FreeSans" font-size="10.00">MWGui::WindowManager</text>
<text text-anchor="middle" x="747" y="-595" font-family="FreeSans" font-size="10.00">::pushGuiMode</text>
</a>
</g>
</g>
<!-- Node6&#45;&gt;Node10 -->
<g id="edge9" class="edge"><title>Node6&#45;&gt;Node10</title>
<path fill="none" stroke="midnightblue" d="M589.24,-357.555C605.711,-395.806 640.297,-471.223 680,-529 695.112,-550.991 716.119,-573.48 730.343,-587.802"/>
<polygon fill="midnightblue" stroke="midnightblue" points="592.407,-356.058 585.267,-348.23 585.967,-358.802 592.407,-356.058"/>
</g>
<!-- Node24 -->
<g id="node24" class="node"><title>Node24</title>
<g id="a_node24"><a xlink:href="classMWGui_1_1WindowManager.html#a0b79ceda0174bec3ff9efc8ee03ea336" target="_top" xlink:title="MWGui::WindowManager\l::popGuiMode">
<polygon fill="white" stroke="black" points="681,-490 681,-520 813,-520 813,-490 681,-490"/>
<text text-anchor="start" x="689" y="-508" font-family="FreeSans" font-size="10.00">MWGui::WindowManager</text>
<text text-anchor="middle" x="747" y="-497" font-family="FreeSans" font-size="10.00">::popGuiMode</text>
</a>
</g>
</g>
<!-- Node6&#45;&gt;Node24 -->
<g id="edge23" class="edge"><title>Node6&#45;&gt;Node24</title>
<path fill="none" stroke="midnightblue" d="M589.916,-357.34C605.536,-389.611 637.176,-446.389 680,-480 684.819,-483.782 690.274,-487.041 695.931,-489.836"/>
<polygon fill="midnightblue" stroke="midnightblue" points="593.019,-355.716 585.588,-348.164 586.688,-358.702 593.019,-355.716"/>
</g>
<!-- Node25 -->
<g id="node25" class="node"><title>Node25</title>
<g id="a_node25"><a xlink:href="classMWGui_1_1WindowManager.html#a6162cf9ad2be7221c1b83ce122af4851" target="_top" xlink:title="can be anywhere in the stack ">
<polygon fill="white" stroke="black" points="681,-441 681,-471 813,-471 813,-441 681,-441"/>
<text text-anchor="start" x="689" y="-459" font-family="FreeSans" font-size="10.00">MWGui::WindowManager</text>
<text text-anchor="middle" x="747" y="-448" font-family="FreeSans" font-size="10.00">::removeGuiMode</text>
</a>
</g>
</g>
<!-- Node6&#45;&gt;Node25 -->
<g id="edge24" class="edge"><title>Node6&#45;&gt;Node25</title>
<path fill="none" stroke="midnightblue" d="M597.807,-356.053C616.648,-377.883 647.455,-410.314 680,-431 685.894,-434.747 692.436,-438.064 699.044,-440.958"/>
<polygon fill="midnightblue" stroke="midnightblue" points="600.33,-353.616 591.193,-348.252 594.991,-358.143 600.33,-353.616"/>
</g>
<!-- Node27 -->
<g id="node27" class="node"><title>Node27</title>
<g id="a_node27"><a xlink:href="classMWGui_1_1WindowManager.html#aeb2d42ff40077e3b3513c5ed67732fc5" target="_top" xlink:title="Allow one or more windows. ">
<polygon fill="white" stroke="black" points="681,-245 681,-275 813,-275 813,-245 681,-245"/>
<text text-anchor="start" x="689" y="-263" font-family="FreeSans" font-size="10.00">MWGui::WindowManager</text>
<text text-anchor="middle" x="747" y="-252" font-family="FreeSans" font-size="10.00">::allow</text>
</a>
</g>
</g>
<!-- Node6&#45;&gt;Node27 -->
<g id="edge26" class="edge"><title>Node6&#45;&gt;Node27</title>
<path fill="none" stroke="midnightblue" d="M617.325,-313.255C636.02,-303.921 658.964,-292.9 680,-284 687.186,-280.96 694.905,-277.939 702.44,-275.119"/>
<polygon fill="midnightblue" stroke="midnightblue" points="615.603,-310.203 608.242,-317.824 618.749,-316.457 615.603,-310.203"/>
</g>
<!-- Node29 -->
<g id="node29" class="node"><title>Node29</title>
<g id="a_node29"><a xlink:href="classMWGui_1_1WindowManager.html#a9f2fb85060c4d0ff97fc8e8be332192d" target="_top" xlink:title="Disallow all inventory mode windows. ">
<polygon fill="white" stroke="black" points="681,-392 681,-422 813,-422 813,-392 681,-392"/>
<text text-anchor="start" x="689" y="-410" font-family="FreeSans" font-size="10.00">MWGui::WindowManager</text>
<text text-anchor="middle" x="747" y="-399" font-family="FreeSans" font-size="10.00">::disallowAll</text>
</a>
</g>
</g>
<!-- Node6&#45;&gt;Node29 -->
<g id="edge28" class="edge"><title>Node6&#45;&gt;Node29</title>
<path fill="none" stroke="midnightblue" d="M617.377,-352.621C636.085,-361.928 659.024,-372.96 680,-382 687.877,-385.394 696.381,-388.802 704.58,-391.961"/>
<polygon fill="midnightblue" stroke="midnightblue" points="618.796,-349.418 608.287,-348.07 615.662,-355.677 618.796,-349.418"/>
</g>
<!-- Node30 -->
<g id="node30" class="node"><title>Node30</title>
<g id="a_node30"><a xlink:href="classMWGui_1_1WindowManager.html#a19dfd4c859d0d058631664bdb3317d58" target="_top" xlink:title="MWGui::WindowManager\l::toggleVisible">
<polygon fill="white" stroke="black" points="681,-294 681,-324 813,-324 813,-294 681,-294"/>
<text text-anchor="start" x="689" y="-312" font-family="FreeSans" font-size="10.00">MWGui::WindowManager</text>
<text text-anchor="middle" x="747" y="-301" font-family="FreeSans" font-size="10.00">::toggleVisible</text>
</a>
</g>
</g>
<!-- Node6&#45;&gt;Node30 -->
<g id="edge30" class="edge"><title>Node6&#45;&gt;Node30</title>
<path fill="none" stroke="midnightblue" d="M654.061,-322.213C663.002,-320.928 672.072,-319.624 680.858,-318.362"/>
<polygon fill="midnightblue" stroke="midnightblue" points="653.445,-318.765 644.045,-323.652 654.441,-325.694 653.445,-318.765"/>
</g>
<!-- Node31 -->
<g id="node31" class="node"><title>Node31</title>
<g id="a_node31"><a xlink:href="classMWGui_1_1WindowManager.html#a8c06ac694968e2167fd0180621c5fde1" target="_top" xlink:title="MWGui::WindowManager\l::forceHide">
<polygon fill="white" stroke="black" points="681,-196 681,-226 813,-226 813,-196 681,-196"/>
<text text-anchor="start" x="689" y="-214" font-family="FreeSans" font-size="10.00">MWGui::WindowManager</text>
<text text-anchor="middle" x="747" y="-203" font-family="FreeSans" font-size="10.00">::forceHide</text>
</a>
</g>
</g>
<!-- Node6&#45;&gt;Node31 -->
<g id="edge31" class="edge"><title>Node6&#45;&gt;Node31</title>
<path fill="none" stroke="midnightblue" d="M597.747,-309.851C616.543,-287.951 647.318,-255.469 680,-235 685.373,-231.635 691.287,-228.646 697.299,-226.021"/>
<polygon fill="midnightblue" stroke="midnightblue" points="594.917,-307.777 591.15,-317.68 600.271,-312.288 594.917,-307.777"/>
</g>
<!-- Node33 -->
<g id="node33" class="node"><title>Node33</title>
<g id="a_node33"><a xlink:href="classMWGui_1_1WindowManager.html#ae9b8cc0be0202b8db35cde4268a5980f" target="_top" xlink:title="MWGui::WindowManager\l::unsetForceHide">
<polygon fill="white" stroke="black" points="681,-343 681,-373 813,-373 813,-343 681,-343"/>
<text text-anchor="start" x="689" y="-361" font-family="FreeSans" font-size="10.00">MWGui::WindowManager</text>
<text text-anchor="middle" x="747" y="-350" font-family="FreeSans" font-size="10.00">::unsetForceHide</text>
</a>
</g>
</g>
<!-- Node6&#45;&gt;Node33 -->
<g id="edge33" class="edge"><title>Node6&#45;&gt;Node33</title>
<path fill="none" stroke="midnightblue" d="M654.061,-344.237C663.002,-345.575 672.072,-346.933 680.858,-348.248"/>
<polygon fill="midnightblue" stroke="midnightblue" points="654.453,-340.756 644.045,-342.737 653.416,-347.679 654.453,-340.756"/>
</g>
<!-- Node34 -->
<g id="node34" class="node"><title>Node34</title>
<g id="a_node34"><a xlink:href="classMWGui_1_1WindowManager.html#a905661719f4bec66a53d06005ee4c185" target="_top" xlink:title="Turn visibility of all GUI elements on or off (HUD and all windows, except the console) ...">
<polygon fill="white" stroke="black" points="681,-147 681,-177 813,-177 813,-147 681,-147"/>
<text text-anchor="start" x="689" y="-165" font-family="FreeSans" font-size="10.00">MWGui::WindowManager</text>
<text text-anchor="middle" x="747" y="-154" font-family="FreeSans" font-size="10.00">::toggleGui</text>
</a>
</g>
</g>
<!-- Node6&#45;&gt;Node34 -->
<g id="edge35" class="edge"><title>Node6&#45;&gt;Node34</title>
<path fill="none" stroke="midnightblue" d="M589.85,-308.576C605.396,-276.21 636.953,-219.325 680,-186 684.435,-182.567 689.407,-179.592 694.58,-177.023"/>
<polygon fill="midnightblue" stroke="midnightblue" points="586.611,-307.239 585.545,-317.78 592.952,-310.205 586.611,-307.239"/>
</g>
<!-- Node35 -->
<g id="node35" class="node"><title>Node35</title>
<g id="a_node35"><a xlink:href="classMWGui_1_1WindowManager.html#afb89d5bc0e8f5c530bc1e40e151877c1" target="_top" xlink:title="MWGui::WindowManager\l::showSoulgemDialog">
<polygon fill="white" stroke="black" points="681,-98 681,-128 813,-128 813,-98 681,-98"/>
<text text-anchor="start" x="689" y="-116" font-family="FreeSans" font-size="10.00">MWGui::WindowManager</text>
<text text-anchor="middle" x="747" y="-105" font-family="FreeSans" font-size="10.00">::showSoulgemDialog</text>
</a>
</g>
</g>
<!-- Node6&#45;&gt;Node35 -->
<g id="edge36" class="edge"><title>Node6&#45;&gt;Node35</title>
<path fill="none" stroke="midnightblue" d="M593.632,-309.378C607.361,-286.808 628.103,-251.638 644,-220 662.053,-184.071 650.721,-164.56 680,-137 683.64,-133.574 687.807,-130.629 692.239,-128.1"/>
<polygon fill="midnightblue" stroke="midnightblue" points="590.623,-307.59 588.388,-317.947 596.593,-311.244 590.623,-307.59"/>
</g>
<!-- Node36 -->
<g id="node36" class="node"><title>Node36</title>
<g id="a_node36"><a xlink:href="classMWGui_1_1WindowManager.html#a9825efe2509280a4e509c80fdb140513" target="_top" xlink:title="Clear all savegame&#45;specific data. ">
<polygon fill="white" stroke="black" points="681,-49 681,-79 813,-79 813,-49 681,-49"/>
<text text-anchor="start" x="689" y="-67" font-family="FreeSans" font-size="10.00">MWGui::WindowManager</text>
<text text-anchor="middle" x="747" y="-56" font-family="FreeSans" font-size="10.00">::clear</text>
</a>
</g>
</g>
<!-- Node6&#45;&gt;Node36 -->
<g id="edge37" class="edge"><title>Node6&#45;&gt;Node36</title>
<path fill="none" stroke="midnightblue" d="M594.921,-309.48C609.389,-287.236 630.48,-252.509 644,-220 667.351,-163.853 638.811,-132.736 680,-88 683.138,-84.5916 686.799,-81.6662 690.758,-79.1556"/>
<polygon fill="midnightblue" stroke="midnightblue" points="591.935,-307.65 589.355,-317.926 597.78,-311.502 591.935,-307.65"/>
</g>
<!-- Node37 -->
<g id="node37" class="node"><title>Node37</title>
<g id="a_node37"><a xlink:href="classMWGui_1_1WindowManager.html#a2ebf9d8952c285e995a7a3681bfb2c30" target="_top" xlink:title="MWGui::WindowManager\l::pinWindow">
<polygon fill="white" stroke="black" points="681,-0 681,-30 813,-30 813,-0 681,-0"/>
<text text-anchor="start" x="689" y="-18" font-family="FreeSans" font-size="10.00">MWGui::WindowManager</text>
<text text-anchor="middle" x="747" y="-7" font-family="FreeSans" font-size="10.00">::pinWindow</text>
</a>
</g>
</g>
<!-- Node6&#45;&gt;Node37 -->
<g id="edge38" class="edge"><title>Node6&#45;&gt;Node37</title>
<path fill="none" stroke="midnightblue" d="M595.701,-309.314C610.528,-287.2 631.695,-252.775 644,-220 672.83,-143.214 626.588,-101.245 680,-39 682.938,-35.5765 686.405,-32.6412 690.187,-30.1246"/>
<polygon fill="midnightblue" stroke="midnightblue" points="592.714,-307.482 589.974,-317.717 598.498,-311.425 592.714,-307.482"/>
</g>
<!-- Node8 -->
<g id="node8" class="node"><title>Node8</title>
<g id="a_node8"><a xlink:href="classOMW_1_1Engine.html#a9edab665083b0f5db2cda761f3e9c2c3" target="_top" xlink:title="Prepare engine for game play. ">
<polygon fill="white" stroke="black" points="850,-980.5 850,-999.5 1004,-999.5 1004,-980.5 850,-980.5"/>
<text text-anchor="middle" x="927" y="-987.5" font-family="FreeSans" font-size="10.00">OMW::Engine::prepareEngine</text>
</a>
</g>
</g>
<!-- Node7&#45;&gt;Node8 -->
<g id="edge7" class="edge"><title>Node7&#45;&gt;Node8</title>
<path fill="none" stroke="midnightblue" d="M761.301,-869.216C778.191,-897.671 810.005,-944.26 850,-970 856.769,-974.356 864.455,-977.767 872.275,-980.437"/>
<polygon fill="midnightblue" stroke="midnightblue" points="764.191,-867.222 756.155,-860.317 758.132,-870.726 764.191,-867.222"/>
</g>
<!-- Node11 -->
<g id="node11" class="node"><title>Node11</title>
<g id="a_node11"><a xlink:href="classMWGui_1_1WindowManager.html#a601bb982ab0708ae59f272cf67cfd9e7" target="_top" xlink:title="MWGui::WindowManager\l::goToJail">
<polygon fill="white" stroke="black" points="861,-735 861,-765 993,-765 993,-735 861,-735"/>
<text text-anchor="start" x="869" y="-753" font-family="FreeSans" font-size="10.00">MWGui::WindowManager</text>
<text text-anchor="middle" x="927" y="-742" font-family="FreeSans" font-size="10.00">::goToJail</text>
</a>
</g>
</g>
<!-- Node10&#45;&gt;Node11 -->
<g id="edge10" class="edge"><title>Node10&#45;&gt;Node11</title>
<path fill="none" stroke="midnightblue" d="M809.472,-623.936C811.06,-625.212 812.575,-626.566 814,-628 846.407,-660.625 816.879,-693.101 850,-725 854.002,-728.854 858.609,-732.114 863.533,-734.872"/>
<polygon fill="midnightblue" stroke="midnightblue" points="811.24,-620.905 801.004,-618.169 807.299,-626.691 811.24,-620.905"/>
</g>
<!-- Node12 -->
<g id="node12" class="node"><title>Node12</title>
<g id="a_node12"><a xlink:href="classMWGui_1_1WindowManager.html#ab27b3a1d079d81ff649d0a301d781b95" target="_top" xlink:title="MWGui::WindowManager\l::startSpellMaking">
<polygon fill="white" stroke="black" points="861,-686 861,-716 993,-716 993,-686 861,-686"/>
<text text-anchor="start" x="869" y="-704" font-family="FreeSans" font-size="10.00">MWGui::WindowManager</text>
<text text-anchor="middle" x="927" y="-693" font-family="FreeSans" font-size="10.00">::startSpellMaking</text>
</a>
</g>
</g>
<!-- Node10&#45;&gt;Node12 -->
<g id="edge11" class="edge"><title>Node10&#45;&gt;Node12</title>
<path fill="none" stroke="midnightblue" d="M806.193,-622.799C808.913,-624.414 811.533,-626.145 814,-628 835.314,-644.025 828.336,-660.451 850,-676 855.304,-679.807 861.221,-683.058 867.349,-685.83"/>
<polygon fill="midnightblue" stroke="midnightblue" points="807.707,-619.64 797.235,-618.03 804.418,-625.819 807.707,-619.64"/>
</g>
<!-- Node13 -->
<g id="node13" class="node"><title>Node13</title>
<g id="a_node13"><a xlink:href="classMWGui_1_1WindowManager.html#a169ee28e16d96b8e085726ad4c095880" target="_top" xlink:title="MWGui::WindowManager\l::startEnchanting">
<polygon fill="white" stroke="black" points="861,-637 861,-667 993,-667 993,-637 861,-637"/>
<text text-anchor="start" x="869" y="-655" font-family="FreeSans" font-size="10.00">MWGui::WindowManager</text>
<text text-anchor="middle" x="927" y="-644" font-family="FreeSans" font-size="10.00">::startEnchanting</text>
</a>
</g>
</g>
<!-- Node10&#45;&gt;Node13 -->
<g id="edge12" class="edge"><title>Node10&#45;&gt;Node13</title>
<path fill="none" stroke="midnightblue" d="M812.738,-620.821C831.957,-626.112 852.81,-631.852 871.323,-636.948"/>
<polygon fill="midnightblue" stroke="midnightblue" points="813.429,-617.381 802.858,-618.101 811.571,-624.13 813.429,-617.381"/>
</g>
<!-- Node14 -->
<g id="node14" class="node"><title>Node14</title>
<g id="a_node14"><a xlink:href="classMWGui_1_1WindowManager.html#acb3621cc1a80db64e1ac0b9352233a73" target="_top" xlink:title="MWGui::WindowManager\l::startTraining">
<polygon fill="white" stroke="black" points="861,-588 861,-618 993,-618 993,-588 861,-588"/>
<text text-anchor="start" x="869" y="-606" font-family="FreeSans" font-size="10.00">MWGui::WindowManager</text>
<text text-anchor="middle" x="927" y="-595" font-family="FreeSans" font-size="10.00">::startTraining</text>
</a>
</g>
</g>
<!-- Node10&#45;&gt;Node14 -->
<g id="edge13" class="edge"><title>Node10&#45;&gt;Node14</title>
<path fill="none" stroke="midnightblue" d="M823.38,-603C835.845,-603 848.675,-603 860.861,-603"/>
<polygon fill="midnightblue" stroke="midnightblue" points="823.018,-599.5 813.018,-603 823.018,-606.5 823.018,-599.5"/>
</g>
<!-- Node15 -->
<g id="node15" class="node"><title>Node15</title>
<g id="a_node15"><a xlink:href="classMWGui_1_1WindowManager.html#aade231b3374027ad04211629868f83bf" target="_top" xlink:title="MWGui::WindowManager\l::startRepair">
<polygon fill="white" stroke="black" points="861,-539 861,-569 993,-569 993,-539 861,-539"/>
<text text-anchor="start" x="869" y="-557" font-family="FreeSans" font-size="10.00">MWGui::WindowManager</text>
<text text-anchor="middle" x="927" y="-546" font-family="FreeSans" font-size="10.00">::startRepair</text>
</a>
</g>
</g>
<!-- Node10&#45;&gt;Node15 -->
<g id="edge14" class="edge"><title>Node10&#45;&gt;Node15</title>
<path fill="none" stroke="midnightblue" d="M812.738,-585.179C831.957,-579.888 852.81,-574.148 871.323,-569.052"/>
<polygon fill="midnightblue" stroke="midnightblue" points="811.571,-581.87 802.858,-587.899 813.429,-588.619 811.571,-581.87"/>
</g>
<!-- Node16 -->
<g id="node16" class="node"><title>Node16</title>
<g id="a_node16"><a xlink:href="classMWGui_1_1WindowManager.html#a2c4b9b3d62012f7a1e4bf23a7205f734" target="_top" xlink:title="MWGui::WindowManager\l::startRepairItem">
<polygon fill="white" stroke="black" points="861,-490 861,-520 993,-520 993,-490 861,-490"/>
<text text-anchor="start" x="869" y="-508" font-family="FreeSans" font-size="10.00">MWGui::WindowManager</text>
<text text-anchor="middle" x="927" y="-497" font-family="FreeSans" font-size="10.00">::startRepairItem</text>
</a>
</g>
</g>
<!-- Node10&#45;&gt;Node16 -->
<g id="edge15" class="edge"><title>Node10&#45;&gt;Node16</title>
<path fill="none" stroke="midnightblue" d="M773.636,-581.288C793.457,-565.363 822.132,-544.138 850,-530 857.308,-526.292 865.285,-522.966 873.233,-520.042"/>
<polygon fill="midnightblue" stroke="midnightblue" points="771.248,-578.72 765.712,-587.753 775.673,-584.144 771.248,-578.72"/>
</g>
<!-- Node17 -->
<g id="node17" class="node"><title>Node17</title>
<g id="a_node17"><a xlink:href="classMWGui_1_1WindowManager.html#a678823d516ff55e041cc33a93f3add8c" target="_top" xlink:title="MWGui::WindowManager\l::showCompanionWindow">
<polygon fill="white" stroke="black" points="858.5,-441 858.5,-471 995.5,-471 995.5,-441 858.5,-441"/>
<text text-anchor="start" x="866.5" y="-459" font-family="FreeSans" font-size="10.00">MWGui::WindowManager</text>
<text text-anchor="middle" x="927" y="-448" font-family="FreeSans" font-size="10.00">::showCompanionWindow</text>
</a>
</g>
</g>
<!-- Node10&#45;&gt;Node17 -->
<g id="edge16" class="edge"><title>Node10&#45;&gt;Node17</title>
<path fill="none" stroke="midnightblue" d="M769.183,-580.264C782.388,-565.845 799.556,-546.647 814,-529 830.89,-508.364 828.336,-496.549 850,-481 855.304,-477.193 861.221,-473.942 867.349,-471.17"/>
<polygon fill="midnightblue" stroke="midnightblue" points="766.496,-578.015 762.297,-587.743 771.645,-582.757 766.496,-578.015"/>
</g>
<!-- Node18 -->
<g id="node18" class="node"><title>Node18</title>
<g id="a_node18"><a xlink:href="classMWGui_1_1WindowManager.html#ad9a458d0b83ce7784c76194f41534454" target="_top" xlink:title="MWGui::WindowManager\l::startTravel">
<polygon fill="white" stroke="black" points="861,-392 861,-422 993,-422 993,-392 861,-392"/>
<text text-anchor="start" x="869" y="-410" font-family="FreeSans" font-size="10.00">MWGui::WindowManager</text>
<text text-anchor="middle" x="927" y="-399" font-family="FreeSans" font-size="10.00">::startTravel</text>
</a>
</g>
</g>
<!-- Node10&#45;&gt;Node18 -->
<g id="edge17" class="edge"><title>Node10&#45;&gt;Node18</title>
<path fill="none" stroke="midnightblue" d="M771.882,-580.795C785.667,-566.957 802.496,-548.183 814,-529 837.864,-489.205 816.441,-463.045 850,-431 853.603,-427.56 857.695,-424.613 862.068,-422.088"/>
<polygon fill="midnightblue" stroke="midnightblue" points="769.279,-578.446 764.59,-587.947 774.181,-583.444 769.279,-578.446"/>
</g>
<!-- Node19 -->
<g id="node19" class="node"><title>Node19</title>
<g id="a_node19"><a xlink:href="classMWGui_1_1WindowManager.html#a0d6f0bf76209bdcc312f2fc983b1b542" target="_top" xlink:title="MWGui::WindowManager\l::startSpellBuying">
<polygon fill="white" stroke="black" points="861,-343 861,-373 993,-373 993,-343 861,-343"/>
<text text-anchor="start" x="869" y="-361" font-family="FreeSans" font-size="10.00">MWGui::WindowManager</text>
<text text-anchor="middle" x="927" y="-350" font-family="FreeSans" font-size="10.00">::startSpellBuying</text>
</a>
</g>
</g>
<!-- Node10&#45;&gt;Node19 -->
<g id="edge18" class="edge"><title>Node10&#45;&gt;Node19</title>
<path fill="none" stroke="midnightblue" d="M773.225,-580.706C787.177,-567.074 803.722,-548.539 814,-529 845.314,-469.47 804.025,-431.1 850,-382 853.216,-378.566 856.917,-375.621 860.92,-373.095"/>
<polygon fill="midnightblue" stroke="midnightblue" points="770.644,-578.33 765.796,-587.75 775.461,-583.409 770.644,-578.33"/>
</g>
<!-- Node20 -->
<g id="node20" class="node"><title>Node20</title>
<g id="a_node20"><a xlink:href="classMWGui_1_1WindowManager.html#a4b7027f6a09b5ab6a55cd57862afc16d" target="_top" xlink:title="MWGui::WindowManager\l::startTrade">
<polygon fill="white" stroke="black" points="861,-931 861,-961 993,-961 993,-931 861,-931"/>
<text text-anchor="start" x="869" y="-949" font-family="FreeSans" font-size="10.00">MWGui::WindowManager</text>
<text text-anchor="middle" x="927" y="-938" font-family="FreeSans" font-size="10.00">::startTrade</text>
</a>
</g>
</g>
<!-- Node10&#45;&gt;Node20 -->
<g id="edge19" class="edge"><title>Node10&#45;&gt;Node20</title>
<path fill="none" stroke="midnightblue" d="M810.977,-624.557C812.044,-625.648 813.054,-626.795 814,-628 895.009,-731.206 766.726,-819.613 850,-921 853.174,-924.864 856.958,-928.136 861.118,-930.905"/>
<polygon fill="midnightblue" stroke="midnightblue" points="813.142,-621.806 803.206,-618.126 808.678,-627.198 813.142,-621.806"/>
</g>
<!-- Node21 -->
<g id="node21" class="node"><title>Node21</title>
<g id="a_node21"><a xlink:href="classMWGui_1_1WindowManager.html#aad6ad9c6fd5953271278ae322ba590dd" target="_top" xlink:title="MWGui::WindowManager\l::openContainer">
<polygon fill="white" stroke="black" points="861,-882 861,-912 993,-912 993,-882 861,-882"/>
<text text-anchor="start" x="869" y="-900" font-family="FreeSans" font-size="10.00">MWGui::WindowManager</text>
<text text-anchor="middle" x="927" y="-889" font-family="FreeSans" font-size="10.00">::openContainer</text>
</a>
</g>
</g>
<!-- Node10&#45;&gt;Node21 -->
<g id="edge20" class="edge"><title>Node10&#45;&gt;Node21</title>
<path fill="none" stroke="midnightblue" d="M810.937,-624.588C812.016,-625.67 813.04,-626.807 814,-628 882.722,-713.402 779.404,-788.141 850,-872 853.22,-875.825 857.038,-879.069 861.221,-881.819"/>
<polygon fill="midnightblue" stroke="midnightblue" points="813.069,-621.811 803.107,-618.205 808.646,-627.236 813.069,-621.811"/>
</g>
<!-- Node22 -->
<g id="node22" class="node"><title>Node22</title>
<g id="a_node22"><a xlink:href="classMWGui_1_1WindowManager.html#a640e56036082e46aad138012cc3e364e" target="_top" xlink:title="MWGui::WindowManager\l::showBook">
<polygon fill="white" stroke="black" points="861,-833 861,-863 993,-863 993,-833 861,-833"/>
<text text-anchor="start" x="869" y="-851" font-family="FreeSans" font-size="10.00">MWGui::WindowManager</text>
<text text-anchor="middle" x="927" y="-840" font-family="FreeSans" font-size="10.00">::showBook</text>
</a>
</g>
</g>
<!-- Node10&#45;&gt;Node22 -->
<g id="edge21" class="edge"><title>Node10&#45;&gt;Node22</title>
<path fill="none" stroke="midnightblue" d="M810.797,-624.556C811.923,-625.648 812.994,-626.795 814,-628 870.481,-695.654 792.035,-756.614 850,-823 853.38,-826.871 857.371,-830.146 861.725,-832.915"/>
<polygon fill="midnightblue" stroke="midnightblue" points="812.668,-621.573 802.651,-618.121 808.329,-627.067 812.668,-621.573"/>
</g>
<!-- Node23 -->
<g id="node23" class="node"><title>Node23</title>
<g id="a_node23"><a xlink:href="classMWGui_1_1WindowManager.html#aba92b46f5e255bdc1b11540f0cf7b239" target="_top" xlink:title="MWGui::WindowManager\l::showScroll">
<polygon fill="white" stroke="black" points="861,-784 861,-814 993,-814 993,-784 861,-784"/>
<text text-anchor="start" x="869" y="-802" font-family="FreeSans" font-size="10.00">MWGui::WindowManager</text>
<text text-anchor="middle" x="927" y="-791" font-family="FreeSans" font-size="10.00">::showScroll</text>
</a>
</g>
</g>
<!-- Node10&#45;&gt;Node23 -->
<g id="edge22" class="edge"><title>Node10&#45;&gt;Node23</title>
<path fill="none" stroke="midnightblue" d="M810.26,-624.234C811.576,-625.422 812.827,-626.676 814,-628 858.33,-678.014 804.573,-724.98 850,-774 853.588,-777.871 857.785,-781.144 862.331,-783.911"/>
<polygon fill="midnightblue" stroke="midnightblue" points="812.202,-621.316 802.097,-618.129 808.009,-626.921 812.202,-621.316"/>
</g>
<!-- Node26 -->
<g id="node26" class="node"><title>Node26</title>
<g id="a_node26"><a xlink:href="classMWGui_1_1WindowManager.html#a1d29eb164660e2bd45cb5641a90ac867" target="_top" xlink:title="Gracefully attempts to exit the topmost GUI mode. ">
<polygon fill="white" stroke="black" points="861,-294 861,-324 993,-324 993,-294 861,-294"/>
<text text-anchor="start" x="869" y="-312" font-family="FreeSans" font-size="10.00">MWGui::WindowManager</text>
<text text-anchor="middle" x="927" y="-301" font-family="FreeSans" font-size="10.00">::exitCurrentGuiMode</text>
</a>
</g>
</g>
<!-- Node25&#45;&gt;Node26 -->
<g id="edge25" class="edge"><title>Node25&#45;&gt;Node26</title>
<path fill="none" stroke="midnightblue" d="M809.478,-435.071C811.064,-433.792 812.578,-432.437 814,-431 846.646,-398.025 816.441,-365.045 850,-333 853.603,-329.56 857.695,-326.613 862.068,-324.088"/>
<polygon fill="midnightblue" stroke="midnightblue" points="807.305,-432.316 801.017,-440.844 811.25,-438.098 807.305,-432.316"/>
</g>
<!-- Node28 -->
<g id="node28" class="node"><title>Node28</title>
<g id="a_node28"><a xlink:href="classMWGui_1_1WindowManager.html#a924de31f311b3a886d4b9fb8ba9806c6" target="_top" xlink:title="MWGui::WindowManager\l::setNewGame">
<polygon fill="white" stroke="black" points="861,-245 861,-275 993,-275 993,-245 861,-245"/>
<text text-anchor="start" x="869" y="-263" font-family="FreeSans" font-size="10.00">MWGui::WindowManager</text>
<text text-anchor="middle" x="927" y="-252" font-family="FreeSans" font-size="10.00">::setNewGame</text>
</a>
</g>
</g>
<!-- Node27&#45;&gt;Node28 -->
<g id="edge27" class="edge"><title>Node27&#45;&gt;Node28</title>
<path fill="none" stroke="midnightblue" d="M823.38,-260C835.845,-260 848.675,-260 860.861,-260"/>
<polygon fill="midnightblue" stroke="midnightblue" points="823.018,-256.5 813.018,-260 823.018,-263.5 823.018,-256.5"/>
</g>
<!-- Node29&#45;&gt;Node28 -->
<g id="edge29" class="edge"><title>Node29&#45;&gt;Node28</title>
<path fill="none" stroke="midnightblue" d="M809.478,-386.071C811.064,-384.792 812.578,-383.437 814,-382 846.646,-349.025 816.441,-316.045 850,-284 853.603,-280.56 857.695,-277.613 862.068,-275.088"/>
<polygon fill="midnightblue" stroke="midnightblue" points="807.305,-383.316 801.017,-391.844 811.25,-389.098 807.305,-383.316"/>
</g>
<!-- Node32 -->
<g id="node32" class="node"><title>Node32</title>
<g id="a_node32"><a xlink:href="classMWGui_1_1WindowManager.html#a0473842e2a7a08cf0b0e0e9d7e70be8e" target="_top" xlink:title="MWGui::WindowManager\l::updatePlayer">
<polygon fill="white" stroke="black" points="861,-196 861,-226 993,-226 993,-196 861,-196"/>
<text text-anchor="start" x="869" y="-214" font-family="FreeSans" font-size="10.00">MWGui::WindowManager</text>
<text text-anchor="middle" x="927" y="-203" font-family="FreeSans" font-size="10.00">::updatePlayer</text>
</a>
</g>
</g>
<!-- Node31&#45;&gt;Node32 -->
<g id="edge32" class="edge"><title>Node31&#45;&gt;Node32</title>
<path fill="none" stroke="midnightblue" d="M823.38,-211C835.845,-211 848.675,-211 860.861,-211"/>
<polygon fill="midnightblue" stroke="midnightblue" points="823.018,-207.5 813.018,-211 823.018,-214.5 823.018,-207.5"/>
</g>
<!-- Node33&#45;&gt;Node28 -->
<g id="edge34" class="edge"><title>Node33&#45;&gt;Node28</title>
<path fill="none" stroke="midnightblue" d="M806.629,-337.982C809.195,-336.431 811.667,-334.772 814,-333 835.519,-316.654 828.03,-299.735 850,-284 854.837,-280.536 860.194,-277.558 865.758,-275.001"/>
<polygon fill="midnightblue" stroke="midnightblue" points="804.748,-335.021 797.613,-342.853 808.075,-341.18 804.748,-335.021"/>
</g>
<!-- Node38&#45;&gt;Node2 -->
<g id="edge40" class="edge"><title>Node38&#45;&gt;Node2</title>
<path fill="none" stroke="midnightblue" d="M291.776,-178.526C304.915,-175.398 318.837,-172.62 332,-171 395.52,-163.18 412.47,-163.254 476,-171 492.676,-173.033 510.565,-176.888 526.585,-180.974"/>
<polygon fill="midnightblue" stroke="midnightblue" points="290.77,-175.17 281.907,-180.974 292.455,-181.964 290.77,-175.17"/>
</g>
<!-- Node39 -->
<g id="node39" class="node"><title>Node39</title>
<g id="a_node39"><a xlink:href="classMWGui_1_1PickClassDialog.html#a791124b0762ecfad9a464773be5effb4" target="_top" xlink:title="MWGui::PickClassDialog\l::onAccept">
<polygon fill="white" stroke="black" points="339.5,-181 339.5,-211 468.5,-211 468.5,-181 339.5,-181"/>
<text text-anchor="start" x="347.5" y="-199" font-family="FreeSans" font-size="10.00">MWGui::PickClassDialog</text>
<text text-anchor="middle" x="404" y="-188" font-family="FreeSans" font-size="10.00">::onAccept</text>
</a>
</g>
</g>
<!-- Node38&#45;&gt;Node39 -->
<g id="edge41" class="edge"><title>Node38&#45;&gt;Node39</title>
<path fill="none" stroke="midnightblue" d="M305.809,-196C316.953,-196 328.366,-196 339.273,-196"/>
<polygon fill="midnightblue" stroke="midnightblue" points="305.674,-192.5 295.674,-196 305.674,-199.5 305.674,-192.5"/>
</g>
<!-- Node39&#45;&gt;Node2 -->
<g id="edge42" class="edge"><title>Node39&#45;&gt;Node2</title>
<path fill="none" stroke="midnightblue" d="M478.631,-196C490.209,-196 502.091,-196 513.416,-196"/>
<polygon fill="midnightblue" stroke="midnightblue" points="478.558,-192.5 468.558,-196 478.558,-199.5 478.558,-192.5"/>
</g>
</g>
</svg>
