<?xml version="1.0" encoding="UTF-8" standalone="no"?>
<!DOCTYPE svg PUBLIC "-//W3C//DTD SVG 1.1//EN"
 "http://www.w3.org/Graphics/SVG/1.1/DTD/svg11.dtd">
<!-- Generated by graphviz version 2.36.0 (20140111.2315)
 -->
<!-- Title: MWGui::HUD::onWorldMouseLostFocus Pages: 1 -->
<svg width="342pt" height="126pt"
 viewBox="0.00 0.00 342.00 126.00" xmlns="http://www.w3.org/2000/svg" xmlns:xlink="http://www.w3.org/1999/xlink">
<g id="graph0" class="graph" transform="scale(1 1) rotate(0) translate(4 122)">
<title>MWGui::HUD::onWorldMouseLostFocus</title>
<polygon fill="white" stroke="none" points="-4,4 -4,-122 338,-122 338,4 -4,4"/>
<!-- Node1 -->
<g id="node1" class="node"><title>Node1</title>
<polygon fill="#bfbfbf" stroke="black" points="0,-49 0,-79 152,-79 152,-49 0,-49"/>
<text text-anchor="start" x="8" y="-67" font-family="FreeSans" font-size="10.00">MWGui::HUD::onWorldMouse</text>
<text text-anchor="middle" x="76" y="-56" font-family="FreeSans" font-size="10.00">LostFocus</text>
</g>
<!-- Node2 -->
<g id="node2" class="node"><title>Node2</title>
<g id="a_node2"><a xlink:href="classMWBase_1_1Environment.html#a73f12633762b049c03c80fe215873faa" target="_top" xlink:title="Return instance of this class. ">
<polygon fill="white" stroke="black" points="188,-98.5 188,-117.5 334,-117.5 334,-98.5 188,-98.5"/>
<text text-anchor="middle" x="261" y="-105.5" font-family="FreeSans" font-size="10.00">MWBase::Environment::get</text>
</a>
</g>
</g>
<!-- Node1&#45;&gt;Node2 -->
<g id="edge1" class="edge"><title>Node1&#45;&gt;Node2</title>
<path fill="none" stroke="midnightblue" d="M139.466,-79.0192C162.722,-84.6108 188.769,-90.8735 210.684,-96.1426"/>
<polygon fill="midnightblue" stroke="midnightblue" points="209.896,-99.5528 220.437,-98.4876 211.532,-92.7467 209.896,-99.5528"/>
</g>
<!-- Node3 -->
<g id="node3" class="node"><title>Node3</title>
<g id="a_node3"><a xlink:href="classMWBase_1_1Environment.html#aeeef9a580df0312f0a9b7380488dea21" target="_top" xlink:title="MWBase::Environment\l::getWindowManager">
<polygon fill="white" stroke="black" points="199,-49 199,-79 323,-79 323,-49 199,-49"/>
<text text-anchor="start" x="207" y="-67" font-family="FreeSans" font-size="10.00">MWBase::Environment</text>
<text text-anchor="middle" x="261" y="-56" font-family="FreeSans" font-size="10.00">::getWindowManager</text>
</a>
</g>
</g>
<!-- Node1&#45;&gt;Node3 -->
<g id="edge2" class="edge"><title>Node1&#45;&gt;Node3</title>
<path fill="none" stroke="midnightblue" d="M152.225,-64C164.196,-64 176.551,-64 188.434,-64"/>
<polygon fill="midnightblue" stroke="midnightblue" points="188.734,-67.5001 198.734,-64 188.734,-60.5001 188.734,-67.5001"/>
</g>
<!-- Node4 -->
<g id="node4" class="node"><title>Node4</title>
<g id="a_node4"><a xlink:href="classMWBase_1_1WindowManager.html#a9119af297460b3835036dc70fe9322cf" target="_top" xlink:title="MWBase::WindowManager\l::changePointer">
<polygon fill="white" stroke="black" points="191,-0 191,-30 331,-30 331,-0 191,-0"/>
<text text-anchor="start" x="199" y="-18" font-family="FreeSans" font-size="10.00">MWBase::WindowManager</text>
<text text-anchor="middle" x="261" y="-7" font-family="FreeSans" font-size="10.00">::changePointer</text>
</a>
</g>
</g>
<!-- Node1&#45;&gt;Node4 -->
<g id="edge3" class="edge"><title>Node1&#45;&gt;Node4</title>
<path fill="none" stroke="midnightblue" d="M133.399,-48.8986C152.535,-43.7747 174.086,-38.0044 193.908,-32.6968"/>
<polygon fill="midnightblue" stroke="midnightblue" points="195.033,-36.019 203.787,-30.0516 193.222,-29.2572 195.033,-36.019"/>
</g>
</g>
</svg>
