<?xml version="1.0" encoding="UTF-8" standalone="no"?>
<!DOCTYPE svg PUBLIC "-//W3C//DTD SVG 1.1//EN"
 "http://www.w3.org/Graphics/SVG/1.1/DTD/svg11.dtd">
<!-- Generated by graphviz version 2.36.0 (20140111.2315)
 -->
<!-- Title: MWWorld::Class::isMobile Pages: 1 -->
<svg width="1096pt" height="136pt"
 viewBox="0.00 0.00 1096.00 136.00" xmlns="http://www.w3.org/2000/svg" xmlns:xlink="http://www.w3.org/1999/xlink">
<g id="graph0" class="graph" transform="scale(1 1) rotate(0) translate(4 132)">
<title>MWWorld::Class::isMobile</title>
<polygon fill="white" stroke="none" points="-4,4 -4,-132 1092,-132 1092,4 -4,4"/>
<!-- Node1 -->
<g id="node1" class="node"><title>Node1</title>
<polygon fill="#bfbfbf" stroke="black" points="0,-54.5 0,-73.5 134,-73.5 134,-54.5 0,-54.5"/>
<text text-anchor="middle" x="67" y="-61.5" font-family="FreeSans" font-size="10.00">MWWorld::Class::isMobile</text>
</g>
<!-- Node2 -->
<g id="node2" class="node"><title>Node2</title>
<g id="a_node2"><a xlink:href="classMWClass_1_1Creature.html#a2b05916462047e35be6006ab8698a36b" target="_top" xlink:title="MWClass::Creature::\lonHit">
<polygon fill="white" stroke="black" points="191.5,-98 191.5,-128 304.5,-128 304.5,-98 191.5,-98"/>
<text text-anchor="start" x="199.5" y="-116" font-family="FreeSans" font-size="10.00">MWClass::Creature::</text>
<text text-anchor="middle" x="248" y="-105" font-family="FreeSans" font-size="10.00">onHit</text>
</a>
</g>
</g>
<!-- Node1&#45;&gt;Node2 -->
<g id="edge1" class="edge"><title>Node1&#45;&gt;Node2</title>
<path fill="none" stroke="midnightblue" d="M112.851,-76.2776C136.874,-82.8537 166.666,-91.0092 192.069,-97.963"/>
<polygon fill="midnightblue" stroke="midnightblue" points="113.507,-72.8286 102.938,-73.564 111.659,-79.5802 113.507,-72.8286"/>
</g>
<!-- Node3 -->
<g id="node3" class="node"><title>Node3</title>
<g id="a_node3"><a xlink:href="classMWMechanics_1_1Actors.html#a499f6bbd42387ac60a06e80c78f41dc5" target="_top" xlink:title="MWMechanics::Actors\l::engageCombat">
<polygon fill="white" stroke="black" points="188,-49 188,-79 308,-79 308,-49 188,-49"/>
<text text-anchor="start" x="196" y="-67" font-family="FreeSans" font-size="10.00">MWMechanics::Actors</text>
<text text-anchor="middle" x="248" y="-56" font-family="FreeSans" font-size="10.00">::engageCombat</text>
</a>
</g>
</g>
<!-- Node1&#45;&gt;Node3 -->
<g id="edge2" class="edge"><title>Node1&#45;&gt;Node3</title>
<path fill="none" stroke="midnightblue" d="M144.177,-64C158.81,-64 173.928,-64 187.921,-64"/>
<polygon fill="midnightblue" stroke="midnightblue" points="144.144,-60.5001 134.144,-64 144.144,-67.5001 144.144,-60.5001"/>
</g>
<!-- Node6 -->
<g id="node6" class="node"><title>Node6</title>
<g id="a_node6"><a xlink:href="classMWPhysics_1_1MovementSolver.html#a610630c1cbbf96ffce24bba0ebc30b89" target="_top" xlink:title="MWPhysics::MovementSolver\l::move">
<polygon fill="white" stroke="black" points="170.5,-0 170.5,-30 325.5,-30 325.5,-0 170.5,-0"/>
<text text-anchor="start" x="178.5" y="-18" font-family="FreeSans" font-size="10.00">MWPhysics::MovementSolver</text>
<text text-anchor="middle" x="248" y="-7" font-family="FreeSans" font-size="10.00">::move</text>
</a>
</g>
</g>
<!-- Node1&#45;&gt;Node6 -->
<g id="edge5" class="edge"><title>Node1&#45;&gt;Node6</title>
<path fill="none" stroke="midnightblue" d="M112.851,-51.7224C136.874,-45.1463 166.666,-36.9908 192.069,-30.037"/>
<polygon fill="midnightblue" stroke="midnightblue" points="111.659,-48.4198 102.938,-54.436 113.507,-55.1714 111.659,-48.4198"/>
</g>
<!-- Node4 -->
<g id="node4" class="node"><title>Node4</title>
<g id="a_node4"><a xlink:href="classMWMechanics_1_1Actors.html#a1588180bba8597286a1db1389cee106e" target="_top" xlink:title="Update actor stats and store desired velocity vectors in movement. ">
<polygon fill="white" stroke="black" points="375,-49 375,-79 495,-79 495,-49 375,-49"/>
<text text-anchor="start" x="383" y="-67" font-family="FreeSans" font-size="10.00">MWMechanics::Actors</text>
<text text-anchor="middle" x="435" y="-56" font-family="FreeSans" font-size="10.00">::update</text>
</a>
</g>
</g>
<!-- Node3&#45;&gt;Node4 -->
<g id="edge3" class="edge"><title>Node3&#45;&gt;Node4</title>
<path fill="none" stroke="midnightblue" d="M318.237,-64C336.872,-64 356.854,-64 374.883,-64"/>
<polygon fill="midnightblue" stroke="midnightblue" points="318.044,-60.5001 308.044,-64 318.044,-67.5001 318.044,-60.5001"/>
</g>
<!-- Node5 -->
<g id="node5" class="node"><title>Node5</title>
<g id="a_node5"><a xlink:href="classMWMechanics_1_1MechanicsManager.html#acf3c8c25fff52b890d0d6ced4b456459" target="_top" xlink:title="MWMechanics::MechanicsManager\l::update">
<polygon fill="white" stroke="black" points="544,-49 544,-79 726,-79 726,-49 544,-49"/>
<text text-anchor="start" x="552" y="-67" font-family="FreeSans" font-size="10.00">MWMechanics::MechanicsManager</text>
<text text-anchor="middle" x="635" y="-56" font-family="FreeSans" font-size="10.00">::update</text>
</a>
</g>
</g>
<!-- Node4&#45;&gt;Node5 -->
<g id="edge4" class="edge"><title>Node4&#45;&gt;Node5</title>
<path fill="none" stroke="midnightblue" d="M505.358,-64C517.738,-64 530.799,-64 543.663,-64"/>
<polygon fill="midnightblue" stroke="midnightblue" points="505.138,-60.5001 495.138,-64 505.138,-67.5001 505.138,-60.5001"/>
</g>
<!-- Node7 -->
<g id="node7" class="node"><title>Node7</title>
<g id="a_node7"><a xlink:href="classMWPhysics_1_1PhysicsSystem.html#a9277c35247eb2b649168b77e62cad326" target="_top" xlink:title="Apply all queued movements, then clear the list. ">
<polygon fill="white" stroke="black" points="362,-0 362,-30 508,-30 508,-0 362,-0"/>
<text text-anchor="start" x="370" y="-18" font-family="FreeSans" font-size="10.00">MWPhysics::PhysicsSystem</text>
<text text-anchor="middle" x="435" y="-7" font-family="FreeSans" font-size="10.00">::applyQueuedMovement</text>
</a>
</g>
</g>
<!-- Node6&#45;&gt;Node7 -->
<g id="edge6" class="edge"><title>Node6&#45;&gt;Node7</title>
<path fill="none" stroke="midnightblue" d="M335.8,-15C344.546,-15 353.361,-15 361.929,-15"/>
<polygon fill="midnightblue" stroke="midnightblue" points="335.582,-11.5001 325.582,-15 335.582,-18.5001 335.582,-11.5001"/>
</g>
<!-- Node8 -->
<g id="node8" class="node"><title>Node8</title>
<g id="a_node8"><a xlink:href="classMWWorld_1_1World.html#a2f5d290bb1dd1000c604b0bd488567c7" target="_top" xlink:title="Run physics simulation and modify world accordingly. ">
<polygon fill="white" stroke="black" points="563.5,-5.5 563.5,-24.5 706.5,-24.5 706.5,-5.5 563.5,-5.5"/>
<text text-anchor="middle" x="635" y="-12.5" font-family="FreeSans" font-size="10.00">MWWorld::World::doPhysics</text>
</a>
</g>
</g>
<!-- Node7&#45;&gt;Node8 -->
<g id="edge7" class="edge"><title>Node7&#45;&gt;Node8</title>
<path fill="none" stroke="midnightblue" d="M518.299,-15C533.261,-15 548.746,-15 563.335,-15"/>
<polygon fill="midnightblue" stroke="midnightblue" points="518.043,-11.5001 508.043,-15 518.043,-18.5001 518.043,-11.5001"/>
</g>
<!-- Node9 -->
<g id="node9" class="node"><title>Node9</title>
<g id="a_node9"><a xlink:href="classMWWorld_1_1World.html#abf77486e8f0325210afe56bbe2021960" target="_top" xlink:title="MWWorld::World::update">
<polygon fill="white" stroke="black" points="762,-5.5 762,-24.5 892,-24.5 892,-5.5 762,-5.5"/>
<text text-anchor="middle" x="827" y="-12.5" font-family="FreeSans" font-size="10.00">MWWorld::World::update</text>
</a>
</g>
</g>
<!-- Node8&#45;&gt;Node9 -->
<g id="edge8" class="edge"><title>Node8&#45;&gt;Node9</title>
<path fill="none" stroke="midnightblue" d="M717.011,-15C731.969,-15 747.401,-15 761.778,-15"/>
<polygon fill="midnightblue" stroke="midnightblue" points="716.749,-11.5001 706.749,-15 716.749,-18.5001 716.749,-11.5001"/>
</g>
<!-- Node10 -->
<g id="node10" class="node"><title>Node10</title>
<g id="a_node10"><a xlink:href="classMWWorld_1_1World.html#ab658191aa2c94a4ea8256db10678c102" target="_top" xlink:title="MWWorld::World::createRecord">
<polygon fill="white" stroke="black" points="928.5,-5.5 928.5,-24.5 1087.5,-24.5 1087.5,-5.5 928.5,-5.5"/>
<text text-anchor="middle" x="1008" y="-12.5" font-family="FreeSans" font-size="10.00">MWWorld::World::createRecord</text>
</a>
</g>
</g>
<!-- Node9&#45;&gt;Node10 -->
<g id="edge9" class="edge"><title>Node9&#45;&gt;Node10</title>
<path fill="none" stroke="midnightblue" d="M902.151,-15C910.793,-15 919.631,-15 928.33,-15"/>
<polygon fill="midnightblue" stroke="midnightblue" points="902.118,-11.5001 892.118,-15 902.117,-18.5001 902.118,-11.5001"/>
</g>
</g>
</svg>
