<?xml version="1.0" encoding="UTF-8" standalone="no"?>
<!DOCTYPE svg PUBLIC "-//W3C//DTD SVG 1.1//EN"
 "http://www.w3.org/Graphics/SVG/1.1/DTD/svg11.dtd">
<!-- Generated by graphviz version 2.36.0 (20140111.2315)
 -->
<!-- Title: MWGui::MapWindow::setGlobalMapPlayerDir Pages: 1 -->
<svg width="680pt" height="246pt"
 viewBox="0.00 0.00 680.00 246.00" xmlns="http://www.w3.org/2000/svg" xmlns:xlink="http://www.w3.org/1999/xlink">
<g id="graph0" class="graph" transform="scale(1 1) rotate(0) translate(4 242)">
<title>MWGui::MapWindow::setGlobalMapPlayerDir</title>
<polygon fill="white" stroke="none" points="-4,4 -4,-242 676,-242 676,4 -4,4"/>
<!-- Node1 -->
<g id="node1" class="node"><title>Node1</title>
<polygon fill="#bfbfbf" stroke="black" points="0.5,-137 0.5,-167 151.5,-167 151.5,-137 0.5,-137"/>
<text text-anchor="start" x="8.5" y="-155" font-family="FreeSans" font-size="10.00">MWGui::MapWindow::setGlobal</text>
<text text-anchor="middle" x="76" y="-144" font-family="FreeSans" font-size="10.00">MapPlayerDir</text>
</g>
<!-- Node2 -->
<g id="node2" class="node"><title>Node2</title>
<g id="a_node2"><a xlink:href="bsatool_8cpp.html#a3c04138a5bfe5d72780bb7e82a18e627" target="_top" xlink:title="main">
<polygon fill="white" stroke="black" points="188,-142.5 188,-161.5 226,-161.5 226,-142.5 188,-142.5"/>
<text text-anchor="middle" x="207" y="-149.5" font-family="FreeSans" font-size="10.00">main</text>
</a>
</g>
</g>
<!-- Node1&#45;&gt;Node2 -->
<g id="edge1" class="edge"><title>Node1&#45;&gt;Node2</title>
<path fill="none" stroke="midnightblue" d="M151.666,-152C160.755,-152 169.568,-152 177.358,-152"/>
<polygon fill="midnightblue" stroke="midnightblue" points="177.612,-155.5 187.612,-152 177.612,-148.5 177.612,-155.5"/>
</g>
<!-- Node3 -->
<g id="node3" class="node"><title>Node3</title>
<g id="a_node3"><a xlink:href="bsatool_8cpp.html#a3c9e85e219fdec56581ca5907bf10489" target="_top" xlink:title="parseOptions">
<polygon fill="white" stroke="black" points="275.5,-218.5 275.5,-237.5 348.5,-237.5 348.5,-218.5 275.5,-218.5"/>
<text text-anchor="middle" x="312" y="-225.5" font-family="FreeSans" font-size="10.00">parseOptions</text>
</a>
</g>
</g>
<!-- Node2&#45;&gt;Node3 -->
<g id="edge2" class="edge"><title>Node2&#45;&gt;Node3</title>
<path fill="none" stroke="midnightblue" d="M215.01,-161.729C224.437,-174.199 242.306,-195.781 262,-209 264.765,-210.856 267.738,-212.569 270.803,-214.142"/>
<polygon fill="midnightblue" stroke="midnightblue" points="269.611,-217.446 280.159,-218.444 272.536,-211.087 269.611,-217.446"/>
</g>
<!-- Node4 -->
<g id="node4" class="node"><title>Node4</title>
<g id="a_node4"><a xlink:href="classBsa_1_1BSAFile.html#a5c854bff3a97dc947761e9a263b5a754" target="_top" xlink:title="Open an archive file. ">
<polygon fill="white" stroke="black" points="262.5,-180.5 262.5,-199.5 361.5,-199.5 361.5,-180.5 262.5,-180.5"/>
<text text-anchor="middle" x="312" y="-187.5" font-family="FreeSans" font-size="10.00">Bsa::BSAFile::open</text>
</a>
</g>
</g>
<!-- Node2&#45;&gt;Node4 -->
<g id="edge3" class="edge"><title>Node2&#45;&gt;Node4</title>
<path fill="none" stroke="midnightblue" d="M226.414,-158.794C240.055,-163.826 259.066,-170.84 275.61,-176.943"/>
<polygon fill="midnightblue" stroke="midnightblue" points="274.413,-180.233 285.007,-180.41 276.836,-173.665 274.413,-180.233"/>
</g>
<!-- Node5 -->
<g id="node5" class="node"><title>Node5</title>
<g id="a_node5"><a xlink:href="bsatool_8cpp.html#a6e7f1179c5854ac3883506e79162011b" target="_top" xlink:title="list">
<polygon fill="white" stroke="black" points="437.5,-152.5 437.5,-171.5 466.5,-171.5 466.5,-152.5 437.5,-152.5"/>
<text text-anchor="middle" x="452" y="-159.5" font-family="FreeSans" font-size="10.00">list</text>
</a>
</g>
</g>
<!-- Node2&#45;&gt;Node5 -->
<g id="edge4" class="edge"><title>Node2&#45;&gt;Node5</title>
<path fill="none" stroke="midnightblue" d="M226.264,-152.752C269.579,-154.534 378.521,-159.017 427.042,-161.014"/>
<polygon fill="midnightblue" stroke="midnightblue" points="427.086,-164.519 437.221,-161.433 427.374,-157.525 427.086,-164.519"/>
</g>
<!-- Node7 -->
<g id="node7" class="node"><title>Node7</title>
<g id="a_node7"><a xlink:href="bsatool_8cpp.html#a5f0cf41345f2013cbad03e5a442c9e81" target="_top" xlink:title="extract">
<polygon fill="white" stroke="black" points="289,-47.5 289,-66.5 335,-66.5 335,-47.5 289,-47.5"/>
<text text-anchor="middle" x="312" y="-54.5" font-family="FreeSans" font-size="10.00">extract</text>
</a>
</g>
</g>
<!-- Node2&#45;&gt;Node7 -->
<g id="edge6" class="edge"><title>Node2&#45;&gt;Node7</title>
<path fill="none" stroke="midnightblue" d="M216.373,-142.291C226.648,-130.588 244.825,-110.557 262,-95 270.497,-87.303 280.405,-79.4335 289.079,-72.8672"/>
<polygon fill="midnightblue" stroke="midnightblue" points="291.312,-75.5684 297.244,-66.7899 287.132,-69.9531 291.312,-75.5684"/>
</g>
<!-- Node14 -->
<g id="node14" class="node"><title>Node14</title>
<g id="a_node14"><a xlink:href="bsatool_8cpp.html#a6bbf3ffe00ffe33d3de0e302f25bef3a" target="_top" xlink:title="extractAll">
<polygon fill="white" stroke="black" points="283.5,-104.5 283.5,-123.5 340.5,-123.5 340.5,-104.5 283.5,-104.5"/>
<text text-anchor="middle" x="312" y="-111.5" font-family="FreeSans" font-size="10.00">extractAll</text>
</a>
</g>
</g>
<!-- Node2&#45;&gt;Node14 -->
<g id="edge13" class="edge"><title>Node2&#45;&gt;Node14</title>
<path fill="none" stroke="midnightblue" d="M226.414,-145.206C240.055,-140.174 259.066,-133.16 275.61,-127.057"/>
<polygon fill="midnightblue" stroke="midnightblue" points="276.836,-130.335 285.007,-123.59 274.413,-123.767 276.836,-130.335"/>
</g>
<!-- Node6 -->
<g id="node6" class="node"><title>Node6</title>
<g id="a_node6"><a xlink:href="classBsa_1_1BSAFile.html#ad7972a16602af590be0ed8401b9413c2" target="_top" xlink:title="Bsa::BSAFile::getList">
<polygon fill="white" stroke="black" points="553.5,-145.5 553.5,-164.5 660.5,-164.5 660.5,-145.5 553.5,-145.5"/>
<text text-anchor="middle" x="607" y="-152.5" font-family="FreeSans" font-size="10.00">Bsa::BSAFile::getList</text>
</a>
</g>
</g>
<!-- Node5&#45;&gt;Node6 -->
<g id="edge5" class="edge"><title>Node5&#45;&gt;Node6</title>
<path fill="none" stroke="midnightblue" d="M466.578,-161.379C483.839,-160.589 514.812,-159.172 543.188,-157.874"/>
<polygon fill="midnightblue" stroke="midnightblue" points="543.665,-161.356 553.495,-157.402 543.345,-154.363 543.665,-161.356"/>
</g>
<!-- Node8 -->
<g id="node8" class="node"><title>Node8</title>
<g id="a_node8"><a xlink:href="bsatool_8cpp.html#aba2d74835334d9661e3299a5d787e051" target="_top" xlink:title="replaceAll">
<polygon fill="white" stroke="black" points="422.5,-38.5 422.5,-57.5 481.5,-57.5 481.5,-38.5 422.5,-38.5"/>
<text text-anchor="middle" x="452" y="-45.5" font-family="FreeSans" font-size="10.00">replaceAll</text>
</a>
</g>
</g>
<!-- Node7&#45;&gt;Node8 -->
<g id="edge7" class="edge"><title>Node7&#45;&gt;Node8</title>
<path fill="none" stroke="midnightblue" d="M335.172,-55.554C355.905,-54.2018 387.319,-52.1531 412.203,-50.5302"/>
<polygon fill="midnightblue" stroke="midnightblue" points="412.667,-54.0075 422.418,-49.864 412.211,-47.0223 412.667,-54.0075"/>
</g>
<!-- Node9 -->
<g id="node9" class="node"><title>Node9</title>
<g id="a_node9"><a xlink:href="classBsa_1_1BSAFile.html#acf8a7bc95608c6e312d812158723b476" target="_top" xlink:title="Check if a file exists. ">
<polygon fill="white" stroke="black" points="401,-0.5 401,-19.5 503,-19.5 503,-0.5 401,-0.5"/>
<text text-anchor="middle" x="452" y="-7.5" font-family="FreeSans" font-size="10.00">Bsa::BSAFile::exists</text>
</a>
</g>
</g>
<!-- Node7&#45;&gt;Node9 -->
<g id="edge8" class="edge"><title>Node7&#45;&gt;Node9</title>
<path fill="none" stroke="midnightblue" d="M335.172,-49.4486C356.158,-42.3014 388.086,-31.4274 413.109,-22.9048"/>
<polygon fill="midnightblue" stroke="midnightblue" points="414.33,-26.1866 422.668,-19.6494 412.073,-19.5603 414.33,-26.1866"/>
</g>
<!-- Node11 -->
<g id="node11" class="node"><title>Node11</title>
<g id="a_node11"><a xlink:href="classBsa_1_1BSAFile.html#a1bb47e40c7c0e07ec255da137076dff7" target="_top" xlink:title="Bsa::BSAFile::getFile">
<polygon fill="white" stroke="black" points="398.5,-76.5 398.5,-95.5 505.5,-95.5 505.5,-76.5 398.5,-76.5"/>
<text text-anchor="middle" x="452" y="-83.5" font-family="FreeSans" font-size="10.00">Bsa::BSAFile::getFile</text>
</a>
</g>
</g>
<!-- Node7&#45;&gt;Node11 -->
<g id="edge10" class="edge"><title>Node7&#45;&gt;Node11</title>
<path fill="none" stroke="midnightblue" d="M335.172,-61.6594C351.55,-65.101 374.592,-69.9432 395.815,-74.4032"/>
<polygon fill="midnightblue" stroke="midnightblue" points="395.222,-77.855 405.729,-76.4864 396.662,-71.0046 395.222,-77.855"/>
</g>
<!-- Node10 -->
<g id="node10" class="node"><title>Node10</title>
<g id="a_node10"><a xlink:href="classBsa_1_1BSAFile.html#a76516f3ef49832eec637504370d729de" target="_top" xlink:title="Get the index of a given file name, or &#45;1 if not found. ">
<polygon fill="white" stroke="black" points="549.5,-0.5 549.5,-19.5 664.5,-19.5 664.5,-0.5 549.5,-0.5"/>
<text text-anchor="middle" x="607" y="-7.5" font-family="FreeSans" font-size="10.00">Bsa::BSAFile::getIndex</text>
</a>
</g>
</g>
<!-- Node9&#45;&gt;Node10 -->
<g id="edge9" class="edge"><title>Node9&#45;&gt;Node10</title>
<path fill="none" stroke="midnightblue" d="M503.098,-10C514.673,-10 527.167,-10 539.324,-10"/>
<polygon fill="midnightblue" stroke="midnightblue" points="539.429,-13.5001 549.429,-10 539.429,-6.5001 539.429,-13.5001"/>
</g>
<!-- Node12 -->
<g id="node12" class="node"><title>Node12</title>
<g id="a_node12"><a xlink:href="namespaceMWSound.html#a5af807129994f7f0a49c40d728843e5c" target="_top" xlink:title="MWSound::fail">
<polygon fill="white" stroke="black" points="567.5,-94.5 567.5,-113.5 646.5,-113.5 646.5,-94.5 567.5,-94.5"/>
<text text-anchor="middle" x="607" y="-101.5" font-family="FreeSans" font-size="10.00">MWSound::fail</text>
</a>
</g>
</g>
<!-- Node11&#45;&gt;Node12 -->
<g id="edge11" class="edge"><title>Node11&#45;&gt;Node12</title>
<path fill="none" stroke="midnightblue" d="M505.654,-92.1946C522.404,-94.1652 540.85,-96.3353 557.307,-98.2715"/>
<polygon fill="midnightblue" stroke="midnightblue" points="556.924,-101.75 567.265,-99.4429 557.742,-94.7984 556.924,-101.75"/>
</g>
<!-- Node13 -->
<g id="node13" class="node"><title>Node13</title>
<g id="a_node13"><a xlink:href="namespaceFiles.html#a516cac1f1765dde3e26c07f88c7b74dc" target="_top" xlink:title="Files::openConstrainedFile\lStream">
<polygon fill="white" stroke="black" points="542.5,-45 542.5,-75 671.5,-75 671.5,-45 542.5,-45"/>
<text text-anchor="start" x="550.5" y="-63" font-family="FreeSans" font-size="10.00">Files::openConstrainedFile</text>
<text text-anchor="middle" x="607" y="-52" font-family="FreeSans" font-size="10.00">Stream</text>
</a>
</g>
</g>
<!-- Node11&#45;&gt;Node13 -->
<g id="edge12" class="edge"><title>Node11&#45;&gt;Node13</title>
<path fill="none" stroke="midnightblue" d="M505.654,-77.0523C514.258,-75.5901 523.309,-74.052 532.309,-72.5227"/>
<polygon fill="midnightblue" stroke="midnightblue" points="533.149,-75.9302 542.421,-70.8043 531.976,-69.0292 533.149,-75.9302"/>
</g>
<!-- Node14&#45;&gt;Node5 -->
<g id="edge14" class="edge"><title>Node14&#45;&gt;Node5</title>
<path fill="none" stroke="midnightblue" d="M340.595,-123.598C366.083,-132.464 403.533,-145.49 427.593,-153.859"/>
<polygon fill="midnightblue" stroke="midnightblue" points="426.718,-157.26 437.313,-157.239 429.018,-150.648 426.718,-157.26"/>
</g>
<!-- Node14&#45;&gt;Node6 -->
<g id="edge15" class="edge"><title>Node14&#45;&gt;Node6</title>
<path fill="none" stroke="midnightblue" d="M340.565,-117.857C386.649,-124.306 480.46,-137.433 543.291,-146.225"/>
<polygon fill="midnightblue" stroke="midnightblue" points="543.095,-149.732 553.483,-147.651 544.065,-142.799 543.095,-149.732"/>
</g>
<!-- Node14&#45;&gt;Node8 -->
<g id="edge16" class="edge"><title>Node14&#45;&gt;Node8</title>
<path fill="none" stroke="midnightblue" d="M328.587,-104.382C345.343,-94.2823 372.955,-78.3245 398,-67 402.722,-64.8649 407.761,-62.7993 412.784,-60.8659"/>
<polygon fill="midnightblue" stroke="midnightblue" points="414.173,-64.0838 422.334,-57.3275 411.741,-57.5198 414.173,-64.0838"/>
</g>
<!-- Node14&#45;&gt;Node11 -->
<g id="edge17" class="edge"><title>Node14&#45;&gt;Node11</title>
<path fill="none" stroke="midnightblue" d="M340.595,-108.401C355.996,-105.276 375.765,-101.265 394.309,-97.5026"/>
<polygon fill="midnightblue" stroke="midnightblue" points="395.051,-100.923 404.155,-95.5047 393.659,-94.0631 395.051,-100.923"/>
</g>
</g>
</svg>
