<?xml version="1.0" encoding="UTF-8" standalone="no"?>
<!DOCTYPE svg PUBLIC "-//W3C//DTD SVG 1.1//EN"
 "http://www.w3.org/Graphics/SVG/1.1/DTD/svg11.dtd">
<!-- Generated by graphviz version 2.36.0 (20140111.2315)
 -->
<!-- Title: Nif::NiGeomMorpherController::read Pages: 1 -->
<svg width="868pt" height="142pt"
 viewBox="0.00 0.00 868.00 142.00" xmlns="http://www.w3.org/2000/svg" xmlns:xlink="http://www.w3.org/1999/xlink">
<g id="graph0" class="graph" transform="scale(1 1) rotate(0) translate(4 138)">
<title>Nif::NiGeomMorpherController::read</title>
<polygon fill="white" stroke="none" points="-4,4 -4,-138 864,-138 864,4 -4,4"/>
<!-- Node1 -->
<g id="node1" class="node"><title>Node1</title>
<polygon fill="#bfbfbf" stroke="black" points="0.5,-71 0.5,-101 161.5,-101 161.5,-71 0.5,-71"/>
<text text-anchor="start" x="8.5" y="-89" font-family="FreeSans" font-size="10.00">Nif::NiGeomMorpherController</text>
<text text-anchor="middle" x="81" y="-78" font-family="FreeSans" font-size="10.00">::read</text>
</g>
<!-- Node2 -->
<g id="node2" class="node"><title>Node2</title>
<g id="a_node2"><a xlink:href="classNif_1_1Controller.html#ae472de3e63c0b1f412a867f734e65cea" target="_top" xlink:title="Parses the record from file. ">
<polygon fill="white" stroke="black" points="209,-76.5 209,-95.5 319,-95.5 319,-76.5 209,-76.5"/>
<text text-anchor="middle" x="264" y="-83.5" font-family="FreeSans" font-size="10.00">Nif::Controller::read</text>
</a>
</g>
</g>
<!-- Node1&#45;&gt;Node2 -->
<g id="edge1" class="edge"><title>Node1&#45;&gt;Node2</title>
<path fill="none" stroke="midnightblue" d="M161.653,-86C173.976,-86 186.572,-86 198.509,-86"/>
<polygon fill="midnightblue" stroke="midnightblue" points="198.805,-89.5001 208.805,-86 198.805,-82.5001 198.805,-89.5001"/>
</g>
<!-- Node3 -->
<g id="node3" class="node"><title>Node3</title>
<g id="a_node3"><a xlink:href="classNif_1_1RecordPtrT.html#a29b8d20a390329c7d5786939cc69273b" target="_top" xlink:title="Read the index from the nif. ">
<polygon fill="white" stroke="black" points="380.5,-114.5 380.5,-133.5 493.5,-133.5 493.5,-114.5 380.5,-114.5"/>
<text text-anchor="middle" x="437" y="-121.5" font-family="FreeSans" font-size="10.00">Nif::RecordPtrT::read</text>
</a>
</g>
</g>
<!-- Node1&#45;&gt;Node3 -->
<g id="edge8" class="edge"><title>Node1&#45;&gt;Node3</title>
<path fill="none" stroke="midnightblue" d="M161.749,-99.952C173.87,-101.815 186.25,-103.571 198,-105 255.886,-112.039 322.023,-117.079 369.862,-120.192"/>
<polygon fill="midnightblue" stroke="midnightblue" points="369.884,-123.7 380.087,-120.846 370.331,-116.715 369.884,-123.7"/>
</g>
<!-- Node9 -->
<g id="node9" class="node"><title>Node9</title>
<g id="a_node9"><a xlink:href="classNif_1_1NIFStream.html#a8c253ed584a2f08cdc2e31aa8f7fd153" target="_top" xlink:title="Nif::NIFStream::getChar">
<polygon fill="white" stroke="black" points="198.5,-19.5 198.5,-38.5 329.5,-38.5 329.5,-19.5 198.5,-19.5"/>
<text text-anchor="middle" x="264" y="-26.5" font-family="FreeSans" font-size="10.00">Nif::NIFStream::getChar</text>
</a>
</g>
</g>
<!-- Node1&#45;&gt;Node9 -->
<g id="edge9" class="edge"><title>Node1&#45;&gt;Node9</title>
<path fill="none" stroke="midnightblue" d="M130.029,-70.8747C159.038,-61.7393 195.576,-50.2329 223.007,-41.5944"/>
<polygon fill="midnightblue" stroke="midnightblue" points="224.184,-44.8935 232.67,-38.5513 222.081,-38.2167 224.184,-44.8935"/>
</g>
<!-- Node2&#45;&gt;Node3 -->
<g id="edge2" class="edge"><title>Node2&#45;&gt;Node3</title>
<path fill="none" stroke="midnightblue" d="M308.151,-95.589C330.919,-100.649 359.048,-106.9 383.119,-112.249"/>
<polygon fill="midnightblue" stroke="midnightblue" points="382.639,-115.727 393.16,-114.48 384.157,-108.894 382.639,-115.727"/>
</g>
<!-- Node4 -->
<g id="node4" class="node"><title>Node4</title>
<g id="a_node4"><a xlink:href="classNif_1_1NIFStream.html#a2986df675228d5744cbf465e00fb7af1" target="_top" xlink:title="Nif::NIFStream::getUShort">
<polygon fill="white" stroke="black" points="366,-76.5 366,-95.5 508,-95.5 508,-76.5 366,-76.5"/>
<text text-anchor="middle" x="437" y="-83.5" font-family="FreeSans" font-size="10.00">Nif::NIFStream::getUShort</text>
</a>
</g>
</g>
<!-- Node2&#45;&gt;Node4 -->
<g id="edge3" class="edge"><title>Node2&#45;&gt;Node4</title>
<path fill="none" stroke="midnightblue" d="M319.105,-86C330.725,-86 343.242,-86 355.617,-86"/>
<polygon fill="midnightblue" stroke="midnightblue" points="355.954,-89.5001 365.954,-86 355.954,-82.5001 355.954,-89.5001"/>
</g>
<!-- Node6 -->
<g id="node6" class="node"><title>Node6</title>
<g id="a_node6"><a xlink:href="classNif_1_1NIFStream.html#a2ab9619cfc563d721b267748e6805800" target="_top" xlink:title="Nif::NIFStream::getFloat">
<polygon fill="white" stroke="black" points="371.5,-38.5 371.5,-57.5 502.5,-57.5 502.5,-38.5 371.5,-38.5"/>
<text text-anchor="middle" x="437" y="-45.5" font-family="FreeSans" font-size="10.00">Nif::NIFStream::getFloat</text>
</a>
</g>
</g>
<!-- Node2&#45;&gt;Node6 -->
<g id="edge5" class="edge"><title>Node2&#45;&gt;Node6</title>
<path fill="none" stroke="midnightblue" d="M308.151,-76.411C330.919,-71.3513 359.048,-65.1004 383.119,-59.7512"/>
<polygon fill="midnightblue" stroke="midnightblue" points="384.157,-63.1061 393.16,-57.5201 382.639,-56.2728 384.157,-63.1061"/>
</g>
<!-- Node5 -->
<g id="node5" class="node"><title>Node5</title>
<g id="a_node5"><a xlink:href="classNif_1_1NIFStream.html#a2c85ed08bf4bb0b4c557b0bf027e6e03" target="_top" xlink:title="Nif::NIFStream::read_le16">
<polygon fill="white" stroke="black" points="544,-79.5 544,-98.5 684,-98.5 684,-79.5 544,-79.5"/>
<text text-anchor="middle" x="614" y="-86.5" font-family="FreeSans" font-size="10.00">Nif::NIFStream::read_le16</text>
</a>
</g>
</g>
<!-- Node4&#45;&gt;Node5 -->
<g id="edge4" class="edge"><title>Node4&#45;&gt;Node5</title>
<path fill="none" stroke="midnightblue" d="M508.171,-87.2029C516.646,-87.3482 525.347,-87.4974 533.938,-87.6447"/>
<polygon fill="midnightblue" stroke="midnightblue" points="533.895,-91.1443 543.953,-87.8163 534.015,-84.1454 533.895,-91.1443"/>
</g>
<!-- Node7 -->
<g id="node7" class="node"><title>Node7</title>
<g id="a_node7"><a xlink:href="classNif_1_1NIFStream.html#a3e6b3ce9a3c76d80196ee7104824e9ec" target="_top" xlink:title="Nif::NIFStream::read\l_le32f">
<polygon fill="white" stroke="black" points="557,-30 557,-60 671,-60 671,-30 557,-30"/>
<text text-anchor="start" x="565" y="-48" font-family="FreeSans" font-size="10.00">Nif::NIFStream::read</text>
<text text-anchor="middle" x="614" y="-37" font-family="FreeSans" font-size="10.00">_le32f</text>
</a>
</g>
</g>
<!-- Node6&#45;&gt;Node7 -->
<g id="edge6" class="edge"><title>Node6&#45;&gt;Node7</title>
<path fill="none" stroke="midnightblue" d="M502.666,-46.8914C517.004,-46.6456 532.221,-46.3848 546.626,-46.1378"/>
<polygon fill="midnightblue" stroke="midnightblue" points="547.009,-49.6319 556.947,-45.9609 546.889,-42.6329 547.009,-49.6319"/>
</g>
<!-- Node8 -->
<g id="node8" class="node"><title>Node8</title>
<g id="a_node8"><a xlink:href="classNif_1_1NIFStream.html#a7fe51f0bd197ecacc8a296db11d169d6" target="_top" xlink:title="Nif::NIFStream::read_le32">
<polygon fill="white" stroke="black" points="720,-35.5 720,-54.5 860,-54.5 860,-35.5 720,-35.5"/>
<text text-anchor="middle" x="790" y="-42.5" font-family="FreeSans" font-size="10.00">Nif::NIFStream::read_le32</text>
</a>
</g>
</g>
<!-- Node7&#45;&gt;Node8 -->
<g id="edge7" class="edge"><title>Node7&#45;&gt;Node8</title>
<path fill="none" stroke="midnightblue" d="M671.012,-45C683.32,-45 696.579,-45 709.609,-45"/>
<polygon fill="midnightblue" stroke="midnightblue" points="709.987,-48.5001 719.987,-45 709.987,-41.5001 709.987,-48.5001"/>
</g>
<!-- Node10 -->
<g id="node10" class="node"><title>Node10</title>
<g id="a_node10"><a xlink:href="classNif_1_1NIFStream.html#a89745c64291949632013e4e03dd6731a" target="_top" xlink:title="Nif::NIFStream::read_byte">
<polygon fill="white" stroke="black" points="367,-0.5 367,-19.5 507,-19.5 507,-0.5 367,-0.5"/>
<text text-anchor="middle" x="437" y="-7.5" font-family="FreeSans" font-size="10.00">Nif::NIFStream::read_byte</text>
</a>
</g>
</g>
<!-- Node9&#45;&gt;Node10 -->
<g id="edge10" class="edge"><title>Node9&#45;&gt;Node10</title>
<path fill="none" stroke="midnightblue" d="M329.648,-21.8169C338.512,-20.832 347.695,-19.8116 356.783,-18.8019"/>
<polygon fill="midnightblue" stroke="midnightblue" points="357.429,-22.2518 366.981,-17.6688 356.656,-15.2946 357.429,-22.2518"/>
</g>
</g>
</svg>
