<?xml version="1.0" encoding="UTF-8" standalone="no"?>
<!DOCTYPE svg PUBLIC "-//W3C//DTD SVG 1.1//EN"
 "http://www.w3.org/Graphics/SVG/1.1/DTD/svg11.dtd">
<!-- Generated by graphviz version 2.36.0 (20140111.2315)
 -->
<!-- Title: CSMDoc::Document::getIdCompletionManager Pages: 1 -->
<svg width="398pt" height="185pt"
 viewBox="0.00 0.00 398.00 185.00" xmlns="http://www.w3.org/2000/svg" xmlns:xlink="http://www.w3.org/1999/xlink">
<g id="graph0" class="graph" transform="scale(1 1) rotate(0) translate(4 181)">
<title>CSMDoc::Document::getIdCompletionManager</title>
<polygon fill="white" stroke="none" points="-4,4 -4,-181 394,-181 394,4 -4,4"/>
<!-- Node1 -->
<g id="node1" class="node"><title>Node1</title>
<polygon fill="#bfbfbf" stroke="black" points="0,-73 0,-103 198,-103 198,-73 0,-73"/>
<text text-anchor="start" x="8" y="-91" font-family="FreeSans" font-size="10.00">CSMDoc::Document::getIdCompletion</text>
<text text-anchor="middle" x="99" y="-80" font-family="FreeSans" font-size="10.00">Manager</text>
</g>
<!-- Node2 -->
<g id="node2" class="node"><title>Node2</title>
<g id="a_node2"><a xlink:href="classCSVWorld_1_1InfoCreatorFactory.html#aa0b17c16698a82c2d083864e0cdd5f27" target="_top" xlink:title="The ownership of the returned Creator is transferred to the caller. ">
<polygon fill="white" stroke="black" points="234,-147 234,-177 390,-177 390,-147 234,-147"/>
<text text-anchor="start" x="242" y="-165" font-family="FreeSans" font-size="10.00">CSVWorld::InfoCreatorFactory</text>
<text text-anchor="middle" x="312" y="-154" font-family="FreeSans" font-size="10.00">::makeCreator</text>
</a>
</g>
</g>
<!-- Node1&#45;&gt;Node2 -->
<g id="edge1" class="edge"><title>Node1&#45;&gt;Node2</title>
<path fill="none" stroke="midnightblue" d="M149.721,-106.674C174.899,-116.004 205.99,-127.335 234,-137 243.566,-140.301 253.842,-143.722 263.672,-146.936"/>
<polygon fill="midnightblue" stroke="midnightblue" points="150.622,-103.274 140.029,-103.072 148.184,-109.836 150.622,-103.274"/>
</g>
<!-- Node3 -->
<g id="node3" class="node"><title>Node3</title>
<g id="a_node3"><a xlink:href="classCSVWorld_1_1PathgridCreatorFactory.html#a79912db8728cd8202ab8cd4783f72607" target="_top" xlink:title="CSVWorld::PathgridCreator\lFactory::makeCreator">
<polygon fill="white" stroke="black" points="240.5,-98 240.5,-128 383.5,-128 383.5,-98 240.5,-98"/>
<text text-anchor="start" x="248.5" y="-116" font-family="FreeSans" font-size="10.00">CSVWorld::PathgridCreator</text>
<text text-anchor="middle" x="312" y="-105" font-family="FreeSans" font-size="10.00">Factory::makeCreator</text>
</a>
</g>
</g>
<!-- Node1&#45;&gt;Node3 -->
<g id="edge2" class="edge"><title>Node1&#45;&gt;Node3</title>
<path fill="none" stroke="midnightblue" d="M208.092,-100.807C218.99,-102.098 229.85,-103.385 240.208,-104.612"/>
<polygon fill="midnightblue" stroke="midnightblue" points="208.43,-97.3227 198.087,-99.6217 207.606,-104.274 208.43,-97.3227"/>
</g>
<!-- Node4 -->
<g id="node4" class="node"><title>Node4</title>
<g id="a_node4"><a xlink:href="classCSVWorld_1_1ReferenceCreatorFactory.html#acba0ecb306c4df73da2909192bdee4a2" target="_top" xlink:title="The ownership of the returned Creator is transferred to the caller. ">
<polygon fill="white" stroke="black" points="236,-49 236,-79 388,-79 388,-49 236,-49"/>
<text text-anchor="start" x="244" y="-67" font-family="FreeSans" font-size="10.00">CSVWorld::ReferenceCreator</text>
<text text-anchor="middle" x="312" y="-56" font-family="FreeSans" font-size="10.00">Factory::makeCreator</text>
</a>
</g>
</g>
<!-- Node1&#45;&gt;Node4 -->
<g id="edge3" class="edge"><title>Node1&#45;&gt;Node4</title>
<path fill="none" stroke="midnightblue" d="M208.224,-75.6902C217.567,-74.6274 226.883,-73.5679 235.876,-72.5449"/>
<polygon fill="midnightblue" stroke="midnightblue" points="207.628,-72.2353 198.087,-76.8431 208.419,-79.1905 207.628,-72.2353"/>
</g>
<!-- Node5 -->
<g id="node5" class="node"><title>Node5</title>
<g id="a_node5"><a xlink:href="classCSVWorld_1_1StartScriptCreatorFactory.html#a23bf0945d81f17918ed05bb76827b2fe" target="_top" xlink:title="CSVWorld::StartScriptCreator\lFactory::makeCreator">
<polygon fill="white" stroke="black" points="234,-0 234,-30 390,-30 390,-0 234,-0"/>
<text text-anchor="start" x="242" y="-18" font-family="FreeSans" font-size="10.00">CSVWorld::StartScriptCreator</text>
<text text-anchor="middle" x="312" y="-7" font-family="FreeSans" font-size="10.00">Factory::makeCreator</text>
</a>
</g>
</g>
<!-- Node1&#45;&gt;Node5 -->
<g id="edge4" class="edge"><title>Node1&#45;&gt;Node5</title>
<path fill="none" stroke="midnightblue" d="M150.59,-69.4736C175.624,-60.4093 206.335,-49.4437 234,-40 243.577,-36.7308 253.858,-33.323 263.689,-30.1132"/>
<polygon fill="midnightblue" stroke="midnightblue" points="149.147,-66.2736 140.941,-72.9747 151.535,-72.8538 149.147,-66.2736"/>
</g>
</g>
</svg>
