<?xml version="1.0" encoding="UTF-8" standalone="no"?>
<!DOCTYPE svg PUBLIC "-//W3C//DTD SVG 1.1//EN"
 "http://www.w3.org/Graphics/SVG/1.1/DTD/svg11.dtd">
<!-- Generated by graphviz version 2.36.0 (20140111.2315)
 -->
<!-- Title: MWMechanics::CreatureStats::setAttribute Pages: 1 -->
<svg width="756pt" height="639pt"
 viewBox="0.00 0.00 756.00 639.00" xmlns="http://www.w3.org/2000/svg" xmlns:xlink="http://www.w3.org/1999/xlink">
<g id="graph0" class="graph" transform="scale(1 1) rotate(0) translate(4 635)">
<title>MWMechanics::CreatureStats::setAttribute</title>
<polygon fill="white" stroke="none" points="-4,4 -4,-635 752,-635 752,4 -4,4"/>
<!-- Node1 -->
<g id="node1" class="node"><title>Node1</title>
<polygon fill="#bfbfbf" stroke="black" points="0.5,-405 0.5,-435 157.5,-435 157.5,-405 0.5,-405"/>
<text text-anchor="start" x="8.5" y="-423" font-family="FreeSans" font-size="10.00">MWMechanics::CreatureStats</text>
<text text-anchor="middle" x="79" y="-412" font-family="FreeSans" font-size="10.00">::setAttribute</text>
</g>
<!-- Node2 -->
<g id="node2" class="node"><title>Node2</title>
<g id="a_node2"><a xlink:href="classMWMechanics_1_1CreatureStats.html#a4c54d8a712b5e278a0931b368b6bd0df" target="_top" xlink:title="MWMechanics::CreatureStats\l::getAttribute">
<polygon fill="white" stroke="black" points="194.5,-601 194.5,-631 351.5,-631 351.5,-601 194.5,-601"/>
<text text-anchor="start" x="202.5" y="-619" font-family="FreeSans" font-size="10.00">MWMechanics::CreatureStats</text>
<text text-anchor="middle" x="273" y="-608" font-family="FreeSans" font-size="10.00">::getAttribute</text>
</a>
</g>
</g>
<!-- Node1&#45;&gt;Node2 -->
<g id="edge1" class="edge"><title>Node1&#45;&gt;Node2</title>
<path fill="none" stroke="midnightblue" d="M85.9049,-435.046C99.6877,-468.224 137.182,-548.122 194,-591 196.474,-592.867 199.092,-594.598 201.812,-596.201"/>
<polygon fill="midnightblue" stroke="midnightblue" points="200.31,-599.365 210.793,-600.902 203.556,-593.163 200.31,-599.365"/>
</g>
<!-- Node3 -->
<g id="node3" class="node"><title>Node3</title>
<g id="a_node3"><a xlink:href="classMWMechanics_1_1AttributeValue.html#a3e84af12530d0e2cf3a45b25fa9b4fc8" target="_top" xlink:title="MWMechanics::AttributeValue\l::getModified">
<polygon fill="white" stroke="black" points="194,-552 194,-582 352,-582 352,-552 194,-552"/>
<text text-anchor="start" x="202" y="-570" font-family="FreeSans" font-size="10.00">MWMechanics::AttributeValue</text>
<text text-anchor="middle" x="273" y="-559" font-family="FreeSans" font-size="10.00">::getModified</text>
</a>
</g>
</g>
<!-- Node1&#45;&gt;Node3 -->
<g id="edge2" class="edge"><title>Node1&#45;&gt;Node3</title>
<path fill="none" stroke="midnightblue" d="M90.1127,-435.077C108.062,-460.71 147.963,-512.833 194,-542 197.191,-544.022 200.559,-545.893 204.034,-547.623"/>
<polygon fill="midnightblue" stroke="midnightblue" points="202.878,-550.942 213.431,-551.88 205.767,-544.566 202.878,-550.942"/>
</g>
<!-- Node4 -->
<g id="node4" class="node"><title>Node4</title>
<g id="a_node4"><a xlink:href="classMWMechanics_1_1CreatureStats.html#ae962c8518e43e517e2aec4d89a5aafe2" target="_top" xlink:title="MWMechanics::CreatureStats\l::getFatigue">
<polygon fill="white" stroke="black" points="194.5,-503 194.5,-533 351.5,-533 351.5,-503 194.5,-503"/>
<text text-anchor="start" x="202.5" y="-521" font-family="FreeSans" font-size="10.00">MWMechanics::CreatureStats</text>
<text text-anchor="middle" x="273" y="-510" font-family="FreeSans" font-size="10.00">::getFatigue</text>
</a>
</g>
</g>
<!-- Node1&#45;&gt;Node4 -->
<g id="edge3" class="edge"><title>Node1&#45;&gt;Node4</title>
<path fill="none" stroke="midnightblue" d="M100.075,-435.149C122.149,-451.245 159.126,-476.588 194,-493 198.704,-495.214 203.656,-497.305 208.688,-499.264"/>
<polygon fill="midnightblue" stroke="midnightblue" points="207.828,-502.678 218.421,-502.865 210.257,-496.113 207.828,-502.678"/>
</g>
<!-- Node5 -->
<g id="node5" class="node"><title>Node5</title>
<g id="a_node5"><a xlink:href="classMWMechanics_1_1DynamicStat.html#ae0d63da7d2ef44216a8535b68c581bd0" target="_top" xlink:title="MWMechanics::DynamicStat\l::getBase">
<polygon fill="white" stroke="black" points="197,-454 197,-484 349,-484 349,-454 197,-454"/>
<text text-anchor="start" x="205" y="-472" font-family="FreeSans" font-size="10.00">MWMechanics::DynamicStat</text>
<text text-anchor="middle" x="273" y="-461" font-family="FreeSans" font-size="10.00">::getBase</text>
</a>
</g>
</g>
<!-- Node1&#45;&gt;Node5 -->
<g id="edge4" class="edge"><title>Node1&#45;&gt;Node5</title>
<path fill="none" stroke="midnightblue" d="M138.911,-435.035C159.276,-440.232 182.272,-446.101 203.349,-451.48"/>
<polygon fill="midnightblue" stroke="midnightblue" points="202.645,-454.912 213.2,-453.994 204.376,-448.13 202.645,-454.912"/>
</g>
<!-- Node6 -->
<g id="node6" class="node"><title>Node6</title>
<g id="a_node6"><a xlink:href="classMWMechanics_1_1DynamicStat.html#a396a1a67b23dde7489b7afa6bcdc2dee" target="_top" xlink:title="MWMechanics::DynamicStat\l::getCurrent">
<polygon fill="white" stroke="black" points="197,-405 197,-435 349,-435 349,-405 197,-405"/>
<text text-anchor="start" x="205" y="-423" font-family="FreeSans" font-size="10.00">MWMechanics::DynamicStat</text>
<text text-anchor="middle" x="273" y="-412" font-family="FreeSans" font-size="10.00">::getCurrent</text>
</a>
</g>
</g>
<!-- Node1&#45;&gt;Node6 -->
<g id="edge5" class="edge"><title>Node1&#45;&gt;Node6</title>
<path fill="none" stroke="midnightblue" d="M157.54,-420C167.196,-420 177.11,-420 186.873,-420"/>
<polygon fill="midnightblue" stroke="midnightblue" points="186.974,-423.5 196.974,-420 186.974,-416.5 186.974,-423.5"/>
</g>
<!-- Node7 -->
<g id="node7" class="node"><title>Node7</title>
<g id="a_node7"><a xlink:href="classMWMechanics_1_1DynamicStat.html#abc22a236f06b223eb3451b5607d5f5ef" target="_top" xlink:title="Set modified value an adjust base accordingly. ">
<polygon fill="white" stroke="black" points="197,-356 197,-386 349,-386 349,-356 197,-356"/>
<text text-anchor="start" x="205" y="-374" font-family="FreeSans" font-size="10.00">MWMechanics::DynamicStat</text>
<text text-anchor="middle" x="273" y="-363" font-family="FreeSans" font-size="10.00">::setModified</text>
</a>
</g>
</g>
<!-- Node1&#45;&gt;Node7 -->
<g id="edge6" class="edge"><title>Node1&#45;&gt;Node7</title>
<path fill="none" stroke="midnightblue" d="M138.911,-404.965C159.276,-399.768 182.272,-393.899 203.349,-388.52"/>
<polygon fill="midnightblue" stroke="midnightblue" points="204.376,-391.87 213.2,-386.006 202.645,-385.088 204.376,-391.87"/>
</g>
<!-- Node8 -->
<g id="node8" class="node"><title>Node8</title>
<g id="a_node8"><a xlink:href="classMWMechanics_1_1DynamicStat.html#a5341e59c91e5cc6782ef8f8fa1177bda" target="_top" xlink:title="MWMechanics::DynamicStat\l::getModified">
<polygon fill="white" stroke="black" points="197,-307 197,-337 349,-337 349,-307 197,-307"/>
<text text-anchor="start" x="205" y="-325" font-family="FreeSans" font-size="10.00">MWMechanics::DynamicStat</text>
<text text-anchor="middle" x="273" y="-314" font-family="FreeSans" font-size="10.00">::getModified</text>
</a>
</g>
</g>
<!-- Node1&#45;&gt;Node8 -->
<g id="edge7" class="edge"><title>Node1&#45;&gt;Node8</title>
<path fill="none" stroke="midnightblue" d="M100.075,-404.851C122.149,-388.755 159.126,-363.412 194,-347 198.704,-344.786 203.656,-342.695 208.688,-340.736"/>
<polygon fill="midnightblue" stroke="midnightblue" points="210.257,-343.887 218.421,-337.135 207.828,-337.322 210.257,-343.887"/>
</g>
<!-- Node9 -->
<g id="node9" class="node"><title>Node9</title>
<g id="a_node9"><a xlink:href="classMWMechanics_1_1DynamicStat.html#abb00fb02a2face04357f86ec5117d2ec" target="_top" xlink:title="MWMechanics::DynamicStat\l::setCurrent">
<polygon fill="white" stroke="black" points="589,-274 589,-304 741,-304 741,-274 589,-274"/>
<text text-anchor="start" x="597" y="-292" font-family="FreeSans" font-size="10.00">MWMechanics::DynamicStat</text>
<text text-anchor="middle" x="665" y="-281" font-family="FreeSans" font-size="10.00">::setCurrent</text>
</a>
</g>
</g>
<!-- Node1&#45;&gt;Node9 -->
<g id="edge8" class="edge"><title>Node1&#45;&gt;Node9</title>
<path fill="none" stroke="midnightblue" d="M88.5349,-404.757C104.859,-377.357 143.427,-320.537 194,-298 320.715,-241.532 486.374,-256.085 583.391,-272.24"/>
<polygon fill="midnightblue" stroke="midnightblue" points="582.981,-275.721 593.429,-273.958 584.162,-268.821 582.981,-275.721"/>
</g>
<!-- Node10 -->
<g id="node10" class="node"><title>Node10</title>
<g id="a_node10"><a xlink:href="classMWMechanics_1_1CreatureStats.html#a670dcf81e6b972c3e15b045bc866a769" target="_top" xlink:title="MWMechanics::CreatureStats\l::setFatigue">
<polygon fill="white" stroke="black" points="194.5,-197 194.5,-227 351.5,-227 351.5,-197 194.5,-197"/>
<text text-anchor="start" x="202.5" y="-215" font-family="FreeSans" font-size="10.00">MWMechanics::CreatureStats</text>
<text text-anchor="middle" x="273" y="-204" font-family="FreeSans" font-size="10.00">::setFatigue</text>
</a>
</g>
</g>
<!-- Node1&#45;&gt;Node10 -->
<g id="edge9" class="edge"><title>Node1&#45;&gt;Node10</title>
<path fill="none" stroke="midnightblue" d="M88.5515,-404.903C105.768,-375.391 147.004,-309.014 194,-264 206.341,-252.179 221.68,-241.308 235.482,-232.595"/>
<polygon fill="midnightblue" stroke="midnightblue" points="237.592,-235.407 244.283,-227.193 233.93,-229.441 237.592,-235.407"/>
</g>
<!-- Node11 -->
<g id="node11" class="node"><title>Node11</title>
<g id="a_node11"><a xlink:href="classMWMechanics_1_1CreatureStats.html#a2887c6613153d6c33d2458e2eb08ade6" target="_top" xlink:title="MWMechanics::CreatureStats\l::setDynamic">
<polygon fill="white" stroke="black" points="388.5,-153 388.5,-183 545.5,-183 545.5,-153 388.5,-153"/>
<text text-anchor="start" x="396.5" y="-171" font-family="FreeSans" font-size="10.00">MWMechanics::CreatureStats</text>
<text text-anchor="middle" x="467" y="-160" font-family="FreeSans" font-size="10.00">::setDynamic</text>
</a>
</g>
</g>
<!-- Node10&#45;&gt;Node11 -->
<g id="edge10" class="edge"><title>Node10&#45;&gt;Node11</title>
<path fill="none" stroke="midnightblue" d="M339.539,-196.981C355.975,-193.214 373.741,-189.143 390.616,-185.276"/>
<polygon fill="midnightblue" stroke="midnightblue" points="391.466,-188.672 400.431,-183.026 389.902,-181.848 391.466,-188.672"/>
</g>
<!-- Node11&#45;&gt;Node9 -->
<g id="edge15" class="edge"><title>Node11&#45;&gt;Node9</title>
<path fill="none" stroke="midnightblue" d="M482.031,-183.18C502.228,-204.184 541.536,-242.004 582,-264 586.007,-266.178 590.229,-268.193 594.558,-270.052"/>
<polygon fill="midnightblue" stroke="midnightblue" points="593.577,-273.429 604.162,-273.877 596.167,-266.926 593.577,-273.429"/>
</g>
<!-- Node12 -->
<g id="node12" class="node"><title>Node12</title>
<g id="a_node12"><a xlink:href="classMWBase_1_1Environment.html#a73f12633762b049c03c80fe215873faa" target="_top" xlink:title="Return instance of this class. ">
<polygon fill="white" stroke="black" points="592,-235.5 592,-254.5 738,-254.5 738,-235.5 592,-235.5"/>
<text text-anchor="middle" x="665" y="-242.5" font-family="FreeSans" font-size="10.00">MWBase::Environment::get</text>
</a>
</g>
</g>
<!-- Node11&#45;&gt;Node12 -->
<g id="edge11" class="edge"><title>Node11&#45;&gt;Node12</title>
<path fill="none" stroke="midnightblue" d="M493.97,-183.096C516.604,-195.733 550.629,-213.498 582,-225 590.01,-227.937 598.617,-230.572 607.136,-232.891"/>
<polygon fill="midnightblue" stroke="midnightblue" points="606.497,-236.341 617.055,-235.468 608.256,-229.566 606.497,-236.341"/>
</g>
<!-- Node13 -->
<g id="node13" class="node"><title>Node13</title>
<g id="a_node13"><a xlink:href="classMWBase_1_1Environment.html#ae14e166d8f5ff8629be119333d502660" target="_top" xlink:title="MWBase::Environment\l::getWorld">
<polygon fill="white" stroke="black" points="603,-186 603,-216 727,-216 727,-186 603,-186"/>
<text text-anchor="start" x="611" y="-204" font-family="FreeSans" font-size="10.00">MWBase::Environment</text>
<text text-anchor="middle" x="665" y="-193" font-family="FreeSans" font-size="10.00">::getWorld</text>
</a>
</g>
</g>
<!-- Node11&#45;&gt;Node13 -->
<g id="edge12" class="edge"><title>Node11&#45;&gt;Node13</title>
<path fill="none" stroke="midnightblue" d="M545.746,-181.09C561.352,-183.717 577.674,-186.466 593.036,-189.052"/>
<polygon fill="midnightblue" stroke="midnightblue" points="592.532,-192.516 602.974,-190.725 593.694,-185.613 592.532,-192.516"/>
</g>
<!-- Node14 -->
<g id="node14" class="node"><title>Node14</title>
<g id="a_node14"><a xlink:href="classMWBase_1_1World.html#afedfaa8a949d00d5905eb8ae070492fe" target="_top" xlink:title="Return current in&#45;game time stamp. ">
<polygon fill="white" stroke="black" points="582,-147.5 582,-166.5 748,-166.5 748,-147.5 582,-147.5"/>
<text text-anchor="middle" x="665" y="-154.5" font-family="FreeSans" font-size="10.00">MWBase::World::getTimeStamp</text>
</a>
</g>
</g>
<!-- Node11&#45;&gt;Node14 -->
<g id="edge13" class="edge"><title>Node11&#45;&gt;Node14</title>
<path fill="none" stroke="midnightblue" d="M545.746,-163.637C554.273,-163.158 563.014,-162.668 571.695,-162.18"/>
<polygon fill="midnightblue" stroke="midnightblue" points="572.054,-165.666 581.842,-161.611 571.661,-158.677 572.054,-165.666"/>
</g>
<!-- Node15 -->
<g id="node15" class="node"><title>Node15</title>
<g id="a_node15"><a xlink:href="classMWMechanics_1_1DynamicStat.html#ad790612fbb12a028056c4fbb9a19e445" target="_top" xlink:title="MWMechanics::DynamicStat\l::setModifier">
<polygon fill="white" stroke="black" points="589,-98 589,-128 741,-128 741,-98 589,-98"/>
<text text-anchor="start" x="597" y="-116" font-family="FreeSans" font-size="10.00">MWMechanics::DynamicStat</text>
<text text-anchor="middle" x="665" y="-105" font-family="FreeSans" font-size="10.00">::setModifier</text>
</a>
</g>
</g>
<!-- Node11&#45;&gt;Node15 -->
<g id="edge14" class="edge"><title>Node11&#45;&gt;Node15</title>
<path fill="none" stroke="midnightblue" d="M521.558,-152.971C545.973,-146.12 575.057,-137.959 600.56,-130.802"/>
<polygon fill="midnightblue" stroke="midnightblue" points="601.824,-134.082 610.507,-128.011 599.933,-127.343 601.824,-134.082"/>
</g>
<!-- Node16 -->
<g id="node16" class="node"><title>Node16</title>
<g id="a_node16"><a xlink:href="classMWBase_1_1Environment.html#a571bbf2793948af02f188c25f0a4ba23" target="_top" xlink:title="MWBase::Environment\l::getMechanicsManager">
<polygon fill="white" stroke="black" points="599.5,-49 599.5,-79 730.5,-79 730.5,-49 599.5,-49"/>
<text text-anchor="start" x="607.5" y="-67" font-family="FreeSans" font-size="10.00">MWBase::Environment</text>
<text text-anchor="middle" x="665" y="-56" font-family="FreeSans" font-size="10.00">::getMechanicsManager</text>
</a>
</g>
</g>
<!-- Node11&#45;&gt;Node16 -->
<g id="edge16" class="edge"><title>Node11&#45;&gt;Node16</title>
<path fill="none" stroke="midnightblue" d="M485.791,-152.698C507.289,-134.903 545.176,-105.712 582,-88 586.019,-86.0671 590.224,-84.2573 594.517,-82.5682"/>
<polygon fill="midnightblue" stroke="midnightblue" points="595.848,-85.8081 604.017,-79.0624 593.424,-79.2409 595.848,-85.8081"/>
</g>
<!-- Node17 -->
<g id="node17" class="node"><title>Node17</title>
<g id="a_node17"><a xlink:href="classMWBase_1_1MechanicsManager.html#a1ded1629794d493de5418f327db4fced" target="_top" xlink:title="Resurrects the player if necessary. ">
<polygon fill="white" stroke="black" points="587.5,-0 587.5,-30 742.5,-30 742.5,-0 587.5,-0"/>
<text text-anchor="start" x="595.5" y="-18" font-family="FreeSans" font-size="10.00">MWBase::MechanicsManager</text>
<text text-anchor="middle" x="665" y="-7" font-family="FreeSans" font-size="10.00">::keepPlayerAlive</text>
</a>
</g>
</g>
<!-- Node11&#45;&gt;Node17 -->
<g id="edge17" class="edge"><title>Node11&#45;&gt;Node17</title>
<path fill="none" stroke="midnightblue" d="M477.267,-152.77C494.488,-125.758 534.065,-69.4473 582,-39 584.608,-37.3435 587.334,-35.7977 590.142,-34.3555"/>
<polygon fill="midnightblue" stroke="midnightblue" points="591.742,-37.472 599.345,-30.0937 588.8,-31.1201 591.742,-37.472"/>
</g>
</g>
</svg>
