<?xml version="1.0" encoding="UTF-8" standalone="no"?>
<!DOCTYPE svg PUBLIC "-//W3C//DTD SVG 1.1//EN"
 "http://www.w3.org/Graphics/SVG/1.1/DTD/svg11.dtd">
<!-- Generated by graphviz version 2.36.0 (20140111.2315)
 -->
<!-- Title: MWMechanics::NpcStats::getSkillIncreasesForSpecialization Pages: 1 -->
<svg width="350pt" height="38pt"
 viewBox="0.00 0.00 350.00 38.00" xmlns="http://www.w3.org/2000/svg" xmlns:xlink="http://www.w3.org/1999/xlink">
<g id="graph0" class="graph" transform="scale(1 1) rotate(0) translate(4 34)">
<title>MWMechanics::NpcStats::getSkillIncreasesForSpecialization</title>
<polygon fill="white" stroke="none" points="-4,4 -4,-34 346,-34 346,4 -4,4"/>
<!-- Node1 -->
<g id="node1" class="node"><title>Node1</title>
<polygon fill="#bfbfbf" stroke="black" points="0,-0 0,-30 184,-30 184,-0 0,-0"/>
<text text-anchor="start" x="8" y="-18" font-family="FreeSans" font-size="10.00">MWMechanics::NpcStats</text>
<text text-anchor="middle" x="92" y="-7" font-family="FreeSans" font-size="10.00">::getSkillIncreasesForSpecialization</text>
</g>
<!-- Node2 -->
<g id="node2" class="node"><title>Node2</title>
<g id="a_node2"><a xlink:href="classMWGui_1_1LevelupDialog.html#add17eac7eb792f4270b24f1294a3459a" target="_top" xlink:title="Notify that window has been made visible. ">
<polygon fill="white" stroke="black" points="220,-0 220,-30 342,-30 342,-0 220,-0"/>
<text text-anchor="start" x="228" y="-18" font-family="FreeSans" font-size="10.00">MWGui::LevelupDialog</text>
<text text-anchor="middle" x="281" y="-7" font-family="FreeSans" font-size="10.00">::onOpen</text>
</a>
</g>
</g>
<!-- Node1&#45;&gt;Node2 -->
<g id="edge1" class="edge"><title>Node1&#45;&gt;Node2</title>
<path fill="none" stroke="midnightblue" d="M194.296,-15C203.018,-15 211.648,-15 219.881,-15"/>
<polygon fill="midnightblue" stroke="midnightblue" points="194.035,-11.5001 184.035,-15 194.035,-18.5001 194.035,-11.5001"/>
</g>
</g>
</svg>
