<?xml version="1.0" encoding="UTF-8" standalone="no"?>
<!DOCTYPE svg PUBLIC "-//W3C//DTD SVG 1.1//EN"
 "http://www.w3.org/Graphics/SVG/1.1/DTD/svg11.dtd">
<!-- Generated by graphviz version 2.36.0 (20140111.2315)
 -->
<!-- Title: CSMPrefs::ShortcutSetting::storeValue Pages: 1 -->
<svg width="322pt" height="508pt"
 viewBox="0.00 0.00 322.00 508.00" xmlns="http://www.w3.org/2000/svg" xmlns:xlink="http://www.w3.org/1999/xlink">
<g id="graph0" class="graph" transform="scale(1 1) rotate(0) translate(4 504)">
<title>CSMPrefs::ShortcutSetting::storeValue</title>
<polygon fill="white" stroke="none" points="-4,4 -4,-504 318,-504 318,4 -4,4"/>
<!-- Node1 -->
<g id="node1" class="node"><title>Node1</title>
<polygon fill="#bfbfbf" stroke="black" points="0.5,-235 0.5,-265 133.5,-265 133.5,-235 0.5,-235"/>
<text text-anchor="start" x="8.5" y="-253" font-family="FreeSans" font-size="10.00">CSMPrefs::ShortcutSetting</text>
<text text-anchor="middle" x="67" y="-242" font-family="FreeSans" font-size="10.00">::storeValue</text>
</g>
<!-- Node2 -->
<g id="node2" class="node"><title>Node2</title>
<g id="a_node2"><a xlink:href="classCSMPrefs_1_1State.html#a255047be30a497d50c9e813a7172a5de" target="_top" xlink:title="CSMPrefs::State::get">
<polygon fill="white" stroke="black" points="188.5,-480.5 188.5,-499.5 295.5,-499.5 295.5,-480.5 188.5,-480.5"/>
<text text-anchor="middle" x="242" y="-487.5" font-family="FreeSans" font-size="10.00">CSMPrefs::State::get</text>
</a>
</g>
</g>
<!-- Node1&#45;&gt;Node2 -->
<g id="edge1" class="edge"><title>Node1&#45;&gt;Node2</title>
<path fill="none" stroke="midnightblue" d="M70.5433,-265.171C78.0399,-305.05 103.823,-413.621 170,-470 172.848,-472.427 175.971,-474.56 179.269,-476.435"/>
<polygon fill="midnightblue" stroke="midnightblue" points="177.813,-479.618 188.339,-480.82 180.86,-473.316 177.813,-479.618"/>
</g>
<!-- Node3 -->
<g id="node3" class="node"><title>Node3</title>
<g id="a_node3"><a xlink:href="classCSMPrefs_1_1State.html#ad925e542ddfd10f9fafb5dbfd81eb785" target="_top" xlink:title="CSMPrefs::State::getShortcut\lManager">
<polygon fill="white" stroke="black" points="170.5,-431 170.5,-461 313.5,-461 313.5,-431 170.5,-431"/>
<text text-anchor="start" x="178.5" y="-449" font-family="FreeSans" font-size="10.00">CSMPrefs::State::getShortcut</text>
<text text-anchor="middle" x="242" y="-438" font-family="FreeSans" font-size="10.00">Manager</text>
</a>
</g>
</g>
<!-- Node1&#45;&gt;Node3 -->
<g id="edge2" class="edge"><title>Node1&#45;&gt;Node3</title>
<path fill="none" stroke="midnightblue" d="M73.0002,-265.178C84.6571,-298.272 116.761,-377.438 170,-421 172.228,-422.823 174.599,-424.518 177.071,-426.092"/>
<polygon fill="midnightblue" stroke="midnightblue" points="175.373,-429.153 185.806,-430.996 178.799,-423.049 175.373,-429.153"/>
</g>
<!-- Node4 -->
<g id="node4" class="node"><title>Node4</title>
<g id="a_node4"><a xlink:href="classCSMPrefs_1_1ShortcutManager.html#a1bdd258e316997589d646f22dd674053" target="_top" xlink:title="CSMPrefs::ShortcutManager\l::setSequence">
<polygon fill="white" stroke="black" points="172,-382 172,-412 312,-412 312,-382 172,-382"/>
<text text-anchor="start" x="180" y="-400" font-family="FreeSans" font-size="10.00">CSMPrefs::ShortcutManager</text>
<text text-anchor="middle" x="242" y="-389" font-family="FreeSans" font-size="10.00">::setSequence</text>
</a>
</g>
</g>
<!-- Node1&#45;&gt;Node4 -->
<g id="edge3" class="edge"><title>Node1&#45;&gt;Node4</title>
<path fill="none" stroke="midnightblue" d="M76.9907,-265.398C92.7078,-291.04 127.581,-342.573 170,-372 172.738,-373.899 175.635,-375.669 178.632,-377.314"/>
<polygon fill="midnightblue" stroke="midnightblue" points="177.351,-380.586 187.865,-381.889 180.459,-374.313 177.351,-380.586"/>
</g>
<!-- Node5 -->
<g id="node5" class="node"><title>Node5</title>
<g id="a_node5"><a xlink:href="classCSMPrefs_1_1Setting.html#a22bd7f52d0392450f4bd86cdb40e4d33" target="_top" xlink:title="CSMPrefs::Setting::\lgetKey">
<polygon fill="white" stroke="black" points="191.5,-333 191.5,-363 292.5,-363 292.5,-333 191.5,-333"/>
<text text-anchor="start" x="199.5" y="-351" font-family="FreeSans" font-size="10.00">CSMPrefs::Setting::</text>
<text text-anchor="middle" x="242" y="-340" font-family="FreeSans" font-size="10.00">getKey</text>
</a>
</g>
</g>
<!-- Node1&#45;&gt;Node5 -->
<g id="edge4" class="edge"><title>Node1&#45;&gt;Node5</title>
<path fill="none" stroke="midnightblue" d="M85.7774,-265.12C105.37,-281.191 138.32,-306.513 170,-323 174.199,-325.185 178.63,-327.252 183.145,-329.191"/>
<polygon fill="midnightblue" stroke="midnightblue" points="181.899,-332.463 192.481,-332.988 184.536,-325.979 181.899,-332.463"/>
</g>
<!-- Node6 -->
<g id="node6" class="node"><title>Node6</title>
<g id="a_node6"><a xlink:href="classCSMPrefs_1_1ShortcutManager.html#a26b5d83180cf9b699d8f6ee008bb67d5" target="_top" xlink:title="CSMPrefs::ShortcutManager\l::convertToString">
<polygon fill="white" stroke="black" points="172,-284 172,-314 312,-314 312,-284 172,-284"/>
<text text-anchor="start" x="180" y="-302" font-family="FreeSans" font-size="10.00">CSMPrefs::ShortcutManager</text>
<text text-anchor="middle" x="242" y="-291" font-family="FreeSans" font-size="10.00">::convertToString</text>
</a>
</g>
</g>
<!-- Node1&#45;&gt;Node6 -->
<g id="edge5" class="edge"><title>Node1&#45;&gt;Node6</title>
<path fill="none" stroke="midnightblue" d="M121.317,-265.101C139.242,-270.179 159.408,-275.89 178.006,-281.158"/>
<polygon fill="midnightblue" stroke="midnightblue" points="177.283,-284.591 187.859,-283.948 179.191,-277.856 177.283,-284.591"/>
</g>
<!-- Node7 -->
<g id="node7" class="node"><title>Node7</title>
<g id="a_node7"><a xlink:href="classCSMPrefs_1_1Setting.html#a2b3d1873a3f7ec7839fa77d5b49404e9" target="_top" xlink:title="CSMPrefs::Setting::\lgetMutex">
<polygon fill="white" stroke="black" points="191.5,-235 191.5,-265 292.5,-265 292.5,-235 191.5,-235"/>
<text text-anchor="start" x="199.5" y="-253" font-family="FreeSans" font-size="10.00">CSMPrefs::Setting::</text>
<text text-anchor="middle" x="242" y="-242" font-family="FreeSans" font-size="10.00">getMutex</text>
</a>
</g>
</g>
<!-- Node1&#45;&gt;Node7 -->
<g id="edge6" class="edge"><title>Node1&#45;&gt;Node7</title>
<path fill="none" stroke="midnightblue" d="M133.897,-250C149.414,-250 165.87,-250 181.106,-250"/>
<polygon fill="midnightblue" stroke="midnightblue" points="181.432,-253.5 191.432,-250 181.432,-246.5 181.432,-253.5"/>
</g>
<!-- Node8 -->
<g id="node8" class="node"><title>Node8</title>
<g id="a_node8"><a xlink:href="classCSMPrefs_1_1Setting.html#a9002683919156657ba02126857669b68" target="_top" xlink:title="CSMPrefs::Setting::\lgetValues">
<polygon fill="white" stroke="black" points="191.5,-186 191.5,-216 292.5,-216 292.5,-186 191.5,-186"/>
<text text-anchor="start" x="199.5" y="-204" font-family="FreeSans" font-size="10.00">CSMPrefs::Setting::</text>
<text text-anchor="middle" x="242" y="-193" font-family="FreeSans" font-size="10.00">getValues</text>
</a>
</g>
</g>
<!-- Node1&#45;&gt;Node8 -->
<g id="edge7" class="edge"><title>Node1&#45;&gt;Node8</title>
<path fill="none" stroke="midnightblue" d="M121.317,-234.899C140.427,-229.486 162.083,-223.352 181.67,-217.804"/>
<polygon fill="midnightblue" stroke="midnightblue" points="182.731,-221.142 191.399,-215.049 180.824,-214.407 182.731,-221.142"/>
</g>
<!-- Node9 -->
<g id="node9" class="node"><title>Node9</title>
<g id="a_node9"><a xlink:href="classSettings_1_1Manager.html#acead7bf409b5b14c78af0572add22264" target="_top" xlink:title="Settings::Manager::\lsetString">
<polygon fill="white" stroke="black" points="193,-137 193,-167 291,-167 291,-137 193,-137"/>
<text text-anchor="start" x="201" y="-155" font-family="FreeSans" font-size="10.00">Settings::Manager::</text>
<text text-anchor="middle" x="242" y="-144" font-family="FreeSans" font-size="10.00">setString</text>
</a>
</g>
</g>
<!-- Node1&#45;&gt;Node9 -->
<g id="edge8" class="edge"><title>Node1&#45;&gt;Node9</title>
<path fill="none" stroke="midnightblue" d="M85.7774,-234.88C105.37,-218.809 138.32,-193.487 170,-177 174.267,-174.779 178.776,-172.68 183.367,-170.713"/>
<polygon fill="midnightblue" stroke="midnightblue" points="184.905,-173.867 192.859,-166.867 182.276,-167.379 184.905,-173.867"/>
</g>
<!-- Node10 -->
<g id="node10" class="node"><title>Node10</title>
<g id="a_node10"><a xlink:href="classCSMPrefs_1_1Setting.html#a532495635af911db7f7fdbc05dbddcfc" target="_top" xlink:title="CSMPrefs::Setting::\lgetParent">
<polygon fill="white" stroke="black" points="191.5,-88 191.5,-118 292.5,-118 292.5,-88 191.5,-88"/>
<text text-anchor="start" x="199.5" y="-106" font-family="FreeSans" font-size="10.00">CSMPrefs::Setting::</text>
<text text-anchor="middle" x="242" y="-95" font-family="FreeSans" font-size="10.00">getParent</text>
</a>
</g>
</g>
<!-- Node1&#45;&gt;Node10 -->
<g id="edge9" class="edge"><title>Node1&#45;&gt;Node10</title>
<path fill="none" stroke="midnightblue" d="M76.9907,-234.602C92.7078,-208.96 127.581,-157.427 170,-128 173.725,-125.416 177.743,-123.074 181.908,-120.954"/>
<polygon fill="midnightblue" stroke="midnightblue" points="183.589,-124.033 191.202,-116.664 180.655,-117.678 183.589,-124.033"/>
</g>
<!-- Node11 -->
<g id="node11" class="node"><title>Node11</title>
<g id="a_node11"><a xlink:href="classCSMPrefs_1_1Category.html#a0b57577912ca3dbf69f4bb40f9e1475c" target="_top" xlink:title="CSMPrefs::Category\l::getState">
<polygon fill="white" stroke="black" points="190,-39 190,-69 294,-69 294,-39 190,-39"/>
<text text-anchor="start" x="198" y="-57" font-family="FreeSans" font-size="10.00">CSMPrefs::Category</text>
<text text-anchor="middle" x="242" y="-46" font-family="FreeSans" font-size="10.00">::getState</text>
</a>
</g>
</g>
<!-- Node1&#45;&gt;Node11 -->
<g id="edge10" class="edge"><title>Node1&#45;&gt;Node11</title>
<path fill="none" stroke="midnightblue" d="M73.0002,-234.822C84.6571,-201.728 116.761,-122.562 170,-79 173.3,-76.3001 176.911,-73.8823 180.702,-71.7186"/>
<polygon fill="midnightblue" stroke="midnightblue" points="182.462,-74.751 189.809,-67.1178 179.306,-68.503 182.462,-74.751"/>
</g>
<!-- Node12 -->
<g id="node12" class="node"><title>Node12</title>
<g id="a_node12"><a xlink:href="classCSMPrefs_1_1State.html#a2f07ea64d027b367d0d42d57beb6e01c" target="_top" xlink:title="CSMPrefs::State::update">
<polygon fill="white" stroke="black" points="181,-0.5 181,-19.5 303,-19.5 303,-0.5 181,-0.5"/>
<text text-anchor="middle" x="242" y="-7.5" font-family="FreeSans" font-size="10.00">CSMPrefs::State::update</text>
</a>
</g>
</g>
<!-- Node1&#45;&gt;Node12 -->
<g id="edge11" class="edge"><title>Node1&#45;&gt;Node12</title>
<path fill="none" stroke="midnightblue" d="M70.5433,-234.829C78.0399,-194.95 103.823,-86.3785 170,-30 172.535,-27.8407 175.287,-25.9138 178.186,-24.1942"/>
<polygon fill="midnightblue" stroke="midnightblue" points="179.894,-27.2529 187.255,-19.6328 176.749,-20.9994 179.894,-27.2529"/>
</g>
</g>
</svg>
