<?xml version="1.0" encoding="UTF-8" standalone="no"?>
<!DOCTYPE svg PUBLIC "-//W3C//DTD SVG 1.1//EN"
 "http://www.w3.org/Graphics/SVG/1.1/DTD/svg11.dtd">
<!-- Generated by graphviz version 2.36.0 (20140111.2315)
 -->
<!-- Title: CSMWorld::NestedLevListRefIdAdapter::getNestedData Pages: 1 -->
<svg width="470pt" height="115pt"
 viewBox="0.00 0.00 470.00 115.00" xmlns="http://www.w3.org/2000/svg" xmlns:xlink="http://www.w3.org/1999/xlink">
<g id="graph0" class="graph" transform="scale(1 1) rotate(0) translate(4 111)">
<title>CSMWorld::NestedLevListRefIdAdapter::getNestedData</title>
<polygon fill="white" stroke="none" points="-4,4 -4,-111 466,-111 466,4 -4,4"/>
<!-- Node1 -->
<g id="node1" class="node"><title>Node1</title>
<polygon fill="#bfbfbf" stroke="black" points="0,-33 0,-63 152,-63 152,-33 0,-33"/>
<text text-anchor="start" x="8" y="-51" font-family="FreeSans" font-size="10.00">CSMWorld::NestedLevListRef</text>
<text text-anchor="middle" x="76" y="-40" font-family="FreeSans" font-size="10.00">IdAdapter::getNestedData</text>
</g>
<!-- Node2 -->
<g id="node2" class="node"><title>Node2</title>
<g id="a_node2"><a xlink:href="classCSMWorld_1_1RefIdData.html#a626cfa90f6654bff1de66058c2103ce0" target="_top" xlink:title="CSMWorld::RefIdData\l::getRecord">
<polygon fill="white" stroke="black" points="192,-77 192,-107 308,-107 308,-77 192,-77"/>
<text text-anchor="start" x="200" y="-95" font-family="FreeSans" font-size="10.00">CSMWorld::RefIdData</text>
<text text-anchor="middle" x="250" y="-84" font-family="FreeSans" font-size="10.00">::getRecord</text>
</a>
</g>
</g>
<!-- Node1&#45;&gt;Node2 -->
<g id="edge1" class="edge"><title>Node1&#45;&gt;Node2</title>
<path fill="none" stroke="midnightblue" d="M135.712,-63.0192C150.56,-66.8177 166.62,-70.926 181.85,-74.822"/>
<polygon fill="midnightblue" stroke="midnightblue" points="181.162,-78.2587 191.717,-77.3462 182.897,-71.477 181.162,-78.2587"/>
</g>
<!-- Node3 -->
<g id="node3" class="node"><title>Node3</title>
<g id="a_node3"><a xlink:href="bsatool_8cpp.html#a6e7f1179c5854ac3883506e79162011b" target="_top" xlink:title="list">
<polygon fill="white" stroke="black" points="235,-38.5 235,-57.5 265,-57.5 265,-38.5 235,-38.5"/>
<text text-anchor="middle" x="250" y="-45.5" font-family="FreeSans" font-size="10.00">list</text>
</a>
</g>
</g>
<!-- Node1&#45;&gt;Node3 -->
<g id="edge2" class="edge"><title>Node1&#45;&gt;Node3</title>
<path fill="none" stroke="midnightblue" d="M152.191,-48C178.337,-48 205.837,-48 224.817,-48"/>
<polygon fill="midnightblue" stroke="midnightblue" points="224.933,-51.5001 234.933,-48 224.933,-44.5001 224.933,-51.5001"/>
</g>
<!-- Node5 -->
<g id="node5" class="node"><title>Node5</title>
<g id="a_node5"><a xlink:href="structCSMWorld_1_1Record.html#a405cc96a8dfcbde494e58db281b827b3" target="_top" xlink:title="Throws an exception, if the record is deleted. ">
<polygon fill="white" stroke="black" points="188,-0.5 188,-19.5 312,-19.5 312,-0.5 188,-0.5"/>
<text text-anchor="middle" x="250" y="-7.5" font-family="FreeSans" font-size="10.00">CSMWorld::Record::get</text>
</a>
</g>
</g>
<!-- Node1&#45;&gt;Node5 -->
<g id="edge4" class="edge"><title>Node1&#45;&gt;Node5</title>
<path fill="none" stroke="midnightblue" d="M144.979,-32.9814C162.009,-29.219 180.025,-25.2386 196.193,-21.6666"/>
<polygon fill="midnightblue" stroke="midnightblue" points="196.986,-25.0759 205.996,-19.5009 195.476,-18.2407 196.986,-25.0759"/>
</g>
<!-- Node4 -->
<g id="node4" class="node"><title>Node4</title>
<g id="a_node4"><a xlink:href="classBsa_1_1BSAFile.html#ad7972a16602af590be0ed8401b9413c2" target="_top" xlink:title="Bsa::BSAFile::getList">
<polygon fill="white" stroke="black" points="348,-38.5 348,-57.5 462,-57.5 462,-38.5 348,-38.5"/>
<text text-anchor="middle" x="405" y="-45.5" font-family="FreeSans" font-size="10.00">Bsa::BSAFile::getList</text>
</a>
</g>
</g>
<!-- Node3&#45;&gt;Node4 -->
<g id="edge3" class="edge"><title>Node3&#45;&gt;Node4</title>
<path fill="none" stroke="midnightblue" d="M265.12,-48C281.716,-48 310.431,-48 337.46,-48"/>
<polygon fill="midnightblue" stroke="midnightblue" points="337.707,-51.5001 347.707,-48 337.707,-44.5001 337.707,-51.5001"/>
</g>
</g>
</svg>
