<?xml version="1.0" encoding="UTF-8" standalone="no"?>
<!DOCTYPE svg PUBLIC "-//W3C//DTD SVG 1.1//EN"
 "http://www.w3.org/Graphics/SVG/1.1/DTD/svg11.dtd">
<!-- Generated by graphviz version 2.36.0 (20140111.2315)
 -->
<!-- Title: anonymous_namespace{animation.cpp}::FindVfxCallbacksVisitor Pages: 1 -->
<svg width="190pt" height="248pt"
 viewBox="0.00 0.00 190.00 248.00" xmlns="http://www.w3.org/2000/svg" xmlns:xlink="http://www.w3.org/1999/xlink">
<g id="graph0" class="graph" transform="scale(1 1) rotate(0) translate(4 244)">
<title>anonymous_namespace{animation.cpp}::FindVfxCallbacksVisitor</title>
<polygon fill="white" stroke="none" points="-4,4 -4,-244 186,-244 186,4 -4,4"/>
<!-- Node1 -->
<g id="node1" class="node"><title>Node1</title>
<polygon fill="#bfbfbf" stroke="black" points="0,-0.5 0,-145.5 182,-145.5 182,-0.5 0,-0.5"/>
<text text-anchor="start" x="8" y="-133.5" font-family="FreeSans" font-size="10.00">anonymous_namespace</text>
<text text-anchor="start" x="8" y="-122.5" font-family="FreeSans" font-size="10.00">{animation.cpp}::FindVfxCallbacks</text>
<text text-anchor="middle" x="91" y="-111.5" font-family="FreeSans" font-size="10.00">Visitor</text>
<polyline fill="none" stroke="black" points="0,-104.5 182,-104.5 "/>
<text text-anchor="start" x="8" y="-92.5" font-family="FreeSans" font-size="10.00">+ mCallbacks</text>
<text text-anchor="start" x="8" y="-81.5" font-family="FreeSans" font-size="10.00">&#45; mEffectId</text>
<polyline fill="none" stroke="black" points="0,-74.5 182,-74.5 "/>
<text text-anchor="start" x="8" y="-62.5" font-family="FreeSans" font-size="10.00">+ FindVfxCallbacksVisitor()</text>
<text text-anchor="start" x="8" y="-51.5" font-family="FreeSans" font-size="10.00">+ FindVfxCallbacksVisitor()</text>
<text text-anchor="start" x="8" y="-40.5" font-family="FreeSans" font-size="10.00">+ apply()</text>
<text text-anchor="start" x="8" y="-29.5" font-family="FreeSans" font-size="10.00">+ apply()</text>
<text text-anchor="start" x="8" y="-18.5" font-family="FreeSans" font-size="10.00">+ apply()</text>
<text text-anchor="start" x="8" y="-7.5" font-family="FreeSans" font-size="10.00">+ apply()</text>
</g>
<!-- Node2 -->
<g id="node2" class="node"><title>Node2</title>
<polygon fill="white" stroke="#bfbfbf" points="55,-182.5 55,-239.5 127,-239.5 127,-182.5 55,-182.5"/>
<text text-anchor="middle" x="91" y="-227.5" font-family="FreeSans" font-size="10.00">NodeVisitor</text>
<polyline fill="none" stroke="#bfbfbf" points="55,-220.5 127,-220.5 "/>
<text text-anchor="middle" x="91" y="-208.5" font-family="FreeSans" font-size="10.00"> </text>
<polyline fill="none" stroke="#bfbfbf" points="55,-201.5 127,-201.5 "/>
<text text-anchor="middle" x="91" y="-189.5" font-family="FreeSans" font-size="10.00"> </text>
</g>
<!-- Node2&#45;&gt;Node1 -->
<g id="edge1" class="edge"><title>Node2&#45;&gt;Node1</title>
<path fill="none" stroke="midnightblue" d="M91,-172.356C91,-163.999 91,-154.872 91,-145.656"/>
<polygon fill="none" stroke="midnightblue" points="87.5001,-172.478 91,-182.478 94.5001,-172.478 87.5001,-172.478"/>
</g>
</g>
</svg>
