<?xml version="1.0" encoding="UTF-8" standalone="no"?>
<!DOCTYPE svg PUBLIC "-//W3C//DTD SVG 1.1//EN"
 "http://www.w3.org/Graphics/SVG/1.1/DTD/svg11.dtd">
<!-- Generated by graphviz version 2.36.0 (20140111.2315)
 -->
<!-- Title: ESM::Script::load Pages: 1 -->
<svg width="1176pt" height="811pt"
 viewBox="0.00 0.00 1176.00 811.00" xmlns="http://www.w3.org/2000/svg" xmlns:xlink="http://www.w3.org/1999/xlink">
<g id="graph0" class="graph" transform="scale(1 1) rotate(0) translate(4 807)">
<title>ESM::Script::load</title>
<polygon fill="white" stroke="none" points="-4,4 -4,-807 1172,-807 1172,4 -4,4"/>
<!-- Node1 -->
<g id="node1" class="node"><title>Node1</title>
<polygon fill="#bfbfbf" stroke="black" points="0,-437.5 0,-456.5 90,-456.5 90,-437.5 0,-437.5"/>
<text text-anchor="middle" x="45" y="-444.5" font-family="FreeSans" font-size="10.00">ESM::Script::load</text>
</g>
<!-- Node2 -->
<g id="node2" class="node"><title>Node2</title>
<g id="a_node2"><a xlink:href="classESM_1_1ESMReader.html#abfd3da13c7227ed9d445ceed1a70f874" target="_top" xlink:title="ESM::ESMReader::hasMoreSubs">
<polygon fill="white" stroke="black" points="126.5,-783.5 126.5,-802.5 283.5,-802.5 283.5,-783.5 126.5,-783.5"/>
<text text-anchor="middle" x="205" y="-790.5" font-family="FreeSans" font-size="10.00">ESM::ESMReader::hasMoreSubs</text>
</a>
</g>
</g>
<!-- Node1&#45;&gt;Node2 -->
<g id="edge1" class="edge"><title>Node1&#45;&gt;Node2</title>
<path fill="none" stroke="midnightblue" d="M47.1171,-456.632C52.9163,-505.063 81.0586,-721.517 126,-769 129.62,-772.825 133.834,-776.045 138.392,-778.756"/>
<polygon fill="midnightblue" stroke="midnightblue" points="137.013,-781.98 147.517,-783.365 140.169,-775.732 137.013,-781.98"/>
</g>
<!-- Node3 -->
<g id="node3" class="node"><title>Node3</title>
<g id="a_node3"><a xlink:href="classESM_1_1ESMReader.html#aa47320943a7a01bccbec8bab921b0df7" target="_top" xlink:title="ESM::ESMReader::getSubName">
<polygon fill="white" stroke="black" points="127.5,-630.5 127.5,-649.5 282.5,-649.5 282.5,-630.5 127.5,-630.5"/>
<text text-anchor="middle" x="205" y="-637.5" font-family="FreeSans" font-size="10.00">ESM::ESMReader::getSubName</text>
</a>
</g>
</g>
<!-- Node1&#45;&gt;Node3 -->
<g id="edge2" class="edge"><title>Node1&#45;&gt;Node3</title>
<path fill="none" stroke="midnightblue" d="M53.8352,-456.571C78.8436,-487.119 157.017,-582.61 189.56,-622.361"/>
<polygon fill="midnightblue" stroke="midnightblue" points="187.075,-624.851 196.117,-630.371 192.491,-620.416 187.075,-624.851"/>
</g>
<!-- Node6 -->
<g id="node6" class="node"><title>Node6</title>
<g id="a_node6"><a xlink:href="classESM_1_1ESMReader.html#a641a33a8cba2fc61d6431505391c5975" target="_top" xlink:title="Used for error handling. ">
<polygon fill="white" stroke="black" points="876.5,-361.5 876.5,-380.5 987.5,-380.5 987.5,-361.5 876.5,-361.5"/>
<text text-anchor="middle" x="932" y="-368.5" font-family="FreeSans" font-size="10.00">ESM::ESMReader::fail</text>
</a>
</g>
</g>
<!-- Node1&#45;&gt;Node6 -->
<g id="edge44" class="edge"><title>Node1&#45;&gt;Node6</title>
<path fill="none" stroke="midnightblue" d="M46.8779,-437.493C50.5303,-402.486 67.1974,-278.727 126,-200 209.104,-88.7376 260.128,-48 399,-48 399,-48 399,-48 593,-48 770.181,-48 890.959,-282.858 922.694,-352.043"/>
<polygon fill="midnightblue" stroke="midnightblue" points="919.578,-353.649 926.872,-361.333 925.962,-350.778 919.578,-353.649"/>
</g>
<!-- Node7 -->
<g id="node7" class="node"><title>Node7</title>
<g id="a_node7"><a xlink:href="classESM_1_1FIXED__STRING__BASE.html#ac6bed15d6c4aa261d961420d4af645c7" target="_top" xlink:title="ESM::FIXED_STRING_BASE\l::toString">
<polygon fill="white" stroke="black" points="1024,-356 1024,-386 1168,-386 1168,-356 1024,-356"/>
<text text-anchor="start" x="1032" y="-374" font-family="FreeSans" font-size="10.00">ESM::FIXED_STRING_BASE</text>
<text text-anchor="middle" x="1096" y="-363" font-family="FreeSans" font-size="10.00">::toString</text>
</a>
</g>
</g>
<!-- Node1&#45;&gt;Node7 -->
<g id="edge16" class="edge"><title>Node1&#45;&gt;Node7</title>
<path fill="none" stroke="midnightblue" d="M46.9256,-456.941C50.5368,-490.192 66.57,-598.82 126,-659 216.374,-750.514 270.383,-755 399,-755 399,-755 399,-755 773,-755 961.337,-755 1061.4,-480.431 1087.81,-395.639"/>
<polygon fill="midnightblue" stroke="midnightblue" points="1091.16,-396.639 1090.73,-386.053 1084.47,-394.599 1091.16,-396.639"/>
</g>
<!-- Node9 -->
<g id="node9" class="node"><title>Node9</title>
<g id="a_node9"><a xlink:href="classESM_1_1ESMReader.html#afe83c43d1818dd2c3815307d97beae45" target="_top" xlink:title="ESM::ESMReader::retSubName">
<polygon fill="white" stroke="black" points="129,-0.5 129,-19.5 281,-19.5 281,-0.5 129,-0.5"/>
<text text-anchor="middle" x="205" y="-7.5" font-family="FreeSans" font-size="10.00">ESM::ESMReader::retSubName</text>
</a>
</g>
</g>
<!-- Node1&#45;&gt;Node9 -->
<g id="edge8" class="edge"><title>Node1&#45;&gt;Node9</title>
<path fill="none" stroke="midnightblue" d="M46.5489,-437.387C49.9386,-381.296 69.7545,-96.6207 126,-34 129.462,-30.1461 133.525,-26.9035 137.949,-24.1762"/>
<polygon fill="midnightblue" stroke="midnightblue" points="139.587,-27.2692 146.835,-19.5412 136.35,-21.0627 139.587,-27.2692"/>
</g>
<!-- Node10 -->
<g id="node10" class="node"><title>Node10</title>
<g id="a_node10"><a xlink:href="classESM_1_1ESMReader.html#a1499e8005481bc7f13f4de0c2f3b9ee4" target="_top" xlink:title="ESM::ESMReader::getHT">
<polygon fill="white" stroke="black" points="142.5,-456.5 142.5,-475.5 267.5,-475.5 267.5,-456.5 142.5,-456.5"/>
<text text-anchor="middle" x="205" y="-463.5" font-family="FreeSans" font-size="10.00">ESM::ESMReader::getHT</text>
</a>
</g>
</g>
<!-- Node1&#45;&gt;Node10 -->
<g id="edge9" class="edge"><title>Node1&#45;&gt;Node10</title>
<path fill="none" stroke="midnightblue" d="M90.0118,-452.293C103.017,-453.856 117.608,-455.611 131.895,-457.329"/>
<polygon fill="midnightblue" stroke="midnightblue" points="131.872,-460.852 142.218,-458.571 132.708,-453.902 131.872,-460.852"/>
</g>
<!-- Node13 -->
<g id="node13" class="node"><title>Node13</title>
<g id="a_node13"><a xlink:href="classESM_1_1Script.html#ae203ba3938df708bd4ecde9c2ba9e18a" target="_top" xlink:title="ESM::Script::loadSCVR">
<polygon fill="white" stroke="black" points="147,-209.5 147,-228.5 263,-228.5 263,-209.5 147,-209.5"/>
<text text-anchor="middle" x="205" y="-216.5" font-family="FreeSans" font-size="10.00">ESM::Script::loadSCVR</text>
</a>
</g>
</g>
<!-- Node1&#45;&gt;Node13 -->
<g id="edge17" class="edge"><title>Node1&#45;&gt;Node13</title>
<path fill="none" stroke="midnightblue" d="M52.5879,-437.493C76.6292,-402.801 159.884,-282.66 191.599,-236.895"/>
<polygon fill="midnightblue" stroke="midnightblue" points="194.565,-238.76 197.384,-228.547 188.811,-234.773 194.565,-238.76"/>
</g>
<!-- Node19 -->
<g id="node19" class="node"><title>Node19</title>
<g id="a_node19"><a xlink:href="classESM_1_1ESMReader.html#ae682dd0473dd84c4e7155c3be70a3a02" target="_top" xlink:title="ESM::ESMReader::getHExact">
<polygon fill="white" stroke="black" points="133.5,-418.5 133.5,-437.5 276.5,-437.5 276.5,-418.5 133.5,-418.5"/>
<text text-anchor="middle" x="205" y="-425.5" font-family="FreeSans" font-size="10.00">ESM::ESMReader::getHExact</text>
</a>
</g>
</g>
<!-- Node1&#45;&gt;Node19 -->
<g id="edge28" class="edge"><title>Node1&#45;&gt;Node19</title>
<path fill="none" stroke="midnightblue" d="M90.0118,-441.707C100.393,-440.459 111.785,-439.089 123.227,-437.713"/>
<polygon fill="midnightblue" stroke="midnightblue" points="123.759,-441.175 133.27,-436.506 122.923,-434.225 123.759,-441.175"/>
</g>
<!-- Node20 -->
<g id="node20" class="node"><title>Node20</title>
<g id="a_node20"><a xlink:href="classESM_1_1ESMReader.html#ab0b044c1028b117dfb0aae39135af948" target="_top" xlink:title="ESM::ESMReader::getHString">
<polygon fill="white" stroke="black" points="133,-513.5 133,-532.5 277,-532.5 277,-513.5 133,-513.5"/>
<text text-anchor="middle" x="205" y="-520.5" font-family="FreeSans" font-size="10.00">ESM::ESMReader::getHString</text>
</a>
</g>
</g>
<!-- Node1&#45;&gt;Node20 -->
<g id="edge32" class="edge"><title>Node1&#45;&gt;Node20</title>
<path fill="none" stroke="midnightblue" d="M66.0108,-456.625C93.5536,-469.874 143.322,-493.813 174.96,-509.031"/>
<polygon fill="midnightblue" stroke="midnightblue" points="173.623,-512.272 184.152,-513.453 176.657,-505.964 173.623,-512.272"/>
</g>
<!-- Node26 -->
<g id="node26" class="node"><title>Node26</title>
<g id="a_node26"><a xlink:href="classESM_1_1ESMReader.html#a1b4ca455240f53cfa6d49f9a4a084354" target="_top" xlink:title="ESM::ESMReader::skipHSub">
<polygon fill="white" stroke="black" points="135,-380.5 135,-399.5 275,-399.5 275,-380.5 135,-380.5"/>
<text text-anchor="middle" x="205" y="-387.5" font-family="FreeSans" font-size="10.00">ESM::ESMReader::skipHSub</text>
</a>
</g>
</g>
<!-- Node1&#45;&gt;Node26 -->
<g id="edge41" class="edge"><title>Node1&#45;&gt;Node26</title>
<path fill="none" stroke="midnightblue" d="M63.3528,-437.483C79.2681,-429.065 103.686,-416.923 126,-409 133.123,-406.471 140.729,-404.16 148.293,-402.09"/>
<polygon fill="midnightblue" stroke="midnightblue" points="149.38,-405.423 158.169,-399.507 147.609,-398.651 149.38,-405.423"/>
</g>
<!-- Node4 -->
<g id="node4" class="node"><title>Node4</title>
<g id="a_node4"><a xlink:href="classESM_1_1FIXED__STRING__BASE.html#ab142a6277b602eba117776eb8e4c508c" target="_top" xlink:title="ESM::FIXED_STRING_BASE\l::data_size">
<polygon fill="white" stroke="black" points="328,-696 328,-726 472,-726 472,-696 328,-696"/>
<text text-anchor="start" x="336" y="-714" font-family="FreeSans" font-size="10.00">ESM::FIXED_STRING_BASE</text>
<text text-anchor="middle" x="400" y="-703" font-family="FreeSans" font-size="10.00">::data_size</text>
</a>
</g>
</g>
<!-- Node3&#45;&gt;Node4 -->
<g id="edge3" class="edge"><title>Node3&#45;&gt;Node4</title>
<path fill="none" stroke="midnightblue" d="M228.086,-649.502C250.911,-659.181 287.664,-674.379 320,-686 326.367,-688.288 333.061,-690.579 339.747,-692.795"/>
<polygon fill="midnightblue" stroke="midnightblue" points="338.905,-696.202 349.498,-695.979 341.078,-689.548 338.905,-696.202"/>
</g>
<!-- Node5 -->
<g id="node5" class="node"><title>Node5</title>
<g id="a_node5"><a xlink:href="classESM_1_1ESMReader.html#a623f3d4d7107adf94aeb7c234d01bc9e" target="_top" xlink:title="ESM::ESMReader::getExact">
<polygon fill="white" stroke="black" points="704,-494.5 704,-513.5 840,-513.5 840,-494.5 704,-494.5"/>
<text text-anchor="middle" x="772" y="-501.5" font-family="FreeSans" font-size="10.00">ESM::ESMReader::getExact</text>
</a>
</g>
</g>
<!-- Node3&#45;&gt;Node5 -->
<g id="edge4" class="edge"><title>Node3&#45;&gt;Node5</title>
<path fill="none" stroke="midnightblue" d="M282.859,-634.945C395.618,-626.726 599.883,-608.561 668,-581 702.408,-567.078 735.565,-538.764 754.585,-520.623"/>
<polygon fill="midnightblue" stroke="midnightblue" points="757.125,-523.034 761.833,-513.542 752.234,-518.027 757.125,-523.034"/>
</g>
<!-- Node8 -->
<g id="node8" class="node"><title>Node8</title>
<g id="a_node8"><a xlink:href="structESM_1_1FIXED__STRING_3_014_01_4.html#a71af1f5e0756f2fa5b587bda6fc64ec3" target="_top" xlink:title="ESM::FIXED_STRING\&lt;\l 4 \&gt;::rw_data">
<polygon fill="white" stroke="black" points="340.5,-647 340.5,-677 459.5,-677 459.5,-647 340.5,-647"/>
<text text-anchor="start" x="348.5" y="-665" font-family="FreeSans" font-size="10.00">ESM::FIXED_STRING&lt;</text>
<text text-anchor="middle" x="400" y="-654" font-family="FreeSans" font-size="10.00"> 4 &gt;::rw_data</text>
</a>
</g>
</g>
<!-- Node3&#45;&gt;Node8 -->
<g id="edge7" class="edge"><title>Node3&#45;&gt;Node8</title>
<path fill="none" stroke="midnightblue" d="M282.556,-648.727C298.355,-650.527 314.899,-652.413 330.394,-654.18"/>
<polygon fill="midnightblue" stroke="midnightblue" points="330.074,-657.666 340.406,-655.321 330.867,-650.711 330.074,-657.666"/>
</g>
<!-- Node5&#45;&gt;Node6 -->
<g id="edge5" class="edge"><title>Node5&#45;&gt;Node6</title>
<path fill="none" stroke="midnightblue" d="M784.363,-494.435C811.107,-471.922 878.278,-415.38 911.613,-387.32"/>
<polygon fill="midnightblue" stroke="midnightblue" points="913.917,-389.955 919.314,-380.837 909.409,-384.599 913.917,-389.955"/>
</g>
<!-- Node6&#45;&gt;Node7 -->
<g id="edge6" class="edge"><title>Node6&#45;&gt;Node7</title>
<path fill="none" stroke="midnightblue" d="M987.846,-371C996.159,-371 1004.88,-371 1013.61,-371"/>
<polygon fill="midnightblue" stroke="midnightblue" points="1013.84,-374.5 1023.84,-371 1013.84,-367.5 1013.84,-374.5"/>
</g>
<!-- Node10&#45;&gt;Node6 -->
<g id="edge14" class="edge"><title>Node10&#45;&gt;Node6</title>
<path fill="none" stroke="midnightblue" d="M267.936,-460.718C381.728,-450.56 631.521,-426.153 840,-391 853.6,-388.707 868.236,-385.722 881.709,-382.762"/>
<polygon fill="midnightblue" stroke="midnightblue" points="882.754,-386.114 891.748,-380.514 881.225,-379.283 882.754,-386.114"/>
</g>
<!-- Node11 -->
<g id="node11" class="node"><title>Node11</title>
<g id="a_node11"><a xlink:href="classESM_1_1ESMReader.html#a365650896a89c3dcb43b2f240e6d5653" target="_top" xlink:title="ESM::ESMReader::getSubHeader">
<polygon fill="white" stroke="black" points="320,-380.5 320,-399.5 480,-399.5 480,-380.5 320,-380.5"/>
<text text-anchor="middle" x="400" y="-387.5" font-family="FreeSans" font-size="10.00">ESM::ESMReader::getSubHeader</text>
</a>
</g>
</g>
<!-- Node10&#45;&gt;Node11 -->
<g id="edge10" class="edge"><title>Node10&#45;&gt;Node11</title>
<path fill="none" stroke="midnightblue" d="M252.698,-456.41C263.13,-453.776 274.048,-450.628 284,-447 315.875,-435.381 350.511,-417.421 373.351,-404.773"/>
<polygon fill="midnightblue" stroke="midnightblue" points="375.365,-407.656 382.374,-399.711 371.94,-401.551 375.365,-407.656"/>
</g>
<!-- Node12 -->
<g id="node12" class="node"><title>Node12</title>
<g id="a_node12"><a xlink:href="classESM_1_1ESMReader.html#a04b4761b24d98c455289c437d28baea8" target="_top" xlink:title="ESM::ESMReader::getT">
<polygon fill="white" stroke="black" points="533,-494.5 533,-513.5 651,-513.5 651,-494.5 533,-494.5"/>
<text text-anchor="middle" x="592" y="-501.5" font-family="FreeSans" font-size="10.00">ESM::ESMReader::getT</text>
</a>
</g>
</g>
<!-- Node10&#45;&gt;Node12 -->
<g id="edge15" class="edge"><title>Node10&#45;&gt;Node12</title>
<path fill="none" stroke="midnightblue" d="M267.783,-473.974C284.7,-476.052 303.045,-478.209 320,-480 388.839,-487.273 467.675,-494.084 522.502,-498.579"/>
<polygon fill="midnightblue" stroke="midnightblue" points="522.543,-502.094 532.795,-499.419 523.112,-495.117 522.543,-502.094"/>
</g>
<!-- Node11&#45;&gt;Node6 -->
<g id="edge11" class="edge"><title>Node11&#45;&gt;Node6</title>
<path fill="none" stroke="midnightblue" d="M480.06,-387.166C585.132,-383.399 768.821,-376.814 866.168,-373.324"/>
<polygon fill="midnightblue" stroke="midnightblue" points="866.303,-376.822 876.171,-372.966 866.052,-369.826 866.303,-376.822"/>
</g>
<!-- Node11&#45;&gt;Node12 -->
<g id="edge12" class="edge"><title>Node11&#45;&gt;Node12</title>
<path fill="none" stroke="midnightblue" d="M416.872,-399.523C449.983,-419.39 526.623,-465.374 566.261,-489.156"/>
<polygon fill="midnightblue" stroke="midnightblue" points="564.663,-492.28 575.039,-494.423 568.265,-486.277 564.663,-492.28"/>
</g>
<!-- Node12&#45;&gt;Node5 -->
<g id="edge13" class="edge"><title>Node12&#45;&gt;Node5</title>
<path fill="none" stroke="midnightblue" d="M651.284,-504C664.828,-504 679.453,-504 693.674,-504"/>
<polygon fill="midnightblue" stroke="midnightblue" points="693.936,-507.5 703.936,-504 693.936,-500.5 693.936,-507.5"/>
</g>
<!-- Node13&#45;&gt;Node5 -->
<g id="edge21" class="edge"><title>Node13&#45;&gt;Node5</title>
<path fill="none" stroke="midnightblue" d="M263.079,-219.209C372.152,-220.69 604.969,-229.391 668,-276 738.186,-327.9 761.652,-438.825 768.497,-484.117"/>
<polygon fill="midnightblue" stroke="midnightblue" points="765.048,-484.722 769.898,-494.142 771.98,-483.754 765.048,-484.722"/>
</g>
<!-- Node13&#45;&gt;Node6 -->
<g id="edge20" class="edge"><title>Node13&#45;&gt;Node6</title>
<path fill="none" stroke="midnightblue" d="M263.244,-211.53C351.981,-201.95 527.191,-191.066 668,-232 764.301,-259.995 865.832,-325.498 909.248,-355.498"/>
<polygon fill="midnightblue" stroke="midnightblue" points="907.405,-358.48 917.608,-361.335 911.412,-352.741 907.405,-358.48"/>
</g>
<!-- Node13&#45;&gt;Node7 -->
<g id="edge26" class="edge"><title>Node13&#45;&gt;Node7</title>
<path fill="none" stroke="midnightblue" d="M210.237,-209.257C222.668,-181.914 261.858,-104.046 320,-67 423.8,-0.86192 467.92,-10 591,-10 591,-10 591,-10 773,-10 953.44,-10 1057.81,-264.28 1086.7,-346.02"/>
<polygon fill="midnightblue" stroke="midnightblue" points="1083.56,-347.642 1090.14,-355.948 1090.18,-345.353 1083.56,-347.642"/>
</g>
<!-- Node13&#45;&gt;Node11 -->
<g id="edge18" class="edge"><title>Node13&#45;&gt;Node11</title>
<path fill="none" stroke="midnightblue" d="M214.684,-228.679C233.138,-249.017 278.013,-297.259 320,-333 337.929,-348.262 359.722,-363.782 375.873,-374.765"/>
<polygon fill="midnightblue" stroke="midnightblue" points="373.954,-377.693 384.205,-380.37 377.861,-371.884 373.954,-377.693"/>
</g>
<!-- Node14 -->
<g id="node14" class="node"><title>Node14</title>
<g id="a_node14"><a xlink:href="classESM_1_1ESMReader.html#aee231c113f51bd7c28f3b99067af626b" target="_top" xlink:title="ESM::ESMReader::getSubSize">
<polygon fill="white" stroke="black" points="326,-114.5 326,-133.5 474,-133.5 474,-114.5 326,-114.5"/>
<text text-anchor="middle" x="400" y="-121.5" font-family="FreeSans" font-size="10.00">ESM::ESMReader::getSubSize</text>
</a>
</g>
</g>
<!-- Node13&#45;&gt;Node14 -->
<g id="edge19" class="edge"><title>Node13&#45;&gt;Node14</title>
<path fill="none" stroke="midnightblue" d="M217.498,-209.295C237.2,-193.155 279.241,-160.813 320,-143 325.683,-140.516 331.745,-138.325 337.887,-136.4"/>
<polygon fill="midnightblue" stroke="midnightblue" points="338.936,-139.739 347.562,-133.588 336.983,-133.017 338.936,-139.739"/>
</g>
<!-- Node15 -->
<g id="node15" class="node"><title>Node15</title>
<g id="a_node15"><a xlink:href="classESM_1_1ESMReader.html#aabf8a943cb8d5ff5a2656333ff02b660" target="_top" xlink:title="ESM::ESMReader::skip">
<polygon fill="white" stroke="black" points="342,-304.5 342,-323.5 458,-323.5 458,-304.5 342,-304.5"/>
<text text-anchor="middle" x="400" y="-311.5" font-family="FreeSans" font-size="10.00">ESM::ESMReader::skip</text>
</a>
</g>
</g>
<!-- Node13&#45;&gt;Node15 -->
<g id="edge22" class="edge"><title>Node13&#45;&gt;Node15</title>
<path fill="none" stroke="midnightblue" d="M219.044,-228.726C239.586,-243.664 281.144,-272.369 320,-290 329.694,-294.399 340.412,-298.265 350.744,-301.538"/>
<polygon fill="midnightblue" stroke="midnightblue" points="349.901,-304.939 360.486,-304.492 351.932,-298.241 349.901,-304.939"/>
</g>
<!-- Node16 -->
<g id="node16" class="node"><title>Node16</title>
<g id="a_node16"><a xlink:href="classESM_1_1ESMReader.html#a9e81c5238f123a9c0f554390d9677172" target="_top" xlink:title="Get the current position in the file. Make sure that the file has been opened! ">
<polygon fill="white" stroke="black" points="516,-285.5 516,-304.5 668,-304.5 668,-285.5 516,-285.5"/>
<text text-anchor="middle" x="592" y="-292.5" font-family="FreeSans" font-size="10.00">ESM::ESMReader::getFileOffset</text>
</a>
</g>
</g>
<!-- Node13&#45;&gt;Node16 -->
<g id="edge27" class="edge"><title>Node13&#45;&gt;Node16</title>
<path fill="none" stroke="midnightblue" d="M235.265,-228.562C258.141,-235.77 290.841,-245.493 320,-252 381.587,-265.744 451.996,-276.777 505.609,-284.226"/>
<polygon fill="midnightblue" stroke="midnightblue" points="505.375,-287.726 515.759,-285.621 506.328,-280.792 505.375,-287.726"/>
</g>
<!-- Node17 -->
<g id="node17" class="node"><title>Node17</title>
<g id="a_node17"><a xlink:href="classESM_1_1ESMReader.html#a3446177572508dd219cb3a0bf6e95c2b" target="_top" xlink:title="ESM::ESMReader::getName">
<polygon fill="white" stroke="black" points="331.5,-76.5 331.5,-95.5 468.5,-95.5 468.5,-76.5 331.5,-76.5"/>
<text text-anchor="middle" x="400" y="-83.5" font-family="FreeSans" font-size="10.00">ESM::ESMReader::getName</text>
</a>
</g>
</g>
<!-- Node13&#45;&gt;Node17 -->
<g id="edge24" class="edge"><title>Node13&#45;&gt;Node17</title>
<path fill="none" stroke="midnightblue" d="M212.729,-209.283C228.633,-187.094 270.92,-132.499 320,-105 323.984,-102.768 328.224,-100.796 332.591,-99.0551"/>
<polygon fill="midnightblue" stroke="midnightblue" points="334.057,-102.249 342.306,-95.6 331.711,-95.6534 334.057,-102.249"/>
</g>
<!-- Node18 -->
<g id="node18" class="node"><title>Node18</title>
<g id="a_node18"><a xlink:href="classESM_1_1ESMReader.html#a5a6937e8a2d8fbc7e4bf6ddfc0342d4e" target="_top" xlink:title="ESM::ESMReader::getContext">
<polygon fill="white" stroke="black" points="327.5,-152.5 327.5,-171.5 472.5,-171.5 472.5,-152.5 327.5,-152.5"/>
<text text-anchor="middle" x="400" y="-159.5" font-family="FreeSans" font-size="10.00">ESM::ESMReader::getContext</text>
</a>
</g>
</g>
<!-- Node13&#45;&gt;Node18 -->
<g id="edge25" class="edge"><title>Node13&#45;&gt;Node18</title>
<path fill="none" stroke="midnightblue" d="M238.304,-209.459C270.869,-199.842 321.284,-184.952 356.95,-174.419"/>
<polygon fill="midnightblue" stroke="midnightblue" points="357.992,-177.761 366.591,-171.572 356.009,-171.047 357.992,-177.761"/>
</g>
<!-- Node15&#45;&gt;Node16 -->
<g id="edge23" class="edge"><title>Node15&#45;&gt;Node16</title>
<path fill="none" stroke="midnightblue" d="M458.006,-308.299C473.033,-306.797 489.577,-305.142 505.742,-303.526"/>
<polygon fill="midnightblue" stroke="midnightblue" points="506.139,-307.004 515.741,-302.526 505.442,-300.038 506.139,-307.004"/>
</g>
<!-- Node19&#45;&gt;Node5 -->
<g id="edge31" class="edge"><title>Node19&#45;&gt;Node5</title>
<path fill="none" stroke="midnightblue" d="M276.624,-435.388C367.407,-445.189 529.812,-463.749 668,-485 682.53,-487.234 698.154,-489.952 712.733,-492.626"/>
<polygon fill="midnightblue" stroke="midnightblue" points="712.163,-496.079 722.633,-494.463 713.44,-489.197 712.163,-496.079"/>
</g>
<!-- Node19&#45;&gt;Node6 -->
<g id="edge30" class="edge"><title>Node19&#45;&gt;Node6</title>
<path fill="none" stroke="midnightblue" d="M262.483,-418.368C269.987,-415.917 277.369,-412.847 284,-409 304.123,-397.326 298.629,-380.192 320,-371 416.514,-329.486 729.499,-352.218 866.163,-364.627"/>
<polygon fill="midnightblue" stroke="midnightblue" points="866.2,-368.145 876.478,-365.574 866.84,-361.174 866.2,-368.145"/>
</g>
<!-- Node19&#45;&gt;Node11 -->
<g id="edge29" class="edge"><title>Node19&#45;&gt;Node11</title>
<path fill="none" stroke="midnightblue" d="M254.702,-418.411C280.859,-413.261 313.284,-406.877 340.767,-401.466"/>
<polygon fill="midnightblue" stroke="midnightblue" points="341.513,-404.886 350.648,-399.52 340.16,-398.018 341.513,-404.886"/>
</g>
<!-- Node20&#45;&gt;Node5 -->
<g id="edge34" class="edge"><title>Node20&#45;&gt;Node5</title>
<path fill="none" stroke="midnightblue" d="M277.02,-527.004C367.88,-531.208 530.016,-535.62 668,-523 684.795,-521.464 702.941,-518.547 719.253,-515.451"/>
<polygon fill="midnightblue" stroke="midnightblue" points="720.006,-518.87 729.145,-513.511 718.659,-512.001 720.006,-518.87"/>
</g>
<!-- Node20&#45;&gt;Node11 -->
<g id="edge33" class="edge"><title>Node20&#45;&gt;Node11</title>
<path fill="none" stroke="midnightblue" d="M229.298,-513.393C245.22,-506.414 266.52,-496.251 284,-485 321.267,-461.014 360.101,-426.642 381.752,-406.49"/>
<polygon fill="midnightblue" stroke="midnightblue" points="384.283,-408.914 389.17,-399.514 379.487,-403.815 384.283,-408.914"/>
</g>
<!-- Node21 -->
<g id="node21" class="node"><title>Node21</title>
<g id="a_node21"><a xlink:href="classESM_1_1ESMReader.html#a8743de63f7c4cb6d89d82f38ba452127" target="_top" xlink:title="ESM::ESMReader::getString">
<polygon fill="white" stroke="black" points="331.5,-570.5 331.5,-589.5 468.5,-589.5 468.5,-570.5 331.5,-570.5"/>
<text text-anchor="middle" x="400" y="-577.5" font-family="FreeSans" font-size="10.00">ESM::ESMReader::getString</text>
</a>
</g>
</g>
<!-- Node20&#45;&gt;Node21 -->
<g id="edge35" class="edge"><title>Node20&#45;&gt;Node21</title>
<path fill="none" stroke="midnightblue" d="M238.304,-532.541C270.869,-542.158 321.284,-557.048 356.95,-567.581"/>
<polygon fill="midnightblue" stroke="midnightblue" points="356.009,-570.953 366.591,-570.428 357.992,-564.239 356.009,-570.953"/>
</g>
<!-- Node21&#45;&gt;Node5 -->
<g id="edge36" class="edge"><title>Node21&#45;&gt;Node5</title>
<path fill="none" stroke="midnightblue" d="M468.662,-580.894C523.416,-579.969 601.999,-574.878 668,-556 697.06,-547.688 727.647,-531.109 747.865,-518.896"/>
<polygon fill="midnightblue" stroke="midnightblue" points="749.711,-521.869 756.381,-513.637 746.034,-515.913 749.711,-521.869"/>
</g>
<!-- Node22 -->
<g id="node22" class="node"><title>Node22</title>
<g id="a_node22"><a xlink:href="classToUTF8_1_1Utf8Encoder.html#a69a05afd17b7270edf61c1e5edce79e9" target="_top" xlink:title="ToUTF8::Utf8Encoder\l::getUtf8">
<polygon fill="white" stroke="black" points="537,-647 537,-677 647,-677 647,-647 537,-647"/>
<text text-anchor="start" x="545" y="-665" font-family="FreeSans" font-size="10.00">ToUTF8::Utf8Encoder</text>
<text text-anchor="middle" x="592" y="-654" font-family="FreeSans" font-size="10.00">::getUtf8</text>
</a>
</g>
</g>
<!-- Node21&#45;&gt;Node22 -->
<g id="edge37" class="edge"><title>Node21&#45;&gt;Node22</title>
<path fill="none" stroke="midnightblue" d="M423.167,-589.567C453.308,-602.575 507.895,-626.134 546.624,-642.848"/>
<polygon fill="midnightblue" stroke="midnightblue" points="545.536,-646.191 556.104,-646.94 548.31,-639.764 545.536,-646.191"/>
</g>
<!-- Node23 -->
<g id="node23" class="node"><title>Node23</title>
<g id="a_node23"><a xlink:href="classToUTF8_1_1Utf8Encoder.html#a1dd97261b538a0a33218d31c82c37f74" target="_top" xlink:title="ToUTF8::Utf8Encoder\l::getLength">
<polygon fill="white" stroke="black" points="717,-696 717,-726 827,-726 827,-696 717,-696"/>
<text text-anchor="start" x="725" y="-714" font-family="FreeSans" font-size="10.00">ToUTF8::Utf8Encoder</text>
<text text-anchor="middle" x="772" y="-703" font-family="FreeSans" font-size="10.00">::getLength</text>
</a>
</g>
</g>
<!-- Node22&#45;&gt;Node23 -->
<g id="edge38" class="edge"><title>Node22&#45;&gt;Node23</title>
<path fill="none" stroke="midnightblue" d="M647.373,-676.968C666.265,-682.168 687.623,-688.048 707.206,-693.439"/>
<polygon fill="midnightblue" stroke="midnightblue" points="706.39,-696.844 716.96,-696.124 708.247,-690.095 706.39,-696.844"/>
</g>
<!-- Node24 -->
<g id="node24" class="node"><title>Node24</title>
<g id="a_node24"><a xlink:href="classToUTF8_1_1Utf8Encoder.html#a80b3e05967c1f28c1ce5325093bda679" target="_top" xlink:title="ToUTF8::Utf8Encoder\l::resize">
<polygon fill="white" stroke="black" points="717,-647 717,-677 827,-677 827,-647 717,-647"/>
<text text-anchor="start" x="725" y="-665" font-family="FreeSans" font-size="10.00">ToUTF8::Utf8Encoder</text>
<text text-anchor="middle" x="772" y="-654" font-family="FreeSans" font-size="10.00">::resize</text>
</a>
</g>
</g>
<!-- Node22&#45;&gt;Node24 -->
<g id="edge39" class="edge"><title>Node22&#45;&gt;Node24</title>
<path fill="none" stroke="midnightblue" d="M647.373,-662C666.179,-662 687.428,-662 706.938,-662"/>
<polygon fill="midnightblue" stroke="midnightblue" points="706.96,-665.5 716.96,-662 706.96,-658.5 706.96,-665.5"/>
</g>
<!-- Node25 -->
<g id="node25" class="node"><title>Node25</title>
<g id="a_node25"><a xlink:href="classToUTF8_1_1Utf8Encoder.html#a203f6c96dde89ec98b709f3e4f95c1f6" target="_top" xlink:title="ToUTF8::Utf8Encoder\l::copyFromArray">
<polygon fill="white" stroke="black" points="717,-598 717,-628 827,-628 827,-598 717,-598"/>
<text text-anchor="start" x="725" y="-616" font-family="FreeSans" font-size="10.00">ToUTF8::Utf8Encoder</text>
<text text-anchor="middle" x="772" y="-605" font-family="FreeSans" font-size="10.00">::copyFromArray</text>
</a>
</g>
</g>
<!-- Node22&#45;&gt;Node25 -->
<g id="edge40" class="edge"><title>Node22&#45;&gt;Node25</title>
<path fill="none" stroke="midnightblue" d="M647.373,-647.032C666.265,-641.832 687.623,-635.952 707.206,-630.561"/>
<polygon fill="midnightblue" stroke="midnightblue" points="708.247,-633.905 716.96,-627.876 706.39,-627.156 708.247,-633.905"/>
</g>
<!-- Node26&#45;&gt;Node11 -->
<g id="edge42" class="edge"><title>Node26&#45;&gt;Node11</title>
<path fill="none" stroke="midnightblue" d="M275.132,-390C286.342,-390 298.09,-390 309.697,-390"/>
<polygon fill="midnightblue" stroke="midnightblue" points="309.845,-393.5 319.845,-390 309.845,-386.5 309.845,-393.5"/>
</g>
<!-- Node26&#45;&gt;Node15 -->
<g id="edge43" class="edge"><title>Node26&#45;&gt;Node15</title>
<path fill="none" stroke="midnightblue" d="M225.033,-380.372C247.403,-369.279 285.816,-350.923 320,-338 330.993,-333.844 343.047,-329.889 354.355,-326.432"/>
<polygon fill="midnightblue" stroke="midnightblue" points="355.478,-329.749 364.055,-323.529 353.471,-323.043 355.478,-329.749"/>
</g>
</g>
</svg>
