<?xml version="1.0" encoding="UTF-8" standalone="no"?>
<!DOCTYPE svg PUBLIC "-//W3C//DTD SVG 1.1//EN"
 "http://www.w3.org/Graphics/SVG/1.1/DTD/svg11.dtd">
<!-- Generated by graphviz version 2.36.0 (20140111.2315)
 -->
<!-- Title: MWWorld::ContainerStoreIterator::getContainerStore Pages: 1 -->
<svg width="1040pt" height="136pt"
 viewBox="0.00 0.00 1040.00 136.00" xmlns="http://www.w3.org/2000/svg" xmlns:xlink="http://www.w3.org/1999/xlink">
<g id="graph0" class="graph" transform="scale(1 1) rotate(0) translate(4 132)">
<title>MWWorld::ContainerStoreIterator::getContainerStore</title>
<polygon fill="white" stroke="none" points="-4,4 -4,-132 1036,-132 1036,4 -4,4"/>
<!-- Node1 -->
<g id="node1" class="node"><title>Node1</title>
<polygon fill="#bfbfbf" stroke="black" points="0,-49 0,-79 158,-79 158,-49 0,-49"/>
<text text-anchor="start" x="8" y="-67" font-family="FreeSans" font-size="10.00">MWWorld::ContainerStoreIterator</text>
<text text-anchor="middle" x="79" y="-56" font-family="FreeSans" font-size="10.00">::getContainerStore</text>
</g>
<!-- Node2 -->
<g id="node2" class="node"><title>Node2</title>
<g id="a_node2"><a xlink:href="classMWWorld_1_1InventoryStore.html#a046a6a9ea30288212c427b91e0f48ea9" target="_top" xlink:title="MWWorld::InventoryStore\l::equip">
<polygon fill="white" stroke="black" points="194.5,-49 194.5,-79 319.5,-79 319.5,-49 194.5,-49"/>
<text text-anchor="start" x="202.5" y="-67" font-family="FreeSans" font-size="10.00">MWWorld::InventoryStore</text>
<text text-anchor="middle" x="257" y="-56" font-family="FreeSans" font-size="10.00">::equip</text>
</a>
</g>
</g>
<!-- Node1&#45;&gt;Node2 -->
<g id="edge1" class="edge"><title>Node1&#45;&gt;Node2</title>
<path fill="none" stroke="midnightblue" d="M168.485,-64C177.243,-64 185.995,-64 194.394,-64"/>
<polygon fill="midnightblue" stroke="midnightblue" points="168.221,-60.5001 158.221,-64 168.221,-67.5001 168.221,-60.5001"/>
</g>
<!-- Node3 -->
<g id="node3" class="node"><title>Node3</title>
<g id="a_node3"><a xlink:href="classMWMechanics_1_1Actors.html#a6cb2fcb13b34d92052dd53a23ba4f0e3" target="_top" xlink:title="MWMechanics::Actors\l::updateEquippedLight">
<polygon fill="white" stroke="black" points="384.5,-98 384.5,-128 497.5,-128 497.5,-98 384.5,-98"/>
<text text-anchor="start" x="392.5" y="-116" font-family="FreeSans" font-size="10.00">MWMechanics::Actors</text>
<text text-anchor="middle" x="441" y="-105" font-family="FreeSans" font-size="10.00">::updateEquippedLight</text>
</a>
</g>
</g>
<!-- Node2&#45;&gt;Node3 -->
<g id="edge2" class="edge"><title>Node2&#45;&gt;Node3</title>
<path fill="none" stroke="midnightblue" d="M323.97,-81.7611C343.79,-87.0974 365.329,-92.8962 384.407,-98.0327"/>
<polygon fill="midnightblue" stroke="midnightblue" points="324.657,-78.3216 314.091,-79.1014 322.837,-85.0809 324.657,-78.3216"/>
</g>
<!-- Node7 -->
<g id="node7" class="node"><title>Node7</title>
<g id="a_node7"><a xlink:href="classMWMechanics_1_1MechanicsManager.html#aac554cc4280a59bcb2381e653c3f7b36" target="_top" xlink:title="Turn actor into werewolf or normal form. ">
<polygon fill="white" stroke="black" points="356.5,-49 356.5,-79 525.5,-79 525.5,-49 356.5,-49"/>
<text text-anchor="start" x="364.5" y="-67" font-family="FreeSans" font-size="10.00">MWMechanics::MechanicsManager</text>
<text text-anchor="middle" x="441" y="-56" font-family="FreeSans" font-size="10.00">::setWerewolf</text>
</a>
</g>
</g>
<!-- Node2&#45;&gt;Node7 -->
<g id="edge6" class="edge"><title>Node2&#45;&gt;Node7</title>
<path fill="none" stroke="midnightblue" d="M329.779,-64C338.552,-64 347.574,-64 356.499,-64"/>
<polygon fill="midnightblue" stroke="midnightblue" points="329.617,-60.5001 319.617,-64 329.617,-67.5001 329.617,-60.5001"/>
</g>
<!-- Node8 -->
<g id="node8" class="node"><title>Node8</title>
<g id="a_node8"><a xlink:href="classMWWorld_1_1ActionEquip.html#a9fdc99b6c82601b54208471637d0d78e" target="_top" xlink:title="MWWorld::ActionEquip\l::executeImp">
<polygon fill="white" stroke="black" points="383.5,-0 383.5,-30 498.5,-30 498.5,-0 383.5,-0"/>
<text text-anchor="start" x="391.5" y="-18" font-family="FreeSans" font-size="10.00">MWWorld::ActionEquip</text>
<text text-anchor="middle" x="441" y="-7" font-family="FreeSans" font-size="10.00">::executeImp</text>
</a>
</g>
</g>
<!-- Node2&#45;&gt;Node8 -->
<g id="edge7" class="edge"><title>Node2&#45;&gt;Node8</title>
<path fill="none" stroke="midnightblue" d="M323.923,-46.2515C343.648,-40.9409 365.078,-35.1712 384.094,-30.0516"/>
<polygon fill="midnightblue" stroke="midnightblue" points="322.837,-42.9191 314.091,-48.8986 324.657,-49.6784 322.837,-42.9191"/>
</g>
<!-- Node4 -->
<g id="node4" class="node"><title>Node4</title>
<g id="a_node4"><a xlink:href="classMWMechanics_1_1Actors.html#a2ad05c57d27bc2b1609f6e99b34c90d0" target="_top" xlink:title="MWMechanics::Actors\l::updateNpc">
<polygon fill="white" stroke="black" points="562.5,-98 562.5,-128 675.5,-128 675.5,-98 562.5,-98"/>
<text text-anchor="start" x="570.5" y="-116" font-family="FreeSans" font-size="10.00">MWMechanics::Actors</text>
<text text-anchor="middle" x="619" y="-105" font-family="FreeSans" font-size="10.00">::updateNpc</text>
</a>
</g>
</g>
<!-- Node3&#45;&gt;Node4 -->
<g id="edge3" class="edge"><title>Node3&#45;&gt;Node4</title>
<path fill="none" stroke="midnightblue" d="M507.796,-113C525.757,-113 545.039,-113 562.373,-113"/>
<polygon fill="midnightblue" stroke="midnightblue" points="507.688,-109.5 497.688,-113 507.687,-116.5 507.688,-109.5"/>
</g>
<!-- Node5 -->
<g id="node5" class="node"><title>Node5</title>
<g id="a_node5"><a xlink:href="classMWMechanics_1_1Actors.html#a1588180bba8597286a1db1389cee106e" target="_top" xlink:title="Update actor stats and store desired velocity vectors in movement. ">
<polygon fill="white" stroke="black" points="712.5,-98 712.5,-128 825.5,-128 825.5,-98 712.5,-98"/>
<text text-anchor="start" x="720.5" y="-116" font-family="FreeSans" font-size="10.00">MWMechanics::Actors</text>
<text text-anchor="middle" x="769" y="-105" font-family="FreeSans" font-size="10.00">::update</text>
</a>
</g>
</g>
<!-- Node4&#45;&gt;Node5 -->
<g id="edge4" class="edge"><title>Node4&#45;&gt;Node5</title>
<path fill="none" stroke="midnightblue" d="M685.768,-113C694.576,-113 703.542,-113 712.158,-113"/>
<polygon fill="midnightblue" stroke="midnightblue" points="685.531,-109.5 675.531,-113 685.531,-116.5 685.531,-109.5"/>
</g>
<!-- Node6 -->
<g id="node6" class="node"><title>Node6</title>
<g id="a_node6"><a xlink:href="classMWMechanics_1_1MechanicsManager.html#acf3c8c25fff52b890d0d6ced4b456459" target="_top" xlink:title="MWMechanics::MechanicsManager\l::update">
<polygon fill="white" stroke="black" points="862.5,-98 862.5,-128 1031.5,-128 1031.5,-98 862.5,-98"/>
<text text-anchor="start" x="870.5" y="-116" font-family="FreeSans" font-size="10.00">MWMechanics::MechanicsManager</text>
<text text-anchor="middle" x="947" y="-105" font-family="FreeSans" font-size="10.00">::update</text>
</a>
</g>
</g>
<!-- Node5&#45;&gt;Node6 -->
<g id="edge5" class="edge"><title>Node5&#45;&gt;Node6</title>
<path fill="none" stroke="midnightblue" d="M835.731,-113C844.428,-113 853.435,-113 862.381,-113"/>
<polygon fill="midnightblue" stroke="midnightblue" points="835.688,-109.5 825.688,-113 835.687,-116.5 835.688,-109.5"/>
</g>
</g>
</svg>
