<?xml version="1.0" encoding="UTF-8" standalone="no"?>
<!DOCTYPE svg PUBLIC "-//W3C//DTD SVG 1.1//EN"
 "http://www.w3.org/Graphics/SVG/1.1/DTD/svg11.dtd">
<!-- Generated by graphviz version 2.36.0 (20140111.2315)
 -->
<!-- Title: Resource::KeyframeManager Pages: 1 -->
<svg width="488pt" height="824pt"
 viewBox="0.00 0.00 488.00 824.00" xmlns="http://www.w3.org/2000/svg" xmlns:xlink="http://www.w3.org/1999/xlink">
<g id="graph0" class="graph" transform="scale(1 1) rotate(0) translate(4 820)">
<title>Resource::KeyframeManager</title>
<polygon fill="white" stroke="none" points="-4,4 -4,-820 484,-820 484,4 -4,4"/>
<!-- Node1 -->
<g id="node1" class="node"><title>Node1</title>
<polygon fill="#bfbfbf" stroke="black" points="59.5,-1 59.5,-91 212.5,-91 212.5,-1 59.5,-1"/>
<text text-anchor="middle" x="136" y="-79" font-family="FreeSans" font-size="10.00">Resource::KeyframeManager</text>
<polyline fill="none" stroke="black" points="59.5,-72 212.5,-72 "/>
<text text-anchor="middle" x="136" y="-60" font-family="FreeSans" font-size="10.00"> </text>
<polyline fill="none" stroke="black" points="59.5,-53 212.5,-53 "/>
<text text-anchor="start" x="67.5" y="-41" font-family="FreeSans" font-size="10.00">+ KeyframeManager()</text>
<text text-anchor="start" x="67.5" y="-30" font-family="FreeSans" font-size="10.00">+ ~KeyframeManager()</text>
<text text-anchor="start" x="67.5" y="-19" font-family="FreeSans" font-size="10.00">+ get()</text>
<text text-anchor="start" x="67.5" y="-8" font-family="FreeSans" font-size="10.00">+ reportStats()</text>
</g>
<!-- Node2 -->
<g id="node2" class="node"><title>Node2</title>
<g id="a_node2"><a xlink:href="classResource_1_1ResourceManager.html" target="_top" xlink:title="Base class for managers that require a virtual file system and object cache. ">
<polygon fill="white" stroke="black" points="60,-131 60,-265 212,-265 212,-131 60,-131"/>
<text text-anchor="middle" x="136" y="-253" font-family="FreeSans" font-size="10.00">Resource::ResourceManager</text>
<polyline fill="none" stroke="black" points="60,-246 212,-246 "/>
<text text-anchor="middle" x="136" y="-234" font-family="FreeSans" font-size="10.00"> </text>
<polyline fill="none" stroke="black" points="60,-227 212,-227 "/>
<text text-anchor="start" x="68" y="-215" font-family="FreeSans" font-size="10.00">+ ResourceManager()</text>
<text text-anchor="start" x="68" y="-204" font-family="FreeSans" font-size="10.00">+ ~ResourceManager()</text>
<text text-anchor="start" x="68" y="-193" font-family="FreeSans" font-size="10.00">+ updateCache()</text>
<text text-anchor="start" x="68" y="-182" font-family="FreeSans" font-size="10.00">+ clearCache()</text>
<text text-anchor="start" x="68" y="-171" font-family="FreeSans" font-size="10.00">+ setExpiryDelay()</text>
<text text-anchor="start" x="68" y="-160" font-family="FreeSans" font-size="10.00">+ getVFS()</text>
<text text-anchor="start" x="68" y="-149" font-family="FreeSans" font-size="10.00">+ reportStats()</text>
<text text-anchor="start" x="68" y="-138" font-family="FreeSans" font-size="10.00">+ releaseGLObjects()</text>
</a>
</g>
</g>
<!-- Node2&#45;&gt;Node1 -->
<g id="edge1" class="edge"><title>Node2&#45;&gt;Node1</title>
<path fill="none" stroke="midnightblue" d="M136,-120.721C136,-110.655 136,-100.619 136,-91.3391"/>
<polygon fill="none" stroke="midnightblue" points="132.5,-120.771 136,-130.771 139.5,-120.771 132.5,-120.771"/>
</g>
<!-- Node3 -->
<g id="node3" class="node"><title>Node3</title>
<polygon fill="white" stroke="#bfbfbf" points="-0.5,-364.5 -0.5,-421.5 48.5,-421.5 48.5,-364.5 -0.5,-364.5"/>
<text text-anchor="middle" x="24" y="-409.5" font-family="FreeSans" font-size="10.00">double</text>
<polyline fill="none" stroke="#bfbfbf" points="-0.5,-402.5 48.5,-402.5 "/>
<text text-anchor="middle" x="24" y="-390.5" font-family="FreeSans" font-size="10.00"> </text>
<polyline fill="none" stroke="#bfbfbf" points="-0.5,-383.5 48.5,-383.5 "/>
<text text-anchor="middle" x="24" y="-371.5" font-family="FreeSans" font-size="10.00"> </text>
</g>
<!-- Node3&#45;&gt;Node2 -->
<g id="edge2" class="edge"><title>Node3&#45;&gt;Node2</title>
<path fill="none" stroke="#404040" d="M28.1453,-364.386C32.417,-341.667 40.5474,-309.218 55,-284 56.7342,-280.974 58.5984,-277.973 60.5674,-275.007"/>
<polygon fill="none" stroke="#404040" points="60.6772,-274.852 60.8933,-267.645 67.6298,-265.072 67.4137,-272.28 60.6772,-274.852"/>
<text text-anchor="middle" x="93.5" y="-287.5" font-family="FreeSans" font-size="10.00"> #mExpiryDelay</text>
</g>
<!-- Node4 -->
<g id="node4" class="node"><title>Node4</title>
<polygon fill="white" stroke="#bfbfbf" points="67,-359 67,-427 205,-427 205,-359 67,-359"/>
<text text-anchor="start" x="75" y="-415" font-family="FreeSans" font-size="10.00">ref_ptr&lt; Resource::</text>
<text text-anchor="middle" x="136" y="-404" font-family="FreeSans" font-size="10.00">Resource::ObjectCache &gt;</text>
<polyline fill="none" stroke="#bfbfbf" points="67,-397 205,-397 "/>
<text text-anchor="middle" x="136" y="-385" font-family="FreeSans" font-size="10.00"> </text>
<polyline fill="none" stroke="#bfbfbf" points="67,-378 205,-378 "/>
<text text-anchor="middle" x="136" y="-366" font-family="FreeSans" font-size="10.00"> </text>
</g>
<!-- Node4&#45;&gt;Node2 -->
<g id="edge3" class="edge"><title>Node4&#45;&gt;Node2</title>
<path fill="none" stroke="#404040" d="M136,-358.822C136,-336.378 136,-305.751 136,-277.311"/>
<polygon fill="none" stroke="#404040" points="136,-277.287 132,-271.287 136,-265.287 140,-271.287 136,-277.287"/>
<text text-anchor="middle" x="162" y="-287.5" font-family="FreeSans" font-size="10.00"> #mCache</text>
</g>
<!-- Node5 -->
<g id="node5" class="node"><title>Node5</title>
<g id="a_node5"><a xlink:href="classVFS_1_1Manager.html" target="_top" xlink:title="The main class responsible for loading files from a virtual file system. ">
<polygon fill="white" stroke="black" points="223.5,-315 223.5,-471 348.5,-471 348.5,-315 223.5,-315"/>
<text text-anchor="middle" x="286" y="-459" font-family="FreeSans" font-size="10.00">VFS::Manager</text>
<polyline fill="none" stroke="black" points="223.5,-452 348.5,-452 "/>
<text text-anchor="middle" x="286" y="-440" font-family="FreeSans" font-size="10.00"> </text>
<polyline fill="none" stroke="black" points="223.5,-433 348.5,-433 "/>
<text text-anchor="start" x="231.5" y="-421" font-family="FreeSans" font-size="10.00">+ Manager()</text>
<text text-anchor="start" x="231.5" y="-410" font-family="FreeSans" font-size="10.00">+ ~Manager()</text>
<text text-anchor="start" x="231.5" y="-399" font-family="FreeSans" font-size="10.00">+ reset()</text>
<text text-anchor="start" x="231.5" y="-388" font-family="FreeSans" font-size="10.00">+ addArchive()</text>
<text text-anchor="start" x="231.5" y="-377" font-family="FreeSans" font-size="10.00">+ buildIndex()</text>
<text text-anchor="start" x="231.5" y="-366" font-family="FreeSans" font-size="10.00">+ exists()</text>
<text text-anchor="start" x="231.5" y="-355" font-family="FreeSans" font-size="10.00">+ getIndex()</text>
<text text-anchor="start" x="231.5" y="-344" font-family="FreeSans" font-size="10.00">+ normalizeFilename()</text>
<text text-anchor="start" x="231.5" y="-333" font-family="FreeSans" font-size="10.00">+ get()</text>
<text text-anchor="start" x="231.5" y="-322" font-family="FreeSans" font-size="10.00">+ getNormalized()</text>
</a>
</g>
</g>
<!-- Node5&#45;&gt;Node2 -->
<g id="edge4" class="edge"><title>Node5&#45;&gt;Node2</title>
<path fill="none" stroke="#404040" d="M226.069,-314.889C215.76,-301.624 205.054,-287.85 194.776,-274.625"/>
<polygon fill="none" stroke="#404040" points="194.742,-274.582 187.902,-272.299 187.378,-265.107 194.219,-267.39 194.742,-274.582"/>
<text text-anchor="middle" x="231" y="-287.5" font-family="FreeSans" font-size="10.00"> #mVFS</text>
</g>
<!-- Node6 -->
<g id="node6" class="node"><title>Node6</title>
<polygon fill="white" stroke="#bfbfbf" points="127,-521 127,-589 249,-589 249,-521 127,-521"/>
<text text-anchor="start" x="135" y="-577" font-family="FreeSans" font-size="10.00">std::map&lt; std::string,</text>
<text text-anchor="middle" x="188" y="-566" font-family="FreeSans" font-size="10.00"> VFS::File * &gt;</text>
<polyline fill="none" stroke="#bfbfbf" points="127,-559 249,-559 "/>
<text text-anchor="middle" x="188" y="-547" font-family="FreeSans" font-size="10.00"> </text>
<polyline fill="none" stroke="#bfbfbf" points="127,-540 249,-540 "/>
<text text-anchor="middle" x="188" y="-528" font-family="FreeSans" font-size="10.00"> </text>
</g>
<!-- Node6&#45;&gt;Node5 -->
<g id="edge5" class="edge"><title>Node6&#45;&gt;Node5</title>
<path fill="none" stroke="#404040" d="M208.306,-520.848C215.364,-509.323 223.65,-495.796 232.132,-481.948"/>
<polygon fill="none" stroke="#404040" points="232.372,-481.557 232.094,-474.351 238.639,-471.323 238.917,-478.529 232.372,-481.557"/>
<text text-anchor="middle" x="247.5" y="-493.5" font-family="FreeSans" font-size="10.00"> &#45;mIndex</text>
</g>
<!-- Node7 -->
<g id="node7" class="node"><title>Node7</title>
<g id="a_node7"><a xlink:href="classVFS_1_1File.html" target="_top" xlink:title="{VFS::File\n||+ ~File()\l+ open()\l}">
<polygon fill="white" stroke="black" points="118.5,-639 118.5,-707 177.5,-707 177.5,-639 118.5,-639"/>
<text text-anchor="middle" x="148" y="-695" font-family="FreeSans" font-size="10.00">VFS::File</text>
<polyline fill="none" stroke="black" points="118.5,-688 177.5,-688 "/>
<text text-anchor="middle" x="148" y="-676" font-family="FreeSans" font-size="10.00"> </text>
<polyline fill="none" stroke="black" points="118.5,-669 177.5,-669 "/>
<text text-anchor="start" x="126.5" y="-657" font-family="FreeSans" font-size="10.00">+ ~File()</text>
<text text-anchor="start" x="126.5" y="-646" font-family="FreeSans" font-size="10.00">+ open()</text>
</a>
</g>
</g>
<!-- Node7&#45;&gt;Node6 -->
<g id="edge6" class="edge"><title>Node7&#45;&gt;Node6</title>
<path fill="none" stroke="#404040" d="M144.632,-638.766C144.632,-628.66 145.691,-617.673 149,-608 149.94,-605.252 151.085,-602.531 152.384,-599.86"/>
<polygon fill="none" stroke="#404040" points="152.514,-599.633 152.016,-592.439 158.465,-589.212 158.963,-596.406 152.514,-599.633"/>
<text text-anchor="middle" x="177.5" y="-611.5" font-family="FreeSans" font-size="10.00"> +elements</text>
</g>
<!-- Node8 -->
<g id="node8" class="node"><title>Node8</title>
<g id="a_node8"><a xlink:title="STL class. ">
<polygon fill="white" stroke="#bfbfbf" points="195.5,-644.5 195.5,-701.5 260.5,-701.5 260.5,-644.5 195.5,-644.5"/>
<text text-anchor="middle" x="228" y="-689.5" font-family="FreeSans" font-size="10.00">std::string</text>
<polyline fill="none" stroke="#bfbfbf" points="195.5,-682.5 260.5,-682.5 "/>
<text text-anchor="middle" x="228" y="-670.5" font-family="FreeSans" font-size="10.00"> </text>
<polyline fill="none" stroke="#bfbfbf" points="195.5,-663.5 260.5,-663.5 "/>
<text text-anchor="middle" x="228" y="-651.5" font-family="FreeSans" font-size="10.00"> </text>
</a>
</g>
</g>
<!-- Node8&#45;&gt;Node6 -->
<g id="edge7" class="edge"><title>Node8&#45;&gt;Node6</title>
<path fill="none" stroke="#404040" d="M218.484,-644.274C214.616,-633.015 210.1,-619.884 206,-608 205.139,-605.505 204.255,-602.943 203.362,-600.358"/>
<polygon fill="none" stroke="#404040" points="203.358,-600.348 197.617,-595.984 199.437,-589.006 205.178,-593.37 203.358,-600.348"/>
<text text-anchor="middle" x="227" y="-611.5" font-family="FreeSans" font-size="10.00"> +keys</text>
</g>
<!-- Node9 -->
<g id="node9" class="node"><title>Node9</title>
<g id="a_node9"><a xlink:title="STL class. ">
<polygon fill="white" stroke="#bfbfbf" points="176.5,-747 176.5,-815 279.5,-815 279.5,-747 176.5,-747"/>
<text text-anchor="start" x="184.5" y="-803" font-family="FreeSans" font-size="10.00">std::basic_string&lt;</text>
<text text-anchor="middle" x="228" y="-792" font-family="FreeSans" font-size="10.00"> char &gt;</text>
<polyline fill="none" stroke="#bfbfbf" points="176.5,-785 279.5,-785 "/>
<text text-anchor="middle" x="228" y="-773" font-family="FreeSans" font-size="10.00"> </text>
<polyline fill="none" stroke="#bfbfbf" points="176.5,-766 279.5,-766 "/>
<text text-anchor="middle" x="228" y="-754" font-family="FreeSans" font-size="10.00"> </text>
</a>
</g>
</g>
<!-- Node9&#45;&gt;Node8 -->
<g id="edge8" class="edge"><title>Node9&#45;&gt;Node8</title>
<path fill="none" stroke="midnightblue" d="M228,-736.639C228,-724.87 228,-712.444 228,-701.791"/>
<polygon fill="none" stroke="midnightblue" points="224.5,-736.752 228,-746.752 231.5,-736.752 224.5,-736.752"/>
</g>
<!-- Node10 -->
<g id="node10" class="node"><title>Node10</title>
<g id="a_node10"><a xlink:href="classbool.html" target="_top" xlink:title="{bool\n||}">
<polygon fill="white" stroke="black" points="267.5,-526.5 267.5,-583.5 304.5,-583.5 304.5,-526.5 267.5,-526.5"/>
<text text-anchor="middle" x="286" y="-571.5" font-family="FreeSans" font-size="10.00">bool</text>
<polyline fill="none" stroke="black" points="267.5,-564.5 304.5,-564.5 "/>
<text text-anchor="middle" x="286" y="-552.5" font-family="FreeSans" font-size="10.00"> </text>
<polyline fill="none" stroke="black" points="267.5,-545.5 304.5,-545.5 "/>
<text text-anchor="middle" x="286" y="-533.5" font-family="FreeSans" font-size="10.00"> </text>
</a>
</g>
</g>
<!-- Node10&#45;&gt;Node5 -->
<g id="edge9" class="edge"><title>Node10&#45;&gt;Node5</title>
<path fill="none" stroke="#404040" d="M286,-526.495C286,-514.178 286,-498.887 286,-483.118"/>
<polygon fill="none" stroke="#404040" points="286,-483.008 282,-477.008 286,-471.008 290,-477.008 286,-483.008"/>
<text text-anchor="middle" x="307.5" y="-493.5" font-family="FreeSans" font-size="10.00"> &#45;mStrict</text>
</g>
<!-- Node11 -->
<g id="node11" class="node"><title>Node11</title>
<polygon fill="white" stroke="#bfbfbf" points="322,-526.5 322,-583.5 480,-583.5 480,-526.5 322,-526.5"/>
<text text-anchor="middle" x="401" y="-571.5" font-family="FreeSans" font-size="10.00">std::vector&lt; VFS::Archive * &gt;</text>
<polyline fill="none" stroke="#bfbfbf" points="322,-564.5 480,-564.5 "/>
<text text-anchor="middle" x="401" y="-552.5" font-family="FreeSans" font-size="10.00"> </text>
<polyline fill="none" stroke="#bfbfbf" points="322,-545.5 480,-545.5 "/>
<text text-anchor="middle" x="401" y="-533.5" font-family="FreeSans" font-size="10.00"> </text>
</g>
<!-- Node11&#45;&gt;Node5 -->
<g id="edge10" class="edge"><title>Node11&#45;&gt;Node5</title>
<path fill="none" stroke="#404040" d="M381.231,-526.495C371.944,-513.574 360.305,-497.381 348.385,-480.796"/>
<polygon fill="none" stroke="#404040" points="348.353,-480.752 341.603,-478.214 341.349,-471.008 348.099,-473.545 348.353,-480.752"/>
<text text-anchor="middle" x="389" y="-493.5" font-family="FreeSans" font-size="10.00"> &#45;mArchives</text>
</g>
<!-- Node12 -->
<g id="node12" class="node"><title>Node12</title>
<g id="a_node12"><a xlink:href="classVFS_1_1Archive.html" target="_top" xlink:title="{VFS::Archive\n||+ ~Archive()\l+ listResources()\l}">
<polygon fill="white" stroke="black" points="352,-639 352,-707 450,-707 450,-639 352,-639"/>
<text text-anchor="middle" x="401" y="-695" font-family="FreeSans" font-size="10.00">VFS::Archive</text>
<polyline fill="none" stroke="black" points="352,-688 450,-688 "/>
<text text-anchor="middle" x="401" y="-676" font-family="FreeSans" font-size="10.00"> </text>
<polyline fill="none" stroke="black" points="352,-669 450,-669 "/>
<text text-anchor="start" x="360" y="-657" font-family="FreeSans" font-size="10.00">+ ~Archive()</text>
<text text-anchor="start" x="360" y="-646" font-family="FreeSans" font-size="10.00">+ listResources()</text>
</a>
</g>
</g>
<!-- Node12&#45;&gt;Node11 -->
<g id="edge11" class="edge"><title>Node12&#45;&gt;Node11</title>
<path fill="none" stroke="#404040" d="M401,-638.759C401,-625.432 401,-609.958 401,-596.021"/>
<polygon fill="none" stroke="#404040" points="401,-595.76 397,-589.76 401,-583.76 405,-589.76 401,-595.76"/>
<text text-anchor="middle" x="429.5" y="-611.5" font-family="FreeSans" font-size="10.00"> +elements</text>
</g>
</g>
</svg>
