<?xml version="1.0" encoding="UTF-8" standalone="no"?>
<!DOCTYPE svg PUBLIC "-//W3C//DTD SVG 1.1//EN"
 "http://www.w3.org/Graphics/SVG/1.1/DTD/svg11.dtd">
<!-- Generated by graphviz version 2.36.0 (20140111.2315)
 -->
<!-- Title: MWGui::TradeWindow::onIncreaseButtonTriggered Pages: 1 -->
<svg width="836pt" height="427pt"
 viewBox="0.00 0.00 836.00 427.00" xmlns="http://www.w3.org/2000/svg" xmlns:xlink="http://www.w3.org/1999/xlink">
<g id="graph0" class="graph" transform="scale(1 1) rotate(0) translate(4 423)">
<title>MWGui::TradeWindow::onIncreaseButtonTriggered</title>
<polygon fill="white" stroke="none" points="-4,4 -4,-423 832,-423 832,4 -4,4"/>
<!-- Node1 -->
<g id="node1" class="node"><title>Node1</title>
<polygon fill="#bfbfbf" stroke="black" points="0.5,-175 0.5,-205 151.5,-205 151.5,-175 0.5,-175"/>
<text text-anchor="start" x="8.5" y="-193" font-family="FreeSans" font-size="10.00">MWGui::TradeWindow</text>
<text text-anchor="middle" x="76" y="-182" font-family="FreeSans" font-size="10.00">::onIncreaseButtonTriggered</text>
</g>
<!-- Node2 -->
<g id="node2" class="node"><title>Node2</title>
<g id="a_node2"><a xlink:href="classMWGui_1_1TradeWindow.html#a3188166252ca0c455883f8dff918e1ff" target="_top" xlink:title="MWGui::TradeWindow\l::updateLabels">
<polygon fill="white" stroke="black" points="188,-175 188,-205 304,-205 304,-175 188,-175"/>
<text text-anchor="start" x="196" y="-193" font-family="FreeSans" font-size="10.00">MWGui::TradeWindow</text>
<text text-anchor="middle" x="246" y="-182" font-family="FreeSans" font-size="10.00">::updateLabels</text>
</a>
</g>
</g>
<!-- Node1&#45;&gt;Node2 -->
<g id="edge1" class="edge"><title>Node1&#45;&gt;Node2</title>
<path fill="none" stroke="midnightblue" d="M151.666,-190C160.421,-190 169.313,-190 177.955,-190"/>
<polygon fill="midnightblue" stroke="midnightblue" points="177.963,-193.5 187.963,-190 177.963,-186.5 177.963,-193.5"/>
</g>
<!-- Node3 -->
<g id="node3" class="node"><title>Node3</title>
<g id="a_node3"><a xlink:href="namespaceMWMechanics.html#a90645fe67f9b8b658452cd004d2cbb65" target="_top" xlink:title="MWMechanics::getPlayer">
<polygon fill="white" stroke="black" points="352,-341.5 352,-360.5 486,-360.5 486,-341.5 352,-341.5"/>
<text text-anchor="middle" x="419" y="-348.5" font-family="FreeSans" font-size="10.00">MWMechanics::getPlayer</text>
</a>
</g>
</g>
<!-- Node2&#45;&gt;Node3 -->
<g id="edge2" class="edge"><title>Node2&#45;&gt;Node3</title>
<path fill="none" stroke="midnightblue" d="M255.499,-205.291C270.039,-230.32 301.844,-280.408 340,-312 352.507,-322.355 368.225,-330.879 382.268,-337.289"/>
<polygon fill="midnightblue" stroke="midnightblue" points="381.097,-340.596 391.662,-341.385 383.894,-334.18 381.097,-340.596"/>
</g>
<!-- Node7 -->
<g id="node7" class="node"><title>Node7</title>
<g id="a_node7"><a xlink:href="classMWWorld_1_1Ptr.html#aa2ac4a5579cd19eaa780596f4543ea46" target="_top" xlink:title="MWWorld::Ptr::getClass">
<polygon fill="white" stroke="black" points="550.5,-98.5 550.5,-117.5 675.5,-117.5 675.5,-98.5 550.5,-98.5"/>
<text text-anchor="middle" x="613" y="-105.5" font-family="FreeSans" font-size="10.00">MWWorld::Ptr::getClass</text>
</a>
</g>
</g>
<!-- Node2&#45;&gt;Node7 -->
<g id="edge6" class="edge"><title>Node2&#45;&gt;Node7</title>
<path fill="none" stroke="midnightblue" d="M283.629,-174.918C300.562,-168.386 321.074,-161.087 340,-156 406.918,-138.013 484.957,-125.038 540.24,-117.148"/>
<polygon fill="midnightblue" stroke="midnightblue" points="540.875,-120.593 550.29,-115.734 539.899,-113.662 540.875,-120.593"/>
</g>
<!-- Node8 -->
<g id="node8" class="node"><title>Node8</title>
<g id="a_node8"><a xlink:href="classMWWorld_1_1Class.html#af1209aa1b5a2bf560a182fcc8a9e8547" target="_top" xlink:title="MWWorld::Class::getContainer\lStore">
<polygon fill="white" stroke="black" points="340,-224 340,-254 498,-254 498,-224 340,-224"/>
<text text-anchor="start" x="348" y="-242" font-family="FreeSans" font-size="10.00">MWWorld::Class::getContainer</text>
<text text-anchor="middle" x="419" y="-231" font-family="FreeSans" font-size="10.00">Store</text>
</a>
</g>
</g>
<!-- Node2&#45;&gt;Node8 -->
<g id="edge7" class="edge"><title>Node2&#45;&gt;Node8</title>
<path fill="none" stroke="midnightblue" d="M299.701,-205.101C317.419,-210.179 337.352,-215.89 355.734,-221.158"/>
<polygon fill="midnightblue" stroke="midnightblue" points="354.896,-224.558 365.473,-223.948 356.824,-217.829 354.896,-224.558"/>
</g>
<!-- Node9 -->
<g id="node9" class="node"><title>Node9</title>
<g id="a_node9"><a xlink:href="classMWWorld_1_1ContainerStore.html#aff176edbad26cdd416517a42a87a39ea" target="_top" xlink:title="MWWorld::ContainerStore\l::count">
<polygon fill="white" stroke="black" points="350.5,-273 350.5,-303 487.5,-303 487.5,-273 350.5,-273"/>
<text text-anchor="start" x="358.5" y="-291" font-family="FreeSans" font-size="10.00">MWWorld::ContainerStore</text>
<text text-anchor="middle" x="419" y="-280" font-family="FreeSans" font-size="10.00">::count</text>
</a>
</g>
</g>
<!-- Node2&#45;&gt;Node9 -->
<g id="edge8" class="edge"><title>Node2&#45;&gt;Node9</title>
<path fill="none" stroke="midnightblue" d="M262.559,-205.097C280.097,-221.389 310.083,-247.126 340,-263 344.177,-265.216 348.584,-267.278 353.092,-269.189"/>
<polygon fill="midnightblue" stroke="midnightblue" points="351.859,-272.465 362.445,-272.9 354.44,-265.959 351.859,-272.465"/>
</g>
<!-- Node12 -->
<g id="node12" class="node"><title>Node12</title>
<g id="a_node12"><a xlink:href="namespaceanonymous__namespace_02character_8cpp_03.html#a551df780ef62c57fe81b128fa596488c" target="_top" xlink:title="anonymous_namespace\l\{character::cpp\}::toString">
<polygon fill="white" stroke="black" points="542,-156 542,-186 684,-186 684,-156 542,-156"/>
<text text-anchor="start" x="550" y="-174" font-family="FreeSans" font-size="10.00">anonymous_namespace</text>
<text text-anchor="middle" x="613" y="-163" font-family="FreeSans" font-size="10.00">{character::cpp}::toString</text>
</a>
</g>
</g>
<!-- Node2&#45;&gt;Node12 -->
<g id="edge11" class="edge"><title>Node2&#45;&gt;Node12</title>
<path fill="none" stroke="midnightblue" d="M293.349,-174.977C308.097,-170.892 324.585,-167.036 340,-165 404.008,-156.547 477.209,-158.831 531.538,-162.797"/>
<polygon fill="midnightblue" stroke="midnightblue" points="531.561,-166.309 541.799,-163.582 532.096,-159.329 531.561,-166.309"/>
</g>
<!-- Node14 -->
<g id="node14" class="node"><title>Node14</title>
<g id="a_node14"><a xlink:href="classGui_1_1NumericEditBox.html#ab6befad079d96d9a4f1be04d399ff67b" target="_top" xlink:title="Gui::NumericEditBox\l::setValue">
<polygon fill="white" stroke="black" points="361.5,-175 361.5,-205 476.5,-205 476.5,-175 361.5,-175"/>
<text text-anchor="start" x="369.5" y="-193" font-family="FreeSans" font-size="10.00">Gui::NumericEditBox</text>
<text text-anchor="middle" x="419" y="-182" font-family="FreeSans" font-size="10.00">::setValue</text>
</a>
</g>
</g>
<!-- Node2&#45;&gt;Node14 -->
<g id="edge13" class="edge"><title>Node2&#45;&gt;Node14</title>
<path fill="none" stroke="midnightblue" d="M304.416,-190C319.459,-190 335.807,-190 351.289,-190"/>
<polygon fill="midnightblue" stroke="midnightblue" points="351.317,-193.5 361.316,-190 351.316,-186.5 351.317,-193.5"/>
</g>
<!-- Node15 -->
<g id="node15" class="node"><title>Node15</title>
<g id="a_node15"><a xlink:href="classMWGui_1_1TradeWindow.html#a096c1a0bed976abdd252ef2ec42817a3" target="_top" xlink:title="MWGui::TradeWindow\l::getMerchantGold">
<polygon fill="white" stroke="black" points="361,-49 361,-79 477,-79 477,-49 361,-49"/>
<text text-anchor="start" x="369" y="-67" font-family="FreeSans" font-size="10.00">MWGui::TradeWindow</text>
<text text-anchor="middle" x="419" y="-56" font-family="FreeSans" font-size="10.00">::getMerchantGold</text>
</a>
</g>
</g>
<!-- Node2&#45;&gt;Node15 -->
<g id="edge15" class="edge"><title>Node2&#45;&gt;Node15</title>
<path fill="none" stroke="midnightblue" d="M258.315,-174.688C274.397,-153.874 305.74,-116.654 340,-94 346.074,-89.9838 352.764,-86.3894 359.595,-83.2056"/>
<polygon fill="midnightblue" stroke="midnightblue" points="361.191,-86.328 368.954,-79.1176 358.389,-79.9133 361.191,-86.328"/>
</g>
<!-- Node4 -->
<g id="node4" class="node"><title>Node4</title>
<g id="a_node4"><a xlink:href="classMWBase_1_1Environment.html#a73f12633762b049c03c80fe215873faa" target="_top" xlink:title="Return instance of this class. ">
<polygon fill="white" stroke="black" points="540,-312.5 540,-331.5 686,-331.5 686,-312.5 540,-312.5"/>
<text text-anchor="middle" x="613" y="-319.5" font-family="FreeSans" font-size="10.00">MWBase::Environment::get</text>
</a>
</g>
</g>
<!-- Node3&#45;&gt;Node4 -->
<g id="edge3" class="edge"><title>Node3&#45;&gt;Node4</title>
<path fill="none" stroke="midnightblue" d="M483.134,-341.464C500.932,-338.776 520.445,-335.829 538.781,-333.059"/>
<polygon fill="midnightblue" stroke="midnightblue" points="539.463,-336.496 548.828,-331.542 538.418,-329.574 539.463,-336.496"/>
</g>
<!-- Node5 -->
<g id="node5" class="node"><title>Node5</title>
<g id="a_node5"><a xlink:href="classMWBase_1_1Environment.html#ae14e166d8f5ff8629be119333d502660" target="_top" xlink:title="MWBase::Environment\l::getWorld">
<polygon fill="white" stroke="black" points="551,-389 551,-419 675,-419 675,-389 551,-389"/>
<text text-anchor="start" x="559" y="-407" font-family="FreeSans" font-size="10.00">MWBase::Environment</text>
<text text-anchor="middle" x="613" y="-396" font-family="FreeSans" font-size="10.00">::getWorld</text>
</a>
</g>
</g>
<!-- Node3&#45;&gt;Node5 -->
<g id="edge4" class="edge"><title>Node3&#45;&gt;Node5</title>
<path fill="none" stroke="midnightblue" d="M454.77,-360.598C480.61,-367.731 516.609,-377.668 547.641,-386.234"/>
<polygon fill="midnightblue" stroke="midnightblue" points="546.952,-389.675 557.523,-388.962 548.815,-382.927 546.952,-389.675"/>
</g>
<!-- Node6 -->
<g id="node6" class="node"><title>Node6</title>
<g id="a_node6"><a xlink:href="classMWBase_1_1World.html#a95005e26dcb7b1f6dc906eb518b95762" target="_top" xlink:title="MWBase::World::getPlayerPtr">
<polygon fill="white" stroke="black" points="536.5,-350.5 536.5,-369.5 689.5,-369.5 689.5,-350.5 536.5,-350.5"/>
<text text-anchor="middle" x="613" y="-357.5" font-family="FreeSans" font-size="10.00">MWBase::World::getPlayerPtr</text>
</a>
</g>
</g>
<!-- Node3&#45;&gt;Node6 -->
<g id="edge5" class="edge"><title>Node3&#45;&gt;Node6</title>
<path fill="none" stroke="midnightblue" d="M486.076,-354.097C498.955,-354.701 512.633,-355.342 526.047,-355.971"/>
<polygon fill="midnightblue" stroke="midnightblue" points="526.082,-359.476 536.235,-356.449 526.41,-352.484 526.082,-359.476"/>
</g>
<!-- Node10 -->
<g id="node10" class="node"><title>Node10</title>
<g id="a_node10"><a xlink:href="classMisc_1_1StringUtils.html#a0f8cb0ac134191ba8417f74ab7dc4de6" target="_top" xlink:title="Misc::StringUtils::\lciEqual">
<polygon fill="white" stroke="black" points="563.5,-263 563.5,-293 662.5,-293 662.5,-263 563.5,-263"/>
<text text-anchor="start" x="571.5" y="-281" font-family="FreeSans" font-size="10.00">Misc::StringUtils::</text>
<text text-anchor="middle" x="613" y="-270" font-family="FreeSans" font-size="10.00">ciEqual</text>
</a>
</g>
</g>
<!-- Node9&#45;&gt;Node10 -->
<g id="edge9" class="edge"><title>Node9&#45;&gt;Node10</title>
<path fill="none" stroke="midnightblue" d="M487.692,-284.474C509.027,-283.363 532.411,-282.145 553.084,-281.069"/>
<polygon fill="midnightblue" stroke="midnightblue" points="553.503,-284.552 563.307,-280.536 553.138,-277.561 553.503,-284.552"/>
</g>
<!-- Node11 -->
<g id="node11" class="node"><title>Node11</title>
<g id="a_node11"><a xlink:href="classMisc_1_1StringUtils.html#a0759adb102842ee3bced227707eb6949" target="_top" xlink:title="Misc::StringUtils::\ltoLower">
<polygon fill="white" stroke="black" points="728.5,-263 728.5,-293 827.5,-293 827.5,-263 728.5,-263"/>
<text text-anchor="start" x="736.5" y="-281" font-family="FreeSans" font-size="10.00">Misc::StringUtils::</text>
<text text-anchor="middle" x="778" y="-270" font-family="FreeSans" font-size="10.00">toLower</text>
</a>
</g>
</g>
<!-- Node10&#45;&gt;Node11 -->
<g id="edge10" class="edge"><title>Node10&#45;&gt;Node11</title>
<path fill="none" stroke="midnightblue" d="M662.905,-278C680.31,-278 700.09,-278 718.235,-278"/>
<polygon fill="midnightblue" stroke="midnightblue" points="718.41,-281.5 728.41,-278 718.41,-274.5 718.41,-281.5"/>
</g>
<!-- Node13 -->
<g id="node13" class="node"><title>Node13</title>
<g id="a_node13"><a xlink:href="gen__iconv_8cpp.html#a47a14d9c2f599fa2591017202978774d" target="_top" xlink:title="num">
<polygon fill="white" stroke="black" points="759,-161.5 759,-180.5 797,-180.5 797,-161.5 759,-161.5"/>
<text text-anchor="middle" x="778" y="-168.5" font-family="FreeSans" font-size="10.00">num</text>
</a>
</g>
</g>
<!-- Node12&#45;&gt;Node13 -->
<g id="edge12" class="edge"><title>Node12&#45;&gt;Node13</title>
<path fill="none" stroke="midnightblue" d="M684.073,-171C706.903,-171 730.953,-171 748.866,-171"/>
<polygon fill="midnightblue" stroke="midnightblue" points="748.904,-174.5 758.904,-171 748.904,-167.5 748.904,-174.5"/>
</g>
<!-- Node14&#45;&gt;Node12 -->
<g id="edge14" class="edge"><title>Node14&#45;&gt;Node12</title>
<path fill="none" stroke="midnightblue" d="M476.568,-184.402C493.834,-182.693 513.161,-180.781 531.686,-178.948"/>
<polygon fill="midnightblue" stroke="midnightblue" points="532.27,-182.407 541.877,-177.939 531.581,-175.441 532.27,-182.407"/>
</g>
<!-- Node15&#45;&gt;Node7 -->
<g id="edge16" class="edge"><title>Node15&#45;&gt;Node7</title>
<path fill="none" stroke="midnightblue" d="M477.086,-77.0823C503.532,-83.1428 534.721,-90.2901 560.445,-96.1853"/>
<polygon fill="midnightblue" stroke="midnightblue" points="559.848,-99.6391 570.377,-98.4613 561.411,-92.8159 559.848,-99.6391"/>
</g>
<!-- Node16 -->
<g id="node16" class="node"><title>Node16</title>
<g id="a_node16"><a xlink:href="classMWWorld_1_1Class.html#a5095a30e5baa5742b3d393610fd73d60" target="_top" xlink:title="MWWorld::Class::getCreature\lStats">
<polygon fill="white" stroke="black" points="536,-49 536,-79 690,-79 690,-49 536,-49"/>
<text text-anchor="start" x="544" y="-67" font-family="FreeSans" font-size="10.00">MWWorld::Class::getCreature</text>
<text text-anchor="middle" x="613" y="-56" font-family="FreeSans" font-size="10.00">Stats</text>
</a>
</g>
</g>
<!-- Node15&#45;&gt;Node16 -->
<g id="edge17" class="edge"><title>Node15&#45;&gt;Node16</title>
<path fill="none" stroke="midnightblue" d="M477.086,-64C492.374,-64 509.246,-64 525.731,-64"/>
<polygon fill="midnightblue" stroke="midnightblue" points="525.928,-67.5001 535.928,-64 525.928,-60.5001 525.928,-67.5001"/>
</g>
<!-- Node17 -->
<g id="node17" class="node"><title>Node17</title>
<g id="a_node17"><a xlink:href="classMWMechanics_1_1CreatureStats.html#a86a79f6bee0ab6ffc653bf89eaebc9d7" target="_top" xlink:title="MWMechanics::CreatureStats\l::getGoldPool">
<polygon fill="white" stroke="black" points="534.5,-0 534.5,-30 691.5,-30 691.5,-0 534.5,-0"/>
<text text-anchor="start" x="542.5" y="-18" font-family="FreeSans" font-size="10.00">MWMechanics::CreatureStats</text>
<text text-anchor="middle" x="613" y="-7" font-family="FreeSans" font-size="10.00">::getGoldPool</text>
</a>
</g>
</g>
<!-- Node15&#45;&gt;Node17 -->
<g id="edge18" class="edge"><title>Node15&#45;&gt;Node17</title>
<path fill="none" stroke="midnightblue" d="M477.086,-49.4311C497.888,-44.1224 521.623,-38.0649 543.326,-32.5261"/>
<polygon fill="midnightblue" stroke="midnightblue" points="544.313,-35.8866 553.137,-30.0224 542.582,-29.104 544.313,-35.8866"/>
</g>
</g>
</svg>
