<?xml version="1.0" encoding="UTF-8" standalone="no"?>
<!DOCTYPE svg PUBLIC "-//W3C//DTD SVG 1.1//EN"
 "http://www.w3.org/Graphics/SVG/1.1/DTD/svg11.dtd">
<!-- Generated by graphviz version 2.36.0 (20140111.2315)
 -->
<!-- Title: MWMechanics::AttributeValue::getModified Pages: 1 -->
<svg width="566pt" height="1883pt"
 viewBox="0.00 0.00 566.00 1883.00" xmlns="http://www.w3.org/2000/svg" xmlns:xlink="http://www.w3.org/1999/xlink">
<g id="graph0" class="graph" transform="scale(1 1) rotate(0) translate(4 1879)">
<title>MWMechanics::AttributeValue::getModified</title>
<polygon fill="white" stroke="none" points="-4,4 -4,-1879 562,-1879 562,4 -4,4"/>
<!-- Node1 -->
<g id="node1" class="node"><title>Node1</title>
<polygon fill="#bfbfbf" stroke="black" points="0,-950 0,-980 146,-980 146,-950 0,-950"/>
<text text-anchor="start" x="8" y="-968" font-family="FreeSans" font-size="10.00">MWMechanics::AttributeValue</text>
<text text-anchor="middle" x="73" y="-957" font-family="FreeSans" font-size="10.00">::getModified</text>
</g>
<!-- Node2 -->
<g id="node2" class="node"><title>Node2</title>
<g id="a_node2"><a xlink:href="classMWClass_1_1Creature.html#a2b05916462047e35be6006ab8698a36b" target="_top" xlink:title="MWClass::Creature::\lonHit">
<polygon fill="white" stroke="black" points="215.5,-1845 215.5,-1875 318.5,-1875 318.5,-1845 215.5,-1845"/>
<text text-anchor="start" x="223.5" y="-1863" font-family="FreeSans" font-size="10.00">MWClass::Creature::</text>
<text text-anchor="middle" x="267" y="-1852" font-family="FreeSans" font-size="10.00">onHit</text>
</a>
</g>
</g>
<!-- Node1&#45;&gt;Node2 -->
<g id="edge1" class="edge"><title>Node1&#45;&gt;Node2</title>
<path fill="none" stroke="midnightblue" d="M73.5553,-990.25C71.799,-1119.16 70.1971,-1702.94 182,-1835 190.455,-1844.99 202.709,-1851.09 215.255,-1854.78"/>
<polygon fill="midnightblue" stroke="midnightblue" points="77.0562,-990.211 73.7065,-980.16 70.057,-990.106 77.0562,-990.211"/>
</g>
<!-- Node3 -->
<g id="node3" class="node"><title>Node3</title>
<g id="a_node3"><a xlink:href="classMWClass_1_1Creature.html#a89aa284c77bdb07c7f40380206ce180a" target="_top" xlink:title="Return movement speed. ">
<polygon fill="white" stroke="black" points="421.5,-1774 421.5,-1804 524.5,-1804 524.5,-1774 421.5,-1774"/>
<text text-anchor="start" x="429.5" y="-1792" font-family="FreeSans" font-size="10.00">MWClass::Creature::</text>
<text text-anchor="middle" x="473" y="-1781" font-family="FreeSans" font-size="10.00">getSpeed</text>
</a>
</g>
</g>
<!-- Node1&#45;&gt;Node3 -->
<g id="edge2" class="edge"><title>Node1&#45;&gt;Node3</title>
<path fill="none" stroke="midnightblue" d="M73.5912,-990.3C72.1746,-1112.27 72.565,-1638.19 182,-1748 214.619,-1780.73 347.094,-1787.65 421.197,-1788.91"/>
<polygon fill="midnightblue" stroke="midnightblue" points="77.0937,-990.128 73.7259,-980.083 70.0943,-990.036 77.0937,-990.128"/>
</g>
<!-- Node4 -->
<g id="node4" class="node"><title>Node4</title>
<g id="a_node4"><a xlink:href="classMWClass_1_1Creature.html#a08aa1c17e8357d69a71966102094f57e" target="_top" xlink:title="MWClass::Creature::\lgetCapacity">
<polygon fill="white" stroke="black" points="215.5,-1796 215.5,-1826 318.5,-1826 318.5,-1796 215.5,-1796"/>
<text text-anchor="start" x="223.5" y="-1814" font-family="FreeSans" font-size="10.00">MWClass::Creature::</text>
<text text-anchor="middle" x="267" y="-1803" font-family="FreeSans" font-size="10.00">getCapacity</text>
</a>
</g>
</g>
<!-- Node1&#45;&gt;Node4 -->
<g id="edge3" class="edge"><title>Node1&#45;&gt;Node4</title>
<path fill="none" stroke="midnightblue" d="M73.9197,-990.132C74.0175,-1113.62 80.316,-1655.17 182,-1781 190.371,-1791.36 202.597,-1798.14 215.144,-1802.59"/>
<polygon fill="midnightblue" stroke="midnightblue" points="77.4196,-990.118 73.9253,-980.116 70.4196,-990.114 77.4196,-990.118"/>
</g>
<!-- Node5 -->
<g id="node5" class="node"><title>Node5</title>
<g id="a_node5"><a xlink:href="classMWClass_1_1Npc.html#ada4bd30292b7cd8588ecb21915d5c8ce" target="_top" xlink:title="MWClass::Npc::onHit">
<polygon fill="white" stroke="black" points="214,-1719.5 214,-1738.5 320,-1738.5 320,-1719.5 214,-1719.5"/>
<text text-anchor="middle" x="267" y="-1726.5" font-family="FreeSans" font-size="10.00">MWClass::Npc::onHit</text>
</a>
</g>
</g>
<!-- Node1&#45;&gt;Node5 -->
<g id="edge5" class="edge"><title>Node1&#45;&gt;Node5</title>
<path fill="none" stroke="midnightblue" d="M74.1407,-990.479C75.3051,-1107.83 85.9373,-1595.19 182,-1705 190.189,-1714.36 201.75,-1720.19 213.683,-1723.78"/>
<polygon fill="midnightblue" stroke="midnightblue" points="77.6392,-990.274 74.0551,-980.303 70.6395,-990.333 77.6392,-990.274"/>
</g>
<!-- Node6 -->
<g id="node6" class="node"><title>Node6</title>
<g id="a_node6"><a xlink:href="classMWClass_1_1Npc.html#acaf825c7d2108eb7707911c1abf97284" target="_top" xlink:title="Return movement speed. ">
<polygon fill="white" stroke="black" points="410.5,-1662.5 410.5,-1681.5 535.5,-1681.5 535.5,-1662.5 410.5,-1662.5"/>
<text text-anchor="middle" x="473" y="-1669.5" font-family="FreeSans" font-size="10.00">MWClass::Npc::getSpeed</text>
</a>
</g>
</g>
<!-- Node1&#45;&gt;Node6 -->
<g id="edge6" class="edge"><title>Node1&#45;&gt;Node6</title>
<path fill="none" stroke="midnightblue" d="M73.7007,-990.318C72.9217,-1105.84 76.2546,-1581.18 182,-1672 258.198,-1737.44 391.752,-1700.89 446.992,-1681.56"/>
<polygon fill="midnightblue" stroke="midnightblue" points="77.2032,-990.032 73.7886,-980.002 70.2035,-989.972 77.2032,-990.032"/>
</g>
<!-- Node7 -->
<g id="node7" class="node"><title>Node7</title>
<g id="a_node7"><a xlink:href="classMWClass_1_1Npc.html#a9a9f4191138f024f027fff003aac080d" target="_top" xlink:title="Return jump velocity (not accounting for movement) ">
<polygon fill="white" stroke="black" points="412.5,-1614.5 412.5,-1633.5 533.5,-1633.5 533.5,-1614.5 412.5,-1614.5"/>
<text text-anchor="middle" x="473" y="-1621.5" font-family="FreeSans" font-size="10.00">MWClass::Npc::getJump</text>
</a>
</g>
</g>
<!-- Node1&#45;&gt;Node7 -->
<g id="edge7" class="edge"><title>Node1&#45;&gt;Node7</title>
<path fill="none" stroke="midnightblue" d="M74.4149,-990.437C76.7273,-1097.76 91.4753,-1511.88 182,-1596 214.328,-1626.04 337.328,-1628.14 412.367,-1626.43"/>
<polygon fill="midnightblue" stroke="midnightblue" points="77.9101,-990.153 74.2134,-980.224 70.9115,-990.292 77.9101,-990.153"/>
</g>
<!-- Node8 -->
<g id="node8" class="node"><title>Node8</title>
<g id="a_node8"><a xlink:href="classMWClass_1_1Npc.html#a9665d52b2f42bd557a1fd0f2e17c163d" target="_top" xlink:title="MWClass::Npc::getCapacity">
<polygon fill="white" stroke="black" points="200,-1643.5 200,-1662.5 334,-1662.5 334,-1643.5 200,-1643.5"/>
<text text-anchor="middle" x="267" y="-1650.5" font-family="FreeSans" font-size="10.00">MWClass::Npc::getCapacity</text>
</a>
</g>
</g>
<!-- Node1&#45;&gt;Node8 -->
<g id="edge8" class="edge"><title>Node1&#45;&gt;Node8</title>
<path fill="none" stroke="midnightblue" d="M74.6035,-990.275C77.7245,-1099.72 95.4278,-1531.65 182,-1629 187.543,-1635.23 194.582,-1639.9 202.218,-1643.38"/>
<polygon fill="midnightblue" stroke="midnightblue" points="78.0993,-990.068 74.3313,-980.166 71.1018,-990.257 78.0993,-990.068"/>
</g>
<!-- Node9 -->
<g id="node9" class="node"><title>Node9</title>
<g id="a_node9"><a xlink:href="classMWClass_1_1Npc.html#aa3f57289ee2438c15314f4bc4de07581" target="_top" xlink:title="MWClass::Npc::getSkill">
<polygon fill="white" stroke="black" points="209,-1567.5 209,-1586.5 325,-1586.5 325,-1567.5 209,-1567.5"/>
<text text-anchor="middle" x="267" y="-1574.5" font-family="FreeSans" font-size="10.00">MWClass::Npc::getSkill</text>
</a>
</g>
</g>
<!-- Node1&#45;&gt;Node9 -->
<g id="edge11" class="edge"><title>Node1&#45;&gt;Node9</title>
<path fill="none" stroke="midnightblue" d="M75.038,-990.209C79.7549,-1092.25 102.504,-1473.15 182,-1557 189.22,-1564.62 198.772,-1569.56 208.841,-1572.73"/>
<polygon fill="midnightblue" stroke="midnightblue" points="78.5336,-990.028 74.5924,-980.194 71.5405,-990.34 78.5336,-990.028"/>
</g>
<!-- Node10 -->
<g id="node10" class="node"><title>Node10</title>
<g id="a_node10"><a xlink:href="classMWMechanics_1_1Repair.html#a4456a1ec25b2bbede4c06df2dbfeacf5" target="_top" xlink:title="MWMechanics::Repair\l::repair">
<polygon fill="white" stroke="black" points="210.5,-1518 210.5,-1548 323.5,-1548 323.5,-1518 210.5,-1518"/>
<text text-anchor="start" x="218.5" y="-1536" font-family="FreeSans" font-size="10.00">MWMechanics::Repair</text>
<text text-anchor="middle" x="267" y="-1525" font-family="FreeSans" font-size="10.00">::repair</text>
</a>
</g>
</g>
<!-- Node1&#45;&gt;Node10 -->
<g id="edge12" class="edge"><title>Node1&#45;&gt;Node10</title>
<path fill="none" stroke="midnightblue" d="M75.624,-990.161C82.3319,-1086.44 110.941,-1430.01 182,-1508 189.583,-1516.32 199.801,-1521.92 210.497,-1525.68"/>
<polygon fill="midnightblue" stroke="midnightblue" points="79.1144,-989.9 74.9449,-980.16 72.1305,-990.374 79.1144,-989.9"/>
</g>
<!-- Node12 -->
<g id="node12" class="node"><title>Node12</title>
<g id="a_node12"><a xlink:href="classMWGui_1_1Recharge.html#a994cd812a36bc0e835f8284306b3576c" target="_top" xlink:title="MWGui::Recharge::onItemClicked">
<polygon fill="white" stroke="black" points="186.5,-1479.5 186.5,-1498.5 347.5,-1498.5 347.5,-1479.5 186.5,-1479.5"/>
<text text-anchor="middle" x="267" y="-1486.5" font-family="FreeSans" font-size="10.00">MWGui::Recharge::onItemClicked</text>
</a>
</g>
</g>
<!-- Node1&#45;&gt;Node12 -->
<g id="edge14" class="edge"><title>Node1&#45;&gt;Node12</title>
<path fill="none" stroke="midnightblue" d="M75.9116,-990.239C83.4032,-1082.43 113.773,-1399.21 182,-1469 186.192,-1473.29 191.124,-1476.72 196.464,-1479.47"/>
<polygon fill="midnightblue" stroke="midnightblue" points="79.3905,-989.833 75.1104,-980.142 72.4124,-990.387 79.3905,-989.833"/>
</g>
<!-- Node14 -->
<g id="node14" class="node"><title>Node14</title>
<g id="a_node14"><a xlink:href="classMWGui_1_1ReviewDialog.html#a2070a1f7166e0c59259a2cb14cc1f572" target="_top" xlink:title="MWGui::ReviewDialog\l::setSkillValue">
<polygon fill="white" stroke="black" points="211.5,-1430 211.5,-1460 322.5,-1460 322.5,-1430 211.5,-1430"/>
<text text-anchor="start" x="219.5" y="-1448" font-family="FreeSans" font-size="10.00">MWGui::ReviewDialog</text>
<text text-anchor="middle" x="267" y="-1437" font-family="FreeSans" font-size="10.00">::setSkillValue</text>
</a>
</g>
</g>
<!-- Node1&#45;&gt;Node14 -->
<g id="edge16" class="edge"><title>Node1&#45;&gt;Node14</title>
<path fill="none" stroke="midnightblue" d="M76.6704,-990.15C86.2801,-1076.09 121.757,-1356.27 182,-1420 189.839,-1428.29 200.295,-1433.87 211.161,-1437.62"/>
<polygon fill="midnightblue" stroke="midnightblue" points="80.1269,-989.562 75.5559,-980.004 73.1688,-990.326 80.1269,-989.562"/>
</g>
<!-- Node17 -->
<g id="node17" class="node"><title>Node17</title>
<g id="a_node17"><a xlink:href="classMWGui_1_1ReviewDialog.html#a68a3f6899d329a1d8be94a7709528d95" target="_top" xlink:title="MWGui::ReviewDialog\l::addSkills">
<polygon fill="white" stroke="black" points="211.5,-1381 211.5,-1411 322.5,-1411 322.5,-1381 211.5,-1381"/>
<text text-anchor="start" x="219.5" y="-1399" font-family="FreeSans" font-size="10.00">MWGui::ReviewDialog</text>
<text text-anchor="middle" x="267" y="-1388" font-family="FreeSans" font-size="10.00">::addSkills</text>
</a>
</g>
</g>
<!-- Node1&#45;&gt;Node17 -->
<g id="edge19" class="edge"><title>Node1&#45;&gt;Node17</title>
<path fill="none" stroke="midnightblue" d="M77.4629,-990.281C88.8867,-1070.16 127.766,-1315.15 182,-1371 189.95,-1379.19 200.452,-1384.72 211.328,-1388.46"/>
<polygon fill="midnightblue" stroke="midnightblue" points="80.8954,-989.556 76.0344,-980.142 73.9638,-990.533 80.8954,-989.556"/>
</g>
<!-- Node19 -->
<g id="node19" class="node"><title>Node19</title>
<g id="a_node19"><a xlink:href="classMWGui_1_1StatsWindow.html#a0802a9e8bb3ba5331569a37348f6ddaf" target="_top" xlink:title="Set value for the given ID. ">
<polygon fill="white" stroke="black" points="212,-1332 212,-1362 322,-1362 322,-1332 212,-1332"/>
<text text-anchor="start" x="220" y="-1350" font-family="FreeSans" font-size="10.00">MWGui::StatsWindow</text>
<text text-anchor="middle" x="267" y="-1339" font-family="FreeSans" font-size="10.00">::setValue</text>
</a>
</g>
</g>
<!-- Node1&#45;&gt;Node19 -->
<g id="edge21" class="edge"><title>Node1&#45;&gt;Node19</title>
<path fill="none" stroke="midnightblue" d="M73.9388,-990.136C75.1878,-1054.74 87.6471,-1228.07 182,-1322 190.195,-1330.16 200.928,-1335.68 211.969,-1339.4"/>
<polygon fill="midnightblue" stroke="midnightblue" points="77.4377,-990.011 73.8209,-980.053 70.4382,-990.093 77.4377,-990.011"/>
</g>
<!-- Node22 -->
<g id="node22" class="node"><title>Node22</title>
<g id="a_node22"><a xlink:href="classMWGui_1_1StatsWindow.html#a96988f2f2f429238818832f0bf62d0be" target="_top" xlink:title="MWGui::StatsWindow\l::addSkills">
<polygon fill="white" stroke="black" points="212,-1283 212,-1313 322,-1313 322,-1283 212,-1283"/>
<text text-anchor="start" x="220" y="-1301" font-family="FreeSans" font-size="10.00">MWGui::StatsWindow</text>
<text text-anchor="middle" x="267" y="-1290" font-family="FreeSans" font-size="10.00">::addSkills</text>
</a>
</g>
</g>
<!-- Node1&#45;&gt;Node22 -->
<g id="edge24" class="edge"><title>Node1&#45;&gt;Node22</title>
<path fill="none" stroke="midnightblue" d="M75.3618,-990.212C79.8963,-1048.62 99.3448,-1194.22 182,-1273 190.26,-1280.87 200.891,-1286.28 211.793,-1289.99"/>
<polygon fill="midnightblue" stroke="midnightblue" points="78.8404,-989.781 74.658,-980.047 71.8571,-990.265 78.8404,-989.781"/>
</g>
<!-- Node24 -->
<g id="node24" class="node"><title>Node24</title>
<g id="a_node24"><a xlink:href="classMWGui_1_1Widgets_1_1MWAttribute.html#aa32d5ffdb3e9151f2051a7fa86a03ad2" target="_top" xlink:title="MWGui::Widgets::MWAttribute\l::updateWidgets">
<polygon fill="white" stroke="red" points="194,-1234 194,-1264 340,-1264 340,-1234 194,-1234"/>
<text text-anchor="start" x="202" y="-1252" font-family="FreeSans" font-size="10.00">MWGui::Widgets::MWAttribute</text>
<text text-anchor="middle" x="267" y="-1241" font-family="FreeSans" font-size="10.00">::updateWidgets</text>
</a>
</g>
</g>
<!-- Node1&#45;&gt;Node24 -->
<g id="edge26" class="edge"><title>Node1&#45;&gt;Node24</title>
<path fill="none" stroke="midnightblue" d="M77.8675,-990.336C86.8844,-1040.87 113.945,-1154.85 182,-1219 188.536,-1225.16 196.421,-1230.07 204.71,-1233.98"/>
<polygon fill="midnightblue" stroke="midnightblue" points="81.2854,-989.556 76.165,-980.281 74.3837,-990.725 81.2854,-989.556"/>
</g>
<!-- Node25 -->
<g id="node25" class="node"><title>Node25</title>
<g id="a_node25"><a xlink:href="namespaceanonymous__namespace_02actors_8cpp_03.html#a1166f7679b7e7a0bc4fad2626d16438c" target="_top" xlink:title="anonymous_namespace\l\{actors::cpp\}::getRestoration\lPerHourOfSleep">
<polygon fill="white" stroke="red" points="199,-1135.5 199,-1176.5 335,-1176.5 335,-1135.5 199,-1135.5"/>
<text text-anchor="start" x="207" y="-1164.5" font-family="FreeSans" font-size="10.00">anonymous_namespace</text>
<text text-anchor="start" x="207" y="-1153.5" font-family="FreeSans" font-size="10.00">{actors::cpp}::getRestoration</text>
<text text-anchor="middle" x="267" y="-1142.5" font-family="FreeSans" font-size="10.00">PerHourOfSleep</text>
</a>
</g>
</g>
<!-- Node1&#45;&gt;Node25 -->
<g id="edge27" class="edge"><title>Node1&#45;&gt;Node25</title>
<path fill="none" stroke="midnightblue" d="M84.4507,-989.713C100.486,-1024.81 134.38,-1088.93 182,-1126 187.132,-1130 192.841,-1133.49 198.8,-1136.53"/>
<polygon fill="midnightblue" stroke="midnightblue" points="87.4911,-987.937 80.2282,-980.223 81.0956,-990.782 87.4911,-987.937"/>
</g>
<!-- Node26 -->
<g id="node26" class="node"><title>Node26</title>
<g id="a_node26"><a xlink:href="classMWMechanics_1_1Actors.html#af347805d67d95cbdcf6afafe6d430cc5" target="_top" xlink:title="MWMechanics::Actors\l::restoreDynamicStats">
<polygon fill="white" stroke="red" points="416.5,-1163 416.5,-1193 529.5,-1193 529.5,-1163 416.5,-1163"/>
<text text-anchor="start" x="424.5" y="-1181" font-family="FreeSans" font-size="10.00">MWMechanics::Actors</text>
<text text-anchor="middle" x="473" y="-1170" font-family="FreeSans" font-size="10.00">::restoreDynamicStats</text>
</a>
</g>
</g>
<!-- Node1&#45;&gt;Node26 -->
<g id="edge30" class="edge"><title>Node1&#45;&gt;Node26</title>
<path fill="none" stroke="midnightblue" d="M77.6826,-990.201C86.1956,-1038.12 112.147,-1141.48 182,-1185 257.656,-1232.14 367.326,-1210.75 427.809,-1193.06"/>
<polygon fill="midnightblue" stroke="midnightblue" points="81.0905,-989.357 75.9982,-980.066 74.1852,-990.505 81.0905,-989.357"/>
</g>
<!-- Node27 -->
<g id="node27" class="node"><title>Node27</title>
<g id="a_node27"><a xlink:href="classMWMechanics_1_1Actors.html#a0f3247dc3dcfdce41f500faff397904f" target="_top" xlink:title="MWMechanics::Actors\l::calculateDynamicStats">
<polygon fill="white" stroke="red" points="207,-1087 207,-1117 327,-1117 327,-1087 207,-1087"/>
<text text-anchor="start" x="215" y="-1105" font-family="FreeSans" font-size="10.00">MWMechanics::Actors</text>
<text text-anchor="middle" x="267" y="-1094" font-family="FreeSans" font-size="10.00">::calculateDynamicStats</text>
</a>
</g>
</g>
<!-- Node1&#45;&gt;Node27 -->
<g id="edge29" class="edge"><title>Node1&#45;&gt;Node27</title>
<path fill="none" stroke="midnightblue" d="M90.6324,-988.391C109.862,-1013.77 143.807,-1053.77 182,-1077 189.67,-1081.66 198.266,-1085.51 206.955,-1088.66"/>
<polygon fill="midnightblue" stroke="midnightblue" points="93.2312,-986.019 84.4616,-980.074 87.6096,-990.191 93.2312,-986.019"/>
</g>
<!-- Node28 -->
<g id="node28" class="node"><title>Node28</title>
<g id="a_node28"><a xlink:href="classMWMechanics_1_1Actors.html#aa845f11827de366ac04fb7c75c18588b" target="_top" xlink:title="MWMechanics::Actors\l::calculateRestoration">
<polygon fill="white" stroke="red" points="210.5,-1038 210.5,-1068 323.5,-1068 323.5,-1038 210.5,-1038"/>
<text text-anchor="start" x="218.5" y="-1056" font-family="FreeSans" font-size="10.00">MWMechanics::Actors</text>
<text text-anchor="middle" x="267" y="-1045" font-family="FreeSans" font-size="10.00">::calculateRestoration</text>
</a>
</g>
</g>
<!-- Node1&#45;&gt;Node28 -->
<g id="edge31" class="edge"><title>Node1&#45;&gt;Node28</title>
<path fill="none" stroke="midnightblue" d="M104.855,-985.67C125.911,-999.096 154.81,-1016.23 182,-1028 190.936,-1031.87 200.654,-1035.37 210.204,-1038.44"/>
<polygon fill="midnightblue" stroke="midnightblue" points="106.638,-982.655 96.3392,-980.169 102.84,-988.535 106.638,-982.655"/>
</g>
<!-- Node29 -->
<g id="node29" class="node"><title>Node29</title>
<g id="a_node29"><a xlink:href="namespaceMWMechanics.html#ab7eadd05e39e29738227aeb394c096ec" target="_top" xlink:title="MWMechanics::rateEffect">
<polygon fill="white" stroke="red" points="204.5,-999.5 204.5,-1018.5 329.5,-1018.5 329.5,-999.5 204.5,-999.5"/>
<text text-anchor="middle" x="267" y="-1006.5" font-family="FreeSans" font-size="10.00">MWMechanics::rateEffect</text>
</a>
</g>
</g>
<!-- Node1&#45;&gt;Node29 -->
<g id="edge32" class="edge"><title>Node1&#45;&gt;Node29</title>
<path fill="none" stroke="midnightblue" d="M149.573,-982.319C175.083,-988.165 202.61,-994.473 224.491,-999.488"/>
<polygon fill="midnightblue" stroke="midnightblue" points="150.068,-978.842 139.539,-980.019 148.504,-985.665 150.068,-978.842"/>
</g>
<!-- Node30 -->
<g id="node30" class="node"><title>Node30</title>
<g id="a_node30"><a xlink:href="classMWMechanics_1_1Alchemy.html#ae6f53a6e3479fd55ac4614fc413736bd" target="_top" xlink:title="MWMechanics::Alchemy\l::getAlchemyFactor">
<polygon fill="white" stroke="black" points="206,-950 206,-980 328,-980 328,-950 206,-950"/>
<text text-anchor="start" x="214" y="-968" font-family="FreeSans" font-size="10.00">MWMechanics::Alchemy</text>
<text text-anchor="middle" x="267" y="-957" font-family="FreeSans" font-size="10.00">::getAlchemyFactor</text>
</a>
</g>
</g>
<!-- Node1&#45;&gt;Node30 -->
<g id="edge33" class="edge"><title>Node1&#45;&gt;Node30</title>
<path fill="none" stroke="midnightblue" d="M156.299,-965C172.922,-965 190.104,-965 205.796,-965"/>
<polygon fill="midnightblue" stroke="midnightblue" points="156.04,-961.5 146.04,-965 156.04,-968.5 156.04,-961.5"/>
</g>
<!-- Node31 -->
<g id="node31" class="node"><title>Node31</title>
<g id="a_node31"><a xlink:href="namespaceMWMechanics.html#a3a149737334b960ada4aa48228feae47" target="_top" xlink:title="MWMechanics::blockMeleeAttack">
<polygon fill="white" stroke="red" points="185.5,-911.5 185.5,-930.5 348.5,-930.5 348.5,-911.5 185.5,-911.5"/>
<text text-anchor="middle" x="267" y="-918.5" font-family="FreeSans" font-size="10.00">MWMechanics::blockMeleeAttack</text>
</a>
</g>
</g>
<!-- Node1&#45;&gt;Node31 -->
<g id="edge34" class="edge"><title>Node1&#45;&gt;Node31</title>
<path fill="none" stroke="midnightblue" d="M149.573,-947.681C175.083,-941.835 202.61,-935.527 224.491,-930.512"/>
<polygon fill="midnightblue" stroke="midnightblue" points="148.504,-944.335 139.539,-949.981 150.068,-951.158 148.504,-944.335"/>
</g>
<!-- Node32 -->
<g id="node32" class="node"><title>Node32</title>
<g id="a_node32"><a xlink:href="namespaceMWMechanics.html#a0eca898ae05a994e8463ec1705205788" target="_top" xlink:title="Get the chance (in percent) for attacker to successfully hit victim with a given weapon skill value...">
<polygon fill="white" stroke="red" points="401.5,-720.5 401.5,-739.5 544.5,-739.5 544.5,-720.5 401.5,-720.5"/>
<text text-anchor="middle" x="473" y="-727.5" font-family="FreeSans" font-size="10.00">MWMechanics::getHitChance</text>
</a>
</g>
</g>
<!-- Node1&#45;&gt;Node32 -->
<g id="edge35" class="edge"><title>Node1&#45;&gt;Node32</title>
<path fill="none" stroke="midnightblue" d="M75.7318,-939.654C80.9522,-885.602 101.596,-759.587 182,-706 267.758,-648.845 400.992,-698.021 451.58,-720.357"/>
<polygon fill="midnightblue" stroke="midnightblue" points="72.2331,-939.488 74.858,-949.753 79.2071,-940.092 72.2331,-939.488"/>
</g>
<!-- Node33 -->
<g id="node33" class="node"><title>Node33</title>
<g id="a_node33"><a xlink:href="namespaceMWMechanics.html#aa9628a68120fe3fbe5e75c0a078389c3" target="_top" xlink:title="Applies damage to attacker based on the victim&#39;s elemental shields. ">
<polygon fill="white" stroke="red" points="192,-813 192,-843 342,-843 342,-813 192,-813"/>
<text text-anchor="start" x="200" y="-831" font-family="FreeSans" font-size="10.00">MWMechanics::applyElemental</text>
<text text-anchor="middle" x="267" y="-820" font-family="FreeSans" font-size="10.00">Shields</text>
</a>
</g>
</g>
<!-- Node1&#45;&gt;Node33 -->
<g id="edge36" class="edge"><title>Node1&#45;&gt;Node33</title>
<path fill="none" stroke="midnightblue" d="M90.6324,-941.609C109.862,-916.228 143.807,-876.229 182,-853 188.37,-849.126 195.379,-845.819 202.549,-843.004"/>
<polygon fill="midnightblue" stroke="midnightblue" points="87.6096,-939.809 84.4616,-949.926 93.2312,-943.981 87.6096,-939.809"/>
</g>
<!-- Node34 -->
<g id="node34" class="node"><title>Node34</title>
<g id="a_node34"><a xlink:href="namespaceMWMechanics.html#a3b181d0a44dfe8c991f8126f1e5eece7" target="_top" xlink:title="Adjust weapon damage based on its condition. A used weapon will be less effective. ">
<polygon fill="white" stroke="red" points="194,-764 194,-794 340,-794 340,-764 194,-764"/>
<text text-anchor="start" x="202" y="-782" font-family="FreeSans" font-size="10.00">MWMechanics::adjustWeapon</text>
<text text-anchor="middle" x="267" y="-771" font-family="FreeSans" font-size="10.00">Damage</text>
</a>
</g>
</g>
<!-- Node1&#45;&gt;Node34 -->
<g id="edge37" class="edge"><title>Node1&#45;&gt;Node34</title>
<path fill="none" stroke="midnightblue" d="M84.1871,-939.939C99.8992,-904.417 133.401,-839.778 182,-804 187.269,-800.121 193.138,-796.84 199.256,-794.065"/>
<polygon fill="midnightblue" stroke="midnightblue" points="80.7891,-938.981 80.0568,-949.551 87.2204,-941.745 80.7891,-938.981"/>
</g>
<!-- Node35 -->
<g id="node35" class="node"><title>Node35</title>
<g id="a_node35"><a xlink:href="classMWMechanics_1_1CreatureStats.html#a8283f726e62dfd0744e115143e68c294" target="_top" xlink:title="MWMechanics::CreatureStats\l::setAttribute">
<polygon fill="white" stroke="red" points="195,-627 195,-657 339,-657 339,-627 195,-627"/>
<text text-anchor="start" x="203" y="-645" font-family="FreeSans" font-size="10.00">MWMechanics::CreatureStats</text>
<text text-anchor="middle" x="267" y="-634" font-family="FreeSans" font-size="10.00">::setAttribute</text>
</a>
</g>
</g>
<!-- Node1&#45;&gt;Node35 -->
<g id="edge38" class="edge"><title>Node1&#45;&gt;Node35</title>
<path fill="none" stroke="midnightblue" d="M76.2102,-939.761C82.4403,-883.781 105.064,-748.161 182,-672 188.163,-665.899 195.649,-661.032 203.585,-657.15"/>
<polygon fill="midnightblue" stroke="midnightblue" points="72.7137,-939.548 75.1715,-949.853 79.6769,-940.264 72.7137,-939.548"/>
</g>
<!-- Node36 -->
<g id="node36" class="node"><title>Node36</title>
<g id="a_node36"><a xlink:href="classMWScript_1_1Stats_1_1OpSetAttribute.html#abf57f8de8fa1081e9003e6dce1f66cf5" target="_top" xlink:title="MWScript::Stats::OpSetAttribute\l::execute">
<polygon fill="white" stroke="black" points="395.5,-526 395.5,-556 550.5,-556 550.5,-526 395.5,-526"/>
<text text-anchor="start" x="403.5" y="-544" font-family="FreeSans" font-size="10.00">MWScript::Stats::OpSetAttribute</text>
<text text-anchor="middle" x="473" y="-533" font-family="FreeSans" font-size="10.00">::execute</text>
</a>
</g>
</g>
<!-- Node1&#45;&gt;Node36 -->
<g id="edge56" class="edge"><title>Node1&#45;&gt;Node36</title>
<path fill="none" stroke="midnightblue" d="M75.3891,-939.518C81.0785,-845.789 106.017,-522.426 182,-461 240.757,-413.5 279.686,-439.105 352,-461 393.937,-473.698 434.615,-506.419 456.157,-525.855"/>
<polygon fill="midnightblue" stroke="midnightblue" points="71.879,-939.589 74.7886,-949.777 78.8671,-939.998 71.879,-939.589"/>
</g>
<!-- Node37 -->
<g id="node37" class="node"><title>Node37</title>
<g id="a_node37"><a xlink:href="classMWMechanics_1_1CreatureStats.html#a73a6c44d487a1c5772380479236c257d" target="_top" xlink:title="MWMechanics::CreatureStats\l::getEvasion">
<polygon fill="white" stroke="black" points="195,-862 195,-892 339,-892 339,-862 195,-862"/>
<text text-anchor="start" x="203" y="-880" font-family="FreeSans" font-size="10.00">MWMechanics::CreatureStats</text>
<text text-anchor="middle" x="267" y="-869" font-family="FreeSans" font-size="10.00">::getEvasion</text>
</a>
</g>
</g>
<!-- Node1&#45;&gt;Node37 -->
<g id="edge40" class="edge"><title>Node1&#45;&gt;Node37</title>
<path fill="none" stroke="midnightblue" d="M104.855,-944.33C125.911,-930.904 154.81,-913.775 182,-902 190.377,-898.372 199.442,-895.071 208.412,-892.144"/>
<polygon fill="midnightblue" stroke="midnightblue" points="102.84,-941.465 96.3392,-949.831 106.638,-947.345 102.84,-941.465"/>
</g>
<!-- Node38 -->
<g id="node38" class="node"><title>Node38</title>
<g id="a_node38"><a xlink:href="classMWMechanics_1_1Enchanting.html#a6d98ce0a7bcecc7465bb2fd81be11cc2" target="_top" xlink:title="MWMechanics::Enchanting\l::getEnchantChance">
<polygon fill="white" stroke="red" points="200.5,-578 200.5,-608 333.5,-608 333.5,-578 200.5,-578"/>
<text text-anchor="start" x="208.5" y="-596" font-family="FreeSans" font-size="10.00">MWMechanics::Enchanting</text>
<text text-anchor="middle" x="267" y="-585" font-family="FreeSans" font-size="10.00">::getEnchantChance</text>
</a>
</g>
</g>
<!-- Node1&#45;&gt;Node38 -->
<g id="edge42" class="edge"><title>Node1&#45;&gt;Node38</title>
<path fill="none" stroke="midnightblue" d="M74.2021,-939.723C76.1177,-876.25 90.1041,-708.758 182,-618 187.305,-612.761 193.656,-608.612 200.459,-605.327"/>
<polygon fill="midnightblue" stroke="midnightblue" points="70.697,-939.917 73.9734,-949.992 77.6953,-940.073 70.697,-939.917"/>
</g>
<!-- Node39 -->
<g id="node39" class="node"><title>Node39</title>
<g id="a_node39"><a xlink:href="namespaceanonymous__namespace_02mechanicsmanagerimp_8cpp_03.html#a5b2b5d6ec92a783dfe430bdc5e09410f" target="_top" xlink:title="anonymous_namespace\l\{mechanicsmanagerimp\l::cpp\}::getPersuasionRatings">
<polygon fill="white" stroke="red" points="198.5,-518.5 198.5,-559.5 335.5,-559.5 335.5,-518.5 198.5,-518.5"/>
<text text-anchor="start" x="206.5" y="-547.5" font-family="FreeSans" font-size="10.00">anonymous_namespace</text>
<text text-anchor="start" x="206.5" y="-536.5" font-family="FreeSans" font-size="10.00">{mechanicsmanagerimp</text>
<text text-anchor="middle" x="267" y="-525.5" font-family="FreeSans" font-size="10.00">::cpp}::getPersuasionRatings</text>
</a>
</g>
</g>
<!-- Node1&#45;&gt;Node39 -->
<g id="edge43" class="edge"><title>Node1&#45;&gt;Node39</title>
<path fill="none" stroke="midnightblue" d="M73.342,-939.379C72.9816,-870.184 81.5558,-677.467 182,-569 186.63,-564.001 192.149,-559.834 198.116,-556.361"/>
<polygon fill="midnightblue" stroke="midnightblue" points="69.8468,-939.795 73.4709,-949.751 76.8463,-939.708 69.8468,-939.795"/>
</g>
<!-- Node40 -->
<g id="node40" class="node"><title>Node40</title>
<g id="a_node40"><a xlink:href="classMWMechanics_1_1MechanicsManager.html#a42d08c62edb89e75619ebdb65e90c17d" target="_top" xlink:title="This is used by every service to determine the price of objects given the trading skills of the playe...">
<polygon fill="white" stroke="black" points="182.5,-470 182.5,-500 351.5,-500 351.5,-470 182.5,-470"/>
<text text-anchor="start" x="190.5" y="-488" font-family="FreeSans" font-size="10.00">MWMechanics::MechanicsManager</text>
<text text-anchor="middle" x="267" y="-477" font-family="FreeSans" font-size="10.00">::getBarterOffer</text>
</a>
</g>
</g>
<!-- Node1&#45;&gt;Node40 -->
<g id="edge44" class="edge"><title>Node1&#45;&gt;Node40</title>
<path fill="none" stroke="midnightblue" d="M76.6368,-939.771C86.1367,-853.567 121.298,-572.544 182,-509 185.248,-505.6 188.941,-502.672 192.923,-500.151"/>
<polygon fill="midnightblue" stroke="midnightblue" points="73.1317,-939.63 75.5355,-949.949 80.0911,-940.383 73.1317,-939.63"/>
</g>
<!-- Node41 -->
<g id="node41" class="node"><title>Node41</title>
<g id="a_node41"><a xlink:href="classMWMechanics_1_1MechanicsManager.html#a2839aaaa7ce0a8024f6ba2daa3ce45a5" target="_top" xlink:title="Check if observer is potentially aware of ptr. Does not do a line of sight check! ...">
<polygon fill="white" stroke="red" points="182.5,-715 182.5,-745 351.5,-745 351.5,-715 182.5,-715"/>
<text text-anchor="start" x="190.5" y="-733" font-family="FreeSans" font-size="10.00">MWMechanics::MechanicsManager</text>
<text text-anchor="middle" x="267" y="-722" font-family="FreeSans" font-size="10.00">::awarenessCheck</text>
</a>
</g>
</g>
<!-- Node1&#45;&gt;Node41 -->
<g id="edge45" class="edge"><title>Node1&#45;&gt;Node41</title>
<path fill="none" stroke="midnightblue" d="M79.9082,-940.134C91.6462,-896.174 122.098,-804.694 182,-755 186.684,-751.114 191.955,-747.832 197.516,-745.06"/>
<polygon fill="midnightblue" stroke="midnightblue" points="76.4749,-939.432 77.3803,-949.988 83.2553,-941.171 76.4749,-939.432"/>
</g>
<!-- Node42 -->
<g id="node42" class="node"><title>Node42</title>
<g id="a_node42"><a xlink:href="classMWMechanics_1_1Pickpocket.html#a70d7156bb64e6333a11a4a9bd60e918b" target="_top" xlink:title="MWMechanics::Pickpocket\l::getChanceModifier">
<polygon fill="white" stroke="red" points="200,-382 200,-412 334,-412 334,-382 200,-382"/>
<text text-anchor="start" x="208" y="-400" font-family="FreeSans" font-size="10.00">MWMechanics::Pickpocket</text>
<text text-anchor="middle" x="267" y="-389" font-family="FreeSans" font-size="10.00">::getChanceModifier</text>
</a>
</g>
</g>
<!-- Node1&#45;&gt;Node42 -->
<g id="edge47" class="edge"><title>Node1&#45;&gt;Node42</title>
<path fill="none" stroke="midnightblue" d="M75.8325,-939.578C83.219,-843.767 113.747,-505.937 182,-427 187.267,-420.909 193.86,-416.054 201.023,-412.186"/>
<polygon fill="midnightblue" stroke="midnightblue" points="72.3244,-939.555 75.0631,-949.789 79.3047,-940.081 72.3244,-939.555"/>
</g>
<!-- Node43 -->
<g id="node43" class="node"><title>Node43</title>
<g id="a_node43"><a xlink:href="classMWMechanics_1_1Security.html#a29e6f0ccc5c619b0d123471faa36d7a7" target="_top" xlink:title="MWMechanics::Security\l::Security">
<polygon fill="white" stroke="black" points="207,-333 207,-363 327,-363 327,-333 207,-333"/>
<text text-anchor="start" x="215" y="-351" font-family="FreeSans" font-size="10.00">MWMechanics::Security</text>
<text text-anchor="middle" x="267" y="-340" font-family="FreeSans" font-size="10.00">::Security</text>
</a>
</g>
</g>
<!-- Node1&#45;&gt;Node43 -->
<g id="edge48" class="edge"><title>Node1&#45;&gt;Node43</title>
<path fill="none" stroke="midnightblue" d="M75.1848,-939.602C80.4459,-837.578 104.941,-458.937 182,-373 188.704,-365.523 197.535,-360.24 206.95,-356.516"/>
<polygon fill="midnightblue" stroke="midnightblue" points="71.6747,-939.718 74.6724,-949.88 78.6661,-940.067 71.6747,-939.718"/>
</g>
<!-- Node44 -->
<g id="node44" class="node"><title>Node44</title>
<g id="a_node44"><a xlink:href="namespaceMWMechanics.html#ae09ef3992b635b2ab37a801b013b3c89" target="_top" xlink:title="MWMechanics::getSpellSuccess\lChance">
<polygon fill="white" stroke="red" points="188.5,-245 188.5,-275 345.5,-275 345.5,-245 188.5,-245"/>
<text text-anchor="start" x="196.5" y="-263" font-family="FreeSans" font-size="10.00">MWMechanics::getSpellSuccess</text>
<text text-anchor="middle" x="267" y="-252" font-family="FreeSans" font-size="10.00">Chance</text>
</a>
</g>
</g>
<!-- Node1&#45;&gt;Node44 -->
<g id="edge49" class="edge"><title>Node1&#45;&gt;Node44</title>
<path fill="none" stroke="midnightblue" d="M74.6903,-939.807C78.1924,-829.728 97.3169,-391.935 182,-290 187.047,-283.925 193.416,-279.08 200.382,-275.216"/>
<polygon fill="midnightblue" stroke="midnightblue" points="71.1872,-939.861 74.3827,-949.962 78.1839,-940.073 71.1872,-939.861"/>
</g>
<!-- Node45 -->
<g id="node45" class="node"><title>Node45</title>
<g id="a_node45"><a xlink:href="namespaceMWMechanics.html#a238e3b05e43db2603c898d50b4be1e9f" target="_top" xlink:title="MWMechanics::getEffectResistance">
<polygon fill="white" stroke="red" points="388,-272.5 388,-291.5 558,-291.5 558,-272.5 388,-272.5"/>
<text text-anchor="middle" x="473" y="-279.5" font-family="FreeSans" font-size="10.00">MWMechanics::getEffectResistance</text>
</a>
</g>
</g>
<!-- Node1&#45;&gt;Node45 -->
<g id="edge51" class="edge"><title>Node1&#45;&gt;Node45</title>
<path fill="none" stroke="midnightblue" d="M74.4471,-939.628C76.8983,-831.638 92.1552,-411.794 182,-324 210.517,-296.134 312.838,-286.647 387.89,-283.478"/>
<polygon fill="midnightblue" stroke="midnightblue" points="70.9424,-939.822 74.2323,-949.893 77.9409,-939.968 70.9424,-939.822"/>
</g>
<!-- Node46 -->
<g id="node46" class="node"><title>Node46</title>
<g id="a_node46"><a xlink:href="classMWMechanics_1_1CastSpell.html#ac9c104a8f6efc9e700a61c124c795280" target="_top" xlink:title="MWMechanics::CastSpell\l::cast">
<polygon fill="white" stroke="black" points="204,-196 204,-226 330,-226 330,-196 204,-196"/>
<text text-anchor="start" x="212" y="-214" font-family="FreeSans" font-size="10.00">MWMechanics::CastSpell</text>
<text text-anchor="middle" x="267" y="-203" font-family="FreeSans" font-size="10.00">::cast</text>
</a>
</g>
</g>
<!-- Node1&#45;&gt;Node46 -->
<g id="edge52" class="edge"><title>Node1&#45;&gt;Node46</title>
<path fill="none" stroke="midnightblue" d="M74.2246,-939.919C75.763,-824.406 87.8132,-344.631 182,-236 187.881,-229.217 195.513,-224.233 203.776,-220.579"/>
<polygon fill="midnightblue" stroke="midnightblue" points="70.7247,-939.896 74.1061,-949.936 77.7242,-939.978 70.7247,-939.896"/>
</g>
<!-- Node47 -->
<g id="node47" class="node"><title>Node47</title>
<g id="a_node47"><a xlink:href="classMWMechanics_1_1AttributeValue.html#a4531f60b94596c326b16003a49ff3e61" target="_top" xlink:title="MWMechanics::AttributeValue\l::damage">
<polygon fill="white" stroke="red" points="194,-147 194,-177 340,-177 340,-147 194,-147"/>
<text text-anchor="start" x="202" y="-165" font-family="FreeSans" font-size="10.00">MWMechanics::AttributeValue</text>
<text text-anchor="middle" x="267" y="-154" font-family="FreeSans" font-size="10.00">::damage</text>
</a>
</g>
</g>
<!-- Node1&#45;&gt;Node47 -->
<g id="edge53" class="edge"><title>Node1&#45;&gt;Node47</title>
<path fill="none" stroke="midnightblue" d="M73.9664,-939.795C74.3148,-819.381 81.7207,-303.731 182,-187 185.371,-183.076 189.328,-179.753 193.657,-176.941"/>
<polygon fill="midnightblue" stroke="midnightblue" points="70.4663,-939.888 73.9518,-949.893 77.4663,-939.898 70.4663,-939.888"/>
</g>
<!-- Node48 -->
<g id="node48" class="node"><title>Node48</title>
<g id="a_node48"><a xlink:href="classMWMechanics_1_1Trading.html#a9089cf1b20b1ed39cbd494f96cec5b3b" target="_top" xlink:title="MWMechanics::Trading\l::haggle">
<polygon fill="white" stroke="red" points="208.5,-98 208.5,-128 325.5,-128 325.5,-98 208.5,-98"/>
<text text-anchor="start" x="216.5" y="-116" font-family="FreeSans" font-size="10.00">MWMechanics::Trading</text>
<text text-anchor="middle" x="267" y="-105" font-family="FreeSans" font-size="10.00">::haggle</text>
</a>
</g>
</g>
<!-- Node1&#45;&gt;Node48 -->
<g id="edge54" class="edge"><title>Node1&#45;&gt;Node48</title>
<path fill="none" stroke="midnightblue" d="M73.7368,-939.822C72.942,-814.925 75.5737,-262.904 182,-138 188.908,-129.893 198.318,-124.35 208.347,-120.576"/>
<polygon fill="midnightblue" stroke="midnightblue" points="70.2377,-939.967 73.8154,-949.94 77.2375,-939.913 70.2377,-939.967"/>
</g>
<!-- Node49 -->
<g id="node49" class="node"><title>Node49</title>
<g id="a_node49"><a xlink:href="classMWScript_1_1Stats_1_1OpGetAttribute.html#ad8e6694eb894d7059ecb1ddf8e8e2da0" target="_top" xlink:title="MWScript::Stats::OpGetAttribute\l::execute">
<polygon fill="white" stroke="black" points="189,-49 189,-79 345,-79 345,-49 189,-49"/>
<text text-anchor="start" x="197" y="-67" font-family="FreeSans" font-size="10.00">MWScript::Stats::OpGetAttribute</text>
<text text-anchor="middle" x="267" y="-56" font-family="FreeSans" font-size="10.00">::execute</text>
</a>
</g>
</g>
<!-- Node1&#45;&gt;Node49 -->
<g id="edge55" class="edge"><title>Node1&#45;&gt;Node49</title>
<path fill="none" stroke="midnightblue" d="M73.5289,-939.577C71.6416,-809.785 69.4934,-222.005 182,-89 185.243,-85.1664 189.045,-81.9058 193.209,-79.134"/>
<polygon fill="midnightblue" stroke="midnightblue" points="70.0318,-939.793 73.6904,-949.736 77.0309,-939.682 70.0318,-939.793"/>
</g>
<!-- Node50 -->
<g id="node50" class="node"><title>Node50</title>
<g id="a_node50"><a xlink:href="classMWScript_1_1Stats_1_1OpSetSkill.html#ae46589fd5ea45281a32657c360e2ea62" target="_top" xlink:title="MWScript::Stats::OpSetSkill\l::execute">
<polygon fill="white" stroke="black" points="198.5,-0 198.5,-30 335.5,-30 335.5,-0 198.5,-0"/>
<text text-anchor="start" x="206.5" y="-18" font-family="FreeSans" font-size="10.00">MWScript::Stats::OpSetSkill</text>
<text text-anchor="middle" x="267" y="-7" font-family="FreeSans" font-size="10.00">::execute</text>
</a>
</g>
</g>
<!-- Node1&#45;&gt;Node50 -->
<g id="edge57" class="edge"><title>Node1&#45;&gt;Node50</title>
<path fill="none" stroke="midnightblue" d="M75.3104,-939.662C82.8346,-798.314 122.31,-111.028 182,-40 186.503,-34.6417 192.1,-30.4019 198.252,-27.0515"/>
<polygon fill="midnightblue" stroke="midnightblue" points="71.8009,-939.751 74.7696,-949.922 78.7912,-940.12 71.8009,-939.751"/>
</g>
<!-- Node4&#45;&gt;Node3 -->
<g id="edge4" class="edge"><title>Node4&#45;&gt;Node3</title>
<path fill="none" stroke="midnightblue" d="M328.853,-1804.44C358.294,-1801.26 393.23,-1797.49 421.218,-1794.48"/>
<polygon fill="midnightblue" stroke="midnightblue" points="328.256,-1800.98 318.689,-1805.53 329.007,-1807.94 328.256,-1800.98"/>
</g>
<!-- Node8&#45;&gt;Node6 -->
<g id="edge9" class="edge"><title>Node8&#45;&gt;Node6</title>
<path fill="none" stroke="midnightblue" d="M344.412,-1660.12C366.136,-1662.14 389.515,-1664.32 410.25,-1666.25"/>
<polygon fill="midnightblue" stroke="midnightblue" points="344.514,-1656.61 334.233,-1659.17 343.865,-1663.58 344.514,-1656.61"/>
</g>
<!-- Node8&#45;&gt;Node7 -->
<g id="edge10" class="edge"><title>Node8&#45;&gt;Node7</title>
<path fill="none" stroke="midnightblue" d="M344.404,-1642.14C366.849,-1638.95 391.062,-1635.51 412.3,-1632.49"/>
<polygon fill="midnightblue" stroke="midnightblue" points="343.641,-1638.71 334.233,-1643.58 344.626,-1645.64 343.641,-1638.71"/>
</g>
<!-- Node11 -->
<g id="node11" class="node"><title>Node11</title>
<g id="a_node11"><a xlink:href="classMWGui_1_1Repair.html#a6c2fdbcbc193b1b301a54813a1ef9222" target="_top" xlink:title="MWGui::Repair::onRepairItem">
<polygon fill="white" stroke="red" points="401.5,-1566.5 401.5,-1585.5 544.5,-1585.5 544.5,-1566.5 401.5,-1566.5"/>
<text text-anchor="middle" x="473" y="-1573.5" font-family="FreeSans" font-size="10.00">MWGui::Repair::onRepairItem</text>
</a>
</g>
</g>
<!-- Node10&#45;&gt;Node11 -->
<g id="edge13" class="edge"><title>Node10&#45;&gt;Node11</title>
<path fill="none" stroke="midnightblue" d="M333.817,-1546.87C364.129,-1553.26 399.339,-1560.68 426.631,-1566.44"/>
<polygon fill="midnightblue" stroke="midnightblue" points="334.251,-1543.39 323.744,-1544.75 332.807,-1550.24 334.251,-1543.39"/>
</g>
<!-- Node13 -->
<g id="node13" class="node"><title>Node13</title>
<g id="a_node13"><a xlink:href="classMWGui_1_1Recharge.html#ac784d7f3d77e54934047e5c4e5db8815" target="_top" xlink:title="MWGui::Recharge::Recharge">
<polygon fill="white" stroke="black" points="403,-1528.5 403,-1547.5 543,-1547.5 543,-1528.5 403,-1528.5"/>
<text text-anchor="middle" x="473" y="-1535.5" font-family="FreeSans" font-size="10.00">MWGui::Recharge::Recharge</text>
</a>
</g>
</g>
<!-- Node12&#45;&gt;Node13 -->
<g id="edge15" class="edge"><title>Node12&#45;&gt;Node13</title>
<path fill="none" stroke="midnightblue" d="M318.542,-1500.94C329.575,-1503.57 341.184,-1506.36 352,-1509 368.022,-1512.91 371.978,-1514.09 388,-1518 402.127,-1521.45 417.608,-1525.15 431.389,-1528.43"/>
<polygon fill="midnightblue" stroke="midnightblue" points="319.15,-1497.48 308.611,-1498.57 317.528,-1504.29 319.15,-1497.48"/>
</g>
<!-- Node15 -->
<g id="node15" class="node"><title>Node15</title>
<g id="a_node15"><a xlink:href="classMWGui_1_1CharacterCreation.html#a1e4e42fab6e27f407b50fa055939b4bf" target="_top" xlink:title="MWGui::CharacterCreation\l::setValue">
<polygon fill="white" stroke="black" points="407.5,-1430 407.5,-1460 538.5,-1460 538.5,-1430 407.5,-1430"/>
<text text-anchor="start" x="415.5" y="-1448" font-family="FreeSans" font-size="10.00">MWGui::CharacterCreation</text>
<text text-anchor="middle" x="473" y="-1437" font-family="FreeSans" font-size="10.00">::setValue</text>
</a>
</g>
</g>
<!-- Node14&#45;&gt;Node15 -->
<g id="edge17" class="edge"><title>Node14&#45;&gt;Node15</title>
<path fill="none" stroke="midnightblue" d="M332.68,-1445C356.534,-1445 383.546,-1445 407.394,-1445"/>
<polygon fill="midnightblue" stroke="midnightblue" points="332.668,-1441.5 322.668,-1445 332.668,-1448.5 332.668,-1441.5"/>
</g>
<!-- Node16 -->
<g id="node16" class="node"><title>Node16</title>
<g id="a_node16"><a xlink:href="classMWGui_1_1CharacterCreation.html#a56a9e33b81417cbf53bb8006908c2296" target="_top" xlink:title="MWGui::CharacterCreation\l::spawnDialog">
<polygon fill="white" stroke="red" points="407.5,-1479 407.5,-1509 538.5,-1509 538.5,-1479 407.5,-1479"/>
<text text-anchor="start" x="415.5" y="-1497" font-family="FreeSans" font-size="10.00">MWGui::CharacterCreation</text>
<text text-anchor="middle" x="473" y="-1486" font-family="FreeSans" font-size="10.00">::spawnDialog</text>
</a>
</g>
</g>
<!-- Node14&#45;&gt;Node16 -->
<g id="edge18" class="edge"><title>Node14&#45;&gt;Node16</title>
<path fill="none" stroke="midnightblue" d="M332.584,-1460.51C357.078,-1466.4 384.914,-1473.08 409.237,-1478.92"/>
<polygon fill="midnightblue" stroke="midnightblue" points="333.209,-1457.06 322.668,-1458.13 331.574,-1463.87 333.209,-1457.06"/>
</g>
<!-- Node18 -->
<g id="node18" class="node"><title>Node18</title>
<g id="a_node18"><a xlink:href="classMWGui_1_1ReviewDialog.html#a4ec3c7f1681926a32be6b8bce067483e" target="_top" xlink:title="MWGui::ReviewDialog\l::updateSkillArea">
<polygon fill="white" stroke="red" points="417.5,-1381 417.5,-1411 528.5,-1411 528.5,-1381 417.5,-1381"/>
<text text-anchor="start" x="425.5" y="-1399" font-family="FreeSans" font-size="10.00">MWGui::ReviewDialog</text>
<text text-anchor="middle" x="473" y="-1388" font-family="FreeSans" font-size="10.00">::updateSkillArea</text>
</a>
</g>
</g>
<!-- Node17&#45;&gt;Node18 -->
<g id="edge20" class="edge"><title>Node17&#45;&gt;Node18</title>
<path fill="none" stroke="midnightblue" d="M332.853,-1396C359.997,-1396 391.207,-1396 417.181,-1396"/>
<polygon fill="midnightblue" stroke="midnightblue" points="332.668,-1392.5 322.668,-1396 332.668,-1399.5 332.668,-1392.5"/>
</g>
<!-- Node20 -->
<g id="node20" class="node"><title>Node20</title>
<g id="a_node20"><a xlink:href="classMWGui_1_1WindowManager.html#a8bd37c748bbd73b4894ccb6f77e9d50e" target="_top" xlink:title="Set value for the given ID. ">
<polygon fill="white" stroke="black" points="410.5,-1283 410.5,-1313 535.5,-1313 535.5,-1283 410.5,-1283"/>
<text text-anchor="start" x="418.5" y="-1301" font-family="FreeSans" font-size="10.00">MWGui::WindowManager</text>
<text text-anchor="middle" x="473" y="-1290" font-family="FreeSans" font-size="10.00">::setValue</text>
</a>
</g>
</g>
<!-- Node19&#45;&gt;Node20 -->
<g id="edge22" class="edge"><title>Node19&#45;&gt;Node20</title>
<path fill="none" stroke="midnightblue" d="M331.901,-1331.65C356.949,-1325.63 385.577,-1318.76 410.398,-1312.8"/>
<polygon fill="midnightblue" stroke="midnightblue" points="331.039,-1328.26 322.133,-1334 332.674,-1335.07 331.039,-1328.26"/>
</g>
<!-- Node21 -->
<g id="node21" class="node"><title>Node21</title>
<g id="a_node21"><a xlink:href="classMWGui_1_1WindowManager.html#a10ffe98205678fcf7161873307a81f88" target="_top" xlink:title="set current class of player ">
<polygon fill="white" stroke="black" points="410.5,-1332 410.5,-1362 535.5,-1362 535.5,-1332 410.5,-1332"/>
<text text-anchor="start" x="418.5" y="-1350" font-family="FreeSans" font-size="10.00">MWGui::WindowManager</text>
<text text-anchor="middle" x="473" y="-1339" font-family="FreeSans" font-size="10.00">::setPlayerClass</text>
</a>
</g>
</g>
<!-- Node19&#45;&gt;Node21 -->
<g id="edge23" class="edge"><title>Node19&#45;&gt;Node21</title>
<path fill="none" stroke="midnightblue" d="M332.234,-1347C357.202,-1347 385.686,-1347 410.398,-1347"/>
<polygon fill="midnightblue" stroke="midnightblue" points="332.133,-1343.5 322.133,-1347 332.133,-1350.5 332.133,-1343.5"/>
</g>
<!-- Node23 -->
<g id="node23" class="node"><title>Node23</title>
<g id="a_node23"><a xlink:href="classMWGui_1_1StatsWindow.html#ae2f88bda70cedba813a9fa44c41e5a8b" target="_top" xlink:title="MWGui::StatsWindow\l::updateSkillArea">
<polygon fill="white" stroke="red" points="418,-1234 418,-1264 528,-1264 528,-1234 418,-1234"/>
<text text-anchor="start" x="426" y="-1252" font-family="FreeSans" font-size="10.00">MWGui::StatsWindow</text>
<text text-anchor="middle" x="473" y="-1241" font-family="FreeSans" font-size="10.00">::updateSkillArea</text>
</a>
</g>
</g>
<!-- Node22&#45;&gt;Node23 -->
<g id="edge25" class="edge"><title>Node22&#45;&gt;Node23</title>
<path fill="none" stroke="midnightblue" d="M332.086,-1282.61C359.682,-1275.98 391.596,-1268.31 417.969,-1261.98"/>
<polygon fill="midnightblue" stroke="midnightblue" points="331.039,-1279.26 322.133,-1285 332.674,-1286.07 331.039,-1279.26"/>
</g>
<!-- Node25&#45;&gt;Node26 -->
<g id="edge28" class="edge"><title>Node25&#45;&gt;Node26</title>
<path fill="none" stroke="midnightblue" d="M345.115,-1164.32C368.841,-1166.88 394.481,-1169.64 416.461,-1172.01"/>
<polygon fill="midnightblue" stroke="midnightblue" points="345.397,-1160.83 335.08,-1163.23 344.647,-1167.79 345.397,-1160.83"/>
</g>
<!-- Node35&#45;&gt;Node36 -->
<g id="edge39" class="edge"><title>Node35&#45;&gt;Node36</title>
<path fill="none" stroke="midnightblue" d="M335.638,-623.664C341.245,-621.604 346.765,-619.381 352,-617 389.262,-600.05 428.656,-573.126 451.75,-556.29"/>
<polygon fill="midnightblue" stroke="midnightblue" points="334.442,-620.374 326.155,-626.975 336.749,-626.983 334.442,-620.374"/>
</g>
<!-- Node37&#45;&gt;Node32 -->
<g id="edge41" class="edge"><title>Node37&#45;&gt;Node32</title>
<path fill="none" stroke="midnightblue" d="M340.704,-857.97C344.612,-856.147 348.406,-854.161 352,-852 403.683,-820.917 448.856,-762.416 465.345,-739.525"/>
<polygon fill="midnightblue" stroke="midnightblue" points="339.238,-854.79 331.414,-861.934 341.985,-861.229 339.238,-854.79"/>
</g>
<!-- Node41&#45;&gt;Node32 -->
<g id="edge46" class="edge"><title>Node41&#45;&gt;Node32</title>
<path fill="none" stroke="midnightblue" d="M361.688,-730C374.997,-730 388.496,-730 401.27,-730"/>
<polygon fill="midnightblue" stroke="midnightblue" points="361.563,-726.5 351.563,-730 361.563,-733.5 361.563,-726.5"/>
</g>
<!-- Node44&#45;&gt;Node45 -->
<g id="edge50" class="edge"><title>Node44&#45;&gt;Node45</title>
<path fill="none" stroke="midnightblue" d="M355.781,-269.467C366.372,-270.609 377.172,-271.773 387.712,-272.91"/>
<polygon fill="midnightblue" stroke="midnightblue" points="356.023,-265.972 345.706,-268.38 355.273,-272.932 356.023,-265.972"/>
</g>
</g>
</svg>
