<?xml version="1.0" encoding="UTF-8" standalone="no"?>
<!DOCTYPE svg PUBLIC "-//W3C//DTD SVG 1.1//EN"
 "http://www.w3.org/Graphics/SVG/1.1/DTD/svg11.dtd">
<!-- Generated by graphviz version 2.36.0 (20140111.2315)
 -->
<!-- Title: MWGui::InfoBoxDialog Pages: 1 -->
<svg width="564pt" height="942pt"
 viewBox="0.00 0.00 564.00 942.00" xmlns="http://www.w3.org/2000/svg" xmlns:xlink="http://www.w3.org/1999/xlink">
<g id="graph0" class="graph" transform="scale(1 1) rotate(0) translate(4 938)">
<title>MWGui::InfoBoxDialog</title>
<polygon fill="white" stroke="none" points="-4,4 -4,-938 560,-938 560,4 -4,4"/>
<!-- Node1 -->
<g id="node1" class="node"><title>Node1</title>
<polygon fill="#bfbfbf" stroke="black" points="213,-0.5 213,-145.5 333,-145.5 333,-0.5 213,-0.5"/>
<text text-anchor="middle" x="273" y="-133.5" font-family="FreeSans" font-size="10.00">MWGui::InfoBoxDialog</text>
<polyline fill="none" stroke="black" points="213,-126.5 333,-126.5 "/>
<text text-anchor="middle" x="273" y="-114.5" font-family="FreeSans" font-size="10.00"> </text>
<polyline fill="none" stroke="black" points="213,-107.5 333,-107.5 "/>
<text text-anchor="start" x="221" y="-95.5" font-family="FreeSans" font-size="10.00">+ InfoBoxDialog()</text>
<text text-anchor="start" x="221" y="-84.5" font-family="FreeSans" font-size="10.00">+ setText()</text>
<text text-anchor="start" x="221" y="-73.5" font-family="FreeSans" font-size="10.00">+ getText()</text>
<text text-anchor="start" x="221" y="-62.5" font-family="FreeSans" font-size="10.00">+ setButtons()</text>
<text text-anchor="start" x="221" y="-51.5" font-family="FreeSans" font-size="10.00">+ onOpen()</text>
<text text-anchor="start" x="221" y="-40.5" font-family="FreeSans" font-size="10.00">+ exit()</text>
<text text-anchor="start" x="221" y="-29.5" font-family="FreeSans" font-size="10.00"># onButtonClicked()</text>
<text text-anchor="start" x="221" y="-18.5" font-family="FreeSans" font-size="10.00">&#45; fitToText()</text>
<text text-anchor="start" x="221" y="-7.5" font-family="FreeSans" font-size="10.00">&#45; layoutVertically()</text>
</g>
<!-- Node2 -->
<g id="node2" class="node"><title>Node2</title>
<g id="a_node2"><a xlink:href="classMWGui_1_1WindowModal.html" target="_top" xlink:title="{MWGui::WindowModal\n||+ WindowModal()\l+ onOpen()\l+ onClose()\l+ exit()\l}">
<polygon fill="white" stroke="black" points="80.5,-195 80.5,-285 199.5,-285 199.5,-195 80.5,-195"/>
<text text-anchor="middle" x="140" y="-273" font-family="FreeSans" font-size="10.00">MWGui::WindowModal</text>
<polyline fill="none" stroke="black" points="80.5,-266 199.5,-266 "/>
<text text-anchor="middle" x="140" y="-254" font-family="FreeSans" font-size="10.00"> </text>
<polyline fill="none" stroke="black" points="80.5,-247 199.5,-247 "/>
<text text-anchor="start" x="88.5" y="-235" font-family="FreeSans" font-size="10.00">+ WindowModal()</text>
<text text-anchor="start" x="88.5" y="-224" font-family="FreeSans" font-size="10.00">+ onOpen()</text>
<text text-anchor="start" x="88.5" y="-213" font-family="FreeSans" font-size="10.00">+ onClose()</text>
<text text-anchor="start" x="88.5" y="-202" font-family="FreeSans" font-size="10.00">+ exit()</text>
</a>
</g>
</g>
<!-- Node2&#45;&gt;Node1 -->
<g id="edge1" class="edge"><title>Node2&#45;&gt;Node1</title>
<path fill="none" stroke="midnightblue" d="M182.056,-186.826C192.572,-173.78 204.035,-159.558 215.169,-145.745"/>
<polygon fill="none" stroke="midnightblue" points="179.192,-184.801 175.642,-194.783 184.642,-189.194 179.192,-184.801"/>
</g>
<!-- Node3 -->
<g id="node3" class="node"><title>Node3</title>
<g id="a_node3"><a xlink:href="classMWGui_1_1WindowBase.html" target="_top" xlink:title="{MWGui::WindowBase\n||+ WindowBase()\l+ getDefaultKeyFocus()\l+ setPtr()\l+ onFrame()\l+ onOpen()\l+ onClose()\l+ exit()\l+ setVisible()\l+ isVisible()\l+ center()\l+ clear()\l+ onResChange()\l}">
<polygon fill="white" stroke="black" points="91,-335 91,-513 221,-513 221,-335 91,-335"/>
<text text-anchor="middle" x="156" y="-501" font-family="FreeSans" font-size="10.00">MWGui::WindowBase</text>
<polyline fill="none" stroke="black" points="91,-494 221,-494 "/>
<text text-anchor="middle" x="156" y="-482" font-family="FreeSans" font-size="10.00"> </text>
<polyline fill="none" stroke="black" points="91,-475 221,-475 "/>
<text text-anchor="start" x="99" y="-463" font-family="FreeSans" font-size="10.00">+ WindowBase()</text>
<text text-anchor="start" x="99" y="-452" font-family="FreeSans" font-size="10.00">+ getDefaultKeyFocus()</text>
<text text-anchor="start" x="99" y="-441" font-family="FreeSans" font-size="10.00">+ setPtr()</text>
<text text-anchor="start" x="99" y="-430" font-family="FreeSans" font-size="10.00">+ onFrame()</text>
<text text-anchor="start" x="99" y="-419" font-family="FreeSans" font-size="10.00">+ onOpen()</text>
<text text-anchor="start" x="99" y="-408" font-family="FreeSans" font-size="10.00">+ onClose()</text>
<text text-anchor="start" x="99" y="-397" font-family="FreeSans" font-size="10.00">+ exit()</text>
<text text-anchor="start" x="99" y="-386" font-family="FreeSans" font-size="10.00">+ setVisible()</text>
<text text-anchor="start" x="99" y="-375" font-family="FreeSans" font-size="10.00">+ isVisible()</text>
<text text-anchor="start" x="99" y="-364" font-family="FreeSans" font-size="10.00">+ center()</text>
<text text-anchor="start" x="99" y="-353" font-family="FreeSans" font-size="10.00">+ clear()</text>
<text text-anchor="start" x="99" y="-342" font-family="FreeSans" font-size="10.00">+ onResChange()</text>
</a>
</g>
</g>
<!-- Node3&#45;&gt;Node2 -->
<g id="edge2" class="edge"><title>Node3&#45;&gt;Node2</title>
<path fill="none" stroke="midnightblue" d="M147.37,-324.833C146.153,-310.993 144.956,-297.375 143.892,-285.27"/>
<polygon fill="none" stroke="midnightblue" points="143.895,-325.277 148.258,-334.932 150.868,-324.664 143.895,-325.277"/>
</g>
<!-- Node4 -->
<g id="node4" class="node"><title>Node4</title>
<g id="a_node4"><a xlink:href="classMWGui_1_1Layout.html" target="_top" xlink:title="{MWGui::Layout\n||+ Layout()\l+ ~Layout()\l+ getWidget()\l+ getWidget()\l+ setCoord()\l+ setVisible()\l+ setText()\l+ setTitle()\l&#45; initialise()\l&#45; shutdown()\l}">
<polygon fill="white" stroke="black" points="104.5,-553 104.5,-709 191.5,-709 191.5,-553 104.5,-553"/>
<text text-anchor="middle" x="148" y="-697" font-family="FreeSans" font-size="10.00">MWGui::Layout</text>
<polyline fill="none" stroke="black" points="104.5,-690 191.5,-690 "/>
<text text-anchor="middle" x="148" y="-678" font-family="FreeSans" font-size="10.00"> </text>
<polyline fill="none" stroke="black" points="104.5,-671 191.5,-671 "/>
<text text-anchor="start" x="112.5" y="-659" font-family="FreeSans" font-size="10.00">+ Layout()</text>
<text text-anchor="start" x="112.5" y="-648" font-family="FreeSans" font-size="10.00">+ ~Layout()</text>
<text text-anchor="start" x="112.5" y="-637" font-family="FreeSans" font-size="10.00">+ getWidget()</text>
<text text-anchor="start" x="112.5" y="-626" font-family="FreeSans" font-size="10.00">+ getWidget()</text>
<text text-anchor="start" x="112.5" y="-615" font-family="FreeSans" font-size="10.00">+ setCoord()</text>
<text text-anchor="start" x="112.5" y="-604" font-family="FreeSans" font-size="10.00">+ setVisible()</text>
<text text-anchor="start" x="112.5" y="-593" font-family="FreeSans" font-size="10.00">+ setText()</text>
<text text-anchor="start" x="112.5" y="-582" font-family="FreeSans" font-size="10.00">+ setTitle()</text>
<text text-anchor="start" x="112.5" y="-571" font-family="FreeSans" font-size="10.00">&#45; initialise()</text>
<text text-anchor="start" x="112.5" y="-560" font-family="FreeSans" font-size="10.00">&#45; shutdown()</text>
</a>
</g>
</g>
<!-- Node4&#45;&gt;Node3 -->
<g id="edge3" class="edge"><title>Node4&#45;&gt;Node3</title>
<path fill="none" stroke="midnightblue" d="M151.407,-542.684C151.789,-532.906 152.178,-522.939 152.56,-513.15"/>
<polygon fill="none" stroke="midnightblue" points="147.906,-542.661 151.013,-552.79 154.9,-542.935 147.906,-542.661"/>
</g>
<!-- Node5 -->
<g id="node5" class="node"><title>Node5</title>
<polygon fill="white" stroke="#bfbfbf" points="-0.5,-768.5 -0.5,-825.5 56.5,-825.5 56.5,-768.5 -0.5,-768.5"/>
<text text-anchor="middle" x="28" y="-813.5" font-family="FreeSans" font-size="10.00">Widget *</text>
<polyline fill="none" stroke="#bfbfbf" points="-0.5,-806.5 56.5,-806.5 "/>
<text text-anchor="middle" x="28" y="-794.5" font-family="FreeSans" font-size="10.00"> </text>
<polyline fill="none" stroke="#bfbfbf" points="-0.5,-787.5 56.5,-787.5 "/>
<text text-anchor="middle" x="28" y="-775.5" font-family="FreeSans" font-size="10.00"> </text>
</g>
<!-- Node5&#45;&gt;Node1 -->
<g id="edge8" class="edge"><title>Node5&#45;&gt;Node1</title>
<path fill="none" stroke="#404040" d="M23.0814,-768.245C17.752,-735.712 10,-680.121 10,-632 10,-632 10,-632 10,-239 10,-148.567 122.961,-105.799 200.82,-87.0614"/>
<polygon fill="none" stroke="#404040" points="201.299,-86.9513 206.247,-81.7062 212.992,-84.2569 208.043,-89.502 201.299,-86.9513"/>
<text text-anchor="middle" x="41.5" y="-427" font-family="FreeSans" font-size="10.00"> &#45;mTextBox</text>
<text text-anchor="middle" x="41.5" y="-416" font-family="FreeSans" font-size="10.00">&#45;mButtonBar</text>
</g>
<!-- Node5&#45;&gt;Node4 -->
<g id="edge4" class="edge"><title>Node5&#45;&gt;Node4</title>
<path fill="none" stroke="#404040" d="M41.7966,-768.454C48.5419,-755.782 57.1128,-740.763 66,-728 75.1826,-714.813 85.8308,-701.305 96.352,-688.743"/>
<polygon fill="none" stroke="#404040" points="96.573,-688.483 97.4125,-681.321 104.347,-679.341 103.507,-686.503 96.573,-688.483"/>
<text text-anchor="middle" x="104" y="-736.5" font-family="FreeSans" font-size="10.00"> +mMainWidget</text>
</g>
<!-- Node6 -->
<g id="node6" class="node"><title>Node6</title>
<polygon fill="white" stroke="#bfbfbf" points="98.5,-768.5 98.5,-825.5 191.5,-825.5 191.5,-768.5 98.5,-768.5"/>
<text text-anchor="middle" x="145" y="-813.5" font-family="FreeSans" font-size="10.00">VectorWidgetPtr</text>
<polyline fill="none" stroke="#bfbfbf" points="98.5,-806.5 191.5,-806.5 "/>
<text text-anchor="middle" x="145" y="-794.5" font-family="FreeSans" font-size="10.00"> </text>
<polyline fill="none" stroke="#bfbfbf" points="98.5,-787.5 191.5,-787.5 "/>
<text text-anchor="middle" x="145" y="-775.5" font-family="FreeSans" font-size="10.00"> </text>
</g>
<!-- Node6&#45;&gt;Node4 -->
<g id="edge5" class="edge"><title>Node6&#45;&gt;Node4</title>
<path fill="none" stroke="#404040" d="M145.37,-768.208C145.544,-755.89 145.765,-741.222 146,-728 146.039,-725.784 146.08,-723.539 146.122,-721.274"/>
<polygon fill="none" stroke="#404040" points="146.126,-721.022 142.241,-714.947 146.354,-709.024 150.239,-715.099 146.126,-721.022"/>
<text text-anchor="middle" x="193" y="-736.5" font-family="FreeSans" font-size="10.00"> #mListWindowRoot</text>
</g>
<!-- Node7 -->
<g id="node7" class="node"><title>Node7</title>
<g id="a_node7"><a xlink:title="STL class. ">
<polygon fill="white" stroke="#bfbfbf" points="229.5,-768.5 229.5,-825.5 294.5,-825.5 294.5,-768.5 229.5,-768.5"/>
<text text-anchor="middle" x="262" y="-813.5" font-family="FreeSans" font-size="10.00">std::string</text>
<polyline fill="none" stroke="#bfbfbf" points="229.5,-806.5 294.5,-806.5 "/>
<text text-anchor="middle" x="262" y="-794.5" font-family="FreeSans" font-size="10.00"> </text>
<polyline fill="none" stroke="#bfbfbf" points="229.5,-787.5 294.5,-787.5 "/>
<text text-anchor="middle" x="262" y="-775.5" font-family="FreeSans" font-size="10.00"> </text>
</a>
</g>
</g>
<!-- Node7&#45;&gt;Node4 -->
<g id="edge6" class="edge"><title>Node7&#45;&gt;Node4</title>
<path fill="none" stroke="#404040" d="M256.081,-768.319C252.591,-755.477 247.382,-740.356 240,-728 229.411,-710.276 214.992,-693.219 200.711,-678.526"/>
<polygon fill="none" stroke="#404040" points="200.363,-678.178 193.292,-676.768 191.873,-669.698 198.945,-671.108 200.363,-678.178"/>
<text text-anchor="middle" x="291.5" y="-742" font-family="FreeSans" font-size="10.00"> #mLayoutName</text>
<text text-anchor="middle" x="291.5" y="-731" font-family="FreeSans" font-size="10.00">#mPrefix</text>
</g>
<!-- Node8 -->
<g id="node8" class="node"><title>Node8</title>
<g id="a_node8"><a xlink:title="STL class. ">
<polygon fill="white" stroke="#bfbfbf" points="210.5,-865 210.5,-933 313.5,-933 313.5,-865 210.5,-865"/>
<text text-anchor="start" x="218.5" y="-921" font-family="FreeSans" font-size="10.00">std::basic_string&lt;</text>
<text text-anchor="middle" x="262" y="-910" font-family="FreeSans" font-size="10.00"> char &gt;</text>
<polyline fill="none" stroke="#bfbfbf" points="210.5,-903 313.5,-903 "/>
<text text-anchor="middle" x="262" y="-891" font-family="FreeSans" font-size="10.00"> </text>
<polyline fill="none" stroke="#bfbfbf" points="210.5,-884 313.5,-884 "/>
<text text-anchor="middle" x="262" y="-872" font-family="FreeSans" font-size="10.00"> </text>
</a>
</g>
</g>
<!-- Node8&#45;&gt;Node7 -->
<g id="edge7" class="edge"><title>Node8&#45;&gt;Node7</title>
<path fill="none" stroke="midnightblue" d="M262,-854.857C262,-844.952 262,-834.682 262,-825.64"/>
<polygon fill="none" stroke="midnightblue" points="258.5,-854.979 262,-864.979 265.5,-854.979 258.5,-854.979"/>
</g>
<!-- Node9 -->
<g id="node9" class="node"><title>Node9</title>
<polygon fill="white" stroke="#bfbfbf" points="218,-206 218,-274 328,-274 328,-206 218,-206"/>
<text text-anchor="start" x="226" y="-262" font-family="FreeSans" font-size="10.00">std::vector&lt; MyGUI</text>
<text text-anchor="middle" x="273" y="-251" font-family="FreeSans" font-size="10.00">::Button * &gt;</text>
<polyline fill="none" stroke="#bfbfbf" points="218,-244 328,-244 "/>
<text text-anchor="middle" x="273" y="-232" font-family="FreeSans" font-size="10.00"> </text>
<polyline fill="none" stroke="#bfbfbf" points="218,-225 328,-225 "/>
<text text-anchor="middle" x="273" y="-213" font-family="FreeSans" font-size="10.00"> </text>
</g>
<!-- Node9&#45;&gt;Node1 -->
<g id="edge9" class="edge"><title>Node9&#45;&gt;Node1</title>
<path fill="none" stroke="#404040" d="M273,-205.61C273,-191.667 273,-174.782 273,-157.823"/>
<polygon fill="none" stroke="#404040" points="273,-157.502 269,-151.502 273,-145.502 277,-151.502 273,-157.502"/>
<text text-anchor="middle" x="300.5" y="-167.5" font-family="FreeSans" font-size="10.00"> &#45;mButtons</text>
</g>
<!-- Node10 -->
<g id="node10" class="node"><title>Node10</title>
<polygon fill="white" stroke="#bfbfbf" points="244.5,-395.5 244.5,-452.5 301.5,-452.5 301.5,-395.5 244.5,-395.5"/>
<text text-anchor="middle" x="273" y="-440.5" font-family="FreeSans" font-size="10.00">Button *</text>
<polyline fill="none" stroke="#bfbfbf" points="244.5,-433.5 301.5,-433.5 "/>
<text text-anchor="middle" x="273" y="-421.5" font-family="FreeSans" font-size="10.00"> </text>
<polyline fill="none" stroke="#bfbfbf" points="244.5,-414.5 301.5,-414.5 "/>
<text text-anchor="middle" x="273" y="-402.5" font-family="FreeSans" font-size="10.00"> </text>
</g>
<!-- Node10&#45;&gt;Node9 -->
<g id="edge10" class="edge"><title>Node10&#45;&gt;Node9</title>
<path fill="none" stroke="#404040" d="M273,-395.358C273,-366.397 273,-320.44 273,-286.193"/>
<polygon fill="none" stroke="#404040" points="273,-286.158 269,-280.158 273,-274.158 277,-280.158 273,-286.158"/>
<text text-anchor="middle" x="301.5" y="-307.5" font-family="FreeSans" font-size="10.00"> +elements</text>
</g>
<!-- Node11 -->
<g id="node11" class="node"><title>Node11</title>
<polygon fill="white" stroke="#bfbfbf" points="346,-211.5 346,-268.5 408,-268.5 408,-211.5 346,-211.5"/>
<text text-anchor="middle" x="377" y="-256.5" font-family="FreeSans" font-size="10.00">TextBox *</text>
<polyline fill="none" stroke="#bfbfbf" points="346,-249.5 408,-249.5 "/>
<text text-anchor="middle" x="377" y="-237.5" font-family="FreeSans" font-size="10.00"> </text>
<polyline fill="none" stroke="#bfbfbf" points="346,-230.5 408,-230.5 "/>
<text text-anchor="middle" x="377" y="-218.5" font-family="FreeSans" font-size="10.00"> </text>
</g>
<!-- Node11&#45;&gt;Node1 -->
<g id="edge11" class="edge"><title>Node11&#45;&gt;Node1</title>
<path fill="none" stroke="#404040" d="M360.803,-211.411C352.352,-197.17 341.765,-179.564 332,-164 330.29,-161.275 328.544,-158.509 326.773,-155.721"/>
<polygon fill="none" stroke="#404040" points="326.739,-155.668 320.138,-152.766 320.277,-145.557 326.879,-148.459 326.739,-155.668"/>
<text text-anchor="middle" x="357" y="-167.5" font-family="FreeSans" font-size="10.00"> &#45;mText</text>
</g>
<!-- Node12 -->
<g id="node12" class="node"><title>Node12</title>
<polygon fill="white" stroke="#bfbfbf" points="426,-211.5 426,-268.5 556,-268.5 556,-211.5 426,-211.5"/>
<text text-anchor="middle" x="491" y="-256.5" font-family="FreeSans" font-size="10.00">CMultiDelegate1&lt; int &gt;</text>
<polyline fill="none" stroke="#bfbfbf" points="426,-249.5 556,-249.5 "/>
<text text-anchor="middle" x="491" y="-237.5" font-family="FreeSans" font-size="10.00"> </text>
<polyline fill="none" stroke="#bfbfbf" points="426,-230.5 556,-230.5 "/>
<text text-anchor="middle" x="491" y="-218.5" font-family="FreeSans" font-size="10.00"> </text>
</g>
<!-- Node12&#45;&gt;Node1 -->
<g id="edge12" class="edge"><title>Node12&#45;&gt;Node1</title>
<path fill="none" stroke="#404040" d="M454.512,-211.383C424.136,-188.392 380.01,-154.994 342.872,-126.885"/>
<polygon fill="none" stroke="#404040" points="342.666,-126.729 335.468,-126.298 333.098,-119.487 340.296,-119.919 342.666,-126.729"/>
<text text-anchor="middle" x="458.5" y="-167.5" font-family="FreeSans" font-size="10.00"> +eventButtonSelected</text>
</g>
</g>
</svg>
