<?xml version="1.0" encoding="UTF-8" standalone="no"?>
<!DOCTYPE svg PUBLIC "-//W3C//DTD SVG 1.1//EN"
 "http://www.w3.org/Graphics/SVG/1.1/DTD/svg11.dtd">
<!-- Generated by graphviz version 2.36.0 (20140111.2315)
 -->
<!-- Title: CSMWorld::BaseRefIdAdapter&lt; RecordT &gt; Pages: 1 -->
<svg width="379pt" height="926pt"
 viewBox="0.00 0.00 379.00 926.00" xmlns="http://www.w3.org/2000/svg" xmlns:xlink="http://www.w3.org/1999/xlink">
<g id="graph0" class="graph" transform="scale(1 1) rotate(0) translate(4 922)">
<title>CSMWorld::BaseRefIdAdapter&lt; RecordT &gt;</title>
<polygon fill="white" stroke="none" points="-4,4 -4,-922 375,-922 375,4 -4,4"/>
<!-- Node1 -->
<g id="node1" class="node"><title>Node1</title>
<polygon fill="#bfbfbf" stroke="black" points="169.5,-0.5 169.5,-123.5 324.5,-123.5 324.5,-0.5 169.5,-0.5"/>
<text text-anchor="start" x="177.5" y="-111.5" font-family="FreeSans" font-size="10.00">CSMWorld::BaseRefIdAdapter</text>
<text text-anchor="middle" x="247" y="-100.5" font-family="FreeSans" font-size="10.00">&lt; RecordT &gt;</text>
<polyline fill="none" stroke="black" points="169.5,-93.5 324.5,-93.5 "/>
<text text-anchor="middle" x="247" y="-81.5" font-family="FreeSans" font-size="10.00"> </text>
<polyline fill="none" stroke="black" points="169.5,-74.5 324.5,-74.5 "/>
<text text-anchor="start" x="177.5" y="-62.5" font-family="FreeSans" font-size="10.00">+ BaseRefIdAdapter()</text>
<text text-anchor="start" x="177.5" y="-51.5" font-family="FreeSans" font-size="10.00">+ getId()</text>
<text text-anchor="start" x="177.5" y="-40.5" font-family="FreeSans" font-size="10.00">+ setId()</text>
<text text-anchor="start" x="177.5" y="-29.5" font-family="FreeSans" font-size="10.00">+ getData()</text>
<text text-anchor="start" x="177.5" y="-18.5" font-family="FreeSans" font-size="10.00">+ setData()</text>
<text text-anchor="start" x="177.5" y="-7.5" font-family="FreeSans" font-size="10.00">+ getType()</text>
</g>
<!-- Node2 -->
<g id="node2" class="node"><title>Node2</title>
<g id="a_node2"><a xlink:href="classCSMWorld_1_1RefIdAdapter.html" target="_top" xlink:title="{CSMWorld::RefIdAdapter\n||+ RefIdAdapter()\l+ ~RefIdAdapter()\l+ getData()\l+ setData()\l+ getId()\l+ setId()\l&#45; RefIdAdapter()\l&#45; operator=()\l}">
<polygon fill="white" stroke="black" points="29.5,-173 29.5,-307 160.5,-307 160.5,-173 29.5,-173"/>
<text text-anchor="middle" x="95" y="-295" font-family="FreeSans" font-size="10.00">CSMWorld::RefIdAdapter</text>
<polyline fill="none" stroke="black" points="29.5,-288 160.5,-288 "/>
<text text-anchor="middle" x="95" y="-276" font-family="FreeSans" font-size="10.00"> </text>
<polyline fill="none" stroke="black" points="29.5,-269 160.5,-269 "/>
<text text-anchor="start" x="37.5" y="-257" font-family="FreeSans" font-size="10.00">+ RefIdAdapter()</text>
<text text-anchor="start" x="37.5" y="-246" font-family="FreeSans" font-size="10.00">+ ~RefIdAdapter()</text>
<text text-anchor="start" x="37.5" y="-235" font-family="FreeSans" font-size="10.00">+ getData()</text>
<text text-anchor="start" x="37.5" y="-224" font-family="FreeSans" font-size="10.00">+ setData()</text>
<text text-anchor="start" x="37.5" y="-213" font-family="FreeSans" font-size="10.00">+ getId()</text>
<text text-anchor="start" x="37.5" y="-202" font-family="FreeSans" font-size="10.00">+ setId()</text>
<text text-anchor="start" x="37.5" y="-191" font-family="FreeSans" font-size="10.00">&#45; RefIdAdapter()</text>
<text text-anchor="start" x="37.5" y="-180" font-family="FreeSans" font-size="10.00">&#45; operator=()</text>
</a>
</g>
</g>
<!-- Node2&#45;&gt;Node1 -->
<g id="edge1" class="edge"><title>Node2&#45;&gt;Node1</title>
<path fill="none" stroke="midnightblue" d="M158.646,-165.305C170.643,-151.413 183.063,-137.032 194.665,-123.598"/>
<polygon fill="none" stroke="midnightblue" points="155.919,-163.107 152.032,-172.963 161.217,-167.683 155.919,-163.107"/>
</g>
<!-- Node3 -->
<g id="node3" class="node"><title>Node3</title>
<g id="a_node3"><a xlink:href="structCSMWorld_1_1BaseColumns.html" target="_top" xlink:title="{CSMWorld::BaseColumns\n||}">
<polygon fill="white" stroke="black" points="179,-211.5 179,-268.5 315,-268.5 315,-211.5 179,-211.5"/>
<text text-anchor="middle" x="247" y="-256.5" font-family="FreeSans" font-size="10.00">CSMWorld::BaseColumns</text>
<polyline fill="none" stroke="black" points="179,-249.5 315,-249.5 "/>
<text text-anchor="middle" x="247" y="-237.5" font-family="FreeSans" font-size="10.00"> </text>
<polyline fill="none" stroke="black" points="179,-230.5 315,-230.5 "/>
<text text-anchor="middle" x="247" y="-218.5" font-family="FreeSans" font-size="10.00"> </text>
</a>
</g>
</g>
<!-- Node3&#45;&gt;Node1 -->
<g id="edge2" class="edge"><title>Node3&#45;&gt;Node1</title>
<path fill="none" stroke="#404040" d="M247,-211.112C247,-190.771 247,-162.221 247,-135.61"/>
<polygon fill="none" stroke="#404040" points="247,-135.556 243,-129.556 247,-123.556 251,-129.556 247,-135.556"/>
<text text-anchor="middle" x="267.5" y="-145.5" font-family="FreeSans" font-size="10.00"> &#45;mBase</text>
</g>
<!-- Node4 -->
<g id="node4" class="node"><title>Node4</title>
<g id="a_node4"><a xlink:href="classCSMWorld_1_1RefIdColumn.html" target="_top" xlink:title="{CSMWorld::RefIdColumn\n||+ RefIdColumn()\l+ isEditable()\l+ isUserEditable()\l}">
<polygon fill="white" stroke="black" points="182.5,-378.5 182.5,-457.5 311.5,-457.5 311.5,-378.5 182.5,-378.5"/>
<text text-anchor="middle" x="247" y="-445.5" font-family="FreeSans" font-size="10.00">CSMWorld::RefIdColumn</text>
<polyline fill="none" stroke="black" points="182.5,-438.5 311.5,-438.5 "/>
<text text-anchor="middle" x="247" y="-426.5" font-family="FreeSans" font-size="10.00"> </text>
<polyline fill="none" stroke="black" points="182.5,-419.5 311.5,-419.5 "/>
<text text-anchor="start" x="190.5" y="-407.5" font-family="FreeSans" font-size="10.00">+ RefIdColumn()</text>
<text text-anchor="start" x="190.5" y="-396.5" font-family="FreeSans" font-size="10.00">+ isEditable()</text>
<text text-anchor="start" x="190.5" y="-385.5" font-family="FreeSans" font-size="10.00">+ isUserEditable()</text>
</a>
</g>
</g>
<!-- Node4&#45;&gt;Node3 -->
<g id="edge3" class="edge"><title>Node4&#45;&gt;Node3</title>
<path fill="none" stroke="#404040" d="M247,-378.376C247,-349.465 247,-310.04 247,-280.84"/>
<polygon fill="none" stroke="#404040" points="247,-280.615 243,-274.615 247,-268.615 251,-274.615 247,-280.615"/>
<text text-anchor="middle" x="276" y="-351.5" font-family="FreeSans" font-size="10.00"> +mType</text>
<text text-anchor="middle" x="276" y="-340.5" font-family="FreeSans" font-size="10.00">+mId</text>
<text text-anchor="middle" x="276" y="-329.5" font-family="FreeSans" font-size="10.00">+mModified</text>
</g>
<!-- Node5 -->
<g id="node5" class="node"><title>Node5</title>
<g id="a_node5"><a xlink:href="classCSMWorld_1_1NestableColumn.html" target="_top" xlink:title="{CSMWorld::NestableColumn\n||+ NestableColumn()\l+ ~NestableColumn()\l+ addColumn()\l+ nestedColumn()\l+ hasChildren()\l}">
<polygon fill="white" stroke="black" points="47.5,-516.5 47.5,-617.5 196.5,-617.5 196.5,-516.5 47.5,-516.5"/>
<text text-anchor="middle" x="122" y="-605.5" font-family="FreeSans" font-size="10.00">CSMWorld::NestableColumn</text>
<polyline fill="none" stroke="black" points="47.5,-598.5 196.5,-598.5 "/>
<text text-anchor="middle" x="122" y="-586.5" font-family="FreeSans" font-size="10.00"> </text>
<polyline fill="none" stroke="black" points="47.5,-579.5 196.5,-579.5 "/>
<text text-anchor="start" x="55.5" y="-567.5" font-family="FreeSans" font-size="10.00">+ NestableColumn()</text>
<text text-anchor="start" x="55.5" y="-556.5" font-family="FreeSans" font-size="10.00">+ ~NestableColumn()</text>
<text text-anchor="start" x="55.5" y="-545.5" font-family="FreeSans" font-size="10.00">+ addColumn()</text>
<text text-anchor="start" x="55.5" y="-534.5" font-family="FreeSans" font-size="10.00">+ nestedColumn()</text>
<text text-anchor="start" x="55.5" y="-523.5" font-family="FreeSans" font-size="10.00">+ hasChildren()</text>
</a>
</g>
</g>
<!-- Node5&#45;&gt;Node4 -->
<g id="edge4" class="edge"><title>Node5&#45;&gt;Node4</title>
<path fill="none" stroke="midnightblue" d="M195.78,-509.453C199.383,-505.725 202.819,-501.898 206,-498 215.868,-485.909 224.331,-471.062 230.962,-457.515"/>
<polygon fill="none" stroke="midnightblue" points="193.312,-506.971 188.669,-516.495 198.238,-511.945 193.312,-506.971"/>
</g>
<!-- Node9 -->
<g id="node9" class="node"><title>Node9</title>
<polygon fill="white" stroke="#bfbfbf" points="0,-384 0,-452 126,-452 126,-384 0,-384"/>
<text text-anchor="start" x="8" y="-440" font-family="FreeSans" font-size="10.00">std::vector&lt; CSMWorld</text>
<text text-anchor="middle" x="63" y="-429" font-family="FreeSans" font-size="10.00">::NestableColumn * &gt;</text>
<polyline fill="none" stroke="#bfbfbf" points="0,-422 126,-422 "/>
<text text-anchor="middle" x="63" y="-410" font-family="FreeSans" font-size="10.00"> </text>
<polyline fill="none" stroke="#bfbfbf" points="0,-403 126,-403 "/>
<text text-anchor="middle" x="63" y="-391" font-family="FreeSans" font-size="10.00"> </text>
</g>
<!-- Node5&#45;&gt;Node9 -->
<g id="edge9" class="edge"><title>Node5&#45;&gt;Node9</title>
<path fill="none" stroke="#404040" d="M50.8935,-516.408C46.1969,-510.71 42.1089,-504.566 39,-498 33.901,-487.231 34.6438,-475.126 37.9723,-463.688"/>
<polygon fill="none" stroke="#404040" points="38.0947,-463.356 36.4138,-456.343 42.2404,-452.094 43.9213,-459.107 38.0947,-463.356"/>
<text text-anchor="middle" x="67.5" y="-484.5" font-family="FreeSans" font-size="10.00"> +elements</text>
</g>
<!-- Node6 -->
<g id="node6" class="node"><title>Node6</title>
<g id="a_node6"><a xlink:href="structCSMWorld_1_1ColumnBase.html" target="_top" xlink:title="{CSMWorld::ColumnBase\n||+ ColumnBase()\l+ ~ColumnBase()\l+ isEditable()\l+ isUserEditable()\l+ getTitle()\l+ getId()\l+ isId()\l+ isText()\l+ isScript()\l}">
<polygon fill="white" stroke="black" points="56.5,-656.5 56.5,-801.5 187.5,-801.5 187.5,-656.5 56.5,-656.5"/>
<text text-anchor="middle" x="122" y="-789.5" font-family="FreeSans" font-size="10.00">CSMWorld::ColumnBase</text>
<polyline fill="none" stroke="black" points="56.5,-782.5 187.5,-782.5 "/>
<text text-anchor="middle" x="122" y="-770.5" font-family="FreeSans" font-size="10.00"> </text>
<polyline fill="none" stroke="black" points="56.5,-763.5 187.5,-763.5 "/>
<text text-anchor="start" x="64.5" y="-751.5" font-family="FreeSans" font-size="10.00">+ ColumnBase()</text>
<text text-anchor="start" x="64.5" y="-740.5" font-family="FreeSans" font-size="10.00">+ ~ColumnBase()</text>
<text text-anchor="start" x="64.5" y="-729.5" font-family="FreeSans" font-size="10.00">+ isEditable()</text>
<text text-anchor="start" x="64.5" y="-718.5" font-family="FreeSans" font-size="10.00">+ isUserEditable()</text>
<text text-anchor="start" x="64.5" y="-707.5" font-family="FreeSans" font-size="10.00">+ getTitle()</text>
<text text-anchor="start" x="64.5" y="-696.5" font-family="FreeSans" font-size="10.00">+ getId()</text>
<text text-anchor="start" x="64.5" y="-685.5" font-family="FreeSans" font-size="10.00">+ isId()</text>
<text text-anchor="start" x="64.5" y="-674.5" font-family="FreeSans" font-size="10.00">+ isText()</text>
<text text-anchor="start" x="64.5" y="-663.5" font-family="FreeSans" font-size="10.00">+ isScript()</text>
</a>
</g>
</g>
<!-- Node6&#45;&gt;Node5 -->
<g id="edge5" class="edge"><title>Node6&#45;&gt;Node5</title>
<path fill="none" stroke="midnightblue" d="M122,-646.219C122,-636.416 122,-626.648 122,-617.505"/>
<polygon fill="none" stroke="midnightblue" points="118.5,-646.424 122,-656.424 125.5,-646.424 118.5,-646.424"/>
</g>
<!-- Node7 -->
<g id="node7" class="node"><title>Node7</title>
<g id="a_node7"><a xlink:href="classint.html" target="_top" xlink:title="{int\n||}">
<polygon fill="white" stroke="black" points="64.5,-860.5 64.5,-917.5 93.5,-917.5 93.5,-860.5 64.5,-860.5"/>
<text text-anchor="middle" x="79" y="-905.5" font-family="FreeSans" font-size="10.00">int</text>
<polyline fill="none" stroke="black" points="64.5,-898.5 93.5,-898.5 "/>
<text text-anchor="middle" x="79" y="-886.5" font-family="FreeSans" font-size="10.00"> </text>
<polyline fill="none" stroke="black" points="64.5,-879.5 93.5,-879.5 "/>
<text text-anchor="middle" x="79" y="-867.5" font-family="FreeSans" font-size="10.00"> </text>
</a>
</g>
</g>
<!-- Node7&#45;&gt;Node6 -->
<g id="edge6" class="edge"><title>Node7&#45;&gt;Node6</title>
<path fill="none" stroke="#404040" d="M76.793,-860.223C76.47,-847.776 77.0147,-833.003 80,-820 80.5281,-817.7 81.1198,-815.388 81.7667,-813.073"/>
<polygon fill="none" stroke="#404040" points="81.8067,-812.946 79.8013,-806.02 85.4238,-801.504 87.4292,-808.431 81.8067,-812.946"/>
<text text-anchor="middle" x="112" y="-834" font-family="FreeSans" font-size="10.00"> +mFlags</text>
<text text-anchor="middle" x="112" y="-823" font-family="FreeSans" font-size="10.00">+mColumnId</text>
</g>
<!-- Node8 -->
<g id="node8" class="node"><title>Node8</title>
<polygon fill="white" stroke="#bfbfbf" points="140.5,-860.5 140.5,-917.5 191.5,-917.5 191.5,-860.5 140.5,-860.5"/>
<text text-anchor="middle" x="166" y="-905.5" font-family="FreeSans" font-size="10.00">Display</text>
<polyline fill="none" stroke="#bfbfbf" points="140.5,-898.5 191.5,-898.5 "/>
<text text-anchor="middle" x="166" y="-886.5" font-family="FreeSans" font-size="10.00"> </text>
<polyline fill="none" stroke="#bfbfbf" points="140.5,-879.5 191.5,-879.5 "/>
<text text-anchor="middle" x="166" y="-867.5" font-family="FreeSans" font-size="10.00"> </text>
</g>
<!-- Node8&#45;&gt;Node6 -->
<g id="edge7" class="edge"><title>Node8&#45;&gt;Node6</title>
<path fill="none" stroke="#404040" d="M158.336,-860.479C154.635,-847.189 149.975,-830.456 145.239,-813.448"/>
<polygon fill="none" stroke="#404040" points="145.178,-813.228 139.715,-808.521 141.958,-801.668 147.421,-806.375 145.178,-813.228"/>
<text text-anchor="middle" x="191.5" y="-828.5" font-family="FreeSans" font-size="10.00"> +mDisplayType</text>
</g>
<!-- Node9&#45;&gt;Node5 -->
<g id="edge8" class="edge"><title>Node9&#45;&gt;Node5</title>
<path fill="none" stroke="#404040" d="M87.0715,-452.008C91.8626,-459.621 96.4912,-467.877 100,-476 103.9,-485.028 107.192,-494.878 109.944,-504.641"/>
<polygon fill="none" stroke="#404040" points="109.995,-504.838 115.386,-509.628 113.037,-516.446 107.647,-511.656 109.995,-504.838"/>
<text text-anchor="middle" x="155" y="-484.5" font-family="FreeSans" font-size="10.00"> &#45;mNestedColumns</text>
</g>
<!-- Node10 -->
<g id="node10" class="node"><title>Node10</title>
<g id="a_node10"><a xlink:href="classbool.html" target="_top" xlink:title="{bool\n||}">
<polygon fill="white" stroke="black" points="245.5,-538.5 245.5,-595.5 282.5,-595.5 282.5,-538.5 245.5,-538.5"/>
<text text-anchor="middle" x="264" y="-583.5" font-family="FreeSans" font-size="10.00">bool</text>
<polyline fill="none" stroke="black" points="245.5,-576.5 282.5,-576.5 "/>
<text text-anchor="middle" x="264" y="-564.5" font-family="FreeSans" font-size="10.00"> </text>
<polyline fill="none" stroke="black" points="245.5,-557.5 282.5,-557.5 "/>
<text text-anchor="middle" x="264" y="-545.5" font-family="FreeSans" font-size="10.00"> </text>
</a>
</g>
</g>
<!-- Node10&#45;&gt;Node4 -->
<g id="edge10" class="edge"><title>Node10&#45;&gt;Node4</title>
<path fill="none" stroke="#404040" d="M260.802,-538.35C258.569,-519.034 255.521,-492.683 252.858,-469.654"/>
<polygon fill="none" stroke="#404040" points="252.845,-469.54 248.182,-464.039 251.466,-457.62 256.129,-463.12 252.845,-469.54"/>
<text text-anchor="middle" x="294.5" y="-490" font-family="FreeSans" font-size="10.00"> &#45;mEditable</text>
<text text-anchor="middle" x="294.5" y="-479" font-family="FreeSans" font-size="10.00">&#45;mUserEditable</text>
</g>
<!-- Node11 -->
<g id="node11" class="node"><title>Node11</title>
<polygon fill="white" stroke="#bfbfbf" points="333,-211.5 333,-268.5 371,-268.5 371,-211.5 333,-211.5"/>
<text text-anchor="middle" x="352" y="-256.5" font-family="FreeSans" font-size="10.00">Type</text>
<polyline fill="none" stroke="#bfbfbf" points="333,-249.5 371,-249.5 "/>
<text text-anchor="middle" x="352" y="-237.5" font-family="FreeSans" font-size="10.00"> </text>
<polyline fill="none" stroke="#bfbfbf" points="333,-230.5 371,-230.5 "/>
<text text-anchor="middle" x="352" y="-218.5" font-family="FreeSans" font-size="10.00"> </text>
</g>
<!-- Node11&#45;&gt;Node1 -->
<g id="edge11" class="edge"><title>Node11&#45;&gt;Node1</title>
<path fill="none" stroke="#404040" d="M342.007,-211.306C337.161,-198.979 330.898,-184.464 324,-172 316.989,-159.33 308.811,-146.35 300.455,-133.965"/>
<polygon fill="none" stroke="#404040" points="300.212,-133.613 293.517,-130.933 293.415,-123.723 300.11,-126.402 300.212,-133.613"/>
<text text-anchor="middle" x="332" y="-145.5" font-family="FreeSans" font-size="10.00"> &#45;mType</text>
</g>
</g>
</svg>
