<?xml version="1.0" encoding="UTF-8" standalone="no"?>
<!DOCTYPE svg PUBLIC "-//W3C//DTD SVG 1.1//EN"
 "http://www.w3.org/Graphics/SVG/1.1/DTD/svg11.dtd">
<!-- Generated by graphviz version 2.36.0 (20140111.2315)
 -->
<!-- Title: MWMechanics::NpcStats::getBounty Pages: 1 -->
<svg width="796pt" height="469pt"
 viewBox="0.00 0.00 796.00 469.00" xmlns="http://www.w3.org/2000/svg" xmlns:xlink="http://www.w3.org/1999/xlink">
<g id="graph0" class="graph" transform="scale(1 1) rotate(0) translate(4 465)">
<title>MWMechanics::NpcStats::getBounty</title>
<polygon fill="white" stroke="none" points="-4,4 -4,-465 792,-465 792,4 -4,4"/>
<!-- Node1 -->
<g id="node1" class="node"><title>Node1</title>
<polygon fill="#bfbfbf" stroke="black" points="0,-210 0,-240 134,-240 134,-210 0,-210"/>
<text text-anchor="start" x="8" y="-228" font-family="FreeSans" font-size="10.00">MWMechanics::NpcStats</text>
<text text-anchor="middle" x="67" y="-217" font-family="FreeSans" font-size="10.00">::getBounty</text>
</g>
<!-- Node2 -->
<g id="node2" class="node"><title>Node2</title>
<g id="a_node2"><a xlink:href="classMWDialogue_1_1Filter.html#a60b07e8170fb7aaff7e252554be1e4ba" target="_top" xlink:title="MWDialogue::Filter\l::getSelectStructInteger">
<polygon fill="white" stroke="black" points="195.5,-431 195.5,-461 326.5,-461 326.5,-431 195.5,-431"/>
<text text-anchor="start" x="203.5" y="-449" font-family="FreeSans" font-size="10.00">MWDialogue::Filter</text>
<text text-anchor="middle" x="261" y="-438" font-family="FreeSans" font-size="10.00">::getSelectStructInteger</text>
</a>
</g>
</g>
<!-- Node1&#45;&gt;Node2 -->
<g id="edge1" class="edge"><title>Node1&#45;&gt;Node2</title>
<path fill="none" stroke="midnightblue" d="M74.0513,-250.062C85.4673,-291.891 114.205,-375.793 170,-421 177.434,-427.023 186.222,-431.598 195.344,-435.072"/>
<polygon fill="midnightblue" stroke="midnightblue" points="77.3747,-248.937 71.4574,-240.148 70.6027,-250.708 77.3747,-248.937"/>
</g>
<!-- Node3 -->
<g id="node3" class="node"><title>Node3</title>
<g id="a_node3"><a xlink:href="classMWGui_1_1StatsWindow.html#abca7914b0e28b6ba0e5475d99f4b6310" target="_top" xlink:title="automatically updates all the data in the stats window, but only if it has changed. ">
<polygon fill="white" stroke="black" points="203,-382 203,-412 319,-412 319,-382 203,-382"/>
<text text-anchor="start" x="211" y="-400" font-family="FreeSans" font-size="10.00">MWGui::StatsWindow</text>
<text text-anchor="middle" x="261" y="-389" font-family="FreeSans" font-size="10.00">::onFrame</text>
</a>
</g>
</g>
<!-- Node1&#45;&gt;Node3 -->
<g id="edge2" class="edge"><title>Node1&#45;&gt;Node3</title>
<path fill="none" stroke="midnightblue" d="M78.4119,-249.418C93.6744,-282.263 125.246,-340.213 170,-372 179.651,-378.855 191.117,-383.833 202.577,-387.448"/>
<polygon fill="midnightblue" stroke="midnightblue" points="81.5052,-247.763 74.2023,-240.087 75.1245,-250.642 81.5052,-247.763"/>
</g>
<!-- Node5 -->
<g id="node5" class="node"><title>Node5</title>
<g id="a_node5"><a xlink:href="classMWMechanics_1_1Actors.html#a41c4de50f4d384d438e68c523e88c5f5" target="_top" xlink:title="MWMechanics::Actors\l::updateCrimePersuit">
<polygon fill="white" stroke="black" points="201,-333 201,-363 321,-363 321,-333 201,-333"/>
<text text-anchor="start" x="209" y="-351" font-family="FreeSans" font-size="10.00">MWMechanics::Actors</text>
<text text-anchor="middle" x="261" y="-340" font-family="FreeSans" font-size="10.00">::updateCrimePersuit</text>
</a>
</g>
</g>
<!-- Node1&#45;&gt;Node5 -->
<g id="edge4" class="edge"><title>Node1&#45;&gt;Node5</title>
<path fill="none" stroke="midnightblue" d="M86.3232,-248.335C105.056,-270.656 136.139,-303.694 170,-323 179.439,-328.381 190.102,-332.658 200.701,-336.041"/>
<polygon fill="midnightblue" stroke="midnightblue" points="88.8205,-245.861 79.7682,-240.355 83.4117,-250.304 88.8205,-245.861"/>
</g>
<!-- Node8 -->
<g id="node8" class="node"><title>Node8</title>
<g id="a_node8"><a xlink:href="classMWMechanics_1_1MechanicsManager.html#ac2c94a31b0bb42c76ad14898027db747" target="_top" xlink:title="MWMechanics::MechanicsManager\l::reportCrime">
<polygon fill="white" stroke="black" points="170,-284 170,-314 352,-314 352,-284 170,-284"/>
<text text-anchor="start" x="178" y="-302" font-family="FreeSans" font-size="10.00">MWMechanics::MechanicsManager</text>
<text text-anchor="middle" x="261" y="-291" font-family="FreeSans" font-size="10.00">::reportCrime</text>
</a>
</g>
</g>
<!-- Node1&#45;&gt;Node8 -->
<g id="edge7" class="edge"><title>Node1&#45;&gt;Node8</title>
<path fill="none" stroke="midnightblue" d="M104.941,-244.698C124.016,-254.365 147.874,-265.687 170,-274 179.564,-277.593 189.871,-280.932 199.976,-283.924"/>
<polygon fill="midnightblue" stroke="midnightblue" points="106.485,-241.557 95.99,-240.106 103.29,-247.785 106.485,-241.557"/>
</g>
<!-- Node15 -->
<g id="node15" class="node"><title>Node15</title>
<g id="a_node15"><a xlink:href="classMWMechanics_1_1MechanicsManager.html#aac554cc4280a59bcb2381e653c3f7b36" target="_top" xlink:title="Turn actor into werewolf or normal form. ">
<polygon fill="white" stroke="black" points="170,-235 170,-265 352,-265 352,-235 170,-235"/>
<text text-anchor="start" x="178" y="-253" font-family="FreeSans" font-size="10.00">MWMechanics::MechanicsManager</text>
<text text-anchor="middle" x="261" y="-242" font-family="FreeSans" font-size="10.00">::setWerewolf</text>
</a>
</g>
</g>
<!-- Node1&#45;&gt;Node15 -->
<g id="edge14" class="edge"><title>Node1&#45;&gt;Node15</title>
<path fill="none" stroke="midnightblue" d="M144.188,-234.92C152.579,-236.013 161.181,-237.133 169.723,-238.245"/>
<polygon fill="midnightblue" stroke="midnightblue" points="144.444,-231.424 134.076,-233.604 143.54,-238.366 144.444,-231.424"/>
</g>
<!-- Node16 -->
<g id="node16" class="node"><title>Node16</title>
<g id="a_node16"><a xlink:href="classMWScript_1_1InterpreterContext.html#aa3d58d1a96110466b03959c2af82012d" target="_top" xlink:title="MWScript::InterpreterContext\l::getPCBounty">
<polygon fill="white" stroke="black" points="183.5,-186 183.5,-216 338.5,-216 338.5,-186 183.5,-186"/>
<text text-anchor="start" x="191.5" y="-204" font-family="FreeSans" font-size="10.00">MWScript::InterpreterContext</text>
<text text-anchor="middle" x="261" y="-193" font-family="FreeSans" font-size="10.00">::getPCBounty</text>
</a>
</g>
</g>
<!-- Node1&#45;&gt;Node16 -->
<g id="edge15" class="edge"><title>Node1&#45;&gt;Node16</title>
<path fill="none" stroke="midnightblue" d="M144.24,-215.47C157.069,-213.866 170.39,-212.201 183.233,-210.596"/>
<polygon fill="midnightblue" stroke="midnightblue" points="143.564,-212.027 134.076,-216.741 144.432,-218.973 143.564,-212.027"/>
</g>
<!-- Node17 -->
<g id="node17" class="node"><title>Node17</title>
<g id="a_node17"><a xlink:href="classMWScript_1_1Stats_1_1OpGetPCCrimeLevel.html#af92a8c5e41f5e049658713a3378fb8f5" target="_top" xlink:title="MWScript::Stats::OpGetPCCrime\lLevel::execute">
<polygon fill="white" stroke="black" points="176,-137 176,-167 346,-167 346,-137 176,-137"/>
<text text-anchor="start" x="184" y="-155" font-family="FreeSans" font-size="10.00">MWScript::Stats::OpGetPCCrime</text>
<text text-anchor="middle" x="261" y="-144" font-family="FreeSans" font-size="10.00">Level::execute</text>
</a>
</g>
</g>
<!-- Node1&#45;&gt;Node17 -->
<g id="edge16" class="edge"><title>Node1&#45;&gt;Node17</title>
<path fill="none" stroke="midnightblue" d="M106.064,-205.212C124.965,-195.872 148.339,-185.04 170,-177 179.578,-173.445 189.892,-170.126 200.001,-167.141"/>
<polygon fill="midnightblue" stroke="midnightblue" points="104.274,-202.193 96.8966,-209.797 107.406,-208.454 104.274,-202.193"/>
</g>
<!-- Node18 -->
<g id="node18" class="node"><title>Node18</title>
<g id="a_node18"><a xlink:href="classMWScript_1_1Stats_1_1OpModPCCrimeLevel.html#a0d0ebfea71f8c3d9e0b59d961a3e7771" target="_top" xlink:title="MWScript::Stats::OpModPCCrime\lLevel::execute">
<polygon fill="white" stroke="black" points="174.5,-88 174.5,-118 347.5,-118 347.5,-88 174.5,-88"/>
<text text-anchor="start" x="182.5" y="-106" font-family="FreeSans" font-size="10.00">MWScript::Stats::OpModPCCrime</text>
<text text-anchor="middle" x="261" y="-95" font-family="FreeSans" font-size="10.00">Level::execute</text>
</a>
</g>
</g>
<!-- Node1&#45;&gt;Node18 -->
<g id="edge17" class="edge"><title>Node1&#45;&gt;Node18</title>
<path fill="none" stroke="midnightblue" d="M85.9679,-201.964C104.634,-179.581 135.85,-146.237 170,-127 176.058,-123.587 182.621,-120.644 189.347,-118.108"/>
<polygon fill="midnightblue" stroke="midnightblue" points="83.0591,-199.992 79.4486,-209.953 88.4826,-204.418 83.0591,-199.992"/>
</g>
<!-- Node19 -->
<g id="node19" class="node"><title>Node19</title>
<g id="a_node19"><a xlink:href="classMWWorld_1_1World.html#a63f39d2b8a27e4801a4bf3ef0fd683ec" target="_top" xlink:title="MWWorld::World::updateDialogue\lGlobals">
<polygon fill="white" stroke="black" points="175,-39 175,-69 347,-69 347,-39 175,-39"/>
<text text-anchor="start" x="183" y="-57" font-family="FreeSans" font-size="10.00">MWWorld::World::updateDialogue</text>
<text text-anchor="middle" x="261" y="-46" font-family="FreeSans" font-size="10.00">Globals</text>
</a>
</g>
</g>
<!-- Node1&#45;&gt;Node19 -->
<g id="edge18" class="edge"><title>Node1&#45;&gt;Node19</title>
<path fill="none" stroke="midnightblue" d="M78.3648,-200.516C93.5729,-167.594 125.082,-109.555 170,-78 174.896,-74.5606 180.257,-71.6141 185.846,-69.0898"/>
<polygon fill="midnightblue" stroke="midnightblue" points="75.0686,-199.313 74.1715,-209.869 81.4561,-202.176 75.0686,-199.313"/>
</g>
<!-- Node20 -->
<g id="node20" class="node"><title>Node20</title>
<g id="a_node20"><a xlink:href="classMWWorld_1_1World.html#a748f634c1ae4cd70a6e0ed33076cfa3c" target="_top" xlink:title="MWWorld::World::goToJail">
<polygon fill="white" stroke="black" points="195.5,-0.5 195.5,-19.5 326.5,-19.5 326.5,-0.5 195.5,-0.5"/>
<text text-anchor="middle" x="261" y="-7.5" font-family="FreeSans" font-size="10.00">MWWorld::World::goToJail</text>
</a>
</g>
</g>
<!-- Node1&#45;&gt;Node20 -->
<g id="edge19" class="edge"><title>Node1&#45;&gt;Node20</title>
<path fill="none" stroke="midnightblue" d="M73.5995,-200.134C84.4612,-157.932 112.549,-72.63 170,-29 177.503,-23.3017 186.329,-19.2207 195.468,-16.3143"/>
<polygon fill="midnightblue" stroke="midnightblue" points="70.1914,-199.336 71.2018,-209.883 76.9889,-201.008 70.1914,-199.336"/>
</g>
<!-- Node4 -->
<g id="node4" class="node"><title>Node4</title>
<g id="a_node4"><a xlink:href="classMWGui_1_1WindowManager.html#a2f52c12d86d6bb31adc62b06cef3de19" target="_top" xlink:title="MWGui::WindowManager\l::onFrame">
<polygon fill="white" stroke="black" points="413,-382 413,-412 545,-412 545,-382 413,-382"/>
<text text-anchor="start" x="421" y="-400" font-family="FreeSans" font-size="10.00">MWGui::WindowManager</text>
<text text-anchor="middle" x="479" y="-389" font-family="FreeSans" font-size="10.00">::onFrame</text>
</a>
</g>
</g>
<!-- Node3&#45;&gt;Node4 -->
<g id="edge3" class="edge"><title>Node3&#45;&gt;Node4</title>
<path fill="none" stroke="midnightblue" d="M329.38,-397C355.913,-397 386.276,-397 412.612,-397"/>
<polygon fill="midnightblue" stroke="midnightblue" points="329.034,-393.5 319.034,-397 329.034,-400.5 329.034,-393.5"/>
</g>
<!-- Node6 -->
<g id="node6" class="node"><title>Node6</title>
<g id="a_node6"><a xlink:href="classMWMechanics_1_1Actors.html#a1588180bba8597286a1db1389cee106e" target="_top" xlink:title="Update actor stats and store desired velocity vectors in movement. ">
<polygon fill="white" stroke="black" points="419,-333 419,-363 539,-363 539,-333 419,-333"/>
<text text-anchor="start" x="427" y="-351" font-family="FreeSans" font-size="10.00">MWMechanics::Actors</text>
<text text-anchor="middle" x="479" y="-340" font-family="FreeSans" font-size="10.00">::update</text>
</a>
</g>
</g>
<!-- Node5&#45;&gt;Node6 -->
<g id="edge5" class="edge"><title>Node5&#45;&gt;Node6</title>
<path fill="none" stroke="midnightblue" d="M331.2,-348C359.37,-348 391.602,-348 418.673,-348"/>
<polygon fill="midnightblue" stroke="midnightblue" points="331.023,-344.5 321.023,-348 331.023,-351.5 331.023,-344.5"/>
</g>
<!-- Node7 -->
<g id="node7" class="node"><title>Node7</title>
<g id="a_node7"><a xlink:href="classMWMechanics_1_1MechanicsManager.html#acf3c8c25fff52b890d0d6ced4b456459" target="_top" xlink:title="MWMechanics::MechanicsManager\l::update">
<polygon fill="white" stroke="black" points="606,-382 606,-412 788,-412 788,-382 606,-382"/>
<text text-anchor="start" x="614" y="-400" font-family="FreeSans" font-size="10.00">MWMechanics::MechanicsManager</text>
<text text-anchor="middle" x="697" y="-389" font-family="FreeSans" font-size="10.00">::update</text>
</a>
</g>
</g>
<!-- Node6&#45;&gt;Node7 -->
<g id="edge6" class="edge"><title>Node6&#45;&gt;Node7</title>
<path fill="none" stroke="midnightblue" d="M548.775,-363.602C574.706,-369.484 604.128,-376.159 629.817,-381.986"/>
<polygon fill="midnightblue" stroke="midnightblue" points="549.55,-360.189 539.023,-361.389 548.001,-367.015 549.55,-360.189"/>
</g>
<!-- Node9 -->
<g id="node9" class="node"><title>Node9</title>
<g id="a_node9"><a xlink:href="classMWMechanics_1_1MechanicsManager.html#a3fa51ec4329cd8a71916c19a76b457b0" target="_top" xlink:title="MWMechanics::MechanicsManager\l::commitCrime">
<polygon fill="white" stroke="black" points="388,-259 388,-289 570,-289 570,-259 388,-259"/>
<text text-anchor="start" x="396" y="-277" font-family="FreeSans" font-size="10.00">MWMechanics::MechanicsManager</text>
<text text-anchor="middle" x="479" y="-266" font-family="FreeSans" font-size="10.00">::commitCrime</text>
</a>
</g>
</g>
<!-- Node8&#45;&gt;Node9 -->
<g id="edge8" class="edge"><title>Node8&#45;&gt;Node9</title>
<path fill="none" stroke="midnightblue" d="M362.059,-287.419C370.631,-286.427 379.27,-285.427 387.759,-284.445"/>
<polygon fill="midnightblue" stroke="midnightblue" points="361.571,-283.952 352.039,-288.579 362.375,-290.906 361.571,-283.952"/>
</g>
<!-- Node10 -->
<g id="node10" class="node"><title>Node10</title>
<g id="a_node10"><a xlink:href="classMWMechanics_1_1MechanicsManager.html#ad141d9d144db43c95491ecf5ab52762a" target="_top" xlink:title="MWMechanics::MechanicsManager\l::sleepInBed">
<polygon fill="white" stroke="black" points="606,-333 606,-363 788,-363 788,-333 606,-333"/>
<text text-anchor="start" x="614" y="-351" font-family="FreeSans" font-size="10.00">MWMechanics::MechanicsManager</text>
<text text-anchor="middle" x="697" y="-340" font-family="FreeSans" font-size="10.00">::sleepInBed</text>
</a>
</g>
</g>
<!-- Node9&#45;&gt;Node10 -->
<g id="edge9" class="edge"><title>Node9&#45;&gt;Node10</title>
<path fill="none" stroke="midnightblue" d="M525.251,-292.861C549.071,-302.467 578.888,-313.988 606,-323 616.464,-326.478 627.72,-329.873 638.607,-332.983"/>
<polygon fill="midnightblue" stroke="midnightblue" points="526.352,-289.531 515.77,-289.012 523.718,-296.017 526.352,-289.531"/>
</g>
<!-- Node11 -->
<g id="node11" class="node"><title>Node11</title>
<g id="a_node11"><a xlink:href="classMWMechanics_1_1MechanicsManager.html#addb42f0c5d68deeaeafb8c763a3d67d1" target="_top" xlink:title="Utility to check if opening (i.e. unlocking) this object is illegal and calling commitCrime if so...">
<polygon fill="white" stroke="black" points="606,-284 606,-314 788,-314 788,-284 606,-284"/>
<text text-anchor="start" x="614" y="-302" font-family="FreeSans" font-size="10.00">MWMechanics::MechanicsManager</text>
<text text-anchor="middle" x="697" y="-291" font-family="FreeSans" font-size="10.00">::objectOpened</text>
</a>
</g>
</g>
<!-- Node9&#45;&gt;Node11 -->
<g id="edge10" class="edge"><title>Node9&#45;&gt;Node11</title>
<path fill="none" stroke="midnightblue" d="M580.059,-285.581C588.631,-286.573 597.27,-287.573 605.759,-288.555"/>
<polygon fill="midnightblue" stroke="midnightblue" points="580.375,-282.094 570.039,-284.421 579.571,-289.048 580.375,-282.094"/>
</g>
<!-- Node12 -->
<g id="node12" class="node"><title>Node12</title>
<g id="a_node12"><a xlink:href="classMWMechanics_1_1MechanicsManager.html#a4bd88c829695528534252955ac6ceeaf" target="_top" xlink:title="MWMechanics::MechanicsManager\l::itemTaken">
<polygon fill="white" stroke="black" points="606,-235 606,-265 788,-265 788,-235 606,-235"/>
<text text-anchor="start" x="614" y="-253" font-family="FreeSans" font-size="10.00">MWMechanics::MechanicsManager</text>
<text text-anchor="middle" x="697" y="-242" font-family="FreeSans" font-size="10.00">::itemTaken</text>
</a>
</g>
</g>
<!-- Node9&#45;&gt;Node12 -->
<g id="edge11" class="edge"><title>Node9&#45;&gt;Node12</title>
<path fill="none" stroke="midnightblue" d="M580.059,-262.882C588.631,-261.93 597.27,-260.97 605.759,-260.027"/>
<polygon fill="midnightblue" stroke="midnightblue" points="579.592,-259.413 570.039,-263.996 580.365,-266.37 579.592,-259.413"/>
</g>
<!-- Node13 -->
<g id="node13" class="node"><title>Node13</title>
<g id="a_node13"><a xlink:href="classMWMechanics_1_1MechanicsManager.html#ac0295fc090e45cda7afb12f54cdb3ff4" target="_top" xlink:title="MWMechanics::MechanicsManager\l::actorAttacked">
<polygon fill="white" stroke="black" points="606,-186 606,-216 788,-216 788,-186 606,-186"/>
<text text-anchor="start" x="614" y="-204" font-family="FreeSans" font-size="10.00">MWMechanics::MechanicsManager</text>
<text text-anchor="middle" x="697" y="-193" font-family="FreeSans" font-size="10.00">::actorAttacked</text>
</a>
</g>
</g>
<!-- Node9&#45;&gt;Node13 -->
<g id="edge12" class="edge"><title>Node9&#45;&gt;Node13</title>
<path fill="none" stroke="midnightblue" d="M526.321,-255.17C549.974,-245.858 579.32,-234.766 606,-226 616.476,-222.558 627.737,-219.18 638.627,-216.076"/>
<polygon fill="midnightblue" stroke="midnightblue" points="524.898,-251.969 516.89,-258.907 527.476,-258.477 524.898,-251.969"/>
</g>
<!-- Node14 -->
<g id="node14" class="node"><title>Node14</title>
<g id="a_node14"><a xlink:href="classMWMechanics_1_1MechanicsManager.html#a3d920d72d10bae37ab7b70ce39d17a93" target="_top" xlink:title="MWMechanics::MechanicsManager\l::actorKilled">
<polygon fill="white" stroke="black" points="606,-137 606,-167 788,-167 788,-137 606,-137"/>
<text text-anchor="start" x="614" y="-155" font-family="FreeSans" font-size="10.00">MWMechanics::MechanicsManager</text>
<text text-anchor="middle" x="697" y="-144" font-family="FreeSans" font-size="10.00">::actorKilled</text>
</a>
</g>
</g>
<!-- Node9&#45;&gt;Node14 -->
<g id="edge13" class="edge"><title>Node9&#45;&gt;Node14</title>
<path fill="none" stroke="midnightblue" d="M502.832,-251.976C526.746,-230.04 566.288,-196.849 606,-177 613.543,-173.23 621.735,-169.96 630.001,-167.142"/>
<polygon fill="midnightblue" stroke="midnightblue" points="500.277,-249.573 495.343,-258.949 505.047,-254.696 500.277,-249.573"/>
</g>
<!-- Node21 -->
<g id="node21" class="node"><title>Node21</title>
<g id="a_node21"><a xlink:href="classMWWorld_1_1World.html#abf77486e8f0325210afe56bbe2021960" target="_top" xlink:title="MWWorld::World::update">
<polygon fill="white" stroke="black" points="414,-0.5 414,-19.5 544,-19.5 544,-0.5 414,-0.5"/>
<text text-anchor="middle" x="479" y="-7.5" font-family="FreeSans" font-size="10.00">MWWorld::World::update</text>
</a>
</g>
</g>
<!-- Node20&#45;&gt;Node21 -->
<g id="edge20" class="edge"><title>Node20&#45;&gt;Node21</title>
<path fill="none" stroke="midnightblue" d="M336.724,-10C361.83,-10 389.594,-10 413.818,-10"/>
<polygon fill="midnightblue" stroke="midnightblue" points="336.515,-6.5001 326.515,-10 336.515,-13.5001 336.515,-6.5001"/>
</g>
<!-- Node22 -->
<g id="node22" class="node"><title>Node22</title>
<g id="a_node22"><a xlink:href="classMWWorld_1_1World.html#ab658191aa2c94a4ea8256db10678c102" target="_top" xlink:title="MWWorld::World::createRecord">
<polygon fill="white" stroke="black" points="617.5,-0.5 617.5,-19.5 776.5,-19.5 776.5,-0.5 617.5,-0.5"/>
<text text-anchor="middle" x="697" y="-7.5" font-family="FreeSans" font-size="10.00">MWWorld::World::createRecord</text>
</a>
</g>
</g>
<!-- Node21&#45;&gt;Node22 -->
<g id="edge21" class="edge"><title>Node21&#45;&gt;Node22</title>
<path fill="none" stroke="midnightblue" d="M554.326,-10C574.587,-10 596.606,-10 617.112,-10"/>
<polygon fill="midnightblue" stroke="midnightblue" points="554.222,-6.5001 544.222,-10 554.222,-13.5001 554.222,-6.5001"/>
</g>
</g>
</svg>
