<?xml version="1.0" encoding="UTF-8" standalone="no"?>
<!DOCTYPE svg PUBLIC "-//W3C//DTD SVG 1.1//EN"
 "http://www.w3.org/Graphics/SVG/1.1/DTD/svg11.dtd">
<!-- Generated by graphviz version 2.36.0 (20140111.2315)
 -->
<!-- Title: MWMechanics::MechanicsManager::awarenessCheck Pages: 1 -->
<svg width="752pt" height="1296pt"
 viewBox="0.00 0.00 752.00 1296.00" xmlns="http://www.w3.org/2000/svg" xmlns:xlink="http://www.w3.org/1999/xlink">
<g id="graph0" class="graph" transform="scale(1 1) rotate(0) translate(4 1292)">
<title>MWMechanics::MechanicsManager::awarenessCheck</title>
<polygon fill="white" stroke="none" points="-4,4 -4,-1292 748,-1292 748,4 -4,4"/>
<!-- Node1 -->
<g id="node1" class="node"><title>Node1</title>
<polygon fill="#bfbfbf" stroke="black" points="0,-629 0,-659 182,-659 182,-629 0,-629"/>
<text text-anchor="start" x="8" y="-647" font-family="FreeSans" font-size="10.00">MWMechanics::MechanicsManager</text>
<text text-anchor="middle" x="91" y="-636" font-family="FreeSans" font-size="10.00">::awarenessCheck</text>
</g>
<!-- Node2 -->
<g id="node2" class="node"><title>Node2</title>
<g id="a_node2"><a xlink:href="classMWWorld_1_1Ptr.html#aa2ac4a5579cd19eaa780596f4543ea46" target="_top" xlink:title="MWWorld::Ptr::getClass">
<polygon fill="white" stroke="black" points="242.5,-1268.5 242.5,-1287.5 367.5,-1287.5 367.5,-1268.5 242.5,-1268.5"/>
<text text-anchor="middle" x="305" y="-1275.5" font-family="FreeSans" font-size="10.00">MWWorld::Ptr::getClass</text>
</a>
</g>
</g>
<!-- Node1&#45;&gt;Node2 -->
<g id="edge1" class="edge"><title>Node1&#45;&gt;Node2</title>
<path fill="none" stroke="midnightblue" d="M92.9512,-659.219C98.6258,-745.1 130.769,-1168.46 218,-1258 222.249,-1262.36 227.249,-1265.85 232.666,-1268.63"/>
<polygon fill="midnightblue" stroke="midnightblue" points="231.545,-1271.96 242.116,-1272.68 234.3,-1265.53 231.545,-1271.96"/>
</g>
<!-- Node3 -->
<g id="node3" class="node"><title>Node3</title>
<g id="a_node3"><a xlink:href="classMWWorld_1_1Class.html#a5095a30e5baa5742b3d393610fd73d60" target="_top" xlink:title="MWWorld::Class::getCreature\lStats">
<polygon fill="white" stroke="black" points="228,-1219 228,-1249 382,-1249 382,-1219 228,-1219"/>
<text text-anchor="start" x="236" y="-1237" font-family="FreeSans" font-size="10.00">MWWorld::Class::getCreature</text>
<text text-anchor="middle" x="305" y="-1226" font-family="FreeSans" font-size="10.00">Stats</text>
</a>
</g>
</g>
<!-- Node1&#45;&gt;Node3 -->
<g id="edge2" class="edge"><title>Node1&#45;&gt;Node3</title>
<path fill="none" stroke="midnightblue" d="M93.3295,-659.26C100.735,-740.879 139.427,-1125.27 218,-1209 219.244,-1210.33 220.553,-1211.58 221.919,-1212.77"/>
<polygon fill="midnightblue" stroke="midnightblue" points="220.17,-1215.83 230.309,-1218.9 224.3,-1210.18 220.17,-1215.83"/>
</g>
<!-- Node4 -->
<g id="node4" class="node"><title>Node4</title>
<g id="a_node4"><a xlink:href="classMWMechanics_1_1CreatureStats.html#af8087276da474ea537036c2eb9cd2096" target="_top" xlink:title="MWMechanics::CreatureStats\l::isDead">
<polygon fill="white" stroke="black" points="226.5,-1170 226.5,-1200 383.5,-1200 383.5,-1170 226.5,-1170"/>
<text text-anchor="start" x="234.5" y="-1188" font-family="FreeSans" font-size="10.00">MWMechanics::CreatureStats</text>
<text text-anchor="middle" x="305" y="-1177" font-family="FreeSans" font-size="10.00">::isDead</text>
</a>
</g>
</g>
<!-- Node1&#45;&gt;Node4 -->
<g id="edge3" class="edge"><title>Node1&#45;&gt;Node4</title>
<path fill="none" stroke="midnightblue" d="M93.6687,-659.199C102.435,-736.392 145.535,-1084.32 218,-1160 219.257,-1161.31 220.578,-1162.56 221.955,-1163.74"/>
<polygon fill="midnightblue" stroke="midnightblue" points="220.237,-1166.81 230.396,-1169.82 224.329,-1161.13 220.237,-1166.81"/>
</g>
<!-- Node5 -->
<g id="node5" class="node"><title>Node5</title>
<g id="a_node5"><a xlink:href="classMWWorld_1_1Ptr.html#aa35780406bea82e5dcff038800bd10e0" target="_top" xlink:title="MWWorld::Ptr::getRefData">
<polygon fill="white" stroke="black" points="236.5,-1131.5 236.5,-1150.5 373.5,-1150.5 373.5,-1131.5 236.5,-1131.5"/>
<text text-anchor="middle" x="305" y="-1138.5" font-family="FreeSans" font-size="10.00">MWWorld::Ptr::getRefData</text>
</a>
</g>
</g>
<!-- Node1&#45;&gt;Node5 -->
<g id="edge4" class="edge"><title>Node1&#45;&gt;Node5</title>
<path fill="none" stroke="midnightblue" d="M93.904,-659.387C103.408,-733.722 148.059,-1054.82 218,-1122 220.812,-1124.7 223.917,-1127.05 227.229,-1129.1"/>
<polygon fill="midnightblue" stroke="midnightblue" points="225.926,-1132.36 236.42,-1133.82 229.127,-1126.14 225.926,-1132.36"/>
</g>
<!-- Node6 -->
<g id="node6" class="node"><title>Node6</title>
<g id="a_node6"><a xlink:href="classMWWorld_1_1RefData.html#a694e176a54eebdb7547d26fcfa08896a" target="_top" xlink:title="MWWorld::RefData::isEnabled">
<polygon fill="white" stroke="black" points="228,-1093.5 228,-1112.5 382,-1112.5 382,-1093.5 228,-1093.5"/>
<text text-anchor="middle" x="305" y="-1100.5" font-family="FreeSans" font-size="10.00">MWWorld::RefData::isEnabled</text>
</a>
</g>
</g>
<!-- Node1&#45;&gt;Node6 -->
<g id="edge5" class="edge"><title>Node1&#45;&gt;Node6</title>
<path fill="none" stroke="midnightblue" d="M91.498,-659.314C90.3371,-721.382 94.5319,-956.735 218,-1079 221.993,-1082.95 226.579,-1086.27 231.511,-1089.05"/>
<polygon fill="midnightblue" stroke="midnightblue" points="230.181,-1092.29 240.708,-1093.49 233.226,-1085.99 230.181,-1092.29"/>
</g>
<!-- Node7 -->
<g id="node7" class="node"><title>Node7</title>
<g id="a_node7"><a xlink:href="classMWBase_1_1Environment.html#a73f12633762b049c03c80fe215873faa" target="_top" xlink:title="Return instance of this class. ">
<polygon fill="white" stroke="black" points="434,-1116.5 434,-1135.5 580,-1135.5 580,-1116.5 434,-1116.5"/>
<text text-anchor="middle" x="507" y="-1123.5" font-family="FreeSans" font-size="10.00">MWBase::Environment::get</text>
</a>
</g>
</g>
<!-- Node1&#45;&gt;Node7 -->
<g id="edge6" class="edge"><title>Node1&#45;&gt;Node7</title>
<path fill="none" stroke="midnightblue" d="M91.8901,-659.291C92.3399,-718.19 102.175,-932.474 218,-1041 276.13,-1095.47 318.487,-1053.32 392,-1084 409.304,-1091.22 410.727,-1098.7 428,-1106 434.894,-1108.91 442.317,-1111.48 449.744,-1113.72"/>
<polygon fill="midnightblue" stroke="midnightblue" points="448.893,-1117.12 459.468,-1116.48 450.804,-1110.39 448.893,-1117.12"/>
</g>
<!-- Node8 -->
<g id="node8" class="node"><title>Node8</title>
<g id="a_node8"><a xlink:href="classMWBase_1_1Environment.html#ae14e166d8f5ff8629be119333d502660" target="_top" xlink:title="MWBase::Environment\l::getWorld">
<polygon fill="white" stroke="black" points="445,-1067 445,-1097 569,-1097 569,-1067 445,-1067"/>
<text text-anchor="start" x="453" y="-1085" font-family="FreeSans" font-size="10.00">MWBase::Environment</text>
<text text-anchor="middle" x="507" y="-1074" font-family="FreeSans" font-size="10.00">::getWorld</text>
</a>
</g>
</g>
<!-- Node1&#45;&gt;Node8 -->
<g id="edge7" class="edge"><title>Node1&#45;&gt;Node8</title>
<path fill="none" stroke="midnightblue" d="M92.5351,-659.324C95.3219,-714.643 112.519,-905.937 218,-1004 276.668,-1058.54 314.684,-1030.05 392,-1051 407.82,-1055.29 424.872,-1059.92 440.845,-1064.26"/>
<polygon fill="midnightblue" stroke="midnightblue" points="440.063,-1067.68 450.631,-1066.92 441.9,-1060.92 440.063,-1067.68"/>
</g>
<!-- Node9 -->
<g id="node9" class="node"><title>Node9</title>
<g id="a_node9"><a xlink:href="classMWBase_1_1World.html#a2ba0910cb944786065e37dc5f3fcda35" target="_top" xlink:title="MWBase::World::getStore">
<polygon fill="white" stroke="black" points="438.5,-1028.5 438.5,-1047.5 575.5,-1047.5 575.5,-1028.5 438.5,-1028.5"/>
<text text-anchor="middle" x="507" y="-1035.5" font-family="FreeSans" font-size="10.00">MWBase::World::getStore</text>
</a>
</g>
</g>
<!-- Node1&#45;&gt;Node9 -->
<g id="edge8" class="edge"><title>Node1&#45;&gt;Node9</title>
<path fill="none" stroke="midnightblue" d="M93.0573,-659.025C97.5365,-710.753 119.561,-883.001 218,-969 222.501,-972.932 372.483,-1007.57 454.176,-1026.22"/>
<polygon fill="midnightblue" stroke="midnightblue" points="453.498,-1029.66 464.026,-1028.47 455.055,-1022.83 453.498,-1029.66"/>
</g>
<!-- Node10 -->
<g id="node10" class="node"><title>Node10</title>
<g id="a_node10"><a xlink:href="classMWWorld_1_1ESMStore.html#a94ffe201bd012dd41fcdabfb35c69e24" target="_top" xlink:title="MWWorld::ESMStore::get">
<polygon fill="white" stroke="black" points="440,-842.5 440,-861.5 574,-861.5 574,-842.5 440,-842.5"/>
<text text-anchor="middle" x="507" y="-849.5" font-family="FreeSans" font-size="10.00">MWWorld::ESMStore::get</text>
</a>
</g>
</g>
<!-- Node1&#45;&gt;Node10 -->
<g id="edge9" class="edge"><title>Node1&#45;&gt;Node10</title>
<path fill="none" stroke="midnightblue" d="M95.923,-659.177C107.096,-698.87 143.218,-805.609 218,-848 294.488,-891.358 401.767,-877.044 461.459,-863.826"/>
<polygon fill="midnightblue" stroke="midnightblue" points="462.366,-867.209 471.326,-861.554 460.795,-860.387 462.366,-867.209"/>
</g>
<!-- Node11 -->
<g id="node11" class="node"><title>Node11</title>
<g id="a_node11"><a xlink:href="classMWMechanics_1_1CreatureStats.html#a2b7019ffe2ea9ecaace020bd12845e68" target="_top" xlink:title="MWMechanics::CreatureStats\l::getMagicEffects">
<polygon fill="white" stroke="black" points="226.5,-766 226.5,-796 383.5,-796 383.5,-766 226.5,-766"/>
<text text-anchor="start" x="234.5" y="-784" font-family="FreeSans" font-size="10.00">MWMechanics::CreatureStats</text>
<text text-anchor="middle" x="305" y="-773" font-family="FreeSans" font-size="10.00">::getMagicEffects</text>
</a>
</g>
</g>
<!-- Node1&#45;&gt;Node11 -->
<g id="edge10" class="edge"><title>Node1&#45;&gt;Node11</title>
<path fill="none" stroke="midnightblue" d="M104.763,-659.024C125.911,-682.985 170.607,-729.815 218,-756 222.013,-758.217 226.242,-760.255 230.584,-762.126"/>
<polygon fill="midnightblue" stroke="midnightblue" points="229.646,-765.519 240.232,-765.959 232.231,-759.014 229.646,-765.519"/>
</g>
<!-- Node12 -->
<g id="node12" class="node"><title>Node12</title>
<g id="a_node12"><a xlink:href="classMWMechanics_1_1MagicEffects.html#aa9771d1e0e2d3fa1378fc3bb0c338a28" target="_top" xlink:title="This function can safely be used for keys that are not present. ">
<polygon fill="white" stroke="black" points="219.5,-727.5 219.5,-746.5 390.5,-746.5 390.5,-727.5 219.5,-727.5"/>
<text text-anchor="middle" x="305" y="-734.5" font-family="FreeSans" font-size="10.00">MWMechanics::MagicEffects::get</text>
</a>
</g>
</g>
<!-- Node1&#45;&gt;Node12 -->
<g id="edge11" class="edge"><title>Node1&#45;&gt;Node12</title>
<path fill="none" stroke="midnightblue" d="M113.741,-659.296C138.082,-675.762 179.213,-701.651 218,-717 225.6,-720.007 233.765,-722.63 241.93,-724.897"/>
<polygon fill="midnightblue" stroke="midnightblue" points="241.291,-728.347 251.851,-727.488 243.06,-721.574 241.291,-728.347"/>
</g>
<!-- Node13 -->
<g id="node13" class="node"><title>Node13</title>
<g id="a_node13"><a xlink:href="structMWMechanics_1_1EffectParam.html#a1bb9e5f90a32bab2fa1d7e5d08360a51" target="_top" xlink:title="Get the total magnitude including base and modifier. ">
<polygon fill="white" stroke="black" points="231.5,-678 231.5,-708 378.5,-708 378.5,-678 231.5,-678"/>
<text text-anchor="start" x="239.5" y="-696" font-family="FreeSans" font-size="10.00">MWMechanics::EffectParam</text>
<text text-anchor="middle" x="305" y="-685" font-family="FreeSans" font-size="10.00">::getMagnitude</text>
</a>
</g>
</g>
<!-- Node1&#45;&gt;Node13 -->
<g id="edge12" class="edge"><title>Node1&#45;&gt;Node13</title>
<path fill="none" stroke="midnightblue" d="M157.048,-659.035C179.839,-664.302 205.615,-670.26 229.144,-675.698"/>
<polygon fill="midnightblue" stroke="midnightblue" points="228.544,-679.152 239.075,-677.994 230.12,-672.332 228.544,-679.152"/>
</g>
<!-- Node14 -->
<g id="node14" class="node"><title>Node14</title>
<g id="a_node14"><a xlink:href="classMWMechanics_1_1CreatureStats.html#a1b87fd5147564be617cb95bbbaf64022" target="_top" xlink:title="Like getMovementFlag, but also takes into account if the flag is Forced. ">
<polygon fill="white" stroke="black" points="226.5,-629 226.5,-659 383.5,-659 383.5,-629 226.5,-629"/>
<text text-anchor="start" x="234.5" y="-647" font-family="FreeSans" font-size="10.00">MWMechanics::CreatureStats</text>
<text text-anchor="middle" x="305" y="-636" font-family="FreeSans" font-size="10.00">::getStance</text>
</a>
</g>
</g>
<!-- Node1&#45;&gt;Node14 -->
<g id="edge13" class="edge"><title>Node1&#45;&gt;Node14</title>
<path fill="none" stroke="midnightblue" d="M182.214,-644C193.431,-644 204.89,-644 216.071,-644"/>
<polygon fill="midnightblue" stroke="midnightblue" points="216.248,-647.5 226.248,-644 216.248,-640.5 216.248,-647.5"/>
</g>
<!-- Node16 -->
<g id="node16" class="node"><title>Node16</title>
<g id="a_node16"><a xlink:href="classMWBase_1_1World.html#afcb13e418993a9442cf3a02275fa211d" target="_top" xlink:title="MWBase::World::isSwimming">
<polygon fill="white" stroke="black" points="229,-590.5 229,-609.5 381,-609.5 381,-590.5 229,-590.5"/>
<text text-anchor="middle" x="305" y="-597.5" font-family="FreeSans" font-size="10.00">MWBase::World::isSwimming</text>
</a>
</g>
</g>
<!-- Node1&#45;&gt;Node16 -->
<g id="edge15" class="edge"><title>Node1&#45;&gt;Node16</title>
<path fill="none" stroke="midnightblue" d="M164.365,-628.981C191.792,-623.288 222.57,-616.901 248.236,-611.574"/>
<polygon fill="midnightblue" stroke="midnightblue" points="249.087,-614.972 258.167,-609.512 247.665,-608.118 249.087,-614.972"/>
</g>
<!-- Node17 -->
<g id="node17" class="node"><title>Node17</title>
<g id="a_node17"><a xlink:href="classMWBase_1_1World.html#a451511f8e9d067283a18318cbefa5fd9" target="_top" xlink:title="MWBase::World::isOnGround">
<polygon fill="white" stroke="black" points="229.5,-552.5 229.5,-571.5 380.5,-571.5 380.5,-552.5 229.5,-552.5"/>
<text text-anchor="middle" x="305" y="-559.5" font-family="FreeSans" font-size="10.00">MWBase::World::isOnGround</text>
</a>
</g>
</g>
<!-- Node1&#45;&gt;Node17 -->
<g id="edge16" class="edge"><title>Node1&#45;&gt;Node17</title>
<path fill="none" stroke="midnightblue" d="M117.718,-628.776C142.617,-614.614 181.808,-593.825 218,-581 225.398,-578.379 233.286,-576.045 241.171,-573.988"/>
<polygon fill="midnightblue" stroke="midnightblue" points="242.251,-577.327 251.12,-571.531 240.572,-570.531 242.251,-577.327"/>
</g>
<!-- Node18 -->
<g id="node18" class="node"><title>Node18</title>
<g id="a_node18"><a xlink:href="classMWWorld_1_1Store.html#a3ca0f52b3814776b34ecfea3a44ea5ab" target="_top" xlink:title="MWWorld::Store::find">
<polygon fill="white" stroke="black" points="450,-804.5 450,-823.5 564,-823.5 564,-804.5 450,-804.5"/>
<text text-anchor="middle" x="507" y="-811.5" font-family="FreeSans" font-size="10.00">MWWorld::Store::find</text>
</a>
</g>
</g>
<!-- Node1&#45;&gt;Node18 -->
<g id="edge17" class="edge"><title>Node1&#45;&gt;Node18</title>
<path fill="none" stroke="midnightblue" d="M96.8099,-659.211C109.519,-696.468 147.922,-791.941 218,-829 255.199,-848.672 367.717,-836.043 440.604,-825.05"/>
<polygon fill="midnightblue" stroke="midnightblue" points="441.261,-828.49 450.614,-823.513 440.199,-821.571 441.261,-828.49"/>
</g>
<!-- Node19 -->
<g id="node19" class="node"><title>Node19</title>
<g id="a_node19"><a xlink:href="structESM_1_1GameSetting.html#adf86d0e6166ce3e4ec8a75ab31380344" target="_top" xlink:title="Throws an exception if GMST is not of type int or float. ">
<polygon fill="white" stroke="black" points="431,-766.5 431,-785.5 583,-785.5 583,-766.5 431,-766.5"/>
<text text-anchor="middle" x="507" y="-773.5" font-family="FreeSans" font-size="10.00">ESM::GameSetting::getFloat</text>
</a>
</g>
</g>
<!-- Node1&#45;&gt;Node19 -->
<g id="edge18" class="edge"><title>Node1&#45;&gt;Node19</title>
<path fill="none" stroke="midnightblue" d="M98.289,-659.278C113.176,-693.13 154.184,-773.907 218,-805 301.999,-845.927 337.581,-818.564 428,-795 437.013,-792.651 446.636,-790.234 455.936,-787.944"/>
<polygon fill="midnightblue" stroke="midnightblue" points="456.974,-791.293 465.857,-785.518 455.311,-784.493 456.974,-791.293"/>
</g>
<!-- Node21 -->
<g id="node21" class="node"><title>Node21</title>
<g id="a_node21"><a xlink:href="classMWWorld_1_1Class.html#a34eba4af23abc1b06b41fc93bf816b5c" target="_top" xlink:title="MWWorld::Class::getSkill">
<polygon fill="white" stroke="black" points="239.5,-514.5 239.5,-533.5 370.5,-533.5 370.5,-514.5 239.5,-514.5"/>
<text text-anchor="middle" x="305" y="-521.5" font-family="FreeSans" font-size="10.00">MWWorld::Class::getSkill</text>
</a>
</g>
</g>
<!-- Node1&#45;&gt;Node21 -->
<g id="edge20" class="edge"><title>Node1&#45;&gt;Node21</title>
<path fill="none" stroke="midnightblue" d="M106.322,-628.716C128.196,-606.33 172.232,-564.915 218,-543 223.213,-540.504 228.761,-538.331 234.432,-536.44"/>
<polygon fill="midnightblue" stroke="midnightblue" points="235.503,-539.772 244.054,-533.516 233.468,-533.075 235.503,-539.772"/>
</g>
<!-- Node22 -->
<g id="node22" class="node"><title>Node22</title>
<g id="a_node22"><a xlink:href="classMWWorld_1_1Class.html#a93babe591b0f7b9bb79adbdeccff099a" target="_top" xlink:title="MWWorld::Class::isNpc">
<polygon fill="white" stroke="black" points="244,-476.5 244,-495.5 366,-495.5 366,-476.5 244,-476.5"/>
<text text-anchor="middle" x="305" y="-483.5" font-family="FreeSans" font-size="10.00">MWWorld::Class::isNpc</text>
</a>
</g>
</g>
<!-- Node1&#45;&gt;Node22 -->
<g id="edge21" class="edge"><title>Node1&#45;&gt;Node22</title>
<path fill="none" stroke="midnightblue" d="M101.259,-628.622C119.626,-599.536 163.633,-536.558 218,-505 223.083,-502.049 228.578,-499.557 234.248,-497.451"/>
<polygon fill="midnightblue" stroke="midnightblue" points="235.513,-500.719 243.911,-494.259 233.318,-494.072 235.513,-500.719"/>
</g>
<!-- Node23 -->
<g id="node23" class="node"><title>Node23</title>
<g id="a_node23"><a xlink:href="classMWWorld_1_1Class.html#a852b8ee3c98947449511b85dfa479b28" target="_top" xlink:title="MWWorld::Class::getInventory\lStore">
<polygon fill="white" stroke="black" points="227,-427 227,-457 383,-457 383,-427 227,-427"/>
<text text-anchor="start" x="235" y="-445" font-family="FreeSans" font-size="10.00">MWWorld::Class::getInventory</text>
<text text-anchor="middle" x="305" y="-434" font-family="FreeSans" font-size="10.00">Store</text>
</a>
</g>
</g>
<!-- Node1&#45;&gt;Node23 -->
<g id="edge22" class="edge"><title>Node1&#45;&gt;Node23</title>
<path fill="none" stroke="midnightblue" d="M98.5042,-628.824C113.975,-594.56 156.339,-510.79 218,-467 220.726,-465.064 223.6,-463.278 226.579,-461.628"/>
<polygon fill="midnightblue" stroke="midnightblue" points="228.369,-464.648 235.785,-457.081 225.269,-458.371 228.369,-464.648"/>
</g>
<!-- Node24 -->
<g id="node24" class="node"><title>Node24</title>
<g id="a_node24"><a xlink:href="classMWWorld_1_1InventoryStore.html#a00638734d306421a8aa211947d759e65" target="_top" xlink:title="MWWorld::InventoryStore\l::getSlot">
<polygon fill="white" stroke="black" points="237.5,-378 237.5,-408 372.5,-408 372.5,-378 237.5,-378"/>
<text text-anchor="start" x="245.5" y="-396" font-family="FreeSans" font-size="10.00">MWWorld::InventoryStore</text>
<text text-anchor="middle" x="305" y="-385" font-family="FreeSans" font-size="10.00">::getSlot</text>
</a>
</g>
</g>
<!-- Node1&#45;&gt;Node24 -->
<g id="edge23" class="edge"><title>Node1&#45;&gt;Node24</title>
<path fill="none" stroke="midnightblue" d="M95.9482,-628.883C107.401,-588.09 144.581,-474.941 218,-417 221.128,-414.532 224.494,-412.317 228.02,-410.33"/>
<polygon fill="midnightblue" stroke="midnightblue" points="229.662,-413.423 237.068,-405.845 226.553,-407.151 229.662,-413.423"/>
</g>
<!-- Node25 -->
<g id="node25" class="node"><title>Node25</title>
<g id="a_node25"><a xlink:href="classMWWorld_1_1ContainerStore.html#ab7165a7ef4e2053f7c0b712d017a9f5d" target="_top" xlink:title="MWWorld::ContainerStore::end">
<polygon fill="white" stroke="black" points="224.5,-339.5 224.5,-358.5 385.5,-358.5 385.5,-339.5 224.5,-339.5"/>
<text text-anchor="middle" x="305" y="-346.5" font-family="FreeSans" font-size="10.00">MWWorld::ContainerStore::end</text>
</a>
</g>
</g>
<!-- Node1&#45;&gt;Node25 -->
<g id="edge24" class="edge"><title>Node1&#45;&gt;Node25</title>
<path fill="none" stroke="midnightblue" d="M94.1387,-628.897C101.604,-582.091 130.964,-438.381 218,-368 220.081,-366.317 222.279,-364.776 224.569,-363.365"/>
<polygon fill="midnightblue" stroke="midnightblue" points="226.559,-366.274 233.8,-358.54 223.316,-360.07 226.559,-366.274"/>
</g>
<!-- Node26 -->
<g id="node26" class="node"><title>Node26</title>
<g id="a_node26"><a xlink:href="classMWWorld_1_1Class.html#a22ea0538e88de008fb366606c30f8117" target="_top" xlink:title="MWWorld::Class::getWeight">
<polygon fill="white" stroke="black" points="233.5,-301.5 233.5,-320.5 376.5,-320.5 376.5,-301.5 233.5,-301.5"/>
<text text-anchor="middle" x="305" y="-308.5" font-family="FreeSans" font-size="10.00">MWWorld::Class::getWeight</text>
</a>
</g>
</g>
<!-- Node1&#45;&gt;Node26 -->
<g id="edge25" class="edge"><title>Node1&#45;&gt;Node26</title>
<path fill="none" stroke="midnightblue" d="M93.2486,-628.703C98.2747,-577.638 121.679,-411.677 218,-330 219.99,-328.313 222.097,-326.766 224.296,-325.348"/>
<polygon fill="midnightblue" stroke="midnightblue" points="226.082,-328.361 233.184,-320.498 222.729,-322.216 226.082,-328.361"/>
</g>
<!-- Node27 -->
<g id="node27" class="node"><title>Node27</title>
<g id="a_node27"><a xlink:href="classMWWorld_1_1RefData.html#a32f3f82fc97a20fd3a776751f43ca131" target="_top" xlink:title="MWWorld::RefData::getPosition">
<polygon fill="white" stroke="black" points="224.5,-263.5 224.5,-282.5 385.5,-282.5 385.5,-263.5 224.5,-263.5"/>
<text text-anchor="middle" x="305" y="-270.5" font-family="FreeSans" font-size="10.00">MWWorld::RefData::getPosition</text>
</a>
</g>
</g>
<!-- Node1&#45;&gt;Node27 -->
<g id="edge26" class="edge"><title>Node1&#45;&gt;Node27</title>
<path fill="none" stroke="midnightblue" d="M92.5048,-628.843C95.1877,-574.157 112.073,-385.327 218,-292 219.771,-290.44 221.641,-288.998 223.592,-287.667"/>
<polygon fill="midnightblue" stroke="midnightblue" points="225.663,-290.515 232.607,-282.512 222.188,-284.438 225.663,-290.515"/>
</g>
<!-- Node28 -->
<g id="node28" class="node"><title>Node28</title>
<g id="a_node28"><a xlink:href="structESM_1_1Position.html#a71dbd95e261f1976f60cbe456d450948" target="_top" xlink:title="ESM::Position::asVec3">
<polygon fill="white" stroke="black" points="244,-225.5 244,-244.5 366,-244.5 366,-225.5 244,-225.5"/>
<text text-anchor="middle" x="305" y="-232.5" font-family="FreeSans" font-size="10.00">ESM::Position::asVec3</text>
</a>
</g>
</g>
<!-- Node1&#45;&gt;Node28 -->
<g id="edge27" class="edge"><title>Node1&#45;&gt;Node28</title>
<path fill="none" stroke="midnightblue" d="M91.9063,-628.884C92.4154,-570.678 102.439,-359.067 218,-254 222.752,-249.68 228.259,-246.266 234.146,-243.577"/>
<polygon fill="midnightblue" stroke="midnightblue" points="235.577,-246.776 243.656,-239.922 233.066,-240.242 235.577,-246.776"/>
</g>
<!-- Node29 -->
<g id="node29" class="node"><title>Node29</title>
<g id="a_node29"><a xlink:href="classMWMechanics_1_1CreatureStats.html#a4c54d8a712b5e278a0931b368b6bd0df" target="_top" xlink:title="MWMechanics::CreatureStats\l::getAttribute">
<polygon fill="white" stroke="black" points="226.5,-176 226.5,-206 383.5,-206 383.5,-176 226.5,-176"/>
<text text-anchor="start" x="234.5" y="-194" font-family="FreeSans" font-size="10.00">MWMechanics::CreatureStats</text>
<text text-anchor="middle" x="305" y="-183" font-family="FreeSans" font-size="10.00">::getAttribute</text>
</a>
</g>
</g>
<!-- Node1&#45;&gt;Node29 -->
<g id="edge28" class="edge"><title>Node1&#45;&gt;Node29</title>
<path fill="none" stroke="midnightblue" d="M91.6223,-628.963C90.9434,-568.011 96.7492,-336.839 218,-216 219.445,-214.559 220.969,-213.201 222.558,-211.92"/>
<polygon fill="midnightblue" stroke="midnightblue" points="224.728,-214.676 231.001,-206.137 220.773,-208.9 224.728,-214.676"/>
</g>
<!-- Node30 -->
<g id="node30" class="node"><title>Node30</title>
<g id="a_node30"><a xlink:href="classMWMechanics_1_1AttributeValue.html#a3e84af12530d0e2cf3a45b25fa9b4fc8" target="_top" xlink:title="MWMechanics::AttributeValue\l::getModified">
<polygon fill="white" stroke="black" points="226,-127 226,-157 384,-157 384,-127 226,-127"/>
<text text-anchor="start" x="234" y="-145" font-family="FreeSans" font-size="10.00">MWMechanics::AttributeValue</text>
<text text-anchor="middle" x="305" y="-134" font-family="FreeSans" font-size="10.00">::getModified</text>
</a>
</g>
</g>
<!-- Node1&#45;&gt;Node30 -->
<g id="edge29" class="edge"><title>Node1&#45;&gt;Node30</title>
<path fill="none" stroke="midnightblue" d="M93.9808,-628.691C103.845,-554.72 149.922,-235.066 218,-166 218.949,-165.037 219.933,-164.113 220.948,-163.224"/>
<polygon fill="midnightblue" stroke="midnightblue" points="223.304,-165.837 229.295,-157.099 219.162,-160.193 223.304,-165.837"/>
</g>
<!-- Node31 -->
<g id="node31" class="node"><title>Node31</title>
<g id="a_node31"><a xlink:href="classMWWorld_1_1RefData.html#a4e86f0a869f982a5e4273b6d0a37a0c8" target="_top" xlink:title="Return base node (can be a null pointer). ">
<polygon fill="white" stroke="black" points="218.5,-88.5 218.5,-107.5 391.5,-107.5 391.5,-88.5 218.5,-88.5"/>
<text text-anchor="middle" x="305" y="-95.5" font-family="FreeSans" font-size="10.00">MWWorld::RefData::getBaseNode</text>
</a>
</g>
</g>
<!-- Node1&#45;&gt;Node31 -->
<g id="edge30" class="edge"><title>Node1&#45;&gt;Node31</title>
<path fill="none" stroke="midnightblue" d="M93.4734,-628.907C101.413,-550.68 141.601,-192.092 218,-117 219.312,-115.71 220.691,-114.5 222.127,-113.364"/>
<polygon fill="midnightblue" stroke="midnightblue" points="224.444,-116.032 230.916,-107.644 220.626,-110.165 224.444,-116.032"/>
</g>
<!-- Node32 -->
<g id="node32" class="node"><title>Node32</title>
<g id="a_node32"><a xlink:href="classSceneUtil_1_1PositionAttitudeTransform.html#a9508a5c3e9de03a48807e9b9f8445026" target="_top" xlink:title="SceneUtil::PositionAttitude\lTransform::getAttitude">
<polygon fill="white" stroke="black" points="233,-39 233,-69 377,-69 377,-39 233,-39"/>
<text text-anchor="start" x="241" y="-57" font-family="FreeSans" font-size="10.00">SceneUtil::PositionAttitude</text>
<text text-anchor="middle" x="305" y="-46" font-family="FreeSans" font-size="10.00">Transform::getAttitude</text>
</a>
</g>
</g>
<!-- Node1&#45;&gt;Node32 -->
<g id="edge31" class="edge"><title>Node1&#45;&gt;Node32</title>
<path fill="none" stroke="midnightblue" d="M93.3295,-628.74C100.735,-547.121 139.427,-162.727 218,-79 219.862,-77.0159 221.871,-75.1862 223.999,-73.4991"/>
<polygon fill="midnightblue" stroke="midnightblue" points="226.356,-76.1345 232.732,-67.6737 222.471,-70.3111 226.356,-76.1345"/>
</g>
<!-- Node33 -->
<g id="node33" class="node"><title>Node33</title>
<g id="a_node33"><a xlink:href="classMWMechanics_1_1CreatureStats.html#a50da4580fdbd7e4f6daec42d92811154" target="_top" xlink:title="Return effective fatigue. ">
<polygon fill="white" stroke="black" points="226.5,-930 226.5,-960 383.5,-960 383.5,-930 226.5,-930"/>
<text text-anchor="start" x="234.5" y="-948" font-family="FreeSans" font-size="10.00">MWMechanics::CreatureStats</text>
<text text-anchor="middle" x="305" y="-937" font-family="FreeSans" font-size="10.00">::getFatigueTerm</text>
</a>
</g>
</g>
<!-- Node1&#45;&gt;Node33 -->
<g id="edge32" class="edge"><title>Node1&#45;&gt;Node33</title>
<path fill="none" stroke="midnightblue" d="M94.7228,-659.044C103.712,-704.425 136.638,-841.362 218,-915 222.356,-918.943 227.26,-922.373 232.459,-925.356"/>
<polygon fill="midnightblue" stroke="midnightblue" points="230.951,-928.516 241.446,-929.967 234.147,-922.288 230.951,-928.516"/>
</g>
<!-- Node37 -->
<g id="node37" class="node"><title>Node37</title>
<g id="a_node37"><a xlink:href="classMisc_1_1Rng.html#aec419b288e293d8e9a64eccbc96713f1" target="_top" xlink:title="return value in range [0, 99] ">
<polygon fill="white" stroke="black" points="250,-0.5 250,-19.5 360,-19.5 360,-0.5 250,-0.5"/>
<text text-anchor="middle" x="305" y="-7.5" font-family="FreeSans" font-size="10.00">Misc::Rng::roll0to99</text>
</a>
</g>
</g>
<!-- Node1&#45;&gt;Node37 -->
<g id="edge42" class="edge"><title>Node1&#45;&gt;Node37</title>
<path fill="none" stroke="midnightblue" d="M92.9317,-628.741C98.4994,-542.638 130.152,-118.207 218,-29 224.092,-22.8138 231.712,-18.4371 239.883,-15.3715"/>
<polygon fill="midnightblue" stroke="midnightblue" points="241.15,-18.6434 249.67,-12.3452 239.082,-11.9558 241.15,-18.6434"/>
</g>
<!-- Node15 -->
<g id="node15" class="node"><title>Node15</title>
<g id="a_node15"><a xlink:href="classMWMechanics_1_1CreatureStats.html#a414af15352b5445923a2e9e50d8f8c5c" target="_top" xlink:title="MWMechanics::CreatureStats\l::getMovementFlag">
<polygon fill="white" stroke="black" points="428.5,-629 428.5,-659 585.5,-659 585.5,-629 428.5,-629"/>
<text text-anchor="start" x="436.5" y="-647" font-family="FreeSans" font-size="10.00">MWMechanics::CreatureStats</text>
<text text-anchor="middle" x="507" y="-636" font-family="FreeSans" font-size="10.00">::getMovementFlag</text>
</a>
</g>
</g>
<!-- Node14&#45;&gt;Node15 -->
<g id="edge14" class="edge"><title>Node14&#45;&gt;Node15</title>
<path fill="none" stroke="midnightblue" d="M383.611,-644C394.991,-644 406.779,-644 418.343,-644"/>
<polygon fill="midnightblue" stroke="midnightblue" points="418.432,-647.5 428.432,-644 418.432,-640.5 418.432,-647.5"/>
</g>
<!-- Node20 -->
<g id="node20" class="node"><title>Node20</title>
<g id="a_node20"><a xlink:href="classESM_1_1Variant.html#aea165a94a08dac002c27cdf5784fabc7" target="_top" xlink:title="Will throw an exception, if value can not be represented as a float value. ">
<polygon fill="white" stroke="black" points="622,-766.5 622,-785.5 744,-785.5 744,-766.5 622,-766.5"/>
<text text-anchor="middle" x="683" y="-773.5" font-family="FreeSans" font-size="10.00">ESM::Variant::getFloat</text>
</a>
</g>
</g>
<!-- Node19&#45;&gt;Node20 -->
<g id="edge19" class="edge"><title>Node19&#45;&gt;Node20</title>
<path fill="none" stroke="midnightblue" d="M583.054,-776C592.578,-776 602.297,-776 611.742,-776"/>
<polygon fill="midnightblue" stroke="midnightblue" points="611.862,-779.5 621.862,-776 611.862,-772.5 611.862,-779.5"/>
</g>
<!-- Node33&#45;&gt;Node7 -->
<g id="edge36" class="edge"><title>Node33&#45;&gt;Node7</title>
<path fill="none" stroke="midnightblue" d="M319.037,-960.061C336.339,-980.27 367.548,-1017.5 392,-1051 409.226,-1074.6 404.241,-1089 428,-1106 431.295,-1108.36 434.844,-1110.44 438.547,-1112.27"/>
<polygon fill="midnightblue" stroke="midnightblue" points="437.443,-1115.61 448.012,-1116.35 440.212,-1109.18 437.443,-1115.61"/>
</g>
<!-- Node33&#45;&gt;Node8 -->
<g id="edge37" class="edge"><title>Node33&#45;&gt;Node8</title>
<path fill="none" stroke="midnightblue" d="M327.553,-960.024C345.617,-973.075 371.644,-992.981 392,-1013 410.015,-1030.72 407.112,-1042.78 428,-1057 430.909,-1058.98 433.985,-1060.81 437.169,-1062.5"/>
<polygon fill="midnightblue" stroke="midnightblue" points="435.843,-1065.75 446.373,-1066.91 438.867,-1059.44 435.843,-1065.75"/>
</g>
<!-- Node33&#45;&gt;Node9 -->
<g id="edge38" class="edge"><title>Node33&#45;&gt;Node9</title>
<path fill="none" stroke="midnightblue" d="M363.159,-960.062C373.24,-964.051 383.284,-968.977 392,-975 412.505,-989.17 406.914,-1004.71 428,-1018 432.073,-1020.57 436.461,-1022.81 441.007,-1024.76"/>
<polygon fill="midnightblue" stroke="midnightblue" points="439.916,-1028.09 450.507,-1028.37 442.407,-1021.54 439.916,-1028.09"/>
</g>
<!-- Node33&#45;&gt;Node10 -->
<g id="edge39" class="edge"><title>Node33&#45;&gt;Node10</title>
<path fill="none" stroke="midnightblue" d="M363.159,-929.938C373.24,-925.949 383.284,-921.023 392,-915 412.505,-900.83 406.914,-885.29 428,-872 432.073,-869.433 436.461,-867.195 441.007,-865.243"/>
<polygon fill="midnightblue" stroke="midnightblue" points="442.407,-868.455 450.507,-861.627 439.916,-861.913 442.407,-868.455"/>
</g>
<!-- Node33&#45;&gt;Node18 -->
<g id="edge40" class="edge"><title>Node33&#45;&gt;Node18</title>
<path fill="none" stroke="midnightblue" d="M327.553,-929.976C345.617,-916.925 371.644,-897.019 392,-877 410.015,-859.283 406.619,-846.464 428,-833 431.818,-830.595 435.918,-828.495 440.168,-826.661"/>
<polygon fill="midnightblue" stroke="midnightblue" points="441.553,-829.879 449.658,-823.055 439.067,-823.335 441.553,-829.879"/>
</g>
<!-- Node33&#45;&gt;Node19 -->
<g id="edge41" class="edge"><title>Node33&#45;&gt;Node19</title>
<path fill="none" stroke="midnightblue" d="M318.316,-929.825C349.206,-891.771 427.544,-795.288 428,-795 431.351,-792.883 434.92,-791.002 438.617,-789.33"/>
<polygon fill="midnightblue" stroke="midnightblue" points="440.02,-792.539 448.02,-785.592 437.434,-786.034 440.02,-792.539"/>
</g>
<!-- Node34 -->
<g id="node34" class="node"><title>Node34</title>
<g id="a_node34"><a xlink:href="classMWMechanics_1_1CreatureStats.html#ae962c8518e43e517e2aec4d89a5aafe2" target="_top" xlink:title="MWMechanics::CreatureStats\l::getFatigue">
<polygon fill="white" stroke="black" points="428.5,-979 428.5,-1009 585.5,-1009 585.5,-979 428.5,-979"/>
<text text-anchor="start" x="436.5" y="-997" font-family="FreeSans" font-size="10.00">MWMechanics::CreatureStats</text>
<text text-anchor="middle" x="507" y="-986" font-family="FreeSans" font-size="10.00">::getFatigue</text>
</a>
</g>
</g>
<!-- Node33&#45;&gt;Node34 -->
<g id="edge33" class="edge"><title>Node33&#45;&gt;Node34</title>
<path fill="none" stroke="midnightblue" d="M367.366,-960.035C388.675,-965.255 412.75,-971.154 434.786,-976.553"/>
<polygon fill="midnightblue" stroke="midnightblue" points="434.205,-980.014 444.75,-978.994 435.87,-973.215 434.205,-980.014"/>
</g>
<!-- Node35 -->
<g id="node35" class="node"><title>Node35</title>
<g id="a_node35"><a xlink:href="classMWMechanics_1_1DynamicStat.html#a5341e59c91e5cc6782ef8f8fa1177bda" target="_top" xlink:title="MWMechanics::DynamicStat\l::getModified">
<polygon fill="white" stroke="black" points="431,-930 431,-960 583,-960 583,-930 431,-930"/>
<text text-anchor="start" x="439" y="-948" font-family="FreeSans" font-size="10.00">MWMechanics::DynamicStat</text>
<text text-anchor="middle" x="507" y="-937" font-family="FreeSans" font-size="10.00">::getModified</text>
</a>
</g>
</g>
<!-- Node33&#45;&gt;Node35 -->
<g id="edge34" class="edge"><title>Node33&#45;&gt;Node35</title>
<path fill="none" stroke="midnightblue" d="M383.611,-945C395.707,-945 408.263,-945 420.521,-945"/>
<polygon fill="midnightblue" stroke="midnightblue" points="420.732,-948.5 430.732,-945 420.732,-941.5 420.732,-948.5"/>
</g>
<!-- Node36 -->
<g id="node36" class="node"><title>Node36</title>
<g id="a_node36"><a xlink:href="classMWMechanics_1_1DynamicStat.html#a396a1a67b23dde7489b7afa6bcdc2dee" target="_top" xlink:title="MWMechanics::DynamicStat\l::getCurrent">
<polygon fill="white" stroke="black" points="431,-881 431,-911 583,-911 583,-881 431,-881"/>
<text text-anchor="start" x="439" y="-899" font-family="FreeSans" font-size="10.00">MWMechanics::DynamicStat</text>
<text text-anchor="middle" x="507" y="-888" font-family="FreeSans" font-size="10.00">::getCurrent</text>
</a>
</g>
</g>
<!-- Node33&#45;&gt;Node36 -->
<g id="edge35" class="edge"><title>Node33&#45;&gt;Node36</title>
<path fill="none" stroke="midnightblue" d="M367.366,-929.965C388.675,-924.745 412.75,-918.846 434.786,-913.447"/>
<polygon fill="midnightblue" stroke="midnightblue" points="435.87,-916.785 444.75,-911.006 434.205,-909.986 435.87,-916.785"/>
</g>
<!-- Node38 -->
<g id="node38" class="node"><title>Node38</title>
<g id="a_node38"><a xlink:href="classMisc_1_1Rng.html#aea7920431866f89996a152900e5d4208" target="_top" xlink:title="return value in range [0, max) &lt;&#45; note open upper range. ">
<polygon fill="white" stroke="black" points="455.5,-0.5 455.5,-19.5 558.5,-19.5 558.5,-0.5 455.5,-0.5"/>
<text text-anchor="middle" x="507" y="-7.5" font-family="FreeSans" font-size="10.00">Misc::Rng::rollDice</text>
</a>
</g>
</g>
<!-- Node37&#45;&gt;Node38 -->
<g id="edge43" class="edge"><title>Node37&#45;&gt;Node38</title>
<path fill="none" stroke="midnightblue" d="M360.123,-10C386.383,-10 418.033,-10 445.131,-10"/>
<polygon fill="midnightblue" stroke="midnightblue" points="445.273,-13.5001 455.273,-10 445.273,-6.5001 445.273,-13.5001"/>
</g>
</g>
</svg>
