<?xml version="1.0" encoding="UTF-8" standalone="no"?>
<!DOCTYPE svg PUBLIC "-//W3C//DTD SVG 1.1//EN"
 "http://www.w3.org/Graphics/SVG/1.1/DTD/svg11.dtd">
<!-- Generated by graphviz version 2.36.0 (20140111.2315)
 -->
<!-- Title: MWRender::LocalMap::removeCell Pages: 1 -->
<svg width="452pt" height="252pt"
 viewBox="0.00 0.00 452.00 252.00" xmlns="http://www.w3.org/2000/svg" xmlns:xlink="http://www.w3.org/1999/xlink">
<g id="graph0" class="graph" transform="scale(1 1) rotate(0) translate(4 248)">
<title>MWRender::LocalMap::removeCell</title>
<polygon fill="white" stroke="none" points="-4,4 -4,-248 448,-248 448,4 -4,4"/>
<!-- Node1 -->
<g id="node1" class="node"><title>Node1</title>
<polygon fill="#bfbfbf" stroke="black" points="0.5,-126 0.5,-156 111.5,-156 111.5,-126 0.5,-126"/>
<text text-anchor="start" x="8.5" y="-144" font-family="FreeSans" font-size="10.00">MWRender::LocalMap</text>
<text text-anchor="middle" x="56" y="-133" font-family="FreeSans" font-size="10.00">::removeCell</text>
</g>
<!-- Node2 -->
<g id="node2" class="node"><title>Node2</title>
<g id="a_node2"><a xlink:href="classMWRender_1_1LocalMap.html#a032450e8dcf30264e318fa5088bc5227" target="_top" xlink:title="MWRender::LocalMap\l::saveFogOfWar">
<polygon fill="white" stroke="black" points="148.5,-126 148.5,-156 259.5,-156 259.5,-126 148.5,-126"/>
<text text-anchor="start" x="156.5" y="-144" font-family="FreeSans" font-size="10.00">MWRender::LocalMap</text>
<text text-anchor="middle" x="204" y="-133" font-family="FreeSans" font-size="10.00">::saveFogOfWar</text>
</a>
</g>
</g>
<!-- Node1&#45;&gt;Node2 -->
<g id="edge1" class="edge"><title>Node1&#45;&gt;Node2</title>
<path fill="none" stroke="midnightblue" d="M111.78,-141C120.388,-141 129.356,-141 138.164,-141"/>
<polygon fill="midnightblue" stroke="midnightblue" points="138.398,-144.5 148.398,-141 138.398,-137.5 138.398,-144.5"/>
</g>
<!-- Node3 -->
<g id="node3" class="node"><title>Node3</title>
<g id="a_node3"><a xlink:href="classMWWorld_1_1CellStore.html#a6b204d54fa4c8dc58ead29c86e2362ba" target="_top" xlink:title="MWWorld::CellStore\l::getCell">
<polygon fill="white" stroke="black" points="318.5,-214 318.5,-244 421.5,-244 421.5,-214 318.5,-214"/>
<text text-anchor="start" x="326.5" y="-232" font-family="FreeSans" font-size="10.00">MWWorld::CellStore</text>
<text text-anchor="middle" x="370" y="-221" font-family="FreeSans" font-size="10.00">::getCell</text>
</a>
</g>
</g>
<!-- Node1&#45;&gt;Node3 -->
<g id="edge9" class="edge"><title>Node1&#45;&gt;Node3</title>
<path fill="none" stroke="midnightblue" d="M82.8797,-156.122C100.67,-165.929 125.124,-178.274 148,-186 200.848,-203.849 263.452,-215.16 308.512,-221.676"/>
<polygon fill="midnightblue" stroke="midnightblue" points="308.032,-225.143 318.423,-223.073 309.009,-218.212 308.032,-225.143"/>
</g>
<!-- Node4 -->
<g id="node4" class="node"><title>Node4</title>
<g id="a_node4"><a xlink:href="structESM_1_1Cell.html#a88979089a417025271e74645ca70b0a6" target="_top" xlink:title="ESM::Cell::getGridX">
<polygon fill="white" stroke="black" points="319.5,-175.5 319.5,-194.5 420.5,-194.5 420.5,-175.5 319.5,-175.5"/>
<text text-anchor="middle" x="370" y="-182.5" font-family="FreeSans" font-size="10.00">ESM::Cell::getGridX</text>
</a>
</g>
</g>
<!-- Node1&#45;&gt;Node4 -->
<g id="edge10" class="edge"><title>Node1&#45;&gt;Node4</title>
<path fill="none" stroke="midnightblue" d="M108.161,-156.099C121.069,-159.464 134.966,-162.708 148,-165 202.033,-174.501 264.339,-179.621 308.993,-182.293"/>
<polygon fill="midnightblue" stroke="midnightblue" points="308.91,-185.794 319.095,-182.874 309.312,-178.806 308.91,-185.794"/>
</g>
<!-- Node5 -->
<g id="node5" class="node"><title>Node5</title>
<g id="a_node5"><a xlink:href="structESM_1_1Cell.html#a749c20ed60697b5a521c14eaf66164ec" target="_top" xlink:title="ESM::Cell::getGridY">
<polygon fill="white" stroke="black" points="319.5,-38.5 319.5,-57.5 420.5,-57.5 420.5,-38.5 319.5,-38.5"/>
<text text-anchor="middle" x="370" y="-45.5" font-family="FreeSans" font-size="10.00">ESM::Cell::getGridY</text>
</a>
</g>
</g>
<!-- Node1&#45;&gt;Node5 -->
<g id="edge11" class="edge"><title>Node1&#45;&gt;Node5</title>
<path fill="none" stroke="midnightblue" d="M103.524,-125.905C151.552,-110.485 228.742,-86.1544 296,-67 304.147,-64.6797 312.838,-62.3189 321.278,-60.0861"/>
<polygon fill="midnightblue" stroke="midnightblue" points="322.235,-63.4535 331.022,-57.5341 320.462,-56.6819 322.235,-63.4535"/>
</g>
<!-- Node8 -->
<g id="node8" class="node"><title>Node8</title>
<g id="a_node8"><a xlink:href="classMWWorld_1_1CellStore.html#a0cf5ba632c9f67dc25d28e4bebd8c8f5" target="_top" xlink:title="MWWorld::CellStore\l::isExterior">
<polygon fill="white" stroke="black" points="152.5,-6 152.5,-36 255.5,-36 255.5,-6 152.5,-6"/>
<text text-anchor="start" x="160.5" y="-24" font-family="FreeSans" font-size="10.00">MWWorld::CellStore</text>
<text text-anchor="middle" x="204" y="-13" font-family="FreeSans" font-size="10.00">::isExterior</text>
</a>
</g>
</g>
<!-- Node1&#45;&gt;Node8 -->
<g id="edge7" class="edge"><title>Node1&#45;&gt;Node8</title>
<path fill="none" stroke="midnightblue" d="M75.491,-125.802C101.161,-104.703 147.725,-66.4318 176.918,-42.4376"/>
<polygon fill="midnightblue" stroke="midnightblue" points="179.156,-45.1283 184.659,-36.0747 174.711,-39.7205 179.156,-45.1283"/>
</g>
<!-- Node2&#45;&gt;Node3 -->
<g id="edge2" class="edge"><title>Node2&#45;&gt;Node3</title>
<path fill="none" stroke="midnightblue" d="M223.561,-156.142C241.305,-170.047 269.244,-190.485 296,-204 300.331,-206.188 304.897,-208.257 309.546,-210.197"/>
<polygon fill="midnightblue" stroke="midnightblue" points="308.569,-213.574 319.155,-213.995 311.142,-207.064 308.569,-213.574"/>
</g>
<!-- Node2&#45;&gt;Node4 -->
<g id="edge3" class="edge"><title>Node2&#45;&gt;Node4</title>
<path fill="none" stroke="midnightblue" d="M259.61,-155.651C280.335,-161.212 303.697,-167.48 323.494,-172.791"/>
<polygon fill="midnightblue" stroke="midnightblue" points="322.628,-176.182 333.193,-175.393 324.442,-169.421 322.628,-176.182"/>
</g>
<!-- Node2&#45;&gt;Node5 -->
<g id="edge4" class="edge"><title>Node2&#45;&gt;Node5</title>
<path fill="none" stroke="midnightblue" d="M226.277,-125.913C236.641,-118.37 249.173,-108.959 260,-100 276.722,-86.1627 276.934,-77.3733 296,-67 300.303,-64.6588 304.907,-62.5962 309.632,-60.7806"/>
<polygon fill="midnightblue" stroke="midnightblue" points="311.135,-63.9644 319.444,-57.391 308.85,-57.3481 311.135,-63.9644"/>
</g>
<!-- Node6 -->
<g id="node6" class="node"><title>Node6</title>
<g id="a_node6"><a xlink:href="structMWRender_1_1LocalMap_1_1MapSegment.html#abc5ca9c460610cb0e9fa65b46fb3694d" target="_top" xlink:title="MWRender::LocalMap\l::MapSegment::saveFogOfWar">
<polygon fill="white" stroke="black" points="296.5,-126 296.5,-156 443.5,-156 443.5,-126 296.5,-126"/>
<text text-anchor="start" x="304.5" y="-144" font-family="FreeSans" font-size="10.00">MWRender::LocalMap</text>
<text text-anchor="middle" x="370" y="-133" font-family="FreeSans" font-size="10.00">::MapSegment::saveFogOfWar</text>
</a>
</g>
</g>
<!-- Node2&#45;&gt;Node6 -->
<g id="edge5" class="edge"><title>Node2&#45;&gt;Node6</title>
<path fill="none" stroke="midnightblue" d="M259.61,-141C268.14,-141 277.117,-141 286.108,-141"/>
<polygon fill="midnightblue" stroke="midnightblue" points="286.243,-144.5 296.243,-141 286.243,-137.5 286.243,-144.5"/>
</g>
<!-- Node7 -->
<g id="node7" class="node"><title>Node7</title>
<g id="a_node7"><a xlink:href="classMWWorld_1_1CellStore.html#a30305a8e981a58f6b7819904e0fcc919" target="_top" xlink:title="MWWorld::CellStore\l::setFog">
<polygon fill="white" stroke="black" points="318.5,-77 318.5,-107 421.5,-107 421.5,-77 318.5,-77"/>
<text text-anchor="start" x="326.5" y="-95" font-family="FreeSans" font-size="10.00">MWWorld::CellStore</text>
<text text-anchor="middle" x="370" y="-84" font-family="FreeSans" font-size="10.00">::setFog</text>
</a>
</g>
</g>
<!-- Node2&#45;&gt;Node7 -->
<g id="edge6" class="edge"><title>Node2&#45;&gt;Node7</title>
<path fill="none" stroke="midnightblue" d="M255.544,-125.899C272.458,-120.845 291.477,-115.162 309.039,-109.915"/>
<polygon fill="midnightblue" stroke="midnightblue" points="310.044,-113.268 318.623,-107.052 308.04,-106.561 310.044,-113.268"/>
</g>
<!-- Node9 -->
<g id="node9" class="node"><title>Node9</title>
<g id="a_node9"><a xlink:href="structESM_1_1Cell.html#a81fbb05c7c9f739f7d81504aabf7bb6b" target="_top" xlink:title="ESM::Cell::isExterior">
<polygon fill="white" stroke="black" points="319,-0.5 319,-19.5 421,-19.5 421,-0.5 319,-0.5"/>
<text text-anchor="middle" x="370" y="-7.5" font-family="FreeSans" font-size="10.00">ESM::Cell::isExterior</text>
</a>
</g>
</g>
<!-- Node8&#45;&gt;Node9 -->
<g id="edge8" class="edge"><title>Node8&#45;&gt;Node9</title>
<path fill="none" stroke="midnightblue" d="M255.544,-17.6099C272.38,-16.4806 291.302,-15.2115 308.796,-14.0381"/>
<polygon fill="midnightblue" stroke="midnightblue" points="309.162,-17.5215 318.905,-13.36 308.693,-10.5372 309.162,-17.5215"/>
</g>
</g>
</svg>
