<?xml version="1.0" encoding="UTF-8" standalone="no"?>
<!DOCTYPE svg PUBLIC "-//W3C//DTD SVG 1.1//EN"
 "http://www.w3.org/Graphics/SVG/1.1/DTD/svg11.dtd">
<!-- Generated by graphviz version 2.36.0 (20140111.2315)
 -->
<!-- Title: Compiler::Parser::parseInt Pages: 1 -->
<svg width="802pt" height="88pt"
 viewBox="0.00 0.00 802.00 88.00" xmlns="http://www.w3.org/2000/svg" xmlns:xlink="http://www.w3.org/1999/xlink">
<g id="graph0" class="graph" transform="scale(1 1) rotate(0) translate(4 84)">
<title>Compiler::Parser::parseInt</title>
<polygon fill="white" stroke="none" points="-4,4 -4,-84 798,-84 798,4 -4,4"/>
<!-- Node1 -->
<g id="node1" class="node"><title>Node1</title>
<polygon fill="#bfbfbf" stroke="black" points="0,-30.5 0,-49.5 140,-49.5 140,-30.5 0,-30.5"/>
<text text-anchor="middle" x="70" y="-37.5" font-family="FreeSans" font-size="10.00">Compiler::Parser::parseInt</text>
</g>
<!-- Node2 -->
<g id="node2" class="node"><title>Node2</title>
<g id="a_node2"><a xlink:href="classCompiler_1_1Parser.html#adb01de7ed3ea7712ce40c48d2a3fa9b8" target="_top" xlink:title="Report the error and throw a exception. ">
<polygon fill="white" stroke="black" points="176.5,-50 176.5,-80 307.5,-80 307.5,-50 176.5,-50"/>
<text text-anchor="start" x="184.5" y="-68" font-family="FreeSans" font-size="10.00">Compiler::Parser::report</text>
<text text-anchor="middle" x="242" y="-57" font-family="FreeSans" font-size="10.00">SeriousError</text>
</a>
</g>
</g>
<!-- Node1&#45;&gt;Node2 -->
<g id="edge1" class="edge"><title>Node1&#45;&gt;Node2</title>
<path fill="none" stroke="midnightblue" d="M135.755,-49.5227C145.748,-50.9923 156.137,-52.5202 166.326,-54.0185"/>
<polygon fill="midnightblue" stroke="midnightblue" points="166.023,-57.5115 176.425,-55.5037 167.041,-50.5859 166.023,-57.5115"/>
</g>
<!-- Node6 -->
<g id="node6" class="node"><title>Node6</title>
<g id="a_node6"><a xlink:href="classCompiler_1_1Scanner.html#ab03716288c02c46e31b762b8fc615c74" target="_top" xlink:title="put back an integer token ">
<polygon fill="white" stroke="black" points="186.5,-1 186.5,-31 297.5,-31 297.5,-1 186.5,-1"/>
<text text-anchor="start" x="194.5" y="-19" font-family="FreeSans" font-size="10.00">Compiler::Scanner::</text>
<text text-anchor="middle" x="242" y="-8" font-family="FreeSans" font-size="10.00">putbackInt</text>
</a>
</g>
</g>
<!-- Node1&#45;&gt;Node6 -->
<g id="edge7" class="edge"><title>Node1&#45;&gt;Node6</title>
<path fill="none" stroke="midnightblue" d="M138.677,-30.4456C151.047,-28.6993 163.928,-26.8808 176.211,-25.1467"/>
<polygon fill="midnightblue" stroke="midnightblue" points="176.951,-28.5769 186.364,-23.7133 175.973,-21.6457 176.951,-28.5769"/>
</g>
<!-- Node3 -->
<g id="node3" class="node"><title>Node3</title>
<g id="a_node3"><a xlink:href="classCompiler_1_1ErrorHandler.html#ae9df94e7ebfba1abd1f4744de29c4466" target="_top" xlink:title="Generate an error message. ">
<polygon fill="white" stroke="black" points="344,-50 344,-80 470,-80 470,-50 344,-50"/>
<text text-anchor="start" x="352" y="-68" font-family="FreeSans" font-size="10.00">Compiler::ErrorHandler</text>
<text text-anchor="middle" x="407" y="-57" font-family="FreeSans" font-size="10.00">::error</text>
</a>
</g>
</g>
<!-- Node2&#45;&gt;Node3 -->
<g id="edge2" class="edge"><title>Node2&#45;&gt;Node3</title>
<path fill="none" stroke="midnightblue" d="M307.89,-65C316.441,-65 325.246,-65 333.908,-65"/>
<polygon fill="midnightblue" stroke="midnightblue" points="333.986,-68.5001 343.986,-65 333.986,-61.5001 333.986,-68.5001"/>
</g>
<!-- Node4 -->
<g id="node4" class="node"><title>Node4</title>
<g id="a_node4"><a xlink:href="classCompiler_1_1ErrorHandler.html#a8e0dfa362392d5b038467fd9c5634ca9" target="_top" xlink:title="Generate a warning message. ">
<polygon fill="white" stroke="black" points="506,-50 506,-80 632,-80 632,-50 506,-50"/>
<text text-anchor="start" x="514" y="-68" font-family="FreeSans" font-size="10.00">Compiler::ErrorHandler</text>
<text text-anchor="middle" x="569" y="-57" font-family="FreeSans" font-size="10.00">::warning</text>
</a>
</g>
</g>
<!-- Node3&#45;&gt;Node4 -->
<g id="edge3" class="edge"><title>Node3&#45;&gt;Node4</title>
<path fill="none" stroke="midnightblue" d="M470.318,-58.3987C478.615,-58.2571 487.179,-58.2166 495.628,-58.2773"/>
<polygon fill="midnightblue" stroke="midnightblue" points="495.81,-61.7797 505.852,-58.4016 495.895,-54.7802 495.81,-61.7797"/>
</g>
<!-- Node5 -->
<g id="node5" class="node"><title>Node5</title>
<g id="a_node5"><a xlink:href="classCompiler_1_1ErrorHandler.html#ac53ce58d40afab69709d78ce5192306f" target="_top" xlink:title="Report error to the user. ">
<polygon fill="white" stroke="black" points="668,-28 668,-58 794,-58 794,-28 668,-28"/>
<text text-anchor="start" x="676" y="-46" font-family="FreeSans" font-size="10.00">Compiler::ErrorHandler</text>
<text text-anchor="middle" x="731" y="-35" font-family="FreeSans" font-size="10.00">::report</text>
</a>
</g>
</g>
<!-- Node3&#45;&gt;Node5 -->
<g id="edge6" class="edge"><title>Node3&#45;&gt;Node5</title>
<path fill="none" stroke="midnightblue" d="M459.449,-49.9439C474.334,-46.2596 490.696,-42.8466 506,-41 556.506,-34.9056 613.884,-35.5616 657.923,-37.6606"/>
<polygon fill="midnightblue" stroke="midnightblue" points="657.796,-41.1586 667.962,-38.1749 658.154,-34.1678 657.796,-41.1586"/>
</g>
<!-- Node4&#45;&gt;Node3 -->
<g id="edge5" class="edge"><title>Node4&#45;&gt;Node3</title>
<path fill="none" stroke="midnightblue" d="M505.852,-71.5984C497.559,-71.7414 488.996,-71.7832 480.545,-71.7239"/>
<polygon fill="midnightblue" stroke="midnightblue" points="480.36,-68.2215 470.318,-71.6013 480.276,-75.221 480.36,-68.2215"/>
</g>
<!-- Node4&#45;&gt;Node5 -->
<g id="edge4" class="edge"><title>Node4&#45;&gt;Node5</title>
<path fill="none" stroke="midnightblue" d="M632.318,-56.4312C640.706,-55.2779 649.367,-54.087 657.907,-52.9129"/>
<polygon fill="midnightblue" stroke="midnightblue" points="658.422,-56.375 667.852,-51.5454 657.468,-49.4403 658.422,-56.375"/>
</g>
</g>
</svg>
