<?xml version="1.0" encoding="UTF-8" standalone="no"?>
<!DOCTYPE svg PUBLIC "-//W3C//DTD SVG 1.1//EN"
 "http://www.w3.org/Graphics/SVG/1.1/DTD/svg11.dtd">
<!-- Generated by graphviz version 2.36.0 (20140111.2315)
 -->
<!-- Title: MWWorld::LocalScripts::add Pages: 1 -->
<svg width="1166pt" height="1103pt"
 viewBox="0.00 0.00 1166.00 1103.00" xmlns="http://www.w3.org/2000/svg" xmlns:xlink="http://www.w3.org/1999/xlink">
<g id="graph0" class="graph" transform="scale(1 1) rotate(0) translate(4 1099)">
<title>MWWorld::LocalScripts::add</title>
<polygon fill="white" stroke="none" points="-4,4 -4,-1099 1162,-1099 1162,4 -4,4"/>
<!-- Node1 -->
<g id="node1" class="node"><title>Node1</title>
<polygon fill="#bfbfbf" stroke="black" points="0,-229.5 0,-248.5 146,-248.5 146,-229.5 0,-229.5"/>
<text text-anchor="middle" x="73" y="-236.5" font-family="FreeSans" font-size="10.00">MWWorld::LocalScripts::add</text>
</g>
<!-- Node2 -->
<g id="node2" class="node"><title>Node2</title>
<g id="a_node2"><a xlink:href="classMWWorld_1_1ContainerStore.html#a259c3dfaca12cbed639039e856c0315b" target="_top" xlink:title="MWWorld::ContainerStore\l::unstack">
<polygon fill="white" stroke="black" points="194.5,-991 194.5,-1021 331.5,-1021 331.5,-991 194.5,-991"/>
<text text-anchor="start" x="202.5" y="-1009" font-family="FreeSans" font-size="10.00">MWWorld::ContainerStore</text>
<text text-anchor="middle" x="263" y="-998" font-family="FreeSans" font-size="10.00">::unstack</text>
</a>
</g>
</g>
<!-- Node1&#45;&gt;Node2 -->
<g id="edge1" class="edge"><title>Node1&#45;&gt;Node2</title>
<path fill="none" stroke="midnightblue" d="M78.8114,-258.629C105.453,-367.322 234.542,-893.979 258.254,-990.717"/>
<polygon fill="midnightblue" stroke="midnightblue" points="82.1571,-257.577 76.377,-248.698 75.3584,-259.243 82.1571,-257.577"/>
</g>
<!-- Node8 -->
<g id="node8" class="node"><title>Node8</title>
<g id="a_node8"><a xlink:href="classMWWorld_1_1ContainerStore.html#aef17774531fe45f818b105edafecb7ae" target="_top" xlink:title="MWWorld::ContainerStore::add">
<polygon fill="white" stroke="black" points="182.5,-633.5 182.5,-652.5 343.5,-652.5 343.5,-633.5 182.5,-633.5"/>
<text text-anchor="middle" x="263" y="-640.5" font-family="FreeSans" font-size="10.00">MWWorld::ContainerStore::add</text>
</a>
</g>
</g>
<!-- Node1&#45;&gt;Node8 -->
<g id="edge7" class="edge"><title>Node1&#45;&gt;Node8</title>
<path fill="none" stroke="midnightblue" d="M82.7113,-257.72C115.794,-328.812 233.012,-580.706 257.497,-633.322"/>
<polygon fill="midnightblue" stroke="midnightblue" points="85.8541,-256.178 78.4618,-248.588 79.5076,-259.131 85.8541,-256.178"/>
</g>
<!-- Node37 -->
<g id="node37" class="node"><title>Node37</title>
<g id="a_node37"><a xlink:href="classMWWorld_1_1World.html#aa1255acbee4fdd40adb1643fd967ee16" target="_top" xlink:title="MWWorld::World::addContainer\lScripts">
<polygon fill="white" stroke="black" points="182.5,-171 182.5,-201 343.5,-201 343.5,-171 182.5,-171"/>
<text text-anchor="start" x="190.5" y="-189" font-family="FreeSans" font-size="10.00">MWWorld::World::addContainer</text>
<text text-anchor="middle" x="263" y="-178" font-family="FreeSans" font-size="10.00">Scripts</text>
</a>
</g>
</g>
<!-- Node1&#45;&gt;Node37 -->
<g id="edge42" class="edge"><title>Node1&#45;&gt;Node37</title>
<path fill="none" stroke="midnightblue" d="M118.016,-226.591C145.105,-218.955 180.003,-209.116 208.658,-201.038"/>
<polygon fill="midnightblue" stroke="midnightblue" points="116.721,-223.32 108.045,-229.402 118.62,-230.057 116.721,-223.32"/>
</g>
<!-- Node41 -->
<g id="node41" class="node"><title>Node41</title>
<g id="a_node41"><a xlink:href="classMWWorld_1_1World.html#a221eecd70b79f8eeff7c0a7364525076" target="_top" xlink:title="MWWorld::World::moveObject">
<polygon fill="white" stroke="black" points="607,-245.5 607,-264.5 761,-264.5 761,-245.5 607,-245.5"/>
<text text-anchor="middle" x="684" y="-252.5" font-family="FreeSans" font-size="10.00">MWWorld::World::moveObject</text>
</a>
</g>
</g>
<!-- Node1&#45;&gt;Node41 -->
<g id="edge58" class="edge"><title>Node1&#45;&gt;Node41</title>
<path fill="none" stroke="midnightblue" d="M156.31,-246.184C217.864,-251.183 304.13,-257.4 380,-260 460.841,-262.771 481.128,-261.67 562,-260 576.504,-259.7 591.98,-259.199 606.85,-258.627"/>
<polygon fill="midnightblue" stroke="midnightblue" points="156.518,-242.689 146.266,-245.361 155.946,-249.666 156.518,-242.689"/>
</g>
<!-- Node43 -->
<g id="node43" class="node"><title>Node43</title>
<g id="a_node43"><a xlink:href="classMWWorld_1_1World.html#a183a373752aebf4f33c931978c51d65d" target="_top" xlink:title="MWWorld::World::undelete\lObject">
<polygon fill="white" stroke="black" points="402,-98 402,-128 540,-128 540,-98 402,-98"/>
<text text-anchor="start" x="410" y="-116" font-family="FreeSans" font-size="10.00">MWWorld::World::undelete</text>
<text text-anchor="middle" x="471" y="-105" font-family="FreeSans" font-size="10.00">Object</text>
</a>
</g>
</g>
<!-- Node1&#45;&gt;Node43 -->
<g id="edge57" class="edge"><title>Node1&#45;&gt;Node43</title>
<path fill="none" stroke="midnightblue" d="M91.1618,-222.664C111.258,-204.533 146.356,-175.874 182,-161 253.34,-131.231 341.885,-119.896 401.822,-115.596"/>
<polygon fill="midnightblue" stroke="midnightblue" points="88.7304,-220.145 83.7472,-229.494 93.4733,-225.293 88.7304,-220.145"/>
</g>
<!-- Node44 -->
<g id="node44" class="node"><title>Node44</title>
<g id="a_node44"><a xlink:href="classMWWorld_1_1World.html#a98389839846b32c3a135eceba99aed17" target="_top" xlink:title="MWWorld::World::copyObject\lToCell">
<polygon fill="white" stroke="black" points="396.5,-49 396.5,-79 545.5,-79 545.5,-49 396.5,-49"/>
<text text-anchor="start" x="404.5" y="-67" font-family="FreeSans" font-size="10.00">MWWorld::World::copyObject</text>
<text text-anchor="middle" x="471" y="-56" font-family="FreeSans" font-size="10.00">ToCell</text>
</a>
</g>
</g>
<!-- Node1&#45;&gt;Node44 -->
<g id="edge59" class="edge"><title>Node1&#45;&gt;Node44</title>
<path fill="none" stroke="midnightblue" d="M84.7823,-220.643C101.772,-193.489 137.469,-143.127 182,-118 248.236,-80.6257 335.329,-68.4874 396.33,-64.8563"/>
<polygon fill="midnightblue" stroke="midnightblue" points="81.7828,-218.839 79.5693,-229.201 87.7609,-222.481 81.7828,-218.839"/>
</g>
<!-- Node3 -->
<g id="node3" class="node"><title>Node3</title>
<g id="a_node3"><a xlink:href="classMWMechanics_1_1Repair.html#a4456a1ec25b2bbede4c06df2dbfeacf5" target="_top" xlink:title="MWMechanics::Repair\l::repair">
<polygon fill="white" stroke="black" points="411.5,-1016 411.5,-1046 530.5,-1046 530.5,-1016 411.5,-1016"/>
<text text-anchor="start" x="419.5" y="-1034" font-family="FreeSans" font-size="10.00">MWMechanics::Repair</text>
<text text-anchor="middle" x="471" y="-1023" font-family="FreeSans" font-size="10.00">::repair</text>
</a>
</g>
</g>
<!-- Node2&#45;&gt;Node3 -->
<g id="edge2" class="edge"><title>Node2&#45;&gt;Node3</title>
<path fill="none" stroke="midnightblue" d="M341.819,-1015.44C364.828,-1018.24 389.623,-1021.25 411.217,-1023.87"/>
<polygon fill="midnightblue" stroke="midnightblue" points="342.086,-1011.95 331.737,-1014.22 341.243,-1018.9 342.086,-1011.95"/>
</g>
<!-- Node6 -->
<g id="node6" class="node"><title>Node6</title>
<g id="a_node6"><a xlink:href="classMWMechanics_1_1SoulTrap.html#a7e3102e6d9921f16757c4911c81213bc" target="_top" xlink:title="MWMechanics::SoulTrap\l::visit">
<polygon fill="white" stroke="black" points="406,-1065 406,-1095 536,-1095 536,-1065 406,-1065"/>
<text text-anchor="start" x="414" y="-1083" font-family="FreeSans" font-size="10.00">MWMechanics::SoulTrap</text>
<text text-anchor="middle" x="471" y="-1072" font-family="FreeSans" font-size="10.00">::visit</text>
</a>
</g>
</g>
<!-- Node2&#45;&gt;Node6 -->
<g id="edge5" class="edge"><title>Node2&#45;&gt;Node6</title>
<path fill="none" stroke="midnightblue" d="M305.869,-1025.23C327.702,-1034.86 355.003,-1046.29 380,-1055 390.107,-1058.52 400.984,-1061.89 411.564,-1064.95"/>
<polygon fill="midnightblue" stroke="midnightblue" points="307.119,-1021.95 296.56,-1021.08 304.273,-1028.35 307.119,-1021.95"/>
</g>
<!-- Node7 -->
<g id="node7" class="node"><title>Node7</title>
<g id="a_node7"><a xlink:href="classMWScript_1_1Misc_1_1OpAddSoulGem.html#a8978508f67b00df0e4e82543d688b4a5" target="_top" xlink:title="MWScript::Misc::OpAddSoul\lGem::execute">
<polygon fill="white" stroke="black" points="397.5,-967 397.5,-997 544.5,-997 544.5,-967 397.5,-967"/>
<text text-anchor="start" x="405.5" y="-985" font-family="FreeSans" font-size="10.00">MWScript::Misc::OpAddSoul</text>
<text text-anchor="middle" x="471" y="-974" font-family="FreeSans" font-size="10.00">Gem::execute</text>
</a>
</g>
</g>
<!-- Node2&#45;&gt;Node7 -->
<g id="edge6" class="edge"><title>Node2&#45;&gt;Node7</title>
<path fill="none" stroke="midnightblue" d="M341.724,-996.945C359.936,-994.823 379.272,-992.57 397.257,-990.475"/>
<polygon fill="midnightblue" stroke="midnightblue" points="341.265,-993.474 331.737,-998.108 342.075,-1000.43 341.265,-993.474"/>
</g>
<!-- Node4 -->
<g id="node4" class="node"><title>Node4</title>
<g id="a_node4"><a xlink:href="classMWGui_1_1Repair.html#a6c2fdbcbc193b1b301a54813a1ef9222" target="_top" xlink:title="MWGui::Repair::onRepairItem">
<polygon fill="white" stroke="black" points="607.5,-1021.5 607.5,-1040.5 760.5,-1040.5 760.5,-1021.5 607.5,-1021.5"/>
<text text-anchor="middle" x="684" y="-1028.5" font-family="FreeSans" font-size="10.00">MWGui::Repair::onRepairItem</text>
</a>
</g>
</g>
<!-- Node3&#45;&gt;Node4 -->
<g id="edge3" class="edge"><title>Node3&#45;&gt;Node4</title>
<path fill="none" stroke="midnightblue" d="M540.971,-1031C562.141,-1031 585.551,-1031 607.155,-1031"/>
<polygon fill="midnightblue" stroke="midnightblue" points="540.775,-1027.5 530.775,-1031 540.775,-1034.5 540.775,-1027.5"/>
</g>
<!-- Node5 -->
<g id="node5" class="node"><title>Node5</title>
<g id="a_node5"><a xlink:href="classMWGui_1_1Repair.html#aac4c82f62b3fd95b0e5caf0747f37edd" target="_top" xlink:title="MWGui::Repair::Repair">
<polygon fill="white" stroke="black" points="829.5,-1021.5 829.5,-1040.5 948.5,-1040.5 948.5,-1021.5 829.5,-1021.5"/>
<text text-anchor="middle" x="889" y="-1028.5" font-family="FreeSans" font-size="10.00">MWGui::Repair::Repair</text>
</a>
</g>
</g>
<!-- Node4&#45;&gt;Node5 -->
<g id="edge4" class="edge"><title>Node4&#45;&gt;Node5</title>
<path fill="none" stroke="midnightblue" d="M770.837,-1031C790.605,-1031 811.185,-1031 829.48,-1031"/>
<polygon fill="midnightblue" stroke="midnightblue" points="770.59,-1027.5 760.59,-1031 770.59,-1034.5 770.59,-1027.5"/>
</g>
<!-- Node8&#45;&gt;Node7 -->
<g id="edge39" class="edge"><title>Node8&#45;&gt;Node7</title>
<path fill="none" stroke="midnightblue" d="M265.28,-662.819C269.936,-718.025 290.775,-874.883 380,-957 385.131,-961.722 391.077,-965.563 397.421,-968.686"/>
<polygon fill="midnightblue" stroke="midnightblue" points="268.755,-662.353 264.513,-652.644 261.774,-662.879 268.755,-662.353"/>
</g>
<!-- Node9 -->
<g id="node9" class="node"><title>Node9</title>
<g id="a_node9"><a xlink:href="classMWDialogue_1_1DialogueManager.html#a577a67d85d48d878f74e0037524a4801" target="_top" xlink:title="MWDialogue::DialogueManager\l::persuade">
<polygon fill="white" stroke="black" points="388.5,-322 388.5,-352 553.5,-352 553.5,-322 388.5,-322"/>
<text text-anchor="start" x="396.5" y="-340" font-family="FreeSans" font-size="10.00">MWDialogue::DialogueManager</text>
<text text-anchor="middle" x="471" y="-329" font-family="FreeSans" font-size="10.00">::persuade</text>
</a>
</g>
</g>
<!-- Node8&#45;&gt;Node9 -->
<g id="edge8" class="edge"><title>Node8&#45;&gt;Node9</title>
<path fill="none" stroke="midnightblue" d="M266.242,-623.226C273.121,-572.021 298.659,-434.082 380,-362 384.369,-358.128 389.289,-354.851 394.519,-352.077"/>
<polygon fill="midnightblue" stroke="midnightblue" points="262.751,-622.933 264.985,-633.29 269.698,-623.8 262.751,-622.933"/>
</g>
<!-- Node10 -->
<g id="node10" class="node"><title>Node10</title>
<g id="a_node10"><a xlink:href="classMWGui_1_1ContainerItemModel.html#a9d3d7c12a1d09da3bb4602d666721a8c" target="_top" xlink:title="MWGui::ContainerItemModel\l::copyItem">
<polygon fill="white" stroke="black" points="395,-918 395,-948 547,-948 547,-918 395,-918"/>
<text text-anchor="start" x="403" y="-936" font-family="FreeSans" font-size="10.00">MWGui::ContainerItemModel</text>
<text text-anchor="middle" x="471" y="-925" font-family="FreeSans" font-size="10.00">::copyItem</text>
</a>
</g>
</g>
<!-- Node8&#45;&gt;Node10 -->
<g id="edge9" class="edge"><title>Node8&#45;&gt;Node10</title>
<path fill="none" stroke="midnightblue" d="M266.768,-662.641C274.746,-711.736 302.396,-840.678 380,-908 384.41,-911.826 389.359,-915.07 394.609,-917.82"/>
<polygon fill="midnightblue" stroke="midnightblue" points="270.218,-662.045 265.248,-652.688 263.298,-663.102 270.218,-662.045"/>
</g>
<!-- Node11 -->
<g id="node11" class="node"><title>Node11</title>
<g id="a_node11"><a xlink:href="classMWGui_1_1InventoryItemModel.html#a6ba7a1f4f25e86b2868ce902e97b7691" target="_top" xlink:title="MWGui::InventoryItemModel\l::copyItem">
<polygon fill="white" stroke="black" points="396.5,-869 396.5,-899 545.5,-899 545.5,-869 396.5,-869"/>
<text text-anchor="start" x="404.5" y="-887" font-family="FreeSans" font-size="10.00">MWGui::InventoryItemModel</text>
<text text-anchor="middle" x="471" y="-876" font-family="FreeSans" font-size="10.00">::copyItem</text>
</a>
</g>
</g>
<!-- Node8&#45;&gt;Node11 -->
<g id="edge10" class="edge"><title>Node8&#45;&gt;Node11</title>
<path fill="none" stroke="midnightblue" d="M268.904,-662.68C280.544,-705.226 313.94,-806.183 380,-859 384.94,-862.949 390.463,-866.276 396.278,-869.077"/>
<polygon fill="midnightblue" stroke="midnightblue" points="272.278,-661.749 266.352,-652.967 265.508,-663.528 272.278,-661.749"/>
</g>
<!-- Node13 -->
<g id="node13" class="node"><title>Node13</title>
<g id="a_node13"><a xlink:href="classMWGui_1_1InventoryWindow.html#a217f522ca43031e4a82dac0c62067e92" target="_top" xlink:title="MWGui::InventoryWindow\l::pickUpObject">
<polygon fill="white" stroke="black" points="404,-820 404,-850 538,-850 538,-820 404,-820"/>
<text text-anchor="start" x="412" y="-838" font-family="FreeSans" font-size="10.00">MWGui::InventoryWindow</text>
<text text-anchor="middle" x="471" y="-827" font-family="FreeSans" font-size="10.00">::pickUpObject</text>
</a>
</g>
</g>
<!-- Node8&#45;&gt;Node13 -->
<g id="edge12" class="edge"><title>Node8&#45;&gt;Node13</title>
<path fill="none" stroke="midnightblue" d="M272.529,-661.805C288.705,-695.414 327.022,-765.92 380,-805 388.218,-811.062 397.734,-815.947 407.437,-819.87"/>
<polygon fill="midnightblue" stroke="midnightblue" points="275.643,-660.202 268.228,-652.635 269.305,-663.175 275.643,-660.202"/>
</g>
<!-- Node16 -->
<g id="node16" class="node"><title>Node16</title>
<g id="a_node16"><a xlink:href="classMWWorld_1_1ActionTake.html#a9b205e51e6e4affafe912a87ddffe333" target="_top" xlink:title="MWWorld::ActionTake\l::executeImp">
<polygon fill="white" stroke="black" points="626,-782 626,-812 742,-812 742,-782 626,-782"/>
<text text-anchor="start" x="634" y="-800" font-family="FreeSans" font-size="10.00">MWWorld::ActionTake</text>
<text text-anchor="middle" x="684" y="-789" font-family="FreeSans" font-size="10.00">::executeImp</text>
</a>
</g>
</g>
<!-- Node8&#45;&gt;Node16 -->
<g id="edge40" class="edge"><title>Node8&#45;&gt;Node16</title>
<path fill="none" stroke="midnightblue" d="M274.277,-661.514C291.699,-690.853 330.06,-747.235 380,-772 458.379,-810.869 562.283,-809.886 625.802,-804.362"/>
<polygon fill="midnightblue" stroke="midnightblue" points="277.214,-659.6 269.185,-652.686 271.15,-663.097 277.214,-659.6"/>
</g>
<!-- Node17 -->
<g id="node17" class="node"><title>Node17</title>
<g id="a_node17"><a xlink:href="classMWGui_1_1Recharge.html#a994cd812a36bc0e835f8284306b3576c" target="_top" xlink:title="MWGui::Recharge::onItemClicked">
<polygon fill="white" stroke="black" points="384.5,-743.5 384.5,-762.5 557.5,-762.5 557.5,-743.5 384.5,-743.5"/>
<text text-anchor="middle" x="471" y="-750.5" font-family="FreeSans" font-size="10.00">MWGui::Recharge::onItemClicked</text>
</a>
</g>
</g>
<!-- Node8&#45;&gt;Node17 -->
<g id="edge16" class="edge"><title>Node8&#45;&gt;Node17</title>
<path fill="none" stroke="midnightblue" d="M280.447,-659.68C301.585,-680.128 340.315,-714.353 380,-733 389.271,-737.356 399.532,-740.785 409.708,-743.476"/>
<polygon fill="midnightblue" stroke="midnightblue" points="282.82,-657.106 273.241,-652.579 277.907,-662.091 282.82,-657.106"/>
</g>
<!-- Node19 -->
<g id="node19" class="node"><title>Node19</title>
<g id="a_node19"><a xlink:href="classMWGui_1_1TradeWindow.html#afc51f1bd7ee207ad8eb7402dacbc9592" target="_top" xlink:title="MWGui::TradeWindow\l::addOrRemoveGold">
<polygon fill="white" stroke="black" points="413,-694 413,-724 529,-724 529,-694 413,-694"/>
<text text-anchor="start" x="421" y="-712" font-family="FreeSans" font-size="10.00">MWGui::TradeWindow</text>
<text text-anchor="middle" x="471" y="-701" font-family="FreeSans" font-size="10.00">::addOrRemoveGold</text>
</a>
</g>
</g>
<!-- Node8&#45;&gt;Node19 -->
<g id="edge18" class="edge"><title>Node8&#45;&gt;Node19</title>
<path fill="none" stroke="midnightblue" d="M299.25,-656.169C322.131,-664.541 352.672,-675.386 380,-684 390.827,-687.413 402.461,-690.828 413.653,-693.99"/>
<polygon fill="midnightblue" stroke="midnightblue" points="300.223,-652.798 289.63,-652.63 297.806,-659.368 300.223,-652.798"/>
</g>
<!-- Node23 -->
<g id="node23" class="node"><title>Node23</title>
<g id="a_node23"><a xlink:href="namespaceMWMechanics.html#af6ce41ddac20f6fb684311ba807c5948" target="_top" xlink:title="MWMechanics::projectileHit">
<polygon fill="white" stroke="black" points="398,-655.5 398,-674.5 544,-674.5 544,-655.5 398,-655.5"/>
<text text-anchor="middle" x="471" y="-662.5" font-family="FreeSans" font-size="10.00">MWMechanics::projectileHit</text>
</a>
</g>
</g>
<!-- Node8&#45;&gt;Node23 -->
<g id="edge23" class="edge"><title>Node8&#45;&gt;Node23</title>
<path fill="none" stroke="midnightblue" d="M353.797,-652.59C368.567,-654.167 383.706,-655.784 397.972,-657.308"/>
<polygon fill="midnightblue" stroke="midnightblue" points="353.96,-649.088 343.645,-651.506 353.217,-656.048 353.96,-649.088"/>
</g>
<!-- Node28 -->
<g id="node28" class="node"><title>Node28</title>
<g id="a_node28"><a xlink:href="classMWMechanics_1_1Enchanting.html#ac3d0494580ecd82a35771d8fd87164b1" target="_top" xlink:title="MWMechanics::Enchanting\l::create">
<polygon fill="white" stroke="black" points="399.5,-606 399.5,-636 542.5,-636 542.5,-606 399.5,-606"/>
<text text-anchor="start" x="407.5" y="-624" font-family="FreeSans" font-size="10.00">MWMechanics::Enchanting</text>
<text text-anchor="middle" x="471" y="-613" font-family="FreeSans" font-size="10.00">::create</text>
</a>
</g>
</g>
<!-- Node8&#45;&gt;Node28 -->
<g id="edge30" class="edge"><title>Node8&#45;&gt;Node28</title>
<path fill="none" stroke="midnightblue" d="M353.619,-633.429C368.906,-631.796 384.593,-630.121 399.302,-628.55"/>
<polygon fill="midnightblue" stroke="midnightblue" points="353.217,-629.952 343.645,-634.494 353.96,-636.912 353.217,-629.952"/>
</g>
<!-- Node32 -->
<g id="node32" class="node"><title>Node32</title>
<g id="a_node32"><a xlink:href="classMWMechanics_1_1MechanicsManager.html#aa5d870d6413175e80ba1bb7904c25a8f" target="_top" xlink:title="MWMechanics::MechanicsManager\l::confiscateStolenItemToOwner">
<polygon fill="white" stroke="black" points="380,-557 380,-587 562,-587 562,-557 380,-557"/>
<text text-anchor="start" x="388" y="-575" font-family="FreeSans" font-size="10.00">MWMechanics::MechanicsManager</text>
<text text-anchor="middle" x="471" y="-564" font-family="FreeSans" font-size="10.00">::confiscateStolenItemToOwner</text>
</a>
</g>
</g>
<!-- Node8&#45;&gt;Node32 -->
<g id="edge35" class="edge"><title>Node8&#45;&gt;Node32</title>
<path fill="none" stroke="midnightblue" d="M294.809,-629.294C317.962,-619.296 350.609,-605.831 380,-596 389.355,-592.871 399.362,-589.87 409.178,-587.115"/>
<polygon fill="midnightblue" stroke="midnightblue" points="293.276,-626.145 285.505,-633.347 296.071,-632.562 293.276,-626.145"/>
</g>
<!-- Node33 -->
<g id="node33" class="node"><title>Node33</title>
<g id="a_node33"><a xlink:href="classMWMechanics_1_1MechanicsManager.html#af2978a19cfe078835a577218a830667b" target="_top" xlink:title="MWMechanics::MechanicsManager\l::confiscateStolenItems">
<polygon fill="white" stroke="black" points="380,-508 380,-538 562,-538 562,-508 380,-508"/>
<text text-anchor="start" x="388" y="-526" font-family="FreeSans" font-size="10.00">MWMechanics::MechanicsManager</text>
<text text-anchor="middle" x="471" y="-515" font-family="FreeSans" font-size="10.00">::confiscateStolenItems</text>
</a>
</g>
</g>
<!-- Node8&#45;&gt;Node33 -->
<g id="edge36" class="edge"><title>Node8&#45;&gt;Node33</title>
<path fill="none" stroke="midnightblue" d="M280.03,-625.771C301,-604.24 339.824,-567.711 380,-547 386.612,-543.592 393.753,-540.633 401.021,-538.073"/>
<polygon fill="midnightblue" stroke="midnightblue" points="277.285,-623.578 272.902,-633.224 282.343,-628.416 277.285,-623.578"/>
</g>
<!-- Node34 -->
<g id="node34" class="node"><title>Node34</title>
<g id="a_node34"><a xlink:href="classMWScript_1_1Container_1_1OpAddItem.html#a5c85a850b9c0d83a966b43a41c23405f" target="_top" xlink:title="MWScript::Container\l::OpAddItem::execute">
<polygon fill="white" stroke="black" points="410.5,-459 410.5,-489 531.5,-489 531.5,-459 410.5,-459"/>
<text text-anchor="start" x="418.5" y="-477" font-family="FreeSans" font-size="10.00">MWScript::Container</text>
<text text-anchor="middle" x="471" y="-466" font-family="FreeSans" font-size="10.00">::OpAddItem::execute</text>
</a>
</g>
</g>
<!-- Node8&#45;&gt;Node34 -->
<g id="edge37" class="edge"><title>Node8&#45;&gt;Node34</title>
<path fill="none" stroke="midnightblue" d="M273.548,-624.601C290.608,-593.591 329.333,-531.074 380,-498 389.073,-492.078 399.561,-487.611 410.103,-484.244"/>
<polygon fill="midnightblue" stroke="midnightblue" points="270.426,-623.018 268.783,-633.484 276.594,-626.327 270.426,-623.018"/>
</g>
<!-- Node35 -->
<g id="node35" class="node"><title>Node35</title>
<g id="a_node35"><a xlink:href="classMWScript_1_1Container_1_1OpEquip.html#a1c18f39a0e700eaf6732e0f4b5324c9b" target="_top" xlink:title="MWScript::Container\l::OpEquip::execute">
<polygon fill="white" stroke="black" points="414.5,-410 414.5,-440 527.5,-440 527.5,-410 414.5,-410"/>
<text text-anchor="start" x="422.5" y="-428" font-family="FreeSans" font-size="10.00">MWScript::Container</text>
<text text-anchor="middle" x="471" y="-417" font-family="FreeSans" font-size="10.00">::OpEquip::execute</text>
</a>
</g>
</g>
<!-- Node8&#45;&gt;Node35 -->
<g id="edge38" class="edge"><title>Node8&#45;&gt;Node35</title>
<path fill="none" stroke="midnightblue" d="M270.089,-623.423C283.361,-584.076 318.718,-495.225 380,-449 389.941,-441.502 402.044,-436.343 414.109,-432.794"/>
<polygon fill="midnightblue" stroke="midnightblue" points="266.696,-622.539 266.929,-633.132 273.352,-624.706 266.696,-622.539"/>
</g>
<!-- Node36 -->
<g id="node36" class="node"><title>Node36</title>
<g id="a_node36"><a xlink:href="classMWWorld_1_1InventoryStore.html#a48c748f531e733fe7646428b903673c6" target="_top" xlink:title="MWWorld::InventoryStore::add">
<polygon fill="white" stroke="black" points="391.5,-371.5 391.5,-390.5 550.5,-390.5 550.5,-371.5 391.5,-371.5"/>
<text text-anchor="middle" x="471" y="-378.5" font-family="FreeSans" font-size="10.00">MWWorld::InventoryStore::add</text>
</a>
</g>
</g>
<!-- Node8&#45;&gt;Node36 -->
<g id="edge41" class="edge"><title>Node8&#45;&gt;Node36</title>
<path fill="none" stroke="midnightblue" d="M267.297,-623.461C276.244,-576.842 305.506,-458.624 380,-400 384.894,-396.148 390.386,-393.029 396.18,-390.509"/>
<polygon fill="midnightblue" stroke="midnightblue" points="263.825,-622.995 265.484,-633.459 270.712,-624.244 263.825,-622.995"/>
</g>
<!-- Node12 -->
<g id="node12" class="node"><title>Node12</title>
<g id="a_node12"><a xlink:href="classMWGui_1_1CompanionItemModel.html#a59dfbb30ffe8058f01b24b4088d74cb1" target="_top" xlink:title="MWGui::CompanionItemModel\l::copyItem">
<polygon fill="white" stroke="black" points="604,-870 604,-900 764,-900 764,-870 604,-870"/>
<text text-anchor="start" x="612" y="-888" font-family="FreeSans" font-size="10.00">MWGui::CompanionItemModel</text>
<text text-anchor="middle" x="684" y="-877" font-family="FreeSans" font-size="10.00">::copyItem</text>
</a>
</g>
</g>
<!-- Node11&#45;&gt;Node12 -->
<g id="edge11" class="edge"><title>Node11&#45;&gt;Node12</title>
<path fill="none" stroke="midnightblue" d="M555.76,-884.397C571.545,-884.472 588.007,-884.55 603.652,-884.624"/>
<polygon fill="midnightblue" stroke="midnightblue" points="555.518,-880.896 545.501,-884.348 555.485,-887.896 555.518,-880.896"/>
</g>
<!-- Node14 -->
<g id="node14" class="node"><title>Node14</title>
<g id="a_node14"><a xlink:href="classMWGui_1_1HUD.html#a7371a5a68d01bcecc0574b4ced993df6" target="_top" xlink:title="MWGui::HUD::onWorldClicked">
<polygon fill="white" stroke="black" points="606.5,-831.5 606.5,-850.5 761.5,-850.5 761.5,-831.5 606.5,-831.5"/>
<text text-anchor="middle" x="684" y="-838.5" font-family="FreeSans" font-size="10.00">MWGui::HUD::onWorldClicked</text>
</a>
</g>
</g>
<!-- Node13&#45;&gt;Node14 -->
<g id="edge13" class="edge"><title>Node13&#45;&gt;Node14</title>
<path fill="none" stroke="midnightblue" d="M548.234,-837.168C567.149,-837.706 587.427,-838.282 606.361,-838.821"/>
<polygon fill="midnightblue" stroke="midnightblue" points="548.278,-833.668 538.183,-836.882 548.079,-840.665 548.278,-833.668"/>
</g>
<!-- Node13&#45;&gt;Node16 -->
<g id="edge15" class="edge"><title>Node13&#45;&gt;Node16</title>
<path fill="none" stroke="midnightblue" d="M548.247,-821.268C573.89,-816.65 602.037,-811.581 625.945,-807.275"/>
<polygon fill="midnightblue" stroke="midnightblue" points="547.404,-817.864 538.183,-823.081 548.645,-824.753 547.404,-817.864"/>
</g>
<!-- Node15 -->
<g id="node15" class="node"><title>Node15</title>
<g id="a_node15"><a xlink:href="classMWGui_1_1HUD.html#a461afa538370aed6d6283441e44dedd2" target="_top" xlink:title="MWGui::HUD::HUD">
<polygon fill="white" stroke="black" points="836,-831.5 836,-850.5 942,-850.5 942,-831.5 836,-831.5"/>
<text text-anchor="middle" x="889" y="-838.5" font-family="FreeSans" font-size="10.00">MWGui::HUD::HUD</text>
</a>
</g>
</g>
<!-- Node14&#45;&gt;Node15 -->
<g id="edge14" class="edge"><title>Node14&#45;&gt;Node15</title>
<path fill="none" stroke="midnightblue" d="M771.977,-841C793.691,-841 816.309,-841 835.747,-841"/>
<polygon fill="midnightblue" stroke="midnightblue" points="771.746,-837.5 761.746,-841 771.746,-844.5 771.746,-837.5"/>
</g>
<!-- Node18 -->
<g id="node18" class="node"><title>Node18</title>
<g id="a_node18"><a xlink:href="classMWGui_1_1Recharge.html#ac784d7f3d77e54934047e5c4e5db8815" target="_top" xlink:title="MWGui::Recharge::Recharge">
<polygon fill="white" stroke="black" points="609.5,-743.5 609.5,-762.5 758.5,-762.5 758.5,-743.5 609.5,-743.5"/>
<text text-anchor="middle" x="684" y="-750.5" font-family="FreeSans" font-size="10.00">MWGui::Recharge::Recharge</text>
</a>
</g>
</g>
<!-- Node17&#45;&gt;Node18 -->
<g id="edge17" class="edge"><title>Node17&#45;&gt;Node18</title>
<path fill="none" stroke="midnightblue" d="M567.627,-753C581.587,-753 595.779,-753 609.215,-753"/>
<polygon fill="midnightblue" stroke="midnightblue" points="567.518,-749.5 557.518,-753 567.518,-756.5 567.518,-749.5"/>
</g>
<!-- Node20 -->
<g id="node20" class="node"><title>Node20</title>
<g id="a_node20"><a xlink:href="classMWGui_1_1TradeWindow.html#ad32308a56f6e082e2b0c55d396c5842c" target="_top" xlink:title="MWGui::TradeWindow\l::onOfferButtonClicked">
<polygon fill="white" stroke="black" points="622,-694 622,-724 746,-724 746,-694 622,-694"/>
<text text-anchor="start" x="630" y="-712" font-family="FreeSans" font-size="10.00">MWGui::TradeWindow</text>
<text text-anchor="middle" x="684" y="-701" font-family="FreeSans" font-size="10.00">::onOfferButtonClicked</text>
</a>
</g>
</g>
<!-- Node19&#45;&gt;Node20 -->
<g id="edge19" class="edge"><title>Node19&#45;&gt;Node20</title>
<path fill="none" stroke="midnightblue" d="M539.415,-709C565.855,-709 595.981,-709 621.787,-709"/>
<polygon fill="midnightblue" stroke="midnightblue" points="539.1,-705.5 529.1,-709 539.1,-712.5 539.1,-705.5"/>
</g>
<!-- Node21 -->
<g id="node21" class="node"><title>Node21</title>
<g id="a_node21"><a xlink:href="classMWGui_1_1TradeWindow.html#a248abab136a95b1b94939a386ed40c71" target="_top" xlink:title="MWGui::TradeWindow\l::TradeWindow">
<polygon fill="white" stroke="black" points="1025,-715 1025,-745 1141,-745 1141,-715 1025,-715"/>
<text text-anchor="start" x="1033" y="-733" font-family="FreeSans" font-size="10.00">MWGui::TradeWindow</text>
<text text-anchor="middle" x="1083" y="-722" font-family="FreeSans" font-size="10.00">::TradeWindow</text>
</a>
</g>
</g>
<!-- Node20&#45;&gt;Node21 -->
<g id="edge20" class="edge"><title>Node20&#45;&gt;Node21</title>
<path fill="none" stroke="midnightblue" d="M756.244,-712.769C833.14,-716.836 954.086,-723.234 1024.96,-726.983"/>
<polygon fill="midnightblue" stroke="midnightblue" points="756.332,-709.268 746.161,-712.235 755.962,-716.259 756.332,-709.268"/>
</g>
<!-- Node22 -->
<g id="node22" class="node"><title>Node22</title>
<g id="a_node22"><a xlink:href="classMWGui_1_1TradeWindow.html#a7c3b0359273d350268637d48af739f82" target="_top" xlink:title="MWGui::TradeWindow\l::onAccept">
<polygon fill="white" stroke="black" points="831,-736 831,-766 947,-766 947,-736 831,-736"/>
<text text-anchor="start" x="839" y="-754" font-family="FreeSans" font-size="10.00">MWGui::TradeWindow</text>
<text text-anchor="middle" x="889" y="-743" font-family="FreeSans" font-size="10.00">::onAccept</text>
</a>
</g>
</g>
<!-- Node20&#45;&gt;Node22 -->
<g id="edge21" class="edge"><title>Node20&#45;&gt;Node22</title>
<path fill="none" stroke="midnightblue" d="M756.117,-723.714C780.551,-728.769 807.573,-734.36 830.762,-739.158"/>
<polygon fill="midnightblue" stroke="midnightblue" points="756.684,-720.257 746.182,-721.658 755.265,-727.112 756.684,-720.257"/>
</g>
<!-- Node22&#45;&gt;Node21 -->
<g id="edge22" class="edge"><title>Node22&#45;&gt;Node21</title>
<path fill="none" stroke="midnightblue" d="M957.061,-743.665C979.158,-741.248 1003.51,-738.585 1024.8,-736.256"/>
<polygon fill="midnightblue" stroke="midnightblue" points="956.647,-740.19 947.086,-744.756 957.408,-747.148 956.647,-740.19"/>
</g>
<!-- Node24 -->
<g id="node24" class="node"><title>Node24</title>
<g id="a_node24"><a xlink:href="classMWWorld_1_1ProjectileManager.html#a77bced8f0dfc8fec0a492cd753d0c464" target="_top" xlink:title="MWWorld::ProjectileManager\l::moveProjectiles">
<polygon fill="white" stroke="black" points="609,-645 609,-675 759,-675 759,-645 609,-645"/>
<text text-anchor="start" x="617" y="-663" font-family="FreeSans" font-size="10.00">MWWorld::ProjectileManager</text>
<text text-anchor="middle" x="684" y="-652" font-family="FreeSans" font-size="10.00">::moveProjectiles</text>
</a>
</g>
</g>
<!-- Node23&#45;&gt;Node24 -->
<g id="edge24" class="edge"><title>Node23&#45;&gt;Node24</title>
<path fill="none" stroke="midnightblue" d="M554.197,-663.052C572.188,-662.626 591.13,-662.177 608.787,-661.759"/>
<polygon fill="midnightblue" stroke="midnightblue" points="553.938,-659.557 544.024,-663.293 554.104,-666.555 553.938,-659.557"/>
</g>
<!-- Node27 -->
<g id="node27" class="node"><title>Node27</title>
<g id="a_node27"><a xlink:href="classMWWorld_1_1World.html#ae5903ca0dd09782dc14695a7f3c7d99c" target="_top" xlink:title="MWWorld::World::launchProjectile">
<polygon fill="white" stroke="black" points="598.5,-606.5 598.5,-625.5 769.5,-625.5 769.5,-606.5 598.5,-606.5"/>
<text text-anchor="middle" x="684" y="-613.5" font-family="FreeSans" font-size="10.00">MWWorld::World::launchProjectile</text>
</a>
</g>
</g>
<!-- Node23&#45;&gt;Node27 -->
<g id="edge29" class="edge"><title>Node23&#45;&gt;Node27</title>
<path fill="none" stroke="midnightblue" d="M526.983,-653.261C538.574,-650.652 550.71,-647.82 562,-645 578.111,-640.975 581.892,-639.035 598,-635 611.055,-631.73 625.306,-628.437 638.343,-625.533"/>
<polygon fill="midnightblue" stroke="midnightblue" points="525.972,-649.9 516.972,-655.49 527.493,-656.733 525.972,-649.9"/>
</g>
<!-- Node25 -->
<g id="node25" class="node"><title>Node25</title>
<g id="a_node25"><a xlink:href="classMWWorld_1_1ProjectileManager.html#a10e1c50b640ed158c9332d75c870c8c5" target="_top" xlink:title="MWWorld::ProjectileManager\l::update">
<polygon fill="white" stroke="black" points="814,-645 814,-675 964,-675 964,-645 814,-645"/>
<text text-anchor="start" x="822" y="-663" font-family="FreeSans" font-size="10.00">MWWorld::ProjectileManager</text>
<text text-anchor="middle" x="889" y="-652" font-family="FreeSans" font-size="10.00">::update</text>
</a>
</g>
</g>
<!-- Node24&#45;&gt;Node25 -->
<g id="edge25" class="edge"><title>Node24&#45;&gt;Node25</title>
<path fill="none" stroke="midnightblue" d="M769.263,-653.337C784.011,-653.187 799.259,-653.231 813.712,-653.47"/>
<polygon fill="midnightblue" stroke="midnightblue" points="769.102,-649.839 759.149,-653.473 769.195,-656.838 769.102,-649.839"/>
</g>
<!-- Node25&#45;&gt;Node24 -->
<g id="edge28" class="edge"><title>Node25&#45;&gt;Node24</title>
<path fill="none" stroke="midnightblue" d="M803.595,-666.664C788.844,-666.814 773.597,-666.768 759.149,-666.527"/>
<polygon fill="midnightblue" stroke="midnightblue" points="803.759,-670.162 813.712,-666.53 803.666,-663.163 803.759,-670.162"/>
</g>
<!-- Node26 -->
<g id="node26" class="node"><title>Node26</title>
<g id="a_node26"><a xlink:href="classMWWorld_1_1ProjectileManager.html#ad7f820af09ff0d1c510ad52b9db7cefa" target="_top" xlink:title="MWWorld::ProjectileManager\l::moveMagicBolts">
<polygon fill="white" stroke="black" points="1008,-645 1008,-675 1158,-675 1158,-645 1008,-645"/>
<text text-anchor="start" x="1016" y="-663" font-family="FreeSans" font-size="10.00">MWWorld::ProjectileManager</text>
<text text-anchor="middle" x="1083" y="-652" font-family="FreeSans" font-size="10.00">::moveMagicBolts</text>
</a>
</g>
</g>
<!-- Node25&#45;&gt;Node26 -->
<g id="edge26" class="edge"><title>Node25&#45;&gt;Node26</title>
<path fill="none" stroke="midnightblue" d="M974.418,-653.294C985.594,-653.209 996.982,-653.247 1007.97,-653.41"/>
<polygon fill="midnightblue" stroke="midnightblue" points="974.193,-649.796 964.232,-653.407 974.27,-656.796 974.193,-649.796"/>
</g>
<!-- Node26&#45;&gt;Node25 -->
<g id="edge27" class="edge"><title>Node26&#45;&gt;Node25</title>
<path fill="none" stroke="midnightblue" d="M997.783,-666.705C986.609,-666.791 975.22,-666.754 964.232,-666.593"/>
<polygon fill="midnightblue" stroke="midnightblue" points="998.005,-670.202 1007.97,-666.59 997.927,-663.203 998.005,-670.202"/>
</g>
<!-- Node29 -->
<g id="node29" class="node"><title>Node29</title>
<g id="a_node29"><a xlink:href="classMWGui_1_1EnchantingDialog.html#aa23d6beb65f9018cc0e5482de7de25bf" target="_top" xlink:title="MWGui::EnchantingDialog\l::onBuyButtonClicked">
<polygon fill="white" stroke="black" points="615,-557 615,-587 753,-587 753,-557 615,-557"/>
<text text-anchor="start" x="623" y="-575" font-family="FreeSans" font-size="10.00">MWGui::EnchantingDialog</text>
<text text-anchor="middle" x="684" y="-564" font-family="FreeSans" font-size="10.00">::onBuyButtonClicked</text>
</a>
</g>
</g>
<!-- Node28&#45;&gt;Node29 -->
<g id="edge31" class="edge"><title>Node28&#45;&gt;Node29</title>
<path fill="none" stroke="midnightblue" d="M546.629,-603.669C570.055,-598.229 595.709,-592.271 618.382,-587.006"/>
<polygon fill="midnightblue" stroke="midnightblue" points="545.69,-600.294 536.741,-605.965 547.273,-607.113 545.69,-600.294"/>
</g>
<!-- Node30 -->
<g id="node30" class="node"><title>Node30</title>
<g id="a_node30"><a xlink:href="classMWGui_1_1EnchantingDialog.html#a15630e6153b49f15b018e7432a8cb1d2" target="_top" xlink:title="MWGui::EnchantingDialog\l::EnchantingDialog">
<polygon fill="white" stroke="black" points="1014,-555 1014,-585 1152,-585 1152,-555 1014,-555"/>
<text text-anchor="start" x="1022" y="-573" font-family="FreeSans" font-size="10.00">MWGui::EnchantingDialog</text>
<text text-anchor="middle" x="1083" y="-562" font-family="FreeSans" font-size="10.00">::EnchantingDialog</text>
</a>
</g>
</g>
<!-- Node29&#45;&gt;Node30 -->
<g id="edge32" class="edge"><title>Node29&#45;&gt;Node30</title>
<path fill="none" stroke="midnightblue" d="M763.364,-568.289C777.551,-567.752 792.214,-567.285 806,-567 879.762,-565.477 898.229,-565.994 972,-567 985.563,-567.185 1000.06,-567.498 1013.94,-567.854"/>
<polygon fill="midnightblue" stroke="midnightblue" points="762.992,-564.801 753.138,-568.691 763.267,-571.795 762.992,-564.801"/>
</g>
<!-- Node31 -->
<g id="node31" class="node"><title>Node31</title>
<g id="a_node31"><a xlink:href="classMWGui_1_1EnchantingDialog.html#a39f0166b2af120416e9354861e9c9769" target="_top" xlink:title="MWGui::EnchantingDialog\l::onAccept">
<polygon fill="white" stroke="black" points="820,-577 820,-607 958,-607 958,-577 820,-577"/>
<text text-anchor="start" x="828" y="-595" font-family="FreeSans" font-size="10.00">MWGui::EnchantingDialog</text>
<text text-anchor="middle" x="889" y="-584" font-family="FreeSans" font-size="10.00">::onAccept</text>
</a>
</g>
</g>
<!-- Node29&#45;&gt;Node31 -->
<g id="edge33" class="edge"><title>Node29&#45;&gt;Node31</title>
<path fill="none" stroke="midnightblue" d="M763.35,-579.719C781.922,-581.549 801.587,-583.486 819.674,-585.268"/>
<polygon fill="midnightblue" stroke="midnightblue" points="763.456,-576.213 753.161,-578.715 762.769,-583.179 763.456,-576.213"/>
</g>
<!-- Node31&#45;&gt;Node30 -->
<g id="edge34" class="edge"><title>Node31&#45;&gt;Node30</title>
<path fill="none" stroke="midnightblue" d="M968.551,-582.999C983.621,-581.273 999.284,-579.478 1013.99,-577.793"/>
<polygon fill="midnightblue" stroke="midnightblue" points="967.769,-579.566 958.233,-584.182 968.566,-586.52 967.769,-579.566"/>
</g>
<!-- Node38 -->
<g id="node38" class="node"><title>Node38</title>
<g id="a_node38"><a xlink:href="classMWWorld_1_1World.html#a807432abe478d7e102ad55c59ffebd27" target="_top" xlink:title="MWWorld::World::changeTo\lInteriorCell">
<polygon fill="white" stroke="black" points="400.5,-196 400.5,-226 541.5,-226 541.5,-196 400.5,-196"/>
<text text-anchor="start" x="408.5" y="-214" font-family="FreeSans" font-size="10.00">MWWorld::World::changeTo</text>
<text text-anchor="middle" x="471" y="-203" font-family="FreeSans" font-size="10.00">InteriorCell</text>
</a>
</g>
</g>
<!-- Node37&#45;&gt;Node38 -->
<g id="edge43" class="edge"><title>Node37&#45;&gt;Node38</title>
<path fill="none" stroke="midnightblue" d="M353.805,-196.899C369.378,-198.789 385.361,-200.728 400.297,-202.541"/>
<polygon fill="midnightblue" stroke="midnightblue" points="353.994,-193.396 343.645,-195.666 353.15,-200.345 353.994,-193.396"/>
</g>
<!-- Node37&#45;&gt;Node41 -->
<g id="edge51" class="edge"><title>Node37&#45;&gt;Node41</title>
<path fill="none" stroke="midnightblue" d="M301.254,-205.503C323.488,-216.175 352.639,-228.513 380,-235 455.791,-252.969 545.026,-256.859 606.941,-256.935"/>
<polygon fill="midnightblue" stroke="midnightblue" points="302.694,-202.31 292.174,-201.053 299.613,-208.596 302.694,-202.31"/>
</g>
<!-- Node42 -->
<g id="node42" class="node"><title>Node42</title>
<g id="a_node42"><a xlink:href="classMWWorld_1_1World.html#a82f3aad277655203530892760b5c6f0d" target="_top" xlink:title="MWWorld::World::changeTo\lExteriorCell">
<polygon fill="white" stroke="black" points="400.5,-147 400.5,-177 541.5,-177 541.5,-147 400.5,-147"/>
<text text-anchor="start" x="408.5" y="-165" font-family="FreeSans" font-size="10.00">MWWorld::World::changeTo</text>
<text text-anchor="middle" x="471" y="-154" font-family="FreeSans" font-size="10.00">ExteriorCell</text>
</a>
</g>
</g>
<!-- Node37&#45;&gt;Node42 -->
<g id="edge47" class="edge"><title>Node37&#45;&gt;Node42</title>
<path fill="none" stroke="midnightblue" d="M353.805,-175.537C369.378,-173.723 385.361,-171.861 400.297,-170.121"/>
<polygon fill="midnightblue" stroke="midnightblue" points="353.173,-172.087 343.645,-176.721 353.983,-179.04 353.173,-172.087"/>
</g>
<!-- Node37&#45;&gt;Node43 -->
<g id="edge50" class="edge"><title>Node37&#45;&gt;Node43</title>
<path fill="none" stroke="midnightblue" d="M312.635,-167.094C323.034,-162.899 333.92,-158.391 344,-154 360.222,-146.933 363.384,-143.082 380,-137 388.808,-133.776 398.244,-130.781 407.572,-128.077"/>
<polygon fill="midnightblue" stroke="midnightblue" points="311.243,-163.881 303.259,-170.846 313.844,-170.38 311.243,-163.881"/>
</g>
<!-- Node37&#45;&gt;Node44 -->
<g id="edge52" class="edge"><title>Node37&#45;&gt;Node44</title>
<path fill="none" stroke="midnightblue" d="M284.878,-163.277C306.587,-140.97 342.577,-107.533 380,-88 386.594,-84.5581 393.725,-81.5782 400.986,-79.0055"/>
<polygon fill="midnightblue" stroke="midnightblue" points="282.198,-161.016 277.816,-170.662 287.257,-165.853 282.198,-161.016"/>
</g>
<!-- Node39 -->
<g id="node39" class="node"><title>Node39</title>
<g id="a_node39"><a xlink:href="classMWWorld_1_1World.html#a33b8441f680734ed2de7679bc614d172" target="_top" xlink:title="MWWorld::World::startNewGame">
<polygon fill="white" stroke="black" points="600,-198.5 600,-217.5 768,-217.5 768,-198.5 600,-198.5"/>
<text text-anchor="middle" x="684" y="-205.5" font-family="FreeSans" font-size="10.00">MWWorld::World::startNewGame</text>
</a>
</g>
</g>
<!-- Node38&#45;&gt;Node39 -->
<g id="edge44" class="edge"><title>Node38&#45;&gt;Node39</title>
<path fill="none" stroke="midnightblue" d="M551.851,-209.865C567.539,-209.642 584.032,-209.407 599.826,-209.183"/>
<polygon fill="midnightblue" stroke="midnightblue" points="551.623,-206.367 541.674,-210.009 551.723,-213.367 551.623,-206.367"/>
</g>
<!-- Node40 -->
<g id="node40" class="node"><title>Node40</title>
<g id="a_node40"><a xlink:href="classMWWorld_1_1World.html#aa916733b4b3bbe7dbc9a9e0d34d9da2a" target="_top" xlink:title="MWWorld::World::changeToCell">
<polygon fill="white" stroke="black" points="605,-157.5 605,-176.5 763,-176.5 763,-157.5 605,-157.5"/>
<text text-anchor="middle" x="684" y="-164.5" font-family="FreeSans" font-size="10.00">MWWorld::World::changeToCell</text>
</a>
</g>
</g>
<!-- Node38&#45;&gt;Node40 -->
<g id="edge45" class="edge"><title>Node38&#45;&gt;Node40</title>
<path fill="none" stroke="midnightblue" d="M551.77,-194.365C580.682,-188.336 612.339,-181.735 637.316,-176.527"/>
<polygon fill="midnightblue" stroke="midnightblue" points="550.749,-191.003 541.674,-196.471 552.178,-197.856 550.749,-191.003"/>
</g>
<!-- Node38&#45;&gt;Node41 -->
<g id="edge46" class="edge"><title>Node38&#45;&gt;Node41</title>
<path fill="none" stroke="midnightblue" d="M551.77,-227.635C580.682,-233.664 612.339,-240.265 637.316,-245.473"/>
<polygon fill="midnightblue" stroke="midnightblue" points="552.178,-224.144 541.674,-225.529 550.749,-230.997 552.178,-224.144"/>
</g>
<!-- Node42&#45;&gt;Node39 -->
<g id="edge48" class="edge"><title>Node42&#45;&gt;Node39</title>
<path fill="none" stroke="midnightblue" d="M551.086,-179.241C580.949,-185.752 613.829,-192.92 639.293,-198.471"/>
<polygon fill="midnightblue" stroke="midnightblue" points="551.605,-175.773 541.089,-177.062 550.114,-182.612 551.605,-175.773"/>
</g>
<!-- Node42&#45;&gt;Node40 -->
<g id="edge49" class="edge"><title>Node42&#45;&gt;Node40</title>
<path fill="none" stroke="midnightblue" d="M551.744,-163.89C569.068,-164.3 587.378,-164.734 604.647,-165.143"/>
<polygon fill="midnightblue" stroke="midnightblue" points="551.754,-160.389 541.674,-163.651 551.588,-167.387 551.754,-160.389"/>
</g>
<!-- Node45 -->
<g id="node45" class="node"><title>Node45</title>
<g id="a_node45"><a xlink:href="classMWWorld_1_1World.html#a114373a37945c0b985ee8384be5fad31" target="_top" xlink:title="Place an object. Makes a copy of the Ptr. ">
<polygon fill="white" stroke="black" points="608,-98.5 608,-117.5 760,-117.5 760,-98.5 608,-98.5"/>
<text text-anchor="middle" x="684" y="-105.5" font-family="FreeSans" font-size="10.00">MWWorld::World::placeObject</text>
</a>
</g>
</g>
<!-- Node44&#45;&gt;Node45 -->
<g id="edge53" class="edge"><title>Node44&#45;&gt;Node45</title>
<path fill="none" stroke="midnightblue" d="M553.936,-81.0862C582.281,-86.9971 613.018,-93.4067 637.384,-98.4876"/>
<polygon fill="midnightblue" stroke="midnightblue" points="554.528,-77.6344 544.024,-79.0192 553.099,-84.487 554.528,-77.6344"/>
</g>
<!-- Node46 -->
<g id="node46" class="node"><title>Node46</title>
<g id="a_node46"><a xlink:href="classMWWorld_1_1World.html#ad3057a6db354934fee9c8d2f1e4b4272" target="_top" xlink:title="MWWorld::World::safePlace\lObject">
<polygon fill="white" stroke="black" points="613,-49 613,-79 755,-79 755,-49 613,-49"/>
<text text-anchor="start" x="621" y="-67" font-family="FreeSans" font-size="10.00">MWWorld::World::safePlace</text>
<text text-anchor="middle" x="684" y="-56" font-family="FreeSans" font-size="10.00">Object</text>
</a>
</g>
</g>
<!-- Node44&#45;&gt;Node46 -->
<g id="edge54" class="edge"><title>Node44&#45;&gt;Node46</title>
<path fill="none" stroke="midnightblue" d="M555.629,-64C574.619,-64 594.597,-64 612.955,-64"/>
<polygon fill="midnightblue" stroke="midnightblue" points="555.501,-60.5001 545.501,-64 555.501,-67.5001 555.501,-60.5001"/>
</g>
<!-- Node48 -->
<g id="node48" class="node"><title>Node48</title>
<g id="a_node48"><a xlink:href="classMWWorld_1_1World.html#a833c721c49b1292584f95e1d0904e493" target="_top" xlink:title="MWWorld::World::dropObject\lOnGround">
<polygon fill="white" stroke="black" points="609.5,-0 609.5,-30 758.5,-30 758.5,-0 609.5,-0"/>
<text text-anchor="start" x="617.5" y="-18" font-family="FreeSans" font-size="10.00">MWWorld::World::dropObject</text>
<text text-anchor="middle" x="684" y="-7" font-family="FreeSans" font-size="10.00">OnGround</text>
</a>
</g>
</g>
<!-- Node44&#45;&gt;Node48 -->
<g id="edge56" class="edge"><title>Node44&#45;&gt;Node48</title>
<path fill="none" stroke="midnightblue" d="M546.629,-46.6691C570.055,-41.2288 595.709,-35.2715 618.382,-30.0062"/>
<polygon fill="midnightblue" stroke="midnightblue" points="545.69,-43.294 536.741,-48.9654 547.273,-50.1125 545.69,-43.294"/>
</g>
<!-- Node47 -->
<g id="node47" class="node"><title>Node47</title>
<g id="a_node47"><a xlink:href="classMWWorld_1_1World.html#a5046f5c4857ab703f0165c3077ce4df8" target="_top" xlink:title="Spawn a random creature from a levelled list next to the player. ">
<polygon fill="white" stroke="black" points="806,-49 806,-79 972,-79 972,-49 806,-49"/>
<text text-anchor="start" x="814" y="-67" font-family="FreeSans" font-size="10.00">MWWorld::World::spawnRandom</text>
<text text-anchor="middle" x="889" y="-56" font-family="FreeSans" font-size="10.00">Creature</text>
</a>
</g>
</g>
<!-- Node46&#45;&gt;Node47 -->
<g id="edge55" class="edge"><title>Node46&#45;&gt;Node47</title>
<path fill="none" stroke="midnightblue" d="M765.265,-64C778.652,-64 792.554,-64 805.984,-64"/>
<polygon fill="midnightblue" stroke="midnightblue" points="765.145,-60.5001 755.145,-64 765.145,-67.5001 765.145,-60.5001"/>
</g>
</g>
</svg>
