<?xml version="1.0" encoding="UTF-8" standalone="no"?>
<!DOCTYPE svg PUBLIC "-//W3C//DTD SVG 1.1//EN"
 "http://www.w3.org/Graphics/SVG/1.1/DTD/svg11.dtd">
<!-- Generated by graphviz version 2.36.0 (20140111.2315)
 -->
<!-- Title: NifOsg::LoaderImpl::handleProperty Pages: 1 -->
<svg width="2346pt" height="1052pt"
 viewBox="0.00 0.00 2346.00 1052.00" xmlns="http://www.w3.org/2000/svg" xmlns:xlink="http://www.w3.org/1999/xlink">
<g id="graph0" class="graph" transform="scale(1 1) rotate(0) translate(4 1048)">
<title>NifOsg::LoaderImpl::handleProperty</title>
<polygon fill="white" stroke="none" points="-4,4 -4,-1048 2342,-1048 2342,4 -4,4"/>
<!-- Node1 -->
<g id="node1" class="node"><title>Node1</title>
<polygon fill="#bfbfbf" stroke="black" points="0,-948 0,-978 98,-978 98,-948 0,-948"/>
<text text-anchor="start" x="8" y="-966" font-family="FreeSans" font-size="10.00">NifOsg::LoaderImpl</text>
<text text-anchor="middle" x="49" y="-955" font-family="FreeSans" font-size="10.00">::handleProperty</text>
</g>
<!-- Node2 -->
<g id="node2" class="node"><title>Node2</title>
<g id="a_node2"><a xlink:href="classNifOsg_1_1LoaderImpl.html#a54821ffb61a6f3c95bd2428318c9e9e8" target="_top" xlink:title="NifOsg::LoaderImpl\l::applyNodeProperties">
<polygon fill="white" stroke="black" points="134,-948 134,-978 244,-978 244,-948 134,-948"/>
<text text-anchor="start" x="142" y="-966" font-family="FreeSans" font-size="10.00">NifOsg::LoaderImpl</text>
<text text-anchor="middle" x="189" y="-955" font-family="FreeSans" font-size="10.00">::applyNodeProperties</text>
</a>
</g>
</g>
<!-- Node1&#45;&gt;Node2 -->
<g id="edge1" class="edge"><title>Node1&#45;&gt;Node2</title>
<path fill="none" stroke="midnightblue" d="M108.419,-963C116.859,-963 125.516,-963 133.867,-963"/>
<polygon fill="midnightblue" stroke="midnightblue" points="108.266,-959.5 98.2657,-963 108.266,-966.5 108.266,-959.5"/>
</g>
<!-- Node3 -->
<g id="node3" class="node"><title>Node3</title>
<g id="a_node3"><a xlink:href="classNifOsg_1_1LoaderImpl.html#a90d175c89e948a9736b07020c38e5e21" target="_top" xlink:title="NifOsg::LoaderImpl\l::handleNode">
<polygon fill="white" stroke="black" points="280,-948 280,-978 378,-978 378,-948 280,-948"/>
<text text-anchor="start" x="288" y="-966" font-family="FreeSans" font-size="10.00">NifOsg::LoaderImpl</text>
<text text-anchor="middle" x="329" y="-955" font-family="FreeSans" font-size="10.00">::handleNode</text>
</a>
</g>
</g>
<!-- Node2&#45;&gt;Node3 -->
<g id="edge2" class="edge"><title>Node2&#45;&gt;Node3</title>
<path fill="none" stroke="midnightblue" d="M254.196,-963C262.824,-963 271.554,-963 279.84,-963"/>
<polygon fill="midnightblue" stroke="midnightblue" points="254.145,-959.5 244.145,-963 254.145,-966.5 254.145,-959.5"/>
</g>
<!-- Node4 -->
<g id="node4" class="node"><title>Node4</title>
<g id="a_node4"><a xlink:href="classNifOsg_1_1LoaderImpl.html#a43bf8ef11e322585196c9e26cfc7837d" target="_top" xlink:title="NifOsg::LoaderImpl\l::load">
<polygon fill="white" stroke="black" points="414,-948 414,-978 512,-978 512,-948 414,-948"/>
<text text-anchor="start" x="422" y="-966" font-family="FreeSans" font-size="10.00">NifOsg::LoaderImpl</text>
<text text-anchor="middle" x="463" y="-955" font-family="FreeSans" font-size="10.00">::load</text>
</a>
</g>
</g>
<!-- Node3&#45;&gt;Node4 -->
<g id="edge3" class="edge"><title>Node3&#45;&gt;Node4</title>
<path fill="none" stroke="midnightblue" d="M388.292,-963C396.809,-963 405.5,-963 413.786,-963"/>
<polygon fill="midnightblue" stroke="midnightblue" points="388.028,-959.5 378.028,-963 388.028,-966.5 388.028,-959.5"/>
</g>
<!-- Node5 -->
<g id="node5" class="node"><title>Node5</title>
<g id="a_node5"><a xlink:href="classNifOsg_1_1Loader.html#a523aa7cddc70d385f65c06278007eeeb" target="_top" xlink:title="Create a scene graph for the given NIF. Auto&#45;detects when skinning is used and wraps the graph in a S...">
<polygon fill="white" stroke="black" points="548,-953.5 548,-972.5 650,-972.5 650,-953.5 548,-953.5"/>
<text text-anchor="middle" x="599" y="-960.5" font-family="FreeSans" font-size="10.00">NifOsg::Loader::load</text>
</a>
</g>
</g>
<!-- Node4&#45;&gt;Node5 -->
<g id="edge4" class="edge"><title>Node4&#45;&gt;Node5</title>
<path fill="none" stroke="midnightblue" d="M522.553,-963C530.999,-963 539.627,-963 547.889,-963"/>
<polygon fill="midnightblue" stroke="midnightblue" points="522.377,-959.5 512.377,-963 522.377,-966.5 522.377,-959.5"/>
</g>
<!-- Node6 -->
<g id="node6" class="node"><title>Node6</title>
<g id="a_node6"><a xlink:href="namespaceResource.html#a1597cf6af8ffec1e4e0ae7a0fe7a10c6" target="_top" xlink:title="Resource::load">
<polygon fill="white" stroke="black" points="686,-953.5 686,-972.5 766,-972.5 766,-953.5 686,-953.5"/>
<text text-anchor="middle" x="726" y="-960.5" font-family="FreeSans" font-size="10.00">Resource::load</text>
</a>
</g>
</g>
<!-- Node5&#45;&gt;Node6 -->
<g id="edge5" class="edge"><title>Node5&#45;&gt;Node6</title>
<path fill="none" stroke="midnightblue" d="M660.2,-963C668.842,-963 677.542,-963 685.64,-963"/>
<polygon fill="midnightblue" stroke="midnightblue" points="660.122,-959.5 650.122,-963 660.122,-966.5 660.122,-959.5"/>
</g>
<!-- Node7 -->
<g id="node7" class="node"><title>Node7</title>
<g id="a_node7"><a xlink:href="classResource_1_1SceneManager.html#a01903b2038c6bcda25436eccb0d10b04" target="_top" xlink:title="Resource::SceneManager\l::getTemplate">
<polygon fill="white" stroke="black" points="802.5,-948 802.5,-978 929.5,-978 929.5,-948 802.5,-948"/>
<text text-anchor="start" x="810.5" y="-966" font-family="FreeSans" font-size="10.00">Resource::SceneManager</text>
<text text-anchor="middle" x="866" y="-955" font-family="FreeSans" font-size="10.00">::getTemplate</text>
</a>
</g>
</g>
<!-- Node6&#45;&gt;Node7 -->
<g id="edge6" class="edge"><title>Node6&#45;&gt;Node7</title>
<path fill="none" stroke="midnightblue" d="M776.282,-963C784.776,-963 793.705,-963 802.492,-963"/>
<polygon fill="midnightblue" stroke="midnightblue" points="776.176,-959.5 766.176,-963 776.176,-966.5 776.176,-959.5"/>
</g>
<!-- Node8 -->
<g id="node8" class="node"><title>Node8</title>
<g id="a_node8"><a xlink:href="classMWRender_1_1PreloadCommonAssetsWorkItem.html#abe7ce2ed9089b68b583a692c5a5e58d6" target="_top" xlink:title="Override in a derived WorkItem to perform actual work. ">
<polygon fill="white" stroke="black" points="966,-1014 966,-1044 1136,-1044 1136,-1014 966,-1014"/>
<text text-anchor="start" x="974" y="-1032" font-family="FreeSans" font-size="10.00">MWRender::PreloadCommonAssets</text>
<text text-anchor="middle" x="1051" y="-1021" font-family="FreeSans" font-size="10.00">WorkItem::doWork</text>
</a>
</g>
</g>
<!-- Node7&#45;&gt;Node8 -->
<g id="edge7" class="edge"><title>Node7&#45;&gt;Node8</title>
<path fill="none" stroke="midnightblue" d="M917.805,-981.538C933.273,-987.165 950.327,-993.352 966,-999 979.549,-1003.88 994.339,-1009.18 1007.68,-1013.94"/>
<polygon fill="midnightblue" stroke="midnightblue" points="918.999,-978.248 908.405,-978.116 916.605,-984.826 918.999,-978.248"/>
</g>
<!-- Node9 -->
<g id="node9" class="node"><title>Node9</title>
<g id="a_node9"><a xlink:href="classMWWorld_1_1PreloadItem.html#aeeb59859079ca1443a470503b6e22990" target="_top" xlink:title="Preload work to be called from the worker thread. ">
<polygon fill="white" stroke="black" points="1573,-913 1573,-943 1689,-943 1689,-913 1573,-913"/>
<text text-anchor="start" x="1581" y="-931" font-family="FreeSans" font-size="10.00">MWWorld::PreloadItem</text>
<text text-anchor="middle" x="1631" y="-920" font-family="FreeSans" font-size="10.00">::doWork</text>
</a>
</g>
</g>
<!-- Node7&#45;&gt;Node9 -->
<g id="edge8" class="edge"><title>Node7&#45;&gt;Node9</title>
<path fill="none" stroke="midnightblue" d="M939.86,-964.639C948.667,-964.788 957.537,-964.915 966,-965 1208.8,-967.452 1270.42,-970.466 1512,-946 1531.9,-943.985 1553.56,-940.931 1572.83,-937.909"/>
<polygon fill="midnightblue" stroke="midnightblue" points="939.639,-961.135 929.578,-964.456 939.514,-968.134 939.639,-961.135"/>
</g>
<!-- Node10 -->
<g id="node10" class="node"><title>Node10</title>
<g id="a_node10"><a xlink:href="classResource_1_1BulletShapeManager.html#acad796a9d35e62be3c2ba0a9051d84a5" target="_top" xlink:title="Resource::BulletShapeManager\l::getShape">
<polygon fill="white" stroke="black" points="975,-926 975,-956 1127,-956 1127,-926 975,-926"/>
<text text-anchor="start" x="983" y="-944" font-family="FreeSans" font-size="10.00">Resource::BulletShapeManager</text>
<text text-anchor="middle" x="1051" y="-933" font-family="FreeSans" font-size="10.00">::getShape</text>
</a>
</g>
</g>
<!-- Node7&#45;&gt;Node10 -->
<g id="edge9" class="edge"><title>Node7&#45;&gt;Node10</title>
<path fill="none" stroke="midnightblue" d="M939.713,-954.259C951.226,-952.874 963.153,-951.441 974.723,-950.05"/>
<polygon fill="midnightblue" stroke="midnightblue" points="939.233,-950.791 929.722,-955.46 940.068,-957.741 939.233,-950.791"/>
</g>
<!-- Node14 -->
<g id="node14" class="node"><title>Node14</title>
<g id="a_node14"><a xlink:href="classResource_1_1SceneManager.html#a0b3d33cb5ff1935dcb2ef16b649878e2" target="_top" xlink:title="Resource::SceneManager\l::createInstance">
<polygon fill="white" stroke="black" points="987.5,-795 987.5,-825 1114.5,-825 1114.5,-795 987.5,-795"/>
<text text-anchor="start" x="995.5" y="-813" font-family="FreeSans" font-size="10.00">Resource::SceneManager</text>
<text text-anchor="middle" x="1051" y="-802" font-family="FreeSans" font-size="10.00">::createInstance</text>
</a>
</g>
</g>
<!-- Node7&#45;&gt;Node14 -->
<g id="edge15" class="edge"><title>Node7&#45;&gt;Node14</title>
<path fill="none" stroke="midnightblue" d="M893.201,-941.094C930.852,-909.615 999.301,-852.388 1031.86,-825.168"/>
<polygon fill="midnightblue" stroke="midnightblue" points="890.643,-938.671 885.216,-947.77 895.133,-944.041 890.643,-938.671"/>
</g>
<!-- Node10&#45;&gt;Node9 -->
<g id="edge10" class="edge"><title>Node10&#45;&gt;Node9</title>
<path fill="none" stroke="midnightblue" d="M1137.47,-939.078C1256.91,-936.391 1470.56,-931.586 1572.64,-929.29"/>
<polygon fill="midnightblue" stroke="midnightblue" points="1137.19,-935.583 1127.27,-939.307 1137.34,-942.581 1137.19,-935.583"/>
</g>
<!-- Node11 -->
<g id="node11" class="node"><title>Node11</title>
<g id="a_node11"><a xlink:href="classResource_1_1BulletShapeManager.html#aa01a8d4de0aa17cfd68778524d73c349" target="_top" xlink:title="Resource::BulletShapeManager\l::createInstance">
<polygon fill="white" stroke="black" points="1172,-888 1172,-918 1324,-918 1324,-888 1172,-888"/>
<text text-anchor="start" x="1180" y="-906" font-family="FreeSans" font-size="10.00">Resource::BulletShapeManager</text>
<text text-anchor="middle" x="1248" y="-895" font-family="FreeSans" font-size="10.00">::createInstance</text>
</a>
</g>
</g>
<!-- Node10&#45;&gt;Node11 -->
<g id="edge11" class="edge"><title>Node10&#45;&gt;Node11</title>
<path fill="none" stroke="midnightblue" d="M1137.2,-924.397C1148.76,-922.144 1160.56,-919.845 1171.93,-917.63"/>
<polygon fill="midnightblue" stroke="midnightblue" points="1136.26,-921.014 1127.11,-926.363 1137.6,-927.885 1136.26,-921.014"/>
</g>
<!-- Node12 -->
<g id="node12" class="node"><title>Node12</title>
<g id="a_node12"><a xlink:href="classResource_1_1BulletShapeManager.html#a83ee51419a0e4da5ca07185fa1d65666" target="_top" xlink:title="Resource::BulletShapeManager\l::cacheInstance">
<polygon fill="white" stroke="black" points="1360,-888 1360,-918 1512,-918 1512,-888 1360,-888"/>
<text text-anchor="start" x="1368" y="-906" font-family="FreeSans" font-size="10.00">Resource::BulletShapeManager</text>
<text text-anchor="middle" x="1436" y="-895" font-family="FreeSans" font-size="10.00">::cacheInstance</text>
</a>
</g>
</g>
<!-- Node11&#45;&gt;Node12 -->
<g id="edge12" class="edge"><title>Node11&#45;&gt;Node12</title>
<path fill="none" stroke="midnightblue" d="M1334.15,-903C1342.74,-903 1351.43,-903 1359.9,-903"/>
<polygon fill="midnightblue" stroke="midnightblue" points="1334.12,-899.5 1324.12,-903 1334.12,-906.5 1334.12,-899.5"/>
</g>
<!-- Node13 -->
<g id="node13" class="node"><title>Node13</title>
<g id="a_node13"><a xlink:href="classResource_1_1BulletShapeManager.html#acbcfcaca8069a77f1fc40477bfc956ac" target="_top" xlink:title="Resource::BulletShapeManager\l::getInstance">
<polygon fill="white" stroke="black" points="1360,-839 1360,-869 1512,-869 1512,-839 1360,-839"/>
<text text-anchor="start" x="1368" y="-857" font-family="FreeSans" font-size="10.00">Resource::BulletShapeManager</text>
<text text-anchor="middle" x="1436" y="-846" font-family="FreeSans" font-size="10.00">::getInstance</text>
</a>
</g>
</g>
<!-- Node11&#45;&gt;Node13 -->
<g id="edge14" class="edge"><title>Node11&#45;&gt;Node13</title>
<path fill="none" stroke="midnightblue" d="M1315.9,-885.377C1336.24,-880.016 1358.41,-874.177 1378.04,-869.006"/>
<polygon fill="midnightblue" stroke="midnightblue" points="1314.85,-882.033 1306.07,-887.965 1316.63,-888.802 1314.85,-882.033"/>
</g>
<!-- Node12&#45;&gt;Node9 -->
<g id="edge13" class="edge"><title>Node12&#45;&gt;Node9</title>
<path fill="none" stroke="midnightblue" d="M1522.21,-914.038C1539.39,-916.262 1557.04,-918.55 1572.97,-920.613"/>
<polygon fill="midnightblue" stroke="midnightblue" points="1522.54,-910.551 1512.17,-912.737 1521.64,-917.493 1522.54,-910.551"/>
</g>
<!-- Node15 -->
<g id="node15" class="node"><title>Node15</title>
<g id="a_node15"><a xlink:href="classResource_1_1SceneManager.html#a5eaac56a5cc1669b3a75e2acd142264e" target="_top" xlink:title="Resource::SceneManager\l::cacheInstance">
<polygon fill="white" stroke="black" points="1184.5,-795 1184.5,-825 1311.5,-825 1311.5,-795 1184.5,-795"/>
<text text-anchor="start" x="1192.5" y="-813" font-family="FreeSans" font-size="10.00">Resource::SceneManager</text>
<text text-anchor="middle" x="1248" y="-802" font-family="FreeSans" font-size="10.00">::cacheInstance</text>
</a>
</g>
</g>
<!-- Node14&#45;&gt;Node15 -->
<g id="edge16" class="edge"><title>Node14&#45;&gt;Node15</title>
<path fill="none" stroke="midnightblue" d="M1124.59,-810C1144.17,-810 1165.19,-810 1184.18,-810"/>
<polygon fill="midnightblue" stroke="midnightblue" points="1124.5,-806.5 1114.5,-810 1124.5,-813.5 1124.5,-806.5"/>
</g>
<!-- Node16 -->
<g id="node16" class="node"><title>Node16</title>
<g id="a_node16"><a xlink:href="classResource_1_1SceneManager.html#ae146e6f78ef122d5e8701b1162cbb47b" target="_top" xlink:title="Resource::SceneManager\l::getInstance">
<polygon fill="white" stroke="black" points="1184.5,-318 1184.5,-348 1311.5,-348 1311.5,-318 1184.5,-318"/>
<text text-anchor="start" x="1192.5" y="-336" font-family="FreeSans" font-size="10.00">Resource::SceneManager</text>
<text text-anchor="middle" x="1248" y="-325" font-family="FreeSans" font-size="10.00">::getInstance</text>
</a>
</g>
</g>
<!-- Node14&#45;&gt;Node16 -->
<g id="edge18" class="edge"><title>Node14&#45;&gt;Node16</title>
<path fill="none" stroke="midnightblue" d="M1062,-785.53C1096.92,-700.119 1212.78,-416.705 1240.84,-348.067"/>
<polygon fill="midnightblue" stroke="midnightblue" points="1058.7,-784.356 1058.16,-794.937 1065.18,-787.005 1058.7,-784.356"/>
</g>
<!-- Node15&#45;&gt;Node9 -->
<g id="edge17" class="edge"><title>Node15&#45;&gt;Node9</title>
<path fill="none" stroke="midnightblue" d="M1322.01,-798.081C1378.23,-792.799 1455.61,-794.351 1512,-830 1539.26,-847.233 1523.92,-871.553 1548,-893 1557.36,-901.338 1569.01,-907.904 1580.56,-912.984"/>
<polygon fill="midnightblue" stroke="midnightblue" points="1321.36,-794.63 1311.77,-799.14 1322.08,-801.593 1321.36,-794.63"/>
</g>
<!-- Node17 -->
<g id="node17" class="node"><title>Node17</title>
<g id="a_node17"><a xlink:href="classMWRender_1_1Animation.html#a79899e050e52d610acfeb3840d5a31d4" target="_top" xlink:title="MWRender::Animation\l::setObjectRoot">
<polygon fill="white" stroke="black" points="1379.5,-751 1379.5,-781 1492.5,-781 1492.5,-751 1379.5,-751"/>
<text text-anchor="start" x="1387.5" y="-769" font-family="FreeSans" font-size="10.00">MWRender::Animation</text>
<text text-anchor="middle" x="1436" y="-758" font-family="FreeSans" font-size="10.00">::setObjectRoot</text>
</a>
</g>
</g>
<!-- Node16&#45;&gt;Node17 -->
<g id="edge19" class="edge"><title>Node16&#45;&gt;Node17</title>
<path fill="none" stroke="midnightblue" d="M1259.47,-357.38C1293.57,-436.757 1400.8,-686.383 1428.45,-750.742"/>
<polygon fill="midnightblue" stroke="midnightblue" points="1262.67,-355.964 1255.51,-348.157 1256.24,-358.726 1262.67,-355.964"/>
</g>
<!-- Node24 -->
<g id="node24" class="node"><title>Node24</title>
<g id="a_node24"><a xlink:href="classMWRender_1_1Animation.html#a1ad2390344ae9c1560289082c500be9e" target="_top" xlink:title="Add an effect mesh attached to a bone or the insert scene node. ">
<polygon fill="white" stroke="black" points="1379.5,-541 1379.5,-571 1492.5,-571 1492.5,-541 1379.5,-541"/>
<text text-anchor="start" x="1387.5" y="-559" font-family="FreeSans" font-size="10.00">MWRender::Animation</text>
<text text-anchor="middle" x="1436" y="-548" font-family="FreeSans" font-size="10.00">::addEffect</text>
</a>
</g>
</g>
<!-- Node16&#45;&gt;Node24 -->
<g id="edge26" class="edge"><title>Node16&#45;&gt;Node24</title>
<path fill="none" stroke="midnightblue" d="M1268.35,-356.201C1306.5,-401.939 1390.48,-502.619 1422.37,-540.86"/>
<polygon fill="midnightblue" stroke="midnightblue" points="1270.88,-353.765 1261.78,-348.328 1265.5,-358.249 1270.88,-353.765"/>
</g>
<!-- Node34 -->
<g id="node34" class="node"><title>Node34</title>
<g id="a_node34"><a xlink:href="classMWRender_1_1CreatureWeaponAnimation.html#ab439fd428cc0c7adb0441bd701c52ca9" target="_top" xlink:title="MWRender::CreatureWeapon\lAnimation::updatePart">
<polygon fill="white" stroke="black" points="1763.5,-399 1763.5,-429 1904.5,-429 1904.5,-399 1763.5,-399"/>
<text text-anchor="start" x="1771.5" y="-417" font-family="FreeSans" font-size="10.00">MWRender::CreatureWeapon</text>
<text text-anchor="middle" x="1834" y="-406" font-family="FreeSans" font-size="10.00">Animation::updatePart</text>
</a>
</g>
</g>
<!-- Node16&#45;&gt;Node34 -->
<g id="edge38" class="edge"><title>Node16&#45;&gt;Node34</title>
<path fill="none" stroke="midnightblue" d="M1273.3,-354.908C1294.48,-372.465 1326.92,-395.793 1360,-406 1433.08,-428.553 1650.19,-422.524 1763.07,-417.565"/>
<polygon fill="midnightblue" stroke="midnightblue" points="1275.37,-352.074 1265.48,-348.265 1270.83,-357.408 1275.37,-352.074"/>
</g>
<!-- Node36 -->
<g id="node36" class="node"><title>Node36</title>
<g id="a_node36"><a xlink:href="classMWRender_1_1EffectManager.html#ae0fca51c4858dc2be1e7f9175b3b0225" target="_top" xlink:title="Add an effect. When it&#39;s finished playing, it will be removed automatically. ">
<polygon fill="white" stroke="black" points="1370.5,-367 1370.5,-397 1501.5,-397 1501.5,-367 1370.5,-367"/>
<text text-anchor="start" x="1378.5" y="-385" font-family="FreeSans" font-size="10.00">MWRender::EffectManager</text>
<text text-anchor="middle" x="1436" y="-374" font-family="FreeSans" font-size="10.00">::addEffect</text>
</a>
</g>
</g>
<!-- Node16&#45;&gt;Node36 -->
<g id="edge41" class="edge"><title>Node16&#45;&gt;Node36</title>
<path fill="none" stroke="midnightblue" d="M1315.9,-350.623C1336.24,-355.984 1358.41,-361.823 1378.04,-366.994"/>
<polygon fill="midnightblue" stroke="midnightblue" points="1316.63,-347.198 1306.07,-348.035 1314.85,-353.967 1316.63,-347.198"/>
</g>
<!-- Node37 -->
<g id="node37" class="node"><title>Node37</title>
<g id="a_node37"><a xlink:href="classMWRender_1_1NpcAnimation.html#a40defa0c9de4fda5e0cc499d331b9a8b" target="_top" xlink:title="MWRender::NpcAnimation\l::insertBoundedPart">
<polygon fill="white" stroke="black" points="1371,-318 1371,-348 1501,-348 1501,-318 1371,-318"/>
<text text-anchor="start" x="1379" y="-336" font-family="FreeSans" font-size="10.00">MWRender::NpcAnimation</text>
<text text-anchor="middle" x="1436" y="-325" font-family="FreeSans" font-size="10.00">::insertBoundedPart</text>
</a>
</g>
</g>
<!-- Node16&#45;&gt;Node37 -->
<g id="edge42" class="edge"><title>Node16&#45;&gt;Node37</title>
<path fill="none" stroke="midnightblue" d="M1322.17,-333C1338.29,-333 1355.25,-333 1370.98,-333"/>
<polygon fill="midnightblue" stroke="midnightblue" points="1321.71,-329.5 1311.71,-333 1321.71,-336.5 1321.71,-329.5"/>
</g>
<!-- Node39 -->
<g id="node39" class="node"><title>Node39</title>
<g id="a_node39"><a xlink:href="classMWRender_1_1SkyManager.html#a689ad526a72101c45c8738137d6d1b5c" target="_top" xlink:title="no need to call this, automatically done on first enable() ">
<polygon fill="white" stroke="black" points="1374.5,-269 1374.5,-299 1497.5,-299 1497.5,-269 1374.5,-269"/>
<text text-anchor="start" x="1382.5" y="-287" font-family="FreeSans" font-size="10.00">MWRender::SkyManager</text>
<text text-anchor="middle" x="1436" y="-276" font-family="FreeSans" font-size="10.00">::create</text>
</a>
</g>
</g>
<!-- Node16&#45;&gt;Node39 -->
<g id="edge44" class="edge"><title>Node16&#45;&gt;Node39</title>
<path fill="none" stroke="midnightblue" d="M1315.9,-315.377C1336.24,-310.016 1358.41,-304.177 1378.04,-299.006"/>
<polygon fill="midnightblue" stroke="midnightblue" points="1314.85,-312.033 1306.07,-317.965 1316.63,-318.802 1314.85,-312.033"/>
</g>
<!-- Node41 -->
<g id="node41" class="node"><title>Node41</title>
<g id="a_node41"><a xlink:href="classMWRender_1_1SkyManager.html#a2bf42c8734feb348d42efc8171d36986" target="_top" xlink:title="MWRender::SkyManager\l::setWeather">
<polygon fill="white" stroke="black" points="1374.5,-220 1374.5,-250 1497.5,-250 1497.5,-220 1374.5,-220"/>
<text text-anchor="start" x="1382.5" y="-238" font-family="FreeSans" font-size="10.00">MWRender::SkyManager</text>
<text text-anchor="middle" x="1436" y="-227" font-family="FreeSans" font-size="10.00">::setWeather</text>
</a>
</g>
</g>
<!-- Node16&#45;&gt;Node41 -->
<g id="edge46" class="edge"><title>Node16&#45;&gt;Node41</title>
<path fill="none" stroke="midnightblue" d="M1276.15,-311.769C1297.86,-295.578 1329.61,-273.639 1360,-259 1366.77,-255.737 1374.1,-252.769 1381.43,-250.118"/>
<polygon fill="midnightblue" stroke="midnightblue" points="1273.92,-309.061 1268.05,-317.882 1278.14,-314.646 1273.92,-309.061"/>
</g>
<!-- Node43 -->
<g id="node43" class="node"><title>Node43</title>
<g id="a_node43"><a xlink:href="classMWRender_1_1WeaponAnimation.html#a5f6768a9fecfef40f8d82d7e8e7c8d65" target="_top" xlink:title="MWRender::WeaponAnimation\l::attachArrow">
<polygon fill="white" stroke="black" points="1362,-171 1362,-201 1510,-201 1510,-171 1362,-171"/>
<text text-anchor="start" x="1370" y="-189" font-family="FreeSans" font-size="10.00">MWRender::WeaponAnimation</text>
<text text-anchor="middle" x="1436" y="-178" font-family="FreeSans" font-size="10.00">::attachArrow</text>
</a>
</g>
</g>
<!-- Node16&#45;&gt;Node43 -->
<g id="edge48" class="edge"><title>Node16&#45;&gt;Node43</title>
<path fill="none" stroke="midnightblue" d="M1264.38,-309.486C1283.6,-281.865 1319,-236.462 1360,-210 1365.28,-206.59 1371.09,-203.63 1377.06,-201.069"/>
<polygon fill="midnightblue" stroke="midnightblue" points="1261.46,-307.549 1258.72,-317.782 1267.24,-311.493 1261.46,-307.549"/>
</g>
<!-- Node46 -->
<g id="node46" class="node"><title>Node46</title>
<g id="a_node46"><a xlink:href="classMWWorld_1_1ProjectileManager.html#a1dd1d3fcab7df217bad61f34f3f6964d" target="_top" xlink:title="MWWorld::ProjectileManager\l::createModel">
<polygon fill="white" stroke="black" points="1365.5,-98 1365.5,-128 1506.5,-128 1506.5,-98 1365.5,-98"/>
<text text-anchor="start" x="1373.5" y="-116" font-family="FreeSans" font-size="10.00">MWWorld::ProjectileManager</text>
<text text-anchor="middle" x="1436" y="-105" font-family="FreeSans" font-size="10.00">::createModel</text>
</a>
</g>
</g>
<!-- Node16&#45;&gt;Node46 -->
<g id="edge52" class="edge"><title>Node16&#45;&gt;Node46</title>
<path fill="none" stroke="midnightblue" d="M1260.54,-308.502C1278.19,-272.893 1314.66,-206.166 1360,-161 1373.14,-147.907 1390.44,-136.542 1405.12,-128.162"/>
<polygon fill="midnightblue" stroke="midnightblue" points="1257.3,-307.154 1256.07,-317.677 1263.59,-310.221 1257.3,-307.154"/>
</g>
<!-- Node50 -->
<g id="node50" class="node"><title>Node50</title>
<g id="a_node50"><a xlink:href="classResource_1_1SceneManager.html#a8e86b6f2121a6dae71edd662577d80d2" target="_top" xlink:title="Resource::SceneManager\l::getInstance">
<polygon fill="white" stroke="black" points="1372.5,-49 1372.5,-79 1499.5,-79 1499.5,-49 1372.5,-49"/>
<text text-anchor="start" x="1380.5" y="-67" font-family="FreeSans" font-size="10.00">Resource::SceneManager</text>
<text text-anchor="middle" x="1436" y="-56" font-family="FreeSans" font-size="10.00">::getInstance</text>
</a>
</g>
</g>
<!-- Node16&#45;&gt;Node50 -->
<g id="edge56" class="edge"><title>Node16&#45;&gt;Node50</title>
<path fill="none" stroke="midnightblue" d="M1253.36,-307.995C1263.27,-258.687 1292.1,-148.468 1360,-88 1363.88,-84.5451 1368.26,-81.587 1372.91,-79.0544"/>
<polygon fill="midnightblue" stroke="midnightblue" points="1249.93,-307.341 1251.48,-317.821 1256.8,-308.659 1249.93,-307.341"/>
</g>
<!-- Node18 -->
<g id="node18" class="node"><title>Node18</title>
<g id="a_node18"><a xlink:href="classMWRender_1_1ObjectAnimation.html#aef4ebbb9050af74efe7bae5749c06858" target="_top" xlink:title="MWRender::ObjectAnimation\l::ObjectAnimation">
<polygon fill="white" stroke="black" points="1560.5,-854 1560.5,-884 1701.5,-884 1701.5,-854 1560.5,-854"/>
<text text-anchor="start" x="1568.5" y="-872" font-family="FreeSans" font-size="10.00">MWRender::ObjectAnimation</text>
<text text-anchor="middle" x="1631" y="-861" font-family="FreeSans" font-size="10.00">::ObjectAnimation</text>
</a>
</g>
</g>
<!-- Node17&#45;&gt;Node18 -->
<g id="edge20" class="edge"><title>Node17&#45;&gt;Node18</title>
<path fill="none" stroke="midnightblue" d="M1495.29,-785.533C1501.19,-788.603 1506.89,-792.081 1512,-796 1533.17,-812.221 1526.17,-828.688 1548,-844 1553.48,-847.846 1559.57,-851.112 1565.89,-853.883"/>
<polygon fill="midnightblue" stroke="midnightblue" points="1496.44,-782.2 1485.9,-781.041 1493.41,-788.514 1496.44,-782.2"/>
</g>
<!-- Node19 -->
<g id="node19" class="node"><title>Node19</title>
<g id="a_node19"><a xlink:href="classMWRender_1_1CreatureAnimation.html#a59a0d6b902a85c22537bea81847a40d1" target="_top" xlink:title="MWRender::CreatureAnimation\l::CreatureAnimation">
<polygon fill="white" stroke="black" points="1556.5,-805 1556.5,-835 1705.5,-835 1705.5,-805 1556.5,-805"/>
<text text-anchor="start" x="1564.5" y="-823" font-family="FreeSans" font-size="10.00">MWRender::CreatureAnimation</text>
<text text-anchor="middle" x="1631" y="-812" font-family="FreeSans" font-size="10.00">::CreatureAnimation</text>
</a>
</g>
</g>
<!-- Node17&#45;&gt;Node19 -->
<g id="edge21" class="edge"><title>Node17&#45;&gt;Node19</title>
<path fill="none" stroke="midnightblue" d="M1500.67,-783.813C1525.12,-790.654 1552.76,-798.388 1576.19,-804.945"/>
<polygon fill="midnightblue" stroke="midnightblue" points="1501.33,-780.366 1490.76,-781.042 1499.45,-787.107 1501.33,-780.366"/>
</g>
<!-- Node20 -->
<g id="node20" class="node"><title>Node20</title>
<g id="a_node20"><a xlink:href="classMWRender_1_1CreatureWeaponAnimation.html#a1016608182292ace41cb8af7e72e87c0" target="_top" xlink:title="MWRender::CreatureWeapon\lAnimation::CreatureWeaponAnimation">
<polygon fill="white" stroke="black" points="2158,-613 2158,-643 2338,-643 2338,-613 2158,-613"/>
<text text-anchor="start" x="2166" y="-631" font-family="FreeSans" font-size="10.00">MWRender::CreatureWeapon</text>
<text text-anchor="middle" x="2248" y="-620" font-family="FreeSans" font-size="10.00">Animation::CreatureWeaponAnimation</text>
</a>
</g>
</g>
<!-- Node17&#45;&gt;Node20 -->
<g id="edge22" class="edge"><title>Node17&#45;&gt;Node20</title>
<path fill="none" stroke="midnightblue" d="M1503.02,-771.833C1596.44,-778.465 1772.11,-784.953 1918,-756 2034.32,-732.914 2162.76,-671.598 2218.55,-643.035"/>
<polygon fill="midnightblue" stroke="midnightblue" points="1503.09,-768.329 1492.86,-771.088 1502.58,-775.31 1503.09,-768.329"/>
</g>
<!-- Node21 -->
<g id="node21" class="node"><title>Node21</title>
<g id="a_node21"><a xlink:href="classMWRender_1_1NpcAnimation.html#acf50b96cffb19c225200c4bff36fbce7" target="_top" xlink:title="MWRender::NpcAnimation\l::updateNpcBase">
<polygon fill="white" stroke="black" points="1566,-717 1566,-747 1696,-747 1696,-717 1566,-717"/>
<text text-anchor="start" x="1574" y="-735" font-family="FreeSans" font-size="10.00">MWRender::NpcAnimation</text>
<text text-anchor="middle" x="1631" y="-724" font-family="FreeSans" font-size="10.00">::updateNpcBase</text>
</a>
</g>
</g>
<!-- Node17&#45;&gt;Node21 -->
<g id="edge23" class="edge"><title>Node17&#45;&gt;Node21</title>
<path fill="none" stroke="midnightblue" d="M1502.45,-754.47C1522.96,-750.856 1545.57,-746.873 1565.99,-743.277"/>
<polygon fill="midnightblue" stroke="midnightblue" points="1501.81,-751.029 1492.56,-756.211 1503.02,-757.923 1501.81,-751.029"/>
</g>
<!-- Node22 -->
<g id="node22" class="node"><title>Node22</title>
<g id="a_node22"><a xlink:href="classMWRender_1_1NpcAnimation.html#a0f12942b0015ca2fae3b43f6c2f9d2b7" target="_top" xlink:title="MWRender::NpcAnimation\l::NpcAnimation">
<polygon fill="white" stroke="black" points="1769,-717 1769,-747 1899,-747 1899,-717 1769,-717"/>
<text text-anchor="start" x="1777" y="-735" font-family="FreeSans" font-size="10.00">MWRender::NpcAnimation</text>
<text text-anchor="middle" x="1834" y="-724" font-family="FreeSans" font-size="10.00">::NpcAnimation</text>
</a>
</g>
</g>
<!-- Node21&#45;&gt;Node22 -->
<g id="edge24" class="edge"><title>Node21&#45;&gt;Node22</title>
<path fill="none" stroke="midnightblue" d="M1706.38,-732C1726.87,-732 1748.91,-732 1768.77,-732"/>
<polygon fill="midnightblue" stroke="midnightblue" points="1706.15,-728.5 1696.15,-732 1706.15,-735.5 1706.15,-728.5"/>
</g>
<!-- Node23 -->
<g id="node23" class="node"><title>Node23</title>
<g id="a_node23"><a xlink:href="classMWRender_1_1NpcAnimation.html#a8b37aef38ba00e4f82ffd785141c1321" target="_top" xlink:title="Rebuilds the NPC, updating their root model, animation sources, and equipment. ">
<polygon fill="white" stroke="red" points="1769,-668 1769,-698 1899,-698 1899,-668 1769,-668"/>
<text text-anchor="start" x="1777" y="-686" font-family="FreeSans" font-size="10.00">MWRender::NpcAnimation</text>
<text text-anchor="middle" x="1834" y="-675" font-family="FreeSans" font-size="10.00">::rebuild</text>
</a>
</g>
</g>
<!-- Node21&#45;&gt;Node23 -->
<g id="edge25" class="edge"><title>Node21&#45;&gt;Node23</title>
<path fill="none" stroke="midnightblue" d="M1703.39,-714.596C1725.63,-709.176 1749.94,-703.248 1771.44,-698.006"/>
<polygon fill="midnightblue" stroke="midnightblue" points="1702.56,-711.196 1693.67,-716.965 1704.22,-717.997 1702.56,-711.196"/>
</g>
<!-- Node25 -->
<g id="node25" class="node"><title>Node25</title>
<g id="a_node25"><a xlink:href="classMWMechanics_1_1CharacterController.html#aca17757fd8136b502041f7637398f90e" target="_top" xlink:title="MWMechanics::CharacterController\l::updateWeaponState">
<polygon fill="white" stroke="black" points="1750,-619 1750,-649 1918,-649 1918,-619 1750,-619"/>
<text text-anchor="start" x="1758" y="-637" font-family="FreeSans" font-size="10.00">MWMechanics::CharacterController</text>
<text text-anchor="middle" x="1834" y="-626" font-family="FreeSans" font-size="10.00">::updateWeaponState</text>
</a>
</g>
</g>
<!-- Node24&#45;&gt;Node25 -->
<g id="edge27" class="edge"><title>Node24&#45;&gt;Node25</title>
<path fill="none" stroke="midnightblue" d="M1451.98,-579.892C1470.64,-607.138 1505.32,-650.209 1548,-668 1616.1,-696.386 1640.94,-678.233 1714,-668 1721.15,-666.998 1753.64,-657.664 1782.86,-649.029"/>
<polygon fill="midnightblue" stroke="midnightblue" points="1454.73,-577.706 1446.28,-571.317 1448.9,-581.582 1454.73,-577.706"/>
</g>
<!-- Node27 -->
<g id="node27" class="node"><title>Node27</title>
<g id="a_node27"><a xlink:href="classMWMechanics_1_1CastSpell.html#a0b93caa45a3da548f198f6ed8b3d2be7" target="_top" xlink:title="MWMechanics::CastSpell\l::inflict">
<polygon fill="white" stroke="black" points="1771,-555 1771,-585 1897,-585 1897,-555 1771,-555"/>
<text text-anchor="start" x="1779" y="-573" font-family="FreeSans" font-size="10.00">MWMechanics::CastSpell</text>
<text text-anchor="middle" x="1834" y="-562" font-family="FreeSans" font-size="10.00">::inflict</text>
</a>
</g>
</g>
<!-- Node24&#45;&gt;Node27 -->
<g id="edge29" class="edge"><title>Node24&#45;&gt;Node27</title>
<path fill="none" stroke="midnightblue" d="M1502.62,-572.602C1517.45,-575.677 1533.19,-578.417 1548,-580 1624.43,-588.168 1712.97,-582.751 1770.83,-577.223"/>
<polygon fill="midnightblue" stroke="midnightblue" points="1503.03,-569.111 1492.52,-570.429 1501.56,-575.955 1503.03,-569.111"/>
</g>
<!-- Node30 -->
<g id="node30" class="node"><title>Node30</title>
<g id="a_node30"><a xlink:href="classMWMechanics_1_1CastSpell.html#aad516a4d006a0d52f86cf871cb49503f" target="_top" xlink:title="MWMechanics::CastSpell\l::applyInstantEffect">
<polygon fill="white" stroke="red" points="1568,-541 1568,-571 1694,-571 1694,-541 1568,-541"/>
<text text-anchor="start" x="1576" y="-559" font-family="FreeSans" font-size="10.00">MWMechanics::CastSpell</text>
<text text-anchor="middle" x="1631" y="-548" font-family="FreeSans" font-size="10.00">::applyInstantEffect</text>
</a>
</g>
</g>
<!-- Node24&#45;&gt;Node30 -->
<g id="edge32" class="edge"><title>Node24&#45;&gt;Node30</title>
<path fill="none" stroke="midnightblue" d="M1502.69,-556C1523.72,-556 1546.93,-556 1567.71,-556"/>
<polygon fill="midnightblue" stroke="midnightblue" points="1502.56,-552.5 1492.56,-556 1502.56,-559.5 1502.56,-552.5"/>
</g>
<!-- Node31 -->
<g id="node31" class="node"><title>Node31</title>
<g id="a_node31"><a xlink:href="classMWMechanics_1_1CastSpell.html#a4e4369b3c09094115d3bdf6bf14445e9" target="_top" xlink:title="MWMechanics::CastSpell\l::playSpellCastingEffects">
<polygon fill="white" stroke="red" points="1568,-629 1568,-659 1694,-659 1694,-629 1568,-629"/>
<text text-anchor="start" x="1576" y="-647" font-family="FreeSans" font-size="10.00">MWMechanics::CastSpell</text>
<text text-anchor="middle" x="1631" y="-636" font-family="FreeSans" font-size="10.00">::playSpellCastingEffects</text>
</a>
</g>
</g>
<!-- Node24&#45;&gt;Node31 -->
<g id="edge34" class="edge"><title>Node24&#45;&gt;Node31</title>
<path fill="none" stroke="midnightblue" d="M1472.22,-575.915C1493.76,-587.711 1522.07,-602.542 1548,-614 1559.92,-619.27 1573.09,-624.384 1585.32,-628.853"/>
<polygon fill="midnightblue" stroke="midnightblue" points="1473.88,-572.832 1463.43,-571.064 1470.5,-578.96 1473.88,-572.832"/>
</g>
<!-- Node32 -->
<g id="node32" class="node"><title>Node32</title>
<g id="a_node32"><a xlink:href="structMWMechanics_1_1UpdateSummonedCreatures.html#aca0efbdf8f6e7359e407a1b78716d96b" target="_top" xlink:title="To call after all effect sources have been visited. ">
<polygon fill="white" stroke="red" points="1548.5,-492 1548.5,-522 1713.5,-522 1713.5,-492 1548.5,-492"/>
<text text-anchor="start" x="1556.5" y="-510" font-family="FreeSans" font-size="10.00">MWMechanics::UpdateSummoned</text>
<text text-anchor="middle" x="1631" y="-499" font-family="FreeSans" font-size="10.00">Creatures::process</text>
</a>
</g>
</g>
<!-- Node24&#45;&gt;Node32 -->
<g id="edge36" class="edge"><title>Node24&#45;&gt;Node32</title>
<path fill="none" stroke="midnightblue" d="M1502.54,-539.361C1524.65,-533.747 1549.19,-527.516 1570.79,-522.033"/>
<polygon fill="midnightblue" stroke="midnightblue" points="1501.4,-536.04 1492.56,-541.893 1503.12,-542.824 1501.4,-536.04"/>
</g>
<!-- Node33 -->
<g id="node33" class="node"><title>Node33</title>
<g id="a_node33"><a xlink:href="classMWRender_1_1NpcAnimation.html#a5123d2532d4f47d76e0a32063a0abf8b" target="_top" xlink:title="MWRender::NpcAnimation\l::permanentEffectAdded">
<polygon fill="white" stroke="black" points="1566,-443 1566,-473 1696,-473 1696,-443 1566,-443"/>
<text text-anchor="start" x="1574" y="-461" font-family="FreeSans" font-size="10.00">MWRender::NpcAnimation</text>
<text text-anchor="middle" x="1631" y="-450" font-family="FreeSans" font-size="10.00">::permanentEffectAdded</text>
</a>
</g>
</g>
<!-- Node24&#45;&gt;Node33 -->
<g id="edge37" class="edge"><title>Node24&#45;&gt;Node33</title>
<path fill="none" stroke="midnightblue" d="M1464.05,-534.557C1485.71,-518.249 1517.42,-496.259 1548,-482 1555.12,-478.677 1562.81,-475.702 1570.53,-473.072"/>
<polygon fill="midnightblue" stroke="midnightblue" points="1461.8,-531.867 1455.98,-540.719 1466.05,-537.431 1461.8,-531.867"/>
</g>
<!-- Node26 -->
<g id="node26" class="node"><title>Node26</title>
<g id="a_node26"><a xlink:href="classMWMechanics_1_1CharacterController.html#a1aa04b41faf6c46eef9310e36e405be5" target="_top" xlink:title="MWMechanics::CharacterController\l::update">
<polygon fill="white" stroke="red" points="1954,-619 1954,-649 2122,-649 2122,-619 1954,-619"/>
<text text-anchor="start" x="1962" y="-637" font-family="FreeSans" font-size="10.00">MWMechanics::CharacterController</text>
<text text-anchor="middle" x="2038" y="-626" font-family="FreeSans" font-size="10.00">::update</text>
</a>
</g>
</g>
<!-- Node25&#45;&gt;Node26 -->
<g id="edge28" class="edge"><title>Node25&#45;&gt;Node26</title>
<path fill="none" stroke="midnightblue" d="M1928.11,-634C1936.73,-634 1945.44,-634 1953.96,-634"/>
<polygon fill="midnightblue" stroke="midnightblue" points="1928.04,-630.5 1918.04,-634 1928.04,-637.5 1928.04,-630.5"/>
</g>
<!-- Node28 -->
<g id="node28" class="node"><title>Node28</title>
<g id="a_node28"><a xlink:href="classMWMechanics_1_1CastSpell.html#a792b5c30e747b65d6c5f83166d716d59" target="_top" xlink:title="MWMechanics::CastSpell\l::cast">
<polygon fill="white" stroke="black" points="1975,-563 1975,-593 2101,-593 2101,-563 1975,-563"/>
<text text-anchor="start" x="1983" y="-581" font-family="FreeSans" font-size="10.00">MWMechanics::CastSpell</text>
<text text-anchor="middle" x="2038" y="-570" font-family="FreeSans" font-size="10.00">::cast</text>
</a>
</g>
</g>
<!-- Node27&#45;&gt;Node28 -->
<g id="edge30" class="edge"><title>Node27&#45;&gt;Node28</title>
<path fill="none" stroke="midnightblue" d="M1907.27,-572.862C1929.41,-573.739 1953.56,-574.695 1974.95,-575.543"/>
<polygon fill="midnightblue" stroke="midnightblue" points="1907.39,-569.364 1897.25,-572.466 1907.11,-576.359 1907.39,-569.364"/>
</g>
<!-- Node29 -->
<g id="node29" class="node"><title>Node29</title>
<g id="a_node29"><a xlink:href="classMWWorld_1_1ProjectileManager.html#ad7f820af09ff0d1c510ad52b9db7cefa" target="_top" xlink:title="MWWorld::ProjectileManager\l::moveMagicBolts">
<polygon fill="white" stroke="red" points="1967.5,-514 1967.5,-544 2108.5,-544 2108.5,-514 1967.5,-514"/>
<text text-anchor="start" x="1975.5" y="-532" font-family="FreeSans" font-size="10.00">MWWorld::ProjectileManager</text>
<text text-anchor="middle" x="2038" y="-521" font-family="FreeSans" font-size="10.00">::moveMagicBolts</text>
</a>
</g>
</g>
<!-- Node27&#45;&gt;Node29 -->
<g id="edge31" class="edge"><title>Node27&#45;&gt;Node29</title>
<path fill="none" stroke="midnightblue" d="M1907.29,-555.327C1926.79,-551.37 1947.84,-547.097 1967.2,-543.168"/>
<polygon fill="midnightblue" stroke="midnightblue" points="1906.36,-551.945 1897.25,-557.364 1907.75,-558.805 1906.36,-551.945"/>
</g>
<!-- Node30&#45;&gt;Node27 -->
<g id="edge33" class="edge"><title>Node30&#45;&gt;Node27</title>
<path fill="none" stroke="midnightblue" d="M1704.38,-561.041C1726.1,-562.554 1749.72,-564.199 1770.73,-565.663"/>
<polygon fill="midnightblue" stroke="midnightblue" points="1704.44,-557.537 1694.22,-560.334 1703.95,-564.52 1704.44,-557.537"/>
</g>
<!-- Node31&#45;&gt;Node25 -->
<g id="edge35" class="edge"><title>Node31&#45;&gt;Node25</title>
<path fill="none" stroke="midnightblue" d="M1704.25,-640.405C1718.97,-639.673 1734.57,-638.897 1749.64,-638.147"/>
<polygon fill="midnightblue" stroke="midnightblue" points="1704.03,-636.912 1694.22,-640.904 1704.38,-643.903 1704.03,-636.912"/>
</g>
<!-- Node35 -->
<g id="node35" class="node"><title>Node35</title>
<g id="a_node35"><a xlink:href="classMWRender_1_1CreatureWeaponAnimation.html#ad43ad8570e5369c96fd8c5de51c2108e" target="_top" xlink:title="MWRender::CreatureWeapon\lAnimation::updateParts">
<polygon fill="white" stroke="red" points="1967.5,-432 1967.5,-462 2108.5,-462 2108.5,-432 1967.5,-432"/>
<text text-anchor="start" x="1975.5" y="-450" font-family="FreeSans" font-size="10.00">MWRender::CreatureWeapon</text>
<text text-anchor="middle" x="2038" y="-439" font-family="FreeSans" font-size="10.00">Animation::updateParts</text>
</a>
</g>
</g>
<!-- Node34&#45;&gt;Node35 -->
<g id="edge39" class="edge"><title>Node34&#45;&gt;Node35</title>
<path fill="none" stroke="midnightblue" d="M1914.65,-427.012C1932.07,-429.857 1950.37,-432.847 1967.35,-435.622"/>
<polygon fill="midnightblue" stroke="midnightblue" points="1914.95,-423.515 1904.52,-425.357 1913.82,-430.423 1914.95,-423.515"/>
</g>
<!-- Node35&#45;&gt;Node20 -->
<g id="edge40" class="edge"><title>Node35&#45;&gt;Node20</title>
<path fill="none" stroke="midnightblue" d="M2072.23,-467.841C2087.81,-478.109 2106.36,-491.046 2122,-504 2165.56,-540.065 2211.44,-588.762 2233.54,-612.999"/>
<polygon fill="midnightblue" stroke="midnightblue" points="2073.73,-464.642 2063.44,-462.125 2069.91,-470.511 2073.73,-464.642"/>
</g>
<!-- Node38 -->
<g id="node38" class="node"><title>Node38</title>
<g id="a_node38"><a xlink:href="classMWRender_1_1NpcAnimation.html#a8abdb2d2b05a81e40d2d3b21c49c32aa" target="_top" xlink:title="MWRender::NpcAnimation\l::addOrReplaceIndividualPart">
<polygon fill="white" stroke="red" points="1560.5,-343 1560.5,-373 1701.5,-373 1701.5,-343 1560.5,-343"/>
<text text-anchor="start" x="1568.5" y="-361" font-family="FreeSans" font-size="10.00">MWRender::NpcAnimation</text>
<text text-anchor="middle" x="1631" y="-350" font-family="FreeSans" font-size="10.00">::addOrReplaceIndividualPart</text>
</a>
</g>
</g>
<!-- Node37&#45;&gt;Node38 -->
<g id="edge43" class="edge"><title>Node37&#45;&gt;Node38</title>
<path fill="none" stroke="midnightblue" d="M1511.2,-342.611C1527.36,-344.704 1544.4,-346.912 1560.38,-348.981"/>
<polygon fill="midnightblue" stroke="midnightblue" points="1511.63,-339.138 1501.27,-341.325 1510.73,-346.08 1511.63,-339.138"/>
</g>
<!-- Node40 -->
<g id="node40" class="node"><title>Node40</title>
<g id="a_node40"><a xlink:href="classMWRender_1_1SkyManager.html#a2511c51871bafaefeb60025f24a7c492" target="_top" xlink:title="MWRender::SkyManager\l::setEnabled">
<polygon fill="white" stroke="black" points="1569.5,-294 1569.5,-324 1692.5,-324 1692.5,-294 1569.5,-294"/>
<text text-anchor="start" x="1577.5" y="-312" font-family="FreeSans" font-size="10.00">MWRender::SkyManager</text>
<text text-anchor="middle" x="1631" y="-301" font-family="FreeSans" font-size="10.00">::setEnabled</text>
</a>
</g>
</g>
<!-- Node39&#45;&gt;Node40 -->
<g id="edge45" class="edge"><title>Node39&#45;&gt;Node40</title>
<path fill="none" stroke="midnightblue" d="M1507.64,-293.15C1527.88,-295.772 1549.76,-298.606 1569.35,-301.143"/>
<polygon fill="midnightblue" stroke="midnightblue" points="1507.9,-289.655 1497.54,-291.842 1507,-296.597 1507.9,-289.655"/>
</g>
<!-- Node42 -->
<g id="node42" class="node"><title>Node42</title>
<g id="a_node42"><a xlink:href="classMWWorld_1_1WeatherManager.html#af6be2dc2e9ee22adf937487728b100f6" target="_top" xlink:title="MWWorld::WeatherManager\l::update">
<polygon fill="white" stroke="red" points="1562.5,-245 1562.5,-275 1699.5,-275 1699.5,-245 1562.5,-245"/>
<text text-anchor="start" x="1570.5" y="-263" font-family="FreeSans" font-size="10.00">MWWorld::WeatherManager</text>
<text text-anchor="middle" x="1631" y="-252" font-family="FreeSans" font-size="10.00">::update</text>
</a>
</g>
</g>
<!-- Node41&#45;&gt;Node42 -->
<g id="edge47" class="edge"><title>Node41&#45;&gt;Node42</title>
<path fill="none" stroke="midnightblue" d="M1507.84,-244.176C1525.63,-246.48 1544.66,-248.946 1562.29,-251.229"/>
<polygon fill="midnightblue" stroke="midnightblue" points="1507.9,-240.655 1497.54,-242.842 1507,-247.597 1507.9,-240.655"/>
</g>
<!-- Node44 -->
<g id="node44" class="node"><title>Node44</title>
<g id="a_node44"><a xlink:href="classMWRender_1_1CreatureWeaponAnimation.html#a3459f798a9a1abdce89b442a91dfceaf" target="_top" xlink:title="MWRender::CreatureWeapon\lAnimation::attachArrow">
<polygon fill="white" stroke="black" points="1560.5,-196 1560.5,-226 1701.5,-226 1701.5,-196 1560.5,-196"/>
<text text-anchor="start" x="1568.5" y="-214" font-family="FreeSans" font-size="10.00">MWRender::CreatureWeapon</text>
<text text-anchor="middle" x="1631" y="-203" font-family="FreeSans" font-size="10.00">Animation::attachArrow</text>
</a>
</g>
</g>
<!-- Node43&#45;&gt;Node44 -->
<g id="edge49" class="edge"><title>Node43&#45;&gt;Node44</title>
<path fill="none" stroke="midnightblue" d="M1520.35,-196.796C1533.68,-198.523 1547.35,-200.293 1560.31,-201.973"/>
<polygon fill="midnightblue" stroke="midnightblue" points="1520.61,-193.301 1510.24,-195.487 1519.71,-200.243 1520.61,-193.301"/>
</g>
<!-- Node45 -->
<g id="node45" class="node"><title>Node45</title>
<g id="a_node45"><a xlink:href="classMWRender_1_1NpcAnimation.html#a6774635e61bf4ee569d5ad0d6dd326a1" target="_top" xlink:title="MWRender::NpcAnimation\l::attachArrow">
<polygon fill="white" stroke="red" points="1566,-147 1566,-177 1696,-177 1696,-147 1566,-147"/>
<text text-anchor="start" x="1574" y="-165" font-family="FreeSans" font-size="10.00">MWRender::NpcAnimation</text>
<text text-anchor="middle" x="1631" y="-154" font-family="FreeSans" font-size="10.00">::attachArrow</text>
</a>
</g>
</g>
<!-- Node43&#45;&gt;Node45 -->
<g id="edge51" class="edge"><title>Node43&#45;&gt;Node45</title>
<path fill="none" stroke="midnightblue" d="M1520.23,-175.651C1535.55,-173.745 1551.32,-171.784 1565.97,-169.962"/>
<polygon fill="midnightblue" stroke="midnightblue" points="1519.73,-172.185 1510.24,-176.892 1520.6,-179.132 1519.73,-172.185"/>
</g>
<!-- Node44&#45;&gt;Node34 -->
<g id="edge50" class="edge"><title>Node44&#45;&gt;Node34</title>
<path fill="none" stroke="midnightblue" d="M1708.1,-231.058C1710.13,-232.295 1712.11,-233.607 1714,-235 1774.41,-279.457 1813.32,-364.451 1827.25,-398.92"/>
<polygon fill="midnightblue" stroke="midnightblue" points="1709.3,-227.73 1698.83,-226.108 1706,-233.905 1709.3,-227.73"/>
</g>
<!-- Node47 -->
<g id="node47" class="node"><title>Node47</title>
<g id="a_node47"><a xlink:href="classMWWorld_1_1ProjectileManager.html#ad1c8f065c091b127d2fab736f4511405" target="_top" xlink:title="If caster is an actor, the actor&#39;s facing orientation is used. Otherwise fallbackDirection is used...">
<polygon fill="white" stroke="black" points="1560.5,-98 1560.5,-128 1701.5,-128 1701.5,-98 1560.5,-98"/>
<text text-anchor="start" x="1568.5" y="-116" font-family="FreeSans" font-size="10.00">MWWorld::ProjectileManager</text>
<text text-anchor="middle" x="1631" y="-105" font-family="FreeSans" font-size="10.00">::launchMagicBolt</text>
</a>
</g>
</g>
<!-- Node46&#45;&gt;Node47 -->
<g id="edge53" class="edge"><title>Node46&#45;&gt;Node47</title>
<path fill="none" stroke="midnightblue" d="M1517.05,-113C1531.45,-113 1546.35,-113 1560.42,-113"/>
<polygon fill="midnightblue" stroke="midnightblue" points="1516.68,-109.5 1506.68,-113 1516.68,-116.5 1516.68,-109.5"/>
</g>
<!-- Node48 -->
<g id="node48" class="node"><title>Node48</title>
<g id="a_node48"><a xlink:href="classMWWorld_1_1ProjectileManager.html#ae23708ab82c04cbf55867398ec66a36e" target="_top" xlink:title="MWWorld::ProjectileManager\l::launchProjectile">
<polygon fill="white" stroke="black" points="1560.5,-49 1560.5,-79 1701.5,-79 1701.5,-49 1560.5,-49"/>
<text text-anchor="start" x="1568.5" y="-67" font-family="FreeSans" font-size="10.00">MWWorld::ProjectileManager</text>
<text text-anchor="middle" x="1631" y="-56" font-family="FreeSans" font-size="10.00">::launchProjectile</text>
</a>
</g>
</g>
<!-- Node46&#45;&gt;Node48 -->
<g id="edge54" class="edge"><title>Node46&#45;&gt;Node48</title>
<path fill="none" stroke="midnightblue" d="M1506.12,-95.4502C1527.32,-90.0694 1550.43,-84.201 1570.89,-79.0062"/>
<polygon fill="midnightblue" stroke="midnightblue" points="1505.05,-92.1121 1496.22,-97.9654 1506.77,-98.8969 1505.05,-92.1121"/>
</g>
<!-- Node49 -->
<g id="node49" class="node"><title>Node49</title>
<g id="a_node49"><a xlink:href="classMWWorld_1_1ProjectileManager.html#ab16f1fd4aa5b6392de3fe9e4e26e76c5" target="_top" xlink:title="MWWorld::ProjectileManager\l::readRecord">
<polygon fill="white" stroke="black" points="1560.5,-0 1560.5,-30 1701.5,-30 1701.5,-0 1560.5,-0"/>
<text text-anchor="start" x="1568.5" y="-18" font-family="FreeSans" font-size="10.00">MWWorld::ProjectileManager</text>
<text text-anchor="middle" x="1631" y="-7" font-family="FreeSans" font-size="10.00">::readRecord</text>
</a>
</g>
</g>
<!-- Node46&#45;&gt;Node49 -->
<g id="edge55" class="edge"><title>Node46&#45;&gt;Node49</title>
<path fill="none" stroke="midnightblue" d="M1503.59,-93.396C1506.51,-91.7346 1509.34,-89.9392 1512,-88 1533.84,-72.0911 1525.86,-54.5019 1548,-39 1552.86,-35.5964 1558.2,-32.6705 1563.76,-30.156"/>
<polygon fill="midnightblue" stroke="midnightblue" points="1501.87,-90.3432 1494.53,-97.9883 1505.03,-96.586 1501.87,-90.3432"/>
</g>
</g>
</svg>
