<?xml version="1.0" encoding="UTF-8" standalone="no"?>
<!DOCTYPE svg PUBLIC "-//W3C//DTD SVG 1.1//EN"
 "http://www.w3.org/Graphics/SVG/1.1/DTD/svg11.dtd">
<!-- Generated by graphviz version 2.36.0 (20140111.2315)
 -->
<!-- Title: CSVWorld::Table::contextMenuEvent Pages: 1 -->
<svg width="778pt" height="772pt"
 viewBox="0.00 0.00 778.00 772.49" xmlns="http://www.w3.org/2000/svg" xmlns:xlink="http://www.w3.org/1999/xlink">
<g id="graph0" class="graph" transform="scale(1 1) rotate(0) translate(4 768.488)">
<title>CSVWorld::Table::contextMenuEvent</title>
<polygon fill="white" stroke="none" points="-4,4 -4,-768.488 774,-768.488 774,4 -4,4"/>
<!-- Node1 -->
<g id="node1" class="node"><title>Node1</title>
<polygon fill="#bfbfbf" stroke="black" points="0.5,-371 0.5,-401 125.5,-401 125.5,-371 0.5,-371"/>
<text text-anchor="start" x="8.5" y="-389" font-family="FreeSans" font-size="10.00">CSVWorld::Table::context</text>
<text text-anchor="middle" x="63" y="-378" font-family="FreeSans" font-size="10.00">MenuEvent</text>
</g>
<!-- Node2 -->
<g id="node2" class="node"><title>Node2</title>
<g id="a_node2"><a xlink:href="classCSMWorld_1_1CommandDispatcher.html#a8b87291bcc2a59446bb44c4dec9a4c7a" target="_top" xlink:title="CSMWorld::CommandDispatcher\l::setSelection">
<polygon fill="white" stroke="black" points="356,-733 356,-763 514,-763 514,-733 356,-733"/>
<text text-anchor="start" x="364" y="-751" font-family="FreeSans" font-size="10.00">CSMWorld::CommandDispatcher</text>
<text text-anchor="middle" x="435" y="-740" font-family="FreeSans" font-size="10.00">::setSelection</text>
</a>
</g>
</g>
<!-- Node1&#45;&gt;Node2 -->
<g id="edge1" class="edge"><title>Node1&#45;&gt;Node2</title>
<path fill="none" stroke="midnightblue" d="M66.1647,-401.078C75.0352,-460.637 110.584,-678.342 162,-721 212.319,-762.748 287.262,-767.379 345.748,-762.753"/>
<polygon fill="midnightblue" stroke="midnightblue" points="346.076,-766.238 355.725,-761.863 345.454,-759.266 346.076,-766.238"/>
</g>
<!-- Node5 -->
<g id="node5" class="node"><title>Node5</title>
<g id="a_node5"><a xlink:href="classCSVWorld_1_1Table.html#a865426186b6db190178c0f64d1d921f2" target="_top" xlink:title="CSVWorld::Table::getSelectedIds">
<polygon fill="white" stroke="black" points="162,-567.5 162,-586.5 320,-586.5 320,-567.5 162,-567.5"/>
<text text-anchor="middle" x="241" y="-574.5" font-family="FreeSans" font-size="10.00">CSVWorld::Table::getSelectedIds</text>
</a>
</g>
</g>
<!-- Node1&#45;&gt;Node5 -->
<g id="edge4" class="edge"><title>Node1&#45;&gt;Node5</title>
<path fill="none" stroke="midnightblue" d="M68.2001,-401.017C78.3634,-434.494 107.549,-515.546 162,-557 165.014,-559.294 168.263,-561.327 171.665,-563.128"/>
<polygon fill="midnightblue" stroke="midnightblue" points="170.416,-566.405 180.967,-567.373 173.323,-560.037 170.416,-566.405"/>
</g>
<!-- Node6 -->
<g id="node6" class="node"><title>Node6</title>
<g id="a_node6"><a xlink:href="namespaceanonymous__namespace_02character_8cpp_03.html#a551df780ef62c57fe81b128fa596488c" target="_top" xlink:title="anonymous_namespace\l\{character::cpp\}::toString">
<polygon fill="white" stroke="black" points="374,-575 374,-605 496,-605 496,-575 374,-575"/>
<text text-anchor="start" x="382" y="-593" font-family="FreeSans" font-size="10.00">anonymous_namespace</text>
<text text-anchor="middle" x="435" y="-582" font-family="FreeSans" font-size="10.00">{character::cpp}::toString</text>
</a>
</g>
</g>
<!-- Node1&#45;&gt;Node6 -->
<g id="edge18" class="edge"><title>Node1&#45;&gt;Node6</title>
<path fill="none" stroke="midnightblue" d="M65.676,-401.219C71.0342,-441.571 91.7541,-551.263 162,-596 227.531,-637.734 321.142,-623.362 379.696,-607.752"/>
<polygon fill="midnightblue" stroke="midnightblue" points="380.789,-611.081 389.494,-605.041 378.922,-604.335 380.789,-611.081"/>
</g>
<!-- Node8 -->
<g id="node8" class="node"><title>Node8</title>
<g id="a_node8"><a xlink:href="classCSMWorld_1_1CommandDispatcher.html#a1382e801eedb6ed584f47380e9f2d735" target="_top" xlink:title="CSMWorld::CommandDispatcher\l::getExtendedTypes">
<polygon fill="white" stroke="black" points="162,-518 162,-548 320,-548 320,-518 162,-518"/>
<text text-anchor="start" x="170" y="-536" font-family="FreeSans" font-size="10.00">CSMWorld::CommandDispatcher</text>
<text text-anchor="middle" x="241" y="-525" font-family="FreeSans" font-size="10.00">::getExtendedTypes</text>
</a>
</g>
</g>
<!-- Node1&#45;&gt;Node8 -->
<g id="edge7" class="edge"><title>Node1&#45;&gt;Node8</title>
<path fill="none" stroke="midnightblue" d="M72.1604,-401.128C86.7859,-426.836 119.907,-479.072 162,-508 164.901,-509.993 167.969,-511.835 171.147,-513.536"/>
<polygon fill="midnightblue" stroke="midnightblue" points="169.811,-516.777 180.339,-517.964 172.849,-510.471 169.811,-516.777"/>
</g>
<!-- Node9 -->
<g id="node9" class="node"><title>Node9</title>
<g id="a_node9"><a xlink:href="classCSMWorld_1_1CommandDispatcher.html#a9c9d4c75fb7795c2944fc53921922417" target="_top" xlink:title="Set record lists selected by the user for extended operations. ">
<polygon fill="white" stroke="black" points="162,-469 162,-499 320,-499 320,-469 162,-469"/>
<text text-anchor="start" x="170" y="-487" font-family="FreeSans" font-size="10.00">CSMWorld::CommandDispatcher</text>
<text text-anchor="middle" x="241" y="-476" font-family="FreeSans" font-size="10.00">::setExtendedTypes</text>
</a>
</g>
</g>
<!-- Node1&#45;&gt;Node9 -->
<g id="edge8" class="edge"><title>Node1&#45;&gt;Node9</title>
<path fill="none" stroke="midnightblue" d="M80.5463,-401.044C99.1595,-417.288 130.873,-442.985 162,-459 166.279,-461.202 170.791,-463.258 175.397,-465.17"/>
<polygon fill="midnightblue" stroke="midnightblue" points="174.356,-468.52 184.944,-468.889 176.897,-461.998 174.356,-468.52"/>
</g>
<!-- Node10 -->
<g id="node10" class="node"><title>Node10</title>
<g id="a_node10"><a xlink:href="classCSVWorld_1_1TableEditIdAction.html#a4bc19ae47ef214b8e8b82119b8e23cf9" target="_top" xlink:title="CSVWorld::TableEditIdAction\l::isValidIdCell">
<polygon fill="white" stroke="black" points="170,-371 170,-401 312,-401 312,-371 170,-371"/>
<text text-anchor="start" x="178" y="-389" font-family="FreeSans" font-size="10.00">CSVWorld::TableEditIdAction</text>
<text text-anchor="middle" x="241" y="-378" font-family="FreeSans" font-size="10.00">::isValidIdCell</text>
</a>
</g>
</g>
<!-- Node1&#45;&gt;Node10 -->
<g id="edge9" class="edge"><title>Node1&#45;&gt;Node10</title>
<path fill="none" stroke="midnightblue" d="M125.556,-386C136.597,-386 148.249,-386 159.725,-386"/>
<polygon fill="midnightblue" stroke="midnightblue" points="159.745,-389.5 169.745,-386 159.745,-382.5 159.745,-389.5"/>
</g>
<!-- Node13 -->
<g id="node13" class="node"><title>Node13</title>
<g id="a_node13"><a xlink:href="classCSVWorld_1_1TableEditIdAction.html#a1385606f9f30a7bb8571e6ed8eb551bb" target="_top" xlink:title="CSVWorld::TableEditIdAction\l::setCell">
<polygon fill="white" stroke="black" points="170,-420 170,-450 312,-450 312,-420 170,-420"/>
<text text-anchor="start" x="178" y="-438" font-family="FreeSans" font-size="10.00">CSVWorld::TableEditIdAction</text>
<text text-anchor="middle" x="241" y="-427" font-family="FreeSans" font-size="10.00">::setCell</text>
</a>
</g>
</g>
<!-- Node1&#45;&gt;Node13 -->
<g id="edge12" class="edge"><title>Node1&#45;&gt;Node13</title>
<path fill="none" stroke="midnightblue" d="M118.242,-401.101C136.562,-406.202 157.183,-411.943 176.175,-417.23"/>
<polygon fill="midnightblue" stroke="midnightblue" points="175.365,-420.638 185.937,-419.948 177.242,-413.895 175.365,-420.638"/>
</g>
<!-- Node14 -->
<g id="node14" class="node"><title>Node14</title>
<g id="a_node14"><a xlink:href="classCSMWorld_1_1IdTableBase.html#a1d9a1311f2c42e5aa0da7aceec1916bd" target="_top" xlink:title="CSMWorld::IdTableBase\l::getFeatures">
<polygon fill="white" stroke="black" points="180,-322 180,-352 302,-352 302,-322 180,-322"/>
<text text-anchor="start" x="188" y="-340" font-family="FreeSans" font-size="10.00">CSMWorld::IdTableBase</text>
<text text-anchor="middle" x="241" y="-329" font-family="FreeSans" font-size="10.00">::getFeatures</text>
</a>
</g>
</g>
<!-- Node1&#45;&gt;Node14 -->
<g id="edge14" class="edge"><title>Node1&#45;&gt;Node14</title>
<path fill="none" stroke="midnightblue" d="M118.242,-370.899C136.562,-365.798 157.183,-360.057 176.175,-354.77"/>
<polygon fill="midnightblue" stroke="midnightblue" points="177.242,-358.105 185.937,-352.052 175.365,-351.362 177.242,-358.105"/>
</g>
<!-- Node15 -->
<g id="node15" class="node"><title>Node15</title>
<g id="a_node15"><a xlink:href="classCSMWorld_1_1CommandDispatcher.html#ae7cd8c0edee88d67786815bccb69364c" target="_top" xlink:title="CSMWorld::CommandDispatcher\l::canRevert">
<polygon fill="white" stroke="black" points="162,-273 162,-303 320,-303 320,-273 162,-273"/>
<text text-anchor="start" x="170" y="-291" font-family="FreeSans" font-size="10.00">CSMWorld::CommandDispatcher</text>
<text text-anchor="middle" x="241" y="-280" font-family="FreeSans" font-size="10.00">::canRevert</text>
</a>
</g>
</g>
<!-- Node1&#45;&gt;Node15 -->
<g id="edge15" class="edge"><title>Node1&#45;&gt;Node15</title>
<path fill="none" stroke="midnightblue" d="M80.5463,-370.956C99.1595,-354.712 130.873,-329.015 162,-313 166.279,-310.798 170.791,-308.742 175.397,-306.83"/>
<polygon fill="midnightblue" stroke="midnightblue" points="176.897,-310.002 184.944,-303.111 174.356,-303.48 176.897,-310.002"/>
</g>
<!-- Node16 -->
<g id="node16" class="node"><title>Node16</title>
<g id="a_node16"><a xlink:href="classCSMWorld_1_1CommandDispatcher.html#a426f5967b168db150c16d5c500c8f1f4" target="_top" xlink:title="CSMWorld::CommandDispatcher\l::canDelete">
<polygon fill="white" stroke="black" points="162,-224 162,-254 320,-254 320,-224 162,-224"/>
<text text-anchor="start" x="170" y="-242" font-family="FreeSans" font-size="10.00">CSMWorld::CommandDispatcher</text>
<text text-anchor="middle" x="241" y="-231" font-family="FreeSans" font-size="10.00">::canDelete</text>
</a>
</g>
</g>
<!-- Node1&#45;&gt;Node16 -->
<g id="edge16" class="edge"><title>Node1&#45;&gt;Node16</title>
<path fill="none" stroke="midnightblue" d="M72.1604,-370.872C86.7859,-345.164 119.907,-292.928 162,-264 164.901,-262.007 167.969,-260.165 171.147,-258.464"/>
<polygon fill="midnightblue" stroke="midnightblue" points="172.849,-261.529 180.339,-254.036 169.811,-255.223 172.849,-261.529"/>
</g>
<!-- Node17 -->
<g id="node17" class="node"><title>Node17</title>
<g id="a_node17"><a xlink:href="classCSMWorld_1_1IdTableBase.html#adf97509850e0f778de14279fbc4b1e26" target="_top" xlink:title="CSMWorld::IdTableBase\l::searchColumnIndex">
<polygon fill="white" stroke="black" points="180,-175 180,-205 302,-205 302,-175 180,-175"/>
<text text-anchor="start" x="188" y="-193" font-family="FreeSans" font-size="10.00">CSMWorld::IdTableBase</text>
<text text-anchor="middle" x="241" y="-182" font-family="FreeSans" font-size="10.00">::searchColumnIndex</text>
</a>
</g>
</g>
<!-- Node1&#45;&gt;Node17 -->
<g id="edge17" class="edge"><title>Node1&#45;&gt;Node17</title>
<path fill="none" stroke="midnightblue" d="M68.4588,-370.963C79.0598,-337.802 108.932,-257.938 162,-215 164.736,-212.786 167.672,-210.767 170.744,-208.925"/>
<polygon fill="midnightblue" stroke="midnightblue" points="172.5,-211.956 179.707,-204.19 169.23,-205.766 172.5,-211.956"/>
</g>
<!-- Node18 -->
<g id="node18" class="node"><title>Node18</title>
<g id="a_node18"><a xlink:href="classMisc_1_1StringUtils.html#a0f8cb0ac134191ba8417f74ab7dc4de6" target="_top" xlink:title="Misc::StringUtils::\lciEqual">
<polygon fill="white" stroke="black" points="390,-635 390,-665 480,-665 480,-635 390,-635"/>
<text text-anchor="start" x="398" y="-653" font-family="FreeSans" font-size="10.00">Misc::StringUtils::</text>
<text text-anchor="middle" x="435" y="-642" font-family="FreeSans" font-size="10.00">ciEqual</text>
</a>
</g>
</g>
<!-- Node1&#45;&gt;Node18 -->
<g id="edge19" class="edge"><title>Node1&#45;&gt;Node18</title>
<path fill="none" stroke="midnightblue" d="M65.1134,-401.113C69.1641,-444.073 87.1155,-567.382 162,-623 225.022,-669.808 320.177,-667.395 379.618,-659.829"/>
<polygon fill="midnightblue" stroke="midnightblue" points="380.128,-663.292 389.563,-658.473 379.182,-656.356 380.128,-663.292"/>
</g>
<!-- Node19 -->
<g id="node19" class="node"><title>Node19</title>
<g id="a_node19"><a xlink:href="classCSMWorld_1_1IdTableBase.html#a4168bbfd13f48de26661ae3481df87f1" target="_top" xlink:title="CSMWorld::IdTableBase\l::view">
<polygon fill="white" stroke="black" points="180,-126 180,-156 302,-156 302,-126 180,-126"/>
<text text-anchor="start" x="188" y="-144" font-family="FreeSans" font-size="10.00">CSMWorld::IdTableBase</text>
<text text-anchor="middle" x="241" y="-133" font-family="FreeSans" font-size="10.00">::view</text>
</a>
</g>
</g>
<!-- Node1&#45;&gt;Node19 -->
<g id="edge21" class="edge"><title>Node1&#45;&gt;Node19</title>
<path fill="none" stroke="midnightblue" d="M66.3646,-370.97C73.3739,-331.438 97.7141,-223.64 162,-166 164.675,-163.602 167.582,-161.433 170.648,-159.472"/>
<polygon fill="midnightblue" stroke="midnightblue" points="172.606,-162.389 179.655,-154.479 169.212,-156.267 172.606,-162.389"/>
</g>
<!-- Node20 -->
<g id="node20" class="node"><title>Node20</title>
<g id="a_node20"><a xlink:href="classCSMDoc_1_1Document.html#a3d2c0634e7eec5055abc612006da7763" target="_top" xlink:title="CSMDoc::Document::getData">
<polygon fill="white" stroke="black" points="169.5,-87.5 169.5,-106.5 312.5,-106.5 312.5,-87.5 169.5,-87.5"/>
<text text-anchor="middle" x="241" y="-94.5" font-family="FreeSans" font-size="10.00">CSMDoc::Document::getData</text>
</a>
</g>
</g>
<!-- Node1&#45;&gt;Node20 -->
<g id="edge22" class="edge"><title>Node1&#45;&gt;Node20</title>
<path fill="none" stroke="midnightblue" d="M64.7927,-370.84C68.0272,-325.15 84.1015,-187.59 162,-117 164.308,-114.908 166.805,-113.029 169.441,-111.342"/>
<polygon fill="midnightblue" stroke="midnightblue" points="171.132,-114.407 178.27,-106.578 167.807,-108.246 171.132,-114.407"/>
</g>
<!-- Node21 -->
<g id="node21" class="node"><title>Node21</title>
<g id="a_node21"><a xlink:href="classCSMWorld_1_1Data.html#aa0b28dcf724b31952e2aa9f2103ed48c" target="_top" xlink:title="CSMWorld::Data::getCells">
<polygon fill="white" stroke="black" points="177.5,-49.5 177.5,-68.5 304.5,-68.5 304.5,-49.5 177.5,-49.5"/>
<text text-anchor="middle" x="241" y="-56.5" font-family="FreeSans" font-size="10.00">CSMWorld::Data::getCells</text>
</a>
</g>
</g>
<!-- Node1&#45;&gt;Node21 -->
<g id="edge23" class="edge"><title>Node1&#45;&gt;Node21</title>
<path fill="none" stroke="midnightblue" d="M63.9534,-370.816C64.6668,-320.859 74,-160.119 162,-78 163.962,-76.1695 166.069,-74.5069 168.29,-72.9972"/>
<polygon fill="midnightblue" stroke="midnightblue" points="170.347,-75.8558 177.345,-67.9011 166.914,-69.7555 170.347,-75.8558"/>
</g>
<!-- Node22 -->
<g id="node22" class="node"><title>Node22</title>
<g id="a_node22"><a xlink:href="namespaceCSMWorld_1_1Columns.html#a70cce739760cf0f6d43b4e49c8d45e42" target="_top" xlink:title="Will return &#45;1 for an invalid name. ">
<polygon fill="white" stroke="black" points="186,-682 186,-712 296,-712 296,-682 186,-682"/>
<text text-anchor="start" x="194" y="-700" font-family="FreeSans" font-size="10.00">CSMWorld::Columns::</text>
<text text-anchor="middle" x="241" y="-689" font-family="FreeSans" font-size="10.00">getId</text>
</a>
</g>
</g>
<!-- Node1&#45;&gt;Node22 -->
<g id="edge24" class="edge"><title>Node1&#45;&gt;Node22</title>
<path fill="none" stroke="midnightblue" d="M64.9352,-401.078C68.5926,-447.251 85.7823,-588.334 162,-667 166.373,-671.513 171.499,-675.358 176.998,-678.631"/>
<polygon fill="midnightblue" stroke="midnightblue" points="175.413,-681.752 185.891,-683.319 178.677,-675.56 175.413,-681.752"/>
</g>
<!-- Node24 -->
<g id="node24" class="node"><title>Node24</title>
<g id="a_node24"><a xlink:href="classCSMWorld_1_1IdTableBase.html#a1ea9c9915079550a113307b8f58ea141" target="_top" xlink:title="CSMWorld::IdTableBase\l::findColumnIndex">
<polygon fill="white" stroke="black" points="180,-0 180,-30 302,-30 302,-0 180,-0"/>
<text text-anchor="start" x="188" y="-18" font-family="FreeSans" font-size="10.00">CSMWorld::IdTableBase</text>
<text text-anchor="middle" x="241" y="-7" font-family="FreeSans" font-size="10.00">::findColumnIndex</text>
</a>
</g>
</g>
<!-- Node1&#45;&gt;Node24 -->
<g id="edge28" class="edge"><title>Node1&#45;&gt;Node24</title>
<path fill="none" stroke="midnightblue" d="M63.5707,-370.772C62.9226,-317.458 68.0694,-137.195 162,-40 164.677,-37.2295 167.662,-34.7655 170.858,-32.574"/>
<polygon fill="midnightblue" stroke="midnightblue" points="172.876,-35.4491 179.749,-27.3864 169.348,-29.403 172.876,-35.4491"/>
</g>
<!-- Node3 -->
<g id="node3" class="node"><title>Node3</title>
<g id="a_node3"><a xlink:href="classMisc_1_1StringUtils.html#a249dcf40e5ef16618daf8bf5d2098c54" target="_top" xlink:title="Transforms input string to lower case w/o copy. ">
<polygon fill="white" stroke="black" points="550,-684 550,-714 644,-714 644,-684 550,-684"/>
<text text-anchor="start" x="558" y="-702" font-family="FreeSans" font-size="10.00">Misc::StringUtils::</text>
<text text-anchor="middle" x="597" y="-691" font-family="FreeSans" font-size="10.00">lowerCaseInPlace</text>
</a>
</g>
</g>
<!-- Node2&#45;&gt;Node3 -->
<g id="edge2" class="edge"><title>Node2&#45;&gt;Node3</title>
<path fill="none" stroke="midnightblue" d="M485.311,-732.899C502.665,-727.584 522.29,-721.574 540.144,-716.106"/>
<polygon fill="midnightblue" stroke="midnightblue" points="541.319,-719.407 549.856,-713.132 539.269,-712.713 541.319,-719.407"/>
</g>
<!-- Node4 -->
<g id="node4" class="node"><title>Node4</title>
<g id="a_node4"><a xlink:href="classMisc_1_1StringUtils.html#a0759adb102842ee3bced227707eb6949" target="_top" xlink:title="Misc::StringUtils::\ltoLower">
<polygon fill="white" stroke="black" points="680,-661 680,-691 770,-691 770,-661 680,-661"/>
<text text-anchor="start" x="688" y="-679" font-family="FreeSans" font-size="10.00">Misc::StringUtils::</text>
<text text-anchor="middle" x="725" y="-668" font-family="FreeSans" font-size="10.00">toLower</text>
</a>
</g>
</g>
<!-- Node3&#45;&gt;Node4 -->
<g id="edge3" class="edge"><title>Node3&#45;&gt;Node4</title>
<path fill="none" stroke="midnightblue" d="M644.202,-690.566C652.582,-689.037 661.39,-687.429 669.971,-685.862"/>
<polygon fill="midnightblue" stroke="midnightblue" points="670.692,-689.289 679.901,-684.05 669.435,-682.403 670.692,-689.289"/>
</g>
<!-- Node5&#45;&gt;Node6 -->
<g id="edge5" class="edge"><title>Node5&#45;&gt;Node6</title>
<path fill="none" stroke="midnightblue" d="M320.094,-582.288C334.547,-583.266 349.561,-584.283 363.763,-585.244"/>
<polygon fill="midnightblue" stroke="midnightblue" points="363.728,-588.75 373.941,-585.934 364.2,-581.766 363.728,-588.75"/>
</g>
<!-- Node7 -->
<g id="node7" class="node"><title>Node7</title>
<g id="a_node7"><a xlink:href="gen__iconv_8cpp.html#a47a14d9c2f599fa2591017202978774d" target="_top" xlink:title="num">
<polygon fill="white" stroke="black" points="579.5,-580.5 579.5,-599.5 614.5,-599.5 614.5,-580.5 579.5,-580.5"/>
<text text-anchor="middle" x="597" y="-587.5" font-family="FreeSans" font-size="10.00">num</text>
</a>
</g>
</g>
<!-- Node6&#45;&gt;Node7 -->
<g id="edge6" class="edge"><title>Node6&#45;&gt;Node7</title>
<path fill="none" stroke="midnightblue" d="M496.033,-590C521.172,-590 549.121,-590 569.061,-590"/>
<polygon fill="midnightblue" stroke="midnightblue" points="569.245,-593.5 579.245,-590 569.245,-586.5 569.245,-593.5"/>
</g>
<!-- Node11 -->
<g id="node11" class="node"><title>Node11</title>
<g id="a_node11"><a xlink:href="classCSMWorld_1_1TableMimeData.html#a011ef5a4fe26906c807beed1ccc7cc1f" target="_top" xlink:title="CSMWorld::TableMimeData\l::convertEnums">
<polygon fill="white" stroke="black" points="367,-420 367,-450 503,-450 503,-420 367,-420"/>
<text text-anchor="start" x="375" y="-438" font-family="FreeSans" font-size="10.00">CSMWorld::TableMimeData</text>
<text text-anchor="middle" x="435" y="-427" font-family="FreeSans" font-size="10.00">::convertEnums</text>
</a>
</g>
</g>
<!-- Node10&#45;&gt;Node11 -->
<g id="edge10" class="edge"><title>Node10&#45;&gt;Node11</title>
<path fill="none" stroke="midnightblue" d="M300.911,-401.035C321.276,-406.232 344.272,-412.101 365.349,-417.48"/>
<polygon fill="midnightblue" stroke="midnightblue" points="364.645,-420.912 375.2,-419.994 366.376,-414.13 364.645,-420.912"/>
</g>
<!-- Node12 -->
<g id="node12" class="node"><title>Node12</title>
<g id="a_node12"><a xlink:href="structCSMWorld_1_1ColumnBase.html#a8f9b5942466008af0be3dee1dfac3e52" target="_top" xlink:title="CSMWorld::ColumnBase\l::isId">
<polygon fill="white" stroke="black" points="374,-371 374,-401 496,-401 496,-371 374,-371"/>
<text text-anchor="start" x="382" y="-389" font-family="FreeSans" font-size="10.00">CSMWorld::ColumnBase</text>
<text text-anchor="middle" x="435" y="-378" font-family="FreeSans" font-size="10.00">::isId</text>
</a>
</g>
</g>
<!-- Node10&#45;&gt;Node12 -->
<g id="edge11" class="edge"><title>Node10&#45;&gt;Node12</title>
<path fill="none" stroke="midnightblue" d="M312.131,-386C328.898,-386 346.802,-386 363.582,-386"/>
<polygon fill="midnightblue" stroke="midnightblue" points="363.864,-389.5 373.864,-386 363.864,-382.5 363.864,-389.5"/>
</g>
<!-- Node13&#45;&gt;Node11 -->
<g id="edge13" class="edge"><title>Node13&#45;&gt;Node11</title>
<path fill="none" stroke="midnightblue" d="M312.131,-435C326.667,-435 342.057,-435 356.828,-435"/>
<polygon fill="midnightblue" stroke="midnightblue" points="356.938,-438.5 366.938,-435 356.938,-431.5 356.938,-438.5"/>
</g>
<!-- Node18&#45;&gt;Node4 -->
<g id="edge20" class="edge"><title>Node18&#45;&gt;Node4</title>
<path fill="none" stroke="midnightblue" d="M480.055,-653.977C530.978,-658.574 614.806,-666.142 669.711,-671.099"/>
<polygon fill="midnightblue" stroke="midnightblue" points="669.676,-674.61 679.95,-672.023 670.306,-667.638 669.676,-674.61"/>
</g>
<!-- Node22&#45;&gt;Node18 -->
<g id="edge27" class="edge"><title>Node22&#45;&gt;Node18</title>
<path fill="none" stroke="midnightblue" d="M296.25,-683.72C322.504,-677.293 353.932,-669.6 380.135,-663.186"/>
<polygon fill="midnightblue" stroke="midnightblue" points="381.019,-666.573 389.9,-660.795 379.355,-659.773 381.019,-666.573"/>
</g>
<!-- Node23 -->
<g id="node23" class="node"><title>Node23</title>
<g id="a_node23"><a xlink:href="classMisc_1_1StringUtils.html#a2982264998fde90a8e01ebab4bd69e14" target="_top" xlink:title="Returns lower case copy of input string. ">
<polygon fill="white" stroke="black" points="390,-684 390,-714 480,-714 480,-684 390,-684"/>
<text text-anchor="start" x="398" y="-702" font-family="FreeSans" font-size="10.00">Misc::StringUtils::</text>
<text text-anchor="middle" x="435" y="-691" font-family="FreeSans" font-size="10.00">lowerCase</text>
</a>
</g>
</g>
<!-- Node22&#45;&gt;Node23 -->
<g id="edge25" class="edge"><title>Node22&#45;&gt;Node23</title>
<path fill="none" stroke="midnightblue" d="M296.25,-697.565C322.388,-697.837 353.655,-698.163 379.788,-698.435"/>
<polygon fill="midnightblue" stroke="midnightblue" points="379.864,-701.936 389.9,-698.541 379.937,-694.937 379.864,-701.936"/>
</g>
<!-- Node23&#45;&gt;Node3 -->
<g id="edge26" class="edge"><title>Node23&#45;&gt;Node3</title>
<path fill="none" stroke="midnightblue" d="M480.144,-699C498.576,-699 520.209,-699 539.76,-699"/>
<polygon fill="midnightblue" stroke="midnightblue" points="539.767,-702.5 549.767,-699 539.767,-695.5 539.767,-702.5"/>
</g>
</g>
</svg>
