<?xml version="1.0" encoding="UTF-8" standalone="no"?>
<!DOCTYPE svg PUBLIC "-//W3C//DTD SVG 1.1//EN"
 "http://www.w3.org/Graphics/SVG/1.1/DTD/svg11.dtd">
<!-- Generated by graphviz version 2.36.0 (20140111.2315)
 -->
<!-- Title: CSMTools::Tools Pages: 1 -->
<svg width="134pt" height="436pt"
 viewBox="0.00 0.00 134.00 436.00" xmlns="http://www.w3.org/2000/svg" xmlns:xlink="http://www.w3.org/1999/xlink">
<g id="graph0" class="graph" transform="scale(1 1) rotate(0) translate(4 432)">
<title>CSMTools::Tools</title>
<polygon fill="white" stroke="none" points="-4,4 -4,-432 130,-432 130,4 -4,4"/>
<!-- Node1 -->
<g id="node1" class="node"><title>Node1</title>
<polygon fill="#bfbfbf" stroke="black" points="0,-1 0,-333 126,-333 126,-1 0,-1"/>
<text text-anchor="middle" x="63" y="-321" font-family="FreeSans" font-size="10.00">CSMTools::Tools</text>
<polyline fill="none" stroke="black" points="0,-314 126,-314 "/>
<text text-anchor="start" x="8" y="-302" font-family="FreeSans" font-size="10.00">&#45; mDocument</text>
<text text-anchor="start" x="8" y="-291" font-family="FreeSans" font-size="10.00">&#45; mData</text>
<text text-anchor="start" x="8" y="-280" font-family="FreeSans" font-size="10.00">&#45; mVerifierOperation</text>
<text text-anchor="start" x="8" y="-269" font-family="FreeSans" font-size="10.00">&#45; mVerifier</text>
<text text-anchor="start" x="8" y="-258" font-family="FreeSans" font-size="10.00">&#45; mSearchOperation</text>
<text text-anchor="start" x="8" y="-247" font-family="FreeSans" font-size="10.00">&#45; mSearch</text>
<text text-anchor="start" x="8" y="-236" font-family="FreeSans" font-size="10.00">&#45; mMergeOperation</text>
<text text-anchor="start" x="8" y="-225" font-family="FreeSans" font-size="10.00">&#45; mMerge</text>
<text text-anchor="start" x="8" y="-214" font-family="FreeSans" font-size="10.00">&#45; mReports</text>
<text text-anchor="start" x="8" y="-203" font-family="FreeSans" font-size="10.00">&#45; mNextReportNumber</text>
<text text-anchor="start" x="8" y="-192" font-family="FreeSans" font-size="10.00">&#45; mActiveReports</text>
<text text-anchor="start" x="8" y="-181" font-family="FreeSans" font-size="10.00">&#45; mEncoding</text>
<polyline fill="none" stroke="black" points="0,-174 126,-174 "/>
<text text-anchor="start" x="8" y="-162" font-family="FreeSans" font-size="10.00">+ Tools()</text>
<text text-anchor="start" x="8" y="-151" font-family="FreeSans" font-size="10.00">+ ~Tools()</text>
<text text-anchor="start" x="8" y="-140" font-family="FreeSans" font-size="10.00">+ runVerifier()</text>
<text text-anchor="start" x="8" y="-129" font-family="FreeSans" font-size="10.00">+ newSearch()</text>
<text text-anchor="start" x="8" y="-118" font-family="FreeSans" font-size="10.00">+ runSearch()</text>
<text text-anchor="start" x="8" y="-107" font-family="FreeSans" font-size="10.00">+ runMerge()</text>
<text text-anchor="start" x="8" y="-96" font-family="FreeSans" font-size="10.00">+ abortOperation()</text>
<text text-anchor="start" x="8" y="-85" font-family="FreeSans" font-size="10.00">+ getRunningOperations()</text>
<text text-anchor="start" x="8" y="-74" font-family="FreeSans" font-size="10.00">+ getReport()</text>
<text text-anchor="start" x="8" y="-63" font-family="FreeSans" font-size="10.00">&#45; Tools()</text>
<text text-anchor="start" x="8" y="-52" font-family="FreeSans" font-size="10.00">&#45; operator=()</text>
<text text-anchor="start" x="8" y="-41" font-family="FreeSans" font-size="10.00">&#45; getVerifier()</text>
<text text-anchor="start" x="8" y="-30" font-family="FreeSans" font-size="10.00">&#45; get()</text>
<text text-anchor="start" x="8" y="-19" font-family="FreeSans" font-size="10.00">&#45; get()</text>
<text text-anchor="start" x="8" y="-8" font-family="FreeSans" font-size="10.00">&#45; verifierMessage()</text>
</g>
<!-- Node2 -->
<g id="node2" class="node"><title>Node2</title>
<g id="a_node2"><a xlink:href="classQObject.html" target="_top" xlink:title="{QObject\n||}">
<polygon fill="white" stroke="black" points="36.5,-370.5 36.5,-427.5 89.5,-427.5 89.5,-370.5 36.5,-370.5"/>
<text text-anchor="middle" x="63" y="-415.5" font-family="FreeSans" font-size="10.00">QObject</text>
<polyline fill="none" stroke="black" points="36.5,-408.5 89.5,-408.5 "/>
<text text-anchor="middle" x="63" y="-396.5" font-family="FreeSans" font-size="10.00"> </text>
<polyline fill="none" stroke="black" points="36.5,-389.5 89.5,-389.5 "/>
<text text-anchor="middle" x="63" y="-377.5" font-family="FreeSans" font-size="10.00"> </text>
</a>
</g>
</g>
<!-- Node2&#45;&gt;Node1 -->
<g id="edge1" class="edge"><title>Node2&#45;&gt;Node1</title>
<path fill="none" stroke="midnightblue" d="M63,-360.143C63,-352.008 63,-342.917 63,-333.235"/>
<polygon fill="none" stroke="midnightblue" points="59.5001,-360.257 63,-370.257 66.5001,-360.257 59.5001,-360.257"/>
</g>
</g>
</svg>
