<?xml version="1.0" encoding="UTF-8" standalone="no"?>
<!DOCTYPE svg PUBLIC "-//W3C//DTD SVG 1.1//EN"
 "http://www.w3.org/Graphics/SVG/1.1/DTD/svg11.dtd">
<!-- Generated by graphviz version 2.36.0 (20140111.2315)
 -->
<!-- Title: MWWorld::World::aimToTarget Pages: 1 -->
<svg width="360pt" height="115pt"
 viewBox="0.00 0.00 360.00 115.00" xmlns="http://www.w3.org/2000/svg" xmlns:xlink="http://www.w3.org/1999/xlink">
<g id="graph0" class="graph" transform="scale(1 1) rotate(0) translate(4 111)">
<title>MWWorld::World::aimToTarget</title>
<polygon fill="white" stroke="none" points="-4,4 -4,-111 356,-111 356,4 -4,4"/>
<!-- Node1 -->
<g id="node1" class="node"><title>Node1</title>
<polygon fill="#bfbfbf" stroke="black" points="0.5,-38.5 0.5,-57.5 153.5,-57.5 153.5,-38.5 0.5,-38.5"/>
<text text-anchor="middle" x="77" y="-45.5" font-family="FreeSans" font-size="10.00">MWWorld::World::aimToTarget</text>
</g>
<!-- Node2 -->
<g id="node2" class="node"><title>Node2</title>
<g id="a_node2"><a xlink:href="classMWWorld_1_1ConstPtr.html#a1fecee4644b43851c0f09c1f6c808225" target="_top" xlink:title="MWWorld::ConstPtr::\lgetRefData">
<polygon fill="white" stroke="black" points="215,-77 215,-107 327,-107 327,-77 215,-77"/>
<text text-anchor="start" x="223" y="-95" font-family="FreeSans" font-size="10.00">MWWorld::ConstPtr::</text>
<text text-anchor="middle" x="271" y="-84" font-family="FreeSans" font-size="10.00">getRefData</text>
</a>
</g>
</g>
<!-- Node1&#45;&gt;Node2 -->
<g id="edge1" class="edge"><title>Node1&#45;&gt;Node2</title>
<path fill="none" stroke="midnightblue" d="M119.661,-57.5473C144.622,-63.2675 176.89,-70.6623 205.129,-77.1336"/>
<polygon fill="midnightblue" stroke="midnightblue" points="204.401,-80.5576 214.93,-79.3799 205.965,-73.7345 204.401,-80.5576"/>
</g>
<!-- Node3 -->
<g id="node3" class="node"><title>Node3</title>
<g id="a_node3"><a xlink:href="classMWWorld_1_1RefData.html#a32f3f82fc97a20fd3a776751f43ca131" target="_top" xlink:title="MWWorld::RefData::getPosition">
<polygon fill="white" stroke="black" points="190.5,-38.5 190.5,-57.5 351.5,-57.5 351.5,-38.5 190.5,-38.5"/>
<text text-anchor="middle" x="271" y="-45.5" font-family="FreeSans" font-size="10.00">MWWorld::RefData::getPosition</text>
</a>
</g>
</g>
<!-- Node1&#45;&gt;Node3 -->
<g id="edge2" class="edge"><title>Node1&#45;&gt;Node3</title>
<path fill="none" stroke="midnightblue" d="M153.608,-48C162.376,-48 171.382,-48 180.315,-48"/>
<polygon fill="midnightblue" stroke="midnightblue" points="180.353,-51.5001 190.353,-48 180.353,-44.5001 180.353,-51.5001"/>
</g>
<!-- Node4 -->
<g id="node4" class="node"><title>Node4</title>
<g id="a_node4"><a xlink:href="structESM_1_1Position.html#a71dbd95e261f1976f60cbe456d450948" target="_top" xlink:title="ESM::Position::asVec3">
<polygon fill="white" stroke="black" points="210,-0.5 210,-19.5 332,-19.5 332,-0.5 210,-0.5"/>
<text text-anchor="middle" x="271" y="-7.5" font-family="FreeSans" font-size="10.00">ESM::Position::asVec3</text>
</a>
</g>
</g>
<!-- Node1&#45;&gt;Node4 -->
<g id="edge3" class="edge"><title>Node1&#45;&gt;Node4</title>
<path fill="none" stroke="midnightblue" d="M126.45,-38.411C152.471,-33.261 184.728,-26.8768 212.069,-21.4656"/>
<polygon fill="midnightblue" stroke="midnightblue" points="212.769,-24.895 221.899,-19.5201 211.409,-18.0282 212.769,-24.895"/>
</g>
</g>
</svg>
