<?xml version="1.0" encoding="UTF-8" standalone="no"?>
<!DOCTYPE svg PUBLIC "-//W3C//DTD SVG 1.1//EN"
 "http://www.w3.org/Graphics/SVG/1.1/DTD/svg11.dtd">
<!-- Generated by graphviz version 2.36.0 (20140111.2315)
 -->
<!-- Title: MWClass::Door::getDestination Pages: 1 -->
<svg width="348pt" height="77pt"
 viewBox="0.00 0.00 348.00 77.00" xmlns="http://www.w3.org/2000/svg" xmlns:xlink="http://www.w3.org/1999/xlink">
<g id="graph0" class="graph" transform="scale(1 1) rotate(0) translate(4 73)">
<title>MWClass::Door::getDestination</title>
<polygon fill="white" stroke="none" points="-4,4 -4,-73 344,-73 344,4 -4,4"/>
<!-- Node1 -->
<g id="node1" class="node"><title>Node1</title>
<polygon fill="#bfbfbf" stroke="black" points="0,-27.5 0,-46.5 148,-46.5 148,-27.5 0,-27.5"/>
<text text-anchor="middle" x="74" y="-34.5" font-family="FreeSans" font-size="10.00">MWClass::Door::getDestination</text>
</g>
<!-- Node2 -->
<g id="node2" class="node"><title>Node2</title>
<g id="a_node2"><a xlink:href="classMWClass_1_1Door.html#a00384aa05eb813b86afadc53ca76a2a2" target="_top" xlink:title="MWClass::Door::getToolTipInfo">
<polygon fill="white" stroke="black" points="187.5,-49.5 187.5,-68.5 336.5,-68.5 336.5,-49.5 187.5,-49.5"/>
<text text-anchor="middle" x="262" y="-56.5" font-family="FreeSans" font-size="10.00">MWClass::Door::getToolTipInfo</text>
</a>
</g>
</g>
<!-- Node1&#45;&gt;Node2 -->
<g id="edge1" class="edge"><title>Node1&#45;&gt;Node2</title>
<path fill="none" stroke="midnightblue" d="M158.239,-46.8455C167.895,-47.9876 177.694,-49.1466 187.211,-50.2723"/>
<polygon fill="midnightblue" stroke="midnightblue" points="158.587,-43.3623 148.245,-45.6634 157.765,-50.3139 158.587,-43.3623"/>
</g>
<!-- Node3 -->
<g id="node3" class="node"><title>Node3</title>
<g id="a_node3"><a xlink:href="structMWWorld_1_1GetDoorMarkerVisitor.html#ae62fe49e2c547a0798f53a2748119261" target="_top" xlink:title="MWWorld::GetDoorMarkerVisitor\l::operator()">
<polygon fill="white" stroke="black" points="184.5,-0 184.5,-30 339.5,-30 339.5,-0 184.5,-0"/>
<text text-anchor="start" x="192.5" y="-18" font-family="FreeSans" font-size="10.00">MWWorld::GetDoorMarkerVisitor</text>
<text text-anchor="middle" x="262" y="-7" font-family="FreeSans" font-size="10.00">::operator()</text>
</a>
</g>
</g>
<!-- Node1&#45;&gt;Node3 -->
<g id="edge2" class="edge"><title>Node1&#45;&gt;Node3</title>
<path fill="none" stroke="midnightblue" d="M158.37,-27.1391C167.054,-26.1119 175.852,-25.0712 184.456,-24.0536"/>
<polygon fill="midnightblue" stroke="midnightblue" points="157.765,-23.6861 148.245,-28.3366 158.587,-30.6377 157.765,-23.6861"/>
</g>
</g>
</svg>
