<?xml version="1.0" encoding="UTF-8" standalone="no"?>
<!DOCTYPE svg PUBLIC "-//W3C//DTD SVG 1.1//EN"
 "http://www.w3.org/Graphics/SVG/1.1/DTD/svg11.dtd">
<!-- Generated by graphviz version 2.36.0 (20140111.2315)
 -->
<!-- Title: MWWorld::Player::yaw Pages: 1 -->
<svg width="292pt" height="87pt"
 viewBox="0.00 0.00 292.00 87.00" xmlns="http://www.w3.org/2000/svg" xmlns:xlink="http://www.w3.org/1999/xlink">
<g id="graph0" class="graph" transform="scale(1 1) rotate(0) translate(4 83)">
<title>MWWorld::Player::yaw</title>
<polygon fill="white" stroke="none" points="-4,4 -4,-83 288,-83 288,4 -4,4"/>
<!-- Node1 -->
<g id="node1" class="node"><title>Node1</title>
<polygon fill="#bfbfbf" stroke="black" points="0,-29.5 0,-48.5 118,-48.5 118,-29.5 0,-29.5"/>
<text text-anchor="middle" x="59" y="-36.5" font-family="FreeSans" font-size="10.00">MWWorld::Player::yaw</text>
</g>
<!-- Node2 -->
<g id="node2" class="node"><title>Node2</title>
<g id="a_node2"><a xlink:href="classMWInput_1_1InputManager.html#a4b0ab846314afae0286b8ac579a407c8" target="_top" xlink:title="MWInput::InputManager\l::update">
<polygon fill="white" stroke="black" points="154.5,-49 154.5,-79 283.5,-79 283.5,-49 154.5,-49"/>
<text text-anchor="start" x="162.5" y="-67" font-family="FreeSans" font-size="10.00">MWInput::InputManager</text>
<text text-anchor="middle" x="219" y="-56" font-family="FreeSans" font-size="10.00">::update</text>
</a>
</g>
</g>
<!-- Node1&#45;&gt;Node2 -->
<g id="edge1" class="edge"><title>Node1&#45;&gt;Node2</title>
<path fill="none" stroke="midnightblue" d="M128.378,-49.8193C136.979,-51.1802 145.751,-52.5683 154.277,-53.9172"/>
<polygon fill="midnightblue" stroke="midnightblue" points="128.809,-46.344 118.384,-48.238 127.715,-53.258 128.809,-46.344"/>
</g>
<!-- Node3 -->
<g id="node3" class="node"><title>Node3</title>
<g id="a_node3"><a xlink:href="classMWInput_1_1InputManager.html#aef9770e0bcacd6dcc031668e8e1a2c4e" target="_top" xlink:title="MWInput::InputManager\l::mouseMoved">
<polygon fill="white" stroke="black" points="154.5,-0 154.5,-30 283.5,-30 283.5,-0 154.5,-0"/>
<text text-anchor="start" x="162.5" y="-18" font-family="FreeSans" font-size="10.00">MWInput::InputManager</text>
<text text-anchor="middle" x="219" y="-7" font-family="FreeSans" font-size="10.00">::mouseMoved</text>
</a>
</g>
</g>
<!-- Node1&#45;&gt;Node3 -->
<g id="edge2" class="edge"><title>Node1&#45;&gt;Node3</title>
<path fill="none" stroke="midnightblue" d="M128.378,-28.6135C136.979,-27.307 145.751,-25.9745 154.277,-24.6794"/>
<polygon fill="midnightblue" stroke="midnightblue" points="127.745,-25.1693 118.384,-30.1315 128.797,-32.0899 127.745,-25.1693"/>
</g>
</g>
</svg>
