<?xml version="1.0" encoding="UTF-8" standalone="no"?>
<!DOCTYPE svg PUBLIC "-//W3C//DTD SVG 1.1//EN"
 "http://www.w3.org/Graphics/SVG/1.1/DTD/svg11.dtd">
<!-- Generated by graphviz version 2.36.0 (20140111.2315)
 -->
<!-- Title: ESM::ESMReader::getHNLong Pages: 1 -->
<svg width="1284pt" height="1284pt"
 viewBox="0.00 0.00 1284.00 1284.00" xmlns="http://www.w3.org/2000/svg" xmlns:xlink="http://www.w3.org/1999/xlink">
<g id="graph0" class="graph" transform="scale(1 1) rotate(0) translate(4 1280)">
<title>ESM::ESMReader::getHNLong</title>
<polygon fill="white" stroke="none" points="-4,4 -4,-1280 1280,-1280 1280,4 -4,4"/>
<!-- Node1 -->
<g id="node1" class="node"><title>Node1</title>
<polygon fill="#bfbfbf" stroke="black" points="0,-194.5 0,-213.5 146,-213.5 146,-194.5 0,-194.5"/>
<text text-anchor="middle" x="73" y="-201.5" font-family="FreeSans" font-size="10.00">ESM::ESMReader::getHNLong</text>
</g>
<!-- Node2 -->
<g id="node2" class="node"><title>Node2</title>
<g id="a_node2"><a xlink:href="structESM_1_1Header.html#a4c4004ba9d98a9f49724f5032ba12587" target="_top" xlink:title="ESM::Header::load">
<polygon fill="white" stroke="black" points="182.5,-194.5 182.5,-213.5 277.5,-213.5 277.5,-194.5 182.5,-194.5"/>
<text text-anchor="middle" x="230" y="-201.5" font-family="FreeSans" font-size="10.00">ESM::Header::load</text>
</a>
</g>
</g>
<!-- Node1&#45;&gt;Node2 -->
<g id="edge1" class="edge"><title>Node1&#45;&gt;Node2</title>
<path fill="none" stroke="midnightblue" d="M156.187,-204C165.153,-204 174.035,-204 182.35,-204"/>
<polygon fill="midnightblue" stroke="midnightblue" points="156.055,-200.5 146.055,-204 156.055,-207.5 156.055,-200.5"/>
</g>
<!-- Node3 -->
<g id="node3" class="node"><title>Node3</title>
<g id="a_node3"><a xlink:href="classESM_1_1ESMReader.html#a4ce912367d9c8e36ca0b34d9dd6a3a39" target="_top" xlink:title="ESM::ESMReader::open">
<polygon fill="white" stroke="black" points="314.5,-194.5 314.5,-213.5 433.5,-213.5 433.5,-194.5 314.5,-194.5"/>
<text text-anchor="middle" x="374" y="-201.5" font-family="FreeSans" font-size="10.00">ESM::ESMReader::open</text>
</a>
</g>
</g>
<!-- Node2&#45;&gt;Node3 -->
<g id="edge2" class="edge"><title>Node2&#45;&gt;Node3</title>
<path fill="none" stroke="midnightblue" d="M287.905,-204C296.578,-204 305.544,-204 314.257,-204"/>
<polygon fill="midnightblue" stroke="midnightblue" points="287.89,-200.5 277.89,-204 287.89,-207.5 287.89,-200.5"/>
</g>
<!-- Node4 -->
<g id="node4" class="node"><title>Node4</title>
<g id="a_node4"><a xlink:href="esmtool_8cpp.html#ac99c5aa1e9babf153d159744c70347d1" target="_top" xlink:title="load">
<polygon fill="white" stroke="black" points="536.5,-533.5 536.5,-552.5 571.5,-552.5 571.5,-533.5 536.5,-533.5"/>
<text text-anchor="middle" x="554" y="-540.5" font-family="FreeSans" font-size="10.00">load</text>
</a>
</g>
</g>
<!-- Node3&#45;&gt;Node4 -->
<g id="edge3" class="edge"><title>Node3&#45;&gt;Node4</title>
<path fill="none" stroke="midnightblue" d="M384.954,-222.957C417.988,-285.87 523.284,-486.406 547.844,-533.18"/>
<polygon fill="midnightblue" stroke="midnightblue" points="387.883,-221.007 380.135,-213.78 381.685,-224.261 387.883,-221.007"/>
</g>
<!-- Node35 -->
<g id="node35" class="node"><title>Node35</title>
<g id="a_node35"><a xlink:href="classMWState_1_1StateManager.html#a709123862fc05e7a490d09ab20928f9c" target="_top" xlink:title="Load a saved game file belonging to the given character. ">
<polygon fill="white" stroke="black" points="694,-342 694,-372 816,-372 816,-342 694,-342"/>
<text text-anchor="start" x="702" y="-360" font-family="FreeSans" font-size="10.00">MWState::StateManager</text>
<text text-anchor="middle" x="755" y="-349" font-family="FreeSans" font-size="10.00">::loadGame</text>
</a>
</g>
</g>
<!-- Node3&#45;&gt;Node35 -->
<g id="edge49" class="edge"><title>Node3&#45;&gt;Node35</title>
<path fill="none" stroke="midnightblue" d="M383.187,-223.125C396.635,-251.91 426.341,-305.592 470,-330 539.385,-368.791 633.4,-369.554 693.888,-364.726"/>
<polygon fill="midnightblue" stroke="midnightblue" points="386.264,-221.433 378.972,-213.747 379.879,-224.303 386.264,-221.433"/>
</g>
<!-- Node40 -->
<g id="node40" class="node"><title>Node40</title>
<g id="a_node40"><a xlink:href="namespaceESSImport.html#a7f1a9c8a0c5ca3c02939f8ce5c486c8f" target="_top" xlink:title="ESSImport::read">
<polygon fill="white" stroke="black" points="510.5,-301.5 510.5,-320.5 597.5,-320.5 597.5,-301.5 510.5,-301.5"/>
<text text-anchor="middle" x="554" y="-308.5" font-family="FreeSans" font-size="10.00">ESSImport::read</text>
</a>
</g>
</g>
<!-- Node3&#45;&gt;Node40 -->
<g id="edge42" class="edge"><title>Node3&#45;&gt;Node40</title>
<path fill="none" stroke="midnightblue" d="M388.857,-221.477C405.811,-241.633 436.432,-274.263 470,-292 482.286,-298.492 496.74,-302.778 510.113,-305.603"/>
<polygon fill="midnightblue" stroke="midnightblue" points="391.508,-219.191 382.458,-213.682 386.098,-223.632 391.508,-219.191"/>
</g>
<!-- Node43 -->
<g id="node43" class="node"><title>Node43</title>
<g id="a_node43"><a xlink:href="classESSImport_1_1Importer.html#a3bf0ba4afb2900ca2c950c86e00f7902" target="_top" xlink:title="ESSImport::Importer::run">
<polygon fill="white" stroke="black" points="493,-263.5 493,-282.5 615,-282.5 615,-263.5 493,-263.5"/>
<text text-anchor="middle" x="554" y="-270.5" font-family="FreeSans" font-size="10.00">ESSImport::Importer::run</text>
</a>
</g>
</g>
<!-- Node3&#45;&gt;Node43 -->
<g id="edge45" class="edge"><title>Node3&#45;&gt;Node43</title>
<path fill="none" stroke="midnightblue" d="M399.369,-218.64C418.133,-229.395 445.004,-243.696 470,-253 480.974,-257.085 493.079,-260.553 504.572,-263.396"/>
<polygon fill="midnightblue" stroke="midnightblue" points="401.004,-215.542 390.601,-213.534 397.481,-221.591 401.004,-215.542"/>
</g>
<!-- Node44 -->
<g id="node44" class="node"><title>Node44</title>
<g id="a_node44"><a xlink:href="classCSMTools_1_1FinishMergedDocumentStage.html#a7d2bee3433f0ca47f7dcde2897a549d3" target="_top" xlink:title="Messages resulting from this stage will be appended to messages. ">
<polygon fill="white" stroke="black" points="470,-214 470,-244 638,-244 638,-214 470,-214"/>
<text text-anchor="start" x="478" y="-232" font-family="FreeSans" font-size="10.00">CSMTools::FinishMergedDocument</text>
<text text-anchor="middle" x="554" y="-221" font-family="FreeSans" font-size="10.00">Stage::perform</text>
</a>
</g>
</g>
<!-- Node3&#45;&gt;Node44 -->
<g id="edge46" class="edge"><title>Node3&#45;&gt;Node44</title>
<path fill="none" stroke="midnightblue" d="M443.959,-213.685C452.428,-214.875 461.153,-216.1 469.804,-217.315"/>
<polygon fill="midnightblue" stroke="midnightblue" points="444.167,-210.18 433.777,-212.255 443.193,-217.112 444.167,-210.18"/>
</g>
<!-- Node45 -->
<g id="node45" class="node"><title>Node45</title>
<g id="a_node45"><a xlink:href="classMWState_1_1Character.html#aaaf3ae09514264bfcf0f683e81eef8df" target="_top" xlink:title="MWState::Character\l::addSlot">
<polygon fill="white" stroke="black" points="502,-165 502,-195 606,-195 606,-165 502,-165"/>
<text text-anchor="start" x="510" y="-183" font-family="FreeSans" font-size="10.00">MWState::Character</text>
<text text-anchor="middle" x="554" y="-172" font-family="FreeSans" font-size="10.00">::addSlot</text>
</a>
</g>
</g>
<!-- Node3&#45;&gt;Node45 -->
<g id="edge47" class="edge"><title>Node3&#45;&gt;Node45</title>
<path fill="none" stroke="midnightblue" d="M443.726,-194.734C463.026,-192.131 483.668,-189.348 501.757,-186.909"/>
<polygon fill="midnightblue" stroke="midnightblue" points="443.22,-191.27 433.777,-196.075 444.155,-198.207 443.22,-191.27"/>
</g>
<!-- Node47 -->
<g id="node47" class="node"><title>Node47</title>
<g id="a_node47"><a xlink:href="structContentFileTest.html#a0d9df10af237c591e67f8c7086808c9c" target="_top" xlink:title="ContentFileTest::SetUp">
<polygon fill="white" stroke="black" points="496,-126.5 496,-145.5 612,-145.5 612,-126.5 496,-126.5"/>
<text text-anchor="middle" x="554" y="-133.5" font-family="FreeSans" font-size="10.00">ContentFileTest::SetUp</text>
</a>
</g>
</g>
<!-- Node3&#45;&gt;Node47 -->
<g id="edge50" class="edge"><title>Node3&#45;&gt;Node47</title>
<path fill="none" stroke="midnightblue" d="M399.339,-189.277C418.086,-178.479 444.952,-164.161 470,-155 480.135,-151.293 491.238,-148.156 501.935,-145.564"/>
<polygon fill="midnightblue" stroke="midnightblue" points="397.44,-186.333 390.58,-194.407 400.977,-192.373 397.44,-186.333"/>
</g>
<!-- Node48 -->
<g id="node48" class="node"><title>Node48</title>
<g id="a_node48"><a xlink:href="test__store_8cpp.html#a9e81eaa84aa15662b8407d42d2027bad" target="_top" xlink:title="Tests deletion of records. ">
<polygon fill="white" stroke="black" points="527.5,-88.5 527.5,-107.5 580.5,-107.5 580.5,-88.5 527.5,-88.5"/>
<text text-anchor="middle" x="554" y="-95.5" font-family="FreeSans" font-size="10.00">TEST_F</text>
</a>
</g>
</g>
<!-- Node3&#45;&gt;Node48 -->
<g id="edge51" class="edge"><title>Node3&#45;&gt;Node48</title>
<path fill="none" stroke="midnightblue" d="M388.9,-186.726C405.896,-166.804 436.557,-134.549 470,-117 487.933,-107.59 510.443,-102.81 527.495,-100.4"/>
<polygon fill="midnightblue" stroke="midnightblue" points="386.194,-184.506 382.484,-194.431 391.573,-188.986 386.194,-184.506"/>
</g>
<!-- Node49 -->
<g id="node49" class="node"><title>Node49</title>
<g id="a_node49"><a xlink:href="classContentSelectorModel_1_1ContentModel.html#aa229a2d840fd314f27820ff45f51b648" target="_top" xlink:title="ContentSelectorModel\l::ContentModel::addFiles">
<polygon fill="white" stroke="black" points="493,-39 493,-69 615,-69 615,-39 493,-39"/>
<text text-anchor="start" x="501" y="-57" font-family="FreeSans" font-size="10.00">ContentSelectorModel</text>
<text text-anchor="middle" x="554" y="-46" font-family="FreeSans" font-size="10.00">::ContentModel::addFiles</text>
</a>
</g>
</g>
<!-- Node3&#45;&gt;Node49 -->
<g id="edge52" class="edge"><title>Node3&#45;&gt;Node49</title>
<path fill="none" stroke="midnightblue" d="M384.297,-185.251C398.831,-157.856 429.515,-107.1 470,-79 476.923,-74.1947 484.789,-70.2954 492.854,-67.1357"/>
<polygon fill="midnightblue" stroke="midnightblue" points="381.154,-183.71 379.685,-194.202 387.376,-186.916 381.154,-183.71"/>
</g>
<!-- Node50 -->
<g id="node50" class="node"><title>Node50</title>
<g id="a_node50"><a xlink:href="classESM_1_1ESMReader.html#aaf193be70879beeaced739fbc67bc442" target="_top" xlink:title="ESM::ESMReader::open">
<polygon fill="white" stroke="black" points="494.5,-0.5 494.5,-19.5 613.5,-19.5 613.5,-0.5 494.5,-0.5"/>
<text text-anchor="middle" x="554" y="-7.5" font-family="FreeSans" font-size="10.00">ESM::ESMReader::open</text>
</a>
</g>
</g>
<!-- Node3&#45;&gt;Node50 -->
<g id="edge53" class="edge"><title>Node3&#45;&gt;Node50</title>
<path fill="none" stroke="midnightblue" d="M379.911,-184.252C390.092,-147.604 417.096,-69.1551 470,-29 477.183,-23.5483 485.655,-19.6158 494.394,-16.7882"/>
<polygon fill="midnightblue" stroke="midnightblue" points="376.454,-183.632 377.281,-194.195 383.222,-185.422 376.454,-183.632"/>
</g>
<!-- Node5 -->
<g id="node5" class="node"><title>Node5</title>
<g id="a_node5"><a xlink:href="esmtool_8cpp.html#a3c04138a5bfe5d72780bb7e82a18e627" target="_top" xlink:title="main">
<polygon fill="white" stroke="black" points="947,-601.5 947,-620.5 985,-620.5 985,-601.5 947,-601.5"/>
<text text-anchor="middle" x="966" y="-608.5" font-family="FreeSans" font-size="10.00">main</text>
</a>
</g>
</g>
<!-- Node4&#45;&gt;Node5 -->
<g id="edge4" class="edge"><title>Node4&#45;&gt;Node5</title>
<path fill="none" stroke="midnightblue" d="M562.202,-561.99C576.902,-597.66 614.119,-673.798 674,-704 738.286,-736.424 774.857,-742.021 836,-704 866.72,-684.897 843.472,-653.243 872,-631 893.75,-614.042 926.7,-610.698 946.981,-610.422"/>
<polygon fill="midnightblue" stroke="midnightblue" points="565.453,-560.693 558.507,-552.693 558.948,-563.278 565.453,-560.693"/>
</g>
<!-- Node6 -->
<g id="node6" class="node"><title>Node6</title>
<g id="a_node6"><a xlink:href="esmtool_8cpp.html#a0bab682aaafd448095576d6716e53d79" target="_top" xlink:title="clone">
<polygon fill="white" stroke="black" points="735,-904.5 735,-923.5 775,-923.5 775,-904.5 735,-904.5"/>
<text text-anchor="middle" x="755" y="-911.5" font-family="FreeSans" font-size="10.00">clone</text>
</a>
</g>
</g>
<!-- Node4&#45;&gt;Node6 -->
<g id="edge5" class="edge"><title>Node4&#45;&gt;Node6</title>
<path fill="none" stroke="midnightblue" d="M564.917,-561.489C600.625,-628.059 721.932,-854.215 748.731,-904.177"/>
<polygon fill="midnightblue" stroke="midnightblue" points="567.93,-559.702 560.119,-552.544 561.762,-563.01 567.93,-559.702"/>
</g>
<!-- Node28 -->
<g id="node28" class="node"><title>Node28</title>
<g id="a_node28"><a xlink:href="esmtool_8cpp.html#ab6c253faed5453720ba78696cfaf7a4c" target="_top" xlink:title="comp">
<polygon fill="white" stroke="black" points="734.5,-577.5 734.5,-596.5 775.5,-596.5 775.5,-577.5 734.5,-577.5"/>
<text text-anchor="middle" x="755" y="-584.5" font-family="FreeSans" font-size="10.00">comp</text>
</a>
</g>
</g>
<!-- Node4&#45;&gt;Node28 -->
<g id="edge29" class="edge"><title>Node4&#45;&gt;Node28</title>
<path fill="none" stroke="midnightblue" d="M581.579,-548.877C622.116,-557.84 698.458,-574.719 734.377,-582.661"/>
<polygon fill="midnightblue" stroke="midnightblue" points="582.144,-545.417 571.624,-546.676 580.633,-552.252 582.144,-545.417"/>
</g>
<!-- Node30 -->
<g id="node30" class="node"><title>Node30</title>
<g id="a_node30"><a xlink:href="classCSMWorld_1_1IdCollection.html#abcb3d75113348f77abf274af2429a186" target="_top" xlink:title="CSMWorld::IdCollection\l::load">
<polygon fill="white" stroke="black" points="695.5,-665 695.5,-695 814.5,-695 814.5,-665 695.5,-665"/>
<text text-anchor="start" x="703.5" y="-683" font-family="FreeSans" font-size="10.00">CSMWorld::IdCollection</text>
<text text-anchor="middle" x="755" y="-672" font-family="FreeSans" font-size="10.00">::load</text>
</a>
</g>
</g>
<!-- Node4&#45;&gt;Node30 -->
<g id="edge32" class="edge"><title>Node4&#45;&gt;Node30</title>
<path fill="none" stroke="midnightblue" d="M568.954,-560.385C589.489,-584.872 630.18,-629.384 674,-655 680.658,-658.892 687.988,-662.244 695.427,-665.113"/>
<polygon fill="midnightblue" stroke="midnightblue" points="571.619,-558.115 562.56,-552.623 566.217,-562.566 571.619,-558.115"/>
</g>
<!-- Node31 -->
<g id="node31" class="node"><title>Node31</title>
<g id="a_node31"><a xlink:href="classCSMWorld_1_1InfoCollection.html#ae99e0601708f478f6832cfb4c0cea2b7" target="_top" xlink:title="CSMWorld::InfoCollection\l::load">
<polygon fill="white" stroke="black" points="691.5,-616 691.5,-646 818.5,-646 818.5,-616 691.5,-616"/>
<text text-anchor="start" x="699.5" y="-634" font-family="FreeSans" font-size="10.00">CSMWorld::InfoCollection</text>
<text text-anchor="middle" x="755" y="-623" font-family="FreeSans" font-size="10.00">::load</text>
</a>
</g>
</g>
<!-- Node4&#45;&gt;Node31 -->
<g id="edge33" class="edge"><title>Node4&#45;&gt;Node31</title>
<path fill="none" stroke="midnightblue" d="M579.363,-557.607C602.975,-571.348 640.093,-591.868 674,-606 682.596,-609.583 691.894,-612.937 701.006,-615.952"/>
<polygon fill="midnightblue" stroke="midnightblue" points="581.108,-554.572 570.713,-552.524 577.562,-560.608 581.108,-554.572"/>
</g>
<!-- Node32 -->
<g id="node32" class="node"><title>Node32</title>
<g id="a_node32"><a xlink:href="classMWGui_1_1SaveGameDialog.html#ac7f6ba5be8eb08ec2cb94458ceaa565a" target="_top" xlink:title="MWGui::SaveGameDialog\l::setLoadOrSave">
<polygon fill="white" stroke="black" points="691,-479 691,-509 819,-509 819,-479 691,-479"/>
<text text-anchor="start" x="699" y="-497" font-family="FreeSans" font-size="10.00">MWGui::SaveGameDialog</text>
<text text-anchor="middle" x="755" y="-486" font-family="FreeSans" font-size="10.00">::setLoadOrSave</text>
</a>
</g>
</g>
<!-- Node4&#45;&gt;Node32 -->
<g id="edge34" class="edge"><title>Node4&#45;&gt;Node32</title>
<path fill="none" stroke="midnightblue" d="M581.574,-536.457C609.913,-529.479 655.755,-518.191 693.05,-509.008"/>
<polygon fill="midnightblue" stroke="midnightblue" points="580.497,-533.117 571.624,-538.907 582.171,-539.914 580.497,-533.117"/>
</g>
<!-- Node34 -->
<g id="node34" class="node"><title>Node34</title>
<g id="a_node34"><a xlink:href="classMWState_1_1StateManager.html#a50bc82b32704d460a56dd7d16a91b846" target="_top" xlink:title="MWState::StateManager\l::saveGame">
<polygon fill="white" stroke="black" points="694,-528 694,-558 816,-558 816,-528 694,-528"/>
<text text-anchor="start" x="702" y="-546" font-family="FreeSans" font-size="10.00">MWState::StateManager</text>
<text text-anchor="middle" x="755" y="-535" font-family="FreeSans" font-size="10.00">::saveGame</text>
</a>
</g>
</g>
<!-- Node4&#45;&gt;Node34 -->
<g id="edge36" class="edge"><title>Node4&#45;&gt;Node34</title>
<path fill="none" stroke="midnightblue" d="M581.651,-543C610.222,-543 656.521,-543 693.94,-543"/>
<polygon fill="midnightblue" stroke="midnightblue" points="581.624,-539.5 571.624,-543 581.624,-546.5 581.624,-539.5"/>
</g>
<!-- Node4&#45;&gt;Node35 -->
<g id="edge37" class="edge"><title>Node4&#45;&gt;Node35</title>
<path fill="none" stroke="midnightblue" d="M563.839,-524.216C580.578,-490.662 620.109,-420.358 674,-382 680.046,-377.697 686.858,-374.116 693.891,-371.14"/>
<polygon fill="midnightblue" stroke="midnightblue" points="560.612,-522.849 559.386,-533.373 566.907,-525.911 560.612,-522.849"/>
</g>
<!-- Node36 -->
<g id="node36" class="node"><title>Node36</title>
<g id="a_node36"><a xlink:href="classMWWorld_1_1Scene.html#a18f42f1ea372caa82458e8c331937c27" target="_top" xlink:title="MWWorld::Scene::changeCellGrid">
<polygon fill="white" stroke="black" points="674.5,-440.5 674.5,-459.5 835.5,-459.5 835.5,-440.5 674.5,-440.5"/>
<text text-anchor="middle" x="755" y="-447.5" font-family="FreeSans" font-size="10.00">MWWorld::Scene::changeCellGrid</text>
</a>
</g>
</g>
<!-- Node4&#45;&gt;Node36 -->
<g id="edge38" class="edge"><title>Node4&#45;&gt;Node36</title>
<path fill="none" stroke="midnightblue" d="M576.147,-527.251C599.141,-510.81 637.504,-485.328 674,-470 684.032,-465.787 695.158,-462.313 705.844,-459.51"/>
<polygon fill="midnightblue" stroke="midnightblue" points="573.882,-524.57 567.843,-533.276 577.993,-530.236 573.882,-524.57"/>
</g>
<!-- Node38 -->
<g id="node38" class="node"><title>Node38</title>
<g id="a_node38"><a xlink:href="classMWWorld_1_1Scene.html#a4fe84b7d74d5d597e79e14d2a57b5496" target="_top" xlink:title="MWWorld::Scene::changeTo\lInteriorCell">
<polygon fill="white" stroke="black" points="686,-391 686,-421 824,-421 824,-391 686,-391"/>
<text text-anchor="start" x="694" y="-409" font-family="FreeSans" font-size="10.00">MWWorld::Scene::changeTo</text>
<text text-anchor="middle" x="755" y="-398" font-family="FreeSans" font-size="10.00">InteriorCell</text>
</a>
</g>
</g>
<!-- Node4&#45;&gt;Node38 -->
<g id="edge40" class="edge"><title>Node4&#45;&gt;Node38</title>
<path fill="none" stroke="midnightblue" d="M568.954,-525.615C589.489,-501.128 630.18,-456.616 674,-431 680.532,-427.181 687.712,-423.883 695.006,-421.05"/>
<polygon fill="midnightblue" stroke="midnightblue" points="566.217,-523.434 562.56,-533.377 571.619,-527.885 566.217,-523.434"/>
</g>
<!-- Node6&#45;&gt;Node5 -->
<g id="edge6" class="edge"><title>Node6&#45;&gt;Node5</title>
<path fill="none" stroke="midnightblue" d="M765.339,-895.15C780.976,-863.233 813.003,-796.322 836,-738 854.405,-691.323 834.579,-664.424 872,-631 892.693,-612.518 926.278,-609.68 946.923,-609.913"/>
<polygon fill="midnightblue" stroke="midnightblue" points="762.146,-893.711 760.87,-904.228 768.426,-896.802 762.146,-893.711"/>
</g>
<!-- Node7 -->
<g id="node7" class="node"><title>Node7</title>
<g id="a_node7"><a xlink:href="namespaceMWRender.html#a11217742ce5ec79f658280f30dd141fd" target="_top" xlink:title="MWRender::overrideTexture">
<polygon fill="white" stroke="black" points="898.5,-973.5 898.5,-992.5 1033.5,-992.5 1033.5,-973.5 898.5,-973.5"/>
<text text-anchor="middle" x="966" y="-980.5" font-family="FreeSans" font-size="10.00">MWRender::overrideTexture</text>
</a>
</g>
</g>
<!-- Node6&#45;&gt;Node7 -->
<g id="edge7" class="edge"><title>Node6&#45;&gt;Node7</title>
<path fill="none" stroke="midnightblue" d="M784.513,-927.824C807.654,-938.606 841.353,-953.326 872,-963 884.914,-967.076 899.097,-970.593 912.411,-973.491"/>
<polygon fill="midnightblue" stroke="midnightblue" points="785.819,-924.57 775.282,-923.47 782.833,-930.901 785.819,-924.57"/>
</g>
<!-- Node10 -->
<g id="node10" class="node"><title>Node10</title>
<g id="a_node10"><a xlink:href="classMWRender_1_1Animation.html#aff362c03830efca83a352ab456362110" target="_top" xlink:title="MWRender::Animation\l::addAnimSource">
<polygon fill="white" stroke="black" points="909.5,-875 909.5,-905 1022.5,-905 1022.5,-875 909.5,-875"/>
<text text-anchor="start" x="917.5" y="-893" font-family="FreeSans" font-size="10.00">MWRender::Animation</text>
<text text-anchor="middle" x="966" y="-882" font-family="FreeSans" font-size="10.00">::addAnimSource</text>
</a>
</g>
</g>
<!-- Node6&#45;&gt;Node10 -->
<g id="edge10" class="edge"><title>Node6&#45;&gt;Node10</title>
<path fill="none" stroke="midnightblue" d="M785.321,-910.633C817.298,-906.961 869.231,-900.997 909.061,-896.424"/>
<polygon fill="midnightblue" stroke="midnightblue" points="784.823,-907.167 775.288,-911.785 785.622,-914.121 784.823,-907.167"/>
</g>
<!-- Node15 -->
<g id="node15" class="node"><title>Node15</title>
<g id="a_node15"><a xlink:href="classMWRender_1_1Animation.html#aee82ebb9884fbd0f8b563d8e0c2465fb" target="_top" xlink:title="MWRender::Animation\l::addGlow">
<polygon fill="white" stroke="red" points="909.5,-924 909.5,-954 1022.5,-954 1022.5,-924 909.5,-924"/>
<text text-anchor="start" x="917.5" y="-942" font-family="FreeSans" font-size="10.00">MWRender::Animation</text>
<text text-anchor="middle" x="966" y="-931" font-family="FreeSans" font-size="10.00">::addGlow</text>
</a>
</g>
</g>
<!-- Node6&#45;&gt;Node15 -->
<g id="edge15" class="edge"><title>Node6&#45;&gt;Node15</title>
<path fill="none" stroke="midnightblue" d="M785.321,-917.507C817.298,-921.332 869.231,-927.544 909.061,-932.309"/>
<polygon fill="midnightblue" stroke="midnightblue" points="785.633,-914.02 775.288,-916.307 784.801,-920.97 785.633,-914.02"/>
</g>
<!-- Node17 -->
<g id="node17" class="node"><title>Node17</title>
<g id="a_node17"><a xlink:href="classMWRender_1_1AlphaFader.html#ac629331ab3f0c9eca7f2d483315f13df" target="_top" xlink:title="MWRender::AlphaFader\l::setDefaults">
<polygon fill="white" stroke="black" points="906.5,-826 906.5,-856 1025.5,-856 1025.5,-826 906.5,-826"/>
<text text-anchor="start" x="914.5" y="-844" font-family="FreeSans" font-size="10.00">MWRender::AlphaFader</text>
<text text-anchor="middle" x="966" y="-833" font-family="FreeSans" font-size="10.00">::setDefaults</text>
</a>
</g>
</g>
<!-- Node6&#45;&gt;Node17 -->
<g id="edge18" class="edge"><title>Node6&#45;&gt;Node17</title>
<path fill="none" stroke="midnightblue" d="M784.268,-901.093C807.517,-890.773 841.483,-876.367 872,-866 882.923,-862.289 894.714,-858.763 906.112,-855.591"/>
<polygon fill="midnightblue" stroke="midnightblue" points="782.699,-897.961 775.002,-905.242 785.559,-904.35 782.699,-897.961"/>
</g>
<!-- Node18 -->
<g id="node18" class="node"><title>Node18</title>
<g id="a_node18"><a xlink:href="classMWRender_1_1Water.html#a54a42da8c7313f5496dd442557339e8a" target="_top" xlink:title="MWRender::Water::Water">
<polygon fill="white" stroke="black" points="903.5,-787.5 903.5,-806.5 1028.5,-806.5 1028.5,-787.5 903.5,-787.5"/>
<text text-anchor="middle" x="966" y="-794.5" font-family="FreeSans" font-size="10.00">MWRender::Water::Water</text>
</a>
</g>
</g>
<!-- Node6&#45;&gt;Node18 -->
<g id="edge19" class="edge"><title>Node6&#45;&gt;Node18</title>
<path fill="none" stroke="midnightblue" d="M771.518,-896.61C792.205,-874.561 830.999,-837.015 872,-817 881.647,-812.291 892.39,-808.684 903.052,-805.923"/>
<polygon fill="midnightblue" stroke="midnightblue" points="768.701,-894.502 764.509,-904.232 773.854,-899.24 768.701,-894.502"/>
</g>
<!-- Node19 -->
<g id="node19" class="node"><title>Node19</title>
<g id="a_node19"><a xlink:href="classNifOsg_1_1AlphaController.html#aab26ce8fcaf3cba2ba9613a3c1282100" target="_top" xlink:title="NifOsg::AlphaController\l::setDefaults">
<polygon fill="white" stroke="black" points="908,-738 908,-768 1024,-768 1024,-738 908,-738"/>
<text text-anchor="start" x="916" y="-756" font-family="FreeSans" font-size="10.00">NifOsg::AlphaController</text>
<text text-anchor="middle" x="966" y="-745" font-family="FreeSans" font-size="10.00">::setDefaults</text>
</a>
</g>
</g>
<!-- Node6&#45;&gt;Node19 -->
<g id="edge20" class="edge"><title>Node6&#45;&gt;Node19</title>
<path fill="none" stroke="midnightblue" d="M766.597,-895.534C784.468,-866.085 823.448,-808.684 872,-778 882.741,-771.212 895.301,-766.251 907.654,-762.63"/>
<polygon fill="midnightblue" stroke="midnightblue" points="763.448,-893.984 761.362,-904.371 769.47,-897.551 763.448,-893.984"/>
</g>
<!-- Node20 -->
<g id="node20" class="node"><title>Node20</title>
<g id="a_node20"><a xlink:href="classNifOsg_1_1LoaderImpl.html#aada89a0706b45db0af7ceab21c8bda4e" target="_top" xlink:title="NifOsg::LoaderImpl\l::handleTriShape">
<polygon fill="white" stroke="red" points="917,-689 917,-719 1015,-719 1015,-689 917,-689"/>
<text text-anchor="start" x="925" y="-707" font-family="FreeSans" font-size="10.00">NifOsg::LoaderImpl</text>
<text text-anchor="middle" x="966" y="-696" font-family="FreeSans" font-size="10.00">::handleTriShape</text>
</a>
</g>
</g>
<!-- Node6&#45;&gt;Node20 -->
<g id="edge21" class="edge"><title>Node6&#45;&gt;Node20</title>
<path fill="none" stroke="midnightblue" d="M762.74,-894.316C776.791,-856.303 812.906,-772.693 872,-729 884.906,-719.458 901.21,-713.557 916.55,-709.907"/>
<polygon fill="midnightblue" stroke="midnightblue" points="759.292,-893.564 759.223,-904.158 765.884,-895.919 759.292,-893.564"/>
</g>
<!-- Node21 -->
<g id="node21" class="node"><title>Node21</title>
<g id="a_node21"><a xlink:href="classNifOsg_1_1LoaderImpl.html#a2aebf4d6b3d881f8a5ec171b33faae96" target="_top" xlink:title="NifOsg::LoaderImpl\l::handleSkinnedTriShape">
<polygon fill="white" stroke="red" points="904,-640 904,-670 1028,-670 1028,-640 904,-640"/>
<text text-anchor="start" x="912" y="-658" font-family="FreeSans" font-size="10.00">NifOsg::LoaderImpl</text>
<text text-anchor="middle" x="966" y="-647" font-family="FreeSans" font-size="10.00">::handleSkinnedTriShape</text>
</a>
</g>
</g>
<!-- Node6&#45;&gt;Node21 -->
<g id="edge22" class="edge"><title>Node6&#45;&gt;Node21</title>
<path fill="none" stroke="midnightblue" d="M764.263,-895.157C787.621,-842.225 853.63,-695.056 872,-680 881.181,-672.475 892.423,-667.201 903.876,-663.509"/>
<polygon fill="midnightblue" stroke="midnightblue" points="761.011,-893.857 760.187,-904.42 767.418,-896.677 761.011,-893.857"/>
</g>
<!-- Node22 -->
<g id="node22" class="node"><title>Node22</title>
<g id="a_node22"><a xlink:href="classResource_1_1SceneManager.html#a0b3d33cb5ff1935dcb2ef16b649878e2" target="_top" xlink:title="Resource::SceneManager\l::createInstance">
<polygon fill="white" stroke="red" points="902.5,-1246 902.5,-1276 1029.5,-1276 1029.5,-1246 902.5,-1246"/>
<text text-anchor="start" x="910.5" y="-1264" font-family="FreeSans" font-size="10.00">Resource::SceneManager</text>
<text text-anchor="middle" x="966" y="-1253" font-family="FreeSans" font-size="10.00">::createInstance</text>
</a>
</g>
</g>
<!-- Node6&#45;&gt;Node22 -->
<g id="edge23" class="edge"><title>Node6&#45;&gt;Node22</title>
<path fill="none" stroke="midnightblue" d="M757.02,-933.619C761.023,-989.636 780.366,-1151.69 872,-1236 880.489,-1243.81 891.159,-1249.23 902.216,-1252.97"/>
<polygon fill="midnightblue" stroke="midnightblue" points="760.512,-933.373 756.393,-923.611 753.526,-933.811 760.512,-933.373"/>
</g>
<!-- Node23 -->
<g id="node23" class="node"><title>Node23</title>
<g id="a_node23"><a xlink:href="classSceneUtil_1_1CopyOp.html#ad79ac1535205dc4cccedb31a9e9feec1" target="_top" xlink:title="SceneUtil::CopyOp::\loperator()">
<polygon fill="white" stroke="black" points="915,-1197 915,-1227 1017,-1227 1017,-1197 915,-1197"/>
<text text-anchor="start" x="923" y="-1215" font-family="FreeSans" font-size="10.00">SceneUtil::CopyOp::</text>
<text text-anchor="middle" x="966" y="-1204" font-family="FreeSans" font-size="10.00">operator()</text>
</a>
</g>
</g>
<!-- Node6&#45;&gt;Node23 -->
<g id="edge24" class="edge"><title>Node6&#45;&gt;Node23</title>
<path fill="none" stroke="midnightblue" d="M758.489,-933.918C765.868,-984.298 792.33,-1117.71 872,-1187 883.859,-1197.31 899.547,-1203.42 914.655,-1207.03"/>
<polygon fill="midnightblue" stroke="midnightblue" points="761.918,-933.159 757.096,-923.725 754.983,-934.107 761.918,-933.159"/>
</g>
<!-- Node24 -->
<g id="node24" class="node"><title>Node24</title>
<g id="a_node24"><a xlink:href="classSceneUtil_1_1LightSource.html#a5996a83ebe673a5d390b24f9874ebbc5" target="_top" xlink:title="SceneUtil::LightSource\l::setLight">
<polygon fill="white" stroke="red" points="908.5,-1148 908.5,-1178 1023.5,-1178 1023.5,-1148 908.5,-1148"/>
<text text-anchor="start" x="916.5" y="-1166" font-family="FreeSans" font-size="10.00">SceneUtil::LightSource</text>
<text text-anchor="middle" x="966" y="-1155" font-family="FreeSans" font-size="10.00">::setLight</text>
</a>
</g>
</g>
<!-- Node6&#45;&gt;Node24 -->
<g id="edge25" class="edge"><title>Node6&#45;&gt;Node24</title>
<path fill="none" stroke="midnightblue" d="M760.491,-933.83C771.472,-977.651 803.901,-1083.18 872,-1138 882.419,-1146.39 895.408,-1151.97 908.343,-1155.69"/>
<polygon fill="midnightblue" stroke="midnightblue" points="763.837,-932.772 758.102,-923.863 757.03,-934.403 763.837,-932.772"/>
</g>
<!-- Node25 -->
<g id="node25" class="node"><title>Node25</title>
<g id="a_node25"><a xlink:href="classSceneUtil_1_1RigGeometry.html#ad6eb71ad7d1fae89e042d41dd8a67fc4" target="_top" xlink:title="SceneUtil::RigGeometry\l::setSourceGeometry">
<polygon fill="white" stroke="red" points="906.5,-1099 906.5,-1129 1025.5,-1129 1025.5,-1099 906.5,-1099"/>
<text text-anchor="start" x="914.5" y="-1117" font-family="FreeSans" font-size="10.00">SceneUtil::RigGeometry</text>
<text text-anchor="middle" x="966" y="-1106" font-family="FreeSans" font-size="10.00">::setSourceGeometry</text>
</a>
</g>
</g>
<!-- Node6&#45;&gt;Node25 -->
<g id="edge26" class="edge"><title>Node6&#45;&gt;Node25</title>
<path fill="none" stroke="midnightblue" d="M763.256,-933.137C777.987,-969.341 814.923,-1047.9 872,-1089 882.04,-1096.23 894.047,-1101.37 906.044,-1105.02"/>
<polygon fill="midnightblue" stroke="midnightblue" points="766.471,-931.748 759.545,-923.73 759.959,-934.317 766.471,-931.748"/>
</g>
<!-- Node26 -->
<g id="node26" class="node"><title>Node26</title>
<g id="a_node26"><a xlink:href="classSceneUtil_1_1CompositeStateSetUpdater.html#a04f60461843a92fe612da5def352c804" target="_top" xlink:title="SceneUtil::CompositeState\lSetUpdater::CompositeStateSetUpdater">
<polygon fill="white" stroke="black" points="872,-1050 872,-1080 1060,-1080 1060,-1050 872,-1050"/>
<text text-anchor="start" x="880" y="-1068" font-family="FreeSans" font-size="10.00">SceneUtil::CompositeState</text>
<text text-anchor="middle" x="966" y="-1057" font-family="FreeSans" font-size="10.00">SetUpdater::CompositeStateSetUpdater</text>
</a>
</g>
</g>
<!-- Node6&#45;&gt;Node26 -->
<g id="edge27" class="edge"><title>Node6&#45;&gt;Node26</title>
<path fill="none" stroke="midnightblue" d="M767.723,-932.249C786.403,-959.83 825.592,-1011.89 872,-1040 878.435,-1043.9 885.481,-1047.2 892.725,-1049.99"/>
<polygon fill="midnightblue" stroke="midnightblue" points="770.431,-930 761.992,-923.594 764.594,-933.864 770.431,-930"/>
</g>
<!-- Node27 -->
<g id="node27" class="node"><title>Node27</title>
<g id="a_node27"><a xlink:href="namespaceShader.html#aff457f7098a5bd9dddbad6b287bbafb0" target="_top" xlink:title="Shader::getWritableStateSet">
<polygon fill="white" stroke="red" points="896.5,-1011.5 896.5,-1030.5 1035.5,-1030.5 1035.5,-1011.5 896.5,-1011.5"/>
<text text-anchor="middle" x="966" y="-1018.5" font-family="FreeSans" font-size="10.00">Shader::getWritableStateSet</text>
</a>
</g>
</g>
<!-- Node6&#45;&gt;Node27 -->
<g id="edge28" class="edge"><title>Node6&#45;&gt;Node27</title>
<path fill="none" stroke="midnightblue" d="M772.799,-930.716C794.033,-950.84 832.593,-984.153 872,-1002 880.557,-1005.88 889.913,-1008.97 899.29,-1011.43"/>
<polygon fill="midnightblue" stroke="midnightblue" points="775.168,-928.138 765.543,-923.708 770.305,-933.173 775.168,-928.138"/>
</g>
<!-- Node8 -->
<g id="node8" class="node"><title>Node8</title>
<g id="a_node8"><a xlink:href="classMWRender_1_1TextureOverrideVisitor.html#a7bdf791352fe2d0b61290696156fb48c" target="_top" xlink:title="MWRender::TextureOverride\lVisitor::apply">
<polygon fill="white" stroke="black" points="1117.5,-1047 1117.5,-1077 1254.5,-1077 1254.5,-1047 1117.5,-1047"/>
<text text-anchor="start" x="1125.5" y="-1065" font-family="FreeSans" font-size="10.00">MWRender::TextureOverride</text>
<text text-anchor="middle" x="1186" y="-1054" font-family="FreeSans" font-size="10.00">Visitor::apply</text>
</a>
</g>
</g>
<!-- Node7&#45;&gt;Node8 -->
<g id="edge8" class="edge"><title>Node7&#45;&gt;Node8</title>
<path fill="none" stroke="midnightblue" d="M1043.44,-994.855C1049.19,-996.874 1054.77,-999.236 1060,-1002 1079.73,-1012.43 1076.66,-1025.86 1096,-1037 1102.68,-1040.85 1109.98,-1044.13 1117.43,-1046.92"/>
<polygon fill="midnightblue" stroke="midnightblue" points="1044.25,-991.44 1033.66,-991.771 1042.14,-998.116 1044.25,-991.44"/>
</g>
<!-- Node9 -->
<g id="node9" class="node"><title>Node9</title>
<g id="a_node9"><a xlink:href="classMWRender_1_1EffectManager.html#ae0fca51c4858dc2be1e7f9175b3b0225" target="_top" xlink:title="Add an effect. When it&#39;s finished playing, it will be removed automatically. ">
<polygon fill="white" stroke="black" points="1120.5,-998 1120.5,-1028 1251.5,-1028 1251.5,-998 1120.5,-998"/>
<text text-anchor="start" x="1128.5" y="-1016" font-family="FreeSans" font-size="10.00">MWRender::EffectManager</text>
<text text-anchor="middle" x="1186" y="-1005" font-family="FreeSans" font-size="10.00">::addEffect</text>
</a>
</g>
</g>
<!-- Node7&#45;&gt;Node9 -->
<g id="edge9" class="edge"><title>Node7&#45;&gt;Node9</title>
<path fill="none" stroke="midnightblue" d="M1043.77,-993.565C1068.78,-997.007 1096.28,-1000.79 1120.31,-1004.1"/>
<polygon fill="midnightblue" stroke="midnightblue" points="1043.98,-990.06 1033.59,-992.164 1043.02,-996.995 1043.98,-990.06"/>
</g>
<!-- Node11 -->
<g id="node11" class="node"><title>Node11</title>
<g id="a_node11"><a xlink:href="classMWRender_1_1ObjectAnimation.html#aef4ebbb9050af74efe7bae5749c06858" target="_top" xlink:title="MWRender::ObjectAnimation\l::ObjectAnimation">
<polygon fill="white" stroke="black" points="1115.5,-900 1115.5,-930 1256.5,-930 1256.5,-900 1115.5,-900"/>
<text text-anchor="start" x="1123.5" y="-918" font-family="FreeSans" font-size="10.00">MWRender::ObjectAnimation</text>
<text text-anchor="middle" x="1186" y="-907" font-family="FreeSans" font-size="10.00">::ObjectAnimation</text>
</a>
</g>
</g>
<!-- Node10&#45;&gt;Node11 -->
<g id="edge11" class="edge"><title>Node10&#45;&gt;Node11</title>
<path fill="none" stroke="midnightblue" d="M1032.75,-897.541C1058.88,-900.537 1088.97,-903.987 1115.46,-907.025"/>
<polygon fill="midnightblue" stroke="midnightblue" points="1032.91,-894.035 1022.57,-896.373 1032.11,-900.99 1032.91,-894.035"/>
</g>
<!-- Node12 -->
<g id="node12" class="node"><title>Node12</title>
<g id="a_node12"><a xlink:href="classMWRender_1_1CreatureAnimation.html#a59a0d6b902a85c22537bea81847a40d1" target="_top" xlink:title="MWRender::CreatureAnimation\l::CreatureAnimation">
<polygon fill="white" stroke="black" points="1111.5,-753 1111.5,-783 1260.5,-783 1260.5,-753 1111.5,-753"/>
<text text-anchor="start" x="1119.5" y="-771" font-family="FreeSans" font-size="10.00">MWRender::CreatureAnimation</text>
<text text-anchor="middle" x="1186" y="-760" font-family="FreeSans" font-size="10.00">::CreatureAnimation</text>
</a>
</g>
</g>
<!-- Node10&#45;&gt;Node12 -->
<g id="edge12" class="edge"><title>Node10&#45;&gt;Node12</title>
<path fill="none" stroke="midnightblue" d="M1032.38,-880.01C1042.33,-876.427 1051.95,-871.572 1060,-865 1087.71,-842.368 1068.42,-815.787 1096,-793 1100.7,-789.116 1105.97,-785.833 1111.53,-783.061"/>
<polygon fill="midnightblue" stroke="midnightblue" points="1031.24,-876.7 1022.77,-883.071 1033.36,-883.37 1031.24,-876.7"/>
</g>
<!-- Node13 -->
<g id="node13" class="node"><title>Node13</title>
<g id="a_node13"><a xlink:href="classMWRender_1_1CreatureWeaponAnimation.html#a1016608182292ace41cb8af7e72e87c0" target="_top" xlink:title="MWRender::CreatureWeapon\lAnimation::CreatureWeaponAnimation">
<polygon fill="white" stroke="black" points="1096,-851 1096,-881 1276,-881 1276,-851 1096,-851"/>
<text text-anchor="start" x="1104" y="-869" font-family="FreeSans" font-size="10.00">MWRender::CreatureWeapon</text>
<text text-anchor="middle" x="1186" y="-858" font-family="FreeSans" font-size="10.00">Animation::CreatureWeaponAnimation</text>
</a>
</g>
</g>
<!-- Node10&#45;&gt;Node13 -->
<g id="edge13" class="edge"><title>Node10&#45;&gt;Node13</title>
<path fill="none" stroke="midnightblue" d="M1032.7,-882.767C1052.5,-880.587 1074.58,-878.156 1095.64,-875.837"/>
<polygon fill="midnightblue" stroke="midnightblue" points="1032.13,-879.308 1022.57,-883.882 1032.9,-886.266 1032.13,-879.308"/>
</g>
<!-- Node14 -->
<g id="node14" class="node"><title>Node14</title>
<g id="a_node14"><a xlink:href="classMWRender_1_1NpcAnimation.html#acf50b96cffb19c225200c4bff36fbce7" target="_top" xlink:title="MWRender::NpcAnimation\l::updateNpcBase">
<polygon fill="white" stroke="red" points="1121,-802 1121,-832 1251,-832 1251,-802 1121,-802"/>
<text text-anchor="start" x="1129" y="-820" font-family="FreeSans" font-size="10.00">MWRender::NpcAnimation</text>
<text text-anchor="middle" x="1186" y="-809" font-family="FreeSans" font-size="10.00">::updateNpcBase</text>
</a>
</g>
</g>
<!-- Node10&#45;&gt;Node14 -->
<g id="edge14" class="edge"><title>Node10&#45;&gt;Node14</title>
<path fill="none" stroke="midnightblue" d="M1032.34,-875.163C1041.79,-872.238 1051.26,-868.857 1060,-865 1077.37,-857.335 1078.67,-849.763 1096,-842 1104.35,-838.26 1113.39,-834.946 1122.41,-832.054"/>
<polygon fill="midnightblue" stroke="midnightblue" points="1031.15,-871.866 1022.55,-878.047 1033.13,-878.581 1031.15,-871.866"/>
</g>
<!-- Node15&#45;&gt;Node11 -->
<g id="edge17" class="edge"><title>Node15&#45;&gt;Node11</title>
<path fill="none" stroke="midnightblue" d="M1032.75,-931.761C1058.88,-928.884 1088.97,-925.572 1115.46,-922.656"/>
<polygon fill="midnightblue" stroke="midnightblue" points="1032.13,-928.308 1022.57,-932.882 1032.9,-935.266 1032.13,-928.308"/>
</g>
<!-- Node16 -->
<g id="node16" class="node"><title>Node16</title>
<g id="a_node16"><a xlink:href="classMWRender_1_1Animation.html#abed989fb7189cb08942784a17bdc1261" target="_top" xlink:title="MWRender::Animation\l::addSpellCastGlow">
<polygon fill="white" stroke="red" points="1129.5,-949 1129.5,-979 1242.5,-979 1242.5,-949 1129.5,-949"/>
<text text-anchor="start" x="1137.5" y="-967" font-family="FreeSans" font-size="10.00">MWRender::Animation</text>
<text text-anchor="middle" x="1186" y="-956" font-family="FreeSans" font-size="10.00">::addSpellCastGlow</text>
</a>
</g>
</g>
<!-- Node15&#45;&gt;Node16 -->
<g id="edge16" class="edge"><title>Node15&#45;&gt;Node16</title>
<path fill="none" stroke="midnightblue" d="M1032.78,-946.543C1063.52,-950.069 1099.75,-954.224 1129.15,-957.595"/>
<polygon fill="midnightblue" stroke="midnightblue" points="1032.91,-943.035 1022.57,-945.373 1032.11,-949.99 1032.91,-943.035"/>
</g>
<!-- Node28&#45;&gt;Node5 -->
<g id="edge30" class="edge"><title>Node28&#45;&gt;Node5</title>
<path fill="none" stroke="midnightblue" d="M785.728,-590.414C829.657,-595.458 910.6,-604.753 946.741,-608.903"/>
<polygon fill="midnightblue" stroke="midnightblue" points="785.996,-586.922 775.662,-589.258 785.198,-593.876 785.996,-586.922"/>
</g>
<!-- Node29 -->
<g id="node29" class="node"><title>Node29</title>
<g id="a_node29"><a xlink:href="classResource_1_1BulletShape.html#aab2457fb8893051ac478eca0f66253ba" target="_top" xlink:title="Resource::BulletShape\l::duplicateCollisionShape">
<polygon fill="white" stroke="red" points="904,-552 904,-582 1028,-582 1028,-552 904,-552"/>
<text text-anchor="start" x="912" y="-570" font-family="FreeSans" font-size="10.00">Resource::BulletShape</text>
<text text-anchor="middle" x="966" y="-559" font-family="FreeSans" font-size="10.00">::duplicateCollisionShape</text>
</a>
</g>
</g>
<!-- Node28&#45;&gt;Node29 -->
<g id="edge31" class="edge"><title>Node28&#45;&gt;Node29</title>
<path fill="none" stroke="midnightblue" d="M785.7,-584.158C816.332,-581.227 864.984,-576.571 903.883,-572.848"/>
<polygon fill="midnightblue" stroke="midnightblue" points="785.283,-580.682 775.662,-585.118 785.95,-587.65 785.283,-580.682"/>
</g>
<!-- Node33 -->
<g id="node33" class="node"><title>Node33</title>
<g id="a_node33"><a xlink:href="classMWGui_1_1MainMenu.html#a45aaa45f93dd684f914565f4823469b6" target="_top" xlink:title="MWGui::MainMenu::onButton\lClicked">
<polygon fill="white" stroke="red" points="895,-484 895,-514 1037,-514 1037,-484 895,-484"/>
<text text-anchor="start" x="903" y="-502" font-family="FreeSans" font-size="10.00">MWGui::MainMenu::onButton</text>
<text text-anchor="middle" x="966" y="-491" font-family="FreeSans" font-size="10.00">Clicked</text>
</a>
</g>
</g>
<!-- Node32&#45;&gt;Node33 -->
<g id="edge35" class="edge"><title>Node32&#45;&gt;Node33</title>
<path fill="none" stroke="midnightblue" d="M829.494,-495.758C850.653,-496.264 873.676,-496.815 894.64,-497.317"/>
<polygon fill="midnightblue" stroke="midnightblue" points="829.355,-492.254 819.274,-495.514 829.187,-499.252 829.355,-492.254"/>
</g>
<!-- Node37 -->
<g id="node37" class="node"><title>Node37</title>
<g id="a_node37"><a xlink:href="classMWWorld_1_1Scene.html#aa839931bb3be7256993237b5b5b886ce" target="_top" xlink:title="MWWorld::Scene::changeTo\lExteriorCell">
<polygon fill="white" stroke="red" points="897,-435 897,-465 1035,-465 1035,-435 897,-435"/>
<text text-anchor="start" x="905" y="-453" font-family="FreeSans" font-size="10.00">MWWorld::Scene::changeTo</text>
<text text-anchor="middle" x="966" y="-442" font-family="FreeSans" font-size="10.00">ExteriorCell</text>
</a>
</g>
</g>
<!-- Node36&#45;&gt;Node37 -->
<g id="edge39" class="edge"><title>Node36&#45;&gt;Node37</title>
<path fill="none" stroke="midnightblue" d="M845.638,-450C862.801,-450 880.511,-450 896.863,-450"/>
<polygon fill="midnightblue" stroke="midnightblue" points="845.61,-446.5 835.61,-450 845.61,-453.5 845.61,-446.5"/>
</g>
<!-- Node39 -->
<g id="node39" class="node"><title>Node39</title>
<g id="a_node39"><a xlink:href="classMWWorld_1_1World.html#a60987e10717123b8af23a4118907cb78" target="_top" xlink:title="MWWorld::World::changeTo\lInteriorCell">
<polygon fill="white" stroke="red" points="898.5,-386 898.5,-416 1033.5,-416 1033.5,-386 898.5,-386"/>
<text text-anchor="start" x="906.5" y="-404" font-family="FreeSans" font-size="10.00">MWWorld::World::changeTo</text>
<text text-anchor="middle" x="966" y="-393" font-family="FreeSans" font-size="10.00">InteriorCell</text>
</a>
</g>
</g>
<!-- Node38&#45;&gt;Node39 -->
<g id="edge41" class="edge"><title>Node38&#45;&gt;Node39</title>
<path fill="none" stroke="midnightblue" d="M834.351,-404.126C855.421,-403.622 878.007,-403.081 898.373,-402.594"/>
<polygon fill="midnightblue" stroke="midnightblue" points="834.059,-400.631 824.145,-404.37 834.226,-407.629 834.059,-400.631"/>
</g>
<!-- Node41 -->
<g id="node41" class="node"><title>Node41</title>
<g id="a_node41"><a xlink:href="classESSImport_1_1Importer.html#a67d910fab84185a55ab0ef37401cd632" target="_top" xlink:title="ESSImport::Importer\l::compare">
<polygon fill="white" stroke="black" points="703,-293 703,-323 807,-323 807,-293 703,-293"/>
<text text-anchor="start" x="711" y="-311" font-family="FreeSans" font-size="10.00">ESSImport::Importer</text>
<text text-anchor="middle" x="755" y="-300" font-family="FreeSans" font-size="10.00">::compare</text>
</a>
</g>
</g>
<!-- Node40&#45;&gt;Node41 -->
<g id="edge43" class="edge"><title>Node40&#45;&gt;Node41</title>
<path fill="none" stroke="midnightblue" d="M607.789,-310.204C637.237,-309.76 673.747,-309.21 702.916,-308.77"/>
<polygon fill="midnightblue" stroke="midnightblue" points="607.637,-306.706 597.69,-310.356 607.742,-313.705 607.637,-306.706"/>
</g>
<!-- Node42 -->
<g id="node42" class="node"><title>Node42</title>
<g id="a_node42"><a xlink:href="structMWSound_1_1Sound__Decoder.html#a1675b5d242bb6c7a3700a98f06f48de1" target="_top" xlink:title="MWSound::Sound_Decoder\l::readAll">
<polygon fill="white" stroke="black" points="687.5,-244 687.5,-274 822.5,-274 822.5,-244 687.5,-244"/>
<text text-anchor="start" x="695.5" y="-262" font-family="FreeSans" font-size="10.00">MWSound::Sound_Decoder</text>
<text text-anchor="middle" x="755" y="-251" font-family="FreeSans" font-size="10.00">::readAll</text>
</a>
</g>
</g>
<!-- Node40&#45;&gt;Node42 -->
<g id="edge44" class="edge"><title>Node40&#45;&gt;Node42</title>
<path fill="none" stroke="midnightblue" d="M607.678,-299.376C617.766,-297.027 628.227,-294.507 638,-292 659.498,-286.485 683.081,-279.88 703.337,-274.032"/>
<polygon fill="midnightblue" stroke="midnightblue" points="606.714,-296.007 597.754,-301.661 608.284,-302.828 606.714,-296.007"/>
</g>
<!-- Node46 -->
<g id="node46" class="node"><title>Node46</title>
<g id="a_node46"><a xlink:href="classMWState_1_1Character.html#a36bf3c14ba11a53921d266d09f5dec6b" target="_top" xlink:title="MWState::Character\l::Character">
<polygon fill="white" stroke="black" points="703,-165 703,-195 807,-195 807,-165 703,-165"/>
<text text-anchor="start" x="711" y="-183" font-family="FreeSans" font-size="10.00">MWState::Character</text>
<text text-anchor="middle" x="755" y="-172" font-family="FreeSans" font-size="10.00">::Character</text>
</a>
</g>
</g>
<!-- Node45&#45;&gt;Node46 -->
<g id="edge48" class="edge"><title>Node45&#45;&gt;Node46</title>
<path fill="none" stroke="midnightblue" d="M616.248,-180C644.024,-180 676.491,-180 702.926,-180"/>
<polygon fill="midnightblue" stroke="midnightblue" points="616.247,-176.5 606.247,-180 616.247,-183.5 616.247,-176.5"/>
</g>
</g>
</svg>
