<?xml version="1.0" encoding="UTF-8" standalone="no"?>
<!DOCTYPE svg PUBLIC "-//W3C//DTD SVG 1.1//EN"
 "http://www.w3.org/Graphics/SVG/1.1/DTD/svg11.dtd">
<!-- Generated by graphviz version 2.36.0 (20140111.2315)
 -->
<!-- Title: CSMWorld::NestedInventoryRefIdAdapter::getNestedData Pages: 1 -->
<svg width="496pt" height="164pt"
 viewBox="0.00 0.00 496.00 164.00" xmlns="http://www.w3.org/2000/svg" xmlns:xlink="http://www.w3.org/1999/xlink">
<g id="graph0" class="graph" transform="scale(1 1) rotate(0) translate(4 160)">
<title>CSMWorld::NestedInventoryRefIdAdapter::getNestedData</title>
<polygon fill="white" stroke="none" points="-4,4 -4,-160 492,-160 492,4 -4,4"/>
<!-- Node1 -->
<g id="node1" class="node"><title>Node1</title>
<polygon fill="#bfbfbf" stroke="black" points="0.5,-63 0.5,-93 157.5,-93 157.5,-63 0.5,-63"/>
<text text-anchor="start" x="8.5" y="-81" font-family="FreeSans" font-size="10.00">CSMWorld::NestedInventory</text>
<text text-anchor="middle" x="79" y="-70" font-family="FreeSans" font-size="10.00">RefIdAdapter::getNestedData</text>
</g>
<!-- Node2 -->
<g id="node2" class="node"><title>Node2</title>
<g id="a_node2"><a xlink:href="classCSMWorld_1_1RefIdData.html#a626cfa90f6654bff1de66058c2103ce0" target="_top" xlink:title="CSMWorld::RefIdData\l::getRecord">
<polygon fill="white" stroke="black" points="208,-126 208,-156 324,-156 324,-126 208,-126"/>
<text text-anchor="start" x="216" y="-144" font-family="FreeSans" font-size="10.00">CSMWorld::RefIdData</text>
<text text-anchor="middle" x="266" y="-133" font-family="FreeSans" font-size="10.00">::getRecord</text>
</a>
</g>
</g>
<!-- Node1&#45;&gt;Node2 -->
<g id="edge1" class="edge"><title>Node1&#45;&gt;Node2</title>
<path fill="none" stroke="midnightblue" d="M124.312,-93.0901C150.417,-101.98 183.625,-113.289 211.223,-122.687"/>
<polygon fill="midnightblue" stroke="midnightblue" points="210.135,-126.013 220.729,-125.924 212.391,-119.387 210.135,-126.013"/>
</g>
<!-- Node3 -->
<g id="node3" class="node"><title>Node3</title>
<g id="a_node3"><a xlink:href="bsatool_8cpp.html#a6e7f1179c5854ac3883506e79162011b" target="_top" xlink:title="list">
<polygon fill="white" stroke="black" points="251,-87.5 251,-106.5 281,-106.5 281,-87.5 251,-87.5"/>
<text text-anchor="middle" x="266" y="-94.5" font-family="FreeSans" font-size="10.00">list</text>
</a>
</g>
</g>
<!-- Node1&#45;&gt;Node3 -->
<g id="edge2" class="edge"><title>Node1&#45;&gt;Node3</title>
<path fill="none" stroke="midnightblue" d="M157.653,-85.9751C187.629,-89.0538 219.742,-92.3518 240.951,-94.5301"/>
<polygon fill="midnightblue" stroke="midnightblue" points="240.675,-98.02 250.98,-95.5601 241.39,-91.0567 240.675,-98.02"/>
</g>
<!-- Node5 -->
<g id="node5" class="node"><title>Node5</title>
<g id="a_node5"><a xlink:href="structCSMWorld_1_1Record.html#a405cc96a8dfcbde494e58db281b827b3" target="_top" xlink:title="Throws an exception, if the record is deleted. ">
<polygon fill="white" stroke="black" points="204,-49.5 204,-68.5 328,-68.5 328,-49.5 204,-49.5"/>
<text text-anchor="middle" x="266" y="-56.5" font-family="FreeSans" font-size="10.00">CSMWorld::Record::get</text>
</a>
</g>
</g>
<!-- Node1&#45;&gt;Node5 -->
<g id="edge4" class="edge"><title>Node1&#45;&gt;Node5</title>
<path fill="none" stroke="midnightblue" d="M157.653,-70.0249C169.583,-68.7996 181.852,-67.5395 193.638,-66.3291"/>
<polygon fill="midnightblue" stroke="midnightblue" points="194.259,-69.7838 203.849,-65.2804 193.544,-62.8204 194.259,-69.7838"/>
</g>
<!-- Node6 -->
<g id="node6" class="node"><title>Node6</title>
<g id="a_node6"><a xlink:href="classESM_1_1FIXED__STRING__BASE.html#ac6bed15d6c4aa261d961420d4af645c7" target="_top" xlink:title="ESM::FIXED_STRING_BASE\l::toString">
<polygon fill="white" stroke="black" points="194.5,-0 194.5,-30 337.5,-30 337.5,-0 194.5,-0"/>
<text text-anchor="start" x="202.5" y="-18" font-family="FreeSans" font-size="10.00">ESM::FIXED_STRING_BASE</text>
<text text-anchor="middle" x="266" y="-7" font-family="FreeSans" font-size="10.00">::toString</text>
</a>
</g>
</g>
<!-- Node1&#45;&gt;Node6 -->
<g id="edge5" class="edge"><title>Node1&#45;&gt;Node6</title>
<path fill="none" stroke="midnightblue" d="M124.312,-62.9099C150.417,-54.0202 183.625,-42.7113 211.223,-33.3134"/>
<polygon fill="midnightblue" stroke="midnightblue" points="212.391,-36.6128 220.729,-30.076 210.135,-29.9865 212.391,-36.6128"/>
</g>
<!-- Node4 -->
<g id="node4" class="node"><title>Node4</title>
<g id="a_node4"><a xlink:href="classBsa_1_1BSAFile.html#ad7972a16602af590be0ed8401b9413c2" target="_top" xlink:title="Bsa::BSAFile::getList">
<polygon fill="white" stroke="black" points="374,-87.5 374,-106.5 488,-106.5 488,-87.5 374,-87.5"/>
<text text-anchor="middle" x="431" y="-94.5" font-family="FreeSans" font-size="10.00">Bsa::BSAFile::getList</text>
</a>
</g>
</g>
<!-- Node3&#45;&gt;Node4 -->
<g id="edge3" class="edge"><title>Node3&#45;&gt;Node4</title>
<path fill="none" stroke="midnightblue" d="M281.18,-97C299.621,-97 333.092,-97 363.626,-97"/>
<polygon fill="midnightblue" stroke="midnightblue" points="363.843,-100.5 373.843,-97 363.843,-93.5001 363.843,-100.5"/>
</g>
</g>
</svg>
