<?xml version="1.0" encoding="UTF-8" standalone="no"?>
<!DOCTYPE svg PUBLIC "-//W3C//DTD SVG 1.1//EN"
 "http://www.w3.org/Graphics/SVG/1.1/DTD/svg11.dtd">
<!-- Generated by graphviz version 2.36.0 (20140111.2315)
 -->
<!-- Title: MWClass::Door::activate Pages: 1 -->
<svg width="774pt" height="1421pt"
 viewBox="0.00 0.00 774.00 1421.00" xmlns="http://www.w3.org/2000/svg" xmlns:xlink="http://www.w3.org/1999/xlink">
<g id="graph0" class="graph" transform="scale(1 1) rotate(0) translate(4 1417)">
<title>MWClass::Door::activate</title>
<polygon fill="white" stroke="none" points="-4,4 -4,-1417 770,-1417 770,4 -4,4"/>
<!-- Node1 -->
<g id="node1" class="node"><title>Node1</title>
<polygon fill="#bfbfbf" stroke="black" points="0,-718.5 0,-737.5 132,-737.5 132,-718.5 0,-718.5"/>
<text text-anchor="middle" x="66" y="-725.5" font-family="FreeSans" font-size="10.00">MWClass::Door::activate</text>
</g>
<!-- Node2 -->
<g id="node2" class="node"><title>Node2</title>
<g id="a_node2"><a xlink:href="classMWWorld_1_1Ptr.html#a46a6588d17f16b3047b3d87d1b20eae7" target="_top" xlink:title="MWWorld::Ptr::get">
<polygon fill="white" stroke="black" points="207,-1393.5 207,-1412.5 307,-1412.5 307,-1393.5 207,-1393.5"/>
<text text-anchor="middle" x="257" y="-1400.5" font-family="FreeSans" font-size="10.00">MWWorld::Ptr::get</text>
</a>
</g>
</g>
<!-- Node1&#45;&gt;Node2 -->
<g id="edge1" class="edge"><title>Node1&#45;&gt;Node2</title>
<path fill="none" stroke="midnightblue" d="M67.046,-737.574C67.5983,-811.03 74.7744,-1285.02 168,-1384 175.712,-1392.19 186.043,-1397.27 196.911,-1400.36"/>
<polygon fill="midnightblue" stroke="midnightblue" points="196.455,-1403.84 206.983,-1402.65 198.011,-1397.02 196.455,-1403.84"/>
</g>
<!-- Node5 -->
<g id="node5" class="node"><title>Node5</title>
<g id="a_node5"><a xlink:href="classMWWorld_1_1Ptr.html#aa2ac4a5579cd19eaa780596f4543ea46" target="_top" xlink:title="MWWorld::Ptr::getClass">
<polygon fill="white" stroke="black" points="194.5,-1355.5 194.5,-1374.5 319.5,-1374.5 319.5,-1355.5 194.5,-1355.5"/>
<text text-anchor="middle" x="257" y="-1362.5" font-family="FreeSans" font-size="10.00">MWWorld::Ptr::getClass</text>
</a>
</g>
</g>
<!-- Node1&#45;&gt;Node5 -->
<g id="edge4" class="edge"><title>Node1&#45;&gt;Node5</title>
<path fill="none" stroke="midnightblue" d="M67.1634,-737.899C68.5547,-809.833 80.6187,-1252.1 168,-1345 172.76,-1350.06 178.511,-1353.97 184.768,-1356.97"/>
<polygon fill="midnightblue" stroke="midnightblue" points="183.654,-1360.29 194.239,-1360.75 186.248,-1353.79 183.654,-1360.29"/>
</g>
<!-- Node6 -->
<g id="node6" class="node"><title>Node6</title>
<g id="a_node6"><a xlink:href="classMWWorld_1_1Class.html#af1209aa1b5a2bf560a182fcc8a9e8547" target="_top" xlink:title="MWWorld::Class::getContainer\lStore">
<polygon fill="white" stroke="black" points="178,-1306 178,-1336 336,-1336 336,-1306 178,-1306"/>
<text text-anchor="start" x="186" y="-1324" font-family="FreeSans" font-size="10.00">MWWorld::Class::getContainer</text>
<text text-anchor="middle" x="257" y="-1313" font-family="FreeSans" font-size="10.00">Store</text>
</a>
</g>
</g>
<!-- Node1&#45;&gt;Node6 -->
<g id="edge5" class="edge"><title>Node1&#45;&gt;Node6</title>
<path fill="none" stroke="midnightblue" d="M67.4318,-737.807C70.5987,-805.462 92.2777,-1202.88 168,-1291 171.041,-1294.54 174.517,-1297.66 178.291,-1300.42"/>
<polygon fill="midnightblue" stroke="midnightblue" points="176.649,-1303.52 186.977,-1305.88 180.375,-1297.59 176.649,-1303.52"/>
</g>
<!-- Node7 -->
<g id="node7" class="node"><title>Node7</title>
<g id="a_node7"><a xlink:href="classMWWorld_1_1Ptr.html#acb6d9fb770fd8b8814df2358596ba656" target="_top" xlink:title="MWWorld::Ptr::getCellRef">
<polygon fill="white" stroke="black" points="409.5,-1273.5 409.5,-1292.5 540.5,-1292.5 540.5,-1273.5 409.5,-1273.5"/>
<text text-anchor="middle" x="475" y="-1280.5" font-family="FreeSans" font-size="10.00">MWWorld::Ptr::getCellRef</text>
</a>
</g>
</g>
<!-- Node1&#45;&gt;Node7 -->
<g id="edge6" class="edge"><title>Node1&#45;&gt;Node7</title>
<path fill="none" stroke="midnightblue" d="M67.3183,-737.869C69.6747,-804.222 86.6544,-1184.91 168,-1258 200.822,-1287.49 319.182,-1289.29 398.709,-1286.89"/>
<polygon fill="midnightblue" stroke="midnightblue" points="399.296,-1290.37 409.175,-1286.54 399.064,-1283.37 399.296,-1290.37"/>
</g>
<!-- Node8 -->
<g id="node8" class="node"><title>Node8</title>
<g id="a_node8"><a xlink:href="classMWWorld_1_1CellRef.html#af460188f6ef3dda8eee3ece8a412e3c4" target="_top" xlink:title="MWWorld::CellRef::getLock\lLevel">
<polygon fill="white" stroke="black" points="405,-1175 405,-1205 545,-1205 545,-1175 405,-1175"/>
<text text-anchor="start" x="413" y="-1193" font-family="FreeSans" font-size="10.00">MWWorld::CellRef::getLock</text>
<text text-anchor="middle" x="475" y="-1182" font-family="FreeSans" font-size="10.00">Level</text>
</a>
</g>
</g>
<!-- Node1&#45;&gt;Node8 -->
<g id="edge7" class="edge"><title>Node1&#45;&gt;Node8</title>
<path fill="none" stroke="midnightblue" d="M67.5903,-737.652C71.4939,-797.969 95.702,-1122.45 168,-1182 201.27,-1209.4 315.243,-1205.29 394.284,-1198.6"/>
<polygon fill="midnightblue" stroke="midnightblue" points="395.052,-1202.05 404.708,-1197.68 394.441,-1195.07 395.052,-1202.05"/>
</g>
<!-- Node9 -->
<g id="node9" class="node"><title>Node9</title>
<g id="a_node9"><a xlink:href="classMWWorld_1_1CellRef.html#a45546940aa2e41626adbf2dc202fced0" target="_top" xlink:title="MWWorld::CellRef::getTrap">
<polygon fill="white" stroke="black" points="188.5,-1153.5 188.5,-1172.5 325.5,-1172.5 325.5,-1153.5 188.5,-1153.5"/>
<text text-anchor="middle" x="257" y="-1160.5" font-family="FreeSans" font-size="10.00">MWWorld::CellRef::getTrap</text>
</a>
</g>
</g>
<!-- Node1&#45;&gt;Node9 -->
<g id="edge8" class="edge"><title>Node1&#45;&gt;Node9</title>
<path fill="none" stroke="midnightblue" d="M68.047,-737.617C74.3416,-793.722 108.882,-1078.37 168,-1139 171.705,-1142.8 175.949,-1146.02 180.526,-1148.74"/>
<polygon fill="midnightblue" stroke="midnightblue" points="179.183,-1151.98 189.685,-1153.38 182.348,-1145.74 179.183,-1151.98"/>
</g>
<!-- Node10 -->
<g id="node10" class="node"><title>Node10</title>
<g id="a_node10"><a xlink:href="classMWBase_1_1Environment.html#a73f12633762b049c03c80fe215873faa" target="_top" xlink:title="Return instance of this class. ">
<polygon fill="white" stroke="black" points="402,-1115.5 402,-1134.5 548,-1134.5 548,-1115.5 402,-1115.5"/>
<text text-anchor="middle" x="475" y="-1122.5" font-family="FreeSans" font-size="10.00">MWBase::Environment::get</text>
</a>
</g>
</g>
<!-- Node1&#45;&gt;Node10 -->
<g id="edge9" class="edge"><title>Node1&#45;&gt;Node10</title>
<path fill="none" stroke="midnightblue" d="M68.0836,-737.726C74.3396,-791.987 107.679,-1056.63 168,-1106 201.015,-1133.02 312.668,-1133.65 391.529,-1130.35"/>
<polygon fill="midnightblue" stroke="midnightblue" points="392.109,-1133.82 401.943,-1129.88 391.796,-1126.83 392.109,-1133.82"/>
</g>
<!-- Node11 -->
<g id="node11" class="node"><title>Node11</title>
<g id="a_node11"><a xlink:href="classMWBase_1_1Environment.html#ae14e166d8f5ff8629be119333d502660" target="_top" xlink:title="MWBase::Environment\l::getWorld">
<polygon fill="white" stroke="black" points="413,-1028 413,-1058 537,-1058 537,-1028 413,-1028"/>
<text text-anchor="start" x="421" y="-1046" font-family="FreeSans" font-size="10.00">MWBase::Environment</text>
<text text-anchor="middle" x="475" y="-1035" font-family="FreeSans" font-size="10.00">::getWorld</text>
</a>
</g>
</g>
<!-- Node1&#45;&gt;Node11 -->
<g id="edge10" class="edge"><title>Node1&#45;&gt;Node11</title>
<path fill="none" stroke="midnightblue" d="M66.697,-737.773C65.9512,-780.944 69.2807,-955.69 168,-1030 203.626,-1056.82 323.914,-1054.08 402.64,-1049"/>
<polygon fill="midnightblue" stroke="midnightblue" points="403.239,-1052.46 412.981,-1048.3 402.769,-1045.48 403.239,-1052.46"/>
</g>
<!-- Node12 -->
<g id="node12" class="node"><title>Node12</title>
<g id="a_node12"><a xlink:href="classMWBase_1_1World.html#aea171eaf012a7d6eaa24c8c474f579dd" target="_top" xlink:title="MWBase::World::getAnimation">
<polygon fill="white" stroke="black" points="177.5,-1001.5 177.5,-1020.5 336.5,-1020.5 336.5,-1001.5 177.5,-1001.5"/>
<text text-anchor="middle" x="257" y="-1008.5" font-family="FreeSans" font-size="10.00">MWBase::World::getAnimation</text>
</a>
</g>
</g>
<!-- Node1&#45;&gt;Node12 -->
<g id="edge11" class="edge"><title>Node1&#45;&gt;Node12</title>
<path fill="none" stroke="midnightblue" d="M67.55,-737.758C70.2918,-776.603 85.8718,-921.548 168,-992 169.783,-993.53 171.66,-994.945 173.614,-996.255"/>
<polygon fill="midnightblue" stroke="midnightblue" points="172.192,-999.471 182.62,-1001.34 175.635,-993.376 172.192,-999.471"/>
</g>
<!-- Node13 -->
<g id="node13" class="node"><title>Node13</title>
<g id="a_node13"><a xlink:href="classMWBase_1_1World.html#a2ba0910cb944786065e37dc5f3fcda35" target="_top" xlink:title="MWBase::World::getStore">
<polygon fill="white" stroke="black" points="188.5,-963.5 188.5,-982.5 325.5,-982.5 325.5,-963.5 188.5,-963.5"/>
<text text-anchor="middle" x="257" y="-970.5" font-family="FreeSans" font-size="10.00">MWBase::World::getStore</text>
</a>
</g>
</g>
<!-- Node1&#45;&gt;Node13 -->
<g id="edge12" class="edge"><title>Node1&#45;&gt;Node13</title>
<path fill="none" stroke="midnightblue" d="M68.3129,-737.976C73.5267,-773.396 96.1144,-894.131 168,-953 171.341,-955.736 174.983,-958.115 178.822,-960.181"/>
<polygon fill="midnightblue" stroke="midnightblue" points="177.542,-963.445 188.088,-964.458 180.475,-957.09 177.542,-963.445"/>
</g>
<!-- Node14 -->
<g id="node14" class="node"><title>Node14</title>
<g id="a_node14"><a xlink:href="structESM_1_1MagicEffect.html#a908cf4eae85eaaac3a66e8742b73ccb5" target="_top" xlink:title="ESM::MagicEffect::effect\lStringToId">
<polygon fill="white" stroke="black" points="191.5,-914 191.5,-944 322.5,-944 322.5,-914 191.5,-914"/>
<text text-anchor="start" x="199.5" y="-932" font-family="FreeSans" font-size="10.00">ESM::MagicEffect::effect</text>
<text text-anchor="middle" x="257" y="-921" font-family="FreeSans" font-size="10.00">StringToId</text>
</a>
</g>
</g>
<!-- Node1&#45;&gt;Node14 -->
<g id="edge13" class="edge"><title>Node1&#45;&gt;Node14</title>
<path fill="none" stroke="midnightblue" d="M69.7099,-737.735C78.5055,-767.493 109.15,-858.014 168,-904 172.302,-907.362 177.035,-910.271 182.006,-912.79"/>
<polygon fill="midnightblue" stroke="midnightblue" points="180.614,-916.001 191.17,-916.913 183.487,-909.618 180.614,-916.001"/>
</g>
<!-- Node15 -->
<g id="node15" class="node"><title>Node15</title>
<g id="a_node15"><a xlink:href="classMWWorld_1_1ESMStore.html#a94ffe201bd012dd41fcdabfb35c69e24" target="_top" xlink:title="MWWorld::ESMStore::get">
<polygon fill="white" stroke="black" points="190,-875.5 190,-894.5 324,-894.5 324,-875.5 190,-875.5"/>
<text text-anchor="middle" x="257" y="-882.5" font-family="FreeSans" font-size="10.00">MWWorld::ESMStore::get</text>
</a>
</g>
</g>
<!-- Node1&#45;&gt;Node15 -->
<g id="edge14" class="edge"><title>Node1&#45;&gt;Node15</title>
<path fill="none" stroke="midnightblue" d="M71.2246,-737.822C82.7042,-763.268 117.066,-831.666 168,-865 171.865,-867.53 176.007,-869.742 180.312,-871.676"/>
<polygon fill="midnightblue" stroke="midnightblue" points="179.361,-875.064 189.948,-875.483 181.933,-868.553 179.361,-875.064"/>
</g>
<!-- Node16 -->
<g id="node16" class="node"><title>Node16</title>
<g id="a_node16"><a xlink:href="classMWRender_1_1Animation.html#abed989fb7189cb08942784a17bdc1261" target="_top" xlink:title="MWRender::Animation\l::addSpellCastGlow">
<polygon fill="white" stroke="black" points="196.5,-826 196.5,-856 317.5,-856 317.5,-826 196.5,-826"/>
<text text-anchor="start" x="204.5" y="-844" font-family="FreeSans" font-size="10.00">MWRender::Animation</text>
<text text-anchor="middle" x="257" y="-833" font-family="FreeSans" font-size="10.00">::addSpellCastGlow</text>
</a>
</g>
</g>
<!-- Node1&#45;&gt;Node16 -->
<g id="edge15" class="edge"><title>Node1&#45;&gt;Node16</title>
<path fill="none" stroke="midnightblue" d="M75.4208,-737.76C91.5596,-755.86 128.744,-794.719 168,-816 173.91,-819.204 180.272,-822.032 186.774,-824.52"/>
<polygon fill="midnightblue" stroke="midnightblue" points="185.77,-827.878 196.364,-827.928 188.113,-821.282 185.77,-827.878"/>
</g>
<!-- Node24 -->
<g id="node24" class="node"><title>Node24</title>
<g id="a_node24"><a xlink:href="classMWWorld_1_1CellRef.html#ab039d9e36e8033bc347b3a146782597e" target="_top" xlink:title="MWWorld::CellRef::getKey">
<polygon fill="white" stroke="black" points="190,-787.5 190,-806.5 324,-806.5 324,-787.5 190,-787.5"/>
<text text-anchor="middle" x="257" y="-794.5" font-family="FreeSans" font-size="10.00">MWWorld::CellRef::getKey</text>
</a>
</g>
</g>
<!-- Node1&#45;&gt;Node24 -->
<g id="edge23" class="edge"><title>Node1&#45;&gt;Node24</title>
<path fill="none" stroke="midnightblue" d="M83.647,-737.545C103.263,-748.442 137.106,-766.155 168,-777 176.576,-780.011 185.785,-782.684 194.899,-785.018"/>
<polygon fill="midnightblue" stroke="midnightblue" points="194.172,-788.443 204.717,-787.417 195.834,-781.643 194.172,-788.443"/>
</g>
<!-- Node25 -->
<g id="node25" class="node"><title>Node25</title>
<g id="a_node25"><a xlink:href="classMisc_1_1StringUtils.html#a249dcf40e5ef16618daf8bf5d2098c54" target="_top" xlink:title="Transforms input string to lower case w/o copy. ">
<polygon fill="white" stroke="black" points="207.5,-738 207.5,-768 306.5,-768 306.5,-738 207.5,-738"/>
<text text-anchor="start" x="215.5" y="-756" font-family="FreeSans" font-size="10.00">Misc::StringUtils::</text>
<text text-anchor="middle" x="257" y="-745" font-family="FreeSans" font-size="10.00">lowerCaseInPlace</text>
</a>
</g>
</g>
<!-- Node1&#45;&gt;Node25 -->
<g id="edge24" class="edge"><title>Node1&#45;&gt;Node25</title>
<path fill="none" stroke="midnightblue" d="M132.043,-736.604C153.24,-739.407 176.635,-742.502 197.336,-745.24"/>
<polygon fill="midnightblue" stroke="midnightblue" points="196.888,-748.711 207.261,-746.553 197.806,-741.772 196.888,-748.711"/>
</g>
<!-- Node27 -->
<g id="node27" class="node"><title>Node27</title>
<g id="a_node27"><a xlink:href="classMWWorld_1_1ContainerStore.html#a71670323082addcc92d290120c409c6f" target="_top" xlink:title="MWWorld::ContainerStore\l::begin">
<polygon fill="white" stroke="black" points="188.5,-689 188.5,-719 325.5,-719 325.5,-689 188.5,-689"/>
<text text-anchor="start" x="196.5" y="-707" font-family="FreeSans" font-size="10.00">MWWorld::ContainerStore</text>
<text text-anchor="middle" x="257" y="-696" font-family="FreeSans" font-size="10.00">::begin</text>
</a>
</g>
</g>
<!-- Node1&#45;&gt;Node27 -->
<g id="edge26" class="edge"><title>Node1&#45;&gt;Node27</title>
<path fill="none" stroke="midnightblue" d="M132.043,-719.741C146.934,-717.85 162.909,-715.821 178.273,-713.87"/>
<polygon fill="midnightblue" stroke="midnightblue" points="178.784,-717.333 188.263,-712.602 177.902,-710.389 178.784,-717.333"/>
</g>
<!-- Node28 -->
<g id="node28" class="node"><title>Node28</title>
<g id="a_node28"><a xlink:href="classMWWorld_1_1ContainerStore.html#ab7165a7ef4e2053f7c0b712d017a9f5d" target="_top" xlink:title="MWWorld::ContainerStore::end">
<polygon fill="white" stroke="black" points="176.5,-650.5 176.5,-669.5 337.5,-669.5 337.5,-650.5 176.5,-650.5"/>
<text text-anchor="middle" x="257" y="-657.5" font-family="FreeSans" font-size="10.00">MWWorld::ContainerStore::end</text>
</a>
</g>
</g>
<!-- Node1&#45;&gt;Node28 -->
<g id="edge27" class="edge"><title>Node1&#45;&gt;Node28</title>
<path fill="none" stroke="midnightblue" d="M84.0262,-718.478C103.719,-707.807 137.365,-690.615 168,-680 176.697,-676.986 186.037,-674.303 195.267,-671.956"/>
<polygon fill="midnightblue" stroke="midnightblue" points="196.312,-675.304 205.203,-669.542 194.66,-668.502 196.312,-675.304"/>
</g>
<!-- Node29 -->
<g id="node29" class="node"><title>Node29</title>
<g id="a_node29"><a xlink:href="namespaceMWMechanics.html#a90645fe67f9b8b658452cd004d2cbb65" target="_top" xlink:title="MWMechanics::getPlayer">
<polygon fill="white" stroke="black" points="190,-1077.5 190,-1096.5 324,-1096.5 324,-1077.5 190,-1077.5"/>
<text text-anchor="middle" x="257" y="-1084.5" font-family="FreeSans" font-size="10.00">MWMechanics::getPlayer</text>
</a>
</g>
</g>
<!-- Node1&#45;&gt;Node29 -->
<g id="edge28" class="edge"><title>Node1&#45;&gt;Node29</title>
<path fill="none" stroke="midnightblue" d="M66.7734,-737.647C66.2821,-781.956 70.2965,-967.859 168,-1063 172.042,-1066.94 176.663,-1070.24 181.624,-1073.01"/>
<polygon fill="midnightblue" stroke="midnightblue" points="180.339,-1076.28 190.868,-1077.46 183.37,-1069.97 180.339,-1076.28"/>
</g>
<!-- Node31 -->
<g id="node31" class="node"><title>Node31</title>
<g id="a_node31"><a xlink:href="classMWBase_1_1Environment.html#aeeef9a580df0312f0a9b7380488dea21" target="_top" xlink:title="MWBase::Environment\l::getWindowManager">
<polygon fill="white" stroke="black" points="195,-601 195,-631 319,-631 319,-601 195,-601"/>
<text text-anchor="start" x="203" y="-619" font-family="FreeSans" font-size="10.00">MWBase::Environment</text>
<text text-anchor="middle" x="257" y="-608" font-family="FreeSans" font-size="10.00">::getWindowManager</text>
</a>
</g>
</g>
<!-- Node1&#45;&gt;Node31 -->
<g id="edge32" class="edge"><title>Node1&#45;&gt;Node31</title>
<path fill="none" stroke="midnightblue" d="M75.4456,-718.356C91.6257,-700.471 128.876,-662.066 168,-641 173.506,-638.035 179.4,-635.391 185.433,-633.039"/>
<polygon fill="midnightblue" stroke="midnightblue" points="186.779,-636.274 194.991,-629.579 184.397,-629.692 186.779,-636.274"/>
</g>
<!-- Node32 -->
<g id="node32" class="node"><title>Node32</title>
<g id="a_node32"><a xlink:href="classMWBase_1_1WindowManager.html#a31b3076552c3c3bfd579d45a5068109a" target="_top" xlink:title="MWBase::WindowManager\l::messageBox">
<polygon fill="white" stroke="black" points="187,-552 187,-582 327,-582 327,-552 187,-552"/>
<text text-anchor="start" x="195" y="-570" font-family="FreeSans" font-size="10.00">MWBase::WindowManager</text>
<text text-anchor="middle" x="257" y="-559" font-family="FreeSans" font-size="10.00">::messageBox</text>
</a>
</g>
</g>
<!-- Node1&#45;&gt;Node32 -->
<g id="edge33" class="edge"><title>Node1&#45;&gt;Node32</title>
<path fill="none" stroke="midnightblue" d="M71.3485,-718.403C83.1271,-693.512 118.149,-626.429 168,-592 171.055,-589.89 174.285,-587.957 177.634,-586.187"/>
<polygon fill="midnightblue" stroke="midnightblue" points="179.201,-589.317 186.735,-581.868 176.201,-582.993 179.201,-589.317"/>
</g>
<!-- Node33 -->
<g id="node33" class="node"><title>Node33</title>
<g id="a_node33"><a xlink:href="classMWClass_1_1Door.html#a87115dd63805e03d48988c8b9279f376" target="_top" xlink:title="Unlock object. ">
<polygon fill="white" stroke="black" points="194.5,-1229.5 194.5,-1248.5 319.5,-1248.5 319.5,-1229.5 194.5,-1229.5"/>
<text text-anchor="middle" x="257" y="-1236.5" font-family="FreeSans" font-size="10.00">MWClass::Door::unlock</text>
</a>
</g>
</g>
<!-- Node1&#45;&gt;Node33 -->
<g id="edge34" class="edge"><title>Node1&#45;&gt;Node33</title>
<path fill="none" stroke="midnightblue" d="M67.6589,-737.709C72.0691,-799.879 99.2464,-1141.86 168,-1215 172.81,-1220.12 178.594,-1224.18 184.87,-1227.4"/>
<polygon fill="midnightblue" stroke="midnightblue" points="183.796,-1230.75 194.361,-1231.55 186.597,-1224.34 183.796,-1230.75"/>
</g>
<!-- Node35 -->
<g id="node35" class="node"><title>Node35</title>
<g id="a_node35"><a xlink:href="classMWWorld_1_1CellRef.html#a2cd3a17c9615ca465cd7bfbfe23edbd2" target="_top" xlink:title="MWWorld::CellRef::setTrap">
<polygon fill="white" stroke="black" points="188.5,-513.5 188.5,-532.5 325.5,-532.5 325.5,-513.5 188.5,-513.5"/>
<text text-anchor="middle" x="257" y="-520.5" font-family="FreeSans" font-size="10.00">MWWorld::CellRef::setTrap</text>
</a>
</g>
</g>
<!-- Node1&#45;&gt;Node35 -->
<g id="edge38" class="edge"><title>Node1&#45;&gt;Node35</title>
<path fill="none" stroke="midnightblue" d="M69.3287,-718.073C77.1924,-686.86 105.823,-590.001 168,-543 171.445,-540.396 175.168,-538.121 179.07,-536.134"/>
<polygon fill="midnightblue" stroke="midnightblue" points="180.71,-539.236 188.45,-532.002 177.888,-532.83 180.71,-539.236"/>
</g>
<!-- Node36 -->
<g id="node36" class="node"><title>Node36</title>
<g id="a_node36"><a xlink:href="classMWBase_1_1Environment.html#a4506cf05dc1136ff7262f69a7a0860c1" target="_top" xlink:title="MWBase::Environment\l::getSoundManager">
<polygon fill="white" stroke="black" points="195,-464 195,-494 319,-494 319,-464 195,-464"/>
<text text-anchor="start" x="203" y="-482" font-family="FreeSans" font-size="10.00">MWBase::Environment</text>
<text text-anchor="middle" x="257" y="-471" font-family="FreeSans" font-size="10.00">::getSoundManager</text>
</a>
</g>
</g>
<!-- Node1&#45;&gt;Node36 -->
<g id="edge39" class="edge"><title>Node1&#45;&gt;Node36</title>
<path fill="none" stroke="midnightblue" d="M68.4385,-718.199C74.0765,-683.376 97.9188,-564.481 168,-504 173.17,-499.538 179.086,-495.87 185.352,-492.854"/>
<polygon fill="midnightblue" stroke="midnightblue" points="186.888,-496.005 194.736,-488.887 184.162,-489.557 186.888,-496.005"/>
</g>
<!-- Node37 -->
<g id="node37" class="node"><title>Node37</title>
<g id="a_node37"><a xlink:href="classMWBase_1_1SoundManager.html#a29793d56f5aa3902dac261ba34b1cddd" target="_top" xlink:title="MWBase::SoundManager\l::playSound3D">
<polygon fill="white" stroke="black" points="189,-415 189,-445 325,-445 325,-415 189,-415"/>
<text text-anchor="start" x="197" y="-433" font-family="FreeSans" font-size="10.00">MWBase::SoundManager</text>
<text text-anchor="middle" x="257" y="-422" font-family="FreeSans" font-size="10.00">::playSound3D</text>
</a>
</g>
</g>
<!-- Node1&#45;&gt;Node37 -->
<g id="edge40" class="edge"><title>Node1&#45;&gt;Node37</title>
<path fill="none" stroke="midnightblue" d="M67.5507,-718.34C70.3145,-679.195 86.026,-530.851 168,-455 171.599,-451.67 175.61,-448.779 179.882,-446.27"/>
<polygon fill="midnightblue" stroke="midnightblue" points="181.646,-449.299 188.966,-441.639 178.467,-443.063 181.646,-449.299"/>
</g>
<!-- Node38 -->
<g id="node38" class="node"><title>Node38</title>
<g id="a_node38"><a xlink:href="classMWWorld_1_1CellRef.html#aa2df0bca5c183a29794fe9a726322217" target="_top" xlink:title="MWWorld::CellRef::getTeleport">
<polygon fill="white" stroke="black" points="179.5,-376.5 179.5,-395.5 334.5,-395.5 334.5,-376.5 179.5,-376.5"/>
<text text-anchor="middle" x="257" y="-383.5" font-family="FreeSans" font-size="10.00">MWWorld::CellRef::getTeleport</text>
</a>
</g>
</g>
<!-- Node1&#45;&gt;Node38 -->
<g id="edge41" class="edge"><title>Node1&#45;&gt;Node38</title>
<path fill="none" stroke="midnightblue" d="M66.8184,-718.336C66.5577,-674.779 71.5433,-494.991 168,-406 170.159,-404.008 172.474,-402.201 174.91,-400.561"/>
<polygon fill="midnightblue" stroke="midnightblue" points="176.65,-403.598 183.611,-395.612 173.189,-397.514 176.65,-403.598"/>
</g>
<!-- Node39 -->
<g id="node39" class="node"><title>Node39</title>
<g id="a_node39"><a xlink:href="classMWBase_1_1World.html#a54057bbf6b06fe6b9e83a5bc677101e2" target="_top" xlink:title="MWBase::World::getDistance\lToFacedObject">
<polygon fill="white" stroke="black" points="181,-327 181,-357 333,-357 333,-327 181,-327"/>
<text text-anchor="start" x="189" y="-345" font-family="FreeSans" font-size="10.00">MWBase::World::getDistance</text>
<text text-anchor="middle" x="257" y="-334" font-family="FreeSans" font-size="10.00">ToFacedObject</text>
</a>
</g>
</g>
<!-- Node1&#45;&gt;Node39 -->
<g id="edge42" class="edge"><title>Node1&#45;&gt;Node39</title>
<path fill="none" stroke="midnightblue" d="M66.5492,-718.276C64.9552,-671.881 64.4352,-470.979 168,-367 169.429,-365.565 170.934,-364.211 172.504,-362.934"/>
<polygon fill="midnightblue" stroke="midnightblue" points="174.611,-365.732 180.842,-357.163 170.627,-359.976 174.611,-365.732"/>
</g>
<!-- Node40 -->
<g id="node40" class="node"><title>Node40</title>
<g id="a_node40"><a xlink:href="classMWBase_1_1World.html#a4eac4cb477f916d542f67787af0bc764" target="_top" xlink:title="MWBase::World::getMaxActivation\lDistance">
<polygon fill="white" stroke="black" points="168.5,-278 168.5,-308 345.5,-308 345.5,-278 168.5,-278"/>
<text text-anchor="start" x="176.5" y="-296" font-family="FreeSans" font-size="10.00">MWBase::World::getMaxActivation</text>
<text text-anchor="middle" x="257" y="-285" font-family="FreeSans" font-size="10.00">Distance</text>
</a>
</g>
</g>
<!-- Node1&#45;&gt;Node40 -->
<g id="edge43" class="edge"><title>Node1&#45;&gt;Node40</title>
<path fill="none" stroke="midnightblue" d="M68.0601,-718.416C74.4289,-662.498 109.321,-378.786 168,-318 169.406,-316.543 170.891,-315.169 172.443,-313.874"/>
<polygon fill="midnightblue" stroke="midnightblue" points="174.563,-316.661 180.706,-308.029 170.52,-310.947 174.563,-316.661"/>
</g>
<!-- Node41 -->
<g id="node41" class="node"><title>Node41</title>
<g id="a_node41"><a xlink:href="classMWWorld_1_1CellRef.html#a2da46156d3b470ad61262496900e4fc6" target="_top" xlink:title="MWWorld::CellRef::getDestCell">
<polygon fill="white" stroke="black" points="178,-239.5 178,-258.5 336,-258.5 336,-239.5 178,-239.5"/>
<text text-anchor="middle" x="257" y="-246.5" font-family="FreeSans" font-size="10.00">MWWorld::CellRef::getDestCell</text>
</a>
</g>
</g>
<!-- Node1&#45;&gt;Node41 -->
<g id="edge44" class="edge"><title>Node1&#45;&gt;Node41</title>
<path fill="none" stroke="midnightblue" d="M67.7381,-718.425C72.5443,-658.564 101.304,-336.157 168,-269 169.835,-267.152 171.804,-265.459 173.88,-263.91"/>
<polygon fill="midnightblue" stroke="midnightblue" points="175.733,-266.879 182.368,-258.619 172.03,-260.939 175.733,-266.879"/>
</g>
<!-- Node42 -->
<g id="node42" class="node"><title>Node42</title>
<g id="a_node42"><a xlink:href="classMWWorld_1_1CellRef.html#a7e0aece352c2f6ee827d0f57a45b9eea" target="_top" xlink:title="MWWorld::CellRef::getDoorDest">
<polygon fill="white" stroke="black" points="175,-201.5 175,-220.5 339,-220.5 339,-201.5 175,-201.5"/>
<text text-anchor="middle" x="257" y="-208.5" font-family="FreeSans" font-size="10.00">MWWorld::CellRef::getDoorDest</text>
</a>
</g>
</g>
<!-- Node1&#45;&gt;Node42 -->
<g id="edge45" class="edge"><title>Node1&#45;&gt;Node42</title>
<path fill="none" stroke="midnightblue" d="M67.5506,-718.434C71.357,-655.675 95.7848,-303.127 168,-230 169.284,-228.7 170.633,-227.48 172.041,-226.333"/>
<polygon fill="midnightblue" stroke="midnightblue" points="174.309,-229.027 180.669,-220.553 170.413,-223.211 174.309,-229.027"/>
</g>
<!-- Node43 -->
<g id="node43" class="node"><title>Node43</title>
<g id="a_node43"><a xlink:href="classMWClass_1_1Door.html#a3434c1e2e89ed5e0435d7def4eb0980c" target="_top" xlink:title="0 = nothing, 1 = opening, 2 = closing ">
<polygon fill="white" stroke="black" points="177.5,-163.5 177.5,-182.5 336.5,-182.5 336.5,-163.5 177.5,-163.5"/>
<text text-anchor="middle" x="257" y="-170.5" font-family="FreeSans" font-size="10.00">MWClass::Door::getDoorState</text>
</a>
</g>
</g>
<!-- Node1&#45;&gt;Node43 -->
<g id="edge46" class="edge"><title>Node1&#45;&gt;Node43</title>
<path fill="none" stroke="midnightblue" d="M67.4159,-718.142C70.4148,-651.843 90.8648,-271.199 168,-192 169.237,-190.73 170.537,-189.535 171.893,-188.411"/>
<polygon fill="midnightblue" stroke="midnightblue" points="173.927,-191.26 180.202,-182.723 169.973,-185.484 173.927,-191.26"/>
</g>
<!-- Node47 -->
<g id="node47" class="node"><title>Node47</title>
<g id="a_node47"><a xlink:href="classMWWorld_1_1Ptr.html#aa35780406bea82e5dcff038800bd10e0" target="_top" xlink:title="MWWorld::Ptr::getRefData">
<polygon fill="white" stroke="black" points="188.5,-125.5 188.5,-144.5 325.5,-144.5 325.5,-125.5 188.5,-125.5"/>
<text text-anchor="middle" x="257" y="-132.5" font-family="FreeSans" font-size="10.00">MWWorld::Ptr::getRefData</text>
</a>
</g>
</g>
<!-- Node1&#45;&gt;Node47 -->
<g id="edge50" class="edge"><title>Node1&#45;&gt;Node47</title>
<path fill="none" stroke="midnightblue" d="M67.2769,-718.343C69.4352,-649.994 85.7394,-239.488 168,-154 171.258,-150.614 174.964,-147.762 178.969,-145.364"/>
<polygon fill="midnightblue" stroke="midnightblue" points="180.749,-148.388 188.153,-140.81 177.639,-142.116 180.749,-148.388"/>
</g>
<!-- Node48 -->
<g id="node48" class="node"><title>Node48</title>
<g id="a_node48"><a xlink:href="classMWWorld_1_1RefData.html#a32f3f82fc97a20fd3a776751f43ca131" target="_top" xlink:title="MWWorld::RefData::getPosition">
<polygon fill="white" stroke="black" points="176.5,-87.5 176.5,-106.5 337.5,-106.5 337.5,-87.5 176.5,-87.5"/>
<text text-anchor="middle" x="257" y="-94.5" font-family="FreeSans" font-size="10.00">MWWorld::RefData::getPosition</text>
</a>
</g>
</g>
<!-- Node1&#45;&gt;Node48 -->
<g id="edge51" class="edge"><title>Node1&#45;&gt;Node48</title>
<path fill="none" stroke="midnightblue" d="M67.1661,-718.171C68.5763,-646.747 80.7507,-207.641 168,-116 169.223,-114.716 170.51,-113.508 171.853,-112.373"/>
<polygon fill="midnightblue" stroke="midnightblue" points="173.896,-115.215 180.106,-106.631 169.898,-109.469 173.896,-115.215"/>
</g>
<!-- Node49 -->
<g id="node49" class="node"><title>Node49</title>
<g id="a_node49"><a xlink:href="classMWWorld_1_1CellRef.html#ac1541305a8b8f28364a5009abe9649a5" target="_top" xlink:title="MWWorld::CellRef::getPosition">
<polygon fill="white" stroke="black" points="179.5,-49.5 179.5,-68.5 334.5,-68.5 334.5,-49.5 179.5,-49.5"/>
<text text-anchor="middle" x="257" y="-56.5" font-family="FreeSans" font-size="10.00">MWWorld::CellRef::getPosition</text>
</a>
</g>
</g>
<!-- Node1&#45;&gt;Node49 -->
<g id="edge52" class="edge"><title>Node1&#45;&gt;Node49</title>
<path fill="none" stroke="midnightblue" d="M67.0643,-718.045C67.7513,-643.734 75.735,-175.826 168,-78 169.217,-76.7102 170.498,-75.4973 171.836,-74.3572"/>
<polygon fill="midnightblue" stroke="midnightblue" points="173.883,-77.1965 180.066,-68.5926 169.867,-71.4632 173.883,-77.1965"/>
</g>
<!-- Node50 -->
<g id="node50" class="node"><title>Node50</title>
<g id="a_node50"><a xlink:href="classMWBase_1_1SoundManager.html#a8a9bb80db7547e3a6a9e38eeef28e7e8" target="_top" xlink:title="MWBase::SoundManager\l::fadeOutSound3D">
<polygon fill="white" stroke="black" points="189,-0 189,-30 325,-30 325,-0 189,-0"/>
<text text-anchor="start" x="197" y="-18" font-family="FreeSans" font-size="10.00">MWBase::SoundManager</text>
<text text-anchor="middle" x="257" y="-7" font-family="FreeSans" font-size="10.00">::fadeOutSound3D</text>
</a>
</g>
</g>
<!-- Node1&#45;&gt;Node50 -->
<g id="edge53" class="edge"><title>Node1&#45;&gt;Node50</title>
<path fill="none" stroke="midnightblue" d="M67.0333,-718.02C67.4898,-641.435 74.0802,-147.11 168,-40 171.446,-36.0704 175.459,-32.738 179.838,-29.9142"/>
<polygon fill="midnightblue" stroke="midnightblue" points="181.565,-32.9591 188.656,-25.0873 178.204,-26.8189 181.565,-32.9591"/>
</g>
<!-- Node3 -->
<g id="node3" class="node"><title>Node3</title>
<g id="a_node3"><a xlink:href="classMWWorld_1_1Ptr.html#a6c33fb25a2ac50b8360397272070d298" target="_top" xlink:title="MWWorld::Ptr::getTypeName">
<polygon fill="white" stroke="black" points="400,-1393.5 400,-1412.5 550,-1412.5 550,-1393.5 400,-1393.5"/>
<text text-anchor="middle" x="475" y="-1400.5" font-family="FreeSans" font-size="10.00">MWWorld::Ptr::getTypeName</text>
</a>
</g>
</g>
<!-- Node2&#45;&gt;Node3 -->
<g id="edge2" class="edge"><title>Node2&#45;&gt;Node3</title>
<path fill="none" stroke="midnightblue" d="M307.014,-1403C331.402,-1403 361.58,-1403 389.544,-1403"/>
<polygon fill="midnightblue" stroke="midnightblue" points="389.731,-1406.5 399.731,-1403 389.731,-1399.5 389.731,-1406.5"/>
</g>
<!-- Node4 -->
<g id="node4" class="node"><title>Node4</title>
<g id="a_node4"><a xlink:href="classMWWorld_1_1Class.html#a8c909186c99e13e0b819437ba2f7ee1d" target="_top" xlink:title="MWWorld::Class::getTypeName">
<polygon fill="white" stroke="black" points="604,-1393.5 604,-1412.5 766,-1412.5 766,-1393.5 604,-1393.5"/>
<text text-anchor="middle" x="685" y="-1400.5" font-family="FreeSans" font-size="10.00">MWWorld::Class::getTypeName</text>
</a>
</g>
</g>
<!-- Node3&#45;&gt;Node4 -->
<g id="edge3" class="edge"><title>Node3&#45;&gt;Node4</title>
<path fill="none" stroke="midnightblue" d="M550.212,-1403C564.336,-1403 579.261,-1403 593.818,-1403"/>
<polygon fill="midnightblue" stroke="midnightblue" points="593.823,-1406.5 603.823,-1403 593.823,-1399.5 593.823,-1406.5"/>
</g>
<!-- Node17 -->
<g id="node17" class="node"><title>Node17</title>
<g id="a_node17"><a xlink:href="classMWRender_1_1Animation.html#aee82ebb9884fbd0f8b563d8e0c2465fb" target="_top" xlink:title="MWRender::Animation\l::addGlow">
<polygon fill="white" stroke="black" points="414.5,-826 414.5,-856 535.5,-856 535.5,-826 414.5,-826"/>
<text text-anchor="start" x="422.5" y="-844" font-family="FreeSans" font-size="10.00">MWRender::Animation</text>
<text text-anchor="middle" x="475" y="-833" font-family="FreeSans" font-size="10.00">::addGlow</text>
</a>
</g>
</g>
<!-- Node16&#45;&gt;Node17 -->
<g id="edge16" class="edge"><title>Node16&#45;&gt;Node17</title>
<path fill="none" stroke="midnightblue" d="M317.595,-841C344.397,-841 376.215,-841 404.133,-841"/>
<polygon fill="midnightblue" stroke="midnightblue" points="404.225,-844.5 414.225,-841 404.225,-837.5 404.225,-844.5"/>
</g>
<!-- Node18 -->
<g id="node18" class="node"><title>Node18</title>
<g id="a_node18"><a xlink:href="classResource_1_1ResourceSystem.html#ac9829e6c125ba11b7615b1e5c566b641" target="_top" xlink:title="Resource::ResourceSystem\l::getImageManager">
<polygon fill="white" stroke="black" points="612,-949 612,-979 758,-979 758,-949 612,-949"/>
<text text-anchor="start" x="620" y="-967" font-family="FreeSans" font-size="10.00">Resource::ResourceSystem</text>
<text text-anchor="middle" x="685" y="-956" font-family="FreeSans" font-size="10.00">::getImageManager</text>
</a>
</g>
</g>
<!-- Node17&#45;&gt;Node18 -->
<g id="edge17" class="edge"><title>Node17&#45;&gt;Node18</title>
<path fill="none" stroke="midnightblue" d="M491.702,-856.008C514.663,-877.22 559.521,-915.948 604,-939 608.296,-941.226 612.825,-943.296 617.455,-945.212"/>
<polygon fill="midnightblue" stroke="midnightblue" points="616.468,-948.583 627.057,-948.931 618.996,-942.056 616.468,-948.583"/>
</g>
<!-- Node19 -->
<g id="node19" class="node"><title>Node19</title>
<g id="a_node19"><a xlink:href="classResource_1_1ImageManager.html#a225f9f7be2c2d86c57f52c0ae990fbb8" target="_top" xlink:title="Resource::ImageManager\l::getImage">
<polygon fill="white" stroke="red" points="616,-900 616,-930 754,-930 754,-900 616,-900"/>
<text text-anchor="start" x="624" y="-918" font-family="FreeSans" font-size="10.00">Resource::ImageManager</text>
<text text-anchor="middle" x="685" y="-907" font-family="FreeSans" font-size="10.00">::getImage</text>
</a>
</g>
</g>
<!-- Node17&#45;&gt;Node19 -->
<g id="edge18" class="edge"><title>Node17&#45;&gt;Node19</title>
<path fill="none" stroke="midnightblue" d="M513.577,-856.098C538.964,-866.121 573.318,-879.345 604,-890 610.465,-892.245 617.255,-894.509 624.031,-896.709"/>
<polygon fill="midnightblue" stroke="midnightblue" points="623.321,-900.157 633.912,-899.877 625.458,-893.491 623.321,-900.157"/>
</g>
<!-- Node20 -->
<g id="node20" class="node"><title>Node20</title>
<g id="a_node20"><a xlink:href="classResource_1_1ResourceSystem.html#a08d6f53366084e39ff8f5d336ba74b5f" target="_top" xlink:title="Resource::ResourceSystem\l::getSceneManager">
<polygon fill="white" stroke="black" points="612,-851 612,-881 758,-881 758,-851 612,-851"/>
<text text-anchor="start" x="620" y="-869" font-family="FreeSans" font-size="10.00">Resource::ResourceSystem</text>
<text text-anchor="middle" x="685" y="-858" font-family="FreeSans" font-size="10.00">::getSceneManager</text>
</a>
</g>
</g>
<!-- Node17&#45;&gt;Node20 -->
<g id="edge19" class="edge"><title>Node17&#45;&gt;Node20</title>
<path fill="none" stroke="midnightblue" d="M535.604,-848.164C556.217,-850.641 579.693,-853.463 601.795,-856.12"/>
<polygon fill="midnightblue" stroke="midnightblue" points="601.491,-859.608 611.838,-857.327 602.327,-852.658 601.491,-859.608"/>
</g>
<!-- Node21 -->
<g id="node21" class="node"><title>Node21</title>
<g id="a_node21"><a xlink:href="classResource_1_1SceneManager.html#a1fe71df9797650ddcb35b7d6dc8eb894" target="_top" xlink:title="Resource::SceneManager\l::applyFilterSettings">
<polygon fill="white" stroke="black" points="616,-802 616,-832 754,-832 754,-802 616,-802"/>
<text text-anchor="start" x="624" y="-820" font-family="FreeSans" font-size="10.00">Resource::SceneManager</text>
<text text-anchor="middle" x="685" y="-809" font-family="FreeSans" font-size="10.00">::applyFilterSettings</text>
</a>
</g>
</g>
<!-- Node17&#45;&gt;Node21 -->
<g id="edge20" class="edge"><title>Node17&#45;&gt;Node21</title>
<path fill="none" stroke="midnightblue" d="M535.604,-834.123C557.46,-831.601 582.536,-828.707 605.778,-826.026"/>
<polygon fill="midnightblue" stroke="midnightblue" points="606.427,-829.474 615.959,-824.851 605.624,-822.52 606.427,-829.474"/>
</g>
<!-- Node22 -->
<g id="node22" class="node"><title>Node22</title>
<g id="a_node22"><a xlink:href="esmtool_8cpp.html#a0bab682aaafd448095576d6716e53d79" target="_top" xlink:title="clone">
<polygon fill="white" stroke="red" points="664,-763.5 664,-782.5 706,-782.5 706,-763.5 664,-763.5"/>
<text text-anchor="middle" x="685" y="-770.5" font-family="FreeSans" font-size="10.00">clone</text>
</a>
</g>
</g>
<!-- Node17&#45;&gt;Node22 -->
<g id="edge21" class="edge"><title>Node17&#45;&gt;Node22</title>
<path fill="none" stroke="midnightblue" d="M512.86,-825.904C538.229,-815.83 572.842,-802.702 604,-793 620.326,-787.916 638.832,-783.223 653.93,-779.662"/>
<polygon fill="midnightblue" stroke="midnightblue" points="654.815,-783.05 663.769,-777.387 653.238,-776.23 654.815,-783.05"/>
</g>
<!-- Node23 -->
<g id="node23" class="node"><title>Node23</title>
<g id="a_node23"><a xlink:href="classResource_1_1SceneManager.html#ac01af19b79e0f46bd186fef974e6fea1" target="_top" xlink:title="Re&#45;create shaders for this node, need to call this if texture stages or vertex color mode have change...">
<polygon fill="white" stroke="red" points="616,-714 616,-744 754,-744 754,-714 616,-714"/>
<text text-anchor="start" x="624" y="-732" font-family="FreeSans" font-size="10.00">Resource::SceneManager</text>
<text text-anchor="middle" x="685" y="-721" font-family="FreeSans" font-size="10.00">::recreateShaders</text>
</a>
</g>
</g>
<!-- Node17&#45;&gt;Node23 -->
<g id="edge22" class="edge"><title>Node17&#45;&gt;Node23</title>
<path fill="none" stroke="midnightblue" d="M497.494,-825.883C530.947,-802.432 592.81,-759.405 604,-754 608.631,-751.763 613.508,-749.668 618.476,-747.717"/>
<polygon fill="midnightblue" stroke="midnightblue" points="619.941,-750.906 628.097,-744.145 617.504,-744.344 619.941,-750.906"/>
</g>
<!-- Node26 -->
<g id="node26" class="node"><title>Node26</title>
<g id="a_node26"><a xlink:href="classMisc_1_1StringUtils.html#a0759adb102842ee3bced227707eb6949" target="_top" xlink:title="Misc::StringUtils::\ltoLower">
<polygon fill="white" stroke="black" points="425.5,-738 425.5,-768 524.5,-768 524.5,-738 425.5,-738"/>
<text text-anchor="start" x="433.5" y="-756" font-family="FreeSans" font-size="10.00">Misc::StringUtils::</text>
<text text-anchor="middle" x="475" y="-745" font-family="FreeSans" font-size="10.00">toLower</text>
</a>
</g>
</g>
<!-- Node25&#45;&gt;Node26 -->
<g id="edge25" class="edge"><title>Node25&#45;&gt;Node26</title>
<path fill="none" stroke="midnightblue" d="M306.744,-753C338.881,-753 381.157,-753 415.165,-753"/>
<polygon fill="midnightblue" stroke="midnightblue" points="415.433,-756.5 425.433,-753 415.433,-749.5 415.433,-756.5"/>
</g>
<!-- Node29&#45;&gt;Node10 -->
<g id="edge29" class="edge"><title>Node29&#45;&gt;Node10</title>
<path fill="none" stroke="midnightblue" d="M312.227,-1096.54C341.884,-1101.76 378.804,-1108.25 409.882,-1113.72"/>
<polygon fill="midnightblue" stroke="midnightblue" points="409.295,-1117.17 419.751,-1115.46 410.508,-1110.28 409.295,-1117.17"/>
</g>
<!-- Node29&#45;&gt;Node11 -->
<g id="edge30" class="edge"><title>Node29&#45;&gt;Node11</title>
<path fill="none" stroke="midnightblue" d="M304.869,-1077.45C333.542,-1071.61 370.787,-1064.02 403.025,-1057.46"/>
<polygon fill="midnightblue" stroke="midnightblue" points="403.754,-1060.88 412.854,-1055.46 402.357,-1054.02 403.754,-1060.88"/>
</g>
<!-- Node30 -->
<g id="node30" class="node"><title>Node30</title>
<g id="a_node30"><a xlink:href="classMWBase_1_1World.html#a95005e26dcb7b1f6dc906eb518b95762" target="_top" xlink:title="MWBase::World::getPlayerPtr">
<polygon fill="white" stroke="black" points="398.5,-1077.5 398.5,-1096.5 551.5,-1096.5 551.5,-1077.5 398.5,-1077.5"/>
<text text-anchor="middle" x="475" y="-1084.5" font-family="FreeSans" font-size="10.00">MWBase::World::getPlayerPtr</text>
</a>
</g>
</g>
<!-- Node29&#45;&gt;Node30 -->
<g id="edge31" class="edge"><title>Node29&#45;&gt;Node30</title>
<path fill="none" stroke="midnightblue" d="M324.275,-1087C344.509,-1087 367.052,-1087 388.377,-1087"/>
<polygon fill="midnightblue" stroke="midnightblue" points="388.403,-1090.5 398.403,-1087 388.403,-1083.5 388.403,-1090.5"/>
</g>
<!-- Node33&#45;&gt;Node7 -->
<g id="edge35" class="edge"><title>Node33&#45;&gt;Node7</title>
<path fill="none" stroke="midnightblue" d="M304.869,-1248.55C337.844,-1255.26 382.156,-1264.29 417.152,-1271.42"/>
<polygon fill="midnightblue" stroke="midnightblue" points="416.725,-1274.9 427.223,-1273.47 418.123,-1268.05 416.725,-1274.9"/>
</g>
<!-- Node33&#45;&gt;Node8 -->
<g id="edge37" class="edge"><title>Node33&#45;&gt;Node8</title>
<path fill="none" stroke="midnightblue" d="M299.903,-1229.49C327.587,-1223.21 364.687,-1214.8 397.524,-1207.35"/>
<polygon fill="midnightblue" stroke="midnightblue" points="398.585,-1210.7 407.563,-1205.07 397.037,-1203.87 398.585,-1210.7"/>
</g>
<!-- Node34 -->
<g id="node34" class="node"><title>Node34</title>
<g id="a_node34"><a xlink:href="classMWWorld_1_1CellRef.html#a87052b284f51199644dfc7fcc15bdca1" target="_top" xlink:title="MWWorld::CellRef::setLock\lLevel">
<polygon fill="white" stroke="black" points="405.5,-1224 405.5,-1254 544.5,-1254 544.5,-1224 405.5,-1224"/>
<text text-anchor="start" x="413.5" y="-1242" font-family="FreeSans" font-size="10.00">MWWorld::CellRef::setLock</text>
<text text-anchor="middle" x="475" y="-1231" font-family="FreeSans" font-size="10.00">Level</text>
</a>
</g>
</g>
<!-- Node33&#45;&gt;Node34 -->
<g id="edge36" class="edge"><title>Node33&#45;&gt;Node34</title>
<path fill="none" stroke="midnightblue" d="M319.608,-1239C343.171,-1239 370.371,-1239 395.315,-1239"/>
<polygon fill="midnightblue" stroke="midnightblue" points="395.481,-1242.5 405.481,-1239 395.481,-1235.5 395.481,-1242.5"/>
</g>
<!-- Node44 -->
<g id="node44" class="node"><title>Node44</title>
<g id="a_node44"><a xlink:href="classMWWorld_1_1ConstPtr.html#a1fecee4644b43851c0f09c1f6c808225" target="_top" xlink:title="MWWorld::ConstPtr::\lgetRefData">
<polygon fill="white" stroke="black" points="419,-202 419,-232 531,-232 531,-202 419,-202"/>
<text text-anchor="start" x="427" y="-220" font-family="FreeSans" font-size="10.00">MWWorld::ConstPtr::</text>
<text text-anchor="middle" x="475" y="-209" font-family="FreeSans" font-size="10.00">getRefData</text>
</a>
</g>
</g>
<!-- Node43&#45;&gt;Node44 -->
<g id="edge47" class="edge"><title>Node43&#45;&gt;Node44</title>
<path fill="none" stroke="midnightblue" d="M304.869,-182.547C335.229,-188.732 375.199,-196.874 408.66,-203.69"/>
<polygon fill="midnightblue" stroke="midnightblue" points="408.32,-207.192 418.817,-205.759 409.717,-200.333 408.32,-207.192"/>
</g>
<!-- Node45 -->
<g id="node45" class="node"><title>Node45</title>
<g id="a_node45"><a xlink:href="classMWWorld_1_1RefData.html#a1ef7b41e2a72ec06e8631e42bbd42b85" target="_top" xlink:title="May return a 0&#45;pointer. The ownership of the return data object is not transferred. ">
<polygon fill="white" stroke="black" points="382.5,-163.5 382.5,-182.5 567.5,-182.5 567.5,-163.5 382.5,-163.5"/>
<text text-anchor="middle" x="475" y="-170.5" font-family="FreeSans" font-size="10.00">MWWorld::RefData::getCustomData</text>
</a>
</g>
</g>
<!-- Node43&#45;&gt;Node45 -->
<g id="edge48" class="edge"><title>Node43&#45;&gt;Node45</title>
<path fill="none" stroke="midnightblue" d="M336.592,-173C348.183,-173 360.264,-173 372.241,-173"/>
<polygon fill="midnightblue" stroke="midnightblue" points="372.266,-176.5 382.266,-173 372.266,-169.5 372.266,-176.5"/>
</g>
<!-- Node46 -->
<g id="node46" class="node"><title>Node46</title>
<g id="a_node46"><a xlink:href="classMWWorld_1_1CustomData.html#a5e2ee1942fa12ef5e634c0ff14ceb962" target="_top" xlink:title="MWWorld::CustomData\l::asDoorCustomData">
<polygon fill="white" stroke="black" points="412.5,-114 412.5,-144 537.5,-144 537.5,-114 412.5,-114"/>
<text text-anchor="start" x="420.5" y="-132" font-family="FreeSans" font-size="10.00">MWWorld::CustomData</text>
<text text-anchor="middle" x="475" y="-121" font-family="FreeSans" font-size="10.00">::asDoorCustomData</text>
</a>
</g>
</g>
<!-- Node43&#45;&gt;Node46 -->
<g id="edge49" class="edge"><title>Node43&#45;&gt;Node46</title>
<path fill="none" stroke="midnightblue" d="M304.869,-163.453C333.43,-157.635 370.495,-150.084 402.646,-143.535"/>
<polygon fill="midnightblue" stroke="midnightblue" points="403.351,-146.963 412.451,-141.538 401.953,-140.104 403.351,-146.963"/>
</g>
</g>
</svg>
