<?xml version="1.0" encoding="UTF-8" standalone="no"?>
<!DOCTYPE svg PUBLIC "-//W3C//DTD SVG 1.1//EN"
 "http://www.w3.org/Graphics/SVG/1.1/DTD/svg11.dtd">
<!-- Generated by graphviz version 2.36.0 (20140111.2315)
 -->
<!-- Title: MWGui::ReviewDialog::updateSkillArea Pages: 1 -->
<svg width="1008pt" height="998pt"
 viewBox="0.00 0.00 1008.00 998.00" xmlns="http://www.w3.org/2000/svg" xmlns:xlink="http://www.w3.org/1999/xlink">
<g id="graph0" class="graph" transform="scale(1 1) rotate(0) translate(4 994)">
<title>MWGui::ReviewDialog::updateSkillArea</title>
<polygon fill="white" stroke="none" points="-4,4 -4,-994 1004,-994 1004,4 -4,4"/>
<!-- Node1 -->
<g id="node1" class="node"><title>Node1</title>
<polygon fill="#bfbfbf" stroke="black" points="0.5,-515 0.5,-545 111.5,-545 111.5,-515 0.5,-515"/>
<text text-anchor="start" x="8.5" y="-533" font-family="FreeSans" font-size="10.00">MWGui::ReviewDialog</text>
<text text-anchor="middle" x="56" y="-522" font-family="FreeSans" font-size="10.00">::updateSkillArea</text>
</g>
<!-- Node2 -->
<g id="node2" class="node"><title>Node2</title>
<g id="a_node2"><a xlink:href="classMWGui_1_1ReviewDialog.html#a68a3f6899d329a1d8be94a7709528d95" target="_top" xlink:title="MWGui::ReviewDialog\l::addSkills">
<polygon fill="white" stroke="black" points="167.5,-764 167.5,-794 278.5,-794 278.5,-764 167.5,-764"/>
<text text-anchor="start" x="175.5" y="-782" font-family="FreeSans" font-size="10.00">MWGui::ReviewDialog</text>
<text text-anchor="middle" x="223" y="-771" font-family="FreeSans" font-size="10.00">::addSkills</text>
</a>
</g>
</g>
<!-- Node1&#45;&gt;Node2 -->
<g id="edge1" class="edge"><title>Node1&#45;&gt;Node2</title>
<path fill="none" stroke="midnightblue" d="M65.572,-545.204C81.1822,-572.638 115.629,-632.027 148,-680 165.983,-706.651 188.264,-736.017 203.652,-755.791"/>
<polygon fill="midnightblue" stroke="midnightblue" points="201.077,-758.18 209.995,-763.9 206.591,-753.867 201.077,-758.18"/>
</g>
<!-- Node3 -->
<g id="node3" class="node"><title>Node3</title>
<g id="a_node3"><a xlink:href="classMWGui_1_1ReviewDialog.html#aec7184676a49d9fda4098514c3dd7c4d" target="_top" xlink:title="MWGui::ReviewDialog\l::addSeparator">
<polygon fill="white" stroke="black" points="351.5,-960 351.5,-990 462.5,-990 462.5,-960 351.5,-960"/>
<text text-anchor="start" x="359.5" y="-978" font-family="FreeSans" font-size="10.00">MWGui::ReviewDialog</text>
<text text-anchor="middle" x="407" y="-967" font-family="FreeSans" font-size="10.00">::addSeparator</text>
</a>
</g>
</g>
<!-- Node1&#45;&gt;Node3 -->
<g id="edge51" class="edge"><title>Node1&#45;&gt;Node3</title>
<path fill="none" stroke="midnightblue" d="M56.867,-545.305C57.2243,-596.555 64.9874,-764.449 148,-863 197.142,-921.34 282.377,-950.185 341.359,-963.807"/>
<polygon fill="midnightblue" stroke="midnightblue" points="340.798,-967.268 351.32,-966.022 342.317,-960.435 340.798,-967.268"/>
</g>
<!-- Node5 -->
<g id="node5" class="node"><title>Node5</title>
<g id="a_node5"><a xlink:href="classMWGui_1_1ReviewDialog.html#adcdfaa3f62b8f89527bad852bfae9939" target="_top" xlink:title="MWGui::ReviewDialog\l::addGroup">
<polygon fill="white" stroke="black" points="351.5,-911 351.5,-941 462.5,-941 462.5,-911 351.5,-911"/>
<text text-anchor="start" x="359.5" y="-929" font-family="FreeSans" font-size="10.00">MWGui::ReviewDialog</text>
<text text-anchor="middle" x="407" y="-918" font-family="FreeSans" font-size="10.00">::addGroup</text>
</a>
</g>
</g>
<!-- Node1&#45;&gt;Node5 -->
<g id="edge52" class="edge"><title>Node1&#45;&gt;Node5</title>
<path fill="none" stroke="midnightblue" d="M58.1526,-545.208C62.2815,-589.919 79.9447,-722.824 148,-803 198.086,-862.007 282.916,-894.771 341.558,-911.365"/>
<polygon fill="midnightblue" stroke="midnightblue" points="340.891,-914.812 351.461,-914.085 342.745,-908.062 340.891,-914.812"/>
</g>
<!-- Node6 -->
<g id="node6" class="node"><title>Node6</title>
<g id="a_node6"><a xlink:href="classMWBase_1_1Environment.html#a73f12633762b049c03c80fe215873faa" target="_top" xlink:title="Return instance of this class. ">
<polygon fill="white" stroke="black" points="705.5,-526.5 705.5,-545.5 836.5,-545.5 836.5,-526.5 705.5,-526.5"/>
<text text-anchor="middle" x="771" y="-533.5" font-family="FreeSans" font-size="10.00">MWBase::Environment::get</text>
</a>
</g>
</g>
<!-- Node1&#45;&gt;Node6 -->
<g id="edge18" class="edge"><title>Node1&#45;&gt;Node6</title>
<path fill="none" stroke="midnightblue" d="M111.817,-538.521C218.207,-553.776 459.984,-582.176 662,-560 683.299,-557.662 706.543,-552.804 725.993,-548.067"/>
<polygon fill="midnightblue" stroke="midnightblue" points="726.937,-551.439 735.788,-545.614 725.237,-544.648 726.937,-551.439"/>
</g>
<!-- Node13 -->
<g id="node13" class="node"><title>Node13</title>
<g id="a_node13"><a xlink:href="classMWBase_1_1Environment.html#ae14e166d8f5ff8629be119333d502660" target="_top" xlink:title="MWBase::Environment\l::getWorld">
<polygon fill="white" stroke="black" points="714.5,-417 714.5,-447 827.5,-447 827.5,-417 714.5,-417"/>
<text text-anchor="start" x="722.5" y="-435" font-family="FreeSans" font-size="10.00">MWBase::Environment</text>
<text text-anchor="middle" x="771" y="-424" font-family="FreeSans" font-size="10.00">::getWorld</text>
</a>
</g>
</g>
<!-- Node1&#45;&gt;Node13 -->
<g id="edge19" class="edge"><title>Node1&#45;&gt;Node13</title>
<path fill="none" stroke="midnightblue" d="M111.764,-522.473C240.924,-504.72 564.181,-460.289 703.925,-441.082"/>
<polygon fill="midnightblue" stroke="midnightblue" points="704.636,-444.517 714.066,-439.688 703.683,-437.582 704.636,-444.517"/>
</g>
<!-- Node14 -->
<g id="node14" class="node"><title>Node14</title>
<g id="a_node14"><a xlink:href="classMWBase_1_1World.html#a2ba0910cb944786065e37dc5f3fcda35" target="_top" xlink:title="MWBase::World::getStore">
<polygon fill="white" stroke="black" points="708,-346.5 708,-365.5 834,-365.5 834,-346.5 708,-346.5"/>
<text text-anchor="middle" x="771" y="-353.5" font-family="FreeSans" font-size="10.00">MWBase::World::getStore</text>
</a>
</g>
</g>
<!-- Node1&#45;&gt;Node14 -->
<g id="edge20" class="edge"><title>Node1&#45;&gt;Node14</title>
<path fill="none" stroke="midnightblue" d="M91.542,-514.839C108.354,-507.848 128.995,-499.827 148,-494 254.675,-461.291 579.506,-394.432 712.401,-367.561"/>
<polygon fill="midnightblue" stroke="midnightblue" points="713.281,-370.954 722.39,-365.543 711.895,-364.092 713.281,-370.954"/>
</g>
<!-- Node15 -->
<g id="node15" class="node"><title>Node15</title>
<g id="a_node15"><a xlink:href="classMWWorld_1_1ESMStore.html#a94ffe201bd012dd41fcdabfb35c69e24" target="_top" xlink:title="MWWorld::ESMStore::get">
<polygon fill="white" stroke="black" points="708.5,-213.5 708.5,-232.5 833.5,-232.5 833.5,-213.5 708.5,-213.5"/>
<text text-anchor="middle" x="771" y="-220.5" font-family="FreeSans" font-size="10.00">MWWorld::ESMStore::get</text>
</a>
</g>
</g>
<!-- Node1&#45;&gt;Node15 -->
<g id="edge21" class="edge"><title>Node1&#45;&gt;Node15</title>
<path fill="none" stroke="midnightblue" d="M59.5204,-514.891C67.028,-473.281 92.2726,-354.748 148,-274 209.609,-184.729 232.188,-153.406 334,-116 471.75,-65.3906 529.875,-90.1298 662,-154 680.751,-163.065 680.759,-172.316 698,-184 711.447,-193.113 727.234,-201.86 740.594,-208.753"/>
<polygon fill="midnightblue" stroke="midnightblue" points="739.321,-212.032 749.824,-213.424 742.481,-205.786 739.321,-212.032"/>
</g>
<!-- Node16 -->
<g id="node16" class="node"><title>Node16</title>
<g id="a_node16"><a xlink:href="namespaceMWMechanics.html#ae79ddc3d38fe2c742d20d474453677b1" target="_top" xlink:title="MWMechanics::autoCalcPlayer\lSpells">
<polygon fill="white" stroke="black" points="148,-284 148,-314 298,-314 298,-284 148,-284"/>
<text text-anchor="start" x="156" y="-302" font-family="FreeSans" font-size="10.00">MWMechanics::autoCalcPlayer</text>
<text text-anchor="middle" x="223" y="-291" font-family="FreeSans" font-size="10.00">Spells</text>
</a>
</g>
</g>
<!-- Node1&#45;&gt;Node16 -->
<g id="edge22" class="edge"><title>Node1&#45;&gt;Node16</title>
<path fill="none" stroke="midnightblue" d="M67.2273,-514.967C83.9173,-490.505 118.146,-440.632 148,-399 167.052,-372.431 189.446,-342.319 204.569,-322.143"/>
<polygon fill="midnightblue" stroke="midnightblue" points="207.37,-324.242 210.574,-314.144 201.772,-320.04 207.37,-324.242"/>
</g>
<!-- Node27 -->
<g id="node27" class="node"><title>Node27</title>
<g id="a_node27"><a xlink:href="classMisc_1_1StringUtils.html#a2982264998fde90a8e01ebab4bd69e14" target="_top" xlink:title="Returns lower case copy of input string. ">
<polygon fill="white" stroke="black" points="178,-0 178,-30 268,-30 268,-0 178,-0"/>
<text text-anchor="start" x="186" y="-18" font-family="FreeSans" font-size="10.00">Misc::StringUtils::</text>
<text text-anchor="middle" x="223" y="-7" font-family="FreeSans" font-size="10.00">lowerCase</text>
</a>
</g>
</g>
<!-- Node1&#45;&gt;Node27 -->
<g id="edge48" class="edge"><title>Node1&#45;&gt;Node27</title>
<path fill="none" stroke="midnightblue" d="M57.9311,-514.667C62.7137,-440.552 86.7106,-119.936 148,-45 153.488,-38.2899 160.71,-33.068 168.492,-29.0075"/>
<polygon fill="midnightblue" stroke="midnightblue" points="170.168,-32.0898 177.814,-24.7548 167.263,-25.7212 170.168,-32.0898"/>
</g>
<!-- Node30 -->
<g id="node30" class="node"><title>Node30</title>
<g id="a_node30"><a xlink:href="classMWGui_1_1ReviewDialog.html#a5372c758364753e617236fabe851a013" target="_top" xlink:title="MWGui::ReviewDialog\l::addItem">
<polygon fill="white" stroke="black" points="167.5,-641 167.5,-671 278.5,-671 278.5,-641 167.5,-641"/>
<text text-anchor="start" x="175.5" y="-659" font-family="FreeSans" font-size="10.00">MWGui::ReviewDialog</text>
<text text-anchor="middle" x="223" y="-648" font-family="FreeSans" font-size="10.00">::addItem</text>
</a>
</g>
</g>
<!-- Node1&#45;&gt;Node30 -->
<g id="edge53" class="edge"><title>Node1&#45;&gt;Node30</title>
<path fill="none" stroke="midnightblue" d="M76.9029,-545.199C106.218,-567.585 161.114,-609.505 194.334,-634.873"/>
<polygon fill="midnightblue" stroke="midnightblue" points="192.211,-637.656 202.283,-640.944 196.46,-632.093 192.211,-637.656"/>
</g>
<!-- Node2&#45;&gt;Node3 -->
<g id="edge2" class="edge"><title>Node2&#45;&gt;Node3</title>
<path fill="none" stroke="midnightblue" d="M229.721,-794.197C242.948,-827.327 278.795,-906.561 334,-950 336.6,-952.046 339.378,-953.93 342.276,-955.665"/>
<polygon fill="midnightblue" stroke="midnightblue" points="340.793,-958.841 351.267,-960.436 344.074,-952.657 340.793,-958.841"/>
</g>
<!-- Node2&#45;&gt;Node5 -->
<g id="edge4" class="edge"><title>Node2&#45;&gt;Node5</title>
<path fill="none" stroke="midnightblue" d="M238.001,-794.146C252.95,-810.358 277.286,-836.873 298,-860 314.179,-878.064 313.88,-887.464 334,-901 336.944,-902.98 340.061,-904.82 343.282,-906.527"/>
<polygon fill="midnightblue" stroke="midnightblue" points="342.051,-909.819 352.581,-910.992 345.081,-903.509 342.051,-909.819"/>
</g>
<!-- Node2&#45;&gt;Node6 -->
<g id="edge6" class="edge"><title>Node2&#45;&gt;Node6</title>
<path fill="none" stroke="midnightblue" d="M278.749,-766.621C392.593,-740.743 645.685,-682.449 662,-672 708.991,-641.905 744.485,-584.242 760.545,-554.601"/>
<polygon fill="midnightblue" stroke="midnightblue" points="763.668,-556.182 765.235,-545.704 757.476,-552.918 763.668,-556.182"/>
</g>
<!-- Node7 -->
<g id="node7" class="node"><title>Node7</title>
<g id="a_node7"><a xlink:href="classMWMechanics_1_1AttributeValue.html#aaf2aaa6848d18ab931777fb9096e0d45" target="_top" xlink:title="MWMechanics::AttributeValue\l::getBase">
<polygon fill="white" stroke="black" points="334,-813 334,-843 480,-843 480,-813 334,-813"/>
<text text-anchor="start" x="342" y="-831" font-family="FreeSans" font-size="10.00">MWMechanics::AttributeValue</text>
<text text-anchor="middle" x="407" y="-820" font-family="FreeSans" font-size="10.00">::getBase</text>
</a>
</g>
</g>
<!-- Node2&#45;&gt;Node7 -->
<g id="edge7" class="edge"><title>Node2&#45;&gt;Node7</title>
<path fill="none" stroke="midnightblue" d="M278.606,-793.702C298.042,-798.934 320.13,-804.881 340.392,-810.336"/>
<polygon fill="midnightblue" stroke="midnightblue" points="339.607,-813.749 350.173,-812.97 341.426,-806.99 339.607,-813.749"/>
</g>
<!-- Node8 -->
<g id="node8" class="node"><title>Node8</title>
<g id="a_node8"><a xlink:href="classMWMechanics_1_1AttributeValue.html#a3e84af12530d0e2cf3a45b25fa9b4fc8" target="_top" xlink:title="MWMechanics::AttributeValue\l::getModified">
<polygon fill="white" stroke="black" points="334,-764 334,-794 480,-794 480,-764 334,-764"/>
<text text-anchor="start" x="342" y="-782" font-family="FreeSans" font-size="10.00">MWMechanics::AttributeValue</text>
<text text-anchor="middle" x="407" y="-771" font-family="FreeSans" font-size="10.00">::getModified</text>
</a>
</g>
</g>
<!-- Node2&#45;&gt;Node8 -->
<g id="edge8" class="edge"><title>Node2&#45;&gt;Node8</title>
<path fill="none" stroke="midnightblue" d="M278.606,-779C292.864,-779 308.549,-779 323.894,-779"/>
<polygon fill="midnightblue" stroke="midnightblue" points="323.91,-782.5 333.91,-779 323.909,-775.5 323.91,-782.5"/>
</g>
<!-- Node9 -->
<g id="node9" class="node"><title>Node9</title>
<g id="a_node9"><a xlink:href="classMWGui_1_1ReviewDialog.html#a06e58fc2e66c4667e47c0495473bebbd" target="_top" xlink:title="MWGui::ReviewDialog\l::addValueItem">
<polygon fill="white" stroke="black" points="351.5,-862 351.5,-892 462.5,-892 462.5,-862 351.5,-862"/>
<text text-anchor="start" x="359.5" y="-880" font-family="FreeSans" font-size="10.00">MWGui::ReviewDialog</text>
<text text-anchor="middle" x="407" y="-869" font-family="FreeSans" font-size="10.00">::addValueItem</text>
</a>
</g>
</g>
<!-- Node2&#45;&gt;Node9 -->
<g id="edge9" class="edge"><title>Node2&#45;&gt;Node9</title>
<path fill="none" stroke="midnightblue" d="M243.359,-794.041C264.648,-810.045 300.319,-835.311 334,-852 338.365,-854.163 342.963,-856.22 347.637,-858.159"/>
<polygon fill="midnightblue" stroke="midnightblue" points="346.702,-861.552 357.288,-861.964 349.269,-855.04 346.702,-861.552"/>
</g>
<!-- Node10 -->
<g id="node10" class="node"><title>Node10</title>
<g id="a_node10"><a xlink:href="namespaceanonymous__namespace_02character_8cpp_03.html#a551df780ef62c57fe81b128fa596488c" target="_top" xlink:title="anonymous_namespace\l\{character::cpp\}::toString">
<polygon fill="white" stroke="black" points="346,-638 346,-668 468,-668 468,-638 346,-638"/>
<text text-anchor="start" x="354" y="-656" font-family="FreeSans" font-size="10.00">anonymous_namespace</text>
<text text-anchor="middle" x="407" y="-645" font-family="FreeSans" font-size="10.00">{character::cpp}::toString</text>
</a>
</g>
</g>
<!-- Node2&#45;&gt;Node10 -->
<g id="edge11" class="edge"><title>Node2&#45;&gt;Node10</title>
<path fill="none" stroke="midnightblue" d="M245.953,-763.801C278.426,-741.321 339.354,-699.139 375.948,-673.806"/>
<polygon fill="midnightblue" stroke="midnightblue" points="378.022,-676.626 384.252,-668.056 374.038,-670.871 378.022,-676.626"/>
</g>
<!-- Node12 -->
<g id="node12" class="node"><title>Node12</title>
<g id="a_node12"><a xlink:href="classMWGui_1_1ToolTips.html#a564d981fa5df861609a6eb5e11dcb281" target="_top" xlink:title="MWGui::ToolTips::createSkill\lToolTip">
<polygon fill="white" stroke="black" points="519,-499 519,-529 659,-529 659,-499 519,-499"/>
<text text-anchor="start" x="527" y="-517" font-family="FreeSans" font-size="10.00">MWGui::ToolTips::createSkill</text>
<text text-anchor="middle" x="589" y="-506" font-family="FreeSans" font-size="10.00">ToolTip</text>
</a>
</g>
</g>
<!-- Node2&#45;&gt;Node12 -->
<g id="edge13" class="edge"><title>Node2&#45;&gt;Node12</title>
<path fill="none" stroke="midnightblue" d="M235.711,-763.695C250.449,-744.351 276.444,-709.959 298,-680 314.417,-657.183 312.385,-645.97 334,-628 390.276,-581.215 468.834,-549.894 523.632,-532.11"/>
<polygon fill="midnightblue" stroke="midnightblue" points="524.768,-535.421 533.235,-529.052 522.645,-528.751 524.768,-535.421"/>
</g>
<!-- Node4 -->
<g id="node4" class="node"><title>Node4</title>
<g id="a_node4"><a xlink:href="classMWGui_1_1ReviewDialog.html#af4ea256f204882eee6243b0674c73ca5" target="_top" xlink:title="MWGui::ReviewDialog\l::onMouseWheel">
<polygon fill="white" stroke="black" points="533.5,-886 533.5,-916 644.5,-916 644.5,-886 533.5,-886"/>
<text text-anchor="start" x="541.5" y="-904" font-family="FreeSans" font-size="10.00">MWGui::ReviewDialog</text>
<text text-anchor="middle" x="589" y="-893" font-family="FreeSans" font-size="10.00">::onMouseWheel</text>
</a>
</g>
</g>
<!-- Node3&#45;&gt;Node4 -->
<g id="edge3" class="edge"><title>Node3&#45;&gt;Node4</title>
<path fill="none" stroke="midnightblue" d="M453.556,-959.891C462.383,-956.765 471.521,-953.387 480,-950 502.614,-940.966 527.384,-929.821 547.491,-920.444"/>
<polygon fill="midnightblue" stroke="midnightblue" points="549.101,-923.554 556.666,-916.137 546.127,-917.218 549.101,-923.554"/>
</g>
<!-- Node5&#45;&gt;Node4 -->
<g id="edge5" class="edge"><title>Node5&#45;&gt;Node4</title>
<path fill="none" stroke="midnightblue" d="M462.984,-918.363C482.001,-915.722 503.489,-912.738 523.218,-909.997"/>
<polygon fill="midnightblue" stroke="midnightblue" points="523.929,-913.432 533.353,-908.59 522.966,-906.499 523.929,-913.432"/>
</g>
<!-- Node9&#45;&gt;Node4 -->
<g id="edge10" class="edge"><title>Node9&#45;&gt;Node4</title>
<path fill="none" stroke="midnightblue" d="M462.984,-884.331C482.001,-886.867 503.489,-889.732 523.218,-892.362"/>
<polygon fill="midnightblue" stroke="midnightblue" points="522.978,-895.861 533.353,-893.714 523.903,-888.923 522.978,-895.861"/>
</g>
<!-- Node11 -->
<g id="node11" class="node"><title>Node11</title>
<g id="a_node11"><a xlink:href="gen__iconv_8cpp.html#a47a14d9c2f599fa2591017202978774d" target="_top" xlink:title="num">
<polygon fill="white" stroke="black" points="571.5,-643.5 571.5,-662.5 606.5,-662.5 606.5,-643.5 571.5,-643.5"/>
<text text-anchor="middle" x="589" y="-650.5" font-family="FreeSans" font-size="10.00">num</text>
</a>
</g>
</g>
<!-- Node10&#45;&gt;Node11 -->
<g id="edge12" class="edge"><title>Node10&#45;&gt;Node11</title>
<path fill="none" stroke="midnightblue" d="M468.188,-653C499.562,-653 536.385,-653 560.845,-653"/>
<polygon fill="midnightblue" stroke="midnightblue" points="561.149,-656.5 571.149,-653 561.149,-649.5 561.149,-656.5"/>
</g>
<!-- Node12&#45;&gt;Node6 -->
<g id="edge14" class="edge"><title>Node12&#45;&gt;Node6</title>
<path fill="none" stroke="midnightblue" d="M659.078,-522.443C670.929,-523.891 683.292,-525.402 695.282,-526.868"/>
<polygon fill="midnightblue" stroke="midnightblue" points="694.896,-530.347 705.246,-528.086 695.745,-523.398 694.896,-530.347"/>
</g>
<!-- Node12&#45;&gt;Node13 -->
<g id="edge15" class="edge"><title>Node12&#45;&gt;Node13</title>
<path fill="none" stroke="midnightblue" d="M627.163,-498.964C638.409,-494.293 650.757,-489.045 662,-484 685.051,-473.657 710.528,-461.43 730.946,-451.431"/>
<polygon fill="midnightblue" stroke="midnightblue" points="732.514,-454.56 739.945,-447.008 729.426,-448.278 732.514,-454.56"/>
</g>
<!-- Node12&#45;&gt;Node14 -->
<g id="edge16" class="edge"><title>Node12&#45;&gt;Node14</title>
<path fill="none" stroke="midnightblue" d="M603.949,-498.668C623.862,-477.141 662.022,-437.213 698,-407 713.446,-394.029 732.05,-380.909 746.478,-371.225"/>
<polygon fill="midnightblue" stroke="midnightblue" points="748.455,-374.114 754.856,-365.671 744.587,-368.279 748.455,-374.114"/>
</g>
<!-- Node12&#45;&gt;Node15 -->
<g id="edge17" class="edge"><title>Node12&#45;&gt;Node15</title>
<path fill="none" stroke="midnightblue" d="M598.748,-498.93C613.122,-473.795 642.124,-421.478 662,-375 681.398,-329.64 667.699,-308.931 698,-270 708.755,-256.182 724.772,-245.158 738.969,-237.27"/>
<polygon fill="midnightblue" stroke="midnightblue" points="740.741,-240.293 747.963,-232.542 737.483,-234.098 740.741,-240.293"/>
</g>
<!-- Node16&#45;&gt;Node6 -->
<g id="edge23" class="edge"><title>Node16&#45;&gt;Node6</title>
<path fill="none" stroke="midnightblue" d="M235.185,-314.019C270.259,-359.61 383.666,-495.858 516,-538 579.423,-558.197 656.355,-553.883 708.819,-546.94"/>
<polygon fill="midnightblue" stroke="midnightblue" points="709.554,-550.371 718.974,-545.522 708.586,-543.438 709.554,-550.371"/>
</g>
<!-- Node16&#45;&gt;Node13 -->
<g id="edge24" class="edge"><title>Node16&#45;&gt;Node13</title>
<path fill="none" stroke="midnightblue" d="M240.033,-314.071C260.233,-332.091 296.824,-361.614 334,-376 458.601,-424.218 616.685,-432.677 704.185,-433.206"/>
<polygon fill="midnightblue" stroke="midnightblue" points="704.23,-436.706 714.24,-433.233 704.249,-429.706 704.23,-436.706"/>
</g>
<!-- Node16&#45;&gt;Node14 -->
<g id="edge25" class="edge"><title>Node16&#45;&gt;Node14</title>
<path fill="none" stroke="midnightblue" d="M298.278,-303.058C385.619,-308.381 534.819,-319.197 662,-337 677.621,-339.187 694.443,-341.948 710.052,-344.683"/>
<polygon fill="midnightblue" stroke="midnightblue" points="709.652,-348.167 720.11,-346.47 710.877,-341.275 709.652,-348.167"/>
</g>
<!-- Node16&#45;&gt;Node15 -->
<g id="edge26" class="edge"><title>Node16&#45;&gt;Node15</title>
<path fill="none" stroke="midnightblue" d="M295.162,-283.966C308.057,-281.471 321.407,-279.036 334,-277 461.834,-256.329 611.875,-239.325 698.443,-230.216"/>
<polygon fill="midnightblue" stroke="midnightblue" points="698.841,-233.694 708.422,-229.172 698.112,-226.732 698.841,-233.694"/>
</g>
<!-- Node17 -->
<g id="node17" class="node"><title>Node17</title>
<g id="a_node17"><a xlink:href="structESM_1_1GameSetting.html#adf86d0e6166ce3e4ec8a75ab31380344" target="_top" xlink:title="Throws an exception if GMST is not of type int or float. ">
<polygon fill="white" stroke="black" points="701.5,-68.5 701.5,-87.5 840.5,-87.5 840.5,-68.5 701.5,-68.5"/>
<text text-anchor="middle" x="771" y="-75.5" font-family="FreeSans" font-size="10.00">ESM::GameSetting::getFloat</text>
</a>
</g>
</g>
<!-- Node16&#45;&gt;Node17 -->
<g id="edge27" class="edge"><title>Node16&#45;&gt;Node17</title>
<path fill="none" stroke="midnightblue" d="M227.985,-283.842C238.404,-247.575 270.175,-155.86 334,-116 450.352,-43.3357 619.443,-54.2633 709.016,-67.0186"/>
<polygon fill="midnightblue" stroke="midnightblue" points="708.606,-70.4959 719.01,-68.4968 709.63,-63.5712 708.606,-70.4959"/>
</g>
<!-- Node19 -->
<g id="node19" class="node"><title>Node19</title>
<g id="a_node19"><a xlink:href="classMWWorld_1_1Store.html#a83317619858aa87c8c8d72e644139b16" target="_top" xlink:title="MWWorld::Store::begin">
<polygon fill="white" stroke="black" points="350,-327.5 350,-346.5 464,-346.5 464,-327.5 350,-327.5"/>
<text text-anchor="middle" x="407" y="-334.5" font-family="FreeSans" font-size="10.00">MWWorld::Store::begin</text>
</a>
</g>
</g>
<!-- Node16&#45;&gt;Node19 -->
<g id="edge29" class="edge"><title>Node16&#45;&gt;Node19</title>
<path fill="none" stroke="midnightblue" d="M295.931,-314.019C314.121,-317.816 333.375,-321.837 350.607,-325.434"/>
<polygon fill="midnightblue" stroke="midnightblue" points="349.991,-328.881 360.496,-327.499 351.422,-322.029 349.991,-328.881"/>
</g>
<!-- Node20 -->
<g id="node20" class="node"><title>Node20</title>
<g id="a_node20"><a xlink:href="classMWWorld_1_1Store.html#a8fba716aeb5a3f41111c2c515ba6e15c" target="_top" xlink:title="MWWorld::Store::end">
<polygon fill="white" stroke="black" points="353.5,-175.5 353.5,-194.5 460.5,-194.5 460.5,-175.5 353.5,-175.5"/>
<text text-anchor="middle" x="407" y="-182.5" font-family="FreeSans" font-size="10.00">MWWorld::Store::end</text>
</a>
</g>
</g>
<!-- Node16&#45;&gt;Node20 -->
<g id="edge30" class="edge"><title>Node16&#45;&gt;Node20</title>
<path fill="none" stroke="midnightblue" d="M238.711,-283.931C258.666,-264.247 296.183,-229.844 334,-209 341.797,-204.702 350.494,-201.001 359.073,-197.882"/>
<polygon fill="midnightblue" stroke="midnightblue" points="360.325,-201.153 368.655,-194.605 358.06,-194.529 360.325,-201.153"/>
</g>
<!-- Node21 -->
<g id="node21" class="node"><title>Node21</title>
<g id="a_node21"><a xlink:href="namespaceMWMechanics.html#a4fe9c5fbccf00ac4b5849a4fe8cb081f" target="_top" xlink:title="MWMechanics::calcAutoCast\lChance">
<polygon fill="white" stroke="black" points="335.5,-126 335.5,-156 478.5,-156 478.5,-126 335.5,-126"/>
<text text-anchor="start" x="343.5" y="-144" font-family="FreeSans" font-size="10.00">MWMechanics::calcAutoCast</text>
<text text-anchor="middle" x="407" y="-133" font-family="FreeSans" font-size="10.00">Chance</text>
</a>
</g>
</g>
<!-- Node16&#45;&gt;Node21 -->
<g id="edge31" class="edge"><title>Node16&#45;&gt;Node21</title>
<path fill="none" stroke="midnightblue" d="M232.582,-283.945C248.896,-256.613 286.991,-198.645 334,-166 336.858,-164.015 339.889,-162.174 343.026,-160.469"/>
<polygon fill="midnightblue" stroke="midnightblue" points="344.664,-163.564 352.097,-156.014 341.578,-157.281 344.664,-163.564"/>
</g>
<!-- Node24 -->
<g id="node24" class="node"><title>Node24</title>
<g id="a_node24"><a xlink:href="namespaceMWMechanics.html#a05437852c9a78ac5a888679482949fda" target="_top" xlink:title="MWMechanics::attrSkillCheck">
<polygon fill="white" stroke="black" points="516,-346.5 516,-365.5 662,-365.5 662,-346.5 516,-346.5"/>
<text text-anchor="middle" x="589" y="-353.5" font-family="FreeSans" font-size="10.00">MWMechanics::attrSkillCheck</text>
</a>
</g>
</g>
<!-- Node16&#45;&gt;Node24 -->
<g id="edge40" class="edge"><title>Node16&#45;&gt;Node24</title>
<path fill="none" stroke="midnightblue" d="M245.502,-314.126C266.82,-328.127 300.982,-347.953 334,-356 390.115,-369.675 455.297,-369.357 505.581,-365.785"/>
<polygon fill="midnightblue" stroke="midnightblue" points="506.05,-369.259 515.753,-365.004 505.514,-362.28 506.05,-369.259"/>
</g>
<!-- Node25 -->
<g id="node25" class="node"><title>Node25</title>
<g id="a_node25"><a xlink:href="structESM_1_1GameSetting.html#a1fcd19eb4d50405ecf1e9b4920a48f9d" target="_top" xlink:title="Throws an exception if GMST is not of type int or float. ">
<polygon fill="white" stroke="black" points="707,-279.5 707,-298.5 835,-298.5 835,-279.5 707,-279.5"/>
<text text-anchor="middle" x="771" y="-286.5" font-family="FreeSans" font-size="10.00">ESM::GameSetting::getInt</text>
</a>
</g>
</g>
<!-- Node16&#45;&gt;Node25 -->
<g id="edge47" class="edge"><title>Node16&#45;&gt;Node25</title>
<path fill="none" stroke="midnightblue" d="M298.136,-288.265C310.103,-286.907 322.376,-285.737 334,-285 461.352,-276.928 610.04,-281.221 696.742,-285.095"/>
<polygon fill="midnightblue" stroke="midnightblue" points="696.595,-288.592 706.744,-285.552 696.915,-281.599 696.595,-288.592"/>
</g>
<!-- Node18 -->
<g id="node18" class="node"><title>Node18</title>
<g id="a_node18"><a xlink:href="classESM_1_1Variant.html#aea165a94a08dac002c27cdf5784fabc7" target="_top" xlink:title="Will throw an exception, if value can not be represented as a float value. ">
<polygon fill="white" stroke="black" points="884,-68.5 884,-87.5 996,-87.5 996,-68.5 884,-68.5"/>
<text text-anchor="middle" x="940" y="-75.5" font-family="FreeSans" font-size="10.00">ESM::Variant::getFloat</text>
</a>
</g>
</g>
<!-- Node17&#45;&gt;Node18 -->
<g id="edge28" class="edge"><title>Node17&#45;&gt;Node18</title>
<path fill="none" stroke="midnightblue" d="M840.889,-78C851.715,-78 862.88,-78 873.623,-78"/>
<polygon fill="midnightblue" stroke="midnightblue" points="873.77,-81.5001 883.77,-78 873.77,-74.5001 873.77,-81.5001"/>
</g>
<!-- Node22 -->
<g id="node22" class="node"><title>Node22</title>
<g id="a_node22"><a xlink:href="namespaceMWMechanics.html#a01d0a31bcf3b605561aa7c94a101f53f" target="_top" xlink:title="MWMechanics::mapSchoolTo\lSkill">
<polygon fill="white" stroke="black" points="698.5,-145 698.5,-175 843.5,-175 843.5,-145 698.5,-145"/>
<text text-anchor="start" x="706.5" y="-163" font-family="FreeSans" font-size="10.00">MWMechanics::mapSchoolTo</text>
<text text-anchor="middle" x="771" y="-152" font-family="FreeSans" font-size="10.00">Skill</text>
</a>
</g>
</g>
<!-- Node21&#45;&gt;Node22 -->
<g id="edge32" class="edge"><title>Node21&#45;&gt;Node22</title>
<path fill="none" stroke="midnightblue" d="M478.625,-144.532C529.592,-147.101 600.05,-150.694 662,-154 670.424,-154.45 679.217,-154.926 687.99,-155.406"/>
<polygon fill="midnightblue" stroke="midnightblue" points="688.08,-158.916 698.257,-155.97 688.464,-151.927 688.08,-158.916"/>
</g>
<!-- Node23 -->
<g id="node23" class="node"><title>Node23</title>
<g id="a_node23"><a xlink:href="namespaceMWMechanics.html#af9e0e9ced11cda413421b0d7362ffa52" target="_top" xlink:title="MWMechanics::calcWeakest\lSchool">
<polygon fill="white" stroke="black" points="519,-164 519,-194 659,-194 659,-164 519,-164"/>
<text text-anchor="start" x="527" y="-182" font-family="FreeSans" font-size="10.00">MWMechanics::calcWeakest</text>
<text text-anchor="middle" x="589" y="-171" font-family="FreeSans" font-size="10.00">School</text>
</a>
</g>
</g>
<!-- Node21&#45;&gt;Node23 -->
<g id="edge33" class="edge"><title>Node21&#45;&gt;Node23</title>
<path fill="none" stroke="midnightblue" d="M478.624,-155.91C488.523,-157.999 498.749,-160.158 508.794,-162.279"/>
<polygon fill="midnightblue" stroke="midnightblue" points="508.252,-165.741 518.759,-164.383 509.698,-158.892 508.252,-165.741"/>
</g>
<!-- Node23&#45;&gt;Node6 -->
<g id="edge34" class="edge"><title>Node23&#45;&gt;Node6</title>
<path fill="none" stroke="midnightblue" d="M597.859,-194.405C611.917,-222.335 641.788,-283.411 662,-337 681.5,-388.701 670.867,-407.865 698,-456 711.908,-480.673 734.588,-504.175 750.777,-519.243"/>
<polygon fill="midnightblue" stroke="midnightblue" points="748.812,-522.186 758.569,-526.315 753.516,-517.003 748.812,-522.186"/>
</g>
<!-- Node23&#45;&gt;Node13 -->
<g id="edge35" class="edge"><title>Node23&#45;&gt;Node13</title>
<path fill="none" stroke="midnightblue" d="M595.931,-194.258C609.931,-228.991 647.675,-315.541 698,-375 709.406,-388.476 724.418,-400.96 737.781,-410.788"/>
<polygon fill="midnightblue" stroke="midnightblue" points="736.096,-413.886 746.269,-416.846 740.163,-408.188 736.096,-413.886"/>
</g>
<!-- Node23&#45;&gt;Node14 -->
<g id="edge36" class="edge"><title>Node23&#45;&gt;Node14</title>
<path fill="none" stroke="midnightblue" d="M600.445,-194.116C618.45,-219.513 657.331,-271.54 698,-308 712.039,-320.586 729.618,-332.369 743.892,-341.11"/>
<polygon fill="midnightblue" stroke="midnightblue" points="742.346,-344.263 752.724,-346.393 745.939,-338.256 742.346,-344.263"/>
</g>
<!-- Node23&#45;&gt;Node15 -->
<g id="edge37" class="edge"><title>Node23&#45;&gt;Node15</title>
<path fill="none" stroke="midnightblue" d="M651.442,-194.019C674.214,-199.586 699.706,-205.817 721.201,-211.071"/>
<polygon fill="midnightblue" stroke="midnightblue" points="720.54,-214.513 731.086,-213.488 722.203,-207.713 720.54,-214.513"/>
</g>
<!-- Node23&#45;&gt;Node17 -->
<g id="edge38" class="edge"><title>Node23&#45;&gt;Node17</title>
<path fill="none" stroke="midnightblue" d="M616.948,-163.879C651.193,-144.664 709.912,-111.716 743.798,-92.7025"/>
<polygon fill="midnightblue" stroke="midnightblue" points="745.647,-95.6781 752.655,-87.7323 742.222,-89.5734 745.647,-95.6781"/>
</g>
<!-- Node23&#45;&gt;Node22 -->
<g id="edge39" class="edge"><title>Node23&#45;&gt;Node22</title>
<path fill="none" stroke="midnightblue" d="M659.078,-171.708C668.644,-170.699 678.543,-169.654 688.311,-168.623"/>
<polygon fill="midnightblue" stroke="midnightblue" points="688.846,-172.086 698.423,-167.555 688.111,-165.125 688.846,-172.086"/>
</g>
<!-- Node24&#45;&gt;Node6 -->
<g id="edge41" class="edge"><title>Node24&#45;&gt;Node6</title>
<path fill="none" stroke="midnightblue" d="M599.678,-365.678C628.856,-394.856 716.229,-482.229 753.191,-519.191"/>
<polygon fill="midnightblue" stroke="midnightblue" points="750.729,-521.678 760.275,-526.275 755.678,-516.729 750.729,-521.678"/>
</g>
<!-- Node24&#45;&gt;Node13 -->
<g id="edge42" class="edge"><title>Node24&#45;&gt;Node13</title>
<path fill="none" stroke="midnightblue" d="M612.797,-365.625C640.933,-377.505 689.429,-397.981 725.135,-413.057"/>
<polygon fill="midnightblue" stroke="midnightblue" points="723.803,-416.294 734.377,-416.959 726.526,-409.845 723.803,-416.294"/>
</g>
<!-- Node24&#45;&gt;Node14 -->
<g id="edge43" class="edge"><title>Node24&#45;&gt;Node14</title>
<path fill="none" stroke="midnightblue" d="M662.176,-356C673.901,-356 686.047,-356 697.774,-356"/>
<polygon fill="midnightblue" stroke="midnightblue" points="697.95,-359.5 707.95,-356 697.95,-352.5 697.95,-359.5"/>
</g>
<!-- Node24&#45;&gt;Node15 -->
<g id="edge44" class="edge"><title>Node24&#45;&gt;Node15</title>
<path fill="none" stroke="midnightblue" d="M601.389,-346.344C620.785,-330.033 661.662,-296.239 698,-270 713.487,-258.817 731.482,-247.07 745.608,-238.117"/>
<polygon fill="midnightblue" stroke="midnightblue" points="747.665,-240.958 754.266,-232.671 743.938,-235.033 747.665,-240.958"/>
</g>
<!-- Node24&#45;&gt;Node25 -->
<g id="edge45" class="edge"><title>Node24&#45;&gt;Node25</title>
<path fill="none" stroke="midnightblue" d="M615.79,-346.401C646.933,-334.808 699.481,-315.249 734.453,-302.231"/>
<polygon fill="midnightblue" stroke="midnightblue" points="736.107,-305.35 744.258,-298.582 733.665,-298.79 736.107,-305.35"/>
</g>
<!-- Node26 -->
<g id="node26" class="node"><title>Node26</title>
<g id="a_node26"><a xlink:href="classESM_1_1Variant.html#aad77cad9a160b176ea71e09ecf2c55a5" target="_top" xlink:title="ESM::Variant::getInteger">
<polygon fill="white" stroke="black" points="880,-279.5 880,-298.5 1000,-298.5 1000,-279.5 880,-279.5"/>
<text text-anchor="middle" x="940" y="-286.5" font-family="FreeSans" font-size="10.00">ESM::Variant::getInteger</text>
</a>
</g>
</g>
<!-- Node25&#45;&gt;Node26 -->
<g id="edge46" class="edge"><title>Node25&#45;&gt;Node26</title>
<path fill="none" stroke="midnightblue" d="M835.136,-289C846.494,-289 858.389,-289 869.906,-289"/>
<polygon fill="midnightblue" stroke="midnightblue" points="869.907,-292.5 879.907,-289 869.907,-285.5 869.907,-292.5"/>
</g>
<!-- Node28 -->
<g id="node28" class="node"><title>Node28</title>
<g id="a_node28"><a xlink:href="classMisc_1_1StringUtils.html#a249dcf40e5ef16618daf8bf5d2098c54" target="_top" xlink:title="Transforms input string to lower case w/o copy. ">
<polygon fill="white" stroke="black" points="360,-0 360,-30 454,-30 454,-0 360,-0"/>
<text text-anchor="start" x="368" y="-18" font-family="FreeSans" font-size="10.00">Misc::StringUtils::</text>
<text text-anchor="middle" x="407" y="-7" font-family="FreeSans" font-size="10.00">lowerCaseInPlace</text>
</a>
</g>
</g>
<!-- Node27&#45;&gt;Node28 -->
<g id="edge49" class="edge"><title>Node27&#45;&gt;Node28</title>
<path fill="none" stroke="midnightblue" d="M268.057,-15C292.576,-15 323.355,-15 349.616,-15"/>
<polygon fill="midnightblue" stroke="midnightblue" points="349.809,-18.5001 359.809,-15 349.809,-11.5001 349.809,-18.5001"/>
</g>
<!-- Node29 -->
<g id="node29" class="node"><title>Node29</title>
<g id="a_node29"><a xlink:href="classMisc_1_1StringUtils.html#a0759adb102842ee3bced227707eb6949" target="_top" xlink:title="Misc::StringUtils::\ltoLower">
<polygon fill="white" stroke="black" points="544,-0 544,-30 634,-30 634,-0 544,-0"/>
<text text-anchor="start" x="552" y="-18" font-family="FreeSans" font-size="10.00">Misc::StringUtils::</text>
<text text-anchor="middle" x="589" y="-7" font-family="FreeSans" font-size="10.00">toLower</text>
</a>
</g>
</g>
<!-- Node28&#45;&gt;Node29 -->
<g id="edge50" class="edge"><title>Node28&#45;&gt;Node29</title>
<path fill="none" stroke="midnightblue" d="M454.354,-15C478.616,-15 508.46,-15 533.787,-15"/>
<polygon fill="midnightblue" stroke="midnightblue" points="533.972,-18.5001 543.972,-15 533.972,-11.5001 533.972,-18.5001"/>
</g>
<!-- Node30&#45;&gt;Node4 -->
<g id="edge54" class="edge"><title>Node30&#45;&gt;Node4</title>
<path fill="none" stroke="midnightblue" d="M278.649,-667.627C333.732,-681.402 419.087,-708.554 480,-755 524.079,-788.61 558.552,-844.916 575.823,-876.893"/>
<polygon fill="midnightblue" stroke="midnightblue" points="572.859,-878.774 580.623,-885.983 579.049,-875.506 572.859,-878.774"/>
</g>
</g>
</svg>
