<?xml version="1.0" encoding="UTF-8" standalone="no"?>
<!DOCTYPE svg PUBLIC "-//W3C//DTD SVG 1.1//EN"
 "http://www.w3.org/Graphics/SVG/1.1/DTD/svg11.dtd">
<!-- Generated by graphviz version 2.36.0 (20140111.2315)
 -->
<!-- Title: MWBase::World::rotateObject Pages: 1 -->
<svg width="930pt" height="619pt"
 viewBox="0.00 0.00 930.00 618.55" xmlns="http://www.w3.org/2000/svg" xmlns:xlink="http://www.w3.org/1999/xlink">
<g id="graph0" class="graph" transform="scale(1 1) rotate(0) translate(4 614.552)">
<title>MWBase::World::rotateObject</title>
<polygon fill="white" stroke="none" points="-4,4 -4,-614.552 926,-614.552 926,4 -4,4"/>
<!-- Node1 -->
<g id="node1" class="node"><title>Node1</title>
<polygon fill="#bfbfbf" stroke="black" points="0.5,-341.052 0.5,-360.052 143.5,-360.052 143.5,-341.052 0.5,-341.052"/>
<text text-anchor="middle" x="72" y="-348.052" font-family="FreeSans" font-size="10.00">MWBase::World::rotateObject</text>
</g>
<!-- Node2 -->
<g id="node2" class="node"><title>Node2</title>
<g id="a_node2"><a xlink:href="classMWMechanics_1_1CharacterController.html#a1aa04b41faf6c46eef9310e36e405be5" target="_top" xlink:title="MWMechanics::CharacterController\l::update">
<polygon fill="white" stroke="black" points="181,-580.552 181,-610.552 349,-610.552 349,-580.552 181,-580.552"/>
<text text-anchor="start" x="189" y="-598.552" font-family="FreeSans" font-size="10.00">MWMechanics::CharacterController</text>
<text text-anchor="middle" x="265" y="-587.552" font-family="FreeSans" font-size="10.00">::update</text>
</a>
</g>
</g>
<!-- Node1&#45;&gt;Node2 -->
<g id="edge1" class="edge"><title>Node1&#45;&gt;Node2</title>
<path fill="none" stroke="midnightblue" d="M76.9382,-370.153C86.5888,-413.055 115.493,-515.81 180,-570.552 184.524,-574.392 189.62,-577.641 195.007,-580.392"/>
<polygon fill="midnightblue" stroke="midnightblue" points="80.3154,-369.208 74.8006,-360.162 73.4704,-370.673 80.3154,-369.208"/>
</g>
<!-- Node5 -->
<g id="node5" class="node"><title>Node5</title>
<g id="a_node5"><a xlink:href="classMWScript_1_1Misc_1_1OpLock.html#a2aaf42fa90f93ec7248e83d3f1829d56" target="_top" xlink:title="MWScript::Misc::OpLock\l::execute">
<polygon fill="white" stroke="black" points="204,-531.552 204,-561.552 326,-561.552 326,-531.552 204,-531.552"/>
<text text-anchor="start" x="212" y="-549.552" font-family="FreeSans" font-size="10.00">MWScript::Misc::OpLock</text>
<text text-anchor="middle" x="265" y="-538.552" font-family="FreeSans" font-size="10.00">::execute</text>
</a>
</g>
</g>
<!-- Node1&#45;&gt;Node5 -->
<g id="edge4" class="edge"><title>Node1&#45;&gt;Node5</title>
<path fill="none" stroke="midnightblue" d="M79.8501,-370.07C93.3305,-405.622 126.709,-481 180,-521.552 187.023,-526.896 195.175,-531.102 203.585,-534.411"/>
<polygon fill="midnightblue" stroke="midnightblue" points="83.0327,-368.583 76.3053,-360.398 76.4602,-370.991 83.0327,-368.583"/>
</g>
<!-- Node6 -->
<g id="node6" class="node"><title>Node6</title>
<g id="a_node6"><a xlink:href="classMWScript_1_1Transformation_1_1OpSetAngle.html#a6e54407335ebbe4999b10b91778da5f4" target="_top" xlink:title="MWScript::Transformation\l::OpSetAngle::execute">
<polygon fill="white" stroke="black" points="201,-482.552 201,-512.552 329,-512.552 329,-482.552 201,-482.552"/>
<text text-anchor="start" x="209" y="-500.552" font-family="FreeSans" font-size="10.00">MWScript::Transformation</text>
<text text-anchor="middle" x="265" y="-489.552" font-family="FreeSans" font-size="10.00">::OpSetAngle::execute</text>
</a>
</g>
</g>
<!-- Node1&#45;&gt;Node6 -->
<g id="edge5" class="edge"><title>Node1&#45;&gt;Node6</title>
<path fill="none" stroke="midnightblue" d="M84.1746,-368.835C101.438,-395.552 137.119,-445.064 180,-472.552 186.405,-476.658 193.512,-480.113 200.803,-483.016"/>
<polygon fill="midnightblue" stroke="midnightblue" points="86.964,-366.696 78.6686,-360.106 81.0434,-370.431 86.964,-366.696"/>
</g>
<!-- Node7 -->
<g id="node7" class="node"><title>Node7</title>
<g id="a_node7"><a xlink:href="classMWScript_1_1Transformation_1_1OpPositionCell.html#a0651261ae4c386e8931989f5beecea10" target="_top" xlink:title="MWScript::Transformation\l::OpPositionCell::execute">
<polygon fill="white" stroke="black" points="201,-433.552 201,-463.552 329,-463.552 329,-433.552 201,-433.552"/>
<text text-anchor="start" x="209" y="-451.552" font-family="FreeSans" font-size="10.00">MWScript::Transformation</text>
<text text-anchor="middle" x="265" y="-440.552" font-family="FreeSans" font-size="10.00">::OpPositionCell::execute</text>
</a>
</g>
</g>
<!-- Node1&#45;&gt;Node7 -->
<g id="edge6" class="edge"><title>Node1&#45;&gt;Node7</title>
<path fill="none" stroke="midnightblue" d="M92.426,-366.559C113.045,-382.866 147.127,-407.916 180,-423.552 187.832,-427.277 196.341,-430.583 204.836,-433.472"/>
<polygon fill="midnightblue" stroke="midnightblue" points="94.445,-363.692 84.4565,-360.159 90.0618,-369.15 94.445,-363.692"/>
</g>
<!-- Node8 -->
<g id="node8" class="node"><title>Node8</title>
<g id="a_node8"><a xlink:href="classMWScript_1_1Transformation_1_1OpPosition.html#a9b3fc4100a0af0886b2e964f5cfadcac" target="_top" xlink:title="MWScript::Transformation\l::OpPosition::execute">
<polygon fill="white" stroke="black" points="201,-384.552 201,-414.552 329,-414.552 329,-384.552 201,-384.552"/>
<text text-anchor="start" x="209" y="-402.552" font-family="FreeSans" font-size="10.00">MWScript::Transformation</text>
<text text-anchor="middle" x="265" y="-391.552" font-family="FreeSans" font-size="10.00">::OpPosition::execute</text>
</a>
</g>
</g>
<!-- Node1&#45;&gt;Node8 -->
<g id="edge7" class="edge"><title>Node1&#45;&gt;Node8</title>
<path fill="none" stroke="midnightblue" d="M120.172,-362.654C145.923,-369.26 178.039,-377.499 205.387,-384.515"/>
<polygon fill="midnightblue" stroke="midnightblue" points="120.836,-359.211 110.28,-360.116 119.097,-365.991 120.836,-359.211"/>
</g>
<!-- Node9 -->
<g id="node9" class="node"><title>Node9</title>
<g id="a_node9"><a xlink:href="classMWScript_1_1Transformation_1_1OpRotate.html#a3c64bf1d9f894d17ecd63d02e036f1d5" target="_top" xlink:title="MWScript::Transformation\l::OpRotate::execute">
<polygon fill="white" stroke="black" points="201,-335.552 201,-365.552 329,-365.552 329,-335.552 201,-335.552"/>
<text text-anchor="start" x="209" y="-353.552" font-family="FreeSans" font-size="10.00">MWScript::Transformation</text>
<text text-anchor="middle" x="265" y="-342.552" font-family="FreeSans" font-size="10.00">::OpRotate::execute</text>
</a>
</g>
</g>
<!-- Node1&#45;&gt;Node9 -->
<g id="edge8" class="edge"><title>Node1&#45;&gt;Node9</title>
<path fill="none" stroke="midnightblue" d="M153.834,-350.552C169.587,-350.552 185.886,-350.552 200.96,-350.552"/>
<polygon fill="midnightblue" stroke="midnightblue" points="153.579,-347.052 143.579,-350.552 153.579,-354.052 153.579,-347.052"/>
</g>
<!-- Node10 -->
<g id="node10" class="node"><title>Node10</title>
<g id="a_node10"><a xlink:href="classMWScript_1_1Transformation_1_1OpRotateWorld.html#a3868601abf557541d271553eebc44f44" target="_top" xlink:title="MWScript::Transformation\l::OpRotateWorld::execute">
<polygon fill="white" stroke="black" points="201,-286.552 201,-316.552 329,-316.552 329,-286.552 201,-286.552"/>
<text text-anchor="start" x="209" y="-304.552" font-family="FreeSans" font-size="10.00">MWScript::Transformation</text>
<text text-anchor="middle" x="265" y="-293.552" font-family="FreeSans" font-size="10.00">::OpRotateWorld::execute</text>
</a>
</g>
</g>
<!-- Node1&#45;&gt;Node10 -->
<g id="edge9" class="edge"><title>Node1&#45;&gt;Node10</title>
<path fill="none" stroke="midnightblue" d="M120.172,-338.45C145.923,-331.844 178.039,-323.605 205.387,-316.589"/>
<polygon fill="midnightblue" stroke="midnightblue" points="119.097,-335.113 110.28,-340.988 120.836,-341.893 119.097,-335.113"/>
</g>
<!-- Node11 -->
<g id="node11" class="node"><title>Node11</title>
<g id="a_node11"><a xlink:href="classMWScript_1_1Transformation_1_1OpSetAtStart.html#a081f88bdfbad789fecd709946933aed7" target="_top" xlink:title="MWScript::Transformation\l::OpSetAtStart::execute">
<polygon fill="white" stroke="black" points="201,-237.552 201,-267.552 329,-267.552 329,-237.552 201,-237.552"/>
<text text-anchor="start" x="209" y="-255.552" font-family="FreeSans" font-size="10.00">MWScript::Transformation</text>
<text text-anchor="middle" x="265" y="-244.552" font-family="FreeSans" font-size="10.00">::OpSetAtStart::execute</text>
</a>
</g>
</g>
<!-- Node1&#45;&gt;Node11 -->
<g id="edge10" class="edge"><title>Node1&#45;&gt;Node11</title>
<path fill="none" stroke="midnightblue" d="M92.426,-334.545C113.045,-318.238 147.127,-293.188 180,-277.552 187.832,-273.827 196.341,-270.521 204.836,-267.632"/>
<polygon fill="midnightblue" stroke="midnightblue" points="90.0618,-331.954 84.4565,-340.945 94.445,-337.412 90.0618,-331.954"/>
</g>
<!-- Node12 -->
<g id="node12" class="node"><title>Node12</title>
<g id="a_node12"><a xlink:href="classMWWorld_1_1Scene.html#a2a39ef756e94909c0624a61ea5652f06" target="_top" xlink:title="MWWorld::Scene::changePlayerCell">
<polygon fill="white" stroke="black" points="180,-161.052 180,-180.052 350,-180.052 350,-161.052 180,-161.052"/>
<text text-anchor="middle" x="265" y="-168.052" font-family="FreeSans" font-size="10.00">MWWorld::Scene::changePlayerCell</text>
</a>
</g>
</g>
<!-- Node1&#45;&gt;Node12 -->
<g id="edge11" class="edge"><title>Node1&#45;&gt;Node12</title>
<path fill="none" stroke="midnightblue" d="M80.8942,-331.326C95.4592,-298.27 129.734,-230.738 180,-194.552 188.739,-188.261 199.093,-183.613 209.492,-180.181"/>
<polygon fill="midnightblue" stroke="midnightblue" points="77.5724,-330.192 76.8625,-340.763 84.0096,-332.942 77.5724,-330.192"/>
</g>
<!-- Node13 -->
<g id="node13" class="node"><title>Node13</title>
<g id="a_node13"><a xlink:href="classMWWorld_1_1Scene.html#a4fe84b7d74d5d597e79e14d2a57b5496" target="_top" xlink:title="MWWorld::Scene::changeTo\lInteriorCell">
<polygon fill="white" stroke="black" points="386,-196.552 386,-226.552 524,-226.552 524,-196.552 386,-196.552"/>
<text text-anchor="start" x="394" y="-214.552" font-family="FreeSans" font-size="10.00">MWWorld::Scene::changeTo</text>
<text text-anchor="middle" x="455" y="-203.552" font-family="FreeSans" font-size="10.00">InteriorCell</text>
</a>
</g>
</g>
<!-- Node1&#45;&gt;Node13 -->
<g id="edge24" class="edge"><title>Node1&#45;&gt;Node13</title>
<path fill="none" stroke="midnightblue" d="M82.6998,-331.998C98.6657,-303.649 133.414,-250.435 180,-227.552 244.475,-195.882 328.029,-195.962 385.834,-201.382"/>
<polygon fill="midnightblue" stroke="midnightblue" points="79.5614,-330.443 77.8472,-340.898 85.7072,-333.794 79.5614,-330.443"/>
</g>
<!-- Node20 -->
<g id="node20" class="node"><title>Node20</title>
<g id="a_node20"><a xlink:href="structMWWorld_1_1ResetActorsVisitor.html#ad65d2ab11e192e32ffe4f20a7a9056ce" target="_top" xlink:title="MWWorld::ResetActorsVisitor\l::operator()">
<polygon fill="white" stroke="black" points="194,-111.552 194,-141.552 336,-141.552 336,-111.552 194,-111.552"/>
<text text-anchor="start" x="202" y="-129.552" font-family="FreeSans" font-size="10.00">MWWorld::ResetActorsVisitor</text>
<text text-anchor="middle" x="265" y="-118.552" font-family="FreeSans" font-size="10.00">::operator()</text>
</a>
</g>
</g>
<!-- Node1&#45;&gt;Node20 -->
<g id="edge25" class="edge"><title>Node1&#45;&gt;Node20</title>
<path fill="none" stroke="midnightblue" d="M77.963,-331.201C89.1663,-291.443 120.221,-200.226 180,-151.552 184.72,-147.709 190.015,-144.457 195.591,-141.704"/>
<polygon fill="midnightblue" stroke="midnightblue" points="74.5526,-330.405 75.3221,-340.972 81.3101,-332.231 74.5526,-330.405"/>
</g>
<!-- Node3 -->
<g id="node3" class="node"><title>Node3</title>
<g id="a_node3"><a xlink:href="classMWMechanics_1_1Actors.html#a1588180bba8597286a1db1389cee106e" target="_top" xlink:title="Update actor stats and store desired velocity vectors in movement. ">
<polygon fill="white" stroke="black" points="398.5,-580.552 398.5,-610.552 511.5,-610.552 511.5,-580.552 398.5,-580.552"/>
<text text-anchor="start" x="406.5" y="-598.552" font-family="FreeSans" font-size="10.00">MWMechanics::Actors</text>
<text text-anchor="middle" x="455" y="-587.552" font-family="FreeSans" font-size="10.00">::update</text>
</a>
</g>
</g>
<!-- Node2&#45;&gt;Node3 -->
<g id="edge2" class="edge"><title>Node2&#45;&gt;Node3</title>
<path fill="none" stroke="midnightblue" d="M359.237,-595.552C372.644,-595.552 386.071,-595.552 398.428,-595.552"/>
<polygon fill="midnightblue" stroke="midnightblue" points="359.007,-592.052 349.007,-595.552 359.007,-599.052 359.007,-592.052"/>
</g>
<!-- Node4 -->
<g id="node4" class="node"><title>Node4</title>
<g id="a_node4"><a xlink:href="classMWMechanics_1_1MechanicsManager.html#acf3c8c25fff52b890d0d6ced4b456459" target="_top" xlink:title="MWMechanics::MechanicsManager\l::update">
<polygon fill="white" stroke="black" points="560.5,-580.552 560.5,-610.552 729.5,-610.552 729.5,-580.552 560.5,-580.552"/>
<text text-anchor="start" x="568.5" y="-598.552" font-family="FreeSans" font-size="10.00">MWMechanics::MechanicsManager</text>
<text text-anchor="middle" x="645" y="-587.552" font-family="FreeSans" font-size="10.00">::update</text>
</a>
</g>
</g>
<!-- Node3&#45;&gt;Node4 -->
<g id="edge3" class="edge"><title>Node3&#45;&gt;Node4</title>
<path fill="none" stroke="midnightblue" d="M521.874,-595.552C534.282,-595.552 547.409,-595.552 560.276,-595.552"/>
<polygon fill="midnightblue" stroke="midnightblue" points="521.643,-592.052 511.643,-595.552 521.643,-599.052 521.643,-592.052"/>
</g>
<!-- Node12&#45;&gt;Node13 -->
<g id="edge12" class="edge"><title>Node12&#45;&gt;Node13</title>
<path fill="none" stroke="midnightblue" d="M319.474,-182.214C340.157,-186.725 364.078,-191.941 385.962,-196.714"/>
<polygon fill="midnightblue" stroke="midnightblue" points="320.12,-178.773 309.604,-180.061 318.628,-185.612 320.12,-178.773"/>
</g>
<!-- Node17 -->
<g id="node17" class="node"><title>Node17</title>
<g id="a_node17"><a xlink:href="classMWWorld_1_1World.html#aa66f9502010313a20d0f20339f473400" target="_top" xlink:title="MWWorld::World::moveObject">
<polygon fill="white" stroke="black" points="772,-120.052 772,-139.052 916,-139.052 916,-120.052 772,-120.052"/>
<text text-anchor="middle" x="844" y="-127.052" font-family="FreeSans" font-size="10.00">MWWorld::World::moveObject</text>
</a>
</g>
</g>
<!-- Node12&#45;&gt;Node17 -->
<g id="edge23" class="edge"><title>Node12&#45;&gt;Node17</title>
<path fill="none" stroke="midnightblue" d="M360.436,-163.842C475.764,-155.647 668.231,-141.971 771.817,-134.61"/>
<polygon fill="midnightblue" stroke="midnightblue" points="359.936,-160.368 350.21,-164.568 360.432,-167.351 359.936,-160.368"/>
</g>
<!-- Node18 -->
<g id="node18" class="node"><title>Node18</title>
<g id="a_node18"><a xlink:href="classMWWorld_1_1Scene.html#aa839931bb3be7256993237b5b5b886ce" target="_top" xlink:title="MWWorld::Scene::changeTo\lExteriorCell">
<polygon fill="white" stroke="black" points="386,-64.552 386,-94.552 524,-94.552 524,-64.552 386,-64.552"/>
<text text-anchor="start" x="394" y="-82.552" font-family="FreeSans" font-size="10.00">MWWorld::Scene::changeTo</text>
<text text-anchor="middle" x="455" y="-71.552" font-family="FreeSans" font-size="10.00">ExteriorCell</text>
</a>
</g>
</g>
<!-- Node12&#45;&gt;Node18 -->
<g id="edge17" class="edge"><title>Node12&#45;&gt;Node18</title>
<path fill="none" stroke="midnightblue" d="M329.159,-158.178C336.316,-155.998 343.402,-153.47 350,-150.552 382.99,-135.963 416.658,-110.685 436.425,-94.5577"/>
<polygon fill="midnightblue" stroke="midnightblue" points="328.063,-154.851 319.394,-160.942 329.97,-161.586 328.063,-154.851"/>
</g>
<!-- Node14 -->
<g id="node14" class="node"><title>Node14</title>
<g id="a_node14"><a xlink:href="classMWWorld_1_1World.html#a60987e10717123b8af23a4118907cb78" target="_top" xlink:title="MWWorld::World::changeTo\lInteriorCell">
<polygon fill="white" stroke="black" points="577.5,-70.552 577.5,-100.552 712.5,-100.552 712.5,-70.552 577.5,-70.552"/>
<text text-anchor="start" x="585.5" y="-88.552" font-family="FreeSans" font-size="10.00">MWWorld::World::changeTo</text>
<text text-anchor="middle" x="645" y="-77.552" font-family="FreeSans" font-size="10.00">InteriorCell</text>
</a>
</g>
</g>
<!-- Node13&#45;&gt;Node14 -->
<g id="edge13" class="edge"><title>Node13&#45;&gt;Node14</title>
<path fill="none" stroke="midnightblue" d="M487.283,-190.586C525.189,-165.181 588.116,-123.006 621.535,-100.608"/>
<polygon fill="midnightblue" stroke="midnightblue" points="485.035,-187.879 478.677,-196.353 488.933,-193.693 485.035,-187.879"/>
</g>
<!-- Node15 -->
<g id="node15" class="node"><title>Node15</title>
<g id="a_node15"><a xlink:href="classMWWorld_1_1World.html#a7fafd9a8c05b57ea9bb378cc9262b918" target="_top" xlink:title="MWWorld::World::startNewGame">
<polygon fill="white" stroke="black" points="766,-27.052 766,-46.052 922,-46.052 922,-27.052 766,-27.052"/>
<text text-anchor="middle" x="844" y="-34.052" font-family="FreeSans" font-size="10.00">MWWorld::World::startNewGame</text>
</a>
</g>
</g>
<!-- Node14&#45;&gt;Node15 -->
<g id="edge14" class="edge"><title>Node14&#45;&gt;Node15</title>
<path fill="none" stroke="midnightblue" d="M716.376,-68.0472C746.134,-60.6455 779.631,-52.314 804.694,-46.08"/>
<polygon fill="midnightblue" stroke="midnightblue" points="715.305,-64.707 706.445,-70.5174 716.994,-71.5001 715.305,-64.707"/>
</g>
<!-- Node16 -->
<g id="node16" class="node"><title>Node16</title>
<g id="a_node16"><a xlink:href="classMWWorld_1_1World.html#a0940ee6e88b7fcd9fc3add1eeaf2e2c8" target="_top" xlink:title="MWWorld::World::changeToCell">
<polygon fill="white" stroke="black" points="768,-71.052 768,-90.052 920,-90.052 920,-71.052 768,-71.052"/>
<text text-anchor="middle" x="844" y="-78.052" font-family="FreeSans" font-size="10.00">MWWorld::World::changeToCell</text>
</a>
</g>
</g>
<!-- Node14&#45;&gt;Node16 -->
<g id="edge15" class="edge"><title>Node14&#45;&gt;Node16</title>
<path fill="none" stroke="midnightblue" d="M722.824,-83.6022C737.638,-83.2262 753.141,-82.8327 767.899,-82.4581"/>
<polygon fill="midnightblue" stroke="midnightblue" points="722.603,-80.1065 712.695,-83.8592 722.781,-87.1043 722.603,-80.1065"/>
</g>
<!-- Node14&#45;&gt;Node17 -->
<g id="edge16" class="edge"><title>Node14&#45;&gt;Node17</title>
<path fill="none" stroke="midnightblue" d="M722.661,-102.674C748.988,-108.554 777.506,-114.924 800.17,-119.986"/>
<polygon fill="midnightblue" stroke="midnightblue" points="723.218,-99.2124 712.695,-100.448 721.692,-106.044 723.218,-99.2124"/>
</g>
<!-- Node18&#45;&gt;Node15 -->
<g id="edge18" class="edge"><title>Node18&#45;&gt;Node15</title>
<path fill="none" stroke="midnightblue" d="M480.333,-57.6992C500.183,-41.433 529.789,-20.5521 560,-11.552 649.577,15.1338 761.607,-11.3866 813.766,-26.9654"/>
<polygon fill="midnightblue" stroke="midnightblue" points="477.844,-55.2202 472.451,-64.3398 482.354,-60.5737 477.844,-55.2202"/>
</g>
<!-- Node18&#45;&gt;Node17 -->
<g id="edge22" class="edge"><title>Node18&#45;&gt;Node17</title>
<path fill="none" stroke="midnightblue" d="M509.995,-97.4595C525.936,-102.11 543.528,-106.628 560,-109.552 631.411,-122.229 714.302,-126.94 771.84,-128.654"/>
<polygon fill="midnightblue" stroke="midnightblue" points="510.891,-94.0743 500.307,-94.5602 508.884,-100.78 510.891,-94.0743"/>
</g>
<!-- Node19 -->
<g id="node19" class="node"><title>Node19</title>
<g id="a_node19"><a xlink:href="classMWWorld_1_1World.html#a74a5fc184f19e77231acbd7302258670" target="_top" xlink:title="MWWorld::World::changeTo\lExteriorCell">
<polygon fill="white" stroke="black" points="577.5,-21.552 577.5,-51.552 712.5,-51.552 712.5,-21.552 577.5,-21.552"/>
<text text-anchor="start" x="585.5" y="-39.552" font-family="FreeSans" font-size="10.00">MWWorld::World::changeTo</text>
<text text-anchor="middle" x="645" y="-28.552" font-family="FreeSans" font-size="10.00">ExteriorCell</text>
</a>
</g>
</g>
<!-- Node18&#45;&gt;Node19 -->
<g id="edge19" class="edge"><title>Node18&#45;&gt;Node19</title>
<path fill="none" stroke="midnightblue" d="M531.763,-62.2233C547.171,-58.6991 563.259,-55.0194 578.284,-51.5828"/>
<polygon fill="midnightblue" stroke="midnightblue" points="530.721,-58.8711 521.753,-64.5127 532.282,-65.6948 530.721,-58.8711"/>
</g>
<!-- Node19&#45;&gt;Node15 -->
<g id="edge20" class="edge"><title>Node19&#45;&gt;Node15</title>
<path fill="none" stroke="midnightblue" d="M722.848,-36.552C736.967,-36.552 751.71,-36.552 765.838,-36.552"/>
<polygon fill="midnightblue" stroke="midnightblue" points="722.695,-33.0521 712.695,-36.552 722.695,-40.0521 722.695,-33.0521"/>
</g>
<!-- Node19&#45;&gt;Node16 -->
<g id="edge21" class="edge"><title>Node19&#45;&gt;Node16</title>
<path fill="none" stroke="midnightblue" d="M722.661,-53.6743C748.988,-59.5544 777.506,-65.924 800.17,-70.986"/>
<polygon fill="midnightblue" stroke="midnightblue" points="723.218,-50.2124 712.695,-51.4484 721.692,-57.0441 723.218,-50.2124"/>
</g>
</g>
</svg>
