<?xml version="1.0" encoding="UTF-8" standalone="no"?>
<!DOCTYPE svg PUBLIC "-//W3C//DTD SVG 1.1//EN"
 "http://www.w3.org/Graphics/SVG/1.1/DTD/svg11.dtd">
<!-- Generated by graphviz version 2.36.0 (20140111.2315)
 -->
<!-- Title: MWMechanics::MechanicsManager::getBarterOffer Pages: 1 -->
<svg width="948pt" height="1157pt"
 viewBox="0.00 0.00 948.00 1156.85" xmlns="http://www.w3.org/2000/svg" xmlns:xlink="http://www.w3.org/1999/xlink">
<g id="graph0" class="graph" transform="scale(1 1) rotate(0) translate(4 1152.85)">
<title>MWMechanics::MechanicsManager::getBarterOffer</title>
<polygon fill="white" stroke="none" points="-4,4 -4,-1152.85 944,-1152.85 944,4 -4,4"/>
<!-- Node1 -->
<g id="node1" class="node"><title>Node1</title>
<polygon fill="#bfbfbf" stroke="black" points="0.5,-608 0.5,-638 169.5,-638 169.5,-608 0.5,-608"/>
<text text-anchor="start" x="8.5" y="-626" font-family="FreeSans" font-size="10.00">MWMechanics::MechanicsManager</text>
<text text-anchor="middle" x="85" y="-615" font-family="FreeSans" font-size="10.00">::getBarterOffer</text>
</g>
<!-- Node2 -->
<g id="node2" class="node"><title>Node2</title>
<g id="a_node2"><a xlink:href="classMWWorld_1_1Ptr.html#a6c33fb25a2ac50b8360397272070d298" target="_top" xlink:title="MWWorld::Ptr::getTypeName">
<polygon fill="white" stroke="black" points="610,-862.5 610,-881.5 750,-881.5 750,-862.5 610,-862.5"/>
<text text-anchor="middle" x="680" y="-869.5" font-family="FreeSans" font-size="10.00">MWWorld::Ptr::getTypeName</text>
</a>
</g>
</g>
<!-- Node1&#45;&gt;Node2 -->
<g id="edge1" class="edge"><title>Node1&#45;&gt;Node2</title>
<path fill="none" stroke="midnightblue" d="M87.1559,-638.313C91.9868,-692.913 114.79,-881.024 206,-998 272.28,-1083 308.348,-1096.42 412,-1126 480.381,-1145.51 512.755,-1165.33 572,-1126 653.736,-1071.74 673.181,-941.469 677.685,-891.745"/>
<polygon fill="midnightblue" stroke="midnightblue" points="681.182,-891.912 678.487,-881.665 674.204,-891.356 681.182,-891.912"/>
</g>
<!-- Node4 -->
<g id="node4" class="node"><title>Node4</title>
<g id="a_node4"><a xlink:href="classMWWorld_1_1Ptr.html#aa2ac4a5579cd19eaa780596f4543ea46" target="_top" xlink:title="MWWorld::Ptr::getClass">
<polygon fill="white" stroke="black" points="433.5,-1097.5 433.5,-1116.5 550.5,-1116.5 550.5,-1097.5 433.5,-1097.5"/>
<text text-anchor="middle" x="492" y="-1104.5" font-family="FreeSans" font-size="10.00">MWWorld::Ptr::getClass</text>
</a>
</g>
</g>
<!-- Node1&#45;&gt;Node4 -->
<g id="edge3" class="edge"><title>Node1&#45;&gt;Node4</title>
<path fill="none" stroke="midnightblue" d="M89.9381,-638.193C101.902,-682.391 141.031,-813.509 206,-904 277.595,-1003.72 303.257,-1031.04 412,-1088 416.493,-1090.35 421.281,-1092.42 426.195,-1094.24"/>
<polygon fill="midnightblue" stroke="midnightblue" points="425.158,-1097.58 435.752,-1097.42 427.373,-1090.94 425.158,-1097.58"/>
</g>
<!-- Node5 -->
<g id="node5" class="node"><title>Node5</title>
<g id="a_node5"><a xlink:href="classMWWorld_1_1Class.html#a288815e0879a88ccd87b4871be64202b" target="_top" xlink:title="MWWorld::Class::getNpcStats">
<polygon fill="white" stroke="black" points="420,-1059.5 420,-1078.5 564,-1078.5 564,-1059.5 420,-1059.5"/>
<text text-anchor="middle" x="492" y="-1066.5" font-family="FreeSans" font-size="10.00">MWWorld::Class::getNpcStats</text>
</a>
</g>
</g>
<!-- Node1&#45;&gt;Node5 -->
<g id="edge4" class="edge"><title>Node1&#45;&gt;Node5</title>
<path fill="none" stroke="midnightblue" d="M98.1201,-638.177C138.384,-688.698 271.075,-856.03 376,-998 392.49,-1020.31 389.133,-1033.29 412,-1049 415.542,-1051.43 419.355,-1053.57 423.326,-1055.45"/>
<polygon fill="midnightblue" stroke="midnightblue" points="422.245,-1058.79 432.824,-1059.38 424.92,-1052.32 422.245,-1058.79"/>
</g>
<!-- Node6 -->
<g id="node6" class="node"><title>Node6</title>
<g id="a_node6"><a xlink:href="namespaceMWMechanics.html#a90645fe67f9b8b658452cd004d2cbb65" target="_top" xlink:title="MWMechanics::getPlayer">
<polygon fill="white" stroke="black" points="429.5,-414.5 429.5,-433.5 554.5,-433.5 554.5,-414.5 429.5,-414.5"/>
<text text-anchor="middle" x="492" y="-421.5" font-family="FreeSans" font-size="10.00">MWMechanics::getPlayer</text>
</a>
</g>
</g>
<!-- Node1&#45;&gt;Node6 -->
<g id="edge5" class="edge"><title>Node1&#45;&gt;Node6</title>
<path fill="none" stroke="midnightblue" d="M169.75,-627.892C244.255,-630.384 345.942,-628.613 376,-603 429.83,-557.131 363.688,-499.649 412,-448 415.58,-444.173 419.749,-440.949 424.266,-438.234"/>
<polygon fill="midnightblue" stroke="midnightblue" points="425.999,-441.279 433.317,-433.618 422.818,-435.044 425.999,-441.279"/>
</g>
<!-- Node10 -->
<g id="node10" class="node"><title>Node10</title>
<g id="a_node10"><a xlink:href="classMWMechanics_1_1MechanicsManager.html#abb57fd9c23912f213038666f1b4f89e2" target="_top" xlink:title="Calculate the diposition of an NPC toward the player. ">
<polygon fill="white" stroke="black" points="206.5,-652 206.5,-682 375.5,-682 375.5,-652 206.5,-652"/>
<text text-anchor="start" x="214.5" y="-670" font-family="FreeSans" font-size="10.00">MWMechanics::MechanicsManager</text>
<text text-anchor="middle" x="291" y="-659" font-family="FreeSans" font-size="10.00">::getDerivedDisposition</text>
</a>
</g>
</g>
<!-- Node1&#45;&gt;Node10 -->
<g id="edge9" class="edge"><title>Node1&#45;&gt;Node10</title>
<path fill="none" stroke="midnightblue" d="M155.635,-638.019C173.262,-641.821 192.328,-645.934 210.407,-649.833"/>
<polygon fill="midnightblue" stroke="midnightblue" points="209.82,-653.287 220.333,-651.974 211.296,-646.444 209.82,-653.287"/>
</g>
<!-- Node29 -->
<g id="node29" class="node"><title>Node29</title>
<g id="a_node29"><a xlink:href="classMWMechanics_1_1NpcStats.html#ab1e372c44ef1d0159a4c5041ca5a0b57" target="_top" xlink:title="MWMechanics::NpcStats\l::getSkill">
<polygon fill="white" stroke="black" points="228.5,-564 228.5,-594 353.5,-594 353.5,-564 228.5,-564"/>
<text text-anchor="start" x="236.5" y="-582" font-family="FreeSans" font-size="10.00">MWMechanics::NpcStats</text>
<text text-anchor="middle" x="291" y="-571" font-family="FreeSans" font-size="10.00">::getSkill</text>
</a>
</g>
</g>
<!-- Node1&#45;&gt;Node29 -->
<g id="edge35" class="edge"><title>Node1&#45;&gt;Node29</title>
<path fill="none" stroke="midnightblue" d="M155.635,-607.981C175.87,-603.616 198.001,-598.843 218.358,-594.452"/>
<polygon fill="midnightblue" stroke="midnightblue" points="219.155,-597.861 228.192,-592.331 217.679,-591.018 219.155,-597.861"/>
</g>
<!-- Node30 -->
<g id="node30" class="node"><title>Node30</title>
<g id="a_node30"><a xlink:href="classMWMechanics_1_1AttributeValue.html#a3e84af12530d0e2cf3a45b25fa9b4fc8" target="_top" xlink:title="MWMechanics::AttributeValue\l::getModified">
<polygon fill="white" stroke="black" points="218,-515 218,-545 364,-545 364,-515 218,-515"/>
<text text-anchor="start" x="226" y="-533" font-family="FreeSans" font-size="10.00">MWMechanics::AttributeValue</text>
<text text-anchor="middle" x="291" y="-522" font-family="FreeSans" font-size="10.00">::getModified</text>
</a>
</g>
</g>
<!-- Node1&#45;&gt;Node30 -->
<g id="edge36" class="edge"><title>Node1&#45;&gt;Node30</title>
<path fill="none" stroke="midnightblue" d="M108.589,-607.772C132.089,-592.475 170.364,-569.069 206,-554 210.682,-552.02 215.578,-550.147 220.551,-548.388"/>
<polygon fill="midnightblue" stroke="midnightblue" points="221.817,-551.655 230.175,-545.144 219.581,-545.021 221.817,-551.655"/>
</g>
<!-- Node31 -->
<g id="node31" class="node"><title>Node31</title>
<g id="a_node31"><a xlink:href="classMWMechanics_1_1CreatureStats.html#a4c54d8a712b5e278a0931b368b6bd0df" target="_top" xlink:title="MWMechanics::CreatureStats\l::getAttribute">
<polygon fill="white" stroke="black" points="219,-466 219,-496 363,-496 363,-466 219,-466"/>
<text text-anchor="start" x="227" y="-484" font-family="FreeSans" font-size="10.00">MWMechanics::CreatureStats</text>
<text text-anchor="middle" x="291" y="-473" font-family="FreeSans" font-size="10.00">::getAttribute</text>
</a>
</g>
</g>
<!-- Node1&#45;&gt;Node31 -->
<g id="edge37" class="edge"><title>Node1&#45;&gt;Node31</title>
<path fill="none" stroke="midnightblue" d="M97.1652,-607.9C116.522,-582.793 158.793,-532.51 206,-505 209.041,-503.228 212.22,-501.58 215.488,-500.048"/>
<polygon fill="midnightblue" stroke="midnightblue" points="217.07,-503.179 224.892,-496.032 214.321,-496.741 217.07,-503.179"/>
</g>
<!-- Node32 -->
<g id="node32" class="node"><title>Node32</title>
<g id="a_node32"><a xlink:href="classMWMechanics_1_1CreatureStats.html#a50da4580fdbd7e4f6daec42d92811154" target="_top" xlink:title="Return effective fatigue. ">
<polygon fill="white" stroke="black" points="219,-197 219,-227 363,-227 363,-197 219,-197"/>
<text text-anchor="start" x="227" y="-215" font-family="FreeSans" font-size="10.00">MWMechanics::CreatureStats</text>
<text text-anchor="middle" x="291" y="-204" font-family="FreeSans" font-size="10.00">::getFatigueTerm</text>
</a>
</g>
</g>
<!-- Node1&#45;&gt;Node32 -->
<g id="edge38" class="edge"><title>Node1&#45;&gt;Node32</title>
<path fill="none" stroke="midnightblue" d="M93.5024,-607.885C124.116,-546.207 239.754,-313.23 277.79,-236.599"/>
<polygon fill="midnightblue" stroke="midnightblue" points="281.118,-237.766 282.429,-227.253 274.848,-234.654 281.118,-237.766"/>
</g>
<!-- Node3 -->
<g id="node3" class="node"><title>Node3</title>
<g id="a_node3"><a xlink:href="classMWWorld_1_1Class.html#a8c909186c99e13e0b819437ba2f7ee1d" target="_top" xlink:title="MWWorld::Class::getTypeName">
<polygon fill="white" stroke="black" points="788.5,-862.5 788.5,-881.5 939.5,-881.5 939.5,-862.5 788.5,-862.5"/>
<text text-anchor="middle" x="864" y="-869.5" font-family="FreeSans" font-size="10.00">MWWorld::Class::getTypeName</text>
</a>
</g>
</g>
<!-- Node2&#45;&gt;Node3 -->
<g id="edge2" class="edge"><title>Node2&#45;&gt;Node3</title>
<path fill="none" stroke="midnightblue" d="M750.066,-872C759.223,-872 768.695,-872 778.081,-872"/>
<polygon fill="midnightblue" stroke="midnightblue" points="778.212,-875.5 788.212,-872 778.212,-868.5 778.212,-875.5"/>
</g>
<!-- Node7 -->
<g id="node7" class="node"><title>Node7</title>
<g id="a_node7"><a xlink:href="classMWBase_1_1Environment.html#a73f12633762b049c03c80fe215873faa" target="_top" xlink:title="Return instance of this class. ">
<polygon fill="white" stroke="black" points="614.5,-370.5 614.5,-389.5 745.5,-389.5 745.5,-370.5 614.5,-370.5"/>
<text text-anchor="middle" x="680" y="-377.5" font-family="FreeSans" font-size="10.00">MWBase::Environment::get</text>
</a>
</g>
</g>
<!-- Node6&#45;&gt;Node7 -->
<g id="edge6" class="edge"><title>Node6&#45;&gt;Node7</title>
<path fill="none" stroke="midnightblue" d="M533.359,-414.453C561.389,-407.822 598.932,-398.941 628.879,-391.857"/>
<polygon fill="midnightblue" stroke="midnightblue" points="629.794,-395.237 638.72,-389.529 628.182,-388.425 629.794,-395.237"/>
</g>
<!-- Node8 -->
<g id="node8" class="node"><title>Node8</title>
<g id="a_node8"><a xlink:href="classMWBase_1_1Environment.html#ae14e166d8f5ff8629be119333d502660" target="_top" xlink:title="MWBase::Environment\l::getWorld">
<polygon fill="white" stroke="black" points="623.5,-447 623.5,-477 736.5,-477 736.5,-447 623.5,-447"/>
<text text-anchor="start" x="631.5" y="-465" font-family="FreeSans" font-size="10.00">MWBase::Environment</text>
<text text-anchor="middle" x="680" y="-454" font-family="FreeSans" font-size="10.00">::getWorld</text>
</a>
</g>
</g>
<!-- Node6&#45;&gt;Node8 -->
<g id="edge7" class="edge"><title>Node6&#45;&gt;Node8</title>
<path fill="none" stroke="midnightblue" d="M539.936,-433.589C562.258,-438.15 589.318,-443.678 613.613,-448.641"/>
<polygon fill="midnightblue" stroke="midnightblue" points="612.979,-452.084 623.477,-450.657 614.38,-445.226 612.979,-452.084"/>
</g>
<!-- Node9 -->
<g id="node9" class="node"><title>Node9</title>
<g id="a_node9"><a xlink:href="classMWBase_1_1World.html#a95005e26dcb7b1f6dc906eb518b95762" target="_top" xlink:title="MWBase::World::getPlayerPtr">
<polygon fill="white" stroke="black" points="608.5,-408.5 608.5,-427.5 751.5,-427.5 751.5,-408.5 608.5,-408.5"/>
<text text-anchor="middle" x="680" y="-415.5" font-family="FreeSans" font-size="10.00">MWBase::World::getPlayerPtr</text>
</a>
</g>
</g>
<!-- Node6&#45;&gt;Node9 -->
<g id="edge8" class="edge"><title>Node6&#45;&gt;Node9</title>
<path fill="none" stroke="midnightblue" d="M554.677,-422.01C568.682,-421.559 583.76,-421.072 598.419,-420.599"/>
<polygon fill="midnightblue" stroke="midnightblue" points="598.6,-424.095 608.482,-420.275 598.374,-417.099 598.6,-424.095"/>
</g>
<!-- Node10&#45;&gt;Node4 -->
<g id="edge10" class="edge"><title>Node10&#45;&gt;Node4</title>
<path fill="none" stroke="midnightblue" d="M295.919,-682.377C314.845,-756.407 396.505,-1073.14 412,-1088 415.566,-1091.42 419.636,-1094.26 424.004,-1096.62"/>
<polygon fill="midnightblue" stroke="midnightblue" points="422.768,-1099.9 433.325,-1100.8 425.634,-1093.51 422.768,-1099.9"/>
</g>
<!-- Node10&#45;&gt;Node5 -->
<g id="edge11" class="edge"><title>Node10&#45;&gt;Node5</title>
<path fill="none" stroke="midnightblue" d="M309.176,-682.006C328.927,-700.364 360.603,-733.419 376,-769 425.829,-884.15 328.764,-955.116 412,-1049 413.408,-1050.59 414.922,-1052.06 416.525,-1053.42"/>
<polygon fill="midnightblue" stroke="midnightblue" points="414.972,-1056.6 425.202,-1059.36 418.925,-1050.82 414.972,-1056.6"/>
</g>
<!-- Node10&#45;&gt;Node6 -->
<g id="edge15" class="edge"><title>Node10&#45;&gt;Node6</title>
<path fill="none" stroke="midnightblue" d="M357.035,-651.864C364.188,-647.987 370.763,-643.117 376,-637 431.608,-572.041 354.846,-511.604 412,-448 415.356,-444.265 419.273,-441.103 423.535,-438.427"/>
<polygon fill="midnightblue" stroke="midnightblue" points="425.489,-441.353 432.696,-433.588 422.219,-435.163 425.489,-441.353"/>
</g>
<!-- Node10&#45;&gt;Node7 -->
<g id="edge16" class="edge"><title>Node10&#45;&gt;Node7</title>
<path fill="none" stroke="midnightblue" d="M321.891,-651.766C340.415,-640.747 363.068,-624.103 376,-603 422.734,-526.738 346.079,-465.452 412,-405 439.171,-380.083 534.907,-376.427 603.976,-377.263"/>
<polygon fill="midnightblue" stroke="midnightblue" points="604.336,-380.769 614.39,-377.425 604.445,-373.77 604.336,-380.769"/>
</g>
<!-- Node10&#45;&gt;Node8 -->
<g id="edge17" class="edge"><title>Node10&#45;&gt;Node8</title>
<path fill="none" stroke="midnightblue" d="M346.228,-651.834C357.393,-646.51 368.128,-639.413 376,-630 419.705,-577.739 359.998,-525.013 412,-481 441.269,-456.227 543.757,-455.498 612.901,-458.108"/>
<polygon fill="midnightblue" stroke="midnightblue" points="613.137,-461.62 623.272,-458.533 613.424,-454.626 613.137,-461.62"/>
</g>
<!-- Node11 -->
<g id="node11" class="node"><title>Node11</title>
<g id="a_node11"><a xlink:href="classMWMechanics_1_1NpcStats.html#a6c7df19cbd554695c0b3c94272e75db4" target="_top" xlink:title="MWMechanics::NpcStats\l::getBaseDisposition">
<polygon fill="white" stroke="black" points="429.5,-1010 429.5,-1040 554.5,-1040 554.5,-1010 429.5,-1010"/>
<text text-anchor="start" x="437.5" y="-1028" font-family="FreeSans" font-size="10.00">MWMechanics::NpcStats</text>
<text text-anchor="middle" x="492" y="-1017" font-family="FreeSans" font-size="10.00">::getBaseDisposition</text>
</a>
</g>
</g>
<!-- Node10&#45;&gt;Node11 -->
<g id="edge12" class="edge"><title>Node10&#45;&gt;Node11</title>
<path fill="none" stroke="midnightblue" d="M309.011,-682.078C328.605,-700.506 360.129,-733.628 376,-769 418.536,-863.801 344.313,-921.165 412,-1000 414.539,-1002.96 417.425,-1005.57 420.557,-1007.87"/>
<polygon fill="midnightblue" stroke="midnightblue" points="419.001,-1011.03 429.351,-1013.29 422.672,-1005.07 419.001,-1011.03"/>
</g>
<!-- Node12 -->
<g id="node12" class="node"><title>Node12</title>
<g id="a_node12"><a xlink:href="classMWWorld_1_1Ptr.html#a46a6588d17f16b3047b3d87d1b20eae7" target="_top" xlink:title="MWWorld::Ptr::get">
<polygon fill="white" stroke="black" points="445,-589.5 445,-608.5 539,-608.5 539,-589.5 445,-589.5"/>
<text text-anchor="middle" x="492" y="-596.5" font-family="FreeSans" font-size="10.00">MWWorld::Ptr::get</text>
</a>
</g>
</g>
<!-- Node10&#45;&gt;Node12 -->
<g id="edge13" class="edge"><title>Node10&#45;&gt;Node12</title>
<path fill="none" stroke="midnightblue" d="M337.802,-651.975C350.329,-647.506 363.809,-642.361 376,-637 392.561,-629.717 395.073,-624.387 412,-618 419.331,-615.234 427.2,-612.773 435.028,-610.616"/>
<polygon fill="midnightblue" stroke="midnightblue" points="436.087,-613.957 444.879,-608.046 434.319,-607.184 436.087,-613.957"/>
</g>
<!-- Node13 -->
<g id="node13" class="node"><title>Node13</title>
<g id="a_node13"><a xlink:href="classMWBase_1_1World.html#a2ba0910cb944786065e37dc5f3fcda35" target="_top" xlink:title="MWBase::World::getStore">
<polygon fill="white" stroke="black" points="429,-262.5 429,-281.5 555,-281.5 555,-262.5 429,-262.5"/>
<text text-anchor="middle" x="492" y="-269.5" font-family="FreeSans" font-size="10.00">MWBase::World::getStore</text>
</a>
</g>
</g>
<!-- Node10&#45;&gt;Node13 -->
<g id="edge18" class="edge"><title>Node10&#45;&gt;Node13</title>
<path fill="none" stroke="midnightblue" d="M322.771,-651.797C341.405,-640.887 363.851,-624.353 376,-603 445.03,-481.677 319.453,-395.497 412,-291 414.411,-288.277 417.138,-285.911 420.092,-283.855"/>
<polygon fill="midnightblue" stroke="midnightblue" points="421.963,-286.818 428.948,-278.852 418.52,-280.724 421.963,-286.818"/>
</g>
<!-- Node14 -->
<g id="node14" class="node"><title>Node14</title>
<g id="a_node14"><a xlink:href="classMWWorld_1_1ESMStore.html#a94ffe201bd012dd41fcdabfb35c69e24" target="_top" xlink:title="MWWorld::ESMStore::get">
<polygon fill="white" stroke="black" points="429.5,-338.5 429.5,-357.5 554.5,-357.5 554.5,-338.5 429.5,-338.5"/>
<text text-anchor="middle" x="492" y="-345.5" font-family="FreeSans" font-size="10.00">MWWorld::ESMStore::get</text>
</a>
</g>
</g>
<!-- Node10&#45;&gt;Node14 -->
<g id="edge19" class="edge"><title>Node10&#45;&gt;Node14</title>
<path fill="none" stroke="midnightblue" d="M322.07,-651.874C340.668,-640.9 363.335,-624.265 376,-603 429.168,-513.728 343.859,-450.443 412,-372 415.237,-368.273 419.033,-365.115 423.179,-362.44"/>
<polygon fill="midnightblue" stroke="midnightblue" points="424.988,-365.44 432.112,-357.599 421.653,-359.286 424.988,-365.44"/>
</g>
<!-- Node15 -->
<g id="node15" class="node"><title>Node15</title>
<g id="a_node15"><a xlink:href="classMWWorld_1_1Store.html#a3ca0f52b3814776b34ecfea3a44ea5ab" target="_top" xlink:title="MWWorld::Store::find">
<polygon fill="white" stroke="black" points="439,-300.5 439,-319.5 545,-319.5 545,-300.5 439,-300.5"/>
<text text-anchor="middle" x="492" y="-307.5" font-family="FreeSans" font-size="10.00">MWWorld::Store::find</text>
</a>
</g>
</g>
<!-- Node10&#45;&gt;Node15 -->
<g id="edge20" class="edge"><title>Node10&#45;&gt;Node15</title>
<path fill="none" stroke="midnightblue" d="M322.241,-651.975C340.91,-641.042 363.591,-624.415 376,-603 437.58,-496.728 329.845,-420.304 412,-329 416.755,-323.716 422.698,-319.776 429.179,-316.856"/>
<polygon fill="midnightblue" stroke="midnightblue" points="430.793,-319.992 438.982,-313.269 428.388,-313.418 430.793,-319.992"/>
</g>
<!-- Node16 -->
<g id="node16" class="node"><title>Node16</title>
<g id="a_node16"><a xlink:href="structESM_1_1GameSetting.html#adf86d0e6166ce3e4ec8a75ab31380344" target="_top" xlink:title="Throws an exception if GMST is not of type int or float. ">
<polygon fill="white" stroke="black" points="422.5,-224.5 422.5,-243.5 561.5,-243.5 561.5,-224.5 422.5,-224.5"/>
<text text-anchor="middle" x="492" y="-231.5" font-family="FreeSans" font-size="10.00">ESM::GameSetting::getFloat</text>
</a>
</g>
</g>
<!-- Node10&#45;&gt;Node16 -->
<g id="edge21" class="edge"><title>Node10&#45;&gt;Node16</title>
<path fill="none" stroke="midnightblue" d="M322.861,-651.848C341.531,-640.958 363.983,-624.428 376,-603 414.245,-534.804 360.524,-311.853 412,-253 413.045,-251.805 414.15,-250.679 415.309,-249.618"/>
<polygon fill="midnightblue" stroke="midnightblue" points="417.652,-252.24 423.655,-243.51 413.518,-246.591 417.652,-252.24"/>
</g>
<!-- Node18 -->
<g id="node18" class="node"><title>Node18</title>
<g id="a_node18"><a xlink:href="classMisc_1_1StringUtils.html#a0f8cb0ac134191ba8417f74ab7dc4de6" target="_top" xlink:title="Misc::StringUtils::\lciEqual">
<polygon fill="white" stroke="black" points="447,-491 447,-521 537,-521 537,-491 447,-491"/>
<text text-anchor="start" x="455" y="-509" font-family="FreeSans" font-size="10.00">Misc::StringUtils::</text>
<text text-anchor="middle" x="492" y="-498" font-family="FreeSans" font-size="10.00">ciEqual</text>
</a>
</g>
</g>
<!-- Node10&#45;&gt;Node18 -->
<g id="edge23" class="edge"><title>Node10&#45;&gt;Node18</title>
<path fill="none" stroke="midnightblue" d="M355,-651.8C362.753,-647.929 370.033,-643.078 376,-637 411.15,-601.195 375.999,-564.95 412,-530 419.023,-523.182 427.919,-518.294 437.19,-514.791"/>
<polygon fill="midnightblue" stroke="midnightblue" points="438.501,-518.045 446.925,-511.619 436.333,-511.39 438.501,-518.045"/>
</g>
<!-- Node20 -->
<g id="node20" class="node"><title>Node20</title>
<g id="a_node20"><a xlink:href="classMWWorld_1_1Class.html#af1283dc2b448d03aa04d0f9deff0370c" target="_top" xlink:title="MWWorld::Class::getPrimary\lFaction">
<polygon fill="white" stroke="black" points="423.5,-961 423.5,-991 560.5,-991 560.5,-961 423.5,-961"/>
<text text-anchor="start" x="431.5" y="-979" font-family="FreeSans" font-size="10.00">MWWorld::Class::getPrimary</text>
<text text-anchor="middle" x="492" y="-968" font-family="FreeSans" font-size="10.00">Faction</text>
</a>
</g>
</g>
<!-- Node10&#45;&gt;Node20 -->
<g id="edge25" class="edge"><title>Node10&#45;&gt;Node20</title>
<path fill="none" stroke="midnightblue" d="M308.763,-682.193C328.118,-700.73 359.413,-733.958 376,-769 411.278,-843.528 357.025,-889.545 412,-951 413.187,-952.327 414.444,-953.584 415.761,-954.775"/>
<polygon fill="midnightblue" stroke="midnightblue" points="413.802,-957.681 423.897,-960.896 418.01,-952.087 413.802,-957.681"/>
</g>
<!-- Node21 -->
<g id="node21" class="node"><title>Node21</title>
<g id="a_node21"><a xlink:href="classMisc_1_1StringUtils.html#a249dcf40e5ef16618daf8bf5d2098c54" target="_top" xlink:title="Transforms input string to lower case w/o copy. ">
<polygon fill="white" stroke="black" points="445,-540 445,-570 539,-570 539,-540 445,-540"/>
<text text-anchor="start" x="453" y="-558" font-family="FreeSans" font-size="10.00">Misc::StringUtils::</text>
<text text-anchor="middle" x="492" y="-547" font-family="FreeSans" font-size="10.00">lowerCaseInPlace</text>
</a>
</g>
</g>
<!-- Node10&#45;&gt;Node21 -->
<g id="edge26" class="edge"><title>Node10&#45;&gt;Node21</title>
<path fill="none" stroke="midnightblue" d="M350.258,-651.955C359.431,-648.012 368.385,-643.098 376,-637 399.388,-618.27 388.274,-598.299 412,-580 418.952,-574.638 427.08,-570.412 435.427,-567.084"/>
<polygon fill="midnightblue" stroke="midnightblue" points="436.657,-570.361 444.893,-563.697 434.299,-563.771 436.657,-570.361"/>
</g>
<!-- Node22 -->
<g id="node22" class="node"><title>Node22</title>
<g id="a_node22"><a xlink:href="classMWBase_1_1Environment.html#a772a5fed081fca8ac127ce997c5fa9a3" target="_top" xlink:title="MWBase::Environment\l::getDialogueManager">
<polygon fill="white" stroke="black" points="435.5,-912 435.5,-942 548.5,-942 548.5,-912 435.5,-912"/>
<text text-anchor="start" x="443.5" y="-930" font-family="FreeSans" font-size="10.00">MWBase::Environment</text>
<text text-anchor="middle" x="492" y="-919" font-family="FreeSans" font-size="10.00">::getDialogueManager</text>
</a>
</g>
</g>
<!-- Node10&#45;&gt;Node22 -->
<g id="edge28" class="edge"><title>Node10&#45;&gt;Node22</title>
<path fill="none" stroke="midnightblue" d="M308.012,-682.067C326.936,-700.738 358.108,-734.348 376,-769 404.096,-823.413 369.62,-857.795 412,-902 416.146,-906.324 421.033,-909.903 426.31,-912.864"/>
<polygon fill="midnightblue" stroke="midnightblue" points="424.971,-916.104 435.499,-917.289 428.008,-909.797 424.971,-916.104"/>
</g>
<!-- Node23 -->
<g id="node23" class="node"><title>Node23</title>
<g id="a_node23"><a xlink:href="classMWBase_1_1DialogueManager.html#a297ec9095755a34a31900e9a9d277cec" target="_top" xlink:title="MWBase::DialogueManager\l::getFactionReaction">
<polygon fill="white" stroke="black" points="424.5,-863 424.5,-893 559.5,-893 559.5,-863 424.5,-863"/>
<text text-anchor="start" x="432.5" y="-881" font-family="FreeSans" font-size="10.00">MWBase::DialogueManager</text>
<text text-anchor="middle" x="492" y="-870" font-family="FreeSans" font-size="10.00">::getFactionReaction</text>
</a>
</g>
</g>
<!-- Node10&#45;&gt;Node23 -->
<g id="edge29" class="edge"><title>Node10&#45;&gt;Node23</title>
<path fill="none" stroke="midnightblue" d="M306.885,-682.186C324.974,-701.239 355.6,-735.494 376,-769 397.123,-803.693 381.901,-825.726 412,-853 413.732,-854.57 415.563,-856.041 417.473,-857.42"/>
<polygon fill="midnightblue" stroke="midnightblue" points="415.948,-860.593 426.29,-862.892 419.64,-854.645 415.948,-860.593"/>
</g>
<!-- Node24 -->
<g id="node24" class="node"><title>Node24</title>
<g id="a_node24"><a xlink:href="classMWWorld_1_1Class.html#a5095a30e5baa5742b3d393610fd73d60" target="_top" xlink:title="MWWorld::Class::getCreature\lStats">
<polygon fill="white" stroke="black" points="421.5,-814 421.5,-844 562.5,-844 562.5,-814 421.5,-814"/>
<text text-anchor="start" x="429.5" y="-832" font-family="FreeSans" font-size="10.00">MWWorld::Class::getCreature</text>
<text text-anchor="middle" x="492" y="-821" font-family="FreeSans" font-size="10.00">Stats</text>
</a>
</g>
</g>
<!-- Node10&#45;&gt;Node24 -->
<g id="edge30" class="edge"><title>Node10&#45;&gt;Node24</title>
<path fill="none" stroke="midnightblue" d="M304.395,-682.05C332.309,-715.808 398.701,-795.307 412,-804 415.134,-806.049 418.448,-807.94 421.873,-809.683"/>
<polygon fill="midnightblue" stroke="midnightblue" points="420.601,-812.951 431.148,-813.962 423.534,-806.595 420.601,-812.951"/>
</g>
<!-- Node25 -->
<g id="node25" class="node"><title>Node25</title>
<g id="a_node25"><a xlink:href="classMWMechanics_1_1CreatureStats.html#a2b7019ffe2ea9ecaace020bd12845e68" target="_top" xlink:title="MWMechanics::CreatureStats\l::getMagicEffects">
<polygon fill="white" stroke="black" points="420,-765 420,-795 564,-795 564,-765 420,-765"/>
<text text-anchor="start" x="428" y="-783" font-family="FreeSans" font-size="10.00">MWMechanics::CreatureStats</text>
<text text-anchor="middle" x="492" y="-772" font-family="FreeSans" font-size="10.00">::getMagicEffects</text>
</a>
</g>
</g>
<!-- Node10&#45;&gt;Node25 -->
<g id="edge31" class="edge"><title>Node10&#45;&gt;Node25</title>
<path fill="none" stroke="midnightblue" d="M308.71,-682.041C330.883,-701.314 371.914,-734.657 412,-755 416.342,-757.203 420.916,-759.261 425.586,-761.173"/>
<polygon fill="midnightblue" stroke="midnightblue" points="424.671,-764.571 435.261,-764.893 427.183,-758.037 424.671,-764.571"/>
</g>
<!-- Node26 -->
<g id="node26" class="node"><title>Node26</title>
<g id="a_node26"><a xlink:href="classMWMechanics_1_1MagicEffects.html#aa9771d1e0e2d3fa1378fc3bb0c338a28" target="_top" xlink:title="This function can safely be used for keys that are not present. ">
<polygon fill="white" stroke="black" points="413,-726.5 413,-745.5 571,-745.5 571,-726.5 413,-726.5"/>
<text text-anchor="middle" x="492" y="-733.5" font-family="FreeSans" font-size="10.00">MWMechanics::MagicEffects::get</text>
</a>
</g>
</g>
<!-- Node10&#45;&gt;Node26 -->
<g id="edge32" class="edge"><title>Node10&#45;&gt;Node26</title>
<path fill="none" stroke="midnightblue" d="M325.153,-682.001C348.99,-692.424 382.073,-706.155 412,-716 420.685,-718.857 430.02,-721.546 439.123,-723.97"/>
<polygon fill="midnightblue" stroke="midnightblue" points="438.309,-727.375 448.867,-726.492 440.063,-720.598 438.309,-727.375"/>
</g>
<!-- Node27 -->
<g id="node27" class="node"><title>Node27</title>
<g id="a_node27"><a xlink:href="structMWMechanics_1_1EffectParam.html#a1bb9e5f90a32bab2fa1d7e5d08360a51" target="_top" xlink:title="Get the total magnitude including base and modifier. ">
<polygon fill="white" stroke="black" points="423.5,-677 423.5,-707 560.5,-707 560.5,-677 423.5,-677"/>
<text text-anchor="start" x="431.5" y="-695" font-family="FreeSans" font-size="10.00">MWMechanics::EffectParam</text>
<text text-anchor="middle" x="492" y="-684" font-family="FreeSans" font-size="10.00">::getMagnitude</text>
</a>
</g>
</g>
<!-- Node10&#45;&gt;Node27 -->
<g id="edge33" class="edge"><title>Node10&#45;&gt;Node27</title>
<path fill="none" stroke="midnightblue" d="M375.529,-677.494C387.994,-679.059 400.801,-680.669 413.143,-682.219"/>
<polygon fill="midnightblue" stroke="midnightblue" points="413.023,-685.731 423.381,-683.505 413.896,-678.786 413.023,-685.731"/>
</g>
<!-- Node28 -->
<g id="node28" class="node"><title>Node28</title>
<g id="a_node28"><a xlink:href="classMWBase_1_1DialogueManager.html#a983111f847f6fdbc0e0b619ef1cabeec" target="_top" xlink:title="MWBase::DialogueManager\l::getTemporaryDispositionChange">
<polygon fill="white" stroke="black" points="412,-628 412,-658 572,-658 572,-628 412,-628"/>
<text text-anchor="start" x="420" y="-646" font-family="FreeSans" font-size="10.00">MWBase::DialogueManager</text>
<text text-anchor="middle" x="492" y="-635" font-family="FreeSans" font-size="10.00">::getTemporaryDispositionChange</text>
</a>
</g>
</g>
<!-- Node10&#45;&gt;Node28 -->
<g id="edge34" class="edge"><title>Node10&#45;&gt;Node28</title>
<path fill="none" stroke="midnightblue" d="M375.529,-656.926C384.168,-655.884 392.971,-654.823 401.67,-653.773"/>
<polygon fill="midnightblue" stroke="midnightblue" points="402.309,-657.222 411.818,-652.55 401.471,-650.272 402.309,-657.222"/>
</g>
<!-- Node12&#45;&gt;Node2 -->
<g id="edge14" class="edge"><title>Node12&#45;&gt;Node2</title>
<path fill="none" stroke="midnightblue" d="M539.011,-602.619C550.804,-605.426 562.753,-610.147 572,-618 646.284,-681.086 670.096,-804.564 676.727,-852.408"/>
<polygon fill="midnightblue" stroke="midnightblue" points="673.263,-852.913 678.008,-862.387 680.206,-852.022 673.263,-852.913"/>
</g>
<!-- Node17 -->
<g id="node17" class="node"><title>Node17</title>
<g id="a_node17"><a xlink:href="classESM_1_1Variant.html#aea165a94a08dac002c27cdf5784fabc7" target="_top" xlink:title="Will throw an exception, if value can not be represented as a float value. ">
<polygon fill="white" stroke="black" points="624,-224.5 624,-243.5 736,-243.5 736,-224.5 624,-224.5"/>
<text text-anchor="middle" x="680" y="-231.5" font-family="FreeSans" font-size="10.00">ESM::Variant::getFloat</text>
</a>
</g>
</g>
<!-- Node16&#45;&gt;Node17 -->
<g id="edge22" class="edge"><title>Node16&#45;&gt;Node17</title>
<path fill="none" stroke="midnightblue" d="M561.731,-234C578.699,-234 596.827,-234 613.63,-234"/>
<polygon fill="midnightblue" stroke="midnightblue" points="613.9,-237.5 623.9,-234 613.9,-230.5 613.9,-237.5"/>
</g>
<!-- Node19 -->
<g id="node19" class="node"><title>Node19</title>
<g id="a_node19"><a xlink:href="classMisc_1_1StringUtils.html#a0759adb102842ee3bced227707eb6949" target="_top" xlink:title="Misc::StringUtils::\ltoLower">
<polygon fill="white" stroke="black" points="635,-518 635,-548 725,-548 725,-518 635,-518"/>
<text text-anchor="start" x="643" y="-536" font-family="FreeSans" font-size="10.00">Misc::StringUtils::</text>
<text text-anchor="middle" x="680" y="-525" font-family="FreeSans" font-size="10.00">toLower</text>
</a>
</g>
</g>
<!-- Node18&#45;&gt;Node19 -->
<g id="edge24" class="edge"><title>Node18&#45;&gt;Node19</title>
<path fill="none" stroke="midnightblue" d="M537.079,-512.399C563.391,-516.218 597.005,-521.098 624.915,-525.149"/>
<polygon fill="midnightblue" stroke="midnightblue" points="624.516,-528.628 634.915,-526.601 625.522,-521.7 624.516,-528.628"/>
</g>
<!-- Node21&#45;&gt;Node19 -->
<g id="edge27" class="edge"><title>Node21&#45;&gt;Node19</title>
<path fill="none" stroke="midnightblue" d="M539.456,-549.505C565.313,-546.447 597.637,-542.624 624.662,-539.427"/>
<polygon fill="midnightblue" stroke="midnightblue" points="625.216,-542.886 634.735,-538.236 624.393,-535.935 625.216,-542.886"/>
</g>
<!-- Node32&#45;&gt;Node7 -->
<g id="edge42" class="edge"><title>Node32&#45;&gt;Node7</title>
<path fill="none" stroke="midnightblue" d="M300.392,-196.691C317.156,-167.923 357.877,-106.573 412,-83 477.196,-54.6047 516.753,-38.2274 572,-83 632.001,-131.626 580.849,-180.699 608,-253 623.444,-294.127 650.672,-337.987 666.545,-361.887"/>
<polygon fill="midnightblue" stroke="midnightblue" points="663.721,-363.959 672.212,-370.296 669.526,-360.047 663.721,-363.959"/>
</g>
<!-- Node32&#45;&gt;Node8 -->
<g id="edge43" class="edge"><title>Node32&#45;&gt;Node8</title>
<path fill="none" stroke="midnightblue" d="M304.469,-196.976C324.405,-174.273 365.928,-132.161 412,-116 479.102,-92.4617 518.989,-68.6017 572,-116 625.51,-163.845 563.315,-380.824 608,-437 609.945,-439.445 612.146,-441.651 614.538,-443.642"/>
<polygon fill="midnightblue" stroke="midnightblue" points="613.076,-446.881 623.312,-449.615 617.015,-441.095 613.076,-446.881"/>
</g>
<!-- Node32&#45;&gt;Node13 -->
<g id="edge44" class="edge"><title>Node32&#45;&gt;Node13</title>
<path fill="none" stroke="midnightblue" d="M333.072,-227.094C356.109,-235.291 385.466,-245.295 412,-253 420.465,-255.458 429.504,-257.848 438.332,-260.057"/>
<polygon fill="midnightblue" stroke="midnightblue" points="437.623,-263.487 448.169,-262.468 439.289,-256.688 437.623,-263.487"/>
</g>
<!-- Node32&#45;&gt;Node14 -->
<g id="edge45" class="edge"><title>Node32&#45;&gt;Node14</title>
<path fill="none" stroke="midnightblue" d="M303.072,-227.186C322.291,-252.396 364.365,-302.705 412,-329 416.18,-331.307 420.635,-333.336 425.22,-335.121"/>
<polygon fill="midnightblue" stroke="midnightblue" points="424.171,-338.462 434.766,-338.45 426.477,-331.852 424.171,-338.462"/>
</g>
<!-- Node32&#45;&gt;Node15 -->
<g id="edge46" class="edge"><title>Node32&#45;&gt;Node15</title>
<path fill="none" stroke="midnightblue" d="M310.357,-227.046C332.944,-244.83 373.097,-274.132 412,-291 417.775,-293.504 423.938,-295.713 430.177,-297.652"/>
<polygon fill="midnightblue" stroke="midnightblue" points="429.421,-301.077 440,-300.483 431.36,-294.351 429.421,-301.077"/>
</g>
<!-- Node32&#45;&gt;Node16 -->
<g id="edge47" class="edge"><title>Node32&#45;&gt;Node16</title>
<path fill="none" stroke="midnightblue" d="M363.001,-219.849C378.992,-221.617 396.056,-223.504 412.341,-225.304"/>
<polygon fill="midnightblue" stroke="midnightblue" points="412.039,-228.792 422.363,-226.412 412.808,-221.834 412.039,-228.792"/>
</g>
<!-- Node33 -->
<g id="node33" class="node"><title>Node33</title>
<g id="a_node33"><a xlink:href="classMWMechanics_1_1CreatureStats.html#ae962c8518e43e517e2aec4d89a5aafe2" target="_top" xlink:title="MWMechanics::CreatureStats\l::getFatigue">
<polygon fill="white" stroke="black" points="420,-0 420,-30 564,-30 564,-0 420,-0"/>
<text text-anchor="start" x="428" y="-18" font-family="FreeSans" font-size="10.00">MWMechanics::CreatureStats</text>
<text text-anchor="middle" x="492" y="-7" font-family="FreeSans" font-size="10.00">::getFatigue</text>
</a>
</g>
</g>
<!-- Node32&#45;&gt;Node33 -->
<g id="edge39" class="edge"><title>Node32&#45;&gt;Node33</title>
<path fill="none" stroke="midnightblue" d="M299.057,-196.802C314.819,-164.421 355.954,-88.0794 412,-45 417.114,-41.0689 422.802,-37.6032 428.716,-34.5589"/>
<polygon fill="midnightblue" stroke="midnightblue" points="430.591,-37.5447 438.145,-30.1158 427.607,-31.2125 430.591,-37.5447"/>
</g>
<!-- Node34 -->
<g id="node34" class="node"><title>Node34</title>
<g id="a_node34"><a xlink:href="classMWMechanics_1_1DynamicStat.html#a5341e59c91e5cc6782ef8f8fa1177bda" target="_top" xlink:title="MWMechanics::DynamicStat\l::getModified">
<polygon fill="white" stroke="black" points="422,-175 422,-205 562,-205 562,-175 422,-175"/>
<text text-anchor="start" x="430" y="-193" font-family="FreeSans" font-size="10.00">MWMechanics::DynamicStat</text>
<text text-anchor="middle" x="492" y="-182" font-family="FreeSans" font-size="10.00">::getModified</text>
</a>
</g>
</g>
<!-- Node32&#45;&gt;Node34 -->
<g id="edge40" class="edge"><title>Node32&#45;&gt;Node34</title>
<path fill="none" stroke="midnightblue" d="M363.001,-204.151C378.658,-202.42 395.344,-200.575 411.319,-198.809"/>
<polygon fill="midnightblue" stroke="midnightblue" points="412.142,-202.239 421.697,-197.662 411.373,-195.282 412.142,-202.239"/>
</g>
<!-- Node35 -->
<g id="node35" class="node"><title>Node35</title>
<g id="a_node35"><a xlink:href="classMWMechanics_1_1DynamicStat.html#a396a1a67b23dde7489b7afa6bcdc2dee" target="_top" xlink:title="MWMechanics::DynamicStat\l::getCurrent">
<polygon fill="white" stroke="black" points="422,-126 422,-156 562,-156 562,-126 422,-126"/>
<text text-anchor="start" x="430" y="-144" font-family="FreeSans" font-size="10.00">MWMechanics::DynamicStat</text>
<text text-anchor="middle" x="492" y="-133" font-family="FreeSans" font-size="10.00">::getCurrent</text>
</a>
</g>
</g>
<!-- Node32&#45;&gt;Node35 -->
<g id="edge41" class="edge"><title>Node32&#45;&gt;Node35</title>
<path fill="none" stroke="midnightblue" d="M328.222,-196.957C351.89,-187.341 383.571,-174.869 412,-165 417.639,-163.043 423.533,-161.087 429.451,-159.184"/>
<polygon fill="midnightblue" stroke="midnightblue" points="430.912,-162.393 439.392,-156.041 428.802,-155.719 430.912,-162.393"/>
</g>
</g>
</svg>
