<?xml version="1.0" encoding="UTF-8" standalone="no"?>
<!DOCTYPE svg PUBLIC "-//W3C//DTD SVG 1.1//EN"
 "http://www.w3.org/Graphics/SVG/1.1/DTD/svg11.dtd">
<!-- Generated by graphviz version 2.36.0 (20140111.2315)
 -->
<!-- Title: MWWorld::InventoryStore::isEquipped Pages: 1 -->
<svg width="786pt" height="283pt"
 viewBox="0.00 0.00 786.00 283.00" xmlns="http://www.w3.org/2000/svg" xmlns:xlink="http://www.w3.org/1999/xlink">
<g id="graph0" class="graph" transform="scale(1 1) rotate(0) translate(4 279)">
<title>MWWorld::InventoryStore::isEquipped</title>
<polygon fill="white" stroke="none" points="-4,4 -4,-279 782,-279 782,4 -4,4"/>
<!-- Node1 -->
<g id="node1" class="node"><title>Node1</title>
<polygon fill="#bfbfbf" stroke="black" points="0.5,-122 0.5,-152 125.5,-152 125.5,-122 0.5,-122"/>
<text text-anchor="start" x="8.5" y="-140" font-family="FreeSans" font-size="10.00">MWWorld::InventoryStore</text>
<text text-anchor="middle" x="63" y="-129" font-family="FreeSans" font-size="10.00">::isEquipped</text>
</g>
<!-- Node2 -->
<g id="node2" class="node"><title>Node2</title>
<g id="a_node2"><a xlink:href="classMWGui_1_1InventoryItemModel.html#a516d40dca86888fa06ee0456fe65b95d" target="_top" xlink:title="Rebuild the item model, this will invalidate existing model indices. ">
<polygon fill="white" stroke="black" points="162,-245 162,-275 300,-275 300,-245 162,-245"/>
<text text-anchor="start" x="170" y="-263" font-family="FreeSans" font-size="10.00">MWGui::InventoryItemModel</text>
<text text-anchor="middle" x="231" y="-252" font-family="FreeSans" font-size="10.00">::update</text>
</a>
</g>
</g>
<!-- Node1&#45;&gt;Node2 -->
<g id="edge1" class="edge"><title>Node1&#45;&gt;Node2</title>
<path fill="none" stroke="midnightblue" d="M82.0639,-160.154C100.209,-182.059 130.003,-214.543 162,-235 167.829,-238.726 174.291,-242.006 180.847,-244.858"/>
<polygon fill="midnightblue" stroke="midnightblue" points="84.7231,-157.877 75.6998,-152.324 79.2911,-162.292 84.7231,-157.877"/>
</g>
<!-- Node3 -->
<g id="node3" class="node"><title>Node3</title>
<g id="a_node3"><a xlink:href="classMWGui_1_1QuickKeysMenu.html#aa7c560a32efd714d9dc6859a4b31f537" target="_top" xlink:title="MWGui::QuickKeysMenu\l::activateQuickKey">
<polygon fill="white" stroke="black" points="169,-196 169,-226 293,-226 293,-196 169,-196"/>
<text text-anchor="start" x="177" y="-214" font-family="FreeSans" font-size="10.00">MWGui::QuickKeysMenu</text>
<text text-anchor="middle" x="231" y="-203" font-family="FreeSans" font-size="10.00">::activateQuickKey</text>
</a>
</g>
</g>
<!-- Node1&#45;&gt;Node3 -->
<g id="edge2" class="edge"><title>Node1&#45;&gt;Node3</title>
<path fill="none" stroke="midnightblue" d="M101.388,-156.921C119.473,-166.239 141.629,-177.195 162,-186 169.967,-189.443 178.579,-192.847 186.91,-195.982"/>
<polygon fill="midnightblue" stroke="midnightblue" points="102.821,-153.721 92.3338,-152.218 99.5946,-159.933 102.821,-153.721"/>
</g>
<!-- Node5 -->
<g id="node5" class="node"><title>Node5</title>
<g id="a_node5"><a xlink:href="classMWGui_1_1SpellModel.html#ada16c79f789884160c3f21fe0012da97" target="_top" xlink:title="MWGui::SpellModel::\lupdate">
<polygon fill="white" stroke="black" points="178,-147 178,-177 284,-177 284,-147 178,-147"/>
<text text-anchor="start" x="186" y="-165" font-family="FreeSans" font-size="10.00">MWGui::SpellModel::</text>
<text text-anchor="middle" x="231" y="-154" font-family="FreeSans" font-size="10.00">update</text>
</a>
</g>
</g>
<!-- Node1&#45;&gt;Node5 -->
<g id="edge4" class="edge"><title>Node1&#45;&gt;Node5</title>
<path fill="none" stroke="midnightblue" d="M135.983,-147.841C150.087,-149.965 164.624,-152.154 177.925,-154.157"/>
<polygon fill="midnightblue" stroke="midnightblue" points="136.222,-144.337 125.812,-146.309 135.18,-151.259 136.222,-144.337"/>
</g>
<!-- Node6 -->
<g id="node6" class="node"><title>Node6</title>
<g id="a_node6"><a xlink:href="classMWGui_1_1SpellWindow.html#a0456e57ed643afd53a8a2e16bd9a7ab4" target="_top" xlink:title="MWGui::SpellWindow\l::onEnchantedItemSelected">
<polygon fill="white" stroke="black" points="163.5,-98 163.5,-128 298.5,-128 298.5,-98 163.5,-98"/>
<text text-anchor="start" x="171.5" y="-116" font-family="FreeSans" font-size="10.00">MWGui::SpellWindow</text>
<text text-anchor="middle" x="231" y="-105" font-family="FreeSans" font-size="10.00">::onEnchantedItemSelected</text>
</a>
</g>
</g>
<!-- Node1&#45;&gt;Node6 -->
<g id="edge5" class="edge"><title>Node1&#45;&gt;Node6</title>
<path fill="none" stroke="midnightblue" d="M135.994,-126.591C145.1,-125.275 154.387,-123.932 163.404,-122.628"/>
<polygon fill="midnightblue" stroke="midnightblue" points="135.209,-123.168 125.812,-128.063 136.21,-130.096 135.209,-123.168"/>
</g>
<!-- Node11 -->
<g id="node11" class="node"><title>Node11</title>
<g id="a_node11"><a xlink:href="classMWGui_1_1TradeItemModel.html#a8fe1ae6eec86028012b13f38b47bdad4" target="_top" xlink:title="Rebuild the item model, this will invalidate existing model indices. ">
<polygon fill="white" stroke="black" points="169,-49 169,-79 293,-79 293,-49 169,-49"/>
<text text-anchor="start" x="177" y="-67" font-family="FreeSans" font-size="10.00">MWGui::TradeItemModel</text>
<text text-anchor="middle" x="231" y="-56" font-family="FreeSans" font-size="10.00">::update</text>
</a>
</g>
</g>
<!-- Node1&#45;&gt;Node11 -->
<g id="edge10" class="edge"><title>Node1&#45;&gt;Node11</title>
<path fill="none" stroke="midnightblue" d="M101.827,-117.34C119.847,-108.267 141.824,-97.6225 162,-89 169.981,-85.5893 178.599,-82.201 186.932,-79.0708"/>
<polygon fill="midnightblue" stroke="midnightblue" points="100.129,-114.276 92.7947,-121.922 103.296,-120.519 100.129,-114.276"/>
</g>
<!-- Node15 -->
<g id="node15" class="node"><title>Node15</title>
<g id="a_node15"><a xlink:href="classMWScript_1_1Misc_1_1OpDrop.html#a135cd08a33c5b7067bf7395c1ee228bb" target="_top" xlink:title="MWScript::Misc::OpDrop\l::execute">
<polygon fill="white" stroke="black" points="170,-0 170,-30 292,-30 292,-0 170,-0"/>
<text text-anchor="start" x="178" y="-18" font-family="FreeSans" font-size="10.00">MWScript::Misc::OpDrop</text>
<text text-anchor="middle" x="231" y="-7" font-family="FreeSans" font-size="10.00">::execute</text>
</a>
</g>
</g>
<!-- Node1&#45;&gt;Node15 -->
<g id="edge14" class="edge"><title>Node1&#45;&gt;Node15</title>
<path fill="none" stroke="midnightblue" d="M81.7015,-114.123C99.7729,-92.1473 129.69,-59.3622 162,-39 167.296,-35.6625 173.117,-32.7132 179.056,-30.1278"/>
<polygon fill="midnightblue" stroke="midnightblue" points="78.9282,-111.987 75.3752,-121.968 84.3771,-116.381 78.9282,-111.987"/>
</g>
<!-- Node4 -->
<g id="node4" class="node"><title>Node4</title>
<g id="a_node4"><a xlink:href="classMWGui_1_1WindowManager.html#a94e1ffc2b2ee425889ffe260d7f05fdc" target="_top" xlink:title="MWGui::WindowManager\l::activateQuickKey">
<polygon fill="white" stroke="black" points="336.5,-196 336.5,-226 461.5,-226 461.5,-196 336.5,-196"/>
<text text-anchor="start" x="344.5" y="-214" font-family="FreeSans" font-size="10.00">MWGui::WindowManager</text>
<text text-anchor="middle" x="399" y="-203" font-family="FreeSans" font-size="10.00">::activateQuickKey</text>
</a>
</g>
</g>
<!-- Node3&#45;&gt;Node4 -->
<g id="edge3" class="edge"><title>Node3&#45;&gt;Node4</title>
<path fill="none" stroke="midnightblue" d="M303.672,-211C314.558,-211 325.709,-211 336.357,-211"/>
<polygon fill="midnightblue" stroke="midnightblue" points="303.341,-207.5 293.341,-211 303.341,-214.5 303.341,-207.5"/>
</g>
<!-- Node7 -->
<g id="node7" class="node"><title>Node7</title>
<g id="a_node7"><a xlink:href="classMWGui_1_1SpellWindow.html#ae02dae08beb91af85c48c6737332c6dc" target="_top" xlink:title="MWGui::SpellWindow\l::onModelIndexSelected">
<polygon fill="white" stroke="black" points="339.5,-147 339.5,-177 458.5,-177 458.5,-147 339.5,-147"/>
<text text-anchor="start" x="347.5" y="-165" font-family="FreeSans" font-size="10.00">MWGui::SpellWindow</text>
<text text-anchor="middle" x="399" y="-154" font-family="FreeSans" font-size="10.00">::onModelIndexSelected</text>
</a>
</g>
</g>
<!-- Node6&#45;&gt;Node7 -->
<g id="edge6" class="edge"><title>Node6&#45;&gt;Node7</title>
<path fill="none" stroke="midnightblue" d="M292.868,-130.967C310.654,-136.217 329.902,-141.899 347.009,-146.948"/>
<polygon fill="midnightblue" stroke="midnightblue" points="293.742,-127.576 283.16,-128.101 291.76,-134.289 293.742,-127.576"/>
</g>
<!-- Node9 -->
<g id="node9" class="node"><title>Node9</title>
<g id="a_node9"><a xlink:href="classMWGui_1_1SpellWindow.html#afca63da3134b4eac91d9802d8e078f8b" target="_top" xlink:title="Cycle to next/previous spell. ">
<polygon fill="white" stroke="black" points="344.5,-98 344.5,-128 453.5,-128 453.5,-98 344.5,-98"/>
<text text-anchor="start" x="352.5" y="-116" font-family="FreeSans" font-size="10.00">MWGui::SpellWindow</text>
<text text-anchor="middle" x="399" y="-105" font-family="FreeSans" font-size="10.00">::cycle</text>
</a>
</g>
</g>
<!-- Node6&#45;&gt;Node9 -->
<g id="edge8" class="edge"><title>Node6&#45;&gt;Node9</title>
<path fill="none" stroke="midnightblue" d="M308.654,-113C320.745,-113 333.017,-113 344.436,-113"/>
<polygon fill="midnightblue" stroke="midnightblue" points="308.562,-109.5 298.562,-113 308.562,-116.5 308.562,-109.5"/>
</g>
<!-- Node8 -->
<g id="node8" class="node"><title>Node8</title>
<g id="a_node8"><a xlink:href="classMWGui_1_1SpellWindow.html#a5ad7c776ade4fb177e5c45c758f3ba5b" target="_top" xlink:title="MWGui::SpellWindow\l::SpellWindow">
<polygon fill="white" stroke="black" points="516.5,-147 516.5,-177 625.5,-177 625.5,-147 516.5,-147"/>
<text text-anchor="start" x="524.5" y="-165" font-family="FreeSans" font-size="10.00">MWGui::SpellWindow</text>
<text text-anchor="middle" x="571" y="-154" font-family="FreeSans" font-size="10.00">::SpellWindow</text>
</a>
</g>
</g>
<!-- Node7&#45;&gt;Node8 -->
<g id="edge7" class="edge"><title>Node7&#45;&gt;Node8</title>
<path fill="none" stroke="midnightblue" d="M468.761,-162C484.576,-162 501.17,-162 516.242,-162"/>
<polygon fill="midnightblue" stroke="midnightblue" points="468.504,-158.5 458.504,-162 468.504,-165.5 468.504,-158.5"/>
</g>
<!-- Node10 -->
<g id="node10" class="node"><title>Node10</title>
<g id="a_node10"><a xlink:href="classMWGui_1_1WindowManager.html#a42618aab1fe6b391027243676cf35535" target="_top" xlink:title="Cycle to next or previous spell. ">
<polygon fill="white" stroke="black" points="508.5,-98 508.5,-128 633.5,-128 633.5,-98 508.5,-98"/>
<text text-anchor="start" x="516.5" y="-116" font-family="FreeSans" font-size="10.00">MWGui::WindowManager</text>
<text text-anchor="middle" x="571" y="-105" font-family="FreeSans" font-size="10.00">::cycleSpell</text>
</a>
</g>
</g>
<!-- Node9&#45;&gt;Node10 -->
<g id="edge9" class="edge"><title>Node9&#45;&gt;Node10</title>
<path fill="none" stroke="midnightblue" d="M464.138,-113C478.595,-113 493.91,-113 508.265,-113"/>
<polygon fill="midnightblue" stroke="midnightblue" points="463.789,-109.5 453.789,-113 463.789,-116.5 463.789,-109.5"/>
</g>
<!-- Node12 -->
<g id="node12" class="node"><title>Node12</title>
<g id="a_node12"><a xlink:href="classMWGui_1_1InventoryWindow.html#a217f522ca43031e4a82dac0c62067e92" target="_top" xlink:title="MWGui::InventoryWindow\l::pickUpObject">
<polygon fill="white" stroke="black" points="336,-49 336,-79 462,-79 462,-49 336,-49"/>
<text text-anchor="start" x="344" y="-67" font-family="FreeSans" font-size="10.00">MWGui::InventoryWindow</text>
<text text-anchor="middle" x="399" y="-56" font-family="FreeSans" font-size="10.00">::pickUpObject</text>
</a>
</g>
</g>
<!-- Node11&#45;&gt;Node12 -->
<g id="edge11" class="edge"><title>Node11&#45;&gt;Node12</title>
<path fill="none" stroke="midnightblue" d="M303.534,-64C314.275,-64 325.277,-64 335.802,-64"/>
<polygon fill="midnightblue" stroke="midnightblue" points="303.341,-60.5001 293.341,-64 303.341,-67.5001 303.341,-60.5001"/>
</g>
<!-- Node13 -->
<g id="node13" class="node"><title>Node13</title>
<g id="a_node13"><a xlink:href="classMWGui_1_1HUD.html#a7371a5a68d01bcecc0574b4ced993df6" target="_top" xlink:title="MWGui::HUD::onWorldClicked">
<polygon fill="white" stroke="black" points="498,-54.5 498,-73.5 644,-73.5 644,-54.5 498,-54.5"/>
<text text-anchor="middle" x="571" y="-61.5" font-family="FreeSans" font-size="10.00">MWGui::HUD::onWorldClicked</text>
</a>
</g>
</g>
<!-- Node12&#45;&gt;Node13 -->
<g id="edge12" class="edge"><title>Node12&#45;&gt;Node13</title>
<path fill="none" stroke="midnightblue" d="M472.49,-64C480.901,-64 489.479,-64 497.885,-64"/>
<polygon fill="midnightblue" stroke="midnightblue" points="472.336,-60.5001 462.336,-64 472.336,-67.5001 472.336,-60.5001"/>
</g>
<!-- Node14 -->
<g id="node14" class="node"><title>Node14</title>
<g id="a_node14"><a xlink:href="classMWGui_1_1HUD.html#a461afa538370aed6d6283441e44dedd2" target="_top" xlink:title="MWGui::HUD::HUD">
<polygon fill="white" stroke="black" points="680,-54.5 680,-73.5 778,-73.5 778,-54.5 680,-54.5"/>
<text text-anchor="middle" x="729" y="-61.5" font-family="FreeSans" font-size="10.00">MWGui::HUD::HUD</text>
</a>
</g>
</g>
<!-- Node13&#45;&gt;Node14 -->
<g id="edge13" class="edge"><title>Node13&#45;&gt;Node14</title>
<path fill="none" stroke="midnightblue" d="M654.322,-64C663.054,-64 671.714,-64 679.862,-64"/>
<polygon fill="midnightblue" stroke="midnightblue" points="654.064,-60.5001 644.064,-64 654.064,-67.5001 654.064,-60.5001"/>
</g>
</g>
</svg>
