<?xml version="1.0" encoding="UTF-8" standalone="no"?>
<!DOCTYPE svg PUBLIC "-//W3C//DTD SVG 1.1//EN"
 "http://www.w3.org/Graphics/SVG/1.1/DTD/svg11.dtd">
<!-- Generated by graphviz version 2.36.0 (20140111.2315)
 -->
<!-- Title: MWMechanics::CreatureStats::getMovementFlag Pages: 1 -->
<svg width="1610pt" height="667pt"
 viewBox="0.00 0.00 1610.00 667.17" xmlns="http://www.w3.org/2000/svg" xmlns:xlink="http://www.w3.org/1999/xlink">
<g id="graph0" class="graph" transform="scale(1 1) rotate(0) translate(4 663.168)">
<title>MWMechanics::CreatureStats::getMovementFlag</title>
<polygon fill="white" stroke="none" points="-4,4 -4,-663.168 1606,-663.168 1606,4 -4,4"/>
<!-- Node1 -->
<g id="node1" class="node"><title>Node1</title>
<polygon fill="#bfbfbf" stroke="black" points="0.5,-313 0.5,-343 157.5,-343 157.5,-313 0.5,-313"/>
<text text-anchor="start" x="8.5" y="-331" font-family="FreeSans" font-size="10.00">MWMechanics::CreatureStats</text>
<text text-anchor="middle" x="79" y="-320" font-family="FreeSans" font-size="10.00">::getMovementFlag</text>
</g>
<!-- Node2 -->
<g id="node2" class="node"><title>Node2</title>
<g id="a_node2"><a xlink:href="classMWMechanics_1_1CharacterController.html#a1aa04b41faf6c46eef9310e36e405be5" target="_top" xlink:title="MWMechanics::CharacterController\l::update">
<polygon fill="white" stroke="black" points="828.5,-595 828.5,-625 1011.5,-625 1011.5,-595 828.5,-595"/>
<text text-anchor="start" x="836.5" y="-613" font-family="FreeSans" font-size="10.00">MWMechanics::CharacterController</text>
<text text-anchor="middle" x="920" y="-602" font-family="FreeSans" font-size="10.00">::update</text>
</a>
</g>
</g>
<!-- Node1&#45;&gt;Node2 -->
<g id="edge1" class="edge"><title>Node1&#45;&gt;Node2</title>
<path fill="none" stroke="midnightblue" d="M95.8953,-351.624C136.474,-409.648 250.465,-558.806 388,-619 549.54,-689.701 766.075,-649.742 865.277,-625.005"/>
<polygon fill="midnightblue" stroke="midnightblue" points="98.5847,-349.359 90.0206,-343.122 92.8257,-353.339 98.5847,-349.359"/>
</g>
<!-- Node5 -->
<g id="node5" class="node"><title>Node5</title>
<g id="a_node5"><a xlink:href="classMWMechanics_1_1CreatureStats.html#a1b87fd5147564be617cb95bbbaf64022" target="_top" xlink:title="Like getMovementFlag, but also takes into account if the flag is Forced. ">
<polygon fill="white" stroke="black" points="194.5,-387 194.5,-417 351.5,-417 351.5,-387 194.5,-387"/>
<text text-anchor="start" x="202.5" y="-405" font-family="FreeSans" font-size="10.00">MWMechanics::CreatureStats</text>
<text text-anchor="middle" x="273" y="-394" font-family="FreeSans" font-size="10.00">::getStance</text>
</a>
</g>
</g>
<!-- Node1&#45;&gt;Node5 -->
<g id="edge4" class="edge"><title>Node1&#45;&gt;Node5</title>
<path fill="none" stroke="midnightblue" d="M122.478,-347.407C143.755,-356.833 170.03,-368.031 194,-377 203.19,-380.439 213.092,-383.84 222.655,-386.974"/>
<polygon fill="midnightblue" stroke="midnightblue" points="123.638,-344.092 113.08,-343.215 120.787,-350.485 123.638,-344.092"/>
</g>
<!-- Node40 -->
<g id="node40" class="node"><title>Node40</title>
<g id="a_node40"><a xlink:href="classMWScript_1_1Control_1_1OpGetForceRun.html#ac25b11f9303c6caf25852ed05d2f0ea5" target="_top" xlink:title="MWScript::Control::\lOpGetForceRun::execute">
<polygon fill="white" stroke="black" points="205.5,-338 205.5,-368 340.5,-368 340.5,-338 205.5,-338"/>
<text text-anchor="start" x="213.5" y="-356" font-family="FreeSans" font-size="10.00">MWScript::Control::</text>
<text text-anchor="middle" x="273" y="-345" font-family="FreeSans" font-size="10.00">OpGetForceRun::execute</text>
</a>
</g>
</g>
<!-- Node1&#45;&gt;Node40 -->
<g id="edge45" class="edge"><title>Node1&#45;&gt;Node40</title>
<path fill="none" stroke="midnightblue" d="M167.627,-339.41C180.278,-341.057 193.124,-342.73 205.277,-344.312"/>
<polygon fill="midnightblue" stroke="midnightblue" points="167.909,-335.917 157.54,-338.096 167.005,-342.858 167.909,-335.917"/>
</g>
<!-- Node41 -->
<g id="node41" class="node"><title>Node41</title>
<g id="a_node41"><a xlink:href="classMWScript_1_1Control_1_1OpGetForceJump.html#aa5a6730de1570f9c3266baa07f56fddb" target="_top" xlink:title="MWScript::Control::\lOpGetForceJump::execute">
<polygon fill="white" stroke="black" points="202,-289 202,-319 344,-319 344,-289 202,-289"/>
<text text-anchor="start" x="210" y="-307" font-family="FreeSans" font-size="10.00">MWScript::Control::</text>
<text text-anchor="middle" x="273" y="-296" font-family="FreeSans" font-size="10.00">OpGetForceJump::execute</text>
</a>
</g>
</g>
<!-- Node1&#45;&gt;Node41 -->
<g id="edge46" class="edge"><title>Node1&#45;&gt;Node41</title>
<path fill="none" stroke="midnightblue" d="M167.59,-317.051C179.092,-315.613 190.757,-314.155 201.916,-312.76"/>
<polygon fill="midnightblue" stroke="midnightblue" points="167.029,-313.594 157.54,-318.307 167.897,-320.54 167.029,-313.594"/>
</g>
<!-- Node42 -->
<g id="node42" class="node"><title>Node42</title>
<g id="a_node42"><a xlink:href="classMWScript_1_1Control_1_1OpGetForceMoveJump.html#a47174a40149ac68b5666b1b40ac72fe6" target="_top" xlink:title="MWScript::Control::\lOpGetForceMoveJump::\lexecute">
<polygon fill="white" stroke="black" points="208.5,-229.5 208.5,-270.5 337.5,-270.5 337.5,-229.5 208.5,-229.5"/>
<text text-anchor="start" x="216.5" y="-258.5" font-family="FreeSans" font-size="10.00">MWScript::Control::</text>
<text text-anchor="start" x="216.5" y="-247.5" font-family="FreeSans" font-size="10.00">OpGetForceMoveJump::</text>
<text text-anchor="middle" x="273" y="-236.5" font-family="FreeSans" font-size="10.00">execute</text>
</a>
</g>
</g>
<!-- Node1&#45;&gt;Node42 -->
<g id="edge47" class="edge"><title>Node1&#45;&gt;Node42</title>
<path fill="none" stroke="midnightblue" d="M124.386,-308.931C145.422,-299.991 170.939,-289.287 194,-280 201.671,-276.911 209.793,-273.71 217.785,-270.6"/>
<polygon fill="midnightblue" stroke="midnightblue" points="122.889,-305.764 115.061,-312.903 125.633,-312.204 122.889,-305.764"/>
</g>
<!-- Node43 -->
<g id="node43" class="node"><title>Node43</title>
<g id="a_node43"><a xlink:href="classMWScript_1_1Control_1_1OpGetForceSneak.html#a62b02b27ffebbadf02d97f924da74268" target="_top" xlink:title="MWScript::Control::\lOpGetForceSneak::execute">
<polygon fill="white" stroke="black" points="199,-181 199,-211 347,-211 347,-181 199,-181"/>
<text text-anchor="start" x="207" y="-199" font-family="FreeSans" font-size="10.00">MWScript::Control::</text>
<text text-anchor="middle" x="273" y="-188" font-family="FreeSans" font-size="10.00">OpGetForceSneak::execute</text>
</a>
</g>
</g>
<!-- Node1&#45;&gt;Node43 -->
<g id="edge48" class="edge"><title>Node1&#45;&gt;Node43</title>
<path fill="none" stroke="midnightblue" d="M98.4692,-305.099C119.28,-280.718 155.29,-242.6 194,-220 199.751,-216.643 206.019,-213.709 212.421,-211.157"/>
<polygon fill="midnightblue" stroke="midnightblue" points="95.7561,-302.888 92.0123,-312.799 101.12,-307.386 95.7561,-302.888"/>
</g>
<!-- Node3 -->
<g id="node3" class="node"><title>Node3</title>
<g id="a_node3"><a xlink:href="classMWMechanics_1_1Actors.html#a1588180bba8597286a1db1389cee106e" target="_top" xlink:title="Update actor stats and store desired velocity vectors in movement. ">
<polygon fill="white" stroke="black" points="1063,-521 1063,-551 1183,-551 1183,-521 1063,-521"/>
<text text-anchor="start" x="1071" y="-539" font-family="FreeSans" font-size="10.00">MWMechanics::Actors</text>
<text text-anchor="middle" x="1123" y="-528" font-family="FreeSans" font-size="10.00">::update</text>
</a>
</g>
</g>
<!-- Node2&#45;&gt;Node3 -->
<g id="edge2" class="edge"><title>Node2&#45;&gt;Node3</title>
<path fill="none" stroke="midnightblue" d="M990.895,-591.958C998.07,-589.761 1005.21,-587.428 1012,-585 1039.36,-575.211 1069.44,-561.606 1091.22,-551.215"/>
<polygon fill="midnightblue" stroke="midnightblue" points="989.707,-588.66 981.121,-594.867 991.704,-595.369 989.707,-588.66"/>
</g>
<!-- Node4 -->
<g id="node4" class="node"><title>Node4</title>
<g id="a_node4"><a xlink:href="classMWMechanics_1_1MechanicsManager.html#acf3c8c25fff52b890d0d6ced4b456459" target="_top" xlink:title="MWMechanics::MechanicsManager\l::update">
<polygon fill="white" stroke="black" points="1234,-521 1234,-551 1416,-551 1416,-521 1234,-521"/>
<text text-anchor="start" x="1242" y="-539" font-family="FreeSans" font-size="10.00">MWMechanics::MechanicsManager</text>
<text text-anchor="middle" x="1325" y="-528" font-family="FreeSans" font-size="10.00">::update</text>
</a>
</g>
</g>
<!-- Node3&#45;&gt;Node4 -->
<g id="edge3" class="edge"><title>Node3&#45;&gt;Node4</title>
<path fill="none" stroke="midnightblue" d="M1193.46,-536C1206.48,-536 1220.27,-536 1233.81,-536"/>
<polygon fill="midnightblue" stroke="midnightblue" points="1193.19,-532.5 1183.19,-536 1193.19,-539.5 1193.19,-532.5"/>
</g>
<!-- Node5&#45;&gt;Node2 -->
<g id="edge17" class="edge"><title>Node5&#45;&gt;Node2</title>
<path fill="none" stroke="midnightblue" d="M280.752,-427.004C293.637,-469.227 326.124,-553.607 388,-590 460.113,-632.414 696.587,-624.767 828.325,-616.705"/>
<polygon fill="midnightblue" stroke="midnightblue" points="284.06,-425.847 277.892,-417.233 277.342,-427.813 284.06,-425.847"/>
</g>
<!-- Node6 -->
<g id="node6" class="node"><title>Node6</title>
<g id="a_node6"><a xlink:href="classMWClass_1_1Creature.html#a89aa284c77bdb07c7f40380206ce180a" target="_top" xlink:title="Return movement speed. ">
<polygon fill="white" stroke="black" points="423.5,-551 423.5,-581 536.5,-581 536.5,-551 423.5,-551"/>
<text text-anchor="start" x="431.5" y="-569" font-family="FreeSans" font-size="10.00">MWClass::Creature::</text>
<text text-anchor="middle" x="480" y="-558" font-family="FreeSans" font-size="10.00">getSpeed</text>
</a>
</g>
</g>
<!-- Node5&#45;&gt;Node6 -->
<g id="edge5" class="edge"><title>Node5&#45;&gt;Node6</title>
<path fill="none" stroke="midnightblue" d="M287.289,-426.057C305.781,-457.278 342.22,-511.267 388,-541 398.58,-547.871 411.028,-552.871 423.264,-556.503"/>
<polygon fill="midnightblue" stroke="midnightblue" points="290.174,-424.053 282.136,-417.15 284.115,-427.559 290.174,-424.053"/>
</g>
<!-- Node7 -->
<g id="node7" class="node"><title>Node7</title>
<g id="a_node7"><a xlink:href="classMWClass_1_1Npc.html#a0a163cd7a793722b0abd5c01f33cd0a9" target="_top" xlink:title="Generate action for activation. ">
<polygon fill="white" stroke="black" points="416,-512.5 416,-531.5 544,-531.5 544,-512.5 416,-512.5"/>
<text text-anchor="middle" x="480" y="-519.5" font-family="FreeSans" font-size="10.00">MWClass::Npc::activate</text>
</a>
</g>
</g>
<!-- Node5&#45;&gt;Node7 -->
<g id="edge6" class="edge"><title>Node5&#45;&gt;Node7</title>
<path fill="none" stroke="midnightblue" d="M293.03,-424.729C313.884,-448.085 349.53,-483.68 388,-503 396.654,-507.346 406.25,-510.698 415.871,-513.284"/>
<polygon fill="midnightblue" stroke="midnightblue" points="295.508,-422.246 286.289,-417.025 290.24,-426.856 295.508,-422.246"/>
</g>
<!-- Node8 -->
<g id="node8" class="node"><title>Node8</title>
<g id="a_node8"><a xlink:href="classMWClass_1_1Npc.html#acaf825c7d2108eb7707911c1abf97284" target="_top" xlink:title="Return movement speed. ">
<polygon fill="white" stroke="black" points="412,-474.5 412,-493.5 548,-493.5 548,-474.5 412,-474.5"/>
<text text-anchor="middle" x="480" y="-481.5" font-family="FreeSans" font-size="10.00">MWClass::Npc::getSpeed</text>
</a>
</g>
</g>
<!-- Node5&#45;&gt;Node8 -->
<g id="edge7" class="edge"><title>Node5&#45;&gt;Node8</title>
<path fill="none" stroke="midnightblue" d="M305.269,-422.636C327.515,-436.464 358.56,-454.075 388,-465 398.289,-468.818 409.533,-471.949 420.498,-474.487"/>
<polygon fill="midnightblue" stroke="midnightblue" points="306.926,-419.544 296.602,-417.164 303.188,-425.462 306.926,-419.544"/>
</g>
<!-- Node9 -->
<g id="node9" class="node"><title>Node9</title>
<g id="a_node9"><a xlink:href="classMWClass_1_1Npc.html#a9a9f4191138f024f027fff003aac080d" target="_top" xlink:title="Return jump velocity (not accounting for movement) ">
<polygon fill="white" stroke="black" points="415.5,-436.5 415.5,-455.5 544.5,-455.5 544.5,-436.5 415.5,-436.5"/>
<text text-anchor="middle" x="480" y="-443.5" font-family="FreeSans" font-size="10.00">MWClass::Npc::getJump</text>
</a>
</g>
</g>
<!-- Node5&#45;&gt;Node9 -->
<g id="edge8" class="edge"><title>Node5&#45;&gt;Node9</title>
<path fill="none" stroke="midnightblue" d="M353.967,-419.164C381.406,-425.053 411.112,-431.429 434.681,-436.488"/>
<polygon fill="midnightblue" stroke="midnightblue" points="354.488,-415.696 343.976,-417.019 353.019,-422.54 354.488,-415.696"/>
</g>
<!-- Node10 -->
<g id="node10" class="node"><title>Node10</title>
<g id="a_node10"><a xlink:href="classMWClass_1_1Npc.html#ae64fa6b9a127eded92227a43503d4527" target="_top" xlink:title="Returns the sound ID for ptr of the given soundgen type. ">
<polygon fill="white" stroke="black" points="408,-387 408,-417 552,-417 552,-387 408,-387"/>
<text text-anchor="start" x="416" y="-405" font-family="FreeSans" font-size="10.00">MWClass::Npc::getSoundId</text>
<text text-anchor="middle" x="480" y="-394" font-family="FreeSans" font-size="10.00">FromSndGen</text>
</a>
</g>
</g>
<!-- Node5&#45;&gt;Node10 -->
<g id="edge9" class="edge"><title>Node5&#45;&gt;Node10</title>
<path fill="none" stroke="midnightblue" d="M361.561,-402C376.993,-402 392.887,-402 407.802,-402"/>
<polygon fill="midnightblue" stroke="midnightblue" points="361.502,-398.5 351.502,-402 361.502,-405.5 361.502,-398.5"/>
</g>
<!-- Node11 -->
<g id="node11" class="node"><title>Node11</title>
<g id="a_node11"><a xlink:href="classMWMechanics_1_1CharacterController.html#aca36244b01b14efca38a8e619222dd96" target="_top" xlink:title="MWMechanics::CharacterController\l::refreshMovementAnims">
<polygon fill="white" stroke="black" points="388.5,-299 388.5,-329 571.5,-329 571.5,-299 388.5,-299"/>
<text text-anchor="start" x="396.5" y="-317" font-family="FreeSans" font-size="10.00">MWMechanics::CharacterController</text>
<text text-anchor="middle" x="480" y="-306" font-family="FreeSans" font-size="10.00">::refreshMovementAnims</text>
</a>
</g>
</g>
<!-- Node5&#45;&gt;Node11 -->
<g id="edge10" class="edge"><title>Node5&#45;&gt;Node11</title>
<path fill="none" stroke="midnightblue" d="M340.487,-382.924C344.464,-381.101 348.334,-379.129 352,-377 370.77,-366.101 369.275,-354.976 388,-344 398.046,-338.111 409.402,-333.2 420.6,-329.172"/>
<polygon fill="midnightblue" stroke="midnightblue" points="338.907,-379.791 331.06,-386.91 341.633,-386.239 338.907,-379.791"/>
</g>
<!-- Node15 -->
<g id="node15" class="node"><title>Node15</title>
<g id="a_node15"><a xlink:href="classMWMechanics_1_1CharacterController.html#aca17757fd8136b502041f7637398f90e" target="_top" xlink:title="MWMechanics::CharacterController\l::updateWeaponState">
<polygon fill="white" stroke="black" points="608.5,-549 608.5,-579 791.5,-579 791.5,-549 608.5,-549"/>
<text text-anchor="start" x="616.5" y="-567" font-family="FreeSans" font-size="10.00">MWMechanics::CharacterController</text>
<text text-anchor="middle" x="700" y="-556" font-family="FreeSans" font-size="10.00">::updateWeaponState</text>
</a>
</g>
</g>
<!-- Node5&#45;&gt;Node15 -->
<g id="edge15" class="edge"><title>Node5&#45;&gt;Node15</title>
<path fill="none" stroke="midnightblue" d="M348.059,-384.813C424.96,-368.885 538.624,-351.336 572,-378 628.609,-423.224 558.479,-484.11 608,-537 612.393,-541.691 617.559,-545.58 623.161,-548.802"/>
<polygon fill="midnightblue" stroke="midnightblue" points="346.998,-381.46 337.934,-386.945 348.44,-388.31 346.998,-381.46"/>
</g>
<!-- Node16 -->
<g id="node16" class="node"><title>Node16</title>
<g id="a_node16"><a xlink:href="classMWMechanics_1_1MechanicsManager.html#a2839aaaa7ce0a8024f6ba2daa3ce45a5" target="_top" xlink:title="Check if observer is potentially aware of ptr. Does not do a line of sight check! ...">
<polygon fill="white" stroke="black" points="389,-250 389,-280 571,-280 571,-250 389,-250"/>
<text text-anchor="start" x="397" y="-268" font-family="FreeSans" font-size="10.00">MWMechanics::MechanicsManager</text>
<text text-anchor="middle" x="480" y="-257" font-family="FreeSans" font-size="10.00">::awarenessCheck</text>
</a>
</g>
</g>
<!-- Node5&#45;&gt;Node16 -->
<g id="edge18" class="edge"><title>Node5&#45;&gt;Node16</title>
<path fill="none" stroke="midnightblue" d="M346.625,-381.409C348.502,-380.033 350.3,-378.565 352,-377 382.78,-348.651 356.63,-317.696 388,-290 392.422,-286.096 397.399,-282.796 402.689,-280.007"/>
<polygon fill="midnightblue" stroke="midnightblue" points="344.545,-378.582 337.946,-386.87 348.274,-384.506 344.545,-378.582"/>
</g>
<!-- Node35 -->
<g id="node35" class="node"><title>Node35</title>
<g id="a_node35"><a xlink:href="classMWScript_1_1Control_1_1OpGetPcRunning.html#a593551363dff6ea70adb86254b0b4c55" target="_top" xlink:title="MWScript::Control::\lOpGetPcRunning::execute">
<polygon fill="white" stroke="black" points="410,-201 410,-231 550,-231 550,-201 410,-201"/>
<text text-anchor="start" x="418" y="-219" font-family="FreeSans" font-size="10.00">MWScript::Control::</text>
<text text-anchor="middle" x="480" y="-208" font-family="FreeSans" font-size="10.00">OpGetPcRunning::execute</text>
</a>
</g>
</g>
<!-- Node5&#45;&gt;Node35 -->
<g id="edge40" class="edge"><title>Node5&#45;&gt;Node35</title>
<path fill="none" stroke="midnightblue" d="M348.07,-380.735C349.442,-379.556 350.756,-378.312 352,-377 395.317,-331.315 343.503,-284.537 388,-240 394.12,-233.874 401.607,-229.256 409.632,-225.784"/>
<polygon fill="midnightblue" stroke="midnightblue" points="345.712,-378.119 339.635,-386.798 349.798,-383.803 345.712,-378.119"/>
</g>
<!-- Node36 -->
<g id="node36" class="node"><title>Node36</title>
<g id="a_node36"><a xlink:href="classMWScript_1_1Control_1_1OpGetPcSneaking.html#aee591b06d06c4df4483e6a333729ceb6" target="_top" xlink:title="MWScript::Control::\lOpGetPcSneaking::execute">
<polygon fill="white" stroke="black" points="406.5,-152 406.5,-182 553.5,-182 553.5,-152 406.5,-152"/>
<text text-anchor="start" x="414.5" y="-170" font-family="FreeSans" font-size="10.00">MWScript::Control::</text>
<text text-anchor="middle" x="480" y="-159" font-family="FreeSans" font-size="10.00">OpGetPcSneaking::execute</text>
</a>
</g>
</g>
<!-- Node5&#45;&gt;Node36 -->
<g id="edge41" class="edge"><title>Node5&#45;&gt;Node36</title>
<path fill="none" stroke="midnightblue" d="M348.297,-380.745C349.594,-379.563 350.832,-378.316 352,-377 407.894,-314.026 330.479,-252.491 388,-191 393.134,-185.511 399.362,-181.22 406.124,-177.873"/>
<polygon fill="midnightblue" stroke="midnightblue" points="346.131,-377.996 340.277,-386.827 350.36,-383.573 346.131,-377.996"/>
</g>
<!-- Node37 -->
<g id="node37" class="node"><title>Node37</title>
<g id="a_node37"><a xlink:href="classMWWorld_1_1World.html#a62b8b52938805c4cedc6c8e561101dc1" target="_top" xlink:title="MWWorld::World::updatePlayer">
<polygon fill="white" stroke="black" points="400.5,-81.5 400.5,-100.5 559.5,-100.5 559.5,-81.5 400.5,-81.5"/>
<text text-anchor="middle" x="480" y="-88.5" font-family="FreeSans" font-size="10.00">MWWorld::World::updatePlayer</text>
</a>
</g>
</g>
<!-- Node5&#45;&gt;Node37 -->
<g id="edge42" class="edge"><title>Node5&#45;&gt;Node37</title>
<path fill="none" stroke="midnightblue" d="M348.368,-380.807C349.644,-379.606 350.858,-378.339 352,-377 420.579,-296.616 327.817,-228.848 388,-142 402.132,-121.607 427.2,-108.434 447.452,-100.595"/>
<polygon fill="midnightblue" stroke="midnightblue" points="346.187,-378.069 340.445,-386.973 350.486,-383.593 346.187,-378.069"/>
</g>
<!-- Node12 -->
<g id="node12" class="node"><title>Node12</title>
<g id="a_node12"><a xlink:href="classMWMechanics_1_1CharacterController.html#a583dc9b83b06b368c48ac9abd1355902" target="_top" xlink:title="MWMechanics::CharacterController\l::refreshCurrentAnims">
<polygon fill="white" stroke="black" points="608.5,-498 608.5,-528 791.5,-528 791.5,-498 608.5,-498"/>
<text text-anchor="start" x="616.5" y="-516" font-family="FreeSans" font-size="10.00">MWMechanics::CharacterController</text>
<text text-anchor="middle" x="700" y="-505" font-family="FreeSans" font-size="10.00">::refreshCurrentAnims</text>
</a>
</g>
</g>
<!-- Node11&#45;&gt;Node12 -->
<g id="edge11" class="edge"><title>Node11&#45;&gt;Node12</title>
<path fill="none" stroke="midnightblue" d="M558.405,-333.897C563.302,-336.816 567.901,-340.163 572,-344 603.149,-373.161 583.312,-398.199 608,-433 626.865,-459.593 656.246,-483.311 676.492,-497.887"/>
<polygon fill="midnightblue" stroke="midnightblue" points="559.789,-330.67 549.312,-329.092 556.518,-336.859 559.789,-330.67"/>
</g>
<!-- Node12&#45;&gt;Node2 -->
<g id="edge13" class="edge"><title>Node12&#45;&gt;Node2</title>
<path fill="none" stroke="midnightblue" d="M778.462,-532.282C783.192,-534.578 787.751,-537.141 792,-540 813.25,-554.297 806.605,-570.919 828,-585 833.885,-588.873 840.36,-592.151 847.062,-594.923"/>
<polygon fill="midnightblue" stroke="midnightblue" points="779.751,-529.025 769.19,-528.187 776.923,-535.429 779.751,-529.025"/>
</g>
<!-- Node13 -->
<g id="node13" class="node"><title>Node13</title>
<g id="a_node13"><a xlink:href="classMWMechanics_1_1CharacterController.html#a47540403fbd9f18bbe047cff2c5a3c5f" target="_top" xlink:title="MWMechanics::CharacterController\l::CharacterController">
<polygon fill="white" stroke="black" points="828.5,-546 828.5,-576 1011.5,-576 1011.5,-546 828.5,-546"/>
<text text-anchor="start" x="836.5" y="-564" font-family="FreeSans" font-size="10.00">MWMechanics::CharacterController</text>
<text text-anchor="middle" x="920" y="-553" font-family="FreeSans" font-size="10.00">::CharacterController</text>
</a>
</g>
</g>
<!-- Node12&#45;&gt;Node13 -->
<g id="edge12" class="edge"><title>Node12&#45;&gt;Node13</title>
<path fill="none" stroke="midnightblue" d="M779.272,-530.234C802.685,-535.389 828.158,-540.998 850.864,-545.998"/>
<polygon fill="midnightblue" stroke="midnightblue" points="779.897,-526.788 769.378,-528.056 778.392,-533.624 779.897,-526.788"/>
</g>
<!-- Node14 -->
<g id="node14" class="node"><title>Node14</title>
<g id="a_node14"><a xlink:href="classMWMechanics_1_1CharacterController.html#a81f372cb6cf17fe5b2e49a1d00a99114" target="_top" xlink:title="MWMechanics::CharacterController\l::forceStateUpdate">
<polygon fill="white" stroke="black" points="828.5,-497 828.5,-527 1011.5,-527 1011.5,-497 828.5,-497"/>
<text text-anchor="start" x="836.5" y="-515" font-family="FreeSans" font-size="10.00">MWMechanics::CharacterController</text>
<text text-anchor="middle" x="920" y="-504" font-family="FreeSans" font-size="10.00">::forceStateUpdate</text>
</a>
</g>
</g>
<!-- Node12&#45;&gt;Node14 -->
<g id="edge14" class="edge"><title>Node12&#45;&gt;Node14</title>
<path fill="none" stroke="midnightblue" d="M801.596,-512.539C810.526,-512.498 819.533,-512.456 828.373,-512.416"/>
<polygon fill="midnightblue" stroke="midnightblue" points="801.542,-509.039 791.558,-512.585 801.574,-516.039 801.542,-509.039"/>
</g>
<!-- Node15&#45;&gt;Node2 -->
<g id="edge16" class="edge"><title>Node15&#45;&gt;Node2</title>
<path fill="none" stroke="midnightblue" d="M782.457,-581.188C803.936,-585.72 826.941,-590.575 847.831,-594.983"/>
<polygon fill="midnightblue" stroke="midnightblue" points="782.889,-577.702 772.381,-579.062 781.443,-584.551 782.889,-577.702"/>
</g>
<!-- Node17 -->
<g id="node17" class="node"><title>Node17</title>
<g id="a_node17"><a xlink:href="namespaceMWMechanics.html#a8addb1cc9040a8e5c061c1a1136a7284" target="_top" xlink:title="MWMechanics::canFight">
<polygon fill="white" stroke="black" points="635.5,-404.5 635.5,-423.5 764.5,-423.5 764.5,-404.5 635.5,-404.5"/>
<text text-anchor="middle" x="700" y="-411.5" font-family="FreeSans" font-size="10.00">MWMechanics::canFight</text>
</a>
</g>
</g>
<!-- Node16&#45;&gt;Node17 -->
<g id="edge19" class="edge"><title>Node16&#45;&gt;Node17</title>
<path fill="none" stroke="midnightblue" d="M561.54,-284.18C565.163,-285.953 568.671,-287.889 572,-290 592.763,-303.166 590.832,-314.401 608,-332 635.027,-359.706 669.619,-389.463 687.36,-404.351"/>
<polygon fill="midnightblue" stroke="midnightblue" points="562.894,-280.951 552.334,-280.096 560.056,-287.35 562.894,-280.951"/>
</g>
<!-- Node21 -->
<g id="node21" class="node"><title>Node21</title>
<g id="a_node21"><a xlink:href="namespaceMWMechanics.html#a0eca898ae05a994e8463ec1705205788" target="_top" xlink:title="Get the chance (in percent) for attacker to successfully hit victim with a given weapon skill value...">
<polygon fill="white" stroke="black" points="622.5,-303.5 622.5,-322.5 777.5,-322.5 777.5,-303.5 622.5,-303.5"/>
<text text-anchor="middle" x="700" y="-310.5" font-family="FreeSans" font-size="10.00">MWMechanics::getHitChance</text>
</a>
</g>
</g>
<!-- Node16&#45;&gt;Node21 -->
<g id="edge24" class="edge"><title>Node16&#45;&gt;Node21</title>
<path fill="none" stroke="midnightblue" d="M559.296,-282.24C591.708,-289.376 628.064,-297.381 655.561,-303.436"/>
<polygon fill="midnightblue" stroke="midnightblue" points="559.897,-278.788 549.378,-280.056 558.392,-285.624 559.897,-278.788"/>
</g>
<!-- Node28 -->
<g id="node28" class="node"><title>Node28</title>
<g id="a_node28"><a xlink:href="classMWMechanics_1_1MechanicsManager.html#a3fa51ec4329cd8a71916c19a76b457b0" target="_top" xlink:title="MWMechanics::MechanicsManager\l::commitCrime">
<polygon fill="white" stroke="black" points="609,-186 609,-216 791,-216 791,-186 609,-186"/>
<text text-anchor="start" x="617" y="-204" font-family="FreeSans" font-size="10.00">MWMechanics::MechanicsManager</text>
<text text-anchor="middle" x="700" y="-193" font-family="FreeSans" font-size="10.00">::commitCrime</text>
</a>
</g>
</g>
<!-- Node16&#45;&gt;Node28 -->
<g id="edge33" class="edge"><title>Node16&#45;&gt;Node28</title>
<path fill="none" stroke="midnightblue" d="M546.8,-247.174C555.29,-244.8 563.859,-242.368 572,-240 598.244,-232.367 627.404,-223.444 651.157,-216.061"/>
<polygon fill="midnightblue" stroke="midnightblue" points="545.597,-243.875 536.899,-249.926 547.472,-250.62 545.597,-243.875"/>
</g>
<!-- Node34 -->
<g id="node34" class="node"><title>Node34</title>
<g id="a_node34"><a xlink:href="classMWMechanics_1_1MechanicsManager.html#aac554cc4280a59bcb2381e653c3f7b36" target="_top" xlink:title="Turn actor into werewolf or normal form. ">
<polygon fill="white" stroke="black" points="609,-137 609,-167 791,-167 791,-137 609,-137"/>
<text text-anchor="start" x="617" y="-155" font-family="FreeSans" font-size="10.00">MWMechanics::MechanicsManager</text>
<text text-anchor="middle" x="700" y="-144" font-family="FreeSans" font-size="10.00">::setWerewolf</text>
</a>
</g>
</g>
<!-- Node16&#45;&gt;Node34 -->
<g id="edge39" class="edge"><title>Node16&#45;&gt;Node34</title>
<path fill="none" stroke="midnightblue" d="M564.767,-245.013C567.28,-243.465 569.7,-241.797 572,-240 597.717,-219.907 582.181,-195.961 608,-176 612.395,-172.602 617.228,-169.684 622.304,-167.177"/>
<polygon fill="midnightblue" stroke="midnightblue" points="563.022,-241.978 555.907,-249.828 566.365,-248.128 563.022,-241.978"/>
</g>
<!-- Node18 -->
<g id="node18" class="node"><title>Node18</title>
<g id="a_node18"><a xlink:href="classMWMechanics_1_1Actors.html#a499f6bbd42387ac60a06e80c78f41dc5" target="_top" xlink:title="MWMechanics::Actors\l::engageCombat">
<polygon fill="white" stroke="black" points="860,-448 860,-478 980,-478 980,-448 860,-448"/>
<text text-anchor="start" x="868" y="-466" font-family="FreeSans" font-size="10.00">MWMechanics::Actors</text>
<text text-anchor="middle" x="920" y="-455" font-family="FreeSans" font-size="10.00">::engageCombat</text>
</a>
</g>
</g>
<!-- Node17&#45;&gt;Node18 -->
<g id="edge20" class="edge"><title>Node17&#45;&gt;Node18</title>
<path fill="none" stroke="midnightblue" d="M753.375,-425.772C785.481,-432.989 826.661,-442.245 859.927,-449.722"/>
<polygon fill="midnightblue" stroke="midnightblue" points="753.815,-422.284 743.291,-423.506 752.28,-429.114 753.815,-422.284"/>
</g>
<!-- Node19 -->
<g id="node19" class="node"><title>Node19</title>
<g id="a_node19"><a xlink:href="classMWMechanics_1_1AiCombat.html#a3caa2cf9b536a6d5a8826e3142391855" target="_top" xlink:title="Returns true if combat should end. ">
<polygon fill="white" stroke="black" points="851.5,-399 851.5,-429 988.5,-429 988.5,-399 851.5,-399"/>
<text text-anchor="start" x="859.5" y="-417" font-family="FreeSans" font-size="10.00">MWMechanics::AiCombat</text>
<text text-anchor="middle" x="920" y="-406" font-family="FreeSans" font-size="10.00">::attack</text>
</a>
</g>
</g>
<!-- Node17&#45;&gt;Node19 -->
<g id="edge22" class="edge"><title>Node17&#45;&gt;Node19</title>
<path fill="none" stroke="midnightblue" d="M774.735,-414C799.572,-414 827.147,-414 851.48,-414"/>
<polygon fill="midnightblue" stroke="midnightblue" points="774.641,-410.5 764.641,-414 774.641,-417.5 774.641,-410.5"/>
</g>
<!-- Node18&#45;&gt;Node3 -->
<g id="edge21" class="edge"><title>Node18&#45;&gt;Node3</title>
<path fill="none" stroke="midnightblue" d="M989.95,-480.814C997.44,-483.083 1004.91,-485.494 1012,-488 1039.11,-497.583 1068.96,-510.783 1090.71,-520.915"/>
<polygon fill="midnightblue" stroke="midnightblue" points="990.707,-477.388 980.125,-477.916 988.727,-484.102 990.707,-477.388"/>
</g>
<!-- Node20 -->
<g id="node20" class="node"><title>Node20</title>
<g id="a_node20"><a xlink:href="classMWMechanics_1_1AiCombat.html#aa5b6e62fabdd5c9a59ca540992330bce" target="_top" xlink:title="MWMechanics::AiCombat\l::execute">
<polygon fill="white" stroke="black" points="1054.5,-399 1054.5,-429 1191.5,-429 1191.5,-399 1054.5,-399"/>
<text text-anchor="start" x="1062.5" y="-417" font-family="FreeSans" font-size="10.00">MWMechanics::AiCombat</text>
<text text-anchor="middle" x="1123" y="-406" font-family="FreeSans" font-size="10.00">::execute</text>
</a>
</g>
</g>
<!-- Node19&#45;&gt;Node20 -->
<g id="edge23" class="edge"><title>Node19&#45;&gt;Node20</title>
<path fill="none" stroke="midnightblue" d="M998.794,-414C1017.06,-414 1036.39,-414 1054.18,-414"/>
<polygon fill="midnightblue" stroke="midnightblue" points="998.769,-410.5 988.769,-414 998.769,-417.5 998.769,-410.5"/>
</g>
<!-- Node22 -->
<g id="node22" class="node"><title>Node22</title>
<g id="a_node22"><a xlink:href="classMWClass_1_1Creature.html#a54d172e02be3b6889d639f23b48add5d" target="_top" xlink:title="MWClass::Creature::hit">
<polygon fill="white" stroke="black" points="857.5,-360.5 857.5,-379.5 982.5,-379.5 982.5,-360.5 857.5,-360.5"/>
<text text-anchor="middle" x="920" y="-367.5" font-family="FreeSans" font-size="10.00">MWClass::Creature::hit</text>
</a>
</g>
</g>
<!-- Node21&#45;&gt;Node22 -->
<g id="edge25" class="edge"><title>Node21&#45;&gt;Node22</title>
<path fill="none" stroke="midnightblue" d="M740.146,-325.651C765.133,-333.492 798.295,-343.469 828,-351 841.298,-354.371 855.797,-357.598 869.234,-360.405"/>
<polygon fill="midnightblue" stroke="midnightblue" points="740.904,-322.22 730.314,-322.543 738.794,-328.894 740.904,-322.22"/>
</g>
<!-- Node23 -->
<g id="node23" class="node"><title>Node23</title>
<g id="a_node23"><a xlink:href="classMWClass_1_1Npc.html#a5d266109da673f7fa11d213cb88dfc36" target="_top" xlink:title="MWClass::Npc::hit">
<polygon fill="white" stroke="black" points="869.5,-322.5 869.5,-341.5 970.5,-341.5 970.5,-322.5 869.5,-322.5"/>
<text text-anchor="middle" x="920" y="-329.5" font-family="FreeSans" font-size="10.00">MWClass::Npc::hit</text>
</a>
</g>
</g>
<!-- Node21&#45;&gt;Node23 -->
<g id="edge26" class="edge"><title>Node21&#45;&gt;Node23</title>
<path fill="none" stroke="midnightblue" d="M787.655,-320.552C815.361,-322.967 845.081,-325.557 869.23,-327.662"/>
<polygon fill="midnightblue" stroke="midnightblue" points="787.818,-317.054 777.552,-319.672 787.21,-324.027 787.818,-317.054"/>
</g>
<!-- Node24 -->
<g id="node24" class="node"><title>Node24</title>
<g id="a_node24"><a xlink:href="namespaceMWMechanics.html#af6ce41ddac20f6fb684311ba807c5948" target="_top" xlink:title="MWMechanics::projectileHit">
<polygon fill="white" stroke="black" points="847,-284.5 847,-303.5 993,-303.5 993,-284.5 847,-284.5"/>
<text text-anchor="middle" x="920" y="-291.5" font-family="FreeSans" font-size="10.00">MWMechanics::projectileHit</text>
</a>
</g>
</g>
<!-- Node21&#45;&gt;Node24 -->
<g id="edge27" class="edge"><title>Node21&#45;&gt;Node24</title>
<path fill="none" stroke="midnightblue" d="M787.669,-305.446C807.218,-303.742 827.768,-301.951 846.656,-300.305"/>
<polygon fill="midnightblue" stroke="midnightblue" points="787.21,-301.973 777.552,-306.328 787.818,-308.946 787.21,-301.973"/>
</g>
<!-- Node25 -->
<g id="node25" class="node"><title>Node25</title>
<g id="a_node25"><a xlink:href="classMWWorld_1_1ProjectileManager.html#a77bced8f0dfc8fec0a492cd753d0c464" target="_top" xlink:title="MWWorld::ProjectileManager\l::moveProjectiles">
<polygon fill="white" stroke="black" points="1048,-279 1048,-309 1198,-309 1198,-279 1048,-279"/>
<text text-anchor="start" x="1056" y="-297" font-family="FreeSans" font-size="10.00">MWWorld::ProjectileManager</text>
<text text-anchor="middle" x="1123" y="-286" font-family="FreeSans" font-size="10.00">::moveProjectiles</text>
</a>
</g>
</g>
<!-- Node24&#45;&gt;Node25 -->
<g id="edge28" class="edge"><title>Node24&#45;&gt;Node25</title>
<path fill="none" stroke="midnightblue" d="M1003.4,-294C1018.17,-294 1033.48,-294 1047.99,-294"/>
<polygon fill="midnightblue" stroke="midnightblue" points="1003.28,-290.5 993.282,-294 1003.28,-297.5 1003.28,-290.5"/>
</g>
<!-- Node26 -->
<g id="node26" class="node"><title>Node26</title>
<g id="a_node26"><a xlink:href="classMWWorld_1_1ProjectileManager.html#a10e1c50b640ed158c9332d75c870c8c5" target="_top" xlink:title="MWWorld::ProjectileManager\l::update">
<polygon fill="white" stroke="black" points="1250,-279 1250,-309 1400,-309 1400,-279 1250,-279"/>
<text text-anchor="start" x="1258" y="-297" font-family="FreeSans" font-size="10.00">MWWorld::ProjectileManager</text>
<text text-anchor="middle" x="1325" y="-286" font-family="FreeSans" font-size="10.00">::update</text>
</a>
</g>
</g>
<!-- Node25&#45;&gt;Node26 -->
<g id="edge29" class="edge"><title>Node25&#45;&gt;Node26</title>
<path fill="none" stroke="midnightblue" d="M1208.19,-287.326C1222.06,-287.192 1236.34,-287.236 1249.93,-287.456"/>
<polygon fill="midnightblue" stroke="midnightblue" points="1208.14,-283.826 1198.19,-287.454 1208.23,-290.825 1208.14,-283.826"/>
</g>
<!-- Node26&#45;&gt;Node25 -->
<g id="edge32" class="edge"><title>Node26&#45;&gt;Node25</title>
<path fill="none" stroke="midnightblue" d="M1239.93,-300.673C1226.07,-300.808 1211.79,-300.765 1198.19,-300.546"/>
<polygon fill="midnightblue" stroke="midnightblue" points="1239.98,-304.173 1249.93,-300.544 1239.89,-297.174 1239.98,-304.173"/>
</g>
<!-- Node27 -->
<g id="node27" class="node"><title>Node27</title>
<g id="a_node27"><a xlink:href="classMWWorld_1_1ProjectileManager.html#ad7f820af09ff0d1c510ad52b9db7cefa" target="_top" xlink:title="MWWorld::ProjectileManager\l::moveMagicBolts">
<polygon fill="white" stroke="black" points="1452,-279 1452,-309 1602,-309 1602,-279 1452,-279"/>
<text text-anchor="start" x="1460" y="-297" font-family="FreeSans" font-size="10.00">MWWorld::ProjectileManager</text>
<text text-anchor="middle" x="1527" y="-286" font-family="FreeSans" font-size="10.00">::moveMagicBolts</text>
</a>
</g>
</g>
<!-- Node26&#45;&gt;Node27 -->
<g id="edge30" class="edge"><title>Node26&#45;&gt;Node27</title>
<path fill="none" stroke="midnightblue" d="M1410.19,-287.326C1424.06,-287.192 1438.34,-287.236 1451.93,-287.456"/>
<polygon fill="midnightblue" stroke="midnightblue" points="1410.14,-283.826 1400.19,-287.454 1410.23,-290.825 1410.14,-283.826"/>
</g>
<!-- Node27&#45;&gt;Node26 -->
<g id="edge31" class="edge"><title>Node27&#45;&gt;Node26</title>
<path fill="none" stroke="midnightblue" d="M1441.93,-300.673C1428.07,-300.808 1413.79,-300.765 1400.19,-300.546"/>
<polygon fill="midnightblue" stroke="midnightblue" points="1441.98,-304.173 1451.93,-300.544 1441.89,-297.174 1441.98,-304.173"/>
</g>
<!-- Node29 -->
<g id="node29" class="node"><title>Node29</title>
<g id="a_node29"><a xlink:href="classMWMechanics_1_1MechanicsManager.html#ad141d9d144db43c95491ecf5ab52762a" target="_top" xlink:title="MWMechanics::MechanicsManager\l::sleepInBed">
<polygon fill="white" stroke="black" points="829,-235 829,-265 1011,-265 1011,-235 829,-235"/>
<text text-anchor="start" x="837" y="-253" font-family="FreeSans" font-size="10.00">MWMechanics::MechanicsManager</text>
<text text-anchor="middle" x="920" y="-242" font-family="FreeSans" font-size="10.00">::sleepInBed</text>
</a>
</g>
</g>
<!-- Node28&#45;&gt;Node29 -->
<g id="edge34" class="edge"><title>Node28&#45;&gt;Node29</title>
<path fill="none" stroke="midnightblue" d="M777.781,-218.258C802.072,-223.718 828.708,-229.705 852.238,-234.994"/>
<polygon fill="midnightblue" stroke="midnightblue" points="778.413,-214.813 767.889,-216.035 776.878,-221.642 778.413,-214.813"/>
</g>
<!-- Node30 -->
<g id="node30" class="node"><title>Node30</title>
<g id="a_node30"><a xlink:href="classMWMechanics_1_1MechanicsManager.html#addb42f0c5d68deeaeafb8c763a3d67d1" target="_top" xlink:title="Utility to check if opening (i.e. unlocking) this object is illegal and calling commitCrime if so...">
<polygon fill="white" stroke="black" points="829,-186 829,-216 1011,-216 1011,-186 829,-186"/>
<text text-anchor="start" x="837" y="-204" font-family="FreeSans" font-size="10.00">MWMechanics::MechanicsManager</text>
<text text-anchor="middle" x="920" y="-193" font-family="FreeSans" font-size="10.00">::objectOpened</text>
</a>
</g>
</g>
<!-- Node28&#45;&gt;Node30 -->
<g id="edge35" class="edge"><title>Node28&#45;&gt;Node30</title>
<path fill="none" stroke="midnightblue" d="M801.489,-201C810.607,-201 819.805,-201 828.825,-201"/>
<polygon fill="midnightblue" stroke="midnightblue" points="801.243,-197.5 791.243,-201 801.243,-204.5 801.243,-197.5"/>
</g>
<!-- Node31 -->
<g id="node31" class="node"><title>Node31</title>
<g id="a_node31"><a xlink:href="classMWMechanics_1_1MechanicsManager.html#a4bd88c829695528534252955ac6ceeaf" target="_top" xlink:title="MWMechanics::MechanicsManager\l::itemTaken">
<polygon fill="white" stroke="black" points="829,-137 829,-167 1011,-167 1011,-137 829,-137"/>
<text text-anchor="start" x="837" y="-155" font-family="FreeSans" font-size="10.00">MWMechanics::MechanicsManager</text>
<text text-anchor="middle" x="920" y="-144" font-family="FreeSans" font-size="10.00">::itemTaken</text>
</a>
</g>
</g>
<!-- Node28&#45;&gt;Node31 -->
<g id="edge36" class="edge"><title>Node28&#45;&gt;Node31</title>
<path fill="none" stroke="midnightblue" d="M777.781,-183.742C802.072,-178.282 828.708,-172.295 852.238,-167.006"/>
<polygon fill="midnightblue" stroke="midnightblue" points="776.878,-180.358 767.889,-185.965 778.413,-187.187 776.878,-180.358"/>
</g>
<!-- Node32 -->
<g id="node32" class="node"><title>Node32</title>
<g id="a_node32"><a xlink:href="classMWMechanics_1_1MechanicsManager.html#ac0295fc090e45cda7afb12f54cdb3ff4" target="_top" xlink:title="MWMechanics::MechanicsManager\l::actorAttacked">
<polygon fill="white" stroke="black" points="829,-88 829,-118 1011,-118 1011,-88 829,-88"/>
<text text-anchor="start" x="837" y="-106" font-family="FreeSans" font-size="10.00">MWMechanics::MechanicsManager</text>
<text text-anchor="middle" x="920" y="-95" font-family="FreeSans" font-size="10.00">::actorAttacked</text>
</a>
</g>
</g>
<!-- Node28&#45;&gt;Node32 -->
<g id="edge37" class="edge"><title>Node28&#45;&gt;Node32</title>
<path fill="none" stroke="midnightblue" d="M782.808,-181.562C785.997,-179.861 789.077,-178.011 792,-176 814.263,-160.683 805.659,-142.203 828,-127 832.998,-123.599 838.452,-120.68 844.126,-118.174"/>
<polygon fill="midnightblue" stroke="midnightblue" points="781.086,-178.506 773.571,-185.975 784.103,-184.823 781.086,-178.506"/>
</g>
<!-- Node33 -->
<g id="node33" class="node"><title>Node33</title>
<g id="a_node33"><a xlink:href="classMWMechanics_1_1MechanicsManager.html#a3d920d72d10bae37ab7b70ce39d17a93" target="_top" xlink:title="MWMechanics::MechanicsManager\l::actorKilled">
<polygon fill="white" stroke="black" points="829,-39 829,-69 1011,-69 1011,-39 829,-39"/>
<text text-anchor="start" x="837" y="-57" font-family="FreeSans" font-size="10.00">MWMechanics::MechanicsManager</text>
<text text-anchor="middle" x="920" y="-46" font-family="FreeSans" font-size="10.00">::actorKilled</text>
</a>
</g>
</g>
<!-- Node28&#45;&gt;Node33 -->
<g id="edge38" class="edge"><title>Node28&#45;&gt;Node33</title>
<path fill="none" stroke="midnightblue" d="M786.6,-180.442C788.48,-179.055 790.285,-177.577 792,-176 826.158,-144.595 793.681,-109.23 828,-78 831.746,-74.591 835.919,-71.6558 840.361,-69.1294"/>
<polygon fill="midnightblue" stroke="midnightblue" points="784.49,-177.636 777.924,-185.951 788.242,-183.545 784.49,-177.636"/>
</g>
<!-- Node38 -->
<g id="node38" class="node"><title>Node38</title>
<g id="a_node38"><a xlink:href="classMWWorld_1_1World.html#abf77486e8f0325210afe56bbe2021960" target="_top" xlink:title="MWWorld::World::update">
<polygon fill="white" stroke="black" points="635,-49.5 635,-68.5 765,-68.5 765,-49.5 635,-49.5"/>
<text text-anchor="middle" x="700" y="-56.5" font-family="FreeSans" font-size="10.00">MWWorld::World::update</text>
</a>
</g>
</g>
<!-- Node37&#45;&gt;Node38 -->
<g id="edge43" class="edge"><title>Node37&#45;&gt;Node38</title>
<path fill="none" stroke="midnightblue" d="M555.88,-80.0084C581.561,-76.2388 610.052,-72.0566 634.809,-68.4226"/>
<polygon fill="midnightblue" stroke="midnightblue" points="555.203,-76.5703 545.817,-81.4856 556.219,-83.4961 555.203,-76.5703"/>
</g>
<!-- Node39 -->
<g id="node39" class="node"><title>Node39</title>
<g id="a_node39"><a xlink:href="classMWWorld_1_1World.html#ab658191aa2c94a4ea8256db10678c102" target="_top" xlink:title="MWWorld::World::createRecord">
<polygon fill="white" stroke="black" points="840.5,-0.5 840.5,-19.5 999.5,-19.5 999.5,-0.5 840.5,-0.5"/>
<text text-anchor="middle" x="920" y="-7.5" font-family="FreeSans" font-size="10.00">MWWorld::World::createRecord</text>
</a>
</g>
</g>
<!-- Node38&#45;&gt;Node39 -->
<g id="edge44" class="edge"><title>Node38&#45;&gt;Node39</title>
<path fill="none" stroke="midnightblue" d="M749.894,-47.135C773.467,-41.4955 802.167,-34.7469 828,-29 842.336,-25.8107 857.979,-22.4879 872.188,-19.5297"/>
<polygon fill="midnightblue" stroke="midnightblue" points="749.037,-43.7414 740.129,-49.4779 750.67,-50.5482 749.037,-43.7414"/>
</g>
</g>
</svg>
