<?xml version="1.0" encoding="UTF-8" standalone="no"?>
<!DOCTYPE svg PUBLIC "-//W3C//DTD SVG 1.1//EN"
 "http://www.w3.org/Graphics/SVG/1.1/DTD/svg11.dtd">
<!-- Generated by graphviz version 2.36.0 (20140111.2315)
 -->
<!-- Title: MWGui::TravelWindow::exit Pages: 1 -->
<svg width="308pt" height="126pt"
 viewBox="0.00 0.00 308.00 126.00" xmlns="http://www.w3.org/2000/svg" xmlns:xlink="http://www.w3.org/1999/xlink">
<g id="graph0" class="graph" transform="scale(1 1) rotate(0) translate(4 122)">
<title>MWGui::TravelWindow::exit</title>
<polygon fill="white" stroke="none" points="-4,4 -4,-122 304,-122 304,4 -4,4"/>
<!-- Node1 -->
<g id="node1" class="node"><title>Node1</title>
<polygon fill="#bfbfbf" stroke="black" points="0.5,-49 0.5,-79 117.5,-79 117.5,-49 0.5,-49"/>
<text text-anchor="start" x="8.5" y="-67" font-family="FreeSans" font-size="10.00">MWGui::TravelWindow</text>
<text text-anchor="middle" x="59" y="-56" font-family="FreeSans" font-size="10.00">::exit</text>
</g>
<!-- Node2 -->
<g id="node2" class="node"><title>Node2</title>
<g id="a_node2"><a xlink:href="classMWBase_1_1Environment.html#a73f12633762b049c03c80fe215873faa" target="_top" xlink:title="Return instance of this class. ">
<polygon fill="white" stroke="black" points="154,-98.5 154,-117.5 300,-117.5 300,-98.5 154,-98.5"/>
<text text-anchor="middle" x="227" y="-105.5" font-family="FreeSans" font-size="10.00">MWBase::Environment::get</text>
</a>
</g>
</g>
<!-- Node1&#45;&gt;Node2 -->
<g id="edge1" class="edge"><title>Node1&#45;&gt;Node2</title>
<path fill="none" stroke="midnightblue" d="M116.663,-79.0192C137.299,-84.4888 160.357,-90.6007 179.959,-95.7964"/>
<polygon fill="midnightblue" stroke="midnightblue" points="179.301,-99.2427 189.864,-98.4217 181.094,-92.4763 179.301,-99.2427"/>
</g>
<!-- Node3 -->
<g id="node3" class="node"><title>Node3</title>
<g id="a_node3"><a xlink:href="classMWBase_1_1Environment.html#aeeef9a580df0312f0a9b7380488dea21" target="_top" xlink:title="MWBase::Environment\l::getWindowManager">
<polygon fill="white" stroke="black" points="165,-49 165,-79 289,-79 289,-49 165,-49"/>
<text text-anchor="start" x="173" y="-67" font-family="FreeSans" font-size="10.00">MWBase::Environment</text>
<text text-anchor="middle" x="227" y="-56" font-family="FreeSans" font-size="10.00">::getWindowManager</text>
</a>
</g>
</g>
<!-- Node1&#45;&gt;Node3 -->
<g id="edge2" class="edge"><title>Node1&#45;&gt;Node3</title>
<path fill="none" stroke="midnightblue" d="M117.593,-64C129.518,-64 142.217,-64 154.567,-64"/>
<polygon fill="midnightblue" stroke="midnightblue" points="154.835,-67.5001 164.835,-64 154.835,-60.5001 154.835,-67.5001"/>
</g>
<!-- Node4 -->
<g id="node4" class="node"><title>Node4</title>
<g id="a_node4"><a xlink:href="classMWBase_1_1WindowManager.html#ab36f5f1555718fb7cdfa2683a5779356" target="_top" xlink:title="can be anywhere in the stack ">
<polygon fill="white" stroke="black" points="157,-0 157,-30 297,-30 297,-0 157,-0"/>
<text text-anchor="start" x="165" y="-18" font-family="FreeSans" font-size="10.00">MWBase::WindowManager</text>
<text text-anchor="middle" x="227" y="-7" font-family="FreeSans" font-size="10.00">::removeGuiMode</text>
</a>
</g>
</g>
<!-- Node1&#45;&gt;Node4 -->
<g id="edge3" class="edge"><title>Node1&#45;&gt;Node4</title>
<path fill="none" stroke="midnightblue" d="M111.16,-48.8986C128.281,-43.8449 147.532,-38.1624 165.308,-32.9152"/>
<polygon fill="midnightblue" stroke="midnightblue" points="166.409,-36.2395 175.009,-30.0516 164.427,-29.5259 166.409,-36.2395"/>
</g>
</g>
</svg>
