<?xml version="1.0" encoding="UTF-8" standalone="no"?>
<!DOCTYPE svg PUBLIC "-//W3C//DTD SVG 1.1//EN"
 "http://www.w3.org/Graphics/SVG/1.1/DTD/svg11.dtd">
<!-- Generated by graphviz version 2.36.0 (20140111.2315)
 -->
<!-- Title: Terrain::TerrainGrid::updateTextureFiltering Pages: 1 -->
<svg width="318pt" height="87pt"
 viewBox="0.00 0.00 318.00 87.00" xmlns="http://www.w3.org/2000/svg" xmlns:xlink="http://www.w3.org/1999/xlink">
<g id="graph0" class="graph" transform="scale(1 1) rotate(0) translate(4 83)">
<title>Terrain::TerrainGrid::updateTextureFiltering</title>
<polygon fill="white" stroke="none" points="-4,4 -4,-83 314,-83 314,4 -4,4"/>
<!-- Node1 -->
<g id="node1" class="node"><title>Node1</title>
<polygon fill="#bfbfbf" stroke="black" points="0,-24 0,-54 128,-54 128,-24 0,-24"/>
<text text-anchor="start" x="8" y="-42" font-family="FreeSans" font-size="10.00">Terrain::TerrainGrid</text>
<text text-anchor="middle" x="64" y="-31" font-family="FreeSans" font-size="10.00">::updateTextureFiltering</text>
</g>
<!-- Node2 -->
<g id="node2" class="node"><title>Node2</title>
<g id="a_node2"><a xlink:href="classResource_1_1ResourceSystem.html#a08d6f53366084e39ff8f5d336ba74b5f" target="_top" xlink:title="Resource::ResourceSystem\l::getSceneManager">
<polygon fill="white" stroke="black" points="164,-49 164,-79 310,-79 310,-49 164,-49"/>
<text text-anchor="start" x="172" y="-67" font-family="FreeSans" font-size="10.00">Resource::ResourceSystem</text>
<text text-anchor="middle" x="237" y="-56" font-family="FreeSans" font-size="10.00">::getSceneManager</text>
</a>
</g>
</g>
<!-- Node1&#45;&gt;Node2 -->
<g id="edge1" class="edge"><title>Node1&#45;&gt;Node2</title>
<path fill="none" stroke="midnightblue" d="M128.188,-48.238C136.531,-49.4577 145.178,-50.7219 153.781,-51.9797"/>
<polygon fill="midnightblue" stroke="midnightblue" points="153.438,-55.4666 163.839,-53.4501 154.45,-48.5402 153.438,-55.4666"/>
</g>
<!-- Node3 -->
<g id="node3" class="node"><title>Node3</title>
<g id="a_node3"><a xlink:href="classResource_1_1SceneManager.html#a1fe71df9797650ddcb35b7d6dc8eb894" target="_top" xlink:title="Resource::SceneManager\l::applyFilterSettings">
<polygon fill="white" stroke="black" points="168,-0 168,-30 306,-30 306,-0 168,-0"/>
<text text-anchor="start" x="176" y="-18" font-family="FreeSans" font-size="10.00">Resource::SceneManager</text>
<text text-anchor="middle" x="237" y="-7" font-family="FreeSans" font-size="10.00">::applyFilterSettings</text>
</a>
</g>
</g>
<!-- Node1&#45;&gt;Node3 -->
<g id="edge2" class="edge"><title>Node1&#45;&gt;Node3</title>
<path fill="none" stroke="midnightblue" d="M128.188,-30.1315C137.892,-28.7695 148.009,-27.3496 157.988,-25.949"/>
<polygon fill="midnightblue" stroke="midnightblue" points="158.485,-29.4136 167.902,-24.5576 157.512,-22.4816 158.485,-29.4136"/>
</g>
</g>
</svg>
