<?xml version="1.0" encoding="UTF-8" standalone="no"?>
<!DOCTYPE svg PUBLIC "-//W3C//DTD SVG 1.1//EN"
 "http://www.w3.org/Graphics/SVG/1.1/DTD/svg11.dtd">
<!-- Generated by graphviz version 2.36.0 (20140111.2315)
 -->
<!-- Title: MWGui::Widgets::MWEffectList::setEffectList Pages: 1 -->
<svg width="1194pt" height="294pt"
 viewBox="0.00 0.00 1194.00 294.35" xmlns="http://www.w3.org/2000/svg" xmlns:xlink="http://www.w3.org/1999/xlink">
<g id="graph0" class="graph" transform="scale(1 1) rotate(0) translate(4 290.35)">
<title>MWGui::Widgets::MWEffectList::setEffectList</title>
<polygon fill="white" stroke="none" points="-4,4 -4,-290.35 1190,-290.35 1190,4 -4,4"/>
<!-- Node1 -->
<g id="node1" class="node"><title>Node1</title>
<polygon fill="#bfbfbf" stroke="black" points="0,-115 0,-145 142,-145 142,-115 0,-115"/>
<text text-anchor="start" x="8" y="-133" font-family="FreeSans" font-size="10.00">MWGui::Widgets::MWEffect</text>
<text text-anchor="middle" x="71" y="-122" font-family="FreeSans" font-size="10.00">List::setEffectList</text>
</g>
<!-- Node2 -->
<g id="node2" class="node"><title>Node2</title>
<g id="a_node2"><a xlink:href="classMWGui_1_1AlchemyWindow.html#aa1bab38729e7102e236d50e79c991fc9" target="_top" xlink:title="MWGui::AlchemyWindow\l::update">
<polygon fill="white" stroke="black" points="192.5,-164 192.5,-194 323.5,-194 323.5,-164 192.5,-164"/>
<text text-anchor="start" x="200.5" y="-182" font-family="FreeSans" font-size="10.00">MWGui::AlchemyWindow</text>
<text text-anchor="middle" x="258" y="-171" font-family="FreeSans" font-size="10.00">::update</text>
</a>
</g>
</g>
<!-- Node1&#45;&gt;Node2 -->
<g id="edge1" class="edge"><title>Node1&#45;&gt;Node2</title>
<path fill="none" stroke="midnightblue" d="M138.535,-147.623C158.775,-152.984 180.82,-158.823 200.344,-163.994"/>
<polygon fill="midnightblue" stroke="midnightblue" points="139.326,-144.212 128.763,-145.035 137.534,-150.978 139.326,-144.212"/>
</g>
<!-- Node11 -->
<g id="node11" class="node"><title>Node11</title>
<g id="a_node11"><a xlink:href="classMWGui_1_1ToolTips.html#a073308c5f3363912d73c4583c53a5ff1" target="_top" xlink:title="MWGui::ToolTips::createToolTip">
<polygon fill="white" stroke="black" points="178,-71.5 178,-90.5 338,-90.5 338,-71.5 178,-71.5"/>
<text text-anchor="middle" x="258" y="-78.5" font-family="FreeSans" font-size="10.00">MWGui::ToolTips::createToolTip</text>
</a>
</g>
</g>
<!-- Node1&#45;&gt;Node11 -->
<g id="edge15" class="edge"><title>Node1&#45;&gt;Node11</title>
<path fill="none" stroke="midnightblue" d="M138.454,-112.399C166.308,-105.021 197.593,-96.7348 221.027,-90.528"/>
<polygon fill="midnightblue" stroke="midnightblue" points="137.534,-109.022 128.763,-114.965 139.326,-115.788 137.534,-109.022"/>
</g>
<!-- Node3 -->
<g id="node3" class="node"><title>Node3</title>
<g id="a_node3"><a xlink:href="classMWGui_1_1AlchemyWindow.html#a1397ecac4ed942788beb244e9a49af95" target="_top" xlink:title="MWGui::AlchemyWindow\l::createPotions">
<polygon fill="white" stroke="black" points="542.5,-216 542.5,-246 673.5,-246 673.5,-216 542.5,-216"/>
<text text-anchor="start" x="550.5" y="-234" font-family="FreeSans" font-size="10.00">MWGui::AlchemyWindow</text>
<text text-anchor="middle" x="608" y="-223" font-family="FreeSans" font-size="10.00">::createPotions</text>
</a>
</g>
</g>
<!-- Node2&#45;&gt;Node3 -->
<g id="edge2" class="edge"><title>Node2&#45;&gt;Node3</title>
<path fill="none" stroke="midnightblue" d="M277.852,-201.931C298.604,-225.19 334.327,-259.732 374,-274 429.205,-293.853 448.517,-285.727 506,-274 532.142,-268.667 559.898,-256.307 579.684,-246.2"/>
<polygon fill="midnightblue" stroke="midnightblue" points="280.357,-199.477 271.154,-194.227 275.074,-204.07 280.357,-199.477"/>
</g>
<!-- Node7 -->
<g id="node7" class="node"><title>Node7</title>
<g id="a_node7"><a xlink:href="classMWGui_1_1AlchemyWindow.html#a81bd2ae3af336bd34f55c2ce34298ae6" target="_top" xlink:title="Notify that window has been made visible. ">
<polygon fill="white" stroke="black" points="374.5,-235 374.5,-265 505.5,-265 505.5,-235 374.5,-235"/>
<text text-anchor="start" x="382.5" y="-253" font-family="FreeSans" font-size="10.00">MWGui::AlchemyWindow</text>
<text text-anchor="middle" x="440" y="-242" font-family="FreeSans" font-size="10.00">::onOpen</text>
</a>
</g>
</g>
<!-- Node2&#45;&gt;Node7 -->
<g id="edge7" class="edge"><title>Node2&#45;&gt;Node7</title>
<path fill="none" stroke="midnightblue" d="M305.534,-197.777C326.44,-206.171 351.433,-216.147 374,-225 382.217,-228.223 391.033,-231.641 399.438,-234.88"/>
<polygon fill="midnightblue" stroke="midnightblue" points="306.824,-194.523 296.24,-194.042 304.213,-201.019 306.824,-194.523"/>
</g>
<!-- Node8 -->
<g id="node8" class="node"><title>Node8</title>
<g id="a_node8"><a xlink:href="classMWGui_1_1AlchemyWindow.html#a6306c2e34063ccce982ada7c1d2df9ef" target="_top" xlink:title="MWGui::AlchemyWindow\l::onIngredientSelected">
<polygon fill="white" stroke="black" points="542.5,-148 542.5,-178 673.5,-178 673.5,-148 542.5,-148"/>
<text text-anchor="start" x="550.5" y="-166" font-family="FreeSans" font-size="10.00">MWGui::AlchemyWindow</text>
<text text-anchor="middle" x="608" y="-155" font-family="FreeSans" font-size="10.00">::onIngredientSelected</text>
</a>
</g>
</g>
<!-- Node2&#45;&gt;Node8 -->
<g id="edge8" class="edge"><title>Node2&#45;&gt;Node8</title>
<path fill="none" stroke="midnightblue" d="M333.768,-175.562C395.872,-172.707 483.311,-168.687 542.411,-165.97"/>
<polygon fill="midnightblue" stroke="midnightblue" points="333.469,-172.072 323.641,-176.028 333.791,-179.065 333.469,-172.072"/>
</g>
<!-- Node9 -->
<g id="node9" class="node"><title>Node9</title>
<g id="a_node9"><a xlink:href="classMWGui_1_1AlchemyWindow.html#a6b9290672acd4904fb41ddeda58d3e0b" target="_top" xlink:title="MWGui::AlchemyWindow\l::onSelectedItem">
<polygon fill="white" stroke="black" points="714.5,-104 714.5,-134 845.5,-134 845.5,-104 714.5,-104"/>
<text text-anchor="start" x="722.5" y="-122" font-family="FreeSans" font-size="10.00">MWGui::AlchemyWindow</text>
<text text-anchor="middle" x="780" y="-111" font-family="FreeSans" font-size="10.00">::onSelectedItem</text>
</a>
</g>
</g>
<!-- Node2&#45;&gt;Node9 -->
<g id="edge10" class="edge"><title>Node2&#45;&gt;Node9</title>
<path fill="none" stroke="midnightblue" d="M333.758,-166.839C390.714,-157.898 471.143,-145.965 542,-138 600.145,-131.464 666.562,-126.341 714.264,-123.07"/>
<polygon fill="midnightblue" stroke="midnightblue" points="333.092,-163.401 323.759,-168.416 334.183,-170.316 333.092,-163.401"/>
</g>
<!-- Node10 -->
<g id="node10" class="node"><title>Node10</title>
<g id="a_node10"><a xlink:href="classMWGui_1_1AlchemyWindow.html#a0431efa0e06b814857380ed090813fe9" target="_top" xlink:title="MWGui::AlchemyWindow\l::removeIngredient">
<polygon fill="white" stroke="black" points="374.5,-186 374.5,-216 505.5,-216 505.5,-186 374.5,-186"/>
<text text-anchor="start" x="382.5" y="-204" font-family="FreeSans" font-size="10.00">MWGui::AlchemyWindow</text>
<text text-anchor="middle" x="440" y="-193" font-family="FreeSans" font-size="10.00">::removeIngredient</text>
</a>
</g>
</g>
<!-- Node2&#45;&gt;Node10 -->
<g id="edge12" class="edge"><title>Node2&#45;&gt;Node10</title>
<path fill="none" stroke="midnightblue" d="M333.872,-188.151C347.279,-189.79 361.147,-191.485 374.24,-193.085"/>
<polygon fill="midnightblue" stroke="midnightblue" points="334.081,-184.651 323.73,-186.911 333.231,-191.599 334.081,-184.651"/>
</g>
<!-- Node4 -->
<g id="node4" class="node"><title>Node4</title>
<g id="a_node4"><a xlink:href="classMWGui_1_1AlchemyWindow.html#ab93696d19cb8f6380fbb97fff8691abd" target="_top" xlink:title="MWGui::AlchemyWindow\l::onCreateButtonClicked">
<polygon fill="white" stroke="black" points="713.5,-216 713.5,-246 846.5,-246 846.5,-216 713.5,-216"/>
<text text-anchor="start" x="721.5" y="-234" font-family="FreeSans" font-size="10.00">MWGui::AlchemyWindow</text>
<text text-anchor="middle" x="780" y="-223" font-family="FreeSans" font-size="10.00">::onCreateButtonClicked</text>
</a>
</g>
</g>
<!-- Node3&#45;&gt;Node4 -->
<g id="edge3" class="edge"><title>Node3&#45;&gt;Node4</title>
<path fill="none" stroke="midnightblue" d="M683.88,-231C693.681,-231 703.664,-231 713.298,-231"/>
<polygon fill="midnightblue" stroke="midnightblue" points="683.755,-227.5 673.755,-231 683.755,-234.5 683.755,-227.5"/>
</g>
<!-- Node5 -->
<g id="node5" class="node"><title>Node5</title>
<g id="a_node5"><a xlink:href="classMWGui_1_1AlchemyWindow.html#ab120f82cc37f27f45c7fb142a7c45849" target="_top" xlink:title="MWGui::AlchemyWindow\l::AlchemyWindow">
<polygon fill="white" stroke="black" points="1054.5,-170 1054.5,-200 1185.5,-200 1185.5,-170 1054.5,-170"/>
<text text-anchor="start" x="1062.5" y="-188" font-family="FreeSans" font-size="10.00">MWGui::AlchemyWindow</text>
<text text-anchor="middle" x="1120" y="-177" font-family="FreeSans" font-size="10.00">::AlchemyWindow</text>
</a>
</g>
</g>
<!-- Node4&#45;&gt;Node5 -->
<g id="edge4" class="edge"><title>Node4&#45;&gt;Node5</title>
<path fill="none" stroke="midnightblue" d="M856.773,-239.119C903.731,-242.159 964.992,-242.503 1018,-231 1045.3,-225.075 1074.08,-211.105 1093.9,-200.103"/>
<polygon fill="midnightblue" stroke="midnightblue" points="856.897,-235.619 846.676,-238.41 856.406,-242.602 856.897,-235.619"/>
</g>
<!-- Node6 -->
<g id="node6" class="node"><title>Node6</title>
<g id="a_node6"><a xlink:href="classMWGui_1_1AlchemyWindow.html#a50b564c1fde2e258f16354358da2c5fb" target="_top" xlink:title="MWGui::AlchemyWindow\l::onAccept">
<polygon fill="white" stroke="black" points="886.5,-192 886.5,-222 1017.5,-222 1017.5,-192 886.5,-192"/>
<text text-anchor="start" x="894.5" y="-210" font-family="FreeSans" font-size="10.00">MWGui::AlchemyWindow</text>
<text text-anchor="middle" x="952" y="-199" font-family="FreeSans" font-size="10.00">::onAccept</text>
</a>
</g>
</g>
<!-- Node4&#45;&gt;Node6 -->
<g id="edge5" class="edge"><title>Node4&#45;&gt;Node6</title>
<path fill="none" stroke="midnightblue" d="M856.875,-220.288C866.693,-218.902 876.674,-217.493 886.288,-216.136"/>
<polygon fill="midnightblue" stroke="midnightblue" points="856.139,-216.857 846.726,-221.721 857.118,-223.789 856.139,-216.857"/>
</g>
<!-- Node6&#45;&gt;Node5 -->
<g id="edge6" class="edge"><title>Node6&#45;&gt;Node5</title>
<path fill="none" stroke="midnightblue" d="M1027.61,-197.112C1036.5,-195.934 1045.52,-194.739 1054.25,-193.582"/>
<polygon fill="midnightblue" stroke="midnightblue" points="1027.11,-193.648 1017.66,-198.431 1028.03,-200.587 1027.11,-193.648"/>
</g>
<!-- Node8&#45;&gt;Node5 -->
<g id="edge9" class="edge"><title>Node8&#45;&gt;Node5</title>
<path fill="none" stroke="midnightblue" d="M683.618,-166.219C783.595,-170.532 959.385,-178.115 1054.13,-182.202"/>
<polygon fill="midnightblue" stroke="midnightblue" points="683.733,-162.721 673.592,-165.786 683.432,-169.714 683.733,-162.721"/>
</g>
<!-- Node9&#45;&gt;Node5 -->
<g id="edge11" class="edge"><title>Node9&#45;&gt;Node5</title>
<path fill="none" stroke="midnightblue" d="M855.657,-124.282C902.696,-128.632 964.442,-136.225 1018,-149 1039.91,-154.226 1063.67,-162.554 1082.64,-169.885"/>
<polygon fill="midnightblue" stroke="midnightblue" points="855.822,-120.782 845.55,-123.376 855.197,-127.755 855.822,-120.782"/>
</g>
<!-- Node10&#45;&gt;Node3 -->
<g id="edge13" class="edge"><title>Node10&#45;&gt;Node3</title>
<path fill="none" stroke="midnightblue" d="M515.612,-214.484C524.499,-216.09 533.515,-217.72 542.248,-219.298"/>
<polygon fill="midnightblue" stroke="midnightblue" points="516.118,-211.019 505.655,-212.685 514.873,-217.907 516.118,-211.019"/>
</g>
<!-- Node10&#45;&gt;Node8 -->
<g id="edge14" class="edge"><title>Node10&#45;&gt;Node8</title>
<path fill="none" stroke="midnightblue" d="M515.612,-183.92C524.499,-181.886 533.515,-179.822 542.248,-177.823"/>
<polygon fill="midnightblue" stroke="midnightblue" points="514.622,-180.556 505.655,-186.199 516.184,-187.38 514.622,-180.556"/>
</g>
<!-- Node12 -->
<g id="node12" class="node"><title>Node12</title>
<g id="a_node12"><a xlink:href="classMWGui_1_1ToolTips.html#af97a82d710afa9aad808f15f49c38547" target="_top" xlink:title="MWGui::ToolTips::update">
<polygon fill="white" stroke="black" points="542.5,-43.5 542.5,-62.5 673.5,-62.5 673.5,-43.5 542.5,-43.5"/>
<text text-anchor="middle" x="608" y="-50.5" font-family="FreeSans" font-size="10.00">MWGui::ToolTips::update</text>
</a>
</g>
</g>
<!-- Node11&#45;&gt;Node12 -->
<g id="edge16" class="edge"><title>Node11&#45;&gt;Node12</title>
<path fill="none" stroke="midnightblue" d="M348.736,-73.7799C409.366,-68.9016 487.99,-62.5755 542.483,-58.191"/>
<polygon fill="midnightblue" stroke="midnightblue" points="348.089,-70.3205 338.402,-74.6113 348.651,-77.298 348.089,-70.3205"/>
</g>
<!-- Node16 -->
<g id="node16" class="node"><title>Node16</title>
<g id="a_node16"><a xlink:href="classMWGui_1_1ToolTips.html#ae007ee95f97ae85091ced1789697cd4c" target="_top" xlink:title="MWGui::ToolTips::getTool\lTipViaPtr">
<polygon fill="white" stroke="black" points="374.5,-22 374.5,-52 505.5,-52 505.5,-22 374.5,-22"/>
<text text-anchor="start" x="382.5" y="-40" font-family="FreeSans" font-size="10.00">MWGui::ToolTips::getTool</text>
<text text-anchor="middle" x="440" y="-29" font-family="FreeSans" font-size="10.00">TipViaPtr</text>
</a>
</g>
</g>
<!-- Node11&#45;&gt;Node16 -->
<g id="edge20" class="edge"><title>Node11&#45;&gt;Node16</title>
<path fill="none" stroke="midnightblue" d="M307.907,-69.045C329.319,-63.8108 354.683,-57.6107 377.369,-52.0654"/>
<polygon fill="midnightblue" stroke="midnightblue" points="306.94,-65.6782 298.057,-71.4527 308.602,-72.4779 306.94,-65.6782"/>
</g>
<!-- Node13 -->
<g id="node13" class="node"><title>Node13</title>
<g id="a_node13"><a xlink:href="classMWGui_1_1ToolTips.html#aa50c7649622f81fa86b1836475129b64" target="_top" xlink:title="MWGui::ToolTips::setFocus\lObject">
<polygon fill="white" stroke="black" points="710,-38 710,-68 850,-68 850,-38 710,-38"/>
<text text-anchor="start" x="718" y="-56" font-family="FreeSans" font-size="10.00">MWGui::ToolTips::setFocus</text>
<text text-anchor="middle" x="780" y="-45" font-family="FreeSans" font-size="10.00">Object</text>
</a>
</g>
</g>
<!-- Node12&#45;&gt;Node13 -->
<g id="edge17" class="edge"><title>Node12&#45;&gt;Node13</title>
<path fill="none" stroke="midnightblue" d="M683.84,-53C692.506,-53 701.314,-53 709.899,-53"/>
<polygon fill="midnightblue" stroke="midnightblue" points="683.755,-49.5001 673.755,-53 683.755,-56.5001 683.755,-49.5001"/>
</g>
<!-- Node14 -->
<g id="node14" class="node"><title>Node14</title>
<g id="a_node14"><a xlink:href="classMWGui_1_1WindowManager.html#a73279617752364728aaa6eeef7dd3850" target="_top" xlink:title="MWGui::WindowManager\l::setFocusObject">
<polygon fill="white" stroke="black" points="886,-49 886,-79 1018,-79 1018,-49 886,-49"/>
<text text-anchor="start" x="894" y="-67" font-family="FreeSans" font-size="10.00">MWGui::WindowManager</text>
<text text-anchor="middle" x="952" y="-56" font-family="FreeSans" font-size="10.00">::setFocusObject</text>
</a>
</g>
</g>
<!-- Node13&#45;&gt;Node14 -->
<g id="edge18" class="edge"><title>Node13&#45;&gt;Node14</title>
<path fill="none" stroke="midnightblue" d="M860.152,-58.1216C868.725,-58.6763 877.378,-59.2362 885.76,-59.7786"/>
<polygon fill="midnightblue" stroke="midnightblue" points="860.351,-54.6272 850.146,-57.4741 859.899,-61.6126 860.351,-54.6272"/>
</g>
<!-- Node15 -->
<g id="node15" class="node"><title>Node15</title>
<g id="a_node15"><a xlink:href="classMWGui_1_1WindowManager.html#a9825efe2509280a4e509c80fdb140513" target="_top" xlink:title="Clear all savegame&#45;specific data. ">
<polygon fill="white" stroke="black" points="886,-0 886,-30 1018,-30 1018,-0 886,-0"/>
<text text-anchor="start" x="894" y="-18" font-family="FreeSans" font-size="10.00">MWGui::WindowManager</text>
<text text-anchor="middle" x="952" y="-7" font-family="FreeSans" font-size="10.00">::clear</text>
</a>
</g>
</g>
<!-- Node13&#45;&gt;Node15 -->
<g id="edge19" class="edge"><title>Node13&#45;&gt;Node15</title>
<path fill="none" stroke="midnightblue" d="M858.19,-35.7457C867.472,-33.6709 876.88,-31.568 885.965,-29.5373"/>
<polygon fill="midnightblue" stroke="midnightblue" points="857.184,-32.3842 848.189,-37.9814 858.711,-39.2156 857.184,-32.3842"/>
</g>
<!-- Node16&#45;&gt;Node12 -->
<g id="edge21" class="edge"><title>Node16&#45;&gt;Node12</title>
<path fill="none" stroke="midnightblue" d="M515.612,-44.1915C524.499,-45.0481 533.515,-45.9171 542.248,-46.7589"/>
<polygon fill="midnightblue" stroke="midnightblue" points="515.945,-40.7075 505.655,-43.2318 515.273,-47.6752 515.945,-40.7075"/>
</g>
</g>
</svg>
