<?xml version="1.0" encoding="UTF-8" standalone="no"?>
<!DOCTYPE svg PUBLIC "-//W3C//DTD SVG 1.1//EN"
 "http://www.w3.org/Graphics/SVG/1.1/DTD/svg11.dtd">
<!-- Generated by graphviz version 2.36.0 (20140111.2315)
 -->
<!-- Title: MWGui::LoadingScreen::LoadingScreen Pages: 1 -->
<svg width="1056pt" height="299pt"
 viewBox="0.00 0.00 1056.00 299.00" xmlns="http://www.w3.org/2000/svg" xmlns:xlink="http://www.w3.org/1999/xlink">
<g id="graph0" class="graph" transform="scale(1 1) rotate(0) translate(4 295)">
<title>MWGui::LoadingScreen::LoadingScreen</title>
<polygon fill="white" stroke="none" points="-4,4 -4,-295 1052,-295 1052,4 -4,4"/>
<!-- Node1 -->
<g id="node1" class="node"><title>Node1</title>
<polygon fill="#bfbfbf" stroke="black" points="0,-142 0,-172 126,-172 126,-142 0,-142"/>
<text text-anchor="start" x="8" y="-160" font-family="FreeSans" font-size="10.00">MWGui::LoadingScreen</text>
<text text-anchor="middle" x="63" y="-149" font-family="FreeSans" font-size="10.00">::LoadingScreen</text>
</g>
<!-- Node2 -->
<g id="node2" class="node"><title>Node2</title>
<g id="a_node2"><a xlink:href="classMWGui_1_1Layout.html#ab4904cbbaf603f098aa0842ce8357aab" target="_top" xlink:title="MWGui::Layout::getWidget">
<polygon fill="white" stroke="black" points="162.5,-191.5 162.5,-210.5 303.5,-210.5 303.5,-191.5 162.5,-191.5"/>
<text text-anchor="middle" x="233" y="-198.5" font-family="FreeSans" font-size="10.00">MWGui::Layout::getWidget</text>
</a>
</g>
</g>
<!-- Node1&#45;&gt;Node2 -->
<g id="edge1" class="edge"><title>Node1&#45;&gt;Node2</title>
<path fill="none" stroke="midnightblue" d="M121.346,-172.019C142.407,-177.535 165.962,-183.704 185.909,-188.928"/>
<polygon fill="midnightblue" stroke="midnightblue" points="185.119,-192.34 195.68,-191.488 186.893,-185.568 185.119,-192.34"/>
</g>
<!-- Node3 -->
<g id="node3" class="node"><title>Node3</title>
<g id="a_node3"><a xlink:href="classMWGui_1_1LoadingScreen.html#a80fda0b20c6a82a6b2ba8752f7e2cd5a" target="_top" xlink:title="Sets the visibility of the window. ">
<polygon fill="white" stroke="black" points="170,-142 170,-172 296,-172 296,-142 170,-142"/>
<text text-anchor="start" x="178" y="-160" font-family="FreeSans" font-size="10.00">MWGui::LoadingScreen</text>
<text text-anchor="middle" x="233" y="-149" font-family="FreeSans" font-size="10.00">::setVisible</text>
</a>
</g>
</g>
<!-- Node1&#45;&gt;Node3 -->
<g id="edge2" class="edge"><title>Node1&#45;&gt;Node3</title>
<path fill="none" stroke="midnightblue" d="M126.08,-157C137.029,-157 148.512,-157 159.712,-157"/>
<polygon fill="midnightblue" stroke="midnightblue" points="159.895,-160.5 169.895,-157 159.895,-153.5 159.895,-160.5"/>
</g>
<!-- Node10 -->
<g id="node10" class="node"><title>Node10</title>
<g id="a_node10"><a xlink:href="classMWGui_1_1LoadingScreen.html#ac66ee4c07988abe3191c578442623982" target="_top" xlink:title="MWGui::LoadingScreen\l::findSplashScreens">
<polygon fill="white" stroke="black" points="170,-86 170,-116 296,-116 296,-86 170,-86"/>
<text text-anchor="start" x="178" y="-104" font-family="FreeSans" font-size="10.00">MWGui::LoadingScreen</text>
<text text-anchor="middle" x="233" y="-93" font-family="FreeSans" font-size="10.00">::findSplashScreens</text>
</a>
</g>
</g>
<!-- Node1&#45;&gt;Node10 -->
<g id="edge9" class="edge"><title>Node1&#45;&gt;Node10</title>
<path fill="none" stroke="midnightblue" d="M109.021,-141.993C130.018,-134.994 155.19,-126.603 177.276,-119.241"/>
<polygon fill="midnightblue" stroke="midnightblue" points="178.475,-122.531 186.855,-116.048 176.261,-115.89 178.475,-122.531"/>
</g>
<!-- Node4 -->
<g id="node4" class="node"><title>Node4</title>
<g id="a_node4"><a xlink:href="classMWGui_1_1WindowBase.html#a4f681670522d795ac3b38f13500ff7ea" target="_top" xlink:title="Sets the visibility of the window. ">
<polygon fill="white" stroke="black" points="370,-156 370,-186 490,-186 490,-156 370,-156"/>
<text text-anchor="start" x="378" y="-174" font-family="FreeSans" font-size="10.00">MWGui::WindowBase::</text>
<text text-anchor="middle" x="430" y="-163" font-family="FreeSans" font-size="10.00">setVisible</text>
</a>
</g>
</g>
<!-- Node3&#45;&gt;Node4 -->
<g id="edge3" class="edge"><title>Node3&#45;&gt;Node4</title>
<path fill="none" stroke="midnightblue" d="M296.235,-161.468C316.446,-162.919 338.994,-164.538 359.688,-166.024"/>
<polygon fill="midnightblue" stroke="midnightblue" points="359.455,-169.516 369.68,-166.741 359.956,-162.534 359.455,-169.516"/>
</g>
<!-- Node5 -->
<g id="node5" class="node"><title>Node5</title>
<g id="a_node5"><a xlink:href="classMWGui_1_1WindowBase.html#ace3dc06d8e89a926cd05fb5f94ac757e" target="_top" xlink:title="Notify that window has been made visible. ">
<polygon fill="white" stroke="black" points="572,-271.5 572,-290.5 716,-290.5 716,-271.5 572,-271.5"/>
<text text-anchor="middle" x="644" y="-278.5" font-family="FreeSans" font-size="10.00">MWGui::WindowBase::open</text>
</a>
</g>
</g>
<!-- Node4&#45;&gt;Node5 -->
<g id="edge4" class="edge"><title>Node4&#45;&gt;Node5</title>
<path fill="none" stroke="midnightblue" d="M447.43,-186.189C470.119,-206.333 513.122,-241.595 556,-261 562.504,-263.943 569.484,-266.475 576.558,-268.648"/>
<polygon fill="midnightblue" stroke="midnightblue" points="575.651,-272.029 586.227,-271.393 577.564,-265.295 575.651,-272.029"/>
</g>
<!-- Node6 -->
<g id="node6" class="node"><title>Node6</title>
<g id="a_node6"><a xlink:href="classMWGui_1_1WindowBase.html#af986f66b831360eceacc01740a0a16fa" target="_top" xlink:title="Notify that window has been hidden. ">
<polygon fill="white" stroke="black" points="584,-222 584,-252 704,-252 704,-222 584,-222"/>
<text text-anchor="start" x="592" y="-240" font-family="FreeSans" font-size="10.00">MWGui::WindowBase::</text>
<text text-anchor="middle" x="644" y="-229" font-family="FreeSans" font-size="10.00">close</text>
</a>
</g>
</g>
<!-- Node4&#45;&gt;Node6 -->
<g id="edge5" class="edge"><title>Node4&#45;&gt;Node6</title>
<path fill="none" stroke="midnightblue" d="M475.418,-186.014C499.244,-193.954 529.149,-203.742 556,-212 563.689,-214.365 571.781,-216.783 579.808,-219.14"/>
<polygon fill="midnightblue" stroke="midnightblue" points="578.956,-222.537 589.536,-221.975 580.915,-215.817 578.956,-222.537"/>
</g>
<!-- Node7 -->
<g id="node7" class="node"><title>Node7</title>
<g id="a_node7"><a xlink:href="classMWBase_1_1Environment.html#a73f12633762b049c03c80fe215873faa" target="_top" xlink:title="Return instance of this class. ">
<polygon fill="white" stroke="black" points="571,-183.5 571,-202.5 717,-202.5 717,-183.5 571,-183.5"/>
<text text-anchor="middle" x="644" y="-190.5" font-family="FreeSans" font-size="10.00">MWBase::Environment::get</text>
</a>
</g>
</g>
<!-- Node4&#45;&gt;Node7 -->
<g id="edge6" class="edge"><title>Node4&#45;&gt;Node7</title>
<path fill="none" stroke="midnightblue" d="M490.054,-177.128C511.923,-179.398 537.134,-182.014 560.697,-184.459"/>
<polygon fill="midnightblue" stroke="midnightblue" points="560.373,-187.944 570.681,-185.495 561.096,-180.982 560.373,-187.944"/>
</g>
<!-- Node8 -->
<g id="node8" class="node"><title>Node8</title>
<g id="a_node8"><a xlink:href="classMWBase_1_1Environment.html#aeeef9a580df0312f0a9b7380488dea21" target="_top" xlink:title="MWBase::Environment\l::getWindowManager">
<polygon fill="white" stroke="black" points="582,-134 582,-164 706,-164 706,-134 582,-134"/>
<text text-anchor="start" x="590" y="-152" font-family="FreeSans" font-size="10.00">MWBase::Environment</text>
<text text-anchor="middle" x="644" y="-141" font-family="FreeSans" font-size="10.00">::getWindowManager</text>
</a>
</g>
</g>
<!-- Node4&#45;&gt;Node8 -->
<g id="edge7" class="edge"><title>Node4&#45;&gt;Node8</title>
<path fill="none" stroke="midnightblue" d="M490.054,-164.872C515.367,-162.245 545.155,-159.154 571.686,-156.4"/>
<polygon fill="midnightblue" stroke="midnightblue" points="572.093,-159.877 581.679,-155.364 571.371,-152.915 572.093,-159.877"/>
</g>
<!-- Node9 -->
<g id="node9" class="node"><title>Node9</title>
<g id="a_node9"><a xlink:href="classMWBase_1_1WindowManager.html#a24725f89bc9b354a0c51d185f20f38a6" target="_top" xlink:title="Warning: do not use MyGUI::InputManager::setKeyFocusWidget directly. Instead use this. ">
<polygon fill="white" stroke="black" points="574,-85 574,-115 714,-115 714,-85 574,-85"/>
<text text-anchor="start" x="582" y="-103" font-family="FreeSans" font-size="10.00">MWBase::WindowManager</text>
<text text-anchor="middle" x="644" y="-92" font-family="FreeSans" font-size="10.00">::setKeyFocusWidget</text>
</a>
</g>
</g>
<!-- Node4&#45;&gt;Node9 -->
<g id="edge8" class="edge"><title>Node4&#45;&gt;Node9</title>
<path fill="none" stroke="midnightblue" d="M469.596,-155.971C494.172,-146.606 526.77,-134.564 556,-125 563.166,-122.655 570.701,-120.311 578.217,-118.05"/>
<polygon fill="midnightblue" stroke="midnightblue" points="579.46,-121.332 588.051,-115.133 577.469,-114.622 579.46,-121.332"/>
</g>
<!-- Node11 -->
<g id="node11" class="node"><title>Node11</title>
<g id="a_node11"><a xlink:href="classVFS_1_1Manager.html#a20f115d6d26ea9c4dffaf8a4d1e76fa1" target="_top" xlink:title="VFS::Manager::getIndex">
<polygon fill="white" stroke="black" points="364.5,-91.5 364.5,-110.5 495.5,-110.5 495.5,-91.5 364.5,-91.5"/>
<text text-anchor="middle" x="430" y="-98.5" font-family="FreeSans" font-size="10.00">VFS::Manager::getIndex</text>
</a>
</g>
</g>
<!-- Node10&#45;&gt;Node11 -->
<g id="edge10" class="edge"><title>Node10&#45;&gt;Node11</title>
<path fill="none" stroke="midnightblue" d="M296.235,-101C314.659,-101 335.024,-101 354.157,-101"/>
<polygon fill="midnightblue" stroke="midnightblue" points="354.336,-104.5 364.336,-101 354.335,-97.5001 354.336,-104.5"/>
</g>
<!-- Node12 -->
<g id="node12" class="node"><title>Node12</title>
<g id="a_node12"><a xlink:href="classVFS_1_1Manager.html#a2c8881f46b17c4afc707e5923621a479" target="_top" xlink:title="VFS::Manager::normalizeFilename">
<polygon fill="white" stroke="black" points="340.5,-48.5 340.5,-67.5 519.5,-67.5 519.5,-48.5 340.5,-48.5"/>
<text text-anchor="middle" x="430" y="-55.5" font-family="FreeSans" font-size="10.00">VFS::Manager::normalizeFilename</text>
</a>
</g>
</g>
<!-- Node10&#45;&gt;Node12 -->
<g id="edge11" class="edge"><title>Node10&#45;&gt;Node12</title>
<path fill="none" stroke="midnightblue" d="M296.235,-87.2763C321.902,-81.6165 351.337,-75.1258 375.958,-69.6964"/>
<polygon fill="midnightblue" stroke="midnightblue" points="376.827,-73.089 385.838,-67.5177 375.319,-66.2533 376.827,-73.089"/>
</g>
<!-- Node13 -->
<g id="node13" class="node"><title>Node13</title>
<g id="a_node13"><a xlink:href="namespaceanonymous__namespace_02manager_8cpp_03.html#afff51e54666db5317a601da81b18897a" target="_top" xlink:title="anonymous_namespace\l\{manager::cpp\}::normalize_path">
<polygon fill="white" stroke="black" points="556,-36 556,-66 732,-66 732,-36 556,-36"/>
<text text-anchor="start" x="564" y="-54" font-family="FreeSans" font-size="10.00">anonymous_namespace</text>
<text text-anchor="middle" x="644" y="-43" font-family="FreeSans" font-size="10.00">{manager::cpp}::normalize_path</text>
</a>
</g>
</g>
<!-- Node12&#45;&gt;Node13 -->
<g id="edge12" class="edge"><title>Node12&#45;&gt;Node13</title>
<path fill="none" stroke="midnightblue" d="M519.679,-55.0719C528.242,-54.7892 536.96,-54.5013 545.601,-54.216"/>
<polygon fill="midnightblue" stroke="midnightblue" points="545.817,-57.7109 555.696,-53.8827 545.586,-50.7147 545.817,-57.7109"/>
</g>
<!-- Node14 -->
<g id="node14" class="node"><title>Node14</title>
<g id="a_node14"><a xlink:href="namespaceanonymous__namespace_02manager_8cpp_03.html#a43766ad9c2dc269c62c8ec100bfd3b36" target="_top" xlink:title="anonymous_namespace\l\{manager::cpp\}::strict\l_normalize_char">
<polygon fill="white" stroke="black" points="773,-60.5 773,-101.5 907,-101.5 907,-60.5 773,-60.5"/>
<text text-anchor="start" x="781" y="-89.5" font-family="FreeSans" font-size="10.00">anonymous_namespace</text>
<text text-anchor="start" x="781" y="-78.5" font-family="FreeSans" font-size="10.00">{manager::cpp}::strict</text>
<text text-anchor="middle" x="840" y="-67.5" font-family="FreeSans" font-size="10.00">_normalize_char</text>
</a>
</g>
</g>
<!-- Node13&#45;&gt;Node14 -->
<g id="edge13" class="edge"><title>Node13&#45;&gt;Node14</title>
<path fill="none" stroke="midnightblue" d="M732.069,-64.4643C742.344,-66.0531 752.768,-67.6652 762.875,-69.2281"/>
<polygon fill="midnightblue" stroke="midnightblue" points="762.442,-72.7026 772.859,-70.7721 763.512,-65.7849 762.442,-72.7026"/>
</g>
<!-- Node15 -->
<g id="node15" class="node"><title>Node15</title>
<g id="a_node15"><a xlink:href="namespaceanonymous__namespace_02manager_8cpp_03.html#a0760071e5091c65283088c802ce83396" target="_top" xlink:title="anonymous_namespace\l\{manager::cpp\}::nonstrict\l_normalize_char">
<polygon fill="white" stroke="black" points="768.5,-0.5 768.5,-41.5 911.5,-41.5 911.5,-0.5 768.5,-0.5"/>
<text text-anchor="start" x="776.5" y="-29.5" font-family="FreeSans" font-size="10.00">anonymous_namespace</text>
<text text-anchor="start" x="776.5" y="-18.5" font-family="FreeSans" font-size="10.00">{manager::cpp}::nonstrict</text>
<text text-anchor="middle" x="840" y="-7.5" font-family="FreeSans" font-size="10.00">_normalize_char</text>
</a>
</g>
</g>
<!-- Node13&#45;&gt;Node15 -->
<g id="edge14" class="edge"><title>Node13&#45;&gt;Node15</title>
<path fill="none" stroke="midnightblue" d="M732.069,-37.5357C740.829,-36.181 749.699,-34.8094 758.388,-33.4658"/>
<polygon fill="midnightblue" stroke="midnightblue" points="759.14,-36.8912 768.487,-31.904 758.07,-29.9734 759.14,-36.8912"/>
</g>
<!-- Node16 -->
<g id="node16" class="node"><title>Node16</title>
<g id="a_node16"><a xlink:href="classMisc_1_1StringUtils.html#a0759adb102842ee3bced227707eb6949" target="_top" xlink:title="Misc::StringUtils::\ltoLower">
<polygon fill="white" stroke="black" points="948.5,-6 948.5,-36 1047.5,-36 1047.5,-6 948.5,-6"/>
<text text-anchor="start" x="956.5" y="-24" font-family="FreeSans" font-size="10.00">Misc::StringUtils::</text>
<text text-anchor="middle" x="998" y="-13" font-family="FreeSans" font-size="10.00">toLower</text>
</a>
</g>
</g>
<!-- Node15&#45;&gt;Node16 -->
<g id="edge15" class="edge"><title>Node15&#45;&gt;Node16</title>
<path fill="none" stroke="midnightblue" d="M911.697,-21C920.62,-21 929.672,-21 938.38,-21"/>
<polygon fill="midnightblue" stroke="midnightblue" points="938.416,-24.5001 948.416,-21 938.416,-17.5001 938.416,-24.5001"/>
</g>
</g>
</svg>
