<?xml version="1.0" encoding="UTF-8" standalone="no"?>
<!DOCTYPE svg PUBLIC "-//W3C//DTD SVG 1.1//EN"
 "http://www.w3.org/Graphics/SVG/1.1/DTD/svg11.dtd">
<!-- Generated by graphviz version 2.36.0 (20140111.2315)
 -->
<!-- Title: MWWorld::Player::activate Pages: 1 -->
<svg width="562pt" height="491pt"
 viewBox="0.00 0.00 562.00 491.00" xmlns="http://www.w3.org/2000/svg" xmlns:xlink="http://www.w3.org/1999/xlink">
<g id="graph0" class="graph" transform="scale(1 1) rotate(0) translate(4 487)">
<title>MWWorld::Player::activate</title>
<polygon fill="white" stroke="none" points="-4,4 -4,-487 558,-487 558,4 -4,4"/>
<!-- Node1 -->
<g id="node1" class="node"><title>Node1</title>
<polygon fill="#bfbfbf" stroke="black" points="0,-231.5 0,-250.5 138,-250.5 138,-231.5 0,-231.5"/>
<text text-anchor="middle" x="69" y="-238.5" font-family="FreeSans" font-size="10.00">MWWorld::Player::activate</text>
</g>
<!-- Node2 -->
<g id="node2" class="node"><title>Node2</title>
<g id="a_node2"><a xlink:href="classMWBase_1_1Environment.html#a73f12633762b049c03c80fe215873faa" target="_top" xlink:title="Return instance of this class. ">
<polygon fill="white" stroke="black" points="187,-463.5 187,-482.5 333,-482.5 333,-463.5 187,-463.5"/>
<text text-anchor="middle" x="260" y="-470.5" font-family="FreeSans" font-size="10.00">MWBase::Environment::get</text>
</a>
</g>
</g>
<!-- Node1&#45;&gt;Node2 -->
<g id="edge1" class="edge"><title>Node1&#45;&gt;Node2</title>
<path fill="none" stroke="midnightblue" d="M71.7137,-250.942C78.1582,-285.151 104.231,-398.924 174,-454 176.205,-455.741 178.538,-457.329 180.968,-458.777"/>
<polygon fill="midnightblue" stroke="midnightblue" points="179.638,-462.027 190.139,-463.434 182.808,-455.786 179.638,-462.027"/>
</g>
<!-- Node3 -->
<g id="node3" class="node"><title>Node3</title>
<g id="a_node3"><a xlink:href="classMWWorld_1_1Player.html#af44444776d68e15a21c03bb321aaaf88" target="_top" xlink:title="MWWorld::Player::getPlayer">
<polygon fill="white" stroke="black" points="187.5,-425.5 187.5,-444.5 332.5,-444.5 332.5,-425.5 187.5,-425.5"/>
<text text-anchor="middle" x="260" y="-432.5" font-family="FreeSans" font-size="10.00">MWWorld::Player::getPlayer</text>
</a>
</g>
</g>
<!-- Node1&#45;&gt;Node3 -->
<g id="edge2" class="edge"><title>Node1&#45;&gt;Node3</title>
<path fill="none" stroke="midnightblue" d="M72.7846,-250.835C81.8249,-280.87 113.337,-372.025 174,-416 176.55,-417.848 179.248,-419.522 182.052,-421.037"/>
<polygon fill="midnightblue" stroke="midnightblue" points="180.779,-424.305 191.322,-425.354 183.734,-417.959 180.779,-424.305"/>
</g>
<!-- Node4 -->
<g id="node4" class="node"><title>Node4</title>
<g id="a_node4"><a xlink:href="classMWWorld_1_1Ptr.html#aa2ac4a5579cd19eaa780596f4543ea46" target="_top" xlink:title="MWWorld::Ptr::getClass">
<polygon fill="white" stroke="black" points="197.5,-387.5 197.5,-406.5 322.5,-406.5 322.5,-387.5 197.5,-387.5"/>
<text text-anchor="middle" x="260" y="-394.5" font-family="FreeSans" font-size="10.00">MWWorld::Ptr::getClass</text>
</a>
</g>
</g>
<!-- Node1&#45;&gt;Node4 -->
<g id="edge3" class="edge"><title>Node1&#45;&gt;Node4</title>
<path fill="none" stroke="midnightblue" d="M74.428,-250.834C86.4365,-276.308 122.234,-344.768 174,-378 178.342,-380.788 183.037,-383.17 187.914,-385.205"/>
<polygon fill="midnightblue" stroke="midnightblue" points="186.877,-388.552 197.471,-388.706 189.285,-381.979 186.877,-388.552"/>
</g>
<!-- Node5 -->
<g id="node5" class="node"><title>Node5</title>
<g id="a_node5"><a xlink:href="classMWWorld_1_1Class.html#a288815e0879a88ccd87b4871be64202b" target="_top" xlink:title="MWWorld::Class::getNpcStats">
<polygon fill="white" stroke="black" points="182,-349.5 182,-368.5 338,-368.5 338,-349.5 182,-349.5"/>
<text text-anchor="middle" x="260" y="-356.5" font-family="FreeSans" font-size="10.00">MWWorld::Class::getNpcStats</text>
</a>
</g>
</g>
<!-- Node1&#45;&gt;Node5 -->
<g id="edge4" class="edge"><title>Node1&#45;&gt;Node5</title>
<path fill="none" stroke="midnightblue" d="M77.1669,-250.528C92.5728,-270.297 130.956,-315.853 174,-339 179.218,-341.806 184.823,-344.221 190.576,-346.3"/>
<polygon fill="midnightblue" stroke="midnightblue" points="189.763,-349.716 200.355,-349.489 191.934,-343.061 189.763,-349.716"/>
</g>
<!-- Node6 -->
<g id="node6" class="node"><title>Node6</title>
<g id="a_node6"><a xlink:href="classMWMechanics_1_1CreatureStats.html#ae2b73054fdaf82052f81f3bde5a9c90c" target="_top" xlink:title="MWMechanics::CreatureStats\l::isParalyzed">
<polygon fill="white" stroke="black" points="181.5,-300 181.5,-330 338.5,-330 338.5,-300 181.5,-300"/>
<text text-anchor="start" x="189.5" y="-318" font-family="FreeSans" font-size="10.00">MWMechanics::CreatureStats</text>
<text text-anchor="middle" x="260" y="-307" font-family="FreeSans" font-size="10.00">::isParalyzed</text>
</a>
</g>
</g>
<!-- Node1&#45;&gt;Node6 -->
<g id="edge5" class="edge"><title>Node1&#45;&gt;Node6</title>
<path fill="none" stroke="midnightblue" d="M88.0403,-250.546C108.494,-261.121 143.029,-278.23 174,-290 180.279,-292.386 186.89,-294.686 193.536,-296.859"/>
<polygon fill="midnightblue" stroke="midnightblue" points="192.674,-300.258 203.264,-299.948 194.793,-293.586 192.674,-300.258"/>
</g>
<!-- Node9 -->
<g id="node9" class="node"><title>Node9</title>
<g id="a_node9"><a xlink:href="classMWMechanics_1_1CreatureStats.html#a4a90e70442c62575c00017c0ea0626cc" target="_top" xlink:title="MWMechanics::CreatureStats\l::getKnockedDown">
<polygon fill="white" stroke="black" points="181.5,-251 181.5,-281 338.5,-281 338.5,-251 181.5,-251"/>
<text text-anchor="start" x="189.5" y="-269" font-family="FreeSans" font-size="10.00">MWMechanics::CreatureStats</text>
<text text-anchor="middle" x="260" y="-258" font-family="FreeSans" font-size="10.00">::getKnockedDown</text>
</a>
</g>
</g>
<!-- Node1&#45;&gt;Node9 -->
<g id="edge8" class="edge"><title>Node1&#45;&gt;Node9</title>
<path fill="none" stroke="midnightblue" d="M138.233,-250.026C148.919,-251.439 160.092,-252.917 171.143,-254.379"/>
<polygon fill="midnightblue" stroke="midnightblue" points="170.867,-257.873 181.24,-255.714 171.785,-250.933 170.867,-257.873"/>
</g>
<!-- Node10 -->
<g id="node10" class="node"><title>Node10</title>
<g id="a_node10"><a xlink:href="classMWMechanics_1_1CreatureStats.html#af8087276da474ea537036c2eb9cd2096" target="_top" xlink:title="MWMechanics::CreatureStats\l::isDead">
<polygon fill="white" stroke="black" points="181.5,-202 181.5,-232 338.5,-232 338.5,-202 181.5,-202"/>
<text text-anchor="start" x="189.5" y="-220" font-family="FreeSans" font-size="10.00">MWMechanics::CreatureStats</text>
<text text-anchor="middle" x="260" y="-209" font-family="FreeSans" font-size="10.00">::isDead</text>
</a>
</g>
</g>
<!-- Node1&#45;&gt;Node10 -->
<g id="edge9" class="edge"><title>Node1&#45;&gt;Node10</title>
<path fill="none" stroke="midnightblue" d="M138.233,-232.335C148.919,-230.979 160.092,-229.56 171.143,-228.156"/>
<polygon fill="midnightblue" stroke="midnightblue" points="171.761,-231.606 181.24,-226.874 170.879,-224.662 171.761,-231.606"/>
</g>
<!-- Node11 -->
<g id="node11" class="node"><title>Node11</title>
<g id="a_node11"><a xlink:href="classMWBase_1_1Environment.html#ae14e166d8f5ff8629be119333d502660" target="_top" xlink:title="MWBase::Environment\l::getWorld">
<polygon fill="white" stroke="black" points="198,-153 198,-183 322,-183 322,-153 198,-153"/>
<text text-anchor="start" x="206" y="-171" font-family="FreeSans" font-size="10.00">MWBase::Environment</text>
<text text-anchor="middle" x="260" y="-160" font-family="FreeSans" font-size="10.00">::getWorld</text>
</a>
</g>
</g>
<!-- Node1&#45;&gt;Node11 -->
<g id="edge10" class="edge"><title>Node1&#45;&gt;Node11</title>
<path fill="none" stroke="midnightblue" d="M88.437,-231.489C108.958,-221.141 143.283,-204.535 174,-193 180.289,-190.638 186.906,-188.355 193.556,-186.192"/>
<polygon fill="midnightblue" stroke="midnightblue" points="194.809,-189.466 203.288,-183.113 192.698,-182.792 194.809,-189.466"/>
</g>
<!-- Node12 -->
<g id="node12" class="node"><title>Node12</title>
<g id="a_node12"><a xlink:href="classMWBase_1_1World.html#a90b9dfb901bf02d1f17b072eddf8730b" target="_top" xlink:title="Return pointer to the object the player is looking at, if it is within activation range...">
<polygon fill="white" stroke="black" points="175.5,-114.5 175.5,-133.5 344.5,-133.5 344.5,-114.5 175.5,-114.5"/>
<text text-anchor="middle" x="260" y="-121.5" font-family="FreeSans" font-size="10.00">MWBase::World::getFacedObject</text>
</a>
</g>
</g>
<!-- Node1&#45;&gt;Node12 -->
<g id="edge11" class="edge"><title>Node1&#45;&gt;Node12</title>
<path fill="none" stroke="midnightblue" d="M77.4274,-231.272C93.0313,-211.552 131.321,-166.811 174,-144 179.225,-141.208 184.835,-138.802 190.592,-136.729"/>
<polygon fill="midnightblue" stroke="midnightblue" points="191.948,-139.969 200.375,-133.547 189.783,-133.312 191.948,-139.969"/>
</g>
<!-- Node13 -->
<g id="node13" class="node"><title>Node13</title>
<g id="a_node13"><a xlink:href="classMWWorld_1_1Ptr.html#a0662c1165166221fd0f874e37ac24613" target="_top" xlink:title="MWWorld::Ptr::isEmpty">
<polygon fill="white" stroke="black" points="199,-76.5 199,-95.5 321,-95.5 321,-76.5 199,-76.5"/>
<text text-anchor="middle" x="260" y="-83.5" font-family="FreeSans" font-size="10.00">MWWorld::Ptr::isEmpty</text>
</a>
</g>
</g>
<!-- Node1&#45;&gt;Node13 -->
<g id="edge12" class="edge"><title>Node1&#45;&gt;Node13</title>
<path fill="none" stroke="midnightblue" d="M74.4487,-231.238C86.5072,-205.948 122.415,-137.987 174,-105 178.698,-101.996 183.805,-99.4633 189.108,-97.3283"/>
<polygon fill="midnightblue" stroke="midnightblue" points="190.553,-100.53 198.816,-93.899 188.221,-93.9296 190.553,-100.53"/>
</g>
<!-- Node14 -->
<g id="node14" class="node"><title>Node14</title>
<g id="a_node14"><a xlink:href="classMWWorld_1_1Class.html#aa9259ecb95fa6cee2b03c1f17725352b" target="_top" xlink:title="MWWorld::Class::canBeActivated">
<polygon fill="white" stroke="black" points="174.5,-38.5 174.5,-57.5 345.5,-57.5 345.5,-38.5 174.5,-38.5"/>
<text text-anchor="middle" x="260" y="-45.5" font-family="FreeSans" font-size="10.00">MWWorld::Class::canBeActivated</text>
</a>
</g>
</g>
<!-- Node1&#45;&gt;Node14 -->
<g id="edge13" class="edge"><title>Node1&#45;&gt;Node14</title>
<path fill="none" stroke="midnightblue" d="M72.8024,-231.221C81.8939,-201.354 113.538,-110.714 174,-67 176.552,-65.1547 179.252,-63.484 182.058,-61.9715"/>
<polygon fill="midnightblue" stroke="midnightblue" points="183.739,-65.0496 191.332,-57.6601 180.788,-58.702 183.739,-65.0496"/>
</g>
<!-- Node16 -->
<g id="node16" class="node"><title>Node16</title>
<g id="a_node16"><a xlink:href="classMWBase_1_1World.html#af5d541a09b77496248db97aafb6f7d4c" target="_top" xlink:title="MWBase::World::activate">
<polygon fill="white" stroke="black" points="193.5,-0.5 193.5,-19.5 326.5,-19.5 326.5,-0.5 193.5,-0.5"/>
<text text-anchor="middle" x="260" y="-7.5" font-family="FreeSans" font-size="10.00">MWBase::World::activate</text>
</a>
</g>
</g>
<!-- Node1&#45;&gt;Node16 -->
<g id="edge15" class="edge"><title>Node1&#45;&gt;Node16</title>
<path fill="none" stroke="midnightblue" d="M71.7294,-231.104C78.2249,-197.052 104.445,-83.8026 174,-29 177.118,-26.5435 180.49,-24.391 184.031,-22.5059"/>
<polygon fill="midnightblue" stroke="midnightblue" points="185.491,-25.6869 193.135,-18.3504 182.585,-19.319 185.491,-25.6869"/>
</g>
<!-- Node7 -->
<g id="node7" class="node"><title>Node7</title>
<g id="a_node7"><a xlink:href="classMWMechanics_1_1MagicEffects.html#aa9771d1e0e2d3fa1378fc3bb0c338a28" target="_top" xlink:title="This function can safely be used for keys that are not present. ">
<polygon fill="white" stroke="black" points="382.5,-327.5 382.5,-346.5 553.5,-346.5 553.5,-327.5 382.5,-327.5"/>
<text text-anchor="middle" x="468" y="-334.5" font-family="FreeSans" font-size="10.00">MWMechanics::MagicEffects::get</text>
</a>
</g>
</g>
<!-- Node6&#45;&gt;Node7 -->
<g id="edge6" class="edge"><title>Node6&#45;&gt;Node7</title>
<path fill="none" stroke="midnightblue" d="M338.586,-323.286C349.501,-324.452 360.823,-325.661 372.017,-326.856"/>
<polygon fill="midnightblue" stroke="midnightblue" points="371.931,-330.367 382.246,-327.949 372.675,-323.406 371.931,-330.367"/>
</g>
<!-- Node8 -->
<g id="node8" class="node"><title>Node8</title>
<g id="a_node8"><a xlink:href="structMWMechanics_1_1EffectParam.html#a1bb9e5f90a32bab2fa1d7e5d08360a51" target="_top" xlink:title="Get the total magnitude including base and modifier. ">
<polygon fill="white" stroke="black" points="394.5,-278 394.5,-308 541.5,-308 541.5,-278 394.5,-278"/>
<text text-anchor="start" x="402.5" y="-296" font-family="FreeSans" font-size="10.00">MWMechanics::EffectParam</text>
<text text-anchor="middle" x="468" y="-285" font-family="FreeSans" font-size="10.00">::getMagnitude</text>
</a>
</g>
</g>
<!-- Node6&#45;&gt;Node8 -->
<g id="edge7" class="edge"><title>Node6&#45;&gt;Node8</title>
<path fill="none" stroke="midnightblue" d="M338.586,-306.714C353.413,-305.131 368.989,-303.467 383.978,-301.866"/>
<polygon fill="midnightblue" stroke="midnightblue" points="384.674,-305.312 394.245,-300.77 383.93,-298.352 384.674,-305.312"/>
</g>
<!-- Node15 -->
<g id="node15" class="node"><title>Node15</title>
<g id="a_node15"><a xlink:href="classMWWorld_1_1Class.html#a369a75a58f3c116f19e7a4365ba49ae9" target="_top" xlink:title="MWWorld::Class::getName">
<polygon fill="white" stroke="black" points="397.5,-38.5 397.5,-57.5 538.5,-57.5 538.5,-38.5 397.5,-38.5"/>
<text text-anchor="middle" x="468" y="-45.5" font-family="FreeSans" font-size="10.00">MWWorld::Class::getName</text>
</a>
</g>
</g>
<!-- Node14&#45;&gt;Node15 -->
<g id="edge14" class="edge"><title>Node14&#45;&gt;Node15</title>
<path fill="none" stroke="midnightblue" d="M345.68,-48C359.387,-48 373.541,-48 387.128,-48"/>
<polygon fill="midnightblue" stroke="midnightblue" points="387.392,-51.5001 397.392,-48 387.392,-44.5001 387.392,-51.5001"/>
</g>
</g>
</svg>
