<?xml version="1.0" encoding="UTF-8" standalone="no"?>
<!DOCTYPE svg PUBLIC "-//W3C//DTD SVG 1.1//EN"
 "http://www.w3.org/Graphics/SVG/1.1/DTD/svg11.dtd">
<!-- Generated by graphviz version 2.36.0 (20140111.2315)
 -->
<!-- Title: MWMechanics::NpcStats::getSkillProgressRequirement Pages: 1 -->
<svg width="770pt" height="136pt"
 viewBox="0.00 0.00 770.00 136.00" xmlns="http://www.w3.org/2000/svg" xmlns:xlink="http://www.w3.org/1999/xlink">
<g id="graph0" class="graph" transform="scale(1 1) rotate(0) translate(4 132)">
<title>MWMechanics::NpcStats::getSkillProgressRequirement</title>
<polygon fill="white" stroke="none" points="-4,4 -4,-132 766,-132 766,4 -4,4"/>
<!-- Node1 -->
<g id="node1" class="node"><title>Node1</title>
<polygon fill="#bfbfbf" stroke="black" points="0,-49 0,-79 146,-79 146,-49 0,-49"/>
<text text-anchor="start" x="8" y="-67" font-family="FreeSans" font-size="10.00">MWMechanics::NpcStats</text>
<text text-anchor="middle" x="73" y="-56" font-family="FreeSans" font-size="10.00">::getSkillProgressRequirement</text>
</g>
<!-- Node2 -->
<g id="node2" class="node"><title>Node2</title>
<g id="a_node2"><a xlink:href="classMWGui_1_1StatsWindow.html#a96988f2f2f429238818832f0bf62d0be" target="_top" xlink:title="MWGui::StatsWindow\l::addSkills">
<polygon fill="white" stroke="black" points="182,-49 182,-79 292,-79 292,-49 182,-49"/>
<text text-anchor="start" x="190" y="-67" font-family="FreeSans" font-size="10.00">MWGui::StatsWindow</text>
<text text-anchor="middle" x="237" y="-56" font-family="FreeSans" font-size="10.00">::addSkills</text>
</a>
</g>
</g>
<!-- Node1&#45;&gt;Node2 -->
<g id="edge1" class="edge"><title>Node1&#45;&gt;Node2</title>
<path fill="none" stroke="midnightblue" d="M156.736,-64C165.161,-64 173.56,-64 181.57,-64"/>
<polygon fill="midnightblue" stroke="midnightblue" points="156.471,-60.5001 146.471,-64 156.471,-67.5001 156.471,-60.5001"/>
</g>
<!-- Node3 -->
<g id="node3" class="node"><title>Node3</title>
<g id="a_node3"><a xlink:href="classMWGui_1_1StatsWindow.html#ae2f88bda70cedba813a9fa44c41e5a8b" target="_top" xlink:title="MWGui::StatsWindow\l::updateSkillArea">
<polygon fill="white" stroke="black" points="328,-49 328,-79 438,-79 438,-49 328,-49"/>
<text text-anchor="start" x="336" y="-67" font-family="FreeSans" font-size="10.00">MWGui::StatsWindow</text>
<text text-anchor="middle" x="383" y="-56" font-family="FreeSans" font-size="10.00">::updateSkillArea</text>
</a>
</g>
</g>
<!-- Node2&#45;&gt;Node3 -->
<g id="edge2" class="edge"><title>Node2&#45;&gt;Node3</title>
<path fill="none" stroke="midnightblue" d="M302.27,-64C310.75,-64 319.375,-64 327.667,-64"/>
<polygon fill="midnightblue" stroke="midnightblue" points="302.03,-60.5001 292.03,-64 302.03,-67.5001 302.03,-60.5001"/>
</g>
<!-- Node4 -->
<g id="node4" class="node"><title>Node4</title>
<g id="a_node4"><a xlink:href="classMWGui_1_1StatsWindow.html#ab5f2ca7f91f661c09cd7fabce9b3103e" target="_top" xlink:title="MWGui::StatsWindow\l::configureSkills">
<polygon fill="white" stroke="black" points="482,-98 482,-128 592,-128 592,-98 482,-98"/>
<text text-anchor="start" x="490" y="-116" font-family="FreeSans" font-size="10.00">MWGui::StatsWindow</text>
<text text-anchor="middle" x="537" y="-105" font-family="FreeSans" font-size="10.00">::configureSkills</text>
</a>
</g>
</g>
<!-- Node3&#45;&gt;Node4 -->
<g id="edge3" class="edge"><title>Node3&#45;&gt;Node4</title>
<path fill="none" stroke="midnightblue" d="M440.64,-82.2591C456.672,-87.4273 473.936,-92.9924 489.309,-97.9484"/>
<polygon fill="midnightblue" stroke="midnightblue" points="441.437,-78.8385 430.845,-79.1014 439.289,-85.5009 441.437,-78.8385"/>
</g>
<!-- Node6 -->
<g id="node6" class="node"><title>Node6</title>
<g id="a_node6"><a xlink:href="classMWGui_1_1StatsWindow.html#abca7914b0e28b6ba0e5475d99f4b6310" target="_top" xlink:title="automatically updates all the data in the stats window, but only if it has changed. ">
<polygon fill="white" stroke="black" points="482,-49 482,-79 592,-79 592,-49 482,-49"/>
<text text-anchor="start" x="490" y="-67" font-family="FreeSans" font-size="10.00">MWGui::StatsWindow</text>
<text text-anchor="middle" x="537" y="-56" font-family="FreeSans" font-size="10.00">::onFrame</text>
</a>
</g>
</g>
<!-- Node3&#45;&gt;Node6 -->
<g id="edge5" class="edge"><title>Node3&#45;&gt;Node6</title>
<path fill="none" stroke="midnightblue" d="M448.194,-64C459.415,-64 470.987,-64 481.901,-64"/>
<polygon fill="midnightblue" stroke="midnightblue" points="448.018,-60.5001 438.017,-64 448.017,-67.5001 448.018,-60.5001"/>
</g>
<!-- Node8 -->
<g id="node8" class="node"><title>Node8</title>
<g id="a_node8"><a xlink:href="classMWGui_1_1WindowManager.html#a2c9dfccf5786a150f23fed6b8d8a6175" target="_top" xlink:title="update display of skills, factions, birth sign, reputation and bounty ">
<polygon fill="white" stroke="black" points="474.5,-0 474.5,-30 599.5,-30 599.5,-0 474.5,-0"/>
<text text-anchor="start" x="482.5" y="-18" font-family="FreeSans" font-size="10.00">MWGui::WindowManager</text>
<text text-anchor="middle" x="537" y="-7" font-family="FreeSans" font-size="10.00">::updateSkillArea</text>
</a>
</g>
</g>
<!-- Node3&#45;&gt;Node8 -->
<g id="edge7" class="edge"><title>Node3&#45;&gt;Node8</title>
<path fill="none" stroke="midnightblue" d="M440.64,-45.7409C456.672,-40.5727 473.936,-35.0076 489.309,-30.0516"/>
<polygon fill="midnightblue" stroke="midnightblue" points="439.289,-42.4991 430.845,-48.8986 441.437,-49.1615 439.289,-42.4991"/>
</g>
<!-- Node5 -->
<g id="node5" class="node"><title>Node5</title>
<g id="a_node5"><a xlink:href="classMWGui_1_1WindowManager.html#afce1d618e0f7d04e6fda5c563fc5dfd2" target="_top" xlink:title="configure skill groups, each set contains the skill ID for that group. ">
<polygon fill="white" stroke="black" points="636.5,-98 636.5,-128 761.5,-128 761.5,-98 636.5,-98"/>
<text text-anchor="start" x="644.5" y="-116" font-family="FreeSans" font-size="10.00">MWGui::WindowManager</text>
<text text-anchor="middle" x="699" y="-105" font-family="FreeSans" font-size="10.00">::configureSkills</text>
</a>
</g>
</g>
<!-- Node4&#45;&gt;Node5 -->
<g id="edge4" class="edge"><title>Node4&#45;&gt;Node5</title>
<path fill="none" stroke="midnightblue" d="M602.351,-113C613.599,-113 625.277,-113 636.447,-113"/>
<polygon fill="midnightblue" stroke="midnightblue" points="602.169,-109.5 592.169,-113 602.169,-116.5 602.169,-109.5"/>
</g>
<!-- Node7 -->
<g id="node7" class="node"><title>Node7</title>
<g id="a_node7"><a xlink:href="classMWGui_1_1WindowManager.html#a2f52c12d86d6bb31adc62b06cef3de19" target="_top" xlink:title="MWGui::WindowManager\l::onFrame">
<polygon fill="white" stroke="black" points="636.5,-49 636.5,-79 761.5,-79 761.5,-49 636.5,-49"/>
<text text-anchor="start" x="644.5" y="-67" font-family="FreeSans" font-size="10.00">MWGui::WindowManager</text>
<text text-anchor="middle" x="699" y="-56" font-family="FreeSans" font-size="10.00">::onFrame</text>
</a>
</g>
</g>
<!-- Node6&#45;&gt;Node7 -->
<g id="edge6" class="edge"><title>Node6&#45;&gt;Node7</title>
<path fill="none" stroke="midnightblue" d="M602.351,-64C613.599,-64 625.277,-64 636.447,-64"/>
<polygon fill="midnightblue" stroke="midnightblue" points="602.169,-60.5001 592.169,-64 602.169,-67.5001 602.169,-60.5001"/>
</g>
</g>
</svg>
