<?xml version="1.0" encoding="UTF-8" standalone="no"?>
<!DOCTYPE svg PUBLIC "-//W3C//DTD SVG 1.1//EN"
 "http://www.w3.org/Graphics/SVG/1.1/DTD/svg11.dtd">
<!-- Generated by graphviz version 2.36.0 (20140111.2315)
 -->
<!-- Title: CSMDoc::CloseSaveStage Pages: 1 -->
<svg width="138pt" height="204pt"
 viewBox="0.00 0.00 138.00 204.00" xmlns="http://www.w3.org/2000/svg" xmlns:xlink="http://www.w3.org/1999/xlink">
<g id="graph0" class="graph" transform="scale(1 1) rotate(0) translate(4 200)">
<title>CSMDoc::CloseSaveStage</title>
<polygon fill="white" stroke="none" points="-4,4 -4,-200 134,-200 134,4 -4,4"/>
<!-- Node1 -->
<g id="node1" class="node"><title>Node1</title>
<polygon fill="#bfbfbf" stroke="black" points="-0.5,-0.5 -0.5,-79.5 130.5,-79.5 130.5,-0.5 -0.5,-0.5"/>
<text text-anchor="middle" x="65" y="-67.5" font-family="FreeSans" font-size="10.00">CSMDoc::CloseSaveStage</text>
<polyline fill="none" stroke="black" points="-0.5,-60.5 130.5,-60.5 "/>
<text text-anchor="start" x="7.5" y="-48.5" font-family="FreeSans" font-size="10.00">&#45; mState</text>
<polyline fill="none" stroke="black" points="-0.5,-41.5 130.5,-41.5 "/>
<text text-anchor="start" x="7.5" y="-29.5" font-family="FreeSans" font-size="10.00">+ CloseSaveStage()</text>
<text text-anchor="start" x="7.5" y="-18.5" font-family="FreeSans" font-size="10.00">+ setup()</text>
<text text-anchor="start" x="7.5" y="-7.5" font-family="FreeSans" font-size="10.00">+ perform()</text>
</g>
<!-- Node2 -->
<g id="node2" class="node"><title>Node2</title>
<g id="a_node2"><a xlink:href="classCSMDoc_1_1Stage.html" target="_top" xlink:title="{CSMDoc::Stage\n||+ ~Stage()\l+ setup()\l+ perform()\l}">
<polygon fill="white" stroke="black" points="22,-116.5 22,-195.5 108,-195.5 108,-116.5 22,-116.5"/>
<text text-anchor="middle" x="65" y="-183.5" font-family="FreeSans" font-size="10.00">CSMDoc::Stage</text>
<polyline fill="none" stroke="black" points="22,-176.5 108,-176.5 "/>
<text text-anchor="middle" x="65" y="-164.5" font-family="FreeSans" font-size="10.00"> </text>
<polyline fill="none" stroke="black" points="22,-157.5 108,-157.5 "/>
<text text-anchor="start" x="30" y="-145.5" font-family="FreeSans" font-size="10.00">+ ~Stage()</text>
<text text-anchor="start" x="30" y="-134.5" font-family="FreeSans" font-size="10.00">+ setup()</text>
<text text-anchor="start" x="30" y="-123.5" font-family="FreeSans" font-size="10.00">+ perform()</text>
</a>
</g>
</g>
<!-- Node2&#45;&gt;Node1 -->
<g id="edge1" class="edge"><title>Node2&#45;&gt;Node1</title>
<path fill="none" stroke="midnightblue" d="M65,-106.146C65,-97.256 65,-88.0961 65,-79.5555"/>
<polygon fill="none" stroke="midnightblue" points="61.5001,-106.405 65,-116.405 68.5001,-106.405 61.5001,-106.405"/>
</g>
</g>
</svg>
