<?xml version="1.0" encoding="UTF-8" standalone="no"?>
<!DOCTYPE svg PUBLIC "-//W3C//DTD SVG 1.1//EN"
 "http://www.w3.org/Graphics/SVG/1.1/DTD/svg11.dtd">
<!-- Generated by graphviz version 2.36.0 (20140111.2315)
 -->
<!-- Title: CSVRender::PreviewWidget Pages: 1 -->
<svg width="182pt" height="736pt"
 viewBox="0.00 0.00 182.00 736.00" xmlns="http://www.w3.org/2000/svg" xmlns:xlink="http://www.w3.org/1999/xlink">
<g id="graph0" class="graph" transform="scale(1 1) rotate(0) translate(4 732)">
<title>CSVRender::PreviewWidget</title>
<polygon fill="white" stroke="none" points="-4,4 -4,-732 178,-732 178,4 -4,4"/>
<!-- Node1 -->
<g id="node1" class="node"><title>Node1</title>
<polygon fill="#bfbfbf" stroke="black" points="-1,-1 -1,-113 175,-113 175,-1 -1,-1"/>
<text text-anchor="middle" x="87" y="-101" font-family="FreeSans" font-size="10.00">CSVRender::PreviewWidget</text>
<polyline fill="none" stroke="black" points="-1,-94 175,-94 "/>
<text text-anchor="start" x="7" y="-82" font-family="FreeSans" font-size="10.00">&#45; mData</text>
<text text-anchor="start" x="7" y="-71" font-family="FreeSans" font-size="10.00">&#45; mObject</text>
<polyline fill="none" stroke="black" points="-1,-64 175,-64 "/>
<text text-anchor="start" x="7" y="-52" font-family="FreeSans" font-size="10.00">+ PreviewWidget()</text>
<text text-anchor="start" x="7" y="-41" font-family="FreeSans" font-size="10.00">&#45; referenceableDataChanged()</text>
<text text-anchor="start" x="7" y="-30" font-family="FreeSans" font-size="10.00">&#45; referenceableAboutToBeRemoved()</text>
<text text-anchor="start" x="7" y="-19" font-family="FreeSans" font-size="10.00">&#45; referenceDataChanged()</text>
<text text-anchor="start" x="7" y="-8" font-family="FreeSans" font-size="10.00">&#45; referenceAboutToBeRemoved()</text>
</g>
<!-- Node2 -->
<g id="node2" class="node"><title>Node2</title>
<g id="a_node2"><a xlink:href="classCSVRender_1_1SceneWidget.html" target="_top" xlink:title="Extension of RenderWidget to support lighting mode selection &amp; toolbar. ">
<polygon fill="white" stroke="black" points="22.5,-151 22.5,-461 151.5,-461 151.5,-151 22.5,-151"/>
<text text-anchor="middle" x="87" y="-449" font-family="FreeSans" font-size="10.00">CSVRender::SceneWidget</text>
<polyline fill="none" stroke="black" points="22.5,-442 151.5,-442 "/>
<text text-anchor="start" x="30.5" y="-430" font-family="FreeSans" font-size="10.00"># mResourceSystem</text>
<text text-anchor="start" x="30.5" y="-419" font-family="FreeSans" font-size="10.00"># mLighting</text>
<text text-anchor="start" x="30.5" y="-408" font-family="FreeSans" font-size="10.00"># mDefaultAmbient</text>
<text text-anchor="start" x="30.5" y="-397" font-family="FreeSans" font-size="10.00"># mHasDefaultAmbient</text>
<text text-anchor="start" x="30.5" y="-386" font-family="FreeSans" font-size="10.00"># mLightingDay</text>
<text text-anchor="start" x="30.5" y="-375" font-family="FreeSans" font-size="10.00"># mLightingNight</text>
<text text-anchor="start" x="30.5" y="-364" font-family="FreeSans" font-size="10.00"># mLightingBright</text>
<text text-anchor="start" x="30.5" y="-353" font-family="FreeSans" font-size="10.00"># mPrevMouseX</text>
<text text-anchor="start" x="30.5" y="-342" font-family="FreeSans" font-size="10.00"># mPrevMouseY</text>
<text text-anchor="start" x="30.5" y="-331" font-family="FreeSans" font-size="10.00"># mCamPositionSet</text>
<text text-anchor="start" x="30.5" y="-320" font-family="FreeSans" font-size="10.00"># mFreeCamControl</text>
<text text-anchor="start" x="30.5" y="-309" font-family="FreeSans" font-size="10.00"># mOrbitCamControl</text>
<text text-anchor="start" x="30.5" y="-298" font-family="FreeSans" font-size="10.00"># mCurrentCamControl</text>
<polyline fill="none" stroke="black" points="22.5,-291 151.5,-291 "/>
<text text-anchor="start" x="30.5" y="-279" font-family="FreeSans" font-size="10.00">+ SceneWidget()</text>
<text text-anchor="start" x="30.5" y="-268" font-family="FreeSans" font-size="10.00">+ ~SceneWidget()</text>
<text text-anchor="start" x="30.5" y="-257" font-family="FreeSans" font-size="10.00">+ makeLightingSelector()</text>
<text text-anchor="start" x="30.5" y="-246" font-family="FreeSans" font-size="10.00">+ setDefaultAmbient()</text>
<text text-anchor="start" x="30.5" y="-235" font-family="FreeSans" font-size="10.00">+ update()</text>
<text text-anchor="start" x="30.5" y="-224" font-family="FreeSans" font-size="10.00"># setLighting()</text>
<text text-anchor="start" x="30.5" y="-213" font-family="FreeSans" font-size="10.00"># setAmbient()</text>
<text text-anchor="start" x="30.5" y="-202" font-family="FreeSans" font-size="10.00"># mouseMoveEvent()</text>
<text text-anchor="start" x="30.5" y="-191" font-family="FreeSans" font-size="10.00"># wheelEvent()</text>
<text text-anchor="start" x="30.5" y="-180" font-family="FreeSans" font-size="10.00"># settingChanged()</text>
<text text-anchor="start" x="30.5" y="-169" font-family="FreeSans" font-size="10.00"># selectNavigationMode()</text>
<text text-anchor="start" x="30.5" y="-158" font-family="FreeSans" font-size="10.00">&#45; selectLightingMode()</text>
</a>
</g>
</g>
<!-- Node2&#45;&gt;Node1 -->
<g id="edge1" class="edge"><title>Node2&#45;&gt;Node1</title>
<path fill="none" stroke="midnightblue" d="M87,-140.531C87,-130.915 87,-121.673 87,-113.076"/>
<polygon fill="none" stroke="midnightblue" points="83.5001,-140.676 87,-150.676 90.5001,-140.676 83.5001,-140.676"/>
</g>
<!-- Node3 -->
<g id="node3" class="node"><title>Node3</title>
<g id="a_node3"><a xlink:href="classCSVRender_1_1RenderWidget.html" target="_top" xlink:title="{CSVRender::RenderWidget\n|# mView\l# mRootNode\l# mTimer\l|+ RenderWidget()\l+ ~RenderWidget()\l+ flagAsModified()\l+ setVisibilityMask()\l+ getCamera()\l# toggleRenderStats()\l}">
<polygon fill="white" stroke="black" points="21,-499 21,-633 153,-633 153,-499 21,-499"/>
<text text-anchor="middle" x="87" y="-621" font-family="FreeSans" font-size="10.00">CSVRender::RenderWidget</text>
<polyline fill="none" stroke="black" points="21,-614 153,-614 "/>
<text text-anchor="start" x="29" y="-602" font-family="FreeSans" font-size="10.00"># mView</text>
<text text-anchor="start" x="29" y="-591" font-family="FreeSans" font-size="10.00"># mRootNode</text>
<text text-anchor="start" x="29" y="-580" font-family="FreeSans" font-size="10.00"># mTimer</text>
<polyline fill="none" stroke="black" points="21,-573 153,-573 "/>
<text text-anchor="start" x="29" y="-561" font-family="FreeSans" font-size="10.00">+ RenderWidget()</text>
<text text-anchor="start" x="29" y="-550" font-family="FreeSans" font-size="10.00">+ ~RenderWidget()</text>
<text text-anchor="start" x="29" y="-539" font-family="FreeSans" font-size="10.00">+ flagAsModified()</text>
<text text-anchor="start" x="29" y="-528" font-family="FreeSans" font-size="10.00">+ setVisibilityMask()</text>
<text text-anchor="start" x="29" y="-517" font-family="FreeSans" font-size="10.00">+ getCamera()</text>
<text text-anchor="start" x="29" y="-506" font-family="FreeSans" font-size="10.00"># toggleRenderStats()</text>
</a>
</g>
</g>
<!-- Node3&#45;&gt;Node2 -->
<g id="edge2" class="edge"><title>Node3&#45;&gt;Node2</title>
<path fill="none" stroke="midnightblue" d="M87,-488.734C87,-479.913 87,-470.695 87,-461.291"/>
<polygon fill="none" stroke="midnightblue" points="83.5001,-488.894 87,-498.894 90.5001,-488.894 83.5001,-488.894"/>
</g>
<!-- Node4 -->
<g id="node4" class="node"><title>Node4</title>
<g id="a_node4"><a xlink:href="classQWidget.html" target="_top" xlink:title="{QWidget\n||}">
<polygon fill="white" stroke="black" points="60,-670.5 60,-727.5 114,-727.5 114,-670.5 60,-670.5"/>
<text text-anchor="middle" x="87" y="-715.5" font-family="FreeSans" font-size="10.00">QWidget</text>
<polyline fill="none" stroke="black" points="60,-708.5 114,-708.5 "/>
<text text-anchor="middle" x="87" y="-696.5" font-family="FreeSans" font-size="10.00"> </text>
<polyline fill="none" stroke="black" points="60,-689.5 114,-689.5 "/>
<text text-anchor="middle" x="87" y="-677.5" font-family="FreeSans" font-size="10.00"> </text>
</a>
</g>
</g>
<!-- Node4&#45;&gt;Node3 -->
<g id="edge3" class="edge"><title>Node4&#45;&gt;Node3</title>
<path fill="none" stroke="midnightblue" d="M87,-659.942C87,-651.47 87,-642.249 87,-633.016"/>
<polygon fill="none" stroke="midnightblue" points="83.5001,-660.218 87,-670.218 90.5001,-660.218 83.5001,-660.218"/>
</g>
</g>
</svg>
