<?xml version="1.0" encoding="UTF-8" standalone="no"?>
<!DOCTYPE svg PUBLIC "-//W3C//DTD SVG 1.1//EN"
 "http://www.w3.org/Graphics/SVG/1.1/DTD/svg11.dtd">
<!-- Generated by graphviz version 2.36.0 (20140111.2315)
 -->
<!-- Title: MWRender::Pathgrid::disableCellPathgrid Pages: 1 -->
<svg width="418pt" height="111pt"
 viewBox="0.00 0.00 418.00 111.00" xmlns="http://www.w3.org/2000/svg" xmlns:xlink="http://www.w3.org/1999/xlink">
<g id="graph0" class="graph" transform="scale(1 1) rotate(0) translate(4 107)">
<title>MWRender::Pathgrid::disableCellPathgrid</title>
<polygon fill="white" stroke="none" points="-4,4 -4,-107 414,-107 414,4 -4,4"/>
<!-- Node1 -->
<g id="node1" class="node"><title>Node1</title>
<polygon fill="#bfbfbf" stroke="black" points="0.5,-48 0.5,-78 113.5,-78 113.5,-48 0.5,-48"/>
<text text-anchor="start" x="8.5" y="-66" font-family="FreeSans" font-size="10.00">MWRender::Pathgrid</text>
<text text-anchor="middle" x="57" y="-55" font-family="FreeSans" font-size="10.00">::disableCellPathgrid</text>
</g>
<!-- Node2 -->
<g id="node2" class="node"><title>Node2</title>
<g id="a_node2"><a xlink:href="classMWRender_1_1Pathgrid.html#a2cd7bc1e9d33a66b986e958dbd9a53af" target="_top" xlink:title="MWRender::Pathgrid\l::removeCell">
<polygon fill="white" stroke="black" points="150.5,-73 150.5,-103 261.5,-103 261.5,-73 150.5,-73"/>
<text text-anchor="start" x="158.5" y="-91" font-family="FreeSans" font-size="10.00">MWRender::Pathgrid</text>
<text text-anchor="middle" x="206" y="-80" font-family="FreeSans" font-size="10.00">::removeCell</text>
</a>
</g>
</g>
<!-- Node1&#45;&gt;Node2 -->
<g id="edge1" class="edge"><title>Node1&#45;&gt;Node2</title>
<path fill="none" stroke="midnightblue" d="M123.57,-74.1513C132.508,-75.6714 141.604,-77.2184 150.321,-78.7009"/>
<polygon fill="midnightblue" stroke="midnightblue" points="124.02,-70.6777 113.574,-72.4514 122.846,-77.5786 124.02,-70.6777"/>
</g>
<!-- Node3 -->
<g id="node3" class="node"><title>Node3</title>
<g id="a_node3"><a xlink:href="classMWRender_1_1Pathgrid.html#a2c261c9d4c370c0c8130b5836055a387" target="_top" xlink:title="MWRender::Pathgrid\l::togglePathgrid">
<polygon fill="white" stroke="black" points="150.5,-24 150.5,-54 261.5,-54 261.5,-24 150.5,-24"/>
<text text-anchor="start" x="158.5" y="-42" font-family="FreeSans" font-size="10.00">MWRender::Pathgrid</text>
<text text-anchor="middle" x="206" y="-31" font-family="FreeSans" font-size="10.00">::togglePathgrid</text>
</a>
</g>
</g>
<!-- Node1&#45;&gt;Node3 -->
<g id="edge2" class="edge"><title>Node1&#45;&gt;Node3</title>
<path fill="none" stroke="midnightblue" d="M123.57,-52.2947C132.508,-50.8355 141.604,-49.3504 150.321,-47.9271"/>
<polygon fill="midnightblue" stroke="midnightblue" points="122.88,-48.861 113.574,-53.9266 124.008,-55.7695 122.88,-48.861"/>
</g>
<!-- Node4 -->
<g id="node4" class="node"><title>Node4</title>
<g id="a_node4"><a xlink:href="classMWRender_1_1Pathgrid.html#a290b41d231ac53c9c77d49bca2abc97a" target="_top" xlink:title="MWRender::Pathgrid\l::~Pathgrid">
<polygon fill="white" stroke="black" points="298.5,-49 298.5,-79 409.5,-79 409.5,-49 298.5,-49"/>
<text text-anchor="start" x="306.5" y="-67" font-family="FreeSans" font-size="10.00">MWRender::Pathgrid</text>
<text text-anchor="middle" x="354" y="-56" font-family="FreeSans" font-size="10.00">::~Pathgrid</text>
</a>
</g>
</g>
<!-- Node3&#45;&gt;Node4 -->
<g id="edge3" class="edge"><title>Node3&#45;&gt;Node4</title>
<path fill="none" stroke="midnightblue" d="M271.732,-50.0842C280.634,-51.6086 289.702,-53.1614 298.398,-54.6504"/>
<polygon fill="midnightblue" stroke="midnightblue" points="272.228,-46.6183 261.78,-48.3802 271.046,-53.5178 272.228,-46.6183"/>
</g>
<!-- Node5 -->
<g id="node5" class="node"><title>Node5</title>
<g id="a_node5"><a xlink:href="classMWRender_1_1Pathgrid.html#ae9bfa3cbede587d7a61aa7727b0aa2c3" target="_top" xlink:title="MWRender::Pathgrid\l::toggleRenderMode">
<polygon fill="white" stroke="black" points="298,-0 298,-30 410,-30 410,-0 298,-0"/>
<text text-anchor="start" x="306" y="-18" font-family="FreeSans" font-size="10.00">MWRender::Pathgrid</text>
<text text-anchor="middle" x="354" y="-7" font-family="FreeSans" font-size="10.00">::toggleRenderMode</text>
</a>
</g>
</g>
<!-- Node3&#45;&gt;Node5 -->
<g id="edge4" class="edge"><title>Node3&#45;&gt;Node5</title>
<path fill="none" stroke="midnightblue" d="M271.879,-28.3349C280.569,-26.9065 289.413,-25.4526 297.913,-24.0555"/>
<polygon fill="midnightblue" stroke="midnightblue" points="271.08,-24.9192 261.78,-29.995 272.216,-31.8265 271.08,-24.9192"/>
</g>
</g>
</svg>
