<?xml version="1.0" encoding="UTF-8" standalone="no"?>
<!DOCTYPE svg PUBLIC "-//W3C//DTD SVG 1.1//EN"
 "http://www.w3.org/Graphics/SVG/1.1/DTD/svg11.dtd">
<!-- Generated by graphviz version 2.36.0 (20140111.2315)
 -->
<!-- Title: MWMechanics::Enchanting::nextCastStyle Pages: 1 -->
<svg width="672pt" height="321pt"
 viewBox="0.00 0.00 672.00 321.00" xmlns="http://www.w3.org/2000/svg" xmlns:xlink="http://www.w3.org/1999/xlink">
<g id="graph0" class="graph" transform="scale(1 1) rotate(0) translate(4 317)">
<title>MWMechanics::Enchanting::nextCastStyle</title>
<polygon fill="white" stroke="none" points="-4,4 -4,-317 668,-317 668,4 -4,4"/>
<!-- Node1 -->
<g id="node1" class="node"><title>Node1</title>
<polygon fill="#bfbfbf" stroke="black" points="0.5,-115 0.5,-145 143.5,-145 143.5,-115 0.5,-115"/>
<text text-anchor="start" x="8.5" y="-133" font-family="FreeSans" font-size="10.00">MWMechanics::Enchanting</text>
<text text-anchor="middle" x="72" y="-122" font-family="FreeSans" font-size="10.00">::nextCastStyle</text>
</g>
<!-- Node2 -->
<g id="node2" class="node"><title>Node2</title>
<g id="a_node2"><a xlink:href="classMWMechanics_1_1Enchanting.html#ac414a24f9bb39f6009e6887aa200fd4f" target="_top" xlink:title="MWMechanics::Enchanting\l::itemEmpty">
<polygon fill="white" stroke="black" points="180.5,-283 180.5,-313 323.5,-313 323.5,-283 180.5,-283"/>
<text text-anchor="start" x="188.5" y="-301" font-family="FreeSans" font-size="10.00">MWMechanics::Enchanting</text>
<text text-anchor="middle" x="252" y="-290" font-family="FreeSans" font-size="10.00">::itemEmpty</text>
</a>
</g>
</g>
<!-- Node1&#45;&gt;Node2 -->
<g id="edge1" class="edge"><title>Node1&#45;&gt;Node2</title>
<path fill="none" stroke="midnightblue" d="M82.2383,-145.193C98.9755,-171.714 136.627,-226.966 180,-262 187.58,-268.123 196.371,-273.604 205.13,-278.332"/>
<polygon fill="midnightblue" stroke="midnightblue" points="203.7,-281.532 214.195,-282.982 206.895,-275.304 203.7,-281.532"/>
</g>
<!-- Node4 -->
<g id="node4" class="node"><title>Node4</title>
<g id="a_node4"><a xlink:href="classMWMechanics_1_1Enchanting.html#a1f0925cb67c1f797445c37e4850f9059" target="_top" xlink:title="MWMechanics::Enchanting\l::getGemCharge">
<polygon fill="white" stroke="black" points="180.5,-115 180.5,-145 323.5,-145 323.5,-115 180.5,-115"/>
<text text-anchor="start" x="188.5" y="-133" font-family="FreeSans" font-size="10.00">MWMechanics::Enchanting</text>
<text text-anchor="middle" x="252" y="-122" font-family="FreeSans" font-size="10.00">::getGemCharge</text>
</a>
</g>
</g>
<!-- Node1&#45;&gt;Node4 -->
<g id="edge3" class="edge"><title>Node1&#45;&gt;Node4</title>
<path fill="none" stroke="midnightblue" d="M143.606,-130C152.421,-130 161.488,-130 170.441,-130"/>
<polygon fill="midnightblue" stroke="midnightblue" points="170.479,-133.5 180.479,-130 170.479,-126.5 170.479,-133.5"/>
</g>
<!-- Node5 -->
<g id="node5" class="node"><title>Node5</title>
<g id="a_node5"><a xlink:href="classMWBase_1_1Environment.html#a73f12633762b049c03c80fe215873faa" target="_top" xlink:title="Return instance of this class. ">
<polygon fill="white" stroke="black" points="360,-254.5 360,-273.5 506,-273.5 506,-254.5 360,-254.5"/>
<text text-anchor="middle" x="433" y="-261.5" font-family="FreeSans" font-size="10.00">MWBase::Environment::get</text>
</a>
</g>
</g>
<!-- Node1&#45;&gt;Node5 -->
<g id="edge12" class="edge"><title>Node1&#45;&gt;Node5</title>
<path fill="none" stroke="midnightblue" d="M96.9265,-145.08C118.15,-157.992 150.304,-176.437 180,-189 257.04,-221.593 279.694,-220.581 360,-244 368.687,-246.533 377.985,-249.171 386.917,-251.668"/>
<polygon fill="midnightblue" stroke="midnightblue" points="386.22,-255.107 396.793,-254.414 388.096,-248.363 386.22,-255.107"/>
</g>
<!-- Node6 -->
<g id="node6" class="node"><title>Node6</title>
<g id="a_node6"><a xlink:href="classMWBase_1_1Environment.html#ae14e166d8f5ff8629be119333d502660" target="_top" xlink:title="MWBase::Environment\l::getWorld">
<polygon fill="white" stroke="black" points="371,-205 371,-235 495,-235 495,-205 371,-205"/>
<text text-anchor="start" x="379" y="-223" font-family="FreeSans" font-size="10.00">MWBase::Environment</text>
<text text-anchor="middle" x="433" y="-212" font-family="FreeSans" font-size="10.00">::getWorld</text>
</a>
</g>
</g>
<!-- Node1&#45;&gt;Node6 -->
<g id="edge13" class="edge"><title>Node1&#45;&gt;Node6</title>
<path fill="none" stroke="midnightblue" d="M133.089,-145.064C196.217,-160.89 295.408,-185.757 362.023,-202.457"/>
<polygon fill="midnightblue" stroke="midnightblue" points="361.464,-205.925 372.015,-204.962 363.166,-199.135 361.464,-205.925"/>
</g>
<!-- Node7 -->
<g id="node7" class="node"><title>Node7</title>
<g id="a_node7"><a xlink:href="classMWBase_1_1World.html#a2ba0910cb944786065e37dc5f3fcda35" target="_top" xlink:title="MWBase::World::getStore">
<polygon fill="white" stroke="black" points="364.5,-41.5 364.5,-60.5 501.5,-60.5 501.5,-41.5 364.5,-41.5"/>
<text text-anchor="middle" x="433" y="-48.5" font-family="FreeSans" font-size="10.00">MWBase::World::getStore</text>
</a>
</g>
</g>
<!-- Node1&#45;&gt;Node7 -->
<g id="edge14" class="edge"><title>Node1&#45;&gt;Node7</title>
<path fill="none" stroke="midnightblue" d="M136.608,-114.935C150.874,-111.613 165.945,-108.148 180,-105 247.539,-89.8749 325.467,-73.3122 376.569,-62.5716"/>
<polygon fill="midnightblue" stroke="midnightblue" points="377.353,-65.9834 386.42,-60.5033 375.915,-59.1327 377.353,-65.9834"/>
</g>
<!-- Node11 -->
<g id="node11" class="node"><title>Node11</title>
<g id="a_node11"><a xlink:href="classMWWorld_1_1ESMStore.html#a94ffe201bd012dd41fcdabfb35c69e24" target="_top" xlink:title="MWWorld::ESMStore::get">
<polygon fill="white" stroke="black" points="366,-3.5 366,-22.5 500,-22.5 500,-3.5 366,-3.5"/>
<text text-anchor="middle" x="433" y="-10.5" font-family="FreeSans" font-size="10.00">MWWorld::ESMStore::get</text>
</a>
</g>
</g>
<!-- Node1&#45;&gt;Node11 -->
<g id="edge15" class="edge"><title>Node1&#45;&gt;Node11</title>
<path fill="none" stroke="midnightblue" d="M95.4334,-114.879C116.459,-101.336 149.184,-81.8374 180,-70 237.313,-47.9844 305.378,-33.2163 356.314,-24.2393"/>
<polygon fill="midnightblue" stroke="midnightblue" points="357.006,-27.6717 366.264,-22.5207 355.815,-20.7738 357.006,-27.6717"/>
</g>
<!-- Node12 -->
<g id="node12" class="node"><title>Node12</title>
<g id="a_node12"><a xlink:href="classESM_1_1Variant.html#aad77cad9a160b176ea71e09ecf2c55a5" target="_top" xlink:title="ESM::Variant::getInteger">
<polygon fill="white" stroke="black" points="185.5,-0.5 185.5,-19.5 318.5,-19.5 318.5,-0.5 185.5,-0.5"/>
<text text-anchor="middle" x="252" y="-7.5" font-family="FreeSans" font-size="10.00">ESM::Variant::getInteger</text>
</a>
</g>
</g>
<!-- Node1&#45;&gt;Node12 -->
<g id="edge16" class="edge"><title>Node1&#45;&gt;Node12</title>
<path fill="none" stroke="midnightblue" d="M86.0633,-114.934C104.894,-94.0649 141.64,-56.4047 180,-34 187.349,-29.7079 195.577,-26.0423 203.756,-22.9634"/>
<polygon fill="midnightblue" stroke="midnightblue" points="205.005,-26.2342 213.278,-19.616 202.684,-19.6304 205.005,-26.2342"/>
</g>
<!-- Node3 -->
<g id="node3" class="node"><title>Node3</title>
<g id="a_node3"><a xlink:href="classMWWorld_1_1Ptr.html#a0662c1165166221fd0f874e37ac24613" target="_top" xlink:title="MWWorld::Ptr::isEmpty">
<polygon fill="white" stroke="black" points="542,-226.5 542,-245.5 664,-245.5 664,-226.5 542,-226.5"/>
<text text-anchor="middle" x="603" y="-233.5" font-family="FreeSans" font-size="10.00">MWWorld::Ptr::isEmpty</text>
</a>
</g>
</g>
<!-- Node2&#45;&gt;Node3 -->
<g id="edge2" class="edge"><title>Node2&#45;&gt;Node3</title>
<path fill="none" stroke="midnightblue" d="M323.698,-301.192C375.094,-301.742 445.894,-298.813 506,-283 532.099,-276.134 559.526,-261.901 578.35,-250.887"/>
<polygon fill="midnightblue" stroke="midnightblue" points="580.333,-253.779 587.106,-245.631 576.731,-247.777 580.333,-253.779"/>
</g>
<!-- Node4&#45;&gt;Node5 -->
<g id="edge4" class="edge"><title>Node4&#45;&gt;Node5</title>
<path fill="none" stroke="midnightblue" d="M262.936,-145.048C279.891,-169.53 316.801,-217.869 360,-244 364.329,-246.619 369.01,-248.904 373.836,-250.896"/>
<polygon fill="midnightblue" stroke="midnightblue" points="372.645,-254.187 383.239,-254.377 375.076,-247.623 372.645,-254.187"/>
</g>
<!-- Node4&#45;&gt;Node6 -->
<g id="edge5" class="edge"><title>Node4&#45;&gt;Node6</title>
<path fill="none" stroke="midnightblue" d="M274.778,-145.122C295.877,-159.31 329.126,-180.464 360,-195 364.669,-197.198 369.586,-199.307 374.568,-201.302"/>
<polygon fill="midnightblue" stroke="midnightblue" points="373.589,-204.676 384.179,-204.994 376.099,-198.141 373.589,-204.676"/>
</g>
<!-- Node4&#45;&gt;Node7 -->
<g id="edge6" class="edge"><title>Node4&#45;&gt;Node7</title>
<path fill="none" stroke="midnightblue" d="M294.57,-114.857C304.496,-110.589 314.858,-105.57 324,-100 341.786,-89.1625 341.491,-79.5506 360,-70 364.551,-67.6519 369.417,-65.5755 374.392,-63.7431"/>
<polygon fill="midnightblue" stroke="midnightblue" points="375.668,-67.0068 384.039,-60.5124 373.445,-60.3691 375.668,-67.0068"/>
</g>
<!-- Node8 -->
<g id="node8" class="node"><title>Node8</title>
<g id="a_node8"><a xlink:href="classMWMechanics_1_1Enchanting.html#a2f063c0a1d3f809364fd0fe82b580715" target="_top" xlink:title="MWMechanics::Enchanting\l::soulEmpty">
<polygon fill="white" stroke="black" points="361.5,-156 361.5,-186 504.5,-186 504.5,-156 361.5,-156"/>
<text text-anchor="start" x="369.5" y="-174" font-family="FreeSans" font-size="10.00">MWMechanics::Enchanting</text>
<text text-anchor="middle" x="433" y="-163" font-family="FreeSans" font-size="10.00">::soulEmpty</text>
</a>
</g>
</g>
<!-- Node4&#45;&gt;Node8 -->
<g id="edge7" class="edge"><title>Node4&#45;&gt;Node8</title>
<path fill="none" stroke="midnightblue" d="M318.637,-145.034C330.919,-147.847 343.848,-150.809 356.402,-153.684"/>
<polygon fill="midnightblue" stroke="midnightblue" points="355.842,-157.147 366.371,-155.968 357.405,-150.323 355.842,-157.147"/>
</g>
<!-- Node9 -->
<g id="node9" class="node"><title>Node9</title>
<g id="a_node9"><a xlink:href="classMWWorld_1_1Ptr.html#acb6d9fb770fd8b8814df2358596ba656" target="_top" xlink:title="MWWorld::Ptr::getCellRef">
<polygon fill="white" stroke="black" points="367.5,-117.5 367.5,-136.5 498.5,-136.5 498.5,-117.5 367.5,-117.5"/>
<text text-anchor="middle" x="433" y="-124.5" font-family="FreeSans" font-size="10.00">MWWorld::Ptr::getCellRef</text>
</a>
</g>
</g>
<!-- Node4&#45;&gt;Node9 -->
<g id="edge9" class="edge"><title>Node4&#45;&gt;Node9</title>
<path fill="none" stroke="midnightblue" d="M323.746,-128.814C334.744,-128.63 346.138,-128.439 357.222,-128.253"/>
<polygon fill="midnightblue" stroke="midnightblue" points="357.354,-131.752 367.294,-128.084 357.237,-124.753 357.354,-131.752"/>
</g>
<!-- Node10 -->
<g id="node10" class="node"><title>Node10</title>
<g id="a_node10"><a xlink:href="classMWWorld_1_1CellRef.html#a4f92e5fcdd850e09b8e49a80f7c6f7de" target="_top" xlink:title="MWWorld::CellRef::getSoul">
<polygon fill="white" stroke="black" points="363.5,-79.5 363.5,-98.5 502.5,-98.5 502.5,-79.5 363.5,-79.5"/>
<text text-anchor="middle" x="433" y="-86.5" font-family="FreeSans" font-size="10.00">MWWorld::CellRef::getSoul</text>
</a>
</g>
</g>
<!-- Node4&#45;&gt;Node10 -->
<g id="edge10" class="edge"><title>Node4&#45;&gt;Node10</title>
<path fill="none" stroke="midnightblue" d="M318.637,-114.966C339.029,-110.295 361.204,-105.216 380.49,-100.798"/>
<polygon fill="midnightblue" stroke="midnightblue" points="381.32,-104.199 390.287,-98.5545 379.758,-97.3756 381.32,-104.199"/>
</g>
<!-- Node4&#45;&gt;Node11 -->
<g id="edge11" class="edge"><title>Node4&#45;&gt;Node11</title>
<path fill="none" stroke="midnightblue" d="M268.575,-114.961C295.645,-88.9392 349.498,-37.7341 360,-32 364.177,-29.7194 368.642,-27.7017 373.225,-25.9186"/>
<polygon fill="midnightblue" stroke="midnightblue" points="374.467,-29.1921 382.744,-22.5789 372.149,-22.5868 374.467,-29.1921"/>
</g>
<!-- Node8&#45;&gt;Node3 -->
<g id="edge8" class="edge"><title>Node8&#45;&gt;Node3</title>
<path fill="none" stroke="midnightblue" d="M481.06,-186.07C489.41,-188.919 497.993,-191.961 506,-195 528.221,-203.432 552.868,-213.985 571.624,-222.272"/>
<polygon fill="midnightblue" stroke="midnightblue" points="570.292,-225.51 580.851,-226.376 573.137,-219.114 570.292,-225.51"/>
</g>
</g>
</svg>
