<?xml version="1.0" encoding="UTF-8" standalone="no"?>
<!DOCTYPE svg PUBLIC "-//W3C//DTD SVG 1.1//EN"
 "http://www.w3.org/Graphics/SVG/1.1/DTD/svg11.dtd">
<!-- Generated by graphviz version 2.36.0 (20140111.2315)
 -->
<!-- Title: MWRender::Animation::addEffect Pages: 1 -->
<svg width="592pt" height="283pt"
 viewBox="0.00 0.00 592.00 283.00" xmlns="http://www.w3.org/2000/svg" xmlns:xlink="http://www.w3.org/1999/xlink">
<g id="graph0" class="graph" transform="scale(1 1) rotate(0) translate(4 279)">
<title>MWRender::Animation::addEffect</title>
<polygon fill="white" stroke="none" points="-4,4 -4,-279 588,-279 588,4 -4,4"/>
<!-- Node1 -->
<g id="node1" class="node"><title>Node1</title>
<polygon fill="#bfbfbf" stroke="black" points="0.5,-122 0.5,-152 121.5,-152 121.5,-122 0.5,-122"/>
<text text-anchor="start" x="8.5" y="-140" font-family="FreeSans" font-size="10.00">MWRender::Animation</text>
<text text-anchor="middle" x="61" y="-129" font-family="FreeSans" font-size="10.00">::addEffect</text>
</g>
<!-- Node2 -->
<g id="node2" class="node"><title>Node2</title>
<g id="a_node2"><a xlink:href="classMWRender_1_1Animation.html#a652a215abe4aac70d9c916a5ce3d503d" target="_top" xlink:title="MWRender::Animation\l::getNodeMap">
<polygon fill="white" stroke="black" points="174.5,-245 174.5,-275 295.5,-275 295.5,-245 174.5,-245"/>
<text text-anchor="start" x="182.5" y="-263" font-family="FreeSans" font-size="10.00">MWRender::Animation</text>
<text text-anchor="middle" x="235" y="-252" font-family="FreeSans" font-size="10.00">::getNodeMap</text>
</a>
</g>
</g>
<!-- Node1&#45;&gt;Node2 -->
<g id="edge1" class="edge"><title>Node1&#45;&gt;Node2</title>
<path fill="none" stroke="midnightblue" d="M73.0072,-152.15C89.292,-173.535 121.806,-212.472 158,-235 161.353,-237.087 164.9,-239.019 168.554,-240.805"/>
<polygon fill="midnightblue" stroke="midnightblue" points="167.257,-244.059 177.815,-244.946 170.115,-237.669 167.257,-244.059"/>
</g>
<!-- Node3 -->
<g id="node3" class="node"><title>Node3</title>
<g id="a_node3"><a xlink:href="classMisc_1_1StringUtils.html#a2982264998fde90a8e01ebab4bd69e14" target="_top" xlink:title="Returns lower case copy of input string. ">
<polygon fill="white" stroke="black" points="185.5,-196 185.5,-226 284.5,-226 284.5,-196 185.5,-196"/>
<text text-anchor="start" x="193.5" y="-214" font-family="FreeSans" font-size="10.00">Misc::StringUtils::</text>
<text text-anchor="middle" x="235" y="-203" font-family="FreeSans" font-size="10.00">lowerCase</text>
</a>
</g>
</g>
<!-- Node1&#45;&gt;Node3 -->
<g id="edge2" class="edge"><title>Node1&#45;&gt;Node3</title>
<path fill="none" stroke="midnightblue" d="M88.7833,-152.08C107.753,-162.408 133.992,-175.994 158,-186 163.721,-188.384 169.757,-190.697 175.825,-192.891"/>
<polygon fill="midnightblue" stroke="midnightblue" points="174.749,-196.223 185.344,-196.233 177.068,-189.618 174.749,-196.223"/>
</g>
<!-- Node6 -->
<g id="node6" class="node"><title>Node6</title>
<g id="a_node6"><a xlink:href="classResource_1_1ResourceSystem.html#a08d6f53366084e39ff8f5d336ba74b5f" target="_top" xlink:title="Resource::ResourceSystem\l::getSceneManager">
<polygon fill="white" stroke="black" points="162,-147 162,-177 308,-177 308,-147 162,-147"/>
<text text-anchor="start" x="170" y="-165" font-family="FreeSans" font-size="10.00">Resource::ResourceSystem</text>
<text text-anchor="middle" x="235" y="-154" font-family="FreeSans" font-size="10.00">::getSceneManager</text>
</a>
</g>
</g>
<!-- Node1&#45;&gt;Node6 -->
<g id="edge5" class="edge"><title>Node1&#45;&gt;Node6</title>
<path fill="none" stroke="midnightblue" d="M121.675,-145.674C131.426,-147.091 141.677,-148.581 151.855,-150.06"/>
<polygon fill="midnightblue" stroke="midnightblue" points="151.589,-153.558 161.989,-151.533 152.596,-146.631 151.589,-153.558"/>
</g>
<!-- Node7 -->
<g id="node7" class="node"><title>Node7</title>
<g id="a_node7"><a xlink:href="classResource_1_1SceneManager.html#ae146e6f78ef122d5e8701b1162cbb47b" target="_top" xlink:title="Resource::SceneManager\l::getInstance">
<polygon fill="white" stroke="black" points="166,-98 166,-128 304,-128 304,-98 166,-98"/>
<text text-anchor="start" x="174" y="-116" font-family="FreeSans" font-size="10.00">Resource::SceneManager</text>
<text text-anchor="middle" x="235" y="-105" font-family="FreeSans" font-size="10.00">::getInstance</text>
</a>
</g>
</g>
<!-- Node1&#45;&gt;Node7 -->
<g id="edge6" class="edge"><title>Node1&#45;&gt;Node7</title>
<path fill="none" stroke="midnightblue" d="M121.675,-128.673C132.706,-127.134 144.377,-125.506 155.86,-123.903"/>
<polygon fill="midnightblue" stroke="midnightblue" points="156.461,-127.353 165.881,-122.505 155.493,-120.421 156.461,-127.353"/>
</g>
<!-- Node8 -->
<g id="node8" class="node"><title>Node8</title>
<g id="a_node8"><a xlink:href="classSceneUtil_1_1FindMaxControllerLengthVisitor.html#a368e3299dd11b6f195b4e6fa63c5db48" target="_top" xlink:title="SceneUtil::FindMaxController\lLengthVisitor::getMaxLength">
<polygon fill="white" stroke="black" points="158,-49 158,-79 312,-79 312,-49 158,-49"/>
<text text-anchor="start" x="166" y="-67" font-family="FreeSans" font-size="10.00">SceneUtil::FindMaxController</text>
<text text-anchor="middle" x="235" y="-56" font-family="FreeSans" font-size="10.00">LengthVisitor::getMaxLength</text>
</a>
</g>
</g>
<!-- Node1&#45;&gt;Node8 -->
<g id="edge7" class="edge"><title>Node1&#45;&gt;Node8</title>
<path fill="none" stroke="midnightblue" d="M89.6445,-121.83C108.562,-111.786 134.396,-98.7227 158,-89 163.43,-86.7633 169.14,-84.5834 174.889,-82.5027"/>
<polygon fill="midnightblue" stroke="midnightblue" points="176.285,-85.7217 184.557,-79.102 173.963,-79.1183 176.285,-85.7217"/>
</g>
<!-- Node9 -->
<g id="node9" class="node"><title>Node9</title>
<g id="a_node9"><a xlink:href="namespaceMWRender.html#add8c2ed3ee5a5b2d525c32dc9c8b7a74" target="_top" xlink:title="MWRender::overrideFirstRoot\lTexture">
<polygon fill="white" stroke="black" points="159,-0 159,-30 311,-30 311,-0 159,-0"/>
<text text-anchor="start" x="167" y="-18" font-family="FreeSans" font-size="10.00">MWRender::overrideFirstRoot</text>
<text text-anchor="middle" x="235" y="-7" font-family="FreeSans" font-size="10.00">Texture</text>
</a>
</g>
</g>
<!-- Node1&#45;&gt;Node9 -->
<g id="edge8" class="edge"><title>Node1&#45;&gt;Node9</title>
<path fill="none" stroke="midnightblue" d="M73.3179,-121.654C89.7346,-100.42 122.138,-62.1943 158,-40 161.359,-37.9213 164.909,-35.996 168.567,-34.2155"/>
<polygon fill="midnightblue" stroke="midnightblue" points="170.126,-37.3527 177.834,-30.0835 167.275,-30.9595 170.126,-37.3527"/>
</g>
<!-- Node4 -->
<g id="node4" class="node"><title>Node4</title>
<g id="a_node4"><a xlink:href="classMisc_1_1StringUtils.html#a249dcf40e5ef16618daf8bf5d2098c54" target="_top" xlink:title="Transforms input string to lower case w/o copy. ">
<polygon fill="white" stroke="black" points="348.5,-196 348.5,-226 447.5,-226 447.5,-196 348.5,-196"/>
<text text-anchor="start" x="356.5" y="-214" font-family="FreeSans" font-size="10.00">Misc::StringUtils::</text>
<text text-anchor="middle" x="398" y="-203" font-family="FreeSans" font-size="10.00">lowerCaseInPlace</text>
</a>
</g>
</g>
<!-- Node3&#45;&gt;Node4 -->
<g id="edge3" class="edge"><title>Node3&#45;&gt;Node4</title>
<path fill="none" stroke="midnightblue" d="M284.742,-211C301.608,-211 320.689,-211 338.272,-211"/>
<polygon fill="midnightblue" stroke="midnightblue" points="338.423,-214.5 348.423,-211 338.423,-207.5 338.423,-214.5"/>
</g>
<!-- Node5 -->
<g id="node5" class="node"><title>Node5</title>
<g id="a_node5"><a xlink:href="classMisc_1_1StringUtils.html#a0759adb102842ee3bced227707eb6949" target="_top" xlink:title="Misc::StringUtils::\ltoLower">
<polygon fill="white" stroke="black" points="484.5,-196 484.5,-226 583.5,-226 583.5,-196 484.5,-196"/>
<text text-anchor="start" x="492.5" y="-214" font-family="FreeSans" font-size="10.00">Misc::StringUtils::</text>
<text text-anchor="middle" x="534" y="-203" font-family="FreeSans" font-size="10.00">toLower</text>
</a>
</g>
</g>
<!-- Node4&#45;&gt;Node5 -->
<g id="edge4" class="edge"><title>Node4&#45;&gt;Node5</title>
<path fill="none" stroke="midnightblue" d="M447.756,-211C456.254,-211 465.176,-211 473.916,-211"/>
<polygon fill="midnightblue" stroke="midnightblue" points="474.056,-214.5 484.056,-211 474.056,-207.5 474.056,-214.5"/>
</g>
</g>
</svg>
