<?xml version="1.0" encoding="UTF-8" standalone="no"?>
<!DOCTYPE svg PUBLIC "-//W3C//DTD SVG 1.1//EN"
 "http://www.w3.org/Graphics/SVG/1.1/DTD/svg11.dtd">
<!-- Generated by graphviz version 2.36.0 (20140111.2315)
 -->
<!-- Title: Nif::NIFStream::getVector4s Pages: 1 -->
<svg width="604pt" height="87pt"
 viewBox="0.00 0.00 604.00 87.00" xmlns="http://www.w3.org/2000/svg" xmlns:xlink="http://www.w3.org/1999/xlink">
<g id="graph0" class="graph" transform="scale(1 1) rotate(0) translate(4 83)">
<title>Nif::NIFStream::getVector4s</title>
<polygon fill="white" stroke="none" points="-4,4 -4,-83 600,-83 600,4 -4,4"/>
<!-- Node1 -->
<g id="node1" class="node"><title>Node1</title>
<polygon fill="#bfbfbf" stroke="black" points="0,-29.5 0,-48.5 136,-48.5 136,-29.5 0,-29.5"/>
<text text-anchor="middle" x="68" y="-36.5" font-family="FreeSans" font-size="10.00">Nif::NIFStream::getVector4s</text>
</g>
<!-- Node2 -->
<g id="node2" class="node"><title>Node2</title>
<g id="a_node2"><a xlink:href="classNif_1_1ShapeData.html#a3c698700f78f0df98a5bfcc57a464ec2" target="_top" xlink:title="Parses the record from file. ">
<polygon fill="white" stroke="black" points="172,-29.5 172,-48.5 276,-48.5 276,-29.5 172,-29.5"/>
<text text-anchor="middle" x="224" y="-36.5" font-family="FreeSans" font-size="10.00">Nif::ShapeData::read</text>
</a>
</g>
</g>
<!-- Node1&#45;&gt;Node2 -->
<g id="edge1" class="edge"><title>Node1&#45;&gt;Node2</title>
<path fill="none" stroke="midnightblue" d="M146.271,-39C154.957,-39 163.639,-39 171.874,-39"/>
<polygon fill="midnightblue" stroke="midnightblue" points="146.099,-35.5001 136.099,-39 146.099,-42.5001 146.099,-35.5001"/>
</g>
<!-- Node3 -->
<g id="node3" class="node"><title>Node3</title>
<g id="a_node3"><a xlink:href="classNif_1_1NiTriShapeData.html#ad7389a2d6f53d7cc83b55c17d75afbff" target="_top" xlink:title="Parses the record from file. ">
<polygon fill="white" stroke="black" points="327.5,-49 327.5,-79 428.5,-79 428.5,-49 327.5,-49"/>
<text text-anchor="start" x="335.5" y="-67" font-family="FreeSans" font-size="10.00">Nif::NiTriShapeData</text>
<text text-anchor="middle" x="378" y="-56" font-family="FreeSans" font-size="10.00">::read</text>
</a>
</g>
</g>
<!-- Node2&#45;&gt;Node3 -->
<g id="edge2" class="edge"><title>Node2&#45;&gt;Node3</title>
<path fill="none" stroke="midnightblue" d="M285.916,-49.019C299.687,-51.2841 314.147,-53.6624 327.387,-55.84"/>
<polygon fill="midnightblue" stroke="midnightblue" points="286.472,-45.5636 276.037,-47.3942 285.336,-52.4708 286.472,-45.5636"/>
</g>
<!-- Node4 -->
<g id="node4" class="node"><title>Node4</title>
<g id="a_node4"><a xlink:href="classNif_1_1NiAutoNormalParticlesData.html#a0a0770ddab650a6eb3e79172e5dbe248" target="_top" xlink:title="Parses the record from file. ">
<polygon fill="white" stroke="black" points="312.5,-0 312.5,-30 443.5,-30 443.5,-0 312.5,-0"/>
<text text-anchor="start" x="320.5" y="-18" font-family="FreeSans" font-size="10.00">Nif::NiAutoNormalParticles</text>
<text text-anchor="middle" x="378" y="-7" font-family="FreeSans" font-size="10.00">Data::read</text>
</a>
</g>
</g>
<!-- Node2&#45;&gt;Node4 -->
<g id="edge3" class="edge"><title>Node2&#45;&gt;Node4</title>
<path fill="none" stroke="midnightblue" d="M286.041,-29.362C294.692,-27.9959 303.613,-26.5874 312.331,-25.2109"/>
<polygon fill="midnightblue" stroke="midnightblue" points="285.368,-25.9247 276.037,-30.9416 286.46,-32.839 285.368,-25.9247"/>
</g>
<!-- Node5 -->
<g id="node5" class="node"><title>Node5</title>
<g id="a_node5"><a xlink:href="classNif_1_1NiRotatingParticlesData.html#ad49360cf9ef0e59eff3a2736a2ca8dc0" target="_top" xlink:title="Parses the record from file. ">
<polygon fill="white" stroke="black" points="480,-0 480,-30 596,-30 596,-0 480,-0"/>
<text text-anchor="start" x="488" y="-18" font-family="FreeSans" font-size="10.00">Nif::NiRotatingParticles</text>
<text text-anchor="middle" x="538" y="-7" font-family="FreeSans" font-size="10.00">Data::read</text>
</a>
</g>
</g>
<!-- Node4&#45;&gt;Node5 -->
<g id="edge4" class="edge"><title>Node4&#45;&gt;Node5</title>
<path fill="none" stroke="midnightblue" d="M453.942,-15C462.697,-15 471.518,-15 479.975,-15"/>
<polygon fill="midnightblue" stroke="midnightblue" points="453.721,-11.5001 443.721,-15 453.72,-18.5001 453.721,-11.5001"/>
</g>
</g>
</svg>
