<?xml version="1.0" encoding="UTF-8" standalone="no"?>
<!DOCTYPE svg PUBLIC "-//W3C//DTD SVG 1.1//EN"
 "http://www.w3.org/Graphics/SVG/1.1/DTD/svg11.dtd">
<!-- Generated by graphviz version 2.36.0 (20140111.2315)
 -->
<!-- Title: MWGui::BookWindow::setInventoryAllowed Pages: 1 -->
<svg width="464pt" height="87pt"
 viewBox="0.00 0.00 464.00 87.00" xmlns="http://www.w3.org/2000/svg" xmlns:xlink="http://www.w3.org/1999/xlink">
<g id="graph0" class="graph" transform="scale(1 1) rotate(0) translate(4 83)">
<title>MWGui::BookWindow::setInventoryAllowed</title>
<polygon fill="white" stroke="none" points="-4,4 -4,-83 460,-83 460,4 -4,4"/>
<!-- Node1 -->
<g id="node1" class="node"><title>Node1</title>
<polygon fill="#bfbfbf" stroke="black" points="0.5,-24 0.5,-54 119.5,-54 119.5,-24 0.5,-24"/>
<text text-anchor="start" x="8.5" y="-42" font-family="FreeSans" font-size="10.00">MWGui::BookWindow::</text>
<text text-anchor="middle" x="60" y="-31" font-family="FreeSans" font-size="10.00">setInventoryAllowed</text>
</g>
<!-- Node2 -->
<g id="node2" class="node"><title>Node2</title>
<g id="a_node2"><a xlink:href="classMWGui_1_1WindowManager.html#aeb2d42ff40077e3b3513c5ed67732fc5" target="_top" xlink:title="Allow one or more windows. ">
<polygon fill="white" stroke="black" points="156,-49 156,-79 288,-79 288,-49 156,-49"/>
<text text-anchor="start" x="164" y="-67" font-family="FreeSans" font-size="10.00">MWGui::WindowManager</text>
<text text-anchor="middle" x="222" y="-56" font-family="FreeSans" font-size="10.00">::allow</text>
</a>
</g>
</g>
<!-- Node1&#45;&gt;Node2 -->
<g id="edge1" class="edge"><title>Node1&#45;&gt;Node2</title>
<path fill="none" stroke="midnightblue" d="M129.736,-49.7399C138.402,-51.0941 147.248,-52.4763 155.857,-53.8214"/>
<polygon fill="midnightblue" stroke="midnightblue" points="130.09,-46.2529 119.67,-48.1671 129.009,-53.169 130.09,-46.2529"/>
</g>
<!-- Node4 -->
<g id="node4" class="node"><title>Node4</title>
<g id="a_node4"><a xlink:href="classMWGui_1_1WindowManager.html#a9f2fb85060c4d0ff97fc8e8be332192d" target="_top" xlink:title="Disallow all inventory mode windows. ">
<polygon fill="white" stroke="black" points="156,-0 156,-30 288,-30 288,-0 156,-0"/>
<text text-anchor="start" x="164" y="-18" font-family="FreeSans" font-size="10.00">MWGui::WindowManager</text>
<text text-anchor="middle" x="222" y="-7" font-family="FreeSans" font-size="10.00">::disallowAll</text>
</a>
</g>
</g>
<!-- Node1&#45;&gt;Node4 -->
<g id="edge3" class="edge"><title>Node1&#45;&gt;Node4</title>
<path fill="none" stroke="midnightblue" d="M129.736,-28.6897C138.402,-27.3897 147.248,-26.0627 155.857,-24.7715"/>
<polygon fill="midnightblue" stroke="midnightblue" points="129.04,-25.2548 119.67,-30.1996 130.078,-32.1774 129.04,-25.2548"/>
</g>
<!-- Node3 -->
<g id="node3" class="node"><title>Node3</title>
<g id="a_node3"><a xlink:href="classMWGui_1_1WindowManager.html#a924de31f311b3a886d4b9fb8ba9806c6" target="_top" xlink:title="MWGui::WindowManager\l::setNewGame">
<polygon fill="white" stroke="black" points="324,-24 324,-54 456,-54 456,-24 324,-24"/>
<text text-anchor="start" x="332" y="-42" font-family="FreeSans" font-size="10.00">MWGui::WindowManager</text>
<text text-anchor="middle" x="390" y="-31" font-family="FreeSans" font-size="10.00">::setNewGame</text>
</a>
</g>
</g>
<!-- Node2&#45;&gt;Node3 -->
<g id="edge2" class="edge"><title>Node2&#45;&gt;Node3</title>
<path fill="none" stroke="midnightblue" d="M298.114,-52.6877C306.681,-51.3975 315.361,-50.0903 323.784,-48.8217"/>
<polygon fill="midnightblue" stroke="midnightblue" points="297.498,-49.2408 288.131,-54.1911 298.541,-56.1627 297.498,-49.2408"/>
</g>
<!-- Node4&#45;&gt;Node3 -->
<g id="edge4" class="edge"><title>Node4&#45;&gt;Node3</title>
<path fill="none" stroke="midnightblue" d="M298.114,-25.8598C306.681,-27.0984 315.361,-28.3534 323.784,-29.5712"/>
<polygon fill="midnightblue" stroke="midnightblue" points="298.529,-22.3836 288.131,-24.4166 297.527,-29.3115 298.529,-22.3836"/>
</g>
</g>
</svg>
