<?xml version="1.0" encoding="UTF-8" standalone="no"?>
<!DOCTYPE svg PUBLIC "-//W3C//DTD SVG 1.1//EN"
 "http://www.w3.org/Graphics/SVG/1.1/DTD/svg11.dtd">
<!-- Generated by graphviz version 2.36.0 (20140111.2315)
 -->
<!-- Title: Gui::Box Pages: 1 -->
<svg width="255pt" height="388pt"
 viewBox="0.00 0.00 255.00 388.00" xmlns="http://www.w3.org/2000/svg" xmlns:xlink="http://www.w3.org/1999/xlink">
<g id="graph0" class="graph" transform="scale(1 1) rotate(0) translate(4 384)">
<title>Gui::Box</title>
<polygon fill="white" stroke="none" points="-4,4 -4,-384 251,-384 251,4 -4,4"/>
<!-- Node1 -->
<g id="node1" class="node"><title>Node1</title>
<polygon fill="#bfbfbf" stroke="black" points="50,-151 50,-263 196,-263 196,-151 50,-151"/>
<text text-anchor="middle" x="123" y="-251" font-family="FreeSans" font-size="10.00">Gui::Box</text>
<polyline fill="none" stroke="black" points="50,-244 196,-244 "/>
<text text-anchor="start" x="58" y="-232" font-family="FreeSans" font-size="10.00"># mSpacing</text>
<text text-anchor="start" x="58" y="-221" font-family="FreeSans" font-size="10.00"># mPadding</text>
<text text-anchor="start" x="58" y="-210" font-family="FreeSans" font-size="10.00"># mAutoResize</text>
<polyline fill="none" stroke="black" points="50,-203 196,-203 "/>
<text text-anchor="start" x="58" y="-191" font-family="FreeSans" font-size="10.00">+ Box()</text>
<text text-anchor="start" x="58" y="-180" font-family="FreeSans" font-size="10.00">+ notifyChildrenSizeChanged()</text>
<text text-anchor="start" x="58" y="-169" font-family="FreeSans" font-size="10.00"># align()</text>
<text text-anchor="start" x="58" y="-158" font-family="FreeSans" font-size="10.00"># _setPropertyImpl()</text>
</g>
<!-- Node3 -->
<g id="node3" class="node"><title>Node3</title>
<g id="a_node3"><a xlink:href="classGui_1_1HBox.html" target="_top" xlink:title="{Gui::HBox\n||+ setSize()\l+ setCoord()\l# align()\l# getRequestedSize()\l# setPropertyOverride()\l# onWidgetCreated()\l}">
<polygon fill="white" stroke="black" points="-0.5,-1 -0.5,-113 114.5,-113 114.5,-1 -0.5,-1"/>
<text text-anchor="middle" x="57" y="-101" font-family="FreeSans" font-size="10.00">Gui::HBox</text>
<polyline fill="none" stroke="black" points="-0.5,-94 114.5,-94 "/>
<text text-anchor="middle" x="57" y="-82" font-family="FreeSans" font-size="10.00"> </text>
<polyline fill="none" stroke="black" points="-0.5,-75 114.5,-75 "/>
<text text-anchor="start" x="7.5" y="-63" font-family="FreeSans" font-size="10.00">+ setSize()</text>
<text text-anchor="start" x="7.5" y="-52" font-family="FreeSans" font-size="10.00">+ setCoord()</text>
<text text-anchor="start" x="7.5" y="-41" font-family="FreeSans" font-size="10.00"># align()</text>
<text text-anchor="start" x="7.5" y="-30" font-family="FreeSans" font-size="10.00"># getRequestedSize()</text>
<text text-anchor="start" x="7.5" y="-19" font-family="FreeSans" font-size="10.00"># setPropertyOverride()</text>
<text text-anchor="start" x="7.5" y="-8" font-family="FreeSans" font-size="10.00"># onWidgetCreated()</text>
</a>
</g>
</g>
<!-- Node1&#45;&gt;Node3 -->
<g id="edge2" class="edge"><title>Node1&#45;&gt;Node3</title>
<path fill="none" stroke="midnightblue" d="M94.2487,-141.527C90.0315,-132.071 85.7202,-122.403 81.5965,-113.156"/>
<polygon fill="none" stroke="midnightblue" points="91.1546,-143.183 98.424,-150.89 97.5477,-140.332 91.1546,-143.183"/>
</g>
<!-- Node4 -->
<g id="node4" class="node"><title>Node4</title>
<g id="a_node4"><a xlink:href="classGui_1_1VBox.html" target="_top" xlink:title="{Gui::VBox\n||+ setSize()\l+ setCoord()\l# align()\l# getRequestedSize()\l# setPropertyOverride()\l# onWidgetCreated()\l}">
<polygon fill="white" stroke="black" points="132.5,-1 132.5,-113 247.5,-113 247.5,-1 132.5,-1"/>
<text text-anchor="middle" x="190" y="-101" font-family="FreeSans" font-size="10.00">Gui::VBox</text>
<polyline fill="none" stroke="black" points="132.5,-94 247.5,-94 "/>
<text text-anchor="middle" x="190" y="-82" font-family="FreeSans" font-size="10.00"> </text>
<polyline fill="none" stroke="black" points="132.5,-75 247.5,-75 "/>
<text text-anchor="start" x="140.5" y="-63" font-family="FreeSans" font-size="10.00">+ setSize()</text>
<text text-anchor="start" x="140.5" y="-52" font-family="FreeSans" font-size="10.00">+ setCoord()</text>
<text text-anchor="start" x="140.5" y="-41" font-family="FreeSans" font-size="10.00"># align()</text>
<text text-anchor="start" x="140.5" y="-30" font-family="FreeSans" font-size="10.00"># getRequestedSize()</text>
<text text-anchor="start" x="140.5" y="-19" font-family="FreeSans" font-size="10.00"># setPropertyOverride()</text>
<text text-anchor="start" x="140.5" y="-8" font-family="FreeSans" font-size="10.00"># onWidgetCreated()</text>
</a>
</g>
</g>
<!-- Node1&#45;&gt;Node4 -->
<g id="edge3" class="edge"><title>Node1&#45;&gt;Node4</title>
<path fill="none" stroke="midnightblue" d="M152.187,-141.527C156.468,-132.071 160.845,-122.403 165.031,-113.156"/>
<polygon fill="none" stroke="midnightblue" points="148.884,-140.337 147.948,-150.89 155.261,-143.224 148.884,-140.337"/>
</g>
<!-- Node2 -->
<g id="node2" class="node"><title>Node2</title>
<g id="a_node2"><a xlink:href="classGui_1_1AutoSizedWidget.html" target="_top" xlink:title="{Gui::AutoSizedWidget\n|# mExpandDirection\l|+ AutoSizedWidget()\l+ getRequestedSize()\l# notifySizeChange()\l}">
<polygon fill="white" stroke="black" points="68,-300.5 68,-379.5 178,-379.5 178,-300.5 68,-300.5"/>
<text text-anchor="middle" x="123" y="-367.5" font-family="FreeSans" font-size="10.00">Gui::AutoSizedWidget</text>
<polyline fill="none" stroke="black" points="68,-360.5 178,-360.5 "/>
<text text-anchor="start" x="76" y="-348.5" font-family="FreeSans" font-size="10.00"># mExpandDirection</text>
<polyline fill="none" stroke="black" points="68,-341.5 178,-341.5 "/>
<text text-anchor="start" x="76" y="-329.5" font-family="FreeSans" font-size="10.00">+ AutoSizedWidget()</text>
<text text-anchor="start" x="76" y="-318.5" font-family="FreeSans" font-size="10.00">+ getRequestedSize()</text>
<text text-anchor="start" x="76" y="-307.5" font-family="FreeSans" font-size="10.00"># notifySizeChange()</text>
</a>
</g>
</g>
<!-- Node2&#45;&gt;Node1 -->
<g id="edge1" class="edge"><title>Node2&#45;&gt;Node1</title>
<path fill="none" stroke="midnightblue" d="M123,-290.315C123,-281.514 123,-272.28 123,-263.307"/>
<polygon fill="none" stroke="midnightblue" points="119.5,-290.404 123,-300.404 126.5,-290.404 119.5,-290.404"/>
</g>
</g>
</svg>
