<?xml version="1.0" encoding="UTF-8" standalone="no"?>
<!DOCTYPE svg PUBLIC "-//W3C//DTD SVG 1.1//EN"
 "http://www.w3.org/Graphics/SVG/1.1/DTD/svg11.dtd">
<!-- Generated by graphviz version 2.36.0 (20140111.2315)
 -->
<!-- Title: CSVDoc::SubView::setStatusBar Pages: 1 -->
<svg width="524pt" height="38pt"
 viewBox="0.00 0.00 524.00 38.00" xmlns="http://www.w3.org/2000/svg" xmlns:xlink="http://www.w3.org/1999/xlink">
<g id="graph0" class="graph" transform="scale(1 1) rotate(0) translate(4 34)">
<title>CSVDoc::SubView::setStatusBar</title>
<polygon fill="white" stroke="none" points="-4,4 -4,-34 520,-34 520,4 -4,4"/>
<!-- Node1 -->
<g id="node1" class="node"><title>Node1</title>
<polygon fill="#bfbfbf" stroke="black" points="0,-5.5 0,-24.5 170,-24.5 170,-5.5 0,-5.5"/>
<text text-anchor="middle" x="85" y="-12.5" font-family="FreeSans" font-size="10.00">CSVDoc::SubView::setStatusBar</text>
</g>
<!-- Node2 -->
<g id="node2" class="node"><title>Node2</title>
<g id="a_node2"><a xlink:href="classCSVDoc_1_1View.html#a2ac96429b7935a4227b74cd151c89756" target="_top" xlink:title="CSVDoc::View::addSubView">
<polygon fill="white" stroke="black" points="206.5,-5.5 206.5,-24.5 353.5,-24.5 353.5,-5.5 206.5,-5.5"/>
<text text-anchor="middle" x="280" y="-12.5" font-family="FreeSans" font-size="10.00">CSVDoc::View::addSubView</text>
</a>
</g>
</g>
<!-- Node1&#45;&gt;Node2 -->
<g id="edge1" class="edge"><title>Node1&#45;&gt;Node2</title>
<path fill="none" stroke="midnightblue" d="M180.336,-15C189.087,-15 197.862,-15 206.372,-15"/>
<polygon fill="midnightblue" stroke="midnightblue" points="180.091,-11.5001 170.091,-15 180.091,-18.5001 180.091,-11.5001"/>
</g>
<!-- Node3 -->
<g id="node3" class="node"><title>Node3</title>
<g id="a_node3"><a xlink:href="classCSVDoc_1_1ViewManager.html#ad3a1e8f57ee7d0ad99030563652d85bc" target="_top" xlink:title="CSVDoc::ViewManager\l::addView">
<polygon fill="white" stroke="black" points="390.5,-0 390.5,-30 515.5,-30 515.5,-0 390.5,-0"/>
<text text-anchor="start" x="398.5" y="-18" font-family="FreeSans" font-size="10.00">CSVDoc::ViewManager</text>
<text text-anchor="middle" x="453" y="-7" font-family="FreeSans" font-size="10.00">::addView</text>
</a>
</g>
</g>
<!-- Node2&#45;&gt;Node3 -->
<g id="edge2" class="edge"><title>Node2&#45;&gt;Node3</title>
<path fill="none" stroke="midnightblue" d="M363.661,-15C372.678,-15 381.737,-15 390.437,-15"/>
<polygon fill="midnightblue" stroke="midnightblue" points="363.519,-11.5001 353.519,-15 363.519,-18.5001 363.519,-11.5001"/>
</g>
</g>
</svg>
