<?xml version="1.0" encoding="UTF-8" standalone="no"?>
<!DOCTYPE svg PUBLIC "-//W3C//DTD SVG 1.1//EN"
 "http://www.w3.org/Graphics/SVG/1.1/DTD/svg11.dtd">
<!-- Generated by graphviz version 2.36.0 (20140111.2315)
 -->
<!-- Title: MWScript::Transformation::OpFixme::execute Pages: 1 -->
<svg width="516pt" height="142pt"
 viewBox="0.00 0.00 516.00 142.00" xmlns="http://www.w3.org/2000/svg" xmlns:xlink="http://www.w3.org/1999/xlink">
<g id="graph0" class="graph" transform="scale(1 1) rotate(0) translate(4 138)">
<title>MWScript::Transformation::OpFixme::execute</title>
<polygon fill="white" stroke="none" points="-4,4 -4,-138 512,-138 512,4 -4,4"/>
<!-- Node1 -->
<g id="node1" class="node"><title>Node1</title>
<polygon fill="#bfbfbf" stroke="black" points="0,-52 0,-82 138,-82 138,-52 0,-52"/>
<text text-anchor="start" x="8" y="-70" font-family="FreeSans" font-size="10.00">MWScript::Transformation</text>
<text text-anchor="middle" x="69" y="-59" font-family="FreeSans" font-size="10.00">::OpFixme::execute</text>
</g>
<!-- Node2 -->
<g id="node2" class="node"><title>Node2</title>
<g id="a_node2"><a xlink:href="namespaceMWMechanics.html#a90645fe67f9b8b658452cd004d2cbb65" target="_top" xlink:title="MWMechanics::getPlayer">
<polygon fill="white" stroke="black" points="179,-76.5 179,-95.5 313,-95.5 313,-76.5 179,-76.5"/>
<text text-anchor="middle" x="246" y="-83.5" font-family="FreeSans" font-size="10.00">MWMechanics::getPlayer</text>
</a>
</g>
</g>
<!-- Node1&#45;&gt;Node2 -->
<g id="edge1" class="edge"><title>Node1&#45;&gt;Node2</title>
<path fill="none" stroke="midnightblue" d="M138.161,-74.4003C148.166,-75.4866 158.526,-76.6114 168.681,-77.714"/>
<polygon fill="midnightblue" stroke="midnightblue" points="168.429,-81.2071 178.748,-78.807 169.185,-74.248 168.429,-81.2071"/>
</g>
<!-- Node3 -->
<g id="node3" class="node"><title>Node3</title>
<g id="a_node3"><a xlink:href="classMWBase_1_1Environment.html#a73f12633762b049c03c80fe215873faa" target="_top" xlink:title="Return instance of this class. ">
<polygon fill="white" stroke="black" points="358,-114.5 358,-133.5 504,-133.5 504,-114.5 358,-114.5"/>
<text text-anchor="middle" x="431" y="-121.5" font-family="FreeSans" font-size="10.00">MWBase::Environment::get</text>
</a>
</g>
</g>
<!-- Node1&#45;&gt;Node3 -->
<g id="edge5" class="edge"><title>Node1&#45;&gt;Node3</title>
<path fill="none" stroke="midnightblue" d="M103.96,-82.1134C123.946,-90.3178 149.946,-99.8178 174,-105 231.165,-117.316 296.981,-121.998 347.564,-123.637"/>
<polygon fill="midnightblue" stroke="midnightblue" points="347.697,-127.142 357.794,-123.933 347.9,-120.145 347.697,-127.142"/>
</g>
<!-- Node4 -->
<g id="node4" class="node"><title>Node4</title>
<g id="a_node4"><a xlink:href="classMWBase_1_1Environment.html#ae14e166d8f5ff8629be119333d502660" target="_top" xlink:title="MWBase::Environment\l::getWorld">
<polygon fill="white" stroke="black" points="369,-27 369,-57 493,-57 493,-27 369,-27"/>
<text text-anchor="start" x="377" y="-45" font-family="FreeSans" font-size="10.00">MWBase::Environment</text>
<text text-anchor="middle" x="431" y="-34" font-family="FreeSans" font-size="10.00">::getWorld</text>
</a>
</g>
</g>
<!-- Node1&#45;&gt;Node4 -->
<g id="edge6" class="edge"><title>Node1&#45;&gt;Node4</title>
<path fill="none" stroke="midnightblue" d="M138.136,-62.2683C201.215,-57.8879 294.658,-51.3987 358.721,-46.9499"/>
<polygon fill="midnightblue" stroke="midnightblue" points="359.008,-50.4385 368.741,-46.2541 358.523,-43.4554 359.008,-50.4385"/>
</g>
<!-- Node6 -->
<g id="node6" class="node"><title>Node6</title>
<g id="a_node6"><a xlink:href="classMWBase_1_1World.html#a0b8ff18bea40c80ba292158185bcad0b" target="_top" xlink:title="Attempt to fix position so that the Ptr is no longer inside collision geometry. ">
<polygon fill="white" stroke="black" points="174.5,-0.5 174.5,-19.5 317.5,-19.5 317.5,-0.5 174.5,-0.5"/>
<text text-anchor="middle" x="246" y="-7.5" font-family="FreeSans" font-size="10.00">MWBase::World::fixPosition</text>
</a>
</g>
</g>
<!-- Node1&#45;&gt;Node6 -->
<g id="edge7" class="edge"><title>Node1&#45;&gt;Node6</title>
<path fill="none" stroke="midnightblue" d="M116.437,-51.8747C144.361,-42.7794 179.502,-31.3338 205.983,-22.7083"/>
<polygon fill="midnightblue" stroke="midnightblue" points="207.251,-25.9763 215.676,-19.5513 205.083,-19.3205 207.251,-25.9763"/>
</g>
<!-- Node2&#45;&gt;Node3 -->
<g id="edge2" class="edge"><title>Node2&#45;&gt;Node3</title>
<path fill="none" stroke="midnightblue" d="M293.179,-95.589C317.763,-100.694 348.186,-107.011 374.097,-112.392"/>
<polygon fill="midnightblue" stroke="midnightblue" points="373.651,-115.874 384.153,-114.48 375.074,-109.02 373.651,-115.874"/>
</g>
<!-- Node2&#45;&gt;Node4 -->
<g id="edge3" class="edge"><title>Node2&#45;&gt;Node4</title>
<path fill="none" stroke="midnightblue" d="M286.708,-76.4527C307.773,-71.3878 334.299,-65.01 358.785,-59.1228"/>
<polygon fill="midnightblue" stroke="midnightblue" points="359.865,-62.4629 368.769,-56.7221 358.228,-55.6569 359.865,-62.4629"/>
</g>
<!-- Node5 -->
<g id="node5" class="node"><title>Node5</title>
<g id="a_node5"><a xlink:href="classMWBase_1_1World.html#a95005e26dcb7b1f6dc906eb518b95762" target="_top" xlink:title="MWBase::World::getPlayerPtr">
<polygon fill="white" stroke="black" points="354.5,-76.5 354.5,-95.5 507.5,-95.5 507.5,-76.5 354.5,-76.5"/>
<text text-anchor="middle" x="431" y="-83.5" font-family="FreeSans" font-size="10.00">MWBase::World::getPlayerPtr</text>
</a>
</g>
</g>
<!-- Node2&#45;&gt;Node5 -->
<g id="edge4" class="edge"><title>Node2&#45;&gt;Node5</title>
<path fill="none" stroke="midnightblue" d="M313.067,-86C323.231,-86 333.849,-86 344.364,-86"/>
<polygon fill="midnightblue" stroke="midnightblue" points="344.395,-89.5001 354.395,-86 344.395,-82.5001 344.395,-89.5001"/>
</g>
</g>
</svg>
