<?xml version="1.0" encoding="UTF-8" standalone="no"?>
<!DOCTYPE svg PUBLIC "-//W3C//DTD SVG 1.1//EN"
 "http://www.w3.org/Graphics/SVG/1.1/DTD/svg11.dtd">
<!-- Generated by graphviz version 2.36.0 (20140111.2315)
 -->
<!-- Title: MWWorld::World::isCellExterior Pages: 1 -->
<svg width="372pt" height="116pt"
 viewBox="0.00 0.00 372.00 116.00" xmlns="http://www.w3.org/2000/svg" xmlns:xlink="http://www.w3.org/1999/xlink">
<g id="graph0" class="graph" transform="scale(1 1) rotate(0) translate(4 112)">
<title>MWWorld::World::isCellExterior</title>
<polygon fill="white" stroke="none" points="-4,4 -4,-112 368,-112 368,4 -4,4"/>
<!-- Node1 -->
<g id="node1" class="node"><title>Node1</title>
<polygon fill="#bfbfbf" stroke="black" points="0,-44.5 0,-63.5 158,-63.5 158,-44.5 0,-44.5"/>
<text text-anchor="middle" x="79" y="-51.5" font-family="FreeSans" font-size="10.00">MWWorld::World::isCellExterior</text>
</g>
<!-- Node2 -->
<g id="node2" class="node"><title>Node2</title>
<g id="a_node2"><a xlink:href="classMWWorld_1_1Scene.html#a986689a377ce4de5075a3308d92703a0" target="_top" xlink:title="MWWorld::Scene::getCurrentCell">
<polygon fill="white" stroke="black" points="194,-88.5 194,-107.5 364,-107.5 364,-88.5 194,-88.5"/>
<text text-anchor="middle" x="279" y="-95.5" font-family="FreeSans" font-size="10.00">MWWorld::Scene::getCurrentCell</text>
</a>
</g>
</g>
<!-- Node1&#45;&gt;Node2 -->
<g id="edge1" class="edge"><title>Node1&#45;&gt;Node2</title>
<path fill="none" stroke="midnightblue" d="M122.963,-63.5473C152.931,-70.2069 193.114,-79.1363 225.061,-86.2358"/>
<polygon fill="midnightblue" stroke="midnightblue" points="224.6,-89.7186 235.121,-88.4713 226.118,-82.8853 224.6,-89.7186"/>
</g>
<!-- Node3 -->
<g id="node3" class="node"><title>Node3</title>
<g id="a_node3"><a xlink:href="classMWWorld_1_1CellStore.html#a6b204d54fa4c8dc58ead29c86e2362ba" target="_top" xlink:title="MWWorld::CellStore\l::getCell">
<polygon fill="white" stroke="black" points="225,-39 225,-69 333,-69 333,-39 225,-39"/>
<text text-anchor="start" x="233" y="-57" font-family="FreeSans" font-size="10.00">MWWorld::CellStore</text>
<text text-anchor="middle" x="279" y="-46" font-family="FreeSans" font-size="10.00">::getCell</text>
</a>
</g>
</g>
<!-- Node1&#45;&gt;Node3 -->
<g id="edge2" class="edge"><title>Node1&#45;&gt;Node3</title>
<path fill="none" stroke="midnightblue" d="M158.255,-54C177.047,-54 196.883,-54 214.888,-54"/>
<polygon fill="midnightblue" stroke="midnightblue" points="214.968,-57.5001 224.968,-54 214.968,-50.5001 214.968,-57.5001"/>
</g>
<!-- Node4 -->
<g id="node4" class="node"><title>Node4</title>
<g id="a_node4"><a xlink:href="structESM_1_1Cell.html#a81fbb05c7c9f739f7d81504aabf7bb6b" target="_top" xlink:title="ESM::Cell::isExterior">
<polygon fill="white" stroke="black" points="223.5,-0.5 223.5,-19.5 334.5,-19.5 334.5,-0.5 223.5,-0.5"/>
<text text-anchor="middle" x="279" y="-7.5" font-family="FreeSans" font-size="10.00">ESM::Cell::isExterior</text>
</a>
</g>
</g>
<!-- Node1&#45;&gt;Node4 -->
<g id="edge3" class="edge"><title>Node1&#45;&gt;Node4</title>
<path fill="none" stroke="midnightblue" d="M122.963,-44.4527C152.931,-37.7931 193.114,-28.8637 225.061,-21.7642"/>
<polygon fill="midnightblue" stroke="midnightblue" points="226.118,-25.1147 235.121,-19.5287 224.6,-18.2814 226.118,-25.1147"/>
</g>
</g>
</svg>
