<?xml version="1.0" encoding="UTF-8" standalone="no"?>
<!DOCTYPE svg PUBLIC "-//W3C//DTD SVG 1.1//EN"
 "http://www.w3.org/Graphics/SVG/1.1/DTD/svg11.dtd">
<!-- Generated by graphviz version 2.36.0 (20140111.2315)
 -->
<!-- Title: CSMTools::PathgridCheckStage Pages: 1 -->
<svg width="864pt" height="1542pt"
 viewBox="0.00 0.00 864.00 1542.00" xmlns="http://www.w3.org/2000/svg" xmlns:xlink="http://www.w3.org/1999/xlink">
<g id="graph0" class="graph" transform="scale(1 1) rotate(0) translate(4 1538)">
<title>CSMTools::PathgridCheckStage</title>
<polygon fill="white" stroke="none" points="-4,4 -4,-1538 860,-1538 860,4 -4,4"/>
<!-- Node1 -->
<g id="node1" class="node"><title>Node1</title>
<polygon fill="#bfbfbf" stroke="black" points="244.5,-0.5 244.5,-79.5 399.5,-79.5 399.5,-0.5 244.5,-0.5"/>
<text text-anchor="middle" x="322" y="-67.5" font-family="FreeSans" font-size="10.00">CSMTools::PathgridCheckStage</text>
<polyline fill="none" stroke="black" points="244.5,-60.5 399.5,-60.5 "/>
<text text-anchor="middle" x="322" y="-48.5" font-family="FreeSans" font-size="10.00"> </text>
<polyline fill="none" stroke="black" points="244.5,-41.5 399.5,-41.5 "/>
<text text-anchor="start" x="252.5" y="-29.5" font-family="FreeSans" font-size="10.00">+ PathgridCheckStage()</text>
<text text-anchor="start" x="252.5" y="-18.5" font-family="FreeSans" font-size="10.00">+ setup()</text>
<text text-anchor="start" x="252.5" y="-7.5" font-family="FreeSans" font-size="10.00">+ perform()</text>
</g>
<!-- Node2 -->
<g id="node2" class="node"><title>Node2</title>
<g id="a_node2"><a xlink:href="classCSMDoc_1_1Stage.html" target="_top" xlink:title="{CSMDoc::Stage\n||+ ~Stage()\l+ setup()\l+ perform()\l}">
<polygon fill="white" stroke="black" points="233,-134.5 233,-213.5 319,-213.5 319,-134.5 233,-134.5"/>
<text text-anchor="middle" x="276" y="-201.5" font-family="FreeSans" font-size="10.00">CSMDoc::Stage</text>
<polyline fill="none" stroke="black" points="233,-194.5 319,-194.5 "/>
<text text-anchor="middle" x="276" y="-182.5" font-family="FreeSans" font-size="10.00"> </text>
<polyline fill="none" stroke="black" points="233,-175.5 319,-175.5 "/>
<text text-anchor="start" x="241" y="-163.5" font-family="FreeSans" font-size="10.00">+ ~Stage()</text>
<text text-anchor="start" x="241" y="-152.5" font-family="FreeSans" font-size="10.00">+ setup()</text>
<text text-anchor="start" x="241" y="-141.5" font-family="FreeSans" font-size="10.00">+ perform()</text>
</a>
</g>
</g>
<!-- Node2&#45;&gt;Node1 -->
<g id="edge1" class="edge"><title>Node2&#45;&gt;Node1</title>
<path fill="none" stroke="midnightblue" d="M292.75,-124.936C297.921,-110.095 303.549,-93.9452 308.475,-79.8111"/>
<polygon fill="none" stroke="midnightblue" points="289.415,-123.87 289.429,-134.465 296.025,-126.174 289.415,-123.87"/>
</g>
<!-- Node3 -->
<g id="node3" class="node"><title>Node3</title>
<g id="a_node3"><a xlink:href="classCSMWorld_1_1SubCellCollection.html" target="_top" xlink:title="{CSMWorld::SubCellCollection\l\&lt; CSMWorld::Pathgrid, CSMWorld\l::IdAccessor\&lt; CSMWorld::Pathgrid \&gt; \&gt;\n||+ SubCellCollection()\l&#45; loadRecord()\l}">
<polygon fill="white" stroke="black" points="337.5,-129 337.5,-219 518.5,-219 518.5,-129 337.5,-129"/>
<text text-anchor="start" x="345.5" y="-207" font-family="FreeSans" font-size="10.00">CSMWorld::SubCellCollection</text>
<text text-anchor="start" x="345.5" y="-196" font-family="FreeSans" font-size="10.00">&lt; CSMWorld::Pathgrid, CSMWorld</text>
<text text-anchor="middle" x="428" y="-185" font-family="FreeSans" font-size="10.00">::IdAccessor&lt; CSMWorld::Pathgrid &gt; &gt;</text>
<polyline fill="none" stroke="black" points="337.5,-178 518.5,-178 "/>
<text text-anchor="middle" x="428" y="-166" font-family="FreeSans" font-size="10.00"> </text>
<polyline fill="none" stroke="black" points="337.5,-159 518.5,-159 "/>
<text text-anchor="start" x="345.5" y="-147" font-family="FreeSans" font-size="10.00">+ SubCellCollection()</text>
<text text-anchor="start" x="345.5" y="-136" font-family="FreeSans" font-size="10.00">&#45; loadRecord()</text>
</a>
</g>
</g>
<!-- Node3&#45;&gt;Node1 -->
<g id="edge2" class="edge"><title>Node3&#45;&gt;Node1</title>
<path fill="none" stroke="#404040" d="M392.409,-128.679C382.248,-116.026 371.127,-102.177 360.786,-89.299"/>
<polygon fill="none" stroke="#404040" points="360.572,-89.0329 353.696,-86.8592 353.058,-79.6763 359.934,-81.8501 360.572,-89.0329"/>
<text text-anchor="middle" x="402.5" y="-101.5" font-family="FreeSans" font-size="10.00"> &#45;mPathgrids</text>
</g>
<!-- Node4 -->
<g id="node4" class="node"><title>Node4</title>
<g id="a_node4"><a xlink:href="classCSMWorld_1_1NestedIdCollection.html" target="_top" xlink:title="{CSMWorld::NestedIdCollection\l\&lt; ESXRecordT, IdAccessorT \&gt;\n||+ NestedIdCollection()\l+ ~NestedIdCollection()\l+ addNestedRow()\l+ removeNestedRows()\l+ getNestedData()\l+ setNestedData()\l+ nestedTable()\l+ setNestedTable()\l+ getNestedRowsCount()\l+ getNestedColumnsCount()\l+ getNestableColumn()\l+ addAdapter()\l&#45; getAdapter()\l}">
<polygon fill="white" stroke="black" points="276.5,-259 276.5,-459 425.5,-459 425.5,-259 276.5,-259"/>
<text text-anchor="start" x="284.5" y="-447" font-family="FreeSans" font-size="10.00">CSMWorld::NestedIdCollection</text>
<text text-anchor="middle" x="351" y="-436" font-family="FreeSans" font-size="10.00">&lt; ESXRecordT, IdAccessorT &gt;</text>
<polyline fill="none" stroke="black" points="276.5,-429 425.5,-429 "/>
<text text-anchor="middle" x="351" y="-417" font-family="FreeSans" font-size="10.00"> </text>
<polyline fill="none" stroke="black" points="276.5,-410 425.5,-410 "/>
<text text-anchor="start" x="284.5" y="-398" font-family="FreeSans" font-size="10.00">+ NestedIdCollection()</text>
<text text-anchor="start" x="284.5" y="-387" font-family="FreeSans" font-size="10.00">+ ~NestedIdCollection()</text>
<text text-anchor="start" x="284.5" y="-376" font-family="FreeSans" font-size="10.00">+ addNestedRow()</text>
<text text-anchor="start" x="284.5" y="-365" font-family="FreeSans" font-size="10.00">+ removeNestedRows()</text>
<text text-anchor="start" x="284.5" y="-354" font-family="FreeSans" font-size="10.00">+ getNestedData()</text>
<text text-anchor="start" x="284.5" y="-343" font-family="FreeSans" font-size="10.00">+ setNestedData()</text>
<text text-anchor="start" x="284.5" y="-332" font-family="FreeSans" font-size="10.00">+ nestedTable()</text>
<text text-anchor="start" x="284.5" y="-321" font-family="FreeSans" font-size="10.00">+ setNestedTable()</text>
<text text-anchor="start" x="284.5" y="-310" font-family="FreeSans" font-size="10.00">+ getNestedRowsCount()</text>
<text text-anchor="start" x="284.5" y="-299" font-family="FreeSans" font-size="10.00">+ getNestedColumnsCount()</text>
<text text-anchor="start" x="284.5" y="-288" font-family="FreeSans" font-size="10.00">+ getNestableColumn()</text>
<text text-anchor="start" x="284.5" y="-277" font-family="FreeSans" font-size="10.00">+ addAdapter()</text>
<text text-anchor="start" x="284.5" y="-266" font-family="FreeSans" font-size="10.00">&#45; getAdapter()</text>
</a>
</g>
</g>
<!-- Node4&#45;&gt;Node3 -->
<g id="edge3" class="edge"><title>Node4&#45;&gt;Node3</title>
<path fill="none" stroke="midnightblue" d="M396.687,-249.419C401.115,-238.895 405.412,-228.682 409.332,-219.367"/>
<polygon fill="none" stroke="midnightblue" points="393.42,-248.16 392.767,-258.734 399.872,-250.875 393.42,-248.16"/>
</g>
<!-- Node5 -->
<g id="node5" class="node"><title>Node5</title>
<g id="a_node5"><a xlink:href="classCSMWorld_1_1IdCollection.html" target="_top" xlink:title="Single type collection of top level records. ">
<polygon fill="white" stroke="black" points="112.5,-642.5 112.5,-743.5 261.5,-743.5 261.5,-642.5 112.5,-642.5"/>
<text text-anchor="start" x="120.5" y="-731.5" font-family="FreeSans" font-size="10.00">CSMWorld::IdCollection</text>
<text text-anchor="middle" x="187" y="-720.5" font-family="FreeSans" font-size="10.00">&lt; ESXRecordT, IdAccessorT &gt;</text>
<polyline fill="none" stroke="black" points="112.5,-713.5 261.5,-713.5 "/>
<text text-anchor="middle" x="187" y="-701.5" font-family="FreeSans" font-size="10.00"> </text>
<polyline fill="none" stroke="black" points="112.5,-694.5 261.5,-694.5 "/>
<text text-anchor="start" x="120.5" y="-682.5" font-family="FreeSans" font-size="10.00">+ load()</text>
<text text-anchor="start" x="120.5" y="-671.5" font-family="FreeSans" font-size="10.00">+ load()</text>
<text text-anchor="start" x="120.5" y="-660.5" font-family="FreeSans" font-size="10.00">+ tryDelete()</text>
<text text-anchor="start" x="120.5" y="-649.5" font-family="FreeSans" font-size="10.00">&#45; loadRecord()</text>
</a>
</g>
</g>
<!-- Node5&#45;&gt;Node4 -->
<g id="edge4" class="edge"><title>Node5&#45;&gt;Node4</title>
<path fill="none" stroke="midnightblue" d="M216.016,-633.26C239.797,-585.118 273.975,-515.929 301.989,-459.218"/>
<polygon fill="none" stroke="midnightblue" points="212.843,-631.78 211.552,-642.296 219.119,-634.881 212.843,-631.78"/>
</g>
<!-- Node6 -->
<g id="node6" class="node"><title>Node6</title>
<g id="a_node6"><a xlink:href="classCSMWorld_1_1Collection.html" target="_top" xlink:title="Single&#45;type record collection. ">
<polygon fill="white" stroke="black" points="112.5,-832.5 112.5,-1065.5 261.5,-1065.5 261.5,-832.5 112.5,-832.5"/>
<text text-anchor="start" x="120.5" y="-1053.5" font-family="FreeSans" font-size="10.00">CSMWorld::Collection</text>
<text text-anchor="middle" x="187" y="-1042.5" font-family="FreeSans" font-size="10.00">&lt; ESXRecordT, IdAccessorT &gt;</text>
<polyline fill="none" stroke="black" points="112.5,-1035.5 261.5,-1035.5 "/>
<text text-anchor="middle" x="187" y="-1023.5" font-family="FreeSans" font-size="10.00"> </text>
<polyline fill="none" stroke="black" points="112.5,-1016.5 261.5,-1016.5 "/>
<text text-anchor="start" x="120.5" y="-1004.5" font-family="FreeSans" font-size="10.00">+ Collection()</text>
<text text-anchor="start" x="120.5" y="-993.5" font-family="FreeSans" font-size="10.00">+ ~Collection()</text>
<text text-anchor="start" x="120.5" y="-982.5" font-family="FreeSans" font-size="10.00">+ add()</text>
<text text-anchor="start" x="120.5" y="-971.5" font-family="FreeSans" font-size="10.00">+ getSize()</text>
<text text-anchor="start" x="120.5" y="-960.5" font-family="FreeSans" font-size="10.00">+ getId()</text>
<text text-anchor="start" x="120.5" y="-949.5" font-family="FreeSans" font-size="10.00">+ getIndex()</text>
<text text-anchor="start" x="120.5" y="-938.5" font-family="FreeSans" font-size="10.00">+ getColumns()</text>
<text text-anchor="start" x="120.5" y="-927.5" font-family="FreeSans" font-size="10.00">+ getData()</text>
<text text-anchor="start" x="120.5" y="-916.5" font-family="FreeSans" font-size="10.00">+ setData()</text>
<text text-anchor="start" x="120.5" y="-905.5" font-family="FreeSans" font-size="10.00">+ getColumn()</text>
<text text-anchor="start" x="120.5" y="-894.5" font-family="FreeSans" font-size="10.00">and 17 more...</text>
<text text-anchor="start" x="120.5" y="-883.5" font-family="FreeSans" font-size="10.00"># getIdMap()</text>
<text text-anchor="start" x="120.5" y="-872.5" font-family="FreeSans" font-size="10.00"># getRecords()</text>
<text text-anchor="start" x="120.5" y="-861.5" font-family="FreeSans" font-size="10.00"># reorderRowsImp()</text>
<text text-anchor="start" x="120.5" y="-850.5" font-family="FreeSans" font-size="10.00">&#45; Collection()</text>
<text text-anchor="start" x="120.5" y="-839.5" font-family="FreeSans" font-size="10.00">&#45; operator=()</text>
</a>
</g>
</g>
<!-- Node6&#45;&gt;Node5 -->
<g id="edge5" class="edge"><title>Node6&#45;&gt;Node5</title>
<path fill="none" stroke="midnightblue" d="M187,-821.909C187,-794.08 187,-766.193 187,-743.593"/>
<polygon fill="none" stroke="midnightblue" points="183.5,-822.149 187,-832.149 190.5,-822.149 183.5,-822.149"/>
</g>
<!-- Node7 -->
<g id="node7" class="node"><title>Node7</title>
<g id="a_node7"><a xlink:href="classCSMWorld_1_1CollectionBase.html" target="_top" xlink:title="Base class for record collections. ">
<polygon fill="white" stroke="black" points="0,-1120.5 0,-1309.5 132,-1309.5 132,-1120.5 0,-1120.5"/>
<text text-anchor="middle" x="66" y="-1297.5" font-family="FreeSans" font-size="10.00">CSMWorld::CollectionBase</text>
<polyline fill="none" stroke="black" points="0,-1290.5 132,-1290.5 "/>
<text text-anchor="middle" x="66" y="-1278.5" font-family="FreeSans" font-size="10.00"> </text>
<polyline fill="none" stroke="black" points="0,-1271.5 132,-1271.5 "/>
<text text-anchor="start" x="8" y="-1259.5" font-family="FreeSans" font-size="10.00">+ CollectionBase()</text>
<text text-anchor="start" x="8" y="-1248.5" font-family="FreeSans" font-size="10.00">+ ~CollectionBase()</text>
<text text-anchor="start" x="8" y="-1237.5" font-family="FreeSans" font-size="10.00">+ getSize()</text>
<text text-anchor="start" x="8" y="-1226.5" font-family="FreeSans" font-size="10.00">+ getId()</text>
<text text-anchor="start" x="8" y="-1215.5" font-family="FreeSans" font-size="10.00">+ getIndex()</text>
<text text-anchor="start" x="8" y="-1204.5" font-family="FreeSans" font-size="10.00">+ getColumns()</text>
<text text-anchor="start" x="8" y="-1193.5" font-family="FreeSans" font-size="10.00">+ getColumn()</text>
<text text-anchor="start" x="8" y="-1182.5" font-family="FreeSans" font-size="10.00">+ getData()</text>
<text text-anchor="start" x="8" y="-1171.5" font-family="FreeSans" font-size="10.00">+ setData()</text>
<text text-anchor="start" x="8" y="-1160.5" font-family="FreeSans" font-size="10.00">+ removeRows()</text>
<text text-anchor="start" x="8" y="-1149.5" font-family="FreeSans" font-size="10.00">and 12 more...</text>
<text text-anchor="start" x="8" y="-1138.5" font-family="FreeSans" font-size="10.00">&#45; CollectionBase()</text>
<text text-anchor="start" x="8" y="-1127.5" font-family="FreeSans" font-size="10.00">&#45; operator=()</text>
</a>
</g>
</g>
<!-- Node7&#45;&gt;Node6 -->
<g id="edge6" class="edge"><title>Node7&#45;&gt;Node6</title>
<path fill="none" stroke="midnightblue" d="M113.206,-1111.01C120.014,-1096.15 127.058,-1080.78 133.97,-1065.7"/>
<polygon fill="none" stroke="midnightblue" points="109.986,-1109.63 109.001,-1120.18 116.349,-1112.55 109.986,-1109.63"/>
</g>
<!-- Node22 -->
<g id="node22" class="node"><title>Node22</title>
<g id="a_node22"><a xlink:href="classCSMWorld_1_1Collection.html" target="_top" xlink:title="Single&#45;type record collection. ">
<polygon fill="white" stroke="black" points="310,-827 310,-1071 456,-1071 456,-827 310,-827"/>
<text text-anchor="start" x="318" y="-1059" font-family="FreeSans" font-size="10.00">CSMWorld::Collection</text>
<text text-anchor="start" x="318" y="-1048" font-family="FreeSans" font-size="10.00">&lt; CSMWorld::Cell, IdAccessor</text>
<text text-anchor="middle" x="383" y="-1037" font-family="FreeSans" font-size="10.00">&lt; CSMWorld::Cell &gt; &gt;</text>
<polyline fill="none" stroke="black" points="310,-1030 456,-1030 "/>
<text text-anchor="middle" x="383" y="-1018" font-family="FreeSans" font-size="10.00"> </text>
<polyline fill="none" stroke="black" points="310,-1011 456,-1011 "/>
<text text-anchor="start" x="318" y="-999" font-family="FreeSans" font-size="10.00">+ Collection()</text>
<text text-anchor="start" x="318" y="-988" font-family="FreeSans" font-size="10.00">+ ~Collection()</text>
<text text-anchor="start" x="318" y="-977" font-family="FreeSans" font-size="10.00">+ add()</text>
<text text-anchor="start" x="318" y="-966" font-family="FreeSans" font-size="10.00">+ getSize()</text>
<text text-anchor="start" x="318" y="-955" font-family="FreeSans" font-size="10.00">+ getId()</text>
<text text-anchor="start" x="318" y="-944" font-family="FreeSans" font-size="10.00">+ getIndex()</text>
<text text-anchor="start" x="318" y="-933" font-family="FreeSans" font-size="10.00">+ getColumns()</text>
<text text-anchor="start" x="318" y="-922" font-family="FreeSans" font-size="10.00">+ getData()</text>
<text text-anchor="start" x="318" y="-911" font-family="FreeSans" font-size="10.00">+ setData()</text>
<text text-anchor="start" x="318" y="-900" font-family="FreeSans" font-size="10.00">+ getColumn()</text>
<text text-anchor="start" x="318" y="-889" font-family="FreeSans" font-size="10.00">and 17 more...</text>
<text text-anchor="start" x="318" y="-878" font-family="FreeSans" font-size="10.00"># getIdMap()</text>
<text text-anchor="start" x="318" y="-867" font-family="FreeSans" font-size="10.00"># getRecords()</text>
<text text-anchor="start" x="318" y="-856" font-family="FreeSans" font-size="10.00"># reorderRowsImp()</text>
<text text-anchor="start" x="318" y="-845" font-family="FreeSans" font-size="10.00">&#45; Collection()</text>
<text text-anchor="start" x="318" y="-834" font-family="FreeSans" font-size="10.00">&#45; operator=()</text>
</a>
</g>
</g>
<!-- Node7&#45;&gt;Node22 -->
<g id="edge23" class="edge"><title>Node7&#45;&gt;Node22</title>
<path fill="none" stroke="midnightblue" d="M139.346,-1121.68C139.897,-1121.12 140.449,-1120.56 141,-1120 155.911,-1104.97 158.821,-1098.96 178,-1090 215.744,-1072.36 233.606,-1092.28 270,-1072 284.122,-1064.13 297.473,-1053.86 309.714,-1042.63"/>
<polygon fill="none" stroke="midnightblue" points="136.558,-1119.53 132.2,-1129.19 141.629,-1124.36 136.558,-1119.53"/>
</g>
<!-- Node8 -->
<g id="node8" class="node"><title>Node8</title>
<polygon fill="white" stroke="#bfbfbf" points="150.5,-1181 150.5,-1249 291.5,-1249 291.5,-1181 150.5,-1181"/>
<text text-anchor="start" x="158.5" y="-1237" font-family="FreeSans" font-size="10.00">std::vector&lt; CSMWorld</text>
<text text-anchor="middle" x="221" y="-1226" font-family="FreeSans" font-size="10.00">::Column&lt; ESXRecordT &gt; * &gt;</text>
<polyline fill="none" stroke="#bfbfbf" points="150.5,-1219 291.5,-1219 "/>
<text text-anchor="middle" x="221" y="-1207" font-family="FreeSans" font-size="10.00"> </text>
<polyline fill="none" stroke="#bfbfbf" points="150.5,-1200 291.5,-1200 "/>
<text text-anchor="middle" x="221" y="-1188" font-family="FreeSans" font-size="10.00"> </text>
</g>
<!-- Node8&#45;&gt;Node6 -->
<g id="edge7" class="edge"><title>Node8&#45;&gt;Node6</title>
<path fill="none" stroke="#404040" d="M206.582,-1180.92C197.834,-1159 187.513,-1129.35 183,-1102 181.7,-1094.13 180.764,-1085.99 180.122,-1077.77"/>
<polygon fill="none" stroke="#404040" points="180.115,-1077.65 175.758,-1071.91 179.385,-1065.67 183.743,-1071.42 180.115,-1077.65"/>
<text text-anchor="middle" x="209" y="-1093.5" font-family="FreeSans" font-size="10.00"> &#45;mColumns</text>
</g>
<!-- Node8&#45;&gt;Node22 -->
<g id="edge24" class="edge"><title>Node8&#45;&gt;Node22</title>
<path fill="none" stroke="#404040" d="M226.764,-1180.85C232.219,-1154.94 242.005,-1118.64 258,-1090 265.053,-1077.37 282.244,-1056.67 301.695,-1035.01"/>
<polygon fill="none" stroke="#404040" points="301.784,-1034.91 302.85,-1027.78 309.843,-1026.02 308.777,-1033.15 301.784,-1034.91"/>
<text text-anchor="middle" x="284" y="-1093.5" font-family="FreeSans" font-size="10.00"> &#45;mColumns</text>
</g>
<!-- Node9 -->
<g id="node9" class="node"><title>Node9</title>
<polygon fill="white" stroke="#bfbfbf" points="157,-1368.5 157,-1425.5 285,-1425.5 285,-1368.5 157,-1368.5"/>
<text text-anchor="middle" x="221" y="-1413.5" font-family="FreeSans" font-size="10.00">Column&lt; ESXRecordT &gt; *</text>
<polyline fill="none" stroke="#bfbfbf" points="157,-1406.5 285,-1406.5 "/>
<text text-anchor="middle" x="221" y="-1394.5" font-family="FreeSans" font-size="10.00"> </text>
<polyline fill="none" stroke="#bfbfbf" points="157,-1387.5 285,-1387.5 "/>
<text text-anchor="middle" x="221" y="-1375.5" font-family="FreeSans" font-size="10.00"> </text>
</g>
<!-- Node9&#45;&gt;Node8 -->
<g id="edge8" class="edge"><title>Node9&#45;&gt;Node8</title>
<path fill="none" stroke="#404040" d="M221,-1368.27C221,-1339.85 221,-1295.18 221,-1261.56"/>
<polygon fill="none" stroke="#404040" points="221,-1261.27 217,-1255.27 221,-1249.27 225,-1255.27 221,-1261.27"/>
<text text-anchor="middle" x="245" y="-1336.5" font-family="FreeSans" font-size="10.00"> +elements</text>
</g>
<!-- Node10 -->
<g id="node10" class="node"><title>Node10</title>
<polygon fill="white" stroke="#bfbfbf" points="310,-1181 310,-1249 414,-1249 414,-1181 310,-1181"/>
<text text-anchor="start" x="318" y="-1237" font-family="FreeSans" font-size="10.00">std::map&lt; std::string,</text>
<text text-anchor="middle" x="362" y="-1226" font-family="FreeSans" font-size="10.00"> int &gt;</text>
<polyline fill="none" stroke="#bfbfbf" points="310,-1219 414,-1219 "/>
<text text-anchor="middle" x="362" y="-1207" font-family="FreeSans" font-size="10.00"> </text>
<polyline fill="none" stroke="#bfbfbf" points="310,-1200 414,-1200 "/>
<text text-anchor="middle" x="362" y="-1188" font-family="FreeSans" font-size="10.00"> </text>
</g>
<!-- Node10&#45;&gt;Node6 -->
<g id="edge9" class="edge"><title>Node10&#45;&gt;Node6</title>
<path fill="none" stroke="#404040" d="M351.459,-1181C342.446,-1155.16 328.074,-1118.9 310,-1090 298.346,-1071.37 284.218,-1052.77 269.749,-1035.5"/>
<polygon fill="none" stroke="#404040" points="269.475,-1035.17 262.538,-1033.2 261.688,-1026.04 268.625,-1028.01 269.475,-1035.17"/>
<text text-anchor="middle" x="333.5" y="-1093.5" font-family="FreeSans" font-size="10.00"> &#45;mIndex</text>
</g>
<!-- Node10&#45;&gt;Node22 -->
<g id="edge25" class="edge"><title>Node10&#45;&gt;Node22</title>
<path fill="none" stroke="#404040" d="M364.638,-1180.83C366.628,-1155.82 369.498,-1119.74 372.38,-1083.51"/>
<polygon fill="none" stroke="#404040" points="372.405,-1083.19 368.894,-1076.89 373.357,-1071.23 376.869,-1077.53 372.405,-1083.19"/>
<text text-anchor="middle" x="389.5" y="-1093.5" font-family="FreeSans" font-size="10.00"> &#45;mIndex</text>
</g>
<!-- Node11 -->
<g id="node11" class="node"><title>Node11</title>
<g id="a_node11"><a xlink:href="classint.html" target="_top" xlink:title="{int\n||}">
<polygon fill="white" stroke="black" points="383.5,-1368.5 383.5,-1425.5 412.5,-1425.5 412.5,-1368.5 383.5,-1368.5"/>
<text text-anchor="middle" x="398" y="-1413.5" font-family="FreeSans" font-size="10.00">int</text>
<polyline fill="none" stroke="black" points="383.5,-1406.5 412.5,-1406.5 "/>
<text text-anchor="middle" x="398" y="-1394.5" font-family="FreeSans" font-size="10.00"> </text>
<polyline fill="none" stroke="black" points="383.5,-1387.5 412.5,-1387.5 "/>
<text text-anchor="middle" x="398" y="-1375.5" font-family="FreeSans" font-size="10.00"> </text>
</a>
</g>
</g>
<!-- Node11&#45;&gt;Node10 -->
<g id="edge10" class="edge"><title>Node11&#45;&gt;Node10</title>
<path fill="none" stroke="#404040" d="M383.25,-1381.72C375.627,-1373.3 367.085,-1361.97 363,-1350 353.301,-1321.58 353.127,-1287.76 355.339,-1261.21"/>
<polygon fill="none" stroke="#404040" points="355.347,-1261.13 351.964,-1254.76 356.542,-1249.19 359.924,-1255.56 355.347,-1261.13"/>
<text text-anchor="middle" x="387" y="-1336.5" font-family="FreeSans" font-size="10.00"> +elements</text>
</g>
<!-- Node19 -->
<g id="node19" class="node"><title>Node19</title>
<g id="a_node19"><a xlink:href="structCSMWorld_1_1ColumnBase.html" target="_top" xlink:title="{CSMWorld::ColumnBase\n||+ ColumnBase()\l+ ~ColumnBase()\l+ isEditable()\l+ isUserEditable()\l+ getTitle()\l+ getId()\l+ isId()\l+ isText()\l+ isScript()\l}">
<polygon fill="white" stroke="black" points="432,-1142.5 432,-1287.5 554,-1287.5 554,-1142.5 432,-1142.5"/>
<text text-anchor="middle" x="493" y="-1275.5" font-family="FreeSans" font-size="10.00">CSMWorld::ColumnBase</text>
<polyline fill="none" stroke="black" points="432,-1268.5 554,-1268.5 "/>
<text text-anchor="middle" x="493" y="-1256.5" font-family="FreeSans" font-size="10.00"> </text>
<polyline fill="none" stroke="black" points="432,-1249.5 554,-1249.5 "/>
<text text-anchor="start" x="440" y="-1237.5" font-family="FreeSans" font-size="10.00">+ ColumnBase()</text>
<text text-anchor="start" x="440" y="-1226.5" font-family="FreeSans" font-size="10.00">+ ~ColumnBase()</text>
<text text-anchor="start" x="440" y="-1215.5" font-family="FreeSans" font-size="10.00">+ isEditable()</text>
<text text-anchor="start" x="440" y="-1204.5" font-family="FreeSans" font-size="10.00">+ isUserEditable()</text>
<text text-anchor="start" x="440" y="-1193.5" font-family="FreeSans" font-size="10.00">+ getTitle()</text>
<text text-anchor="start" x="440" y="-1182.5" font-family="FreeSans" font-size="10.00">+ getId()</text>
<text text-anchor="start" x="440" y="-1171.5" font-family="FreeSans" font-size="10.00">+ isId()</text>
<text text-anchor="start" x="440" y="-1160.5" font-family="FreeSans" font-size="10.00">+ isText()</text>
<text text-anchor="start" x="440" y="-1149.5" font-family="FreeSans" font-size="10.00">+ isScript()</text>
</a>
</g>
</g>
<!-- Node11&#45;&gt;Node19 -->
<g id="edge19" class="edge"><title>Node11&#45;&gt;Node19</title>
<path fill="none" stroke="#404040" d="M412.636,-1368.27C422.564,-1349.46 436.249,-1323.53 449.513,-1298.4"/>
<polygon fill="none" stroke="#404040" points="449.559,-1298.31 448.822,-1291.14 455.16,-1287.7 455.897,-1294.87 449.559,-1298.31"/>
<text text-anchor="middle" x="459" y="-1342" font-family="FreeSans" font-size="10.00"> +mFlags</text>
<text text-anchor="middle" x="459" y="-1331" font-family="FreeSans" font-size="10.00">+mColumnId</text>
</g>
<!-- Node12 -->
<g id="node12" class="node"><title>Node12</title>
<g id="a_node12"><a xlink:title="STL class. ">
<polygon fill="white" stroke="#bfbfbf" points="483.5,-1368.5 483.5,-1425.5 540.5,-1425.5 540.5,-1368.5 483.5,-1368.5"/>
<text text-anchor="middle" x="512" y="-1413.5" font-family="FreeSans" font-size="10.00">std::string</text>
<polyline fill="none" stroke="#bfbfbf" points="483.5,-1406.5 540.5,-1406.5 "/>
<text text-anchor="middle" x="512" y="-1394.5" font-family="FreeSans" font-size="10.00"> </text>
<polyline fill="none" stroke="#bfbfbf" points="483.5,-1387.5 540.5,-1387.5 "/>
<text text-anchor="middle" x="512" y="-1375.5" font-family="FreeSans" font-size="10.00"> </text>
</a>
</g>
</g>
<!-- Node12&#45;&gt;Node10 -->
<g id="edge11" class="edge"><title>Node12&#45;&gt;Node10</title>
<path fill="none" stroke="#404040" d="M509.245,-1368.18C506.481,-1354.36 500.971,-1338.43 490,-1328 467.654,-1306.75 447.936,-1328.14 423,-1310 405.541,-1297.3 391.756,-1277.95 381.741,-1260.1"/>
<polygon fill="none" stroke="#404040" points="381.611,-1259.85 375.267,-1256.43 375.993,-1249.25 382.336,-1252.68 381.611,-1259.85"/>
<text text-anchor="middle" x="517" y="-1336.5" font-family="FreeSans" font-size="10.00"> +keys</text>
</g>
<!-- Node13 -->
<g id="node13" class="node"><title>Node13</title>
<g id="a_node13"><a xlink:title="STL class. ">
<polygon fill="white" stroke="#bfbfbf" points="466.5,-1465 466.5,-1533 557.5,-1533 557.5,-1465 466.5,-1465"/>
<text text-anchor="start" x="474.5" y="-1521" font-family="FreeSans" font-size="10.00">std::basic_string&lt;</text>
<text text-anchor="middle" x="512" y="-1510" font-family="FreeSans" font-size="10.00"> char &gt;</text>
<polyline fill="none" stroke="#bfbfbf" points="466.5,-1503 557.5,-1503 "/>
<text text-anchor="middle" x="512" y="-1491" font-family="FreeSans" font-size="10.00"> </text>
<polyline fill="none" stroke="#bfbfbf" points="466.5,-1484 557.5,-1484 "/>
<text text-anchor="middle" x="512" y="-1472" font-family="FreeSans" font-size="10.00"> </text>
</a>
</g>
</g>
<!-- Node13&#45;&gt;Node12 -->
<g id="edge12" class="edge"><title>Node13&#45;&gt;Node12</title>
<path fill="none" stroke="midnightblue" d="M512,-1454.86C512,-1444.95 512,-1434.68 512,-1425.64"/>
<polygon fill="none" stroke="midnightblue" points="508.5,-1454.98 512,-1464.98 515.5,-1454.98 508.5,-1454.98"/>
</g>
<!-- Node14 -->
<g id="node14" class="node"><title>Node14</title>
<polygon fill="white" stroke="#bfbfbf" points="703.5,-1181 703.5,-1249 836.5,-1249 836.5,-1181 703.5,-1181"/>
<text text-anchor="start" x="711.5" y="-1237" font-family="FreeSans" font-size="10.00">std::vector&lt; CSMWorld</text>
<text text-anchor="middle" x="770" y="-1226" font-family="FreeSans" font-size="10.00">::Record&lt; ESXRecordT &gt; &gt;</text>
<polyline fill="none" stroke="#bfbfbf" points="703.5,-1219 836.5,-1219 "/>
<text text-anchor="middle" x="770" y="-1207" font-family="FreeSans" font-size="10.00"> </text>
<polyline fill="none" stroke="#bfbfbf" points="703.5,-1200 836.5,-1200 "/>
<text text-anchor="middle" x="770" y="-1188" font-family="FreeSans" font-size="10.00"> </text>
</g>
<!-- Node14&#45;&gt;Node6 -->
<g id="edge13" class="edge"><title>Node14&#45;&gt;Node6</title>
<path fill="none" stroke="#404040" d="M751.022,-1180.71C730.914,-1149.49 695.877,-1105.39 651,-1090 577.329,-1064.74 371.617,-1104.84 301,-1072 290.563,-1067.15 280.621,-1060.86 271.272,-1053.71"/>
<polygon fill="none" stroke="#404040" points="271.058,-1053.54 263.879,-1052.85 261.748,-1045.97 268.927,-1046.65 271.058,-1053.54"/>
<text text-anchor="middle" x="699.5" y="-1093.5" font-family="FreeSans" font-size="10.00"> &#45;mRecords</text>
</g>
<!-- Node14&#45;&gt;Node22 -->
<g id="edge26" class="edge"><title>Node14&#45;&gt;Node22</title>
<path fill="none" stroke="#404040" d="M774.294,-1180.76C775.929,-1152.23 772.942,-1112.29 748,-1090 703.493,-1050.22 538.402,-1097.81 467.267,-1071.51"/>
<polygon fill="none" stroke="#404040" points="467.176,-1071.46 460.048,-1072.56 456.297,-1066.4 463.425,-1065.31 467.176,-1071.46"/>
<text text-anchor="middle" x="780.5" y="-1093.5" font-family="FreeSans" font-size="10.00"> &#45;mRecords</text>
</g>
<!-- Node15 -->
<g id="node15" class="node"><title>Node15</title>
<polygon fill="white" stroke="#bfbfbf" points="634,-1368.5 634,-1425.5 754,-1425.5 754,-1368.5 634,-1368.5"/>
<text text-anchor="middle" x="694" y="-1413.5" font-family="FreeSans" font-size="10.00">Record&lt; ESXRecordT &gt;</text>
<polyline fill="none" stroke="#bfbfbf" points="634,-1406.5 754,-1406.5 "/>
<text text-anchor="middle" x="694" y="-1394.5" font-family="FreeSans" font-size="10.00"> </text>
<polyline fill="none" stroke="#bfbfbf" points="634,-1387.5 754,-1387.5 "/>
<text text-anchor="middle" x="694" y="-1375.5" font-family="FreeSans" font-size="10.00"> </text>
</g>
<!-- Node15&#45;&gt;Node14 -->
<g id="edge14" class="edge"><title>Node15&#45;&gt;Node14</title>
<path fill="none" stroke="#404040" d="M705.708,-1368.27C717.814,-1339.6 736.9,-1294.39 751.137,-1260.67"/>
<polygon fill="none" stroke="#404040" points="751.284,-1260.33 749.933,-1253.24 755.951,-1249.27 757.303,-1256.36 751.284,-1260.33"/>
<text text-anchor="middle" x="744" y="-1336.5" font-family="FreeSans" font-size="10.00"> +elements</text>
</g>
<!-- Node16 -->
<g id="node16" class="node"><title>Node16</title>
<g id="a_node16"><a xlink:href="classCSMWorld_1_1NestedCollection.html" target="_top" xlink:title="{CSMWorld::NestedCollection\n||+ NestedCollection()\l+ ~NestedCollection()\l+ addNestedRow()\l+ removeNestedRows()\l+ getNestedData()\l+ setNestedData()\l+ nestedTable()\l+ setNestedTable()\l+ getNestedRowsCount()\l+ getNestedColumnsCount()\l+ getNestableColumn()\l+ searchNestedColumnIndex()\l+ findNestedColumnIndex()\l}">
<polygon fill="white" stroke="black" points="280,-598.5 280,-787.5 426,-787.5 426,-598.5 280,-598.5"/>
<text text-anchor="middle" x="353" y="-775.5" font-family="FreeSans" font-size="10.00">CSMWorld::NestedCollection</text>
<polyline fill="none" stroke="black" points="280,-768.5 426,-768.5 "/>
<text text-anchor="middle" x="353" y="-756.5" font-family="FreeSans" font-size="10.00"> </text>
<polyline fill="none" stroke="black" points="280,-749.5 426,-749.5 "/>
<text text-anchor="start" x="288" y="-737.5" font-family="FreeSans" font-size="10.00">+ NestedCollection()</text>
<text text-anchor="start" x="288" y="-726.5" font-family="FreeSans" font-size="10.00">+ ~NestedCollection()</text>
<text text-anchor="start" x="288" y="-715.5" font-family="FreeSans" font-size="10.00">+ addNestedRow()</text>
<text text-anchor="start" x="288" y="-704.5" font-family="FreeSans" font-size="10.00">+ removeNestedRows()</text>
<text text-anchor="start" x="288" y="-693.5" font-family="FreeSans" font-size="10.00">+ getNestedData()</text>
<text text-anchor="start" x="288" y="-682.5" font-family="FreeSans" font-size="10.00">+ setNestedData()</text>
<text text-anchor="start" x="288" y="-671.5" font-family="FreeSans" font-size="10.00">+ nestedTable()</text>
<text text-anchor="start" x="288" y="-660.5" font-family="FreeSans" font-size="10.00">+ setNestedTable()</text>
<text text-anchor="start" x="288" y="-649.5" font-family="FreeSans" font-size="10.00">+ getNestedRowsCount()</text>
<text text-anchor="start" x="288" y="-638.5" font-family="FreeSans" font-size="10.00">+ getNestedColumnsCount()</text>
<text text-anchor="start" x="288" y="-627.5" font-family="FreeSans" font-size="10.00">+ getNestableColumn()</text>
<text text-anchor="start" x="288" y="-616.5" font-family="FreeSans" font-size="10.00">+ searchNestedColumnIndex()</text>
<text text-anchor="start" x="288" y="-605.5" font-family="FreeSans" font-size="10.00">+ findNestedColumnIndex()</text>
</a>
</g>
</g>
<!-- Node16&#45;&gt;Node4 -->
<g id="edge15" class="edge"><title>Node16&#45;&gt;Node4</title>
<path fill="none" stroke="midnightblue" d="M352.374,-588.133C352.126,-546.942 351.842,-499.786 351.597,-459.078"/>
<polygon fill="none" stroke="midnightblue" points="348.875,-588.215 352.435,-598.193 355.874,-588.172 348.875,-588.215"/>
</g>
<!-- Node17 -->
<g id="node17" class="node"><title>Node17</title>
<polygon fill="white" stroke="#bfbfbf" points="474,-904 474,-994 650,-994 650,-904 474,-904"/>
<text text-anchor="start" x="482" y="-982" font-family="FreeSans" font-size="10.00">std::map&lt; const CSMWorld</text>
<text text-anchor="start" x="482" y="-971" font-family="FreeSans" font-size="10.00">::ColumnBase *, CSMWorld</text>
<text text-anchor="start" x="482" y="-960" font-family="FreeSans" font-size="10.00">::NestedColumnAdapter&lt; ESXRecord</text>
<text text-anchor="middle" x="562" y="-949" font-family="FreeSans" font-size="10.00">T &gt; * &gt;</text>
<polyline fill="none" stroke="#bfbfbf" points="474,-942 650,-942 "/>
<text text-anchor="middle" x="562" y="-930" font-family="FreeSans" font-size="10.00"> </text>
<polyline fill="none" stroke="#bfbfbf" points="474,-923 650,-923 "/>
<text text-anchor="middle" x="562" y="-911" font-family="FreeSans" font-size="10.00"> </text>
</g>
<!-- Node17&#45;&gt;Node4 -->
<g id="edge16" class="edge"><title>Node17&#45;&gt;Node4</title>
<path fill="none" stroke="#404040" d="M574.407,-903.756C597.268,-811.695 634.481,-598.128 527,-478 500.655,-448.555 473.572,-476.308 436.817,-462.102"/>
<polygon fill="none" stroke="#404040" points="436.397,-461.894 429.245,-462.819 425.641,-456.573 432.792,-455.648 436.397,-461.894"/>
<text text-anchor="middle" x="625" y="-690.5" font-family="FreeSans" font-size="10.00"> &#45;mAdapters</text>
</g>
<!-- Node18 -->
<g id="node18" class="node"><title>Node18</title>
<polygon fill="white" stroke="#bfbfbf" points="572.5,-1181 572.5,-1249 685.5,-1249 685.5,-1181 572.5,-1181"/>
<text text-anchor="start" x="580.5" y="-1237" font-family="FreeSans" font-size="10.00">NestedColumnAdapter</text>
<text text-anchor="middle" x="629" y="-1226" font-family="FreeSans" font-size="10.00">&lt; ESXRecordT &gt; *</text>
<polyline fill="none" stroke="#bfbfbf" points="572.5,-1219 685.5,-1219 "/>
<text text-anchor="middle" x="629" y="-1207" font-family="FreeSans" font-size="10.00"> </text>
<polyline fill="none" stroke="#bfbfbf" points="572.5,-1200 685.5,-1200 "/>
<text text-anchor="middle" x="629" y="-1188" font-family="FreeSans" font-size="10.00"> </text>
</g>
<!-- Node18&#45;&gt;Node17 -->
<g id="edge17" class="edge"><title>Node18&#45;&gt;Node17</title>
<path fill="none" stroke="#404040" d="M620.582,-1180.83C609.464,-1137.02 589.719,-1059.22 576.254,-1006.16"/>
<polygon fill="none" stroke="#404040" points="576.18,-1005.87 570.827,-1001.04 573.228,-994.243 578.581,-999.075 576.18,-1005.87"/>
<text text-anchor="middle" x="623" y="-1093.5" font-family="FreeSans" font-size="10.00"> +elements</text>
</g>
<!-- Node19&#45;&gt;Node17 -->
<g id="edge18" class="edge"><title>Node19&#45;&gt;Node17</title>
<path fill="none" stroke="#404040" d="M511.763,-1142.21C522.975,-1099.31 537.008,-1045.62 547.39,-1005.9"/>
<polygon fill="none" stroke="#404040" points="547.454,-1005.65 545.101,-998.838 550.488,-994.045 552.841,-1000.86 547.454,-1005.65"/>
<text text-anchor="middle" x="537" y="-1093.5" font-family="FreeSans" font-size="10.00"> +keys</text>
</g>
<!-- Node20 -->
<g id="node20" class="node"><title>Node20</title>
<polygon fill="white" stroke="#bfbfbf" points="772.5,-1368.5 772.5,-1425.5 819.5,-1425.5 819.5,-1368.5 772.5,-1368.5"/>
<text text-anchor="middle" x="796" y="-1413.5" font-family="FreeSans" font-size="10.00">Display</text>
<polyline fill="none" stroke="#bfbfbf" points="772.5,-1406.5 819.5,-1406.5 "/>
<text text-anchor="middle" x="796" y="-1394.5" font-family="FreeSans" font-size="10.00"> </text>
<polyline fill="none" stroke="#bfbfbf" points="772.5,-1387.5 819.5,-1387.5 "/>
<text text-anchor="middle" x="796" y="-1375.5" font-family="FreeSans" font-size="10.00"> </text>
</g>
<!-- Node20&#45;&gt;Node19 -->
<g id="edge20" class="edge"><title>Node20&#45;&gt;Node19</title>
<path fill="none" stroke="#404040" d="M793.298,-1368.33C790.385,-1354.02 784.373,-1337.58 772,-1328 735.317,-1299.59 604.601,-1332.45 564,-1310 557.305,-1306.3 551.051,-1301.67 545.252,-1296.47"/>
<polygon fill="none" stroke="#404040" points="545.067,-1296.29 537.985,-1294.93 536.514,-1287.87 543.597,-1289.23 545.067,-1296.29"/>
<text text-anchor="middle" x="821.5" y="-1336.5" font-family="FreeSans" font-size="10.00"> +mDisplayType</text>
</g>
<!-- Node21 -->
<g id="node21" class="node"><title>Node21</title>
<g id="a_node21"><a xlink:href="classCSMWorld_1_1IdCollection.html" target="_top" xlink:title="{CSMWorld::IdCollection\l\&lt; CSMWorld::Cell \&gt;\n||+ load()\l+ load()\l+ tryDelete()\l&#45; loadRecord()\l}">
<polygon fill="white" stroke="black" points="399.5,-478.5 399.5,-579.5 518.5,-579.5 518.5,-478.5 399.5,-478.5"/>
<text text-anchor="start" x="407.5" y="-567.5" font-family="FreeSans" font-size="10.00">CSMWorld::IdCollection</text>
<text text-anchor="middle" x="459" y="-556.5" font-family="FreeSans" font-size="10.00">&lt; CSMWorld::Cell &gt;</text>
<polyline fill="none" stroke="black" points="399.5,-549.5 518.5,-549.5 "/>
<text text-anchor="middle" x="459" y="-537.5" font-family="FreeSans" font-size="10.00"> </text>
<polyline fill="none" stroke="black" points="399.5,-530.5 518.5,-530.5 "/>
<text text-anchor="start" x="407.5" y="-518.5" font-family="FreeSans" font-size="10.00">+ load()</text>
<text text-anchor="start" x="407.5" y="-507.5" font-family="FreeSans" font-size="10.00">+ load()</text>
<text text-anchor="start" x="407.5" y="-496.5" font-family="FreeSans" font-size="10.00">+ tryDelete()</text>
<text text-anchor="start" x="407.5" y="-485.5" font-family="FreeSans" font-size="10.00">&#45; loadRecord()</text>
</a>
</g>
</g>
<!-- Node21&#45;&gt;Node3 -->
<g id="edge21" class="edge"><title>Node21&#45;&gt;Node3</title>
<path fill="none" stroke="#404040" d="M454.624,-478.172C448.905,-413.048 438.915,-299.295 432.933,-231.177"/>
<polygon fill="none" stroke="#404040" points="432.915,-230.965 428.405,-225.338 431.865,-219.011 436.375,-224.638 432.915,-230.965"/>
<text text-anchor="middle" x="469.5" y="-356.5" font-family="FreeSans" font-size="10.00"> &#45;mCells</text>
</g>
<!-- Node22&#45;&gt;Node21 -->
<g id="edge22" class="edge"><title>Node22&#45;&gt;Node21</title>
<path fill="none" stroke="midnightblue" d="M428.109,-817.109C430.69,-807.324 433.03,-797.547 435,-788 449.728,-716.628 455.426,-632.27 457.626,-579.942"/>
<polygon fill="none" stroke="midnightblue" points="424.697,-816.321 425.454,-826.889 431.452,-818.155 424.697,-816.321"/>
</g>
</g>
</svg>
