<?xml version="1.0" encoding="UTF-8" standalone="no"?>
<!DOCTYPE svg PUBLIC "-//W3C//DTD SVG 1.1//EN"
 "http://www.w3.org/Graphics/SVG/1.1/DTD/svg11.dtd">
<!-- Generated by graphviz version 2.36.0 (20140111.2315)
 -->
<!-- Title: MWMechanics::AiSequence::execute Pages: 1 -->
<svg width="530pt" height="361pt"
 viewBox="0.00 0.00 530.00 361.00" xmlns="http://www.w3.org/2000/svg" xmlns:xlink="http://www.w3.org/1999/xlink">
<g id="graph0" class="graph" transform="scale(1 1) rotate(0) translate(4 357)">
<title>MWMechanics::AiSequence::execute</title>
<polygon fill="white" stroke="none" points="-4,4 -4,-357 526,-357 526,4 -4,4"/>
<!-- Node1 -->
<g id="node1" class="node"><title>Node1</title>
<polygon fill="#bfbfbf" stroke="black" points="0.5,-128 0.5,-158 137.5,-158 137.5,-128 0.5,-128"/>
<text text-anchor="start" x="8.5" y="-146" font-family="FreeSans" font-size="10.00">MWMechanics::AiSequence</text>
<text text-anchor="middle" x="69" y="-135" font-family="FreeSans" font-size="10.00">::execute</text>
</g>
<!-- Node2 -->
<g id="node2" class="node"><title>Node2</title>
<g id="a_node2"><a xlink:href="namespaceMWMechanics.html#a90645fe67f9b8b658452cd004d2cbb65" target="_top" xlink:title="MWMechanics::getPlayer">
<polygon fill="white" stroke="black" points="195.5,-240.5 195.5,-259.5 320.5,-259.5 320.5,-240.5 195.5,-240.5"/>
<text text-anchor="middle" x="258" y="-247.5" font-family="FreeSans" font-size="10.00">MWMechanics::getPlayer</text>
</a>
</g>
</g>
<!-- Node1&#45;&gt;Node2 -->
<g id="edge1" class="edge"><title>Node1&#45;&gt;Node2</title>
<path fill="none" stroke="midnightblue" d="M83.5963,-158.053C102.118,-177.619 137.207,-211.47 174,-230 179.647,-232.844 185.716,-235.295 191.911,-237.406"/>
<polygon fill="midnightblue" stroke="midnightblue" points="191.117,-240.824 201.705,-240.45 193.194,-234.14 191.117,-240.824"/>
</g>
<!-- Node6 -->
<g id="node6" class="node"><title>Node6</title>
<g id="a_node6"><a xlink:href="classMWMechanics_1_1AiPackage.html#a65efe0a8b26a64a972e1e88f8231900d" target="_top" xlink:title="MWMechanics::AiPackage\l::getTypeId">
<polygon fill="white" stroke="black" points="192,-191 192,-221 324,-221 324,-191 192,-191"/>
<text text-anchor="start" x="200" y="-209" font-family="FreeSans" font-size="10.00">MWMechanics::AiPackage</text>
<text text-anchor="middle" x="258" y="-198" font-family="FreeSans" font-size="10.00">::getTypeId</text>
</a>
</g>
</g>
<!-- Node1&#45;&gt;Node6 -->
<g id="edge5" class="edge"><title>Node1&#45;&gt;Node6</title>
<path fill="none" stroke="midnightblue" d="M109.813,-158.159C129.104,-165.346 152.661,-173.894 174,-181 180.97,-183.321 188.299,-185.665 195.598,-187.941"/>
<polygon fill="midnightblue" stroke="midnightblue" points="194.907,-191.39 205.494,-190.991 196.969,-184.701 194.907,-191.39"/>
</g>
<!-- Node7 -->
<g id="node7" class="node"><title>Node7</title>
<g id="a_node7"><a xlink:href="namespaceMWMechanics.html#a794ad3ada7ff83ab435c368a224c6fbd" target="_top" xlink:title="MWMechanics::isActualAiPackage">
<polygon fill="white" stroke="black" points="174.5,-152.5 174.5,-171.5 341.5,-171.5 341.5,-152.5 174.5,-152.5"/>
<text text-anchor="middle" x="258" y="-159.5" font-family="FreeSans" font-size="10.00">MWMechanics::isActualAiPackage</text>
</a>
</g>
</g>
<!-- Node1&#45;&gt;Node7 -->
<g id="edge6" class="edge"><title>Node1&#45;&gt;Node7</title>
<path fill="none" stroke="midnightblue" d="M137.511,-149.859C146.177,-150.74 155.165,-151.653 164.146,-152.566"/>
<polygon fill="midnightblue" stroke="midnightblue" points="163.962,-156.065 174.265,-153.594 164.67,-149.101 163.962,-156.065"/>
</g>
<!-- Node8 -->
<g id="node8" class="node"><title>Node8</title>
<g id="a_node8"><a xlink:href="classMWWorld_1_1Ptr.html#aa35780406bea82e5dcff038800bd10e0" target="_top" xlink:title="MWWorld::Ptr::getRefData">
<polygon fill="white" stroke="black" points="193.5,-114.5 193.5,-133.5 322.5,-133.5 322.5,-114.5 193.5,-114.5"/>
<text text-anchor="middle" x="258" y="-121.5" font-family="FreeSans" font-size="10.00">MWWorld::Ptr::getRefData</text>
</a>
</g>
</g>
<!-- Node1&#45;&gt;Node8 -->
<g id="edge7" class="edge"><title>Node1&#45;&gt;Node8</title>
<path fill="none" stroke="midnightblue" d="M137.511,-136.141C152.302,-134.638 168.034,-133.039 183.061,-131.513"/>
<polygon fill="midnightblue" stroke="midnightblue" points="183.737,-134.962 193.331,-130.469 183.029,-127.998 183.737,-134.962"/>
</g>
<!-- Node9 -->
<g id="node9" class="node"><title>Node9</title>
<g id="a_node9"><a xlink:href="classMWWorld_1_1RefData.html#a32f3f82fc97a20fd3a776751f43ca131" target="_top" xlink:title="MWWorld::RefData::getPosition">
<polygon fill="white" stroke="black" points="182.5,-76.5 182.5,-95.5 333.5,-95.5 333.5,-76.5 182.5,-76.5"/>
<text text-anchor="middle" x="258" y="-83.5" font-family="FreeSans" font-size="10.00">MWWorld::RefData::getPosition</text>
</a>
</g>
</g>
<!-- Node1&#45;&gt;Node9 -->
<g id="edge8" class="edge"><title>Node1&#45;&gt;Node9</title>
<path fill="none" stroke="midnightblue" d="M107.654,-127.949C127.242,-120.45 151.696,-111.599 174,-105 182.548,-102.471 191.675,-100.079 200.633,-97.8997"/>
<polygon fill="midnightblue" stroke="midnightblue" points="201.71,-101.242 210.636,-95.5341 200.099,-94.4296 201.71,-101.242"/>
</g>
<!-- Node10 -->
<g id="node10" class="node"><title>Node10</title>
<g id="a_node10"><a xlink:href="structESM_1_1Position.html#a71dbd95e261f1976f60cbe456d450948" target="_top" xlink:title="ESM::Position::asVec3">
<polygon fill="white" stroke="black" points="201.5,-38.5 201.5,-57.5 314.5,-57.5 314.5,-38.5 201.5,-38.5"/>
<text text-anchor="middle" x="258" y="-45.5" font-family="FreeSans" font-size="10.00">ESM::Position::asVec3</text>
</a>
</g>
</g>
<!-- Node1&#45;&gt;Node10 -->
<g id="edge9" class="edge"><title>Node1&#45;&gt;Node10</title>
<path fill="none" stroke="midnightblue" d="M86.302,-127.761C105.712,-110.452 139.82,-82.5953 174,-67 179.648,-64.4228 185.678,-62.1798 191.81,-60.2307"/>
<polygon fill="midnightblue" stroke="midnightblue" points="192.875,-63.5662 201.493,-57.4041 190.913,-56.8466 192.875,-63.5662"/>
</g>
<!-- Node11 -->
<g id="node11" class="node"><title>Node11</title>
<g id="a_node11"><a xlink:href="classMWMechanics_1_1AiCombat.html#a1b7d08b93a6f4579767af1705b153570" target="_top" xlink:title="Returns target ID. ">
<polygon fill="white" stroke="black" points="194,-279 194,-309 322,-309 322,-279 194,-279"/>
<text text-anchor="start" x="202" y="-297" font-family="FreeSans" font-size="10.00">MWMechanics::AiCombat</text>
<text text-anchor="middle" x="258" y="-286" font-family="FreeSans" font-size="10.00">::getTarget</text>
</a>
</g>
</g>
<!-- Node1&#45;&gt;Node11 -->
<g id="edge10" class="edge"><title>Node1&#45;&gt;Node11</title>
<path fill="none" stroke="midnightblue" d="M78.4682,-158.276C93.9453,-184.789 129.356,-239.323 174,-269 177.29,-271.187 180.778,-273.188 184.388,-275.019"/>
<polygon fill="midnightblue" stroke="midnightblue" points="183.025,-278.244 193.574,-279.227 185.94,-271.88 183.025,-278.244"/>
</g>
<!-- Node13 -->
<g id="node13" class="node"><title>Node13</title>
<g id="a_node13"><a xlink:href="classMWWorld_1_1Ptr.html#a0662c1165166221fd0f874e37ac24613" target="_top" xlink:title="MWWorld::Ptr::isEmpty">
<polygon fill="white" stroke="black" points="201,-0.5 201,-19.5 315,-19.5 315,-0.5 201,-0.5"/>
<text text-anchor="middle" x="258" y="-7.5" font-family="FreeSans" font-size="10.00">MWWorld::Ptr::isEmpty</text>
</a>
</g>
</g>
<!-- Node1&#45;&gt;Node13 -->
<g id="edge14" class="edge"><title>Node1&#45;&gt;Node13</title>
<path fill="none" stroke="midnightblue" d="M79.4211,-127.723C95.5615,-102.912 130.96,-54.1105 174,-29 179.363,-25.8713 185.2,-23.2578 191.211,-21.0747"/>
<polygon fill="midnightblue" stroke="midnightblue" points="192.321,-24.3942 200.759,-17.986 190.167,-17.7341 192.321,-24.3942"/>
</g>
<!-- Node3 -->
<g id="node3" class="node"><title>Node3</title>
<g id="a_node3"><a xlink:href="classMWBase_1_1Environment.html#a73f12633762b049c03c80fe215873faa" target="_top" xlink:title="Return instance of this class. ">
<polygon fill="white" stroke="black" points="384.5,-284.5 384.5,-303.5 515.5,-303.5 515.5,-284.5 384.5,-284.5"/>
<text text-anchor="middle" x="450" y="-291.5" font-family="FreeSans" font-size="10.00">MWBase::Environment::get</text>
</a>
</g>
</g>
<!-- Node2&#45;&gt;Node3 -->
<g id="edge2" class="edge"><title>Node2&#45;&gt;Node3</title>
<path fill="none" stroke="midnightblue" d="M300.227,-259.547C328.86,-266.178 367.21,-275.059 397.801,-282.143"/>
<polygon fill="midnightblue" stroke="midnightblue" points="397.321,-285.625 407.853,-284.471 398.901,-278.805 397.321,-285.625"/>
</g>
<!-- Node4 -->
<g id="node4" class="node"><title>Node4</title>
<g id="a_node4"><a xlink:href="classMWBase_1_1Environment.html#ae14e166d8f5ff8629be119333d502660" target="_top" xlink:title="MWBase::Environment\l::getWorld">
<polygon fill="white" stroke="black" points="393.5,-235 393.5,-265 506.5,-265 506.5,-235 393.5,-235"/>
<text text-anchor="start" x="401.5" y="-253" font-family="FreeSans" font-size="10.00">MWBase::Environment</text>
<text text-anchor="middle" x="450" y="-242" font-family="FreeSans" font-size="10.00">::getWorld</text>
</a>
</g>
</g>
<!-- Node2&#45;&gt;Node4 -->
<g id="edge3" class="edge"><title>Node2&#45;&gt;Node4</title>
<path fill="none" stroke="midnightblue" d="M320.688,-250C340.71,-250 362.993,-250 383.296,-250"/>
<polygon fill="midnightblue" stroke="midnightblue" points="383.398,-253.5 393.397,-250 383.397,-246.5 383.398,-253.5"/>
</g>
<!-- Node5 -->
<g id="node5" class="node"><title>Node5</title>
<g id="a_node5"><a xlink:href="classMWBase_1_1World.html#a95005e26dcb7b1f6dc906eb518b95762" target="_top" xlink:title="MWBase::World::getPlayerPtr">
<polygon fill="white" stroke="black" points="378.5,-196.5 378.5,-215.5 521.5,-215.5 521.5,-196.5 378.5,-196.5"/>
<text text-anchor="middle" x="450" y="-203.5" font-family="FreeSans" font-size="10.00">MWBase::World::getPlayerPtr</text>
</a>
</g>
</g>
<!-- Node2&#45;&gt;Node5 -->
<g id="edge4" class="edge"><title>Node2&#45;&gt;Node5</title>
<path fill="none" stroke="midnightblue" d="M300.227,-240.453C328.86,-233.822 367.21,-224.941 397.801,-217.857"/>
<polygon fill="midnightblue" stroke="midnightblue" points="398.901,-221.195 407.853,-215.529 397.321,-214.375 398.901,-221.195"/>
</g>
<!-- Node11&#45;&gt;Node3 -->
<g id="edge11" class="edge"><title>Node11&#45;&gt;Node3</title>
<path fill="none" stroke="midnightblue" d="M322.003,-294C338.709,-294 356.909,-294 374.176,-294"/>
<polygon fill="midnightblue" stroke="midnightblue" points="374.217,-297.5 384.217,-294 374.217,-290.5 374.217,-297.5"/>
</g>
<!-- Node11&#45;&gt;Node4 -->
<g id="edge12" class="edge"><title>Node11&#45;&gt;Node4</title>
<path fill="none" stroke="midnightblue" d="M322.003,-279.41C341.687,-274.852 363.445,-269.813 383.308,-265.213"/>
<polygon fill="midnightblue" stroke="midnightblue" points="384.241,-268.589 393.194,-262.923 382.662,-261.77 384.241,-268.589"/>
</g>
<!-- Node12 -->
<g id="node12" class="node"><title>Node12</title>
<g id="a_node12"><a xlink:href="classMWBase_1_1World.html#afdea8dbf46f2775a00b0b02c0af0fc50" target="_top" xlink:title="Search is limited to the active cells. ">
<polygon fill="white" stroke="black" points="384.5,-323 384.5,-353 515.5,-353 515.5,-323 384.5,-323"/>
<text text-anchor="start" x="392.5" y="-341" font-family="FreeSans" font-size="10.00">MWBase::World::searchPtr</text>
<text text-anchor="middle" x="450" y="-330" font-family="FreeSans" font-size="10.00">ViaActorId</text>
</a>
</g>
</g>
<!-- Node11&#45;&gt;Node12 -->
<g id="edge13" class="edge"><title>Node11&#45;&gt;Node12</title>
<path fill="none" stroke="midnightblue" d="M322.003,-308.59C338.709,-312.459 356.909,-316.674 374.176,-320.672"/>
<polygon fill="midnightblue" stroke="midnightblue" points="373.685,-324.151 384.217,-322.998 375.265,-317.332 373.685,-324.151"/>
</g>
</g>
</svg>
