<?xml version="1.0" encoding="UTF-8" standalone="no"?>
<!DOCTYPE svg PUBLIC "-//W3C//DTD SVG 1.1//EN"
 "http://www.w3.org/Graphics/SVG/1.1/DTD/svg11.dtd">
<!-- Generated by graphviz version 2.36.0 (20140111.2315)
 -->
<!-- Title: CSVDoc::LoadingDocument::LoadingDocument Pages: 1 -->
<svg width="374pt" height="165pt"
 viewBox="0.00 0.00 374.00 165.00" xmlns="http://www.w3.org/2000/svg" xmlns:xlink="http://www.w3.org/1999/xlink">
<g id="graph0" class="graph" transform="scale(1 1) rotate(0) translate(4 161)">
<title>CSVDoc::LoadingDocument::LoadingDocument</title>
<polygon fill="white" stroke="none" points="-4,4 -4,-161 370,-161 370,4 -4,4"/>
<!-- Node1 -->
<g id="node1" class="node"><title>Node1</title>
<polygon fill="#bfbfbf" stroke="black" points="0.5,-66 0.5,-96 149.5,-96 149.5,-66 0.5,-66"/>
<text text-anchor="start" x="8.5" y="-84" font-family="FreeSans" font-size="10.00">CSVDoc::LoadingDocument</text>
<text text-anchor="middle" x="75" y="-73" font-family="FreeSans" font-size="10.00">::LoadingDocument</text>
</g>
<!-- Node2 -->
<g id="node2" class="node"><title>Node2</title>
<g id="a_node2"><a xlink:href="classCSMDoc_1_1Document.html#afa7aaec431e82498188f8f8e3bd2f048" target="_top" xlink:title="CSMDoc::Document::getSavePath">
<polygon fill="white" stroke="black" points="186,-137.5 186,-156.5 366,-156.5 366,-137.5 186,-137.5"/>
<text text-anchor="middle" x="276" y="-144.5" font-family="FreeSans" font-size="10.00">CSMDoc::Document::getSavePath</text>
</a>
</g>
</g>
<!-- Node1&#45;&gt;Node2 -->
<g id="edge1" class="edge"><title>Node1&#45;&gt;Node2</title>
<path fill="none" stroke="midnightblue" d="M108.17,-96.2109C129.809,-106.002 159.178,-118.451 186,-127 195.393,-129.994 205.48,-132.714 215.369,-135.117"/>
<polygon fill="midnightblue" stroke="midnightblue" points="214.623,-138.537 225.158,-137.413 216.221,-131.722 214.623,-138.537"/>
</g>
<!-- Node3 -->
<g id="node3" class="node"><title>Node3</title>
<g id="a_node3"><a xlink:href="classCSMDoc_1_1Document.html#aff6042312f48e490b6f2a83a2e99bfc0" target="_top" xlink:title="CSMDoc::Document::getContent\lFiles">
<polygon fill="white" stroke="black" points="189.5,-88 189.5,-118 362.5,-118 362.5,-88 189.5,-88"/>
<text text-anchor="start" x="197.5" y="-106" font-family="FreeSans" font-size="10.00">CSMDoc::Document::getContent</text>
<text text-anchor="middle" x="276" y="-95" font-family="FreeSans" font-size="10.00">Files</text>
</a>
</g>
</g>
<!-- Node1&#45;&gt;Node3 -->
<g id="edge2" class="edge"><title>Node1&#45;&gt;Node3</title>
<path fill="none" stroke="midnightblue" d="M149.535,-89.1295C159.25,-90.2036 169.321,-91.3169 179.34,-92.4245"/>
<polygon fill="midnightblue" stroke="midnightblue" points="179.002,-95.9084 189.326,-93.5285 179.771,-88.9508 179.002,-95.9084"/>
</g>
<!-- Node4 -->
<g id="node4" class="node"><title>Node4</title>
<g id="a_node4"><a xlink:href="classCSMDoc_1_1Document.html#a19987cf75c6446515a4173185dd640d6" target="_top" xlink:title="Is this a newly created content file? ">
<polygon fill="white" stroke="black" points="202.5,-49.5 202.5,-68.5 349.5,-68.5 349.5,-49.5 202.5,-49.5"/>
<text text-anchor="middle" x="276" y="-56.5" font-family="FreeSans" font-size="10.00">CSMDoc::Document::isNew</text>
</a>
</g>
</g>
<!-- Node1&#45;&gt;Node4 -->
<g id="edge3" class="edge"><title>Node1&#45;&gt;Node4</title>
<path fill="none" stroke="midnightblue" d="M149.535,-72.8705C163.433,-71.334 178.059,-69.7171 192.219,-68.1517"/>
<polygon fill="midnightblue" stroke="midnightblue" points="192.876,-71.6005 202.431,-67.0227 192.107,-64.6429 192.876,-71.6005"/>
</g>
<!-- Node5 -->
<g id="node5" class="node"><title>Node5</title>
<g id="a_node5"><a xlink:href="classCSVDoc_1_1LoadingDocument.html#ae82e77182c955c9ef98af48b26b4b8fe" target="_top" xlink:title="CSVDoc::LoadingDocument\l::cancel">
<polygon fill="white" stroke="black" points="201.5,-0 201.5,-30 350.5,-30 350.5,-0 201.5,-0"/>
<text text-anchor="start" x="209.5" y="-18" font-family="FreeSans" font-size="10.00">CSVDoc::LoadingDocument</text>
<text text-anchor="middle" x="276" y="-7" font-family="FreeSans" font-size="10.00">::cancel</text>
</a>
</g>
</g>
<!-- Node1&#45;&gt;Node5 -->
<g id="edge4" class="edge"><title>Node1&#45;&gt;Node5</title>
<path fill="none" stroke="midnightblue" d="M113.907,-65.9857C134.986,-57.8606 161.78,-47.9003 186,-40 193.403,-37.5853 201.196,-35.188 208.966,-32.8882"/>
<polygon fill="midnightblue" stroke="midnightblue" points="210.143,-36.1909 218.764,-30.0332 208.185,-29.4704 210.143,-36.1909"/>
</g>
</g>
</svg>
