<?xml version="1.0" encoding="UTF-8" standalone="no"?>
<!DOCTYPE svg PUBLIC "-//W3C//DTD SVG 1.1//EN"
 "http://www.w3.org/Graphics/SVG/1.1/DTD/svg11.dtd">
<!-- Generated by graphviz version 2.36.0 (20140111.2315)
 -->
<!-- Title: MWBase::World::setGlobalInt Pages: 1 -->
<svg width="356pt" height="136pt"
 viewBox="0.00 0.00 356.00 136.00" xmlns="http://www.w3.org/2000/svg" xmlns:xlink="http://www.w3.org/1999/xlink">
<g id="graph0" class="graph" transform="scale(1 1) rotate(0) translate(4 132)">
<title>MWBase::World::setGlobalInt</title>
<polygon fill="white" stroke="none" points="-4,4 -4,-132 352,-132 352,4 -4,4"/>
<!-- Node1 -->
<g id="node1" class="node"><title>Node1</title>
<polygon fill="#bfbfbf" stroke="black" points="0.5,-54.5 0.5,-73.5 141.5,-73.5 141.5,-54.5 0.5,-54.5"/>
<text text-anchor="middle" x="71" y="-61.5" font-family="FreeSans" font-size="10.00">MWBase::World::setGlobalInt</text>
</g>
<!-- Node2 -->
<g id="node2" class="node"><title>Node2</title>
<g id="a_node2"><a xlink:href="classMWMechanics_1_1MechanicsManager.html#aac554cc4280a59bcb2381e653c3f7b36" target="_top" xlink:title="Turn actor into werewolf or normal form. ">
<polygon fill="white" stroke="black" points="178.5,-98 178.5,-128 347.5,-128 347.5,-98 178.5,-98"/>
<text text-anchor="start" x="186.5" y="-116" font-family="FreeSans" font-size="10.00">MWMechanics::MechanicsManager</text>
<text text-anchor="middle" x="263" y="-105" font-family="FreeSans" font-size="10.00">::setWerewolf</text>
</a>
</g>
</g>
<!-- Node1&#45;&gt;Node2 -->
<g id="edge1" class="edge"><title>Node1&#45;&gt;Node2</title>
<path fill="none" stroke="midnightblue" d="M118.925,-76.1018C144.541,-82.708 176.489,-90.9471 203.693,-97.963"/>
<polygon fill="midnightblue" stroke="midnightblue" points="119.642,-72.6722 109.085,-73.564 117.894,-79.4504 119.642,-72.6722"/>
</g>
<!-- Node3 -->
<g id="node3" class="node"><title>Node3</title>
<g id="a_node3"><a xlink:href="classMWScript_1_1InterpreterContext.html#a3e846130f7bf8e0a2102f48d4eb22848" target="_top" xlink:title="MWScript::InterpreterContext\l::setGlobalShort">
<polygon fill="white" stroke="black" points="192.5,-49 192.5,-79 333.5,-79 333.5,-49 192.5,-49"/>
<text text-anchor="start" x="200.5" y="-67" font-family="FreeSans" font-size="10.00">MWScript::InterpreterContext</text>
<text text-anchor="middle" x="263" y="-56" font-family="FreeSans" font-size="10.00">::setGlobalShort</text>
</a>
</g>
</g>
<!-- Node1&#45;&gt;Node3 -->
<g id="edge2" class="edge"><title>Node1&#45;&gt;Node3</title>
<path fill="none" stroke="midnightblue" d="M151.856,-64C165.307,-64 179.173,-64 192.338,-64"/>
<polygon fill="midnightblue" stroke="midnightblue" points="151.67,-60.5001 141.67,-64 151.67,-67.5001 151.67,-60.5001"/>
</g>
<!-- Node4 -->
<g id="node4" class="node"><title>Node4</title>
<g id="a_node4"><a xlink:href="classMWScript_1_1InterpreterContext.html#a352ca1d769a7b87f101d50e9fa8dcefb" target="_top" xlink:title="MWScript::InterpreterContext\l::setGlobalLong">
<polygon fill="white" stroke="black" points="192.5,-0 192.5,-30 333.5,-30 333.5,-0 192.5,-0"/>
<text text-anchor="start" x="200.5" y="-18" font-family="FreeSans" font-size="10.00">MWScript::InterpreterContext</text>
<text text-anchor="middle" x="263" y="-7" font-family="FreeSans" font-size="10.00">::setGlobalLong</text>
</a>
</g>
</g>
<!-- Node1&#45;&gt;Node4 -->
<g id="edge3" class="edge"><title>Node1&#45;&gt;Node4</title>
<path fill="none" stroke="midnightblue" d="M118.925,-51.8982C144.541,-45.292 176.489,-37.0529 203.693,-30.037"/>
<polygon fill="midnightblue" stroke="midnightblue" points="117.894,-48.5496 109.085,-54.436 119.642,-55.3278 117.894,-48.5496"/>
</g>
</g>
</svg>
