<?xml version="1.0" encoding="UTF-8" standalone="no"?>
<!DOCTYPE svg PUBLIC "-//W3C//DTD SVG 1.1//EN"
 "http://www.w3.org/Graphics/SVG/1.1/DTD/svg11.dtd">
<!-- Generated by graphviz version 2.36.0 (20140111.2315)
 -->
<!-- Title: CSMWorld::NestedInfoCollection::getNestedColumnsCount Pages: 1 -->
<svg width="392pt" height="205pt"
 viewBox="0.00 0.00 392.00 205.00" xmlns="http://www.w3.org/2000/svg" xmlns:xlink="http://www.w3.org/1999/xlink">
<g id="graph0" class="graph" transform="scale(1 1) rotate(0) translate(4 201)">
<title>CSMWorld::NestedInfoCollection::getNestedColumnsCount</title>
<polygon fill="white" stroke="none" points="-4,4 -4,-201 388,-201 388,4 -4,4"/>
<!-- Node1 -->
<g id="node1" class="node"><title>Node1</title>
<polygon fill="#bfbfbf" stroke="black" points="0,-86 0,-116 168,-116 168,-86 0,-86"/>
<text text-anchor="start" x="8" y="-104" font-family="FreeSans" font-size="10.00">CSMWorld::NestedInfoCollection</text>
<text text-anchor="middle" x="84" y="-93" font-family="FreeSans" font-size="10.00">::getNestedColumnsCount</text>
</g>
<!-- Node2 -->
<g id="node2" class="node"><title>Node2</title>
<g id="a_node2"><a xlink:href="classCSMWorld_1_1NestedInfoCollection.html#a03122e37160576aea6cc275931f25587" target="_top" xlink:title="CSMWorld::NestedInfoCollection\l::getAdapter">
<polygon fill="white" stroke="black" points="210,-167 210,-197 378,-197 378,-167 210,-167"/>
<text text-anchor="start" x="218" y="-185" font-family="FreeSans" font-size="10.00">CSMWorld::NestedInfoCollection</text>
<text text-anchor="middle" x="294" y="-174" font-family="FreeSans" font-size="10.00">::getAdapter</text>
</a>
</g>
</g>
<!-- Node1&#45;&gt;Node2 -->
<g id="edge1" class="edge"><title>Node1&#45;&gt;Node2</title>
<path fill="none" stroke="midnightblue" d="M113.762,-116.188C137.51,-128.323 172.336,-145.196 204,-157 210.466,-159.411 217.272,-161.717 224.119,-163.886"/>
<polygon fill="midnightblue" stroke="midnightblue" points="223.561,-167.375 234.148,-166.961 225.613,-160.683 223.561,-167.375"/>
</g>
<!-- Node3 -->
<g id="node3" class="node"><title>Node3</title>
<g id="a_node3"><a xlink:href="classCSMWorld_1_1Collection.html#ad43b6ab691f2a09a4fd877e577fa8cf2" target="_top" xlink:title="CSMWorld::Collection\l\&lt; Info, IdAccessor\&lt; Info\l \&gt; \&gt;::getColumn">
<polygon fill="white" stroke="black" points="228.5,-107.5 228.5,-148.5 359.5,-148.5 359.5,-107.5 228.5,-107.5"/>
<text text-anchor="start" x="236.5" y="-136.5" font-family="FreeSans" font-size="10.00">CSMWorld::Collection</text>
<text text-anchor="start" x="236.5" y="-125.5" font-family="FreeSans" font-size="10.00">&lt; Info, IdAccessor&lt; Info</text>
<text text-anchor="middle" x="294" y="-114.5" font-family="FreeSans" font-size="10.00"> &gt; &gt;::getColumn</text>
</a>
</g>
</g>
<!-- Node1&#45;&gt;Node3 -->
<g id="edge2" class="edge"><title>Node1&#45;&gt;Node3</title>
<path fill="none" stroke="midnightblue" d="M168.104,-111.788C184.69,-113.941 202.016,-116.19 218.299,-118.303"/>
<polygon fill="midnightblue" stroke="midnightblue" points="217.919,-121.783 228.286,-119.6 218.82,-114.841 217.919,-121.783"/>
</g>
<!-- Node4 -->
<g id="node4" class="node"><title>Node4</title>
<g id="a_node4"><a xlink:href="classCSMWorld_1_1NestedColumnAdapter.html#ad39aa022127aefe68030811cf43d5489" target="_top" xlink:title="CSMWorld::NestedColumnAdapter\l::getColumnsCount">
<polygon fill="white" stroke="black" points="204.5,-59 204.5,-89 383.5,-89 383.5,-59 204.5,-59"/>
<text text-anchor="start" x="212.5" y="-77" font-family="FreeSans" font-size="10.00">CSMWorld::NestedColumnAdapter</text>
<text text-anchor="middle" x="294" y="-66" font-family="FreeSans" font-size="10.00">::getColumnsCount</text>
</a>
</g>
</g>
<!-- Node1&#45;&gt;Node4 -->
<g id="edge3" class="edge"><title>Node1&#45;&gt;Node4</title>
<path fill="none" stroke="midnightblue" d="M168.104,-90.2125C176.644,-89.104 185.379,-87.97 194.068,-86.8421"/>
<polygon fill="midnightblue" stroke="midnightblue" points="194.765,-90.2811 204.231,-85.5229 193.864,-83.3393 194.765,-90.2811"/>
</g>
<!-- Node5 -->
<g id="node5" class="node"><title>Node5</title>
<g id="a_node5"><a xlink:href="classCSMWorld_1_1Collection.html#ad67e225cc3571a0287b73c94ee6e9878" target="_top" xlink:title="CSMWorld::Collection\l\&lt; Info, IdAccessor\&lt; Info\l \&gt; \&gt;::getRecord">
<polygon fill="white" stroke="black" points="228.5,0.5 228.5,-40.5 359.5,-40.5 359.5,0.5 228.5,0.5"/>
<text text-anchor="start" x="236.5" y="-28.5" font-family="FreeSans" font-size="10.00">CSMWorld::Collection</text>
<text text-anchor="start" x="236.5" y="-17.5" font-family="FreeSans" font-size="10.00">&lt; Info, IdAccessor&lt; Info</text>
<text text-anchor="middle" x="294" y="-6.5" font-family="FreeSans" font-size="10.00"> &gt; &gt;::getRecord</text>
</a>
</g>
</g>
<!-- Node1&#45;&gt;Node5 -->
<g id="edge4" class="edge"><title>Node1&#45;&gt;Node5</title>
<path fill="none" stroke="midnightblue" d="M118.051,-85.9943C141.771,-75.4322 174.605,-61.2326 204,-50 209.367,-47.9492 214.942,-45.8947 220.567,-43.8763"/>
<polygon fill="midnightblue" stroke="midnightblue" points="221.792,-47.1555 230.052,-40.5205 219.457,-40.5563 221.792,-47.1555"/>
</g>
</g>
</svg>
