<?xml version="1.0" encoding="UTF-8" standalone="no"?>
<!DOCTYPE svg PUBLIC "-//W3C//DTD SVG 1.1//EN"
 "http://www.w3.org/Graphics/SVG/1.1/DTD/svg11.dtd">
<!-- Generated by graphviz version 2.36.0 (20140111.2315)
 -->
<!-- Title: CSMPrefs::Setting::getKey Pages: 1 -->
<svg width="662pt" height="469pt"
 viewBox="0.00 0.00 662.00 469.00" xmlns="http://www.w3.org/2000/svg" xmlns:xlink="http://www.w3.org/1999/xlink">
<g id="graph0" class="graph" transform="scale(1 1) rotate(0) translate(4 465)">
<title>CSMPrefs::Setting::getKey</title>
<polygon fill="white" stroke="none" points="-4,4 -4,-465 658,-465 658,4 -4,4"/>
<!-- Node1 -->
<g id="node1" class="node"><title>Node1</title>
<polygon fill="#bfbfbf" stroke="black" points="0.5,-220 0.5,-250 109.5,-250 109.5,-220 0.5,-220"/>
<text text-anchor="start" x="8.5" y="-238" font-family="FreeSans" font-size="10.00">CSMPrefs::Setting::</text>
<text text-anchor="middle" x="55" y="-227" font-family="FreeSans" font-size="10.00">getKey</text>
</g>
<!-- Node2 -->
<g id="node2" class="node"><title>Node2</title>
<g id="a_node2"><a xlink:href="classCSMPrefs_1_1ModifierSetting.html#a79864234c89c8a69386e4564774421a6" target="_top" xlink:title="CSMPrefs::ModifierSetting\l::makeWidgets">
<polygon fill="white" stroke="black" points="150,-431 150,-461 290,-461 290,-431 150,-431"/>
<text text-anchor="start" x="158" y="-449" font-family="FreeSans" font-size="10.00">CSMPrefs::ModifierSetting</text>
<text text-anchor="middle" x="220" y="-438" font-family="FreeSans" font-size="10.00">::makeWidgets</text>
</a>
</g>
</g>
<!-- Node1&#45;&gt;Node2 -->
<g id="edge1" class="edge"><title>Node1&#45;&gt;Node2</title>
<path fill="none" stroke="midnightblue" d="M61.5346,-260.101C71.5601,-299.807 96.4408,-377.089 146,-421 150.311,-424.82 155.234,-428.062 160.441,-430.813"/>
<polygon fill="midnightblue" stroke="midnightblue" points="64.8897,-259.084 59.144,-250.183 58.0846,-260.724 64.8897,-259.084"/>
</g>
<!-- Node3 -->
<g id="node3" class="node"><title>Node3</title>
<g id="a_node3"><a xlink:href="classCSMPrefs_1_1ModifierSetting.html#aceee508ee272fe31a8c8380d6677fc3b" target="_top" xlink:title="CSMPrefs::ModifierSetting\l::storeValue">
<polygon fill="white" stroke="black" points="150,-382 150,-412 290,-412 290,-382 150,-382"/>
<text text-anchor="start" x="158" y="-400" font-family="FreeSans" font-size="10.00">CSMPrefs::ModifierSetting</text>
<text text-anchor="middle" x="220" y="-389" font-family="FreeSans" font-size="10.00">::storeValue</text>
</a>
</g>
</g>
<!-- Node1&#45;&gt;Node3 -->
<g id="edge2" class="edge"><title>Node1&#45;&gt;Node3</title>
<path fill="none" stroke="midnightblue" d="M66.0989,-259.614C79.8329,-290.168 107.212,-341.912 146,-372 150.975,-375.859 156.584,-379.144 162.426,-381.935"/>
<polygon fill="midnightblue" stroke="midnightblue" points="69.169,-257.898 61.9676,-250.127 62.7511,-260.693 69.169,-257.898"/>
</g>
<!-- Node6 -->
<g id="node6" class="node"><title>Node6</title>
<g id="a_node6"><a xlink:href="classCSMPrefs_1_1ModifierSetting.html#a2a8aae04dfe50e923e2916c4974088be" target="_top" xlink:title="CSMPrefs::ModifierSetting\l::resetState">
<polygon fill="white" stroke="black" points="150,-333 150,-363 290,-363 290,-333 150,-333"/>
<text text-anchor="start" x="158" y="-351" font-family="FreeSans" font-size="10.00">CSMPrefs::ModifierSetting</text>
<text text-anchor="middle" x="220" y="-340" font-family="FreeSans" font-size="10.00">::resetState</text>
</a>
</g>
</g>
<!-- Node1&#45;&gt;Node6 -->
<g id="edge5" class="edge"><title>Node1&#45;&gt;Node6</title>
<path fill="none" stroke="midnightblue" d="M74.4063,-258.048C91.2053,-277.731 117.671,-305.551 146,-323 152.159,-326.794 158.968,-330.099 165.879,-332.954"/>
<polygon fill="midnightblue" stroke="midnightblue" points="76.9182,-255.596 67.8213,-250.164 71.5457,-260.083 76.9182,-255.596"/>
</g>
<!-- Node7 -->
<g id="node7" class="node"><title>Node7</title>
<g id="a_node7"><a xlink:href="namespaceCSMPrefs.html#af89508f86682d95db16b258e4ccdd555" target="_top" xlink:title="CSMPrefs::operator==">
<polygon fill="white" stroke="black" points="157,-294.5 157,-313.5 283,-313.5 283,-294.5 157,-294.5"/>
<text text-anchor="middle" x="220" y="-301.5" font-family="FreeSans" font-size="10.00">CSMPrefs::operator==</text>
</a>
</g>
</g>
<!-- Node1&#45;&gt;Node7 -->
<g id="edge8" class="edge"><title>Node1&#45;&gt;Node7</title>
<path fill="none" stroke="midnightblue" d="M88.8796,-255.29C105.546,-264.95 126.368,-276.091 146,-284 155.995,-288.027 167.076,-291.526 177.523,-294.422"/>
<polygon fill="midnightblue" stroke="midnightblue" points="90.4744,-252.167 80.0821,-250.105 86.9204,-258.198 90.4744,-252.167"/>
</g>
<!-- Node8 -->
<g id="node8" class="node"><title>Node8</title>
<g id="a_node8"><a xlink:href="classCSMPrefs_1_1ShortcutSetting.html#a21318642a58432e3a4d88ecafbe26b4e" target="_top" xlink:title="CSMPrefs::ShortcutSetting\l::makeWidgets">
<polygon fill="white" stroke="black" points="148,-245 148,-275 292,-275 292,-245 148,-245"/>
<text text-anchor="start" x="156" y="-263" font-family="FreeSans" font-size="10.00">CSMPrefs::ShortcutSetting</text>
<text text-anchor="middle" x="220" y="-252" font-family="FreeSans" font-size="10.00">::makeWidgets</text>
</a>
</g>
</g>
<!-- Node1&#45;&gt;Node8 -->
<g id="edge9" class="edge"><title>Node1&#45;&gt;Node8</title>
<path fill="none" stroke="midnightblue" d="M119.972,-244.812C129.099,-246.211 138.533,-247.659 147.788,-249.078"/>
<polygon fill="midnightblue" stroke="midnightblue" points="120.239,-241.312 109.824,-243.255 119.178,-248.231 120.239,-241.312"/>
</g>
<!-- Node9 -->
<g id="node9" class="node"><title>Node9</title>
<g id="a_node9"><a xlink:href="classCSMPrefs_1_1ShortcutSetting.html#ab1b2400b749f31e61f8454fc7a7885eb" target="_top" xlink:title="CSMPrefs::ShortcutSetting\l::storeValue">
<polygon fill="white" stroke="black" points="148,-196 148,-226 292,-226 292,-196 148,-196"/>
<text text-anchor="start" x="156" y="-214" font-family="FreeSans" font-size="10.00">CSMPrefs::ShortcutSetting</text>
<text text-anchor="middle" x="220" y="-203" font-family="FreeSans" font-size="10.00">::storeValue</text>
</a>
</g>
</g>
<!-- Node1&#45;&gt;Node9 -->
<g id="edge10" class="edge"><title>Node1&#45;&gt;Node9</title>
<path fill="none" stroke="midnightblue" d="M119.972,-225.581C129.099,-224.237 138.533,-222.848 147.788,-221.485"/>
<polygon fill="midnightblue" stroke="midnightblue" points="119.208,-222.156 109.824,-227.075 120.227,-229.081 119.208,-222.156"/>
</g>
<!-- Node12 -->
<g id="node12" class="node"><title>Node12</title>
<g id="a_node12"><a xlink:href="classCSMPrefs_1_1ShortcutSetting.html#af9ff2fdced3ff1867448024713add1ad" target="_top" xlink:title="CSMPrefs::ShortcutSetting\l::resetState">
<polygon fill="white" stroke="black" points="148,-147 148,-177 292,-177 292,-147 148,-147"/>
<text text-anchor="start" x="156" y="-165" font-family="FreeSans" font-size="10.00">CSMPrefs::ShortcutSetting</text>
<text text-anchor="middle" x="220" y="-154" font-family="FreeSans" font-size="10.00">::resetState</text>
</a>
</g>
</g>
<!-- Node1&#45;&gt;Node12 -->
<g id="edge13" class="edge"><title>Node1&#45;&gt;Node12</title>
<path fill="none" stroke="midnightblue" d="M89.7692,-214.724C106.355,-205.258 126.848,-194.281 146,-186 153.347,-182.823 161.26,-179.817 169.071,-177.076"/>
<polygon fill="midnightblue" stroke="midnightblue" points="87.895,-211.765 80.9901,-219.8 91.399,-217.824 87.895,-211.765"/>
</g>
<!-- Node13 -->
<g id="node13" class="node"><title>Node13</title>
<g id="a_node13"><a xlink:href="classCSVTools_1_1ReportTable.html#a079049a79304c226be5a9f25907f8494" target="_top" xlink:title="CSVTools::ReportTable\l::settingChanged">
<polygon fill="white" stroke="black" points="159.5,-98 159.5,-128 280.5,-128 280.5,-98 159.5,-98"/>
<text text-anchor="start" x="167.5" y="-116" font-family="FreeSans" font-size="10.00">CSVTools::ReportTable</text>
<text text-anchor="middle" x="220" y="-105" font-family="FreeSans" font-size="10.00">::settingChanged</text>
</a>
</g>
</g>
<!-- Node1&#45;&gt;Node13 -->
<g id="edge16" class="edge"><title>Node1&#45;&gt;Node13</title>
<path fill="none" stroke="midnightblue" d="M71.9772,-211.617C88.2252,-189.485 115.323,-156.784 146,-137 151.27,-133.602 157.065,-130.642 163.015,-128.075"/>
<polygon fill="midnightblue" stroke="midnightblue" points="69.0801,-209.651 66.0973,-219.818 74.7689,-213.73 69.0801,-209.651"/>
</g>
<!-- Node15 -->
<g id="node15" class="node"><title>Node15</title>
<g id="a_node15"><a xlink:href="classCSVWorld_1_1ScriptHighlighter.html#a309306db8957ce21c8b9b805bfbbc6b1" target="_top" xlink:title="CSVWorld::ScriptHighlighter\l::settingChanged">
<polygon fill="white" stroke="black" points="146,-49 146,-79 294,-79 294,-49 146,-49"/>
<text text-anchor="start" x="154" y="-67" font-family="FreeSans" font-size="10.00">CSVWorld::ScriptHighlighter</text>
<text text-anchor="middle" x="220" y="-56" font-family="FreeSans" font-size="10.00">::settingChanged</text>
</a>
</g>
</g>
<!-- Node1&#45;&gt;Node15 -->
<g id="edge18" class="edge"><title>Node1&#45;&gt;Node15</title>
<path fill="none" stroke="midnightblue" d="M64.9841,-209.955C77.9416,-177.295 104.925,-120.51 146,-88 150.289,-84.6054 155.077,-81.6825 160.093,-79.1673"/>
<polygon fill="midnightblue" stroke="midnightblue" points="61.5792,-209.059 61.2699,-219.649 68.1159,-211.563 61.5792,-209.059"/>
</g>
<!-- Node16 -->
<g id="node16" class="node"><title>Node16</title>
<g id="a_node16"><a xlink:href="classCSVWorld_1_1Table.html#a5a852e394ff524d9f2b4b542f5488519" target="_top" xlink:title="CSVWorld::Table::setting\lChanged">
<polygon fill="white" stroke="black" points="154.5,-0 154.5,-30 285.5,-30 285.5,-0 154.5,-0"/>
<text text-anchor="start" x="162.5" y="-18" font-family="FreeSans" font-size="10.00">CSVWorld::Table::setting</text>
<text text-anchor="middle" x="220" y="-7" font-family="FreeSans" font-size="10.00">Changed</text>
</a>
</g>
</g>
<!-- Node1&#45;&gt;Node16 -->
<g id="edge19" class="edge"><title>Node1&#45;&gt;Node16</title>
<path fill="none" stroke="midnightblue" d="M60.7459,-209.954C69.8908,-168.498 93.8471,-85.5771 146,-39 149.881,-35.5342 154.273,-32.5674 158.931,-30.028"/>
<polygon fill="midnightblue" stroke="midnightblue" points="57.3109,-209.281 58.6856,-219.786 64.1622,-210.717 57.3109,-209.281"/>
</g>
<!-- Node4 -->
<g id="node4" class="node"><title>Node4</title>
<g id="a_node4"><a xlink:href="classCSMPrefs_1_1ModifierSetting.html#af8e9f24310abf7976da515c4dd765e51" target="_top" xlink:title="CSMPrefs::ModifierSetting\l::handleEvent">
<polygon fill="white" stroke="black" points="332,-377 332,-407 472,-407 472,-377 332,-377"/>
<text text-anchor="start" x="340" y="-395" font-family="FreeSans" font-size="10.00">CSMPrefs::ModifierSetting</text>
<text text-anchor="middle" x="402" y="-384" font-family="FreeSans" font-size="10.00">::handleEvent</text>
</a>
</g>
</g>
<!-- Node3&#45;&gt;Node4 -->
<g id="edge3" class="edge"><title>Node3&#45;&gt;Node4</title>
<path fill="none" stroke="midnightblue" d="M300.119,-394.802C310.678,-394.509 321.439,-394.21 331.81,-393.922"/>
<polygon fill="midnightblue" stroke="midnightblue" points="299.977,-391.305 290.078,-395.081 300.171,-398.302 299.977,-391.305"/>
</g>
<!-- Node5 -->
<g id="node5" class="node"><title>Node5</title>
<g id="a_node5"><a xlink:href="classCSMPrefs_1_1ModifierSetting.html#a21a767447959398e69d33ebdac8900b8" target="_top" xlink:title="CSMPrefs::ModifierSetting\l::eventFilter">
<polygon fill="white" stroke="black" points="512,-355 512,-385 652,-385 652,-355 512,-355"/>
<text text-anchor="start" x="520" y="-373" font-family="FreeSans" font-size="10.00">CSMPrefs::ModifierSetting</text>
<text text-anchor="middle" x="582" y="-362" font-family="FreeSans" font-size="10.00">::eventFilter</text>
</a>
</g>
</g>
<!-- Node4&#45;&gt;Node5 -->
<g id="edge4" class="edge"><title>Node4&#45;&gt;Node5</title>
<path fill="none" stroke="midnightblue" d="M482.303,-382.199C492.194,-380.976 502.247,-379.734 511.965,-378.532"/>
<polygon fill="midnightblue" stroke="midnightblue" points="481.569,-378.762 472.074,-383.463 482.428,-385.71 481.569,-378.762"/>
</g>
<!-- Node6&#45;&gt;Node4 -->
<g id="edge7" class="edge"><title>Node6&#45;&gt;Node4</title>
<path fill="none" stroke="midnightblue" d="M292.531,-365.485C308.084,-369.287 324.406,-373.277 339.529,-376.974"/>
<polygon fill="midnightblue" stroke="midnightblue" points="292.987,-361.994 282.442,-363.019 291.325,-368.794 292.987,-361.994"/>
</g>
<!-- Node6&#45;&gt;Node5 -->
<g id="edge6" class="edge"><title>Node6&#45;&gt;Node5</title>
<path fill="none" stroke="midnightblue" d="M300.74,-352.873C363.985,-356.738 451.479,-362.085 511.801,-365.771"/>
<polygon fill="midnightblue" stroke="midnightblue" points="300.607,-349.358 290.412,-352.242 300.179,-356.345 300.607,-349.358"/>
</g>
<!-- Node10 -->
<g id="node10" class="node"><title>Node10</title>
<g id="a_node10"><a xlink:href="classCSMPrefs_1_1ShortcutSetting.html#a80e87a430735efc8bb8f4966a477997c" target="_top" xlink:title="CSMPrefs::ShortcutSetting\l::handleEvent">
<polygon fill="white" stroke="black" points="330,-191 330,-221 474,-221 474,-191 330,-191"/>
<text text-anchor="start" x="338" y="-209" font-family="FreeSans" font-size="10.00">CSMPrefs::ShortcutSetting</text>
<text text-anchor="middle" x="402" y="-198" font-family="FreeSans" font-size="10.00">::handleEvent</text>
</a>
</g>
</g>
<!-- Node9&#45;&gt;Node10 -->
<g id="edge11" class="edge"><title>Node9&#45;&gt;Node10</title>
<path fill="none" stroke="midnightblue" d="M302.389,-208.739C311.529,-208.485 320.789,-208.228 329.787,-207.978"/>
<polygon fill="midnightblue" stroke="midnightblue" points="302.04,-205.247 292.141,-209.024 302.234,-212.245 302.04,-205.247"/>
</g>
<!-- Node11 -->
<g id="node11" class="node"><title>Node11</title>
<g id="a_node11"><a xlink:href="classCSMPrefs_1_1ShortcutSetting.html#a434cbbfdf9d405327ecd054d399eef42" target="_top" xlink:title="CSMPrefs::ShortcutSetting\l::eventFilter">
<polygon fill="white" stroke="black" points="510,-169 510,-199 654,-199 654,-169 510,-169"/>
<text text-anchor="start" x="518" y="-187" font-family="FreeSans" font-size="10.00">CSMPrefs::ShortcutSetting</text>
<text text-anchor="middle" x="582" y="-176" font-family="FreeSans" font-size="10.00">::eventFilter</text>
</a>
</g>
</g>
<!-- Node10&#45;&gt;Node11 -->
<g id="edge12" class="edge"><title>Node10&#45;&gt;Node11</title>
<path fill="none" stroke="midnightblue" d="M484.17,-195.968C492.789,-194.903 501.506,-193.825 509.995,-192.776"/>
<polygon fill="midnightblue" stroke="midnightblue" points="483.613,-192.51 474.118,-197.21 484.472,-199.457 483.613,-192.51"/>
</g>
<!-- Node12&#45;&gt;Node10 -->
<g id="edge15" class="edge"><title>Node12&#45;&gt;Node10</title>
<path fill="none" stroke="midnightblue" d="M292.531,-179.485C308.084,-183.287 324.406,-187.277 339.529,-190.974"/>
<polygon fill="midnightblue" stroke="midnightblue" points="292.987,-175.994 282.442,-177.019 291.325,-182.794 292.987,-175.994"/>
</g>
<!-- Node12&#45;&gt;Node11 -->
<g id="edge14" class="edge"><title>Node12&#45;&gt;Node11</title>
<path fill="none" stroke="midnightblue" d="M302.322,-166.97C364.709,-170.782 449.983,-175.993 509.716,-179.644"/>
<polygon fill="midnightblue" stroke="midnightblue" points="302.319,-163.463 292.124,-166.346 301.892,-170.45 302.319,-163.463"/>
</g>
<!-- Node14 -->
<g id="node14" class="node"><title>Node14</title>
<g id="a_node14"><a xlink:href="classCSVTools_1_1ReportTable.html#ad96ed5931b14ce8a17840c266a53dc5e" target="_top" xlink:title="CSVTools::ReportTable\l::ReportTable">
<polygon fill="white" stroke="black" points="341.5,-98 341.5,-128 462.5,-128 462.5,-98 341.5,-98"/>
<text text-anchor="start" x="349.5" y="-116" font-family="FreeSans" font-size="10.00">CSVTools::ReportTable</text>
<text text-anchor="middle" x="402" y="-105" font-family="FreeSans" font-size="10.00">::ReportTable</text>
</a>
</g>
</g>
<!-- Node13&#45;&gt;Node14 -->
<g id="edge17" class="edge"><title>Node13&#45;&gt;Node14</title>
<path fill="none" stroke="midnightblue" d="M291.122,-113C307.711,-113 325.249,-113 341.324,-113"/>
<polygon fill="midnightblue" stroke="midnightblue" points="290.937,-109.5 280.937,-113 290.937,-116.5 290.937,-109.5"/>
</g>
<!-- Node17 -->
<g id="node17" class="node"><title>Node17</title>
<g id="a_node17"><a xlink:href="classCSVWorld_1_1Table.html#ac9d70bff0c44a6f411de279e955a7800" target="_top" xlink:title="CSVWorld::Table::Table">
<polygon fill="white" stroke="black" points="341,-5.5 341,-24.5 463,-24.5 463,-5.5 341,-5.5"/>
<text text-anchor="middle" x="402" y="-12.5" font-family="FreeSans" font-size="10.00">CSVWorld::Table::Table</text>
</a>
</g>
</g>
<!-- Node16&#45;&gt;Node17 -->
<g id="edge20" class="edge"><title>Node16&#45;&gt;Node17</title>
<path fill="none" stroke="midnightblue" d="M295.954,-15C310.884,-15 326.383,-15 340.743,-15"/>
<polygon fill="midnightblue" stroke="midnightblue" points="295.73,-11.5001 285.73,-15 295.73,-18.5001 295.73,-11.5001"/>
</g>
</g>
</svg>
