<?xml version="1.0" encoding="UTF-8" standalone="no"?>
<!DOCTYPE svg PUBLIC "-//W3C//DTD SVG 1.1//EN"
 "http://www.w3.org/Graphics/SVG/1.1/DTD/svg11.dtd">
<!-- Generated by graphviz version 2.36.0 (20140111.2315)
 -->
<!-- Title: MWState::StateManager::loadGame Pages: 1 -->
<svg width="290pt" height="77pt"
 viewBox="0.00 0.00 290.00 77.00" xmlns="http://www.w3.org/2000/svg" xmlns:xlink="http://www.w3.org/1999/xlink">
<g id="graph0" class="graph" transform="scale(1 1) rotate(0) translate(4 73)">
<title>MWState::StateManager::loadGame</title>
<polygon fill="white" stroke="none" points="-4,4 -4,-73 286,-73 286,4 -4,4"/>
<!-- Node1 -->
<g id="node1" class="node"><title>Node1</title>
<polygon fill="#bfbfbf" stroke="black" points="0,-17 0,-47 122,-47 122,-17 0,-17"/>
<text text-anchor="start" x="8" y="-35" font-family="FreeSans" font-size="10.00">MWState::StateManager</text>
<text text-anchor="middle" x="61" y="-24" font-family="FreeSans" font-size="10.00">::loadGame</text>
</g>
<!-- Node2 -->
<g id="node2" class="node"><title>Node2</title>
<g id="a_node2"><a xlink:href="classMWState_1_1Character.html#a46d862d1d655b0732474635994d57bbb" target="_top" xlink:title="Any call to createSlot and updateSlot can invalidate the returned iterator. ">
<polygon fill="white" stroke="black" points="168,-39 168,-69 272,-69 272,-39 168,-39"/>
<text text-anchor="start" x="176" y="-57" font-family="FreeSans" font-size="10.00">MWState::Character</text>
<text text-anchor="middle" x="220" y="-46" font-family="FreeSans" font-size="10.00">::begin</text>
</a>
</g>
</g>
<!-- Node1&#45;&gt;Node2 -->
<g id="edge1" class="edge"><title>Node1&#45;&gt;Node2</title>
<path fill="none" stroke="midnightblue" d="M122.251,-40.4429C133.889,-42.0736 146.093,-43.7837 157.762,-45.4188"/>
<polygon fill="midnightblue" stroke="midnightblue" points="157.461,-48.9109 167.85,-46.8325 158.433,-41.9786 157.461,-48.9109"/>
</g>
<!-- Node3 -->
<g id="node3" class="node"><title>Node3</title>
<g id="a_node3"><a xlink:href="classMWState_1_1Character.html#af3c9879ded43ca7f911247d91119adab" target="_top" xlink:title="MWState::Character::end">
<polygon fill="white" stroke="black" points="158,-0.5 158,-19.5 282,-19.5 282,-0.5 158,-0.5"/>
<text text-anchor="middle" x="220" y="-7.5" font-family="FreeSans" font-size="10.00">MWState::Character::end</text>
</a>
</g>
</g>
<!-- Node1&#45;&gt;Node3 -->
<g id="edge2" class="edge"><title>Node1&#45;&gt;Node3</title>
<path fill="none" stroke="midnightblue" d="M122.251,-23.5571C130.642,-22.3814 139.327,-21.1643 147.894,-19.9639"/>
<polygon fill="midnightblue" stroke="midnightblue" points="148.454,-23.4198 157.871,-18.5658 147.482,-16.4875 148.454,-23.4198"/>
</g>
</g>
</svg>
