<?xml version="1.0" encoding="UTF-8" standalone="no"?>
<!DOCTYPE svg PUBLIC "-//W3C//DTD SVG 1.1//EN"
 "http://www.w3.org/Graphics/SVG/1.1/DTD/svg11.dtd">
<!-- Generated by graphviz version 2.36.0 (20140111.2315)
 -->
<!-- Title: ESM::VariantStringData Pages: 1 -->
<svg width="234pt" height="456pt"
 viewBox="0.00 0.00 234.00 456.00" xmlns="http://www.w3.org/2000/svg" xmlns:xlink="http://www.w3.org/1999/xlink">
<g id="graph0" class="graph" transform="scale(1 1) rotate(0) translate(4 452)">
<title>ESM::VariantStringData</title>
<polygon fill="white" stroke="none" points="-4,4 -4,-452 230,-452 230,4 -4,4"/>
<!-- Node1 -->
<g id="node1" class="node"><title>Node1</title>
<polygon fill="#bfbfbf" stroke="black" points="33.5,-0.5 33.5,-123.5 162.5,-123.5 162.5,-0.5 33.5,-0.5"/>
<text text-anchor="middle" x="98" y="-111.5" font-family="FreeSans" font-size="10.00">ESM::VariantStringData</text>
<polyline fill="none" stroke="black" points="33.5,-104.5 162.5,-104.5 "/>
<text text-anchor="middle" x="98" y="-92.5" font-family="FreeSans" font-size="10.00"> </text>
<polyline fill="none" stroke="black" points="33.5,-85.5 162.5,-85.5 "/>
<text text-anchor="start" x="41.5" y="-73.5" font-family="FreeSans" font-size="10.00">+ VariantStringData()</text>
<text text-anchor="start" x="41.5" y="-62.5" font-family="FreeSans" font-size="10.00">+ clone()</text>
<text text-anchor="start" x="41.5" y="-51.5" font-family="FreeSans" font-size="10.00">+ getString()</text>
<text text-anchor="start" x="41.5" y="-40.5" font-family="FreeSans" font-size="10.00">+ setString()</text>
<text text-anchor="start" x="41.5" y="-29.5" font-family="FreeSans" font-size="10.00">+ read()</text>
<text text-anchor="start" x="41.5" y="-18.5" font-family="FreeSans" font-size="10.00">+ write()</text>
<text text-anchor="start" x="41.5" y="-7.5" font-family="FreeSans" font-size="10.00">+ isEqual()</text>
</g>
<!-- Node2 -->
<g id="node2" class="node"><title>Node2</title>
<g id="a_node2"><a xlink:href="classESM_1_1VariantDataBase.html" target="_top" xlink:title="{ESM::VariantDataBase\n||+ ~VariantDataBase()\l+ clone()\l+ getString()\l+ getInteger()\l+ getFloat()\l+ setString()\l+ setInteger()\l+ setFloat()\l+ read()\l+ write()\l+ isEqual()\l}">
<polygon fill="white" stroke="black" points="-0.5,-172.5 -0.5,-339.5 124.5,-339.5 124.5,-172.5 -0.5,-172.5"/>
<text text-anchor="middle" x="62" y="-327.5" font-family="FreeSans" font-size="10.00">ESM::VariantDataBase</text>
<polyline fill="none" stroke="black" points="-0.5,-320.5 124.5,-320.5 "/>
<text text-anchor="middle" x="62" y="-308.5" font-family="FreeSans" font-size="10.00"> </text>
<polyline fill="none" stroke="black" points="-0.5,-301.5 124.5,-301.5 "/>
<text text-anchor="start" x="7.5" y="-289.5" font-family="FreeSans" font-size="10.00">+ ~VariantDataBase()</text>
<text text-anchor="start" x="7.5" y="-278.5" font-family="FreeSans" font-size="10.00">+ clone()</text>
<text text-anchor="start" x="7.5" y="-267.5" font-family="FreeSans" font-size="10.00">+ getString()</text>
<text text-anchor="start" x="7.5" y="-256.5" font-family="FreeSans" font-size="10.00">+ getInteger()</text>
<text text-anchor="start" x="7.5" y="-245.5" font-family="FreeSans" font-size="10.00">+ getFloat()</text>
<text text-anchor="start" x="7.5" y="-234.5" font-family="FreeSans" font-size="10.00">+ setString()</text>
<text text-anchor="start" x="7.5" y="-223.5" font-family="FreeSans" font-size="10.00">+ setInteger()</text>
<text text-anchor="start" x="7.5" y="-212.5" font-family="FreeSans" font-size="10.00">+ setFloat()</text>
<text text-anchor="start" x="7.5" y="-201.5" font-family="FreeSans" font-size="10.00">+ read()</text>
<text text-anchor="start" x="7.5" y="-190.5" font-family="FreeSans" font-size="10.00">+ write()</text>
<text text-anchor="start" x="7.5" y="-179.5" font-family="FreeSans" font-size="10.00">+ isEqual()</text>
</a>
</g>
</g>
<!-- Node2&#45;&gt;Node1 -->
<g id="edge1" class="edge"><title>Node2&#45;&gt;Node1</title>
<path fill="none" stroke="midnightblue" d="M79.3551,-162.439C81.8204,-149.291 84.3018,-136.057 86.614,-123.725"/>
<polygon fill="none" stroke="midnightblue" points="75.8791,-161.987 77.4762,-172.46 82.7592,-163.277 75.8791,-161.987"/>
</g>
<!-- Node3 -->
<g id="node3" class="node"><title>Node3</title>
<g id="a_node3"><a xlink:title="STL class. ">
<polygon fill="white" stroke="#bfbfbf" points="142.5,-227.5 142.5,-284.5 207.5,-284.5 207.5,-227.5 142.5,-227.5"/>
<text text-anchor="middle" x="175" y="-272.5" font-family="FreeSans" font-size="10.00">std::string</text>
<polyline fill="none" stroke="#bfbfbf" points="142.5,-265.5 207.5,-265.5 "/>
<text text-anchor="middle" x="175" y="-253.5" font-family="FreeSans" font-size="10.00"> </text>
<polyline fill="none" stroke="#bfbfbf" points="142.5,-246.5 207.5,-246.5 "/>
<text text-anchor="middle" x="175" y="-234.5" font-family="FreeSans" font-size="10.00"> </text>
</a>
</g>
</g>
<!-- Node3&#45;&gt;Node1 -->
<g id="edge2" class="edge"><title>Node3&#45;&gt;Node1</title>
<path fill="none" stroke="#404040" d="M163.968,-227.491C154.296,-203.375 139.799,-167.226 126.856,-134.953"/>
<polygon fill="none" stroke="#404040" points="126.82,-134.863 120.874,-130.783 122.353,-123.725 128.299,-127.805 126.82,-134.863"/>
<text text-anchor="middle" x="155.5" y="-145.5" font-family="FreeSans" font-size="10.00"> &#45;mValue</text>
</g>
<!-- Node4 -->
<g id="node4" class="node"><title>Node4</title>
<g id="a_node4"><a xlink:title="STL class. ">
<polygon fill="white" stroke="#bfbfbf" points="123.5,-379 123.5,-447 226.5,-447 226.5,-379 123.5,-379"/>
<text text-anchor="start" x="131.5" y="-435" font-family="FreeSans" font-size="10.00">std::basic_string&lt;</text>
<text text-anchor="middle" x="175" y="-424" font-family="FreeSans" font-size="10.00"> char &gt;</text>
<polyline fill="none" stroke="#bfbfbf" points="123.5,-417 226.5,-417 "/>
<text text-anchor="middle" x="175" y="-405" font-family="FreeSans" font-size="10.00"> </text>
<polyline fill="none" stroke="#bfbfbf" points="123.5,-398 226.5,-398 "/>
<text text-anchor="middle" x="175" y="-386" font-family="FreeSans" font-size="10.00"> </text>
</a>
</g>
</g>
<!-- Node4&#45;&gt;Node3 -->
<g id="edge3" class="edge"><title>Node4&#45;&gt;Node3</title>
<path fill="none" stroke="midnightblue" d="M175,-368.426C175,-341.499 175,-307.764 175,-284.507"/>
<polygon fill="none" stroke="midnightblue" points="171.5,-368.749 175,-378.749 178.5,-368.749 171.5,-368.749"/>
</g>
</g>
</svg>
