<?xml version="1.0" encoding="UTF-8" standalone="no"?>
<!DOCTYPE svg PUBLIC "-//W3C//DTD SVG 1.1//EN"
 "http://www.w3.org/Graphics/SVG/1.1/DTD/svg11.dtd">
<!-- Generated by graphviz version 2.36.0 (20140111.2315)
 -->
<!-- Title: MWGui::WindowManager::onKeyFocusChanged Pages: 1 -->
<svg width="836pt" height="683pt"
 viewBox="0.00 0.00 836.00 682.99" xmlns="http://www.w3.org/2000/svg" xmlns:xlink="http://www.w3.org/1999/xlink">
<g id="graph0" class="graph" transform="scale(1 1) rotate(0) translate(4 678.993)">
<title>MWGui::WindowManager::onKeyFocusChanged</title>
<polygon fill="white" stroke="none" points="-4,4 -4,-678.993 832,-678.993 832,4 -4,4"/>
<!-- Node1 -->
<g id="node1" class="node"><title>Node1</title>
<polygon fill="#bfbfbf" stroke="black" points="0,-454 0,-484 132,-484 132,-454 0,-454"/>
<text text-anchor="start" x="8" y="-472" font-family="FreeSans" font-size="10.00">MWGui::WindowManager</text>
<text text-anchor="middle" x="66" y="-461" font-family="FreeSans" font-size="10.00">::onKeyFocusChanged</text>
</g>
<!-- Node2 -->
<g id="node2" class="node"><title>Node2</title>
<g id="a_node2"><a xlink:href="classMWGui_1_1WindowManager.html#a14143b6c951eee8f49846fa4747a16c4" target="_top" xlink:title="MWGui::WindowManager\l::WindowManager">
<polygon fill="white" stroke="black" points="168,-479 168,-509 300,-509 300,-479 168,-479"/>
<text text-anchor="start" x="176" y="-497" font-family="FreeSans" font-size="10.00">MWGui::WindowManager</text>
<text text-anchor="middle" x="234" y="-486" font-family="FreeSans" font-size="10.00">::WindowManager</text>
</a>
</g>
</g>
<!-- Node1&#45;&gt;Node2 -->
<g id="edge1" class="edge"><title>Node1&#45;&gt;Node2</title>
<path fill="none" stroke="midnightblue" d="M142.114,-480.312C150.681,-481.603 159.361,-482.91 167.784,-484.178"/>
<polygon fill="midnightblue" stroke="midnightblue" points="142.541,-476.837 132.131,-478.809 141.498,-483.759 142.541,-476.837"/>
</g>
<!-- Node3 -->
<g id="node3" class="node"><title>Node3</title>
<g id="a_node3"><a xlink:href="classMWGui_1_1WindowManager.html#a510ebc9a491bd1ebfc0a588e281b439c" target="_top" xlink:title="Warning: do not use MyGUI::InputManager::setKeyFocusWidget directly. Instead use this. ">
<polygon fill="white" stroke="black" points="168,-430 168,-460 300,-460 300,-430 168,-430"/>
<text text-anchor="start" x="176" y="-448" font-family="FreeSans" font-size="10.00">MWGui::WindowManager</text>
<text text-anchor="middle" x="234" y="-437" font-family="FreeSans" font-size="10.00">::setKeyFocusWidget</text>
</a>
</g>
</g>
<!-- Node1&#45;&gt;Node3 -->
<g id="edge2" class="edge"><title>Node1&#45;&gt;Node3</title>
<path fill="none" stroke="midnightblue" d="M142.114,-458.14C150.681,-456.902 159.361,-455.647 167.784,-454.429"/>
<polygon fill="midnightblue" stroke="midnightblue" points="141.527,-454.688 132.131,-459.583 142.529,-461.616 141.527,-454.688"/>
</g>
<!-- Node4 -->
<g id="node4" class="node"><title>Node4</title>
<g id="a_node4"><a xlink:href="classMWGui_1_1WindowManager.html#ab9fdbfdc3d3b76fe9813cbb743d334da" target="_top" xlink:title="MWGui::WindowManager\l::updateVisible">
<polygon fill="white" stroke="black" points="336,-338 336,-368 468,-368 468,-338 336,-338"/>
<text text-anchor="start" x="344" y="-356" font-family="FreeSans" font-size="10.00">MWGui::WindowManager</text>
<text text-anchor="middle" x="402" y="-345" font-family="FreeSans" font-size="10.00">::updateVisible</text>
</a>
</g>
</g>
<!-- Node3&#45;&gt;Node4 -->
<g id="edge3" class="edge"><title>Node3&#45;&gt;Node4</title>
<path fill="none" stroke="midnightblue" d="M271.556,-424.74C302.433,-407.628 345.954,-383.507 373.824,-368.062"/>
<polygon fill="midnightblue" stroke="midnightblue" points="269.461,-421.899 262.412,-429.808 272.855,-428.022 269.461,-421.899"/>
</g>
<!-- Node25 -->
<g id="node25" class="node"><title>Node25</title>
<g id="a_node25"><a xlink:href="classMWGui_1_1WindowManager.html#a66c57e047d0647ec7186e635d39d1bc1" target="_top" xlink:title="MWGui::WindowManager\l::playVideo">
<polygon fill="white" stroke="black" points="336,-523 336,-553 468,-553 468,-523 336,-523"/>
<text text-anchor="start" x="344" y="-541" font-family="FreeSans" font-size="10.00">MWGui::WindowManager</text>
<text text-anchor="middle" x="402" y="-530" font-family="FreeSans" font-size="10.00">::playVideo</text>
</a>
</g>
</g>
<!-- Node3&#45;&gt;Node25 -->
<g id="edge28" class="edge"><title>Node3&#45;&gt;Node25</title>
<path fill="none" stroke="midnightblue" d="M287.607,-464.05C291.853,-465.944 296.032,-467.935 300,-470 329.814,-485.517 361.555,-507.99 381.328,-522.793"/>
<polygon fill="midnightblue" stroke="midnightblue" points="288.832,-460.768 278.261,-460.065 286.087,-467.207 288.832,-460.768"/>
</g>
<!-- Node5 -->
<g id="node5" class="node"><title>Node5</title>
<g id="a_node5"><a xlink:href="classMWGui_1_1WindowManager.html#a2066d296aa345dcb4008cbd07d3c52c2" target="_top" xlink:title="MWGui::WindowManager\l::initUI">
<polygon fill="white" stroke="black" points="505,-616 505,-646 637,-646 637,-616 505,-616"/>
<text text-anchor="start" x="513" y="-634" font-family="FreeSans" font-size="10.00">MWGui::WindowManager</text>
<text text-anchor="middle" x="571" y="-623" font-family="FreeSans" font-size="10.00">::initUI</text>
</a>
</g>
</g>
<!-- Node4&#45;&gt;Node5 -->
<g id="edge4" class="edge"><title>Node4&#45;&gt;Node5</title>
<path fill="none" stroke="midnightblue" d="M412.937,-377.379C425.759,-408.888 448.709,-465.47 468,-514 484.219,-554.802 472.784,-575.122 504,-606 507.92,-609.878 512.501,-613.164 517.39,-615.948"/>
<polygon fill="midnightblue" stroke="midnightblue" points="416.16,-376.014 409.148,-368.072 409.677,-378.654 416.16,-376.014"/>
</g>
<!-- Node7 -->
<g id="node7" class="node"><title>Node7</title>
<g id="a_node7"><a xlink:href="classMWGui_1_1WindowManager.html#a044fcf2ab107f7c97dbf184ab0e3e868" target="_top" xlink:title="MWGui::WindowManager\l::interactiveMessageBox">
<polygon fill="white" stroke="black" points="504,-420 504,-450 638,-450 638,-420 504,-420"/>
<text text-anchor="start" x="512" y="-438" font-family="FreeSans" font-size="10.00">MWGui::WindowManager</text>
<text text-anchor="middle" x="571" y="-427" font-family="FreeSans" font-size="10.00">::interactiveMessageBox</text>
</a>
</g>
</g>
<!-- Node4&#45;&gt;Node7 -->
<g id="edge6" class="edge"><title>Node4&#45;&gt;Node7</title>
<path fill="none" stroke="midnightblue" d="M440.454,-372.835C459.391,-382.723 482.797,-394.731 504,-405 514.308,-409.993 525.628,-415.227 535.937,-419.899"/>
<polygon fill="midnightblue" stroke="midnightblue" points="442.028,-369.709 431.546,-368.169 438.78,-375.909 442.028,-369.709"/>
</g>
<!-- Node8 -->
<g id="node8" class="node"><title>Node8</title>
<g id="a_node8"><a xlink:href="classMWGui_1_1WindowManager.html#a1c324aaf572326e89420cfec288b433c" target="_top" xlink:title="MWGui::WindowManager\l::pushGuiMode">
<polygon fill="white" stroke="black" points="505,-245 505,-275 637,-275 637,-245 505,-245"/>
<text text-anchor="start" x="513" y="-263" font-family="FreeSans" font-size="10.00">MWGui::WindowManager</text>
<text text-anchor="middle" x="571" y="-252" font-family="FreeSans" font-size="10.00">::pushGuiMode</text>
</a>
</g>
</g>
<!-- Node4&#45;&gt;Node8 -->
<g id="edge7" class="edge"><title>Node4&#45;&gt;Node8</title>
<path fill="none" stroke="midnightblue" d="M430.022,-331.775C449.724,-317.004 477.502,-297.596 504,-284 510.292,-280.772 517.12,-277.774 523.92,-275.069"/>
<polygon fill="midnightblue" stroke="midnightblue" points="427.681,-329.158 421.836,-337.994 431.916,-334.732 427.681,-329.158"/>
</g>
<!-- Node12 -->
<g id="node12" class="node"><title>Node12</title>
<g id="a_node12"><a xlink:href="classMWGui_1_1WindowManager.html#a8f63377cbff070264ed7da37076040c1" target="_top" xlink:title="MWGui::WindowManager\l::popGuiMode">
<polygon fill="white" stroke="black" points="505,-294 505,-324 637,-324 637,-294 505,-294"/>
<text text-anchor="start" x="513" y="-312" font-family="FreeSans" font-size="10.00">MWGui::WindowManager</text>
<text text-anchor="middle" x="571" y="-301" font-family="FreeSans" font-size="10.00">::popGuiMode</text>
</a>
</g>
</g>
<!-- Node4&#45;&gt;Node12 -->
<g id="edge11" class="edge"><title>Node4&#45;&gt;Node12</title>
<path fill="none" stroke="midnightblue" d="M469.778,-335.406C484.083,-331.637 499.071,-327.688 512.969,-324.026"/>
<polygon fill="midnightblue" stroke="midnightblue" points="468.783,-332.048 460.005,-337.981 470.567,-338.817 468.783,-332.048"/>
</g>
<!-- Node13 -->
<g id="node13" class="node"><title>Node13</title>
<g id="a_node13"><a xlink:href="classMWGui_1_1WindowManager.html#a6b2a76f33e841032740681216f2fcc7b" target="_top" xlink:title="can be anywhere in the stack ">
<polygon fill="white" stroke="black" points="685,-389 685,-419 817,-419 817,-389 685,-389"/>
<text text-anchor="start" x="693" y="-407" font-family="FreeSans" font-size="10.00">MWGui::WindowManager</text>
<text text-anchor="middle" x="751" y="-396" font-family="FreeSans" font-size="10.00">::removeGuiMode</text>
</a>
</g>
</g>
<!-- Node4&#45;&gt;Node13 -->
<g id="edge15" class="edge"><title>Node4&#45;&gt;Node13</title>
<path fill="none" stroke="midnightblue" d="M478.316,-364.204C486.976,-365.486 495.681,-366.773 504,-368 565.384,-377.05 635.396,-387.287 684.993,-394.525"/>
<polygon fill="midnightblue" stroke="midnightblue" points="478.6,-360.707 468.194,-362.703 477.573,-367.632 478.6,-360.707"/>
</g>
<!-- Node14 -->
<g id="node14" class="node"><title>Node14</title>
<g id="a_node14"><a xlink:href="classMWGui_1_1WindowManager.html#a9825efe2509280a4e509c80fdb140513" target="_top" xlink:title="Clear all savegame&#45;specific data. ">
<polygon fill="white" stroke="black" points="685,-340 685,-370 817,-370 817,-340 685,-340"/>
<text text-anchor="start" x="693" y="-358" font-family="FreeSans" font-size="10.00">MWGui::WindowManager</text>
<text text-anchor="middle" x="751" y="-347" font-family="FreeSans" font-size="10.00">::clear</text>
</a>
</g>
</g>
<!-- Node4&#45;&gt;Node14 -->
<g id="edge26" class="edge"><title>Node4&#45;&gt;Node14</title>
<path fill="none" stroke="midnightblue" d="M478.314,-353.434C539.887,-353.789 626.056,-354.286 684.73,-354.624"/>
<polygon fill="midnightblue" stroke="midnightblue" points="478.288,-349.934 468.268,-353.376 478.248,-356.934 478.288,-349.934"/>
</g>
<!-- Node15 -->
<g id="node15" class="node"><title>Node15</title>
<g id="a_node15"><a xlink:href="classMWGui_1_1WindowManager.html#aeb2d42ff40077e3b3513c5ed67732fc5" target="_top" xlink:title="Allow one or more windows. ">
<polygon fill="white" stroke="black" points="505,-147 505,-177 637,-177 637,-147 505,-147"/>
<text text-anchor="start" x="513" y="-165" font-family="FreeSans" font-size="10.00">MWGui::WindowManager</text>
<text text-anchor="middle" x="571" y="-154" font-family="FreeSans" font-size="10.00">::allow</text>
</a>
</g>
</g>
<!-- Node4&#45;&gt;Node15 -->
<g id="edge16" class="edge"><title>Node4&#45;&gt;Node15</title>
<path fill="none" stroke="midnightblue" d="M411.91,-327.949C426.016,-291.709 456.822,-224.765 504,-186 508.145,-182.594 512.815,-179.65 517.707,-177.11"/>
<polygon fill="midnightblue" stroke="midnightblue" points="408.477,-327.135 408.222,-337.726 415.026,-329.605 408.477,-327.135"/>
</g>
<!-- Node17 -->
<g id="node17" class="node"><title>Node17</title>
<g id="a_node17"><a xlink:href="classMWGui_1_1WindowManager.html#a9f2fb85060c4d0ff97fc8e8be332192d" target="_top" xlink:title="Disallow all inventory mode windows. ">
<polygon fill="white" stroke="black" points="505,-196 505,-226 637,-226 637,-196 505,-196"/>
<text text-anchor="start" x="513" y="-214" font-family="FreeSans" font-size="10.00">MWGui::WindowManager</text>
<text text-anchor="middle" x="571" y="-203" font-family="FreeSans" font-size="10.00">::disallowAll</text>
</a>
</g>
</g>
<!-- Node4&#45;&gt;Node17 -->
<g id="edge18" class="edge"><title>Node4&#45;&gt;Node17</title>
<path fill="none" stroke="midnightblue" d="M417.907,-329.135C435.514,-302.732 467.118,-260.548 504,-235 508.911,-231.598 514.36,-228.619 519.961,-226.026"/>
<polygon fill="midnightblue" stroke="midnightblue" points="414.81,-327.476 412.277,-337.763 420.673,-331.301 414.81,-327.476"/>
</g>
<!-- Node18 -->
<g id="node18" class="node"><title>Node18</title>
<g id="a_node18"><a xlink:href="classMWGui_1_1WindowManager.html#a19dfd4c859d0d058631664bdb3317d58" target="_top" xlink:title="MWGui::WindowManager\l::toggleVisible">
<polygon fill="white" stroke="black" points="505,-98 505,-128 637,-128 637,-98 505,-98"/>
<text text-anchor="start" x="513" y="-116" font-family="FreeSans" font-size="10.00">MWGui::WindowManager</text>
<text text-anchor="middle" x="571" y="-105" font-family="FreeSans" font-size="10.00">::toggleVisible</text>
</a>
</g>
</g>
<!-- Node4&#45;&gt;Node18 -->
<g id="edge20" class="edge"><title>Node4&#45;&gt;Node18</title>
<path fill="none" stroke="midnightblue" d="M408.133,-327.812C418.49,-283.211 446.021,-190.056 504,-137 507.778,-133.543 512.092,-130.574 516.666,-128.027"/>
<polygon fill="midnightblue" stroke="midnightblue" points="404.665,-327.284 405.914,-337.805 411.498,-328.801 404.665,-327.284"/>
</g>
<!-- Node19 -->
<g id="node19" class="node"><title>Node19</title>
<g id="a_node19"><a xlink:href="classMWGui_1_1WindowManager.html#a8c06ac694968e2167fd0180621c5fde1" target="_top" xlink:title="MWGui::WindowManager\l::forceHide">
<polygon fill="white" stroke="black" points="505,-49 505,-79 637,-79 637,-49 505,-49"/>
<text text-anchor="start" x="513" y="-67" font-family="FreeSans" font-size="10.00">MWGui::WindowManager</text>
<text text-anchor="middle" x="571" y="-56" font-family="FreeSans" font-size="10.00">::forceHide</text>
</a>
</g>
</g>
<!-- Node4&#45;&gt;Node19 -->
<g id="edge21" class="edge"><title>Node4&#45;&gt;Node19</title>
<path fill="none" stroke="midnightblue" d="M405.658,-327.727C412.445,-275.713 435.058,-155.89 504,-88 507.475,-84.5781 511.475,-81.6395 515.752,-79.1169"/>
<polygon fill="midnightblue" stroke="midnightblue" points="402.172,-327.404 404.439,-337.754 409.121,-328.249 402.172,-327.404"/>
</g>
<!-- Node21 -->
<g id="node21" class="node"><title>Node21</title>
<g id="a_node21"><a xlink:href="classMWGui_1_1WindowManager.html#ae9b8cc0be0202b8db35cde4268a5980f" target="_top" xlink:title="MWGui::WindowManager\l::unsetForceHide">
<polygon fill="white" stroke="black" points="505,-0 505,-30 637,-30 637,-0 505,-0"/>
<text text-anchor="start" x="513" y="-18" font-family="FreeSans" font-size="10.00">MWGui::WindowManager</text>
<text text-anchor="middle" x="571" y="-7" font-family="FreeSans" font-size="10.00">::unsetForceHide</text>
</a>
</g>
</g>
<!-- Node4&#45;&gt;Node21 -->
<g id="edge23" class="edge"><title>Node4&#45;&gt;Node21</title>
<path fill="none" stroke="midnightblue" d="M403.9,-327.677C407.343,-268.941 423.95,-122.115 504,-39 507.299,-35.5751 511.124,-32.6368 515.239,-30.1162"/>
<polygon fill="midnightblue" stroke="midnightblue" points="400.392,-327.732 403.384,-337.895 407.384,-328.084 400.392,-327.732"/>
</g>
<!-- Node22 -->
<g id="node22" class="node"><title>Node22</title>
<g id="a_node22"><a xlink:href="classMWGui_1_1WindowManager.html#a0af4fdd65c849f2481367a76d9dc54da" target="_top" xlink:title="Turn visibility of HUD on or off. ">
<polygon fill="white" stroke="black" points="505,-567 505,-597 637,-597 637,-567 505,-567"/>
<text text-anchor="start" x="513" y="-585" font-family="FreeSans" font-size="10.00">MWGui::WindowManager</text>
<text text-anchor="middle" x="571" y="-574" font-family="FreeSans" font-size="10.00">::toggleHud</text>
</a>
</g>
</g>
<!-- Node4&#45;&gt;Node22 -->
<g id="edge24" class="edge"><title>Node4&#45;&gt;Node22</title>
<path fill="none" stroke="midnightblue" d="M412.573,-377.729C431.741,-426.17 475.439,-531.1 504,-557 508.266,-560.869 513.19,-564.159 518.387,-566.954"/>
<polygon fill="midnightblue" stroke="midnightblue" points="415.783,-376.327 408.87,-368.298 409.267,-378.886 415.783,-376.327"/>
</g>
<!-- Node23 -->
<g id="node23" class="node"><title>Node23</title>
<g id="a_node23"><a xlink:href="classMWGui_1_1WindowManager.html#afb89d5bc0e8f5c530bc1e40e151877c1" target="_top" xlink:title="MWGui::WindowManager\l::showSoulgemDialog">
<polygon fill="white" stroke="black" points="505,-518 505,-548 637,-548 637,-518 505,-518"/>
<text text-anchor="start" x="513" y="-536" font-family="FreeSans" font-size="10.00">MWGui::WindowManager</text>
<text text-anchor="middle" x="571" y="-525" font-family="FreeSans" font-size="10.00">::showSoulgemDialog</text>
</a>
</g>
</g>
<!-- Node4&#45;&gt;Node23 -->
<g id="edge25" class="edge"><title>Node4&#45;&gt;Node23</title>
<path fill="none" stroke="midnightblue" d="M413.106,-377.63C428.163,-411.477 459.556,-472.23 504,-508 508.773,-511.841 514.199,-515.136 519.841,-517.95"/>
<polygon fill="midnightblue" stroke="midnightblue" points="416.144,-375.836 408.962,-368.048 409.719,-378.615 416.144,-375.836"/>
</g>
<!-- Node24 -->
<g id="node24" class="node"><title>Node24</title>
<g id="a_node24"><a xlink:href="classMWGui_1_1WindowManager.html#a2ebf9d8952c285e995a7a3681bfb2c30" target="_top" xlink:title="MWGui::WindowManager\l::pinWindow">
<polygon fill="white" stroke="black" points="505,-469 505,-499 637,-499 637,-469 505,-469"/>
<text text-anchor="start" x="513" y="-487" font-family="FreeSans" font-size="10.00">MWGui::WindowManager</text>
<text text-anchor="middle" x="571" y="-476" font-family="FreeSans" font-size="10.00">::pinWindow</text>
</a>
</g>
</g>
<!-- Node4&#45;&gt;Node24 -->
<g id="edge27" class="edge"><title>Node4&#45;&gt;Node24</title>
<path fill="none" stroke="midnightblue" d="M419.941,-376.13C438.32,-399.79 469.667,-436.22 504,-459 509.615,-462.726 515.864,-466.005 522.215,-468.857"/>
<polygon fill="midnightblue" stroke="midnightblue" points="422.621,-373.871 413.776,-368.039 417.053,-378.114 422.621,-373.871"/>
</g>
<!-- Node6 -->
<g id="node6" class="node"><title>Node6</title>
<g id="a_node6"><a xlink:href="classOMW_1_1Engine.html#a9edab665083b0f5db2cda761f3e9c2c3" target="_top" xlink:title="Prepare engine for game play. ">
<polygon fill="white" stroke="black" points="674,-643.5 674,-662.5 828,-662.5 828,-643.5 674,-643.5"/>
<text text-anchor="middle" x="751" y="-650.5" font-family="FreeSans" font-size="10.00">OMW::Engine::prepareEngine</text>
</a>
</g>
</g>
<!-- Node5&#45;&gt;Node6 -->
<g id="edge5" class="edge"><title>Node5&#45;&gt;Node6</title>
<path fill="none" stroke="midnightblue" d="M646.997,-640.269C655.926,-641.373 665.047,-642.5 673.99,-643.606"/>
<polygon fill="midnightblue" stroke="midnightblue" points="647.371,-636.789 637.018,-639.036 646.513,-643.736 647.371,-636.789"/>
</g>
<!-- Node9 -->
<g id="node9" class="node"><title>Node9</title>
<g id="a_node9"><a xlink:href="classMWGui_1_1WindowManager.html#a1d29eb164660e2bd45cb5641a90ac867" target="_top" xlink:title="Gracefully attempts to exit the topmost GUI mode. ">
<polygon fill="white" stroke="black" points="685,-291 685,-321 817,-321 817,-291 685,-291"/>
<text text-anchor="start" x="693" y="-309" font-family="FreeSans" font-size="10.00">MWGui::WindowManager</text>
<text text-anchor="middle" x="751" y="-298" font-family="FreeSans" font-size="10.00">::exitCurrentGuiMode</text>
</a>
</g>
</g>
<!-- Node8&#45;&gt;Node9 -->
<g id="edge8" class="edge"><title>Node8&#45;&gt;Node9</title>
<path fill="none" stroke="midnightblue" d="M640.181,-277.62C657.237,-282.027 675.373,-286.714 691.889,-290.983"/>
<polygon fill="midnightblue" stroke="midnightblue" points="640.842,-274.176 630.284,-275.062 639.09,-280.953 640.842,-274.176"/>
</g>
<!-- Node10 -->
<g id="node10" class="node"><title>Node10</title>
<g id="a_node10"><a xlink:href="classMWGui_1_1WindowManager.html#a0767a1ab9cb727c7bd0243c35226b428" target="_top" xlink:title="MWGui::WindowManager\l::pushGuiMode">
<polygon fill="white" stroke="black" points="685,-242 685,-272 817,-272 817,-242 685,-242"/>
<text text-anchor="start" x="693" y="-260" font-family="FreeSans" font-size="10.00">MWGui::WindowManager</text>
<text text-anchor="middle" x="751" y="-249" font-family="FreeSans" font-size="10.00">::pushGuiMode</text>
</a>
</g>
</g>
<!-- Node8&#45;&gt;Node10 -->
<g id="edge9" class="edge"><title>Node8&#45;&gt;Node10</title>
<path fill="none" stroke="midnightblue" d="M647.38,-258.73C659.845,-258.519 672.675,-258.303 684.861,-258.098"/>
<polygon fill="midnightblue" stroke="midnightblue" points="646.957,-255.236 637.018,-258.904 647.075,-262.235 646.957,-255.236"/>
</g>
<!-- Node11 -->
<g id="node11" class="node"><title>Node11</title>
<g id="a_node11"><a xlink:href="classMWGui_1_1WindowManager.html#a601bb982ab0708ae59f272cf67cfd9e7" target="_top" xlink:title="MWGui::WindowManager\l::goToJail">
<polygon fill="white" stroke="black" points="685,-193 685,-223 817,-223 817,-193 685,-193"/>
<text text-anchor="start" x="693" y="-211" font-family="FreeSans" font-size="10.00">MWGui::WindowManager</text>
<text text-anchor="middle" x="751" y="-200" font-family="FreeSans" font-size="10.00">::goToJail</text>
</a>
</g>
</g>
<!-- Node8&#45;&gt;Node11 -->
<g id="edge10" class="edge"><title>Node8&#45;&gt;Node11</title>
<path fill="none" stroke="midnightblue" d="M633.102,-242.15C654.443,-235.916 678.164,-228.986 698.631,-223.007"/>
<polygon fill="midnightblue" stroke="midnightblue" points="632.102,-238.796 623.485,-244.959 634.065,-245.515 632.102,-238.796"/>
</g>
<!-- Node12&#45;&gt;Node9 -->
<g id="edge12" class="edge"><title>Node12&#45;&gt;Node9</title>
<path fill="none" stroke="midnightblue" d="M647.38,-307.73C659.845,-307.519 672.675,-307.303 684.861,-307.098"/>
<polygon fill="midnightblue" stroke="midnightblue" points="646.957,-304.236 637.018,-307.904 647.075,-311.235 646.957,-304.236"/>
</g>
<!-- Node12&#45;&gt;Node13 -->
<g id="edge13" class="edge"><title>Node12&#45;&gt;Node13</title>
<path fill="none" stroke="midnightblue" d="M598.511,-330.312C618.374,-345.484 646.715,-365.495 674,-379 681.469,-382.697 689.612,-386.034 697.702,-388.978"/>
<polygon fill="midnightblue" stroke="midnightblue" points="600.593,-327.498 590.545,-324.14 596.306,-333.031 600.593,-327.498"/>
</g>
<!-- Node12&#45;&gt;Node14 -->
<g id="edge14" class="edge"><title>Node12&#45;&gt;Node14</title>
<path fill="none" stroke="midnightblue" d="M640.181,-326.62C657.237,-331.027 675.373,-335.714 691.889,-339.983"/>
<polygon fill="midnightblue" stroke="midnightblue" points="640.842,-323.176 630.284,-324.062 639.09,-329.953 640.842,-323.176"/>
</g>
<!-- Node16 -->
<g id="node16" class="node"><title>Node16</title>
<g id="a_node16"><a xlink:href="classMWGui_1_1WindowManager.html#a924de31f311b3a886d4b9fb8ba9806c6" target="_top" xlink:title="MWGui::WindowManager\l::setNewGame">
<polygon fill="white" stroke="black" points="685,-144 685,-174 817,-174 817,-144 685,-144"/>
<text text-anchor="start" x="693" y="-162" font-family="FreeSans" font-size="10.00">MWGui::WindowManager</text>
<text text-anchor="middle" x="751" y="-151" font-family="FreeSans" font-size="10.00">::setNewGame</text>
</a>
</g>
</g>
<!-- Node15&#45;&gt;Node16 -->
<g id="edge17" class="edge"><title>Node15&#45;&gt;Node16</title>
<path fill="none" stroke="midnightblue" d="M647.38,-160.73C659.845,-160.519 672.675,-160.303 684.861,-160.098"/>
<polygon fill="midnightblue" stroke="midnightblue" points="646.957,-157.236 637.018,-160.904 647.075,-164.235 646.957,-157.236"/>
</g>
<!-- Node17&#45;&gt;Node16 -->
<g id="edge19" class="edge"><title>Node17&#45;&gt;Node16</title>
<path fill="none" stroke="midnightblue" d="M633.102,-193.15C654.443,-186.916 678.164,-179.986 698.631,-174.007"/>
<polygon fill="midnightblue" stroke="midnightblue" points="632.102,-189.796 623.485,-195.959 634.065,-196.515 632.102,-189.796"/>
</g>
<!-- Node20 -->
<g id="node20" class="node"><title>Node20</title>
<g id="a_node20"><a xlink:href="classMWGui_1_1WindowManager.html#a0473842e2a7a08cf0b0e0e9d7e70be8e" target="_top" xlink:title="MWGui::WindowManager\l::updatePlayer">
<polygon fill="white" stroke="black" points="685,-49 685,-79 817,-79 817,-49 685,-49"/>
<text text-anchor="start" x="693" y="-67" font-family="FreeSans" font-size="10.00">MWGui::WindowManager</text>
<text text-anchor="middle" x="751" y="-56" font-family="FreeSans" font-size="10.00">::updatePlayer</text>
</a>
</g>
</g>
<!-- Node19&#45;&gt;Node20 -->
<g id="edge22" class="edge"><title>Node19&#45;&gt;Node20</title>
<path fill="none" stroke="midnightblue" d="M647.38,-64C659.845,-64 672.675,-64 684.861,-64"/>
<polygon fill="midnightblue" stroke="midnightblue" points="647.018,-60.5001 637.018,-64 647.018,-67.5001 647.018,-60.5001"/>
</g>
<!-- Node25&#45;&gt;Node6 -->
<g id="edge29" class="edge"><title>Node25&#45;&gt;Node6</title>
<path fill="none" stroke="midnightblue" d="M415.295,-561.961C431.338,-590.272 462.351,-635.932 504,-655 572.541,-686.379 663.506,-673.539 713.393,-662.537"/>
<polygon fill="midnightblue" stroke="midnightblue" points="418.308,-560.177 410.434,-553.088 412.169,-563.54 418.308,-560.177"/>
</g>
</g>
</svg>
