<?xml version="1.0" encoding="UTF-8" standalone="no"?>
<!DOCTYPE svg PUBLIC "-//W3C//DTD SVG 1.1//EN"
 "http://www.w3.org/Graphics/SVG/1.1/DTD/svg11.dtd">
<!-- Generated by graphviz version 2.36.0 (20140111.2315)
 -->
<!-- Title: MWScript::Misc::OpGetEffect::execute Pages: 1 -->
<svg width="370pt" height="400pt"
 viewBox="0.00 0.00 370.00 400.00" xmlns="http://www.w3.org/2000/svg" xmlns:xlink="http://www.w3.org/1999/xlink">
<g id="graph0" class="graph" transform="scale(1 1) rotate(0) translate(4 396)">
<title>MWScript::Misc::OpGetEffect::execute</title>
<polygon fill="white" stroke="none" points="-4,4 -4,-396 366,-396 366,4 -4,4"/>
<!-- Node1 -->
<g id="node1" class="node"><title>Node1</title>
<polygon fill="#bfbfbf" stroke="black" points="0,-186 0,-216 152,-216 152,-186 0,-186"/>
<text text-anchor="start" x="8" y="-204" font-family="FreeSans" font-size="10.00">MWScript::Misc::OpGetEffect</text>
<text text-anchor="middle" x="76" y="-193" font-family="FreeSans" font-size="10.00">::execute</text>
</g>
<!-- Node2 -->
<g id="node2" class="node"><title>Node2</title>
<g id="a_node2"><a xlink:href="classInterpreter_1_1Runtime.html#a48ee08f88ec29e0b2f5432b685b89f83" target="_top" xlink:title="Interpreter::Runtime\l::getStringLiteral">
<polygon fill="white" stroke="black" points="218.5,-362 218.5,-392 331.5,-392 331.5,-362 218.5,-362"/>
<text text-anchor="start" x="226.5" y="-380" font-family="FreeSans" font-size="10.00">Interpreter::Runtime</text>
<text text-anchor="middle" x="275" y="-369" font-family="FreeSans" font-size="10.00">::getStringLiteral</text>
</a>
</g>
</g>
<!-- Node1&#45;&gt;Node2 -->
<g id="edge1" class="edge"><title>Node1&#45;&gt;Node2</title>
<path fill="none" stroke="midnightblue" d="M84.0451,-216.445C98.8116,-247.069 135.993,-315.659 188,-352 194.363,-356.446 201.514,-360.109 208.905,-363.125"/>
<polygon fill="midnightblue" stroke="midnightblue" points="207.76,-366.433 218.353,-366.609 210.182,-359.865 207.76,-366.433"/>
</g>
<!-- Node3 -->
<g id="node3" class="node"><title>Node3</title>
<g id="a_node3"><a xlink:href="classInterpreter_1_1Runtime.html#a51d21562a9d97d65c78410e5d0e43e64" target="_top" xlink:title="pop stack ">
<polygon fill="white" stroke="black" points="206.5,-323.5 206.5,-342.5 343.5,-342.5 343.5,-323.5 206.5,-323.5"/>
<text text-anchor="middle" x="275" y="-330.5" font-family="FreeSans" font-size="10.00">Interpreter::Runtime::pop</text>
</a>
</g>
</g>
<!-- Node1&#45;&gt;Node3 -->
<g id="edge2" class="edge"><title>Node1&#45;&gt;Node3</title>
<path fill="none" stroke="midnightblue" d="M87.6739,-216.369C105.503,-240.816 143.779,-288.312 188,-313 192.852,-315.709 198.054,-318.051 203.41,-320.077"/>
<polygon fill="midnightblue" stroke="midnightblue" points="202.58,-323.492 213.174,-323.393 204.831,-316.863 202.58,-323.492"/>
</g>
<!-- Node4 -->
<g id="node4" class="node"><title>Node4</title>
<g id="a_node4"><a xlink:href="structESM_1_1MagicEffect.html#a908cf4eae85eaaac3a66e8742b73ccb5" target="_top" xlink:title="ESM::MagicEffect::effect\lStringToId">
<polygon fill="white" stroke="black" points="209.5,-274 209.5,-304 340.5,-304 340.5,-274 209.5,-274"/>
<text text-anchor="start" x="217.5" y="-292" font-family="FreeSans" font-size="10.00">ESM::MagicEffect::effect</text>
<text text-anchor="middle" x="275" y="-281" font-family="FreeSans" font-size="10.00">StringToId</text>
</a>
</g>
</g>
<!-- Node1&#45;&gt;Node4 -->
<g id="edge3" class="edge"><title>Node1&#45;&gt;Node4</title>
<path fill="none" stroke="midnightblue" d="M100.002,-216.173C121.903,-230.1 156.156,-250.553 188,-264 193.506,-266.325 199.297,-268.515 205.164,-270.559"/>
<polygon fill="midnightblue" stroke="midnightblue" points="204.478,-274.02 215.071,-273.858 206.689,-267.378 204.478,-274.02"/>
</g>
<!-- Node5 -->
<g id="node5" class="node"><title>Node5</title>
<g id="a_node5"><a xlink:href="classMWWorld_1_1Ptr.html#aa2ac4a5579cd19eaa780596f4543ea46" target="_top" xlink:title="MWWorld::Ptr::getClass">
<polygon fill="white" stroke="black" points="212.5,-235.5 212.5,-254.5 337.5,-254.5 337.5,-235.5 212.5,-235.5"/>
<text text-anchor="middle" x="275" y="-242.5" font-family="FreeSans" font-size="10.00">MWWorld::Ptr::getClass</text>
</a>
</g>
</g>
<!-- Node1&#45;&gt;Node5 -->
<g id="edge4" class="edge"><title>Node1&#45;&gt;Node5</title>
<path fill="none" stroke="midnightblue" d="M144.245,-216.019C169.506,-221.661 197.826,-227.986 221.548,-233.285"/>
<polygon fill="midnightblue" stroke="midnightblue" points="220.888,-236.724 231.41,-235.488 222.414,-229.892 220.888,-236.724"/>
</g>
<!-- Node6 -->
<g id="node6" class="node"><title>Node6</title>
<g id="a_node6"><a xlink:href="classMWWorld_1_1Class.html#a5095a30e5baa5742b3d393610fd73d60" target="_top" xlink:title="MWWorld::Class::getCreature\lStats">
<polygon fill="white" stroke="black" points="198,-186 198,-216 352,-216 352,-186 198,-186"/>
<text text-anchor="start" x="206" y="-204" font-family="FreeSans" font-size="10.00">MWWorld::Class::getCreature</text>
<text text-anchor="middle" x="275" y="-193" font-family="FreeSans" font-size="10.00">Stats</text>
</a>
</g>
</g>
<!-- Node1&#45;&gt;Node6 -->
<g id="edge5" class="edge"><title>Node1&#45;&gt;Node6</title>
<path fill="none" stroke="midnightblue" d="M152.039,-201C163.645,-201 175.712,-201 187.544,-201"/>
<polygon fill="midnightblue" stroke="midnightblue" points="187.863,-204.5 197.863,-201 187.863,-197.5 187.863,-204.5"/>
</g>
<!-- Node7 -->
<g id="node7" class="node"><title>Node7</title>
<g id="a_node7"><a xlink:href="classMWMechanics_1_1CreatureStats.html#a2b7019ffe2ea9ecaace020bd12845e68" target="_top" xlink:title="MWMechanics::CreatureStats\l::getMagicEffects">
<polygon fill="white" stroke="black" points="196.5,-137 196.5,-167 353.5,-167 353.5,-137 196.5,-137"/>
<text text-anchor="start" x="204.5" y="-155" font-family="FreeSans" font-size="10.00">MWMechanics::CreatureStats</text>
<text text-anchor="middle" x="275" y="-144" font-family="FreeSans" font-size="10.00">::getMagicEffects</text>
</a>
</g>
</g>
<!-- Node1&#45;&gt;Node7 -->
<g id="edge6" class="edge"><title>Node1&#45;&gt;Node7</title>
<path fill="none" stroke="midnightblue" d="M137.445,-185.965C158.435,-180.745 182.149,-174.846 203.854,-169.447"/>
<polygon fill="midnightblue" stroke="midnightblue" points="204.81,-172.817 213.669,-167.006 203.12,-166.024 204.81,-172.817"/>
</g>
<!-- Node8 -->
<g id="node8" class="node"><title>Node8</title>
<g id="a_node8"><a xlink:href="classMWMechanics_1_1MagicEffects.html#a638e246aa72bf5ddcb3185a4c621998a" target="_top" xlink:title="MWMechanics::MagicEffects\l::begin">
<polygon fill="white" stroke="black" points="200.5,-88 200.5,-118 349.5,-118 349.5,-88 200.5,-88"/>
<text text-anchor="start" x="208.5" y="-106" font-family="FreeSans" font-size="10.00">MWMechanics::MagicEffects</text>
<text text-anchor="middle" x="275" y="-95" font-family="FreeSans" font-size="10.00">::begin</text>
</a>
</g>
</g>
<!-- Node1&#45;&gt;Node8 -->
<g id="edge7" class="edge"><title>Node1&#45;&gt;Node8</title>
<path fill="none" stroke="midnightblue" d="M96.0067,-185.93C117.321,-169.662 153.444,-143.945 188,-128 193.03,-125.679 198.325,-123.52 203.714,-121.523"/>
<polygon fill="midnightblue" stroke="midnightblue" points="205.199,-124.711 213.48,-118.102 202.885,-118.105 205.199,-124.711"/>
</g>
<!-- Node9 -->
<g id="node9" class="node"><title>Node9</title>
<g id="a_node9"><a xlink:href="classMWMechanics_1_1MagicEffects.html#a5cdf71bce7e8bd4a47f108a9c61c8ff2" target="_top" xlink:title="MWMechanics::MagicEffects::end">
<polygon fill="white" stroke="black" points="188.5,-49.5 188.5,-68.5 361.5,-68.5 361.5,-49.5 188.5,-49.5"/>
<text text-anchor="middle" x="275" y="-56.5" font-family="FreeSans" font-size="10.00">MWMechanics::MagicEffects::end</text>
</a>
</g>
</g>
<!-- Node1&#45;&gt;Node9 -->
<g id="edge8" class="edge"><title>Node1&#45;&gt;Node9</title>
<path fill="none" stroke="midnightblue" d="M86.2371,-185.932C103.064,-159.831 141.319,-106.385 188,-79 192.512,-76.3531 197.349,-74.0565 202.345,-72.0639"/>
<polygon fill="midnightblue" stroke="midnightblue" points="203.853,-75.2422 212.103,-68.5943 201.508,-68.6467 203.853,-75.2422"/>
</g>
<!-- Node10 -->
<g id="node10" class="node"><title>Node10</title>
<g id="a_node10"><a xlink:href="classInterpreter_1_1Runtime.html#a891b8bca22d1cee61ff80f9ce7939bde" target="_top" xlink:title="push data on stack ">
<polygon fill="white" stroke="black" points="218.5,-0 218.5,-30 331.5,-30 331.5,-0 218.5,-0"/>
<text text-anchor="start" x="226.5" y="-18" font-family="FreeSans" font-size="10.00">Interpreter::Runtime</text>
<text text-anchor="middle" x="275" y="-7" font-family="FreeSans" font-size="10.00">::push</text>
</a>
</g>
</g>
<!-- Node1&#45;&gt;Node10 -->
<g id="edge9" class="edge"><title>Node1&#45;&gt;Node10</title>
<path fill="none" stroke="midnightblue" d="M83.3273,-185.523C97.2681,-153.38 133.762,-79.1354 188,-40 194.295,-35.4581 201.405,-31.7369 208.773,-28.689"/>
<polygon fill="midnightblue" stroke="midnightblue" points="210.052,-31.9475 218.202,-25.1774 207.609,-25.3877 210.052,-31.9475"/>
</g>
</g>
</svg>
