<?xml version="1.0" encoding="UTF-8" standalone="no"?>
<!DOCTYPE svg PUBLIC "-//W3C//DTD SVG 1.1//EN"
 "http://www.w3.org/Graphics/SVG/1.1/DTD/svg11.dtd">
<!-- Generated by graphviz version 2.36.0 (20140111.2315)
 -->
<!-- Title: ESM::ESMReader::close Pages: 1 -->
<svg width="1542pt" height="878pt"
 viewBox="0.00 0.00 1542.00 878.00" xmlns="http://www.w3.org/2000/svg" xmlns:xlink="http://www.w3.org/1999/xlink">
<g id="graph0" class="graph" transform="scale(1 1) rotate(0) translate(4 874)">
<title>ESM::ESMReader::close</title>
<polygon fill="white" stroke="none" points="-4,4 -4,-874 1538,-874 1538,4 -4,4"/>
<!-- Node1 -->
<g id="node1" class="node"><title>Node1</title>
<polygon fill="#bfbfbf" stroke="black" points="0,-389.5 0,-408.5 128,-408.5 128,-389.5 0,-389.5"/>
<text text-anchor="middle" x="64" y="-396.5" font-family="FreeSans" font-size="10.00">ESM::ESMReader::close</text>
</g>
<!-- Node2 -->
<g id="node2" class="node"><title>Node2</title>
<g id="a_node2"><a xlink:href="classESM_1_1ESMReader.html#aec84cf1e1b4d63ed1b334fea4ad76966" target="_top" xlink:title="ESM::ESMReader::openRaw">
<polygon fill="white" stroke="black" points="164,-389.5 164,-408.5 310,-408.5 310,-389.5 164,-389.5"/>
<text text-anchor="middle" x="237" y="-396.5" font-family="FreeSans" font-size="10.00">ESM::ESMReader::openRaw</text>
</a>
</g>
</g>
<!-- Node1&#45;&gt;Node2 -->
<g id="edge1" class="edge"><title>Node1&#45;&gt;Node2</title>
<path fill="none" stroke="midnightblue" d="M138.379,-399C146.817,-399 155.417,-399 163.839,-399"/>
<polygon fill="midnightblue" stroke="midnightblue" points="138.188,-395.5 128.188,-399 138.188,-402.5 138.188,-395.5"/>
</g>
<!-- Node3 -->
<g id="node3" class="node"><title>Node3</title>
<g id="a_node3"><a xlink:href="esmtool_8cpp.html#ac99c5aa1e9babf153d159744c70347d1" target="_top" xlink:title="load">
<polygon fill="white" stroke="black" points="967.5,-405.5 967.5,-424.5 1004.5,-424.5 1004.5,-405.5 967.5,-405.5"/>
<text text-anchor="middle" x="986" y="-412.5" font-family="FreeSans" font-size="10.00">load</text>
</a>
</g>
</g>
<!-- Node2&#45;&gt;Node3 -->
<g id="edge2" class="edge"><title>Node2&#45;&gt;Node3</title>
<path fill="none" stroke="midnightblue" d="M269.318,-412.595C343.877,-444.128 538.502,-521.574 710,-548 775.889,-558.153 798.811,-574.464 860,-548 920.495,-521.836 965.205,-450.388 979.845,-424.514"/>
<polygon fill="midnightblue" stroke="midnightblue" points="270.586,-409.331 260.015,-408.634 267.844,-415.771 270.586,-409.331"/>
</g>
<!-- Node32 -->
<g id="node32" class="node"><title>Node32</title>
<g id="a_node32"><a xlink:href="classESM_1_1ESMReader.html#ace62de398c94b922144f2d694cb0e766" target="_top" xlink:title="ESM::ESMReader::restoreContext">
<polygon fill="white" stroke="black" points="346,-389.5 346,-408.5 522,-408.5 522,-389.5 346,-389.5"/>
<text text-anchor="middle" x="434" y="-396.5" font-family="FreeSans" font-size="10.00">ESM::ESMReader::restoreContext</text>
</a>
</g>
</g>
<!-- Node2&#45;&gt;Node32 -->
<g id="edge33" class="edge"><title>Node2&#45;&gt;Node32</title>
<path fill="none" stroke="midnightblue" d="M320.236,-399C328.659,-399 337.237,-399 345.712,-399"/>
<polygon fill="midnightblue" stroke="midnightblue" points="320.057,-395.5 310.057,-399 320.057,-402.5 320.057,-395.5"/>
</g>
<!-- Node42 -->
<g id="node42" class="node"><title>Node42</title>
<g id="a_node42"><a xlink:href="classESM_1_1ESMReader.html#a4ce912367d9c8e36ca0b34d9dd6a3a39" target="_top" xlink:title="ESM::ESMReader::open">
<polygon fill="white" stroke="black" points="721,-186.5 721,-205.5 849,-205.5 849,-186.5 721,-186.5"/>
<text text-anchor="middle" x="785" y="-193.5" font-family="FreeSans" font-size="10.00">ESM::ESMReader::open</text>
</a>
</g>
</g>
<!-- Node2&#45;&gt;Node42 -->
<g id="edge45" class="edge"><title>Node2&#45;&gt;Node42</title>
<path fill="none" stroke="midnightblue" d="M269.112,-385.361C343.98,-352.874 540.545,-269.565 710,-215 720.605,-211.585 732.218,-208.365 743.036,-205.581"/>
<polygon fill="midnightblue" stroke="midnightblue" points="267.551,-382.223 259.777,-389.422 270.343,-388.642 267.551,-382.223"/>
</g>
<!-- Node4 -->
<g id="node4" class="node"><title>Node4</title>
<g id="a_node4"><a xlink:href="esmtool_8cpp.html#a3c04138a5bfe5d72780bb7e82a18e627" target="_top" xlink:title="main">
<polygon fill="white" stroke="black" points="1407.5,-49.5 1407.5,-68.5 1448.5,-68.5 1448.5,-49.5 1407.5,-49.5"/>
<text text-anchor="middle" x="1428" y="-56.5" font-family="FreeSans" font-size="10.00">main</text>
</a>
</g>
</g>
<!-- Node3&#45;&gt;Node4 -->
<g id="edge3" class="edge"><title>Node3&#45;&gt;Node4</title>
<path fill="none" stroke="midnightblue" d="M1015,-413.754C1033.6,-411.774 1057.83,-406.882 1076,-395 1098.62,-380.211 1089.62,-361.15 1112,-346 1178.15,-301.22 1232.21,-360.047 1286,-301 1353.61,-226.787 1251.69,-149.659 1322,-78 1344.19,-55.3888 1383.58,-54.5073 1407.3,-56.4147"/>
<polygon fill="midnightblue" stroke="midnightblue" points="1014.47,-410.287 1004.8,-414.615 1015.06,-417.262 1014.47,-410.287"/>
</g>
<!-- Node5 -->
<g id="node5" class="node"><title>Node5</title>
<g id="a_node5"><a xlink:href="esmtool_8cpp.html#a0bab682aaafd448095576d6716e53d79" target="_top" xlink:title="clone">
<polygon fill="white" stroke="black" points="1178,-355.5 1178,-374.5 1220,-374.5 1220,-355.5 1178,-355.5"/>
<text text-anchor="middle" x="1199" y="-362.5" font-family="FreeSans" font-size="10.00">clone</text>
</a>
</g>
</g>
<!-- Node3&#45;&gt;Node5 -->
<g id="edge4" class="edge"><title>Node3&#45;&gt;Node5</title>
<path fill="none" stroke="midnightblue" d="M1014.99,-409.276C1032.59,-405.539 1055.72,-400.37 1076,-395 1092.17,-390.718 1095.82,-388.252 1112,-384 1134.33,-378.131 1160.24,-372.576 1177.73,-369.005"/>
<polygon fill="midnightblue" stroke="midnightblue" points="1013.9,-405.93 1004.83,-411.408 1015.33,-412.781 1013.9,-405.93"/>
</g>
<!-- Node20 -->
<g id="node20" class="node"><title>Node20</title>
<g id="a_node20"><a xlink:href="esmtool_8cpp.html#ab6c253faed5453720ba78696cfaf7a4c" target="_top" xlink:title="comp">
<polygon fill="white" stroke="black" points="1177,-272.5 1177,-291.5 1221,-291.5 1221,-272.5 1177,-272.5"/>
<text text-anchor="middle" x="1199" y="-279.5" font-family="FreeSans" font-size="10.00">comp</text>
</a>
</g>
</g>
<!-- Node3&#45;&gt;Node20 -->
<g id="edge20" class="edge"><title>Node3&#45;&gt;Node20</title>
<path fill="none" stroke="midnightblue" d="M1015.04,-415.16C1034.19,-413.851 1059.08,-409.185 1076,-395 1107.75,-368.379 1081.38,-336.918 1112,-309 1129.92,-292.657 1157.67,-286.207 1176.77,-283.66"/>
<polygon fill="midnightblue" stroke="midnightblue" points="1014.64,-411.673 1004.8,-415.585 1014.93,-418.667 1014.64,-411.673"/>
</g>
<!-- Node22 -->
<g id="node22" class="node"><title>Node22</title>
<g id="a_node22"><a xlink:href="classCSMWorld_1_1IdCollection.html#abcb3d75113348f77abf274af2429a186" target="_top" xlink:title="CSMWorld::IdCollection\l::load">
<polygon fill="white" stroke="black" points="1136.5,-223 1136.5,-253 1261.5,-253 1261.5,-223 1136.5,-223"/>
<text text-anchor="start" x="1144.5" y="-241" font-family="FreeSans" font-size="10.00">CSMWorld::IdCollection</text>
<text text-anchor="middle" x="1199" y="-230" font-family="FreeSans" font-size="10.00">::load</text>
</a>
</g>
</g>
<!-- Node3&#45;&gt;Node22 -->
<g id="edge23" class="edge"><title>Node3&#45;&gt;Node22</title>
<path fill="none" stroke="midnightblue" d="M1014.66,-415.873C1034.23,-414.976 1059.77,-410.511 1076,-395 1119.96,-352.984 1069.36,-306.355 1112,-263 1118.76,-256.127 1127.29,-251.117 1136.34,-247.47"/>
<polygon fill="midnightblue" stroke="midnightblue" points="1014.44,-412.376 1004.5,-416.052 1014.56,-419.375 1014.44,-412.376"/>
</g>
<!-- Node23 -->
<g id="node23" class="node"><title>Node23</title>
<g id="a_node23"><a xlink:href="classCSMWorld_1_1InfoCollection.html#ae99e0601708f478f6832cfb4c0cea2b7" target="_top" xlink:title="CSMWorld::InfoCollection\l::load">
<polygon fill="white" stroke="black" points="1132,-541 1132,-571 1266,-571 1266,-541 1132,-541"/>
<text text-anchor="start" x="1140" y="-559" font-family="FreeSans" font-size="10.00">CSMWorld::InfoCollection</text>
<text text-anchor="middle" x="1199" y="-548" font-family="FreeSans" font-size="10.00">::load</text>
</a>
</g>
</g>
<!-- Node3&#45;&gt;Node23 -->
<g id="edge24" class="edge"><title>Node3&#45;&gt;Node23</title>
<path fill="none" stroke="midnightblue" d="M1001.04,-432.407C1022.39,-457.749 1065.48,-504.644 1112,-531 1118.76,-534.832 1126.17,-538.121 1133.7,-540.933"/>
<polygon fill="midnightblue" stroke="midnightblue" points="1003.73,-430.171 994.66,-424.7 998.342,-434.635 1003.73,-430.171"/>
</g>
<!-- Node24 -->
<g id="node24" class="node"><title>Node24</title>
<g id="a_node24"><a xlink:href="classMWGui_1_1SaveGameDialog.html#ac7f6ba5be8eb08ec2cb94458ceaa565a" target="_top" xlink:title="MWGui::SaveGameDialog\l::setLoadOrSave">
<polygon fill="white" stroke="black" points="1130,-492 1130,-522 1268,-522 1268,-492 1130,-492"/>
<text text-anchor="start" x="1138" y="-510" font-family="FreeSans" font-size="10.00">MWGui::SaveGameDialog</text>
<text text-anchor="middle" x="1199" y="-499" font-family="FreeSans" font-size="10.00">::setLoadOrSave</text>
</a>
</g>
</g>
<!-- Node3&#45;&gt;Node24 -->
<g id="edge25" class="edge"><title>Node3&#45;&gt;Node24</title>
<path fill="none" stroke="midnightblue" d="M1010.93,-429.783C1035.57,-444.525 1075.41,-467.069 1112,-482 1120.93,-485.642 1130.57,-488.987 1140.07,-491.964"/>
<polygon fill="midnightblue" stroke="midnightblue" points="1012.64,-426.726 1002.28,-424.547 1009.02,-432.716 1012.64,-426.726"/>
</g>
<!-- Node26 -->
<g id="node26" class="node"><title>Node26</title>
<g id="a_node26"><a xlink:href="classMWState_1_1StateManager.html#a50bc82b32704d460a56dd7d16a91b846" target="_top" xlink:title="MWState::StateManager\l::saveGame">
<polygon fill="white" stroke="black" points="1132,-443 1132,-473 1266,-473 1266,-443 1132,-443"/>
<text text-anchor="start" x="1140" y="-461" font-family="FreeSans" font-size="10.00">MWState::StateManager</text>
<text text-anchor="middle" x="1199" y="-450" font-family="FreeSans" font-size="10.00">::saveGame</text>
</a>
</g>
</g>
<!-- Node3&#45;&gt;Node26 -->
<g id="edge27" class="edge"><title>Node3&#45;&gt;Node26</title>
<path fill="none" stroke="midnightblue" d="M1014.66,-420.638C1044.31,-426.68 1092.44,-436.489 1131.95,-444.54"/>
<polygon fill="midnightblue" stroke="midnightblue" points="1015.12,-417.16 1004.63,-418.592 1013.73,-424.019 1015.12,-417.16"/>
</g>
<!-- Node27 -->
<g id="node27" class="node"><title>Node27</title>
<g id="a_node27"><a xlink:href="classMWState_1_1StateManager.html#a709123862fc05e7a490d09ab20928f9c" target="_top" xlink:title="Load a saved game file belonging to the given character. ">
<polygon fill="white" stroke="black" points="1132,-149 1132,-179 1266,-179 1266,-149 1132,-149"/>
<text text-anchor="start" x="1140" y="-167" font-family="FreeSans" font-size="10.00">MWState::StateManager</text>
<text text-anchor="middle" x="1199" y="-156" font-family="FreeSans" font-size="10.00">::loadGame</text>
</a>
</g>
</g>
<!-- Node3&#45;&gt;Node27 -->
<g id="edge28" class="edge"><title>Node3&#45;&gt;Node27</title>
<path fill="none" stroke="midnightblue" d="M1015,-416.211C1034.73,-415.482 1060.33,-411.077 1076,-395 1133.55,-335.948 1063.82,-279.913 1112,-213 1122.84,-197.94 1139.85,-186.866 1155.88,-179.095"/>
<polygon fill="midnightblue" stroke="midnightblue" points="1014.71,-412.713 1004.74,-416.289 1014.76,-419.713 1014.71,-412.713"/>
</g>
<!-- Node28 -->
<g id="node28" class="node"><title>Node28</title>
<g id="a_node28"><a xlink:href="classMWWorld_1_1Scene.html#a18f42f1ea372caa82458e8c331937c27" target="_top" xlink:title="MWWorld::Scene::changeCellGrid">
<polygon fill="white" stroke="black" points="1112.5,-590.5 1112.5,-609.5 1285.5,-609.5 1285.5,-590.5 1112.5,-590.5"/>
<text text-anchor="middle" x="1199" y="-597.5" font-family="FreeSans" font-size="10.00">MWWorld::Scene::changeCellGrid</text>
</a>
</g>
</g>
<!-- Node3&#45;&gt;Node28 -->
<g id="edge29" class="edge"><title>Node3&#45;&gt;Node28</title>
<path fill="none" stroke="midnightblue" d="M995.666,-433.717C1012.73,-468.378 1054.1,-542.439 1112,-580 1118.69,-584.338 1126.21,-587.739 1133.94,-590.405"/>
<polygon fill="midnightblue" stroke="midnightblue" points="998.811,-432.181 991.332,-424.677 992.499,-435.208 998.811,-432.181"/>
</g>
<!-- Node30 -->
<g id="node30" class="node"><title>Node30</title>
<g id="a_node30"><a xlink:href="classMWWorld_1_1Scene.html#a4fe84b7d74d5d597e79e14d2a57b5496" target="_top" xlink:title="MWWorld::Scene::changeTo\lInteriorCell">
<polygon fill="white" stroke="black" points="1126,-394 1126,-424 1272,-424 1272,-394 1126,-394"/>
<text text-anchor="start" x="1134" y="-412" font-family="FreeSans" font-size="10.00">MWWorld::Scene::changeTo</text>
<text text-anchor="middle" x="1199" y="-401" font-family="FreeSans" font-size="10.00">InteriorCell</text>
</a>
</g>
</g>
<!-- Node3&#45;&gt;Node30 -->
<g id="edge31" class="edge"><title>Node3&#45;&gt;Node30</title>
<path fill="none" stroke="midnightblue" d="M1014.9,-414.207C1043.02,-413.407 1087.58,-412.14 1125.71,-411.056"/>
<polygon fill="midnightblue" stroke="midnightblue" points="1014.52,-410.716 1004.63,-414.499 1014.72,-417.713 1014.52,-410.716"/>
</g>
<!-- Node5&#45;&gt;Node4 -->
<g id="edge5" class="edge"><title>Node5&#45;&gt;Node4</title>
<path fill="none" stroke="midnightblue" d="M1230,-363.094C1248.93,-360.236 1272.31,-353.354 1286,-337 1360.61,-247.893 1241.52,-161.842 1322,-78 1343.94,-55.1468 1383.42,-54.3466 1407.22,-56.3346"/>
<polygon fill="midnightblue" stroke="midnightblue" points="1229.54,-359.624 1220.03,-364.302 1230.38,-366.573 1229.54,-359.624"/>
</g>
<!-- Node6 -->
<g id="node6" class="node"><title>Node6</title>
<g id="a_node6"><a xlink:href="namespaceMWRender.html#a11217742ce5ec79f658280f30dd141fd" target="_top" xlink:title="MWRender::overrideTexture">
<polygon fill="white" stroke="red" points="1355,-273.5 1355,-292.5 1501,-292.5 1501,-273.5 1355,-273.5"/>
<text text-anchor="middle" x="1428" y="-280.5" font-family="FreeSans" font-size="10.00">MWRender::overrideTexture</text>
</a>
</g>
</g>
<!-- Node5&#45;&gt;Node6 -->
<g id="edge6" class="edge"><title>Node5&#45;&gt;Node6</title>
<path fill="none" stroke="midnightblue" d="M1230.28,-358.741C1247.45,-354.334 1268.86,-347.348 1286,-337 1305.11,-325.469 1302.16,-312.209 1322,-302 1332.13,-296.788 1343.45,-292.983 1354.81,-290.211"/>
<polygon fill="midnightblue" stroke="midnightblue" points="1229.13,-355.419 1220.22,-361.158 1230.76,-362.226 1229.13,-355.419"/>
</g>
<!-- Node7 -->
<g id="node7" class="node"><title>Node7</title>
<g id="a_node7"><a xlink:href="classMWRender_1_1Animation.html#aff362c03830efca83a352ab456362110" target="_top" xlink:title="MWRender::Animation\l::addAnimSource">
<polygon fill="white" stroke="red" points="1367.5,-224 1367.5,-254 1488.5,-254 1488.5,-224 1367.5,-224"/>
<text text-anchor="start" x="1375.5" y="-242" font-family="FreeSans" font-size="10.00">MWRender::Animation</text>
<text text-anchor="middle" x="1428" y="-231" font-family="FreeSans" font-size="10.00">::addAnimSource</text>
</a>
</g>
</g>
<!-- Node5&#45;&gt;Node7 -->
<g id="edge7" class="edge"><title>Node5&#45;&gt;Node7</title>
<path fill="none" stroke="midnightblue" d="M1230.27,-361.144C1248.21,-357.508 1270.42,-350.49 1286,-337 1313.35,-313.318 1293.72,-286.555 1322,-264 1334.89,-253.719 1351.33,-247.552 1367.35,-243.885"/>
<polygon fill="midnightblue" stroke="midnightblue" points="1229.51,-357.723 1220.28,-362.917 1230.73,-364.615 1229.51,-357.723"/>
</g>
<!-- Node8 -->
<g id="node8" class="node"><title>Node8</title>
<g id="a_node8"><a xlink:href="classMWRender_1_1Animation.html#aee82ebb9884fbd0f8b563d8e0c2465fb" target="_top" xlink:title="MWRender::Animation\l::addGlow">
<polygon fill="white" stroke="red" points="1367.5,-175 1367.5,-205 1488.5,-205 1488.5,-175 1367.5,-175"/>
<text text-anchor="start" x="1375.5" y="-193" font-family="FreeSans" font-size="10.00">MWRender::Animation</text>
<text text-anchor="middle" x="1428" y="-182" font-family="FreeSans" font-size="10.00">::addGlow</text>
</a>
</g>
</g>
<!-- Node5&#45;&gt;Node8 -->
<g id="edge8" class="edge"><title>Node5&#45;&gt;Node8</title>
<path fill="none" stroke="midnightblue" d="M1230.19,-362.238C1248.63,-359.015 1271.4,-352.047 1286,-337 1325.67,-296.123 1280.53,-253.05 1322,-214 1334.25,-202.462 1350.87,-196.071 1367.26,-192.633"/>
<polygon fill="midnightblue" stroke="midnightblue" points="1229.58,-358.789 1220.2,-363.703 1230.6,-365.715 1229.58,-358.789"/>
</g>
<!-- Node9 -->
<g id="node9" class="node"><title>Node9</title>
<g id="a_node9"><a xlink:href="classMWRender_1_1AlphaFader.html#ac629331ab3f0c9eca7f2d483315f13df" target="_top" xlink:title="MWRender::AlphaFader\l::setDefaults">
<polygon fill="white" stroke="black" points="1365.5,-126 1365.5,-156 1490.5,-156 1490.5,-126 1365.5,-126"/>
<text text-anchor="start" x="1373.5" y="-144" font-family="FreeSans" font-size="10.00">MWRender::AlphaFader</text>
<text text-anchor="middle" x="1428" y="-133" font-family="FreeSans" font-size="10.00">::setDefaults</text>
</a>
</g>
</g>
<!-- Node5&#45;&gt;Node9 -->
<g id="edge9" class="edge"><title>Node5&#45;&gt;Node9</title>
<path fill="none" stroke="midnightblue" d="M1230.25,-362.681C1248.92,-359.639 1271.91,-352.706 1286,-337 1338.15,-278.863 1267.28,-220.731 1322,-165 1333.46,-153.325 1349.36,-146.827 1365.31,-143.331"/>
<polygon fill="midnightblue" stroke="midnightblue" points="1229.58,-359.238 1220.13,-364.03 1230.51,-366.177 1229.58,-359.238"/>
</g>
<!-- Node10 -->
<g id="node10" class="node"><title>Node10</title>
<g id="a_node10"><a xlink:href="classMWRender_1_1Water.html#a54a42da8c7313f5496dd442557339e8a" target="_top" xlink:title="MWRender::Water::Water">
<polygon fill="white" stroke="black" points="1362,-87.5 1362,-106.5 1494,-106.5 1494,-87.5 1362,-87.5"/>
<text text-anchor="middle" x="1428" y="-94.5" font-family="FreeSans" font-size="10.00">MWRender::Water::Water</text>
</a>
</g>
</g>
<!-- Node5&#45;&gt;Node10 -->
<g id="edge10" class="edge"><title>Node5&#45;&gt;Node10</title>
<path fill="none" stroke="midnightblue" d="M1230.49,-362.892C1249.26,-359.935 1272.27,-353.018 1286,-337 1350.77,-261.45 1252.25,-186.983 1322,-116 1332.58,-105.231 1347.07,-99.3929 1361.9,-96.4379"/>
<polygon fill="midnightblue" stroke="midnightblue" points="1229.79,-359.453 1220.31,-364.187 1230.67,-366.397 1229.79,-359.453"/>
</g>
<!-- Node11 -->
<g id="node11" class="node"><title>Node11</title>
<g id="a_node11"><a xlink:href="classNifOsg_1_1AlphaController.html#aab26ce8fcaf3cba2ba9613a3c1282100" target="_top" xlink:title="NifOsg::AlphaController\l::setDefaults">
<polygon fill="white" stroke="black" points="1364,-693 1364,-723 1492,-723 1492,-693 1364,-693"/>
<text text-anchor="start" x="1372" y="-711" font-family="FreeSans" font-size="10.00">NifOsg::AlphaController</text>
<text text-anchor="middle" x="1428" y="-700" font-family="FreeSans" font-size="10.00">::setDefaults</text>
</a>
</g>
</g>
<!-- Node5&#45;&gt;Node11 -->
<g id="edge11" class="edge"><title>Node5&#45;&gt;Node11</title>
<path fill="none" stroke="midnightblue" d="M1230.44,-363.484C1249.19,-364.303 1272.2,-368.78 1286,-384 1375.92,-483.15 1232.9,-583.12 1322,-683 1332.73,-695.025 1348.1,-701.793 1363.78,-705.477"/>
<polygon fill="midnightblue" stroke="midnightblue" points="1230.32,-359.983 1220.28,-363.366 1230.24,-366.982 1230.32,-359.983"/>
</g>
<!-- Node12 -->
<g id="node12" class="node"><title>Node12</title>
<g id="a_node12"><a xlink:href="classNifOsg_1_1LoaderImpl.html#aada89a0706b45db0af7ceab21c8bda4e" target="_top" xlink:title="NifOsg::LoaderImpl\l::handleTriShape">
<polygon fill="white" stroke="red" points="1374.5,-644 1374.5,-674 1481.5,-674 1481.5,-644 1374.5,-644"/>
<text text-anchor="start" x="1382.5" y="-662" font-family="FreeSans" font-size="10.00">NifOsg::LoaderImpl</text>
<text text-anchor="middle" x="1428" y="-651" font-family="FreeSans" font-size="10.00">::handleTriShape</text>
</a>
</g>
</g>
<!-- Node5&#45;&gt;Node12 -->
<g id="edge12" class="edge"><title>Node5&#45;&gt;Node12</title>
<path fill="none" stroke="midnightblue" d="M1230.32,-363.593C1249.02,-364.456 1272.02,-368.941 1286,-384 1362.37,-466.276 1246.3,-551.104 1322,-634 1335.27,-648.529 1355.32,-655.346 1374.35,-658.332"/>
<polygon fill="midnightblue" stroke="midnightblue" points="1230.24,-360.092 1220.19,-363.447 1230.14,-367.091 1230.24,-360.092"/>
</g>
<!-- Node13 -->
<g id="node13" class="node"><title>Node13</title>
<g id="a_node13"><a xlink:href="classNifOsg_1_1LoaderImpl.html#a2aebf4d6b3d881f8a5ec171b33faae96" target="_top" xlink:title="NifOsg::LoaderImpl\l::handleSkinnedTriShape">
<polygon fill="white" stroke="red" points="1361,-595 1361,-625 1495,-625 1495,-595 1361,-595"/>
<text text-anchor="start" x="1369" y="-613" font-family="FreeSans" font-size="10.00">NifOsg::LoaderImpl</text>
<text text-anchor="middle" x="1428" y="-602" font-family="FreeSans" font-size="10.00">::handleSkinnedTriShape</text>
</a>
</g>
</g>
<!-- Node5&#45;&gt;Node13 -->
<g id="edge13" class="edge"><title>Node5&#45;&gt;Node13</title>
<path fill="none" stroke="midnightblue" d="M1230.15,-363.757C1248.78,-364.685 1271.77,-369.182 1286,-384 1348.87,-449.451 1259.67,-519.039 1322,-585 1332.3,-595.896 1346.41,-602.423 1360.95,-606.248"/>
<polygon fill="midnightblue" stroke="midnightblue" points="1230.12,-360.256 1220.06,-363.568 1229.99,-367.255 1230.12,-360.256"/>
</g>
<!-- Node14 -->
<g id="node14" class="node"><title>Node14</title>
<g id="a_node14"><a xlink:href="classResource_1_1SceneManager.html#a0b3d33cb5ff1935dcb2ef16b649878e2" target="_top" xlink:title="Resource::SceneManager\l::createInstance">
<polygon fill="white" stroke="red" points="1359,-546 1359,-576 1497,-576 1497,-546 1359,-546"/>
<text text-anchor="start" x="1367" y="-564" font-family="FreeSans" font-size="10.00">Resource::SceneManager</text>
<text text-anchor="middle" x="1428" y="-553" font-family="FreeSans" font-size="10.00">::createInstance</text>
</a>
</g>
</g>
<!-- Node5&#45;&gt;Node14 -->
<g id="edge14" class="edge"><title>Node5&#45;&gt;Node14</title>
<path fill="none" stroke="midnightblue" d="M1230.23,-364.047C1248.68,-365.122 1271.45,-369.672 1286,-384 1335.46,-432.718 1272.94,-486.88 1322,-536 1332,-546.01 1345.23,-552.29 1358.92,-556.17"/>
<polygon fill="midnightblue" stroke="midnightblue" points="1230.32,-360.549 1220.22,-363.768 1230.12,-367.546 1230.32,-360.549"/>
</g>
<!-- Node15 -->
<g id="node15" class="node"><title>Node15</title>
<g id="a_node15"><a xlink:href="classSceneUtil_1_1CopyOp.html#ad79ac1535205dc4cccedb31a9e9feec1" target="_top" xlink:title="SceneUtil::CopyOp::\loperator()">
<polygon fill="white" stroke="black" points="1372,-497 1372,-527 1484,-527 1484,-497 1372,-497"/>
<text text-anchor="start" x="1380" y="-515" font-family="FreeSans" font-size="10.00">SceneUtil::CopyOp::</text>
<text text-anchor="middle" x="1428" y="-504" font-family="FreeSans" font-size="10.00">operator()</text>
</a>
</g>
</g>
<!-- Node5&#45;&gt;Node15 -->
<g id="edge15" class="edge"><title>Node5&#45;&gt;Node15</title>
<path fill="none" stroke="midnightblue" d="M1230.33,-364.621C1248.49,-365.962 1270.9,-370.593 1286,-384 1322.27,-416.194 1286,-454.512 1322,-487 1335.63,-499.303 1354.22,-505.85 1371.96,-509.245"/>
<polygon fill="midnightblue" stroke="midnightblue" points="1230.36,-361.119 1220.22,-364.17 1230.05,-368.112 1230.36,-361.119"/>
</g>
<!-- Node16 -->
<g id="node16" class="node"><title>Node16</title>
<g id="a_node16"><a xlink:href="classSceneUtil_1_1LightSource.html#a5996a83ebe673a5d390b24f9874ebbc5" target="_top" xlink:title="SceneUtil::LightSource\l::setLight">
<polygon fill="white" stroke="red" points="1365.5,-448 1365.5,-478 1490.5,-478 1490.5,-448 1365.5,-448"/>
<text text-anchor="start" x="1373.5" y="-466" font-family="FreeSans" font-size="10.00">SceneUtil::LightSource</text>
<text text-anchor="middle" x="1428" y="-455" font-family="FreeSans" font-size="10.00">::setLight</text>
</a>
</g>
</g>
<!-- Node5&#45;&gt;Node16 -->
<g id="edge16" class="edge"><title>Node5&#45;&gt;Node16</title>
<path fill="none" stroke="midnightblue" d="M1230.4,-366.156C1247.95,-368.109 1269.7,-372.844 1286,-384 1309.8,-400.29 1298.33,-421.517 1322,-438 1334.76,-446.888 1350.29,-452.64 1365.44,-456.356"/>
<polygon fill="midnightblue" stroke="midnightblue" points="1230.37,-362.64 1220.1,-365.266 1229.77,-369.614 1230.37,-362.64"/>
</g>
<!-- Node17 -->
<g id="node17" class="node"><title>Node17</title>
<g id="a_node17"><a xlink:href="classSceneUtil_1_1RigGeometry.html#ad6eb71ad7d1fae89e042d41dd8a67fc4" target="_top" xlink:title="SceneUtil::RigGeometry\l::setSourceGeometry">
<polygon fill="white" stroke="red" points="1362.5,-399 1362.5,-429 1493.5,-429 1493.5,-399 1362.5,-399"/>
<text text-anchor="start" x="1370.5" y="-417" font-family="FreeSans" font-size="10.00">SceneUtil::RigGeometry</text>
<text text-anchor="middle" x="1428" y="-406" font-family="FreeSans" font-size="10.00">::setSourceGeometry</text>
</a>
</g>
</g>
<!-- Node5&#45;&gt;Node17 -->
<g id="edge17" class="edge"><title>Node5&#45;&gt;Node17</title>
<path fill="none" stroke="midnightblue" d="M1230.24,-371.527C1263.79,-378.77 1318.92,-390.67 1362.3,-400.034"/>
<polygon fill="midnightblue" stroke="midnightblue" points="1230.66,-368.037 1220.14,-369.348 1229.18,-374.88 1230.66,-368.037"/>
</g>
<!-- Node18 -->
<g id="node18" class="node"><title>Node18</title>
<g id="a_node18"><a xlink:href="classSceneUtil_1_1CompositeStateSetUpdater.html#a04f60461843a92fe612da5def352c804" target="_top" xlink:title="SceneUtil::CompositeState\lSetUpdater::CompositeStateSetUpdater">
<polygon fill="white" stroke="black" points="1322,-350 1322,-380 1534,-380 1534,-350 1322,-350"/>
<text text-anchor="start" x="1330" y="-368" font-family="FreeSans" font-size="10.00">SceneUtil::CompositeState</text>
<text text-anchor="middle" x="1428" y="-357" font-family="FreeSans" font-size="10.00">SetUpdater::CompositeStateSetUpdater</text>
</a>
</g>
</g>
<!-- Node5&#45;&gt;Node18 -->
<g id="edge18" class="edge"><title>Node5&#45;&gt;Node18</title>
<path fill="none" stroke="midnightblue" d="M1230.24,-365C1253.95,-365 1288.44,-365 1321.95,-365"/>
<polygon fill="midnightblue" stroke="midnightblue" points="1230.14,-361.5 1220.14,-365 1230.14,-368.5 1230.14,-361.5"/>
</g>
<!-- Node19 -->
<g id="node19" class="node"><title>Node19</title>
<g id="a_node19"><a xlink:href="namespaceShader.html#aff457f7098a5bd9dddbad6b287bbafb0" target="_top" xlink:title="Shader::getWritableStateSet">
<polygon fill="white" stroke="red" points="1351.5,-311.5 1351.5,-330.5 1504.5,-330.5 1504.5,-311.5 1351.5,-311.5"/>
<text text-anchor="middle" x="1428" y="-318.5" font-family="FreeSans" font-size="10.00">Shader::getWritableStateSet</text>
</a>
</g>
</g>
<!-- Node5&#45;&gt;Node19 -->
<g id="edge19" class="edge"><title>Node5&#45;&gt;Node19</title>
<path fill="none" stroke="midnightblue" d="M1230.11,-358.629C1254.77,-353.457 1290.61,-346.056 1322,-340 1338.55,-336.807 1356.61,-333.483 1373,-330.525"/>
<polygon fill="midnightblue" stroke="midnightblue" points="1229.33,-355.216 1220.26,-360.698 1230.77,-362.066 1229.33,-355.216"/>
</g>
<!-- Node20&#45;&gt;Node4 -->
<g id="edge21" class="edge"><title>Node20&#45;&gt;Node4</title>
<path fill="none" stroke="midnightblue" d="M1231.15,-282.711C1249.57,-281.41 1271.96,-276.542 1286,-262 1343.87,-202.048 1262.66,-136.502 1322,-78 1344.56,-55.7598 1383.83,-54.7536 1407.42,-56.5374"/>
<polygon fill="midnightblue" stroke="midnightblue" points="1230.99,-279.215 1221.14,-283.109 1231.27,-286.209 1230.99,-279.215"/>
</g>
<!-- Node21 -->
<g id="node21" class="node"><title>Node21</title>
<g id="a_node21"><a xlink:href="classResource_1_1BulletShape.html#aab2457fb8893051ac478eca0f66253ba" target="_top" xlink:title="Resource::BulletShape\l::duplicateCollisionShape">
<polygon fill="white" stroke="red" points="1360,-0 1360,-30 1496,-30 1496,-0 1360,-0"/>
<text text-anchor="start" x="1368" y="-18" font-family="FreeSans" font-size="10.00">Resource::BulletShape</text>
<text text-anchor="middle" x="1428" y="-7" font-family="FreeSans" font-size="10.00">::duplicateCollisionShape</text>
</a>
</g>
</g>
<!-- Node20&#45;&gt;Node21 -->
<g id="edge22" class="edge"><title>Node20&#45;&gt;Node21</title>
<path fill="none" stroke="midnightblue" d="M1231.32,-282.87C1249.8,-281.629 1272.2,-276.768 1286,-262 1354.25,-188.968 1253.95,-113.211 1322,-40 1331.95,-29.2946 1345.59,-22.7919 1359.74,-18.9248"/>
<polygon fill="midnightblue" stroke="midnightblue" points="1231.13,-279.375 1221.26,-283.229 1231.38,-286.37 1231.13,-279.375"/>
</g>
<!-- Node25 -->
<g id="node25" class="node"><title>Node25</title>
<g id="a_node25"><a xlink:href="classMWGui_1_1MainMenu.html#a45aaa45f93dd684f914565f4823469b6" target="_top" xlink:title="MWGui::MainMenu::onButton\lClicked">
<polygon fill="white" stroke="red" points="1351,-791 1351,-821 1505,-821 1505,-791 1351,-791"/>
<text text-anchor="start" x="1359" y="-809" font-family="FreeSans" font-size="10.00">MWGui::MainMenu::onButton</text>
<text text-anchor="middle" x="1428" y="-798" font-family="FreeSans" font-size="10.00">Clicked</text>
</a>
</g>
</g>
<!-- Node24&#45;&gt;Node25 -->
<g id="edge26" class="edge"><title>Node24&#45;&gt;Node25</title>
<path fill="none" stroke="midnightblue" d="M1276.98,-522.908C1280.28,-525.261 1283.31,-527.943 1286,-531 1360.09,-615.334 1246.3,-698.104 1322,-781 1329.83,-789.579 1340.03,-795.469 1350.99,-799.47"/>
<polygon fill="midnightblue" stroke="midnightblue" points="1278.71,-519.864 1268.34,-517.715 1275.11,-525.865 1278.71,-519.864"/>
</g>
<!-- Node29 -->
<g id="node29" class="node"><title>Node29</title>
<g id="a_node29"><a xlink:href="classMWWorld_1_1Scene.html#aa839931bb3be7256993237b5b5b886ce" target="_top" xlink:title="MWWorld::Scene::changeTo\lExteriorCell">
<polygon fill="white" stroke="red" points="1355,-840 1355,-870 1501,-870 1501,-840 1355,-840"/>
<text text-anchor="start" x="1363" y="-858" font-family="FreeSans" font-size="10.00">MWWorld::Scene::changeTo</text>
<text text-anchor="middle" x="1428" y="-847" font-family="FreeSans" font-size="10.00">ExteriorCell</text>
</a>
</g>
</g>
<!-- Node28&#45;&gt;Node29 -->
<g id="edge30" class="edge"><title>Node28&#45;&gt;Node29</title>
<path fill="none" stroke="midnightblue" d="M1204.53,-619.61C1215.92,-664.36 1250.15,-774.419 1322,-830 1331.63,-837.453 1343.14,-842.732 1354.96,-846.462"/>
<polygon fill="midnightblue" stroke="midnightblue" points="1207.88,-618.599 1202.11,-609.713 1201.08,-620.258 1207.88,-618.599"/>
</g>
<!-- Node31 -->
<g id="node31" class="node"><title>Node31</title>
<g id="a_node31"><a xlink:href="classMWWorld_1_1World.html#a60987e10717123b8af23a4118907cb78" target="_top" xlink:title="MWWorld::World::changeTo\lInteriorCell">
<polygon fill="white" stroke="red" points="1357.5,-742 1357.5,-772 1498.5,-772 1498.5,-742 1357.5,-742"/>
<text text-anchor="start" x="1365.5" y="-760" font-family="FreeSans" font-size="10.00">MWWorld::World::changeTo</text>
<text text-anchor="middle" x="1428" y="-749" font-family="FreeSans" font-size="10.00">InteriorCell</text>
</a>
</g>
</g>
<!-- Node30&#45;&gt;Node31 -->
<g id="edge32" class="edge"><title>Node30&#45;&gt;Node31</title>
<path fill="none" stroke="midnightblue" d="M1280.4,-427.449C1282.4,-429.147 1284.28,-430.993 1286,-433 1373.17,-534.572 1232.9,-632.12 1322,-732 1331.23,-742.348 1343.9,-748.802 1357.25,-752.749"/>
<polygon fill="midnightblue" stroke="midnightblue" points="1282.32,-424.519 1272.13,-421.61 1278.28,-430.237 1282.32,-424.519"/>
</g>
<!-- Node33 -->
<g id="node33" class="node"><title>Node33</title>
<g id="a_node33"><a xlink:href="structESM_1_1Cell.html#af812968bd998cb0b96f7940171b77609" target="_top" xlink:title="ESM::Cell::restore">
<polygon fill="white" stroke="black" points="565.5,-450.5 565.5,-469.5 666.5,-469.5 666.5,-450.5 565.5,-450.5"/>
<text text-anchor="middle" x="616" y="-457.5" font-family="FreeSans" font-size="10.00">ESM::Cell::restore</text>
</a>
</g>
</g>
<!-- Node32&#45;&gt;Node33 -->
<g id="edge34" class="edge"><title>Node32&#45;&gt;Node33</title>
<path fill="none" stroke="midnightblue" d="M472.724,-411.784C506.755,-423.317 556.048,-440.022 586.776,-450.435"/>
<polygon fill="midnightblue" stroke="midnightblue" points="473.719,-408.426 463.125,-408.531 471.473,-415.056 473.719,-408.426"/>
</g>
<!-- Node37 -->
<g id="node37" class="node"><title>Node37</title>
<g id="a_node37"><a xlink:href="structESM_1_1Land.html#a9ca0eace2254195fc4a2128bb682ce47" target="_top" xlink:title="ESM::Land::loadData">
<polygon fill="white" stroke="red" points="558,-328.5 558,-347.5 674,-347.5 674,-328.5 558,-328.5"/>
<text text-anchor="middle" x="616" y="-335.5" font-family="FreeSans" font-size="10.00">ESM::Land::loadData</text>
</a>
</g>
</g>
<!-- Node32&#45;&gt;Node37 -->
<g id="edge40" class="edge"><title>Node32&#45;&gt;Node37</title>
<path fill="none" stroke="midnightblue" d="M472.724,-386.216C506.755,-374.683 556.048,-357.978 586.776,-347.565"/>
<polygon fill="midnightblue" stroke="midnightblue" points="471.473,-382.944 463.125,-389.469 473.719,-389.574 471.473,-382.944"/>
</g>
<!-- Node34 -->
<g id="node34" class="node"><title>Node34</title>
<g id="a_node34"><a xlink:href="esmtool_8cpp.html#ac0c3c7eeabfce7868110ff99f7d5c25a" target="_top" xlink:title="loadCell">
<polygon fill="white" stroke="black" points="758,-519.5 758,-538.5 812,-538.5 812,-519.5 758,-519.5"/>
<text text-anchor="middle" x="785" y="-526.5" font-family="FreeSans" font-size="10.00">loadCell</text>
</a>
</g>
</g>
<!-- Node33&#45;&gt;Node34 -->
<g id="edge35" class="edge"><title>Node33&#45;&gt;Node34</title>
<path fill="none" stroke="midnightblue" d="M641.471,-474.81C659.828,-485.44 685.845,-499.508 710,-509 725.483,-515.084 743.488,-519.995 757.862,-523.428"/>
<polygon fill="midnightblue" stroke="midnightblue" points="643.015,-471.658 632.621,-469.607 639.467,-477.693 643.015,-471.658"/>
</g>
<!-- Node35 -->
<g id="node35" class="node"><title>Node35</title>
<g id="a_node35"><a xlink:href="classMWWorld_1_1CellStore.html#a90e7ee8c3614f235b4d7d6d15830d2f0" target="_top" xlink:title="Run through references and store IDs. ">
<polygon fill="white" stroke="red" points="731,-470 731,-500 839,-500 839,-470 731,-470"/>
<text text-anchor="start" x="739" y="-488" font-family="FreeSans" font-size="10.00">MWWorld::CellStore</text>
<text text-anchor="middle" x="785" y="-477" font-family="FreeSans" font-size="10.00">::listRefs</text>
</a>
</g>
</g>
<!-- Node33&#45;&gt;Node35 -->
<g id="edge38" class="edge"><title>Node33&#45;&gt;Node35</title>
<path fill="none" stroke="midnightblue" d="M676.821,-468.955C694.436,-471.592 713.584,-474.459 730.757,-477.029"/>
<polygon fill="midnightblue" stroke="midnightblue" points="677.061,-465.452 666.653,-467.433 676.025,-472.375 677.061,-465.452"/>
</g>
<!-- Node36 -->
<g id="node36" class="node"><title>Node36</title>
<g id="a_node36"><a xlink:href="classMWWorld_1_1CellStore.html#a3a1884a54f131cda455d08f42445e209" target="_top" xlink:title="MWWorld::CellStore\l::loadRefs">
<polygon fill="white" stroke="red" points="731,-421 731,-451 839,-451 839,-421 731,-421"/>
<text text-anchor="start" x="739" y="-439" font-family="FreeSans" font-size="10.00">MWWorld::CellStore</text>
<text text-anchor="middle" x="785" y="-428" font-family="FreeSans" font-size="10.00">::loadRefs</text>
</a>
</g>
</g>
<!-- Node33&#45;&gt;Node36 -->
<g id="edge39" class="edge"><title>Node33&#45;&gt;Node36</title>
<path fill="none" stroke="midnightblue" d="M676.821,-451.403C694.436,-448.871 713.584,-446.12 730.757,-443.652"/>
<polygon fill="midnightblue" stroke="midnightblue" points="676.054,-447.977 666.653,-452.864 677.05,-454.906 676.054,-447.977"/>
</g>
<!-- Node34&#45;&gt;Node3 -->
<g id="edge36" class="edge"><title>Node34&#45;&gt;Node3</title>
<path fill="none" stroke="midnightblue" d="M822.213,-522.131C834.569,-519.035 848.229,-514.75 860,-509 907.576,-485.761 955.2,-443.385 975.194,-424.51"/>
<polygon fill="midnightblue" stroke="midnightblue" points="821.157,-518.783 812.211,-524.459 822.744,-525.601 821.157,-518.783"/>
</g>
<!-- Node34&#45;&gt;Node28 -->
<g id="edge37" class="edge"><title>Node34&#45;&gt;Node28</title>
<path fill="none" stroke="midnightblue" d="M822.06,-535.214C894.252,-547.655 1056.95,-575.692 1142.7,-590.471"/>
<polygon fill="midnightblue" stroke="midnightblue" points="822.534,-531.744 812.085,-533.495 821.345,-538.643 822.534,-531.744"/>
</g>
<!-- Node38 -->
<g id="node38" class="node"><title>Node38</title>
<g id="a_node38"><a xlink:href="classCSMTools_1_1ListLandTexturesMergeStage.html#abb7a3e67e06ea9d6ea9ffeb98712e688" target="_top" xlink:title="Messages resulting from this stage will be appended to messages. ">
<polygon fill="white" stroke="black" points="711.5,-225 711.5,-255 858.5,-255 858.5,-225 711.5,-225"/>
<text text-anchor="start" x="719.5" y="-243" font-family="FreeSans" font-size="10.00">CSMTools::ListLandTextures</text>
<text text-anchor="middle" x="785" y="-232" font-family="FreeSans" font-size="10.00">MergeStage::perform</text>
</a>
</g>
</g>
<!-- Node37&#45;&gt;Node38 -->
<g id="edge41" class="edge"><title>Node37&#45;&gt;Node38</title>
<path fill="none" stroke="midnightblue" d="M657.491,-324.258C663.334,-321.357 669.04,-317.951 674,-314 695.418,-296.939 687.877,-280.137 710,-264 714.692,-260.578 719.896,-257.628 725.307,-255.088"/>
<polygon fill="midnightblue" stroke="midnightblue" points="655.963,-321.108 648.284,-328.408 658.839,-327.49 655.963,-321.108"/>
</g>
<!-- Node39 -->
<g id="node39" class="node"><title>Node39</title>
<g id="a_node39"><a xlink:href="classCSMTools_1_1MergeLandStage.html#a8b0859e32247a6a065b6b4ade62dbd92" target="_top" xlink:title="Messages resulting from this stage will be appended to messages. ">
<polygon fill="white" stroke="black" points="710.5,-372 710.5,-402 859.5,-402 859.5,-372 710.5,-372"/>
<text text-anchor="start" x="718.5" y="-390" font-family="FreeSans" font-size="10.00">CSMTools::MergeLandStage</text>
<text text-anchor="middle" x="785" y="-379" font-family="FreeSans" font-size="10.00">::perform</text>
</a>
</g>
</g>
<!-- Node37&#45;&gt;Node39 -->
<g id="edge42" class="edge"><title>Node37&#45;&gt;Node39</title>
<path fill="none" stroke="midnightblue" d="M659.446,-350.454C681.752,-356.999 709.263,-365.071 732.752,-371.963"/>
<polygon fill="midnightblue" stroke="midnightblue" points="660.177,-347.021 649.596,-347.564 658.206,-353.738 660.177,-347.021"/>
</g>
<!-- Node40 -->
<g id="node40" class="node"><title>Node40</title>
<g id="a_node40"><a xlink:href="classCSVRender_1_1TerrainStorage.html#ab35fd7da5d35ffcdc29e7e9d4363f5f3" target="_top" xlink:title="CSVRender::TerrainStorage\l::getLand">
<polygon fill="white" stroke="black" points="712,-323 712,-353 858,-353 858,-323 712,-323"/>
<text text-anchor="start" x="720" y="-341" font-family="FreeSans" font-size="10.00">CSVRender::TerrainStorage</text>
<text text-anchor="middle" x="785" y="-330" font-family="FreeSans" font-size="10.00">::getLand</text>
</a>
</g>
</g>
<!-- Node37&#45;&gt;Node40 -->
<g id="edge43" class="edge"><title>Node37&#45;&gt;Node40</title>
<path fill="none" stroke="midnightblue" d="M684.168,-338C693.293,-338 702.689,-338 711.896,-338"/>
<polygon fill="midnightblue" stroke="midnightblue" points="684.005,-334.5 674.005,-338 684.005,-341.5 684.005,-334.5"/>
</g>
<!-- Node41 -->
<g id="node41" class="node"><title>Node41</title>
<g id="a_node41"><a xlink:href="classMWRender_1_1TerrainStorage.html#a5ed91a2107904cd30b7d98701114d4d5" target="_top" xlink:title="MWRender::TerrainStorage\l::getLand">
<polygon fill="white" stroke="black" points="714,-274 714,-304 856,-304 856,-274 714,-274"/>
<text text-anchor="start" x="722" y="-292" font-family="FreeSans" font-size="10.00">MWRender::TerrainStorage</text>
<text text-anchor="middle" x="785" y="-281" font-family="FreeSans" font-size="10.00">::getLand</text>
</a>
</g>
</g>
<!-- Node37&#45;&gt;Node41 -->
<g id="edge44" class="edge"><title>Node37&#45;&gt;Node41</title>
<path fill="none" stroke="midnightblue" d="M659.446,-325.546C681.752,-319.001 709.263,-310.929 732.752,-304.037"/>
<polygon fill="midnightblue" stroke="midnightblue" points="658.206,-322.262 649.596,-328.436 660.177,-328.979 658.206,-322.262"/>
</g>
<!-- Node42&#45;&gt;Node3 -->
<g id="edge46" class="edge"><title>Node42&#45;&gt;Node3</title>
<path fill="none" stroke="midnightblue" d="M856.013,-211.285C857.413,-212.44 858.746,-213.676 860,-215 916.112,-274.223 838.997,-336.633 896,-395 914.589,-414.034 947.109,-416.699 967.27,-416.282"/>
<polygon fill="midnightblue" stroke="midnightblue" points="857.617,-208.148 847.351,-205.528 853.742,-213.978 857.617,-208.148"/>
</g>
<!-- Node42&#45;&gt;Node27 -->
<g id="edge51" class="edge"><title>Node42&#45;&gt;Node27</title>
<path fill="none" stroke="midnightblue" d="M829.654,-183.963C849.701,-178.984 873.887,-173.741 896,-171 976.672,-161 1070.37,-160.544 1131.74,-161.74"/>
<polygon fill="midnightblue" stroke="midnightblue" points="828.705,-180.593 819.877,-186.451 830.431,-187.377 828.705,-180.593"/>
</g>
<!-- Node43 -->
<g id="node43" class="node"><title>Node43</title>
<g id="a_node43"><a xlink:href="namespaceESSImport.html#a7f1a9c8a0c5ca3c02939f8ce5c486c8f" target="_top" xlink:title="ESSImport::read">
<polygon fill="white" stroke="red" points="938.5,-66.5 938.5,-85.5 1033.5,-85.5 1033.5,-66.5 938.5,-66.5"/>
<text text-anchor="middle" x="986" y="-73.5" font-family="FreeSans" font-size="10.00">ESSImport::read</text>
</a>
</g>
</g>
<!-- Node42&#45;&gt;Node43 -->
<g id="edge47" class="edge"><title>Node42&#45;&gt;Node43</title>
<path fill="none" stroke="midnightblue" d="M799.774,-178.539C818.846,-155.626 855.553,-115.88 896,-95 908.916,-88.3323 924.043,-84.0032 938.124,-81.1929"/>
<polygon fill="midnightblue" stroke="midnightblue" points="796.955,-176.457 793.356,-186.422 802.384,-180.877 796.955,-176.457"/>
</g>
<!-- Node44 -->
<g id="node44" class="node"><title>Node44</title>
<g id="a_node44"><a xlink:href="classESSImport_1_1Importer.html#a3bf0ba4afb2900ca2c950c86e00f7902" target="_top" xlink:title="ESSImport::Importer::run">
<polygon fill="white" stroke="black" points="917.5,-28.5 917.5,-47.5 1054.5,-47.5 1054.5,-28.5 917.5,-28.5"/>
<text text-anchor="middle" x="986" y="-35.5" font-family="FreeSans" font-size="10.00">ESSImport::Importer::run</text>
</a>
</g>
</g>
<!-- Node42&#45;&gt;Node44 -->
<g id="edge48" class="edge"><title>Node42&#45;&gt;Node44</title>
<path fill="none" stroke="midnightblue" d="M795.275,-177.268C811.35,-146.879 847.383,-87.199 896,-57 902.576,-52.915 909.896,-49.6978 917.433,-47.1657"/>
<polygon fill="midnightblue" stroke="midnightblue" points="792.058,-175.872 790.6,-186.366 798.284,-179.072 792.058,-175.872"/>
</g>
<!-- Node45 -->
<g id="node45" class="node"><title>Node45</title>
<g id="a_node45"><a xlink:href="classCSMTools_1_1FinishMergedDocumentStage.html#a7d2bee3433f0ca47f7dcde2897a549d3" target="_top" xlink:title="Messages resulting from this stage will be appended to messages. ">
<polygon fill="white" stroke="black" points="896,-356 896,-386 1076,-386 1076,-356 896,-356"/>
<text text-anchor="start" x="904" y="-374" font-family="FreeSans" font-size="10.00">CSMTools::FinishMergedDocument</text>
<text text-anchor="middle" x="986" y="-363" font-family="FreeSans" font-size="10.00">Stage::perform</text>
</a>
</g>
</g>
<!-- Node42&#45;&gt;Node45 -->
<g id="edge49" class="edge"><title>Node42&#45;&gt;Node45</title>
<path fill="none" stroke="midnightblue" d="M855.377,-211.013C856.999,-212.244 858.546,-213.57 860,-215 903.054,-257.334 853.425,-303.184 896,-346 899.848,-349.869 904.243,-353.152 908.973,-355.935"/>
<polygon fill="midnightblue" stroke="midnightblue" points="857.049,-207.931 846.708,-205.626 853.355,-213.877 857.049,-207.931"/>
</g>
<!-- Node46 -->
<g id="node46" class="node"><title>Node46</title>
<g id="a_node46"><a xlink:href="classMWState_1_1Character.html#aaaf3ae09514264bfcf0f683e81eef8df" target="_top" xlink:title="MWState::Character\l::addSlot">
<polygon fill="white" stroke="red" points="929.5,-307 929.5,-337 1042.5,-337 1042.5,-307 929.5,-307"/>
<text text-anchor="start" x="937.5" y="-325" font-family="FreeSans" font-size="10.00">MWState::Character</text>
<text text-anchor="middle" x="986" y="-314" font-family="FreeSans" font-size="10.00">::addSlot</text>
</a>
</g>
</g>
<!-- Node42&#45;&gt;Node46 -->
<g id="edge50" class="edge"><title>Node42&#45;&gt;Node46</title>
<path fill="none" stroke="midnightblue" d="M853.667,-210.358C855.888,-211.766 858.01,-213.309 860,-215 890.334,-240.769 865.958,-270.891 896,-297 905.449,-305.212 917.402,-310.74 929.456,-314.459"/>
<polygon fill="midnightblue" stroke="midnightblue" points="855.145,-207.18 844.674,-205.569 851.855,-213.359 855.145,-207.18"/>
</g>
<!-- Node47 -->
<g id="node47" class="node"><title>Node47</title>
<g id="a_node47"><a xlink:href="structContentFileTest.html#a0d9df10af237c591e67f8c7086808c9c" target="_top" xlink:title="ContentFileTest::SetUp">
<polygon fill="white" stroke="black" points="923.5,-268.5 923.5,-287.5 1048.5,-287.5 1048.5,-268.5 923.5,-268.5"/>
<text text-anchor="middle" x="986" y="-275.5" font-family="FreeSans" font-size="10.00">ContentFileTest::SetUp</text>
</a>
</g>
</g>
<!-- Node42&#45;&gt;Node47 -->
<g id="edge52" class="edge"><title>Node42&#45;&gt;Node47</title>
<path fill="none" stroke="midnightblue" d="M849.522,-209.351C853.174,-211.018 856.698,-212.892 860,-215 881.297,-228.596 874.429,-245.843 896,-259 904.228,-264.019 913.588,-267.724 923.074,-270.458"/>
<polygon fill="midnightblue" stroke="midnightblue" points="850.819,-206.1 840.235,-205.621 848.21,-212.596 850.819,-206.1"/>
</g>
<!-- Node48 -->
<g id="node48" class="node"><title>Node48</title>
<g id="a_node48"><a xlink:href="test__store_8cpp.html#a9e81eaa84aa15662b8407d42d2027bad" target="_top" xlink:title="Tests deletion of records. ">
<polygon fill="white" stroke="black" points="961,-230.5 961,-249.5 1011,-249.5 1011,-230.5 961,-230.5"/>
<text text-anchor="middle" x="986" y="-237.5" font-family="FreeSans" font-size="10.00">TEST_F</text>
</a>
</g>
</g>
<!-- Node42&#45;&gt;Node48 -->
<g id="edge53" class="edge"><title>Node42&#45;&gt;Node48</title>
<path fill="none" stroke="midnightblue" d="M838.954,-207.708C878.556,-216.465 930.859,-228.029 960.926,-234.677"/>
<polygon fill="midnightblue" stroke="midnightblue" points="839.7,-204.289 829.18,-205.547 838.189,-211.124 839.7,-204.289"/>
</g>
<!-- Node49 -->
<g id="node49" class="node"><title>Node49</title>
<g id="a_node49"><a xlink:href="classContentSelectorModel_1_1ContentModel.html#aa229a2d840fd314f27820ff45f51b648" target="_top" xlink:title="ContentSelectorModel\l::ContentModel::addFiles">
<polygon fill="white" stroke="black" points="919,-181 919,-211 1053,-211 1053,-181 919,-181"/>
<text text-anchor="start" x="927" y="-199" font-family="FreeSans" font-size="10.00">ContentSelectorModel</text>
<text text-anchor="middle" x="986" y="-188" font-family="FreeSans" font-size="10.00">::ContentModel::addFiles</text>
</a>
</g>
</g>
<!-- Node42&#45;&gt;Node49 -->
<g id="edge54" class="edge"><title>Node42&#45;&gt;Node49</title>
<path fill="none" stroke="midnightblue" d="M859.288,-196C878.791,-196 899.741,-196 918.838,-196"/>
<polygon fill="midnightblue" stroke="midnightblue" points="859.238,-192.5 849.238,-196 859.238,-199.5 859.238,-192.5"/>
</g>
<!-- Node50 -->
<g id="node50" class="node"><title>Node50</title>
<g id="a_node50"><a xlink:href="classESM_1_1ESMReader.html#aaf193be70879beeaced739fbc67bc442" target="_top" xlink:title="ESM::ESMReader::open">
<polygon fill="white" stroke="black" points="922,-104.5 922,-123.5 1050,-123.5 1050,-104.5 922,-104.5"/>
<text text-anchor="middle" x="986" y="-111.5" font-family="FreeSans" font-size="10.00">ESM::ESMReader::open</text>
</a>
</g>
</g>
<!-- Node42&#45;&gt;Node50 -->
<g id="edge55" class="edge"><title>Node42&#45;&gt;Node50</title>
<path fill="none" stroke="midnightblue" d="M810.107,-181.285C831.915,-168.466 865.23,-150.087 896,-138 910.597,-132.266 927.061,-127.405 941.823,-123.589"/>
<polygon fill="midnightblue" stroke="midnightblue" points="808.31,-178.281 801.507,-186.404 811.89,-184.297 808.31,-178.281"/>
</g>
</g>
</svg>
