<?xml version="1.0" encoding="UTF-8" standalone="no"?>
<!DOCTYPE svg PUBLIC "-//W3C//DTD SVG 1.1//EN"
 "http://www.w3.org/Graphics/SVG/1.1/DTD/svg11.dtd">
<!-- Generated by graphviz version 2.36.0 (20140111.2315)
 -->
<!-- Title: CSMTools::ReportModel Pages: 1 -->
<svg width="134pt" height="314pt"
 viewBox="0.00 0.00 134.00 314.00" xmlns="http://www.w3.org/2000/svg" xmlns:xlink="http://www.w3.org/1999/xlink">
<g id="graph0" class="graph" transform="scale(1 1) rotate(0) translate(4 310)">
<title>CSMTools::ReportModel</title>
<polygon fill="white" stroke="none" points="-4,4 -4,-310 130,-310 130,4 -4,4"/>
<!-- Node1 -->
<g id="node1" class="node"><title>Node1</title>
<polygon fill="#bfbfbf" stroke="black" points="-0.5,-0.5 -0.5,-211.5 126.5,-211.5 126.5,-0.5 -0.5,-0.5"/>
<text text-anchor="middle" x="63" y="-199.5" font-family="FreeSans" font-size="10.00">CSMTools::ReportModel</text>
<polyline fill="none" stroke="black" points="-0.5,-192.5 126.5,-192.5 "/>
<text text-anchor="start" x="7.5" y="-180.5" font-family="FreeSans" font-size="10.00">&#45; mRows</text>
<text text-anchor="start" x="7.5" y="-169.5" font-family="FreeSans" font-size="10.00">&#45; mColumnDescription</text>
<text text-anchor="start" x="7.5" y="-158.5" font-family="FreeSans" font-size="10.00">&#45; mColumnField</text>
<text text-anchor="start" x="7.5" y="-147.5" font-family="FreeSans" font-size="10.00">&#45; mColumnSeverity</text>
<polyline fill="none" stroke="black" points="-0.5,-140.5 126.5,-140.5 "/>
<text text-anchor="start" x="7.5" y="-128.5" font-family="FreeSans" font-size="10.00">+ ReportModel()</text>
<text text-anchor="start" x="7.5" y="-117.5" font-family="FreeSans" font-size="10.00">+ rowCount()</text>
<text text-anchor="start" x="7.5" y="-106.5" font-family="FreeSans" font-size="10.00">+ columnCount()</text>
<text text-anchor="start" x="7.5" y="-95.5" font-family="FreeSans" font-size="10.00">+ data()</text>
<text text-anchor="start" x="7.5" y="-84.5" font-family="FreeSans" font-size="10.00">+ headerData()</text>
<text text-anchor="start" x="7.5" y="-73.5" font-family="FreeSans" font-size="10.00">+ removeRows()</text>
<text text-anchor="start" x="7.5" y="-62.5" font-family="FreeSans" font-size="10.00">+ add()</text>
<text text-anchor="start" x="7.5" y="-51.5" font-family="FreeSans" font-size="10.00">+ flagAsReplaced()</text>
<text text-anchor="start" x="7.5" y="-40.5" font-family="FreeSans" font-size="10.00">+ getUniversalId()</text>
<text text-anchor="start" x="7.5" y="-29.5" font-family="FreeSans" font-size="10.00">+ getHint()</text>
<text text-anchor="start" x="7.5" y="-18.5" font-family="FreeSans" font-size="10.00">+ clear()</text>
<text text-anchor="start" x="7.5" y="-7.5" font-family="FreeSans" font-size="10.00">+ countErrors()</text>
</g>
<!-- Node2 -->
<g id="node2" class="node"><title>Node2</title>
<g id="a_node2"><a xlink:href="classQAbstractTableModel.html" target="_top" xlink:title="{QAbstractTableModel\n||}">
<polygon fill="white" stroke="black" points="4.5,-248.5 4.5,-305.5 121.5,-305.5 121.5,-248.5 4.5,-248.5"/>
<text text-anchor="middle" x="63" y="-293.5" font-family="FreeSans" font-size="10.00">QAbstractTableModel</text>
<polyline fill="none" stroke="black" points="4.5,-286.5 121.5,-286.5 "/>
<text text-anchor="middle" x="63" y="-274.5" font-family="FreeSans" font-size="10.00"> </text>
<polyline fill="none" stroke="black" points="4.5,-267.5 121.5,-267.5 "/>
<text text-anchor="middle" x="63" y="-255.5" font-family="FreeSans" font-size="10.00"> </text>
</a>
</g>
</g>
<!-- Node2&#45;&gt;Node1 -->
<g id="edge1" class="edge"><title>Node2&#45;&gt;Node1</title>
<path fill="none" stroke="midnightblue" d="M63,-238.233C63,-230.038 63,-220.987 63,-211.584"/>
<polygon fill="none" stroke="midnightblue" points="59.5001,-238.471 63,-248.471 66.5001,-238.471 59.5001,-238.471"/>
</g>
</g>
</svg>
