<?xml version="1.0" encoding="UTF-8" standalone="no"?>
<!DOCTYPE svg PUBLIC "-//W3C//DTD SVG 1.1//EN"
 "http://www.w3.org/Graphics/SVG/1.1/DTD/svg11.dtd">
<!-- Generated by graphviz version 2.36.0 (20140111.2315)
 -->
<!-- Title: MWSound::SoundManager::startRandomTitle Pages: 1 -->
<svg width="692pt" height="234pt"
 viewBox="0.00 0.00 692.00 234.00" xmlns="http://www.w3.org/2000/svg" xmlns:xlink="http://www.w3.org/1999/xlink">
<g id="graph0" class="graph" transform="scale(1 1) rotate(0) translate(4 230)">
<title>MWSound::SoundManager::startRandomTitle</title>
<polygon fill="white" stroke="none" points="-4,4 -4,-230 688,-230 688,4 -4,4"/>
<!-- Node1 -->
<g id="node1" class="node"><title>Node1</title>
<polygon fill="#bfbfbf" stroke="black" points="0.5,-120 0.5,-150 143.5,-150 143.5,-120 0.5,-120"/>
<text text-anchor="start" x="8.5" y="-138" font-family="FreeSans" font-size="10.00">MWSound::SoundManager</text>
<text text-anchor="middle" x="72" y="-127" font-family="FreeSans" font-size="10.00">::startRandomTitle</text>
</g>
<!-- Node2 -->
<g id="node2" class="node"><title>Node2</title>
<g id="a_node2"><a xlink:href="classMisc_1_1Rng.html#aea7920431866f89996a152900e5d4208" target="_top" xlink:title="return value in range [0, max) &lt;&#45; note open upper range. ">
<polygon fill="white" stroke="black" points="200.5,-147.5 200.5,-166.5 303.5,-166.5 303.5,-147.5 200.5,-147.5"/>
<text text-anchor="middle" x="252" y="-154.5" font-family="FreeSans" font-size="10.00">Misc::Rng::rollDice</text>
</a>
</g>
</g>
<!-- Node1&#45;&gt;Node2 -->
<g id="edge1" class="edge"><title>Node1&#45;&gt;Node2</title>
<path fill="none" stroke="midnightblue" d="M143.606,-143.727C158.984,-145.627 175.129,-147.623 190.093,-149.472"/>
<polygon fill="midnightblue" stroke="midnightblue" points="189.886,-152.973 200.24,-150.726 190.745,-146.026 189.886,-152.973"/>
</g>
<!-- Node3 -->
<g id="node3" class="node"><title>Node3</title>
<g id="a_node3"><a xlink:href="classMWSound_1_1SoundManager.html#a7d53fc42792aa13b23f58fc37fe65466" target="_top" xlink:title="MWSound::SoundManager\l::advanceMusic">
<polygon fill="white" stroke="black" points="180.5,-98 180.5,-128 323.5,-128 323.5,-98 180.5,-98"/>
<text text-anchor="start" x="188.5" y="-116" font-family="FreeSans" font-size="10.00">MWSound::SoundManager</text>
<text text-anchor="middle" x="252" y="-105" font-family="FreeSans" font-size="10.00">::advanceMusic</text>
</a>
</g>
</g>
<!-- Node1&#45;&gt;Node3 -->
<g id="edge2" class="edge"><title>Node1&#45;&gt;Node3</title>
<path fill="none" stroke="midnightblue" d="M143.606,-126.273C152.421,-125.184 161.488,-124.063 170.441,-122.957"/>
<polygon fill="midnightblue" stroke="midnightblue" points="170.984,-126.416 180.479,-121.716 170.126,-119.469 170.984,-126.416"/>
</g>
<!-- Node4 -->
<g id="node4" class="node"><title>Node4</title>
<g id="a_node4"><a xlink:href="classMWSound_1_1SoundManager.html#a050e4e033a6161de83d1425b334ceafc" target="_top" xlink:title="Returns true if music is playing. ">
<polygon fill="white" stroke="black" points="360.5,-147 360.5,-177 503.5,-177 503.5,-147 360.5,-147"/>
<text text-anchor="start" x="368.5" y="-165" font-family="FreeSans" font-size="10.00">MWSound::SoundManager</text>
<text text-anchor="middle" x="432" y="-154" font-family="FreeSans" font-size="10.00">::isMusicPlaying</text>
</a>
</g>
</g>
<!-- Node3&#45;&gt;Node4 -->
<g id="edge3" class="edge"><title>Node3&#45;&gt;Node4</title>
<path fill="none" stroke="midnightblue" d="M307.858,-128.101C326.386,-133.202 347.242,-138.943 366.45,-144.23"/>
<polygon fill="midnightblue" stroke="midnightblue" points="365.753,-147.669 376.323,-146.948 367.61,-140.92 365.753,-147.669"/>
</g>
<!-- Node5 -->
<g id="node5" class="node"><title>Node5</title>
<g id="a_node5"><a xlink:href="classMWSound_1_1SoundManager.html#a376978b82e97c328011243d46ea832b6" target="_top" xlink:title="MWSound::SoundManager\l::streamMusicFull">
<polygon fill="white" stroke="black" points="360.5,-98 360.5,-128 503.5,-128 503.5,-98 360.5,-98"/>
<text text-anchor="start" x="368.5" y="-116" font-family="FreeSans" font-size="10.00">MWSound::SoundManager</text>
<text text-anchor="middle" x="432" y="-105" font-family="FreeSans" font-size="10.00">::streamMusicFull</text>
</a>
</g>
</g>
<!-- Node3&#45;&gt;Node5 -->
<g id="edge4" class="edge"><title>Node3&#45;&gt;Node5</title>
<path fill="none" stroke="midnightblue" d="M323.606,-113C332.421,-113 341.488,-113 350.441,-113"/>
<polygon fill="midnightblue" stroke="midnightblue" points="350.479,-116.5 360.479,-113 350.479,-109.5 350.479,-116.5"/>
</g>
<!-- Node11 -->
<g id="node11" class="node"><title>Node11</title>
<g id="a_node11"><a xlink:href="classMWSound_1_1SoundBase.html#a8fe902e830a48ec76b09f1736af07d06" target="_top" xlink:title="MWSound::SoundBase\l::setFadeout">
<polygon fill="white" stroke="black" points="369.5,-49 369.5,-79 494.5,-79 494.5,-49 369.5,-49"/>
<text text-anchor="start" x="377.5" y="-67" font-family="FreeSans" font-size="10.00">MWSound::SoundBase</text>
<text text-anchor="middle" x="432" y="-56" font-family="FreeSans" font-size="10.00">::setFadeout</text>
</a>
</g>
</g>
<!-- Node3&#45;&gt;Node11 -->
<g id="edge10" class="edge"><title>Node3&#45;&gt;Node11</title>
<path fill="none" stroke="midnightblue" d="M307.858,-97.8986C326.386,-92.7981 347.242,-87.0571 366.45,-81.7695"/>
<polygon fill="midnightblue" stroke="midnightblue" points="367.61,-85.0802 376.323,-79.0516 365.753,-78.3313 367.61,-85.0802"/>
</g>
<!-- Node6 -->
<g id="node6" class="node"><title>Node6</title>
<g id="a_node6"><a xlink:href="classMWSound_1_1SoundManager.html#ae15103f3b0c464c31be1084f9a22c33e" target="_top" xlink:title="Stops music if it&#39;s playing. ">
<polygon fill="white" stroke="black" points="540.5,-196 540.5,-226 683.5,-226 683.5,-196 540.5,-196"/>
<text text-anchor="start" x="548.5" y="-214" font-family="FreeSans" font-size="10.00">MWSound::SoundManager</text>
<text text-anchor="middle" x="612" y="-203" font-family="FreeSans" font-size="10.00">::stopMusic</text>
</a>
</g>
</g>
<!-- Node5&#45;&gt;Node6 -->
<g id="edge5" class="edge"><title>Node5&#45;&gt;Node6</title>
<path fill="none" stroke="midnightblue" d="M486.698,-128.004C492.813,-130.826 498.732,-134.135 504,-138 525.501,-153.773 518.499,-170.227 540,-186 542.634,-187.932 545.431,-189.726 548.334,-191.389"/>
<polygon fill="midnightblue" stroke="midnightblue" points="546.807,-194.54 557.302,-195.996 550.006,-188.313 546.807,-194.54"/>
</g>
<!-- Node7 -->
<g id="node7" class="node"><title>Node7</title>
<g id="a_node7"><a xlink:href="classMWSound_1_1SoundManager.html#a3df4f0422ab3895ce8924811b20a295d" target="_top" xlink:title="MWSound::SoundManager\l::getDecoder">
<polygon fill="white" stroke="black" points="540.5,-147 540.5,-177 683.5,-177 683.5,-147 540.5,-147"/>
<text text-anchor="start" x="548.5" y="-165" font-family="FreeSans" font-size="10.00">MWSound::SoundManager</text>
<text text-anchor="middle" x="612" y="-154" font-family="FreeSans" font-size="10.00">::getDecoder</text>
</a>
</g>
</g>
<!-- Node5&#45;&gt;Node7 -->
<g id="edge6" class="edge"><title>Node5&#45;&gt;Node7</title>
<path fill="none" stroke="midnightblue" d="M487.858,-128.101C506.386,-133.202 527.242,-138.943 546.45,-144.23"/>
<polygon fill="midnightblue" stroke="midnightblue" points="545.753,-147.669 556.323,-146.948 547.61,-140.92 545.753,-147.669"/>
</g>
<!-- Node8 -->
<g id="node8" class="node"><title>Node8</title>
<g id="a_node8"><a xlink:href="classMWSound_1_1SoundManager.html#a391bff51620a656362875b1d8cfc80da" target="_top" xlink:title="MWSound::SoundManager\l::getStreamRef">
<polygon fill="white" stroke="black" points="540.5,-98 540.5,-128 683.5,-128 683.5,-98 540.5,-98"/>
<text text-anchor="start" x="548.5" y="-116" font-family="FreeSans" font-size="10.00">MWSound::SoundManager</text>
<text text-anchor="middle" x="612" y="-105" font-family="FreeSans" font-size="10.00">::getStreamRef</text>
</a>
</g>
</g>
<!-- Node5&#45;&gt;Node8 -->
<g id="edge7" class="edge"><title>Node5&#45;&gt;Node8</title>
<path fill="none" stroke="midnightblue" d="M503.606,-113C512.421,-113 521.488,-113 530.441,-113"/>
<polygon fill="midnightblue" stroke="midnightblue" points="530.479,-116.5 540.479,-113 530.479,-109.5 530.479,-116.5"/>
</g>
<!-- Node9 -->
<g id="node9" class="node"><title>Node9</title>
<g id="a_node9"><a xlink:href="classMWSound_1_1SoundBase.html#ad63b41fe1c890711c8cfad1bc48a0425" target="_top" xlink:title="MWSound::SoundBase\l::init">
<polygon fill="white" stroke="black" points="549.5,-49 549.5,-79 674.5,-79 674.5,-49 549.5,-49"/>
<text text-anchor="start" x="557.5" y="-67" font-family="FreeSans" font-size="10.00">MWSound::SoundBase</text>
<text text-anchor="middle" x="612" y="-56" font-family="FreeSans" font-size="10.00">::init</text>
</a>
</g>
</g>
<!-- Node5&#45;&gt;Node9 -->
<g id="edge8" class="edge"><title>Node5&#45;&gt;Node9</title>
<path fill="none" stroke="midnightblue" d="M487.858,-97.8986C506.386,-92.7981 527.242,-87.0571 546.45,-81.7695"/>
<polygon fill="midnightblue" stroke="midnightblue" points="547.61,-85.0802 556.323,-79.0516 545.753,-78.3313 547.61,-85.0802"/>
</g>
<!-- Node10 -->
<g id="node10" class="node"><title>Node10</title>
<g id="a_node10"><a xlink:href="classMWSound_1_1SoundManager.html#a58731849b4a9be2a8d9aba3877fe3963" target="_top" xlink:title="MWSound::SoundManager\l::volumeFromType">
<polygon fill="white" stroke="black" points="540.5,-0 540.5,-30 683.5,-30 683.5,-0 540.5,-0"/>
<text text-anchor="start" x="548.5" y="-18" font-family="FreeSans" font-size="10.00">MWSound::SoundManager</text>
<text text-anchor="middle" x="612" y="-7" font-family="FreeSans" font-size="10.00">::volumeFromType</text>
</a>
</g>
</g>
<!-- Node5&#45;&gt;Node10 -->
<g id="edge9" class="edge"><title>Node5&#45;&gt;Node10</title>
<path fill="none" stroke="midnightblue" d="M486.698,-97.9964C492.813,-95.1738 498.732,-91.865 504,-88 525.501,-72.2265 518.499,-55.7735 540,-40 542.634,-38.0675 545.431,-36.2741 548.334,-34.6109"/>
<polygon fill="midnightblue" stroke="midnightblue" points="550.006,-37.6865 557.302,-30.0036 546.807,-31.4602 550.006,-37.6865"/>
</g>
</g>
</svg>
