<?xml version="1.0" encoding="UTF-8" standalone="no"?>
<!DOCTYPE svg PUBLIC "-//W3C//DTD SVG 1.1//EN"
 "http://www.w3.org/Graphics/SVG/1.1/DTD/svg11.dtd">
<!-- Generated by graphviz version 2.36.0 (20140111.2315)
 -->
<!-- Title: MWGui::WindowModal Pages: 1 -->
<svg width="323pt" height="682pt"
 viewBox="0.00 0.00 323.00 682.00" xmlns="http://www.w3.org/2000/svg" xmlns:xlink="http://www.w3.org/1999/xlink">
<g id="graph0" class="graph" transform="scale(1 1) rotate(0) translate(4 678)">
<title>MWGui::WindowModal</title>
<polygon fill="white" stroke="none" points="-4,4 -4,-678 319,-678 319,4 -4,4"/>
<!-- Node1 -->
<g id="node1" class="node"><title>Node1</title>
<polygon fill="#bfbfbf" stroke="black" points="67.5,-1 67.5,-91 186.5,-91 186.5,-1 67.5,-1"/>
<text text-anchor="middle" x="127" y="-79" font-family="FreeSans" font-size="10.00">MWGui::WindowModal</text>
<polyline fill="none" stroke="black" points="67.5,-72 186.5,-72 "/>
<text text-anchor="middle" x="127" y="-60" font-family="FreeSans" font-size="10.00"> </text>
<polyline fill="none" stroke="black" points="67.5,-53 186.5,-53 "/>
<text text-anchor="start" x="75.5" y="-41" font-family="FreeSans" font-size="10.00">+ WindowModal()</text>
<text text-anchor="start" x="75.5" y="-30" font-family="FreeSans" font-size="10.00">+ open()</text>
<text text-anchor="start" x="75.5" y="-19" font-family="FreeSans" font-size="10.00">+ close()</text>
<text text-anchor="start" x="75.5" y="-8" font-family="FreeSans" font-size="10.00">+ exit()</text>
</g>
<!-- Node2 -->
<g id="node2" class="node"><title>Node2</title>
<g id="a_node2"><a xlink:href="classMWGui_1_1WindowBase.html" target="_top" xlink:title="{MWGui::WindowBase\n||+ WindowBase()\l+ open()\l+ close()\l+ exit()\l+ setVisible()\l+ isVisible()\l+ center()\l}">
<polygon fill="white" stroke="black" points="70,-130.5 70,-253.5 184,-253.5 184,-130.5 70,-130.5"/>
<text text-anchor="middle" x="127" y="-241.5" font-family="FreeSans" font-size="10.00">MWGui::WindowBase</text>
<polyline fill="none" stroke="black" points="70,-234.5 184,-234.5 "/>
<text text-anchor="middle" x="127" y="-222.5" font-family="FreeSans" font-size="10.00"> </text>
<polyline fill="none" stroke="black" points="70,-215.5 184,-215.5 "/>
<text text-anchor="start" x="78" y="-203.5" font-family="FreeSans" font-size="10.00">+ WindowBase()</text>
<text text-anchor="start" x="78" y="-192.5" font-family="FreeSans" font-size="10.00">+ open()</text>
<text text-anchor="start" x="78" y="-181.5" font-family="FreeSans" font-size="10.00">+ close()</text>
<text text-anchor="start" x="78" y="-170.5" font-family="FreeSans" font-size="10.00">+ exit()</text>
<text text-anchor="start" x="78" y="-159.5" font-family="FreeSans" font-size="10.00">+ setVisible()</text>
<text text-anchor="start" x="78" y="-148.5" font-family="FreeSans" font-size="10.00">+ isVisible()</text>
<text text-anchor="start" x="78" y="-137.5" font-family="FreeSans" font-size="10.00">+ center()</text>
</a>
</g>
</g>
<!-- Node2&#45;&gt;Node1 -->
<g id="edge1" class="edge"><title>Node2&#45;&gt;Node1</title>
<path fill="none" stroke="midnightblue" d="M127,-120.171C127,-110.365 127,-100.53 127,-91.3936"/>
<polygon fill="none" stroke="midnightblue" points="123.5,-120.348 127,-130.348 130.5,-120.348 123.5,-120.348"/>
</g>
<!-- Node3 -->
<g id="node3" class="node"><title>Node3</title>
<g id="a_node3"><a xlink:href="classMWGui_1_1Layout.html" target="_top" xlink:title="{MWGui::Layout\n||+ Layout()\l+ ~Layout()\l+ getWidget()\l+ getWidget()\l+ setCoord()\l+ setVisible()\l+ setText()\l+ setTitle()\l&#45; initialise()\l&#45; shutdown()\l}">
<polygon fill="white" stroke="black" points="83.5,-293 83.5,-449 170.5,-449 170.5,-293 83.5,-293"/>
<text text-anchor="middle" x="127" y="-437" font-family="FreeSans" font-size="10.00">MWGui::Layout</text>
<polyline fill="none" stroke="black" points="83.5,-430 170.5,-430 "/>
<text text-anchor="middle" x="127" y="-418" font-family="FreeSans" font-size="10.00"> </text>
<polyline fill="none" stroke="black" points="83.5,-411 170.5,-411 "/>
<text text-anchor="start" x="91.5" y="-399" font-family="FreeSans" font-size="10.00">+ Layout()</text>
<text text-anchor="start" x="91.5" y="-388" font-family="FreeSans" font-size="10.00">+ ~Layout()</text>
<text text-anchor="start" x="91.5" y="-377" font-family="FreeSans" font-size="10.00">+ getWidget()</text>
<text text-anchor="start" x="91.5" y="-366" font-family="FreeSans" font-size="10.00">+ getWidget()</text>
<text text-anchor="start" x="91.5" y="-355" font-family="FreeSans" font-size="10.00">+ setCoord()</text>
<text text-anchor="start" x="91.5" y="-344" font-family="FreeSans" font-size="10.00">+ setVisible()</text>
<text text-anchor="start" x="91.5" y="-333" font-family="FreeSans" font-size="10.00">+ setText()</text>
<text text-anchor="start" x="91.5" y="-322" font-family="FreeSans" font-size="10.00">+ setTitle()</text>
<text text-anchor="start" x="91.5" y="-311" font-family="FreeSans" font-size="10.00">&#45; initialise()</text>
<text text-anchor="start" x="91.5" y="-300" font-family="FreeSans" font-size="10.00">&#45; shutdown()</text>
</a>
</g>
</g>
<!-- Node3&#45;&gt;Node2 -->
<g id="edge2" class="edge"><title>Node3&#45;&gt;Node2</title>
<path fill="none" stroke="midnightblue" d="M127,-282.673C127,-272.852 127,-263.012 127,-253.637"/>
<polygon fill="none" stroke="midnightblue" points="123.5,-282.88 127,-292.88 130.5,-282.88 123.5,-282.88"/>
</g>
<!-- Node4 -->
<g id="node4" class="node"><title>Node4</title>
<polygon fill="white" stroke="#bfbfbf" points="-0.5,-508.5 -0.5,-565.5 56.5,-565.5 56.5,-508.5 -0.5,-508.5"/>
<text text-anchor="middle" x="28" y="-553.5" font-family="FreeSans" font-size="10.00">Widget *</text>
<polyline fill="none" stroke="#bfbfbf" points="-0.5,-546.5 56.5,-546.5 "/>
<text text-anchor="middle" x="28" y="-534.5" font-family="FreeSans" font-size="10.00"> </text>
<polyline fill="none" stroke="#bfbfbf" points="-0.5,-527.5 56.5,-527.5 "/>
<text text-anchor="middle" x="28" y="-515.5" font-family="FreeSans" font-size="10.00"> </text>
</g>
<!-- Node4&#45;&gt;Node3 -->
<g id="edge3" class="edge"><title>Node4&#45;&gt;Node3</title>
<path fill="none" stroke="#404040" d="M32.9773,-508.196C35.9458,-495.47 40.4456,-480.48 47,-468 54.7115,-453.317 64.9511,-438.843 75.5213,-425.762"/>
<polygon fill="none" stroke="#404040" points="75.5595,-425.716 76.3304,-418.546 83.2451,-416.5 82.4743,-423.67 75.5595,-425.716"/>
<text text-anchor="middle" x="85" y="-476.5" font-family="FreeSans" font-size="10.00"> +mMainWidget</text>
</g>
<!-- Node5 -->
<g id="node5" class="node"><title>Node5</title>
<polygon fill="white" stroke="#bfbfbf" points="80.5,-508.5 80.5,-565.5 173.5,-565.5 173.5,-508.5 80.5,-508.5"/>
<text text-anchor="middle" x="127" y="-553.5" font-family="FreeSans" font-size="10.00">VectorWidgetPtr</text>
<polyline fill="none" stroke="#bfbfbf" points="80.5,-546.5 173.5,-546.5 "/>
<text text-anchor="middle" x="127" y="-534.5" font-family="FreeSans" font-size="10.00"> </text>
<polyline fill="none" stroke="#bfbfbf" points="80.5,-527.5 173.5,-527.5 "/>
<text text-anchor="middle" x="127" y="-515.5" font-family="FreeSans" font-size="10.00"> </text>
</g>
<!-- Node5&#45;&gt;Node3 -->
<g id="edge4" class="edge"><title>Node5&#45;&gt;Node3</title>
<path fill="none" stroke="#404040" d="M127,-508.18C127,-495.016 127,-478.482 127,-461.514"/>
<polygon fill="none" stroke="#404040" points="127,-461.125 123,-455.125 127,-449.125 131,-455.125 127,-461.125"/>
<text text-anchor="middle" x="174" y="-476.5" font-family="FreeSans" font-size="10.00"> #mListWindowRoot</text>
</g>
<!-- Node6 -->
<g id="node6" class="node"><title>Node6</title>
<g id="a_node6"><a xlink:title="STL class. ">
<polygon fill="white" stroke="#bfbfbf" points="211.5,-508.5 211.5,-565.5 276.5,-565.5 276.5,-508.5 211.5,-508.5"/>
<text text-anchor="middle" x="244" y="-553.5" font-family="FreeSans" font-size="10.00">std::string</text>
<polyline fill="none" stroke="#bfbfbf" points="211.5,-546.5 276.5,-546.5 "/>
<text text-anchor="middle" x="244" y="-534.5" font-family="FreeSans" font-size="10.00"> </text>
<polyline fill="none" stroke="#bfbfbf" points="211.5,-527.5 276.5,-527.5 "/>
<text text-anchor="middle" x="244" y="-515.5" font-family="FreeSans" font-size="10.00"> </text>
</a>
</g>
</g>
<!-- Node6&#45;&gt;Node3 -->
<g id="edge5" class="edge"><title>Node6&#45;&gt;Node3</title>
<path fill="none" stroke="#404040" d="M238.169,-508.266C234.699,-495.411 229.481,-480.297 222,-468 210.692,-449.412 195.101,-431.687 179.817,-416.641"/>
<polygon fill="none" stroke="#404040" points="179.562,-416.398 172.461,-415.143 170.888,-408.106 177.989,-409.36 179.562,-416.398"/>
<text text-anchor="middle" x="273.5" y="-482" font-family="FreeSans" font-size="10.00"> #mLayoutName</text>
<text text-anchor="middle" x="273.5" y="-471" font-family="FreeSans" font-size="10.00">#mPrefix</text>
</g>
<!-- Node7 -->
<g id="node7" class="node"><title>Node7</title>
<g id="a_node7"><a xlink:title="STL class. ">
<polygon fill="white" stroke="#bfbfbf" points="192.5,-605 192.5,-673 295.5,-673 295.5,-605 192.5,-605"/>
<text text-anchor="start" x="200.5" y="-661" font-family="FreeSans" font-size="10.00">std::basic_string&lt;</text>
<text text-anchor="middle" x="244" y="-650" font-family="FreeSans" font-size="10.00"> char &gt;</text>
<polyline fill="none" stroke="#bfbfbf" points="192.5,-643 295.5,-643 "/>
<text text-anchor="middle" x="244" y="-631" font-family="FreeSans" font-size="10.00"> </text>
<polyline fill="none" stroke="#bfbfbf" points="192.5,-624 295.5,-624 "/>
<text text-anchor="middle" x="244" y="-612" font-family="FreeSans" font-size="10.00"> </text>
</a>
</g>
</g>
<!-- Node7&#45;&gt;Node6 -->
<g id="edge6" class="edge"><title>Node7&#45;&gt;Node6</title>
<path fill="none" stroke="midnightblue" d="M244,-594.857C244,-584.952 244,-574.682 244,-565.64"/>
<polygon fill="none" stroke="midnightblue" points="240.5,-594.979 244,-604.979 247.5,-594.979 240.5,-594.979"/>
</g>
</g>
</svg>
