<?xml version="1.0" encoding="UTF-8" standalone="no"?>
<!DOCTYPE svg PUBLIC "-//W3C//DTD SVG 1.1//EN"
 "http://www.w3.org/Graphics/SVG/1.1/DTD/svg11.dtd">
<!-- Generated by graphviz version 2.36.0 (20140111.2315)
 -->
<!-- Title: MWGui::TradeWindow::onDecreaseButtonTriggered Pages: 1 -->
<svg width="840pt" height="427pt"
 viewBox="0.00 0.00 840.00 427.00" xmlns="http://www.w3.org/2000/svg" xmlns:xlink="http://www.w3.org/1999/xlink">
<g id="graph0" class="graph" transform="scale(1 1) rotate(0) translate(4 423)">
<title>MWGui::TradeWindow::onDecreaseButtonTriggered</title>
<polygon fill="white" stroke="none" points="-4,4 -4,-423 836,-423 836,4 -4,4"/>
<!-- Node1 -->
<g id="node1" class="node"><title>Node1</title>
<polygon fill="#bfbfbf" stroke="black" points="0,-175 0,-205 156,-205 156,-175 0,-175"/>
<text text-anchor="start" x="8" y="-193" font-family="FreeSans" font-size="10.00">MWGui::TradeWindow</text>
<text text-anchor="middle" x="78" y="-182" font-family="FreeSans" font-size="10.00">::onDecreaseButtonTriggered</text>
</g>
<!-- Node2 -->
<g id="node2" class="node"><title>Node2</title>
<g id="a_node2"><a xlink:href="classMWGui_1_1TradeWindow.html#a3188166252ca0c455883f8dff918e1ff" target="_top" xlink:title="MWGui::TradeWindow\l::updateLabels">
<polygon fill="white" stroke="black" points="192,-175 192,-205 308,-205 308,-175 192,-175"/>
<text text-anchor="start" x="200" y="-193" font-family="FreeSans" font-size="10.00">MWGui::TradeWindow</text>
<text text-anchor="middle" x="250" y="-182" font-family="FreeSans" font-size="10.00">::updateLabels</text>
</a>
</g>
</g>
<!-- Node1&#45;&gt;Node2 -->
<g id="edge1" class="edge"><title>Node1&#45;&gt;Node2</title>
<path fill="none" stroke="midnightblue" d="M156.042,-190C164.598,-190 173.263,-190 181.686,-190"/>
<polygon fill="midnightblue" stroke="midnightblue" points="181.816,-193.5 191.816,-190 181.816,-186.5 181.816,-193.5"/>
</g>
<!-- Node3 -->
<g id="node3" class="node"><title>Node3</title>
<g id="a_node3"><a xlink:href="namespaceMWMechanics.html#a90645fe67f9b8b658452cd004d2cbb65" target="_top" xlink:title="MWMechanics::getPlayer">
<polygon fill="white" stroke="black" points="356,-341.5 356,-360.5 490,-360.5 490,-341.5 356,-341.5"/>
<text text-anchor="middle" x="423" y="-348.5" font-family="FreeSans" font-size="10.00">MWMechanics::getPlayer</text>
</a>
</g>
</g>
<!-- Node2&#45;&gt;Node3 -->
<g id="edge2" class="edge"><title>Node2&#45;&gt;Node3</title>
<path fill="none" stroke="midnightblue" d="M259.499,-205.291C274.039,-230.32 305.844,-280.408 344,-312 356.507,-322.355 372.225,-330.879 386.268,-337.289"/>
<polygon fill="midnightblue" stroke="midnightblue" points="385.097,-340.596 395.662,-341.385 387.894,-334.18 385.097,-340.596"/>
</g>
<!-- Node7 -->
<g id="node7" class="node"><title>Node7</title>
<g id="a_node7"><a xlink:href="classMWWorld_1_1Ptr.html#aa2ac4a5579cd19eaa780596f4543ea46" target="_top" xlink:title="MWWorld::Ptr::getClass">
<polygon fill="white" stroke="black" points="554.5,-98.5 554.5,-117.5 679.5,-117.5 679.5,-98.5 554.5,-98.5"/>
<text text-anchor="middle" x="617" y="-105.5" font-family="FreeSans" font-size="10.00">MWWorld::Ptr::getClass</text>
</a>
</g>
</g>
<!-- Node2&#45;&gt;Node7 -->
<g id="edge6" class="edge"><title>Node2&#45;&gt;Node7</title>
<path fill="none" stroke="midnightblue" d="M287.629,-174.918C304.562,-168.386 325.074,-161.087 344,-156 410.918,-138.013 488.957,-125.038 544.24,-117.148"/>
<polygon fill="midnightblue" stroke="midnightblue" points="544.875,-120.593 554.29,-115.734 543.899,-113.662 544.875,-120.593"/>
</g>
<!-- Node8 -->
<g id="node8" class="node"><title>Node8</title>
<g id="a_node8"><a xlink:href="classMWWorld_1_1Class.html#af1209aa1b5a2bf560a182fcc8a9e8547" target="_top" xlink:title="MWWorld::Class::getContainer\lStore">
<polygon fill="white" stroke="black" points="344,-224 344,-254 502,-254 502,-224 344,-224"/>
<text text-anchor="start" x="352" y="-242" font-family="FreeSans" font-size="10.00">MWWorld::Class::getContainer</text>
<text text-anchor="middle" x="423" y="-231" font-family="FreeSans" font-size="10.00">Store</text>
</a>
</g>
</g>
<!-- Node2&#45;&gt;Node8 -->
<g id="edge7" class="edge"><title>Node2&#45;&gt;Node8</title>
<path fill="none" stroke="midnightblue" d="M303.701,-205.101C321.419,-210.179 341.352,-215.89 359.734,-221.158"/>
<polygon fill="midnightblue" stroke="midnightblue" points="358.896,-224.558 369.473,-223.948 360.824,-217.829 358.896,-224.558"/>
</g>
<!-- Node9 -->
<g id="node9" class="node"><title>Node9</title>
<g id="a_node9"><a xlink:href="classMWWorld_1_1ContainerStore.html#aff176edbad26cdd416517a42a87a39ea" target="_top" xlink:title="MWWorld::ContainerStore\l::count">
<polygon fill="white" stroke="black" points="354.5,-273 354.5,-303 491.5,-303 491.5,-273 354.5,-273"/>
<text text-anchor="start" x="362.5" y="-291" font-family="FreeSans" font-size="10.00">MWWorld::ContainerStore</text>
<text text-anchor="middle" x="423" y="-280" font-family="FreeSans" font-size="10.00">::count</text>
</a>
</g>
</g>
<!-- Node2&#45;&gt;Node9 -->
<g id="edge8" class="edge"><title>Node2&#45;&gt;Node9</title>
<path fill="none" stroke="midnightblue" d="M266.559,-205.097C284.097,-221.389 314.083,-247.126 344,-263 348.177,-265.216 352.584,-267.278 357.092,-269.189"/>
<polygon fill="midnightblue" stroke="midnightblue" points="355.859,-272.465 366.445,-272.9 358.44,-265.959 355.859,-272.465"/>
</g>
<!-- Node12 -->
<g id="node12" class="node"><title>Node12</title>
<g id="a_node12"><a xlink:href="namespaceanonymous__namespace_02character_8cpp_03.html#a551df780ef62c57fe81b128fa596488c" target="_top" xlink:title="anonymous_namespace\l\{character::cpp\}::toString">
<polygon fill="white" stroke="black" points="546,-156 546,-186 688,-186 688,-156 546,-156"/>
<text text-anchor="start" x="554" y="-174" font-family="FreeSans" font-size="10.00">anonymous_namespace</text>
<text text-anchor="middle" x="617" y="-163" font-family="FreeSans" font-size="10.00">{character::cpp}::toString</text>
</a>
</g>
</g>
<!-- Node2&#45;&gt;Node12 -->
<g id="edge11" class="edge"><title>Node2&#45;&gt;Node12</title>
<path fill="none" stroke="midnightblue" d="M297.349,-174.977C312.097,-170.892 328.585,-167.036 344,-165 408.008,-156.547 481.209,-158.831 535.538,-162.797"/>
<polygon fill="midnightblue" stroke="midnightblue" points="535.561,-166.309 545.799,-163.582 536.096,-159.329 535.561,-166.309"/>
</g>
<!-- Node14 -->
<g id="node14" class="node"><title>Node14</title>
<g id="a_node14"><a xlink:href="classGui_1_1NumericEditBox.html#ab6befad079d96d9a4f1be04d399ff67b" target="_top" xlink:title="Gui::NumericEditBox\l::setValue">
<polygon fill="white" stroke="black" points="365.5,-175 365.5,-205 480.5,-205 480.5,-175 365.5,-175"/>
<text text-anchor="start" x="373.5" y="-193" font-family="FreeSans" font-size="10.00">Gui::NumericEditBox</text>
<text text-anchor="middle" x="423" y="-182" font-family="FreeSans" font-size="10.00">::setValue</text>
</a>
</g>
</g>
<!-- Node2&#45;&gt;Node14 -->
<g id="edge13" class="edge"><title>Node2&#45;&gt;Node14</title>
<path fill="none" stroke="midnightblue" d="M308.416,-190C323.459,-190 339.807,-190 355.289,-190"/>
<polygon fill="midnightblue" stroke="midnightblue" points="355.317,-193.5 365.316,-190 355.316,-186.5 355.317,-193.5"/>
</g>
<!-- Node15 -->
<g id="node15" class="node"><title>Node15</title>
<g id="a_node15"><a xlink:href="classMWGui_1_1TradeWindow.html#a096c1a0bed976abdd252ef2ec42817a3" target="_top" xlink:title="MWGui::TradeWindow\l::getMerchantGold">
<polygon fill="white" stroke="black" points="365,-49 365,-79 481,-79 481,-49 365,-49"/>
<text text-anchor="start" x="373" y="-67" font-family="FreeSans" font-size="10.00">MWGui::TradeWindow</text>
<text text-anchor="middle" x="423" y="-56" font-family="FreeSans" font-size="10.00">::getMerchantGold</text>
</a>
</g>
</g>
<!-- Node2&#45;&gt;Node15 -->
<g id="edge15" class="edge"><title>Node2&#45;&gt;Node15</title>
<path fill="none" stroke="midnightblue" d="M262.315,-174.688C278.397,-153.874 309.74,-116.654 344,-94 350.074,-89.9838 356.764,-86.3894 363.595,-83.2056"/>
<polygon fill="midnightblue" stroke="midnightblue" points="365.191,-86.328 372.954,-79.1176 362.389,-79.9133 365.191,-86.328"/>
</g>
<!-- Node4 -->
<g id="node4" class="node"><title>Node4</title>
<g id="a_node4"><a xlink:href="classMWBase_1_1Environment.html#a73f12633762b049c03c80fe215873faa" target="_top" xlink:title="Return instance of this class. ">
<polygon fill="white" stroke="black" points="544,-312.5 544,-331.5 690,-331.5 690,-312.5 544,-312.5"/>
<text text-anchor="middle" x="617" y="-319.5" font-family="FreeSans" font-size="10.00">MWBase::Environment::get</text>
</a>
</g>
</g>
<!-- Node3&#45;&gt;Node4 -->
<g id="edge3" class="edge"><title>Node3&#45;&gt;Node4</title>
<path fill="none" stroke="midnightblue" d="M487.134,-341.464C504.932,-338.776 524.445,-335.829 542.781,-333.059"/>
<polygon fill="midnightblue" stroke="midnightblue" points="543.463,-336.496 552.828,-331.542 542.418,-329.574 543.463,-336.496"/>
</g>
<!-- Node5 -->
<g id="node5" class="node"><title>Node5</title>
<g id="a_node5"><a xlink:href="classMWBase_1_1Environment.html#ae14e166d8f5ff8629be119333d502660" target="_top" xlink:title="MWBase::Environment\l::getWorld">
<polygon fill="white" stroke="black" points="555,-389 555,-419 679,-419 679,-389 555,-389"/>
<text text-anchor="start" x="563" y="-407" font-family="FreeSans" font-size="10.00">MWBase::Environment</text>
<text text-anchor="middle" x="617" y="-396" font-family="FreeSans" font-size="10.00">::getWorld</text>
</a>
</g>
</g>
<!-- Node3&#45;&gt;Node5 -->
<g id="edge4" class="edge"><title>Node3&#45;&gt;Node5</title>
<path fill="none" stroke="midnightblue" d="M458.77,-360.598C484.61,-367.731 520.609,-377.668 551.641,-386.234"/>
<polygon fill="midnightblue" stroke="midnightblue" points="550.952,-389.675 561.523,-388.962 552.815,-382.927 550.952,-389.675"/>
</g>
<!-- Node6 -->
<g id="node6" class="node"><title>Node6</title>
<g id="a_node6"><a xlink:href="classMWBase_1_1World.html#a95005e26dcb7b1f6dc906eb518b95762" target="_top" xlink:title="MWBase::World::getPlayerPtr">
<polygon fill="white" stroke="black" points="540.5,-350.5 540.5,-369.5 693.5,-369.5 693.5,-350.5 540.5,-350.5"/>
<text text-anchor="middle" x="617" y="-357.5" font-family="FreeSans" font-size="10.00">MWBase::World::getPlayerPtr</text>
</a>
</g>
</g>
<!-- Node3&#45;&gt;Node6 -->
<g id="edge5" class="edge"><title>Node3&#45;&gt;Node6</title>
<path fill="none" stroke="midnightblue" d="M490.076,-354.097C502.955,-354.701 516.633,-355.342 530.047,-355.971"/>
<polygon fill="midnightblue" stroke="midnightblue" points="530.082,-359.476 540.235,-356.449 530.41,-352.484 530.082,-359.476"/>
</g>
<!-- Node10 -->
<g id="node10" class="node"><title>Node10</title>
<g id="a_node10"><a xlink:href="classMisc_1_1StringUtils.html#a0f8cb0ac134191ba8417f74ab7dc4de6" target="_top" xlink:title="Misc::StringUtils::\lciEqual">
<polygon fill="white" stroke="black" points="567.5,-263 567.5,-293 666.5,-293 666.5,-263 567.5,-263"/>
<text text-anchor="start" x="575.5" y="-281" font-family="FreeSans" font-size="10.00">Misc::StringUtils::</text>
<text text-anchor="middle" x="617" y="-270" font-family="FreeSans" font-size="10.00">ciEqual</text>
</a>
</g>
</g>
<!-- Node9&#45;&gt;Node10 -->
<g id="edge9" class="edge"><title>Node9&#45;&gt;Node10</title>
<path fill="none" stroke="midnightblue" d="M491.692,-284.474C513.027,-283.363 536.411,-282.145 557.084,-281.069"/>
<polygon fill="midnightblue" stroke="midnightblue" points="557.503,-284.552 567.307,-280.536 557.138,-277.561 557.503,-284.552"/>
</g>
<!-- Node11 -->
<g id="node11" class="node"><title>Node11</title>
<g id="a_node11"><a xlink:href="classMisc_1_1StringUtils.html#a0759adb102842ee3bced227707eb6949" target="_top" xlink:title="Misc::StringUtils::\ltoLower">
<polygon fill="white" stroke="black" points="732.5,-263 732.5,-293 831.5,-293 831.5,-263 732.5,-263"/>
<text text-anchor="start" x="740.5" y="-281" font-family="FreeSans" font-size="10.00">Misc::StringUtils::</text>
<text text-anchor="middle" x="782" y="-270" font-family="FreeSans" font-size="10.00">toLower</text>
</a>
</g>
</g>
<!-- Node10&#45;&gt;Node11 -->
<g id="edge10" class="edge"><title>Node10&#45;&gt;Node11</title>
<path fill="none" stroke="midnightblue" d="M666.905,-278C684.31,-278 704.09,-278 722.235,-278"/>
<polygon fill="midnightblue" stroke="midnightblue" points="722.41,-281.5 732.41,-278 722.41,-274.5 722.41,-281.5"/>
</g>
<!-- Node13 -->
<g id="node13" class="node"><title>Node13</title>
<g id="a_node13"><a xlink:href="gen__iconv_8cpp.html#a47a14d9c2f599fa2591017202978774d" target="_top" xlink:title="num">
<polygon fill="white" stroke="black" points="763,-161.5 763,-180.5 801,-180.5 801,-161.5 763,-161.5"/>
<text text-anchor="middle" x="782" y="-168.5" font-family="FreeSans" font-size="10.00">num</text>
</a>
</g>
</g>
<!-- Node12&#45;&gt;Node13 -->
<g id="edge12" class="edge"><title>Node12&#45;&gt;Node13</title>
<path fill="none" stroke="midnightblue" d="M688.073,-171C710.903,-171 734.953,-171 752.866,-171"/>
<polygon fill="midnightblue" stroke="midnightblue" points="752.904,-174.5 762.904,-171 752.904,-167.5 752.904,-174.5"/>
</g>
<!-- Node14&#45;&gt;Node12 -->
<g id="edge14" class="edge"><title>Node14&#45;&gt;Node12</title>
<path fill="none" stroke="midnightblue" d="M480.568,-184.402C497.834,-182.693 517.161,-180.781 535.686,-178.948"/>
<polygon fill="midnightblue" stroke="midnightblue" points="536.27,-182.407 545.877,-177.939 535.581,-175.441 536.27,-182.407"/>
</g>
<!-- Node15&#45;&gt;Node7 -->
<g id="edge16" class="edge"><title>Node15&#45;&gt;Node7</title>
<path fill="none" stroke="midnightblue" d="M481.086,-77.0823C507.532,-83.1428 538.721,-90.2901 564.445,-96.1853"/>
<polygon fill="midnightblue" stroke="midnightblue" points="563.848,-99.6391 574.377,-98.4613 565.411,-92.8159 563.848,-99.6391"/>
</g>
<!-- Node16 -->
<g id="node16" class="node"><title>Node16</title>
<g id="a_node16"><a xlink:href="classMWWorld_1_1Class.html#a5095a30e5baa5742b3d393610fd73d60" target="_top" xlink:title="MWWorld::Class::getCreature\lStats">
<polygon fill="white" stroke="black" points="540,-49 540,-79 694,-79 694,-49 540,-49"/>
<text text-anchor="start" x="548" y="-67" font-family="FreeSans" font-size="10.00">MWWorld::Class::getCreature</text>
<text text-anchor="middle" x="617" y="-56" font-family="FreeSans" font-size="10.00">Stats</text>
</a>
</g>
</g>
<!-- Node15&#45;&gt;Node16 -->
<g id="edge17" class="edge"><title>Node15&#45;&gt;Node16</title>
<path fill="none" stroke="midnightblue" d="M481.086,-64C496.374,-64 513.246,-64 529.731,-64"/>
<polygon fill="midnightblue" stroke="midnightblue" points="529.928,-67.5001 539.928,-64 529.928,-60.5001 529.928,-67.5001"/>
</g>
<!-- Node17 -->
<g id="node17" class="node"><title>Node17</title>
<g id="a_node17"><a xlink:href="classMWMechanics_1_1CreatureStats.html#a86a79f6bee0ab6ffc653bf89eaebc9d7" target="_top" xlink:title="MWMechanics::CreatureStats\l::getGoldPool">
<polygon fill="white" stroke="black" points="538.5,-0 538.5,-30 695.5,-30 695.5,-0 538.5,-0"/>
<text text-anchor="start" x="546.5" y="-18" font-family="FreeSans" font-size="10.00">MWMechanics::CreatureStats</text>
<text text-anchor="middle" x="617" y="-7" font-family="FreeSans" font-size="10.00">::getGoldPool</text>
</a>
</g>
</g>
<!-- Node15&#45;&gt;Node17 -->
<g id="edge18" class="edge"><title>Node15&#45;&gt;Node17</title>
<path fill="none" stroke="midnightblue" d="M481.086,-49.4311C501.888,-44.1224 525.623,-38.0649 547.326,-32.5261"/>
<polygon fill="midnightblue" stroke="midnightblue" points="548.313,-35.8866 557.137,-30.0224 546.582,-29.104 548.313,-35.8866"/>
</g>
</g>
</svg>
