<?xml version="1.0" encoding="UTF-8" standalone="no"?>
<!DOCTYPE svg PUBLIC "-//W3C//DTD SVG 1.1//EN"
 "http://www.w3.org/Graphics/SVG/1.1/DTD/svg11.dtd">
<!-- Generated by graphviz version 2.36.0 (20140111.2315)
 -->
<!-- Title: CSVWorld::GenericCreator::cloneMode Pages: 1 -->
<svg width="336pt" height="234pt"
 viewBox="0.00 0.00 336.00 234.00" xmlns="http://www.w3.org/2000/svg" xmlns:xlink="http://www.w3.org/1999/xlink">
<g id="graph0" class="graph" transform="scale(1 1) rotate(0) translate(4 230)">
<title>CSVWorld::GenericCreator::cloneMode</title>
<polygon fill="white" stroke="none" points="-4,4 -4,-230 332,-230 332,4 -4,4"/>
<!-- Node1 -->
<g id="node1" class="node"><title>Node1</title>
<polygon fill="#bfbfbf" stroke="black" points="0.5,-98 0.5,-128 131.5,-128 131.5,-98 0.5,-98"/>
<text text-anchor="start" x="8.5" y="-116" font-family="FreeSans" font-size="10.00">CSVWorld::GenericCreator</text>
<text text-anchor="middle" x="66" y="-105" font-family="FreeSans" font-size="10.00">::cloneMode</text>
</g>
<!-- Node2 -->
<g id="node2" class="node"><title>Node2</title>
<g id="a_node2"><a xlink:href="classCSVWorld_1_1CellCreator.html#a674b87784ba3b76a85a4592166fd366b" target="_top" xlink:title="CSVWorld::CellCreator\l::cloneMode">
<polygon fill="white" stroke="black" points="191.5,-196 191.5,-226 304.5,-226 304.5,-196 191.5,-196"/>
<text text-anchor="start" x="199.5" y="-214" font-family="FreeSans" font-size="10.00">CSVWorld::CellCreator</text>
<text text-anchor="middle" x="248" y="-203" font-family="FreeSans" font-size="10.00">::cloneMode</text>
</a>
</g>
</g>
<!-- Node1&#45;&gt;Node2 -->
<g id="edge1" class="edge"><title>Node1&#45;&gt;Node2</title>
<path fill="none" stroke="midnightblue" d="M91.9468,-134.526C111.543,-150.538 140.097,-171.961 168,-186 175.453,-189.75 183.585,-193.084 191.704,-195.998"/>
<polygon fill="midnightblue" stroke="midnightblue" points="94.0547,-131.727 84.125,-128.032 89.5833,-137.113 94.0547,-131.727"/>
</g>
<!-- Node3 -->
<g id="node3" class="node"><title>Node3</title>
<g id="a_node3"><a xlink:href="classCSVWorld_1_1InfoCreator.html#ad0f2324ed02a7ff5e06d21a16dbba83f" target="_top" xlink:title="CSVWorld::InfoCreator\l::cloneMode">
<polygon fill="white" stroke="black" points="191.5,-147 191.5,-177 304.5,-177 304.5,-147 191.5,-147"/>
<text text-anchor="start" x="199.5" y="-165" font-family="FreeSans" font-size="10.00">CSVWorld::InfoCreator</text>
<text text-anchor="middle" x="248" y="-154" font-family="FreeSans" font-size="10.00">::cloneMode</text>
</a>
</g>
</g>
<!-- Node1&#45;&gt;Node3 -->
<g id="edge2" class="edge"><title>Node1&#45;&gt;Node3</title>
<path fill="none" stroke="midnightblue" d="M132.198,-130.748C151.707,-136.059 172.902,-141.829 191.708,-146.948"/>
<polygon fill="midnightblue" stroke="midnightblue" points="133.043,-127.351 122.475,-128.101 131.204,-134.105 133.043,-127.351"/>
</g>
<!-- Node4 -->
<g id="node4" class="node"><title>Node4</title>
<g id="a_node4"><a xlink:href="classCSVWorld_1_1ReferenceableCreator.html#adc8076ddbd9bde6a4e45e3db25c49528" target="_top" xlink:title="CSVWorld::ReferenceableCreator\l::cloneMode">
<polygon fill="white" stroke="black" points="168.5,-98 168.5,-128 327.5,-128 327.5,-98 168.5,-98"/>
<text text-anchor="start" x="176.5" y="-116" font-family="FreeSans" font-size="10.00">CSVWorld::ReferenceableCreator</text>
<text text-anchor="middle" x="248" y="-105" font-family="FreeSans" font-size="10.00">::cloneMode</text>
</a>
</g>
</g>
<!-- Node1&#45;&gt;Node4 -->
<g id="edge3" class="edge"><title>Node1&#45;&gt;Node4</title>
<path fill="none" stroke="midnightblue" d="M141.896,-113C150.651,-113 159.601,-113 168.404,-113"/>
<polygon fill="midnightblue" stroke="midnightblue" points="141.73,-109.5 131.73,-113 141.73,-116.5 141.73,-109.5"/>
</g>
<!-- Node5 -->
<g id="node5" class="node"><title>Node5</title>
<g id="a_node5"><a xlink:href="classCSVWorld_1_1ReferenceCreator.html#aafe2ea9619e1239e8a470af73119c1c5" target="_top" xlink:title="CSVWorld::ReferenceCreator\l::cloneMode">
<polygon fill="white" stroke="black" points="177.5,-49 177.5,-79 318.5,-79 318.5,-49 177.5,-49"/>
<text text-anchor="start" x="185.5" y="-67" font-family="FreeSans" font-size="10.00">CSVWorld::ReferenceCreator</text>
<text text-anchor="middle" x="248" y="-56" font-family="FreeSans" font-size="10.00">::cloneMode</text>
</a>
</g>
</g>
<!-- Node1&#45;&gt;Node5 -->
<g id="edge4" class="edge"><title>Node1&#45;&gt;Node5</title>
<path fill="none" stroke="midnightblue" d="M132.198,-95.2515C151.707,-89.9409 172.902,-84.1712 191.708,-79.0516"/>
<polygon fill="midnightblue" stroke="midnightblue" points="131.204,-91.8947 122.475,-97.8986 133.043,-98.649 131.204,-91.8947"/>
</g>
<!-- Node6 -->
<g id="node6" class="node"><title>Node6</title>
<g id="a_node6"><a xlink:href="classCSVWorld_1_1StartScriptCreator.html#a50b89ca85db86697fe45155612a4af31" target="_top" xlink:title="Set script ID input widget to ID of record to be cloned. ">
<polygon fill="white" stroke="black" points="176.5,-0 176.5,-30 319.5,-30 319.5,-0 176.5,-0"/>
<text text-anchor="start" x="184.5" y="-18" font-family="FreeSans" font-size="10.00">CSVWorld::StartScriptCreator</text>
<text text-anchor="middle" x="248" y="-7" font-family="FreeSans" font-size="10.00">::cloneMode</text>
</a>
</g>
</g>
<!-- Node1&#45;&gt;Node6 -->
<g id="edge5" class="edge"><title>Node1&#45;&gt;Node6</title>
<path fill="none" stroke="midnightblue" d="M91.9468,-91.4738C111.543,-75.4615 140.097,-54.0395 168,-40 175.453,-36.2498 183.585,-32.9157 191.704,-30.0015"/>
<polygon fill="midnightblue" stroke="midnightblue" points="89.5833,-88.887 84.125,-97.9677 94.0547,-94.2728 89.5833,-88.887"/>
</g>
</g>
</svg>
