<?xml version="1.0" encoding="UTF-8" standalone="no"?>
<!DOCTYPE svg PUBLIC "-//W3C//DTD SVG 1.1//EN"
 "http://www.w3.org/Graphics/SVG/1.1/DTD/svg11.dtd">
<!-- Generated by graphviz version 2.36.0 (20140111.2315)
 -->
<!-- Title: ESSImport::ConvertINFO::read Pages: 1 -->
<svg width="1624pt" height="363pt"
 viewBox="0.00 0.00 1624.00 362.76" xmlns="http://www.w3.org/2000/svg" xmlns:xlink="http://www.w3.org/1999/xlink">
<g id="graph0" class="graph" transform="scale(1 1) rotate(0) translate(4 358.758)">
<title>ESSImport::ConvertINFO::read</title>
<polygon fill="white" stroke="none" points="-4,4 -4,-358.758 1620,-358.758 1620,4 -4,4"/>
<!-- Node1 -->
<g id="node1" class="node"><title>Node1</title>
<polygon fill="#bfbfbf" stroke="black" points="0,-221 0,-251 134,-251 134,-221 0,-221"/>
<text text-anchor="start" x="8" y="-239" font-family="FreeSans" font-size="10.00">ESSImport::ConvertINFO</text>
<text text-anchor="middle" x="67" y="-228" font-family="FreeSans" font-size="10.00">::read</text>
</g>
<!-- Node2 -->
<g id="node2" class="node"><title>Node2</title>
<g id="a_node2"><a xlink:href="structESSImport_1_1INFO.html#ab7fcb7905e102db4b0a5464f2a3f31a2" target="_top" xlink:title="ESSImport::INFO::load">
<polygon fill="white" stroke="black" points="170,-226.5 170,-245.5 292,-245.5 292,-226.5 170,-226.5"/>
<text text-anchor="middle" x="231" y="-233.5" font-family="FreeSans" font-size="10.00">ESSImport::INFO::load</text>
</a>
</g>
</g>
<!-- Node1&#45;&gt;Node2 -->
<g id="edge1" class="edge"><title>Node1&#45;&gt;Node2</title>
<path fill="none" stroke="midnightblue" d="M134.359,-236C142.745,-236 151.348,-236 159.792,-236"/>
<polygon fill="midnightblue" stroke="midnightblue" points="159.987,-239.5 169.987,-236 159.987,-232.5 159.987,-239.5"/>
</g>
<!-- Node3 -->
<g id="node3" class="node"><title>Node3</title>
<g id="a_node3"><a xlink:href="classESM_1_1ESMReader.html#a0389fd3553a1e7a7da94b869780bca02" target="_top" xlink:title="ESM::ESMReader::getHNString">
<polygon fill="white" stroke="black" points="328.5,-226.5 328.5,-245.5 491.5,-245.5 491.5,-226.5 328.5,-226.5"/>
<text text-anchor="middle" x="410" y="-233.5" font-family="FreeSans" font-size="10.00">ESM::ESMReader::getHNString</text>
</a>
</g>
</g>
<!-- Node2&#45;&gt;Node3 -->
<g id="edge2" class="edge"><title>Node2&#45;&gt;Node3</title>
<path fill="none" stroke="midnightblue" d="M292.418,-236C300.696,-236 309.34,-236 318.015,-236"/>
<polygon fill="midnightblue" stroke="midnightblue" points="318.194,-239.5 328.194,-236 318.194,-232.5 318.194,-239.5"/>
</g>
<!-- Node4 -->
<g id="node4" class="node"><title>Node4</title>
<g id="a_node4"><a xlink:href="classESM_1_1ESMReader.html#ab60b38a81482ba22cac72e334055988f" target="_top" xlink:title="ESM::ESMReader::getSubNameIs">
<polygon fill="white" stroke="black" points="720.5,-269.5 720.5,-288.5 895.5,-288.5 895.5,-269.5 720.5,-269.5"/>
<text text-anchor="middle" x="808" y="-276.5" font-family="FreeSans" font-size="10.00">ESM::ESMReader::getSubNameIs</text>
</a>
</g>
</g>
<!-- Node3&#45;&gt;Node4 -->
<g id="edge3" class="edge"><title>Node3&#45;&gt;Node4</title>
<path fill="none" stroke="midnightblue" d="M491.614,-244.754C554.853,-251.62 643.096,-261.202 710.165,-268.485"/>
<polygon fill="midnightblue" stroke="midnightblue" points="710,-271.988 720.32,-269.588 710.756,-265.029 710,-271.988"/>
</g>
<!-- Node11 -->
<g id="node11" class="node"><title>Node11</title>
<g id="a_node11"><a xlink:href="classESM_1_1ESMReader.html#ab0b044c1028b117dfb0aae39135af948" target="_top" xlink:title="ESM::ESMReader::getHString">
<polygon fill="white" stroke="black" points="528.5,-196.5 528.5,-215.5 683.5,-215.5 683.5,-196.5 528.5,-196.5"/>
<text text-anchor="middle" x="606" y="-203.5" font-family="FreeSans" font-size="10.00">ESM::ESMReader::getHString</text>
</a>
</g>
</g>
<!-- Node3&#45;&gt;Node11 -->
<g id="edge12" class="edge"><title>Node3&#45;&gt;Node11</title>
<path fill="none" stroke="midnightblue" d="M472.649,-226.467C492.012,-223.472 513.551,-220.142 533.534,-217.051"/>
<polygon fill="midnightblue" stroke="midnightblue" points="534.163,-220.496 543.511,-215.509 533.094,-213.578 534.163,-220.496"/>
</g>
<!-- Node5 -->
<g id="node5" class="node"><title>Node5</title>
<g id="a_node5"><a xlink:href="classESM_1_1ESMReader.html#aa47320943a7a01bccbec8bab921b0df7" target="_top" xlink:title="ESM::ESMReader::getSubName">
<polygon fill="white" stroke="black" points="932.5,-265.5 932.5,-284.5 1099.5,-284.5 1099.5,-265.5 932.5,-265.5"/>
<text text-anchor="middle" x="1016" y="-272.5" font-family="FreeSans" font-size="10.00">ESM::ESMReader::getSubName</text>
</a>
</g>
</g>
<!-- Node4&#45;&gt;Node5 -->
<g id="edge4" class="edge"><title>Node4&#45;&gt;Node5</title>
<path fill="none" stroke="midnightblue" d="M895.765,-277.315C904.459,-277.146 913.311,-276.975 922.065,-276.805"/>
<polygon fill="midnightblue" stroke="midnightblue" points="922.351,-280.3 932.281,-276.606 922.215,-273.301 922.351,-280.3"/>
</g>
<!-- Node8 -->
<g id="node8" class="node"><title>Node8</title>
<g id="a_node8"><a xlink:href="classESM_1_1ESMReader.html#a641a33a8cba2fc61d6431505391c5975" target="_top" xlink:title="Used for error handling. ">
<polygon fill="white" stroke="black" points="1318.5,-253.5 1318.5,-272.5 1435.5,-272.5 1435.5,-253.5 1318.5,-253.5"/>
<text text-anchor="middle" x="1377" y="-260.5" font-family="FreeSans" font-size="10.00">ESM::ESMReader::fail</text>
</a>
</g>
</g>
<!-- Node4&#45;&gt;Node8 -->
<g id="edge10" class="edge"><title>Node4&#45;&gt;Node8</title>
<path fill="none" stroke="midnightblue" d="M843.451,-288.518C922.351,-308.787 1121.69,-351.274 1282,-312 1308.61,-305.481 1336.05,-289.977 1354.37,-278.14"/>
<polygon fill="midnightblue" stroke="midnightblue" points="1356.43,-280.97 1362.82,-272.516 1352.55,-275.142 1356.43,-280.97"/>
</g>
<!-- Node9 -->
<g id="node9" class="node"><title>Node9</title>
<g id="a_node9"><a xlink:href="classESM_1_1FIXED__STRING__BASE.html#ac6bed15d6c4aa261d961420d4af645c7" target="_top" xlink:title="ESM::FIXED_STRING_BASE\l::toString">
<polygon fill="white" stroke="black" points="1472.5,-301 1472.5,-331 1615.5,-331 1615.5,-301 1472.5,-301"/>
<text text-anchor="start" x="1480.5" y="-319" font-family="FreeSans" font-size="10.00">ESM::FIXED_STRING_BASE</text>
<text text-anchor="middle" x="1544" y="-308" font-family="FreeSans" font-size="10.00">::toString</text>
</a>
</g>
</g>
<!-- Node4&#45;&gt;Node9 -->
<g id="edge11" class="edge"><title>Node4&#45;&gt;Node9</title>
<path fill="none" stroke="midnightblue" d="M824.995,-288.555C847.803,-301.577 891.415,-324.275 932,-333 1118.5,-373.091 1344.35,-348.497 1462.33,-330.292"/>
<polygon fill="midnightblue" stroke="midnightblue" points="1463.03,-333.725 1472.37,-328.719 1461.94,-326.81 1463.03,-333.725"/>
</g>
<!-- Node6 -->
<g id="node6" class="node"><title>Node6</title>
<g id="a_node6"><a xlink:href="classESM_1_1FIXED__STRING__BASE.html#ab142a6277b602eba117776eb8e4c508c" target="_top" xlink:title="ESM::FIXED_STRING_BASE\l::data_size">
<polygon fill="white" stroke="black" points="1137.5,-273 1137.5,-303 1280.5,-303 1280.5,-273 1137.5,-273"/>
<text text-anchor="start" x="1145.5" y="-291" font-family="FreeSans" font-size="10.00">ESM::FIXED_STRING_BASE</text>
<text text-anchor="middle" x="1209" y="-280" font-family="FreeSans" font-size="10.00">::data_size</text>
</a>
</g>
</g>
<!-- Node5&#45;&gt;Node6 -->
<g id="edge5" class="edge"><title>Node5&#45;&gt;Node6</title>
<path fill="none" stroke="midnightblue" d="M1099.66,-280.626C1108.82,-281.25 1118.14,-281.884 1127.27,-282.505"/>
<polygon fill="midnightblue" stroke="midnightblue" points="1127.27,-286.013 1137.48,-283.2 1127.74,-279.029 1127.27,-286.013"/>
</g>
<!-- Node7 -->
<g id="node7" class="node"><title>Node7</title>
<g id="a_node7"><a xlink:href="classESM_1_1ESMReader.html#a623f3d4d7107adf94aeb7c234d01bc9e" target="_top" xlink:title="ESM::ESMReader::getExact">
<polygon fill="white" stroke="black" points="1136,-185.5 1136,-204.5 1282,-204.5 1282,-185.5 1136,-185.5"/>
<text text-anchor="middle" x="1209" y="-192.5" font-family="FreeSans" font-size="10.00">ESM::ESMReader::getExact</text>
</a>
</g>
</g>
<!-- Node5&#45;&gt;Node7 -->
<g id="edge6" class="edge"><title>Node5&#45;&gt;Node7</title>
<path fill="none" stroke="midnightblue" d="M1056.05,-265.489C1070.44,-261.057 1086.51,-254.968 1100,-247 1118.69,-235.959 1116.95,-224.406 1136,-214 1140.18,-211.718 1144.64,-209.7 1149.22,-207.917"/>
<polygon fill="midnightblue" stroke="midnightblue" points="1150.47,-211.19 1158.74,-204.576 1148.15,-204.585 1150.47,-211.19"/>
</g>
<!-- Node10 -->
<g id="node10" class="node"><title>Node10</title>
<g id="a_node10"><a xlink:href="structESM_1_1FIXED__STRING_3_014_01_4.html#a71af1f5e0756f2fa5b587bda6fc64ec3" target="_top" xlink:title="ESM::FIXED_STRING\&lt;\l 4 \&gt;::rw_data">
<polygon fill="white" stroke="black" points="1149.5,-224 1149.5,-254 1268.5,-254 1268.5,-224 1149.5,-224"/>
<text text-anchor="start" x="1157.5" y="-242" font-family="FreeSans" font-size="10.00">ESM::FIXED_STRING&lt;</text>
<text text-anchor="middle" x="1209" y="-231" font-family="FreeSans" font-size="10.00"> 4 &gt;::rw_data</text>
</a>
</g>
</g>
<!-- Node5&#45;&gt;Node10 -->
<g id="edge9" class="edge"><title>Node5&#45;&gt;Node10</title>
<path fill="none" stroke="midnightblue" d="M1067.43,-265.494C1089.48,-261.338 1115.69,-256.399 1139.47,-251.917"/>
<polygon fill="midnightblue" stroke="midnightblue" points="1140.31,-255.32 1149.49,-250.028 1139.02,-248.441 1140.31,-255.32"/>
</g>
<!-- Node7&#45;&gt;Node8 -->
<g id="edge7" class="edge"><title>Node7&#45;&gt;Node8</title>
<path fill="none" stroke="midnightblue" d="M1252.38,-204.505C1262.24,-207.175 1272.6,-210.36 1282,-214 1306.52,-223.49 1332.95,-237.648 1351.52,-248.308"/>
<polygon fill="midnightblue" stroke="midnightblue" points="1349.81,-251.363 1360.21,-253.373 1353.33,-245.314 1349.81,-251.363"/>
</g>
<!-- Node8&#45;&gt;Node9 -->
<g id="edge8" class="edge"><title>Node8&#45;&gt;Node9</title>
<path fill="none" stroke="midnightblue" d="M1407.88,-272.598C1429.8,-279.638 1460.22,-289.411 1486.65,-297.9"/>
<polygon fill="midnightblue" stroke="midnightblue" points="1485.59,-301.236 1496.18,-300.962 1487.73,-294.572 1485.59,-301.236"/>
</g>
<!-- Node11&#45;&gt;Node7 -->
<g id="edge17" class="edge"><title>Node11&#45;&gt;Node7</title>
<path fill="none" stroke="midnightblue" d="M683.605,-212.125C780.695,-218.768 953.11,-226.822 1100,-214 1117.76,-212.45 1136.97,-209.492 1154.2,-206.364"/>
<polygon fill="midnightblue" stroke="midnightblue" points="1154.91,-209.793 1164.09,-204.512 1153.62,-202.913 1154.91,-209.793"/>
</g>
<!-- Node12 -->
<g id="node12" class="node"><title>Node12</title>
<g id="a_node12"><a xlink:href="classESM_1_1ESMReader.html#a365650896a89c3dcb43b2f240e6d5653" target="_top" xlink:title="ESM::ESMReader::getSubHeader">
<polygon fill="white" stroke="black" points="721.5,-185.5 721.5,-204.5 894.5,-204.5 894.5,-185.5 721.5,-185.5"/>
<text text-anchor="middle" x="808" y="-192.5" font-family="FreeSans" font-size="10.00">ESM::ESMReader::getSubHeader</text>
</a>
</g>
</g>
<!-- Node11&#45;&gt;Node12 -->
<g id="edge13" class="edge"><title>Node11&#45;&gt;Node12</title>
<path fill="none" stroke="midnightblue" d="M683.753,-201.779C692.814,-201.28 702.144,-200.767 711.423,-200.257"/>
<polygon fill="midnightblue" stroke="midnightblue" points="711.664,-203.749 721.457,-199.705 711.28,-196.759 711.664,-203.749"/>
</g>
<!-- Node14 -->
<g id="node14" class="node"><title>Node14</title>
<g id="a_node14"><a xlink:href="classESM_1_1ESMReader.html#a8743de63f7c4cb6d89d82f38ba452127" target="_top" xlink:title="ESM::ESMReader::getString">
<polygon fill="white" stroke="black" points="734,-109.5 734,-128.5 882,-128.5 882,-109.5 734,-109.5"/>
<text text-anchor="middle" x="808" y="-116.5" font-family="FreeSans" font-size="10.00">ESM::ESMReader::getString</text>
</a>
</g>
</g>
<!-- Node11&#45;&gt;Node14 -->
<g id="edge18" class="edge"><title>Node11&#45;&gt;Node14</title>
<path fill="none" stroke="midnightblue" d="M629.168,-196.357C664.853,-180.834 735.143,-150.258 775.851,-132.55"/>
<polygon fill="midnightblue" stroke="midnightblue" points="777.264,-135.752 785.038,-128.554 774.472,-129.333 777.264,-135.752"/>
</g>
<!-- Node12&#45;&gt;Node8 -->
<g id="edge14" class="edge"><title>Node12&#45;&gt;Node8</title>
<path fill="none" stroke="midnightblue" d="M840.011,-185.479C917.714,-163.34 1125.7,-114.771 1282,-176 1317.33,-189.839 1347.32,-223.878 1363.4,-245.043"/>
<polygon fill="midnightblue" stroke="midnightblue" points="1360.67,-247.242 1369.41,-253.229 1366.31,-243.098 1360.67,-247.242"/>
</g>
<!-- Node13 -->
<g id="node13" class="node"><title>Node13</title>
<g id="a_node13"><a xlink:href="classESM_1_1ESMReader.html#a04b4761b24d98c455289c437d28baea8" target="_top" xlink:title="ESM::ESMReader::getT">
<polygon fill="white" stroke="black" points="953.5,-185.5 953.5,-204.5 1078.5,-204.5 1078.5,-185.5 953.5,-185.5"/>
<text text-anchor="middle" x="1016" y="-192.5" font-family="FreeSans" font-size="10.00">ESM::ESMReader::getT</text>
</a>
</g>
</g>
<!-- Node12&#45;&gt;Node13 -->
<g id="edge15" class="edge"><title>Node12&#45;&gt;Node13</title>
<path fill="none" stroke="midnightblue" d="M894.573,-195C910.714,-195 927.443,-195 943.112,-195"/>
<polygon fill="midnightblue" stroke="midnightblue" points="943.239,-198.5 953.239,-195 943.239,-191.5 943.239,-198.5"/>
</g>
<!-- Node13&#45;&gt;Node7 -->
<g id="edge16" class="edge"><title>Node13&#45;&gt;Node7</title>
<path fill="none" stroke="midnightblue" d="M1078.75,-195C1093.68,-195 1109.87,-195 1125.59,-195"/>
<polygon fill="midnightblue" stroke="midnightblue" points="1125.82,-198.5 1135.82,-195 1125.82,-191.5 1125.82,-198.5"/>
</g>
<!-- Node14&#45;&gt;Node7 -->
<g id="edge19" class="edge"><title>Node14&#45;&gt;Node7</title>
<path fill="none" stroke="midnightblue" d="M859.13,-128.548C932.543,-142.532 1069.1,-168.543 1147.83,-183.539"/>
<polygon fill="midnightblue" stroke="midnightblue" points="1147.6,-187.058 1158.08,-185.491 1148.91,-180.181 1147.6,-187.058"/>
</g>
<!-- Node15 -->
<g id="node15" class="node"><title>Node15</title>
<g id="a_node15"><a xlink:href="classToUTF8_1_1Utf8Encoder.html#a69a05afd17b7270edf61c1e5edce79e9" target="_top" xlink:title="ToUTF8::Utf8Encoder\l::getUtf8">
<polygon fill="white" stroke="black" points="958,-55 958,-85 1074,-85 1074,-55 958,-55"/>
<text text-anchor="start" x="966" y="-73" font-family="FreeSans" font-size="10.00">ToUTF8::Utf8Encoder</text>
<text text-anchor="middle" x="1016" y="-62" font-family="FreeSans" font-size="10.00">::getUtf8</text>
</a>
</g>
</g>
<!-- Node14&#45;&gt;Node15 -->
<g id="edge20" class="edge"><title>Node14&#45;&gt;Node15</title>
<path fill="none" stroke="midnightblue" d="M849.208,-109.436C877.222,-102.773 915.256,-93.7255 947.829,-85.9775"/>
<polygon fill="midnightblue" stroke="midnightblue" points="948.827,-89.3379 957.746,-83.6187 947.207,-82.5279 948.827,-89.3379"/>
</g>
<!-- Node16 -->
<g id="node16" class="node"><title>Node16</title>
<g id="a_node16"><a xlink:href="classToUTF8_1_1Utf8Encoder.html#a1dd97261b538a0a33218d31c82c37f74" target="_top" xlink:title="ToUTF8::Utf8Encoder\l::getLength">
<polygon fill="white" stroke="black" points="1151,-0 1151,-30 1267,-30 1267,-0 1151,-0"/>
<text text-anchor="start" x="1159" y="-18" font-family="FreeSans" font-size="10.00">ToUTF8::Utf8Encoder</text>
<text text-anchor="middle" x="1209" y="-7" font-family="FreeSans" font-size="10.00">::getLength</text>
</a>
</g>
</g>
<!-- Node15&#45;&gt;Node16 -->
<g id="edge21" class="edge"><title>Node15&#45;&gt;Node16</title>
<path fill="none" stroke="midnightblue" d="M1069.19,-54.971C1092.98,-48.1199 1121.33,-39.9586 1146.18,-32.8022"/>
<polygon fill="midnightblue" stroke="midnightblue" points="1147.23,-36.1414 1155.87,-30.0108 1145.29,-29.4147 1147.23,-36.1414"/>
</g>
<!-- Node17 -->
<g id="node17" class="node"><title>Node17</title>
<g id="a_node17"><a xlink:href="classToUTF8_1_1Utf8Encoder.html#a80b3e05967c1f28c1ce5325093bda679" target="_top" xlink:title="ToUTF8::Utf8Encoder\l::resize">
<polygon fill="white" stroke="black" points="1151,-98 1151,-128 1267,-128 1267,-98 1151,-98"/>
<text text-anchor="start" x="1159" y="-116" font-family="FreeSans" font-size="10.00">ToUTF8::Utf8Encoder</text>
<text text-anchor="middle" x="1209" y="-105" font-family="FreeSans" font-size="10.00">::resize</text>
</a>
</g>
</g>
<!-- Node15&#45;&gt;Node17 -->
<g id="edge22" class="edge"><title>Node15&#45;&gt;Node17</title>
<path fill="none" stroke="midnightblue" d="M1074.05,-82.8432C1095.11,-87.586 1119.18,-93.0035 1141.04,-97.9261"/>
<polygon fill="midnightblue" stroke="midnightblue" points="1140.39,-101.367 1150.92,-100.149 1141.93,-94.5378 1140.39,-101.367"/>
</g>
<!-- Node18 -->
<g id="node18" class="node"><title>Node18</title>
<g id="a_node18"><a xlink:href="classToUTF8_1_1Utf8Encoder.html#a203f6c96dde89ec98b709f3e4f95c1f6" target="_top" xlink:title="ToUTF8::Utf8Encoder\l::copyFromArray">
<polygon fill="white" stroke="black" points="1151,-49 1151,-79 1267,-79 1267,-49 1151,-49"/>
<text text-anchor="start" x="1159" y="-67" font-family="FreeSans" font-size="10.00">ToUTF8::Utf8Encoder</text>
<text text-anchor="middle" x="1209" y="-56" font-family="FreeSans" font-size="10.00">::copyFromArray</text>
</a>
</g>
</g>
<!-- Node15&#45;&gt;Node18 -->
<g id="edge23" class="edge"><title>Node15&#45;&gt;Node18</title>
<path fill="none" stroke="midnightblue" d="M1074.05,-68.2079C1095.02,-67.5491 1118.96,-66.797 1140.75,-66.1126"/>
<polygon fill="midnightblue" stroke="midnightblue" points="1141.03,-69.6055 1150.92,-65.7932 1140.81,-62.609 1141.03,-69.6055"/>
</g>
</g>
</svg>
