<?xml version="1.0" encoding="UTF-8" standalone="no"?>
<!DOCTYPE svg PUBLIC "-//W3C//DTD SVG 1.1//EN"
 "http://www.w3.org/Graphics/SVG/1.1/DTD/svg11.dtd">
<!-- Generated by graphviz version 2.36.0 (20140111.2315)
 -->
<!-- Title: MWGui::HUD::unsetSelectedWeapon Pages: 1 -->
<svg width="564pt" height="329pt"
 viewBox="0.00 0.00 564.00 329.00" xmlns="http://www.w3.org/2000/svg" xmlns:xlink="http://www.w3.org/1999/xlink">
<g id="graph0" class="graph" transform="scale(1 1) rotate(0) translate(4 325)">
<title>MWGui::HUD::unsetSelectedWeapon</title>
<polygon fill="white" stroke="none" points="-4,4 -4,-325 560,-325 560,4 -4,4"/>
<!-- Node1 -->
<g id="node1" class="node"><title>Node1</title>
<polygon fill="#bfbfbf" stroke="black" points="0,-148 0,-178 152,-178 152,-148 0,-148"/>
<text text-anchor="start" x="8" y="-166" font-family="FreeSans" font-size="10.00">MWGui::HUD::unsetSelected</text>
<text text-anchor="middle" x="76" y="-155" font-family="FreeSans" font-size="10.00">Weapon</text>
</g>
<!-- Node2 -->
<g id="node2" class="node"><title>Node2</title>
<g id="a_node2"><a xlink:href="classMWBase_1_1Environment.html#a73f12633762b049c03c80fe215873faa" target="_top" xlink:title="Return instance of this class. ">
<polygon fill="white" stroke="black" points="193,-301.5 193,-320.5 339,-320.5 339,-301.5 193,-301.5"/>
<text text-anchor="middle" x="266" y="-308.5" font-family="FreeSans" font-size="10.00">MWBase::Environment::get</text>
</a>
</g>
</g>
<!-- Node1&#45;&gt;Node2 -->
<g id="edge1" class="edge"><title>Node1&#45;&gt;Node2</title>
<path fill="none" stroke="midnightblue" d="M85.8597,-178.262C102.369,-205.301 140.51,-261.538 188,-291 192.181,-293.594 196.69,-295.853 201.354,-297.821"/>
<polygon fill="midnightblue" stroke="midnightblue" points="200.498,-301.237 211.09,-301.463 202.951,-294.681 200.498,-301.237"/>
</g>
<!-- Node3 -->
<g id="node3" class="node"><title>Node3</title>
<g id="a_node3"><a xlink:href="classMWBase_1_1Environment.html#ae14e166d8f5ff8629be119333d502660" target="_top" xlink:title="MWBase::Environment\l::getWorld">
<polygon fill="white" stroke="black" points="204,-252 204,-282 328,-282 328,-252 204,-252"/>
<text text-anchor="start" x="212" y="-270" font-family="FreeSans" font-size="10.00">MWBase::Environment</text>
<text text-anchor="middle" x="266" y="-259" font-family="FreeSans" font-size="10.00">::getWorld</text>
</a>
</g>
</g>
<!-- Node1&#45;&gt;Node3 -->
<g id="edge2" class="edge"><title>Node1&#45;&gt;Node3</title>
<path fill="none" stroke="midnightblue" d="M94.7482,-178.255C115.793,-195.697 152.504,-224.137 188,-242 192.514,-244.272 197.279,-246.398 202.135,-248.376"/>
<polygon fill="midnightblue" stroke="midnightblue" points="200.954,-251.672 211.544,-251.994 203.467,-245.138 200.954,-251.672"/>
</g>
<!-- Node4 -->
<g id="node4" class="node"><title>Node4</title>
<g id="a_node4"><a xlink:href="classMWBase_1_1World.html#a95005e26dcb7b1f6dc906eb518b95762" target="_top" xlink:title="MWBase::World::getPlayerPtr">
<polygon fill="white" stroke="black" points="189.5,-213.5 189.5,-232.5 342.5,-232.5 342.5,-213.5 189.5,-213.5"/>
<text text-anchor="middle" x="266" y="-220.5" font-family="FreeSans" font-size="10.00">MWBase::World::getPlayerPtr</text>
</a>
</g>
</g>
<!-- Node1&#45;&gt;Node4 -->
<g id="edge3" class="edge"><title>Node1&#45;&gt;Node4</title>
<path fill="none" stroke="midnightblue" d="M122.866,-178.006C142.855,-184.512 166.57,-192.185 188,-199 199.78,-202.746 212.592,-206.763 224.324,-210.417"/>
<polygon fill="midnightblue" stroke="midnightblue" points="223.29,-213.761 233.878,-213.389 225.369,-207.077 223.29,-213.761"/>
</g>
<!-- Node5 -->
<g id="node5" class="node"><title>Node5</title>
<g id="a_node5"><a xlink:href="classMWGui_1_1ItemWidget.html#a5f711291cd5dcf91b47b1471642000dd" target="_top" xlink:title="ptr may be empty ">
<polygon fill="white" stroke="black" points="208.5,-126 208.5,-156 323.5,-156 323.5,-126 208.5,-126"/>
<text text-anchor="start" x="216.5" y="-144" font-family="FreeSans" font-size="10.00">MWGui::ItemWidget::</text>
<text text-anchor="middle" x="266" y="-133" font-family="FreeSans" font-size="10.00">setItem</text>
</a>
</g>
</g>
<!-- Node1&#45;&gt;Node5 -->
<g id="edge4" class="edge"><title>Node1&#45;&gt;Node5</title>
<path fill="none" stroke="midnightblue" d="M152.113,-154.21C167.32,-152.431 183.215,-150.571 198.116,-148.827"/>
<polygon fill="midnightblue" stroke="midnightblue" points="198.727,-152.279 208.253,-147.641 197.914,-145.327 198.727,-152.279"/>
</g>
<!-- Node7 -->
<g id="node7" class="node"><title>Node7</title>
<g id="a_node7"><a xlink:href="classMWWorld_1_1Ptr.html#aa2ac4a5579cd19eaa780596f4543ea46" target="_top" xlink:title="MWWorld::Ptr::getClass">
<polygon fill="white" stroke="black" points="405.5,-207.5 405.5,-226.5 530.5,-226.5 530.5,-207.5 405.5,-207.5"/>
<text text-anchor="middle" x="468" y="-214.5" font-family="FreeSans" font-size="10.00">MWWorld::Ptr::getClass</text>
</a>
</g>
</g>
<!-- Node1&#45;&gt;Node7 -->
<g id="edge10" class="edge"><title>Node1&#45;&gt;Node7</title>
<path fill="none" stroke="midnightblue" d="M152.196,-173.412C222.449,-183.139 326.575,-197.557 395.581,-207.111"/>
<polygon fill="midnightblue" stroke="midnightblue" points="395.114,-210.58 405.499,-208.485 396.074,-203.646 395.114,-210.58"/>
</g>
<!-- Node10 -->
<g id="node10" class="node"><title>Node10</title>
<g id="a_node10"><a xlink:href="classMWGui_1_1ItemWidget.html#a3f47473fba1f4622712370bc4ee723ad" target="_top" xlink:title="MWGui::ItemWidget::\lsetIcon">
<polygon fill="white" stroke="black" points="410.5,-33 410.5,-63 525.5,-63 525.5,-33 410.5,-33"/>
<text text-anchor="start" x="418.5" y="-51" font-family="FreeSans" font-size="10.00">MWGui::ItemWidget::</text>
<text text-anchor="middle" x="468" y="-40" font-family="FreeSans" font-size="10.00">setIcon</text>
</a>
</g>
</g>
<!-- Node1&#45;&gt;Node10 -->
<g id="edge13" class="edge"><title>Node1&#45;&gt;Node10</title>
<path fill="none" stroke="midnightblue" d="M109.539,-147.994C131.407,-138.29 161.05,-125.861 188,-117 193.135,-115.312 319.226,-84.276 400.121,-64.409"/>
<polygon fill="midnightblue" stroke="midnightblue" points="401.363,-67.7081 410.24,-61.9243 399.694,-60.91 401.363,-67.7081"/>
</g>
<!-- Node11 -->
<g id="node11" class="node"><title>Node11</title>
<g id="a_node11"><a xlink:href="classMWWorld_1_1Class.html#a288815e0879a88ccd87b4871be64202b" target="_top" xlink:title="MWWorld::Class::getNpcStats">
<polygon fill="white" stroke="black" points="188,-49.5 188,-68.5 344,-68.5 344,-49.5 188,-49.5"/>
<text text-anchor="middle" x="266" y="-56.5" font-family="FreeSans" font-size="10.00">MWWorld::Class::getNpcStats</text>
</a>
</g>
</g>
<!-- Node1&#45;&gt;Node11 -->
<g id="edge11" class="edge"><title>Node1&#45;&gt;Node11</title>
<path fill="none" stroke="midnightblue" d="M94.303,-147.778C115.216,-130.059 152.088,-100.942 188,-83 196.739,-78.6341 206.433,-74.8654 215.914,-71.6926"/>
<polygon fill="midnightblue" stroke="midnightblue" points="217.191,-74.9594 225.666,-68.6019 215.076,-68.2865 217.191,-74.9594"/>
</g>
<!-- Node12 -->
<g id="node12" class="node"><title>Node12</title>
<g id="a_node12"><a xlink:href="classMWMechanics_1_1NpcStats.html#af1693fef2b49c958fec69ec5a462b8c1" target="_top" xlink:title="MWMechanics::NpcStats\l::isWerewolf">
<polygon fill="white" stroke="black" points="199,-0 199,-30 333,-30 333,-0 199,-0"/>
<text text-anchor="start" x="207" y="-18" font-family="FreeSans" font-size="10.00">MWMechanics::NpcStats</text>
<text text-anchor="middle" x="266" y="-7" font-family="FreeSans" font-size="10.00">::isWerewolf</text>
</a>
</g>
</g>
<!-- Node1&#45;&gt;Node12 -->
<g id="edge12" class="edge"><title>Node1&#45;&gt;Node12</title>
<path fill="none" stroke="midnightblue" d="M86.7309,-147.803C104.033,-121.965 142.628,-69.4216 188,-40 191.132,-37.9688 194.444,-36.0899 197.863,-34.3537"/>
<polygon fill="midnightblue" stroke="midnightblue" points="199.504,-37.4512 207.119,-30.0841 196.572,-31.0949 199.504,-37.4512"/>
</g>
<!-- Node6 -->
<g id="node6" class="node"><title>Node6</title>
<g id="a_node6"><a xlink:href="classMWWorld_1_1Ptr.html#a0662c1165166221fd0f874e37ac24613" target="_top" xlink:title="MWWorld::Ptr::isEmpty">
<polygon fill="white" stroke="black" points="407,-169.5 407,-188.5 529,-188.5 529,-169.5 407,-169.5"/>
<text text-anchor="middle" x="468" y="-176.5" font-family="FreeSans" font-size="10.00">MWWorld::Ptr::isEmpty</text>
</a>
</g>
</g>
<!-- Node5&#45;&gt;Node6 -->
<g id="edge5" class="edge"><title>Node5&#45;&gt;Node6</title>
<path fill="none" stroke="midnightblue" d="M323.51,-151.737C349.526,-156.68 380.42,-162.55 406.866,-167.575"/>
<polygon fill="midnightblue" stroke="midnightblue" points="406.287,-171.027 416.765,-169.455 407.594,-164.15 406.287,-171.027"/>
</g>
<!-- Node5&#45;&gt;Node7 -->
<g id="edge6" class="edge"><title>Node5&#45;&gt;Node7</title>
<path fill="none" stroke="midnightblue" d="M311.918,-156.132C322.688,-160.4 333.969,-165.422 344,-171 361.479,-180.72 361.815,-189.676 380,-198 385.403,-200.473 391.145,-202.632 397.003,-204.515"/>
<polygon fill="midnightblue" stroke="midnightblue" points="396.348,-207.971 406.929,-207.431 398.321,-201.255 396.348,-207.971"/>
</g>
<!-- Node8 -->
<g id="node8" class="node"><title>Node8</title>
<g id="a_node8"><a xlink:href="classMWWorld_1_1Class.html#a0ebc789aa414ffebfd4d5c86f9523042" target="_top" xlink:title="MWWorld::Class::getEnchantment">
<polygon fill="white" stroke="black" points="380,-131.5 380,-150.5 556,-150.5 556,-131.5 380,-131.5"/>
<text text-anchor="middle" x="468" y="-138.5" font-family="FreeSans" font-size="10.00">MWWorld::Class::getEnchantment</text>
</a>
</g>
</g>
<!-- Node5&#45;&gt;Node8 -->
<g id="edge7" class="edge"><title>Node5&#45;&gt;Node8</title>
<path fill="none" stroke="midnightblue" d="M323.51,-141C337.913,-141 353.811,-141 369.621,-141"/>
<polygon fill="midnightblue" stroke="midnightblue" points="369.982,-144.5 379.982,-141 369.982,-137.5 369.982,-144.5"/>
</g>
<!-- Node9 -->
<g id="node9" class="node"><title>Node9</title>
<g id="a_node9"><a xlink:href="classMWGui_1_1ItemWidget.html#a337efa47c7a34bd2b5238ccfcee39dc5" target="_top" xlink:title="MWGui::ItemWidget::\lsetFrame">
<polygon fill="white" stroke="black" points="410.5,-82 410.5,-112 525.5,-112 525.5,-82 410.5,-82"/>
<text text-anchor="start" x="418.5" y="-100" font-family="FreeSans" font-size="10.00">MWGui::ItemWidget::</text>
<text text-anchor="middle" x="468" y="-89" font-family="FreeSans" font-size="10.00">setFrame</text>
</a>
</g>
</g>
<!-- Node5&#45;&gt;Node9 -->
<g id="edge8" class="edge"><title>Node5&#45;&gt;Node9</title>
<path fill="none" stroke="midnightblue" d="M323.51,-128.568C347.368,-123.319 375.328,-117.168 400.198,-111.696"/>
<polygon fill="midnightblue" stroke="midnightblue" points="401.269,-115.045 410.283,-109.478 399.765,-108.208 401.269,-115.045"/>
</g>
<!-- Node5&#45;&gt;Node10 -->
<g id="edge9" class="edge"><title>Node5&#45;&gt;Node10</title>
<path fill="none" stroke="midnightblue" d="M315.522,-125.972C325.368,-121.875 335.347,-116.9 344,-111 363.49,-97.7109 359.856,-84.2748 380,-72 386.347,-68.1323 393.329,-64.874 400.493,-62.1319"/>
<polygon fill="midnightblue" stroke="midnightblue" points="402.041,-65.2992 410.332,-58.7039 399.737,-58.6889 402.041,-65.2992"/>
</g>
</g>
</svg>
