<?xml version="1.0" encoding="UTF-8" standalone="no"?>
<!DOCTYPE svg PUBLIC "-//W3C//DTD SVG 1.1//EN"
 "http://www.w3.org/Graphics/SVG/1.1/DTD/svg11.dtd">
<!-- Generated by graphviz version 2.36.0 (20140111.2315)
 -->
<!-- Title: MWWorld::Ptr::getBase Pages: 1 -->
<svg width="336pt" height="195pt"
 viewBox="0.00 0.00 336.00 195.00" xmlns="http://www.w3.org/2000/svg" xmlns:xlink="http://www.w3.org/1999/xlink">
<g id="graph0" class="graph" transform="scale(1 1) rotate(0) translate(4 191)">
<title>MWWorld::Ptr::getBase</title>
<polygon fill="white" stroke="none" points="-4,4 -4,-191 332,-191 332,4 -4,4"/>
<!-- Node1 -->
<g id="node1" class="node"><title>Node1</title>
<polygon fill="#bfbfbf" stroke="black" points="0,-81.5 0,-100.5 124,-100.5 124,-81.5 0,-81.5"/>
<text text-anchor="middle" x="62" y="-88.5" font-family="FreeSans" font-size="10.00">MWWorld::Ptr::getBase</text>
</g>
<!-- Node2 -->
<g id="node2" class="node"><title>Node2</title>
<g id="a_node2"><a xlink:href="classMWRender_1_1InventoryPreview.html#a857d8e14041b45e9cb21ea2c73f16ece" target="_top" xlink:title="MWRender::InventoryPreview\l::updatePtr">
<polygon fill="white" stroke="black" points="168,-157 168,-187 320,-187 320,-157 168,-157"/>
<text text-anchor="start" x="176" y="-175" font-family="FreeSans" font-size="10.00">MWRender::InventoryPreview</text>
<text text-anchor="middle" x="244" y="-164" font-family="FreeSans" font-size="10.00">::updatePtr</text>
</a>
</g>
</g>
<!-- Node1&#45;&gt;Node2 -->
<g id="edge1" class="edge"><title>Node1&#45;&gt;Node2</title>
<path fill="none" stroke="midnightblue" d="M85.8604,-106.226C105.035,-118.493 133.464,-135.528 160,-147 168.426,-150.643 177.549,-153.969 186.559,-156.923"/>
<polygon fill="midnightblue" stroke="midnightblue" points="87.5339,-103.14 77.2401,-100.633 83.7236,-109.012 87.5339,-103.14"/>
</g>
<!-- Node3 -->
<g id="node3" class="node"><title>Node3</title>
<g id="a_node3"><a xlink:href="structanonymous__namespace_02cellstore_8cpp_03_1_1SearchByRefNumVisitor.html#ac20761646846cc24a4c569e20036cb81" target="_top" xlink:title="anonymous_namespace\l\{cellstore::cpp\}::SearchBy\lRefNumVisitor::operator()">
<polygon fill="white" stroke="black" points="172,-97.5 172,-138.5 316,-138.5 316,-97.5 172,-97.5"/>
<text text-anchor="start" x="180" y="-126.5" font-family="FreeSans" font-size="10.00">anonymous_namespace</text>
<text text-anchor="start" x="180" y="-115.5" font-family="FreeSans" font-size="10.00">{cellstore::cpp}::SearchBy</text>
<text text-anchor="middle" x="244" y="-104.5" font-family="FreeSans" font-size="10.00">RefNumVisitor::operator()</text>
</a>
</g>
</g>
<!-- Node1&#45;&gt;Node3 -->
<g id="edge2" class="edge"><title>Node1&#45;&gt;Node3</title>
<path fill="none" stroke="midnightblue" d="M134.38,-101.707C146.671,-103.551 159.447,-105.467 171.735,-107.31"/>
<polygon fill="midnightblue" stroke="midnightblue" points="134.6,-98.2009 124.191,-100.179 133.561,-105.123 134.6,-98.2009"/>
</g>
<!-- Node4 -->
<g id="node4" class="node"><title>Node4</title>
<g id="a_node4"><a xlink:href="structMWWorld_1_1MergeVisitor.html#ae757346a5899f7f7510025433883259b" target="_top" xlink:title="MWWorld::MergeVisitor\l::operator()">
<polygon fill="white" stroke="black" points="181.5,-49 181.5,-79 306.5,-79 306.5,-49 181.5,-49"/>
<text text-anchor="start" x="189.5" y="-67" font-family="FreeSans" font-size="10.00">MWWorld::MergeVisitor</text>
<text text-anchor="middle" x="244" y="-56" font-family="FreeSans" font-size="10.00">::operator()</text>
</a>
</g>
</g>
<!-- Node1&#45;&gt;Node4 -->
<g id="edge3" class="edge"><title>Node1&#45;&gt;Node4</title>
<path fill="none" stroke="midnightblue" d="M134.289,-80.3066C149.859,-77.9711 166.211,-75.5184 181.367,-73.245"/>
<polygon fill="midnightblue" stroke="midnightblue" points="133.561,-76.8766 124.191,-81.8214 134.6,-83.7991 133.561,-76.8766"/>
</g>
<!-- Node5 -->
<g id="node5" class="node"><title>Node5</title>
<g id="a_node5"><a xlink:href="structMWWorld_1_1GetDoorMarkerVisitor.html#ae62fe49e2c547a0798f53a2748119261" target="_top" xlink:title="MWWorld::GetDoorMarkerVisitor\l::operator()">
<polygon fill="white" stroke="black" points="160,-0 160,-30 328,-30 328,-0 160,-0"/>
<text text-anchor="start" x="168" y="-18" font-family="FreeSans" font-size="10.00">MWWorld::GetDoorMarkerVisitor</text>
<text text-anchor="middle" x="244" y="-7" font-family="FreeSans" font-size="10.00">::operator()</text>
</a>
</g>
</g>
<!-- Node1&#45;&gt;Node5 -->
<g id="edge4" class="edge"><title>Node1&#45;&gt;Node5</title>
<path fill="none" stroke="midnightblue" d="M87.7426,-76.2988C106.977,-65.2907 134.576,-50.4003 160,-40 168.775,-36.4103 178.258,-33.0733 187.569,-30.0821"/>
<polygon fill="midnightblue" stroke="midnightblue" points="85.9159,-73.3121 79.0183,-81.3542 89.4255,-79.3687 85.9159,-73.3121"/>
</g>
</g>
</svg>
