<?xml version="1.0" encoding="UTF-8" standalone="no"?>
<!DOCTYPE svg PUBLIC "-//W3C//DTD SVG 1.1//EN"
 "http://www.w3.org/Graphics/SVG/1.1/DTD/svg11.dtd">
<!-- Generated by graphviz version 2.36.0 (20140111.2315)
 -->
<!-- Title: CSMPrefs::ShortcutManager::setModifier Pages: 1 -->
<svg width="646pt" height="38pt"
 viewBox="0.00 0.00 646.00 38.00" xmlns="http://www.w3.org/2000/svg" xmlns:xlink="http://www.w3.org/1999/xlink">
<g id="graph0" class="graph" transform="scale(1 1) rotate(0) translate(4 34)">
<title>CSMPrefs::ShortcutManager::setModifier</title>
<polygon fill="white" stroke="none" points="-4,4 -4,-34 642,-34 642,4 -4,4"/>
<!-- Node1 -->
<g id="node1" class="node"><title>Node1</title>
<polygon fill="#bfbfbf" stroke="black" points="0,-0 0,-30 140,-30 140,-0 0,-0"/>
<text text-anchor="start" x="8" y="-18" font-family="FreeSans" font-size="10.00">CSMPrefs::ShortcutManager</text>
<text text-anchor="middle" x="70" y="-7" font-family="FreeSans" font-size="10.00">::setModifier</text>
</g>
<!-- Node2 -->
<g id="node2" class="node"><title>Node2</title>
<g id="a_node2"><a xlink:href="classCSMPrefs_1_1ModifierSetting.html#aceee508ee272fe31a8c8380d6677fc3b" target="_top" xlink:title="CSMPrefs::ModifierSetting\l::storeValue">
<polygon fill="white" stroke="black" points="176,-0 176,-30 306,-30 306,-0 176,-0"/>
<text text-anchor="start" x="184" y="-18" font-family="FreeSans" font-size="10.00">CSMPrefs::ModifierSetting</text>
<text text-anchor="middle" x="241" y="-7" font-family="FreeSans" font-size="10.00">::storeValue</text>
</a>
</g>
</g>
<!-- Node1&#45;&gt;Node2 -->
<g id="edge1" class="edge"><title>Node1&#45;&gt;Node2</title>
<path fill="none" stroke="midnightblue" d="M150.503,-15C158.974,-15 167.513,-15 175.776,-15"/>
<polygon fill="midnightblue" stroke="midnightblue" points="150.226,-11.5001 140.226,-15 150.226,-18.5001 150.226,-11.5001"/>
</g>
<!-- Node3 -->
<g id="node3" class="node"><title>Node3</title>
<g id="a_node3"><a xlink:href="classCSMPrefs_1_1ModifierSetting.html#af8e9f24310abf7976da515c4dd765e51" target="_top" xlink:title="CSMPrefs::ModifierSetting\l::handleEvent">
<polygon fill="white" stroke="black" points="342,-0 342,-30 472,-30 472,-0 342,-0"/>
<text text-anchor="start" x="350" y="-18" font-family="FreeSans" font-size="10.00">CSMPrefs::ModifierSetting</text>
<text text-anchor="middle" x="407" y="-7" font-family="FreeSans" font-size="10.00">::handleEvent</text>
</a>
</g>
</g>
<!-- Node2&#45;&gt;Node3 -->
<g id="edge2" class="edge"><title>Node2&#45;&gt;Node3</title>
<path fill="none" stroke="midnightblue" d="M316.564,-15C325.004,-15 333.549,-15 341.839,-15"/>
<polygon fill="midnightblue" stroke="midnightblue" points="316.346,-11.5001 306.346,-15 316.346,-18.5001 316.346,-11.5001"/>
</g>
<!-- Node4 -->
<g id="node4" class="node"><title>Node4</title>
<g id="a_node4"><a xlink:href="classCSMPrefs_1_1ModifierSetting.html#a21a767447959398e69d33ebdac8900b8" target="_top" xlink:title="CSMPrefs::ModifierSetting\l::eventFilter">
<polygon fill="white" stroke="black" points="508,-0 508,-30 638,-30 638,-0 508,-0"/>
<text text-anchor="start" x="516" y="-18" font-family="FreeSans" font-size="10.00">CSMPrefs::ModifierSetting</text>
<text text-anchor="middle" x="573" y="-7" font-family="FreeSans" font-size="10.00">::eventFilter</text>
</a>
</g>
</g>
<!-- Node3&#45;&gt;Node4 -->
<g id="edge3" class="edge"><title>Node3&#45;&gt;Node4</title>
<path fill="none" stroke="midnightblue" d="M482.564,-15C491.004,-15 499.549,-15 507.839,-15"/>
<polygon fill="midnightblue" stroke="midnightblue" points="482.346,-11.5001 472.346,-15 482.346,-18.5001 482.346,-11.5001"/>
</g>
</g>
</svg>
