<?xml version="1.0" encoding="UTF-8" standalone="no"?>
<!DOCTYPE svg PUBLIC "-//W3C//DTD SVG 1.1//EN"
 "http://www.w3.org/Graphics/SVG/1.1/DTD/svg11.dtd">
<!-- Generated by graphviz version 2.36.0 (20140111.2315)
 -->
<!-- Title: osgMyGUI::Drawable::Drawable Pages: 1 -->
<svg width="344pt" height="98pt"
 viewBox="0.00 0.00 344.00 98.00" xmlns="http://www.w3.org/2000/svg" xmlns:xlink="http://www.w3.org/1999/xlink">
<g id="graph0" class="graph" transform="scale(1 1) rotate(0) translate(4 94)">
<title>osgMyGUI::Drawable::Drawable</title>
<polygon fill="white" stroke="none" points="-4,4 -4,-94 340,-94 340,4 -4,4"/>
<!-- Node1 -->
<g id="node1" class="node"><title>Node1</title>
<polygon fill="#bfbfbf" stroke="black" points="0.5,-27 0.5,-57 115.5,-57 115.5,-27 0.5,-27"/>
<text text-anchor="start" x="8.5" y="-45" font-family="FreeSans" font-size="10.00">osgMyGUI::Drawable</text>
<text text-anchor="middle" x="58" y="-34" font-family="FreeSans" font-size="10.00">::Drawable</text>
</g>
<!-- Node2 -->
<g id="node2" class="node"><title>Node2</title>
<g id="a_node2"><a xlink:href="classosgMyGUI_1_1Drawable_1_1CollectDrawCalls.html#a9e46bd1bd1e47742ab5c4e2da84ae7ed" target="_top" xlink:title="osgMyGUI::Drawable\l::CollectDrawCalls::\lsetRenderManager">
<polygon fill="white" stroke="black" points="186.5,-48.5 186.5,-89.5 301.5,-89.5 301.5,-48.5 186.5,-48.5"/>
<text text-anchor="start" x="194.5" y="-77.5" font-family="FreeSans" font-size="10.00">osgMyGUI::Drawable</text>
<text text-anchor="start" x="194.5" y="-66.5" font-family="FreeSans" font-size="10.00">::CollectDrawCalls::</text>
<text text-anchor="middle" x="244" y="-55.5" font-family="FreeSans" font-size="10.00">setRenderManager</text>
</a>
</g>
</g>
<!-- Node1&#45;&gt;Node2 -->
<g id="edge1" class="edge"><title>Node1&#45;&gt;Node2</title>
<path fill="none" stroke="midnightblue" d="M115.707,-50.3212C134.948,-53.1446 156.616,-56.3241 176.547,-59.2487"/>
<polygon fill="midnightblue" stroke="midnightblue" points="176.078,-62.7173 186.48,-60.7063 177.094,-55.7914 176.078,-62.7173"/>
</g>
<!-- Node3 -->
<g id="node3" class="node"><title>Node3</title>
<g id="a_node3"><a xlink:href="classosgMyGUI_1_1Drawable_1_1FrameUpdate.html#afe6cfca252130eb878fdd89baaeadc8e" target="_top" xlink:title="osgMyGUI::Drawable\l::FrameUpdate::setRenderManager">
<polygon fill="white" stroke="black" points="152,-0 152,-30 336,-30 336,-0 152,-0"/>
<text text-anchor="start" x="160" y="-18" font-family="FreeSans" font-size="10.00">osgMyGUI::Drawable</text>
<text text-anchor="middle" x="244" y="-7" font-family="FreeSans" font-size="10.00">::FrameUpdate::setRenderManager</text>
</a>
</g>
</g>
<!-- Node1&#45;&gt;Node3 -->
<g id="edge2" class="edge"><title>Node1&#45;&gt;Node3</title>
<path fill="none" stroke="midnightblue" d="M115.707,-33.6788C124.07,-32.4517 132.891,-31.1573 141.829,-29.8458"/>
<polygon fill="midnightblue" stroke="midnightblue" points="142.565,-33.2753 151.951,-28.3605 141.548,-26.3495 142.565,-33.2753"/>
</g>
</g>
</svg>
