<?xml version="1.0" encoding="UTF-8" standalone="no"?>
<!DOCTYPE svg PUBLIC "-//W3C//DTD SVG 1.1//EN"
 "http://www.w3.org/Graphics/SVG/1.1/DTD/svg11.dtd">
<!-- Generated by graphviz version 2.36.0 (20140111.2315)
 -->
<!-- Title: MWClass::Armor::getEffectiveArmorRating Pages: 1 -->
<svg width="700pt" height="381pt"
 viewBox="0.00 0.00 700.00 381.00" xmlns="http://www.w3.org/2000/svg" xmlns:xlink="http://www.w3.org/1999/xlink">
<g id="graph0" class="graph" transform="scale(1 1) rotate(0) translate(4 377)">
<title>MWClass::Armor::getEffectiveArmorRating</title>
<polygon fill="white" stroke="none" points="-4,4 -4,-377 696,-377 696,4 -4,4"/>
<!-- Node1 -->
<g id="node1" class="node"><title>Node1</title>
<polygon fill="#bfbfbf" stroke="black" points="0.5,-147 0.5,-177 157.5,-177 157.5,-147 0.5,-147"/>
<text text-anchor="start" x="8.5" y="-165" font-family="FreeSans" font-size="10.00">MWClass::Armor::getEffective</text>
<text text-anchor="middle" x="79" y="-154" font-family="FreeSans" font-size="10.00">ArmorRating</text>
</g>
<!-- Node2 -->
<g id="node2" class="node"><title>Node2</title>
<g id="a_node2"><a xlink:href="classMWWorld_1_1ConstPtr.html#ae3aece4775b5f86d04af63ce0de36cbd" target="_top" xlink:title="MWWorld::ConstPtr::get">
<polygon fill="white" stroke="black" points="407,-348.5 407,-367.5 535,-367.5 535,-348.5 407,-348.5"/>
<text text-anchor="middle" x="471" y="-355.5" font-family="FreeSans" font-size="10.00">MWWorld::ConstPtr::get</text>
</a>
</g>
</g>
<!-- Node1&#45;&gt;Node2 -->
<g id="edge1" class="edge"><title>Node1&#45;&gt;Node2</title>
<path fill="none" stroke="midnightblue" d="M87.5855,-177.369C103.109,-207.082 141.515,-272.269 194,-304 255.686,-341.294 338.017,-353.532 396.665,-357.211"/>
<polygon fill="midnightblue" stroke="midnightblue" points="396.784,-360.723 406.963,-357.785 397.173,-353.734 396.784,-360.723"/>
</g>
<!-- Node4 -->
<g id="node4" class="node"><title>Node4</title>
<g id="a_node4"><a xlink:href="classMWClass_1_1Armor.html#a04e6e4685da5c2a9d13fbd30c16a5e6f" target="_top" xlink:title="MWClass::Armor::getEquipment\lSkill">
<polygon fill="white" stroke="black" points="194,-229 194,-259 362,-259 362,-229 194,-229"/>
<text text-anchor="start" x="202" y="-247" font-family="FreeSans" font-size="10.00">MWClass::Armor::getEquipment</text>
<text text-anchor="middle" x="278" y="-236" font-family="FreeSans" font-size="10.00">Skill</text>
</a>
</g>
</g>
<!-- Node1&#45;&gt;Node4 -->
<g id="edge3" class="edge"><title>Node1&#45;&gt;Node4</title>
<path fill="none" stroke="midnightblue" d="M111.153,-177.038C133.902,-187.815 165.601,-202.413 194,-214 203.568,-217.904 213.856,-221.833 223.82,-225.503"/>
<polygon fill="midnightblue" stroke="midnightblue" points="222.645,-228.8 233.239,-228.933 225.041,-222.223 222.645,-228.8"/>
</g>
<!-- Node5 -->
<g id="node5" class="node"><title>Node5</title>
<g id="a_node5"><a xlink:href="classMWBase_1_1Environment.html#a73f12633762b049c03c80fe215873faa" target="_top" xlink:title="Return instance of this class. ">
<polygon fill="white" stroke="black" points="398,-310.5 398,-329.5 544,-329.5 544,-310.5 398,-310.5"/>
<text text-anchor="middle" x="471" y="-317.5" font-family="FreeSans" font-size="10.00">MWBase::Environment::get</text>
</a>
</g>
</g>
<!-- Node1&#45;&gt;Node5 -->
<g id="edge13" class="edge"><title>Node1&#45;&gt;Node5</title>
<path fill="none" stroke="midnightblue" d="M91.4469,-177.119C110.139,-200.631 149.612,-245.584 194,-268 254.563,-298.584 330.829,-311.283 387.835,-316.505"/>
<polygon fill="midnightblue" stroke="midnightblue" points="387.625,-319.999 397.887,-317.366 388.223,-313.025 387.625,-319.999"/>
</g>
<!-- Node6 -->
<g id="node6" class="node"><title>Node6</title>
<g id="a_node6"><a xlink:href="classMWBase_1_1Environment.html#ae14e166d8f5ff8629be119333d502660" target="_top" xlink:title="MWBase::Environment\l::getWorld">
<polygon fill="white" stroke="black" points="409,-185 409,-215 533,-215 533,-185 409,-185"/>
<text text-anchor="start" x="417" y="-203" font-family="FreeSans" font-size="10.00">MWBase::Environment</text>
<text text-anchor="middle" x="471" y="-192" font-family="FreeSans" font-size="10.00">::getWorld</text>
</a>
</g>
</g>
<!-- Node1&#45;&gt;Node6 -->
<g id="edge14" class="edge"><title>Node1&#45;&gt;Node6</title>
<path fill="none" stroke="midnightblue" d="M157.518,-169.553C227.773,-176.398 330.464,-186.404 398.714,-193.054"/>
<polygon fill="midnightblue" stroke="midnightblue" points="398.651,-196.565 408.943,-194.051 399.33,-189.598 398.651,-196.565"/>
</g>
<!-- Node7 -->
<g id="node7" class="node"><title>Node7</title>
<g id="a_node7"><a xlink:href="classMWBase_1_1World.html#a2ba0910cb944786065e37dc5f3fcda35" target="_top" xlink:title="MWBase::World::getStore">
<polygon fill="white" stroke="black" points="402.5,-146.5 402.5,-165.5 539.5,-165.5 539.5,-146.5 402.5,-146.5"/>
<text text-anchor="middle" x="471" y="-153.5" font-family="FreeSans" font-size="10.00">MWBase::World::getStore</text>
</a>
</g>
</g>
<!-- Node1&#45;&gt;Node7 -->
<g id="edge15" class="edge"><title>Node1&#45;&gt;Node7</title>
<path fill="none" stroke="midnightblue" d="M157.518,-160.807C225.554,-159.761 324.011,-158.246 392.147,-157.198"/>
<polygon fill="midnightblue" stroke="midnightblue" points="392.448,-160.694 402.393,-157.04 392.34,-153.694 392.448,-160.694"/>
</g>
<!-- Node8 -->
<g id="node8" class="node"><title>Node8</title>
<g id="a_node8"><a xlink:href="classMWWorld_1_1ESMStore.html#a94ffe201bd012dd41fcdabfb35c69e24" target="_top" xlink:title="MWWorld::ESMStore::get">
<polygon fill="white" stroke="black" points="404,-108.5 404,-127.5 538,-127.5 538,-108.5 404,-108.5"/>
<text text-anchor="middle" x="471" y="-115.5" font-family="FreeSans" font-size="10.00">MWWorld::ESMStore::get</text>
</a>
</g>
</g>
<!-- Node1&#45;&gt;Node8 -->
<g id="edge16" class="edge"><title>Node1&#45;&gt;Node8</title>
<path fill="none" stroke="midnightblue" d="M157.518,-153.254C226.082,-145.519 325.542,-134.298 393.729,-126.605"/>
<polygon fill="midnightblue" stroke="midnightblue" points="394.43,-130.048 403.974,-125.449 393.645,-123.092 394.43,-130.048"/>
</g>
<!-- Node11 -->
<g id="node11" class="node"><title>Node11</title>
<g id="a_node11"><a xlink:href="classMWWorld_1_1Ptr.html#aa2ac4a5579cd19eaa780596f4543ea46" target="_top" xlink:title="MWWorld::Ptr::getClass">
<polygon fill="white" stroke="black" points="215.5,-76.5 215.5,-95.5 340.5,-95.5 340.5,-76.5 215.5,-76.5"/>
<text text-anchor="middle" x="278" y="-83.5" font-family="FreeSans" font-size="10.00">MWWorld::Ptr::getClass</text>
</a>
</g>
</g>
<!-- Node1&#45;&gt;Node11 -->
<g id="edge11" class="edge"><title>Node1&#45;&gt;Node11</title>
<path fill="none" stroke="midnightblue" d="M109.975,-146.865C132.677,-135.764 164.829,-120.804 194,-110 205.429,-105.767 217.964,-101.803 229.751,-98.3646"/>
<polygon fill="midnightblue" stroke="midnightblue" points="230.779,-101.711 239.437,-95.605 228.86,-94.9793 230.779,-101.711"/>
</g>
<!-- Node12 -->
<g id="node12" class="node"><title>Node12</title>
<g id="a_node12"><a xlink:href="classMWWorld_1_1Class.html#a34eba4af23abc1b06b41fc93bf816b5c" target="_top" xlink:title="MWWorld::Class::getSkill">
<polygon fill="white" stroke="black" points="212.5,-38.5 212.5,-57.5 343.5,-57.5 343.5,-38.5 212.5,-38.5"/>
<text text-anchor="middle" x="278" y="-45.5" font-family="FreeSans" font-size="10.00">MWWorld::Class::getSkill</text>
</a>
</g>
</g>
<!-- Node1&#45;&gt;Node12 -->
<g id="edge12" class="edge"><title>Node1&#45;&gt;Node12</title>
<path fill="none" stroke="midnightblue" d="M93.5205,-146.942C113.405,-125.759 152.676,-87.4684 194,-67 198.885,-64.5806 204.084,-62.4639 209.407,-60.613"/>
<polygon fill="midnightblue" stroke="midnightblue" points="210.595,-63.9081 219.078,-57.5605 208.488,-57.2327 210.595,-63.9081"/>
</g>
<!-- Node13 -->
<g id="node13" class="node"><title>Node13</title>
<g id="a_node13"><a xlink:href="classESM_1_1Variant.html#aad77cad9a160b176ea71e09ecf2c55a5" target="_top" xlink:title="ESM::Variant::getInteger">
<polygon fill="white" stroke="black" points="211.5,-0.5 211.5,-19.5 344.5,-19.5 344.5,-0.5 211.5,-0.5"/>
<text text-anchor="middle" x="278" y="-7.5" font-family="FreeSans" font-size="10.00">ESM::Variant::getInteger</text>
</a>
</g>
</g>
<!-- Node1&#45;&gt;Node13 -->
<g id="edge17" class="edge"><title>Node1&#45;&gt;Node13</title>
<path fill="none" stroke="midnightblue" d="M88.4425,-146.881C104.888,-118.913 144.027,-59.2009 194,-29 197.629,-26.8066 201.488,-24.8662 205.478,-23.1496"/>
<polygon fill="midnightblue" stroke="midnightblue" points="206.879,-26.3616 214.982,-19.5368 204.391,-19.8184 206.879,-26.3616"/>
</g>
<!-- Node3 -->
<g id="node3" class="node"><title>Node3</title>
<g id="a_node3"><a xlink:href="classMWWorld_1_1ConstPtr.html#ace447c99102c91a088f5e51c9664f950" target="_top" xlink:title="MWWorld::ConstPtr::\lgetTypeName">
<polygon fill="white" stroke="black" points="580,-343 580,-373 692,-373 692,-343 580,-343"/>
<text text-anchor="start" x="588" y="-361" font-family="FreeSans" font-size="10.00">MWWorld::ConstPtr::</text>
<text text-anchor="middle" x="636" y="-350" font-family="FreeSans" font-size="10.00">getTypeName</text>
</a>
</g>
</g>
<!-- Node2&#45;&gt;Node3 -->
<g id="edge2" class="edge"><title>Node2&#45;&gt;Node3</title>
<path fill="none" stroke="midnightblue" d="M535.02,-358C546.337,-358 558.156,-358 569.541,-358"/>
<polygon fill="midnightblue" stroke="midnightblue" points="569.847,-361.5 579.847,-358 569.847,-354.5 569.847,-361.5"/>
</g>
<!-- Node4&#45;&gt;Node2 -->
<g id="edge4" class="edge"><title>Node4&#45;&gt;Node2</title>
<path fill="none" stroke="midnightblue" d="M293.701,-259.197C314.85,-280.191 355.959,-317.863 398,-339 402.645,-341.336 407.608,-343.406 412.674,-345.238"/>
<polygon fill="midnightblue" stroke="midnightblue" points="411.894,-348.665 422.487,-348.471 414.085,-342.017 411.894,-348.665"/>
</g>
<!-- Node4&#45;&gt;Node5 -->
<g id="edge5" class="edge"><title>Node4&#45;&gt;Node5</title>
<path fill="none" stroke="midnightblue" d="M306.724,-259.125C330.437,-271.61 365.75,-289.142 398,-301 404.522,-303.398 411.479,-305.627 418.401,-307.651"/>
<polygon fill="midnightblue" stroke="midnightblue" points="417.89,-311.143 428.463,-310.468 419.777,-304.402 417.89,-311.143"/>
</g>
<!-- Node4&#45;&gt;Node6 -->
<g id="edge6" class="edge"><title>Node4&#45;&gt;Node6</title>
<path fill="none" stroke="midnightblue" d="M344.197,-228.981C361.887,-224.906 381.124,-220.474 399.111,-216.331"/>
<polygon fill="midnightblue" stroke="midnightblue" points="399.998,-219.718 408.957,-214.062 398.427,-212.897 399.998,-219.718"/>
</g>
<!-- Node4&#45;&gt;Node7 -->
<g id="edge7" class="edge"><title>Node4&#45;&gt;Node7</title>
<path fill="none" stroke="midnightblue" d="M301.392,-228.948C324.69,-213.838 362.641,-190.744 398,-176 404.668,-173.22 411.842,-170.703 418.986,-168.466"/>
<polygon fill="midnightblue" stroke="midnightblue" points="420.071,-171.795 428.66,-165.591 418.077,-165.085 420.071,-171.795"/>
</g>
<!-- Node4&#45;&gt;Node8 -->
<g id="edge8" class="edge"><title>Node4&#45;&gt;Node8</title>
<path fill="none" stroke="midnightblue" d="M291.598,-228.754C311.677,-205.456 353.264,-161.16 398,-137 402.255,-134.702 406.804,-132.67 411.47,-130.875"/>
<polygon fill="midnightblue" stroke="midnightblue" points="412.854,-134.1 421.155,-127.515 410.56,-127.486 412.854,-134.1"/>
</g>
<!-- Node9 -->
<g id="node9" class="node"><title>Node9</title>
<g id="a_node9"><a xlink:href="classMWWorld_1_1Store.html#a3ca0f52b3814776b34ecfea3a44ea5ab" target="_top" xlink:title="MWWorld::Store::find">
<polygon fill="white" stroke="black" points="414,-234.5 414,-253.5 528,-253.5 528,-234.5 414,-234.5"/>
<text text-anchor="middle" x="471" y="-241.5" font-family="FreeSans" font-size="10.00">MWWorld::Store::find</text>
</a>
</g>
</g>
<!-- Node4&#45;&gt;Node9 -->
<g id="edge9" class="edge"><title>Node4&#45;&gt;Node9</title>
<path fill="none" stroke="midnightblue" d="M362.22,-244C376.159,-244 390.452,-244 403.887,-244"/>
<polygon fill="midnightblue" stroke="midnightblue" points="403.972,-247.5 413.972,-244 403.972,-240.5 403.972,-247.5"/>
</g>
<!-- Node10 -->
<g id="node10" class="node"><title>Node10</title>
<g id="a_node10"><a xlink:href="classESM_1_1Variant.html#aea165a94a08dac002c27cdf5784fabc7" target="_top" xlink:title="Will throw an exception, if value can not be represented as a float value. ">
<polygon fill="white" stroke="black" points="410,-272.5 410,-291.5 532,-291.5 532,-272.5 410,-272.5"/>
<text text-anchor="middle" x="471" y="-279.5" font-family="FreeSans" font-size="10.00">ESM::Variant::getFloat</text>
</a>
</g>
</g>
<!-- Node4&#45;&gt;Node10 -->
<g id="edge10" class="edge"><title>Node4&#45;&gt;Node10</title>
<path fill="none" stroke="midnightblue" d="M354.488,-259.019C373.756,-262.852 394.162,-266.912 412.374,-270.535"/>
<polygon fill="midnightblue" stroke="midnightblue" points="411.755,-273.98 422.245,-272.499 413.121,-267.115 411.755,-273.98"/>
</g>
</g>
</svg>
