<?xml version="1.0" encoding="UTF-8" standalone="no"?>
<!DOCTYPE svg PUBLIC "-//W3C//DTD SVG 1.1//EN"
 "http://www.w3.org/Graphics/SVG/1.1/DTD/svg11.dtd">
<!-- Generated by graphviz version 2.36.0 (20140111.2315)
 -->
<!-- Title: SceneUtil::Optimizer::MergeGroupsVisitor::apply Pages: 1 -->
<svg width="560pt" height="224pt"
 viewBox="0.00 0.00 560.00 224.00" xmlns="http://www.w3.org/2000/svg" xmlns:xlink="http://www.w3.org/1999/xlink">
<g id="graph0" class="graph" transform="scale(1 1) rotate(0) translate(4 220)">
<title>SceneUtil::Optimizer::MergeGroupsVisitor::apply</title>
<polygon fill="white" stroke="none" points="-4,4 -4,-220 556,-220 556,4 -4,4"/>
<!-- Node1 -->
<g id="node1" class="node"><title>Node1</title>
<polygon fill="#bfbfbf" stroke="black" points="0.5,-82.5 0.5,-123.5 117.5,-123.5 117.5,-82.5 0.5,-82.5"/>
<text text-anchor="start" x="8.5" y="-111.5" font-family="FreeSans" font-size="10.00">SceneUtil::Optimizer</text>
<text text-anchor="start" x="8.5" y="-100.5" font-family="FreeSans" font-size="10.00">::MergeGroupsVisitor</text>
<text text-anchor="middle" x="59" y="-89.5" font-family="FreeSans" font-size="10.00">::apply</text>
</g>
<!-- Node2 -->
<g id="node2" class="node"><title>Node2</title>
<g id="a_node2"><a xlink:href="namespaceTerrain.html#aad89e341593820050c424ef74fd150a9" target="_top" xlink:title="Terrain::traverse">
<polygon fill="white" stroke="black" points="154,-93.5 154,-112.5 248,-112.5 248,-93.5 154,-93.5"/>
<text text-anchor="middle" x="201" y="-100.5" font-family="FreeSans" font-size="10.00">Terrain::traverse</text>
</a>
</g>
</g>
<!-- Node1&#45;&gt;Node2 -->
<g id="edge1" class="edge"><title>Node1&#45;&gt;Node2</title>
<path fill="none" stroke="midnightblue" d="M117.752,-103C126.319,-103 135.14,-103 143.678,-103"/>
<polygon fill="midnightblue" stroke="midnightblue" points="143.916,-106.5 153.916,-103 143.916,-99.5001 143.916,-106.5"/>
</g>
<!-- Node3 -->
<g id="node3" class="node"><title>Node3</title>
<g id="a_node3"><a xlink:href="classTerrain_1_1QuadTreeNode.html#ac790df8c46db2967c539932c60e52049" target="_top" xlink:title="Terrain::QuadTreeNode\l::hasValidBounds">
<polygon fill="white" stroke="black" points="284.5,-186 284.5,-216 409.5,-216 409.5,-186 284.5,-186"/>
<text text-anchor="start" x="292.5" y="-204" font-family="FreeSans" font-size="10.00">Terrain::QuadTreeNode</text>
<text text-anchor="middle" x="347" y="-193" font-family="FreeSans" font-size="10.00">::hasValidBounds</text>
</a>
</g>
</g>
<!-- Node2&#45;&gt;Node3 -->
<g id="edge2" class="edge"><title>Node2&#45;&gt;Node3</title>
<path fill="none" stroke="midnightblue" d="M210.739,-112.687C224.876,-127.887 254.2,-157.51 284,-176 287.143,-177.95 290.465,-179.803 293.872,-181.551"/>
<polygon fill="midnightblue" stroke="midnightblue" points="292.495,-184.772 303.026,-185.933 295.517,-178.458 292.495,-184.772"/>
</g>
<!-- Node4 -->
<g id="node4" class="node"><title>Node4</title>
<g id="a_node4"><a xlink:href="classTerrain_1_1QuadTreeNode.html#a7e3bc8b56e4ccdf10e5e5824633b3511" target="_top" xlink:title="Terrain::QuadTreeNode\l::getBoundingBox">
<polygon fill="white" stroke="black" points="284.5,-137 284.5,-167 409.5,-167 409.5,-137 284.5,-137"/>
<text text-anchor="start" x="292.5" y="-155" font-family="FreeSans" font-size="10.00">Terrain::QuadTreeNode</text>
<text text-anchor="middle" x="347" y="-144" font-family="FreeSans" font-size="10.00">::getBoundingBox</text>
</a>
</g>
</g>
<!-- Node2&#45;&gt;Node4 -->
<g id="edge3" class="edge"><title>Node2&#45;&gt;Node4</title>
<path fill="none" stroke="midnightblue" d="M230.106,-112.564C247.78,-118.578 271.16,-126.533 292.289,-133.723"/>
<polygon fill="midnightblue" stroke="midnightblue" points="291.215,-137.055 301.81,-136.963 293.47,-130.428 291.215,-137.055"/>
</g>
<!-- Node5 -->
<g id="node5" class="node"><title>Node5</title>
<g id="a_node5"><a xlink:href="classTerrain_1_1LodCallback.html#ac6841ac51efcba58d253cb47591e75cb" target="_top" xlink:title="Terrain::LodCallback\l::isSufficientDetail">
<polygon fill="white" stroke="black" points="291.5,-88 291.5,-118 402.5,-118 402.5,-88 291.5,-88"/>
<text text-anchor="start" x="299.5" y="-106" font-family="FreeSans" font-size="10.00">Terrain::LodCallback</text>
<text text-anchor="middle" x="347" y="-95" font-family="FreeSans" font-size="10.00">::isSufficientDetail</text>
</a>
</g>
</g>
<!-- Node2&#45;&gt;Node5 -->
<g id="edge4" class="edge"><title>Node2&#45;&gt;Node5</title>
<path fill="none" stroke="midnightblue" d="M248.355,-103C258.868,-103 270.219,-103 281.335,-103"/>
<polygon fill="midnightblue" stroke="midnightblue" points="281.446,-106.5 291.446,-103 281.446,-99.5001 281.446,-106.5"/>
</g>
<!-- Node6 -->
<g id="node6" class="node"><title>Node6</title>
<g id="a_node6"><a xlink:href="classTerrain_1_1ViewData.html#a35a3a615bfb159d28ba39a0213ca9e50" target="_top" xlink:title="Terrain::ViewData::add">
<polygon fill="white" stroke="black" points="285.5,-49.5 285.5,-68.5 408.5,-68.5 408.5,-49.5 285.5,-49.5"/>
<text text-anchor="middle" x="347" y="-56.5" font-family="FreeSans" font-size="10.00">Terrain::ViewData::add</text>
</a>
</g>
</g>
<!-- Node2&#45;&gt;Node6 -->
<g id="edge5" class="edge"><title>Node2&#45;&gt;Node6</title>
<path fill="none" stroke="midnightblue" d="M233.246,-93.4527C254.286,-87.0237 282.249,-78.4794 305.064,-71.5082"/>
<polygon fill="midnightblue" stroke="midnightblue" points="306.274,-74.7982 314.815,-68.5287 304.229,-68.1037 306.274,-74.7982"/>
</g>
<!-- Node8 -->
<g id="node8" class="node"><title>Node8</title>
<g id="a_node8"><a xlink:href="classTerrain_1_1QuadTreeNode.html#a54d91fefcb6bc5b88c96ecb5c30fc998" target="_top" xlink:title="Terrain::QuadTreeNode\l::getChild">
<polygon fill="white" stroke="black" points="284.5,-0 284.5,-30 409.5,-30 409.5,-0 284.5,-0"/>
<text text-anchor="start" x="292.5" y="-18" font-family="FreeSans" font-size="10.00">Terrain::QuadTreeNode</text>
<text text-anchor="middle" x="347" y="-7" font-family="FreeSans" font-size="10.00">::getChild</text>
</a>
</g>
</g>
<!-- Node2&#45;&gt;Node8 -->
<g id="edge7" class="edge"><title>Node2&#45;&gt;Node8</title>
<path fill="none" stroke="midnightblue" d="M212.472,-93.4341C227.45,-80.1201 256.256,-55.8558 284,-40 287.472,-38.016 291.132,-36.1131 294.867,-34.3056"/>
<polygon fill="midnightblue" stroke="midnightblue" points="296.604,-37.36 304.241,-30.0169 293.691,-30.9946 296.604,-37.36"/>
</g>
<!-- Node7 -->
<g id="node7" class="node"><title>Node7</title>
<g id="a_node7"><a xlink:href="structTerrain_1_1ViewData_1_1Entry.html#a78d943c398504a29397bc29044df17b4" target="_top" xlink:title="Terrain::ViewData::\lEntry::set">
<polygon fill="white" stroke="black" points="446.5,-44 446.5,-74 551.5,-74 551.5,-44 446.5,-44"/>
<text text-anchor="start" x="454.5" y="-62" font-family="FreeSans" font-size="10.00">Terrain::ViewData::</text>
<text text-anchor="middle" x="499" y="-51" font-family="FreeSans" font-size="10.00">Entry::set</text>
</a>
</g>
</g>
<!-- Node6&#45;&gt;Node7 -->
<g id="edge6" class="edge"><title>Node6&#45;&gt;Node7</title>
<path fill="none" stroke="midnightblue" d="M408.578,-59C417.676,-59 427.068,-59 436.191,-59"/>
<polygon fill="midnightblue" stroke="midnightblue" points="436.347,-62.5001 446.347,-59 436.347,-55.5001 436.347,-62.5001"/>
</g>
</g>
</svg>
