<?xml version="1.0" encoding="UTF-8" standalone="no"?>
<!DOCTYPE svg PUBLIC "-//W3C//DTD SVG 1.1//EN"
 "http://www.w3.org/Graphics/SVG/1.1/DTD/svg11.dtd">
<!-- Generated by graphviz version 2.36.0 (20140111.2315)
 -->
<!-- Title: Settings::Manager::loadUser Pages: 1 -->
<svg width="428pt" height="66pt"
 viewBox="0.00 0.00 428.00 66.00" xmlns="http://www.w3.org/2000/svg" xmlns:xlink="http://www.w3.org/1999/xlink">
<g id="graph0" class="graph" transform="scale(1 1) rotate(0) translate(4 62)">
<title>Settings::Manager::loadUser</title>
<polygon fill="white" stroke="none" points="-4,4 -4,-62 424,-62 424,4 -4,4"/>
<!-- Node1 -->
<g id="node1" class="node"><title>Node1</title>
<polygon fill="#bfbfbf" stroke="black" points="0,-14 0,-44 98,-44 98,-14 0,-14"/>
<text text-anchor="start" x="8" y="-32" font-family="FreeSans" font-size="10.00">Settings::Manager::</text>
<text text-anchor="middle" x="49" y="-21" font-family="FreeSans" font-size="10.00">loadUser</text>
</g>
<!-- Node2 -->
<g id="node2" class="node"><title>Node2</title>
<g id="a_node2"><a xlink:href="classCSMPrefs_1_1State.html#a82d77262eca2a642d332fe03c72fb66f" target="_top" xlink:title="CSMPrefs::State::load">
<polygon fill="white" stroke="black" points="145.5,-38.5 145.5,-57.5 256.5,-57.5 256.5,-38.5 145.5,-38.5"/>
<text text-anchor="middle" x="201" y="-45.5" font-family="FreeSans" font-size="10.00">CSMPrefs::State::load</text>
</a>
</g>
</g>
<!-- Node1&#45;&gt;Node2 -->
<g id="edge1" class="edge"><title>Node1&#45;&gt;Node2</title>
<path fill="none" stroke="midnightblue" d="M108.327,-36.3881C120.489,-37.9286 133.266,-39.5471 145.291,-41.0702"/>
<polygon fill="midnightblue" stroke="midnightblue" points="108.647,-32.9008 98.2866,-35.1163 107.767,-39.8453 108.647,-32.9008"/>
</g>
<!-- Node4 -->
<g id="node4" class="node"><title>Node4</title>
<g id="a_node4"><a xlink:href="classOMW_1_1Engine.html#af4c2c4c9946608486bfc3f17be85b8b2" target="_top" xlink:title="Load settings from various files, returns the path to the user settings file. ">
<polygon fill="white" stroke="black" points="134.5,-0.5 134.5,-19.5 267.5,-19.5 267.5,-0.5 134.5,-0.5"/>
<text text-anchor="middle" x="201" y="-7.5" font-family="FreeSans" font-size="10.00">OMW::Engine::loadSettings</text>
</a>
</g>
</g>
<!-- Node1&#45;&gt;Node4 -->
<g id="edge3" class="edge"><title>Node1&#45;&gt;Node4</title>
<path fill="none" stroke="midnightblue" d="M108.448,-21.5966C116.925,-20.5228 125.699,-19.4115 134.307,-18.3212"/>
<polygon fill="midnightblue" stroke="midnightblue" points="107.767,-18.1547 98.2866,-22.8837 108.647,-25.0992 107.767,-18.1547"/>
</g>
<!-- Node3 -->
<g id="node3" class="node"><title>Node3</title>
<g id="a_node3"><a xlink:href="classCSMPrefs_1_1State.html#a067bdd6de7d3a07fa2ddd4da9d8f49df" target="_top" xlink:title="CSMPrefs::State::State">
<polygon fill="white" stroke="black" points="304,-38.5 304,-57.5 420,-57.5 420,-38.5 304,-38.5"/>
<text text-anchor="middle" x="362" y="-45.5" font-family="FreeSans" font-size="10.00">CSMPrefs::State::State</text>
</a>
</g>
</g>
<!-- Node2&#45;&gt;Node3 -->
<g id="edge2" class="edge"><title>Node2&#45;&gt;Node3</title>
<path fill="none" stroke="midnightblue" d="M266.847,-48C279.071,-48 291.773,-48 303.743,-48"/>
<polygon fill="midnightblue" stroke="midnightblue" points="266.719,-44.5001 256.719,-48 266.719,-51.5001 266.719,-44.5001"/>
</g>
</g>
</svg>
