<?xml version="1.0" encoding="UTF-8" standalone="no"?>
<!DOCTYPE svg PUBLIC "-//W3C//DTD SVG 1.1//EN"
 "http://www.w3.org/Graphics/SVG/1.1/DTD/svg11.dtd">
<!-- Generated by graphviz version 2.36.0 (20140111.2315)
 -->
<!-- Title: anonymous_namespace{globalmap.cpp}::CameraUpdateGlobalCallback Pages: 1 -->
<svg width="186pt" height="204pt"
 viewBox="0.00 0.00 186.00 204.00" xmlns="http://www.w3.org/2000/svg" xmlns:xlink="http://www.w3.org/1999/xlink">
<g id="graph0" class="graph" transform="scale(1 1) rotate(0) translate(4 200)">
<title>anonymous_namespace{globalmap.cpp}::CameraUpdateGlobalCallback</title>
<polygon fill="white" stroke="none" points="-4,4 -4,-200 182,-200 182,4 -4,4"/>
<!-- Node1 -->
<g id="node1" class="node"><title>Node1</title>
<polygon fill="#bfbfbf" stroke="black" points="-0.5,-0.5 -0.5,-101.5 178.5,-101.5 178.5,-0.5 -0.5,-0.5"/>
<text text-anchor="start" x="7.5" y="-89.5" font-family="FreeSans" font-size="10.00">anonymous_namespace</text>
<text text-anchor="start" x="7.5" y="-78.5" font-family="FreeSans" font-size="10.00">{globalmap.cpp}::CameraUpdate</text>
<text text-anchor="middle" x="89" y="-67.5" font-family="FreeSans" font-size="10.00">GlobalCallback</text>
<polyline fill="none" stroke="black" points="-0.5,-60.5 178.5,-60.5 "/>
<text text-anchor="start" x="7.5" y="-48.5" font-family="FreeSans" font-size="10.00">&#45; mRendered</text>
<text text-anchor="start" x="7.5" y="-37.5" font-family="FreeSans" font-size="10.00">&#45; mParent</text>
<polyline fill="none" stroke="black" points="-0.5,-30.5 178.5,-30.5 "/>
<text text-anchor="start" x="7.5" y="-18.5" font-family="FreeSans" font-size="10.00">+ CameraUpdateGlobalCallback()</text>
<text text-anchor="start" x="7.5" y="-7.5" font-family="FreeSans" font-size="10.00">+ operator()()</text>
</g>
<!-- Node2 -->
<g id="node2" class="node"><title>Node2</title>
<polygon fill="white" stroke="#bfbfbf" points="48,-138.5 48,-195.5 130,-195.5 130,-138.5 48,-138.5"/>
<text text-anchor="middle" x="89" y="-183.5" font-family="FreeSans" font-size="10.00">NodeCallback</text>
<polyline fill="none" stroke="#bfbfbf" points="48,-176.5 130,-176.5 "/>
<text text-anchor="middle" x="89" y="-164.5" font-family="FreeSans" font-size="10.00"> </text>
<polyline fill="none" stroke="#bfbfbf" points="48,-157.5 130,-157.5 "/>
<text text-anchor="middle" x="89" y="-145.5" font-family="FreeSans" font-size="10.00"> </text>
</g>
<!-- Node2&#45;&gt;Node1 -->
<g id="edge1" class="edge"><title>Node2&#45;&gt;Node1</title>
<path fill="none" stroke="midnightblue" d="M89,-128.354C89,-119.796 89,-110.578 89,-101.608"/>
<polygon fill="none" stroke="midnightblue" points="85.5001,-128.404 89,-138.404 92.5001,-128.404 85.5001,-128.404"/>
</g>
</g>
</svg>
