<?xml version="1.0" encoding="UTF-8" standalone="no"?>
<!DOCTYPE svg PUBLIC "-//W3C//DTD SVG 1.1//EN"
 "http://www.w3.org/Graphics/SVG/1.1/DTD/svg11.dtd">
<!-- Generated by graphviz version 2.36.0 (20140111.2315)
 -->
<!-- Title: MWGui::KeyboardNavigation::injectKeyPress Pages: 1 -->
<svg width="918pt" height="178pt"
 viewBox="0.00 0.00 918.00 178.00" xmlns="http://www.w3.org/2000/svg" xmlns:xlink="http://www.w3.org/1999/xlink">
<g id="graph0" class="graph" transform="scale(1 1) rotate(0) translate(4 174)">
<title>MWGui::KeyboardNavigation::injectKeyPress</title>
<polygon fill="white" stroke="none" points="-4,4 -4,-174 914,-174 914,4 -4,4"/>
<!-- Node1 -->
<g id="node1" class="node"><title>Node1</title>
<polygon fill="#bfbfbf" stroke="black" points="0,-41 0,-71 150,-71 150,-41 0,-41"/>
<text text-anchor="start" x="8" y="-59" font-family="FreeSans" font-size="10.00">MWGui::KeyboardNavigation</text>
<text text-anchor="middle" x="75" y="-48" font-family="FreeSans" font-size="10.00">::injectKeyPress</text>
</g>
<!-- Node2 -->
<g id="node2" class="node"><title>Node2</title>
<g id="a_node2"><a xlink:href="classMWGui_1_1KeyboardNavigation.html#aa27736ab7106385e544bb5ea225c6a74" target="_top" xlink:title="MWGui::KeyboardNavigation\l::switchFocus">
<polygon fill="white" stroke="black" points="186,-66 186,-96 336,-96 336,-66 186,-66"/>
<text text-anchor="start" x="194" y="-84" font-family="FreeSans" font-size="10.00">MWGui::KeyboardNavigation</text>
<text text-anchor="middle" x="261" y="-73" font-family="FreeSans" font-size="10.00">::switchFocus</text>
</a>
</g>
</g>
<!-- Node1&#45;&gt;Node2 -->
<g id="edge1" class="edge"><title>Node1&#45;&gt;Node2</title>
<path fill="none" stroke="midnightblue" d="M150.044,-66.0604C158.514,-67.2111 167.195,-68.3906 175.784,-69.5576"/>
<polygon fill="midnightblue" stroke="midnightblue" points="175.427,-73.0412 185.808,-70.9195 176.37,-66.105 175.427,-73.0412"/>
</g>
<!-- Node9 -->
<g id="node9" class="node"><title>Node9</title>
<g id="a_node9"><a xlink:href="classMWGui_1_1KeyboardNavigation.html#a751aada40dbd13f90525b983a886907c" target="_top" xlink:title="Send button press event to focused button. ">
<polygon fill="white" stroke="black" points="186,-17 186,-47 336,-47 336,-17 186,-17"/>
<text text-anchor="start" x="194" y="-35" font-family="FreeSans" font-size="10.00">MWGui::KeyboardNavigation</text>
<text text-anchor="middle" x="261" y="-24" font-family="FreeSans" font-size="10.00">::accept</text>
</a>
</g>
</g>
<!-- Node1&#45;&gt;Node9 -->
<g id="edge12" class="edge"><title>Node1&#45;&gt;Node9</title>
<path fill="none" stroke="midnightblue" d="M150.044,-46.342C158.514,-45.2373 167.195,-44.1051 175.784,-42.9847"/>
<polygon fill="midnightblue" stroke="midnightblue" points="176.344,-46.4414 185.808,-41.6773 175.439,-39.5002 176.344,-46.4414"/>
</g>
<!-- Node3 -->
<g id="node3" class="node"><title>Node3</title>
<g id="a_node3"><a xlink:href="classMWGui_1_1KeyboardNavigation.html#a4dd70eae6a9149f257b2bf1cd4badff8" target="_top" xlink:title="MWGui::KeyboardNavigation\l::selectFirstWidget">
<polygon fill="white" stroke="black" points="372,-66 372,-96 522,-96 522,-66 372,-66"/>
<text text-anchor="start" x="380" y="-84" font-family="FreeSans" font-size="10.00">MWGui::KeyboardNavigation</text>
<text text-anchor="middle" x="447" y="-73" font-family="FreeSans" font-size="10.00">::selectFirstWidget</text>
</a>
</g>
</g>
<!-- Node2&#45;&gt;Node3 -->
<g id="edge2" class="edge"><title>Node2&#45;&gt;Node3</title>
<path fill="none" stroke="midnightblue" d="M336.044,-81C344.514,-81 353.195,-81 361.784,-81"/>
<polygon fill="midnightblue" stroke="midnightblue" points="361.808,-84.5001 371.808,-81 361.807,-77.5001 361.808,-84.5001"/>
</g>
<!-- Node4 -->
<g id="node4" class="node"><title>Node4</title>
<g id="a_node4"><a xlink:href="namespaceMWGui.html#ac0b2121968419d241ff3a32e72179624" target="_top" xlink:title="Recursively get all child widgets that accept keyboard input. ">
<polygon fill="white" stroke="black" points="558,-150.5 558,-169.5 710,-169.5 710,-150.5 558,-150.5"/>
<text text-anchor="middle" x="634" y="-157.5" font-family="FreeSans" font-size="10.00">MWGui::getKeyFocusWidgets</text>
</a>
</g>
</g>
<!-- Node2&#45;&gt;Node4 -->
<g id="edge8" class="edge"><title>Node2&#45;&gt;Node4</title>
<path fill="none" stroke="midnightblue" d="M292.555,-96.0051C314.228,-106.021 344.276,-118.657 372,-126 429.562,-141.247 496.151,-149.781 547.662,-154.486"/>
<polygon fill="midnightblue" stroke="midnightblue" points="547.487,-157.984 557.756,-155.377 548.102,-151.011 547.487,-157.984"/>
</g>
<!-- Node6 -->
<g id="node6" class="node"><title>Node6</title>
<g id="a_node6"><a xlink:href="classMWBase_1_1Environment.html#a73f12633762b049c03c80fe215873faa" target="_top" xlink:title="Return instance of this class. ">
<polygon fill="white" stroke="black" points="561,-110.5 561,-129.5 707,-129.5 707,-110.5 561,-110.5"/>
<text text-anchor="middle" x="634" y="-117.5" font-family="FreeSans" font-size="10.00">MWBase::Environment::get</text>
</a>
</g>
</g>
<!-- Node2&#45;&gt;Node6 -->
<g id="edge9" class="edge"><title>Node2&#45;&gt;Node6</title>
<path fill="none" stroke="midnightblue" d="M322.788,-96.0514C338.713,-99.5018 355.926,-102.799 372,-105 431.547,-113.155 499.326,-116.887 550.887,-118.59"/>
<polygon fill="midnightblue" stroke="midnightblue" points="550.872,-122.091 560.976,-118.904 551.09,-115.094 550.872,-122.091"/>
</g>
<!-- Node7 -->
<g id="node7" class="node"><title>Node7</title>
<g id="a_node7"><a xlink:href="classMWBase_1_1Environment.html#aeeef9a580df0312f0a9b7380488dea21" target="_top" xlink:title="MWBase::Environment\l::getWindowManager">
<polygon fill="white" stroke="black" points="572,-57 572,-87 696,-87 696,-57 572,-57"/>
<text text-anchor="start" x="580" y="-75" font-family="FreeSans" font-size="10.00">MWBase::Environment</text>
<text text-anchor="middle" x="634" y="-64" font-family="FreeSans" font-size="10.00">::getWindowManager</text>
</a>
</g>
</g>
<!-- Node2&#45;&gt;Node7 -->
<g id="edge10" class="edge"><title>Node2&#45;&gt;Node7</title>
<path fill="none" stroke="midnightblue" d="M316.983,-65.9709C334.434,-61.8855 353.9,-58.0309 372,-56 438.251,-48.5663 455.504,-51.2321 522,-56 534.922,-56.9265 548.626,-58.4523 561.831,-60.2033"/>
<polygon fill="midnightblue" stroke="midnightblue" points="561.427,-63.6806 571.812,-61.58 562.384,-56.7463 561.427,-63.6806"/>
</g>
<!-- Node8 -->
<g id="node8" class="node"><title>Node8</title>
<g id="a_node8"><a xlink:href="classMWBase_1_1WindowManager.html#a24725f89bc9b354a0c51d185f20f38a6" target="_top" xlink:title="Warning: do not use MyGUI::InputManager::setKeyFocusWidget directly. Instead use this. ">
<polygon fill="white" stroke="black" points="564,-0 564,-30 704,-30 704,-0 564,-0"/>
<text text-anchor="start" x="572" y="-18" font-family="FreeSans" font-size="10.00">MWBase::WindowManager</text>
<text text-anchor="middle" x="634" y="-7" font-family="FreeSans" font-size="10.00">::setKeyFocusWidget</text>
</a>
</g>
</g>
<!-- Node2&#45;&gt;Node8 -->
<g id="edge11" class="edge"><title>Node2&#45;&gt;Node8</title>
<path fill="none" stroke="midnightblue" d="M305.991,-65.9807C325.943,-59.6425 349.958,-52.666 372,-48 432.322,-35.2302 501.605,-26.7516 553.623,-21.5894"/>
<polygon fill="midnightblue" stroke="midnightblue" points="554.174,-25.0524 563.789,-20.6009 553.497,-18.0852 554.174,-25.0524"/>
</g>
<!-- Node3&#45;&gt;Node4 -->
<g id="edge3" class="edge"><title>Node3&#45;&gt;Node4</title>
<path fill="none" stroke="midnightblue" d="M473.051,-96.1786C494.886,-108.924 527.715,-126.935 558,-139 565.945,-142.165 574.543,-145.048 582.985,-147.595"/>
<polygon fill="midnightblue" stroke="midnightblue" points="582.197,-151.011 592.776,-150.428 584.143,-144.287 582.197,-151.011"/>
</g>
<!-- Node3&#45;&gt;Node6 -->
<g id="edge5" class="edge"><title>Node3&#45;&gt;Node6</title>
<path fill="none" stroke="midnightblue" d="M519.261,-96.0226C538.671,-100.114 559.399,-104.484 577.772,-108.357"/>
<polygon fill="midnightblue" stroke="midnightblue" points="577.206,-111.815 587.713,-110.453 578.65,-104.966 577.206,-111.815"/>
</g>
<!-- Node3&#45;&gt;Node7 -->
<g id="edge6" class="edge"><title>Node3&#45;&gt;Node7</title>
<path fill="none" stroke="midnightblue" d="M522.181,-77.3912C535.189,-76.7584 548.701,-76.101 561.631,-75.472"/>
<polygon fill="midnightblue" stroke="midnightblue" points="562.037,-78.9565 571.855,-74.9746 561.697,-71.9647 562.037,-78.9565"/>
</g>
<!-- Node3&#45;&gt;Node8 -->
<g id="edge7" class="edge"><title>Node3&#45;&gt;Node8</title>
<path fill="none" stroke="midnightblue" d="M490.443,-65.8583C517.47,-56.216 552.657,-43.663 581.309,-33.4409"/>
<polygon fill="midnightblue" stroke="midnightblue" points="582.512,-36.728 590.755,-30.0713 580.16,-30.135 582.512,-36.728"/>
</g>
<!-- Node5 -->
<g id="node5" class="node"><title>Node5</title>
<g id="a_node5"><a xlink:href="namespaceMWGui.html#a6b7301ed80ad47148c82d16e3ed32e6f" target="_top" xlink:title="MWGui::shouldAcceptKeyFocus">
<polygon fill="white" stroke="black" points="746,-150.5 746,-169.5 910,-169.5 910,-150.5 746,-150.5"/>
<text text-anchor="middle" x="828" y="-157.5" font-family="FreeSans" font-size="10.00">MWGui::shouldAcceptKeyFocus</text>
</a>
</g>
</g>
<!-- Node4&#45;&gt;Node5 -->
<g id="edge4" class="edge"><title>Node4&#45;&gt;Node5</title>
<path fill="none" stroke="midnightblue" d="M710.057,-160C718.524,-160 727.219,-160 735.862,-160"/>
<polygon fill="midnightblue" stroke="midnightblue" points="735.966,-163.5 745.966,-160 735.966,-156.5 735.966,-163.5"/>
</g>
</g>
</svg>
