<?xml version="1.0" encoding="UTF-8" standalone="no"?>
<!DOCTYPE svg PUBLIC "-//W3C//DTD SVG 1.1//EN"
 "http://www.w3.org/Graphics/SVG/1.1/DTD/svg11.dtd">
<!-- Generated by graphviz version 2.36.0 (20140111.2315)
 -->
<!-- Title: CSVWorld::GenericCreator::getCollectionId Pages: 1 -->
<svg width="310pt" height="136pt"
 viewBox="0.00 0.00 310.00 136.00" xmlns="http://www.w3.org/2000/svg" xmlns:xlink="http://www.w3.org/1999/xlink">
<g id="graph0" class="graph" transform="scale(1 1) rotate(0) translate(4 132)">
<title>CSVWorld::GenericCreator::getCollectionId</title>
<polygon fill="white" stroke="none" points="-4,4 -4,-132 306,-132 306,4 -4,4"/>
<!-- Node1 -->
<g id="node1" class="node"><title>Node1</title>
<polygon fill="#bfbfbf" stroke="black" points="0.5,-49 0.5,-79 131.5,-79 131.5,-49 0.5,-49"/>
<text text-anchor="start" x="8.5" y="-67" font-family="FreeSans" font-size="10.00">CSVWorld::GenericCreator</text>
<text text-anchor="middle" x="66" y="-56" font-family="FreeSans" font-size="10.00">::getCollectionId</text>
</g>
<!-- Node2 -->
<g id="node2" class="node"><title>Node2</title>
<g id="a_node2"><a xlink:href="classCSVWorld_1_1DialogueCreator.html#ad9fa77e5a8c945a20cccd4735333b1e6" target="_top" xlink:title="Allow subclasses to add additional data to command. ">
<polygon fill="white" stroke="black" points="168,-98 168,-128 302,-128 302,-98 168,-98"/>
<text text-anchor="start" x="176" y="-116" font-family="FreeSans" font-size="10.00">CSVWorld::DialogueCreator</text>
<text text-anchor="middle" x="235" y="-105" font-family="FreeSans" font-size="10.00">::configureCreateCommand</text>
</a>
</g>
</g>
<!-- Node1&#45;&gt;Node2 -->
<g id="edge1" class="edge"><title>Node1&#45;&gt;Node2</title>
<path fill="none" stroke="midnightblue" d="M128.234,-81.967C146.127,-87.217 165.492,-92.8989 182.702,-97.9484"/>
<polygon fill="midnightblue" stroke="midnightblue" points="129.049,-78.5585 118.468,-79.1014 127.078,-85.2754 129.049,-78.5585"/>
</g>
<!-- Node3 -->
<g id="node3" class="node"><title>Node3</title>
<g id="a_node3"><a xlink:href="classCSVWorld_1_1GlobalCreator.html#a1867471252b3c5caba0fb55dfaad00ad" target="_top" xlink:title="Allow subclasses to add additional data to command. ">
<polygon fill="white" stroke="black" points="168.5,-49 168.5,-79 301.5,-79 301.5,-49 168.5,-49"/>
<text text-anchor="start" x="176.5" y="-67" font-family="FreeSans" font-size="10.00">CSVWorld::GlobalCreator</text>
<text text-anchor="middle" x="235" y="-56" font-family="FreeSans" font-size="10.00">::configureCreateCommand</text>
</a>
</g>
</g>
<!-- Node1&#45;&gt;Node3 -->
<g id="edge2" class="edge"><title>Node1&#45;&gt;Node3</title>
<path fill="none" stroke="midnightblue" d="M141.819,-64C150.624,-64 159.559,-64 168.227,-64"/>
<polygon fill="midnightblue" stroke="midnightblue" points="141.567,-60.5001 131.567,-64 141.567,-67.5001 141.567,-60.5001"/>
</g>
<!-- Node4 -->
<g id="node4" class="node"><title>Node4</title>
<g id="a_node4"><a xlink:href="classCSVWorld_1_1InfoCreator.html#ac77f1df2679fffadb5d14a679526b65b" target="_top" xlink:title="CSVWorld::InfoCreator\l::InfoCreator">
<polygon fill="white" stroke="black" points="178.5,-0 178.5,-30 291.5,-30 291.5,-0 178.5,-0"/>
<text text-anchor="start" x="186.5" y="-18" font-family="FreeSans" font-size="10.00">CSVWorld::InfoCreator</text>
<text text-anchor="middle" x="235" y="-7" font-family="FreeSans" font-size="10.00">::InfoCreator</text>
</a>
</g>
</g>
<!-- Node1&#45;&gt;Node4 -->
<g id="edge3" class="edge"><title>Node1&#45;&gt;Node4</title>
<path fill="none" stroke="midnightblue" d="M128.234,-46.033C146.127,-40.783 165.492,-35.1011 182.702,-30.0516"/>
<polygon fill="midnightblue" stroke="midnightblue" points="127.078,-42.7246 118.468,-48.8986 129.049,-49.4415 127.078,-42.7246"/>
</g>
</g>
</svg>
