<?xml version="1.0" encoding="UTF-8" standalone="no"?>
<!DOCTYPE svg PUBLIC "-//W3C//DTD SVG 1.1//EN"
 "http://www.w3.org/Graphics/SVG/1.1/DTD/svg11.dtd">
<!-- Generated by graphviz version 2.36.0 (20140111.2315)
 -->
<!-- Title: MWBase::MechanicsManager::cleanupSummonedCreature Pages: 1 -->
<svg width="1212pt" height="283pt"
 viewBox="0.00 0.00 1212.00 283.00" xmlns="http://www.w3.org/2000/svg" xmlns:xlink="http://www.w3.org/1999/xlink">
<g id="graph0" class="graph" transform="scale(1 1) rotate(0) translate(4 279)">
<title>MWBase::MechanicsManager::cleanupSummonedCreature</title>
<polygon fill="white" stroke="none" points="-4,4 -4,-279 1208,-279 1208,4 -4,4"/>
<!-- Node1 -->
<g id="node1" class="node"><title>Node1</title>
<polygon fill="#bfbfbf" stroke="black" points="0,-171 0,-201 158,-201 158,-171 0,-171"/>
<text text-anchor="start" x="8" y="-189" font-family="FreeSans" font-size="10.00">MWBase::MechanicsManager</text>
<text text-anchor="middle" x="79" y="-178" font-family="FreeSans" font-size="10.00">::cleanupSummonedCreature</text>
</g>
<!-- Node2 -->
<g id="node2" class="node"><title>Node2</title>
<g id="a_node2"><a xlink:href="classMWMechanics_1_1CastSpell.html#a0b93caa45a3da548f198f6ed8b3d2be7" target="_top" xlink:title="MWMechanics::CastSpell\l::inflict">
<polygon fill="white" stroke="black" points="218,-196 218,-226 352,-226 352,-196 218,-196"/>
<text text-anchor="start" x="226" y="-214" font-family="FreeSans" font-size="10.00">MWMechanics::CastSpell</text>
<text text-anchor="middle" x="285" y="-203" font-family="FreeSans" font-size="10.00">::inflict</text>
</a>
</g>
</g>
<!-- Node1&#45;&gt;Node2 -->
<g id="edge1" class="edge"><title>Node1&#45;&gt;Node2</title>
<path fill="none" stroke="midnightblue" d="M168.521,-196.848C185.082,-198.878 202.126,-200.966 217.864,-202.895"/>
<polygon fill="midnightblue" stroke="midnightblue" points="168.64,-193.337 158.288,-195.594 167.788,-200.285 168.64,-193.337"/>
</g>
<!-- Node7 -->
<g id="node7" class="node"><title>Node7</title>
<g id="a_node7"><a xlink:href="structMWMechanics_1_1UpdateSummonedCreatures.html#aca0efbdf8f6e7359e407a1b78716d96b" target="_top" xlink:title="To call after all effect sources have been visited. ">
<polygon fill="white" stroke="black" points="194.5,-122 194.5,-152 375.5,-152 375.5,-122 194.5,-122"/>
<text text-anchor="start" x="202.5" y="-140" font-family="FreeSans" font-size="10.00">MWMechanics::UpdateSummoned</text>
<text text-anchor="middle" x="285" y="-129" font-family="FreeSans" font-size="10.00">Creatures::process</text>
</a>
</g>
</g>
<!-- Node1&#45;&gt;Node7 -->
<g id="edge8" class="edge"><title>Node1&#45;&gt;Node7</title>
<path fill="none" stroke="midnightblue" d="M152.457,-168.596C175.024,-163.176 199.702,-157.248 221.525,-152.006"/>
<polygon fill="midnightblue" stroke="midnightblue" points="151.499,-165.227 142.593,-170.965 153.134,-172.033 151.499,-165.227"/>
</g>
<!-- Node3 -->
<g id="node3" class="node"><title>Node3</title>
<g id="a_node3"><a xlink:href="classMWMechanics_1_1CastSpell.html#a792b5c30e747b65d6c5f83166d716d59" target="_top" xlink:title="MWMechanics::CastSpell\l::cast">
<polygon fill="white" stroke="black" points="430,-245 430,-275 564,-275 564,-245 430,-245"/>
<text text-anchor="start" x="438" y="-263" font-family="FreeSans" font-size="10.00">MWMechanics::CastSpell</text>
<text text-anchor="middle" x="497" y="-252" font-family="FreeSans" font-size="10.00">::cast</text>
</a>
</g>
</g>
<!-- Node2&#45;&gt;Node3 -->
<g id="edge2" class="edge"><title>Node2&#45;&gt;Node3</title>
<path fill="none" stroke="midnightblue" d="M360.275,-228.331C383.591,-233.771 409.122,-239.729 431.688,-244.994"/>
<polygon fill="midnightblue" stroke="midnightblue" points="360.968,-224.899 350.434,-226.035 359.377,-231.715 360.968,-224.899"/>
</g>
<!-- Node4 -->
<g id="node4" class="node"><title>Node4</title>
<g id="a_node4"><a xlink:href="classMWWorld_1_1ProjectileManager.html#ad7f820af09ff0d1c510ad52b9db7cefa" target="_top" xlink:title="MWWorld::ProjectileManager\l::moveMagicBolts">
<polygon fill="white" stroke="black" points="422,-196 422,-226 572,-226 572,-196 422,-196"/>
<text text-anchor="start" x="430" y="-214" font-family="FreeSans" font-size="10.00">MWWorld::ProjectileManager</text>
<text text-anchor="middle" x="497" y="-203" font-family="FreeSans" font-size="10.00">::moveMagicBolts</text>
</a>
</g>
</g>
<!-- Node2&#45;&gt;Node4 -->
<g id="edge3" class="edge"><title>Node2&#45;&gt;Node4</title>
<path fill="none" stroke="midnightblue" d="M362.169,-211C381.594,-211 402.446,-211 421.773,-211"/>
<polygon fill="midnightblue" stroke="midnightblue" points="362.157,-207.5 352.157,-211 362.157,-214.5 362.157,-207.5"/>
</g>
<!-- Node5 -->
<g id="node5" class="node"><title>Node5</title>
<g id="a_node5"><a xlink:href="classMWWorld_1_1ProjectileManager.html#a10e1c50b640ed158c9332d75c870c8c5" target="_top" xlink:title="MWWorld::ProjectileManager\l::update">
<polygon fill="white" stroke="black" points="618,-196 618,-226 768,-226 768,-196 618,-196"/>
<text text-anchor="start" x="626" y="-214" font-family="FreeSans" font-size="10.00">MWWorld::ProjectileManager</text>
<text text-anchor="middle" x="693" y="-203" font-family="FreeSans" font-size="10.00">::update</text>
</a>
</g>
</g>
<!-- Node4&#45;&gt;Node5 -->
<g id="edge4" class="edge"><title>Node4&#45;&gt;Node5</title>
<path fill="none" stroke="midnightblue" d="M582.453,-204.3C594.244,-204.205 606.286,-204.245 617.868,-204.42"/>
<polygon fill="midnightblue" stroke="midnightblue" points="582.132,-200.804 572.173,-204.419 582.213,-207.803 582.132,-200.804"/>
</g>
<!-- Node5&#45;&gt;Node4 -->
<g id="edge5" class="edge"><title>Node5&#45;&gt;Node4</title>
<path fill="none" stroke="midnightblue" d="M607.589,-217.699C595.799,-217.795 583.756,-217.755 572.173,-217.581"/>
<polygon fill="midnightblue" stroke="midnightblue" points="607.909,-221.196 617.868,-217.58 607.828,-214.196 607.909,-221.196"/>
</g>
<!-- Node6 -->
<g id="node6" class="node"><title>Node6</title>
<g id="a_node6"><a xlink:href="classMWWorld_1_1ProjectileManager.html#a77bced8f0dfc8fec0a492cd753d0c464" target="_top" xlink:title="MWWorld::ProjectileManager\l::moveProjectiles">
<polygon fill="white" stroke="black" points="820,-196 820,-226 970,-226 970,-196 820,-196"/>
<text text-anchor="start" x="828" y="-214" font-family="FreeSans" font-size="10.00">MWWorld::ProjectileManager</text>
<text text-anchor="middle" x="895" y="-203" font-family="FreeSans" font-size="10.00">::moveProjectiles</text>
</a>
</g>
</g>
<!-- Node5&#45;&gt;Node6 -->
<g id="edge6" class="edge"><title>Node5&#45;&gt;Node6</title>
<path fill="none" stroke="midnightblue" d="M778.194,-204.326C792.058,-204.192 806.338,-204.236 819.931,-204.456"/>
<polygon fill="midnightblue" stroke="midnightblue" points="778.143,-200.826 768.188,-204.454 778.233,-207.825 778.143,-200.826"/>
</g>
<!-- Node6&#45;&gt;Node5 -->
<g id="edge7" class="edge"><title>Node6&#45;&gt;Node5</title>
<path fill="none" stroke="midnightblue" d="M809.928,-217.673C796.066,-217.808 781.786,-217.765 768.188,-217.546"/>
<polygon fill="midnightblue" stroke="midnightblue" points="809.978,-221.173 819.931,-217.544 809.887,-214.174 809.978,-221.173"/>
</g>
<!-- Node8 -->
<g id="node8" class="node"><title>Node8</title>
<g id="a_node8"><a xlink:href="classMWMechanics_1_1Actors.html#aaeb9f8753ca25ab09b5af8630205ce72" target="_top" xlink:title="MWMechanics::Actors\l::calculateCreatureStatModifiers">
<polygon fill="white" stroke="black" points="412,-98 412,-128 582,-128 582,-98 412,-98"/>
<text text-anchor="start" x="420" y="-116" font-family="FreeSans" font-size="10.00">MWMechanics::Actors</text>
<text text-anchor="middle" x="497" y="-105" font-family="FreeSans" font-size="10.00">::calculateCreatureStatModifiers</text>
</a>
</g>
</g>
<!-- Node7&#45;&gt;Node8 -->
<g id="edge9" class="edge"><title>Node7&#45;&gt;Node8</title>
<path fill="none" stroke="midnightblue" d="M385.877,-125.585C394.605,-124.588 403.38,-123.585 411.96,-122.605"/>
<polygon fill="midnightblue" stroke="midnightblue" points="385.206,-122.139 375.668,-126.752 386.001,-129.094 385.206,-122.139"/>
</g>
<!-- Node9 -->
<g id="node9" class="node"><title>Node9</title>
<g id="a_node9"><a xlink:href="classMWMechanics_1_1Actors.html#a5af95ec37502d80b957ce40234eeb05f" target="_top" xlink:title="MWMechanics::Actors\l::updateActor">
<polygon fill="white" stroke="black" points="633,-147 633,-177 753,-177 753,-147 633,-147"/>
<text text-anchor="start" x="641" y="-165" font-family="FreeSans" font-size="10.00">MWMechanics::Actors</text>
<text text-anchor="middle" x="693" y="-154" font-family="FreeSans" font-size="10.00">::updateActor</text>
</a>
</g>
</g>
<!-- Node8&#45;&gt;Node9 -->
<g id="edge10" class="edge"><title>Node8&#45;&gt;Node9</title>
<path fill="none" stroke="midnightblue" d="M567.24,-130.488C588.725,-135.915 612.194,-141.843 632.922,-147.078"/>
<polygon fill="midnightblue" stroke="midnightblue" points="568.077,-127.09 557.525,-128.035 566.363,-133.877 568.077,-127.09"/>
</g>
<!-- Node10 -->
<g id="node10" class="node"><title>Node10</title>
<g id="a_node10"><a xlink:href="classMWMechanics_1_1Actors.html#a43831198b7ba76efc6e134986d9205e2" target="_top" xlink:title="MWMechanics::Actors\l::killDeadActors">
<polygon fill="white" stroke="black" points="633,-98 633,-128 753,-128 753,-98 633,-98"/>
<text text-anchor="start" x="641" y="-116" font-family="FreeSans" font-size="10.00">MWMechanics::Actors</text>
<text text-anchor="middle" x="693" y="-105" font-family="FreeSans" font-size="10.00">::killDeadActors</text>
</a>
</g>
</g>
<!-- Node8&#45;&gt;Node10 -->
<g id="edge11" class="edge"><title>Node8&#45;&gt;Node10</title>
<path fill="none" stroke="midnightblue" d="M592.296,-113C606.14,-113 620.057,-113 632.918,-113"/>
<polygon fill="midnightblue" stroke="midnightblue" points="592.245,-109.5 582.245,-113 592.245,-116.5 592.245,-109.5"/>
</g>
<!-- Node13 -->
<g id="node13" class="node"><title>Node13</title>
<g id="a_node13"><a xlink:href="classMWMechanics_1_1Actors.html#a234a6d86f0ba586ee6f72d0b6e6e8dc1" target="_top" xlink:title="Update actors while the player is waiting or sleeping. This should be called every hour...">
<polygon fill="white" stroke="black" points="633,-49 633,-79 753,-79 753,-49 633,-49"/>
<text text-anchor="start" x="641" y="-67" font-family="FreeSans" font-size="10.00">MWMechanics::Actors</text>
<text text-anchor="middle" x="693" y="-56" font-family="FreeSans" font-size="10.00">::rest</text>
</a>
</g>
</g>
<!-- Node8&#45;&gt;Node13 -->
<g id="edge14" class="edge"><title>Node8&#45;&gt;Node13</title>
<path fill="none" stroke="midnightblue" d="M567.24,-95.5116C588.725,-90.085 612.194,-84.1572 632.922,-78.9219"/>
<polygon fill="midnightblue" stroke="midnightblue" points="566.363,-92.123 557.525,-97.9654 568.077,-98.9099 566.363,-92.123"/>
</g>
<!-- Node15 -->
<g id="node15" class="node"><title>Node15</title>
<g id="a_node15"><a xlink:href="classMWMechanics_1_1Actors.html#ae9acc75d922e60bf1ba950e653d045c3" target="_top" xlink:title="MWMechanics::Actors\l::updateMagicEffects">
<polygon fill="white" stroke="black" points="633,-0 633,-30 753,-30 753,-0 633,-0"/>
<text text-anchor="start" x="641" y="-18" font-family="FreeSans" font-size="10.00">MWMechanics::Actors</text>
<text text-anchor="middle" x="693" y="-7" font-family="FreeSans" font-size="10.00">::updateMagicEffects</text>
</a>
</g>
</g>
<!-- Node8&#45;&gt;Node15 -->
<g id="edge16" class="edge"><title>Node8&#45;&gt;Node15</title>
<path fill="none" stroke="midnightblue" d="M527.743,-91.8688C551.368,-75.7837 585.693,-53.9382 618,-39 624.988,-35.7691 632.532,-32.7871 640.039,-30.1034"/>
<polygon fill="midnightblue" stroke="midnightblue" points="525.489,-89.1708 519.238,-97.7251 529.459,-94.936 525.489,-89.1708"/>
</g>
<!-- Node11 -->
<g id="node11" class="node"><title>Node11</title>
<g id="a_node11"><a xlink:href="classMWMechanics_1_1Actors.html#a1588180bba8597286a1db1389cee106e" target="_top" xlink:title="Update actor stats and store desired velocity vectors in movement. ">
<polygon fill="white" stroke="black" points="835,-98 835,-128 955,-128 955,-98 835,-98"/>
<text text-anchor="start" x="843" y="-116" font-family="FreeSans" font-size="10.00">MWMechanics::Actors</text>
<text text-anchor="middle" x="895" y="-105" font-family="FreeSans" font-size="10.00">::update</text>
</a>
</g>
</g>
<!-- Node10&#45;&gt;Node11 -->
<g id="edge12" class="edge"><title>Node10&#45;&gt;Node11</title>
<path fill="none" stroke="midnightblue" d="M763.372,-113C786.703,-113 812.496,-113 834.957,-113"/>
<polygon fill="midnightblue" stroke="midnightblue" points="763.195,-109.5 753.195,-113 763.195,-116.5 763.195,-109.5"/>
</g>
<!-- Node12 -->
<g id="node12" class="node"><title>Node12</title>
<g id="a_node12"><a xlink:href="classMWMechanics_1_1MechanicsManager.html#acf3c8c25fff52b890d0d6ced4b456459" target="_top" xlink:title="MWMechanics::MechanicsManager\l::update">
<polygon fill="white" stroke="black" points="1022,-98 1022,-128 1204,-128 1204,-98 1022,-98"/>
<text text-anchor="start" x="1030" y="-116" font-family="FreeSans" font-size="10.00">MWMechanics::MechanicsManager</text>
<text text-anchor="middle" x="1113" y="-105" font-family="FreeSans" font-size="10.00">::update</text>
</a>
</g>
</g>
<!-- Node11&#45;&gt;Node12 -->
<g id="edge13" class="edge"><title>Node11&#45;&gt;Node12</title>
<path fill="none" stroke="midnightblue" d="M965.141,-113C983.174,-113 1002.88,-113 1021.82,-113"/>
<polygon fill="midnightblue" stroke="midnightblue" points="965.023,-109.5 955.023,-113 965.023,-116.5 965.023,-109.5"/>
</g>
<!-- Node14 -->
<g id="node14" class="node"><title>Node14</title>
<g id="a_node14"><a xlink:href="classMWMechanics_1_1MechanicsManager.html#a0d59b750f6336af8a3db5007a3509054" target="_top" xlink:title="MWMechanics::MechanicsManager\l::rest">
<polygon fill="white" stroke="black" points="804,-49 804,-79 986,-79 986,-49 804,-49"/>
<text text-anchor="start" x="812" y="-67" font-family="FreeSans" font-size="10.00">MWMechanics::MechanicsManager</text>
<text text-anchor="middle" x="895" y="-56" font-family="FreeSans" font-size="10.00">::rest</text>
</a>
</g>
</g>
<!-- Node13&#45;&gt;Node14 -->
<g id="edge15" class="edge"><title>Node13&#45;&gt;Node14</title>
<path fill="none" stroke="midnightblue" d="M763.456,-64C776.48,-64 790.268,-64 803.813,-64"/>
<polygon fill="midnightblue" stroke="midnightblue" points="763.195,-60.5001 753.195,-64 763.195,-67.5001 763.195,-60.5001"/>
</g>
<!-- Node16 -->
<g id="node16" class="node"><title>Node16</title>
<g id="a_node16"><a xlink:href="classMWMechanics_1_1MechanicsManager.html#afc410b78620c72d4ec2447b495430128" target="_top" xlink:title="MWMechanics::MechanicsManager\l::updateMagicEffects">
<polygon fill="white" stroke="black" points="804,-0 804,-30 986,-30 986,-0 804,-0"/>
<text text-anchor="start" x="812" y="-18" font-family="FreeSans" font-size="10.00">MWMechanics::MechanicsManager</text>
<text text-anchor="middle" x="895" y="-7" font-family="FreeSans" font-size="10.00">::updateMagicEffects</text>
</a>
</g>
</g>
<!-- Node15&#45;&gt;Node16 -->
<g id="edge17" class="edge"><title>Node15&#45;&gt;Node16</title>
<path fill="none" stroke="midnightblue" d="M763.456,-15C776.48,-15 790.268,-15 803.813,-15"/>
<polygon fill="midnightblue" stroke="midnightblue" points="763.195,-11.5001 753.195,-15 763.195,-18.5001 763.195,-11.5001"/>
</g>
</g>
</svg>
