<?xml version="1.0" encoding="UTF-8" standalone="no"?>
<!DOCTYPE svg PUBLIC "-//W3C//DTD SVG 1.1//EN"
 "http://www.w3.org/Graphics/SVG/1.1/DTD/svg11.dtd">
<!-- Generated by graphviz version 2.36.0 (20140111.2315)
 -->
<!-- Title: CSVRender::RenderWidget::flagAsModified Pages: 1 -->
<svg width="1050pt" height="136pt"
 viewBox="0.00 0.00 1050.00 136.00" xmlns="http://www.w3.org/2000/svg" xmlns:xlink="http://www.w3.org/1999/xlink">
<g id="graph0" class="graph" transform="scale(1 1) rotate(0) translate(4 132)">
<title>CSVRender::RenderWidget::flagAsModified</title>
<polygon fill="white" stroke="none" points="-4,4 -4,-132 1046,-132 1046,4 -4,4"/>
<!-- Node1 -->
<g id="node1" class="node"><title>Node1</title>
<polygon fill="#bfbfbf" stroke="black" points="0,-24 0,-54 132,-54 132,-24 0,-24"/>
<text text-anchor="start" x="8" y="-42" font-family="FreeSans" font-size="10.00">CSVRender::RenderWidget</text>
<text text-anchor="middle" x="66" y="-31" font-family="FreeSans" font-size="10.00">::flagAsModified</text>
</g>
<!-- Node2 -->
<g id="node2" class="node"><title>Node2</title>
<g id="a_node2"><a xlink:href="classCSVRender_1_1SceneWidget.html#a4b5e2390efea76bcbd7520ff7753e11d" target="_top" xlink:title="CSVRender::SceneWidget\l::setLighting">
<polygon fill="white" stroke="black" points="183.5,-49 183.5,-79 312.5,-79 312.5,-49 183.5,-49"/>
<text text-anchor="start" x="191.5" y="-67" font-family="FreeSans" font-size="10.00">CSVRender::SceneWidget</text>
<text text-anchor="middle" x="248" y="-56" font-family="FreeSans" font-size="10.00">::setLighting</text>
</a>
</g>
</g>
<!-- Node1&#45;&gt;Node2 -->
<g id="edge1" class="edge"><title>Node1&#45;&gt;Node2</title>
<path fill="none" stroke="midnightblue" d="M142.147,-49.4371C155.896,-51.3466 170.12,-53.3222 183.488,-55.1789"/>
<polygon fill="midnightblue" stroke="midnightblue" points="142.625,-45.97 132.239,-48.0609 141.662,-52.9034 142.625,-45.97"/>
</g>
<!-- Node9 -->
<g id="node9" class="node"><title>Node9</title>
<g id="a_node9"><a xlink:href="classCSVRender_1_1UnpagedWorldspaceWidget.html#a6a70d29d27a155264eb7082d92786cae" target="_top" xlink:title="CSVRender::UnpagedWorldspace\lWidget::update">
<polygon fill="white" stroke="black" points="168,-0 168,-30 328,-30 328,-0 168,-0"/>
<text text-anchor="start" x="176" y="-18" font-family="FreeSans" font-size="10.00">CSVRender::UnpagedWorldspace</text>
<text text-anchor="middle" x="248" y="-7" font-family="FreeSans" font-size="10.00">Widget::update</text>
</a>
</g>
</g>
<!-- Node1&#45;&gt;Node9 -->
<g id="edge8" class="edge"><title>Node1&#45;&gt;Node9</title>
<path fill="none" stroke="midnightblue" d="M142.4,-28.9467C150.819,-27.8242 159.412,-26.6783 167.876,-25.5499"/>
<polygon fill="midnightblue" stroke="midnightblue" points="141.688,-25.5105 132.239,-30.3015 142.614,-32.4491 141.688,-25.5105"/>
</g>
<!-- Node3 -->
<g id="node3" class="node"><title>Node3</title>
<g id="a_node3"><a xlink:href="classCSVRender_1_1SceneWidget.html#a614539ec8f38604f46d3c9c8d1c54a1f" target="_top" xlink:title="CSVRender::SceneWidget\l::SceneWidget">
<polygon fill="white" stroke="black" points="384.5,-98 384.5,-128 513.5,-128 513.5,-98 384.5,-98"/>
<text text-anchor="start" x="392.5" y="-116" font-family="FreeSans" font-size="10.00">CSVRender::SceneWidget</text>
<text text-anchor="middle" x="449" y="-105" font-family="FreeSans" font-size="10.00">::SceneWidget</text>
</a>
</g>
</g>
<!-- Node2&#45;&gt;Node3 -->
<g id="edge2" class="edge"><title>Node2&#45;&gt;Node3</title>
<path fill="none" stroke="midnightblue" d="M319.977,-81.4768C341.911,-86.8775 365.864,-92.7755 387.057,-97.9938"/>
<polygon fill="midnightblue" stroke="midnightblue" points="320.606,-78.0271 310.059,-79.0346 318.932,-84.8241 320.606,-78.0271"/>
</g>
<!-- Node4 -->
<g id="node4" class="node"><title>Node4</title>
<g id="a_node4"><a xlink:href="classCSVRender_1_1SceneWidget.html#a01b15d7195baa79b37dd0df8e5aff9b5" target="_top" xlink:title="CSVRender::SceneWidget\l::selectLightingMode">
<polygon fill="white" stroke="black" points="384.5,-49 384.5,-79 513.5,-79 513.5,-49 384.5,-49"/>
<text text-anchor="start" x="392.5" y="-67" font-family="FreeSans" font-size="10.00">CSVRender::SceneWidget</text>
<text text-anchor="middle" x="449" y="-56" font-family="FreeSans" font-size="10.00">::selectLightingMode</text>
</a>
</g>
</g>
<!-- Node2&#45;&gt;Node4 -->
<g id="edge3" class="edge"><title>Node2&#45;&gt;Node4</title>
<path fill="none" stroke="midnightblue" d="M322.642,-64C342.924,-64 364.747,-64 384.409,-64"/>
<polygon fill="midnightblue" stroke="midnightblue" points="322.512,-60.5001 312.512,-64 322.512,-67.5001 322.512,-60.5001"/>
</g>
<!-- Node5 -->
<g id="node5" class="node"><title>Node5</title>
<g id="a_node5"><a xlink:href="classCSVRender_1_1SceneWidget.html#a0af565c9408b8f396c9063737c2d24c4" target="_top" xlink:title="CSVRender::SceneWidget\l::makeLightingSelector">
<polygon fill="white" stroke="black" points="570.5,-49 570.5,-79 699.5,-79 699.5,-49 570.5,-49"/>
<text text-anchor="start" x="578.5" y="-67" font-family="FreeSans" font-size="10.00">CSVRender::SceneWidget</text>
<text text-anchor="middle" x="635" y="-56" font-family="FreeSans" font-size="10.00">::makeLightingSelector</text>
</a>
</g>
</g>
<!-- Node4&#45;&gt;Node5 -->
<g id="edge4" class="edge"><title>Node4&#45;&gt;Node5</title>
<path fill="none" stroke="midnightblue" d="M523.634,-64C539.123,-64 555.335,-64 570.417,-64"/>
<polygon fill="midnightblue" stroke="midnightblue" points="523.58,-60.5001 513.58,-64 523.58,-67.5001 523.58,-60.5001"/>
</g>
<!-- Node6 -->
<g id="node6" class="node"><title>Node6</title>
<g id="a_node6"><a xlink:href="classCSVWorld_1_1PreviewSubView.html#afaa1689441b16929f722701220dd5ad4" target="_top" xlink:title="CSVWorld::PreviewSubView\l::PreviewSubView">
<polygon fill="white" stroke="black" points="736.5,-74 736.5,-104 873.5,-104 873.5,-74 736.5,-74"/>
<text text-anchor="start" x="744.5" y="-92" font-family="FreeSans" font-size="10.00">CSVWorld::PreviewSubView</text>
<text text-anchor="middle" x="805" y="-81" font-family="FreeSans" font-size="10.00">::PreviewSubView</text>
</a>
</g>
</g>
<!-- Node5&#45;&gt;Node6 -->
<g id="edge5" class="edge"><title>Node5&#45;&gt;Node6</title>
<path fill="none" stroke="midnightblue" d="M709.535,-74.9428C718.492,-76.2756 727.61,-77.6325 736.474,-78.9514"/>
<polygon fill="midnightblue" stroke="midnightblue" points="709.92,-71.4615 699.514,-73.4514 708.889,-78.3853 709.92,-71.4615"/>
</g>
<!-- Node7 -->
<g id="node7" class="node"><title>Node7</title>
<g id="a_node7"><a xlink:href="classCSVWorld_1_1SceneSubView.html#a89324016ecc1465ffde40398eaf4835f" target="_top" xlink:title="CSVWorld::SceneSubView\l::makeToolbar">
<polygon fill="white" stroke="black" points="739.5,-25 739.5,-55 870.5,-55 870.5,-25 739.5,-25"/>
<text text-anchor="start" x="747.5" y="-43" font-family="FreeSans" font-size="10.00">CSVWorld::SceneSubView</text>
<text text-anchor="middle" x="805" y="-32" font-family="FreeSans" font-size="10.00">::makeToolbar</text>
</a>
</g>
</g>
<!-- Node5&#45;&gt;Node7 -->
<g id="edge6" class="edge"><title>Node5&#45;&gt;Node7</title>
<path fill="none" stroke="midnightblue" d="M709.691,-53.4727C719.546,-52.0648 729.594,-50.6295 739.28,-49.2458"/>
<polygon fill="midnightblue" stroke="midnightblue" points="708.918,-50.0475 699.514,-54.9266 709.908,-56.9772 708.918,-50.0475"/>
</g>
<!-- Node8 -->
<g id="node8" class="node"><title>Node8</title>
<g id="a_node8"><a xlink:href="classCSVWorld_1_1SceneSubView.html#aafa63592544f09bb82bf991f1228eee4" target="_top" xlink:title="CSVWorld::SceneSubView\l::SceneSubView">
<polygon fill="white" stroke="black" points="910.5,-25 910.5,-55 1041.5,-55 1041.5,-25 910.5,-25"/>
<text text-anchor="start" x="918.5" y="-43" font-family="FreeSans" font-size="10.00">CSVWorld::SceneSubView</text>
<text text-anchor="middle" x="976" y="-32" font-family="FreeSans" font-size="10.00">::SceneSubView</text>
</a>
</g>
</g>
<!-- Node7&#45;&gt;Node8 -->
<g id="edge7" class="edge"><title>Node7&#45;&gt;Node8</title>
<path fill="none" stroke="midnightblue" d="M880.971,-40C890.758,-40 900.719,-40 910.317,-40"/>
<polygon fill="midnightblue" stroke="midnightblue" points="880.857,-36.5001 870.856,-40 880.856,-43.5001 880.857,-36.5001"/>
</g>
<!-- Node10 -->
<g id="node10" class="node"><title>Node10</title>
<g id="a_node10"><a xlink:href="classCSVRender_1_1UnpagedWorldspaceWidget.html#abf208c368931a30455c2304b33ee000f" target="_top" xlink:title="CSVRender::UnpagedWorldspace\lWidget::UnpagedWorldspaceWidget">
<polygon fill="white" stroke="black" points="364,-0 364,-30 534,-30 534,-0 364,-0"/>
<text text-anchor="start" x="372" y="-18" font-family="FreeSans" font-size="10.00">CSVRender::UnpagedWorldspace</text>
<text text-anchor="middle" x="449" y="-7" font-family="FreeSans" font-size="10.00">Widget::UnpagedWorldspaceWidget</text>
</a>
</g>
</g>
<!-- Node9&#45;&gt;Node10 -->
<g id="edge9" class="edge"><title>Node9&#45;&gt;Node10</title>
<path fill="none" stroke="midnightblue" d="M338.455,-15C346.897,-15 355.436,-15 363.827,-15"/>
<polygon fill="midnightblue" stroke="midnightblue" points="338.222,-11.5001 328.222,-15 338.222,-18.5001 338.222,-11.5001"/>
</g>
</g>
</svg>
