<?xml version="1.0" encoding="UTF-8" standalone="no"?>
<!DOCTYPE svg PUBLIC "-//W3C//DTD SVG 1.1//EN"
 "http://www.w3.org/Graphics/SVG/1.1/DTD/svg11.dtd">
<!-- Generated by graphviz version 2.36.0 (20140111.2315)
 -->
<!-- Title: MWGui::WindowManager::wakeUpPlayer Pages: 1 -->
<svg width="752pt" height="256pt"
 viewBox="0.00 0.00 752.00 256.00" xmlns="http://www.w3.org/2000/svg" xmlns:xlink="http://www.w3.org/1999/xlink">
<g id="graph0" class="graph" transform="scale(1 1) rotate(0) translate(4 252)">
<title>MWGui::WindowManager::wakeUpPlayer</title>
<polygon fill="white" stroke="none" points="-4,4 -4,-252 748,-252 748,4 -4,4"/>
<!-- Node1 -->
<g id="node1" class="node"><title>Node1</title>
<polygon fill="#bfbfbf" stroke="black" points="0.5,-155 0.5,-185 125.5,-185 125.5,-155 0.5,-155"/>
<text text-anchor="start" x="8.5" y="-173" font-family="FreeSans" font-size="10.00">MWGui::WindowManager</text>
<text text-anchor="middle" x="63" y="-162" font-family="FreeSans" font-size="10.00">::wakeUpPlayer</text>
</g>
<!-- Node2 -->
<g id="node2" class="node"><title>Node2</title>
<g id="a_node2"><a xlink:href="classMWGui_1_1WaitDialog.html#a6c5d52715c5f88f6d5235abc61b8705e" target="_top" xlink:title="MWGui::WaitDialog::\lwakeUp">
<polygon fill="white" stroke="black" points="162,-155 162,-185 266,-185 266,-155 162,-155"/>
<text text-anchor="start" x="170" y="-173" font-family="FreeSans" font-size="10.00">MWGui::WaitDialog::</text>
<text text-anchor="middle" x="214" y="-162" font-family="FreeSans" font-size="10.00">wakeUp</text>
</a>
</g>
</g>
<!-- Node1&#45;&gt;Node2 -->
<g id="edge1" class="edge"><title>Node1&#45;&gt;Node2</title>
<path fill="none" stroke="midnightblue" d="M125.895,-170C134.422,-170 143.175,-170 151.691,-170"/>
<polygon fill="midnightblue" stroke="midnightblue" points="151.93,-173.5 161.929,-170 151.929,-166.5 151.93,-173.5"/>
</g>
<!-- Node3 -->
<g id="node3" class="node"><title>Node3</title>
<g id="a_node3"><a xlink:href="classMWGui_1_1TimeAdvancer.html#a62198d34b1c9d18c657f43df940fff66" target="_top" xlink:title="MWGui::TimeAdvancer\l::stop">
<polygon fill="white" stroke="black" points="450,-218 450,-248 566,-248 566,-218 450,-218"/>
<text text-anchor="start" x="458" y="-236" font-family="FreeSans" font-size="10.00">MWGui::TimeAdvancer</text>
<text text-anchor="middle" x="508" y="-225" font-family="FreeSans" font-size="10.00">::stop</text>
</a>
</g>
</g>
<!-- Node2&#45;&gt;Node3 -->
<g id="edge2" class="edge"><title>Node2&#45;&gt;Node3</title>
<path fill="none" stroke="midnightblue" d="M266.197,-181.046C314.446,-191.456 387.032,-207.116 439.895,-218.522"/>
<polygon fill="midnightblue" stroke="midnightblue" points="439.345,-221.984 449.858,-220.671 440.821,-215.141 439.345,-221.984"/>
</g>
<!-- Node4 -->
<g id="node4" class="node"><title>Node4</title>
<g id="a_node4"><a xlink:href="classMWGui_1_1WaitDialog.html#af62a37165afcc836824b908108125008" target="_top" xlink:title="MWGui::WaitDialog::\lstopWaiting">
<polygon fill="white" stroke="black" points="302,-120 302,-150 406,-150 406,-120 302,-120"/>
<text text-anchor="start" x="310" y="-138" font-family="FreeSans" font-size="10.00">MWGui::WaitDialog::</text>
<text text-anchor="middle" x="354" y="-127" font-family="FreeSans" font-size="10.00">stopWaiting</text>
</a>
</g>
</g>
<!-- Node2&#45;&gt;Node4 -->
<g id="edge3" class="edge"><title>Node2&#45;&gt;Node4</title>
<path fill="none" stroke="midnightblue" d="M266.386,-156.967C274.648,-154.872 283.271,-152.685 291.736,-150.538"/>
<polygon fill="midnightblue" stroke="midnightblue" points="292.738,-153.895 301.571,-148.044 291.017,-147.109 292.738,-153.895"/>
</g>
<!-- Node4&#45;&gt;Node3 -->
<g id="edge14" class="edge"><title>Node4&#45;&gt;Node3</title>
<path fill="none" stroke="midnightblue" d="M369.839,-150.145C386.274,-166.238 414.144,-191.579 442,-208 445.418,-210.015 449.027,-211.924 452.723,-213.721"/>
<polygon fill="midnightblue" stroke="midnightblue" points="451.476,-216.999 462.028,-217.954 454.375,-210.627 451.476,-216.999"/>
</g>
<!-- Node5 -->
<g id="node5" class="node"><title>Node5</title>
<g id="a_node5"><a xlink:href="classMWBase_1_1Environment.html#a73f12633762b049c03c80fe215873faa" target="_top" xlink:title="Return instance of this class. ">
<polygon fill="white" stroke="black" points="611.5,-70.5 611.5,-89.5 742.5,-89.5 742.5,-70.5 611.5,-70.5"/>
<text text-anchor="middle" x="677" y="-77.5" font-family="FreeSans" font-size="10.00">MWBase::Environment::get</text>
</a>
</g>
</g>
<!-- Node4&#45;&gt;Node5 -->
<g id="edge4" class="edge"><title>Node4&#45;&gt;Node5</title>
<path fill="none" stroke="midnightblue" d="M366.88,-119.814C382.049,-101.789 410.176,-72.7037 442,-61 507.932,-36.7525 591.152,-53.7668 638.496,-67.4741"/>
<polygon fill="midnightblue" stroke="midnightblue" points="637.733,-70.8993 648.317,-70.4204 639.744,-64.1945 637.733,-70.8993"/>
</g>
<!-- Node6 -->
<g id="node6" class="node"><title>Node6</title>
<g id="a_node6"><a xlink:href="classMWBase_1_1Environment.html#aeeef9a580df0312f0a9b7380488dea21" target="_top" xlink:title="MWBase::Environment\l::getWindowManager">
<polygon fill="white" stroke="black" points="620.5,-0 620.5,-30 733.5,-30 733.5,-0 620.5,-0"/>
<text text-anchor="start" x="628.5" y="-18" font-family="FreeSans" font-size="10.00">MWBase::Environment</text>
<text text-anchor="middle" x="677" y="-7" font-family="FreeSans" font-size="10.00">::getWindowManager</text>
</a>
</g>
</g>
<!-- Node4&#45;&gt;Node6 -->
<g id="edge5" class="edge"><title>Node4&#45;&gt;Node6</title>
<path fill="none" stroke="midnightblue" d="M364.678,-119.856C378.869,-99.0802 407.423,-62.3438 442,-45 494.294,-18.7694 561.082,-12.4706 609.909,-12.0274"/>
<polygon fill="midnightblue" stroke="midnightblue" points="610.048,-15.5273 620.044,-12.0166 610.04,-8.52733 610.048,-15.5273"/>
</g>
<!-- Node7 -->
<g id="node7" class="node"><title>Node7</title>
<g id="a_node7"><a xlink:href="classMWBase_1_1WindowManager.html#a0522774cf0e03437edbba607acd0bdb5" target="_top" xlink:title="Fade the screen in, over time seconds. ">
<polygon fill="white" stroke="black" points="442.5,-120 442.5,-150 573.5,-150 573.5,-120 442.5,-120"/>
<text text-anchor="start" x="450.5" y="-138" font-family="FreeSans" font-size="10.00">MWBase::WindowManager</text>
<text text-anchor="middle" x="508" y="-127" font-family="FreeSans" font-size="10.00">::fadeScreenIn</text>
</a>
</g>
</g>
<!-- Node4&#45;&gt;Node7 -->
<g id="edge6" class="edge"><title>Node4&#45;&gt;Node7</title>
<path fill="none" stroke="midnightblue" d="M406.037,-135C414.496,-135 423.42,-135 432.319,-135"/>
<polygon fill="midnightblue" stroke="midnightblue" points="432.331,-138.5 442.331,-135 432.331,-131.5 432.331,-138.5"/>
</g>
<!-- Node8 -->
<g id="node8" class="node"><title>Node8</title>
<g id="a_node8"><a xlink:href="classMWGui_1_1WindowBase.html#a4f681670522d795ac3b38f13500ff7ea" target="_top" xlink:title="Sets the visibility of the window. ">
<polygon fill="white" stroke="black" points="451.5,-169 451.5,-199 564.5,-199 564.5,-169 451.5,-169"/>
<text text-anchor="start" x="459.5" y="-187" font-family="FreeSans" font-size="10.00">MWGui::WindowBase::</text>
<text text-anchor="middle" x="508" y="-176" font-family="FreeSans" font-size="10.00">setVisible</text>
</a>
</g>
</g>
<!-- Node4&#45;&gt;Node8 -->
<g id="edge7" class="edge"><title>Node4&#45;&gt;Node8</title>
<path fill="none" stroke="midnightblue" d="M401.845,-150.101C417.232,-155.062 434.497,-160.627 450.521,-165.793"/>
<polygon fill="midnightblue" stroke="midnightblue" points="449.718,-169.211 460.309,-168.948 451.866,-162.549 449.718,-169.211"/>
</g>
<!-- Node12 -->
<g id="node12" class="node"><title>Node12</title>
<g id="a_node12"><a xlink:href="classMWBase_1_1WindowManager.html#ab36f5f1555718fb7cdfa2683a5779356" target="_top" xlink:title="can be anywhere in the stack ">
<polygon fill="white" stroke="black" points="442.5,-71 442.5,-101 573.5,-101 573.5,-71 442.5,-71"/>
<text text-anchor="start" x="450.5" y="-89" font-family="FreeSans" font-size="10.00">MWBase::WindowManager</text>
<text text-anchor="middle" x="508" y="-78" font-family="FreeSans" font-size="10.00">::removeGuiMode</text>
</a>
</g>
</g>
<!-- Node4&#45;&gt;Node12 -->
<g id="edge13" class="edge"><title>Node4&#45;&gt;Node12</title>
<path fill="none" stroke="midnightblue" d="M401.845,-119.899C417.232,-114.938 434.497,-109.373 450.521,-104.207"/>
<polygon fill="midnightblue" stroke="midnightblue" points="451.866,-107.451 460.309,-101.052 449.718,-100.789 451.866,-107.451"/>
</g>
<!-- Node8&#45;&gt;Node5 -->
<g id="edge10" class="edge"><title>Node8&#45;&gt;Node5</title>
<path fill="none" stroke="midnightblue" d="M557.525,-168.945C563.354,-166.113 569.003,-162.816 574,-159 595.477,-142.599 589.019,-127.032 610,-110 618.062,-103.455 627.782,-98.0134 637.254,-93.6429"/>
<polygon fill="midnightblue" stroke="midnightblue" points="638.774,-96.7992 646.574,-89.6285 636.005,-90.3703 638.774,-96.7992"/>
</g>
<!-- Node8&#45;&gt;Node6 -->
<g id="edge11" class="edge"><title>Node8&#45;&gt;Node6</title>
<path fill="none" stroke="midnightblue" d="M560.9,-168.946C565.698,-166.162 570.182,-162.876 574,-159 606.562,-125.942 581.658,-97.7398 610,-61 617.598,-51.1509 627.897,-42.5872 638.099,-35.6066"/>
<polygon fill="midnightblue" stroke="midnightblue" points="640.086,-38.4899 646.584,-30.1218 636.286,-32.6111 640.086,-38.4899"/>
</g>
<!-- Node9 -->
<g id="node9" class="node"><title>Node9</title>
<g id="a_node9"><a xlink:href="classMWGui_1_1WindowBase.html#ace3dc06d8e89a926cd05fb5f94ac757e" target="_top" xlink:title="Notify that window has been made visible. ">
<polygon fill="white" stroke="black" points="610,-218.5 610,-237.5 744,-237.5 744,-218.5 610,-218.5"/>
<text text-anchor="middle" x="677" y="-225.5" font-family="FreeSans" font-size="10.00">MWGui::WindowBase::open</text>
</a>
</g>
</g>
<!-- Node8&#45;&gt;Node9 -->
<g id="edge8" class="edge"><title>Node8&#45;&gt;Node9</title>
<path fill="none" stroke="midnightblue" d="M564.609,-198.651C585.794,-204.233 609.686,-210.528 629.894,-215.852"/>
<polygon fill="midnightblue" stroke="midnightblue" points="629.229,-219.296 639.791,-218.46 631.013,-212.528 629.229,-219.296"/>
</g>
<!-- Node10 -->
<g id="node10" class="node"><title>Node10</title>
<g id="a_node10"><a xlink:href="classMWGui_1_1WindowBase.html#af986f66b831360eceacc01740a0a16fa" target="_top" xlink:title="Notify that window has been hidden. ">
<polygon fill="white" stroke="black" points="620.5,-169 620.5,-199 733.5,-199 733.5,-169 620.5,-169"/>
<text text-anchor="start" x="628.5" y="-187" font-family="FreeSans" font-size="10.00">MWGui::WindowBase::</text>
<text text-anchor="middle" x="677" y="-176" font-family="FreeSans" font-size="10.00">close</text>
</a>
</g>
</g>
<!-- Node8&#45;&gt;Node10 -->
<g id="edge9" class="edge"><title>Node8&#45;&gt;Node10</title>
<path fill="none" stroke="midnightblue" d="M564.609,-184C579.179,-184 595.03,-184 610.082,-184"/>
<polygon fill="midnightblue" stroke="midnightblue" points="610.35,-187.5 620.35,-184 610.35,-180.5 610.35,-187.5"/>
</g>
<!-- Node11 -->
<g id="node11" class="node"><title>Node11</title>
<g id="a_node11"><a xlink:href="classMWBase_1_1WindowManager.html#a24725f89bc9b354a0c51d185f20f38a6" target="_top" xlink:title="Warning: do not use MyGUI::InputManager::setKeyFocusWidget directly. Instead use this. ">
<polygon fill="white" stroke="black" points="611.5,-120 611.5,-150 742.5,-150 742.5,-120 611.5,-120"/>
<text text-anchor="start" x="619.5" y="-138" font-family="FreeSans" font-size="10.00">MWBase::WindowManager</text>
<text text-anchor="middle" x="677" y="-127" font-family="FreeSans" font-size="10.00">::setKeyFocusWidget</text>
</a>
</g>
</g>
<!-- Node8&#45;&gt;Node11 -->
<g id="edge12" class="edge"><title>Node8&#45;&gt;Node11</title>
<path fill="none" stroke="midnightblue" d="M560.468,-168.899C577.692,-163.845 597.059,-158.162 614.942,-152.915"/>
<polygon fill="midnightblue" stroke="midnightblue" points="616.092,-156.226 624.702,-150.052 614.121,-149.509 616.092,-156.226"/>
</g>
</g>
</svg>
