<?xml version="1.0" encoding="UTF-8" standalone="no"?>
<!DOCTYPE svg PUBLIC "-//W3C//DTD SVG 1.1//EN"
 "http://www.w3.org/Graphics/SVG/1.1/DTD/svg11.dtd">
<!-- Generated by graphviz version 2.36.0 (20140111.2315)
 -->
<!-- Title: Gui::NumericEditBox::setValue Pages: 1 -->
<svg width="1456pt" height="552pt"
 viewBox="0.00 0.00 1456.00 552.00" xmlns="http://www.w3.org/2000/svg" xmlns:xlink="http://www.w3.org/1999/xlink">
<g id="graph0" class="graph" transform="scale(1 1) rotate(0) translate(4 548)">
<title>Gui::NumericEditBox::setValue</title>
<polygon fill="white" stroke="none" points="-4,4 -4,-548 1452,-548 1452,4 -4,4"/>
<!-- Node1 -->
<g id="node1" class="node"><title>Node1</title>
<polygon fill="#bfbfbf" stroke="black" points="0.5,-107 0.5,-137 105.5,-137 105.5,-107 0.5,-107"/>
<text text-anchor="start" x="8.5" y="-125" font-family="FreeSans" font-size="10.00">Gui::NumericEditBox</text>
<text text-anchor="middle" x="53" y="-114" font-family="FreeSans" font-size="10.00">::setValue</text>
</g>
<!-- Node2 -->
<g id="node2" class="node"><title>Node2</title>
<g id="a_node2"><a xlink:href="classMWGui_1_1CountDialog.html#a3512fa5982e6ee4721c30047cf3bc571" target="_top" xlink:title="MWGui::CountDialog\l::openCountDialog">
<polygon fill="white" stroke="black" points="637,-465 637,-495 743,-495 743,-465 637,-465"/>
<text text-anchor="start" x="645" y="-483" font-family="FreeSans" font-size="10.00">MWGui::CountDialog</text>
<text text-anchor="middle" x="690" y="-472" font-family="FreeSans" font-size="10.00">::openCountDialog</text>
</a>
</g>
</g>
<!-- Node1&#45;&gt;Node2 -->
<g id="edge1" class="edge"><title>Node1&#45;&gt;Node2</title>
<path fill="none" stroke="midnightblue" d="M70.9088,-145.19C106.295,-192.087 192.957,-298.678 290,-357 403.232,-425.052 557.463,-458.549 636.929,-472.201"/>
<polygon fill="midnightblue" stroke="midnightblue" points="73.695,-143.071 64.9073,-137.153 68.0862,-147.26 73.695,-143.071"/>
</g>
<!-- Node13 -->
<g id="node13" class="node"><title>Node13</title>
<g id="a_node13"><a xlink:href="classMWGui_1_1CountDialog.html#ab13bdfb696fa7202e040d7180a138ff3" target="_top" xlink:title="MWGui::CountDialog\l::onSliderMoved">
<polygon fill="white" stroke="black" points="145,-27 145,-57 251,-57 251,-27 145,-27"/>
<text text-anchor="start" x="153" y="-45" font-family="FreeSans" font-size="10.00">MWGui::CountDialog</text>
<text text-anchor="middle" x="198" y="-34" font-family="FreeSans" font-size="10.00">::onSliderMoved</text>
</a>
</g>
</g>
<!-- Node1&#45;&gt;Node13 -->
<g id="edge13" class="edge"><title>Node1&#45;&gt;Node13</title>
<path fill="none" stroke="midnightblue" d="M89.6493,-102.056C114.447,-88.1837 147.005,-69.969 169.737,-57.2519"/>
<polygon fill="midnightblue" stroke="midnightblue" points="87.9155,-99.0157 80.8972,-106.953 91.3332,-105.125 87.9155,-99.0157"/>
</g>
<!-- Node15 -->
<g id="node15" class="node"><title>Node15</title>
<g id="a_node15"><a xlink:href="classMWGui_1_1TradeWindow.html#a014766708315e08e1c2a92b9cdc6b02e" target="_top" xlink:title="MWGui::TradeWindow\l::onBalanceValueChanged">
<polygon fill="white" stroke="black" points="296.5,-49 296.5,-79 425.5,-79 425.5,-49 296.5,-49"/>
<text text-anchor="start" x="304.5" y="-67" font-family="FreeSans" font-size="10.00">MWGui::TradeWindow</text>
<text text-anchor="middle" x="361" y="-56" font-family="FreeSans" font-size="10.00">::onBalanceValueChanged</text>
</a>
</g>
</g>
<!-- Node1&#45;&gt;Node15 -->
<g id="edge15" class="edge"><title>Node1&#45;&gt;Node15</title>
<path fill="none" stroke="midnightblue" d="M115.415,-110.359C167.898,-100.411 243.132,-86.1515 296.27,-76.0795"/>
<polygon fill="midnightblue" stroke="midnightblue" points="114.736,-106.926 105.563,-112.227 116.04,-113.803 114.736,-106.926"/>
</g>
<!-- Node16 -->
<g id="node16" class="node"><title>Node16</title>
<g id="a_node16"><a xlink:href="classMWGui_1_1TradeWindow.html#a3188166252ca0c455883f8dff918e1ff" target="_top" xlink:title="MWGui::TradeWindow\l::updateLabels">
<polygon fill="white" stroke="black" points="142,-142 142,-172 254,-172 254,-142 142,-142"/>
<text text-anchor="start" x="150" y="-160" font-family="FreeSans" font-size="10.00">MWGui::TradeWindow</text>
<text text-anchor="middle" x="198" y="-149" font-family="FreeSans" font-size="10.00">::updateLabels</text>
</a>
</g>
</g>
<!-- Node1&#45;&gt;Node16 -->
<g id="edge17" class="edge"><title>Node1&#45;&gt;Node16</title>
<path fill="none" stroke="midnightblue" d="M115.352,-137.016C124.068,-139.15 132.99,-141.333 141.585,-143.437"/>
<polygon fill="midnightblue" stroke="midnightblue" points="116.172,-133.614 105.626,-134.636 114.507,-140.413 116.172,-133.614"/>
</g>
<!-- Node3 -->
<g id="node3" class="node"><title>Node3</title>
<g id="a_node3"><a xlink:href="classMWGui_1_1ContainerWindow.html#a4ffe65e3e73969e3f9928b622cbc20c6" target="_top" xlink:title="MWGui::ContainerWindow\l::onItemSelected">
<polygon fill="white" stroke="black" points="786,-514 786,-544 914,-544 914,-514 786,-514"/>
<text text-anchor="start" x="794" y="-532" font-family="FreeSans" font-size="10.00">MWGui::ContainerWindow</text>
<text text-anchor="middle" x="850" y="-521" font-family="FreeSans" font-size="10.00">::onItemSelected</text>
</a>
</g>
</g>
<!-- Node2&#45;&gt;Node3 -->
<g id="edge2" class="edge"><title>Node2&#45;&gt;Node3</title>
<path fill="none" stroke="midnightblue" d="M749.405,-498.113C766.202,-503.322 784.335,-508.946 800.466,-513.948"/>
<polygon fill="midnightblue" stroke="midnightblue" points="750.282,-494.721 739.694,-495.101 748.209,-501.407 750.282,-494.721"/>
</g>
<!-- Node5 -->
<g id="node5" class="node"><title>Node5</title>
<g id="a_node5"><a xlink:href="classMWGui_1_1CompanionWindow.html#a642ee0f71a0a5ebb344b38d4cdf1b2ef" target="_top" xlink:title="MWGui::CompanionWindow\l::onItemSelected">
<polygon fill="white" stroke="black" points="782,-465 782,-495 918,-495 918,-465 782,-465"/>
<text text-anchor="start" x="790" y="-483" font-family="FreeSans" font-size="10.00">MWGui::CompanionWindow</text>
<text text-anchor="middle" x="850" y="-472" font-family="FreeSans" font-size="10.00">::onItemSelected</text>
</a>
</g>
</g>
<!-- Node2&#45;&gt;Node5 -->
<g id="edge4" class="edge"><title>Node2&#45;&gt;Node5</title>
<path fill="none" stroke="midnightblue" d="M753.243,-480C762.668,-480 772.427,-480 781.949,-480"/>
<polygon fill="midnightblue" stroke="midnightblue" points="753.173,-476.5 743.173,-480 753.173,-483.5 753.173,-476.5"/>
</g>
<!-- Node7 -->
<g id="node7" class="node"><title>Node7</title>
<g id="a_node7"><a xlink:href="classMWGui_1_1InventoryWindow.html#a5b889ff5cadf8ed97fbb98cfe123055d" target="_top" xlink:title="MWGui::InventoryWindow\l::onItemSelectedFromSourceModel">
<polygon fill="white" stroke="black" points="954.5,-396 954.5,-426 1123.5,-426 1123.5,-396 954.5,-396"/>
<text text-anchor="start" x="962.5" y="-414" font-family="FreeSans" font-size="10.00">MWGui::InventoryWindow</text>
<text text-anchor="middle" x="1039" y="-403" font-family="FreeSans" font-size="10.00">::onItemSelectedFromSourceModel</text>
</a>
</g>
</g>
<!-- Node2&#45;&gt;Node7 -->
<g id="edge6" class="edge"><title>Node2&#45;&gt;Node7</title>
<path fill="none" stroke="midnightblue" d="M753.18,-462.86C762.798,-460.424 772.643,-458.053 782,-456 839.191,-443.455 904.171,-432.067 954.353,-423.885"/>
<polygon fill="midnightblue" stroke="midnightblue" points="752.081,-459.529 743.269,-465.412 753.826,-466.308 752.081,-459.529"/>
</g>
<!-- Node11 -->
<g id="node11" class="node"><title>Node11</title>
<g id="a_node11"><a xlink:href="classMWGui_1_1TradeWindow.html#a11b89e5e7f455aee88c44e52939c9156" target="_top" xlink:title="MWGui::TradeWindow\l::onItemSelected">
<polygon fill="white" stroke="black" points="794,-318 794,-348 906,-348 906,-318 794,-318"/>
<text text-anchor="start" x="802" y="-336" font-family="FreeSans" font-size="10.00">MWGui::TradeWindow</text>
<text text-anchor="middle" x="850" y="-325" font-family="FreeSans" font-size="10.00">::onItemSelected</text>
</a>
</g>
</g>
<!-- Node2&#45;&gt;Node11 -->
<g id="edge11" class="edge"><title>Node2&#45;&gt;Node11</title>
<path fill="none" stroke="midnightblue" d="M741.552,-459.11C743.119,-457.814 744.609,-456.445 746,-455 775.303,-424.553 753.358,-398.07 782,-367 789.161,-359.232 798.498,-352.975 807.918,-348.052"/>
<polygon fill="midnightblue" stroke="midnightblue" points="739.351,-456.38 733.185,-464.996 743.378,-462.105 739.351,-456.38"/>
</g>
<!-- Node4 -->
<g id="node4" class="node"><title>Node4</title>
<g id="a_node4"><a xlink:href="classMWGui_1_1ContainerWindow.html#acfb914937a6eb3a24bde7ea54266dbcd" target="_top" xlink:title="MWGui::ContainerWindow\l::ContainerWindow">
<polygon fill="white" stroke="black" points="975,-514 975,-544 1103,-544 1103,-514 975,-514"/>
<text text-anchor="start" x="983" y="-532" font-family="FreeSans" font-size="10.00">MWGui::ContainerWindow</text>
<text text-anchor="middle" x="1039" y="-521" font-family="FreeSans" font-size="10.00">::ContainerWindow</text>
</a>
</g>
</g>
<!-- Node3&#45;&gt;Node4 -->
<g id="edge3" class="edge"><title>Node3&#45;&gt;Node4</title>
<path fill="none" stroke="midnightblue" d="M924.321,-529C941.039,-529 958.66,-529 974.907,-529"/>
<polygon fill="midnightblue" stroke="midnightblue" points="924.049,-525.5 914.049,-529 924.049,-532.5 924.049,-525.5"/>
</g>
<!-- Node6 -->
<g id="node6" class="node"><title>Node6</title>
<g id="a_node6"><a xlink:href="classMWGui_1_1CompanionWindow.html#a3cfb5477756f65fbcb82ad9452c9399e" target="_top" xlink:title="MWGui::CompanionWindow\l::CompanionWindow">
<polygon fill="white" stroke="black" points="971,-465 971,-495 1107,-495 1107,-465 971,-465"/>
<text text-anchor="start" x="979" y="-483" font-family="FreeSans" font-size="10.00">MWGui::CompanionWindow</text>
<text text-anchor="middle" x="1039" y="-472" font-family="FreeSans" font-size="10.00">::CompanionWindow</text>
</a>
</g>
</g>
<!-- Node5&#45;&gt;Node6 -->
<g id="edge5" class="edge"><title>Node5&#45;&gt;Node6</title>
<path fill="none" stroke="midnightblue" d="M928.374,-480C942.429,-480 956.986,-480 970.721,-480"/>
<polygon fill="midnightblue" stroke="midnightblue" points="928.247,-476.5 918.247,-480 928.247,-483.5 928.247,-476.5"/>
</g>
<!-- Node8 -->
<g id="node8" class="node"><title>Node8</title>
<g id="a_node8"><a xlink:href="classMWGui_1_1InventoryWindow.html#abbdeec7917453c0625d82da5adf58b7d" target="_top" xlink:title="MWGui::InventoryWindow\l::onItemSelected">
<polygon fill="white" stroke="black" points="1160,-421 1160,-451 1286,-451 1286,-421 1160,-421"/>
<text text-anchor="start" x="1168" y="-439" font-family="FreeSans" font-size="10.00">MWGui::InventoryWindow</text>
<text text-anchor="middle" x="1223" y="-428" font-family="FreeSans" font-size="10.00">::onItemSelected</text>
</a>
</g>
</g>
<!-- Node7&#45;&gt;Node8 -->
<g id="edge7" class="edge"><title>Node7&#45;&gt;Node8</title>
<path fill="none" stroke="midnightblue" d="M1133.61,-423.858C1142.52,-425.083 1151.41,-426.303 1159.92,-427.472"/>
<polygon fill="midnightblue" stroke="midnightblue" points="1133.93,-420.369 1123.54,-422.476 1132.97,-427.304 1133.93,-420.369"/>
</g>
<!-- Node10 -->
<g id="node10" class="node"><title>Node10</title>
<g id="a_node10"><a xlink:href="classMWGui_1_1InventoryWindow.html#ac0cf452b697e42ebb942910bdc98db4c" target="_top" xlink:title="MWGui::InventoryWindow\l::onAvatarClicked">
<polygon fill="white" stroke="black" points="1160,-372 1160,-402 1286,-402 1286,-372 1160,-372"/>
<text text-anchor="start" x="1168" y="-390" font-family="FreeSans" font-size="10.00">MWGui::InventoryWindow</text>
<text text-anchor="middle" x="1223" y="-379" font-family="FreeSans" font-size="10.00">::onAvatarClicked</text>
</a>
</g>
</g>
<!-- Node7&#45;&gt;Node10 -->
<g id="edge9" class="edge"><title>Node7&#45;&gt;Node10</title>
<path fill="none" stroke="midnightblue" d="M1133.61,-398.656C1142.52,-397.48 1151.41,-396.309 1159.92,-395.187"/>
<polygon fill="midnightblue" stroke="midnightblue" points="1133,-395.206 1123.54,-399.983 1133.91,-402.146 1133,-395.206"/>
</g>
<!-- Node9 -->
<g id="node9" class="node"><title>Node9</title>
<g id="a_node9"><a xlink:href="classMWGui_1_1InventoryWindow.html#a12e661e522f594464ed49a782220998f" target="_top" xlink:title="MWGui::InventoryWindow\l::InventoryWindow">
<polygon fill="white" stroke="black" points="1322,-396 1322,-426 1448,-426 1448,-396 1322,-396"/>
<text text-anchor="start" x="1330" y="-414" font-family="FreeSans" font-size="10.00">MWGui::InventoryWindow</text>
<text text-anchor="middle" x="1385" y="-403" font-family="FreeSans" font-size="10.00">::InventoryWindow</text>
</a>
</g>
</g>
<!-- Node8&#45;&gt;Node9 -->
<g id="edge8" class="edge"><title>Node8&#45;&gt;Node9</title>
<path fill="none" stroke="midnightblue" d="M1296.27,-424.708C1304.81,-423.374 1313.47,-422.021 1321.85,-420.711"/>
<polygon fill="midnightblue" stroke="midnightblue" points="1295.66,-421.261 1286.32,-426.263 1296.74,-428.177 1295.66,-421.261"/>
</g>
<!-- Node10&#45;&gt;Node9 -->
<g id="edge10" class="edge"><title>Node10&#45;&gt;Node9</title>
<path fill="none" stroke="midnightblue" d="M1296.27,-397.84C1304.81,-399.121 1313.47,-400.42 1321.85,-401.678"/>
<polygon fill="midnightblue" stroke="midnightblue" points="1296.73,-394.37 1286.32,-396.348 1295.69,-401.293 1296.73,-394.37"/>
</g>
<!-- Node12 -->
<g id="node12" class="node"><title>Node12</title>
<g id="a_node12"><a xlink:href="classMWGui_1_1TradeWindow.html#a248abab136a95b1b94939a386ed40c71" target="_top" xlink:title="MWGui::TradeWindow\l::TradeWindow">
<polygon fill="white" stroke="black" points="983,-186 983,-216 1095,-216 1095,-186 983,-186"/>
<text text-anchor="start" x="991" y="-204" font-family="FreeSans" font-size="10.00">MWGui::TradeWindow</text>
<text text-anchor="middle" x="1039" y="-193" font-family="FreeSans" font-size="10.00">::TradeWindow</text>
</a>
</g>
</g>
<!-- Node11&#45;&gt;Node12 -->
<g id="edge12" class="edge"><title>Node11&#45;&gt;Node12</title>
<path fill="none" stroke="midnightblue" d="M881.029,-311.803C918.928,-285.051 983.183,-239.694 1016.51,-216.168"/>
<polygon fill="midnightblue" stroke="midnightblue" points="878.603,-309.232 872.451,-317.858 882.639,-314.95 878.603,-309.232"/>
</g>
<!-- Node14 -->
<g id="node14" class="node"><title>Node14</title>
<g id="a_node14"><a xlink:href="classMWGui_1_1CountDialog.html#a7204482ca499b9c4f38f24492c8e2c92" target="_top" xlink:title="MWGui::CountDialog\l::CountDialog">
<polygon fill="white" stroke="black" points="308,-0 308,-30 414,-30 414,-0 308,-0"/>
<text text-anchor="start" x="316" y="-18" font-family="FreeSans" font-size="10.00">MWGui::CountDialog</text>
<text text-anchor="middle" x="361" y="-7" font-family="FreeSans" font-size="10.00">::CountDialog</text>
</a>
</g>
</g>
<!-- Node13&#45;&gt;Node14 -->
<g id="edge14" class="edge"><title>Node13&#45;&gt;Node14</title>
<path fill="none" stroke="midnightblue" d="M261.26,-31.5589C276.704,-28.9689 293.094,-26.2202 307.99,-23.7221"/>
<polygon fill="midnightblue" stroke="midnightblue" points="260.555,-28.1281 251.272,-33.2339 261.713,-35.0317 260.555,-28.1281"/>
</g>
<!-- Node15&#45;&gt;Node12 -->
<g id="edge16" class="edge"><title>Node15&#45;&gt;Node12</title>
<path fill="none" stroke="midnightblue" d="M435.71,-66.9781C482.431,-69.5942 544.017,-74.386 598,-83 742.454,-106.05 777.524,-119.197 918,-160 944.533,-167.707 973.891,-177.711 996.927,-185.908"/>
<polygon fill="midnightblue" stroke="midnightblue" points="435.848,-63.4806 425.674,-66.4367 435.471,-70.4704 435.848,-63.4806"/>
</g>
<!-- Node16&#45;&gt;Node15 -->
<g id="edge22" class="edge"><title>Node16&#45;&gt;Node15</title>
<path fill="none" stroke="midnightblue" d="M223.651,-134.851C241.168,-120.01 265.79,-100.899 290,-88 296.236,-84.6775 303.024,-81.6749 309.838,-79.008"/>
<polygon fill="midnightblue" stroke="midnightblue" points="220.942,-132.565 215.655,-141.747 225.514,-137.866 220.942,-132.565"/>
</g>
<!-- Node17 -->
<g id="node17" class="node"><title>Node17</title>
<g id="a_node17"><a xlink:href="classMWGui_1_1TradeWindow.html#ac73ae6dffb80f0f6977d8f99d14adafa" target="_top" xlink:title="MWGui::TradeWindow\l::startTrade">
<polygon fill="white" stroke="black" points="305,-98 305,-128 417,-128 417,-98 305,-98"/>
<text text-anchor="start" x="313" y="-116" font-family="FreeSans" font-size="10.00">MWGui::TradeWindow</text>
<text text-anchor="middle" x="361" y="-105" font-family="FreeSans" font-size="10.00">::startTrade</text>
</a>
</g>
</g>
<!-- Node16&#45;&gt;Node17 -->
<g id="edge18" class="edge"><title>Node16&#45;&gt;Node17</title>
<path fill="none" stroke="midnightblue" d="M263.777,-139.297C277.448,-135.561 291.749,-131.653 305.018,-128.026"/>
<polygon fill="midnightblue" stroke="midnightblue" points="262.68,-135.968 253.957,-141.981 264.526,-142.721 262.68,-135.968"/>
</g>
<!-- Node19 -->
<g id="node19" class="node"><title>Node19</title>
<g id="a_node19"><a xlink:href="classMWGui_1_1TradeWindow.html#a0bc9efea95812beb9a354871fdad5bdd" target="_top" xlink:title="MWGui::TradeWindow\l::onMaxSaleButtonClicked">
<polygon fill="white" stroke="black" points="468,-142 468,-172 598,-172 598,-142 468,-142"/>
<text text-anchor="start" x="476" y="-160" font-family="FreeSans" font-size="10.00">MWGui::TradeWindow</text>
<text text-anchor="middle" x="533" y="-149" font-family="FreeSans" font-size="10.00">::onMaxSaleButtonClicked</text>
</a>
</g>
</g>
<!-- Node16&#45;&gt;Node19 -->
<g id="edge20" class="edge"><title>Node16&#45;&gt;Node19</title>
<path fill="none" stroke="midnightblue" d="M264.671,-157C323.593,-157 409.538,-157 467.956,-157"/>
<polygon fill="midnightblue" stroke="midnightblue" points="264.362,-153.5 254.362,-157 264.362,-160.5 264.362,-153.5"/>
</g>
<!-- Node20 -->
<g id="node20" class="node"><title>Node20</title>
<g id="a_node20"><a xlink:href="classMWGui_1_1TradeWindow.html#a7126c591dae9e988d720b0113ac87f94" target="_top" xlink:title="MWGui::TradeWindow\l::onIncreaseButtonTriggered">
<polygon fill="white" stroke="black" points="292.5,-235 292.5,-265 429.5,-265 429.5,-235 292.5,-235"/>
<text text-anchor="start" x="300.5" y="-253" font-family="FreeSans" font-size="10.00">MWGui::TradeWindow</text>
<text text-anchor="middle" x="361" y="-242" font-family="FreeSans" font-size="10.00">::onIncreaseButtonTriggered</text>
</a>
</g>
</g>
<!-- Node16&#45;&gt;Node20 -->
<g id="edge23" class="edge"><title>Node16&#45;&gt;Node20</title>
<path fill="none" stroke="midnightblue" d="M224.083,-178.981C241.625,-193.515 266.103,-212.181 290,-225 296.823,-228.66 304.293,-231.978 311.732,-234.913"/>
<polygon fill="midnightblue" stroke="midnightblue" points="225.964,-175.99 216.062,-172.222 221.454,-181.343 225.964,-175.99"/>
</g>
<!-- Node25 -->
<g id="node25" class="node"><title>Node25</title>
<g id="a_node25"><a xlink:href="classMWGui_1_1TradeWindow.html#adf562a4979a8e8fd57ae25071f1ff69c" target="_top" xlink:title="MWGui::TradeWindow\l::onDecreaseButtonTriggered">
<polygon fill="white" stroke="black" points="290.5,-186 290.5,-216 431.5,-216 431.5,-186 290.5,-186"/>
<text text-anchor="start" x="298.5" y="-204" font-family="FreeSans" font-size="10.00">MWGui::TradeWindow</text>
<text text-anchor="middle" x="361" y="-193" font-family="FreeSans" font-size="10.00">::onDecreaseButtonTriggered</text>
</a>
</g>
</g>
<!-- Node16&#45;&gt;Node25 -->
<g id="edge31" class="edge"><title>Node16&#45;&gt;Node25</title>
<path fill="none" stroke="midnightblue" d="M263.777,-174.703C277.448,-178.439 291.749,-182.347 305.018,-185.974"/>
<polygon fill="midnightblue" stroke="midnightblue" points="264.526,-171.279 253.957,-172.019 262.68,-178.032 264.526,-171.279"/>
</g>
<!-- Node26 -->
<g id="node26" class="node"><title>Node26</title>
<g id="a_node26"><a xlink:href="classMWGui_1_1TradeWindow.html#a5e411735000fe0ad57f674e77b8a93f3" target="_top" xlink:title="MWGui::TradeWindow\l::updateOffer">
<polygon fill="white" stroke="black" points="305,-318 305,-348 417,-348 417,-318 305,-318"/>
<text text-anchor="start" x="313" y="-336" font-family="FreeSans" font-size="10.00">MWGui::TradeWindow</text>
<text text-anchor="middle" x="361" y="-325" font-family="FreeSans" font-size="10.00">::updateOffer</text>
</a>
</g>
</g>
<!-- Node16&#45;&gt;Node26 -->
<g id="edge34" class="edge"><title>Node16&#45;&gt;Node26</title>
<path fill="none" stroke="midnightblue" d="M215.081,-180.542C232.307,-205.033 261.09,-243.932 290,-274 305.642,-290.269 325.469,-306.643 340.025,-317.999"/>
<polygon fill="midnightblue" stroke="midnightblue" points="217.867,-178.418 209.278,-172.214 212.123,-182.42 217.867,-178.418"/>
</g>
<!-- Node18 -->
<g id="node18" class="node"><title>Node18</title>
<g id="a_node18"><a xlink:href="classMWGui_1_1WindowManager.html#a4b7027f6a09b5ab6a55cd57862afc16d" target="_top" xlink:title="MWGui::WindowManager\l::startTrade">
<polygon fill="white" stroke="black" points="470.5,-93 470.5,-123 595.5,-123 595.5,-93 470.5,-93"/>
<text text-anchor="start" x="478.5" y="-111" font-family="FreeSans" font-size="10.00">MWGui::WindowManager</text>
<text text-anchor="middle" x="533" y="-100" font-family="FreeSans" font-size="10.00">::startTrade</text>
</a>
</g>
</g>
<!-- Node17&#45;&gt;Node18 -->
<g id="edge19" class="edge"><title>Node17&#45;&gt;Node18</title>
<path fill="none" stroke="midnightblue" d="M427.319,-111.079C441.443,-110.663 456.334,-110.225 470.313,-109.814"/>
<polygon fill="midnightblue" stroke="midnightblue" points="427.087,-107.584 417.194,-111.377 427.293,-114.581 427.087,-107.584"/>
</g>
<!-- Node19&#45;&gt;Node12 -->
<g id="edge21" class="edge"><title>Node19&#45;&gt;Node12</title>
<path fill="none" stroke="midnightblue" d="M608.293,-157.251C685.866,-158.313 810.918,-162.282 918,-176 939.319,-178.731 962.495,-183.199 982.744,-187.607"/>
<polygon fill="midnightblue" stroke="midnightblue" points="608.18,-153.75 598.137,-157.125 608.093,-160.749 608.18,-153.75"/>
</g>
<!-- Node21 -->
<g id="node21" class="node"><title>Node21</title>
<g id="a_node21"><a xlink:href="classMWGui_1_1TradeWindow.html#a25d4d470d3138e7bac14b49c3afb95f9" target="_top" xlink:title="MWGui::TradeWindow\l::onIncreaseButtonPressed">
<polygon fill="white" stroke="black" points="784.5,-235 784.5,-265 915.5,-265 915.5,-235 784.5,-235"/>
<text text-anchor="start" x="792.5" y="-253" font-family="FreeSans" font-size="10.00">MWGui::TradeWindow</text>
<text text-anchor="middle" x="850" y="-242" font-family="FreeSans" font-size="10.00">::onIncreaseButtonPressed</text>
</a>
</g>
</g>
<!-- Node20&#45;&gt;Node21 -->
<g id="edge24" class="edge"><title>Node20&#45;&gt;Node21</title>
<path fill="none" stroke="midnightblue" d="M439.519,-265.524C449.077,-266.956 458.74,-268.177 468,-269 591.07,-279.943 622.958,-280.254 746,-269 758.495,-267.857 771.736,-265.95 784.415,-263.774"/>
<polygon fill="midnightblue" stroke="midnightblue" points="440.039,-262.063 429.616,-263.963 438.949,-268.978 440.039,-262.063"/>
</g>
<!-- Node22 -->
<g id="node22" class="node"><title>Node22</title>
<g id="a_node22"><a xlink:href="classMWGui_1_1TradeWindow.html#a1e1c90f167fc2b5ca0daaf669787f0bd" target="_top" xlink:title="MWGui::TradeWindow\l::onRepeatClick">
<polygon fill="white" stroke="black" points="477,-230 477,-260 589,-260 589,-230 477,-230"/>
<text text-anchor="start" x="485" y="-248" font-family="FreeSans" font-size="10.00">MWGui::TradeWindow</text>
<text text-anchor="middle" x="533" y="-237" font-family="FreeSans" font-size="10.00">::onRepeatClick</text>
</a>
</g>
</g>
<!-- Node20&#45;&gt;Node22 -->
<g id="edge26" class="edge"><title>Node20&#45;&gt;Node22</title>
<path fill="none" stroke="midnightblue" d="M440.04,-247.705C452.461,-247.339 465.081,-246.968 476.831,-246.623"/>
<polygon fill="midnightblue" stroke="midnightblue" points="439.57,-244.217 429.677,-248.01 439.776,-251.214 439.57,-244.217"/>
</g>
<!-- Node21&#45;&gt;Node12 -->
<g id="edge25" class="edge"><title>Node21&#45;&gt;Node12</title>
<path fill="none" stroke="midnightblue" d="M918.295,-232.367C939.521,-226.805 962.708,-220.729 982.974,-215.419"/>
<polygon fill="midnightblue" stroke="midnightblue" points="917.163,-229.045 908.377,-234.965 918.938,-235.816 917.163,-229.045"/>
</g>
<!-- Node23 -->
<g id="node23" class="node"><title>Node23</title>
<g id="a_node23"><a xlink:href="classMWGui_1_1TradeWindow.html#a6708a8217dd8cb7c192bf7cfdc3a76a9" target="_top" xlink:title="MWGui::TradeWindow\l::addRepeatController">
<polygon fill="white" stroke="black" points="634,-230 634,-260 746,-260 746,-230 634,-230"/>
<text text-anchor="start" x="642" y="-248" font-family="FreeSans" font-size="10.00">MWGui::TradeWindow</text>
<text text-anchor="middle" x="690" y="-237" font-family="FreeSans" font-size="10.00">::addRepeatController</text>
</a>
</g>
</g>
<!-- Node22&#45;&gt;Node23 -->
<g id="edge27" class="edge"><title>Node22&#45;&gt;Node23</title>
<path fill="none" stroke="midnightblue" d="M599.111,-245C610.662,-245 622.59,-245 633.833,-245"/>
<polygon fill="midnightblue" stroke="midnightblue" points="599.084,-241.5 589.084,-245 599.084,-248.5 599.084,-241.5"/>
</g>
<!-- Node23&#45;&gt;Node21 -->
<g id="edge28" class="edge"><title>Node23&#45;&gt;Node21</title>
<path fill="none" stroke="midnightblue" d="M756.496,-247.073C765.681,-247.363 775.117,-247.662 784.287,-247.952"/>
<polygon fill="midnightblue" stroke="midnightblue" points="756.366,-243.567 746.261,-246.749 756.145,-250.563 756.366,-243.567"/>
</g>
<!-- Node24 -->
<g id="node24" class="node"><title>Node24</title>
<g id="a_node24"><a xlink:href="classMWGui_1_1TradeWindow.html#a6cd59f9575211eb61da73583c3c102eb" target="_top" xlink:title="MWGui::TradeWindow\l::onDecreaseButtonPressed">
<polygon fill="white" stroke="black" points="782.5,-186 782.5,-216 917.5,-216 917.5,-186 782.5,-186"/>
<text text-anchor="start" x="790.5" y="-204" font-family="FreeSans" font-size="10.00">MWGui::TradeWindow</text>
<text text-anchor="middle" x="850" y="-193" font-family="FreeSans" font-size="10.00">::onDecreaseButtonPressed</text>
</a>
</g>
</g>
<!-- Node23&#45;&gt;Node24 -->
<g id="edge29" class="edge"><title>Node23&#45;&gt;Node24</title>
<path fill="none" stroke="midnightblue" d="M754.57,-227.297C767.986,-223.561 782.02,-219.653 795.042,-216.026"/>
<polygon fill="midnightblue" stroke="midnightblue" points="753.627,-223.926 744.933,-229.981 755.505,-230.67 753.627,-223.926"/>
</g>
<!-- Node24&#45;&gt;Node12 -->
<g id="edge30" class="edge"><title>Node24&#45;&gt;Node12</title>
<path fill="none" stroke="midnightblue" d="M927.83,-201C946.227,-201 965.514,-201 982.716,-201"/>
<polygon fill="midnightblue" stroke="midnightblue" points="927.719,-197.5 917.719,-201 927.719,-204.5 927.719,-197.5"/>
</g>
<!-- Node25&#45;&gt;Node22 -->
<g id="edge33" class="edge"><title>Node25&#45;&gt;Node22</title>
<path fill="none" stroke="midnightblue" d="M430.091,-218.624C445.61,-222.64 461.912,-226.86 476.814,-230.717"/>
<polygon fill="midnightblue" stroke="midnightblue" points="430.587,-215.137 420.029,-216.019 428.833,-221.913 430.587,-215.137"/>
</g>
<!-- Node25&#45;&gt;Node24 -->
<g id="edge32" class="edge"><title>Node25&#45;&gt;Node24</title>
<path fill="none" stroke="midnightblue" d="M441.644,-201C536.607,-201 693.601,-201 782.403,-201"/>
<polygon fill="midnightblue" stroke="midnightblue" points="441.516,-197.5 431.516,-201 441.516,-204.5 441.516,-197.5"/>
</g>
<!-- Node27 -->
<g id="node27" class="node"><title>Node27</title>
<g id="a_node27"><a xlink:href="classMWGui_1_1TradeWindow.html#a080d0c08850a1cdbcb1e59175ab72752" target="_top" xlink:title="only used for adjusting the gold balance ">
<polygon fill="white" stroke="black" points="477,-367 477,-397 589,-397 589,-367 477,-367"/>
<text text-anchor="start" x="485" y="-385" font-family="FreeSans" font-size="10.00">MWGui::TradeWindow</text>
<text text-anchor="middle" x="533" y="-374" font-family="FreeSans" font-size="10.00">::sellToNpc</text>
</a>
</g>
</g>
<!-- Node26&#45;&gt;Node27 -->
<g id="edge35" class="edge"><title>Node26&#45;&gt;Node27</title>
<path fill="none" stroke="midnightblue" d="M424.082,-350.894C442.366,-356.164 462.18,-361.876 479.78,-366.948"/>
<polygon fill="midnightblue" stroke="midnightblue" points="424.971,-347.508 414.393,-348.101 423.032,-354.234 424.971,-347.508"/>
</g>
<!-- Node31 -->
<g id="node31" class="node"><title>Node31</title>
<g id="a_node31"><a xlink:href="classMWGui_1_1TradeWindow.html#a3f4e103f7d2ca100c26330dec39ae323" target="_top" xlink:title="only used for adjusting the gold balance ">
<polygon fill="white" stroke="black" points="477,-318 477,-348 589,-348 589,-318 477,-318"/>
<text text-anchor="start" x="485" y="-336" font-family="FreeSans" font-size="10.00">MWGui::TradeWindow</text>
<text text-anchor="middle" x="533" y="-325" font-family="FreeSans" font-size="10.00">::buyFromNpc</text>
</a>
</g>
</g>
<!-- Node26&#45;&gt;Node31 -->
<g id="edge41" class="edge"><title>Node26&#45;&gt;Node31</title>
<path fill="none" stroke="midnightblue" d="M427.223,-333C443.581,-333 460.975,-333 476.792,-333"/>
<polygon fill="midnightblue" stroke="midnightblue" points="427.194,-329.5 417.194,-333 427.194,-336.5 427.194,-329.5"/>
</g>
<!-- Node28 -->
<g id="node28" class="node"><title>Node28</title>
<g id="a_node28"><a xlink:href="classMWGui_1_1TradeWindow.html#aae458b71889651d61b59c4aa2c89aec7" target="_top" xlink:title="MWGui::TradeWindow\l::borrowItem">
<polygon fill="white" stroke="black" points="634,-416 634,-446 746,-446 746,-416 634,-416"/>
<text text-anchor="start" x="642" y="-434" font-family="FreeSans" font-size="10.00">MWGui::TradeWindow</text>
<text text-anchor="middle" x="690" y="-423" font-family="FreeSans" font-size="10.00">::borrowItem</text>
</a>
</g>
</g>
<!-- Node27&#45;&gt;Node28 -->
<g id="edge36" class="edge"><title>Node27&#45;&gt;Node28</title>
<path fill="none" stroke="midnightblue" d="M591.758,-400.259C608.107,-405.427 625.711,-410.992 641.388,-415.948"/>
<polygon fill="midnightblue" stroke="midnightblue" points="592.36,-396.779 581.77,-397.101 590.25,-403.453 592.36,-396.779"/>
</g>
<!-- Node30 -->
<g id="node30" class="node"><title>Node30</title>
<g id="a_node30"><a xlink:href="classMWGui_1_1TradeWindow.html#a68e427111468b7be92136a0906197ea2" target="_top" xlink:title="MWGui::TradeWindow\l::returnItem">
<polygon fill="white" stroke="black" points="634,-367 634,-397 746,-397 746,-367 634,-367"/>
<text text-anchor="start" x="642" y="-385" font-family="FreeSans" font-size="10.00">MWGui::TradeWindow</text>
<text text-anchor="middle" x="690" y="-374" font-family="FreeSans" font-size="10.00">::returnItem</text>
</a>
</g>
</g>
<!-- Node27&#45;&gt;Node30 -->
<g id="edge39" class="edge"><title>Node27&#45;&gt;Node30</title>
<path fill="none" stroke="midnightblue" d="M599.111,-382C610.662,-382 622.59,-382 633.833,-382"/>
<polygon fill="midnightblue" stroke="midnightblue" points="599.084,-378.5 589.084,-382 599.084,-385.5 599.084,-378.5"/>
</g>
<!-- Node29 -->
<g id="node29" class="node"><title>Node29</title>
<g id="a_node29"><a xlink:href="classMWGui_1_1InventoryWindow.html#a8f3658d8fd060461e3f6c63eca1530f9" target="_top" xlink:title="MWGui::InventoryWindow\l::sellItem">
<polygon fill="white" stroke="black" points="787,-377 787,-407 913,-407 913,-377 787,-377"/>
<text text-anchor="start" x="795" y="-395" font-family="FreeSans" font-size="10.00">MWGui::InventoryWindow</text>
<text text-anchor="middle" x="850" y="-384" font-family="FreeSans" font-size="10.00">::sellItem</text>
</a>
</g>
</g>
<!-- Node28&#45;&gt;Node29 -->
<g id="edge37" class="edge"><title>Node28&#45;&gt;Node29</title>
<path fill="none" stroke="midnightblue" d="M756.243,-414.896C766.789,-412.293 777.673,-409.606 788.111,-407.03"/>
<polygon fill="midnightblue" stroke="midnightblue" points="755.131,-411.565 746.261,-417.36 756.808,-418.361 755.131,-411.565"/>
</g>
<!-- Node29&#45;&gt;Node7 -->
<g id="edge38" class="edge"><title>Node29&#45;&gt;Node7</title>
<path fill="none" stroke="midnightblue" d="M923.136,-399.329C933.405,-400.373 944.036,-401.453 954.499,-402.516"/>
<polygon fill="midnightblue" stroke="midnightblue" points="923.311,-395.829 913.009,-398.3 922.604,-402.793 923.311,-395.829"/>
</g>
<!-- Node30&#45;&gt;Node29 -->
<g id="edge40" class="edge"><title>Node30&#45;&gt;Node29</title>
<path fill="none" stroke="midnightblue" d="M756.541,-386.148C766.536,-386.781 776.827,-387.432 786.749,-388.06"/>
<polygon fill="midnightblue" stroke="midnightblue" points="756.462,-382.636 746.261,-385.498 756.02,-389.622 756.462,-382.636"/>
</g>
<!-- Node32 -->
<g id="node32" class="node"><title>Node32</title>
<g id="a_node32"><a xlink:href="classMWGui_1_1TradeWindow.html#a625bcba69023de5169e63f495e11f1b4" target="_top" xlink:title="MWGui::TradeWindow\l::sellItem">
<polygon fill="white" stroke="black" points="634,-318 634,-348 746,-348 746,-318 634,-318"/>
<text text-anchor="start" x="642" y="-336" font-family="FreeSans" font-size="10.00">MWGui::TradeWindow</text>
<text text-anchor="middle" x="690" y="-325" font-family="FreeSans" font-size="10.00">::sellItem</text>
</a>
</g>
</g>
<!-- Node31&#45;&gt;Node32 -->
<g id="edge42" class="edge"><title>Node31&#45;&gt;Node32</title>
<path fill="none" stroke="midnightblue" d="M599.111,-333C610.662,-333 622.59,-333 633.833,-333"/>
<polygon fill="midnightblue" stroke="midnightblue" points="599.084,-329.5 589.084,-333 599.084,-336.5 599.084,-329.5"/>
</g>
<!-- Node32&#45;&gt;Node11 -->
<g id="edge43" class="edge"><title>Node32&#45;&gt;Node11</title>
<path fill="none" stroke="midnightblue" d="M756.526,-333C768.908,-333 781.744,-333 793.77,-333"/>
<polygon fill="midnightblue" stroke="midnightblue" points="756.261,-329.5 746.261,-333 756.261,-336.5 756.261,-329.5"/>
</g>
</g>
</svg>
