<?xml version="1.0" encoding="UTF-8" standalone="no"?>
<!DOCTYPE svg PUBLIC "-//W3C//DTD SVG 1.1//EN"
 "http://www.w3.org/Graphics/SVG/1.1/DTD/svg11.dtd">
<!-- Generated by graphviz version 2.36.0 (20140111.2315)
 -->
<!-- Title: ContentSelectorModel::ModelItem Pages: 1 -->
<svg width="120pt" height="608pt"
 viewBox="0.00 0.00 120.00 608.00" xmlns="http://www.w3.org/2000/svg" xmlns:xlink="http://www.w3.org/1999/xlink">
<g id="graph0" class="graph" transform="scale(1 1) rotate(0) translate(4 604)">
<title>ContentSelectorModel::ModelItem</title>
<polygon fill="white" stroke="none" points="-4,4 -4,-604 116,-604 116,4 -4,4"/>
<!-- Node1 -->
<g id="node1" class="node"><title>Node1</title>
<polygon fill="#bfbfbf" stroke="black" points="-0.5,-327 -0.5,-505 112.5,-505 112.5,-327 -0.5,-327"/>
<text text-anchor="start" x="7.5" y="-493" font-family="FreeSans" font-size="10.00">ContentSelectorModel</text>
<text text-anchor="middle" x="56" y="-482" font-family="FreeSans" font-size="10.00">::ModelItem</text>
<polyline fill="none" stroke="black" points="-0.5,-475 112.5,-475 "/>
<text text-anchor="start" x="7.5" y="-463" font-family="FreeSans" font-size="10.00"># mParentItem</text>
<text text-anchor="start" x="7.5" y="-452" font-family="FreeSans" font-size="10.00"># mChildItems</text>
<polyline fill="none" stroke="black" points="-0.5,-445 112.5,-445 "/>
<text text-anchor="start" x="7.5" y="-433" font-family="FreeSans" font-size="10.00">+ ModelItem()</text>
<text text-anchor="start" x="7.5" y="-422" font-family="FreeSans" font-size="10.00">+ ~ModelItem()</text>
<text text-anchor="start" x="7.5" y="-411" font-family="FreeSans" font-size="10.00">+ parent()</text>
<text text-anchor="start" x="7.5" y="-400" font-family="FreeSans" font-size="10.00">+ row()</text>
<text text-anchor="start" x="7.5" y="-389" font-family="FreeSans" font-size="10.00">+ childCount()</text>
<text text-anchor="start" x="7.5" y="-378" font-family="FreeSans" font-size="10.00">+ childRow()</text>
<text text-anchor="start" x="7.5" y="-367" font-family="FreeSans" font-size="10.00">+ child()</text>
<text text-anchor="start" x="7.5" y="-356" font-family="FreeSans" font-size="10.00">+ appendChild()</text>
<text text-anchor="start" x="7.5" y="-345" font-family="FreeSans" font-size="10.00">+ removeChild()</text>
<text text-anchor="start" x="7.5" y="-334" font-family="FreeSans" font-size="10.00">+ hasFormat()</text>
</g>
<!-- Node3 -->
<g id="node3" class="node"><title>Node3</title>
<g id="a_node3"><a xlink:href="classContentSelectorModel_1_1EsmFile.html" target="_top" xlink:title="{ContentSelectorModel\l::EsmFile\n|+ sPropertyCount\l+ sToolTip\l+ filename\l&#45; mFileName\l&#45; mAuthor\l&#45; mModified\l&#45; mFormat\l&#45; mPath\l&#45; mGameFiles\l&#45; mDescription\l&#45; mToolTip\l|+ EsmFile()\l+ ~EsmFile()\l+ setFileProperty()\l+ setFileName()\l+ setAuthor()\l+ setSize()\l+ setDate()\l+ setFormat()\l+ setFilePath()\l+ setGameFiles()\land 13 more...\l}">
<polygon fill="white" stroke="black" points="-0.5,-1 -0.5,-289 112.5,-289 112.5,-1 -0.5,-1"/>
<text text-anchor="start" x="7.5" y="-277" font-family="FreeSans" font-size="10.00">ContentSelectorModel</text>
<text text-anchor="middle" x="56" y="-266" font-family="FreeSans" font-size="10.00">::EsmFile</text>
<polyline fill="none" stroke="black" points="-0.5,-259 112.5,-259 "/>
<text text-anchor="start" x="7.5" y="-247" font-family="FreeSans" font-size="10.00">+ sPropertyCount</text>
<text text-anchor="start" x="7.5" y="-236" font-family="FreeSans" font-size="10.00">+ sToolTip</text>
<text text-anchor="start" x="7.5" y="-225" font-family="FreeSans" font-size="10.00">+ filename</text>
<text text-anchor="start" x="7.5" y="-214" font-family="FreeSans" font-size="10.00">&#45; mFileName</text>
<text text-anchor="start" x="7.5" y="-203" font-family="FreeSans" font-size="10.00">&#45; mAuthor</text>
<text text-anchor="start" x="7.5" y="-192" font-family="FreeSans" font-size="10.00">&#45; mModified</text>
<text text-anchor="start" x="7.5" y="-181" font-family="FreeSans" font-size="10.00">&#45; mFormat</text>
<text text-anchor="start" x="7.5" y="-170" font-family="FreeSans" font-size="10.00">&#45; mPath</text>
<text text-anchor="start" x="7.5" y="-159" font-family="FreeSans" font-size="10.00">&#45; mGameFiles</text>
<text text-anchor="start" x="7.5" y="-148" font-family="FreeSans" font-size="10.00">&#45; mDescription</text>
<text text-anchor="start" x="7.5" y="-137" font-family="FreeSans" font-size="10.00">&#45; mToolTip</text>
<polyline fill="none" stroke="black" points="-0.5,-130 112.5,-130 "/>
<text text-anchor="start" x="7.5" y="-118" font-family="FreeSans" font-size="10.00">+ EsmFile()</text>
<text text-anchor="start" x="7.5" y="-107" font-family="FreeSans" font-size="10.00">+ ~EsmFile()</text>
<text text-anchor="start" x="7.5" y="-96" font-family="FreeSans" font-size="10.00">+ setFileProperty()</text>
<text text-anchor="start" x="7.5" y="-85" font-family="FreeSans" font-size="10.00">+ setFileName()</text>
<text text-anchor="start" x="7.5" y="-74" font-family="FreeSans" font-size="10.00">+ setAuthor()</text>
<text text-anchor="start" x="7.5" y="-63" font-family="FreeSans" font-size="10.00">+ setSize()</text>
<text text-anchor="start" x="7.5" y="-52" font-family="FreeSans" font-size="10.00">+ setDate()</text>
<text text-anchor="start" x="7.5" y="-41" font-family="FreeSans" font-size="10.00">+ setFormat()</text>
<text text-anchor="start" x="7.5" y="-30" font-family="FreeSans" font-size="10.00">+ setFilePath()</text>
<text text-anchor="start" x="7.5" y="-19" font-family="FreeSans" font-size="10.00">+ setGameFiles()</text>
<text text-anchor="start" x="7.5" y="-8" font-family="FreeSans" font-size="10.00">and 13 more...</text>
</a>
</g>
</g>
<!-- Node1&#45;&gt;Node3 -->
<g id="edge2" class="edge"><title>Node1&#45;&gt;Node3</title>
<path fill="none" stroke="midnightblue" d="M56,-316.871C56,-307.874 56,-298.642 56,-289.354"/>
<polygon fill="none" stroke="midnightblue" points="52.5001,-316.919 56,-326.919 59.5001,-316.919 52.5001,-316.919"/>
</g>
<!-- Node2 -->
<g id="node2" class="node"><title>Node2</title>
<g id="a_node2"><a xlink:href="classQMimeData.html" target="_top" xlink:title="{QMimeData\n||}">
<polygon fill="white" stroke="black" points="22,-542.5 22,-599.5 90,-599.5 90,-542.5 22,-542.5"/>
<text text-anchor="middle" x="56" y="-587.5" font-family="FreeSans" font-size="10.00">QMimeData</text>
<polyline fill="none" stroke="black" points="22,-580.5 90,-580.5 "/>
<text text-anchor="middle" x="56" y="-568.5" font-family="FreeSans" font-size="10.00"> </text>
<polyline fill="none" stroke="black" points="22,-561.5 90,-561.5 "/>
<text text-anchor="middle" x="56" y="-549.5" font-family="FreeSans" font-size="10.00"> </text>
</a>
</g>
</g>
<!-- Node2&#45;&gt;Node1 -->
<g id="edge1" class="edge"><title>Node2&#45;&gt;Node1</title>
<path fill="none" stroke="midnightblue" d="M56,-532.166C56,-523.781 56,-514.554 56,-505.086"/>
<polygon fill="none" stroke="midnightblue" points="52.5001,-532.293 56,-542.293 59.5001,-532.293 52.5001,-532.293"/>
</g>
</g>
</svg>
