<?xml version="1.0" encoding="UTF-8" standalone="no"?>
<!DOCTYPE svg PUBLIC "-//W3C//DTD SVG 1.1//EN"
 "http://www.w3.org/Graphics/SVG/1.1/DTD/svg11.dtd">
<!-- Generated by graphviz version 2.36.0 (20140111.2315)
 -->
<!-- Title: CSVWorld::IdCompletionDelegateFactory Pages: 1 -->
<svg width="182pt" height="194pt"
 viewBox="0.00 0.00 182.00 194.00" xmlns="http://www.w3.org/2000/svg" xmlns:xlink="http://www.w3.org/1999/xlink">
<g id="graph0" class="graph" transform="scale(1 1) rotate(0) translate(4 190)">
<title>CSVWorld::IdCompletionDelegateFactory</title>
<polygon fill="white" stroke="none" points="-4,4 -4,-190 178,-190 178,4 -4,4"/>
<!-- Node1 -->
<g id="node1" class="node"><title>Node1</title>
<polygon fill="#bfbfbf" stroke="black" points="-0.5,-1 -0.5,-69 174.5,-69 174.5,-1 -0.5,-1"/>
<text text-anchor="start" x="7.5" y="-57" font-family="FreeSans" font-size="10.00">CSVWorld::IdCompletionDelegate</text>
<text text-anchor="middle" x="87" y="-46" font-family="FreeSans" font-size="10.00">Factory</text>
<polyline fill="none" stroke="black" points="-0.5,-39 174.5,-39 "/>
<text text-anchor="middle" x="87" y="-27" font-family="FreeSans" font-size="10.00"> </text>
<polyline fill="none" stroke="black" points="-0.5,-20 174.5,-20 "/>
<text text-anchor="start" x="7.5" y="-8" font-family="FreeSans" font-size="10.00">+ makeDelegate()</text>
</g>
<!-- Node2 -->
<g id="node2" class="node"><title>Node2</title>
<g id="a_node2"><a xlink:href="classCSVWorld_1_1CommandDelegateFactory.html" target="_top" xlink:title="{CSVWorld::CommandDelegate\lFactory\n||+ ~CommandDelegateFactory()\l+ makeDelegate()\l}">
<polygon fill="white" stroke="black" points="1,-106.5 1,-185.5 173,-185.5 173,-106.5 1,-106.5"/>
<text text-anchor="start" x="9" y="-173.5" font-family="FreeSans" font-size="10.00">CSVWorld::CommandDelegate</text>
<text text-anchor="middle" x="87" y="-162.5" font-family="FreeSans" font-size="10.00">Factory</text>
<polyline fill="none" stroke="black" points="1,-155.5 173,-155.5 "/>
<text text-anchor="middle" x="87" y="-143.5" font-family="FreeSans" font-size="10.00"> </text>
<polyline fill="none" stroke="black" points="1,-136.5 173,-136.5 "/>
<text text-anchor="start" x="9" y="-124.5" font-family="FreeSans" font-size="10.00">+ ~CommandDelegateFactory()</text>
<text text-anchor="start" x="9" y="-113.5" font-family="FreeSans" font-size="10.00">+ makeDelegate()</text>
</a>
</g>
</g>
<!-- Node2&#45;&gt;Node1 -->
<g id="edge1" class="edge"><title>Node2&#45;&gt;Node1</title>
<path fill="none" stroke="midnightblue" d="M87,-96.125C87,-87.0164 87,-77.6961 87,-69.1962"/>
<polygon fill="none" stroke="midnightblue" points="83.5001,-96.2637 87,-106.264 90.5001,-96.2638 83.5001,-96.2637"/>
</g>
</g>
</svg>
