<?xml version="1.0" encoding="UTF-8" standalone="no"?>
<!DOCTYPE svg PUBLIC "-//W3C//DTD SVG 1.1//EN"
 "http://www.w3.org/Graphics/SVG/1.1/DTD/svg11.dtd">
<!-- Generated by graphviz version 2.36.0 (20140111.2315)
 -->
<!-- Title: MWGui::ItemChargeView::setDisplayMode Pages: 1 -->
<svg width="838pt" height="656pt"
 viewBox="0.00 0.00 838.00 656.00" xmlns="http://www.w3.org/2000/svg" xmlns:xlink="http://www.w3.org/1999/xlink">
<g id="graph0" class="graph" transform="scale(1 1) rotate(0) translate(4 652)">
<title>MWGui::ItemChargeView::setDisplayMode</title>
<polygon fill="white" stroke="none" points="-4,4 -4,-652 834,-652 834,4 -4,4"/>
<!-- Node1 -->
<g id="node1" class="node"><title>Node1</title>
<polygon fill="#bfbfbf" stroke="black" points="0,-290 0,-320 124,-320 124,-290 0,-290"/>
<text text-anchor="start" x="8" y="-308" font-family="FreeSans" font-size="10.00">MWGui::ItemChargeView</text>
<text text-anchor="middle" x="62" y="-297" font-family="FreeSans" font-size="10.00">::setDisplayMode</text>
</g>
<!-- Node2 -->
<g id="node2" class="node"><title>Node2</title>
<g id="a_node2"><a xlink:href="classMWGui_1_1ItemChargeView.html#a32cd5e5ec3c3ab8ee7f46d26e0525840" target="_top" xlink:title="MWGui::ItemChargeView\l::update">
<polygon fill="white" stroke="black" points="160,-290 160,-320 284,-320 284,-290 160,-290"/>
<text text-anchor="start" x="168" y="-308" font-family="FreeSans" font-size="10.00">MWGui::ItemChargeView</text>
<text text-anchor="middle" x="222" y="-297" font-family="FreeSans" font-size="10.00">::update</text>
</a>
</g>
</g>
<!-- Node1&#45;&gt;Node2 -->
<g id="edge1" class="edge"><title>Node1&#45;&gt;Node2</title>
<path fill="none" stroke="midnightblue" d="M124.087,-305C132.513,-305 141.226,-305 149.815,-305"/>
<polygon fill="midnightblue" stroke="midnightblue" points="149.815,-308.5 159.815,-305 149.815,-301.5 149.815,-308.5"/>
</g>
<!-- Node3 -->
<g id="node3" class="node"><title>Node3</title>
<g id="a_node3"><a xlink:href="classMWGui_1_1ItemChargeView.html#a1323043f5b3b1d83f5befb6a25718540" target="_top" xlink:title="MWGui::ItemChargeView\l::layoutWidgets">
<polygon fill="white" stroke="black" points="320,-535 320,-565 444,-565 444,-535 320,-535"/>
<text text-anchor="start" x="328" y="-553" font-family="FreeSans" font-size="10.00">MWGui::ItemChargeView</text>
<text text-anchor="middle" x="382" y="-542" font-family="FreeSans" font-size="10.00">::layoutWidgets</text>
</a>
</g>
</g>
<!-- Node2&#45;&gt;Node3 -->
<g id="edge2" class="edge"><title>Node2&#45;&gt;Node3</title>
<path fill="none" stroke="midnightblue" d="M225.606,-320.032C233.129,-359.108 258.402,-465.002 320,-525 321.476,-526.437 323.046,-527.796 324.689,-529.081"/>
<polygon fill="midnightblue" stroke="midnightblue" points="323.16,-532.268 333.423,-534.899 327.041,-526.442 323.16,-532.268"/>
</g>
<!-- Node4 -->
<g id="node4" class="node"><title>Node4</title>
<g id="a_node4"><a xlink:href="classMWGui_1_1ItemChargeView.html#afdf7757c6ceb0342345770597bfffda4" target="_top" xlink:title="MWGui::ItemChargeView\l::updateLine">
<polygon fill="white" stroke="black" points="320,-290 320,-320 444,-320 444,-290 320,-290"/>
<text text-anchor="start" x="328" y="-308" font-family="FreeSans" font-size="10.00">MWGui::ItemChargeView</text>
<text text-anchor="middle" x="382" y="-297" font-family="FreeSans" font-size="10.00">::updateLine</text>
</a>
</g>
</g>
<!-- Node2&#45;&gt;Node4 -->
<g id="edge3" class="edge"><title>Node2&#45;&gt;Node4</title>
<path fill="none" stroke="midnightblue" d="M284.087,-305C292.513,-305 301.226,-305 309.815,-305"/>
<polygon fill="midnightblue" stroke="midnightblue" points="309.815,-308.5 319.815,-305 309.815,-301.5 309.815,-308.5"/>
</g>
<!-- Node20 -->
<g id="node20" class="node"><title>Node20</title>
<g id="a_node20"><a xlink:href="classMWGui_1_1ItemWidget.html#a5f711291cd5dcf91b47b1471642000dd" target="_top" xlink:title="ptr may be empty ">
<polygon fill="white" stroke="black" points="328.5,-486 328.5,-516 435.5,-516 435.5,-486 328.5,-486"/>
<text text-anchor="start" x="336.5" y="-504" font-family="FreeSans" font-size="10.00">MWGui::ItemWidget::</text>
<text text-anchor="middle" x="382" y="-493" font-family="FreeSans" font-size="10.00">setItem</text>
</a>
</g>
</g>
<!-- Node2&#45;&gt;Node20 -->
<g id="edge20" class="edge"><title>Node2&#45;&gt;Node20</title>
<path fill="none" stroke="midnightblue" d="M235.136,-320.054C262.593,-354.115 329.633,-437.279 362.382,-477.904"/>
<polygon fill="midnightblue" stroke="midnightblue" points="359.822,-480.306 368.823,-485.894 365.272,-475.912 359.822,-480.306"/>
</g>
<!-- Node24 -->
<g id="node24" class="node"><title>Node24</title>
<g id="a_node24"><a xlink:href="classMWGui_1_1ItemChargeView.html#a8d95b36b25d974d801eee8cc26b0b83a" target="_top" xlink:title="MWGui::ItemChargeView\l::onIconClicked">
<polygon fill="white" stroke="black" points="320,-241 320,-271 444,-271 444,-241 320,-241"/>
<text text-anchor="start" x="328" y="-259" font-family="FreeSans" font-size="10.00">MWGui::ItemChargeView</text>
<text text-anchor="middle" x="382" y="-248" font-family="FreeSans" font-size="10.00">::onIconClicked</text>
</a>
</g>
</g>
<!-- Node2&#45;&gt;Node24 -->
<g id="edge26" class="edge"><title>Node2&#45;&gt;Node24</title>
<path fill="none" stroke="midnightblue" d="M271.694,-289.899C287.839,-284.892 305.974,-279.268 322.762,-274.061"/>
<polygon fill="midnightblue" stroke="midnightblue" points="323.952,-277.357 332.466,-271.052 321.878,-270.671 323.952,-277.357"/>
</g>
<!-- Node25 -->
<g id="node25" class="node"><title>Node25</title>
<g id="a_node25"><a xlink:href="classMWGui_1_1ItemChargeView.html#acd3e8523f113d29fb7160b14e28653f2" target="_top" xlink:title="MWGui::ItemChargeView\l::onMouseWheelMoved">
<polygon fill="white" stroke="black" points="320,-192 320,-222 444,-222 444,-192 320,-192"/>
<text text-anchor="start" x="328" y="-210" font-family="FreeSans" font-size="10.00">MWGui::ItemChargeView</text>
<text text-anchor="middle" x="382" y="-199" font-family="FreeSans" font-size="10.00">::onMouseWheelMoved</text>
</a>
</g>
</g>
<!-- Node2&#45;&gt;Node25 -->
<g id="edge27" class="edge"><title>Node2&#45;&gt;Node25</title>
<path fill="none" stroke="midnightblue" d="M239.854,-289.807C258.441,-273.629 289.739,-248.057 320,-231 322.875,-229.379 325.882,-227.818 328.953,-226.323"/>
<polygon fill="midnightblue" stroke="midnightblue" points="330.659,-229.391 338.294,-222.046 327.745,-223.027 330.659,-229.391"/>
</g>
<!-- Node5 -->
<g id="node5" class="node"><title>Node5</title>
<g id="a_node5"><a xlink:href="classMWWorld_1_1Ptr.html#aa2ac4a5579cd19eaa780596f4543ea46" target="_top" xlink:title="MWWorld::Ptr::getClass">
<polygon fill="white" stroke="black" points="506.5,-491.5 506.5,-510.5 623.5,-510.5 623.5,-491.5 506.5,-491.5"/>
<text text-anchor="middle" x="565" y="-498.5" font-family="FreeSans" font-size="10.00">MWWorld::Ptr::getClass</text>
</a>
</g>
</g>
<!-- Node4&#45;&gt;Node5 -->
<g id="edge4" class="edge"><title>Node4&#45;&gt;Node5</title>
<path fill="none" stroke="midnightblue" d="M386.72,-320.128C396.036,-354.667 423.758,-439.602 480,-482 485.093,-485.839 490.821,-488.927 496.831,-491.406"/>
<polygon fill="midnightblue" stroke="midnightblue" points="495.861,-494.776 506.456,-494.822 498.203,-488.179 495.861,-494.776"/>
</g>
<!-- Node6 -->
<g id="node6" class="node"><title>Node6</title>
<g id="a_node6"><a xlink:href="classMWWorld_1_1Class.html#a369a75a58f3c116f19e7a4365ba49ae9" target="_top" xlink:title="MWWorld::Class::getName">
<polygon fill="white" stroke="black" points="500,-251.5 500,-270.5 630,-270.5 630,-251.5 500,-251.5"/>
<text text-anchor="middle" x="565" y="-258.5" font-family="FreeSans" font-size="10.00">MWWorld::Class::getName</text>
</a>
</g>
</g>
<!-- Node4&#45;&gt;Node6 -->
<g id="edge5" class="edge"><title>Node4&#45;&gt;Node6</title>
<path fill="none" stroke="midnightblue" d="M440.119,-289.977C453.205,-286.619 467.069,-283.128 480,-280 489.918,-277.601 500.519,-275.13 510.732,-272.797"/>
<polygon fill="midnightblue" stroke="midnightblue" points="511.8,-276.144 520.778,-270.517 510.251,-269.317 511.8,-276.144"/>
</g>
<!-- Node7 -->
<g id="node7" class="node"><title>Node7</title>
<g id="a_node7"><a xlink:href="classMWWorld_1_1Class.html#a6689ca20c9048824b3da7832c156dc10" target="_top" xlink:title="MWWorld::Class::hasItemHealth">
<polygon fill="white" stroke="black" points="488.5,-213.5 488.5,-232.5 641.5,-232.5 641.5,-213.5 488.5,-213.5"/>
<text text-anchor="middle" x="565" y="-220.5" font-family="FreeSans" font-size="10.00">MWWorld::Class::hasItemHealth</text>
</a>
</g>
</g>
<!-- Node4&#45;&gt;Node7 -->
<g id="edge6" class="edge"><title>Node4&#45;&gt;Node7</title>
<path fill="none" stroke="midnightblue" d="M426.518,-289.851C432.609,-286.972 438.618,-283.687 444,-280 463.192,-266.851 459.781,-253.508 480,-242 483.906,-239.777 488.054,-237.813 492.332,-236.08"/>
<polygon fill="midnightblue" stroke="midnightblue" points="493.644,-239.327 501.862,-232.64 491.268,-232.743 493.644,-239.327"/>
</g>
<!-- Node8 -->
<g id="node8" class="node"><title>Node8</title>
<g id="a_node8"><a xlink:href="classMWGui_1_1Widgets_1_1MWDynamicStat.html#adf7e7130d8165dbf5c89c608acb64abb" target="_top" xlink:title="MWGui::Widgets::MWDynamic\lStat::setValue">
<polygon fill="white" stroke="black" points="491.5,-164 491.5,-194 638.5,-194 638.5,-164 491.5,-164"/>
<text text-anchor="start" x="499.5" y="-182" font-family="FreeSans" font-size="10.00">MWGui::Widgets::MWDynamic</text>
<text text-anchor="middle" x="565" y="-171" font-family="FreeSans" font-size="10.00">Stat::setValue</text>
</a>
</g>
</g>
<!-- Node4&#45;&gt;Node8 -->
<g id="edge7" class="edge"><title>Node4&#45;&gt;Node8</title>
<path fill="none" stroke="midnightblue" d="M430.168,-289.965C435.183,-287.155 439.93,-283.858 444,-280 471.125,-254.287 451.628,-228.33 480,-204 481.971,-202.31 484.052,-200.734 486.22,-199.265"/>
<polygon fill="midnightblue" stroke="midnightblue" points="488.128,-202.203 494.965,-194.11 484.573,-196.173 488.128,-202.203"/>
</g>
<!-- Node9 -->
<g id="node9" class="node"><title>Node9</title>
<g id="a_node9"><a xlink:href="classMWWorld_1_1Class.html#a5537c9812ceb8e5a8100652eac05ec63" target="_top" xlink:title="Return current item health or throw an exception if class does not have item health. ">
<polygon fill="white" stroke="black" points="489,-125.5 489,-144.5 641,-144.5 641,-125.5 489,-125.5"/>
<text text-anchor="middle" x="565" y="-132.5" font-family="FreeSans" font-size="10.00">MWWorld::Class::getItemHealth</text>
</a>
</g>
</g>
<!-- Node4&#45;&gt;Node9 -->
<g id="edge8" class="edge"><title>Node4&#45;&gt;Node9</title>
<path fill="none" stroke="midnightblue" d="M432.008,-289.867C436.453,-287.099 440.565,-283.838 444,-280 482.842,-236.603 437.684,-194.017 480,-154 481.507,-152.575 483.098,-151.248 484.759,-150.013"/>
<polygon fill="midnightblue" stroke="midnightblue" points="486.903,-152.803 493.582,-144.579 483.232,-146.843 486.903,-152.803"/>
</g>
<!-- Node12 -->
<g id="node12" class="node"><title>Node12</title>
<g id="a_node12"><a xlink:href="classMWWorld_1_1Class.html#a57ed3b8775968f13bb4460b3833a9021" target="_top" xlink:title="MWWorld::Class::getItemMax\lHealth">
<polygon fill="white" stroke="black" points="687,-76 687,-106 829,-106 829,-76 687,-76"/>
<text text-anchor="start" x="695" y="-94" font-family="FreeSans" font-size="10.00">MWWorld::Class::getItemMax</text>
<text text-anchor="middle" x="758" y="-83" font-family="FreeSans" font-size="10.00">Health</text>
</a>
</g>
</g>
<!-- Node4&#45;&gt;Node12 -->
<g id="edge12" class="edge"><title>Node4&#45;&gt;Node12</title>
<path fill="none" stroke="midnightblue" d="M432.547,-289.893C436.831,-287.123 440.76,-283.855 444,-280 492.015,-222.874 424.013,-165.338 480,-116 508.313,-91.049 605.324,-87.2473 676.583,-88.0699"/>
<polygon fill="midnightblue" stroke="midnightblue" points="676.848,-91.5741 686.899,-88.2229 676.952,-84.5749 676.848,-91.5741"/>
</g>
<!-- Node13 -->
<g id="node13" class="node"><title>Node13</title>
<g id="a_node13"><a xlink:href="classMWWorld_1_1Class.html#a0ebc789aa414ffebfd4d5c86f9523042" target="_top" xlink:title="MWWorld::Class::getEnchantment">
<polygon fill="white" stroke="black" points="484.5,-453.5 484.5,-472.5 645.5,-472.5 645.5,-453.5 484.5,-453.5"/>
<text text-anchor="middle" x="565" y="-460.5" font-family="FreeSans" font-size="10.00">MWWorld::Class::getEnchantment</text>
</a>
</g>
</g>
<!-- Node4&#45;&gt;Node13 -->
<g id="edge13" class="edge"><title>Node4&#45;&gt;Node13</title>
<path fill="none" stroke="midnightblue" d="M389.169,-320.353C401.671,-349.398 432.87,-412.308 480,-444 482.943,-445.979 486.062,-447.754 489.298,-449.347"/>
<polygon fill="midnightblue" stroke="midnightblue" points="488.113,-452.647 498.684,-453.368 490.87,-446.212 488.113,-452.647"/>
</g>
<!-- Node14 -->
<g id="node14" class="node"><title>Node14</title>
<g id="a_node14"><a xlink:href="classMWBase_1_1Environment.html#a73f12633762b049c03c80fe215873faa" target="_top" xlink:title="Return instance of this class. ">
<polygon fill="white" stroke="black" points="499.5,-49.5 499.5,-68.5 630.5,-68.5 630.5,-49.5 499.5,-49.5"/>
<text text-anchor="middle" x="565" y="-56.5" font-family="FreeSans" font-size="10.00">MWBase::Environment::get</text>
</a>
</g>
</g>
<!-- Node4&#45;&gt;Node14 -->
<g id="edge14" class="edge"><title>Node4&#45;&gt;Node14</title>
<path fill="none" stroke="midnightblue" d="M432.978,-289.818C437.121,-287.067 440.9,-283.823 444,-280 500.055,-210.864 420.207,-148.93 480,-83 483.388,-79.2644 487.313,-76.0944 491.578,-73.4059"/>
<polygon fill="midnightblue" stroke="midnightblue" points="493.557,-76.318 500.748,-68.5371 490.274,-70.1354 493.557,-76.318"/>
</g>
<!-- Node15 -->
<g id="node15" class="node"><title>Node15</title>
<g id="a_node15"><a xlink:href="classMWBase_1_1Environment.html#ae14e166d8f5ff8629be119333d502660" target="_top" xlink:title="MWBase::Environment\l::getWorld">
<polygon fill="white" stroke="black" points="508.5,-0 508.5,-30 621.5,-30 621.5,-0 508.5,-0"/>
<text text-anchor="start" x="516.5" y="-18" font-family="FreeSans" font-size="10.00">MWBase::Environment</text>
<text text-anchor="middle" x="565" y="-7" font-family="FreeSans" font-size="10.00">::getWorld</text>
</a>
</g>
</g>
<!-- Node4&#45;&gt;Node15 -->
<g id="edge15" class="edge"><title>Node4&#45;&gt;Node15</title>
<path fill="none" stroke="midnightblue" d="M433.105,-289.92C437.223,-287.148 440.962,-283.872 444,-280 510.587,-195.147 409.268,-121.43 480,-40 485.192,-34.0231 491.743,-29.4431 498.887,-25.939"/>
<polygon fill="midnightblue" stroke="midnightblue" points="500.316,-29.1352 508.194,-22.0517 497.618,-22.6759 500.316,-29.1352"/>
</g>
<!-- Node16 -->
<g id="node16" class="node"><title>Node16</title>
<g id="a_node16"><a xlink:href="classMWBase_1_1World.html#a2ba0910cb944786065e37dc5f3fcda35" target="_top" xlink:title="MWBase::World::getStore">
<polygon fill="white" stroke="black" points="502,-415.5 502,-434.5 628,-434.5 628,-415.5 502,-415.5"/>
<text text-anchor="middle" x="565" y="-422.5" font-family="FreeSans" font-size="10.00">MWBase::World::getStore</text>
</a>
</g>
</g>
<!-- Node4&#45;&gt;Node16 -->
<g id="edge16" class="edge"><title>Node4&#45;&gt;Node16</title>
<path fill="none" stroke="midnightblue" d="M393.232,-320.356C409.059,-342.833 441.682,-384.364 480,-406 483.989,-408.253 488.227,-410.238 492.596,-411.988"/>
<polygon fill="midnightblue" stroke="midnightblue" points="491.733,-415.396 502.327,-415.456 494.082,-408.802 491.733,-415.396"/>
</g>
<!-- Node17 -->
<g id="node17" class="node"><title>Node17</title>
<g id="a_node17"><a xlink:href="classMWWorld_1_1ESMStore.html#a94ffe201bd012dd41fcdabfb35c69e24" target="_top" xlink:title="MWWorld::ESMStore::get">
<polygon fill="white" stroke="black" points="502.5,-377.5 502.5,-396.5 627.5,-396.5 627.5,-377.5 502.5,-377.5"/>
<text text-anchor="middle" x="565" y="-384.5" font-family="FreeSans" font-size="10.00">MWWorld::ESMStore::get</text>
</a>
</g>
</g>
<!-- Node4&#45;&gt;Node17 -->
<g id="edge17" class="edge"><title>Node4&#45;&gt;Node17</title>
<path fill="none" stroke="midnightblue" d="M401.91,-320.207C420.67,-334.56 450.768,-355.667 480,-368 486.109,-370.577 492.622,-372.832 499.215,-374.798"/>
<polygon fill="midnightblue" stroke="midnightblue" points="498.325,-378.183 508.896,-377.476 500.191,-371.436 498.325,-378.183"/>
</g>
<!-- Node18 -->
<g id="node18" class="node"><title>Node18</title>
<g id="a_node18"><a xlink:href="classMWWorld_1_1Ptr.html#acb6d9fb770fd8b8814df2358596ba656" target="_top" xlink:title="MWWorld::Ptr::getCellRef">
<polygon fill="white" stroke="black" points="502.5,-339.5 502.5,-358.5 627.5,-358.5 627.5,-339.5 502.5,-339.5"/>
<text text-anchor="middle" x="565" y="-346.5" font-family="FreeSans" font-size="10.00">MWWorld::Ptr::getCellRef</text>
</a>
</g>
</g>
<!-- Node4&#45;&gt;Node18 -->
<g id="edge18" class="edge"><title>Node4&#45;&gt;Node18</title>
<path fill="none" stroke="midnightblue" d="M443.52,-320.061C455.599,-323.043 468.199,-326.135 480,-329 490.819,-331.626 502.43,-334.412 513.463,-337.044"/>
<polygon fill="midnightblue" stroke="midnightblue" points="512.855,-340.497 523.394,-339.408 514.476,-333.687 512.855,-340.497"/>
</g>
<!-- Node19 -->
<g id="node19" class="node"><title>Node19</title>
<g id="a_node19"><a xlink:href="classMWWorld_1_1CellRef.html#adfbe4ecec0fae39aef9dc599a2257248" target="_top" xlink:title="MWWorld::CellRef::getEnchantment\lCharge">
<polygon fill="white" stroke="black" points="480,-290 480,-320 650,-320 650,-290 480,-290"/>
<text text-anchor="start" x="488" y="-308" font-family="FreeSans" font-size="10.00">MWWorld::CellRef::getEnchantment</text>
<text text-anchor="middle" x="565" y="-297" font-family="FreeSans" font-size="10.00">Charge</text>
</a>
</g>
</g>
<!-- Node4&#45;&gt;Node19 -->
<g id="edge19" class="edge"><title>Node4&#45;&gt;Node19</title>
<path fill="none" stroke="midnightblue" d="M444.026,-305C452.288,-305 460.917,-305 469.595,-305"/>
<polygon fill="midnightblue" stroke="midnightblue" points="469.784,-308.5 479.784,-305 469.784,-301.5 469.784,-308.5"/>
</g>
<!-- Node10 -->
<g id="node10" class="node"><title>Node10</title>
<g id="a_node10"><a xlink:href="classMWWorld_1_1ConstPtr.html#afa407c744b51f45e0b8e3eec160cb7a2" target="_top" xlink:title="MWWorld::ConstPtr::\lgetCellRef">
<polygon fill="white" stroke="black" points="705.5,-125 705.5,-155 810.5,-155 810.5,-125 705.5,-125"/>
<text text-anchor="start" x="713.5" y="-143" font-family="FreeSans" font-size="10.00">MWWorld::ConstPtr::</text>
<text text-anchor="middle" x="758" y="-132" font-family="FreeSans" font-size="10.00">getCellRef</text>
</a>
</g>
</g>
<!-- Node9&#45;&gt;Node10 -->
<g id="edge9" class="edge"><title>Node9&#45;&gt;Node10</title>
<path fill="none" stroke="midnightblue" d="M641.214,-136.969C659.023,-137.435 677.818,-137.927 694.966,-138.376"/>
<polygon fill="midnightblue" stroke="midnightblue" points="695.318,-141.886 705.406,-138.649 695.501,-134.889 695.318,-141.886"/>
</g>
<!-- Node11 -->
<g id="node11" class="node"><title>Node11</title>
<g id="a_node11"><a xlink:href="classMWWorld_1_1CellRef.html#a4b3b28f98b80448c7b7d5c3b364976b7" target="_top" xlink:title="MWWorld::CellRef::getCharge">
<polygon fill="white" stroke="black" points="686.5,-174.5 686.5,-193.5 829.5,-193.5 829.5,-174.5 686.5,-174.5"/>
<text text-anchor="middle" x="758" y="-181.5" font-family="FreeSans" font-size="10.00">MWWorld::CellRef::getCharge</text>
</a>
</g>
</g>
<!-- Node9&#45;&gt;Node11 -->
<g id="edge10" class="edge"><title>Node9&#45;&gt;Node11</title>
<path fill="none" stroke="midnightblue" d="M610.132,-144.539C623.017,-147.444 637.1,-150.735 650,-154 653.283,-154.831 685.167,-163.779 713.283,-171.688"/>
<polygon fill="midnightblue" stroke="midnightblue" points="712.443,-175.088 723.017,-174.427 714.339,-168.349 712.443,-175.088"/>
</g>
<!-- Node9&#45;&gt;Node12 -->
<g id="edge11" class="edge"><title>Node9&#45;&gt;Node12</title>
<path fill="none" stroke="midnightblue" d="M607.444,-125.453C629.141,-120.455 656.387,-114.178 681.66,-108.356"/>
<polygon fill="midnightblue" stroke="midnightblue" points="682.644,-111.721 691.603,-106.065 681.072,-104.9 682.644,-111.721"/>
</g>
<!-- Node20&#45;&gt;Node5 -->
<g id="edge22" class="edge"><title>Node20&#45;&gt;Node5</title>
<path fill="none" stroke="midnightblue" d="M435.839,-501C454.677,-501 476.164,-501 496.09,-501"/>
<polygon fill="midnightblue" stroke="midnightblue" points="496.346,-504.5 506.346,-501 496.346,-497.5 496.346,-504.5"/>
</g>
<!-- Node20&#45;&gt;Node13 -->
<g id="edge23" class="edge"><title>Node20&#45;&gt;Node13</title>
<path fill="none" stroke="midnightblue" d="M435.839,-489.907C458.654,-485.117 485.355,-479.511 508.462,-474.66"/>
<polygon fill="midnightblue" stroke="midnightblue" points="509.393,-478.041 518.46,-472.561 507.954,-471.19 509.393,-478.041"/>
</g>
<!-- Node21 -->
<g id="node21" class="node"><title>Node21</title>
<g id="a_node21"><a xlink:href="classMWWorld_1_1Ptr.html#a0662c1165166221fd0f874e37ac24613" target="_top" xlink:title="MWWorld::Ptr::isEmpty">
<polygon fill="white" stroke="black" points="508,-628.5 508,-647.5 622,-647.5 622,-628.5 508,-628.5"/>
<text text-anchor="middle" x="565" y="-635.5" font-family="FreeSans" font-size="10.00">MWWorld::Ptr::isEmpty</text>
</a>
</g>
</g>
<!-- Node20&#45;&gt;Node21 -->
<g id="edge21" class="edge"><title>Node20&#45;&gt;Node21</title>
<path fill="none" stroke="midnightblue" d="M431.042,-516.115C435.783,-518.897 440.227,-522.166 444,-526 474.799,-557.294 446.868,-589.188 480,-618 485.32,-622.627 491.521,-626.228 498.098,-629.025"/>
<polygon fill="midnightblue" stroke="midnightblue" points="497.353,-632.477 507.947,-632.574 499.725,-625.891 497.353,-632.477"/>
</g>
<!-- Node22 -->
<g id="node22" class="node"><title>Node22</title>
<g id="a_node22"><a xlink:href="classMWGui_1_1ItemWidget.html#a337efa47c7a34bd2b5238ccfcee39dc5" target="_top" xlink:title="MWGui::ItemWidget::\lsetFrame">
<polygon fill="white" stroke="black" points="511.5,-579 511.5,-609 618.5,-609 618.5,-579 511.5,-579"/>
<text text-anchor="start" x="519.5" y="-597" font-family="FreeSans" font-size="10.00">MWGui::ItemWidget::</text>
<text text-anchor="middle" x="565" y="-586" font-family="FreeSans" font-size="10.00">setFrame</text>
</a>
</g>
</g>
<!-- Node20&#45;&gt;Node22 -->
<g id="edge24" class="edge"><title>Node20&#45;&gt;Node22</title>
<path fill="none" stroke="midnightblue" d="M427.047,-516.007C432.997,-518.893 438.826,-522.217 444,-526 464.12,-540.712 459.172,-555.309 480,-569 486.689,-573.397 494.176,-577.043 501.851,-580.06"/>
<polygon fill="midnightblue" stroke="midnightblue" points="500.671,-583.355 511.265,-583.437 503.034,-576.766 500.671,-583.355"/>
</g>
<!-- Node23 -->
<g id="node23" class="node"><title>Node23</title>
<g id="a_node23"><a xlink:href="classMWGui_1_1ItemWidget.html#a3f47473fba1f4622712370bc4ee723ad" target="_top" xlink:title="MWGui::ItemWidget::\lsetIcon">
<polygon fill="white" stroke="black" points="511.5,-530 511.5,-560 618.5,-560 618.5,-530 511.5,-530"/>
<text text-anchor="start" x="519.5" y="-548" font-family="FreeSans" font-size="10.00">MWGui::ItemWidget::</text>
<text text-anchor="middle" x="565" y="-537" font-family="FreeSans" font-size="10.00">setIcon</text>
</a>
</g>
</g>
<!-- Node20&#45;&gt;Node23 -->
<g id="edge25" class="edge"><title>Node20&#45;&gt;Node23</title>
<path fill="none" stroke="midnightblue" d="M435.839,-513.845C456.377,-518.838 480.065,-524.596 501.445,-529.793"/>
<polygon fill="midnightblue" stroke="midnightblue" points="500.864,-533.254 511.408,-532.215 502.518,-526.452 500.864,-533.254"/>
</g>
</g>
</svg>
