<?xml version="1.0" encoding="UTF-8" standalone="no"?>
<!DOCTYPE svg PUBLIC "-//W3C//DTD SVG 1.1//EN"
 "http://www.w3.org/Graphics/SVG/1.1/DTD/svg11.dtd">
<!-- Generated by graphviz version 2.36.0 (20140111.2315)
 -->
<!-- Title: MWMechanics::NpcStats::useSkill Pages: 1 -->
<svg width="324pt" height="252pt"
 viewBox="0.00 0.00 324.00 252.00" xmlns="http://www.w3.org/2000/svg" xmlns:xlink="http://www.w3.org/1999/xlink">
<g id="graph0" class="graph" transform="scale(1 1) rotate(0) translate(4 248)">
<title>MWMechanics::NpcStats::useSkill</title>
<polygon fill="white" stroke="none" points="-4,4 -4,-248 320,-248 320,4 -4,4"/>
<!-- Node1 -->
<g id="node1" class="node"><title>Node1</title>
<polygon fill="#bfbfbf" stroke="black" points="0,-112 0,-142 134,-142 134,-112 0,-112"/>
<text text-anchor="start" x="8" y="-130" font-family="FreeSans" font-size="10.00">MWMechanics::NpcStats</text>
<text text-anchor="middle" x="67" y="-119" font-family="FreeSans" font-size="10.00">::useSkill</text>
</g>
<!-- Node2 -->
<g id="node2" class="node"><title>Node2</title>
<g id="a_node2"><a xlink:href="classMWBase_1_1Environment.html#a73f12633762b049c03c80fe215873faa" target="_top" xlink:title="Return instance of this class. ">
<polygon fill="white" stroke="black" points="170,-224.5 170,-243.5 316,-243.5 316,-224.5 170,-224.5"/>
<text text-anchor="middle" x="243" y="-231.5" font-family="FreeSans" font-size="10.00">MWBase::Environment::get</text>
</a>
</g>
</g>
<!-- Node1&#45;&gt;Node2 -->
<g id="edge1" class="edge"><title>Node1&#45;&gt;Node2</title>
<path fill="none" stroke="midnightblue" d="M81.6844,-142.209C99.9697,-161.631 134.24,-194.991 170,-214 175.137,-216.731 180.684,-219.118 186.339,-221.199"/>
<polygon fill="midnightblue" stroke="midnightblue" points="185.311,-224.546 195.905,-224.419 187.544,-217.912 185.311,-224.546"/>
</g>
<!-- Node3 -->
<g id="node3" class="node"><title>Node3</title>
<g id="a_node3"><a xlink:href="classMWBase_1_1Environment.html#ae14e166d8f5ff8629be119333d502660" target="_top" xlink:title="MWBase::Environment\l::getWorld">
<polygon fill="white" stroke="black" points="181,-175 181,-205 305,-205 305,-175 181,-175"/>
<text text-anchor="start" x="189" y="-193" font-family="FreeSans" font-size="10.00">MWBase::Environment</text>
<text text-anchor="middle" x="243" y="-182" font-family="FreeSans" font-size="10.00">::getWorld</text>
</a>
</g>
</g>
<!-- Node1&#45;&gt;Node3 -->
<g id="edge2" class="edge"><title>Node1&#45;&gt;Node3</title>
<path fill="none" stroke="midnightblue" d="M107.645,-142.005C126.497,-149.08 149.374,-157.578 170,-165 175.965,-167.146 182.218,-169.365 188.444,-171.553"/>
<polygon fill="midnightblue" stroke="midnightblue" points="187.563,-174.953 198.158,-174.953 189.876,-168.346 187.563,-174.953"/>
</g>
<!-- Node4 -->
<g id="node4" class="node"><title>Node4</title>
<g id="a_node4"><a xlink:href="classMWBase_1_1World.html#a2ba0910cb944786065e37dc5f3fcda35" target="_top" xlink:title="MWBase::World::getStore">
<polygon fill="white" stroke="black" points="174.5,-136.5 174.5,-155.5 311.5,-155.5 311.5,-136.5 174.5,-136.5"/>
<text text-anchor="middle" x="243" y="-143.5" font-family="FreeSans" font-size="10.00">MWBase::World::getStore</text>
</a>
</g>
</g>
<!-- Node1&#45;&gt;Node4 -->
<g id="edge3" class="edge"><title>Node1&#45;&gt;Node4</title>
<path fill="none" stroke="midnightblue" d="M134.278,-134.237C144.146,-135.315 154.392,-136.434 164.466,-137.534"/>
<polygon fill="midnightblue" stroke="midnightblue" points="164.143,-141.019 174.463,-138.625 164.902,-134.06 164.143,-141.019"/>
</g>
<!-- Node5 -->
<g id="node5" class="node"><title>Node5</title>
<g id="a_node5"><a xlink:href="classMWWorld_1_1ESMStore.html#a94ffe201bd012dd41fcdabfb35c69e24" target="_top" xlink:title="MWWorld::ESMStore::get">
<polygon fill="white" stroke="black" points="176,-98.5 176,-117.5 310,-117.5 310,-98.5 176,-98.5"/>
<text text-anchor="middle" x="243" y="-105.5" font-family="FreeSans" font-size="10.00">MWWorld::ESMStore::get</text>
</a>
</g>
</g>
<!-- Node1&#45;&gt;Node5 -->
<g id="edge4" class="edge"><title>Node1&#45;&gt;Node5</title>
<path fill="none" stroke="midnightblue" d="M134.278,-119.763C144.613,-118.634 155.362,-117.46 165.895,-116.31"/>
<polygon fill="midnightblue" stroke="midnightblue" points="166.345,-119.782 175.906,-115.217 165.585,-112.823 166.345,-119.782"/>
</g>
<!-- Node6 -->
<g id="node6" class="node"><title>Node6</title>
<g id="a_node6"><a xlink:href="classMWMechanics_1_1SkillValue.html#a635672f060d302ae7bb0ba42e98d0a2d" target="_top" xlink:title="MWMechanics::SkillValue\l::setProgress">
<polygon fill="white" stroke="black" points="176,-49 176,-79 310,-79 310,-49 176,-49"/>
<text text-anchor="start" x="184" y="-67" font-family="FreeSans" font-size="10.00">MWMechanics::SkillValue</text>
<text text-anchor="middle" x="243" y="-56" font-family="FreeSans" font-size="10.00">::setProgress</text>
</a>
</g>
</g>
<!-- Node1&#45;&gt;Node6 -->
<g id="edge5" class="edge"><title>Node1&#45;&gt;Node6</title>
<path fill="none" stroke="midnightblue" d="M107.645,-111.995C126.497,-104.92 149.374,-96.422 170,-89 175.965,-86.8537 182.218,-84.6353 188.444,-82.4468"/>
<polygon fill="midnightblue" stroke="midnightblue" points="189.876,-85.6539 198.158,-79.0471 187.563,-79.0468 189.876,-85.6539"/>
</g>
<!-- Node7 -->
<g id="node7" class="node"><title>Node7</title>
<g id="a_node7"><a xlink:href="classMWMechanics_1_1SkillValue.html#a39248b166309e81f2916832bac56b96e" target="_top" xlink:title="MWMechanics::SkillValue\l::getProgress">
<polygon fill="white" stroke="black" points="176,-0 176,-30 310,-30 310,-0 176,-0"/>
<text text-anchor="start" x="184" y="-18" font-family="FreeSans" font-size="10.00">MWMechanics::SkillValue</text>
<text text-anchor="middle" x="243" y="-7" font-family="FreeSans" font-size="10.00">::getProgress</text>
</a>
</g>
</g>
<!-- Node1&#45;&gt;Node7 -->
<g id="edge6" class="edge"><title>Node1&#45;&gt;Node7</title>
<path fill="none" stroke="midnightblue" d="M82.1953,-111.806C100.763,-92.7091 135.061,-60.0141 170,-40 173.681,-37.8912 177.57,-35.9185 181.556,-34.0809"/>
<polygon fill="midnightblue" stroke="midnightblue" points="183.172,-37.1962 190.983,-30.0377 180.413,-30.763 183.172,-37.1962"/>
</g>
</g>
</svg>
