<?xml version="1.0" encoding="UTF-8" standalone="no"?>
<!DOCTYPE svg PUBLIC "-//W3C//DTD SVG 1.1//EN"
 "http://www.w3.org/Graphics/SVG/1.1/DTD/svg11.dtd">
<!-- Generated by graphviz version 2.36.0 (20140111.2315)
 -->
<!-- Title: MWMechanics::ObstacleCheck::check Pages: 1 -->
<svg width="510pt" height="38pt"
 viewBox="0.00 0.00 510.00 38.00" xmlns="http://www.w3.org/2000/svg" xmlns:xlink="http://www.w3.org/1999/xlink">
<g id="graph0" class="graph" transform="scale(1 1) rotate(0) translate(4 34)">
<title>MWMechanics::ObstacleCheck::check</title>
<polygon fill="white" stroke="none" points="-4,4 -4,-34 506,-34 506,4 -4,4"/>
<!-- Node1 -->
<g id="node1" class="node"><title>Node1</title>
<polygon fill="#bfbfbf" stroke="black" points="0.5,-0 0.5,-30 161.5,-30 161.5,-0 0.5,-0"/>
<text text-anchor="start" x="8.5" y="-18" font-family="FreeSans" font-size="10.00">MWMechanics::ObstacleCheck</text>
<text text-anchor="middle" x="81" y="-7" font-family="FreeSans" font-size="10.00">::check</text>
</g>
<!-- Node2 -->
<g id="node2" class="node"><title>Node2</title>
<g id="a_node2"><a xlink:href="classMWMechanics_1_1AiWander.html#a5e3c9c52cd020409ce338b1eae76224d" target="_top" xlink:title="MWMechanics::AiWander\l::reactionTimeActions">
<polygon fill="white" stroke="black" points="198,-0 198,-30 332,-30 332,-0 198,-0"/>
<text text-anchor="start" x="206" y="-18" font-family="FreeSans" font-size="10.00">MWMechanics::AiWander</text>
<text text-anchor="middle" x="265" y="-7" font-family="FreeSans" font-size="10.00">::reactionTimeActions</text>
</a>
</g>
</g>
<!-- Node1&#45;&gt;Node2 -->
<g id="edge1" class="edge"><title>Node1&#45;&gt;Node2</title>
<path fill="none" stroke="midnightblue" d="M171.572,-15C180.46,-15 189.366,-15 197.951,-15"/>
<polygon fill="midnightblue" stroke="midnightblue" points="171.563,-11.5001 161.563,-15 171.563,-18.5001 171.563,-11.5001"/>
</g>
<!-- Node3 -->
<g id="node3" class="node"><title>Node3</title>
<g id="a_node3"><a xlink:href="classMWMechanics_1_1AiWander.html#a77aa326ba83d5024ec4cc5ebd207fa92" target="_top" xlink:title="MWMechanics::AiWander\l::execute">
<polygon fill="white" stroke="black" points="368,-0 368,-30 502,-30 502,-0 368,-0"/>
<text text-anchor="start" x="376" y="-18" font-family="FreeSans" font-size="10.00">MWMechanics::AiWander</text>
<text text-anchor="middle" x="435" y="-7" font-family="FreeSans" font-size="10.00">::execute</text>
</a>
</g>
</g>
<!-- Node2&#45;&gt;Node3 -->
<g id="edge2" class="edge"><title>Node2&#45;&gt;Node3</title>
<path fill="none" stroke="midnightblue" d="M342.595,-15C351.013,-15 359.532,-15 367.809,-15"/>
<polygon fill="midnightblue" stroke="midnightblue" points="342.398,-11.5001 332.398,-15 342.398,-18.5001 342.398,-11.5001"/>
</g>
</g>
</svg>
