<?xml version="1.0" encoding="UTF-8" standalone="no"?>
<!DOCTYPE svg PUBLIC "-//W3C//DTD SVG 1.1//EN"
 "http://www.w3.org/Graphics/SVG/1.1/DTD/svg11.dtd">
<!-- Generated by graphviz version 2.36.0 (20140111.2315)
 -->
<!-- Title: MWWorld::WeatherManager::stopSounds Pages: 1 -->
<svg width="858pt" height="136pt"
 viewBox="0.00 0.00 858.00 136.00" xmlns="http://www.w3.org/2000/svg" xmlns:xlink="http://www.w3.org/1999/xlink">
<g id="graph0" class="graph" transform="scale(1 1) rotate(0) translate(4 132)">
<title>MWWorld::WeatherManager::stopSounds</title>
<polygon fill="white" stroke="none" points="-4,4 -4,-132 854,-132 854,4 -4,4"/>
<!-- Node1 -->
<g id="node1" class="node"><title>Node1</title>
<polygon fill="#bfbfbf" stroke="black" points="0.5,-49 0.5,-79 137.5,-79 137.5,-49 0.5,-49"/>
<text text-anchor="start" x="8.5" y="-67" font-family="FreeSans" font-size="10.00">MWWorld::WeatherManager</text>
<text text-anchor="middle" x="69" y="-56" font-family="FreeSans" font-size="10.00">::stopSounds</text>
</g>
<!-- Node2 -->
<g id="node2" class="node"><title>Node2</title>
<g id="a_node2"><a xlink:href="classMWWorld_1_1WeatherManager.html#a29b2762eaaa6165a265159afe88729bc" target="_top" xlink:title="MWWorld::WeatherManager\l::~WeatherManager">
<polygon fill="white" stroke="black" points="174.5,-98 174.5,-128 311.5,-128 311.5,-98 174.5,-98"/>
<text text-anchor="start" x="182.5" y="-116" font-family="FreeSans" font-size="10.00">MWWorld::WeatherManager</text>
<text text-anchor="middle" x="243" y="-105" font-family="FreeSans" font-size="10.00">::~WeatherManager</text>
</a>
</g>
</g>
<!-- Node1&#45;&gt;Node2 -->
<g id="edge1" class="edge"><title>Node1&#45;&gt;Node2</title>
<path fill="none" stroke="midnightblue" d="M132.812,-81.8941C151.312,-87.1644 171.359,-92.8755 189.166,-97.9484"/>
<polygon fill="midnightblue" stroke="midnightblue" points="133.585,-78.4753 123.009,-79.1014 131.668,-85.2074 133.585,-78.4753"/>
</g>
<!-- Node3 -->
<g id="node3" class="node"><title>Node3</title>
<g id="a_node3"><a xlink:href="classMWWorld_1_1WeatherManager.html#af6be2dc2e9ee22adf937487728b100f6" target="_top" xlink:title="MWWorld::WeatherManager\l::update">
<polygon fill="white" stroke="black" points="174.5,-49 174.5,-79 311.5,-79 311.5,-49 174.5,-49"/>
<text text-anchor="start" x="182.5" y="-67" font-family="FreeSans" font-size="10.00">MWWorld::WeatherManager</text>
<text text-anchor="middle" x="243" y="-56" font-family="FreeSans" font-size="10.00">::update</text>
</a>
</g>
</g>
<!-- Node1&#45;&gt;Node3 -->
<g id="edge2" class="edge"><title>Node1&#45;&gt;Node3</title>
<path fill="none" stroke="midnightblue" d="M148.134,-64C156.846,-64 165.666,-64 174.233,-64"/>
<polygon fill="midnightblue" stroke="midnightblue" points="147.979,-60.5001 137.979,-64 147.979,-67.5001 147.979,-60.5001"/>
</g>
<!-- Node7 -->
<g id="node7" class="node"><title>Node7</title>
<g id="a_node7"><a xlink:href="classMWWorld_1_1WeatherManager.html#af5eaf43f1b3cf315e72ca3a6ad9f1a66" target="_top" xlink:title="MWWorld::WeatherManager\l::clear">
<polygon fill="white" stroke="black" points="174.5,-0 174.5,-30 311.5,-30 311.5,-0 174.5,-0"/>
<text text-anchor="start" x="182.5" y="-18" font-family="FreeSans" font-size="10.00">MWWorld::WeatherManager</text>
<text text-anchor="middle" x="243" y="-7" font-family="FreeSans" font-size="10.00">::clear</text>
</a>
</g>
</g>
<!-- Node1&#45;&gt;Node7 -->
<g id="edge6" class="edge"><title>Node1&#45;&gt;Node7</title>
<path fill="none" stroke="midnightblue" d="M132.812,-46.1059C151.312,-40.8356 171.359,-35.1245 189.166,-30.0516"/>
<polygon fill="midnightblue" stroke="midnightblue" points="131.668,-42.7926 123.009,-48.8986 133.585,-49.5247 131.668,-42.7926"/>
</g>
<!-- Node4 -->
<g id="node4" class="node"><title>Node4</title>
<g id="a_node4"><a xlink:href="classMWWorld_1_1World.html#a84e578a587f2329228289f364e48bdba" target="_top" xlink:title="MWWorld::World::updateWeather">
<polygon fill="white" stroke="black" points="348,-54.5 348,-73.5 506,-73.5 506,-54.5 348,-54.5"/>
<text text-anchor="middle" x="427" y="-61.5" font-family="FreeSans" font-size="10.00">MWWorld::World::updateWeather</text>
</a>
</g>
</g>
<!-- Node3&#45;&gt;Node4 -->
<g id="edge3" class="edge"><title>Node3&#45;&gt;Node4</title>
<path fill="none" stroke="midnightblue" d="M321.614,-64C330.301,-64 339.155,-64 347.849,-64"/>
<polygon fill="midnightblue" stroke="midnightblue" points="321.511,-60.5001 311.511,-64 321.511,-67.5001 321.511,-60.5001"/>
</g>
<!-- Node5 -->
<g id="node5" class="node"><title>Node5</title>
<g id="a_node5"><a xlink:href="classMWWorld_1_1World.html#abf77486e8f0325210afe56bbe2021960" target="_top" xlink:title="MWWorld::World::update">
<polygon fill="white" stroke="black" points="542,-54.5 542,-73.5 664,-73.5 664,-54.5 542,-54.5"/>
<text text-anchor="middle" x="603" y="-61.5" font-family="FreeSans" font-size="10.00">MWWorld::World::update</text>
</a>
</g>
</g>
<!-- Node4&#45;&gt;Node5 -->
<g id="edge4" class="edge"><title>Node4&#45;&gt;Node5</title>
<path fill="none" stroke="midnightblue" d="M516.265,-64C524.941,-64 533.6,-64 541.898,-64"/>
<polygon fill="midnightblue" stroke="midnightblue" points="516.093,-60.5001 506.093,-64 516.093,-67.5001 516.093,-60.5001"/>
</g>
<!-- Node6 -->
<g id="node6" class="node"><title>Node6</title>
<g id="a_node6"><a xlink:href="classMWWorld_1_1World.html#ab658191aa2c94a4ea8256db10678c102" target="_top" xlink:title="MWWorld::World::createRecord">
<polygon fill="white" stroke="black" points="700,-54.5 700,-73.5 850,-73.5 850,-54.5 700,-54.5"/>
<text text-anchor="middle" x="775" y="-61.5" font-family="FreeSans" font-size="10.00">MWWorld::World::createRecord</text>
</a>
</g>
</g>
<!-- Node5&#45;&gt;Node6 -->
<g id="edge5" class="edge"><title>Node5&#45;&gt;Node6</title>
<path fill="none" stroke="midnightblue" d="M674.486,-64C682.84,-64 691.387,-64 699.791,-64"/>
<polygon fill="midnightblue" stroke="midnightblue" points="674.414,-60.5001 664.414,-64 674.414,-67.5001 674.414,-60.5001"/>
</g>
<!-- Node8 -->
<g id="node8" class="node"><title>Node8</title>
<g id="a_node8"><a xlink:href="classMWWorld_1_1World.html#a0649e516820786ad6877162dfc034caf" target="_top" xlink:title="MWWorld::World::clear">
<polygon fill="white" stroke="black" points="370.5,-5.5 370.5,-24.5 483.5,-24.5 483.5,-5.5 370.5,-5.5"/>
<text text-anchor="middle" x="427" y="-12.5" font-family="FreeSans" font-size="10.00">MWWorld::World::clear</text>
</a>
</g>
</g>
<!-- Node7&#45;&gt;Node8 -->
<g id="edge7" class="edge"><title>Node7&#45;&gt;Node8</title>
<path fill="none" stroke="midnightblue" d="M321.643,-15C338.069,-15 355.089,-15 370.498,-15"/>
<polygon fill="midnightblue" stroke="midnightblue" points="321.511,-11.5001 311.511,-15 321.511,-18.5001 321.511,-11.5001"/>
</g>
</g>
</svg>
