<?xml version="1.0" encoding="UTF-8" standalone="no"?>
<!DOCTYPE svg PUBLIC "-//W3C//DTD SVG 1.1//EN"
 "http://www.w3.org/Graphics/SVG/1.1/DTD/svg11.dtd">
<!-- Generated by graphviz version 2.36.0 (20140111.2315)
 -->
<!-- Title: CSVWorld::ExtendedCommandConfigurator::ExtendedCommandConfigurator Pages: 1 -->
<svg width="444pt" height="87pt"
 viewBox="0.00 0.00 444.00 87.00" xmlns="http://www.w3.org/2000/svg" xmlns:xlink="http://www.w3.org/1999/xlink">
<g id="graph0" class="graph" transform="scale(1 1) rotate(0) translate(4 83)">
<title>CSVWorld::ExtendedCommandConfigurator::ExtendedCommandConfigurator</title>
<polygon fill="white" stroke="none" points="-4,4 -4,-83 440,-83 440,4 -4,4"/>
<!-- Node1 -->
<g id="node1" class="node"><title>Node1</title>
<polygon fill="#bfbfbf" stroke="black" points="0.5,-24 0.5,-54 209.5,-54 209.5,-24 0.5,-24"/>
<text text-anchor="start" x="8.5" y="-42" font-family="FreeSans" font-size="10.00">CSVWorld::ExtendedCommand</text>
<text text-anchor="middle" x="105" y="-31" font-family="FreeSans" font-size="10.00">Configurator::ExtendedCommandConfigurator</text>
</g>
<!-- Node2 -->
<g id="node2" class="node"><title>Node2</title>
<g id="a_node2"><a xlink:href="classCSVWorld_1_1ExtendedCommandConfigurator.html#ab1eb0786117bcaae57a80fbfe2d836e3" target="_top" xlink:title="CSVWorld::ExtendedCommand\lConfigurator::dataIdListChanged">
<polygon fill="white" stroke="black" points="264.5,-49 264.5,-79 417.5,-79 417.5,-49 264.5,-49"/>
<text text-anchor="start" x="272.5" y="-67" font-family="FreeSans" font-size="10.00">CSVWorld::ExtendedCommand</text>
<text text-anchor="middle" x="341" y="-56" font-family="FreeSans" font-size="10.00">Configurator::dataIdListChanged</text>
</a>
</g>
</g>
<!-- Node1&#45;&gt;Node2 -->
<g id="edge1" class="edge"><title>Node1&#45;&gt;Node2</title>
<path fill="none" stroke="midnightblue" d="M209.658,-50.0745C224.413,-51.651 239.456,-53.2581 253.83,-54.7938"/>
<polygon fill="midnightblue" stroke="midnightblue" points="253.849,-58.3157 264.165,-55.8979 254.593,-51.3553 253.849,-58.3157"/>
</g>
<!-- Node3 -->
<g id="node3" class="node"><title>Node3</title>
<g id="a_node3"><a xlink:href="classCSVWorld_1_1ExtendedCommandConfigurator.html#a1f8f7b4e6fc1203f98a8802fa4214aa9" target="_top" xlink:title="CSVWorld::ExtendedCommand\lConfigurator::performExtendedCommand">
<polygon fill="white" stroke="black" points="246,-0 246,-30 436,-30 436,-0 246,-0"/>
<text text-anchor="start" x="254" y="-18" font-family="FreeSans" font-size="10.00">CSVWorld::ExtendedCommand</text>
<text text-anchor="middle" x="341" y="-7" font-family="FreeSans" font-size="10.00">Configurator::performExtendedCommand</text>
</a>
</g>
</g>
<!-- Node1&#45;&gt;Node3 -->
<g id="edge2" class="edge"><title>Node1&#45;&gt;Node3</title>
<path fill="none" stroke="midnightblue" d="M209.658,-28.3684C218.269,-27.4853 226.977,-26.5921 235.593,-25.7084"/>
<polygon fill="midnightblue" stroke="midnightblue" points="236.064,-29.1786 245.654,-24.6765 235.349,-22.2151 236.064,-29.1786"/>
</g>
</g>
</svg>
