<?xml version="1.0" encoding="UTF-8" standalone="no"?>
<!DOCTYPE svg PUBLIC "-//W3C//DTD SVG 1.1//EN"
 "http://www.w3.org/Graphics/SVG/1.1/DTD/svg11.dtd">
<!-- Generated by graphviz version 2.36.0 (20140111.2315)
 -->
<!-- Title: ContentSelectorModel::ModelItem Pages: 1 -->
<svg width="265pt" height="294pt"
 viewBox="0.00 0.00 265.00 294.00" xmlns="http://www.w3.org/2000/svg" xmlns:xlink="http://www.w3.org/1999/xlink">
<g id="graph0" class="graph" transform="scale(1 1) rotate(0) translate(4 290)">
<title>ContentSelectorModel::ModelItem</title>
<polygon fill="white" stroke="none" points="-4,4 -4,-290 261,-290 261,4 -4,4"/>
<!-- Node1 -->
<g id="node1" class="node"><title>Node1</title>
<polygon fill="#bfbfbf" stroke="black" points="42.5,-0.5 42.5,-167.5 165.5,-167.5 165.5,-0.5 42.5,-0.5"/>
<text text-anchor="start" x="50.5" y="-155.5" font-family="FreeSans" font-size="10.00">ContentSelectorModel</text>
<text text-anchor="middle" x="104" y="-144.5" font-family="FreeSans" font-size="10.00">::ModelItem</text>
<polyline fill="none" stroke="black" points="42.5,-137.5 165.5,-137.5 "/>
<text text-anchor="middle" x="104" y="-125.5" font-family="FreeSans" font-size="10.00"> </text>
<polyline fill="none" stroke="black" points="42.5,-118.5 165.5,-118.5 "/>
<text text-anchor="start" x="50.5" y="-106.5" font-family="FreeSans" font-size="10.00">+ ModelItem()</text>
<text text-anchor="start" x="50.5" y="-95.5" font-family="FreeSans" font-size="10.00">+ ~ModelItem()</text>
<text text-anchor="start" x="50.5" y="-84.5" font-family="FreeSans" font-size="10.00">+ parent()</text>
<text text-anchor="start" x="50.5" y="-73.5" font-family="FreeSans" font-size="10.00">+ row()</text>
<text text-anchor="start" x="50.5" y="-62.5" font-family="FreeSans" font-size="10.00">+ childCount()</text>
<text text-anchor="start" x="50.5" y="-51.5" font-family="FreeSans" font-size="10.00">+ childRow()</text>
<text text-anchor="start" x="50.5" y="-40.5" font-family="FreeSans" font-size="10.00">+ child()</text>
<text text-anchor="start" x="50.5" y="-29.5" font-family="FreeSans" font-size="10.00">+ appendChild()</text>
<text text-anchor="start" x="50.5" y="-18.5" font-family="FreeSans" font-size="10.00">+ removeChild()</text>
<text text-anchor="start" x="50.5" y="-7.5" font-family="FreeSans" font-size="10.00">+ hasFormat()</text>
</g>
<!-- Node1&#45;&gt;Node1 -->
<g id="edge3" class="edge"><title>Node1&#45;&gt;Node1</title>
<path fill="none" stroke="#404040" d="M165.608,-102.821C175.899,-100.188 183,-93.9141 183,-84 183,-78.2684 180.627,-73.7536 176.636,-70.4554"/>
<polygon fill="none" stroke="#404040" points="176.433,-70.3584 169.294,-71.3768 165.608,-65.1788 172.747,-64.1604 176.433,-70.3584"/>
<text text-anchor="middle" x="220" y="-81.5" font-family="FreeSans" font-size="10.00"> #mParentItem</text>
</g>
<!-- Node2 -->
<g id="node2" class="node"><title>Node2</title>
<g id="a_node2"><a xlink:href="classQMimeData.html" target="_top" xlink:title="{QMimeData\n||}">
<polygon fill="white" stroke="black" points="0,-222.5 0,-279.5 74,-279.5 74,-222.5 0,-222.5"/>
<text text-anchor="middle" x="37" y="-267.5" font-family="FreeSans" font-size="10.00">QMimeData</text>
<polyline fill="none" stroke="black" points="0,-260.5 74,-260.5 "/>
<text text-anchor="middle" x="37" y="-248.5" font-family="FreeSans" font-size="10.00"> </text>
<polyline fill="none" stroke="black" points="0,-241.5 74,-241.5 "/>
<text text-anchor="middle" x="37" y="-229.5" font-family="FreeSans" font-size="10.00"> </text>
</a>
</g>
</g>
<!-- Node2&#45;&gt;Node1 -->
<g id="edge1" class="edge"><title>Node2&#45;&gt;Node1</title>
<path fill="none" stroke="midnightblue" d="M52.0361,-212.971C57.5382,-199.421 64.0066,-183.491 70.4762,-167.559"/>
<polygon fill="none" stroke="midnightblue" points="48.7338,-211.801 48.2143,-222.383 55.2195,-214.434 48.7338,-211.801"/>
</g>
<!-- Node3 -->
<g id="node3" class="node"><title>Node3</title>
<polygon fill="white" stroke="#bfbfbf" points="92,-217 92,-285 250,-285 250,-217 92,-217"/>
<text text-anchor="start" x="100" y="-273" font-family="FreeSans" font-size="10.00">QList&lt; ContentSelectorModel</text>
<text text-anchor="middle" x="171" y="-262" font-family="FreeSans" font-size="10.00">::ModelItem * &gt;</text>
<polyline fill="none" stroke="#bfbfbf" points="92,-255 250,-255 "/>
<text text-anchor="middle" x="171" y="-243" font-family="FreeSans" font-size="10.00"> </text>
<polyline fill="none" stroke="#bfbfbf" points="92,-236 250,-236 "/>
<text text-anchor="middle" x="171" y="-224" font-family="FreeSans" font-size="10.00"> </text>
</g>
<!-- Node3&#45;&gt;Node1 -->
<g id="edge2" class="edge"><title>Node3&#45;&gt;Node1</title>
<path fill="none" stroke="#404040" d="M157.442,-216.61C152.931,-205.501 147.661,-192.524 142.223,-179.131"/>
<polygon fill="none" stroke="#404040" points="142.142,-178.932 136.179,-174.878 137.627,-167.813 143.591,-171.868 142.142,-178.932"/>
<text text-anchor="middle" x="185" y="-189.5" font-family="FreeSans" font-size="10.00"> #mChildItems</text>
</g>
</g>
</svg>
