<?xml version="1.0" encoding="UTF-8" standalone="no"?>
<!DOCTYPE svg PUBLIC "-//W3C//DTD SVG 1.1//EN"
 "http://www.w3.org/Graphics/SVG/1.1/DTD/svg11.dtd">
<!-- Generated by graphviz version 2.36.0 (20140111.2315)
 -->
<!-- Title: SceneUtil::RemoveTriBipVisitor::apply Pages: 1 -->
<svg width="640pt" height="38pt"
 viewBox="0.00 0.00 640.00 38.00" xmlns="http://www.w3.org/2000/svg" xmlns:xlink="http://www.w3.org/1999/xlink">
<g id="graph0" class="graph" transform="scale(1 1) rotate(0) translate(4 34)">
<title>SceneUtil::RemoveTriBipVisitor::apply</title>
<polygon fill="white" stroke="none" points="-4,4 -4,-34 636,-34 636,4 -4,4"/>
<!-- Node1 -->
<g id="node1" class="node"><title>Node1</title>
<polygon fill="#bfbfbf" stroke="black" points="0.5,-0 0.5,-30 161.5,-30 161.5,-0 0.5,-0"/>
<text text-anchor="start" x="8.5" y="-18" font-family="FreeSans" font-size="10.00">SceneUtil::RemoveTriBipVisitor</text>
<text text-anchor="middle" x="81" y="-7" font-family="FreeSans" font-size="10.00">::apply</text>
</g>
<!-- Node2 -->
<g id="node2" class="node"><title>Node2</title>
<g id="a_node2"><a xlink:href="classSceneUtil_1_1RemoveTriBipVisitor.html#adac9d1bda4bbd9aede2e87d03a79ccb5" target="_top" xlink:title="SceneUtil::RemoveTriBipVisitor\l::applyImpl">
<polygon fill="white" stroke="black" points="198.5,-0 198.5,-30 359.5,-30 359.5,-0 198.5,-0"/>
<text text-anchor="start" x="206.5" y="-18" font-family="FreeSans" font-size="10.00">SceneUtil::RemoveTriBipVisitor</text>
<text text-anchor="middle" x="279" y="-7" font-family="FreeSans" font-size="10.00">::applyImpl</text>
</a>
</g>
</g>
<!-- Node1&#45;&gt;Node2 -->
<g id="edge1" class="edge"><title>Node1&#45;&gt;Node2</title>
<path fill="none" stroke="midnightblue" d="M161.721,-15C170.405,-15 179.287,-15 188.082,-15"/>
<polygon fill="midnightblue" stroke="midnightblue" points="188.35,-18.5001 198.35,-15 188.35,-11.5001 188.35,-18.5001"/>
</g>
<!-- Node3 -->
<g id="node3" class="node"><title>Node3</title>
<g id="a_node3"><a xlink:href="classMisc_1_1StringUtils.html#a09a6483fa1e7a3a0fdf141a37edc2196" target="_top" xlink:title="Misc::StringUtils::\lciCompareLen">
<polygon fill="white" stroke="black" points="396.5,-0 396.5,-30 495.5,-30 495.5,-0 396.5,-0"/>
<text text-anchor="start" x="404.5" y="-18" font-family="FreeSans" font-size="10.00">Misc::StringUtils::</text>
<text text-anchor="middle" x="446" y="-7" font-family="FreeSans" font-size="10.00">ciCompareLen</text>
</a>
</g>
</g>
<!-- Node2&#45;&gt;Node3 -->
<g id="edge2" class="edge"><title>Node2&#45;&gt;Node3</title>
<path fill="none" stroke="midnightblue" d="M359.6,-15C368.506,-15 377.456,-15 386.036,-15"/>
<polygon fill="midnightblue" stroke="midnightblue" points="386.29,-18.5001 396.29,-15 386.29,-11.5001 386.29,-18.5001"/>
</g>
<!-- Node4 -->
<g id="node4" class="node"><title>Node4</title>
<g id="a_node4"><a xlink:href="classMisc_1_1StringUtils.html#a0759adb102842ee3bced227707eb6949" target="_top" xlink:title="Misc::StringUtils::\ltoLower">
<polygon fill="white" stroke="black" points="532.5,-0 532.5,-30 631.5,-30 631.5,-0 532.5,-0"/>
<text text-anchor="start" x="540.5" y="-18" font-family="FreeSans" font-size="10.00">Misc::StringUtils::</text>
<text text-anchor="middle" x="582" y="-7" font-family="FreeSans" font-size="10.00">toLower</text>
</a>
</g>
</g>
<!-- Node3&#45;&gt;Node4 -->
<g id="edge3" class="edge"><title>Node3&#45;&gt;Node4</title>
<path fill="none" stroke="midnightblue" d="M495.756,-15C504.254,-15 513.176,-15 521.916,-15"/>
<polygon fill="midnightblue" stroke="midnightblue" points="522.056,-18.5001 532.056,-15 522.056,-11.5001 522.056,-18.5001"/>
</g>
</g>
</svg>
