<?xml version="1.0" encoding="UTF-8" standalone="no"?>
<!DOCTYPE svg PUBLIC "-//W3C//DTD SVG 1.1//EN"
 "http://www.w3.org/Graphics/SVG/1.1/DTD/svg11.dtd">
<!-- Generated by graphviz version 2.36.0 (20140111.2315)
 -->
<!-- Title: MWGui::WaitDialog::open Pages: 1 -->
<svg width="732pt" height="717pt"
 viewBox="0.00 0.00 732.00 717.00" xmlns="http://www.w3.org/2000/svg" xmlns:xlink="http://www.w3.org/1999/xlink">
<g id="graph0" class="graph" transform="scale(1 1) rotate(0) translate(4 713)">
<title>MWGui::WaitDialog::open</title>
<polygon fill="white" stroke="none" points="-4,4 -4,-713 728,-713 728,4 -4,4"/>
<!-- Node1 -->
<g id="node1" class="node"><title>Node1</title>
<polygon fill="#bfbfbf" stroke="black" points="0,-241.5 0,-260.5 134,-260.5 134,-241.5 0,-241.5"/>
<text text-anchor="middle" x="67" y="-248.5" font-family="FreeSans" font-size="10.00">MWGui::WaitDialog::open</text>
</g>
<!-- Node2 -->
<g id="node2" class="node"><title>Node2</title>
<g id="a_node2"><a xlink:href="classMWBase_1_1Environment.html#a73f12633762b049c03c80fe215873faa" target="_top" xlink:title="Return instance of this class. ">
<polygon fill="white" stroke="black" points="574,-689.5 574,-708.5 720,-708.5 720,-689.5 574,-689.5"/>
<text text-anchor="middle" x="647" y="-696.5" font-family="FreeSans" font-size="10.00">MWBase::Environment::get</text>
</a>
</g>
</g>
<!-- Node1&#45;&gt;Node2 -->
<g id="edge1" class="edge"><title>Node1&#45;&gt;Node2</title>
<path fill="none" stroke="midnightblue" d="M68.5649,-260.503C71.4867,-301.908 88.0985,-468.956 170,-569 236.422,-650.135 275.295,-654.788 376,-684 437.102,-701.724 509.174,-704.887 563.48,-703.938"/>
<polygon fill="midnightblue" stroke="midnightblue" points="563.832,-707.431 573.751,-703.706 563.674,-700.433 563.832,-707.431"/>
</g>
<!-- Node3 -->
<g id="node3" class="node"><title>Node3</title>
<g id="a_node3"><a xlink:href="classMWBase_1_1Environment.html#aeeef9a580df0312f0a9b7380488dea21" target="_top" xlink:title="MWBase::Environment\l::getWindowManager">
<polygon fill="white" stroke="black" points="193,-351 193,-381 317,-381 317,-351 193,-351"/>
<text text-anchor="start" x="201" y="-369" font-family="FreeSans" font-size="10.00">MWBase::Environment</text>
<text text-anchor="middle" x="255" y="-358" font-family="FreeSans" font-size="10.00">::getWindowManager</text>
</a>
</g>
</g>
<!-- Node1&#45;&gt;Node3 -->
<g id="edge2" class="edge"><title>Node1&#45;&gt;Node3</title>
<path fill="none" stroke="midnightblue" d="M76.2487,-260.654C92.4047,-278.971 130.135,-318.904 170,-341 174.188,-343.321 178.615,-345.45 183.16,-347.397"/>
<polygon fill="midnightblue" stroke="midnightblue" points="182.03,-350.714 192.616,-351.146 184.609,-344.207 182.03,-350.714"/>
</g>
<!-- Node4 -->
<g id="node4" class="node"><title>Node4</title>
<g id="a_node4"><a xlink:href="classMWBase_1_1WindowManager.html#ac059431adfdc99d255a36befd823b429" target="_top" xlink:title="MWBase::WindowManager\l::popGuiMode">
<polygon fill="white" stroke="black" points="185,-302 185,-332 325,-332 325,-302 185,-302"/>
<text text-anchor="start" x="193" y="-320" font-family="FreeSans" font-size="10.00">MWBase::WindowManager</text>
<text text-anchor="middle" x="255" y="-309" font-family="FreeSans" font-size="10.00">::popGuiMode</text>
</a>
</g>
</g>
<!-- Node1&#45;&gt;Node4 -->
<g id="edge3" class="edge"><title>Node1&#45;&gt;Node4</title>
<path fill="none" stroke="midnightblue" d="M90.0599,-260.559C110.568,-269.279 142.069,-282.254 170,-292 176.716,-294.344 183.781,-296.665 190.842,-298.894"/>
<polygon fill="midnightblue" stroke="midnightblue" points="189.849,-302.25 200.437,-301.87 191.923,-295.564 189.849,-302.25"/>
</g>
<!-- Node5 -->
<g id="node5" class="node"><title>Node5</title>
<g id="a_node5"><a xlink:href="classMWBase_1_1Environment.html#ae14e166d8f5ff8629be119333d502660" target="_top" xlink:title="MWBase::Environment\l::getWorld">
<polygon fill="white" stroke="black" points="585,-618 585,-648 709,-648 709,-618 585,-618"/>
<text text-anchor="start" x="593" y="-636" font-family="FreeSans" font-size="10.00">MWBase::Environment</text>
<text text-anchor="middle" x="647" y="-625" font-family="FreeSans" font-size="10.00">::getWorld</text>
</a>
</g>
</g>
<!-- Node1&#45;&gt;Node5 -->
<g id="edge4" class="edge"><title>Node1&#45;&gt;Node5</title>
<path fill="none" stroke="midnightblue" d="M71.1848,-260.682C89.6111,-314.827 188.327,-580.623 376,-663 449.74,-695.367 545.227,-671.212 600.647,-651.534"/>
<polygon fill="midnightblue" stroke="midnightblue" points="601.991,-654.769 610.183,-648.051 599.589,-648.194 601.991,-654.769"/>
</g>
<!-- Node6 -->
<g id="node6" class="node"><title>Node6</title>
<g id="a_node6"><a xlink:href="classMWBase_1_1World.html#a8a79fb5c35ed4794f2b424b8c2a02875" target="_top" xlink:title="MWBase::World::canRest">
<polygon fill="white" stroke="black" points="189,-263.5 189,-282.5 321,-282.5 321,-263.5 189,-263.5"/>
<text text-anchor="middle" x="255" y="-270.5" font-family="FreeSans" font-size="10.00">MWBase::World::canRest</text>
</a>
</g>
</g>
<!-- Node1&#45;&gt;Node6 -->
<g id="edge5" class="edge"><title>Node1&#45;&gt;Node6</title>
<path fill="none" stroke="midnightblue" d="M134.1,-258.818C148.523,-260.524 163.89,-262.342 178.642,-264.087"/>
<polygon fill="midnightblue" stroke="midnightblue" points="178.396,-267.582 188.738,-265.281 179.218,-260.63 178.396,-267.582"/>
</g>
<!-- Node7 -->
<g id="node7" class="node"><title>Node7</title>
<g id="a_node7"><a xlink:href="classMWBase_1_1WindowManager.html#a31b3076552c3c3bfd579d45a5068109a" target="_top" xlink:title="MWBase::WindowManager\l::messageBox">
<polygon fill="white" stroke="black" points="185,-214 185,-244 325,-244 325,-214 185,-214"/>
<text text-anchor="start" x="193" y="-232" font-family="FreeSans" font-size="10.00">MWBase::WindowManager</text>
<text text-anchor="middle" x="255" y="-221" font-family="FreeSans" font-size="10.00">::messageBox</text>
</a>
</g>
</g>
<!-- Node1&#45;&gt;Node7 -->
<g id="edge6" class="edge"><title>Node1&#45;&gt;Node7</title>
<path fill="none" stroke="midnightblue" d="M134.1,-243.182C147.247,-241.627 161.179,-239.979 174.714,-238.378"/>
<polygon fill="midnightblue" stroke="midnightblue" points="175.448,-241.816 184.968,-237.165 174.626,-234.864 175.448,-241.816"/>
</g>
<!-- Node8 -->
<g id="node8" class="node"><title>Node8</title>
<g id="a_node8"><a xlink:href="classMWGui_1_1WaitDialog.html#a5cad42f32fd92df269837aadd6ce44a2" target="_top" xlink:title="MWGui::WaitDialog::\lsetCanRest">
<polygon fill="white" stroke="black" points="200,-400 200,-430 310,-430 310,-400 200,-400"/>
<text text-anchor="start" x="208" y="-418" font-family="FreeSans" font-size="10.00">MWGui::WaitDialog::</text>
<text text-anchor="middle" x="255" y="-407" font-family="FreeSans" font-size="10.00">setCanRest</text>
</a>
</g>
</g>
<!-- Node1&#45;&gt;Node8 -->
<g id="edge7" class="edge"><title>Node1&#45;&gt;Node8</title>
<path fill="none" stroke="midnightblue" d="M72.3834,-260.773C84.2591,-286.127 119.584,-354.5 170,-390 176.073,-394.276 182.883,-397.83 189.93,-400.783"/>
<polygon fill="midnightblue" stroke="midnightblue" points="189.047,-404.19 199.638,-404.447 191.518,-397.641 189.047,-404.19"/>
</g>
<!-- Node22 -->
<g id="node22" class="node"><title>Node22</title>
<g id="a_node22"><a xlink:href="classMWGui_1_1WaitDialog.html#aa8a64cacdf39df5fb65fe46a9cb2d4d3" target="_top" xlink:title="MWGui::WaitDialog::\lonHourSliderChangedPosition">
<polygon fill="white" stroke="black" points="175.5,-126 175.5,-156 334.5,-156 334.5,-126 175.5,-126"/>
<text text-anchor="start" x="183.5" y="-144" font-family="FreeSans" font-size="10.00">MWGui::WaitDialog::</text>
<text text-anchor="middle" x="255" y="-133" font-family="FreeSans" font-size="10.00">onHourSliderChangedPosition</text>
</a>
</g>
</g>
<!-- Node1&#45;&gt;Node22 -->
<g id="edge23" class="edge"><title>Node1&#45;&gt;Node22</title>
<path fill="none" stroke="midnightblue" d="M77.9252,-241.391C95.3091,-225.001 132.952,-191.435 170,-171 177.586,-166.816 185.868,-163.027 194.179,-159.662"/>
<polygon fill="midnightblue" stroke="midnightblue" points="195.475,-162.914 203.541,-156.044 192.951,-156.385 195.475,-162.914"/>
</g>
<!-- Node23 -->
<g id="node23" class="node"><title>Node23</title>
<g id="a_node23"><a xlink:href="namespaceanonymous__namespace_02character_8cpp_03.html#a551df780ef62c57fe81b128fa596488c" target="_top" xlink:title="anonymous_namespace\l\{character::cpp\}::toString">
<polygon fill="white" stroke="black" points="384,-116 384,-146 526,-146 526,-116 384,-116"/>
<text text-anchor="start" x="392" y="-134" font-family="FreeSans" font-size="10.00">anonymous_namespace</text>
<text text-anchor="middle" x="455" y="-123" font-family="FreeSans" font-size="10.00">{character::cpp}::toString</text>
</a>
</g>
</g>
<!-- Node1&#45;&gt;Node23 -->
<g id="edge29" class="edge"><title>Node1&#45;&gt;Node23</title>
<path fill="none" stroke="midnightblue" d="M85.96,-241.342C105.979,-230.907 139.55,-214.384 170,-204 243.369,-178.98 265.041,-184.754 340,-165 358.367,-160.16 378.251,-154.409 396.19,-149.027"/>
<polygon fill="midnightblue" stroke="midnightblue" points="397.375,-152.325 405.935,-146.083 395.35,-145.624 397.375,-152.325"/>
</g>
<!-- Node25 -->
<g id="node25" class="node"><title>Node25</title>
<g id="a_node25"><a xlink:href="classMWBase_1_1World.html#a7796036e96d42bbe0e3117ce0e089b28" target="_top" xlink:title="Return name of month (&#45;1: current month) ">
<polygon fill="white" stroke="black" points="170,-87.5 170,-106.5 340,-106.5 340,-87.5 170,-87.5"/>
<text text-anchor="middle" x="255" y="-94.5" font-family="FreeSans" font-size="10.00">MWBase::World::getMonthName</text>
</a>
</g>
</g>
<!-- Node1&#45;&gt;Node25 -->
<g id="edge26" class="edge"><title>Node1&#45;&gt;Node25</title>
<path fill="none" stroke="midnightblue" d="M72.3344,-241.317C84.0917,-216.233 119.156,-148.812 170,-116 173.204,-113.933 176.602,-112.089 180.126,-110.444"/>
<polygon fill="midnightblue" stroke="midnightblue" points="181.758,-113.558 189.694,-106.539 179.113,-107.077 181.758,-113.558"/>
</g>
<!-- Node26 -->
<g id="node26" class="node"><title>Node26</title>
<g id="a_node26"><a xlink:href="classMWBase_1_1World.html#afedfaa8a949d00d5905eb8ae070492fe" target="_top" xlink:title="Return current in&#45;game time stamp. ">
<polygon fill="white" stroke="black" points="172,-49.5 172,-68.5 338,-68.5 338,-49.5 172,-49.5"/>
<text text-anchor="middle" x="255" y="-56.5" font-family="FreeSans" font-size="10.00">MWBase::World::getTimeStamp</text>
</a>
</g>
</g>
<!-- Node1&#45;&gt;Node26 -->
<g id="edge27" class="edge"><title>Node1&#45;&gt;Node26</title>
<path fill="none" stroke="midnightblue" d="M70.7116,-241.286C79.522,-211.617 110.284,-121.563 170,-78 172.657,-76.0614 175.478,-74.3157 178.415,-72.744"/>
<polygon fill="midnightblue" stroke="midnightblue" points="179.918,-75.9055 187.526,-68.5323 176.98,-69.5516 179.918,-75.9055"/>
</g>
<!-- Node27 -->
<g id="node27" class="node"><title>Node27</title>
<g id="a_node27"><a xlink:href="classMWWorld_1_1TimeStamp.html#a2221697709e434937c7457d4a657a280" target="_top" xlink:title="MWWorld::TimeStamp\l::getHour">
<polygon fill="white" stroke="black" points="195,-0 195,-30 315,-30 315,-0 195,-0"/>
<text text-anchor="start" x="203" y="-18" font-family="FreeSans" font-size="10.00">MWWorld::TimeStamp</text>
<text text-anchor="middle" x="255" y="-7" font-family="FreeSans" font-size="10.00">::getHour</text>
</a>
</g>
</g>
<!-- Node1&#45;&gt;Node27 -->
<g id="edge28" class="edge"><title>Node1&#45;&gt;Node27</title>
<path fill="none" stroke="midnightblue" d="M69.7896,-241.326C76.4658,-208.009 103.059,-96.9452 170,-40 174.603,-36.0842 179.8,-32.7816 185.295,-29.9964"/>
<polygon fill="midnightblue" stroke="midnightblue" points="187.059,-33.0424 194.774,-25.7803 184.214,-26.6466 187.059,-33.0424"/>
</g>
<!-- Node9 -->
<g id="node9" class="node"><title>Node9</title>
<g id="a_node9"><a xlink:href="namespaceMWMechanics.html#a90645fe67f9b8b658452cd004d2cbb65" target="_top" xlink:title="MWMechanics::getPlayer">
<polygon fill="white" stroke="black" points="388,-536.5 388,-555.5 522,-555.5 522,-536.5 388,-536.5"/>
<text text-anchor="middle" x="455" y="-543.5" font-family="FreeSans" font-size="10.00">MWMechanics::getPlayer</text>
</a>
</g>
</g>
<!-- Node8&#45;&gt;Node9 -->
<g id="edge8" class="edge"><title>Node8&#45;&gt;Node9</title>
<path fill="none" stroke="midnightblue" d="M267.865,-430.288C287.598,-454.62 329.606,-501.959 376,-527 380.224,-529.28 384.723,-531.29 389.346,-533.062"/>
<polygon fill="midnightblue" stroke="midnightblue" points="388.369,-536.427 398.964,-536.375 390.649,-529.809 388.369,-536.427"/>
</g>
<!-- Node11 -->
<g id="node11" class="node"><title>Node11</title>
<g id="a_node11"><a xlink:href="classMWWorld_1_1Ptr.html#aa2ac4a5579cd19eaa780596f4543ea46" target="_top" xlink:title="MWWorld::Ptr::getClass">
<polygon fill="white" stroke="black" points="392.5,-312.5 392.5,-331.5 517.5,-331.5 517.5,-312.5 392.5,-312.5"/>
<text text-anchor="middle" x="455" y="-319.5" font-family="FreeSans" font-size="10.00">MWWorld::Ptr::getClass</text>
</a>
</g>
</g>
<!-- Node8&#45;&gt;Node11 -->
<g id="edge12" class="edge"><title>Node8&#45;&gt;Node11</title>
<path fill="none" stroke="midnightblue" d="M310.311,-404.374C320.726,-400.846 331.135,-396.173 340,-390 361.883,-374.761 353.829,-356.817 376,-342 379.763,-339.485 383.822,-337.287 388.041,-335.364"/>
<polygon fill="midnightblue" stroke="midnightblue" points="389.501,-338.55 397.482,-331.582 386.898,-332.052 389.501,-338.55"/>
</g>
<!-- Node12 -->
<g id="node12" class="node"><title>Node12</title>
<g id="a_node12"><a xlink:href="classMWWorld_1_1Class.html#a5095a30e5baa5742b3d393610fd73d60" target="_top" xlink:title="MWWorld::Class::getCreature\lStats">
<polygon fill="white" stroke="black" points="378,-263 378,-293 532,-293 532,-263 378,-263"/>
<text text-anchor="start" x="386" y="-281" font-family="FreeSans" font-size="10.00">MWWorld::Class::getCreature</text>
<text text-anchor="middle" x="455" y="-270" font-family="FreeSans" font-size="10.00">Stats</text>
</a>
</g>
</g>
<!-- Node8&#45;&gt;Node12 -->
<g id="edge13" class="edge"><title>Node8&#45;&gt;Node12</title>
<path fill="none" stroke="midnightblue" d="M310.323,-406.493C321.093,-402.811 331.639,-397.541 340,-390 371.075,-361.974 345.22,-331.349 376,-303 377.7,-301.435 379.498,-299.967 381.375,-298.591"/>
<polygon fill="midnightblue" stroke="midnightblue" points="383.455,-301.418 390.054,-293.13 379.726,-295.494 383.455,-301.418"/>
</g>
<!-- Node13 -->
<g id="node13" class="node"><title>Node13</title>
<g id="a_node13"><a xlink:href="classMWMechanics_1_1CreatureStats.html#a1c6f3d56e990e9ab329b7cc52a4947c8" target="_top" xlink:title="MWMechanics::CreatureStats\l::getHealth">
<polygon fill="white" stroke="black" points="376.5,-214 376.5,-244 533.5,-244 533.5,-214 376.5,-214"/>
<text text-anchor="start" x="384.5" y="-232" font-family="FreeSans" font-size="10.00">MWMechanics::CreatureStats</text>
<text text-anchor="middle" x="455" y="-221" font-family="FreeSans" font-size="10.00">::getHealth</text>
</a>
</g>
</g>
<!-- Node8&#45;&gt;Node13 -->
<g id="edge14" class="edge"><title>Node8&#45;&gt;Node13</title>
<path fill="none" stroke="midnightblue" d="M310.245,-407.613C321.275,-403.876 331.949,-398.301 340,-390 383.533,-345.118 332.938,-299.334 376,-254 377.246,-252.689 378.56,-251.446 379.933,-250.268"/>
<polygon fill="midnightblue" stroke="midnightblue" points="382.291,-252.884 388.373,-244.209 378.208,-247.198 382.291,-252.884"/>
</g>
<!-- Node14 -->
<g id="node14" class="node"><title>Node14</title>
<g id="a_node14"><a xlink:href="classMWMechanics_1_1DynamicStat.html#a396a1a67b23dde7489b7afa6bcdc2dee" target="_top" xlink:title="MWMechanics::DynamicStat\l::getCurrent">
<polygon fill="white" stroke="black" points="379,-165 379,-195 531,-195 531,-165 379,-165"/>
<text text-anchor="start" x="387" y="-183" font-family="FreeSans" font-size="10.00">MWMechanics::DynamicStat</text>
<text text-anchor="middle" x="455" y="-172" font-family="FreeSans" font-size="10.00">::getCurrent</text>
</a>
</g>
</g>
<!-- Node8&#45;&gt;Node14 -->
<g id="edge15" class="edge"><title>Node8&#45;&gt;Node14</title>
<path fill="none" stroke="midnightblue" d="M310.233,-408.157C321.397,-404.401 332.132,-398.681 340,-390 396.549,-327.614 319.74,-266.646 376,-204 376.757,-203.157 377.544,-202.343 378.356,-201.557"/>
<polygon fill="midnightblue" stroke="midnightblue" points="380.669,-204.189 386.31,-195.221 376.307,-198.714 380.669,-204.189"/>
</g>
<!-- Node15 -->
<g id="node15" class="node"><title>Node15</title>
<g id="a_node15"><a xlink:href="classMWMechanics_1_1DynamicStat.html#a5341e59c91e5cc6782ef8f8fa1177bda" target="_top" xlink:title="MWMechanics::DynamicStat\l::getModified">
<polygon fill="white" stroke="black" points="379,-624 379,-654 531,-654 531,-624 379,-624"/>
<text text-anchor="start" x="387" y="-642" font-family="FreeSans" font-size="10.00">MWMechanics::DynamicStat</text>
<text text-anchor="middle" x="455" y="-631" font-family="FreeSans" font-size="10.00">::getModified</text>
</a>
</g>
</g>
<!-- Node8&#45;&gt;Node15 -->
<g id="edge16" class="edge"><title>Node8&#45;&gt;Node15</title>
<path fill="none" stroke="midnightblue" d="M260.946,-430.25C273.76,-467.363 311.606,-563.071 376,-614 378.3,-615.819 380.736,-617.508 383.271,-619.075"/>
<polygon fill="midnightblue" stroke="midnightblue" points="381.761,-622.238 392.217,-623.947 385.109,-616.09 381.761,-622.238"/>
</g>
<!-- Node16 -->
<g id="node16" class="node"><title>Node16</title>
<g id="a_node16"><a xlink:href="classMWMechanics_1_1CreatureStats.html#ae018e386f2f53c18dc29f94782b0a67d" target="_top" xlink:title="MWMechanics::CreatureStats\l::getMagicka">
<polygon fill="white" stroke="black" points="376.5,-575 376.5,-605 533.5,-605 533.5,-575 376.5,-575"/>
<text text-anchor="start" x="384.5" y="-593" font-family="FreeSans" font-size="10.00">MWMechanics::CreatureStats</text>
<text text-anchor="middle" x="455" y="-582" font-family="FreeSans" font-size="10.00">::getMagicka</text>
</a>
</g>
</g>
<!-- Node8&#45;&gt;Node16 -->
<g id="edge17" class="edge"><title>Node8&#45;&gt;Node16</title>
<path fill="none" stroke="midnightblue" d="M264.07,-430.208C280.85,-460.389 322.442,-528.113 376,-565 378.899,-566.996 381.966,-568.84 385.142,-570.543"/>
<polygon fill="midnightblue" stroke="midnightblue" points="383.804,-573.783 394.331,-574.975 386.845,-567.478 383.804,-573.783"/>
</g>
<!-- Node17 -->
<g id="node17" class="node"><title>Node17</title>
<g id="a_node17"><a xlink:href="classMWWorld_1_1Class.html#a288815e0879a88ccd87b4871be64202b" target="_top" xlink:title="MWWorld::Class::getNpcStats">
<polygon fill="white" stroke="black" points="377,-498.5 377,-517.5 533,-517.5 533,-498.5 377,-498.5"/>
<text text-anchor="middle" x="455" y="-505.5" font-family="FreeSans" font-size="10.00">MWWorld::Class::getNpcStats</text>
</a>
</g>
</g>
<!-- Node8&#45;&gt;Node17 -->
<g id="edge18" class="edge"><title>Node8&#45;&gt;Node17</title>
<path fill="none" stroke="midnightblue" d="M276.653,-430.192C299.789,-446.567 338.921,-472.377 376,-488 382.897,-490.906 390.321,-493.471 397.75,-495.711"/>
<polygon fill="midnightblue" stroke="midnightblue" points="396.899,-499.108 407.474,-498.47 398.809,-492.374 396.899,-499.108"/>
</g>
<!-- Node18 -->
<g id="node18" class="node"><title>Node18</title>
<g id="a_node18"><a xlink:href="classMWMechanics_1_1NpcStats.html#af1693fef2b49c958fec69ec5a462b8c1" target="_top" xlink:title="MWMechanics::NpcStats\l::isWerewolf">
<polygon fill="white" stroke="black" points="388,-449 388,-479 522,-479 522,-449 388,-449"/>
<text text-anchor="start" x="396" y="-467" font-family="FreeSans" font-size="10.00">MWMechanics::NpcStats</text>
<text text-anchor="middle" x="455" y="-456" font-family="FreeSans" font-size="10.00">::isWerewolf</text>
</a>
</g>
</g>
<!-- Node8&#45;&gt;Node18 -->
<g id="edge19" class="edge"><title>Node8&#45;&gt;Node18</title>
<path fill="none" stroke="midnightblue" d="M310.104,-428.389C332.747,-433.993 359.365,-440.58 383.51,-446.556"/>
<polygon fill="midnightblue" stroke="midnightblue" points="382.784,-449.981 393.332,-448.986 384.466,-443.186 382.784,-449.981"/>
</g>
<!-- Node19 -->
<g id="node19" class="node"><title>Node19</title>
<g id="a_node19"><a xlink:href="classGui_1_1Box.html#a36692652f36276c8cf6f71a38c241473" target="_top" xlink:title="Gui::Box::notifyChildren\lSizeChanged">
<polygon fill="white" stroke="black" points="391,-400 391,-430 519,-430 519,-400 391,-400"/>
<text text-anchor="start" x="399" y="-418" font-family="FreeSans" font-size="10.00">Gui::Box::notifyChildren</text>
<text text-anchor="middle" x="455" y="-407" font-family="FreeSans" font-size="10.00">SizeChanged</text>
</a>
</g>
</g>
<!-- Node8&#45;&gt;Node19 -->
<g id="edge20" class="edge"><title>Node8&#45;&gt;Node19</title>
<path fill="none" stroke="midnightblue" d="M310.104,-415C331.848,-415 357.257,-415 380.621,-415"/>
<polygon fill="midnightblue" stroke="midnightblue" points="380.841,-418.5 390.841,-415 380.841,-411.5 380.841,-418.5"/>
</g>
<!-- Node21 -->
<g id="node21" class="node"><title>Node21</title>
<g id="a_node21"><a xlink:href="classMWGui_1_1WindowBase.html#a619c3722639059076d24ae157fdaa18c" target="_top" xlink:title="MWGui::WindowBase::\lcenter">
<polygon fill="white" stroke="black" points="395,-351 395,-381 515,-381 515,-351 395,-351"/>
<text text-anchor="start" x="403" y="-369" font-family="FreeSans" font-size="10.00">MWGui::WindowBase::</text>
<text text-anchor="middle" x="455" y="-358" font-family="FreeSans" font-size="10.00">center</text>
</a>
</g>
</g>
<!-- Node8&#45;&gt;Node21 -->
<g id="edge22" class="edge"><title>Node8&#45;&gt;Node21</title>
<path fill="none" stroke="midnightblue" d="M310.104,-401.611C333.15,-395.907 360.313,-389.185 384.795,-383.126"/>
<polygon fill="midnightblue" stroke="midnightblue" points="385.878,-386.464 394.744,-380.664 384.196,-379.669 385.878,-386.464"/>
</g>
<!-- Node9&#45;&gt;Node2 -->
<g id="edge9" class="edge"><title>Node9&#45;&gt;Node2</title>
<path fill="none" stroke="midnightblue" d="M517.223,-555.537C523.323,-558.231 529.071,-561.655 534,-566 566.626,-594.763 541.277,-624.339 570,-657 580.596,-669.049 595.519,-678.339 609.339,-685.082"/>
<polygon fill="midnightblue" stroke="midnightblue" points="608.114,-688.37 618.664,-689.345 611.025,-682.004 608.114,-688.37"/>
</g>
<!-- Node9&#45;&gt;Node5 -->
<g id="edge10" class="edge"><title>Node9&#45;&gt;Node5</title>
<path fill="none" stroke="midnightblue" d="M502.503,-555.584C513.05,-558.397 524.065,-561.857 534,-566 563.593,-578.339 594.69,-597.508 616.587,-612.186"/>
<polygon fill="midnightblue" stroke="midnightblue" points="614.85,-615.237 625.086,-617.968 618.787,-609.45 614.85,-615.237"/>
</g>
<!-- Node10 -->
<g id="node10" class="node"><title>Node10</title>
<g id="a_node10"><a xlink:href="classMWBase_1_1World.html#a95005e26dcb7b1f6dc906eb518b95762" target="_top" xlink:title="MWBase::World::getPlayerPtr">
<polygon fill="white" stroke="black" points="570.5,-536.5 570.5,-555.5 723.5,-555.5 723.5,-536.5 570.5,-536.5"/>
<text text-anchor="middle" x="647" y="-543.5" font-family="FreeSans" font-size="10.00">MWBase::World::getPlayerPtr</text>
</a>
</g>
</g>
<!-- Node9&#45;&gt;Node10 -->
<g id="edge11" class="edge"><title>Node9&#45;&gt;Node10</title>
<path fill="none" stroke="midnightblue" d="M522.186,-546C534.439,-546 547.399,-546 560.138,-546"/>
<polygon fill="midnightblue" stroke="midnightblue" points="560.289,-549.5 570.289,-546 560.289,-542.5 560.289,-549.5"/>
</g>
<!-- Node20 -->
<g id="node20" class="node"><title>Node20</title>
<g id="a_node20"><a xlink:href="classGui_1_1Box.html#ab2952be205e86631e83424193dd78d09" target="_top" xlink:title="Gui::Box::align">
<polygon fill="white" stroke="black" points="604.5,-405.5 604.5,-424.5 689.5,-424.5 689.5,-405.5 604.5,-405.5"/>
<text text-anchor="middle" x="647" y="-412.5" font-family="FreeSans" font-size="10.00">Gui::Box::align</text>
</a>
</g>
</g>
<!-- Node19&#45;&gt;Node20 -->
<g id="edge21" class="edge"><title>Node19&#45;&gt;Node20</title>
<path fill="none" stroke="midnightblue" d="M519.003,-415C543.469,-415 571.14,-415 594.393,-415"/>
<polygon fill="midnightblue" stroke="midnightblue" points="594.401,-418.5 604.401,-415 594.401,-411.5 594.401,-418.5"/>
</g>
<!-- Node22&#45;&gt;Node23 -->
<g id="edge24" class="edge"><title>Node22&#45;&gt;Node23</title>
<path fill="none" stroke="midnightblue" d="M334.539,-137.033C347.404,-136.384 360.75,-135.71 373.657,-135.058"/>
<polygon fill="midnightblue" stroke="midnightblue" points="374.086,-138.541 383.897,-134.541 373.733,-131.55 374.086,-138.541"/>
</g>
<!-- Node24 -->
<g id="node24" class="node"><title>Node24</title>
<g id="a_node24"><a xlink:href="gen__iconv_8cpp.html#a47a14d9c2f599fa2591017202978774d" target="_top" xlink:title="num">
<polygon fill="white" stroke="black" points="628,-121.5 628,-140.5 666,-140.5 666,-121.5 628,-121.5"/>
<text text-anchor="middle" x="647" y="-128.5" font-family="FreeSans" font-size="10.00">num</text>
</a>
</g>
</g>
<!-- Node23&#45;&gt;Node24 -->
<g id="edge25" class="edge"><title>Node23&#45;&gt;Node24</title>
<path fill="none" stroke="midnightblue" d="M526.209,-131C557.927,-131 593.61,-131 617.717,-131"/>
<polygon fill="midnightblue" stroke="midnightblue" points="617.923,-134.5 627.923,-131 617.923,-127.5 617.923,-134.5"/>
</g>
</g>
</svg>
