<?xml version="1.0" encoding="UTF-8" standalone="no"?>
<!DOCTYPE svg PUBLIC "-//W3C//DTD SVG 1.1//EN"
 "http://www.w3.org/Graphics/SVG/1.1/DTD/svg11.dtd">
<!-- Generated by graphviz version 2.36.0 (20140111.2315)
 -->
<!-- Title: Compiler::ScriptParser::reset Pages: 1 -->
<svg width="458pt" height="99pt"
 viewBox="0.00 0.00 458.00 99.00" xmlns="http://www.w3.org/2000/svg" xmlns:xlink="http://www.w3.org/1999/xlink">
<g id="graph0" class="graph" transform="scale(1 1) rotate(0) translate(4 95)">
<title>Compiler::ScriptParser::reset</title>
<polygon fill="white" stroke="none" points="-4,4 -4,-95 454,-95 454,4 -4,4"/>
<!-- Node1 -->
<g id="node1" class="node"><title>Node1</title>
<polygon fill="#bfbfbf" stroke="black" points="0.5,-39 0.5,-69 123.5,-69 123.5,-39 0.5,-39"/>
<text text-anchor="start" x="8.5" y="-57" font-family="FreeSans" font-size="10.00">Compiler::ScriptParser</text>
<text text-anchor="middle" x="62" y="-46" font-family="FreeSans" font-size="10.00">::reset</text>
</g>
<!-- Node2 -->
<g id="node2" class="node"><title>Node2</title>
<g id="a_node2"><a xlink:href="classCompiler_1_1LineParser.html#a72cba9b6168287df8e2fe90a5ace7898" target="_top" xlink:title="Reset parser to clean state. ">
<polygon fill="white" stroke="black" points="166.5,-61 166.5,-91 281.5,-91 281.5,-61 166.5,-61"/>
<text text-anchor="start" x="174.5" y="-79" font-family="FreeSans" font-size="10.00">Compiler::LineParser</text>
<text text-anchor="middle" x="224" y="-68" font-family="FreeSans" font-size="10.00">::reset</text>
</a>
</g>
</g>
<!-- Node1&#45;&gt;Node2 -->
<g id="edge1" class="edge"><title>Node1&#45;&gt;Node2</title>
<path fill="none" stroke="midnightblue" d="M123.946,-62.38C134.52,-63.8339 145.565,-65.3527 156.283,-66.8265"/>
<polygon fill="midnightblue" stroke="midnightblue" points="156.05,-70.3272 166.433,-68.2221 157.003,-63.3925 156.05,-70.3272"/>
</g>
<!-- Node3 -->
<g id="node3" class="node"><title>Node3</title>
<g id="a_node3"><a xlink:href="classCompiler_1_1Output.html#a506e82710573167c81d1e4833a84695e" target="_top" xlink:title="Compiler::Output::clear">
<polygon fill="white" stroke="black" points="160,-22.5 160,-41.5 288,-41.5 288,-22.5 160,-22.5"/>
<text text-anchor="middle" x="224" y="-29.5" font-family="FreeSans" font-size="10.00">Compiler::Output::clear</text>
</a>
</g>
</g>
<!-- Node1&#45;&gt;Node3 -->
<g id="edge2" class="edge"><title>Node1&#45;&gt;Node3</title>
<path fill="none" stroke="midnightblue" d="M123.946,-45.62C132.388,-44.4592 141.13,-43.2571 149.767,-42.0695"/>
<polygon fill="midnightblue" stroke="midnightblue" points="150.403,-45.5151 159.833,-40.6855 149.449,-38.5804 150.403,-45.5151"/>
</g>
<!-- Node4 -->
<g id="node4" class="node"><title>Node4</title>
<g id="a_node4"><a xlink:href="classCompiler_1_1Literals.html#aeca20aa239406830437c0dcaa22a5fcb" target="_top" xlink:title="remove all literals. ">
<polygon fill="white" stroke="black" points="337,-39 337,-69 437,-69 437,-39 337,-39"/>
<text text-anchor="start" x="345" y="-57" font-family="FreeSans" font-size="10.00">Compiler::Literals</text>
<text text-anchor="middle" x="387" y="-46" font-family="FreeSans" font-size="10.00">::clear</text>
</a>
</g>
</g>
<!-- Node3&#45;&gt;Node4 -->
<g id="edge3" class="edge"><title>Node3&#45;&gt;Node4</title>
<path fill="none" stroke="midnightblue" d="M288.169,-40.6318C300.96,-42.3796 314.363,-44.2111 327.003,-45.9383"/>
<polygon fill="midnightblue" stroke="midnightblue" points="326.568,-49.4113 336.95,-47.2975 327.516,-42.4758 326.568,-49.4113"/>
</g>
<!-- Node5 -->
<g id="node5" class="node"><title>Node5</title>
<g id="a_node5"><a xlink:href="classCompiler_1_1Locals.html#a4b4c058a373c9fd419c6be8084783f11" target="_top" xlink:title="remove all declarations. ">
<polygon fill="white" stroke="black" points="324.5,-0.5 324.5,-19.5 449.5,-19.5 449.5,-0.5 324.5,-0.5"/>
<text text-anchor="middle" x="387" y="-7.5" font-family="FreeSans" font-size="10.00">Compiler::Locals::clear</text>
</a>
</g>
</g>
<!-- Node3&#45;&gt;Node5 -->
<g id="edge4" class="edge"><title>Node3&#45;&gt;Node5</title>
<path fill="none" stroke="midnightblue" d="M288.169,-23.3682C296.717,-22.2001 305.539,-20.9946 314.224,-19.8079"/>
<polygon fill="midnightblue" stroke="midnightblue" points="314.897,-23.2485 324.331,-18.4268 313.95,-16.313 314.897,-23.2485"/>
</g>
</g>
</svg>
