<?xml version="1.0" encoding="UTF-8" standalone="no"?>
<!DOCTYPE svg PUBLIC "-//W3C//DTD SVG 1.1//EN"
 "http://www.w3.org/Graphics/SVG/1.1/DTD/svg11.dtd">
<!-- Generated by graphviz version 2.36.0 (20140111.2315)
 -->
<!-- Title: CSMWorld::BodyPartRefIdAdapter::getNestedRowsCount Pages: 1 -->
<svg width="342pt" height="77pt"
 viewBox="0.00 0.00 342.00 77.00" xmlns="http://www.w3.org/2000/svg" xmlns:xlink="http://www.w3.org/1999/xlink">
<g id="graph0" class="graph" transform="scale(1 1) rotate(0) translate(4 73)">
<title>CSMWorld::BodyPartRefIdAdapter::getNestedRowsCount</title>
<polygon fill="white" stroke="none" points="-4,4 -4,-73 338,-73 338,4 -4,4"/>
<!-- Node1 -->
<g id="node1" class="node"><title>Node1</title>
<polygon fill="#bfbfbf" stroke="black" points="0.5,-17 0.5,-47 173.5,-47 173.5,-17 0.5,-17"/>
<text text-anchor="start" x="8.5" y="-35" font-family="FreeSans" font-size="10.00">CSMWorld::BodyPartRefIdAdapter</text>
<text text-anchor="middle" x="87" y="-24" font-family="FreeSans" font-size="10.00">::getNestedRowsCount</text>
</g>
<!-- Node2 -->
<g id="node2" class="node"><title>Node2</title>
<g id="a_node2"><a xlink:href="classCSMWorld_1_1RefIdData.html#a626cfa90f6654bff1de66058c2103ce0" target="_top" xlink:title="CSMWorld::RefIdData\l::getRecord">
<polygon fill="white" stroke="black" points="214,-39 214,-69 330,-69 330,-39 214,-39"/>
<text text-anchor="start" x="222" y="-57" font-family="FreeSans" font-size="10.00">CSMWorld::RefIdData</text>
<text text-anchor="middle" x="272" y="-46" font-family="FreeSans" font-size="10.00">::getRecord</text>
</a>
</g>
</g>
<!-- Node1&#45;&gt;Node2 -->
<g id="edge1" class="edge"><title>Node1&#45;&gt;Node2</title>
<path fill="none" stroke="midnightblue" d="M173.606,-42.2915C183.755,-43.5115 194.001,-44.7433 203.842,-45.9264"/>
<polygon fill="midnightblue" stroke="midnightblue" points="203.583,-49.4204 213.93,-47.1391 204.419,-42.4704 203.583,-49.4204"/>
</g>
<!-- Node3 -->
<g id="node3" class="node"><title>Node3</title>
<g id="a_node3"><a xlink:href="structCSMWorld_1_1Record.html#a405cc96a8dfcbde494e58db281b827b3" target="_top" xlink:title="Throws an exception, if the record is deleted. ">
<polygon fill="white" stroke="black" points="210,-0.5 210,-19.5 334,-19.5 334,-0.5 210,-0.5"/>
<text text-anchor="middle" x="272" y="-7.5" font-family="FreeSans" font-size="10.00">CSMWorld::Record::get</text>
</a>
</g>
</g>
<!-- Node1&#45;&gt;Node3 -->
<g id="edge2" class="edge"><title>Node1&#45;&gt;Node3</title>
<path fill="none" stroke="midnightblue" d="M173.606,-21.7085C182.432,-20.6476 191.331,-19.5777 199.973,-18.5388"/>
<polygon fill="midnightblue" stroke="midnightblue" points="200.469,-22.0044 209.98,-17.3357 199.634,-15.0544 200.469,-22.0044"/>
</g>
</g>
</svg>
