<?xml version="1.0" encoding="UTF-8" standalone="no"?>
<!DOCTYPE svg PUBLIC "-//W3C//DTD SVG 1.1//EN"
 "http://www.w3.org/Graphics/SVG/1.1/DTD/svg11.dtd">
<!-- Generated by graphviz version 2.36.0 (20140111.2315)
 -->
<!-- Title: MWMechanics::ActiveSpells::clear Pages: 1 -->
<svg width="652pt" height="38pt"
 viewBox="0.00 0.00 652.00 38.00" xmlns="http://www.w3.org/2000/svg" xmlns:xlink="http://www.w3.org/1999/xlink">
<g id="graph0" class="graph" transform="scale(1 1) rotate(0) translate(4 34)">
<title>MWMechanics::ActiveSpells::clear</title>
<polygon fill="white" stroke="none" points="-4,4 -4,-34 648,-34 648,4 -4,4"/>
<!-- Node1 -->
<g id="node1" class="node"><title>Node1</title>
<polygon fill="#bfbfbf" stroke="black" points="0,-0 0,-30 138,-30 138,-0 0,-0"/>
<text text-anchor="start" x="8" y="-18" font-family="FreeSans" font-size="10.00">MWMechanics::ActiveSpells</text>
<text text-anchor="middle" x="69" y="-7" font-family="FreeSans" font-size="10.00">::clear</text>
</g>
<!-- Node2 -->
<g id="node2" class="node"><title>Node2</title>
<g id="a_node2"><a xlink:href="classMWMechanics_1_1Actors.html#a43831198b7ba76efc6e134986d9205e2" target="_top" xlink:title="MWMechanics::Actors\l::killDeadActors">
<polygon fill="white" stroke="black" points="174.5,-0 174.5,-30 287.5,-30 287.5,-0 174.5,-0"/>
<text text-anchor="start" x="182.5" y="-18" font-family="FreeSans" font-size="10.00">MWMechanics::Actors</text>
<text text-anchor="middle" x="231" y="-7" font-family="FreeSans" font-size="10.00">::killDeadActors</text>
</a>
</g>
</g>
<!-- Node1&#45;&gt;Node2 -->
<g id="edge1" class="edge"><title>Node1&#45;&gt;Node2</title>
<path fill="none" stroke="midnightblue" d="M148.556,-15C157.307,-15 166.081,-15 174.459,-15"/>
<polygon fill="midnightblue" stroke="midnightblue" points="148.319,-11.5001 138.319,-15 148.318,-18.5001 148.319,-11.5001"/>
</g>
<!-- Node3 -->
<g id="node3" class="node"><title>Node3</title>
<g id="a_node3"><a xlink:href="classMWMechanics_1_1Actors.html#a1588180bba8597286a1db1389cee106e" target="_top" xlink:title="Update actor stats and store desired velocity vectors in movement. ">
<polygon fill="white" stroke="black" points="324.5,-0 324.5,-30 437.5,-30 437.5,-0 324.5,-0"/>
<text text-anchor="start" x="332.5" y="-18" font-family="FreeSans" font-size="10.00">MWMechanics::Actors</text>
<text text-anchor="middle" x="381" y="-7" font-family="FreeSans" font-size="10.00">::update</text>
</a>
</g>
</g>
<!-- Node2&#45;&gt;Node3 -->
<g id="edge2" class="edge"><title>Node2&#45;&gt;Node3</title>
<path fill="none" stroke="midnightblue" d="M297.768,-15C306.576,-15 315.542,-15 324.158,-15"/>
<polygon fill="midnightblue" stroke="midnightblue" points="297.531,-11.5001 287.531,-15 297.531,-18.5001 297.531,-11.5001"/>
</g>
<!-- Node4 -->
<g id="node4" class="node"><title>Node4</title>
<g id="a_node4"><a xlink:href="classMWMechanics_1_1MechanicsManager.html#acf3c8c25fff52b890d0d6ced4b456459" target="_top" xlink:title="MWMechanics::MechanicsManager\l::update">
<polygon fill="white" stroke="black" points="474.5,-0 474.5,-30 643.5,-30 643.5,-0 474.5,-0"/>
<text text-anchor="start" x="482.5" y="-18" font-family="FreeSans" font-size="10.00">MWMechanics::MechanicsManager</text>
<text text-anchor="middle" x="559" y="-7" font-family="FreeSans" font-size="10.00">::update</text>
</a>
</g>
</g>
<!-- Node3&#45;&gt;Node4 -->
<g id="edge3" class="edge"><title>Node3&#45;&gt;Node4</title>
<path fill="none" stroke="midnightblue" d="M447.731,-15C456.428,-15 465.435,-15 474.381,-15"/>
<polygon fill="midnightblue" stroke="midnightblue" points="447.688,-11.5001 437.688,-15 447.687,-18.5001 447.688,-11.5001"/>
</g>
</g>
</svg>
