<?xml version="1.0" encoding="UTF-8" standalone="no"?>
<!DOCTYPE svg PUBLIC "-//W3C//DTD SVG 1.1//EN"
 "http://www.w3.org/Graphics/SVG/1.1/DTD/svg11.dtd">
<!-- Generated by graphviz version 2.36.0 (20140111.2315)
 -->
<!-- Title: MWWorld::World::positionToIndex Pages: 1 -->
<svg width="1146pt" height="203pt"
 viewBox="0.00 0.00 1146.00 203.00" xmlns="http://www.w3.org/2000/svg" xmlns:xlink="http://www.w3.org/1999/xlink">
<g id="graph0" class="graph" transform="scale(1 1) rotate(0) translate(4 199)">
<title>MWWorld::World::positionToIndex</title>
<polygon fill="white" stroke="none" points="-4,4 -4,-199 1142,-199 1142,4 -4,4"/>
<!-- Node1 -->
<g id="node1" class="node"><title>Node1</title>
<polygon fill="#bfbfbf" stroke="black" points="0,-94 0,-124 134,-124 134,-94 0,-94"/>
<text text-anchor="start" x="8" y="-112" font-family="FreeSans" font-size="10.00">MWWorld::World::position</text>
<text text-anchor="middle" x="67" y="-101" font-family="FreeSans" font-size="10.00">ToIndex</text>
</g>
<!-- Node2 -->
<g id="node2" class="node"><title>Node2</title>
<g id="a_node2"><a xlink:href="classMWWorld_1_1World.html#a9ce05309d0132991f266ad1aa369fb0c" target="_top" xlink:title="MWWorld::World::moveObjectImp">
<polygon fill="white" stroke="black" points="170,-99.5 170,-118.5 342,-118.5 342,-99.5 170,-99.5"/>
<text text-anchor="middle" x="256" y="-106.5" font-family="FreeSans" font-size="10.00">MWWorld::World::moveObjectImp</text>
</a>
</g>
</g>
<!-- Node1&#45;&gt;Node2 -->
<g id="edge1" class="edge"><title>Node1&#45;&gt;Node2</title>
<path fill="none" stroke="midnightblue" d="M144.348,-109C152.769,-109 161.381,-109 169.899,-109"/>
<polygon fill="midnightblue" stroke="midnightblue" points="144.192,-105.5 134.192,-109 144.192,-112.5 144.192,-105.5"/>
</g>
<!-- Node8 -->
<g id="node8" class="node"><title>Node8</title>
<g id="a_node8"><a xlink:href="classMWWorld_1_1World.html#a98389839846b32c3a135eceba99aed17" target="_top" xlink:title="MWWorld::World::copyObject\lToCell">
<polygon fill="white" stroke="black" points="575.5,-50 575.5,-80 724.5,-80 724.5,-50 575.5,-50"/>
<text text-anchor="start" x="583.5" y="-68" font-family="FreeSans" font-size="10.00">MWWorld::World::copyObject</text>
<text text-anchor="middle" x="650" y="-57" font-family="FreeSans" font-size="10.00">ToCell</text>
</a>
</g>
</g>
<!-- Node1&#45;&gt;Node8 -->
<g id="edge15" class="edge"><title>Node1&#45;&gt;Node8</title>
<path fill="none" stroke="midnightblue" d="M144.294,-93.6563C152.94,-92.2547 161.643,-90.992 170,-90 312.851,-73.0426 481.027,-67.587 575.3,-65.832"/>
<polygon fill="midnightblue" stroke="midnightblue" points="143.475,-90.2448 134.196,-95.3575 144.638,-97.1476 143.475,-90.2448"/>
</g>
<!-- Node14 -->
<g id="node14" class="node"><title>Node14</title>
<g id="a_node14"><a xlink:href="classMWWorld_1_1World.html#a583409d11b952e2ffef32b6abfa99520" target="_top" xlink:title="MWWorld::World::findInterior\lPosition">
<polygon fill="white" stroke="black" points="182.5,-154 182.5,-184 329.5,-184 329.5,-154 182.5,-154"/>
<text text-anchor="start" x="190.5" y="-172" font-family="FreeSans" font-size="10.00">MWWorld::World::findInterior</text>
<text text-anchor="middle" x="256" y="-161" font-family="FreeSans" font-size="10.00">Position</text>
</a>
</g>
</g>
<!-- Node1&#45;&gt;Node14 -->
<g id="edge16" class="edge"><title>Node1&#45;&gt;Node14</title>
<path fill="none" stroke="midnightblue" d="M124.78,-127.218C151.451,-135.776 182.862,-145.854 208.151,-153.968"/>
<polygon fill="midnightblue" stroke="midnightblue" points="125.779,-123.863 115.188,-124.141 123.641,-130.528 125.779,-123.863"/>
</g>
<!-- Node3 -->
<g id="node3" class="node"><title>Node3</title>
<g id="a_node3"><a xlink:href="classMWWorld_1_1World.html#a39be39c22af17293f5fa5c464f2d765f" target="_top" xlink:title="MWWorld::World::moveObject">
<polygon fill="white" stroke="black" points="378,-99.5 378,-118.5 532,-118.5 532,-99.5 378,-99.5"/>
<text text-anchor="middle" x="455" y="-106.5" font-family="FreeSans" font-size="10.00">MWWorld::World::moveObject</text>
</a>
</g>
</g>
<!-- Node2&#45;&gt;Node3 -->
<g id="edge2" class="edge"><title>Node2&#45;&gt;Node3</title>
<path fill="none" stroke="midnightblue" d="M352.31,-102.253C360.896,-102.236 369.514,-102.288 377.903,-102.408"/>
<polygon fill="midnightblue" stroke="midnightblue" points="352.243,-98.7533 342.261,-102.304 352.279,-105.753 352.243,-98.7533"/>
</g>
<!-- Node11 -->
<g id="node11" class="node"><title>Node11</title>
<g id="a_node11"><a xlink:href="classMWWorld_1_1World.html#a2f5d290bb1dd1000c604b0bd488567c7" target="_top" xlink:title="Run physics simulation and modify world accordingly. ">
<polygon fill="white" stroke="black" points="383.5,-137.5 383.5,-156.5 526.5,-156.5 526.5,-137.5 383.5,-137.5"/>
<text text-anchor="middle" x="455" y="-144.5" font-family="FreeSans" font-size="10.00">MWWorld::World::doPhysics</text>
</a>
</g>
</g>
<!-- Node2&#45;&gt;Node11 -->
<g id="edge12" class="edge"><title>Node2&#45;&gt;Node11</title>
<path fill="none" stroke="midnightblue" d="M316.564,-120.489C344.672,-125.911 377.822,-132.306 404.523,-137.456"/>
<polygon fill="midnightblue" stroke="midnightblue" points="316.939,-116.997 306.457,-118.54 315.613,-123.871 316.939,-116.997"/>
</g>
<!-- Node3&#45;&gt;Node2 -->
<g id="edge3" class="edge"><title>Node3&#45;&gt;Node2</title>
<path fill="none" stroke="midnightblue" d="M367.687,-115.704C359.249,-115.768 350.689,-115.765 342.261,-115.696"/>
<polygon fill="midnightblue" stroke="midnightblue" points="367.942,-119.201 377.903,-115.592 367.865,-112.202 367.942,-119.201"/>
</g>
<!-- Node4 -->
<g id="node4" class="node"><title>Node4</title>
<g id="a_node4"><a xlink:href="classMWWorld_1_1World.html#a3496b266fb2b1711215f98d0897a5387" target="_top" xlink:title="MWWorld::World::adjustPosition">
<polygon fill="white" stroke="black" points="568.5,-99.5 568.5,-118.5 731.5,-118.5 731.5,-99.5 568.5,-99.5"/>
<text text-anchor="middle" x="650" y="-106.5" font-family="FreeSans" font-size="10.00">MWWorld::World::adjustPosition</text>
</a>
</g>
</g>
<!-- Node3&#45;&gt;Node4 -->
<g id="edge4" class="edge"><title>Node3&#45;&gt;Node4</title>
<path fill="none" stroke="midnightblue" d="M542.146,-109C550.846,-109 559.66,-109 568.3,-109"/>
<polygon fill="midnightblue" stroke="midnightblue" points="542.002,-105.5 532.002,-109 542.002,-112.5 542.002,-105.5"/>
</g>
<!-- Node3&#45;&gt;Node8 -->
<g id="edge8" class="edge"><title>Node3&#45;&gt;Node8</title>
<path fill="none" stroke="midnightblue" d="M507.817,-97.1868C530.906,-91.9231 558.374,-85.6609 582.918,-80.0654"/>
<polygon fill="midnightblue" stroke="midnightblue" points="506.85,-93.8174 497.878,-99.4527 508.406,-100.642 506.85,-93.8174"/>
</g>
<!-- Node5 -->
<g id="node5" class="node"><title>Node5</title>
<g id="a_node5"><a xlink:href="classMWWorld_1_1World.html#a33b8441f680734ed2de7679bc614d172" target="_top" xlink:title="MWWorld::World::startNewGame">
<polygon fill="white" stroke="black" points="768,-175.5 768,-194.5 936,-194.5 936,-175.5 768,-175.5"/>
<text text-anchor="middle" x="852" y="-182.5" font-family="FreeSans" font-size="10.00">MWWorld::World::startNewGame</text>
</a>
</g>
</g>
<!-- Node4&#45;&gt;Node5 -->
<g id="edge5" class="edge"><title>Node4&#45;&gt;Node5</title>
<path fill="none" stroke="midnightblue" d="M719.636,-122.026C723.929,-123.773 728.09,-125.754 732,-128 752.173,-139.588 747.796,-154.466 768,-166 774.804,-169.884 782.348,-172.975 790.035,-175.433"/>
<polygon fill="midnightblue" stroke="midnightblue" points="720.669,-118.678 710.075,-118.564 718.286,-125.26 720.669,-118.678"/>
</g>
<!-- Node6 -->
<g id="node6" class="node"><title>Node6</title>
<g id="a_node6"><a xlink:href="classMWWorld_1_1World.html#ad3057a6db354934fee9c8d2f1e4b4272" target="_top" xlink:title="MWWorld::World::safePlace\lObject">
<polygon fill="white" stroke="black" points="781,-88 781,-118 923,-118 923,-88 781,-88"/>
<text text-anchor="start" x="789" y="-106" font-family="FreeSans" font-size="10.00">MWWorld::World::safePlace</text>
<text text-anchor="middle" x="852" y="-95" font-family="FreeSans" font-size="10.00">Object</text>
</a>
</g>
</g>
<!-- Node4&#45;&gt;Node6 -->
<g id="edge6" class="edge"><title>Node4&#45;&gt;Node6</title>
<path fill="none" stroke="midnightblue" d="M742.139,-106.266C755.142,-105.876 768.346,-105.48 780.863,-105.104"/>
<polygon fill="midnightblue" stroke="midnightblue" points="741.662,-102.778 731.771,-106.577 741.872,-109.775 741.662,-102.778"/>
</g>
<!-- Node7 -->
<g id="node7" class="node"><title>Node7</title>
<g id="a_node7"><a xlink:href="classMWWorld_1_1World.html#a5046f5c4857ab703f0165c3077ce4df8" target="_top" xlink:title="Spawn a random creature from a levelled list next to the player. ">
<polygon fill="white" stroke="black" points="972,-88 972,-118 1138,-118 1138,-88 972,-88"/>
<text text-anchor="start" x="980" y="-106" font-family="FreeSans" font-size="10.00">MWWorld::World::spawnRandom</text>
<text text-anchor="middle" x="1055" y="-95" font-family="FreeSans" font-size="10.00">Creature</text>
</a>
</g>
</g>
<!-- Node6&#45;&gt;Node7 -->
<g id="edge7" class="edge"><title>Node6&#45;&gt;Node7</title>
<path fill="none" stroke="midnightblue" d="M933.114,-103C945.846,-103 959.034,-103 971.812,-103"/>
<polygon fill="midnightblue" stroke="midnightblue" points="933.018,-99.5001 923.018,-103 933.018,-106.5 933.018,-99.5001"/>
</g>
<!-- Node8&#45;&gt;Node6 -->
<g id="edge10" class="edge"><title>Node8&#45;&gt;Node6</title>
<path fill="none" stroke="midnightblue" d="M734.635,-80.8907C750.016,-83.813 765.927,-86.8362 780.86,-89.6735"/>
<polygon fill="midnightblue" stroke="midnightblue" points="735.098,-77.4161 724.621,-78.9879 733.791,-84.2931 735.098,-77.4161"/>
</g>
<!-- Node9 -->
<g id="node9" class="node"><title>Node9</title>
<g id="a_node9"><a xlink:href="classMWWorld_1_1World.html#a114373a37945c0b985ee8384be5fad31" target="_top" xlink:title="Place an object. Makes a copy of the Ptr. ">
<polygon fill="white" stroke="black" points="776,-49.5 776,-68.5 928,-68.5 928,-49.5 776,-49.5"/>
<text text-anchor="middle" x="852" y="-56.5" font-family="FreeSans" font-size="10.00">MWWorld::World::placeObject</text>
</a>
</g>
</g>
<!-- Node8&#45;&gt;Node9 -->
<g id="edge9" class="edge"><title>Node8&#45;&gt;Node9</title>
<path fill="none" stroke="midnightblue" d="M734.915,-62.4825C748.503,-62.0749 762.499,-61.655 775.862,-61.2542"/>
<polygon fill="midnightblue" stroke="midnightblue" points="734.511,-58.993 724.621,-62.7914 734.721,-65.9898 734.511,-58.993"/>
</g>
<!-- Node10 -->
<g id="node10" class="node"><title>Node10</title>
<g id="a_node10"><a xlink:href="classMWWorld_1_1World.html#a833c721c49b1292584f95e1d0904e493" target="_top" xlink:title="MWWorld::World::dropObject\lOnGround">
<polygon fill="white" stroke="black" points="777.5,-0 777.5,-30 926.5,-30 926.5,-0 777.5,-0"/>
<text text-anchor="start" x="785.5" y="-18" font-family="FreeSans" font-size="10.00">MWWorld::World::dropObject</text>
<text text-anchor="middle" x="852" y="-7" font-family="FreeSans" font-size="10.00">OnGround</text>
</a>
</g>
</g>
<!-- Node8&#45;&gt;Node10 -->
<g id="edge11" class="edge"><title>Node8&#45;&gt;Node10</title>
<path fill="none" stroke="midnightblue" d="M720.936,-47.516C743.68,-41.8299 768.712,-35.572 790.69,-30.0774"/>
<polygon fill="midnightblue" stroke="midnightblue" points="719.859,-44.1774 711.007,-49.9984 721.557,-50.9684 719.859,-44.1774"/>
</g>
<!-- Node12 -->
<g id="node12" class="node"><title>Node12</title>
<g id="a_node12"><a xlink:href="classMWWorld_1_1World.html#a6488529748fc772e6e9b1e23a4484f74" target="_top" xlink:title="MWWorld::World::update">
<polygon fill="white" stroke="black" points="585,-137.5 585,-156.5 715,-156.5 715,-137.5 585,-137.5"/>
<text text-anchor="middle" x="650" y="-144.5" font-family="FreeSans" font-size="10.00">MWWorld::World::update</text>
</a>
</g>
</g>
<!-- Node11&#45;&gt;Node12 -->
<g id="edge13" class="edge"><title>Node11&#45;&gt;Node12</title>
<path fill="none" stroke="midnightblue" d="M537.156,-147C553.115,-147 569.648,-147 584.95,-147"/>
<polygon fill="midnightblue" stroke="midnightblue" points="536.77,-143.5 526.77,-147 536.77,-150.5 536.77,-143.5"/>
</g>
<!-- Node13 -->
<g id="node13" class="node"><title>Node13</title>
<g id="a_node13"><a xlink:href="classMWWorld_1_1World.html#a7d0ab2f8828263def8994634d3aee770" target="_top" xlink:title="MWWorld::World::createRecord">
<polygon fill="white" stroke="black" points="772.5,-137.5 772.5,-156.5 931.5,-156.5 931.5,-137.5 772.5,-137.5"/>
<text text-anchor="middle" x="852" y="-144.5" font-family="FreeSans" font-size="10.00">MWWorld::World::createRecord</text>
</a>
</g>
</g>
<!-- Node12&#45;&gt;Node13 -->
<g id="edge14" class="edge"><title>Node12&#45;&gt;Node13</title>
<path fill="none" stroke="midnightblue" d="M725.498,-147C740.732,-147 756.811,-147 772.19,-147"/>
<polygon fill="midnightblue" stroke="midnightblue" points="725.107,-143.5 715.107,-147 725.106,-150.5 725.107,-143.5"/>
</g>
<!-- Node14&#45;&gt;Node5 -->
<g id="edge17" class="edge"><title>Node14&#45;&gt;Node5</title>
<path fill="none" stroke="midnightblue" d="M339.871,-171.232C453.013,-174.28 654.672,-179.712 767.922,-182.762"/>
<polygon fill="midnightblue" stroke="midnightblue" points="339.63,-167.725 329.539,-170.954 339.441,-174.722 339.63,-167.725"/>
</g>
</g>
</svg>
