<?xml version="1.0" encoding="UTF-8" standalone="no"?>
<!DOCTYPE svg PUBLIC "-//W3C//DTD SVG 1.1//EN"
 "http://www.w3.org/Graphics/SVG/1.1/DTD/svg11.dtd">
<!-- Generated by graphviz version 2.36.0 (20140111.2315)
 -->
<!-- Title: MWScript::Cell::OpGetWaterLevel::execute Pages: 1 -->
<svg width="628pt" height="335pt"
 viewBox="0.00 0.00 628.00 335.00" xmlns="http://www.w3.org/2000/svg" xmlns:xlink="http://www.w3.org/1999/xlink">
<g id="graph0" class="graph" transform="scale(1 1) rotate(0) translate(4 331)">
<title>MWScript::Cell::OpGetWaterLevel::execute</title>
<polygon fill="white" stroke="none" points="-4,4 -4,-331 624,-331 624,4 -4,4"/>
<!-- Node1 -->
<g id="node1" class="node"><title>Node1</title>
<polygon fill="#bfbfbf" stroke="black" points="0.5,-132 0.5,-162 139.5,-162 139.5,-132 0.5,-132"/>
<text text-anchor="start" x="8.5" y="-150" font-family="FreeSans" font-size="10.00">MWScript::Cell::OpGetWater</text>
<text text-anchor="middle" x="70" y="-139" font-family="FreeSans" font-size="10.00">Level::execute</text>
</g>
<!-- Node2 -->
<g id="node2" class="node"><title>Node2</title>
<g id="a_node2"><a xlink:href="namespaceMWMechanics.html#a90645fe67f9b8b658452cd004d2cbb65" target="_top" xlink:title="MWMechanics::getPlayer">
<polygon fill="white" stroke="black" points="176.5,-263.5 176.5,-282.5 301.5,-282.5 301.5,-263.5 176.5,-263.5"/>
<text text-anchor="middle" x="239" y="-270.5" font-family="FreeSans" font-size="10.00">MWMechanics::getPlayer</text>
</a>
</g>
</g>
<!-- Node1&#45;&gt;Node2 -->
<g id="edge1" class="edge"><title>Node1&#45;&gt;Node2</title>
<path fill="none" stroke="midnightblue" d="M82.1803,-162.263C99.7098,-185.153 135.836,-228.315 176,-253 180.119,-255.532 184.592,-257.776 189.184,-259.757"/>
<polygon fill="midnightblue" stroke="midnightblue" points="188.118,-263.098 198.706,-263.464 190.658,-256.575 188.118,-263.098"/>
</g>
<!-- Node6 -->
<g id="node6" class="node"><title>Node6</title>
<g id="a_node6"><a xlink:href="classInterpreter_1_1Runtime.html#a891b8bca22d1cee61ff80f9ce7939bde" target="_top" xlink:title="push data on stack ">
<polygon fill="white" stroke="black" points="188.5,-214 188.5,-244 289.5,-244 289.5,-214 188.5,-214"/>
<text text-anchor="start" x="196.5" y="-232" font-family="FreeSans" font-size="10.00">Interpreter::Runtime</text>
<text text-anchor="middle" x="239" y="-221" font-family="FreeSans" font-size="10.00">::push</text>
</a>
</g>
</g>
<!-- Node1&#45;&gt;Node6 -->
<g id="edge5" class="edge"><title>Node1&#45;&gt;Node6</title>
<path fill="none" stroke="midnightblue" d="M96.8952,-162.133C117.89,-174.139 148.418,-191.004 176,-204 180.301,-206.027 184.814,-208.045 189.36,-210.005"/>
<polygon fill="midnightblue" stroke="midnightblue" points="188.106,-213.275 198.681,-213.933 190.825,-206.825 188.106,-213.275"/>
</g>
<!-- Node7 -->
<g id="node7" class="node"><title>Node7</title>
<g id="a_node7"><a xlink:href="classMWWorld_1_1Ptr.html#a7a006fb41119a0e944c7fe47dab928a1" target="_top" xlink:title="MWWorld::Ptr::getCell">
<polygon fill="white" stroke="black" points="184,-175.5 184,-194.5 294,-194.5 294,-175.5 184,-175.5"/>
<text text-anchor="middle" x="239" y="-182.5" font-family="FreeSans" font-size="10.00">MWWorld::Ptr::getCell</text>
</a>
</g>
</g>
<!-- Node1&#45;&gt;Node7 -->
<g id="edge6" class="edge"><title>Node1&#45;&gt;Node7</title>
<path fill="none" stroke="midnightblue" d="M137.003,-162.019C153.307,-165.728 170.542,-169.65 186.07,-173.184"/>
<polygon fill="midnightblue" stroke="midnightblue" points="185.473,-176.637 196,-175.443 187.026,-169.812 185.473,-176.637"/>
</g>
<!-- Node8 -->
<g id="node8" class="node"><title>Node8</title>
<g id="a_node8"><a xlink:href="classMWWorld_1_1CellStore.html#a0cf5ba632c9f67dc25d28e4bebd8c8f5" target="_top" xlink:title="MWWorld::CellStore\l::isExterior">
<polygon fill="white" stroke="black" points="358.5,-39 358.5,-69 461.5,-69 461.5,-39 358.5,-39"/>
<text text-anchor="start" x="366.5" y="-57" font-family="FreeSans" font-size="10.00">MWWorld::CellStore</text>
<text text-anchor="middle" x="410" y="-46" font-family="FreeSans" font-size="10.00">::isExterior</text>
</a>
</g>
</g>
<!-- Node1&#45;&gt;Node8 -->
<g id="edge7" class="edge"><title>Node1&#45;&gt;Node8</title>
<path fill="none" stroke="midnightblue" d="M139.642,-150.062C186.638,-150.012 249.676,-145.658 302,-127 333.462,-115.781 364.436,-93.0053 384.897,-75.8607"/>
<polygon fill="midnightblue" stroke="midnightblue" points="387.419,-78.3082 392.729,-69.1399 382.861,-72.9959 387.419,-78.3082"/>
</g>
<!-- Node10 -->
<g id="node10" class="node"><title>Node10</title>
<g id="a_node10"><a xlink:href="classMWWorld_1_1CellStore.html#a6b204d54fa4c8dc58ead29c86e2362ba" target="_top" xlink:title="MWWorld::CellStore\l::getCell">
<polygon fill="white" stroke="black" points="187.5,-88 187.5,-118 290.5,-118 290.5,-88 187.5,-88"/>
<text text-anchor="start" x="195.5" y="-106" font-family="FreeSans" font-size="10.00">MWWorld::CellStore</text>
<text text-anchor="middle" x="239" y="-95" font-family="FreeSans" font-size="10.00">::getCell</text>
</a>
</g>
</g>
<!-- Node1&#45;&gt;Node10 -->
<g id="edge9" class="edge"><title>Node1&#45;&gt;Node10</title>
<path fill="none" stroke="midnightblue" d="M128.005,-131.981C143.968,-127.775 161.372,-123.189 177.528,-118.933"/>
<polygon fill="midnightblue" stroke="midnightblue" points="178.624,-122.263 187.402,-116.331 176.841,-115.494 178.624,-122.263"/>
</g>
<!-- Node11 -->
<g id="node11" class="node"><title>Node11</title>
<g id="a_node11"><a xlink:href="structESM_1_1Cell.html#a397bd56f4fd345353910ef363811a97e" target="_top" xlink:title="ESM::Cell::hasWater">
<polygon fill="white" stroke="black" points="358,-0.5 358,-19.5 462,-19.5 462,-0.5 358,-0.5"/>
<text text-anchor="middle" x="410" y="-7.5" font-family="FreeSans" font-size="10.00">ESM::Cell::hasWater</text>
</a>
</g>
</g>
<!-- Node1&#45;&gt;Node11 -->
<g id="edge10" class="edge"><title>Node1&#45;&gt;Node11</title>
<path fill="none" stroke="midnightblue" d="M79.2805,-131.735C94.4901,-105.421 129.617,-52.1249 176,-29 229.577,-2.2883 298.77,-0.0511202 347.795,-2.95243"/>
<polygon fill="midnightblue" stroke="midnightblue" points="347.723,-6.45552 357.937,-3.64257 348.198,0.528331 347.723,-6.45552"/>
</g>
<!-- Node12 -->
<g id="node12" class="node"><title>Node12</title>
<g id="a_node12"><a xlink:href="classMWWorld_1_1CellStore.html#a4f0f115ba945ecb2c907bdbff615d99c" target="_top" xlink:title="MWWorld::CellStore\l::getWaterLevel">
<polygon fill="white" stroke="black" points="187.5,-39 187.5,-69 290.5,-69 290.5,-39 187.5,-39"/>
<text text-anchor="start" x="195.5" y="-57" font-family="FreeSans" font-size="10.00">MWWorld::CellStore</text>
<text text-anchor="middle" x="239" y="-46" font-family="FreeSans" font-size="10.00">::getWaterLevel</text>
</a>
</g>
</g>
<!-- Node1&#45;&gt;Node12 -->
<g id="edge12" class="edge"><title>Node1&#45;&gt;Node12</title>
<path fill="none" stroke="midnightblue" d="M91.1314,-131.906C111.711,-116.932 144.969,-93.9725 176,-78 179.271,-76.3162 182.689,-74.6797 186.166,-73.1047"/>
<polygon fill="midnightblue" stroke="midnightblue" points="187.66,-76.2718 195.449,-69.0893 184.881,-69.8471 187.66,-76.2718"/>
</g>
<!-- Node3 -->
<g id="node3" class="node"><title>Node3</title>
<g id="a_node3"><a xlink:href="classMWBase_1_1Environment.html#a73f12633762b049c03c80fe215873faa" target="_top" xlink:title="Return instance of this class. ">
<polygon fill="white" stroke="black" points="344.5,-307.5 344.5,-326.5 475.5,-326.5 475.5,-307.5 344.5,-307.5"/>
<text text-anchor="middle" x="410" y="-314.5" font-family="FreeSans" font-size="10.00">MWBase::Environment::get</text>
</a>
</g>
</g>
<!-- Node2&#45;&gt;Node3 -->
<g id="edge2" class="edge"><title>Node2&#45;&gt;Node3</title>
<path fill="none" stroke="midnightblue" d="M276.67,-282.547C301.806,-289.092 335.361,-297.828 362.392,-304.865"/>
<polygon fill="midnightblue" stroke="midnightblue" points="361.842,-308.339 372.401,-307.471 363.606,-301.565 361.842,-308.339"/>
</g>
<!-- Node4 -->
<g id="node4" class="node"><title>Node4</title>
<g id="a_node4"><a xlink:href="classMWBase_1_1Environment.html#ae14e166d8f5ff8629be119333d502660" target="_top" xlink:title="MWBase::Environment\l::getWorld">
<polygon fill="white" stroke="black" points="353.5,-258 353.5,-288 466.5,-288 466.5,-258 353.5,-258"/>
<text text-anchor="start" x="361.5" y="-276" font-family="FreeSans" font-size="10.00">MWBase::Environment</text>
<text text-anchor="middle" x="410" y="-265" font-family="FreeSans" font-size="10.00">::getWorld</text>
</a>
</g>
</g>
<!-- Node2&#45;&gt;Node4 -->
<g id="edge3" class="edge"><title>Node2&#45;&gt;Node4</title>
<path fill="none" stroke="midnightblue" d="M301.97,-273C315.407,-273 329.664,-273 343.242,-273"/>
<polygon fill="midnightblue" stroke="midnightblue" points="343.467,-276.5 353.467,-273 343.467,-269.5 343.467,-276.5"/>
</g>
<!-- Node5 -->
<g id="node5" class="node"><title>Node5</title>
<g id="a_node5"><a xlink:href="classMWBase_1_1World.html#a95005e26dcb7b1f6dc906eb518b95762" target="_top" xlink:title="MWBase::World::getPlayerPtr">
<polygon fill="white" stroke="black" points="338.5,-219.5 338.5,-238.5 481.5,-238.5 481.5,-219.5 338.5,-219.5"/>
<text text-anchor="middle" x="410" y="-226.5" font-family="FreeSans" font-size="10.00">MWBase::World::getPlayerPtr</text>
</a>
</g>
</g>
<!-- Node2&#45;&gt;Node5 -->
<g id="edge4" class="edge"><title>Node2&#45;&gt;Node5</title>
<path fill="none" stroke="midnightblue" d="M276.67,-263.453C301.806,-256.908 335.361,-248.172 362.392,-241.135"/>
<polygon fill="midnightblue" stroke="midnightblue" points="363.606,-244.435 372.401,-238.529 361.842,-237.661 363.606,-244.435"/>
</g>
<!-- Node9 -->
<g id="node9" class="node"><title>Node9</title>
<g id="a_node9"><a xlink:href="structESM_1_1Cell.html#a81fbb05c7c9f739f7d81504aabf7bb6b" target="_top" xlink:title="ESM::Cell::isExterior">
<polygon fill="white" stroke="black" points="518,-22.5 518,-41.5 620,-41.5 620,-22.5 518,-22.5"/>
<text text-anchor="middle" x="569" y="-29.5" font-family="FreeSans" font-size="10.00">ESM::Cell::isExterior</text>
</a>
</g>
</g>
<!-- Node8&#45;&gt;Node9 -->
<g id="edge8" class="edge"><title>Node8&#45;&gt;Node9</title>
<path fill="none" stroke="midnightblue" d="M461.54,-46.918C476.179,-44.8666 492.311,-42.6061 507.494,-40.4786"/>
<polygon fill="midnightblue" stroke="midnightblue" points="508.406,-43.8851 517.823,-39.0311 507.434,-36.9528 508.406,-43.8851"/>
</g>
<!-- Node11&#45;&gt;Node9 -->
<g id="edge11" class="edge"><title>Node11&#45;&gt;Node9</title>
<path fill="none" stroke="midnightblue" d="M462.408,-17.2036C476.867,-19.2298 492.725,-21.4519 507.655,-23.544"/>
<polygon fill="midnightblue" stroke="midnightblue" points="507.426,-27.046 517.815,-24.9677 508.397,-20.1138 507.426,-27.046"/>
</g>
<!-- Node12&#45;&gt;Node8 -->
<g id="edge13" class="edge"><title>Node12&#45;&gt;Node8</title>
<path fill="none" stroke="midnightblue" d="M290.706,-54C308.753,-54 329.263,-54 348.078,-54"/>
<polygon fill="midnightblue" stroke="midnightblue" points="348.33,-57.5001 358.33,-54 348.33,-50.5001 348.33,-57.5001"/>
</g>
</g>
</svg>
