<?xml version="1.0" encoding="UTF-8" standalone="no"?>
<!DOCTYPE svg PUBLIC "-//W3C//DTD SVG 1.1//EN"
 "http://www.w3.org/Graphics/SVG/1.1/DTD/svg11.dtd">
<!-- Generated by graphviz version 2.36.0 (20140111.2315)
 -->
<!-- Title: MWRender::LocalMap::interiorMapToWorldPosition Pages: 1 -->
<svg width="584pt" height="38pt"
 viewBox="0.00 0.00 584.00 38.00" xmlns="http://www.w3.org/2000/svg" xmlns:xlink="http://www.w3.org/1999/xlink">
<g id="graph0" class="graph" transform="scale(1 1) rotate(0) translate(4 34)">
<title>MWRender::LocalMap::interiorMapToWorldPosition</title>
<polygon fill="white" stroke="none" points="-4,4 -4,-34 580,-34 580,4 -4,4"/>
<!-- Node1 -->
<g id="node1" class="node"><title>Node1</title>
<polygon fill="#bfbfbf" stroke="black" points="0.5,-0 0.5,-30 149.5,-30 149.5,-0 0.5,-0"/>
<text text-anchor="start" x="8.5" y="-18" font-family="FreeSans" font-size="10.00">MWRender::LocalMap</text>
<text text-anchor="middle" x="75" y="-7" font-family="FreeSans" font-size="10.00">::interiorMapToWorldPosition</text>
</g>
<!-- Node2 -->
<g id="node2" class="node"><title>Node2</title>
<g id="a_node2"><a xlink:href="classMWGui_1_1MapWindow.html#a9dd7cbdd241e2ddd8b286ca12d68cd9d" target="_top" xlink:title="MWGui::MapWindow::onMapDouble\lClicked">
<polygon fill="white" stroke="black" points="186,-0 186,-30 368,-30 368,-0 186,-0"/>
<text text-anchor="start" x="194" y="-18" font-family="FreeSans" font-size="10.00">MWGui::MapWindow::onMapDouble</text>
<text text-anchor="middle" x="277" y="-7" font-family="FreeSans" font-size="10.00">Clicked</text>
</a>
</g>
</g>
<!-- Node1&#45;&gt;Node2 -->
<g id="edge1" class="edge"><title>Node1&#45;&gt;Node2</title>
<path fill="none" stroke="midnightblue" d="M159.691,-15C168.35,-15 177.175,-15 185.9,-15"/>
<polygon fill="midnightblue" stroke="midnightblue" points="159.621,-11.5001 149.621,-15 159.621,-18.5001 159.621,-11.5001"/>
</g>
<!-- Node3 -->
<g id="node3" class="node"><title>Node3</title>
<g id="a_node3"><a xlink:href="classMWGui_1_1MapWindow.html#a542c4155e0fa6e9e8d99bd67c3fb1855" target="_top" xlink:title="MWGui::MapWindow::MapWindow">
<polygon fill="white" stroke="black" points="404.5,-5.5 404.5,-24.5 575.5,-24.5 575.5,-5.5 404.5,-5.5"/>
<text text-anchor="middle" x="490" y="-12.5" font-family="FreeSans" font-size="10.00">MWGui::MapWindow::MapWindow</text>
</a>
</g>
</g>
<!-- Node2&#45;&gt;Node3 -->
<g id="edge2" class="edge"><title>Node2&#45;&gt;Node3</title>
<path fill="none" stroke="midnightblue" d="M378.258,-15C386.945,-15 395.68,-15 404.227,-15"/>
<polygon fill="midnightblue" stroke="midnightblue" points="378.095,-11.5001 368.095,-15 378.095,-18.5001 378.095,-11.5001"/>
</g>
</g>
</svg>
