<?xml version="1.0" encoding="UTF-8" standalone="no"?>
<!DOCTYPE svg PUBLIC "-//W3C//DTD SVG 1.1//EN"
 "http://www.w3.org/Graphics/SVG/1.1/DTD/svg11.dtd">
<!-- Generated by graphviz version 2.36.0 (20140111.2315)
 -->
<!-- Title: MWRender::Animation::getVelocity Pages: 1 -->
<svg width="416pt" height="157pt"
 viewBox="0.00 0.00 416.00 157.00" xmlns="http://www.w3.org/2000/svg" xmlns:xlink="http://www.w3.org/1999/xlink">
<g id="graph0" class="graph" transform="scale(1 1) rotate(0) translate(4 153)">
<title>MWRender::Animation::getVelocity</title>
<polygon fill="white" stroke="none" points="-4,4 -4,-153 412,-153 412,4 -4,4"/>
<!-- Node1 -->
<g id="node1" class="node"><title>Node1</title>
<polygon fill="#bfbfbf" stroke="black" points="0.5,-59 0.5,-89 113.5,-89 113.5,-59 0.5,-59"/>
<text text-anchor="start" x="8.5" y="-77" font-family="FreeSans" font-size="10.00">MWRender::Animation</text>
<text text-anchor="middle" x="57" y="-66" font-family="FreeSans" font-size="10.00">::getVelocity</text>
</g>
<!-- Node2 -->
<g id="node2" class="node"><title>Node2</title>
<g id="a_node2"><a xlink:href="namespaceanonymous__namespace_02animation_8cpp_03.html#a1621e3d167ededdfbe43af8640a8b3d2" target="_top" xlink:title="anonymous_namespace\l\{animation::cpp\}::findGroup\lStart">
<polygon fill="white" stroke="black" points="150.5,-107.5 150.5,-148.5 281.5,-148.5 281.5,-107.5 150.5,-107.5"/>
<text text-anchor="start" x="158.5" y="-136.5" font-family="FreeSans" font-size="10.00">anonymous_namespace</text>
<text text-anchor="start" x="158.5" y="-125.5" font-family="FreeSans" font-size="10.00">{animation::cpp}::findGroup</text>
<text text-anchor="middle" x="216" y="-114.5" font-family="FreeSans" font-size="10.00">Start</text>
</a>
</g>
</g>
<!-- Node1&#45;&gt;Node2 -->
<g id="edge1" class="edge"><title>Node1&#45;&gt;Node2</title>
<path fill="none" stroke="midnightblue" d="M101.733,-89.042C115.354,-93.7268 130.724,-99.0134 145.648,-104.146"/>
<polygon fill="midnightblue" stroke="midnightblue" points="144.772,-107.546 155.367,-107.489 147.049,-100.927 144.772,-107.546"/>
</g>
<!-- Node3 -->
<g id="node3" class="node"><title>Node3</title>
<g id="a_node3"><a xlink:href="classMisc_1_1StringUtils.html#a0f8cb0ac134191ba8417f74ab7dc4de6" target="_top" xlink:title="Misc::StringUtils::\lciEqual">
<polygon fill="white" stroke="black" points="171,-59 171,-89 261,-89 261,-59 171,-59"/>
<text text-anchor="start" x="179" y="-77" font-family="FreeSans" font-size="10.00">Misc::StringUtils::</text>
<text text-anchor="middle" x="216" y="-66" font-family="FreeSans" font-size="10.00">ciEqual</text>
</a>
</g>
</g>
<!-- Node1&#45;&gt;Node3 -->
<g id="edge2" class="edge"><title>Node1&#45;&gt;Node3</title>
<path fill="none" stroke="midnightblue" d="M113.794,-74C128.976,-74 145.397,-74 160.506,-74"/>
<polygon fill="midnightblue" stroke="midnightblue" points="160.725,-77.5001 170.725,-74 160.725,-70.5001 160.725,-77.5001"/>
</g>
<!-- Node5 -->
<g id="node5" class="node"><title>Node5</title>
<g id="a_node5"><a xlink:href="namespaceanonymous__namespace_02animation_8cpp_03.html#aee65bd9e38cba8e86715fd7323e203b8" target="_top" xlink:title="anonymous_namespace\l\{animation::cpp\}::calcAnim\lVelocity">
<polygon fill="white" stroke="black" points="151,0.5 151,-40.5 281,-40.5 281,0.5 151,0.5"/>
<text text-anchor="start" x="159" y="-28.5" font-family="FreeSans" font-size="10.00">anonymous_namespace</text>
<text text-anchor="start" x="159" y="-17.5" font-family="FreeSans" font-size="10.00">{animation::cpp}::calcAnim</text>
<text text-anchor="middle" x="216" y="-6.5" font-family="FreeSans" font-size="10.00">Velocity</text>
</a>
</g>
</g>
<!-- Node1&#45;&gt;Node5 -->
<g id="edge4" class="edge"><title>Node1&#45;&gt;Node5</title>
<path fill="none" stroke="midnightblue" d="M101.733,-58.958C115.354,-54.2732 130.724,-48.9866 145.648,-43.8537"/>
<polygon fill="midnightblue" stroke="midnightblue" points="147.049,-47.073 155.367,-40.5107 144.772,-40.4536 147.049,-47.073"/>
</g>
<!-- Node4 -->
<g id="node4" class="node"><title>Node4</title>
<g id="a_node4"><a xlink:href="classMisc_1_1StringUtils.html#a0759adb102842ee3bced227707eb6949" target="_top" xlink:title="Misc::StringUtils::\ltoLower">
<polygon fill="white" stroke="black" points="318,-59 318,-89 408,-89 408,-59 318,-59"/>
<text text-anchor="start" x="326" y="-77" font-family="FreeSans" font-size="10.00">Misc::StringUtils::</text>
<text text-anchor="middle" x="363" y="-66" font-family="FreeSans" font-size="10.00">toLower</text>
</a>
</g>
</g>
<!-- Node3&#45;&gt;Node4 -->
<g id="edge3" class="edge"><title>Node3&#45;&gt;Node4</title>
<path fill="none" stroke="midnightblue" d="M261.293,-74C275.909,-74 292.338,-74 307.619,-74"/>
<polygon fill="midnightblue" stroke="midnightblue" points="307.979,-77.5001 317.979,-74 307.979,-70.5001 307.979,-77.5001"/>
</g>
</g>
</svg>
