<?xml version="1.0" encoding="UTF-8" standalone="no"?>
<!DOCTYPE svg PUBLIC "-//W3C//DTD SVG 1.1//EN"
 "http://www.w3.org/Graphics/SVG/1.1/DTD/svg11.dtd">
<!-- Generated by graphviz version 2.36.0 (20140111.2315)
 -->
<!-- Title: CSMDoc::SaveWatcher Pages: 1 -->
<svg width="837pt" height="636pt"
 viewBox="0.00 0.00 837.00 636.00" xmlns="http://www.w3.org/2000/svg" xmlns:xlink="http://www.w3.org/1999/xlink">
<g id="graph0" class="graph" transform="scale(1 1) rotate(0) translate(4 632)">
<title>CSMDoc::SaveWatcher</title>
<polygon fill="white" stroke="none" points="-4,4 -4,-632 833,-632 833,4 -4,4"/>
<!-- Node1 -->
<g id="node1" class="node"><title>Node1</title>
<polygon fill="#bfbfbf" stroke="black" points="76,-1 76,-69 194,-69 194,-1 76,-1"/>
<text text-anchor="middle" x="135" y="-57" font-family="FreeSans" font-size="10.00">CSMDoc::SaveWatcher</text>
<polyline fill="none" stroke="black" points="76,-50 194,-50 "/>
<text text-anchor="middle" x="135" y="-38" font-family="FreeSans" font-size="10.00"> </text>
<polyline fill="none" stroke="black" points="76,-31 194,-31 "/>
<text text-anchor="start" x="84" y="-19" font-family="FreeSans" font-size="10.00">+ SaveWatcher()</text>
<text text-anchor="start" x="84" y="-8" font-family="FreeSans" font-size="10.00">&#45; saveDone()</text>
</g>
<!-- Node2 -->
<g id="node2" class="node"><title>Node2</title>
<g id="a_node2"><a xlink:href="classQObject.html" target="_top" xlink:title="{QObject\n||}">
<polygon fill="white" stroke="black" points="-0.5,-323.5 -0.5,-380.5 52.5,-380.5 52.5,-323.5 -0.5,-323.5"/>
<text text-anchor="middle" x="26" y="-368.5" font-family="FreeSans" font-size="10.00">QObject</text>
<polyline fill="none" stroke="black" points="-0.5,-361.5 52.5,-361.5 "/>
<text text-anchor="middle" x="26" y="-349.5" font-family="FreeSans" font-size="10.00"> </text>
<polyline fill="none" stroke="black" points="-0.5,-342.5 52.5,-342.5 "/>
<text text-anchor="middle" x="26" y="-330.5" font-family="FreeSans" font-size="10.00"> </text>
</a>
</g>
</g>
<!-- Node2&#45;&gt;Node1 -->
<g id="edge1" class="edge"><title>Node2&#45;&gt;Node1</title>
<path fill="none" stroke="midnightblue" d="M38.9616,-313.542C60.4471,-251.451 103.095,-128.204 123.543,-69.1094"/>
<polygon fill="none" stroke="midnightblue" points="35.5401,-312.727 35.5775,-323.322 42.1552,-315.016 35.5401,-312.727"/>
</g>
<!-- Node3 -->
<g id="node3" class="node"><title>Node3</title>
<g id="a_node3"><a xlink:href="classCSMDoc_1_1Runner.html" target="_top" xlink:title="{CSMDoc::Runner\n||+ Runner()\l+ ~Runner()\l+ start()\l+ stop()\l+ isRunning()\l+ configure()\l+ getLog()\l&#45; finished()\l&#45; readyReadStandardOutput()\l}">
<polygon fill="white" stroke="black" points="322,-118.5 322,-263.5 464,-263.5 464,-118.5 322,-118.5"/>
<text text-anchor="middle" x="393" y="-251.5" font-family="FreeSans" font-size="10.00">CSMDoc::Runner</text>
<polyline fill="none" stroke="black" points="322,-244.5 464,-244.5 "/>
<text text-anchor="middle" x="393" y="-232.5" font-family="FreeSans" font-size="10.00"> </text>
<polyline fill="none" stroke="black" points="322,-225.5 464,-225.5 "/>
<text text-anchor="start" x="330" y="-213.5" font-family="FreeSans" font-size="10.00">+ Runner()</text>
<text text-anchor="start" x="330" y="-202.5" font-family="FreeSans" font-size="10.00">+ ~Runner()</text>
<text text-anchor="start" x="330" y="-191.5" font-family="FreeSans" font-size="10.00">+ start()</text>
<text text-anchor="start" x="330" y="-180.5" font-family="FreeSans" font-size="10.00">+ stop()</text>
<text text-anchor="start" x="330" y="-169.5" font-family="FreeSans" font-size="10.00">+ isRunning()</text>
<text text-anchor="start" x="330" y="-158.5" font-family="FreeSans" font-size="10.00">+ configure()</text>
<text text-anchor="start" x="330" y="-147.5" font-family="FreeSans" font-size="10.00">+ getLog()</text>
<text text-anchor="start" x="330" y="-136.5" font-family="FreeSans" font-size="10.00">&#45; finished()</text>
<text text-anchor="start" x="330" y="-125.5" font-family="FreeSans" font-size="10.00">&#45; readyReadStandardOutput()</text>
</a>
</g>
</g>
<!-- Node2&#45;&gt;Node3 -->
<g id="edge3" class="edge"><title>Node2&#45;&gt;Node3</title>
<path fill="none" stroke="midnightblue" d="M55.4697,-316.259C57.2743,-314.744 59.1217,-313.313 61,-312 141.379,-255.828 250.971,-222.996 321.863,-206.271"/>
<polygon fill="none" stroke="midnightblue" points="52.8132,-313.95 47.8703,-323.321 57.5783,-319.078 52.8132,-313.95"/>
</g>
<!-- Node3&#45;&gt;Node1 -->
<g id="edge2" class="edge"><title>Node3&#45;&gt;Node1</title>
<path fill="none" stroke="#404040" d="M321.817,-147.511C284.078,-124.985 238.015,-97.4894 201.071,-75.4379"/>
<polygon fill="none" stroke="#404040" points="200.718,-75.2272 193.516,-75.5867 190.414,-69.0768 197.616,-68.7173 200.718,-75.2272"/>
<text text-anchor="middle" x="263.5" y="-91.5" font-family="FreeSans" font-size="10.00"> &#45;mRunner</text>
</g>
<!-- Node4 -->
<g id="node4" class="node"><title>Node4</title>
<g id="a_node4"><a xlink:href="structESM_1_1DebugProfile.html" target="_top" xlink:title="{ESM::DebugProfile\n||+ load()\l+ save()\l+ blank()\l}">
<polygon fill="white" stroke="black" points="70.5,-312.5 70.5,-391.5 167.5,-391.5 167.5,-312.5 70.5,-312.5"/>
<text text-anchor="middle" x="119" y="-379.5" font-family="FreeSans" font-size="10.00">ESM::DebugProfile</text>
<polyline fill="none" stroke="black" points="70.5,-372.5 167.5,-372.5 "/>
<text text-anchor="middle" x="119" y="-360.5" font-family="FreeSans" font-size="10.00"> </text>
<polyline fill="none" stroke="black" points="70.5,-353.5 167.5,-353.5 "/>
<text text-anchor="start" x="78.5" y="-341.5" font-family="FreeSans" font-size="10.00">+ load()</text>
<text text-anchor="start" x="78.5" y="-330.5" font-family="FreeSans" font-size="10.00">+ save()</text>
<text text-anchor="start" x="78.5" y="-319.5" font-family="FreeSans" font-size="10.00">+ blank()</text>
</a>
</g>
</g>
<!-- Node4&#45;&gt;Node3 -->
<g id="edge4" class="edge"><title>Node4&#45;&gt;Node3</title>
<path fill="none" stroke="#404040" d="M129.406,-312.49C133.933,-301.486 140.265,-290.253 149,-282 193.073,-240.36 258.05,-217.64 309.871,-205.45"/>
<polygon fill="none" stroke="#404040" points="310.017,-205.417 314.995,-200.2 321.725,-202.788 316.747,-208.005 310.017,-205.417"/>
<text text-anchor="middle" x="169.5" y="-285.5" font-family="FreeSans" font-size="10.00"> &#45;mProfile</text>
</g>
<!-- Node5 -->
<g id="node5" class="node"><title>Node5</title>
<g id="a_node5"><a xlink:title="STL class. ">
<polygon fill="white" stroke="#bfbfbf" points="175.5,-462.5 175.5,-519.5 232.5,-519.5 232.5,-462.5 175.5,-462.5"/>
<text text-anchor="middle" x="204" y="-507.5" font-family="FreeSans" font-size="10.00">std::string</text>
<polyline fill="none" stroke="#bfbfbf" points="175.5,-500.5 232.5,-500.5 "/>
<text text-anchor="middle" x="204" y="-488.5" font-family="FreeSans" font-size="10.00"> </text>
<polyline fill="none" stroke="#bfbfbf" points="175.5,-481.5 232.5,-481.5 "/>
<text text-anchor="middle" x="204" y="-469.5" font-family="FreeSans" font-size="10.00"> </text>
</a>
</g>
</g>
<!-- Node5&#45;&gt;Node3 -->
<g id="edge11" class="edge"><title>Node5&#45;&gt;Node3</title>
<path fill="none" stroke="#404040" d="M198.153,-462.273C191.9,-425.35 186.175,-359.216 213,-312 234.783,-273.659 274.447,-245.246 311.009,-225.718"/>
<polygon fill="none" stroke="#404040" points="311.059,-225.693 314.559,-219.388 321.725,-220.194 318.225,-226.499 311.059,-225.693"/>
<text text-anchor="middle" x="258.5" y="-349.5" font-family="FreeSans" font-size="10.00"> &#45;mStartupInstruction</text>
</g>
<!-- Node5&#45;&gt;Node4 -->
<g id="edge5" class="edge"><title>Node5&#45;&gt;Node4</title>
<path fill="none" stroke="#404040" d="M175.373,-480.499C158.355,-473.278 138.001,-461.547 127,-444 119.647,-432.272 116.378,-417.963 115.263,-404.196"/>
<polygon fill="none" stroke="#404040" points="115.248,-403.787 111.021,-397.944 114.789,-391.796 119.015,-397.638 115.248,-403.787"/>
<text text-anchor="middle" x="158.5" y="-435.5" font-family="FreeSans" font-size="10.00"> +mId</text>
<text text-anchor="middle" x="158.5" y="-424.5" font-family="FreeSans" font-size="10.00">+mDescription</text>
<text text-anchor="middle" x="158.5" y="-413.5" font-family="FreeSans" font-size="10.00">+mScriptText</text>
</g>
<!-- Node13 -->
<g id="node13" class="node"><title>Node13</title>
<polygon fill="white" stroke="#bfbfbf" points="712.5,-323.5 712.5,-380.5 829.5,-380.5 829.5,-323.5 712.5,-323.5"/>
<text text-anchor="middle" x="771" y="-368.5" font-family="FreeSans" font-size="10.00">std::vector&lt; std::string &gt;</text>
<polyline fill="none" stroke="#bfbfbf" points="712.5,-361.5 829.5,-361.5 "/>
<text text-anchor="middle" x="771" y="-349.5" font-family="FreeSans" font-size="10.00"> </text>
<polyline fill="none" stroke="#bfbfbf" points="712.5,-342.5 829.5,-342.5 "/>
<text text-anchor="middle" x="771" y="-330.5" font-family="FreeSans" font-size="10.00"> </text>
</g>
<!-- Node5&#45;&gt;Node13 -->
<g id="edge15" class="edge"><title>Node5&#45;&gt;Node13</title>
<path fill="none" stroke="#404040" d="M232.746,-487.655C310.668,-480.604 531.583,-455.999 703,-392 707.662,-390.26 712.379,-388.221 717.04,-386.004"/>
<polygon fill="none" stroke="#404040" points="717.062,-385.993 720.605,-379.713 727.765,-380.567 724.222,-386.848 717.062,-385.993"/>
<text text-anchor="middle" x="662" y="-424.5" font-family="FreeSans" font-size="10.00"> +elements</text>
</g>
<!-- Node6 -->
<g id="node6" class="node"><title>Node6</title>
<g id="a_node6"><a xlink:title="STL class. ">
<polygon fill="white" stroke="#bfbfbf" points="158.5,-559 158.5,-627 249.5,-627 249.5,-559 158.5,-559"/>
<text text-anchor="start" x="166.5" y="-615" font-family="FreeSans" font-size="10.00">std::basic_string&lt;</text>
<text text-anchor="middle" x="204" y="-604" font-family="FreeSans" font-size="10.00"> char &gt;</text>
<polyline fill="none" stroke="#bfbfbf" points="158.5,-597 249.5,-597 "/>
<text text-anchor="middle" x="204" y="-585" font-family="FreeSans" font-size="10.00"> </text>
<polyline fill="none" stroke="#bfbfbf" points="158.5,-578 249.5,-578 "/>
<text text-anchor="middle" x="204" y="-566" font-family="FreeSans" font-size="10.00"> </text>
</a>
</g>
</g>
<!-- Node6&#45;&gt;Node5 -->
<g id="edge6" class="edge"><title>Node6&#45;&gt;Node5</title>
<path fill="none" stroke="midnightblue" d="M204,-548.857C204,-538.952 204,-528.682 204,-519.64"/>
<polygon fill="none" stroke="midnightblue" points="200.5,-548.979 204,-558.979 207.5,-548.979 200.5,-548.979"/>
</g>
<!-- Node7 -->
<g id="node7" class="node"><title>Node7</title>
<polygon fill="white" stroke="#bfbfbf" points="25.5,-462.5 25.5,-519.5 80.5,-519.5 80.5,-462.5 25.5,-462.5"/>
<text text-anchor="middle" x="53" y="-507.5" font-family="FreeSans" font-size="10.00">unsigned</text>
<polyline fill="none" stroke="#bfbfbf" points="25.5,-500.5 80.5,-500.5 "/>
<text text-anchor="middle" x="53" y="-488.5" font-family="FreeSans" font-size="10.00"> </text>
<polyline fill="none" stroke="#bfbfbf" points="25.5,-481.5 80.5,-481.5 "/>
<text text-anchor="middle" x="53" y="-469.5" font-family="FreeSans" font-size="10.00"> </text>
</g>
<!-- Node7&#45;&gt;Node4 -->
<g id="edge7" class="edge"><title>Node7&#45;&gt;Node4</title>
<path fill="none" stroke="#404040" d="M47.9589,-462.484C46.3076,-446.461 46.503,-426.274 54,-410 56.2509,-405.114 59.1458,-400.478 62.4602,-396.119"/>
<polygon fill="none" stroke="#404040" points="62.4627,-396.116 63.3514,-388.96 70.2989,-387.028 69.4102,-394.184 62.4627,-396.116"/>
<text text-anchor="middle" x="79" y="-430" font-family="FreeSans" font-size="10.00"> +mFlags</text>
<text text-anchor="middle" x="79" y="-419" font-family="FreeSans" font-size="10.00">+sRecordId</text>
</g>
<!-- Node8 -->
<g id="node8" class="node"><title>Node8</title>
<polygon fill="white" stroke="#bfbfbf" points="313.5,-323.5 313.5,-380.5 400.5,-380.5 400.5,-323.5 313.5,-323.5"/>
<text text-anchor="middle" x="357" y="-368.5" font-family="FreeSans" font-size="10.00">QTextDocument</text>
<polyline fill="none" stroke="#bfbfbf" points="313.5,-361.5 400.5,-361.5 "/>
<text text-anchor="middle" x="357" y="-349.5" font-family="FreeSans" font-size="10.00"> </text>
<polyline fill="none" stroke="#bfbfbf" points="313.5,-342.5 400.5,-342.5 "/>
<text text-anchor="middle" x="357" y="-330.5" font-family="FreeSans" font-size="10.00"> </text>
</g>
<!-- Node8&#45;&gt;Node3 -->
<g id="edge8" class="edge"><title>Node8&#45;&gt;Node3</title>
<path fill="none" stroke="#404040" d="M363.271,-323.304C366.315,-309.858 370.152,-292.91 374.049,-275.699"/>
<polygon fill="none" stroke="#404040" points="374.098,-275.485 371.521,-268.75 376.748,-263.781 379.324,-270.516 374.098,-275.485"/>
<text text-anchor="middle" x="387" y="-285.5" font-family="FreeSans" font-size="10.00"> &#45;mLog</text>
</g>
<!-- Node9 -->
<g id="node9" class="node"><title>Node9</title>
<polygon fill="white" stroke="#bfbfbf" points="418.5,-323.5 418.5,-380.5 453.5,-380.5 453.5,-323.5 418.5,-323.5"/>
<text text-anchor="middle" x="436" y="-368.5" font-family="FreeSans" font-size="10.00">path</text>
<polyline fill="none" stroke="#bfbfbf" points="418.5,-361.5 453.5,-361.5 "/>
<text text-anchor="middle" x="436" y="-349.5" font-family="FreeSans" font-size="10.00"> </text>
<polyline fill="none" stroke="#bfbfbf" points="418.5,-342.5 453.5,-342.5 "/>
<text text-anchor="middle" x="436" y="-330.5" font-family="FreeSans" font-size="10.00"> </text>
</g>
<!-- Node9&#45;&gt;Node3 -->
<g id="edge9" class="edge"><title>Node9&#45;&gt;Node3</title>
<path fill="none" stroke="#404040" d="M428.51,-323.304C424.874,-309.858 420.29,-292.91 415.636,-275.699"/>
<polygon fill="none" stroke="#404040" points="415.545,-275.365 410.118,-270.617 412.413,-263.781 417.84,-268.529 415.545,-275.365"/>
<text text-anchor="middle" x="452.5" y="-285.5" font-family="FreeSans" font-size="10.00"> &#45;mProjectPath</text>
</g>
<!-- Node10 -->
<g id="node10" class="node"><title>Node10</title>
<polygon fill="white" stroke="#bfbfbf" points="472,-323.5 472,-380.5 564,-380.5 564,-323.5 472,-323.5"/>
<text text-anchor="middle" x="518" y="-368.5" font-family="FreeSans" font-size="10.00">QTemporaryFile *</text>
<polyline fill="none" stroke="#bfbfbf" points="472,-361.5 564,-361.5 "/>
<text text-anchor="middle" x="518" y="-349.5" font-family="FreeSans" font-size="10.00"> </text>
<polyline fill="none" stroke="#bfbfbf" points="472,-342.5 564,-342.5 "/>
<text text-anchor="middle" x="518" y="-330.5" font-family="FreeSans" font-size="10.00"> </text>
</g>
<!-- Node10&#45;&gt;Node3 -->
<g id="edge10" class="edge"><title>Node10&#45;&gt;Node3</title>
<path fill="none" stroke="#404040" d="M509.437,-323.439C504.601,-310.231 497.756,-294.587 489,-282 484.022,-274.844 478.396,-267.822 472.424,-261.052"/>
<polygon fill="none" stroke="#404040" points="472.216,-260.825 465.211,-259.114 464.097,-251.989 471.102,-253.701 472.216,-260.825"/>
<text text-anchor="middle" x="519" y="-285.5" font-family="FreeSans" font-size="10.00"> &#45;mStartup</text>
</g>
<!-- Node11 -->
<g id="node11" class="node"><title>Node11</title>
<g id="a_node11"><a xlink:href="classbool.html" target="_top" xlink:title="{bool\n||}">
<polygon fill="white" stroke="black" points="582.5,-323.5 582.5,-380.5 617.5,-380.5 617.5,-323.5 582.5,-323.5"/>
<text text-anchor="middle" x="600" y="-368.5" font-family="FreeSans" font-size="10.00">bool</text>
<polyline fill="none" stroke="black" points="582.5,-361.5 617.5,-361.5 "/>
<text text-anchor="middle" x="600" y="-349.5" font-family="FreeSans" font-size="10.00"> </text>
<polyline fill="none" stroke="black" points="582.5,-342.5 617.5,-342.5 "/>
<text text-anchor="middle" x="600" y="-330.5" font-family="FreeSans" font-size="10.00"> </text>
</a>
</g>
</g>
<!-- Node11&#45;&gt;Node3 -->
<g id="edge12" class="edge"><title>Node11&#45;&gt;Node3</title>
<path fill="none" stroke="#404040" d="M582.68,-323.386C573.099,-309.694 560.256,-293.643 546,-282 524.273,-264.255 498.652,-247.75 474.654,-233.847"/>
<polygon fill="none" stroke="#404040" points="474.552,-233.789 467.358,-234.295 464.124,-227.85 471.318,-227.344 474.552,-233.789"/>
<text text-anchor="middle" x="583.5" y="-285.5" font-family="FreeSans" font-size="10.00"> &#45;mRunning</text>
</g>
<!-- Node12 -->
<g id="node12" class="node"><title>Node12</title>
<polygon fill="white" stroke="#bfbfbf" points="635.5,-323.5 635.5,-380.5 694.5,-380.5 694.5,-323.5 635.5,-323.5"/>
<text text-anchor="middle" x="665" y="-368.5" font-family="FreeSans" font-size="10.00">QProcess</text>
<polyline fill="none" stroke="#bfbfbf" points="635.5,-361.5 694.5,-361.5 "/>
<text text-anchor="middle" x="665" y="-349.5" font-family="FreeSans" font-size="10.00"> </text>
<polyline fill="none" stroke="#bfbfbf" points="635.5,-342.5 694.5,-342.5 "/>
<text text-anchor="middle" x="665" y="-330.5" font-family="FreeSans" font-size="10.00"> </text>
</g>
<!-- Node12&#45;&gt;Node3 -->
<g id="edge13" class="edge"><title>Node12&#45;&gt;Node3</title>
<path fill="none" stroke="#404040" d="M648.67,-323.277C639.362,-309.39 626.639,-293.194 612,-282 571.61,-251.113 519.122,-229.062 475.656,-214.519"/>
<polygon fill="none" stroke="#404040" points="475.645,-214.516 468.702,-216.461 464.235,-210.799 471.179,-208.854 475.645,-214.516"/>
<text text-anchor="middle" x="649.5" y="-285.5" font-family="FreeSans" font-size="10.00"> &#45;mProcess</text>
</g>
<!-- Node13&#45;&gt;Node3 -->
<g id="edge14" class="edge"><title>Node13&#45;&gt;Node3</title>
<path fill="none" stroke="#404040" d="M739.188,-323.244C721.99,-309.348 699.844,-293.154 678,-282 613.366,-248.997 534.287,-225.192 475.839,-210.385"/>
<polygon fill="none" stroke="#404040" points="475.708,-210.353 468.92,-212.784 464.064,-207.453 470.853,-205.021 475.708,-210.353"/>
<text text-anchor="middle" x="732" y="-285.5" font-family="FreeSans" font-size="10.00"> &#45;mContentFiles</text>
</g>
</g>
</svg>
