<?xml version="1.0" encoding="UTF-8" standalone="no"?>
<!DOCTYPE svg PUBLIC "-//W3C//DTD SVG 1.1//EN"
 "http://www.w3.org/Graphics/SVG/1.1/DTD/svg11.dtd">
<!-- Generated by graphviz version 2.36.0 (20140111.2315)
 -->
<!-- Title: MWScript::Ai::OpModAiSetting&lt; R &gt; Pages: 1 -->
<svg width="196pt" height="184pt"
 viewBox="0.00 0.00 196.00 184.00" xmlns="http://www.w3.org/2000/svg" xmlns:xlink="http://www.w3.org/1999/xlink">
<g id="graph0" class="graph" transform="scale(1 1) rotate(0) translate(4 180)">
<title>MWScript::Ai::OpModAiSetting&lt; R &gt;</title>
<polygon fill="white" stroke="none" points="-4,4 -4,-180 192,-180 192,4 -4,4"/>
<!-- Node1 -->
<g id="node1" class="node"><title>Node1</title>
<polygon fill="#bfbfbf" stroke="black" points="0,-1 0,-69 188,-69 188,-1 0,-1"/>
<text text-anchor="middle" x="94" y="-57" font-family="FreeSans" font-size="10.00">MWScript::Ai::OpModAiSetting&lt; R &gt;</text>
<polyline fill="none" stroke="black" points="0,-50 188,-50 "/>
<text text-anchor="start" x="8" y="-38" font-family="FreeSans" font-size="10.00">&#45; mIndex</text>
<polyline fill="none" stroke="black" points="0,-31 188,-31 "/>
<text text-anchor="start" x="8" y="-19" font-family="FreeSans" font-size="10.00">+ OpModAiSetting()</text>
<text text-anchor="start" x="8" y="-8" font-family="FreeSans" font-size="10.00">+ execute()</text>
</g>
<!-- Node2 -->
<g id="node2" class="node"><title>Node2</title>
<g id="a_node2"><a xlink:href="classInterpreter_1_1Opcode0.html" target="_top" xlink:title="opcode for 0 arguments ">
<polygon fill="white" stroke="black" points="36,-107 36,-175 152,-175 152,-107 36,-107"/>
<text text-anchor="middle" x="94" y="-163" font-family="FreeSans" font-size="10.00">Interpreter::Opcode0</text>
<polyline fill="none" stroke="black" points="36,-156 152,-156 "/>
<text text-anchor="middle" x="94" y="-144" font-family="FreeSans" font-size="10.00"> </text>
<polyline fill="none" stroke="black" points="36,-137 152,-137 "/>
<text text-anchor="start" x="44" y="-125" font-family="FreeSans" font-size="10.00">+ execute()</text>
<text text-anchor="start" x="44" y="-114" font-family="FreeSans" font-size="10.00">+ ~Opcode0()</text>
</a>
</g>
</g>
<!-- Node2&#45;&gt;Node1 -->
<g id="edge1" class="edge"><title>Node2&#45;&gt;Node1</title>
<path fill="none" stroke="midnightblue" d="M94,-96.6737C94,-87.5025 94,-77.9608 94,-69.2336"/>
<polygon fill="none" stroke="midnightblue" points="90.5001,-96.8078 94,-106.808 97.5001,-96.8078 90.5001,-96.8078"/>
</g>
</g>
</svg>
