<?xml version="1.0" encoding="UTF-8" standalone="no"?>
<!DOCTYPE svg PUBLIC "-//W3C//DTD SVG 1.1//EN"
 "http://www.w3.org/Graphics/SVG/1.1/DTD/svg11.dtd">
<!-- Generated by graphviz version 2.36.0 (20140111.2315)
 -->
<!-- Title: CSVDoc::View::abortOperation Pages: 1 -->
<svg width="388pt" height="77pt"
 viewBox="0.00 0.00 388.00 77.00" xmlns="http://www.w3.org/2000/svg" xmlns:xlink="http://www.w3.org/1999/xlink">
<g id="graph0" class="graph" transform="scale(1 1) rotate(0) translate(4 73)">
<title>CSVDoc::View::abortOperation</title>
<polygon fill="white" stroke="none" points="-4,4 -4,-73 384,-73 384,4 -4,4"/>
<!-- Node1 -->
<g id="node1" class="node"><title>Node1</title>
<polygon fill="#bfbfbf" stroke="black" points="0.5,-27.5 0.5,-46.5 161.5,-46.5 161.5,-27.5 0.5,-27.5"/>
<text text-anchor="middle" x="81" y="-34.5" font-family="FreeSans" font-size="10.00">CSVDoc::View::abortOperation</text>
</g>
<!-- Node2 -->
<g id="node2" class="node"><title>Node2</title>
<g id="a_node2"><a xlink:href="classCSVDoc_1_1View.html#a23466e998f5a662a792e59245a057075" target="_top" xlink:title="The ownership of document is not transferred to *this. ">
<polygon fill="white" stroke="black" points="234,-49.5 234,-68.5 344,-68.5 344,-49.5 234,-49.5"/>
<text text-anchor="middle" x="289" y="-56.5" font-family="FreeSans" font-size="10.00">CSVDoc::View::View</text>
</a>
</g>
</g>
<!-- Node1&#45;&gt;Node2 -->
<g id="edge1" class="edge"><title>Node1&#45;&gt;Node2</title>
<path fill="none" stroke="midnightblue" d="M171.623,-46.5714C192.776,-48.8304 214.694,-51.1712 233.728,-53.2039"/>
<polygon fill="midnightblue" stroke="midnightblue" points="171.96,-43.0876 161.645,-45.5058 171.217,-50.048 171.96,-43.0876"/>
</g>
<!-- Node3 -->
<g id="node3" class="node"><title>Node3</title>
<g id="a_node3"><a xlink:href="classCSVDoc_1_1ViewManager.html#ae5973081b2892e366769b6a66f85dfda" target="_top" xlink:title="CSVDoc::ViewManager\l::showSaveInProgressMessageBox">
<polygon fill="white" stroke="black" points="198,-0 198,-30 380,-30 380,-0 198,-0"/>
<text text-anchor="start" x="206" y="-18" font-family="FreeSans" font-size="10.00">CSVDoc::ViewManager</text>
<text text-anchor="middle" x="289" y="-7" font-family="FreeSans" font-size="10.00">::showSaveInProgressMessageBox</text>
</a>
</g>
</g>
<!-- Node1&#45;&gt;Node3 -->
<g id="edge2" class="edge"><title>Node1&#45;&gt;Node3</title>
<path fill="none" stroke="midnightblue" d="M171.764,-27.4135C180.447,-26.4862 189.258,-25.5453 197.944,-24.6176"/>
<polygon fill="midnightblue" stroke="midnightblue" points="171.217,-23.952 161.645,-28.4942 171.96,-30.9124 171.217,-23.952"/>
</g>
</g>
</svg>
