<?xml version="1.0" encoding="UTF-8" standalone="no"?>
<!DOCTYPE svg PUBLIC "-//W3C//DTD SVG 1.1//EN"
 "http://www.w3.org/Graphics/SVG/1.1/DTD/svg11.dtd">
<!-- Generated by graphviz version 2.36.0 (20140111.2315)
 -->
<!-- Title: CSMWorld::Data::count Pages: 1 -->
<svg width="292pt" height="87pt"
 viewBox="0.00 0.00 292.00 87.00" xmlns="http://www.w3.org/2000/svg" xmlns:xlink="http://www.w3.org/1999/xlink">
<g id="graph0" class="graph" transform="scale(1 1) rotate(0) translate(4 83)">
<title>CSMWorld::Data::count</title>
<polygon fill="white" stroke="none" points="-4,4 -4,-83 288,-83 288,4 -4,4"/>
<!-- Node1 -->
<g id="node1" class="node"><title>Node1</title>
<polygon fill="#bfbfbf" stroke="black" points="0,-29.5 0,-48.5 116,-48.5 116,-29.5 0,-29.5"/>
<text text-anchor="middle" x="58" y="-36.5" font-family="FreeSans" font-size="10.00">CSMWorld::Data::count</text>
</g>
<!-- Node2 -->
<g id="node2" class="node"><title>Node2</title>
<g id="a_node2"><a xlink:href="classCSMWorld_1_1CollectionBase.html#a40a59aa0fc3b7f4e78410e168a4f8f10" target="_top" xlink:title="CSMWorld::CollectionBase\l::getSize">
<polygon fill="white" stroke="black" points="152,-49 152,-79 284,-79 284,-49 152,-49"/>
<text text-anchor="start" x="160" y="-67" font-family="FreeSans" font-size="10.00">CSMWorld::CollectionBase</text>
<text text-anchor="middle" x="218" y="-56" font-family="FreeSans" font-size="10.00">::getSize</text>
</a>
</g>
</g>
<!-- Node1&#45;&gt;Node2 -->
<g id="edge1" class="edge"><title>Node1&#45;&gt;Node2</title>
<path fill="none" stroke="midnightblue" d="M116.042,-48.0256C124.428,-49.3525 133.173,-50.7362 141.855,-52.11"/>
<polygon fill="midnightblue" stroke="midnightblue" points="141.57,-55.6084 151.994,-53.7143 142.664,-48.6944 141.57,-55.6084"/>
</g>
<!-- Node3 -->
<g id="node3" class="node"><title>Node3</title>
<g id="a_node3"><a xlink:href="classCSMWorld_1_1CollectionBase.html#a7ea608ef12c5f1f3fb226be82737fbb9" target="_top" xlink:title="CSMWorld::CollectionBase\l::getRecord">
<polygon fill="white" stroke="black" points="152,-0 152,-30 284,-30 284,-0 152,-0"/>
<text text-anchor="start" x="160" y="-18" font-family="FreeSans" font-size="10.00">CSMWorld::CollectionBase</text>
<text text-anchor="middle" x="218" y="-7" font-family="FreeSans" font-size="10.00">::getRecord</text>
</a>
</g>
</g>
<!-- Node1&#45;&gt;Node3 -->
<g id="edge2" class="edge"><title>Node1&#45;&gt;Node3</title>
<path fill="none" stroke="midnightblue" d="M116.042,-30.3354C124.428,-29.0616 133.173,-27.7332 141.855,-26.4144"/>
<polygon fill="midnightblue" stroke="midnightblue" points="142.633,-29.8364 151.994,-24.8743 141.582,-22.9158 142.633,-29.8364"/>
</g>
</g>
</svg>
