<?xml version="1.0" encoding="UTF-8" standalone="no"?>
<!DOCTYPE svg PUBLIC "-//W3C//DTD SVG 1.1//EN"
 "http://www.w3.org/Graphics/SVG/1.1/DTD/svg11.dtd">
<!-- Generated by graphviz version 2.36.0 (20140111.2315)
 -->
<!-- Title: Nif::NIFStream::getVector3s Pages: 1 -->
<svg width="660pt" height="95pt"
 viewBox="0.00 0.00 660.00 95.00" xmlns="http://www.w3.org/2000/svg" xmlns:xlink="http://www.w3.org/1999/xlink">
<g id="graph0" class="graph" transform="scale(1 1) rotate(0) translate(4 91)">
<title>Nif::NIFStream::getVector3s</title>
<polygon fill="white" stroke="none" points="-4,4 -4,-91 656,-91 656,4 -4,4"/>
<!-- Node1 -->
<g id="node1" class="node"><title>Node1</title>
<polygon fill="#bfbfbf" stroke="black" points="0,-19.5 0,-38.5 150,-38.5 150,-19.5 0,-19.5"/>
<text text-anchor="middle" x="75" y="-26.5" font-family="FreeSans" font-size="10.00">Nif::NIFStream::getVector3s</text>
</g>
<!-- Node2 -->
<g id="node2" class="node"><title>Node2</title>
<g id="a_node2"><a xlink:href="classNif_1_1ShapeData.html#a3c698700f78f0df98a5bfcc57a464ec2" target="_top" xlink:title="Parses the record from file. ">
<polygon fill="white" stroke="black" points="190.5,-38.5 190.5,-57.5 307.5,-57.5 307.5,-38.5 190.5,-38.5"/>
<text text-anchor="middle" x="249" y="-45.5" font-family="FreeSans" font-size="10.00">Nif::ShapeData::read</text>
</a>
</g>
</g>
<!-- Node1&#45;&gt;Node2 -->
<g id="edge1" class="edge"><title>Node1&#45;&gt;Node2</title>
<path fill="none" stroke="midnightblue" d="M160.336,-38.3162C170.513,-39.4404 180.72,-40.5679 190.388,-41.6359"/>
<polygon fill="midnightblue" stroke="midnightblue" points="160.515,-34.8148 150.191,-37.1956 159.747,-41.7725 160.515,-34.8148"/>
</g>
<!-- Node6 -->
<g id="node6" class="node"><title>Node6</title>
<g id="a_node6"><a xlink:href="structNif_1_1NiMorphData.html#aed6453e61657560b52c7615255936bca" target="_top" xlink:title="Parses the record from file. ">
<polygon fill="white" stroke="black" points="186,-0.5 186,-19.5 312,-19.5 312,-0.5 186,-0.5"/>
<text text-anchor="middle" x="249" y="-7.5" font-family="FreeSans" font-size="10.00">Nif::NiMorphData::read</text>
</a>
</g>
</g>
<!-- Node1&#45;&gt;Node6 -->
<g id="edge5" class="edge"><title>Node1&#45;&gt;Node6</title>
<path fill="none" stroke="midnightblue" d="M160.293,-19.6885C168.925,-18.735 177.58,-17.7789 185.91,-16.8588"/>
<polygon fill="midnightblue" stroke="midnightblue" points="159.747,-16.2275 150.191,-20.8044 160.515,-23.1852 159.747,-16.2275"/>
</g>
<!-- Node3 -->
<g id="node3" class="node"><title>Node3</title>
<g id="a_node3"><a xlink:href="classNif_1_1NiTriShapeData.html#ad7389a2d6f53d7cc83b55c17d75afbff" target="_top" xlink:title="Parses the record from file. ">
<polygon fill="white" stroke="black" points="365.5,-57 365.5,-87 474.5,-87 474.5,-57 365.5,-57"/>
<text text-anchor="start" x="373.5" y="-75" font-family="FreeSans" font-size="10.00">Nif::NiTriShapeData</text>
<text text-anchor="middle" x="420" y="-64" font-family="FreeSans" font-size="10.00">::read</text>
</a>
</g>
</g>
<!-- Node2&#45;&gt;Node3 -->
<g id="edge2" class="edge"><title>Node2&#45;&gt;Node3</title>
<path fill="none" stroke="midnightblue" d="M317.903,-57.643C333.661,-59.8808 350.22,-62.2324 365.271,-64.3698"/>
<polygon fill="midnightblue" stroke="midnightblue" points="318.08,-54.1332 307.688,-56.1923 317.096,-61.0636 318.08,-54.1332"/>
</g>
<!-- Node4 -->
<g id="node4" class="node"><title>Node4</title>
<g id="a_node4"><a xlink:href="classNif_1_1NiAutoNormalParticlesData.html#a0a0770ddab650a6eb3e79172e5dbe248" target="_top" xlink:title="Parses the record from file. ">
<polygon fill="white" stroke="black" points="348.5,-8 348.5,-38 491.5,-38 491.5,-8 348.5,-8"/>
<text text-anchor="start" x="356.5" y="-26" font-family="FreeSans" font-size="10.00">Nif::NiAutoNormalParticles</text>
<text text-anchor="middle" x="420" y="-15" font-family="FreeSans" font-size="10.00">Data::read</text>
</a>
</g>
</g>
<!-- Node2&#45;&gt;Node4 -->
<g id="edge3" class="edge"><title>Node2&#45;&gt;Node4</title>
<path fill="none" stroke="midnightblue" d="M317.67,-37.9897C327.786,-36.4931 338.239,-34.9469 348.414,-33.4417"/>
<polygon fill="midnightblue" stroke="midnightblue" points="317.068,-34.5406 307.688,-39.4663 318.092,-41.4652 317.068,-34.5406"/>
</g>
<!-- Node5 -->
<g id="node5" class="node"><title>Node5</title>
<g id="a_node5"><a xlink:href="classNif_1_1NiRotatingParticlesData.html#ad49360cf9ef0e59eff3a2736a2ca8dc0" target="_top" xlink:title="Parses the record from file. ">
<polygon fill="white" stroke="black" points="528,-8 528,-38 652,-38 652,-8 528,-8"/>
<text text-anchor="start" x="536" y="-26" font-family="FreeSans" font-size="10.00">Nif::NiRotatingParticles</text>
<text text-anchor="middle" x="590" y="-15" font-family="FreeSans" font-size="10.00">Data::read</text>
</a>
</g>
</g>
<!-- Node4&#45;&gt;Node5 -->
<g id="edge4" class="edge"><title>Node4&#45;&gt;Node5</title>
<path fill="none" stroke="midnightblue" d="M501.964,-23C510.693,-23 519.466,-23 527.904,-23"/>
<polygon fill="midnightblue" stroke="midnightblue" points="501.76,-19.5001 491.76,-23 501.76,-26.5001 501.76,-19.5001"/>
</g>
</g>
</svg>
