<?xml version="1.0" encoding="UTF-8" standalone="no"?>
<!DOCTYPE svg PUBLIC "-//W3C//DTD SVG 1.1//EN"
 "http://www.w3.org/Graphics/SVG/1.1/DTD/svg11.dtd">
<!-- Generated by graphviz version 2.36.0 (20140111.2315)
 -->
<!-- Title: MWWorld::Class::getArmorRating Pages: 1 -->
<svg width="1544pt" height="574pt"
 viewBox="0.00 0.00 1544.00 574.00" xmlns="http://www.w3.org/2000/svg" xmlns:xlink="http://www.w3.org/1999/xlink">
<g id="graph0" class="graph" transform="scale(1 1) rotate(0) translate(4 570)">
<title>MWWorld::Class::getArmorRating</title>
<polygon fill="white" stroke="none" points="-4,4 -4,-570 1540,-570 1540,4 -4,4"/>
<!-- Node1 -->
<g id="node1" class="node"><title>Node1</title>
<polygon fill="#bfbfbf" stroke="black" points="0.5,-24 0.5,-54 131.5,-54 131.5,-24 0.5,-24"/>
<text text-anchor="start" x="8.5" y="-42" font-family="FreeSans" font-size="10.00">MWWorld::Class::getArmor</text>
<text text-anchor="middle" x="66" y="-31" font-family="FreeSans" font-size="10.00">Rating</text>
</g>
<!-- Node2 -->
<g id="node2" class="node"><title>Node2</title>
<g id="a_node2"><a xlink:href="classMWGui_1_1InventoryWindow.html#a3a4633c6671ff69c0ca37a7e6cf744fe" target="_top" xlink:title="MWGui::InventoryWindow\l::updateArmorRating">
<polygon fill="white" stroke="black" points="171,-49 171,-79 297,-79 297,-49 171,-49"/>
<text text-anchor="start" x="179" y="-67" font-family="FreeSans" font-size="10.00">MWGui::InventoryWindow</text>
<text text-anchor="middle" x="234" y="-56" font-family="FreeSans" font-size="10.00">::updateArmorRating</text>
</a>
</g>
</g>
<!-- Node1&#45;&gt;Node2 -->
<g id="edge1" class="edge"><title>Node1&#45;&gt;Node2</title>
<path fill="none" stroke="midnightblue" d="M141.755,-50.2583C151.522,-51.7293 161.443,-53.2234 170.97,-54.6581"/>
<polygon fill="midnightblue" stroke="midnightblue" points="142.065,-46.7656 131.655,-48.7372 141.022,-53.6875 142.065,-46.7656"/>
</g>
<!-- Node35 -->
<g id="node35" class="node"><title>Node35</title>
<g id="a_node35"><a xlink:href="namespaceMWMechanics.html#a70d8f4c3386d6eceb80608f447f4b817" target="_top" xlink:title="MWMechanics::vanillaRate\lWeaponAndAmmo">
<polygon fill="white" stroke="black" points="168,-0 168,-30 300,-30 300,-0 168,-0"/>
<text text-anchor="start" x="176" y="-18" font-family="FreeSans" font-size="10.00">MWMechanics::vanillaRate</text>
<text text-anchor="middle" x="234" y="-7" font-family="FreeSans" font-size="10.00">WeaponAndAmmo</text>
</a>
</g>
</g>
<!-- Node1&#45;&gt;Node35 -->
<g id="edge45" class="edge"><title>Node1&#45;&gt;Node35</title>
<path fill="none" stroke="midnightblue" d="M141.82,-28.1826C150.547,-26.9209 159.396,-25.6416 167.975,-24.4012"/>
<polygon fill="midnightblue" stroke="midnightblue" points="141.052,-24.7573 131.655,-29.6523 142.053,-31.6852 141.052,-24.7573"/>
</g>
<!-- Node3 -->
<g id="node3" class="node"><title>Node3</title>
<g id="a_node3"><a xlink:href="classMWGui_1_1InventoryWindow.html#afad37a70dfd2dad11de304f417952e40" target="_top" xlink:title="MWGui::InventoryWindow\l::onWindowResize">
<polygon fill="white" stroke="black" points="342,-49 342,-79 468,-79 468,-49 342,-49"/>
<text text-anchor="start" x="350" y="-67" font-family="FreeSans" font-size="10.00">MWGui::InventoryWindow</text>
<text text-anchor="middle" x="405" y="-56" font-family="FreeSans" font-size="10.00">::onWindowResize</text>
</a>
</g>
</g>
<!-- Node2&#45;&gt;Node3 -->
<g id="edge2" class="edge"><title>Node2&#45;&gt;Node3</title>
<path fill="none" stroke="midnightblue" d="M307.76,-64C319.101,-64 330.73,-64 341.807,-64"/>
<polygon fill="midnightblue" stroke="midnightblue" points="307.449,-60.5001 297.449,-64 307.449,-67.5001 307.449,-60.5001"/>
</g>
<!-- Node5 -->
<g id="node5" class="node"><title>Node5</title>
<g id="a_node5"><a xlink:href="classMWGui_1_1InventoryWindow.html#a1e5575a3e276bdbb870b258980828998" target="_top" xlink:title="MWGui::InventoryWindow\l::dirtyPreview">
<polygon fill="white" stroke="black" points="342,-127 342,-157 468,-157 468,-127 342,-127"/>
<text text-anchor="start" x="350" y="-145" font-family="FreeSans" font-size="10.00">MWGui::InventoryWindow</text>
<text text-anchor="middle" x="405" y="-134" font-family="FreeSans" font-size="10.00">::dirtyPreview</text>
</a>
</g>
</g>
<!-- Node2&#45;&gt;Node5 -->
<g id="edge4" class="edge"><title>Node2&#45;&gt;Node5</title>
<path fill="none" stroke="midnightblue" d="M276.701,-83.2467C305.86,-96.7046 344.257,-114.426 371.227,-126.874"/>
<polygon fill="midnightblue" stroke="midnightblue" points="278.131,-80.052 267.585,-79.0392 275.198,-86.4077 278.131,-80.052"/>
</g>
<!-- Node4 -->
<g id="node4" class="node"><title>Node4</title>
<g id="a_node4"><a xlink:href="classMWGui_1_1InventoryWindow.html#a12e661e522f594464ed49a782220998f" target="_top" xlink:title="MWGui::InventoryWindow\l::InventoryWindow">
<polygon fill="white" stroke="black" points="1409,-207 1409,-237 1535,-237 1535,-207 1409,-207"/>
<text text-anchor="start" x="1417" y="-225" font-family="FreeSans" font-size="10.00">MWGui::InventoryWindow</text>
<text text-anchor="middle" x="1472" y="-214" font-family="FreeSans" font-size="10.00">::InventoryWindow</text>
</a>
</g>
</g>
<!-- Node3&#45;&gt;Node4 -->
<g id="edge3" class="edge"><title>Node3&#45;&gt;Node4</title>
<path fill="none" stroke="midnightblue" d="M478.226,-63.0094C548.221,-62.1356 657.385,-61 752,-61 752,-61 752,-61 1116,-61 1230.09,-61 1272.88,-23.5064 1372,-80 1422.91,-109.018 1453.71,-176.22 1465.49,-206.598"/>
<polygon fill="midnightblue" stroke="midnightblue" points="478.145,-59.5101 468.19,-63.1363 478.233,-66.5095 478.145,-59.5101"/>
</g>
<!-- Node6 -->
<g id="node6" class="node"><title>Node6</title>
<g id="a_node6"><a xlink:href="classMWGui_1_1InventoryWindow.html#ac5f6f76f63fb66965502782ba35f39ec" target="_top" xlink:title="MWGui::InventoryWindow\l::updatePlayer">
<polygon fill="white" stroke="black" points="511,-95 511,-125 637,-125 637,-95 511,-95"/>
<text text-anchor="start" x="519" y="-113" font-family="FreeSans" font-size="10.00">MWGui::InventoryWindow</text>
<text text-anchor="middle" x="574" y="-102" font-family="FreeSans" font-size="10.00">::updatePlayer</text>
</a>
</g>
</g>
<!-- Node5&#45;&gt;Node6 -->
<g id="edge5" class="edge"><title>Node5&#45;&gt;Node6</title>
<path fill="none" stroke="midnightblue" d="M478.083,-128.188C488.966,-126.102 500.112,-123.967 510.763,-121.926"/>
<polygon fill="midnightblue" stroke="midnightblue" points="477.347,-124.765 468.185,-130.084 478.665,-131.64 477.347,-124.765"/>
</g>
<!-- Node8 -->
<g id="node8" class="node"><title>Node8</title>
<g id="a_node8"><a xlink:href="classMWGui_1_1InventoryWindow.html#a54f3f2fa0bf6255423ba78cda2ba392f" target="_top" xlink:title="MWGui::InventoryWindow\l::updateItemView">
<polygon fill="white" stroke="black" points="511,-233 511,-263 637,-263 637,-233 511,-233"/>
<text text-anchor="start" x="519" y="-251" font-family="FreeSans" font-size="10.00">MWGui::InventoryWindow</text>
<text text-anchor="middle" x="574" y="-240" font-family="FreeSans" font-size="10.00">::updateItemView</text>
</a>
</g>
</g>
<!-- Node5&#45;&gt;Node8 -->
<g id="edge7" class="edge"><title>Node5&#45;&gt;Node8</title>
<path fill="none" stroke="midnightblue" d="M438.612,-162.7C471.073,-183.304 520.119,-214.435 549.117,-232.841"/>
<polygon fill="midnightblue" stroke="midnightblue" points="440.246,-159.591 429.927,-157.187 436.494,-165.501 440.246,-159.591"/>
</g>
<!-- Node33 -->
<g id="node33" class="node"><title>Node33</title>
<g id="a_node33"><a xlink:href="classMWGui_1_1InventoryWindow.html#a7e472852133ec64b6eff1f0b75ec0ee9" target="_top" xlink:title="MWGui::InventoryWindow\l::notifyContentChanged">
<polygon fill="white" stroke="black" points="690,-179 690,-209 816,-209 816,-179 690,-179"/>
<text text-anchor="start" x="698" y="-197" font-family="FreeSans" font-size="10.00">MWGui::InventoryWindow</text>
<text text-anchor="middle" x="753" y="-186" font-family="FreeSans" font-size="10.00">::notifyContentChanged</text>
</a>
</g>
</g>
<!-- Node5&#45;&gt;Node33 -->
<g id="edge40" class="edge"><title>Node5&#45;&gt;Node33</title>
<path fill="none" stroke="midnightblue" d="M478.454,-152.889C541.064,-162.299 630.585,-175.753 689.951,-184.675"/>
<polygon fill="midnightblue" stroke="midnightblue" points="478.667,-149.382 468.257,-151.357 477.626,-156.304 478.667,-149.382"/>
</g>
<!-- Node7 -->
<g id="node7" class="node"><title>Node7</title>
<g id="a_node7"><a xlink:href="classMWGui_1_1WindowManager.html#a0473842e2a7a08cf0b0e0e9d7e70be8e" target="_top" xlink:title="MWGui::WindowManager\l::updatePlayer">
<polygon fill="white" stroke="black" points="690.5,-91 690.5,-121 815.5,-121 815.5,-91 690.5,-91"/>
<text text-anchor="start" x="698.5" y="-109" font-family="FreeSans" font-size="10.00">MWGui::WindowManager</text>
<text text-anchor="middle" x="753" y="-98" font-family="FreeSans" font-size="10.00">::updatePlayer</text>
</a>
</g>
</g>
<!-- Node6&#45;&gt;Node7 -->
<g id="edge6" class="edge"><title>Node6&#45;&gt;Node7</title>
<path fill="none" stroke="midnightblue" d="M647.636,-108.359C661.857,-108.037 676.642,-107.703 690.458,-107.391"/>
<polygon fill="midnightblue" stroke="midnightblue" points="647.322,-104.865 637.404,-108.59 647.48,-111.863 647.322,-104.865"/>
</g>
<!-- Node9 -->
<g id="node9" class="node"><title>Node9</title>
<g id="a_node9"><a xlink:href="classMWGui_1_1DragAndDrop.html#a9cc720952dc82133315aa41e7093acb5" target="_top" xlink:title="MWGui::DragAndDrop\l::drop">
<polygon fill="white" stroke="black" points="875.5,-358 875.5,-388 986.5,-388 986.5,-358 875.5,-358"/>
<text text-anchor="start" x="883.5" y="-376" font-family="FreeSans" font-size="10.00">MWGui::DragAndDrop</text>
<text text-anchor="middle" x="931" y="-365" font-family="FreeSans" font-size="10.00">::drop</text>
</a>
</g>
</g>
<!-- Node8&#45;&gt;Node9 -->
<g id="edge8" class="edge"><title>Node8&#45;&gt;Node9</title>
<path fill="none" stroke="midnightblue" d="M597.823,-270.173C616.717,-287.249 645.065,-310.058 674,-323 739.52,-352.307 822.041,-364.49 875.396,-369.52"/>
<polygon fill="midnightblue" stroke="midnightblue" points="600.05,-267.465 590.33,-263.251 595.3,-272.607 600.05,-267.465"/>
</g>
<!-- Node23 -->
<g id="node23" class="node"><title>Node23</title>
<g id="a_node23"><a xlink:href="classMWGui_1_1InventoryWindow.html#acbe3b6eb50fde30d62837326cf99010d" target="_top" xlink:title="Unequips count items from mSelectedItem, if it is equipped, and then updates mSelectedItem in case th...">
<polygon fill="white" stroke="black" points="674,-233 674,-263 832,-263 832,-233 674,-233"/>
<text text-anchor="start" x="682" y="-251" font-family="FreeSans" font-size="10.00">MWGui::InventoryWindow</text>
<text text-anchor="middle" x="753" y="-240" font-family="FreeSans" font-size="10.00">::ensureSelectedItemUnequipped</text>
</a>
</g>
</g>
<!-- Node8&#45;&gt;Node23 -->
<g id="edge27" class="edge"><title>Node8&#45;&gt;Node23</title>
<path fill="none" stroke="midnightblue" d="M647.452,-248C656.113,-248 664.985,-248 673.723,-248"/>
<polygon fill="midnightblue" stroke="midnightblue" points="647.404,-244.5 637.404,-248 647.404,-251.5 647.404,-244.5"/>
</g>
<!-- Node26 -->
<g id="node26" class="node"><title>Node26</title>
<g id="a_node26"><a xlink:href="classMWGui_1_1InventoryWindow.html#ad7f386f1dc8b5f1c3102582ea5c7d825" target="_top" xlink:title="MWGui::InventoryWindow\l::useItem">
<polygon fill="white" stroke="black" points="868,-101 868,-131 994,-131 994,-101 868,-101"/>
<text text-anchor="start" x="876" y="-119" font-family="FreeSans" font-size="10.00">MWGui::InventoryWindow</text>
<text text-anchor="middle" x="931" y="-108" font-family="FreeSans" font-size="10.00">::useItem</text>
</a>
</g>
</g>
<!-- Node8&#45;&gt;Node26 -->
<g id="edge32" class="edge"><title>Node8&#45;&gt;Node26</title>
<path fill="none" stroke="midnightblue" d="M596.647,-225.656C615.429,-207.604 644.216,-182.979 674,-169 707.742,-153.163 803.569,-135.831 867.924,-125.441"/>
<polygon fill="midnightblue" stroke="midnightblue" points="593.916,-223.433 589.237,-232.939 598.822,-228.426 593.916,-223.433"/>
</g>
<!-- Node30 -->
<g id="node30" class="node"><title>Node30</title>
<g id="a_node30"><a xlink:href="classMWGui_1_1TradeWindow.html#a625bcba69023de5169e63f495e11f1b4" target="_top" xlink:title="MWGui::TradeWindow\l::sellItem">
<polygon fill="white" stroke="black" points="697,-284 697,-314 809,-314 809,-284 697,-284"/>
<text text-anchor="start" x="705" y="-302" font-family="FreeSans" font-size="10.00">MWGui::TradeWindow</text>
<text text-anchor="middle" x="753" y="-291" font-family="FreeSans" font-size="10.00">::sellItem</text>
</a>
</g>
</g>
<!-- Node8&#45;&gt;Node30 -->
<g id="edge37" class="edge"><title>Node8&#45;&gt;Node30</title>
<path fill="none" stroke="midnightblue" d="M636.76,-265.795C657.371,-271.734 680.118,-278.288 699.919,-283.994"/>
<polygon fill="midnightblue" stroke="midnightblue" points="637.727,-262.431 627.149,-263.026 635.789,-269.158 637.727,-262.431"/>
</g>
<!-- Node10 -->
<g id="node10" class="node"><title>Node10</title>
<g id="a_node10"><a xlink:href="classMWGui_1_1ContainerWindow.html#a7b3b20e84d133f523b26c98b306fe838" target="_top" xlink:title="MWGui::ContainerWindow\l::dropItem">
<polygon fill="white" stroke="black" points="1051,-500 1051,-530 1179,-530 1179,-500 1051,-500"/>
<text text-anchor="start" x="1059" y="-518" font-family="FreeSans" font-size="10.00">MWGui::ContainerWindow</text>
<text text-anchor="middle" x="1115" y="-507" font-family="FreeSans" font-size="10.00">::dropItem</text>
</a>
</g>
</g>
<!-- Node9&#45;&gt;Node10 -->
<g id="edge9" class="edge"><title>Node9&#45;&gt;Node10</title>
<path fill="none" stroke="midnightblue" d="M946.076,-397.074C962.809,-423.626 993.158,-465.788 1030,-490 1036.36,-494.178 1043.44,-497.678 1050.71,-500.605"/>
<polygon fill="midnightblue" stroke="midnightblue" points="948.955,-395.075 940.737,-388.388 942.992,-398.741 948.955,-395.075"/>
</g>
<!-- Node14 -->
<g id="node14" class="node"><title>Node14</title>
<g id="a_node14"><a xlink:href="classMWGui_1_1CompanionWindow.html#a642ee0f71a0a5ebb344b38d4cdf1b2ef" target="_top" xlink:title="MWGui::CompanionWindow\l::onItemSelected">
<polygon fill="white" stroke="black" points="1047,-402 1047,-432 1183,-432 1183,-402 1047,-402"/>
<text text-anchor="start" x="1055" y="-420" font-family="FreeSans" font-size="10.00">MWGui::CompanionWindow</text>
<text text-anchor="middle" x="1115" y="-409" font-family="FreeSans" font-size="10.00">::onItemSelected</text>
</a>
</g>
</g>
<!-- Node9&#45;&gt;Node14 -->
<g id="edge14" class="edge"><title>Node9&#45;&gt;Node14</title>
<path fill="none" stroke="midnightblue" d="M996.422,-388.575C1014.41,-392.923 1033.91,-397.639 1051.77,-401.956"/>
<polygon fill="midnightblue" stroke="midnightblue" points="997.148,-385.149 986.606,-386.201 995.503,-391.953 997.148,-385.149"/>
</g>
<!-- Node16 -->
<g id="node16" class="node"><title>Node16</title>
<g id="a_node16"><a xlink:href="classMWGui_1_1CompanionWindow.html#ab55804a4ff7cfc55e58334186d725702" target="_top" xlink:title="MWGui::CompanionWindow\l::onBackgroundSelected">
<polygon fill="white" stroke="black" points="1047,-451 1047,-481 1183,-481 1183,-451 1047,-451"/>
<text text-anchor="start" x="1055" y="-469" font-family="FreeSans" font-size="10.00">MWGui::CompanionWindow</text>
<text text-anchor="middle" x="1115" y="-458" font-family="FreeSans" font-size="10.00">::onBackgroundSelected</text>
</a>
</g>
</g>
<!-- Node9&#45;&gt;Node16 -->
<g id="edge16" class="edge"><title>Node9&#45;&gt;Node16</title>
<path fill="none" stroke="midnightblue" d="M957.933,-394.42C976.915,-409.216 1003.82,-428.421 1030,-441 1037.82,-444.756 1046.32,-448.079 1054.81,-450.976"/>
<polygon fill="midnightblue" stroke="midnightblue" points="960.067,-391.645 950.055,-388.177 955.719,-397.131 960.067,-391.645"/>
</g>
<!-- Node17 -->
<g id="node17" class="node"><title>Node17</title>
<g id="a_node17"><a xlink:href="classMWGui_1_1HUD.html#a7371a5a68d01bcecc0574b4ced993df6" target="_top" xlink:title="MWGui::HUD::onWorldClicked">
<polygon fill="white" stroke="black" points="1042,-363.5 1042,-382.5 1188,-382.5 1188,-363.5 1042,-363.5"/>
<text text-anchor="middle" x="1115" y="-370.5" font-family="FreeSans" font-size="10.00">MWGui::HUD::onWorldClicked</text>
</a>
</g>
</g>
<!-- Node9&#45;&gt;Node17 -->
<g id="edge18" class="edge"><title>Node9&#45;&gt;Node17</title>
<path fill="none" stroke="midnightblue" d="M997.009,-373C1011.56,-373 1027.09,-373 1041.91,-373"/>
<polygon fill="midnightblue" stroke="midnightblue" points="996.606,-369.5 986.606,-373 996.606,-376.5 996.606,-369.5"/>
</g>
<!-- Node19 -->
<g id="node19" class="node"><title>Node19</title>
<g id="a_node19"><a xlink:href="classMWGui_1_1InventoryWindow.html#ae4a86f792c1ee4a94ff9be60f53df453" target="_top" xlink:title="MWGui::InventoryWindow\l::onBackgroundSelected">
<polygon fill="white" stroke="black" points="1241,-298 1241,-328 1367,-328 1367,-298 1241,-298"/>
<text text-anchor="start" x="1249" y="-316" font-family="FreeSans" font-size="10.00">MWGui::InventoryWindow</text>
<text text-anchor="middle" x="1304" y="-305" font-family="FreeSans" font-size="10.00">::onBackgroundSelected</text>
</a>
</g>
</g>
<!-- Node9&#45;&gt;Node19 -->
<g id="edge20" class="edge"><title>Node9&#45;&gt;Node19</title>
<path fill="none" stroke="midnightblue" d="M996.682,-360.057C1007.78,-357.951 1019.21,-355.855 1030,-354 1102.15,-341.594 1185.39,-329.396 1240.81,-321.574"/>
<polygon fill="midnightblue" stroke="midnightblue" points="995.772,-356.667 986.609,-361.987 997.089,-363.542 995.772,-356.667"/>
</g>
<!-- Node20 -->
<g id="node20" class="node"><title>Node20</title>
<g id="a_node20"><a xlink:href="classMWGui_1_1InventoryWindow.html#a5b889ff5cadf8ed97fbb98cfe123055d" target="_top" xlink:title="MWGui::InventoryWindow\l::onItemSelectedFromSourceModel">
<polygon fill="white" stroke="black" points="1030.5,-227 1030.5,-257 1199.5,-257 1199.5,-227 1030.5,-227"/>
<text text-anchor="start" x="1038.5" y="-245" font-family="FreeSans" font-size="10.00">MWGui::InventoryWindow</text>
<text text-anchor="middle" x="1115" y="-234" font-family="FreeSans" font-size="10.00">::onItemSelectedFromSourceModel</text>
</a>
</g>
</g>
<!-- Node9&#45;&gt;Node20 -->
<g id="edge22" class="edge"><title>Node9&#45;&gt;Node20</title>
<path fill="none" stroke="midnightblue" d="M973.439,-352.708C980.847,-347.9 988.08,-342.306 994,-336 1017.95,-310.495 1002.95,-288.189 1030,-266 1034.22,-262.537 1038.92,-259.573 1043.87,-257.037"/>
<polygon fill="midnightblue" stroke="midnightblue" points="971.467,-349.811 964.731,-357.988 975.096,-355.797 971.467,-349.811"/>
</g>
<!-- Node11 -->
<g id="node11" class="node"><title>Node11</title>
<g id="a_node11"><a xlink:href="classMWGui_1_1ContainerWindow.html#a4ffe65e3e73969e3f9928b622cbc20c6" target="_top" xlink:title="MWGui::ContainerWindow\l::onItemSelected">
<polygon fill="white" stroke="black" points="1240,-487 1240,-517 1368,-517 1368,-487 1240,-487"/>
<text text-anchor="start" x="1248" y="-505" font-family="FreeSans" font-size="10.00">MWGui::ContainerWindow</text>
<text text-anchor="middle" x="1304" y="-494" font-family="FreeSans" font-size="10.00">::onItemSelected</text>
</a>
</g>
</g>
<!-- Node10&#45;&gt;Node11 -->
<g id="edge10" class="edge"><title>Node10&#45;&gt;Node11</title>
<path fill="none" stroke="midnightblue" d="M1189.32,-509.903C1206.04,-508.741 1223.66,-507.516 1239.91,-506.386"/>
<polygon fill="midnightblue" stroke="midnightblue" points="1188.78,-506.432 1179.05,-510.617 1189.27,-513.415 1188.78,-506.432"/>
</g>
<!-- Node13 -->
<g id="node13" class="node"><title>Node13</title>
<g id="a_node13"><a xlink:href="classMWGui_1_1ContainerWindow.html#a699198d251bc0263a25c3f6d0b705c6a" target="_top" xlink:title="MWGui::ContainerWindow\l::onBackgroundSelected">
<polygon fill="white" stroke="black" points="1240,-536 1240,-566 1368,-566 1368,-536 1240,-536"/>
<text text-anchor="start" x="1248" y="-554" font-family="FreeSans" font-size="10.00">MWGui::ContainerWindow</text>
<text text-anchor="middle" x="1304" y="-543" font-family="FreeSans" font-size="10.00">::onBackgroundSelected</text>
</a>
</g>
</g>
<!-- Node10&#45;&gt;Node13 -->
<g id="edge12" class="edge"><title>Node10&#45;&gt;Node13</title>
<path fill="none" stroke="midnightblue" d="M1189.32,-529.115C1206.04,-532.334 1223.66,-535.726 1239.91,-538.854"/>
<polygon fill="midnightblue" stroke="midnightblue" points="1189.53,-525.591 1179.05,-527.138 1188.21,-532.465 1189.53,-525.591"/>
</g>
<!-- Node12 -->
<g id="node12" class="node"><title>Node12</title>
<g id="a_node12"><a xlink:href="classMWGui_1_1ContainerWindow.html#acfb914937a6eb3a24bde7ea54266dbcd" target="_top" xlink:title="MWGui::ContainerWindow\l::ContainerWindow">
<polygon fill="white" stroke="black" points="1408,-511 1408,-541 1536,-541 1536,-511 1408,-511"/>
<text text-anchor="start" x="1416" y="-529" font-family="FreeSans" font-size="10.00">MWGui::ContainerWindow</text>
<text text-anchor="middle" x="1472" y="-518" font-family="FreeSans" font-size="10.00">::ContainerWindow</text>
</a>
</g>
</g>
<!-- Node11&#45;&gt;Node12 -->
<g id="edge11" class="edge"><title>Node11&#45;&gt;Node12</title>
<path fill="none" stroke="midnightblue" d="M1378.41,-512.613C1388.26,-514.037 1398.29,-515.488 1407.94,-516.884"/>
<polygon fill="midnightblue" stroke="midnightblue" points="1378.63,-509.109 1368.23,-511.142 1377.63,-516.037 1378.63,-509.109"/>
</g>
<!-- Node13&#45;&gt;Node12 -->
<g id="edge13" class="edge"><title>Node13&#45;&gt;Node12</title>
<path fill="none" stroke="midnightblue" d="M1378.41,-539.945C1388.26,-538.461 1398.29,-536.95 1407.94,-535.496"/>
<polygon fill="midnightblue" stroke="midnightblue" points="1377.6,-536.527 1368.23,-541.477 1378.64,-543.449 1377.6,-536.527"/>
</g>
<!-- Node15 -->
<g id="node15" class="node"><title>Node15</title>
<g id="a_node15"><a xlink:href="classMWGui_1_1CompanionWindow.html#a3cfb5477756f65fbcb82ad9452c9399e" target="_top" xlink:title="MWGui::CompanionWindow\l::CompanionWindow">
<polygon fill="white" stroke="black" points="1236,-414 1236,-444 1372,-444 1372,-414 1236,-414"/>
<text text-anchor="start" x="1244" y="-432" font-family="FreeSans" font-size="10.00">MWGui::CompanionWindow</text>
<text text-anchor="middle" x="1304" y="-421" font-family="FreeSans" font-size="10.00">::CompanionWindow</text>
</a>
</g>
</g>
<!-- Node14&#45;&gt;Node15 -->
<g id="edge15" class="edge"><title>Node14&#45;&gt;Node15</title>
<path fill="none" stroke="midnightblue" d="M1193.37,-421.965C1207.43,-422.867 1221.99,-423.801 1235.72,-424.683"/>
<polygon fill="midnightblue" stroke="midnightblue" points="1193.45,-418.463 1183.25,-421.315 1193,-425.449 1193.45,-418.463"/>
</g>
<!-- Node16&#45;&gt;Node15 -->
<g id="edge17" class="edge"><title>Node16&#45;&gt;Node15</title>
<path fill="none" stroke="midnightblue" d="M1193.37,-450.691C1207.43,-447.91 1221.99,-445.029 1235.72,-442.312"/>
<polygon fill="midnightblue" stroke="midnightblue" points="1192.38,-447.32 1183.25,-452.694 1193.74,-454.187 1192.38,-447.32"/>
</g>
<!-- Node18 -->
<g id="node18" class="node"><title>Node18</title>
<g id="a_node18"><a xlink:href="classMWGui_1_1HUD.html#a461afa538370aed6d6283441e44dedd2" target="_top" xlink:title="MWGui::HUD::HUD">
<polygon fill="white" stroke="black" points="1255,-363.5 1255,-382.5 1353,-382.5 1353,-363.5 1255,-363.5"/>
<text text-anchor="middle" x="1304" y="-370.5" font-family="FreeSans" font-size="10.00">MWGui::HUD::HUD</text>
</a>
</g>
</g>
<!-- Node17&#45;&gt;Node18 -->
<g id="edge19" class="edge"><title>Node17&#45;&gt;Node18</title>
<path fill="none" stroke="midnightblue" d="M1198.12,-373C1217.55,-373 1237.66,-373 1255,-373"/>
<polygon fill="midnightblue" stroke="midnightblue" points="1198.03,-369.5 1188.03,-373 1198.03,-376.5 1198.03,-369.5"/>
</g>
<!-- Node19&#45;&gt;Node4 -->
<g id="edge21" class="edge"><title>Node19&#45;&gt;Node4</title>
<path fill="none" stroke="midnightblue" d="M1341.53,-292.976C1372.3,-276.104 1415.66,-252.338 1443.55,-237.049"/>
<polygon fill="midnightblue" stroke="midnightblue" points="1339.5,-290.097 1332.41,-297.973 1342.86,-296.235 1339.5,-290.097"/>
</g>
<!-- Node21 -->
<g id="node21" class="node"><title>Node21</title>
<g id="a_node21"><a xlink:href="classMWGui_1_1InventoryWindow.html#abbdeec7917453c0625d82da5adf58b7d" target="_top" xlink:title="MWGui::InventoryWindow\l::onItemSelected">
<polygon fill="white" stroke="black" points="1241,-232 1241,-262 1367,-262 1367,-232 1241,-232"/>
<text text-anchor="start" x="1249" y="-250" font-family="FreeSans" font-size="10.00">MWGui::InventoryWindow</text>
<text text-anchor="middle" x="1304" y="-239" font-family="FreeSans" font-size="10.00">::onItemSelected</text>
</a>
</g>
</g>
<!-- Node20&#45;&gt;Node21 -->
<g id="edge23" class="edge"><title>Node20&#45;&gt;Node21</title>
<path fill="none" stroke="midnightblue" d="M1209.72,-244.506C1220.24,-244.787 1230.75,-245.068 1240.73,-245.335"/>
<polygon fill="midnightblue" stroke="midnightblue" points="1209.74,-241.005 1199.65,-244.237 1209.56,-248.003 1209.74,-241.005"/>
</g>
<!-- Node22 -->
<g id="node22" class="node"><title>Node22</title>
<g id="a_node22"><a xlink:href="classMWGui_1_1InventoryWindow.html#ac0cf452b697e42ebb942910bdc98db4c" target="_top" xlink:title="MWGui::InventoryWindow\l::onAvatarClicked">
<polygon fill="white" stroke="black" points="1241,-183 1241,-213 1367,-213 1367,-183 1241,-183"/>
<text text-anchor="start" x="1249" y="-201" font-family="FreeSans" font-size="10.00">MWGui::InventoryWindow</text>
<text text-anchor="middle" x="1304" y="-190" font-family="FreeSans" font-size="10.00">::onAvatarClicked</text>
</a>
</g>
</g>
<!-- Node20&#45;&gt;Node22 -->
<g id="edge25" class="edge"><title>Node20&#45;&gt;Node22</title>
<path fill="none" stroke="midnightblue" d="M1189.66,-224.669C1206.56,-220.693 1224.36,-216.504 1240.72,-212.654"/>
<polygon fill="midnightblue" stroke="midnightblue" points="1188.76,-221.283 1179.83,-226.981 1190.37,-228.097 1188.76,-221.283"/>
</g>
<!-- Node21&#45;&gt;Node4 -->
<g id="edge24" class="edge"><title>Node21&#45;&gt;Node4</title>
<path fill="none" stroke="midnightblue" d="M1377.29,-236.112C1387.83,-234.525 1398.61,-232.903 1408.92,-231.35"/>
<polygon fill="midnightblue" stroke="midnightblue" points="1376.65,-232.67 1367.28,-237.62 1377.69,-239.591 1376.65,-232.67"/>
</g>
<!-- Node22&#45;&gt;Node4 -->
<g id="edge26" class="edge"><title>Node22&#45;&gt;Node4</title>
<path fill="none" stroke="midnightblue" d="M1377.29,-208.452C1387.83,-209.976 1398.61,-211.533 1408.92,-213.024"/>
<polygon fill="midnightblue" stroke="midnightblue" points="1377.68,-204.972 1367.28,-207.005 1376.68,-211.9 1377.68,-204.972"/>
</g>
<!-- Node24 -->
<g id="node24" class="node"><title>Node24</title>
<g id="a_node24"><a xlink:href="classMWGui_1_1InventoryWindow.html#a5f8042a02153694f39525c94ccf7f388" target="_top" xlink:title="MWGui::InventoryWindow\l::dragItem">
<polygon fill="white" stroke="black" points="868,-199 868,-229 994,-229 994,-199 868,-199"/>
<text text-anchor="start" x="876" y="-217" font-family="FreeSans" font-size="10.00">MWGui::InventoryWindow</text>
<text text-anchor="middle" x="931" y="-206" font-family="FreeSans" font-size="10.00">::dragItem</text>
</a>
</g>
</g>
<!-- Node23&#45;&gt;Node24 -->
<g id="edge28" class="edge"><title>Node23&#45;&gt;Node24</title>
<path fill="none" stroke="midnightblue" d="M841.644,-231.069C850.462,-229.365 859.286,-227.661 867.759,-226.024"/>
<polygon fill="midnightblue" stroke="midnightblue" points="840.863,-227.655 831.708,-232.988 842.191,-234.528 840.863,-227.655"/>
</g>
<!-- Node25 -->
<g id="node25" class="node"><title>Node25</title>
<g id="a_node25"><a xlink:href="classMWGui_1_1InventoryWindow.html#a8f3658d8fd060461e3f6c63eca1530f9" target="_top" xlink:title="MWGui::InventoryWindow\l::sellItem">
<polygon fill="white" stroke="black" points="868,-248 868,-278 994,-278 994,-248 868,-248"/>
<text text-anchor="start" x="876" y="-266" font-family="FreeSans" font-size="10.00">MWGui::InventoryWindow</text>
<text text-anchor="middle" x="931" y="-255" font-family="FreeSans" font-size="10.00">::sellItem</text>
</a>
</g>
</g>
<!-- Node23&#45;&gt;Node25 -->
<g id="edge30" class="edge"><title>Node23&#45;&gt;Node25</title>
<path fill="none" stroke="midnightblue" d="M842.329,-255.528C850.955,-256.263 859.576,-256.998 867.862,-257.704"/>
<polygon fill="midnightblue" stroke="midnightblue" points="842.482,-252.028 832.221,-254.667 841.888,-259.003 842.482,-252.028"/>
</g>
<!-- Node24&#45;&gt;Node20 -->
<g id="edge29" class="edge"><title>Node24&#45;&gt;Node20</title>
<path fill="none" stroke="midnightblue" d="M1004.09,-225.091C1012.69,-226.414 1021.52,-227.773 1030.27,-229.118"/>
<polygon fill="midnightblue" stroke="midnightblue" points="1004.54,-221.619 994.125,-223.558 1003.48,-228.538 1004.54,-221.619"/>
</g>
<!-- Node25&#45;&gt;Node20 -->
<g id="edge31" class="edge"><title>Node25&#45;&gt;Node20</title>
<path fill="none" stroke="midnightblue" d="M1004.09,-254.682C1012.69,-253.69 1021.52,-252.671 1030.27,-251.662"/>
<polygon fill="midnightblue" stroke="midnightblue" points="1003.66,-251.208 994.125,-255.832 1004.46,-258.162 1003.66,-251.208"/>
</g>
<!-- Node26&#45;&gt;Node22 -->
<g id="edge33" class="edge"><title>Node26&#45;&gt;Node22</title>
<path fill="none" stroke="midnightblue" d="M986.935,-135.68C989.373,-137.045 991.741,-138.485 994,-140 1013.32,-152.96 1008.98,-168.032 1030,-178 1096.88,-209.712 1183.43,-210.24 1240.96,-205.79"/>
<polygon fill="midnightblue" stroke="midnightblue" points="988.369,-132.483 977.87,-131.062 985.191,-138.72 988.369,-132.483"/>
</g>
<!-- Node27 -->
<g id="node27" class="node"><title>Node27</title>
<g id="a_node27"><a xlink:href="classMWGui_1_1InventoryWindow.html#a7ec2e0d7967f777ee7ee3f3cb830688f" target="_top" xlink:title="Cycle to previous/next weapon. ">
<polygon fill="white" stroke="black" points="1052,-90 1052,-120 1178,-120 1178,-90 1052,-90"/>
<text text-anchor="start" x="1060" y="-108" font-family="FreeSans" font-size="10.00">MWGui::InventoryWindow</text>
<text text-anchor="middle" x="1115" y="-97" font-family="FreeSans" font-size="10.00">::cycle</text>
</a>
</g>
</g>
<!-- Node26&#45;&gt;Node27 -->
<g id="edge34" class="edge"><title>Node26&#45;&gt;Node27</title>
<path fill="none" stroke="midnightblue" d="M1004.33,-111.629C1020.05,-110.678 1036.56,-109.681 1051.85,-108.757"/>
<polygon fill="midnightblue" stroke="midnightblue" points="1003.9,-108.148 994.125,-112.245 1004.32,-115.135 1003.9,-108.148"/>
</g>
<!-- Node29 -->
<g id="node29" class="node"><title>Node29</title>
<g id="a_node29"><a xlink:href="classMWGui_1_1WindowManager.html#a55fe5fa920527daa8a8e1d591efa062a" target="_top" xlink:title="Make the player use an item, while updating GUI state accordingly. ">
<polygon fill="white" stroke="black" points="1052.5,-139 1052.5,-169 1177.5,-169 1177.5,-139 1052.5,-139"/>
<text text-anchor="start" x="1060.5" y="-157" font-family="FreeSans" font-size="10.00">MWGui::WindowManager</text>
<text text-anchor="middle" x="1115" y="-146" font-family="FreeSans" font-size="10.00">::useItem</text>
</a>
</g>
</g>
<!-- Node26&#45;&gt;Node29 -->
<g id="edge36" class="edge"><title>Node26&#45;&gt;Node29</title>
<path fill="none" stroke="midnightblue" d="M1003.99,-131.03C1020.03,-134.379 1036.89,-137.9 1052.46,-141.152"/>
<polygon fill="midnightblue" stroke="midnightblue" points="1004.63,-127.589 994.125,-128.971 1003.2,-134.441 1004.63,-127.589"/>
</g>
<!-- Node28 -->
<g id="node28" class="node"><title>Node28</title>
<g id="a_node28"><a xlink:href="classMWGui_1_1WindowManager.html#a092fe5e0d8463463d1f3d3820a7b72f8" target="_top" xlink:title="Cycle to next or previous weapon. ">
<polygon fill="white" stroke="black" points="1241.5,-90 1241.5,-120 1366.5,-120 1366.5,-90 1241.5,-90"/>
<text text-anchor="start" x="1249.5" y="-108" font-family="FreeSans" font-size="10.00">MWGui::WindowManager</text>
<text text-anchor="middle" x="1304" y="-97" font-family="FreeSans" font-size="10.00">::cycleWeapon</text>
</a>
</g>
</g>
<!-- Node27&#45;&gt;Node28 -->
<g id="edge35" class="edge"><title>Node27&#45;&gt;Node28</title>
<path fill="none" stroke="midnightblue" d="M1188.22,-105C1205.8,-105 1224.44,-105 1241.48,-105"/>
<polygon fill="midnightblue" stroke="midnightblue" points="1188.01,-101.5 1178.01,-105 1188.01,-108.5 1188.01,-101.5"/>
</g>
<!-- Node31 -->
<g id="node31" class="node"><title>Node31</title>
<g id="a_node31"><a xlink:href="classMWGui_1_1TradeWindow.html#a11b89e5e7f455aee88c44e52939c9156" target="_top" xlink:title="MWGui::TradeWindow\l::onItemSelected">
<polygon fill="white" stroke="black" points="875,-297 875,-327 987,-327 987,-297 875,-297"/>
<text text-anchor="start" x="883" y="-315" font-family="FreeSans" font-size="10.00">MWGui::TradeWindow</text>
<text text-anchor="middle" x="931" y="-304" font-family="FreeSans" font-size="10.00">::onItemSelected</text>
</a>
</g>
</g>
<!-- Node30&#45;&gt;Node31 -->
<g id="edge38" class="edge"><title>Node30&#45;&gt;Node31</title>
<path fill="none" stroke="midnightblue" d="M819.224,-303.818C837.561,-305.172 857.314,-306.631 874.991,-307.937"/>
<polygon fill="midnightblue" stroke="midnightblue" points="819.435,-300.324 809.205,-303.078 818.92,-307.305 819.435,-300.324"/>
</g>
<!-- Node32 -->
<g id="node32" class="node"><title>Node32</title>
<g id="a_node32"><a xlink:href="classMWGui_1_1TradeWindow.html#a248abab136a95b1b94939a386ed40c71" target="_top" xlink:title="MWGui::TradeWindow\l::TradeWindow">
<polygon fill="white" stroke="black" points="1059,-276 1059,-306 1171,-306 1171,-276 1059,-276"/>
<text text-anchor="start" x="1067" y="-294" font-family="FreeSans" font-size="10.00">MWGui::TradeWindow</text>
<text text-anchor="middle" x="1115" y="-283" font-family="FreeSans" font-size="10.00">::TradeWindow</text>
</a>
</g>
</g>
<!-- Node31&#45;&gt;Node32 -->
<g id="edge39" class="edge"><title>Node31&#45;&gt;Node32</title>
<path fill="none" stroke="midnightblue" d="M997.145,-304.483C1017.32,-302.156 1039.34,-299.615 1058.77,-297.372"/>
<polygon fill="midnightblue" stroke="midnightblue" points="996.633,-301.019 987.1,-305.642 997.435,-307.973 996.633,-301.019"/>
</g>
<!-- Node33&#45;&gt;Node24 -->
<g id="edge41" class="edge"><title>Node33&#45;&gt;Node24</title>
<path fill="none" stroke="midnightblue" d="M826.047,-202.187C839.938,-203.766 854.376,-205.406 867.916,-206.945"/>
<polygon fill="midnightblue" stroke="midnightblue" points="826.382,-198.703 816.051,-201.051 825.592,-205.658 826.382,-198.703"/>
</g>
<!-- Node33&#45;&gt;Node25 -->
<g id="edge42" class="edge"><title>Node33&#45;&gt;Node25</title>
<path fill="none" stroke="midnightblue" d="M805.034,-212.65C814.042,-216.034 823.314,-219.577 832,-223 848.126,-229.355 851.962,-231.425 868,-238 875.947,-241.258 884.48,-244.721 892.596,-247.999"/>
<polygon fill="midnightblue" stroke="midnightblue" points="805.997,-209.273 795.404,-209.054 803.547,-215.831 805.997,-209.273"/>
</g>
<!-- Node33&#45;&gt;Node26 -->
<g id="edge44" class="edge"><title>Node33&#45;&gt;Node26</title>
<path fill="none" stroke="midnightblue" d="M807.432,-175.26C815.792,-171.813 824.23,-168.022 832,-164 849.078,-155.161 850.932,-148.857 868,-140 874.147,-136.81 880.818,-133.797 887.431,-131.054"/>
<polygon fill="midnightblue" stroke="midnightblue" points="806.056,-172.041 798.067,-178.999 808.652,-178.542 806.056,-172.041"/>
</g>
<!-- Node34 -->
<g id="node34" class="node"><title>Node34</title>
<g id="a_node34"><a xlink:href="classMWGui_1_1InventoryWindow.html#ac7d616bb2a9dc937ef5e4b31ae78bf87" target="_top" xlink:title="Notify that window has been made visible. ">
<polygon fill="white" stroke="black" points="868,-150 868,-180 994,-180 994,-150 868,-150"/>
<text text-anchor="start" x="876" y="-168" font-family="FreeSans" font-size="10.00">MWGui::InventoryWindow</text>
<text text-anchor="middle" x="931" y="-157" font-family="FreeSans" font-size="10.00">::open</text>
</a>
</g>
</g>
<!-- Node33&#45;&gt;Node34 -->
<g id="edge43" class="edge"><title>Node33&#45;&gt;Node34</title>
<path fill="none" stroke="midnightblue" d="M826.047,-182.129C839.938,-179.84 854.376,-177.461 867.916,-175.23"/>
<polygon fill="midnightblue" stroke="midnightblue" points="825.349,-178.696 816.051,-183.776 826.487,-185.603 825.349,-178.696"/>
</g>
<!-- Node36 -->
<g id="node36" class="node"><title>Node36</title>
<g id="a_node36"><a xlink:href="namespaceMWMechanics.html#a2f24aadfa3ffbb60450dc007e7143492" target="_top" xlink:title="MWMechanics::prepareNext\lAction">
<polygon fill="white" stroke="black" points="336.5,-0 336.5,-30 473.5,-30 473.5,-0 336.5,-0"/>
<text text-anchor="start" x="344.5" y="-18" font-family="FreeSans" font-size="10.00">MWMechanics::prepareNext</text>
<text text-anchor="middle" x="405" y="-7" font-family="FreeSans" font-size="10.00">Action</text>
</a>
</g>
</g>
<!-- Node35&#45;&gt;Node36 -->
<g id="edge46" class="edge"><title>Node35&#45;&gt;Node36</title>
<path fill="none" stroke="midnightblue" d="M310.396,-15C319.031,-15 327.794,-15 336.32,-15"/>
<polygon fill="midnightblue" stroke="midnightblue" points="310.34,-11.5001 300.34,-15 310.34,-18.5001 310.34,-11.5001"/>
</g>
<!-- Node37 -->
<g id="node37" class="node"><title>Node37</title>
<g id="a_node37"><a xlink:href="classMWMechanics_1_1AiCombat.html#a3caa2cf9b536a6d5a8826e3142391855" target="_top" xlink:title="Returns true if combat should end. ">
<polygon fill="white" stroke="black" points="510,-0 510,-30 638,-30 638,-0 510,-0"/>
<text text-anchor="start" x="518" y="-18" font-family="FreeSans" font-size="10.00">MWMechanics::AiCombat</text>
<text text-anchor="middle" x="574" y="-7" font-family="FreeSans" font-size="10.00">::attack</text>
</a>
</g>
</g>
<!-- Node36&#45;&gt;Node37 -->
<g id="edge47" class="edge"><title>Node36&#45;&gt;Node37</title>
<path fill="none" stroke="midnightblue" d="M484.064,-15C492.751,-15 501.517,-15 509.983,-15"/>
<polygon fill="midnightblue" stroke="midnightblue" points="483.925,-11.5001 473.925,-15 483.925,-18.5001 483.925,-11.5001"/>
</g>
<!-- Node38 -->
<g id="node38" class="node"><title>Node38</title>
<g id="a_node38"><a xlink:href="classMWMechanics_1_1AiCombat.html#aa5b6e62fabdd5c9a59ca540992330bce" target="_top" xlink:title="MWMechanics::AiCombat\l::execute">
<polygon fill="white" stroke="black" points="689,-0 689,-30 817,-30 817,-0 689,-0"/>
<text text-anchor="start" x="697" y="-18" font-family="FreeSans" font-size="10.00">MWMechanics::AiCombat</text>
<text text-anchor="middle" x="753" y="-7" font-family="FreeSans" font-size="10.00">::execute</text>
</a>
</g>
</g>
<!-- Node37&#45;&gt;Node38 -->
<g id="edge48" class="edge"><title>Node37&#45;&gt;Node38</title>
<path fill="none" stroke="midnightblue" d="M648.509,-15C661.873,-15 675.707,-15 688.744,-15"/>
<polygon fill="midnightblue" stroke="midnightblue" points="648.401,-11.5001 638.401,-15 648.401,-18.5001 648.401,-11.5001"/>
</g>
</g>
</svg>
