<?xml version="1.0" encoding="UTF-8" standalone="no"?>
<!DOCTYPE svg PUBLIC "-//W3C//DTD SVG 1.1//EN"
 "http://www.w3.org/Graphics/SVG/1.1/DTD/svg11.dtd">
<!-- Generated by graphviz version 2.36.0 (20140111.2315)
 -->
<!-- Title: CSVRender::CameraController::setCameraSensitivity Pages: 1 -->
<svg width="542pt" height="87pt"
 viewBox="0.00 0.00 542.00 87.00" xmlns="http://www.w3.org/2000/svg" xmlns:xlink="http://www.w3.org/1999/xlink">
<g id="graph0" class="graph" transform="scale(1 1) rotate(0) translate(4 83)">
<title>CSVRender::CameraController::setCameraSensitivity</title>
<polygon fill="white" stroke="none" points="-4,4 -4,-83 538,-83 538,4 -4,4"/>
<!-- Node1 -->
<g id="node1" class="node"><title>Node1</title>
<polygon fill="#bfbfbf" stroke="black" points="0.5,-24 0.5,-54 161.5,-54 161.5,-24 0.5,-24"/>
<text text-anchor="start" x="8.5" y="-42" font-family="FreeSans" font-size="10.00">CSVRender::CameraController</text>
<text text-anchor="middle" x="81" y="-31" font-family="FreeSans" font-size="10.00">::setCameraSensitivity</text>
</g>
<!-- Node2 -->
<g id="node2" class="node"><title>Node2</title>
<g id="a_node2"><a xlink:href="classCSVRender_1_1SceneWidget.html#a7f0316a51880492f46308e3b20018bd1" target="_top" xlink:title="CSVRender::SceneWidget\l::settingChanged">
<polygon fill="white" stroke="black" points="198,-24 198,-54 336,-54 336,-24 198,-24"/>
<text text-anchor="start" x="206" y="-42" font-family="FreeSans" font-size="10.00">CSVRender::SceneWidget</text>
<text text-anchor="middle" x="267" y="-31" font-family="FreeSans" font-size="10.00">::settingChanged</text>
</a>
</g>
</g>
<!-- Node1&#45;&gt;Node2 -->
<g id="edge1" class="edge"><title>Node1&#45;&gt;Node2</title>
<path fill="none" stroke="midnightblue" d="M171.846,-39C180.571,-39 189.321,-39 197.783,-39"/>
<polygon fill="midnightblue" stroke="midnightblue" points="171.635,-35.5001 161.635,-39 171.635,-42.5001 171.635,-35.5001"/>
</g>
<!-- Node3 -->
<g id="node3" class="node"><title>Node3</title>
<g id="a_node3"><a xlink:href="classCSVRender_1_1SceneWidget.html#a717bf80c5678b4c8fde8541c992e065a" target="_top" xlink:title="CSVRender::SceneWidget\l::SceneWidget">
<polygon fill="white" stroke="black" points="384,-49 384,-79 522,-79 522,-49 384,-49"/>
<text text-anchor="start" x="392" y="-67" font-family="FreeSans" font-size="10.00">CSVRender::SceneWidget</text>
<text text-anchor="middle" x="453" y="-56" font-family="FreeSans" font-size="10.00">::SceneWidget</text>
</a>
</g>
</g>
<!-- Node2&#45;&gt;Node3 -->
<g id="edge2" class="edge"><title>Node2&#45;&gt;Node3</title>
<path fill="none" stroke="midnightblue" d="M346.202,-49.6253C358.724,-51.3266 371.594,-53.0753 383.857,-54.7414"/>
<polygon fill="midnightblue" stroke="midnightblue" points="346.634,-46.1518 336.253,-48.2736 345.691,-53.0881 346.634,-46.1518"/>
</g>
<!-- Node4 -->
<g id="node4" class="node"><title>Node4</title>
<g id="a_node4"><a xlink:href="classCSVRender_1_1WorldspaceWidget.html#aa2224a2d631f5f289a031eaf3c8d8399" target="_top" xlink:title="CSVRender::WorldspaceWidget\l::settingChanged">
<polygon fill="white" stroke="black" points="372,-0 372,-30 534,-30 534,-0 372,-0"/>
<text text-anchor="start" x="380" y="-18" font-family="FreeSans" font-size="10.00">CSVRender::WorldspaceWidget</text>
<text text-anchor="middle" x="453" y="-7" font-family="FreeSans" font-size="10.00">::settingChanged</text>
</a>
</g>
</g>
<!-- Node2&#45;&gt;Node4 -->
<g id="edge3" class="edge"><title>Node2&#45;&gt;Node4</title>
<path fill="none" stroke="midnightblue" d="M346.391,-28.7751C354.78,-27.6809 363.324,-26.5665 371.735,-25.4694"/>
<polygon fill="midnightblue" stroke="midnightblue" points="345.717,-25.3333 336.253,-30.0974 346.622,-32.2745 345.717,-25.3333"/>
</g>
</g>
</svg>
