<?xml version="1.0" encoding="UTF-8" standalone="no"?>
<!DOCTYPE svg PUBLIC "-//W3C//DTD SVG 1.1//EN"
 "http://www.w3.org/Graphics/SVG/1.1/DTD/svg11.dtd">
<!-- Generated by graphviz version 2.36.0 (20140111.2315)
 -->
<!-- Title: MWWorld::CellStore::getFog Pages: 1 -->
<svg width="752pt" height="87pt"
 viewBox="0.00 0.00 752.00 87.00" xmlns="http://www.w3.org/2000/svg" xmlns:xlink="http://www.w3.org/1999/xlink">
<g id="graph0" class="graph" transform="scale(1 1) rotate(0) translate(4 83)">
<title>MWWorld::CellStore::getFog</title>
<polygon fill="white" stroke="none" points="-4,4 -4,-83 748,-83 748,4 -4,4"/>
<!-- Node1 -->
<g id="node1" class="node"><title>Node1</title>
<polygon fill="#bfbfbf" stroke="black" points="0,-24 0,-54 108,-54 108,-24 0,-24"/>
<text text-anchor="start" x="8" y="-42" font-family="FreeSans" font-size="10.00">MWWorld::CellStore</text>
<text text-anchor="middle" x="54" y="-31" font-family="FreeSans" font-size="10.00">::getFog</text>
</g>
<!-- Node2 -->
<g id="node2" class="node"><title>Node2</title>
<g id="a_node2"><a xlink:href="classMWRender_1_1LocalMap.html#ab489ae70f6052443432cade451c22ace" target="_top" xlink:title="MWRender::LocalMap\l::requestExteriorMap">
<polygon fill="white" stroke="black" points="144.5,-49 144.5,-79 261.5,-79 261.5,-49 144.5,-49"/>
<text text-anchor="start" x="152.5" y="-67" font-family="FreeSans" font-size="10.00">MWRender::LocalMap</text>
<text text-anchor="middle" x="203" y="-56" font-family="FreeSans" font-size="10.00">::requestExteriorMap</text>
</a>
</g>
</g>
<!-- Node1&#45;&gt;Node2 -->
<g id="edge1" class="edge"><title>Node1&#45;&gt;Node2</title>
<path fill="none" stroke="midnightblue" d="M118.143,-49.7386C126.826,-51.2153 135.706,-52.7254 144.284,-54.1844"/>
<polygon fill="midnightblue" stroke="midnightblue" points="118.516,-46.2518 108.07,-48.0256 117.342,-53.1527 118.516,-46.2518"/>
</g>
<!-- Node6 -->
<g id="node6" class="node"><title>Node6</title>
<g id="a_node6"><a xlink:href="classMWRender_1_1LocalMap.html#aa734324143122bfe658a27e2e782147b" target="_top" xlink:title="MWRender::LocalMap\l::requestInteriorMap">
<polygon fill="white" stroke="black" points="144.5,-0 144.5,-30 261.5,-30 261.5,-0 144.5,-0"/>
<text text-anchor="start" x="152.5" y="-18" font-family="FreeSans" font-size="10.00">MWRender::LocalMap</text>
<text text-anchor="middle" x="203" y="-7" font-family="FreeSans" font-size="10.00">::requestInteriorMap</text>
</a>
</g>
</g>
<!-- Node1&#45;&gt;Node6 -->
<g id="edge5" class="edge"><title>Node1&#45;&gt;Node6</title>
<path fill="none" stroke="midnightblue" d="M118.143,-28.6909C126.826,-27.2733 135.706,-25.8236 144.284,-24.423"/>
<polygon fill="midnightblue" stroke="midnightblue" points="117.376,-25.2698 108.07,-30.3354 118.504,-32.1783 117.376,-25.2698"/>
</g>
<!-- Node3 -->
<g id="node3" class="node"><title>Node3</title>
<g id="a_node3"><a xlink:href="classMWRender_1_1LocalMap.html#a77af39494a96fb9499da49897720eaf6" target="_top" xlink:title="MWRender::LocalMap\l::requestMap">
<polygon fill="white" stroke="black" points="298.5,-24 298.5,-54 415.5,-54 415.5,-24 298.5,-24"/>
<text text-anchor="start" x="306.5" y="-42" font-family="FreeSans" font-size="10.00">MWRender::LocalMap</text>
<text text-anchor="middle" x="357" y="-31" font-family="FreeSans" font-size="10.00">::requestMap</text>
</a>
</g>
</g>
<!-- Node2&#45;&gt;Node3 -->
<g id="edge2" class="edge"><title>Node2&#45;&gt;Node3</title>
<path fill="none" stroke="midnightblue" d="M271.786,-52.8509C280.624,-51.3974 289.611,-49.9192 298.263,-48.4963"/>
<polygon fill="midnightblue" stroke="midnightblue" points="271.198,-49.4006 261.898,-54.4773 272.334,-56.3078 271.198,-49.4006"/>
</g>
<!-- Node4 -->
<g id="node4" class="node"><title>Node4</title>
<g id="a_node4"><a xlink:href="classMWGui_1_1LocalMapBase.html#aacaa6e94c7483249b4c1adc6d58a89ec" target="_top" xlink:title="MWGui::LocalMapBase\l::requestMapRender">
<polygon fill="white" stroke="black" points="452,-24 452,-54 576,-54 576,-24 452,-24"/>
<text text-anchor="start" x="460" y="-42" font-family="FreeSans" font-size="10.00">MWGui::LocalMapBase</text>
<text text-anchor="middle" x="514" y="-31" font-family="FreeSans" font-size="10.00">::requestMapRender</text>
</a>
</g>
</g>
<!-- Node3&#45;&gt;Node4 -->
<g id="edge3" class="edge"><title>Node3&#45;&gt;Node4</title>
<path fill="none" stroke="midnightblue" d="M425.794,-39C434.467,-39 443.304,-39 451.862,-39"/>
<polygon fill="midnightblue" stroke="midnightblue" points="425.716,-35.5001 415.716,-39 425.716,-42.5001 425.716,-35.5001"/>
</g>
<!-- Node5 -->
<g id="node5" class="node"><title>Node5</title>
<g id="a_node5"><a xlink:href="classMWGui_1_1WindowManager.html#a279b3ec362fcbfb70f5a1bd9946e3240" target="_top" xlink:title="change the active cell ">
<polygon fill="white" stroke="black" points="612,-24 612,-54 744,-54 744,-24 612,-24"/>
<text text-anchor="start" x="620" y="-42" font-family="FreeSans" font-size="10.00">MWGui::WindowManager</text>
<text text-anchor="middle" x="678" y="-31" font-family="FreeSans" font-size="10.00">::changeCell</text>
</a>
</g>
</g>
<!-- Node4&#45;&gt;Node5 -->
<g id="edge4" class="edge"><title>Node4&#45;&gt;Node5</title>
<path fill="none" stroke="midnightblue" d="M586.467,-39C594.924,-39 603.522,-39 611.885,-39"/>
<polygon fill="midnightblue" stroke="midnightblue" points="586.245,-35.5001 576.245,-39 586.245,-42.5001 586.245,-35.5001"/>
</g>
<!-- Node6&#45;&gt;Node3 -->
<g id="edge6" class="edge"><title>Node6&#45;&gt;Node3</title>
<path fill="none" stroke="midnightblue" d="M271.786,-25.7031C280.624,-27.0985 289.611,-28.5175 298.263,-29.8836"/>
<polygon fill="midnightblue" stroke="midnightblue" points="272.322,-22.2444 261.898,-24.1418 271.23,-29.1587 272.322,-22.2444"/>
</g>
</g>
</svg>
