<?xml version="1.0" encoding="UTF-8" standalone="no"?>
<!DOCTYPE svg PUBLIC "-//W3C//DTD SVG 1.1//EN"
 "http://www.w3.org/Graphics/SVG/1.1/DTD/svg11.dtd">
<!-- Generated by graphviz version 2.36.0 (20140111.2315)
 -->
<!-- Title: CSMWorld::NpcRefIdAdapter Pages: 1 -->
<svg width="846pt" height="1608pt"
 viewBox="0.00 0.00 846.00 1608.00" xmlns="http://www.w3.org/2000/svg" xmlns:xlink="http://www.w3.org/1999/xlink">
<g id="graph0" class="graph" transform="scale(1 1) rotate(0) translate(4 1604)">
<title>CSMWorld::NpcRefIdAdapter</title>
<polygon fill="white" stroke="none" points="-4,4 -4,-1604 842,-1604 842,4 -4,4"/>
<!-- Node1 -->
<g id="node1" class="node"><title>Node1</title>
<polygon fill="#bfbfbf" stroke="black" points="485.5,-0.5 485.5,-79.5 634.5,-79.5 634.5,-0.5 485.5,-0.5"/>
<text text-anchor="middle" x="560" y="-67.5" font-family="FreeSans" font-size="10.00">CSMWorld::NpcRefIdAdapter</text>
<polyline fill="none" stroke="black" points="485.5,-60.5 634.5,-60.5 "/>
<text text-anchor="middle" x="560" y="-48.5" font-family="FreeSans" font-size="10.00"> </text>
<polyline fill="none" stroke="black" points="485.5,-41.5 634.5,-41.5 "/>
<text text-anchor="start" x="493.5" y="-29.5" font-family="FreeSans" font-size="10.00">+ NpcRefIdAdapter()</text>
<text text-anchor="start" x="493.5" y="-18.5" font-family="FreeSans" font-size="10.00">+ getData()</text>
<text text-anchor="start" x="493.5" y="-7.5" font-family="FreeSans" font-size="10.00">+ setData()</text>
</g>
<!-- Node2 -->
<g id="node2" class="node"><title>Node2</title>
<g id="a_node2"><a xlink:href="classCSMWorld_1_1ActorRefIdAdapter.html" target="_top" xlink:title="{CSMWorld::ActorRefIdAdapter\l\&lt; ESM::NPC \&gt;\n||+ ActorRefIdAdapter()\l+ getData()\l+ setData()\l}">
<polygon fill="white" stroke="black" points="386,-129 386,-219 542,-219 542,-129 386,-129"/>
<text text-anchor="start" x="394" y="-207" font-family="FreeSans" font-size="10.00">CSMWorld::ActorRefIdAdapter</text>
<text text-anchor="middle" x="464" y="-196" font-family="FreeSans" font-size="10.00">&lt; ESM::NPC &gt;</text>
<polyline fill="none" stroke="black" points="386,-189 542,-189 "/>
<text text-anchor="middle" x="464" y="-177" font-family="FreeSans" font-size="10.00"> </text>
<polyline fill="none" stroke="black" points="386,-170 542,-170 "/>
<text text-anchor="start" x="394" y="-158" font-family="FreeSans" font-size="10.00">+ ActorRefIdAdapter()</text>
<text text-anchor="start" x="394" y="-147" font-family="FreeSans" font-size="10.00">+ getData()</text>
<text text-anchor="start" x="394" y="-136" font-family="FreeSans" font-size="10.00">+ setData()</text>
</a>
</g>
</g>
<!-- Node2&#45;&gt;Node1 -->
<g id="edge1" class="edge"><title>Node2&#45;&gt;Node1</title>
<path fill="none" stroke="midnightblue" d="M502.294,-120.346C512.17,-106.766 522.619,-92.3986 531.872,-79.6763"/>
<polygon fill="none" stroke="midnightblue" points="499.285,-118.533 496.234,-128.679 504.946,-122.65 499.285,-118.533"/>
</g>
<!-- Node3 -->
<g id="node3" class="node"><title>Node3</title>
<g id="a_node3"><a xlink:href="classCSMWorld_1_1NameRefIdAdapter.html" target="_top" xlink:title="{CSMWorld::NameRefIdAdapter\l\&lt; ESM::NPC \&gt;\n||+ NameRefIdAdapter()\l+ getData()\l+ setData()\l}">
<polygon fill="white" stroke="black" points="277,-269 277,-359 437,-359 437,-269 277,-269"/>
<text text-anchor="start" x="285" y="-347" font-family="FreeSans" font-size="10.00">CSMWorld::NameRefIdAdapter</text>
<text text-anchor="middle" x="357" y="-336" font-family="FreeSans" font-size="10.00">&lt; ESM::NPC &gt;</text>
<polyline fill="none" stroke="black" points="277,-329 437,-329 "/>
<text text-anchor="middle" x="357" y="-317" font-family="FreeSans" font-size="10.00"> </text>
<polyline fill="none" stroke="black" points="277,-310 437,-310 "/>
<text text-anchor="start" x="285" y="-298" font-family="FreeSans" font-size="10.00">+ NameRefIdAdapter()</text>
<text text-anchor="start" x="285" y="-287" font-family="FreeSans" font-size="10.00">+ getData()</text>
<text text-anchor="start" x="285" y="-276" font-family="FreeSans" font-size="10.00">+ setData()</text>
</a>
</g>
</g>
<!-- Node3&#45;&gt;Node2 -->
<g id="edge2" class="edge"><title>Node3&#45;&gt;Node2</title>
<path fill="none" stroke="midnightblue" d="M397.345,-260.967C408.037,-247.176 419.477,-232.422 429.808,-219.098"/>
<polygon fill="none" stroke="midnightblue" points="394.511,-258.909 391.15,-268.957 400.043,-263.198 394.511,-258.909"/>
</g>
<!-- Node4 -->
<g id="node4" class="node"><title>Node4</title>
<g id="a_node4"><a xlink:href="classCSMWorld_1_1ModelRefIdAdapter.html" target="_top" xlink:title="{CSMWorld::ModelRefIdAdapter\l\&lt; ESM::NPC \&gt;\n||+ ModelRefIdAdapter()\l+ getData()\l+ setData()\l}">
<polygon fill="white" stroke="black" points="172.5,-409 172.5,-499 331.5,-499 331.5,-409 172.5,-409"/>
<text text-anchor="start" x="180.5" y="-487" font-family="FreeSans" font-size="10.00">CSMWorld::ModelRefIdAdapter</text>
<text text-anchor="middle" x="252" y="-476" font-family="FreeSans" font-size="10.00">&lt; ESM::NPC &gt;</text>
<polyline fill="none" stroke="black" points="172.5,-469 331.5,-469 "/>
<text text-anchor="middle" x="252" y="-457" font-family="FreeSans" font-size="10.00"> </text>
<polyline fill="none" stroke="black" points="172.5,-450 331.5,-450 "/>
<text text-anchor="start" x="180.5" y="-438" font-family="FreeSans" font-size="10.00">+ ModelRefIdAdapter()</text>
<text text-anchor="start" x="180.5" y="-427" font-family="FreeSans" font-size="10.00">+ getData()</text>
<text text-anchor="start" x="180.5" y="-416" font-family="FreeSans" font-size="10.00">+ setData()</text>
</a>
</g>
</g>
<!-- Node4&#45;&gt;Node3 -->
<g id="edge3" class="edge"><title>Node4&#45;&gt;Node3</title>
<path fill="none" stroke="midnightblue" d="M291.591,-400.967C302.083,-387.176 313.309,-372.422 323.447,-359.098"/>
<polygon fill="none" stroke="midnightblue" points="288.781,-398.879 285.511,-408.957 294.352,-403.118 288.781,-398.879"/>
</g>
<!-- Node5 -->
<g id="node5" class="node"><title>Node5</title>
<g id="a_node5"><a xlink:href="classCSMWorld_1_1BaseRefIdAdapter.html" target="_top" xlink:title="{CSMWorld::BaseRefIdAdapter\l\&lt; ESM::NPC \&gt;\n||+ BaseRefIdAdapter()\l+ getId()\l+ setId()\l+ getData()\l+ setData()\l+ getType()\l}">
<polygon fill="white" stroke="black" points="92.5,-624.5 92.5,-747.5 247.5,-747.5 247.5,-624.5 92.5,-624.5"/>
<text text-anchor="start" x="100.5" y="-735.5" font-family="FreeSans" font-size="10.00">CSMWorld::BaseRefIdAdapter</text>
<text text-anchor="middle" x="170" y="-724.5" font-family="FreeSans" font-size="10.00">&lt; ESM::NPC &gt;</text>
<polyline fill="none" stroke="black" points="92.5,-717.5 247.5,-717.5 "/>
<text text-anchor="middle" x="170" y="-705.5" font-family="FreeSans" font-size="10.00"> </text>
<polyline fill="none" stroke="black" points="92.5,-698.5 247.5,-698.5 "/>
<text text-anchor="start" x="100.5" y="-686.5" font-family="FreeSans" font-size="10.00">+ BaseRefIdAdapter()</text>
<text text-anchor="start" x="100.5" y="-675.5" font-family="FreeSans" font-size="10.00">+ getId()</text>
<text text-anchor="start" x="100.5" y="-664.5" font-family="FreeSans" font-size="10.00">+ setId()</text>
<text text-anchor="start" x="100.5" y="-653.5" font-family="FreeSans" font-size="10.00">+ getData()</text>
<text text-anchor="start" x="100.5" y="-642.5" font-family="FreeSans" font-size="10.00">+ setData()</text>
<text text-anchor="start" x="100.5" y="-631.5" font-family="FreeSans" font-size="10.00">+ getType()</text>
</a>
</g>
</g>
<!-- Node5&#45;&gt;Node4 -->
<g id="edge4" class="edge"><title>Node5&#45;&gt;Node4</title>
<path fill="none" stroke="midnightblue" d="M195.17,-614.4C208.551,-576.869 224.59,-531.883 236.211,-499.286"/>
<polygon fill="none" stroke="midnightblue" points="191.713,-613.675 191.652,-624.269 198.307,-616.025 191.713,-613.675"/>
</g>
<!-- Node6 -->
<g id="node6" class="node"><title>Node6</title>
<g id="a_node6"><a xlink:href="classCSMWorld_1_1RefIdAdapter.html" target="_top" xlink:title="{CSMWorld::RefIdAdapter\n||+ RefIdAdapter()\l+ ~RefIdAdapter()\l+ getData()\l+ setData()\l+ getId()\l+ setId()\l&#45; RefIdAdapter()\l&#45; operator=()\l}">
<polygon fill="white" stroke="black" points="-0.5,-855 -0.5,-989 130.5,-989 130.5,-855 -0.5,-855"/>
<text text-anchor="middle" x="65" y="-977" font-family="FreeSans" font-size="10.00">CSMWorld::RefIdAdapter</text>
<polyline fill="none" stroke="black" points="-0.5,-970 130.5,-970 "/>
<text text-anchor="middle" x="65" y="-958" font-family="FreeSans" font-size="10.00"> </text>
<polyline fill="none" stroke="black" points="-0.5,-951 130.5,-951 "/>
<text text-anchor="start" x="7.5" y="-939" font-family="FreeSans" font-size="10.00">+ RefIdAdapter()</text>
<text text-anchor="start" x="7.5" y="-928" font-family="FreeSans" font-size="10.00">+ ~RefIdAdapter()</text>
<text text-anchor="start" x="7.5" y="-917" font-family="FreeSans" font-size="10.00">+ getData()</text>
<text text-anchor="start" x="7.5" y="-906" font-family="FreeSans" font-size="10.00">+ setData()</text>
<text text-anchor="start" x="7.5" y="-895" font-family="FreeSans" font-size="10.00">+ getId()</text>
<text text-anchor="start" x="7.5" y="-884" font-family="FreeSans" font-size="10.00">+ setId()</text>
<text text-anchor="start" x="7.5" y="-873" font-family="FreeSans" font-size="10.00">&#45; RefIdAdapter()</text>
<text text-anchor="start" x="7.5" y="-862" font-family="FreeSans" font-size="10.00">&#45; operator=()</text>
</a>
</g>
</g>
<!-- Node6&#45;&gt;Node5 -->
<g id="edge5" class="edge"><title>Node6&#45;&gt;Node5</title>
<path fill="none" stroke="midnightblue" d="M98.8088,-845.655C113.016,-813.994 129.323,-777.652 142.742,-747.745"/>
<polygon fill="none" stroke="midnightblue" points="95.5685,-844.327 94.6678,-854.883 101.955,-847.193 95.5685,-844.327"/>
</g>
<!-- Node7 -->
<g id="node7" class="node"><title>Node7</title>
<g id="a_node7"><a xlink:href="structCSMWorld_1_1BaseColumns.html" target="_top" xlink:title="{CSMWorld::BaseColumns\n||}">
<polygon fill="white" stroke="black" points="205,-893.5 205,-950.5 341,-950.5 341,-893.5 205,-893.5"/>
<text text-anchor="middle" x="273" y="-938.5" font-family="FreeSans" font-size="10.00">CSMWorld::BaseColumns</text>
<polyline fill="none" stroke="black" points="205,-931.5 341,-931.5 "/>
<text text-anchor="middle" x="273" y="-919.5" font-family="FreeSans" font-size="10.00"> </text>
<polyline fill="none" stroke="black" points="205,-912.5 341,-912.5 "/>
<text text-anchor="middle" x="273" y="-900.5" font-family="FreeSans" font-size="10.00"> </text>
</a>
</g>
</g>
<!-- Node7&#45;&gt;Node5 -->
<g id="edge6" class="edge"><title>Node7&#45;&gt;Node5</title>
<path fill="none" stroke="#404040" d="M263.234,-893.446C251.893,-862.143 232.15,-809.73 212,-766 210.891,-763.593 209.743,-761.156 208.566,-758.703"/>
<polygon fill="none" stroke="#404040" points="208.549,-758.667 202.312,-755.046 203.256,-747.897 209.492,-751.518 208.549,-758.667"/>
<text text-anchor="middle" x="261.5" y="-798.5" font-family="FreeSans" font-size="10.00"> &#45;mBase</text>
</g>
<!-- Node16 -->
<g id="node16" class="node"><title>Node16</title>
<g id="a_node16"><a xlink:href="structCSMWorld_1_1ModelColumns.html" target="_top" xlink:title="{CSMWorld::ModelColumns\n||+ ModelColumns()\l}">
<polygon fill="white" stroke="black" points="273,-657.5 273,-714.5 413,-714.5 413,-657.5 273,-657.5"/>
<text text-anchor="middle" x="343" y="-702.5" font-family="FreeSans" font-size="10.00">CSMWorld::ModelColumns</text>
<polyline fill="none" stroke="black" points="273,-695.5 413,-695.5 "/>
<text text-anchor="middle" x="343" y="-683.5" font-family="FreeSans" font-size="10.00"> </text>
<polyline fill="none" stroke="black" points="273,-676.5 413,-676.5 "/>
<text text-anchor="start" x="281" y="-664.5" font-family="FreeSans" font-size="10.00">+ ModelColumns()</text>
</a>
</g>
</g>
<!-- Node7&#45;&gt;Node16 -->
<g id="edge17" class="edge"><title>Node7&#45;&gt;Node16</title>
<path fill="none" stroke="midnightblue" d="M284.241,-883.421C298.334,-836.311 322.161,-756.661 334.706,-714.726"/>
<polygon fill="none" stroke="midnightblue" points="280.818,-882.655 281.305,-893.238 287.524,-884.661 280.818,-882.655"/>
</g>
<!-- Node8 -->
<g id="node8" class="node"><title>Node8</title>
<g id="a_node8"><a xlink:href="classCSMWorld_1_1RefIdColumn.html" target="_top" xlink:title="{CSMWorld::RefIdColumn\n||+ RefIdColumn()\l+ isEditable()\l+ isUserEditable()\l}">
<polygon fill="white" stroke="black" points="398.5,-1060.5 398.5,-1139.5 527.5,-1139.5 527.5,-1060.5 398.5,-1060.5"/>
<text text-anchor="middle" x="463" y="-1127.5" font-family="FreeSans" font-size="10.00">CSMWorld::RefIdColumn</text>
<polyline fill="none" stroke="black" points="398.5,-1120.5 527.5,-1120.5 "/>
<text text-anchor="middle" x="463" y="-1108.5" font-family="FreeSans" font-size="10.00"> </text>
<polyline fill="none" stroke="black" points="398.5,-1101.5 527.5,-1101.5 "/>
<text text-anchor="start" x="406.5" y="-1089.5" font-family="FreeSans" font-size="10.00">+ RefIdColumn()</text>
<text text-anchor="start" x="406.5" y="-1078.5" font-family="FreeSans" font-size="10.00">+ isEditable()</text>
<text text-anchor="start" x="406.5" y="-1067.5" font-family="FreeSans" font-size="10.00">+ isUserEditable()</text>
</a>
</g>
</g>
<!-- Node8&#45;&gt;Node7 -->
<g id="edge7" class="edge"><title>Node8&#45;&gt;Node7</title>
<path fill="none" stroke="#404040" d="M398.245,-1090.02C366.097,-1082.36 329.084,-1068.18 305,-1042 285.301,-1020.58 277.501,-988.33 274.517,-962.802"/>
<polygon fill="none" stroke="#404040" points="274.487,-962.473 269.952,-956.867 273.383,-950.524 277.918,-956.131 274.487,-962.473"/>
<text text-anchor="middle" x="334" y="-1033.5" font-family="FreeSans" font-size="10.00"> +mType</text>
<text text-anchor="middle" x="334" y="-1022.5" font-family="FreeSans" font-size="10.00">+mId</text>
<text text-anchor="middle" x="334" y="-1011.5" font-family="FreeSans" font-size="10.00">+mModified</text>
</g>
<!-- Node8&#45;&gt;Node16 -->
<g id="edge18" class="edge"><title>Node8&#45;&gt;Node16</title>
<path fill="none" stroke="#404040" d="M431.604,-1060.38C417.015,-1040.48 400.77,-1015.16 391,-990 356.151,-900.268 346.584,-786.209 343.971,-726.9"/>
<polygon fill="none" stroke="#404040" points="343.965,-726.751 339.736,-720.911 343.501,-714.76 347.73,-720.601 343.965,-726.751"/>
<text text-anchor="middle" x="416" y="-919.5" font-family="FreeSans" font-size="10.00"> +mModel</text>
</g>
<!-- Node17 -->
<g id="node17" class="node"><title>Node17</title>
<g id="a_node17"><a xlink:href="structCSMWorld_1_1NameColumns.html" target="_top" xlink:title="{CSMWorld::NameColumns\n||+ NameColumns()\l}">
<polygon fill="white" stroke="black" points="349.5,-425.5 349.5,-482.5 490.5,-482.5 490.5,-425.5 349.5,-425.5"/>
<text text-anchor="middle" x="420" y="-470.5" font-family="FreeSans" font-size="10.00">CSMWorld::NameColumns</text>
<polyline fill="none" stroke="black" points="349.5,-463.5 490.5,-463.5 "/>
<text text-anchor="middle" x="420" y="-451.5" font-family="FreeSans" font-size="10.00"> </text>
<polyline fill="none" stroke="black" points="349.5,-444.5 490.5,-444.5 "/>
<text text-anchor="start" x="357.5" y="-432.5" font-family="FreeSans" font-size="10.00">+ NameColumns()</text>
</a>
</g>
</g>
<!-- Node8&#45;&gt;Node17 -->
<g id="edge21" class="edge"><title>Node8&#45;&gt;Node17</title>
<path fill="none" stroke="#404040" d="M460.407,-1060.17C452.759,-945.621 430.347,-609.969 422.64,-494.533"/>
<polygon fill="none" stroke="#404040" points="422.636,-494.475 418.245,-488.755 421.836,-482.502 426.227,-488.222 422.636,-494.475"/>
<text text-anchor="middle" x="470.5" y="-804" font-family="FreeSans" font-size="10.00"> +mName</text>
<text text-anchor="middle" x="470.5" y="-793" font-family="FreeSans" font-size="10.00">+mScript</text>
</g>
<!-- Node18 -->
<g id="node18" class="node"><title>Node18</title>
<g id="a_node18"><a xlink:href="structCSMWorld_1_1ActorColumns.html" target="_top" xlink:title="{CSMWorld::ActorColumns\n||+ ActorColumns()\l}">
<polygon fill="white" stroke="black" points="455.5,-285.5 455.5,-342.5 592.5,-342.5 592.5,-285.5 455.5,-285.5"/>
<text text-anchor="middle" x="524" y="-330.5" font-family="FreeSans" font-size="10.00">CSMWorld::ActorColumns</text>
<polyline fill="none" stroke="black" points="455.5,-323.5 592.5,-323.5 "/>
<text text-anchor="middle" x="524" y="-311.5" font-family="FreeSans" font-size="10.00"> </text>
<polyline fill="none" stroke="black" points="455.5,-304.5 592.5,-304.5 "/>
<text text-anchor="start" x="463.5" y="-292.5" font-family="FreeSans" font-size="10.00">+ ActorColumns()</text>
</a>
</g>
</g>
<!-- Node8&#45;&gt;Node18 -->
<g id="edge27" class="edge"><title>Node8&#45;&gt;Node18</title>
<path fill="none" stroke="#404040" d="M482.901,-1060.28C498.997,-1025.34 519,-972.059 519,-923 519,-923 519,-923 519,-453 519,-419.989 520.446,-382.566 521.783,-355.027"/>
<polygon fill="none" stroke="#404040" points="521.798,-354.728 518.106,-348.534 522.404,-342.743 526.096,-348.937 521.798,-354.728"/>
<text text-anchor="middle" x="558.5" y="-722" font-family="FreeSans" font-size="10.00"> +mAlarm</text>
<text text-anchor="middle" x="558.5" y="-711" font-family="FreeSans" font-size="10.00">+mFlee</text>
<text text-anchor="middle" x="558.5" y="-700" font-family="FreeSans" font-size="10.00">+mFight</text>
<text text-anchor="middle" x="558.5" y="-689" font-family="FreeSans" font-size="10.00">+mHello</text>
<text text-anchor="middle" x="558.5" y="-678" font-family="FreeSans" font-size="10.00">+mInventory</text>
<text text-anchor="middle" x="558.5" y="-667" font-family="FreeSans" font-size="10.00">+mAiPackages</text>
<text text-anchor="middle" x="558.5" y="-656" font-family="FreeSans" font-size="10.00">+mSpells</text>
<text text-anchor="middle" x="558.5" y="-645" font-family="FreeSans" font-size="10.00">+mDestinations</text>
</g>
<!-- Node19 -->
<g id="node19" class="node"><title>Node19</title>
<polygon fill="white" stroke="#bfbfbf" points="641,-767 641,-835 807,-835 807,-767 641,-767"/>
<text text-anchor="start" x="649" y="-823" font-family="FreeSans" font-size="10.00">std::map&lt; const CSMWorld</text>
<text text-anchor="middle" x="724" y="-812" font-family="FreeSans" font-size="10.00">::RefIdColumn *, unsigned int &gt;</text>
<polyline fill="none" stroke="#bfbfbf" points="641,-805 807,-805 "/>
<text text-anchor="middle" x="724" y="-793" font-family="FreeSans" font-size="10.00"> </text>
<polyline fill="none" stroke="#bfbfbf" points="641,-786 807,-786 "/>
<text text-anchor="middle" x="724" y="-774" font-family="FreeSans" font-size="10.00"> </text>
</g>
<!-- Node8&#45;&gt;Node19 -->
<g id="edge26" class="edge"><title>Node8&#45;&gt;Node19</title>
<path fill="none" stroke="#404040" d="M527.728,-1066.37C533.495,-1064.03 539.305,-1061.86 545,-1060 585.851,-1046.66 607.43,-1070.03 640,-1042 655.237,-1028.89 691.322,-912.915 710.87,-847.107"/>
<polygon fill="none" stroke="#404040" points="710.917,-846.947 708.782,-840.059 714.319,-835.439 716.454,-842.327 710.917,-846.947"/>
<text text-anchor="middle" x="673" y="-1022.5" font-family="FreeSans" font-size="10.00"> +keys</text>
</g>
<!-- Node20 -->
<g id="node20" class="node"><title>Node20</title>
<g id="a_node20"><a xlink:href="structCSMWorld_1_1NpcColumns.html" target="_top" xlink:title="{CSMWorld::NpcColumns\n||+ NpcColumns()\l}">
<polygon fill="white" stroke="black" points="560.5,-145.5 560.5,-202.5 691.5,-202.5 691.5,-145.5 560.5,-145.5"/>
<text text-anchor="middle" x="626" y="-190.5" font-family="FreeSans" font-size="10.00">CSMWorld::NpcColumns</text>
<polyline fill="none" stroke="black" points="560.5,-183.5 691.5,-183.5 "/>
<text text-anchor="middle" x="626" y="-171.5" font-family="FreeSans" font-size="10.00"> </text>
<polyline fill="none" stroke="black" points="560.5,-164.5 691.5,-164.5 "/>
<text text-anchor="start" x="568.5" y="-152.5" font-family="FreeSans" font-size="10.00">+ NpcColumns()</text>
</a>
</g>
</g>
<!-- Node8&#45;&gt;Node20 -->
<g id="edge31" class="edge"><title>Node8&#45;&gt;Node20</title>
<path fill="none" stroke="#404040" d="M527.89,-1062.8C573.346,-1032.17 626,-983.596 626,-923 626,-923 626,-923 626,-313 626,-280.011 626,-242.586 626,-215.041"/>
<polygon fill="none" stroke="#404040" points="626,-214.754 622,-208.754 626,-202.754 630,-208.754 626,-214.754"/>
<text text-anchor="middle" x="659" y="-598" font-family="FreeSans" font-size="10.00"> +mMisc</text>
<text text-anchor="middle" x="659" y="-587" font-family="FreeSans" font-size="10.00">+mClass</text>
<text text-anchor="middle" x="659" y="-576" font-family="FreeSans" font-size="10.00">+mHead</text>
<text text-anchor="middle" x="659" y="-565" font-family="FreeSans" font-size="10.00">+mFaction</text>
<text text-anchor="middle" x="659" y="-554" font-family="FreeSans" font-size="10.00">+mSkills</text>
<text text-anchor="middle" x="659" y="-543" font-family="FreeSans" font-size="10.00">+mHair</text>
<text text-anchor="middle" x="659" y="-532" font-family="FreeSans" font-size="10.00">+mRace</text>
<text text-anchor="middle" x="659" y="-521" font-family="FreeSans" font-size="10.00">+mAttributes</text>
</g>
<!-- Node9 -->
<g id="node9" class="node"><title>Node9</title>
<g id="a_node9"><a xlink:href="classCSMWorld_1_1NestableColumn.html" target="_top" xlink:title="{CSMWorld::NestableColumn\n||+ NestableColumn()\l+ ~NestableColumn()\l+ addColumn()\l+ nestedColumn()\l+ hasChildren()\l}">
<polygon fill="white" stroke="black" points="461.5,-1198.5 461.5,-1299.5 610.5,-1299.5 610.5,-1198.5 461.5,-1198.5"/>
<text text-anchor="middle" x="536" y="-1287.5" font-family="FreeSans" font-size="10.00">CSMWorld::NestableColumn</text>
<polyline fill="none" stroke="black" points="461.5,-1280.5 610.5,-1280.5 "/>
<text text-anchor="middle" x="536" y="-1268.5" font-family="FreeSans" font-size="10.00"> </text>
<polyline fill="none" stroke="black" points="461.5,-1261.5 610.5,-1261.5 "/>
<text text-anchor="start" x="469.5" y="-1249.5" font-family="FreeSans" font-size="10.00">+ NestableColumn()</text>
<text text-anchor="start" x="469.5" y="-1238.5" font-family="FreeSans" font-size="10.00">+ ~NestableColumn()</text>
<text text-anchor="start" x="469.5" y="-1227.5" font-family="FreeSans" font-size="10.00">+ addColumn()</text>
<text text-anchor="start" x="469.5" y="-1216.5" font-family="FreeSans" font-size="10.00">+ nestedColumn()</text>
<text text-anchor="start" x="469.5" y="-1205.5" font-family="FreeSans" font-size="10.00">+ hasChildren()</text>
</a>
</g>
</g>
<!-- Node9&#45;&gt;Node8 -->
<g id="edge8" class="edge"><title>Node9&#45;&gt;Node8</title>
<path fill="none" stroke="midnightblue" d="M506.75,-1189.1C498.469,-1172.42 489.669,-1154.7 482.15,-1139.56"/>
<polygon fill="none" stroke="midnightblue" points="503.703,-1190.83 511.286,-1198.23 509.972,-1187.72 503.703,-1190.83"/>
</g>
<!-- Node13 -->
<g id="node13" class="node"><title>Node13</title>
<polygon fill="white" stroke="#bfbfbf" points="554,-1066 554,-1134 680,-1134 680,-1066 554,-1066"/>
<text text-anchor="start" x="562" y="-1122" font-family="FreeSans" font-size="10.00">std::vector&lt; CSMWorld</text>
<text text-anchor="middle" x="617" y="-1111" font-family="FreeSans" font-size="10.00">::NestableColumn * &gt;</text>
<polyline fill="none" stroke="#bfbfbf" points="554,-1104 680,-1104 "/>
<text text-anchor="middle" x="617" y="-1092" font-family="FreeSans" font-size="10.00"> </text>
<polyline fill="none" stroke="#bfbfbf" points="554,-1085 680,-1085 "/>
<text text-anchor="middle" x="617" y="-1073" font-family="FreeSans" font-size="10.00"> </text>
</g>
<!-- Node9&#45;&gt;Node13 -->
<g id="edge13" class="edge"><title>Node9&#45;&gt;Node13</title>
<path fill="none" stroke="#404040" d="M610.864,-1205.05C618.528,-1197.67 625.235,-1189.33 630,-1180 635.303,-1169.62 635.736,-1157.56 633.921,-1146.04"/>
<polygon fill="none" stroke="#404040" points="633.92,-1146.03 628.718,-1141.04 631.326,-1134.32 636.528,-1139.31 633.92,-1146.03"/>
<text text-anchor="middle" x="662.5" y="-1166.5" font-family="FreeSans" font-size="10.00"> +elements</text>
</g>
<!-- Node10 -->
<g id="node10" class="node"><title>Node10</title>
<g id="a_node10"><a xlink:href="structCSMWorld_1_1ColumnBase.html" target="_top" xlink:title="{CSMWorld::ColumnBase\n||+ ColumnBase()\l+ ~ColumnBase()\l+ isEditable()\l+ isUserEditable()\l+ getTitle()\l+ getId()\l+ isId()\l+ isText()\l+ isScript()\l}">
<polygon fill="white" stroke="black" points="476.5,-1338.5 476.5,-1483.5 607.5,-1483.5 607.5,-1338.5 476.5,-1338.5"/>
<text text-anchor="middle" x="542" y="-1471.5" font-family="FreeSans" font-size="10.00">CSMWorld::ColumnBase</text>
<polyline fill="none" stroke="black" points="476.5,-1464.5 607.5,-1464.5 "/>
<text text-anchor="middle" x="542" y="-1452.5" font-family="FreeSans" font-size="10.00"> </text>
<polyline fill="none" stroke="black" points="476.5,-1445.5 607.5,-1445.5 "/>
<text text-anchor="start" x="484.5" y="-1433.5" font-family="FreeSans" font-size="10.00">+ ColumnBase()</text>
<text text-anchor="start" x="484.5" y="-1422.5" font-family="FreeSans" font-size="10.00">+ ~ColumnBase()</text>
<text text-anchor="start" x="484.5" y="-1411.5" font-family="FreeSans" font-size="10.00">+ isEditable()</text>
<text text-anchor="start" x="484.5" y="-1400.5" font-family="FreeSans" font-size="10.00">+ isUserEditable()</text>
<text text-anchor="start" x="484.5" y="-1389.5" font-family="FreeSans" font-size="10.00">+ getTitle()</text>
<text text-anchor="start" x="484.5" y="-1378.5" font-family="FreeSans" font-size="10.00">+ getId()</text>
<text text-anchor="start" x="484.5" y="-1367.5" font-family="FreeSans" font-size="10.00">+ isId()</text>
<text text-anchor="start" x="484.5" y="-1356.5" font-family="FreeSans" font-size="10.00">+ isText()</text>
<text text-anchor="start" x="484.5" y="-1345.5" font-family="FreeSans" font-size="10.00">+ isScript()</text>
</a>
</g>
</g>
<!-- Node10&#45;&gt;Node9 -->
<g id="edge9" class="edge"><title>Node10&#45;&gt;Node9</title>
<path fill="none" stroke="midnightblue" d="M538.933,-1328.22C538.566,-1318.42 538.199,-1308.65 537.856,-1299.51"/>
<polygon fill="none" stroke="midnightblue" points="535.444,-1328.56 539.316,-1338.42 542.439,-1328.3 535.444,-1328.56"/>
</g>
<!-- Node11 -->
<g id="node11" class="node"><title>Node11</title>
<g id="a_node11"><a xlink:href="classint.html" target="_top" xlink:title="{int\n||}">
<polygon fill="white" stroke="black" points="669.5,-1542.5 669.5,-1599.5 698.5,-1599.5 698.5,-1542.5 669.5,-1542.5"/>
<text text-anchor="middle" x="684" y="-1587.5" font-family="FreeSans" font-size="10.00">int</text>
<polyline fill="none" stroke="black" points="669.5,-1580.5 698.5,-1580.5 "/>
<text text-anchor="middle" x="684" y="-1568.5" font-family="FreeSans" font-size="10.00"> </text>
<polyline fill="none" stroke="black" points="669.5,-1561.5 698.5,-1561.5 "/>
<text text-anchor="middle" x="684" y="-1549.5" font-family="FreeSans" font-size="10.00"> </text>
</a>
</g>
</g>
<!-- Node11&#45;&gt;Node10 -->
<g id="edge10" class="edge"><title>Node11&#45;&gt;Node10</title>
<path fill="none" stroke="#404040" d="M669.338,-1553.69C656.076,-1538.93 635.495,-1516.03 614.717,-1492.91"/>
<polygon fill="none" stroke="#404040" points="614.471,-1492.64 607.485,-1490.85 606.45,-1483.71 613.435,-1485.5 614.471,-1492.64"/>
<text text-anchor="middle" x="674" y="-1516" font-family="FreeSans" font-size="10.00"> +mFlags</text>
<text text-anchor="middle" x="674" y="-1505" font-family="FreeSans" font-size="10.00">+mColumnId</text>
</g>
<!-- Node11&#45;&gt;Node19 -->
<g id="edge25" class="edge"><title>Node11&#45;&gt;Node19</title>
<path fill="none" stroke="#404040" d="M698.533,-1548.35C702.887,-1540.92 707.235,-1532.36 710,-1524 725.752,-1476.37 724,-1462.17 724,-1412 724,-1412 724,-1412 724,-1024 724,-962.832 724,-892.183 724,-847.318"/>
<polygon fill="none" stroke="#404040" points="724,-847.098 720,-841.098 724,-835.098 728,-841.098 724,-847.098"/>
<text text-anchor="middle" x="752.5" y="-1246.5" font-family="FreeSans" font-size="10.00"> +elements</text>
</g>
<!-- Node12 -->
<g id="node12" class="node"><title>Node12</title>
<polygon fill="white" stroke="#bfbfbf" points="516.5,-1542.5 516.5,-1599.5 567.5,-1599.5 567.5,-1542.5 516.5,-1542.5"/>
<text text-anchor="middle" x="542" y="-1587.5" font-family="FreeSans" font-size="10.00">Display</text>
<polyline fill="none" stroke="#bfbfbf" points="516.5,-1580.5 567.5,-1580.5 "/>
<text text-anchor="middle" x="542" y="-1568.5" font-family="FreeSans" font-size="10.00"> </text>
<polyline fill="none" stroke="#bfbfbf" points="516.5,-1561.5 567.5,-1561.5 "/>
<text text-anchor="middle" x="542" y="-1549.5" font-family="FreeSans" font-size="10.00"> </text>
</g>
<!-- Node12&#45;&gt;Node10 -->
<g id="edge11" class="edge"><title>Node12&#45;&gt;Node10</title>
<path fill="none" stroke="#404040" d="M542,-1542.48C542,-1529.32 542,-1512.78 542,-1495.94"/>
<polygon fill="none" stroke="#404040" points="542,-1495.67 538,-1489.67 542,-1483.67 546,-1489.67 542,-1495.67"/>
<text text-anchor="middle" x="580.5" y="-1510.5" font-family="FreeSans" font-size="10.00"> +mDisplayType</text>
</g>
<!-- Node13&#45;&gt;Node9 -->
<g id="edge12" class="edge"><title>Node13&#45;&gt;Node9</title>
<path fill="none" stroke="#404040" d="M555.228,-1134.32C547.496,-1141.11 540.674,-1149 536,-1158 531.496,-1166.68 529.194,-1176.49 528.286,-1186.36"/>
<polygon fill="none" stroke="#404040" points="528.286,-1186.37 532.048,-1192.52 527.816,-1198.36 524.054,-1192.21 528.286,-1186.37"/>
<text text-anchor="middle" x="583" y="-1166.5" font-family="FreeSans" font-size="10.00"> &#45;mNestedColumns</text>
</g>
<!-- Node14 -->
<g id="node14" class="node"><title>Node14</title>
<g id="a_node14"><a xlink:href="classbool.html" target="_top" xlink:title="{bool\n||}">
<polygon fill="white" stroke="black" points="393.5,-1220.5 393.5,-1277.5 430.5,-1277.5 430.5,-1220.5 393.5,-1220.5"/>
<text text-anchor="middle" x="412" y="-1265.5" font-family="FreeSans" font-size="10.00">bool</text>
<polyline fill="none" stroke="black" points="393.5,-1258.5 430.5,-1258.5 "/>
<text text-anchor="middle" x="412" y="-1246.5" font-family="FreeSans" font-size="10.00"> </text>
<polyline fill="none" stroke="black" points="393.5,-1239.5 430.5,-1239.5 "/>
<text text-anchor="middle" x="412" y="-1227.5" font-family="FreeSans" font-size="10.00"> </text>
</a>
</g>
</g>
<!-- Node14&#45;&gt;Node8 -->
<g id="edge14" class="edge"><title>Node14&#45;&gt;Node8</title>
<path fill="none" stroke="#404040" d="M407.445,-1220.3C405.595,-1202.01 405.403,-1177.85 413,-1158 414.032,-1155.3 415.255,-1152.65 416.628,-1150.05"/>
<polygon fill="none" stroke="#404040" points="416.704,-1149.93 416.456,-1142.72 423.013,-1139.72 423.261,-1146.93 416.704,-1149.93"/>
<text text-anchor="middle" x="450.5" y="-1172" font-family="FreeSans" font-size="10.00"> &#45;mEditable</text>
<text text-anchor="middle" x="450.5" y="-1161" font-family="FreeSans" font-size="10.00">&#45;mUserEditable</text>
</g>
<!-- Node15 -->
<g id="node15" class="node"><title>Node15</title>
<polygon fill="white" stroke="#bfbfbf" points="149,-893.5 149,-950.5 187,-950.5 187,-893.5 149,-893.5"/>
<text text-anchor="middle" x="168" y="-938.5" font-family="FreeSans" font-size="10.00">Type</text>
<polyline fill="none" stroke="#bfbfbf" points="149,-931.5 187,-931.5 "/>
<text text-anchor="middle" x="168" y="-919.5" font-family="FreeSans" font-size="10.00"> </text>
<polyline fill="none" stroke="#bfbfbf" points="149,-912.5 187,-912.5 "/>
<text text-anchor="middle" x="168" y="-900.5" font-family="FreeSans" font-size="10.00"> </text>
</g>
<!-- Node15&#45;&gt;Node5 -->
<g id="edge15" class="edge"><title>Node15&#45;&gt;Node5</title>
<path fill="none" stroke="#404040" d="M168.237,-893.238C168.516,-860.635 168.989,-805.27 169.375,-760.109"/>
<polygon fill="none" stroke="#404040" points="169.376,-759.97 165.428,-753.936 169.479,-747.97 173.427,-754.004 169.376,-759.97"/>
<text text-anchor="middle" x="189" y="-798.5" font-family="FreeSans" font-size="10.00"> &#45;mType</text>
</g>
<!-- Node16&#45;&gt;Node4 -->
<g id="edge16" class="edge"><title>Node16&#45;&gt;Node4</title>
<path fill="none" stroke="#404040" d="M332.023,-657.257C317.729,-621.129 292.408,-557.131 274.07,-510.782"/>
<polygon fill="none" stroke="#404040" points="273.984,-510.564 268.057,-506.457 269.569,-499.406 275.496,-503.513 273.984,-510.564"/>
<text text-anchor="middle" x="334" y="-559.5" font-family="FreeSans" font-size="10.00"> &#45;mModel</text>
</g>
<!-- Node16&#45;&gt;Node17 -->
<g id="edge20" class="edge"><title>Node16&#45;&gt;Node17</title>
<path fill="none" stroke="midnightblue" d="M355.51,-647.632C370.956,-601.495 396.872,-524.084 410.679,-482.842"/>
<polygon fill="none" stroke="midnightblue" points="352.144,-646.663 352.288,-657.257 358.782,-648.885 352.144,-646.663"/>
</g>
<!-- Node17&#45;&gt;Node3 -->
<g id="edge19" class="edge"><title>Node17&#45;&gt;Node3</title>
<path fill="none" stroke="#404040" d="M407.402,-425.405C400.168,-409.559 390.824,-389.09 382.149,-370.089"/>
<polygon fill="none" stroke="#404040" points="382.124,-370.033 375.993,-366.236 377.14,-359.117 383.271,-362.914 382.124,-370.033"/>
<text text-anchor="middle" x="414" y="-381.5" font-family="FreeSans" font-size="10.00"> &#45;mName</text>
</g>
<!-- Node17&#45;&gt;Node18 -->
<g id="edge23" class="edge"><title>Node17&#45;&gt;Node18</title>
<path fill="none" stroke="midnightblue" d="M447.015,-417.153C464.565,-393.866 487.095,-363.971 503.24,-342.547"/>
<polygon fill="none" stroke="midnightblue" points="444.019,-415.313 440.796,-425.405 449.61,-419.526 444.019,-415.313"/>
</g>
<!-- Node18&#45;&gt;Node2 -->
<g id="edge22" class="edge"><title>Node18&#45;&gt;Node2</title>
<path fill="none" stroke="#404040" d="M512.002,-285.405C505.145,-269.633 496.296,-249.281 488.067,-230.355"/>
<polygon fill="none" stroke="#404040" points="487.966,-230.122 481.905,-226.214 483.181,-219.117 489.242,-223.024 487.966,-230.122"/>
<text text-anchor="middle" x="520" y="-241.5" font-family="FreeSans" font-size="10.00"> &#45;mActors</text>
</g>
<!-- Node18&#45;&gt;Node20 -->
<g id="edge29" class="edge"><title>Node18&#45;&gt;Node20</title>
<path fill="none" stroke="midnightblue" d="M550.496,-277.153C567.708,-253.866 589.804,-223.971 605.639,-202.547"/>
<polygon fill="none" stroke="midnightblue" points="547.525,-275.283 544.396,-285.405 553.155,-279.444 547.525,-275.283"/>
</g>
<!-- Node19&#45;&gt;Node18 -->
<g id="edge24" class="edge"><title>Node19&#45;&gt;Node18</title>
<path fill="none" stroke="#404040" d="M722.736,-766.627C719.896,-701.963 711.735,-562.083 693,-518 664.378,-450.655 605.776,-388.393 565.689,-351.044"/>
<polygon fill="none" stroke="#404040" points="565.523,-350.892 558.398,-349.782 556.681,-342.779 563.806,-343.888 565.523,-350.892"/>
<text text-anchor="middle" x="741" y="-559.5" font-family="FreeSans" font-size="10.00"> +mServices</text>
</g>
<!-- Node19&#45;&gt;Node20 -->
<g id="edge30" class="edge"><title>Node19&#45;&gt;Node20</title>
<path fill="none" stroke="#404040" d="M739.943,-766.719C760.042,-721.63 792,-638.124 792,-563 792,-563 792,-563 792,-313 792,-262.558 746.114,-227.01 702.592,-204.639"/>
<polygon fill="none" stroke="#404040" points="702.375,-204.532 695.225,-205.472 691.608,-199.234 698.757,-198.294 702.375,-204.532"/>
<text text-anchor="middle" x="815" y="-451.5" font-family="FreeSans" font-size="10.00"> +mFlags</text>
</g>
<!-- Node20&#45;&gt;Node1 -->
<g id="edge28" class="edge"><title>Node20&#45;&gt;Node1</title>
<path fill="none" stroke="#404040" d="M612.164,-145.328C604.239,-129.478 594.056,-109.113 584.795,-90.5895"/>
<polygon fill="none" stroke="#404040" points="584.691,-90.3817 578.43,-86.804 579.324,-79.6486 585.585,-83.2262 584.691,-90.3817"/>
<text text-anchor="middle" x="622.5" y="-101.5" font-family="FreeSans" font-size="10.00"> &#45;mColumns</text>
</g>
</g>
</svg>
