<?xml version="1.0" encoding="UTF-8" standalone="no"?>
<!DOCTYPE svg PUBLIC "-//W3C//DTD SVG 1.1//EN"
 "http://www.w3.org/Graphics/SVG/1.1/DTD/svg11.dtd">
<!-- Generated by graphviz version 2.36.0 (20140111.2315)
 -->
<!-- Title: ESM::ESMReader::getUint Pages: 1 -->
<svg width="792pt" height="38pt"
 viewBox="0.00 0.00 792.00 38.00" xmlns="http://www.w3.org/2000/svg" xmlns:xlink="http://www.w3.org/1999/xlink">
<g id="graph0" class="graph" transform="scale(1 1) rotate(0) translate(4 34)">
<title>ESM::ESMReader::getUint</title>
<polygon fill="white" stroke="none" points="-4,4 -4,-34 788,-34 788,4 -4,4"/>
<!-- Node1 -->
<g id="node1" class="node"><title>Node1</title>
<polygon fill="#bfbfbf" stroke="black" points="0.5,-5.5 0.5,-24.5 129.5,-24.5 129.5,-5.5 0.5,-5.5"/>
<text text-anchor="middle" x="65" y="-12.5" font-family="FreeSans" font-size="10.00">ESM::ESMReader::getUint</text>
</g>
<!-- Node2 -->
<g id="node2" class="node"><title>Node2</title>
<g id="a_node2"><a xlink:href="classESM_1_1ESMReader.html#a04b4761b24d98c455289c437d28baea8" target="_top" xlink:title="ESM::ESMReader::getT">
<polygon fill="white" stroke="black" points="166,-5.5 166,-24.5 284,-24.5 284,-5.5 166,-5.5"/>
<text text-anchor="middle" x="225" y="-12.5" font-family="FreeSans" font-size="10.00">ESM::ESMReader::getT</text>
</a>
</g>
</g>
<!-- Node1&#45;&gt;Node2 -->
<g id="edge1" class="edge"><title>Node1&#45;&gt;Node2</title>
<path fill="none" stroke="midnightblue" d="M129.809,-15C138.366,-15 147.169,-15 155.798,-15"/>
<polygon fill="midnightblue" stroke="midnightblue" points="155.821,-18.5001 165.821,-15 155.821,-11.5001 155.821,-18.5001"/>
</g>
<!-- Node3 -->
<g id="node3" class="node"><title>Node3</title>
<g id="a_node3"><a xlink:href="classESM_1_1ESMReader.html#a623f3d4d7107adf94aeb7c234d01bc9e" target="_top" xlink:title="ESM::ESMReader::getExact">
<polygon fill="white" stroke="black" points="320,-5.5 320,-24.5 456,-24.5 456,-5.5 320,-5.5"/>
<text text-anchor="middle" x="388" y="-12.5" font-family="FreeSans" font-size="10.00">ESM::ESMReader::getExact</text>
</a>
</g>
</g>
<!-- Node2&#45;&gt;Node3 -->
<g id="edge2" class="edge"><title>Node2&#45;&gt;Node3</title>
<path fill="none" stroke="midnightblue" d="M284.125,-15C292.476,-15 301.176,-15 309.825,-15"/>
<polygon fill="midnightblue" stroke="midnightblue" points="309.931,-18.5001 319.931,-15 309.931,-11.5001 309.931,-18.5001"/>
</g>
<!-- Node4 -->
<g id="node4" class="node"><title>Node4</title>
<g id="a_node4"><a xlink:href="classESM_1_1ESMReader.html#a641a33a8cba2fc61d6431505391c5975" target="_top" xlink:title="Used for error handling. ">
<polygon fill="white" stroke="black" points="492.5,-5.5 492.5,-24.5 603.5,-24.5 603.5,-5.5 492.5,-5.5"/>
<text text-anchor="middle" x="548" y="-12.5" font-family="FreeSans" font-size="10.00">ESM::ESMReader::fail</text>
</a>
</g>
</g>
<!-- Node3&#45;&gt;Node4 -->
<g id="edge3" class="edge"><title>Node3&#45;&gt;Node4</title>
<path fill="none" stroke="midnightblue" d="M456.006,-15C464.711,-15 473.615,-15 482.282,-15"/>
<polygon fill="midnightblue" stroke="midnightblue" points="482.321,-18.5001 492.321,-15 482.321,-11.5001 482.321,-18.5001"/>
</g>
<!-- Node5 -->
<g id="node5" class="node"><title>Node5</title>
<g id="a_node5"><a xlink:href="classESM_1_1FIXED__STRING__BASE.html#ac6bed15d6c4aa261d961420d4af645c7" target="_top" xlink:title="ESM::FIXED_STRING_BASE\l::toString">
<polygon fill="white" stroke="black" points="640,-0 640,-30 784,-30 784,-0 640,-0"/>
<text text-anchor="start" x="648" y="-18" font-family="FreeSans" font-size="10.00">ESM::FIXED_STRING_BASE</text>
<text text-anchor="middle" x="712" y="-7" font-family="FreeSans" font-size="10.00">::toString</text>
</a>
</g>
</g>
<!-- Node4&#45;&gt;Node5 -->
<g id="edge4" class="edge"><title>Node4&#45;&gt;Node5</title>
<path fill="none" stroke="midnightblue" d="M603.846,-15C612.159,-15 620.883,-15 629.614,-15"/>
<polygon fill="midnightblue" stroke="midnightblue" points="629.841,-18.5001 639.841,-15 629.841,-11.5001 629.841,-18.5001"/>
</g>
</g>
</svg>
