<?xml version="1.0" encoding="UTF-8" standalone="no"?>
<!DOCTYPE svg PUBLIC "-//W3C//DTD SVG 1.1//EN"
 "http://www.w3.org/Graphics/SVG/1.1/DTD/svg11.dtd">
<!-- Generated by graphviz version 2.36.0 (20140111.2315)
 -->
<!-- Title: MWRender::AlphaFader Pages: 1 -->
<svg width="142pt" height="426pt"
 viewBox="0.00 0.00 142.00 426.00" xmlns="http://www.w3.org/2000/svg" xmlns:xlink="http://www.w3.org/1999/xlink">
<g id="graph0" class="graph" transform="scale(1 1) rotate(0) translate(4 422)">
<title>MWRender::AlphaFader</title>
<polygon fill="white" stroke="none" points="-4,4 -4,-422 138,-422 138,4 -4,4"/>
<!-- Node1 -->
<g id="node1" class="node"><title>Node1</title>
<polygon fill="#bfbfbf" stroke="black" points="7.5,-95 7.5,-185 126.5,-185 126.5,-95 7.5,-95"/>
<text text-anchor="middle" x="67" y="-173" font-family="FreeSans" font-size="10.00">MWRender::AlphaFader</text>
<polyline fill="none" stroke="black" points="7.5,-166 126.5,-166 "/>
<text text-anchor="start" x="15.5" y="-154" font-family="FreeSans" font-size="10.00">&#45; mAlpha</text>
<polyline fill="none" stroke="black" points="7.5,-147 126.5,-147 "/>
<text text-anchor="start" x="15.5" y="-135" font-family="FreeSans" font-size="10.00">+ AlphaFader()</text>
<text text-anchor="start" x="15.5" y="-124" font-family="FreeSans" font-size="10.00">+ setAlpha()</text>
<text text-anchor="start" x="15.5" y="-113" font-family="FreeSans" font-size="10.00">+ setDefaults()</text>
<text text-anchor="start" x="15.5" y="-102" font-family="FreeSans" font-size="10.00">+ apply()</text>
</g>
<!-- Node4 -->
<g id="node4" class="node"><title>Node4</title>
<g id="a_node4"><a xlink:href="classMWRender_1_1RainFader.html" target="_top" xlink:title="{MWRender::RainFader\n||+ setDefaults()\l}">
<polygon fill="white" stroke="black" points="10.5,-0.5 10.5,-57.5 123.5,-57.5 123.5,-0.5 10.5,-0.5"/>
<text text-anchor="middle" x="67" y="-45.5" font-family="FreeSans" font-size="10.00">MWRender::RainFader</text>
<polyline fill="none" stroke="black" points="10.5,-38.5 123.5,-38.5 "/>
<text text-anchor="middle" x="67" y="-26.5" font-family="FreeSans" font-size="10.00"> </text>
<polyline fill="none" stroke="black" points="10.5,-19.5 123.5,-19.5 "/>
<text text-anchor="start" x="18.5" y="-7.5" font-family="FreeSans" font-size="10.00">+ setDefaults()</text>
</a>
</g>
</g>
<!-- Node1&#45;&gt;Node4 -->
<g id="edge3" class="edge"><title>Node1&#45;&gt;Node4</title>
<path fill="none" stroke="midnightblue" d="M67,-84.792C67,-75.3496 67,-65.8956 67,-57.5636"/>
<polygon fill="none" stroke="midnightblue" points="63.5001,-84.9797 67,-94.9797 70.5001,-84.9798 63.5001,-84.9797"/>
</g>
<!-- Node2 -->
<g id="node2" class="node"><title>Node2</title>
<g id="a_node2"><a xlink:href="classSceneUtil_1_1StateSetUpdater.html" target="_top" xlink:title="Implements efficient per&#45;frame updating of StateSets. ">
<polygon fill="white" stroke="black" points="-0.5,-222.5 -0.5,-323.5 134.5,-323.5 134.5,-222.5 -0.5,-222.5"/>
<text text-anchor="middle" x="67" y="-311.5" font-family="FreeSans" font-size="10.00">SceneUtil::StateSetUpdater</text>
<polyline fill="none" stroke="black" points="-0.5,-304.5 134.5,-304.5 "/>
<text text-anchor="start" x="7.5" y="-292.5" font-family="FreeSans" font-size="10.00">&#45; mStateSets</text>
<polyline fill="none" stroke="black" points="-0.5,-285.5 134.5,-285.5 "/>
<text text-anchor="start" x="7.5" y="-273.5" font-family="FreeSans" font-size="10.00">+ StateSetUpdater()</text>
<text text-anchor="start" x="7.5" y="-262.5" font-family="FreeSans" font-size="10.00">+ StateSetUpdater()</text>
<text text-anchor="start" x="7.5" y="-251.5" font-family="FreeSans" font-size="10.00">+ apply()</text>
<text text-anchor="start" x="7.5" y="-240.5" font-family="FreeSans" font-size="10.00">+ setDefaults()</text>
<text text-anchor="start" x="7.5" y="-229.5" font-family="FreeSans" font-size="10.00"># reset()</text>
</a>
</g>
</g>
<!-- Node2&#45;&gt;Node1 -->
<g id="edge1" class="edge"><title>Node2&#45;&gt;Node1</title>
<path fill="none" stroke="midnightblue" d="M67,-212.229C67,-203.064 67,-193.747 67,-185.005"/>
<polygon fill="none" stroke="midnightblue" points="63.5001,-212.474 67,-222.475 70.5001,-212.475 63.5001,-212.474"/>
</g>
<!-- Node3 -->
<g id="node3" class="node"><title>Node3</title>
<polygon fill="white" stroke="#bfbfbf" points="28.5,-360.5 28.5,-417.5 105.5,-417.5 105.5,-360.5 28.5,-360.5"/>
<text text-anchor="middle" x="67" y="-405.5" font-family="FreeSans" font-size="10.00">NodeCallback</text>
<polyline fill="none" stroke="#bfbfbf" points="28.5,-398.5 105.5,-398.5 "/>
<text text-anchor="middle" x="67" y="-386.5" font-family="FreeSans" font-size="10.00"> </text>
<polyline fill="none" stroke="#bfbfbf" points="28.5,-379.5 105.5,-379.5 "/>
<text text-anchor="middle" x="67" y="-367.5" font-family="FreeSans" font-size="10.00"> </text>
</g>
<!-- Node3&#45;&gt;Node2 -->
<g id="edge2" class="edge"><title>Node3&#45;&gt;Node2</title>
<path fill="none" stroke="midnightblue" d="M67,-350.354C67,-341.796 67,-332.578 67,-323.608"/>
<polygon fill="none" stroke="midnightblue" points="63.5001,-350.404 67,-360.404 70.5001,-350.404 63.5001,-350.404"/>
</g>
</g>
</svg>
