<?xml version="1.0" encoding="UTF-8" standalone="no"?>
<!DOCTYPE svg PUBLIC "-//W3C//DTD SVG 1.1//EN"
 "http://www.w3.org/Graphics/SVG/1.1/DTD/svg11.dtd">
<!-- Generated by graphviz version 2.36.0 (20140111.2315)
 -->
<!-- Title: CSMDoc::SaveWatcher Pages: 1 -->
<svg width="900pt" height="636pt"
 viewBox="0.00 0.00 900.00 636.00" xmlns="http://www.w3.org/2000/svg" xmlns:xlink="http://www.w3.org/1999/xlink">
<g id="graph0" class="graph" transform="scale(1 1) rotate(0) translate(4 632)">
<title>CSMDoc::SaveWatcher</title>
<polygon fill="white" stroke="none" points="-4,4 -4,-632 896,-632 896,4 -4,4"/>
<!-- Node1 -->
<g id="node1" class="node"><title>Node1</title>
<polygon fill="#bfbfbf" stroke="black" points="80.5,-1 80.5,-69 205.5,-69 205.5,-1 80.5,-1"/>
<text text-anchor="middle" x="143" y="-57" font-family="FreeSans" font-size="10.00">CSMDoc::SaveWatcher</text>
<polyline fill="none" stroke="black" points="80.5,-50 205.5,-50 "/>
<text text-anchor="middle" x="143" y="-38" font-family="FreeSans" font-size="10.00"> </text>
<polyline fill="none" stroke="black" points="80.5,-31 205.5,-31 "/>
<text text-anchor="start" x="88.5" y="-19" font-family="FreeSans" font-size="10.00">+ SaveWatcher()</text>
<text text-anchor="start" x="88.5" y="-8" font-family="FreeSans" font-size="10.00">&#45; saveDone()</text>
</g>
<!-- Node2 -->
<g id="node2" class="node"><title>Node2</title>
<g id="a_node2"><a xlink:href="classQObject.html" target="_top" xlink:title="{QObject\n||}">
<polygon fill="white" stroke="black" points="-0.5,-323.5 -0.5,-380.5 54.5,-380.5 54.5,-323.5 -0.5,-323.5"/>
<text text-anchor="middle" x="27" y="-368.5" font-family="FreeSans" font-size="10.00">QObject</text>
<polyline fill="none" stroke="black" points="-0.5,-361.5 54.5,-361.5 "/>
<text text-anchor="middle" x="27" y="-349.5" font-family="FreeSans" font-size="10.00"> </text>
<polyline fill="none" stroke="black" points="-0.5,-342.5 54.5,-342.5 "/>
<text text-anchor="middle" x="27" y="-330.5" font-family="FreeSans" font-size="10.00"> </text>
</a>
</g>
</g>
<!-- Node2&#45;&gt;Node1 -->
<g id="edge1" class="edge"><title>Node2&#45;&gt;Node1</title>
<path fill="none" stroke="midnightblue" d="M40.6528,-313.926C63.472,-251.96 109.001,-128.325 130.807,-69.1094"/>
<polygon fill="none" stroke="midnightblue" points="37.3639,-312.728 37.1926,-323.322 43.9327,-315.147 37.3639,-312.728"/>
</g>
<!-- Node3 -->
<g id="node3" class="node"><title>Node3</title>
<g id="a_node3"><a xlink:href="classCSMDoc_1_1Runner.html" target="_top" xlink:title="{CSMDoc::Runner\n||+ Runner()\l+ ~Runner()\l+ start()\l+ stop()\l+ isRunning()\l+ configure()\l+ getLog()\l&#45; finished()\l&#45; readyReadStandardOutput()\l}">
<polygon fill="white" stroke="black" points="340,-118.5 340,-263.5 498,-263.5 498,-118.5 340,-118.5"/>
<text text-anchor="middle" x="419" y="-251.5" font-family="FreeSans" font-size="10.00">CSMDoc::Runner</text>
<polyline fill="none" stroke="black" points="340,-244.5 498,-244.5 "/>
<text text-anchor="middle" x="419" y="-232.5" font-family="FreeSans" font-size="10.00"> </text>
<polyline fill="none" stroke="black" points="340,-225.5 498,-225.5 "/>
<text text-anchor="start" x="348" y="-213.5" font-family="FreeSans" font-size="10.00">+ Runner()</text>
<text text-anchor="start" x="348" y="-202.5" font-family="FreeSans" font-size="10.00">+ ~Runner()</text>
<text text-anchor="start" x="348" y="-191.5" font-family="FreeSans" font-size="10.00">+ start()</text>
<text text-anchor="start" x="348" y="-180.5" font-family="FreeSans" font-size="10.00">+ stop()</text>
<text text-anchor="start" x="348" y="-169.5" font-family="FreeSans" font-size="10.00">+ isRunning()</text>
<text text-anchor="start" x="348" y="-158.5" font-family="FreeSans" font-size="10.00">+ configure()</text>
<text text-anchor="start" x="348" y="-147.5" font-family="FreeSans" font-size="10.00">+ getLog()</text>
<text text-anchor="start" x="348" y="-136.5" font-family="FreeSans" font-size="10.00">&#45; finished()</text>
<text text-anchor="start" x="348" y="-125.5" font-family="FreeSans" font-size="10.00">&#45; readyReadStandardOutput()</text>
</a>
</g>
</g>
<!-- Node2&#45;&gt;Node3 -->
<g id="edge3" class="edge"><title>Node2&#45;&gt;Node3</title>
<path fill="none" stroke="midnightblue" d="M57.803,-316.606C59.8272,-314.962 61.8987,-313.412 64,-312 149.186,-254.764 264.186,-222.501 339.91,-206.167"/>
<polygon fill="none" stroke="midnightblue" points="55.4088,-314.052 50.2656,-323.314 60.0626,-319.281 55.4088,-314.052"/>
</g>
<!-- Node3&#45;&gt;Node1 -->
<g id="edge2" class="edge"><title>Node3&#45;&gt;Node1</title>
<path fill="none" stroke="#404040" d="M339.909,-145.87C299.869,-123.528 251.682,-96.6416 213,-75.0578"/>
<polygon fill="none" stroke="#404040" points="212.835,-74.966 205.646,-75.5355 202.356,-69.1189 209.545,-68.5494 212.835,-74.966"/>
<text text-anchor="middle" x="282" y="-91.5" font-family="FreeSans" font-size="10.00"> &#45;mRunner</text>
</g>
<!-- Node4 -->
<g id="node4" class="node"><title>Node4</title>
<g id="a_node4"><a xlink:href="structESM_1_1DebugProfile.html" target="_top" xlink:title="{ESM::DebugProfile\n||+ load()\l+ save()\l+ blank()\l}">
<polygon fill="white" stroke="black" points="73,-312.5 73,-391.5 177,-391.5 177,-312.5 73,-312.5"/>
<text text-anchor="middle" x="125" y="-379.5" font-family="FreeSans" font-size="10.00">ESM::DebugProfile</text>
<polyline fill="none" stroke="black" points="73,-372.5 177,-372.5 "/>
<text text-anchor="middle" x="125" y="-360.5" font-family="FreeSans" font-size="10.00"> </text>
<polyline fill="none" stroke="black" points="73,-353.5 177,-353.5 "/>
<text text-anchor="start" x="81" y="-341.5" font-family="FreeSans" font-size="10.00">+ load()</text>
<text text-anchor="start" x="81" y="-330.5" font-family="FreeSans" font-size="10.00">+ save()</text>
<text text-anchor="start" x="81" y="-319.5" font-family="FreeSans" font-size="10.00">+ blank()</text>
</a>
</g>
</g>
<!-- Node4&#45;&gt;Node3 -->
<g id="edge4" class="edge"><title>Node4&#45;&gt;Node3</title>
<path fill="none" stroke="#404040" d="M134.094,-312.372C138.294,-301.363 144.345,-290.157 153,-282 200.614,-237.126 271.409,-214.567 327.995,-203.259"/>
<polygon fill="none" stroke="#404040" points="328.051,-203.248 333.2,-198.201 339.841,-201.013 334.691,-206.061 328.051,-203.248"/>
<text text-anchor="middle" x="176" y="-285.5" font-family="FreeSans" font-size="10.00"> &#45;mProfile</text>
</g>
<!-- Node5 -->
<g id="node5" class="node"><title>Node5</title>
<g id="a_node5"><a xlink:title="STL class. ">
<polygon fill="white" stroke="#bfbfbf" points="180.5,-462.5 180.5,-519.5 245.5,-519.5 245.5,-462.5 180.5,-462.5"/>
<text text-anchor="middle" x="213" y="-507.5" font-family="FreeSans" font-size="10.00">std::string</text>
<polyline fill="none" stroke="#bfbfbf" points="180.5,-500.5 245.5,-500.5 "/>
<text text-anchor="middle" x="213" y="-488.5" font-family="FreeSans" font-size="10.00"> </text>
<polyline fill="none" stroke="#bfbfbf" points="180.5,-481.5 245.5,-481.5 "/>
<text text-anchor="middle" x="213" y="-469.5" font-family="FreeSans" font-size="10.00"> </text>
</a>
</g>
</g>
<!-- Node5&#45;&gt;Node3 -->
<g id="edge11" class="edge"><title>Node5&#45;&gt;Node3</title>
<path fill="none" stroke="#404040" d="M206.924,-462.424C200.331,-425.377 194.136,-358.79 222,-312 245.926,-271.821 289.014,-243.329 328.803,-224.222"/>
<polygon fill="none" stroke="#404040" points="329.029,-224.118 332.795,-217.968 339.92,-219.08 336.154,-225.229 329.029,-224.118"/>
<text text-anchor="middle" x="273.5" y="-349.5" font-family="FreeSans" font-size="10.00"> &#45;mStartupInstruction</text>
</g>
<!-- Node5&#45;&gt;Node4 -->
<g id="edge5" class="edge"><title>Node5&#45;&gt;Node4</title>
<path fill="none" stroke="#404040" d="M180.242,-481.782C160.853,-475.058 137.833,-463.4 126,-444 118.819,-432.227 116.418,-417.904 116.373,-404.138"/>
<polygon fill="none" stroke="#404040" points="116.391,-403.73 112.662,-397.558 116.924,-391.742 120.654,-397.914 116.391,-403.73"/>
<text text-anchor="middle" x="162.5" y="-435.5" font-family="FreeSans" font-size="10.00"> +mId</text>
<text text-anchor="middle" x="162.5" y="-424.5" font-family="FreeSans" font-size="10.00">+mDescription</text>
<text text-anchor="middle" x="162.5" y="-413.5" font-family="FreeSans" font-size="10.00">+mScriptText</text>
</g>
<!-- Node13 -->
<g id="node13" class="node"><title>Node13</title>
<polygon fill="white" stroke="#bfbfbf" points="754,-323.5 754,-380.5 892,-380.5 892,-323.5 754,-323.5"/>
<text text-anchor="middle" x="823" y="-368.5" font-family="FreeSans" font-size="10.00">std::vector&lt; std::string &gt;</text>
<polyline fill="none" stroke="#bfbfbf" points="754,-361.5 892,-361.5 "/>
<text text-anchor="middle" x="823" y="-349.5" font-family="FreeSans" font-size="10.00"> </text>
<polyline fill="none" stroke="#bfbfbf" points="754,-342.5 892,-342.5 "/>
<text text-anchor="middle" x="823" y="-330.5" font-family="FreeSans" font-size="10.00"> </text>
</g>
<!-- Node5&#45;&gt;Node13 -->
<g id="edge15" class="edge"><title>Node5&#45;&gt;Node13</title>
<path fill="none" stroke="#404040" d="M245.801,-487.12C330.263,-479.032 561.39,-452.624 744,-392 749.75,-390.091 755.612,-387.839 761.413,-385.396"/>
<polygon fill="none" stroke="#404040" points="761.48,-385.367 765.344,-379.278 772.45,-380.503 768.586,-386.591 761.48,-385.367"/>
<text text-anchor="middle" x="702.5" y="-424.5" font-family="FreeSans" font-size="10.00"> +elements</text>
</g>
<!-- Node6 -->
<g id="node6" class="node"><title>Node6</title>
<g id="a_node6"><a xlink:title="STL class. ">
<polygon fill="white" stroke="#bfbfbf" points="161.5,-559 161.5,-627 264.5,-627 264.5,-559 161.5,-559"/>
<text text-anchor="start" x="169.5" y="-615" font-family="FreeSans" font-size="10.00">std::basic_string&lt;</text>
<text text-anchor="middle" x="213" y="-604" font-family="FreeSans" font-size="10.00"> char &gt;</text>
<polyline fill="none" stroke="#bfbfbf" points="161.5,-597 264.5,-597 "/>
<text text-anchor="middle" x="213" y="-585" font-family="FreeSans" font-size="10.00"> </text>
<polyline fill="none" stroke="#bfbfbf" points="161.5,-578 264.5,-578 "/>
<text text-anchor="middle" x="213" y="-566" font-family="FreeSans" font-size="10.00"> </text>
</a>
</g>
</g>
<!-- Node6&#45;&gt;Node5 -->
<g id="edge6" class="edge"><title>Node6&#45;&gt;Node5</title>
<path fill="none" stroke="midnightblue" d="M213,-548.857C213,-538.952 213,-528.682 213,-519.64"/>
<polygon fill="none" stroke="midnightblue" points="209.5,-548.979 213,-558.979 216.5,-548.979 209.5,-548.979"/>
</g>
<!-- Node7 -->
<g id="node7" class="node"><title>Node7</title>
<polygon fill="white" stroke="#bfbfbf" points="17,-462.5 17,-519.5 77,-519.5 77,-462.5 17,-462.5"/>
<text text-anchor="middle" x="47" y="-507.5" font-family="FreeSans" font-size="10.00">unsigned</text>
<polyline fill="none" stroke="#bfbfbf" points="17,-500.5 77,-500.5 "/>
<text text-anchor="middle" x="47" y="-488.5" font-family="FreeSans" font-size="10.00"> </text>
<polyline fill="none" stroke="#bfbfbf" points="17,-481.5 77,-481.5 "/>
<text text-anchor="middle" x="47" y="-469.5" font-family="FreeSans" font-size="10.00"> </text>
</g>
<!-- Node7&#45;&gt;Node4 -->
<g id="edge7" class="edge"><title>Node7&#45;&gt;Node4</title>
<path fill="none" stroke="#404040" d="M41.467,-462.245C39.6467,-446.14 39.8368,-425.951 48,-410 50.3176,-405.471 55.9242,-399.853 63.1156,-393.923"/>
<polygon fill="none" stroke="#404040" points="63.4597,-393.656 65.7513,-386.819 72.9441,-386.305 70.6524,-393.142 63.4597,-393.656"/>
<text text-anchor="middle" x="75.5" y="-430" font-family="FreeSans" font-size="10.00"> +mFlags</text>
<text text-anchor="middle" x="75.5" y="-419" font-family="FreeSans" font-size="10.00">+sRecordId</text>
</g>
<!-- Node8 -->
<g id="node8" class="node"><title>Node8</title>
<polygon fill="white" stroke="#bfbfbf" points="334.5,-323.5 334.5,-380.5 427.5,-380.5 427.5,-323.5 334.5,-323.5"/>
<text text-anchor="middle" x="381" y="-368.5" font-family="FreeSans" font-size="10.00">QTextDocument</text>
<polyline fill="none" stroke="#bfbfbf" points="334.5,-361.5 427.5,-361.5 "/>
<text text-anchor="middle" x="381" y="-349.5" font-family="FreeSans" font-size="10.00"> </text>
<polyline fill="none" stroke="#bfbfbf" points="334.5,-342.5 427.5,-342.5 "/>
<text text-anchor="middle" x="381" y="-330.5" font-family="FreeSans" font-size="10.00"> </text>
</g>
<!-- Node8&#45;&gt;Node3 -->
<g id="edge8" class="edge"><title>Node8&#45;&gt;Node3</title>
<path fill="none" stroke="#404040" d="M387.619,-323.304C390.833,-309.858 394.883,-292.91 398.997,-275.699"/>
<polygon fill="none" stroke="#404040" points="399.055,-275.452 396.56,-268.687 401.845,-263.781 404.34,-270.547 399.055,-275.452"/>
<text text-anchor="middle" x="414" y="-285.5" font-family="FreeSans" font-size="10.00"> &#45;mLog</text>
</g>
<!-- Node9 -->
<g id="node9" class="node"><title>Node9</title>
<polygon fill="white" stroke="#bfbfbf" points="446,-323.5 446,-380.5 484,-380.5 484,-323.5 446,-323.5"/>
<text text-anchor="middle" x="465" y="-368.5" font-family="FreeSans" font-size="10.00">path</text>
<polyline fill="none" stroke="#bfbfbf" points="446,-361.5 484,-361.5 "/>
<text text-anchor="middle" x="465" y="-349.5" font-family="FreeSans" font-size="10.00"> </text>
<polyline fill="none" stroke="#bfbfbf" points="446,-342.5 484,-342.5 "/>
<text text-anchor="middle" x="465" y="-330.5" font-family="FreeSans" font-size="10.00"> </text>
</g>
<!-- Node9&#45;&gt;Node3 -->
<g id="edge9" class="edge"><title>Node9&#45;&gt;Node3</title>
<path fill="none" stroke="#404040" d="M456.987,-323.304C453.097,-309.858 448.194,-292.91 443.215,-275.699"/>
<polygon fill="none" stroke="#404040" points="443.102,-275.308 437.592,-270.656 439.767,-263.781 445.277,-268.433 443.102,-275.308"/>
<text text-anchor="middle" x="483.5" y="-285.5" font-family="FreeSans" font-size="10.00"> &#45;mProjectPath</text>
</g>
<!-- Node10 -->
<g id="node10" class="node"><title>Node10</title>
<polygon fill="white" stroke="#bfbfbf" points="502,-323.5 502,-380.5 600,-380.5 600,-323.5 502,-323.5"/>
<text text-anchor="middle" x="551" y="-368.5" font-family="FreeSans" font-size="10.00">QTemporaryFile *</text>
<polyline fill="none" stroke="#bfbfbf" points="502,-361.5 600,-361.5 "/>
<text text-anchor="middle" x="551" y="-349.5" font-family="FreeSans" font-size="10.00"> </text>
<polyline fill="none" stroke="#bfbfbf" points="502,-342.5 600,-342.5 "/>
<text text-anchor="middle" x="551" y="-330.5" font-family="FreeSans" font-size="10.00"> </text>
</g>
<!-- Node10&#45;&gt;Node3 -->
<g id="edge10" class="edge"><title>Node10&#45;&gt;Node3</title>
<path fill="none" stroke="#404040" d="M543.106,-323.277C538.525,-310.032 531.882,-294.403 523,-282 518.03,-275.06 512.42,-268.303 506.445,-261.813"/>
<polygon fill="none" stroke="#404040" points="506.418,-261.785 499.376,-260.235 498.098,-253.137 505.141,-254.688 506.418,-261.785"/>
<text text-anchor="middle" x="556.5" y="-285.5" font-family="FreeSans" font-size="10.00"> &#45;mStartup</text>
</g>
<!-- Node11 -->
<g id="node11" class="node"><title>Node11</title>
<g id="a_node11"><a xlink:href="classbool.html" target="_top" xlink:title="{bool\n||}">
<polygon fill="white" stroke="black" points="618.5,-323.5 618.5,-380.5 655.5,-380.5 655.5,-323.5 618.5,-323.5"/>
<text text-anchor="middle" x="637" y="-368.5" font-family="FreeSans" font-size="10.00">bool</text>
<polyline fill="none" stroke="black" points="618.5,-361.5 655.5,-361.5 "/>
<text text-anchor="middle" x="637" y="-349.5" font-family="FreeSans" font-size="10.00"> </text>
<polyline fill="none" stroke="black" points="618.5,-342.5 655.5,-342.5 "/>
<text text-anchor="middle" x="637" y="-330.5" font-family="FreeSans" font-size="10.00"> </text>
</a>
</g>
</g>
<!-- Node11&#45;&gt;Node3 -->
<g id="edge12" class="edge"><title>Node11&#45;&gt;Node3</title>
<path fill="none" stroke="#404040" d="M621.201,-323.495C612.391,-309.832 600.484,-293.773 587,-282 563.998,-261.917 535.748,-244.617 509.023,-230.704"/>
<polygon fill="none" stroke="#404040" points="508.781,-230.581 501.62,-231.431 498.081,-225.148 505.242,-224.298 508.781,-230.581"/>
<text text-anchor="middle" x="626.5" y="-285.5" font-family="FreeSans" font-size="10.00"> &#45;mRunning</text>
</g>
<!-- Node12 -->
<g id="node12" class="node"><title>Node12</title>
<polygon fill="white" stroke="#bfbfbf" points="674,-323.5 674,-380.5 736,-380.5 736,-323.5 674,-323.5"/>
<text text-anchor="middle" x="705" y="-368.5" font-family="FreeSans" font-size="10.00">QProcess</text>
<polyline fill="none" stroke="#bfbfbf" points="674,-361.5 736,-361.5 "/>
<text text-anchor="middle" x="705" y="-349.5" font-family="FreeSans" font-size="10.00"> </text>
<polyline fill="none" stroke="#bfbfbf" points="674,-342.5 736,-342.5 "/>
<text text-anchor="middle" x="705" y="-330.5" font-family="FreeSans" font-size="10.00"> </text>
</g>
<!-- Node12&#45;&gt;Node3 -->
<g id="edge13" class="edge"><title>Node12&#45;&gt;Node3</title>
<path fill="none" stroke="#404040" d="M691.47,-323.404C683.41,-309.381 672.013,-293.022 658,-282 614.779,-248.004 557.34,-225.824 509.605,-211.991"/>
<polygon fill="none" stroke="#404040" points="509.563,-211.979 502.705,-214.209 498.009,-208.737 504.866,-206.507 509.563,-211.979"/>
<text text-anchor="middle" x="697.5" y="-285.5" font-family="FreeSans" font-size="10.00"> &#45;mProcess</text>
</g>
<!-- Node13&#45;&gt;Node3 -->
<g id="edge14" class="edge"><title>Node13&#45;&gt;Node3</title>
<path fill="none" stroke="#404040" d="M791.333,-323.392C773.908,-309.366 751.335,-293.007 729,-282 659.107,-247.556 573.69,-223.978 510.23,-209.623"/>
<polygon fill="none" stroke="#404040" points="509.959,-209.563 503.234,-212.168 498.244,-206.963 504.968,-204.358 509.959,-209.563"/>
<text text-anchor="middle" x="787" y="-285.5" font-family="FreeSans" font-size="10.00"> &#45;mContentFiles</text>
</g>
</g>
</svg>
