<?xml version="1.0" encoding="UTF-8" standalone="no"?>
<!DOCTYPE svg PUBLIC "-//W3C//DTD SVG 1.1//EN"
 "http://www.w3.org/Graphics/SVG/1.1/DTD/svg11.dtd">
<!-- Generated by graphviz version 2.36.0 (20140111.2315)
 -->
<!-- Title: MWRender::LocalMap::requestMap Pages: 1 -->
<svg width="498pt" height="578pt"
 viewBox="0.00 0.00 498.00 578.00" xmlns="http://www.w3.org/2000/svg" xmlns:xlink="http://www.w3.org/1999/xlink">
<g id="graph0" class="graph" transform="scale(1 1) rotate(0) translate(4 574)">
<title>MWRender::LocalMap::requestMap</title>
<polygon fill="white" stroke="none" points="-4,4 -4,-574 494,-574 494,4 -4,4"/>
<!-- Node1 -->
<g id="node1" class="node"><title>Node1</title>
<polygon fill="#bfbfbf" stroke="black" points="0.5,-416 0.5,-446 117.5,-446 117.5,-416 0.5,-416"/>
<text text-anchor="start" x="8.5" y="-434" font-family="FreeSans" font-size="10.00">MWRender::LocalMap</text>
<text text-anchor="middle" x="59" y="-423" font-family="FreeSans" font-size="10.00">::requestMap</text>
</g>
<!-- Node2 -->
<g id="node2" class="node"><title>Node2</title>
<g id="a_node2"><a xlink:href="classMWWorld_1_1CellStore.html#a0cf5ba632c9f67dc25d28e4bebd8c8f5" target="_top" xlink:title="MWWorld::CellStore\l::isExterior">
<polygon fill="white" stroke="black" points="166,-540 166,-570 274,-570 274,-540 166,-540"/>
<text text-anchor="start" x="174" y="-558" font-family="FreeSans" font-size="10.00">MWWorld::CellStore</text>
<text text-anchor="middle" x="220" y="-547" font-family="FreeSans" font-size="10.00">::isExterior</text>
</a>
</g>
</g>
<!-- Node1&#45;&gt;Node2 -->
<g id="edge1" class="edge"><title>Node1&#45;&gt;Node2</title>
<path fill="none" stroke="midnightblue" d="M72.4044,-446.103C89.273,-465.924 121.13,-500.902 154,-524 159.907,-528.151 166.457,-532.007 173.059,-535.49"/>
<polygon fill="midnightblue" stroke="midnightblue" points="171.532,-538.639 182.039,-540 174.674,-532.384 171.532,-538.639"/>
</g>
<!-- Node4 -->
<g id="node4" class="node"><title>Node4</title>
<g id="a_node4"><a xlink:href="classMWWorld_1_1CellStore.html#a6b204d54fa4c8dc58ead29c86e2362ba" target="_top" xlink:title="MWWorld::CellStore\l::getCell">
<polygon fill="white" stroke="black" points="352,-498 352,-528 460,-528 460,-498 352,-498"/>
<text text-anchor="start" x="360" y="-516" font-family="FreeSans" font-size="10.00">MWWorld::CellStore</text>
<text text-anchor="middle" x="406" y="-505" font-family="FreeSans" font-size="10.00">::getCell</text>
</a>
</g>
</g>
<!-- Node1&#45;&gt;Node4 -->
<g id="edge3" class="edge"><title>Node1&#45;&gt;Node4</title>
<path fill="none" stroke="midnightblue" d="M97.5225,-446.114C114.559,-452.574 135.09,-459.807 154,-465 216.97,-482.292 290.503,-495.568 341.637,-503.729"/>
<polygon fill="midnightblue" stroke="midnightblue" points="341.133,-507.192 351.556,-505.292 342.223,-500.278 341.133,-507.192"/>
</g>
<!-- Node5 -->
<g id="node5" class="node"><title>Node5</title>
<g id="a_node5"><a xlink:href="structESM_1_1Cell.html#a88979089a417025271e74645ca70b0a6" target="_top" xlink:title="ESM::Cell::getGridX">
<polygon fill="white" stroke="black" points="352,-459.5 352,-478.5 460,-478.5 460,-459.5 352,-459.5"/>
<text text-anchor="middle" x="406" y="-466.5" font-family="FreeSans" font-size="10.00">ESM::Cell::getGridX</text>
</a>
</g>
</g>
<!-- Node1&#45;&gt;Node5 -->
<g id="edge4" class="edge"><title>Node1&#45;&gt;Node5</title>
<path fill="none" stroke="midnightblue" d="M117.601,-440.068C129.614,-441.821 142.208,-443.559 154,-445 217.619,-452.774 290.57,-459.506 341.368,-463.845"/>
<polygon fill="midnightblue" stroke="midnightblue" points="341.281,-467.35 351.541,-464.707 341.872,-460.375 341.281,-467.35"/>
</g>
<!-- Node6 -->
<g id="node6" class="node"><title>Node6</title>
<g id="a_node6"><a xlink:href="structESM_1_1Cell.html#a749c20ed60697b5a521c14eaf66164ec" target="_top" xlink:title="ESM::Cell::getGridY">
<polygon fill="white" stroke="black" points="352.5,-421.5 352.5,-440.5 459.5,-440.5 459.5,-421.5 352.5,-421.5"/>
<text text-anchor="middle" x="406" y="-428.5" font-family="FreeSans" font-size="10.00">ESM::Cell::getGridY</text>
</a>
</g>
</g>
<!-- Node1&#45;&gt;Node6 -->
<g id="edge5" class="edge"><title>Node1&#45;&gt;Node6</title>
<path fill="none" stroke="midnightblue" d="M117.745,-431C179.798,-431 278.109,-431 342.09,-431"/>
<polygon fill="midnightblue" stroke="midnightblue" points="342.444,-434.5 352.444,-431 342.444,-427.5 342.444,-434.5"/>
</g>
<!-- Node7 -->
<g id="node7" class="node"><title>Node7</title>
<g id="a_node7"><a xlink:href="namespaceMWRender.html#afd3b39926905b1e921d7b7d39b9ac9d5" target="_top" xlink:title="MWRender::needUpdate">
<polygon fill="white" stroke="black" points="154.5,-186.5 154.5,-205.5 285.5,-205.5 285.5,-186.5 154.5,-186.5"/>
<text text-anchor="middle" x="220" y="-193.5" font-family="FreeSans" font-size="10.00">MWRender::needUpdate</text>
</a>
</g>
</g>
<!-- Node1&#45;&gt;Node7 -->
<g id="edge6" class="edge"><title>Node1&#45;&gt;Node7</title>
<path fill="none" stroke="midnightblue" d="M62.1233,-415.874C68.4427,-376.623 90.793,-270.701 154,-215 155.93,-213.3 158.004,-211.751 160.184,-210.341"/>
<polygon fill="midnightblue" stroke="midnightblue" points="161.902,-213.391 169.037,-205.559 158.576,-207.232 161.902,-213.391"/>
</g>
<!-- Node8 -->
<g id="node8" class="node"><title>Node8</title>
<g id="a_node8"><a xlink:href="classMWRender_1_1LocalMap.html#ab489ae70f6052443432cade451c22ace" target="_top" xlink:title="MWRender::LocalMap\l::requestExteriorMap">
<polygon fill="white" stroke="black" points="161.5,-372 161.5,-402 278.5,-402 278.5,-372 161.5,-372"/>
<text text-anchor="start" x="169.5" y="-390" font-family="FreeSans" font-size="10.00">MWRender::LocalMap</text>
<text text-anchor="middle" x="220" y="-379" font-family="FreeSans" font-size="10.00">::requestExteriorMap</text>
</a>
</g>
</g>
<!-- Node1&#45;&gt;Node8 -->
<g id="edge7" class="edge"><title>Node1&#45;&gt;Node8</title>
<path fill="none" stroke="midnightblue" d="M114.274,-415.981C127.377,-412.355 141.5,-408.447 155.002,-404.71"/>
<polygon fill="midnightblue" stroke="midnightblue" points="155.996,-408.067 164.701,-402.026 154.129,-401.32 155.996,-408.067"/>
</g>
<!-- Node12 -->
<g id="node12" class="node"><title>Node12</title>
<g id="a_node12"><a xlink:href="classMWRender_1_1LocalMap.html#aa734324143122bfe658a27e2e782147b" target="_top" xlink:title="MWRender::LocalMap\l::requestInteriorMap">
<polygon fill="white" stroke="black" points="161.5,-225 161.5,-255 278.5,-255 278.5,-225 161.5,-225"/>
<text text-anchor="start" x="169.5" y="-243" font-family="FreeSans" font-size="10.00">MWRender::LocalMap</text>
<text text-anchor="middle" x="220" y="-232" font-family="FreeSans" font-size="10.00">::requestInteriorMap</text>
</a>
</g>
</g>
<!-- Node1&#45;&gt;Node12 -->
<g id="edge14" class="edge"><title>Node1&#45;&gt;Node12</title>
<path fill="none" stroke="midnightblue" d="M72.7429,-415.693C100.606,-382.222 167.079,-302.37 199.941,-262.895"/>
<polygon fill="midnightblue" stroke="midnightblue" points="202.709,-265.04 206.417,-255.115 197.329,-260.561 202.709,-265.04"/>
</g>
<!-- Node3 -->
<g id="node3" class="node"><title>Node3</title>
<g id="a_node3"><a xlink:href="structESM_1_1Cell.html#a81fbb05c7c9f739f7d81504aabf7bb6b" target="_top" xlink:title="ESM::Cell::isExterior">
<polygon fill="white" stroke="black" points="350.5,-547.5 350.5,-566.5 461.5,-566.5 461.5,-547.5 350.5,-547.5"/>
<text text-anchor="middle" x="406" y="-554.5" font-family="FreeSans" font-size="10.00">ESM::Cell::isExterior</text>
</a>
</g>
</g>
<!-- Node2&#45;&gt;Node3 -->
<g id="edge2" class="edge"><title>Node2&#45;&gt;Node3</title>
<path fill="none" stroke="midnightblue" d="M274.22,-555.578C294.836,-555.803 318.632,-556.061 340.228,-556.296"/>
<polygon fill="midnightblue" stroke="midnightblue" points="340.264,-559.796 350.302,-556.405 340.34,-552.797 340.264,-559.796"/>
</g>
<!-- Node8&#45;&gt;Node4 -->
<g id="edge8" class="edge"><title>Node8&#45;&gt;Node4</title>
<path fill="none" stroke="midnightblue" d="M232.291,-402.362C249.322,-424.464 283.692,-465.09 322,-488 328.304,-491.77 335.222,-495.012 342.29,-497.789"/>
<polygon fill="midnightblue" stroke="midnightblue" points="341.384,-501.183 351.979,-501.294 343.766,-494.601 341.384,-501.183"/>
</g>
<!-- Node8&#45;&gt;Node5 -->
<g id="edge9" class="edge"><title>Node8&#45;&gt;Node5</title>
<path fill="none" stroke="midnightblue" d="M240.801,-402.153C260.418,-416.466 291.816,-437.544 322,-450 328.335,-452.614 335.097,-454.905 341.925,-456.903"/>
<polygon fill="midnightblue" stroke="midnightblue" points="341.364,-460.377 351.932,-459.625 343.201,-453.623 341.364,-460.377"/>
</g>
<!-- Node8&#45;&gt;Node6 -->
<g id="edge10" class="edge"><title>Node8&#45;&gt;Node6</title>
<path fill="none" stroke="midnightblue" d="M278.714,-400.801C303.336,-406.689 331.782,-413.491 355.436,-419.148"/>
<polygon fill="midnightblue" stroke="midnightblue" points="354.715,-422.574 365.254,-421.496 356.343,-415.766 354.715,-422.574"/>
</g>
<!-- Node9 -->
<g id="node9" class="node"><title>Node9</title>
<g id="a_node9"><a xlink:href="classMWRender_1_1LocalMap.html#ad1ee3ef7f766db653875b0744530e7e0" target="_top" xlink:title="MWRender::LocalMap\l::createOrthographicCamera">
<polygon fill="white" stroke="black" points="329,-372 329,-402 483,-402 483,-372 329,-372"/>
<text text-anchor="start" x="337" y="-390" font-family="FreeSans" font-size="10.00">MWRender::LocalMap</text>
<text text-anchor="middle" x="406" y="-379" font-family="FreeSans" font-size="10.00">::createOrthographicCamera</text>
</a>
</g>
</g>
<!-- Node8&#45;&gt;Node9 -->
<g id="edge11" class="edge"><title>Node8&#45;&gt;Node9</title>
<path fill="none" stroke="midnightblue" d="M278.714,-387C291.396,-387 305.092,-387 318.625,-387"/>
<polygon fill="midnightblue" stroke="midnightblue" points="318.922,-390.5 328.922,-387 318.922,-383.5 318.922,-390.5"/>
</g>
<!-- Node10 -->
<g id="node10" class="node"><title>Node10</title>
<g id="a_node10"><a xlink:href="classMWRender_1_1LocalMap.html#a92177c2a33088023063d67d54da1059a" target="_top" xlink:title="MWRender::LocalMap\l::setupRenderToTexture">
<polygon fill="white" stroke="black" points="342.5,-323 342.5,-353 469.5,-353 469.5,-323 342.5,-323"/>
<text text-anchor="start" x="350.5" y="-341" font-family="FreeSans" font-size="10.00">MWRender::LocalMap</text>
<text text-anchor="middle" x="406" y="-330" font-family="FreeSans" font-size="10.00">::setupRenderToTexture</text>
</a>
</g>
</g>
<!-- Node8&#45;&gt;Node10 -->
<g id="edge12" class="edge"><title>Node8&#45;&gt;Node10</title>
<path fill="none" stroke="midnightblue" d="M277.457,-371.965C296.884,-366.792 318.811,-360.952 338.935,-355.593"/>
<polygon fill="midnightblue" stroke="midnightblue" points="339.888,-358.962 348.65,-353.006 338.086,-352.197 339.888,-358.962"/>
</g>
<!-- Node11 -->
<g id="node11" class="node"><title>Node11</title>
<g id="a_node11"><a xlink:href="classMWWorld_1_1CellStore.html#aa64213504da7e91b10eaf74bf9670d61" target="_top" xlink:title="MWWorld::CellStore\l::getFog">
<polygon fill="white" stroke="black" points="352,-274 352,-304 460,-304 460,-274 352,-274"/>
<text text-anchor="start" x="360" y="-292" font-family="FreeSans" font-size="10.00">MWWorld::CellStore</text>
<text text-anchor="middle" x="406" y="-281" font-family="FreeSans" font-size="10.00">::getFog</text>
</a>
</g>
</g>
<!-- Node8&#45;&gt;Node11 -->
<g id="edge13" class="edge"><title>Node8&#45;&gt;Node11</title>
<path fill="none" stroke="midnightblue" d="M237.665,-371.895C256.763,-355.308 289.617,-328.919 322,-313 328.386,-309.861 335.255,-307.061 342.209,-304.582"/>
<polygon fill="midnightblue" stroke="midnightblue" points="343.337,-307.896 351.707,-301.4 341.113,-301.258 343.337,-307.896"/>
</g>
<!-- Node12&#45;&gt;Node9 -->
<g id="edge20" class="edge"><title>Node12&#45;&gt;Node9</title>
<path fill="none" stroke="midnightblue" d="M229.476,-255.2C244.648,-281.019 278.928,-333.415 322,-362 325.064,-364.034 328.3,-365.907 331.646,-367.632"/>
<polygon fill="midnightblue" stroke="midnightblue" points="330.178,-370.809 340.72,-371.859 333.134,-364.464 330.178,-370.809"/>
</g>
<!-- Node12&#45;&gt;Node10 -->
<g id="edge21" class="edge"><title>Node12&#45;&gt;Node10</title>
<path fill="none" stroke="midnightblue" d="M238.083,-255.117C257.292,-271.425 290,-297.177 322,-313 326.604,-315.276 331.455,-317.39 336.405,-319.344"/>
<polygon fill="midnightblue" stroke="midnightblue" points="335.417,-322.71 346.01,-322.905 337.851,-316.147 335.417,-322.71"/>
</g>
<!-- Node12&#45;&gt;Node11 -->
<g id="edge19" class="edge"><title>Node12&#45;&gt;Node11</title>
<path fill="none" stroke="midnightblue" d="M277.457,-255.035C297.885,-260.475 321.076,-266.651 342.028,-272.23"/>
<polygon fill="midnightblue" stroke="midnightblue" points="341.231,-275.64 351.795,-274.831 343.032,-268.876 341.231,-275.64"/>
</g>
<!-- Node13 -->
<g id="node13" class="node"><title>Node13</title>
<g id="a_node13"><a xlink:href="classMWBase_1_1Environment.html#a73f12633762b049c03c80fe215873faa" target="_top" xlink:title="Return instance of this class. ">
<polygon fill="white" stroke="black" points="333,-88.5 333,-107.5 479,-107.5 479,-88.5 333,-88.5"/>
<text text-anchor="middle" x="406" y="-95.5" font-family="FreeSans" font-size="10.00">MWBase::Environment::get</text>
</a>
</g>
</g>
<!-- Node12&#45;&gt;Node13 -->
<g id="edge15" class="edge"><title>Node12&#45;&gt;Node13</title>
<path fill="none" stroke="midnightblue" d="M272.9,-224.946C277.698,-222.162 282.182,-218.876 286,-215 318.562,-181.942 287.173,-147.662 322,-117 323.758,-115.452 325.616,-114.023 327.555,-112.705"/>
<polygon fill="midnightblue" stroke="midnightblue" points="329.562,-115.59 336.519,-107.599 326.098,-109.507 329.562,-115.59"/>
</g>
<!-- Node14 -->
<g id="node14" class="node"><title>Node14</title>
<g id="a_node14"><a xlink:href="classMWBase_1_1Environment.html#ae14e166d8f5ff8629be119333d502660" target="_top" xlink:title="MWBase::Environment\l::getWorld">
<polygon fill="white" stroke="black" points="344,-39 344,-69 468,-69 468,-39 344,-39"/>
<text text-anchor="start" x="352" y="-57" font-family="FreeSans" font-size="10.00">MWBase::Environment</text>
<text text-anchor="middle" x="406" y="-46" font-family="FreeSans" font-size="10.00">::getWorld</text>
</a>
</g>
</g>
<!-- Node12&#45;&gt;Node14 -->
<g id="edge16" class="edge"><title>Node12&#45;&gt;Node14</title>
<path fill="none" stroke="midnightblue" d="M273.904,-224.916C278.389,-222.145 282.528,-218.87 286,-215 327.753,-168.457 278.541,-123.953 322,-79 325.697,-75.1759 329.955,-71.9313 334.549,-69.1789"/>
<polygon fill="midnightblue" stroke="midnightblue" points="336.435,-72.1453 343.738,-64.4698 333.243,-65.9156 336.435,-72.1453"/>
</g>
<!-- Node15 -->
<g id="node15" class="node"><title>Node15</title>
<g id="a_node15"><a xlink:href="classMWBase_1_1World.html#a8fb005fcb672e0b38dfa5c6967c5df1b" target="_top" xlink:title="get north vector for given interior cell ">
<polygon fill="white" stroke="black" points="322,-0.5 322,-19.5 490,-19.5 490,-0.5 322,-0.5"/>
<text text-anchor="middle" x="406" y="-7.5" font-family="FreeSans" font-size="10.00">MWBase::World::getNorthVector</text>
</a>
</g>
</g>
<!-- Node12&#45;&gt;Node15 -->
<g id="edge17" class="edge"><title>Node12&#45;&gt;Node15</title>
<path fill="none" stroke="midnightblue" d="M274.488,-224.958C278.798,-222.181 282.739,-218.892 286,-215 340.076,-150.459 263.477,-89.5382 322,-29 323.271,-27.6848 324.614,-26.4523 326.018,-25.2976"/>
<polygon fill="midnightblue" stroke="midnightblue" points="328.303,-27.9791 334.657,-19.5013 324.403,-22.1661 328.303,-27.9791"/>
</g>
<!-- Node16 -->
<g id="node16" class="node"><title>Node16</title>
<g id="a_node16"><a xlink:href="classMWRender_1_1LocalMap.html#a4f8e9e5a7b51417edeb081633c4d9def" target="_top" xlink:title="MWRender::LocalMap\l::rotatePoint">
<polygon fill="white" stroke="black" points="347.5,-225 347.5,-255 464.5,-255 464.5,-225 347.5,-225"/>
<text text-anchor="start" x="355.5" y="-243" font-family="FreeSans" font-size="10.00">MWRender::LocalMap</text>
<text text-anchor="middle" x="406" y="-232" font-family="FreeSans" font-size="10.00">::rotatePoint</text>
</a>
</g>
</g>
<!-- Node12&#45;&gt;Node16 -->
<g id="edge18" class="edge"><title>Node12&#45;&gt;Node16</title>
<path fill="none" stroke="midnightblue" d="M278.714,-240C297.296,-240 318.056,-240 337.29,-240"/>
<polygon fill="midnightblue" stroke="midnightblue" points="337.491,-243.5 347.491,-240 337.491,-236.5 337.491,-243.5"/>
</g>
<!-- Node17 -->
<g id="node17" class="node"><title>Node17</title>
<g id="a_node17"><a xlink:href="structMWRender_1_1LocalMap_1_1MapSegment.html#a29a41985a0bf28cf3dd407d8735d3a4b" target="_top" xlink:title="MWRender::LocalMap\l::MapSegment::initFogOfWar">
<polygon fill="white" stroke="black" points="330,-176 330,-206 482,-206 482,-176 330,-176"/>
<text text-anchor="start" x="338" y="-194" font-family="FreeSans" font-size="10.00">MWRender::LocalMap</text>
<text text-anchor="middle" x="406" y="-183" font-family="FreeSans" font-size="10.00">::MapSegment::initFogOfWar</text>
</a>
</g>
</g>
<!-- Node12&#45;&gt;Node17 -->
<g id="edge22" class="edge"><title>Node12&#45;&gt;Node17</title>
<path fill="none" stroke="midnightblue" d="M277.457,-224.965C296.884,-219.792 318.811,-213.952 338.935,-208.593"/>
<polygon fill="midnightblue" stroke="midnightblue" points="339.888,-211.962 348.65,-206.006 338.086,-205.197 339.888,-211.962"/>
</g>
<!-- Node18 -->
<g id="node18" class="node"><title>Node18</title>
<g id="a_node18"><a xlink:href="structMWRender_1_1LocalMap_1_1MapSegment.html#a31b7b6aa3f178847f2f63b275c1c9fe1" target="_top" xlink:title="MWRender::LocalMap\l::MapSegment::loadFogOfWar">
<polygon fill="white" stroke="black" points="327,-127 327,-157 485,-157 485,-127 327,-127"/>
<text text-anchor="start" x="335" y="-145" font-family="FreeSans" font-size="10.00">MWRender::LocalMap</text>
<text text-anchor="middle" x="406" y="-134" font-family="FreeSans" font-size="10.00">::MapSegment::loadFogOfWar</text>
</a>
</g>
</g>
<!-- Node12&#45;&gt;Node18 -->
<g id="edge23" class="edge"><title>Node12&#45;&gt;Node18</title>
<path fill="none" stroke="midnightblue" d="M269.525,-224.945C275.354,-222.113 281.003,-218.816 286,-215 307.477,-198.599 299.84,-181.466 322,-166 324.153,-164.498 326.399,-163.089 328.716,-161.767"/>
<polygon fill="midnightblue" stroke="midnightblue" points="330.612,-164.73 337.954,-157.091 327.451,-158.484 330.612,-164.73"/>
</g>
</g>
</svg>
