<?xml version="1.0" encoding="UTF-8" standalone="no"?>
<!DOCTYPE svg PUBLIC "-//W3C//DTD SVG 1.1//EN"
 "http://www.w3.org/Graphics/SVG/1.1/DTD/svg11.dtd">
<!-- Generated by graphviz version 2.36.0 (20140111.2315)
 -->
<!-- Title: MWRender::Sun::Sun Pages: 1 -->
<svg width="1284pt" height="256pt"
 viewBox="0.00 0.00 1284.00 256.00" xmlns="http://www.w3.org/2000/svg" xmlns:xlink="http://www.w3.org/1999/xlink">
<g id="graph0" class="graph" transform="scale(1 1) rotate(0) translate(4 252)">
<title>MWRender::Sun::Sun</title>
<polygon fill="white" stroke="none" points="-4,4 -4,-252 1280,-252 1280,4 -4,4"/>
<!-- Node1 -->
<g id="node1" class="node"><title>Node1</title>
<polygon fill="#bfbfbf" stroke="black" points="0,-103.5 0,-122.5 116,-122.5 116,-103.5 0,-103.5"/>
<text text-anchor="middle" x="58" y="-110.5" font-family="FreeSans" font-size="10.00">MWRender::Sun::Sun</text>
</g>
<!-- Node2 -->
<g id="node2" class="node"><title>Node2</title>
<g id="a_node2"><a xlink:href="classResource_1_1ImageManager.html#a225f9f7be2c2d86c57f52c0ae990fbb8" target="_top" xlink:title="Resource::ImageManager\l::getImage">
<polygon fill="white" stroke="black" points="378,-144 378,-174 516,-174 516,-144 378,-144"/>
<text text-anchor="start" x="386" y="-162" font-family="FreeSans" font-size="10.00">Resource::ImageManager</text>
<text text-anchor="middle" x="447" y="-151" font-family="FreeSans" font-size="10.00">::getImage</text>
</a>
</g>
</g>
<!-- Node1&#45;&gt;Node2 -->
<g id="edge1" class="edge"><title>Node1&#45;&gt;Node2</title>
<path fill="none" stroke="midnightblue" d="M67.0071,-122.514C81.7658,-139.22 115.14,-173.261 152,-186 232.537,-213.833 332.458,-194.131 392.623,-176.894"/>
<polygon fill="midnightblue" stroke="midnightblue" points="393.687,-180.229 402.291,-174.047 391.709,-173.514 393.687,-180.229"/>
</g>
<!-- Node11 -->
<g id="node11" class="node"><title>Node11</title>
<g id="a_node11"><a xlink:href="namespaceanonymous__namespace_02sky_8cpp_03.html#a8c8c8da0cfe564e4f871a3b0f3f175d3" target="_top" xlink:title="anonymous_namespace\l\{sky::cpp\}::createUnlitMaterial">
<polygon fill="white" stroke="black" points="157,-147 157,-177 321,-177 321,-147 157,-147"/>
<text text-anchor="start" x="165" y="-165" font-family="FreeSans" font-size="10.00">anonymous_namespace</text>
<text text-anchor="middle" x="239" y="-154" font-family="FreeSans" font-size="10.00">{sky::cpp}::createUnlitMaterial</text>
</a>
</g>
</g>
<!-- Node1&#45;&gt;Node11 -->
<g id="edge11" class="edge"><title>Node1&#45;&gt;Node11</title>
<path fill="none" stroke="midnightblue" d="M93.9379,-122.564C116.501,-128.74 146.545,-136.965 173.357,-144.304"/>
<polygon fill="midnightblue" stroke="midnightblue" points="172.5,-147.698 183.069,-146.963 174.348,-140.947 172.5,-147.698"/>
</g>
<!-- Node12 -->
<g id="node12" class="node"><title>Node12</title>
<g id="a_node12"><a xlink:href="classMWRender_1_1Sun.html#a97a32c89cf2bc4f1e58b9ce6c7b66ea2" target="_top" xlink:title="MWRender::Sun::createOcclusion\lQueryNode">
<polygon fill="white" stroke="black" points="152.5,-98 152.5,-128 325.5,-128 325.5,-98 152.5,-98"/>
<text text-anchor="start" x="160.5" y="-116" font-family="FreeSans" font-size="10.00">MWRender::Sun::createOcclusion</text>
<text text-anchor="middle" x="239" y="-105" font-family="FreeSans" font-size="10.00">QueryNode</text>
</a>
</g>
</g>
<!-- Node1&#45;&gt;Node12 -->
<g id="edge12" class="edge"><title>Node1&#45;&gt;Node12</title>
<path fill="none" stroke="midnightblue" d="M116.129,-113C124.529,-113 133.369,-113 142.292,-113"/>
<polygon fill="midnightblue" stroke="midnightblue" points="142.382,-116.5 152.382,-113 142.382,-109.5 142.382,-116.5"/>
</g>
<!-- Node13 -->
<g id="node13" class="node"><title>Node13</title>
<g id="a_node13"><a xlink:href="classMWRender_1_1Sun.html#afb973183c90c5e14dd4a8ef7e34e108d" target="_top" xlink:title="MWRender::Sun::createSun\lFlash">
<polygon fill="white" stroke="black" points="166,-49 166,-79 312,-79 312,-49 166,-49"/>
<text text-anchor="start" x="174" y="-67" font-family="FreeSans" font-size="10.00">MWRender::Sun::createSun</text>
<text text-anchor="middle" x="239" y="-56" font-family="FreeSans" font-size="10.00">Flash</text>
</a>
</g>
</g>
<!-- Node1&#45;&gt;Node13 -->
<g id="edge13" class="edge"><title>Node1&#45;&gt;Node13</title>
<path fill="none" stroke="midnightblue" d="M93.9379,-103.436C116.501,-97.2595 146.545,-89.0351 173.357,-81.6955"/>
<polygon fill="midnightblue" stroke="midnightblue" points="174.348,-85.0531 183.069,-79.037 172.5,-78.3015 174.348,-85.0531"/>
</g>
<!-- Node15 -->
<g id="node15" class="node"><title>Node15</title>
<g id="a_node15"><a xlink:href="classMWRender_1_1Sun.html#aa75549ead282fbc9a1f56f58334d3d89" target="_top" xlink:title="MWRender::Sun::createSun\lGlare">
<polygon fill="white" stroke="black" points="166,-0 166,-30 312,-30 312,-0 166,-0"/>
<text text-anchor="start" x="174" y="-18" font-family="FreeSans" font-size="10.00">MWRender::Sun::createSun</text>
<text text-anchor="middle" x="239" y="-7" font-family="FreeSans" font-size="10.00">Glare</text>
</a>
</g>
</g>
<!-- Node1&#45;&gt;Node15 -->
<g id="edge16" class="edge"><title>Node1&#45;&gt;Node15</title>
<path fill="none" stroke="midnightblue" d="M68.391,-103.342C84.2139,-87.6091 117.82,-56.4538 152,-39 155.727,-37.0966 159.625,-35.3277 163.616,-33.6862"/>
<polygon fill="midnightblue" stroke="midnightblue" points="164.964,-36.9179 173.06,-30.0836 162.469,-30.3776 164.964,-36.9179"/>
</g>
<!-- Node3 -->
<g id="node3" class="node"><title>Node3</title>
<g id="a_node3"><a xlink:href="classVFS_1_1Manager.html#a2c8881f46b17c4afc707e5923621a479" target="_top" xlink:title="VFS::Manager::normalizeFilename">
<polygon fill="white" stroke="black" points="568.5,-187.5 568.5,-206.5 747.5,-206.5 747.5,-187.5 568.5,-187.5"/>
<text text-anchor="middle" x="658" y="-194.5" font-family="FreeSans" font-size="10.00">VFS::Manager::normalizeFilename</text>
</a>
</g>
</g>
<!-- Node2&#45;&gt;Node3 -->
<g id="edge2" class="edge"><title>Node2&#45;&gt;Node3</title>
<path fill="none" stroke="midnightblue" d="M516.145,-171.39C541.377,-175.978 569.839,-181.153 594.541,-185.644"/>
<polygon fill="midnightblue" stroke="midnightblue" points="594.053,-189.112 604.518,-187.458 595.306,-182.225 594.053,-189.112"/>
</g>
<!-- Node8 -->
<g id="node8" class="node"><title>Node8</title>
<g id="a_node8"><a xlink:href="classVFS_1_1Manager.html#ac59e8f07d1b254b5e763cb34e3906c64" target="_top" xlink:title="VFS::Manager::get">
<polygon fill="white" stroke="black" points="605.5,-149.5 605.5,-168.5 710.5,-168.5 710.5,-149.5 605.5,-149.5"/>
<text text-anchor="middle" x="658" y="-156.5" font-family="FreeSans" font-size="10.00">VFS::Manager::get</text>
</a>
</g>
</g>
<!-- Node2&#45;&gt;Node8 -->
<g id="edge7" class="edge"><title>Node2&#45;&gt;Node8</title>
<path fill="none" stroke="midnightblue" d="M516.145,-159C541.587,-159 570.312,-159 595.155,-159"/>
<polygon fill="midnightblue" stroke="midnightblue" points="595.183,-162.5 605.183,-159 595.183,-155.5 595.183,-162.5"/>
</g>
<!-- Node10 -->
<g id="node10" class="node"><title>Node10</title>
<g id="a_node10"><a xlink:href="namespaceResource.html#a348671c1b817ff6d44215a8ef0887350" target="_top" xlink:title="Resource::checkSupported">
<polygon fill="white" stroke="black" points="586,-111.5 586,-130.5 730,-130.5 730,-111.5 586,-111.5"/>
<text text-anchor="middle" x="658" y="-118.5" font-family="FreeSans" font-size="10.00">Resource::checkSupported</text>
</a>
</g>
</g>
<!-- Node2&#45;&gt;Node10 -->
<g id="edge10" class="edge"><title>Node2&#45;&gt;Node10</title>
<path fill="none" stroke="midnightblue" d="M516.145,-146.61C541.377,-142.022 569.839,-136.847 594.541,-132.356"/>
<polygon fill="midnightblue" stroke="midnightblue" points="595.306,-135.775 604.518,-130.542 594.053,-128.888 595.306,-135.775"/>
</g>
<!-- Node4 -->
<g id="node4" class="node"><title>Node4</title>
<g id="a_node4"><a xlink:href="namespaceanonymous__namespace_02manager_8cpp_03.html#afff51e54666db5317a601da81b18897a" target="_top" xlink:title="anonymous_namespace\l\{manager::cpp\}::normalize_path">
<polygon fill="white" stroke="black" points="784,-182 784,-212 960,-212 960,-182 784,-182"/>
<text text-anchor="start" x="792" y="-200" font-family="FreeSans" font-size="10.00">anonymous_namespace</text>
<text text-anchor="middle" x="872" y="-189" font-family="FreeSans" font-size="10.00">{manager::cpp}::normalize_path</text>
</a>
</g>
</g>
<!-- Node3&#45;&gt;Node4 -->
<g id="edge3" class="edge"><title>Node3&#45;&gt;Node4</title>
<path fill="none" stroke="midnightblue" d="M747.679,-197C756.242,-197 764.96,-197 773.601,-197"/>
<polygon fill="midnightblue" stroke="midnightblue" points="773.696,-200.5 783.696,-197 773.696,-193.5 773.696,-200.5"/>
</g>
<!-- Node5 -->
<g id="node5" class="node"><title>Node5</title>
<g id="a_node5"><a xlink:href="namespaceanonymous__namespace_02manager_8cpp_03.html#a43766ad9c2dc269c62c8ec100bfd3b36" target="_top" xlink:title="anonymous_namespace\l\{manager::cpp\}::strict\l_normalize_char">
<polygon fill="white" stroke="black" points="1001,-206.5 1001,-247.5 1135,-247.5 1135,-206.5 1001,-206.5"/>
<text text-anchor="start" x="1009" y="-235.5" font-family="FreeSans" font-size="10.00">anonymous_namespace</text>
<text text-anchor="start" x="1009" y="-224.5" font-family="FreeSans" font-size="10.00">{manager::cpp}::strict</text>
<text text-anchor="middle" x="1068" y="-213.5" font-family="FreeSans" font-size="10.00">_normalize_char</text>
</a>
</g>
</g>
<!-- Node4&#45;&gt;Node5 -->
<g id="edge4" class="edge"><title>Node4&#45;&gt;Node5</title>
<path fill="none" stroke="midnightblue" d="M960.069,-210.464C970.344,-212.053 980.768,-213.665 990.875,-215.228"/>
<polygon fill="midnightblue" stroke="midnightblue" points="990.442,-218.703 1000.86,-216.772 991.512,-211.785 990.442,-218.703"/>
</g>
<!-- Node6 -->
<g id="node6" class="node"><title>Node6</title>
<g id="a_node6"><a xlink:href="namespaceanonymous__namespace_02manager_8cpp_03.html#a0760071e5091c65283088c802ce83396" target="_top" xlink:title="anonymous_namespace\l\{manager::cpp\}::nonstrict\l_normalize_char">
<polygon fill="white" stroke="black" points="996.5,-146.5 996.5,-187.5 1139.5,-187.5 1139.5,-146.5 996.5,-146.5"/>
<text text-anchor="start" x="1004.5" y="-175.5" font-family="FreeSans" font-size="10.00">anonymous_namespace</text>
<text text-anchor="start" x="1004.5" y="-164.5" font-family="FreeSans" font-size="10.00">{manager::cpp}::nonstrict</text>
<text text-anchor="middle" x="1068" y="-153.5" font-family="FreeSans" font-size="10.00">_normalize_char</text>
</a>
</g>
</g>
<!-- Node4&#45;&gt;Node6 -->
<g id="edge5" class="edge"><title>Node4&#45;&gt;Node6</title>
<path fill="none" stroke="midnightblue" d="M960.069,-183.536C968.829,-182.181 977.699,-180.809 986.388,-179.466"/>
<polygon fill="midnightblue" stroke="midnightblue" points="987.14,-182.891 996.487,-177.904 986.07,-175.973 987.14,-182.891"/>
</g>
<!-- Node7 -->
<g id="node7" class="node"><title>Node7</title>
<g id="a_node7"><a xlink:href="classMisc_1_1StringUtils.html#a0759adb102842ee3bced227707eb6949" target="_top" xlink:title="Misc::StringUtils::\ltoLower">
<polygon fill="white" stroke="black" points="1176.5,-152 1176.5,-182 1275.5,-182 1275.5,-152 1176.5,-152"/>
<text text-anchor="start" x="1184.5" y="-170" font-family="FreeSans" font-size="10.00">Misc::StringUtils::</text>
<text text-anchor="middle" x="1226" y="-159" font-family="FreeSans" font-size="10.00">toLower</text>
</a>
</g>
</g>
<!-- Node6&#45;&gt;Node7 -->
<g id="edge6" class="edge"><title>Node6&#45;&gt;Node7</title>
<path fill="none" stroke="midnightblue" d="M1139.7,-167C1148.62,-167 1157.67,-167 1166.38,-167"/>
<polygon fill="midnightblue" stroke="midnightblue" points="1166.42,-170.5 1176.42,-167 1166.42,-163.5 1166.42,-170.5"/>
</g>
<!-- Node8&#45;&gt;Node4 -->
<g id="edge8" class="edge"><title>Node8&#45;&gt;Node4</title>
<path fill="none" stroke="midnightblue" d="M710.59,-168.247C730.662,-171.845 754.304,-176.083 777.18,-180.183"/>
<polygon fill="midnightblue" stroke="midnightblue" points="776.811,-183.673 787.271,-181.992 778.046,-176.783 776.811,-183.673"/>
</g>
<!-- Node9 -->
<g id="node9" class="node"><title>Node9</title>
<g id="a_node9"><a xlink:href="classVFS_1_1Manager.html#a3722fa539b98563021bea9fc4a8511bc" target="_top" xlink:title="VFS::Manager::getNormalized">
<polygon fill="white" stroke="black" points="792,-143.5 792,-162.5 952,-162.5 952,-143.5 792,-143.5"/>
<text text-anchor="middle" x="872" y="-150.5" font-family="FreeSans" font-size="10.00">VFS::Manager::getNormalized</text>
</a>
</g>
</g>
<!-- Node8&#45;&gt;Node9 -->
<g id="edge9" class="edge"><title>Node8&#45;&gt;Node9</title>
<path fill="none" stroke="midnightblue" d="M710.59,-157.54C731.931,-156.936 757.31,-156.218 781.511,-155.533"/>
<polygon fill="midnightblue" stroke="midnightblue" points="781.899,-159.023 791.796,-155.242 781.701,-152.026 781.899,-159.023"/>
</g>
<!-- Node13&#45;&gt;Node2 -->
<g id="edge14" class="edge"><title>Node13&#45;&gt;Node2</title>
<path fill="none" stroke="midnightblue" d="M301.753,-79.1122C310.023,-81.749 318.301,-84.7156 326,-88 358.182,-101.728 392.276,-122.587 415.865,-138.148"/>
<polygon fill="midnightblue" stroke="midnightblue" points="414.106,-141.182 424.365,-143.827 417.994,-135.362 414.106,-141.182"/>
</g>
<!-- Node14 -->
<g id="node14" class="node"><title>Node14</title>
<g id="a_node14"><a xlink:href="namespaceanonymous__namespace_02sky_8cpp_03.html#aff1947144e9bbccc38f8ecebf88bf7c0" target="_top" xlink:title="anonymous_namespace\l\{sky::cpp\}::createTexturedQuad">
<polygon fill="white" stroke="black" points="362,-49 362,-79 532,-79 532,-49 362,-49"/>
<text text-anchor="start" x="370" y="-67" font-family="FreeSans" font-size="10.00">anonymous_namespace</text>
<text text-anchor="middle" x="447" y="-56" font-family="FreeSans" font-size="10.00">{sky::cpp}::createTexturedQuad</text>
</a>
</g>
</g>
<!-- Node13&#45;&gt;Node14 -->
<g id="edge15" class="edge"><title>Node13&#45;&gt;Node14</title>
<path fill="none" stroke="midnightblue" d="M312.049,-64C324.9,-64 338.461,-64 351.821,-64"/>
<polygon fill="midnightblue" stroke="midnightblue" points="351.984,-67.5001 361.984,-64 351.984,-60.5001 351.984,-67.5001"/>
</g>
</g>
</svg>
