<?xml version="1.0" encoding="UTF-8" standalone="no"?>
<!DOCTYPE svg PUBLIC "-//W3C//DTD SVG 1.1//EN"
 "http://www.w3.org/Graphics/SVG/1.1/DTD/svg11.dtd">
<!-- Generated by graphviz version 2.36.0 (20140111.2315)
 -->
<!-- Title: anonymous_namespace{store::cpp}::GetRecords::operator() Pages: 1 -->
<svg width="418pt" height="48pt"
 viewBox="0.00 0.00 418.00 48.00" xmlns="http://www.w3.org/2000/svg" xmlns:xlink="http://www.w3.org/1999/xlink">
<g id="graph0" class="graph" transform="scale(1 1) rotate(0) translate(4 44)">
<title>anonymous_namespace{store::cpp}::GetRecords::operator()</title>
<polygon fill="white" stroke="none" points="-4,4 -4,-44 414,-44 414,4 -4,4"/>
<!-- Node1 -->
<g id="node1" class="node"><title>Node1</title>
<polygon fill="#bfbfbf" stroke="black" points="0.5,0.5 0.5,-40.5 137.5,-40.5 137.5,0.5 0.5,0.5"/>
<text text-anchor="start" x="8.5" y="-28.5" font-family="FreeSans" font-size="10.00">anonymous_namespace</text>
<text text-anchor="start" x="8.5" y="-17.5" font-family="FreeSans" font-size="10.00">{store::cpp}::GetRecords</text>
<text text-anchor="middle" x="69" y="-6.5" font-family="FreeSans" font-size="10.00">::operator()</text>
</g>
<!-- Node2 -->
<g id="node2" class="node"><title>Node2</title>
<g id="a_node2"><a xlink:href="classMisc_1_1StringUtils.html#a09a6483fa1e7a3a0fdf141a37edc2196" target="_top" xlink:title="Misc::StringUtils::\lciCompareLen">
<polygon fill="white" stroke="black" points="174.5,-5 174.5,-35 273.5,-35 273.5,-5 174.5,-5"/>
<text text-anchor="start" x="182.5" y="-23" font-family="FreeSans" font-size="10.00">Misc::StringUtils::</text>
<text text-anchor="middle" x="224" y="-12" font-family="FreeSans" font-size="10.00">ciCompareLen</text>
</a>
</g>
</g>
<!-- Node1&#45;&gt;Node2 -->
<g id="edge1" class="edge"><title>Node1&#45;&gt;Node2</title>
<path fill="none" stroke="midnightblue" d="M137.553,-20C146.414,-20 155.437,-20 164.138,-20"/>
<polygon fill="midnightblue" stroke="midnightblue" points="164.176,-23.5001 174.176,-20 164.176,-16.5001 164.176,-23.5001"/>
</g>
<!-- Node3 -->
<g id="node3" class="node"><title>Node3</title>
<g id="a_node3"><a xlink:href="classMisc_1_1StringUtils.html#a0759adb102842ee3bced227707eb6949" target="_top" xlink:title="Misc::StringUtils::\ltoLower">
<polygon fill="white" stroke="black" points="310.5,-5 310.5,-35 409.5,-35 409.5,-5 310.5,-5"/>
<text text-anchor="start" x="318.5" y="-23" font-family="FreeSans" font-size="10.00">Misc::StringUtils::</text>
<text text-anchor="middle" x="360" y="-12" font-family="FreeSans" font-size="10.00">toLower</text>
</a>
</g>
</g>
<!-- Node2&#45;&gt;Node3 -->
<g id="edge2" class="edge"><title>Node2&#45;&gt;Node3</title>
<path fill="none" stroke="midnightblue" d="M273.756,-20C282.254,-20 291.176,-20 299.916,-20"/>
<polygon fill="midnightblue" stroke="midnightblue" points="300.056,-23.5001 310.056,-20 300.056,-16.5001 300.056,-23.5001"/>
</g>
</g>
</svg>
