<?xml version="1.0" encoding="UTF-8" standalone="no"?>
<!DOCTYPE svg PUBLIC "-//W3C//DTD SVG 1.1//EN"
 "http://www.w3.org/Graphics/SVG/1.1/DTD/svg11.dtd">
<!-- Generated by graphviz version 2.36.0 (20140111.2315)
 -->
<!-- Title: MWGui::BirthDialog::onAccept Pages: 1 -->
<svg width="1908pt" height="619pt"
 viewBox="0.00 0.00 1908.00 619.12" xmlns="http://www.w3.org/2000/svg" xmlns:xlink="http://www.w3.org/1999/xlink">
<g id="graph0" class="graph" transform="scale(1 1) rotate(0) translate(4 615.119)">
<title>MWGui::BirthDialog::onAccept</title>
<polygon fill="white" stroke="none" points="-4,4 -4,-615.119 1904,-615.119 1904,4 -4,4"/>
<!-- Node1 -->
<g id="node1" class="node"><title>Node1</title>
<polygon fill="#bfbfbf" stroke="black" points="0.5,-418.119 0.5,-448.119 101.5,-448.119 101.5,-418.119 0.5,-418.119"/>
<text text-anchor="start" x="8.5" y="-436.119" font-family="FreeSans" font-size="10.00">MWGui::BirthDialog</text>
<text text-anchor="middle" x="51" y="-425.119" font-family="FreeSans" font-size="10.00">::onAccept</text>
</g>
<!-- Node2 -->
<g id="node2" class="node"><title>Node2</title>
<g id="a_node2"><a xlink:href="classMWGui_1_1BirthDialog.html#a3083ced443e2c7685e7a2f5f9c2dd65c" target="_top" xlink:title="MWGui::BirthDialog\l::onSelectBirth">
<polygon fill="white" stroke="black" points="138.5,-418.119 138.5,-448.119 239.5,-448.119 239.5,-418.119 138.5,-418.119"/>
<text text-anchor="start" x="146.5" y="-436.119" font-family="FreeSans" font-size="10.00">MWGui::BirthDialog</text>
<text text-anchor="middle" x="189" y="-425.119" font-family="FreeSans" font-size="10.00">::onSelectBirth</text>
</a>
</g>
</g>
<!-- Node1&#45;&gt;Node2 -->
<g id="edge1" class="edge"><title>Node1&#45;&gt;Node2</title>
<path fill="none" stroke="midnightblue" d="M101.869,-433.119C110.369,-433.119 119.277,-433.119 128.006,-433.119"/>
<polygon fill="midnightblue" stroke="midnightblue" points="128.137,-436.619 138.137,-433.119 128.137,-429.619 128.137,-436.619"/>
</g>
<!-- Node3 -->
<g id="node3" class="node"><title>Node3</title>
<g id="a_node3"><a xlink:href="classMisc_1_1StringUtils.html#a0f8cb0ac134191ba8417f74ab7dc4de6" target="_top" xlink:title="Misc::StringUtils::\lciEqual">
<polygon fill="white" stroke="black" points="1496,-484.119 1496,-514.119 1586,-514.119 1586,-484.119 1496,-484.119"/>
<text text-anchor="start" x="1504" y="-502.119" font-family="FreeSans" font-size="10.00">Misc::StringUtils::</text>
<text text-anchor="middle" x="1541" y="-491.119" font-family="FreeSans" font-size="10.00">ciEqual</text>
</a>
</g>
</g>
<!-- Node2&#45;&gt;Node3 -->
<g id="edge2" class="edge"><title>Node2&#45;&gt;Node3</title>
<path fill="none" stroke="midnightblue" d="M202.654,-448.295C240.057,-491.341 355.254,-611.119 479,-611.119 479,-611.119 479,-611.119 1216,-611.119 1327.06,-611.119 1448.37,-551.606 1505.97,-519.344"/>
<polygon fill="midnightblue" stroke="midnightblue" points="1508.02,-522.206 1514.99,-514.224 1504.56,-516.119 1508.02,-522.206"/>
</g>
<!-- Node5 -->
<g id="node5" class="node"><title>Node5</title>
<g id="a_node5"><a xlink:href="classMWGui_1_1BirthDialog.html#ac8fa31e6c52ab817809762bf3119a95b" target="_top" xlink:title="MWGui::BirthDialog\l::updateSpells">
<polygon fill="white" stroke="black" points="276.5,-209.119 276.5,-239.119 377.5,-239.119 377.5,-209.119 276.5,-209.119"/>
<text text-anchor="start" x="284.5" y="-227.119" font-family="FreeSans" font-size="10.00">MWGui::BirthDialog</text>
<text text-anchor="middle" x="327" y="-216.119" font-family="FreeSans" font-size="10.00">::updateSpells</text>
</a>
</g>
</g>
<!-- Node2&#45;&gt;Node5 -->
<g id="edge4" class="edge"><title>Node2&#45;&gt;Node5</title>
<path fill="none" stroke="midnightblue" d="M199.781,-418.088C223.151,-382.175 282.382,-291.149 310.599,-247.787"/>
<polygon fill="midnightblue" stroke="midnightblue" points="313.605,-249.585 316.125,-239.295 307.737,-245.767 313.605,-249.585"/>
</g>
<!-- Node4 -->
<g id="node4" class="node"><title>Node4</title>
<g id="a_node4"><a xlink:href="classMisc_1_1StringUtils.html#a0759adb102842ee3bced227707eb6949" target="_top" xlink:title="Misc::StringUtils::\ltoLower">
<polygon fill="white" stroke="black" points="1810,-353.119 1810,-383.119 1900,-383.119 1900,-353.119 1810,-353.119"/>
<text text-anchor="start" x="1818" y="-371.119" font-family="FreeSans" font-size="10.00">Misc::StringUtils::</text>
<text text-anchor="middle" x="1855" y="-360.119" font-family="FreeSans" font-size="10.00">toLower</text>
</a>
</g>
</g>
<!-- Node3&#45;&gt;Node4 -->
<g id="edge3" class="edge"><title>Node3&#45;&gt;Node4</title>
<path fill="none" stroke="midnightblue" d="M1586.3,-499.457C1635.21,-498.007 1714.84,-490.122 1774,-457.119 1801.97,-441.513 1825.27,-412.422 1839.38,-391.75"/>
<polygon fill="midnightblue" stroke="midnightblue" points="1842.44,-393.471 1845.02,-383.197 1836.59,-389.615 1842.44,-393.471"/>
</g>
<!-- Node6 -->
<g id="node6" class="node"><title>Node6</title>
<g id="a_node6"><a xlink:href="classMWBase_1_1Environment.html#a73f12633762b049c03c80fe215873faa" target="_top" xlink:title="Return instance of this class. ">
<polygon fill="white" stroke="black" points="978.5,-130.619 978.5,-149.619 1109.5,-149.619 1109.5,-130.619 978.5,-130.619"/>
<text text-anchor="middle" x="1044" y="-137.619" font-family="FreeSans" font-size="10.00">MWBase::Environment::get</text>
</a>
</g>
</g>
<!-- Node5&#45;&gt;Node6 -->
<g id="edge5" class="edge"><title>Node5&#45;&gt;Node6</title>
<path fill="none" stroke="midnightblue" d="M336.791,-208.901C350.268,-187.213 378.27,-148.156 414,-131.119 616.254,-34.6803 898.328,-98.6016 1002.37,-127.789"/>
<polygon fill="midnightblue" stroke="midnightblue" points="1001.59,-131.205 1012.16,-130.582 1003.51,-124.473 1001.59,-131.205"/>
</g>
<!-- Node7 -->
<g id="node7" class="node"><title>Node7</title>
<g id="a_node7"><a xlink:href="classMWBase_1_1Environment.html#ae14e166d8f5ff8629be119333d502660" target="_top" xlink:title="MWBase::Environment\l::getWorld">
<polygon fill="white" stroke="black" points="987.5,-258.119 987.5,-288.119 1100.5,-288.119 1100.5,-258.119 987.5,-258.119"/>
<text text-anchor="start" x="995.5" y="-276.119" font-family="FreeSans" font-size="10.00">MWBase::Environment</text>
<text text-anchor="middle" x="1044" y="-265.119" font-family="FreeSans" font-size="10.00">::getWorld</text>
</a>
</g>
</g>
<!-- Node5&#45;&gt;Node7 -->
<g id="edge6" class="edge"><title>Node5&#45;&gt;Node7</title>
<path fill="none" stroke="midnightblue" d="M341.527,-239.257C376.628,-277.25 475.348,-376.094 582,-411.119 647.872,-432.752 670.293,-426.049 738,-411.119 783.925,-400.993 889.201,-345.508 930,-322.119 946.9,-312.431 948.498,-305.672 966,-297.119 969.821,-295.252 973.82,-293.49 977.9,-291.834"/>
<polygon fill="midnightblue" stroke="midnightblue" points="979.425,-294.998 987.522,-288.165 976.931,-288.457 979.425,-294.998"/>
</g>
<!-- Node8 -->
<g id="node8" class="node"><title>Node8</title>
<g id="a_node8"><a xlink:href="classMWBase_1_1World.html#a2ba0910cb944786065e37dc5f3fcda35" target="_top" xlink:title="MWBase::World::getStore">
<polygon fill="white" stroke="black" points="981,-173.619 981,-192.619 1107,-192.619 1107,-173.619 981,-173.619"/>
<text text-anchor="middle" x="1044" y="-180.619" font-family="FreeSans" font-size="10.00">MWBase::World::getStore</text>
</a>
</g>
</g>
<!-- Node5&#45;&gt;Node8 -->
<g id="edge7" class="edge"><title>Node5&#45;&gt;Node8</title>
<path fill="none" stroke="midnightblue" d="M344.991,-209.018C361.373,-195.498 387.514,-176.546 414,-168.119 632.62,-98.5637 702.39,-125.378 930,-154.119 955.153,-157.295 982.725,-164.299 1004.34,-170.628"/>
<polygon fill="midnightblue" stroke="midnightblue" points="1003.54,-174.043 1014.12,-173.566 1005.55,-167.338 1003.54,-174.043"/>
</g>
<!-- Node9 -->
<g id="node9" class="node"><title>Node9</title>
<g id="a_node9"><a xlink:href="namespaceMisc_1_1ResourceHelpers.html#a899430a270cdfc329635c2dbfc7c043c" target="_top" xlink:title="Misc::ResourceHelpers\l::correctTexturePath">
<polygon fill="white" stroke="black" points="423,-0.119224 423,-30.1192 537,-30.1192 537,-0.119224 423,-0.119224"/>
<text text-anchor="start" x="431" y="-18.1192" font-family="FreeSans" font-size="10.00">Misc::ResourceHelpers</text>
<text text-anchor="middle" x="480" y="-7.11922" font-family="FreeSans" font-size="10.00">::correctTexturePath</text>
</a>
</g>
</g>
<!-- Node5&#45;&gt;Node9 -->
<g id="edge8" class="edge"><title>Node5&#45;&gt;Node9</title>
<path fill="none" stroke="midnightblue" d="M331.492,-209.115C340.014,-175.538 364.866,-93.4983 414,-45.1192 417.724,-41.4527 421.978,-38.1813 426.487,-35.2741"/>
<polygon fill="midnightblue" stroke="midnightblue" points="428.494,-38.157 435.402,-30.1243 424.993,-32.0956 428.494,-38.157"/>
</g>
<!-- Node18 -->
<g id="node18" class="node"><title>Node18</title>
<g id="a_node18"><a xlink:href="namespaceanonymous__namespace_02character_8cpp_03.html#a551df780ef62c57fe81b128fa596488c" target="_top" xlink:title="anonymous_namespace\l\{character::cpp\}::toString">
<polygon fill="white" stroke="black" points="983,-552.119 983,-582.119 1105,-582.119 1105,-552.119 983,-552.119"/>
<text text-anchor="start" x="991" y="-570.119" font-family="FreeSans" font-size="10.00">anonymous_namespace</text>
<text text-anchor="middle" x="1044" y="-559.119" font-family="FreeSans" font-size="10.00">{character::cpp}::toString</text>
</a>
</g>
</g>
<!-- Node5&#45;&gt;Node18 -->
<g id="edge19" class="edge"><title>Node5&#45;&gt;Node18</title>
<path fill="none" stroke="midnightblue" d="M333.287,-239.299C344.059,-268.129 371.209,-331.131 414,-367.119 580.76,-507.368 846.827,-549.613 972.665,-562.067"/>
<polygon fill="midnightblue" stroke="midnightblue" points="972.653,-565.581 982.94,-563.048 973.318,-558.613 972.653,-565.581"/>
</g>
<!-- Node20 -->
<g id="node20" class="node"><title>Node20</title>
<g id="a_node20"><a xlink:href="classMWGui_1_1Widgets_1_1MWSpell.html#a8a08cc8dcc946a431faf867d10bc0a5b" target="_top" xlink:title="MWGui::Widgets::MWSpell\l::setSpellId">
<polygon fill="white" stroke="black" points="414.5,-178.119 414.5,-208.119 545.5,-208.119 545.5,-178.119 414.5,-178.119"/>
<text text-anchor="start" x="422.5" y="-196.119" font-family="FreeSans" font-size="10.00">MWGui::Widgets::MWSpell</text>
<text text-anchor="middle" x="480" y="-185.119" font-family="FreeSans" font-size="10.00">::setSpellId</text>
</a>
</g>
</g>
<!-- Node5&#45;&gt;Node20 -->
<g id="edge21" class="edge"><title>Node5&#45;&gt;Node20</title>
<path fill="none" stroke="midnightblue" d="M377.862,-213.883C386.441,-212.121 395.522,-210.257 404.582,-208.397"/>
<polygon fill="midnightblue" stroke="midnightblue" points="405.289,-211.825 414.381,-206.385 403.881,-204.968 405.289,-211.825"/>
</g>
<!-- Node23 -->
<g id="node23" class="node"><title>Node23</title>
<g id="a_node23"><a xlink:href="classMWGui_1_1Widgets_1_1MWSpell.html#ab7ef3857db5c12cad0789f7511cfc016" target="_top" xlink:title="MWGui::Widgets::MWSpell\l::createEffectWidgets">
<polygon fill="white" stroke="black" points="414.5,-240.119 414.5,-270.119 545.5,-270.119 545.5,-240.119 414.5,-240.119"/>
<text text-anchor="start" x="422.5" y="-258.119" font-family="FreeSans" font-size="10.00">MWGui::Widgets::MWSpell</text>
<text text-anchor="middle" x="480" y="-247.119" font-family="FreeSans" font-size="10.00">::createEffectWidgets</text>
</a>
</g>
</g>
<!-- Node5&#45;&gt;Node23 -->
<g id="edge27" class="edge"><title>Node5&#45;&gt;Node23</title>
<path fill="none" stroke="midnightblue" d="M377.862,-234.356C386.441,-236.117 395.522,-237.981 404.582,-239.841"/>
<polygon fill="midnightblue" stroke="midnightblue" points="403.881,-243.27 414.381,-241.853 405.289,-236.413 403.881,-243.27"/>
</g>
<!-- Node10 -->
<g id="node10" class="node"><title>Node10</title>
<g id="a_node10"><a xlink:href="namespaceMisc_1_1ResourceHelpers.html#a60f7cce3be796f0aac56a81f5991204d" target="_top" xlink:title="Misc::ResourceHelpers\l::correctResourcePath">
<polygon fill="white" stroke="black" points="1158,-307.119 1158,-337.119 1272,-337.119 1272,-307.119 1158,-307.119"/>
<text text-anchor="start" x="1166" y="-325.119" font-family="FreeSans" font-size="10.00">Misc::ResourceHelpers</text>
<text text-anchor="middle" x="1215" y="-314.119" font-family="FreeSans" font-size="10.00">::correctResourcePath</text>
</a>
</g>
</g>
<!-- Node9&#45;&gt;Node10 -->
<g id="edge9" class="edge"><title>Node9&#45;&gt;Node10</title>
<path fill="none" stroke="midnightblue" d="M537.404,-7.64225C658.562,5.17916 946.858,17.9151 1122,-121.119 1178.67,-166.103 1201.77,-253.838 1210.01,-296.963"/>
<polygon fill="midnightblue" stroke="midnightblue" points="1206.58,-297.689 1211.79,-306.913 1213.47,-296.452 1206.58,-297.689"/>
</g>
<!-- Node11 -->
<g id="node11" class="node"><title>Node11</title>
<g id="a_node11"><a xlink:href="classMisc_1_1StringUtils.html#a249dcf40e5ef16618daf8bf5d2098c54" target="_top" xlink:title="Transforms input string to lower case w/o copy. ">
<polygon fill="white" stroke="black" points="1494,-270.119 1494,-300.119 1588,-300.119 1588,-270.119 1494,-270.119"/>
<text text-anchor="start" x="1502" y="-288.119" font-family="FreeSans" font-size="10.00">Misc::StringUtils::</text>
<text text-anchor="middle" x="1541" y="-277.119" font-family="FreeSans" font-size="10.00">lowerCaseInPlace</text>
</a>
</g>
</g>
<!-- Node10&#45;&gt;Node11 -->
<g id="edge10" class="edge"><title>Node10&#45;&gt;Node11</title>
<path fill="none" stroke="midnightblue" d="M1253.88,-307.075C1270.25,-301.28 1289.79,-295.295 1308,-292.119 1367.36,-281.766 1436.53,-281.119 1483.79,-282.372"/>
<polygon fill="midnightblue" stroke="midnightblue" points="1483.73,-285.871 1493.83,-282.675 1483.94,-278.875 1483.73,-285.871"/>
</g>
<!-- Node12 -->
<g id="node12" class="node"><title>Node12</title>
<g id="a_node12"><a xlink:href="namespaceMisc_1_1ResourceHelpers.html#a762d24a99c2a88ef2f0daecc47044083" target="_top" xlink:title="Misc::ResourceHelpers\l::changeExtensionToDds">
<polygon fill="white" stroke="black" points="1308,-361.119 1308,-391.119 1430,-391.119 1430,-361.119 1308,-361.119"/>
<text text-anchor="start" x="1316" y="-379.119" font-family="FreeSans" font-size="10.00">Misc::ResourceHelpers</text>
<text text-anchor="middle" x="1369" y="-368.119" font-family="FreeSans" font-size="10.00">::changeExtensionToDds</text>
</a>
</g>
</g>
<!-- Node10&#45;&gt;Node12 -->
<g id="edge12" class="edge"><title>Node10&#45;&gt;Node12</title>
<path fill="none" stroke="midnightblue" d="M1258.34,-337.161C1276.22,-343.513 1297.21,-350.97 1316.02,-357.651"/>
<polygon fill="midnightblue" stroke="midnightblue" points="1315.03,-361.015 1325.62,-361.064 1317.37,-354.419 1315.03,-361.015"/>
</g>
<!-- Node13 -->
<g id="node13" class="node"><title>Node13</title>
<g id="a_node13"><a xlink:href="classVFS_1_1Manager.html#a04ff23609a5f3799f655506d7c535afc" target="_top" xlink:title="VFS::Manager::exists">
<polygon fill="white" stroke="black" points="1316,-410.619 1316,-429.619 1422,-429.619 1422,-410.619 1316,-410.619"/>
<text text-anchor="middle" x="1369" y="-417.619" font-family="FreeSans" font-size="10.00">VFS::Manager::exists</text>
</a>
</g>
</g>
<!-- Node10&#45;&gt;Node13 -->
<g id="edge13" class="edge"><title>Node10&#45;&gt;Node13</title>
<path fill="none" stroke="midnightblue" d="M1230.27,-337.318C1247.3,-354.668 1277.34,-382.869 1308,-400.119 1312.49,-402.646 1317.35,-404.918 1322.29,-406.944"/>
<polygon fill="midnightblue" stroke="midnightblue" points="1321.23,-410.285 1331.83,-410.54 1323.71,-403.736 1321.23,-410.285"/>
</g>
<!-- Node17 -->
<g id="node17" class="node"><title>Node17</title>
<g id="a_node17"><a xlink:href="namespaceanonymous__namespace_02resourcehelpers_8cpp_03.html#af76c5ce9ba7f5c9e52a83ed9a5211360" target="_top" xlink:title="anonymous_namespace\l\{resourcehelpers::cpp\}\l::getBasename">
<polygon fill="white" stroke="black" points="1309,-301.619 1309,-342.619 1429,-342.619 1429,-301.619 1309,-301.619"/>
<text text-anchor="start" x="1317" y="-330.619" font-family="FreeSans" font-size="10.00">anonymous_namespace</text>
<text text-anchor="start" x="1317" y="-319.619" font-family="FreeSans" font-size="10.00">{resourcehelpers::cpp}</text>
<text text-anchor="middle" x="1369" y="-308.619" font-family="FreeSans" font-size="10.00">::getBasename</text>
</a>
</g>
</g>
<!-- Node10&#45;&gt;Node17 -->
<g id="edge18" class="edge"><title>Node10&#45;&gt;Node17</title>
<path fill="none" stroke="midnightblue" d="M1272.17,-322.119C1280.74,-322.119 1289.67,-322.119 1298.49,-322.119"/>
<polygon fill="midnightblue" stroke="midnightblue" points="1298.75,-325.619 1308.75,-322.119 1298.75,-318.619 1298.75,-325.619"/>
</g>
<!-- Node11&#45;&gt;Node4 -->
<g id="edge11" class="edge"><title>Node11&#45;&gt;Node4</title>
<path fill="none" stroke="midnightblue" d="M1588.25,-293.782C1635.42,-303.059 1710.49,-319.05 1774,-338.119 1784.99,-341.418 1796.64,-345.462 1807.55,-349.5"/>
<polygon fill="midnightblue" stroke="midnightblue" points="1806.32,-352.777 1816.91,-353.028 1808.79,-346.226 1806.32,-352.777"/>
</g>
<!-- Node14 -->
<g id="node14" class="node"><title>Node14</title>
<g id="a_node14"><a xlink:href="namespaceanonymous__namespace_02manager_8cpp_03.html#afff51e54666db5317a601da81b18897a" target="_top" xlink:title="anonymous_namespace\l\{manager::cpp\}::normalize_path">
<polygon fill="white" stroke="black" points="1466,-405.119 1466,-435.119 1616,-435.119 1616,-405.119 1466,-405.119"/>
<text text-anchor="start" x="1474" y="-423.119" font-family="FreeSans" font-size="10.00">anonymous_namespace</text>
<text text-anchor="middle" x="1541" y="-412.119" font-family="FreeSans" font-size="10.00">{manager::cpp}::normalize_path</text>
</a>
</g>
</g>
<!-- Node13&#45;&gt;Node14 -->
<g id="edge14" class="edge"><title>Node13&#45;&gt;Node14</title>
<path fill="none" stroke="midnightblue" d="M1422.39,-420.119C1433.03,-420.119 1444.47,-420.119 1455.9,-420.119"/>
<polygon fill="midnightblue" stroke="midnightblue" points="1455.91,-423.619 1465.91,-420.119 1455.91,-416.619 1455.91,-423.619"/>
</g>
<!-- Node15 -->
<g id="node15" class="node"><title>Node15</title>
<g id="a_node15"><a xlink:href="namespaceanonymous__namespace_02manager_8cpp_03.html#a43766ad9c2dc269c62c8ec100bfd3b36" target="_top" xlink:title="anonymous_namespace\l\{manager::cpp\}::strict\l_normalize_char">
<polygon fill="white" stroke="black" points="1653,-407.619 1653,-448.619 1773,-448.619 1773,-407.619 1653,-407.619"/>
<text text-anchor="start" x="1661" y="-436.619" font-family="FreeSans" font-size="10.00">anonymous_namespace</text>
<text text-anchor="start" x="1661" y="-425.619" font-family="FreeSans" font-size="10.00">{manager::cpp}::strict</text>
<text text-anchor="middle" x="1713" y="-414.619" font-family="FreeSans" font-size="10.00">_normalize_char</text>
</a>
</g>
</g>
<!-- Node14&#45;&gt;Node15 -->
<g id="edge15" class="edge"><title>Node14&#45;&gt;Node15</title>
<path fill="none" stroke="midnightblue" d="M1616.07,-423.605C1624.94,-424.023 1633.98,-424.448 1642.78,-424.862"/>
<polygon fill="midnightblue" stroke="midnightblue" points="1642.83,-428.368 1652.99,-425.342 1643.16,-421.376 1642.83,-428.368"/>
</g>
<!-- Node16 -->
<g id="node16" class="node"><title>Node16</title>
<g id="a_node16"><a xlink:href="namespaceanonymous__namespace_02manager_8cpp_03.html#a0760071e5091c65283088c802ce83396" target="_top" xlink:title="anonymous_namespace\l\{manager::cpp\}::nonstrict\l_normalize_char">
<polygon fill="white" stroke="black" points="1652,-347.619 1652,-388.619 1774,-388.619 1774,-347.619 1652,-347.619"/>
<text text-anchor="start" x="1660" y="-376.619" font-family="FreeSans" font-size="10.00">anonymous_namespace</text>
<text text-anchor="start" x="1660" y="-365.619" font-family="FreeSans" font-size="10.00">{manager::cpp}::nonstrict</text>
<text text-anchor="middle" x="1713" y="-354.619" font-family="FreeSans" font-size="10.00">_normalize_char</text>
</a>
</g>
</g>
<!-- Node14&#45;&gt;Node16 -->
<g id="edge16" class="edge"><title>Node14&#45;&gt;Node16</title>
<path fill="none" stroke="midnightblue" d="M1591.17,-405.079C1606.99,-400.239 1624.84,-394.78 1641.87,-389.572"/>
<polygon fill="midnightblue" stroke="midnightblue" points="1643.24,-392.813 1651.77,-386.541 1641.19,-386.119 1643.24,-392.813"/>
</g>
<!-- Node16&#45;&gt;Node4 -->
<g id="edge17" class="edge"><title>Node16&#45;&gt;Node4</title>
<path fill="none" stroke="midnightblue" d="M1774.19,-368.119C1782.72,-368.119 1791.45,-368.119 1799.87,-368.119"/>
<polygon fill="midnightblue" stroke="midnightblue" points="1799.93,-371.619 1809.93,-368.119 1799.93,-364.619 1799.93,-371.619"/>
</g>
<!-- Node19 -->
<g id="node19" class="node"><title>Node19</title>
<g id="a_node19"><a xlink:href="gen__iconv_8cpp.html#a47a14d9c2f599fa2591017202978774d" target="_top" xlink:title="num">
<polygon fill="white" stroke="black" points="1197.5,-557.619 1197.5,-576.619 1232.5,-576.619 1232.5,-557.619 1197.5,-557.619"/>
<text text-anchor="middle" x="1215" y="-564.619" font-family="FreeSans" font-size="10.00">num</text>
</a>
</g>
</g>
<!-- Node18&#45;&gt;Node19 -->
<g id="edge20" class="edge"><title>Node18&#45;&gt;Node19</title>
<path fill="none" stroke="midnightblue" d="M1105.06,-567.119C1133.14,-567.119 1165.16,-567.119 1187.18,-567.119"/>
<polygon fill="midnightblue" stroke="midnightblue" points="1187.42,-570.619 1197.42,-567.119 1187.42,-563.619 1187.42,-570.619"/>
</g>
<!-- Node21 -->
<g id="node21" class="node"><title>Node21</title>
<g id="a_node21"><a xlink:href="classMWGui_1_1Widgets_1_1MWSpell.html#aae8afbf9f695bcc95f94823c09d42160" target="_top" xlink:title="MWGui::Widgets::MWSpell\l::updateWidgets">
<polygon fill="white" stroke="black" points="786.5,-164.119 786.5,-194.119 917.5,-194.119 917.5,-164.119 786.5,-164.119"/>
<text text-anchor="start" x="794.5" y="-182.119" font-family="FreeSans" font-size="10.00">MWGui::Widgets::MWSpell</text>
<text text-anchor="middle" x="852" y="-171.119" font-family="FreeSans" font-size="10.00">::updateWidgets</text>
</a>
</g>
</g>
<!-- Node20&#45;&gt;Node21 -->
<g id="edge22" class="edge"><title>Node20&#45;&gt;Node21</title>
<path fill="none" stroke="midnightblue" d="M545.872,-190.665C610.138,-188.233 708.478,-184.512 776.048,-181.955"/>
<polygon fill="midnightblue" stroke="midnightblue" points="776.342,-185.447 786.202,-181.571 776.077,-178.452 776.342,-185.447"/>
</g>
<!-- Node21&#45;&gt;Node6 -->
<g id="edge23" class="edge"><title>Node21&#45;&gt;Node6</title>
<path fill="none" stroke="midnightblue" d="M917.59,-165.861C939.973,-161.267 964.873,-156.156 986.548,-151.707"/>
<polygon fill="midnightblue" stroke="midnightblue" points="987.489,-155.087 996.581,-149.647 986.082,-148.23 987.489,-155.087"/>
</g>
<!-- Node21&#45;&gt;Node7 -->
<g id="edge24" class="edge"><title>Node21&#45;&gt;Node7</title>
<path fill="none" stroke="midnightblue" d="M874.244,-194.185C896.352,-209.351 932.378,-232.656 966,-248.119 970.948,-250.395 976.162,-252.554 981.449,-254.581"/>
<polygon fill="midnightblue" stroke="midnightblue" points="980.408,-257.927 991.001,-258.081 982.816,-251.354 980.408,-257.927"/>
</g>
<!-- Node21&#45;&gt;Node8 -->
<g id="edge25" class="edge"><title>Node21&#45;&gt;Node8</title>
<path fill="none" stroke="midnightblue" d="M917.59,-180.479C934.677,-180.839 953.231,-181.229 970.698,-181.597"/>
<polygon fill="midnightblue" stroke="midnightblue" points="970.766,-185.099 980.837,-181.811 970.913,-178.101 970.766,-185.099"/>
</g>
<!-- Node22 -->
<g id="node22" class="node"><title>Node22</title>
<g id="a_node22"><a xlink:href="classMWWorld_1_1ESMStore.html#a94ffe201bd012dd41fcdabfb35c69e24" target="_top" xlink:title="MWWorld::ESMStore::get">
<polygon fill="white" stroke="black" points="981.5,-219.619 981.5,-238.619 1106.5,-238.619 1106.5,-219.619 981.5,-219.619"/>
<text text-anchor="middle" x="1044" y="-226.619" font-family="FreeSans" font-size="10.00">MWWorld::ESMStore::get</text>
</a>
</g>
</g>
<!-- Node21&#45;&gt;Node22 -->
<g id="edge26" class="edge"><title>Node21&#45;&gt;Node22</title>
<path fill="none" stroke="midnightblue" d="M910.006,-194.121C937.824,-201.441 970.845,-210.131 997.024,-217.02"/>
<polygon fill="midnightblue" stroke="midnightblue" points="996.136,-220.406 1006.7,-219.566 997.918,-213.636 996.136,-220.406"/>
</g>
<!-- Node23&#45;&gt;Node6 -->
<g id="edge28" class="edge"><title>Node23&#45;&gt;Node6</title>
<path fill="none" stroke="midnightblue" d="M514.869,-239.938C568.562,-216.683 677.081,-172.957 774,-154.119 838.689,-141.546 913.669,-138.572 968.01,-138.44"/>
<polygon fill="midnightblue" stroke="midnightblue" points="968.248,-141.94 978.251,-138.448 968.254,-134.94 968.248,-141.94"/>
</g>
<!-- Node23&#45;&gt;Node7 -->
<g id="edge29" class="edge"><title>Node23&#45;&gt;Node7</title>
<path fill="none" stroke="midnightblue" d="M496.892,-270.324C515.543,-287.015 548.237,-312.813 582,-323.119 654.239,-345.171 868.254,-308.033 977.397,-286.628"/>
<polygon fill="midnightblue" stroke="midnightblue" points="978.172,-290.042 987.304,-284.671 976.816,-283.175 978.172,-290.042"/>
</g>
<!-- Node23&#45;&gt;Node8 -->
<g id="edge30" class="edge"><title>Node23&#45;&gt;Node8</title>
<path fill="none" stroke="midnightblue" d="M545.652,-247.401C557.731,-245.969 570.249,-244.493 582,-243.119 736.632,-225.046 775.944,-225.585 930,-203.119 947.304,-200.596 966.026,-197.452 983.159,-194.409"/>
<polygon fill="midnightblue" stroke="midnightblue" points="983.817,-197.847 993.041,-192.635 982.58,-190.957 983.817,-197.847"/>
</g>
<!-- Node23&#45;&gt;Node22 -->
<g id="edge31" class="edge"><title>Node23&#45;&gt;Node22</title>
<path fill="none" stroke="midnightblue" d="M545.718,-253.147C633.007,-250.344 793.295,-244.697 930,-237.119 943.301,-236.382 957.474,-235.475 971.127,-234.539"/>
<polygon fill="midnightblue" stroke="midnightblue" points="971.71,-238.007 981.443,-233.821 971.224,-231.024 971.71,-238.007"/>
</g>
<!-- Node24 -->
<g id="node24" class="node"><title>Node24</title>
<g id="a_node24"><a xlink:href="classMWGui_1_1Widgets_1_1MWSpellEffect.html#a3489e20319478e8107f93b28c5177b36" target="_top" xlink:title="MWGui::Widgets::MWSpellEffect\l::setSpellEffect">
<polygon fill="white" stroke="black" points="582.5,-372.119 582.5,-402.119 737.5,-402.119 737.5,-372.119 582.5,-372.119"/>
<text text-anchor="start" x="590.5" y="-390.119" font-family="FreeSans" font-size="10.00">MWGui::Widgets::MWSpellEffect</text>
<text text-anchor="middle" x="660" y="-379.119" font-family="FreeSans" font-size="10.00">::setSpellEffect</text>
</a>
</g>
</g>
<!-- Node23&#45;&gt;Node24 -->
<g id="edge32" class="edge"><title>Node23&#45;&gt;Node24</title>
<path fill="none" stroke="midnightblue" d="M492.505,-270.242C509.802,-292.075 544.501,-332.502 582,-357.119 588.102,-361.125 594.819,-364.723 601.667,-367.918"/>
<polygon fill="midnightblue" stroke="midnightblue" points="600.475,-371.217 611.039,-372.025 603.285,-364.806 600.475,-371.217"/>
</g>
<!-- Node31 -->
<g id="node31" class="node"><title>Node31</title>
<g id="a_node31"><a xlink:href="classMWGui_1_1Widgets_1_1MWSpellEffect.html#a4dd37f94ce87fbdb534e3a52f75273e1" target="_top" xlink:title="MWGui::Widgets::MWSpellEffect\l::getRequestedWidth">
<polygon fill="white" stroke="black" points="582.5,-284.119 582.5,-314.119 737.5,-314.119 737.5,-284.119 582.5,-284.119"/>
<text text-anchor="start" x="590.5" y="-302.119" font-family="FreeSans" font-size="10.00">MWGui::Widgets::MWSpellEffect</text>
<text text-anchor="middle" x="660" y="-291.119" font-family="FreeSans" font-size="10.00">::getRequestedWidth</text>
</a>
</g>
</g>
<!-- Node23&#45;&gt;Node31 -->
<g id="edge45" class="edge"><title>Node23&#45;&gt;Node31</title>
<path fill="none" stroke="midnightblue" d="M541.76,-270.138C556.713,-273.835 572.853,-277.825 588.234,-281.627"/>
<polygon fill="midnightblue" stroke="midnightblue" points="587.664,-285.091 598.212,-284.093 589.344,-278.296 587.664,-285.091"/>
</g>
<!-- Node25 -->
<g id="node25" class="node"><title>Node25</title>
<g id="a_node25"><a xlink:href="classMWGui_1_1Widgets_1_1MWSpellEffect.html#a6ee32da83a53c6400417d4aeeaaf6d44" target="_top" xlink:title="MWGui::Widgets::MWSpellEffect\l::updateWidgets">
<polygon fill="white" stroke="black" points="774.5,-410.119 774.5,-440.119 929.5,-440.119 929.5,-410.119 774.5,-410.119"/>
<text text-anchor="start" x="782.5" y="-428.119" font-family="FreeSans" font-size="10.00">MWGui::Widgets::MWSpellEffect</text>
<text text-anchor="middle" x="852" y="-417.119" font-family="FreeSans" font-size="10.00">::updateWidgets</text>
</a>
</g>
</g>
<!-- Node24&#45;&gt;Node25 -->
<g id="edge33" class="edge"><title>Node24&#45;&gt;Node25</title>
<path fill="none" stroke="midnightblue" d="M736.093,-402.138C745.895,-404.098 755.993,-406.118 765.945,-408.108"/>
<polygon fill="midnightblue" stroke="midnightblue" points="765.338,-411.556 775.83,-410.085 766.711,-404.692 765.338,-411.556"/>
</g>
<!-- Node25&#45;&gt;Node6 -->
<g id="edge34" class="edge"><title>Node25&#45;&gt;Node6</title>
<path fill="none" stroke="midnightblue" d="M855.114,-409.9C862.12,-365.285 888.699,-233.601 966,-164.119 970.537,-160.042 975.759,-156.657 981.302,-153.847"/>
<polygon fill="midnightblue" stroke="midnightblue" points="983.124,-156.869 990.87,-149.641 980.307,-150.461 983.124,-156.869"/>
</g>
<!-- Node25&#45;&gt;Node7 -->
<g id="edge35" class="edge"><title>Node25&#45;&gt;Node7</title>
<path fill="none" stroke="midnightblue" d="M908.694,-410.098C916.541,-406.178 923.973,-401.265 930,-395.119 962.49,-361.991 932.381,-329.101 966,-297.119 969.614,-293.681 973.714,-290.735 978.093,-288.211"/>
<polygon fill="midnightblue" stroke="midnightblue" points="980.001,-291.172 987.411,-283.599 976.896,-284.898 980.001,-291.172"/>
</g>
<!-- Node25&#45;&gt;Node8 -->
<g id="edge36" class="edge"><title>Node25&#45;&gt;Node8</title>
<path fill="none" stroke="midnightblue" d="M856.799,-409.931C867.304,-371 900.401,-266.74 966,-210.119 972.623,-204.403 980.531,-199.873 988.72,-196.29"/>
<polygon fill="midnightblue" stroke="midnightblue" points="990.002,-199.547 998.031,-192.635 987.443,-193.032 990.002,-199.547"/>
</g>
<!-- Node25&#45;&gt;Node18 -->
<g id="edge42" class="edge"><title>Node25&#45;&gt;Node18</title>
<path fill="none" stroke="midnightblue" d="M868.58,-440.225C884.307,-455.583 909.181,-480.175 930,-502.119 946.462,-519.47 945.941,-529.093 966,-542.119 969.131,-544.153 972.441,-546.033 975.86,-547.771"/>
<polygon fill="midnightblue" stroke="midnightblue" points="974.567,-551.029 985.114,-552.043 977.502,-544.673 974.567,-551.029"/>
</g>
<!-- Node25&#45;&gt;Node22 -->
<g id="edge37" class="edge"><title>Node25&#45;&gt;Node22</title>
<path fill="none" stroke="midnightblue" d="M858.161,-410.035C870.753,-375.588 906.456,-290.832 966,-248.119 968.685,-246.193 971.544,-244.461 974.519,-242.904"/>
<polygon fill="midnightblue" stroke="midnightblue" points="976.07,-246.044 983.742,-238.736 973.188,-239.665 976.07,-246.044"/>
</g>
<!-- Node26 -->
<g id="node26" class="node"><title>Node26</title>
<g id="a_node26"><a xlink:href="classMWBase_1_1Environment.html#aeeef9a580df0312f0a9b7380488dea21" target="_top" xlink:title="MWBase::Environment\l::getWindowManager">
<polygon fill="white" stroke="black" points="987.5,-503.119 987.5,-533.119 1100.5,-533.119 1100.5,-503.119 987.5,-503.119"/>
<text text-anchor="start" x="995.5" y="-521.119" font-family="FreeSans" font-size="10.00">MWBase::Environment</text>
<text text-anchor="middle" x="1044" y="-510.119" font-family="FreeSans" font-size="10.00">::getWindowManager</text>
</a>
</g>
</g>
<!-- Node25&#45;&gt;Node26 -->
<g id="edge38" class="edge"><title>Node25&#45;&gt;Node26</title>
<path fill="none" stroke="midnightblue" d="M874.692,-440.223C896.86,-455.157 932.668,-477.92 966,-493.119 970.955,-495.379 976.175,-497.527 981.465,-499.546"/>
<polygon fill="midnightblue" stroke="midnightblue" points="980.428,-502.893 991.021,-503.037 982.829,-496.318 980.428,-502.893"/>
</g>
<!-- Node27 -->
<g id="node27" class="node"><title>Node27</title>
<g id="a_node27"><a xlink:href="classMWBase_1_1WindowManager.html#abf41d3bcda8d80e24d3e859bd9238afa" target="_top" xlink:title="MWBase::WindowManager\l::getGameSettingString">
<polygon fill="white" stroke="black" points="978.5,-454.119 978.5,-484.119 1109.5,-484.119 1109.5,-454.119 978.5,-454.119"/>
<text text-anchor="start" x="986.5" y="-472.119" font-family="FreeSans" font-size="10.00">MWBase::WindowManager</text>
<text text-anchor="middle" x="1044" y="-461.119" font-family="FreeSans" font-size="10.00">::getGameSettingString</text>
</a>
</g>
</g>
<!-- Node25&#45;&gt;Node27 -->
<g id="edge39" class="edge"><title>Node25&#45;&gt;Node27</title>
<path fill="none" stroke="midnightblue" d="M917.856,-440.138C934.211,-443.926 951.897,-448.022 968.678,-451.908"/>
<polygon fill="midnightblue" stroke="midnightblue" points="967.905,-455.321 978.436,-454.168 969.484,-448.502 967.905,-455.321"/>
</g>
<!-- Node28 -->
<g id="node28" class="node"><title>Node28</title>
<g id="a_node28"><a xlink:href="structESM_1_1MagicEffect.html#ad14b1f6afd175dda88c758348543c70d" target="_top" xlink:title="ESM::MagicEffect::effect\lIdToString">
<polygon fill="white" stroke="black" points="984,-356.119 984,-386.119 1104,-386.119 1104,-356.119 984,-356.119"/>
<text text-anchor="start" x="992" y="-374.119" font-family="FreeSans" font-size="10.00">ESM::MagicEffect::effect</text>
<text text-anchor="middle" x="1044" y="-363.119" font-family="FreeSans" font-size="10.00">IdToString</text>
</a>
</g>
</g>
<!-- Node25&#45;&gt;Node28 -->
<g id="edge40" class="edge"><title>Node25&#45;&gt;Node28</title>
<path fill="none" stroke="midnightblue" d="M905.926,-410.077C928.991,-403.522 956.203,-395.788 980.276,-388.946"/>
<polygon fill="midnightblue" stroke="midnightblue" points="981.367,-392.275 990.029,-386.174 979.453,-385.541 981.367,-392.275"/>
</g>
<!-- Node29 -->
<g id="node29" class="node"><title>Node29</title>
<g id="a_node29"><a xlink:href="structESM_1_1MagicEffect.html#aa860fe480a7798c435222b58c4a2d661" target="_top" xlink:title="ESM::MagicEffect::getMagnitude\lDisplayType">
<polygon fill="white" stroke="black" points="966.5,-405.119 966.5,-435.119 1121.5,-435.119 1121.5,-405.119 966.5,-405.119"/>
<text text-anchor="start" x="974.5" y="-423.119" font-family="FreeSans" font-size="10.00">ESM::MagicEffect::getMagnitude</text>
<text text-anchor="middle" x="1044" y="-412.119" font-family="FreeSans" font-size="10.00">DisplayType</text>
</a>
</g>
</g>
<!-- Node25&#45;&gt;Node29 -->
<g id="edge41" class="edge"><title>Node25&#45;&gt;Node29</title>
<path fill="none" stroke="midnightblue" d="M929.733,-423.1C938.394,-422.872 947.265,-422.639 956.044,-422.408"/>
<polygon fill="midnightblue" stroke="midnightblue" points="956.385,-425.9 966.29,-422.138 956.201,-418.902 956.385,-425.9"/>
</g>
<!-- Node30 -->
<g id="node30" class="node"><title>Node30</title>
<g id="a_node30"><a xlink:href="namespaceMisc_1_1ResourceHelpers.html#ab9be8dea9abed3a219879047eae78c78" target="_top" xlink:title="Misc::ResourceHelpers\l::correctIconPath">
<polygon fill="white" stroke="black" points="987,-307.119 987,-337.119 1101,-337.119 1101,-307.119 987,-307.119"/>
<text text-anchor="start" x="995" y="-325.119" font-family="FreeSans" font-size="10.00">Misc::ResourceHelpers</text>
<text text-anchor="middle" x="1044" y="-314.119" font-family="FreeSans" font-size="10.00">::correctIconPath</text>
</a>
</g>
</g>
<!-- Node25&#45;&gt;Node30 -->
<g id="edge43" class="edge"><title>Node25&#45;&gt;Node30</title>
<path fill="none" stroke="midnightblue" d="M904.064,-409.952C913.198,-405.957 922.259,-401.057 930,-395.119 951.442,-378.672 944.001,-361.813 966,-346.119 969.625,-343.534 973.537,-341.22 977.609,-339.151"/>
<polygon fill="midnightblue" stroke="midnightblue" points="979.078,-342.328 986.73,-335 976.178,-335.956 979.078,-342.328"/>
</g>
<!-- Node30&#45;&gt;Node10 -->
<g id="edge44" class="edge"><title>Node30&#45;&gt;Node10</title>
<path fill="none" stroke="midnightblue" d="M1101.27,-322.119C1116.1,-322.119 1132.23,-322.119 1147.53,-322.119"/>
<polygon fill="midnightblue" stroke="midnightblue" points="1147.97,-325.619 1157.97,-322.119 1147.97,-318.619 1147.97,-325.619"/>
</g>
</g>
</svg>
