<?xml version="1.0" encoding="UTF-8" standalone="no"?>
<!DOCTYPE svg PUBLIC "-//W3C//DTD SVG 1.1//EN"
 "http://www.w3.org/Graphics/SVG/1.1/DTD/svg11.dtd">
<!-- Generated by graphviz version 2.36.0 (20140111.2315)
 -->
<!-- Title: MWPhysics::PhysicsSystem::getObject Pages: 1 -->
<svg width="894pt" height="165pt"
 viewBox="0.00 0.00 894.00 165.01" xmlns="http://www.w3.org/2000/svg" xmlns:xlink="http://www.w3.org/1999/xlink">
<g id="graph0" class="graph" transform="scale(1 1) rotate(0) translate(4 161.012)">
<title>MWPhysics::PhysicsSystem::getObject</title>
<polygon fill="white" stroke="none" points="-4,4 -4,-161.012 890,-161.012 890,4 -4,4"/>
<!-- Node1 -->
<g id="node1" class="node"><title>Node1</title>
<polygon fill="#bfbfbf" stroke="black" points="0,-53.0124 0,-83.0124 146,-83.0124 146,-53.0124 0,-53.0124"/>
<text text-anchor="start" x="8" y="-71.0124" font-family="FreeSans" font-size="10.00">MWPhysics::PhysicsSystem</text>
<text text-anchor="middle" x="73" y="-60.0124" font-family="FreeSans" font-size="10.00">::getObject</text>
</g>
<!-- Node2 -->
<g id="node2" class="node"><title>Node2</title>
<g id="a_node2"><a xlink:href="classMWPhysics_1_1PhysicsSystem.html#a5f6011c42fad11eeb00f30a64672566b" target="_top" xlink:title="MWPhysics::PhysicsSystem\l::castRay">
<polygon fill="white" stroke="black" points="182,-53.0124 182,-83.0124 328,-83.0124 328,-53.0124 182,-53.0124"/>
<text text-anchor="start" x="190" y="-71.0124" font-family="FreeSans" font-size="10.00">MWPhysics::PhysicsSystem</text>
<text text-anchor="middle" x="255" y="-60.0124" font-family="FreeSans" font-size="10.00">::castRay</text>
</a>
</g>
</g>
<!-- Node1&#45;&gt;Node2 -->
<g id="edge1" class="edge"><title>Node1&#45;&gt;Node2</title>
<path fill="none" stroke="midnightblue" d="M156.439,-68.0124C164.906,-68.0124 173.464,-68.0124 181.808,-68.0124"/>
<polygon fill="midnightblue" stroke="midnightblue" points="156.176,-64.5125 146.176,-68.0124 156.176,-71.5125 156.176,-64.5125"/>
</g>
<!-- Node3 -->
<g id="node3" class="node"><title>Node3</title>
<g id="a_node3"><a xlink:href="classMWPhysics_1_1PhysicsSystem.html#ac43c763aa562c7644f7b334baa66a488" target="_top" xlink:title="MWPhysics::PhysicsSystem\l::getHitContact">
<polygon fill="white" stroke="black" points="366,-127.012 366,-157.012 512,-157.012 512,-127.012 366,-127.012"/>
<text text-anchor="start" x="374" y="-145.012" font-family="FreeSans" font-size="10.00">MWPhysics::PhysicsSystem</text>
<text text-anchor="middle" x="439" y="-134.012" font-family="FreeSans" font-size="10.00">::getHitContact</text>
</a>
</g>
</g>
<!-- Node2&#45;&gt;Node3 -->
<g id="edge2" class="edge"><title>Node2&#45;&gt;Node3</title>
<path fill="none" stroke="midnightblue" d="M296.476,-87.5386C316.576,-96.9358 341.349,-108.074 364,-117.012 372.704,-120.447 382.091,-123.846 391.162,-126.98"/>
<polygon fill="midnightblue" stroke="midnightblue" points="297.843,-84.3139 287.305,-83.2205 294.862,-90.647 297.843,-84.3139"/>
</g>
<!-- Node4 -->
<g id="node4" class="node"><title>Node4</title>
<g id="a_node4"><a xlink:href="classMWPhysics_1_1PhysicsSystem.html#afe7f262b2bfd87644311029c227b8912" target="_top" xlink:title="Return true if actor1 can see actor2. ">
<polygon fill="white" stroke="black" points="366,-78.0124 366,-108.012 512,-108.012 512,-78.0124 366,-78.0124"/>
<text text-anchor="start" x="374" y="-96.0124" font-family="FreeSans" font-size="10.00">MWPhysics::PhysicsSystem</text>
<text text-anchor="middle" x="439" y="-85.0124" font-family="FreeSans" font-size="10.00">::getLineOfSight</text>
</a>
</g>
</g>
<!-- Node2&#45;&gt;Node4 -->
<g id="edge3" class="edge"><title>Node2&#45;&gt;Node4</title>
<path fill="none" stroke="midnightblue" d="M338.163,-79.2985C347.413,-80.5691 356.786,-81.8566 365.895,-83.1078"/>
<polygon fill="midnightblue" stroke="midnightblue" points="338.576,-75.8224 328.193,-77.9289 337.623,-82.7573 338.576,-75.8224"/>
</g>
<!-- Node5 -->
<g id="node5" class="node"><title>Node5</title>
<g id="a_node5"><a xlink:href="classMWWorld_1_1ProjectileManager.html#ad7f820af09ff0d1c510ad52b9db7cefa" target="_top" xlink:title="MWWorld::ProjectileManager\l::moveMagicBolts">
<polygon fill="white" stroke="black" points="364,-29.0124 364,-59.0124 514,-59.0124 514,-29.0124 364,-29.0124"/>
<text text-anchor="start" x="372" y="-47.0124" font-family="FreeSans" font-size="10.00">MWWorld::ProjectileManager</text>
<text text-anchor="middle" x="439" y="-36.0124" font-family="FreeSans" font-size="10.00">::moveMagicBolts</text>
</a>
</g>
</g>
<!-- Node2&#45;&gt;Node5 -->
<g id="edge4" class="edge"><title>Node2&#45;&gt;Node5</title>
<path fill="none" stroke="midnightblue" d="M338.158,-57.1783C346.705,-56.0513 355.356,-54.9105 363.807,-53.7961"/>
<polygon fill="midnightblue" stroke="midnightblue" points="337.649,-53.7151 328.193,-58.4925 338.564,-60.655 337.649,-53.7151"/>
</g>
<!-- Node7 -->
<g id="node7" class="node"><title>Node7</title>
<g id="a_node7"><a xlink:href="classMWWorld_1_1ProjectileManager.html#a77bced8f0dfc8fec0a492cd753d0c464" target="_top" xlink:title="MWWorld::ProjectileManager\l::moveProjectiles">
<polygon fill="white" stroke="black" points="736,-29.0124 736,-59.0124 886,-59.0124 886,-29.0124 736,-29.0124"/>
<text text-anchor="start" x="744" y="-47.0124" font-family="FreeSans" font-size="10.00">MWWorld::ProjectileManager</text>
<text text-anchor="middle" x="811" y="-36.0124" font-family="FreeSans" font-size="10.00">::moveProjectiles</text>
</a>
</g>
</g>
<!-- Node2&#45;&gt;Node7 -->
<g id="edge9" class="edge"><title>Node2&#45;&gt;Node7</title>
<path fill="none" stroke="midnightblue" d="M290.099,-47.9979C310.73,-37.065 337.997,-24.6354 364,-19.0124 509.96,12.5505 551.598,-2.36082 700,-19.0124 718.1,-21.0433 737.566,-24.8979 755.017,-28.9832"/>
<polygon fill="midnightblue" stroke="midnightblue" points="288.226,-45.0321 281.115,-52.8859 291.572,-51.1809 288.226,-45.0321"/>
</g>
<!-- Node6 -->
<g id="node6" class="node"><title>Node6</title>
<g id="a_node6"><a xlink:href="classMWWorld_1_1ProjectileManager.html#a10e1c50b640ed158c9332d75c870c8c5" target="_top" xlink:title="MWWorld::ProjectileManager\l::update">
<polygon fill="white" stroke="black" points="550,-29.0124 550,-59.0124 700,-59.0124 700,-29.0124 550,-29.0124"/>
<text text-anchor="start" x="558" y="-47.0124" font-family="FreeSans" font-size="10.00">MWWorld::ProjectileManager</text>
<text text-anchor="middle" x="625" y="-36.0124" font-family="FreeSans" font-size="10.00">::update</text>
</a>
</g>
</g>
<!-- Node5&#45;&gt;Node6 -->
<g id="edge5" class="edge"><title>Node5&#45;&gt;Node6</title>
<path fill="none" stroke="midnightblue" d="M524.066,-37.2847C532.654,-37.2362 541.336,-37.2667 549.808,-37.376"/>
<polygon fill="midnightblue" stroke="midnightblue" points="524.011,-33.785 514.044,-37.378 524.077,-40.7847 524.011,-33.785"/>
</g>
<!-- Node6&#45;&gt;Node5 -->
<g id="edge6" class="edge"><title>Node6&#45;&gt;Node5</title>
<path fill="none" stroke="midnightblue" d="M539.784,-50.7409C531.195,-50.7885 522.514,-50.7571 514.044,-50.6468"/>
<polygon fill="midnightblue" stroke="midnightblue" points="539.84,-54.2406 549.808,-50.6487 539.776,-47.2409 539.84,-54.2406"/>
</g>
<!-- Node6&#45;&gt;Node7 -->
<g id="edge7" class="edge"><title>Node6&#45;&gt;Node7</title>
<path fill="none" stroke="midnightblue" d="M710.066,-37.2847C718.654,-37.2362 727.336,-37.2667 735.808,-37.376"/>
<polygon fill="midnightblue" stroke="midnightblue" points="710.011,-33.785 700.044,-37.378 710.077,-40.7847 710.011,-33.785"/>
</g>
<!-- Node7&#45;&gt;Node6 -->
<g id="edge8" class="edge"><title>Node7&#45;&gt;Node6</title>
<path fill="none" stroke="midnightblue" d="M725.784,-50.7409C717.195,-50.7885 708.514,-50.7571 700.044,-50.6468"/>
<polygon fill="midnightblue" stroke="midnightblue" points="725.84,-54.2406 735.808,-50.6487 725.776,-47.2409 725.84,-54.2406"/>
</g>
</g>
</svg>
