<?xml version="1.0" encoding="UTF-8" standalone="no"?>
<!DOCTYPE svg PUBLIC "-//W3C//DTD SVG 1.1//EN"
 "http://www.w3.org/Graphics/SVG/1.1/DTD/svg11.dtd">
<!-- Generated by graphviz version 2.36.0 (20140111.2315)
 -->
<!-- Title: Gui::AutoSizedEditBox::getRequestedSize Pages: 1 -->
<svg width="286pt" height="38pt"
 viewBox="0.00 0.00 286.00 38.00" xmlns="http://www.w3.org/2000/svg" xmlns:xlink="http://www.w3.org/1999/xlink">
<g id="graph0" class="graph" transform="scale(1 1) rotate(0) translate(4 34)">
<title>Gui::AutoSizedEditBox::getRequestedSize</title>
<polygon fill="white" stroke="none" points="-4,4 -4,-34 282,-34 282,4 -4,4"/>
<!-- Node1 -->
<g id="node1" class="node"><title>Node1</title>
<polygon fill="#bfbfbf" stroke="black" points="0.5,-0 0.5,-30 123.5,-30 123.5,-0 0.5,-0"/>
<text text-anchor="start" x="8.5" y="-18" font-family="FreeSans" font-size="10.00">Gui::AutoSizedEditBox</text>
<text text-anchor="middle" x="62" y="-7" font-family="FreeSans" font-size="10.00">::getRequestedSize</text>
</g>
<!-- Node2 -->
<g id="node2" class="node"><title>Node2</title>
<g id="a_node2"><a xlink:href="namespaceCSMWorld_1_1Columns.html#a5f30df1dd13565c4dd4155037a2ed81e" target="_top" xlink:title="CSMWorld::Columns::\lgetName">
<polygon fill="white" stroke="black" points="160,-0 160,-30 278,-30 278,-0 160,-0"/>
<text text-anchor="start" x="168" y="-18" font-family="FreeSans" font-size="10.00">CSMWorld::Columns::</text>
<text text-anchor="middle" x="219" y="-7" font-family="FreeSans" font-size="10.00">getName</text>
</a>
</g>
</g>
<!-- Node1&#45;&gt;Node2 -->
<g id="edge1" class="edge"><title>Node1&#45;&gt;Node2</title>
<path fill="none" stroke="midnightblue" d="M123.815,-15C132.35,-15 141.167,-15 149.827,-15"/>
<polygon fill="midnightblue" stroke="midnightblue" points="149.894,-18.5001 159.894,-15 149.894,-11.5001 149.894,-18.5001"/>
</g>
</g>
</svg>
