<?xml version="1.0" encoding="UTF-8" standalone="no"?>
<!DOCTYPE svg PUBLIC "-//W3C//DTD SVG 1.1//EN"
 "http://www.w3.org/Graphics/SVG/1.1/DTD/svg11.dtd">
<!-- Generated by graphviz version 2.36.0 (20140111.2315)
 -->
<!-- Title: MWWorld::InventoryStore::setInvListener Pages: 1 -->
<svg width="350pt" height="136pt"
 viewBox="0.00 0.00 350.00 136.00" xmlns="http://www.w3.org/2000/svg" xmlns:xlink="http://www.w3.org/1999/xlink">
<g id="graph0" class="graph" transform="scale(1 1) rotate(0) translate(4 132)">
<title>MWWorld::InventoryStore::setInvListener</title>
<polygon fill="white" stroke="none" points="-4,4 -4,-132 346,-132 346,4 -4,4"/>
<!-- Node1 -->
<g id="node1" class="node"><title>Node1</title>
<polygon fill="#bfbfbf" stroke="black" points="0.5,-49 0.5,-79 125.5,-79 125.5,-49 0.5,-49"/>
<text text-anchor="start" x="8.5" y="-67" font-family="FreeSans" font-size="10.00">MWWorld::InventoryStore</text>
<text text-anchor="middle" x="63" y="-56" font-family="FreeSans" font-size="10.00">::setInvListener</text>
</g>
<!-- Node2 -->
<g id="node2" class="node"><title>Node2</title>
<g id="a_node2"><a xlink:href="classMWRender_1_1CreatureWeaponAnimation.html#a1016608182292ace41cb8af7e72e87c0" target="_top" xlink:title="MWRender::CreatureWeapon\lAnimation::CreatureWeaponAnimation">
<polygon fill="white" stroke="black" points="162,-98 162,-128 342,-128 342,-98 162,-98"/>
<text text-anchor="start" x="170" y="-116" font-family="FreeSans" font-size="10.00">MWRender::CreatureWeapon</text>
<text text-anchor="middle" x="252" y="-105" font-family="FreeSans" font-size="10.00">Animation::CreatureWeaponAnimation</text>
</a>
</g>
</g>
<!-- Node1&#45;&gt;Node2 -->
<g id="edge1" class="edge"><title>Node1&#45;&gt;Node2</title>
<path fill="none" stroke="midnightblue" d="M131.255,-81.6229C151.713,-86.9837 173.996,-92.8225 193.731,-97.9938"/>
<polygon fill="midnightblue" stroke="midnightblue" points="131.938,-78.1837 121.377,-79.0346 130.163,-84.9551 131.938,-78.1837"/>
</g>
<!-- Node3 -->
<g id="node3" class="node"><title>Node3</title>
<g id="a_node3"><a xlink:href="classMWRender_1_1NpcAnimation.html#aa5faa3df208fc30caa0c63a28b6419c5" target="_top" xlink:title="MWRender::NpcAnimation\l::~NpcAnimation">
<polygon fill="white" stroke="black" points="187,-49 187,-79 317,-79 317,-49 187,-49"/>
<text text-anchor="start" x="195" y="-67" font-family="FreeSans" font-size="10.00">MWRender::NpcAnimation</text>
<text text-anchor="middle" x="252" y="-56" font-family="FreeSans" font-size="10.00">::~NpcAnimation</text>
</a>
</g>
</g>
<!-- Node1&#45;&gt;Node3 -->
<g id="edge2" class="edge"><title>Node1&#45;&gt;Node3</title>
<path fill="none" stroke="midnightblue" d="M136.008,-64C152.72,-64 170.399,-64 186.752,-64"/>
<polygon fill="midnightblue" stroke="midnightblue" points="135.749,-60.5001 125.749,-64 135.749,-67.5001 135.749,-60.5001"/>
</g>
<!-- Node4 -->
<g id="node4" class="node"><title>Node4</title>
<g id="a_node4"><a xlink:href="classMWRender_1_1NpcAnimation.html#a0f12942b0015ca2fae3b43f6c2f9d2b7" target="_top" xlink:title="MWRender::NpcAnimation\l::NpcAnimation">
<polygon fill="white" stroke="black" points="187,-0 187,-30 317,-30 317,-0 187,-0"/>
<text text-anchor="start" x="195" y="-18" font-family="FreeSans" font-size="10.00">MWRender::NpcAnimation</text>
<text text-anchor="middle" x="252" y="-7" font-family="FreeSans" font-size="10.00">::NpcAnimation</text>
</a>
</g>
</g>
<!-- Node1&#45;&gt;Node4 -->
<g id="edge3" class="edge"><title>Node1&#45;&gt;Node4</title>
<path fill="none" stroke="midnightblue" d="M131.255,-46.3771C151.713,-41.0163 173.996,-35.1775 193.731,-30.0062"/>
<polygon fill="midnightblue" stroke="midnightblue" points="130.163,-43.0449 121.377,-48.9654 131.938,-49.8163 130.163,-43.0449"/>
</g>
</g>
</svg>
