<?xml version="1.0" encoding="UTF-8" standalone="no"?>
<!DOCTYPE svg PUBLIC "-//W3C//DTD SVG 1.1//EN"
 "http://www.w3.org/Graphics/SVG/1.1/DTD/svg11.dtd">
<!-- Generated by graphviz version 2.36.0 (20140111.2315)
 -->
<!-- Title: MWClass::Armor::applyEnchantment Pages: 1 -->
<svg width="542pt" height="159pt"
 viewBox="0.00 0.00 542.00 159.00" xmlns="http://www.w3.org/2000/svg" xmlns:xlink="http://www.w3.org/1999/xlink">
<g id="graph0" class="graph" transform="scale(1 1) rotate(0) translate(4 155)">
<title>MWClass::Armor::applyEnchantment</title>
<polygon fill="white" stroke="none" points="-4,4 -4,-155 538,-155 538,4 -4,4"/>
<!-- Node1 -->
<g id="node1" class="node"><title>Node1</title>
<polygon fill="#bfbfbf" stroke="black" points="0.5,-66.5 0.5,-85.5 191.5,-85.5 191.5,-66.5 0.5,-66.5"/>
<text text-anchor="middle" x="96" y="-73.5" font-family="FreeSans" font-size="10.00">MWClass::Armor::applyEnchantment</text>
</g>
<!-- Node2 -->
<g id="node2" class="node"><title>Node2</title>
<g id="a_node2"><a xlink:href="classMWWorld_1_1ConstPtr.html#ae3aece4775b5f86d04af63ce0de36cbd" target="_top" xlink:title="MWWorld::ConstPtr::get">
<polygon fill="white" stroke="black" points="243,-126.5 243,-145.5 371,-145.5 371,-126.5 243,-126.5"/>
<text text-anchor="middle" x="307" y="-133.5" font-family="FreeSans" font-size="10.00">MWWorld::ConstPtr::get</text>
</a>
</g>
</g>
<!-- Node1&#45;&gt;Node2 -->
<g id="edge1" class="edge"><title>Node1&#45;&gt;Node2</title>
<path fill="none" stroke="midnightblue" d="M125.72,-85.5744C152.156,-94.2473 192.526,-107.139 228,-117 236.586,-119.387 245.748,-121.766 254.664,-123.994"/>
<polygon fill="midnightblue" stroke="midnightblue" points="254.035,-127.443 264.581,-126.436 255.708,-120.646 254.035,-127.443"/>
</g>
<!-- Node4 -->
<g id="node4" class="node"><title>Node4</title>
<g id="a_node4"><a xlink:href="classMWBase_1_1Environment.html#a73f12633762b049c03c80fe215873faa" target="_top" xlink:title="Return instance of this class. ">
<polygon fill="white" stroke="black" points="234,-88.5 234,-107.5 380,-107.5 380,-88.5 234,-88.5"/>
<text text-anchor="middle" x="307" y="-95.5" font-family="FreeSans" font-size="10.00">MWBase::Environment::get</text>
</a>
</g>
</g>
<!-- Node1&#45;&gt;Node4 -->
<g id="edge3" class="edge"><title>Node1&#45;&gt;Node4</title>
<path fill="none" stroke="midnightblue" d="M187.455,-85.5216C199.608,-86.8008 212.018,-88.1072 224.013,-89.3698"/>
<polygon fill="midnightblue" stroke="midnightblue" points="223.665,-92.8525 233.977,-90.4186 224.398,-85.8909 223.665,-92.8525"/>
</g>
<!-- Node5 -->
<g id="node5" class="node"><title>Node5</title>
<g id="a_node5"><a xlink:href="classMWBase_1_1Environment.html#ae14e166d8f5ff8629be119333d502660" target="_top" xlink:title="MWBase::Environment\l::getWorld">
<polygon fill="white" stroke="black" points="245,-39 245,-69 369,-69 369,-39 245,-39"/>
<text text-anchor="start" x="253" y="-57" font-family="FreeSans" font-size="10.00">MWBase::Environment</text>
<text text-anchor="middle" x="307" y="-46" font-family="FreeSans" font-size="10.00">::getWorld</text>
</a>
</g>
</g>
<!-- Node1&#45;&gt;Node5 -->
<g id="edge4" class="edge"><title>Node1&#45;&gt;Node5</title>
<path fill="none" stroke="midnightblue" d="M187.455,-66.4784C203.231,-64.8178 219.442,-63.1114 234.614,-61.5143"/>
<polygon fill="midnightblue" stroke="midnightblue" points="235.355,-64.9557 244.934,-60.428 234.622,-57.9942 235.355,-64.9557"/>
</g>
<!-- Node6 -->
<g id="node6" class="node"><title>Node6</title>
<g id="a_node6"><a xlink:href="classMWBase_1_1World.html#ae1e491bc2cff01e1f0c3aac65ab2a89c" target="_top" xlink:title="MWBase::World::createRecord">
<polygon fill="white" stroke="black" points="228,-0.5 228,-19.5 386,-19.5 386,-0.5 228,-0.5"/>
<text text-anchor="middle" x="307" y="-7.5" font-family="FreeSans" font-size="10.00">MWBase::World::createRecord</text>
</a>
</g>
</g>
<!-- Node1&#45;&gt;Node6 -->
<g id="edge5" class="edge"><title>Node1&#45;&gt;Node6</title>
<path fill="none" stroke="midnightblue" d="M122.388,-66.3489C148.622,-56.5503 190.861,-41.2589 228,-30 237.135,-27.2307 246.946,-24.5158 256.422,-22.0234"/>
<polygon fill="midnightblue" stroke="midnightblue" points="257.328,-25.4043 266.135,-19.5135 255.577,-18.627 257.328,-25.4043"/>
</g>
<!-- Node3 -->
<g id="node3" class="node"><title>Node3</title>
<g id="a_node3"><a xlink:href="classMWWorld_1_1ConstPtr.html#ace447c99102c91a088f5e51c9664f950" target="_top" xlink:title="MWWorld::ConstPtr::\lgetTypeName">
<polygon fill="white" stroke="black" points="422,-121 422,-151 534,-151 534,-121 422,-121"/>
<text text-anchor="start" x="430" y="-139" font-family="FreeSans" font-size="10.00">MWWorld::ConstPtr::</text>
<text text-anchor="middle" x="478" y="-128" font-family="FreeSans" font-size="10.00">getTypeName</text>
</a>
</g>
</g>
<!-- Node2&#45;&gt;Node3 -->
<g id="edge2" class="edge"><title>Node2&#45;&gt;Node3</title>
<path fill="none" stroke="midnightblue" d="M371.41,-136C384.491,-136 398.293,-136 411.448,-136"/>
<polygon fill="midnightblue" stroke="midnightblue" points="411.834,-139.5 421.834,-136 411.834,-132.5 411.834,-139.5"/>
</g>
</g>
</svg>
