<?xml version="1.0" encoding="UTF-8" standalone="no"?>
<!DOCTYPE svg PUBLIC "-//W3C//DTD SVG 1.1//EN"
 "http://www.w3.org/Graphics/SVG/1.1/DTD/svg11.dtd">
<!-- Generated by graphviz version 2.36.0 (20140111.2315)
 -->
<!-- Title: MWGui::TradeWindow::addRepeatController Pages: 1 -->
<svg width="1088pt" height="428pt"
 viewBox="0.00 0.00 1088.00 428.00" xmlns="http://www.w3.org/2000/svg" xmlns:xlink="http://www.w3.org/1999/xlink">
<g id="graph0" class="graph" transform="scale(1 1) rotate(0) translate(4 424)">
<title>MWGui::TradeWindow::addRepeatController</title>
<polygon fill="white" stroke="none" points="-4,4 -4,-424 1084,-424 1084,4 -4,4"/>
<!-- Node1 -->
<g id="node1" class="node"><title>Node1</title>
<polygon fill="#bfbfbf" stroke="black" points="0,-124 0,-154 112,-154 112,-124 0,-124"/>
<text text-anchor="start" x="8" y="-142" font-family="FreeSans" font-size="10.00">MWGui::TradeWindow</text>
<text text-anchor="middle" x="56" y="-131" font-family="FreeSans" font-size="10.00">::addRepeatController</text>
</g>
<!-- Node2 -->
<g id="node2" class="node"><title>Node2</title>
<g id="a_node2"><a xlink:href="classMWGui_1_1TradeWindow.html#a1e1c90f167fc2b5ca0daaf669787f0bd" target="_top" xlink:title="MWGui::TradeWindow\l::onRepeatClick">
<polygon fill="white" stroke="black" points="151,-151 151,-181 263,-181 263,-151 151,-151"/>
<text text-anchor="start" x="159" y="-169" font-family="FreeSans" font-size="10.00">MWGui::TradeWindow</text>
<text text-anchor="middle" x="207" y="-158" font-family="FreeSans" font-size="10.00">::onRepeatClick</text>
</a>
</g>
</g>
<!-- Node1&#45;&gt;Node2 -->
<g id="edge1" class="edge"><title>Node1&#45;&gt;Node2</title>
<path fill="none" stroke="midnightblue" d="M112.059,-148.977C121.411,-150.672 131.202,-152.446 140.786,-154.183"/>
<polygon fill="midnightblue" stroke="midnightblue" points="140.206,-157.635 150.67,-155.974 141.454,-150.747 140.206,-157.635"/>
</g>
<!-- Node21 -->
<g id="node21" class="node"><title>Node21</title>
<g id="a_node21"><a xlink:href="classMWGui_1_1Controllers_1_1ControllerRepeatEvent.html#a9c968139ec2cb4f3069eb5a25ff2a178" target="_top" xlink:title="MWGui::Controllers\l::ControllerRepeatEvent\l::setRepeat">
<polygon fill="white" stroke="black" points="148.5,-91.5 148.5,-132.5 265.5,-132.5 265.5,-91.5 148.5,-91.5"/>
<text text-anchor="start" x="156.5" y="-120.5" font-family="FreeSans" font-size="10.00">MWGui::Controllers</text>
<text text-anchor="start" x="156.5" y="-109.5" font-family="FreeSans" font-size="10.00">::ControllerRepeatEvent</text>
<text text-anchor="middle" x="207" y="-98.5" font-family="FreeSans" font-size="10.00">::setRepeat</text>
</a>
</g>
</g>
<!-- Node1&#45;&gt;Node21 -->
<g id="edge23" class="edge"><title>Node1&#45;&gt;Node21</title>
<path fill="none" stroke="midnightblue" d="M112.059,-129.023C120.672,-127.462 129.658,-125.834 138.51,-124.23"/>
<polygon fill="midnightblue" stroke="midnightblue" points="139.206,-127.661 148.422,-122.434 137.958,-120.773 139.206,-127.661"/>
</g>
<!-- Node3 -->
<g id="node3" class="node"><title>Node3</title>
<g id="a_node3"><a xlink:href="classMWGui_1_1TradeWindow.html#a7126c591dae9e988d720b0113ac87f94" target="_top" xlink:title="MWGui::TradeWindow\l::onIncreaseButtonTriggered">
<polygon fill="white" stroke="black" points="304.5,-200 304.5,-230 441.5,-230 441.5,-200 304.5,-200"/>
<text text-anchor="start" x="312.5" y="-218" font-family="FreeSans" font-size="10.00">MWGui::TradeWindow</text>
<text text-anchor="middle" x="373" y="-207" font-family="FreeSans" font-size="10.00">::onIncreaseButtonTriggered</text>
</a>
</g>
</g>
<!-- Node2&#45;&gt;Node3 -->
<g id="edge2" class="edge"><title>Node2&#45;&gt;Node3</title>
<path fill="none" stroke="midnightblue" d="M258.544,-181.101C275.458,-186.155 294.477,-191.838 312.039,-197.085"/>
<polygon fill="midnightblue" stroke="midnightblue" points="311.04,-200.439 321.623,-199.948 313.044,-193.732 311.04,-200.439"/>
</g>
<!-- Node20 -->
<g id="node20" class="node"><title>Node20</title>
<g id="a_node20"><a xlink:href="classMWGui_1_1TradeWindow.html#adf562a4979a8e8fd57ae25071f1ff69c" target="_top" xlink:title="MWGui::TradeWindow\l::onDecreaseButtonTriggered">
<polygon fill="white" stroke="black" points="302.5,-151 302.5,-181 443.5,-181 443.5,-151 302.5,-151"/>
<text text-anchor="start" x="310.5" y="-169" font-family="FreeSans" font-size="10.00">MWGui::TradeWindow</text>
<text text-anchor="middle" x="373" y="-158" font-family="FreeSans" font-size="10.00">::onDecreaseButtonTriggered</text>
</a>
</g>
</g>
<!-- Node2&#45;&gt;Node20 -->
<g id="edge21" class="edge"><title>Node2&#45;&gt;Node20</title>
<path fill="none" stroke="midnightblue" d="M263.066,-166C272.389,-166 282.236,-166 292.043,-166"/>
<polygon fill="midnightblue" stroke="midnightblue" points="292.225,-169.5 302.225,-166 292.225,-162.5 292.225,-169.5"/>
</g>
<!-- Node4 -->
<g id="node4" class="node"><title>Node4</title>
<g id="a_node4"><a xlink:href="classMWGui_1_1TradeWindow.html#a3188166252ca0c455883f8dff918e1ff" target="_top" xlink:title="MWGui::TradeWindow\l::updateLabels">
<polygon fill="white" stroke="black" points="480,-175 480,-205 592,-205 592,-175 480,-175"/>
<text text-anchor="start" x="488" y="-193" font-family="FreeSans" font-size="10.00">MWGui::TradeWindow</text>
<text text-anchor="middle" x="536" y="-182" font-family="FreeSans" font-size="10.00">::updateLabels</text>
</a>
</g>
</g>
<!-- Node3&#45;&gt;Node4 -->
<g id="edge3" class="edge"><title>Node3&#45;&gt;Node4</title>
<path fill="none" stroke="midnightblue" d="M441.812,-204.47C451.152,-203.02 460.726,-201.533 470.014,-200.091"/>
<polygon fill="midnightblue" stroke="midnightblue" points="470.611,-203.54 479.955,-198.547 469.537,-196.623 470.611,-203.54"/>
</g>
<!-- Node5 -->
<g id="node5" class="node"><title>Node5</title>
<g id="a_node5"><a xlink:href="namespaceMWMechanics.html#a90645fe67f9b8b658452cd004d2cbb65" target="_top" xlink:title="MWMechanics::getPlayer">
<polygon fill="white" stroke="black" points="638.5,-341.5 638.5,-360.5 763.5,-360.5 763.5,-341.5 638.5,-341.5"/>
<text text-anchor="middle" x="701" y="-348.5" font-family="FreeSans" font-size="10.00">MWMechanics::getPlayer</text>
</a>
</g>
</g>
<!-- Node4&#45;&gt;Node5 -->
<g id="edge4" class="edge"><title>Node4&#45;&gt;Node5</title>
<path fill="none" stroke="midnightblue" d="M545.353,-205.164C559.634,-230.013 590.83,-279.846 628,-312 639.593,-322.029 654.194,-330.528 667.212,-337.008"/>
<polygon fill="midnightblue" stroke="midnightblue" points="665.812,-340.218 676.345,-341.361 668.824,-333.899 665.812,-340.218"/>
</g>
<!-- Node9 -->
<g id="node9" class="node"><title>Node9</title>
<g id="a_node9"><a xlink:href="classMWWorld_1_1Ptr.html#aa2ac4a5579cd19eaa780596f4543ea46" target="_top" xlink:title="MWWorld::Ptr::getClass">
<polygon fill="white" stroke="black" points="823.5,-98.5 823.5,-117.5 940.5,-117.5 940.5,-98.5 823.5,-98.5"/>
<text text-anchor="middle" x="882" y="-105.5" font-family="FreeSans" font-size="10.00">MWWorld::Ptr::getClass</text>
</a>
</g>
</g>
<!-- Node4&#45;&gt;Node9 -->
<g id="edge8" class="edge"><title>Node4&#45;&gt;Node9</title>
<path fill="none" stroke="midnightblue" d="M572.843,-174.999C589.412,-168.484 609.483,-161.175 628,-156 689.861,-138.711 761.973,-125.709 813.346,-117.628"/>
<polygon fill="midnightblue" stroke="midnightblue" points="813.99,-121.07 823.335,-116.078 812.917,-114.153 813.99,-121.07"/>
</g>
<!-- Node10 -->
<g id="node10" class="node"><title>Node10</title>
<g id="a_node10"><a xlink:href="classMWWorld_1_1Class.html#af1209aa1b5a2bf560a182fcc8a9e8547" target="_top" xlink:title="MWWorld::Class::getContainer\lStore">
<polygon fill="white" stroke="black" points="628,-224 628,-254 774,-254 774,-224 628,-224"/>
<text text-anchor="start" x="636" y="-242" font-family="FreeSans" font-size="10.00">MWWorld::Class::getContainer</text>
<text text-anchor="middle" x="701" y="-231" font-family="FreeSans" font-size="10.00">Store</text>
</a>
</g>
</g>
<!-- Node4&#45;&gt;Node10 -->
<g id="edge9" class="edge"><title>Node4&#45;&gt;Node10</title>
<path fill="none" stroke="midnightblue" d="M587.235,-205.101C603.891,-210.108 622.6,-215.732 639.919,-220.939"/>
<polygon fill="midnightblue" stroke="midnightblue" points="639.346,-224.421 649.93,-223.948 641.361,-217.718 639.346,-224.421"/>
</g>
<!-- Node11 -->
<g id="node11" class="node"><title>Node11</title>
<g id="a_node11"><a xlink:href="classMWWorld_1_1ContainerStore.html#aff176edbad26cdd416517a42a87a39ea" target="_top" xlink:title="MWWorld::ContainerStore\l::count">
<polygon fill="white" stroke="black" points="637,-273 637,-303 765,-303 765,-273 637,-273"/>
<text text-anchor="start" x="645" y="-291" font-family="FreeSans" font-size="10.00">MWWorld::ContainerStore</text>
<text text-anchor="middle" x="701" y="-280" font-family="FreeSans" font-size="10.00">::count</text>
</a>
</g>
</g>
<!-- Node4&#45;&gt;Node11 -->
<g id="edge10" class="edge"><title>Node4&#45;&gt;Node11</title>
<path fill="none" stroke="midnightblue" d="M552.548,-205.28C569.761,-221.487 598.932,-246.926 628,-263 631.883,-265.147 635.984,-267.161 640.179,-269.039"/>
<polygon fill="midnightblue" stroke="midnightblue" points="638.89,-272.294 649.466,-272.933 641.597,-265.838 638.89,-272.294"/>
</g>
<!-- Node14 -->
<g id="node14" class="node"><title>Node14</title>
<g id="a_node14"><a xlink:href="namespaceanonymous__namespace_02character_8cpp_03.html#a551df780ef62c57fe81b128fa596488c" target="_top" xlink:title="anonymous_namespace\l\{character::cpp\}::toString">
<polygon fill="white" stroke="black" points="821,-156 821,-186 943,-186 943,-156 821,-156"/>
<text text-anchor="start" x="829" y="-174" font-family="FreeSans" font-size="10.00">anonymous_namespace</text>
<text text-anchor="middle" x="882" y="-163" font-family="FreeSans" font-size="10.00">{character::cpp}::toString</text>
</a>
</g>
</g>
<!-- Node4&#45;&gt;Node14 -->
<g id="edge13" class="edge"><title>Node4&#45;&gt;Node14</title>
<path fill="none" stroke="midnightblue" d="M582.331,-174.978C596.761,-170.893 612.9,-167.037 628,-165 689.307,-156.732 759.708,-159.374 810.655,-163.426"/>
<polygon fill="midnightblue" stroke="midnightblue" points="810.642,-166.937 820.899,-164.28 811.224,-159.961 810.642,-166.937"/>
</g>
<!-- Node16 -->
<g id="node16" class="node"><title>Node16</title>
<g id="a_node16"><a xlink:href="classGui_1_1NumericEditBox.html#ab6befad079d96d9a4f1be04d399ff67b" target="_top" xlink:title="Gui::NumericEditBox\l::setValue">
<polygon fill="white" stroke="black" points="648.5,-175 648.5,-205 753.5,-205 753.5,-175 648.5,-175"/>
<text text-anchor="start" x="656.5" y="-193" font-family="FreeSans" font-size="10.00">Gui::NumericEditBox</text>
<text text-anchor="middle" x="701" y="-182" font-family="FreeSans" font-size="10.00">::setValue</text>
</a>
</g>
</g>
<!-- Node4&#45;&gt;Node16 -->
<g id="edge15" class="edge"><title>Node4&#45;&gt;Node16</title>
<path fill="none" stroke="midnightblue" d="M592.184,-190C606.967,-190 623.045,-190 638.162,-190"/>
<polygon fill="midnightblue" stroke="midnightblue" points="638.447,-193.5 648.447,-190 638.447,-186.5 638.447,-193.5"/>
</g>
<!-- Node17 -->
<g id="node17" class="node"><title>Node17</title>
<g id="a_node17"><a xlink:href="classMWGui_1_1TradeWindow.html#a096c1a0bed976abdd252ef2ec42817a3" target="_top" xlink:title="MWGui::TradeWindow\l::getMerchantGold">
<polygon fill="white" stroke="black" points="645,-49 645,-79 757,-79 757,-49 645,-49"/>
<text text-anchor="start" x="653" y="-67" font-family="FreeSans" font-size="10.00">MWGui::TradeWindow</text>
<text text-anchor="middle" x="701" y="-56" font-family="FreeSans" font-size="10.00">::getMerchantGold</text>
</a>
</g>
</g>
<!-- Node4&#45;&gt;Node17 -->
<g id="edge17" class="edge"><title>Node4&#45;&gt;Node17</title>
<path fill="none" stroke="midnightblue" d="M548.088,-174.806C563.842,-154.129 594.532,-117.067 628,-94 633.619,-90.1276 639.815,-86.6173 646.144,-83.4766"/>
<polygon fill="midnightblue" stroke="midnightblue" points="647.87,-86.5335 655.459,-79.1404 644.916,-80.1873 647.87,-86.5335"/>
</g>
<!-- Node6 -->
<g id="node6" class="node"><title>Node6</title>
<g id="a_node6"><a xlink:href="classMWBase_1_1Environment.html#a73f12633762b049c03c80fe215873faa" target="_top" xlink:title="Return instance of this class. ">
<polygon fill="white" stroke="black" points="816.5,-312.5 816.5,-331.5 947.5,-331.5 947.5,-312.5 816.5,-312.5"/>
<text text-anchor="middle" x="882" y="-319.5" font-family="FreeSans" font-size="10.00">MWBase::Environment::get</text>
</a>
</g>
</g>
<!-- Node5&#45;&gt;Node6 -->
<g id="edge5" class="edge"><title>Node5&#45;&gt;Node6</title>
<path fill="none" stroke="midnightblue" d="M761.107,-341.424C777.383,-338.787 795.181,-335.904 811.964,-333.185"/>
<polygon fill="midnightblue" stroke="midnightblue" points="812.948,-336.571 822.26,-331.517 811.829,-329.661 812.948,-336.571"/>
</g>
<!-- Node7 -->
<g id="node7" class="node"><title>Node7</title>
<g id="a_node7"><a xlink:href="classMWBase_1_1Environment.html#ae14e166d8f5ff8629be119333d502660" target="_top" xlink:title="MWBase::Environment\l::getWorld">
<polygon fill="white" stroke="black" points="825.5,-389 825.5,-419 938.5,-419 938.5,-389 825.5,-389"/>
<text text-anchor="start" x="833.5" y="-407" font-family="FreeSans" font-size="10.00">MWBase::Environment</text>
<text text-anchor="middle" x="882" y="-396" font-family="FreeSans" font-size="10.00">::getWorld</text>
</a>
</g>
</g>
<!-- Node5&#45;&gt;Node7 -->
<g id="edge6" class="edge"><title>Node5&#45;&gt;Node7</title>
<path fill="none" stroke="midnightblue" d="M734.416,-360.598C758.402,-367.7 791.778,-377.582 820.623,-386.123"/>
<polygon fill="midnightblue" stroke="midnightblue" points="819.629,-389.479 830.212,-388.962 821.617,-382.767 819.629,-389.479"/>
</g>
<!-- Node8 -->
<g id="node8" class="node"><title>Node8</title>
<g id="a_node8"><a xlink:href="classMWBase_1_1World.html#a95005e26dcb7b1f6dc906eb518b95762" target="_top" xlink:title="MWBase::World::getPlayerPtr">
<polygon fill="white" stroke="black" points="810.5,-350.5 810.5,-369.5 953.5,-369.5 953.5,-350.5 810.5,-350.5"/>
<text text-anchor="middle" x="882" y="-357.5" font-family="FreeSans" font-size="10.00">MWBase::World::getPlayerPtr</text>
</a>
</g>
</g>
<!-- Node5&#45;&gt;Node8 -->
<g id="edge7" class="edge"><title>Node5&#45;&gt;Node8</title>
<path fill="none" stroke="midnightblue" d="M763.602,-354.097C775.374,-354.689 787.861,-355.317 800.131,-355.934"/>
<polygon fill="midnightblue" stroke="midnightblue" points="800.202,-359.442 810.365,-356.449 800.553,-352.451 800.202,-359.442"/>
</g>
<!-- Node12 -->
<g id="node12" class="node"><title>Node12</title>
<g id="a_node12"><a xlink:href="classMisc_1_1StringUtils.html#a0f8cb0ac134191ba8417f74ab7dc4de6" target="_top" xlink:title="Misc::StringUtils::\lciEqual">
<polygon fill="white" stroke="black" points="837,-263 837,-293 927,-293 927,-263 837,-263"/>
<text text-anchor="start" x="845" y="-281" font-family="FreeSans" font-size="10.00">Misc::StringUtils::</text>
<text text-anchor="middle" x="882" y="-270" font-family="FreeSans" font-size="10.00">ciEqual</text>
</a>
</g>
</g>
<!-- Node11&#45;&gt;Node12 -->
<g id="edge11" class="edge"><title>Node11&#45;&gt;Node12</title>
<path fill="none" stroke="midnightblue" d="M765.109,-284.474C785.244,-283.349 807.337,-282.115 826.784,-281.029"/>
<polygon fill="midnightblue" stroke="midnightblue" points="827.197,-284.511 836.986,-280.459 826.806,-277.522 827.197,-284.511"/>
</g>
<!-- Node13 -->
<g id="node13" class="node"><title>Node13</title>
<g id="a_node13"><a xlink:href="classMisc_1_1StringUtils.html#a0759adb102842ee3bced227707eb6949" target="_top" xlink:title="Misc::StringUtils::\ltoLower">
<polygon fill="white" stroke="black" points="990,-263 990,-293 1080,-293 1080,-263 990,-263"/>
<text text-anchor="start" x="998" y="-281" font-family="FreeSans" font-size="10.00">Misc::StringUtils::</text>
<text text-anchor="middle" x="1035" y="-270" font-family="FreeSans" font-size="10.00">toLower</text>
</a>
</g>
</g>
<!-- Node12&#45;&gt;Node13 -->
<g id="edge12" class="edge"><title>Node12&#45;&gt;Node13</title>
<path fill="none" stroke="midnightblue" d="M927.081,-278C943.445,-278 962.206,-278 979.398,-278"/>
<polygon fill="midnightblue" stroke="midnightblue" points="979.864,-281.5 989.864,-278 979.864,-274.5 979.864,-281.5"/>
</g>
<!-- Node15 -->
<g id="node15" class="node"><title>Node15</title>
<g id="a_node15"><a xlink:href="gen__iconv_8cpp.html#a47a14d9c2f599fa2591017202978774d" target="_top" xlink:title="num">
<polygon fill="white" stroke="black" points="1017.5,-161.5 1017.5,-180.5 1052.5,-180.5 1052.5,-161.5 1017.5,-161.5"/>
<text text-anchor="middle" x="1035" y="-168.5" font-family="FreeSans" font-size="10.00">num</text>
</a>
</g>
</g>
<!-- Node14&#45;&gt;Node15 -->
<g id="edge14" class="edge"><title>Node14&#45;&gt;Node15</title>
<path fill="none" stroke="midnightblue" d="M943.113,-171C965.316,-171 989.374,-171 1007.16,-171"/>
<polygon fill="midnightblue" stroke="midnightblue" points="1007.35,-174.5 1017.35,-171 1007.35,-167.5 1007.35,-174.5"/>
</g>
<!-- Node16&#45;&gt;Node14 -->
<g id="edge16" class="edge"><title>Node16&#45;&gt;Node14</title>
<path fill="none" stroke="midnightblue" d="M753.774,-184.504C771.541,-182.619 791.736,-180.475 810.721,-178.46"/>
<polygon fill="midnightblue" stroke="midnightblue" points="811.243,-181.924 820.818,-177.388 810.504,-174.963 811.243,-181.924"/>
</g>
<!-- Node17&#45;&gt;Node9 -->
<g id="edge18" class="edge"><title>Node17&#45;&gt;Node9</title>
<path fill="none" stroke="midnightblue" d="M757.166,-77.5605C781.148,-83.4553 809.005,-90.3029 832.218,-96.0089"/>
<polygon fill="midnightblue" stroke="midnightblue" points="831.644,-99.472 842.191,-98.4603 833.315,-92.6743 831.644,-99.472"/>
</g>
<!-- Node18 -->
<g id="node18" class="node"><title>Node18</title>
<g id="a_node18"><a xlink:href="classMWWorld_1_1Class.html#a5095a30e5baa5742b3d393610fd73d60" target="_top" xlink:title="MWWorld::Class::getCreature\lStats">
<polygon fill="white" stroke="black" points="811.5,-49 811.5,-79 952.5,-79 952.5,-49 811.5,-49"/>
<text text-anchor="start" x="819.5" y="-67" font-family="FreeSans" font-size="10.00">MWWorld::Class::getCreature</text>
<text text-anchor="middle" x="882" y="-56" font-family="FreeSans" font-size="10.00">Stats</text>
</a>
</g>
</g>
<!-- Node17&#45;&gt;Node18 -->
<g id="edge19" class="edge"><title>Node17&#45;&gt;Node18</title>
<path fill="none" stroke="midnightblue" d="M757.166,-64C771.105,-64 786.353,-64 801.237,-64"/>
<polygon fill="midnightblue" stroke="midnightblue" points="801.463,-67.5001 811.463,-64 801.463,-60.5001 801.463,-67.5001"/>
</g>
<!-- Node19 -->
<g id="node19" class="node"><title>Node19</title>
<g id="a_node19"><a xlink:href="classMWMechanics_1_1CreatureStats.html#a86a79f6bee0ab6ffc653bf89eaebc9d7" target="_top" xlink:title="MWMechanics::CreatureStats\l::getGoldPool">
<polygon fill="white" stroke="black" points="810,-0 810,-30 954,-30 954,-0 810,-0"/>
<text text-anchor="start" x="818" y="-18" font-family="FreeSans" font-size="10.00">MWMechanics::CreatureStats</text>
<text text-anchor="middle" x="882" y="-7" font-family="FreeSans" font-size="10.00">::getGoldPool</text>
</a>
</g>
</g>
<!-- Node17&#45;&gt;Node19 -->
<g id="edge20" class="edge"><title>Node17&#45;&gt;Node19</title>
<path fill="none" stroke="midnightblue" d="M757.166,-48.8986C775.884,-43.7747 796.963,-38.0044 816.353,-32.6968"/>
<polygon fill="midnightblue" stroke="midnightblue" points="817.295,-36.0677 826.016,-30.0516 815.446,-29.3161 817.295,-36.0677"/>
</g>
<!-- Node20&#45;&gt;Node4 -->
<g id="edge22" class="edge"><title>Node20&#45;&gt;Node4</title>
<path fill="none" stroke="midnightblue" d="M443.681,-176.387C452.354,-177.68 461.199,-178.999 469.801,-180.281"/>
<polygon fill="midnightblue" stroke="midnightblue" points="469.357,-183.753 479.764,-181.766 470.389,-176.83 469.357,-183.753"/>
</g>
<!-- Node22 -->
<g id="node22" class="node"><title>Node22</title>
<g id="a_node22"><a xlink:href="namespaceanonymous__namespace_02spellcreationdialog_8cpp_03.html#a614726d9f506e658de85fbd85e50a8fc" target="_top" xlink:title="anonymous_namespace\l\{spellcreationdialog\l::cpp\}::init">
<polygon fill="white" stroke="black" points="313,-91.5 313,-132.5 433,-132.5 433,-91.5 313,-91.5"/>
<text text-anchor="start" x="321" y="-120.5" font-family="FreeSans" font-size="10.00">anonymous_namespace</text>
<text text-anchor="start" x="321" y="-109.5" font-family="FreeSans" font-size="10.00">{spellcreationdialog</text>
<text text-anchor="middle" x="373" y="-98.5" font-family="FreeSans" font-size="10.00">::cpp}::init</text>
</a>
</g>
</g>
<!-- Node21&#45;&gt;Node22 -->
<g id="edge24" class="edge"><title>Node21&#45;&gt;Node22</title>
<path fill="none" stroke="midnightblue" d="M265.82,-112C277.708,-112 290.34,-112 302.589,-112"/>
<polygon fill="midnightblue" stroke="midnightblue" points="302.762,-115.5 312.762,-112 302.762,-108.5 302.762,-115.5"/>
</g>
</g>
</svg>
