<?xml version="1.0" encoding="UTF-8" standalone="no"?>
<!DOCTYPE svg PUBLIC "-//W3C//DTD SVG 1.1//EN"
 "http://www.w3.org/Graphics/SVG/1.1/DTD/svg11.dtd">
<!-- Generated by graphviz version 2.36.0 (20140111.2315)
 -->
<!-- Title: MWGui::LoadingScreen::getTargetFrameRate Pages: 1 -->
<svg width="646pt" height="136pt"
 viewBox="0.00 0.00 646.00 136.00" xmlns="http://www.w3.org/2000/svg" xmlns:xlink="http://www.w3.org/1999/xlink">
<g id="graph0" class="graph" transform="scale(1 1) rotate(0) translate(4 132)">
<title>MWGui::LoadingScreen::getTargetFrameRate</title>
<polygon fill="white" stroke="none" points="-4,4 -4,-132 642,-132 642,4 -4,4"/>
<!-- Node1 -->
<g id="node1" class="node"><title>Node1</title>
<polygon fill="#bfbfbf" stroke="black" points="0,-49 0,-79 126,-79 126,-49 0,-49"/>
<text text-anchor="start" x="8" y="-67" font-family="FreeSans" font-size="10.00">MWGui::LoadingScreen</text>
<text text-anchor="middle" x="63" y="-56" font-family="FreeSans" font-size="10.00">::getTargetFrameRate</text>
</g>
<!-- Node2 -->
<g id="node2" class="node"><title>Node2</title>
<g id="a_node2"><a xlink:href="classMWGui_1_1LoadingScreen.html#ae1a57a785cc4da791b5d866664563e90" target="_top" xlink:title="MWGui::LoadingScreen\l::needToDrawLoadingScreen">
<polygon fill="white" stroke="black" points="162,-49 162,-79 314,-79 314,-49 162,-49"/>
<text text-anchor="start" x="170" y="-67" font-family="FreeSans" font-size="10.00">MWGui::LoadingScreen</text>
<text text-anchor="middle" x="238" y="-56" font-family="FreeSans" font-size="10.00">::needToDrawLoadingScreen</text>
</a>
</g>
</g>
<!-- Node1&#45;&gt;Node2 -->
<g id="edge1" class="edge"><title>Node1&#45;&gt;Node2</title>
<path fill="none" stroke="midnightblue" d="M136.578,-64C144.966,-64 153.533,-64 161.953,-64"/>
<polygon fill="midnightblue" stroke="midnightblue" points="136.457,-60.5001 126.457,-64 136.457,-67.5001 136.457,-60.5001"/>
</g>
<!-- Node3 -->
<g id="node3" class="node"><title>Node3</title>
<g id="a_node3"><a xlink:href="classMWGui_1_1LoadingScreen.html#adae694b1eb024ac706cb76f01f7fcab8" target="_top" xlink:title="MWGui::LoadingScreen\l::draw">
<polygon fill="white" stroke="black" points="350,-49 350,-79 476,-79 476,-49 350,-49"/>
<text text-anchor="start" x="358" y="-67" font-family="FreeSans" font-size="10.00">MWGui::LoadingScreen</text>
<text text-anchor="middle" x="413" y="-56" font-family="FreeSans" font-size="10.00">::draw</text>
</a>
</g>
</g>
<!-- Node2&#45;&gt;Node3 -->
<g id="edge2" class="edge"><title>Node2&#45;&gt;Node3</title>
<path fill="none" stroke="midnightblue" d="M324.254,-64C332.906,-64 341.574,-64 349.913,-64"/>
<polygon fill="midnightblue" stroke="midnightblue" points="324.126,-60.5001 314.126,-64 324.126,-67.5001 324.126,-60.5001"/>
</g>
<!-- Node4 -->
<g id="node4" class="node"><title>Node4</title>
<g id="a_node4"><a xlink:href="classMWGui_1_1LoadingScreen.html#ac3e8b956d766cac817497e8aee0b964c" target="_top" xlink:title="MWGui::LoadingScreen\l::loadingOn">
<polygon fill="white" stroke="black" points="512,-98 512,-128 638,-128 638,-98 512,-98"/>
<text text-anchor="start" x="520" y="-116" font-family="FreeSans" font-size="10.00">MWGui::LoadingScreen</text>
<text text-anchor="middle" x="575" y="-105" font-family="FreeSans" font-size="10.00">::loadingOn</text>
</a>
</g>
</g>
<!-- Node3&#45;&gt;Node4 -->
<g id="edge3" class="edge"><title>Node3&#45;&gt;Node4</title>
<path fill="none" stroke="midnightblue" d="M473.144,-82.1129C490.154,-87.3222 508.516,-92.9457 524.852,-97.9484"/>
<polygon fill="midnightblue" stroke="midnightblue" points="473.897,-78.6832 463.311,-79.1014 471.848,-85.3763 473.897,-78.6832"/>
</g>
<!-- Node5 -->
<g id="node5" class="node"><title>Node5</title>
<g id="a_node5"><a xlink:href="classMWGui_1_1LoadingScreen.html#ac5d8f2a22257e77de55f8fffe6027678" target="_top" xlink:title="Set current progress. Valid range is [0, progressRange) ">
<polygon fill="white" stroke="black" points="512,-49 512,-79 638,-79 638,-49 512,-49"/>
<text text-anchor="start" x="520" y="-67" font-family="FreeSans" font-size="10.00">MWGui::LoadingScreen</text>
<text text-anchor="middle" x="575" y="-56" font-family="FreeSans" font-size="10.00">::setProgress</text>
</a>
</g>
</g>
<!-- Node3&#45;&gt;Node5 -->
<g id="edge4" class="edge"><title>Node3&#45;&gt;Node5</title>
<path fill="none" stroke="midnightblue" d="M486.545,-64C494.996,-64 503.559,-64 511.852,-64"/>
<polygon fill="midnightblue" stroke="midnightblue" points="486.318,-60.5001 476.318,-64 486.318,-67.5001 486.318,-60.5001"/>
</g>
<!-- Node6 -->
<g id="node6" class="node"><title>Node6</title>
<g id="a_node6"><a xlink:href="classMWGui_1_1LoadingScreen.html#abbfd4b22e86177609503264cc8300f9b" target="_top" xlink:title="Increase current progress, default by 1. ">
<polygon fill="white" stroke="black" points="512,-0 512,-30 638,-30 638,-0 512,-0"/>
<text text-anchor="start" x="520" y="-18" font-family="FreeSans" font-size="10.00">MWGui::LoadingScreen</text>
<text text-anchor="middle" x="575" y="-7" font-family="FreeSans" font-size="10.00">::increaseProgress</text>
</a>
</g>
</g>
<!-- Node3&#45;&gt;Node6 -->
<g id="edge5" class="edge"><title>Node3&#45;&gt;Node6</title>
<path fill="none" stroke="midnightblue" d="M473.144,-45.8871C490.154,-40.6778 508.516,-35.0543 524.852,-30.0516"/>
<polygon fill="midnightblue" stroke="midnightblue" points="471.848,-42.6237 463.311,-48.8986 473.897,-49.3168 471.848,-42.6237"/>
</g>
</g>
</svg>
