<?xml version="1.0" encoding="UTF-8" standalone="no"?>
<!DOCTYPE svg PUBLIC "-//W3C//DTD SVG 1.1//EN"
 "http://www.w3.org/Graphics/SVG/1.1/DTD/svg11.dtd">
<!-- Generated by graphviz version 2.36.0 (20140111.2315)
 -->
<!-- Title: MWMechanics::Spells::add Pages: 1 -->
<svg width="1088pt" height="814pt"
 viewBox="0.00 0.00 1088.00 813.94" xmlns="http://www.w3.org/2000/svg" xmlns:xlink="http://www.w3.org/1999/xlink">
<g id="graph0" class="graph" transform="scale(1 1) rotate(0) translate(4 809.935)">
<title>MWMechanics::Spells::add</title>
<polygon fill="white" stroke="none" points="-4,4 -4,-809.935 1084,-809.935 1084,4 -4,4"/>
<!-- Node1 -->
<g id="node1" class="node"><title>Node1</title>
<polygon fill="#bfbfbf" stroke="black" points="0.5,-213.5 0.5,-232.5 131.5,-232.5 131.5,-213.5 0.5,-213.5"/>
<text text-anchor="middle" x="66" y="-220.5" font-family="FreeSans" font-size="10.00">MWMechanics::Spells::add</text>
</g>
<!-- Node2 -->
<g id="node2" class="node"><title>Node2</title>
<g id="a_node2"><a xlink:href="namespaceanonymous__namespace_02npc_8cpp_03.html#a998e6a19cdcfc69ac766d4c91ea28de7" target="_top" xlink:title="autoCalculateSkills ">
<polygon fill="white" stroke="black" points="180,-525 180,-555 326,-555 326,-525 180,-525"/>
<text text-anchor="start" x="188" y="-543" font-family="FreeSans" font-size="10.00">anonymous_namespace</text>
<text text-anchor="middle" x="253" y="-532" font-family="FreeSans" font-size="10.00">{npc::cpp}::autoCalculateSkills</text>
</a>
</g>
</g>
<!-- Node1&#45;&gt;Node2 -->
<g id="edge1" class="edge"><title>Node1&#45;&gt;Node2</title>
<path fill="none" stroke="midnightblue" d="M75.7082,-241.676C92.3389,-276.893 130.328,-355.217 168,-418 191.948,-457.912 224.023,-502.373 240.762,-524.998"/>
<polygon fill="midnightblue" stroke="midnightblue" points="78.8476,-240.127 71.4285,-232.563 72.5116,-243.103 78.8476,-240.127"/>
</g>
<!-- Node21 -->
<g id="node21" class="node"><title>Node21</title>
<g id="a_node21"><a xlink:href="classMWGui_1_1SpellBuyingWindow.html#aa008c4ffe8315436f2587de21cfda03a" target="_top" xlink:title="MWGui::SpellBuyingWindow\l::onSpellButtonClick">
<polygon fill="white" stroke="black" points="184,-208 184,-238 322,-238 322,-208 184,-208"/>
<text text-anchor="start" x="192" y="-226" font-family="FreeSans" font-size="10.00">MWGui::SpellBuyingWindow</text>
<text text-anchor="middle" x="253" y="-215" font-family="FreeSans" font-size="10.00">::onSpellButtonClick</text>
</a>
</g>
</g>
<!-- Node1&#45;&gt;Node21 -->
<g id="edge29" class="edge"><title>Node1&#45;&gt;Node21</title>
<path fill="none" stroke="midnightblue" d="M141.731,-223C155.664,-223 170.155,-223 183.876,-223"/>
<polygon fill="midnightblue" stroke="midnightblue" points="141.704,-219.5 131.704,-223 141.704,-226.5 141.704,-219.5"/>
</g>
<!-- Node25 -->
<g id="node25" class="node"><title>Node25</title>
<g id="a_node25"><a xlink:href="classMWGui_1_1SpellCreationDialog.html#addf21d8221232811f27ed252cd130820" target="_top" xlink:title="MWGui::SpellCreationDialog\l::onBuyButtonClicked">
<polygon fill="white" stroke="black" points="184,-379 184,-409 322,-409 322,-379 184,-379"/>
<text text-anchor="start" x="192" y="-397" font-family="FreeSans" font-size="10.00">MWGui::SpellCreationDialog</text>
<text text-anchor="middle" x="253" y="-386" font-family="FreeSans" font-size="10.00">::onBuyButtonClicked</text>
</a>
</g>
</g>
<!-- Node1&#45;&gt;Node25 -->
<g id="edge34" class="edge"><title>Node1&#45;&gt;Node25</title>
<path fill="none" stroke="midnightblue" d="M82.3124,-240.343C101.53,-261.767 135.876,-298.938 168,-328 188.493,-346.539 213.586,-365.856 230.983,-378.764"/>
<polygon fill="midnightblue" stroke="midnightblue" points="84.7665,-237.837 75.4998,-232.7 79.541,-242.494 84.7665,-237.837"/>
</g>
<!-- Node27 -->
<g id="node27" class="node"><title>Node27</title>
<g id="a_node27"><a xlink:href="namespaceMWMechanics.html#a8ac7efdb8dfc6be15d264727f4ebdcf9" target="_top" xlink:title="MWMechanics::diseaseContact">
<polygon fill="white" stroke="black" points="177.5,-299.5 177.5,-318.5 328.5,-318.5 328.5,-299.5 177.5,-299.5"/>
<text text-anchor="middle" x="253" y="-306.5" font-family="FreeSans" font-size="10.00">MWMechanics::diseaseContact</text>
</a>
</g>
</g>
<!-- Node1&#45;&gt;Node27 -->
<g id="edge36" class="edge"><title>Node1&#45;&gt;Node27</title>
<path fill="none" stroke="midnightblue" d="M96.9654,-236.93C134.746,-254.493 198.701,-284.223 231.403,-299.425"/>
<polygon fill="midnightblue" stroke="midnightblue" points="98.0486,-233.574 87.5051,-232.532 95.0978,-239.921 98.0486,-233.574"/>
</g>
<!-- Node30 -->
<g id="node30" class="node"><title>Node30</title>
<g id="a_node30"><a xlink:href="classMWMechanics_1_1MechanicsManager.html#ac23cfdb32ea2282daf63c0c6f2f8b86e" target="_top" xlink:title="MWMechanics::MechanicsManager\l::buildPlayer">
<polygon fill="white" stroke="black" points="168.5,-137 168.5,-167 337.5,-167 337.5,-137 168.5,-137"/>
<text text-anchor="start" x="176.5" y="-155" font-family="FreeSans" font-size="10.00">MWMechanics::MechanicsManager</text>
<text text-anchor="middle" x="253" y="-144" font-family="FreeSans" font-size="10.00">::buildPlayer</text>
</a>
</g>
</g>
<!-- Node1&#45;&gt;Node30 -->
<g id="edge40" class="edge"><title>Node1&#45;&gt;Node30</title>
<path fill="none" stroke="midnightblue" d="M101.622,-209.713C133.147,-197.614 179.664,-179.761 212.6,-167.121"/>
<polygon fill="midnightblue" stroke="midnightblue" points="100.032,-206.574 91.9499,-213.425 102.54,-213.109 100.032,-206.574"/>
</g>
<!-- Node34 -->
<g id="node34" class="node"><title>Node34</title>
<g id="a_node34"><a xlink:href="classMWScript_1_1Stats_1_1OpAddSpell.html#a3b9ad92992484cbee12c3841d07042b0" target="_top" xlink:title="MWScript::Stats::OpAddSpell\l::execute">
<polygon fill="white" stroke="black" points="181.5,-88 181.5,-118 324.5,-118 324.5,-88 181.5,-88"/>
<text text-anchor="start" x="189.5" y="-106" font-family="FreeSans" font-size="10.00">MWScript::Stats::OpAddSpell</text>
<text text-anchor="middle" x="253" y="-95" font-family="FreeSans" font-size="10.00">::execute</text>
</a>
</g>
</g>
<!-- Node1&#45;&gt;Node34 -->
<g id="edge44" class="edge"><title>Node1&#45;&gt;Node34</title>
<path fill="none" stroke="midnightblue" d="M81.0094,-205.212C98.9351,-183.626 132.002,-147.571 168,-127 173.926,-123.614 180.364,-120.676 186.951,-118.135"/>
<polygon fill="midnightblue" stroke="midnightblue" points="78.0829,-203.264 74.4943,-213.232 83.5161,-207.677 78.0829,-203.264"/>
</g>
<!-- Node35 -->
<g id="node35" class="node"><title>Node35</title>
<g id="a_node35"><a xlink:href="classMWWorld_1_1Player.html#a876852950d456fe425dee2f51b24aad0" target="_top" xlink:title="MWWorld::Player::readRecord">
<polygon fill="white" stroke="black" points="181,-25.5 181,-44.5 325,-44.5 325,-25.5 181,-25.5"/>
<text text-anchor="middle" x="253" y="-32.5" font-family="FreeSans" font-size="10.00">MWWorld::Player::readRecord</text>
</a>
</g>
</g>
<!-- Node1&#45;&gt;Node35 -->
<g id="edge45" class="edge"><title>Node1&#45;&gt;Node35</title>
<path fill="none" stroke="midnightblue" d="M76.1122,-204.378C91.5116,-174.479 125.229,-115.344 168,-78 185.031,-63.1304 208.11,-51.7968 225.767,-44.5079"/>
<polygon fill="midnightblue" stroke="midnightblue" points="72.9792,-202.818 71.6055,-213.323 79.2306,-205.968 72.9792,-202.818"/>
</g>
<!-- Node3 -->
<g id="node3" class="node"><title>Node3</title>
<g id="a_node3"><a xlink:href="classMWClass_1_1Npc.html#ae30c8287ffac6a498be75704ab56b1ce" target="_top" xlink:title="MWClass::Npc::ensureCustomData">
<polygon fill="white" stroke="black" points="376.5,-559.5 376.5,-578.5 541.5,-578.5 541.5,-559.5 376.5,-559.5"/>
<text text-anchor="middle" x="459" y="-566.5" font-family="FreeSans" font-size="10.00">MWClass::Npc::ensureCustomData</text>
</a>
</g>
</g>
<!-- Node2&#45;&gt;Node3 -->
<g id="edge2" class="edge"><title>Node2&#45;&gt;Node3</title>
<path fill="none" stroke="midnightblue" d="M336.217,-551.688C354.418,-554.275 373.494,-556.987 391.004,-559.476"/>
<polygon fill="midnightblue" stroke="midnightblue" points="336.603,-548.207 326.21,-550.265 335.618,-555.138 336.603,-548.207"/>
</g>
<!-- Node4 -->
<g id="node4" class="node"><title>Node4</title>
<g id="a_node4"><a xlink:href="classMWClass_1_1Npc.html#a4e14fac84a2000f45324a8e49099d016" target="_top" xlink:title="Return creature stats. ">
<polygon fill="white" stroke="black" points="586,-646 586,-676 720,-676 720,-646 586,-646"/>
<text text-anchor="start" x="594" y="-664" font-family="FreeSans" font-size="10.00">MWClass::Npc::getCreature</text>
<text text-anchor="middle" x="653" y="-653" font-family="FreeSans" font-size="10.00">Stats</text>
</a>
</g>
</g>
<!-- Node3&#45;&gt;Node4 -->
<g id="edge3" class="edge"><title>Node3&#45;&gt;Node4</title>
<path fill="none" stroke="midnightblue" d="M489.504,-583.137C524.915,-600.105 584.052,-628.442 620.378,-645.848"/>
<polygon fill="midnightblue" stroke="midnightblue" points="490.715,-579.837 480.184,-578.672 487.69,-586.149 490.715,-579.837"/>
</g>
<!-- Node10 -->
<g id="node10" class="node"><title>Node10</title>
<g id="a_node10"><a xlink:href="classMWClass_1_1Npc.html#a0cc99909b3aa876f47b51f9a2f0787b8" target="_top" xlink:title="Return NPC stats. ">
<polygon fill="white" stroke="black" points="584.5,-588.5 584.5,-607.5 721.5,-607.5 721.5,-588.5 584.5,-588.5"/>
<text text-anchor="middle" x="653" y="-595.5" font-family="FreeSans" font-size="10.00">MWClass::Npc::getNpcStats</text>
</a>
</g>
</g>
<!-- Node3&#45;&gt;Node10 -->
<g id="edge9" class="edge"><title>Node3&#45;&gt;Node10</title>
<path fill="none" stroke="midnightblue" d="M533.18,-580.053C551.514,-582.822 571.027,-585.77 588.828,-588.458"/>
<polygon fill="midnightblue" stroke="midnightblue" points="533.545,-576.569 523.134,-578.536 532.499,-583.49 533.545,-576.569"/>
</g>
<!-- Node15 -->
<g id="node15" class="node"><title>Node15</title>
<g id="a_node15"><a xlink:href="classMWClass_1_1Npc.html#a280d9f4b1bbb5472e34d443b2e9d9a98" target="_top" xlink:title="Return container store. ">
<polygon fill="white" stroke="black" points="584,-445 584,-475 722,-475 722,-445 584,-445"/>
<text text-anchor="start" x="592" y="-463" font-family="FreeSans" font-size="10.00">MWClass::Npc::getContainer</text>
<text text-anchor="middle" x="653" y="-452" font-family="FreeSans" font-size="10.00">Store</text>
</a>
</g>
</g>
<!-- Node3&#45;&gt;Node15 -->
<g id="edge18" class="edge"><title>Node3&#45;&gt;Node15</title>
<path fill="none" stroke="midnightblue" d="M486.072,-554.199C522.553,-533.488 588.482,-496.06 625.298,-475.159"/>
<polygon fill="midnightblue" stroke="midnightblue" points="484.007,-551.346 477.039,-559.327 487.463,-557.434 484.007,-551.346"/>
</g>
<!-- Node17 -->
<g id="node17" class="node"><title>Node17</title>
<g id="a_node17"><a xlink:href="classMWClass_1_1Npc.html#a2eecffbe33c55f587deef2c02fe74284" target="_top" xlink:title="Return inventory store. ">
<polygon fill="white" stroke="black" points="585,-529 585,-559 721,-559 721,-529 585,-529"/>
<text text-anchor="start" x="593" y="-547" font-family="FreeSans" font-size="10.00">MWClass::Npc::getInventory</text>
<text text-anchor="middle" x="653" y="-536" font-family="FreeSans" font-size="10.00">Store</text>
</a>
</g>
</g>
<!-- Node3&#45;&gt;Node17 -->
<g id="edge20" class="edge"><title>Node3&#45;&gt;Node17</title>
<path fill="none" stroke="midnightblue" d="M502.911,-557.68C527.023,-553.507 557.652,-549.273 584.868,-546.27"/>
<polygon fill="midnightblue" stroke="midnightblue" points="502.229,-554.246 493.006,-559.46 503.468,-561.136 502.229,-554.246"/>
</g>
<!-- Node19 -->
<g id="node19" class="node"><title>Node19</title>
<g id="a_node19"><a xlink:href="classMWClass_1_1Npc.html#a0eb8ea9da7025a9869a92dd3e7e1369d" target="_top" xlink:title="Return desired movement. ">
<polygon fill="white" stroke="black" points="582,-771 582,-801 724,-801 724,-771 582,-771"/>
<text text-anchor="start" x="590" y="-789" font-family="FreeSans" font-size="10.00">MWClass::Npc::getMovement</text>
<text text-anchor="middle" x="653" y="-778" font-family="FreeSans" font-size="10.00">Settings</text>
</a>
</g>
</g>
<!-- Node3&#45;&gt;Node19 -->
<g id="edge26" class="edge"><title>Node3&#45;&gt;Node19</title>
<path fill="none" stroke="midnightblue" d="M470.766,-587.534C490,-619.685 532.71,-686.866 580,-734 594.197,-748.15 612.542,-761.339 627.162,-770.893"/>
<polygon fill="midnightblue" stroke="midnightblue" points="473.671,-585.571 465.571,-578.742 467.644,-589.132 473.671,-585.571"/>
</g>
<!-- Node20 -->
<g id="node20" class="node"><title>Node20</title>
<g id="a_node20"><a xlink:href="classMWClass_1_1Npc.html#a77edc502f00b53fd6acd913cb1aa6af2" target="_top" xlink:title="Read additional state from state into ptr. ">
<polygon fill="white" stroke="black" points="580.5,-695 580.5,-725 725.5,-725 725.5,-695 580.5,-695"/>
<text text-anchor="start" x="588.5" y="-713" font-family="FreeSans" font-size="10.00">MWClass::Npc::readAdditional</text>
<text text-anchor="middle" x="653" y="-702" font-family="FreeSans" font-size="10.00">State</text>
</a>
</g>
</g>
<!-- Node3&#45;&gt;Node20 -->
<g id="edge28" class="edge"><title>Node3&#45;&gt;Node20</title>
<path fill="none" stroke="midnightblue" d="M473.77,-586.46C494.386,-611.532 535.621,-657.71 580,-685 586.087,-688.743 592.809,-692.019 599.628,-694.859"/>
<polygon fill="midnightblue" stroke="midnightblue" points="476.375,-584.115 467.367,-578.538 470.931,-588.515 476.375,-584.115"/>
</g>
<!-- Node5 -->
<g id="node5" class="node"><title>Node5</title>
<g id="a_node5"><a xlink:href="classMWClass_1_1Npc.html#ada4bd30292b7cd8588ecb21915d5c8ce" target="_top" xlink:title="MWClass::Npc::onHit">
<polygon fill="white" stroke="black" points="964,-585.5 964,-604.5 1070,-604.5 1070,-585.5 964,-585.5"/>
<text text-anchor="middle" x="1017" y="-592.5" font-family="FreeSans" font-size="10.00">MWClass::Npc::onHit</text>
</a>
</g>
</g>
<!-- Node4&#45;&gt;Node5 -->
<g id="edge4" class="edge"><title>Node4&#45;&gt;Node5</title>
<path fill="none" stroke="midnightblue" d="M730.262,-662.472C783.649,-661.756 856.194,-657.259 918,-641 948.718,-632.919 981.588,-615.46 1000.38,-604.527"/>
<polygon fill="midnightblue" stroke="midnightblue" points="730.154,-658.973 720.187,-662.565 730.219,-665.972 730.154,-658.973"/>
</g>
<!-- Node6 -->
<g id="node6" class="node"><title>Node6</title>
<g id="a_node6"><a xlink:href="classMWClass_1_1Npc.html#a0a163cd7a793722b0abd5c01f33cd0a9" target="_top" xlink:title="Generate action for activation. ">
<polygon fill="white" stroke="black" points="781.5,-765.5 781.5,-784.5 898.5,-784.5 898.5,-765.5 781.5,-765.5"/>
<text text-anchor="middle" x="840" y="-772.5" font-family="FreeSans" font-size="10.00">MWClass::Npc::activate</text>
</a>
</g>
</g>
<!-- Node4&#45;&gt;Node6 -->
<g id="edge5" class="edge"><title>Node4&#45;&gt;Node6</title>
<path fill="none" stroke="midnightblue" d="M719.905,-681.312C722.035,-682.77 724.077,-684.33 726,-686 752.417,-708.936 734.554,-734.307 762,-756 767.725,-760.525 774.38,-763.991 781.335,-766.642"/>
<polygon fill="midnightblue" stroke="midnightblue" points="721.687,-678.3 711.306,-676.185 718.102,-684.313 721.687,-678.3"/>
</g>
<!-- Node7 -->
<g id="node7" class="node"><title>Node7</title>
<g id="a_node7"><a xlink:href="classMWClass_1_1Npc.html#a9665d52b2f42bd557a1fd0f2e17c163d" target="_top" xlink:title="MWClass::Npc::getCapacity">
<polygon fill="white" stroke="black" points="773,-727.5 773,-746.5 907,-746.5 907,-727.5 773,-727.5"/>
<text text-anchor="middle" x="840" y="-734.5" font-family="FreeSans" font-size="10.00">MWClass::Npc::getCapacity</text>
</a>
</g>
</g>
<!-- Node4&#45;&gt;Node7 -->
<g id="edge6" class="edge"><title>Node4&#45;&gt;Node7</title>
<path fill="none" stroke="midnightblue" d="M714.703,-680.093C718.604,-681.923 722.405,-683.891 726,-686 744.466,-696.83 743.054,-708.033 762,-718 769.311,-721.846 777.425,-724.933 785.564,-727.406"/>
<polygon fill="midnightblue" stroke="midnightblue" points="716.033,-676.855 705.468,-676.07 713.238,-683.272 716.033,-676.855"/>
</g>
<!-- Node8 -->
<g id="node8" class="node"><title>Node8</title>
<g id="a_node8"><a xlink:href="classMWClass_1_1Npc.html#acaf825c7d2108eb7707911c1abf97284" target="_top" xlink:title="Return movement speed. ">
<polygon fill="white" stroke="black" points="954.5,-727.5 954.5,-746.5 1079.5,-746.5 1079.5,-727.5 954.5,-727.5"/>
<text text-anchor="middle" x="1017" y="-734.5" font-family="FreeSans" font-size="10.00">MWClass::Npc::getSpeed</text>
</a>
</g>
</g>
<!-- Node7&#45;&gt;Node8 -->
<g id="edge7" class="edge"><title>Node7&#45;&gt;Node8</title>
<path fill="none" stroke="midnightblue" d="M917.437,-737C929.782,-737 942.425,-737 954.363,-737"/>
<polygon fill="midnightblue" stroke="midnightblue" points="917.16,-733.5 907.16,-737 917.16,-740.5 917.16,-733.5"/>
</g>
<!-- Node9 -->
<g id="node9" class="node"><title>Node9</title>
<g id="a_node9"><a xlink:href="classMWClass_1_1Npc.html#a9a9f4191138f024f027fff003aac080d" target="_top" xlink:title="Return jump velocity (not accounting for movement) ">
<polygon fill="white" stroke="black" points="956.5,-689.5 956.5,-708.5 1077.5,-708.5 1077.5,-689.5 956.5,-689.5"/>
<text text-anchor="middle" x="1017" y="-696.5" font-family="FreeSans" font-size="10.00">MWClass::Npc::getJump</text>
</a>
</g>
</g>
<!-- Node7&#45;&gt;Node9 -->
<g id="edge8" class="edge"><title>Node7&#45;&gt;Node9</title>
<path fill="none" stroke="midnightblue" d="M895.124,-725.247C919.869,-719.874 948.803,-713.591 972.158,-708.52"/>
<polygon fill="midnightblue" stroke="midnightblue" points="894.189,-721.869 885.16,-727.411 895.675,-728.709 894.189,-721.869"/>
</g>
<!-- Node11 -->
<g id="node11" class="node"><title>Node11</title>
<g id="a_node11"><a xlink:href="classMWClass_1_1Npc.html#ac36db52e4617b06043a71d0c13b41cb2" target="_top" xlink:title="MWClass::Npc::getEncumbrance">
<polygon fill="white" stroke="black" points="762,-689.5 762,-708.5 918,-708.5 918,-689.5 762,-689.5"/>
<text text-anchor="middle" x="840" y="-696.5" font-family="FreeSans" font-size="10.00">MWClass::Npc::getEncumbrance</text>
</a>
</g>
</g>
<!-- Node10&#45;&gt;Node11 -->
<g id="edge10" class="edge"><title>Node10&#45;&gt;Node11</title>
<path fill="none" stroke="midnightblue" d="M680.604,-612.366C694.196,-619.717 710.991,-628.818 726,-637 759.793,-655.423 799.187,-677.078 821.4,-689.305"/>
<polygon fill="midnightblue" stroke="midnightblue" points="682.229,-609.266 671.768,-607.59 678.9,-615.424 682.229,-609.266"/>
</g>
<!-- Node12 -->
<g id="node12" class="node"><title>Node12</title>
<g id="a_node12"><a xlink:href="classMWClass_1_1Npc.html#ae836c8c30107fe0214c28fbb03b2c083" target="_top" xlink:title="Inform actor ptr that a skill use has succeeded. ">
<polygon fill="white" stroke="black" points="776.5,-602 776.5,-632 903.5,-632 903.5,-602 776.5,-602"/>
<text text-anchor="start" x="784.5" y="-620" font-family="FreeSans" font-size="10.00">MWClass::Npc::skillUsage</text>
<text text-anchor="middle" x="840" y="-609" font-family="FreeSans" font-size="10.00">Succeeded</text>
</a>
</g>
</g>
<!-- Node10&#45;&gt;Node12 -->
<g id="edge13" class="edge"><title>Node10&#45;&gt;Node12</title>
<path fill="none" stroke="midnightblue" d="M731.741,-605.984C746.573,-607.508 761.926,-609.084 776.219,-610.552"/>
<polygon fill="midnightblue" stroke="midnightblue" points="731.88,-602.48 721.575,-604.94 731.165,-609.444 731.88,-602.48"/>
</g>
<!-- Node14 -->
<g id="node14" class="node"><title>Node14</title>
<g id="a_node14"><a xlink:href="classMWClass_1_1Npc.html#a5aaab955c03754b78b3f3e2cec1e6737" target="_top" xlink:title="MWClass::Npc::getArmorRating">
<polygon fill="white" stroke="black" points="764.5,-563.5 764.5,-582.5 915.5,-582.5 915.5,-563.5 764.5,-563.5"/>
<text text-anchor="middle" x="840" y="-570.5" font-family="FreeSans" font-size="10.00">MWClass::Npc::getArmorRating</text>
</a>
</g>
</g>
<!-- Node10&#45;&gt;Node14 -->
<g id="edge16" class="edge"><title>Node10&#45;&gt;Node14</title>
<path fill="none" stroke="midnightblue" d="M731.721,-587.497C743.922,-585.848 756.475,-584.152 768.501,-582.527"/>
<polygon fill="midnightblue" stroke="midnightblue" points="731.016,-584.061 721.575,-588.868 731.953,-590.998 731.016,-584.061"/>
</g>
<!-- Node11&#45;&gt;Node8 -->
<g id="edge11" class="edge"><title>Node11&#45;&gt;Node8</title>
<path fill="none" stroke="midnightblue" d="M895.124,-710.753C919.869,-716.126 948.803,-722.409 972.158,-727.48"/>
<polygon fill="midnightblue" stroke="midnightblue" points="895.675,-707.291 885.16,-708.589 894.189,-714.131 895.675,-707.291"/>
</g>
<!-- Node11&#45;&gt;Node9 -->
<g id="edge12" class="edge"><title>Node11&#45;&gt;Node9</title>
<path fill="none" stroke="midnightblue" d="M928.286,-699C937.775,-699 947.267,-699 956.316,-699"/>
<polygon fill="midnightblue" stroke="midnightblue" points="928.012,-695.5 918.012,-699 928.012,-702.5 928.012,-695.5"/>
</g>
<!-- Node12&#45;&gt;Node5 -->
<g id="edge15" class="edge"><title>Node12&#45;&gt;Node5</title>
<path fill="none" stroke="midnightblue" d="M913.989,-607.824C930.726,-605.72 948.191,-603.525 963.843,-601.557"/>
<polygon fill="midnightblue" stroke="midnightblue" points="913.17,-604.4 903.685,-609.12 914.043,-611.345 913.17,-604.4"/>
</g>
<!-- Node13 -->
<g id="node13" class="node"><title>Node13</title>
<g id="a_node13"><a xlink:href="classMWClass_1_1Npc.html#a5d266109da673f7fa11d213cb88dfc36" target="_top" xlink:title="MWClass::Npc::hit">
<polygon fill="white" stroke="black" points="970,-437.5 970,-456.5 1064,-456.5 1064,-437.5 970,-437.5"/>
<text text-anchor="middle" x="1017" y="-444.5" font-family="FreeSans" font-size="10.00">MWClass::Npc::hit</text>
</a>
</g>
</g>
<!-- Node12&#45;&gt;Node13 -->
<g id="edge14" class="edge"><title>Node12&#45;&gt;Node13</title>
<path fill="none" stroke="midnightblue" d="M910.095,-597.244C912.848,-595.628 915.498,-593.883 918,-592 968.252,-554.178 1001.31,-482.717 1012.13,-456.746"/>
<polygon fill="midnightblue" stroke="midnightblue" points="908.258,-594.255 901.007,-601.98 911.493,-600.463 908.258,-594.255"/>
</g>
<!-- Node14&#45;&gt;Node5 -->
<g id="edge17" class="edge"><title>Node14&#45;&gt;Node5</title>
<path fill="none" stroke="midnightblue" d="M925.685,-583.646C938.759,-585.29 951.917,-586.944 963.989,-588.462"/>
<polygon fill="midnightblue" stroke="midnightblue" points="926.082,-580.169 915.723,-582.394 925.209,-587.114 926.082,-580.169"/>
</g>
<!-- Node16 -->
<g id="node16" class="node"><title>Node16</title>
<g id="a_node16"><a xlink:href="classMWClass_1_1Npc.html#a9bef24d9ffe1607742142bae9163deee" target="_top" xlink:title="MWClass::Npc::restock">
<polygon fill="white" stroke="black" points="782.5,-399.5 782.5,-418.5 897.5,-418.5 897.5,-399.5 782.5,-399.5"/>
<text text-anchor="middle" x="840" y="-406.5" font-family="FreeSans" font-size="10.00">MWClass::Npc::restock</text>
</a>
</g>
</g>
<!-- Node15&#45;&gt;Node16 -->
<g id="edge19" class="edge"><title>Node15&#45;&gt;Node16</title>
<path fill="none" stroke="midnightblue" d="M718.15,-442.315C747.109,-434.332 780.172,-425.217 804.386,-418.542"/>
<polygon fill="midnightblue" stroke="midnightblue" points="717.216,-438.942 708.506,-444.974 719.076,-445.691 717.216,-438.942"/>
</g>
<!-- Node17&#45;&gt;Node3 -->
<g id="edge21" class="edge"><title>Node17&#45;&gt;Node3</title>
<path fill="none" stroke="midnightblue" d="M575.861,-560.534C564.637,-562.144 553.035,-563.676 541.704,-565.045"/>
<polygon fill="midnightblue" stroke="midnightblue" points="576.66,-563.954 586.044,-559.035 575.641,-557.029 576.66,-563.954"/>
</g>
<!-- Node17&#45;&gt;Node5 -->
<g id="edge23" class="edge"><title>Node17&#45;&gt;Node5</title>
<path fill="none" stroke="midnightblue" d="M731.05,-539.73C784.2,-538.526 856.145,-540.36 918,-554 947.537,-560.514 979.449,-575.508 998.571,-585.444"/>
<polygon fill="midnightblue" stroke="midnightblue" points="730.919,-536.232 721.016,-539.998 731.106,-543.229 730.919,-536.232"/>
</g>
<!-- Node17&#45;&gt;Node13 -->
<g id="edge22" class="edge"><title>Node17&#45;&gt;Node13</title>
<path fill="none" stroke="midnightblue" d="M676.703,-521.753C697.16,-503.243 729.011,-478.045 762,-466 831.161,-440.748 917.803,-440.306 969.931,-443.084"/>
<polygon fill="midnightblue" stroke="midnightblue" points="674.137,-519.359 669.183,-528.724 678.896,-524.493 674.137,-519.359"/>
</g>
<!-- Node17&#45;&gt;Node14 -->
<g id="edge24" class="edge"><title>Node17&#45;&gt;Node14</title>
<path fill="none" stroke="midnightblue" d="M731.266,-556.112C746.974,-558.574 763.284,-561.131 778.318,-563.488"/>
<polygon fill="midnightblue" stroke="midnightblue" points="731.472,-552.602 721.051,-554.511 730.388,-559.517 731.472,-552.602"/>
</g>
<!-- Node18 -->
<g id="node18" class="node"><title>Node18</title>
<g id="a_node18"><a xlink:href="classMWClass_1_1Npc.html#ae64fa6b9a127eded92227a43503d4527" target="_top" xlink:title="Returns the sound ID for ptr of the given soundgen type. ">
<polygon fill="white" stroke="black" points="773.5,-476 773.5,-506 906.5,-506 906.5,-476 773.5,-476"/>
<text text-anchor="start" x="781.5" y="-494" font-family="FreeSans" font-size="10.00">MWClass::Npc::getSoundId</text>
<text text-anchor="middle" x="840" y="-483" font-family="FreeSans" font-size="10.00">FromSndGen</text>
</a>
</g>
</g>
<!-- Node17&#45;&gt;Node18 -->
<g id="edge25" class="edge"><title>Node17&#45;&gt;Node18</title>
<path fill="none" stroke="midnightblue" d="M716.405,-526.122C739.124,-519.613 764.561,-512.326 786.35,-506.084"/>
<polygon fill="midnightblue" stroke="midnightblue" points="715.168,-522.835 706.519,-528.954 717.096,-529.565 715.168,-522.835"/>
</g>
<!-- Node19&#45;&gt;Node8 -->
<g id="edge27" class="edge"><title>Node19&#45;&gt;Node8</title>
<path fill="none" stroke="midnightblue" d="M734.243,-800.365C787.303,-806.976 857.899,-810.207 918,-794 952.207,-784.776 986.76,-760.343 1004.26,-746.649"/>
<polygon fill="midnightblue" stroke="midnightblue" points="734.58,-796.879 724.21,-799.049 733.67,-803.82 734.58,-796.879"/>
</g>
<!-- Node22 -->
<g id="node22" class="node"><title>Node22</title>
<g id="a_node22"><a xlink:href="classMWGui_1_1SpellBuyingWindow.html#a5d6d01f89e9feb74a6f78032d38836a5" target="_top" xlink:title="MWGui::SpellBuyingWindow\l::addSpell">
<polygon fill="white" stroke="black" points="390,-186 390,-216 528,-216 528,-186 390,-186"/>
<text text-anchor="start" x="398" y="-204" font-family="FreeSans" font-size="10.00">MWGui::SpellBuyingWindow</text>
<text text-anchor="middle" x="459" y="-193" font-family="FreeSans" font-size="10.00">::addSpell</text>
</a>
</g>
</g>
<!-- Node21&#45;&gt;Node22 -->
<g id="edge30" class="edge"><title>Node21&#45;&gt;Node22</title>
<path fill="none" stroke="midnightblue" d="M332.31,-214.555C351.275,-212.51 371.397,-210.34 389.852,-208.349"/>
<polygon fill="midnightblue" stroke="midnightblue" points="331.78,-211.092 322.213,-215.644 332.53,-218.051 331.78,-211.092"/>
</g>
<!-- Node23 -->
<g id="node23" class="node"><title>Node23</title>
<g id="a_node23"><a xlink:href="classMWGui_1_1SpellBuyingWindow.html#a14ba9df9d80a5f81db505abd3869999c" target="_top" xlink:title="MWGui::SpellBuyingWindow\l::startSpellBuying">
<polygon fill="white" stroke="black" points="584,-208 584,-238 722,-238 722,-208 584,-208"/>
<text text-anchor="start" x="592" y="-226" font-family="FreeSans" font-size="10.00">MWGui::SpellBuyingWindow</text>
<text text-anchor="middle" x="653" y="-215" font-family="FreeSans" font-size="10.00">::startSpellBuying</text>
</a>
</g>
</g>
<!-- Node22&#45;&gt;Node23 -->
<g id="edge31" class="edge"><title>Node22&#45;&gt;Node23</title>
<path fill="none" stroke="midnightblue" d="M538.551,-210.001C553.621,-211.727 569.284,-213.522 583.987,-215.207"/>
<polygon fill="midnightblue" stroke="midnightblue" points="538.566,-206.48 528.233,-208.818 537.769,-213.434 538.566,-206.48"/>
</g>
<!-- Node23&#45;&gt;Node21 -->
<g id="edge32" class="edge"><title>Node23&#45;&gt;Node21</title>
<path fill="none" stroke="midnightblue" d="M573.456,-224.625C563.54,-224.78 553.534,-224.912 544,-225 468.448,-225.699 449.553,-225.63 374,-225 357.227,-224.86 339.138,-224.611 322.217,-224.334"/>
<polygon fill="midnightblue" stroke="midnightblue" points="573.791,-228.12 583.732,-224.456 573.676,-221.121 573.791,-228.12"/>
</g>
<!-- Node24 -->
<g id="node24" class="node"><title>Node24</title>
<g id="a_node24"><a xlink:href="classMWGui_1_1WindowManager.html#a0d6f0bf76209bdcc312f2fc983b1b542" target="_top" xlink:title="MWGui::WindowManager\l::startSpellBuying">
<polygon fill="white" stroke="black" points="777.5,-208 777.5,-238 902.5,-238 902.5,-208 777.5,-208"/>
<text text-anchor="start" x="785.5" y="-226" font-family="FreeSans" font-size="10.00">MWGui::WindowManager</text>
<text text-anchor="middle" x="840" y="-215" font-family="FreeSans" font-size="10.00">::startSpellBuying</text>
</a>
</g>
</g>
<!-- Node23&#45;&gt;Node24 -->
<g id="edge33" class="edge"><title>Node23&#45;&gt;Node24</title>
<path fill="none" stroke="midnightblue" d="M732.421,-223C747.476,-223 763.041,-223 777.47,-223"/>
<polygon fill="midnightblue" stroke="midnightblue" points="732.099,-219.5 722.099,-223 732.099,-226.5 732.099,-219.5"/>
</g>
<!-- Node26 -->
<g id="node26" class="node"><title>Node26</title>
<g id="a_node26"><a xlink:href="classMWGui_1_1SpellCreationDialog.html#a6cfc2eb5e51c4dac3281341dbf738d5a" target="_top" xlink:title="MWGui::SpellCreationDialog\l::SpellCreationDialog">
<polygon fill="white" stroke="black" points="390,-400 390,-430 528,-430 528,-400 390,-400"/>
<text text-anchor="start" x="398" y="-418" font-family="FreeSans" font-size="10.00">MWGui::SpellCreationDialog</text>
<text text-anchor="middle" x="459" y="-407" font-family="FreeSans" font-size="10.00">::SpellCreationDialog</text>
</a>
</g>
</g>
<!-- Node25&#45;&gt;Node26 -->
<g id="edge35" class="edge"><title>Node25&#45;&gt;Node26</title>
<path fill="none" stroke="midnightblue" d="M332.31,-402.061C351.275,-404.014 371.397,-406.085 389.852,-407.985"/>
<polygon fill="midnightblue" stroke="midnightblue" points="332.519,-398.564 322.213,-401.022 331.802,-405.528 332.519,-398.564"/>
</g>
<!-- Node27&#45;&gt;Node13 -->
<g id="edge38" class="edge"><title>Node27&#45;&gt;Node13</title>
<path fill="none" stroke="midnightblue" d="M284.395,-322.52C308.259,-332.485 342.591,-345.407 374,-352 611.197,-401.791 686.335,-318.776 918,-390 951.676,-400.353 986.171,-424.096 1003.88,-437.442"/>
<polygon fill="midnightblue" stroke="midnightblue" points="285.734,-319.286 275.162,-318.594 282.995,-325.728 285.734,-319.286"/>
</g>
<!-- Node28 -->
<g id="node28" class="node"><title>Node28</title>
<g id="a_node28"><a xlink:href="classMWClass_1_1Creature.html#a54d172e02be3b6889d639f23b48add5d" target="_top" xlink:title="MWClass::Creature::hit">
<polygon fill="white" stroke="black" points="402.5,-323.5 402.5,-342.5 515.5,-342.5 515.5,-323.5 402.5,-323.5"/>
<text text-anchor="middle" x="459" y="-330.5" font-family="FreeSans" font-size="10.00">MWClass::Creature::hit</text>
</a>
</g>
</g>
<!-- Node27&#45;&gt;Node28 -->
<g id="edge37" class="edge"><title>Node27&#45;&gt;Node28</title>
<path fill="none" stroke="midnightblue" d="M338.616,-318.955C360.077,-321.48 382.597,-324.129 402.221,-326.438"/>
<polygon fill="midnightblue" stroke="midnightblue" points="338.855,-315.459 328.515,-317.766 338.037,-322.411 338.855,-315.459"/>
</g>
<!-- Node29 -->
<g id="node29" class="node"><title>Node29</title>
<g id="a_node29"><a xlink:href="classMWWorld_1_1ActionOpen.html#a97b47ff9d6084b3c0af76838551f8d5c" target="_top" xlink:title="MWWorld::ActionOpen\l::executeImp">
<polygon fill="white" stroke="black" points="402,-274 402,-304 516,-304 516,-274 402,-274"/>
<text text-anchor="start" x="410" y="-292" font-family="FreeSans" font-size="10.00">MWWorld::ActionOpen</text>
<text text-anchor="middle" x="459" y="-281" font-family="FreeSans" font-size="10.00">::executeImp</text>
</a>
</g>
</g>
<!-- Node27&#45;&gt;Node29 -->
<g id="edge39" class="edge"><title>Node27&#45;&gt;Node29</title>
<path fill="none" stroke="midnightblue" d="M338.568,-300.709C359.928,-298.615 382.338,-296.418 401.902,-294.5"/>
<polygon fill="midnightblue" stroke="midnightblue" points="338.125,-297.236 328.515,-301.695 338.808,-304.202 338.125,-297.236"/>
</g>
<!-- Node31 -->
<g id="node31" class="node"><title>Node31</title>
<g id="a_node31"><a xlink:href="classMWMechanics_1_1MechanicsManager.html#aa4cff5ce8c7bbf3db175e9ef1ed03340" target="_top" xlink:title="Set player race. ">
<polygon fill="white" stroke="black" points="374.5,-39 374.5,-69 543.5,-69 543.5,-39 374.5,-39"/>
<text text-anchor="start" x="382.5" y="-57" font-family="FreeSans" font-size="10.00">MWMechanics::MechanicsManager</text>
<text text-anchor="middle" x="459" y="-46" font-family="FreeSans" font-size="10.00">::setPlayerRace</text>
</a>
</g>
</g>
<!-- Node30&#45;&gt;Node31 -->
<g id="edge41" class="edge"><title>Node30&#45;&gt;Node31</title>
<path fill="none" stroke="midnightblue" d="M329.384,-132.351C332.375,-130.706 335.262,-128.926 338,-127 360.1,-111.448 351.815,-93.4306 374,-78 378.98,-74.5358 384.455,-71.5683 390.148,-69.0267"/>
<polygon fill="midnightblue" stroke="midnightblue" points="327.577,-129.339 320.144,-136.889 330.663,-135.622 327.577,-129.339"/>
</g>
<!-- Node32 -->
<g id="node32" class="node"><title>Node32</title>
<g id="a_node32"><a xlink:href="classMWMechanics_1_1MechanicsManager.html#a8bb81b01284b91cf17ad6245805ad1c4" target="_top" xlink:title="Set player birthsign. ">
<polygon fill="white" stroke="black" points="374.5,-137 374.5,-167 543.5,-167 543.5,-137 374.5,-137"/>
<text text-anchor="start" x="382.5" y="-155" font-family="FreeSans" font-size="10.00">MWMechanics::MechanicsManager</text>
<text text-anchor="middle" x="459" y="-144" font-family="FreeSans" font-size="10.00">::setPlayerBirthsign</text>
</a>
</g>
</g>
<!-- Node30&#45;&gt;Node32 -->
<g id="edge42" class="edge"><title>Node30&#45;&gt;Node32</title>
<path fill="none" stroke="midnightblue" d="M347.845,-152C356.649,-152 365.534,-152 374.237,-152"/>
<polygon fill="midnightblue" stroke="midnightblue" points="347.563,-148.5 337.563,-152 347.563,-155.5 347.563,-148.5"/>
</g>
<!-- Node33 -->
<g id="node33" class="node"><title>Node33</title>
<g id="a_node33"><a xlink:href="classMWMechanics_1_1MechanicsManager.html#a466d672ca027794db3b1f0cb889bb3d9" target="_top" xlink:title="Set player class to stock class. ">
<polygon fill="white" stroke="black" points="374.5,-88 374.5,-118 543.5,-118 543.5,-88 374.5,-88"/>
<text text-anchor="start" x="382.5" y="-106" font-family="FreeSans" font-size="10.00">MWMechanics::MechanicsManager</text>
<text text-anchor="middle" x="459" y="-95" font-family="FreeSans" font-size="10.00">::setPlayerClass</text>
</a>
</g>
</g>
<!-- Node30&#45;&gt;Node33 -->
<g id="edge43" class="edge"><title>Node30&#45;&gt;Node33</title>
<path fill="none" stroke="midnightblue" d="M326.457,-134.596C349.024,-129.176 373.702,-123.248 395.525,-118.006"/>
<polygon fill="midnightblue" stroke="midnightblue" points="325.499,-131.227 316.593,-136.965 327.134,-138.033 325.499,-131.227"/>
</g>
<!-- Node36 -->
<g id="node36" class="node"><title>Node36</title>
<g id="a_node36"><a xlink:href="classMWWorld_1_1World.html#a0d6a6ff17c2e24cc04dc6a5d0267b25a" target="_top" xlink:title="MWWorld::World::readRecord">
<polygon fill="white" stroke="black" points="388,-0.5 388,-19.5 530,-19.5 530,-0.5 388,-0.5"/>
<text text-anchor="middle" x="459" y="-7.5" font-family="FreeSans" font-size="10.00">MWWorld::World::readRecord</text>
</a>
</g>
</g>
<!-- Node35&#45;&gt;Node36 -->
<g id="edge46" class="edge"><title>Node35&#45;&gt;Node36</title>
<path fill="none" stroke="midnightblue" d="M335.211,-25.0477C352.639,-22.9118 370.914,-20.6723 387.88,-18.5931"/>
<polygon fill="midnightblue" stroke="midnightblue" points="334.563,-21.6008 325.063,-26.2913 335.414,-28.5488 334.563,-21.6008"/>
</g>
</g>
</svg>
