<?xml version="1.0" encoding="UTF-8" standalone="no"?>
<!DOCTYPE svg PUBLIC "-//W3C//DTD SVG 1.1//EN"
 "http://www.w3.org/Graphics/SVG/1.1/DTD/svg11.dtd">
<!-- Generated by graphviz version 2.36.0 (20140111.2315)
 -->
<!-- Title: MWWorld::InventoryStore::purgeEffect Pages: 1 -->
<svg width="1160pt" height="185pt"
 viewBox="0.00 0.00 1160.00 185.00" xmlns="http://www.w3.org/2000/svg" xmlns:xlink="http://www.w3.org/1999/xlink">
<g id="graph0" class="graph" transform="scale(1 1) rotate(0) translate(4 181)">
<title>MWWorld::InventoryStore::purgeEffect</title>
<polygon fill="white" stroke="none" points="-4,4 -4,-181 1156,-181 1156,4 -4,4"/>
<!-- Node1 -->
<g id="node1" class="node"><title>Node1</title>
<polygon fill="#bfbfbf" stroke="black" points="0.5,-51 0.5,-81 135.5,-81 135.5,-51 0.5,-51"/>
<text text-anchor="start" x="8.5" y="-69" font-family="FreeSans" font-size="10.00">MWWorld::InventoryStore</text>
<text text-anchor="middle" x="68" y="-58" font-family="FreeSans" font-size="10.00">::purgeEffect</text>
</g>
<!-- Node2 -->
<g id="node2" class="node"><title>Node2</title>
<g id="a_node2"><a xlink:href="classMWMechanics_1_1Actors.html#aaeb9f8753ca25ab09b5af8630205ce72" target="_top" xlink:title="MWMechanics::Actors\l::calculateCreatureStatModifiers">
<polygon fill="white" stroke="black" points="390,-73 390,-103 560,-103 560,-73 390,-73"/>
<text text-anchor="start" x="398" y="-91" font-family="FreeSans" font-size="10.00">MWMechanics::Actors</text>
<text text-anchor="middle" x="475" y="-80" font-family="FreeSans" font-size="10.00">::calculateCreatureStatModifiers</text>
</a>
</g>
</g>
<!-- Node1&#45;&gt;Node2 -->
<g id="edge1" class="edge"><title>Node1&#45;&gt;Node2</title>
<path fill="none" stroke="midnightblue" d="M133.197,-83.3407C145.961,-86.1119 159.334,-88.5439 172,-90 245.184,-98.4137 329.004,-96.9896 389.74,-93.9919"/>
<polygon fill="midnightblue" stroke="midnightblue" points="133.642,-79.8529 123.116,-81.0576 132.096,-86.68 133.642,-79.8529"/>
</g>
<!-- Node11 -->
<g id="node11" class="node"><title>Node11</title>
<g id="a_node11"><a xlink:href="structMWMechanics_1_1UpdateSummonedCreatures.html#aca0efbdf8f6e7359e407a1b78716d96b" target="_top" xlink:title="To call after all effect sources have been visited. ">
<polygon fill="white" stroke="black" points="172.5,-51 172.5,-81 353.5,-81 353.5,-51 172.5,-51"/>
<text text-anchor="start" x="180.5" y="-69" font-family="FreeSans" font-size="10.00">MWMechanics::UpdateSummoned</text>
<text text-anchor="middle" x="263" y="-58" font-family="FreeSans" font-size="10.00">Creatures::process</text>
</a>
</g>
</g>
<!-- Node1&#45;&gt;Node11 -->
<g id="edge10" class="edge"><title>Node1&#45;&gt;Node11</title>
<path fill="none" stroke="midnightblue" d="M145.756,-66C154.434,-66 163.334,-66 172.159,-66"/>
<polygon fill="midnightblue" stroke="midnightblue" points="145.69,-62.5001 135.69,-66 145.69,-69.5001 145.69,-62.5001"/>
</g>
<!-- Node12 -->
<g id="node12" class="node"><title>Node12</title>
<g id="a_node12"><a xlink:href="classMWWorld_1_1World.html#a7c6b9125fbec517f93469508a7ed6c28" target="_top" xlink:title="MWWorld::World::breakInvisibility">
<polygon fill="white" stroke="black" points="179,-12.5 179,-31.5 347,-31.5 347,-12.5 179,-12.5"/>
<text text-anchor="middle" x="263" y="-19.5" font-family="FreeSans" font-size="10.00">MWWorld::World::breakInvisibility</text>
</a>
</g>
</g>
<!-- Node1&#45;&gt;Node12 -->
<g id="edge12" class="edge"><title>Node1&#45;&gt;Node12</title>
<path fill="none" stroke="midnightblue" d="M139.539,-48.5816C150.397,-45.9864 161.489,-43.3844 172,-41 186.016,-37.8203 201.301,-34.5279 215.23,-31.5952"/>
<polygon fill="midnightblue" stroke="midnightblue" points="138.561,-45.2167 129.656,-50.9566 140.197,-52.0229 138.561,-45.2167"/>
</g>
<!-- Node3 -->
<g id="node3" class="node"><title>Node3</title>
<g id="a_node3"><a xlink:href="classMWMechanics_1_1Actors.html#a5af95ec37502d80b957ce40234eeb05f" target="_top" xlink:title="MWMechanics::Actors\l::updateActor">
<polygon fill="white" stroke="black" points="596,-147 596,-177 716,-177 716,-147 596,-147"/>
<text text-anchor="start" x="604" y="-165" font-family="FreeSans" font-size="10.00">MWMechanics::Actors</text>
<text text-anchor="middle" x="656" y="-154" font-family="FreeSans" font-size="10.00">::updateActor</text>
</a>
</g>
</g>
<!-- Node2&#45;&gt;Node3 -->
<g id="edge2" class="edge"><title>Node2&#45;&gt;Node3</title>
<path fill="none" stroke="midnightblue" d="M522.087,-107.053C552.146,-119.479 590.826,-135.47 618.7,-146.993"/>
<polygon fill="midnightblue" stroke="midnightblue" points="523.234,-103.74 512.655,-103.154 520.56,-110.209 523.234,-103.74"/>
</g>
<!-- Node4 -->
<g id="node4" class="node"><title>Node4</title>
<g id="a_node4"><a xlink:href="classMWMechanics_1_1Actors.html#a43831198b7ba76efc6e134986d9205e2" target="_top" xlink:title="MWMechanics::Actors\l::killDeadActors">
<polygon fill="white" stroke="black" points="596,-98 596,-128 716,-128 716,-98 596,-98"/>
<text text-anchor="start" x="604" y="-116" font-family="FreeSans" font-size="10.00">MWMechanics::Actors</text>
<text text-anchor="middle" x="656" y="-105" font-family="FreeSans" font-size="10.00">::killDeadActors</text>
</a>
</g>
</g>
<!-- Node2&#45;&gt;Node4 -->
<g id="edge3" class="edge"><title>Node2&#45;&gt;Node4</title>
<path fill="none" stroke="midnightblue" d="M570.445,-101.191C579.115,-102.401 587.722,-103.604 595.941,-104.752"/>
<polygon fill="midnightblue" stroke="midnightblue" points="570.647,-97.6849 560.259,-99.768 569.678,-104.618 570.647,-97.6849"/>
</g>
<!-- Node7 -->
<g id="node7" class="node"><title>Node7</title>
<g id="a_node7"><a xlink:href="classMWMechanics_1_1Actors.html#a234a6d86f0ba586ee6f72d0b6e6e8dc1" target="_top" xlink:title="Update actors while the player is waiting or sleeping. This should be called every hour...">
<polygon fill="white" stroke="black" points="596,-49 596,-79 716,-79 716,-49 596,-49"/>
<text text-anchor="start" x="604" y="-67" font-family="FreeSans" font-size="10.00">MWMechanics::Actors</text>
<text text-anchor="middle" x="656" y="-56" font-family="FreeSans" font-size="10.00">::rest</text>
</a>
</g>
</g>
<!-- Node2&#45;&gt;Node7 -->
<g id="edge6" class="edge"><title>Node2&#45;&gt;Node7</title>
<path fill="none" stroke="midnightblue" d="M570.445,-75.337C579.115,-74.1746 587.722,-73.0205 595.941,-71.9185"/>
<polygon fill="midnightblue" stroke="midnightblue" points="569.705,-71.9048 560.259,-76.7028 570.635,-78.8428 569.705,-71.9048"/>
</g>
<!-- Node9 -->
<g id="node9" class="node"><title>Node9</title>
<g id="a_node9"><a xlink:href="classMWMechanics_1_1Actors.html#ae9acc75d922e60bf1ba950e653d045c3" target="_top" xlink:title="MWMechanics::Actors\l::updateMagicEffects">
<polygon fill="white" stroke="black" points="596,-0 596,-30 716,-30 716,-0 596,-0"/>
<text text-anchor="start" x="604" y="-18" font-family="FreeSans" font-size="10.00">MWMechanics::Actors</text>
<text text-anchor="middle" x="656" y="-7" font-family="FreeSans" font-size="10.00">::updateMagicEffects</text>
</a>
</g>
</g>
<!-- Node2&#45;&gt;Node9 -->
<g id="edge8" class="edge"><title>Node2&#45;&gt;Node9</title>
<path fill="none" stroke="midnightblue" d="M522.308,-69.0743C544.585,-59.974 571.675,-48.9137 596,-39 603.066,-36.1203 610.609,-33.0494 617.859,-30.0996"/>
<polygon fill="midnightblue" stroke="midnightblue" points="520.692,-65.9534 512.759,-72.9755 523.34,-72.4335 520.692,-65.9534"/>
</g>
<!-- Node5 -->
<g id="node5" class="node"><title>Node5</title>
<g id="a_node5"><a xlink:href="classMWMechanics_1_1Actors.html#a1588180bba8597286a1db1389cee106e" target="_top" xlink:title="Update actor stats and store desired velocity vectors in movement. ">
<polygon fill="white" stroke="black" points="783,-98 783,-128 903,-128 903,-98 783,-98"/>
<text text-anchor="start" x="791" y="-116" font-family="FreeSans" font-size="10.00">MWMechanics::Actors</text>
<text text-anchor="middle" x="843" y="-105" font-family="FreeSans" font-size="10.00">::update</text>
</a>
</g>
</g>
<!-- Node4&#45;&gt;Node5 -->
<g id="edge4" class="edge"><title>Node4&#45;&gt;Node5</title>
<path fill="none" stroke="midnightblue" d="M726.237,-113C744.872,-113 764.854,-113 782.883,-113"/>
<polygon fill="midnightblue" stroke="midnightblue" points="726.044,-109.5 716.044,-113 726.044,-116.5 726.044,-109.5"/>
</g>
<!-- Node6 -->
<g id="node6" class="node"><title>Node6</title>
<g id="a_node6"><a xlink:href="classMWMechanics_1_1MechanicsManager.html#acf3c8c25fff52b890d0d6ced4b456459" target="_top" xlink:title="MWMechanics::MechanicsManager\l::update">
<polygon fill="white" stroke="black" points="970,-98 970,-128 1152,-128 1152,-98 970,-98"/>
<text text-anchor="start" x="978" y="-116" font-family="FreeSans" font-size="10.00">MWMechanics::MechanicsManager</text>
<text text-anchor="middle" x="1061" y="-105" font-family="FreeSans" font-size="10.00">::update</text>
</a>
</g>
</g>
<!-- Node5&#45;&gt;Node6 -->
<g id="edge5" class="edge"><title>Node5&#45;&gt;Node6</title>
<path fill="none" stroke="midnightblue" d="M913.141,-113C931.174,-113 950.876,-113 969.824,-113"/>
<polygon fill="midnightblue" stroke="midnightblue" points="913.023,-109.5 903.023,-113 913.023,-116.5 913.023,-109.5"/>
</g>
<!-- Node8 -->
<g id="node8" class="node"><title>Node8</title>
<g id="a_node8"><a xlink:href="classMWMechanics_1_1MechanicsManager.html#a0d59b750f6336af8a3db5007a3509054" target="_top" xlink:title="MWMechanics::MechanicsManager\l::rest">
<polygon fill="white" stroke="black" points="752,-49 752,-79 934,-79 934,-49 752,-49"/>
<text text-anchor="start" x="760" y="-67" font-family="FreeSans" font-size="10.00">MWMechanics::MechanicsManager</text>
<text text-anchor="middle" x="843" y="-56" font-family="FreeSans" font-size="10.00">::rest</text>
</a>
</g>
</g>
<!-- Node7&#45;&gt;Node8 -->
<g id="edge7" class="edge"><title>Node7&#45;&gt;Node8</title>
<path fill="none" stroke="midnightblue" d="M726.124,-64C734.517,-64 743.184,-64 751.824,-64"/>
<polygon fill="midnightblue" stroke="midnightblue" points="726.044,-60.5001 716.044,-64 726.044,-67.5001 726.044,-60.5001"/>
</g>
<!-- Node10 -->
<g id="node10" class="node"><title>Node10</title>
<g id="a_node10"><a xlink:href="classMWMechanics_1_1MechanicsManager.html#afc410b78620c72d4ec2447b495430128" target="_top" xlink:title="MWMechanics::MechanicsManager\l::updateMagicEffects">
<polygon fill="white" stroke="black" points="752,-0 752,-30 934,-30 934,-0 752,-0"/>
<text text-anchor="start" x="760" y="-18" font-family="FreeSans" font-size="10.00">MWMechanics::MechanicsManager</text>
<text text-anchor="middle" x="843" y="-7" font-family="FreeSans" font-size="10.00">::updateMagicEffects</text>
</a>
</g>
</g>
<!-- Node9&#45;&gt;Node10 -->
<g id="edge9" class="edge"><title>Node9&#45;&gt;Node10</title>
<path fill="none" stroke="midnightblue" d="M726.124,-15C734.517,-15 743.184,-15 751.824,-15"/>
<polygon fill="midnightblue" stroke="midnightblue" points="726.044,-11.5001 716.044,-15 726.044,-18.5001 726.044,-11.5001"/>
</g>
<!-- Node11&#45;&gt;Node2 -->
<g id="edge11" class="edge"><title>Node11&#45;&gt;Node2</title>
<path fill="none" stroke="midnightblue" d="M363.877,-76.4633C372.605,-77.3777 381.38,-78.2969 389.96,-79.1958"/>
<polygon fill="midnightblue" stroke="midnightblue" points="363.978,-72.9548 353.668,-75.3938 363.249,-79.9167 363.978,-72.9548"/>
</g>
<!-- Node13 -->
<g id="node13" class="node"><title>Node13</title>
<g id="a_node13"><a xlink:href="classMWWorld_1_1World.html#ae9ae784745dec6d26b40d153246b4cfa" target="_top" xlink:title="MWWorld::World::activate">
<polygon fill="white" stroke="black" points="408,-12.5 408,-31.5 542,-31.5 542,-12.5 408,-12.5"/>
<text text-anchor="middle" x="475" y="-19.5" font-family="FreeSans" font-size="10.00">MWWorld::World::activate</text>
</a>
</g>
</g>
<!-- Node12&#45;&gt;Node13 -->
<g id="edge13" class="edge"><title>Node12&#45;&gt;Node13</title>
<path fill="none" stroke="midnightblue" d="M357.774,-22C374.705,-22 392.03,-22 407.96,-22"/>
<polygon fill="midnightblue" stroke="midnightblue" points="357.299,-18.5001 347.299,-22 357.299,-25.5001 357.299,-18.5001"/>
</g>
</g>
</svg>
