<?xml version="1.0" encoding="UTF-8" standalone="no"?>
<!DOCTYPE svg PUBLIC "-//W3C//DTD SVG 1.1//EN"
 "http://www.w3.org/Graphics/SVG/1.1/DTD/svg11.dtd">
<!-- Generated by graphviz version 2.36.0 (20140111.2315)
 -->
<!-- Title: MWGui::SortFilterItemModel::filterAccepts Pages: 1 -->
<svg width="762pt" height="660pt"
 viewBox="0.00 0.00 762.00 659.89" xmlns="http://www.w3.org/2000/svg" xmlns:xlink="http://www.w3.org/1999/xlink">
<g id="graph0" class="graph" transform="scale(1 1) rotate(0) translate(4 655.894)">
<title>MWGui::SortFilterItemModel::filterAccepts</title>
<polygon fill="white" stroke="none" points="-4,4 -4,-655.894 758,-655.894 758,4 -4,4"/>
<!-- Node1 -->
<g id="node1" class="node"><title>Node1</title>
<polygon fill="#bfbfbf" stroke="black" points="0,-310 0,-340 148,-340 148,-310 0,-310"/>
<text text-anchor="start" x="8" y="-328" font-family="FreeSans" font-size="10.00">MWGui::SortFilterItemModel</text>
<text text-anchor="middle" x="74" y="-317" font-family="FreeSans" font-size="10.00">::filterAccepts</text>
</g>
<!-- Node2 -->
<g id="node2" class="node"><title>Node2</title>
<g id="a_node2"><a xlink:href="classMWWorld_1_1Ptr.html#a6c33fb25a2ac50b8360397272070d298" target="_top" xlink:title="MWWorld::Ptr::getTypeName">
<polygon fill="white" stroke="black" points="404,-492.5 404,-511.5 554,-511.5 554,-492.5 404,-492.5"/>
<text text-anchor="middle" x="479" y="-499.5" font-family="FreeSans" font-size="10.00">MWWorld::Ptr::getTypeName</text>
</a>
</g>
</g>
<!-- Node1&#45;&gt;Node2 -->
<g id="edge1" class="edge"><title>Node1&#45;&gt;Node2</title>
<path fill="none" stroke="midnightblue" d="M75.0414,-340.212C76.1043,-390.86 87.1762,-554.396 184,-622 250.322,-668.307 291.813,-654.238 366,-622 413.929,-601.172 450.662,-548.609 467.646,-520.463"/>
<polygon fill="midnightblue" stroke="midnightblue" points="470.791,-522.018 472.815,-511.618 464.748,-518.485 470.791,-522.018"/>
</g>
<!-- Node4 -->
<g id="node4" class="node"><title>Node4</title>
<g id="a_node4"><a xlink:href="classMWWorld_1_1Ptr.html#acb6d9fb770fd8b8814df2358596ba656" target="_top" xlink:title="MWWorld::Ptr::getCellRef">
<polygon fill="white" stroke="black" points="209.5,-593.5 209.5,-612.5 340.5,-612.5 340.5,-593.5 209.5,-593.5"/>
<text text-anchor="middle" x="275" y="-600.5" font-family="FreeSans" font-size="10.00">MWWorld::Ptr::getCellRef</text>
</a>
</g>
</g>
<!-- Node1&#45;&gt;Node4 -->
<g id="edge3" class="edge"><title>Node1&#45;&gt;Node4</title>
<path fill="none" stroke="midnightblue" d="M76.5623,-340.119C82.0478,-385.009 104.627,-518.457 184,-584 188.654,-587.843 193.896,-590.966 199.45,-593.497"/>
<polygon fill="midnightblue" stroke="midnightblue" points="198.456,-596.865 209.045,-597.22 200.988,-590.339 198.456,-596.865"/>
</g>
<!-- Node5 -->
<g id="node5" class="node"><title>Node5</title>
<g id="a_node5"><a xlink:href="classMWWorld_1_1CellRef.html#a4f92e5fcdd850e09b8e49a80f7c6f7de" target="_top" xlink:title="MWWorld::CellRef::getSoul">
<polygon fill="white" stroke="black" points="205.5,-555.5 205.5,-574.5 344.5,-574.5 344.5,-555.5 205.5,-555.5"/>
<text text-anchor="middle" x="275" y="-562.5" font-family="FreeSans" font-size="10.00">MWWorld::CellRef::getSoul</text>
</a>
</g>
</g>
<!-- Node1&#45;&gt;Node5 -->
<g id="edge4" class="edge"><title>Node1&#45;&gt;Node5</title>
<path fill="none" stroke="midnightblue" d="M77.7642,-340.22C85.9588,-380.711 114.059,-491.682 184,-546 187.646,-548.831 191.616,-551.266 195.79,-553.356"/>
<polygon fill="midnightblue" stroke="midnightblue" points="194.64,-556.671 205.209,-557.405 197.404,-550.24 194.64,-556.671"/>
</g>
<!-- Node6 -->
<g id="node6" class="node"><title>Node6</title>
<g id="a_node6"><a xlink:href="classMWBase_1_1Environment.html#a73f12633762b049c03c80fe215873faa" target="_top" xlink:title="Return instance of this class. ">
<polygon fill="white" stroke="black" points="202,-517.5 202,-536.5 348,-536.5 348,-517.5 202,-517.5"/>
<text text-anchor="middle" x="275" y="-524.5" font-family="FreeSans" font-size="10.00">MWBase::Environment::get</text>
</a>
</g>
</g>
<!-- Node1&#45;&gt;Node6 -->
<g id="edge5" class="edge"><title>Node1&#45;&gt;Node6</title>
<path fill="none" stroke="midnightblue" d="M79.4497,-340.068C90.6798,-375.321 123.663,-463.475 184,-507 187.266,-509.356 190.758,-511.442 194.402,-513.288"/>
<polygon fill="midnightblue" stroke="midnightblue" points="193.166,-516.568 203.728,-517.401 195.991,-510.163 193.166,-516.568"/>
</g>
<!-- Node7 -->
<g id="node7" class="node"><title>Node7</title>
<g id="a_node7"><a xlink:href="classMWBase_1_1Environment.html#ae14e166d8f5ff8629be119333d502660" target="_top" xlink:title="MWBase::Environment\l::getWorld">
<polygon fill="white" stroke="black" points="213,-468 213,-498 337,-498 337,-468 213,-468"/>
<text text-anchor="start" x="221" y="-486" font-family="FreeSans" font-size="10.00">MWBase::Environment</text>
<text text-anchor="middle" x="275" y="-475" font-family="FreeSans" font-size="10.00">::getWorld</text>
</a>
</g>
</g>
<!-- Node1&#45;&gt;Node7 -->
<g id="edge6" class="edge"><title>Node1&#45;&gt;Node7</title>
<path fill="none" stroke="midnightblue" d="M83.2736,-340.347C99.0658,-368.154 136.229,-426.866 184,-458 189.978,-461.896 196.559,-465.191 203.361,-467.977"/>
<polygon fill="midnightblue" stroke="midnightblue" points="202.143,-471.258 212.735,-471.469 204.586,-464.699 202.143,-471.258"/>
</g>
<!-- Node8 -->
<g id="node8" class="node"><title>Node8</title>
<g id="a_node8"><a xlink:href="classMWBase_1_1World.html#a2ba0910cb944786065e37dc5f3fcda35" target="_top" xlink:title="MWBase::World::getStore">
<polygon fill="white" stroke="black" points="206.5,-429.5 206.5,-448.5 343.5,-448.5 343.5,-429.5 206.5,-429.5"/>
<text text-anchor="middle" x="275" y="-436.5" font-family="FreeSans" font-size="10.00">MWBase::World::getStore</text>
</a>
</g>
</g>
<!-- Node1&#45;&gt;Node8 -->
<g id="edge7" class="edge"><title>Node1&#45;&gt;Node8</title>
<path fill="none" stroke="midnightblue" d="M87.7372,-340.173C106.518,-361.494 143.787,-399.953 184,-420 188.824,-422.405 193.939,-424.505 199.187,-426.341"/>
<polygon fill="midnightblue" stroke="midnightblue" points="198.149,-429.684 208.74,-429.366 200.263,-423.01 198.149,-429.684"/>
</g>
<!-- Node9 -->
<g id="node9" class="node"><title>Node9</title>
<g id="a_node9"><a xlink:href="classMWWorld_1_1ESMStore.html#a94ffe201bd012dd41fcdabfb35c69e24" target="_top" xlink:title="MWWorld::ESMStore::get">
<polygon fill="white" stroke="black" points="208,-391.5 208,-410.5 342,-410.5 342,-391.5 208,-391.5"/>
<text text-anchor="middle" x="275" y="-398.5" font-family="FreeSans" font-size="10.00">MWWorld::ESMStore::get</text>
</a>
</g>
</g>
<!-- Node1&#45;&gt;Node9 -->
<g id="edge8" class="edge"><title>Node1&#45;&gt;Node9</title>
<path fill="none" stroke="midnightblue" d="M99.227,-340.144C120.753,-352.987 153.453,-371.024 184,-382 191.479,-384.687 199.452,-387.048 207.443,-389.107"/>
<polygon fill="midnightblue" stroke="midnightblue" points="206.624,-392.51 217.168,-391.471 208.278,-385.708 206.624,-392.51"/>
</g>
<!-- Node10 -->
<g id="node10" class="node"><title>Node10</title>
<g id="a_node10"><a xlink:href="classMWWorld_1_1Ptr.html#a46a6588d17f16b3047b3d87d1b20eae7" target="_top" xlink:title="MWWorld::Ptr::get">
<polygon fill="white" stroke="black" points="225,-353.5 225,-372.5 325,-372.5 325,-353.5 225,-353.5"/>
<text text-anchor="middle" x="275" y="-360.5" font-family="FreeSans" font-size="10.00">MWWorld::Ptr::get</text>
</a>
</g>
</g>
<!-- Node1&#45;&gt;Node10 -->
<g id="edge9" class="edge"><title>Node1&#45;&gt;Node10</title>
<path fill="none" stroke="midnightblue" d="M148.252,-338.988C170.157,-343.171 193.89,-347.703 214.775,-351.691"/>
<polygon fill="midnightblue" stroke="midnightblue" points="214.299,-355.163 224.778,-353.601 215.612,-348.287 214.299,-355.163"/>
</g>
<!-- Node11 -->
<g id="node11" class="node"><title>Node11</title>
<g id="a_node11"><a xlink:href="classMWWorld_1_1Ptr.html#aa2ac4a5579cd19eaa780596f4543ea46" target="_top" xlink:title="MWWorld::Ptr::getClass">
<polygon fill="white" stroke="black" points="212.5,-315.5 212.5,-334.5 337.5,-334.5 337.5,-315.5 212.5,-315.5"/>
<text text-anchor="middle" x="275" y="-322.5" font-family="FreeSans" font-size="10.00">MWWorld::Ptr::getClass</text>
</a>
</g>
</g>
<!-- Node1&#45;&gt;Node11 -->
<g id="edge11" class="edge"><title>Node1&#45;&gt;Node11</title>
<path fill="none" stroke="midnightblue" d="M148.252,-325C165.854,-325 184.636,-325 202.173,-325"/>
<polygon fill="midnightblue" stroke="midnightblue" points="202.335,-328.5 212.335,-325 202.335,-321.5 202.335,-328.5"/>
</g>
<!-- Node12 -->
<g id="node12" class="node"><title>Node12</title>
<g id="a_node12"><a xlink:href="classMWWorld_1_1Class.html#a752c1c8b8184d383b275cb685ce8d8bb" target="_top" xlink:title="MWWorld::Class::getScript">
<polygon fill="white" stroke="black" points="205,-277.5 205,-296.5 345,-296.5 345,-277.5 205,-277.5"/>
<text text-anchor="middle" x="275" y="-284.5" font-family="FreeSans" font-size="10.00">MWWorld::Class::getScript</text>
</a>
</g>
</g>
<!-- Node1&#45;&gt;Node12 -->
<g id="edge12" class="edge"><title>Node1&#45;&gt;Node12</title>
<path fill="none" stroke="midnightblue" d="M148.252,-311.012C169.967,-306.866 193.477,-302.376 214.229,-298.413"/>
<polygon fill="midnightblue" stroke="midnightblue" points="215.009,-301.828 224.175,-296.514 213.696,-294.952 215.009,-301.828"/>
</g>
<!-- Node13 -->
<g id="node13" class="node"><title>Node13</title>
<g id="a_node13"><a xlink:href="classMWWorld_1_1Class.html#ab0c3a65cdbb20e35eb7624cda8e6591c" target="_top" xlink:title="MWWorld::Class::use">
<polygon fill="white" stroke="black" points="218.5,-239.5 218.5,-258.5 331.5,-258.5 331.5,-239.5 218.5,-239.5"/>
<text text-anchor="middle" x="275" y="-246.5" font-family="FreeSans" font-size="10.00">MWWorld::Class::use</text>
</a>
</g>
</g>
<!-- Node1&#45;&gt;Node13 -->
<g id="edge13" class="edge"><title>Node1&#45;&gt;Node13</title>
<path fill="none" stroke="midnightblue" d="M99.227,-309.856C120.753,-297.013 153.453,-278.976 184,-268 191.777,-265.206 200.088,-262.764 208.399,-260.648"/>
<polygon fill="midnightblue" stroke="midnightblue" points="209.218,-264.051 218.123,-258.311 207.582,-257.245 209.218,-264.051"/>
</g>
<!-- Node14 -->
<g id="node14" class="node"><title>Node14</title>
<g id="a_node14"><a xlink:href="classMWWorld_1_1Class.html#a6689ca20c9048824b3da7832c156dc10" target="_top" xlink:title="MWWorld::Class::hasItemHealth">
<polygon fill="white" stroke="black" points="191.5,-201.5 191.5,-220.5 358.5,-220.5 358.5,-201.5 191.5,-201.5"/>
<text text-anchor="middle" x="275" y="-208.5" font-family="FreeSans" font-size="10.00">MWWorld::Class::hasItemHealth</text>
</a>
</g>
</g>
<!-- Node1&#45;&gt;Node14 -->
<g id="edge14" class="edge"><title>Node1&#45;&gt;Node14</title>
<path fill="none" stroke="midnightblue" d="M87.7372,-309.827C106.518,-288.506 143.787,-250.047 184,-230 188.824,-227.595 193.939,-225.495 199.187,-223.659"/>
<polygon fill="midnightblue" stroke="midnightblue" points="200.263,-226.99 208.74,-220.634 198.149,-220.316 200.263,-226.99"/>
</g>
<!-- Node15 -->
<g id="node15" class="node"><title>Node15</title>
<g id="a_node15"><a xlink:href="classMWWorld_1_1Class.html#a5537c9812ceb8e5a8100652eac05ec63" target="_top" xlink:title="Return current item health or throw an exception if class does not have item health. ">
<polygon fill="white" stroke="black" points="192.5,-163.5 192.5,-182.5 357.5,-182.5 357.5,-163.5 192.5,-163.5"/>
<text text-anchor="middle" x="275" y="-170.5" font-family="FreeSans" font-size="10.00">MWWorld::Class::getItemHealth</text>
</a>
</g>
</g>
<!-- Node1&#45;&gt;Node15 -->
<g id="edge15" class="edge"><title>Node1&#45;&gt;Node15</title>
<path fill="none" stroke="midnightblue" d="M82.8472,-309.801C98.1968,-281.699 135.019,-221.772 184,-192 187.608,-189.807 191.43,-187.865 195.384,-186.144"/>
<polygon fill="midnightblue" stroke="midnightblue" points="196.734,-189.375 204.812,-182.519 194.222,-182.841 196.734,-189.375"/>
</g>
<!-- Node18 -->
<g id="node18" class="node"><title>Node18</title>
<g id="a_node18"><a xlink:href="classMWWorld_1_1Class.html#a57ed3b8775968f13bb4460b3833a9021" target="_top" xlink:title="MWWorld::Class::getItemMax\lHealth">
<polygon fill="white" stroke="black" points="402.5,-117 402.5,-147 555.5,-147 555.5,-117 402.5,-117"/>
<text text-anchor="start" x="410.5" y="-135" font-family="FreeSans" font-size="10.00">MWWorld::Class::getItemMax</text>
<text text-anchor="middle" x="479" y="-124" font-family="FreeSans" font-size="10.00">Health</text>
</a>
</g>
</g>
<!-- Node1&#45;&gt;Node18 -->
<g id="edge19" class="edge"><title>Node1&#45;&gt;Node18</title>
<path fill="none" stroke="midnightblue" d="M79.5221,-309.742C90.7094,-275.023 123.269,-190.322 184,-154 246.417,-116.67 330.118,-114.002 392.248,-119.018"/>
<polygon fill="midnightblue" stroke="midnightblue" points="392.145,-122.523 402.416,-119.923 392.766,-115.55 392.145,-122.523"/>
</g>
<!-- Node19 -->
<g id="node19" class="node"><title>Node19</title>
<g id="a_node19"><a xlink:href="classMWWorld_1_1Class.html#a0ebc789aa414ffebfd4d5c86f9523042" target="_top" xlink:title="MWWorld::Class::getEnchantment">
<polygon fill="white" stroke="black" points="187,-87.5 187,-106.5 363,-106.5 363,-87.5 187,-87.5"/>
<text text-anchor="middle" x="275" y="-94.5" font-family="FreeSans" font-size="10.00">MWWorld::Class::getEnchantment</text>
</a>
</g>
</g>
<!-- Node1&#45;&gt;Node19 -->
<g id="edge20" class="edge"><title>Node1&#45;&gt;Node19</title>
<path fill="none" stroke="midnightblue" d="M78.6464,-309.748C88.5542,-271.704 119.652,-172.016 184,-121 189.364,-116.748 195.414,-113.245 201.778,-110.361"/>
<polygon fill="midnightblue" stroke="midnightblue" points="203.295,-113.524 211.281,-106.563 200.697,-107.024 203.295,-113.524"/>
</g>
<!-- Node20 -->
<g id="node20" class="node"><title>Node20</title>
<g id="a_node20"><a xlink:href="classMWWorld_1_1CellRef.html#a2f70b196b33750c0bbc0a11038d2cf72" target="_top" xlink:title="MWWorld::CellRef::getRefId">
<polygon fill="white" stroke="black" points="205,-49.5 205,-68.5 345,-68.5 345,-49.5 205,-49.5"/>
<text text-anchor="middle" x="275" y="-56.5" font-family="FreeSans" font-size="10.00">MWWorld::CellRef::getRefId</text>
</a>
</g>
</g>
<!-- Node1&#45;&gt;Node20 -->
<g id="edge21" class="edge"><title>Node1&#45;&gt;Node20</title>
<path fill="none" stroke="midnightblue" d="M76.8895,-309.948C83.1833,-266.497 107.564,-140.017 184,-78 187.513,-75.1497 191.351,-72.6976 195.398,-70.5904"/>
<polygon fill="midnightblue" stroke="midnightblue" points="196.842,-73.7786 204.548,-66.5077 193.99,-67.386 196.842,-73.7786"/>
</g>
<!-- Node21 -->
<g id="node21" class="node"><title>Node21</title>
<g id="a_node21"><a xlink:href="classMWWorld_1_1CellRef.html#adfbe4ecec0fae39aef9dc599a2257248" target="_top" xlink:title="MWWorld::CellRef::getEnchantment\lCharge">
<polygon fill="white" stroke="black" points="184,-0 184,-30 366,-30 366,-0 184,-0"/>
<text text-anchor="start" x="192" y="-18" font-family="FreeSans" font-size="10.00">MWWorld::CellRef::getEnchantment</text>
<text text-anchor="middle" x="275" y="-7" font-family="FreeSans" font-size="10.00">Charge</text>
</a>
</g>
</g>
<!-- Node1&#45;&gt;Node21 -->
<g id="edge22" class="edge"><title>Node1&#45;&gt;Node21</title>
<path fill="none" stroke="midnightblue" d="M76.1597,-309.672C80.5989,-262.119 100.736,-115.757 184,-40 185.706,-38.4483 187.499,-36.9918 189.366,-35.6247"/>
<polygon fill="midnightblue" stroke="midnightblue" points="191.389,-38.4867 197.973,-30.1859 187.65,-32.5691 191.389,-38.4867"/>
</g>
<!-- Node3 -->
<g id="node3" class="node"><title>Node3</title>
<g id="a_node3"><a xlink:href="classMWWorld_1_1Class.html#a8c909186c99e13e0b819437ba2f7ee1d" target="_top" xlink:title="MWWorld::Class::getTypeName">
<polygon fill="white" stroke="black" points="592,-492.5 592,-511.5 754,-511.5 754,-492.5 592,-492.5"/>
<text text-anchor="middle" x="673" y="-499.5" font-family="FreeSans" font-size="10.00">MWWorld::Class::getTypeName</text>
</a>
</g>
</g>
<!-- Node2&#45;&gt;Node3 -->
<g id="edge2" class="edge"><title>Node2&#45;&gt;Node3</title>
<path fill="none" stroke="midnightblue" d="M554.232,-502C563.299,-502 572.639,-502 581.906,-502"/>
<polygon fill="midnightblue" stroke="midnightblue" points="581.916,-505.5 591.916,-502 581.916,-498.5 581.916,-505.5"/>
</g>
<!-- Node10&#45;&gt;Node2 -->
<g id="edge10" class="edge"><title>Node10&#45;&gt;Node2</title>
<path fill="none" stroke="midnightblue" d="M325.129,-367.787C338.975,-370.587 353.623,-375.013 366,-382 411.063,-407.441 448.55,-457.169 466.535,-483.927"/>
<polygon fill="midnightblue" stroke="midnightblue" points="463.653,-485.914 472.064,-492.357 469.506,-482.075 463.653,-485.914"/>
</g>
<!-- Node16 -->
<g id="node16" class="node"><title>Node16</title>
<g id="a_node16"><a xlink:href="classMWWorld_1_1ConstPtr.html#afa407c744b51f45e0b8e3eec160cb7a2" target="_top" xlink:title="MWWorld::ConstPtr::\lgetCellRef">
<polygon fill="white" stroke="black" points="423,-205 423,-235 535,-235 535,-205 423,-205"/>
<text text-anchor="start" x="431" y="-223" font-family="FreeSans" font-size="10.00">MWWorld::ConstPtr::</text>
<text text-anchor="middle" x="479" y="-212" font-family="FreeSans" font-size="10.00">getCellRef</text>
</a>
</g>
</g>
<!-- Node15&#45;&gt;Node16 -->
<g id="edge16" class="edge"><title>Node15&#45;&gt;Node16</title>
<path fill="none" stroke="midnightblue" d="M322.784,-182.535C336.713,-185.466 351.995,-188.772 366,-192 381.22,-195.508 397.553,-199.475 412.91,-203.296"/>
<polygon fill="midnightblue" stroke="midnightblue" points="412.289,-206.749 422.84,-205.78 413.988,-199.958 412.289,-206.749"/>
</g>
<!-- Node17 -->
<g id="node17" class="node"><title>Node17</title>
<g id="a_node17"><a xlink:href="classMWWorld_1_1CellRef.html#a4b3b28f98b80448c7b7d5c3b364976b7" target="_top" xlink:title="MWWorld::CellRef::getCharge">
<polygon fill="white" stroke="black" points="403,-166.5 403,-185.5 555,-185.5 555,-166.5 403,-166.5"/>
<text text-anchor="middle" x="479" y="-173.5" font-family="FreeSans" font-size="10.00">MWWorld::CellRef::getCharge</text>
</a>
</g>
</g>
<!-- Node15&#45;&gt;Node17 -->
<g id="edge17" class="edge"><title>Node15&#45;&gt;Node17</title>
<path fill="none" stroke="midnightblue" d="M357.579,-174.212C369.181,-174.384 381.139,-174.561 392.808,-174.735"/>
<polygon fill="midnightblue" stroke="midnightblue" points="392.921,-178.237 402.972,-174.886 393.025,-171.238 392.921,-178.237"/>
</g>
<!-- Node15&#45;&gt;Node18 -->
<g id="edge18" class="edge"><title>Node15&#45;&gt;Node18</title>
<path fill="none" stroke="midnightblue" d="M322.851,-163.491C343.952,-159.208 369.531,-154.016 393.782,-149.094"/>
<polygon fill="midnightblue" stroke="midnightblue" points="394.611,-152.497 403.715,-147.078 393.218,-145.637 394.611,-152.497"/>
</g>
</g>
</svg>
