<?xml version="1.0" encoding="UTF-8" standalone="no"?>
<!DOCTYPE svg PUBLIC "-//W3C//DTD SVG 1.1//EN"
 "http://www.w3.org/Graphics/SVG/1.1/DTD/svg11.dtd">
<!-- Generated by graphviz version 2.36.0 (20140111.2315)
 -->
<!-- Title: Nif::Property Pages: 1 -->
<svg width="1658pt" height="732pt"
 viewBox="0.00 0.00 1658.00 732.00" xmlns="http://www.w3.org/2000/svg" xmlns:xlink="http://www.w3.org/1999/xlink">
<g id="graph0" class="graph" transform="scale(1 1) rotate(0) translate(4 728)">
<title>Nif::Property</title>
<polygon fill="white" stroke="none" points="-4,4 -4,-728 1654,-728 1654,4 -4,4"/>
<!-- Node1 -->
<g id="node1" class="node"><title>Node1</title>
<polygon fill="#bfbfbf" stroke="black" points="782,-210.5 782,-267.5 858,-267.5 858,-210.5 782,-210.5"/>
<text text-anchor="middle" x="820" y="-255.5" font-family="FreeSans" font-size="10.00">Nif::Property</text>
<polyline fill="none" stroke="black" points="782,-248.5 858,-248.5 "/>
<text text-anchor="start" x="790" y="-236.5" font-family="FreeSans" font-size="10.00">+ flags</text>
<polyline fill="none" stroke="black" points="782,-229.5 858,-229.5 "/>
<text text-anchor="start" x="790" y="-217.5" font-family="FreeSans" font-size="10.00">+ read()</text>
</g>
<!-- Node6 -->
<g id="node6" class="node"><title>Node6</title>
<g id="a_node6"><a xlink:href="classNif_1_1NiDitherProperty.html" target="_top" xlink:title="{Nif::NiDitherProperty\n||}">
<polygon fill="white" stroke="black" points="-0.5,-105.5 -0.5,-162.5 114.5,-162.5 114.5,-105.5 -0.5,-105.5"/>
<text text-anchor="middle" x="57" y="-150.5" font-family="FreeSans" font-size="10.00">Nif::NiDitherProperty</text>
<polyline fill="none" stroke="black" points="-0.5,-143.5 114.5,-143.5 "/>
<text text-anchor="middle" x="57" y="-131.5" font-family="FreeSans" font-size="10.00"> </text>
<polyline fill="none" stroke="black" points="-0.5,-124.5 114.5,-124.5 "/>
<text text-anchor="middle" x="57" y="-112.5" font-family="FreeSans" font-size="10.00"> </text>
</a>
</g>
</g>
<!-- Node1&#45;&gt;Node6 -->
<g id="edge5" class="edge"><title>Node1&#45;&gt;Node6</title>
<path fill="none" stroke="midnightblue" d="M771.434,-236.31C633.942,-231.091 244.142,-213.157 123,-174 114.262,-171.175 105.439,-167.04 97.2127,-162.506"/>
<polygon fill="none" stroke="midnightblue" points="771.533,-239.817 781.657,-236.693 771.795,-232.821 771.533,-239.817"/>
</g>
<!-- Node7 -->
<g id="node7" class="node"><title>Node7</title>
<g id="a_node7"><a xlink:href="classNif_1_1NiFogProperty.html" target="_top" xlink:title="{Nif::NiFogProperty\n|+ mFogDepth\l+ mColour\l|+ read()\l}">
<polygon fill="white" stroke="black" points="132.5,-100 132.5,-168 235.5,-168 235.5,-100 132.5,-100"/>
<text text-anchor="middle" x="184" y="-156" font-family="FreeSans" font-size="10.00">Nif::NiFogProperty</text>
<polyline fill="none" stroke="black" points="132.5,-149 235.5,-149 "/>
<text text-anchor="start" x="140.5" y="-137" font-family="FreeSans" font-size="10.00">+ mFogDepth</text>
<text text-anchor="start" x="140.5" y="-126" font-family="FreeSans" font-size="10.00">+ mColour</text>
<polyline fill="none" stroke="black" points="132.5,-119 235.5,-119 "/>
<text text-anchor="start" x="140.5" y="-107" font-family="FreeSans" font-size="10.00">+ read()</text>
</a>
</g>
</g>
<!-- Node1&#45;&gt;Node7 -->
<g id="edge6" class="edge"><title>Node1&#45;&gt;Node7</title>
<path fill="none" stroke="midnightblue" d="M771.804,-235.456C651.732,-228.671 341.962,-208.282 245,-174 240.378,-172.366 235.749,-170.325 231.222,-168.038"/>
<polygon fill="none" stroke="midnightblue" points="771.63,-238.952 781.809,-236.015 772.02,-231.963 771.63,-238.952"/>
</g>
<!-- Node8 -->
<g id="node8" class="node"><title>Node8</title>
<g id="a_node8"><a xlink:href="classNif_1_1NiShadeProperty.html" target="_top" xlink:title="{Nif::NiShadeProperty\n||}">
<polygon fill="white" stroke="black" points="254,-105.5 254,-162.5 370,-162.5 370,-105.5 254,-105.5"/>
<text text-anchor="middle" x="312" y="-150.5" font-family="FreeSans" font-size="10.00">Nif::NiShadeProperty</text>
<polyline fill="none" stroke="black" points="254,-143.5 370,-143.5 "/>
<text text-anchor="middle" x="312" y="-131.5" font-family="FreeSans" font-size="10.00"> </text>
<polyline fill="none" stroke="black" points="254,-124.5 370,-124.5 "/>
<text text-anchor="middle" x="312" y="-112.5" font-family="FreeSans" font-size="10.00"> </text>
</a>
</g>
</g>
<!-- Node1&#45;&gt;Node8 -->
<g id="edge7" class="edge"><title>Node1&#45;&gt;Node8</title>
<path fill="none" stroke="midnightblue" d="M771.885,-236.979C689.276,-233.929 516.126,-221.834 379,-174 370.486,-171.03 361.839,-166.943 353.712,-162.528"/>
<polygon fill="none" stroke="midnightblue" points="771.864,-240.48 781.977,-237.322 772.102,-233.484 771.864,-240.48"/>
</g>
<!-- Node9 -->
<g id="node9" class="node"><title>Node9</title>
<g id="a_node9"><a xlink:href="classNif_1_1NiSpecularProperty.html" target="_top" xlink:title="{Nif::NiSpecularProperty\n||}">
<polygon fill="white" stroke="black" points="388,-105.5 388,-162.5 516,-162.5 516,-105.5 388,-105.5"/>
<text text-anchor="middle" x="452" y="-150.5" font-family="FreeSans" font-size="10.00">Nif::NiSpecularProperty</text>
<polyline fill="none" stroke="black" points="388,-143.5 516,-143.5 "/>
<text text-anchor="middle" x="452" y="-131.5" font-family="FreeSans" font-size="10.00"> </text>
<polyline fill="none" stroke="black" points="388,-124.5 516,-124.5 "/>
<text text-anchor="middle" x="452" y="-112.5" font-family="FreeSans" font-size="10.00"> </text>
</a>
</g>
</g>
<!-- Node1&#45;&gt;Node9 -->
<g id="edge8" class="edge"><title>Node1&#45;&gt;Node9</title>
<path fill="none" stroke="midnightblue" d="M771.587,-231.703C712.177,-223.028 608.992,-204.865 525,-174 516.368,-170.828 507.49,-166.805 499.028,-162.554"/>
<polygon fill="none" stroke="midnightblue" points="771.407,-235.213 781.802,-233.164 772.398,-228.283 771.407,-235.213"/>
</g>
<!-- Node10 -->
<g id="node10" class="node"><title>Node10</title>
<g id="a_node10"><a xlink:href="classNif_1_1NiTexturingProperty.html" target="_top" xlink:title="{Nif::NiTexturingProperty\n|+ apply\l+ textures\l|+ read()\l+ post()\l}">
<polygon fill="white" stroke="black" points="534,-94.5 534,-173.5 662,-173.5 662,-94.5 534,-94.5"/>
<text text-anchor="middle" x="598" y="-161.5" font-family="FreeSans" font-size="10.00">Nif::NiTexturingProperty</text>
<polyline fill="none" stroke="black" points="534,-154.5 662,-154.5 "/>
<text text-anchor="start" x="542" y="-142.5" font-family="FreeSans" font-size="10.00">+ apply</text>
<text text-anchor="start" x="542" y="-131.5" font-family="FreeSans" font-size="10.00">+ textures</text>
<polyline fill="none" stroke="black" points="534,-124.5 662,-124.5 "/>
<text text-anchor="start" x="542" y="-112.5" font-family="FreeSans" font-size="10.00">+ read()</text>
<text text-anchor="start" x="542" y="-101.5" font-family="FreeSans" font-size="10.00">+ post()</text>
</a>
</g>
</g>
<!-- Node1&#45;&gt;Node10 -->
<g id="edge9" class="edge"><title>Node1&#45;&gt;Node10</title>
<path fill="none" stroke="midnightblue" d="M772.694,-218.888C743.173,-206.664 704.541,-190.127 671,-174 668.151,-172.63 665.253,-171.208 662.334,-169.752"/>
<polygon fill="none" stroke="midnightblue" points="771.362,-222.124 781.941,-222.699 774.029,-215.652 771.362,-222.124"/>
</g>
<!-- Node11 -->
<g id="node11" class="node"><title>Node11</title>
<g id="a_node11"><a xlink:href="classNif_1_1NiWireframeProperty.html" target="_top" xlink:title="{Nif::NiWireframeProperty\n||}">
<polygon fill="white" stroke="black" points="680,-105.5 680,-162.5 814,-162.5 814,-105.5 680,-105.5"/>
<text text-anchor="middle" x="747" y="-150.5" font-family="FreeSans" font-size="10.00">Nif::NiWireframeProperty</text>
<polyline fill="none" stroke="black" points="680,-143.5 814,-143.5 "/>
<text text-anchor="middle" x="747" y="-131.5" font-family="FreeSans" font-size="10.00"> </text>
<polyline fill="none" stroke="black" points="680,-124.5 814,-124.5 "/>
<text text-anchor="middle" x="747" y="-112.5" font-family="FreeSans" font-size="10.00"> </text>
</a>
</g>
</g>
<!-- Node1&#45;&gt;Node11 -->
<g id="edge10" class="edge"><title>Node1&#45;&gt;Node11</title>
<path fill="none" stroke="midnightblue" d="M794.587,-202.144C785.417,-189.205 775.215,-174.811 766.617,-162.678"/>
<polygon fill="none" stroke="midnightblue" points="791.799,-204.263 800.437,-210.398 797.51,-200.215 791.799,-204.263"/>
</g>
<!-- Node12 -->
<g id="node12" class="node"><title>Node12</title>
<g id="a_node12"><a xlink:href="classNif_1_1NiZBufferProperty.html" target="_top" xlink:title="{Nif::NiZBufferProperty\n||}">
<polygon fill="white" stroke="black" points="832,-105.5 832,-162.5 954,-162.5 954,-105.5 832,-105.5"/>
<text text-anchor="middle" x="893" y="-150.5" font-family="FreeSans" font-size="10.00">Nif::NiZBufferProperty</text>
<polyline fill="none" stroke="black" points="832,-143.5 954,-143.5 "/>
<text text-anchor="middle" x="893" y="-131.5" font-family="FreeSans" font-size="10.00"> </text>
<polyline fill="none" stroke="black" points="832,-124.5 954,-124.5 "/>
<text text-anchor="middle" x="893" y="-112.5" font-family="FreeSans" font-size="10.00"> </text>
</a>
</g>
</g>
<!-- Node1&#45;&gt;Node12 -->
<g id="edge11" class="edge"><title>Node1&#45;&gt;Node12</title>
<path fill="none" stroke="midnightblue" d="M845.413,-202.144C854.583,-189.205 864.785,-174.811 873.383,-162.678"/>
<polygon fill="none" stroke="midnightblue" points="842.49,-200.215 839.563,-210.398 848.201,-204.263 842.49,-200.215"/>
</g>
<!-- Node13 -->
<g id="node13" class="node"><title>Node13</title>
<g id="a_node13"><a xlink:href="structNif_1_1StructPropT.html" target="_top" xlink:title="{Nif::StructPropT\&lt; T \&gt;\n|+ data\l|+ read()\l}">
<polygon fill="white" stroke="black" points="972.5,-105.5 972.5,-162.5 1091.5,-162.5 1091.5,-105.5 972.5,-105.5"/>
<text text-anchor="middle" x="1032" y="-150.5" font-family="FreeSans" font-size="10.00">Nif::StructPropT&lt; T &gt;</text>
<polyline fill="none" stroke="black" points="972.5,-143.5 1091.5,-143.5 "/>
<text text-anchor="start" x="980.5" y="-131.5" font-family="FreeSans" font-size="10.00">+ data</text>
<polyline fill="none" stroke="black" points="972.5,-124.5 1091.5,-124.5 "/>
<text text-anchor="start" x="980.5" y="-112.5" font-family="FreeSans" font-size="10.00">+ read()</text>
</a>
</g>
</g>
<!-- Node1&#45;&gt;Node13 -->
<g id="edge12" class="edge"><title>Node1&#45;&gt;Node13</title>
<path fill="none" stroke="midnightblue" d="M867.293,-218.158C895.404,-206.038 931.589,-189.862 963,-174 970.001,-170.464 977.306,-166.57 984.431,-162.651"/>
<polygon fill="none" stroke="midnightblue" points="865.898,-214.948 858.088,-222.107 868.658,-221.381 865.898,-214.948"/>
</g>
<!-- Node14 -->
<g id="node14" class="node"><title>Node14</title>
<g id="a_node14"><a xlink:href="structNif_1_1StructPropT.html" target="_top" xlink:title="{Nif::StructPropT\&lt; S\l_AlphaProperty \&gt;\n|+ data\l|+ read()\l}">
<polygon fill="white" stroke="black" points="1110,-100 1110,-168 1220,-168 1220,-100 1110,-100"/>
<text text-anchor="start" x="1118" y="-156" font-family="FreeSans" font-size="10.00">Nif::StructPropT&lt; S</text>
<text text-anchor="middle" x="1165" y="-145" font-family="FreeSans" font-size="10.00">_AlphaProperty &gt;</text>
<polyline fill="none" stroke="black" points="1110,-138 1220,-138 "/>
<text text-anchor="start" x="1118" y="-126" font-family="FreeSans" font-size="10.00">+ data</text>
<polyline fill="none" stroke="black" points="1110,-119 1220,-119 "/>
<text text-anchor="start" x="1118" y="-107" font-family="FreeSans" font-size="10.00">+ read()</text>
</a>
</g>
</g>
<!-- Node1&#45;&gt;Node14 -->
<g id="edge13" class="edge"><title>Node1&#45;&gt;Node14</title>
<path fill="none" stroke="midnightblue" d="M868.441,-231.675C925.397,-223.171 1022.05,-205.368 1100,-174 1104.27,-172.281 1108.59,-170.302 1112.87,-168.168"/>
<polygon fill="none" stroke="midnightblue" points="867.672,-228.25 858.282,-233.156 868.682,-235.177 867.672,-228.25"/>
</g>
<!-- Node16 -->
<g id="node16" class="node"><title>Node16</title>
<g id="a_node16"><a xlink:href="structNif_1_1StructPropT.html" target="_top" xlink:title="{Nif::StructPropT\&lt; S\l_MaterialProperty \&gt;\n|+ data\l|+ read()\l}">
<polygon fill="white" stroke="black" points="1238,-100 1238,-168 1350,-168 1350,-100 1238,-100"/>
<text text-anchor="start" x="1246" y="-156" font-family="FreeSans" font-size="10.00">Nif::StructPropT&lt; S</text>
<text text-anchor="middle" x="1294" y="-145" font-family="FreeSans" font-size="10.00">_MaterialProperty &gt;</text>
<polyline fill="none" stroke="black" points="1238,-138 1350,-138 "/>
<text text-anchor="start" x="1246" y="-126" font-family="FreeSans" font-size="10.00">+ data</text>
<polyline fill="none" stroke="black" points="1238,-119 1350,-119 "/>
<text text-anchor="start" x="1246" y="-107" font-family="FreeSans" font-size="10.00">+ read()</text>
</a>
</g>
</g>
<!-- Node1&#45;&gt;Node16 -->
<g id="edge15" class="edge"><title>Node1&#45;&gt;Node16</title>
<path fill="none" stroke="midnightblue" d="M868.153,-236.417C946.163,-232.553 1104.04,-219.307 1229,-174 1233.58,-172.34 1238.19,-170.346 1242.73,-168.148"/>
<polygon fill="none" stroke="midnightblue" points="867.965,-232.922 858.139,-236.882 868.291,-239.914 867.965,-232.922"/>
</g>
<!-- Node18 -->
<g id="node18" class="node"><title>Node18</title>
<g id="a_node18"><a xlink:href="structNif_1_1StructPropT.html" target="_top" xlink:title="{Nif::StructPropT\&lt; S\l_StencilProperty \&gt;\n|+ data\l|+ read()\l}">
<polygon fill="white" stroke="black" points="1373,-100 1373,-168 1483,-168 1483,-100 1373,-100"/>
<text text-anchor="start" x="1381" y="-156" font-family="FreeSans" font-size="10.00">Nif::StructPropT&lt; S</text>
<text text-anchor="middle" x="1428" y="-145" font-family="FreeSans" font-size="10.00">_StencilProperty &gt;</text>
<polyline fill="none" stroke="black" points="1373,-138 1483,-138 "/>
<text text-anchor="start" x="1381" y="-126" font-family="FreeSans" font-size="10.00">+ data</text>
<polyline fill="none" stroke="black" points="1373,-119 1483,-119 "/>
<text text-anchor="start" x="1381" y="-107" font-family="FreeSans" font-size="10.00">+ read()</text>
</a>
</g>
</g>
<!-- Node1&#45;&gt;Node18 -->
<g id="edge17" class="edge"><title>Node1&#45;&gt;Node18</title>
<path fill="none" stroke="midnightblue" d="M868.512,-238.456C964.457,-238.017 1184.21,-230.313 1358,-174 1363.03,-172.37 1368.11,-170.365 1373.11,-168.132"/>
<polygon fill="none" stroke="midnightblue" points="868.246,-234.956 858.253,-238.477 868.26,-241.956 868.246,-234.956"/>
</g>
<!-- Node20 -->
<g id="node20" class="node"><title>Node20</title>
<g id="a_node20"><a xlink:href="structNif_1_1StructPropT.html" target="_top" xlink:title="{Nif::StructPropT\&lt; S\l_VertexColorProperty \&gt;\n|+ data\l|+ read()\l}">
<polygon fill="white" stroke="black" points="1508.5,-100 1508.5,-168 1637.5,-168 1637.5,-100 1508.5,-100"/>
<text text-anchor="start" x="1516.5" y="-156" font-family="FreeSans" font-size="10.00">Nif::StructPropT&lt; S</text>
<text text-anchor="middle" x="1573" y="-145" font-family="FreeSans" font-size="10.00">_VertexColorProperty &gt;</text>
<polyline fill="none" stroke="black" points="1508.5,-138 1637.5,-138 "/>
<text text-anchor="start" x="1516.5" y="-126" font-family="FreeSans" font-size="10.00">+ data</text>
<polyline fill="none" stroke="black" points="1508.5,-119 1637.5,-119 "/>
<text text-anchor="start" x="1516.5" y="-107" font-family="FreeSans" font-size="10.00">+ read()</text>
</a>
</g>
</g>
<!-- Node1&#45;&gt;Node20 -->
<g id="edge19" class="edge"><title>Node1&#45;&gt;Node20</title>
<path fill="none" stroke="midnightblue" d="M868.471,-235.606C1002.21,-228.648 1374.25,-206.82 1492,-174 1497.86,-172.366 1503.82,-170.324 1509.71,-168.037"/>
<polygon fill="none" stroke="midnightblue" points="867.947,-232.128 858.14,-236.138 868.307,-239.119 867.947,-232.128"/>
</g>
<!-- Node2 -->
<g id="node2" class="node"><title>Node2</title>
<g id="a_node2"><a xlink:href="classNif_1_1Named.html" target="_top" xlink:title="Has name, extra&#45;data and controller. ">
<polygon fill="white" stroke="black" points="784.5,-304.5 784.5,-361.5 855.5,-361.5 855.5,-304.5 784.5,-304.5"/>
<text text-anchor="middle" x="820" y="-349.5" font-family="FreeSans" font-size="10.00">Nif::Named</text>
<polyline fill="none" stroke="black" points="784.5,-342.5 855.5,-342.5 "/>
<text text-anchor="start" x="792.5" y="-330.5" font-family="FreeSans" font-size="10.00">+ name</text>
<polyline fill="none" stroke="black" points="784.5,-323.5 855.5,-323.5 "/>
<text text-anchor="start" x="792.5" y="-311.5" font-family="FreeSans" font-size="10.00">+ read()</text>
</a>
</g>
</g>
<!-- Node2&#45;&gt;Node1 -->
<g id="edge1" class="edge"><title>Node2&#45;&gt;Node1</title>
<path fill="none" stroke="midnightblue" d="M820,-294.209C820,-285.293 820,-275.951 820,-267.584"/>
<polygon fill="none" stroke="midnightblue" points="816.5,-294.397 820,-304.397 823.5,-294.397 816.5,-294.397"/>
</g>
<!-- Node3 -->
<g id="node3" class="node"><title>Node3</title>
<g id="a_node3"><a xlink:href="classNif_1_1Controlled.html" target="_top" xlink:title="Anything that has a controller. ">
<polygon fill="white" stroke="black" points="778,-399 778,-467 862,-467 862,-399 778,-399"/>
<text text-anchor="middle" x="820" y="-455" font-family="FreeSans" font-size="10.00">Nif::Controlled</text>
<polyline fill="none" stroke="black" points="778,-448 862,-448 "/>
<text text-anchor="start" x="786" y="-436" font-family="FreeSans" font-size="10.00">+ controller</text>
<polyline fill="none" stroke="black" points="778,-429 862,-429 "/>
<text text-anchor="start" x="786" y="-417" font-family="FreeSans" font-size="10.00">+ read()</text>
<text text-anchor="start" x="786" y="-406" font-family="FreeSans" font-size="10.00">+ post()</text>
</a>
</g>
</g>
<!-- Node3&#45;&gt;Node2 -->
<g id="edge2" class="edge"><title>Node3&#45;&gt;Node2</title>
<path fill="none" stroke="midnightblue" d="M820,-388.638C820,-379.455 820,-370.005 820,-361.6"/>
<polygon fill="none" stroke="midnightblue" points="816.5,-388.822 820,-398.822 823.5,-388.822 816.5,-388.822"/>
</g>
<!-- Node4 -->
<g id="node4" class="node"><title>Node4</title>
<g id="a_node4"><a xlink:href="classNif_1_1Extra.html" target="_top" xlink:title="{Nif::Extra\n|+ extra\l|+ read()\l+ post()\l}">
<polygon fill="white" stroke="black" points="790,-505 790,-573 850,-573 850,-505 790,-505"/>
<text text-anchor="middle" x="820" y="-561" font-family="FreeSans" font-size="10.00">Nif::Extra</text>
<polyline fill="none" stroke="black" points="790,-554 850,-554 "/>
<text text-anchor="start" x="798" y="-542" font-family="FreeSans" font-size="10.00">+ extra</text>
<polyline fill="none" stroke="black" points="790,-535 850,-535 "/>
<text text-anchor="start" x="798" y="-523" font-family="FreeSans" font-size="10.00">+ read()</text>
<text text-anchor="start" x="798" y="-512" font-family="FreeSans" font-size="10.00">+ post()</text>
</a>
</g>
</g>
<!-- Node4&#45;&gt;Node3 -->
<g id="edge3" class="edge"><title>Node4&#45;&gt;Node3</title>
<path fill="none" stroke="midnightblue" d="M820,-494.674C820,-485.502 820,-475.961 820,-467.234"/>
<polygon fill="none" stroke="midnightblue" points="816.5,-494.808 820,-504.808 823.5,-494.808 816.5,-494.808"/>
</g>
<!-- Node5 -->
<g id="node5" class="node"><title>Node5</title>
<g id="a_node5"><a xlink:href="structNif_1_1Record.html" target="_top" xlink:title="Base class for all records. ">
<polygon fill="white" stroke="black" points="782,-611 782,-723 858,-723 858,-611 782,-611"/>
<text text-anchor="middle" x="820" y="-711" font-family="FreeSans" font-size="10.00">Nif::Record</text>
<polyline fill="none" stroke="black" points="782,-704 858,-704 "/>
<text text-anchor="start" x="790" y="-692" font-family="FreeSans" font-size="10.00">+ recType</text>
<text text-anchor="start" x="790" y="-681" font-family="FreeSans" font-size="10.00">+ recName</text>
<text text-anchor="start" x="790" y="-670" font-family="FreeSans" font-size="10.00">+ recIndex</text>
<polyline fill="none" stroke="black" points="782,-663 858,-663 "/>
<text text-anchor="start" x="790" y="-651" font-family="FreeSans" font-size="10.00">+ Record()</text>
<text text-anchor="start" x="790" y="-640" font-family="FreeSans" font-size="10.00">+ read()</text>
<text text-anchor="start" x="790" y="-629" font-family="FreeSans" font-size="10.00">+ post()</text>
<text text-anchor="start" x="790" y="-618" font-family="FreeSans" font-size="10.00">+ ~Record()</text>
</a>
</g>
</g>
<!-- Node5&#45;&gt;Node4 -->
<g id="edge4" class="edge"><title>Node5&#45;&gt;Node4</title>
<path fill="none" stroke="midnightblue" d="M820,-600.461C820,-590.984 820,-581.583 820,-573.119"/>
<polygon fill="none" stroke="midnightblue" points="816.5,-600.735 820,-610.735 823.5,-600.735 816.5,-600.735"/>
</g>
<!-- Node15 -->
<g id="node15" class="node"><title>Node15</title>
<g id="a_node15"><a xlink:href="classNif_1_1NiAlphaProperty.html" target="_top" xlink:title="{Nif::NiAlphaProperty\n||}">
<polygon fill="white" stroke="black" points="1098.5,-0.5 1098.5,-57.5 1211.5,-57.5 1211.5,-0.5 1098.5,-0.5"/>
<text text-anchor="middle" x="1155" y="-45.5" font-family="FreeSans" font-size="10.00">Nif::NiAlphaProperty</text>
<polyline fill="none" stroke="black" points="1098.5,-38.5 1211.5,-38.5 "/>
<text text-anchor="middle" x="1155" y="-26.5" font-family="FreeSans" font-size="10.00"> </text>
<polyline fill="none" stroke="black" points="1098.5,-19.5 1211.5,-19.5 "/>
<text text-anchor="middle" x="1155" y="-7.5" font-family="FreeSans" font-size="10.00"> </text>
</a>
</g>
</g>
<!-- Node14&#45;&gt;Node15 -->
<g id="edge14" class="edge"><title>Node14&#45;&gt;Node15</title>
<path fill="none" stroke="midnightblue" d="M1160.79,-89.6478C1159.74,-78.7873 1158.63,-67.4308 1157.68,-57.5767"/>
<polygon fill="none" stroke="midnightblue" points="1157.33,-90.2282 1161.78,-99.8432 1164.3,-89.5517 1157.33,-90.2282"/>
</g>
<!-- Node17 -->
<g id="node17" class="node"><title>Node17</title>
<g id="a_node17"><a xlink:href="classNif_1_1NiMaterialProperty.html" target="_top" xlink:title="{Nif::NiMaterialProperty\n||}">
<polygon fill="white" stroke="black" points="1230,-0.5 1230,-57.5 1354,-57.5 1354,-0.5 1230,-0.5"/>
<text text-anchor="middle" x="1292" y="-45.5" font-family="FreeSans" font-size="10.00">Nif::NiMaterialProperty</text>
<polyline fill="none" stroke="black" points="1230,-38.5 1354,-38.5 "/>
<text text-anchor="middle" x="1292" y="-26.5" font-family="FreeSans" font-size="10.00"> </text>
<polyline fill="none" stroke="black" points="1230,-19.5 1354,-19.5 "/>
<text text-anchor="middle" x="1292" y="-7.5" font-family="FreeSans" font-size="10.00"> </text>
</a>
</g>
</g>
<!-- Node16&#45;&gt;Node17 -->
<g id="edge16" class="edge"><title>Node16&#45;&gt;Node17</title>
<path fill="none" stroke="midnightblue" d="M1293.16,-89.6478C1292.95,-78.7873 1292.73,-67.4308 1292.54,-57.5767"/>
<polygon fill="none" stroke="midnightblue" points="1289.66,-89.9131 1293.36,-99.8432 1296.66,-89.7771 1289.66,-89.9131"/>
</g>
<!-- Node19 -->
<g id="node19" class="node"><title>Node19</title>
<g id="a_node19"><a xlink:href="classNif_1_1NiStencilProperty.html" target="_top" xlink:title="{Nif::NiStencilProperty\n||}">
<polygon fill="white" stroke="black" points="1372,-0.5 1372,-57.5 1490,-57.5 1490,-0.5 1372,-0.5"/>
<text text-anchor="middle" x="1431" y="-45.5" font-family="FreeSans" font-size="10.00">Nif::NiStencilProperty</text>
<polyline fill="none" stroke="black" points="1372,-38.5 1490,-38.5 "/>
<text text-anchor="middle" x="1431" y="-26.5" font-family="FreeSans" font-size="10.00"> </text>
<polyline fill="none" stroke="black" points="1372,-19.5 1490,-19.5 "/>
<text text-anchor="middle" x="1431" y="-7.5" font-family="FreeSans" font-size="10.00"> </text>
</a>
</g>
</g>
<!-- Node18&#45;&gt;Node19 -->
<g id="edge18" class="edge"><title>Node18&#45;&gt;Node19</title>
<path fill="none" stroke="midnightblue" d="M1429.26,-89.6478C1429.58,-78.7873 1429.91,-67.4308 1430.2,-57.5767"/>
<polygon fill="none" stroke="midnightblue" points="1425.76,-89.7455 1428.97,-99.8432 1432.76,-89.9494 1425.76,-89.7455"/>
</g>
<!-- Node21 -->
<g id="node21" class="node"><title>Node21</title>
<g id="a_node21"><a xlink:href="classNif_1_1NiVertexColorProperty.html" target="_top" xlink:title="{Nif::NiVertexColorProperty\n||}">
<polygon fill="white" stroke="black" points="1508.5,-0.5 1508.5,-57.5 1649.5,-57.5 1649.5,-0.5 1508.5,-0.5"/>
<text text-anchor="middle" x="1579" y="-45.5" font-family="FreeSans" font-size="10.00">Nif::NiVertexColorProperty</text>
<polyline fill="none" stroke="black" points="1508.5,-38.5 1649.5,-38.5 "/>
<text text-anchor="middle" x="1579" y="-26.5" font-family="FreeSans" font-size="10.00"> </text>
<polyline fill="none" stroke="black" points="1508.5,-19.5 1649.5,-19.5 "/>
<text text-anchor="middle" x="1579" y="-7.5" font-family="FreeSans" font-size="10.00"> </text>
</a>
</g>
</g>
<!-- Node20&#45;&gt;Node21 -->
<g id="edge20" class="edge"><title>Node20&#45;&gt;Node21</title>
<path fill="none" stroke="midnightblue" d="M1575.53,-89.6478C1576.16,-78.7873 1576.82,-67.4308 1577.39,-57.5767"/>
<polygon fill="none" stroke="midnightblue" points="1572.02,-89.6565 1574.93,-99.8432 1579.01,-90.0637 1572.02,-89.6565"/>
</g>
</g>
</svg>
