<?xml version="1.0" encoding="UTF-8" standalone="no"?>
<!DOCTYPE svg PUBLIC "-//W3C//DTD SVG 1.1//EN"
 "http://www.w3.org/Graphics/SVG/1.1/DTD/svg11.dtd">
<!-- Generated by graphviz version 2.36.0 (20140111.2315)
 -->
<!-- Title: MWSound::OpenAL_Output::getStreamOffset Pages: 1 -->
<svg width="620pt" height="38pt"
 viewBox="0.00 0.00 620.00 38.00" xmlns="http://www.w3.org/2000/svg" xmlns:xlink="http://www.w3.org/1999/xlink">
<g id="graph0" class="graph" transform="scale(1 1) rotate(0) translate(4 34)">
<title>MWSound::OpenAL_Output::getStreamOffset</title>
<polygon fill="white" stroke="none" points="-4,4 -4,-34 616,-34 616,4 -4,4"/>
<!-- Node1 -->
<g id="node1" class="node"><title>Node1</title>
<polygon fill="#bfbfbf" stroke="black" points="0,-0 0,-30 136,-30 136,-0 0,-0"/>
<text text-anchor="start" x="8" y="-18" font-family="FreeSans" font-size="10.00">MWSound::OpenAL_Output</text>
<text text-anchor="middle" x="68" y="-7" font-family="FreeSans" font-size="10.00">::getStreamOffset</text>
</g>
<!-- Node2 -->
<g id="node2" class="node"><title>Node2</title>
<g id="a_node2"><a xlink:href="classMWSound_1_1OpenAL__SoundStream.html#a369d1296a476f9abdc638d94db0b21fa" target="_top" xlink:title="MWSound::OpenAL_SoundStream\l::getStreamOffset">
<polygon fill="white" stroke="black" points="172,-0 172,-30 338,-30 338,-0 172,-0"/>
<text text-anchor="start" x="180" y="-18" font-family="FreeSans" font-size="10.00">MWSound::OpenAL_SoundStream</text>
<text text-anchor="middle" x="255" y="-7" font-family="FreeSans" font-size="10.00">::getStreamOffset</text>
</a>
</g>
</g>
<!-- Node1&#45;&gt;Node2 -->
<g id="edge1" class="edge"><title>Node1&#45;&gt;Node2</title>
<path fill="none" stroke="midnightblue" d="M136.051,-15C144.375,-15 152.997,-15 161.618,-15"/>
<polygon fill="midnightblue" stroke="midnightblue" points="161.72,-18.5001 171.72,-15 161.72,-11.5001 161.72,-18.5001"/>
</g>
<!-- Node3 -->
<g id="node3" class="node"><title>Node3</title>
<g id="a_node3"><a xlink:href="namespaceMWSound.html#a96d38e803898cb4ed4a7c517bfce1744" target="_top" xlink:title="MWSound::throwALerror">
<polygon fill="white" stroke="black" points="374.5,-5.5 374.5,-24.5 495.5,-24.5 495.5,-5.5 374.5,-5.5"/>
<text text-anchor="middle" x="435" y="-12.5" font-family="FreeSans" font-size="10.00">MWSound::throwALerror</text>
</a>
</g>
</g>
<!-- Node2&#45;&gt;Node3 -->
<g id="edge2" class="edge"><title>Node2&#45;&gt;Node3</title>
<path fill="none" stroke="midnightblue" d="M338.227,-15C346.904,-15 355.669,-15 364.187,-15"/>
<polygon fill="midnightblue" stroke="midnightblue" points="364.433,-18.5001 374.433,-15 364.433,-11.5001 364.433,-18.5001"/>
</g>
<!-- Node4 -->
<g id="node4" class="node"><title>Node4</title>
<g id="a_node4"><a xlink:href="namespaceMWSound.html#a5af807129994f7f0a49c40d728843e5c" target="_top" xlink:title="MWSound::fail">
<polygon fill="white" stroke="black" points="532.5,-5.5 532.5,-24.5 611.5,-24.5 611.5,-5.5 532.5,-5.5"/>
<text text-anchor="middle" x="572" y="-12.5" font-family="FreeSans" font-size="10.00">MWSound::fail</text>
</a>
</g>
</g>
<!-- Node3&#45;&gt;Node4 -->
<g id="edge3" class="edge"><title>Node3&#45;&gt;Node4</title>
<path fill="none" stroke="midnightblue" d="M495.606,-15C504.444,-15 513.465,-15 522.052,-15"/>
<polygon fill="midnightblue" stroke="midnightblue" points="522.269,-18.5001 532.269,-15 522.269,-11.5001 522.269,-18.5001"/>
</g>
</g>
</svg>
