<?xml version="1.0" encoding="UTF-8" standalone="no"?>
<!DOCTYPE svg PUBLIC "-//W3C//DTD SVG 1.1//EN"
 "http://www.w3.org/Graphics/SVG/1.1/DTD/svg11.dtd">
<!-- Generated by graphviz version 2.36.0 (20140111.2315)
 -->
<!-- Title: Launcher::GraphicsPage Pages: 1 -->
<svg width="684pt" height="888pt"
 viewBox="0.00 0.00 684.00 888.00" xmlns="http://www.w3.org/2000/svg" xmlns:xlink="http://www.w3.org/1999/xlink">
<g id="graph0" class="graph" transform="scale(1 1) rotate(0) translate(4 884)">
<title>Launcher::GraphicsPage</title>
<polygon fill="white" stroke="none" points="-4,4 -4,-884 680,-884 680,4 -4,4"/>
<!-- Node1 -->
<g id="node1" class="node"><title>Node1</title>
<polygon fill="#bfbfbf" stroke="black" points="94,-0.5 94,-145.5 224,-145.5 224,-0.5 94,-0.5"/>
<text text-anchor="middle" x="159" y="-133.5" font-family="FreeSans" font-size="10.00">Launcher::GraphicsPage</text>
<polyline fill="none" stroke="black" points="94,-126.5 224,-126.5 "/>
<text text-anchor="middle" x="159" y="-114.5" font-family="FreeSans" font-size="10.00"> </text>
<polyline fill="none" stroke="black" points="94,-107.5 224,-107.5 "/>
<text text-anchor="start" x="102" y="-95.5" font-family="FreeSans" font-size="10.00">+ GraphicsPage()</text>
<text text-anchor="start" x="102" y="-84.5" font-family="FreeSans" font-size="10.00">+ saveSettings()</text>
<text text-anchor="start" x="102" y="-73.5" font-family="FreeSans" font-size="10.00">+ loadSettings()</text>
<text text-anchor="start" x="102" y="-62.5" font-family="FreeSans" font-size="10.00">+ screenChanged()</text>
<text text-anchor="start" x="102" y="-51.5" font-family="FreeSans" font-size="10.00">&#45; getAvailableResolutions()</text>
<text text-anchor="start" x="102" y="-40.5" font-family="FreeSans" font-size="10.00">&#45; getMaximumResolution()</text>
<text text-anchor="start" x="102" y="-29.5" font-family="FreeSans" font-size="10.00">&#45; setupSDL()</text>
<text text-anchor="start" x="102" y="-18.5" font-family="FreeSans" font-size="10.00">&#45; slotFullScreenChanged()</text>
<text text-anchor="start" x="102" y="-7.5" font-family="FreeSans" font-size="10.00">&#45; slotStandardToggled()</text>
</g>
<!-- Node2 -->
<g id="node2" class="node"><title>Node2</title>
<g id="a_node2"><a xlink:href="classQWidget.html" target="_top" xlink:title="{QWidget\n||}">
<polygon fill="white" stroke="black" points="0,-271.5 0,-328.5 54,-328.5 54,-271.5 0,-271.5"/>
<text text-anchor="middle" x="27" y="-316.5" font-family="FreeSans" font-size="10.00">QWidget</text>
<polyline fill="none" stroke="black" points="0,-309.5 54,-309.5 "/>
<text text-anchor="middle" x="27" y="-297.5" font-family="FreeSans" font-size="10.00"> </text>
<polyline fill="none" stroke="black" points="0,-290.5 54,-290.5 "/>
<text text-anchor="middle" x="27" y="-278.5" font-family="FreeSans" font-size="10.00"> </text>
</a>
</g>
</g>
<!-- Node2&#45;&gt;Node1 -->
<g id="edge1" class="edge"><title>Node2&#45;&gt;Node1</title>
<path fill="none" stroke="midnightblue" d="M36.451,-261.47C42.4768,-240.831 51.3546,-215.19 63,-194 72.0592,-177.516 83.4093,-161.011 95.1016,-145.745"/>
<polygon fill="none" stroke="midnightblue" points="33.0643,-260.584 33.7223,-271.159 39.8022,-262.482 33.0643,-260.584"/>
</g>
<!-- Node3 -->
<g id="node3" class="node"><title>Node3</title>
<polygon fill="white" stroke="#bfbfbf" points="72.5,-271.5 72.5,-328.5 163.5,-328.5 163.5,-271.5 72.5,-271.5"/>
<text text-anchor="middle" x="118" y="-316.5" font-family="FreeSans" font-size="10.00">Ui::GraphicsPage</text>
<polyline fill="none" stroke="#bfbfbf" points="72.5,-309.5 163.5,-309.5 "/>
<text text-anchor="middle" x="118" y="-297.5" font-family="FreeSans" font-size="10.00"> </text>
<polyline fill="none" stroke="#bfbfbf" points="72.5,-290.5 163.5,-290.5 "/>
<text text-anchor="middle" x="118" y="-278.5" font-family="FreeSans" font-size="10.00"> </text>
</g>
<!-- Node3&#45;&gt;Node1 -->
<g id="edge2" class="edge"><title>Node3&#45;&gt;Node1</title>
<path fill="none" stroke="#8b1a1a" d="M124.865,-261.327C130.594,-229.887 138.922,-184.183 145.918,-145.791"/>
<polygon fill="none" stroke="#8b1a1a" points="121.377,-260.945 123.027,-271.411 128.263,-262.2 121.377,-260.945"/>
</g>
<!-- Node4 -->
<g id="node4" class="node"><title>Node4</title>
<g id="a_node4"><a xlink:href="structFiles_1_1ConfigurationManager.html" target="_top" xlink:title="{Files::ConfigurationManager\n||+ ConfigurationManager()\l+ ~ConfigurationManager()\l+ readConfiguration()\l+ processPaths()\l+ getGlobalPath()\l+ getUserConfigPath()\l+ getLocalPath()\l+ getGlobalDataPath()\l+ getUserDataPath()\l+ getLocalDataPath()\l+ getInstallPath()\l+ getCachePath()\l+ getLogPath()\l&#45; loadConfig()\l&#45; setupTokensMapping()\l}">
<polygon fill="white" stroke="black" points="181.5,-194.5 181.5,-405.5 316.5,-405.5 316.5,-194.5 181.5,-194.5"/>
<text text-anchor="middle" x="249" y="-393.5" font-family="FreeSans" font-size="10.00">Files::ConfigurationManager</text>
<polyline fill="none" stroke="black" points="181.5,-386.5 316.5,-386.5 "/>
<text text-anchor="middle" x="249" y="-374.5" font-family="FreeSans" font-size="10.00"> </text>
<polyline fill="none" stroke="black" points="181.5,-367.5 316.5,-367.5 "/>
<text text-anchor="start" x="189.5" y="-355.5" font-family="FreeSans" font-size="10.00">+ ConfigurationManager()</text>
<text text-anchor="start" x="189.5" y="-344.5" font-family="FreeSans" font-size="10.00">+ ~ConfigurationManager()</text>
<text text-anchor="start" x="189.5" y="-333.5" font-family="FreeSans" font-size="10.00">+ readConfiguration()</text>
<text text-anchor="start" x="189.5" y="-322.5" font-family="FreeSans" font-size="10.00">+ processPaths()</text>
<text text-anchor="start" x="189.5" y="-311.5" font-family="FreeSans" font-size="10.00">+ getGlobalPath()</text>
<text text-anchor="start" x="189.5" y="-300.5" font-family="FreeSans" font-size="10.00">+ getUserConfigPath()</text>
<text text-anchor="start" x="189.5" y="-289.5" font-family="FreeSans" font-size="10.00">+ getLocalPath()</text>
<text text-anchor="start" x="189.5" y="-278.5" font-family="FreeSans" font-size="10.00">+ getGlobalDataPath()</text>
<text text-anchor="start" x="189.5" y="-267.5" font-family="FreeSans" font-size="10.00">+ getUserDataPath()</text>
<text text-anchor="start" x="189.5" y="-256.5" font-family="FreeSans" font-size="10.00">+ getLocalDataPath()</text>
<text text-anchor="start" x="189.5" y="-245.5" font-family="FreeSans" font-size="10.00">+ getInstallPath()</text>
<text text-anchor="start" x="189.5" y="-234.5" font-family="FreeSans" font-size="10.00">+ getCachePath()</text>
<text text-anchor="start" x="189.5" y="-223.5" font-family="FreeSans" font-size="10.00">+ getLogPath()</text>
<text text-anchor="start" x="189.5" y="-212.5" font-family="FreeSans" font-size="10.00">&#45; loadConfig()</text>
<text text-anchor="start" x="189.5" y="-201.5" font-family="FreeSans" font-size="10.00">&#45; setupTokensMapping()</text>
</a>
</g>
</g>
<!-- Node4&#45;&gt;Node1 -->
<g id="edge3" class="edge"><title>Node4&#45;&gt;Node1</title>
<path fill="none" stroke="#404040" d="M207.162,-194.404C202.152,-181.881 197.091,-169.227 192.226,-157.066"/>
<polygon fill="none" stroke="#404040" points="192.088,-156.72 186.146,-152.634 187.631,-145.578 193.573,-149.663 192.088,-156.72"/>
<text text-anchor="middle" x="222" y="-167.5" font-family="FreeSans" font-size="10.00"> &#45;mCfgMgr</text>
</g>
<!-- Node5 -->
<g id="node5" class="node"><title>Node5</title>
<polygon fill="white" stroke="#bfbfbf" points="245.5,-714.5 245.5,-771.5 280.5,-771.5 280.5,-714.5 245.5,-714.5"/>
<text text-anchor="middle" x="263" y="-759.5" font-family="FreeSans" font-size="10.00">path</text>
<polyline fill="none" stroke="#bfbfbf" points="245.5,-752.5 280.5,-752.5 "/>
<text text-anchor="middle" x="263" y="-740.5" font-family="FreeSans" font-size="10.00"> </text>
<polyline fill="none" stroke="#bfbfbf" points="245.5,-733.5 280.5,-733.5 "/>
<text text-anchor="middle" x="263" y="-721.5" font-family="FreeSans" font-size="10.00"> </text>
</g>
<!-- Node5&#45;&gt;Node4 -->
<g id="edge4" class="edge"><title>Node5&#45;&gt;Node4</title>
<path fill="none" stroke="#404040" d="M261.981,-714.248C260.94,-685.625 259.296,-639.694 258,-600 256.042,-540.042 254.019,-473.315 252.387,-418.136"/>
<polygon fill="none" stroke="#404040" points="252.378,-417.818 248.203,-411.938 252.024,-405.823 256.199,-411.702 252.378,-417.818"/>
<text text-anchor="middle" x="283" y="-529.5" font-family="FreeSans" font-size="10.00"> &#45;mLogPath</text>
</g>
<!-- Node6 -->
<g id="node6" class="node"><title>Node6</title>
<g id="a_node6"><a xlink:href="structFiles_1_1FixedPath.html" target="_top" xlink:title="{Files::FixedPath\&lt; P \&gt;\n||+ FixedPath()\l+ getUserConfigPath()\l+ getUserDataPath()\l+ getGlobalConfigPath()\l+ getLocalPath()\l+ getInstallPath()\l+ getGlobalDataPath()\l+ getCachePath()\l}">
<polygon fill="white" stroke="black" points="317.5,-465 317.5,-599 436.5,-599 436.5,-465 317.5,-465"/>
<text text-anchor="middle" x="377" y="-587" font-family="FreeSans" font-size="10.00">Files::FixedPath&lt; P &gt;</text>
<polyline fill="none" stroke="black" points="317.5,-580 436.5,-580 "/>
<text text-anchor="middle" x="377" y="-568" font-family="FreeSans" font-size="10.00"> </text>
<polyline fill="none" stroke="black" points="317.5,-561 436.5,-561 "/>
<text text-anchor="start" x="325.5" y="-549" font-family="FreeSans" font-size="10.00">+ FixedPath()</text>
<text text-anchor="start" x="325.5" y="-538" font-family="FreeSans" font-size="10.00">+ getUserConfigPath()</text>
<text text-anchor="start" x="325.5" y="-527" font-family="FreeSans" font-size="10.00">+ getUserDataPath()</text>
<text text-anchor="start" x="325.5" y="-516" font-family="FreeSans" font-size="10.00">+ getGlobalConfigPath()</text>
<text text-anchor="start" x="325.5" y="-505" font-family="FreeSans" font-size="10.00">+ getLocalPath()</text>
<text text-anchor="start" x="325.5" y="-494" font-family="FreeSans" font-size="10.00">+ getInstallPath()</text>
<text text-anchor="start" x="325.5" y="-483" font-family="FreeSans" font-size="10.00">+ getGlobalDataPath()</text>
<text text-anchor="start" x="325.5" y="-472" font-family="FreeSans" font-size="10.00">+ getCachePath()</text>
</a>
</g>
</g>
<!-- Node5&#45;&gt;Node6 -->
<g id="edge6" class="edge"><title>Node5&#45;&gt;Node6</title>
<path fill="none" stroke="#404040" d="M264.78,-714.302C267.464,-688.071 274.186,-648.296 291,-618 294.094,-612.425 300.563,-604.709 308.63,-596.182"/>
<polygon fill="none" stroke="#404040" points="308.785,-596.024 310.112,-588.936 317.165,-587.435 315.838,-594.523 308.785,-596.024"/>
<text text-anchor="middle" x="335.5" y="-687.5" font-family="FreeSans" font-size="10.00"> &#45;mGlobalConfigPath</text>
<text text-anchor="middle" x="335.5" y="-676.5" font-family="FreeSans" font-size="10.00">&#45;mInstallPath</text>
<text text-anchor="middle" x="335.5" y="-665.5" font-family="FreeSans" font-size="10.00">&#45;mLocalPath</text>
<text text-anchor="middle" x="335.5" y="-654.5" font-family="FreeSans" font-size="10.00">&#45;mUserDataPath</text>
<text text-anchor="middle" x="335.5" y="-643.5" font-family="FreeSans" font-size="10.00">&#45;mUserConfigPath</text>
<text text-anchor="middle" x="335.5" y="-632.5" font-family="FreeSans" font-size="10.00">&#45;mGlobalDataPath</text>
<text text-anchor="middle" x="335.5" y="-621.5" font-family="FreeSans" font-size="10.00">&#45;mCachePath</text>
</g>
<!-- Node6&#45;&gt;Node4 -->
<g id="edge5" class="edge"><title>Node6&#45;&gt;Node4</title>
<path fill="none" stroke="#404040" d="M340.149,-464.783C331.728,-449.651 322.537,-433.136 313.336,-416.604"/>
<polygon fill="none" stroke="#404040" points="313.133,-416.238 306.72,-412.941 307.297,-405.753 313.71,-409.05 313.133,-416.238"/>
<text text-anchor="middle" x="358" y="-432.5" font-family="FreeSans" font-size="10.00"> &#45;mFixedPath</text>
</g>
<!-- Node7 -->
<g id="node7" class="node"><title>Node7</title>
<polygon fill="white" stroke="#bfbfbf" points="379.5,-714.5 379.5,-771.5 408.5,-771.5 408.5,-714.5 379.5,-714.5"/>
<text text-anchor="middle" x="394" y="-759.5" font-family="FreeSans" font-size="10.00">P</text>
<polyline fill="none" stroke="#bfbfbf" points="379.5,-752.5 408.5,-752.5 "/>
<text text-anchor="middle" x="394" y="-740.5" font-family="FreeSans" font-size="10.00"> </text>
<polyline fill="none" stroke="#bfbfbf" points="379.5,-733.5 408.5,-733.5 "/>
<text text-anchor="middle" x="394" y="-721.5" font-family="FreeSans" font-size="10.00"> </text>
</g>
<!-- Node7&#45;&gt;Node6 -->
<g id="edge7" class="edge"><title>Node7&#45;&gt;Node6</title>
<path fill="none" stroke="#404040" d="M391.743,-714.246C389.608,-688.009 386.304,-647.386 383.364,-611.244"/>
<polygon fill="none" stroke="#404040" points="383.357,-611.147 378.883,-605.491 382.384,-599.186 386.857,-604.842 383.357,-611.147"/>
<text text-anchor="middle" x="407" y="-654.5" font-family="FreeSans" font-size="10.00"> &#45;mPath</text>
</g>
<!-- Node8 -->
<g id="node8" class="node"><title>Node8</title>
<g id="a_node8"><a xlink:href="classbool.html" target="_top" xlink:title="{bool\n||}">
<polygon fill="white" stroke="black" points="51.5,-503.5 51.5,-560.5 86.5,-560.5 86.5,-503.5 51.5,-503.5"/>
<text text-anchor="middle" x="69" y="-548.5" font-family="FreeSans" font-size="10.00">bool</text>
<polyline fill="none" stroke="black" points="51.5,-541.5 86.5,-541.5 "/>
<text text-anchor="middle" x="69" y="-529.5" font-family="FreeSans" font-size="10.00"> </text>
<polyline fill="none" stroke="black" points="51.5,-522.5 86.5,-522.5 "/>
<text text-anchor="middle" x="69" y="-510.5" font-family="FreeSans" font-size="10.00"> </text>
</a>
</g>
</g>
<!-- Node8&#45;&gt;Node4 -->
<g id="edge8" class="edge"><title>Node8&#45;&gt;Node4</title>
<path fill="none" stroke="#404040" d="M71.1157,-503.421C74.4451,-479.192 83.0049,-444.67 105,-424 125.099,-405.112 142.492,-419.549 170.782,-405.325"/>
<polygon fill="none" stroke="#404040" points="170.992,-405.198 174.062,-398.673 181.265,-398.997 178.196,-405.522 170.992,-405.198"/>
<text text-anchor="middle" x="124.5" y="-432.5" font-family="FreeSans" font-size="10.00"> &#45;mSilent</text>
</g>
<!-- Node9 -->
<g id="node9" class="node"><title>Node9</title>
<polygon fill="white" stroke="#bfbfbf" points="105,-498 105,-566 209,-566 209,-498 105,-498"/>
<text text-anchor="start" x="113" y="-554" font-family="FreeSans" font-size="10.00">std::map&lt; std::string,</text>
<text text-anchor="middle" x="157" y="-543" font-family="FreeSans" font-size="10.00"> path_type_f &gt;</text>
<polyline fill="none" stroke="#bfbfbf" points="105,-536 209,-536 "/>
<text text-anchor="middle" x="157" y="-524" font-family="FreeSans" font-size="10.00"> </text>
<polyline fill="none" stroke="#bfbfbf" points="105,-517 209,-517 "/>
<text text-anchor="middle" x="157" y="-505" font-family="FreeSans" font-size="10.00"> </text>
</g>
<!-- Node9&#45;&gt;Node4 -->
<g id="edge9" class="edge"><title>Node9&#45;&gt;Node4</title>
<path fill="none" stroke="#404040" d="M148.602,-497.818C144.764,-475.971 143.011,-447.224 153,-424 157.596,-413.314 164.307,-414.725 172,-406 172.491,-405.444 172.981,-404.884 173.472,-404.322"/>
<polygon fill="none" stroke="#404040" points="173.631,-404.135 174.471,-396.973 181.406,-394.994 180.565,-402.156 173.631,-404.135"/>
<text text-anchor="middle" x="194" y="-432.5" font-family="FreeSans" font-size="10.00"> &#45;mTokensMapping</text>
</g>
<!-- Node10 -->
<g id="node10" class="node"><title>Node10</title>
<g id="a_node10"><a xlink:title="STL class. ">
<polygon fill="white" stroke="#bfbfbf" points="169.5,-714.5 169.5,-771.5 226.5,-771.5 226.5,-714.5 169.5,-714.5"/>
<text text-anchor="middle" x="198" y="-759.5" font-family="FreeSans" font-size="10.00">std::string</text>
<polyline fill="none" stroke="#bfbfbf" points="169.5,-752.5 226.5,-752.5 "/>
<text text-anchor="middle" x="198" y="-740.5" font-family="FreeSans" font-size="10.00"> </text>
<polyline fill="none" stroke="#bfbfbf" points="169.5,-733.5 226.5,-733.5 "/>
<text text-anchor="middle" x="198" y="-721.5" font-family="FreeSans" font-size="10.00"> </text>
</a>
</g>
</g>
<!-- Node10&#45;&gt;Node9 -->
<g id="edge10" class="edge"><title>Node10&#45;&gt;Node9</title>
<path fill="none" stroke="#404040" d="M192.556,-714.246C185.73,-679.454 173.943,-619.367 165.823,-577.975"/>
<polygon fill="none" stroke="#404040" points="165.792,-577.817 160.712,-572.7 163.482,-566.042 168.562,-571.16 165.792,-577.817"/>
<text text-anchor="middle" x="203" y="-654.5" font-family="FreeSans" font-size="10.00"> +keys</text>
</g>
<!-- Node11 -->
<g id="node11" class="node"><title>Node11</title>
<g id="a_node11"><a xlink:title="STL class. ">
<polygon fill="white" stroke="#bfbfbf" points="152.5,-811 152.5,-879 243.5,-879 243.5,-811 152.5,-811"/>
<text text-anchor="start" x="160.5" y="-867" font-family="FreeSans" font-size="10.00">std::basic_string&lt;</text>
<text text-anchor="middle" x="198" y="-856" font-family="FreeSans" font-size="10.00"> char &gt;</text>
<polyline fill="none" stroke="#bfbfbf" points="152.5,-849 243.5,-849 "/>
<text text-anchor="middle" x="198" y="-837" font-family="FreeSans" font-size="10.00"> </text>
<polyline fill="none" stroke="#bfbfbf" points="152.5,-830 243.5,-830 "/>
<text text-anchor="middle" x="198" y="-818" font-family="FreeSans" font-size="10.00"> </text>
</a>
</g>
</g>
<!-- Node11&#45;&gt;Node10 -->
<g id="edge11" class="edge"><title>Node11&#45;&gt;Node10</title>
<path fill="none" stroke="midnightblue" d="M198,-800.857C198,-790.952 198,-780.682 198,-771.64"/>
<polygon fill="none" stroke="midnightblue" points="194.5,-800.979 198,-810.979 201.5,-800.979 194.5,-800.979"/>
</g>
<!-- Node12 -->
<g id="node12" class="node"><title>Node12</title>
<polygon fill="white" stroke="#bfbfbf" points="84.5,-714.5 84.5,-771.5 151.5,-771.5 151.5,-714.5 84.5,-714.5"/>
<text text-anchor="middle" x="118" y="-759.5" font-family="FreeSans" font-size="10.00">path_type_f</text>
<polyline fill="none" stroke="#bfbfbf" points="84.5,-752.5 151.5,-752.5 "/>
<text text-anchor="middle" x="118" y="-740.5" font-family="FreeSans" font-size="10.00"> </text>
<polyline fill="none" stroke="#bfbfbf" points="84.5,-733.5 151.5,-733.5 "/>
<text text-anchor="middle" x="118" y="-721.5" font-family="FreeSans" font-size="10.00"> </text>
</g>
<!-- Node12&#45;&gt;Node9 -->
<g id="edge12" class="edge"><title>Node12&#45;&gt;Node9</title>
<path fill="none" stroke="#404040" d="M116.448,-714.084C115.668,-688.73 116.07,-650.448 123,-618 125.897,-604.434 130.771,-590.238 135.937,-577.418"/>
<polygon fill="none" stroke="#404040" points="136.052,-577.146 134.698,-570.063 140.715,-566.089 142.069,-573.172 136.052,-577.146"/>
<text text-anchor="middle" x="147" y="-654.5" font-family="FreeSans" font-size="10.00"> +elements</text>
</g>
<!-- Node13 -->
<g id="node13" class="node"><title>Node13</title>
<g id="a_node13"><a xlink:href="classSettings_1_1Manager.html" target="_top" xlink:title="Settings management (can change during runtime) ">
<polygon fill="white" stroke="black" points="446,-205.5 446,-394.5 540,-394.5 540,-205.5 446,-205.5"/>
<text text-anchor="middle" x="493" y="-382.5" font-family="FreeSans" font-size="10.00">Settings::Manager</text>
<polyline fill="none" stroke="black" points="446,-375.5 540,-375.5 "/>
<text text-anchor="middle" x="493" y="-363.5" font-family="FreeSans" font-size="10.00"> </text>
<polyline fill="none" stroke="black" points="446,-356.5 540,-356.5 "/>
<text text-anchor="start" x="454" y="-344.5" font-family="FreeSans" font-size="10.00">+ clear()</text>
<text text-anchor="start" x="454" y="-333.5" font-family="FreeSans" font-size="10.00">+ loadDefault()</text>
<text text-anchor="start" x="454" y="-322.5" font-family="FreeSans" font-size="10.00">+ loadUser()</text>
<text text-anchor="start" x="454" y="-311.5" font-family="FreeSans" font-size="10.00">+ saveUser()</text>
<text text-anchor="start" x="454" y="-300.5" font-family="FreeSans" font-size="10.00">+ apply()</text>
<text text-anchor="start" x="454" y="-289.5" font-family="FreeSans" font-size="10.00">+ getInt()</text>
<text text-anchor="start" x="454" y="-278.5" font-family="FreeSans" font-size="10.00">+ getFloat()</text>
<text text-anchor="start" x="454" y="-267.5" font-family="FreeSans" font-size="10.00">+ getString()</text>
<text text-anchor="start" x="454" y="-256.5" font-family="FreeSans" font-size="10.00">+ getBool()</text>
<text text-anchor="start" x="454" y="-245.5" font-family="FreeSans" font-size="10.00">+ setInt()</text>
<text text-anchor="start" x="454" y="-234.5" font-family="FreeSans" font-size="10.00">+ setFloat()</text>
<text text-anchor="start" x="454" y="-223.5" font-family="FreeSans" font-size="10.00">+ setString()</text>
<text text-anchor="start" x="454" y="-212.5" font-family="FreeSans" font-size="10.00">+ setBool()</text>
</a>
</g>
</g>
<!-- Node13&#45;&gt;Node1 -->
<g id="edge13" class="edge"><title>Node13&#45;&gt;Node1</title>
<path fill="none" stroke="#404040" d="M445.854,-267.24C390.893,-230.215 299.325,-168.53 234.443,-124.823"/>
<polygon fill="none" stroke="#404040" points="234.221,-124.673 227.01,-124.638 224.269,-117.969 231.48,-118.003 234.221,-124.673"/>
<text text-anchor="middle" x="346.5" y="-167.5" font-family="FreeSans" font-size="10.00"> &#45;mEngineSettings</text>
</g>
<!-- Node14 -->
<g id="node14" class="node"><title>Node14</title>
<g id="a_node14"><a xlink:title="STL class. ">
<polygon fill="white" stroke="#bfbfbf" points="454.5,-503.5 454.5,-560.5 541.5,-560.5 541.5,-503.5 454.5,-503.5"/>
<text text-anchor="middle" x="498" y="-548.5" font-family="FreeSans" font-size="10.00">std::map&lt; K, T &gt;</text>
<polyline fill="none" stroke="#bfbfbf" points="454.5,-541.5 541.5,-541.5 "/>
<text text-anchor="middle" x="498" y="-529.5" font-family="FreeSans" font-size="10.00"> </text>
<polyline fill="none" stroke="#bfbfbf" points="454.5,-522.5 541.5,-522.5 "/>
<text text-anchor="middle" x="498" y="-510.5" font-family="FreeSans" font-size="10.00"> </text>
</a>
</g>
</g>
<!-- Node14&#45;&gt;Node13 -->
<g id="edge14" class="edge"><title>Node14&#45;&gt;Node13</title>
<path fill="none" stroke="#404040" d="M496.423,-503.448C495.541,-486.818 494.518,-465.198 494,-446 493.657,-433.284 493.411,-419.938 493.236,-406.707"/>
<polygon fill="none" stroke="#404040" points="493.235,-406.609 489.165,-400.656 493.095,-394.609 497.164,-400.562 493.235,-406.609"/>
<text text-anchor="middle" x="535.5" y="-438" font-family="FreeSans" font-size="10.00"> +mDefaultSettings</text>
<text text-anchor="middle" x="535.5" y="-427" font-family="FreeSans" font-size="10.00">+mUserSettings</text>
</g>
<!-- Node15 -->
<g id="node15" class="node"><title>Node15</title>
<polygon fill="white" stroke="#bfbfbf" points="558.5,-714.5 558.5,-771.5 587.5,-771.5 587.5,-714.5 558.5,-714.5"/>
<text text-anchor="middle" x="573" y="-759.5" font-family="FreeSans" font-size="10.00">K</text>
<polyline fill="none" stroke="#bfbfbf" points="558.5,-752.5 587.5,-752.5 "/>
<text text-anchor="middle" x="573" y="-740.5" font-family="FreeSans" font-size="10.00"> </text>
<polyline fill="none" stroke="#bfbfbf" points="558.5,-733.5 587.5,-733.5 "/>
<text text-anchor="middle" x="573" y="-721.5" font-family="FreeSans" font-size="10.00"> </text>
</g>
<!-- Node15&#45;&gt;Node14 -->
<g id="edge15" class="edge"><title>Node15&#45;&gt;Node14</title>
<path fill="none" stroke="#404040" d="M558.465,-717.665C554.733,-710.808 550.946,-703.241 548,-696 534.427,-662.636 536.526,-652.447 526,-618 521.424,-603.025 516.112,-586.667 511.352,-572.336"/>
<polygon fill="none" stroke="#404040" points="511.316,-572.231 505.62,-567.809 507.511,-560.85 513.207,-565.272 511.316,-572.231"/>
<text text-anchor="middle" x="562" y="-654.5" font-family="FreeSans" font-size="10.00"> +keys</text>
</g>
<!-- Node17 -->
<g id="node17" class="node"><title>Node17</title>
<g id="a_node17"><a xlink:title="STL class. ">
<polygon fill="white" stroke="#bfbfbf" points="564,-503.5 564,-560.5 634,-560.5 634,-503.5 564,-503.5"/>
<text text-anchor="middle" x="599" y="-548.5" font-family="FreeSans" font-size="10.00">std::set&lt; K &gt;</text>
<polyline fill="none" stroke="#bfbfbf" points="564,-541.5 634,-541.5 "/>
<text text-anchor="middle" x="599" y="-529.5" font-family="FreeSans" font-size="10.00"> </text>
<polyline fill="none" stroke="#bfbfbf" points="564,-522.5 634,-522.5 "/>
<text text-anchor="middle" x="599" y="-510.5" font-family="FreeSans" font-size="10.00"> </text>
</a>
</g>
</g>
<!-- Node15&#45;&gt;Node17 -->
<g id="edge18" class="edge"><title>Node15&#45;&gt;Node17</title>
<path fill="none" stroke="#404040" d="M576.453,-714.246C580.972,-677.919 588.922,-614.015 594.073,-572.608"/>
<polygon fill="none" stroke="#404040" points="594.093,-572.444 590.864,-565.996 595.575,-560.535 598.803,-566.983 594.093,-572.444"/>
<text text-anchor="middle" x="603" y="-654.5" font-family="FreeSans" font-size="10.00"> +keys</text>
</g>
<!-- Node16 -->
<g id="node16" class="node"><title>Node16</title>
<polygon fill="white" stroke="#bfbfbf" points="462.5,-714.5 462.5,-771.5 491.5,-771.5 491.5,-714.5 462.5,-714.5"/>
<text text-anchor="middle" x="477" y="-759.5" font-family="FreeSans" font-size="10.00">T</text>
<polyline fill="none" stroke="#bfbfbf" points="462.5,-752.5 491.5,-752.5 "/>
<text text-anchor="middle" x="477" y="-740.5" font-family="FreeSans" font-size="10.00"> </text>
<polyline fill="none" stroke="#bfbfbf" points="462.5,-733.5 491.5,-733.5 "/>
<text text-anchor="middle" x="477" y="-721.5" font-family="FreeSans" font-size="10.00"> </text>
</g>
<!-- Node16&#45;&gt;Node14 -->
<g id="edge16" class="edge"><title>Node16&#45;&gt;Node14</title>
<path fill="none" stroke="#404040" d="M475.466,-714.308C474.486,-689.104 474.045,-650.917 478,-618 479.804,-602.982 483.24,-586.759 486.762,-572.552"/>
<polygon fill="none" stroke="#404040" points="486.831,-572.283 484.463,-565.472 489.84,-560.666 492.208,-567.477 486.831,-572.283"/>
<text text-anchor="middle" x="502" y="-654.5" font-family="FreeSans" font-size="10.00"> +elements</text>
</g>
<!-- Node17&#45;&gt;Node13 -->
<g id="edge17" class="edge"><title>Node17&#45;&gt;Node13</title>
<path fill="none" stroke="#404040" d="M596.349,-503.284C593.52,-481.138 587.882,-449.667 577,-424 569.185,-405.566 558.413,-387.031 547.187,-370.142"/>
<polygon fill="none" stroke="#404040" points="546.93,-369.764 540.243,-367.065 540.162,-359.855 546.849,-362.553 546.93,-369.764"/>
<text text-anchor="middle" x="630.5" y="-432.5" font-family="FreeSans" font-size="10.00"> +mChangedSettings</text>
</g>
</g>
</svg>
