<?xml version="1.0" encoding="UTF-8" standalone="no"?>
<!DOCTYPE svg PUBLIC "-//W3C//DTD SVG 1.1//EN"
 "http://www.w3.org/Graphics/SVG/1.1/DTD/svg11.dtd">
<!-- Generated by graphviz version 2.36.0 (20140111.2315)
 -->
<!-- Title: MWGui::ItemChargeView::update Pages: 1 -->
<svg width="678pt" height="656pt"
 viewBox="0.00 0.00 678.00 656.00" xmlns="http://www.w3.org/2000/svg" xmlns:xlink="http://www.w3.org/1999/xlink">
<g id="graph0" class="graph" transform="scale(1 1) rotate(0) translate(4 652)">
<title>MWGui::ItemChargeView::update</title>
<polygon fill="white" stroke="none" points="-4,4 -4,-652 674,-652 674,4 -4,4"/>
<!-- Node1 -->
<g id="node1" class="node"><title>Node1</title>
<polygon fill="#bfbfbf" stroke="black" points="0,-290 0,-320 124,-320 124,-290 0,-290"/>
<text text-anchor="start" x="8" y="-308" font-family="FreeSans" font-size="10.00">MWGui::ItemChargeView</text>
<text text-anchor="middle" x="62" y="-297" font-family="FreeSans" font-size="10.00">::update</text>
</g>
<!-- Node2 -->
<g id="node2" class="node"><title>Node2</title>
<g id="a_node2"><a xlink:href="classMWGui_1_1ItemChargeView.html#a1323043f5b3b1d83f5befb6a25718540" target="_top" xlink:title="MWGui::ItemChargeView\l::layoutWidgets">
<polygon fill="white" stroke="black" points="160,-535 160,-565 284,-565 284,-535 160,-535"/>
<text text-anchor="start" x="168" y="-553" font-family="FreeSans" font-size="10.00">MWGui::ItemChargeView</text>
<text text-anchor="middle" x="222" y="-542" font-family="FreeSans" font-size="10.00">::layoutWidgets</text>
</a>
</g>
</g>
<!-- Node1&#45;&gt;Node2 -->
<g id="edge1" class="edge"><title>Node1&#45;&gt;Node2</title>
<path fill="none" stroke="midnightblue" d="M65.606,-320.032C73.1287,-359.108 98.402,-465.002 160,-525 161.476,-526.437 163.046,-527.796 164.689,-529.081"/>
<polygon fill="midnightblue" stroke="midnightblue" points="163.16,-532.268 173.423,-534.899 167.041,-526.442 163.16,-532.268"/>
</g>
<!-- Node3 -->
<g id="node3" class="node"><title>Node3</title>
<g id="a_node3"><a xlink:href="classMWGui_1_1ItemChargeView.html#afdf7757c6ceb0342345770597bfffda4" target="_top" xlink:title="MWGui::ItemChargeView\l::updateLine">
<polygon fill="white" stroke="black" points="160,-290 160,-320 284,-320 284,-290 160,-290"/>
<text text-anchor="start" x="168" y="-308" font-family="FreeSans" font-size="10.00">MWGui::ItemChargeView</text>
<text text-anchor="middle" x="222" y="-297" font-family="FreeSans" font-size="10.00">::updateLine</text>
</a>
</g>
</g>
<!-- Node1&#45;&gt;Node3 -->
<g id="edge2" class="edge"><title>Node1&#45;&gt;Node3</title>
<path fill="none" stroke="midnightblue" d="M124.087,-305C132.513,-305 141.226,-305 149.815,-305"/>
<polygon fill="midnightblue" stroke="midnightblue" points="149.815,-308.5 159.815,-305 149.815,-301.5 149.815,-308.5"/>
</g>
<!-- Node19 -->
<g id="node19" class="node"><title>Node19</title>
<g id="a_node19"><a xlink:href="classMWGui_1_1ItemWidget.html#a5f711291cd5dcf91b47b1471642000dd" target="_top" xlink:title="ptr may be empty ">
<polygon fill="white" stroke="black" points="168.5,-486 168.5,-516 275.5,-516 275.5,-486 168.5,-486"/>
<text text-anchor="start" x="176.5" y="-504" font-family="FreeSans" font-size="10.00">MWGui::ItemWidget::</text>
<text text-anchor="middle" x="222" y="-493" font-family="FreeSans" font-size="10.00">setItem</text>
</a>
</g>
</g>
<!-- Node1&#45;&gt;Node19 -->
<g id="edge19" class="edge"><title>Node1&#45;&gt;Node19</title>
<path fill="none" stroke="midnightblue" d="M75.1356,-320.054C102.593,-354.115 169.633,-437.279 202.382,-477.904"/>
<polygon fill="midnightblue" stroke="midnightblue" points="199.822,-480.306 208.823,-485.894 205.272,-475.912 199.822,-480.306"/>
</g>
<!-- Node23 -->
<g id="node23" class="node"><title>Node23</title>
<g id="a_node23"><a xlink:href="classMWGui_1_1ItemChargeView.html#a8d95b36b25d974d801eee8cc26b0b83a" target="_top" xlink:title="MWGui::ItemChargeView\l::onIconClicked">
<polygon fill="white" stroke="black" points="160,-241 160,-271 284,-271 284,-241 160,-241"/>
<text text-anchor="start" x="168" y="-259" font-family="FreeSans" font-size="10.00">MWGui::ItemChargeView</text>
<text text-anchor="middle" x="222" y="-248" font-family="FreeSans" font-size="10.00">::onIconClicked</text>
</a>
</g>
</g>
<!-- Node1&#45;&gt;Node23 -->
<g id="edge25" class="edge"><title>Node1&#45;&gt;Node23</title>
<path fill="none" stroke="midnightblue" d="M111.694,-289.899C127.839,-284.892 145.974,-279.268 162.762,-274.061"/>
<polygon fill="midnightblue" stroke="midnightblue" points="163.952,-277.357 172.466,-271.052 161.878,-270.671 163.952,-277.357"/>
</g>
<!-- Node24 -->
<g id="node24" class="node"><title>Node24</title>
<g id="a_node24"><a xlink:href="classMWGui_1_1ItemChargeView.html#acd3e8523f113d29fb7160b14e28653f2" target="_top" xlink:title="MWGui::ItemChargeView\l::onMouseWheelMoved">
<polygon fill="white" stroke="black" points="160,-192 160,-222 284,-222 284,-192 160,-192"/>
<text text-anchor="start" x="168" y="-210" font-family="FreeSans" font-size="10.00">MWGui::ItemChargeView</text>
<text text-anchor="middle" x="222" y="-199" font-family="FreeSans" font-size="10.00">::onMouseWheelMoved</text>
</a>
</g>
</g>
<!-- Node1&#45;&gt;Node24 -->
<g id="edge26" class="edge"><title>Node1&#45;&gt;Node24</title>
<path fill="none" stroke="midnightblue" d="M79.8538,-289.807C98.4409,-273.629 129.739,-248.057 160,-231 162.875,-229.379 165.882,-227.818 168.953,-226.323"/>
<polygon fill="midnightblue" stroke="midnightblue" points="170.659,-229.391 178.294,-222.046 167.745,-223.027 170.659,-229.391"/>
</g>
<!-- Node4 -->
<g id="node4" class="node"><title>Node4</title>
<g id="a_node4"><a xlink:href="classMWWorld_1_1Ptr.html#aa2ac4a5579cd19eaa780596f4543ea46" target="_top" xlink:title="MWWorld::Ptr::getClass">
<polygon fill="white" stroke="black" points="346.5,-491.5 346.5,-510.5 463.5,-510.5 463.5,-491.5 346.5,-491.5"/>
<text text-anchor="middle" x="405" y="-498.5" font-family="FreeSans" font-size="10.00">MWWorld::Ptr::getClass</text>
</a>
</g>
</g>
<!-- Node3&#45;&gt;Node4 -->
<g id="edge3" class="edge"><title>Node3&#45;&gt;Node4</title>
<path fill="none" stroke="midnightblue" d="M226.72,-320.128C236.036,-354.667 263.758,-439.602 320,-482 325.093,-485.839 330.821,-488.927 336.831,-491.406"/>
<polygon fill="midnightblue" stroke="midnightblue" points="335.861,-494.776 346.456,-494.822 338.203,-488.179 335.861,-494.776"/>
</g>
<!-- Node5 -->
<g id="node5" class="node"><title>Node5</title>
<g id="a_node5"><a xlink:href="classMWWorld_1_1Class.html#a369a75a58f3c116f19e7a4365ba49ae9" target="_top" xlink:title="MWWorld::Class::getName">
<polygon fill="white" stroke="black" points="340,-251.5 340,-270.5 470,-270.5 470,-251.5 340,-251.5"/>
<text text-anchor="middle" x="405" y="-258.5" font-family="FreeSans" font-size="10.00">MWWorld::Class::getName</text>
</a>
</g>
</g>
<!-- Node3&#45;&gt;Node5 -->
<g id="edge4" class="edge"><title>Node3&#45;&gt;Node5</title>
<path fill="none" stroke="midnightblue" d="M280.119,-289.977C293.205,-286.619 307.069,-283.128 320,-280 329.918,-277.601 340.519,-275.13 350.732,-272.797"/>
<polygon fill="midnightblue" stroke="midnightblue" points="351.8,-276.144 360.778,-270.517 350.251,-269.317 351.8,-276.144"/>
</g>
<!-- Node6 -->
<g id="node6" class="node"><title>Node6</title>
<g id="a_node6"><a xlink:href="classMWWorld_1_1Class.html#a6689ca20c9048824b3da7832c156dc10" target="_top" xlink:title="MWWorld::Class::hasItemHealth">
<polygon fill="white" stroke="black" points="328.5,-213.5 328.5,-232.5 481.5,-232.5 481.5,-213.5 328.5,-213.5"/>
<text text-anchor="middle" x="405" y="-220.5" font-family="FreeSans" font-size="10.00">MWWorld::Class::hasItemHealth</text>
</a>
</g>
</g>
<!-- Node3&#45;&gt;Node6 -->
<g id="edge5" class="edge"><title>Node3&#45;&gt;Node6</title>
<path fill="none" stroke="midnightblue" d="M266.518,-289.851C272.609,-286.972 278.618,-283.687 284,-280 303.192,-266.851 299.781,-253.508 320,-242 323.906,-239.777 328.054,-237.813 332.332,-236.08"/>
<polygon fill="midnightblue" stroke="midnightblue" points="333.644,-239.327 341.862,-232.64 331.268,-232.743 333.644,-239.327"/>
</g>
<!-- Node7 -->
<g id="node7" class="node"><title>Node7</title>
<g id="a_node7"><a xlink:href="classMWGui_1_1Widgets_1_1MWDynamicStat.html#adf7e7130d8165dbf5c89c608acb64abb" target="_top" xlink:title="MWGui::Widgets::MWDynamic\lStat::setValue">
<polygon fill="white" stroke="black" points="331.5,-164 331.5,-194 478.5,-194 478.5,-164 331.5,-164"/>
<text text-anchor="start" x="339.5" y="-182" font-family="FreeSans" font-size="10.00">MWGui::Widgets::MWDynamic</text>
<text text-anchor="middle" x="405" y="-171" font-family="FreeSans" font-size="10.00">Stat::setValue</text>
</a>
</g>
</g>
<!-- Node3&#45;&gt;Node7 -->
<g id="edge6" class="edge"><title>Node3&#45;&gt;Node7</title>
<path fill="none" stroke="midnightblue" d="M270.168,-289.965C275.183,-287.155 279.93,-283.858 284,-280 311.125,-254.287 291.628,-228.33 320,-204 321.971,-202.31 324.052,-200.734 326.22,-199.265"/>
<polygon fill="midnightblue" stroke="midnightblue" points="328.128,-202.203 334.965,-194.11 324.573,-196.173 328.128,-202.203"/>
</g>
<!-- Node8 -->
<g id="node8" class="node"><title>Node8</title>
<g id="a_node8"><a xlink:href="classMWWorld_1_1Class.html#a5537c9812ceb8e5a8100652eac05ec63" target="_top" xlink:title="Return current item health or throw an exception if class does not have item health. ">
<polygon fill="white" stroke="black" points="329,-125.5 329,-144.5 481,-144.5 481,-125.5 329,-125.5"/>
<text text-anchor="middle" x="405" y="-132.5" font-family="FreeSans" font-size="10.00">MWWorld::Class::getItemHealth</text>
</a>
</g>
</g>
<!-- Node3&#45;&gt;Node8 -->
<g id="edge7" class="edge"><title>Node3&#45;&gt;Node8</title>
<path fill="none" stroke="midnightblue" d="M272.008,-289.867C276.453,-287.099 280.565,-283.838 284,-280 322.842,-236.603 277.684,-194.017 320,-154 321.507,-152.575 323.098,-151.248 324.759,-150.013"/>
<polygon fill="midnightblue" stroke="midnightblue" points="326.903,-152.803 333.582,-144.579 323.232,-146.843 326.903,-152.803"/>
</g>
<!-- Node11 -->
<g id="node11" class="node"><title>Node11</title>
<g id="a_node11"><a xlink:href="classMWWorld_1_1Class.html#a57ed3b8775968f13bb4460b3833a9021" target="_top" xlink:title="MWWorld::Class::getItemMax\lHealth">
<polygon fill="white" stroke="black" points="527,-76 527,-106 669,-106 669,-76 527,-76"/>
<text text-anchor="start" x="535" y="-94" font-family="FreeSans" font-size="10.00">MWWorld::Class::getItemMax</text>
<text text-anchor="middle" x="598" y="-83" font-family="FreeSans" font-size="10.00">Health</text>
</a>
</g>
</g>
<!-- Node3&#45;&gt;Node11 -->
<g id="edge11" class="edge"><title>Node3&#45;&gt;Node11</title>
<path fill="none" stroke="midnightblue" d="M272.547,-289.893C276.831,-287.123 280.76,-283.855 284,-280 332.015,-222.874 264.013,-165.338 320,-116 348.313,-91.049 445.324,-87.2473 516.583,-88.0699"/>
<polygon fill="midnightblue" stroke="midnightblue" points="516.848,-91.5741 526.899,-88.2229 516.952,-84.5749 516.848,-91.5741"/>
</g>
<!-- Node12 -->
<g id="node12" class="node"><title>Node12</title>
<g id="a_node12"><a xlink:href="classMWWorld_1_1Class.html#a0ebc789aa414ffebfd4d5c86f9523042" target="_top" xlink:title="MWWorld::Class::getEnchantment">
<polygon fill="white" stroke="black" points="324.5,-453.5 324.5,-472.5 485.5,-472.5 485.5,-453.5 324.5,-453.5"/>
<text text-anchor="middle" x="405" y="-460.5" font-family="FreeSans" font-size="10.00">MWWorld::Class::getEnchantment</text>
</a>
</g>
</g>
<!-- Node3&#45;&gt;Node12 -->
<g id="edge12" class="edge"><title>Node3&#45;&gt;Node12</title>
<path fill="none" stroke="midnightblue" d="M229.169,-320.353C241.671,-349.398 272.87,-412.308 320,-444 322.943,-445.979 326.062,-447.754 329.298,-449.347"/>
<polygon fill="midnightblue" stroke="midnightblue" points="328.113,-452.647 338.684,-453.368 330.87,-446.212 328.113,-452.647"/>
</g>
<!-- Node13 -->
<g id="node13" class="node"><title>Node13</title>
<g id="a_node13"><a xlink:href="classMWBase_1_1Environment.html#a73f12633762b049c03c80fe215873faa" target="_top" xlink:title="Return instance of this class. ">
<polygon fill="white" stroke="black" points="339.5,-49.5 339.5,-68.5 470.5,-68.5 470.5,-49.5 339.5,-49.5"/>
<text text-anchor="middle" x="405" y="-56.5" font-family="FreeSans" font-size="10.00">MWBase::Environment::get</text>
</a>
</g>
</g>
<!-- Node3&#45;&gt;Node13 -->
<g id="edge13" class="edge"><title>Node3&#45;&gt;Node13</title>
<path fill="none" stroke="midnightblue" d="M272.978,-289.818C277.121,-287.067 280.9,-283.823 284,-280 340.055,-210.864 260.207,-148.93 320,-83 323.388,-79.2644 327.313,-76.0944 331.578,-73.4059"/>
<polygon fill="midnightblue" stroke="midnightblue" points="333.557,-76.318 340.748,-68.5371 330.274,-70.1354 333.557,-76.318"/>
</g>
<!-- Node14 -->
<g id="node14" class="node"><title>Node14</title>
<g id="a_node14"><a xlink:href="classMWBase_1_1Environment.html#ae14e166d8f5ff8629be119333d502660" target="_top" xlink:title="MWBase::Environment\l::getWorld">
<polygon fill="white" stroke="black" points="348.5,-0 348.5,-30 461.5,-30 461.5,-0 348.5,-0"/>
<text text-anchor="start" x="356.5" y="-18" font-family="FreeSans" font-size="10.00">MWBase::Environment</text>
<text text-anchor="middle" x="405" y="-7" font-family="FreeSans" font-size="10.00">::getWorld</text>
</a>
</g>
</g>
<!-- Node3&#45;&gt;Node14 -->
<g id="edge14" class="edge"><title>Node3&#45;&gt;Node14</title>
<path fill="none" stroke="midnightblue" d="M273.105,-289.92C277.223,-287.148 280.962,-283.872 284,-280 350.587,-195.147 249.268,-121.43 320,-40 325.192,-34.0231 331.743,-29.4431 338.887,-25.939"/>
<polygon fill="midnightblue" stroke="midnightblue" points="340.316,-29.1352 348.194,-22.0517 337.618,-22.6759 340.316,-29.1352"/>
</g>
<!-- Node15 -->
<g id="node15" class="node"><title>Node15</title>
<g id="a_node15"><a xlink:href="classMWBase_1_1World.html#a2ba0910cb944786065e37dc5f3fcda35" target="_top" xlink:title="MWBase::World::getStore">
<polygon fill="white" stroke="black" points="342,-415.5 342,-434.5 468,-434.5 468,-415.5 342,-415.5"/>
<text text-anchor="middle" x="405" y="-422.5" font-family="FreeSans" font-size="10.00">MWBase::World::getStore</text>
</a>
</g>
</g>
<!-- Node3&#45;&gt;Node15 -->
<g id="edge15" class="edge"><title>Node3&#45;&gt;Node15</title>
<path fill="none" stroke="midnightblue" d="M233.232,-320.356C249.059,-342.833 281.682,-384.364 320,-406 323.989,-408.253 328.227,-410.238 332.596,-411.988"/>
<polygon fill="midnightblue" stroke="midnightblue" points="331.733,-415.396 342.327,-415.456 334.082,-408.802 331.733,-415.396"/>
</g>
<!-- Node16 -->
<g id="node16" class="node"><title>Node16</title>
<g id="a_node16"><a xlink:href="classMWWorld_1_1ESMStore.html#a94ffe201bd012dd41fcdabfb35c69e24" target="_top" xlink:title="MWWorld::ESMStore::get">
<polygon fill="white" stroke="black" points="342.5,-377.5 342.5,-396.5 467.5,-396.5 467.5,-377.5 342.5,-377.5"/>
<text text-anchor="middle" x="405" y="-384.5" font-family="FreeSans" font-size="10.00">MWWorld::ESMStore::get</text>
</a>
</g>
</g>
<!-- Node3&#45;&gt;Node16 -->
<g id="edge16" class="edge"><title>Node3&#45;&gt;Node16</title>
<path fill="none" stroke="midnightblue" d="M241.91,-320.207C260.67,-334.56 290.768,-355.667 320,-368 326.109,-370.577 332.622,-372.832 339.215,-374.798"/>
<polygon fill="midnightblue" stroke="midnightblue" points="338.325,-378.183 348.896,-377.476 340.191,-371.436 338.325,-378.183"/>
</g>
<!-- Node17 -->
<g id="node17" class="node"><title>Node17</title>
<g id="a_node17"><a xlink:href="classMWWorld_1_1Ptr.html#acb6d9fb770fd8b8814df2358596ba656" target="_top" xlink:title="MWWorld::Ptr::getCellRef">
<polygon fill="white" stroke="black" points="342.5,-339.5 342.5,-358.5 467.5,-358.5 467.5,-339.5 342.5,-339.5"/>
<text text-anchor="middle" x="405" y="-346.5" font-family="FreeSans" font-size="10.00">MWWorld::Ptr::getCellRef</text>
</a>
</g>
</g>
<!-- Node3&#45;&gt;Node17 -->
<g id="edge17" class="edge"><title>Node3&#45;&gt;Node17</title>
<path fill="none" stroke="midnightblue" d="M283.52,-320.061C295.599,-323.043 308.199,-326.135 320,-329 330.819,-331.626 342.43,-334.412 353.463,-337.044"/>
<polygon fill="midnightblue" stroke="midnightblue" points="352.855,-340.497 363.394,-339.408 354.476,-333.687 352.855,-340.497"/>
</g>
<!-- Node18 -->
<g id="node18" class="node"><title>Node18</title>
<g id="a_node18"><a xlink:href="classMWWorld_1_1CellRef.html#adfbe4ecec0fae39aef9dc599a2257248" target="_top" xlink:title="MWWorld::CellRef::getEnchantment\lCharge">
<polygon fill="white" stroke="black" points="320,-290 320,-320 490,-320 490,-290 320,-290"/>
<text text-anchor="start" x="328" y="-308" font-family="FreeSans" font-size="10.00">MWWorld::CellRef::getEnchantment</text>
<text text-anchor="middle" x="405" y="-297" font-family="FreeSans" font-size="10.00">Charge</text>
</a>
</g>
</g>
<!-- Node3&#45;&gt;Node18 -->
<g id="edge18" class="edge"><title>Node3&#45;&gt;Node18</title>
<path fill="none" stroke="midnightblue" d="M284.026,-305C292.288,-305 300.917,-305 309.595,-305"/>
<polygon fill="midnightblue" stroke="midnightblue" points="309.784,-308.5 319.784,-305 309.784,-301.5 309.784,-308.5"/>
</g>
<!-- Node9 -->
<g id="node9" class="node"><title>Node9</title>
<g id="a_node9"><a xlink:href="classMWWorld_1_1ConstPtr.html#afa407c744b51f45e0b8e3eec160cb7a2" target="_top" xlink:title="MWWorld::ConstPtr::\lgetCellRef">
<polygon fill="white" stroke="black" points="545.5,-125 545.5,-155 650.5,-155 650.5,-125 545.5,-125"/>
<text text-anchor="start" x="553.5" y="-143" font-family="FreeSans" font-size="10.00">MWWorld::ConstPtr::</text>
<text text-anchor="middle" x="598" y="-132" font-family="FreeSans" font-size="10.00">getCellRef</text>
</a>
</g>
</g>
<!-- Node8&#45;&gt;Node9 -->
<g id="edge8" class="edge"><title>Node8&#45;&gt;Node9</title>
<path fill="none" stroke="midnightblue" d="M481.214,-136.969C499.023,-137.435 517.818,-137.927 534.966,-138.376"/>
<polygon fill="midnightblue" stroke="midnightblue" points="535.318,-141.886 545.406,-138.649 535.501,-134.889 535.318,-141.886"/>
</g>
<!-- Node10 -->
<g id="node10" class="node"><title>Node10</title>
<g id="a_node10"><a xlink:href="classMWWorld_1_1CellRef.html#a4b3b28f98b80448c7b7d5c3b364976b7" target="_top" xlink:title="MWWorld::CellRef::getCharge">
<polygon fill="white" stroke="black" points="526.5,-174.5 526.5,-193.5 669.5,-193.5 669.5,-174.5 526.5,-174.5"/>
<text text-anchor="middle" x="598" y="-181.5" font-family="FreeSans" font-size="10.00">MWWorld::CellRef::getCharge</text>
</a>
</g>
</g>
<!-- Node8&#45;&gt;Node10 -->
<g id="edge9" class="edge"><title>Node8&#45;&gt;Node10</title>
<path fill="none" stroke="midnightblue" d="M450.132,-144.539C463.017,-147.444 477.1,-150.735 490,-154 493.283,-154.831 525.167,-163.779 553.283,-171.688"/>
<polygon fill="midnightblue" stroke="midnightblue" points="552.443,-175.088 563.017,-174.427 554.339,-168.349 552.443,-175.088"/>
</g>
<!-- Node8&#45;&gt;Node11 -->
<g id="edge10" class="edge"><title>Node8&#45;&gt;Node11</title>
<path fill="none" stroke="midnightblue" d="M447.444,-125.453C469.141,-120.455 496.387,-114.178 521.66,-108.356"/>
<polygon fill="midnightblue" stroke="midnightblue" points="522.644,-111.721 531.603,-106.065 521.072,-104.9 522.644,-111.721"/>
</g>
<!-- Node19&#45;&gt;Node4 -->
<g id="edge21" class="edge"><title>Node19&#45;&gt;Node4</title>
<path fill="none" stroke="midnightblue" d="M275.839,-501C294.677,-501 316.164,-501 336.09,-501"/>
<polygon fill="midnightblue" stroke="midnightblue" points="336.346,-504.5 346.346,-501 336.346,-497.5 336.346,-504.5"/>
</g>
<!-- Node19&#45;&gt;Node12 -->
<g id="edge22" class="edge"><title>Node19&#45;&gt;Node12</title>
<path fill="none" stroke="midnightblue" d="M275.839,-489.907C298.654,-485.117 325.355,-479.511 348.462,-474.66"/>
<polygon fill="midnightblue" stroke="midnightblue" points="349.393,-478.041 358.46,-472.561 347.954,-471.19 349.393,-478.041"/>
</g>
<!-- Node20 -->
<g id="node20" class="node"><title>Node20</title>
<g id="a_node20"><a xlink:href="classMWWorld_1_1Ptr.html#a0662c1165166221fd0f874e37ac24613" target="_top" xlink:title="MWWorld::Ptr::isEmpty">
<polygon fill="white" stroke="black" points="348,-628.5 348,-647.5 462,-647.5 462,-628.5 348,-628.5"/>
<text text-anchor="middle" x="405" y="-635.5" font-family="FreeSans" font-size="10.00">MWWorld::Ptr::isEmpty</text>
</a>
</g>
</g>
<!-- Node19&#45;&gt;Node20 -->
<g id="edge20" class="edge"><title>Node19&#45;&gt;Node20</title>
<path fill="none" stroke="midnightblue" d="M271.042,-516.115C275.783,-518.897 280.227,-522.166 284,-526 314.799,-557.294 286.868,-589.188 320,-618 325.32,-622.627 331.521,-626.228 338.098,-629.025"/>
<polygon fill="midnightblue" stroke="midnightblue" points="337.353,-632.477 347.947,-632.574 339.725,-625.891 337.353,-632.477"/>
</g>
<!-- Node21 -->
<g id="node21" class="node"><title>Node21</title>
<g id="a_node21"><a xlink:href="classMWGui_1_1ItemWidget.html#a337efa47c7a34bd2b5238ccfcee39dc5" target="_top" xlink:title="MWGui::ItemWidget::\lsetFrame">
<polygon fill="white" stroke="black" points="351.5,-579 351.5,-609 458.5,-609 458.5,-579 351.5,-579"/>
<text text-anchor="start" x="359.5" y="-597" font-family="FreeSans" font-size="10.00">MWGui::ItemWidget::</text>
<text text-anchor="middle" x="405" y="-586" font-family="FreeSans" font-size="10.00">setFrame</text>
</a>
</g>
</g>
<!-- Node19&#45;&gt;Node21 -->
<g id="edge23" class="edge"><title>Node19&#45;&gt;Node21</title>
<path fill="none" stroke="midnightblue" d="M267.047,-516.007C272.997,-518.893 278.826,-522.217 284,-526 304.12,-540.712 299.172,-555.309 320,-569 326.689,-573.397 334.176,-577.043 341.851,-580.06"/>
<polygon fill="midnightblue" stroke="midnightblue" points="340.671,-583.355 351.265,-583.437 343.034,-576.766 340.671,-583.355"/>
</g>
<!-- Node22 -->
<g id="node22" class="node"><title>Node22</title>
<g id="a_node22"><a xlink:href="classMWGui_1_1ItemWidget.html#a3f47473fba1f4622712370bc4ee723ad" target="_top" xlink:title="MWGui::ItemWidget::\lsetIcon">
<polygon fill="white" stroke="black" points="351.5,-530 351.5,-560 458.5,-560 458.5,-530 351.5,-530"/>
<text text-anchor="start" x="359.5" y="-548" font-family="FreeSans" font-size="10.00">MWGui::ItemWidget::</text>
<text text-anchor="middle" x="405" y="-537" font-family="FreeSans" font-size="10.00">setIcon</text>
</a>
</g>
</g>
<!-- Node19&#45;&gt;Node22 -->
<g id="edge24" class="edge"><title>Node19&#45;&gt;Node22</title>
<path fill="none" stroke="midnightblue" d="M275.839,-513.845C296.377,-518.838 320.065,-524.596 341.445,-529.793"/>
<polygon fill="midnightblue" stroke="midnightblue" points="340.864,-533.254 351.408,-532.215 342.518,-526.452 340.864,-533.254"/>
</g>
</g>
</svg>
