<?xml version="1.0" encoding="UTF-8" standalone="no"?>
<!DOCTYPE svg PUBLIC "-//W3C//DTD SVG 1.1//EN"
 "http://www.w3.org/Graphics/SVG/1.1/DTD/svg11.dtd">
<!-- Generated by graphviz version 2.36.0 (20140111.2315)
 -->
<!-- Title: MWBase::MechanicsManager::drop Pages: 1 -->
<svg width="914pt" height="104pt"
 viewBox="0.00 0.00 914.00 104.00" xmlns="http://www.w3.org/2000/svg" xmlns:xlink="http://www.w3.org/1999/xlink">
<g id="graph0" class="graph" transform="scale(1 1) rotate(0) translate(4 100)">
<title>MWBase::MechanicsManager::drop</title>
<polygon fill="white" stroke="none" points="-4,4 -4,-100 910,-100 910,4 -4,4"/>
<!-- Node1 -->
<g id="node1" class="node"><title>Node1</title>
<polygon fill="#bfbfbf" stroke="black" points="0.5,-33 0.5,-63 155.5,-63 155.5,-33 0.5,-33"/>
<text text-anchor="start" x="8.5" y="-51" font-family="FreeSans" font-size="10.00">MWBase::MechanicsManager</text>
<text text-anchor="middle" x="78" y="-40" font-family="FreeSans" font-size="10.00">::drop</text>
</g>
<!-- Node2 -->
<g id="node2" class="node"><title>Node2</title>
<g id="a_node2"><a xlink:href="classMWWorld_1_1Scene.html#aa4b71a9fcc611e96db8d1cbec1c60f71" target="_top" xlink:title="MWWorld::Scene::unloadCell">
<polygon fill="white" stroke="black" points="192,-38.5 192,-57.5 342,-57.5 342,-38.5 192,-38.5"/>
<text text-anchor="middle" x="267" y="-45.5" font-family="FreeSans" font-size="10.00">MWWorld::Scene::unloadCell</text>
</a>
</g>
</g>
<!-- Node1&#45;&gt;Node2 -->
<g id="edge1" class="edge"><title>Node1&#45;&gt;Node2</title>
<path fill="none" stroke="midnightblue" d="M165.8,-48C174.535,-48 183.349,-48 191.934,-48"/>
<polygon fill="midnightblue" stroke="midnightblue" points="165.6,-44.5001 155.6,-48 165.6,-51.5001 165.6,-44.5001"/>
</g>
<!-- Node3 -->
<g id="node3" class="node"><title>Node3</title>
<g id="a_node3"><a xlink:href="classMWWorld_1_1Scene.html#a4fe84b7d74d5d597e79e14d2a57b5496" target="_top" xlink:title="MWWorld::Scene::changeTo\lInteriorCell">
<polygon fill="white" stroke="black" points="378,-33 378,-63 524,-63 524,-33 378,-33"/>
<text text-anchor="start" x="386" y="-51" font-family="FreeSans" font-size="10.00">MWWorld::Scene::changeTo</text>
<text text-anchor="middle" x="451" y="-40" font-family="FreeSans" font-size="10.00">InteriorCell</text>
</a>
</g>
</g>
<!-- Node2&#45;&gt;Node3 -->
<g id="edge2" class="edge"><title>Node2&#45;&gt;Node3</title>
<path fill="none" stroke="midnightblue" d="M352.066,-48C360.667,-48 369.35,-48 377.807,-48"/>
<polygon fill="midnightblue" stroke="midnightblue" points="352.026,-44.5001 342.026,-48 352.026,-51.5001 352.026,-44.5001"/>
</g>
<!-- Node4 -->
<g id="node4" class="node"><title>Node4</title>
<g id="a_node4"><a xlink:href="classMWWorld_1_1World.html#a60987e10717123b8af23a4118907cb78" target="_top" xlink:title="MWWorld::World::changeTo\lInteriorCell">
<polygon fill="white" stroke="black" points="560.5,-33 560.5,-63 701.5,-63 701.5,-33 560.5,-33"/>
<text text-anchor="start" x="568.5" y="-51" font-family="FreeSans" font-size="10.00">MWWorld::World::changeTo</text>
<text text-anchor="middle" x="631" y="-40" font-family="FreeSans" font-size="10.00">InteriorCell</text>
</a>
</g>
</g>
<!-- Node3&#45;&gt;Node4 -->
<g id="edge3" class="edge"><title>Node3&#45;&gt;Node4</title>
<path fill="none" stroke="midnightblue" d="M534.305,-48C543.013,-48 551.806,-48 560.35,-48"/>
<polygon fill="midnightblue" stroke="midnightblue" points="534.143,-44.5001 524.143,-48 534.143,-51.5001 534.143,-44.5001"/>
</g>
<!-- Node5 -->
<g id="node5" class="node"><title>Node5</title>
<g id="a_node5"><a xlink:href="classMWWorld_1_1World.html#a7fafd9a8c05b57ea9bb378cc9262b918" target="_top" xlink:title="MWWorld::World::startNewGame">
<polygon fill="white" stroke="black" points="738,-76.5 738,-95.5 906,-95.5 906,-76.5 738,-76.5"/>
<text text-anchor="middle" x="822" y="-83.5" font-family="FreeSans" font-size="10.00">MWWorld::World::startNewGame</text>
</a>
</g>
</g>
<!-- Node4&#45;&gt;Node5 -->
<g id="edge4" class="edge"><title>Node4&#45;&gt;Node5</title>
<path fill="none" stroke="midnightblue" d="M711.526,-63.9894C732.679,-68.2423 754.858,-72.7016 773.679,-76.4857"/>
<polygon fill="midnightblue" stroke="midnightblue" points="712.065,-60.5278 701.571,-61.9879 710.685,-67.3905 712.065,-60.5278"/>
</g>
<!-- Node6 -->
<g id="node6" class="node"><title>Node6</title>
<g id="a_node6"><a xlink:href="classMWWorld_1_1World.html#a0940ee6e88b7fcd9fc3add1eeaf2e2c8" target="_top" xlink:title="MWWorld::World::changeToCell">
<polygon fill="white" stroke="black" points="743,-38.5 743,-57.5 901,-57.5 901,-38.5 743,-38.5"/>
<text text-anchor="middle" x="822" y="-45.5" font-family="FreeSans" font-size="10.00">MWWorld::World::changeToCell</text>
</a>
</g>
</g>
<!-- Node4&#45;&gt;Node6 -->
<g id="edge5" class="edge"><title>Node4&#45;&gt;Node6</title>
<path fill="none" stroke="midnightblue" d="M711.793,-48C722.114,-48 732.675,-48 742.967,-48"/>
<polygon fill="midnightblue" stroke="midnightblue" points="711.571,-44.5001 701.571,-48 711.571,-51.5001 711.571,-44.5001"/>
</g>
<!-- Node7 -->
<g id="node7" class="node"><title>Node7</title>
<g id="a_node7"><a xlink:href="classMWWorld_1_1World.html#aa66f9502010313a20d0f20339f473400" target="_top" xlink:title="MWWorld::World::moveObject">
<polygon fill="white" stroke="black" points="745,-0.5 745,-19.5 899,-19.5 899,-0.5 745,-0.5"/>
<text text-anchor="middle" x="822" y="-7.5" font-family="FreeSans" font-size="10.00">MWWorld::World::moveObject</text>
</a>
</g>
</g>
<!-- Node4&#45;&gt;Node7 -->
<g id="edge6" class="edge"><title>Node4&#45;&gt;Node7</title>
<path fill="none" stroke="midnightblue" d="M711.526,-32.0106C732.679,-27.7577 754.858,-23.2984 773.679,-19.5143"/>
<polygon fill="midnightblue" stroke="midnightblue" points="710.685,-28.6095 701.571,-34.0121 712.065,-35.4722 710.685,-28.6095"/>
</g>
</g>
</svg>
