<?xml version="1.0" encoding="UTF-8" standalone="no"?>
<!DOCTYPE svg PUBLIC "-//W3C//DTD SVG 1.1//EN"
 "http://www.w3.org/Graphics/SVG/1.1/DTD/svg11.dtd">
<!-- Generated by graphviz version 2.36.0 (20140111.2315)
 -->
<!-- Title: CSVRender::PagedWorldspaceWidget::moveCellSelection Pages: 1 -->
<svg width="340pt" height="165pt"
 viewBox="0.00 0.00 340.00 165.00" xmlns="http://www.w3.org/2000/svg" xmlns:xlink="http://www.w3.org/1999/xlink">
<g id="graph0" class="graph" transform="scale(1 1) rotate(0) translate(4 161)">
<title>CSVRender::PagedWorldspaceWidget::moveCellSelection</title>
<polygon fill="white" stroke="none" points="-4,4 -4,-161 336,-161 336,4 -4,4"/>
<!-- Node1 -->
<g id="node1" class="node"><title>Node1</title>
<polygon fill="#bfbfbf" stroke="black" points="0.5,-61 0.5,-91 149.5,-91 149.5,-61 0.5,-61"/>
<text text-anchor="start" x="8.5" y="-79" font-family="FreeSans" font-size="10.00">CSVRender::PagedWorldspace</text>
<text text-anchor="middle" x="75" y="-68" font-family="FreeSans" font-size="10.00">Widget::moveCellSelection</text>
</g>
<!-- Node2 -->
<g id="node2" class="node"><title>Node2</title>
<g id="a_node2"><a xlink:href="classCSMWorld_1_1CellSelection.html#a3f1f9e79e305105cc1ff13111478530b" target="_top" xlink:title="CSMWorld::CellSelection\l::move">
<polygon fill="white" stroke="black" points="196.5,-127 196.5,-157 321.5,-157 321.5,-127 196.5,-127"/>
<text text-anchor="start" x="204.5" y="-145" font-family="FreeSans" font-size="10.00">CSMWorld::CellSelection</text>
<text text-anchor="middle" x="259" y="-134" font-family="FreeSans" font-size="10.00">::move</text>
</a>
</g>
</g>
<!-- Node1&#45;&gt;Node2 -->
<g id="edge1" class="edge"><title>Node1&#45;&gt;Node2</title>
<path fill="none" stroke="midnightblue" d="M115.634,-91.0191C136.526,-98.8733 162.605,-108.58 186,-117 191.964,-119.147 198.218,-121.365 204.443,-123.554"/>
<polygon fill="midnightblue" stroke="midnightblue" points="203.563,-126.954 214.158,-126.954 205.875,-120.347 203.563,-126.954"/>
</g>
<!-- Node3 -->
<g id="node3" class="node"><title>Node3</title>
<g id="a_node3"><a xlink:href="classCSMWorld_1_1CellSelection.html#a62eabd570f4aebb91dcbee7c43ab77eb" target="_top" xlink:title="CSMWorld::CellSelection::has">
<polygon fill="white" stroke="black" points="187,-88.5 187,-107.5 331,-107.5 331,-88.5 187,-88.5"/>
<text text-anchor="middle" x="259" y="-95.5" font-family="FreeSans" font-size="10.00">CSMWorld::CellSelection::has</text>
</a>
</g>
</g>
<!-- Node1&#45;&gt;Node3 -->
<g id="edge2" class="edge"><title>Node1&#45;&gt;Node3</title>
<path fill="none" stroke="midnightblue" d="M149.502,-84.8848C158.462,-85.9679 167.657,-87.0794 176.722,-88.1752"/>
<polygon fill="midnightblue" stroke="midnightblue" points="176.534,-91.6778 186.882,-89.4033 177.374,-84.7284 176.534,-91.6778"/>
</g>
<!-- Node4 -->
<g id="node4" class="node"><title>Node4</title>
<g id="a_node4"><a xlink:href="classCSMWorld_1_1CellSelection.html#ae917a3fa3f23d88b06022cea9959854a" target="_top" xlink:title="CSMWorld::CellSelection\l::begin">
<polygon fill="white" stroke="black" points="196.5,-39 196.5,-69 321.5,-69 321.5,-39 196.5,-39"/>
<text text-anchor="start" x="204.5" y="-57" font-family="FreeSans" font-size="10.00">CSMWorld::CellSelection</text>
<text text-anchor="middle" x="259" y="-46" font-family="FreeSans" font-size="10.00">::begin</text>
</a>
</g>
</g>
<!-- Node1&#45;&gt;Node4 -->
<g id="edge3" class="edge"><title>Node1&#45;&gt;Node4</title>
<path fill="none" stroke="midnightblue" d="M149.502,-67.1152C161.68,-65.6431 174.292,-64.1186 186.421,-62.6524"/>
<polygon fill="midnightblue" stroke="midnightblue" points="186.969,-66.1118 196.476,-61.4369 186.129,-59.1624 186.969,-66.1118"/>
</g>
<!-- Node5 -->
<g id="node5" class="node"><title>Node5</title>
<g id="a_node5"><a xlink:href="classCSMWorld_1_1CellSelection.html#a6eab50d3f9a275971891d7f1d64f49df" target="_top" xlink:title="CSMWorld::CellSelection::end">
<polygon fill="white" stroke="black" points="186.5,-0.5 186.5,-19.5 331.5,-19.5 331.5,-0.5 186.5,-0.5"/>
<text text-anchor="middle" x="259" y="-7.5" font-family="FreeSans" font-size="10.00">CSMWorld::CellSelection::end</text>
</a>
</g>
</g>
<!-- Node1&#45;&gt;Node5 -->
<g id="edge4" class="edge"><title>Node1&#45;&gt;Node5</title>
<path fill="none" stroke="midnightblue" d="M109.278,-60.8028C130.881,-51.2581 159.791,-39.0804 186,-30 193.843,-27.2826 202.264,-24.6741 210.483,-22.29"/>
<polygon fill="midnightblue" stroke="midnightblue" points="211.685,-25.5876 220.356,-19.5008 209.781,-18.8513 211.685,-25.5876"/>
</g>
</g>
</svg>
