<?xml version="1.0" encoding="UTF-8" standalone="no"?>
<!DOCTYPE svg PUBLIC "-//W3C//DTD SVG 1.1//EN"
 "http://www.w3.org/Graphics/SVG/1.1/DTD/svg11.dtd">
<!-- Generated by graphviz version 2.36.0 (20140111.2315)
 -->
<!-- Title: MWClass::Door::getDoorState Pages: 1 -->
<svg width="358pt" height="126pt"
 viewBox="0.00 0.00 358.00 126.00" xmlns="http://www.w3.org/2000/svg" xmlns:xlink="http://www.w3.org/1999/xlink">
<g id="graph0" class="graph" transform="scale(1 1) rotate(0) translate(4 122)">
<title>MWClass::Door::getDoorState</title>
<polygon fill="white" stroke="none" points="-4,4 -4,-122 354,-122 354,4 -4,4"/>
<!-- Node1 -->
<g id="node1" class="node"><title>Node1</title>
<polygon fill="#bfbfbf" stroke="black" points="0.5,-49.5 0.5,-68.5 143.5,-68.5 143.5,-49.5 0.5,-49.5"/>
<text text-anchor="middle" x="72" y="-56.5" font-family="FreeSans" font-size="10.00">MWClass::Door::getDoorState</text>
</g>
<!-- Node2 -->
<g id="node2" class="node"><title>Node2</title>
<g id="a_node2"><a xlink:href="classMWWorld_1_1ConstPtr.html#a1fecee4644b43851c0f09c1f6c808225" target="_top" xlink:title="MWWorld::ConstPtr::\lgetRefData">
<polygon fill="white" stroke="black" points="212.5,-88 212.5,-118 317.5,-118 317.5,-88 212.5,-88"/>
<text text-anchor="start" x="220.5" y="-106" font-family="FreeSans" font-size="10.00">MWWorld::ConstPtr::</text>
<text text-anchor="middle" x="265" y="-95" font-family="FreeSans" font-size="10.00">getRefData</text>
</a>
</g>
</g>
<!-- Node1&#45;&gt;Node2 -->
<g id="edge1" class="edge"><title>Node1&#45;&gt;Node2</title>
<path fill="none" stroke="midnightblue" d="M114.444,-68.5473C140.158,-74.471 173.668,-82.1905 202.449,-88.8206"/>
<polygon fill="midnightblue" stroke="midnightblue" points="201.88,-92.2813 212.411,-91.1156 203.452,-85.46 201.88,-92.2813"/>
</g>
<!-- Node3 -->
<g id="node3" class="node"><title>Node3</title>
<g id="a_node3"><a xlink:href="classMWWorld_1_1RefData.html#a1ef7b41e2a72ec06e8631e42bbd42b85" target="_top" xlink:title="May return a 0&#45;pointer. The ownership of the return data object is not transferred. ">
<polygon fill="white" stroke="black" points="180,-49.5 180,-68.5 350,-68.5 350,-49.5 180,-49.5"/>
<text text-anchor="middle" x="265" y="-56.5" font-family="FreeSans" font-size="10.00">MWWorld::RefData::getCustomData</text>
</a>
</g>
</g>
<!-- Node1&#45;&gt;Node3 -->
<g id="edge2" class="edge"><title>Node1&#45;&gt;Node3</title>
<path fill="none" stroke="midnightblue" d="M143.579,-59C152.057,-59 160.817,-59 169.565,-59"/>
<polygon fill="midnightblue" stroke="midnightblue" points="169.811,-62.5001 179.811,-59 169.811,-55.5001 169.811,-62.5001"/>
</g>
<!-- Node4 -->
<g id="node4" class="node"><title>Node4</title>
<g id="a_node4"><a xlink:href="classMWWorld_1_1CustomData.html#a5e2ee1942fa12ef5e634c0ff14ceb962" target="_top" xlink:title="MWWorld::CustomData\l::asDoorCustomData">
<polygon fill="white" stroke="black" points="207,-0 207,-30 323,-30 323,-0 207,-0"/>
<text text-anchor="start" x="215" y="-18" font-family="FreeSans" font-size="10.00">MWWorld::CustomData</text>
<text text-anchor="middle" x="265" y="-7" font-family="FreeSans" font-size="10.00">::asDoorCustomData</text>
</a>
</g>
</g>
<!-- Node1&#45;&gt;Node4 -->
<g id="edge3" class="edge"><title>Node1&#45;&gt;Node4</title>
<path fill="none" stroke="midnightblue" d="M114.444,-49.4527C138.482,-43.9151 169.333,-36.808 196.765,-30.4887"/>
<polygon fill="midnightblue" stroke="midnightblue" points="197.739,-33.8561 206.698,-28.2005 196.167,-27.0348 197.739,-33.8561"/>
</g>
</g>
</svg>
