<?xml version="1.0" encoding="UTF-8" standalone="no"?>
<!DOCTYPE svg PUBLIC "-//W3C//DTD SVG 1.1//EN"
 "http://www.w3.org/Graphics/SVG/1.1/DTD/svg11.dtd">
<!-- Generated by graphviz version 2.36.0 (20140111.2315)
 -->
<!-- Title: MWGui::InventoryWindow::notifyContentChanged Pages: 1 -->
<svg width="874pt" height="283pt"
 viewBox="0.00 0.00 874.00 283.00" xmlns="http://www.w3.org/2000/svg" xmlns:xlink="http://www.w3.org/1999/xlink">
<g id="graph0" class="graph" transform="scale(1 1) rotate(0) translate(4 279)">
<title>MWGui::InventoryWindow::notifyContentChanged</title>
<polygon fill="white" stroke="none" points="-4,4 -4,-279 870,-279 870,4 -4,4"/>
<!-- Node1 -->
<g id="node1" class="node"><title>Node1</title>
<polygon fill="#bfbfbf" stroke="black" points="0,-122 0,-152 134,-152 134,-122 0,-122"/>
<text text-anchor="start" x="8" y="-140" font-family="FreeSans" font-size="10.00">MWGui::InventoryWindow</text>
<text text-anchor="middle" x="67" y="-129" font-family="FreeSans" font-size="10.00">::notifyContentChanged</text>
</g>
<!-- Node2 -->
<g id="node2" class="node"><title>Node2</title>
<g id="a_node2"><a xlink:href="classMWGui_1_1InventoryWindow.html#ac5f6f76f63fb66965502782ba35f39ec" target="_top" xlink:title="MWGui::InventoryWindow\l::updatePlayer">
<polygon fill="white" stroke="black" points="170,-245 170,-275 304,-275 304,-245 170,-245"/>
<text text-anchor="start" x="178" y="-263" font-family="FreeSans" font-size="10.00">MWGui::InventoryWindow</text>
<text text-anchor="middle" x="237" y="-252" font-family="FreeSans" font-size="10.00">::updatePlayer</text>
</a>
</g>
</g>
<!-- Node1&#45;&gt;Node2 -->
<g id="edge1" class="edge"><title>Node1&#45;&gt;Node2</title>
<path fill="none" stroke="midnightblue" d="M87.0395,-160.042C106.101,-181.863 137.238,-214.288 170,-235 175.903,-238.732 182.45,-242.041 189.061,-244.932"/>
<polygon fill="midnightblue" stroke="midnightblue" points="89.5158,-157.553 80.347,-152.244 84.204,-162.112 89.5158,-157.553"/>
</g>
<!-- Node4 -->
<g id="node4" class="node"><title>Node4</title>
<g id="a_node4"><a xlink:href="classMWGui_1_1InventoryWindow.html#a5f8042a02153694f39525c94ccf7f388" target="_top" xlink:title="MWGui::InventoryWindow\l::dragItem">
<polygon fill="white" stroke="black" points="170,-147 170,-177 304,-177 304,-147 170,-147"/>
<text text-anchor="start" x="178" y="-165" font-family="FreeSans" font-size="10.00">MWGui::InventoryWindow</text>
<text text-anchor="middle" x="237" y="-154" font-family="FreeSans" font-size="10.00">::dragItem</text>
</a>
</g>
</g>
<!-- Node1&#45;&gt;Node4 -->
<g id="edge3" class="edge"><title>Node1&#45;&gt;Node4</title>
<path fill="none" stroke="midnightblue" d="M144.317,-148.357C152.826,-149.623 161.441,-150.905 169.809,-152.15"/>
<polygon fill="midnightblue" stroke="midnightblue" points="144.804,-144.891 134.398,-146.881 143.774,-151.815 144.804,-144.891"/>
</g>
<!-- Node9 -->
<g id="node9" class="node"><title>Node9</title>
<g id="a_node9"><a xlink:href="classMWGui_1_1InventoryWindow.html#a8f3658d8fd060461e3f6c63eca1530f9" target="_top" xlink:title="MWGui::InventoryWindow\l::sellItem">
<polygon fill="white" stroke="black" points="170,-196 170,-226 304,-226 304,-196 170,-196"/>
<text text-anchor="start" x="178" y="-214" font-family="FreeSans" font-size="10.00">MWGui::InventoryWindow</text>
<text text-anchor="middle" x="237" y="-203" font-family="FreeSans" font-size="10.00">::sellItem</text>
</a>
</g>
</g>
<!-- Node1&#45;&gt;Node9 -->
<g id="edge10" class="edge"><title>Node1&#45;&gt;Node9</title>
<path fill="none" stroke="midnightblue" d="M106.777,-156.594C125.674,-165.893 148.838,-176.929 170,-186 177.883,-189.379 186.39,-192.78 194.59,-195.937"/>
<polygon fill="midnightblue" stroke="midnightblue" points="108.109,-153.348 97.594,-152.046 105.002,-159.621 108.109,-153.348"/>
</g>
<!-- Node10 -->
<g id="node10" class="node"><title>Node10</title>
<g id="a_node10"><a xlink:href="classMWGui_1_1InventoryWindow.html#aa6d11f8465f9bd241164b3c90b047f2a" target="_top" xlink:title="Notify that window has been made visible. ">
<polygon fill="white" stroke="black" points="170,-98 170,-128 304,-128 304,-98 170,-98"/>
<text text-anchor="start" x="178" y="-116" font-family="FreeSans" font-size="10.00">MWGui::InventoryWindow</text>
<text text-anchor="middle" x="237" y="-105" font-family="FreeSans" font-size="10.00">::onOpen</text>
</a>
</g>
</g>
<!-- Node1&#45;&gt;Node10 -->
<g id="edge12" class="edge"><title>Node1&#45;&gt;Node10</title>
<path fill="none" stroke="midnightblue" d="M144.317,-126.098C152.826,-124.882 161.441,-123.651 169.809,-122.456"/>
<polygon fill="midnightblue" stroke="midnightblue" points="143.803,-122.635 134.398,-127.515 144.793,-129.565 143.803,-122.635"/>
</g>
<!-- Node11 -->
<g id="node11" class="node"><title>Node11</title>
<g id="a_node11"><a xlink:href="classMWGui_1_1InventoryWindow.html#af9beb7fb88853430b62188dbb4ce98bb" target="_top" xlink:title="MWGui::InventoryWindow\l::useItem">
<polygon fill="white" stroke="black" points="170,-49 170,-79 304,-79 304,-49 170,-49"/>
<text text-anchor="start" x="178" y="-67" font-family="FreeSans" font-size="10.00">MWGui::InventoryWindow</text>
<text text-anchor="middle" x="237" y="-56" font-family="FreeSans" font-size="10.00">::useItem</text>
</a>
</g>
</g>
<!-- Node1&#45;&gt;Node11 -->
<g id="edge13" class="edge"><title>Node1&#45;&gt;Node11</title>
<path fill="none" stroke="midnightblue" d="M106.724,-117.282C125.609,-107.954 148.778,-96.9302 170,-88 177.305,-84.9262 185.155,-81.8661 192.803,-79.0109"/>
<polygon fill="midnightblue" stroke="midnightblue" points="104.943,-114.259 97.5486,-121.847 108.061,-120.526 104.943,-114.259"/>
</g>
<!-- Node15 -->
<g id="node15" class="node"><title>Node15</title>
<g id="a_node15"><a xlink:href="classMWGui_1_1InventoryWindow.html#a681093414e424cf71f1165c43c28011d" target="_top" xlink:title="Called every frame if the window is in an active GUI mode. ">
<polygon fill="white" stroke="black" points="170,-0 170,-30 304,-30 304,-0 170,-0"/>
<text text-anchor="start" x="178" y="-18" font-family="FreeSans" font-size="10.00">MWGui::InventoryWindow</text>
<text text-anchor="middle" x="237" y="-7" font-family="FreeSans" font-size="10.00">::onFrame</text>
</a>
</g>
</g>
<!-- Node1&#45;&gt;Node15 -->
<g id="edge18" class="edge"><title>Node1&#45;&gt;Node15</title>
<path fill="none" stroke="midnightblue" d="M86.979,-113.862C105.996,-91.969 137.1,-59.4931 170,-39 175.381,-35.6479 181.3,-32.6674 187.315,-30.0458"/>
<polygon fill="midnightblue" stroke="midnightblue" points="84.1308,-111.808 80.3039,-121.687 89.4565,-116.35 84.1308,-111.808"/>
</g>
<!-- Node3 -->
<g id="node3" class="node"><title>Node3</title>
<g id="a_node3"><a xlink:href="classMWGui_1_1WindowManager.html#a0473842e2a7a08cf0b0e0e9d7e70be8e" target="_top" xlink:title="MWGui::WindowManager\l::updatePlayer">
<polygon fill="white" stroke="black" points="367,-245 367,-275 499,-275 499,-245 367,-245"/>
<text text-anchor="start" x="375" y="-263" font-family="FreeSans" font-size="10.00">MWGui::WindowManager</text>
<text text-anchor="middle" x="433" y="-252" font-family="FreeSans" font-size="10.00">::updatePlayer</text>
</a>
</g>
</g>
<!-- Node2&#45;&gt;Node3 -->
<g id="edge2" class="edge"><title>Node2&#45;&gt;Node3</title>
<path fill="none" stroke="midnightblue" d="M314.304,-260C331.642,-260 349.904,-260 366.734,-260"/>
<polygon fill="midnightblue" stroke="midnightblue" points="314.221,-256.5 304.221,-260 314.221,-263.5 314.221,-256.5"/>
</g>
<!-- Node5 -->
<g id="node5" class="node"><title>Node5</title>
<g id="a_node5"><a xlink:href="classMWGui_1_1InventoryWindow.html#a5b889ff5cadf8ed97fbb98cfe123055d" target="_top" xlink:title="MWGui::InventoryWindow\l::onItemSelectedFromSourceModel">
<polygon fill="white" stroke="black" points="340.5,-191 340.5,-221 525.5,-221 525.5,-191 340.5,-191"/>
<text text-anchor="start" x="348.5" y="-209" font-family="FreeSans" font-size="10.00">MWGui::InventoryWindow</text>
<text text-anchor="middle" x="433" y="-198" font-family="FreeSans" font-size="10.00">::onItemSelectedFromSourceModel</text>
</a>
</g>
</g>
<!-- Node4&#45;&gt;Node5 -->
<g id="edge4" class="edge"><title>Node4&#45;&gt;Node5</title>
<path fill="none" stroke="midnightblue" d="M314.138,-179.268C331.187,-183.135 349.138,-187.207 365.748,-190.974"/>
<polygon fill="midnightblue" stroke="midnightblue" points="314.748,-175.818 304.221,-177.019 313.199,-182.644 314.748,-175.818"/>
</g>
<!-- Node8 -->
<g id="node8" class="node"><title>Node8</title>
<g id="a_node8"><a xlink:href="classMWGui_1_1InventoryWindow.html#ac0cf452b697e42ebb942910bdc98db4c" target="_top" xlink:title="MWGui::InventoryWindow\l::onAvatarClicked">
<polygon fill="white" stroke="black" points="562,-143 562,-173 696,-173 696,-143 562,-143"/>
<text text-anchor="start" x="570" y="-161" font-family="FreeSans" font-size="10.00">MWGui::InventoryWindow</text>
<text text-anchor="middle" x="629" y="-150" font-family="FreeSans" font-size="10.00">::onAvatarClicked</text>
</a>
</g>
</g>
<!-- Node4&#45;&gt;Node8 -->
<g id="edge9" class="edge"><title>Node4&#45;&gt;Node8</title>
<path fill="none" stroke="midnightblue" d="M314.528,-161.215C386.581,-160.476 493.386,-159.381 561.844,-158.679"/>
<polygon fill="midnightblue" stroke="midnightblue" points="314.122,-157.719 304.158,-161.321 314.194,-164.719 314.122,-157.719"/>
</g>
<!-- Node6 -->
<g id="node6" class="node"><title>Node6</title>
<g id="a_node6"><a xlink:href="classMWGui_1_1InventoryWindow.html#abbdeec7917453c0625d82da5adf58b7d" target="_top" xlink:title="MWGui::InventoryWindow\l::onItemSelected">
<polygon fill="white" stroke="black" points="562,-192 562,-222 696,-222 696,-192 562,-192"/>
<text text-anchor="start" x="570" y="-210" font-family="FreeSans" font-size="10.00">MWGui::InventoryWindow</text>
<text text-anchor="middle" x="629" y="-199" font-family="FreeSans" font-size="10.00">::onItemSelected</text>
</a>
</g>
</g>
<!-- Node5&#45;&gt;Node6 -->
<g id="edge5" class="edge"><title>Node5&#45;&gt;Node6</title>
<path fill="none" stroke="midnightblue" d="M535.673,-206.524C544.586,-206.57 553.446,-206.616 561.952,-206.66"/>
<polygon fill="midnightblue" stroke="midnightblue" points="535.621,-203.024 525.603,-206.472 535.585,-210.024 535.621,-203.024"/>
</g>
<!-- Node5&#45;&gt;Node8 -->
<g id="edge7" class="edge"><title>Node5&#45;&gt;Node8</title>
<path fill="none" stroke="midnightblue" d="M504.773,-188.489C525.299,-183.41 547.52,-177.913 567.365,-173.002"/>
<polygon fill="midnightblue" stroke="midnightblue" points="503.717,-185.145 494.851,-190.944 505.398,-191.94 503.717,-185.145"/>
</g>
<!-- Node7 -->
<g id="node7" class="node"><title>Node7</title>
<g id="a_node7"><a xlink:href="classMWGui_1_1InventoryWindow.html#a12e661e522f594464ed49a782220998f" target="_top" xlink:title="MWGui::InventoryWindow\l::InventoryWindow">
<polygon fill="white" stroke="black" points="732,-167 732,-197 866,-197 866,-167 732,-167"/>
<text text-anchor="start" x="740" y="-185" font-family="FreeSans" font-size="10.00">MWGui::InventoryWindow</text>
<text text-anchor="middle" x="799" y="-174" font-family="FreeSans" font-size="10.00">::InventoryWindow</text>
</a>
</g>
</g>
<!-- Node6&#45;&gt;Node7 -->
<g id="edge6" class="edge"><title>Node6&#45;&gt;Node7</title>
<path fill="none" stroke="midnightblue" d="M706.317,-195.643C714.826,-194.377 723.441,-193.095 731.809,-191.85"/>
<polygon fill="midnightblue" stroke="midnightblue" points="705.774,-192.185 696.398,-197.119 706.804,-199.109 705.774,-192.185"/>
</g>
<!-- Node8&#45;&gt;Node7 -->
<g id="edge8" class="edge"><title>Node8&#45;&gt;Node7</title>
<path fill="none" stroke="midnightblue" d="M706.317,-168.902C714.826,-170.118 723.441,-171.349 731.809,-172.544"/>
<polygon fill="midnightblue" stroke="midnightblue" points="706.793,-165.435 696.398,-167.485 705.803,-172.365 706.793,-165.435"/>
</g>
<!-- Node9&#45;&gt;Node5 -->
<g id="edge11" class="edge"><title>Node9&#45;&gt;Node5</title>
<path fill="none" stroke="midnightblue" d="M314.458,-209.029C322.955,-208.81 331.672,-208.586 340.333,-208.363"/>
<polygon fill="midnightblue" stroke="midnightblue" points="314.128,-205.537 304.221,-209.293 314.308,-212.534 314.128,-205.537"/>
</g>
<!-- Node11&#45;&gt;Node8 -->
<g id="edge14" class="edge"><title>Node11&#45;&gt;Node8</title>
<path fill="none" stroke="midnightblue" d="M306.061,-81.5272C317.387,-84.3927 329.019,-87.3042 340,-90 416.337,-108.74 504.299,-129.369 562.723,-142.935"/>
<polygon fill="midnightblue" stroke="midnightblue" points="306.764,-78.0948 296.21,-79.0275 305.042,-84.8797 306.764,-78.0948"/>
</g>
<!-- Node12 -->
<g id="node12" class="node"><title>Node12</title>
<g id="a_node12"><a xlink:href="classMWGui_1_1InventoryWindow.html#a7ec2e0d7967f777ee7ee3f3cb830688f" target="_top" xlink:title="Cycle to previous/next weapon. ">
<polygon fill="white" stroke="black" points="366,-51 366,-81 500,-81 500,-51 366,-51"/>
<text text-anchor="start" x="374" y="-69" font-family="FreeSans" font-size="10.00">MWGui::InventoryWindow</text>
<text text-anchor="middle" x="433" y="-58" font-family="FreeSans" font-size="10.00">::cycle</text>
</a>
</g>
</g>
<!-- Node11&#45;&gt;Node12 -->
<g id="edge15" class="edge"><title>Node11&#45;&gt;Node12</title>
<path fill="none" stroke="midnightblue" d="M314.616,-64.7899C331.522,-64.9641 349.294,-65.1474 365.748,-65.317"/>
<polygon fill="midnightblue" stroke="midnightblue" points="314.257,-61.2861 304.221,-64.6827 314.185,-68.2857 314.257,-61.2861"/>
</g>
<!-- Node14 -->
<g id="node14" class="node"><title>Node14</title>
<g id="a_node14"><a xlink:href="classMWGui_1_1WindowManager.html#afe836f19a85eae4531a3216a3c38d777" target="_top" xlink:title="Make the player use an item, while updating GUI state accordingly. ">
<polygon fill="white" stroke="black" points="367,-2 367,-32 499,-32 499,-2 367,-2"/>
<text text-anchor="start" x="375" y="-20" font-family="FreeSans" font-size="10.00">MWGui::WindowManager</text>
<text text-anchor="middle" x="433" y="-9" font-family="FreeSans" font-size="10.00">::useItem</text>
</a>
</g>
</g>
<!-- Node11&#45;&gt;Node14 -->
<g id="edge17" class="edge"><title>Node11&#45;&gt;Node14</title>
<path fill="none" stroke="midnightblue" d="M309.792,-46.6071C329.565,-41.8168 350.839,-36.6628 370.007,-32.019"/>
<polygon fill="midnightblue" stroke="midnightblue" points="308.811,-43.2434 299.916,-48.9997 310.459,-50.0466 308.811,-43.2434"/>
</g>
<!-- Node13 -->
<g id="node13" class="node"><title>Node13</title>
<g id="a_node13"><a xlink:href="classMWGui_1_1WindowManager.html#a092fe5e0d8463463d1f3d3820a7b72f8" target="_top" xlink:title="Cycle to next or previous weapon. ">
<polygon fill="white" stroke="black" points="563,-51 563,-81 695,-81 695,-51 563,-51"/>
<text text-anchor="start" x="571" y="-69" font-family="FreeSans" font-size="10.00">MWGui::WindowManager</text>
<text text-anchor="middle" x="629" y="-58" font-family="FreeSans" font-size="10.00">::cycleWeapon</text>
</a>
</g>
</g>
<!-- Node12&#45;&gt;Node13 -->
<g id="edge16" class="edge"><title>Node12&#45;&gt;Node13</title>
<path fill="none" stroke="midnightblue" d="M510.304,-66C527.642,-66 545.904,-66 562.734,-66"/>
<polygon fill="midnightblue" stroke="midnightblue" points="510.221,-62.5001 500.221,-66 510.221,-69.5001 510.221,-62.5001"/>
</g>
</g>
</svg>
