<?xml version="1.0" encoding="UTF-8" standalone="no"?>
<!DOCTYPE svg PUBLIC "-//W3C//DTD SVG 1.1//EN"
 "http://www.w3.org/Graphics/SVG/1.1/DTD/svg11.dtd">
<!-- Generated by graphviz version 2.36.0 (20140111.2315)
 -->
<!-- Title: MWGui::TradeWindow::addOrRemoveGold Pages: 1 -->
<svg width="418pt" height="38pt"
 viewBox="0.00 0.00 418.00 38.00" xmlns="http://www.w3.org/2000/svg" xmlns:xlink="http://www.w3.org/1999/xlink">
<g id="graph0" class="graph" transform="scale(1 1) rotate(0) translate(4 34)">
<title>MWGui::TradeWindow::addOrRemoveGold</title>
<polygon fill="white" stroke="none" points="-4,4 -4,-34 414,-34 414,4 -4,4"/>
<!-- Node1 -->
<g id="node1" class="node"><title>Node1</title>
<polygon fill="#bfbfbf" stroke="black" points="0,-0 0,-30 112,-30 112,-0 0,-0"/>
<text text-anchor="start" x="8" y="-18" font-family="FreeSans" font-size="10.00">MWGui::TradeWindow</text>
<text text-anchor="middle" x="56" y="-7" font-family="FreeSans" font-size="10.00">::addOrRemoveGold</text>
</g>
<!-- Node2 -->
<g id="node2" class="node"><title>Node2</title>
<g id="a_node2"><a xlink:href="classMWGui_1_1TradeWindow.html#ad32308a56f6e082e2b0c55d396c5842c" target="_top" xlink:title="MWGui::TradeWindow\l::onOfferButtonClicked">
<polygon fill="white" stroke="black" points="148.5,-0 148.5,-30 261.5,-30 261.5,-0 148.5,-0"/>
<text text-anchor="start" x="156.5" y="-18" font-family="FreeSans" font-size="10.00">MWGui::TradeWindow</text>
<text text-anchor="middle" x="205" y="-7" font-family="FreeSans" font-size="10.00">::onOfferButtonClicked</text>
</a>
</g>
</g>
<!-- Node1&#45;&gt;Node2 -->
<g id="edge1" class="edge"><title>Node1&#45;&gt;Node2</title>
<path fill="none" stroke="midnightblue" d="M122.183,-15C130.81,-15 139.592,-15 148.046,-15"/>
<polygon fill="midnightblue" stroke="midnightblue" points="122.156,-11.5001 112.156,-15 122.156,-18.5001 122.156,-11.5001"/>
</g>
<!-- Node3 -->
<g id="node3" class="node"><title>Node3</title>
<g id="a_node3"><a xlink:href="classMWGui_1_1TradeWindow.html#a248abab136a95b1b94939a386ed40c71" target="_top" xlink:title="MWGui::TradeWindow\l::TradeWindow">
<polygon fill="white" stroke="black" points="298,-0 298,-30 410,-30 410,-0 298,-0"/>
<text text-anchor="start" x="306" y="-18" font-family="FreeSans" font-size="10.00">MWGui::TradeWindow</text>
<text text-anchor="middle" x="354" y="-7" font-family="FreeSans" font-size="10.00">::TradeWindow</text>
</a>
</g>
</g>
<!-- Node2&#45;&gt;Node3 -->
<g id="edge2" class="edge"><title>Node2&#45;&gt;Node3</title>
<path fill="none" stroke="midnightblue" d="M271.718,-15C280.442,-15 289.314,-15 297.835,-15"/>
<polygon fill="midnightblue" stroke="midnightblue" points="271.574,-11.5001 261.574,-15 271.574,-18.5001 271.574,-11.5001"/>
</g>
</g>
</svg>
