<?xml version="1.0" encoding="UTF-8" standalone="no"?>
<!DOCTYPE svg PUBLIC "-//W3C//DTD SVG 1.1//EN"
 "http://www.w3.org/Graphics/SVG/1.1/DTD/svg11.dtd">
<!-- Generated by graphviz version 2.36.0 (20140111.2315)
 -->
<!-- Title: Wizard::MainWizard Pages: 1 -->
<svg width="1238pt" height="1258pt"
 viewBox="0.00 0.00 1238.00 1258.00" xmlns="http://www.w3.org/2000/svg" xmlns:xlink="http://www.w3.org/1999/xlink">
<g id="graph0" class="graph" transform="scale(1 1) rotate(0) translate(4 1254)">
<title>Wizard::MainWizard</title>
<polygon fill="white" stroke="none" points="-4,4 -4,-1254 1234,-1254 1234,4 -4,4"/>
<!-- Node1 -->
<g id="node1" class="node"><title>Node1</title>
<polygon fill="#bfbfbf" stroke="black" points="566,-0.5 566,-233.5 708,-233.5 708,-0.5 566,-0.5"/>
<text text-anchor="middle" x="637" y="-221.5" font-family="FreeSans" font-size="10.00">Wizard::MainWizard</text>
<polyline fill="none" stroke="black" points="566,-214.5 708,-214.5 "/>
<text text-anchor="middle" x="637" y="-202.5" font-family="FreeSans" font-size="10.00"> </text>
<polyline fill="none" stroke="black" points="566,-195.5 708,-195.5 "/>
<text text-anchor="start" x="574" y="-183.5" font-family="FreeSans" font-size="10.00">+ MainWizard()</text>
<text text-anchor="start" x="574" y="-172.5" font-family="FreeSans" font-size="10.00">+ ~MainWizard()</text>
<text text-anchor="start" x="574" y="-161.5" font-family="FreeSans" font-size="10.00">+ findFiles()</text>
<text text-anchor="start" x="574" y="-150.5" font-family="FreeSans" font-size="10.00">+ addInstallation()</text>
<text text-anchor="start" x="574" y="-139.5" font-family="FreeSans" font-size="10.00">+ runSettingsImporter()</text>
<text text-anchor="start" x="574" y="-128.5" font-family="FreeSans" font-size="10.00">+ addLogText()</text>
<text text-anchor="start" x="574" y="-117.5" font-family="FreeSans" font-size="10.00">&#45; toQString()</text>
<text text-anchor="start" x="574" y="-106.5" font-family="FreeSans" font-size="10.00">&#45; setupLog()</text>
<text text-anchor="start" x="574" y="-95.5" font-family="FreeSans" font-size="10.00">&#45; setupGameSettings()</text>
<text text-anchor="start" x="574" y="-84.5" font-family="FreeSans" font-size="10.00">&#45; setupLauncherSettings()</text>
<text text-anchor="start" x="574" y="-73.5" font-family="FreeSans" font-size="10.00">&#45; setupInstallations()</text>
<text text-anchor="start" x="574" y="-62.5" font-family="FreeSans" font-size="10.00">&#45; setupPages()</text>
<text text-anchor="start" x="574" y="-51.5" font-family="FreeSans" font-size="10.00">&#45; writeSettings()</text>
<text text-anchor="start" x="574" y="-40.5" font-family="FreeSans" font-size="10.00">&#45; importerStarted()</text>
<text text-anchor="start" x="574" y="-29.5" font-family="FreeSans" font-size="10.00">&#45; importerFinished()</text>
<text text-anchor="start" x="574" y="-18.5" font-family="FreeSans" font-size="10.00">&#45; accept()</text>
<text text-anchor="start" x="574" y="-7.5" font-family="FreeSans" font-size="10.00">&#45; reject()</text>
</g>
<!-- Node2 -->
<g id="node2" class="node"><title>Node2</title>
<g id="a_node2"><a xlink:href="classQWizard.html" target="_top" xlink:title="{QWizard\n||}">
<polygon fill="white" stroke="black" points="73,-359.5 73,-416.5 129,-416.5 129,-359.5 73,-359.5"/>
<text text-anchor="middle" x="101" y="-404.5" font-family="FreeSans" font-size="10.00">QWizard</text>
<polyline fill="none" stroke="black" points="73,-397.5 129,-397.5 "/>
<text text-anchor="middle" x="101" y="-385.5" font-family="FreeSans" font-size="10.00"> </text>
<polyline fill="none" stroke="black" points="73,-378.5 129,-378.5 "/>
<text text-anchor="middle" x="101" y="-366.5" font-family="FreeSans" font-size="10.00"> </text>
</a>
</g>
</g>
<!-- Node2&#45;&gt;Node1 -->
<g id="edge1" class="edge"><title>Node2&#45;&gt;Node1</title>
<path fill="none" stroke="midnightblue" d="M105.821,-349.427C110.528,-327.128 119.795,-299.822 138,-282 256.597,-165.897 458.775,-131.987 565.749,-122.084"/>
<polygon fill="none" stroke="midnightblue" points="102.379,-348.792 103.964,-359.268 109.258,-350.091 102.379,-348.792"/>
</g>
<!-- Node3 -->
<g id="node3" class="node"><title>Node3</title>
<g id="a_node3"><a xlink:href="structFiles_1_1ConfigurationManager.html" target="_top" xlink:title="{Files::ConfigurationManager\n||+ ConfigurationManager()\l+ ~ConfigurationManager()\l+ readConfiguration()\l+ processPaths()\l+ getGlobalPath()\l+ getUserConfigPath()\l+ getLocalPath()\l+ getGlobalDataPath()\l+ getUserDataPath()\l+ getLocalDataPath()\l+ getInstallPath()\l+ getCachePath()\l+ getLogPath()\l&#45; loadConfig()\l&#45; setupTokensMapping()\l}">
<polygon fill="white" stroke="black" points="865.5,-574.5 865.5,-785.5 1014.5,-785.5 1014.5,-574.5 865.5,-574.5"/>
<text text-anchor="middle" x="940" y="-773.5" font-family="FreeSans" font-size="10.00">Files::ConfigurationManager</text>
<polyline fill="none" stroke="black" points="865.5,-766.5 1014.5,-766.5 "/>
<text text-anchor="middle" x="940" y="-754.5" font-family="FreeSans" font-size="10.00"> </text>
<polyline fill="none" stroke="black" points="865.5,-747.5 1014.5,-747.5 "/>
<text text-anchor="start" x="873.5" y="-735.5" font-family="FreeSans" font-size="10.00">+ ConfigurationManager()</text>
<text text-anchor="start" x="873.5" y="-724.5" font-family="FreeSans" font-size="10.00">+ ~ConfigurationManager()</text>
<text text-anchor="start" x="873.5" y="-713.5" font-family="FreeSans" font-size="10.00">+ readConfiguration()</text>
<text text-anchor="start" x="873.5" y="-702.5" font-family="FreeSans" font-size="10.00">+ processPaths()</text>
<text text-anchor="start" x="873.5" y="-691.5" font-family="FreeSans" font-size="10.00">+ getGlobalPath()</text>
<text text-anchor="start" x="873.5" y="-680.5" font-family="FreeSans" font-size="10.00">+ getUserConfigPath()</text>
<text text-anchor="start" x="873.5" y="-669.5" font-family="FreeSans" font-size="10.00">+ getLocalPath()</text>
<text text-anchor="start" x="873.5" y="-658.5" font-family="FreeSans" font-size="10.00">+ getGlobalDataPath()</text>
<text text-anchor="start" x="873.5" y="-647.5" font-family="FreeSans" font-size="10.00">+ getUserDataPath()</text>
<text text-anchor="start" x="873.5" y="-636.5" font-family="FreeSans" font-size="10.00">+ getLocalDataPath()</text>
<text text-anchor="start" x="873.5" y="-625.5" font-family="FreeSans" font-size="10.00">+ getInstallPath()</text>
<text text-anchor="start" x="873.5" y="-614.5" font-family="FreeSans" font-size="10.00">+ getCachePath()</text>
<text text-anchor="start" x="873.5" y="-603.5" font-family="FreeSans" font-size="10.00">+ getLogPath()</text>
<text text-anchor="start" x="873.5" y="-592.5" font-family="FreeSans" font-size="10.00">&#45; loadConfig()</text>
<text text-anchor="start" x="873.5" y="-581.5" font-family="FreeSans" font-size="10.00">&#45; setupTokensMapping()</text>
</a>
</g>
</g>
<!-- Node3&#45;&gt;Node1 -->
<g id="edge2" class="edge"><title>Node3&#45;&gt;Node1</title>
<path fill="none" stroke="#404040" d="M927.503,-574.112C911.257,-479.609 874.575,-342.074 793,-252 770.267,-226.899 742.965,-202.003 717.599,-180.606"/>
<polygon fill="none" stroke="#404040" points="717.565,-180.577 710.396,-179.803 708.353,-172.887 715.523,-173.662 717.565,-180.577"/>
<text text-anchor="middle" x="937.5" y="-385.5" font-family="FreeSans" font-size="10.00"> +mCfgMgr</text>
</g>
<!-- Node17 -->
<g id="node17" class="node"><title>Node17</title>
<g id="a_node17"><a xlink:href="classConfig_1_1GameSettings.html" target="_top" xlink:title="{Config::GameSettings\n||+ GameSettings()\l+ ~GameSettings()\l+ value()\l+ setValue()\l+ setMultiValue()\l+ remove()\l+ getDataDirs()\l+ removeDataDir()\l+ addDataDir()\l+ getDataLocal()\land 10 more...\l&#45; validatePaths()\l&#45; isOrderedLine()\l}">
<polygon fill="white" stroke="black" points="494,-293.5 494,-482.5 616,-482.5 616,-293.5 494,-293.5"/>
<text text-anchor="middle" x="555" y="-470.5" font-family="FreeSans" font-size="10.00">Config::GameSettings</text>
<polyline fill="none" stroke="black" points="494,-463.5 616,-463.5 "/>
<text text-anchor="middle" x="555" y="-451.5" font-family="FreeSans" font-size="10.00"> </text>
<polyline fill="none" stroke="black" points="494,-444.5 616,-444.5 "/>
<text text-anchor="start" x="502" y="-432.5" font-family="FreeSans" font-size="10.00">+ GameSettings()</text>
<text text-anchor="start" x="502" y="-421.5" font-family="FreeSans" font-size="10.00">+ ~GameSettings()</text>
<text text-anchor="start" x="502" y="-410.5" font-family="FreeSans" font-size="10.00">+ value()</text>
<text text-anchor="start" x="502" y="-399.5" font-family="FreeSans" font-size="10.00">+ setValue()</text>
<text text-anchor="start" x="502" y="-388.5" font-family="FreeSans" font-size="10.00">+ setMultiValue()</text>
<text text-anchor="start" x="502" y="-377.5" font-family="FreeSans" font-size="10.00">+ remove()</text>
<text text-anchor="start" x="502" y="-366.5" font-family="FreeSans" font-size="10.00">+ getDataDirs()</text>
<text text-anchor="start" x="502" y="-355.5" font-family="FreeSans" font-size="10.00">+ removeDataDir()</text>
<text text-anchor="start" x="502" y="-344.5" font-family="FreeSans" font-size="10.00">+ addDataDir()</text>
<text text-anchor="start" x="502" y="-333.5" font-family="FreeSans" font-size="10.00">+ getDataLocal()</text>
<text text-anchor="start" x="502" y="-322.5" font-family="FreeSans" font-size="10.00">and 10 more...</text>
<text text-anchor="start" x="502" y="-311.5" font-family="FreeSans" font-size="10.00">&#45; validatePaths()</text>
<text text-anchor="start" x="502" y="-300.5" font-family="FreeSans" font-size="10.00">&#45; isOrderedLine()</text>
</a>
</g>
</g>
<!-- Node3&#45;&gt;Node17 -->
<g id="edge19" class="edge"><title>Node3&#45;&gt;Node17</title>
<path fill="none" stroke="#404040" d="M868.579,-574.253C845.956,-549.295 818.721,-525.89 788,-512 721.588,-481.973 687.273,-531.871 625,-494 623.198,-492.904 621.433,-491.743 619.704,-490.521"/>
<polygon fill="none" stroke="#404040" points="619.571,-490.415 612.387,-489.792 610.199,-482.921 617.383,-483.544 619.571,-490.415"/>
<text text-anchor="middle" x="874.5" y="-531.5" font-family="FreeSans" font-size="10.00"> &#45;mCfgMgr</text>
</g>
<!-- Node4 -->
<g id="node4" class="node"><title>Node4</title>
<polygon fill="white" stroke="#bfbfbf" points="1111,-1084.5 1111,-1141.5 1149,-1141.5 1149,-1084.5 1111,-1084.5"/>
<text text-anchor="middle" x="1130" y="-1129.5" font-family="FreeSans" font-size="10.00">path</text>
<polyline fill="none" stroke="#bfbfbf" points="1111,-1122.5 1149,-1122.5 "/>
<text text-anchor="middle" x="1130" y="-1110.5" font-family="FreeSans" font-size="10.00"> </text>
<polyline fill="none" stroke="#bfbfbf" points="1111,-1103.5 1149,-1103.5 "/>
<text text-anchor="middle" x="1130" y="-1091.5" font-family="FreeSans" font-size="10.00"> </text>
</g>
<!-- Node4&#45;&gt;Node3 -->
<g id="edge3" class="edge"><title>Node4&#45;&gt;Node3</title>
<path fill="none" stroke="#404040" d="M1149.44,-1097.18C1158.44,-1089.07 1168.18,-1078.2 1173,-1066 1193.13,-1015 1151.88,-838.728 1149,-834 1119.73,-785.902 1069.09,-748.253 1024.99,-722.337"/>
<polygon fill="none" stroke="#404040" points="1024.93,-722.304 1017.74,-722.787 1014.53,-716.331 1021.72,-715.848 1024.93,-722.304"/>
<text text-anchor="middle" x="1202.5" y="-899.5" font-family="FreeSans" font-size="10.00"> &#45;mLogPath</text>
</g>
<!-- Node5 -->
<g id="node5" class="node"><title>Node5</title>
<g id="a_node5"><a xlink:href="structFiles_1_1FixedPath.html" target="_top" xlink:title="{Files::FixedPath\&lt; P \&gt;\n||+ FixedPath()\l+ getUserConfigPath()\l+ getUserDataPath()\l+ getGlobalConfigPath()\l+ getLocalPath()\l+ getInstallPath()\l+ getGlobalDataPath()\l+ getCachePath()\l}">
<polygon fill="white" stroke="black" points="1008,-835 1008,-969 1140,-969 1140,-835 1008,-835"/>
<text text-anchor="middle" x="1074" y="-957" font-family="FreeSans" font-size="10.00">Files::FixedPath&lt; P &gt;</text>
<polyline fill="none" stroke="black" points="1008,-950 1140,-950 "/>
<text text-anchor="middle" x="1074" y="-938" font-family="FreeSans" font-size="10.00"> </text>
<polyline fill="none" stroke="black" points="1008,-931 1140,-931 "/>
<text text-anchor="start" x="1016" y="-919" font-family="FreeSans" font-size="10.00">+ FixedPath()</text>
<text text-anchor="start" x="1016" y="-908" font-family="FreeSans" font-size="10.00">+ getUserConfigPath()</text>
<text text-anchor="start" x="1016" y="-897" font-family="FreeSans" font-size="10.00">+ getUserDataPath()</text>
<text text-anchor="start" x="1016" y="-886" font-family="FreeSans" font-size="10.00">+ getGlobalConfigPath()</text>
<text text-anchor="start" x="1016" y="-875" font-family="FreeSans" font-size="10.00">+ getLocalPath()</text>
<text text-anchor="start" x="1016" y="-864" font-family="FreeSans" font-size="10.00">+ getInstallPath()</text>
<text text-anchor="start" x="1016" y="-853" font-family="FreeSans" font-size="10.00">+ getGlobalDataPath()</text>
<text text-anchor="start" x="1016" y="-842" font-family="FreeSans" font-size="10.00">+ getCachePath()</text>
</a>
</g>
</g>
<!-- Node4&#45;&gt;Node5 -->
<g id="edge5" class="edge"><title>Node4&#45;&gt;Node5</title>
<path fill="none" stroke="#404040" d="M1110.93,-1101.94C1098.18,-1094.05 1082.43,-1081.77 1075,-1066 1062.81,-1040.13 1060.09,-1009.29 1061.26,-981.429"/>
<polygon fill="none" stroke="#404040" points="1061.27,-981.259 1057.65,-975.022 1062.02,-969.282 1065.64,-975.519 1061.27,-981.259"/>
<text text-anchor="middle" x="1124" y="-1057.5" font-family="FreeSans" font-size="10.00"> &#45;mGlobalConfigPath</text>
<text text-anchor="middle" x="1124" y="-1046.5" font-family="FreeSans" font-size="10.00">&#45;mInstallPath</text>
<text text-anchor="middle" x="1124" y="-1035.5" font-family="FreeSans" font-size="10.00">&#45;mLocalPath</text>
<text text-anchor="middle" x="1124" y="-1024.5" font-family="FreeSans" font-size="10.00">&#45;mUserDataPath</text>
<text text-anchor="middle" x="1124" y="-1013.5" font-family="FreeSans" font-size="10.00">&#45;mUserConfigPath</text>
<text text-anchor="middle" x="1124" y="-1002.5" font-family="FreeSans" font-size="10.00">&#45;mGlobalDataPath</text>
<text text-anchor="middle" x="1124" y="-991.5" font-family="FreeSans" font-size="10.00">&#45;mCachePath</text>
</g>
<!-- Node5&#45;&gt;Node3 -->
<g id="edge4" class="edge"><title>Node5&#45;&gt;Node3</title>
<path fill="none" stroke="#404040" d="M1033.8,-834.993C1026.24,-822.587 1018.14,-809.288 1009.98,-795.892"/>
<polygon fill="none" stroke="#404040" points="1009.98,-795.89 1003.44,-792.847 1003.74,-785.642 1010.27,-788.685 1009.98,-795.89"/>
<text text-anchor="middle" x="1051" y="-807.5" font-family="FreeSans" font-size="10.00"> &#45;mFixedPath</text>
</g>
<!-- Node6 -->
<g id="node6" class="node"><title>Node6</title>
<polygon fill="white" stroke="#bfbfbf" points="998.5,-1084.5 998.5,-1141.5 1027.5,-1141.5 1027.5,-1084.5 998.5,-1084.5"/>
<text text-anchor="middle" x="1013" y="-1129.5" font-family="FreeSans" font-size="10.00">P</text>
<polyline fill="none" stroke="#bfbfbf" points="998.5,-1122.5 1027.5,-1122.5 "/>
<text text-anchor="middle" x="1013" y="-1110.5" font-family="FreeSans" font-size="10.00"> </text>
<polyline fill="none" stroke="#bfbfbf" points="998.5,-1103.5 1027.5,-1103.5 "/>
<text text-anchor="middle" x="1013" y="-1091.5" font-family="FreeSans" font-size="10.00"> </text>
</g>
<!-- Node6&#45;&gt;Node5 -->
<g id="edge6" class="edge"><title>Node6&#45;&gt;Node5</title>
<path fill="none" stroke="#404040" d="M1010.63,-1084.18C1009.36,-1058.56 1009.77,-1019.82 1020,-988 1020.83,-985.431 1021.75,-982.862 1022.75,-980.304"/>
<polygon fill="none" stroke="#404040" points="1022.82,-980.165 1021.57,-973.063 1027.64,-969.179 1028.89,-976.281 1022.82,-980.165"/>
<text text-anchor="middle" x="1039" y="-1024.5" font-family="FreeSans" font-size="10.00"> &#45;mPath</text>
</g>
<!-- Node7 -->
<g id="node7" class="node"><title>Node7</title>
<g id="a_node7"><a xlink:href="classbool.html" target="_top" xlink:title="{bool\n||}">
<polygon fill="white" stroke="black" points="951.5,-873.5 951.5,-930.5 988.5,-930.5 988.5,-873.5 951.5,-873.5"/>
<text text-anchor="middle" x="970" y="-918.5" font-family="FreeSans" font-size="10.00">bool</text>
<polyline fill="none" stroke="black" points="951.5,-911.5 988.5,-911.5 "/>
<text text-anchor="middle" x="970" y="-899.5" font-family="FreeSans" font-size="10.00"> </text>
<polyline fill="none" stroke="black" points="951.5,-892.5 988.5,-892.5 "/>
<text text-anchor="middle" x="970" y="-880.5" font-family="FreeSans" font-size="10.00"> </text>
</a>
</g>
</g>
<!-- Node7&#45;&gt;Node1 -->
<g id="edge24" class="edge"><title>Node7&#45;&gt;Node1</title>
<path fill="none" stroke="#404040" d="M981.513,-873.465C986.704,-861.3 993.004,-846.867 999,-834 1009.07,-812.381 1017.52,-809.213 1023,-786 1048.88,-676.372 1036.94,-371.847 969,-282 908.088,-201.444 796.912,-157.997 720.099,-136.45"/>
<polygon fill="none" stroke="#404040" points="719.657,-136.33 712.817,-138.614 708.079,-133.178 714.919,-130.895 719.657,-136.33"/>
<text text-anchor="middle" x="1056.5" y="-531.5" font-family="FreeSans" font-size="10.00"> +mError</text>
</g>
<!-- Node7&#45;&gt;Node3 -->
<g id="edge7" class="edge"><title>Node7&#45;&gt;Node3</title>
<path fill="none" stroke="#404040" d="M966.2,-873.137C963.531,-853.56 959.762,-825.92 955.912,-797.69"/>
<polygon fill="none" stroke="#404040" points="955.882,-797.468 951.108,-792.063 954.261,-785.578 959.035,-790.982 955.882,-797.468"/>
<text text-anchor="middle" x="980" y="-807.5" font-family="FreeSans" font-size="10.00"> &#45;mSilent</text>
</g>
<!-- Node22 -->
<g id="node22" class="node"><title>Node22</title>
<g id="a_node22"><a xlink:href="classConfig_1_1SettingsBase.html" target="_top" xlink:title="{Config::SettingsBase\l\&lt; QMap\&lt; QString, QString \&gt; \&gt;\n||+ SettingsBase()\l+ ~SettingsBase()\l+ value()\l+ setValue()\l+ setMultiValue()\l+ setMultiValueEnabled()\l+ remove()\l+ getSettings()\l+ readFile()\l+ clear()\l}">
<polygon fill="white" stroke="black" points="680.5,-596.5 680.5,-763.5 847.5,-763.5 847.5,-596.5 680.5,-596.5"/>
<text text-anchor="start" x="688.5" y="-751.5" font-family="FreeSans" font-size="10.00">Config::SettingsBase</text>
<text text-anchor="middle" x="764" y="-740.5" font-family="FreeSans" font-size="10.00">&lt; QMap&lt; QString, QString &gt; &gt;</text>
<polyline fill="none" stroke="black" points="680.5,-733.5 847.5,-733.5 "/>
<text text-anchor="middle" x="764" y="-721.5" font-family="FreeSans" font-size="10.00"> </text>
<polyline fill="none" stroke="black" points="680.5,-714.5 847.5,-714.5 "/>
<text text-anchor="start" x="688.5" y="-702.5" font-family="FreeSans" font-size="10.00">+ SettingsBase()</text>
<text text-anchor="start" x="688.5" y="-691.5" font-family="FreeSans" font-size="10.00">+ ~SettingsBase()</text>
<text text-anchor="start" x="688.5" y="-680.5" font-family="FreeSans" font-size="10.00">+ value()</text>
<text text-anchor="start" x="688.5" y="-669.5" font-family="FreeSans" font-size="10.00">+ setValue()</text>
<text text-anchor="start" x="688.5" y="-658.5" font-family="FreeSans" font-size="10.00">+ setMultiValue()</text>
<text text-anchor="start" x="688.5" y="-647.5" font-family="FreeSans" font-size="10.00">+ setMultiValueEnabled()</text>
<text text-anchor="start" x="688.5" y="-636.5" font-family="FreeSans" font-size="10.00">+ remove()</text>
<text text-anchor="start" x="688.5" y="-625.5" font-family="FreeSans" font-size="10.00">+ getSettings()</text>
<text text-anchor="start" x="688.5" y="-614.5" font-family="FreeSans" font-size="10.00">+ readFile()</text>
<text text-anchor="start" x="688.5" y="-603.5" font-family="FreeSans" font-size="10.00">+ clear()</text>
</a>
</g>
</g>
<!-- Node7&#45;&gt;Node22 -->
<g id="edge28" class="edge"><title>Node7&#45;&gt;Node22</title>
<path fill="none" stroke="#404040" d="M959.031,-873.26C952.008,-859.196 941.467,-843.189 927,-834 875.534,-801.308 835.508,-857.672 791,-816 779.39,-805.13 771.992,-790.791 767.399,-775.52"/>
<polygon fill="none" stroke="#404040" points="767.353,-775.336 762.004,-770.499 764.412,-763.702 769.76,-768.538 767.353,-775.336"/>
<text text-anchor="middle" x="824" y="-807.5" font-family="FreeSans" font-size="10.00"> &#45;mMultiValue</text>
</g>
<!-- Node8 -->
<g id="node8" class="node"><title>Node8</title>
<polygon fill="white" stroke="#bfbfbf" points="796,-868 796,-936 918,-936 918,-868 796,-868"/>
<text text-anchor="start" x="804" y="-924" font-family="FreeSans" font-size="10.00">std::map&lt; std::string,</text>
<text text-anchor="middle" x="857" y="-913" font-family="FreeSans" font-size="10.00"> path_type_f &gt;</text>
<polyline fill="none" stroke="#bfbfbf" points="796,-906 918,-906 "/>
<text text-anchor="middle" x="857" y="-894" font-family="FreeSans" font-size="10.00"> </text>
<polyline fill="none" stroke="#bfbfbf" points="796,-887 918,-887 "/>
<text text-anchor="middle" x="857" y="-875" font-family="FreeSans" font-size="10.00"> </text>
</g>
<!-- Node8&#45;&gt;Node3 -->
<g id="edge8" class="edge"><title>Node8&#45;&gt;Node3</title>
<path fill="none" stroke="#404040" d="M855.05,-867.923C854.9,-848.814 856.4,-824.564 863,-804 863.736,-801.706 864.525,-799.412 865.361,-797.121"/>
<polygon fill="none" stroke="#404040" points="865.469,-796.851 863.976,-789.796 869.914,-785.705 871.407,-792.76 865.469,-796.851"/>
<text text-anchor="middle" x="908" y="-807.5" font-family="FreeSans" font-size="10.00"> &#45;mTokensMapping</text>
</g>
<!-- Node9 -->
<g id="node9" class="node"><title>Node9</title>
<g id="a_node9"><a xlink:title="STL class. ">
<polygon fill="white" stroke="#bfbfbf" points="775.5,-1084.5 775.5,-1141.5 840.5,-1141.5 840.5,-1084.5 775.5,-1084.5"/>
<text text-anchor="middle" x="808" y="-1129.5" font-family="FreeSans" font-size="10.00">std::string</text>
<polyline fill="none" stroke="#bfbfbf" points="775.5,-1122.5 840.5,-1122.5 "/>
<text text-anchor="middle" x="808" y="-1110.5" font-family="FreeSans" font-size="10.00"> </text>
<polyline fill="none" stroke="#bfbfbf" points="775.5,-1103.5 840.5,-1103.5 "/>
<text text-anchor="middle" x="808" y="-1091.5" font-family="FreeSans" font-size="10.00"> </text>
</a>
</g>
</g>
<!-- Node9&#45;&gt;Node8 -->
<g id="edge9" class="edge"><title>Node9&#45;&gt;Node8</title>
<path fill="none" stroke="#404040" d="M813.699,-1084.35C818.965,-1059.17 827.138,-1021.01 835,-988 838.105,-974.965 841.671,-960.859 845.017,-947.955"/>
<polygon fill="none" stroke="#404040" points="845.1,-947.636 842.747,-940.82 848.134,-936.026 850.487,-942.842 845.1,-947.636"/>
<text text-anchor="middle" x="852" y="-1024.5" font-family="FreeSans" font-size="10.00"> +keys</text>
</g>
<!-- Node10 -->
<g id="node10" class="node"><title>Node10</title>
<g id="a_node10"><a xlink:title="STL class. ">
<polygon fill="white" stroke="#bfbfbf" points="756.5,-1181 756.5,-1249 859.5,-1249 859.5,-1181 756.5,-1181"/>
<text text-anchor="start" x="764.5" y="-1237" font-family="FreeSans" font-size="10.00">std::basic_string&lt;</text>
<text text-anchor="middle" x="808" y="-1226" font-family="FreeSans" font-size="10.00"> char &gt;</text>
<polyline fill="none" stroke="#bfbfbf" points="756.5,-1219 859.5,-1219 "/>
<text text-anchor="middle" x="808" y="-1207" font-family="FreeSans" font-size="10.00"> </text>
<polyline fill="none" stroke="#bfbfbf" points="756.5,-1200 859.5,-1200 "/>
<text text-anchor="middle" x="808" y="-1188" font-family="FreeSans" font-size="10.00"> </text>
</a>
</g>
</g>
<!-- Node10&#45;&gt;Node9 -->
<g id="edge10" class="edge"><title>Node10&#45;&gt;Node9</title>
<path fill="none" stroke="midnightblue" d="M808,-1170.86C808,-1160.95 808,-1150.68 808,-1141.64"/>
<polygon fill="none" stroke="midnightblue" points="804.5,-1170.98 808,-1180.98 811.5,-1170.98 804.5,-1170.98"/>
</g>
<!-- Node11 -->
<g id="node11" class="node"><title>Node11</title>
<polygon fill="white" stroke="#bfbfbf" points="858.5,-1084.5 858.5,-1141.5 931.5,-1141.5 931.5,-1084.5 858.5,-1084.5"/>
<text text-anchor="middle" x="895" y="-1129.5" font-family="FreeSans" font-size="10.00">path_type_f</text>
<polyline fill="none" stroke="#bfbfbf" points="858.5,-1122.5 931.5,-1122.5 "/>
<text text-anchor="middle" x="895" y="-1110.5" font-family="FreeSans" font-size="10.00"> </text>
<polyline fill="none" stroke="#bfbfbf" points="858.5,-1103.5 931.5,-1103.5 "/>
<text text-anchor="middle" x="895" y="-1091.5" font-family="FreeSans" font-size="10.00"> </text>
</g>
<!-- Node11&#45;&gt;Node8 -->
<g id="edge11" class="edge"><title>Node11&#45;&gt;Node8</title>
<path fill="none" stroke="#404040" d="M889.954,-1084.25C883.628,-1049.45 872.703,-989.367 865.177,-947.975"/>
<polygon fill="none" stroke="#404040" points="865.154,-947.848 860.145,-942.661 863.008,-936.042 868.016,-941.23 865.154,-947.848"/>
<text text-anchor="middle" x="914.5" y="-1024.5" font-family="FreeSans" font-size="10.00"> +elements</text>
</g>
<!-- Node12 -->
<g id="node12" class="node"><title>Node12</title>
<g id="a_node12"><a xlink:href="classProcess_1_1ProcessInvoker.html" target="_top" xlink:title="{Process::ProcessInvoker\n||+ ProcessInvoker()\l+ ~ProcessInvoker()\l+ getProcess()\l+ startProcess()\l+ startProcess()\l&#45; processError()\l&#45; processFinished()\l}">
<polygon fill="white" stroke="black" points="147,-326.5 147,-449.5 279,-449.5 279,-326.5 147,-326.5"/>
<text text-anchor="middle" x="213" y="-437.5" font-family="FreeSans" font-size="10.00">Process::ProcessInvoker</text>
<polyline fill="none" stroke="black" points="147,-430.5 279,-430.5 "/>
<text text-anchor="middle" x="213" y="-418.5" font-family="FreeSans" font-size="10.00"> </text>
<polyline fill="none" stroke="black" points="147,-411.5 279,-411.5 "/>
<text text-anchor="start" x="155" y="-399.5" font-family="FreeSans" font-size="10.00">+ ProcessInvoker()</text>
<text text-anchor="start" x="155" y="-388.5" font-family="FreeSans" font-size="10.00">+ ~ProcessInvoker()</text>
<text text-anchor="start" x="155" y="-377.5" font-family="FreeSans" font-size="10.00">+ getProcess()</text>
<text text-anchor="start" x="155" y="-366.5" font-family="FreeSans" font-size="10.00">+ startProcess()</text>
<text text-anchor="start" x="155" y="-355.5" font-family="FreeSans" font-size="10.00">+ startProcess()</text>
<text text-anchor="start" x="155" y="-344.5" font-family="FreeSans" font-size="10.00">&#45; processError()</text>
<text text-anchor="start" x="155" y="-333.5" font-family="FreeSans" font-size="10.00">&#45; processFinished()</text>
</a>
</g>
</g>
<!-- Node12&#45;&gt;Node1 -->
<g id="edge12" class="edge"><title>Node12&#45;&gt;Node1</title>
<path fill="none" stroke="#404040" d="M244.834,-326.205C260.706,-300.556 281.899,-272.056 307,-252 380.446,-193.316 483.047,-157.073 554.269,-137.314"/>
<polygon fill="none" stroke="#404040" points="554.281,-137.311 559.023,-131.879 565.861,-134.167 561.119,-139.599 554.281,-137.311"/>
<text text-anchor="middle" x="355.5" y="-255.5" font-family="FreeSans" font-size="10.00"> +mImporterInvoker</text>
</g>
<!-- Node13 -->
<g id="node13" class="node"><title>Node13</title>
<g id="a_node13"><a xlink:href="classQObject.html" target="_top" xlink:title="{QObject\n||}">
<polygon fill="white" stroke="black" points="-0.5,-651.5 -0.5,-708.5 54.5,-708.5 54.5,-651.5 -0.5,-651.5"/>
<text text-anchor="middle" x="27" y="-696.5" font-family="FreeSans" font-size="10.00">QObject</text>
<polyline fill="none" stroke="black" points="-0.5,-689.5 54.5,-689.5 "/>
<text text-anchor="middle" x="27" y="-677.5" font-family="FreeSans" font-size="10.00"> </text>
<polyline fill="none" stroke="black" points="-0.5,-670.5 54.5,-670.5 "/>
<text text-anchor="middle" x="27" y="-658.5" font-family="FreeSans" font-size="10.00"> </text>
</a>
</g>
</g>
<!-- Node13&#45;&gt;Node12 -->
<g id="edge13" class="edge"><title>Node13&#45;&gt;Node12</title>
<path fill="none" stroke="midnightblue" d="M37.6258,-641.878C44.0995,-621.365 53.2008,-595.713 64,-574 78.7115,-544.421 80.8159,-534.505 105,-512 116.946,-500.884 124.822,-504.862 137,-494 151.359,-481.193 164.604,-465.229 175.877,-449.644"/>
<polygon fill="none" stroke="midnightblue" points="34.2622,-640.909 34.6629,-651.496 40.9519,-642.97 34.2622,-640.909"/>
</g>
<!-- Node14 -->
<g id="node14" class="node"><title>Node14</title>
<polygon fill="white" stroke="#bfbfbf" points="391.5,-651.5 391.5,-708.5 444.5,-708.5 444.5,-651.5 391.5,-651.5"/>
<text text-anchor="middle" x="418" y="-696.5" font-family="FreeSans" font-size="10.00">QString</text>
<polyline fill="none" stroke="#bfbfbf" points="391.5,-689.5 444.5,-689.5 "/>
<text text-anchor="middle" x="418" y="-677.5" font-family="FreeSans" font-size="10.00"> </text>
<polyline fill="none" stroke="#bfbfbf" points="391.5,-670.5 444.5,-670.5 "/>
<text text-anchor="middle" x="418" y="-658.5" font-family="FreeSans" font-size="10.00"> </text>
</g>
<!-- Node14&#45;&gt;Node1 -->
<g id="edge17" class="edge"><title>Node14&#45;&gt;Node1</title>
<path fill="none" stroke="#404040" d="M415.622,-651.419C409.273,-572.396 394.525,-346.695 427,-282 454.252,-227.71 508.803,-185.964 555.475,-158.178"/>
<polygon fill="none" stroke="#404040" points="555.538,-158.142 558.717,-151.669 565.914,-152.114 562.735,-158.587 555.538,-158.142"/>
<text text-anchor="middle" x="456" y="-385.5" font-family="FreeSans" font-size="10.00"> &#45;mLogError</text>
</g>
<!-- Node14&#45;&gt;Node12 -->
<g id="edge14" class="edge"><title>Node14&#45;&gt;Node12</title>
<path fill="none" stroke="#404040" d="M404.48,-651.22C382.115,-605.351 339.429,-518.187 335,-512 321.284,-492.84 304.538,-473.887 287.9,-456.81"/>
<polygon fill="none" stroke="#404040" points="287.673,-456.582 280.609,-455.137 279.225,-448.059 286.29,-449.505 287.673,-456.582"/>
<text text-anchor="middle" x="379" y="-531.5" font-family="FreeSans" font-size="10.00"> &#45;mName</text>
</g>
<!-- Node14&#45;&gt;Node17 -->
<g id="edge20" class="edge"><title>Node14&#45;&gt;Node17</title>
<path fill="none" stroke="#404040" d="M417.284,-651.346C417.697,-616.012 423.008,-554.364 452,-512 460.355,-499.791 469.286,-504.202 480,-494 481.944,-492.149 483.871,-490.24 485.777,-488.285"/>
<polygon fill="none" stroke="#404040" points="485.83,-488.228 486.983,-481.109 493.997,-479.436 492.844,-486.554 485.83,-488.228"/>
<text text-anchor="middle" x="484.5" y="-531.5" font-family="FreeSans" font-size="10.00"> &#45;mDataLocal</text>
</g>
<!-- Node15 -->
<g id="node15" class="node"><title>Node15</title>
<polygon fill="white" stroke="#bfbfbf" points="73,-651.5 73,-708.5 135,-708.5 135,-651.5 73,-651.5"/>
<text text-anchor="middle" x="104" y="-696.5" font-family="FreeSans" font-size="10.00">QProcess</text>
<polyline fill="none" stroke="#bfbfbf" points="73,-689.5 135,-689.5 "/>
<text text-anchor="middle" x="104" y="-677.5" font-family="FreeSans" font-size="10.00"> </text>
<polyline fill="none" stroke="#bfbfbf" points="73,-670.5 135,-670.5 "/>
<text text-anchor="middle" x="104" y="-658.5" font-family="FreeSans" font-size="10.00"> </text>
</g>
<!-- Node15&#45;&gt;Node12 -->
<g id="edge15" class="edge"><title>Node15&#45;&gt;Node12</title>
<path fill="none" stroke="#404040" d="M102.207,-651.476C101.033,-617.344 102.476,-558.043 122,-512 126.065,-502.413 130.61,-502.223 137,-494 145.576,-482.964 154.465,-471.102 163.009,-459.466"/>
<polygon fill="none" stroke="#404040" points="163.014,-459.458 163.322,-452.254 170.09,-449.767 169.783,-456.971 163.014,-459.458"/>
<text text-anchor="middle" x="149.5" y="-531.5" font-family="FreeSans" font-size="10.00"> &#45;mProcess</text>
</g>
<!-- Node16 -->
<g id="node16" class="node"><title>Node16</title>
<polygon fill="white" stroke="#bfbfbf" points="197.5,-651.5 197.5,-708.5 266.5,-708.5 266.5,-651.5 197.5,-651.5"/>
<text text-anchor="middle" x="232" y="-696.5" font-family="FreeSans" font-size="10.00">QStringList</text>
<polyline fill="none" stroke="#bfbfbf" points="197.5,-689.5 266.5,-689.5 "/>
<text text-anchor="middle" x="232" y="-677.5" font-family="FreeSans" font-size="10.00"> </text>
<polyline fill="none" stroke="#bfbfbf" points="197.5,-670.5 266.5,-670.5 "/>
<text text-anchor="middle" x="232" y="-658.5" font-family="FreeSans" font-size="10.00"> </text>
</g>
<!-- Node16&#45;&gt;Node12 -->
<g id="edge16" class="edge"><title>Node16&#45;&gt;Node12</title>
<path fill="none" stroke="#404040" d="M217.333,-651.101C205.413,-626.756 189.54,-590.088 183,-556 177.073,-525.107 181.311,-490.929 188.265,-461.581"/>
<polygon fill="none" stroke="#404040" points="188.316,-461.377 185.919,-454.577 191.274,-449.747 193.672,-456.548 188.316,-461.377"/>
<text text-anchor="middle" x="218" y="-531.5" font-family="FreeSans" font-size="10.00"> &#45;mArguments</text>
</g>
<!-- Node16&#45;&gt;Node17 -->
<g id="edge23" class="edge"><title>Node16&#45;&gt;Node17</title>
<path fill="none" stroke="#404040" d="M236.785,-651.487C244.876,-606.466 261.411,-521.12 272,-512 307.154,-481.723 439.702,-516.99 480,-494 482.116,-492.793 484.188,-491.499 486.215,-490.127"/>
<polygon fill="none" stroke="#404040" points="486.443,-489.953 488.783,-483.132 495.98,-482.67 493.639,-489.49 486.443,-489.953"/>
<text text-anchor="middle" x="301.5" y="-531.5" font-family="FreeSans" font-size="10.00"> &#45;mDataDirs</text>
</g>
<!-- Node17&#45;&gt;Node1 -->
<g id="edge18" class="edge"><title>Node17&#45;&gt;Node1</title>
<path fill="none" stroke="#404040" d="M583.565,-293.294C588.288,-277.799 593.255,-261.505 598.18,-245.35"/>
<polygon fill="none" stroke="#404040" points="598.255,-245.102 596.178,-238.197 601.754,-233.624 603.831,-240.529 598.255,-245.102"/>
<text text-anchor="middle" x="639" y="-255.5" font-family="FreeSans" font-size="10.00"> &#45;mGameSettings</text>
</g>
<!-- Node18 -->
<g id="node18" class="node"><title>Node18</title>
<polygon fill="white" stroke="#bfbfbf" points="625,-651.5 625,-708.5 663,-708.5 663,-651.5 625,-651.5"/>
<text text-anchor="middle" x="644" y="-696.5" font-family="FreeSans" font-size="10.00">char</text>
<polyline fill="none" stroke="#bfbfbf" points="625,-689.5 663,-689.5 "/>
<text text-anchor="middle" x="644" y="-677.5" font-family="FreeSans" font-size="10.00"> </text>
<polyline fill="none" stroke="#bfbfbf" points="625,-670.5 663,-670.5 "/>
<text text-anchor="middle" x="644" y="-658.5" font-family="FreeSans" font-size="10.00"> </text>
</g>
<!-- Node18&#45;&gt;Node17 -->
<g id="edge21" class="edge"><title>Node18&#45;&gt;Node17</title>
<path fill="none" stroke="#404040" d="M641.211,-651.176C637.624,-628.201 629.468,-595.919 611,-574 599.729,-560.623 586.027,-570.333 576,-556 563.492,-538.121 556.494,-516.463 552.856,-494.753"/>
<polygon fill="none" stroke="#404040" points="552.834,-494.593 548.039,-489.207 551.167,-482.709 555.962,-488.096 552.834,-494.593"/>
<text text-anchor="middle" x="609.5" y="-531.5" font-family="FreeSans" font-size="10.00"> &#45;sContentKey</text>
</g>
<!-- Node21 -->
<g id="node21" class="node"><title>Node21</title>
<g id="a_node21"><a xlink:href="classConfig_1_1LauncherSettings.html" target="_top" xlink:title="{Config::LauncherSettings\n||+ LauncherSettings()\l+ ~LauncherSettings()\l+ writeFile()\l+ getContentLists()\l+ setContentList()\l+ setContentList()\l+ removeContentList()\l+ setCurrentContentListName()\l+ getCurrentContentListName()\l+ getContentListFiles()\l+ reverse()\l&#45; subKeys()\l&#45; makeContentListKey()\l&#45; isEqual()\l&#45; makeNewContentListName()\l}">
<polygon fill="white" stroke="black" points="634.5,-282.5 634.5,-493.5 805.5,-493.5 805.5,-282.5 634.5,-282.5"/>
<text text-anchor="middle" x="720" y="-481.5" font-family="FreeSans" font-size="10.00">Config::LauncherSettings</text>
<polyline fill="none" stroke="black" points="634.5,-474.5 805.5,-474.5 "/>
<text text-anchor="middle" x="720" y="-462.5" font-family="FreeSans" font-size="10.00"> </text>
<polyline fill="none" stroke="black" points="634.5,-455.5 805.5,-455.5 "/>
<text text-anchor="start" x="642.5" y="-443.5" font-family="FreeSans" font-size="10.00">+ LauncherSettings()</text>
<text text-anchor="start" x="642.5" y="-432.5" font-family="FreeSans" font-size="10.00">+ ~LauncherSettings()</text>
<text text-anchor="start" x="642.5" y="-421.5" font-family="FreeSans" font-size="10.00">+ writeFile()</text>
<text text-anchor="start" x="642.5" y="-410.5" font-family="FreeSans" font-size="10.00">+ getContentLists()</text>
<text text-anchor="start" x="642.5" y="-399.5" font-family="FreeSans" font-size="10.00">+ setContentList()</text>
<text text-anchor="start" x="642.5" y="-388.5" font-family="FreeSans" font-size="10.00">+ setContentList()</text>
<text text-anchor="start" x="642.5" y="-377.5" font-family="FreeSans" font-size="10.00">+ removeContentList()</text>
<text text-anchor="start" x="642.5" y="-366.5" font-family="FreeSans" font-size="10.00">+ setCurrentContentListName()</text>
<text text-anchor="start" x="642.5" y="-355.5" font-family="FreeSans" font-size="10.00">+ getCurrentContentListName()</text>
<text text-anchor="start" x="642.5" y="-344.5" font-family="FreeSans" font-size="10.00">+ getContentListFiles()</text>
<text text-anchor="start" x="642.5" y="-333.5" font-family="FreeSans" font-size="10.00">+ reverse()</text>
<text text-anchor="start" x="642.5" y="-322.5" font-family="FreeSans" font-size="10.00">&#45; subKeys()</text>
<text text-anchor="start" x="642.5" y="-311.5" font-family="FreeSans" font-size="10.00">&#45; makeContentListKey()</text>
<text text-anchor="start" x="642.5" y="-300.5" font-family="FreeSans" font-size="10.00">&#45; isEqual()</text>
<text text-anchor="start" x="642.5" y="-289.5" font-family="FreeSans" font-size="10.00">&#45; makeNewContentListName()</text>
</a>
</g>
</g>
<!-- Node18&#45;&gt;Node21 -->
<g id="edge30" class="edge"><title>Node18&#45;&gt;Node21</title>
<path fill="none" stroke="#404040" d="M642.333,-651.213C641.107,-617.575 641.541,-559.526 655,-512 655.642,-509.734 656.329,-507.463 657.057,-505.189"/>
<polygon fill="none" stroke="#404040" points="657.07,-505.152 655.267,-498.17 661.019,-493.82 662.821,-500.802 657.07,-505.152"/>
<text text-anchor="middle" x="721.5" y="-548" font-family="FreeSans" font-size="10.00"> &#45;sContentListSuffix</text>
<text text-anchor="middle" x="721.5" y="-537" font-family="FreeSans" font-size="10.00">&#45;sContentListsSectionPrefix</text>
<text text-anchor="middle" x="721.5" y="-526" font-family="FreeSans" font-size="10.00">&#45;sCurrentContentListKey</text>
<text text-anchor="middle" x="721.5" y="-515" font-family="FreeSans" font-size="10.00">+sLauncherConfigFileName</text>
</g>
<!-- Node19 -->
<g id="node19" class="node"><title>Node19</title>
<g id="a_node19"><a xlink:href="classQMap_3_01QString_00_01QString_01_4.html" target="_top" xlink:title="{QMap\&lt; QString, QString \&gt;\n||}">
<polygon fill="white" stroke="black" points="506.5,-873.5 506.5,-930.5 651.5,-930.5 651.5,-873.5 506.5,-873.5"/>
<text text-anchor="middle" x="579" y="-918.5" font-family="FreeSans" font-size="10.00">QMap&lt; QString, QString &gt;</text>
<polyline fill="none" stroke="black" points="506.5,-911.5 651.5,-911.5 "/>
<text text-anchor="middle" x="579" y="-899.5" font-family="FreeSans" font-size="10.00"> </text>
<polyline fill="none" stroke="black" points="506.5,-892.5 651.5,-892.5 "/>
<text text-anchor="middle" x="579" y="-880.5" font-family="FreeSans" font-size="10.00"> </text>
</a>
</g>
</g>
<!-- Node19&#45;&gt;Node17 -->
<g id="edge22" class="edge"><title>Node19&#45;&gt;Node17</title>
<path fill="none" stroke="#404040" d="M566.745,-873.304C557.32,-850.412 545.078,-816.786 540,-786 523.877,-688.257 530.567,-575.227 539.547,-494.829"/>
<polygon fill="none" stroke="#404040" points="539.569,-494.633 536.284,-488.214 540.945,-482.712 544.231,-489.131 539.569,-494.633"/>
<text text-anchor="middle" x="578" y="-683" font-family="FreeSans" font-size="10.00"> &#45;mSettings</text>
<text text-anchor="middle" x="578" y="-672" font-family="FreeSans" font-size="10.00">&#45;mUserSettings</text>
</g>
<!-- Node19&#45;&gt;Node22 -->
<g id="edge29" class="edge"><title>Node19&#45;&gt;Node22</title>
<path fill="none" stroke="#404040" d="M602.43,-873.137C623.672,-847.876 656.205,-809.188 686.525,-773.132"/>
<polygon fill="none" stroke="#404040" points="686.867,-772.725 687.668,-765.559 694.591,-763.541 693.79,-770.708 686.867,-772.725"/>
<text text-anchor="middle" x="689.5" y="-807.5" font-family="FreeSans" font-size="10.00"> &#45;mSettings</text>
</g>
<!-- Node20 -->
<g id="node20" class="node"><title>Node20</title>
<polygon fill="white" stroke="#bfbfbf" points="1070,-354 1070,-422 1216,-422 1216,-354 1070,-354"/>
<text text-anchor="start" x="1078" y="-410" font-family="FreeSans" font-size="10.00">QMap&lt; QString, Wizard</text>
<text text-anchor="middle" x="1143" y="-399" font-family="FreeSans" font-size="10.00">::MainWizard::Installation &gt;</text>
<polyline fill="none" stroke="#bfbfbf" points="1070,-392 1216,-392 "/>
<text text-anchor="middle" x="1143" y="-380" font-family="FreeSans" font-size="10.00"> </text>
<polyline fill="none" stroke="#bfbfbf" points="1070,-373 1216,-373 "/>
<text text-anchor="middle" x="1143" y="-361" font-family="FreeSans" font-size="10.00"> </text>
</g>
<!-- Node20&#45;&gt;Node1 -->
<g id="edge25" class="edge"><title>Node20&#45;&gt;Node1</title>
<path fill="none" stroke="#404040" d="M1129.62,-353.994C1115.59,-323.372 1090.74,-278.63 1056,-252 956.031,-175.381 810.974,-141.869 720.411,-127.721"/>
<polygon fill="none" stroke="#404040" points="720.143,-127.68 713.614,-130.74 708.278,-125.89 714.807,-122.83 720.143,-127.68"/>
<text text-anchor="middle" x="1109.5" y="-255.5" font-family="FreeSans" font-size="10.00"> +mInstallations</text>
</g>
<!-- Node21&#45;&gt;Node1 -->
<g id="edge26" class="edge"><title>Node21&#45;&gt;Node1</title>
<path fill="none" stroke="#404040" d="M692.983,-282.483C690.057,-272.153 687.036,-261.852 684,-252 683.306,-249.747 682.598,-247.476 681.878,-245.19"/>
<polygon fill="none" stroke="#404040" points="681.847,-245.094 676.209,-240.598 678.191,-233.665 683.829,-238.16 681.847,-245.094"/>
<text text-anchor="middle" x="738.5" y="-255.5" font-family="FreeSans" font-size="10.00"> &#45;mLauncherSettings</text>
</g>
<!-- Node22&#45;&gt;Node21 -->
<g id="edge27" class="edge"><title>Node22&#45;&gt;Node21</title>
<path fill="none" stroke="midnightblue" d="M846.768,-587.957C852.891,-577.7 858.163,-566.974 862,-556 868.455,-537.54 870.125,-529.788 862,-512 849.668,-485.003 828.161,-461.657 805.559,-442.778"/>
<polygon fill="none" stroke="midnightblue" points="843.785,-586.126 841.438,-596.457 849.716,-589.845 843.785,-586.126"/>
</g>
</g>
</svg>
