<?xml version="1.0" encoding="UTF-8" standalone="no"?>
<!DOCTYPE svg PUBLIC "-//W3C//DTD SVG 1.1//EN"
 "http://www.w3.org/Graphics/SVG/1.1/DTD/svg11.dtd">
<!-- Generated by graphviz version 2.36.0 (20140111.2315)
 -->
<!-- Title: MWMechanics::Spells::canUsePower Pages: 1 -->
<svg width="1694pt" height="704pt"
 viewBox="0.00 0.00 1694.00 704.00" xmlns="http://www.w3.org/2000/svg" xmlns:xlink="http://www.w3.org/1999/xlink">
<g id="graph0" class="graph" transform="scale(1 1) rotate(0) translate(4 700)">
<title>MWMechanics::Spells::canUsePower</title>
<polygon fill="white" stroke="none" points="-4,4 -4,-700 1690,-700 1690,4 -4,4"/>
<!-- Node1 -->
<g id="node1" class="node"><title>Node1</title>
<polygon fill="#bfbfbf" stroke="black" points="0,-409 0,-439 118,-439 118,-409 0,-409"/>
<text text-anchor="start" x="8" y="-427" font-family="FreeSans" font-size="10.00">MWMechanics::Spells</text>
<text text-anchor="middle" x="59" y="-416" font-family="FreeSans" font-size="10.00">::canUsePower</text>
</g>
<!-- Node2 -->
<g id="node2" class="node"><title>Node2</title>
<g id="a_node2"><a xlink:href="namespaceMWMechanics.html#ae09ef3992b635b2ab37a801b013b3c89" target="_top" xlink:title="MWMechanics::getSpellSuccess\lChance">
<polygon fill="white" stroke="black" points="154,-431 154,-461 322,-461 322,-431 154,-431"/>
<text text-anchor="start" x="162" y="-449" font-family="FreeSans" font-size="10.00">MWMechanics::getSpellSuccess</text>
<text text-anchor="middle" x="238" y="-438" font-family="FreeSans" font-size="10.00">Chance</text>
</a>
</g>
</g>
<!-- Node1&#45;&gt;Node2 -->
<g id="edge1" class="edge"><title>Node1&#45;&gt;Node2</title>
<path fill="none" stroke="midnightblue" d="M128.481,-432.512C136.827,-433.549 145.424,-434.618 153.953,-435.678"/>
<polygon fill="midnightblue" stroke="midnightblue" points="128.802,-429.025 118.447,-431.265 127.939,-435.971 128.802,-429.025"/>
</g>
<!-- Node41 -->
<g id="node41" class="node"><title>Node41</title>
<g id="a_node41"><a xlink:href="classMWWorld_1_1World.html#a7b2b3dc797f09f109c0aabf731f709c3" target="_top" xlink:title="startSpellCast attempt to start casting a spell. Might fail immediately if conditions are not met...">
<polygon fill="white" stroke="black" points="156,-392.5 156,-411.5 320,-411.5 320,-392.5 156,-392.5"/>
<text text-anchor="middle" x="238" y="-399.5" font-family="FreeSans" font-size="10.00">MWWorld::World::startSpellCast</text>
</a>
</g>
</g>
<!-- Node1&#45;&gt;Node41 -->
<g id="edge45" class="edge"><title>Node1&#45;&gt;Node41</title>
<path fill="none" stroke="midnightblue" d="M128.664,-415.465C139.032,-414.177 149.782,-412.841 160.305,-411.533"/>
<polygon fill="midnightblue" stroke="midnightblue" points="127.939,-412.029 118.447,-416.735 128.802,-418.975 127.939,-412.029"/>
</g>
<!-- Node3 -->
<g id="node3" class="node"><title>Node3</title>
<g id="a_node3"><a xlink:href="classMWGui_1_1QuickKeysMenu.html#aa7c560a32efd714d9dc6859a4b31f537" target="_top" xlink:title="MWGui::QuickKeysMenu\l::activateQuickKey">
<polygon fill="white" stroke="black" points="385.5,-666 385.5,-696 514.5,-696 514.5,-666 385.5,-666"/>
<text text-anchor="start" x="393.5" y="-684" font-family="FreeSans" font-size="10.00">MWGui::QuickKeysMenu</text>
<text text-anchor="middle" x="450" y="-673" font-family="FreeSans" font-size="10.00">::activateQuickKey</text>
</a>
</g>
</g>
<!-- Node2&#45;&gt;Node3 -->
<g id="edge2" class="edge"><title>Node2&#45;&gt;Node3</title>
<path fill="none" stroke="midnightblue" d="M246.07,-470.749C259.968,-514.858 295.101,-607.014 358,-656 366.014,-662.242 375.484,-666.926 385.235,-670.442"/>
<polygon fill="midnightblue" stroke="midnightblue" points="249.397,-469.66 243.134,-461.114 242.701,-471.701 249.397,-469.66"/>
</g>
<!-- Node5 -->
<g id="node5" class="node"><title>Node5</title>
<g id="a_node5"><a xlink:href="classMWGui_1_1SpellCreationDialog.html#ae434902e41a9288d7f678ec5d4641c0e" target="_top" xlink:title="MWGui::SpellCreationDialog\l::notifyEffectsChanged">
<polygon fill="white" stroke="black" points="375.5,-617 375.5,-647 524.5,-647 524.5,-617 375.5,-617"/>
<text text-anchor="start" x="383.5" y="-635" font-family="FreeSans" font-size="10.00">MWGui::SpellCreationDialog</text>
<text text-anchor="middle" x="450" y="-624" font-family="FreeSans" font-size="10.00">::notifyEffectsChanged</text>
</a>
</g>
</g>
<!-- Node2&#45;&gt;Node5 -->
<g id="edge4" class="edge"><title>Node2&#45;&gt;Node5</title>
<path fill="none" stroke="midnightblue" d="M250.303,-470.206C268.121,-505.678 306.124,-571.418 358,-607 363.675,-610.892 369.937,-614.18 376.441,-616.958"/>
<polygon fill="midnightblue" stroke="midnightblue" points="253.361,-468.493 245.818,-461.053 247.075,-471.573 253.361,-468.493"/>
</g>
<!-- Node6 -->
<g id="node6" class="node"><title>Node6</title>
<g id="a_node6"><a xlink:href="classMWGui_1_1SpellModel.html#ada16c79f789884160c3f21fe0012da97" target="_top" xlink:title="MWGui::SpellModel::\lupdate">
<polygon fill="white" stroke="black" points="393.5,-568 393.5,-598 506.5,-598 506.5,-568 393.5,-568"/>
<text text-anchor="start" x="401.5" y="-586" font-family="FreeSans" font-size="10.00">MWGui::SpellModel::</text>
<text text-anchor="middle" x="450" y="-575" font-family="FreeSans" font-size="10.00">update</text>
</a>
</g>
</g>
<!-- Node2&#45;&gt;Node6 -->
<g id="edge5" class="edge"><title>Node2&#45;&gt;Node6</title>
<path fill="none" stroke="midnightblue" d="M257.474,-469.149C278.994,-494.593 316.882,-534.914 358,-558 368.857,-564.096 381.289,-568.776 393.402,-572.343"/>
<polygon fill="midnightblue" stroke="midnightblue" points="259.903,-466.595 250.822,-461.137 254.517,-471.067 259.903,-466.595"/>
</g>
<!-- Node7 -->
<g id="node7" class="node"><title>Node7</title>
<g id="a_node7"><a xlink:href="classMWGui_1_1SpellWindow.html#a8709851ec5cea18a39bad6b66a819c24" target="_top" xlink:title="MWGui::SpellWindow\l::onSpellSelected">
<polygon fill="white" stroke="black" points="393.5,-519 393.5,-549 506.5,-549 506.5,-519 393.5,-519"/>
<text text-anchor="start" x="401.5" y="-537" font-family="FreeSans" font-size="10.00">MWGui::SpellWindow</text>
<text text-anchor="middle" x="450" y="-526" font-family="FreeSans" font-size="10.00">::onSpellSelected</text>
</a>
</g>
</g>
<!-- Node2&#45;&gt;Node7 -->
<g id="edge6" class="edge"><title>Node2&#45;&gt;Node7</title>
<path fill="none" stroke="midnightblue" d="M272.57,-466.32C295.906,-479.802 328.073,-497.133 358,-509 369.118,-513.409 381.295,-517.336 393.023,-520.698"/>
<polygon fill="midnightblue" stroke="midnightblue" points="274.17,-463.2 263.77,-461.176 270.637,-469.244 274.17,-463.2"/>
</g>
<!-- Node12 -->
<g id="node12" class="node"><title>Node12</title>
<g id="a_node12"><a xlink:href="namespaceMWMechanics.html#a9ea06096b26b59bb714ecbd570d51e23" target="_top" xlink:title="MWMechanics::rateSpell">
<polygon fill="white" stroke="black" points="384,-480.5 384,-499.5 516,-499.5 516,-480.5 384,-480.5"/>
<text text-anchor="middle" x="450" y="-487.5" font-family="FreeSans" font-size="10.00">MWMechanics::rateSpell</text>
</a>
</g>
</g>
<!-- Node2&#45;&gt;Node12 -->
<g id="edge11" class="edge"><title>Node2&#45;&gt;Node12</title>
<path fill="none" stroke="midnightblue" d="M320.548,-463.086C348.759,-468.997 379.35,-475.407 403.6,-480.488"/>
<polygon fill="midnightblue" stroke="midnightblue" points="321.188,-459.644 310.683,-461.019 319.752,-466.496 321.188,-459.644"/>
</g>
<!-- Node16 -->
<g id="node16" class="node"><title>Node16</title>
<g id="a_node16"><a xlink:href="namespaceMWMechanics.html#a365a67735e3b8974db69d5eb1d5fc1ce" target="_top" xlink:title="MWMechanics::vanillaRate\lSpell">
<polygon fill="white" stroke="black" points="379.5,-431 379.5,-461 520.5,-461 520.5,-431 379.5,-431"/>
<text text-anchor="start" x="387.5" y="-449" font-family="FreeSans" font-size="10.00">MWMechanics::vanillaRate</text>
<text text-anchor="middle" x="450" y="-438" font-family="FreeSans" font-size="10.00">Spell</text>
</a>
</g>
</g>
<!-- Node2&#45;&gt;Node16 -->
<g id="edge15" class="edge"><title>Node2&#45;&gt;Node16</title>
<path fill="none" stroke="midnightblue" d="M332.564,-446C348.284,-446 364.35,-446 379.33,-446"/>
<polygon fill="midnightblue" stroke="midnightblue" points="332.299,-442.5 322.299,-446 332.299,-449.5 332.299,-442.5"/>
</g>
<!-- Node17 -->
<g id="node17" class="node"><title>Node17</title>
<g id="a_node17"><a xlink:href="classMWMechanics_1_1MechanicsManager.html#acf3c8c25fff52b890d0d6ced4b456459" target="_top" xlink:title="MWMechanics::MechanicsManager\l::update">
<polygon fill="white" stroke="black" points="359,-382 359,-412 541,-412 541,-382 359,-382"/>
<text text-anchor="start" x="367" y="-400" font-family="FreeSans" font-size="10.00">MWMechanics::MechanicsManager</text>
<text text-anchor="middle" x="450" y="-389" font-family="FreeSans" font-size="10.00">::update</text>
</a>
</g>
</g>
<!-- Node2&#45;&gt;Node17 -->
<g id="edge17" class="edge"><title>Node2&#45;&gt;Node17</title>
<path fill="none" stroke="midnightblue" d="M313.275,-428.669C336.591,-423.229 362.122,-417.271 384.688,-412.006"/>
<polygon fill="midnightblue" stroke="midnightblue" points="312.377,-425.285 303.434,-430.965 313.968,-432.101 312.377,-425.285"/>
</g>
<!-- Node18 -->
<g id="node18" class="node"><title>Node18</title>
<g id="a_node18"><a xlink:href="namespaceMWMechanics.html#aa9bb69aad3379dd47d636cb6fdb6bd92" target="_top" xlink:title="MWMechanics::getSpellSuccess\lChance">
<polygon fill="white" stroke="black" points="366,-333 366,-363 534,-363 534,-333 366,-333"/>
<text text-anchor="start" x="374" y="-351" font-family="FreeSans" font-size="10.00">MWMechanics::getSpellSuccess</text>
<text text-anchor="middle" x="450" y="-340" font-family="FreeSans" font-size="10.00">Chance</text>
</a>
</g>
</g>
<!-- Node2&#45;&gt;Node18 -->
<g id="edge18" class="edge"><title>Node2&#45;&gt;Node18</title>
<path fill="none" stroke="midnightblue" d="M313.488,-426.309C316.443,-424.676 319.296,-422.91 322,-421 344.074,-405.412 335.659,-387.203 358,-372 362.998,-368.599 368.452,-365.68 374.126,-363.174"/>
<polygon fill="midnightblue" stroke="midnightblue" points="311.774,-423.252 304.359,-430.82 314.875,-429.528 311.774,-423.252"/>
</g>
<!-- Node19 -->
<g id="node19" class="node"><title>Node19</title>
<g id="a_node19"><a xlink:href="namespaceMWMechanics.html#ac9bd726d183784da95ff5b1ea7a8d810" target="_top" xlink:title="MWMechanics::getSpellSchool">
<polygon fill="white" stroke="black" points="369.5,-294.5 369.5,-313.5 530.5,-313.5 530.5,-294.5 369.5,-294.5"/>
<text text-anchor="middle" x="450" y="-301.5" font-family="FreeSans" font-size="10.00">MWMechanics::getSpellSchool</text>
</a>
</g>
</g>
<!-- Node2&#45;&gt;Node19 -->
<g id="edge19" class="edge"><title>Node2&#45;&gt;Node19</title>
<path fill="none" stroke="midnightblue" d="M317.217,-425.055C318.881,-423.782 320.48,-422.432 322,-421 355.772,-389.179 322.88,-353.327 358,-323 362.397,-319.203 367.358,-316.098 372.636,-313.565"/>
<polygon fill="midnightblue" stroke="midnightblue" points="314.869,-422.407 308.402,-430.799 318.691,-428.272 314.869,-422.407"/>
</g>
<!-- Node22 -->
<g id="node22" class="node"><title>Node22</title>
<g id="a_node22"><a xlink:href="classMWMechanics_1_1CastSpell.html#a54e54268a860259340cbcca06a8d00fc" target="_top" xlink:title="MWMechanics::CastSpell\l::cast">
<polygon fill="white" stroke="black" points="599,-251 599,-281 733,-281 733,-251 599,-251"/>
<text text-anchor="start" x="607" y="-269" font-family="FreeSans" font-size="10.00">MWMechanics::CastSpell</text>
<text text-anchor="middle" x="666" y="-258" font-family="FreeSans" font-size="10.00">::cast</text>
</a>
</g>
</g>
<!-- Node2&#45;&gt;Node22 -->
<g id="edge44" class="edge"><title>Node2&#45;&gt;Node22</title>
<path fill="none" stroke="midnightblue" d="M317.531,-425.133C319.094,-423.837 320.588,-422.461 322,-421 365.459,-376.047 309.654,-324.651 358,-285 427.263,-228.193 537.574,-237.676 605.398,-250.965"/>
<polygon fill="midnightblue" stroke="midnightblue" points="315.376,-422.369 309.195,-430.974 319.393,-428.102 315.376,-422.369"/>
</g>
<!-- Node36 -->
<g id="node36" class="node"><title>Node36</title>
<g id="a_node36"><a xlink:href="namespaceMWMechanics.html#a238e3b05e43db2603c898d50b4be1e9f" target="_top" xlink:title="MWMechanics::getEffectResistance">
<polygon fill="white" stroke="black" points="358.5,-136.5 358.5,-155.5 541.5,-155.5 541.5,-136.5 358.5,-136.5"/>
<text text-anchor="middle" x="450" y="-143.5" font-family="FreeSans" font-size="10.00">MWMechanics::getEffectResistance</text>
</a>
</g>
</g>
<!-- Node2&#45;&gt;Node36 -->
<g id="edge38" class="edge"><title>Node2&#45;&gt;Node36</title>
<path fill="none" stroke="midnightblue" d="M318.126,-424.79C319.479,-423.594 320.774,-422.332 322,-421 374.013,-364.499 323.931,-320.826 358,-252 378.336,-210.918 418.245,-172.72 437.742,-155.539"/>
<polygon fill="midnightblue" stroke="midnightblue" points="315.762,-422.184 309.794,-430.938 319.919,-427.817 315.762,-422.184"/>
</g>
<!-- Node4 -->
<g id="node4" class="node"><title>Node4</title>
<g id="a_node4"><a xlink:href="classMWGui_1_1WindowManager.html#a94e1ffc2b2ee425889ffe260d7f05fdc" target="_top" xlink:title="MWGui::WindowManager\l::activateQuickKey">
<polygon fill="white" stroke="black" points="600,-666 600,-696 732,-696 732,-666 600,-666"/>
<text text-anchor="start" x="608" y="-684" font-family="FreeSans" font-size="10.00">MWGui::WindowManager</text>
<text text-anchor="middle" x="666" y="-673" font-family="FreeSans" font-size="10.00">::activateQuickKey</text>
</a>
</g>
</g>
<!-- Node3&#45;&gt;Node4 -->
<g id="edge3" class="edge"><title>Node3&#45;&gt;Node4</title>
<path fill="none" stroke="midnightblue" d="M524.889,-681C549.233,-681 576.113,-681 599.764,-681"/>
<polygon fill="midnightblue" stroke="midnightblue" points="524.628,-677.5 514.628,-681 524.628,-684.5 524.628,-677.5"/>
</g>
<!-- Node8 -->
<g id="node8" class="node"><title>Node8</title>
<g id="a_node8"><a xlink:href="classMWGui_1_1SpellWindow.html#ae02dae08beb91af85c48c6737332c6dc" target="_top" xlink:title="MWGui::SpellWindow\l::onModelIndexSelected">
<polygon fill="white" stroke="black" points="600.5,-568 600.5,-598 731.5,-598 731.5,-568 600.5,-568"/>
<text text-anchor="start" x="608.5" y="-586" font-family="FreeSans" font-size="10.00">MWGui::SpellWindow</text>
<text text-anchor="middle" x="666" y="-575" font-family="FreeSans" font-size="10.00">::onModelIndexSelected</text>
</a>
</g>
</g>
<!-- Node7&#45;&gt;Node8 -->
<g id="edge7" class="edge"><title>Node7&#45;&gt;Node8</title>
<path fill="none" stroke="midnightblue" d="M516.62,-549.025C543.143,-555.098 573.677,-562.09 600.125,-568.145"/>
<polygon fill="midnightblue" stroke="midnightblue" points="517.196,-545.567 506.667,-546.746 515.634,-552.39 517.196,-545.567"/>
</g>
<!-- Node10 -->
<g id="node10" class="node"><title>Node10</title>
<g id="a_node10"><a xlink:href="classMWGui_1_1SpellWindow.html#afca63da3134b4eac91d9802d8e078f8b" target="_top" xlink:title="Cycle to next/previous spell. ">
<polygon fill="white" stroke="black" points="609.5,-519 609.5,-549 722.5,-549 722.5,-519 609.5,-519"/>
<text text-anchor="start" x="617.5" y="-537" font-family="FreeSans" font-size="10.00">MWGui::SpellWindow</text>
<text text-anchor="middle" x="666" y="-526" font-family="FreeSans" font-size="10.00">::cycle</text>
</a>
</g>
</g>
<!-- Node7&#45;&gt;Node10 -->
<g id="edge9" class="edge"><title>Node7&#45;&gt;Node10</title>
<path fill="none" stroke="midnightblue" d="M516.902,-534C546.471,-534 580.977,-534 609.24,-534"/>
<polygon fill="midnightblue" stroke="midnightblue" points="516.667,-530.5 506.667,-534 516.667,-537.5 516.667,-530.5"/>
</g>
<!-- Node9 -->
<g id="node9" class="node"><title>Node9</title>
<g id="a_node9"><a xlink:href="classMWGui_1_1SpellWindow.html#a5ad7c776ade4fb177e5c45c758f3ba5b" target="_top" xlink:title="MWGui::SpellWindow\l::SpellWindow">
<polygon fill="white" stroke="black" points="811.5,-568 811.5,-598 924.5,-598 924.5,-568 811.5,-568"/>
<text text-anchor="start" x="819.5" y="-586" font-family="FreeSans" font-size="10.00">MWGui::SpellWindow</text>
<text text-anchor="middle" x="868" y="-575" font-family="FreeSans" font-size="10.00">::SpellWindow</text>
</a>
</g>
</g>
<!-- Node8&#45;&gt;Node9 -->
<g id="edge8" class="edge"><title>Node8&#45;&gt;Node9</title>
<path fill="none" stroke="midnightblue" d="M741.749,-583C764.801,-583 789.77,-583 811.303,-583"/>
<polygon fill="midnightblue" stroke="midnightblue" points="741.658,-579.5 731.658,-583 741.658,-586.5 741.658,-579.5"/>
</g>
<!-- Node11 -->
<g id="node11" class="node"><title>Node11</title>
<g id="a_node11"><a xlink:href="classMWGui_1_1WindowManager.html#a42618aab1fe6b391027243676cf35535" target="_top" xlink:title="Cycle to next or previous spell. ">
<polygon fill="white" stroke="black" points="802,-519 802,-549 934,-549 934,-519 802,-519"/>
<text text-anchor="start" x="810" y="-537" font-family="FreeSans" font-size="10.00">MWGui::WindowManager</text>
<text text-anchor="middle" x="868" y="-526" font-family="FreeSans" font-size="10.00">::cycleSpell</text>
</a>
</g>
</g>
<!-- Node10&#45;&gt;Node11 -->
<g id="edge10" class="edge"><title>Node10&#45;&gt;Node11</title>
<path fill="none" stroke="midnightblue" d="M732.991,-534C755.066,-534 779.652,-534 801.677,-534"/>
<polygon fill="midnightblue" stroke="midnightblue" points="732.711,-530.5 722.711,-534 732.711,-537.5 732.711,-530.5"/>
</g>
<!-- Node13 -->
<g id="node13" class="node"><title>Node13</title>
<g id="a_node13"><a xlink:href="namespaceMWMechanics.html#a2f24aadfa3ffbb60450dc007e7143492" target="_top" xlink:title="MWMechanics::prepareNext\lAction">
<polygon fill="white" stroke="black" points="591.5,-470 591.5,-500 740.5,-500 740.5,-470 591.5,-470"/>
<text text-anchor="start" x="599.5" y="-488" font-family="FreeSans" font-size="10.00">MWMechanics::prepareNext</text>
<text text-anchor="middle" x="666" y="-477" font-family="FreeSans" font-size="10.00">Action</text>
</a>
</g>
</g>
<!-- Node12&#45;&gt;Node13 -->
<g id="edge12" class="edge"><title>Node12&#45;&gt;Node13</title>
<path fill="none" stroke="midnightblue" d="M526.269,-488.241C547.355,-487.749 570.249,-487.214 591.246,-486.723"/>
<polygon fill="midnightblue" stroke="midnightblue" points="525.994,-484.747 516.079,-488.479 526.158,-491.745 525.994,-484.747"/>
</g>
<!-- Node14 -->
<g id="node14" class="node"><title>Node14</title>
<g id="a_node14"><a xlink:href="classMWMechanics_1_1AiCombat.html#a3caa2cf9b536a6d5a8826e3142391855" target="_top" xlink:title="Returns true if combat should end. ">
<polygon fill="white" stroke="black" points="799.5,-470 799.5,-500 936.5,-500 936.5,-470 799.5,-470"/>
<text text-anchor="start" x="807.5" y="-488" font-family="FreeSans" font-size="10.00">MWMechanics::AiCombat</text>
<text text-anchor="middle" x="868" y="-477" font-family="FreeSans" font-size="10.00">::attack</text>
</a>
</g>
</g>
<!-- Node13&#45;&gt;Node14 -->
<g id="edge13" class="edge"><title>Node13&#45;&gt;Node14</title>
<path fill="none" stroke="midnightblue" d="M750.665,-485C766.945,-485 783.819,-485 799.498,-485"/>
<polygon fill="midnightblue" stroke="midnightblue" points="750.621,-481.5 740.621,-485 750.621,-488.5 750.621,-481.5"/>
</g>
<!-- Node15 -->
<g id="node15" class="node"><title>Node15</title>
<g id="a_node15"><a xlink:href="classMWMechanics_1_1AiCombat.html#aa5b6e62fabdd5c9a59ca540992330bce" target="_top" xlink:title="MWMechanics::AiCombat\l::execute">
<polygon fill="white" stroke="black" points="986.5,-470 986.5,-500 1123.5,-500 1123.5,-470 986.5,-470"/>
<text text-anchor="start" x="994.5" y="-488" font-family="FreeSans" font-size="10.00">MWMechanics::AiCombat</text>
<text text-anchor="middle" x="1055" y="-477" font-family="FreeSans" font-size="10.00">::execute</text>
</a>
</g>
</g>
<!-- Node14&#45;&gt;Node15 -->
<g id="edge14" class="edge"><title>Node14&#45;&gt;Node15</title>
<path fill="none" stroke="midnightblue" d="M946.956,-485C960.033,-485 973.508,-485 986.299,-485"/>
<polygon fill="midnightblue" stroke="midnightblue" points="946.575,-481.5 936.575,-485 946.575,-488.5 946.575,-481.5"/>
</g>
<!-- Node16&#45;&gt;Node13 -->
<g id="edge16" class="edge"><title>Node16&#45;&gt;Node13</title>
<path fill="none" stroke="midnightblue" d="M530.703,-460.525C550.545,-464.141 571.729,-468.002 591.27,-471.563"/>
<polygon fill="midnightblue" stroke="midnightblue" points="531.241,-457.066 520.775,-458.716 529.986,-463.952 531.241,-457.066"/>
</g>
<!-- Node20 -->
<g id="node20" class="node"><title>Node20</title>
<g id="a_node20"><a xlink:href="classMWGui_1_1ToolTips.html#a1acd92f92a8fc2f6c17860b31c3402d2" target="_top" xlink:title="MWGui::ToolTips::onFrame">
<polygon fill="white" stroke="black" points="596,-363.5 596,-382.5 736,-382.5 736,-363.5 596,-363.5"/>
<text text-anchor="middle" x="666" y="-370.5" font-family="FreeSans" font-size="10.00">MWGui::ToolTips::onFrame</text>
</a>
</g>
</g>
<!-- Node19&#45;&gt;Node20 -->
<g id="edge20" class="edge"><title>Node19&#45;&gt;Node20</title>
<path fill="none" stroke="midnightblue" d="M514.745,-315.781C523.958,-317.925 533.271,-320.338 542,-323 579.042,-334.295 620.438,-352.299 644.521,-363.341"/>
<polygon fill="midnightblue" stroke="midnightblue" points="515.342,-312.328 504.82,-313.561 513.814,-319.16 515.342,-312.328"/>
</g>
<!-- Node19&#45;&gt;Node22 -->
<g id="edge22" class="edge"><title>Node19&#45;&gt;Node22</title>
<path fill="none" stroke="midnightblue" d="M514.646,-292.698C541.119,-287.997 571.855,-282.54 598.612,-277.789"/>
<polygon fill="midnightblue" stroke="midnightblue" points="513.959,-289.266 504.725,-294.46 515.183,-296.158 513.959,-289.266"/>
</g>
<!-- Node21 -->
<g id="node21" class="node"><title>Node21</title>
<g id="a_node21"><a xlink:href="classMWGui_1_1WindowManager.html#a2f52c12d86d6bb31adc62b06cef3de19" target="_top" xlink:title="MWGui::WindowManager\l::onFrame">
<polygon fill="white" stroke="black" points="802,-421 802,-451 934,-451 934,-421 802,-421"/>
<text text-anchor="start" x="810" y="-439" font-family="FreeSans" font-size="10.00">MWGui::WindowManager</text>
<text text-anchor="middle" x="868" y="-428" font-family="FreeSans" font-size="10.00">::onFrame</text>
</a>
</g>
</g>
<!-- Node20&#45;&gt;Node21 -->
<g id="edge21" class="edge"><title>Node20&#45;&gt;Node21</title>
<path fill="none" stroke="midnightblue" d="M706.954,-385.586C739.282,-395.769 784.906,-410.14 819.174,-420.935"/>
<polygon fill="midnightblue" stroke="midnightblue" points="707.965,-382.235 697.376,-382.568 705.862,-388.911 707.965,-382.235"/>
</g>
<!-- Node23 -->
<g id="node23" class="node"><title>Node23</title>
<g id="a_node23"><a xlink:href="classMWClass_1_1Npc.html#af6723ba6a47b408d1af74c9d34613228" target="_top" xlink:title="MWClass::Npc::apply">
<polygon fill="white" stroke="black" points="810.5,-382.5 810.5,-401.5 925.5,-401.5 925.5,-382.5 810.5,-382.5"/>
<text text-anchor="middle" x="868" y="-389.5" font-family="FreeSans" font-size="10.00">MWClass::Npc::apply</text>
</a>
</g>
</g>
<!-- Node22&#45;&gt;Node23 -->
<g id="edge23" class="edge"><title>Node22&#45;&gt;Node23</title>
<path fill="none" stroke="midnightblue" d="M687.201,-288.733C709.892,-312.884 748.948,-350.486 790,-372 798.196,-376.295 807.377,-379.712 816.465,-382.417"/>
<polygon fill="midnightblue" stroke="midnightblue" points="689.51,-286.074 680.154,-281.101 684.367,-290.822 689.51,-286.074"/>
</g>
<!-- Node24 -->
<g id="node24" class="node"><title>Node24</title>
<g id="a_node24"><a xlink:href="namespaceMWMechanics.html#ab90221f566691b0961d8e8d5daea6ddf" target="_top" xlink:title="MWMechanics::applyOnStrike\lEnchantment">
<polygon fill="white" stroke="black" points="790,-333 790,-363 946,-363 946,-333 790,-333"/>
<text text-anchor="start" x="798" y="-351" font-family="FreeSans" font-size="10.00">MWMechanics::applyOnStrike</text>
<text text-anchor="middle" x="868" y="-340" font-family="FreeSans" font-size="10.00">Enchantment</text>
</a>
</g>
</g>
<!-- Node22&#45;&gt;Node24 -->
<g id="edge24" class="edge"><title>Node22&#45;&gt;Node24</title>
<path fill="none" stroke="midnightblue" d="M705.998,-285.534C729.929,-297.153 761.374,-311.767 790,-323 798.766,-326.44 808.218,-329.792 817.396,-332.866"/>
<polygon fill="midnightblue" stroke="midnightblue" points="707.411,-282.329 696.89,-281.081 704.336,-288.618 707.411,-282.329"/>
</g>
<!-- Node31 -->
<g id="node31" class="node"><title>Node31</title>
<g id="a_node31"><a xlink:href="classMWMechanics_1_1CastSpell.html#a82cd49d48bac53c79545074d39f207f8" target="_top" xlink:title="MWMechanics::CastSpell\l::cast">
<polygon fill="white" stroke="black" points="801,-284 801,-314 935,-314 935,-284 801,-284"/>
<text text-anchor="start" x="809" y="-302" font-family="FreeSans" font-size="10.00">MWMechanics::CastSpell</text>
<text text-anchor="middle" x="868" y="-291" font-family="FreeSans" font-size="10.00">::cast</text>
</a>
</g>
</g>
<!-- Node22&#45;&gt;Node31 -->
<g id="edge33" class="edge"><title>Node22&#45;&gt;Node31</title>
<path fill="none" stroke="midnightblue" d="M743.126,-278.561C762.079,-281.688 782.248,-285.016 800.686,-288.058"/>
<polygon fill="midnightblue" stroke="midnightblue" points="743.478,-275.072 733.042,-276.897 742.339,-281.978 743.478,-275.072"/>
</g>
<!-- Node32 -->
<g id="node32" class="node"><title>Node32</title>
<g id="a_node32"><a xlink:href="classMWScript_1_1Misc_1_1OpCast.html#a99e2d9dcadf9665f1a9797363f202bf0" target="_top" xlink:title="MWScript::Misc::OpCast\l::execute">
<polygon fill="white" stroke="black" points="803.5,-235 803.5,-265 932.5,-265 932.5,-235 803.5,-235"/>
<text text-anchor="start" x="811.5" y="-253" font-family="FreeSans" font-size="10.00">MWScript::Misc::OpCast</text>
<text text-anchor="middle" x="868" y="-242" font-family="FreeSans" font-size="10.00">::execute</text>
</a>
</g>
</g>
<!-- Node22&#45;&gt;Node32 -->
<g id="edge34" class="edge"><title>Node22&#45;&gt;Node32</title>
<path fill="none" stroke="midnightblue" d="M743.281,-259.898C763.126,-258.31 784.294,-256.617 803.406,-255.087"/>
<polygon fill="midnightblue" stroke="midnightblue" points="742.731,-256.43 733.042,-260.717 743.289,-263.408 742.731,-256.43"/>
</g>
<!-- Node33 -->
<g id="node33" class="node"><title>Node33</title>
<g id="a_node33"><a xlink:href="classMWScript_1_1Misc_1_1OpExplodeSpell.html#a918d78f5dc4f40aff9e75d9497e0eb1d" target="_top" xlink:title="MWScript::Misc::OpExplode\lSpell::execute">
<polygon fill="white" stroke="black" points="795.5,-186 795.5,-216 940.5,-216 940.5,-186 795.5,-186"/>
<text text-anchor="start" x="803.5" y="-204" font-family="FreeSans" font-size="10.00">MWScript::Misc::OpExplode</text>
<text text-anchor="middle" x="868" y="-193" font-family="FreeSans" font-size="10.00">Spell::execute</text>
</a>
</g>
</g>
<!-- Node22&#45;&gt;Node33 -->
<g id="edge35" class="edge"><title>Node22&#45;&gt;Node33</title>
<path fill="none" stroke="midnightblue" d="M720.934,-247.768C742.396,-240.579 767.335,-232.309 790,-225 799.062,-222.078 808.743,-219.015 818.074,-216.091"/>
<polygon fill="midnightblue" stroke="midnightblue" points="719.706,-244.488 711.338,-250.987 721.932,-251.125 719.706,-244.488"/>
</g>
<!-- Node34 -->
<g id="node34" class="node"><title>Node34</title>
<g id="a_node34"><a xlink:href="classMWWorld_1_1ActionTrap.html#a21871cf85cb42949268933ae49b34a98" target="_top" xlink:title="MWWorld::ActionTrap\l::executeImp">
<polygon fill="white" stroke="black" points="811,-137 811,-167 925,-167 925,-137 811,-137"/>
<text text-anchor="start" x="819" y="-155" font-family="FreeSans" font-size="10.00">MWWorld::ActionTrap</text>
<text text-anchor="middle" x="868" y="-144" font-family="FreeSans" font-size="10.00">::executeImp</text>
</a>
</g>
</g>
<!-- Node22&#45;&gt;Node34 -->
<g id="edge36" class="edge"><title>Node22&#45;&gt;Node34</title>
<path fill="none" stroke="midnightblue" d="M691.522,-244.245C715.267,-224.141 753.012,-194.645 790,-176 796.627,-172.659 803.81,-169.673 811.035,-167.038"/>
<polygon fill="midnightblue" stroke="midnightblue" points="689.04,-241.763 683.731,-250.931 693.599,-247.075 689.04,-241.763"/>
</g>
<!-- Node35 -->
<g id="node35" class="node"><title>Node35</title>
<g id="a_node35"><a xlink:href="classMWWorld_1_1World.html#aedee04f37a89b213121357938db6b167" target="_top" xlink:title="Cast the actual spell, should be called mid&#45;animation. ">
<polygon fill="white" stroke="black" points="798,-98.5 798,-117.5 938,-117.5 938,-98.5 798,-98.5"/>
<text text-anchor="middle" x="868" y="-105.5" font-family="FreeSans" font-size="10.00">MWWorld::World::castSpell</text>
</a>
</g>
</g>
<!-- Node22&#45;&gt;Node35 -->
<g id="edge37" class="edge"><title>Node22&#45;&gt;Node35</title>
<path fill="none" stroke="midnightblue" d="M681.43,-242.181C701.691,-210.838 741.572,-156.304 790,-127 796.361,-123.151 803.465,-120.08 810.715,-117.631"/>
<polygon fill="midnightblue" stroke="midnightblue" points="678.404,-240.417 676.014,-250.738 684.319,-244.161 678.404,-240.417"/>
</g>
<!-- Node25 -->
<g id="node25" class="node"><title>Node25</title>
<g id="a_node25"><a xlink:href="classMWClass_1_1Creature.html#a54d172e02be3b6889d639f23b48add5d" target="_top" xlink:title="MWClass::Creature::hit">
<polygon fill="white" stroke="black" points="992.5,-357.5 992.5,-376.5 1117.5,-376.5 1117.5,-357.5 992.5,-357.5"/>
<text text-anchor="middle" x="1055" y="-364.5" font-family="FreeSans" font-size="10.00">MWClass::Creature::hit</text>
</a>
</g>
</g>
<!-- Node24&#45;&gt;Node25 -->
<g id="edge25" class="edge"><title>Node24&#45;&gt;Node25</title>
<path fill="none" stroke="midnightblue" d="M956.333,-356.969C968.551,-358.224 980.889,-359.491 992.492,-360.683"/>
<polygon fill="midnightblue" stroke="midnightblue" points="956.422,-353.46 946.117,-355.92 955.707,-360.424 956.422,-353.46"/>
</g>
<!-- Node26 -->
<g id="node26" class="node"><title>Node26</title>
<g id="a_node26"><a xlink:href="classMWClass_1_1Npc.html#a5d266109da673f7fa11d213cb88dfc36" target="_top" xlink:title="MWClass::Npc::hit">
<polygon fill="white" stroke="black" points="1004.5,-319.5 1004.5,-338.5 1105.5,-338.5 1105.5,-319.5 1004.5,-319.5"/>
<text text-anchor="middle" x="1055" y="-326.5" font-family="FreeSans" font-size="10.00">MWClass::Npc::hit</text>
</a>
</g>
</g>
<!-- Node24&#45;&gt;Node26 -->
<g id="edge26" class="edge"><title>Node24&#45;&gt;Node26</title>
<path fill="none" stroke="midnightblue" d="M956.356,-339.028C972.877,-337.332 989.618,-335.612 1004.46,-334.088"/>
<polygon fill="midnightblue" stroke="midnightblue" points="955.707,-335.576 946.117,-340.08 956.422,-342.54 955.707,-335.576"/>
</g>
<!-- Node27 -->
<g id="node27" class="node"><title>Node27</title>
<g id="a_node27"><a xlink:href="namespaceMWMechanics.html#af6ce41ddac20f6fb684311ba807c5948" target="_top" xlink:title="MWMechanics::projectileHit">
<polygon fill="white" stroke="black" points="982,-221.5 982,-240.5 1128,-240.5 1128,-221.5 982,-221.5"/>
<text text-anchor="middle" x="1055" y="-228.5" font-family="FreeSans" font-size="10.00">MWMechanics::projectileHit</text>
</a>
</g>
</g>
<!-- Node24&#45;&gt;Node27 -->
<g id="edge27" class="edge"><title>Node24&#45;&gt;Node27</title>
<path fill="none" stroke="midnightblue" d="M933.755,-329.079C937.979,-327.205 942.099,-325.181 946,-323 987.494,-299.804 1027.81,-259.293 1045.14,-240.758"/>
<polygon fill="midnightblue" stroke="midnightblue" points="932.297,-325.895 924.386,-332.942 934.965,-332.366 932.297,-325.895"/>
</g>
<!-- Node28 -->
<g id="node28" class="node"><title>Node28</title>
<g id="a_node28"><a xlink:href="classMWWorld_1_1ProjectileManager.html#a77bced8f0dfc8fec0a492cd753d0c464" target="_top" xlink:title="MWWorld::ProjectileManager\l::moveProjectiles">
<polygon fill="white" stroke="black" points="1164,-177 1164,-207 1314,-207 1314,-177 1164,-177"/>
<text text-anchor="start" x="1172" y="-195" font-family="FreeSans" font-size="10.00">MWWorld::ProjectileManager</text>
<text text-anchor="middle" x="1239" y="-184" font-family="FreeSans" font-size="10.00">::moveProjectiles</text>
</a>
</g>
</g>
<!-- Node27&#45;&gt;Node28 -->
<g id="edge28" class="edge"><title>Node27&#45;&gt;Node28</title>
<path fill="none" stroke="midnightblue" d="M1110.53,-219.316C1128.49,-215.466 1148.73,-211.129 1167.7,-207.064"/>
<polygon fill="midnightblue" stroke="midnightblue" points="1109.57,-215.942 1100.52,-221.46 1111.03,-222.786 1109.57,-215.942"/>
</g>
<!-- Node29 -->
<g id="node29" class="node"><title>Node29</title>
<g id="a_node29"><a xlink:href="classMWWorld_1_1ProjectileManager.html#a10e1c50b640ed158c9332d75c870c8c5" target="_top" xlink:title="MWWorld::ProjectileManager\l::update">
<polygon fill="white" stroke="black" points="1350,-177 1350,-207 1500,-207 1500,-177 1350,-177"/>
<text text-anchor="start" x="1358" y="-195" font-family="FreeSans" font-size="10.00">MWWorld::ProjectileManager</text>
<text text-anchor="middle" x="1425" y="-184" font-family="FreeSans" font-size="10.00">::update</text>
</a>
</g>
</g>
<!-- Node28&#45;&gt;Node29 -->
<g id="edge29" class="edge"><title>Node28&#45;&gt;Node29</title>
<path fill="none" stroke="midnightblue" d="M1324.07,-185.272C1332.65,-185.224 1341.34,-185.254 1349.81,-185.364"/>
<polygon fill="midnightblue" stroke="midnightblue" points="1324.01,-181.773 1314.04,-185.366 1324.08,-188.772 1324.01,-181.773"/>
</g>
<!-- Node29&#45;&gt;Node28 -->
<g id="edge32" class="edge"><title>Node29&#45;&gt;Node28</title>
<path fill="none" stroke="midnightblue" d="M1339.78,-198.728C1331.19,-198.776 1322.51,-198.745 1314.04,-198.634"/>
<polygon fill="midnightblue" stroke="midnightblue" points="1339.84,-202.228 1349.81,-198.636 1339.78,-195.229 1339.84,-202.228"/>
</g>
<!-- Node30 -->
<g id="node30" class="node"><title>Node30</title>
<g id="a_node30"><a xlink:href="classMWWorld_1_1ProjectileManager.html#ad7f820af09ff0d1c510ad52b9db7cefa" target="_top" xlink:title="MWWorld::ProjectileManager\l::moveMagicBolts">
<polygon fill="white" stroke="black" points="1536,-177 1536,-207 1686,-207 1686,-177 1536,-177"/>
<text text-anchor="start" x="1544" y="-195" font-family="FreeSans" font-size="10.00">MWWorld::ProjectileManager</text>
<text text-anchor="middle" x="1611" y="-184" font-family="FreeSans" font-size="10.00">::moveMagicBolts</text>
</a>
</g>
</g>
<!-- Node29&#45;&gt;Node30 -->
<g id="edge30" class="edge"><title>Node29&#45;&gt;Node30</title>
<path fill="none" stroke="midnightblue" d="M1510.07,-185.272C1518.65,-185.224 1527.34,-185.254 1535.81,-185.364"/>
<polygon fill="midnightblue" stroke="midnightblue" points="1510.01,-181.773 1500.04,-185.366 1510.08,-188.772 1510.01,-181.773"/>
</g>
<!-- Node30&#45;&gt;Node29 -->
<g id="edge31" class="edge"><title>Node30&#45;&gt;Node29</title>
<path fill="none" stroke="midnightblue" d="M1525.78,-198.728C1517.19,-198.776 1508.51,-198.745 1500.04,-198.634"/>
<polygon fill="midnightblue" stroke="midnightblue" points="1525.84,-202.228 1535.81,-198.636 1525.78,-195.229 1525.84,-202.228"/>
</g>
<!-- Node37 -->
<g id="node37" class="node"><title>Node37</title>
<g id="a_node37"><a xlink:href="namespaceMWMechanics.html#a4818c40cb99439abde9167ad7c163456" target="_top" xlink:title="MWMechanics::getEffectMultiplier">
<polygon fill="white" stroke="black" points="578.5,-54.5 578.5,-73.5 753.5,-73.5 753.5,-54.5 578.5,-54.5"/>
<text text-anchor="middle" x="666" y="-61.5" font-family="FreeSans" font-size="10.00">MWMechanics::getEffectMultiplier</text>
</a>
</g>
</g>
<!-- Node36&#45;&gt;Node37 -->
<g id="edge39" class="edge"><title>Node36&#45;&gt;Node37</title>
<path fill="none" stroke="midnightblue" d="M485.513,-132.775C528.821,-116.181 602.033,-88.1275 640.192,-73.506"/>
<polygon fill="midnightblue" stroke="midnightblue" points="484.053,-129.587 475.967,-136.433 486.558,-136.123 484.053,-129.587"/>
</g>
<!-- Node38 -->
<g id="node38" class="node"><title>Node38</title>
<g id="a_node38"><a xlink:href="classMWMechanics_1_1CastSpell.html#a0b93caa45a3da548f198f6ed8b3d2be7" target="_top" xlink:title="MWMechanics::CastSpell\l::inflict">
<polygon fill="white" stroke="black" points="801,-49 801,-79 935,-79 935,-49 801,-49"/>
<text text-anchor="start" x="809" y="-67" font-family="FreeSans" font-size="10.00">MWMechanics::CastSpell</text>
<text text-anchor="middle" x="868" y="-56" font-family="FreeSans" font-size="10.00">::inflict</text>
</a>
</g>
</g>
<!-- Node37&#45;&gt;Node38 -->
<g id="edge40" class="edge"><title>Node37&#45;&gt;Node38</title>
<path fill="none" stroke="midnightblue" d="M763.627,-64C776.217,-64 788.879,-64 800.813,-64"/>
<polygon fill="midnightblue" stroke="midnightblue" points="763.56,-60.5001 753.56,-64 763.56,-67.5001 763.56,-60.5001"/>
</g>
<!-- Node40 -->
<g id="node40" class="node"><title>Node40</title>
<g id="a_node40"><a xlink:href="classMWWorld_1_1InventoryStore.html#a445d41c0a05b047030d69f188f6d683e" target="_top" xlink:title="MWWorld::InventoryStore\l::updateMagicEffects">
<polygon fill="white" stroke="black" points="800.5,-0 800.5,-30 935.5,-30 935.5,-0 800.5,-0"/>
<text text-anchor="start" x="808.5" y="-18" font-family="FreeSans" font-size="10.00">MWWorld::InventoryStore</text>
<text text-anchor="middle" x="868" y="-7" font-family="FreeSans" font-size="10.00">::updateMagicEffects</text>
</a>
</g>
</g>
<!-- Node37&#45;&gt;Node40 -->
<g id="edge43" class="edge"><title>Node37&#45;&gt;Node40</title>
<path fill="none" stroke="midnightblue" d="M716.038,-51.9858C743.061,-45.365 776.862,-37.0839 805.625,-30.037"/>
<polygon fill="midnightblue" stroke="midnightblue" points="714.917,-48.6568 706.037,-54.436 716.582,-55.4558 714.917,-48.6568"/>
</g>
<!-- Node38&#45;&gt;Node30 -->
<g id="edge42" class="edge"><title>Node38&#45;&gt;Node30</title>
<path fill="none" stroke="midnightblue" d="M945.008,-80.7728C957.35,-83.3149 970.012,-85.8147 982,-88 1211.11,-129.765 1271.19,-123.61 1500,-167 1515.39,-169.919 1531.91,-173.455 1547.34,-176.937"/>
<polygon fill="midnightblue" stroke="midnightblue" points="945.701,-77.3422 935.198,-78.7303 944.274,-84.1952 945.701,-77.3422"/>
</g>
<!-- Node39 -->
<g id="node39" class="node"><title>Node39</title>
<g id="a_node39"><a xlink:href="classMWMechanics_1_1CastSpell.html#a792b5c30e747b65d6c5f83166d716d59" target="_top" xlink:title="MWMechanics::CastSpell\l::cast">
<polygon fill="white" stroke="black" points="988,-49 988,-79 1122,-79 1122,-49 988,-49"/>
<text text-anchor="start" x="996" y="-67" font-family="FreeSans" font-size="10.00">MWMechanics::CastSpell</text>
<text text-anchor="middle" x="1055" y="-56" font-family="FreeSans" font-size="10.00">::cast</text>
</a>
</g>
</g>
<!-- Node38&#45;&gt;Node39 -->
<g id="edge41" class="edge"><title>Node38&#45;&gt;Node39</title>
<path fill="none" stroke="midnightblue" d="M945.17,-64C959.282,-64 973.919,-64 987.708,-64"/>
<polygon fill="midnightblue" stroke="midnightblue" points="945.006,-60.5001 935.006,-64 945.006,-67.5001 945.006,-60.5001"/>
</g>
</g>
</svg>
