<?xml version="1.0" encoding="UTF-8" standalone="no"?>
<!DOCTYPE svg PUBLIC "-//W3C//DTD SVG 1.1//EN"
 "http://www.w3.org/Graphics/SVG/1.1/DTD/svg11.dtd">
<!-- Generated by graphviz version 2.36.0 (20140111.2315)
 -->
<!-- Title: MWDialogue::Journal::readRecord Pages: 1 -->
<svg width="1608pt" height="463pt"
 viewBox="0.00 0.00 1608.00 463.03" xmlns="http://www.w3.org/2000/svg" xmlns:xlink="http://www.w3.org/1999/xlink">
<g id="graph0" class="graph" transform="scale(1 1) rotate(0) translate(4 459.031)">
<title>MWDialogue::Journal::readRecord</title>
<polygon fill="white" stroke="none" points="-4,4 -4,-459.031 1604,-459.031 1604,4 -4,4"/>
<!-- Node1 -->
<g id="node1" class="node"><title>Node1</title>
<polygon fill="#bfbfbf" stroke="black" points="0.5,-130.031 0.5,-160.031 113.5,-160.031 113.5,-130.031 0.5,-130.031"/>
<text text-anchor="start" x="8.5" y="-148.031" font-family="FreeSans" font-size="10.00">MWDialogue::Journal</text>
<text text-anchor="middle" x="57" y="-137.031" font-family="FreeSans" font-size="10.00">::readRecord</text>
</g>
<!-- Node2 -->
<g id="node2" class="node"><title>Node2</title>
<g id="a_node2"><a xlink:href="structESM_1_1JournalEntry.html#afed3511fbbab5e0ad3cbb176db9b2a5f" target="_top" xlink:title="ESM::JournalEntry::load">
<polygon fill="white" stroke="black" points="150,-204.531 150,-223.531 276,-223.531 276,-204.531 150,-204.531"/>
<text text-anchor="middle" x="213" y="-211.531" font-family="FreeSans" font-size="10.00">ESM::JournalEntry::load</text>
</a>
</g>
</g>
<!-- Node1&#45;&gt;Node2 -->
<g id="edge1" class="edge"><title>Node1&#45;&gt;Node2</title>
<path fill="none" stroke="midnightblue" d="M83.5713,-160.232C101.706,-170.616 126.839,-184.219 150,-194.031 156.014,-196.579 162.47,-198.995 168.862,-201.209"/>
<polygon fill="midnightblue" stroke="midnightblue" points="168.189,-204.673 178.782,-204.512 170.4,-198.032 168.189,-204.673"/>
</g>
<!-- Node24 -->
<g id="node24" class="node"><title>Node24</title>
<g id="a_node24"><a xlink:href="classMWDialogue_1_1Journal.html#a96c680631c66a19e1955d97154a9d581" target="_top" xlink:title="MWDialogue::Journal\l::isThere">
<polygon fill="white" stroke="black" points="156.5,-155.031 156.5,-185.031 269.5,-185.031 269.5,-155.031 156.5,-155.031"/>
<text text-anchor="start" x="164.5" y="-173.031" font-family="FreeSans" font-size="10.00">MWDialogue::Journal</text>
<text text-anchor="middle" x="213" y="-162.031" font-family="FreeSans" font-size="10.00">::isThere</text>
</a>
</g>
</g>
<!-- Node1&#45;&gt;Node24 -->
<g id="edge37" class="edge"><title>Node1&#45;&gt;Node24</title>
<path fill="none" stroke="midnightblue" d="M113.598,-154.056C124.283,-155.791 135.567,-157.623 146.531,-159.403"/>
<polygon fill="midnightblue" stroke="midnightblue" points="146.052,-162.871 156.484,-161.019 147.174,-155.961 146.052,-162.871"/>
</g>
<!-- Node26 -->
<g id="node26" class="node"><title>Node26</title>
<g id="a_node26"><a xlink:href="classMWDialogue_1_1Journal.html#a6904eed96ea9d951c773d2455ac738b6" target="_top" xlink:title="MWDialogue::Journal\l::getQuest">
<polygon fill="white" stroke="black" points="156.5,-106.031 156.5,-136.031 269.5,-136.031 269.5,-106.031 156.5,-106.031"/>
<text text-anchor="start" x="164.5" y="-124.031" font-family="FreeSans" font-size="10.00">MWDialogue::Journal</text>
<text text-anchor="middle" x="213" y="-113.031" font-family="FreeSans" font-size="10.00">::getQuest</text>
</a>
</g>
</g>
<!-- Node1&#45;&gt;Node26 -->
<g id="edge39" class="edge"><title>Node1&#45;&gt;Node26</title>
<path fill="none" stroke="midnightblue" d="M113.598,-136.366C124.283,-134.701 135.567,-132.943 146.531,-131.234"/>
<polygon fill="midnightblue" stroke="midnightblue" points="147.142,-134.681 156.484,-129.683 146.064,-127.764 147.142,-134.681"/>
</g>
<!-- Node27 -->
<g id="node27" class="node"><title>Node27</title>
<g id="a_node27"><a xlink:href="classMWDialogue_1_1Topic.html#a1048beedfca3b62af30f773fa74d8700" target="_top" xlink:title="MWDialogue::Topic::\linsertEntry">
<polygon fill="white" stroke="black" points="158,-57.0309 158,-87.0309 268,-87.0309 268,-57.0309 158,-57.0309"/>
<text text-anchor="start" x="166" y="-75.0309" font-family="FreeSans" font-size="10.00">MWDialogue::Topic::</text>
<text text-anchor="middle" x="213" y="-64.0309" font-family="FreeSans" font-size="10.00">insertEntry</text>
</a>
</g>
</g>
<!-- Node1&#45;&gt;Node27 -->
<g id="edge40" class="edge"><title>Node1&#45;&gt;Node27</title>
<path fill="none" stroke="midnightblue" d="M85.4283,-129.824C103.538,-120.007 127.914,-107.216 150,-97.0309 154.38,-95.0108 158.973,-92.9878 163.593,-91.0159"/>
<polygon fill="midnightblue" stroke="midnightblue" points="165.181,-94.1455 173.055,-87.0576 162.479,-87.6878 165.181,-94.1455"/>
</g>
<!-- Node28 -->
<g id="node28" class="node"><title>Node28</title>
<g id="a_node28"><a xlink:href="classMWDialogue_1_1Journal.html#a0dfc0b3409a825b2f861da93d406d598" target="_top" xlink:title="MWDialogue::Journal\l::getTopic">
<polygon fill="white" stroke="black" points="156.5,-8.03086 156.5,-38.0309 269.5,-38.0309 269.5,-8.03086 156.5,-8.03086"/>
<text text-anchor="start" x="164.5" y="-26.0309" font-family="FreeSans" font-size="10.00">MWDialogue::Journal</text>
<text text-anchor="middle" x="213" y="-15.0309" font-family="FreeSans" font-size="10.00">::getTopic</text>
</a>
</g>
</g>
<!-- Node1&#45;&gt;Node28 -->
<g id="edge41" class="edge"><title>Node1&#45;&gt;Node28</title>
<path fill="none" stroke="midnightblue" d="M68.8252,-129.748C84.5329,-108.559 115.557,-70.25 150,-47.0309 152.255,-45.5107 154.62,-44.067 157.056,-42.6986"/>
<polygon fill="midnightblue" stroke="midnightblue" points="158.802,-45.7369 166.116,-38.0712 155.618,-39.503 158.802,-45.7369"/>
</g>
<!-- Node29 -->
<g id="node29" class="node"><title>Node29</title>
<g id="a_node29"><a xlink:href="structESM_1_1QuestState.html#a2d92c4607f7e25a9f9a9ccd358d1dd65" target="_top" xlink:title="ESM::QuestState::load">
<polygon fill="white" stroke="black" points="150.5,-242.531 150.5,-261.531 275.5,-261.531 275.5,-242.531 150.5,-242.531"/>
<text text-anchor="middle" x="213" y="-249.531" font-family="FreeSans" font-size="10.00">ESM::QuestState::load</text>
</a>
</g>
</g>
<!-- Node1&#45;&gt;Node29 -->
<g id="edge42" class="edge"><title>Node1&#45;&gt;Node29</title>
<path fill="none" stroke="midnightblue" d="M70.0588,-160.346C86.2443,-179.916 116.823,-213.58 150,-233.031 153.66,-235.177 157.586,-237.103 161.621,-238.827"/>
<polygon fill="midnightblue" stroke="midnightblue" points="160.568,-242.171 171.158,-242.492 163.079,-235.637 160.568,-242.171"/>
</g>
<!-- Node3 -->
<g id="node3" class="node"><title>Node3</title>
<g id="a_node3"><a xlink:href="classESM_1_1ESMReader.html#a45b4c4d5076772a527726f6d22b08759" target="_top" xlink:title="ESM::ESMReader::getHNOT">
<polygon fill="white" stroke="black" points="323.5,-166.531 323.5,-185.531 470.5,-185.531 470.5,-166.531 323.5,-166.531"/>
<text text-anchor="middle" x="397" y="-173.531" font-family="FreeSans" font-size="10.00">ESM::ESMReader::getHNOT</text>
</a>
</g>
</g>
<!-- Node2&#45;&gt;Node3 -->
<g id="edge2" class="edge"><title>Node2&#45;&gt;Node3</title>
<path fill="none" stroke="midnightblue" d="M259.926,-204.442C284.376,-199.337 314.633,-193.02 340.403,-187.639"/>
<polygon fill="midnightblue" stroke="midnightblue" points="341.33,-191.021 350.404,-185.551 339.9,-184.169 341.33,-191.021"/>
</g>
<!-- Node14 -->
<g id="node14" class="node"><title>Node14</title>
<g id="a_node14"><a xlink:href="classESM_1_1ESMReader.html#a0389fd3553a1e7a7da94b869780bca02" target="_top" xlink:title="ESM::ESMReader::getHNString">
<polygon fill="white" stroke="black" points="315.5,-280.531 315.5,-299.531 478.5,-299.531 478.5,-280.531 315.5,-280.531"/>
<text text-anchor="middle" x="397" y="-287.531" font-family="FreeSans" font-size="10.00">ESM::ESMReader::getHNString</text>
</a>
</g>
</g>
<!-- Node2&#45;&gt;Node14 -->
<g id="edge17" class="edge"><title>Node2&#45;&gt;Node14</title>
<path fill="none" stroke="midnightblue" d="M255.652,-223.54C262.722,-226.053 269.78,-229.176 276,-233.031 295.774,-245.288 291.781,-259.523 312,-271.031 315.906,-273.254 320.054,-275.217 324.332,-276.951"/>
<polygon fill="midnightblue" stroke="midnightblue" points="323.268,-280.288 333.862,-280.391 325.644,-273.704 323.268,-280.288"/>
</g>
<!-- Node22 -->
<g id="node22" class="node"><title>Node22</title>
<g id="a_node22"><a xlink:href="classESM_1_1ESMReader.html#a3bad93594c2a15ef9c8cd8857d2acf62" target="_top" xlink:title="ESM::ESMReader::getHNT">
<polygon fill="white" stroke="black" points="327,-204.531 327,-223.531 467,-223.531 467,-204.531 327,-204.531"/>
<text text-anchor="middle" x="397" y="-211.531" font-family="FreeSans" font-size="10.00">ESM::ESMReader::getHNT</text>
</a>
</g>
</g>
<!-- Node2&#45;&gt;Node22 -->
<g id="edge31" class="edge"><title>Node2&#45;&gt;Node22</title>
<path fill="none" stroke="midnightblue" d="M276.125,-214.031C289.172,-214.031 303.103,-214.031 316.682,-214.031"/>
<polygon fill="midnightblue" stroke="midnightblue" points="316.976,-217.531 326.976,-214.031 316.976,-210.531 316.976,-217.531"/>
</g>
<!-- Node23 -->
<g id="node23" class="node"><title>Node23</title>
<g id="a_node23"><a xlink:href="classESM_1_1ESMReader.html#a126070ed257a9c3751eb4c188e72e036" target="_top" xlink:title="ESM::ESMReader::getHNOString">
<polygon fill="white" stroke="black" points="312,-242.531 312,-261.531 482,-261.531 482,-242.531 312,-242.531"/>
<text text-anchor="middle" x="397" y="-249.531" font-family="FreeSans" font-size="10.00">ESM::ESMReader::getHNOString</text>
</a>
</g>
</g>
<!-- Node2&#45;&gt;Node23 -->
<g id="edge34" class="edge"><title>Node2&#45;&gt;Node23</title>
<path fill="none" stroke="midnightblue" d="M259.926,-223.62C284.376,-228.725 314.633,-235.042 340.403,-240.423"/>
<polygon fill="midnightblue" stroke="midnightblue" points="339.9,-243.893 350.404,-242.511 341.33,-237.041 339.9,-243.893"/>
</g>
<!-- Node4 -->
<g id="node4" class="node"><title>Node4</title>
<g id="a_node4"><a xlink:href="classESM_1_1ESMReader.html#a73984859aa2bc49103b828b2d0a1b43e" target="_top" xlink:title="ESM::ESMReader::isNextSub">
<polygon fill="white" stroke="black" points="530,-205.531 530,-224.531 682,-224.531 682,-205.531 530,-205.531"/>
<text text-anchor="middle" x="606" y="-212.531" font-family="FreeSans" font-size="10.00">ESM::ESMReader::isNextSub</text>
</a>
</g>
</g>
<!-- Node3&#45;&gt;Node4 -->
<g id="edge3" class="edge"><title>Node3&#45;&gt;Node4</title>
<path fill="none" stroke="midnightblue" d="M448.638,-185.571C477.565,-191.021 514.023,-197.89 544.456,-203.624"/>
<polygon fill="midnightblue" stroke="midnightblue" points="544.051,-207.109 554.527,-205.521 545.347,-200.23 544.051,-207.109"/>
</g>
<!-- Node11 -->
<g id="node11" class="node"><title>Node11</title>
<g id="a_node11"><a xlink:href="classESM_1_1ESMReader.html#a1499e8005481bc7f13f4de0c2f3b9ee4" target="_top" xlink:title="ESM::ESMReader::getHT">
<polygon fill="white" stroke="black" points="540,-158.531 540,-177.531 672,-177.531 672,-158.531 540,-158.531"/>
<text text-anchor="middle" x="606" y="-165.531" font-family="FreeSans" font-size="10.00">ESM::ESMReader::getHT</text>
</a>
</g>
</g>
<!-- Node3&#45;&gt;Node11 -->
<g id="edge10" class="edge"><title>Node3&#45;&gt;Node11</title>
<path fill="none" stroke="midnightblue" d="M470.689,-173.222C489.748,-172.485 510.339,-171.689 529.539,-170.947"/>
<polygon fill="midnightblue" stroke="midnightblue" points="529.881,-174.437 539.739,-170.553 529.611,-167.442 529.881,-174.437"/>
</g>
<!-- Node5 -->
<g id="node5" class="node"><title>Node5</title>
<g id="a_node5"><a xlink:href="classESM_1_1ESMReader.html#aa47320943a7a01bccbec8bab921b0df7" target="_top" xlink:title="ESM::ESMReader::getSubName">
<polygon fill="white" stroke="black" points="733.5,-285.531 733.5,-304.531 900.5,-304.531 900.5,-285.531 733.5,-285.531"/>
<text text-anchor="middle" x="817" y="-292.531" font-family="FreeSans" font-size="10.00">ESM::ESMReader::getSubName</text>
</a>
</g>
</g>
<!-- Node4&#45;&gt;Node5 -->
<g id="edge4" class="edge"><title>Node4&#45;&gt;Node5</title>
<path fill="none" stroke="midnightblue" d="M660.958,-224.625C672.029,-227.202 683.503,-230.326 694,-234.031 729.09,-246.417 767.069,-266.581 791.17,-280.308"/>
<polygon fill="midnightblue" stroke="midnightblue" points="789.584,-283.433 799.994,-285.4 793.082,-277.371 789.584,-283.433"/>
</g>
<!-- Node6 -->
<g id="node6" class="node"><title>Node6</title>
<g id="a_node6"><a xlink:href="classESM_1_1FIXED__STRING__BASE.html#ab142a6277b602eba117776eb8e4c508c" target="_top" xlink:title="ESM::FIXED_STRING_BASE\l::data_size">
<polygon fill="white" stroke="black" points="940.5,-233.031 940.5,-263.031 1083.5,-263.031 1083.5,-233.031 940.5,-233.031"/>
<text text-anchor="start" x="948.5" y="-251.031" font-family="FreeSans" font-size="10.00">ESM::FIXED_STRING_BASE</text>
<text text-anchor="middle" x="1012" y="-240.031" font-family="FreeSans" font-size="10.00">::data_size</text>
</a>
</g>
</g>
<!-- Node5&#45;&gt;Node6 -->
<g id="edge5" class="edge"><title>Node5&#45;&gt;Node6</title>
<path fill="none" stroke="midnightblue" d="M857.056,-285.52C880.704,-279.761 911.586,-272.24 939.479,-265.448"/>
<polygon fill="midnightblue" stroke="midnightblue" points="940.316,-268.846 949.204,-263.08 938.659,-262.045 940.316,-268.846"/>
</g>
<!-- Node7 -->
<g id="node7" class="node"><title>Node7</title>
<g id="a_node7"><a xlink:href="classESM_1_1ESMReader.html#a623f3d4d7107adf94aeb7c234d01bc9e" target="_top" xlink:title="ESM::ESMReader::getExact">
<polygon fill="white" stroke="black" points="1120,-293.531 1120,-312.531 1266,-312.531 1266,-293.531 1120,-293.531"/>
<text text-anchor="middle" x="1193" y="-300.531" font-family="FreeSans" font-size="10.00">ESM::ESMReader::getExact</text>
</a>
</g>
</g>
<!-- Node5&#45;&gt;Node7 -->
<g id="edge6" class="edge"><title>Node5&#45;&gt;Node7</title>
<path fill="none" stroke="midnightblue" d="M853.186,-304.58C877.389,-310.641 910.387,-317.91 940,-321.031 1003.65,-327.738 1020.22,-326.31 1084,-321.031 1100.71,-319.648 1118.72,-317.082 1135.16,-314.311"/>
<polygon fill="midnightblue" stroke="midnightblue" points="1135.91,-317.733 1145.16,-312.569 1134.71,-310.837 1135.91,-317.733"/>
</g>
<!-- Node10 -->
<g id="node10" class="node"><title>Node10</title>
<g id="a_node10"><a xlink:href="structESM_1_1FIXED__STRING_3_014_01_4.html#a71af1f5e0756f2fa5b587bda6fc64ec3" target="_top" xlink:title="ESM::FIXED_STRING\&lt;\l 4 \&gt;::rw_data">
<polygon fill="white" stroke="black" points="952.5,-282.031 952.5,-312.031 1071.5,-312.031 1071.5,-282.031 952.5,-282.031"/>
<text text-anchor="start" x="960.5" y="-300.031" font-family="FreeSans" font-size="10.00">ESM::FIXED_STRING&lt;</text>
<text text-anchor="middle" x="1012" y="-289.031" font-family="FreeSans" font-size="10.00"> 4 &gt;::rw_data</text>
</a>
</g>
</g>
<!-- Node5&#45;&gt;Node10 -->
<g id="edge9" class="edge"><title>Node5&#45;&gt;Node10</title>
<path fill="none" stroke="midnightblue" d="M900.689,-295.888C914.549,-296.031 928.797,-296.179 942.258,-296.319"/>
<polygon fill="midnightblue" stroke="midnightblue" points="942.343,-299.819 952.378,-296.423 942.415,-292.82 942.343,-299.819"/>
</g>
<!-- Node8 -->
<g id="node8" class="node"><title>Node8</title>
<g id="a_node8"><a xlink:href="classESM_1_1ESMReader.html#a641a33a8cba2fc61d6431505391c5975" target="_top" xlink:title="Used for error handling. ">
<polygon fill="white" stroke="black" points="1302.5,-293.531 1302.5,-312.531 1419.5,-312.531 1419.5,-293.531 1302.5,-293.531"/>
<text text-anchor="middle" x="1361" y="-300.531" font-family="FreeSans" font-size="10.00">ESM::ESMReader::fail</text>
</a>
</g>
</g>
<!-- Node7&#45;&gt;Node8 -->
<g id="edge7" class="edge"><title>Node7&#45;&gt;Node8</title>
<path fill="none" stroke="midnightblue" d="M1266.33,-303.031C1274.9,-303.031 1283.63,-303.031 1292.13,-303.031"/>
<polygon fill="midnightblue" stroke="midnightblue" points="1292.37,-306.531 1302.37,-303.031 1292.37,-299.531 1292.37,-306.531"/>
</g>
<!-- Node9 -->
<g id="node9" class="node"><title>Node9</title>
<g id="a_node9"><a xlink:href="classESM_1_1FIXED__STRING__BASE.html#ac6bed15d6c4aa261d961420d4af645c7" target="_top" xlink:title="ESM::FIXED_STRING_BASE\l::toString">
<polygon fill="white" stroke="black" points="1456.5,-364.031 1456.5,-394.031 1599.5,-394.031 1599.5,-364.031 1456.5,-364.031"/>
<text text-anchor="start" x="1464.5" y="-382.031" font-family="FreeSans" font-size="10.00">ESM::FIXED_STRING_BASE</text>
<text text-anchor="middle" x="1528" y="-371.031" font-family="FreeSans" font-size="10.00">::toString</text>
</a>
</g>
</g>
<!-- Node8&#45;&gt;Node9 -->
<g id="edge8" class="edge"><title>Node8&#45;&gt;Node9</title>
<path fill="none" stroke="midnightblue" d="M1382.9,-312.656C1408.47,-324.435 1452.39,-344.664 1485.04,-359.702"/>
<polygon fill="midnightblue" stroke="midnightblue" points="1483.8,-362.985 1494.35,-363.99 1486.73,-356.628 1483.8,-362.985"/>
</g>
<!-- Node11&#45;&gt;Node8 -->
<g id="edge15" class="edge"><title>Node11&#45;&gt;Node8</title>
<path fill="none" stroke="midnightblue" d="M621.606,-158.521C697.185,-110.614 1048.72,96.1877 1266,-54.0309 1343.59,-107.672 1357.21,-234.093 1359.54,-283.116"/>
<polygon fill="midnightblue" stroke="midnightblue" points="1356.05,-283.47 1359.91,-293.337 1363.05,-283.216 1356.05,-283.47"/>
</g>
<!-- Node12 -->
<g id="node12" class="node"><title>Node12</title>
<g id="a_node12"><a xlink:href="classESM_1_1ESMReader.html#a365650896a89c3dcb43b2f240e6d5653" target="_top" xlink:title="ESM::ESMReader::getSubHeader">
<polygon fill="white" stroke="black" points="730.5,-120.531 730.5,-139.531 903.5,-139.531 903.5,-120.531 730.5,-120.531"/>
<text text-anchor="middle" x="817" y="-127.531" font-family="FreeSans" font-size="10.00">ESM::ESMReader::getSubHeader</text>
</a>
</g>
</g>
<!-- Node11&#45;&gt;Node12 -->
<g id="edge11" class="edge"><title>Node11&#45;&gt;Node12</title>
<path fill="none" stroke="midnightblue" d="M659.47,-158.491C688.041,-153.296 723.58,-146.835 753.569,-141.382"/>
<polygon fill="midnightblue" stroke="midnightblue" points="754.296,-144.807 763.509,-139.575 753.044,-137.92 754.296,-144.807"/>
</g>
<!-- Node13 -->
<g id="node13" class="node"><title>Node13</title>
<g id="a_node13"><a xlink:href="classESM_1_1ESMReader.html#a04b4761b24d98c455289c437d28baea8" target="_top" xlink:title="ESM::ESMReader::getT">
<polygon fill="white" stroke="black" points="949.5,-156.531 949.5,-175.531 1074.5,-175.531 1074.5,-156.531 949.5,-156.531"/>
<text text-anchor="middle" x="1012" y="-163.531" font-family="FreeSans" font-size="10.00">ESM::ESMReader::getT</text>
</a>
</g>
</g>
<!-- Node11&#45;&gt;Node13 -->
<g id="edge16" class="edge"><title>Node11&#45;&gt;Node13</title>
<path fill="none" stroke="midnightblue" d="M672.359,-167.707C745.41,-167.346 863.346,-166.762 938.995,-166.387"/>
<polygon fill="midnightblue" stroke="midnightblue" points="939.397,-169.885 949.38,-166.336 939.362,-162.886 939.397,-169.885"/>
</g>
<!-- Node12&#45;&gt;Node8 -->
<g id="edge12" class="edge"><title>Node12&#45;&gt;Node8</title>
<path fill="none" stroke="midnightblue" d="M838.878,-120.453C906.857,-90.8254 1125.55,-7.92243 1266,-98.0309 1331.64,-140.147 1352.04,-240.842 1357.87,-283.453"/>
<polygon fill="midnightblue" stroke="midnightblue" points="1354.4,-283.908 1359.1,-293.402 1361.34,-283.047 1354.4,-283.908"/>
</g>
<!-- Node12&#45;&gt;Node13 -->
<g id="edge13" class="edge"><title>Node12&#45;&gt;Node13</title>
<path fill="none" stroke="midnightblue" d="M868.961,-139.537C893.708,-144.153 923.639,-149.735 949.632,-154.584"/>
<polygon fill="midnightblue" stroke="midnightblue" points="949.281,-158.079 959.753,-156.472 950.564,-151.197 949.281,-158.079"/>
</g>
<!-- Node13&#45;&gt;Node7 -->
<g id="edge14" class="edge"><title>Node13&#45;&gt;Node7</title>
<path fill="none" stroke="midnightblue" d="M1056.19,-175.612C1065.96,-179.094 1075.84,-183.774 1084,-190.031 1106.89,-207.588 1100.63,-222.656 1120,-244.031 1134.97,-260.549 1154.71,-276.395 1169.73,-287.498"/>
<polygon fill="midnightblue" stroke="midnightblue" points="1167.81,-290.427 1177.96,-293.456 1171.91,-284.757 1167.81,-290.427"/>
</g>
<!-- Node15 -->
<g id="node15" class="node"><title>Node15</title>
<g id="a_node15"><a xlink:href="classESM_1_1ESMReader.html#ab60b38a81482ba22cac72e334055988f" target="_top" xlink:title="ESM::ESMReader::getSubNameIs">
<polygon fill="white" stroke="black" points="518.5,-285.531 518.5,-304.531 693.5,-304.531 693.5,-285.531 518.5,-285.531"/>
<text text-anchor="middle" x="606" y="-292.531" font-family="FreeSans" font-size="10.00">ESM::ESMReader::getSubNameIs</text>
</a>
</g>
</g>
<!-- Node14&#45;&gt;Node15 -->
<g id="edge18" class="edge"><title>Node14&#45;&gt;Node15</title>
<path fill="none" stroke="midnightblue" d="M478.624,-291.978C488.313,-292.212 498.284,-292.453 508.173,-292.692"/>
<polygon fill="midnightblue" stroke="midnightblue" points="508.352,-296.197 518.434,-292.94 508.521,-289.199 508.352,-296.197"/>
</g>
<!-- Node16 -->
<g id="node16" class="node"><title>Node16</title>
<g id="a_node16"><a xlink:href="classESM_1_1ESMReader.html#ab0b044c1028b117dfb0aae39135af948" target="_top" xlink:title="ESM::ESMReader::getHString">
<polygon fill="white" stroke="black" points="528.5,-243.531 528.5,-262.531 683.5,-262.531 683.5,-243.531 528.5,-243.531"/>
<text text-anchor="middle" x="606" y="-250.531" font-family="FreeSans" font-size="10.00">ESM::ESMReader::getHString</text>
</a>
</g>
</g>
<!-- Node14&#45;&gt;Node16 -->
<g id="edge22" class="edge"><title>Node14&#45;&gt;Node16</title>
<path fill="none" stroke="midnightblue" d="M451.308,-280.502C478.847,-275.58 512.641,-269.539 541.522,-264.377"/>
<polygon fill="midnightblue" stroke="midnightblue" points="542.286,-267.796 551.514,-262.591 541.054,-260.905 542.286,-267.796"/>
</g>
<!-- Node15&#45;&gt;Node5 -->
<g id="edge19" class="edge"><title>Node15&#45;&gt;Node5</title>
<path fill="none" stroke="midnightblue" d="M693.517,-295.031C703.269,-295.031 713.236,-295.031 723.064,-295.031"/>
<polygon fill="midnightblue" stroke="midnightblue" points="723.242,-298.531 733.242,-295.031 723.242,-291.531 723.242,-298.531"/>
</g>
<!-- Node15&#45;&gt;Node8 -->
<g id="edge20" class="edge"><title>Node15&#45;&gt;Node8</title>
<path fill="none" stroke="midnightblue" d="M622.992,-304.723C645.798,-317.972 689.407,-341.208 730,-351.031 882.981,-388.048 927.447,-377.303 1084,-361.031 1167.04,-352.4 1261.9,-329.536 1316,-315.227"/>
<polygon fill="midnightblue" stroke="midnightblue" points="1317.18,-318.535 1325.94,-312.574 1315.37,-311.772 1317.18,-318.535"/>
</g>
<!-- Node15&#45;&gt;Node9 -->
<g id="edge21" class="edge"><title>Node15&#45;&gt;Node9</title>
<path fill="none" stroke="midnightblue" d="M618.803,-304.791C639.873,-321.766 685.897,-356.837 730,-377.031 847.845,-430.989 881.389,-455.031 1011,-455.031 1011,-455.031 1011,-455.031 1194,-455.031 1297.22,-455.031 1414.02,-419.895 1478.22,-397.403"/>
<polygon fill="midnightblue" stroke="midnightblue" points="1479.43,-400.689 1487.68,-394.046 1477.09,-394.092 1479.43,-400.689"/>
</g>
<!-- Node16&#45;&gt;Node7 -->
<g id="edge24" class="edge"><title>Node16&#45;&gt;Node7</title>
<path fill="none" stroke="midnightblue" d="M661.775,-262.566C672.902,-265.841 684.191,-270.212 694,-276.031 714.008,-287.901 709.162,-303.687 730,-314.031 871.223,-384.132 928.165,-360.981 1084,-337.031 1110,-333.035 1138.32,-323.928 1159.44,-316.144"/>
<polygon fill="midnightblue" stroke="midnightblue" points="1160.78,-319.38 1168.9,-312.57 1158.3,-312.832 1160.78,-319.38"/>
</g>
<!-- Node16&#45;&gt;Node12 -->
<g id="edge23" class="edge"><title>Node16&#45;&gt;Node12</title>
<path fill="none" stroke="midnightblue" d="M674.016,-243.51C681.054,-241.035 687.867,-237.928 694,-234.031 716.208,-219.919 710.77,-204.99 730,-187.031 747.948,-170.269 771.338,-155.112 789.193,-144.649"/>
<polygon fill="midnightblue" stroke="midnightblue" points="791.031,-147.63 797.968,-139.622 787.551,-141.556 791.031,-147.63"/>
</g>
<!-- Node17 -->
<g id="node17" class="node"><title>Node17</title>
<g id="a_node17"><a xlink:href="classESM_1_1ESMReader.html#a8743de63f7c4cb6d89d82f38ba452127" target="_top" xlink:title="ESM::ESMReader::getString">
<polygon fill="white" stroke="black" points="743,-196.531 743,-215.531 891,-215.531 891,-196.531 743,-196.531"/>
<text text-anchor="middle" x="817" y="-203.531" font-family="FreeSans" font-size="10.00">ESM::ESMReader::getString</text>
</a>
</g>
</g>
<!-- Node16&#45;&gt;Node17 -->
<g id="edge25" class="edge"><title>Node16&#45;&gt;Node17</title>
<path fill="none" stroke="midnightblue" d="M651.279,-243.456C664.981,-240.467 680.12,-237.139 694,-234.031 717.447,-228.78 743.398,-222.842 765.316,-217.79"/>
<polygon fill="midnightblue" stroke="midnightblue" points="766.123,-221.195 775.08,-215.536 764.549,-214.375 766.123,-221.195"/>
</g>
<!-- Node17&#45;&gt;Node7 -->
<g id="edge26" class="edge"><title>Node17&#45;&gt;Node7</title>
<path fill="none" stroke="midnightblue" d="M891.092,-200.215C945.837,-198.392 1021.7,-201.323 1084,-224.031 1103.22,-231.036 1147.1,-265.784 1172.62,-286.793"/>
<polygon fill="midnightblue" stroke="midnightblue" points="1170.58,-289.645 1180.51,-293.331 1175.04,-284.255 1170.58,-289.645"/>
</g>
<!-- Node18 -->
<g id="node18" class="node"><title>Node18</title>
<g id="a_node18"><a xlink:href="classToUTF8_1_1Utf8Encoder.html#a69a05afd17b7270edf61c1e5edce79e9" target="_top" xlink:title="ToUTF8::Utf8Encoder\l::getUtf8">
<polygon fill="white" stroke="black" points="954,-107.031 954,-137.031 1070,-137.031 1070,-107.031 954,-107.031"/>
<text text-anchor="start" x="962" y="-125.031" font-family="FreeSans" font-size="10.00">ToUTF8::Utf8Encoder</text>
<text text-anchor="middle" x="1012" y="-114.031" font-family="FreeSans" font-size="10.00">::getUtf8</text>
</a>
</g>
</g>
<!-- Node17&#45;&gt;Node18 -->
<g id="edge27" class="edge"><title>Node17&#45;&gt;Node18</title>
<path fill="none" stroke="midnightblue" d="M836.308,-196.38C859.919,-184.119 902.424,-162.675 940,-147.031 945.127,-144.896 950.509,-142.781 955.92,-140.738"/>
<polygon fill="midnightblue" stroke="midnightblue" points="957.471,-143.897 965.64,-137.15 955.047,-137.33 957.471,-143.897"/>
</g>
<!-- Node19 -->
<g id="node19" class="node"><title>Node19</title>
<g id="a_node19"><a xlink:href="classToUTF8_1_1Utf8Encoder.html#a1dd97261b538a0a33218d31c82c37f74" target="_top" xlink:title="ToUTF8::Utf8Encoder\l::getLength">
<polygon fill="white" stroke="black" points="1135,-156.031 1135,-186.031 1251,-186.031 1251,-156.031 1135,-156.031"/>
<text text-anchor="start" x="1143" y="-174.031" font-family="FreeSans" font-size="10.00">ToUTF8::Utf8Encoder</text>
<text text-anchor="middle" x="1193" y="-163.031" font-family="FreeSans" font-size="10.00">::getLength</text>
</a>
</g>
</g>
<!-- Node18&#45;&gt;Node19 -->
<g id="edge28" class="edge"><title>Node18&#45;&gt;Node19</title>
<path fill="none" stroke="midnightblue" d="M1068.17,-137.132C1086.88,-142.256 1107.96,-148.026 1127.35,-153.334"/>
<polygon fill="midnightblue" stroke="midnightblue" points="1126.45,-156.715 1137.02,-155.979 1128.29,-149.963 1126.45,-156.715"/>
</g>
<!-- Node20 -->
<g id="node20" class="node"><title>Node20</title>
<g id="a_node20"><a xlink:href="classToUTF8_1_1Utf8Encoder.html#a80b3e05967c1f28c1ce5325093bda679" target="_top" xlink:title="ToUTF8::Utf8Encoder\l::resize">
<polygon fill="white" stroke="black" points="1135,-107.031 1135,-137.031 1251,-137.031 1251,-107.031 1135,-107.031"/>
<text text-anchor="start" x="1143" y="-125.031" font-family="FreeSans" font-size="10.00">ToUTF8::Utf8Encoder</text>
<text text-anchor="middle" x="1193" y="-114.031" font-family="FreeSans" font-size="10.00">::resize</text>
</a>
</g>
</g>
<!-- Node18&#45;&gt;Node20 -->
<g id="edge29" class="edge"><title>Node18&#45;&gt;Node20</title>
<path fill="none" stroke="midnightblue" d="M1070.13,-122.031C1087.49,-122.031 1106.72,-122.031 1124.68,-122.031"/>
<polygon fill="midnightblue" stroke="midnightblue" points="1124.8,-125.531 1134.8,-122.031 1124.8,-118.531 1124.8,-125.531"/>
</g>
<!-- Node21 -->
<g id="node21" class="node"><title>Node21</title>
<g id="a_node21"><a xlink:href="classToUTF8_1_1Utf8Encoder.html#a203f6c96dde89ec98b709f3e4f95c1f6" target="_top" xlink:title="ToUTF8::Utf8Encoder\l::copyFromArray">
<polygon fill="white" stroke="black" points="1135,-205.031 1135,-235.031 1251,-235.031 1251,-205.031 1135,-205.031"/>
<text text-anchor="start" x="1143" y="-223.031" font-family="FreeSans" font-size="10.00">ToUTF8::Utf8Encoder</text>
<text text-anchor="middle" x="1193" y="-212.031" font-family="FreeSans" font-size="10.00">::copyFromArray</text>
</a>
</g>
</g>
<!-- Node18&#45;&gt;Node21 -->
<g id="edge30" class="edge"><title>Node18&#45;&gt;Node21</title>
<path fill="none" stroke="midnightblue" d="M1066.7,-137.034C1072.81,-139.857 1078.73,-143.166 1084,-147.031 1105.5,-162.804 1098.46,-179.304 1120,-195.031 1122.62,-196.943 1125.39,-198.718 1128.27,-200.364"/>
<polygon fill="midnightblue" stroke="midnightblue" points="1126.68,-203.479 1137.17,-204.928 1129.87,-197.25 1126.68,-203.479"/>
</g>
<!-- Node22&#45;&gt;Node11 -->
<g id="edge33" class="edge"><title>Node22&#45;&gt;Node11</title>
<path fill="none" stroke="midnightblue" d="M440.891,-204.5C473.225,-197.314 517.745,-187.421 552.258,-179.751"/>
<polygon fill="midnightblue" stroke="midnightblue" points="553.162,-183.136 562.164,-177.55 551.643,-176.303 553.162,-183.136"/>
</g>
<!-- Node22&#45;&gt;Node15 -->
<g id="edge32" class="edge"><title>Node22&#45;&gt;Node15</title>
<path fill="none" stroke="midnightblue" d="M460.186,-223.588C467.805,-226.048 475.268,-229.141 482,-233.031 502.425,-244.832 497.791,-259.864 518,-272.031 524.851,-276.156 532.441,-279.55 540.2,-282.342"/>
<polygon fill="midnightblue" stroke="midnightblue" points="539.117,-285.67 549.71,-285.457 541.296,-279.018 539.117,-285.67"/>
</g>
<!-- Node23&#45;&gt;Node4 -->
<g id="edge35" class="edge"><title>Node23&#45;&gt;Node4</title>
<path fill="none" stroke="midnightblue" d="M451.308,-242.502C478.847,-237.58 512.641,-231.539 541.522,-226.377"/>
<polygon fill="midnightblue" stroke="midnightblue" points="542.286,-229.796 551.514,-224.591 541.054,-222.905 542.286,-229.796"/>
</g>
<!-- Node23&#45;&gt;Node16 -->
<g id="edge36" class="edge"><title>Node23&#45;&gt;Node16</title>
<path fill="none" stroke="midnightblue" d="M482.195,-252.438C493.969,-252.494 506.088,-252.553 517.914,-252.61"/>
<polygon fill="midnightblue" stroke="midnightblue" points="518.198,-256.111 528.215,-252.66 518.232,-249.112 518.198,-256.111"/>
</g>
<!-- Node25 -->
<g id="node25" class="node"><title>Node25</title>
<g id="a_node25"><a xlink:href="classMWBase_1_1Environment.html#a73f12633762b049c03c80fe215873faa" target="_top" xlink:title="Return instance of this class. ">
<polygon fill="white" stroke="black" points="324,-128.531 324,-147.531 470,-147.531 470,-128.531 324,-128.531"/>
<text text-anchor="middle" x="397" y="-135.531" font-family="FreeSans" font-size="10.00">MWBase::Environment::get</text>
</a>
</g>
</g>
<!-- Node24&#45;&gt;Node25 -->
<g id="edge38" class="edge"><title>Node24&#45;&gt;Node25</title>
<path fill="none" stroke="midnightblue" d="M269.595,-160.256C289.18,-156.812 311.356,-152.913 331.606,-149.353"/>
<polygon fill="midnightblue" stroke="midnightblue" points="332.44,-152.76 341.683,-147.581 331.228,-145.866 332.44,-152.76"/>
</g>
<!-- Node29&#45;&gt;Node3 -->
<g id="edge44" class="edge"><title>Node29&#45;&gt;Node3</title>
<path fill="none" stroke="midnightblue" d="M255.652,-242.522C262.722,-240.009 269.78,-236.886 276,-233.031 295.774,-220.774 291.781,-206.539 312,-195.031 315.906,-192.807 320.054,-190.844 324.332,-189.111"/>
<polygon fill="midnightblue" stroke="midnightblue" points="325.644,-192.358 333.862,-185.671 323.268,-185.774 325.644,-192.358"/>
</g>
<!-- Node29&#45;&gt;Node14 -->
<g id="edge43" class="edge"><title>Node29&#45;&gt;Node14</title>
<path fill="none" stroke="midnightblue" d="M259.926,-261.62C284.376,-266.725 314.633,-273.042 340.403,-278.423"/>
<polygon fill="midnightblue" stroke="midnightblue" points="339.9,-281.893 350.404,-280.511 341.33,-275.041 339.9,-281.893"/>
</g>
</g>
</svg>
