<?xml version="1.0" encoding="UTF-8" standalone="no"?>
<!DOCTYPE svg PUBLIC "-//W3C//DTD SVG 1.1//EN"
 "http://www.w3.org/Graphics/SVG/1.1/DTD/svg11.dtd">
<!-- Generated by graphviz version 2.36.0 (20140111.2315)
 -->
<!-- Title: CSMWorld::ModifyCommand::ModifyCommand Pages: 1 -->
<svg width="412pt" height="38pt"
 viewBox="0.00 0.00 412.00 38.00" xmlns="http://www.w3.org/2000/svg" xmlns:xlink="http://www.w3.org/1999/xlink">
<g id="graph0" class="graph" transform="scale(1 1) rotate(0) translate(4 34)">
<title>CSMWorld::ModifyCommand::ModifyCommand</title>
<polygon fill="white" stroke="none" points="-4,4 -4,-34 408,-34 408,4 -4,4"/>
<!-- Node1 -->
<g id="node1" class="node"><title>Node1</title>
<polygon fill="#bfbfbf" stroke="black" points="0.5,-0 0.5,-30 151.5,-30 151.5,-0 0.5,-0"/>
<text text-anchor="start" x="8.5" y="-18" font-family="FreeSans" font-size="10.00">CSMWorld::ModifyCommand</text>
<text text-anchor="middle" x="76" y="-7" font-family="FreeSans" font-size="10.00">::ModifyCommand</text>
</g>
<!-- Node2 -->
<g id="node2" class="node"><title>Node2</title>
<g id="a_node2"><a xlink:href="namespaceanonymous__namespace_02character_8cpp_03.html#a551df780ef62c57fe81b128fa596488c" target="_top" xlink:title="anonymous_namespace\l\{character::cpp\}::toString">
<polygon fill="white" stroke="black" points="188,-0 188,-30 330,-30 330,-0 188,-0"/>
<text text-anchor="start" x="196" y="-18" font-family="FreeSans" font-size="10.00">anonymous_namespace</text>
<text text-anchor="middle" x="259" y="-7" font-family="FreeSans" font-size="10.00">{character::cpp}::toString</text>
</a>
</g>
</g>
<!-- Node1&#45;&gt;Node2 -->
<g id="edge1" class="edge"><title>Node1&#45;&gt;Node2</title>
<path fill="none" stroke="midnightblue" d="M151.665,-15C160.274,-15 169.08,-15 177.759,-15"/>
<polygon fill="midnightblue" stroke="midnightblue" points="177.869,-18.5001 187.869,-15 177.869,-11.5001 177.869,-18.5001"/>
</g>
<!-- Node3 -->
<g id="node3" class="node"><title>Node3</title>
<g id="a_node3"><a xlink:href="gen__iconv_8cpp.html#a47a14d9c2f599fa2591017202978774d" target="_top" xlink:title="num">
<polygon fill="white" stroke="black" points="366,-5.5 366,-24.5 404,-24.5 404,-5.5 366,-5.5"/>
<text text-anchor="middle" x="385" y="-12.5" font-family="FreeSans" font-size="10.00">num</text>
</a>
</g>
</g>
<!-- Node2&#45;&gt;Node3 -->
<g id="edge2" class="edge"><title>Node2&#45;&gt;Node3</title>
<path fill="none" stroke="midnightblue" d="M330.333,-15C339.25,-15 347.932,-15 355.625,-15"/>
<polygon fill="midnightblue" stroke="midnightblue" points="355.762,-18.5001 365.762,-15 355.762,-11.5001 355.762,-18.5001"/>
</g>
</g>
</svg>
