<?xml version="1.0" encoding="UTF-8" standalone="no"?>
<!DOCTYPE svg PUBLIC "-//W3C//DTD SVG 1.1//EN"
 "http://www.w3.org/Graphics/SVG/1.1/DTD/svg11.dtd">
<!-- Generated by graphviz version 2.36.0 (20140111.2315)
 -->
<!-- Title: Loading::Listener::increaseProgress Pages: 1 -->
<svg width="834pt" height="185pt"
 viewBox="0.00 0.00 834.00 185.00" xmlns="http://www.w3.org/2000/svg" xmlns:xlink="http://www.w3.org/1999/xlink">
<g id="graph0" class="graph" transform="scale(1 1) rotate(0) translate(4 181)">
<title>Loading::Listener::increaseProgress</title>
<polygon fill="white" stroke="none" points="-4,4 -4,-181 830,-181 830,4 -4,4"/>
<!-- Node1 -->
<g id="node1" class="node"><title>Node1</title>
<polygon fill="#bfbfbf" stroke="black" points="0,-76 0,-106 104,-106 104,-76 0,-76"/>
<text text-anchor="start" x="8" y="-94" font-family="FreeSans" font-size="10.00">Loading::Listener::</text>
<text text-anchor="middle" x="52" y="-83" font-family="FreeSans" font-size="10.00">increaseProgress</text>
</g>
<!-- Node2 -->
<g id="node2" class="node"><title>Node2</title>
<g id="a_node2"><a xlink:href="classMWRender_1_1GlobalMap.html#a7e509db4c6497b625b14adc3af660444" target="_top" xlink:title="MWRender::GlobalMap\l::render">
<polygon fill="white" stroke="black" points="151,-147 151,-177 273,-177 273,-147 151,-147"/>
<text text-anchor="start" x="159" y="-165" font-family="FreeSans" font-size="10.00">MWRender::GlobalMap</text>
<text text-anchor="middle" x="212" y="-154" font-family="FreeSans" font-size="10.00">::render</text>
</a>
</g>
</g>
<!-- Node1&#45;&gt;Node2 -->
<g id="edge1" class="edge"><title>Node1&#45;&gt;Node2</title>
<path fill="none" stroke="midnightblue" d="M87.9665,-111.005C103.62,-119.563 122.467,-129.328 140,-137 148.021,-140.51 156.707,-143.895 165.161,-146.98"/>
<polygon fill="midnightblue" stroke="midnightblue" points="89.5978,-107.908 79.153,-106.131 86.21,-114.033 89.5978,-107.908"/>
</g>
<!-- Node6 -->
<g id="node6" class="node"><title>Node6</title>
<g id="a_node6"><a xlink:href="classMWState_1_1StateManager.html#a709123862fc05e7a490d09ab20928f9c" target="_top" xlink:title="Load a saved game file belonging to the given character. ">
<polygon fill="white" stroke="black" points="145,-98 145,-128 279,-128 279,-98 145,-98"/>
<text text-anchor="start" x="153" y="-116" font-family="FreeSans" font-size="10.00">MWState::StateManager</text>
<text text-anchor="middle" x="212" y="-105" font-family="FreeSans" font-size="10.00">::loadGame</text>
</a>
</g>
</g>
<!-- Node1&#45;&gt;Node6 -->
<g id="edge5" class="edge"><title>Node1&#45;&gt;Node6</title>
<path fill="none" stroke="midnightblue" d="M114.218,-99.524C124.299,-100.928 134.788,-102.388 144.981,-103.807"/>
<polygon fill="midnightblue" stroke="midnightblue" points="114.685,-96.0554 104.298,-98.1428 113.72,-102.989 114.685,-96.0554"/>
</g>
<!-- Node7 -->
<g id="node7" class="node"><title>Node7</title>
<g id="a_node7"><a xlink:href="classMWWorld_1_1Cells.html#a6bb77d8fff6a1ad993de3715b50c642d" target="_top" xlink:title="MWWorld::Cells::write">
<polygon fill="white" stroke="black" points="154,-59.5 154,-78.5 270,-78.5 270,-59.5 154,-59.5"/>
<text text-anchor="middle" x="212" y="-66.5" font-family="FreeSans" font-size="10.00">MWWorld::Cells::write</text>
</a>
</g>
</g>
<!-- Node1&#45;&gt;Node7 -->
<g id="edge6" class="edge"><title>Node1&#45;&gt;Node7</title>
<path fill="none" stroke="midnightblue" d="M114.533,-82.4321C127.507,-80.6256 141.143,-78.7269 153.944,-76.9444"/>
<polygon fill="midnightblue" stroke="midnightblue" points="113.72,-79.0115 104.298,-83.8572 114.685,-85.9446 113.72,-79.0115"/>
</g>
<!-- Node9 -->
<g id="node9" class="node"><title>Node9</title>
<g id="a_node9"><a xlink:href="structanonymous__namespace_02scene_8cpp_03_1_1InsertVisitor.html#ab51eeb280acb714d9c51d10c1c82b802" target="_top" xlink:title="anonymous_namespace\l\{scene::cpp\}::InsertVisitor\l::insert">
<polygon fill="white" stroke="black" points="140.5,0.5 140.5,-40.5 283.5,-40.5 283.5,0.5 140.5,0.5"/>
<text text-anchor="start" x="148.5" y="-28.5" font-family="FreeSans" font-size="10.00">anonymous_namespace</text>
<text text-anchor="start" x="148.5" y="-17.5" font-family="FreeSans" font-size="10.00">{scene::cpp}::InsertVisitor</text>
<text text-anchor="middle" x="212" y="-6.5" font-family="FreeSans" font-size="10.00">::insert</text>
</a>
</g>
</g>
<!-- Node1&#45;&gt;Node9 -->
<g id="edge8" class="edge"><title>Node1&#45;&gt;Node9</title>
<path fill="none" stroke="midnightblue" d="M93.5278,-71.4832C108.118,-64.5678 124.742,-56.8152 140,-50 146.964,-46.8892 154.347,-43.6764 161.617,-40.5612"/>
<polygon fill="midnightblue" stroke="midnightblue" points="91.7947,-68.4318 84.2682,-75.8885 94.802,-74.7529 91.7947,-68.4318"/>
</g>
<!-- Node3 -->
<g id="node3" class="node"><title>Node3</title>
<g id="a_node3"><a xlink:href="classMWGui_1_1MapWindow.html#aa56e59f174dde3770fd0f59425e54f27" target="_top" xlink:title="MWGui::MapWindow::render\lGlobalMap">
<polygon fill="white" stroke="black" points="320.5,-147 320.5,-177 467.5,-177 467.5,-147 320.5,-147"/>
<text text-anchor="start" x="328.5" y="-165" font-family="FreeSans" font-size="10.00">MWGui::MapWindow::render</text>
<text text-anchor="middle" x="394" y="-154" font-family="FreeSans" font-size="10.00">GlobalMap</text>
</a>
</g>
</g>
<!-- Node2&#45;&gt;Node3 -->
<g id="edge2" class="edge"><title>Node2&#45;&gt;Node3</title>
<path fill="none" stroke="midnightblue" d="M283.275,-162C295.45,-162 308.132,-162 320.369,-162"/>
<polygon fill="midnightblue" stroke="midnightblue" points="283.188,-158.5 273.188,-162 283.188,-165.5 283.188,-158.5"/>
</g>
<!-- Node4 -->
<g id="node4" class="node"><title>Node4</title>
<g id="a_node4"><a xlink:href="classMWGui_1_1WindowManager.html#a4bc558dc42abac703a7d7d32746ea61a" target="_top" xlink:title="MWGui::WindowManager\l::renderWorldMap">
<polygon fill="white" stroke="black" points="504,-147 504,-177 636,-177 636,-147 504,-147"/>
<text text-anchor="start" x="512" y="-165" font-family="FreeSans" font-size="10.00">MWGui::WindowManager</text>
<text text-anchor="middle" x="570" y="-154" font-family="FreeSans" font-size="10.00">::renderWorldMap</text>
</a>
</g>
</g>
<!-- Node3&#45;&gt;Node4 -->
<g id="edge3" class="edge"><title>Node3&#45;&gt;Node4</title>
<path fill="none" stroke="midnightblue" d="M477.75,-162C486.495,-162 495.298,-162 503.803,-162"/>
<polygon fill="midnightblue" stroke="midnightblue" points="477.532,-158.5 467.532,-162 477.532,-165.5 477.532,-158.5"/>
</g>
<!-- Node5 -->
<g id="node5" class="node"><title>Node5</title>
<g id="a_node5"><a xlink:href="classOMW_1_1Engine.html#a9edab665083b0f5db2cda761f3e9c2c3" target="_top" xlink:title="Prepare engine for game play. ">
<polygon fill="white" stroke="black" points="672,-152.5 672,-171.5 826,-171.5 826,-152.5 672,-152.5"/>
<text text-anchor="middle" x="749" y="-159.5" font-family="FreeSans" font-size="10.00">OMW::Engine::prepareEngine</text>
</a>
</g>
</g>
<!-- Node4&#45;&gt;Node5 -->
<g id="edge4" class="edge"><title>Node4&#45;&gt;Node5</title>
<path fill="none" stroke="midnightblue" d="M646.365,-162C654.819,-162 663.438,-162 671.902,-162"/>
<polygon fill="midnightblue" stroke="midnightblue" points="646.154,-158.5 636.154,-162 646.154,-165.5 646.154,-158.5"/>
</g>
<!-- Node8 -->
<g id="node8" class="node"><title>Node8</title>
<g id="a_node8"><a xlink:href="classMWWorld_1_1World.html#aff787587fa5530ba7e74db9d17e4dbb7" target="_top" xlink:title="MWWorld::World::write">
<polygon fill="white" stroke="black" points="334.5,-59.5 334.5,-78.5 453.5,-78.5 453.5,-59.5 334.5,-59.5"/>
<text text-anchor="middle" x="394" y="-66.5" font-family="FreeSans" font-size="10.00">MWWorld::World::write</text>
</a>
</g>
</g>
<!-- Node7&#45;&gt;Node8 -->
<g id="edge7" class="edge"><title>Node7&#45;&gt;Node8</title>
<path fill="none" stroke="midnightblue" d="M280.66,-69C298.282,-69 317.123,-69 334.242,-69"/>
<polygon fill="midnightblue" stroke="midnightblue" points="280.448,-65.5001 270.448,-69 280.448,-72.5001 280.448,-65.5001"/>
</g>
</g>
</svg>
