<?xml version="1.0" encoding="UTF-8" standalone="no"?>
<!DOCTYPE svg PUBLIC "-//W3C//DTD SVG 1.1//EN"
 "http://www.w3.org/Graphics/SVG/1.1/DTD/svg11.dtd">
<!-- Generated by graphviz version 2.36.0 (20140111.2315)
 -->
<!-- Title: MWGui::LocalMapBase::updateMagicMarkers Pages: 1 -->
<svg width="804pt" height="536pt"
 viewBox="0.00 0.00 804.00 535.94" xmlns="http://www.w3.org/2000/svg" xmlns:xlink="http://www.w3.org/1999/xlink">
<g id="graph0" class="graph" transform="scale(1 1) rotate(0) translate(4 531.944)">
<title>MWGui::LocalMapBase::updateMagicMarkers</title>
<polygon fill="white" stroke="none" points="-4,4 -4,-531.944 800,-531.944 800,4 -4,4"/>
<!-- Node1 -->
<g id="node1" class="node"><title>Node1</title>
<polygon fill="#bfbfbf" stroke="black" points="0.5,-218 0.5,-248 117.5,-248 117.5,-218 0.5,-218"/>
<text text-anchor="start" x="8.5" y="-236" font-family="FreeSans" font-size="10.00">MWGui::LocalMapBase</text>
<text text-anchor="middle" x="59" y="-225" font-family="FreeSans" font-size="10.00">::updateMagicMarkers</text>
</g>
<!-- Node2 -->
<g id="node2" class="node"><title>Node2</title>
<g id="a_node2"><a xlink:href="classMWGui_1_1LocalMapBase.html#a088c8d71843aa8b1bf8f0bb95aa895e3" target="_top" xlink:title="MWGui::LocalMapBase\l::addDetectionMarkers">
<polygon fill="white" stroke="black" points="165.5,-376 165.5,-406 282.5,-406 282.5,-376 165.5,-376"/>
<text text-anchor="start" x="173.5" y="-394" font-family="FreeSans" font-size="10.00">MWGui::LocalMapBase</text>
<text text-anchor="middle" x="224" y="-383" font-family="FreeSans" font-size="10.00">::addDetectionMarkers</text>
</a>
</g>
</g>
<!-- Node1&#45;&gt;Node2 -->
<g id="edge1" class="edge"><title>Node1&#45;&gt;Node2</title>
<path fill="none" stroke="midnightblue" d="M75.6291,-248.15C104.399,-276.037 165.878,-335.63 199.628,-368.344"/>
<polygon fill="midnightblue" stroke="midnightblue" points="197.562,-371.217 207.179,-375.664 202.434,-366.191 197.562,-371.217"/>
</g>
<!-- Node3 -->
<g id="node3" class="node"><title>Node3</title>
<g id="a_node3"><a xlink:href="classMWBase_1_1Environment.html#a73f12633762b049c03c80fe215873faa" target="_top" xlink:title="Return instance of this class. ">
<polygon fill="white" stroke="black" points="513.5,-496.5 513.5,-515.5 644.5,-515.5 644.5,-496.5 513.5,-496.5"/>
<text text-anchor="middle" x="579" y="-503.5" font-family="FreeSans" font-size="10.00">MWBase::Environment::get</text>
</a>
</g>
</g>
<!-- Node1&#45;&gt;Node3 -->
<g id="edge12" class="edge"><title>Node1&#45;&gt;Node3</title>
<path fill="none" stroke="midnightblue" d="M62.2164,-248.154C68.7605,-287.51 91.6066,-393.933 154,-452 254.949,-545.948 432.771,-531.954 522.66,-517.226"/>
<polygon fill="midnightblue" stroke="midnightblue" points="523.38,-520.653 532.651,-515.526 522.206,-513.753 523.38,-520.653"/>
</g>
<!-- Node4 -->
<g id="node4" class="node"><title>Node4</title>
<g id="a_node4"><a xlink:href="classMWBase_1_1Environment.html#ae14e166d8f5ff8629be119333d502660" target="_top" xlink:title="MWBase::Environment\l::getWorld">
<polygon fill="white" stroke="black" points="522.5,-316 522.5,-346 635.5,-346 635.5,-316 522.5,-316"/>
<text text-anchor="start" x="530.5" y="-334" font-family="FreeSans" font-size="10.00">MWBase::Environment</text>
<text text-anchor="middle" x="579" y="-323" font-family="FreeSans" font-size="10.00">::getWorld</text>
</a>
</g>
</g>
<!-- Node1&#45;&gt;Node4 -->
<g id="edge13" class="edge"><title>Node1&#45;&gt;Node4</title>
<path fill="none" stroke="midnightblue" d="M88.866,-248.088C107.081,-256.973 131.365,-267.676 154,-274 277.776,-308.585 427.936,-322.458 512.265,-327.817"/>
<polygon fill="midnightblue" stroke="midnightblue" points="512.271,-331.324 522.467,-328.445 512.7,-324.338 512.271,-331.324"/>
</g>
<!-- Node7 -->
<g id="node7" class="node"><title>Node7</title>
<g id="a_node7"><a xlink:href="classMWGui_1_1LocalMapBase.html#a7cffdc9b28f6a467cf84d27b32524ad5" target="_top" xlink:title="MWGui::LocalMapBase\l::getMarkerPosition">
<polygon fill="white" stroke="black" points="343.5,-447 343.5,-477 460.5,-477 460.5,-447 343.5,-447"/>
<text text-anchor="start" x="351.5" y="-465" font-family="FreeSans" font-size="10.00">MWGui::LocalMapBase</text>
<text text-anchor="middle" x="402" y="-454" font-family="FreeSans" font-size="10.00">::getMarkerPosition</text>
</a>
</g>
</g>
<!-- Node1&#45;&gt;Node7 -->
<g id="edge21" class="edge"><title>Node1&#45;&gt;Node7</title>
<path fill="none" stroke="midnightblue" d="M63.0976,-248.143C71.1842,-283.559 96.4248,-372.039 154,-415 205.601,-453.503 279.734,-463.241 333.306,-464.578"/>
<polygon fill="midnightblue" stroke="midnightblue" points="333.342,-468.079 343.396,-464.738 333.452,-461.08 333.342,-468.079"/>
</g>
<!-- Node11 -->
<g id="node11" class="node"><title>Node11</title>
<g id="a_node11"><a xlink:href="classMWBase_1_1World.html#a2ce315b257c7352fca67ee810180eb58" target="_top" xlink:title="MWBase::World::getPlayer">
<polygon fill="white" stroke="black" points="159,-245.5 159,-264.5 289,-264.5 289,-245.5 159,-245.5"/>
<text text-anchor="middle" x="224" y="-252.5" font-family="FreeSans" font-size="10.00">MWBase::World::getPlayer</text>
</a>
</g>
</g>
<!-- Node1&#45;&gt;Node11 -->
<g id="edge14" class="edge"><title>Node1&#45;&gt;Node11</title>
<path fill="none" stroke="midnightblue" d="M117.927,-240.818C127.982,-242.175 138.56,-243.603 148.975,-245.009"/>
<polygon fill="midnightblue" stroke="midnightblue" points="148.509,-248.478 158.887,-246.347 149.445,-241.541 148.509,-248.478"/>
</g>
<!-- Node12 -->
<g id="node12" class="node"><title>Node12</title>
<g id="a_node12"><a xlink:href="classMWWorld_1_1Player.html#a0c51b7bf12cadd164cdaf50d06b9d7b1" target="_top" xlink:title="MWWorld::Player::getMarked\lPosition">
<polygon fill="white" stroke="black" points="154,-196 154,-226 294,-226 294,-196 154,-196"/>
<text text-anchor="start" x="162" y="-214" font-family="FreeSans" font-size="10.00">MWWorld::Player::getMarked</text>
<text text-anchor="middle" x="224" y="-203" font-family="FreeSans" font-size="10.00">Position</text>
</a>
</g>
</g>
<!-- Node1&#45;&gt;Node12 -->
<g id="edge15" class="edge"><title>Node1&#45;&gt;Node12</title>
<path fill="none" stroke="midnightblue" d="M117.927,-225.182C126.279,-224.054 134.994,-222.878 143.675,-221.706"/>
<polygon fill="midnightblue" stroke="midnightblue" points="144.385,-225.142 153.827,-220.336 143.449,-218.205 144.385,-225.142"/>
</g>
<!-- Node13 -->
<g id="node13" class="node"><title>Node13</title>
<g id="a_node13"><a xlink:href="classMWWorld_1_1CellStore.html#a0cf5ba632c9f67dc25d28e4bebd8c8f5" target="_top" xlink:title="MWWorld::CellStore\l::isExterior">
<polygon fill="white" stroke="black" points="172.5,-147 172.5,-177 275.5,-177 275.5,-147 172.5,-147"/>
<text text-anchor="start" x="180.5" y="-165" font-family="FreeSans" font-size="10.00">MWWorld::CellStore</text>
<text text-anchor="middle" x="224" y="-154" font-family="FreeSans" font-size="10.00">::isExterior</text>
</a>
</g>
</g>
<!-- Node1&#45;&gt;Node13 -->
<g id="edge16" class="edge"><title>Node1&#45;&gt;Node13</title>
<path fill="none" stroke="midnightblue" d="M88.8423,-217.885C107.253,-208.487 131.756,-196.44 154,-187 159.058,-184.853 164.37,-182.721 169.707,-180.658"/>
<polygon fill="midnightblue" stroke="midnightblue" points="171.176,-183.844 179.29,-177.033 168.699,-177.297 171.176,-183.844"/>
</g>
<!-- Node15 -->
<g id="node15" class="node"><title>Node15</title>
<g id="a_node15"><a xlink:href="classMisc_1_1StringUtils.html#a0f8cb0ac134191ba8417f74ab7dc4de6" target="_top" xlink:title="Misc::StringUtils::\lciEqual">
<polygon fill="white" stroke="black" points="179,-98 179,-128 269,-128 269,-98 179,-98"/>
<text text-anchor="start" x="187" y="-116" font-family="FreeSans" font-size="10.00">Misc::StringUtils::</text>
<text text-anchor="middle" x="224" y="-105" font-family="FreeSans" font-size="10.00">ciEqual</text>
</a>
</g>
</g>
<!-- Node1&#45;&gt;Node15 -->
<g id="edge18" class="edge"><title>Node1&#45;&gt;Node15</title>
<path fill="none" stroke="midnightblue" d="M71.4469,-217.766C87.713,-197.074 119.406,-160.132 154,-138 158.882,-134.877 164.207,-132.074 169.664,-129.577"/>
<polygon fill="midnightblue" stroke="midnightblue" points="171.073,-132.781 178.917,-125.66 168.344,-126.335 171.073,-132.781"/>
</g>
<!-- Node17 -->
<g id="node17" class="node"><title>Node17</title>
<g id="a_node17"><a xlink:href="classMWWorld_1_1CellStore.html#a6b204d54fa4c8dc58ead29c86e2362ba" target="_top" xlink:title="MWWorld::CellStore\l::getCell">
<polygon fill="white" stroke="black" points="172.5,-49 172.5,-79 275.5,-79 275.5,-49 172.5,-49"/>
<text text-anchor="start" x="180.5" y="-67" font-family="FreeSans" font-size="10.00">MWWorld::CellStore</text>
<text text-anchor="middle" x="224" y="-56" font-family="FreeSans" font-size="10.00">::getCell</text>
</a>
</g>
</g>
<!-- Node1&#45;&gt;Node17 -->
<g id="edge20" class="edge"><title>Node1&#45;&gt;Node17</title>
<path fill="none" stroke="midnightblue" d="M66.0711,-217.631C78.3443,-188.458 108.837,-124.783 154,-89 156.918,-86.6881 160.069,-84.5782 163.361,-82.6544"/>
<polygon fill="midnightblue" stroke="midnightblue" points="165.085,-85.7029 172.344,-77.9856 161.857,-79.4917 165.085,-85.7029"/>
</g>
<!-- Node18 -->
<g id="node18" class="node"><title>Node18</title>
<g id="a_node18"><a xlink:href="classMWGui_1_1LocalMapBase.html#ac1facc456798454d27e6c2068029c816" target="_top" xlink:title="MWGui::LocalMapBase\l::redraw">
<polygon fill="white" stroke="black" points="165.5,-0 165.5,-30 282.5,-30 282.5,-0 165.5,-0"/>
<text text-anchor="start" x="173.5" y="-18" font-family="FreeSans" font-size="10.00">MWGui::LocalMapBase</text>
<text text-anchor="middle" x="224" y="-7" font-family="FreeSans" font-size="10.00">::redraw</text>
</a>
</g>
</g>
<!-- Node1&#45;&gt;Node18 -->
<g id="edge22" class="edge"><title>Node1&#45;&gt;Node18</title>
<path fill="none" stroke="midnightblue" d="M63.1206,-217.992C71.3916,-181.899 97.2422,-89.5046 154,-39 155.335,-37.8117 156.733,-36.6816 158.182,-35.6067"/>
<polygon fill="midnightblue" stroke="midnightblue" points="160.394,-38.3482 166.963,-30.0358 156.644,-32.4374 160.394,-38.3482"/>
</g>
<!-- Node2&#45;&gt;Node3 -->
<g id="edge2" class="edge"><title>Node2&#45;&gt;Node3</title>
<path fill="none" stroke="midnightblue" d="M236.239,-406.139C253.579,-428.167 289.156,-468.347 330,-486 384.622,-509.608 452.272,-513.599 503.112,-512.25"/>
<polygon fill="midnightblue" stroke="midnightblue" points="503.496,-515.739 513.37,-511.9 503.257,-508.743 503.496,-515.739"/>
</g>
<!-- Node2&#45;&gt;Node4 -->
<g id="edge3" class="edge"><title>Node2&#45;&gt;Node4</title>
<path fill="none" stroke="midnightblue" d="M256.392,-375.916C276.864,-366.794 304.434,-355.834 330,-350 390.654,-336.158 461.587,-331.878 512.018,-330.782"/>
<polygon fill="midnightblue" stroke="midnightblue" points="512.204,-334.279 522.139,-330.599 512.077,-327.281 512.204,-334.279"/>
</g>
<!-- Node5 -->
<g id="node5" class="node"><title>Node5</title>
<g id="a_node5"><a xlink:href="classMWBase_1_1World.html#a1167bb23bc0d0068c3d77384ed26ff66" target="_top" xlink:title="MWBase::World::listDetected\lReferences">
<polygon fill="white" stroke="black" points="332,-398 332,-428 472,-428 472,-398 332,-398"/>
<text text-anchor="start" x="340" y="-416" font-family="FreeSans" font-size="10.00">MWBase::World::listDetected</text>
<text text-anchor="middle" x="402" y="-405" font-family="FreeSans" font-size="10.00">References</text>
</a>
</g>
</g>
<!-- Node2&#45;&gt;Node5 -->
<g id="edge4" class="edge"><title>Node2&#45;&gt;Node5</title>
<path fill="none" stroke="midnightblue" d="M282.629,-398.204C295.171,-399.771 308.652,-401.457 321.864,-403.108"/>
<polygon fill="midnightblue" stroke="midnightblue" points="321.537,-406.594 331.894,-404.362 322.405,-399.648 321.537,-406.594"/>
</g>
<!-- Node6 -->
<g id="node6" class="node"><title>Node6</title>
<g id="a_node6"><a xlink:href="classMWBase_1_1World.html#a95005e26dcb7b1f6dc906eb518b95762" target="_top" xlink:title="MWBase::World::getPlayerPtr">
<polygon fill="white" stroke="black" points="330.5,-359.5 330.5,-378.5 473.5,-378.5 473.5,-359.5 330.5,-359.5"/>
<text text-anchor="middle" x="402" y="-366.5" font-family="FreeSans" font-size="10.00">MWBase::World::getPlayerPtr</text>
</a>
</g>
</g>
<!-- Node2&#45;&gt;Node6 -->
<g id="edge5" class="edge"><title>Node2&#45;&gt;Node6</title>
<path fill="none" stroke="midnightblue" d="M282.629,-383.796C294.653,-382.293 307.539,-380.683 320.224,-379.097"/>
<polygon fill="midnightblue" stroke="midnightblue" points="320.845,-382.547 330.333,-377.833 319.976,-375.601 320.845,-382.547"/>
</g>
<!-- Node2&#45;&gt;Node7 -->
<g id="edge6" class="edge"><title>Node2&#45;&gt;Node7</title>
<path fill="none" stroke="midnightblue" d="M257.839,-406.137C278.41,-415.431 305.562,-427.36 330,-437 335.451,-439.15 341.172,-441.315 346.899,-443.422"/>
<polygon fill="midnightblue" stroke="midnightblue" points="345.905,-446.784 356.499,-446.901 348.29,-440.203 345.905,-446.784"/>
</g>
<!-- Node7&#45;&gt;Node3 -->
<g id="edge7" class="edge"><title>Node7&#45;&gt;Node3</title>
<path fill="none" stroke="midnightblue" d="M460.787,-476.529C483.305,-482.191 508.802,-488.602 530.251,-493.995"/>
<polygon fill="midnightblue" stroke="midnightblue" points="529.559,-497.429 540.11,-496.473 531.265,-490.641 529.559,-497.429"/>
</g>
<!-- Node7&#45;&gt;Node4 -->
<g id="edge8" class="edge"><title>Node7&#45;&gt;Node4</title>
<path fill="none" stroke="midnightblue" d="M456.698,-446.996C462.813,-444.174 468.732,-440.865 474,-437 495.501,-421.227 491.744,-408.438 510,-389 522.199,-376.011 537.138,-363.003 549.904,-352.608"/>
<polygon fill="midnightblue" stroke="midnightblue" points="552.311,-355.164 557.928,-346.18 547.935,-349.7 552.311,-355.164"/>
</g>
<!-- Node8 -->
<g id="node8" class="node"><title>Node8</title>
<g id="a_node8"><a xlink:href="classMWBase_1_1World.html#aad846fb897e65c9baa07ab6505e78ecc" target="_top" xlink:title="Convert position to cell numbers. ">
<polygon fill="white" stroke="black" points="512,-447 512,-477 646,-477 646,-447 512,-447"/>
<text text-anchor="start" x="520" y="-465" font-family="FreeSans" font-size="10.00">MWBase::World::positionTo</text>
<text text-anchor="middle" x="579" y="-454" font-family="FreeSans" font-size="10.00">Index</text>
</a>
</g>
</g>
<!-- Node7&#45;&gt;Node8 -->
<g id="edge9" class="edge"><title>Node7&#45;&gt;Node8</title>
<path fill="none" stroke="midnightblue" d="M460.787,-462C473.798,-462 487.803,-462 501.448,-462"/>
<polygon fill="midnightblue" stroke="midnightblue" points="501.789,-465.5 511.789,-462 501.789,-458.5 501.789,-465.5"/>
</g>
<!-- Node9 -->
<g id="node9" class="node"><title>Node9</title>
<g id="a_node9"><a xlink:href="classMWRender_1_1LocalMap.html#a0e4fa4a02420519afccbd53e8782be4e" target="_top" xlink:title="MWRender::LocalMap\l::worldToInteriorMapPosition">
<polygon fill="white" stroke="black" points="510,-398 510,-428 648,-428 648,-398 510,-398"/>
<text text-anchor="start" x="518" y="-416" font-family="FreeSans" font-size="10.00">MWRender::LocalMap</text>
<text text-anchor="middle" x="579" y="-405" font-family="FreeSans" font-size="10.00">::worldToInteriorMapPosition</text>
</a>
</g>
</g>
<!-- Node7&#45;&gt;Node9 -->
<g id="edge10" class="edge"><title>Node7&#45;&gt;Node9</title>
<path fill="none" stroke="midnightblue" d="M456.934,-446.899C475.15,-441.798 495.653,-436.057 514.537,-430.77"/>
<polygon fill="midnightblue" stroke="midnightblue" points="515.558,-434.118 524.244,-428.052 513.671,-427.378 515.558,-434.118"/>
</g>
<!-- Node10 -->
<g id="node10" class="node"><title>Node10</title>
<g id="a_node10"><a xlink:href="classMWRender_1_1LocalMap.html#a4f8e9e5a7b51417edeb081633c4d9def" target="_top" xlink:title="MWRender::LocalMap\l::rotatePoint">
<polygon fill="white" stroke="black" points="684.5,-398 684.5,-428 795.5,-428 795.5,-398 684.5,-398"/>
<text text-anchor="start" x="692.5" y="-416" font-family="FreeSans" font-size="10.00">MWRender::LocalMap</text>
<text text-anchor="middle" x="740" y="-405" font-family="FreeSans" font-size="10.00">::rotatePoint</text>
</a>
</g>
</g>
<!-- Node9&#45;&gt;Node10 -->
<g id="edge11" class="edge"><title>Node9&#45;&gt;Node10</title>
<path fill="none" stroke="midnightblue" d="M648.353,-413C656.85,-413 665.521,-413 673.966,-413"/>
<polygon fill="midnightblue" stroke="midnightblue" points="674.128,-416.5 684.128,-413 674.128,-409.5 674.128,-416.5"/>
</g>
<!-- Node14 -->
<g id="node14" class="node"><title>Node14</title>
<g id="a_node14"><a xlink:href="structESM_1_1Cell.html#a81fbb05c7c9f739f7d81504aabf7bb6b" target="_top" xlink:title="ESM::Cell::isExterior">
<polygon fill="white" stroke="black" points="351,-152.5 351,-171.5 453,-171.5 453,-152.5 351,-152.5"/>
<text text-anchor="middle" x="402" y="-159.5" font-family="FreeSans" font-size="10.00">ESM::Cell::isExterior</text>
</a>
</g>
</g>
<!-- Node13&#45;&gt;Node14 -->
<g id="edge17" class="edge"><title>Node13&#45;&gt;Node14</title>
<path fill="none" stroke="midnightblue" d="M275.906,-162C296.148,-162 319.593,-162 340.679,-162"/>
<polygon fill="midnightblue" stroke="midnightblue" points="340.816,-165.5 350.816,-162 340.816,-158.5 340.816,-165.5"/>
</g>
<!-- Node16 -->
<g id="node16" class="node"><title>Node16</title>
<g id="a_node16"><a xlink:href="classMisc_1_1StringUtils.html#a0759adb102842ee3bced227707eb6949" target="_top" xlink:title="Misc::StringUtils::\ltoLower">
<polygon fill="white" stroke="black" points="357,-98 357,-128 447,-128 447,-98 357,-98"/>
<text text-anchor="start" x="365" y="-116" font-family="FreeSans" font-size="10.00">Misc::StringUtils::</text>
<text text-anchor="middle" x="402" y="-105" font-family="FreeSans" font-size="10.00">toLower</text>
</a>
</g>
</g>
<!-- Node15&#45;&gt;Node16 -->
<g id="edge19" class="edge"><title>Node15&#45;&gt;Node16</title>
<path fill="none" stroke="midnightblue" d="M269.412,-113C292.951,-113 322.057,-113 346.905,-113"/>
<polygon fill="midnightblue" stroke="midnightblue" points="346.907,-116.5 356.907,-113 346.907,-109.5 346.907,-116.5"/>
</g>
</g>
</svg>
