<?xml version="1.0" encoding="UTF-8" standalone="no"?>
<!DOCTYPE svg PUBLIC "-//W3C//DTD SVG 1.1//EN"
 "http://www.w3.org/Graphics/SVG/1.1/DTD/svg11.dtd">
<!-- Generated by graphviz version 2.36.0 (20140111.2315)
 -->
<!-- Title: MWGui::ReferenceInterface::checkReferenceAvailable Pages: 1 -->
<svg width="340pt" height="153pt"
 viewBox="0.00 0.00 340.00 153.00" xmlns="http://www.w3.org/2000/svg" xmlns:xlink="http://www.w3.org/1999/xlink">
<g id="graph0" class="graph" transform="scale(1 1) rotate(0) translate(4 149)">
<title>MWGui::ReferenceInterface::checkReferenceAvailable</title>
<polygon fill="white" stroke="none" points="-4,4 -4,-149 336,-149 336,4 -4,4"/>
<!-- Node1 -->
<g id="node1" class="node"><title>Node1</title>
<polygon fill="#bfbfbf" stroke="black" points="0,-63 0,-93 144,-93 144,-63 0,-63"/>
<text text-anchor="start" x="8" y="-81" font-family="FreeSans" font-size="10.00">MWGui::ReferenceInterface</text>
<text text-anchor="middle" x="72" y="-70" font-family="FreeSans" font-size="10.00">::checkReferenceAvailable</text>
</g>
<!-- Node2 -->
<g id="node2" class="node"><title>Node2</title>
<g id="a_node2"><a xlink:href="classMWWorld_1_1Ptr.html#a0662c1165166221fd0f874e37ac24613" target="_top" xlink:title="MWWorld::Ptr::isEmpty">
<polygon fill="white" stroke="black" points="195,-125.5 195,-144.5 317,-144.5 317,-125.5 195,-125.5"/>
<text text-anchor="middle" x="256" y="-132.5" font-family="FreeSans" font-size="10.00">MWWorld::Ptr::isEmpty</text>
</a>
</g>
</g>
<!-- Node1&#45;&gt;Node2 -->
<g id="edge1" class="edge"><title>Node1&#45;&gt;Node2</title>
<path fill="none" stroke="midnightblue" d="M112.595,-93.0543C132.646,-100.424 157.458,-109.158 180,-116 187.859,-118.385 196.241,-120.715 204.45,-122.879"/>
<polygon fill="midnightblue" stroke="midnightblue" points="203.771,-126.319 214.329,-125.43 205.521,-119.541 203.771,-126.319"/>
</g>
<!-- Node3 -->
<g id="node3" class="node"><title>Node3</title>
<g id="a_node3"><a xlink:href="classMWWorld_1_1Ptr.html#aa35780406bea82e5dcff038800bd10e0" target="_top" xlink:title="MWWorld::Ptr::getRefData">
<polygon fill="white" stroke="black" points="187.5,-87.5 187.5,-106.5 324.5,-106.5 324.5,-87.5 187.5,-87.5"/>
<text text-anchor="middle" x="256" y="-94.5" font-family="FreeSans" font-size="10.00">MWWorld::Ptr::getRefData</text>
</a>
</g>
</g>
<!-- Node1&#45;&gt;Node3 -->
<g id="edge2" class="edge"><title>Node1&#45;&gt;Node3</title>
<path fill="none" stroke="midnightblue" d="M144.148,-85.4275C155.063,-86.5671 166.379,-87.7484 177.426,-88.9016"/>
<polygon fill="midnightblue" stroke="midnightblue" points="177.166,-92.3934 187.475,-89.9507 177.892,-85.4312 177.166,-92.3934"/>
</g>
<!-- Node4 -->
<g id="node4" class="node"><title>Node4</title>
<g id="a_node4"><a xlink:href="classMWWorld_1_1RefData.html#aef6884db8233415bc1a322ea531db88d" target="_top" xlink:title="MWWorld::RefData::getCount">
<polygon fill="white" stroke="black" points="180,-49.5 180,-68.5 332,-68.5 332,-49.5 180,-49.5"/>
<text text-anchor="middle" x="256" y="-56.5" font-family="FreeSans" font-size="10.00">MWWorld::RefData::getCount</text>
</a>
</g>
</g>
<!-- Node1&#45;&gt;Node4 -->
<g id="edge3" class="edge"><title>Node1&#45;&gt;Node4</title>
<path fill="none" stroke="midnightblue" d="M144.148,-70.5725C152.604,-69.6897 161.3,-68.7819 169.924,-67.8815"/>
<polygon fill="midnightblue" stroke="midnightblue" points="170.415,-71.3494 179.998,-66.8299 169.688,-64.3872 170.415,-71.3494"/>
</g>
<!-- Node5 -->
<g id="node5" class="node"><title>Node5</title>
<g id="a_node5"><a xlink:href="classMWGui_1_1ReferenceInterface.html#ab818d05cd37598c7f371ef4ef92cfd48" target="_top" xlink:title="called when reference has become unavailable ">
<polygon fill="white" stroke="black" points="184,-0 184,-30 328,-30 328,-0 184,-0"/>
<text text-anchor="start" x="192" y="-18" font-family="FreeSans" font-size="10.00">MWGui::ReferenceInterface</text>
<text text-anchor="middle" x="256" y="-7" font-family="FreeSans" font-size="10.00">::onReferenceUnavailable</text>
</a>
</g>
</g>
<!-- Node1&#45;&gt;Node5 -->
<g id="edge4" class="edge"><title>Node1&#45;&gt;Node5</title>
<path fill="none" stroke="midnightblue" d="M114.858,-62.9218C134.588,-55.8691 158.471,-47.4103 180,-40 186.365,-37.8091 193.044,-35.54 199.684,-33.3032"/>
<polygon fill="midnightblue" stroke="midnightblue" points="200.974,-36.5619 209.341,-30.0618 198.747,-29.9257 200.974,-36.5619"/>
</g>
</g>
</svg>
