<?xml version="1.0" encoding="UTF-8" standalone="no"?>
<!DOCTYPE svg PUBLIC "-//W3C//DTD SVG 1.1//EN"
 "http://www.w3.org/Graphics/SVG/1.1/DTD/svg11.dtd">
<!-- Generated by graphviz version 2.36.0 (20140111.2315)
 -->
<!-- Title: MWGui::ReviewDialog::updateSkillArea Pages: 1 -->
<svg width="1068pt" height="998pt"
 viewBox="0.00 0.00 1068.00 998.00" xmlns="http://www.w3.org/2000/svg" xmlns:xlink="http://www.w3.org/1999/xlink">
<g id="graph0" class="graph" transform="scale(1 1) rotate(0) translate(4 994)">
<title>MWGui::ReviewDialog::updateSkillArea</title>
<polygon fill="white" stroke="none" points="-4,4 -4,-994 1064,-994 1064,4 -4,4"/>
<!-- Node1 -->
<g id="node1" class="node"><title>Node1</title>
<polygon fill="#bfbfbf" stroke="black" points="0,-515 0,-545 116,-545 116,-515 0,-515"/>
<text text-anchor="start" x="8" y="-533" font-family="FreeSans" font-size="10.00">MWGui::ReviewDialog</text>
<text text-anchor="middle" x="58" y="-522" font-family="FreeSans" font-size="10.00">::updateSkillArea</text>
</g>
<!-- Node2 -->
<g id="node2" class="node"><title>Node2</title>
<g id="a_node2"><a xlink:href="classMWGui_1_1ReviewDialog.html#a68a3f6899d329a1d8be94a7709528d95" target="_top" xlink:title="MWGui::ReviewDialog\l::addSkills">
<polygon fill="white" stroke="black" points="175,-764 175,-794 291,-794 291,-764 175,-764"/>
<text text-anchor="start" x="183" y="-782" font-family="FreeSans" font-size="10.00">MWGui::ReviewDialog</text>
<text text-anchor="middle" x="233" y="-771" font-family="FreeSans" font-size="10.00">::addSkills</text>
</a>
</g>
</g>
<!-- Node1&#45;&gt;Node2 -->
<g id="edge1" class="edge"><title>Node1&#45;&gt;Node2</title>
<path fill="none" stroke="midnightblue" d="M67.6373,-545.303C83.3954,-572.896 118.301,-632.528 152,-680 171.139,-706.961 195.234,-736.225 211.954,-755.89"/>
<polygon fill="midnightblue" stroke="midnightblue" points="209.472,-758.373 218.632,-763.696 214.791,-753.822 209.472,-758.373"/>
</g>
<!-- Node3 -->
<g id="node3" class="node"><title>Node3</title>
<g id="a_node3"><a xlink:href="classMWGui_1_1ReviewDialog.html#aec7184676a49d9fda4098514c3dd7c4d" target="_top" xlink:title="MWGui::ReviewDialog\l::addSeparator">
<polygon fill="white" stroke="black" points="371,-960 371,-990 487,-990 487,-960 371,-960"/>
<text text-anchor="start" x="379" y="-978" font-family="FreeSans" font-size="10.00">MWGui::ReviewDialog</text>
<text text-anchor="middle" x="429" y="-967" font-family="FreeSans" font-size="10.00">::addSeparator</text>
</a>
</g>
</g>
<!-- Node1&#45;&gt;Node3 -->
<g id="edge51" class="edge"><title>Node1&#45;&gt;Node3</title>
<path fill="none" stroke="midnightblue" d="M58.8514,-545.087C59.1498,-596.365 66.83,-766.165 152,-864 205.514,-925.472 297.931,-953.336 360.952,-965.668"/>
<polygon fill="midnightblue" stroke="midnightblue" points="360.33,-969.112 370.804,-967.516 361.621,-962.232 360.33,-969.112"/>
</g>
<!-- Node5 -->
<g id="node5" class="node"><title>Node5</title>
<g id="a_node5"><a xlink:href="classMWGui_1_1ReviewDialog.html#adcdfaa3f62b8f89527bad852bfae9939" target="_top" xlink:title="MWGui::ReviewDialog\l::addGroup">
<polygon fill="white" stroke="black" points="371,-911 371,-941 487,-941 487,-911 371,-911"/>
<text text-anchor="start" x="379" y="-929" font-family="FreeSans" font-size="10.00">MWGui::ReviewDialog</text>
<text text-anchor="middle" x="429" y="-918" font-family="FreeSans" font-size="10.00">::addGroup</text>
</a>
</g>
</g>
<!-- Node1&#45;&gt;Node5 -->
<g id="edge52" class="edge"><title>Node1&#45;&gt;Node5</title>
<path fill="none" stroke="midnightblue" d="M60.1847,-545.295C64.423,-590.246 82.5207,-723.744 152,-803 206.491,-865.158 298.465,-897.397 361.137,-912.999"/>
<polygon fill="midnightblue" stroke="midnightblue" points="360.391,-916.42 370.933,-915.362 362.033,-909.615 360.391,-916.42"/>
</g>
<!-- Node6 -->
<g id="node6" class="node"><title>Node6</title>
<g id="a_node6"><a xlink:href="classMWBase_1_1Environment.html#a73f12633762b049c03c80fe215873faa" target="_top" xlink:title="Return instance of this class. ">
<polygon fill="white" stroke="black" points="740,-526.5 740,-545.5 886,-545.5 886,-526.5 740,-526.5"/>
<text text-anchor="middle" x="813" y="-533.5" font-family="FreeSans" font-size="10.00">MWBase::Environment::get</text>
</a>
</g>
</g>
<!-- Node1&#45;&gt;Node6 -->
<g id="edge18" class="edge"><title>Node1&#45;&gt;Node6</title>
<path fill="none" stroke="midnightblue" d="M116.196,-538.493C228.445,-553.875 485.351,-582.74 700,-560 722.246,-557.643 746.568,-552.723 766.846,-547.948"/>
<polygon fill="midnightblue" stroke="midnightblue" points="767.851,-551.306 776.748,-545.553 766.205,-544.502 767.851,-551.306"/>
</g>
<!-- Node13 -->
<g id="node13" class="node"><title>Node13</title>
<g id="a_node13"><a xlink:href="classMWBase_1_1Environment.html#ae14e166d8f5ff8629be119333d502660" target="_top" xlink:title="MWBase::Environment\l::getWorld">
<polygon fill="white" stroke="black" points="751,-417 751,-447 875,-447 875,-417 751,-417"/>
<text text-anchor="start" x="759" y="-435" font-family="FreeSans" font-size="10.00">MWBase::Environment</text>
<text text-anchor="middle" x="813" y="-424" font-family="FreeSans" font-size="10.00">::getWorld</text>
</a>
</g>
</g>
<!-- Node1&#45;&gt;Node13 -->
<g id="edge19" class="edge"><title>Node1&#45;&gt;Node13</title>
<path fill="none" stroke="midnightblue" d="M116.215,-522.554C251.842,-504.902 592.59,-460.555 741.035,-441.236"/>
<polygon fill="midnightblue" stroke="midnightblue" points="741.493,-444.706 750.958,-439.944 740.59,-437.764 741.493,-444.706"/>
</g>
<!-- Node14 -->
<g id="node14" class="node"><title>Node14</title>
<g id="a_node14"><a xlink:href="classMWBase_1_1World.html#a2ba0910cb944786065e37dc5f3fcda35" target="_top" xlink:title="MWBase::World::getStore">
<polygon fill="white" stroke="black" points="744.5,-346.5 744.5,-365.5 881.5,-365.5 881.5,-346.5 744.5,-346.5"/>
<text text-anchor="middle" x="813" y="-353.5" font-family="FreeSans" font-size="10.00">MWBase::World::getStore</text>
</a>
</g>
</g>
<!-- Node1&#45;&gt;Node14 -->
<g id="edge20" class="edge"><title>Node1&#45;&gt;Node14</title>
<path fill="none" stroke="midnightblue" d="M93.8604,-514.949C111.121,-507.899 132.41,-499.797 152,-494 265.204,-460.498 609.74,-394.12 750.8,-367.47"/>
<polygon fill="midnightblue" stroke="midnightblue" points="751.823,-370.838 761.001,-365.545 750.525,-363.96 751.823,-370.838"/>
</g>
<!-- Node15 -->
<g id="node15" class="node"><title>Node15</title>
<g id="a_node15"><a xlink:href="classMWWorld_1_1ESMStore.html#a94ffe201bd012dd41fcdabfb35c69e24" target="_top" xlink:title="MWWorld::ESMStore::get">
<polygon fill="white" stroke="black" points="746,-213.5 746,-232.5 880,-232.5 880,-213.5 746,-213.5"/>
<text text-anchor="middle" x="813" y="-220.5" font-family="FreeSans" font-size="10.00">MWWorld::ESMStore::get</text>
</a>
</g>
</g>
<!-- Node1&#45;&gt;Node15 -->
<g id="edge21" class="edge"><title>Node1&#45;&gt;Node15</title>
<path fill="none" stroke="midnightblue" d="M61.531,-514.8C69.0888,-472.957 94.6222,-353.885 152,-274 217.678,-182.559 243.74,-153.201 350,-116 497.681,-64.2985 558.773,-86.6372 700,-154 718.798,-162.967 718.629,-172.509 736,-184 750.17,-193.374 766.878,-202.168 781.014,-209.024"/>
<polygon fill="midnightblue" stroke="midnightblue" points="779.792,-212.319 790.327,-213.445 782.794,-205.995 779.792,-212.319"/>
</g>
<!-- Node16 -->
<g id="node16" class="node"><title>Node16</title>
<g id="a_node16"><a xlink:href="namespaceMWMechanics.html#ae79ddc3d38fe2c742d20d474453677b1" target="_top" xlink:title="MWMechanics::autoCalcPlayer\lSpells">
<polygon fill="white" stroke="black" points="152.5,-284 152.5,-314 313.5,-314 313.5,-284 152.5,-284"/>
<text text-anchor="start" x="160.5" y="-302" font-family="FreeSans" font-size="10.00">MWMechanics::autoCalcPlayer</text>
<text text-anchor="middle" x="233" y="-291" font-family="FreeSans" font-size="10.00">Spells</text>
</a>
</g>
</g>
<!-- Node1&#45;&gt;Node16 -->
<g id="edge22" class="edge"><title>Node1&#45;&gt;Node16</title>
<path fill="none" stroke="midnightblue" d="M69.3242,-514.867C86.2013,-490.266 120.935,-440.2 152,-399 172.262,-372.127 196.533,-342.07 212.988,-321.99"/>
<polygon fill="midnightblue" stroke="midnightblue" points="215.882,-323.982 219.527,-314.034 210.474,-319.537 215.882,-323.982"/>
</g>
<!-- Node27 -->
<g id="node27" class="node"><title>Node27</title>
<g id="a_node27"><a xlink:href="classMisc_1_1StringUtils.html#a2982264998fde90a8e01ebab4bd69e14" target="_top" xlink:title="Returns lower case copy of input string. ">
<polygon fill="white" stroke="black" points="183.5,-0 183.5,-30 282.5,-30 282.5,-0 183.5,-0"/>
<text text-anchor="start" x="191.5" y="-18" font-family="FreeSans" font-size="10.00">Misc::StringUtils::</text>
<text text-anchor="middle" x="233" y="-7" font-family="FreeSans" font-size="10.00">lowerCase</text>
</a>
</g>
</g>
<!-- Node1&#45;&gt;Node27 -->
<g id="edge48" class="edge"><title>Node1&#45;&gt;Node27</title>
<path fill="none" stroke="midnightblue" d="M59.9586,-514.631C64.879,-440.345 89.5328,-119.053 152,-45 157.97,-37.9225 165.785,-32.5129 174.191,-28.3785"/>
<polygon fill="midnightblue" stroke="midnightblue" points="175.685,-31.5457 183.484,-24.3742 172.915,-25.1171 175.685,-31.5457"/>
</g>
<!-- Node30 -->
<g id="node30" class="node"><title>Node30</title>
<g id="a_node30"><a xlink:href="classMWGui_1_1ReviewDialog.html#a5372c758364753e617236fabe851a013" target="_top" xlink:title="MWGui::ReviewDialog\l::addItem">
<polygon fill="white" stroke="black" points="175,-641 175,-671 291,-671 291,-641 175,-641"/>
<text text-anchor="start" x="183" y="-659" font-family="FreeSans" font-size="10.00">MWGui::ReviewDialog</text>
<text text-anchor="middle" x="233" y="-648" font-family="FreeSans" font-size="10.00">::addItem</text>
</a>
</g>
</g>
<!-- Node1&#45;&gt;Node30 -->
<g id="edge53" class="edge"><title>Node1&#45;&gt;Node30</title>
<path fill="none" stroke="midnightblue" d="M79.8678,-545.199C110.604,-567.585 168.162,-609.505 202.992,-634.873"/>
<polygon fill="midnightblue" stroke="midnightblue" points="201.184,-637.886 211.327,-640.944 205.305,-632.227 201.184,-637.886"/>
</g>
<!-- Node2&#45;&gt;Node3 -->
<g id="edge2" class="edge"><title>Node2&#45;&gt;Node3</title>
<path fill="none" stroke="midnightblue" d="M240.084,-794.045C254.26,-827.223 292.701,-907.119 350,-950 353.62,-952.709 357.544,-955.131 361.641,-957.295"/>
<polygon fill="midnightblue" stroke="midnightblue" points="360.297,-960.531 370.835,-961.633 363.284,-954.2 360.297,-960.531"/>
</g>
<!-- Node2&#45;&gt;Node5 -->
<g id="edge4" class="edge"><title>Node2&#45;&gt;Node5</title>
<path fill="none" stroke="midnightblue" d="M249.611,-794.265C265.938,-810.356 292.177,-836.569 314,-860 330.527,-877.745 329.719,-887.706 350,-901 353.713,-903.434 357.68,-905.646 361.785,-907.654"/>
<polygon fill="midnightblue" stroke="midnightblue" points="360.384,-910.861 370.943,-911.731 363.231,-904.466 360.384,-910.861"/>
</g>
<!-- Node2&#45;&gt;Node6 -->
<g id="edge6" class="edge"><title>Node2&#45;&gt;Node6</title>
<path fill="none" stroke="midnightblue" d="M291.316,-766.87C411.957,-741.198 682.482,-682.832 700,-672 748.149,-642.228 785.218,-584.421 802.061,-554.676"/>
<polygon fill="midnightblue" stroke="midnightblue" points="805.222,-556.192 806.985,-545.745 799.092,-552.813 805.222,-556.192"/>
</g>
<!-- Node7 -->
<g id="node7" class="node"><title>Node7</title>
<g id="a_node7"><a xlink:href="classMWMechanics_1_1AttributeValue.html#aaf2aaa6848d18ab931777fb9096e0d45" target="_top" xlink:title="MWMechanics::AttributeValue\l::getBase">
<polygon fill="white" stroke="black" points="350,-813 350,-843 508,-843 508,-813 350,-813"/>
<text text-anchor="start" x="358" y="-831" font-family="FreeSans" font-size="10.00">MWMechanics::AttributeValue</text>
<text text-anchor="middle" x="429" y="-820" font-family="FreeSans" font-size="10.00">::getBase</text>
</a>
</g>
</g>
<!-- Node2&#45;&gt;Node7 -->
<g id="edge7" class="edge"><title>Node2&#45;&gt;Node7</title>
<path fill="none" stroke="midnightblue" d="M291.157,-793.437C312.287,-798.773 336.469,-804.881 358.569,-810.463"/>
<polygon fill="midnightblue" stroke="midnightblue" points="358.005,-813.931 368.558,-812.986 359.719,-807.144 358.005,-813.931"/>
</g>
<!-- Node8 -->
<g id="node8" class="node"><title>Node8</title>
<g id="a_node8"><a xlink:href="classMWMechanics_1_1AttributeValue.html#a3e84af12530d0e2cf3a45b25fa9b4fc8" target="_top" xlink:title="MWMechanics::AttributeValue\l::getModified">
<polygon fill="white" stroke="black" points="350,-764 350,-794 508,-794 508,-764 350,-764"/>
<text text-anchor="start" x="358" y="-782" font-family="FreeSans" font-size="10.00">MWMechanics::AttributeValue</text>
<text text-anchor="middle" x="429" y="-771" font-family="FreeSans" font-size="10.00">::getModified</text>
</a>
</g>
</g>
<!-- Node2&#45;&gt;Node8 -->
<g id="edge8" class="edge"><title>Node2&#45;&gt;Node8</title>
<path fill="none" stroke="midnightblue" d="M291.157,-779C306.337,-779 323.092,-779 339.518,-779"/>
<polygon fill="midnightblue" stroke="midnightblue" points="339.687,-782.5 349.687,-779 339.687,-775.5 339.687,-782.5"/>
</g>
<!-- Node9 -->
<g id="node9" class="node"><title>Node9</title>
<g id="a_node9"><a xlink:href="classMWGui_1_1ReviewDialog.html#a06e58fc2e66c4667e47c0495473bebbd" target="_top" xlink:title="MWGui::ReviewDialog\l::addValueItem">
<polygon fill="white" stroke="black" points="371,-862 371,-892 487,-892 487,-862 371,-862"/>
<text text-anchor="start" x="379" y="-880" font-family="FreeSans" font-size="10.00">MWGui::ReviewDialog</text>
<text text-anchor="middle" x="429" y="-869" font-family="FreeSans" font-size="10.00">::addValueItem</text>
</a>
</g>
</g>
<!-- Node2&#45;&gt;Node9 -->
<g id="edge9" class="edge"><title>Node2&#45;&gt;Node9</title>
<path fill="none" stroke="midnightblue" d="M254.471,-794.123C276.969,-810.197 314.626,-835.522 350,-852 354.914,-854.289 360.095,-856.451 365.354,-858.473"/>
<polygon fill="midnightblue" stroke="midnightblue" points="364.269,-861.803 374.862,-861.957 366.677,-855.23 364.269,-861.803"/>
</g>
<!-- Node10 -->
<g id="node10" class="node"><title>Node10</title>
<g id="a_node10"><a xlink:href="namespaceanonymous__namespace_02character_8cpp_03.html#a551df780ef62c57fe81b128fa596488c" target="_top" xlink:title="anonymous_namespace\l\{character::cpp\}::toString">
<polygon fill="white" stroke="black" points="358,-638 358,-668 500,-668 500,-638 358,-638"/>
<text text-anchor="start" x="366" y="-656" font-family="FreeSans" font-size="10.00">anonymous_namespace</text>
<text text-anchor="middle" x="429" y="-645" font-family="FreeSans" font-size="10.00">{character::cpp}::toString</text>
</a>
</g>
</g>
<!-- Node2&#45;&gt;Node10 -->
<g id="edge11" class="edge"><title>Node2&#45;&gt;Node10</title>
<path fill="none" stroke="midnightblue" d="M257.401,-763.801C292.014,-741.321 356.96,-699.139 395.966,-673.806"/>
<polygon fill="midnightblue" stroke="midnightblue" points="398.338,-676.438 404.818,-668.056 394.525,-670.568 398.338,-676.438"/>
</g>
<!-- Node12 -->
<g id="node12" class="node"><title>Node12</title>
<g id="a_node12"><a xlink:href="classMWGui_1_1ToolTips.html#a564d981fa5df861609a6eb5e11dcb281" target="_top" xlink:title="MWGui::ToolTips::createSkill\lToolTip">
<polygon fill="white" stroke="black" points="548.5,-499 548.5,-529 695.5,-529 695.5,-499 548.5,-499"/>
<text text-anchor="start" x="556.5" y="-517" font-family="FreeSans" font-size="10.00">MWGui::ToolTips::createSkill</text>
<text text-anchor="middle" x="622" y="-506" font-family="FreeSans" font-size="10.00">ToolTip</text>
</a>
</g>
</g>
<!-- Node2&#45;&gt;Node12 -->
<g id="edge13" class="edge"><title>Node2&#45;&gt;Node12</title>
<path fill="none" stroke="midnightblue" d="M246.83,-763.846C262.939,-744.658 291.223,-710.427 314,-680 330.845,-657.497 328.174,-645.712 350,-628 409.103,-580.037 491.305,-549.27 549.641,-531.939"/>
<polygon fill="midnightblue" stroke="midnightblue" points="550.893,-535.22 559.516,-529.066 548.937,-528.499 550.893,-535.22"/>
</g>
<!-- Node4 -->
<g id="node4" class="node"><title>Node4</title>
<g id="a_node4"><a xlink:href="classMWGui_1_1ReviewDialog.html#af4ea256f204882eee6243b0674c73ca5" target="_top" xlink:title="MWGui::ReviewDialog\l::onMouseWheel">
<polygon fill="white" stroke="black" points="564,-886 564,-916 680,-916 680,-886 564,-886"/>
<text text-anchor="start" x="572" y="-904" font-family="FreeSans" font-size="10.00">MWGui::ReviewDialog</text>
<text text-anchor="middle" x="622" y="-893" font-family="FreeSans" font-size="10.00">::onMouseWheel</text>
</a>
</g>
</g>
<!-- Node3&#45;&gt;Node4 -->
<g id="edge3" class="edge"><title>Node3&#45;&gt;Node4</title>
<path fill="none" stroke="midnightblue" d="M479.354,-959.998C488.916,-956.861 498.816,-953.453 508,-950 531.952,-940.994 558.204,-929.7 579.371,-920.225"/>
<polygon fill="midnightblue" stroke="midnightblue" points="581.034,-923.315 588.713,-916.015 578.158,-916.933 581.034,-923.315"/>
</g>
<!-- Node5&#45;&gt;Node4 -->
<g id="edge5" class="edge"><title>Node5&#45;&gt;Node4</title>
<path fill="none" stroke="midnightblue" d="M487.048,-918.533C508.02,-915.788 531.961,-912.654 553.748,-909.803"/>
<polygon fill="midnightblue" stroke="midnightblue" points="554.455,-913.24 563.917,-908.472 553.547,-906.299 554.455,-913.24"/>
</g>
<!-- Node9&#45;&gt;Node4 -->
<g id="edge10" class="edge"><title>Node9&#45;&gt;Node4</title>
<path fill="none" stroke="midnightblue" d="M487.048,-884.168C508.02,-886.803 531.961,-889.812 553.748,-892.549"/>
<polygon fill="midnightblue" stroke="midnightblue" points="553.558,-896.053 563.917,-893.827 554.431,-889.108 553.558,-896.053"/>
</g>
<!-- Node11 -->
<g id="node11" class="node"><title>Node11</title>
<g id="a_node11"><a xlink:href="gen__iconv_8cpp.html#a47a14d9c2f599fa2591017202978774d" target="_top" xlink:title="num">
<polygon fill="white" stroke="black" points="603,-643.5 603,-662.5 641,-662.5 641,-643.5 603,-643.5"/>
<text text-anchor="middle" x="622" y="-650.5" font-family="FreeSans" font-size="10.00">num</text>
</a>
</g>
</g>
<!-- Node10&#45;&gt;Node11 -->
<g id="edge12" class="edge"><title>Node10&#45;&gt;Node11</title>
<path fill="none" stroke="midnightblue" d="M500.037,-653C531.982,-653 568.028,-653 592.397,-653"/>
<polygon fill="midnightblue" stroke="midnightblue" points="592.716,-656.5 602.716,-653 592.716,-649.5 592.716,-656.5"/>
</g>
<!-- Node12&#45;&gt;Node6 -->
<g id="edge14" class="edge"><title>Node12&#45;&gt;Node6</title>
<path fill="none" stroke="midnightblue" d="M695.532,-522.443C706.804,-523.755 718.517,-525.118 729.981,-526.453"/>
<polygon fill="midnightblue" stroke="midnightblue" points="729.637,-529.936 739.974,-527.616 730.446,-522.983 729.637,-529.936"/>
</g>
<!-- Node12&#45;&gt;Node13 -->
<g id="edge15" class="edge"><title>Node12&#45;&gt;Node13</title>
<path fill="none" stroke="midnightblue" d="M663.159,-498.906C675.08,-494.277 688.123,-489.065 700,-484 724.049,-473.744 750.602,-461.459 771.816,-451.406"/>
<polygon fill="midnightblue" stroke="midnightblue" points="773.332,-454.56 780.857,-447.103 770.324,-448.239 773.332,-454.56"/>
</g>
<!-- Node12&#45;&gt;Node14 -->
<g id="edge16" class="edge"><title>Node12&#45;&gt;Node14</title>
<path fill="none" stroke="midnightblue" d="M637.269,-498.981C658.033,-477.483 698.231,-437.205 736,-407 752.34,-393.932 771.977,-380.815 787.197,-371.157"/>
<polygon fill="midnightblue" stroke="midnightblue" points="789.417,-373.896 796.033,-365.621 785.701,-367.964 789.417,-373.896"/>
</g>
<!-- Node12&#45;&gt;Node15 -->
<g id="edge17" class="edge"><title>Node12&#45;&gt;Node15</title>
<path fill="none" stroke="midnightblue" d="M632.701,-498.618C648.294,-473.461 679.279,-421.64 700,-375 720.03,-329.916 705.225,-308.557 736,-270 747.3,-255.842 764.103,-244.822 779.038,-237.022"/>
<polygon fill="midnightblue" stroke="midnightblue" points="780.613,-240.148 788.03,-232.582 777.514,-233.871 780.613,-240.148"/>
</g>
<!-- Node16&#45;&gt;Node6 -->
<g id="edge23" class="edge"><title>Node16&#45;&gt;Node6</title>
<path fill="none" stroke="midnightblue" d="M246.09,-314.105C283.946,-359.943 405.939,-496.829 544,-538 611.476,-558.122 692.828,-553.756 748.071,-546.821"/>
<polygon fill="midnightblue" stroke="midnightblue" points="748.617,-550.279 758.073,-545.502 747.701,-543.34 748.617,-550.279"/>
</g>
<!-- Node16&#45;&gt;Node13 -->
<g id="edge24" class="edge"><title>Node16&#45;&gt;Node13</title>
<path fill="none" stroke="midnightblue" d="M251.005,-314.313C272.406,-332.613 311.092,-362.566 350,-377 481.756,-425.877 647.808,-433.723 740.687,-433.732"/>
<polygon fill="midnightblue" stroke="midnightblue" points="740.829,-437.232 750.819,-433.702 740.808,-430.232 740.829,-437.232"/>
</g>
<!-- Node16&#45;&gt;Node14 -->
<g id="edge25" class="edge"><title>Node16&#45;&gt;Node14</title>
<path fill="none" stroke="midnightblue" d="M313.84,-302.98C406.861,-308.203 565.044,-318.898 700,-337 716.43,-339.204 734.146,-342.009 750.531,-344.783"/>
<polygon fill="midnightblue" stroke="midnightblue" points="750.089,-348.258 760.537,-346.5 751.273,-341.359 750.089,-348.258"/>
</g>
<!-- Node16&#45;&gt;Node15 -->
<g id="edge26" class="edge"><title>Node16&#45;&gt;Node15</title>
<path fill="none" stroke="midnightblue" d="M309.057,-283.958C322.654,-281.464 336.728,-279.031 350,-277 485.223,-256.301 643.783,-239.351 735.585,-230.252"/>
<polygon fill="midnightblue" stroke="midnightblue" points="736.015,-233.726 745.623,-229.262 735.328,-226.76 736.015,-233.726"/>
</g>
<!-- Node17 -->
<g id="node17" class="node"><title>Node17</title>
<g id="a_node17"><a xlink:href="structESM_1_1GameSetting.html#adf86d0e6166ce3e4ec8a75ab31380344" target="_top" xlink:title="Throws an exception if GMST is not of type int or float. ">
<polygon fill="white" stroke="black" points="737,-68.5 737,-87.5 889,-87.5 889,-68.5 737,-68.5"/>
<text text-anchor="middle" x="813" y="-75.5" font-family="FreeSans" font-size="10.00">ESM::GameSetting::getFloat</text>
</a>
</g>
</g>
<!-- Node16&#45;&gt;Node17 -->
<g id="edge27" class="edge"><title>Node16&#45;&gt;Node17</title>
<path fill="none" stroke="midnightblue" d="M238.456,-283.798C250.005,-247.433 284.661,-155.518 350,-116 476.113,-39.7249 658.222,-53.133 751.672,-66.945"/>
<polygon fill="midnightblue" stroke="midnightblue" points="751.386,-70.4419 761.8,-68.4954 752.445,-63.5225 751.386,-70.4419"/>
</g>
<!-- Node19 -->
<g id="node19" class="node"><title>Node19</title>
<g id="a_node19"><a xlink:href="classMWWorld_1_1Store.html#a83317619858aa87c8c8d72e644139b16" target="_top" xlink:title="MWWorld::Store::begin">
<polygon fill="white" stroke="black" points="367.5,-327.5 367.5,-346.5 490.5,-346.5 490.5,-327.5 367.5,-327.5"/>
<text text-anchor="middle" x="429" y="-334.5" font-family="FreeSans" font-size="10.00">MWWorld::Store::begin</text>
</a>
</g>
</g>
<!-- Node16&#45;&gt;Node19 -->
<g id="edge29" class="edge"><title>Node16&#45;&gt;Node19</title>
<path fill="none" stroke="midnightblue" d="M310.674,-314.019C330.244,-317.852 350.97,-321.912 369.469,-325.535"/>
<polygon fill="midnightblue" stroke="midnightblue" points="369.009,-329.011 379.495,-327.499 370.355,-322.142 369.009,-329.011"/>
</g>
<!-- Node20 -->
<g id="node20" class="node"><title>Node20</title>
<g id="a_node20"><a xlink:href="classMWWorld_1_1Store.html#a8fba716aeb5a3f41111c2c515ba6e15c" target="_top" xlink:title="MWWorld::Store::end">
<polygon fill="white" stroke="black" points="371.5,-175.5 371.5,-194.5 486.5,-194.5 486.5,-175.5 371.5,-175.5"/>
<text text-anchor="middle" x="429" y="-182.5" font-family="FreeSans" font-size="10.00">MWWorld::Store::end</text>
</a>
</g>
</g>
<!-- Node16&#45;&gt;Node20 -->
<g id="edge30" class="edge"><title>Node16&#45;&gt;Node20</title>
<path fill="none" stroke="midnightblue" d="M249.602,-283.848C270.745,-264.071 310.417,-229.566 350,-209 358.585,-204.54 368.139,-200.751 377.535,-197.594"/>
<polygon fill="midnightblue" stroke="midnightblue" points="378.743,-200.883 387.222,-194.53 376.632,-194.209 378.743,-200.883"/>
</g>
<!-- Node21 -->
<g id="node21" class="node"><title>Node21</title>
<g id="a_node21"><a xlink:href="namespaceMWMechanics.html#a4fe9c5fbccf00ac4b5849a4fe8cb081f" target="_top" xlink:title="MWMechanics::calcAutoCast\lChance">
<polygon fill="white" stroke="black" points="353,-126 353,-156 505,-156 505,-126 353,-126"/>
<text text-anchor="start" x="361" y="-144" font-family="FreeSans" font-size="10.00">MWMechanics::calcAutoCast</text>
<text text-anchor="middle" x="429" y="-133" font-family="FreeSans" font-size="10.00">Chance</text>
</a>
</g>
</g>
<!-- Node16&#45;&gt;Node21 -->
<g id="edge31" class="edge"><title>Node16&#45;&gt;Node21</title>
<path fill="none" stroke="midnightblue" d="M243.182,-283.851C260.601,-256.367 301.11,-198.162 350,-166 353.093,-163.966 356.363,-162.086 359.742,-160.352"/>
<polygon fill="midnightblue" stroke="midnightblue" points="361.308,-163.484 368.897,-156.092 358.354,-157.138 361.308,-163.484"/>
</g>
<!-- Node24 -->
<g id="node24" class="node"><title>Node24</title>
<g id="a_node24"><a xlink:href="namespaceMWMechanics.html#a05437852c9a78ac5a888679482949fda" target="_top" xlink:title="MWMechanics::attrSkillCheck">
<polygon fill="white" stroke="black" points="544.5,-346.5 544.5,-365.5 699.5,-365.5 699.5,-346.5 544.5,-346.5"/>
<text text-anchor="middle" x="622" y="-353.5" font-family="FreeSans" font-size="10.00">MWMechanics::attrSkillCheck</text>
</a>
</g>
</g>
<!-- Node16&#45;&gt;Node24 -->
<g id="edge40" class="edge"><title>Node16&#45;&gt;Node24</title>
<path fill="none" stroke="midnightblue" d="M256.801,-314.135C279.374,-328.143 315.467,-347.974 350,-356 410.381,-370.034 480.395,-369.622 534.132,-365.916"/>
<polygon fill="midnightblue" stroke="midnightblue" points="534.598,-369.391 544.312,-365.162 534.08,-362.411 534.598,-369.391"/>
</g>
<!-- Node25 -->
<g id="node25" class="node"><title>Node25</title>
<g id="a_node25"><a xlink:href="structESM_1_1GameSetting.html#a1fcd19eb4d50405ecf1e9b4920a48f9d" target="_top" xlink:title="Throws an exception if GMST is not of type int or float. ">
<polygon fill="white" stroke="black" points="742.5,-279.5 742.5,-298.5 883.5,-298.5 883.5,-279.5 742.5,-279.5"/>
<text text-anchor="middle" x="813" y="-286.5" font-family="FreeSans" font-size="10.00">ESM::GameSetting::getInt</text>
</a>
</g>
</g>
<!-- Node16&#45;&gt;Node25 -->
<g id="edge47" class="edge"><title>Node16&#45;&gt;Node25</title>
<path fill="none" stroke="midnightblue" d="M313.759,-288.097C325.879,-286.811 338.256,-285.706 350,-285 483.896,-276.949 640.008,-281.124 732.173,-284.987"/>
<polygon fill="midnightblue" stroke="midnightblue" points="732.123,-288.488 742.263,-285.419 732.423,-281.494 732.123,-288.488"/>
</g>
<!-- Node18 -->
<g id="node18" class="node"><title>Node18</title>
<g id="a_node18"><a xlink:href="classESM_1_1Variant.html#aea165a94a08dac002c27cdf5784fabc7" target="_top" xlink:title="Will throw an exception, if value can not be represented as a float value. ">
<polygon fill="white" stroke="black" points="932,-68.5 932,-87.5 1054,-87.5 1054,-68.5 932,-68.5"/>
<text text-anchor="middle" x="993" y="-75.5" font-family="FreeSans" font-size="10.00">ESM::Variant::getFloat</text>
</a>
</g>
</g>
<!-- Node17&#45;&gt;Node18 -->
<g id="edge28" class="edge"><title>Node17&#45;&gt;Node18</title>
<path fill="none" stroke="midnightblue" d="M889.23,-78C900.016,-78 911.078,-78 921.762,-78"/>
<polygon fill="midnightblue" stroke="midnightblue" points="921.868,-81.5001 931.868,-78 921.868,-74.5001 921.868,-81.5001"/>
</g>
<!-- Node22 -->
<g id="node22" class="node"><title>Node22</title>
<g id="a_node22"><a xlink:href="namespaceMWMechanics.html#a01d0a31bcf3b605561aa7c94a101f53f" target="_top" xlink:title="MWMechanics::mapSchoolTo\lSkill">
<polygon fill="white" stroke="black" points="736.5,-145 736.5,-175 889.5,-175 889.5,-145 736.5,-145"/>
<text text-anchor="start" x="744.5" y="-163" font-family="FreeSans" font-size="10.00">MWMechanics::mapSchoolTo</text>
<text text-anchor="middle" x="813" y="-152" font-family="FreeSans" font-size="10.00">Skill</text>
</a>
</g>
</g>
<!-- Node21&#45;&gt;Node22 -->
<g id="edge32" class="edge"><title>Node21&#45;&gt;Node22</title>
<path fill="none" stroke="midnightblue" d="M505.075,-144.506C559.253,-147.062 634.149,-150.651 700,-154 708.548,-154.435 717.463,-154.897 726.367,-155.365"/>
<polygon fill="midnightblue" stroke="midnightblue" points="726.224,-158.862 736.394,-155.894 726.592,-151.872 726.224,-158.862"/>
</g>
<!-- Node23 -->
<g id="node23" class="node"><title>Node23</title>
<g id="a_node23"><a xlink:href="namespaceMWMechanics.html#af9e0e9ced11cda413421b0d7362ffa52" target="_top" xlink:title="MWMechanics::calcWeakest\lSchool">
<polygon fill="white" stroke="black" points="548,-164 548,-194 696,-194 696,-164 548,-164"/>
<text text-anchor="start" x="556" y="-182" font-family="FreeSans" font-size="10.00">MWMechanics::calcWeakest</text>
<text text-anchor="middle" x="622" y="-171" font-family="FreeSans" font-size="10.00">School</text>
</a>
</g>
</g>
<!-- Node21&#45;&gt;Node23 -->
<g id="edge33" class="edge"><title>Node21&#45;&gt;Node23</title>
<path fill="none" stroke="midnightblue" d="M505.214,-155.964C515.924,-158.095 526.991,-160.297 537.842,-162.455"/>
<polygon fill="midnightblue" stroke="midnightblue" points="537.239,-165.904 547.729,-164.423 538.605,-159.039 537.239,-165.904"/>
</g>
<!-- Node23&#45;&gt;Node6 -->
<g id="edge34" class="edge"><title>Node23&#45;&gt;Node6</title>
<path fill="none" stroke="midnightblue" d="M631.495,-194.327C646.674,-222.135 678.839,-283.022 700,-337 720.168,-388.444 708.221,-408.235 736,-456 750.732,-481.332 774.994,-504.954 792.137,-519.865"/>
<polygon fill="midnightblue" stroke="midnightblue" points="790.017,-522.657 799.908,-526.455 794.544,-517.318 790.017,-522.657"/>
</g>
<!-- Node23&#45;&gt;Node13 -->
<g id="edge35" class="edge"><title>Node23&#45;&gt;Node13</title>
<path fill="none" stroke="midnightblue" d="M629.156,-194.072C643.84,-228.783 683.638,-315.914 736,-375 748.139,-388.697 764.034,-401.23 778.148,-411.034"/>
<polygon fill="midnightblue" stroke="midnightblue" points="776.409,-414.083 786.657,-416.772 780.323,-408.279 776.409,-414.083"/>
</g>
<!-- Node23&#45;&gt;Node14 -->
<g id="edge36" class="edge"><title>Node23&#45;&gt;Node14</title>
<path fill="none" stroke="midnightblue" d="M633.979,-194.177C652.893,-219.664 693.682,-271.82 736,-308 751.029,-320.849 769.798,-332.737 784.924,-341.468"/>
<polygon fill="midnightblue" stroke="midnightblue" points="783.375,-344.613 793.805,-346.477 786.814,-338.516 783.375,-344.613"/>
</g>
<!-- Node23&#45;&gt;Node15 -->
<g id="edge37" class="edge"><title>Node23&#45;&gt;Node15</title>
<path fill="none" stroke="midnightblue" d="M687.514,-194.019C711.641,-199.636 738.676,-205.93 761.373,-211.214"/>
<polygon fill="midnightblue" stroke="midnightblue" points="760.607,-214.629 771.14,-213.488 762.194,-207.811 760.607,-214.629"/>
</g>
<!-- Node23&#45;&gt;Node17 -->
<g id="edge38" class="edge"><title>Node23&#45;&gt;Node17</title>
<path fill="none" stroke="midnightblue" d="M651.295,-163.879C687.5,-144.532 749.76,-111.26 785.22,-92.3108"/>
<polygon fill="midnightblue" stroke="midnightblue" points="786.877,-95.394 794.047,-87.594 783.578,-89.2203 786.877,-95.394"/>
</g>
<!-- Node23&#45;&gt;Node22 -->
<g id="edge39" class="edge"><title>Node23&#45;&gt;Node22</title>
<path fill="none" stroke="midnightblue" d="M696.072,-171.654C705.967,-170.659 716.192,-169.632 726.282,-168.617"/>
<polygon fill="midnightblue" stroke="midnightblue" points="726.71,-172.092 736.31,-167.609 726.01,-165.127 726.71,-172.092"/>
</g>
<!-- Node24&#45;&gt;Node6 -->
<g id="edge41" class="edge"><title>Node24&#45;&gt;Node6</title>
<path fill="none" stroke="midnightblue" d="M633.161,-365.678C663.799,-394.856 755.54,-482.229 794.351,-519.191"/>
<polygon fill="midnightblue" stroke="midnightblue" points="792.133,-521.912 801.788,-526.275 796.961,-516.843 792.133,-521.912"/>
</g>
<!-- Node24&#45;&gt;Node13 -->
<g id="edge42" class="edge"><title>Node24&#45;&gt;Node13</title>
<path fill="none" stroke="midnightblue" d="M646.937,-365.625C676.48,-377.505 727.4,-397.981 764.892,-413.057"/>
<polygon fill="midnightblue" stroke="midnightblue" points="764.012,-416.476 774.596,-416.959 766.624,-409.981 764.012,-416.476"/>
</g>
<!-- Node24&#45;&gt;Node14 -->
<g id="edge43" class="edge"><title>Node24&#45;&gt;Node14</title>
<path fill="none" stroke="midnightblue" d="M699.601,-356C710.961,-356 722.679,-356 734.065,-356"/>
<polygon fill="midnightblue" stroke="midnightblue" points="734.409,-359.5 744.409,-356 734.409,-352.5 734.409,-359.5"/>
</g>
<!-- Node24&#45;&gt;Node15 -->
<g id="edge44" class="edge"><title>Node24&#45;&gt;Node15</title>
<path fill="none" stroke="midnightblue" d="M634.922,-346.316C655.225,-329.966 698.008,-296.115 736,-270 752.516,-258.647 771.717,-246.784 786.687,-237.816"/>
<polygon fill="midnightblue" stroke="midnightblue" points="788.592,-240.755 795.4,-232.637 785.015,-234.738 788.592,-240.755"/>
</g>
<!-- Node24&#45;&gt;Node25 -->
<g id="edge45" class="edge"><title>Node24&#45;&gt;Node25</title>
<path fill="none" stroke="midnightblue" d="M650.079,-346.401C682.92,-334.758 738.43,-315.081 775.148,-302.064"/>
<polygon fill="midnightblue" stroke="midnightblue" points="776.715,-305.222 784.971,-298.582 774.376,-298.624 776.715,-305.222"/>
</g>
<!-- Node26 -->
<g id="node26" class="node"><title>Node26</title>
<g id="a_node26"><a xlink:href="classESM_1_1Variant.html#aad77cad9a160b176ea71e09ecf2c55a5" target="_top" xlink:title="ESM::Variant::getInteger">
<polygon fill="white" stroke="black" points="926.5,-279.5 926.5,-298.5 1059.5,-298.5 1059.5,-279.5 926.5,-279.5"/>
<text text-anchor="middle" x="993" y="-286.5" font-family="FreeSans" font-size="10.00">ESM::Variant::getInteger</text>
</a>
</g>
</g>
<!-- Node25&#45;&gt;Node26 -->
<g id="edge46" class="edge"><title>Node25&#45;&gt;Node26</title>
<path fill="none" stroke="midnightblue" d="M883.584,-289C894.225,-289 905.254,-289 916.024,-289"/>
<polygon fill="midnightblue" stroke="midnightblue" points="916.249,-292.5 926.249,-289 916.249,-285.5 916.249,-292.5"/>
</g>
<!-- Node28 -->
<g id="node28" class="node"><title>Node28</title>
<g id="a_node28"><a xlink:href="classMisc_1_1StringUtils.html#a249dcf40e5ef16618daf8bf5d2098c54" target="_top" xlink:title="Transforms input string to lower case w/o copy. ">
<polygon fill="white" stroke="black" points="379.5,-0 379.5,-30 478.5,-30 478.5,-0 379.5,-0"/>
<text text-anchor="start" x="387.5" y="-18" font-family="FreeSans" font-size="10.00">Misc::StringUtils::</text>
<text text-anchor="middle" x="429" y="-7" font-family="FreeSans" font-size="10.00">lowerCaseInPlace</text>
</a>
</g>
</g>
<!-- Node27&#45;&gt;Node28 -->
<g id="edge49" class="edge"><title>Node27&#45;&gt;Node28</title>
<path fill="none" stroke="midnightblue" d="M282.954,-15C309.131,-15 341.554,-15 369.102,-15"/>
<polygon fill="midnightblue" stroke="midnightblue" points="369.398,-18.5001 379.398,-15 369.398,-11.5001 369.398,-18.5001"/>
</g>
<!-- Node29 -->
<g id="node29" class="node"><title>Node29</title>
<g id="a_node29"><a xlink:href="classMisc_1_1StringUtils.html#a0759adb102842ee3bced227707eb6949" target="_top" xlink:title="Misc::StringUtils::\ltoLower">
<polygon fill="white" stroke="black" points="572.5,-0 572.5,-30 671.5,-30 671.5,-0 572.5,-0"/>
<text text-anchor="start" x="580.5" y="-18" font-family="FreeSans" font-size="10.00">Misc::StringUtils::</text>
<text text-anchor="middle" x="622" y="-7" font-family="FreeSans" font-size="10.00">toLower</text>
</a>
</g>
</g>
<!-- Node28&#45;&gt;Node29 -->
<g id="edge50" class="edge"><title>Node28&#45;&gt;Node29</title>
<path fill="none" stroke="midnightblue" d="M478.692,-15C504.173,-15 535.56,-15 562.369,-15"/>
<polygon fill="midnightblue" stroke="midnightblue" points="562.397,-18.5001 572.397,-15 562.397,-11.5001 562.397,-18.5001"/>
</g>
<!-- Node30&#45;&gt;Node4 -->
<g id="edge54" class="edge"><title>Node30&#45;&gt;Node4</title>
<path fill="none" stroke="midnightblue" d="M291.179,-666.792C349.918,-680.015 441.866,-706.839 508,-755 553.553,-788.173 589.834,-844.643 608.093,-876.764"/>
<polygon fill="midnightblue" stroke="midnightblue" points="605.253,-878.859 613.171,-885.898 611.371,-875.458 605.253,-878.859"/>
</g>
</g>
</svg>
