<?xml version="1.0" encoding="UTF-8" standalone="no"?>
<!DOCTYPE svg PUBLIC "-//W3C//DTD SVG 1.1//EN"
 "http://www.w3.org/Graphics/SVG/1.1/DTD/svg11.dtd">
<!-- Generated by graphviz version 2.36.0 (20140111.2315)
 -->
<!-- Title: MWGui::CharacterCreation::onPickClassDialogDone Pages: 1 -->
<svg width="906pt" height="633pt"
 viewBox="0.00 0.00 906.00 633.00" xmlns="http://www.w3.org/2000/svg" xmlns:xlink="http://www.w3.org/1999/xlink">
<g id="graph0" class="graph" transform="scale(1 1) rotate(0) translate(4 629)">
<title>MWGui::CharacterCreation::onPickClassDialogDone</title>
<polygon fill="white" stroke="none" points="-4,4 -4,-629 902,-629 902,4 -4,4"/>
<!-- Node1 -->
<g id="node1" class="node"><title>Node1</title>
<polygon fill="#bfbfbf" stroke="black" points="0.5,-395 0.5,-425 143.5,-425 143.5,-395 0.5,-395"/>
<text text-anchor="start" x="8.5" y="-413" font-family="FreeSans" font-size="10.00">MWGui::CharacterCreation</text>
<text text-anchor="middle" x="72" y="-402" font-family="FreeSans" font-size="10.00">::onPickClassDialogDone</text>
</g>
<!-- Node2 -->
<g id="node2" class="node"><title>Node2</title>
<g id="a_node2"><a xlink:href="classMWGui_1_1CharacterCreation.html#a430d3772ecc70e5116d38b653039d716" target="_top" xlink:title="MWGui::CharacterCreation\l::selectPickedClass">
<polygon fill="white" stroke="black" points="180.5,-267 180.5,-297 323.5,-297 323.5,-267 180.5,-267"/>
<text text-anchor="start" x="188.5" y="-285" font-family="FreeSans" font-size="10.00">MWGui::CharacterCreation</text>
<text text-anchor="middle" x="252" y="-274" font-family="FreeSans" font-size="10.00">::selectPickedClass</text>
</a>
</g>
</g>
<!-- Node1&#45;&gt;Node2 -->
<g id="edge1" class="edge"><title>Node1&#45;&gt;Node2</title>
<path fill="none" stroke="midnightblue" d="M94.1179,-394.814C125.833,-372.008 185.863,-328.84 221.767,-303.022"/>
<polygon fill="midnightblue" stroke="midnightblue" points="223.834,-305.846 229.91,-297.166 219.747,-300.163 223.834,-305.846"/>
</g>
<!-- Node19 -->
<g id="node19" class="node"><title>Node19</title>
<g id="a_node19"><a xlink:href="classMWGui_1_1CharacterCreation.html#a1985918d92a8fae2fc933e2e1e394729" target="_top" xlink:title="MWGui::CharacterCreation\l::handleDialogDone">
<polygon fill="white" stroke="black" points="180.5,-502 180.5,-532 323.5,-532 323.5,-502 180.5,-502"/>
<text text-anchor="start" x="188.5" y="-520" font-family="FreeSans" font-size="10.00">MWGui::CharacterCreation</text>
<text text-anchor="middle" x="252" y="-509" font-family="FreeSans" font-size="10.00">::handleDialogDone</text>
</a>
</g>
</g>
<!-- Node1&#45;&gt;Node19 -->
<g id="edge20" class="edge"><title>Node1&#45;&gt;Node19</title>
<path fill="none" stroke="midnightblue" d="M98.1255,-425.104C129.267,-443.823 182.461,-475.799 217.169,-496.664"/>
<polygon fill="midnightblue" stroke="midnightblue" points="215.628,-499.821 226.002,-501.973 219.235,-493.821 215.628,-499.821"/>
</g>
<!-- Node3 -->
<g id="node3" class="node"><title>Node3</title>
<g id="a_node3"><a xlink:href="classMWGui_1_1PickClassDialog.html#a9410a164482174e0b683f1401ad4cb47" target="_top" xlink:title="MWGui::PickClassDialog\l::getClassId">
<polygon fill="white" stroke="black" points="373.5,-409 373.5,-439 502.5,-439 502.5,-409 373.5,-409"/>
<text text-anchor="start" x="381.5" y="-427" font-family="FreeSans" font-size="10.00">MWGui::PickClassDialog</text>
<text text-anchor="middle" x="438" y="-416" font-family="FreeSans" font-size="10.00">::getClassId</text>
</a>
</g>
</g>
<!-- Node2&#45;&gt;Node3 -->
<g id="edge2" class="edge"><title>Node2&#45;&gt;Node3</title>
<path fill="none" stroke="midnightblue" d="M263.873,-297.063C281.594,-320.658 318.881,-366.476 360,-394 365.984,-398.005 372.58,-401.593 379.32,-404.773"/>
<polygon fill="midnightblue" stroke="midnightblue" points="377.994,-408.014 388.555,-408.858 380.826,-401.612 377.994,-408.014"/>
</g>
<!-- Node4 -->
<g id="node4" class="node"><title>Node4</title>
<g id="a_node4"><a xlink:href="classMWBase_1_1Environment.html#a73f12633762b049c03c80fe215873faa" target="_top" xlink:title="Return instance of this class. ">
<polygon fill="white" stroke="black" points="748,-370.5 748,-389.5 894,-389.5 894,-370.5 748,-370.5"/>
<text text-anchor="middle" x="821" y="-377.5" font-family="FreeSans" font-size="10.00">MWBase::Environment::get</text>
</a>
</g>
</g>
<!-- Node2&#45;&gt;Node4 -->
<g id="edge3" class="edge"><title>Node2&#45;&gt;Node4</title>
<path fill="none" stroke="midnightblue" d="M267.237,-297.015C286.291,-315.953 322.103,-347.653 360,-361 486.931,-405.705 645.87,-399.825 739.814,-390.561"/>
<polygon fill="midnightblue" stroke="midnightblue" points="740.227,-394.037 749.819,-389.537 739.515,-387.073 740.227,-394.037"/>
</g>
<!-- Node5 -->
<g id="node5" class="node"><title>Node5</title>
<g id="a_node5"><a xlink:href="classMWBase_1_1Environment.html#a571bbf2793948af02f188c25f0a4ba23" target="_top" xlink:title="MWBase::Environment\l::getMechanicsManager">
<polygon fill="white" stroke="black" points="372.5,-49 372.5,-79 503.5,-79 503.5,-49 372.5,-49"/>
<text text-anchor="start" x="380.5" y="-67" font-family="FreeSans" font-size="10.00">MWBase::Environment</text>
<text text-anchor="middle" x="438" y="-56" font-family="FreeSans" font-size="10.00">::getMechanicsManager</text>
</a>
</g>
</g>
<!-- Node2&#45;&gt;Node5 -->
<g id="edge4" class="edge"><title>Node2&#45;&gt;Node5</title>
<path fill="none" stroke="midnightblue" d="M257.697,-266.792C269.326,-231.536 302.733,-143.467 360,-94 364.521,-90.0948 369.609,-86.6663 374.959,-83.6628"/>
<polygon fill="midnightblue" stroke="midnightblue" points="376.82,-86.6434 384.157,-79 373.655,-80.3998 376.82,-86.6434"/>
</g>
<!-- Node6 -->
<g id="node6" class="node"><title>Node6</title>
<g id="a_node6"><a xlink:href="classMWBase_1_1MechanicsManager.html#a152cdcedaa8829b72e545de833f0275a" target="_top" xlink:title="Set player class to stock class. ">
<polygon fill="white" stroke="black" points="360.5,-0 360.5,-30 515.5,-30 515.5,-0 360.5,-0"/>
<text text-anchor="start" x="368.5" y="-18" font-family="FreeSans" font-size="10.00">MWBase::MechanicsManager</text>
<text text-anchor="middle" x="438" y="-7" font-family="FreeSans" font-size="10.00">::setPlayerClass</text>
</a>
</g>
</g>
<!-- Node2&#45;&gt;Node6 -->
<g id="edge5" class="edge"><title>Node2&#45;&gt;Node6</title>
<path fill="none" stroke="midnightblue" d="M255.23,-266.925C262.3,-224.531 288.15,-103.181 360,-39 361.328,-37.8136 362.714,-36.6858 364.15,-35.6138"/>
<polygon fill="midnightblue" stroke="midnightblue" points="366.298,-38.3947 372.843,-30.0634 362.531,-32.4946 366.298,-38.3947"/>
</g>
<!-- Node7 -->
<g id="node7" class="node"><title>Node7</title>
<g id="a_node7"><a xlink:href="classMWBase_1_1Environment.html#ae14e166d8f5ff8629be119333d502660" target="_top" xlink:title="MWBase::Environment\l::getWorld">
<polygon fill="white" stroke="black" points="759,-93 759,-123 883,-123 883,-93 759,-93"/>
<text text-anchor="start" x="767" y="-111" font-family="FreeSans" font-size="10.00">MWBase::Environment</text>
<text text-anchor="middle" x="821" y="-100" font-family="FreeSans" font-size="10.00">::getWorld</text>
</a>
</g>
</g>
<!-- Node2&#45;&gt;Node7 -->
<g id="edge6" class="edge"><title>Node2&#45;&gt;Node7</title>
<path fill="none" stroke="midnightblue" d="M258.258,-266.551C270.302,-233.888 303.305,-158.263 360,-127 424.735,-91.3034 636.083,-97.2729 748.373,-103.333"/>
<polygon fill="midnightblue" stroke="midnightblue" points="748.414,-106.841 758.592,-103.899 748.801,-99.8512 748.414,-106.841"/>
</g>
<!-- Node8 -->
<g id="node8" class="node"><title>Node8</title>
<g id="a_node8"><a xlink:href="classMWBase_1_1World.html#a2ba0910cb944786065e37dc5f3fcda35" target="_top" xlink:title="MWBase::World::getStore">
<polygon fill="white" stroke="black" points="369.5,-332.5 369.5,-351.5 506.5,-351.5 506.5,-332.5 369.5,-332.5"/>
<text text-anchor="middle" x="438" y="-339.5" font-family="FreeSans" font-size="10.00">MWBase::World::getStore</text>
</a>
</g>
</g>
<!-- Node2&#45;&gt;Node8 -->
<g id="edge7" class="edge"><title>Node2&#45;&gt;Node8</title>
<path fill="none" stroke="midnightblue" d="M289.251,-297.177C309.789,-305.449 336.083,-315.499 360,-323 367.846,-325.461 376.221,-327.807 384.452,-329.959"/>
<polygon fill="midnightblue" stroke="midnightblue" points="383.822,-333.41 394.376,-332.482 385.546,-326.626 383.822,-333.41"/>
</g>
<!-- Node9 -->
<g id="node9" class="node"><title>Node9</title>
<g id="a_node9"><a xlink:href="classMWWorld_1_1ESMStore.html#a94ffe201bd012dd41fcdabfb35c69e24" target="_top" xlink:title="MWWorld::ESMStore::get">
<polygon fill="white" stroke="black" points="371,-294.5 371,-313.5 505,-313.5 505,-294.5 371,-294.5"/>
<text text-anchor="middle" x="438" y="-301.5" font-family="FreeSans" font-size="10.00">MWWorld::ESMStore::get</text>
</a>
</g>
</g>
<!-- Node2&#45;&gt;Node9 -->
<g id="edge8" class="edge"><title>Node2&#45;&gt;Node9</title>
<path fill="none" stroke="midnightblue" d="M323.613,-290.443C335.727,-291.891 348.365,-293.402 360.621,-294.868"/>
<polygon fill="midnightblue" stroke="midnightblue" points="360.463,-298.374 370.807,-296.086 361.294,-291.423 360.463,-298.374"/>
</g>
<!-- Node10 -->
<g id="node10" class="node"><title>Node10</title>
<g id="a_node10"><a xlink:href="classMWBase_1_1Environment.html#aeeef9a580df0312f0a9b7380488dea21" target="_top" xlink:title="MWBase::Environment\l::getWindowManager">
<polygon fill="white" stroke="black" points="376,-458 376,-488 500,-488 500,-458 376,-458"/>
<text text-anchor="start" x="384" y="-476" font-family="FreeSans" font-size="10.00">MWBase::Environment</text>
<text text-anchor="middle" x="438" y="-465" font-family="FreeSans" font-size="10.00">::getWindowManager</text>
</a>
</g>
</g>
<!-- Node2&#45;&gt;Node10 -->
<g id="edge9" class="edge"><title>Node2&#45;&gt;Node10</title>
<path fill="none" stroke="midnightblue" d="M258.704,-297.324C271.616,-329.932 306.205,-406.586 360,-448 362.428,-449.869 365,-451.601 367.675,-453.205"/>
<polygon fill="midnightblue" stroke="midnightblue" points="366.043,-456.302 376.515,-457.909 369.331,-450.122 366.043,-456.302"/>
</g>
<!-- Node11 -->
<g id="node11" class="node"><title>Node11</title>
<g id="a_node11"><a xlink:href="classMWBase_1_1WindowManager.html#a2d86908f67a1b6bef81ab809ec2ea3e3" target="_top" xlink:title="set current class of player ">
<polygon fill="white" stroke="black" points="368,-245 368,-275 508,-275 508,-245 368,-245"/>
<text text-anchor="start" x="376" y="-263" font-family="FreeSans" font-size="10.00">MWBase::WindowManager</text>
<text text-anchor="middle" x="438" y="-252" font-family="FreeSans" font-size="10.00">::setPlayerClass</text>
</a>
</g>
</g>
<!-- Node2&#45;&gt;Node11 -->
<g id="edge10" class="edge"><title>Node2&#45;&gt;Node11</title>
<path fill="none" stroke="midnightblue" d="M323.613,-273.557C334.709,-272.23 346.244,-270.851 357.523,-269.503"/>
<polygon fill="midnightblue" stroke="midnightblue" points="358.276,-272.938 367.79,-268.275 357.445,-265.987 358.276,-272.938"/>
</g>
<!-- Node12 -->
<g id="node12" class="node"><title>Node12</title>
<g id="a_node12"><a xlink:href="classMWBase_1_1WindowManager.html#ab8c884131fc139269917d1ecc7b9e509" target="_top" xlink:title="Hides dialog and schedules dialog to be deleted. ">
<polygon fill="white" stroke="black" points="368,-196 368,-226 508,-226 508,-196 368,-196"/>
<text text-anchor="start" x="376" y="-214" font-family="FreeSans" font-size="10.00">MWBase::WindowManager</text>
<text text-anchor="middle" x="438" y="-203" font-family="FreeSans" font-size="10.00">::removeDialog</text>
</a>
</g>
</g>
<!-- Node2&#45;&gt;Node12 -->
<g id="edge11" class="edge"><title>Node2&#45;&gt;Node12</title>
<path fill="none" stroke="midnightblue" d="M284.922,-266.859C305.993,-257.144 334.346,-244.598 360,-235 365.164,-233.068 370.561,-231.163 375.997,-229.321"/>
<polygon fill="midnightblue" stroke="midnightblue" points="377.388,-232.548 385.783,-226.084 375.189,-225.902 377.388,-232.548"/>
</g>
<!-- Node13 -->
<g id="node13" class="node"><title>Node13</title>
<g id="a_node13"><a xlink:href="namespaceanonymous__namespace_02charactercreation_8cpp_03.html#aaf0d65d28eafc9548a309e2c97f06f83" target="_top" xlink:title="anonymous_namespace\l\{charactercreation::\lcpp\}::updatePlayerHealth">
<polygon fill="white" stroke="black" points="368,-136.5 368,-177.5 508,-177.5 508,-136.5 368,-136.5"/>
<text text-anchor="start" x="376" y="-165.5" font-family="FreeSans" font-size="10.00">anonymous_namespace</text>
<text text-anchor="start" x="376" y="-154.5" font-family="FreeSans" font-size="10.00">{charactercreation::</text>
<text text-anchor="middle" x="438" y="-143.5" font-family="FreeSans" font-size="10.00">cpp}::updatePlayerHealth</text>
</a>
</g>
</g>
<!-- Node2&#45;&gt;Node13 -->
<g id="edge12" class="edge"><title>Node2&#45;&gt;Node13</title>
<path fill="none" stroke="midnightblue" d="M266.493,-266.766C285.546,-246.043 322.242,-208.928 360,-186 362.19,-184.67 364.451,-183.384 366.763,-182.143"/>
<polygon fill="midnightblue" stroke="midnightblue" points="368.511,-185.182 375.885,-177.574 365.377,-178.922 368.511,-185.182"/>
</g>
<!-- Node14 -->
<g id="node14" class="node"><title>Node14</title>
<g id="a_node14"><a xlink:href="namespaceMWMechanics.html#a90645fe67f9b8b658452cd004d2cbb65" target="_top" xlink:title="MWMechanics::getPlayer">
<polygon fill="white" stroke="black" points="563,-136.5 563,-155.5 697,-155.5 697,-136.5 563,-136.5"/>
<text text-anchor="middle" x="630" y="-143.5" font-family="FreeSans" font-size="10.00">MWMechanics::getPlayer</text>
</a>
</g>
</g>
<!-- Node13&#45;&gt;Node14 -->
<g id="edge13" class="edge"><title>Node13&#45;&gt;Node14</title>
<path fill="none" stroke="midnightblue" d="M508.132,-152.998C522.615,-152.159 537.967,-151.27 552.694,-150.418"/>
<polygon fill="midnightblue" stroke="midnightblue" points="552.991,-153.906 562.772,-149.834 552.587,-146.918 552.991,-153.906"/>
</g>
<!-- Node16 -->
<g id="node16" class="node"><title>Node16</title>
<g id="a_node16"><a xlink:href="classMWWorld_1_1Ptr.html#aa2ac4a5579cd19eaa780596f4543ea46" target="_top" xlink:title="MWWorld::Ptr::getClass">
<polygon fill="white" stroke="black" points="567.5,-262.5 567.5,-281.5 692.5,-281.5 692.5,-262.5 567.5,-262.5"/>
<text text-anchor="middle" x="630" y="-269.5" font-family="FreeSans" font-size="10.00">MWWorld::Ptr::getClass</text>
</a>
</g>
</g>
<!-- Node13&#45;&gt;Node16 -->
<g id="edge17" class="edge"><title>Node13&#45;&gt;Node16</title>
<path fill="none" stroke="midnightblue" d="M504.417,-177.611C508.541,-180.109 512.453,-182.895 516,-186 541.437,-208.264 525.292,-232.279 552,-253 554.346,-254.82 556.843,-256.468 559.448,-257.96"/>
<polygon fill="midnightblue" stroke="midnightblue" points="558.145,-261.219 568.667,-262.458 561.214,-254.928 558.145,-261.219"/>
</g>
<!-- Node17 -->
<g id="node17" class="node"><title>Node17</title>
<g id="a_node17"><a xlink:href="classMWWorld_1_1Class.html#a288815e0879a88ccd87b4871be64202b" target="_top" xlink:title="MWWorld::Class::getNpcStats">
<polygon fill="white" stroke="black" points="552,-224.5 552,-243.5 708,-243.5 708,-224.5 552,-224.5"/>
<text text-anchor="middle" x="630" y="-231.5" font-family="FreeSans" font-size="10.00">MWWorld::Class::getNpcStats</text>
</a>
</g>
</g>
<!-- Node13&#45;&gt;Node17 -->
<g id="edge18" class="edge"><title>Node13&#45;&gt;Node17</title>
<path fill="none" stroke="midnightblue" d="M499.083,-177.586C504.91,-180.186 510.641,-182.998 516,-186 533.684,-195.906 533.816,-205.045 552,-214 557.692,-216.803 563.821,-219.244 570.046,-221.363"/>
<polygon fill="midnightblue" stroke="midnightblue" points="569.27,-224.787 579.859,-224.433 571.36,-218.107 569.27,-224.787"/>
</g>
<!-- Node18 -->
<g id="node18" class="node"><title>Node18</title>
<g id="a_node18"><a xlink:href="classMWMechanics_1_1NpcStats.html#abf41018cfbbaadbcfab573028e84c2ce" target="_top" xlink:title="MWMechanics::NpcStats\l::updateHealth">
<polygon fill="white" stroke="black" points="563,-175 563,-205 697,-205 697,-175 563,-175"/>
<text text-anchor="start" x="571" y="-193" font-family="FreeSans" font-size="10.00">MWMechanics::NpcStats</text>
<text text-anchor="middle" x="630" y="-182" font-family="FreeSans" font-size="10.00">::updateHealth</text>
</a>
</g>
</g>
<!-- Node13&#45;&gt;Node18 -->
<g id="edge19" class="edge"><title>Node13&#45;&gt;Node18</title>
<path fill="none" stroke="midnightblue" d="M508.132,-169.007C522.615,-171.523 537.967,-174.189 552.694,-176.747"/>
<polygon fill="midnightblue" stroke="midnightblue" points="552.321,-180.234 562.772,-178.497 553.519,-173.338 552.321,-180.234"/>
</g>
<!-- Node14&#45;&gt;Node4 -->
<g id="edge14" class="edge"><title>Node14&#45;&gt;Node4</title>
<path fill="none" stroke="midnightblue" d="M691.771,-155.641C697.591,-158.1 703.129,-161.171 708,-165 773.909,-216.814 805.061,-318.17 815.64,-360.596"/>
<polygon fill="midnightblue" stroke="midnightblue" points="812.272,-361.563 817.993,-370.481 819.082,-359.942 812.272,-361.563"/>
</g>
<!-- Node14&#45;&gt;Node7 -->
<g id="edge15" class="edge"><title>Node14&#45;&gt;Node7</title>
<path fill="none" stroke="midnightblue" d="M678.693,-136.411C699.935,-132.14 725.399,-127.02 748.823,-122.311"/>
<polygon fill="midnightblue" stroke="midnightblue" points="749.605,-125.724 758.719,-120.321 748.225,-118.861 749.605,-125.724"/>
</g>
<!-- Node15 -->
<g id="node15" class="node"><title>Node15</title>
<g id="a_node15"><a xlink:href="classMWBase_1_1World.html#a95005e26dcb7b1f6dc906eb518b95762" target="_top" xlink:title="MWBase::World::getPlayerPtr">
<polygon fill="white" stroke="black" points="744.5,-142.5 744.5,-161.5 897.5,-161.5 897.5,-142.5 744.5,-142.5"/>
<text text-anchor="middle" x="821" y="-149.5" font-family="FreeSans" font-size="10.00">MWBase::World::getPlayerPtr</text>
</a>
</g>
</g>
<!-- Node14&#45;&gt;Node15 -->
<g id="edge16" class="edge"><title>Node14&#45;&gt;Node15</title>
<path fill="none" stroke="midnightblue" d="M697.103,-148.099C708.995,-148.476 721.549,-148.875 733.91,-149.267"/>
<polygon fill="midnightblue" stroke="midnightblue" points="734.122,-152.775 744.228,-149.595 734.344,-145.779 734.122,-152.775"/>
</g>
<!-- Node19&#45;&gt;Node4 -->
<g id="edge21" class="edge"><title>Node19&#45;&gt;Node4</title>
<path fill="none" stroke="midnightblue" d="M323.592,-517.177C377.021,-515.981 451.897,-511.446 516,-497 621.689,-473.183 739.44,-419.49 792.013,-393.975"/>
<polygon fill="midnightblue" stroke="midnightblue" points="793.608,-397.09 801.053,-389.552 790.532,-390.803 793.608,-397.09"/>
</g>
<!-- Node19&#45;&gt;Node10 -->
<g id="edge22" class="edge"><title>Node19&#45;&gt;Node10</title>
<path fill="none" stroke="midnightblue" d="M315.808,-501.981C331.844,-498.146 349.2,-493.996 365.63,-490.067"/>
<polygon fill="midnightblue" stroke="midnightblue" points="366.809,-493.384 375.721,-487.654 365.181,-486.576 366.809,-493.384"/>
</g>
<!-- Node20 -->
<g id="node20" class="node"><title>Node20</title>
<g id="a_node20"><a xlink:href="classMWBase_1_1WindowManager.html#ac059431adfdc99d255a36befd823b429" target="_top" xlink:title="MWBase::WindowManager\l::popGuiMode">
<polygon fill="white" stroke="black" points="368,-595 368,-625 508,-625 508,-595 368,-595"/>
<text text-anchor="start" x="376" y="-613" font-family="FreeSans" font-size="10.00">MWBase::WindowManager</text>
<text text-anchor="middle" x="438" y="-602" font-family="FreeSans" font-size="10.00">::popGuiMode</text>
</a>
</g>
</g>
<!-- Node19&#45;&gt;Node20 -->
<g id="edge23" class="edge"><title>Node19&#45;&gt;Node20</title>
<path fill="none" stroke="midnightblue" d="M273.414,-532.187C294.307,-547.187 328.138,-569.999 360,-585 364.848,-587.283 369.96,-589.44 375.149,-591.458"/>
<polygon fill="midnightblue" stroke="midnightblue" points="373.941,-594.743 384.534,-594.939 376.375,-588.18 373.941,-594.743"/>
</g>
<!-- Node21 -->
<g id="node21" class="node"><title>Node21</title>
<g id="a_node21"><a xlink:href="classMWBase_1_1WindowManager.html#a3187de6c2225d538f0a1dd89c2c7e7b4" target="_top" xlink:title="MWBase::WindowManager\l::pushGuiMode">
<polygon fill="white" stroke="black" points="368,-546 368,-576 508,-576 508,-546 368,-546"/>
<text text-anchor="start" x="376" y="-564" font-family="FreeSans" font-size="10.00">MWBase::WindowManager</text>
<text text-anchor="middle" x="438" y="-553" font-family="FreeSans" font-size="10.00">::pushGuiMode</text>
</a>
</g>
</g>
<!-- Node19&#45;&gt;Node21 -->
<g id="edge24" class="edge"><title>Node19&#45;&gt;Node21</title>
<path fill="none" stroke="midnightblue" d="M315.808,-532.019C331.413,-535.751 348.267,-539.781 364.303,-543.616"/>
<polygon fill="midnightblue" stroke="midnightblue" points="363.623,-547.052 374.163,-545.974 365.251,-540.244 363.623,-547.052"/>
</g>
</g>
</svg>
