<?xml version="1.0" encoding="UTF-8" standalone="no"?>
<!DOCTYPE svg PUBLIC "-//W3C//DTD SVG 1.1//EN"
 "http://www.w3.org/Graphics/SVG/1.1/DTD/svg11.dtd">
<!-- Generated by graphviz version 2.36.0 (20140111.2315)
 -->
<!-- Title: MWGui::PickClassDialog::onAccept Pages: 1 -->
<svg width="1282pt" height="630pt"
 viewBox="0.00 0.00 1282.00 630.07" xmlns="http://www.w3.org/2000/svg" xmlns:xlink="http://www.w3.org/1999/xlink">
<g id="graph0" class="graph" transform="scale(1 1) rotate(0) translate(4 626.073)">
<title>MWGui::PickClassDialog::onAccept</title>
<polygon fill="white" stroke="none" points="-4,4 -4,-626.073 1278,-626.073 1278,4 -4,4"/>
<!-- Node1 -->
<g id="node1" class="node"><title>Node1</title>
<polygon fill="#bfbfbf" stroke="black" points="0.5,-387.073 0.5,-417.073 123.5,-417.073 123.5,-387.073 0.5,-387.073"/>
<text text-anchor="start" x="8.5" y="-405.073" font-family="FreeSans" font-size="10.00">MWGui::PickClassDialog</text>
<text text-anchor="middle" x="62" y="-394.073" font-family="FreeSans" font-size="10.00">::onAccept</text>
</g>
<!-- Node2 -->
<g id="node2" class="node"><title>Node2</title>
<g id="a_node2"><a xlink:href="classMWGui_1_1PickClassDialog.html#adf0de15f0c3fe70c52a89c89118b53d8" target="_top" xlink:title="MWGui::PickClassDialog\l::onSelectClass">
<polygon fill="white" stroke="black" points="160.5,-387.073 160.5,-417.073 283.5,-417.073 283.5,-387.073 160.5,-387.073"/>
<text text-anchor="start" x="168.5" y="-405.073" font-family="FreeSans" font-size="10.00">MWGui::PickClassDialog</text>
<text text-anchor="middle" x="222" y="-394.073" font-family="FreeSans" font-size="10.00">::onSelectClass</text>
</a>
</g>
</g>
<!-- Node1&#45;&gt;Node2 -->
<g id="edge1" class="edge"><title>Node1&#45;&gt;Node2</title>
<path fill="none" stroke="midnightblue" d="M123.635,-402.073C132.267,-402.073 141.208,-402.073 150.016,-402.073"/>
<polygon fill="midnightblue" stroke="midnightblue" points="150.266,-405.573 160.266,-402.073 150.266,-398.573 150.266,-405.573"/>
</g>
<!-- Node3 -->
<g id="node3" class="node"><title>Node3</title>
<g id="a_node3"><a xlink:href="classMisc_1_1StringUtils.html#a0f8cb0ac134191ba8417f74ab7dc4de6" target="_top" xlink:title="Misc::StringUtils::\lciEqual">
<polygon fill="white" stroke="black" points="337,-467.073 337,-497.073 427,-497.073 427,-467.073 337,-467.073"/>
<text text-anchor="start" x="345" y="-485.073" font-family="FreeSans" font-size="10.00">Misc::StringUtils::</text>
<text text-anchor="middle" x="382" y="-474.073" font-family="FreeSans" font-size="10.00">ciEqual</text>
</a>
</g>
</g>
<!-- Node2&#45;&gt;Node3 -->
<g id="edge2" class="edge"><title>Node2&#45;&gt;Node3</title>
<path fill="none" stroke="midnightblue" d="M252.719,-417.121C278.017,-429.93 314.542,-448.424 342.154,-462.404"/>
<polygon fill="midnightblue" stroke="midnightblue" points="340.644,-465.563 351.146,-466.958 343.806,-459.318 340.644,-465.563"/>
</g>
<!-- Node5 -->
<g id="node5" class="node"><title>Node5</title>
<g id="a_node5"><a xlink:href="classMWGui_1_1PickClassDialog.html#a03ded37a86ee176a5fd0a5f0a0eb0bb3" target="_top" xlink:title="MWGui::PickClassDialog\l::updateStats">
<polygon fill="white" stroke="black" points="320.5,-308.073 320.5,-338.073 443.5,-338.073 443.5,-308.073 320.5,-308.073"/>
<text text-anchor="start" x="328.5" y="-326.073" font-family="FreeSans" font-size="10.00">MWGui::PickClassDialog</text>
<text text-anchor="middle" x="382" y="-315.073" font-family="FreeSans" font-size="10.00">::updateStats</text>
</a>
</g>
</g>
<!-- Node2&#45;&gt;Node5 -->
<g id="edge4" class="edge"><title>Node2&#45;&gt;Node5</title>
<path fill="none" stroke="midnightblue" d="M253.09,-387.028C278.159,-374.494 314.061,-356.543 341.451,-342.848"/>
<polygon fill="midnightblue" stroke="midnightblue" points="343.374,-345.799 350.753,-338.197 340.243,-339.538 343.374,-345.799"/>
</g>
<!-- Node4 -->
<g id="node4" class="node"><title>Node4</title>
<g id="a_node4"><a xlink:href="classMisc_1_1StringUtils.html#a0759adb102842ee3bced227707eb6949" target="_top" xlink:title="Misc::StringUtils::\ltoLower">
<polygon fill="white" stroke="black" points="526,-577.073 526,-607.073 616,-607.073 616,-577.073 526,-577.073"/>
<text text-anchor="start" x="534" y="-595.073" font-family="FreeSans" font-size="10.00">Misc::StringUtils::</text>
<text text-anchor="middle" x="571" y="-584.073" font-family="FreeSans" font-size="10.00">toLower</text>
</a>
</g>
</g>
<!-- Node3&#45;&gt;Node4 -->
<g id="edge3" class="edge"><title>Node3&#45;&gt;Node4</title>
<path fill="none" stroke="midnightblue" d="M397.812,-497.32C415.791,-515.062 447.727,-544.203 480,-562.073 491.142,-568.243 503.765,-573.422 515.957,-577.647"/>
<polygon fill="midnightblue" stroke="midnightblue" points="515.013,-581.021 525.606,-580.831 517.206,-574.374 515.013,-581.021"/>
</g>
<!-- Node6 -->
<g id="node6" class="node"><title>Node6</title>
<g id="a_node6"><a xlink:href="classMWBase_1_1Environment.html#a73f12633762b049c03c80fe215873faa" target="_top" xlink:title="Return instance of this class. ">
<polygon fill="white" stroke="black" points="1063.5,-259.573 1063.5,-278.573 1194.5,-278.573 1194.5,-259.573 1063.5,-259.573"/>
<text text-anchor="middle" x="1129" y="-266.573" font-family="FreeSans" font-size="10.00">MWBase::Environment::get</text>
</a>
</g>
</g>
<!-- Node5&#45;&gt;Node6 -->
<g id="edge5" class="edge"><title>Node5&#45;&gt;Node6</title>
<path fill="none" stroke="midnightblue" d="M443.537,-324.567C557.179,-326.475 809.939,-326.462 1020,-296.073 1026.36,-295.153 1055.27,-287.901 1081.57,-281.144"/>
<polygon fill="midnightblue" stroke="midnightblue" points="1082.66,-284.477 1091.47,-278.593 1080.92,-277.699 1082.66,-284.477"/>
</g>
<!-- Node7 -->
<g id="node7" class="node"><title>Node7</title>
<g id="a_node7"><a xlink:href="classMWBase_1_1Environment.html#ae14e166d8f5ff8629be119333d502660" target="_top" xlink:title="MWBase::Environment\l::getWorld">
<polygon fill="white" stroke="black" points="711.5,-150.073 711.5,-180.073 824.5,-180.073 824.5,-150.073 711.5,-150.073"/>
<text text-anchor="start" x="719.5" y="-168.073" font-family="FreeSans" font-size="10.00">MWBase::Environment</text>
<text text-anchor="middle" x="768" y="-157.073" font-family="FreeSans" font-size="10.00">::getWorld</text>
</a>
</g>
</g>
<!-- Node5&#45;&gt;Node7 -->
<g id="edge6" class="edge"><title>Node5&#45;&gt;Node7</title>
<path fill="none" stroke="midnightblue" d="M387.965,-307.715C398.899,-276.732 428.286,-207.22 480,-178.073 548.017,-139.738 640.161,-143.424 701.495,-152.075"/>
<polygon fill="midnightblue" stroke="midnightblue" points="701.035,-155.545 711.442,-153.559 702.068,-148.621 701.035,-155.545"/>
</g>
<!-- Node8 -->
<g id="node8" class="node"><title>Node8</title>
<g id="a_node8"><a xlink:href="classMWBase_1_1World.html#a2ba0910cb944786065e37dc5f3fcda35" target="_top" xlink:title="MWBase::World::getStore">
<polygon fill="white" stroke="black" points="705,-111.573 705,-130.573 831,-130.573 831,-111.573 705,-111.573"/>
<text text-anchor="middle" x="768" y="-118.573" font-family="FreeSans" font-size="10.00">MWBase::World::getStore</text>
</a>
</g>
</g>
<!-- Node5&#45;&gt;Node8 -->
<g id="edge7" class="edge"><title>Node5&#45;&gt;Node8</title>
<path fill="none" stroke="midnightblue" d="M386.042,-307.909C394.117,-272.078 419.734,-182.258 480,-143.073 548.458,-98.5617 646.453,-101.91 708.387,-110.155"/>
<polygon fill="midnightblue" stroke="midnightblue" points="707.992,-113.634 718.384,-111.571 708.973,-106.703 707.992,-113.634"/>
</g>
<!-- Node9 -->
<g id="node9" class="node"><title>Node9</title>
<g id="a_node9"><a xlink:href="classMWWorld_1_1ESMStore.html#a94ffe201bd012dd41fcdabfb35c69e24" target="_top" xlink:title="MWWorld::ESMStore::get">
<polygon fill="white" stroke="black" points="705.5,-237.573 705.5,-256.573 830.5,-256.573 830.5,-237.573 705.5,-237.573"/>
<text text-anchor="middle" x="768" y="-244.573" font-family="FreeSans" font-size="10.00">MWWorld::ESMStore::get</text>
</a>
</g>
</g>
<!-- Node5&#45;&gt;Node9 -->
<g id="edge8" class="edge"><title>Node5&#45;&gt;Node9</title>
<path fill="none" stroke="midnightblue" d="M404.984,-307.894C423.939,-295.662 452.517,-279.207 480,-271.073 551.122,-250.023 636.188,-245.31 695.156,-245.068"/>
<polygon fill="midnightblue" stroke="midnightblue" points="695.486,-248.568 705.486,-245.071 695.487,-241.568 695.486,-248.568"/>
</g>
<!-- Node10 -->
<g id="node10" class="node"><title>Node10</title>
<g id="a_node10"><a xlink:href="classMWBase_1_1Environment.html#aeeef9a580df0312f0a9b7380488dea21" target="_top" xlink:title="MWBase::Environment\l::getWindowManager">
<polygon fill="white" stroke="black" points="1072.5,-445.073 1072.5,-475.073 1185.5,-475.073 1185.5,-445.073 1072.5,-445.073"/>
<text text-anchor="start" x="1080.5" y="-463.073" font-family="FreeSans" font-size="10.00">MWBase::Environment</text>
<text text-anchor="middle" x="1129" y="-452.073" font-family="FreeSans" font-size="10.00">::getWindowManager</text>
</a>
</g>
</g>
<!-- Node5&#45;&gt;Node10 -->
<g id="edge9" class="edge"><title>Node5&#45;&gt;Node10</title>
<path fill="none" stroke="midnightblue" d="M399.012,-338.225C417.115,-354.354 448.226,-379.159 480,-391.073 585.414,-430.601 918.566,-450.372 1061.65,-457.215"/>
<polygon fill="midnightblue" stroke="midnightblue" points="1061.87,-460.729 1072.03,-457.704 1062.2,-453.737 1061.87,-460.729"/>
</g>
<!-- Node11 -->
<g id="node11" class="node"><title>Node11</title>
<g id="a_node11"><a xlink:href="classMWBase_1_1WindowManager.html#abf41d3bcda8d80e24d3e859bd9238afa" target="_top" xlink:title="MWBase::WindowManager\l::getGameSettingString">
<polygon fill="white" stroke="black" points="1063.5,-494.073 1063.5,-524.073 1194.5,-524.073 1194.5,-494.073 1063.5,-494.073"/>
<text text-anchor="start" x="1071.5" y="-512.073" font-family="FreeSans" font-size="10.00">MWBase::WindowManager</text>
<text text-anchor="middle" x="1129" y="-501.073" font-family="FreeSans" font-size="10.00">::getGameSettingString</text>
</a>
</g>
</g>
<!-- Node5&#45;&gt;Node11 -->
<g id="edge10" class="edge"><title>Node5&#45;&gt;Node11</title>
<path fill="none" stroke="midnightblue" d="M389.916,-338.244C411.361,-385.215 475.571,-525.269 480,-528.073 581.388,-592.264 900.455,-538.509 1020,-528.073 1030.82,-527.129 1042.18,-525.662 1053.3,-523.953"/>
<polygon fill="midnightblue" stroke="midnightblue" points="1054.11,-527.368 1063.42,-522.323 1052.99,-520.457 1054.11,-527.368"/>
</g>
<!-- Node12 -->
<g id="node12" class="node"><title>Node12</title>
<g id="a_node12"><a xlink:href="classMWGui_1_1ToolTips.html#a5a3f0e7489c60138abc1a59ff6a6e819" target="_top" xlink:title="MWGui::ToolTips::createSpecialization\lToolTip">
<polygon fill="white" stroke="black" points="480,-62.0732 480,-92.0732 662,-92.0732 662,-62.0732 480,-62.0732"/>
<text text-anchor="start" x="488" y="-80.0732" font-family="FreeSans" font-size="10.00">MWGui::ToolTips::createSpecialization</text>
<text text-anchor="middle" x="571" y="-69.0732" font-family="FreeSans" font-size="10.00">ToolTip</text>
</a>
</g>
</g>
<!-- Node5&#45;&gt;Node12 -->
<g id="edge11" class="edge"><title>Node5&#45;&gt;Node12</title>
<path fill="none" stroke="midnightblue" d="M385.468,-308.073C392.657,-269.126 417.194,-163.874 480,-107.073 484.199,-103.276 488.893,-99.957 493.874,-97.0572"/>
<polygon fill="midnightblue" stroke="midnightblue" points="495.833,-99.984 503.103,-92.2767 492.614,-93.7683 495.833,-99.984"/>
</g>
<!-- Node15 -->
<g id="node15" class="node"><title>Node15</title>
<g id="a_node15"><a xlink:href="classMWGui_1_1Widgets_1_1MWAttribute.html#a437b4c6b79b3495c304f29c97a82f959" target="_top" xlink:title="MWGui::Widgets::MWAttribute\l::setAttributeId">
<polygon fill="white" stroke="black" points="498,-489.073 498,-519.073 644,-519.073 644,-489.073 498,-489.073"/>
<text text-anchor="start" x="506" y="-507.073" font-family="FreeSans" font-size="10.00">MWGui::Widgets::MWAttribute</text>
<text text-anchor="middle" x="571" y="-496.073" font-family="FreeSans" font-size="10.00">::setAttributeId</text>
</a>
</g>
</g>
<!-- Node5&#45;&gt;Node15 -->
<g id="edge18" class="edge"><title>Node5&#45;&gt;Node15</title>
<path fill="none" stroke="midnightblue" d="M388.068,-338.111C399.378,-369.336 429.709,-441.416 480,-479.073 482.811,-481.178 485.791,-483.106 488.89,-484.871"/>
<polygon fill="midnightblue" stroke="midnightblue" points="487.399,-488.039 497.902,-489.429 490.558,-481.793 487.399,-488.039"/>
</g>
<!-- Node21 -->
<g id="node21" class="node"><title>Node21</title>
<g id="a_node21"><a xlink:href="classMWGui_1_1ToolTips.html#af045f4cd43938235410c001da829c89f" target="_top" xlink:title="MWGui::ToolTips::createAttribute\lToolTip">
<polygon fill="white" stroke="black" points="492,-440.073 492,-470.073 650,-470.073 650,-440.073 492,-440.073"/>
<text text-anchor="start" x="500" y="-458.073" font-family="FreeSans" font-size="10.00">MWGui::ToolTips::createAttribute</text>
<text text-anchor="middle" x="571" y="-447.073" font-family="FreeSans" font-size="10.00">ToolTip</text>
</a>
</g>
</g>
<!-- Node5&#45;&gt;Node21 -->
<g id="edge27" class="edge"><title>Node5&#45;&gt;Node21</title>
<path fill="none" stroke="midnightblue" d="M393.486,-338.099C409.637,-360.183 442.67,-401.349 480,-425.073 486.646,-429.297 493.949,-432.99 501.432,-436.202"/>
<polygon fill="midnightblue" stroke="midnightblue" points="500.385,-439.553 510.97,-440.018 502.986,-433.054 500.385,-439.553"/>
</g>
<!-- Node22 -->
<g id="node22" class="node"><title>Node22</title>
<g id="a_node22"><a xlink:href="classMWGui_1_1Widgets_1_1MWSkill.html#a25b2e3c79d0f84b092524c7cd91b0d1b" target="_top" xlink:title="MWGui::Widgets::MWSkill\l::setSkillNumber">
<polygon fill="white" stroke="black" points="507,-352.073 507,-382.073 635,-382.073 635,-352.073 507,-352.073"/>
<text text-anchor="start" x="515" y="-370.073" font-family="FreeSans" font-size="10.00">MWGui::Widgets::MWSkill</text>
<text text-anchor="middle" x="571" y="-359.073" font-family="FreeSans" font-size="10.00">::setSkillNumber</text>
</a>
</g>
</g>
<!-- Node5&#45;&gt;Node22 -->
<g id="edge28" class="edge"><title>Node5&#45;&gt;Node22</title>
<path fill="none" stroke="midnightblue" d="M443.714,-337.359C460.563,-341.323 479.038,-345.671 496.532,-349.787"/>
<polygon fill="midnightblue" stroke="midnightblue" points="496.164,-353.295 506.699,-352.179 497.767,-346.482 496.164,-353.295"/>
</g>
<!-- Node27 -->
<g id="node27" class="node"><title>Node27</title>
<g id="a_node27"><a xlink:href="classMWGui_1_1ToolTips.html#a564d981fa5df861609a6eb5e11dcb281" target="_top" xlink:title="MWGui::ToolTips::createSkill\lToolTip">
<polygon fill="white" stroke="black" points="501,-188.073 501,-218.073 641,-218.073 641,-188.073 501,-188.073"/>
<text text-anchor="start" x="509" y="-206.073" font-family="FreeSans" font-size="10.00">MWGui::ToolTips::createSkill</text>
<text text-anchor="middle" x="571" y="-195.073" font-family="FreeSans" font-size="10.00">ToolTip</text>
</a>
</g>
</g>
<!-- Node5&#45;&gt;Node27 -->
<g id="edge37" class="edge"><title>Node5&#45;&gt;Node27</title>
<path fill="none" stroke="midnightblue" d="M395.6,-307.899C412.785,-288.098 445.413,-253.565 480,-233.073 487.231,-228.789 495.156,-225.021 503.21,-221.733"/>
<polygon fill="midnightblue" stroke="midnightblue" points="504.61,-224.944 512.69,-218.092 502.1,-218.41 504.61,-224.944"/>
</g>
<!-- Node28 -->
<g id="node28" class="node"><title>Node28</title>
<g id="a_node28"><a xlink:href="namespaceMWGui.html#aa5a8ab76b80f3a8a536b6aef379809c9" target="_top" xlink:title="MWGui::setClassImage">
<polygon fill="white" stroke="black" points="889,-267.573 889,-286.573 1005,-286.573 1005,-267.573 889,-267.573"/>
<text text-anchor="middle" x="947" y="-274.573" font-family="FreeSans" font-size="10.00">MWGui::setClassImage</text>
</a>
</g>
</g>
<!-- Node5&#45;&gt;Node28 -->
<g id="edge42" class="edge"><title>Node5&#45;&gt;Node28</title>
<path fill="none" stroke="midnightblue" d="M443.711,-313.6C455.718,-311.927 468.241,-310.324 480,-309.073 621.51,-294.024 787.986,-284.57 878.704,-280.112"/>
<polygon fill="midnightblue" stroke="midnightblue" points="879.031,-283.6 888.85,-279.619 878.691,-276.609 879.031,-283.6"/>
</g>
<!-- Node12&#45;&gt;Node6 -->
<g id="edge12" class="edge"><title>Node12&#45;&gt;Node6</title>
<path fill="none" stroke="midnightblue" d="M594.443,-61.7974C618.729,-46.2688 659.202,-23.2323 698,-14.0732 758.558,0.222506 779.78,7.88291 838,-14.0732 969.101,-63.5149 1079.42,-202.18 1115.52,-251.438"/>
<polygon fill="midnightblue" stroke="midnightblue" points="1112.69,-253.498 1121.38,-259.553 1118.36,-249.398 1112.69,-253.498"/>
</g>
<!-- Node12&#45;&gt;Node7 -->
<g id="edge13" class="edge"><title>Node12&#45;&gt;Node7</title>
<path fill="none" stroke="midnightblue" d="M600.08,-92.2914C625.326,-105.689 663.617,-125.308 698,-140.073 702.976,-142.21 708.201,-144.326 713.456,-146.37"/>
<polygon fill="midnightblue" stroke="midnightblue" points="712.308,-149.678 722.899,-149.959 714.795,-143.135 712.308,-149.678"/>
</g>
<!-- Node12&#45;&gt;Node8 -->
<g id="edge14" class="edge"><title>Node12&#45;&gt;Node8</title>
<path fill="none" stroke="midnightblue" d="M638.563,-92.0925C663.567,-97.7344 691.599,-104.06 715.08,-109.358"/>
<polygon fill="midnightblue" stroke="midnightblue" points="714.318,-112.774 724.843,-111.561 715.858,-105.945 714.318,-112.774"/>
</g>
<!-- Node12&#45;&gt;Node9 -->
<g id="edge15" class="edge"><title>Node12&#45;&gt;Node9</title>
<path fill="none" stroke="midnightblue" d="M588.583,-92.0768C612.556,-113.705 658.366,-154.812 698,-189.073 714.471,-203.311 733.418,-219.204 747.286,-230.747"/>
<polygon fill="midnightblue" stroke="midnightblue" points="745.268,-233.621 755.196,-237.319 749.741,-228.237 745.268,-233.621"/>
</g>
<!-- Node13 -->
<g id="node13" class="node"><title>Node13</title>
<g id="a_node13"><a xlink:href="classMWWorld_1_1IndexedStore.html#a703ecf9329ff25f114b19fc9d4a65644" target="_top" xlink:title="MWWorld::IndexedStore\l::begin">
<polygon fill="white" stroke="black" points="708,-62.0732 708,-92.0732 828,-92.0732 828,-62.0732 708,-62.0732"/>
<text text-anchor="start" x="716" y="-80.0732" font-family="FreeSans" font-size="10.00">MWWorld::IndexedStore</text>
<text text-anchor="middle" x="768" y="-69.0732" font-family="FreeSans" font-size="10.00">::begin</text>
</a>
</g>
</g>
<!-- Node12&#45;&gt;Node13 -->
<g id="edge16" class="edge"><title>Node12&#45;&gt;Node13</title>
<path fill="none" stroke="midnightblue" d="M662.08,-77.0732C674.12,-77.0732 686.312,-77.0732 697.916,-77.0732"/>
<polygon fill="midnightblue" stroke="midnightblue" points="697.944,-80.5733 707.944,-77.0732 697.944,-73.5733 697.944,-80.5733"/>
</g>
<!-- Node14 -->
<g id="node14" class="node"><title>Node14</title>
<g id="a_node14"><a xlink:href="classMWWorld_1_1IndexedStore.html#affc60f57b3d38ce244616dc2ef79ed10" target="_top" xlink:title="MWWorld::IndexedStore::end">
<polygon fill="white" stroke="black" points="698,-23.5732 698,-42.5732 838,-42.5732 838,-23.5732 698,-23.5732"/>
<text text-anchor="middle" x="768" y="-30.5732" font-family="FreeSans" font-size="10.00">MWWorld::IndexedStore::end</text>
</a>
</g>
</g>
<!-- Node12&#45;&gt;Node14 -->
<g id="edge17" class="edge"><title>Node12&#45;&gt;Node14</title>
<path fill="none" stroke="midnightblue" d="M638.563,-62.054C663.567,-56.4121 691.599,-50.0868 715.08,-44.7885"/>
<polygon fill="midnightblue" stroke="midnightblue" points="715.858,-48.201 724.843,-42.5856 714.318,-41.3726 715.858,-48.201"/>
</g>
<!-- Node16 -->
<g id="node16" class="node"><title>Node16</title>
<g id="a_node16"><a xlink:href="classMWGui_1_1Widgets_1_1MWAttribute.html#aa32d5ffdb3e9151f2051a7fa86a03ad2" target="_top" xlink:title="MWGui::Widgets::MWAttribute\l::updateWidgets">
<polygon fill="white" stroke="black" points="874,-489.073 874,-519.073 1020,-519.073 1020,-489.073 874,-489.073"/>
<text text-anchor="start" x="882" y="-507.073" font-family="FreeSans" font-size="10.00">MWGui::Widgets::MWAttribute</text>
<text text-anchor="middle" x="947" y="-496.073" font-family="FreeSans" font-size="10.00">::updateWidgets</text>
</a>
</g>
</g>
<!-- Node15&#45;&gt;Node16 -->
<g id="edge19" class="edge"><title>Node15&#45;&gt;Node16</title>
<path fill="none" stroke="midnightblue" d="M644.111,-504.073C706.874,-504.073 797.828,-504.073 863.481,-504.073"/>
<polygon fill="midnightblue" stroke="midnightblue" points="863.792,-507.573 873.792,-504.073 863.792,-500.573 863.792,-507.573"/>
</g>
<!-- Node16&#45;&gt;Node6 -->
<g id="edge20" class="edge"><title>Node16&#45;&gt;Node6</title>
<path fill="none" stroke="midnightblue" d="M959.203,-489.015C974.487,-467.954 1002.03,-428.116 1020,-391.073 1041.17,-347.445 1020.4,-320.996 1056,-288.073 1057.7,-286.504 1059.51,-285.062 1061.41,-283.736"/>
<polygon fill="midnightblue" stroke="midnightblue" points="1063.33,-286.667 1070.24,-278.637 1059.83,-280.605 1063.33,-286.667"/>
</g>
<!-- Node16&#45;&gt;Node10 -->
<g id="edge21" class="edge"><title>Node16&#45;&gt;Node10</title>
<path fill="none" stroke="midnightblue" d="M1009.44,-489.054C1026.47,-484.892 1045.02,-480.358 1062.28,-476.138"/>
<polygon fill="midnightblue" stroke="midnightblue" points="1063.39,-479.47 1072.27,-473.696 1061.73,-472.67 1063.39,-479.47"/>
</g>
<!-- Node16&#45;&gt;Node11 -->
<g id="edge22" class="edge"><title>Node16&#45;&gt;Node11</title>
<path fill="none" stroke="midnightblue" d="M1020.18,-506.078C1031,-506.379 1042.18,-506.689 1053.05,-506.991"/>
<polygon fill="midnightblue" stroke="midnightblue" points="1053.28,-510.499 1063.37,-507.278 1053.47,-503.502 1053.28,-510.499"/>
</g>
<!-- Node17 -->
<g id="node17" class="node"><title>Node17</title>
<g id="a_node17"><a xlink:href="classMWMechanics_1_1AttributeValue.html#a3e84af12530d0e2cf3a45b25fa9b4fc8" target="_top" xlink:title="MWMechanics::AttributeValue\l::getModified">
<polygon fill="white" stroke="black" points="1056,-543.073 1056,-573.073 1202,-573.073 1202,-543.073 1056,-543.073"/>
<text text-anchor="start" x="1064" y="-561.073" font-family="FreeSans" font-size="10.00">MWMechanics::AttributeValue</text>
<text text-anchor="middle" x="1129" y="-550.073" font-family="FreeSans" font-size="10.00">::getModified</text>
</a>
</g>
</g>
<!-- Node16&#45;&gt;Node17 -->
<g id="edge23" class="edge"><title>Node16&#45;&gt;Node17</title>
<path fill="none" stroke="midnightblue" d="M998.14,-519.115C1019.8,-525.612 1045.31,-533.267 1067.97,-540.064"/>
<polygon fill="midnightblue" stroke="midnightblue" points="1067.23,-543.497 1077.82,-543.018 1069.24,-536.792 1067.23,-543.497"/>
</g>
<!-- Node18 -->
<g id="node18" class="node"><title>Node18</title>
<g id="a_node18"><a xlink:href="classMWMechanics_1_1AttributeValue.html#aaf2aaa6848d18ab931777fb9096e0d45" target="_top" xlink:title="MWMechanics::AttributeValue\l::getBase">
<polygon fill="white" stroke="black" points="1056,-592.073 1056,-622.073 1202,-622.073 1202,-592.073 1056,-592.073"/>
<text text-anchor="start" x="1064" y="-610.073" font-family="FreeSans" font-size="10.00">MWMechanics::AttributeValue</text>
<text text-anchor="middle" x="1129" y="-599.073" font-family="FreeSans" font-size="10.00">::getBase</text>
</a>
</g>
</g>
<!-- Node16&#45;&gt;Node18 -->
<g id="edge24" class="edge"><title>Node16&#45;&gt;Node18</title>
<path fill="none" stroke="midnightblue" d="M965.66,-519.335C986.217,-536.482 1021.74,-564.242 1056,-582.073 1060.18,-584.249 1064.59,-586.304 1069.09,-588.229"/>
<polygon fill="midnightblue" stroke="midnightblue" points="1067.81,-591.487 1078.4,-591.995 1070.44,-584.999 1067.81,-591.487"/>
</g>
<!-- Node19 -->
<g id="node19" class="node"><title>Node19</title>
<g id="a_node19"><a xlink:href="namespaceanonymous__namespace_02character_8cpp_03.html#a551df780ef62c57fe81b128fa596488c" target="_top" xlink:title="anonymous_namespace\l\{character::cpp\}::toString">
<polygon fill="white" stroke="black" points="1068,-396.073 1068,-426.073 1190,-426.073 1190,-396.073 1068,-396.073"/>
<text text-anchor="start" x="1076" y="-414.073" font-family="FreeSans" font-size="10.00">anonymous_namespace</text>
<text text-anchor="middle" x="1129" y="-403.073" font-family="FreeSans" font-size="10.00">{character::cpp}::toString</text>
</a>
</g>
</g>
<!-- Node16&#45;&gt;Node19 -->
<g id="edge25" class="edge"><title>Node16&#45;&gt;Node19</title>
<path fill="none" stroke="midnightblue" d="M968.223,-488.992C989.287,-473.812 1023.67,-450.498 1056,-435.073 1059.81,-433.254 1063.8,-431.514 1067.86,-429.862"/>
<polygon fill="midnightblue" stroke="midnightblue" points="1069.34,-433.041 1077.41,-426.171 1066.82,-426.512 1069.34,-433.041"/>
</g>
<!-- Node20 -->
<g id="node20" class="node"><title>Node20</title>
<g id="a_node20"><a xlink:href="gen__iconv_8cpp.html#a47a14d9c2f599fa2591017202978774d" target="_top" xlink:title="num">
<polygon fill="white" stroke="black" points="1238.5,-401.573 1238.5,-420.573 1273.5,-420.573 1273.5,-401.573 1238.5,-401.573"/>
<text text-anchor="middle" x="1256" y="-408.573" font-family="FreeSans" font-size="10.00">num</text>
</a>
</g>
</g>
<!-- Node19&#45;&gt;Node20 -->
<g id="edge26" class="edge"><title>Node19&#45;&gt;Node20</title>
<path fill="none" stroke="midnightblue" d="M1190.3,-411.073C1203.6,-411.073 1217.03,-411.073 1228.18,-411.073"/>
<polygon fill="midnightblue" stroke="midnightblue" points="1228.49,-414.573 1238.49,-411.073 1228.49,-407.573 1228.49,-414.573"/>
</g>
<!-- Node23 -->
<g id="node23" class="node"><title>Node23</title>
<g id="a_node23"><a xlink:href="classMWGui_1_1Widgets_1_1MWSkill.html#ac26c48b7f5b6835485ed20aee78304bc" target="_top" xlink:title="MWGui::Widgets::MWSkill\l::setSkillId">
<polygon fill="white" stroke="black" points="704,-352.073 704,-382.073 832,-382.073 832,-352.073 704,-352.073"/>
<text text-anchor="start" x="712" y="-370.073" font-family="FreeSans" font-size="10.00">MWGui::Widgets::MWSkill</text>
<text text-anchor="middle" x="768" y="-359.073" font-family="FreeSans" font-size="10.00">::setSkillId</text>
</a>
</g>
</g>
<!-- Node22&#45;&gt;Node23 -->
<g id="edge29" class="edge"><title>Node22&#45;&gt;Node23</title>
<path fill="none" stroke="midnightblue" d="M635.042,-367.073C653.717,-367.073 674.329,-367.073 693.6,-367.073"/>
<polygon fill="midnightblue" stroke="midnightblue" points="693.842,-370.573 703.842,-367.073 693.842,-363.573 693.842,-370.573"/>
</g>
<!-- Node24 -->
<g id="node24" class="node"><title>Node24</title>
<g id="a_node24"><a xlink:href="classMWGui_1_1Widgets_1_1MWSkill.html#aeffd4ad391e5a1ffb2f92dbd52b03cca" target="_top" xlink:title="MWGui::Widgets::MWSkill\l::updateWidgets">
<polygon fill="white" stroke="black" points="883,-352.073 883,-382.073 1011,-382.073 1011,-352.073 883,-352.073"/>
<text text-anchor="start" x="891" y="-370.073" font-family="FreeSans" font-size="10.00">MWGui::Widgets::MWSkill</text>
<text text-anchor="middle" x="947" y="-359.073" font-family="FreeSans" font-size="10.00">::updateWidgets</text>
</a>
</g>
</g>
<!-- Node23&#45;&gt;Node24 -->
<g id="edge30" class="edge"><title>Node23&#45;&gt;Node24</title>
<path fill="none" stroke="midnightblue" d="M832.401,-367.073C845.444,-367.073 859.279,-367.073 872.64,-367.073"/>
<polygon fill="midnightblue" stroke="midnightblue" points="872.744,-370.573 882.744,-367.073 872.744,-363.573 872.744,-370.573"/>
</g>
<!-- Node24&#45;&gt;Node6 -->
<g id="edge31" class="edge"><title>Node24&#45;&gt;Node6</title>
<path fill="none" stroke="midnightblue" d="M994.613,-352.022C1003.54,-347.966 1012.44,-343.013 1020,-337.073 1041.25,-320.377 1033.66,-303.278 1056,-288.073 1058.92,-286.085 1062.04,-284.305 1065.28,-282.712"/>
<polygon fill="midnightblue" stroke="midnightblue" points="1066.85,-285.846 1074.67,-278.695 1064.09,-279.411 1066.85,-285.846"/>
</g>
<!-- Node24&#45;&gt;Node10 -->
<g id="edge32" class="edge"><title>Node24&#45;&gt;Node10</title>
<path fill="none" stroke="midnightblue" d="M992.542,-382.212C1002,-386.346 1011.64,-391.308 1020,-397.073 1039.15,-410.278 1036.46,-422.454 1056,-435.073 1059.13,-437.094 1062.44,-438.973 1065.86,-440.716"/>
<polygon fill="midnightblue" stroke="midnightblue" points="1064.55,-443.968 1075.09,-445.02 1067.51,-437.623 1064.55,-443.968"/>
</g>
<!-- Node24&#45;&gt;Node11 -->
<g id="edge33" class="edge"><title>Node24&#45;&gt;Node11</title>
<path fill="none" stroke="midnightblue" d="M958.161,-382.215C975.464,-406.905 1012.99,-455.905 1056,-484.073 1058.97,-486.017 1062.1,-487.828 1065.34,-489.512"/>
<polygon fill="midnightblue" stroke="midnightblue" points="1064.14,-492.814 1074.67,-493.93 1067.13,-486.487 1064.14,-492.814"/>
</g>
<!-- Node24&#45;&gt;Node19 -->
<g id="edge36" class="edge"><title>Node24&#45;&gt;Node19</title>
<path fill="none" stroke="midnightblue" d="M1009.44,-382.092C1025.05,-385.907 1041.93,-390.033 1057.92,-393.943"/>
<polygon fill="midnightblue" stroke="midnightblue" points="1057.2,-397.37 1067.75,-396.345 1058.87,-390.571 1057.2,-397.37"/>
</g>
<!-- Node25 -->
<g id="node25" class="node"><title>Node25</title>
<g id="a_node25"><a xlink:href="classMWMechanics_1_1Stat.html#a736beef5e63468fea1198abbc19c2acc" target="_top" xlink:title="MWMechanics::Stat::\lgetModified">
<polygon fill="white" stroke="black" points="1075.5,-298.073 1075.5,-328.073 1182.5,-328.073 1182.5,-298.073 1075.5,-298.073"/>
<text text-anchor="start" x="1083.5" y="-316.073" font-family="FreeSans" font-size="10.00">MWMechanics::Stat::</text>
<text text-anchor="middle" x="1129" y="-305.073" font-family="FreeSans" font-size="10.00">getModified</text>
</a>
</g>
</g>
<!-- Node24&#45;&gt;Node25 -->
<g id="edge34" class="edge"><title>Node24&#45;&gt;Node25</title>
<path fill="none" stroke="midnightblue" d="M998.14,-352.031C1019.8,-345.534 1045.31,-337.879 1067.97,-331.083"/>
<polygon fill="midnightblue" stroke="midnightblue" points="1069.24,-334.354 1077.82,-328.128 1067.23,-327.649 1069.24,-334.354"/>
</g>
<!-- Node26 -->
<g id="node26" class="node"><title>Node26</title>
<g id="a_node26"><a xlink:href="classMWMechanics_1_1Stat.html#a1226de512974e500c03db0ea498e7414" target="_top" xlink:title="MWMechanics::Stat::\lgetBase">
<polygon fill="white" stroke="black" points="1075.5,-347.073 1075.5,-377.073 1182.5,-377.073 1182.5,-347.073 1075.5,-347.073"/>
<text text-anchor="start" x="1083.5" y="-365.073" font-family="FreeSans" font-size="10.00">MWMechanics::Stat::</text>
<text text-anchor="middle" x="1129" y="-354.073" font-family="FreeSans" font-size="10.00">getBase</text>
</a>
</g>
</g>
<!-- Node24&#45;&gt;Node26 -->
<g id="edge35" class="edge"><title>Node24&#45;&gt;Node26</title>
<path fill="none" stroke="midnightblue" d="M1011.21,-365.317C1028.74,-364.831 1047.76,-364.302 1065.26,-363.816"/>
<polygon fill="midnightblue" stroke="midnightblue" points="1065.47,-367.312 1075.37,-363.535 1065.27,-360.314 1065.47,-367.312"/>
</g>
<!-- Node27&#45;&gt;Node6 -->
<g id="edge38" class="edge"><title>Node27&#45;&gt;Node6</title>
<path fill="none" stroke="midnightblue" d="M641.264,-208.69C695.002,-213.264 771.319,-220.23 838,-228.073 912.829,-236.874 998.193,-249.223 1056.83,-258.064"/>
<polygon fill="midnightblue" stroke="midnightblue" points="1056.31,-261.527 1066.73,-259.562 1057.36,-254.606 1056.31,-261.527"/>
</g>
<!-- Node27&#45;&gt;Node7 -->
<g id="edge39" class="edge"><title>Node27&#45;&gt;Node7</title>
<path fill="none" stroke="midnightblue" d="M641.024,-189.622C660.617,-185.804 681.891,-181.659 701.282,-177.88"/>
<polygon fill="midnightblue" stroke="midnightblue" points="702.086,-181.289 711.232,-175.941 700.747,-174.418 702.086,-181.289"/>
</g>
<!-- Node27&#45;&gt;Node8 -->
<g id="edge40" class="edge"><title>Node27&#45;&gt;Node8</title>
<path fill="none" stroke="midnightblue" d="M598.351,-187.998C623.381,-174.14 662.376,-153.734 698,-140.073 704.236,-137.682 710.895,-135.457 717.524,-133.435"/>
<polygon fill="midnightblue" stroke="midnightblue" points="718.546,-136.783 727.164,-130.62 716.583,-130.063 718.546,-136.783"/>
</g>
<!-- Node27&#45;&gt;Node9 -->
<g id="edge41" class="edge"><title>Node27&#45;&gt;Node9</title>
<path fill="none" stroke="midnightblue" d="M638.563,-218.092C663.567,-223.734 691.599,-230.06 715.08,-235.358"/>
<polygon fill="midnightblue" stroke="midnightblue" points="714.318,-238.774 724.843,-237.561 715.858,-231.945 714.318,-238.774"/>
</g>
<!-- Node28&#45;&gt;Node6 -->
<g id="edge43" class="edge"><title>Node28&#45;&gt;Node6</title>
<path fill="none" stroke="midnightblue" d="M1005.45,-274.52C1020.56,-273.849 1037.08,-273.114 1052.96,-272.408"/>
<polygon fill="midnightblue" stroke="midnightblue" points="1053.45,-275.89 1063.28,-271.95 1053.14,-268.897 1053.45,-275.89"/>
</g>
</g>
</svg>
