<?xml version="1.0" encoding="UTF-8" standalone="no"?>
<!DOCTYPE svg PUBLIC "-//W3C//DTD SVG 1.1//EN"
 "http://www.w3.org/Graphics/SVG/1.1/DTD/svg11.dtd">
<!-- Generated by graphviz version 2.36.0 (20140111.2315)
 -->
<!-- Title: CSMWorld::Data Pages: 1 -->
<svg width="124pt" height="458pt"
 viewBox="0.00 0.00 124.00 458.00" xmlns="http://www.w3.org/2000/svg" xmlns:xlink="http://www.w3.org/1999/xlink">
<g id="graph0" class="graph" transform="scale(1 1) rotate(0) translate(4 454)">
<title>CSMWorld::Data</title>
<polygon fill="white" stroke="none" points="-4,4 -4,-454 120,-454 120,4 -4,4"/>
<!-- Node1 -->
<g id="node1" class="node"><title>Node1</title>
<polygon fill="#bfbfbf" stroke="black" points="-0.5,-1 -0.5,-355 116.5,-355 116.5,-1 -0.5,-1"/>
<text text-anchor="middle" x="58" y="-343" font-family="FreeSans" font-size="10.00">CSMWorld::Data</text>
<polyline fill="none" stroke="black" points="-0.5,-336 116.5,-336 "/>
<text text-anchor="start" x="7.5" y="-324" font-family="FreeSans" font-size="10.00">&#45; mEncoder</text>
<text text-anchor="start" x="7.5" y="-313" font-family="FreeSans" font-size="10.00">&#45; mGlobals</text>
<text text-anchor="start" x="7.5" y="-302" font-family="FreeSans" font-size="10.00">&#45; mGmsts</text>
<text text-anchor="start" x="7.5" y="-291" font-family="FreeSans" font-size="10.00">&#45; mSkills</text>
<text text-anchor="start" x="7.5" y="-280" font-family="FreeSans" font-size="10.00">&#45; mClasses</text>
<text text-anchor="start" x="7.5" y="-269" font-family="FreeSans" font-size="10.00">&#45; mFactions</text>
<text text-anchor="start" x="7.5" y="-258" font-family="FreeSans" font-size="10.00">&#45; mRaces</text>
<text text-anchor="start" x="7.5" y="-247" font-family="FreeSans" font-size="10.00">&#45; mSounds</text>
<text text-anchor="start" x="7.5" y="-236" font-family="FreeSans" font-size="10.00">&#45; mScripts</text>
<text text-anchor="start" x="7.5" y="-225" font-family="FreeSans" font-size="10.00">&#45; mRegions</text>
<text text-anchor="start" x="7.5" y="-214" font-family="FreeSans" font-size="10.00">and 33 more...</text>
<polyline fill="none" stroke="black" points="-0.5,-207 116.5,-207 "/>
<text text-anchor="start" x="7.5" y="-195" font-family="FreeSans" font-size="10.00">+ Data()</text>
<text text-anchor="start" x="7.5" y="-184" font-family="FreeSans" font-size="10.00">+ ~Data()</text>
<text text-anchor="start" x="7.5" y="-173" font-family="FreeSans" font-size="10.00">+ getVFS()</text>
<text text-anchor="start" x="7.5" y="-162" font-family="FreeSans" font-size="10.00">+ getFallbackMap()</text>
<text text-anchor="start" x="7.5" y="-151" font-family="FreeSans" font-size="10.00">+ getResourceSystem()</text>
<text text-anchor="start" x="7.5" y="-140" font-family="FreeSans" font-size="10.00">+ getResourceSystem()</text>
<text text-anchor="start" x="7.5" y="-129" font-family="FreeSans" font-size="10.00">+ getGlobals()</text>
<text text-anchor="start" x="7.5" y="-118" font-family="FreeSans" font-size="10.00">+ getGlobals()</text>
<text text-anchor="start" x="7.5" y="-107" font-family="FreeSans" font-size="10.00">+ getGmsts()</text>
<text text-anchor="start" x="7.5" y="-96" font-family="FreeSans" font-size="10.00">+ getGmsts()</text>
<text text-anchor="start" x="7.5" y="-85" font-family="FreeSans" font-size="10.00">and 62 more...</text>
<text text-anchor="start" x="7.5" y="-74" font-family="FreeSans" font-size="10.00">&#45; Data()</text>
<text text-anchor="start" x="7.5" y="-63" font-family="FreeSans" font-size="10.00">&#45; operator=()</text>
<text text-anchor="start" x="7.5" y="-52" font-family="FreeSans" font-size="10.00">&#45; addModel()</text>
<text text-anchor="start" x="7.5" y="-41" font-family="FreeSans" font-size="10.00">&#45; appendIds()</text>
<text text-anchor="start" x="7.5" y="-30" font-family="FreeSans" font-size="10.00">&#45; count()</text>
<text text-anchor="start" x="7.5" y="-19" font-family="FreeSans" font-size="10.00">&#45; dataChanged()</text>
<text text-anchor="start" x="7.5" y="-8" font-family="FreeSans" font-size="10.00">&#45; rowsChanged()</text>
</g>
<!-- Node2 -->
<g id="node2" class="node"><title>Node2</title>
<g id="a_node2"><a xlink:href="classQObject.html" target="_top" xlink:title="{QObject\n||}">
<polygon fill="white" stroke="black" points="31.5,-392.5 31.5,-449.5 84.5,-449.5 84.5,-392.5 31.5,-392.5"/>
<text text-anchor="middle" x="58" y="-437.5" font-family="FreeSans" font-size="10.00">QObject</text>
<polyline fill="none" stroke="black" points="31.5,-430.5 84.5,-430.5 "/>
<text text-anchor="middle" x="58" y="-418.5" font-family="FreeSans" font-size="10.00"> </text>
<polyline fill="none" stroke="black" points="31.5,-411.5 84.5,-411.5 "/>
<text text-anchor="middle" x="58" y="-399.5" font-family="FreeSans" font-size="10.00"> </text>
</a>
</g>
</g>
<!-- Node2&#45;&gt;Node1 -->
<g id="edge1" class="edge"><title>Node2&#45;&gt;Node1</title>
<path fill="none" stroke="midnightblue" d="M58,-382.24C58,-374.097 58,-364.979 58,-355.238"/>
<polygon fill="none" stroke="midnightblue" points="54.5001,-382.354 58,-392.354 61.5001,-382.354 54.5001,-382.354"/>
</g>
</g>
</svg>
