<?xml version="1.0" encoding="UTF-8" standalone="no"?>
<!DOCTYPE svg PUBLIC "-//W3C//DTD SVG 1.1//EN"
 "http://www.w3.org/Graphics/SVG/1.1/DTD/svg11.dtd">
<!-- Generated by graphviz version 2.36.0 (20140111.2315)
 -->
<!-- Title: NifOsg::GeomMorpherController Pages: 1 -->
<svg width="456pt" height="874pt"
 viewBox="0.00 0.00 456.00 874.00" xmlns="http://www.w3.org/2000/svg" xmlns:xlink="http://www.w3.org/1999/xlink">
<g id="graph0" class="graph" transform="scale(1 1) rotate(0) translate(4 870)">
<title>NifOsg::GeomMorpherController</title>
<polygon fill="white" stroke="none" points="-4,4 -4,-870 452,-870 452,4 -4,4"/>
<!-- Node1 -->
<g id="node1" class="node"><title>Node1</title>
<polygon fill="#bfbfbf" stroke="black" points="109.5,-0.5 109.5,-79.5 262.5,-79.5 262.5,-0.5 109.5,-0.5"/>
<text text-anchor="middle" x="186" y="-67.5" font-family="FreeSans" font-size="10.00">NifOsg::GeomMorpherController</text>
<polyline fill="none" stroke="black" points="109.5,-60.5 262.5,-60.5 "/>
<text text-anchor="middle" x="186" y="-48.5" font-family="FreeSans" font-size="10.00"> </text>
<polyline fill="none" stroke="black" points="109.5,-41.5 262.5,-41.5 "/>
<text text-anchor="start" x="117.5" y="-29.5" font-family="FreeSans" font-size="10.00">+ GeomMorpherController()</text>
<text text-anchor="start" x="117.5" y="-18.5" font-family="FreeSans" font-size="10.00">+ GeomMorpherController()</text>
<text text-anchor="start" x="117.5" y="-7.5" font-family="FreeSans" font-size="10.00">+ GeomMorpherController()</text>
</g>
<!-- Node2 -->
<g id="node2" class="node"><title>Node2</title>
<g id="a_node2"><a xlink:href="classosg_1_1Drawable_1_1UpdateCallback.html" target="_top" xlink:title="{UpdateCallback\n||}">
<polygon fill="white" stroke="black" points="30.5,-167.5 30.5,-224.5 115.5,-224.5 115.5,-167.5 30.5,-167.5"/>
<text text-anchor="middle" x="73" y="-212.5" font-family="FreeSans" font-size="10.00">UpdateCallback</text>
<polyline fill="none" stroke="black" points="30.5,-205.5 115.5,-205.5 "/>
<text text-anchor="middle" x="73" y="-193.5" font-family="FreeSans" font-size="10.00"> </text>
<polyline fill="none" stroke="black" points="30.5,-186.5 115.5,-186.5 "/>
<text text-anchor="middle" x="73" y="-174.5" font-family="FreeSans" font-size="10.00"> </text>
</a>
</g>
</g>
<!-- Node2&#45;&gt;Node1 -->
<g id="edge1" class="edge"><title>Node2&#45;&gt;Node1</title>
<path fill="none" stroke="midnightblue" d="M99.1524,-159.359C116.677,-135.475 139.741,-104.043 157.696,-79.5735"/>
<polygon fill="none" stroke="midnightblue" points="96.2962,-157.335 93.2021,-167.468 101.94,-161.476 96.2962,-157.335"/>
</g>
<!-- Node3 -->
<g id="node3" class="node"><title>Node3</title>
<g id="a_node3"><a xlink:href="classSceneUtil_1_1Controller.html" target="_top" xlink:title="{SceneUtil::Controller\n||+ Controller()\l+ ~Controller()\l+ hasInput()\l+ getInputValue()\l+ setSource()\l+ setFunction()\l+ getSource()\l+ getFunction()\l}">
<polygon fill="white" stroke="black" points="134,-129 134,-263 238,-263 238,-129 134,-129"/>
<text text-anchor="middle" x="186" y="-251" font-family="FreeSans" font-size="10.00">SceneUtil::Controller</text>
<polyline fill="none" stroke="black" points="134,-244 238,-244 "/>
<text text-anchor="middle" x="186" y="-232" font-family="FreeSans" font-size="10.00"> </text>
<polyline fill="none" stroke="black" points="134,-225 238,-225 "/>
<text text-anchor="start" x="142" y="-213" font-family="FreeSans" font-size="10.00">+ Controller()</text>
<text text-anchor="start" x="142" y="-202" font-family="FreeSans" font-size="10.00">+ ~Controller()</text>
<text text-anchor="start" x="142" y="-191" font-family="FreeSans" font-size="10.00">+ hasInput()</text>
<text text-anchor="start" x="142" y="-180" font-family="FreeSans" font-size="10.00">+ getInputValue()</text>
<text text-anchor="start" x="142" y="-169" font-family="FreeSans" font-size="10.00">+ setSource()</text>
<text text-anchor="start" x="142" y="-158" font-family="FreeSans" font-size="10.00">+ setFunction()</text>
<text text-anchor="start" x="142" y="-147" font-family="FreeSans" font-size="10.00">+ getSource()</text>
<text text-anchor="start" x="142" y="-136" font-family="FreeSans" font-size="10.00">+ getFunction()</text>
</a>
</g>
</g>
<!-- Node3&#45;&gt;Node1 -->
<g id="edge2" class="edge"><title>Node3&#45;&gt;Node1</title>
<path fill="none" stroke="midnightblue" d="M186,-118.504C186,-105.003 186,-91.4817 186,-79.5999"/>
<polygon fill="none" stroke="midnightblue" points="182.5,-118.796 186,-128.796 189.5,-118.796 182.5,-118.796"/>
</g>
<!-- Node4 -->
<g id="node4" class="node"><title>Node4</title>
<polygon fill="white" stroke="#bfbfbf" points="0,-329 0,-397 112,-397 112,-329 0,-329"/>
<text text-anchor="start" x="8" y="-385" font-family="FreeSans" font-size="10.00">shared_ptr&lt; SceneUtil</text>
<text text-anchor="middle" x="56" y="-374" font-family="FreeSans" font-size="10.00">::ControllerSource &gt;</text>
<polyline fill="none" stroke="#bfbfbf" points="0,-367 112,-367 "/>
<text text-anchor="middle" x="56" y="-355" font-family="FreeSans" font-size="10.00"> </text>
<polyline fill="none" stroke="#bfbfbf" points="0,-348 112,-348 "/>
<text text-anchor="middle" x="56" y="-336" font-family="FreeSans" font-size="10.00"> </text>
</g>
<!-- Node4&#45;&gt;Node3 -->
<g id="edge3" class="edge"><title>Node4&#45;&gt;Node3</title>
<path fill="none" stroke="#404040" d="M82.3074,-328.61C95.0592,-312.425 110.935,-292.275 126.4,-272.646"/>
<polygon fill="none" stroke="#404040" points="126.517,-272.498 127.088,-265.31 133.943,-263.072 133.372,-270.261 126.517,-272.498"/>
<text text-anchor="middle" x="140.5" y="-285.5" font-family="FreeSans" font-size="10.00"> &#45;mSource</text>
</g>
<!-- Node5 -->
<g id="node5" class="node"><title>Node5</title>
<polygon fill="white" stroke="#bfbfbf" points="130,-329 130,-397 242,-397 242,-329 130,-329"/>
<text text-anchor="start" x="138" y="-385" font-family="FreeSans" font-size="10.00">shared_ptr&lt; SceneUtil</text>
<text text-anchor="middle" x="186" y="-374" font-family="FreeSans" font-size="10.00">::ControllerFunction &gt;</text>
<polyline fill="none" stroke="#bfbfbf" points="130,-367 242,-367 "/>
<text text-anchor="middle" x="186" y="-355" font-family="FreeSans" font-size="10.00"> </text>
<polyline fill="none" stroke="#bfbfbf" points="130,-348 242,-348 "/>
<text text-anchor="middle" x="186" y="-336" font-family="FreeSans" font-size="10.00"> </text>
</g>
<!-- Node5&#45;&gt;Node3 -->
<g id="edge4" class="edge"><title>Node5&#45;&gt;Node3</title>
<path fill="none" stroke="#404040" d="M186,-328.61C186,-313.161 186,-294.099 186,-275.326"/>
<polygon fill="none" stroke="#404040" points="186,-275.072 182,-269.072 186,-263.072 190,-269.072 186,-275.072"/>
<text text-anchor="middle" x="212" y="-285.5" font-family="FreeSans" font-size="10.00"> &#45;mFunction</text>
</g>
<!-- Node6 -->
<g id="node6" class="node"><title>Node6</title>
<polygon fill="white" stroke="#bfbfbf" points="256.5,-162 256.5,-230 417.5,-230 417.5,-162 256.5,-162"/>
<text text-anchor="start" x="264.5" y="-218" font-family="FreeSans" font-size="10.00">std::vector&lt; ValueInterpolator</text>
<text text-anchor="middle" x="337" y="-207" font-family="FreeSans" font-size="10.00">&lt; Nif::FloatKeyMap, LerpFunc &gt; &gt;</text>
<polyline fill="none" stroke="#bfbfbf" points="256.5,-200 417.5,-200 "/>
<text text-anchor="middle" x="337" y="-188" font-family="FreeSans" font-size="10.00"> </text>
<polyline fill="none" stroke="#bfbfbf" points="256.5,-181 417.5,-181 "/>
<text text-anchor="middle" x="337" y="-169" font-family="FreeSans" font-size="10.00"> </text>
</g>
<!-- Node6&#45;&gt;Node1 -->
<g id="edge5" class="edge"><title>Node6&#45;&gt;Node1</title>
<path fill="none" stroke="#404040" d="M304.607,-161.963C283.629,-140.569 255.975,-112.365 232.646,-88.5728"/>
<polygon fill="none" stroke="#404040" points="232.341,-88.2621 225.285,-86.7784 223.94,-79.6937 230.997,-81.1774 232.341,-88.2621"/>
<text text-anchor="middle" x="283.5" y="-101.5" font-family="FreeSans" font-size="10.00"> &#45;mKeyFrames</text>
</g>
<!-- Node7 -->
<g id="node7" class="node"><title>Node7</title>
<g id="a_node7"><a xlink:href="classNifOsg_1_1ValueInterpolator.html" target="_top" xlink:title="{NifOsg::ValueInterpolator\l\&lt; Nif::FloatKeyMap, LerpFunc \&gt;\n||+ ValueInterpolator()\l+ ValueInterpolator()\l+ interpKey()\l+ empty()\l}">
<polygon fill="white" stroke="black" points="261,-312.5 261,-413.5 413,-413.5 413,-312.5 261,-312.5"/>
<text text-anchor="start" x="269" y="-401.5" font-family="FreeSans" font-size="10.00">NifOsg::ValueInterpolator</text>
<text text-anchor="middle" x="337" y="-390.5" font-family="FreeSans" font-size="10.00">&lt; Nif::FloatKeyMap, LerpFunc &gt;</text>
<polyline fill="none" stroke="black" points="261,-383.5 413,-383.5 "/>
<text text-anchor="middle" x="337" y="-371.5" font-family="FreeSans" font-size="10.00"> </text>
<polyline fill="none" stroke="black" points="261,-364.5 413,-364.5 "/>
<text text-anchor="start" x="269" y="-352.5" font-family="FreeSans" font-size="10.00">+ ValueInterpolator()</text>
<text text-anchor="start" x="269" y="-341.5" font-family="FreeSans" font-size="10.00">+ ValueInterpolator()</text>
<text text-anchor="start" x="269" y="-330.5" font-family="FreeSans" font-size="10.00">+ interpKey()</text>
<text text-anchor="start" x="269" y="-319.5" font-family="FreeSans" font-size="10.00">+ empty()</text>
</a>
</g>
</g>
<!-- Node7&#45;&gt;Node6 -->
<g id="edge6" class="edge"><title>Node7&#45;&gt;Node6</title>
<path fill="none" stroke="#404040" d="M337,-312.495C337,-290.197 337,-264.049 337,-242.277"/>
<polygon fill="none" stroke="#404040" points="337,-242.026 333,-236.026 337,-230.026 341,-236.026 337,-242.026"/>
<text text-anchor="middle" x="361" y="-285.5" font-family="FreeSans" font-size="10.00"> +elements</text>
</g>
<!-- Node8 -->
<g id="node8" class="node"><title>Node8</title>
<g id="a_node8"><a xlink:href="structNif_1_1KeyMapT.html" target="_top" xlink:title="{Nif::KeyMapT\&lt; T, getValue \&gt;\n||+ KeyMapT()\l+ read()\l&#45; readValue()\l&#45; readQuadratic()\l&#45; readQuadratic()\l&#45; readTBC()\l}">
<polygon fill="white" stroke="black" points="183,-485 183,-597 323,-597 323,-485 183,-485"/>
<text text-anchor="middle" x="253" y="-585" font-family="FreeSans" font-size="10.00">Nif::KeyMapT&lt; T, getValue &gt;</text>
<polyline fill="none" stroke="black" points="183,-578 323,-578 "/>
<text text-anchor="middle" x="253" y="-566" font-family="FreeSans" font-size="10.00"> </text>
<polyline fill="none" stroke="black" points="183,-559 323,-559 "/>
<text text-anchor="start" x="191" y="-547" font-family="FreeSans" font-size="10.00">+ KeyMapT()</text>
<text text-anchor="start" x="191" y="-536" font-family="FreeSans" font-size="10.00">+ read()</text>
<text text-anchor="start" x="191" y="-525" font-family="FreeSans" font-size="10.00">&#45; readValue()</text>
<text text-anchor="start" x="191" y="-514" font-family="FreeSans" font-size="10.00">&#45; readQuadratic()</text>
<text text-anchor="start" x="191" y="-503" font-family="FreeSans" font-size="10.00">&#45; readQuadratic()</text>
<text text-anchor="start" x="191" y="-492" font-family="FreeSans" font-size="10.00">&#45; readTBC()</text>
</a>
</g>
</g>
<!-- Node8&#45;&gt;Node7 -->
<g id="edge7" class="edge"><title>Node8&#45;&gt;Node7</title>
<path fill="none" stroke="#404040" d="M268.613,-484.972C274.387,-467.611 281.605,-448.632 290,-432 291.358,-429.31 292.809,-426.603 294.33,-423.901"/>
<polygon fill="none" stroke="#404040" points="294.353,-423.861 293.98,-416.66 300.484,-413.546 300.857,-420.747 294.353,-423.861"/>
<text text-anchor="middle" x="323" y="-457.5" font-family="FreeSans" font-size="10.00"> &#45;mDefaultVal</text>
<text text-anchor="middle" x="323" y="-446.5" font-family="FreeSans" font-size="10.00">&#45;mLastHighKey</text>
<text text-anchor="middle" x="323" y="-435.5" font-family="FreeSans" font-size="10.00">&#45;mLastLowKey</text>
</g>
<!-- Node9 -->
<g id="node9" class="node"><title>Node9</title>
<polygon fill="white" stroke="#bfbfbf" points="131.5,-691 131.5,-759 238.5,-759 238.5,-691 131.5,-691"/>
<text text-anchor="start" x="139.5" y="-747" font-family="FreeSans" font-size="10.00">std::map&lt; float, KeyT</text>
<text text-anchor="middle" x="185" y="-736" font-family="FreeSans" font-size="10.00">&lt; T &gt; &gt;</text>
<polyline fill="none" stroke="#bfbfbf" points="131.5,-729 238.5,-729 "/>
<text text-anchor="middle" x="185" y="-717" font-family="FreeSans" font-size="10.00"> </text>
<polyline fill="none" stroke="#bfbfbf" points="131.5,-710 238.5,-710 "/>
<text text-anchor="middle" x="185" y="-698" font-family="FreeSans" font-size="10.00"> </text>
</g>
<!-- Node9&#45;&gt;Node8 -->
<g id="edge8" class="edge"><title>Node9&#45;&gt;Node8</title>
<path fill="none" stroke="#404040" d="M196.243,-690.767C203.604,-669.334 213.574,-640.911 223,-616 223.937,-613.524 224.901,-611.006 225.882,-608.466"/>
<polygon fill="none" stroke="#404040" points="225.899,-608.423 224.361,-601.377 230.273,-597.248 231.811,-604.293 225.899,-608.423"/>
<text text-anchor="middle" x="242" y="-641.5" font-family="FreeSans" font-size="10.00"> +mKeys</text>
</g>
<!-- Node10 -->
<g id="node10" class="node"><title>Node10</title>
<polygon fill="white" stroke="#bfbfbf" points="134.5,-808.5 134.5,-865.5 169.5,-865.5 169.5,-808.5 134.5,-808.5"/>
<text text-anchor="middle" x="152" y="-853.5" font-family="FreeSans" font-size="10.00">float</text>
<polyline fill="none" stroke="#bfbfbf" points="134.5,-846.5 169.5,-846.5 "/>
<text text-anchor="middle" x="152" y="-834.5" font-family="FreeSans" font-size="10.00"> </text>
<polyline fill="none" stroke="#bfbfbf" points="134.5,-827.5 169.5,-827.5 "/>
<text text-anchor="middle" x="152" y="-815.5" font-family="FreeSans" font-size="10.00"> </text>
</g>
<!-- Node10&#45;&gt;Node9 -->
<g id="edge9" class="edge"><title>Node10&#45;&gt;Node9</title>
<path fill="none" stroke="#404040" d="M160.053,-808.246C162.857,-798.656 166.042,-787.848 169,-778 169.711,-775.632 170.444,-773.205 171.187,-770.756"/>
<polygon fill="none" stroke="#404040" points="171.19,-770.746 169.115,-763.84 174.691,-759.268 176.767,-766.174 171.19,-770.746"/>
<text text-anchor="middle" x="183" y="-781.5" font-family="FreeSans" font-size="10.00"> +keys</text>
</g>
<!-- Node11 -->
<g id="node11" class="node"><title>Node11</title>
<polygon fill="white" stroke="#bfbfbf" points="188,-808.5 188,-865.5 250,-865.5 250,-808.5 188,-808.5"/>
<text text-anchor="middle" x="219" y="-853.5" font-family="FreeSans" font-size="10.00">KeyT&lt; T &gt;</text>
<polyline fill="none" stroke="#bfbfbf" points="188,-846.5 250,-846.5 "/>
<text text-anchor="middle" x="219" y="-834.5" font-family="FreeSans" font-size="10.00"> </text>
<polyline fill="none" stroke="#bfbfbf" points="188,-827.5 250,-827.5 "/>
<text text-anchor="middle" x="219" y="-815.5" font-family="FreeSans" font-size="10.00"> </text>
</g>
<!-- Node11&#45;&gt;Node9 -->
<g id="edge10" class="edge"><title>Node11&#45;&gt;Node9</title>
<path fill="none" stroke="#404040" d="M210.42,-808.242C206.932,-796.956 202.811,-783.622 198.913,-771.013"/>
<polygon fill="none" stroke="#404040" points="198.817,-770.702 193.223,-766.15 195.273,-759.237 200.867,-763.788 198.817,-770.702"/>
<text text-anchor="middle" x="228" y="-781.5" font-family="FreeSans" font-size="10.00"> +elements</text>
</g>
<!-- Node12 -->
<g id="node12" class="node"><title>Node12</title>
<polygon fill="white" stroke="#bfbfbf" points="256.5,-696.5 256.5,-753.5 311.5,-753.5 311.5,-696.5 256.5,-696.5"/>
<text text-anchor="middle" x="284" y="-741.5" font-family="FreeSans" font-size="10.00">unsigned</text>
<polyline fill="none" stroke="#bfbfbf" points="256.5,-734.5 311.5,-734.5 "/>
<text text-anchor="middle" x="284" y="-722.5" font-family="FreeSans" font-size="10.00"> </text>
<polyline fill="none" stroke="#bfbfbf" points="256.5,-715.5 311.5,-715.5 "/>
<text text-anchor="middle" x="284" y="-703.5" font-family="FreeSans" font-size="10.00"> </text>
</g>
<!-- Node12&#45;&gt;Node8 -->
<g id="edge11" class="edge"><title>Node12&#45;&gt;Node8</title>
<path fill="none" stroke="#404040" d="M279.292,-696.358C275.362,-673.285 269.594,-639.423 264.461,-609.289"/>
<polygon fill="none" stroke="#404040" points="264.398,-608.914 259.447,-603.671 262.383,-597.084 267.333,-602.328 264.398,-608.914"/>
<text text-anchor="middle" x="327" y="-663.5" font-family="FreeSans" font-size="10.00"> +mInterpolationType</text>
<text text-anchor="middle" x="327" y="-652.5" font-family="FreeSans" font-size="10.00">+sTBCInterpolation</text>
<text text-anchor="middle" x="327" y="-641.5" font-family="FreeSans" font-size="10.00">+sLinearInterpolation</text>
<text text-anchor="middle" x="327" y="-630.5" font-family="FreeSans" font-size="10.00">+sXYZInterpolation</text>
<text text-anchor="middle" x="327" y="-619.5" font-family="FreeSans" font-size="10.00">+sQuadraticInterpolation</text>
</g>
<!-- Node13 -->
<g id="node13" class="node"><title>Node13</title>
<polygon fill="white" stroke="#bfbfbf" points="341.5,-507 341.5,-575 448.5,-575 448.5,-507 341.5,-507"/>
<text text-anchor="start" x="349.5" y="-563" font-family="FreeSans" font-size="10.00">shared_ptr&lt; const Nif</text>
<text text-anchor="middle" x="395" y="-552" font-family="FreeSans" font-size="10.00">::FloatKeyMap &gt;</text>
<polyline fill="none" stroke="#bfbfbf" points="341.5,-545 448.5,-545 "/>
<text text-anchor="middle" x="395" y="-533" font-family="FreeSans" font-size="10.00"> </text>
<polyline fill="none" stroke="#bfbfbf" points="341.5,-526 448.5,-526 "/>
<text text-anchor="middle" x="395" y="-514" font-family="FreeSans" font-size="10.00"> </text>
</g>
<!-- Node13&#45;&gt;Node7 -->
<g id="edge12" class="edge"><title>Node13&#45;&gt;Node7</title>
<path fill="none" stroke="#404040" d="M384.091,-506.896C376.51,-483.894 366.185,-452.56 357.134,-425.095"/>
<polygon fill="none" stroke="#404040" points="357.1,-424.994 351.423,-420.547 353.344,-413.597 359.021,-418.043 357.1,-424.994"/>
<text text-anchor="middle" x="386.5" y="-446.5" font-family="FreeSans" font-size="10.00"> &#45;mKeys</text>
</g>
</g>
</svg>
