<?xml version="1.0" encoding="UTF-8" standalone="no"?>
<!DOCTYPE svg PUBLIC "-//W3C//DTD SVG 1.1//EN"
 "http://www.w3.org/Graphics/SVG/1.1/DTD/svg11.dtd">
<!-- Generated by graphviz version 2.36.0 (20140111.2315)
 -->
<!-- Title: CSMWorld::ScriptContext::clearLocals Pages: 1 -->
<svg width="552pt" height="38pt"
 viewBox="0.00 0.00 552.00 38.00" xmlns="http://www.w3.org/2000/svg" xmlns:xlink="http://www.w3.org/1999/xlink">
<g id="graph0" class="graph" transform="scale(1 1) rotate(0) translate(4 34)">
<title>CSMWorld::ScriptContext::clearLocals</title>
<polygon fill="white" stroke="none" points="-4,4 -4,-34 548,-34 548,4 -4,4"/>
<!-- Node1 -->
<g id="node1" class="node"><title>Node1</title>
<polygon fill="#bfbfbf" stroke="black" points="0.5,-0 0.5,-30 135.5,-30 135.5,-0 0.5,-0"/>
<text text-anchor="start" x="8.5" y="-18" font-family="FreeSans" font-size="10.00">CSMWorld::ScriptContext</text>
<text text-anchor="middle" x="68" y="-7" font-family="FreeSans" font-size="10.00">::clearLocals</text>
</g>
<!-- Node2 -->
<g id="node2" class="node"><title>Node2</title>
<g id="a_node2"><a xlink:href="classMisc_1_1StringUtils.html#a2982264998fde90a8e01ebab4bd69e14" target="_top" xlink:title="Returns lower case copy of input string. ">
<polygon fill="white" stroke="black" points="172.5,-0 172.5,-30 271.5,-30 271.5,-0 172.5,-0"/>
<text text-anchor="start" x="180.5" y="-18" font-family="FreeSans" font-size="10.00">Misc::StringUtils::</text>
<text text-anchor="middle" x="222" y="-7" font-family="FreeSans" font-size="10.00">lowerCase</text>
</a>
</g>
</g>
<!-- Node1&#45;&gt;Node2 -->
<g id="edge1" class="edge"><title>Node1&#45;&gt;Node2</title>
<path fill="none" stroke="midnightblue" d="M135.669,-15C144.499,-15 153.498,-15 162.182,-15"/>
<polygon fill="midnightblue" stroke="midnightblue" points="162.202,-18.5001 172.202,-15 162.202,-11.5001 162.202,-18.5001"/>
</g>
<!-- Node3 -->
<g id="node3" class="node"><title>Node3</title>
<g id="a_node3"><a xlink:href="classMisc_1_1StringUtils.html#a249dcf40e5ef16618daf8bf5d2098c54" target="_top" xlink:title="Transforms input string to lower case w/o copy. ">
<polygon fill="white" stroke="black" points="308.5,-0 308.5,-30 407.5,-30 407.5,-0 308.5,-0"/>
<text text-anchor="start" x="316.5" y="-18" font-family="FreeSans" font-size="10.00">Misc::StringUtils::</text>
<text text-anchor="middle" x="358" y="-7" font-family="FreeSans" font-size="10.00">lowerCaseInPlace</text>
</a>
</g>
</g>
<!-- Node2&#45;&gt;Node3 -->
<g id="edge2" class="edge"><title>Node2&#45;&gt;Node3</title>
<path fill="none" stroke="midnightblue" d="M271.756,-15C280.254,-15 289.176,-15 297.916,-15"/>
<polygon fill="midnightblue" stroke="midnightblue" points="298.056,-18.5001 308.056,-15 298.056,-11.5001 298.056,-18.5001"/>
</g>
<!-- Node4 -->
<g id="node4" class="node"><title>Node4</title>
<g id="a_node4"><a xlink:href="classMisc_1_1StringUtils.html#a0759adb102842ee3bced227707eb6949" target="_top" xlink:title="Misc::StringUtils::\ltoLower">
<polygon fill="white" stroke="black" points="444.5,-0 444.5,-30 543.5,-30 543.5,-0 444.5,-0"/>
<text text-anchor="start" x="452.5" y="-18" font-family="FreeSans" font-size="10.00">Misc::StringUtils::</text>
<text text-anchor="middle" x="494" y="-7" font-family="FreeSans" font-size="10.00">toLower</text>
</a>
</g>
</g>
<!-- Node3&#45;&gt;Node4 -->
<g id="edge3" class="edge"><title>Node3&#45;&gt;Node4</title>
<path fill="none" stroke="midnightblue" d="M407.756,-15C416.254,-15 425.176,-15 433.916,-15"/>
<polygon fill="midnightblue" stroke="midnightblue" points="434.056,-18.5001 444.056,-15 434.056,-11.5001 434.056,-18.5001"/>
</g>
</g>
</svg>
