<?xml version="1.0" encoding="UTF-8" standalone="no"?>
<!DOCTYPE svg PUBLIC "-//W3C//DTD SVG 1.1//EN"
 "http://www.w3.org/Graphics/SVG/1.1/DTD/svg11.dtd">
<!-- Generated by graphviz version 2.36.0 (20140111.2315)
 -->
<!-- Title: MWGui::TimeAdvancer Pages: 1 -->
<svg width="541pt" height="262pt"
 viewBox="0.00 0.00 541.00 262.00" xmlns="http://www.w3.org/2000/svg" xmlns:xlink="http://www.w3.org/1999/xlink">
<g id="graph0" class="graph" transform="scale(1 1) rotate(0) translate(4 258)">
<title>MWGui::TimeAdvancer</title>
<polygon fill="white" stroke="none" points="-4,4 -4,-258 537,-258 537,4 -4,4"/>
<!-- Node1 -->
<g id="node1" class="node"><title>Node1</title>
<polygon fill="#bfbfbf" stroke="black" points="156.5,-1 156.5,-113 279.5,-113 279.5,-1 156.5,-1"/>
<text text-anchor="middle" x="218" y="-101" font-family="FreeSans" font-size="10.00">MWGui::TimeAdvancer</text>
<polyline fill="none" stroke="black" points="156.5,-94 279.5,-94 "/>
<text text-anchor="middle" x="218" y="-82" font-family="FreeSans" font-size="10.00"> </text>
<polyline fill="none" stroke="black" points="156.5,-75 279.5,-75 "/>
<text text-anchor="start" x="164.5" y="-63" font-family="FreeSans" font-size="10.00">+ TimeAdvancer()</text>
<text text-anchor="start" x="164.5" y="-52" font-family="FreeSans" font-size="10.00">+ run()</text>
<text text-anchor="start" x="164.5" y="-41" font-family="FreeSans" font-size="10.00">+ stop()</text>
<text text-anchor="start" x="164.5" y="-30" font-family="FreeSans" font-size="10.00">+ onFrame()</text>
<text text-anchor="start" x="164.5" y="-19" font-family="FreeSans" font-size="10.00">+ getHours()</text>
<text text-anchor="start" x="164.5" y="-8" font-family="FreeSans" font-size="10.00">+ isRunning()</text>
</g>
<!-- Node2 -->
<g id="node2" class="node"><title>Node2</title>
<polygon fill="white" stroke="#bfbfbf" points="0,-190.5 0,-247.5 38,-247.5 38,-190.5 0,-190.5"/>
<text text-anchor="middle" x="19" y="-235.5" font-family="FreeSans" font-size="10.00">float</text>
<polyline fill="none" stroke="#bfbfbf" points="0,-228.5 38,-228.5 "/>
<text text-anchor="middle" x="19" y="-216.5" font-family="FreeSans" font-size="10.00"> </text>
<polyline fill="none" stroke="#bfbfbf" points="0,-209.5 38,-209.5 "/>
<text text-anchor="middle" x="19" y="-197.5" font-family="FreeSans" font-size="10.00"> </text>
</g>
<!-- Node2&#45;&gt;Node1 -->
<g id="edge1" class="edge"><title>Node2&#45;&gt;Node1</title>
<path fill="none" stroke="#404040" d="M20.5913,-190.266C23.0013,-171.798 28.8716,-148.062 43,-132 69.1312,-102.293 109.191,-84.1787 144.392,-73.3154"/>
<polygon fill="none" stroke="#404040" points="144.594,-73.2566 149.237,-67.7392 156.116,-69.9031 151.473,-75.4205 144.594,-73.2566"/>
<text text-anchor="middle" x="86.5" y="-152" font-family="FreeSans" font-size="10.00"> &#45;mDelay</text>
<text text-anchor="middle" x="86.5" y="-141" font-family="FreeSans" font-size="10.00">&#45;mRemainingTime</text>
</g>
<!-- Node3 -->
<g id="node3" class="node"><title>Node3</title>
<g id="a_node3"><a xlink:href="classint.html" target="_top" xlink:title="{int\n||}">
<polygon fill="white" stroke="black" points="114.5,-190.5 114.5,-247.5 143.5,-247.5 143.5,-190.5 114.5,-190.5"/>
<text text-anchor="middle" x="129" y="-235.5" font-family="FreeSans" font-size="10.00">int</text>
<polyline fill="none" stroke="black" points="114.5,-228.5 143.5,-228.5 "/>
<text text-anchor="middle" x="129" y="-216.5" font-family="FreeSans" font-size="10.00"> </text>
<polyline fill="none" stroke="black" points="114.5,-209.5 143.5,-209.5 "/>
<text text-anchor="middle" x="129" y="-197.5" font-family="FreeSans" font-size="10.00"> </text>
</a>
</g>
</g>
<!-- Node3&#45;&gt;Node1 -->
<g id="edge2" class="edge"><title>Node3&#45;&gt;Node1</title>
<path fill="none" stroke="#404040" d="M130.02,-190.312C131.638,-172.756 135.58,-150.039 145,-132 146.605,-128.926 148.381,-125.896 150.293,-122.921"/>
<polygon fill="none" stroke="#404040" points="150.349,-122.842 150.538,-115.634 157.265,-113.036 157.076,-120.244 150.349,-122.842"/>
<text text-anchor="middle" x="178" y="-157.5" font-family="FreeSans" font-size="10.00"> &#45;mHours</text>
<text text-anchor="middle" x="178" y="-146.5" font-family="FreeSans" font-size="10.00">&#45;mInterruptAt</text>
<text text-anchor="middle" x="178" y="-135.5" font-family="FreeSans" font-size="10.00">&#45;mCurHour</text>
</g>
<!-- Node4 -->
<g id="node4" class="node"><title>Node4</title>
<g id="a_node4"><a xlink:href="classbool.html" target="_top" xlink:title="{bool\n||}">
<polygon fill="white" stroke="black" points="194.5,-190.5 194.5,-247.5 231.5,-247.5 231.5,-190.5 194.5,-190.5"/>
<text text-anchor="middle" x="213" y="-235.5" font-family="FreeSans" font-size="10.00">bool</text>
<polyline fill="none" stroke="black" points="194.5,-228.5 231.5,-228.5 "/>
<text text-anchor="middle" x="213" y="-216.5" font-family="FreeSans" font-size="10.00"> </text>
<polyline fill="none" stroke="black" points="194.5,-209.5 231.5,-209.5 "/>
<text text-anchor="middle" x="213" y="-197.5" font-family="FreeSans" font-size="10.00"> </text>
</a>
</g>
</g>
<!-- Node4&#45;&gt;Node1 -->
<g id="edge3" class="edge"><title>Node4&#45;&gt;Node1</title>
<path fill="none" stroke="#404040" d="M213.86,-190.495C214.42,-172.545 215.179,-148.283 215.893,-125.426"/>
<polygon fill="none" stroke="#404040" points="215.898,-125.277 212.087,-119.155 216.272,-113.283 220.083,-119.405 215.898,-125.277"/>
<text text-anchor="middle" x="243.5" y="-146.5" font-family="FreeSans" font-size="10.00"> &#45;mRunning</text>
</g>
<!-- Node5 -->
<g id="node5" class="node"><title>Node5</title>
<polygon fill="white" stroke="#bfbfbf" points="250,-185 250,-253 372,-253 372,-185 250,-185"/>
<text text-anchor="start" x="258" y="-241" font-family="FreeSans" font-size="10.00">CMultiDelegate2&lt; int,</text>
<text text-anchor="middle" x="311" y="-230" font-family="FreeSans" font-size="10.00"> int &gt;</text>
<polyline fill="none" stroke="#bfbfbf" points="250,-223 372,-223 "/>
<text text-anchor="middle" x="311" y="-211" font-family="FreeSans" font-size="10.00"> </text>
<polyline fill="none" stroke="#bfbfbf" points="250,-204 372,-204 "/>
<text text-anchor="middle" x="311" y="-192" font-family="FreeSans" font-size="10.00"> </text>
</g>
<!-- Node5&#45;&gt;Node1 -->
<g id="edge4" class="edge"><title>Node5&#45;&gt;Node1</title>
<path fill="none" stroke="#404040" d="M299.419,-184.781C293.137,-168.408 284.677,-148.654 275,-132 273.281,-129.042 271.459,-126.07 269.562,-123.105"/>
<polygon fill="none" stroke="#404040" points="269.533,-123.061 262.873,-120.296 262.863,-113.085 269.523,-115.85 269.533,-123.061"/>
<text text-anchor="middle" x="353" y="-146.5" font-family="FreeSans" font-size="10.00"> +eventProgressChanged</text>
</g>
<!-- Node6 -->
<g id="node6" class="node"><title>Node6</title>
<polygon fill="white" stroke="#bfbfbf" points="405.5,-190.5 405.5,-247.5 500.5,-247.5 500.5,-190.5 405.5,-190.5"/>
<text text-anchor="middle" x="453" y="-235.5" font-family="FreeSans" font-size="10.00">CMultiDelegate0</text>
<polyline fill="none" stroke="#bfbfbf" points="405.5,-228.5 500.5,-228.5 "/>
<text text-anchor="middle" x="453" y="-216.5" font-family="FreeSans" font-size="10.00"> </text>
<polyline fill="none" stroke="#bfbfbf" points="405.5,-209.5 500.5,-209.5 "/>
<text text-anchor="middle" x="453" y="-197.5" font-family="FreeSans" font-size="10.00"> </text>
</g>
<!-- Node6&#45;&gt;Node1 -->
<g id="edge5" class="edge"><title>Node6&#45;&gt;Node1</title>
<path fill="none" stroke="#404040" d="M448.191,-190.3C443.618,-171.606 434.966,-147.592 419,-132 384.542,-98.3503 333.501,-79.808 291.477,-69.6996"/>
<polygon fill="none" stroke="#404040" points="291.306,-69.6608 284.569,-72.2345 279.603,-67.0064 286.339,-64.4327 291.306,-69.6608"/>
<text text-anchor="middle" x="487" y="-152" font-family="FreeSans" font-size="10.00"> +eventInterrupted</text>
<text text-anchor="middle" x="487" y="-141" font-family="FreeSans" font-size="10.00">+eventFinished</text>
</g>
</g>
</svg>
