<?xml version="1.0" encoding="UTF-8" standalone="no"?>
<!DOCTYPE svg PUBLIC "-//W3C//DTD SVG 1.1//EN"
 "http://www.w3.org/Graphics/SVG/1.1/DTD/svg11.dtd">
<!-- Generated by graphviz version 2.36.0 (20140111.2315)
 -->
<!-- Title: MWGui::TimeAdvancer::run Pages: 1 -->
<svg width="652pt" height="136pt"
 viewBox="0.00 0.00 652.00 136.00" xmlns="http://www.w3.org/2000/svg" xmlns:xlink="http://www.w3.org/1999/xlink">
<g id="graph0" class="graph" transform="scale(1 1) rotate(0) translate(4 132)">
<title>MWGui::TimeAdvancer::run</title>
<polygon fill="white" stroke="none" points="-4,4 -4,-132 648,-132 648,4 -4,4"/>
<!-- Node1 -->
<g id="node1" class="node"><title>Node1</title>
<polygon fill="#bfbfbf" stroke="black" points="0.5,-54.5 0.5,-73.5 145.5,-73.5 145.5,-54.5 0.5,-54.5"/>
<text text-anchor="middle" x="73" y="-61.5" font-family="FreeSans" font-size="10.00">MWGui::TimeAdvancer::run</text>
</g>
<!-- Node2 -->
<g id="node2" class="node"><title>Node2</title>
<g id="a_node2"><a xlink:href="classMWGui_1_1JailScreen.html#a11f7f05d506fdf5412d610f6082b3d40" target="_top" xlink:title="MWGui::JailScreen::\lonFrame">
<polygon fill="white" stroke="black" points="191.5,-98 191.5,-128 298.5,-128 298.5,-98 191.5,-98"/>
<text text-anchor="start" x="199.5" y="-116" font-family="FreeSans" font-size="10.00">MWGui::JailScreen::</text>
<text text-anchor="middle" x="245" y="-105" font-family="FreeSans" font-size="10.00">onFrame</text>
</a>
</g>
</g>
<!-- Node1&#45;&gt;Node2 -->
<g id="edge1" class="edge"><title>Node1&#45;&gt;Node2</title>
<path fill="none" stroke="midnightblue" d="M116.901,-76.3657C139.663,-82.9265 167.813,-91.0403 191.831,-97.963"/>
<polygon fill="midnightblue" stroke="midnightblue" points="117.759,-72.9706 107.181,-73.564 115.821,-79.6968 117.759,-72.9706"/>
</g>
<!-- Node4 -->
<g id="node4" class="node"><title>Node4</title>
<g id="a_node4"><a xlink:href="classMWGui_1_1TrainingWindow.html#a0f87fe9934f52a1eb4fce3332e41a80a" target="_top" xlink:title="MWGui::TrainingWindow\l::onTrainingSelected">
<polygon fill="white" stroke="black" points="182,-0 182,-30 308,-30 308,-0 182,-0"/>
<text text-anchor="start" x="190" y="-18" font-family="FreeSans" font-size="10.00">MWGui::TrainingWindow</text>
<text text-anchor="middle" x="245" y="-7" font-family="FreeSans" font-size="10.00">::onTrainingSelected</text>
</a>
</g>
</g>
<!-- Node1&#45;&gt;Node4 -->
<g id="edge3" class="edge"><title>Node1&#45;&gt;Node4</title>
<path fill="none" stroke="midnightblue" d="M116.901,-51.6343C139.663,-45.0735 167.813,-36.9597 191.831,-30.037"/>
<polygon fill="midnightblue" stroke="midnightblue" points="115.821,-48.3032 107.181,-54.436 117.759,-55.0294 115.821,-48.3032"/>
</g>
<!-- Node7 -->
<g id="node7" class="node"><title>Node7</title>
<g id="a_node7"><a xlink:href="classMWGui_1_1WaitDialog.html#acc8bc83baa048dd4b83490b5fdfacdf3" target="_top" xlink:title="MWGui::WaitDialog::\lonFrame">
<polygon fill="white" stroke="black" points="190,-49 190,-79 300,-79 300,-49 190,-49"/>
<text text-anchor="start" x="198" y="-67" font-family="FreeSans" font-size="10.00">MWGui::WaitDialog::</text>
<text text-anchor="middle" x="245" y="-56" font-family="FreeSans" font-size="10.00">onFrame</text>
</a>
</g>
</g>
<!-- Node1&#45;&gt;Node7 -->
<g id="edge6" class="edge"><title>Node1&#45;&gt;Node7</title>
<path fill="none" stroke="midnightblue" d="M155.72,-64C167.281,-64 178.923,-64 189.788,-64"/>
<polygon fill="midnightblue" stroke="midnightblue" points="155.603,-60.5001 145.603,-64 155.603,-67.5001 155.603,-60.5001"/>
</g>
<!-- Node3 -->
<g id="node3" class="node"><title>Node3</title>
<g id="a_node3"><a xlink:href="classMWGui_1_1WindowManager.html#a2f52c12d86d6bb31adc62b06cef3de19" target="_top" xlink:title="MWGui::WindowManager\l::onFrame">
<polygon fill="white" stroke="black" points="344,-73 344,-103 476,-103 476,-73 344,-73"/>
<text text-anchor="start" x="352" y="-91" font-family="FreeSans" font-size="10.00">MWGui::WindowManager</text>
<text text-anchor="middle" x="410" y="-80" font-family="FreeSans" font-size="10.00">::onFrame</text>
</a>
</g>
</g>
<!-- Node2&#45;&gt;Node3 -->
<g id="edge2" class="edge"><title>Node2&#45;&gt;Node3</title>
<path fill="none" stroke="midnightblue" d="M308.835,-103.363C320.295,-101.605 332.276,-99.7674 343.804,-97.9994"/>
<polygon fill="midnightblue" stroke="midnightblue" points="308.275,-99.9076 298.921,-104.883 309.336,-106.827 308.275,-99.9076"/>
</g>
<!-- Node5 -->
<g id="node5" class="node"><title>Node5</title>
<g id="a_node5"><a xlink:href="classMWGui_1_1TrainingWindow.html#a4d3cc02cf7e12edb40b4abfc2283faf8" target="_top" xlink:title="MWGui::TrainingWindow\l::startTraining">
<polygon fill="white" stroke="black" points="347,-0 347,-30 473,-30 473,-0 347,-0"/>
<text text-anchor="start" x="355" y="-18" font-family="FreeSans" font-size="10.00">MWGui::TrainingWindow</text>
<text text-anchor="middle" x="410" y="-7" font-family="FreeSans" font-size="10.00">::startTraining</text>
</a>
</g>
</g>
<!-- Node4&#45;&gt;Node5 -->
<g id="edge4" class="edge"><title>Node4&#45;&gt;Node5</title>
<path fill="none" stroke="midnightblue" d="M318.313,-15C327.82,-15 337.496,-15 346.814,-15"/>
<polygon fill="midnightblue" stroke="midnightblue" points="318.088,-11.5001 308.088,-15 318.088,-18.5001 318.088,-11.5001"/>
</g>
<!-- Node6 -->
<g id="node6" class="node"><title>Node6</title>
<g id="a_node6"><a xlink:href="classMWGui_1_1WindowManager.html#acb3621cc1a80db64e1ac0b9352233a73" target="_top" xlink:title="MWGui::WindowManager\l::startTraining">
<polygon fill="white" stroke="black" points="512,-0 512,-30 644,-30 644,-0 512,-0"/>
<text text-anchor="start" x="520" y="-18" font-family="FreeSans" font-size="10.00">MWGui::WindowManager</text>
<text text-anchor="middle" x="578" y="-7" font-family="FreeSans" font-size="10.00">::startTraining</text>
</a>
</g>
</g>
<!-- Node5&#45;&gt;Node6 -->
<g id="edge5" class="edge"><title>Node5&#45;&gt;Node6</title>
<path fill="none" stroke="midnightblue" d="M483.449,-15C492.904,-15 502.546,-15 511.872,-15"/>
<polygon fill="midnightblue" stroke="midnightblue" points="483.285,-11.5001 473.285,-15 483.285,-18.5001 483.285,-11.5001"/>
</g>
<!-- Node7&#45;&gt;Node3 -->
<g id="edge7" class="edge"><title>Node7&#45;&gt;Node3</title>
<path fill="none" stroke="midnightblue" d="M310.284,-73.4651C321.343,-75.0934 332.845,-76.787 343.925,-78.4184"/>
<polygon fill="midnightblue" stroke="midnightblue" points="310.68,-69.9858 300.277,-71.9917 309.66,-76.9111 310.68,-69.9858"/>
</g>
</g>
</svg>
