<?xml version="1.0" encoding="UTF-8" standalone="no"?>
<!DOCTYPE svg PUBLIC "-//W3C//DTD SVG 1.1//EN"
 "http://www.w3.org/Graphics/SVG/1.1/DTD/svg11.dtd">
<!-- Generated by graphviz version 2.36.0 (20140111.2315)
 -->
<!-- Title: MWBase::MechanicsManager::commitCrime Pages: 1 -->
<svg width="896pt" height="214pt"
 viewBox="0.00 0.00 896.00 214.00" xmlns="http://www.w3.org/2000/svg" xmlns:xlink="http://www.w3.org/1999/xlink">
<g id="graph0" class="graph" transform="scale(1 1) rotate(0) translate(4 210)">
<title>MWBase::MechanicsManager::commitCrime</title>
<polygon fill="white" stroke="none" points="-4,4 -4,-210 892,-210 892,4 -4,4"/>
<!-- Node1 -->
<g id="node1" class="node"><title>Node1</title>
<polygon fill="#bfbfbf" stroke="black" points="0.5,-73 0.5,-103 155.5,-103 155.5,-73 0.5,-73"/>
<text text-anchor="start" x="8.5" y="-91" font-family="FreeSans" font-size="10.00">MWBase::MechanicsManager</text>
<text text-anchor="middle" x="78" y="-80" font-family="FreeSans" font-size="10.00">::commitCrime</text>
</g>
<!-- Node2 -->
<g id="node2" class="node"><title>Node2</title>
<g id="a_node2"><a xlink:href="classMWGui_1_1ContainerWindow.html#a3346a52dee3c9852f784f35086b63fe5" target="_top" xlink:title="Notify that window has been hidden. ">
<polygon fill="white" stroke="black" points="192.5,-147 192.5,-177 329.5,-177 329.5,-147 192.5,-147"/>
<text text-anchor="start" x="200.5" y="-165" font-family="FreeSans" font-size="10.00">MWGui::ContainerWindow</text>
<text text-anchor="middle" x="261" y="-154" font-family="FreeSans" font-size="10.00">::close</text>
</a>
</g>
</g>
<!-- Node1&#45;&gt;Node2 -->
<g id="edge1" class="edge"><title>Node1&#45;&gt;Node2</title>
<path fill="none" stroke="midnightblue" d="M121.72,-107.206C142.764,-116.492 168.587,-127.629 192,-137 200.291,-140.319 209.214,-143.719 217.78,-146.901"/>
<polygon fill="midnightblue" stroke="midnightblue" points="122.974,-103.934 112.413,-103.083 120.138,-110.334 122.974,-103.934"/>
</g>
<!-- Node3 -->
<g id="node3" class="node"><title>Node3</title>
<g id="a_node3"><a xlink:href="classMWGui_1_1ContainerWindow.html#a2291f9984ddfa6e44c19dde407800f77" target="_top" xlink:title="MWGui::ContainerWindow\l::onTakeItem">
<polygon fill="white" stroke="black" points="192.5,-98 192.5,-128 329.5,-128 329.5,-98 192.5,-98"/>
<text text-anchor="start" x="200.5" y="-116" font-family="FreeSans" font-size="10.00">MWGui::ContainerWindow</text>
<text text-anchor="middle" x="261" y="-105" font-family="FreeSans" font-size="10.00">::onTakeItem</text>
</a>
</g>
</g>
<!-- Node1&#45;&gt;Node3 -->
<g id="edge2" class="edge"><title>Node1&#45;&gt;Node3</title>
<path fill="none" stroke="midnightblue" d="M165.776,-99.9857C174.682,-101.216 183.636,-102.453 192.293,-103.648"/>
<polygon fill="midnightblue" stroke="midnightblue" points="166.145,-96.5035 155.76,-98.6023 165.187,-103.438 166.145,-96.5035"/>
</g>
<!-- Node10 -->
<g id="node10" class="node"><title>Node10</title>
<g id="a_node10"><a xlink:href="classMWGui_1_1EnchantingDialog.html#aa23d6beb65f9018cc0e5482de7de25bf" target="_top" xlink:title="MWGui::EnchantingDialog\l::onBuyButtonClicked">
<polygon fill="white" stroke="black" points="192,-49 192,-79 330,-79 330,-49 192,-49"/>
<text text-anchor="start" x="200" y="-67" font-family="FreeSans" font-size="10.00">MWGui::EnchantingDialog</text>
<text text-anchor="middle" x="261" y="-56" font-family="FreeSans" font-size="10.00">::onBuyButtonClicked</text>
</a>
</g>
</g>
<!-- Node1&#45;&gt;Node10 -->
<g id="edge12" class="edge"><title>Node1&#45;&gt;Node10</title>
<path fill="none" stroke="midnightblue" d="M165.899,-76.4774C174.57,-75.3277 183.285,-74.1722 191.725,-73.0531"/>
<polygon fill="midnightblue" stroke="midnightblue" points="165.213,-73.0377 155.76,-77.8218 166.134,-79.9769 165.213,-73.0377"/>
</g>
<!-- Node12 -->
<g id="node12" class="node"><title>Node12</title>
<g id="a_node12"><a xlink:href="classMWGui_1_1TradeWindow.html#ad32308a56f6e082e2b0c55d396c5842c" target="_top" xlink:title="MWGui::TradeWindow\l::onOfferButtonClicked">
<polygon fill="white" stroke="black" points="199,-0 199,-30 323,-30 323,-0 199,-0"/>
<text text-anchor="start" x="207" y="-18" font-family="FreeSans" font-size="10.00">MWGui::TradeWindow</text>
<text text-anchor="middle" x="261" y="-7" font-family="FreeSans" font-size="10.00">::onOfferButtonClicked</text>
</a>
</g>
</g>
<!-- Node1&#45;&gt;Node12 -->
<g id="edge14" class="edge"><title>Node1&#45;&gt;Node12</title>
<path fill="none" stroke="midnightblue" d="M121.667,-68.6607C142.698,-59.3431 168.527,-48.2187 192,-39 199.691,-35.9796 207.936,-32.9213 215.938,-30.0455"/>
<polygon fill="midnightblue" stroke="midnightblue" points="120.079,-65.5365 112.367,-72.8013 122.926,-71.9313 120.079,-65.5365"/>
</g>
<!-- Node4 -->
<g id="node4" class="node"><title>Node4</title>
<g id="a_node4"><a xlink:href="classMWGui_1_1ContainerWindow.html#a07b86358cb427c9724ec72ae75b5997b" target="_top" xlink:title="MWGui::ContainerWindow\l::dragItem">
<polygon fill="white" stroke="black" points="366.5,-166 366.5,-196 503.5,-196 503.5,-166 366.5,-166"/>
<text text-anchor="start" x="374.5" y="-184" font-family="FreeSans" font-size="10.00">MWGui::ContainerWindow</text>
<text text-anchor="middle" x="435" y="-173" font-family="FreeSans" font-size="10.00">::dragItem</text>
</a>
</g>
</g>
<!-- Node3&#45;&gt;Node4 -->
<g id="edge3" class="edge"><title>Node3&#45;&gt;Node4</title>
<path fill="none" stroke="midnightblue" d="M315.486,-131.531C320.407,-133.34 325.305,-135.18 330,-137 353.398,-146.069 379.398,-157.069 399.549,-165.802"/>
<polygon fill="midnightblue" stroke="midnightblue" points="316.634,-128.224 306.04,-128.102 314.246,-134.804 316.634,-128.224"/>
</g>
<!-- Node7 -->
<g id="node7" class="node"><title>Node7</title>
<g id="a_node7"><a xlink:href="classMWGui_1_1ContainerWindow.html#a02e1c3c58e2f8440c7506ae2093af2dc" target="_top" xlink:title="MWGui::ContainerWindow\l::onTakeAllButtonClicked">
<polygon fill="white" stroke="black" points="366.5,-98 366.5,-128 503.5,-128 503.5,-98 366.5,-98"/>
<text text-anchor="start" x="374.5" y="-116" font-family="FreeSans" font-size="10.00">MWGui::ContainerWindow</text>
<text text-anchor="middle" x="435" y="-105" font-family="FreeSans" font-size="10.00">::onTakeAllButtonClicked</text>
</a>
</g>
</g>
<!-- Node3&#45;&gt;Node7 -->
<g id="edge6" class="edge"><title>Node3&#45;&gt;Node7</title>
<path fill="none" stroke="midnightblue" d="M340.134,-113C348.846,-113 357.666,-113 366.233,-113"/>
<polygon fill="midnightblue" stroke="midnightblue" points="339.979,-109.5 329.979,-113 339.979,-116.5 339.979,-109.5"/>
</g>
<!-- Node5 -->
<g id="node5" class="node"><title>Node5</title>
<g id="a_node5"><a xlink:href="classMWGui_1_1ContainerWindow.html#a4ffe65e3e73969e3f9928b622cbc20c6" target="_top" xlink:title="MWGui::ContainerWindow\l::onItemSelected">
<polygon fill="white" stroke="black" points="558.5,-176 558.5,-206 695.5,-206 695.5,-176 558.5,-176"/>
<text text-anchor="start" x="566.5" y="-194" font-family="FreeSans" font-size="10.00">MWGui::ContainerWindow</text>
<text text-anchor="middle" x="627" y="-183" font-family="FreeSans" font-size="10.00">::onItemSelected</text>
</a>
</g>
</g>
<!-- Node4&#45;&gt;Node5 -->
<g id="edge4" class="edge"><title>Node4&#45;&gt;Node5</title>
<path fill="none" stroke="midnightblue" d="M513.672,-185.088C528.494,-185.868 543.898,-186.679 558.376,-187.441"/>
<polygon fill="midnightblue" stroke="midnightblue" points="513.692,-181.584 503.522,-184.554 513.324,-188.575 513.692,-181.584"/>
</g>
<!-- Node6 -->
<g id="node6" class="node"><title>Node6</title>
<g id="a_node6"><a xlink:href="classMWGui_1_1ContainerWindow.html#acfb914937a6eb3a24bde7ea54266dbcd" target="_top" xlink:title="MWGui::ContainerWindow\l::ContainerWindow">
<polygon fill="white" stroke="black" points="750.5,-110 750.5,-140 887.5,-140 887.5,-110 750.5,-110"/>
<text text-anchor="start" x="758.5" y="-128" font-family="FreeSans" font-size="10.00">MWGui::ContainerWindow</text>
<text text-anchor="middle" x="819" y="-117" font-family="FreeSans" font-size="10.00">::ContainerWindow</text>
</a>
</g>
</g>
<!-- Node5&#45;&gt;Node6 -->
<g id="edge5" class="edge"><title>Node5&#45;&gt;Node6</title>
<path fill="none" stroke="midnightblue" d="M681.303,-172.484C710.762,-162.251 746.896,-149.699 774.613,-140.071"/>
<polygon fill="midnightblue" stroke="midnightblue" points="679.888,-169.271 671.59,-175.858 682.185,-175.883 679.888,-169.271"/>
</g>
<!-- Node7&#45;&gt;Node6 -->
<g id="edge7" class="edge"><title>Node7&#45;&gt;Node6</title>
<path fill="none" stroke="midnightblue" d="M513.559,-124.599C522.459,-125.585 531.415,-126.425 540,-127 611.634,-131.8 693.881,-130.347 750.222,-128.286"/>
<polygon fill="midnightblue" stroke="midnightblue" points="513.898,-121.115 503.559,-123.429 513.085,-128.067 513.898,-121.115"/>
</g>
<!-- Node8 -->
<g id="node8" class="node"><title>Node8</title>
<g id="a_node8"><a xlink:href="classMWGui_1_1ContainerWindow.html#a2bef0b9d5e5f4814fdb45123f5a9a3ab" target="_top" xlink:title="MWGui::ContainerWindow\l::onKeyPressed">
<polygon fill="white" stroke="black" points="558.5,-88 558.5,-118 695.5,-118 695.5,-88 558.5,-88"/>
<text text-anchor="start" x="566.5" y="-106" font-family="FreeSans" font-size="10.00">MWGui::ContainerWindow</text>
<text text-anchor="middle" x="627" y="-95" font-family="FreeSans" font-size="10.00">::onKeyPressed</text>
</a>
</g>
</g>
<!-- Node7&#45;&gt;Node8 -->
<g id="edge8" class="edge"><title>Node7&#45;&gt;Node8</title>
<path fill="none" stroke="midnightblue" d="M513.672,-108.912C528.494,-108.132 543.898,-107.321 558.376,-106.559"/>
<polygon fill="midnightblue" stroke="midnightblue" points="513.324,-105.425 503.522,-109.446 513.692,-112.416 513.324,-105.425"/>
</g>
<!-- Node9 -->
<g id="node9" class="node"><title>Node9</title>
<g id="a_node9"><a xlink:href="classMWGui_1_1ContainerWindow.html#ad9e57628fe744aa644abf4dbd6e5b931" target="_top" xlink:title="MWGui::ContainerWindow\l::onDisposeCorpseButtonClicked">
<polygon fill="white" stroke="black" points="540.5,-39 540.5,-69 713.5,-69 713.5,-39 540.5,-39"/>
<text text-anchor="start" x="548.5" y="-57" font-family="FreeSans" font-size="10.00">MWGui::ContainerWindow</text>
<text text-anchor="middle" x="627" y="-46" font-family="FreeSans" font-size="10.00">::onDisposeCorpseButtonClicked</text>
</a>
</g>
</g>
<!-- Node7&#45;&gt;Node9 -->
<g id="edge10" class="edge"><title>Node7&#45;&gt;Node9</title>
<path fill="none" stroke="midnightblue" d="M488.997,-94.5667C505.299,-89.058 523.338,-83.1249 540,-78 549.779,-74.9924 560.231,-71.9403 570.361,-69.0667"/>
<polygon fill="midnightblue" stroke="midnightblue" points="487.44,-91.399 479.099,-97.9308 489.693,-98.0266 487.44,-91.399"/>
</g>
<!-- Node8&#45;&gt;Node6 -->
<g id="edge9" class="edge"><title>Node8&#45;&gt;Node6</title>
<path fill="none" stroke="midnightblue" d="M705.672,-111.994C720.494,-113.71 735.898,-115.494 750.376,-117.17"/>
<polygon fill="midnightblue" stroke="midnightblue" points="705.858,-108.492 695.522,-110.818 705.053,-115.445 705.858,-108.492"/>
</g>
<!-- Node9&#45;&gt;Node6 -->
<g id="edge11" class="edge"><title>Node9&#45;&gt;Node6</title>
<path fill="none" stroke="midnightblue" d="M696.631,-72.1331C702.542,-74.0025 708.4,-75.9665 714,-78 739.515,-87.2645 767.506,-100.074 788.015,-109.98"/>
<polygon fill="midnightblue" stroke="midnightblue" points="697.255,-68.6638 686.669,-69.0808 695.205,-75.3567 697.255,-68.6638"/>
</g>
<!-- Node11 -->
<g id="node11" class="node"><title>Node11</title>
<g id="a_node11"><a xlink:href="classMWGui_1_1EnchantingDialog.html#a15630e6153b49f15b018e7432a8cb1d2" target="_top" xlink:title="MWGui::EnchantingDialog\l::EnchantingDialog">
<polygon fill="white" stroke="black" points="366,-49 366,-79 504,-79 504,-49 366,-49"/>
<text text-anchor="start" x="374" y="-67" font-family="FreeSans" font-size="10.00">MWGui::EnchantingDialog</text>
<text text-anchor="middle" x="435" y="-56" font-family="FreeSans" font-size="10.00">::EnchantingDialog</text>
</a>
</g>
</g>
<!-- Node10&#45;&gt;Node11 -->
<g id="edge13" class="edge"><title>Node10&#45;&gt;Node11</title>
<path fill="none" stroke="midnightblue" d="M340.637,-64C349.025,-64 357.508,-64 365.762,-64"/>
<polygon fill="midnightblue" stroke="midnightblue" points="340.473,-60.5001 330.473,-64 340.473,-67.5001 340.473,-60.5001"/>
</g>
<!-- Node13 -->
<g id="node13" class="node"><title>Node13</title>
<g id="a_node13"><a xlink:href="classMWGui_1_1TradeWindow.html#a248abab136a95b1b94939a386ed40c71" target="_top" xlink:title="MWGui::TradeWindow\l::TradeWindow">
<polygon fill="white" stroke="black" points="377,-0 377,-30 493,-30 493,-0 377,-0"/>
<text text-anchor="start" x="385" y="-18" font-family="FreeSans" font-size="10.00">MWGui::TradeWindow</text>
<text text-anchor="middle" x="435" y="-7" font-family="FreeSans" font-size="10.00">::TradeWindow</text>
</a>
</g>
</g>
<!-- Node12&#45;&gt;Node13 -->
<g id="edge15" class="edge"><title>Node12&#45;&gt;Node13</title>
<path fill="none" stroke="midnightblue" d="M333.513,-15C347.948,-15 362.944,-15 376.811,-15"/>
<polygon fill="midnightblue" stroke="midnightblue" points="333.125,-11.5001 323.125,-15 333.125,-18.5001 333.125,-11.5001"/>
</g>
</g>
</svg>
