<?xml version="1.0" encoding="UTF-8" standalone="no"?>
<!DOCTYPE svg PUBLIC "-//W3C//DTD SVG 1.1//EN"
 "http://www.w3.org/Graphics/SVG/1.1/DTD/svg11.dtd">
<!-- Generated by graphviz version 2.36.0 (20140111.2315)
 -->
<!-- Title: Resource::SetFilterSettingsVisitor::applyStateAttribute Pages: 1 -->
<svg width="518pt" height="38pt"
 viewBox="0.00 0.00 518.00 38.00" xmlns="http://www.w3.org/2000/svg" xmlns:xlink="http://www.w3.org/1999/xlink">
<g id="graph0" class="graph" transform="scale(1 1) rotate(0) translate(4 34)">
<title>Resource::SetFilterSettingsVisitor::applyStateAttribute</title>
<polygon fill="white" stroke="none" points="-4,4 -4,-34 514,-34 514,4 -4,4"/>
<!-- Node1 -->
<g id="node1" class="node"><title>Node1</title>
<polygon fill="#bfbfbf" stroke="black" points="0,-0 0,-30 146,-30 146,-0 0,-0"/>
<text text-anchor="start" x="8" y="-18" font-family="FreeSans" font-size="10.00">Resource::SetFilterSettings</text>
<text text-anchor="middle" x="73" y="-7" font-family="FreeSans" font-size="10.00">Visitor::applyStateAttribute</text>
</g>
<!-- Node2 -->
<g id="node2" class="node"><title>Node2</title>
<g id="a_node2"><a xlink:href="classResource_1_1SetFilterSettingsVisitor.html#aac8bf8ef16565f0e6866b9899d10ccb6" target="_top" xlink:title="Resource::SetFilterSettings\lVisitor::applyStateSet">
<polygon fill="white" stroke="black" points="182.5,-0 182.5,-30 327.5,-30 327.5,-0 182.5,-0"/>
<text text-anchor="start" x="190.5" y="-18" font-family="FreeSans" font-size="10.00">Resource::SetFilterSettings</text>
<text text-anchor="middle" x="255" y="-7" font-family="FreeSans" font-size="10.00">Visitor::applyStateSet</text>
</a>
</g>
</g>
<!-- Node1&#45;&gt;Node2 -->
<g id="edge1" class="edge"><title>Node1&#45;&gt;Node2</title>
<path fill="none" stroke="midnightblue" d="M156.327,-15C165.03,-15 173.828,-15 182.395,-15"/>
<polygon fill="midnightblue" stroke="midnightblue" points="156.176,-11.5001 146.176,-15 156.176,-18.5001 156.176,-11.5001"/>
</g>
<!-- Node3 -->
<g id="node3" class="node"><title>Node3</title>
<g id="a_node3"><a xlink:href="classResource_1_1SetFilterSettingsVisitor.html#a0a2c9049a17a0413960539800950c1e4" target="_top" xlink:title="Resource::SetFilterSettings\lVisitor::apply">
<polygon fill="white" stroke="black" points="364.5,-0 364.5,-30 509.5,-30 509.5,-0 364.5,-0"/>
<text text-anchor="start" x="372.5" y="-18" font-family="FreeSans" font-size="10.00">Resource::SetFilterSettings</text>
<text text-anchor="middle" x="437" y="-7" font-family="FreeSans" font-size="10.00">Visitor::apply</text>
</a>
</g>
</g>
<!-- Node2&#45;&gt;Node3 -->
<g id="edge2" class="edge"><title>Node2&#45;&gt;Node3</title>
<path fill="none" stroke="midnightblue" d="M337.921,-15C346.722,-15 355.626,-15 364.295,-15"/>
<polygon fill="midnightblue" stroke="midnightblue" points="337.658,-11.5001 327.658,-15 337.658,-18.5001 337.658,-11.5001"/>
</g>
</g>
</svg>
