<?xml version="1.0" encoding="UTF-8" standalone="no"?>
<!DOCTYPE svg PUBLIC "-//W3C//DTD SVG 1.1//EN"
 "http://www.w3.org/Graphics/SVG/1.1/DTD/svg11.dtd">
<!-- Generated by graphviz version 2.36.0 (20140111.2315)
 -->
<!-- Title: MWScript::Control::OpGetPcSneaking::execute Pages: 1 -->
<svg width="504pt" height="302pt"
 viewBox="0.00 0.00 504.00 302.00" xmlns="http://www.w3.org/2000/svg" xmlns:xlink="http://www.w3.org/1999/xlink">
<g id="graph0" class="graph" transform="scale(1 1) rotate(0) translate(4 298)">
<title>MWScript::Control::OpGetPcSneaking::execute</title>
<polygon fill="white" stroke="none" points="-4,4 -4,-298 500,-298 500,4 -4,4"/>
<!-- Node1 -->
<g id="node1" class="node"><title>Node1</title>
<polygon fill="#bfbfbf" stroke="black" points="0,-137 0,-167 136,-167 136,-137 0,-137"/>
<text text-anchor="start" x="8" y="-155" font-family="FreeSans" font-size="10.00">MWScript::Control::</text>
<text text-anchor="middle" x="68" y="-144" font-family="FreeSans" font-size="10.00">OpGetPcSneaking::execute</text>
</g>
<!-- Node2 -->
<g id="node2" class="node"><title>Node2</title>
<g id="a_node2"><a xlink:href="classMWBase_1_1Environment.html#a73f12633762b049c03c80fe215873faa" target="_top" xlink:title="Return instance of this class. ">
<polygon fill="white" stroke="black" points="178.5,-274.5 178.5,-293.5 309.5,-293.5 309.5,-274.5 178.5,-274.5"/>
<text text-anchor="middle" x="244" y="-281.5" font-family="FreeSans" font-size="10.00">MWBase::Environment::get</text>
</a>
</g>
</g>
<!-- Node1&#45;&gt;Node2 -->
<g id="edge1" class="edge"><title>Node1&#45;&gt;Node2</title>
<path fill="none" stroke="midnightblue" d="M78.7645,-167.163C95.1125,-191.32 130.359,-238.418 172,-264 176.322,-266.655 181.006,-268.968 185.837,-270.98"/>
<polygon fill="midnightblue" stroke="midnightblue" points="184.659,-274.276 195.252,-274.49 187.104,-267.717 184.659,-274.276"/>
</g>
<!-- Node3 -->
<g id="node3" class="node"><title>Node3</title>
<g id="a_node3"><a xlink:href="classMWBase_1_1Environment.html#ae14e166d8f5ff8629be119333d502660" target="_top" xlink:title="MWBase::Environment\l::getWorld">
<polygon fill="white" stroke="black" points="187.5,-225 187.5,-255 300.5,-255 300.5,-225 187.5,-225"/>
<text text-anchor="start" x="195.5" y="-243" font-family="FreeSans" font-size="10.00">MWBase::Environment</text>
<text text-anchor="middle" x="244" y="-232" font-family="FreeSans" font-size="10.00">::getWorld</text>
</a>
</g>
</g>
<!-- Node1&#45;&gt;Node3 -->
<g id="edge2" class="edge"><title>Node1&#45;&gt;Node3</title>
<path fill="none" stroke="midnightblue" d="M90.7442,-167.167C111.087,-180.898 142.656,-201.051 172,-215 176.603,-217.188 181.451,-219.29 186.363,-221.28"/>
<polygon fill="midnightblue" stroke="midnightblue" points="185.252,-224.603 195.84,-224.966 187.789,-218.079 185.252,-224.603"/>
</g>
<!-- Node4 -->
<g id="node4" class="node"><title>Node4</title>
<g id="a_node4"><a xlink:href="classMWBase_1_1World.html#a95005e26dcb7b1f6dc906eb518b95762" target="_top" xlink:title="MWBase::World::getPlayerPtr">
<polygon fill="white" stroke="black" points="172.5,-186.5 172.5,-205.5 315.5,-205.5 315.5,-186.5 172.5,-186.5"/>
<text text-anchor="middle" x="244" y="-193.5" font-family="FreeSans" font-size="10.00">MWBase::World::getPlayerPtr</text>
</a>
</g>
</g>
<!-- Node1&#45;&gt;Node4 -->
<g id="edge3" class="edge"><title>Node1&#45;&gt;Node4</title>
<path fill="none" stroke="midnightblue" d="M128.394,-167.019C150.307,-172.56 174.827,-178.761 195.545,-184"/>
<polygon fill="midnightblue" stroke="midnightblue" points="194.83,-187.429 205.383,-186.488 196.546,-180.643 194.83,-187.429"/>
</g>
<!-- Node5 -->
<g id="node5" class="node"><title>Node5</title>
<g id="a_node5"><a xlink:href="classInterpreter_1_1Runtime.html#a891b8bca22d1cee61ff80f9ce7939bde" target="_top" xlink:title="push data on stack ">
<polygon fill="white" stroke="black" points="193.5,-137 193.5,-167 294.5,-167 294.5,-137 193.5,-137"/>
<text text-anchor="start" x="201.5" y="-155" font-family="FreeSans" font-size="10.00">Interpreter::Runtime</text>
<text text-anchor="middle" x="244" y="-144" font-family="FreeSans" font-size="10.00">::push</text>
</a>
</g>
</g>
<!-- Node1&#45;&gt;Node5 -->
<g id="edge4" class="edge"><title>Node1&#45;&gt;Node5</title>
<path fill="none" stroke="midnightblue" d="M136.273,-152C151.735,-152 168.076,-152 183.197,-152"/>
<polygon fill="midnightblue" stroke="midnightblue" points="183.445,-155.5 193.445,-152 183.445,-148.5 183.445,-155.5"/>
</g>
<!-- Node6 -->
<g id="node6" class="node"><title>Node6</title>
<g id="a_node6"><a xlink:href="classMWWorld_1_1Ptr.html#aa2ac4a5579cd19eaa780596f4543ea46" target="_top" xlink:title="MWWorld::Ptr::getClass">
<polygon fill="white" stroke="black" points="185.5,-98.5 185.5,-117.5 302.5,-117.5 302.5,-98.5 185.5,-98.5"/>
<text text-anchor="middle" x="244" y="-105.5" font-family="FreeSans" font-size="10.00">MWWorld::Ptr::getClass</text>
</a>
</g>
</g>
<!-- Node1&#45;&gt;Node6 -->
<g id="edge5" class="edge"><title>Node1&#45;&gt;Node6</title>
<path fill="none" stroke="midnightblue" d="M128.394,-136.981C150.307,-131.44 174.827,-125.239 195.545,-120"/>
<polygon fill="midnightblue" stroke="midnightblue" points="196.546,-123.357 205.383,-117.512 194.83,-116.571 196.546,-123.357"/>
</g>
<!-- Node7 -->
<g id="node7" class="node"><title>Node7</title>
<g id="a_node7"><a xlink:href="classMWWorld_1_1Class.html#a5095a30e5baa5742b3d393610fd73d60" target="_top" xlink:title="MWWorld::Class::getCreature\lStats">
<polygon fill="white" stroke="black" points="173.5,-49 173.5,-79 314.5,-79 314.5,-49 173.5,-49"/>
<text text-anchor="start" x="181.5" y="-67" font-family="FreeSans" font-size="10.00">MWWorld::Class::getCreature</text>
<text text-anchor="middle" x="244" y="-56" font-family="FreeSans" font-size="10.00">Stats</text>
</a>
</g>
</g>
<!-- Node1&#45;&gt;Node7 -->
<g id="edge6" class="edge"><title>Node1&#45;&gt;Node7</title>
<path fill="none" stroke="midnightblue" d="M90.7442,-136.833C111.087,-123.102 142.656,-102.949 172,-89 176.603,-86.8119 181.451,-84.7102 186.363,-82.7195"/>
<polygon fill="midnightblue" stroke="midnightblue" points="187.789,-85.9206 195.84,-79.0344 185.252,-79.3965 187.789,-85.9206"/>
</g>
<!-- Node8 -->
<g id="node8" class="node"><title>Node8</title>
<g id="a_node8"><a xlink:href="classMWMechanics_1_1CreatureStats.html#a1b87fd5147564be617cb95bbbaf64022" target="_top" xlink:title="Like getMovementFlag, but also takes into account if the flag is Forced. ">
<polygon fill="white" stroke="black" points="172,-0 172,-30 316,-30 316,-0 172,-0"/>
<text text-anchor="start" x="180" y="-18" font-family="FreeSans" font-size="10.00">MWMechanics::CreatureStats</text>
<text text-anchor="middle" x="244" y="-7" font-family="FreeSans" font-size="10.00">::getStance</text>
</a>
</g>
</g>
<!-- Node1&#45;&gt;Node8 -->
<g id="edge7" class="edge"><title>Node1&#45;&gt;Node8</title>
<path fill="none" stroke="midnightblue" d="M79.2295,-136.754C95.9634,-112.909 131.419,-66.7554 172,-40 175.072,-37.9746 178.327,-36.0924 181.688,-34.3462"/>
<polygon fill="midnightblue" stroke="midnightblue" points="183.241,-37.4835 190.778,-30.0372 180.242,-31.1582 183.241,-37.4835"/>
</g>
<!-- Node9 -->
<g id="node9" class="node"><title>Node9</title>
<g id="a_node9"><a xlink:href="classMWMechanics_1_1CreatureStats.html#a414af15352b5445923a2e9e50d8f8c5c" target="_top" xlink:title="MWMechanics::CreatureStats\l::getMovementFlag">
<polygon fill="white" stroke="black" points="352,-0 352,-30 496,-30 496,-0 352,-0"/>
<text text-anchor="start" x="360" y="-18" font-family="FreeSans" font-size="10.00">MWMechanics::CreatureStats</text>
<text text-anchor="middle" x="424" y="-7" font-family="FreeSans" font-size="10.00">::getMovementFlag</text>
</a>
</g>
</g>
<!-- Node8&#45;&gt;Node9 -->
<g id="edge8" class="edge"><title>Node8&#45;&gt;Node9</title>
<path fill="none" stroke="midnightblue" d="M316.118,-15C324.609,-15 333.327,-15 341.944,-15"/>
<polygon fill="midnightblue" stroke="midnightblue" points="341.995,-18.5001 351.995,-15 341.995,-11.5001 341.995,-18.5001"/>
</g>
</g>
</svg>
