<?xml version="1.0" encoding="UTF-8" standalone="no"?>
<!DOCTYPE svg PUBLIC "-//W3C//DTD SVG 1.1//EN"
 "http://www.w3.org/Graphics/SVG/1.1/DTD/svg11.dtd">
<!-- Generated by graphviz version 2.36.0 (20140111.2315)
 -->
<!-- Title: MWWorld::InventoryStore::equip Pages: 1 -->
<svg width="328pt" height="203pt"
 viewBox="0.00 0.00 328.00 203.00" xmlns="http://www.w3.org/2000/svg" xmlns:xlink="http://www.w3.org/1999/xlink">
<g id="graph0" class="graph" transform="scale(1 1) rotate(0) translate(4 199)">
<title>MWWorld::InventoryStore::equip</title>
<polygon fill="white" stroke="none" points="-4,4 -4,-199 324,-199 324,4 -4,4"/>
<!-- Node1 -->
<g id="node1" class="node"><title>Node1</title>
<polygon fill="#bfbfbf" stroke="black" points="0.5,-77 0.5,-107 125.5,-107 125.5,-77 0.5,-77"/>
<text text-anchor="start" x="8.5" y="-95" font-family="FreeSans" font-size="10.00">MWWorld::InventoryStore</text>
<text text-anchor="middle" x="63" y="-84" font-family="FreeSans" font-size="10.00">::equip</text>
</g>
<!-- Node2 -->
<g id="node2" class="node"><title>Node2</title>
<g id="a_node2"><a xlink:href="classMWWorld_1_1ContainerStoreIterator.html#a045375028fe2f01edb305d90a6076d65" target="_top" xlink:title="MWWorld::ContainerStoreIterator\l::getContainerStore">
<polygon fill="white" stroke="black" points="162,-165 162,-195 320,-195 320,-165 162,-165"/>
<text text-anchor="start" x="170" y="-183" font-family="FreeSans" font-size="10.00">MWWorld::ContainerStoreIterator</text>
<text text-anchor="middle" x="241" y="-172" font-family="FreeSans" font-size="10.00">::getContainerStore</text>
</a>
</g>
</g>
<!-- Node1&#45;&gt;Node2 -->
<g id="edge1" class="edge"><title>Node1&#45;&gt;Node2</title>
<path fill="none" stroke="midnightblue" d="M84.1149,-107.167C103.314,-121.089 133.463,-141.539 162,-155 166.702,-157.218 171.653,-159.313 176.684,-161.274"/>
<polygon fill="midnightblue" stroke="midnightblue" points="175.823,-164.687 186.416,-164.877 178.254,-158.122 175.823,-164.687"/>
</g>
<!-- Node3 -->
<g id="node3" class="node"><title>Node3</title>
<g id="a_node3"><a xlink:href="classMWWorld_1_1Ptr.html#aa2ac4a5579cd19eaa780596f4543ea46" target="_top" xlink:title="MWWorld::Ptr::getClass">
<polygon fill="white" stroke="black" points="182.5,-126.5 182.5,-145.5 299.5,-145.5 299.5,-126.5 182.5,-126.5"/>
<text text-anchor="middle" x="241" y="-133.5" font-family="FreeSans" font-size="10.00">MWWorld::Ptr::getClass</text>
</a>
</g>
</g>
<!-- Node1&#45;&gt;Node3 -->
<g id="edge2" class="edge"><title>Node1&#45;&gt;Node3</title>
<path fill="none" stroke="midnightblue" d="M124.077,-107.019C146.242,-112.56 171.043,-118.761 192,-124"/>
<polygon fill="midnightblue" stroke="midnightblue" points="191.4,-127.458 201.95,-126.488 193.098,-120.667 191.4,-127.458"/>
</g>
<!-- Node4 -->
<g id="node4" class="node"><title>Node4</title>
<g id="a_node4"><a xlink:href="classMWWorld_1_1Class.html#a52f0c0c5d21fc6c3ba9bc85b923f137b" target="_top" xlink:title="MWWorld::Class::getEquipment\lSlots">
<polygon fill="white" stroke="black" points="166,-77 166,-107 316,-107 316,-77 166,-77"/>
<text text-anchor="start" x="174" y="-95" font-family="FreeSans" font-size="10.00">MWWorld::Class::getEquipment</text>
<text text-anchor="middle" x="241" y="-84" font-family="FreeSans" font-size="10.00">Slots</text>
</a>
</g>
</g>
<!-- Node1&#45;&gt;Node4 -->
<g id="edge3" class="edge"><title>Node1&#45;&gt;Node4</title>
<path fill="none" stroke="midnightblue" d="M125.556,-92C135.296,-92 145.511,-92 155.662,-92"/>
<polygon fill="midnightblue" stroke="midnightblue" points="155.771,-95.5001 165.771,-92 155.771,-88.5001 155.771,-95.5001"/>
</g>
<!-- Node5 -->
<g id="node5" class="node"><title>Node5</title>
<g id="a_node5"><a xlink:href="classMWWorld_1_1Ptr.html#aa35780406bea82e5dcff038800bd10e0" target="_top" xlink:title="MWWorld::Ptr::getRefData">
<polygon fill="white" stroke="black" points="176.5,-38.5 176.5,-57.5 305.5,-57.5 305.5,-38.5 176.5,-38.5"/>
<text text-anchor="middle" x="241" y="-45.5" font-family="FreeSans" font-size="10.00">MWWorld::Ptr::getRefData</text>
</a>
</g>
</g>
<!-- Node1&#45;&gt;Node5 -->
<g id="edge4" class="edge"><title>Node1&#45;&gt;Node5</title>
<path fill="none" stroke="midnightblue" d="M124.077,-76.9808C146.242,-71.4396 171.043,-65.2393 192,-60.0001"/>
<polygon fill="midnightblue" stroke="midnightblue" points="193.098,-63.3333 201.95,-57.5124 191.4,-56.5423 193.098,-63.3333"/>
</g>
<!-- Node6 -->
<g id="node6" class="node"><title>Node6</title>
<g id="a_node6"><a xlink:href="classMWWorld_1_1RefData.html#aef6884db8233415bc1a322ea531db88d" target="_top" xlink:title="MWWorld::RefData::getCount">
<polygon fill="white" stroke="black" points="170,-0.5 170,-19.5 312,-19.5 312,-0.5 170,-0.5"/>
<text text-anchor="middle" x="241" y="-7.5" font-family="FreeSans" font-size="10.00">MWWorld::RefData::getCount</text>
</a>
</g>
</g>
<!-- Node1&#45;&gt;Node6 -->
<g id="edge5" class="edge"><title>Node1&#45;&gt;Node6</title>
<path fill="none" stroke="midnightblue" d="M83.1765,-76.909C102.183,-62.6417 132.63,-41.5959 162,-29 167.8,-26.5125 173.989,-24.3105 180.247,-22.3709"/>
<polygon fill="midnightblue" stroke="midnightblue" points="181.452,-25.6662 190.093,-19.5356 179.515,-18.9396 181.452,-25.6662"/>
</g>
</g>
</svg>
