<?xml version="1.0" encoding="UTF-8" standalone="no"?>
<!DOCTYPE svg PUBLIC "-//W3C//DTD SVG 1.1//EN"
 "http://www.w3.org/Graphics/SVG/1.1/DTD/svg11.dtd">
<!-- Generated by graphviz version 2.36.0 (20140111.2315)
 -->
<!-- Title: MWWorld::World::aimToTarget Pages: 1 -->
<svg width="698pt" height="237pt"
 viewBox="0.00 0.00 698.00 237.00" xmlns="http://www.w3.org/2000/svg" xmlns:xlink="http://www.w3.org/1999/xlink">
<g id="graph0" class="graph" transform="scale(1 1) rotate(0) translate(4 233)">
<title>MWWorld::World::aimToTarget</title>
<polygon fill="white" stroke="none" points="-4,4 -4,-233 694,-233 694,4 -4,4"/>
<!-- Node1 -->
<g id="node1" class="node"><title>Node1</title>
<polygon fill="#bfbfbf" stroke="black" points="0.5,-122.5 0.5,-141.5 153.5,-141.5 153.5,-122.5 0.5,-122.5"/>
<text text-anchor="middle" x="77" y="-129.5" font-family="FreeSans" font-size="10.00">MWWorld::World::aimToTarget</text>
</g>
<!-- Node2 -->
<g id="node2" class="node"><title>Node2</title>
<g id="a_node2"><a xlink:href="classMWWorld_1_1ConstPtr.html#a1fecee4644b43851c0f09c1f6c808225" target="_top" xlink:title="MWWorld::ConstPtr::\lgetRefData">
<polygon fill="white" stroke="black" points="215,-199 215,-229 327,-229 327,-199 215,-199"/>
<text text-anchor="start" x="223" y="-217" font-family="FreeSans" font-size="10.00">MWWorld::ConstPtr::</text>
<text text-anchor="middle" x="271" y="-206" font-family="FreeSans" font-size="10.00">getRefData</text>
</a>
</g>
</g>
<!-- Node1&#45;&gt;Node2 -->
<g id="edge1" class="edge"><title>Node1&#45;&gt;Node2</title>
<path fill="none" stroke="midnightblue" d="M94.662,-141.6C116.185,-153.736 155.044,-174.761 190,-189 195.748,-191.342 201.802,-193.597 207.9,-195.73"/>
<polygon fill="midnightblue" stroke="midnightblue" points="206.887,-199.082 217.481,-198.975 209.133,-192.452 206.887,-199.082"/>
</g>
<!-- Node3 -->
<g id="node3" class="node"><title>Node3</title>
<g id="a_node3"><a xlink:href="classMWWorld_1_1RefData.html#a32f3f82fc97a20fd3a776751f43ca131" target="_top" xlink:title="MWWorld::RefData::getPosition">
<polygon fill="white" stroke="black" points="190.5,-160.5 190.5,-179.5 351.5,-179.5 351.5,-160.5 190.5,-160.5"/>
<text text-anchor="middle" x="271" y="-167.5" font-family="FreeSans" font-size="10.00">MWWorld::RefData::getPosition</text>
</a>
</g>
</g>
<!-- Node1&#45;&gt;Node3 -->
<g id="edge2" class="edge"><title>Node1&#45;&gt;Node3</title>
<path fill="none" stroke="midnightblue" d="M126.45,-141.589C152.471,-146.739 184.728,-153.123 212.069,-158.534"/>
<polygon fill="midnightblue" stroke="midnightblue" points="211.409,-161.972 221.899,-160.48 212.769,-155.105 211.409,-161.972"/>
</g>
<!-- Node4 -->
<g id="node4" class="node"><title>Node4</title>
<g id="a_node4"><a xlink:href="structESM_1_1Position.html#a71dbd95e261f1976f60cbe456d450948" target="_top" xlink:title="ESM::Position::asVec3">
<polygon fill="white" stroke="black" points="210,-122.5 210,-141.5 332,-141.5 332,-122.5 210,-122.5"/>
<text text-anchor="middle" x="271" y="-129.5" font-family="FreeSans" font-size="10.00">ESM::Position::asVec3</text>
</a>
</g>
</g>
<!-- Node1&#45;&gt;Node4 -->
<g id="edge3" class="edge"><title>Node1&#45;&gt;Node4</title>
<path fill="none" stroke="midnightblue" d="M153.608,-132C168.785,-132 184.674,-132 199.663,-132"/>
<polygon fill="midnightblue" stroke="midnightblue" points="199.877,-135.5 209.876,-132 199.876,-128.5 199.877,-135.5"/>
</g>
<!-- Node5 -->
<g id="node5" class="node"><title>Node5</title>
<g id="a_node5"><a xlink:href="classMWPhysics_1_1PhysicsSystem.html#a3629b8f88060fda6d4a405241f496dcd" target="_top" xlink:title="Get physical half extents (scaled) of the given actor. ">
<polygon fill="white" stroke="black" points="198,-73 198,-103 344,-103 344,-73 198,-73"/>
<text text-anchor="start" x="206" y="-91" font-family="FreeSans" font-size="10.00">MWPhysics::PhysicsSystem</text>
<text text-anchor="middle" x="271" y="-80" font-family="FreeSans" font-size="10.00">::getHalfExtents</text>
</a>
</g>
</g>
<!-- Node1&#45;&gt;Node5 -->
<g id="edge4" class="edge"><title>Node1&#45;&gt;Node5</title>
<path fill="none" stroke="midnightblue" d="M119.661,-122.453C141.471,-117.455 168.86,-111.178 194.266,-105.356"/>
<polygon fill="midnightblue" stroke="midnightblue" points="195.295,-108.711 204.26,-103.065 193.731,-101.888 195.295,-108.711"/>
</g>
<!-- Node8 -->
<g id="node8" class="node"><title>Node8</title>
<g id="a_node8"><a xlink:href="classMWPhysics_1_1PhysicsSystem.html#aa3a291d5e009e66689df519592365e37" target="_top" xlink:title="MWPhysics::PhysicsSystem\l::getCollisionObjectPosition">
<polygon fill="white" stroke="black" points="198,-24 198,-54 344,-54 344,-24 198,-24"/>
<text text-anchor="start" x="206" y="-42" font-family="FreeSans" font-size="10.00">MWPhysics::PhysicsSystem</text>
<text text-anchor="middle" x="271" y="-31" font-family="FreeSans" font-size="10.00">::getCollisionObjectPosition</text>
</a>
</g>
</g>
<!-- Node1&#45;&gt;Node8 -->
<g id="edge7" class="edge"><title>Node1&#45;&gt;Node8</title>
<path fill="none" stroke="midnightblue" d="M91.5446,-122.275C112.026,-107.924 152.477,-80.9492 190,-64 195.056,-61.7163 200.38,-59.5583 205.781,-57.5392"/>
<polygon fill="midnightblue" stroke="midnightblue" points="207.299,-60.7136 215.543,-54.0578 204.948,-54.1203 207.299,-60.7136"/>
</g>
<!-- Node6 -->
<g id="node6" class="node"><title>Node6</title>
<g id="a_node6"><a xlink:href="classMWPhysics_1_1PhysicsSystem.html#a41f7de8a899eabcc878655c0d8012ab5" target="_top" xlink:title="MWPhysics::PhysicsSystem\l::getActor">
<polygon fill="white" stroke="black" points="396,-49 396,-79 542,-79 542,-49 396,-49"/>
<text text-anchor="start" x="404" y="-67" font-family="FreeSans" font-size="10.00">MWPhysics::PhysicsSystem</text>
<text text-anchor="middle" x="469" y="-56" font-family="FreeSans" font-size="10.00">::getActor</text>
</a>
</g>
</g>
<!-- Node5&#45;&gt;Node6 -->
<g id="edge5" class="edge"><title>Node5&#45;&gt;Node6</title>
<path fill="none" stroke="midnightblue" d="M344.148,-79.1655C357.675,-77.5092 371.909,-75.7663 385.715,-74.0757"/>
<polygon fill="midnightblue" stroke="midnightblue" points="386.177,-77.5454 395.677,-72.8559 385.326,-70.5973 386.177,-77.5454"/>
</g>
<!-- Node7 -->
<g id="node7" class="node"><title>Node7</title>
<g id="a_node7"><a xlink:href="classMWPhysics_1_1Actor.html#a64f5ca6f7d516f392b03a574f310d322" target="_top" xlink:title="MWPhysics::Actor::getHalf\lExtents">
<polygon fill="white" stroke="black" points="399,-98 399,-128 539,-128 539,-98 399,-98"/>
<text text-anchor="start" x="407" y="-116" font-family="FreeSans" font-size="10.00">MWPhysics::Actor::getHalf</text>
<text text-anchor="middle" x="469" y="-105" font-family="FreeSans" font-size="10.00">Extents</text>
</a>
</g>
</g>
<!-- Node5&#45;&gt;Node7 -->
<g id="edge6" class="edge"><title>Node5&#45;&gt;Node7</title>
<path fill="none" stroke="midnightblue" d="M344.148,-97.2026C358.693,-99.0577 374.055,-101.017 388.825,-102.901"/>
<polygon fill="midnightblue" stroke="midnightblue" points="388.576,-106.398 398.939,-104.191 389.462,-99.4539 388.576,-106.398"/>
</g>
<!-- Node8&#45;&gt;Node6 -->
<g id="edge8" class="edge"><title>Node8&#45;&gt;Node6</title>
<path fill="none" stroke="midnightblue" d="M344.148,-48.2026C357.675,-49.9279 371.909,-51.7434 385.715,-53.5045"/>
<polygon fill="midnightblue" stroke="midnightblue" points="385.314,-56.9816 395.677,-54.7751 386.2,-50.0379 385.314,-56.9816"/>
</g>
<!-- Node9 -->
<g id="node9" class="node"><title>Node9</title>
<g id="a_node9"><a xlink:href="classMWPhysics_1_1Actor.html#a159498258bfbe022fc1fa1317092b34f" target="_top" xlink:title="MWPhysics::Actor::getCollision\lObjectPosition">
<polygon fill="white" stroke="black" points="388.5,-0 388.5,-30 549.5,-30 549.5,-0 388.5,-0"/>
<text text-anchor="start" x="396.5" y="-18" font-family="FreeSans" font-size="10.00">MWPhysics::Actor::getCollision</text>
<text text-anchor="middle" x="469" y="-7" font-family="FreeSans" font-size="10.00">ObjectPosition</text>
</a>
</g>
</g>
<!-- Node8&#45;&gt;Node9 -->
<g id="edge9" class="edge"><title>Node8&#45;&gt;Node9</title>
<path fill="none" stroke="midnightblue" d="M344.148,-30.1655C355.292,-28.801 366.916,-27.3776 378.386,-25.9732"/>
<polygon fill="midnightblue" stroke="midnightblue" points="378.909,-29.4353 388.41,-24.7458 378.058,-22.4872 378.909,-29.4353"/>
</g>
<!-- Node10 -->
<g id="node10" class="node"><title>Node10</title>
<g id="a_node10"><a xlink:href="namespaceMWPhysics.html#a48568f2568ff8af5ee9b7df250bccf94" target="_top" xlink:title="MWPhysics::toOsg">
<polygon fill="white" stroke="black" points="586.5,-5.5 586.5,-24.5 689.5,-24.5 689.5,-5.5 586.5,-5.5"/>
<text text-anchor="middle" x="638" y="-12.5" font-family="FreeSans" font-size="10.00">MWPhysics::toOsg</text>
</a>
</g>
</g>
<!-- Node9&#45;&gt;Node10 -->
<g id="edge10" class="edge"><title>Node9&#45;&gt;Node10</title>
<path fill="none" stroke="midnightblue" d="M549.587,-15C558.427,-15 567.324,-15 575.884,-15"/>
<polygon fill="midnightblue" stroke="midnightblue" points="576.129,-18.5001 586.129,-15 576.129,-11.5001 576.129,-18.5001"/>
</g>
</g>
</svg>
