<?xml version="1.0" encoding="UTF-8" standalone="no"?>
<!DOCTYPE svg PUBLIC "-//W3C//DTD SVG 1.1//EN"
 "http://www.w3.org/Graphics/SVG/1.1/DTD/svg11.dtd">
<!-- Generated by graphviz version 2.36.0 (20140111.2315)
 -->
<!-- Title: Shader::ShaderVisitor Pages: 1 -->
<svg width="182pt" height="436pt"
 viewBox="0.00 0.00 182.00 436.00" xmlns="http://www.w3.org/2000/svg" xmlns:xlink="http://www.w3.org/1999/xlink">
<g id="graph0" class="graph" transform="scale(1 1) rotate(0) translate(4 432)">
<title>Shader::ShaderVisitor</title>
<polygon fill="white" stroke="none" points="-4,4 -4,-432 178,-432 178,4 -4,4"/>
<!-- Node1 -->
<g id="node1" class="node"><title>Node1</title>
<polygon fill="#bfbfbf" stroke="black" points="-0.5,-1 -0.5,-333 174.5,-333 174.5,-1 -0.5,-1"/>
<text text-anchor="middle" x="87" y="-321" font-family="FreeSans" font-size="10.00">Shader::ShaderVisitor</text>
<polyline fill="none" stroke="black" points="-0.5,-314 174.5,-314 "/>
<text text-anchor="start" x="7.5" y="-302" font-family="FreeSans" font-size="10.00">&#45; mForceShaders</text>
<text text-anchor="start" x="7.5" y="-291" font-family="FreeSans" font-size="10.00">&#45; mClampLighting</text>
<text text-anchor="start" x="7.5" y="-280" font-family="FreeSans" font-size="10.00">&#45; mForcePerPixelLighting</text>
<text text-anchor="start" x="7.5" y="-269" font-family="FreeSans" font-size="10.00">&#45; mAllowedToModifyStateSets</text>
<text text-anchor="start" x="7.5" y="-258" font-family="FreeSans" font-size="10.00">&#45; mAutoUseNormalMaps</text>
<text text-anchor="start" x="7.5" y="-247" font-family="FreeSans" font-size="10.00">&#45; mNormalMapPattern</text>
<text text-anchor="start" x="7.5" y="-236" font-family="FreeSans" font-size="10.00">&#45; mNormalHeightMapPattern</text>
<text text-anchor="start" x="7.5" y="-225" font-family="FreeSans" font-size="10.00">&#45; mAutoUseSpecularMaps</text>
<text text-anchor="start" x="7.5" y="-214" font-family="FreeSans" font-size="10.00">&#45; mSpecularMapPattern</text>
<text text-anchor="start" x="7.5" y="-203" font-family="FreeSans" font-size="10.00">&#45; mShaderManager</text>
<text text-anchor="start" x="7.5" y="-192" font-family="FreeSans" font-size="10.00">&#45; mImageManager</text>
<text text-anchor="start" x="7.5" y="-181" font-family="FreeSans" font-size="10.00">&#45; mRequirements</text>
<text text-anchor="start" x="7.5" y="-170" font-family="FreeSans" font-size="10.00">&#45; mDefaultVsTemplate</text>
<text text-anchor="start" x="7.5" y="-159" font-family="FreeSans" font-size="10.00">&#45; mDefaultFsTemplate</text>
<polyline fill="none" stroke="black" points="-0.5,-152 174.5,-152 "/>
<text text-anchor="start" x="7.5" y="-140" font-family="FreeSans" font-size="10.00">+ ShaderVisitor()</text>
<text text-anchor="start" x="7.5" y="-129" font-family="FreeSans" font-size="10.00">+ setForceShaders()</text>
<text text-anchor="start" x="7.5" y="-118" font-family="FreeSans" font-size="10.00">+ setClampLighting()</text>
<text text-anchor="start" x="7.5" y="-107" font-family="FreeSans" font-size="10.00">+ setForcePerPixelLighting()</text>
<text text-anchor="start" x="7.5" y="-96" font-family="FreeSans" font-size="10.00">+ setAllowedToModifyStateSets()</text>
<text text-anchor="start" x="7.5" y="-85" font-family="FreeSans" font-size="10.00">+ setAutoUseNormalMaps()</text>
<text text-anchor="start" x="7.5" y="-74" font-family="FreeSans" font-size="10.00">+ setNormalMapPattern()</text>
<text text-anchor="start" x="7.5" y="-63" font-family="FreeSans" font-size="10.00">+ setNormalHeightMapPattern()</text>
<text text-anchor="start" x="7.5" y="-52" font-family="FreeSans" font-size="10.00">+ setAutoUseSpecularMaps()</text>
<text text-anchor="start" x="7.5" y="-41" font-family="FreeSans" font-size="10.00">+ setSpecularMapPattern()</text>
<text text-anchor="start" x="7.5" y="-30" font-family="FreeSans" font-size="10.00">and 6 more...</text>
<text text-anchor="start" x="7.5" y="-19" font-family="FreeSans" font-size="10.00">&#45; createProgram()</text>
<text text-anchor="start" x="7.5" y="-8" font-family="FreeSans" font-size="10.00">&#45; adjustGeometry()</text>
</g>
<!-- Node2 -->
<g id="node2" class="node"><title>Node2</title>
<polygon fill="white" stroke="#bfbfbf" points="51,-370.5 51,-427.5 123,-427.5 123,-370.5 51,-370.5"/>
<text text-anchor="middle" x="87" y="-415.5" font-family="FreeSans" font-size="10.00">NodeVisitor</text>
<polyline fill="none" stroke="#bfbfbf" points="51,-408.5 123,-408.5 "/>
<text text-anchor="middle" x="87" y="-396.5" font-family="FreeSans" font-size="10.00"> </text>
<polyline fill="none" stroke="#bfbfbf" points="51,-389.5 123,-389.5 "/>
<text text-anchor="middle" x="87" y="-377.5" font-family="FreeSans" font-size="10.00"> </text>
</g>
<!-- Node2&#45;&gt;Node1 -->
<g id="edge1" class="edge"><title>Node2&#45;&gt;Node1</title>
<path fill="none" stroke="midnightblue" d="M87,-360.143C87,-352.008 87,-342.917 87,-333.235"/>
<polygon fill="none" stroke="midnightblue" points="83.5001,-360.257 87,-370.257 90.5001,-360.257 83.5001,-360.257"/>
</g>
</g>
</svg>
