<?xml version="1.0" encoding="UTF-8" standalone="no"?>
<!DOCTYPE svg PUBLIC "-//W3C//DTD SVG 1.1//EN"
 "http://www.w3.org/Graphics/SVG/1.1/DTD/svg11.dtd">
<!-- Generated by graphviz version 2.36.0 (20140111.2315)
 -->
<!-- Title: CSVRender::CellWater::updateCellData Pages: 1 -->
<svg width="422pt" height="60pt"
 viewBox="0.00 0.00 422.00 60.00" xmlns="http://www.w3.org/2000/svg" xmlns:xlink="http://www.w3.org/1999/xlink">
<g id="graph0" class="graph" transform="scale(1 1) rotate(0) translate(4 56)">
<title>CSVRender::CellWater::updateCellData</title>
<polygon fill="white" stroke="none" points="-4,4 -4,-56 418,-56 418,4 -4,4"/>
<!-- Node1 -->
<g id="node1" class="node"><title>Node1</title>
<polygon fill="#bfbfbf" stroke="black" points="0.5,-22 0.5,-52 113.5,-52 113.5,-22 0.5,-22"/>
<text text-anchor="start" x="8.5" y="-40" font-family="FreeSans" font-size="10.00">CSVRender::CellWater</text>
<text text-anchor="middle" x="57" y="-29" font-family="FreeSans" font-size="10.00">::updateCellData</text>
</g>
<!-- Node2 -->
<g id="node2" class="node"><title>Node2</title>
<g id="a_node2"><a xlink:href="classCSVRender_1_1CellWater.html#a4f1e8291261d5da1d63ad5276edc6f9a" target="_top" xlink:title="CSVRender::CellWater\l::CellWater">
<polygon fill="white" stroke="black" points="300.5,-22 300.5,-52 413.5,-52 413.5,-22 300.5,-22"/>
<text text-anchor="start" x="308.5" y="-40" font-family="FreeSans" font-size="10.00">CSVRender::CellWater</text>
<text text-anchor="middle" x="357" y="-29" font-family="FreeSans" font-size="10.00">::CellWater</text>
</a>
</g>
</g>
<!-- Node1&#45;&gt;Node2 -->
<g id="edge1" class="edge"><title>Node1&#45;&gt;Node2</title>
<path fill="none" stroke="midnightblue" d="M124.096,-38.6097C132.807,-38.7711 141.618,-38.9089 150,-39 200.664,-39.5506 213.336,-39.5506 264,-39 275.662,-38.8733 288.154,-38.6562 300.054,-38.4106"/>
<polygon fill="midnightblue" stroke="midnightblue" points="124.013,-35.1074 113.946,-38.4106 123.876,-42.1061 124.013,-35.1074"/>
</g>
<!-- Node3 -->
<g id="node3" class="node"><title>Node3</title>
<g id="a_node3"><a xlink:href="classCSVRender_1_1CellWater.html#afa9259c56ca5fecc4f6a83c3f0503e03" target="_top" xlink:title="CSVRender::CellWater\l::cellDataChanged">
<polygon fill="white" stroke="black" points="150.5,-0 150.5,-30 263.5,-30 263.5,-0 150.5,-0"/>
<text text-anchor="start" x="158.5" y="-18" font-family="FreeSans" font-size="10.00">CSVRender::CellWater</text>
<text text-anchor="middle" x="207" y="-7" font-family="FreeSans" font-size="10.00">::cellDataChanged</text>
</a>
</g>
</g>
<!-- Node1&#45;&gt;Node3 -->
<g id="edge2" class="edge"><title>Node1&#45;&gt;Node3</title>
<path fill="none" stroke="midnightblue" d="M123.481,-27.2663C132.381,-25.9433 141.449,-24.5955 150.158,-23.3008"/>
<polygon fill="midnightblue" stroke="midnightblue" points="122.907,-23.813 113.531,-28.7454 123.937,-30.737 122.907,-23.813"/>
</g>
<!-- Node3&#45;&gt;Node2 -->
<g id="edge3" class="edge"><title>Node3&#45;&gt;Node2</title>
<path fill="none" stroke="midnightblue" d="M273.481,-24.7337C282.381,-26.0567 291.449,-27.4045 300.158,-28.6992"/>
<polygon fill="midnightblue" stroke="midnightblue" points="273.937,-21.263 263.531,-23.2546 272.907,-28.187 273.937,-21.263"/>
</g>
</g>
</svg>
