<?xml version="1.0" encoding="UTF-8" standalone="no"?>
<!DOCTYPE svg PUBLIC "-//W3C//DTD SVG 1.1//EN"
 "http://www.w3.org/Graphics/SVG/1.1/DTD/svg11.dtd">
<!-- Generated by graphviz version 2.36.0 (20140111.2315)
 -->
<!-- Title: CSVRender::EditMode::dragAborted Pages: 1 -->
<svg width="524pt" height="38pt"
 viewBox="0.00 0.00 524.00 38.00" xmlns="http://www.w3.org/2000/svg" xmlns:xlink="http://www.w3.org/1999/xlink">
<g id="graph0" class="graph" transform="scale(1 1) rotate(0) translate(4 34)">
<title>CSVRender::EditMode::dragAborted</title>
<polygon fill="white" stroke="none" points="-4,4 -4,-34 520,-34 520,4 -4,4"/>
<!-- Node1 -->
<g id="node1" class="node"><title>Node1</title>
<polygon fill="#bfbfbf" stroke="black" points="0,-0 0,-30 120,-30 120,-0 0,-0"/>
<text text-anchor="start" x="8" y="-18" font-family="FreeSans" font-size="10.00">CSVRender::EditMode</text>
<text text-anchor="middle" x="60" y="-7" font-family="FreeSans" font-size="10.00">::dragAborted</text>
</g>
<!-- Node2 -->
<g id="node2" class="node"><title>Node2</title>
<g id="a_node2"><a xlink:href="classCSVRender_1_1WorldspaceWidget.html#a2676e5dbed6989564aea035d3c3fb285" target="_top" xlink:title="CSVRender::WorldspaceWidget\l::abortDrag">
<polygon fill="white" stroke="black" points="156,-0 156,-30 318,-30 318,-0 156,-0"/>
<text text-anchor="start" x="164" y="-18" font-family="FreeSans" font-size="10.00">CSVRender::WorldspaceWidget</text>
<text text-anchor="middle" x="237" y="-7" font-family="FreeSans" font-size="10.00">::abortDrag</text>
</a>
</g>
</g>
<!-- Node1&#45;&gt;Node2 -->
<g id="edge1" class="edge"><title>Node1&#45;&gt;Node2</title>
<path fill="none" stroke="midnightblue" d="M130.294,-15C138.642,-15 147.222,-15 155.711,-15"/>
<polygon fill="midnightblue" stroke="midnightblue" points="130.247,-11.5001 120.247,-15 130.247,-18.5001 130.247,-11.5001"/>
</g>
<!-- Node3 -->
<g id="node3" class="node"><title>Node3</title>
<g id="a_node3"><a xlink:href="classCSVRender_1_1WorldspaceWidget.html#ad9e40a20c3a626c39fcd9e350476ed63" target="_top" xlink:title="CSVRender::WorldspaceWidget\l::WorldspaceWidget">
<polygon fill="white" stroke="black" points="354,-0 354,-30 516,-30 516,-0 354,-0"/>
<text text-anchor="start" x="362" y="-18" font-family="FreeSans" font-size="10.00">CSVRender::WorldspaceWidget</text>
<text text-anchor="middle" x="435" y="-7" font-family="FreeSans" font-size="10.00">::WorldspaceWidget</text>
</a>
</g>
</g>
<!-- Node2&#45;&gt;Node3 -->
<g id="edge2" class="edge"><title>Node2&#45;&gt;Node3</title>
<path fill="none" stroke="midnightblue" d="M328.077,-15C336.703,-15 345.413,-15 353.935,-15"/>
<polygon fill="midnightblue" stroke="midnightblue" points="328.003,-11.5001 318.003,-15 328.003,-18.5001 328.003,-11.5001"/>
</g>
</g>
</svg>
