<?xml version="1.0" encoding="UTF-8" standalone="no"?>
<!DOCTYPE svg PUBLIC "-//W3C//DTD SVG 1.1//EN"
 "http://www.w3.org/Graphics/SVG/1.1/DTD/svg11.dtd">
<!-- Generated by graphviz version 2.36.0 (20140111.2315)
 -->
<!-- Title: MWBase::DialogueManager::clearInfoActor Pages: 1 -->
<svg width="282pt" height="48pt"
 viewBox="0.00 0.00 282.00 48.00" xmlns="http://www.w3.org/2000/svg" xmlns:xlink="http://www.w3.org/1999/xlink">
<g id="graph0" class="graph" transform="scale(1 1) rotate(0) translate(4 44)">
<title>MWBase::DialogueManager::clearInfoActor</title>
<polygon fill="white" stroke="none" points="-4,4 -4,-44 278,-44 278,4 -4,4"/>
<!-- Node1 -->
<g id="node1" class="node"><title>Node1</title>
<polygon fill="#bfbfbf" stroke="black" points="0.5,-5 0.5,-35 135.5,-35 135.5,-5 0.5,-5"/>
<text text-anchor="start" x="8.5" y="-23" font-family="FreeSans" font-size="10.00">MWBase::DialogueManager</text>
<text text-anchor="middle" x="68" y="-12" font-family="FreeSans" font-size="10.00">::clearInfoActor</text>
</g>
<!-- Node2 -->
<g id="node2" class="node"><title>Node2</title>
<g id="a_node2"><a xlink:href="classMWScript_1_1Dialogue_1_1OpClearInfoActor.html#a7797812229d5fc6b0fd546745f0ab1ab" target="_top" xlink:title="MWScript::Dialogue\l::OpClearInfoActor::\lexecute">
<polygon fill="white" stroke="black" points="172.5,0.5 172.5,-40.5 273.5,-40.5 273.5,0.5 172.5,0.5"/>
<text text-anchor="start" x="180.5" y="-28.5" font-family="FreeSans" font-size="10.00">MWScript::Dialogue</text>
<text text-anchor="start" x="180.5" y="-17.5" font-family="FreeSans" font-size="10.00">::OpClearInfoActor::</text>
<text text-anchor="middle" x="223" y="-6.5" font-family="FreeSans" font-size="10.00">execute</text>
</a>
</g>
</g>
<!-- Node1&#45;&gt;Node2 -->
<g id="edge1" class="edge"><title>Node1&#45;&gt;Node2</title>
<path fill="none" stroke="midnightblue" d="M145.754,-20C154.714,-20 163.668,-20 172.127,-20"/>
<polygon fill="midnightblue" stroke="midnightblue" points="145.663,-16.5001 135.663,-20 145.663,-23.5001 145.663,-16.5001"/>
</g>
</g>
</svg>
