<?xml version="1.0" encoding="UTF-8" standalone="no"?>
<!DOCTYPE svg PUBLIC "-//W3C//DTD SVG 1.1//EN"
 "http://www.w3.org/Graphics/SVG/1.1/DTD/svg11.dtd">
<!-- Generated by graphviz version 2.36.0 (20140111.2315)
 -->
<!-- Title: MWWorld::World::setHour Pages: 1 -->
<svg width="478pt" height="200pt"
 viewBox="0.00 0.00 478.00 200.00" xmlns="http://www.w3.org/2000/svg" xmlns:xlink="http://www.w3.org/1999/xlink">
<g id="graph0" class="graph" transform="scale(1 1) rotate(0) translate(4 196)">
<title>MWWorld::World::setHour</title>
<polygon fill="white" stroke="none" points="-4,4 -4,-196 474,-196 474,4 -4,4"/>
<!-- Node1 -->
<g id="node1" class="node"><title>Node1</title>
<polygon fill="#bfbfbf" stroke="black" points="0.5,-134.5 0.5,-153.5 125.5,-153.5 125.5,-134.5 0.5,-134.5"/>
<text text-anchor="middle" x="63" y="-141.5" font-family="FreeSans" font-size="10.00">MWWorld::World::setHour</text>
</g>
<!-- Node2 -->
<g id="node2" class="node"><title>Node2</title>
<g id="a_node2"><a xlink:href="classESM_1_1Variant.html#a2eac1a969db445ddd0c83300ec03b816" target="_top" xlink:title="Will throw an exception, if type is not compatible with float. ">
<polygon fill="white" stroke="black" points="167.5,-172.5 167.5,-191.5 278.5,-191.5 278.5,-172.5 167.5,-172.5"/>
<text text-anchor="middle" x="223" y="-179.5" font-family="FreeSans" font-size="10.00">ESM::Variant::setFloat</text>
</a>
</g>
</g>
<!-- Node1&#45;&gt;Node2 -->
<g id="edge1" class="edge"><title>Node1&#45;&gt;Node2</title>
<path fill="none" stroke="midnightblue" d="M103.87,-153.589C124.72,-158.604 150.435,-164.788 172.543,-170.105"/>
<polygon fill="midnightblue" stroke="midnightblue" points="171.875,-173.544 182.417,-172.48 173.512,-166.739 171.875,-173.544"/>
</g>
<!-- Node3 -->
<g id="node3" class="node"><title>Node3</title>
<g id="a_node3"><a xlink:href="classMWWorld_1_1World.html#a73f4b35117d0e27f88968e53d258a2c7" target="_top" xlink:title="Set in&#45;game time day. ">
<polygon fill="white" stroke="black" points="162,-93.5 162,-112.5 284,-112.5 284,-93.5 162,-93.5"/>
<text text-anchor="middle" x="223" y="-100.5" font-family="FreeSans" font-size="10.00">MWWorld::World::setDay</text>
</a>
</g>
</g>
<!-- Node1&#45;&gt;Node3 -->
<g id="edge2" class="edge"><title>Node1&#45;&gt;Node3</title>
<path fill="none" stroke="midnightblue" d="M100.646,-134.491C122.9,-128.716 151.522,-121.289 175.379,-115.098"/>
<polygon fill="midnightblue" stroke="midnightblue" points="176.48,-118.428 185.28,-112.529 174.721,-111.653 176.48,-118.428"/>
</g>
<!-- Node4 -->
<g id="node4" class="node"><title>Node4</title>
<g id="a_node4"><a xlink:href="classESM_1_1Variant.html#aad77cad9a160b176ea71e09ecf2c55a5" target="_top" xlink:title="ESM::Variant::getInteger">
<polygon fill="white" stroke="black" points="335,-137.5 335,-156.5 455,-156.5 455,-137.5 335,-137.5"/>
<text text-anchor="middle" x="395" y="-144.5" font-family="FreeSans" font-size="10.00">ESM::Variant::getInteger</text>
</a>
</g>
</g>
<!-- Node1&#45;&gt;Node4 -->
<g id="edge7" class="edge"><title>Node1&#45;&gt;Node4</title>
<path fill="none" stroke="midnightblue" d="M125.683,-144.561C182.174,-145.074 265.701,-145.834 324.523,-146.368"/>
<polygon fill="midnightblue" stroke="midnightblue" points="324.808,-149.871 334.84,-146.462 324.872,-142.871 324.808,-149.871"/>
</g>
<!-- Node3&#45;&gt;Node4 -->
<g id="edge3" class="edge"><title>Node3&#45;&gt;Node4</title>
<path fill="none" stroke="midnightblue" d="M260.887,-112.547C286.283,-119.12 320.223,-127.905 347.475,-134.958"/>
<polygon fill="midnightblue" stroke="midnightblue" points="346.627,-138.354 357.185,-137.471 348.381,-131.577 346.627,-138.354"/>
</g>
<!-- Node5 -->
<g id="node5" class="node"><title>Node5</title>
<g id="a_node5"><a xlink:href="classMWWorld_1_1World.html#a1192c73fc885c896ecbf923f1004a664" target="_top" xlink:title="MWWorld::World::getDaysPer\lMonth">
<polygon fill="white" stroke="black" points="324,-88 324,-118 466,-118 466,-88 324,-88"/>
<text text-anchor="start" x="332" y="-106" font-family="FreeSans" font-size="10.00">MWWorld::World::getDaysPer</text>
<text text-anchor="middle" x="395" y="-95" font-family="FreeSans" font-size="10.00">Month</text>
</a>
</g>
</g>
<!-- Node3&#45;&gt;Node5 -->
<g id="edge4" class="edge"><title>Node3&#45;&gt;Node5</title>
<path fill="none" stroke="midnightblue" d="M284.414,-103C293.906,-103 303.844,-103 313.699,-103"/>
<polygon fill="midnightblue" stroke="midnightblue" points="313.915,-106.5 323.915,-103 313.915,-99.5001 313.915,-106.5"/>
</g>
<!-- Node6 -->
<g id="node6" class="node"><title>Node6</title>
<g id="a_node6"><a xlink:href="classESM_1_1Variant.html#aad4c8e4ca834bb4ac1699af2a8e36f99" target="_top" xlink:title="Will throw an exception, if type is not compatible with integer. ">
<polygon fill="white" stroke="black" points="335.5,-49.5 335.5,-68.5 454.5,-68.5 454.5,-49.5 335.5,-49.5"/>
<text text-anchor="middle" x="395" y="-56.5" font-family="FreeSans" font-size="10.00">ESM::Variant::setInteger</text>
</a>
</g>
</g>
<!-- Node3&#45;&gt;Node6 -->
<g id="edge5" class="edge"><title>Node3&#45;&gt;Node6</title>
<path fill="none" stroke="midnightblue" d="M260.461,-93.4735C278.391,-88.7969 300.325,-83.0878 320,-78 328.677,-75.7562 337.929,-73.3732 346.848,-71.0809"/>
<polygon fill="midnightblue" stroke="midnightblue" points="347.912,-74.4211 356.727,-68.5434 346.171,-67.6411 347.912,-74.4211"/>
</g>
<!-- Node7 -->
<g id="node7" class="node"><title>Node7</title>
<g id="a_node7"><a xlink:href="classMWRender_1_1RenderingManager.html#a9cd360245bd49c7cb6345bb3f05b6eb7" target="_top" xlink:title="MWRender::RenderingManager\l::skySetDate">
<polygon fill="white" stroke="black" points="320,-0 320,-30 470,-30 470,-0 320,-0"/>
<text text-anchor="start" x="328" y="-18" font-family="FreeSans" font-size="10.00">MWRender::RenderingManager</text>
<text text-anchor="middle" x="395" y="-7" font-family="FreeSans" font-size="10.00">::skySetDate</text>
</a>
</g>
</g>
<!-- Node3&#45;&gt;Node7 -->
<g id="edge6" class="edge"><title>Node3&#45;&gt;Node7</title>
<path fill="none" stroke="midnightblue" d="M236.421,-93.346C254.148,-79.9271 288.099,-55.5391 320,-40 324.532,-37.7926 329.308,-35.6991 334.161,-33.7331"/>
<polygon fill="midnightblue" stroke="midnightblue" points="335.477,-36.9771 343.547,-30.1128 332.957,-30.4461 335.477,-36.9771"/>
</g>
</g>
</svg>
