<?xml version="1.0" encoding="UTF-8" standalone="no"?>
<!DOCTYPE svg PUBLIC "-//W3C//DTD SVG 1.1//EN"
 "http://www.w3.org/Graphics/SVG/1.1/DTD/svg11.dtd">
<!-- Generated by graphviz version 2.36.0 (20140111.2315)
 -->
<!-- Title: MWMechanics::ActiveSpells::visitEffectSources Pages: 1 -->
<svg width="1320pt" height="556pt"
 viewBox="0.00 0.00 1320.00 556.00" xmlns="http://www.w3.org/2000/svg" xmlns:xlink="http://www.w3.org/1999/xlink">
<g id="graph0" class="graph" transform="scale(1 1) rotate(0) translate(4 552)">
<title>MWMechanics::ActiveSpells::visitEffectSources</title>
<polygon fill="white" stroke="none" points="-4,4 -4,-552 1316,-552 1316,4 -4,4"/>
<!-- Node1 -->
<g id="node1" class="node"><title>Node1</title>
<polygon fill="#bfbfbf" stroke="black" points="0.5,-219 0.5,-249 147.5,-249 147.5,-219 0.5,-219"/>
<text text-anchor="start" x="8.5" y="-237" font-family="FreeSans" font-size="10.00">MWMechanics::ActiveSpells</text>
<text text-anchor="middle" x="74" y="-226" font-family="FreeSans" font-size="10.00">::visitEffectSources</text>
</g>
<!-- Node2 -->
<g id="node2" class="node"><title>Node2</title>
<g id="a_node2"><a xlink:href="classMWGui_1_1SpellIcons.html#ad1a1586837925af84958253a49d1bc13" target="_top" xlink:title="MWGui::SpellIcons::\lupdateWidgets">
<polygon fill="white" stroke="black" points="219.5,-395 219.5,-425 328.5,-425 328.5,-395 219.5,-395"/>
<text text-anchor="start" x="227.5" y="-413" font-family="FreeSans" font-size="10.00">MWGui::SpellIcons::</text>
<text text-anchor="middle" x="274" y="-402" font-family="FreeSans" font-size="10.00">updateWidgets</text>
</a>
</g>
</g>
<!-- Node1&#45;&gt;Node2 -->
<g id="edge1" class="edge"><title>Node1&#45;&gt;Node2</title>
<path fill="none" stroke="midnightblue" d="M99.46,-255.742C140.138,-291.9 220.692,-363.504 255.88,-394.782"/>
<polygon fill="midnightblue" stroke="midnightblue" points="101.681,-253.033 91.8814,-249.006 97.0302,-258.265 101.681,-253.033"/>
</g>
<!-- Node17 -->
<g id="node17" class="node"><title>Node17</title>
<g id="a_node17"><a xlink:href="namespaceanonymous__namespace_02actors_8cpp_03.html#a229146c18dcc3b72d7f13f271a0b7fc5" target="_top" xlink:title="anonymous_namespace\l\{actors::cpp\}::adjustCommanded\lActor">
<polygon fill="white" stroke="black" points="184.5,-262.5 184.5,-303.5 363.5,-303.5 363.5,-262.5 184.5,-262.5"/>
<text text-anchor="start" x="192.5" y="-291.5" font-family="FreeSans" font-size="10.00">anonymous_namespace</text>
<text text-anchor="start" x="192.5" y="-280.5" font-family="FreeSans" font-size="10.00">{actors::cpp}::adjustCommanded</text>
<text text-anchor="middle" x="274" y="-269.5" font-family="FreeSans" font-size="10.00">Actor</text>
</a>
</g>
</g>
<!-- Node1&#45;&gt;Node17 -->
<g id="edge19" class="edge"><title>Node1&#45;&gt;Node17</title>
<path fill="none" stroke="midnightblue" d="M145.582,-251.467C160.008,-255.037 175.313,-258.825 190.124,-262.49"/>
<polygon fill="midnightblue" stroke="midnightblue" points="146.3,-248.039 135.752,-249.035 144.618,-254.834 146.3,-248.039"/>
</g>
<!-- Node20 -->
<g id="node20" class="node"><title>Node20</title>
<g id="a_node20"><a xlink:href="classMWMechanics_1_1Actors.html#aaeb9f8753ca25ab09b5af8630205ce72" target="_top" xlink:title="MWMechanics::Actors\l::calculateCreatureStatModifiers">
<polygon fill="white" stroke="black" points="189,-175 189,-205 359,-205 359,-175 189,-175"/>
<text text-anchor="start" x="197" y="-193" font-family="FreeSans" font-size="10.00">MWMechanics::Actors</text>
<text text-anchor="middle" x="274" y="-182" font-family="FreeSans" font-size="10.00">::calculateCreatureStatModifiers</text>
</a>
</g>
</g>
<!-- Node1&#45;&gt;Node20 -->
<g id="edge22" class="edge"><title>Node1&#45;&gt;Node20</title>
<path fill="none" stroke="midnightblue" d="M152.708,-216.732C170.108,-212.865 188.43,-208.793 205.382,-205.026"/>
<polygon fill="midnightblue" stroke="midnightblue" points="151.589,-213.395 142.587,-218.981 153.108,-220.228 151.589,-213.395"/>
</g>
<!-- Node22 -->
<g id="node22" class="node"><title>Node22</title>
<g id="a_node22"><a xlink:href="classMWMechanics_1_1Actors.html#a43831198b7ba76efc6e134986d9205e2" target="_top" xlink:title="MWMechanics::Actors\l::killDeadActors">
<polygon fill="white" stroke="black" points="419,-224 419,-254 539,-254 539,-224 419,-224"/>
<text text-anchor="start" x="427" y="-242" font-family="FreeSans" font-size="10.00">MWMechanics::Actors</text>
<text text-anchor="middle" x="479" y="-231" font-family="FreeSans" font-size="10.00">::killDeadActors</text>
</a>
</g>
</g>
<!-- Node1&#45;&gt;Node22 -->
<g id="edge30" class="edge"><title>Node1&#45;&gt;Node22</title>
<path fill="none" stroke="midnightblue" d="M157.755,-235.027C235.493,-235.991 349.888,-237.411 418.84,-238.266"/>
<polygon fill="midnightblue" stroke="midnightblue" points="157.556,-231.524 147.514,-234.9 157.47,-238.524 157.556,-231.524"/>
</g>
<!-- Node27 -->
<g id="node27" class="node"><title>Node27</title>
<g id="a_node27"><a xlink:href="classMWWorld_1_1World.html#a6ab0029af5fd5f6e5bc7b5520416c953" target="_top" xlink:title="MWWorld::World::applyLooping\lParticles">
<polygon fill="white" stroke="black" points="194.5,-80 194.5,-110 353.5,-110 353.5,-80 194.5,-80"/>
<text text-anchor="start" x="202.5" y="-98" font-family="FreeSans" font-size="10.00">MWWorld::World::applyLooping</text>
<text text-anchor="middle" x="274" y="-87" font-family="FreeSans" font-size="10.00">Particles</text>
</a>
</g>
</g>
<!-- Node1&#45;&gt;Node27 -->
<g id="edge31" class="edge"><title>Node1&#45;&gt;Node27</title>
<path fill="none" stroke="midnightblue" d="M104.921,-212.995C145.228,-184.698 215.994,-135.019 251.46,-110.121"/>
<polygon fill="midnightblue" stroke="midnightblue" points="102.74,-210.25 96.5664,-218.86 106.762,-215.979 102.74,-210.25"/>
</g>
<!-- Node3 -->
<g id="node3" class="node"><title>Node3</title>
<g id="a_node3"><a xlink:href="classMWGui_1_1HUD.html#a884b7d30a63c3ee4de03adf2f6911531" target="_top" xlink:title="Called every frame if the window is in an active GUI mode. ">
<polygon fill="white" stroke="black" points="416.5,-496.5 416.5,-515.5 541.5,-515.5 541.5,-496.5 416.5,-496.5"/>
<text text-anchor="middle" x="479" y="-503.5" font-family="FreeSans" font-size="10.00">MWGui::HUD::onFrame</text>
</a>
</g>
</g>
<!-- Node2&#45;&gt;Node3 -->
<g id="edge2" class="edge"><title>Node2&#45;&gt;Node3</title>
<path fill="none" stroke="midnightblue" d="M316.241,-429.503C359.227,-449.831 424.814,-480.848 457.704,-496.402"/>
<polygon fill="midnightblue" stroke="midnightblue" points="317.702,-426.323 307.166,-425.211 314.71,-432.651 317.702,-426.323"/>
</g>
<!-- Node5 -->
<g id="node5" class="node"><title>Node5</title>
<g id="a_node5"><a xlink:href="classMWGui_1_1SpellWindow.html#a9d43976a56543723f66c1cea8c46f7a5" target="_top" xlink:title="Called every frame if the window is in an active GUI mode. ">
<polygon fill="white" stroke="black" points="422.5,-420 422.5,-450 535.5,-450 535.5,-420 422.5,-420"/>
<text text-anchor="start" x="430.5" y="-438" font-family="FreeSans" font-size="10.00">MWGui::SpellWindow</text>
<text text-anchor="middle" x="479" y="-427" font-family="FreeSans" font-size="10.00">::onFrame</text>
</a>
</g>
</g>
<!-- Node2&#45;&gt;Node5 -->
<g id="edge4" class="edge"><title>Node2&#45;&gt;Node5</title>
<path fill="none" stroke="midnightblue" d="M338.661,-417.84C365.486,-421.144 396.425,-424.954 422.325,-428.143"/>
<polygon fill="midnightblue" stroke="midnightblue" points="338.954,-414.35 328.601,-416.601 338.099,-421.297 338.954,-414.35"/>
</g>
<!-- Node6 -->
<g id="node6" class="node"><title>Node6</title>
<g id="a_node6"><a xlink:href="classMWGui_1_1SpellWindow.html#a64c73bc5d18dad5728499158d3449b48" target="_top" xlink:title="MWGui::SpellWindow\l::updateSpells">
<polygon fill="white" stroke="black" points="422.5,-371 422.5,-401 535.5,-401 535.5,-371 422.5,-371"/>
<text text-anchor="start" x="430.5" y="-389" font-family="FreeSans" font-size="10.00">MWGui::SpellWindow</text>
<text text-anchor="middle" x="479" y="-378" font-family="FreeSans" font-size="10.00">::updateSpells</text>
</a>
</g>
</g>
<!-- Node2&#45;&gt;Node6 -->
<g id="edge5" class="edge"><title>Node2&#45;&gt;Node6</title>
<path fill="none" stroke="midnightblue" d="M338.661,-402.474C365.486,-399.302 396.425,-395.644 422.325,-392.582"/>
<polygon fill="midnightblue" stroke="midnightblue" points="338.121,-399.013 328.601,-403.663 338.943,-405.965 338.121,-399.013"/>
</g>
<!-- Node4 -->
<g id="node4" class="node"><title>Node4</title>
<g id="a_node4"><a xlink:href="classMWGui_1_1WindowManager.html#a2f52c12d86d6bb31adc62b06cef3de19" target="_top" xlink:title="MWGui::WindowManager\l::onFrame">
<polygon fill="white" stroke="black" points="619,-518 619,-548 751,-548 751,-518 619,-518"/>
<text text-anchor="start" x="627" y="-536" font-family="FreeSans" font-size="10.00">MWGui::WindowManager</text>
<text text-anchor="middle" x="685" y="-525" font-family="FreeSans" font-size="10.00">::onFrame</text>
</a>
</g>
</g>
<!-- Node3&#45;&gt;Node4 -->
<g id="edge3" class="edge"><title>Node3&#45;&gt;Node4</title>
<path fill="none" stroke="midnightblue" d="M551.952,-515.523C573.76,-518.409 597.579,-521.562 618.91,-524.385"/>
<polygon fill="midnightblue" stroke="midnightblue" points="552.133,-512.017 541.76,-514.174 551.215,-518.956 552.133,-512.017"/>
</g>
<!-- Node7 -->
<g id="node7" class="node"><title>Node7</title>
<g id="a_node7"><a xlink:href="classMWGui_1_1SpellWindow.html#a778b6cb6ac33cdb6cc1d3c25ef27905b" target="_top" xlink:title="Notify that window has been made visible. ">
<polygon fill="white" stroke="black" points="628.5,-322 628.5,-352 741.5,-352 741.5,-322 628.5,-322"/>
<text text-anchor="start" x="636.5" y="-340" font-family="FreeSans" font-size="10.00">MWGui::SpellWindow</text>
<text text-anchor="middle" x="685" y="-329" font-family="FreeSans" font-size="10.00">::onOpen</text>
</a>
</g>
</g>
<!-- Node6&#45;&gt;Node7 -->
<g id="edge6" class="edge"><title>Node6&#45;&gt;Node7</title>
<path fill="none" stroke="midnightblue" d="M545.748,-370.208C572.383,-363.81 602.808,-356.502 628.324,-350.373"/>
<polygon fill="midnightblue" stroke="midnightblue" points="544.65,-366.872 535.744,-372.611 546.285,-373.678 544.65,-366.872"/>
</g>
<!-- Node8 -->
<g id="node8" class="node"><title>Node8</title>
<g id="a_node8"><a xlink:href="classMWGui_1_1SpellWindow.html#a0456e57ed643afd53a8a2e16bd9a7ab4" target="_top" xlink:title="MWGui::SpellWindow\l::onEnchantedItemSelected">
<polygon fill="white" stroke="black" points="610.5,-273 610.5,-303 759.5,-303 759.5,-273 610.5,-273"/>
<text text-anchor="start" x="618.5" y="-291" font-family="FreeSans" font-size="10.00">MWGui::SpellWindow</text>
<text text-anchor="middle" x="685" y="-280" font-family="FreeSans" font-size="10.00">::onEnchantedItemSelected</text>
</a>
</g>
</g>
<!-- Node6&#45;&gt;Node8 -->
<g id="edge7" class="edge"><title>Node6&#45;&gt;Node8</title>
<path fill="none" stroke="midnightblue" d="M507.369,-364.686C529.622,-348.257 562.401,-326.042 594,-312 601.537,-308.651 609.642,-305.684 617.791,-303.079"/>
<polygon fill="midnightblue" stroke="midnightblue" points="504.994,-362.092 499.091,-370.89 509.192,-367.694 504.994,-362.092"/>
</g>
<!-- Node13 -->
<g id="node13" class="node"><title>Node13</title>
<g id="a_node13"><a xlink:href="classMWGui_1_1SpellWindow.html#a8709851ec5cea18a39bad6b66a819c24" target="_top" xlink:title="MWGui::SpellWindow\l::onSpellSelected">
<polygon fill="white" stroke="black" points="628.5,-420 628.5,-450 741.5,-450 741.5,-420 628.5,-420"/>
<text text-anchor="start" x="636.5" y="-438" font-family="FreeSans" font-size="10.00">MWGui::SpellWindow</text>
<text text-anchor="middle" x="685" y="-427" font-family="FreeSans" font-size="10.00">::onSpellSelected</text>
</a>
</g>
</g>
<!-- Node6&#45;&gt;Node13 -->
<g id="edge12" class="edge"><title>Node6&#45;&gt;Node13</title>
<path fill="none" stroke="midnightblue" d="M545.748,-401.792C572.383,-408.19 602.808,-415.498 628.324,-421.627"/>
<polygon fill="midnightblue" stroke="midnightblue" points="546.285,-398.322 535.744,-399.389 544.65,-405.128 546.285,-398.322"/>
</g>
<!-- Node14 -->
<g id="node14" class="node"><title>Node14</title>
<g id="a_node14"><a xlink:href="classMWGui_1_1SpellWindow.html#a09c11de36a84739b10425640f7f4b8f5" target="_top" xlink:title="MWGui::SpellWindow\l::onDeleteSpellAccept">
<polygon fill="white" stroke="black" points="624,-469 624,-499 746,-499 746,-469 624,-469"/>
<text text-anchor="start" x="632" y="-487" font-family="FreeSans" font-size="10.00">MWGui::SpellWindow</text>
<text text-anchor="middle" x="685" y="-476" font-family="FreeSans" font-size="10.00">::onDeleteSpellAccept</text>
</a>
</g>
</g>
<!-- Node6&#45;&gt;Node14 -->
<g id="edge15" class="edge"><title>Node6&#45;&gt;Node14</title>
<path fill="none" stroke="midnightblue" d="M545.181,-403.382C549.683,-405.631 554.011,-408.16 558,-411 579.723,-426.467 571.978,-443.962 594,-459 602.973,-465.127 613.414,-469.759 623.939,-473.26"/>
<polygon fill="midnightblue" stroke="midnightblue" points="546.302,-400.049 535.745,-399.147 543.435,-406.435 546.302,-400.049"/>
</g>
<!-- Node16 -->
<g id="node16" class="node"><title>Node16</title>
<g id="a_node16"><a xlink:href="classMWGui_1_1WindowManager.html#a0613d50e6d7cefe6bbe488e6c5573e7c" target="_top" xlink:title="MWGui::WindowManager\l::updateSpellWindow">
<polygon fill="white" stroke="black" points="619,-371 619,-401 751,-401 751,-371 619,-371"/>
<text text-anchor="start" x="627" y="-389" font-family="FreeSans" font-size="10.00">MWGui::WindowManager</text>
<text text-anchor="middle" x="685" y="-378" font-family="FreeSans" font-size="10.00">::updateSpellWindow</text>
</a>
</g>
</g>
<!-- Node6&#45;&gt;Node16 -->
<g id="edge18" class="edge"><title>Node6&#45;&gt;Node16</title>
<path fill="none" stroke="midnightblue" d="M545.918,-386C569.31,-386 595.607,-386 618.927,-386"/>
<polygon fill="midnightblue" stroke="midnightblue" points="545.744,-382.5 535.744,-386 545.744,-389.5 545.744,-382.5"/>
</g>
<!-- Node9 -->
<g id="node9" class="node"><title>Node9</title>
<g id="a_node9"><a xlink:href="classMWGui_1_1SpellWindow.html#ae02dae08beb91af85c48c6737332c6dc" target="_top" xlink:title="MWGui::SpellWindow\l::onModelIndexSelected">
<polygon fill="white" stroke="black" points="1030.5,-420 1030.5,-450 1161.5,-450 1161.5,-420 1030.5,-420"/>
<text text-anchor="start" x="1038.5" y="-438" font-family="FreeSans" font-size="10.00">MWGui::SpellWindow</text>
<text text-anchor="middle" x="1096" y="-427" font-family="FreeSans" font-size="10.00">::onModelIndexSelected</text>
</a>
</g>
</g>
<!-- Node8&#45;&gt;Node9 -->
<g id="edge8" class="edge"><title>Node8&#45;&gt;Node9</title>
<path fill="none" stroke="midnightblue" d="M770.049,-283.598C835.51,-283.982 926.323,-293.183 994,-334 1017.14,-347.957 1011.29,-363.503 1030,-383 1043.21,-396.763 1060.08,-410.158 1073.32,-419.906"/>
<polygon fill="midnightblue" stroke="midnightblue" points="769.764,-280.099 759.768,-283.609 769.771,-287.099 769.764,-280.099"/>
</g>
<!-- Node11 -->
<g id="node11" class="node"><title>Node11</title>
<g id="a_node11"><a xlink:href="classMWGui_1_1SpellWindow.html#afca63da3134b4eac91d9802d8e078f8b" target="_top" xlink:title="Cycle to next/previous spell. ">
<polygon fill="white" stroke="black" points="846.5,-344 846.5,-374 959.5,-374 959.5,-344 846.5,-344"/>
<text text-anchor="start" x="854.5" y="-362" font-family="FreeSans" font-size="10.00">MWGui::SpellWindow</text>
<text text-anchor="middle" x="903" y="-351" font-family="FreeSans" font-size="10.00">::cycle</text>
</a>
</g>
</g>
<!-- Node8&#45;&gt;Node11 -->
<g id="edge10" class="edge"><title>Node8&#45;&gt;Node11</title>
<path fill="none" stroke="midnightblue" d="M755.803,-305.901C762.654,-307.871 769.479,-309.92 776,-312 806.139,-321.615 839.673,-334.219 864.564,-343.954"/>
<polygon fill="midnightblue" stroke="midnightblue" points="756.356,-302.42 745.781,-303.075 754.456,-309.157 756.356,-302.42"/>
</g>
<!-- Node10 -->
<g id="node10" class="node"><title>Node10</title>
<g id="a_node10"><a xlink:href="classMWGui_1_1SpellWindow.html#a5ad7c776ade4fb177e5c45c758f3ba5b" target="_top" xlink:title="MWGui::SpellWindow\l::SpellWindow">
<polygon fill="white" stroke="black" points="1198.5,-420 1198.5,-450 1311.5,-450 1311.5,-420 1198.5,-420"/>
<text text-anchor="start" x="1206.5" y="-438" font-family="FreeSans" font-size="10.00">MWGui::SpellWindow</text>
<text text-anchor="middle" x="1255" y="-427" font-family="FreeSans" font-size="10.00">::SpellWindow</text>
</a>
</g>
</g>
<!-- Node9&#45;&gt;Node10 -->
<g id="edge9" class="edge"><title>Node9&#45;&gt;Node10</title>
<path fill="none" stroke="midnightblue" d="M1171.82,-435C1180.77,-435 1189.79,-435 1198.4,-435"/>
<polygon fill="midnightblue" stroke="midnightblue" points="1171.76,-431.5 1161.76,-435 1171.76,-438.5 1171.76,-431.5"/>
</g>
<!-- Node12 -->
<g id="node12" class="node"><title>Node12</title>
<g id="a_node12"><a xlink:href="classMWGui_1_1WindowManager.html#a42618aab1fe6b391027243676cf35535" target="_top" xlink:title="Cycle to next or previous spell. ">
<polygon fill="white" stroke="black" points="1030,-344 1030,-374 1162,-374 1162,-344 1030,-344"/>
<text text-anchor="start" x="1038" y="-362" font-family="FreeSans" font-size="10.00">MWGui::WindowManager</text>
<text text-anchor="middle" x="1096" y="-351" font-family="FreeSans" font-size="10.00">::cycleSpell</text>
</a>
</g>
</g>
<!-- Node11&#45;&gt;Node12 -->
<g id="edge11" class="edge"><title>Node11&#45;&gt;Node12</title>
<path fill="none" stroke="midnightblue" d="M969.521,-359C989.042,-359 1010.42,-359 1029.92,-359"/>
<polygon fill="midnightblue" stroke="midnightblue" points="969.502,-355.5 959.502,-359 969.502,-362.5 969.502,-355.5"/>
</g>
<!-- Node13&#45;&gt;Node9 -->
<g id="edge13" class="edge"><title>Node13&#45;&gt;Node9</title>
<path fill="none" stroke="midnightblue" d="M751.601,-435C828.243,-435 954.239,-435 1030.43,-435"/>
<polygon fill="midnightblue" stroke="midnightblue" points="751.585,-431.5 741.585,-435 751.585,-438.5 751.585,-431.5"/>
</g>
<!-- Node13&#45;&gt;Node11 -->
<g id="edge14" class="edge"><title>Node13&#45;&gt;Node11</title>
<path fill="none" stroke="midnightblue" d="M751.28,-417.811C759.644,-415.333 768.055,-412.702 776,-410 807.615,-399.25 842.775,-384.802 867.903,-374.029"/>
<polygon fill="midnightblue" stroke="midnightblue" points="750.143,-414.497 741.515,-420.646 752.094,-421.219 750.143,-414.497"/>
</g>
<!-- Node15 -->
<g id="node15" class="node"><title>Node15</title>
<g id="a_node15"><a xlink:href="classMWGui_1_1SpellWindow.html#a7d5efb2b6e2294d40675dd88beace37e" target="_top" xlink:title="MWGui::SpellWindow\l::askDeleteSpell">
<polygon fill="white" stroke="black" points="846.5,-466 846.5,-496 959.5,-496 959.5,-466 846.5,-466"/>
<text text-anchor="start" x="854.5" y="-484" font-family="FreeSans" font-size="10.00">MWGui::SpellWindow</text>
<text text-anchor="middle" x="903" y="-473" font-family="FreeSans" font-size="10.00">::askDeleteSpell</text>
</a>
</g>
</g>
<!-- Node14&#45;&gt;Node15 -->
<g id="edge16" class="edge"><title>Node14&#45;&gt;Node15</title>
<path fill="none" stroke="midnightblue" d="M756.29,-483.024C785.447,-482.619 818.797,-482.156 846.228,-481.775"/>
<polygon fill="midnightblue" stroke="midnightblue" points="756.118,-479.526 746.168,-483.164 756.216,-486.525 756.118,-479.526"/>
</g>
<!-- Node15&#45;&gt;Node9 -->
<g id="edge17" class="edge"><title>Node15&#45;&gt;Node9</title>
<path fill="none" stroke="midnightblue" d="M969.37,-465.256C989.848,-460.325 1012.39,-454.897 1032.65,-450.016"/>
<polygon fill="midnightblue" stroke="midnightblue" points="968.404,-461.889 959.502,-467.633 970.043,-468.694 968.404,-461.889"/>
</g>
<!-- Node18 -->
<g id="node18" class="node"><title>Node18</title>
<g id="a_node18"><a xlink:href="classMWMechanics_1_1Actors.html#a1588180bba8597286a1db1389cee106e" target="_top" xlink:title="Update actor stats and store desired velocity vectors in movement. ">
<polygon fill="white" stroke="black" points="625,-224 625,-254 745,-254 745,-224 625,-224"/>
<text text-anchor="start" x="633" y="-242" font-family="FreeSans" font-size="10.00">MWMechanics::Actors</text>
<text text-anchor="middle" x="685" y="-231" font-family="FreeSans" font-size="10.00">::update</text>
</a>
</g>
</g>
<!-- Node17&#45;&gt;Node18 -->
<g id="edge20" class="edge"><title>Node17&#45;&gt;Node18</title>
<path fill="none" stroke="midnightblue" d="M373.549,-278.887C428.074,-275.896 496.96,-270.942 558,-263 579.972,-260.141 603.898,-255.879 624.941,-251.736"/>
<polygon fill="midnightblue" stroke="midnightblue" points="373.339,-275.393 363.54,-279.423 373.713,-282.383 373.339,-275.393"/>
</g>
<!-- Node19 -->
<g id="node19" class="node"><title>Node19</title>
<g id="a_node19"><a xlink:href="classMWMechanics_1_1MechanicsManager.html#acf3c8c25fff52b890d0d6ced4b456459" target="_top" xlink:title="MWMechanics::MechanicsManager\l::update">
<polygon fill="white" stroke="black" points="812,-224 812,-254 994,-254 994,-224 812,-224"/>
<text text-anchor="start" x="820" y="-242" font-family="FreeSans" font-size="10.00">MWMechanics::MechanicsManager</text>
<text text-anchor="middle" x="903" y="-231" font-family="FreeSans" font-size="10.00">::update</text>
</a>
</g>
</g>
<!-- Node18&#45;&gt;Node19 -->
<g id="edge21" class="edge"><title>Node18&#45;&gt;Node19</title>
<path fill="none" stroke="midnightblue" d="M755.141,-239C773.174,-239 792.876,-239 811.824,-239"/>
<polygon fill="midnightblue" stroke="midnightblue" points="755.023,-235.5 745.023,-239 755.023,-242.5 755.023,-235.5"/>
</g>
<!-- Node21 -->
<g id="node21" class="node"><title>Node21</title>
<g id="a_node21"><a xlink:href="classMWMechanics_1_1Actors.html#a5af95ec37502d80b957ce40234eeb05f" target="_top" xlink:title="MWMechanics::Actors\l::updateActor">
<polygon fill="white" stroke="black" points="419,-175 419,-205 539,-205 539,-175 419,-175"/>
<text text-anchor="start" x="427" y="-193" font-family="FreeSans" font-size="10.00">MWMechanics::Actors</text>
<text text-anchor="middle" x="479" y="-182" font-family="FreeSans" font-size="10.00">::updateActor</text>
</a>
</g>
</g>
<!-- Node20&#45;&gt;Node21 -->
<g id="edge23" class="edge"><title>Node20&#45;&gt;Node21</title>
<path fill="none" stroke="midnightblue" d="M369.448,-190C386.256,-190 403.323,-190 418.794,-190"/>
<polygon fill="midnightblue" stroke="midnightblue" points="369.033,-186.5 359.033,-190 369.033,-193.5 369.033,-186.5"/>
</g>
<!-- Node20&#45;&gt;Node22 -->
<g id="edge24" class="edge"><title>Node20&#45;&gt;Node22</title>
<path fill="none" stroke="midnightblue" d="M347.206,-207.429C370.719,-213.104 396.525,-219.334 418.956,-224.748"/>
<polygon fill="midnightblue" stroke="midnightblue" points="347.828,-203.979 337.286,-205.035 346.186,-210.783 347.828,-203.979"/>
</g>
<!-- Node23 -->
<g id="node23" class="node"><title>Node23</title>
<g id="a_node23"><a xlink:href="classMWMechanics_1_1Actors.html#a234a6d86f0ba586ee6f72d0b6e6e8dc1" target="_top" xlink:title="Update actors while the player is waiting or sleeping. This should be called every hour...">
<polygon fill="white" stroke="black" points="419,-126 419,-156 539,-156 539,-126 419,-126"/>
<text text-anchor="start" x="427" y="-144" font-family="FreeSans" font-size="10.00">MWMechanics::Actors</text>
<text text-anchor="middle" x="479" y="-133" font-family="FreeSans" font-size="10.00">::rest</text>
</a>
</g>
</g>
<!-- Node20&#45;&gt;Node23 -->
<g id="edge26" class="edge"><title>Node20&#45;&gt;Node23</title>
<path fill="none" stroke="midnightblue" d="M347.206,-172.571C370.719,-166.896 396.525,-160.666 418.956,-155.252"/>
<polygon fill="midnightblue" stroke="midnightblue" points="346.186,-169.217 337.286,-174.965 347.828,-176.021 346.186,-169.217"/>
</g>
<!-- Node25 -->
<g id="node25" class="node"><title>Node25</title>
<g id="a_node25"><a xlink:href="classMWMechanics_1_1Actors.html#ae9acc75d922e60bf1ba950e653d045c3" target="_top" xlink:title="MWMechanics::Actors\l::updateMagicEffects">
<polygon fill="white" stroke="black" points="419,-77 419,-107 539,-107 539,-77 419,-77"/>
<text text-anchor="start" x="427" y="-95" font-family="FreeSans" font-size="10.00">MWMechanics::Actors</text>
<text text-anchor="middle" x="479" y="-84" font-family="FreeSans" font-size="10.00">::updateMagicEffects</text>
</a>
</g>
</g>
<!-- Node20&#45;&gt;Node25 -->
<g id="edge28" class="edge"><title>Node20&#45;&gt;Node25</title>
<path fill="none" stroke="midnightblue" d="M305.271,-169.319C329.937,-153.158 366.108,-130.993 400,-116 407.385,-112.733 415.349,-109.731 423.267,-107.038"/>
<polygon fill="midnightblue" stroke="midnightblue" points="303.134,-166.537 296.73,-174.978 307,-172.373 303.134,-166.537"/>
</g>
<!-- Node22&#45;&gt;Node18 -->
<g id="edge25" class="edge"><title>Node22&#45;&gt;Node18</title>
<path fill="none" stroke="midnightblue" d="M549.321,-239C573.838,-239 601.172,-239 624.774,-239"/>
<polygon fill="midnightblue" stroke="midnightblue" points="549.005,-235.5 539.005,-239 549.005,-242.5 549.005,-235.5"/>
</g>
<!-- Node24 -->
<g id="node24" class="node"><title>Node24</title>
<g id="a_node24"><a xlink:href="classMWMechanics_1_1MechanicsManager.html#a0d59b750f6336af8a3db5007a3509054" target="_top" xlink:title="MWMechanics::MechanicsManager\l::rest">
<polygon fill="white" stroke="black" points="594,-126 594,-156 776,-156 776,-126 594,-126"/>
<text text-anchor="start" x="602" y="-144" font-family="FreeSans" font-size="10.00">MWMechanics::MechanicsManager</text>
<text text-anchor="middle" x="685" y="-133" font-family="FreeSans" font-size="10.00">::rest</text>
</a>
</g>
</g>
<!-- Node23&#45;&gt;Node24 -->
<g id="edge27" class="edge"><title>Node23&#45;&gt;Node24</title>
<path fill="none" stroke="midnightblue" d="M549.281,-141C563.654,-141 578.997,-141 593.989,-141"/>
<polygon fill="midnightblue" stroke="midnightblue" points="549.005,-137.5 539.005,-141 549.005,-144.5 549.005,-137.5"/>
</g>
<!-- Node26 -->
<g id="node26" class="node"><title>Node26</title>
<g id="a_node26"><a xlink:href="classMWMechanics_1_1MechanicsManager.html#afc410b78620c72d4ec2447b495430128" target="_top" xlink:title="MWMechanics::MechanicsManager\l::updateMagicEffects">
<polygon fill="white" stroke="black" points="594,-77 594,-107 776,-107 776,-77 594,-77"/>
<text text-anchor="start" x="602" y="-95" font-family="FreeSans" font-size="10.00">MWMechanics::MechanicsManager</text>
<text text-anchor="middle" x="685" y="-84" font-family="FreeSans" font-size="10.00">::updateMagicEffects</text>
</a>
</g>
</g>
<!-- Node25&#45;&gt;Node26 -->
<g id="edge29" class="edge"><title>Node25&#45;&gt;Node26</title>
<path fill="none" stroke="midnightblue" d="M549.281,-92C563.654,-92 578.997,-92 593.989,-92"/>
<polygon fill="midnightblue" stroke="midnightblue" points="549.005,-88.5001 539.005,-92 549.005,-95.5001 549.005,-88.5001"/>
</g>
<!-- Node28 -->
<g id="node28" class="node"><title>Node28</title>
<g id="a_node28"><a xlink:href="classMWWorld_1_1World.html#a9d8e3dad4d86185e440cb86957dd5c6b" target="_top" xlink:title="MWWorld::World::renderPlayer">
<polygon fill="white" stroke="black" points="400.5,-38.5 400.5,-57.5 557.5,-57.5 557.5,-38.5 400.5,-38.5"/>
<text text-anchor="middle" x="479" y="-45.5" font-family="FreeSans" font-size="10.00">MWWorld::World::renderPlayer</text>
</a>
</g>
</g>
<!-- Node27&#45;&gt;Node28 -->
<g id="edge32" class="edge"><title>Node27&#45;&gt;Node28</title>
<path fill="none" stroke="midnightblue" d="M349.632,-77.7207C379.07,-70.905 411.758,-63.3369 436.78,-57.5434"/>
<polygon fill="midnightblue" stroke="midnightblue" points="348.741,-74.3342 339.789,-79.9997 350.32,-81.1538 348.741,-74.3342"/>
</g>
<!-- Node29 -->
<g id="node29" class="node"><title>Node29</title>
<g id="a_node29"><a xlink:href="classMWWorld_1_1World.html#a33b8441f680734ed2de7679bc614d172" target="_top" xlink:title="MWWorld::World::startNewGame">
<polygon fill="white" stroke="black" points="601,-0.5 601,-19.5 769,-19.5 769,-0.5 601,-0.5"/>
<text text-anchor="middle" x="685" y="-7.5" font-family="FreeSans" font-size="10.00">MWWorld::World::startNewGame</text>
</a>
</g>
</g>
<!-- Node28&#45;&gt;Node29 -->
<g id="edge33" class="edge"><title>Node28&#45;&gt;Node29</title>
<path fill="none" stroke="midnightblue" d="M541.297,-36.5819C570.486,-31.1448 604.994,-24.7168 632.764,-19.5439"/>
<polygon fill="midnightblue" stroke="midnightblue" points="540.404,-33.1879 531.214,-38.46 541.686,-40.0695 540.404,-33.1879"/>
</g>
<!-- Node30 -->
<g id="node30" class="node"><title>Node30</title>
<g id="a_node30"><a xlink:href="classMWWorld_1_1World.html#a7d0ab2f8828263def8994634d3aee770" target="_top" xlink:title="MWWorld::World::createRecord">
<polygon fill="white" stroke="black" points="605.5,-38.5 605.5,-57.5 764.5,-57.5 764.5,-38.5 605.5,-38.5"/>
<text text-anchor="middle" x="685" y="-45.5" font-family="FreeSans" font-size="10.00">MWWorld::World::createRecord</text>
</a>
</g>
</g>
<!-- Node28&#45;&gt;Node30 -->
<g id="edge34" class="edge"><title>Node28&#45;&gt;Node30</title>
<path fill="none" stroke="midnightblue" d="M568.076,-48C580.521,-48 593.248,-48 605.496,-48"/>
<polygon fill="midnightblue" stroke="midnightblue" points="567.706,-44.5001 557.706,-48 567.706,-51.5001 567.706,-44.5001"/>
</g>
</g>
</svg>
