<?xml version="1.0" encoding="UTF-8" standalone="no"?>
<!DOCTYPE svg PUBLIC "-//W3C//DTD SVG 1.1//EN"
 "http://www.w3.org/Graphics/SVG/1.1/DTD/svg11.dtd">
<!-- Generated by graphviz version 2.36.0 (20140111.2315)
 -->
<!-- Title: MWGui::RaceDialog::getResult Pages: 1 -->
<svg width="1190pt" height="656pt"
 viewBox="0.00 0.00 1190.00 656.00" xmlns="http://www.w3.org/2000/svg" xmlns:xlink="http://www.w3.org/1999/xlink">
<g id="graph0" class="graph" transform="scale(1 1) rotate(0) translate(4 652)">
<title>MWGui::RaceDialog::getResult</title>
<polygon fill="white" stroke="none" points="-4,4 -4,-652 1186,-652 1186,4 -4,4"/>
<!-- Node1 -->
<g id="node1" class="node"><title>Node1</title>
<polygon fill="#bfbfbf" stroke="black" points="0,-318 0,-348 114,-348 114,-318 0,-318"/>
<text text-anchor="start" x="8" y="-336" font-family="FreeSans" font-size="10.00">MWGui::RaceDialog::</text>
<text text-anchor="middle" x="57" y="-325" font-family="FreeSans" font-size="10.00">getResult</text>
</g>
<!-- Node2 -->
<g id="node2" class="node"><title>Node2</title>
<g id="a_node2"><a xlink:href="classMWGui_1_1CharacterCreation.html#a8d12e29ee6100c24ec5959c9fc901243" target="_top" xlink:title="MWGui::CharacterCreation\l::selectRace">
<polygon fill="white" stroke="black" points="150.5,-318 150.5,-348 293.5,-348 293.5,-318 150.5,-318"/>
<text text-anchor="start" x="158.5" y="-336" font-family="FreeSans" font-size="10.00">MWGui::CharacterCreation</text>
<text text-anchor="middle" x="222" y="-325" font-family="FreeSans" font-size="10.00">::selectRace</text>
</a>
</g>
</g>
<!-- Node1&#45;&gt;Node2 -->
<g id="edge1" class="edge"><title>Node1&#45;&gt;Node2</title>
<path fill="none" stroke="midnightblue" d="M124.123,-333C132.78,-333 141.677,-333 150.404,-333"/>
<polygon fill="midnightblue" stroke="midnightblue" points="124.095,-329.5 114.095,-333 124.095,-336.5 124.095,-329.5"/>
</g>
<!-- Node3 -->
<g id="node3" class="node"><title>Node3</title>
<g id="a_node3"><a xlink:href="classMWGui_1_1CharacterCreation.html#ad93c21a479aa6a12b75e2a5b82caeda5" target="_top" xlink:title="MWGui::CharacterCreation\l::onRaceDialogBack">
<polygon fill="white" stroke="black" points="330.5,-343 330.5,-373 473.5,-373 473.5,-343 330.5,-343"/>
<text text-anchor="start" x="338.5" y="-361" font-family="FreeSans" font-size="10.00">MWGui::CharacterCreation</text>
<text text-anchor="middle" x="402" y="-350" font-family="FreeSans" font-size="10.00">::onRaceDialogBack</text>
</a>
</g>
</g>
<!-- Node2&#45;&gt;Node3 -->
<g id="edge2" class="edge"><title>Node2&#45;&gt;Node3</title>
<path fill="none" stroke="midnightblue" d="M303.646,-344.327C312.599,-345.584 321.666,-346.858 330.479,-348.095"/>
<polygon fill="midnightblue" stroke="midnightblue" points="303.996,-340.842 293.606,-342.917 303.022,-347.773 303.996,-340.842"/>
</g>
<!-- Node26 -->
<g id="node26" class="node"><title>Node26</title>
<g id="a_node26"><a xlink:href="classMWGui_1_1CharacterCreation.html#ac8a2fa9c545c30970a27693097377bba" target="_top" xlink:title="MWGui::CharacterCreation\l::onRaceDialogDone">
<polygon fill="white" stroke="black" points="330.5,-294 330.5,-324 473.5,-324 473.5,-294 330.5,-294"/>
<text text-anchor="start" x="338.5" y="-312" font-family="FreeSans" font-size="10.00">MWGui::CharacterCreation</text>
<text text-anchor="middle" x="402" y="-301" font-family="FreeSans" font-size="10.00">::onRaceDialogDone</text>
</a>
</g>
</g>
<!-- Node2&#45;&gt;Node26 -->
<g id="edge29" class="edge"><title>Node2&#45;&gt;Node26</title>
<path fill="none" stroke="midnightblue" d="M303.646,-322.126C312.599,-320.919 321.666,-319.697 330.479,-318.508"/>
<polygon fill="midnightblue" stroke="midnightblue" points="303.049,-318.675 293.606,-323.48 303.984,-325.612 303.049,-318.675"/>
</g>
<!-- Node4 -->
<g id="node4" class="node"><title>Node4</title>
<g id="a_node4"><a xlink:href="classMWGui_1_1CharacterCreation.html#a56a9e33b81417cbf53bb8006908c2296" target="_top" xlink:title="MWGui::CharacterCreation\l::spawnDialog">
<polygon fill="white" stroke="black" points="510.5,-318 510.5,-348 653.5,-348 653.5,-318 510.5,-318"/>
<text text-anchor="start" x="518.5" y="-336" font-family="FreeSans" font-size="10.00">MWGui::CharacterCreation</text>
<text text-anchor="middle" x="582" y="-325" font-family="FreeSans" font-size="10.00">::spawnDialog</text>
</a>
</g>
</g>
<!-- Node3&#45;&gt;Node4 -->
<g id="edge3" class="edge"><title>Node3&#45;&gt;Node4</title>
<path fill="none" stroke="midnightblue" d="M483.646,-346.673C492.599,-345.416 501.666,-344.142 510.479,-342.905"/>
<polygon fill="midnightblue" stroke="midnightblue" points="483.022,-343.227 473.606,-348.083 483.996,-350.158 483.022,-343.227"/>
</g>
<!-- Node5 -->
<g id="node5" class="node"><title>Node5</title>
<g id="a_node5"><a xlink:href="classMWGui_1_1WindowManager.html#ab9fdbfdc3d3b76fe9813cbb743d334da" target="_top" xlink:title="MWGui::WindowManager\l::updateVisible">
<polygon fill="white" stroke="black" points="690,-318 690,-348 822,-348 822,-318 690,-318"/>
<text text-anchor="start" x="698" y="-336" font-family="FreeSans" font-size="10.00">MWGui::WindowManager</text>
<text text-anchor="middle" x="756" y="-325" font-family="FreeSans" font-size="10.00">::updateVisible</text>
</a>
</g>
</g>
<!-- Node4&#45;&gt;Node5 -->
<g id="edge4" class="edge"><title>Node4&#45;&gt;Node5</title>
<path fill="none" stroke="midnightblue" d="M664.019,-333C672.638,-333 681.324,-333 689.729,-333"/>
<polygon fill="midnightblue" stroke="midnightblue" points="663.952,-329.5 653.952,-333 663.952,-336.5 663.952,-329.5"/>
</g>
<!-- Node6 -->
<g id="node6" class="node"><title>Node6</title>
<g id="a_node6"><a xlink:href="classMWGui_1_1WindowManager.html#a2066d296aa345dcb4008cbd07d3c52c2" target="_top" xlink:title="MWGui::WindowManager\l::initUI">
<polygon fill="white" stroke="black" points="859,-617 859,-647 991,-647 991,-617 859,-617"/>
<text text-anchor="start" x="867" y="-635" font-family="FreeSans" font-size="10.00">MWGui::WindowManager</text>
<text text-anchor="middle" x="925" y="-624" font-family="FreeSans" font-size="10.00">::initUI</text>
</a>
</g>
</g>
<!-- Node5&#45;&gt;Node6 -->
<g id="edge5" class="edge"><title>Node5&#45;&gt;Node6</title>
<path fill="none" stroke="midnightblue" d="M759.374,-358.28C765.682,-411.472 787.531,-535.899 858,-607 861.795,-610.829 866.235,-614.081 870.987,-616.84"/>
<polygon fill="midnightblue" stroke="midnightblue" points="762.822,-357.614 758.252,-348.056 755.864,-358.378 762.822,-357.614"/>
</g>
<!-- Node8 -->
<g id="node8" class="node"><title>Node8</title>
<g id="a_node8"><a xlink:href="classMWGui_1_1WindowManager.html#a044fcf2ab107f7c97dbf184ab0e3e868" target="_top" xlink:title="MWGui::WindowManager\l::interactiveMessageBox">
<polygon fill="white" stroke="black" points="858,-568 858,-598 992,-598 992,-568 858,-568"/>
<text text-anchor="start" x="866" y="-586" font-family="FreeSans" font-size="10.00">MWGui::WindowManager</text>
<text text-anchor="middle" x="925" y="-575" font-family="FreeSans" font-size="10.00">::interactiveMessageBox</text>
</a>
</g>
</g>
<!-- Node5&#45;&gt;Node8 -->
<g id="edge7" class="edge"><title>Node5&#45;&gt;Node8</title>
<path fill="none" stroke="midnightblue" d="M762.424,-358.199C773.242,-402.907 801.476,-496.688 858,-553 864.063,-559.041 871.562,-563.989 879.306,-567.999"/>
<polygon fill="midnightblue" stroke="midnightblue" points="765.771,-357.137 760.097,-348.19 758.953,-358.722 765.771,-357.137"/>
</g>
<!-- Node9 -->
<g id="node9" class="node"><title>Node9</title>
<g id="a_node9"><a xlink:href="classMWGui_1_1WindowManager.html#a1c324aaf572326e89420cfec288b433c" target="_top" xlink:title="MWGui::WindowManager\l::pushGuiMode">
<polygon fill="white" stroke="black" points="859,-392 859,-422 991,-422 991,-392 859,-392"/>
<text text-anchor="start" x="867" y="-410" font-family="FreeSans" font-size="10.00">MWGui::WindowManager</text>
<text text-anchor="middle" x="925" y="-399" font-family="FreeSans" font-size="10.00">::pushGuiMode</text>
</a>
</g>
</g>
<!-- Node5&#45;&gt;Node9 -->
<g id="edge8" class="edge"><title>Node5&#45;&gt;Node9</title>
<path fill="none" stroke="midnightblue" d="M795.377,-352.621C814.085,-361.928 837.024,-372.96 858,-382 865.877,-385.394 874.381,-388.802 882.58,-391.961"/>
<polygon fill="midnightblue" stroke="midnightblue" points="796.796,-349.418 786.287,-348.07 793.662,-355.677 796.796,-349.418"/>
</g>
<!-- Node13 -->
<g id="node13" class="node"><title>Node13</title>
<g id="a_node13"><a xlink:href="classMWGui_1_1WindowManager.html#a8f63377cbff070264ed7da37076040c1" target="_top" xlink:title="MWGui::WindowManager\l::popGuiMode">
<polygon fill="white" stroke="black" points="859,-480 859,-510 991,-510 991,-480 859,-480"/>
<text text-anchor="start" x="867" y="-498" font-family="FreeSans" font-size="10.00">MWGui::WindowManager</text>
<text text-anchor="middle" x="925" y="-487" font-family="FreeSans" font-size="10.00">::popGuiMode</text>
</a>
</g>
</g>
<!-- Node5&#45;&gt;Node13 -->
<g id="edge12" class="edge"><title>Node5&#45;&gt;Node13</title>
<path fill="none" stroke="midnightblue" d="M770.6,-357.44C787.745,-386.379 819.66,-434.491 858,-465 865.288,-470.8 873.878,-475.753 882.407,-479.865"/>
<polygon fill="midnightblue" stroke="midnightblue" points="773.409,-355.308 765.364,-348.414 767.355,-358.82 773.409,-355.308"/>
</g>
<!-- Node14 -->
<g id="node14" class="node"><title>Node14</title>
<g id="a_node14"><a xlink:href="classMWGui_1_1WindowManager.html#a6b2a76f33e841032740681216f2fcc7b" target="_top" xlink:title="can be anywhere in the stack ">
<polygon fill="white" stroke="black" points="1039,-534 1039,-564 1171,-564 1171,-534 1039,-534"/>
<text text-anchor="start" x="1047" y="-552" font-family="FreeSans" font-size="10.00">MWGui::WindowManager</text>
<text text-anchor="middle" x="1105" y="-541" font-family="FreeSans" font-size="10.00">::removeGuiMode</text>
</a>
</g>
</g>
<!-- Node5&#45;&gt;Node14 -->
<g id="edge16" class="edge"><title>Node5&#45;&gt;Node14</title>
<path fill="none" stroke="midnightblue" d="M762.719,-357.999C773.557,-399.142 801.263,-480.405 858,-519 911.006,-555.057 985.644,-559.304 1038.78,-556.555"/>
<polygon fill="midnightblue" stroke="midnightblue" points="766.094,-357.068 760.264,-348.221 759.305,-358.772 766.094,-357.068"/>
</g>
<!-- Node15 -->
<g id="node15" class="node"><title>Node15</title>
<g id="a_node15"><a xlink:href="classMWGui_1_1WindowManager.html#a9825efe2509280a4e509c80fdb140513" target="_top" xlink:title="Clear all savegame&#45;specific data. ">
<polygon fill="white" stroke="black" points="1039,-485 1039,-515 1171,-515 1171,-485 1039,-485"/>
<text text-anchor="start" x="1047" y="-503" font-family="FreeSans" font-size="10.00">MWGui::WindowManager</text>
<text text-anchor="middle" x="1105" y="-492" font-family="FreeSans" font-size="10.00">::clear</text>
</a>
</g>
</g>
<!-- Node5&#45;&gt;Node15 -->
<g id="edge27" class="edge"><title>Node5&#45;&gt;Node15</title>
<path fill="none" stroke="midnightblue" d="M775.105,-356.323C793.626,-378.635 824.383,-411.668 858,-431 866.387,-435.823 977.64,-466.131 1047.63,-484.939"/>
<polygon fill="midnightblue" stroke="midnightblue" points="777.648,-353.902 768.626,-348.347 772.215,-358.316 777.648,-353.902"/>
</g>
<!-- Node16 -->
<g id="node16" class="node"><title>Node16</title>
<g id="a_node16"><a xlink:href="classMWGui_1_1WindowManager.html#aeb2d42ff40077e3b3513c5ed67732fc5" target="_top" xlink:title="Allow one or more windows. ">
<polygon fill="white" stroke="black" points="859,-343 859,-373 991,-373 991,-343 859,-343"/>
<text text-anchor="start" x="867" y="-361" font-family="FreeSans" font-size="10.00">MWGui::WindowManager</text>
<text text-anchor="middle" x="925" y="-350" font-family="FreeSans" font-size="10.00">::allow</text>
</a>
</g>
</g>
<!-- Node5&#45;&gt;Node16 -->
<g id="edge17" class="edge"><title>Node5&#45;&gt;Node16</title>
<path fill="none" stroke="midnightblue" d="M832.061,-344.237C841.002,-345.575 850.072,-346.933 858.858,-348.248"/>
<polygon fill="midnightblue" stroke="midnightblue" points="832.453,-340.756 822.045,-342.737 831.416,-347.679 832.453,-340.756"/>
</g>
<!-- Node18 -->
<g id="node18" class="node"><title>Node18</title>
<g id="a_node18"><a xlink:href="classMWGui_1_1WindowManager.html#a9f2fb85060c4d0ff97fc8e8be332192d" target="_top" xlink:title="Disallow all inventory mode windows. ">
<polygon fill="white" stroke="black" points="859,-294 859,-324 991,-324 991,-294 859,-294"/>
<text text-anchor="start" x="867" y="-312" font-family="FreeSans" font-size="10.00">MWGui::WindowManager</text>
<text text-anchor="middle" x="925" y="-301" font-family="FreeSans" font-size="10.00">::disallowAll</text>
</a>
</g>
</g>
<!-- Node5&#45;&gt;Node18 -->
<g id="edge19" class="edge"><title>Node5&#45;&gt;Node18</title>
<path fill="none" stroke="midnightblue" d="M832.061,-322.213C841.002,-320.928 850.072,-319.624 858.858,-318.362"/>
<polygon fill="midnightblue" stroke="midnightblue" points="831.445,-318.765 822.045,-323.652 832.441,-325.694 831.445,-318.765"/>
</g>
<!-- Node19 -->
<g id="node19" class="node"><title>Node19</title>
<g id="a_node19"><a xlink:href="classMWGui_1_1WindowManager.html#a19dfd4c859d0d058631664bdb3317d58" target="_top" xlink:title="MWGui::WindowManager\l::toggleVisible">
<polygon fill="white" stroke="black" points="859,-245 859,-275 991,-275 991,-245 859,-245"/>
<text text-anchor="start" x="867" y="-263" font-family="FreeSans" font-size="10.00">MWGui::WindowManager</text>
<text text-anchor="middle" x="925" y="-252" font-family="FreeSans" font-size="10.00">::toggleVisible</text>
</a>
</g>
</g>
<!-- Node5&#45;&gt;Node19 -->
<g id="edge21" class="edge"><title>Node5&#45;&gt;Node19</title>
<path fill="none" stroke="midnightblue" d="M795.325,-313.255C814.02,-303.921 836.964,-292.9 858,-284 865.186,-280.96 872.905,-277.939 880.44,-275.119"/>
<polygon fill="midnightblue" stroke="midnightblue" points="793.603,-310.203 786.242,-317.824 796.749,-316.457 793.603,-310.203"/>
</g>
<!-- Node20 -->
<g id="node20" class="node"><title>Node20</title>
<g id="a_node20"><a xlink:href="classMWGui_1_1WindowManager.html#a8c06ac694968e2167fd0180621c5fde1" target="_top" xlink:title="MWGui::WindowManager\l::forceHide">
<polygon fill="white" stroke="black" points="859,-196 859,-226 991,-226 991,-196 859,-196"/>
<text text-anchor="start" x="867" y="-214" font-family="FreeSans" font-size="10.00">MWGui::WindowManager</text>
<text text-anchor="middle" x="925" y="-203" font-family="FreeSans" font-size="10.00">::forceHide</text>
</a>
</g>
</g>
<!-- Node5&#45;&gt;Node20 -->
<g id="edge22" class="edge"><title>Node5&#45;&gt;Node20</title>
<path fill="none" stroke="midnightblue" d="M775.747,-309.851C794.543,-287.951 825.318,-255.469 858,-235 863.373,-231.635 869.287,-228.646 875.299,-226.021"/>
<polygon fill="midnightblue" stroke="midnightblue" points="772.917,-307.777 769.15,-317.68 778.271,-312.288 772.917,-307.777"/>
</g>
<!-- Node22 -->
<g id="node22" class="node"><title>Node22</title>
<g id="a_node22"><a xlink:href="classMWGui_1_1WindowManager.html#ae9b8cc0be0202b8db35cde4268a5980f" target="_top" xlink:title="MWGui::WindowManager\l::unsetForceHide">
<polygon fill="white" stroke="black" points="859,-147 859,-177 991,-177 991,-147 859,-147"/>
<text text-anchor="start" x="867" y="-165" font-family="FreeSans" font-size="10.00">MWGui::WindowManager</text>
<text text-anchor="middle" x="925" y="-154" font-family="FreeSans" font-size="10.00">::unsetForceHide</text>
</a>
</g>
</g>
<!-- Node5&#45;&gt;Node22 -->
<g id="edge24" class="edge"><title>Node5&#45;&gt;Node22</title>
<path fill="none" stroke="midnightblue" d="M767.85,-308.576C783.396,-276.21 814.953,-219.325 858,-186 862.435,-182.567 867.407,-179.592 872.58,-177.023"/>
<polygon fill="midnightblue" stroke="midnightblue" points="764.611,-307.239 763.545,-317.78 770.952,-310.205 764.611,-307.239"/>
</g>
<!-- Node23 -->
<g id="node23" class="node"><title>Node23</title>
<g id="a_node23"><a xlink:href="classMWGui_1_1WindowManager.html#a0af4fdd65c849f2481367a76d9dc54da" target="_top" xlink:title="Turn visibility of HUD on or off. ">
<polygon fill="white" stroke="black" points="859,-98 859,-128 991,-128 991,-98 859,-98"/>
<text text-anchor="start" x="867" y="-116" font-family="FreeSans" font-size="10.00">MWGui::WindowManager</text>
<text text-anchor="middle" x="925" y="-105" font-family="FreeSans" font-size="10.00">::toggleHud</text>
</a>
</g>
</g>
<!-- Node5&#45;&gt;Node23 -->
<g id="edge25" class="edge"><title>Node5&#45;&gt;Node23</title>
<path fill="none" stroke="midnightblue" d="M763.396,-308.099C775.225,-266.855 804.345,-184.237 858,-137 861.935,-133.536 866.41,-130.558 871.133,-128.001"/>
<polygon fill="midnightblue" stroke="midnightblue" points="759.983,-307.308 760.695,-317.878 766.731,-309.171 759.983,-307.308"/>
</g>
<!-- Node24 -->
<g id="node24" class="node"><title>Node24</title>
<g id="a_node24"><a xlink:href="classMWGui_1_1WindowManager.html#afb89d5bc0e8f5c530bc1e40e151877c1" target="_top" xlink:title="MWGui::WindowManager\l::showSoulgemDialog">
<polygon fill="white" stroke="black" points="859,-49 859,-79 991,-79 991,-49 859,-49"/>
<text text-anchor="start" x="867" y="-67" font-family="FreeSans" font-size="10.00">MWGui::WindowManager</text>
<text text-anchor="middle" x="925" y="-56" font-family="FreeSans" font-size="10.00">::showSoulgemDialog</text>
</a>
</g>
</g>
<!-- Node5&#45;&gt;Node24 -->
<g id="edge26" class="edge"><title>Node5&#45;&gt;Node24</title>
<path fill="none" stroke="midnightblue" d="M760.527,-307.949C768.711,-258.958 793.468,-149.862 858,-88 861.609,-84.5407 865.754,-81.5739 870.172,-79.0305"/>
<polygon fill="midnightblue" stroke="midnightblue" points="757.044,-307.563 758.944,-317.986 763.959,-308.654 757.044,-307.563"/>
</g>
<!-- Node25 -->
<g id="node25" class="node"><title>Node25</title>
<g id="a_node25"><a xlink:href="classMWGui_1_1WindowManager.html#a2ebf9d8952c285e995a7a3681bfb2c30" target="_top" xlink:title="MWGui::WindowManager\l::pinWindow">
<polygon fill="white" stroke="black" points="859,-0 859,-30 991,-30 991,-0 859,-0"/>
<text text-anchor="start" x="867" y="-18" font-family="FreeSans" font-size="10.00">MWGui::WindowManager</text>
<text text-anchor="middle" x="925" y="-7" font-family="FreeSans" font-size="10.00">::pinWindow</text>
</a>
</g>
</g>
<!-- Node5&#45;&gt;Node25 -->
<g id="edge28" class="edge"><title>Node5&#45;&gt;Node25</title>
<path fill="none" stroke="midnightblue" d="M758.548,-307.742C763.322,-251.707 782.478,-115.883 858,-39 861.332,-35.6078 865.181,-32.6921 869.311,-30.1866"/>
<polygon fill="midnightblue" stroke="midnightblue" points="755.049,-307.605 757.773,-317.843 762.028,-308.141 755.049,-307.605"/>
</g>
<!-- Node7 -->
<g id="node7" class="node"><title>Node7</title>
<g id="a_node7"><a xlink:href="classOMW_1_1Engine.html#a9edab665083b0f5db2cda761f3e9c2c3" target="_top" xlink:title="Prepare engine for game play. ">
<polygon fill="white" stroke="black" points="1028,-622.5 1028,-641.5 1182,-641.5 1182,-622.5 1028,-622.5"/>
<text text-anchor="middle" x="1105" y="-629.5" font-family="FreeSans" font-size="10.00">OMW::Engine::prepareEngine</text>
</a>
</g>
</g>
<!-- Node6&#45;&gt;Node7 -->
<g id="edge6" class="edge"><title>Node6&#45;&gt;Node7</title>
<path fill="none" stroke="midnightblue" d="M1001.28,-632C1010.12,-632 1019.14,-632 1027.99,-632"/>
<polygon fill="midnightblue" stroke="midnightblue" points="1001.02,-628.5 991.018,-632 1001.02,-635.5 1001.02,-628.5"/>
</g>
<!-- Node10 -->
<g id="node10" class="node"><title>Node10</title>
<g id="a_node10"><a xlink:href="classMWGui_1_1WindowManager.html#a1d29eb164660e2bd45cb5641a90ac867" target="_top" xlink:title="Gracefully attempts to exit the topmost GUI mode. ">
<polygon fill="white" stroke="black" points="1039,-436 1039,-466 1171,-466 1171,-436 1039,-436"/>
<text text-anchor="start" x="1047" y="-454" font-family="FreeSans" font-size="10.00">MWGui::WindowManager</text>
<text text-anchor="middle" x="1105" y="-443" font-family="FreeSans" font-size="10.00">::exitCurrentGuiMode</text>
</a>
</g>
</g>
<!-- Node9&#45;&gt;Node10 -->
<g id="edge9" class="edge"><title>Node9&#45;&gt;Node10</title>
<path fill="none" stroke="midnightblue" d="M996.737,-424.485C1012.12,-428.287 1028.26,-432.277 1043.21,-435.974"/>
<polygon fill="midnightblue" stroke="midnightblue" points="997.307,-421.021 986.76,-422.019 995.628,-427.817 997.307,-421.021"/>
</g>
<!-- Node11 -->
<g id="node11" class="node"><title>Node11</title>
<g id="a_node11"><a xlink:href="classMWGui_1_1WindowManager.html#a0767a1ab9cb727c7bd0243c35226b428" target="_top" xlink:title="MWGui::WindowManager\l::pushGuiMode">
<polygon fill="white" stroke="black" points="1039,-387 1039,-417 1171,-417 1171,-387 1039,-387"/>
<text text-anchor="start" x="1047" y="-405" font-family="FreeSans" font-size="10.00">MWGui::WindowManager</text>
<text text-anchor="middle" x="1105" y="-394" font-family="FreeSans" font-size="10.00">::pushGuiMode</text>
</a>
</g>
</g>
<!-- Node9&#45;&gt;Node11 -->
<g id="edge10" class="edge"><title>Node9&#45;&gt;Node11</title>
<path fill="none" stroke="midnightblue" d="M1001.38,-404.883C1013.85,-404.532 1026.68,-404.172 1038.86,-403.83"/>
<polygon fill="midnightblue" stroke="midnightblue" points="1000.92,-401.394 991.018,-405.174 1001.11,-408.391 1000.92,-401.394"/>
</g>
<!-- Node12 -->
<g id="node12" class="node"><title>Node12</title>
<g id="a_node12"><a xlink:href="classMWGui_1_1WindowManager.html#a601bb982ab0708ae59f272cf67cfd9e7" target="_top" xlink:title="MWGui::WindowManager\l::goToJail">
<polygon fill="white" stroke="black" points="1039,-338 1039,-368 1171,-368 1171,-338 1039,-338"/>
<text text-anchor="start" x="1047" y="-356" font-family="FreeSans" font-size="10.00">MWGui::WindowManager</text>
<text text-anchor="middle" x="1105" y="-345" font-family="FreeSans" font-size="10.00">::goToJail</text>
</a>
</g>
</g>
<!-- Node9&#45;&gt;Node12 -->
<g id="edge11" class="edge"><title>Node9&#45;&gt;Node12</title>
<path fill="none" stroke="midnightblue" d="M985.32,-389.004C1007.72,-382.209 1032.95,-374.554 1054.37,-368.055"/>
<polygon fill="midnightblue" stroke="midnightblue" points="984.136,-385.706 975.583,-391.958 986.168,-392.404 984.136,-385.706"/>
</g>
<!-- Node13&#45;&gt;Node10 -->
<g id="edge13" class="edge"><title>Node13&#45;&gt;Node10</title>
<path fill="none" stroke="midnightblue" d="M996.737,-477.515C1012.12,-473.713 1028.26,-469.723 1043.21,-466.026"/>
<polygon fill="midnightblue" stroke="midnightblue" points="995.628,-474.183 986.76,-479.981 997.307,-480.979 995.628,-474.183"/>
</g>
<!-- Node13&#45;&gt;Node14 -->
<g id="edge14" class="edge"><title>Node13&#45;&gt;Node14</title>
<path fill="none" stroke="midnightblue" d="M985.32,-512.996C1007.72,-519.791 1032.95,-527.446 1054.37,-533.945"/>
<polygon fill="midnightblue" stroke="midnightblue" points="986.168,-509.596 975.583,-510.042 984.136,-516.294 986.168,-509.596"/>
</g>
<!-- Node13&#45;&gt;Node15 -->
<g id="edge15" class="edge"><title>Node13&#45;&gt;Node15</title>
<path fill="none" stroke="midnightblue" d="M1001.38,-497.117C1013.85,-497.468 1026.68,-497.828 1038.86,-498.17"/>
<polygon fill="midnightblue" stroke="midnightblue" points="1001.11,-493.609 991.018,-496.826 1000.92,-500.606 1001.11,-493.609"/>
</g>
<!-- Node17 -->
<g id="node17" class="node"><title>Node17</title>
<g id="a_node17"><a xlink:href="classMWGui_1_1WindowManager.html#a924de31f311b3a886d4b9fb8ba9806c6" target="_top" xlink:title="MWGui::WindowManager\l::setNewGame">
<polygon fill="white" stroke="black" points="1039,-289 1039,-319 1171,-319 1171,-289 1039,-289"/>
<text text-anchor="start" x="1047" y="-307" font-family="FreeSans" font-size="10.00">MWGui::WindowManager</text>
<text text-anchor="middle" x="1105" y="-296" font-family="FreeSans" font-size="10.00">::setNewGame</text>
</a>
</g>
</g>
<!-- Node16&#45;&gt;Node17 -->
<g id="edge18" class="edge"><title>Node16&#45;&gt;Node17</title>
<path fill="none" stroke="midnightblue" d="M985.32,-340.004C1007.72,-333.209 1032.95,-325.554 1054.37,-319.055"/>
<polygon fill="midnightblue" stroke="midnightblue" points="984.136,-336.706 975.583,-342.958 986.168,-343.404 984.136,-336.706"/>
</g>
<!-- Node18&#45;&gt;Node17 -->
<g id="edge20" class="edge"><title>Node18&#45;&gt;Node17</title>
<path fill="none" stroke="midnightblue" d="M1001.38,-306.883C1013.85,-306.532 1026.68,-306.172 1038.86,-305.83"/>
<polygon fill="midnightblue" stroke="midnightblue" points="1000.92,-303.394 991.018,-307.174 1001.11,-310.391 1000.92,-303.394"/>
</g>
<!-- Node21 -->
<g id="node21" class="node"><title>Node21</title>
<g id="a_node21"><a xlink:href="classMWGui_1_1WindowManager.html#a0473842e2a7a08cf0b0e0e9d7e70be8e" target="_top" xlink:title="MWGui::WindowManager\l::updatePlayer">
<polygon fill="white" stroke="black" points="1039,-196 1039,-226 1171,-226 1171,-196 1039,-196"/>
<text text-anchor="start" x="1047" y="-214" font-family="FreeSans" font-size="10.00">MWGui::WindowManager</text>
<text text-anchor="middle" x="1105" y="-203" font-family="FreeSans" font-size="10.00">::updatePlayer</text>
</a>
</g>
</g>
<!-- Node20&#45;&gt;Node21 -->
<g id="edge23" class="edge"><title>Node20&#45;&gt;Node21</title>
<path fill="none" stroke="midnightblue" d="M1001.38,-211C1013.85,-211 1026.68,-211 1038.86,-211"/>
<polygon fill="midnightblue" stroke="midnightblue" points="1001.02,-207.5 991.018,-211 1001.02,-214.5 1001.02,-207.5"/>
</g>
<!-- Node26&#45;&gt;Node4 -->
<g id="edge30" class="edge"><title>Node26&#45;&gt;Node4</title>
<path fill="none" stroke="midnightblue" d="M483.646,-319.874C492.599,-321.081 501.666,-322.303 510.479,-323.492"/>
<polygon fill="midnightblue" stroke="midnightblue" points="483.984,-316.388 473.606,-318.52 483.049,-323.325 483.984,-316.388"/>
</g>
</g>
</svg>
