<?xml version="1.0" encoding="UTF-8" standalone="no"?>
<!DOCTYPE svg PUBLIC "-//W3C//DTD SVG 1.1//EN"
 "http://www.w3.org/Graphics/SVG/1.1/DTD/svg11.dtd">
<!-- Generated by graphviz version 2.36.0 (20140111.2315)
 -->
<!-- Title: MWGui::ItemWidget Pages: 1 -->
<svg width="223pt" height="272pt"
 viewBox="0.00 0.00 223.00 272.00" xmlns="http://www.w3.org/2000/svg" xmlns:xlink="http://www.w3.org/1999/xlink">
<g id="graph0" class="graph" transform="scale(1 1) rotate(0) translate(4 268)">
<title>MWGui::ItemWidget</title>
<polygon fill="white" stroke="none" points="-4,4 -4,-268 219,-268 219,4 -4,4"/>
<!-- Node1 -->
<g id="node1" class="node"><title>Node1</title>
<polygon fill="#bfbfbf" stroke="black" points="40,-1 40,-135 156,-135 156,-1 40,-1"/>
<text text-anchor="middle" x="98" y="-123" font-family="FreeSans" font-size="10.00">MWGui::ItemWidget</text>
<polyline fill="none" stroke="black" points="40,-116 156,-116 "/>
<text text-anchor="middle" x="98" y="-104" font-family="FreeSans" font-size="10.00"> </text>
<polyline fill="none" stroke="black" points="40,-97 156,-97 "/>
<text text-anchor="start" x="48" y="-85" font-family="FreeSans" font-size="10.00">+ ItemWidget()</text>
<text text-anchor="start" x="48" y="-74" font-family="FreeSans" font-size="10.00">+ setCount()</text>
<text text-anchor="start" x="48" y="-63" font-family="FreeSans" font-size="10.00">+ setItem()</text>
<text text-anchor="start" x="48" y="-52" font-family="FreeSans" font-size="10.00">+ setIcon()</text>
<text text-anchor="start" x="48" y="-41" font-family="FreeSans" font-size="10.00">+ setIcon()</text>
<text text-anchor="start" x="48" y="-30" font-family="FreeSans" font-size="10.00">+ setFrame()</text>
<text text-anchor="start" x="48" y="-19" font-family="FreeSans" font-size="10.00">+ registerComponents()</text>
<text text-anchor="start" x="48" y="-8" font-family="FreeSans" font-size="10.00">&#45; initialiseOverride()</text>
</g>
<!-- Node2 -->
<g id="node2" class="node"><title>Node2</title>
<polygon fill="white" stroke="#bfbfbf" points="-0.5,-206.5 -0.5,-263.5 46.5,-263.5 46.5,-206.5 -0.5,-206.5"/>
<text text-anchor="middle" x="23" y="-251.5" font-family="FreeSans" font-size="10.00">Widget</text>
<polyline fill="none" stroke="#bfbfbf" points="-0.5,-244.5 46.5,-244.5 "/>
<text text-anchor="middle" x="23" y="-232.5" font-family="FreeSans" font-size="10.00"> </text>
<polyline fill="none" stroke="#bfbfbf" points="-0.5,-225.5 46.5,-225.5 "/>
<text text-anchor="middle" x="23" y="-213.5" font-family="FreeSans" font-size="10.00"> </text>
</g>
<!-- Node2&#45;&gt;Node1 -->
<g id="edge1" class="edge"><title>Node2&#45;&gt;Node1</title>
<path fill="none" stroke="midnightblue" d="M39.6997,-197.261C48.0028,-178.994 58.2958,-156.349 67.9116,-135.194"/>
<polygon fill="none" stroke="midnightblue" points="36.5051,-195.831 35.5533,-206.383 42.8777,-198.727 36.5051,-195.831"/>
</g>
<!-- Node3 -->
<g id="node3" class="node"><title>Node3</title>
<polygon fill="white" stroke="#bfbfbf" points="65,-206.5 65,-263.5 131,-263.5 131,-206.5 65,-206.5"/>
<text text-anchor="middle" x="98" y="-251.5" font-family="FreeSans" font-size="10.00">ImageBox *</text>
<polyline fill="none" stroke="#bfbfbf" points="65,-244.5 131,-244.5 "/>
<text text-anchor="middle" x="98" y="-232.5" font-family="FreeSans" font-size="10.00"> </text>
<polyline fill="none" stroke="#bfbfbf" points="65,-225.5 131,-225.5 "/>
<text text-anchor="middle" x="98" y="-213.5" font-family="FreeSans" font-size="10.00"> </text>
</g>
<!-- Node3&#45;&gt;Node1 -->
<g id="edge2" class="edge"><title>Node3&#45;&gt;Node1</title>
<path fill="none" stroke="#404040" d="M98,-206.383C98,-190.048 98,-168.461 98,-147.249"/>
<polygon fill="none" stroke="#404040" points="98.0001,-147.194 94,-141.195 98,-135.194 102,-141.194 98.0001,-147.194"/>
<text text-anchor="middle" x="131" y="-179.5" font-family="FreeSans" font-size="10.00"> &#45;mFrame</text>
<text text-anchor="middle" x="131" y="-168.5" font-family="FreeSans" font-size="10.00">&#45;mItemShadow</text>
<text text-anchor="middle" x="131" y="-157.5" font-family="FreeSans" font-size="10.00">&#45;mItem</text>
</g>
<!-- Node4 -->
<g id="node4" class="node"><title>Node4</title>
<polygon fill="white" stroke="#bfbfbf" points="158,-206.5 158,-263.5 216,-263.5 216,-206.5 158,-206.5"/>
<text text-anchor="middle" x="187" y="-251.5" font-family="FreeSans" font-size="10.00">TextBox *</text>
<polyline fill="none" stroke="#bfbfbf" points="158,-244.5 216,-244.5 "/>
<text text-anchor="middle" x="187" y="-232.5" font-family="FreeSans" font-size="10.00"> </text>
<polyline fill="none" stroke="#bfbfbf" points="158,-225.5 216,-225.5 "/>
<text text-anchor="middle" x="187" y="-213.5" font-family="FreeSans" font-size="10.00"> </text>
</g>
<!-- Node4&#45;&gt;Node1 -->
<g id="edge3" class="edge"><title>Node4&#45;&gt;Node1</title>
<path fill="none" stroke="#404040" d="M182.237,-206.342C178.816,-190.456 173.316,-170.456 165,-154 163.541,-151.112 161.974,-148.229 160.323,-145.361"/>
<polygon fill="none" stroke="#404040" points="160.284,-145.299 153.735,-142.28 154.003,-135.074 160.552,-138.093 160.284,-145.299"/>
<text text-anchor="middle" x="194.5" y="-168.5" font-family="FreeSans" font-size="10.00"> &#45;mText</text>
</g>
</g>
</svg>
