<?xml version="1.0" encoding="UTF-8" standalone="no"?>
<!DOCTYPE svg PUBLIC "-//W3C//DTD SVG 1.1//EN"
 "http://www.w3.org/Graphics/SVG/1.1/DTD/svg11.dtd">
<!-- Generated by graphviz version 2.36.0 (20140111.2315)
 -->
<!-- Title: CSVRender::PagedWorldspaceWidget::pathgridDataChanged Pages: 1 -->
<svg width="322pt" height="87pt"
 viewBox="0.00 0.00 322.00 87.00" xmlns="http://www.w3.org/2000/svg" xmlns:xlink="http://www.w3.org/1999/xlink">
<g id="graph0" class="graph" transform="scale(1 1) rotate(0) translate(4 83)">
<title>CSVRender::PagedWorldspaceWidget::pathgridDataChanged</title>
<polygon fill="white" stroke="none" points="-4,4 -4,-83 318,-83 318,4 -4,4"/>
<!-- Node1 -->
<g id="node1" class="node"><title>Node1</title>
<polygon fill="#bfbfbf" stroke="black" points="0.5,-24 0.5,-54 161.5,-54 161.5,-24 0.5,-24"/>
<text text-anchor="start" x="8.5" y="-42" font-family="FreeSans" font-size="10.00">CSVRender::PagedWorldspace</text>
<text text-anchor="middle" x="81" y="-31" font-family="FreeSans" font-size="10.00">Widget::pathgridDataChanged</text>
</g>
<!-- Node2 -->
<g id="node2" class="node"><title>Node2</title>
<g id="a_node2"><a xlink:href="classCSMWorld_1_1Collection.html#a51c1472f4d362fa30980bad4c5561782" target="_top" xlink:title="CSMWorld::Collection\l::getData">
<polygon fill="white" stroke="black" points="198,-49 198,-79 314,-79 314,-49 198,-49"/>
<text text-anchor="start" x="206" y="-67" font-family="FreeSans" font-size="10.00">CSMWorld::Collection</text>
<text text-anchor="middle" x="256" y="-56" font-family="FreeSans" font-size="10.00">::getData</text>
</a>
</g>
</g>
<!-- Node1&#45;&gt;Node2 -->
<g id="edge1" class="edge"><title>Node1&#45;&gt;Node2</title>
<path fill="none" stroke="midnightblue" d="M161.664,-50.5121C170.46,-51.7832 179.351,-53.068 187.97,-54.3135"/>
<polygon fill="midnightblue" stroke="midnightblue" points="187.543,-57.7881 197.94,-55.7544 188.544,-50.8601 187.543,-57.7881"/>
</g>
<!-- Node3 -->
<g id="node3" class="node"><title>Node3</title>
<g id="a_node3"><a xlink:href="classCSMWorld_1_1Collection.html#ad67e225cc3571a0287b73c94ee6e9878" target="_top" xlink:title="CSMWorld::Collection\l::getRecord">
<polygon fill="white" stroke="black" points="198,-0 198,-30 314,-30 314,-0 198,-0"/>
<text text-anchor="start" x="206" y="-18" font-family="FreeSans" font-size="10.00">CSMWorld::Collection</text>
<text text-anchor="middle" x="256" y="-7" font-family="FreeSans" font-size="10.00">::getRecord</text>
</a>
</g>
</g>
<!-- Node1&#45;&gt;Node3 -->
<g id="edge2" class="edge"><title>Node1&#45;&gt;Node3</title>
<path fill="none" stroke="midnightblue" d="M161.664,-27.9483C170.46,-26.7281 179.351,-25.4947 187.97,-24.299"/>
<polygon fill="midnightblue" stroke="midnightblue" points="188.516,-27.7568 197.94,-22.9158 187.554,-20.8232 188.516,-27.7568"/>
</g>
</g>
</svg>
