<?xml version="1.0" encoding="UTF-8" standalone="no"?>
<!DOCTYPE svg PUBLIC "-//W3C//DTD SVG 1.1//EN"
 "http://www.w3.org/Graphics/SVG/1.1/DTD/svg11.dtd">
<!-- Generated by graphviz version 2.36.0 (20140111.2315)
 -->
<!-- Title: MWMechanics::Actors::getActorsSidingWith Pages: 1 -->
<svg width="484pt" height="263pt"
 viewBox="0.00 0.00 484.00 263.00" xmlns="http://www.w3.org/2000/svg" xmlns:xlink="http://www.w3.org/1999/xlink">
<g id="graph0" class="graph" transform="scale(1 1) rotate(0) translate(4 259)">
<title>MWMechanics::Actors::getActorsSidingWith</title>
<polygon fill="white" stroke="none" points="-4,4 -4,-259 480,-259 480,4 -4,4"/>
<!-- Node1 -->
<g id="node1" class="node"><title>Node1</title>
<polygon fill="#bfbfbf" stroke="black" points="0,-112 0,-142 120,-142 120,-112 0,-112"/>
<text text-anchor="start" x="8" y="-130" font-family="FreeSans" font-size="10.00">MWMechanics::Actors</text>
<text text-anchor="middle" x="60" y="-119" font-family="FreeSans" font-size="10.00">::getActorsSidingWith</text>
</g>
<!-- Node2 -->
<g id="node2" class="node"><title>Node2</title>
<g id="a_node2"><a xlink:href="bsatool_8cpp.html#a6e7f1179c5854ac3883506e79162011b" target="_top" xlink:title="list">
<polygon fill="white" stroke="black" points="226,-235.5 226,-254.5 256,-254.5 256,-235.5 226,-235.5"/>
<text text-anchor="middle" x="241" y="-242.5" font-family="FreeSans" font-size="10.00">list</text>
</a>
</g>
</g>
<!-- Node1&#45;&gt;Node2 -->
<g id="edge1" class="edge"><title>Node1&#45;&gt;Node2</title>
<path fill="none" stroke="midnightblue" d="M71.3454,-142.206C87.0226,-164.025 118.929,-203.905 156,-225 174.451,-235.499 198.192,-240.503 215.725,-242.878"/>
<polygon fill="midnightblue" stroke="midnightblue" points="215.399,-246.363 225.737,-244.043 216.208,-239.41 215.399,-246.363"/>
</g>
<!-- Node4 -->
<g id="node4" class="node"><title>Node4</title>
<g id="a_node4"><a xlink:href="classMWWorld_1_1Class.html#a5095a30e5baa5742b3d393610fd73d60" target="_top" xlink:title="MWWorld::Class::getCreature\lStats">
<polygon fill="white" stroke="black" points="164,-186 164,-216 318,-216 318,-186 164,-186"/>
<text text-anchor="start" x="172" y="-204" font-family="FreeSans" font-size="10.00">MWWorld::Class::getCreature</text>
<text text-anchor="middle" x="241" y="-193" font-family="FreeSans" font-size="10.00">Stats</text>
</a>
</g>
</g>
<!-- Node1&#45;&gt;Node4 -->
<g id="edge3" class="edge"><title>Node1&#45;&gt;Node4</title>
<path fill="none" stroke="midnightblue" d="M86.9945,-142.088C105.747,-152.552 131.899,-166.297 156,-176 161.836,-178.349 167.977,-180.592 174.174,-182.701"/>
<polygon fill="midnightblue" stroke="midnightblue" points="173.327,-186.107 183.92,-185.901 175.511,-179.456 173.327,-186.107"/>
</g>
<!-- Node5 -->
<g id="node5" class="node"><title>Node5</title>
<g id="a_node5"><a xlink:href="classMWMechanics_1_1CreatureStats.html#af8087276da474ea537036c2eb9cd2096" target="_top" xlink:title="MWMechanics::CreatureStats\l::isDead">
<polygon fill="white" stroke="black" points="162.5,-137 162.5,-167 319.5,-167 319.5,-137 162.5,-137"/>
<text text-anchor="start" x="170.5" y="-155" font-family="FreeSans" font-size="10.00">MWMechanics::CreatureStats</text>
<text text-anchor="middle" x="241" y="-144" font-family="FreeSans" font-size="10.00">::isDead</text>
</a>
</g>
</g>
<!-- Node1&#45;&gt;Node5 -->
<g id="edge4" class="edge"><title>Node1&#45;&gt;Node5</title>
<path fill="none" stroke="midnightblue" d="M120.107,-135.255C130.477,-136.703 141.464,-138.238 152.413,-139.767"/>
<polygon fill="midnightblue" stroke="midnightblue" points="152.051,-143.25 162.439,-141.167 153.019,-136.318 152.051,-143.25"/>
</g>
<!-- Node6 -->
<g id="node6" class="node"><title>Node6</title>
<g id="a_node6"><a xlink:href="classMWMechanics_1_1CreatureStats.html#a41095b0401003a54a35299813ed2909f" target="_top" xlink:title="MWMechanics::CreatureStats\l::getAiSequence">
<polygon fill="white" stroke="black" points="162.5,-88 162.5,-118 319.5,-118 319.5,-88 162.5,-88"/>
<text text-anchor="start" x="170.5" y="-106" font-family="FreeSans" font-size="10.00">MWMechanics::CreatureStats</text>
<text text-anchor="middle" x="241" y="-95" font-family="FreeSans" font-size="10.00">::getAiSequence</text>
</a>
</g>
</g>
<!-- Node1&#45;&gt;Node6 -->
<g id="edge5" class="edge"><title>Node1&#45;&gt;Node6</title>
<path fill="none" stroke="midnightblue" d="M120.107,-119.075C130.477,-117.685 141.464,-116.212 152.413,-114.744"/>
<polygon fill="midnightblue" stroke="midnightblue" points="152.992,-118.197 162.439,-113.399 152.062,-111.259 152.992,-118.197"/>
</g>
<!-- Node7 -->
<g id="node7" class="node"><title>Node7</title>
<g id="a_node7"><a xlink:href="classMWMechanics_1_1AiSequence.html#a259c45fa5e5ddbb3105becf9ed8da16e" target="_top" xlink:title="Iterator may be invalidated by any function calls other than begin() or end(). ">
<polygon fill="white" stroke="black" points="168,-39 168,-69 314,-69 314,-39 168,-39"/>
<text text-anchor="start" x="176" y="-57" font-family="FreeSans" font-size="10.00">MWMechanics::AiSequence</text>
<text text-anchor="middle" x="241" y="-46" font-family="FreeSans" font-size="10.00">::begin</text>
</a>
</g>
</g>
<!-- Node1&#45;&gt;Node7 -->
<g id="edge6" class="edge"><title>Node1&#45;&gt;Node7</title>
<path fill="none" stroke="midnightblue" d="M87.8418,-111.814C106.55,-101.637 132.305,-88.4246 156,-79 161.938,-76.6382 168.189,-74.3784 174.489,-72.2508"/>
<polygon fill="midnightblue" stroke="midnightblue" points="175.972,-75.4487 184.394,-69.0205 173.802,-68.7937 175.972,-75.4487"/>
</g>
<!-- Node8 -->
<g id="node8" class="node"><title>Node8</title>
<g id="a_node8"><a xlink:href="classMWMechanics_1_1AiSequence.html#a3e287dcf831fd497ec8e41b5a6f904b3" target="_top" xlink:title="MWMechanics::AiSequence::end">
<polygon fill="white" stroke="black" points="156,-0.5 156,-19.5 326,-19.5 326,-0.5 156,-0.5"/>
<text text-anchor="middle" x="241" y="-7.5" font-family="FreeSans" font-size="10.00">MWMechanics::AiSequence::end</text>
</a>
</g>
</g>
<!-- Node1&#45;&gt;Node8 -->
<g id="edge7" class="edge"><title>Node1&#45;&gt;Node8</title>
<path fill="none" stroke="midnightblue" d="M71.3826,-111.952C87.1062,-90.3584 119.07,-50.8894 156,-30 160.812,-27.2784 165.98,-24.9258 171.302,-22.8925"/>
<polygon fill="midnightblue" stroke="midnightblue" points="172.68,-26.1201 181.005,-19.5666 170.411,-19.4983 172.68,-26.1201"/>
</g>
<!-- Node3 -->
<g id="node3" class="node"><title>Node3</title>
<g id="a_node3"><a xlink:href="classBsa_1_1BSAFile.html#ad7972a16602af590be0ed8401b9413c2" target="_top" xlink:title="Bsa::BSAFile::getList">
<polygon fill="white" stroke="black" points="362,-235.5 362,-254.5 476,-254.5 476,-235.5 362,-235.5"/>
<text text-anchor="middle" x="419" y="-242.5" font-family="FreeSans" font-size="10.00">Bsa::BSAFile::getList</text>
</a>
</g>
</g>
<!-- Node2&#45;&gt;Node3 -->
<g id="edge2" class="edge"><title>Node2&#45;&gt;Node3</title>
<path fill="none" stroke="midnightblue" d="M256.105,-245C276.745,-245 316.523,-245 351.482,-245"/>
<polygon fill="midnightblue" stroke="midnightblue" points="351.672,-248.5 361.671,-245 351.671,-241.5 351.672,-248.5"/>
</g>
</g>
</svg>
