<?xml version="1.0" encoding="UTF-8" standalone="no"?>
<!DOCTYPE svg PUBLIC "-//W3C//DTD SVG 1.1//EN"
 "http://www.w3.org/Graphics/SVG/1.1/DTD/svg11.dtd">
<!-- Generated by graphviz version 2.36.0 (20140111.2315)
 -->
<!-- Title: Wizard::LanguageSelectionPage Pages: 1 -->
<svg width="1237pt" height="1386pt"
 viewBox="0.00 0.00 1237.00 1386.00" xmlns="http://www.w3.org/2000/svg" xmlns:xlink="http://www.w3.org/1999/xlink">
<g id="graph0" class="graph" transform="scale(1 1) rotate(0) translate(4 1382)">
<title>Wizard::LanguageSelectionPage</title>
<polygon fill="white" stroke="none" points="-4,4 -4,-1382 1233,-1382 1233,4 -4,4"/>
<!-- Node1 -->
<g id="node1" class="node"><title>Node1</title>
<polygon fill="#bfbfbf" stroke="black" points="383.5,-0.5 383.5,-79.5 552.5,-79.5 552.5,-0.5 383.5,-0.5"/>
<text text-anchor="middle" x="468" y="-67.5" font-family="FreeSans" font-size="10.00">Wizard::LanguageSelectionPage</text>
<polyline fill="none" stroke="black" points="383.5,-60.5 552.5,-60.5 "/>
<text text-anchor="middle" x="468" y="-48.5" font-family="FreeSans" font-size="10.00"> </text>
<polyline fill="none" stroke="black" points="383.5,-41.5 552.5,-41.5 "/>
<text text-anchor="start" x="391.5" y="-29.5" font-family="FreeSans" font-size="10.00">+ LanguageSelectionPage()</text>
<text text-anchor="start" x="391.5" y="-18.5" font-family="FreeSans" font-size="10.00">+ nextId()</text>
<text text-anchor="start" x="391.5" y="-7.5" font-family="FreeSans" font-size="10.00"># initializePage()</text>
</g>
<!-- Node2 -->
<g id="node2" class="node"><title>Node2</title>
<g id="a_node2"><a xlink:href="classQWizardPage.html" target="_top" xlink:title="{QWizardPage\n||}">
<polygon fill="white" stroke="black" points="297.5,-216.5 297.5,-273.5 376.5,-273.5 376.5,-216.5 297.5,-216.5"/>
<text text-anchor="middle" x="337" y="-261.5" font-family="FreeSans" font-size="10.00">QWizardPage</text>
<polyline fill="none" stroke="black" points="297.5,-254.5 376.5,-254.5 "/>
<text text-anchor="middle" x="337" y="-242.5" font-family="FreeSans" font-size="10.00"> </text>
<polyline fill="none" stroke="black" points="297.5,-235.5 376.5,-235.5 "/>
<text text-anchor="middle" x="337" y="-223.5" font-family="FreeSans" font-size="10.00"> </text>
</a>
</g>
</g>
<!-- Node2&#45;&gt;Node1 -->
<g id="edge1" class="edge"><title>Node2&#45;&gt;Node1</title>
<path fill="none" stroke="midnightblue" d="M348.48,-206.685C356.684,-183.053 369.08,-152.452 385,-128 396.162,-110.855 410.941,-94.0878 424.933,-79.9209"/>
<polygon fill="none" stroke="midnightblue" points="345.101,-205.754 345.223,-216.348 351.734,-207.99 345.101,-205.754"/>
</g>
<!-- Node3 -->
<g id="node3" class="node"><title>Node3</title>
<polygon fill="white" stroke="#bfbfbf" points="394.5,-216.5 394.5,-273.5 541.5,-273.5 541.5,-216.5 394.5,-216.5"/>
<text text-anchor="middle" x="468" y="-261.5" font-family="FreeSans" font-size="10.00">Ui::LanguageSelectionPage</text>
<polyline fill="none" stroke="#bfbfbf" points="394.5,-254.5 541.5,-254.5 "/>
<text text-anchor="middle" x="468" y="-242.5" font-family="FreeSans" font-size="10.00"> </text>
<polyline fill="none" stroke="#bfbfbf" points="394.5,-235.5 541.5,-235.5 "/>
<text text-anchor="middle" x="468" y="-223.5" font-family="FreeSans" font-size="10.00"> </text>
</g>
<!-- Node3&#45;&gt;Node1 -->
<g id="edge2" class="edge"><title>Node3&#45;&gt;Node1</title>
<path fill="none" stroke="#8b1a1a" d="M468,-206.064C468,-169.95 468,-115.867 468,-79.5503"/>
<polygon fill="none" stroke="#8b1a1a" points="464.5,-206.199 468,-216.199 471.5,-206.199 464.5,-206.199"/>
</g>
<!-- Node4 -->
<g id="node4" class="node"><title>Node4</title>
<g id="a_node4"><a xlink:href="classWizard_1_1MainWizard.html" target="_top" xlink:title="{Wizard::MainWizard\n||+ MainWizard()\l+ ~MainWizard()\l+ findFiles()\l+ addInstallation()\l+ runSettingsImporter()\l+ addLogText()\l&#45; toQString()\l&#45; setupLog()\l&#45; setupGameSettings()\l&#45; setupLauncherSettings()\l&#45; setupInstallations()\l&#45; setupPages()\l&#45; writeSettings()\l&#45; importerStarted()\l&#45; importerFinished()\l&#45; accept()\l&#45; reject()\l}">
<polygon fill="white" stroke="black" points="560,-128.5 560,-361.5 702,-361.5 702,-128.5 560,-128.5"/>
<text text-anchor="middle" x="631" y="-349.5" font-family="FreeSans" font-size="10.00">Wizard::MainWizard</text>
<polyline fill="none" stroke="black" points="560,-342.5 702,-342.5 "/>
<text text-anchor="middle" x="631" y="-330.5" font-family="FreeSans" font-size="10.00"> </text>
<polyline fill="none" stroke="black" points="560,-323.5 702,-323.5 "/>
<text text-anchor="start" x="568" y="-311.5" font-family="FreeSans" font-size="10.00">+ MainWizard()</text>
<text text-anchor="start" x="568" y="-300.5" font-family="FreeSans" font-size="10.00">+ ~MainWizard()</text>
<text text-anchor="start" x="568" y="-289.5" font-family="FreeSans" font-size="10.00">+ findFiles()</text>
<text text-anchor="start" x="568" y="-278.5" font-family="FreeSans" font-size="10.00">+ addInstallation()</text>
<text text-anchor="start" x="568" y="-267.5" font-family="FreeSans" font-size="10.00">+ runSettingsImporter()</text>
<text text-anchor="start" x="568" y="-256.5" font-family="FreeSans" font-size="10.00">+ addLogText()</text>
<text text-anchor="start" x="568" y="-245.5" font-family="FreeSans" font-size="10.00">&#45; toQString()</text>
<text text-anchor="start" x="568" y="-234.5" font-family="FreeSans" font-size="10.00">&#45; setupLog()</text>
<text text-anchor="start" x="568" y="-223.5" font-family="FreeSans" font-size="10.00">&#45; setupGameSettings()</text>
<text text-anchor="start" x="568" y="-212.5" font-family="FreeSans" font-size="10.00">&#45; setupLauncherSettings()</text>
<text text-anchor="start" x="568" y="-201.5" font-family="FreeSans" font-size="10.00">&#45; setupInstallations()</text>
<text text-anchor="start" x="568" y="-190.5" font-family="FreeSans" font-size="10.00">&#45; setupPages()</text>
<text text-anchor="start" x="568" y="-179.5" font-family="FreeSans" font-size="10.00">&#45; writeSettings()</text>
<text text-anchor="start" x="568" y="-168.5" font-family="FreeSans" font-size="10.00">&#45; importerStarted()</text>
<text text-anchor="start" x="568" y="-157.5" font-family="FreeSans" font-size="10.00">&#45; importerFinished()</text>
<text text-anchor="start" x="568" y="-146.5" font-family="FreeSans" font-size="10.00">&#45; accept()</text>
<text text-anchor="start" x="568" y="-135.5" font-family="FreeSans" font-size="10.00">&#45; reject()</text>
</a>
</g>
</g>
<!-- Node4&#45;&gt;Node1 -->
<g id="edge3" class="edge"><title>Node4&#45;&gt;Node1</title>
<path fill="none" stroke="#404040" d="M559.772,-140.331C556.52,-136.128 553.254,-132.002 550,-128 539.252,-114.782 526.967,-101.097 515.235,-88.6026"/>
<polygon fill="none" stroke="#404040" points="515.082,-88.4417 508.05,-86.8445 506.82,-79.739 513.852,-81.3363 515.082,-88.4417"/>
<text text-anchor="middle" x="558.5" y="-101.5" font-family="FreeSans" font-size="10.00"> &#45;mWizard</text>
</g>
<!-- Node5 -->
<g id="node5" class="node"><title>Node5</title>
<g id="a_node5"><a xlink:href="classQWizard.html" target="_top" xlink:title="{QWizard\n||}">
<polygon fill="white" stroke="black" points="73,-487.5 73,-544.5 129,-544.5 129,-487.5 73,-487.5"/>
<text text-anchor="middle" x="101" y="-532.5" font-family="FreeSans" font-size="10.00">QWizard</text>
<polyline fill="none" stroke="black" points="73,-525.5 129,-525.5 "/>
<text text-anchor="middle" x="101" y="-513.5" font-family="FreeSans" font-size="10.00"> </text>
<polyline fill="none" stroke="black" points="73,-506.5 129,-506.5 "/>
<text text-anchor="middle" x="101" y="-494.5" font-family="FreeSans" font-size="10.00"> </text>
</a>
</g>
</g>
<!-- Node5&#45;&gt;Node4 -->
<g id="edge4" class="edge"><title>Node5&#45;&gt;Node4</title>
<path fill="none" stroke="midnightblue" d="M104.995,-477.07C109.39,-454.385 118.621,-426.795 138,-410 189.708,-365.189 221.177,-389.039 289,-380 346.628,-372.32 499.404,-390.637 550,-362 553.42,-360.064 556.729,-357.917 559.928,-355.593"/>
<polygon fill="none" stroke="midnightblue" points="101.517,-476.646 103.296,-487.091 108.418,-477.816 101.517,-476.646"/>
</g>
<!-- Node6 -->
<g id="node6" class="node"><title>Node6</title>
<g id="a_node6"><a xlink:href="structFiles_1_1ConfigurationManager.html" target="_top" xlink:title="{Files::ConfigurationManager\n||+ ConfigurationManager()\l+ ~ConfigurationManager()\l+ readConfiguration()\l+ processPaths()\l+ getGlobalPath()\l+ getUserConfigPath()\l+ getLocalPath()\l+ getGlobalDataPath()\l+ getUserDataPath()\l+ getLocalDataPath()\l+ getInstallPath()\l+ getCachePath()\l+ getLogPath()\l&#45; loadConfig()\l&#45; setupTokensMapping()\l}">
<polygon fill="white" stroke="black" points="865.5,-702.5 865.5,-913.5 1014.5,-913.5 1014.5,-702.5 865.5,-702.5"/>
<text text-anchor="middle" x="940" y="-901.5" font-family="FreeSans" font-size="10.00">Files::ConfigurationManager</text>
<polyline fill="none" stroke="black" points="865.5,-894.5 1014.5,-894.5 "/>
<text text-anchor="middle" x="940" y="-882.5" font-family="FreeSans" font-size="10.00"> </text>
<polyline fill="none" stroke="black" points="865.5,-875.5 1014.5,-875.5 "/>
<text text-anchor="start" x="873.5" y="-863.5" font-family="FreeSans" font-size="10.00">+ ConfigurationManager()</text>
<text text-anchor="start" x="873.5" y="-852.5" font-family="FreeSans" font-size="10.00">+ ~ConfigurationManager()</text>
<text text-anchor="start" x="873.5" y="-841.5" font-family="FreeSans" font-size="10.00">+ readConfiguration()</text>
<text text-anchor="start" x="873.5" y="-830.5" font-family="FreeSans" font-size="10.00">+ processPaths()</text>
<text text-anchor="start" x="873.5" y="-819.5" font-family="FreeSans" font-size="10.00">+ getGlobalPath()</text>
<text text-anchor="start" x="873.5" y="-808.5" font-family="FreeSans" font-size="10.00">+ getUserConfigPath()</text>
<text text-anchor="start" x="873.5" y="-797.5" font-family="FreeSans" font-size="10.00">+ getLocalPath()</text>
<text text-anchor="start" x="873.5" y="-786.5" font-family="FreeSans" font-size="10.00">+ getGlobalDataPath()</text>
<text text-anchor="start" x="873.5" y="-775.5" font-family="FreeSans" font-size="10.00">+ getUserDataPath()</text>
<text text-anchor="start" x="873.5" y="-764.5" font-family="FreeSans" font-size="10.00">+ getLocalDataPath()</text>
<text text-anchor="start" x="873.5" y="-753.5" font-family="FreeSans" font-size="10.00">+ getInstallPath()</text>
<text text-anchor="start" x="873.5" y="-742.5" font-family="FreeSans" font-size="10.00">+ getCachePath()</text>
<text text-anchor="start" x="873.5" y="-731.5" font-family="FreeSans" font-size="10.00">+ getLogPath()</text>
<text text-anchor="start" x="873.5" y="-720.5" font-family="FreeSans" font-size="10.00">&#45; loadConfig()</text>
<text text-anchor="start" x="873.5" y="-709.5" font-family="FreeSans" font-size="10.00">&#45; setupTokensMapping()</text>
</a>
</g>
</g>
<!-- Node6&#45;&gt;Node4 -->
<g id="edge5" class="edge"><title>Node6&#45;&gt;Node4</title>
<path fill="none" stroke="#404040" d="M921.056,-702.195C902.691,-618.643 869.325,-500.978 814,-410 788.158,-367.504 747.901,-329.702 711.717,-301.131"/>
<polygon fill="none" stroke="#404040" points="711.611,-301.049 704.418,-300.534 702.128,-293.696 709.32,-294.212 711.611,-301.049"/>
<text text-anchor="middle" x="927.5" y="-513.5" font-family="FreeSans" font-size="10.00"> +mCfgMgr</text>
</g>
<!-- Node20 -->
<g id="node20" class="node"><title>Node20</title>
<g id="a_node20"><a xlink:href="classConfig_1_1GameSettings.html" target="_top" xlink:title="{Config::GameSettings\n||+ GameSettings()\l+ ~GameSettings()\l+ value()\l+ setValue()\l+ setMultiValue()\l+ remove()\l+ getDataDirs()\l+ removeDataDir()\l+ addDataDir()\l+ getDataLocal()\land 10 more...\l&#45; validatePaths()\l&#45; isOrderedLine()\l}">
<polygon fill="white" stroke="black" points="494,-421.5 494,-610.5 616,-610.5 616,-421.5 494,-421.5"/>
<text text-anchor="middle" x="555" y="-598.5" font-family="FreeSans" font-size="10.00">Config::GameSettings</text>
<polyline fill="none" stroke="black" points="494,-591.5 616,-591.5 "/>
<text text-anchor="middle" x="555" y="-579.5" font-family="FreeSans" font-size="10.00"> </text>
<polyline fill="none" stroke="black" points="494,-572.5 616,-572.5 "/>
<text text-anchor="start" x="502" y="-560.5" font-family="FreeSans" font-size="10.00">+ GameSettings()</text>
<text text-anchor="start" x="502" y="-549.5" font-family="FreeSans" font-size="10.00">+ ~GameSettings()</text>
<text text-anchor="start" x="502" y="-538.5" font-family="FreeSans" font-size="10.00">+ value()</text>
<text text-anchor="start" x="502" y="-527.5" font-family="FreeSans" font-size="10.00">+ setValue()</text>
<text text-anchor="start" x="502" y="-516.5" font-family="FreeSans" font-size="10.00">+ setMultiValue()</text>
<text text-anchor="start" x="502" y="-505.5" font-family="FreeSans" font-size="10.00">+ remove()</text>
<text text-anchor="start" x="502" y="-494.5" font-family="FreeSans" font-size="10.00">+ getDataDirs()</text>
<text text-anchor="start" x="502" y="-483.5" font-family="FreeSans" font-size="10.00">+ removeDataDir()</text>
<text text-anchor="start" x="502" y="-472.5" font-family="FreeSans" font-size="10.00">+ addDataDir()</text>
<text text-anchor="start" x="502" y="-461.5" font-family="FreeSans" font-size="10.00">+ getDataLocal()</text>
<text text-anchor="start" x="502" y="-450.5" font-family="FreeSans" font-size="10.00">and 10 more...</text>
<text text-anchor="start" x="502" y="-439.5" font-family="FreeSans" font-size="10.00">&#45; validatePaths()</text>
<text text-anchor="start" x="502" y="-428.5" font-family="FreeSans" font-size="10.00">&#45; isOrderedLine()</text>
</a>
</g>
</g>
<!-- Node6&#45;&gt;Node20 -->
<g id="edge22" class="edge"><title>Node6&#45;&gt;Node20</title>
<path fill="none" stroke="#404040" d="M868.579,-702.253C845.956,-677.295 818.721,-653.89 788,-640 721.588,-609.973 687.273,-659.871 625,-622 623.198,-620.904 621.433,-619.743 619.704,-618.521"/>
<polygon fill="none" stroke="#404040" points="619.571,-618.415 612.387,-617.792 610.199,-610.921 617.383,-611.544 619.571,-618.415"/>
<text text-anchor="middle" x="874.5" y="-659.5" font-family="FreeSans" font-size="10.00"> &#45;mCfgMgr</text>
</g>
<!-- Node7 -->
<g id="node7" class="node"><title>Node7</title>
<polygon fill="white" stroke="#bfbfbf" points="1111,-1212.5 1111,-1269.5 1149,-1269.5 1149,-1212.5 1111,-1212.5"/>
<text text-anchor="middle" x="1130" y="-1257.5" font-family="FreeSans" font-size="10.00">path</text>
<polyline fill="none" stroke="#bfbfbf" points="1111,-1250.5 1149,-1250.5 "/>
<text text-anchor="middle" x="1130" y="-1238.5" font-family="FreeSans" font-size="10.00"> </text>
<polyline fill="none" stroke="#bfbfbf" points="1111,-1231.5 1149,-1231.5 "/>
<text text-anchor="middle" x="1130" y="-1219.5" font-family="FreeSans" font-size="10.00"> </text>
</g>
<!-- Node7&#45;&gt;Node6 -->
<g id="edge6" class="edge"><title>Node7&#45;&gt;Node6</title>
<path fill="none" stroke="#404040" d="M1149.44,-1225.18C1158.44,-1217.07 1168.18,-1206.2 1173,-1194 1193.13,-1143 1151.88,-966.728 1149,-962 1119.73,-913.902 1069.09,-876.253 1024.99,-850.337"/>
<polygon fill="none" stroke="#404040" points="1024.93,-850.304 1017.74,-850.787 1014.53,-844.331 1021.72,-843.848 1024.93,-850.304"/>
<text text-anchor="middle" x="1201.5" y="-1027.5" font-family="FreeSans" font-size="10.00"> &#45;mLogPath</text>
</g>
<!-- Node8 -->
<g id="node8" class="node"><title>Node8</title>
<g id="a_node8"><a xlink:href="structFiles_1_1FixedPath.html" target="_top" xlink:title="{Files::FixedPath\&lt; P \&gt;\n||+ FixedPath()\l+ getUserConfigPath()\l+ getUserDataPath()\l+ getGlobalConfigPath()\l+ getLocalPath()\l+ getInstallPath()\l+ getGlobalDataPath()\l+ getCachePath()\l}">
<polygon fill="white" stroke="black" points="1008,-963 1008,-1097 1140,-1097 1140,-963 1008,-963"/>
<text text-anchor="middle" x="1074" y="-1085" font-family="FreeSans" font-size="10.00">Files::FixedPath&lt; P &gt;</text>
<polyline fill="none" stroke="black" points="1008,-1078 1140,-1078 "/>
<text text-anchor="middle" x="1074" y="-1066" font-family="FreeSans" font-size="10.00"> </text>
<polyline fill="none" stroke="black" points="1008,-1059 1140,-1059 "/>
<text text-anchor="start" x="1016" y="-1047" font-family="FreeSans" font-size="10.00">+ FixedPath()</text>
<text text-anchor="start" x="1016" y="-1036" font-family="FreeSans" font-size="10.00">+ getUserConfigPath()</text>
<text text-anchor="start" x="1016" y="-1025" font-family="FreeSans" font-size="10.00">+ getUserDataPath()</text>
<text text-anchor="start" x="1016" y="-1014" font-family="FreeSans" font-size="10.00">+ getGlobalConfigPath()</text>
<text text-anchor="start" x="1016" y="-1003" font-family="FreeSans" font-size="10.00">+ getLocalPath()</text>
<text text-anchor="start" x="1016" y="-992" font-family="FreeSans" font-size="10.00">+ getInstallPath()</text>
<text text-anchor="start" x="1016" y="-981" font-family="FreeSans" font-size="10.00">+ getGlobalDataPath()</text>
<text text-anchor="start" x="1016" y="-970" font-family="FreeSans" font-size="10.00">+ getCachePath()</text>
</a>
</g>
</g>
<!-- Node7&#45;&gt;Node8 -->
<g id="edge8" class="edge"><title>Node7&#45;&gt;Node8</title>
<path fill="none" stroke="#404040" d="M1110.93,-1229.94C1098.18,-1222.05 1082.43,-1209.77 1075,-1194 1062.81,-1168.13 1060.09,-1137.29 1061.26,-1109.43"/>
<polygon fill="none" stroke="#404040" points="1061.27,-1109.26 1057.65,-1103.02 1062.02,-1097.28 1065.64,-1103.52 1061.27,-1109.26"/>
<text text-anchor="middle" x="1124" y="-1185.5" font-family="FreeSans" font-size="10.00"> &#45;mGlobalConfigPath</text>
<text text-anchor="middle" x="1124" y="-1174.5" font-family="FreeSans" font-size="10.00">&#45;mInstallPath</text>
<text text-anchor="middle" x="1124" y="-1163.5" font-family="FreeSans" font-size="10.00">&#45;mLocalPath</text>
<text text-anchor="middle" x="1124" y="-1152.5" font-family="FreeSans" font-size="10.00">&#45;mUserDataPath</text>
<text text-anchor="middle" x="1124" y="-1141.5" font-family="FreeSans" font-size="10.00">&#45;mUserConfigPath</text>
<text text-anchor="middle" x="1124" y="-1130.5" font-family="FreeSans" font-size="10.00">&#45;mGlobalDataPath</text>
<text text-anchor="middle" x="1124" y="-1119.5" font-family="FreeSans" font-size="10.00">&#45;mCachePath</text>
</g>
<!-- Node8&#45;&gt;Node6 -->
<g id="edge7" class="edge"><title>Node8&#45;&gt;Node6</title>
<path fill="none" stroke="#404040" d="M1033.8,-962.993C1026.24,-950.587 1018.14,-937.288 1009.98,-923.892"/>
<polygon fill="none" stroke="#404040" points="1009.98,-923.89 1003.44,-920.847 1003.74,-913.642 1010.27,-916.685 1009.98,-923.89"/>
<text text-anchor="middle" x="1050" y="-935.5" font-family="FreeSans" font-size="10.00"> &#45;mFixedPath</text>
</g>
<!-- Node9 -->
<g id="node9" class="node"><title>Node9</title>
<polygon fill="white" stroke="#bfbfbf" points="998.5,-1212.5 998.5,-1269.5 1027.5,-1269.5 1027.5,-1212.5 998.5,-1212.5"/>
<text text-anchor="middle" x="1013" y="-1257.5" font-family="FreeSans" font-size="10.00">P</text>
<polyline fill="none" stroke="#bfbfbf" points="998.5,-1250.5 1027.5,-1250.5 "/>
<text text-anchor="middle" x="1013" y="-1238.5" font-family="FreeSans" font-size="10.00"> </text>
<polyline fill="none" stroke="#bfbfbf" points="998.5,-1231.5 1027.5,-1231.5 "/>
<text text-anchor="middle" x="1013" y="-1219.5" font-family="FreeSans" font-size="10.00"> </text>
</g>
<!-- Node9&#45;&gt;Node8 -->
<g id="edge9" class="edge"><title>Node9&#45;&gt;Node8</title>
<path fill="none" stroke="#404040" d="M1010.29,-1212.18C1008.73,-1186.55 1008.77,-1147.8 1019,-1116 1019.83,-1113.42 1020.76,-1110.84 1021.78,-1108.27"/>
<polygon fill="none" stroke="#404040" points="1021.86,-1108.08 1020.64,-1100.97 1026.73,-1097.11 1027.95,-1104.21 1021.86,-1108.08"/>
<text text-anchor="middle" x="1038" y="-1152.5" font-family="FreeSans" font-size="10.00"> &#45;mPath</text>
</g>
<!-- Node10 -->
<g id="node10" class="node"><title>Node10</title>
<g id="a_node10"><a xlink:href="classbool.html" target="_top" xlink:title="{bool\n||}">
<polygon fill="white" stroke="black" points="951.5,-1001.5 951.5,-1058.5 988.5,-1058.5 988.5,-1001.5 951.5,-1001.5"/>
<text text-anchor="middle" x="970" y="-1046.5" font-family="FreeSans" font-size="10.00">bool</text>
<polyline fill="none" stroke="black" points="951.5,-1039.5 988.5,-1039.5 "/>
<text text-anchor="middle" x="970" y="-1027.5" font-family="FreeSans" font-size="10.00"> </text>
<polyline fill="none" stroke="black" points="951.5,-1020.5 988.5,-1020.5 "/>
<text text-anchor="middle" x="970" y="-1008.5" font-family="FreeSans" font-size="10.00"> </text>
</a>
</g>
</g>
<!-- Node10&#45;&gt;Node4 -->
<g id="edge27" class="edge"><title>Node10&#45;&gt;Node4</title>
<path fill="none" stroke="#404040" d="M981.513,-1001.47C986.704,-989.3 993.004,-974.867 999,-962 1009.07,-940.381 1017.52,-937.213 1023,-914 1074.88,-694.242 1097.7,-588.177 959,-410 897.934,-331.554 789.335,-287.79 713.906,-265.584"/>
<polygon fill="none" stroke="#404040" points="713.634,-265.507 706.765,-267.701 702.097,-262.204 708.967,-260.01 713.634,-265.507"/>
<text text-anchor="middle" x="1085.5" y="-659.5" font-family="FreeSans" font-size="10.00"> +mError</text>
</g>
<!-- Node10&#45;&gt;Node6 -->
<g id="edge10" class="edge"><title>Node10&#45;&gt;Node6</title>
<path fill="none" stroke="#404040" d="M966.2,-1001.14C963.531,-981.56 959.762,-953.92 955.912,-925.69"/>
<polygon fill="none" stroke="#404040" points="955.882,-925.468 951.108,-920.063 954.261,-913.578 959.035,-918.982 955.882,-925.468"/>
<text text-anchor="middle" x="979" y="-935.5" font-family="FreeSans" font-size="10.00"> &#45;mSilent</text>
</g>
<!-- Node25 -->
<g id="node25" class="node"><title>Node25</title>
<g id="a_node25"><a xlink:href="classConfig_1_1SettingsBase.html" target="_top" xlink:title="{Config::SettingsBase\l\&lt; QMap\&lt; QString, QString \&gt; \&gt;\n||+ SettingsBase()\l+ ~SettingsBase()\l+ value()\l+ setValue()\l+ setMultiValue()\l+ setMultiValueEnabled()\l+ remove()\l+ getSettings()\l+ readFile()\l+ clear()\l}">
<polygon fill="white" stroke="black" points="680.5,-724.5 680.5,-891.5 847.5,-891.5 847.5,-724.5 680.5,-724.5"/>
<text text-anchor="start" x="688.5" y="-879.5" font-family="FreeSans" font-size="10.00">Config::SettingsBase</text>
<text text-anchor="middle" x="764" y="-868.5" font-family="FreeSans" font-size="10.00">&lt; QMap&lt; QString, QString &gt; &gt;</text>
<polyline fill="none" stroke="black" points="680.5,-861.5 847.5,-861.5 "/>
<text text-anchor="middle" x="764" y="-849.5" font-family="FreeSans" font-size="10.00"> </text>
<polyline fill="none" stroke="black" points="680.5,-842.5 847.5,-842.5 "/>
<text text-anchor="start" x="688.5" y="-830.5" font-family="FreeSans" font-size="10.00">+ SettingsBase()</text>
<text text-anchor="start" x="688.5" y="-819.5" font-family="FreeSans" font-size="10.00">+ ~SettingsBase()</text>
<text text-anchor="start" x="688.5" y="-808.5" font-family="FreeSans" font-size="10.00">+ value()</text>
<text text-anchor="start" x="688.5" y="-797.5" font-family="FreeSans" font-size="10.00">+ setValue()</text>
<text text-anchor="start" x="688.5" y="-786.5" font-family="FreeSans" font-size="10.00">+ setMultiValue()</text>
<text text-anchor="start" x="688.5" y="-775.5" font-family="FreeSans" font-size="10.00">+ setMultiValueEnabled()</text>
<text text-anchor="start" x="688.5" y="-764.5" font-family="FreeSans" font-size="10.00">+ remove()</text>
<text text-anchor="start" x="688.5" y="-753.5" font-family="FreeSans" font-size="10.00">+ getSettings()</text>
<text text-anchor="start" x="688.5" y="-742.5" font-family="FreeSans" font-size="10.00">+ readFile()</text>
<text text-anchor="start" x="688.5" y="-731.5" font-family="FreeSans" font-size="10.00">+ clear()</text>
</a>
</g>
</g>
<!-- Node10&#45;&gt;Node25 -->
<g id="edge31" class="edge"><title>Node10&#45;&gt;Node25</title>
<path fill="none" stroke="#404040" d="M959.035,-1001.25C952.012,-987.189 941.471,-971.182 927,-962 875.146,-929.097 834.7,-986.111 790,-944 778.44,-933.11 771.133,-918.76 766.649,-903.486"/>
<polygon fill="none" stroke="#404040" points="766.608,-903.32 761.293,-898.448 763.747,-891.667 769.062,-896.54 766.608,-903.32"/>
<text text-anchor="middle" x="823" y="-935.5" font-family="FreeSans" font-size="10.00"> &#45;mMultiValue</text>
</g>
<!-- Node11 -->
<g id="node11" class="node"><title>Node11</title>
<polygon fill="white" stroke="#bfbfbf" points="796,-996 796,-1064 918,-1064 918,-996 796,-996"/>
<text text-anchor="start" x="804" y="-1052" font-family="FreeSans" font-size="10.00">std::map&lt; std::string,</text>
<text text-anchor="middle" x="857" y="-1041" font-family="FreeSans" font-size="10.00"> path_type_f &gt;</text>
<polyline fill="none" stroke="#bfbfbf" points="796,-1034 918,-1034 "/>
<text text-anchor="middle" x="857" y="-1022" font-family="FreeSans" font-size="10.00"> </text>
<polyline fill="none" stroke="#bfbfbf" points="796,-1015 918,-1015 "/>
<text text-anchor="middle" x="857" y="-1003" font-family="FreeSans" font-size="10.00"> </text>
</g>
<!-- Node11&#45;&gt;Node6 -->
<g id="edge11" class="edge"><title>Node11&#45;&gt;Node6</title>
<path fill="none" stroke="#404040" d="M854.587,-995.925C854.2,-976.816 855.45,-952.566 862,-932 862.764,-929.6 863.587,-927.201 864.463,-924.805"/>
<polygon fill="none" stroke="#404040" points="864.472,-924.782 862.985,-917.726 868.926,-913.639 870.414,-920.695 864.472,-924.782"/>
<text text-anchor="middle" x="907" y="-935.5" font-family="FreeSans" font-size="10.00"> &#45;mTokensMapping</text>
</g>
<!-- Node12 -->
<g id="node12" class="node"><title>Node12</title>
<g id="a_node12"><a xlink:title="STL class. ">
<polygon fill="white" stroke="#bfbfbf" points="775.5,-1212.5 775.5,-1269.5 840.5,-1269.5 840.5,-1212.5 775.5,-1212.5"/>
<text text-anchor="middle" x="808" y="-1257.5" font-family="FreeSans" font-size="10.00">std::string</text>
<polyline fill="none" stroke="#bfbfbf" points="775.5,-1250.5 840.5,-1250.5 "/>
<text text-anchor="middle" x="808" y="-1238.5" font-family="FreeSans" font-size="10.00"> </text>
<polyline fill="none" stroke="#bfbfbf" points="775.5,-1231.5 840.5,-1231.5 "/>
<text text-anchor="middle" x="808" y="-1219.5" font-family="FreeSans" font-size="10.00"> </text>
</a>
</g>
</g>
<!-- Node12&#45;&gt;Node11 -->
<g id="edge12" class="edge"><title>Node12&#45;&gt;Node11</title>
<path fill="none" stroke="#404040" d="M813.699,-1212.35C818.965,-1187.17 827.138,-1149.01 835,-1116 838.105,-1102.96 841.671,-1088.86 845.017,-1075.96"/>
<polygon fill="none" stroke="#404040" points="845.1,-1075.64 842.747,-1068.82 848.134,-1064.03 850.487,-1070.84 845.1,-1075.64"/>
<text text-anchor="middle" x="852" y="-1152.5" font-family="FreeSans" font-size="10.00"> +keys</text>
</g>
<!-- Node13 -->
<g id="node13" class="node"><title>Node13</title>
<g id="a_node13"><a xlink:title="STL class. ">
<polygon fill="white" stroke="#bfbfbf" points="756.5,-1309 756.5,-1377 859.5,-1377 859.5,-1309 756.5,-1309"/>
<text text-anchor="start" x="764.5" y="-1365" font-family="FreeSans" font-size="10.00">std::basic_string&lt;</text>
<text text-anchor="middle" x="808" y="-1354" font-family="FreeSans" font-size="10.00"> char &gt;</text>
<polyline fill="none" stroke="#bfbfbf" points="756.5,-1347 859.5,-1347 "/>
<text text-anchor="middle" x="808" y="-1335" font-family="FreeSans" font-size="10.00"> </text>
<polyline fill="none" stroke="#bfbfbf" points="756.5,-1328 859.5,-1328 "/>
<text text-anchor="middle" x="808" y="-1316" font-family="FreeSans" font-size="10.00"> </text>
</a>
</g>
</g>
<!-- Node13&#45;&gt;Node12 -->
<g id="edge13" class="edge"><title>Node13&#45;&gt;Node12</title>
<path fill="none" stroke="midnightblue" d="M808,-1298.86C808,-1288.95 808,-1278.68 808,-1269.64"/>
<polygon fill="none" stroke="midnightblue" points="804.5,-1298.98 808,-1308.98 811.5,-1298.98 804.5,-1298.98"/>
</g>
<!-- Node14 -->
<g id="node14" class="node"><title>Node14</title>
<polygon fill="white" stroke="#bfbfbf" points="858.5,-1212.5 858.5,-1269.5 931.5,-1269.5 931.5,-1212.5 858.5,-1212.5"/>
<text text-anchor="middle" x="895" y="-1257.5" font-family="FreeSans" font-size="10.00">path_type_f</text>
<polyline fill="none" stroke="#bfbfbf" points="858.5,-1250.5 931.5,-1250.5 "/>
<text text-anchor="middle" x="895" y="-1238.5" font-family="FreeSans" font-size="10.00"> </text>
<polyline fill="none" stroke="#bfbfbf" points="858.5,-1231.5 931.5,-1231.5 "/>
<text text-anchor="middle" x="895" y="-1219.5" font-family="FreeSans" font-size="10.00"> </text>
</g>
<!-- Node14&#45;&gt;Node11 -->
<g id="edge14" class="edge"><title>Node14&#45;&gt;Node11</title>
<path fill="none" stroke="#404040" d="M889.954,-1212.25C883.628,-1177.45 872.703,-1117.37 865.177,-1075.97"/>
<polygon fill="none" stroke="#404040" points="865.154,-1075.85 860.145,-1070.66 863.008,-1064.04 868.016,-1069.23 865.154,-1075.85"/>
<text text-anchor="middle" x="914.5" y="-1152.5" font-family="FreeSans" font-size="10.00"> +elements</text>
</g>
<!-- Node15 -->
<g id="node15" class="node"><title>Node15</title>
<g id="a_node15"><a xlink:href="classProcess_1_1ProcessInvoker.html" target="_top" xlink:title="{Process::ProcessInvoker\n||+ ProcessInvoker()\l+ ~ProcessInvoker()\l+ getProcess()\l+ startProcess()\l+ startProcess()\l&#45; processError()\l&#45; processFinished()\l}">
<polygon fill="white" stroke="black" points="147,-454.5 147,-577.5 279,-577.5 279,-454.5 147,-454.5"/>
<text text-anchor="middle" x="213" y="-565.5" font-family="FreeSans" font-size="10.00">Process::ProcessInvoker</text>
<polyline fill="none" stroke="black" points="147,-558.5 279,-558.5 "/>
<text text-anchor="middle" x="213" y="-546.5" font-family="FreeSans" font-size="10.00"> </text>
<polyline fill="none" stroke="black" points="147,-539.5 279,-539.5 "/>
<text text-anchor="start" x="155" y="-527.5" font-family="FreeSans" font-size="10.00">+ ProcessInvoker()</text>
<text text-anchor="start" x="155" y="-516.5" font-family="FreeSans" font-size="10.00">+ ~ProcessInvoker()</text>
<text text-anchor="start" x="155" y="-505.5" font-family="FreeSans" font-size="10.00">+ getProcess()</text>
<text text-anchor="start" x="155" y="-494.5" font-family="FreeSans" font-size="10.00">+ startProcess()</text>
<text text-anchor="start" x="155" y="-483.5" font-family="FreeSans" font-size="10.00">+ startProcess()</text>
<text text-anchor="start" x="155" y="-472.5" font-family="FreeSans" font-size="10.00">&#45; processError()</text>
<text text-anchor="start" x="155" y="-461.5" font-family="FreeSans" font-size="10.00">&#45; processFinished()</text>
</a>
</g>
</g>
<!-- Node15&#45;&gt;Node4 -->
<g id="edge15" class="edge"><title>Node15&#45;&gt;Node4</title>
<path fill="none" stroke="#404040" d="M239.976,-454.159C255.466,-426.68 277.725,-396.694 307,-380 397.768,-328.24 451.986,-409.486 549.122,-361.359"/>
<polygon fill="none" stroke="#404040" points="549.34,-361.242 552.737,-354.881 559.915,-355.57 556.518,-361.931 549.34,-361.242"/>
<text text-anchor="middle" x="355.5" y="-383.5" font-family="FreeSans" font-size="10.00"> +mImporterInvoker</text>
</g>
<!-- Node16 -->
<g id="node16" class="node"><title>Node16</title>
<g id="a_node16"><a xlink:href="classQObject.html" target="_top" xlink:title="{QObject\n||}">
<polygon fill="white" stroke="black" points="-0.5,-779.5 -0.5,-836.5 54.5,-836.5 54.5,-779.5 -0.5,-779.5"/>
<text text-anchor="middle" x="27" y="-824.5" font-family="FreeSans" font-size="10.00">QObject</text>
<polyline fill="none" stroke="black" points="-0.5,-817.5 54.5,-817.5 "/>
<text text-anchor="middle" x="27" y="-805.5" font-family="FreeSans" font-size="10.00"> </text>
<polyline fill="none" stroke="black" points="-0.5,-798.5 54.5,-798.5 "/>
<text text-anchor="middle" x="27" y="-786.5" font-family="FreeSans" font-size="10.00"> </text>
</a>
</g>
</g>
<!-- Node16&#45;&gt;Node15 -->
<g id="edge16" class="edge"><title>Node16&#45;&gt;Node15</title>
<path fill="none" stroke="midnightblue" d="M37.6258,-769.878C44.0995,-749.365 53.2008,-723.713 64,-702 78.7115,-672.421 80.8159,-662.505 105,-640 116.946,-628.884 124.822,-632.862 137,-622 151.359,-609.193 164.604,-593.229 175.877,-577.644"/>
<polygon fill="none" stroke="midnightblue" points="34.2622,-768.909 34.6629,-779.496 40.9519,-770.97 34.2622,-768.909"/>
</g>
<!-- Node17 -->
<g id="node17" class="node"><title>Node17</title>
<polygon fill="white" stroke="#bfbfbf" points="391.5,-779.5 391.5,-836.5 444.5,-836.5 444.5,-779.5 391.5,-779.5"/>
<text text-anchor="middle" x="418" y="-824.5" font-family="FreeSans" font-size="10.00">QString</text>
<polyline fill="none" stroke="#bfbfbf" points="391.5,-817.5 444.5,-817.5 "/>
<text text-anchor="middle" x="418" y="-805.5" font-family="FreeSans" font-size="10.00"> </text>
<polyline fill="none" stroke="#bfbfbf" points="391.5,-798.5 444.5,-798.5 "/>
<text text-anchor="middle" x="418" y="-786.5" font-family="FreeSans" font-size="10.00"> </text>
</g>
<!-- Node17&#45;&gt;Node4 -->
<g id="edge20" class="edge"><title>Node17&#45;&gt;Node4</title>
<path fill="none" stroke="#404040" d="M416.883,-779.407C413.679,-694.339 405.973,-440.04 427,-410 460.65,-361.925 503.882,-398.286 550,-362 550.211,-361.834 550.422,-361.667 550.632,-361.5"/>
<polygon fill="none" stroke="#404040" points="550.791,-361.362 552.724,-354.415 559.88,-353.527 557.948,-360.474 550.791,-361.362"/>
<text text-anchor="middle" x="456" y="-513.5" font-family="FreeSans" font-size="10.00"> &#45;mLogError</text>
</g>
<!-- Node17&#45;&gt;Node15 -->
<g id="edge17" class="edge"><title>Node17&#45;&gt;Node15</title>
<path fill="none" stroke="#404040" d="M404.48,-779.22C382.115,-733.351 339.429,-646.187 335,-640 321.284,-620.84 304.538,-601.887 287.9,-584.81"/>
<polygon fill="none" stroke="#404040" points="287.673,-584.582 280.609,-583.137 279.225,-576.059 286.29,-577.505 287.673,-584.582"/>
<text text-anchor="middle" x="379" y="-659.5" font-family="FreeSans" font-size="10.00"> &#45;mName</text>
</g>
<!-- Node17&#45;&gt;Node20 -->
<g id="edge23" class="edge"><title>Node17&#45;&gt;Node20</title>
<path fill="none" stroke="#404040" d="M417.284,-779.346C417.697,-744.012 423.008,-682.364 452,-640 460.355,-627.791 469.286,-632.202 480,-622 481.944,-620.149 483.871,-618.24 485.777,-616.285"/>
<polygon fill="none" stroke="#404040" points="485.83,-616.228 486.983,-609.109 493.997,-607.436 492.844,-614.554 485.83,-616.228"/>
<text text-anchor="middle" x="484.5" y="-659.5" font-family="FreeSans" font-size="10.00"> &#45;mDataLocal</text>
</g>
<!-- Node18 -->
<g id="node18" class="node"><title>Node18</title>
<polygon fill="white" stroke="#bfbfbf" points="73,-779.5 73,-836.5 135,-836.5 135,-779.5 73,-779.5"/>
<text text-anchor="middle" x="104" y="-824.5" font-family="FreeSans" font-size="10.00">QProcess</text>
<polyline fill="none" stroke="#bfbfbf" points="73,-817.5 135,-817.5 "/>
<text text-anchor="middle" x="104" y="-805.5" font-family="FreeSans" font-size="10.00"> </text>
<polyline fill="none" stroke="#bfbfbf" points="73,-798.5 135,-798.5 "/>
<text text-anchor="middle" x="104" y="-786.5" font-family="FreeSans" font-size="10.00"> </text>
</g>
<!-- Node18&#45;&gt;Node15 -->
<g id="edge18" class="edge"><title>Node18&#45;&gt;Node15</title>
<path fill="none" stroke="#404040" d="M102.207,-779.476C101.033,-745.344 102.476,-686.043 122,-640 126.065,-630.413 130.61,-630.223 137,-622 145.576,-610.964 154.465,-599.102 163.009,-587.466"/>
<polygon fill="none" stroke="#404040" points="163.014,-587.458 163.322,-580.254 170.09,-577.767 169.783,-584.971 163.014,-587.458"/>
<text text-anchor="middle" x="149.5" y="-659.5" font-family="FreeSans" font-size="10.00"> &#45;mProcess</text>
</g>
<!-- Node19 -->
<g id="node19" class="node"><title>Node19</title>
<polygon fill="white" stroke="#bfbfbf" points="197.5,-779.5 197.5,-836.5 266.5,-836.5 266.5,-779.5 197.5,-779.5"/>
<text text-anchor="middle" x="232" y="-824.5" font-family="FreeSans" font-size="10.00">QStringList</text>
<polyline fill="none" stroke="#bfbfbf" points="197.5,-817.5 266.5,-817.5 "/>
<text text-anchor="middle" x="232" y="-805.5" font-family="FreeSans" font-size="10.00"> </text>
<polyline fill="none" stroke="#bfbfbf" points="197.5,-798.5 266.5,-798.5 "/>
<text text-anchor="middle" x="232" y="-786.5" font-family="FreeSans" font-size="10.00"> </text>
</g>
<!-- Node19&#45;&gt;Node15 -->
<g id="edge19" class="edge"><title>Node19&#45;&gt;Node15</title>
<path fill="none" stroke="#404040" d="M217.333,-779.101C205.413,-754.756 189.54,-718.088 183,-684 177.073,-653.107 181.311,-618.929 188.265,-589.581"/>
<polygon fill="none" stroke="#404040" points="188.316,-589.377 185.919,-582.577 191.274,-577.747 193.672,-584.548 188.316,-589.377"/>
<text text-anchor="middle" x="218" y="-659.5" font-family="FreeSans" font-size="10.00"> &#45;mArguments</text>
</g>
<!-- Node19&#45;&gt;Node20 -->
<g id="edge26" class="edge"><title>Node19&#45;&gt;Node20</title>
<path fill="none" stroke="#404040" d="M236.785,-779.487C244.876,-734.466 261.411,-649.12 272,-640 307.154,-609.723 439.702,-644.99 480,-622 482.116,-620.793 484.188,-619.499 486.215,-618.127"/>
<polygon fill="none" stroke="#404040" points="486.443,-617.953 488.783,-611.132 495.98,-610.67 493.639,-617.49 486.443,-617.953"/>
<text text-anchor="middle" x="301.5" y="-659.5" font-family="FreeSans" font-size="10.00"> &#45;mDataDirs</text>
</g>
<!-- Node20&#45;&gt;Node4 -->
<g id="edge21" class="edge"><title>Node20&#45;&gt;Node4</title>
<path fill="none" stroke="#404040" d="M573.53,-421.304C576.743,-407.387 580.264,-393.268 584,-380 584.639,-377.731 585.296,-375.444 585.968,-373.144"/>
<polygon fill="none" stroke="#404040" points="585.996,-373.051 583.892,-366.154 589.45,-361.559 591.554,-368.456 585.996,-373.051"/>
<text text-anchor="middle" x="627" y="-383.5" font-family="FreeSans" font-size="10.00"> &#45;mGameSettings</text>
</g>
<!-- Node21 -->
<g id="node21" class="node"><title>Node21</title>
<polygon fill="white" stroke="#bfbfbf" points="625,-779.5 625,-836.5 663,-836.5 663,-779.5 625,-779.5"/>
<text text-anchor="middle" x="644" y="-824.5" font-family="FreeSans" font-size="10.00">char</text>
<polyline fill="none" stroke="#bfbfbf" points="625,-817.5 663,-817.5 "/>
<text text-anchor="middle" x="644" y="-805.5" font-family="FreeSans" font-size="10.00"> </text>
<polyline fill="none" stroke="#bfbfbf" points="625,-798.5 663,-798.5 "/>
<text text-anchor="middle" x="644" y="-786.5" font-family="FreeSans" font-size="10.00"> </text>
</g>
<!-- Node21&#45;&gt;Node20 -->
<g id="edge24" class="edge"><title>Node21&#45;&gt;Node20</title>
<path fill="none" stroke="#404040" d="M641.211,-779.176C637.624,-756.201 629.468,-723.919 611,-702 599.729,-688.623 586.027,-698.333 576,-684 563.492,-666.121 556.494,-644.463 552.856,-622.753"/>
<polygon fill="none" stroke="#404040" points="552.834,-622.593 548.039,-617.207 551.167,-610.709 555.962,-616.096 552.834,-622.593"/>
<text text-anchor="middle" x="609.5" y="-659.5" font-family="FreeSans" font-size="10.00"> &#45;sContentKey</text>
</g>
<!-- Node24 -->
<g id="node24" class="node"><title>Node24</title>
<g id="a_node24"><a xlink:href="classConfig_1_1LauncherSettings.html" target="_top" xlink:title="{Config::LauncherSettings\n||+ LauncherSettings()\l+ ~LauncherSettings()\l+ writeFile()\l+ getContentLists()\l+ setContentList()\l+ setContentList()\l+ removeContentList()\l+ setCurrentContentListName()\l+ getCurrentContentListName()\l+ getContentListFiles()\l+ reverse()\l&#45; subKeys()\l&#45; makeContentListKey()\l&#45; isEqual()\l&#45; makeNewContentListName()\l}">
<polygon fill="white" stroke="black" points="634.5,-410.5 634.5,-621.5 805.5,-621.5 805.5,-410.5 634.5,-410.5"/>
<text text-anchor="middle" x="720" y="-609.5" font-family="FreeSans" font-size="10.00">Config::LauncherSettings</text>
<polyline fill="none" stroke="black" points="634.5,-602.5 805.5,-602.5 "/>
<text text-anchor="middle" x="720" y="-590.5" font-family="FreeSans" font-size="10.00"> </text>
<polyline fill="none" stroke="black" points="634.5,-583.5 805.5,-583.5 "/>
<text text-anchor="start" x="642.5" y="-571.5" font-family="FreeSans" font-size="10.00">+ LauncherSettings()</text>
<text text-anchor="start" x="642.5" y="-560.5" font-family="FreeSans" font-size="10.00">+ ~LauncherSettings()</text>
<text text-anchor="start" x="642.5" y="-549.5" font-family="FreeSans" font-size="10.00">+ writeFile()</text>
<text text-anchor="start" x="642.5" y="-538.5" font-family="FreeSans" font-size="10.00">+ getContentLists()</text>
<text text-anchor="start" x="642.5" y="-527.5" font-family="FreeSans" font-size="10.00">+ setContentList()</text>
<text text-anchor="start" x="642.5" y="-516.5" font-family="FreeSans" font-size="10.00">+ setContentList()</text>
<text text-anchor="start" x="642.5" y="-505.5" font-family="FreeSans" font-size="10.00">+ removeContentList()</text>
<text text-anchor="start" x="642.5" y="-494.5" font-family="FreeSans" font-size="10.00">+ setCurrentContentListName()</text>
<text text-anchor="start" x="642.5" y="-483.5" font-family="FreeSans" font-size="10.00">+ getCurrentContentListName()</text>
<text text-anchor="start" x="642.5" y="-472.5" font-family="FreeSans" font-size="10.00">+ getContentListFiles()</text>
<text text-anchor="start" x="642.5" y="-461.5" font-family="FreeSans" font-size="10.00">+ reverse()</text>
<text text-anchor="start" x="642.5" y="-450.5" font-family="FreeSans" font-size="10.00">&#45; subKeys()</text>
<text text-anchor="start" x="642.5" y="-439.5" font-family="FreeSans" font-size="10.00">&#45; makeContentListKey()</text>
<text text-anchor="start" x="642.5" y="-428.5" font-family="FreeSans" font-size="10.00">&#45; isEqual()</text>
<text text-anchor="start" x="642.5" y="-417.5" font-family="FreeSans" font-size="10.00">&#45; makeNewContentListName()</text>
</a>
</g>
</g>
<!-- Node21&#45;&gt;Node24 -->
<g id="edge33" class="edge"><title>Node21&#45;&gt;Node24</title>
<path fill="none" stroke="#404040" d="M642.333,-779.213C641.107,-745.575 641.541,-687.526 655,-640 655.642,-637.734 656.329,-635.463 657.057,-633.189"/>
<polygon fill="none" stroke="#404040" points="657.07,-633.152 655.267,-626.17 661.019,-621.82 662.821,-628.802 657.07,-633.152"/>
<text text-anchor="middle" x="721.5" y="-676" font-family="FreeSans" font-size="10.00"> &#45;sContentListSuffix</text>
<text text-anchor="middle" x="721.5" y="-665" font-family="FreeSans" font-size="10.00">&#45;sContentListsSectionPrefix</text>
<text text-anchor="middle" x="721.5" y="-654" font-family="FreeSans" font-size="10.00">&#45;sCurrentContentListKey</text>
<text text-anchor="middle" x="721.5" y="-643" font-family="FreeSans" font-size="10.00">+sLauncherConfigFileName</text>
</g>
<!-- Node22 -->
<g id="node22" class="node"><title>Node22</title>
<g id="a_node22"><a xlink:href="classQMap_3_01QString_00_01QString_01_4.html" target="_top" xlink:title="{QMap\&lt; QString, QString \&gt;\n||}">
<polygon fill="white" stroke="black" points="505.5,-1001.5 505.5,-1058.5 650.5,-1058.5 650.5,-1001.5 505.5,-1001.5"/>
<text text-anchor="middle" x="578" y="-1046.5" font-family="FreeSans" font-size="10.00">QMap&lt; QString, QString &gt;</text>
<polyline fill="none" stroke="black" points="505.5,-1039.5 650.5,-1039.5 "/>
<text text-anchor="middle" x="578" y="-1027.5" font-family="FreeSans" font-size="10.00"> </text>
<polyline fill="none" stroke="black" points="505.5,-1020.5 650.5,-1020.5 "/>
<text text-anchor="middle" x="578" y="-1008.5" font-family="FreeSans" font-size="10.00"> </text>
</a>
</g>
</g>
<!-- Node22&#45;&gt;Node20 -->
<g id="edge25" class="edge"><title>Node22&#45;&gt;Node20</title>
<path fill="none" stroke="#404040" d="M566.057,-1001.27C556.873,-978.36 544.945,-944.725 540,-914 524.259,-816.195 530.903,-703.172 539.768,-622.793"/>
<polygon fill="none" stroke="#404040" points="539.79,-622.602 536.494,-616.188 541.148,-610.679 544.443,-617.094 539.79,-622.602"/>
<text text-anchor="middle" x="578" y="-811" font-family="FreeSans" font-size="10.00"> &#45;mSettings</text>
<text text-anchor="middle" x="578" y="-800" font-family="FreeSans" font-size="10.00">&#45;mUserSettings</text>
</g>
<!-- Node22&#45;&gt;Node25 -->
<g id="edge32" class="edge"><title>Node22&#45;&gt;Node25</title>
<path fill="none" stroke="#404040" d="M601.557,-1001.14C622.914,-975.876 655.623,-937.188 686.106,-901.132"/>
<polygon fill="none" stroke="#404040" points="686.468,-900.705 687.287,-893.54 694.215,-891.541 693.396,-898.705 686.468,-900.705"/>
<text text-anchor="middle" x="688.5" y="-935.5" font-family="FreeSans" font-size="10.00"> &#45;mSettings</text>
</g>
<!-- Node23 -->
<g id="node23" class="node"><title>Node23</title>
<polygon fill="white" stroke="#bfbfbf" points="1070,-482 1070,-550 1216,-550 1216,-482 1070,-482"/>
<text text-anchor="start" x="1078" y="-538" font-family="FreeSans" font-size="10.00">QMap&lt; QString, Wizard</text>
<text text-anchor="middle" x="1143" y="-527" font-family="FreeSans" font-size="10.00">::MainWizard::Installation &gt;</text>
<polyline fill="none" stroke="#bfbfbf" points="1070,-520 1216,-520 "/>
<text text-anchor="middle" x="1143" y="-508" font-family="FreeSans" font-size="10.00"> </text>
<polyline fill="none" stroke="#bfbfbf" points="1070,-501 1216,-501 "/>
<text text-anchor="middle" x="1143" y="-489" font-family="FreeSans" font-size="10.00"> </text>
</g>
<!-- Node23&#45;&gt;Node4 -->
<g id="edge28" class="edge"><title>Node23&#45;&gt;Node4</title>
<path fill="none" stroke="#404040" d="M1129.64,-481.962C1115.64,-451.317 1090.8,-406.558 1056,-380 954.028,-302.177 805.864,-268.951 714.119,-255.199"/>
<polygon fill="none" stroke="#404040" points="713.988,-255.18 707.478,-258.28 702.112,-253.462 708.623,-250.363 713.988,-255.18"/>
<text text-anchor="middle" x="1108.5" y="-383.5" font-family="FreeSans" font-size="10.00"> +mInstallations</text>
</g>
<!-- Node24&#45;&gt;Node4 -->
<g id="edge29" class="edge"><title>Node24&#45;&gt;Node4</title>
<path fill="none" stroke="#404040" d="M685.335,-410.227C681.3,-398.029 677.15,-385.488 673.029,-373.032"/>
<polygon fill="none" stroke="#404040" points="673.026,-373.022 667.344,-368.582 669.256,-361.629 674.939,-366.069 673.026,-373.022"/>
<text text-anchor="middle" x="729.5" y="-383.5" font-family="FreeSans" font-size="10.00"> &#45;mLauncherSettings</text>
</g>
<!-- Node25&#45;&gt;Node24 -->
<g id="edge30" class="edge"><title>Node25&#45;&gt;Node24</title>
<path fill="none" stroke="midnightblue" d="M846.768,-715.957C852.891,-705.7 858.163,-694.974 862,-684 868.455,-665.54 870.125,-657.788 862,-640 849.668,-613.003 828.161,-589.657 805.559,-570.778"/>
<polygon fill="none" stroke="midnightblue" points="843.785,-714.126 841.438,-724.457 849.716,-717.845 843.785,-714.126"/>
</g>
</g>
</svg>
