<?xml version="1.0" encoding="UTF-8" standalone="no"?>
<!DOCTYPE svg PUBLIC "-//W3C//DTD SVG 1.1//EN"
 "http://www.w3.org/Graphics/SVG/1.1/DTD/svg11.dtd">
<!-- Generated by graphviz version 2.36.0 (20140111.2315)
 -->
<!-- Title: Nif::Named Pages: 1 -->
<svg width="614pt" height="1180pt"
 viewBox="0.00 0.00 614.00 1180.00" xmlns="http://www.w3.org/2000/svg" xmlns:xlink="http://www.w3.org/1999/xlink">
<g id="graph0" class="graph" transform="scale(1 1) rotate(0) translate(4 1176)">
<title>Nif::Named</title>
<polygon fill="white" stroke="none" points="-4,4 -4,-1176 610,-1176 610,4 -4,4"/>
<!-- Node1 -->
<g id="node1" class="node"><title>Node1</title>
<polygon fill="#bfbfbf" stroke="black" points="349,-406.5 349,-463.5 413,-463.5 413,-406.5 349,-406.5"/>
<text text-anchor="middle" x="381" y="-451.5" font-family="FreeSans" font-size="10.00">Nif::Named</text>
<polyline fill="none" stroke="black" points="349,-444.5 413,-444.5 "/>
<text text-anchor="middle" x="381" y="-432.5" font-family="FreeSans" font-size="10.00"> </text>
<polyline fill="none" stroke="black" points="349,-425.5 413,-425.5 "/>
<text text-anchor="start" x="357" y="-413.5" font-family="FreeSans" font-size="10.00">+ read()</text>
</g>
<!-- Node2 -->
<g id="node2" class="node"><title>Node2</title>
<g id="a_node2"><a xlink:href="classNif_1_1Controlled.html" target="_top" xlink:title="Anything that has a controller. ">
<polygon fill="white" stroke="black" points="231.5,-563 231.5,-631 308.5,-631 308.5,-563 231.5,-563"/>
<text text-anchor="middle" x="270" y="-619" font-family="FreeSans" font-size="10.00">Nif::Controlled</text>
<polyline fill="none" stroke="black" points="231.5,-612 308.5,-612 "/>
<text text-anchor="middle" x="270" y="-600" font-family="FreeSans" font-size="10.00"> </text>
<polyline fill="none" stroke="black" points="231.5,-593 308.5,-593 "/>
<text text-anchor="start" x="239.5" y="-581" font-family="FreeSans" font-size="10.00">+ read()</text>
<text text-anchor="start" x="239.5" y="-570" font-family="FreeSans" font-size="10.00">+ post()</text>
</a>
</g>
</g>
<!-- Node2&#45;&gt;Node1 -->
<g id="edge1" class="edge"><title>Node2&#45;&gt;Node1</title>
<path fill="none" stroke="midnightblue" d="M307.152,-555.211C317.993,-542.444 329.476,-528.019 339,-514 349.89,-497.97 360.234,-478.824 367.932,-463.513"/>
<polygon fill="none" stroke="midnightblue" points="304.38,-553.066 300.507,-562.927 309.685,-557.633 304.38,-553.066"/>
</g>
<!-- Node15 -->
<g id="node15" class="node"><title>Node15</title>
<g id="a_node15"><a xlink:href="classNif_1_1RecordPtrT.html" target="_top" xlink:title="{Nif::RecordPtrT\&lt; Controlled \&gt;\n||+ RecordPtrT()\l+ read()\l+ post()\l+ getPtr()\l+ getPtr()\l+ get()\l+ get()\l+ operator&#45;\&gt;()\l+ operator&#45;\&gt;()\l+ empty()\l}">
<polygon fill="white" stroke="black" points="95.5,-357 95.5,-513 238.5,-513 238.5,-357 95.5,-357"/>
<text text-anchor="middle" x="167" y="-501" font-family="FreeSans" font-size="10.00">Nif::RecordPtrT&lt; Controlled &gt;</text>
<polyline fill="none" stroke="black" points="95.5,-494 238.5,-494 "/>
<text text-anchor="middle" x="167" y="-482" font-family="FreeSans" font-size="10.00"> </text>
<polyline fill="none" stroke="black" points="95.5,-475 238.5,-475 "/>
<text text-anchor="start" x="103.5" y="-463" font-family="FreeSans" font-size="10.00">+ RecordPtrT()</text>
<text text-anchor="start" x="103.5" y="-452" font-family="FreeSans" font-size="10.00">+ read()</text>
<text text-anchor="start" x="103.5" y="-441" font-family="FreeSans" font-size="10.00">+ post()</text>
<text text-anchor="start" x="103.5" y="-430" font-family="FreeSans" font-size="10.00">+ getPtr()</text>
<text text-anchor="start" x="103.5" y="-419" font-family="FreeSans" font-size="10.00">+ getPtr()</text>
<text text-anchor="start" x="103.5" y="-408" font-family="FreeSans" font-size="10.00">+ get()</text>
<text text-anchor="start" x="103.5" y="-397" font-family="FreeSans" font-size="10.00">+ get()</text>
<text text-anchor="start" x="103.5" y="-386" font-family="FreeSans" font-size="10.00">+ operator&#45;&gt;()</text>
<text text-anchor="start" x="103.5" y="-375" font-family="FreeSans" font-size="10.00">+ operator&#45;&gt;()</text>
<text text-anchor="start" x="103.5" y="-364" font-family="FreeSans" font-size="10.00">+ empty()</text>
</a>
</g>
</g>
<!-- Node2&#45;&gt;Node15 -->
<g id="edge18" class="edge"><title>Node2&#45;&gt;Node15</title>
<path fill="none" stroke="#404040" d="M245.964,-562.951C241.573,-556.71 237.09,-550.195 233,-544 228.608,-537.347 224.135,-530.41 219.692,-523.404"/>
<polygon fill="none" stroke="#404040" points="219.609,-523.271 213.028,-520.323 213.218,-513.114 219.799,-516.062 219.609,-523.271"/>
<text text-anchor="middle" x="243" y="-535.5" font-family="FreeSans" font-size="10.00"> +ptr</text>
</g>
<!-- Node3 -->
<g id="node3" class="node"><title>Node3</title>
<g id="a_node3"><a xlink:href="classNif_1_1Extra.html" target="_top" xlink:title="{Nif::Extra\n||+ read()\l+ post()\l}">
<polygon fill="white" stroke="black" points="254.5,-681 254.5,-749 309.5,-749 309.5,-681 254.5,-681"/>
<text text-anchor="middle" x="282" y="-737" font-family="FreeSans" font-size="10.00">Nif::Extra</text>
<polyline fill="none" stroke="black" points="254.5,-730 309.5,-730 "/>
<text text-anchor="middle" x="282" y="-718" font-family="FreeSans" font-size="10.00"> </text>
<polyline fill="none" stroke="black" points="254.5,-711 309.5,-711 "/>
<text text-anchor="start" x="262.5" y="-699" font-family="FreeSans" font-size="10.00">+ read()</text>
<text text-anchor="start" x="262.5" y="-688" font-family="FreeSans" font-size="10.00">+ post()</text>
</a>
</g>
</g>
<!-- Node3&#45;&gt;Node2 -->
<g id="edge2" class="edge"><title>Node3&#45;&gt;Node2</title>
<path fill="none" stroke="midnightblue" d="M277.51,-670.596C276.163,-657.574 274.707,-643.502 273.439,-631.246"/>
<polygon fill="none" stroke="midnightblue" points="274.051,-671.172 278.561,-680.759 281.014,-670.452 274.051,-671.172"/>
</g>
<!-- Node9 -->
<g id="node9" class="node"><title>Node9</title>
<g id="a_node9"><a xlink:href="classNif_1_1RecordPtrT.html" target="_top" xlink:title="{Nif::RecordPtrT\&lt; Extra \&gt;\n||+ RecordPtrT()\l+ read()\l+ post()\l+ getPtr()\l+ getPtr()\l+ get()\l+ get()\l+ operator&#45;\&gt;()\l+ operator&#45;\&gt;()\l+ empty()\l}">
<polygon fill="white" stroke="black" points="191.5,-799 191.5,-955 312.5,-955 312.5,-799 191.5,-799"/>
<text text-anchor="middle" x="252" y="-943" font-family="FreeSans" font-size="10.00">Nif::RecordPtrT&lt; Extra &gt;</text>
<polyline fill="none" stroke="black" points="191.5,-936 312.5,-936 "/>
<text text-anchor="middle" x="252" y="-924" font-family="FreeSans" font-size="10.00"> </text>
<polyline fill="none" stroke="black" points="191.5,-917 312.5,-917 "/>
<text text-anchor="start" x="199.5" y="-905" font-family="FreeSans" font-size="10.00">+ RecordPtrT()</text>
<text text-anchor="start" x="199.5" y="-894" font-family="FreeSans" font-size="10.00">+ read()</text>
<text text-anchor="start" x="199.5" y="-883" font-family="FreeSans" font-size="10.00">+ post()</text>
<text text-anchor="start" x="199.5" y="-872" font-family="FreeSans" font-size="10.00">+ getPtr()</text>
<text text-anchor="start" x="199.5" y="-861" font-family="FreeSans" font-size="10.00">+ getPtr()</text>
<text text-anchor="start" x="199.5" y="-850" font-family="FreeSans" font-size="10.00">+ get()</text>
<text text-anchor="start" x="199.5" y="-839" font-family="FreeSans" font-size="10.00">+ get()</text>
<text text-anchor="start" x="199.5" y="-828" font-family="FreeSans" font-size="10.00">+ operator&#45;&gt;()</text>
<text text-anchor="start" x="199.5" y="-817" font-family="FreeSans" font-size="10.00">+ operator&#45;&gt;()</text>
<text text-anchor="start" x="199.5" y="-806" font-family="FreeSans" font-size="10.00">+ empty()</text>
</a>
</g>
</g>
<!-- Node3&#45;&gt;Node9 -->
<g id="edge9" class="edge"><title>Node3&#45;&gt;Node9</title>
<path fill="none" stroke="#404040" d="M275.752,-749.325C273.654,-760.515 271.204,-773.577 268.691,-786.982"/>
<polygon fill="none" stroke="#404040" points="268.684,-787.018 271.51,-793.652 266.473,-798.812 263.647,-792.178 268.684,-787.018"/>
<text text-anchor="middle" x="282" y="-771.5" font-family="FreeSans" font-size="10.00"> +ptr</text>
</g>
<!-- Node4 -->
<g id="node4" class="node"><title>Node4</title>
<g id="a_node4"><a xlink:href="structNif_1_1Record.html" target="_top" xlink:title="Base class for all records. ">
<polygon fill="white" stroke="black" points="390.5,-832 390.5,-922 457.5,-922 457.5,-832 390.5,-832"/>
<text text-anchor="middle" x="424" y="-910" font-family="FreeSans" font-size="10.00">Nif::Record</text>
<polyline fill="none" stroke="black" points="390.5,-903 457.5,-903 "/>
<text text-anchor="middle" x="424" y="-891" font-family="FreeSans" font-size="10.00"> </text>
<polyline fill="none" stroke="black" points="390.5,-884 457.5,-884 "/>
<text text-anchor="start" x="398.5" y="-872" font-family="FreeSans" font-size="10.00">+ Record()</text>
<text text-anchor="start" x="398.5" y="-861" font-family="FreeSans" font-size="10.00">+ read()</text>
<text text-anchor="start" x="398.5" y="-850" font-family="FreeSans" font-size="10.00">+ post()</text>
<text text-anchor="start" x="398.5" y="-839" font-family="FreeSans" font-size="10.00">+ ~Record()</text>
</a>
</g>
</g>
<!-- Node4&#45;&gt;Node3 -->
<g id="edge3" class="edge"><title>Node4&#45;&gt;Node3</title>
<path fill="none" stroke="midnightblue" d="M383.527,-830.397C359.899,-803.774 330.7,-770.873 309.69,-747.2"/>
<polygon fill="none" stroke="midnightblue" points="381.092,-832.926 390.348,-838.082 386.328,-828.28 381.092,-832.926"/>
</g>
<!-- Node13 -->
<g id="node13" class="node"><title>Node13</title>
<g id="a_node13"><a xlink:href="classNif_1_1Controller.html" target="_top" xlink:title="{Nif::Controller\n||+ read()\l+ post()\l}">
<polygon fill="white" stroke="black" points="308,-207 308,-275 382,-275 382,-207 308,-207"/>
<text text-anchor="middle" x="345" y="-263" font-family="FreeSans" font-size="10.00">Nif::Controller</text>
<polyline fill="none" stroke="black" points="308,-256 382,-256 "/>
<text text-anchor="middle" x="345" y="-244" font-family="FreeSans" font-size="10.00"> </text>
<polyline fill="none" stroke="black" points="308,-237 382,-237 "/>
<text text-anchor="start" x="316" y="-225" font-family="FreeSans" font-size="10.00">+ read()</text>
<text text-anchor="start" x="316" y="-214" font-family="FreeSans" font-size="10.00">+ post()</text>
</a>
</g>
</g>
<!-- Node4&#45;&gt;Node13 -->
<g id="edge14" class="edge"><title>Node4&#45;&gt;Node13</title>
<path fill="none" stroke="midnightblue" d="M432.632,-821.853C436.837,-790.931 441,-751.387 441,-716 441,-716 441,-716 441,-434 441,-367.929 427.976,-348.756 391,-294 386.683,-287.607 381.649,-281.161 376.527,-275.087"/>
<polygon fill="none" stroke="midnightblue" points="429.133,-821.601 431.21,-831.99 436.065,-822.573 429.133,-821.601"/>
</g>
<!-- Node5 -->
<g id="node5" class="node"><title>Node5</title>
<polygon fill="white" stroke="#bfbfbf" points="334.5,-1005.5 334.5,-1062.5 375.5,-1062.5 375.5,-1005.5 334.5,-1005.5"/>
<text text-anchor="middle" x="355" y="-1050.5" font-family="FreeSans" font-size="10.00">size_t</text>
<polyline fill="none" stroke="#bfbfbf" points="334.5,-1043.5 375.5,-1043.5 "/>
<text text-anchor="middle" x="355" y="-1031.5" font-family="FreeSans" font-size="10.00"> </text>
<polyline fill="none" stroke="#bfbfbf" points="334.5,-1024.5 375.5,-1024.5 "/>
<text text-anchor="middle" x="355" y="-1012.5" font-family="FreeSans" font-size="10.00"> </text>
</g>
<!-- Node5&#45;&gt;Node4 -->
<g id="edge4" class="edge"><title>Node5&#45;&gt;Node4</title>
<path fill="none" stroke="#404040" d="M362.258,-1005.3C365.192,-995.287 368.866,-983.995 373,-974 378.636,-960.375 385.582,-946.126 392.513,-932.902"/>
<polygon fill="none" stroke="#404040" points="392.645,-932.654 391.946,-925.477 398.303,-922.071 399.002,-929.248 392.645,-932.654"/>
<text text-anchor="middle" x="396" y="-977.5" font-family="FreeSans" font-size="10.00"> +recIndex</text>
</g>
<!-- Node6 -->
<g id="node6" class="node"><title>Node6</title>
<g id="a_node6"><a xlink:href="classint.html" target="_top" xlink:title="{int\n||}">
<polygon fill="white" stroke="black" points="534.5,-1005.5 534.5,-1062.5 563.5,-1062.5 563.5,-1005.5 534.5,-1005.5"/>
<text text-anchor="middle" x="549" y="-1050.5" font-family="FreeSans" font-size="10.00">int</text>
<polyline fill="none" stroke="black" points="534.5,-1043.5 563.5,-1043.5 "/>
<text text-anchor="middle" x="549" y="-1031.5" font-family="FreeSans" font-size="10.00"> </text>
<polyline fill="none" stroke="black" points="534.5,-1024.5 563.5,-1024.5 "/>
<text text-anchor="middle" x="549" y="-1012.5" font-family="FreeSans" font-size="10.00"> </text>
</a>
</g>
</g>
<!-- Node6&#45;&gt;Node4 -->
<g id="edge5" class="edge"><title>Node6&#45;&gt;Node4</title>
<path fill="none" stroke="#404040" d="M534.416,-1014.92C517.564,-994.019 489.095,-958.718 465.286,-929.195"/>
<polygon fill="none" stroke="#404040" points="465.274,-929.179 458.393,-927.02 457.741,-919.838 464.621,-921.998 465.274,-929.179"/>
<text text-anchor="middle" x="530.5" y="-977.5" font-family="FreeSans" font-size="10.00"> +recType</text>
</g>
<!-- Node6&#45;&gt;Node13 -->
<g id="edge21" class="edge"><title>Node6&#45;&gt;Node13</title>
<path fill="none" stroke="#404040" d="M557.388,-1005.29C565.953,-974.504 578,-923.171 578,-878 578,-878 578,-878 578,-434 578,-339.237 461.794,-282.562 393.514,-257.441"/>
<polygon fill="none" stroke="#404040" points="393.48,-257.428 386.484,-259.18 382.177,-253.396 389.172,-251.645 393.48,-257.428"/>
<text text-anchor="middle" x="592" y="-653.5" font-family="FreeSans" font-size="10.00"> +flags</text>
</g>
<!-- Node7 -->
<g id="node7" class="node"><title>Node7</title>
<g id="a_node7"><a xlink:title="STL class. ">
<polygon fill="white" stroke="#bfbfbf" points="426.5,-1005.5 426.5,-1062.5 483.5,-1062.5 483.5,-1005.5 426.5,-1005.5"/>
<text text-anchor="middle" x="455" y="-1050.5" font-family="FreeSans" font-size="10.00">std::string</text>
<polyline fill="none" stroke="#bfbfbf" points="426.5,-1043.5 483.5,-1043.5 "/>
<text text-anchor="middle" x="455" y="-1031.5" font-family="FreeSans" font-size="10.00"> </text>
<polyline fill="none" stroke="#bfbfbf" points="426.5,-1024.5 483.5,-1024.5 "/>
<text text-anchor="middle" x="455" y="-1012.5" font-family="FreeSans" font-size="10.00"> </text>
</a>
</g>
</g>
<!-- Node7&#45;&gt;Node1 -->
<g id="edge24" class="edge"><title>Node7&#45;&gt;Node1</title>
<path fill="none" stroke="#404040" d="M466.957,-1005.02C469.245,-998.841 471.417,-992.269 473,-986 484.849,-939.071 487,-926.402 487,-878 487,-878 487,-878 487,-596 487,-546.719 451.619,-500.976 421.74,-471.132"/>
<polygon fill="none" stroke="#404040" points="421.719,-471.112 414.625,-469.817 413.091,-462.771 420.185,-464.065 421.719,-471.112"/>
<text text-anchor="middle" x="503.5" y="-712.5" font-family="FreeSans" font-size="10.00"> +name</text>
</g>
<!-- Node7&#45;&gt;Node4 -->
<g id="edge6" class="edge"><title>Node7&#45;&gt;Node4</title>
<path fill="none" stroke="#404040" d="M433.859,-1005.42C430.225,-999.322 426.984,-992.681 425,-986 420.125,-969.583 418.601,-951.134 418.657,-934.192"/>
<polygon fill="none" stroke="#404040" points="418.658,-934.169 414.806,-928.072 418.953,-922.172 422.804,-928.269 418.658,-934.169"/>
<text text-anchor="middle" x="449" y="-977.5" font-family="FreeSans" font-size="10.00"> +recName</text>
</g>
<!-- Node8 -->
<g id="node8" class="node"><title>Node8</title>
<g id="a_node8"><a xlink:title="STL class. ">
<polygon fill="white" stroke="#bfbfbf" points="409.5,-1103 409.5,-1171 500.5,-1171 500.5,-1103 409.5,-1103"/>
<text text-anchor="start" x="417.5" y="-1159" font-family="FreeSans" font-size="10.00">std::basic_string&lt;</text>
<text text-anchor="middle" x="455" y="-1148" font-family="FreeSans" font-size="10.00"> char &gt;</text>
<polyline fill="none" stroke="#bfbfbf" points="409.5,-1141 500.5,-1141 "/>
<text text-anchor="middle" x="455" y="-1129" font-family="FreeSans" font-size="10.00"> </text>
<polyline fill="none" stroke="#bfbfbf" points="409.5,-1122 500.5,-1122 "/>
<text text-anchor="middle" x="455" y="-1110" font-family="FreeSans" font-size="10.00"> </text>
</a>
</g>
</g>
<!-- Node8&#45;&gt;Node7 -->
<g id="edge7" class="edge"><title>Node8&#45;&gt;Node7</title>
<path fill="none" stroke="midnightblue" d="M455,-1092.91C455,-1082.69 455,-1072.06 455,-1062.74"/>
<polygon fill="none" stroke="midnightblue" points="451.5,-1092.93 455,-1102.93 458.5,-1092.93 451.5,-1092.93"/>
</g>
<!-- Node9&#45;&gt;Node3 -->
<g id="edge8" class="edge"><title>Node9&#45;&gt;Node3</title>
<path fill="none" stroke="#404040" d="M227.126,-798.805C226.77,-788.262 228.082,-777.728 232,-768 235.175,-760.117 240.18,-752.759 245.822,-746.202"/>
<polygon fill="none" stroke="#404040" points="246.124,-745.886 247.369,-738.783 254.405,-737.2 253.159,-744.303 246.124,-745.886"/>
<text text-anchor="middle" x="247" y="-771.5" font-family="FreeSans" font-size="10.00"> +extra</text>
</g>
<!-- Node10 -->
<g id="node10" class="node"><title>Node10</title>
<g id="a_node10"><a xlink:href="classintptr__t.html" target="_top" xlink:title="{intptr_t\n||}">
<polygon fill="white" stroke="black" points="34.5,-1005.5 34.5,-1062.5 81.5,-1062.5 81.5,-1005.5 34.5,-1005.5"/>
<text text-anchor="middle" x="58" y="-1050.5" font-family="FreeSans" font-size="10.00">intptr_t</text>
<polyline fill="none" stroke="black" points="34.5,-1043.5 81.5,-1043.5 "/>
<text text-anchor="middle" x="58" y="-1031.5" font-family="FreeSans" font-size="10.00"> </text>
<polyline fill="none" stroke="black" points="34.5,-1024.5 81.5,-1024.5 "/>
<text text-anchor="middle" x="58" y="-1012.5" font-family="FreeSans" font-size="10.00"> </text>
</a>
</g>
</g>
<!-- Node10&#45;&gt;Node9 -->
<g id="edge10" class="edge"><title>Node10&#45;&gt;Node9</title>
<path fill="none" stroke="#404040" d="M81.7882,-1013.99C106.574,-994.191 146.607,-962.206 181.622,-934.23"/>
<polygon fill="none" stroke="#404040" points="181.974,-933.949 184.164,-927.079 191.349,-926.458 189.158,-933.329 181.974,-933.949"/>
<text text-anchor="middle" x="142.5" y="-977.5" font-family="FreeSans" font-size="10.00"> +index</text>
</g>
<!-- Node12 -->
<g id="node12" class="node"><title>Node12</title>
<g id="a_node12"><a xlink:href="classNif_1_1RecordPtrT.html" target="_top" xlink:title="{Nif::RecordPtrT\&lt; Controller \&gt;\n||+ RecordPtrT()\l+ read()\l+ post()\l+ getPtr()\l+ getPtr()\l+ get()\l+ get()\l+ operator&#45;\&gt;()\l+ operator&#45;\&gt;()\l+ empty()\l}">
<polygon fill="white" stroke="black" points="197,-1 197,-157 337,-157 337,-1 197,-1"/>
<text text-anchor="middle" x="267" y="-145" font-family="FreeSans" font-size="10.00">Nif::RecordPtrT&lt; Controller &gt;</text>
<polyline fill="none" stroke="black" points="197,-138 337,-138 "/>
<text text-anchor="middle" x="267" y="-126" font-family="FreeSans" font-size="10.00"> </text>
<polyline fill="none" stroke="black" points="197,-119 337,-119 "/>
<text text-anchor="start" x="205" y="-107" font-family="FreeSans" font-size="10.00">+ RecordPtrT()</text>
<text text-anchor="start" x="205" y="-96" font-family="FreeSans" font-size="10.00">+ read()</text>
<text text-anchor="start" x="205" y="-85" font-family="FreeSans" font-size="10.00">+ post()</text>
<text text-anchor="start" x="205" y="-74" font-family="FreeSans" font-size="10.00">+ getPtr()</text>
<text text-anchor="start" x="205" y="-63" font-family="FreeSans" font-size="10.00">+ getPtr()</text>
<text text-anchor="start" x="205" y="-52" font-family="FreeSans" font-size="10.00">+ get()</text>
<text text-anchor="start" x="205" y="-41" font-family="FreeSans" font-size="10.00">+ get()</text>
<text text-anchor="start" x="205" y="-30" font-family="FreeSans" font-size="10.00">+ operator&#45;&gt;()</text>
<text text-anchor="start" x="205" y="-19" font-family="FreeSans" font-size="10.00">+ operator&#45;&gt;()</text>
<text text-anchor="start" x="205" y="-8" font-family="FreeSans" font-size="10.00">+ empty()</text>
</a>
</g>
</g>
<!-- Node10&#45;&gt;Node12 -->
<g id="edge22" class="edge"><title>Node10&#45;&gt;Node12</title>
<path fill="none" stroke="#404040" d="M40.7551,-1005.31C23.6583,-975.173 0,-924.977 0,-878 0,-878 0,-878 0,-240 0,-152.618 106.524,-111.789 185.003,-93.566"/>
<polygon fill="none" stroke="#404040" points="185.134,-93.5369 190.124,-88.3312 196.849,-90.9351 191.859,-96.1409 185.134,-93.5369"/>
<text text-anchor="middle" x="15.5" y="-594.5" font-family="FreeSans" font-size="10.00"> +index</text>
</g>
<!-- Node10&#45;&gt;Node15 -->
<g id="edge17" class="edge"><title>Node10&#45;&gt;Node15</title>
<path fill="none" stroke="#404040" d="M61.2704,-1005.41C68.5131,-945.766 87.092,-800.495 110,-680 119.829,-628.302 133.096,-570.979 144.358,-524.891"/>
<polygon fill="none" stroke="#404040" points="144.386,-524.776 141.933,-517.995 147.25,-513.122 149.702,-519.903 144.386,-524.776"/>
<text text-anchor="middle" x="125.5" y="-712.5" font-family="FreeSans" font-size="10.00"> +index</text>
</g>
<!-- Node11 -->
<g id="node11" class="node"><title>Node11</title>
<polygon fill="white" stroke="#bfbfbf" points="148.5,-1005 148.5,-1063 177.5,-1063 177.5,-1005 148.5,-1005"/>
<polyline fill="none" stroke="#bfbfbf" points="148.5,-1043 177.5,-1043 "/>
<text text-anchor="middle" x="163" y="-1031" font-family="FreeSans" font-size="10.00"> </text>
<polyline fill="none" stroke="#bfbfbf" points="148.5,-1024 177.5,-1024 "/>
<text text-anchor="middle" x="163" y="-1012" font-family="FreeSans" font-size="10.00"> </text>
</g>
<!-- Node11&#45;&gt;Node9 -->
<g id="edge11" class="edge"><title>Node11&#45;&gt;Node9</title>
<path fill="none" stroke="#404040" d="M177.54,-1026.62C192.814,-1019.15 216.34,-1005.29 229,-986 232.909,-980.045 236.168,-973.544 238.883,-966.78"/>
<polygon fill="none" stroke="#404040" points="238.974,-966.52 237.193,-959.532 242.957,-955.2 244.739,-962.187 238.974,-966.52"/>
<text text-anchor="middle" x="248" y="-977.5" font-family="FreeSans" font-size="10.00"> &#45;@23</text>
</g>
<!-- Node11&#45;&gt;Node12 -->
<g id="edge23" class="edge"><title>Node11&#45;&gt;Node12</title>
<path fill="none" stroke="#404040" d="M159.026,-1004.94C150.363,-944.99 128.494,-800.097 103,-680 89.5699,-616.733 67,-603.677 67,-539 67,-539 67,-539 67,-240 67,-176.04 130.141,-133.442 185.468,-108.394"/>
<polygon fill="none" stroke="#404040" points="185.769,-108.262 189.67,-102.197 196.769,-103.465 192.868,-109.53 185.769,-108.262"/>
<text text-anchor="middle" x="102" y="-594.5" font-family="FreeSans" font-size="10.00"> &#45;@23</text>
</g>
<!-- Node11&#45;&gt;Node15 -->
<g id="edge19" class="edge"><title>Node11&#45;&gt;Node15</title>
<path fill="none" stroke="#404040" d="M163,-1005C163,-973.957 163,-922.401 163,-878 163,-878 163,-878 163,-596 163,-573.153 163.413,-548.477 163.973,-525.504"/>
<polygon fill="none" stroke="#404040" points="163.978,-525.298 160.134,-519.197 164.288,-513.302 168.132,-519.404 163.978,-525.298"/>
<text text-anchor="middle" x="176" y="-712.5" font-family="FreeSans" font-size="10.00"> &#45;@23</text>
</g>
<!-- Node12&#45;&gt;Node2 -->
<g id="edge12" class="edge"><title>Node12&#45;&gt;Node2</title>
<path fill="none" stroke="#404040" d="M267.45,-157.434C268.085,-266.664 269.224,-462.499 269.737,-550.724"/>
<polygon fill="none" stroke="#404040" points="269.738,-550.937 273.773,-556.914 269.808,-562.937 265.773,-556.96 269.738,-550.937"/>
<text text-anchor="middle" x="293.5" y="-313.5" font-family="FreeSans" font-size="10.00"> +controller</text>
</g>
<!-- Node12&#45;&gt;Node13 -->
<g id="edge20" class="edge"><title>Node12&#45;&gt;Node13</title>
<path fill="none" stroke="#404040" d="M283.514,-157.04C287.2,-167.768 291.65,-178.395 297,-188 298.709,-191.069 300.636,-194.101 302.709,-197.067"/>
<polygon fill="none" stroke="#404040" points="302.913,-197.332 309.741,-199.652 310.225,-206.847 303.397,-204.527 302.913,-197.332"/>
<text text-anchor="middle" x="310.5" y="-179.5" font-family="FreeSans" font-size="10.00"> +next</text>
</g>
<!-- Node13&#45;&gt;Node12 -->
<g id="edge13" class="edge"><title>Node13&#45;&gt;Node12</title>
<path fill="none" stroke="#404040" d="M338.233,-206.784C335.633,-196.678 332.244,-185.688 328,-176 326.847,-173.367 325.628,-170.724 324.354,-168.079"/>
<polygon fill="none" stroke="#404040" points="324.274,-167.922 317.989,-164.386 318.836,-157.224 325.121,-160.761 324.274,-167.922"/>
<text text-anchor="middle" x="343" y="-179.5" font-family="FreeSans" font-size="10.00"> +ptr</text>
</g>
<!-- Node14 -->
<g id="node14" class="node"><title>Node14</title>
<polygon fill="white" stroke="#bfbfbf" points="295.5,-406.5 295.5,-463.5 330.5,-463.5 330.5,-406.5 295.5,-406.5"/>
<text text-anchor="middle" x="313" y="-451.5" font-family="FreeSans" font-size="10.00">float</text>
<polyline fill="none" stroke="#bfbfbf" points="295.5,-444.5 330.5,-444.5 "/>
<text text-anchor="middle" x="313" y="-432.5" font-family="FreeSans" font-size="10.00"> </text>
<polyline fill="none" stroke="#bfbfbf" points="295.5,-425.5 330.5,-425.5 "/>
<text text-anchor="middle" x="313" y="-413.5" font-family="FreeSans" font-size="10.00"> </text>
</g>
<!-- Node14&#45;&gt;Node13 -->
<g id="edge15" class="edge"><title>Node14&#45;&gt;Node13</title>
<path fill="none" stroke="#404040" d="M317.585,-406.491C322.771,-375.376 331.295,-324.23 337.463,-287.222"/>
<polygon fill="none" stroke="#404040" points="337.483,-287.099 334.524,-280.523 339.456,-275.262 342.415,-281.838 337.483,-287.099"/>
<text text-anchor="middle" x="361.5" y="-330" font-family="FreeSans" font-size="10.00"> +frequency</text>
<text text-anchor="middle" x="361.5" y="-319" font-family="FreeSans" font-size="10.00">+timeStart</text>
<text text-anchor="middle" x="361.5" y="-308" font-family="FreeSans" font-size="10.00">+timeStop</text>
<text text-anchor="middle" x="361.5" y="-297" font-family="FreeSans" font-size="10.00">+phase</text>
</g>
<!-- Node15&#45;&gt;Node13 -->
<g id="edge16" class="edge"><title>Node15&#45;&gt;Node13</title>
<path fill="none" stroke="#404040" d="M178.206,-356.676C184.68,-334.251 194.892,-311.202 211,-294 233.312,-270.173 267.81,-257.119 296.215,-250.049"/>
<polygon fill="none" stroke="#404040" points="296.262,-250.039 301.223,-244.805 307.962,-247.372 303.001,-252.605 296.262,-250.039"/>
<text text-anchor="middle" x="228" y="-313.5" font-family="FreeSans" font-size="10.00"> +target</text>
</g>
</g>
</svg>
