<?xml version="1.0" encoding="UTF-8" standalone="no"?>
<!DOCTYPE svg PUBLIC "-//W3C//DTD SVG 1.1//EN"
 "http://www.w3.org/Graphics/SVG/1.1/DTD/svg11.dtd">
<!-- Generated by graphviz version 2.36.0 (20140111.2315)
 -->
<!-- Title: MWClass::Npc::copyToCellImpl Pages: 1 -->
<svg width="1274pt" height="199pt"
 viewBox="0.00 0.00 1274.00 199.00" xmlns="http://www.w3.org/2000/svg" xmlns:xlink="http://www.w3.org/1999/xlink">
<g id="graph0" class="graph" transform="scale(1 1) rotate(0) translate(4 195)">
<title>MWClass::Npc::copyToCellImpl</title>
<polygon fill="white" stroke="none" points="-4,4 -4,-195 1270,-195 1270,4 -4,4"/>
<!-- Node1 -->
<g id="node1" class="node"><title>Node1</title>
<polygon fill="#bfbfbf" stroke="black" points="0,-122.5 0,-141.5 150,-141.5 150,-122.5 0,-122.5"/>
<text text-anchor="middle" x="75" y="-129.5" font-family="FreeSans" font-size="10.00">MWClass::Npc::copyToCellImpl</text>
</g>
<!-- Node2 -->
<g id="node2" class="node"><title>Node2</title>
<g id="a_node2"><a xlink:href="classMWWorld_1_1ConstPtr.html#ae3aece4775b5f86d04af63ce0de36cbd" target="_top" xlink:title="MWWorld::ConstPtr::get">
<polygon fill="white" stroke="black" points="186.5,-155.5 186.5,-174.5 305.5,-174.5 305.5,-155.5 186.5,-155.5"/>
<text text-anchor="middle" x="246" y="-162.5" font-family="FreeSans" font-size="10.00">MWWorld::ConstPtr::get</text>
</a>
</g>
</g>
<!-- Node1&#45;&gt;Node2 -->
<g id="edge1" class="edge"><title>Node1&#45;&gt;Node2</title>
<path fill="none" stroke="midnightblue" d="M124.882,-141.545C144.063,-145.29 166.241,-149.621 186.279,-153.534"/>
<polygon fill="midnightblue" stroke="midnightblue" points="185.743,-156.995 196.228,-155.476 187.084,-150.125 185.743,-156.995"/>
</g>
<!-- Node4 -->
<g id="node4" class="node"><title>Node4</title>
<g id="a_node4"><a xlink:href="classMWWorld_1_1CellStore.html#a0e5bbb3091cd2b837dd9c8baaa9c56de" target="_top" xlink:title="MWWorld::CellStore\l::insert">
<polygon fill="white" stroke="black" points="194.5,-84 194.5,-114 297.5,-114 297.5,-84 194.5,-84"/>
<text text-anchor="start" x="202.5" y="-102" font-family="FreeSans" font-size="10.00">MWWorld::CellStore</text>
<text text-anchor="middle" x="246" y="-91" font-family="FreeSans" font-size="10.00">::insert</text>
</a>
</g>
</g>
<!-- Node1&#45;&gt;Node4 -->
<g id="edge3" class="edge"><title>Node1&#45;&gt;Node4</title>
<path fill="none" stroke="midnightblue" d="M124.882,-122.455C143.477,-118.824 164.889,-114.643 184.438,-110.826"/>
<polygon fill="midnightblue" stroke="midnightblue" points="185.322,-114.219 194.466,-108.868 183.981,-107.349 185.322,-114.219"/>
</g>
<!-- Node3 -->
<g id="node3" class="node"><title>Node3</title>
<g id="a_node3"><a xlink:href="classMWWorld_1_1ConstPtr.html#ace447c99102c91a088f5e51c9664f950" target="_top" xlink:title="MWWorld::ConstPtr::\lgetTypeName">
<polygon fill="white" stroke="black" points="344.5,-161 344.5,-191 449.5,-191 449.5,-161 344.5,-161"/>
<text text-anchor="start" x="352.5" y="-179" font-family="FreeSans" font-size="10.00">MWWorld::ConstPtr::</text>
<text text-anchor="middle" x="397" y="-168" font-family="FreeSans" font-size="10.00">getTypeName</text>
</a>
</g>
</g>
<!-- Node2&#45;&gt;Node3 -->
<g id="edge2" class="edge"><title>Node2&#45;&gt;Node3</title>
<path fill="none" stroke="midnightblue" d="M305.889,-169.347C315.208,-170.035 324.868,-170.749 334.25,-171.441"/>
<polygon fill="midnightblue" stroke="midnightblue" points="334.062,-174.937 344.292,-172.183 334.577,-167.956 334.062,-174.937"/>
</g>
<!-- Node5 -->
<g id="node5" class="node"><title>Node5</title>
<g id="a_node5"><a xlink:href="bsatool_8cpp.html#a6e7f1179c5854ac3883506e79162011b" target="_top" xlink:title="list">
<polygon fill="white" stroke="black" points="382.5,-122.5 382.5,-141.5 411.5,-141.5 411.5,-122.5 382.5,-122.5"/>
<text text-anchor="middle" x="397" y="-129.5" font-family="FreeSans" font-size="10.00">list</text>
</a>
</g>
</g>
<!-- Node4&#45;&gt;Node5 -->
<g id="edge4" class="edge"><title>Node4&#45;&gt;Node5</title>
<path fill="none" stroke="midnightblue" d="M297.861,-110.264C323.158,-115.867 352.512,-122.369 372.479,-126.791"/>
<polygon fill="midnightblue" stroke="midnightblue" points="371.737,-130.211 382.257,-128.956 373.25,-123.377 371.737,-130.211"/>
</g>
<!-- Node7 -->
<g id="node7" class="node"><title>Node7</title>
<g id="a_node7"><a xlink:href="structMWWorld_1_1CellRefList.html#a7e2665781e068bfdf31b325822f1fe76" target="_top" xlink:title="MWWorld::CellRefList\l::insert">
<polygon fill="white" stroke="black" points="342,-73 342,-103 452,-103 452,-73 342,-73"/>
<text text-anchor="start" x="350" y="-91" font-family="FreeSans" font-size="10.00">MWWorld::CellRefList</text>
<text text-anchor="middle" x="397" y="-80" font-family="FreeSans" font-size="10.00">::insert</text>
</a>
</g>
</g>
<!-- Node4&#45;&gt;Node7 -->
<g id="edge6" class="edge"><title>Node4&#45;&gt;Node7</title>
<path fill="none" stroke="midnightblue" d="M297.861,-95.2452C308.704,-94.4446 320.293,-93.5891 331.569,-92.7566"/>
<polygon fill="midnightblue" stroke="midnightblue" points="332.091,-96.2278 341.806,-92.0009 331.575,-89.2468 332.091,-96.2278"/>
</g>
<!-- Node8 -->
<g id="node8" class="node"><title>Node8</title>
<g id="a_node8"><a xlink:href="classMWWorld_1_1CellStore.html#adac471f571fbc735f6223da79448e159" target="_top" xlink:title="Repopulate mMergedRefs. ">
<polygon fill="white" stroke="black" points="345.5,-24 345.5,-54 448.5,-54 448.5,-24 345.5,-24"/>
<text text-anchor="start" x="353.5" y="-42" font-family="FreeSans" font-size="10.00">MWWorld::CellStore</text>
<text text-anchor="middle" x="397" y="-31" font-family="FreeSans" font-size="10.00">::updateMergedRefs</text>
</a>
</g>
</g>
<!-- Node4&#45;&gt;Node8 -->
<g id="edge7" class="edge"><title>Node4&#45;&gt;Node8</title>
<path fill="none" stroke="midnightblue" d="M284.599,-83.8595C304.261,-75.9418 328.511,-66.1767 349.36,-57.7812"/>
<polygon fill="midnightblue" stroke="midnightblue" points="350.703,-61.0137 358.671,-54.0317 348.088,-54.5204 350.703,-61.0137"/>
</g>
<!-- Node6 -->
<g id="node6" class="node"><title>Node6</title>
<g id="a_node6"><a xlink:href="classBsa_1_1BSAFile.html#ad7972a16602af590be0ed8401b9413c2" target="_top" xlink:title="Bsa::BSAFile::getList">
<polygon fill="white" stroke="black" points="492.5,-122.5 492.5,-141.5 599.5,-141.5 599.5,-122.5 492.5,-122.5"/>
<text text-anchor="middle" x="546" y="-129.5" font-family="FreeSans" font-size="10.00">Bsa::BSAFile::getList</text>
</a>
</g>
</g>
<!-- Node5&#45;&gt;Node6 -->
<g id="edge5" class="edge"><title>Node5&#45;&gt;Node6</title>
<path fill="none" stroke="midnightblue" d="M411.566,-132C427.692,-132 455.728,-132 481.952,-132"/>
<polygon fill="midnightblue" stroke="midnightblue" points="482.267,-135.5 492.267,-132 482.267,-128.5 482.267,-135.5"/>
</g>
<!-- Node9 -->
<g id="node9" class="node"><title>Node9</title>
<g id="a_node9"><a xlink:href="classMWWorld_1_1CellStore.html#a392348bc44d7f28c24a869e8ff157723" target="_top" xlink:title="MWWorld::CellStore\l::forEachInternal">
<polygon fill="white" stroke="black" points="494.5,-49 494.5,-79 597.5,-79 597.5,-49 494.5,-49"/>
<text text-anchor="start" x="502.5" y="-67" font-family="FreeSans" font-size="10.00">MWWorld::CellStore</text>
<text text-anchor="middle" x="546" y="-56" font-family="FreeSans" font-size="10.00">::forEachInternal</text>
</a>
</g>
</g>
<!-- Node8&#45;&gt;Node9 -->
<g id="edge8" class="edge"><title>Node8&#45;&gt;Node9</title>
<path fill="none" stroke="midnightblue" d="M448.589,-47.6036C460.138,-49.5677 472.526,-51.6745 484.445,-53.7015"/>
<polygon fill="midnightblue" stroke="midnightblue" points="483.872,-57.1543 494.318,-55.3806 485.046,-50.2534 483.872,-57.1543"/>
</g>
<!-- Node16 -->
<g id="node16" class="node"><title>Node16</title>
<g id="a_node16"><a xlink:href="structMWWorld_1_1MergeVisitor.html#abfa4488084b470eb5224945fcb8c4535" target="_top" xlink:title="MWWorld::MergeVisitor\l::merge">
<polygon fill="white" stroke="black" points="488,-0 488,-30 604,-30 604,-0 488,-0"/>
<text text-anchor="start" x="496" y="-18" font-family="FreeSans" font-size="10.00">MWWorld::MergeVisitor</text>
<text text-anchor="middle" x="546" y="-7" font-family="FreeSans" font-size="10.00">::merge</text>
</a>
</g>
</g>
<!-- Node8&#45;&gt;Node16 -->
<g id="edge15" class="edge"><title>Node8&#45;&gt;Node16</title>
<path fill="none" stroke="midnightblue" d="M448.589,-30.7406C457.958,-29.2109 467.879,-27.5912 477.654,-25.9953"/>
<polygon fill="midnightblue" stroke="midnightblue" points="478.453,-29.4113 487.758,-24.3456 477.325,-22.5027 478.453,-29.4113"/>
</g>
<!-- Node10 -->
<g id="node10" class="node"><title>Node10</title>
<g id="a_node10"><a xlink:href="classMWWorld_1_1CellStore.html#a14f1e9420bb109213356b124e5166d31" target="_top" xlink:title="MWWorld::CellStore\l::forEachImp">
<polygon fill="white" stroke="black" points="640.5,-49 640.5,-79 743.5,-79 743.5,-49 640.5,-49"/>
<text text-anchor="start" x="648.5" y="-67" font-family="FreeSans" font-size="10.00">MWWorld::CellStore</text>
<text text-anchor="middle" x="692" y="-56" font-family="FreeSans" font-size="10.00">::forEachImp</text>
</a>
</g>
</g>
<!-- Node9&#45;&gt;Node10 -->
<g id="edge9" class="edge"><title>Node9&#45;&gt;Node10</title>
<path fill="none" stroke="midnightblue" d="M597.769,-64C608.201,-64 619.285,-64 630.034,-64"/>
<polygon fill="midnightblue" stroke="midnightblue" points="630.204,-67.5001 640.204,-64 630.204,-60.5001 630.204,-67.5001"/>
</g>
<!-- Node11 -->
<g id="node11" class="node"><title>Node11</title>
<g id="a_node11"><a xlink:href="classMWWorld_1_1CellStore.html#ab706aebc06b5f99667203c8dcc670369" target="_top" xlink:title="MWWorld::CellStore\l::isAccessible">
<polygon fill="white" stroke="black" points="780.5,-49 780.5,-79 883.5,-79 883.5,-49 780.5,-49"/>
<text text-anchor="start" x="788.5" y="-67" font-family="FreeSans" font-size="10.00">MWWorld::CellStore</text>
<text text-anchor="middle" x="832" y="-56" font-family="FreeSans" font-size="10.00">::isAccessible</text>
</a>
</g>
</g>
<!-- Node10&#45;&gt;Node11 -->
<g id="edge10" class="edge"><title>Node10&#45;&gt;Node11</title>
<path fill="none" stroke="midnightblue" d="M743.603,-64C752.228,-64 761.266,-64 770.124,-64"/>
<polygon fill="midnightblue" stroke="midnightblue" points="770.404,-67.5001 780.404,-64 770.404,-60.5001 770.404,-67.5001"/>
</g>
<!-- Node12 -->
<g id="node12" class="node"><title>Node12</title>
<g id="a_node12"><a xlink:href="classMWWorld_1_1RefData.html#abfb41213bbf1459bcb511783bb654f8d" target="_top" xlink:title="Returns true if the object was deleted by a content file. ">
<polygon fill="white" stroke="black" points="930.5,-93 930.5,-123 1073.5,-123 1073.5,-93 930.5,-93"/>
<text text-anchor="start" x="938.5" y="-111" font-family="FreeSans" font-size="10.00">MWWorld::RefData::isDeleted</text>
<text text-anchor="middle" x="1002" y="-100" font-family="FreeSans" font-size="10.00">ByContentFile</text>
</a>
</g>
</g>
<!-- Node11&#45;&gt;Node12 -->
<g id="edge11" class="edge"><title>Node11&#45;&gt;Node12</title>
<path fill="none" stroke="midnightblue" d="M883.861,-77.3209C899.604,-81.4439 917.196,-86.0513 933.864,-90.4168"/>
<polygon fill="midnightblue" stroke="midnightblue" points="932.99,-93.8058 943.55,-92.9536 934.763,-87.0341 932.99,-93.8058"/>
</g>
<!-- Node13 -->
<g id="node13" class="node"><title>Node13</title>
<g id="a_node13"><a xlink:href="classMWWorld_1_1CellRef.html#abc0b42ed0ef6655f90582a4ca3fb5580" target="_top" xlink:title="Does the RefNum have a content file? ">
<polygon fill="white" stroke="black" points="920,-54.5 920,-73.5 1084,-73.5 1084,-54.5 920,-54.5"/>
<text text-anchor="middle" x="1002" y="-61.5" font-family="FreeSans" font-size="10.00">MWWorld::CellRef::hasContentFile</text>
</a>
</g>
</g>
<!-- Node11&#45;&gt;Node13 -->
<g id="edge12" class="edge"><title>Node11&#45;&gt;Node13</title>
<path fill="none" stroke="midnightblue" d="M883.861,-64C892.141,-64 900.933,-64 909.832,-64"/>
<polygon fill="midnightblue" stroke="midnightblue" points="909.905,-67.5001 919.905,-64 909.905,-60.5001 909.905,-67.5001"/>
</g>
<!-- Node15 -->
<g id="node15" class="node"><title>Node15</title>
<g id="a_node15"><a xlink:href="classMWWorld_1_1RefData.html#aef6884db8233415bc1a322ea531db88d" target="_top" xlink:title="MWWorld::RefData::getCount">
<polygon fill="white" stroke="black" points="931,-16.5 931,-35.5 1073,-35.5 1073,-16.5 931,-16.5"/>
<text text-anchor="middle" x="1002" y="-23.5" font-family="FreeSans" font-size="10.00">MWWorld::RefData::getCount</text>
</a>
</g>
</g>
<!-- Node11&#45;&gt;Node15 -->
<g id="edge14" class="edge"><title>Node11&#45;&gt;Node15</title>
<path fill="none" stroke="midnightblue" d="M883.861,-52.4956C904.444,-47.84 928.188,-42.4693 948.895,-37.7856"/>
<polygon fill="midnightblue" stroke="midnightblue" points="949.808,-41.1676 958.789,-35.5476 948.264,-34.3401 949.808,-41.1676"/>
</g>
<!-- Node14 -->
<g id="node14" class="node"><title>Node14</title>
<g id="a_node14"><a xlink:href="structESM_1_1RefNum.html#a2b87d84313f4b83bdcb1ce9efed775c6" target="_top" xlink:title="ESM::RefNum::hasContentFile">
<polygon fill="white" stroke="black" points="1120,-54.5 1120,-73.5 1266,-73.5 1266,-54.5 1120,-54.5"/>
<text text-anchor="middle" x="1193" y="-61.5" font-family="FreeSans" font-size="10.00">ESM::RefNum::hasContentFile</text>
</a>
</g>
</g>
<!-- Node13&#45;&gt;Node14 -->
<g id="edge13" class="edge"><title>Node13&#45;&gt;Node14</title>
<path fill="none" stroke="midnightblue" d="M1084.25,-64C1092.64,-64 1101.18,-64 1109.58,-64"/>
<polygon fill="midnightblue" stroke="midnightblue" points="1109.76,-67.5001 1119.76,-64 1109.76,-60.5001 1109.76,-67.5001"/>
</g>
</g>
</svg>
