<?xml version="1.0" encoding="UTF-8" standalone="no"?>
<!DOCTYPE svg PUBLIC "-//W3C//DTD SVG 1.1//EN"
 "http://www.w3.org/Graphics/SVG/1.1/DTD/svg11.dtd">
<!-- Generated by graphviz version 2.36.0 (20140111.2315)
 -->
<!-- Title: MWGui::SaveGameDialog Pages: 1 -->
<svg width="1213pt" height="1350pt"
 viewBox="0.00 0.00 1213.00 1350.00" xmlns="http://www.w3.org/2000/svg" xmlns:xlink="http://www.w3.org/1999/xlink">
<g id="graph0" class="graph" transform="scale(1 1) rotate(0) translate(4 1346)">
<title>MWGui::SaveGameDialog</title>
<polygon fill="white" stroke="none" points="-4,4 -4,-1346 1209,-1346 1209,4 -4,4"/>
<!-- Node1 -->
<g id="node1" class="node"><title>Node1</title>
<polygon fill="#bfbfbf" stroke="black" points="377.5,-0.5 377.5,-255.5 506.5,-255.5 506.5,-0.5 377.5,-0.5"/>
<text text-anchor="middle" x="442" y="-243.5" font-family="FreeSans" font-size="10.00">MWGui::SaveGameDialog</text>
<polyline fill="none" stroke="black" points="377.5,-236.5 506.5,-236.5 "/>
<text text-anchor="middle" x="442" y="-224.5" font-family="FreeSans" font-size="10.00"> </text>
<polyline fill="none" stroke="black" points="377.5,-217.5 506.5,-217.5 "/>
<text text-anchor="start" x="385.5" y="-205.5" font-family="FreeSans" font-size="10.00">+ SaveGameDialog()</text>
<text text-anchor="start" x="385.5" y="-194.5" font-family="FreeSans" font-size="10.00">+ open()</text>
<text text-anchor="start" x="385.5" y="-183.5" font-family="FreeSans" font-size="10.00">+ exit()</text>
<text text-anchor="start" x="385.5" y="-172.5" font-family="FreeSans" font-size="10.00">+ setLoadOrSave()</text>
<text text-anchor="start" x="385.5" y="-161.5" font-family="FreeSans" font-size="10.00">&#45; confirmDeleteSave()</text>
<text text-anchor="start" x="385.5" y="-150.5" font-family="FreeSans" font-size="10.00">&#45; onKeyButtonPressed()</text>
<text text-anchor="start" x="385.5" y="-139.5" font-family="FreeSans" font-size="10.00">&#45; onCancelButtonClicked()</text>
<text text-anchor="start" x="385.5" y="-128.5" font-family="FreeSans" font-size="10.00">&#45; onOkButtonClicked()</text>
<text text-anchor="start" x="385.5" y="-117.5" font-family="FreeSans" font-size="10.00">&#45; onDeleteButtonClicked()</text>
<text text-anchor="start" x="385.5" y="-106.5" font-family="FreeSans" font-size="10.00">&#45; onCharacterSelected()</text>
<text text-anchor="start" x="385.5" y="-95.5" font-family="FreeSans" font-size="10.00">&#45; onSlotSelected()</text>
<text text-anchor="start" x="385.5" y="-84.5" font-family="FreeSans" font-size="10.00">&#45; onSlotActivated()</text>
<text text-anchor="start" x="385.5" y="-73.5" font-family="FreeSans" font-size="10.00">&#45; onSlotMouseClick()</text>
<text text-anchor="start" x="385.5" y="-62.5" font-family="FreeSans" font-size="10.00">&#45; onDeleteSlotConfirmed()</text>
<text text-anchor="start" x="385.5" y="-51.5" font-family="FreeSans" font-size="10.00">&#45; onEditSelectAccept()</text>
<text text-anchor="start" x="385.5" y="-40.5" font-family="FreeSans" font-size="10.00">&#45; onSaveNameChanged()</text>
<text text-anchor="start" x="385.5" y="-29.5" font-family="FreeSans" font-size="10.00">&#45; onConfirmationGiven()</text>
<text text-anchor="start" x="385.5" y="-18.5" font-family="FreeSans" font-size="10.00">&#45; accept()</text>
<text text-anchor="start" x="385.5" y="-7.5" font-family="FreeSans" font-size="10.00">&#45; fillSaveList()</text>
</g>
<!-- Node2 -->
<g id="node2" class="node"><title>Node2</title>
<g id="a_node2"><a xlink:href="classMWGui_1_1WindowModal.html" target="_top" xlink:title="{MWGui::WindowModal\n||+ WindowModal()\l+ open()\l+ close()\l+ exit()\l}">
<polygon fill="white" stroke="black" points="38.5,-365 38.5,-455 151.5,-455 151.5,-365 38.5,-365"/>
<text text-anchor="middle" x="95" y="-443" font-family="FreeSans" font-size="10.00">MWGui::WindowModal</text>
<polyline fill="none" stroke="black" points="38.5,-436 151.5,-436 "/>
<text text-anchor="middle" x="95" y="-424" font-family="FreeSans" font-size="10.00"> </text>
<polyline fill="none" stroke="black" points="38.5,-417 151.5,-417 "/>
<text text-anchor="start" x="46.5" y="-405" font-family="FreeSans" font-size="10.00">+ WindowModal()</text>
<text text-anchor="start" x="46.5" y="-394" font-family="FreeSans" font-size="10.00">+ open()</text>
<text text-anchor="start" x="46.5" y="-383" font-family="FreeSans" font-size="10.00">+ close()</text>
<text text-anchor="start" x="46.5" y="-372" font-family="FreeSans" font-size="10.00">+ exit()</text>
</a>
</g>
</g>
<!-- Node2&#45;&gt;Node1 -->
<g id="edge1" class="edge"><title>Node2&#45;&gt;Node1</title>
<path fill="none" stroke="midnightblue" d="M135.053,-356.923C143.433,-346.517 152.354,-335.784 161,-326 182.436,-301.743 186.805,-294.325 212,-274 264.354,-231.767 329.688,-191.623 377.331,-164.328"/>
<polygon fill="none" stroke="midnightblue" points="132.271,-354.797 128.764,-364.795 137.74,-359.167 132.271,-354.797"/>
</g>
<!-- Node3 -->
<g id="node3" class="node"><title>Node3</title>
<g id="a_node3"><a xlink:href="classMWGui_1_1WindowBase.html" target="_top" xlink:title="{MWGui::WindowBase\n||+ WindowBase()\l+ open()\l+ close()\l+ exit()\l+ setVisible()\l+ isVisible()\l+ center()\l}">
<polygon fill="white" stroke="black" points="74.5,-542.5 74.5,-665.5 183.5,-665.5 183.5,-542.5 74.5,-542.5"/>
<text text-anchor="middle" x="129" y="-653.5" font-family="FreeSans" font-size="10.00">MWGui::WindowBase</text>
<polyline fill="none" stroke="black" points="74.5,-646.5 183.5,-646.5 "/>
<text text-anchor="middle" x="129" y="-634.5" font-family="FreeSans" font-size="10.00"> </text>
<polyline fill="none" stroke="black" points="74.5,-627.5 183.5,-627.5 "/>
<text text-anchor="start" x="82.5" y="-615.5" font-family="FreeSans" font-size="10.00">+ WindowBase()</text>
<text text-anchor="start" x="82.5" y="-604.5" font-family="FreeSans" font-size="10.00">+ open()</text>
<text text-anchor="start" x="82.5" y="-593.5" font-family="FreeSans" font-size="10.00">+ close()</text>
<text text-anchor="start" x="82.5" y="-582.5" font-family="FreeSans" font-size="10.00">+ exit()</text>
<text text-anchor="start" x="82.5" y="-571.5" font-family="FreeSans" font-size="10.00">+ setVisible()</text>
<text text-anchor="start" x="82.5" y="-560.5" font-family="FreeSans" font-size="10.00">+ isVisible()</text>
<text text-anchor="start" x="82.5" y="-549.5" font-family="FreeSans" font-size="10.00">+ center()</text>
</a>
</g>
</g>
<!-- Node3&#45;&gt;Node2 -->
<g id="edge2" class="edge"><title>Node3&#45;&gt;Node2</title>
<path fill="none" stroke="midnightblue" d="M116.453,-532.148C111.892,-506.388 106.87,-478.03 102.832,-455.229"/>
<polygon fill="none" stroke="midnightblue" points="113.052,-533.014 118.242,-542.25 119.945,-531.793 113.052,-533.014"/>
</g>
<!-- Node4 -->
<g id="node4" class="node"><title>Node4</title>
<g id="a_node4"><a xlink:href="classMWGui_1_1Layout.html" target="_top" xlink:title="{MWGui::Layout\n||+ Layout()\l+ ~Layout()\l+ getWidget()\l+ getWidget()\l+ setCoord()\l+ setVisible()\l+ setText()\l+ setTitle()\l&#45; initialise()\l&#45; shutdown()\l}">
<polygon fill="white" stroke="black" points="92,-715 92,-871 174,-871 174,-715 92,-715"/>
<text text-anchor="middle" x="133" y="-859" font-family="FreeSans" font-size="10.00">MWGui::Layout</text>
<polyline fill="none" stroke="black" points="92,-852 174,-852 "/>
<text text-anchor="middle" x="133" y="-840" font-family="FreeSans" font-size="10.00"> </text>
<polyline fill="none" stroke="black" points="92,-833 174,-833 "/>
<text text-anchor="start" x="100" y="-821" font-family="FreeSans" font-size="10.00">+ Layout()</text>
<text text-anchor="start" x="100" y="-810" font-family="FreeSans" font-size="10.00">+ ~Layout()</text>
<text text-anchor="start" x="100" y="-799" font-family="FreeSans" font-size="10.00">+ getWidget()</text>
<text text-anchor="start" x="100" y="-788" font-family="FreeSans" font-size="10.00">+ getWidget()</text>
<text text-anchor="start" x="100" y="-777" font-family="FreeSans" font-size="10.00">+ setCoord()</text>
<text text-anchor="start" x="100" y="-766" font-family="FreeSans" font-size="10.00">+ setVisible()</text>
<text text-anchor="start" x="100" y="-755" font-family="FreeSans" font-size="10.00">+ setText()</text>
<text text-anchor="start" x="100" y="-744" font-family="FreeSans" font-size="10.00">+ setTitle()</text>
<text text-anchor="start" x="100" y="-733" font-family="FreeSans" font-size="10.00">&#45; initialise()</text>
<text text-anchor="start" x="100" y="-722" font-family="FreeSans" font-size="10.00">&#45; shutdown()</text>
</a>
</g>
</g>
<!-- Node4&#45;&gt;Node3 -->
<g id="edge3" class="edge"><title>Node4&#45;&gt;Node3</title>
<path fill="none" stroke="midnightblue" d="M131.135,-704.799C130.852,-691.576 130.565,-678.184 130.298,-665.687"/>
<polygon fill="none" stroke="midnightblue" points="127.637,-704.937 131.35,-714.86 134.635,-704.788 127.637,-704.937"/>
</g>
<!-- Node5 -->
<g id="node5" class="node"><title>Node5</title>
<polygon fill="white" stroke="#bfbfbf" points="-0.5,-926.5 -0.5,-983.5 52.5,-983.5 52.5,-926.5 -0.5,-926.5"/>
<text text-anchor="middle" x="26" y="-971.5" font-family="FreeSans" font-size="10.00">Widget *</text>
<polyline fill="none" stroke="#bfbfbf" points="-0.5,-964.5 52.5,-964.5 "/>
<text text-anchor="middle" x="26" y="-952.5" font-family="FreeSans" font-size="10.00"> </text>
<polyline fill="none" stroke="#bfbfbf" points="-0.5,-945.5 52.5,-945.5 "/>
<text text-anchor="middle" x="26" y="-933.5" font-family="FreeSans" font-size="10.00"> </text>
</g>
<!-- Node5&#45;&gt;Node1 -->
<g id="edge8" class="edge"><title>Node5&#45;&gt;Node1</title>
<path fill="none" stroke="#404040" d="M21.5431,-926.335C16.8088,-894.504 10,-840.62 10,-794 10,-794 10,-794 10,-409 10,-371.157 5.34077,-355.535 29,-326 114.494,-219.273 271.747,-167.004 365.6,-144.212"/>
<polygon fill="none" stroke="#404040" points="365.606,-144.21 370.524,-138.936 377.284,-141.447 372.366,-146.721 365.606,-144.21"/>
<text text-anchor="middle" x="32.5" y="-601.5" font-family="FreeSans" font-size="10.00"> &#45;mSpacer</text>
</g>
<!-- Node5&#45;&gt;Node4 -->
<g id="edge4" class="edge"><title>Node5&#45;&gt;Node4</title>
<path fill="none" stroke="#404040" d="M40.5079,-926.465C46.8003,-914.998 54.4478,-901.664 62,-890 69.0732,-879.076 76.9473,-867.736 84.804,-856.841"/>
<polygon fill="none" stroke="#404040" points="84.9203,-856.682 85.2238,-849.477 91.991,-846.986 91.6876,-854.191 84.9203,-856.682"/>
<text text-anchor="middle" x="96" y="-893.5" font-family="FreeSans" font-size="10.00"> +mMainWidget</text>
</g>
<!-- Node6 -->
<g id="node6" class="node"><title>Node6</title>
<polygon fill="white" stroke="#bfbfbf" points="90.5,-926.5 90.5,-983.5 177.5,-983.5 177.5,-926.5 90.5,-926.5"/>
<text text-anchor="middle" x="134" y="-971.5" font-family="FreeSans" font-size="10.00">VectorWidgetPtr</text>
<polyline fill="none" stroke="#bfbfbf" points="90.5,-964.5 177.5,-964.5 "/>
<text text-anchor="middle" x="134" y="-952.5" font-family="FreeSans" font-size="10.00"> </text>
<polyline fill="none" stroke="#bfbfbf" points="90.5,-945.5 177.5,-945.5 "/>
<text text-anchor="middle" x="134" y="-933.5" font-family="FreeSans" font-size="10.00"> </text>
</g>
<!-- Node6&#45;&gt;Node4 -->
<g id="edge5" class="edge"><title>Node6&#45;&gt;Node4</title>
<path fill="none" stroke="#404040" d="M133.828,-926.495C133.751,-914.178 133.656,-898.887 133.557,-883.118"/>
<polygon fill="none" stroke="#404040" points="133.556,-883.008 129.519,-877.033 133.481,-871.008 137.519,-876.983 133.556,-883.008"/>
<text text-anchor="middle" x="176.5" y="-893.5" font-family="FreeSans" font-size="10.00"> #mListWindowRoot</text>
</g>
<!-- Node7 -->
<g id="node7" class="node"><title>Node7</title>
<g id="a_node7"><a xlink:title="STL class. ">
<polygon fill="white" stroke="#bfbfbf" points="495.5,-1176.5 495.5,-1233.5 552.5,-1233.5 552.5,-1176.5 495.5,-1176.5"/>
<text text-anchor="middle" x="524" y="-1221.5" font-family="FreeSans" font-size="10.00">std::string</text>
<polyline fill="none" stroke="#bfbfbf" points="495.5,-1214.5 552.5,-1214.5 "/>
<text text-anchor="middle" x="524" y="-1202.5" font-family="FreeSans" font-size="10.00"> </text>
<polyline fill="none" stroke="#bfbfbf" points="495.5,-1195.5 552.5,-1195.5 "/>
<text text-anchor="middle" x="524" y="-1183.5" font-family="FreeSans" font-size="10.00"> </text>
</a>
</g>
</g>
<!-- Node7&#45;&gt;Node4 -->
<g id="edge6" class="edge"><title>Node7&#45;&gt;Node4</title>
<path fill="none" stroke="#404040" d="M495.045,-1181.4C471.12,-1162.24 436.708,-1133.57 409,-1106 319.188,-1016.65 307.676,-984.233 223,-890 210.098,-875.642 195.909,-860.305 182.688,-846.198"/>
<polygon fill="none" stroke="#404040" points="182.381,-845.872 175.357,-844.24 174.163,-837.128 181.187,-838.76 182.381,-845.872"/>
<text text-anchor="middle" x="373" y="-1022" font-family="FreeSans" font-size="10.00"> #mLayoutName</text>
<text text-anchor="middle" x="373" y="-1011" font-family="FreeSans" font-size="10.00">#mPrefix</text>
</g>
<!-- Node21 -->
<g id="node21" class="node"><title>Node21</title>
<g id="a_node21"><a xlink:href="structESM_1_1SavedGame.html" target="_top" xlink:title="{ESM::SavedGame\n||+ load()\l+ save()\l}">
<polygon fill="white" stroke="black" points="817.5,-921 817.5,-989 912.5,-989 912.5,-921 817.5,-921"/>
<text text-anchor="middle" x="865" y="-977" font-family="FreeSans" font-size="10.00">ESM::SavedGame</text>
<polyline fill="none" stroke="black" points="817.5,-970 912.5,-970 "/>
<text text-anchor="middle" x="865" y="-958" font-family="FreeSans" font-size="10.00"> </text>
<polyline fill="none" stroke="black" points="817.5,-951 912.5,-951 "/>
<text text-anchor="start" x="825.5" y="-939" font-family="FreeSans" font-size="10.00">+ load()</text>
<text text-anchor="start" x="825.5" y="-928" font-family="FreeSans" font-size="10.00">+ save()</text>
</a>
</g>
</g>
<!-- Node7&#45;&gt;Node21 -->
<g id="edge30" class="edge"><title>Node7&#45;&gt;Node21</title>
<path fill="none" stroke="#404040" d="M516.564,-1176.41C509.12,-1142.07 502.658,-1083.63 533,-1048 611.539,-955.783 686.57,-1029.64 806.072,-990.037"/>
<polygon fill="none" stroke="#404040" points="806.096,-990.028 810.399,-984.241 817.396,-985.987 813.093,-991.774 806.096,-990.028"/>
<text text-anchor="middle" x="578.5" y="-1096.5" font-family="FreeSans" font-size="10.00"> +mPlayerCell</text>
<text text-anchor="middle" x="578.5" y="-1085.5" font-family="FreeSans" font-size="10.00">+mPlayerName</text>
<text text-anchor="middle" x="578.5" y="-1074.5" font-family="FreeSans" font-size="10.00">+mDescription</text>
<text text-anchor="middle" x="578.5" y="-1063.5" font-family="FreeSans" font-size="10.00">+mPlayerClassId</text>
<text text-anchor="middle" x="578.5" y="-1052.5" font-family="FreeSans" font-size="10.00">+mPlayerClassName</text>
</g>
<!-- Node28 -->
<g id="node28" class="node"><title>Node28</title>
<polygon fill="white" stroke="#bfbfbf" points="633.5,-1048.5 633.5,-1105.5 750.5,-1105.5 750.5,-1048.5 633.5,-1048.5"/>
<text text-anchor="middle" x="692" y="-1093.5" font-family="FreeSans" font-size="10.00">std::vector&lt; std::string &gt;</text>
<polyline fill="none" stroke="#bfbfbf" points="633.5,-1086.5 750.5,-1086.5 "/>
<text text-anchor="middle" x="692" y="-1074.5" font-family="FreeSans" font-size="10.00"> </text>
<polyline fill="none" stroke="#bfbfbf" points="633.5,-1067.5 750.5,-1067.5 "/>
<text text-anchor="middle" x="692" y="-1055.5" font-family="FreeSans" font-size="10.00"> </text>
</g>
<!-- Node7&#45;&gt;Node28 -->
<g id="edge32" class="edge"><title>Node7&#45;&gt;Node28</title>
<path fill="none" stroke="#404040" d="M552.88,-1182.34C578.335,-1163.25 615.881,-1135.09 645.553,-1112.83"/>
<polygon fill="none" stroke="#404040" points="645.686,-1112.74 648.086,-1105.94 655.286,-1105.54 652.886,-1112.34 645.686,-1112.74"/>
<text text-anchor="middle" x="652" y="-1138.5" font-family="FreeSans" font-size="10.00"> +elements</text>
</g>
<!-- Node8 -->
<g id="node8" class="node"><title>Node8</title>
<g id="a_node8"><a xlink:title="STL class. ">
<polygon fill="white" stroke="#bfbfbf" points="478.5,-1273 478.5,-1341 569.5,-1341 569.5,-1273 478.5,-1273"/>
<text text-anchor="start" x="486.5" y="-1329" font-family="FreeSans" font-size="10.00">std::basic_string&lt;</text>
<text text-anchor="middle" x="524" y="-1318" font-family="FreeSans" font-size="10.00"> char &gt;</text>
<polyline fill="none" stroke="#bfbfbf" points="478.5,-1311 569.5,-1311 "/>
<text text-anchor="middle" x="524" y="-1299" font-family="FreeSans" font-size="10.00"> </text>
<polyline fill="none" stroke="#bfbfbf" points="478.5,-1292 569.5,-1292 "/>
<text text-anchor="middle" x="524" y="-1280" font-family="FreeSans" font-size="10.00"> </text>
</a>
</g>
</g>
<!-- Node8&#45;&gt;Node7 -->
<g id="edge7" class="edge"><title>Node8&#45;&gt;Node7</title>
<path fill="none" stroke="midnightblue" d="M524,-1262.86C524,-1252.95 524,-1242.68 524,-1233.64"/>
<polygon fill="none" stroke="midnightblue" points="520.5,-1262.98 524,-1272.98 527.5,-1262.98 520.5,-1262.98"/>
</g>
<!-- Node9 -->
<g id="node9" class="node"><title>Node9</title>
<polygon fill="white" stroke="#bfbfbf" points="170,-381.5 170,-438.5 236,-438.5 236,-381.5 170,-381.5"/>
<text text-anchor="middle" x="203" y="-426.5" font-family="FreeSans" font-size="10.00">ImageBox *</text>
<polyline fill="none" stroke="#bfbfbf" points="170,-419.5 236,-419.5 "/>
<text text-anchor="middle" x="203" y="-407.5" font-family="FreeSans" font-size="10.00"> </text>
<polyline fill="none" stroke="#bfbfbf" points="170,-400.5 236,-400.5 "/>
<text text-anchor="middle" x="203" y="-388.5" font-family="FreeSans" font-size="10.00"> </text>
</g>
<!-- Node9&#45;&gt;Node1 -->
<g id="edge9" class="edge"><title>Node9&#45;&gt;Node1</title>
<path fill="none" stroke="#404040" d="M202.85,-381.36C203.957,-352.339 209.403,-306.494 231,-274 263.914,-224.48 320.046,-187.119 366.143,-162.733"/>
<polygon fill="none" stroke="#404040" points="366.356,-162.623 369.853,-156.316 377.019,-157.118 373.523,-163.425 366.356,-162.623"/>
<text text-anchor="middle" x="262.5" y="-288.5" font-family="FreeSans" font-size="10.00"> &#45;mScreenshot</text>
</g>
<!-- Node10 -->
<g id="node10" class="node"><title>Node10</title>
<polygon fill="white" stroke="#bfbfbf" points="254.5,-381.5 254.5,-438.5 305.5,-438.5 305.5,-381.5 254.5,-381.5"/>
<text text-anchor="middle" x="280" y="-426.5" font-family="FreeSans" font-size="10.00">Button *</text>
<polyline fill="none" stroke="#bfbfbf" points="254.5,-419.5 305.5,-419.5 "/>
<text text-anchor="middle" x="280" y="-407.5" font-family="FreeSans" font-size="10.00"> </text>
<polyline fill="none" stroke="#bfbfbf" points="254.5,-400.5 305.5,-400.5 "/>
<text text-anchor="middle" x="280" y="-388.5" font-family="FreeSans" font-size="10.00"> </text>
</g>
<!-- Node10&#45;&gt;Node1 -->
<g id="edge10" class="edge"><title>Node10&#45;&gt;Node1</title>
<path fill="none" stroke="#404040" d="M281.946,-381.464C284.877,-353.138 292.143,-308.418 310,-274 324.944,-245.196 347.06,-217.739 368.936,-194.619"/>
<polygon fill="none" stroke="#404040" points="368.951,-194.603 370.247,-187.509 377.293,-185.976 375.998,-193.07 368.951,-194.603"/>
<text text-anchor="middle" x="346.5" y="-299.5" font-family="FreeSans" font-size="10.00"> &#45;mCancelButton</text>
<text text-anchor="middle" x="346.5" y="-288.5" font-family="FreeSans" font-size="10.00">&#45;mDeleteButton</text>
<text text-anchor="middle" x="346.5" y="-277.5" font-family="FreeSans" font-size="10.00">&#45;mOkButton</text>
</g>
<!-- Node11 -->
<g id="node11" class="node"><title>Node11</title>
<g id="a_node11"><a xlink:href="classbool.html" target="_top" xlink:title="{bool\n||}">
<polygon fill="white" stroke="black" points="354.5,-381.5 354.5,-438.5 389.5,-438.5 389.5,-381.5 354.5,-381.5"/>
<text text-anchor="middle" x="372" y="-426.5" font-family="FreeSans" font-size="10.00">bool</text>
<polyline fill="none" stroke="black" points="354.5,-419.5 389.5,-419.5 "/>
<text text-anchor="middle" x="372" y="-407.5" font-family="FreeSans" font-size="10.00"> </text>
<polyline fill="none" stroke="black" points="354.5,-400.5 389.5,-400.5 "/>
<text text-anchor="middle" x="372" y="-388.5" font-family="FreeSans" font-size="10.00"> </text>
</a>
</g>
</g>
<!-- Node11&#45;&gt;Node1 -->
<g id="edge11" class="edge"><title>Node11&#45;&gt;Node1</title>
<path fill="none" stroke="#404040" d="M375.207,-381.336C378.695,-353.866 385.003,-310.67 394,-274 394.534,-271.825 395.084,-269.636 395.65,-267.436"/>
<polygon fill="none" stroke="#404040" points="395.719,-267.177 393.402,-260.349 398.814,-255.583 401.131,-262.412 395.719,-267.177"/>
<text text-anchor="middle" x="415.5" y="-288.5" font-family="FreeSans" font-size="10.00"> &#45;mSaving</text>
</g>
<!-- Node12 -->
<g id="node12" class="node"><title>Node12</title>
<polygon fill="white" stroke="#bfbfbf" points="407.5,-376 407.5,-444 514.5,-444 514.5,-376 407.5,-376"/>
<text text-anchor="start" x="415.5" y="-432" font-family="FreeSans" font-size="10.00">std::auto_ptr&lt; MyGUI</text>
<text text-anchor="middle" x="461" y="-421" font-family="FreeSans" font-size="10.00">::ITexture &gt;</text>
<polyline fill="none" stroke="#bfbfbf" points="407.5,-414 514.5,-414 "/>
<text text-anchor="middle" x="461" y="-402" font-family="FreeSans" font-size="10.00"> </text>
<polyline fill="none" stroke="#bfbfbf" points="407.5,-395 514.5,-395 "/>
<text text-anchor="start" x="415.5" y="-383" font-family="FreeSans" font-size="10.00">+ operator&#45;&gt;()</text>
</g>
<!-- Node12&#45;&gt;Node1 -->
<g id="edge12" class="edge"><title>Node12&#45;&gt;Node1</title>
<path fill="none" stroke="#404040" d="M453.647,-375.986C449.642,-356.348 445.087,-330.881 443,-308 441.822,-295.086 441.001,-281.627 440.453,-268.143"/>
<polygon fill="none" stroke="#404040" points="440.44,-267.76 436.234,-261.902 440.023,-255.767 444.229,-261.625 440.44,-267.76"/>
<text text-anchor="middle" x="490.5" y="-288.5" font-family="FreeSans" font-size="10.00"> &#45;mScreenshotTexture</text>
</g>
<!-- Node13 -->
<g id="node13" class="node"><title>Node13</title>
<polygon fill="white" stroke="#bfbfbf" points="435,-575.5 435,-632.5 487,-632.5 487,-575.5 435,-575.5"/>
<text text-anchor="middle" x="461" y="-620.5" font-family="FreeSans" font-size="10.00">ITexture</text>
<polyline fill="none" stroke="#bfbfbf" points="435,-613.5 487,-613.5 "/>
<text text-anchor="middle" x="461" y="-601.5" font-family="FreeSans" font-size="10.00"> </text>
<polyline fill="none" stroke="#bfbfbf" points="435,-594.5 487,-594.5 "/>
<text text-anchor="middle" x="461" y="-582.5" font-family="FreeSans" font-size="10.00"> </text>
</g>
<!-- Node13&#45;&gt;Node12 -->
<g id="edge13" class="edge"><title>Node13&#45;&gt;Node12</title>
<path fill="none" stroke="#404040" d="M461,-575.491C461,-544.511 461,-493.675 461,-456.705"/>
<polygon fill="none" stroke="#404040" points="461,-456.262 457,-450.262 461,-444.262 465,-450.262 461,-456.262"/>
<text text-anchor="middle" x="471" y="-515.5" font-family="FreeSans" font-size="10.00"> +ptr</text>
</g>
<!-- Node14 -->
<g id="node14" class="node"><title>Node14</title>
<polygon fill="white" stroke="#bfbfbf" points="532,-381.5 532,-438.5 588,-438.5 588,-381.5 532,-381.5"/>
<text text-anchor="middle" x="560" y="-426.5" font-family="FreeSans" font-size="10.00">EditBox *</text>
<polyline fill="none" stroke="#bfbfbf" points="532,-419.5 588,-419.5 "/>
<text text-anchor="middle" x="560" y="-407.5" font-family="FreeSans" font-size="10.00"> </text>
<polyline fill="none" stroke="#bfbfbf" points="532,-400.5 588,-400.5 "/>
<text text-anchor="middle" x="560" y="-388.5" font-family="FreeSans" font-size="10.00"> </text>
</g>
<!-- Node14&#45;&gt;Node1 -->
<g id="edge14" class="edge"><title>Node14&#45;&gt;Node1</title>
<path fill="none" stroke="#404040" d="M558.901,-381.472C557.015,-353.543 551.895,-309.49 538,-274 531.409,-257.165 522.648,-240.272 513.094,-224.27"/>
<polygon fill="none" stroke="#404040" points="512.999,-224.115 506.45,-221.098 506.716,-213.892 513.265,-216.909 512.999,-224.115"/>
<text text-anchor="middle" x="586" y="-294" font-family="FreeSans" font-size="10.00"> &#45;mInfoText</text>
<text text-anchor="middle" x="586" y="-283" font-family="FreeSans" font-size="10.00">&#45;mSaveNameEdit</text>
</g>
<!-- Node15 -->
<g id="node15" class="node"><title>Node15</title>
<polygon fill="white" stroke="#bfbfbf" points="629,-381.5 629,-438.5 683,-438.5 683,-381.5 629,-381.5"/>
<text text-anchor="middle" x="656" y="-426.5" font-family="FreeSans" font-size="10.00">ListBox *</text>
<polyline fill="none" stroke="#bfbfbf" points="629,-419.5 683,-419.5 "/>
<text text-anchor="middle" x="656" y="-407.5" font-family="FreeSans" font-size="10.00"> </text>
<polyline fill="none" stroke="#bfbfbf" points="629,-400.5 683,-400.5 "/>
<text text-anchor="middle" x="656" y="-388.5" font-family="FreeSans" font-size="10.00"> </text>
</g>
<!-- Node15&#45;&gt;Node1 -->
<g id="edge15" class="edge"><title>Node15&#45;&gt;Node1</title>
<path fill="none" stroke="#404040" d="M655.746,-381.346C654.292,-352.52 648.548,-307.026 628,-274 600.996,-230.598 556.095,-195.044 517.175,-170.005"/>
<polygon fill="none" stroke="#404040" points="517.061,-169.933 509.852,-170.126 506.901,-163.546 514.11,-163.353 517.061,-169.933"/>
<text text-anchor="middle" x="668.5" y="-288.5" font-family="FreeSans" font-size="10.00"> &#45;mSaveList</text>
</g>
<!-- Node16 -->
<g id="node16" class="node"><title>Node16</title>
<polygon fill="white" stroke="#bfbfbf" points="701,-381.5 701,-438.5 771,-438.5 771,-381.5 701,-381.5"/>
<text text-anchor="middle" x="736" y="-426.5" font-family="FreeSans" font-size="10.00">ComboBox *</text>
<polyline fill="none" stroke="#bfbfbf" points="701,-419.5 771,-419.5 "/>
<text text-anchor="middle" x="736" y="-407.5" font-family="FreeSans" font-size="10.00"> </text>
<polyline fill="none" stroke="#bfbfbf" points="701,-400.5 771,-400.5 "/>
<text text-anchor="middle" x="736" y="-388.5" font-family="FreeSans" font-size="10.00"> </text>
</g>
<!-- Node16&#45;&gt;Node1 -->
<g id="edge16" class="edge"><title>Node16&#45;&gt;Node1</title>
<path fill="none" stroke="#404040" d="M734.35,-381.401C731.303,-351.991 722.637,-305.425 698,-274 652.057,-215.4 575.423,-176.519 517.951,-153.903"/>
<polygon fill="none" stroke="#404040" points="517.93,-153.895 510.895,-155.479 506.727,-149.595 513.762,-148.01 517.93,-153.895"/>
<text text-anchor="middle" x="765.5" y="-288.5" font-family="FreeSans" font-size="10.00"> &#45;mCharacterSelection</text>
</g>
<!-- Node17 -->
<g id="node17" class="node"><title>Node17</title>
<g id="a_node17"><a xlink:href="classMWState_1_1Character.html" target="_top" xlink:title="{MWState::Character\n||+ Character()\l+ cleanup()\l+ createSlot()\l+ deleteSlot()\l+ updateSlot()\l+ begin()\l+ end()\l+ getPath()\l+ getSignature()\l&#45; addSlot()\l&#45; addSlot()\l}">
<polygon fill="white" stroke="black" points="801,-326.5 801,-493.5 905,-493.5 905,-326.5 801,-326.5"/>
<text text-anchor="middle" x="853" y="-481.5" font-family="FreeSans" font-size="10.00">MWState::Character</text>
<polyline fill="none" stroke="black" points="801,-474.5 905,-474.5 "/>
<text text-anchor="middle" x="853" y="-462.5" font-family="FreeSans" font-size="10.00"> </text>
<polyline fill="none" stroke="black" points="801,-455.5 905,-455.5 "/>
<text text-anchor="start" x="809" y="-443.5" font-family="FreeSans" font-size="10.00">+ Character()</text>
<text text-anchor="start" x="809" y="-432.5" font-family="FreeSans" font-size="10.00">+ cleanup()</text>
<text text-anchor="start" x="809" y="-421.5" font-family="FreeSans" font-size="10.00">+ createSlot()</text>
<text text-anchor="start" x="809" y="-410.5" font-family="FreeSans" font-size="10.00">+ deleteSlot()</text>
<text text-anchor="start" x="809" y="-399.5" font-family="FreeSans" font-size="10.00">+ updateSlot()</text>
<text text-anchor="start" x="809" y="-388.5" font-family="FreeSans" font-size="10.00">+ begin()</text>
<text text-anchor="start" x="809" y="-377.5" font-family="FreeSans" font-size="10.00">+ end()</text>
<text text-anchor="start" x="809" y="-366.5" font-family="FreeSans" font-size="10.00">+ getPath()</text>
<text text-anchor="start" x="809" y="-355.5" font-family="FreeSans" font-size="10.00">+ getSignature()</text>
<text text-anchor="start" x="809" y="-344.5" font-family="FreeSans" font-size="10.00">&#45; addSlot()</text>
<text text-anchor="start" x="809" y="-333.5" font-family="FreeSans" font-size="10.00">&#45; addSlot()</text>
</a>
</g>
</g>
<!-- Node17&#45;&gt;Node1 -->
<g id="edge17" class="edge"><title>Node17&#45;&gt;Node1</title>
<path fill="none" stroke="#404040" d="M844.495,-326.162C839.246,-307.295 830.972,-288.547 818,-274 740.255,-186.811 603.978,-151.673 518.591,-137.778"/>
<polygon fill="none" stroke="#404040" points="518.491,-137.763 511.947,-140.792 506.634,-135.917 513.178,-132.888 518.491,-137.763"/>
<text text-anchor="middle" x="882" y="-288.5" font-family="FreeSans" font-size="10.00"> &#45;mCurrentCharacter</text>
</g>
<!-- Node18 -->
<g id="node18" class="node"><title>Node18</title>
<polygon fill="white" stroke="#bfbfbf" points="764.5,-926.5 764.5,-983.5 799.5,-983.5 799.5,-926.5 764.5,-926.5"/>
<text text-anchor="middle" x="782" y="-971.5" font-family="FreeSans" font-size="10.00">path</text>
<polyline fill="none" stroke="#bfbfbf" points="764.5,-964.5 799.5,-964.5 "/>
<text text-anchor="middle" x="782" y="-952.5" font-family="FreeSans" font-size="10.00"> </text>
<polyline fill="none" stroke="#bfbfbf" points="764.5,-945.5 799.5,-945.5 "/>
<text text-anchor="middle" x="782" y="-933.5" font-family="FreeSans" font-size="10.00"> </text>
</g>
<!-- Node18&#45;&gt;Node17 -->
<g id="edge18" class="edge"><title>Node18&#45;&gt;Node17</title>
<path fill="none" stroke="#404040" d="M780.6,-926.144C777.855,-859.14 774.382,-683.994 804,-542 806.517,-529.931 809.964,-517.496 813.872,-505.316"/>
<polygon fill="none" stroke="#404040" points="813.938,-505.116 812.048,-498.157 817.744,-493.736 819.635,-500.694 813.938,-505.116"/>
<text text-anchor="middle" x="802" y="-687.5" font-family="FreeSans" font-size="10.00"> &#45;mPath</text>
</g>
<!-- Node20 -->
<g id="node20" class="node"><title>Node20</title>
<g id="a_node20"><a xlink:href="structMWState_1_1Slot.html" target="_top" xlink:title="{MWState::Slot\n||}">
<polygon fill="white" stroke="black" points="835.5,-764.5 835.5,-821.5 914.5,-821.5 914.5,-764.5 835.5,-764.5"/>
<text text-anchor="middle" x="875" y="-809.5" font-family="FreeSans" font-size="10.00">MWState::Slot</text>
<polyline fill="none" stroke="black" points="835.5,-802.5 914.5,-802.5 "/>
<text text-anchor="middle" x="875" y="-790.5" font-family="FreeSans" font-size="10.00"> </text>
<polyline fill="none" stroke="black" points="835.5,-783.5 914.5,-783.5 "/>
<text text-anchor="middle" x="875" y="-771.5" font-family="FreeSans" font-size="10.00"> </text>
</a>
</g>
</g>
<!-- Node18&#45;&gt;Node20 -->
<g id="edge21" class="edge"><title>Node18&#45;&gt;Node20</title>
<path fill="none" stroke="#404040" d="M797.987,-926.495C813.092,-900.509 835.887,-861.291 852.761,-832.26"/>
<polygon fill="none" stroke="#404040" points="852.88,-832.056 852.437,-824.859 858.91,-821.682 859.353,-828.879 852.88,-832.056"/>
<text text-anchor="middle" x="836.5" y="-893.5" font-family="FreeSans" font-size="10.00"> +mPath</text>
</g>
<!-- Node19 -->
<g id="node19" class="node"><title>Node19</title>
<polygon fill="white" stroke="#bfbfbf" points="813.5,-570 813.5,-638 922.5,-638 922.5,-570 813.5,-570"/>
<text text-anchor="start" x="821.5" y="-626" font-family="FreeSans" font-size="10.00">std::vector&lt; MWState</text>
<text text-anchor="middle" x="868" y="-615" font-family="FreeSans" font-size="10.00">::Slot &gt;</text>
<polyline fill="none" stroke="#bfbfbf" points="813.5,-608 922.5,-608 "/>
<text text-anchor="middle" x="868" y="-596" font-family="FreeSans" font-size="10.00"> </text>
<polyline fill="none" stroke="#bfbfbf" points="813.5,-589 922.5,-589 "/>
<text text-anchor="middle" x="868" y="-577" font-family="FreeSans" font-size="10.00"> </text>
</g>
<!-- Node19&#45;&gt;Node17 -->
<g id="edge19" class="edge"><title>Node19&#45;&gt;Node17</title>
<path fill="none" stroke="#404040" d="M865.421,-569.994C864.016,-552.007 862.198,-528.738 860.389,-505.58"/>
<polygon fill="none" stroke="#404040" points="860.381,-505.472 855.925,-499.801 859.446,-493.508 863.901,-499.178 860.381,-505.472"/>
<text text-anchor="middle" x="880" y="-515.5" font-family="FreeSans" font-size="10.00"> &#45;mSlots</text>
</g>
<!-- Node20&#45;&gt;Node1 -->
<g id="edge35" class="edge"><title>Node20&#45;&gt;Node1</title>
<path fill="none" stroke="#404040" d="M893.157,-764.408C907.877,-739.79 926.839,-702.147 931,-666 940.436,-584.033 948.855,-299.174 930,-274 880.518,-207.935 643.464,-161.085 518.887,-140.58"/>
<polygon fill="none" stroke="#404040" points="518.672,-140.545 512.108,-143.531 506.827,-138.62 513.391,-135.634 518.672,-140.545"/>
<text text-anchor="middle" x="971.5" y="-515.5" font-family="FreeSans" font-size="10.00"> &#45;mCurrentSlot</text>
</g>
<!-- Node20&#45;&gt;Node19 -->
<g id="edge20" class="edge"><title>Node20&#45;&gt;Node19</title>
<path fill="none" stroke="#404040" d="M873.967,-764.408C872.841,-734.326 871.022,-685.726 869.688,-650.086"/>
<polygon fill="none" stroke="#404040" points="869.687,-650.063 865.465,-644.217 869.238,-638.072 873.46,-643.918 869.687,-650.063"/>
<text text-anchor="middle" x="896" y="-687.5" font-family="FreeSans" font-size="10.00"> +elements</text>
</g>
<!-- Node21&#45;&gt;Node20 -->
<g id="edge22" class="edge"><title>Node21&#45;&gt;Node20</title>
<path fill="none" stroke="#404040" d="M867.072,-920.848C868.657,-895.483 870.849,-860.416 872.526,-833.58"/>
<polygon fill="none" stroke="#404040" points="872.531,-833.497 868.913,-827.259 873.28,-821.521 876.898,-827.758 872.531,-833.497"/>
<text text-anchor="middle" x="891" y="-893.5" font-family="FreeSans" font-size="10.00"> +mProfile</text>
</g>
<!-- Node22 -->
<g id="node22" class="node"><title>Node22</title>
<polygon fill="white" stroke="#bfbfbf" points="418.5,-1048.5 418.5,-1105.5 463.5,-1105.5 463.5,-1048.5 418.5,-1048.5"/>
<text text-anchor="middle" x="441" y="-1093.5" font-family="FreeSans" font-size="10.00">double</text>
<polyline fill="none" stroke="#bfbfbf" points="418.5,-1086.5 463.5,-1086.5 "/>
<text text-anchor="middle" x="441" y="-1074.5" font-family="FreeSans" font-size="10.00"> </text>
<polyline fill="none" stroke="#bfbfbf" points="418.5,-1067.5 463.5,-1067.5 "/>
<text text-anchor="middle" x="441" y="-1055.5" font-family="FreeSans" font-size="10.00"> </text>
</g>
<!-- Node22&#45;&gt;Node21 -->
<g id="edge23" class="edge"><title>Node22&#45;&gt;Node21</title>
<path fill="none" stroke="#404040" d="M433.359,-1048.47C431.284,-1034.55 431.909,-1018.44 442,-1008 468.522,-980.548 732.74,-999.101 805.396,-989.059"/>
<polygon fill="none" stroke="#404040" points="805.487,-989.041 810.568,-983.925 817.246,-986.648 812.164,-991.764 805.487,-989.041"/>
<text text-anchor="middle" x="476" y="-1016.5" font-family="FreeSans" font-size="10.00"> +mTimePlayed</text>
</g>
<!-- Node23 -->
<g id="node23" class="node"><title>Node23</title>
<polygon fill="white" stroke="#bfbfbf" points="768.5,-1048.5 768.5,-1105.5 863.5,-1105.5 863.5,-1048.5 768.5,-1048.5"/>
<text text-anchor="middle" x="816" y="-1093.5" font-family="FreeSans" font-size="10.00">std::vector&lt; char &gt;</text>
<polyline fill="none" stroke="#bfbfbf" points="768.5,-1086.5 863.5,-1086.5 "/>
<text text-anchor="middle" x="816" y="-1074.5" font-family="FreeSans" font-size="10.00"> </text>
<polyline fill="none" stroke="#bfbfbf" points="768.5,-1067.5 863.5,-1067.5 "/>
<text text-anchor="middle" x="816" y="-1055.5" font-family="FreeSans" font-size="10.00"> </text>
</g>
<!-- Node23&#45;&gt;Node21 -->
<g id="edge24" class="edge"><title>Node23&#45;&gt;Node21</title>
<path fill="none" stroke="#404040" d="M811.992,-1048.31C811.25,-1035.61 811.963,-1020.61 817,-1008 818.219,-1004.95 819.706,-1001.97 821.393,-999.078"/>
<polygon fill="none" stroke="#404040" points="821.487,-998.94 821.565,-991.73 828.251,-989.028 828.173,-996.239 821.487,-998.94"/>
<text text-anchor="middle" x="850" y="-1016.5" font-family="FreeSans" font-size="10.00"> +mScreenshot</text>
</g>
<!-- Node24 -->
<g id="node24" class="node"><title>Node24</title>
<polygon fill="white" stroke="#bfbfbf" points="798.5,-1176.5 798.5,-1233.5 833.5,-1233.5 833.5,-1176.5 798.5,-1176.5"/>
<text text-anchor="middle" x="816" y="-1221.5" font-family="FreeSans" font-size="10.00">char</text>
<polyline fill="none" stroke="#bfbfbf" points="798.5,-1214.5 833.5,-1214.5 "/>
<text text-anchor="middle" x="816" y="-1202.5" font-family="FreeSans" font-size="10.00"> </text>
<polyline fill="none" stroke="#bfbfbf" points="798.5,-1195.5 833.5,-1195.5 "/>
<text text-anchor="middle" x="816" y="-1183.5" font-family="FreeSans" font-size="10.00"> </text>
</g>
<!-- Node24&#45;&gt;Node23 -->
<g id="edge25" class="edge"><title>Node24&#45;&gt;Node23</title>
<path fill="none" stroke="#404040" d="M816,-1176.35C816,-1159.2 816,-1136.88 816,-1117.84"/>
<polygon fill="none" stroke="#404040" points="816,-1117.59 812,-1111.59 816,-1105.59 820,-1111.59 816,-1117.59"/>
<text text-anchor="middle" x="840" y="-1138.5" font-family="FreeSans" font-size="10.00"> +elements</text>
</g>
<!-- Node25 -->
<g id="node25" class="node"><title>Node25</title>
<g id="a_node25"><a xlink:href="structESM_1_1SavedGame_1_1TimeStamp.html" target="_top" xlink:title="{ESM::SavedGame::TimeStamp\n||}">
<polygon fill="white" stroke="black" points="954,-1048.5 954,-1105.5 1104,-1105.5 1104,-1048.5 954,-1048.5"/>
<text text-anchor="middle" x="1029" y="-1093.5" font-family="FreeSans" font-size="10.00">ESM::SavedGame::TimeStamp</text>
<polyline fill="none" stroke="black" points="954,-1086.5 1104,-1086.5 "/>
<text text-anchor="middle" x="1029" y="-1074.5" font-family="FreeSans" font-size="10.00"> </text>
<polyline fill="none" stroke="black" points="954,-1067.5 1104,-1067.5 "/>
<text text-anchor="middle" x="1029" y="-1055.5" font-family="FreeSans" font-size="10.00"> </text>
</a>
</g>
</g>
<!-- Node25&#45;&gt;Node21 -->
<g id="edge26" class="edge"><title>Node25&#45;&gt;Node21</title>
<path fill="none" stroke="#404040" d="M999.635,-1048.25C985.427,-1035.4 967.834,-1020.28 951,-1008 949.354,-1006.8 937.453,-999.547 923.002,-990.822"/>
<polygon fill="none" stroke="#404040" points="922.961,-990.797 915.758,-991.125 912.684,-984.602 919.888,-984.274 922.961,-990.797"/>
<text text-anchor="middle" x="1013.5" y="-1016.5" font-family="FreeSans" font-size="10.00"> +mInGameTime</text>
</g>
<!-- Node26 -->
<g id="node26" class="node"><title>Node26</title>
<polygon fill="white" stroke="#bfbfbf" points="976.5,-1176.5 976.5,-1233.5 1011.5,-1233.5 1011.5,-1176.5 976.5,-1176.5"/>
<text text-anchor="middle" x="994" y="-1221.5" font-family="FreeSans" font-size="10.00">float</text>
<polyline fill="none" stroke="#bfbfbf" points="976.5,-1214.5 1011.5,-1214.5 "/>
<text text-anchor="middle" x="994" y="-1202.5" font-family="FreeSans" font-size="10.00"> </text>
<polyline fill="none" stroke="#bfbfbf" points="976.5,-1195.5 1011.5,-1195.5 "/>
<text text-anchor="middle" x="994" y="-1183.5" font-family="FreeSans" font-size="10.00"> </text>
</g>
<!-- Node26&#45;&gt;Node25 -->
<g id="edge27" class="edge"><title>Node26&#45;&gt;Node25</title>
<path fill="none" stroke="#404040" d="M990.221,-1176.27C989.086,-1160.54 989.376,-1140.72 995,-1124 995.908,-1121.3 997.04,-1118.63 998.334,-1116.01"/>
<polygon fill="none" stroke="#404040" points="998.346,-1115.99 997.923,-1108.79 1004.41,-1105.63 1004.83,-1112.83 998.346,-1115.99"/>
<text text-anchor="middle" x="1027" y="-1138.5" font-family="FreeSans" font-size="10.00"> +mGameHour</text>
</g>
<!-- Node27 -->
<g id="node27" class="node"><title>Node27</title>
<g id="a_node27"><a xlink:href="classint.html" target="_top" xlink:title="{int\n||}">
<polygon fill="white" stroke="black" points="1095.5,-1176.5 1095.5,-1233.5 1124.5,-1233.5 1124.5,-1176.5 1095.5,-1176.5"/>
<text text-anchor="middle" x="1110" y="-1221.5" font-family="FreeSans" font-size="10.00">int</text>
<polyline fill="none" stroke="black" points="1095.5,-1214.5 1124.5,-1214.5 "/>
<text text-anchor="middle" x="1110" y="-1202.5" font-family="FreeSans" font-size="10.00"> </text>
<polyline fill="none" stroke="black" points="1095.5,-1195.5 1124.5,-1195.5 "/>
<text text-anchor="middle" x="1110" y="-1183.5" font-family="FreeSans" font-size="10.00"> </text>
</a>
</g>
</g>
<!-- Node27&#45;&gt;Node21 -->
<g id="edge29" class="edge"><title>Node27&#45;&gt;Node21</title>
<path fill="none" stroke="#404040" d="M1121.34,-1176.17C1123.28,-1170.27 1124.99,-1164 1126,-1158 1134.21,-1109.41 1138.79,-1089.37 1112,-1048 1066.03,-977 1010.24,-1015.58 924.044,-989.942"/>
<polygon fill="none" stroke="#404040" points="923.94,-989.908 916.995,-991.85 912.532,-986.186 919.477,-984.244 923.94,-989.908"/>
<text text-anchor="middle" x="1168.5" y="-1080" font-family="FreeSans" font-size="10.00"> +mPlayerLevel</text>
<text text-anchor="middle" x="1168.5" y="-1069" font-family="FreeSans" font-size="10.00">+sCurrentFormat</text>
</g>
<!-- Node27&#45;&gt;Node25 -->
<g id="edge28" class="edge"><title>Node27&#45;&gt;Node25</title>
<path fill="none" stroke="#404040" d="M1095.33,-1180.85C1085.18,-1164.86 1071.32,-1143.1 1059,-1124 1057.33,-1121.41 1055.6,-1118.73 1053.85,-1116.04"/>
<polygon fill="none" stroke="#404040" points="1053.67,-1115.76 1047.05,-1112.91 1047.13,-1105.7 1053.76,-1108.55 1053.67,-1115.76"/>
<text text-anchor="middle" x="1102" y="-1149.5" font-family="FreeSans" font-size="10.00"> +mMonth</text>
<text text-anchor="middle" x="1102" y="-1138.5" font-family="FreeSans" font-size="10.00">+mDay</text>
<text text-anchor="middle" x="1102" y="-1127.5" font-family="FreeSans" font-size="10.00">+mYear</text>
</g>
<!-- Node28&#45;&gt;Node21 -->
<g id="edge31" class="edge"><title>Node28&#45;&gt;Node21</title>
<path fill="none" stroke="#404040" d="M704.743,-1048.19C712.491,-1034.19 723.669,-1018.1 738,-1008 761.489,-991.448 775.24,-999.991 805.765,-990.098"/>
<polygon fill="none" stroke="#404040" points="806.072,-989.982 810.281,-984.126 817.305,-985.759 813.096,-991.614 806.072,-989.982"/>
<text text-anchor="middle" x="773.5" y="-1016.5" font-family="FreeSans" font-size="10.00"> +mContentFiles</text>
</g>
<!-- Node29 -->
<g id="node29" class="node"><title>Node29</title>
<polygon fill="white" stroke="#bfbfbf" points="881.5,-1048.5 881.5,-1105.5 936.5,-1105.5 936.5,-1048.5 881.5,-1048.5"/>
<text text-anchor="middle" x="909" y="-1093.5" font-family="FreeSans" font-size="10.00">unsigned</text>
<polyline fill="none" stroke="#bfbfbf" points="881.5,-1086.5 936.5,-1086.5 "/>
<text text-anchor="middle" x="909" y="-1074.5" font-family="FreeSans" font-size="10.00"> </text>
<polyline fill="none" stroke="#bfbfbf" points="881.5,-1067.5 936.5,-1067.5 "/>
<text text-anchor="middle" x="909" y="-1055.5" font-family="FreeSans" font-size="10.00"> </text>
</g>
<!-- Node29&#45;&gt;Node21 -->
<g id="edge33" class="edge"><title>Node29&#45;&gt;Node21</title>
<path fill="none" stroke="#404040" d="M900.657,-1048.35C896.754,-1035.93 891.894,-1021.14 887,-1008 886.069,-1005.5 885.087,-1002.94 884.075,-1000.37"/>
<polygon fill="none" stroke="#404040" points="884.022,-1000.24 878.063,-996.178 879.519,-989.115 885.478,-993.176 884.022,-1000.24"/>
<text text-anchor="middle" x="921" y="-1016.5" font-family="FreeSans" font-size="10.00"> +sRecordId</text>
</g>
<!-- Node30 -->
<g id="node30" class="node"><title>Node30</title>
<polygon fill="white" stroke="#bfbfbf" points="931,-926.5 931,-983.5 975,-983.5 975,-926.5 931,-926.5"/>
<text text-anchor="middle" x="953" y="-971.5" font-family="FreeSans" font-size="10.00">time_t</text>
<polyline fill="none" stroke="#bfbfbf" points="931,-964.5 975,-964.5 "/>
<text text-anchor="middle" x="953" y="-952.5" font-family="FreeSans" font-size="10.00"> </text>
<polyline fill="none" stroke="#bfbfbf" points="931,-945.5 975,-945.5 "/>
<text text-anchor="middle" x="953" y="-933.5" font-family="FreeSans" font-size="10.00"> </text>
</g>
<!-- Node30&#45;&gt;Node20 -->
<g id="edge34" class="edge"><title>Node30&#45;&gt;Node20</title>
<path fill="none" stroke="#404040" d="M939.591,-926.495C926.979,-900.623 907.973,-861.637 893.839,-832.645"/>
<polygon fill="none" stroke="#404040" points="893.753,-832.468 887.528,-828.828 888.495,-821.682 894.719,-825.322 893.753,-832.468"/>
<text text-anchor="middle" x="959.5" y="-893.5" font-family="FreeSans" font-size="10.00"> +mTimeStamp</text>
</g>
</g>
</svg>
