<?xml version="1.0" encoding="UTF-8" standalone="no"?>
<!DOCTYPE svg PUBLIC "-//W3C//DTD SVG 1.1//EN"
 "http://www.w3.org/Graphics/SVG/1.1/DTD/svg11.dtd">
<!-- Generated by graphviz version 2.36.0 (20140111.2315)
 -->
<!-- Title: MWGui::SaveGameDialog::confirmDeleteSave Pages: 1 -->
<svg width="1516pt" height="690pt"
 viewBox="0.00 0.00 1516.00 690.00" xmlns="http://www.w3.org/2000/svg" xmlns:xlink="http://www.w3.org/1999/xlink">
<g id="graph0" class="graph" transform="scale(1 1) rotate(0) translate(4 686)">
<title>MWGui::SaveGameDialog::confirmDeleteSave</title>
<polygon fill="white" stroke="none" points="-4,4 -4,-686 1512,-686 1512,4 -4,4"/>
<!-- Node1 -->
<g id="node1" class="node"><title>Node1</title>
<polygon fill="#bfbfbf" stroke="black" points="0,-515 0,-545 138,-545 138,-515 0,-515"/>
<text text-anchor="start" x="8" y="-533" font-family="FreeSans" font-size="10.00">MWGui::SaveGameDialog</text>
<text text-anchor="middle" x="69" y="-522" font-family="FreeSans" font-size="10.00">::confirmDeleteSave</text>
</g>
<!-- Node2 -->
<g id="node2" class="node"><title>Node2</title>
<g id="a_node2"><a xlink:href="classMWBase_1_1Environment.html#a73f12633762b049c03c80fe215873faa" target="_top" xlink:title="Return instance of this class. ">
<polygon fill="white" stroke="black" points="898,-378.5 898,-397.5 1044,-397.5 1044,-378.5 898,-378.5"/>
<text text-anchor="middle" x="971" y="-385.5" font-family="FreeSans" font-size="10.00">MWBase::Environment::get</text>
</a>
</g>
</g>
<!-- Node1&#45;&gt;Node2 -->
<g id="edge1" class="edge"><title>Node1&#45;&gt;Node2</title>
<path fill="none" stroke="midnightblue" d="M121.938,-514.973C138.435,-510.887 156.85,-507.032 174,-505 235.79,-497.678 251.814,-502.863 314,-505 433.062,-509.091 741.259,-563.659 850,-515 901.246,-492.069 941.115,-435.915 959.272,-406.561"/>
<polygon fill="midnightblue" stroke="midnightblue" points="962.434,-408.095 964.583,-397.721 956.433,-404.491 962.434,-408.095"/>
</g>
<!-- Node3 -->
<g id="node3" class="node"><title>Node3</title>
<g id="a_node3"><a xlink:href="classMWBase_1_1Environment.html#aeeef9a580df0312f0a9b7380488dea21" target="_top" xlink:title="MWBase::Environment\l::getWindowManager">
<polygon fill="white" stroke="black" points="716,-476 716,-506 840,-506 840,-476 716,-476"/>
<text text-anchor="start" x="724" y="-494" font-family="FreeSans" font-size="10.00">MWBase::Environment</text>
<text text-anchor="middle" x="778" y="-483" font-family="FreeSans" font-size="10.00">::getWindowManager</text>
</a>
</g>
</g>
<!-- Node1&#45;&gt;Node3 -->
<g id="edge2" class="edge"><title>Node1&#45;&gt;Node3</title>
<path fill="none" stroke="midnightblue" d="M124.649,-545.058C140.446,-548.742 157.798,-552.155 174,-554 393.484,-578.997 452.9,-562.813 670,-522 687.319,-518.744 705.865,-513.879 722.57,-508.962"/>
<polygon fill="midnightblue" stroke="midnightblue" points="723.602,-512.307 732.169,-506.073 721.585,-505.603 723.602,-512.307"/>
</g>
<!-- Node4 -->
<g id="node4" class="node"><title>Node4</title>
<g id="a_node4"><a xlink:href="classMWBase_1_1WindowManager.html#a44278ba1956ea9dea0dc636983291834" target="_top" xlink:title="MWBase::WindowManager\l::getConfirmationDialog">
<polygon fill="white" stroke="black" points="174,-515 174,-545 314,-545 314,-515 174,-515"/>
<text text-anchor="start" x="182" y="-533" font-family="FreeSans" font-size="10.00">MWBase::WindowManager</text>
<text text-anchor="middle" x="244" y="-522" font-family="FreeSans" font-size="10.00">::getConfirmationDialog</text>
</a>
</g>
</g>
<!-- Node1&#45;&gt;Node4 -->
<g id="edge3" class="edge"><title>Node1&#45;&gt;Node4</title>
<path fill="none" stroke="midnightblue" d="M138.374,-530C146.7,-530 155.261,-530 163.728,-530"/>
<polygon fill="midnightblue" stroke="midnightblue" points="163.989,-533.5 173.989,-530 163.989,-526.5 163.989,-533.5"/>
</g>
<!-- Node5 -->
<g id="node5" class="node"><title>Node5</title>
<g id="a_node5"><a xlink:href="classMWGui_1_1ConfirmationDialog.html#a586c6ab382eaddb22b5819b3b782a23d" target="_top" xlink:title="MWGui::ConfirmationDialog\l::askForConfirmation">
<polygon fill="white" stroke="black" points="350,-602 350,-632 496,-632 496,-602 350,-602"/>
<text text-anchor="start" x="358" y="-620" font-family="FreeSans" font-size="10.00">MWGui::ConfirmationDialog</text>
<text text-anchor="middle" x="423" y="-609" font-family="FreeSans" font-size="10.00">::askForConfirmation</text>
</a>
</g>
</g>
<!-- Node1&#45;&gt;Node5 -->
<g id="edge4" class="edge"><title>Node1&#45;&gt;Node5</title>
<path fill="none" stroke="midnightblue" d="M91.1617,-545.096C111.406,-558.715 143.312,-578.083 174,-588 227.528,-605.298 290.514,-612.511 339.615,-615.418"/>
<polygon fill="midnightblue" stroke="midnightblue" points="339.698,-618.928 349.873,-615.975 340.078,-611.938 339.698,-618.928"/>
</g>
<!-- Node11 -->
<g id="node11" class="node"><title>Node11</title>
<g id="a_node11"><a xlink:href="classMWGui_1_1SaveGameDialog.html#a543fc51bed00e2f3f0cccd04699e9bfc" target="_top" xlink:title="MWGui::SaveGameDialog\l::onDeleteSlotConfirmed">
<polygon fill="white" stroke="black" points="175,-352 175,-382 313,-382 313,-352 175,-352"/>
<text text-anchor="start" x="183" y="-370" font-family="FreeSans" font-size="10.00">MWGui::SaveGameDialog</text>
<text text-anchor="middle" x="244" y="-359" font-family="FreeSans" font-size="10.00">::onDeleteSlotConfirmed</text>
</a>
</g>
</g>
<!-- Node1&#45;&gt;Node11 -->
<g id="edge12" class="edge"><title>Node1&#45;&gt;Node11</title>
<path fill="none" stroke="midnightblue" d="M85.9653,-514.958C116.605,-486.089 183.779,-422.798 219.53,-389.113"/>
<polygon fill="midnightblue" stroke="midnightblue" points="222.195,-391.411 227.073,-382.006 217.395,-386.316 222.195,-391.411"/>
</g>
<!-- Node6 -->
<g id="node6" class="node"><title>Node6</title>
<g id="a_node6"><a xlink:href="classMWGui_1_1WindowBase.html#a4f681670522d795ac3b38f13500ff7ea" target="_top" xlink:title="Sets the visibility of the window. ">
<polygon fill="white" stroke="black" points="541,-602 541,-632 661,-632 661,-602 541,-602"/>
<text text-anchor="start" x="549" y="-620" font-family="FreeSans" font-size="10.00">MWGui::WindowBase::</text>
<text text-anchor="middle" x="601" y="-609" font-family="FreeSans" font-size="10.00">setVisible</text>
</a>
</g>
</g>
<!-- Node5&#45;&gt;Node6 -->
<g id="edge5" class="edge"><title>Node5&#45;&gt;Node6</title>
<path fill="none" stroke="midnightblue" d="M496.094,-617C507.505,-617 519.285,-617 530.632,-617"/>
<polygon fill="midnightblue" stroke="midnightblue" points="530.908,-620.5 540.908,-617 530.908,-613.5 530.908,-620.5"/>
</g>
<!-- Node10 -->
<g id="node10" class="node"><title>Node10</title>
<g id="a_node10"><a xlink:href="classMWGui_1_1WindowBase.html#a619c3722639059076d24ae157fdaa18c" target="_top" xlink:title="MWGui::WindowBase::\lcenter">
<polygon fill="white" stroke="black" points="541,-651 541,-681 661,-681 661,-651 541,-651"/>
<text text-anchor="start" x="549" y="-669" font-family="FreeSans" font-size="10.00">MWGui::WindowBase::</text>
<text text-anchor="middle" x="601" y="-658" font-family="FreeSans" font-size="10.00">center</text>
</a>
</g>
</g>
<!-- Node5&#45;&gt;Node10 -->
<g id="edge11" class="edge"><title>Node5&#45;&gt;Node10</title>
<path fill="none" stroke="midnightblue" d="M478.242,-632.101C496.562,-637.202 517.183,-642.943 536.175,-648.23"/>
<polygon fill="midnightblue" stroke="midnightblue" points="535.365,-651.638 545.937,-650.948 537.242,-644.895 535.365,-651.638"/>
</g>
<!-- Node6&#45;&gt;Node2 -->
<g id="edge8" class="edge"><title>Node6&#45;&gt;Node2</title>
<path fill="none" stroke="midnightblue" d="M661.252,-602.901C729.494,-586.33 834.283,-559.729 850,-549 904.796,-511.596 944.439,-440.827 961.176,-406.973"/>
<polygon fill="midnightblue" stroke="midnightblue" points="964.442,-408.257 965.626,-397.729 958.134,-405.221 964.442,-408.257"/>
</g>
<!-- Node6&#45;&gt;Node3 -->
<g id="edge9" class="edge"><title>Node6&#45;&gt;Node3</title>
<path fill="none" stroke="midnightblue" d="M641.932,-601.898C651.436,-597.629 661.328,-592.6 670,-587 687.575,-575.651 728.023,-537.992 753.846,-513.352"/>
<polygon fill="midnightblue" stroke="midnightblue" points="756.548,-515.611 761.349,-506.167 751.706,-510.556 756.548,-515.611"/>
</g>
<!-- Node7 -->
<g id="node7" class="node"><title>Node7</title>
<g id="a_node7"><a xlink:href="classMWGui_1_1WindowBase.html#ace3dc06d8e89a926cd05fb5f94ac757e" target="_top" xlink:title="Notify that window has been made visible. ">
<polygon fill="white" stroke="black" points="706,-651.5 706,-670.5 850,-670.5 850,-651.5 706,-651.5"/>
<text text-anchor="middle" x="778" y="-658.5" font-family="FreeSans" font-size="10.00">MWGui::WindowBase::open</text>
</a>
</g>
</g>
<!-- Node6&#45;&gt;Node7 -->
<g id="edge6" class="edge"><title>Node6&#45;&gt;Node7</title>
<path fill="none" stroke="midnightblue" d="M661.247,-631.896C683.317,-637.446 708.074,-643.67 729.011,-648.934"/>
<polygon fill="midnightblue" stroke="midnightblue" points="728.402,-652.39 738.953,-651.434 730.109,-645.601 728.402,-652.39"/>
</g>
<!-- Node8 -->
<g id="node8" class="node"><title>Node8</title>
<g id="a_node8"><a xlink:href="classMWGui_1_1WindowBase.html#af986f66b831360eceacc01740a0a16fa" target="_top" xlink:title="Notify that window has been hidden. ">
<polygon fill="white" stroke="black" points="718,-602 718,-632 838,-632 838,-602 718,-602"/>
<text text-anchor="start" x="726" y="-620" font-family="FreeSans" font-size="10.00">MWGui::WindowBase::</text>
<text text-anchor="middle" x="778" y="-609" font-family="FreeSans" font-size="10.00">close</text>
</a>
</g>
</g>
<!-- Node6&#45;&gt;Node8 -->
<g id="edge7" class="edge"><title>Node6&#45;&gt;Node8</title>
<path fill="none" stroke="midnightblue" d="M661.247,-617C676.071,-617 692.107,-617 707.384,-617"/>
<polygon fill="midnightblue" stroke="midnightblue" points="707.814,-620.5 717.814,-617 707.814,-613.5 707.814,-620.5"/>
</g>
<!-- Node9 -->
<g id="node9" class="node"><title>Node9</title>
<g id="a_node9"><a xlink:href="classMWBase_1_1WindowManager.html#a24725f89bc9b354a0c51d185f20f38a6" target="_top" xlink:title="Warning: do not use MyGUI::InputManager::setKeyFocusWidget directly. Instead use this. ">
<polygon fill="white" stroke="black" points="708,-388 708,-418 848,-418 848,-388 708,-388"/>
<text text-anchor="start" x="716" y="-406" font-family="FreeSans" font-size="10.00">MWBase::WindowManager</text>
<text text-anchor="middle" x="778" y="-395" font-family="FreeSans" font-size="10.00">::setKeyFocusWidget</text>
</a>
</g>
</g>
<!-- Node6&#45;&gt;Node9 -->
<g id="edge10" class="edge"><title>Node6&#45;&gt;Node9</title>
<path fill="none" stroke="midnightblue" d="M610.659,-601.991C627.257,-573.829 665.514,-511.783 706,-466 719.232,-451.037 735.851,-436.12 749.683,-424.559"/>
<polygon fill="midnightblue" stroke="midnightblue" points="751.957,-427.22 757.459,-418.166 747.511,-421.814 751.957,-427.22"/>
</g>
<!-- Node11&#45;&gt;Node2 -->
<g id="edge13" class="edge"><title>Node11&#45;&gt;Node2</title>
<path fill="none" stroke="midnightblue" d="M261.637,-382.215C281.133,-398.915 315.218,-424.721 350,-435 408.469,-452.279 674.881,-456.774 850,-427 880.612,-421.795 914.115,-410.397 937.922,-401.26"/>
<polygon fill="midnightblue" stroke="midnightblue" points="939.462,-404.416 947.495,-397.507 936.907,-397.899 939.462,-404.416"/>
</g>
<!-- Node11&#45;&gt;Node3 -->
<g id="edge28" class="edge"><title>Node11&#45;&gt;Node3</title>
<path fill="none" stroke="midnightblue" d="M255.073,-382.231C271.646,-405.793 307.136,-450.309 350,-469 466.503,-519.801 618.177,-512.489 705.858,-502.074"/>
<polygon fill="midnightblue" stroke="midnightblue" points="706.471,-505.525 715.966,-500.826 705.613,-498.578 706.471,-505.525"/>
</g>
<!-- Node11&#45;&gt;Node9 -->
<g id="edge29" class="edge"><title>Node11&#45;&gt;Node9</title>
<path fill="none" stroke="midnightblue" d="M313.177,-368.1C363.961,-369.898 434.801,-374.481 496,-386 512.442,-389.095 515.485,-394.326 532,-397 586.896,-405.888 649.601,-407.264 697.831,-406.483"/>
<polygon fill="midnightblue" stroke="midnightblue" points="697.966,-409.981 707.895,-406.285 697.829,-402.982 697.966,-409.981"/>
</g>
<!-- Node12 -->
<g id="node12" class="node"><title>Node12</title>
<g id="a_node12"><a xlink:href="classMWBase_1_1Environment.html#ae60832df5f6fa126b04ebae43e075bfd" target="_top" xlink:title="MWBase::Environment\l::getStateManager">
<polygon fill="white" stroke="black" points="539,-358 539,-388 663,-388 663,-358 539,-358"/>
<text text-anchor="start" x="547" y="-376" font-family="FreeSans" font-size="10.00">MWBase::Environment</text>
<text text-anchor="middle" x="601" y="-365" font-family="FreeSans" font-size="10.00">::getStateManager</text>
</a>
</g>
</g>
<!-- Node11&#45;&gt;Node12 -->
<g id="edge14" class="edge"><title>Node11&#45;&gt;Node12</title>
<path fill="none" stroke="midnightblue" d="M313.211,-356.571C325.433,-355.084 338.072,-353.792 350,-353 414.746,-348.703 431.404,-346.845 496,-353 506.72,-354.021 517.979,-355.622 528.969,-357.484"/>
<polygon fill="midnightblue" stroke="midnightblue" points="528.505,-360.956 538.963,-359.258 529.728,-354.064 528.505,-360.956"/>
</g>
<!-- Node13 -->
<g id="node13" class="node"><title>Node13</title>
<g id="a_node13"><a xlink:href="classMWBase_1_1StateManager.html#a551779a4b0d452753ce081f7bc573040" target="_top" xlink:title="MWBase::StateManager\l::deleteGame">
<polygon fill="white" stroke="black" points="357.5,-396 357.5,-426 488.5,-426 488.5,-396 357.5,-396"/>
<text text-anchor="start" x="365.5" y="-414" font-family="FreeSans" font-size="10.00">MWBase::StateManager</text>
<text text-anchor="middle" x="423" y="-403" font-family="FreeSans" font-size="10.00">::deleteGame</text>
</a>
</g>
</g>
<!-- Node11&#45;&gt;Node13 -->
<g id="edge15" class="edge"><title>Node11&#45;&gt;Node13</title>
<path fill="none" stroke="midnightblue" d="M305.418,-382.019C320.288,-385.716 336.337,-389.705 351.632,-393.507"/>
<polygon fill="midnightblue" stroke="midnightblue" points="351.005,-396.958 361.554,-395.974 352.693,-390.165 351.005,-396.958"/>
</g>
<!-- Node14 -->
<g id="node14" class="node"><title>Node14</title>
<g id="a_node14"><a xlink:href="classMWGui_1_1SaveGameDialog.html#a2fe28da1d982c2876863c81fbb0c4c2c" target="_top" xlink:title="MWGui::SaveGameDialog\l::onSlotSelected">
<polygon fill="white" stroke="black" points="709,-128 709,-158 847,-158 847,-128 709,-128"/>
<text text-anchor="start" x="717" y="-146" font-family="FreeSans" font-size="10.00">MWGui::SaveGameDialog</text>
<text text-anchor="middle" x="778" y="-135" font-family="FreeSans" font-size="10.00">::onSlotSelected</text>
</a>
</g>
</g>
<!-- Node11&#45;&gt;Node14 -->
<g id="edge16" class="edge"><title>Node11&#45;&gt;Node14</title>
<path fill="none" stroke="midnightblue" d="M250.063,-351.861C261.893,-318.946 294.625,-240.719 350,-202 453.746,-129.458 606.825,-127.023 698.743,-133.719"/>
<polygon fill="midnightblue" stroke="midnightblue" points="698.574,-137.216 708.817,-134.507 699.12,-130.238 698.574,-137.216"/>
</g>
<!-- Node25 -->
<g id="node25" class="node"><title>Node25</title>
<g id="a_node25"><a xlink:href="classMWGui_1_1SaveGameDialog.html#acb500f0132909a7c5bd94c2e13fc2e5b" target="_top" xlink:title="MWGui::SaveGameDialog\l::onCharacterSelected">
<polygon fill="white" stroke="black" points="354,-270 354,-300 492,-300 492,-270 354,-270"/>
<text text-anchor="start" x="362" y="-288" font-family="FreeSans" font-size="10.00">MWGui::SaveGameDialog</text>
<text text-anchor="middle" x="423" y="-277" font-family="FreeSans" font-size="10.00">::onCharacterSelected</text>
</a>
</g>
</g>
<!-- Node11&#45;&gt;Node25 -->
<g id="edge30" class="edge"><title>Node11&#45;&gt;Node25</title>
<path fill="none" stroke="midnightblue" d="M274.174,-351.915C295.109,-341.248 324.082,-326.802 350,-315 358.059,-311.33 366.698,-307.578 375.096,-304.025"/>
<polygon fill="midnightblue" stroke="midnightblue" points="376.561,-307.206 384.431,-300.112 373.855,-300.75 376.561,-307.206"/>
</g>
<!-- Node28 -->
<g id="node28" class="node"><title>Node28</title>
<g id="a_node28"><a xlink:href="classMWGui_1_1SaveGameDialog.html#a915ec7166a1a42ffda585336d647ecc4" target="_top" xlink:title="MWGui::SaveGameDialog\l::fillSaveList">
<polygon fill="white" stroke="black" points="532,-172 532,-202 670,-202 670,-172 532,-172"/>
<text text-anchor="start" x="540" y="-190" font-family="FreeSans" font-size="10.00">MWGui::SaveGameDialog</text>
<text text-anchor="middle" x="601" y="-179" font-family="FreeSans" font-size="10.00">::fillSaveList</text>
</a>
</g>
</g>
<!-- Node11&#45;&gt;Node28 -->
<g id="edge42" class="edge"><title>Node11&#45;&gt;Node28</title>
<path fill="none" stroke="midnightblue" d="M255.776,-351.828C273.039,-328.63 309.135,-284.466 350,-260 402.826,-228.373 470.189,-209.737 521.677,-199.221"/>
<polygon fill="midnightblue" stroke="midnightblue" points="522.624,-202.601 531.754,-197.224 521.264,-195.735 522.624,-202.601"/>
</g>
<!-- Node14&#45;&gt;Node2 -->
<g id="edge19" class="edge"><title>Node14&#45;&gt;Node2</title>
<path fill="none" stroke="midnightblue" d="M790.948,-158.326C824.636,-201.539 920.263,-324.202 956.159,-370.245"/>
<polygon fill="midnightblue" stroke="midnightblue" points="953.597,-372.652 962.505,-378.386 959.117,-368.348 953.597,-372.652"/>
</g>
<!-- Node15 -->
<g id="node15" class="node"><title>Node15</title>
<g id="a_node15"><a xlink:href="classMWState_1_1Character.html#a46d862d1d655b0732474635994d57bbb" target="_top" xlink:title="Any call to createSlot and updateSlot can invalidate the returned iterator. ">
<polygon fill="white" stroke="black" points="914.5,-176 914.5,-206 1027.5,-206 1027.5,-176 914.5,-176"/>
<text text-anchor="start" x="922.5" y="-194" font-family="FreeSans" font-size="10.00">MWState::Character</text>
<text text-anchor="middle" x="971" y="-183" font-family="FreeSans" font-size="10.00">::begin</text>
</a>
</g>
</g>
<!-- Node14&#45;&gt;Node15 -->
<g id="edge17" class="edge"><title>Node14&#45;&gt;Node15</title>
<path fill="none" stroke="midnightblue" d="M838.91,-158.056C859.687,-163.277 883.088,-169.158 904.307,-174.491"/>
<polygon fill="midnightblue" stroke="midnightblue" points="903.654,-177.935 914.205,-176.978 905.36,-171.146 903.654,-177.935"/>
</g>
<!-- Node16 -->
<g id="node16" class="node"><title>Node16</title>
<g id="a_node16"><a xlink:href="classMWState_1_1Character.html#af3c9879ded43ca7f911247d91119adab" target="_top" xlink:title="MWState::Character::end">
<polygon fill="white" stroke="black" points="902.5,-225.5 902.5,-244.5 1039.5,-244.5 1039.5,-225.5 902.5,-225.5"/>
<text text-anchor="middle" x="971" y="-232.5" font-family="FreeSans" font-size="10.00">MWState::Character::end</text>
</a>
</g>
</g>
<!-- Node14&#45;&gt;Node16 -->
<g id="edge18" class="edge"><title>Node14&#45;&gt;Node16</title>
<path fill="none" stroke="midnightblue" d="M797.122,-158.204C817.494,-174.547 852.162,-200.171 886,-215 892.702,-217.937 899.902,-220.481 907.167,-222.676"/>
<polygon fill="midnightblue" stroke="midnightblue" points="906.499,-226.123 917.073,-225.455 908.39,-219.384 906.499,-226.123"/>
</g>
<!-- Node17 -->
<g id="node17" class="node"><title>Node17</title>
<g id="a_node17"><a xlink:href="classMWBase_1_1Environment.html#ae14e166d8f5ff8629be119333d502660" target="_top" xlink:title="MWBase::Environment\l::getWorld">
<polygon fill="white" stroke="black" points="909,-127 909,-157 1033,-157 1033,-127 909,-127"/>
<text text-anchor="start" x="917" y="-145" font-family="FreeSans" font-size="10.00">MWBase::Environment</text>
<text text-anchor="middle" x="971" y="-134" font-family="FreeSans" font-size="10.00">::getWorld</text>
</a>
</g>
</g>
<!-- Node14&#45;&gt;Node17 -->
<g id="edge20" class="edge"><title>Node14&#45;&gt;Node17</title>
<path fill="none" stroke="midnightblue" d="M847.146,-142.643C863.826,-142.556 881.721,-142.462 898.55,-142.374"/>
<polygon fill="midnightblue" stroke="midnightblue" points="898.889,-145.872 908.871,-142.32 898.853,-138.873 898.889,-145.872"/>
</g>
<!-- Node18 -->
<g id="node18" class="node"><title>Node18</title>
<g id="a_node18"><a xlink:href="classMWBase_1_1World.html#a7796036e96d42bbe0e3117ce0e089b28" target="_top" xlink:title="Return name of month (&#45;1: current month) ">
<polygon fill="white" stroke="black" points="886,-88.5 886,-107.5 1056,-107.5 1056,-88.5 886,-88.5"/>
<text text-anchor="middle" x="971" y="-95.5" font-family="FreeSans" font-size="10.00">MWBase::World::getMonthName</text>
</a>
</g>
</g>
<!-- Node14&#45;&gt;Node18 -->
<g id="edge21" class="edge"><title>Node14&#45;&gt;Node18</title>
<path fill="none" stroke="midnightblue" d="M840.07,-127.983C855.078,-124.341 871.111,-120.493 886,-117 896.149,-114.619 907,-112.126 917.418,-109.758"/>
<polygon fill="midnightblue" stroke="midnightblue" points="918.257,-113.157 927.237,-107.534 916.711,-106.33 918.257,-113.157"/>
</g>
<!-- Node19 -->
<g id="node19" class="node"><title>Node19</title>
<g id="a_node19"><a xlink:href="classSettings_1_1Manager.html#a7e998aa8bd957a6852d4232facb801a2" target="_top" xlink:title="Settings::Manager::\lgetBool">
<polygon fill="white" stroke="black" points="916,-39 916,-69 1026,-69 1026,-39 916,-39"/>
<text text-anchor="start" x="924" y="-57" font-family="FreeSans" font-size="10.00">Settings::Manager::</text>
<text text-anchor="middle" x="971" y="-46" font-family="FreeSans" font-size="10.00">getBool</text>
</a>
</g>
</g>
<!-- Node14&#45;&gt;Node19 -->
<g id="edge22" class="edge"><title>Node14&#45;&gt;Node19</title>
<path fill="none" stroke="midnightblue" d="M800.672,-127.825C821.694,-113.649 854.889,-92.6757 886,-79 892.512,-76.1375 899.447,-73.4867 906.433,-71.0659"/>
<polygon fill="midnightblue" stroke="midnightblue" points="907.566,-74.3778 915.956,-67.9089 905.363,-67.7333 907.566,-74.3778"/>
</g>
<!-- Node24 -->
<g id="node24" class="node"><title>Node24</title>
<g id="a_node24"><a xlink:href="namespaceMWGui.html#a6a744b5d80973c41992f394b17dfd328" target="_top" xlink:title="MWGui::formatTimeplayed">
<polygon fill="white" stroke="black" points="900,-0.5 900,-19.5 1042,-19.5 1042,-0.5 900,-0.5"/>
<text text-anchor="middle" x="971" y="-7.5" font-family="FreeSans" font-size="10.00">MWGui::formatTimeplayed</text>
</a>
</g>
</g>
<!-- Node14&#45;&gt;Node24 -->
<g id="edge27" class="edge"><title>Node14&#45;&gt;Node24</title>
<path fill="none" stroke="midnightblue" d="M788.796,-127.715C805.551,-102.893 842.18,-54.0756 886,-29 889.901,-26.7675 894.045,-24.7974 898.32,-23.0587"/>
<polygon fill="midnightblue" stroke="midnightblue" points="899.634,-26.3054 907.845,-19.6103 897.251,-19.7234 899.634,-26.3054"/>
</g>
<!-- Node20 -->
<g id="node20" class="node"><title>Node20</title>
<g id="a_node20"><a xlink:href="namespaceanonymous__namespace_02settings_8cpp_03.html#a5aacf12d76082c18b9cf940ab0daed73" target="_top" xlink:title="anonymous_namespace\l\{settings::cpp\}::parseBool">
<polygon fill="white" stroke="black" points="1092,-64 1092,-94 1236,-94 1236,-64 1092,-64"/>
<text text-anchor="start" x="1100" y="-82" font-family="FreeSans" font-size="10.00">anonymous_namespace</text>
<text text-anchor="middle" x="1164" y="-71" font-family="FreeSans" font-size="10.00">{settings::cpp}::parseBool</text>
</a>
</g>
</g>
<!-- Node19&#45;&gt;Node20 -->
<g id="edge23" class="edge"><title>Node19&#45;&gt;Node20</title>
<path fill="none" stroke="midnightblue" d="M1026.22,-61.0971C1043.52,-63.3609 1063.05,-65.9174 1081.82,-68.375"/>
<polygon fill="midnightblue" stroke="midnightblue" points="1081.49,-71.8606 1091.86,-69.6881 1082.4,-64.9198 1081.49,-71.8606"/>
</g>
<!-- Node23 -->
<g id="node23" class="node"><title>Node23</title>
<g id="a_node23"><a xlink:href="classSettings_1_1Manager.html#ae09758032359a72e34df4085f7bd252e" target="_top" xlink:title="Settings::Manager::\lgetString">
<polygon fill="white" stroke="black" points="1109,-15 1109,-45 1219,-45 1219,-15 1109,-15"/>
<text text-anchor="start" x="1117" y="-33" font-family="FreeSans" font-size="10.00">Settings::Manager::</text>
<text text-anchor="middle" x="1164" y="-22" font-family="FreeSans" font-size="10.00">getString</text>
</a>
</g>
</g>
<!-- Node19&#45;&gt;Node23 -->
<g id="edge26" class="edge"><title>Node19&#45;&gt;Node23</title>
<path fill="none" stroke="midnightblue" d="M1026.22,-47.1868C1048.9,-44.3371 1075.42,-41.0043 1099.05,-38.036"/>
<polygon fill="midnightblue" stroke="midnightblue" points="1099.49,-41.5082 1108.97,-36.7887 1098.61,-34.5628 1099.49,-41.5082"/>
</g>
<!-- Node21 -->
<g id="node21" class="node"><title>Node21</title>
<g id="a_node21"><a xlink:href="classMisc_1_1StringUtils.html#a0f8cb0ac134191ba8417f74ab7dc4de6" target="_top" xlink:title="Misc::StringUtils::\lciEqual">
<polygon fill="white" stroke="black" points="1272.5,-64 1272.5,-94 1371.5,-94 1371.5,-64 1272.5,-64"/>
<text text-anchor="start" x="1280.5" y="-82" font-family="FreeSans" font-size="10.00">Misc::StringUtils::</text>
<text text-anchor="middle" x="1322" y="-71" font-family="FreeSans" font-size="10.00">ciEqual</text>
</a>
</g>
</g>
<!-- Node20&#45;&gt;Node21 -->
<g id="edge24" class="edge"><title>Node20&#45;&gt;Node21</title>
<path fill="none" stroke="midnightblue" d="M1236.15,-79C1244.84,-79 1253.63,-79 1262.11,-79"/>
<polygon fill="midnightblue" stroke="midnightblue" points="1262.26,-82.5001 1272.26,-79 1262.26,-75.5001 1262.26,-82.5001"/>
</g>
<!-- Node22 -->
<g id="node22" class="node"><title>Node22</title>
<g id="a_node22"><a xlink:href="classMisc_1_1StringUtils.html#a0759adb102842ee3bced227707eb6949" target="_top" xlink:title="Misc::StringUtils::\ltoLower">
<polygon fill="white" stroke="black" points="1408.5,-64 1408.5,-94 1507.5,-94 1507.5,-64 1408.5,-64"/>
<text text-anchor="start" x="1416.5" y="-82" font-family="FreeSans" font-size="10.00">Misc::StringUtils::</text>
<text text-anchor="middle" x="1458" y="-71" font-family="FreeSans" font-size="10.00">toLower</text>
</a>
</g>
</g>
<!-- Node21&#45;&gt;Node22 -->
<g id="edge25" class="edge"><title>Node21&#45;&gt;Node22</title>
<path fill="none" stroke="midnightblue" d="M1371.76,-79C1380.25,-79 1389.18,-79 1397.92,-79"/>
<polygon fill="midnightblue" stroke="midnightblue" points="1398.06,-82.5001 1408.06,-79 1398.06,-75.5001 1398.06,-82.5001"/>
</g>
<!-- Node25&#45;&gt;Node2 -->
<g id="edge31" class="edge"><title>Node25&#45;&gt;Node2</title>
<path fill="none" stroke="midnightblue" d="M489.59,-300.018C503.566,-303.094 518.254,-306.234 532,-309 662.976,-335.353 816.832,-362.146 902.914,-376.763"/>
<polygon fill="midnightblue" stroke="midnightblue" points="902.37,-380.221 912.814,-378.441 903.54,-373.319 902.37,-380.221"/>
</g>
<!-- Node25&#45;&gt;Node12 -->
<g id="edge32" class="edge"><title>Node25&#45;&gt;Node12</title>
<path fill="none" stroke="midnightblue" d="M465.653,-300.144C475.837,-304.442 486.525,-309.475 496,-315 513.51,-325.211 514.596,-332.609 532,-343 538.322,-346.775 545.204,-350.357 552.083,-353.645"/>
<polygon fill="midnightblue" stroke="midnightblue" points="550.86,-356.936 561.407,-357.938 553.787,-350.577 550.86,-356.936"/>
</g>
<!-- Node26 -->
<g id="node26" class="node"><title>Node26</title>
<g id="a_node26"><a xlink:href="classMWBase_1_1StateManager.html#aa737a1cbe9de84a99cc19c3881071cf6" target="_top" xlink:title="MWBase::StateManager\l::characterBegin">
<polygon fill="white" stroke="black" points="535.5,-221 535.5,-251 666.5,-251 666.5,-221 535.5,-221"/>
<text text-anchor="start" x="543.5" y="-239" font-family="FreeSans" font-size="10.00">MWBase::StateManager</text>
<text text-anchor="middle" x="601" y="-228" font-family="FreeSans" font-size="10.00">::characterBegin</text>
</a>
</g>
</g>
<!-- Node25&#45;&gt;Node26 -->
<g id="edge33" class="edge"><title>Node25&#45;&gt;Node26</title>
<path fill="none" stroke="midnightblue" d="M478.242,-269.899C496.562,-264.798 517.183,-259.057 536.175,-253.77"/>
<polygon fill="midnightblue" stroke="midnightblue" points="537.242,-257.105 545.937,-251.052 535.365,-250.362 537.242,-257.105"/>
</g>
<!-- Node27 -->
<g id="node27" class="node"><title>Node27</title>
<g id="a_node27"><a xlink:href="classMWBase_1_1StateManager.html#a08aee180fce373e834603b2ca481bdd4" target="_top" xlink:title="MWBase::StateManager\l::characterEnd">
<polygon fill="white" stroke="black" points="535.5,-270 535.5,-300 666.5,-300 666.5,-270 535.5,-270"/>
<text text-anchor="start" x="543.5" y="-288" font-family="FreeSans" font-size="10.00">MWBase::StateManager</text>
<text text-anchor="middle" x="601" y="-277" font-family="FreeSans" font-size="10.00">::characterEnd</text>
</a>
</g>
</g>
<!-- Node25&#45;&gt;Node27 -->
<g id="edge34" class="edge"><title>Node25&#45;&gt;Node27</title>
<path fill="none" stroke="midnightblue" d="M492.046,-285C502.933,-285 514.25,-285 525.282,-285"/>
<polygon fill="midnightblue" stroke="midnightblue" points="525.312,-288.5 535.312,-285 525.312,-281.5 525.312,-288.5"/>
</g>
<!-- Node25&#45;&gt;Node28 -->
<g id="edge35" class="edge"><title>Node25&#45;&gt;Node28</title>
<path fill="none" stroke="midnightblue" d="M442.943,-269.739C463.79,-253.503 498.766,-227.882 532,-211 535.479,-209.233 539.12,-207.54 542.83,-205.93"/>
<polygon fill="midnightblue" stroke="midnightblue" points="544.226,-209.14 552.146,-202.102 541.566,-202.665 544.226,-209.14"/>
</g>
<!-- Node28&#45;&gt;Node2 -->
<g id="edge39" class="edge"><title>Node28&#45;&gt;Node2</title>
<path fill="none" stroke="midnightblue" d="M648.183,-202.001C655.572,-204.77 663.064,-207.805 670,-211 778.879,-261.146 899.014,-339.757 947.693,-372.686"/>
<polygon fill="midnightblue" stroke="midnightblue" points="945.955,-375.736 956.193,-378.463 949.89,-369.947 945.955,-375.736"/>
</g>
<!-- Node28&#45;&gt;Node3 -->
<g id="edge40" class="edge"><title>Node28&#45;&gt;Node3</title>
<path fill="none" stroke="midnightblue" d="M659.924,-202.062C663.675,-204.592 667.102,-207.548 670,-211 732.573,-285.542 659.24,-341.645 706,-427 715.265,-443.911 730.746,-458.656 744.892,-469.717"/>
<polygon fill="midnightblue" stroke="midnightblue" points="742.906,-472.602 753.01,-475.792 747.101,-466.998 742.906,-472.602"/>
</g>
<!-- Node28&#45;&gt;Node9 -->
<g id="edge41" class="edge"><title>Node28&#45;&gt;Node9</title>
<path fill="none" stroke="midnightblue" d="M657.763,-202.082C662.196,-204.612 666.359,-207.562 670,-211 700.125,-239.451 686.378,-260.504 706,-297 721.969,-326.702 744.056,-358.567 759.336,-379.517"/>
<polygon fill="midnightblue" stroke="midnightblue" points="756.681,-381.814 765.43,-387.789 762.317,-377.662 756.681,-381.814"/>
</g>
<!-- Node28&#45;&gt;Node14 -->
<g id="edge38" class="edge"><title>Node28&#45;&gt;Node14</title>
<path fill="none" stroke="midnightblue" d="M661.736,-171.981C676.437,-168.284 692.305,-164.295 707.427,-160.493"/>
<polygon fill="midnightblue" stroke="midnightblue" points="708.392,-163.859 717.237,-158.026 706.685,-157.07 708.392,-163.859"/>
</g>
<!-- Node28&#45;&gt;Node15 -->
<g id="edge36" class="edge"><title>Node28&#45;&gt;Node15</title>
<path fill="none" stroke="midnightblue" d="M670.356,-187.743C737.142,-188.469 838.113,-189.566 904.06,-190.283"/>
<polygon fill="midnightblue" stroke="midnightblue" points="904.295,-193.786 914.333,-190.395 904.371,-186.786 904.295,-193.786"/>
</g>
<!-- Node28&#45;&gt;Node16 -->
<g id="edge37" class="edge"><title>Node28&#45;&gt;Node16</title>
<path fill="none" stroke="midnightblue" d="M670.204,-197.813C682.126,-199.611 694.417,-201.407 706,-203 768.628,-211.611 839.786,-220.165 892.433,-226.26"/>
<polygon fill="midnightblue" stroke="midnightblue" points="892.038,-229.737 902.374,-227.407 892.841,-222.783 892.038,-229.737"/>
</g>
</g>
</svg>
