<?xml version="1.0" encoding="UTF-8" standalone="no"?>
<!DOCTYPE svg PUBLIC "-//W3C//DTD SVG 1.1//EN"
 "http://www.w3.org/Graphics/SVG/1.1/DTD/svg11.dtd">
<!-- Generated by graphviz version 2.36.0 (20140111.2315)
 -->
<!-- Title: MWInput::InputManager::buttonPressed Pages: 1 -->
<svg width="296pt" height="371pt"
 viewBox="0.00 0.00 296.00 371.00" xmlns="http://www.w3.org/2000/svg" xmlns:xlink="http://www.w3.org/1999/xlink">
<g id="graph0" class="graph" transform="scale(1 1) rotate(0) translate(4 367)">
<title>MWInput::InputManager::buttonPressed</title>
<polygon fill="white" stroke="none" points="-4,4 -4,-367 292,-367 292,4 -4,4"/>
<!-- Node1 -->
<g id="node1" class="node"><title>Node1</title>
<polygon fill="#bfbfbf" stroke="black" points="0.5,-171 0.5,-201 119.5,-201 119.5,-171 0.5,-171"/>
<text text-anchor="start" x="8.5" y="-189" font-family="FreeSans" font-size="10.00">MWInput::InputManager</text>
<text text-anchor="middle" x="60" y="-178" font-family="FreeSans" font-size="10.00">::buttonPressed</text>
</g>
<!-- Node2 -->
<g id="node2" class="node"><title>Node2</title>
<g id="a_node2"><a xlink:href="classMWBase_1_1Environment.html#a73f12633762b049c03c80fe215873faa" target="_top" xlink:title="Return instance of this class. ">
<polygon fill="white" stroke="black" points="156.5,-343.5 156.5,-362.5 287.5,-362.5 287.5,-343.5 156.5,-343.5"/>
<text text-anchor="middle" x="222" y="-350.5" font-family="FreeSans" font-size="10.00">MWBase::Environment::get</text>
</a>
</g>
</g>
<!-- Node1&#45;&gt;Node2 -->
<g id="edge1" class="edge"><title>Node1&#45;&gt;Node2</title>
<path fill="none" stroke="midnightblue" d="M66.7458,-201.431C78.6739,-231.351 108.992,-297.429 156,-333 159.141,-335.377 162.567,-337.474 166.15,-339.323"/>
<polygon fill="midnightblue" stroke="midnightblue" points="164.753,-342.532 175.31,-343.43 167.617,-336.145 164.753,-342.532"/>
</g>
<!-- Node3 -->
<g id="node3" class="node"><title>Node3</title>
<g id="a_node3"><a xlink:href="classMWBase_1_1Environment.html#aeeef9a580df0312f0a9b7380488dea21" target="_top" xlink:title="MWBase::Environment\l::getWindowManager">
<polygon fill="white" stroke="black" points="165.5,-294 165.5,-324 278.5,-324 278.5,-294 165.5,-294"/>
<text text-anchor="start" x="173.5" y="-312" font-family="FreeSans" font-size="10.00">MWBase::Environment</text>
<text text-anchor="middle" x="222" y="-301" font-family="FreeSans" font-size="10.00">::getWindowManager</text>
</a>
</g>
</g>
<!-- Node1&#45;&gt;Node3 -->
<g id="edge2" class="edge"><title>Node1&#45;&gt;Node3</title>
<path fill="none" stroke="midnightblue" d="M72.2839,-201.272C88.6294,-222.448 120.813,-260.742 156,-284 158.912,-285.925 161.995,-287.734 165.172,-289.428"/>
<polygon fill="midnightblue" stroke="midnightblue" points="163.792,-292.65 174.313,-293.902 166.869,-286.362 163.792,-292.65"/>
</g>
<!-- Node4 -->
<g id="node4" class="node"><title>Node4</title>
<g id="a_node4"><a xlink:href="classMWBase_1_1WindowManager.html#acbea74d90003b269859a0d8c8c2cc5c4" target="_top" xlink:title="MWBase::WindowManager\l::isGuiMode">
<polygon fill="white" stroke="black" points="156.5,-245 156.5,-275 287.5,-275 287.5,-245 156.5,-245"/>
<text text-anchor="start" x="164.5" y="-263" font-family="FreeSans" font-size="10.00">MWBase::WindowManager</text>
<text text-anchor="middle" x="222" y="-252" font-family="FreeSans" font-size="10.00">::isGuiMode</text>
</a>
</g>
</g>
<!-- Node1&#45;&gt;Node4 -->
<g id="edge3" class="edge"><title>Node1&#45;&gt;Node4</title>
<path fill="none" stroke="midnightblue" d="M88.4613,-201.175C107.227,-211.292 132.803,-224.594 156,-235 160.638,-237.081 165.507,-239.152 170.404,-241.162"/>
<polygon fill="midnightblue" stroke="midnightblue" points="169.221,-244.458 179.805,-244.935 171.829,-237.962 169.221,-244.458"/>
</g>
<!-- Node5 -->
<g id="node5" class="node"><title>Node5</title>
<g id="a_node5"><a xlink:href="classMWInput_1_1InputManager.html#a0b9f7725c45e722191167dcf9cfd94e0" target="_top" xlink:title="MWInput::InputManager\l::sdlButtonToMyGUI">
<polygon fill="white" stroke="black" points="162.5,-196 162.5,-226 281.5,-226 281.5,-196 162.5,-196"/>
<text text-anchor="start" x="170.5" y="-214" font-family="FreeSans" font-size="10.00">MWInput::InputManager</text>
<text text-anchor="middle" x="222" y="-203" font-family="FreeSans" font-size="10.00">::sdlButtonToMyGUI</text>
</a>
</g>
</g>
<!-- Node1&#45;&gt;Node5 -->
<g id="edge4" class="edge"><title>Node1&#45;&gt;Node5</title>
<path fill="none" stroke="midnightblue" d="M119.67,-195.167C130.322,-196.832 141.519,-198.581 152.426,-200.285"/>
<polygon fill="midnightblue" stroke="midnightblue" points="151.917,-203.748 162.338,-201.834 152.998,-196.832 151.917,-203.748"/>
</g>
<!-- Node6 -->
<g id="node6" class="node"><title>Node6</title>
<g id="a_node6"><a xlink:href="classMWBase_1_1Environment.html#a4506cf05dc1136ff7262f69a7a0860c1" target="_top" xlink:title="MWBase::Environment\l::getSoundManager">
<polygon fill="white" stroke="black" points="165.5,-147 165.5,-177 278.5,-177 278.5,-147 165.5,-147"/>
<text text-anchor="start" x="173.5" y="-165" font-family="FreeSans" font-size="10.00">MWBase::Environment</text>
<text text-anchor="middle" x="222" y="-154" font-family="FreeSans" font-size="10.00">::getSoundManager</text>
</a>
</g>
</g>
<!-- Node1&#45;&gt;Node6 -->
<g id="edge5" class="edge"><title>Node1&#45;&gt;Node6</title>
<path fill="none" stroke="midnightblue" d="M119.67,-177.2C131.189,-175.472 143.346,-173.648 155.084,-171.887"/>
<polygon fill="midnightblue" stroke="midnightblue" points="155.896,-175.305 165.266,-170.36 154.858,-168.382 155.896,-175.305"/>
</g>
<!-- Node7 -->
<g id="node7" class="node"><title>Node7</title>
<g id="a_node7"><a xlink:href="classMWBase_1_1SoundManager.html#a86faa2600e30cc6fd9b127e12d1c12bc" target="_top" xlink:title="MWBase::SoundManager\l::playSound">
<polygon fill="white" stroke="black" points="159.5,-98 159.5,-128 284.5,-128 284.5,-98 159.5,-98"/>
<text text-anchor="start" x="167.5" y="-116" font-family="FreeSans" font-size="10.00">MWBase::SoundManager</text>
<text text-anchor="middle" x="222" y="-105" font-family="FreeSans" font-size="10.00">::playSound</text>
</a>
</g>
</g>
<!-- Node1&#45;&gt;Node7 -->
<g id="edge6" class="edge"><title>Node1&#45;&gt;Node7</title>
<path fill="none" stroke="midnightblue" d="M88.9097,-170.964C107.652,-161.1 133.028,-148.19 156,-138 160.647,-135.939 165.521,-133.88 170.422,-131.879"/>
<polygon fill="midnightblue" stroke="midnightblue" points="171.844,-135.08 179.828,-128.115 169.243,-128.581 171.844,-135.08"/>
</g>
<!-- Node8 -->
<g id="node8" class="node"><title>Node8</title>
<g id="a_node8"><a xlink:href="classMWInput_1_1InputManager.html#a1c0fd2933d26db3d153e92f9cea13c4d" target="_top" xlink:title="MWInput::InputManager\l::setPlayerControlsEnabled">
<polygon fill="white" stroke="black" points="156.5,-49 156.5,-79 287.5,-79 287.5,-49 156.5,-49"/>
<text text-anchor="start" x="164.5" y="-67" font-family="FreeSans" font-size="10.00">MWInput::InputManager</text>
<text text-anchor="middle" x="222" y="-56" font-family="FreeSans" font-size="10.00">::setPlayerControlsEnabled</text>
</a>
</g>
</g>
<!-- Node1&#45;&gt;Node8 -->
<g id="edge7" class="edge"><title>Node1&#45;&gt;Node8</title>
<path fill="none" stroke="midnightblue" d="M72.3189,-170.891C88.7059,-149.939 120.939,-112.046 156,-89 158.917,-87.0824 162.004,-85.2793 165.183,-83.5893"/>
<polygon fill="midnightblue" stroke="midnightblue" points="166.879,-86.6565 174.33,-79.1248 163.808,-80.3659 166.879,-86.6565"/>
</g>
<!-- Node9 -->
<g id="node9" class="node"><title>Node9</title>
<g id="a_node9"><a xlink:href="classSDLUtil_1_1InputWrapper.html#aae77a2446d0c9c7c4d83be0151e69ed2" target="_top" xlink:title="SDLUtil::InputWrapper\l::sdl2OISKeyCode">
<polygon fill="white" stroke="black" points="166,-0 166,-30 278,-30 278,-0 166,-0"/>
<text text-anchor="start" x="174" y="-18" font-family="FreeSans" font-size="10.00">SDLUtil::InputWrapper</text>
<text text-anchor="middle" x="222" y="-7" font-family="FreeSans" font-size="10.00">::sdl2OISKeyCode</text>
</a>
</g>
</g>
<!-- Node1&#45;&gt;Node9 -->
<g id="edge8" class="edge"><title>Node1&#45;&gt;Node9</title>
<path fill="none" stroke="midnightblue" d="M66.9941,-170.953C79.3572,-141.725 110.403,-76.9148 156,-40 158.056,-38.3358 160.235,-36.7735 162.501,-35.3078"/>
<polygon fill="midnightblue" stroke="midnightblue" points="164.643,-38.1153 171.597,-30.1222 161.176,-32.034 164.643,-38.1153"/>
</g>
</g>
</svg>
