<?xml version="1.0" encoding="UTF-8" standalone="no"?>
<!DOCTYPE svg PUBLIC "-//W3C//DTD SVG 1.1//EN"
 "http://www.w3.org/Graphics/SVG/1.1/DTD/svg11.dtd">
<!-- Generated by graphviz version 2.36.0 (20140111.2315)
 -->
<!-- Title: CSMWorld::IdTable::findColumnIndex Pages: 1 -->
<svg width="708pt" height="1459pt"
 viewBox="0.00 0.00 708.00 1459.00" xmlns="http://www.w3.org/2000/svg" xmlns:xlink="http://www.w3.org/1999/xlink">
<g id="graph0" class="graph" transform="scale(1 1) rotate(0) translate(4 1455)">
<title>CSMWorld::IdTable::findColumnIndex</title>
<polygon fill="white" stroke="none" points="-4,4 -4,-1455 704,-1455 704,4 -4,4"/>
<!-- Node1 -->
<g id="node1" class="node"><title>Node1</title>
<polygon fill="#bfbfbf" stroke="black" points="0,-710 0,-740 108,-740 108,-710 0,-710"/>
<text text-anchor="start" x="8" y="-728" font-family="FreeSans" font-size="10.00">CSMWorld::IdTable::</text>
<text text-anchor="middle" x="54" y="-717" font-family="FreeSans" font-size="10.00">findColumnIndex</text>
</g>
<!-- Node2 -->
<g id="node2" class="node"><title>Node2</title>
<g id="a_node2"><a xlink:href="classCSVRender_1_1Cell.html#aefece846db42d5d1a594032724202cec" target="_top" xlink:title="CSVRender::Cell::reference\lDataChanged">
<polygon fill="white" stroke="black" points="160.5,-1421 160.5,-1451 305.5,-1451 305.5,-1421 160.5,-1421"/>
<text text-anchor="start" x="168.5" y="-1439" font-family="FreeSans" font-size="10.00">CSVRender::Cell::reference</text>
<text text-anchor="middle" x="233" y="-1428" font-family="FreeSans" font-size="10.00">DataChanged</text>
</a>
</g>
</g>
<!-- Node1&#45;&gt;Node2 -->
<g id="edge1" class="edge"><title>Node1&#45;&gt;Node2</title>
<path fill="none" stroke="midnightblue" d="M54.7026,-750.339C53.9109,-862.028 56.3382,-1309.32 144,-1411 148.563,-1416.29 154.157,-1420.5 160.293,-1423.85"/>
<polygon fill="midnightblue" stroke="midnightblue" points="58.2049,-750.077 54.7923,-740.047 51.2052,-750.016 58.2049,-750.077"/>
</g>
<!-- Node3 -->
<g id="node3" class="node"><title>Node3</title>
<g id="a_node3"><a xlink:href="classCSVRender_1_1Cell.html#a13952285e4b5ca9bcff17d386d3e81fc" target="_top" xlink:title="CSVRender::Cell::reference\lAboutToBeRemoved">
<polygon fill="white" stroke="black" points="160.5,-1372 160.5,-1402 305.5,-1402 305.5,-1372 160.5,-1372"/>
<text text-anchor="start" x="168.5" y="-1390" font-family="FreeSans" font-size="10.00">CSVRender::Cell::reference</text>
<text text-anchor="middle" x="233" y="-1379" font-family="FreeSans" font-size="10.00">AboutToBeRemoved</text>
</a>
</g>
</g>
<!-- Node1&#45;&gt;Node3 -->
<g id="edge2" class="edge"><title>Node1&#45;&gt;Node3</title>
<path fill="none" stroke="midnightblue" d="M54.9832,-750.228C55.4262,-856.731 62.4667,-1268.36 144,-1362 148.589,-1367.27 154.2,-1371.47 160.347,-1374.8"/>
<polygon fill="midnightblue" stroke="midnightblue" points="58.4829,-750.087 54.9579,-740.095 51.4829,-750.104 58.4829,-750.087"/>
</g>
<!-- Node4 -->
<g id="node4" class="node"><title>Node4</title>
<g id="a_node4"><a xlink:href="classCSMWorld_1_1CommandDispatcher.html#ac0febc7bd679dbe81bdf11a1a520d6b1" target="_top" xlink:title="CSMWorld::CommandDispatcher\l::getDeletableRecords">
<polygon fill="white" stroke="black" points="147,-1323 147,-1353 319,-1353 319,-1323 147,-1323"/>
<text text-anchor="start" x="155" y="-1341" font-family="FreeSans" font-size="10.00">CSMWorld::CommandDispatcher</text>
<text text-anchor="middle" x="233" y="-1330" font-family="FreeSans" font-size="10.00">::getDeletableRecords</text>
</a>
</g>
</g>
<!-- Node1&#45;&gt;Node4 -->
<g id="edge3" class="edge"><title>Node1&#45;&gt;Node4</title>
<path fill="none" stroke="midnightblue" d="M55.3081,-750.213C57.0565,-851.495 68.6035,-1227.4 144,-1313 147.359,-1316.81 151.254,-1320.06 155.497,-1322.83"/>
<polygon fill="midnightblue" stroke="midnightblue" points="58.8046,-749.954 55.1499,-740.01 51.8055,-750.063 58.8046,-749.954"/>
</g>
<!-- Node5 -->
<g id="node5" class="node"><title>Node5</title>
<g id="a_node5"><a xlink:href="classCSMWorld_1_1CommandDispatcher.html#a73aa1f42c7cacee96755ff344e16b6aa" target="_top" xlink:title="CSMWorld::CommandDispatcher\l::getRevertableRecords">
<polygon fill="white" stroke="black" points="147,-1274 147,-1304 319,-1304 319,-1274 147,-1274"/>
<text text-anchor="start" x="155" y="-1292" font-family="FreeSans" font-size="10.00">CSMWorld::CommandDispatcher</text>
<text text-anchor="middle" x="233" y="-1281" font-family="FreeSans" font-size="10.00">::getRevertableRecords</text>
</a>
</g>
</g>
<!-- Node1&#45;&gt;Node5 -->
<g id="edge4" class="edge"><title>Node1&#45;&gt;Node5</title>
<path fill="none" stroke="midnightblue" d="M55.6919,-750.252C58.8282,-846.17 74.7345,-1186.42 144,-1264 147.385,-1267.79 151.298,-1271.03 155.556,-1273.78"/>
<polygon fill="midnightblue" stroke="midnightblue" points="59.1836,-749.926 55.3769,-740.039 52.187,-750.142 59.1836,-749.926"/>
</g>
<!-- Node6 -->
<g id="node6" class="node"><title>Node6</title>
<g id="a_node6"><a xlink:href="classCSMWorld_1_1CommandDispatcher.html#a0a642516aa0abff5253006c3d2cfe584" target="_top" xlink:title="CSMWorld::CommandDispatcher\l::executeDelete">
<polygon fill="white" stroke="black" points="147,-1225 147,-1255 319,-1255 319,-1225 147,-1225"/>
<text text-anchor="start" x="155" y="-1243" font-family="FreeSans" font-size="10.00">CSMWorld::CommandDispatcher</text>
<text text-anchor="middle" x="233" y="-1232" font-family="FreeSans" font-size="10.00">::executeDelete</text>
</a>
</g>
</g>
<!-- Node1&#45;&gt;Node6 -->
<g id="edge5" class="edge"><title>Node1&#45;&gt;Node6</title>
<path fill="none" stroke="midnightblue" d="M56.1508,-750.275C60.7656,-840.548 80.839,-1145.39 144,-1215 147.522,-1218.88 151.598,-1222.18 156.027,-1224.98"/>
<polygon fill="midnightblue" stroke="midnightblue" points="59.639,-749.948 55.652,-740.132 52.6475,-750.291 59.639,-749.948"/>
</g>
<!-- Node7 -->
<g id="node7" class="node"><title>Node7</title>
<g id="a_node7"><a xlink:href="classCSMWorld_1_1CommandDispatcher.html#ab6369abed5201cd2bc46c9b4a074c20e" target="_top" xlink:title="CSMWorld::CommandDispatcher\l::executeRevert">
<polygon fill="white" stroke="black" points="147,-1176 147,-1206 319,-1206 319,-1176 147,-1176"/>
<text text-anchor="start" x="155" y="-1194" font-family="FreeSans" font-size="10.00">CSMWorld::CommandDispatcher</text>
<text text-anchor="middle" x="233" y="-1183" font-family="FreeSans" font-size="10.00">::executeRevert</text>
</a>
</g>
</g>
<!-- Node1&#45;&gt;Node7 -->
<g id="edge6" class="edge"><title>Node1&#45;&gt;Node7</title>
<path fill="none" stroke="midnightblue" d="M56.7232,-750.483C62.9438,-835.023 86.9587,-1104.35 144,-1166 147.559,-1169.85 151.663,-1173.12 156.113,-1175.9"/>
<polygon fill="midnightblue" stroke="midnightblue" points="60.2112,-750.189 56.0064,-740.465 53.229,-750.689 60.2112,-750.189"/>
</g>
<!-- Node8 -->
<g id="node8" class="node"><title>Node8</title>
<g id="a_node8"><a xlink:href="classCSVWorld_1_1RegionMap.html#a6263537a5a23df19834ba92a6112f096" target="_top" xlink:title="Set region Id of selected cells. ">
<polygon fill="white" stroke="black" points="173,-1127 173,-1157 293,-1157 293,-1127 173,-1127"/>
<text text-anchor="start" x="181" y="-1145" font-family="FreeSans" font-size="10.00">CSVWorld::RegionMap</text>
<text text-anchor="middle" x="233" y="-1134" font-family="FreeSans" font-size="10.00">::setRegion</text>
</a>
</g>
</g>
<!-- Node1&#45;&gt;Node8 -->
<g id="edge7" class="edge"><title>Node1&#45;&gt;Node8</title>
<path fill="none" stroke="midnightblue" d="M57.4122,-750.395C65.329,-828.508 92.9795,-1063.17 144,-1117 151.757,-1125.18 161.981,-1130.75 172.706,-1134.52"/>
<polygon fill="midnightblue" stroke="midnightblue" points="60.8559,-749.653 56.3869,-740.047 53.89,-750.343 60.8559,-749.653"/>
</g>
<!-- Node9 -->
<g id="node9" class="node"><title>Node9</title>
<g id="a_node9"><a xlink:href="classCSVWorld_1_1RegionMap.html#a82b70db560efb114ece257922702a0f8" target="_top" xlink:title="CSVWorld::RegionMap\l::dropEvent">
<polygon fill="white" stroke="black" points="173,-1078 173,-1108 293,-1108 293,-1078 173,-1078"/>
<text text-anchor="start" x="181" y="-1096" font-family="FreeSans" font-size="10.00">CSVWorld::RegionMap</text>
<text text-anchor="middle" x="233" y="-1085" font-family="FreeSans" font-size="10.00">::dropEvent</text>
</a>
</g>
</g>
<!-- Node1&#45;&gt;Node9 -->
<g id="edge8" class="edge"><title>Node1&#45;&gt;Node9</title>
<path fill="none" stroke="midnightblue" d="M58.3117,-750.479C68.0907,-821.923 98.9997,-1021.96 144,-1068 151.882,-1076.06 162.161,-1081.58 172.9,-1085.34"/>
<polygon fill="midnightblue" stroke="midnightblue" points="61.7258,-749.604 56.9248,-740.16 54.7882,-750.537 61.7258,-749.604"/>
</g>
<!-- Node10 -->
<g id="node10" class="node"><title>Node10</title>
<g id="a_node10"><a xlink:href="classCSVDoc_1_1GlobalDebugProfileMenu.html#a88c08819f0c9215355cda40ef25759b8" target="_top" xlink:title="CSVDoc::GlobalDebugProfile\lMenu::rebuild">
<polygon fill="white" stroke="black" points="157,-1029 157,-1059 309,-1059 309,-1029 157,-1029"/>
<text text-anchor="start" x="165" y="-1047" font-family="FreeSans" font-size="10.00">CSVDoc::GlobalDebugProfile</text>
<text text-anchor="middle" x="233" y="-1036" font-family="FreeSans" font-size="10.00">Menu::rebuild</text>
</a>
</g>
</g>
<!-- Node1&#45;&gt;Node10 -->
<g id="edge9" class="edge"><title>Node1&#45;&gt;Node10</title>
<path fill="none" stroke="midnightblue" d="M54.9907,-750.184C56.3832,-806.63 67.8777,-944.172 144,-1019 147.964,-1022.9 152.489,-1026.2 157.348,-1028.99"/>
<polygon fill="midnightblue" stroke="midnightblue" points="58.4877,-749.963 54.8307,-740.019 51.4886,-750.073 58.4877,-749.963"/>
</g>
<!-- Node12 -->
<g id="node12" class="node"><title>Node12</title>
<g id="a_node12"><a xlink:href="classCSVRender_1_1InstanceMode.html#ae4584bfa496a5c6a92a83d57b0c10561" target="_top" xlink:title="Default&#45;implementation: ignored. ">
<polygon fill="white" stroke="black" points="161.5,-980 161.5,-1010 304.5,-1010 304.5,-980 161.5,-980"/>
<text text-anchor="start" x="169.5" y="-998" font-family="FreeSans" font-size="10.00">CSVRender::InstanceMode</text>
<text text-anchor="middle" x="233" y="-987" font-family="FreeSans" font-size="10.00">::dropEvent</text>
</a>
</g>
</g>
<!-- Node1&#45;&gt;Node12 -->
<g id="edge11" class="edge"><title>Node1&#45;&gt;Node12</title>
<path fill="none" stroke="midnightblue" d="M56.8011,-750.391C61.7055,-799.983 79.6363,-910.09 144,-970 149.115,-974.761 155.072,-978.624 161.429,-981.757"/>
<polygon fill="midnightblue" stroke="midnightblue" points="60.2693,-749.877 55.8975,-740.226 53.2968,-750.497 60.2693,-749.877"/>
</g>
<!-- Node13 -->
<g id="node13" class="node"><title>Node13</title>
<g id="a_node13"><a xlink:href="classCSVRender_1_1PreviewWidget.html#a2feaacaaf6d6af5e912fca51ccca355f" target="_top" xlink:title="CSVRender::PreviewWidget\l::referenceableDataChanged">
<polygon fill="white" stroke="black" points="155.5,-931 155.5,-961 310.5,-961 310.5,-931 155.5,-931"/>
<text text-anchor="start" x="163.5" y="-949" font-family="FreeSans" font-size="10.00">CSVRender::PreviewWidget</text>
<text text-anchor="middle" x="233" y="-938" font-family="FreeSans" font-size="10.00">::referenceableDataChanged</text>
</a>
</g>
</g>
<!-- Node1&#45;&gt;Node13 -->
<g id="edge12" class="edge"><title>Node1&#45;&gt;Node13</title>
<path fill="none" stroke="midnightblue" d="M59.3396,-749.969C67.908,-791.66 90.975,-875.361 144,-921 148.454,-924.833 153.459,-928.081 158.762,-930.832"/>
<polygon fill="midnightblue" stroke="midnightblue" points="62.7633,-749.239 57.4214,-740.089 55.8916,-750.573 62.7633,-749.239"/>
</g>
<!-- Node15 -->
<g id="node15" class="node"><title>Node15</title>
<g id="a_node15"><a xlink:href="classCSVRender_1_1PreviewWidget.html#a56ade601e1be0a733149bfa4d5064139" target="_top" xlink:title="CSVRender::PreviewWidget\l::referenceDataChanged">
<polygon fill="white" stroke="black" points="161,-882 161,-912 305,-912 305,-882 161,-882"/>
<text text-anchor="start" x="169" y="-900" font-family="FreeSans" font-size="10.00">CSVRender::PreviewWidget</text>
<text text-anchor="middle" x="233" y="-889" font-family="FreeSans" font-size="10.00">::referenceDataChanged</text>
</a>
</g>
</g>
<!-- Node1&#45;&gt;Node15 -->
<g id="edge14" class="edge"><title>Node1&#45;&gt;Node15</title>
<path fill="none" stroke="midnightblue" d="M63.4198,-749.789C75.8529,-782.646 102.26,-840.164 144,-872 149.051,-875.853 154.673,-879.112 160.562,-881.869"/>
<polygon fill="midnightblue" stroke="midnightblue" points="66.5841,-748.25 59.8724,-740.052 60.007,-750.646 66.5841,-748.25"/>
</g>
<!-- Node16 -->
<g id="node16" class="node"><title>Node16</title>
<g id="a_node16"><a xlink:href="classCSVRender_1_1TerrainTextureMode.html#aba14ee47efed0a3c4a8aee1d97d4f5ff" target="_top" xlink:title="Handle brush mechanics, maths regarding worldspace hit etc. ">
<polygon fill="white" stroke="black" points="157,-833 157,-863 309,-863 309,-833 157,-833"/>
<text text-anchor="start" x="165" y="-851" font-family="FreeSans" font-size="10.00">CSVRender::TerrainTexture</text>
<text text-anchor="middle" x="233" y="-840" font-family="FreeSans" font-size="10.00">Mode::editTerrainTextureGrid</text>
</a>
</g>
</g>
<!-- Node1&#45;&gt;Node16 -->
<g id="edge16" class="edge"><title>Node1&#45;&gt;Node16</title>
<path fill="none" stroke="midnightblue" d="M70.3024,-748.291C86.1653,-770.639 112.963,-803.751 144,-823 150.209,-826.851 157.027,-830.125 164.037,-832.905"/>
<polygon fill="midnightblue" stroke="midnightblue" points="73.1468,-746.251 64.579,-740.018 67.3901,-750.233 73.1468,-746.251"/>
</g>
<!-- Node17 -->
<g id="node17" class="node"><title>Node17</title>
<g id="a_node17"><a xlink:href="classCSVRender_1_1TerrainTextureMode.html#a0d372f309580b876521a50f5595ba6b9" target="_top" xlink:title="Push texture edits to command macro. ">
<polygon fill="white" stroke="black" points="158,-784 158,-814 308,-814 308,-784 158,-784"/>
<text text-anchor="start" x="166" y="-802" font-family="FreeSans" font-size="10.00">CSVRender::TerrainTexture</text>
<text text-anchor="middle" x="233" y="-791" font-family="FreeSans" font-size="10.00">Mode::pushEditToCommand</text>
</a>
</g>
</g>
<!-- Node1&#45;&gt;Node17 -->
<g id="edge17" class="edge"><title>Node1&#45;&gt;Node17</title>
<path fill="none" stroke="midnightblue" d="M87.5192,-745.23C104.001,-754.876 124.592,-766.021 144,-774 152.961,-777.684 162.647,-781.031 172.205,-783.994"/>
<polygon fill="midnightblue" stroke="midnightblue" points="89.2025,-742.159 78.8186,-740.056 85.6242,-748.176 89.2025,-742.159"/>
</g>
<!-- Node18 -->
<g id="node18" class="node"><title>Node18</title>
<g id="a_node18"><a xlink:href="classCSVRender_1_1TerrainTextureMode.html#a3632f7a8f317e2dacc80a0422d827b7f" target="_top" xlink:title="Create new land texture record from texture asset. ">
<polygon fill="white" stroke="black" points="162,-735 162,-765 304,-765 304,-735 162,-735"/>
<text text-anchor="start" x="170" y="-753" font-family="FreeSans" font-size="10.00">CSVRender::TerrainTexture</text>
<text text-anchor="middle" x="233" y="-742" font-family="FreeSans" font-size="10.00">Mode::createTexture</text>
</a>
</g>
</g>
<!-- Node1&#45;&gt;Node18 -->
<g id="edge18" class="edge"><title>Node1&#45;&gt;Node18</title>
<path fill="none" stroke="midnightblue" d="M118.223,-733.93C132.378,-735.929 147.475,-738.061 161.89,-740.097"/>
<polygon fill="midnightblue" stroke="midnightblue" points="118.497,-730.434 108.106,-732.501 117.518,-737.365 118.497,-730.434"/>
</g>
<!-- Node19 -->
<g id="node19" class="node"><title>Node19</title>
<g id="a_node19"><a xlink:href="classCSVRender_1_1TerrainTextureMode.html#a3c682339683e78fc90fda7da69202b08" target="_top" xlink:title="Create new cell and land if needed. ">
<polygon fill="white" stroke="black" points="152,-686 152,-716 314,-716 314,-686 152,-686"/>
<text text-anchor="start" x="160" y="-704" font-family="FreeSans" font-size="10.00">CSVRender::TerrainTexture</text>
<text text-anchor="middle" x="233" y="-693" font-family="FreeSans" font-size="10.00">Mode::allowLandTextureEditing</text>
</a>
</g>
</g>
<!-- Node1&#45;&gt;Node19 -->
<g id="edge19" class="edge"><title>Node1&#45;&gt;Node19</title>
<path fill="none" stroke="midnightblue" d="M118.31,-716.416C129.154,-714.945 140.548,-713.4 151.764,-711.879"/>
<polygon fill="midnightblue" stroke="midnightblue" points="117.545,-712.987 108.106,-717.799 118.485,-719.924 117.545,-712.987"/>
</g>
<!-- Node20 -->
<g id="node20" class="node"><title>Node20</title>
<g id="a_node20"><a xlink:href="classCSVRender_1_1WorldspaceWidget.html#af87020216caffa2d900a3c572e9e399a" target="_top" xlink:title="CSVRender::WorldspaceWidget\l::makeRunTool">
<polygon fill="white" stroke="black" points="152,-637 152,-667 314,-667 314,-637 152,-637"/>
<text text-anchor="start" x="160" y="-655" font-family="FreeSans" font-size="10.00">CSVRender::WorldspaceWidget</text>
<text text-anchor="middle" x="233" y="-644" font-family="FreeSans" font-size="10.00">::makeRunTool</text>
</a>
</g>
</g>
<!-- Node1&#45;&gt;Node20 -->
<g id="edge20" class="edge"><title>Node1&#45;&gt;Node20</title>
<path fill="none" stroke="midnightblue" d="M88.2727,-704.816C104.646,-695.469 124.923,-684.746 144,-677 152.976,-673.355 162.672,-670.028 172.233,-667.074"/>
<polygon fill="midnightblue" stroke="midnightblue" points="86.5051,-701.795 79.6101,-709.839 90.0167,-707.85 86.5051,-701.795"/>
</g>
<!-- Node23 -->
<g id="node23" class="node"><title>Node23</title>
<g id="a_node23"><a xlink:href="classCSVRender_1_1WorldspaceWidget.html#a85e167d15575eb87d3b2a42d09ab482c" target="_top" xlink:title="CSVRender::WorldspaceWidget\l::debugProfileDataChanged">
<polygon fill="white" stroke="black" points="152,-588 152,-618 314,-618 314,-588 152,-588"/>
<text text-anchor="start" x="160" y="-606" font-family="FreeSans" font-size="10.00">CSVRender::WorldspaceWidget</text>
<text text-anchor="middle" x="233" y="-595" font-family="FreeSans" font-size="10.00">::debugProfileDataChanged</text>
</a>
</g>
</g>
<!-- Node1&#45;&gt;Node23 -->
<g id="edge23" class="edge"><title>Node1&#45;&gt;Node23</title>
<path fill="none" stroke="midnightblue" d="M70.6221,-701.581C86.5578,-679.471 113.259,-646.957 144,-628 150.219,-624.165 157.044,-620.901 164.056,-618.127"/>
<polygon fill="midnightblue" stroke="midnightblue" points="67.7464,-699.586 64.8609,-709.781 73.4739,-703.611 67.7464,-699.586"/>
</g>
<!-- Node25 -->
<g id="node25" class="node"><title>Node25</title>
<g id="a_node25"><a xlink:href="classCSVRender_1_1WorldspaceWidget.html#a28858eb6d7d0c068da4495c5cbfc6c91" target="_top" xlink:title="CSVRender::WorldspaceWidget\l::debugProfileAboutToBeRemoved">
<polygon fill="white" stroke="black" points="144.5,-539 144.5,-569 321.5,-569 321.5,-539 144.5,-539"/>
<text text-anchor="start" x="152.5" y="-557" font-family="FreeSans" font-size="10.00">CSVRender::WorldspaceWidget</text>
<text text-anchor="middle" x="233" y="-546" font-family="FreeSans" font-size="10.00">::debugProfileAboutToBeRemoved</text>
</a>
</g>
</g>
<!-- Node1&#45;&gt;Node25 -->
<g id="edge25" class="edge"><title>Node1&#45;&gt;Node25</title>
<path fill="none" stroke="midnightblue" d="M63.6598,-699.874C76.2246,-667.158 102.633,-610.452 144,-579 149.057,-575.155 154.682,-571.901 160.575,-569.148"/>
<polygon fill="midnightblue" stroke="midnightblue" points="60.2524,-698.997 60.0654,-709.591 66.8176,-701.426 60.2524,-698.997"/>
</g>
<!-- Node26 -->
<g id="node26" class="node"><title>Node26</title>
<g id="a_node26"><a xlink:href="classCSVWorld_1_1CellCreator.html#a720f2d312c9a90e4b6718437c891c7cb" target="_top" xlink:title="Allow subclasses to add additional data to command. ">
<polygon fill="white" stroke="black" points="158.5,-490 158.5,-520 307.5,-520 307.5,-490 158.5,-490"/>
<text text-anchor="start" x="166.5" y="-508" font-family="FreeSans" font-size="10.00">CSVWorld::CellCreator</text>
<text text-anchor="middle" x="233" y="-497" font-family="FreeSans" font-size="10.00">::configureCreateCommand</text>
</a>
</g>
</g>
<!-- Node1&#45;&gt;Node26 -->
<g id="edge27" class="edge"><title>Node1&#45;&gt;Node26</title>
<path fill="none" stroke="midnightblue" d="M59.3787,-700.156C68.0049,-658.675 91.1554,-575.395 144,-530 148.458,-526.171 153.465,-522.926 158.77,-520.177"/>
<polygon fill="midnightblue" stroke="midnightblue" points="55.941,-699.499 57.4461,-709.986 62.8095,-700.849 55.941,-699.499"/>
</g>
<!-- Node27 -->
<g id="node27" class="node"><title>Node27</title>
<g id="a_node27"><a xlink:href="classCSVWorld_1_1SimpleDialogueSubView.html#a9aa4d65780724a7ba7d289ced9ab00a5" target="_top" xlink:title="CSVWorld::SimpleDialogue\lSubView::SimpleDialogueSubView">
<polygon fill="white" stroke="black" points="144,-441 144,-471 322,-471 322,-441 144,-441"/>
<text text-anchor="start" x="152" y="-459" font-family="FreeSans" font-size="10.00">CSVWorld::SimpleDialogue</text>
<text text-anchor="middle" x="233" y="-448" font-family="FreeSans" font-size="10.00">SubView::SimpleDialogueSubView</text>
</a>
</g>
</g>
<!-- Node1&#45;&gt;Node27 -->
<g id="edge28" class="edge"><title>Node1&#45;&gt;Node27</title>
<path fill="none" stroke="midnightblue" d="M56.8347,-699.71C61.7984,-650.317 79.8291,-540.652 144,-481 148.188,-477.107 152.938,-473.815 158.01,-471.031"/>
<polygon fill="midnightblue" stroke="midnightblue" points="53.3341,-699.56 55.9184,-709.835 60.3056,-700.191 53.3341,-699.56"/>
</g>
<!-- Node28 -->
<g id="node28" class="node"><title>Node28</title>
<g id="a_node28"><a xlink:href="classCSVWorld_1_1GlobalCreator.html#a1867471252b3c5caba0fb55dfaad00ad" target="_top" xlink:title="Allow subclasses to add additional data to command. ">
<polygon fill="white" stroke="black" points="158.5,-392 158.5,-422 307.5,-422 307.5,-392 158.5,-392"/>
<text text-anchor="start" x="166.5" y="-410" font-family="FreeSans" font-size="10.00">CSVWorld::GlobalCreator</text>
<text text-anchor="middle" x="233" y="-399" font-family="FreeSans" font-size="10.00">::configureCreateCommand</text>
</a>
</g>
</g>
<!-- Node1&#45;&gt;Node28 -->
<g id="edge29" class="edge"><title>Node1&#45;&gt;Node28</title>
<path fill="none" stroke="midnightblue" d="M55.0299,-699.503C56.526,-642.999 68.2574,-506.384 144,-432 148.193,-427.882 153.012,-424.433 158.188,-421.544"/>
<polygon fill="midnightblue" stroke="midnightblue" points="51.5271,-699.633 54.8512,-709.693 58.5261,-699.756 51.5271,-699.633"/>
</g>
<!-- Node29 -->
<g id="node29" class="node"><title>Node29</title>
<g id="a_node29"><a xlink:href="classCSVWorld_1_1InfoCreator.html#a63dc4bd93f92b57311908e240db85287" target="_top" xlink:title="Allow subclasses to add additional data to command. ">
<polygon fill="white" stroke="black" points="158.5,-343 158.5,-373 307.5,-373 307.5,-343 158.5,-343"/>
<text text-anchor="start" x="166.5" y="-361" font-family="FreeSans" font-size="10.00">CSVWorld::InfoCreator</text>
<text text-anchor="middle" x="233" y="-350" font-family="FreeSans" font-size="10.00">::configureCreateCommand</text>
</a>
</g>
</g>
<!-- Node1&#45;&gt;Node29 -->
<g id="edge30" class="edge"><title>Node1&#45;&gt;Node29</title>
<path fill="none" stroke="midnightblue" d="M58.3224,-699.595C68.1296,-628.357 99.1063,-428.902 144,-383 148.22,-378.685 153.126,-375.101 158.422,-372.124"/>
<polygon fill="midnightblue" stroke="midnightblue" points="54.8027,-699.505 56.9313,-709.884 61.7396,-700.443 54.8027,-699.505"/>
</g>
<!-- Node30 -->
<g id="node30" class="node"><title>Node30</title>
<g id="a_node30"><a xlink:href="classCSVWorld_1_1InfoCreator.html#ad0f2324ed02a7ff5e06d21a16dbba83f" target="_top" xlink:title="CSVWorld::InfoCreator\l::cloneMode">
<polygon fill="white" stroke="black" points="172,-294 172,-324 294,-324 294,-294 172,-294"/>
<text text-anchor="start" x="180" y="-312" font-family="FreeSans" font-size="10.00">CSVWorld::InfoCreator</text>
<text text-anchor="middle" x="233" y="-301" font-family="FreeSans" font-size="10.00">::cloneMode</text>
</a>
</g>
</g>
<!-- Node1&#45;&gt;Node30 -->
<g id="edge31" class="edge"><title>Node1&#45;&gt;Node30</title>
<path fill="none" stroke="midnightblue" d="M57.4216,-699.669C65.366,-621.754 93.0885,-387.683 144,-334 151.541,-326.048 161.41,-320.567 171.804,-316.802"/>
<polygon fill="midnightblue" stroke="midnightblue" points="53.9019,-699.693 56.3926,-709.991 60.8674,-700.388 53.9019,-699.693"/>
</g>
<!-- Node31 -->
<g id="node31" class="node"><title>Node31</title>
<g id="a_node31"><a xlink:href="classCSVWorld_1_1LandTextureCreator.html#a531457ffda8b873d1b0761916a6f06ee" target="_top" xlink:title="CSVWorld::LandTextureCreator\l::cloneMode">
<polygon fill="white" stroke="black" points="152,-245 152,-275 314,-275 314,-245 152,-245"/>
<text text-anchor="start" x="160" y="-263" font-family="FreeSans" font-size="10.00">CSVWorld::LandTextureCreator</text>
<text text-anchor="middle" x="233" y="-252" font-family="FreeSans" font-size="10.00">::cloneMode</text>
</a>
</g>
</g>
<!-- Node1&#45;&gt;Node31 -->
<g id="edge32" class="edge"><title>Node1&#45;&gt;Node31</title>
<path fill="none" stroke="midnightblue" d="M56.7317,-699.574C62.9792,-615.225 87.0694,-346.506 144,-285 147.56,-281.154 151.665,-277.884 156.114,-275.105"/>
<polygon fill="midnightblue" stroke="midnightblue" points="53.2392,-699.344 56.0117,-709.57 60.2211,-699.847 53.2392,-699.344"/>
</g>
<!-- Node32 -->
<g id="node32" class="node"><title>Node32</title>
<g id="a_node32"><a xlink:href="classCSVWorld_1_1LandTextureCreator.html#a004c68ded4f704124e4b44bfac7eaf64" target="_top" xlink:title="Allow subclasses to add additional data to command. ">
<polygon fill="white" stroke="black" points="152,-196 152,-226 314,-226 314,-196 152,-196"/>
<text text-anchor="start" x="160" y="-214" font-family="FreeSans" font-size="10.00">CSVWorld::LandTextureCreator</text>
<text text-anchor="middle" x="233" y="-203" font-family="FreeSans" font-size="10.00">::configureCreateCommand</text>
</a>
</g>
</g>
<!-- Node1&#45;&gt;Node32 -->
<g id="edge33" class="edge"><title>Node1&#45;&gt;Node32</title>
<path fill="none" stroke="midnightblue" d="M56.1584,-699.776C60.7995,-609.686 80.9513,-305.465 144,-236 147.522,-232.119 151.599,-228.823 156.028,-226.026"/>
<polygon fill="midnightblue" stroke="midnightblue" points="52.6561,-699.738 55.6567,-709.899 59.6476,-700.085 52.6561,-699.738"/>
</g>
<!-- Node33 -->
<g id="node33" class="node"><title>Node33</title>
<g id="a_node33"><a xlink:href="classCSVWorld_1_1PathgridCreator.html#a378fa686d503ad4985dc0c578f4b4e7e" target="_top" xlink:title="Set cell ID input widget to ID of record to be cloned. ">
<polygon fill="white" stroke="black" points="161.5,-147 161.5,-177 304.5,-177 304.5,-147 161.5,-147"/>
<text text-anchor="start" x="169.5" y="-165" font-family="FreeSans" font-size="10.00">CSVWorld::PathgridCreator</text>
<text text-anchor="middle" x="233" y="-154" font-family="FreeSans" font-size="10.00">::cloneMode</text>
</a>
</g>
</g>
<!-- Node1&#45;&gt;Node33 -->
<g id="edge34" class="edge"><title>Node1&#45;&gt;Node33</title>
<path fill="none" stroke="midnightblue" d="M55.6989,-699.795C58.8608,-604.053 74.8481,-264.432 144,-187 148.866,-181.551 154.825,-177.253 161.327,-173.868"/>
<polygon fill="midnightblue" stroke="midnightblue" points="52.1945,-699.885 55.3812,-709.989 59.1911,-700.103 52.1945,-699.885"/>
</g>
<!-- Node34 -->
<g id="node34" class="node"><title>Node34</title>
<g id="a_node34"><a xlink:href="classCSVWorld_1_1ReferenceCreator.html#aafe2ea9619e1239e8a470af73119c1c5" target="_top" xlink:title="CSVWorld::ReferenceCreator\l::cloneMode">
<polygon fill="white" stroke="black" points="157,-98 157,-128 309,-128 309,-98 157,-98"/>
<text text-anchor="start" x="165" y="-116" font-family="FreeSans" font-size="10.00">CSVWorld::ReferenceCreator</text>
<text text-anchor="middle" x="233" y="-105" font-family="FreeSans" font-size="10.00">::cloneMode</text>
</a>
</g>
</g>
<!-- Node1&#45;&gt;Node34 -->
<g id="edge35" class="edge"><title>Node1&#45;&gt;Node34</title>
<path fill="none" stroke="midnightblue" d="M55.3204,-699.498C57.1133,-597.901 68.8002,-223.354 144,-138 147.675,-133.829 151.99,-130.331 156.701,-127.401"/>
<polygon fill="midnightblue" stroke="midnightblue" points="51.817,-699.689 55.1576,-709.744 58.8161,-699.801 51.817,-699.689"/>
</g>
<!-- Node35 -->
<g id="node35" class="node"><title>Node35</title>
<g id="a_node35"><a xlink:href="classCSVWorld_1_1ScriptSubView.html#afc84a861049a4ee593bbbe566cbff64e" target="_top" xlink:title="CSVWorld::ScriptSubView\l::ScriptSubView">
<polygon fill="white" stroke="black" points="164.5,-49 164.5,-79 301.5,-79 301.5,-49 164.5,-49"/>
<text text-anchor="start" x="172.5" y="-67" font-family="FreeSans" font-size="10.00">CSVWorld::ScriptSubView</text>
<text text-anchor="middle" x="233" y="-56" font-family="FreeSans" font-size="10.00">::ScriptSubView</text>
</a>
</g>
</g>
<!-- Node1&#45;&gt;Node35 -->
<g id="edge36" class="edge"><title>Node1&#45;&gt;Node35</title>
<path fill="none" stroke="midnightblue" d="M54.9891,-699.811C55.4565,-593.475 62.5822,-182.485 144,-89 149.528,-82.6523 156.54,-77.8614 164.182,-74.2547"/>
<polygon fill="midnightblue" stroke="midnightblue" points="51.4889,-699.919 54.9615,-709.928 58.4889,-699.938 51.4889,-699.919"/>
</g>
<!-- Node36 -->
<g id="node36" class="node"><title>Node36</title>
<g id="a_node36"><a xlink:href="classCSVWorld_1_1StartScriptCreator.html#a50b89ca85db86697fe45155612a4af31" target="_top" xlink:title="Set script ID input widget to ID of record to be cloned. ">
<polygon fill="white" stroke="black" points="155,-0 155,-30 311,-30 311,-0 155,-0"/>
<text text-anchor="start" x="163" y="-18" font-family="FreeSans" font-size="10.00">CSVWorld::StartScriptCreator</text>
<text text-anchor="middle" x="233" y="-7" font-family="FreeSans" font-size="10.00">::cloneMode</text>
</a>
</g>
</g>
<!-- Node1&#45;&gt;Node36 -->
<g id="edge37" class="edge"><title>Node1&#45;&gt;Node36</title>
<path fill="none" stroke="midnightblue" d="M54.7082,-699.697C53.9404,-588.17 56.4544,-141.524 144,-40 147.319,-36.151 151.183,-32.8737 155.405,-30.0852"/>
<polygon fill="midnightblue" stroke="midnightblue" points="51.2106,-700.005 54.7956,-709.975 58.2103,-699.945 51.2106,-700.005"/>
</g>
<!-- Node11 -->
<g id="node11" class="node"><title>Node11</title>
<g id="a_node11"><a xlink:href="classCSVDoc_1_1GlobalDebugProfileMenu.html#ac0ff04cb70bb74ab8f579e32b77471f3" target="_top" xlink:title="CSVDoc::GlobalDebugProfile\lMenu::GlobalDebugProfileMenu">
<polygon fill="white" stroke="black" points="358,-1029 358,-1059 524,-1059 524,-1029 358,-1029"/>
<text text-anchor="start" x="366" y="-1047" font-family="FreeSans" font-size="10.00">CSVDoc::GlobalDebugProfile</text>
<text text-anchor="middle" x="441" y="-1036" font-family="FreeSans" font-size="10.00">Menu::GlobalDebugProfileMenu</text>
</a>
</g>
</g>
<!-- Node10&#45;&gt;Node11 -->
<g id="edge10" class="edge"><title>Node10&#45;&gt;Node11</title>
<path fill="none" stroke="midnightblue" d="M319.319,-1044C331.998,-1044 345.045,-1044 357.661,-1044"/>
<polygon fill="midnightblue" stroke="midnightblue" points="319.245,-1040.5 309.245,-1044 319.245,-1047.5 319.245,-1040.5"/>
</g>
<!-- Node14 -->
<g id="node14" class="node"><title>Node14</title>
<g id="a_node14"><a xlink:href="classCSVRender_1_1PreviewWidget.html#ad696524a5b0de46ce8c8756d14e764f9" target="_top" xlink:title="CSVRender::PreviewWidget\l::PreviewWidget">
<polygon fill="white" stroke="black" points="369,-906 369,-936 513,-936 513,-906 369,-906"/>
<text text-anchor="start" x="377" y="-924" font-family="FreeSans" font-size="10.00">CSVRender::PreviewWidget</text>
<text text-anchor="middle" x="441" y="-913" font-family="FreeSans" font-size="10.00">::PreviewWidget</text>
</a>
</g>
</g>
<!-- Node13&#45;&gt;Node14 -->
<g id="edge13" class="edge"><title>Node13&#45;&gt;Node14</title>
<path fill="none" stroke="midnightblue" d="M321.05,-935.436C336.929,-933.509 353.326,-931.519 368.683,-929.655"/>
<polygon fill="midnightblue" stroke="midnightblue" points="320.212,-932.012 310.707,-936.691 321.056,-938.961 320.212,-932.012"/>
</g>
<!-- Node15&#45;&gt;Node14 -->
<g id="edge15" class="edge"><title>Node15&#45;&gt;Node14</title>
<path fill="none" stroke="midnightblue" d="M315.449,-906.489C333.087,-908.544 351.608,-910.702 368.815,-912.707"/>
<polygon fill="midnightblue" stroke="midnightblue" points="315.52,-902.974 305.182,-905.293 314.71,-909.927 315.52,-902.974"/>
</g>
<!-- Node21 -->
<g id="node21" class="node"><title>Node21</title>
<g id="a_node21"><a xlink:href="classCSVWorld_1_1SceneSubView.html#a89324016ecc1465ffde40398eaf4835f" target="_top" xlink:title="CSVWorld::SceneSubView\l::makeToolbar">
<polygon fill="white" stroke="black" points="371.5,-637 371.5,-667 510.5,-667 510.5,-637 371.5,-637"/>
<text text-anchor="start" x="379.5" y="-655" font-family="FreeSans" font-size="10.00">CSVWorld::SceneSubView</text>
<text text-anchor="middle" x="441" y="-644" font-family="FreeSans" font-size="10.00">::makeToolbar</text>
</a>
</g>
</g>
<!-- Node20&#45;&gt;Node21 -->
<g id="edge21" class="edge"><title>Node20&#45;&gt;Node21</title>
<path fill="none" stroke="midnightblue" d="M324.493,-652C340.214,-652 356.329,-652 371.345,-652"/>
<polygon fill="midnightblue" stroke="midnightblue" points="324.235,-648.5 314.235,-652 324.235,-655.5 324.235,-648.5"/>
</g>
<!-- Node22 -->
<g id="node22" class="node"><title>Node22</title>
<g id="a_node22"><a xlink:href="classCSVWorld_1_1SceneSubView.html#aafa63592544f09bb82bf991f1228eee4" target="_top" xlink:title="CSVWorld::SceneSubView\l::SceneSubView">
<polygon fill="white" stroke="black" points="560.5,-637 560.5,-667 699.5,-667 699.5,-637 560.5,-637"/>
<text text-anchor="start" x="568.5" y="-655" font-family="FreeSans" font-size="10.00">CSVWorld::SceneSubView</text>
<text text-anchor="middle" x="630" y="-644" font-family="FreeSans" font-size="10.00">::SceneSubView</text>
</a>
</g>
</g>
<!-- Node21&#45;&gt;Node22 -->
<g id="edge22" class="edge"><title>Node21&#45;&gt;Node22</title>
<path fill="none" stroke="midnightblue" d="M520.595,-652C533.833,-652 547.48,-652 560.438,-652"/>
<polygon fill="midnightblue" stroke="midnightblue" points="520.57,-648.5 510.57,-652 520.57,-655.5 520.57,-648.5"/>
</g>
<!-- Node24 -->
<g id="node24" class="node"><title>Node24</title>
<g id="a_node24"><a xlink:href="classCSVRender_1_1WorldspaceWidget.html#ad9e40a20c3a626c39fcd9e350476ed63" target="_top" xlink:title="CSVRender::WorldspaceWidget\l::WorldspaceWidget">
<polygon fill="white" stroke="black" points="360,-564 360,-594 522,-594 522,-564 360,-564"/>
<text text-anchor="start" x="368" y="-582" font-family="FreeSans" font-size="10.00">CSVRender::WorldspaceWidget</text>
<text text-anchor="middle" x="441" y="-571" font-family="FreeSans" font-size="10.00">::WorldspaceWidget</text>
</a>
</g>
</g>
<!-- Node23&#45;&gt;Node24 -->
<g id="edge24" class="edge"><title>Node23&#45;&gt;Node24</title>
<path fill="none" stroke="midnightblue" d="M324.178,-592.494C336.098,-591.105 348.251,-589.689 359.984,-588.322"/>
<polygon fill="midnightblue" stroke="midnightblue" points="323.763,-589.018 314.235,-593.652 324.573,-595.971 323.763,-589.018"/>
</g>
<!-- Node25&#45;&gt;Node24 -->
<g id="edge26" class="edge"><title>Node25&#45;&gt;Node24</title>
<path fill="none" stroke="midnightblue" d="M331.836,-565.873C341.248,-567.016 350.717,-568.165 359.929,-569.283"/>
<polygon fill="midnightblue" stroke="midnightblue" points="332.01,-562.369 321.661,-564.639 331.167,-569.318 332.01,-562.369"/>
</g>
</g>
</svg>
