<?xml version="1.0" encoding="UTF-8" standalone="no"?>
<!DOCTYPE svg PUBLIC "-//W3C//DTD SVG 1.1//EN"
 "http://www.w3.org/Graphics/SVG/1.1/DTD/svg11.dtd">
<!-- Generated by graphviz version 2.36.0 (20140111.2315)
 -->
<!-- Title: MWRender::CameraRelativeTransform Pages: 1 -->
<svg width="175pt" height="216pt"
 viewBox="0.00 0.00 175.00 216.00" xmlns="http://www.w3.org/2000/svg" xmlns:xlink="http://www.w3.org/1999/xlink">
<g id="graph0" class="graph" transform="scale(1 1) rotate(0) translate(4 212)">
<title>MWRender::CameraRelativeTransform</title>
<polygon fill="white" stroke="none" points="-4,4 -4,-212 171,-212 171,4 -4,4"/>
<!-- Node1 -->
<g id="node1" class="node"><title>Node1</title>
<polygon fill="#bfbfbf" stroke="black" points="0.5,-0.5 0.5,-101.5 167.5,-101.5 167.5,-0.5 0.5,-0.5"/>
<text text-anchor="start" x="8.5" y="-89.5" font-family="FreeSans" font-size="10.00">MWRender::CameraRelative</text>
<text text-anchor="middle" x="84" y="-78.5" font-family="FreeSans" font-size="10.00">Transform</text>
<polyline fill="none" stroke="black" points="0.5,-71.5 167.5,-71.5 "/>
<text text-anchor="middle" x="84" y="-59.5" font-family="FreeSans" font-size="10.00"> </text>
<polyline fill="none" stroke="black" points="0.5,-52.5 167.5,-52.5 "/>
<text text-anchor="start" x="8.5" y="-40.5" font-family="FreeSans" font-size="10.00">+ CameraRelativeTransform()</text>
<text text-anchor="start" x="8.5" y="-29.5" font-family="FreeSans" font-size="10.00">+ CameraRelativeTransform()</text>
<text text-anchor="start" x="8.5" y="-18.5" font-family="FreeSans" font-size="10.00">+ computeLocalToWorldMatrix()</text>
<text text-anchor="start" x="8.5" y="-7.5" font-family="FreeSans" font-size="10.00">+ computeBound()</text>
</g>
<!-- Node2 -->
<g id="node2" class="node"><title>Node2</title>
<polygon fill="white" stroke="#bfbfbf" points="-0.5,-150.5 -0.5,-207.5 86.5,-207.5 86.5,-150.5 -0.5,-150.5"/>
<text text-anchor="middle" x="43" y="-195.5" font-family="FreeSans" font-size="10.00">osg::Transform</text>
<polyline fill="none" stroke="#bfbfbf" points="-0.5,-188.5 86.5,-188.5 "/>
<text text-anchor="middle" x="43" y="-176.5" font-family="FreeSans" font-size="10.00"> </text>
<polyline fill="none" stroke="#bfbfbf" points="-0.5,-169.5 86.5,-169.5 "/>
<text text-anchor="middle" x="43" y="-157.5" font-family="FreeSans" font-size="10.00"> </text>
</g>
<!-- Node2&#45;&gt;Node1 -->
<g id="edge1" class="edge"><title>Node2&#45;&gt;Node1</title>
<path fill="none" stroke="midnightblue" d="M55.1956,-140.521C59.1623,-128.33 63.6282,-114.606 67.8382,-101.668"/>
<polygon fill="none" stroke="midnightblue" points="51.7637,-139.757 51.9976,-150.349 58.4202,-141.923 51.7637,-139.757"/>
</g>
<!-- Node3 -->
<g id="node3" class="node"><title>Node3</title>
<polygon fill="white" stroke="#bfbfbf" points="104.5,-150.5 104.5,-207.5 147.5,-207.5 147.5,-150.5 104.5,-150.5"/>
<text text-anchor="middle" x="126" y="-195.5" font-family="FreeSans" font-size="10.00">Vec3f</text>
<polyline fill="none" stroke="#bfbfbf" points="104.5,-188.5 147.5,-188.5 "/>
<text text-anchor="middle" x="126" y="-176.5" font-family="FreeSans" font-size="10.00"> </text>
<polyline fill="none" stroke="#bfbfbf" points="104.5,-169.5 147.5,-169.5 "/>
<text text-anchor="middle" x="126" y="-157.5" font-family="FreeSans" font-size="10.00"> </text>
</g>
<!-- Node3&#45;&gt;Node1 -->
<g id="edge2" class="edge"><title>Node3&#45;&gt;Node1</title>
<path fill="none" stroke="#404040" d="M116.783,-150.349C113.104,-139.311 108.711,-126.133 104.355,-113.066"/>
<polygon fill="none" stroke="#404040" points="104.351,-113.052 98.6586,-108.625 100.556,-101.668 106.248,-106.095 104.351,-113.052"/>
<text text-anchor="middle" x="138" y="-123.5" font-family="FreeSans" font-size="10.00"> &#45;mEyePoint</text>
</g>
</g>
</svg>
