<?xml version="1.0" encoding="UTF-8" standalone="no"?>
<!DOCTYPE svg PUBLIC "-//W3C//DTD SVG 1.1//EN"
 "http://www.w3.org/Graphics/SVG/1.1/DTD/svg11.dtd">
<!-- Generated by graphviz version 2.36.0 (20140111.2315)
 -->
<!-- Title: MWClass::Book::copyToCellImpl Pages: 1 -->
<svg width="1280pt" height="199pt"
 viewBox="0.00 0.00 1280.00 199.00" xmlns="http://www.w3.org/2000/svg" xmlns:xlink="http://www.w3.org/1999/xlink">
<g id="graph0" class="graph" transform="scale(1 1) rotate(0) translate(4 195)">
<title>MWClass::Book::copyToCellImpl</title>
<polygon fill="white" stroke="none" points="-4,4 -4,-195 1276,-195 1276,4 -4,4"/>
<!-- Node1 -->
<g id="node1" class="node"><title>Node1</title>
<polygon fill="#bfbfbf" stroke="black" points="0.5,-122.5 0.5,-141.5 155.5,-141.5 155.5,-122.5 0.5,-122.5"/>
<text text-anchor="middle" x="78" y="-129.5" font-family="FreeSans" font-size="10.00">MWClass::Book::copyToCellImpl</text>
</g>
<!-- Node2 -->
<g id="node2" class="node"><title>Node2</title>
<g id="a_node2"><a xlink:href="classMWWorld_1_1ConstPtr.html#ae3aece4775b5f86d04af63ce0de36cbd" target="_top" xlink:title="MWWorld::ConstPtr::get">
<polygon fill="white" stroke="black" points="192.5,-155.5 192.5,-174.5 311.5,-174.5 311.5,-155.5 192.5,-155.5"/>
<text text-anchor="middle" x="252" y="-162.5" font-family="FreeSans" font-size="10.00">MWWorld::ConstPtr::get</text>
</a>
</g>
</g>
<!-- Node1&#45;&gt;Node2 -->
<g id="edge1" class="edge"><title>Node1&#45;&gt;Node2</title>
<path fill="none" stroke="midnightblue" d="M128.75,-141.545C148.36,-145.307 171.049,-149.66 191.516,-153.587"/>
<polygon fill="midnightblue" stroke="midnightblue" points="190.882,-157.029 201.362,-155.476 192.201,-150.155 190.882,-157.029"/>
</g>
<!-- Node4 -->
<g id="node4" class="node"><title>Node4</title>
<g id="a_node4"><a xlink:href="classMWWorld_1_1CellStore.html#a0e5bbb3091cd2b837dd9c8baaa9c56de" target="_top" xlink:title="MWWorld::CellStore\l::insert">
<polygon fill="white" stroke="black" points="200.5,-84 200.5,-114 303.5,-114 303.5,-84 200.5,-84"/>
<text text-anchor="start" x="208.5" y="-102" font-family="FreeSans" font-size="10.00">MWWorld::CellStore</text>
<text text-anchor="middle" x="252" y="-91" font-family="FreeSans" font-size="10.00">::insert</text>
</a>
</g>
</g>
<!-- Node1&#45;&gt;Node4 -->
<g id="edge3" class="edge"><title>Node1&#45;&gt;Node4</title>
<path fill="none" stroke="midnightblue" d="M128.75,-122.455C148.016,-118.759 170.254,-114.492 190.438,-110.619"/>
<polygon fill="midnightblue" stroke="midnightblue" points="191.306,-114.017 200.468,-108.695 189.987,-107.142 191.306,-114.017"/>
</g>
<!-- Node3 -->
<g id="node3" class="node"><title>Node3</title>
<g id="a_node3"><a xlink:href="classMWWorld_1_1ConstPtr.html#ace447c99102c91a088f5e51c9664f950" target="_top" xlink:title="MWWorld::ConstPtr::\lgetTypeName">
<polygon fill="white" stroke="black" points="350.5,-161 350.5,-191 455.5,-191 455.5,-161 350.5,-161"/>
<text text-anchor="start" x="358.5" y="-179" font-family="FreeSans" font-size="10.00">MWWorld::ConstPtr::</text>
<text text-anchor="middle" x="403" y="-168" font-family="FreeSans" font-size="10.00">getTypeName</text>
</a>
</g>
</g>
<!-- Node2&#45;&gt;Node3 -->
<g id="edge2" class="edge"><title>Node2&#45;&gt;Node3</title>
<path fill="none" stroke="midnightblue" d="M311.889,-169.347C321.208,-170.035 330.868,-170.749 340.25,-171.441"/>
<polygon fill="midnightblue" stroke="midnightblue" points="340.062,-174.937 350.292,-172.183 340.577,-167.956 340.062,-174.937"/>
</g>
<!-- Node5 -->
<g id="node5" class="node"><title>Node5</title>
<g id="a_node5"><a xlink:href="bsatool_8cpp.html#a6e7f1179c5854ac3883506e79162011b" target="_top" xlink:title="list">
<polygon fill="white" stroke="black" points="388.5,-122.5 388.5,-141.5 417.5,-141.5 417.5,-122.5 388.5,-122.5"/>
<text text-anchor="middle" x="403" y="-129.5" font-family="FreeSans" font-size="10.00">list</text>
</a>
</g>
</g>
<!-- Node4&#45;&gt;Node5 -->
<g id="edge4" class="edge"><title>Node4&#45;&gt;Node5</title>
<path fill="none" stroke="midnightblue" d="M303.861,-110.264C329.158,-115.867 358.512,-122.369 378.479,-126.791"/>
<polygon fill="midnightblue" stroke="midnightblue" points="377.737,-130.211 388.257,-128.956 379.25,-123.377 377.737,-130.211"/>
</g>
<!-- Node7 -->
<g id="node7" class="node"><title>Node7</title>
<g id="a_node7"><a xlink:href="structMWWorld_1_1CellRefList.html#a7e2665781e068bfdf31b325822f1fe76" target="_top" xlink:title="MWWorld::CellRefList\l::insert">
<polygon fill="white" stroke="black" points="348,-73 348,-103 458,-103 458,-73 348,-73"/>
<text text-anchor="start" x="356" y="-91" font-family="FreeSans" font-size="10.00">MWWorld::CellRefList</text>
<text text-anchor="middle" x="403" y="-80" font-family="FreeSans" font-size="10.00">::insert</text>
</a>
</g>
</g>
<!-- Node4&#45;&gt;Node7 -->
<g id="edge6" class="edge"><title>Node4&#45;&gt;Node7</title>
<path fill="none" stroke="midnightblue" d="M303.861,-95.2452C314.704,-94.4446 326.293,-93.5891 337.569,-92.7566"/>
<polygon fill="midnightblue" stroke="midnightblue" points="338.091,-96.2278 347.806,-92.0009 337.575,-89.2468 338.091,-96.2278"/>
</g>
<!-- Node8 -->
<g id="node8" class="node"><title>Node8</title>
<g id="a_node8"><a xlink:href="classMWWorld_1_1CellStore.html#adac471f571fbc735f6223da79448e159" target="_top" xlink:title="Repopulate mMergedRefs. ">
<polygon fill="white" stroke="black" points="351.5,-24 351.5,-54 454.5,-54 454.5,-24 351.5,-24"/>
<text text-anchor="start" x="359.5" y="-42" font-family="FreeSans" font-size="10.00">MWWorld::CellStore</text>
<text text-anchor="middle" x="403" y="-31" font-family="FreeSans" font-size="10.00">::updateMergedRefs</text>
</a>
</g>
</g>
<!-- Node4&#45;&gt;Node8 -->
<g id="edge7" class="edge"><title>Node4&#45;&gt;Node8</title>
<path fill="none" stroke="midnightblue" d="M290.599,-83.8595C310.261,-75.9418 334.511,-66.1767 355.36,-57.7812"/>
<polygon fill="midnightblue" stroke="midnightblue" points="356.703,-61.0137 364.671,-54.0317 354.088,-54.5204 356.703,-61.0137"/>
</g>
<!-- Node6 -->
<g id="node6" class="node"><title>Node6</title>
<g id="a_node6"><a xlink:href="classBsa_1_1BSAFile.html#ad7972a16602af590be0ed8401b9413c2" target="_top" xlink:title="Bsa::BSAFile::getList">
<polygon fill="white" stroke="black" points="498.5,-122.5 498.5,-141.5 605.5,-141.5 605.5,-122.5 498.5,-122.5"/>
<text text-anchor="middle" x="552" y="-129.5" font-family="FreeSans" font-size="10.00">Bsa::BSAFile::getList</text>
</a>
</g>
</g>
<!-- Node5&#45;&gt;Node6 -->
<g id="edge5" class="edge"><title>Node5&#45;&gt;Node6</title>
<path fill="none" stroke="midnightblue" d="M417.566,-132C433.692,-132 461.728,-132 487.952,-132"/>
<polygon fill="midnightblue" stroke="midnightblue" points="488.267,-135.5 498.267,-132 488.267,-128.5 488.267,-135.5"/>
</g>
<!-- Node9 -->
<g id="node9" class="node"><title>Node9</title>
<g id="a_node9"><a xlink:href="classMWWorld_1_1CellStore.html#a392348bc44d7f28c24a869e8ff157723" target="_top" xlink:title="MWWorld::CellStore\l::forEachInternal">
<polygon fill="white" stroke="black" points="500.5,-49 500.5,-79 603.5,-79 603.5,-49 500.5,-49"/>
<text text-anchor="start" x="508.5" y="-67" font-family="FreeSans" font-size="10.00">MWWorld::CellStore</text>
<text text-anchor="middle" x="552" y="-56" font-family="FreeSans" font-size="10.00">::forEachInternal</text>
</a>
</g>
</g>
<!-- Node8&#45;&gt;Node9 -->
<g id="edge8" class="edge"><title>Node8&#45;&gt;Node9</title>
<path fill="none" stroke="midnightblue" d="M454.589,-47.6036C466.138,-49.5677 478.526,-51.6745 490.445,-53.7015"/>
<polygon fill="midnightblue" stroke="midnightblue" points="489.872,-57.1543 500.318,-55.3806 491.046,-50.2534 489.872,-57.1543"/>
</g>
<!-- Node16 -->
<g id="node16" class="node"><title>Node16</title>
<g id="a_node16"><a xlink:href="structMWWorld_1_1MergeVisitor.html#abfa4488084b470eb5224945fcb8c4535" target="_top" xlink:title="MWWorld::MergeVisitor\l::merge">
<polygon fill="white" stroke="black" points="494,-0 494,-30 610,-30 610,-0 494,-0"/>
<text text-anchor="start" x="502" y="-18" font-family="FreeSans" font-size="10.00">MWWorld::MergeVisitor</text>
<text text-anchor="middle" x="552" y="-7" font-family="FreeSans" font-size="10.00">::merge</text>
</a>
</g>
</g>
<!-- Node8&#45;&gt;Node16 -->
<g id="edge15" class="edge"><title>Node8&#45;&gt;Node16</title>
<path fill="none" stroke="midnightblue" d="M454.589,-30.7406C463.958,-29.2109 473.879,-27.5912 483.654,-25.9953"/>
<polygon fill="midnightblue" stroke="midnightblue" points="484.453,-29.4113 493.758,-24.3456 483.325,-22.5027 484.453,-29.4113"/>
</g>
<!-- Node10 -->
<g id="node10" class="node"><title>Node10</title>
<g id="a_node10"><a xlink:href="classMWWorld_1_1CellStore.html#a14f1e9420bb109213356b124e5166d31" target="_top" xlink:title="MWWorld::CellStore\l::forEachImp">
<polygon fill="white" stroke="black" points="646.5,-49 646.5,-79 749.5,-79 749.5,-49 646.5,-49"/>
<text text-anchor="start" x="654.5" y="-67" font-family="FreeSans" font-size="10.00">MWWorld::CellStore</text>
<text text-anchor="middle" x="698" y="-56" font-family="FreeSans" font-size="10.00">::forEachImp</text>
</a>
</g>
</g>
<!-- Node9&#45;&gt;Node10 -->
<g id="edge9" class="edge"><title>Node9&#45;&gt;Node10</title>
<path fill="none" stroke="midnightblue" d="M603.769,-64C614.201,-64 625.285,-64 636.034,-64"/>
<polygon fill="midnightblue" stroke="midnightblue" points="636.204,-67.5001 646.204,-64 636.204,-60.5001 636.204,-67.5001"/>
</g>
<!-- Node11 -->
<g id="node11" class="node"><title>Node11</title>
<g id="a_node11"><a xlink:href="classMWWorld_1_1CellStore.html#ab706aebc06b5f99667203c8dcc670369" target="_top" xlink:title="MWWorld::CellStore\l::isAccessible">
<polygon fill="white" stroke="black" points="786.5,-49 786.5,-79 889.5,-79 889.5,-49 786.5,-49"/>
<text text-anchor="start" x="794.5" y="-67" font-family="FreeSans" font-size="10.00">MWWorld::CellStore</text>
<text text-anchor="middle" x="838" y="-56" font-family="FreeSans" font-size="10.00">::isAccessible</text>
</a>
</g>
</g>
<!-- Node10&#45;&gt;Node11 -->
<g id="edge10" class="edge"><title>Node10&#45;&gt;Node11</title>
<path fill="none" stroke="midnightblue" d="M749.603,-64C758.228,-64 767.266,-64 776.124,-64"/>
<polygon fill="midnightblue" stroke="midnightblue" points="776.404,-67.5001 786.404,-64 776.404,-60.5001 776.404,-67.5001"/>
</g>
<!-- Node12 -->
<g id="node12" class="node"><title>Node12</title>
<g id="a_node12"><a xlink:href="classMWWorld_1_1RefData.html#abfb41213bbf1459bcb511783bb654f8d" target="_top" xlink:title="Returns true if the object was deleted by a content file. ">
<polygon fill="white" stroke="black" points="936.5,-93 936.5,-123 1079.5,-123 1079.5,-93 936.5,-93"/>
<text text-anchor="start" x="944.5" y="-111" font-family="FreeSans" font-size="10.00">MWWorld::RefData::isDeleted</text>
<text text-anchor="middle" x="1008" y="-100" font-family="FreeSans" font-size="10.00">ByContentFile</text>
</a>
</g>
</g>
<!-- Node11&#45;&gt;Node12 -->
<g id="edge11" class="edge"><title>Node11&#45;&gt;Node12</title>
<path fill="none" stroke="midnightblue" d="M889.861,-77.3209C905.604,-81.4439 923.196,-86.0513 939.864,-90.4168"/>
<polygon fill="midnightblue" stroke="midnightblue" points="938.99,-93.8058 949.55,-92.9536 940.763,-87.0341 938.99,-93.8058"/>
</g>
<!-- Node13 -->
<g id="node13" class="node"><title>Node13</title>
<g id="a_node13"><a xlink:href="classMWWorld_1_1CellRef.html#abc0b42ed0ef6655f90582a4ca3fb5580" target="_top" xlink:title="Does the RefNum have a content file? ">
<polygon fill="white" stroke="black" points="926,-54.5 926,-73.5 1090,-73.5 1090,-54.5 926,-54.5"/>
<text text-anchor="middle" x="1008" y="-61.5" font-family="FreeSans" font-size="10.00">MWWorld::CellRef::hasContentFile</text>
</a>
</g>
</g>
<!-- Node11&#45;&gt;Node13 -->
<g id="edge12" class="edge"><title>Node11&#45;&gt;Node13</title>
<path fill="none" stroke="midnightblue" d="M889.861,-64C898.141,-64 906.933,-64 915.832,-64"/>
<polygon fill="midnightblue" stroke="midnightblue" points="915.905,-67.5001 925.905,-64 915.905,-60.5001 915.905,-67.5001"/>
</g>
<!-- Node15 -->
<g id="node15" class="node"><title>Node15</title>
<g id="a_node15"><a xlink:href="classMWWorld_1_1RefData.html#aef6884db8233415bc1a322ea531db88d" target="_top" xlink:title="MWWorld::RefData::getCount">
<polygon fill="white" stroke="black" points="937,-16.5 937,-35.5 1079,-35.5 1079,-16.5 937,-16.5"/>
<text text-anchor="middle" x="1008" y="-23.5" font-family="FreeSans" font-size="10.00">MWWorld::RefData::getCount</text>
</a>
</g>
</g>
<!-- Node11&#45;&gt;Node15 -->
<g id="edge14" class="edge"><title>Node11&#45;&gt;Node15</title>
<path fill="none" stroke="midnightblue" d="M889.861,-52.4956C910.444,-47.84 934.188,-42.4693 954.895,-37.7856"/>
<polygon fill="midnightblue" stroke="midnightblue" points="955.808,-41.1676 964.789,-35.5476 954.264,-34.3401 955.808,-41.1676"/>
</g>
<!-- Node14 -->
<g id="node14" class="node"><title>Node14</title>
<g id="a_node14"><a xlink:href="structESM_1_1RefNum.html#a2b87d84313f4b83bdcb1ce9efed775c6" target="_top" xlink:title="ESM::RefNum::hasContentFile">
<polygon fill="white" stroke="black" points="1126,-54.5 1126,-73.5 1272,-73.5 1272,-54.5 1126,-54.5"/>
<text text-anchor="middle" x="1199" y="-61.5" font-family="FreeSans" font-size="10.00">ESM::RefNum::hasContentFile</text>
</a>
</g>
</g>
<!-- Node13&#45;&gt;Node14 -->
<g id="edge13" class="edge"><title>Node13&#45;&gt;Node14</title>
<path fill="none" stroke="midnightblue" d="M1090.25,-64C1098.64,-64 1107.18,-64 1115.58,-64"/>
<polygon fill="midnightblue" stroke="midnightblue" points="1115.76,-67.5001 1125.76,-64 1115.76,-60.5001 1115.76,-67.5001"/>
</g>
</g>
</svg>
