<?xml version="1.0" encoding="UTF-8" standalone="no"?>
<!DOCTYPE svg PUBLIC "-//W3C//DTD SVG 1.1//EN"
 "http://www.w3.org/Graphics/SVG/1.1/DTD/svg11.dtd">
<!-- Generated by graphviz version 2.36.0 (20140111.2315)
 -->
<!-- Title: CSMWorld::UniversalId::getType Pages: 1 -->
<svg width="472pt" height="262pt"
 viewBox="0.00 0.00 472.00 262.00" xmlns="http://www.w3.org/2000/svg" xmlns:xlink="http://www.w3.org/1999/xlink">
<g id="graph0" class="graph" transform="scale(1 1) rotate(0) translate(4 258)">
<title>CSMWorld::UniversalId::getType</title>
<polygon fill="white" stroke="none" points="-4,4 -4,-258 468,-258 468,4 -4,4"/>
<!-- Node1 -->
<g id="node1" class="node"><title>Node1</title>
<polygon fill="#bfbfbf" stroke="black" points="0.5,-120 0.5,-150 115.5,-150 115.5,-120 0.5,-120"/>
<text text-anchor="start" x="8.5" y="-138" font-family="FreeSans" font-size="10.00">CSMWorld::UniversalId</text>
<text text-anchor="middle" x="58" y="-127" font-family="FreeSans" font-size="10.00">::getType</text>
</g>
<!-- Node2 -->
<g id="node2" class="node"><title>Node2</title>
<g id="a_node2"><a xlink:href="classCSMTools_1_1MagicEffectCheckStage.html#a71a07c8928880bff8cd299d174fea6cf" target="_top" xlink:title="CSMTools::MagicEffectCheck\lStage::checkReferenceable">
<polygon fill="white" stroke="black" points="160,-224 160,-254 304,-254 304,-224 160,-224"/>
<text text-anchor="start" x="168" y="-242" font-family="FreeSans" font-size="10.00">CSMTools::MagicEffectCheck</text>
<text text-anchor="middle" x="232" y="-231" font-family="FreeSans" font-size="10.00">Stage::checkReferenceable</text>
</a>
</g>
</g>
<!-- Node1&#45;&gt;Node2 -->
<g id="edge1" class="edge"><title>Node1&#45;&gt;Node2</title>
<path fill="none" stroke="midnightblue" d="M80.5638,-157.73C98.2921,-175.258 124.833,-198.97 152,-214 158.797,-217.761 166.242,-221.047 173.759,-223.892"/>
<polygon fill="midnightblue" stroke="midnightblue" points="82.5928,-154.805 73.0679,-150.165 77.6204,-159.732 82.5928,-154.805"/>
</g>
<!-- Node3 -->
<g id="node3" class="node"><title>Node3</title>
<g id="a_node3"><a xlink:href="classCSMTools_1_1Tools.html#a6f908c0b60f97cf9a850ba5c1023c193" target="_top" xlink:title="CSMTools::Tools::runVerifier">
<polygon fill="white" stroke="black" points="163.5,-185.5 163.5,-204.5 300.5,-204.5 300.5,-185.5 163.5,-185.5"/>
<text text-anchor="middle" x="232" y="-192.5" font-family="FreeSans" font-size="10.00">CSMTools::Tools::runVerifier</text>
</a>
</g>
</g>
<!-- Node1&#45;&gt;Node3 -->
<g id="edge2" class="edge"><title>Node1&#45;&gt;Node3</title>
<path fill="none" stroke="midnightblue" d="M98.6612,-154.361C114.93,-161.807 134.112,-169.96 152,-176 162.558,-179.565 174.123,-182.739 185.068,-185.424"/>
<polygon fill="midnightblue" stroke="midnightblue" points="99.9943,-151.122 89.4507,-150.081 97.0442,-157.47 99.9943,-151.122"/>
</g>
<!-- Node4 -->
<g id="node4" class="node"><title>Node4</title>
<g id="a_node4"><a xlink:href="classCSVDoc_1_1View.html#a2ac96429b7935a4227b74cd151c89756" target="_top" xlink:title="CSVDoc::View::addSubView">
<polygon fill="white" stroke="black" points="164,-147.5 164,-166.5 300,-166.5 300,-147.5 164,-147.5"/>
<text text-anchor="middle" x="232" y="-154.5" font-family="FreeSans" font-size="10.00">CSVDoc::View::addSubView</text>
</a>
</g>
</g>
<!-- Node1&#45;&gt;Node4 -->
<g id="edge3" class="edge"><title>Node1&#45;&gt;Node4</title>
<path fill="none" stroke="midnightblue" d="M126.056,-143.577C138.454,-145.163 151.405,-146.819 163.807,-148.405"/>
<polygon fill="midnightblue" stroke="midnightblue" points="126.159,-140.062 115.796,-142.265 125.271,-147.005 126.159,-140.062"/>
</g>
<!-- Node6 -->
<g id="node6" class="node"><title>Node6</title>
<g id="a_node6"><a xlink:href="classCSVWorld_1_1GenericCreator.html#a63d40366960114b2125356ce6143023a" target="_top" xlink:title="CSVWorld::GenericCreator\l::GenericCreator">
<polygon fill="white" stroke="black" points="166.5,-98 166.5,-128 297.5,-128 297.5,-98 166.5,-98"/>
<text text-anchor="start" x="174.5" y="-116" font-family="FreeSans" font-size="10.00">CSVWorld::GenericCreator</text>
<text text-anchor="middle" x="232" y="-105" font-family="FreeSans" font-size="10.00">::GenericCreator</text>
</a>
</g>
</g>
<!-- Node1&#45;&gt;Node6 -->
<g id="edge5" class="edge"><title>Node1&#45;&gt;Node6</title>
<path fill="none" stroke="midnightblue" d="M125.805,-126.455C139.087,-124.756 153.013,-122.975 166.226,-121.285"/>
<polygon fill="midnightblue" stroke="midnightblue" points="125.271,-122.995 115.796,-127.735 126.159,-129.938 125.271,-122.995"/>
</g>
<!-- Node7 -->
<g id="node7" class="node"><title>Node7</title>
<g id="a_node7"><a xlink:href="classCSVWorld_1_1ReferenceableCreator.html#a0dca09b1872a7b9cbd6fad459906f413" target="_top" xlink:title="CSVWorld::ReferenceableCreator\l::ReferenceableCreator">
<polygon fill="white" stroke="black" points="152.5,-49 152.5,-79 311.5,-79 311.5,-49 152.5,-49"/>
<text text-anchor="start" x="160.5" y="-67" font-family="FreeSans" font-size="10.00">CSVWorld::ReferenceableCreator</text>
<text text-anchor="middle" x="232" y="-56" font-family="FreeSans" font-size="10.00">::ReferenceableCreator</text>
</a>
</g>
</g>
<!-- Node1&#45;&gt;Node7 -->
<g id="edge6" class="edge"><title>Node1&#45;&gt;Node7</title>
<path fill="none" stroke="midnightblue" d="M95.5586,-115.302C112.461,-106.617 132.968,-96.6659 152,-89 160.807,-85.4526 170.324,-82.0727 179.599,-79.0096"/>
<polygon fill="midnightblue" stroke="midnightblue" points="93.8299,-112.256 86.5718,-119.974 97.0588,-118.467 93.8299,-112.256"/>
</g>
<!-- Node8 -->
<g id="node8" class="node"><title>Node8</title>
<g id="a_node8"><a xlink:href="classCSVWorld_1_1TableSubView.html#a982aec1da99979fcf4a4f4bea98d01f4" target="_top" xlink:title="CSVWorld::TableSubView\l::cloneRequest">
<polygon fill="white" stroke="black" points="168.5,-0 168.5,-30 295.5,-30 295.5,-0 168.5,-0"/>
<text text-anchor="start" x="176.5" y="-18" font-family="FreeSans" font-size="10.00">CSVWorld::TableSubView</text>
<text text-anchor="middle" x="232" y="-7" font-family="FreeSans" font-size="10.00">::cloneRequest</text>
</a>
</g>
</g>
<!-- Node1&#45;&gt;Node8 -->
<g id="edge7" class="edge"><title>Node1&#45;&gt;Node8</title>
<path fill="none" stroke="midnightblue" d="M76.0726,-111.939C93.0964,-90.4664 121.104,-58.9962 152,-40 158.25,-36.1573 165.145,-32.8535 172.18,-30.0264"/>
<polygon fill="midnightblue" stroke="midnightblue" points="73.2545,-109.862 69.8928,-119.909 78.7864,-114.151 73.2545,-109.862"/>
</g>
<!-- Node5 -->
<g id="node5" class="node"><title>Node5</title>
<g id="a_node5"><a xlink:href="classCSVDoc_1_1ViewManager.html#ad3a1e8f57ee7d0ad99030563652d85bc" target="_top" xlink:title="CSVDoc::ViewManager\l::addView">
<polygon fill="white" stroke="black" points="348,-142 348,-172 464,-172 464,-142 348,-142"/>
<text text-anchor="start" x="356" y="-160" font-family="FreeSans" font-size="10.00">CSVDoc::ViewManager</text>
<text text-anchor="middle" x="406" y="-149" font-family="FreeSans" font-size="10.00">::addView</text>
</a>
</g>
</g>
<!-- Node4&#45;&gt;Node5 -->
<g id="edge4" class="edge"><title>Node4&#45;&gt;Node5</title>
<path fill="none" stroke="midnightblue" d="M310.526,-157C323.138,-157 335.995,-157 347.998,-157"/>
<polygon fill="midnightblue" stroke="midnightblue" points="310.485,-153.5 300.485,-157 310.485,-160.5 310.485,-153.5"/>
</g>
</g>
</svg>
