<?xml version="1.0" encoding="UTF-8" standalone="no"?>
<!DOCTYPE svg PUBLIC "-//W3C//DTD SVG 1.1//EN"
 "http://www.w3.org/Graphics/SVG/1.1/DTD/svg11.dtd">
<!-- Generated by graphviz version 2.36.0 (20140111.2315)
 -->
<!-- Title: MWSound::SoundManager::loadSound Pages: 1 -->
<svg width="692pt" height="283pt"
 viewBox="0.00 0.00 692.00 283.00" xmlns="http://www.w3.org/2000/svg" xmlns:xlink="http://www.w3.org/1999/xlink">
<g id="graph0" class="graph" transform="scale(1 1) rotate(0) translate(4 279)">
<title>MWSound::SoundManager::loadSound</title>
<polygon fill="white" stroke="none" points="-4,4 -4,-279 688,-279 688,4 -4,4"/>
<!-- Node1 -->
<g id="node1" class="node"><title>Node1</title>
<polygon fill="#bfbfbf" stroke="black" points="0.5,-98 0.5,-128 143.5,-128 143.5,-98 0.5,-98"/>
<text text-anchor="start" x="8.5" y="-116" font-family="FreeSans" font-size="10.00">MWSound::SoundManager</text>
<text text-anchor="middle" x="72" y="-105" font-family="FreeSans" font-size="10.00">::loadSound</text>
</g>
<!-- Node2 -->
<g id="node2" class="node"><title>Node2</title>
<g id="a_node2"><a xlink:href="classMWSound_1_1SoundManager.html#afd0379d55d7a110361591c90e03f398a" target="_top" xlink:title="MWSound::SoundManager\l::playSound">
<polygon fill="white" stroke="black" points="180.5,-196 180.5,-226 323.5,-226 323.5,-196 180.5,-196"/>
<text text-anchor="start" x="188.5" y="-214" font-family="FreeSans" font-size="10.00">MWSound::SoundManager</text>
<text text-anchor="middle" x="252" y="-203" font-family="FreeSans" font-size="10.00">::playSound</text>
</a>
</g>
</g>
<!-- Node1&#45;&gt;Node2 -->
<g id="edge1" class="edge"><title>Node1&#45;&gt;Node2</title>
<path fill="none" stroke="midnightblue" d="M99.8698,-134.247C120.806,-150.063 151.081,-171.36 180,-186 187.229,-189.66 195.121,-193.013 202.93,-195.994"/>
<polygon fill="midnightblue" stroke="midnightblue" points="101.845,-131.351 91.7762,-128.054 97.5908,-136.91 101.845,-131.351"/>
</g>
<!-- Node7 -->
<g id="node7" class="node"><title>Node7</title>
<g id="a_node7"><a xlink:href="classMWSound_1_1SoundManager.html#a78e8cbd7c90103b3823881bfe51277b8" target="_top" xlink:title="MWSound::SoundManager\l::playSound3D">
<polygon fill="white" stroke="black" points="180.5,-147 180.5,-177 323.5,-177 323.5,-147 180.5,-147"/>
<text text-anchor="start" x="188.5" y="-165" font-family="FreeSans" font-size="10.00">MWSound::SoundManager</text>
<text text-anchor="middle" x="252" y="-154" font-family="FreeSans" font-size="10.00">::playSound3D</text>
</a>
</g>
</g>
<!-- Node1&#45;&gt;Node7 -->
<g id="edge8" class="edge"><title>Node1&#45;&gt;Node7</title>
<path fill="none" stroke="midnightblue" d="M137.738,-130.821C156.957,-136.112 177.81,-141.852 196.323,-146.948"/>
<polygon fill="midnightblue" stroke="midnightblue" points="138.429,-127.381 127.858,-128.101 136.571,-134.13 138.429,-127.381"/>
</g>
<!-- Node8 -->
<g id="node8" class="node"><title>Node8</title>
<g id="a_node8"><a xlink:href="classMWSound_1_1SoundManager.html#aa777ac78d4f82d4b01ed6508ce8cb15c" target="_top" xlink:title="Stop a non&#45;3d looping sound. ">
<polygon fill="white" stroke="black" points="180.5,-98 180.5,-128 323.5,-128 323.5,-98 180.5,-98"/>
<text text-anchor="start" x="188.5" y="-116" font-family="FreeSans" font-size="10.00">MWSound::SoundManager</text>
<text text-anchor="middle" x="252" y="-105" font-family="FreeSans" font-size="10.00">::stopSound</text>
</a>
</g>
</g>
<!-- Node1&#45;&gt;Node8 -->
<g id="edge9" class="edge"><title>Node1&#45;&gt;Node8</title>
<path fill="none" stroke="midnightblue" d="M153.646,-113C162.599,-113 171.666,-113 180.479,-113"/>
<polygon fill="midnightblue" stroke="midnightblue" points="153.606,-109.5 143.606,-113 153.606,-116.5 153.606,-109.5"/>
</g>
<!-- Node9 -->
<g id="node9" class="node"><title>Node9</title>
<g id="a_node9"><a xlink:href="classMWSound_1_1SoundManager.html#a8d8786f5c459472e57bbac99544a0e0e" target="_top" xlink:title="Stop the given object from playing the given sound,. ">
<polygon fill="white" stroke="black" points="180.5,-49 180.5,-79 323.5,-79 323.5,-49 180.5,-49"/>
<text text-anchor="start" x="188.5" y="-67" font-family="FreeSans" font-size="10.00">MWSound::SoundManager</text>
<text text-anchor="middle" x="252" y="-56" font-family="FreeSans" font-size="10.00">::stopSound3D</text>
</a>
</g>
</g>
<!-- Node1&#45;&gt;Node9 -->
<g id="edge10" class="edge"><title>Node1&#45;&gt;Node9</title>
<path fill="none" stroke="midnightblue" d="M137.738,-95.1788C156.957,-89.8882 177.81,-84.1478 196.323,-79.0516"/>
<polygon fill="midnightblue" stroke="midnightblue" points="136.571,-91.8699 127.858,-97.8986 138.429,-98.6189 136.571,-91.8699"/>
</g>
<!-- Node10 -->
<g id="node10" class="node"><title>Node10</title>
<g id="a_node10"><a xlink:href="classMWSound_1_1SoundManager.html#ad2363591605605c3d6c15d02b8a53137" target="_top" xlink:title="MWSound::SoundManager\l::fadeOutSound3D">
<polygon fill="white" stroke="black" points="180.5,-0 180.5,-30 323.5,-30 323.5,-0 180.5,-0"/>
<text text-anchor="start" x="188.5" y="-18" font-family="FreeSans" font-size="10.00">MWSound::SoundManager</text>
<text text-anchor="middle" x="252" y="-7" font-family="FreeSans" font-size="10.00">::fadeOutSound3D</text>
</a>
</g>
</g>
<!-- Node1&#45;&gt;Node10 -->
<g id="edge11" class="edge"><title>Node1&#45;&gt;Node10</title>
<path fill="none" stroke="midnightblue" d="M99.3902,-91.6257C120.286,-75.4946 150.731,-53.7028 180,-39 186.511,-35.7292 193.571,-32.741 200.628,-30.0682"/>
<polygon fill="midnightblue" stroke="midnightblue" points="97.0431,-89.0181 91.3251,-97.9375 101.357,-94.5307 97.0431,-89.0181"/>
</g>
<!-- Node3 -->
<g id="node3" class="node"><title>Node3</title>
<g id="a_node3"><a xlink:href="classMWSound_1_1SoundManager.html#a7c950e7055314a10d2abd6bf4dafec4d" target="_top" xlink:title="MWSound::SoundManager\l::updateRegionSound">
<polygon fill="white" stroke="black" points="360.5,-245 360.5,-275 503.5,-275 503.5,-245 360.5,-245"/>
<text text-anchor="start" x="368.5" y="-263" font-family="FreeSans" font-size="10.00">MWSound::SoundManager</text>
<text text-anchor="middle" x="432" y="-252" font-family="FreeSans" font-size="10.00">::updateRegionSound</text>
</a>
</g>
</g>
<!-- Node2&#45;&gt;Node3 -->
<g id="edge2" class="edge"><title>Node2&#45;&gt;Node3</title>
<path fill="none" stroke="midnightblue" d="M317.738,-228.821C336.957,-234.112 357.81,-239.852 376.323,-244.948"/>
<polygon fill="midnightblue" stroke="midnightblue" points="318.429,-225.381 307.858,-226.101 316.571,-232.13 318.429,-225.381"/>
</g>
<!-- Node5 -->
<g id="node5" class="node"><title>Node5</title>
<g id="a_node5"><a xlink:href="classMWSound_1_1SoundManager.html#aff054188da54f1b580eee560e823ec9d" target="_top" xlink:title="MWSound::SoundManager\l::updateWaterSound">
<polygon fill="white" stroke="black" points="360.5,-196 360.5,-226 503.5,-226 503.5,-196 360.5,-196"/>
<text text-anchor="start" x="368.5" y="-214" font-family="FreeSans" font-size="10.00">MWSound::SoundManager</text>
<text text-anchor="middle" x="432" y="-203" font-family="FreeSans" font-size="10.00">::updateWaterSound</text>
</a>
</g>
</g>
<!-- Node2&#45;&gt;Node5 -->
<g id="edge4" class="edge"><title>Node2&#45;&gt;Node5</title>
<path fill="none" stroke="midnightblue" d="M333.646,-211C342.599,-211 351.666,-211 360.479,-211"/>
<polygon fill="midnightblue" stroke="midnightblue" points="333.606,-207.5 323.606,-211 333.606,-214.5 333.606,-207.5"/>
</g>
<!-- Node6 -->
<g id="node6" class="node"><title>Node6</title>
<g id="a_node6"><a xlink:href="classMWSound_1_1SoundManager.html#af7aef25477356cf24cddf6b45e661c29" target="_top" xlink:title="MWSound::SoundManager\l::updateSounds">
<polygon fill="white" stroke="black" points="360.5,-147 360.5,-177 503.5,-177 503.5,-147 360.5,-147"/>
<text text-anchor="start" x="368.5" y="-165" font-family="FreeSans" font-size="10.00">MWSound::SoundManager</text>
<text text-anchor="middle" x="432" y="-154" font-family="FreeSans" font-size="10.00">::updateSounds</text>
</a>
</g>
</g>
<!-- Node2&#45;&gt;Node6 -->
<g id="edge6" class="edge"><title>Node2&#45;&gt;Node6</title>
<path fill="none" stroke="midnightblue" d="M317.738,-193.179C336.957,-187.888 357.81,-182.148 376.323,-177.052"/>
<polygon fill="midnightblue" stroke="midnightblue" points="316.571,-189.87 307.858,-195.899 318.429,-196.619 316.571,-189.87"/>
</g>
<!-- Node4 -->
<g id="node4" class="node"><title>Node4</title>
<g id="a_node4"><a xlink:href="classMWSound_1_1SoundManager.html#a4ec845757bc0552608907ae6c14e3b30" target="_top" xlink:title="MWSound::SoundManager\l::update">
<polygon fill="white" stroke="black" points="540.5,-196 540.5,-226 683.5,-226 683.5,-196 540.5,-196"/>
<text text-anchor="start" x="548.5" y="-214" font-family="FreeSans" font-size="10.00">MWSound::SoundManager</text>
<text text-anchor="middle" x="612" y="-203" font-family="FreeSans" font-size="10.00">::update</text>
</a>
</g>
</g>
<!-- Node3&#45;&gt;Node4 -->
<g id="edge3" class="edge"><title>Node3&#45;&gt;Node4</title>
<path fill="none" stroke="midnightblue" d="M497.738,-242.179C516.957,-236.888 537.81,-231.148 556.323,-226.052"/>
<polygon fill="midnightblue" stroke="midnightblue" points="496.571,-238.87 487.858,-244.899 498.429,-245.619 496.571,-238.87"/>
</g>
<!-- Node5&#45;&gt;Node4 -->
<g id="edge5" class="edge"><title>Node5&#45;&gt;Node4</title>
<path fill="none" stroke="midnightblue" d="M513.646,-211C522.599,-211 531.666,-211 540.479,-211"/>
<polygon fill="midnightblue" stroke="midnightblue" points="513.606,-207.5 503.606,-211 513.606,-214.5 513.606,-207.5"/>
</g>
<!-- Node6&#45;&gt;Node4 -->
<g id="edge7" class="edge"><title>Node6&#45;&gt;Node4</title>
<path fill="none" stroke="midnightblue" d="M497.738,-179.821C516.957,-185.112 537.81,-190.852 556.323,-195.948"/>
<polygon fill="midnightblue" stroke="midnightblue" points="498.429,-176.381 487.858,-177.101 496.571,-183.13 498.429,-176.381"/>
</g>
</g>
</svg>
