<?xml version="1.0" encoding="UTF-8" standalone="no"?>
<!DOCTYPE svg PUBLIC "-//W3C//DTD SVG 1.1//EN"
 "http://www.w3.org/Graphics/SVG/1.1/DTD/svg11.dtd">
<!-- Generated by graphviz version 2.36.0 (20140111.2315)
 -->
<!-- Title: ESM::ESMWriter::writeHNOString Pages: 1 -->
<svg width="914pt" height="212pt"
 viewBox="0.00 0.00 914.00 212.00" xmlns="http://www.w3.org/2000/svg" xmlns:xlink="http://www.w3.org/1999/xlink">
<g id="graph0" class="graph" transform="scale(1 1) rotate(0) translate(4 208)">
<title>ESM::ESMWriter::writeHNOString</title>
<polygon fill="white" stroke="none" points="-4,4 -4,-208 910,-208 910,4 -4,4"/>
<!-- Node1 -->
<g id="node1" class="node"><title>Node1</title>
<polygon fill="#bfbfbf" stroke="black" points="0.5,-143.5 0.5,-162.5 171.5,-162.5 171.5,-143.5 0.5,-143.5"/>
<text text-anchor="middle" x="86" y="-150.5" font-family="FreeSans" font-size="10.00">ESM::ESMWriter::writeHNOString</text>
</g>
<!-- Node2 -->
<g id="node2" class="node"><title>Node2</title>
<g id="a_node2"><a xlink:href="classESM_1_1ESMWriter.html#a22f1e180882cca15b613dba10a298def" target="_top" xlink:title="ESM::ESMWriter::writeHNString">
<polygon fill="white" stroke="black" points="208,-143.5 208,-162.5 372,-162.5 372,-143.5 208,-143.5"/>
<text text-anchor="middle" x="290" y="-150.5" font-family="FreeSans" font-size="10.00">ESM::ESMWriter::writeHNString</text>
</a>
</g>
</g>
<!-- Node1&#45;&gt;Node2 -->
<g id="edge1" class="edge"><title>Node1&#45;&gt;Node2</title>
<path fill="none" stroke="midnightblue" d="M171.788,-153C180.402,-153 189.177,-153 197.855,-153"/>
<polygon fill="midnightblue" stroke="midnightblue" points="197.981,-156.5 207.981,-153 197.981,-149.5 197.981,-156.5"/>
</g>
<!-- Node3 -->
<g id="node3" class="node"><title>Node3</title>
<g id="a_node3"><a xlink:href="classESM_1_1ESMWriter.html#a8e375456001f0c1390e688bc11b318f9" target="_top" xlink:title="ESM::ESMWriter::startSub\lRecord">
<polygon fill="white" stroke="black" points="416.5,-138 416.5,-168 555.5,-168 555.5,-138 416.5,-138"/>
<text text-anchor="start" x="424.5" y="-156" font-family="FreeSans" font-size="10.00">ESM::ESMWriter::startSub</text>
<text text-anchor="middle" x="486" y="-145" font-family="FreeSans" font-size="10.00">Record</text>
</a>
</g>
</g>
<!-- Node2&#45;&gt;Node3 -->
<g id="edge2" class="edge"><title>Node2&#45;&gt;Node3</title>
<path fill="none" stroke="midnightblue" d="M372.149,-153C383.438,-153 395.02,-153 406.263,-153"/>
<polygon fill="midnightblue" stroke="midnightblue" points="406.475,-156.5 416.475,-153 406.475,-149.5 406.475,-156.5"/>
</g>
<!-- Node6 -->
<g id="node6" class="node"><title>Node6</title>
<g id="a_node6"><a xlink:href="classESM_1_1ESMWriter.html#af73c2fc8a11d37bce2c6545e0b643513" target="_top" xlink:title="ESM::ESMWriter::writeHString">
<polygon fill="white" stroke="black" points="408,-99.5 408,-118.5 564,-118.5 564,-99.5 408,-99.5"/>
<text text-anchor="middle" x="486" y="-106.5" font-family="FreeSans" font-size="10.00">ESM::ESMWriter::writeHString</text>
</a>
</g>
</g>
<!-- Node2&#45;&gt;Node6 -->
<g id="edge5" class="edge"><title>Node2&#45;&gt;Node6</title>
<path fill="none" stroke="midnightblue" d="M333.095,-143.453C362.458,-136.793 401.828,-127.864 433.13,-120.764"/>
<polygon fill="midnightblue" stroke="midnightblue" points="434.009,-124.154 442.987,-118.529 432.461,-117.327 434.009,-124.154"/>
</g>
<!-- Node11 -->
<g id="node11" class="node"><title>Node11</title>
<g id="a_node11"><a xlink:href="classESM_1_1ESMWriter.html#aa9773ad75705c3078f4c4d7be8d90acb" target="_top" xlink:title="ESM::ESMWriter::endRecord">
<polygon fill="white" stroke="black" points="601,-184.5 601,-203.5 749,-203.5 749,-184.5 601,-184.5"/>
<text text-anchor="middle" x="675" y="-191.5" font-family="FreeSans" font-size="10.00">ESM::ESMWriter::endRecord</text>
</a>
</g>
</g>
<!-- Node2&#45;&gt;Node11 -->
<g id="edge11" class="edge"><title>Node2&#45;&gt;Node11</title>
<path fill="none" stroke="midnightblue" d="M330.57,-162.539C353.128,-167.619 382.002,-173.52 408,-177 468.844,-185.145 538.056,-189.413 590.627,-191.636"/>
<polygon fill="midnightblue" stroke="midnightblue" points="590.778,-195.145 600.912,-192.054 591.062,-188.151 590.778,-195.145"/>
</g>
<!-- Node4 -->
<g id="node4" class="node"><title>Node4</title>
<g id="a_node4"><a xlink:href="classESM_1_1ESMWriter.html#a41f07f28edc21069fd8c1a836233b18f" target="_top" xlink:title="ESM::ESMWriter::writeName">
<polygon fill="white" stroke="black" points="600.5,-145.5 600.5,-164.5 749.5,-164.5 749.5,-145.5 600.5,-145.5"/>
<text text-anchor="middle" x="675" y="-152.5" font-family="FreeSans" font-size="10.00">ESM::ESMWriter::writeName</text>
</a>
</g>
</g>
<!-- Node3&#45;&gt;Node4 -->
<g id="edge3" class="edge"><title>Node3&#45;&gt;Node4</title>
<path fill="none" stroke="midnightblue" d="M555.57,-153.733C566.857,-153.854 578.667,-153.98 590.274,-154.105"/>
<polygon fill="midnightblue" stroke="midnightblue" points="590.366,-157.606 600.403,-154.213 590.441,-150.606 590.366,-157.606"/>
</g>
<!-- Node5 -->
<g id="node5" class="node"><title>Node5</title>
<g id="a_node5"><a xlink:href="classESM_1_1ESMWriter.html#a9b250b093c6c699f88224fcecc9a8a29" target="_top" xlink:title="ESM::ESMWriter::write">
<polygon fill="white" stroke="black" points="786,-147.5 786,-166.5 906,-166.5 906,-147.5 786,-147.5"/>
<text text-anchor="middle" x="846" y="-154.5" font-family="FreeSans" font-size="10.00">ESM::ESMWriter::write</text>
</a>
</g>
</g>
<!-- Node4&#45;&gt;Node5 -->
<g id="edge4" class="edge"><title>Node4&#45;&gt;Node5</title>
<path fill="none" stroke="midnightblue" d="M749.634,-155.871C758.329,-155.974 767.18,-156.079 775.81,-156.181"/>
<polygon fill="midnightblue" stroke="midnightblue" points="775.777,-159.681 785.818,-156.3 775.86,-152.681 775.777,-159.681"/>
</g>
<!-- Node6&#45;&gt;Node5 -->
<g id="edge6" class="edge"><title>Node6&#45;&gt;Node5</title>
<path fill="none" stroke="midnightblue" d="M564.123,-114.563C616.705,-118.932 687.807,-125.968 750,-136 765.175,-138.448 781.565,-141.809 796.39,-145.125"/>
<polygon fill="midnightblue" stroke="midnightblue" points="795.84,-148.589 806.368,-147.401 797.397,-141.765 795.84,-148.589"/>
</g>
<!-- Node7 -->
<g id="node7" class="node"><title>Node7</title>
<g id="a_node7"><a xlink:href="classToUTF8_1_1Utf8Encoder.html#a645d13bb7de23b466edb0f422605d0e4" target="_top" xlink:title="ToUTF8::Utf8Encoder\l::getLegacyEnc">
<polygon fill="white" stroke="black" points="617,-50 617,-80 733,-80 733,-50 617,-50"/>
<text text-anchor="start" x="625" y="-68" font-family="FreeSans" font-size="10.00">ToUTF8::Utf8Encoder</text>
<text text-anchor="middle" x="675" y="-57" font-family="FreeSans" font-size="10.00">::getLegacyEnc</text>
</a>
</g>
</g>
<!-- Node6&#45;&gt;Node7 -->
<g id="edge7" class="edge"><title>Node6&#45;&gt;Node7</title>
<path fill="none" stroke="midnightblue" d="M527.576,-99.4527C550.722,-94.0066 580.319,-87.0425 606.839,-80.8027"/>
<polygon fill="midnightblue" stroke="midnightblue" points="607.899,-84.1487 616.832,-78.4513 606.296,-77.3348 607.899,-84.1487"/>
</g>
<!-- Node8 -->
<g id="node8" class="node"><title>Node8</title>
<g id="a_node8"><a xlink:href="classToUTF8_1_1Utf8Encoder.html#ab8787c5838bad4f54018c2d0cd2d46d2" target="_top" xlink:title="ToUTF8::Utf8Encoder\l::getLength2">
<polygon fill="white" stroke="black" points="788,-49 788,-79 904,-79 904,-49 788,-49"/>
<text text-anchor="start" x="796" y="-67" font-family="FreeSans" font-size="10.00">ToUTF8::Utf8Encoder</text>
<text text-anchor="middle" x="846" y="-56" font-family="FreeSans" font-size="10.00">::getLength2</text>
</a>
</g>
</g>
<!-- Node7&#45;&gt;Node8 -->
<g id="edge8" class="edge"><title>Node7&#45;&gt;Node8</title>
<path fill="none" stroke="midnightblue" d="M733.216,-64.6614C747.532,-64.5767 763.018,-64.4851 777.77,-64.3978"/>
<polygon fill="midnightblue" stroke="midnightblue" points="777.864,-67.8974 787.843,-64.3382 777.823,-60.8975 777.864,-67.8974"/>
</g>
<!-- Node9 -->
<g id="node9" class="node"><title>Node9</title>
<g id="a_node9"><a xlink:href="classToUTF8_1_1Utf8Encoder.html#a80b3e05967c1f28c1ce5325093bda679" target="_top" xlink:title="ToUTF8::Utf8Encoder\l::resize">
<polygon fill="white" stroke="black" points="788,-0 788,-30 904,-30 904,-0 788,-0"/>
<text text-anchor="start" x="796" y="-18" font-family="FreeSans" font-size="10.00">ToUTF8::Utf8Encoder</text>
<text text-anchor="middle" x="846" y="-7" font-family="FreeSans" font-size="10.00">::resize</text>
</a>
</g>
</g>
<!-- Node7&#45;&gt;Node9 -->
<g id="edge9" class="edge"><title>Node7&#45;&gt;Node9</title>
<path fill="none" stroke="midnightblue" d="M726.706,-49.9984C744.838,-44.6339 765.455,-38.534 784.342,-32.9462"/>
<polygon fill="midnightblue" stroke="midnightblue" points="785.442,-36.2707 794.038,-30.0774 783.456,-29.5583 785.442,-36.2707"/>
</g>
<!-- Node10 -->
<g id="node10" class="node"><title>Node10</title>
<g id="a_node10"><a xlink:href="classToUTF8_1_1Utf8Encoder.html#abdb4c1e6b38b7f88fb953a237c764057" target="_top" xlink:title="ToUTF8::Utf8Encoder\l::copyFromArray2">
<polygon fill="white" stroke="black" points="788,-98 788,-128 904,-128 904,-98 788,-98"/>
<text text-anchor="start" x="796" y="-116" font-family="FreeSans" font-size="10.00">ToUTF8::Utf8Encoder</text>
<text text-anchor="middle" x="846" y="-105" font-family="FreeSans" font-size="10.00">::copyFromArray2</text>
</a>
</g>
</g>
<!-- Node7&#45;&gt;Node10 -->
<g id="edge10" class="edge"><title>Node7&#45;&gt;Node10</title>
<path fill="none" stroke="midnightblue" d="M729.009,-80.0558C745.84,-84.8363 764.617,-90.1693 782.076,-95.1281"/>
<polygon fill="midnightblue" stroke="midnightblue" points="781.603,-98.6322 792.179,-97.9976 783.516,-91.8985 781.603,-98.6322"/>
</g>
<!-- Node11&#45;&gt;Node5 -->
<g id="edge12" class="edge"><title>Node11&#45;&gt;Node5</title>
<path fill="none" stroke="midnightblue" d="M719.522,-184.472C741.416,-179.678 768.154,-173.824 791.313,-168.754"/>
<polygon fill="midnightblue" stroke="midnightblue" points="792.312,-172.118 801.332,-166.56 790.815,-165.28 792.312,-172.118"/>
</g>
</g>
</svg>
