<?xml version="1.0" encoding="UTF-8" standalone="no"?>
<!DOCTYPE svg PUBLIC "-//W3C//DTD SVG 1.1//EN"
 "http://www.w3.org/Graphics/SVG/1.1/DTD/svg11.dtd">
<!-- Generated by graphviz version 2.36.0 (20140111.2315)
 -->
<!-- Title: /home/scrawl/Dev/openmw/components/sceneutil/util.hpp Pages: 1 -->
<svg width="1272pt" height="128pt"
 viewBox="0.00 0.00 1272.00 128.00" xmlns="http://www.w3.org/2000/svg" xmlns:xlink="http://www.w3.org/1999/xlink">
<g id="graph0" class="graph" transform="scale(1 1) rotate(0) translate(4 124)">
<title>/home/scrawl/Dev/openmw/components/sceneutil/util.hpp</title>
<polygon fill="white" stroke="none" points="-4,4 -4,-124 1268,-124 1268,4 -4,4"/>
<!-- Node1 -->
<g id="node1" class="node"><title>Node1</title>
<polygon fill="#bfbfbf" stroke="black" points="591,-78.5 591,-119.5 723,-119.5 723,-78.5 591,-78.5"/>
<text text-anchor="start" x="599" y="-107.5" font-family="FreeSans" font-size="10.00">/home/scrawl/Dev/openmw</text>
<text text-anchor="start" x="599" y="-96.5" font-family="FreeSans" font-size="10.00">/components/sceneutil</text>
<text text-anchor="middle" x="657" y="-85.5" font-family="FreeSans" font-size="10.00">/util.hpp</text>
</g>
<!-- Node2 -->
<g id="node2" class="node"><title>Node2</title>
<g id="a_node2"><a xlink:href="unpagedworldspacewidget_8cpp.html" target="_top" xlink:title="/home/scrawl/Dev/openmw\l/apps/opencs/view/render\l/unpagedworldspacewidget.cpp">
<polygon fill="white" stroke="black" points="0,-0.5 0,-41.5 150,-41.5 150,-0.5 0,-0.5"/>
<text text-anchor="start" x="8" y="-29.5" font-family="FreeSans" font-size="10.00">/home/scrawl/Dev/openmw</text>
<text text-anchor="start" x="8" y="-18.5" font-family="FreeSans" font-size="10.00">/apps/opencs/view/render</text>
<text text-anchor="middle" x="75" y="-7.5" font-family="FreeSans" font-size="10.00">/unpagedworldspacewidget.cpp</text>
</a>
</g>
</g>
<!-- Node1&#45;&gt;Node2 -->
<g id="edge1" class="edge"><title>Node1&#45;&gt;Node2</title>
<path fill="none" stroke="midnightblue" d="M580.867,-92.3385C482.822,-84.3849 307.378,-67.9074 159,-42 156.046,-41.4843 153.042,-40.9271 150.012,-40.3381"/>
<polygon fill="midnightblue" stroke="midnightblue" points="580.732,-95.8389 590.98,-93.1509 581.293,-88.8613 580.732,-95.8389"/>
</g>
<!-- Node3 -->
<g id="node3" class="node"><title>Node3</title>
<g id="a_node3"><a xlink:href="renderingmanager_8cpp.html" target="_top" xlink:title="/home/scrawl/Dev/openmw\l/apps/openmw/mwrender\l/renderingmanager.cpp">
<polygon fill="white" stroke="black" points="168,-0.5 168,-41.5 300,-41.5 300,-0.5 168,-0.5"/>
<text text-anchor="start" x="176" y="-29.5" font-family="FreeSans" font-size="10.00">/home/scrawl/Dev/openmw</text>
<text text-anchor="start" x="176" y="-18.5" font-family="FreeSans" font-size="10.00">/apps/openmw/mwrender</text>
<text text-anchor="middle" x="234" y="-7.5" font-family="FreeSans" font-size="10.00">/renderingmanager.cpp</text>
</a>
</g>
</g>
<!-- Node1&#45;&gt;Node3 -->
<g id="edge2" class="edge"><title>Node1&#45;&gt;Node3</title>
<path fill="none" stroke="midnightblue" d="M580.722,-87.9874C509.941,-78.1621 401.838,-61.7951 309,-42 306.1,-41.3818 303.145,-40.7221 300.166,-40.0326"/>
<polygon fill="midnightblue" stroke="midnightblue" points="580.504,-91.4904 590.888,-89.3892 581.46,-84.556 580.504,-91.4904"/>
</g>
<!-- Node4 -->
<g id="node4" class="node"><title>Node4</title>
<g id="a_node4"><a xlink:href="sky_8cpp.html" target="_top" xlink:title="/home/scrawl/Dev/openmw\l/apps/openmw/mwrender\l/sky.cpp">
<polygon fill="white" stroke="black" points="318,-0.5 318,-41.5 450,-41.5 450,-0.5 318,-0.5"/>
<text text-anchor="start" x="326" y="-29.5" font-family="FreeSans" font-size="10.00">/home/scrawl/Dev/openmw</text>
<text text-anchor="start" x="326" y="-18.5" font-family="FreeSans" font-size="10.00">/apps/openmw/mwrender</text>
<text text-anchor="middle" x="384" y="-7.5" font-family="FreeSans" font-size="10.00">/sky.cpp</text>
</a>
</g>
</g>
<!-- Node1&#45;&gt;Node4 -->
<g id="edge3" class="edge"><title>Node1&#45;&gt;Node4</title>
<path fill="none" stroke="midnightblue" d="M581.23,-76.9064C540.181,-65.479 489.929,-51.4895 450.423,-40.4915"/>
<polygon fill="midnightblue" stroke="midnightblue" points="580.342,-80.2923 590.914,-79.6025 582.219,-73.5488 580.342,-80.2923"/>
</g>
<!-- Node5 -->
<g id="node5" class="node"><title>Node5</title>
<g id="a_node5"><a xlink:href="scenemanager_8cpp.html" target="_top" xlink:title="/home/scrawl/Dev/openmw\l/components/resource/scenemanager.cpp">
<polygon fill="white" stroke="black" points="468,-6 468,-36 664,-36 664,-6 468,-6"/>
<text text-anchor="start" x="476" y="-24" font-family="FreeSans" font-size="10.00">/home/scrawl/Dev/openmw</text>
<text text-anchor="middle" x="566" y="-13" font-family="FreeSans" font-size="10.00">/components/resource/scenemanager.cpp</text>
</a>
</g>
</g>
<!-- Node1&#45;&gt;Node5 -->
<g id="edge4" class="edge"><title>Node1&#45;&gt;Node5</title>
<path fill="none" stroke="midnightblue" d="M625.858,-71.9916C611.518,-60.0154 595.059,-46.2687 583.033,-36.2254"/>
<polygon fill="midnightblue" stroke="midnightblue" points="623.646,-74.7043 633.565,-78.4281 628.133,-69.3316 623.646,-74.7043"/>
</g>
<!-- Node6 -->
<g id="node6" class="node"><title>Node6</title>
<g id="a_node6"><a xlink:href="lightmanager_8cpp.html" target="_top" xlink:title="/home/scrawl/Dev/openmw\l/components/sceneutil\l/lightmanager.cpp">
<polygon fill="white" stroke="black" points="682,-0.5 682,-41.5 814,-41.5 814,-0.5 682,-0.5"/>
<text text-anchor="start" x="690" y="-29.5" font-family="FreeSans" font-size="10.00">/home/scrawl/Dev/openmw</text>
<text text-anchor="start" x="690" y="-18.5" font-family="FreeSans" font-size="10.00">/components/sceneutil</text>
<text text-anchor="middle" x="748" y="-7.5" font-family="FreeSans" font-size="10.00">/lightmanager.cpp</text>
</a>
</g>
</g>
<!-- Node1&#45;&gt;Node6 -->
<g id="edge5" class="edge"><title>Node1&#45;&gt;Node6</title>
<path fill="none" stroke="midnightblue" d="M688.397,-71.7785C700.293,-61.8432 713.616,-50.7159 724.645,-41.5056"/>
<polygon fill="midnightblue" stroke="midnightblue" points="685.867,-69.3316 680.435,-78.4281 690.354,-74.7043 685.867,-69.3316"/>
</g>
<!-- Node7 -->
<g id="node7" class="node"><title>Node7</title>
<g id="a_node7"><a xlink:href="lightutil_8cpp.html" target="_top" xlink:title="/home/scrawl/Dev/openmw\l/components/sceneutil\l/lightutil.cpp">
<polygon fill="white" stroke="black" points="832,-0.5 832,-41.5 964,-41.5 964,-0.5 832,-0.5"/>
<text text-anchor="start" x="840" y="-29.5" font-family="FreeSans" font-size="10.00">/home/scrawl/Dev/openmw</text>
<text text-anchor="start" x="840" y="-18.5" font-family="FreeSans" font-size="10.00">/components/sceneutil</text>
<text text-anchor="middle" x="898" y="-7.5" font-family="FreeSans" font-size="10.00">/lightutil.cpp</text>
</a>
</g>
</g>
<!-- Node1&#45;&gt;Node7 -->
<g id="edge6" class="edge"><title>Node1&#45;&gt;Node7</title>
<path fill="none" stroke="midnightblue" d="M728.971,-75.3039C763.085,-64.5458 803.43,-51.8229 836.147,-41.5056"/>
<polygon fill="midnightblue" stroke="midnightblue" points="727.548,-72.0826 719.063,-78.4281 729.653,-78.7585 727.548,-72.0826"/>
</g>
<!-- Node8 -->
<g id="node8" class="node"><title>Node8</title>
<g id="a_node8"><a xlink:href="riggeometry_8cpp.html" target="_top" xlink:title="/home/scrawl/Dev/openmw\l/components/sceneutil\l/riggeometry.cpp">
<polygon fill="white" stroke="black" points="982,-0.5 982,-41.5 1114,-41.5 1114,-0.5 982,-0.5"/>
<text text-anchor="start" x="990" y="-29.5" font-family="FreeSans" font-size="10.00">/home/scrawl/Dev/openmw</text>
<text text-anchor="start" x="990" y="-18.5" font-family="FreeSans" font-size="10.00">/components/sceneutil</text>
<text text-anchor="middle" x="1048" y="-7.5" font-family="FreeSans" font-size="10.00">/riggeometry.cpp</text>
</a>
</g>
</g>
<!-- Node1&#45;&gt;Node8 -->
<g id="edge7" class="edge"><title>Node1&#45;&gt;Node8</title>
<path fill="none" stroke="midnightblue" d="M733.339,-86.3421C797.566,-76.0874 891.675,-60.015 973,-42 975.895,-41.3588 978.845,-40.6801 981.822,-39.9751"/>
<polygon fill="midnightblue" stroke="midnightblue" points="732.622,-82.9121 723.295,-87.9374 733.72,-89.8255 732.622,-82.9121"/>
</g>
<!-- Node9 -->
<g id="node9" class="node"><title>Node9</title>
<g id="a_node9"><a xlink:href="components_2sceneutil_2util_8cpp.html" target="_top" xlink:title="/home/scrawl/Dev/openmw\l/components/sceneutil\l/util.cpp">
<polygon fill="white" stroke="black" points="1132,-0.5 1132,-41.5 1264,-41.5 1264,-0.5 1132,-0.5"/>
<text text-anchor="start" x="1140" y="-29.5" font-family="FreeSans" font-size="10.00">/home/scrawl/Dev/openmw</text>
<text text-anchor="start" x="1140" y="-18.5" font-family="FreeSans" font-size="10.00">/components/sceneutil</text>
<text text-anchor="middle" x="1198" y="-7.5" font-family="FreeSans" font-size="10.00">/util.cpp</text>
</a>
</g>
</g>
<!-- Node1&#45;&gt;Node9 -->
<g id="edge8" class="edge"><title>Node1&#45;&gt;Node9</title>
<path fill="none" stroke="midnightblue" d="M733.181,-92.1656C825.877,-84.3045 986.873,-68.194 1123,-42 1125.91,-41.4398 1128.88,-40.8282 1131.86,-40.1781"/>
<polygon fill="midnightblue" stroke="midnightblue" points="732.722,-88.6917 723.049,-93.015 733.307,-95.6672 732.722,-88.6917"/>
</g>
</g>
</svg>
