<?xml version="1.0" encoding="UTF-8" standalone="no"?>
<!DOCTYPE svg PUBLIC "-//W3C//DTD SVG 1.1//EN"
 "http://www.w3.org/Graphics/SVG/1.1/DTD/svg11.dtd">
<!-- Generated by graphviz version 2.36.0 (20140111.2315)
 -->
<!-- Title: /home/travis/build/elsid/openmw/apps/openmw/mwgui/controllers.hpp Pages: 1 -->
<svg width="967pt" height="206pt"
 viewBox="0.00 0.00 967.00 206.00" xmlns="http://www.w3.org/2000/svg" xmlns:xlink="http://www.w3.org/1999/xlink">
<g id="graph0" class="graph" transform="scale(1 1) rotate(0) translate(4 202)">
<title>/home/travis/build/elsid/openmw/apps/openmw/mwgui/controllers.hpp</title>
<polygon fill="white" stroke="none" points="-4,4 -4,-202 963,-202 963,4 -4,4"/>
<!-- Node1 -->
<g id="node1" class="node"><title>Node1</title>
<polygon fill="#bfbfbf" stroke="black" points="371.5,-156.5 371.5,-197.5 526.5,-197.5 526.5,-156.5 371.5,-156.5"/>
<text text-anchor="start" x="379.5" y="-185.5" font-family="FreeSans" font-size="10.00">/home/travis/build</text>
<text text-anchor="start" x="379.5" y="-174.5" font-family="FreeSans" font-size="10.00">/elsid/openmw/apps/openmw</text>
<text text-anchor="middle" x="449" y="-163.5" font-family="FreeSans" font-size="10.00">/mwgui/controllers.hpp</text>
</g>
<!-- Node2 -->
<g id="node2" class="node"><title>Node2</title>
<g id="a_node2"><a xlink:href="alchemywindow_8hpp.html" target="_top" xlink:title="/home/travis/build\l/elsid/openmw/apps/openmw\l/mwgui/alchemywindow.hpp">
<polygon fill="white" stroke="black" points="73.5,-78.5 73.5,-119.5 228.5,-119.5 228.5,-78.5 73.5,-78.5"/>
<text text-anchor="start" x="81.5" y="-107.5" font-family="FreeSans" font-size="10.00">/home/travis/build</text>
<text text-anchor="start" x="81.5" y="-96.5" font-family="FreeSans" font-size="10.00">/elsid/openmw/apps/openmw</text>
<text text-anchor="middle" x="151" y="-85.5" font-family="FreeSans" font-size="10.00">/mwgui/alchemywindow.hpp</text>
</a>
</g>
</g>
<!-- Node1&#45;&gt;Node2 -->
<g id="edge1" class="edge"><title>Node1&#45;&gt;Node2</title>
<path fill="none" stroke="midnightblue" d="M362.443,-153.925C319.755,-143.038 268.719,-130.022 227.482,-119.506"/>
<polygon fill="midnightblue" stroke="midnightblue" points="361.703,-157.348 372.258,-156.428 363.433,-150.565 361.703,-157.348"/>
</g>
<!-- Node4 -->
<g id="node4" class="node"><title>Node4</title>
<g id="a_node4"><a xlink:href="windowmanagerimp_8cpp.html" target="_top" xlink:title="/home/travis/build\l/elsid/openmw/apps/openmw\l/mwgui/windowmanagerimp.cpp">
<polygon fill="white" stroke="black" points="172.5,-0.5 172.5,-41.5 341.5,-41.5 341.5,-0.5 172.5,-0.5"/>
<text text-anchor="start" x="180.5" y="-29.5" font-family="FreeSans" font-size="10.00">/home/travis/build</text>
<text text-anchor="start" x="180.5" y="-18.5" font-family="FreeSans" font-size="10.00">/elsid/openmw/apps/openmw</text>
<text text-anchor="middle" x="257" y="-7.5" font-family="FreeSans" font-size="10.00">/mwgui/windowmanagerimp.cpp</text>
</a>
</g>
</g>
<!-- Node1&#45;&gt;Node4 -->
<g id="edge8" class="edge"><title>Node1&#45;&gt;Node4</title>
<path fill="none" stroke="midnightblue" d="M361.489,-165.833C330.787,-157.996 298.605,-144.207 277,-120 257.806,-98.4948 255.095,-63.673 255.561,-41.8468"/>
<polygon fill="midnightblue" stroke="midnightblue" points="360.853,-169.279 371.39,-168.174 362.464,-162.467 360.853,-169.279"/>
</g>
<!-- Node5 -->
<g id="node5" class="node"><title>Node5</title>
<g id="a_node5"><a xlink:href="controllers_8cpp.html" target="_top" xlink:title="/home/travis/build\l/elsid/openmw/apps/openmw\l/mwgui/controllers.cpp">
<polygon fill="white" stroke="black" points="285.5,-78.5 285.5,-119.5 440.5,-119.5 440.5,-78.5 285.5,-78.5"/>
<text text-anchor="start" x="293.5" y="-107.5" font-family="FreeSans" font-size="10.00">/home/travis/build</text>
<text text-anchor="start" x="293.5" y="-96.5" font-family="FreeSans" font-size="10.00">/elsid/openmw/apps/openmw</text>
<text text-anchor="middle" x="363" y="-85.5" font-family="FreeSans" font-size="10.00">/mwgui/controllers.cpp</text>
</a>
</g>
</g>
<!-- Node1&#45;&gt;Node5 -->
<g id="edge4" class="edge"><title>Node1&#45;&gt;Node5</title>
<path fill="none" stroke="midnightblue" d="M419.328,-149.779C408.086,-139.843 395.494,-128.716 385.072,-119.506"/>
<polygon fill="midnightblue" stroke="midnightblue" points="417.042,-152.429 426.853,-156.428 421.677,-147.183 417.042,-152.429"/>
</g>
<!-- Node6 -->
<g id="node6" class="node"><title>Node6</title>
<g id="a_node6"><a xlink:href="draganddrop_8cpp.html" target="_top" xlink:title="/home/travis/build\l/elsid/openmw/apps/openmw\l/mwgui/draganddrop.cpp">
<polygon fill="white" stroke="black" points="458.5,-78.5 458.5,-119.5 613.5,-119.5 613.5,-78.5 458.5,-78.5"/>
<text text-anchor="start" x="466.5" y="-107.5" font-family="FreeSans" font-size="10.00">/home/travis/build</text>
<text text-anchor="start" x="466.5" y="-96.5" font-family="FreeSans" font-size="10.00">/elsid/openmw/apps/openmw</text>
<text text-anchor="middle" x="536" y="-85.5" font-family="FreeSans" font-size="10.00">/mwgui/draganddrop.cpp</text>
</a>
</g>
</g>
<!-- Node1&#45;&gt;Node6 -->
<g id="edge5" class="edge"><title>Node1&#45;&gt;Node6</title>
<path fill="none" stroke="midnightblue" d="M479.017,-149.779C490.39,-139.843 503.128,-128.716 513.671,-119.506"/>
<polygon fill="midnightblue" stroke="midnightblue" points="476.633,-147.213 471.405,-156.428 481.238,-152.485 476.633,-147.213"/>
</g>
<!-- Node7 -->
<g id="node7" class="node"><title>Node7</title>
<g id="a_node7"><a xlink:href="tradewindow_8cpp.html" target="_top" xlink:title="/home/travis/build\l/elsid/openmw/apps/openmw\l/mwgui/tradewindow.cpp">
<polygon fill="white" stroke="black" points="631.5,-78.5 631.5,-119.5 786.5,-119.5 786.5,-78.5 631.5,-78.5"/>
<text text-anchor="start" x="639.5" y="-107.5" font-family="FreeSans" font-size="10.00">/home/travis/build</text>
<text text-anchor="start" x="639.5" y="-96.5" font-family="FreeSans" font-size="10.00">/elsid/openmw/apps/openmw</text>
<text text-anchor="middle" x="709" y="-85.5" font-family="FreeSans" font-size="10.00">/mwgui/tradewindow.cpp</text>
</a>
</g>
</g>
<!-- Node1&#45;&gt;Node7 -->
<g id="edge6" class="edge"><title>Node1&#45;&gt;Node7</title>
<path fill="none" stroke="midnightblue" d="M525.698,-153.58C562.701,-142.764 606.671,-129.911 642.27,-119.506"/>
<polygon fill="midnightblue" stroke="midnightblue" points="524.573,-150.263 515.956,-156.428 526.537,-156.982 524.573,-150.263"/>
</g>
<!-- Node8 -->
<g id="node8" class="node"><title>Node8</title>
<g id="a_node8"><a xlink:href="apps_2openmw_2mwgui_2widgets_8cpp.html" target="_top" xlink:title="/home/travis/build\l/elsid/openmw/apps/openmw\l/mwgui/widgets.cpp">
<polygon fill="white" stroke="black" points="804.5,-78.5 804.5,-119.5 959.5,-119.5 959.5,-78.5 804.5,-78.5"/>
<text text-anchor="start" x="812.5" y="-107.5" font-family="FreeSans" font-size="10.00">/home/travis/build</text>
<text text-anchor="start" x="812.5" y="-96.5" font-family="FreeSans" font-size="10.00">/elsid/openmw/apps/openmw</text>
<text text-anchor="middle" x="882" y="-85.5" font-family="FreeSans" font-size="10.00">/mwgui/widgets.cpp</text>
</a>
</g>
</g>
<!-- Node1&#45;&gt;Node8 -->
<g id="edge7" class="edge"><title>Node1&#45;&gt;Node8</title>
<path fill="none" stroke="midnightblue" d="M536.674,-163.432C606.787,-152.992 707.486,-137.122 795,-120 798.042,-119.405 801.14,-118.781 804.266,-118.135"/>
<polygon fill="midnightblue" stroke="midnightblue" points="535.935,-160.003 526.557,-164.933 536.962,-166.928 535.935,-160.003"/>
</g>
<!-- Node3 -->
<g id="node3" class="node"><title>Node3</title>
<g id="a_node3"><a xlink:href="alchemywindow_8cpp.html" target="_top" xlink:title="/home/travis/build\l/elsid/openmw/apps/openmw\l/mwgui/alchemywindow.cpp">
<polygon fill="white" stroke="black" points="-0.5,-0.5 -0.5,-41.5 154.5,-41.5 154.5,-0.5 -0.5,-0.5"/>
<text text-anchor="start" x="7.5" y="-29.5" font-family="FreeSans" font-size="10.00">/home/travis/build</text>
<text text-anchor="start" x="7.5" y="-18.5" font-family="FreeSans" font-size="10.00">/elsid/openmw/apps/openmw</text>
<text text-anchor="middle" x="77" y="-7.5" font-family="FreeSans" font-size="10.00">/mwgui/alchemywindow.cpp</text>
</a>
</g>
</g>
<!-- Node2&#45;&gt;Node3 -->
<g id="edge2" class="edge"><title>Node2&#45;&gt;Node3</title>
<path fill="none" stroke="midnightblue" d="M124.909,-71.204C115.379,-61.416 104.788,-50.5388 95.9923,-41.5056"/>
<polygon fill="midnightblue" stroke="midnightblue" points="122.459,-73.705 131.943,-78.4281 127.475,-68.8217 122.459,-73.705"/>
</g>
<!-- Node2&#45;&gt;Node4 -->
<g id="edge3" class="edge"><title>Node2&#45;&gt;Node4</title>
<path fill="none" stroke="midnightblue" d="M186.775,-72.3503C200.831,-62.2719 216.702,-50.893 229.795,-41.5056"/>
<polygon fill="midnightblue" stroke="midnightblue" points="184.385,-69.7568 178.298,-78.4281 188.464,-75.4456 184.385,-69.7568"/>
</g>
</g>
</svg>
