<?xml version="1.0" encoding="UTF-8" standalone="no"?>
<!DOCTYPE svg PUBLIC "-//W3C//DTD SVG 1.1//EN"
 "http://www.w3.org/Graphics/SVG/1.1/DTD/svg11.dtd">
<!-- Generated by graphviz version 2.36.0 (20140111.2315)
 -->
<!-- Title: /home/travis/build/OpenMW/openmw/apps/essimporter/convertscri.hpp Pages: 1 -->
<svg width="500pt" height="128pt"
 viewBox="0.00 0.00 500.00 128.00" xmlns="http://www.w3.org/2000/svg" xmlns:xlink="http://www.w3.org/1999/xlink">
<g id="graph0" class="graph" transform="scale(1 1) rotate(0) translate(4 124)">
<title>/home/travis/build/OpenMW/openmw/apps/essimporter/convertscri.hpp</title>
<polygon fill="white" stroke="none" points="-4,4 -4,-124 496,-124 496,4 -4,4"/>
<!-- Node1 -->
<g id="node1" class="node"><title>Node1</title>
<polygon fill="#bfbfbf" stroke="black" points="166,-78.5 166,-119.5 320,-119.5 320,-78.5 166,-78.5"/>
<text text-anchor="start" x="174" y="-107.5" font-family="FreeSans" font-size="10.00">/home/travis/build</text>
<text text-anchor="start" x="174" y="-96.5" font-family="FreeSans" font-size="10.00">/OpenMW/openmw/apps</text>
<text text-anchor="middle" x="243" y="-85.5" font-family="FreeSans" font-size="10.00">/essimporter/convertscri.hpp</text>
</g>
<!-- Node2 -->
<g id="node2" class="node"><title>Node2</title>
<g id="a_node2"><a xlink:href="converter_8cpp.html" target="_top" xlink:title="/home/travis/build\l/OpenMW/openmw/apps\l/essimporter/converter.cpp">
<polygon fill="white" stroke="black" points="0,-0.5 0,-41.5 146,-41.5 146,-0.5 0,-0.5"/>
<text text-anchor="start" x="8" y="-29.5" font-family="FreeSans" font-size="10.00">/home/travis/build</text>
<text text-anchor="start" x="8" y="-18.5" font-family="FreeSans" font-size="10.00">/OpenMW/openmw/apps</text>
<text text-anchor="middle" x="73" y="-7.5" font-family="FreeSans" font-size="10.00">/essimporter/converter.cpp</text>
</a>
</g>
</g>
<!-- Node1&#45;&gt;Node2 -->
<g id="edge1" class="edge"><title>Node1&#45;&gt;Node2</title>
<path fill="none" stroke="midnightblue" d="M190.052,-74.3291C166.463,-63.7835 139.016,-51.5129 116.631,-41.5056"/>
<polygon fill="midnightblue" stroke="midnightblue" points="188.663,-77.542 199.221,-78.4281 191.52,-71.1515 188.663,-77.542"/>
</g>
<!-- Node3 -->
<g id="node3" class="node"><title>Node3</title>
<g id="a_node3"><a xlink:href="convertscpt_8cpp.html" target="_top" xlink:title="/home/travis/build\l/OpenMW/openmw/apps\l/essimporter/convertscpt.cpp">
<polygon fill="white" stroke="black" points="164.5,-0.5 164.5,-41.5 321.5,-41.5 321.5,-0.5 164.5,-0.5"/>
<text text-anchor="start" x="172.5" y="-29.5" font-family="FreeSans" font-size="10.00">/home/travis/build</text>
<text text-anchor="start" x="172.5" y="-18.5" font-family="FreeSans" font-size="10.00">/OpenMW/openmw/apps</text>
<text text-anchor="middle" x="243" y="-7.5" font-family="FreeSans" font-size="10.00">/essimporter/convertscpt.cpp</text>
</a>
</g>
</g>
<!-- Node1&#45;&gt;Node3 -->
<g id="edge2" class="edge"><title>Node1&#45;&gt;Node3</title>
<path fill="none" stroke="midnightblue" d="M243,-68.2965C243,-59.3009 243,-49.6532 243,-41.5056"/>
<polygon fill="midnightblue" stroke="midnightblue" points="239.5,-68.4281 243,-78.4281 246.5,-68.4281 239.5,-68.4281"/>
</g>
<!-- Node4 -->
<g id="node4" class="node"><title>Node4</title>
<g id="a_node4"><a xlink:href="convertscri_8cpp.html" target="_top" xlink:title="/home/travis/build\l/OpenMW/openmw/apps\l/essimporter/convertscri.cpp">
<polygon fill="white" stroke="black" points="339.5,-0.5 339.5,-41.5 492.5,-41.5 492.5,-0.5 339.5,-0.5"/>
<text text-anchor="start" x="347.5" y="-29.5" font-family="FreeSans" font-size="10.00">/home/travis/build</text>
<text text-anchor="start" x="347.5" y="-18.5" font-family="FreeSans" font-size="10.00">/OpenMW/openmw/apps</text>
<text text-anchor="middle" x="416" y="-7.5" font-family="FreeSans" font-size="10.00">/essimporter/convertscri.cpp</text>
</a>
</g>
</g>
<!-- Node1&#45;&gt;Node4 -->
<g id="edge3" class="edge"><title>Node1&#45;&gt;Node4</title>
<path fill="none" stroke="midnightblue" d="M296.883,-74.3291C320.888,-63.7835 348.819,-51.5129 371.599,-41.5056"/>
<polygon fill="midnightblue" stroke="midnightblue" points="295.3,-71.2016 287.552,-78.4281 298.115,-77.6104 295.3,-71.2016"/>
</g>
</g>
</svg>
