<?xml version="1.0" encoding="UTF-8" standalone="no"?>
<!DOCTYPE svg PUBLIC "-//W3C//DTD SVG 1.1//EN"
 "http://www.w3.org/Graphics/SVG/1.1/DTD/svg11.dtd">
<!-- Generated by graphviz version 2.36.0 (20140111.2315)
 -->
<!-- Title: /home/scrawl/Dev/openmw/apps/openmw/mwgui/countdialog.hpp Pages: 1 -->
<svg width="1256pt" height="108pt"
 viewBox="0.00 0.00 1256.00 108.00" xmlns="http://www.w3.org/2000/svg" xmlns:xlink="http://www.w3.org/1999/xlink">
<g id="graph0" class="graph" transform="scale(1 1) rotate(0) translate(4 104)">
<title>/home/scrawl/Dev/openmw/apps/openmw/mwgui/countdialog.hpp</title>
<polygon fill="white" stroke="none" points="-4,4 -4,-104 1252,-104 1252,4 -4,4"/>
<!-- Node1 -->
<g id="node1" class="node"><title>Node1</title>
<polygon fill="#bfbfbf" stroke="black" points="519,-69 519,-99 699,-99 699,-69 519,-69"/>
<text text-anchor="start" x="527" y="-87" font-family="FreeSans" font-size="10.00">/home/scrawl/Dev/openmw</text>
<text text-anchor="middle" x="609" y="-76" font-family="FreeSans" font-size="10.00">/apps/openmw/mwgui/countdialog.hpp</text>
</g>
<!-- Node2 -->
<g id="node2" class="node"><title>Node2</title>
<g id="a_node2"><a xlink:href="companionwindow_8cpp.html" target="_top" xlink:title="/home/scrawl/Dev/openmw\l/apps/openmw/mwgui/companionwindow.cpp">
<polygon fill="white" stroke="black" points="-0.5,-1 -0.5,-31 208.5,-31 208.5,-1 -0.5,-1"/>
<text text-anchor="start" x="7.5" y="-19" font-family="FreeSans" font-size="10.00">/home/scrawl/Dev/openmw</text>
<text text-anchor="middle" x="104" y="-8" font-family="FreeSans" font-size="10.00">/apps/openmw/mwgui/companionwindow.cpp</text>
</a>
</g>
</g>
<!-- Node1&#45;&gt;Node2 -->
<g id="edge1" class="edge"><title>Node1&#45;&gt;Node2</title>
<path fill="none" stroke="midnightblue" d="M508.977,-69.985C429.976,-59.6978 316.941,-44.962 218,-32 214.932,-31.5981 211.818,-31.1898 208.674,-30.7775"/>
<polygon fill="midnightblue" stroke="midnightblue" points="508.555,-73.4595 518.923,-71.28 509.458,-66.518 508.555,-73.4595"/>
</g>
<!-- Node3 -->
<g id="node3" class="node"><title>Node3</title>
<g id="a_node3"><a xlink:href="mwgui_2container_8cpp.html" target="_top" xlink:title="/home/scrawl/Dev/openmw\l/apps/openmw/mwgui/container.cpp">
<polygon fill="white" stroke="black" points="227,-1 227,-31 397,-31 397,-1 227,-1"/>
<text text-anchor="start" x="235" y="-19" font-family="FreeSans" font-size="10.00">/home/scrawl/Dev/openmw</text>
<text text-anchor="middle" x="312" y="-8" font-family="FreeSans" font-size="10.00">/apps/openmw/mwgui/container.cpp</text>
</a>
</g>
</g>
<!-- Node1&#45;&gt;Node3 -->
<g id="edge2" class="edge"><title>Node1&#45;&gt;Node3</title>
<path fill="none" stroke="midnightblue" d="M535.698,-66.7107C486.463,-55.7696 422.246,-41.4992 375.252,-31.0561"/>
<polygon fill="midnightblue" stroke="midnightblue" points="535.129,-70.1696 545.65,-68.9223 536.648,-63.3363 535.129,-70.1696"/>
</g>
<!-- Node4 -->
<g id="node4" class="node"><title>Node4</title>
<g id="a_node4"><a xlink:href="countdialog_8cpp.html" target="_top" xlink:title="/home/scrawl/Dev/openmw\l/apps/openmw/mwgui/countdialog.cpp">
<polygon fill="white" stroke="black" points="415,-1 415,-31 595,-31 595,-1 415,-1"/>
<text text-anchor="start" x="423" y="-19" font-family="FreeSans" font-size="10.00">/home/scrawl/Dev/openmw</text>
<text text-anchor="middle" x="505" y="-8" font-family="FreeSans" font-size="10.00">/apps/openmw/mwgui/countdialog.cpp</text>
</a>
</g>
</g>
<!-- Node1&#45;&gt;Node4 -->
<g id="edge3" class="edge"><title>Node1&#45;&gt;Node4</title>
<path fill="none" stroke="midnightblue" d="M578.019,-63.339C561.705,-52.9856 542.071,-40.526 527.274,-31.1352"/>
<polygon fill="midnightblue" stroke="midnightblue" points="576.371,-66.4382 586.689,-68.8413 580.121,-60.5279 576.371,-66.4382"/>
</g>
<!-- Node5 -->
<g id="node5" class="node"><title>Node5</title>
<g id="a_node5"><a xlink:href="inventorywindow_8cpp.html" target="_top" xlink:title="/home/scrawl/Dev/openmw\l/apps/openmw/mwgui/inventorywindow.cpp">
<polygon fill="white" stroke="black" points="613,-1 613,-31 813,-31 813,-1 613,-1"/>
<text text-anchor="start" x="621" y="-19" font-family="FreeSans" font-size="10.00">/home/scrawl/Dev/openmw</text>
<text text-anchor="middle" x="713" y="-8" font-family="FreeSans" font-size="10.00">/apps/openmw/mwgui/inventorywindow.cpp</text>
</a>
</g>
</g>
<!-- Node1&#45;&gt;Node5 -->
<g id="edge4" class="edge"><title>Node1&#45;&gt;Node5</title>
<path fill="none" stroke="midnightblue" d="M639.981,-63.339C656.295,-52.9856 675.929,-40.526 690.726,-31.1352"/>
<polygon fill="midnightblue" stroke="midnightblue" points="637.879,-60.5279 631.311,-68.8413 641.629,-66.4382 637.879,-60.5279"/>
</g>
<!-- Node6 -->
<g id="node6" class="node"><title>Node6</title>
<g id="a_node6"><a xlink:href="tradewindow_8cpp.html" target="_top" xlink:title="/home/scrawl/Dev/openmw\l/apps/openmw/mwgui/tradewindow.cpp">
<polygon fill="white" stroke="black" points="831,-1 831,-31 1015,-31 1015,-1 831,-1"/>
<text text-anchor="start" x="839" y="-19" font-family="FreeSans" font-size="10.00">/home/scrawl/Dev/openmw</text>
<text text-anchor="middle" x="923" y="-8" font-family="FreeSans" font-size="10.00">/apps/openmw/mwgui/tradewindow.cpp</text>
</a>
</g>
</g>
<!-- Node1&#45;&gt;Node6 -->
<g id="edge5" class="edge"><title>Node1&#45;&gt;Node6</title>
<path fill="none" stroke="midnightblue" d="M685.846,-66.8476C737.983,-55.8889 806.236,-41.5428 856.127,-31.0561"/>
<polygon fill="midnightblue" stroke="midnightblue" points="685.042,-63.4401 675.976,-68.9223 686.482,-70.2904 685.042,-63.4401"/>
</g>
<!-- Node7 -->
<g id="node7" class="node"><title>Node7</title>
<g id="a_node7"><a xlink:href="windowmanagerimp_8cpp.html" target="_top" xlink:title="/home/scrawl/Dev/openmw\l/apps/openmw/mwgui/windowmanagerimp.cpp">
<polygon fill="white" stroke="black" points="1033.5,-1 1033.5,-31 1248.5,-31 1248.5,-1 1033.5,-1"/>
<text text-anchor="start" x="1041.5" y="-19" font-family="FreeSans" font-size="10.00">/home/scrawl/Dev/openmw</text>
<text text-anchor="middle" x="1141" y="-8" font-family="FreeSans" font-size="10.00">/apps/openmw/mwgui/windowmanagerimp.cpp</text>
</a>
</g>
</g>
<!-- Node1&#45;&gt;Node7 -->
<g id="edge6" class="edge"><title>Node1&#45;&gt;Node7</title>
<path fill="none" stroke="midnightblue" d="M709.335,-70.8187C793.397,-60.5773 916.549,-45.4902 1024,-32 1027.05,-31.6173 1030.14,-31.228 1033.26,-30.8342"/>
<polygon fill="midnightblue" stroke="midnightblue" points="708.785,-67.3598 699.281,-72.0432 709.631,-74.3084 708.785,-67.3598"/>
</g>
</g>
</svg>
