<?xml version="1.0" encoding="UTF-8" standalone="no"?>
<!DOCTYPE svg PUBLIC "-//W3C//DTD SVG 1.1//EN"
 "http://www.w3.org/Graphics/SVG/1.1/DTD/svg11.dtd">
<!-- Generated by graphviz version 2.36.0 (20140111.2315)
 -->
<!-- Title: /home/scrawl/Dev/openmw/components/esm/creaturestate.hpp Pages: 1 -->
<svg width="853pt" height="176pt"
 viewBox="0.00 0.00 853.00 176.00" xmlns="http://www.w3.org/2000/svg" xmlns:xlink="http://www.w3.org/1999/xlink">
<g id="graph0" class="graph" transform="scale(1 1) rotate(0) translate(4 172)">
<title>/home/scrawl/Dev/openmw/components/esm/creaturestate.hpp</title>
<polygon fill="white" stroke="none" points="-4,4 -4,-172 849,-172 849,4 -4,4"/>
<!-- Node1 -->
<g id="node1" class="node"><title>Node1</title>
<polygon fill="#bfbfbf" stroke="black" points="290,-137 290,-167 460,-167 460,-137 290,-137"/>
<text text-anchor="start" x="298" y="-155" font-family="FreeSans" font-size="10.00">/home/scrawl/Dev/openmw</text>
<text text-anchor="middle" x="375" y="-144" font-family="FreeSans" font-size="10.00">/components/esm/creaturestate.hpp</text>
</g>
<!-- Node2 -->
<g id="node2" class="node"><title>Node2</title>
<g id="a_node2"><a xlink:href="convertcrec_8hpp.html" target="_top" xlink:title="/home/scrawl/Dev/openmw\l/apps/essimporter/convertcrec.hpp">
<polygon fill="white" stroke="black" points="67,-69 67,-99 231,-99 231,-69 67,-69"/>
<text text-anchor="start" x="75" y="-87" font-family="FreeSans" font-size="10.00">/home/scrawl/Dev/openmw</text>
<text text-anchor="middle" x="149" y="-76" font-family="FreeSans" font-size="10.00">/apps/essimporter/convertcrec.hpp</text>
</a>
</g>
</g>
<!-- Node1&#45;&gt;Node2 -->
<g id="edge1" class="edge"><title>Node1&#45;&gt;Node2</title>
<path fill="none" stroke="midnightblue" d="M317.098,-134.091C279.925,-123.235 232.219,-109.303 197.131,-99.0561"/>
<polygon fill="midnightblue" stroke="midnightblue" points="316.214,-137.479 326.795,-136.922 318.177,-130.759 316.214,-137.479"/>
</g>
<!-- Node4 -->
<g id="node4" class="node"><title>Node4</title>
<g id="a_node4"><a xlink:href="converter_8cpp.html" target="_top" xlink:title="/home/scrawl/Dev/openmw\l/apps/essimporter/converter.cpp">
<polygon fill="white" stroke="black" points="182.5,-1 182.5,-31 335.5,-31 335.5,-1 182.5,-1"/>
<text text-anchor="start" x="190.5" y="-19" font-family="FreeSans" font-size="10.00">/home/scrawl/Dev/openmw</text>
<text text-anchor="middle" x="259" y="-8" font-family="FreeSans" font-size="10.00">/apps/essimporter/converter.cpp</text>
</a>
</g>
</g>
<!-- Node1&#45;&gt;Node4 -->
<g id="edge4" class="edge"><title>Node1&#45;&gt;Node4</title>
<path fill="none" stroke="midnightblue" d="M321.613,-132.537C305.855,-124.725 289.923,-114.089 279,-100 263.289,-79.7343 259.679,-48.9545 258.989,-31.126"/>
<polygon fill="midnightblue" stroke="midnightblue" points="320.288,-135.78 330.832,-136.815 323.235,-129.431 320.288,-135.78"/>
</g>
<!-- Node5 -->
<g id="node5" class="node"><title>Node5</title>
<g id="a_node5"><a xlink:href="creature_8cpp.html" target="_top" xlink:title="/home/scrawl/Dev/openmw\l/apps/openmw/mwclass/creature.cpp">
<polygon fill="white" stroke="black" points="287.5,-69 287.5,-99 462.5,-99 462.5,-69 287.5,-69"/>
<text text-anchor="start" x="295.5" y="-87" font-family="FreeSans" font-size="10.00">/home/scrawl/Dev/openmw</text>
<text text-anchor="middle" x="375" y="-76" font-family="FreeSans" font-size="10.00">/apps/openmw/mwclass/creature.cpp</text>
</a>
</g>
</g>
<!-- Node1&#45;&gt;Node5 -->
<g id="edge5" class="edge"><title>Node1&#45;&gt;Node5</title>
<path fill="none" stroke="midnightblue" d="M375,-126.532C375,-117.361 375,-107.245 375,-99.2931"/>
<polygon fill="midnightblue" stroke="midnightblue" points="371.5,-126.679 375,-136.679 378.5,-126.679 371.5,-126.679"/>
</g>
<!-- Node6 -->
<g id="node6" class="node"><title>Node6</title>
<g id="a_node6"><a xlink:href="cellstore_8cpp.html" target="_top" xlink:title="/home/scrawl/Dev/openmw\l/apps/openmw/mwworld/cellstore.cpp">
<polygon fill="white" stroke="black" points="481,-69 481,-99 657,-99 657,-69 481,-69"/>
<text text-anchor="start" x="489" y="-87" font-family="FreeSans" font-size="10.00">/home/scrawl/Dev/openmw</text>
<text text-anchor="middle" x="569" y="-76" font-family="FreeSans" font-size="10.00">/apps/openmw/mwworld/cellstore.cpp</text>
</a>
</g>
</g>
<!-- Node1&#45;&gt;Node6 -->
<g id="edge6" class="edge"><title>Node1&#45;&gt;Node6</title>
<path fill="none" stroke="midnightblue" d="M426.17,-133.592C457.896,-122.798 498.114,-109.116 527.784,-99.0218"/>
<polygon fill="midnightblue" stroke="midnightblue" points="424.958,-130.307 416.618,-136.841 427.212,-136.934 424.958,-130.307"/>
</g>
<!-- Node7 -->
<g id="node7" class="node"><title>Node7</title>
<g id="a_node7"><a xlink:href="creaturestate_8cpp.html" target="_top" xlink:title="/home/scrawl/Dev/openmw\l/components/esm/creaturestate.cpp">
<polygon fill="white" stroke="black" points="675,-69 675,-99 845,-99 845,-69 675,-69"/>
<text text-anchor="start" x="683" y="-87" font-family="FreeSans" font-size="10.00">/home/scrawl/Dev/openmw</text>
<text text-anchor="middle" x="760" y="-76" font-family="FreeSans" font-size="10.00">/components/esm/creaturestate.cpp</text>
</a>
</g>
</g>
<!-- Node1&#45;&gt;Node7 -->
<g id="edge7" class="edge"><title>Node1&#45;&gt;Node7</title>
<path fill="none" stroke="midnightblue" d="M467.235,-135.188C531.406,-124.188 616.198,-109.652 678.006,-99.0561"/>
<polygon fill="midnightblue" stroke="midnightblue" points="466.385,-131.783 457.12,-136.922 467.568,-138.682 466.385,-131.783"/>
</g>
<!-- Node3 -->
<g id="node3" class="node"><title>Node3</title>
<g id="a_node3"><a xlink:href="convertcrec_8cpp.html" target="_top" xlink:title="/home/scrawl/Dev/openmw\l/apps/essimporter/convertcrec.cpp">
<polygon fill="white" stroke="black" points="0,-1 0,-31 164,-31 164,-1 0,-1"/>
<text text-anchor="start" x="8" y="-19" font-family="FreeSans" font-size="10.00">/home/scrawl/Dev/openmw</text>
<text text-anchor="middle" x="82" y="-8" font-family="FreeSans" font-size="10.00">/apps/essimporter/convertcrec.cpp</text>
</a>
</g>
</g>
<!-- Node2&#45;&gt;Node3 -->
<g id="edge2" class="edge"><title>Node2&#45;&gt;Node3</title>
<path fill="none" stroke="midnightblue" d="M127.16,-61.4855C117.109,-51.5852 105.459,-40.1092 96.5096,-31.2931"/>
<polygon fill="midnightblue" stroke="midnightblue" points="124.882,-64.1547 134.462,-68.679 129.794,-59.1678 124.882,-64.1547"/>
</g>
<!-- Node2&#45;&gt;Node4 -->
<g id="edge3" class="edge"><title>Node2&#45;&gt;Node4</title>
<path fill="none" stroke="midnightblue" d="M181.29,-63.6261C198.639,-53.2166 219.645,-40.6129 235.441,-31.1352"/>
<polygon fill="midnightblue" stroke="midnightblue" points="179.372,-60.6951 172.598,-68.8413 182.973,-66.6976 179.372,-60.6951"/>
</g>
</g>
</svg>
