<?xml version="1.0" encoding="UTF-8" standalone="no"?>
<!DOCTYPE svg PUBLIC "-//W3C//DTD SVG 1.1//EN"
 "http://www.w3.org/Graphics/SVG/1.1/DTD/svg11.dtd">
<!-- Generated by graphviz version 2.36.0 (20140111.2315)
 -->
<!-- Title: /home/scrawl/Dev/openmw/apps/launcher/datafilespage.hpp Pages: 1 -->
<svg width="285pt" height="96pt"
 viewBox="0.00 0.00 285.00 96.00" xmlns="http://www.w3.org/2000/svg" xmlns:xlink="http://www.w3.org/1999/xlink">
<g id="graph0" class="graph" transform="scale(1 1) rotate(0) translate(4 92)">
<title>/home/scrawl/Dev/openmw/apps/launcher/datafilespage.hpp</title>
<polygon fill="white" stroke="none" points="-4,4 -4,-92 281,-92 281,4 -4,4"/>
<!-- Node1 -->
<g id="node1" class="node"><title>Node1</title>
<polygon fill="#bfbfbf" stroke="black" points="90.5,-57 90.5,-87 247.5,-87 247.5,-57 90.5,-57"/>
<text text-anchor="start" x="98.5" y="-75" font-family="FreeSans" font-size="10.00">/home/scrawl/Dev/openmw</text>
<text text-anchor="middle" x="169" y="-64" font-family="FreeSans" font-size="10.00">/apps/launcher/datafilespage.hpp</text>
</g>
<!-- Node2 -->
<g id="node2" class="node"><title>Node2</title>
<polygon fill="white" stroke="#bfbfbf" points="-0.5,-0.5 -0.5,-19.5 92.5,-19.5 92.5,-0.5 -0.5,-0.5"/>
<text text-anchor="middle" x="46" y="-7.5" font-family="FreeSans" font-size="10.00">ui_datafilespage.h</text>
</g>
<!-- Node1&#45;&gt;Node2 -->
<g id="edge1" class="edge"><title>Node1&#45;&gt;Node2</title>
<path fill="none" stroke="midnightblue" d="M140.162,-56.9327C119.781,-46.9907 92.6582,-33.7601 72.7579,-24.0526"/>
<polygon fill="midnightblue" stroke="midnightblue" points="74.1523,-20.8386 63.6301,-19.6 71.0832,-27.13 74.1523,-20.8386"/>
</g>
<!-- Node3 -->
<g id="node3" class="node"><title>Node3</title>
<polygon fill="white" stroke="#bfbfbf" points="111,-0.5 111,-19.5 165,-19.5 165,-0.5 111,-0.5"/>
<text text-anchor="middle" x="138" y="-7.5" font-family="FreeSans" font-size="10.00">QWidget</text>
</g>
<!-- Node1&#45;&gt;Node3 -->
<g id="edge2" class="edge"><title>Node1&#45;&gt;Node3</title>
<path fill="none" stroke="midnightblue" d="M161.653,-56.7808C157.335,-48.4217 151.835,-37.7773 147.226,-28.8565"/>
<polygon fill="midnightblue" stroke="midnightblue" points="150.211,-27.0082 142.511,-19.7305 143.992,-30.2214 150.211,-27.0082"/>
</g>
<!-- Node4 -->
<g id="node4" class="node"><title>Node4</title>
<polygon fill="white" stroke="#bfbfbf" points="183,-0.5 183,-19.5 219,-19.5 219,-0.5 183,-0.5"/>
<text text-anchor="middle" x="201" y="-7.5" font-family="FreeSans" font-size="10.00">QDir</text>
</g>
<!-- Node1&#45;&gt;Node4 -->
<g id="edge3" class="edge"><title>Node1&#45;&gt;Node4</title>
<path fill="none" stroke="midnightblue" d="M176.584,-56.7808C181.09,-48.3318 186.841,-37.5481 191.63,-28.5693"/>
<polygon fill="midnightblue" stroke="midnightblue" points="194.726,-30.2012 196.344,-19.7305 188.55,-26.907 194.726,-30.2012"/>
</g>
<!-- Node5 -->
<g id="node5" class="node"><title>Node5</title>
<polygon fill="white" stroke="#bfbfbf" points="237,-0.5 237,-19.5 277,-19.5 277,-0.5 237,-0.5"/>
<text text-anchor="middle" x="257" y="-7.5" font-family="FreeSans" font-size="10.00">QFile</text>
</g>
<!-- Node1&#45;&gt;Node5 -->
<g id="edge4" class="edge"><title>Node1&#45;&gt;Node5</title>
<path fill="none" stroke="midnightblue" d="M189.855,-56.7808C203.78,-47.2862 222.03,-34.8434 235.988,-25.3267"/>
<polygon fill="midnightblue" stroke="midnightblue" points="238.161,-28.0809 244.452,-19.5557 234.218,-22.2973 238.161,-28.0809"/>
</g>
</g>
</svg>
