<?xml version="1.0" encoding="UTF-8" standalone="no"?>
<!DOCTYPE svg PUBLIC "-//W3C//DTD SVG 1.1//EN"
 "http://www.w3.org/Graphics/SVG/1.1/DTD/svg11.dtd">
<!-- Generated by graphviz version 2.36.0 (20140111.2315)
 -->
<!-- Title: /home/travis/build/OpenMW/openmw/apps/openmw/mwdialogue/dialoguemanagerimp.hpp Pages: 1 -->
<svg width="401pt" height="128pt"
 viewBox="0.00 0.00 401.00 128.00" xmlns="http://www.w3.org/2000/svg" xmlns:xlink="http://www.w3.org/1999/xlink">
<g id="graph0" class="graph" transform="scale(1 1) rotate(0) translate(4 124)">
<title>/home/travis/build/OpenMW/openmw/apps/openmw/mwdialogue/dialoguemanagerimp.hpp</title>
<polygon fill="white" stroke="none" points="-4,4 -4,-124 397,-124 397,4 -4,4"/>
<!-- Node1 -->
<g id="node1" class="node"><title>Node1</title>
<polygon fill="#bfbfbf" stroke="black" points="45,-78.5 45,-119.5 291,-119.5 291,-78.5 45,-78.5"/>
<text text-anchor="start" x="53" y="-107.5" font-family="FreeSans" font-size="10.00">/home/travis/build</text>
<text text-anchor="start" x="53" y="-96.5" font-family="FreeSans" font-size="10.00">/OpenMW/openmw/apps</text>
<text text-anchor="middle" x="168" y="-85.5" font-family="FreeSans" font-size="10.00">/openmw/mwdialogue/dialoguemanagerimp.hpp</text>
</g>
<!-- Node2 -->
<g id="node2" class="node"><title>Node2</title>
<g id="a_node2"><a xlink:href="engine_8cpp.html" target="_top" xlink:title="/home/travis/build\l/OpenMW/openmw/apps\l/openmw/engine.cpp">
<polygon fill="white" stroke="black" points="-0.5,-0.5 -0.5,-41.5 130.5,-41.5 130.5,-0.5 -0.5,-0.5"/>
<text text-anchor="start" x="7.5" y="-29.5" font-family="FreeSans" font-size="10.00">/home/travis/build</text>
<text text-anchor="start" x="7.5" y="-18.5" font-family="FreeSans" font-size="10.00">/OpenMW/openmw/apps</text>
<text text-anchor="middle" x="65" y="-7.5" font-family="FreeSans" font-size="10.00">/openmw/engine.cpp</text>
</a>
</g>
</g>
<!-- Node1&#45;&gt;Node2 -->
<g id="edge1" class="edge"><title>Node1&#45;&gt;Node2</title>
<path fill="none" stroke="midnightblue" d="M133.238,-72.3503C119.579,-62.2719 104.158,-50.893 91.4352,-41.5056"/>
<polygon fill="midnightblue" stroke="midnightblue" points="131.35,-75.3071 141.475,-78.4281 135.506,-69.6744 131.35,-75.3071"/>
</g>
<!-- Node3 -->
<g id="node3" class="node"><title>Node3</title>
<g id="a_node3"><a xlink:href="dialoguemanagerimp_8cpp.html" target="_top" xlink:title="/home/travis/build\l/OpenMW/openmw/apps\l/openmw/mwdialogue/dialoguemanagerimp.cpp">
<polygon fill="white" stroke="black" points="148.5,-0.5 148.5,-41.5 393.5,-41.5 393.5,-0.5 148.5,-0.5"/>
<text text-anchor="start" x="156.5" y="-29.5" font-family="FreeSans" font-size="10.00">/home/travis/build</text>
<text text-anchor="start" x="156.5" y="-18.5" font-family="FreeSans" font-size="10.00">/OpenMW/openmw/apps</text>
<text text-anchor="middle" x="271" y="-7.5" font-family="FreeSans" font-size="10.00">/openmw/mwdialogue/dialoguemanagerimp.cpp</text>
</a>
</g>
</g>
<!-- Node1&#45;&gt;Node3 -->
<g id="edge2" class="edge"><title>Node1&#45;&gt;Node3</title>
<path fill="none" stroke="midnightblue" d="M202.762,-72.3503C216.421,-62.2719 231.842,-50.893 244.565,-41.5056"/>
<polygon fill="midnightblue" stroke="midnightblue" points="200.494,-69.6744 194.525,-78.4281 204.65,-75.3071 200.494,-69.6744"/>
</g>
</g>
</svg>
