<?xml version="1.0" encoding="UTF-8" standalone="no"?>
<!DOCTYPE svg PUBLIC "-//W3C//DTD SVG 1.1//EN"
 "http://www.w3.org/Graphics/SVG/1.1/DTD/svg11.dtd">
<!-- Generated by graphviz version 2.36.0 (20140111.2315)
 -->
<!-- Title: /home/scrawl/Dev/openmw/apps/openmw/mwscript Pages: 1 -->
<svg width="222pt" height="295pt"
 viewBox="0.00 0.00 222.00 295.00" xmlns="http://www.w3.org/2000/svg" xmlns:xlink="http://www.w3.org/1999/xlink">
<g id="graph0" class="graph" transform="scale(1 1) rotate(0) translate(4 291)">
<title>/home/scrawl/Dev/openmw/apps/openmw/mwscript</title>
<polygon fill="white" stroke="none" points="-4,4 -4,-291 218,-291 218,4 -4,4"/>
<g id="clust1" class="cluster"><title>clusterdir_9edfe748cccf561d6c3b74e2990846ba</title>
<g id="a_clust1"><a xlink:href="dir_9edfe748cccf561d6c3b74e2990846ba.html" target="_top" xlink:title="openmw">
<polygon fill="#ddddee" stroke="black" points="8,-208 8,-279 80,-279 80,-208 8,-208"/>
<text text-anchor="middle" x="44" y="-267" font-family="FreeSans" font-size="10.00">openmw</text>
</a>
</g>
</g>
<!-- dir_fb5a7120c5c7203365e262a3140cc5a9 -->
<g id="node1" class="node"><title>dir_fb5a7120c5c7203365e262a3140cc5a9</title>
<g id="a_node1"><a xlink:href="dir_fb5a7120c5c7203365e262a3140cc5a9.html" target="_top" xlink:title="mwscript">
<polygon fill="#eeeeff" stroke="black" points="71.25,-252 16.75,-252 16.75,-216 71.25,-216 71.25,-252"/>
<text text-anchor="middle" x="44" y="-231.5" font-family="FreeSans" font-size="10.00">mwscript</text>
</a>
</g>
</g>
<!-- dir_0a13f02c7c3acddfdddc52c8129ecf59 -->
<g id="node2" class="node"><title>dir_0a13f02c7c3acddfdddc52c8129ecf59</title>
<g id="a_node2"><a xlink:href="dir_0a13f02c7c3acddfdddc52c8129ecf59.html" target="_top" xlink:title="mwworld">
<polygon fill="none" stroke="black" points="214,-252 160,-252 160,-216 214,-216 214,-252"/>
<text text-anchor="middle" x="187" y="-231.5" font-family="FreeSans" font-size="10.00">mwworld</text>
</a>
</g>
</g>
<!-- dir_fb5a7120c5c7203365e262a3140cc5a9&#45;&gt;dir_0a13f02c7c3acddfdddc52c8129ecf59 -->
<g id="edge5" class="edge"><title>dir_fb5a7120c5c7203365e262a3140cc5a9&#45;&gt;dir_0a13f02c7c3acddfdddc52c8129ecf59</title>
<path fill="none" stroke="black" d="M71.3711,-234C97.5377,-234 123.704,-234 149.871,-234"/>
<polygon fill="black" stroke="black" points="149.9,-237.5 159.899,-234 149.899,-230.5 149.9,-237.5"/>
<g id="a_edge5&#45;headlabel"><a xlink:href="dir_000025_000039.html" target="_top" xlink:title="40">
<text text-anchor="middle" x="146.305" y="-237.839" font-family="FreeSans" font-size="10.00">40</text>
</a>
</g>
</g>
<!-- dir_409f97388efe006bc3438b95e9edef48 -->
<g id="node3" class="node"><title>dir_409f97388efe006bc3438b95e9edef48</title>
<g id="a_node3"><a xlink:href="dir_409f97388efe006bc3438b95e9edef48.html" target="_top" xlink:title="components">
<polygon fill="white" stroke="red" points="172.25,-36 103.75,-36 103.75,-0 172.25,-0 172.25,-36"/>
<text text-anchor="middle" x="138" y="-15.5" font-family="FreeSans" font-size="10.00">components</text>
</a>
</g>
</g>
<!-- dir_fb5a7120c5c7203365e262a3140cc5a9&#45;&gt;dir_409f97388efe006bc3438b95e9edef48 -->
<g id="edge6" class="edge"><title>dir_fb5a7120c5c7203365e262a3140cc5a9&#45;&gt;dir_409f97388efe006bc3438b95e9edef48</title>
<path fill="none" stroke="black" d="M40.8407,-215.755C38.2022,-197.438 36.0203,-167.888 44,-144 57.352,-104.029 89.0645,-66.5797 111.967,-43.2858"/>
<polygon fill="black" stroke="black" points="114.435,-45.7676 119.059,-36.235 109.5,-40.8034 114.435,-45.7676"/>
<g id="a_edge6&#45;headlabel"><a xlink:href="dir_000025_000003.html" target="_top" xlink:title="108">
<text text-anchor="middle" x="113.888" y="-47.8154" font-family="FreeSans" font-size="10.00">108</text>
</a>
</g>
</g>
<!-- dir_4f56254472fa4f0460e46d8bf18645ad -->
<g id="node4" class="node"><title>dir_4f56254472fa4f0460e46d8bf18645ad</title>
<g id="a_node4"><a xlink:href="dir_4f56254472fa4f0460e46d8bf18645ad.html" target="_top" xlink:title="mwbase">
<polygon fill="none" stroke="black" points="193,-108 139,-108 139,-72 193,-72 193,-108"/>
<text text-anchor="middle" x="166" y="-87.5" font-family="FreeSans" font-size="10.00">mwbase</text>
</a>
</g>
</g>
<!-- dir_fb5a7120c5c7203365e262a3140cc5a9&#45;&gt;dir_4f56254472fa4f0460e46d8bf18645ad -->
<g id="edge7" class="edge"><title>dir_fb5a7120c5c7203365e262a3140cc5a9&#45;&gt;dir_4f56254472fa4f0460e46d8bf18645ad</title>
<path fill="none" stroke="black" d="M43.4802,-215.808C43.7688,-196.446 46.9702,-164.958 63,-144 79.3898,-122.572 106.886,-109.047 129.348,-101.028"/>
<polygon fill="black" stroke="black" points="130.563,-104.312 138.936,-97.8212 128.343,-97.6733 130.563,-104.312"/>
<g id="a_edge7&#45;headlabel"><a xlink:href="dir_000025_000034.html" target="_top" xlink:title="54">
<text text-anchor="middle" x="128.054" y="-105.645" font-family="FreeSans" font-size="10.00">54</text>
</a>
</g>
</g>
<!-- dir_4dc3d87d265d107fb34e011e3afab8f4 -->
<g id="node5" class="node"><title>dir_4dc3d87d265d107fb34e011e3afab8f4</title>
<g id="a_node5"><a xlink:href="dir_4dc3d87d265d107fb34e011e3afab8f4.html" target="_top" xlink:title="mwmechanics">
<polygon fill="none" stroke="black" points="150,-180 72,-180 72,-144 150,-144 150,-180"/>
<text text-anchor="middle" x="111" y="-159.5" font-family="FreeSans" font-size="10.00">mwmechanics</text>
</a>
</g>
</g>
<!-- dir_fb5a7120c5c7203365e262a3140cc5a9&#45;&gt;dir_4dc3d87d265d107fb34e011e3afab8f4 -->
<g id="edge8" class="edge"><title>dir_fb5a7120c5c7203365e262a3140cc5a9&#45;&gt;dir_4dc3d87d265d107fb34e011e3afab8f4</title>
<path fill="none" stroke="black" d="M60.5618,-215.697C68.6753,-207.22 78.5877,-196.864 87.471,-187.583"/>
<polygon fill="black" stroke="black" points="90.2426,-189.749 94.6287,-180.104 85.1856,-184.908 90.2426,-189.749"/>
<g id="a_edge8&#45;headlabel"><a xlink:href="dir_000025_000024.html" target="_top" xlink:title="21">
<text text-anchor="middle" x="89.8082" y="-191.809" font-family="FreeSans" font-size="10.00">21</text>
</a>
</g>
</g>
<!-- dir_0a13f02c7c3acddfdddc52c8129ecf59&#45;&gt;dir_fb5a7120c5c7203365e262a3140cc5a9 -->
<g id="edge1" class="edge"><title>dir_0a13f02c7c3acddfdddc52c8129ecf59&#45;&gt;dir_fb5a7120c5c7203365e262a3140cc5a9</title>
<path fill="none" stroke="black" d="M159.899,-234C133.733,-234 107.566,-234 81.3997,-234"/>
<polygon fill="black" stroke="black" points="81.3711,-230.5 71.3711,-234 81.3711,-237.5 81.3711,-230.5"/>
<g id="a_edge1&#45;headlabel"><a xlink:href="dir_000039_000025.html" target="_top" xlink:title="3">
<text text-anchor="middle" x="84.9657" y="-225.161" font-family="FreeSans" font-size="10.00">3</text>
</a>
</g>
</g>
<!-- dir_0a13f02c7c3acddfdddc52c8129ecf59&#45;&gt;dir_409f97388efe006bc3438b95e9edef48 -->
<g id="edge2" class="edge"><title>dir_0a13f02c7c3acddfdddc52c8129ecf59&#45;&gt;dir_409f97388efe006bc3438b95e9edef48</title>
<path fill="none" stroke="black" d="M194.184,-215.555C205.642,-184.886 224.578,-120.013 202,-72 196.478,-60.2566 186.934,-50.2222 176.877,-42.1457"/>
<polygon fill="black" stroke="black" points="178.876,-39.2702 168.769,-36.0931 174.689,-44.8798 178.876,-39.2702"/>
<g id="a_edge2&#45;headlabel"><a xlink:href="dir_000039_000003.html" target="_top" xlink:title="124">
<text text-anchor="middle" x="183.455" y="-36.6452" font-family="FreeSans" font-size="10.00">124</text>
</a>
</g>
</g>
<!-- dir_0a13f02c7c3acddfdddc52c8129ecf59&#45;&gt;dir_4f56254472fa4f0460e46d8bf18645ad -->
<g id="edge3" class="edge"><title>dir_0a13f02c7c3acddfdddc52c8129ecf59&#45;&gt;dir_4f56254472fa4f0460e46d8bf18645ad</title>
<path fill="none" stroke="black" d="M179.882,-215.871C173.745,-191.67 166.879,-147.211 164.592,-118.393"/>
<polygon fill="black" stroke="black" points="168.071,-117.95 163.951,-108.189 161.085,-118.389 168.071,-117.95"/>
<g id="a_edge3&#45;headlabel"><a xlink:href="dir_000039_000034.html" target="_top" xlink:title="83">
<text text-anchor="middle" x="171.13" y="-118.86" font-family="FreeSans" font-size="10.00">83</text>
</a>
</g>
</g>
<!-- dir_0a13f02c7c3acddfdddc52c8129ecf59&#45;&gt;dir_4dc3d87d265d107fb34e011e3afab8f4 -->
<g id="edge4" class="edge"><title>dir_0a13f02c7c3acddfdddc52c8129ecf59&#45;&gt;dir_4dc3d87d265d107fb34e011e3afab8f4</title>
<path fill="none" stroke="black" d="M162.298,-215.697C152.119,-207.135 140.56,-196.656 130.926,-187.304"/>
<polygon fill="black" stroke="black" points="133.237,-184.667 123.675,-180.104 128.305,-189.634 133.237,-184.667"/>
<g id="a_edge4&#45;headlabel"><a xlink:href="dir_000039_000024.html" target="_top" xlink:title="40">
<text text-anchor="middle" x="137.789" y="-182.685" font-family="FreeSans" font-size="10.00">40</text>
</a>
</g>
</g>
<!-- dir_4f56254472fa4f0460e46d8bf18645ad&#45;&gt;dir_0a13f02c7c3acddfdddc52c8129ecf59 -->
<g id="edge9" class="edge"><title>dir_4f56254472fa4f0460e46d8bf18645ad&#45;&gt;dir_0a13f02c7c3acddfdddc52c8129ecf59</title>
<path fill="none" stroke="black" d="M173.133,-108.189C179.272,-132.424 186.135,-176.888 188.414,-205.679"/>
<polygon fill="black" stroke="black" points="184.934,-206.11 189.051,-215.871 191.92,-205.672 184.934,-206.11"/>
<g id="a_edge9&#45;headlabel"><a xlink:href="dir_000034_000039.html" target="_top" xlink:title="2">
<text text-anchor="middle" x="181.875" y="-200.199" font-family="FreeSans" font-size="10.00">2</text>
</a>
</g>
</g>
<!-- dir_4f56254472fa4f0460e46d8bf18645ad&#45;&gt;dir_409f97388efe006bc3438b95e9edef48 -->
<g id="edge10" class="edge"><title>dir_4f56254472fa4f0460e46d8bf18645ad&#45;&gt;dir_409f97388efe006bc3438b95e9edef48</title>
<path fill="none" stroke="black" d="M159.079,-71.6966C155.925,-63.8132 152.122,-54.3042 148.619,-45.5464"/>
<polygon fill="black" stroke="black" points="151.805,-44.0892 144.842,-36.1043 145.306,-46.689 151.805,-44.0892"/>
<g id="a_edge10&#45;headlabel"><a xlink:href="dir_000034_000003.html" target="_top" xlink:title="1">
<text text-anchor="middle" x="155.777" y="-43.8723" font-family="FreeSans" font-size="10.00">1</text>
</a>
</g>
</g>
<!-- dir_4dc3d87d265d107fb34e011e3afab8f4&#45;&gt;dir_0a13f02c7c3acddfdddc52c8129ecf59 -->
<g id="edge11" class="edge"><title>dir_4dc3d87d265d107fb34e011e3afab8f4&#45;&gt;dir_0a13f02c7c3acddfdddc52c8129ecf59</title>
<path fill="none" stroke="black" d="M135.465,-180.104C145.622,-188.636 157.185,-199.108 166.849,-208.478"/>
<polygon fill="black" stroke="black" points="164.564,-211.141 174.129,-215.697 169.493,-206.17 164.564,-211.141"/>
<g id="a_edge11&#45;headlabel"><a xlink:href="dir_000024_000039.html" target="_top" xlink:title="112">
<text text-anchor="middle" x="160.012" y="-208.126" font-family="FreeSans" font-size="10.00">112</text>
</a>
</g>
</g>
<!-- dir_4dc3d87d265d107fb34e011e3afab8f4&#45;&gt;dir_409f97388efe006bc3438b95e9edef48 -->
<g id="edge12" class="edge"><title>dir_4dc3d87d265d107fb34e011e3afab8f4&#45;&gt;dir_409f97388efe006bc3438b95e9edef48</title>
<path fill="none" stroke="black" d="M114.257,-143.871C118.858,-119.67 127.312,-75.2108 132.791,-46.3932"/>
<polygon fill="black" stroke="black" points="136.302,-46.6671 134.732,-36.1893 129.425,-45.3594 136.302,-46.6671"/>
<g id="a_edge12&#45;headlabel"><a xlink:href="dir_000024_000003.html" target="_top" xlink:title="86">
<text text-anchor="middle" x="138.42" y="-48.2287" font-family="FreeSans" font-size="10.00">86</text>
</a>
</g>
</g>
<!-- dir_4dc3d87d265d107fb34e011e3afab8f4&#45;&gt;dir_4f56254472fa4f0460e46d8bf18645ad -->
<g id="edge13" class="edge"><title>dir_4dc3d87d265d107fb34e011e3afab8f4&#45;&gt;dir_4f56254472fa4f0460e46d8bf18645ad</title>
<path fill="none" stroke="black" d="M124.596,-143.697C131.123,-135.389 139.068,-125.277 146.247,-116.141"/>
<polygon fill="black" stroke="black" points="149.135,-118.13 152.561,-108.104 143.631,-113.805 149.135,-118.13"/>
<g id="a_edge13&#45;headlabel"><a xlink:href="dir_000024_000034.html" target="_top" xlink:title="110">
<text text-anchor="middle" x="149.147" y="-120.211" font-family="FreeSans" font-size="10.00">110</text>
</a>
</g>
</g>
</g>
</svg>
