<?xml version="1.0" encoding="UTF-8" standalone="no"?>
<!DOCTYPE svg PUBLIC "-//W3C//DTD SVG 1.1//EN"
 "http://www.w3.org/Graphics/SVG/1.1/DTD/svg11.dtd">
<!-- Generated by graphviz version 2.36.0 (20140111.2315)
 -->
<!-- Title: /home/travis/build/scrawl/openmw/apps/opencs/view/widget/droplineedit.cpp Pages: 1 -->
<svg width="652pt" height="274pt"
 viewBox="0.00 0.00 652.00 274.00" xmlns="http://www.w3.org/2000/svg" xmlns:xlink="http://www.w3.org/1999/xlink">
<g id="graph0" class="graph" transform="scale(1 1) rotate(0) translate(4 270)">
<title>/home/travis/build/scrawl/openmw/apps/opencs/view/widget/droplineedit.cpp</title>
<polygon fill="white" stroke="none" points="-4,4 -4,-270 648,-270 648,4 -4,4"/>
<!-- Node1 -->
<g id="node1" class="node"><title>Node1</title>
<polygon fill="#bfbfbf" stroke="black" points="271.5,-224.5 271.5,-265.5 462.5,-265.5 462.5,-224.5 271.5,-224.5"/>
<text text-anchor="start" x="279.5" y="-253.5" font-family="FreeSans" font-size="10.00">/home/travis/build</text>
<text text-anchor="start" x="279.5" y="-242.5" font-family="FreeSans" font-size="10.00">/scrawl/openmw/apps</text>
<text text-anchor="middle" x="367" y="-231.5" font-family="FreeSans" font-size="10.00">/opencs/view/widget/droplineedit.cpp</text>
</g>
<!-- Node2 -->
<g id="node2" class="node"><title>Node2</title>
<g id="a_node2"><a xlink:href="droplineedit_8hpp.html" target="_top" xlink:title="droplineedit.hpp">
<polygon fill="white" stroke="black" points="4,-168.5 4,-187.5 98,-187.5 98,-168.5 4,-168.5"/>
<text text-anchor="middle" x="51" y="-175.5" font-family="FreeSans" font-size="10.00">droplineedit.hpp</text>
</a>
</g>
</g>
<!-- Node1&#45;&gt;Node2 -->
<g id="edge1" class="edge"><title>Node1&#45;&gt;Node2</title>
<path fill="none" stroke="midnightblue" d="M272.19,-224.498C216.584,-213.06 148.477,-199.051 102.65,-189.624"/>
<polygon fill="midnightblue" stroke="midnightblue" points="103.149,-186.154 92.6491,-187.567 101.739,-193.01 103.149,-186.154"/>
</g>
<!-- Node11 -->
<g id="node11" class="node"><title>Node11</title>
<polygon fill="white" stroke="#bfbfbf" points="518,-168.5 518,-187.5 592,-187.5 592,-168.5 518,-168.5"/>
<text text-anchor="middle" x="555" y="-175.5" font-family="FreeSans" font-size="10.00">QDropEvent</text>
</g>
<!-- Node1&#45;&gt;Node11 -->
<g id="edge11" class="edge"><title>Node1&#45;&gt;Node11</title>
<path fill="none" stroke="midnightblue" d="M423.406,-224.498C455.002,-213.574 493.382,-200.304 520.519,-190.922"/>
<polygon fill="midnightblue" stroke="midnightblue" points="521.667,-194.228 529.974,-187.652 519.38,-187.612 521.667,-194.228"/>
</g>
<!-- Node12 -->
<g id="node12" class="node"><title>Node12</title>
<g id="a_node12"><a xlink:href="tablemimedata_8hpp.html" target="_top" xlink:title="../../model/world/tablemimedata.hpp">
<polygon fill="white" stroke="black" points="272,-168.5 272,-187.5 462,-187.5 462,-168.5 272,-168.5"/>
<text text-anchor="middle" x="367" y="-175.5" font-family="FreeSans" font-size="10.00">../../model/world/tablemimedata.hpp</text>
</a>
</g>
</g>
<!-- Node1&#45;&gt;Node12 -->
<g id="edge12" class="edge"><title>Node1&#45;&gt;Node12</title>
<path fill="none" stroke="midnightblue" d="M367,-224.498C367,-216.065 367,-206.235 367,-197.874"/>
<polygon fill="midnightblue" stroke="midnightblue" points="370.5,-197.652 367,-187.652 363.5,-197.653 370.5,-197.652"/>
</g>
<!-- Node15 -->
<g id="node15" class="node"><title>Node15</title>
<g id="a_node15"><a xlink:href="universalid_8hpp.html" target="_top" xlink:title="universalid.hpp">
<polygon fill="white" stroke="black" points="527.5,-112.5 527.5,-131.5 616.5,-131.5 616.5,-112.5 527.5,-112.5"/>
<text text-anchor="middle" x="572" y="-119.5" font-family="FreeSans" font-size="10.00">universalid.hpp</text>
</a>
</g>
</g>
<!-- Node1&#45;&gt;Node15 -->
<g id="edge22" class="edge"><title>Node1&#45;&gt;Node15</title>
<path fill="none" stroke="midnightblue" d="M404.941,-224.48C424.821,-214.024 449.451,-200.71 471,-188 499.191,-171.373 530.782,-150.699 551.005,-137.192"/>
<polygon fill="midnightblue" stroke="midnightblue" points="553.089,-140.009 559.444,-131.531 549.189,-134.196 553.089,-140.009"/>
</g>
<!-- Node18 -->
<g id="node18" class="node"><title>Node18</title>
<g id="a_node18"><a xlink:href="dragdroputils_8hpp.html" target="_top" xlink:title="../world/dragdroputils.hpp">
<polygon fill="white" stroke="black" points="116.5,-168.5 116.5,-187.5 253.5,-187.5 253.5,-168.5 116.5,-168.5"/>
<text text-anchor="middle" x="185" y="-175.5" font-family="FreeSans" font-size="10.00">../world/dragdroputils.hpp</text>
</a>
</g>
</g>
<!-- Node1&#45;&gt;Node18 -->
<g id="edge23" class="edge"><title>Node1&#45;&gt;Node18</title>
<path fill="none" stroke="midnightblue" d="M312.394,-224.498C281.941,-213.622 244.978,-200.421 218.727,-191.045"/>
<polygon fill="midnightblue" stroke="midnightblue" points="219.822,-187.72 209.227,-187.652 217.467,-194.312 219.822,-187.72"/>
</g>
<!-- Node3 -->
<g id="node3" class="node"><title>Node3</title>
<polygon fill="white" stroke="#bfbfbf" points="0,-112.5 0,-131.5 62,-131.5 62,-112.5 0,-112.5"/>
<text text-anchor="middle" x="31" y="-119.5" font-family="FreeSans" font-size="10.00">QLineEdit</text>
</g>
<!-- Node2&#45;&gt;Node3 -->
<g id="edge2" class="edge"><title>Node2&#45;&gt;Node3</title>
<path fill="none" stroke="midnightblue" d="M47.6974,-168.083C45.018,-160.849 41.1514,-150.409 37.8136,-141.397"/>
<polygon fill="midnightblue" stroke="midnightblue" points="40.9965,-139.913 34.2411,-131.751 34.4322,-142.344 40.9965,-139.913"/>
</g>
<!-- Node4 -->
<g id="node4" class="node"><title>Node4</title>
<g id="a_node4"><a xlink:href="columnbase_8hpp.html" target="_top" xlink:title="../../model/world/columnbase.hpp">
<polygon fill="white" stroke="black" points="80.5,-112.5 80.5,-131.5 255.5,-131.5 255.5,-112.5 80.5,-112.5"/>
<text text-anchor="middle" x="168" y="-119.5" font-family="FreeSans" font-size="10.00">../../model/world/columnbase.hpp</text>
</a>
</g>
</g>
<!-- Node2&#45;&gt;Node4 -->
<g id="edge3" class="edge"><title>Node2&#45;&gt;Node4</title>
<path fill="none" stroke="midnightblue" d="M69.539,-168.444C88.6229,-159.636 118.575,-145.812 140.436,-135.722"/>
<polygon fill="midnightblue" stroke="midnightblue" points="141.935,-138.885 149.548,-131.516 139.001,-132.529 141.935,-138.885"/>
</g>
<!-- Node5 -->
<g id="node5" class="node"><title>Node5</title>
<polygon fill="white" stroke="#bfbfbf" points="395,-56.5 395,-75.5 439,-75.5 439,-56.5 395,-56.5"/>
<text text-anchor="middle" x="417" y="-63.5" font-family="FreeSans" font-size="10.00">string</text>
</g>
<!-- Node4&#45;&gt;Node5 -->
<g id="edge4" class="edge"><title>Node4&#45;&gt;Node5</title>
<path fill="none" stroke="midnightblue" d="M207.455,-112.444C256.562,-101.794 339.484,-83.8106 384.896,-73.9623"/>
<polygon fill="midnightblue" stroke="midnightblue" points="385.761,-77.3562 394.792,-71.8162 384.277,-70.5152 385.761,-77.3562"/>
</g>
<!-- Node6 -->
<g id="node6" class="node"><title>Node6</title>
<polygon fill="white" stroke="#bfbfbf" points="276.5,-56.5 276.5,-75.5 323.5,-75.5 323.5,-56.5 276.5,-56.5"/>
<text text-anchor="middle" x="300" y="-63.5" font-family="FreeSans" font-size="10.00">vector</text>
</g>
<!-- Node4&#45;&gt;Node6 -->
<g id="edge5" class="edge"><title>Node4&#45;&gt;Node6</title>
<path fill="none" stroke="midnightblue" d="M188.916,-112.444C210.736,-103.517 245.15,-89.4387 269.892,-79.3168"/>
<polygon fill="midnightblue" stroke="midnightblue" points="271.252,-82.5422 279.182,-75.5164 268.601,-76.0634 271.252,-82.5422"/>
</g>
<!-- Node7 -->
<g id="node7" class="node"><title>Node7</title>
<polygon fill="white" stroke="#bfbfbf" points="38,-0.5 38,-19.5 102,-19.5 102,-0.5 38,-0.5"/>
<text text-anchor="middle" x="70" y="-7.5" font-family="FreeSans" font-size="10.00">stdexcept</text>
</g>
<!-- Node4&#45;&gt;Node7 -->
<g id="edge6" class="edge"><title>Node4&#45;&gt;Node7</title>
<path fill="none" stroke="midnightblue" d="M114.681,-112.431C93.3436,-106.1 70.8235,-95.101 58,-76 48.6324,-62.0467 53.9103,-42.7852 60.1425,-28.8555"/>
<polygon fill="midnightblue" stroke="midnightblue" points="63.3241,-30.3182 64.6535,-19.8071 57.0595,-27.195 63.3241,-30.3182"/>
</g>
<!-- Node8 -->
<g id="node8" class="node"><title>Node8</title>
<polygon fill="white" stroke="#bfbfbf" points="153.5,-56.5 153.5,-75.5 182.5,-75.5 182.5,-56.5 153.5,-56.5"/>
<text text-anchor="middle" x="168" y="-63.5" font-family="FreeSans" font-size="10.00">Qt</text>
</g>
<!-- Node4&#45;&gt;Node8 -->
<g id="edge7" class="edge"><title>Node4&#45;&gt;Node8</title>
<path fill="none" stroke="midnightblue" d="M168,-112.083C168,-105.006 168,-94.8611 168,-85.9865"/>
<polygon fill="midnightblue" stroke="midnightblue" points="171.5,-85.751 168,-75.7511 164.5,-85.7511 171.5,-85.751"/>
</g>
<!-- Node9 -->
<g id="node9" class="node"><title>Node9</title>
<polygon fill="white" stroke="#bfbfbf" points="200,-56.5 200,-75.5 258,-75.5 258,-56.5 200,-56.5"/>
<text text-anchor="middle" x="229" y="-63.5" font-family="FreeSans" font-size="10.00">QVariant</text>
</g>
<!-- Node4&#45;&gt;Node9 -->
<g id="edge8" class="edge"><title>Node4&#45;&gt;Node9</title>
<path fill="none" stroke="midnightblue" d="M177.801,-112.324C186.818,-104.341 200.406,-92.3128 211.318,-82.6529"/>
<polygon fill="midnightblue" stroke="midnightblue" points="213.853,-85.083 219.021,-75.8339 209.213,-79.8416 213.853,-85.083"/>
</g>
<!-- Node10 -->
<g id="node10" class="node"><title>Node10</title>
<g id="a_node10"><a xlink:href="apps_2opencs_2model_2world_2record_8hpp.html" target="_top" xlink:title="record.hpp">
<polygon fill="white" stroke="black" points="67,-56.5 67,-75.5 135,-75.5 135,-56.5 67,-56.5"/>
<text text-anchor="middle" x="101" y="-63.5" font-family="FreeSans" font-size="10.00">record.hpp</text>
</a>
</g>
</g>
<!-- Node4&#45;&gt;Node10 -->
<g id="edge9" class="edge"><title>Node4&#45;&gt;Node10</title>
<path fill="none" stroke="midnightblue" d="M157.235,-112.324C147.234,-104.263 132.113,-92.0765 120.07,-82.3695"/>
<polygon fill="midnightblue" stroke="midnightblue" points="121.943,-79.3841 111.961,-75.8339 117.55,-84.8343 121.943,-79.3841"/>
</g>
<!-- Node10&#45;&gt;Node7 -->
<g id="edge10" class="edge"><title>Node10&#45;&gt;Node7</title>
<path fill="none" stroke="midnightblue" d="M95.881,-56.083C91.5925,-48.6127 85.3418,-37.7244 80.0577,-28.5199"/>
<polygon fill="midnightblue" stroke="midnightblue" points="83.0379,-26.6811 75.0238,-19.7511 76.9671,-30.1662 83.0379,-26.6811"/>
</g>
<!-- Node12&#45;&gt;Node4 -->
<g id="edge21" class="edge"><title>Node12&#45;&gt;Node4</title>
<path fill="none" stroke="midnightblue" d="M335.468,-168.444C301.408,-159.201 246.994,-144.436 209.485,-134.257"/>
<polygon fill="midnightblue" stroke="midnightblue" points="209.952,-130.758 199.385,-131.516 208.119,-137.513 209.952,-130.758"/>
</g>
<!-- Node12&#45;&gt;Node6 -->
<g id="edge13" class="edge"><title>Node12&#45;&gt;Node6</title>
<path fill="none" stroke="midnightblue" d="M346.063,-168.389C331.221,-161.072 312.347,-149.027 303,-132 295.27,-117.92 295.202,-99.4283 296.668,-85.7696"/>
<polygon fill="midnightblue" stroke="midnightblue" points="300.166,-86.0326 298.127,-75.6359 293.238,-85.0352 300.166,-86.0326"/>
</g>
<!-- Node13 -->
<g id="node13" class="node"><title>Node13</title>
<polygon fill="white" stroke="#bfbfbf" points="312,-112.5 312,-131.5 422,-131.5 422,-112.5 312,-112.5"/>
<text text-anchor="middle" x="367" y="-119.5" font-family="FreeSans" font-size="10.00">QtCore/QMimeData</text>
</g>
<!-- Node12&#45;&gt;Node13 -->
<g id="edge14" class="edge"><title>Node12&#45;&gt;Node13</title>
<path fill="none" stroke="midnightblue" d="M367,-168.083C367,-161.006 367,-150.861 367,-141.986"/>
<polygon fill="midnightblue" stroke="midnightblue" points="370.5,-141.751 367,-131.751 363.5,-141.751 370.5,-141.751"/>
</g>
<!-- Node14 -->
<g id="node14" class="node"><title>Node14</title>
<polygon fill="white" stroke="#bfbfbf" points="440.5,-112.5 440.5,-131.5 509.5,-131.5 509.5,-112.5 440.5,-112.5"/>
<text text-anchor="middle" x="475" y="-119.5" font-family="FreeSans" font-size="10.00">QStringList</text>
</g>
<!-- Node12&#45;&gt;Node14 -->
<g id="edge15" class="edge"><title>Node12&#45;&gt;Node14</title>
<path fill="none" stroke="midnightblue" d="M384.352,-168.324C401.672,-159.664 428.515,-146.242 448.502,-136.249"/>
<polygon fill="midnightblue" stroke="midnightblue" points="450.312,-139.257 457.691,-131.655 447.181,-132.996 450.312,-139.257"/>
</g>
<!-- Node12&#45;&gt;Node15 -->
<g id="edge16" class="edge"><title>Node12&#45;&gt;Node15</title>
<path fill="none" stroke="midnightblue" d="M399.483,-168.444C434.72,-159.162 491.104,-144.309 529.759,-134.127"/>
<polygon fill="midnightblue" stroke="midnightblue" points="530.891,-137.448 539.669,-131.516 529.107,-130.679 530.891,-137.448"/>
</g>
<!-- Node15&#45;&gt;Node5 -->
<g id="edge17" class="edge"><title>Node15&#45;&gt;Node5</title>
<path fill="none" stroke="midnightblue" d="M547.44,-112.444C520.867,-103.186 478.387,-88.3866 449.167,-78.2066"/>
<polygon fill="midnightblue" stroke="midnightblue" points="450.027,-74.7999 439.432,-74.8151 447.724,-81.4103 450.027,-74.7999"/>
</g>
<!-- Node15&#45;&gt;Node6 -->
<g id="edge19" class="edge"><title>Node15&#45;&gt;Node6</title>
<path fill="none" stroke="midnightblue" d="M528.901,-112.444C474.639,-101.671 382.582,-83.395 333.37,-73.6249"/>
<polygon fill="midnightblue" stroke="midnightblue" points="334.038,-70.1893 323.548,-71.6749 332.675,-77.0553 334.038,-70.1893"/>
</g>
<!-- Node16 -->
<g id="node16" class="node"><title>Node16</title>
<polygon fill="white" stroke="#bfbfbf" points="511,-56.5 511,-75.5 557,-75.5 557,-56.5 511,-56.5"/>
<text text-anchor="middle" x="534" y="-63.5" font-family="FreeSans" font-size="10.00">iosfwd</text>
</g>
<!-- Node15&#45;&gt;Node16 -->
<g id="edge18" class="edge"><title>Node15&#45;&gt;Node16</title>
<path fill="none" stroke="midnightblue" d="M565.725,-112.083C560.358,-104.455 552.482,-93.2645 545.921,-83.9408"/>
<polygon fill="midnightblue" stroke="midnightblue" points="548.775,-81.9149 540.158,-75.7511 543.051,-85.9434 548.775,-81.9149"/>
</g>
<!-- Node17 -->
<g id="node17" class="node"><title>Node17</title>
<polygon fill="white" stroke="#bfbfbf" points="575.5,-56.5 575.5,-75.5 644.5,-75.5 644.5,-56.5 575.5,-56.5"/>
<text text-anchor="middle" x="610" y="-63.5" font-family="FreeSans" font-size="10.00">QMetaType</text>
</g>
<!-- Node15&#45;&gt;Node17 -->
<g id="edge20" class="edge"><title>Node15&#45;&gt;Node17</title>
<path fill="none" stroke="midnightblue" d="M578.275,-112.083C583.642,-104.455 591.518,-93.2645 598.079,-83.9408"/>
<polygon fill="midnightblue" stroke="midnightblue" points="600.949,-85.9434 603.842,-75.7511 595.225,-81.9149 600.949,-85.9434"/>
</g>
<!-- Node18&#45;&gt;Node4 -->
<g id="edge24" class="edge"><title>Node18&#45;&gt;Node4</title>
<path fill="none" stroke="midnightblue" d="M182.193,-168.083C179.915,-160.849 176.629,-150.409 173.792,-141.397"/>
<polygon fill="midnightblue" stroke="midnightblue" points="177.096,-140.239 170.755,-131.751 170.419,-142.341 177.096,-140.239"/>
</g>
</g>
</svg>
