<?xml version="1.0" encoding="UTF-8" standalone="no"?>
<!DOCTYPE svg PUBLIC "-//W3C//DTD SVG 1.1//EN"
 "http://www.w3.org/Graphics/SVG/1.1/DTD/svg11.dtd">
<!-- Generated by graphviz version 2.36.0 (20140111.2315)
 -->
<!-- Title: /home/travis/build/elsid/openmw/components/nif/effect.cpp Pages: 1 -->
<svg width="1429pt" height="498pt"
 viewBox="0.00 0.00 1429.00 498.00" xmlns="http://www.w3.org/2000/svg" xmlns:xlink="http://www.w3.org/1999/xlink">
<g id="graph0" class="graph" transform="scale(1 1) rotate(0) translate(4 494)">
<title>/home/travis/build/elsid/openmw/components/nif/effect.cpp</title>
<polygon fill="white" stroke="none" points="-4,4 -4,-494 1425,-494 1425,4 -4,4"/>
<!-- Node1 -->
<g id="node1" class="node"><title>Node1</title>
<polygon fill="#bfbfbf" stroke="black" points="802,-448.5 802,-489.5 950,-489.5 950,-448.5 802,-448.5"/>
<text text-anchor="start" x="810" y="-477.5" font-family="FreeSans" font-size="10.00">/home/travis/build</text>
<text text-anchor="start" x="810" y="-466.5" font-family="FreeSans" font-size="10.00">/elsid/openmw/components</text>
<text text-anchor="middle" x="876" y="-455.5" font-family="FreeSans" font-size="10.00">/nif/effect.cpp</text>
</g>
<!-- Node2 -->
<g id="node2" class="node"><title>Node2</title>
<g id="a_node2"><a xlink:href="effect_8hpp.html" target="_top" xlink:title="effect.hpp">
<polygon fill="white" stroke="black" points="813.5,-392.5 813.5,-411.5 878.5,-411.5 878.5,-392.5 813.5,-392.5"/>
<text text-anchor="middle" x="846" y="-399.5" font-family="FreeSans" font-size="10.00">effect.hpp</text>
</a>
</g>
</g>
<!-- Node1&#45;&gt;Node2 -->
<g id="edge1" class="edge"><title>Node1&#45;&gt;Node2</title>
<path fill="none" stroke="midnightblue" d="M866.999,-448.498C862.93,-439.682 858.156,-429.339 854.189,-420.743"/>
<polygon fill="midnightblue" stroke="midnightblue" points="857.362,-419.265 849.993,-411.652 851.006,-422.199 857.362,-419.265"/>
</g>
<!-- Node3 -->
<g id="node3" class="node"><title>Node3</title>
<g id="a_node3"><a xlink:href="components_2nif_2node_8hpp.html" target="_top" xlink:title="node.hpp">
<polygon fill="white" stroke="black" points="845,-336.5 845,-355.5 907,-355.5 907,-336.5 845,-336.5"/>
<text text-anchor="middle" x="876" y="-343.5" font-family="FreeSans" font-size="10.00">node.hpp</text>
</a>
</g>
</g>
<!-- Node1&#45;&gt;Node3 -->
<g id="edge57" class="edge"><title>Node1&#45;&gt;Node3</title>
<path fill="none" stroke="midnightblue" d="M881.715,-448.351C885.476,-433.026 889.312,-411.193 887,-392 885.929,-383.107 883.708,-373.434 881.54,-365.344"/>
<polygon fill="midnightblue" stroke="midnightblue" points="884.844,-364.167 878.73,-355.514 878.113,-366.091 884.844,-364.167"/>
</g>
<!-- Node2&#45;&gt;Node3 -->
<g id="edge2" class="edge"><title>Node2&#45;&gt;Node3</title>
<path fill="none" stroke="midnightblue" d="M850.954,-392.083C855.104,-384.613 861.153,-373.724 866.267,-364.52"/>
<polygon fill="midnightblue" stroke="midnightblue" points="869.341,-366.192 871.138,-355.751 863.222,-362.793 869.341,-366.192"/>
</g>
<!-- Node4 -->
<g id="node4" class="node"><title>Node4</title>
<g id="a_node4"><a xlink:href="controlled_8hpp.html" target="_top" xlink:title="controlled.hpp">
<polygon fill="white" stroke="black" points="566.5,-280.5 566.5,-299.5 651.5,-299.5 651.5,-280.5 566.5,-280.5"/>
<text text-anchor="middle" x="609" y="-287.5" font-family="FreeSans" font-size="10.00">controlled.hpp</text>
</a>
</g>
</g>
<!-- Node3&#45;&gt;Node4 -->
<g id="edge3" class="edge"><title>Node3&#45;&gt;Node4</title>
<path fill="none" stroke="midnightblue" d="M844.849,-338.7C799.783,-329.585 715.827,-312.605 661.2,-301.557"/>
<polygon fill="midnightblue" stroke="midnightblue" points="661.853,-298.119 651.358,-299.567 660.465,-304.98 661.853,-298.119"/>
</g>
<!-- Node5 -->
<g id="node5" class="node"><title>Node5</title>
<g id="a_node5"><a xlink:href="base_8hpp.html" target="_top" xlink:title="base.hpp">
<polygon fill="white" stroke="black" points="654.5,-224.5 654.5,-243.5 715.5,-243.5 715.5,-224.5 654.5,-224.5"/>
<text text-anchor="middle" x="685" y="-231.5" font-family="FreeSans" font-size="10.00">base.hpp</text>
</a>
</g>
</g>
<!-- Node3&#45;&gt;Node5 -->
<g id="edge48" class="edge"><title>Node3&#45;&gt;Node5</title>
<path fill="none" stroke="midnightblue" d="M844.828,-341.049C799.593,-334.678 718.968,-320.717 699,-300 687.369,-287.933 684.428,-268.646 684.061,-254.21"/>
<polygon fill="midnightblue" stroke="midnightblue" points="687.565,-253.95 684.201,-243.904 680.565,-253.855 687.565,-253.95"/>
</g>
<!-- Node24 -->
<g id="node24" class="node"><title>Node24</title>
<g id="a_node24"><a xlink:href="niftypes_8hpp.html" target="_top" xlink:title="niftypes.hpp">
<polygon fill="white" stroke="black" points="1014.5,-56.5 1014.5,-75.5 1089.5,-75.5 1089.5,-56.5 1014.5,-56.5"/>
<text text-anchor="middle" x="1052" y="-63.5" font-family="FreeSans" font-size="10.00">niftypes.hpp</text>
</a>
</g>
</g>
<!-- Node3&#45;&gt;Node24 -->
<g id="edge45" class="edge"><title>Node3&#45;&gt;Node24</title>
<path fill="none" stroke="midnightblue" d="M907.428,-338.093C929.3,-331.722 957.562,-320.114 975,-300 994.716,-277.259 994,-265.098 994,-235 994,-235 994,-235 994,-177 994,-140.163 1019.77,-103.565 1036.95,-83.2515"/>
<polygon fill="midnightblue" stroke="midnightblue" points="1039.71,-85.4097 1043.69,-75.5894 1034.46,-80.7864 1039.71,-85.4097"/>
</g>
<!-- Node29 -->
<g id="node29" class="node"><title>Node29</title>
<g id="a_node29"><a xlink:href="extra_8hpp.html" target="_top" xlink:title="extra.hpp">
<polygon fill="white" stroke="black" points="708,-280.5 708,-299.5 770,-299.5 770,-280.5 708,-280.5"/>
<text text-anchor="middle" x="739" y="-287.5" font-family="FreeSans" font-size="10.00">extra.hpp</text>
</a>
</g>
</g>
<!-- Node3&#45;&gt;Node29 -->
<g id="edge38" class="edge"><title>Node3&#45;&gt;Node29</title>
<path fill="none" stroke="midnightblue" d="M854.292,-336.444C831.645,-327.517 795.928,-313.439 770.248,-303.317"/>
<polygon fill="midnightblue" stroke="midnightblue" points="771.193,-299.927 760.606,-299.516 768.626,-306.44 771.193,-299.927"/>
</g>
<!-- Node30 -->
<g id="node30" class="node"><title>Node30</title>
<g id="a_node30"><a xlink:href="components_2nif_2data_8hpp.html" target="_top" xlink:title="data.hpp">
<polygon fill="white" stroke="black" points="1022.5,-280.5 1022.5,-299.5 1081.5,-299.5 1081.5,-280.5 1022.5,-280.5"/>
<text text-anchor="middle" x="1052" y="-287.5" font-family="FreeSans" font-size="10.00">data.hpp</text>
</a>
</g>
</g>
<!-- Node3&#45;&gt;Node30 -->
<g id="edge40" class="edge"><title>Node3&#45;&gt;Node30</title>
<path fill="none" stroke="midnightblue" d="M903.888,-336.444C933.754,-327.28 981.315,-312.688 1014.46,-302.519"/>
<polygon fill="midnightblue" stroke="midnightblue" points="1015.71,-305.796 1024.24,-299.516 1013.66,-299.104 1015.71,-305.796"/>
</g>
<!-- Node31 -->
<g id="node31" class="node"><title>Node31</title>
<g id="a_node31"><a xlink:href="property_8hpp.html" target="_top" xlink:title="property.hpp">
<polygon fill="white" stroke="black" points="788.5,-280.5 788.5,-299.5 865.5,-299.5 865.5,-280.5 788.5,-280.5"/>
<text text-anchor="middle" x="827" y="-287.5" font-family="FreeSans" font-size="10.00">property.hpp</text>
</a>
</g>
</g>
<!-- Node3&#45;&gt;Node31 -->
<g id="edge43" class="edge"><title>Node3&#45;&gt;Node31</title>
<path fill="none" stroke="midnightblue" d="M867.909,-336.083C860.845,-328.298 850.412,-316.801 841.851,-307.367"/>
<polygon fill="midnightblue" stroke="midnightblue" points="844.253,-304.805 834.941,-299.751 839.069,-309.509 844.253,-304.805"/>
</g>
<!-- Node32 -->
<g id="node32" class="node"><title>Node32</title>
<g id="a_node32"><a xlink:href="nif_2controller_8hpp.html" target="_top" xlink:title="controller.hpp">
<polygon fill="white" stroke="black" points="884,-280.5 884,-299.5 966,-299.5 966,-280.5 884,-280.5"/>
<text text-anchor="middle" x="925" y="-287.5" font-family="FreeSans" font-size="10.00">controller.hpp</text>
</a>
</g>
</g>
<!-- Node3&#45;&gt;Node32 -->
<g id="edge46" class="edge"><title>Node3&#45;&gt;Node32</title>
<path fill="none" stroke="midnightblue" d="M884.091,-336.083C891.155,-328.298 901.588,-316.801 910.149,-307.367"/>
<polygon fill="midnightblue" stroke="midnightblue" points="912.931,-309.509 917.059,-299.751 907.747,-304.805 912.931,-309.509"/>
</g>
<!-- Node33 -->
<g id="node33" class="node"><title>Node33</title>
<g id="a_node33"><a xlink:href="stringops_8hpp.html" target="_top" xlink:title="components/misc/stringops.hpp">
<polygon fill="white" stroke="black" points="1119,-280.5 1119,-299.5 1289,-299.5 1289,-280.5 1119,-280.5"/>
<text text-anchor="middle" x="1204" y="-287.5" font-family="FreeSans" font-size="10.00">components/misc/stringops.hpp</text>
</a>
</g>
</g>
<!-- Node3&#45;&gt;Node33 -->
<g id="edge49" class="edge"><title>Node3&#45;&gt;Node33</title>
<path fill="none" stroke="midnightblue" d="M907.153,-339.871C960.956,-331.013 1072.23,-312.693 1142.22,-301.172"/>
<polygon fill="midnightblue" stroke="midnightblue" points="1142.93,-304.601 1152.23,-299.523 1141.79,-297.694 1142.93,-304.601"/>
</g>
<!-- Node4&#45;&gt;Node5 -->
<g id="edge4" class="edge"><title>Node4&#45;&gt;Node5</title>
<path fill="none" stroke="midnightblue" d="M621.211,-280.324C632.776,-272.107 650.375,-259.602 664.161,-249.807"/>
<polygon fill="midnightblue" stroke="midnightblue" points="666.443,-252.479 672.567,-243.834 662.388,-246.773 666.443,-252.479"/>
</g>
<!-- Node6 -->
<g id="node6" class="node"><title>Node6</title>
<g id="a_node6"><a xlink:href="components_2nif_2record_8hpp.html" target="_top" xlink:title="record.hpp">
<polygon fill="white" stroke="black" points="0,-56.5 0,-75.5 68,-75.5 68,-56.5 0,-56.5"/>
<text text-anchor="middle" x="34" y="-63.5" font-family="FreeSans" font-size="10.00">record.hpp</text>
</a>
</g>
</g>
<!-- Node5&#45;&gt;Node6 -->
<g id="edge5" class="edge"><title>Node5&#45;&gt;Node6</title>
<path fill="none" stroke="midnightblue" d="M654.445,-226.631C614.798,-218.267 543.532,-202.891 483,-188 331.071,-150.625 151.854,-100.494 73.7327,-78.3394"/>
<polygon fill="midnightblue" stroke="midnightblue" points="74.409,-74.8931 63.8333,-75.5282 72.4968,-81.6269 74.409,-74.8931"/>
</g>
<!-- Node8 -->
<g id="node8" class="node"><title>Node8</title>
<g id="a_node8"><a xlink:href="niffile_8hpp.html" target="_top" xlink:title="niffile.hpp">
<polygon fill="white" stroke="black" points="376,-112.5 376,-131.5 438,-131.5 438,-112.5 376,-112.5"/>
<text text-anchor="middle" x="407" y="-119.5" font-family="FreeSans" font-size="10.00">niffile.hpp</text>
</a>
</g>
</g>
<!-- Node5&#45;&gt;Node8 -->
<g id="edge7" class="edge"><title>Node5&#45;&gt;Node8</title>
<path fill="none" stroke="midnightblue" d="M654.254,-226.25C622.121,-218.722 570.554,-205.296 528,-188 492.116,-173.415 453.053,-151.169 429.294,-136.856"/>
<polygon fill="midnightblue" stroke="midnightblue" points="431.045,-133.825 420.684,-131.612 427.404,-139.803 431.045,-133.825"/>
</g>
<!-- Node17 -->
<g id="node17" class="node"><title>Node17</title>
<g id="a_node17"><a xlink:href="recordptr_8hpp.html" target="_top" xlink:title="recordptr.hpp">
<polygon fill="white" stroke="black" points="537.5,-168.5 537.5,-187.5 618.5,-187.5 618.5,-168.5 537.5,-168.5"/>
<text text-anchor="middle" x="578" y="-175.5" font-family="FreeSans" font-size="10.00">recordptr.hpp</text>
</a>
</g>
</g>
<!-- Node5&#45;&gt;Node17 -->
<g id="edge17" class="edge"><title>Node5&#45;&gt;Node17</title>
<path fill="none" stroke="midnightblue" d="M667.809,-224.324C650.649,-215.664 624.054,-202.242 604.253,-192.249"/>
<polygon fill="midnightblue" stroke="midnightblue" points="605.653,-189.035 595.149,-187.655 602.499,-195.285 605.653,-189.035"/>
</g>
<!-- Node18 -->
<g id="node18" class="node"><title>Node18</title>
<g id="a_node18"><a xlink:href="nifstream_8hpp.html" target="_top" xlink:title="nifstream.hpp">
<polygon fill="white" stroke="black" points="649.5,-112.5 649.5,-131.5 732.5,-131.5 732.5,-112.5 649.5,-112.5"/>
<text text-anchor="middle" x="691" y="-119.5" font-family="FreeSans" font-size="10.00">nifstream.hpp</text>
</a>
</g>
</g>
<!-- Node5&#45;&gt;Node18 -->
<g id="edge32" class="edge"><title>Node5&#45;&gt;Node18</title>
<path fill="none" stroke="midnightblue" d="M685.471,-224.368C686.439,-206.617 688.673,-165.666 689.986,-141.597"/>
<polygon fill="midnightblue" stroke="midnightblue" points="693.481,-141.767 690.531,-131.591 686.492,-141.386 693.481,-141.767"/>
</g>
<!-- Node26 -->
<g id="node26" class="node"><title>Node26</title>
<g id="a_node26"><a xlink:href="nifkey_8hpp.html" target="_top" xlink:title="nifkey.hpp">
<polygon fill="white" stroke="black" points="713,-168.5 713,-187.5 777,-187.5 777,-168.5 713,-168.5"/>
<text text-anchor="middle" x="745" y="-175.5" font-family="FreeSans" font-size="10.00">nifkey.hpp</text>
</a>
</g>
</g>
<!-- Node5&#45;&gt;Node26 -->
<g id="edge33" class="edge"><title>Node5&#45;&gt;Node26</title>
<path fill="none" stroke="midnightblue" d="M694.64,-224.324C703.51,-216.341 716.875,-204.313 727.608,-194.653"/>
<polygon fill="midnightblue" stroke="midnightblue" points="730.093,-197.125 735.185,-187.834 725.41,-191.922 730.093,-197.125"/>
</g>
<!-- Node7 -->
<g id="node7" class="node"><title>Node7</title>
<polygon fill="white" stroke="#bfbfbf" points="50,-0.5 50,-19.5 94,-19.5 94,-0.5 50,-0.5"/>
<text text-anchor="middle" x="72" y="-7.5" font-family="FreeSans" font-size="10.00">string</text>
</g>
<!-- Node6&#45;&gt;Node7 -->
<g id="edge6" class="edge"><title>Node6&#45;&gt;Node7</title>
<path fill="none" stroke="midnightblue" d="M40.2749,-56.083C45.6425,-48.4554 53.5176,-37.2645 60.0787,-27.9408"/>
<polygon fill="midnightblue" stroke="midnightblue" points="62.9492,-29.9434 65.8418,-19.7511 57.2245,-25.9149 62.9492,-29.9434"/>
</g>
<!-- Node8&#45;&gt;Node6 -->
<g id="edge16" class="edge"><title>Node8&#45;&gt;Node6</title>
<path fill="none" stroke="midnightblue" d="M375.95,-117.509C318.985,-110.946 193.758,-95.7752 78.2946,-76.1213"/>
<polygon fill="midnightblue" stroke="midnightblue" points="78.6739,-72.6353 68.2257,-74.3915 77.4887,-79.5342 78.6739,-72.6353"/>
</g>
<!-- Node9 -->
<g id="node9" class="node"><title>Node9</title>
<polygon fill="white" stroke="#bfbfbf" points="282,-56.5 282,-75.5 346,-75.5 346,-56.5 282,-56.5"/>
<text text-anchor="middle" x="314" y="-63.5" font-family="FreeSans" font-size="10.00">stdexcept</text>
</g>
<!-- Node8&#45;&gt;Node9 -->
<g id="edge8" class="edge"><title>Node8&#45;&gt;Node9</title>
<path fill="none" stroke="midnightblue" d="M392.058,-112.324C377.415,-103.822 354.866,-90.7288 337.762,-80.7975"/>
<polygon fill="midnightblue" stroke="midnightblue" points="339.31,-77.6491 328.905,-75.6545 335.795,-83.7027 339.31,-77.6491"/>
</g>
<!-- Node10 -->
<g id="node10" class="node"><title>Node10</title>
<polygon fill="white" stroke="#bfbfbf" points="364.5,-56.5 364.5,-75.5 411.5,-75.5 411.5,-56.5 364.5,-56.5"/>
<text text-anchor="middle" x="388" y="-63.5" font-family="FreeSans" font-size="10.00">vector</text>
</g>
<!-- Node8&#45;&gt;Node10 -->
<g id="edge9" class="edge"><title>Node8&#45;&gt;Node10</title>
<path fill="none" stroke="midnightblue" d="M403.863,-112.083C401.317,-104.849 397.644,-94.4087 394.473,-85.3968"/>
<polygon fill="midnightblue" stroke="midnightblue" points="397.7,-84.0225 391.079,-75.7511 391.097,-86.3459 397.7,-84.0225"/>
</g>
<!-- Node11 -->
<g id="node11" class="node"><title>Node11</title>
<g id="a_node11"><a xlink:href="debuglog_8hpp.html" target="_top" xlink:title="components/debug/debuglog.hpp">
<polygon fill="white" stroke="black" points="86,-56.5 86,-75.5 264,-75.5 264,-56.5 86,-56.5"/>
<text text-anchor="middle" x="175" y="-63.5" font-family="FreeSans" font-size="10.00">components/debug/debuglog.hpp</text>
</a>
</g>
</g>
<!-- Node8&#45;&gt;Node11 -->
<g id="edge10" class="edge"><title>Node8&#45;&gt;Node11</title>
<path fill="none" stroke="midnightblue" d="M375.711,-113.717C336.156,-104.51 267.705,-88.5778 221.89,-77.914"/>
<polygon fill="midnightblue" stroke="midnightblue" points="222.438,-74.4482 211.905,-75.59 220.851,-81.266 222.438,-74.4482"/>
</g>
<!-- Node14 -->
<g id="node14" class="node"><title>Node14</title>
<g id="a_node14"><a xlink:href="constrainedfilestream_8hpp.html" target="_top" xlink:title="components/files/constrainedfilestream.hpp">
<polygon fill="white" stroke="black" points="429.5,-56.5 429.5,-75.5 656.5,-75.5 656.5,-56.5 429.5,-56.5"/>
<text text-anchor="middle" x="543" y="-63.5" font-family="FreeSans" font-size="10.00">components/files/constrainedfilestream.hpp</text>
</a>
</g>
</g>
<!-- Node8&#45;&gt;Node14 -->
<g id="edge13" class="edge"><title>Node8&#45;&gt;Node14</title>
<path fill="none" stroke="midnightblue" d="M428.55,-112.444C451.031,-103.517 486.488,-89.4387 511.98,-79.3168"/>
<polygon fill="midnightblue" stroke="midnightblue" points="513.549,-82.4598 521.551,-75.5164 510.965,-75.9539 513.549,-82.4598"/>
</g>
<!-- Node12 -->
<g id="node12" class="node"><title>Node12</title>
<polygon fill="white" stroke="#bfbfbf" points="115.5,-0.5 115.5,-19.5 162.5,-19.5 162.5,-0.5 115.5,-0.5"/>
<text text-anchor="middle" x="139" y="-7.5" font-family="FreeSans" font-size="10.00">mutex</text>
</g>
<!-- Node11&#45;&gt;Node12 -->
<g id="edge11" class="edge"><title>Node11&#45;&gt;Node12</title>
<path fill="none" stroke="midnightblue" d="M169.055,-56.083C164.023,-48.5341 156.663,-37.4948 150.487,-28.2298"/>
<polygon fill="midnightblue" stroke="midnightblue" points="153.293,-26.1301 144.834,-19.7511 147.469,-30.0131 153.293,-26.1301"/>
</g>
<!-- Node13 -->
<g id="node13" class="node"><title>Node13</title>
<polygon fill="white" stroke="#bfbfbf" points="180.5,-0.5 180.5,-19.5 239.5,-19.5 239.5,-0.5 180.5,-0.5"/>
<text text-anchor="middle" x="210" y="-7.5" font-family="FreeSans" font-size="10.00">iostream</text>
</g>
<!-- Node11&#45;&gt;Node13 -->
<g id="edge12" class="edge"><title>Node11&#45;&gt;Node13</title>
<path fill="none" stroke="midnightblue" d="M180.78,-56.083C185.672,-48.5341 192.827,-37.4948 198.833,-28.2298"/>
<polygon fill="midnightblue" stroke="midnightblue" points="201.826,-30.0463 204.328,-19.7511 195.952,-26.239 201.826,-30.0463"/>
</g>
<!-- Node15 -->
<g id="node15" class="node"><title>Node15</title>
<polygon fill="white" stroke="#bfbfbf" points="479.5,-0.5 479.5,-19.5 532.5,-19.5 532.5,-0.5 479.5,-0.5"/>
<text text-anchor="middle" x="506" y="-7.5" font-family="FreeSans" font-size="10.00">istream</text>
</g>
<!-- Node14&#45;&gt;Node15 -->
<g id="edge14" class="edge"><title>Node14&#45;&gt;Node15</title>
<path fill="none" stroke="midnightblue" d="M536.89,-56.083C531.718,-48.5341 524.154,-37.4948 517.806,-28.2298"/>
<polygon fill="midnightblue" stroke="midnightblue" points="520.536,-26.0221 511.996,-19.7511 514.761,-29.9787 520.536,-26.0221"/>
</g>
<!-- Node16 -->
<g id="node16" class="node"><title>Node16</title>
<polygon fill="white" stroke="#bfbfbf" points="550.5,-0.5 550.5,-19.5 607.5,-19.5 607.5,-0.5 550.5,-0.5"/>
<text text-anchor="middle" x="579" y="-7.5" font-family="FreeSans" font-size="10.00">memory</text>
</g>
<!-- Node14&#45;&gt;Node16 -->
<g id="edge15" class="edge"><title>Node14&#45;&gt;Node16</title>
<path fill="none" stroke="midnightblue" d="M548.945,-56.083C553.977,-48.5341 561.337,-37.4948 567.513,-28.2298"/>
<polygon fill="midnightblue" stroke="midnightblue" points="570.531,-30.0131 573.166,-19.7511 564.707,-26.1301 570.531,-30.0131"/>
</g>
<!-- Node17&#45;&gt;Node8 -->
<g id="edge18" class="edge"><title>Node17&#45;&gt;Node8</title>
<path fill="none" stroke="midnightblue" d="M550.905,-168.444C522.012,-159.32 476.075,-144.813 443.895,-134.651"/>
<polygon fill="midnightblue" stroke="midnightblue" points="444.559,-131.19 433.969,-131.516 442.451,-137.865 444.559,-131.19"/>
</g>
<!-- Node17&#45;&gt;Node10 -->
<g id="edge31" class="edge"><title>Node17&#45;&gt;Node10</title>
<path fill="none" stroke="midnightblue" d="M563.091,-168.368C530.209,-149.332 451.245,-103.615 411.578,-80.6505"/>
<polygon fill="midnightblue" stroke="midnightblue" points="413.248,-77.5728 402.84,-75.5914 409.74,-83.6308 413.248,-77.5728"/>
</g>
<!-- Node17&#45;&gt;Node18 -->
<g id="edge19" class="edge"><title>Node17&#45;&gt;Node18</title>
<path fill="none" stroke="midnightblue" d="M595.905,-168.444C614.254,-159.675 643.005,-145.935 664.094,-135.858"/>
<polygon fill="midnightblue" stroke="midnightblue" points="665.665,-138.986 673.179,-131.516 662.647,-132.67 665.665,-138.986"/>
</g>
<!-- Node18&#45;&gt;Node9 -->
<g id="edge22" class="edge"><title>Node18&#45;&gt;Node9</title>
<path fill="none" stroke="midnightblue" d="M649.448,-116.558C587.674,-109.709 467.776,-95.4744 356.252,-76.0965"/>
<polygon fill="midnightblue" stroke="midnightblue" points="356.633,-72.61 346.179,-74.3279 355.423,-79.5045 356.633,-72.61"/>
</g>
<!-- Node18&#45;&gt;Node10 -->
<g id="edge23" class="edge"><title>Node18&#45;&gt;Node10</title>
<path fill="none" stroke="midnightblue" d="M649.407,-115.538C597.963,-108.465 507.558,-95.0015 421.607,-76.176"/>
<polygon fill="midnightblue" stroke="midnightblue" points="422.213,-72.7254 411.692,-73.9756 420.696,-79.5591 422.213,-72.7254"/>
</g>
<!-- Node18&#45;&gt;Node14 -->
<g id="edge24" class="edge"><title>Node18&#45;&gt;Node14</title>
<path fill="none" stroke="midnightblue" d="M667.549,-112.444C642.867,-103.438 603.815,-89.1891 576.023,-79.049"/>
<polygon fill="midnightblue" stroke="midnightblue" points="576.935,-75.6561 566.341,-75.5164 574.536,-82.2321 576.935,-75.6561"/>
</g>
<!-- Node19 -->
<g id="node19" class="node"><title>Node19</title>
<polygon fill="white" stroke="#bfbfbf" points="675,-56.5 675,-75.5 727,-75.5 727,-56.5 675,-56.5"/>
<text text-anchor="middle" x="701" y="-63.5" font-family="FreeSans" font-size="10.00">cassert</text>
</g>
<!-- Node18&#45;&gt;Node19 -->
<g id="edge20" class="edge"><title>Node18&#45;&gt;Node19</title>
<path fill="none" stroke="midnightblue" d="M692.651,-112.083C693.976,-104.927 695.882,-94.6353 697.539,-85.6911"/>
<polygon fill="midnightblue" stroke="midnightblue" points="701,-86.2212 699.379,-75.7511 694.117,-84.9466 701,-86.2212"/>
</g>
<!-- Node20 -->
<g id="node20" class="node"><title>Node20</title>
<polygon fill="white" stroke="#bfbfbf" points="745.5,-56.5 745.5,-75.5 798.5,-75.5 798.5,-56.5 745.5,-56.5"/>
<text text-anchor="middle" x="772" y="-63.5" font-family="FreeSans" font-size="10.00">stdint.h</text>
</g>
<!-- Node18&#45;&gt;Node20 -->
<g id="edge21" class="edge"><title>Node18&#45;&gt;Node20</title>
<path fill="none" stroke="midnightblue" d="M704.014,-112.324C716.532,-103.979 735.682,-91.2122 750.471,-81.3524"/>
<polygon fill="midnightblue" stroke="midnightblue" points="752.639,-84.1137 759.018,-75.6545 748.756,-78.2894 752.639,-84.1137"/>
</g>
<!-- Node21 -->
<g id="node21" class="node"><title>Node21</title>
<polygon fill="white" stroke="#bfbfbf" points="865.5,-0.5 865.5,-19.5 928.5,-19.5 928.5,-0.5 865.5,-0.5"/>
<text text-anchor="middle" x="897" y="-7.5" font-family="FreeSans" font-size="10.00">osg/Vec3f</text>
</g>
<!-- Node18&#45;&gt;Node21 -->
<g id="edge25" class="edge"><title>Node18&#45;&gt;Node21</title>
<path fill="none" stroke="midnightblue" d="M719.071,-112.359C743.132,-104.432 778.34,-91.574 807,-76 833.535,-61.5805 861.304,-40.462 878.855,-26.2468"/>
<polygon fill="midnightblue" stroke="midnightblue" points="881.541,-28.5695 887.042,-19.5144 877.095,-23.1629 881.541,-28.5695"/>
</g>
<!-- Node22 -->
<g id="node22" class="node"><title>Node22</title>
<polygon fill="white" stroke="#bfbfbf" points="855.5,-56.5 855.5,-75.5 918.5,-75.5 918.5,-56.5 855.5,-56.5"/>
<text text-anchor="middle" x="887" y="-63.5" font-family="FreeSans" font-size="10.00">osg/Vec4f</text>
</g>
<!-- Node18&#45;&gt;Node22 -->
<g id="edge26" class="edge"><title>Node18&#45;&gt;Node22</title>
<path fill="none" stroke="midnightblue" d="M722.057,-112.444C755.603,-103.201 809.197,-88.4356 846.141,-78.2572"/>
<polygon fill="midnightblue" stroke="midnightblue" points="847.377,-81.5469 856.089,-75.5164 845.518,-74.7984 847.377,-81.5469"/>
</g>
<!-- Node23 -->
<g id="node23" class="node"><title>Node23</title>
<polygon fill="white" stroke="#bfbfbf" points="937,-56.5 937,-75.5 997,-75.5 997,-56.5 937,-56.5"/>
<text text-anchor="middle" x="967" y="-63.5" font-family="FreeSans" font-size="10.00">osg/Quat</text>
</g>
<!-- Node18&#45;&gt;Node23 -->
<g id="edge27" class="edge"><title>Node18&#45;&gt;Node23</title>
<path fill="none" stroke="midnightblue" d="M732.861,-113.448C780.103,-104.825 859.209,-90.0857 927,-76 927.1,-75.9792 927.201,-75.9583 927.301,-75.9374"/>
<polygon fill="midnightblue" stroke="midnightblue" points="927.835,-79.4023 936.882,-73.888 926.371,-72.5572 927.835,-79.4023"/>
</g>
<!-- Node18&#45;&gt;Node24 -->
<g id="edge28" class="edge"><title>Node18&#45;&gt;Node24</title>
<path fill="none" stroke="midnightblue" d="M732.727,-113.501C735.862,-112.979 738.98,-112.473 742,-112 855.371,-94.2443 886.871,-95.0415 1004.22,-76.0474"/>
<polygon fill="midnightblue" stroke="midnightblue" points="1005.02,-79.4634 1014.32,-74.3977 1003.89,-72.5549 1005.02,-79.4634"/>
</g>
<!-- Node24&#45;&gt;Node21 -->
<g id="edge29" class="edge"><title>Node24&#45;&gt;Node21</title>
<path fill="none" stroke="midnightblue" d="M1027.44,-56.4435C1001.48,-47.3986 960.332,-33.064 931.203,-22.9158"/>
<polygon fill="midnightblue" stroke="midnightblue" points="932.04,-19.5013 921.445,-19.5164 929.737,-26.1116 932.04,-19.5013"/>
</g>
<!-- Node25 -->
<g id="node25" class="node"><title>Node25</title>
<polygon fill="white" stroke="#bfbfbf" points="1017.5,-0.5 1017.5,-19.5 1086.5,-19.5 1086.5,-0.5 1017.5,-0.5"/>
<text text-anchor="middle" x="1052" y="-7.5" font-family="FreeSans" font-size="10.00">osg/Matrixf</text>
</g>
<!-- Node24&#45;&gt;Node25 -->
<g id="edge30" class="edge"><title>Node24&#45;&gt;Node25</title>
<path fill="none" stroke="midnightblue" d="M1052,-56.083C1052,-49.0059 1052,-38.8611 1052,-29.9865"/>
<polygon fill="midnightblue" stroke="midnightblue" points="1055.5,-29.751 1052,-19.7511 1048.5,-29.7511 1055.5,-29.751"/>
</g>
<!-- Node26&#45;&gt;Node8 -->
<g id="edge37" class="edge"><title>Node26&#45;&gt;Node8</title>
<path fill="none" stroke="midnightblue" d="M712.897,-171.871C651.298,-162.03 516.589,-140.508 448.36,-129.608"/>
<polygon fill="midnightblue" stroke="midnightblue" points="448.824,-126.138 438.397,-128.016 447.72,-133.05 448.824,-126.138"/>
</g>
<!-- Node26&#45;&gt;Node18 -->
<g id="edge34" class="edge"><title>Node26&#45;&gt;Node18</title>
<path fill="none" stroke="midnightblue" d="M736.083,-168.083C728.22,-160.22 716.569,-148.569 707.081,-139.081"/>
<polygon fill="midnightblue" stroke="midnightblue" points="709.297,-136.347 699.751,-131.751 704.347,-141.297 709.297,-136.347"/>
</g>
<!-- Node27 -->
<g id="node27" class="node"><title>Node27</title>
<polygon fill="white" stroke="#bfbfbf" points="751,-112.5 751,-131.5 807,-131.5 807,-112.5 751,-112.5"/>
<text text-anchor="middle" x="779" y="-119.5" font-family="FreeSans" font-size="10.00">sstream</text>
</g>
<!-- Node26&#45;&gt;Node27 -->
<g id="edge35" class="edge"><title>Node26&#45;&gt;Node27</title>
<path fill="none" stroke="midnightblue" d="M750.614,-168.083C755.367,-160.534 762.318,-149.495 768.152,-140.23"/>
<polygon fill="midnightblue" stroke="midnightblue" points="771.124,-142.078 773.49,-131.751 765.2,-138.349 771.124,-142.078"/>
</g>
<!-- Node28 -->
<g id="node28" class="node"><title>Node28</title>
<polygon fill="white" stroke="#bfbfbf" points="825,-112.5 825,-131.5 863,-131.5 863,-112.5 825,-112.5"/>
<text text-anchor="middle" x="844" y="-119.5" font-family="FreeSans" font-size="10.00">map</text>
</g>
<!-- Node26&#45;&gt;Node28 -->
<g id="edge36" class="edge"><title>Node26&#45;&gt;Node28</title>
<path fill="none" stroke="midnightblue" d="M760.906,-168.324C776.638,-159.743 800.942,-146.486 819.209,-136.522"/>
<polygon fill="midnightblue" stroke="midnightblue" points="821.03,-139.516 828.133,-131.655 817.678,-133.37 821.03,-139.516"/>
</g>
<!-- Node29&#45;&gt;Node5 -->
<g id="edge39" class="edge"><title>Node29&#45;&gt;Node5</title>
<path fill="none" stroke="midnightblue" d="M730.083,-280.083C722.22,-272.22 710.569,-260.569 701.081,-251.081"/>
<polygon fill="midnightblue" stroke="midnightblue" points="703.297,-248.347 693.751,-243.751 698.347,-253.297 703.297,-248.347"/>
</g>
<!-- Node30&#45;&gt;Node5 -->
<g id="edge41" class="edge"><title>Node30&#45;&gt;Node5</title>
<path fill="none" stroke="midnightblue" d="M1022.28,-284.627C956.76,-274.987 799.843,-251.898 725.447,-240.951"/>
<polygon fill="midnightblue" stroke="midnightblue" points="725.918,-237.483 715.515,-239.49 724.899,-244.409 725.918,-237.483"/>
</g>
<!-- Node30&#45;&gt;Node24 -->
<g id="edge42" class="edge"><title>Node30&#45;&gt;Node24</title>
<path fill="none" stroke="midnightblue" d="M1052,-280.297C1052,-247.633 1052,-131.866 1052,-85.9573"/>
<polygon fill="midnightblue" stroke="midnightblue" points="1055.5,-85.8837 1052,-75.8837 1048.5,-85.8838 1055.5,-85.8837"/>
</g>
<!-- Node31&#45;&gt;Node5 -->
<g id="edge44" class="edge"><title>Node31&#45;&gt;Node5</title>
<path fill="none" stroke="midnightblue" d="M804.5,-280.444C780.923,-271.478 743.678,-257.314 717.036,-247.183"/>
<polygon fill="midnightblue" stroke="midnightblue" points="717.986,-243.8 707.395,-243.516 715.498,-250.342 717.986,-243.8"/>
</g>
<!-- Node32&#45;&gt;Node5 -->
<g id="edge47" class="edge"><title>Node32&#45;&gt;Node5</title>
<path fill="none" stroke="midnightblue" d="M886.971,-280.444C842.95,-270.539 770.736,-254.291 725.636,-244.143"/>
<polygon fill="midnightblue" stroke="midnightblue" points="726.141,-240.669 715.616,-241.889 724.604,-247.498 726.141,-240.669"/>
</g>
<!-- Node33&#45;&gt;Node7 -->
<g id="edge52" class="edge"><title>Node33&#45;&gt;Node7</title>
<path fill="none" stroke="midnightblue" d="M1184.21,-280.358C1169.18,-272.823 1149.08,-260.508 1137,-244 1119.22,-219.713 1118,-209.098 1118,-179 1118,-179 1118,-179 1118,-121 1118,-90.7745 1121.98,-74.395 1098,-56 1054.24,-22.4377 160.548,-28.106 106,-20 105.396,-19.9102 104.787,-19.8138 104.175,-19.7112"/>
<polygon fill="midnightblue" stroke="midnightblue" points="104.668,-16.2389 94.1646,-17.6244 103.24,-23.0916 104.668,-16.2389"/>
</g>
<!-- Node34 -->
<g id="node34" class="node"><title>Node34</title>
<polygon fill="white" stroke="#bfbfbf" points="1146,-224.5 1146,-243.5 1194,-243.5 1194,-224.5 1146,-224.5"/>
<text text-anchor="middle" x="1170" y="-231.5" font-family="FreeSans" font-size="10.00">cctype</text>
</g>
<!-- Node33&#45;&gt;Node34 -->
<g id="edge50" class="edge"><title>Node33&#45;&gt;Node34</title>
<path fill="none" stroke="midnightblue" d="M1198.39,-280.083C1193.63,-272.534 1186.68,-261.495 1180.85,-252.23"/>
<polygon fill="midnightblue" stroke="midnightblue" points="1183.8,-250.349 1175.51,-243.751 1177.88,-254.078 1183.8,-250.349"/>
</g>
<!-- Node35 -->
<g id="node35" class="node"><title>Node35</title>
<polygon fill="white" stroke="#bfbfbf" points="1243.5,-168.5 1243.5,-187.5 1292.5,-187.5 1292.5,-168.5 1243.5,-168.5"/>
<text text-anchor="middle" x="1268" y="-175.5" font-family="FreeSans" font-size="10.00">cstring</text>
</g>
<!-- Node33&#45;&gt;Node35 -->
<g id="edge51" class="edge"><title>Node33&#45;&gt;Node35</title>
<path fill="none" stroke="midnightblue" d="M1208.96,-280.132C1216,-267.585 1229.34,-243.954 1241,-224 1246.35,-214.841 1252.42,-204.705 1257.45,-196.374"/>
<polygon fill="midnightblue" stroke="midnightblue" points="1260.58,-197.959 1262.77,-187.592 1254.59,-194.334 1260.58,-197.959"/>
</g>
<!-- Node36 -->
<g id="node36" class="node"><title>Node36</title>
<polygon fill="white" stroke="#bfbfbf" points="1250,-224.5 1250,-243.5 1312,-243.5 1312,-224.5 1250,-224.5"/>
<text text-anchor="middle" x="1281" y="-231.5" font-family="FreeSans" font-size="10.00">algorithm</text>
</g>
<!-- Node33&#45;&gt;Node36 -->
<g id="edge53" class="edge"><title>Node33&#45;&gt;Node36</title>
<path fill="none" stroke="midnightblue" d="M1216.37,-280.324C1228.16,-272.058 1246.13,-259.453 1260.14,-249.632"/>
<polygon fill="midnightblue" stroke="midnightblue" points="1262.48,-252.262 1268.66,-243.655 1258.46,-246.531 1262.48,-252.262"/>
</g>
<!-- Node37 -->
<g id="node37" class="node"><title>Node37</title>
<g id="a_node37"><a xlink:href="utf8stream_8hpp.html" target="_top" xlink:title="utf8stream.hpp">
<polygon fill="white" stroke="black" points="1330.5,-224.5 1330.5,-243.5 1421.5,-243.5 1421.5,-224.5 1330.5,-224.5"/>
<text text-anchor="middle" x="1376" y="-231.5" font-family="FreeSans" font-size="10.00">utf8stream.hpp</text>
</a>
</g>
</g>
<!-- Node33&#45;&gt;Node37 -->
<g id="edge54" class="edge"><title>Node33&#45;&gt;Node37</title>
<path fill="none" stroke="midnightblue" d="M1231.25,-280.444C1260.44,-271.28 1306.92,-256.688 1339.31,-246.519"/>
<polygon fill="midnightblue" stroke="midnightblue" points="1340.38,-249.851 1348.87,-243.516 1338.28,-243.173 1340.38,-249.851"/>
</g>
<!-- Node37&#45;&gt;Node35 -->
<g id="edge55" class="edge"><title>Node37&#45;&gt;Node35</title>
<path fill="none" stroke="midnightblue" d="M1358.65,-224.324C1341.33,-215.664 1314.48,-202.242 1294.5,-192.249"/>
<polygon fill="midnightblue" stroke="midnightblue" points="1295.82,-188.996 1285.31,-187.655 1292.69,-195.257 1295.82,-188.996"/>
</g>
<!-- Node38 -->
<g id="node38" class="node"><title>Node38</title>
<polygon fill="white" stroke="#bfbfbf" points="1355.5,-168.5 1355.5,-187.5 1396.5,-187.5 1396.5,-168.5 1355.5,-168.5"/>
<text text-anchor="middle" x="1376" y="-175.5" font-family="FreeSans" font-size="10.00">tuple</text>
</g>
<!-- Node37&#45;&gt;Node38 -->
<g id="edge56" class="edge"><title>Node37&#45;&gt;Node38</title>
<path fill="none" stroke="midnightblue" d="M1376,-224.083C1376,-217.006 1376,-206.861 1376,-197.986"/>
<polygon fill="midnightblue" stroke="midnightblue" points="1379.5,-197.751 1376,-187.751 1372.5,-197.751 1379.5,-197.751"/>
</g>
</g>
</svg>
