<?xml version="1.0" encoding="UTF-8" standalone="no"?>
<!DOCTYPE svg PUBLIC "-//W3C//DTD SVG 1.1//EN"
 "http://www.w3.org/Graphics/SVG/1.1/DTD/svg11.dtd">
<!-- Generated by graphviz version 2.36.0 (20140111.2315)
 -->
<!-- Title: /home/travis/build/OpenMW/openmw/apps/openmw/mwrender/effectmanager.hpp Pages: 1 -->
<svg width="331pt" height="106pt"
 viewBox="0.00 0.00 331.00 106.00" xmlns="http://www.w3.org/2000/svg" xmlns:xlink="http://www.w3.org/1999/xlink">
<g id="graph0" class="graph" transform="scale(1 1) rotate(0) translate(4 102)">
<title>/home/travis/build/OpenMW/openmw/apps/openmw/mwrender/effectmanager.hpp</title>
<polygon fill="white" stroke="none" points="-4,4 -4,-102 327,-102 327,4 -4,4"/>
<!-- Node1 -->
<g id="node1" class="node"><title>Node1</title>
<polygon fill="#bfbfbf" stroke="black" points="13.5,-56.5 13.5,-97.5 218.5,-97.5 218.5,-56.5 13.5,-56.5"/>
<text text-anchor="start" x="21.5" y="-85.5" font-family="FreeSans" font-size="10.00">/home/travis/build</text>
<text text-anchor="start" x="21.5" y="-74.5" font-family="FreeSans" font-size="10.00">/OpenMW/openmw/apps</text>
<text text-anchor="middle" x="116" y="-63.5" font-family="FreeSans" font-size="10.00">/openmw/mwrender/effectmanager.hpp</text>
</g>
<!-- Node2 -->
<g id="node2" class="node"><title>Node2</title>
<polygon fill="white" stroke="#bfbfbf" points="0,-0.5 0,-19.5 44,-19.5 44,-0.5 0,-0.5"/>
<text text-anchor="middle" x="22" y="-7.5" font-family="FreeSans" font-size="10.00">string</text>
</g>
<!-- Node1&#45;&gt;Node2 -->
<g id="edge1" class="edge"><title>Node1&#45;&gt;Node2</title>
<path fill="none" stroke="midnightblue" d="M87.7969,-56.4979C73.3849,-46.5321 56.1498,-34.6142 42.9351,-25.4764"/>
<polygon fill="midnightblue" stroke="midnightblue" points="44.7286,-22.4613 34.5128,-19.6525 40.7473,-28.2189 44.7286,-22.4613"/>
</g>
<!-- Node3 -->
<g id="node3" class="node"><title>Node3</title>
<polygon fill="white" stroke="#bfbfbf" points="62,-0.5 62,-19.5 100,-19.5 100,-0.5 62,-0.5"/>
<text text-anchor="middle" x="81" y="-7.5" font-family="FreeSans" font-size="10.00">map</text>
</g>
<!-- Node1&#45;&gt;Node3 -->
<g id="edge2" class="edge"><title>Node1&#45;&gt;Node3</title>
<path fill="none" stroke="midnightblue" d="M105.499,-56.4979C100.7,-47.5862 95.0611,-37.1135 90.4035,-28.4636"/>
<polygon fill="midnightblue" stroke="midnightblue" points="93.4817,-26.7978 85.659,-19.6525 87.3184,-30.1166 93.4817,-26.7978"/>
</g>
<!-- Node4 -->
<g id="node4" class="node"><title>Node4</title>
<polygon fill="white" stroke="#bfbfbf" points="118,-0.5 118,-19.5 186,-19.5 186,-0.5 118,-0.5"/>
<text text-anchor="middle" x="152" y="-7.5" font-family="FreeSans" font-size="10.00">osg/ref_ptr</text>
</g>
<!-- Node1&#45;&gt;Node4 -->
<g id="edge3" class="edge"><title>Node1&#45;&gt;Node4</title>
<path fill="none" stroke="midnightblue" d="M126.801,-56.4979C131.737,-47.5862 137.537,-37.1135 142.328,-28.4636"/>
<polygon fill="midnightblue" stroke="midnightblue" points="145.425,-30.0962 147.208,-19.6525 139.301,-26.7046 145.425,-30.0962"/>
</g>
<!-- Node5 -->
<g id="node5" class="node"><title>Node5</title>
<polygon fill="white" stroke="#bfbfbf" points="204.5,-0.5 204.5,-19.5 323.5,-19.5 323.5,-0.5 204.5,-0.5"/>
<text text-anchor="middle" x="264" y="-7.5" font-family="FreeSans" font-size="10.00">boost/shared_ptr.hpp</text>
</g>
<!-- Node1&#45;&gt;Node5 -->
<g id="edge4" class="edge"><title>Node1&#45;&gt;Node5</title>
<path fill="none" stroke="midnightblue" d="M160.405,-56.4979C184.514,-45.9093 213.642,-33.1169 234.863,-23.7968"/>
<polygon fill="midnightblue" stroke="midnightblue" points="236.55,-26.8783 244.299,-19.6525 233.736,-20.4692 236.55,-26.8783"/>
</g>
</g>
</svg>
