<?xml version="1.0" encoding="UTF-8" standalone="no"?>
<!DOCTYPE svg PUBLIC "-//W3C//DTD SVG 1.1//EN"
 "http://www.w3.org/Graphics/SVG/1.1/DTD/svg11.dtd">
<!-- Generated by graphviz version 2.36.0 (20140111.2315)
 -->
<!-- Title: printRaw Pages: 1 -->
<svg width="1142pt" height="542pt"
 viewBox="0.00 0.00 1142.00 541.50" xmlns="http://www.w3.org/2000/svg" xmlns:xlink="http://www.w3.org/1999/xlink">
<g id="graph0" class="graph" transform="scale(1 1) rotate(0) translate(4 537.503)">
<title>printRaw</title>
<polygon fill="white" stroke="none" points="-4,4 -4,-537.503 1138,-537.503 1138,4 -4,4"/>
<!-- Node1 -->
<g id="node1" class="node"><title>Node1</title>
<polygon fill="#bfbfbf" stroke="black" points="0,-189.5 0,-208.5 54,-208.5 54,-189.5 0,-189.5"/>
<text text-anchor="middle" x="27" y="-196.5" font-family="FreeSans" font-size="10.00">printRaw</text>
</g>
<!-- Node2 -->
<g id="node2" class="node"><title>Node2</title>
<g id="a_node2"><a xlink:href="classESM_1_1ESMReader.html#a2beb1e8a02dc264d71e38b296ee4bb71" target="_top" xlink:title="ESM::ESMReader::hasMoreRecs">
<polygon fill="white" stroke="black" points="287.5,-478.5 287.5,-497.5 444.5,-497.5 444.5,-478.5 287.5,-478.5"/>
<text text-anchor="middle" x="366" y="-485.5" font-family="FreeSans" font-size="10.00">ESM::ESMReader::hasMoreRecs</text>
</a>
</g>
</g>
<!-- Node1&#45;&gt;Node2 -->
<g id="edge1" class="edge"><title>Node1&#45;&gt;Node2</title>
<path fill="none" stroke="midnightblue" d="M29.2103,-208.508C34.4399,-248.091 56.3616,-399.219 90,-431 139.585,-477.847 217.107,-490.514 277.222,-492.368"/>
<polygon fill="midnightblue" stroke="midnightblue" points="277.399,-495.873 287.471,-492.586 277.548,-488.874 277.399,-495.873"/>
</g>
<!-- Node3 -->
<g id="node3" class="node"><title>Node3</title>
<g id="a_node3"><a xlink:href="classESM_1_1ESMReader.html#aede9520d4b492f05b2636d96dfeb80ff" target="_top" xlink:title="ESM::ESMReader::getRecName">
<polygon fill="white" stroke="black" points="92.5,-402.5 92.5,-421.5 247.5,-421.5 247.5,-402.5 92.5,-402.5"/>
<text text-anchor="middle" x="170" y="-409.5" font-family="FreeSans" font-size="10.00">ESM::ESMReader::getRecName</text>
</a>
</g>
</g>
<!-- Node1&#45;&gt;Node3 -->
<g id="edge2" class="edge"><title>Node1&#45;&gt;Node3</title>
<path fill="none" stroke="midnightblue" d="M32.3592,-208.774C41.7073,-229.346 64.8823,-278.317 90,-316 109.517,-345.281 136.215,-376.202 153.033,-394.798"/>
<polygon fill="midnightblue" stroke="midnightblue" points="150.673,-397.405 160.003,-402.425 155.841,-392.682 150.673,-397.405"/>
</g>
<!-- Node5 -->
<g id="node5" class="node"><title>Node5</title>
<g id="a_node5"><a xlink:href="classESM_1_1FIXED__STRING__BASE.html#ac6bed15d6c4aa261d961420d4af645c7" target="_top" xlink:title="ESM::FIXED_STRING_BASE\l::toString">
<polygon fill="white" stroke="black" points="990,-448 990,-478 1134,-478 1134,-448 990,-448"/>
<text text-anchor="start" x="998" y="-466" font-family="FreeSans" font-size="10.00">ESM::FIXED_STRING_BASE</text>
<text text-anchor="middle" x="1062" y="-455" font-family="FreeSans" font-size="10.00">::toString</text>
</a>
</g>
</g>
<!-- Node1&#45;&gt;Node5 -->
<g id="edge8" class="edge"><title>Node1&#45;&gt;Node5</title>
<path fill="none" stroke="midnightblue" d="M28.7902,-208.733C32.5941,-253.12 50.4827,-435.837 90,-474 179.475,-560.409 240.612,-526 365,-526 365,-526 365,-526 739,-526 833.487,-526 940.718,-499.55 1004.51,-480.927"/>
<polygon fill="midnightblue" stroke="midnightblue" points="1005.77,-484.204 1014.36,-478.01 1003.78,-477.491 1005.77,-484.204"/>
</g>
<!-- Node8 -->
<g id="node8" class="node"><title>Node8</title>
<g id="a_node8"><a xlink:href="classESM_1_1ESMReader.html#a64fb13c5a2e1e73a2bf5c89d67226721" target="_top" xlink:title="ESM::ESMReader::getRecHeader">
<polygon fill="white" stroke="black" points="90,-114.5 90,-133.5 250,-133.5 250,-114.5 90,-114.5"/>
<text text-anchor="middle" x="170" y="-121.5" font-family="FreeSans" font-size="10.00">ESM::ESMReader::getRecHeader</text>
</a>
</g>
</g>
<!-- Node1&#45;&gt;Node8 -->
<g id="edge9" class="edge"><title>Node1&#45;&gt;Node8</title>
<path fill="none" stroke="midnightblue" d="M45.9055,-189.467C58.2881,-182.875 75.1439,-173.903 90,-166 107.375,-156.757 126.903,-146.375 142.197,-138.246"/>
<polygon fill="midnightblue" stroke="midnightblue" points="143.927,-141.29 151.115,-133.506 140.642,-135.109 143.927,-141.29"/>
</g>
<!-- Node9 -->
<g id="node9" class="node"><title>Node9</title>
<g id="a_node9"><a xlink:href="classESM_1_1ESMReader.html#abfd3da13c7227ed9d445ceed1a70f874" target="_top" xlink:title="ESM::ESMReader::hasMoreSubs">
<polygon fill="white" stroke="black" points="91.5,-76.5 91.5,-95.5 248.5,-95.5 248.5,-76.5 91.5,-76.5"/>
<text text-anchor="middle" x="170" y="-83.5" font-family="FreeSans" font-size="10.00">ESM::ESMReader::hasMoreSubs</text>
</a>
</g>
</g>
<!-- Node1&#45;&gt;Node9 -->
<g id="edge11" class="edge"><title>Node1&#45;&gt;Node9</title>
<path fill="none" stroke="midnightblue" d="M31.5678,-189.262C39.1553,-169.976 58.7946,-126.897 90,-105 92.8579,-102.995 95.9016,-101.199 99.0685,-99.5924"/>
<polygon fill="midnightblue" stroke="midnightblue" points="100.525,-102.776 108.268,-95.5439 97.7048,-96.3686 100.525,-102.776"/>
</g>
<!-- Node10 -->
<g id="node10" class="node"><title>Node10</title>
<g id="a_node10"><a xlink:href="classESM_1_1ESMReader.html#a9e81c5238f123a9c0f554390d9677172" target="_top" xlink:title="Get the current position in the file. Make sure that the file has been opened! ">
<polygon fill="white" stroke="black" points="482,-151.5 482,-170.5 634,-170.5 634,-151.5 482,-151.5"/>
<text text-anchor="middle" x="558" y="-158.5" font-family="FreeSans" font-size="10.00">ESM::ESMReader::getFileOffset</text>
</a>
</g>
</g>
<!-- Node1&#45;&gt;Node10 -->
<g id="edge12" class="edge"><title>Node1&#45;&gt;Node10</title>
<path fill="none" stroke="midnightblue" d="M54.3679,-197.027C101.057,-193.542 201.333,-186.086 286,-180 348.204,-175.529 418.449,-170.608 471.833,-166.894"/>
<polygon fill="midnightblue" stroke="midnightblue" points="472.205,-170.377 481.938,-166.192 471.719,-163.394 472.205,-170.377"/>
</g>
<!-- Node11 -->
<g id="node11" class="node"><title>Node11</title>
<g id="a_node11"><a xlink:href="classESM_1_1ESMReader.html#aa47320943a7a01bccbec8bab921b0df7" target="_top" xlink:title="ESM::ESMReader::getSubName">
<polygon fill="white" stroke="black" points="92.5,-287.5 92.5,-306.5 247.5,-306.5 247.5,-287.5 92.5,-287.5"/>
<text text-anchor="middle" x="170" y="-294.5" font-family="FreeSans" font-size="10.00">ESM::ESMReader::getSubName</text>
</a>
</g>
</g>
<!-- Node1&#45;&gt;Node11 -->
<g id="edge13" class="edge"><title>Node1&#45;&gt;Node11</title>
<path fill="none" stroke="midnightblue" d="M41.7764,-208.575C66.1424,-225.51 117.046,-260.89 146.544,-281.393"/>
<polygon fill="midnightblue" stroke="midnightblue" points="144.75,-284.408 154.959,-287.241 148.745,-278.66 144.75,-284.408"/>
</g>
<!-- Node14 -->
<g id="node14" class="node"><title>Node14</title>
<g id="a_node14"><a xlink:href="classESM_1_1ESMReader.html#a1b4ca455240f53cfa6d49f9a4a084354" target="_top" xlink:title="ESM::ESMReader::skipHSub">
<polygon fill="white" stroke="black" points="100,-208.5 100,-227.5 240,-227.5 240,-208.5 100,-208.5"/>
<text text-anchor="middle" x="170" y="-215.5" font-family="FreeSans" font-size="10.00">ESM::ESMReader::skipHSub</text>
</a>
</g>
</g>
<!-- Node1&#45;&gt;Node14 -->
<g id="edge18" class="edge"><title>Node1&#45;&gt;Node14</title>
<path fill="none" stroke="midnightblue" d="M54.1906,-202.529C64.4338,-203.91 76.7756,-205.573 89.5154,-207.289"/>
<polygon fill="midnightblue" stroke="midnightblue" points="89.4073,-210.806 99.7852,-208.673 90.3422,-203.869 89.4073,-210.806"/>
</g>
<!-- Node18 -->
<g id="node18" class="node"><title>Node18</title>
<g id="a_node18"><a xlink:href="classESM_1_1ESMReader.html#afe83c43d1818dd2c3815307d97beae45" target="_top" xlink:title="ESM::ESMReader::retSubName">
<polygon fill="white" stroke="black" points="94,-38.5 94,-57.5 246,-57.5 246,-38.5 94,-38.5"/>
<text text-anchor="middle" x="170" y="-45.5" font-family="FreeSans" font-size="10.00">ESM::ESMReader::retSubName</text>
</a>
</g>
</g>
<!-- Node1&#45;&gt;Node18 -->
<g id="edge25" class="edge"><title>Node1&#45;&gt;Node18</title>
<path fill="none" stroke="midnightblue" d="M29.6113,-189.275C34.2123,-164.711 49.7675,-99.7917 90,-67 92.057,-65.3234 94.2384,-63.7906 96.5146,-62.3895"/>
<polygon fill="midnightblue" stroke="midnightblue" points="98.4444,-65.3311 105.703,-57.613 95.2156,-59.1202 98.4444,-65.3311"/>
</g>
<!-- Node19 -->
<g id="node19" class="node"><title>Node19</title>
<g id="a_node19"><a xlink:href="classESM_1_1ESMReader.html#aee231c113f51bd7c28f3b99067af626b" target="_top" xlink:title="ESM::ESMReader::getSubSize">
<polygon fill="white" stroke="black" points="96,-0.5 96,-19.5 244,-19.5 244,-0.5 96,-0.5"/>
<text text-anchor="middle" x="170" y="-7.5" font-family="FreeSans" font-size="10.00">ESM::ESMReader::getSubSize</text>
</a>
</g>
</g>
<!-- Node1&#45;&gt;Node19 -->
<g id="edge26" class="edge"><title>Node1&#45;&gt;Node19</title>
<path fill="none" stroke="midnightblue" d="M28.489,-189.179C30.4932,-160.003 40.541,-73.133 90,-29 91.7531,-27.4357 93.6125,-25.9945 95.557,-24.667"/>
<polygon fill="midnightblue" stroke="midnightblue" points="97.5991,-27.5321 104.561,-19.546 94.1385,-21.4473 97.5991,-27.5321"/>
</g>
<!-- Node3&#45;&gt;Node2 -->
<g id="edge3" class="edge"><title>Node3&#45;&gt;Node2</title>
<path fill="none" stroke="midnightblue" d="M190.211,-421.615C212.786,-432.695 251.546,-451.039 286,-464 296.999,-468.138 309.056,-472.087 320.364,-475.543"/>
<polygon fill="midnightblue" stroke="midnightblue" points="319.481,-478.932 330.064,-478.447 321.488,-472.226 319.481,-478.932"/>
</g>
<!-- Node4 -->
<g id="node4" class="node"><title>Node4</title>
<g id="a_node4"><a xlink:href="classESM_1_1ESMReader.html#a641a33a8cba2fc61d6431505391c5975" target="_top" xlink:title="Used for error handling. ">
<polygon fill="white" stroke="black" points="842.5,-328.5 842.5,-347.5 953.5,-347.5 953.5,-328.5 842.5,-328.5"/>
<text text-anchor="middle" x="898" y="-335.5" font-family="FreeSans" font-size="10.00">ESM::ESMReader::fail</text>
</a>
</g>
</g>
<!-- Node3&#45;&gt;Node4 -->
<g id="edge4" class="edge"><title>Node3&#45;&gt;Node4</title>
<path fill="none" stroke="midnightblue" d="M217.784,-421.513C238.576,-425.278 263.412,-429.147 286,-431 356.873,-436.815 375.256,-438.218 446,-431 597.398,-415.553 773.009,-371.656 853.112,-350.161"/>
<polygon fill="midnightblue" stroke="midnightblue" points="854.115,-353.516 862.857,-347.53 852.29,-346.758 854.115,-353.516"/>
</g>
<!-- Node6 -->
<g id="node6" class="node"><title>Node6</title>
<g id="a_node6"><a xlink:href="classESM_1_1ESMReader.html#a3446177572508dd219cb3a0bf6e95c2b" target="_top" xlink:title="ESM::ESMReader::getName">
<polygon fill="white" stroke="black" points="297.5,-402.5 297.5,-421.5 434.5,-421.5 434.5,-402.5 297.5,-402.5"/>
<text text-anchor="middle" x="366" y="-409.5" font-family="FreeSans" font-size="10.00">ESM::ESMReader::getName</text>
</a>
</g>
</g>
<!-- Node3&#45;&gt;Node6 -->
<g id="edge6" class="edge"><title>Node3&#45;&gt;Node6</title>
<path fill="none" stroke="midnightblue" d="M247.674,-412C260.627,-412 274.087,-412 287.072,-412"/>
<polygon fill="midnightblue" stroke="midnightblue" points="287.365,-415.5 297.365,-412 287.365,-408.5 287.365,-415.5"/>
</g>
<!-- Node7 -->
<g id="node7" class="node"><title>Node7</title>
<g id="a_node7"><a xlink:href="classESM_1_1FIXED__STRING__BASE.html#ab142a6277b602eba117776eb8e4c508c" target="_top" xlink:title="ESM::FIXED_STRING_BASE\l::data_size">
<polygon fill="white" stroke="black" points="294,-353 294,-383 438,-383 438,-353 294,-353"/>
<text text-anchor="start" x="302" y="-371" font-family="FreeSans" font-size="10.00">ESM::FIXED_STRING_BASE</text>
<text text-anchor="middle" x="366" y="-360" font-family="FreeSans" font-size="10.00">::data_size</text>
</a>
</g>
</g>
<!-- Node3&#45;&gt;Node7 -->
<g id="edge7" class="edge"><title>Node3&#45;&gt;Node7</title>
<path fill="none" stroke="midnightblue" d="M213.095,-402.453C235.23,-397.432 263.052,-391.122 288.817,-385.279"/>
<polygon fill="midnightblue" stroke="midnightblue" points="289.597,-388.691 298.575,-383.065 288.049,-381.864 289.597,-388.691"/>
</g>
<!-- Node4&#45;&gt;Node5 -->
<g id="edge5" class="edge"><title>Node4&#45;&gt;Node5</title>
<path fill="none" stroke="midnightblue" d="M911.443,-347.601C937.37,-367.607 997.722,-414.174 1033.33,-441.649"/>
<polygon fill="midnightblue" stroke="midnightblue" points="1031.33,-444.527 1041.38,-447.865 1035.61,-438.985 1031.33,-444.527"/>
</g>
<!-- Node8&#45;&gt;Node8 -->
<g id="edge10" class="edge"><title>Node8&#45;&gt;Node8</title>
<path fill="none" stroke="midnightblue" d="M148.114,-133.757C137.466,-142.565 144.762,-152 170,-152 186.563,-152 195.398,-147.937 196.506,-142.654"/>
<polygon fill="midnightblue" stroke="midnightblue" points="199.601,-141.019 191.886,-133.757 193.388,-144.245 199.601,-141.019"/>
</g>
<!-- Node11&#45;&gt;Node7 -->
<g id="edge14" class="edge"><title>Node11&#45;&gt;Node7</title>
<path fill="none" stroke="midnightblue" d="M193.72,-306.666C216.782,-316.341 253.605,-331.413 286,-343 292.371,-345.279 299.067,-347.564 305.754,-349.776"/>
<polygon fill="midnightblue" stroke="midnightblue" points="304.913,-353.183 315.506,-352.956 307.084,-346.528 304.913,-353.183"/>
</g>
<!-- Node12 -->
<g id="node12" class="node"><title>Node12</title>
<g id="a_node12"><a xlink:href="classESM_1_1ESMReader.html#a623f3d4d7107adf94aeb7c234d01bc9e" target="_top" xlink:title="ESM::ESMReader::getExact">
<polygon fill="white" stroke="black" points="670,-265.5 670,-284.5 806,-284.5 806,-265.5 670,-265.5"/>
<text text-anchor="middle" x="738" y="-272.5" font-family="FreeSans" font-size="10.00">ESM::ESMReader::getExact</text>
</a>
</g>
</g>
<!-- Node11&#45;&gt;Node12 -->
<g id="edge15" class="edge"><title>Node11&#45;&gt;Node12</title>
<path fill="none" stroke="midnightblue" d="M247.628,-294.022C355.584,-289.825 551.342,-282.216 659.675,-278.006"/>
<polygon fill="midnightblue" stroke="midnightblue" points="660.023,-281.495 669.88,-277.609 659.751,-274.5 660.023,-281.495"/>
</g>
<!-- Node13 -->
<g id="node13" class="node"><title>Node13</title>
<g id="a_node13"><a xlink:href="structESM_1_1FIXED__STRING_3_014_01_4.html#a71af1f5e0756f2fa5b587bda6fc64ec3" target="_top" xlink:title="ESM::FIXED_STRING\&lt;\l 4 \&gt;::rw_data">
<polygon fill="white" stroke="black" points="306.5,-304 306.5,-334 425.5,-334 425.5,-304 306.5,-304"/>
<text text-anchor="start" x="314.5" y="-322" font-family="FreeSans" font-size="10.00">ESM::FIXED_STRING&lt;</text>
<text text-anchor="middle" x="366" y="-311" font-family="FreeSans" font-size="10.00"> 4 &gt;::rw_data</text>
</a>
</g>
</g>
<!-- Node11&#45;&gt;Node13 -->
<g id="edge17" class="edge"><title>Node11&#45;&gt;Node13</title>
<path fill="none" stroke="midnightblue" d="M247.674,-305.695C263.66,-307.508 280.417,-309.408 296.101,-311.187"/>
<polygon fill="midnightblue" stroke="midnightblue" points="295.903,-314.687 306.234,-312.336 296.692,-307.731 295.903,-314.687"/>
</g>
<!-- Node12&#45;&gt;Node4 -->
<g id="edge16" class="edge"><title>Node12&#45;&gt;Node4</title>
<path fill="none" stroke="midnightblue" d="M762.997,-284.568C789.755,-295.238 833.227,-312.572 863.369,-324.59"/>
<polygon fill="midnightblue" stroke="midnightblue" points="862.452,-327.992 873.037,-328.445 865.044,-321.49 862.452,-327.992"/>
</g>
<!-- Node15 -->
<g id="node15" class="node"><title>Node15</title>
<g id="a_node15"><a xlink:href="classESM_1_1ESMReader.html#a365650896a89c3dcb43b2f240e6d5653" target="_top" xlink:title="ESM::ESMReader::getSubHeader">
<polygon fill="white" stroke="black" points="286,-227.5 286,-246.5 446,-246.5 446,-227.5 286,-227.5"/>
<text text-anchor="middle" x="366" y="-234.5" font-family="FreeSans" font-size="10.00">ESM::ESMReader::getSubHeader</text>
</a>
</g>
</g>
<!-- Node14&#45;&gt;Node15 -->
<g id="edge19" class="edge"><title>Node14&#45;&gt;Node15</title>
<path fill="none" stroke="midnightblue" d="M240.217,-224.779C251.779,-225.911 263.915,-227.1 275.891,-228.273"/>
<polygon fill="midnightblue" stroke="midnightblue" points="275.602,-231.761 285.896,-229.253 276.285,-224.795 275.602,-231.761"/>
</g>
<!-- Node17 -->
<g id="node17" class="node"><title>Node17</title>
<g id="a_node17"><a xlink:href="classESM_1_1ESMReader.html#aabf8a943cb8d5ff5a2656333ff02b660" target="_top" xlink:title="ESM::ESMReader::skip">
<polygon fill="white" stroke="black" points="308,-189.5 308,-208.5 424,-208.5 424,-189.5 308,-189.5"/>
<text text-anchor="middle" x="366" y="-196.5" font-family="FreeSans" font-size="10.00">ESM::ESMReader::skip</text>
</a>
</g>
</g>
<!-- Node14&#45;&gt;Node17 -->
<g id="edge23" class="edge"><title>Node14&#45;&gt;Node17</title>
<path fill="none" stroke="midnightblue" d="M240.217,-211.221C258.947,-209.387 279.186,-207.404 297.803,-205.581"/>
<polygon fill="midnightblue" stroke="midnightblue" points="298.348,-209.045 307.959,-204.586 297.666,-202.078 298.348,-209.045"/>
</g>
<!-- Node15&#45;&gt;Node4 -->
<g id="edge20" class="edge"><title>Node15&#45;&gt;Node4</title>
<path fill="none" stroke="midnightblue" d="M410.854,-227.459C493.476,-211.851 675.604,-188.87 806,-256 837.318,-272.123 866.204,-301.709 882.695,-320.587"/>
<polygon fill="midnightblue" stroke="midnightblue" points="880.217,-323.075 889.364,-328.421 885.547,-318.538 880.217,-323.075"/>
</g>
<!-- Node16 -->
<g id="node16" class="node"><title>Node16</title>
<g id="a_node16"><a xlink:href="classESM_1_1ESMReader.html#a04b4761b24d98c455289c437d28baea8" target="_top" xlink:title="ESM::ESMReader::getT">
<polygon fill="white" stroke="black" points="499,-227.5 499,-246.5 617,-246.5 617,-227.5 499,-227.5"/>
<text text-anchor="middle" x="558" y="-234.5" font-family="FreeSans" font-size="10.00">ESM::ESMReader::getT</text>
</a>
</g>
</g>
<!-- Node15&#45;&gt;Node16 -->
<g id="edge21" class="edge"><title>Node15&#45;&gt;Node16</title>
<path fill="none" stroke="midnightblue" d="M446.201,-237C460.239,-237 474.75,-237 488.461,-237"/>
<polygon fill="midnightblue" stroke="midnightblue" points="488.77,-240.5 498.77,-237 488.77,-233.5 488.77,-240.5"/>
</g>
<!-- Node16&#45;&gt;Node12 -->
<g id="edge22" class="edge"><title>Node16&#45;&gt;Node12</title>
<path fill="none" stroke="midnightblue" d="M603.917,-246.589C627.829,-251.694 657.421,-258.011 682.625,-263.392"/>
<polygon fill="midnightblue" stroke="midnightblue" points="681.896,-266.815 692.406,-265.48 683.357,-259.969 681.896,-266.815"/>
</g>
<!-- Node17&#45;&gt;Node10 -->
<g id="edge24" class="edge"><title>Node17&#45;&gt;Node10</title>
<path fill="none" stroke="midnightblue" d="M414.945,-189.411C440.582,-184.284 472.336,-177.933 499.316,-172.537"/>
<polygon fill="midnightblue" stroke="midnightblue" points="500.28,-175.913 509.4,-170.52 498.908,-169.049 500.28,-175.913"/>
</g>
</g>
</svg>
