<?xml version="1.0" encoding="UTF-8" standalone="no"?>
<!DOCTYPE svg PUBLIC "-//W3C//DTD SVG 1.1//EN"
 "http://www.w3.org/Graphics/SVG/1.1/DTD/svg11.dtd">
<!-- Generated by graphviz version 2.36.0 (20140111.2315)
 -->
<!-- Title: /home/travis/build/elsid/openmw/apps/wizard/existinginstallationpage.cpp Pages: 1 -->
<svg width="1752pt" height="454pt"
 viewBox="0.00 0.00 1752.00 454.00" xmlns="http://www.w3.org/2000/svg" xmlns:xlink="http://www.w3.org/1999/xlink">
<g id="graph0" class="graph" transform="scale(1 1) rotate(0) translate(4 450)">
<title>/home/travis/build/elsid/openmw/apps/wizard/existinginstallationpage.cpp</title>
<polygon fill="white" stroke="none" points="-4,4 -4,-450 1748,-450 1748,4 -4,4"/>
<!-- Node1 -->
<g id="node1" class="node"><title>Node1</title>
<polygon fill="#bfbfbf" stroke="black" points="335,-404.5 335,-445.5 487,-445.5 487,-404.5 335,-404.5"/>
<text text-anchor="start" x="343" y="-433.5" font-family="FreeSans" font-size="10.00">/home/travis/build</text>
<text text-anchor="start" x="343" y="-422.5" font-family="FreeSans" font-size="10.00">/elsid/openmw/apps/wizard</text>
<text text-anchor="middle" x="411" y="-411.5" font-family="FreeSans" font-size="10.00">/existinginstallationpage.cpp</text>
</g>
<!-- Node2 -->
<g id="node2" class="node"><title>Node2</title>
<g id="a_node2"><a xlink:href="existinginstallationpage_8hpp.html" target="_top" xlink:title="existinginstallationpage.hpp">
<polygon fill="white" stroke="black" points="31,-348.5 31,-367.5 181,-367.5 181,-348.5 31,-348.5"/>
<text text-anchor="middle" x="106" y="-355.5" font-family="FreeSans" font-size="10.00">existinginstallationpage.hpp</text>
</a>
</g>
</g>
<!-- Node1&#45;&gt;Node2 -->
<g id="edge1" class="edge"><title>Node1&#45;&gt;Node2</title>
<path fill="none" stroke="midnightblue" d="M334.822,-407.765C278.98,-395.865 204.742,-380.043 156.188,-369.696"/>
<polygon fill="midnightblue" stroke="midnightblue" points="156.742,-366.235 146.232,-367.574 155.283,-373.082 156.742,-366.235"/>
</g>
<!-- Node5 -->
<g id="node5" class="node"><title>Node5</title>
<polygon fill="white" stroke="#bfbfbf" points="199,-348.5 199,-367.5 255,-367.5 255,-348.5 199,-348.5"/>
<text text-anchor="middle" x="227" y="-355.5" font-family="FreeSans" font-size="10.00">QDebug</text>
</g>
<!-- Node1&#45;&gt;Node5 -->
<g id="edge4" class="edge"><title>Node1&#45;&gt;Node5</title>
<path fill="none" stroke="midnightblue" d="M355.794,-404.498C325.006,-393.622 287.637,-380.421 261.098,-371.045"/>
<polygon fill="midnightblue" stroke="midnightblue" points="262.088,-367.683 251.493,-367.652 259.756,-374.284 262.088,-367.683"/>
</g>
<!-- Node6 -->
<g id="node6" class="node"><title>Node6</title>
<polygon fill="white" stroke="#bfbfbf" points="273.5,-348.5 273.5,-367.5 358.5,-367.5 358.5,-348.5 273.5,-348.5"/>
<text text-anchor="middle" x="316" y="-355.5" font-family="FreeSans" font-size="10.00">QMessageBox</text>
</g>
<!-- Node1&#45;&gt;Node6 -->
<g id="edge5" class="edge"><title>Node1&#45;&gt;Node6</title>
<path fill="none" stroke="midnightblue" d="M382.497,-404.498C367.932,-394.532 350.513,-382.614 337.158,-373.476"/>
<polygon fill="midnightblue" stroke="midnightblue" points="338.875,-370.411 328.646,-367.652 334.923,-376.188 338.875,-370.411"/>
</g>
<!-- Node7 -->
<g id="node7" class="node"><title>Node7</title>
<polygon fill="white" stroke="#bfbfbf" points="376.5,-348.5 376.5,-367.5 445.5,-367.5 445.5,-348.5 376.5,-348.5"/>
<text text-anchor="middle" x="411" y="-355.5" font-family="FreeSans" font-size="10.00">QFileDialog</text>
</g>
<!-- Node1&#45;&gt;Node7 -->
<g id="edge6" class="edge"><title>Node1&#45;&gt;Node7</title>
<path fill="none" stroke="midnightblue" d="M411,-404.498C411,-396.065 411,-386.235 411,-377.874"/>
<polygon fill="midnightblue" stroke="midnightblue" points="414.5,-377.652 411,-367.652 407.5,-377.653 414.5,-377.652"/>
</g>
<!-- Node8 -->
<g id="node8" class="node"><title>Node8</title>
<polygon fill="white" stroke="#bfbfbf" points="464,-348.5 464,-367.5 520,-367.5 520,-348.5 464,-348.5"/>
<text text-anchor="middle" x="492" y="-355.5" font-family="FreeSans" font-size="10.00">QFileInfo</text>
</g>
<!-- Node1&#45;&gt;Node8 -->
<g id="edge7" class="edge"><title>Node1&#45;&gt;Node8</title>
<path fill="none" stroke="midnightblue" d="M435.303,-404.498C447.483,-394.724 462.003,-383.072 473.299,-374.007"/>
<polygon fill="midnightblue" stroke="midnightblue" points="475.609,-376.641 481.218,-367.652 471.228,-371.181 475.609,-376.641"/>
</g>
<!-- Node9 -->
<g id="node9" class="node"><title>Node9</title>
<polygon fill="white" stroke="#bfbfbf" points="584.5,-168.5 584.5,-187.5 623.5,-187.5 623.5,-168.5 584.5,-168.5"/>
<text text-anchor="middle" x="604" y="-175.5" font-family="FreeSans" font-size="10.00">QFile</text>
</g>
<!-- Node1&#45;&gt;Node9 -->
<g id="edge8" class="edge"><title>Node1&#45;&gt;Node9</title>
<path fill="none" stroke="midnightblue" d="M473.043,-404.465C492.64,-395.831 513.057,-383.933 528,-368 575.14,-317.739 594.548,-234.501 601.131,-197.6"/>
<polygon fill="midnightblue" stroke="midnightblue" points="604.586,-198.163 602.779,-187.723 597.681,-197.011 604.586,-198.163"/>
</g>
<!-- Node10 -->
<g id="node10" class="node"><title>Node10</title>
<g id="a_node10"><a xlink:href="mainwizard_8hpp.html" target="_top" xlink:title="mainwizard.hpp">
<polygon fill="white" stroke="black" points="854,-348.5 854,-367.5 946,-367.5 946,-348.5 854,-348.5"/>
<text text-anchor="middle" x="900" y="-355.5" font-family="FreeSans" font-size="10.00">mainwizard.hpp</text>
</a>
</g>
</g>
<!-- Node1&#45;&gt;Node10 -->
<g id="edge9" class="edge"><title>Node1&#45;&gt;Node10</title>
<path fill="none" stroke="midnightblue" d="M487.138,-413.879C585.906,-400.751 755.927,-378.151 843.79,-366.472"/>
<polygon fill="midnightblue" stroke="midnightblue" points="844.379,-369.924 853.83,-365.137 843.456,-362.985 844.379,-369.924"/>
</g>
<!-- Node3 -->
<g id="node3" class="node"><title>Node3</title>
<polygon fill="white" stroke="#bfbfbf" points="-0.5,-286.5 -0.5,-305.5 78.5,-305.5 78.5,-286.5 -0.5,-286.5"/>
<text text-anchor="middle" x="39" y="-293.5" font-family="FreeSans" font-size="10.00">QWizardPage</text>
</g>
<!-- Node2&#45;&gt;Node3 -->
<g id="edge2" class="edge"><title>Node2&#45;&gt;Node3</title>
<path fill="none" stroke="midnightblue" d="M96.4005,-348.403C85.9525,-339.047 69.0325,-323.895 56.2635,-312.46"/>
<polygon fill="midnightblue" stroke="midnightblue" points="58.3661,-309.644 48.5817,-305.581 53.6963,-314.859 58.3661,-309.644"/>
</g>
<!-- Node4 -->
<g id="node4" class="node"><title>Node4</title>
<polygon fill="white" stroke="#bfbfbf" points="97,-286.5 97,-305.5 249,-305.5 249,-286.5 97,-286.5"/>
<text text-anchor="middle" x="173" y="-293.5" font-family="FreeSans" font-size="10.00">ui_existinginstallationpage.h</text>
</g>
<!-- Node2&#45;&gt;Node4 -->
<g id="edge3" class="edge"><title>Node2&#45;&gt;Node4</title>
<path fill="none" stroke="midnightblue" d="M115.599,-348.403C126.048,-339.047 142.968,-323.895 155.736,-312.46"/>
<polygon fill="midnightblue" stroke="midnightblue" points="158.304,-314.859 163.418,-305.581 153.634,-309.644 158.304,-314.859"/>
</g>
<!-- Node11 -->
<g id="node11" class="node"><title>Node11</title>
<polygon fill="white" stroke="#bfbfbf" points="1069,-224.5 1069,-243.5 1131,-243.5 1131,-224.5 1069,-224.5"/>
<text text-anchor="middle" x="1100" y="-231.5" font-family="FreeSans" font-size="10.00">QProcess</text>
</g>
<!-- Node10&#45;&gt;Node11 -->
<g id="edge10" class="edge"><title>Node10&#45;&gt;Node11</title>
<path fill="none" stroke="midnightblue" d="M946.356,-351.101C993.829,-344.119 1063.25,-330.993 1082,-312 1097.19,-296.614 1100.5,-271.014 1100.8,-253.592"/>
<polygon fill="midnightblue" stroke="midnightblue" points="1104.3,-253.463 1100.66,-243.514 1097.3,-253.563 1104.3,-253.463"/>
</g>
<!-- Node12 -->
<g id="node12" class="node"><title>Node12</title>
<polygon fill="white" stroke="#bfbfbf" points="844,-286.5 844,-305.5 900,-305.5 900,-286.5 844,-286.5"/>
<text text-anchor="middle" x="872" y="-293.5" font-family="FreeSans" font-size="10.00">QWizard</text>
</g>
<!-- Node10&#45;&gt;Node12 -->
<g id="edge11" class="edge"><title>Node10&#45;&gt;Node12</title>
<path fill="none" stroke="midnightblue" d="M895.988,-348.403C891.913,-339.671 885.482,-325.889 880.304,-314.794"/>
<polygon fill="midnightblue" stroke="midnightblue" points="883.405,-313.162 876.004,-305.581 877.062,-316.123 883.405,-313.162"/>
</g>
<!-- Node13 -->
<g id="node13" class="node"><title>Node13</title>
<polygon fill="white" stroke="#bfbfbf" points="718,-168.5 718,-187.5 762,-187.5 762,-168.5 718,-168.5"/>
<text text-anchor="middle" x="740" y="-175.5" font-family="FreeSans" font-size="10.00">QMap</text>
</g>
<!-- Node10&#45;&gt;Node13 -->
<g id="edge12" class="edge"><title>Node10&#45;&gt;Node13</title>
<path fill="none" stroke="midnightblue" d="M903.863,-348.331C909.885,-333.433 919.669,-302.411 908,-280 897.978,-260.752 846.594,-235.189 828,-224 808.4,-212.205 785.349,-200.492 767.757,-191.973"/>
<polygon fill="midnightblue" stroke="midnightblue" points="769.133,-188.751 758.602,-187.589 766.109,-195.065 769.133,-188.751"/>
</g>
<!-- Node14 -->
<g id="node14" class="node"><title>Node14</title>
<g id="a_node14"><a xlink:href="processinvoker_8hpp.html" target="_top" xlink:title="components/process\l/processinvoker.hpp">
<polygon fill="white" stroke="black" points="956.5,-281 956.5,-311 1073.5,-311 1073.5,-281 956.5,-281"/>
<text text-anchor="start" x="964.5" y="-299" font-family="FreeSans" font-size="10.00">components/process</text>
<text text-anchor="middle" x="1015" y="-288" font-family="FreeSans" font-size="10.00">/processinvoker.hpp</text>
</a>
</g>
</g>
<!-- Node10&#45;&gt;Node14 -->
<g id="edge13" class="edge"><title>Node10&#45;&gt;Node14</title>
<path fill="none" stroke="midnightblue" d="M916.477,-348.403C932.707,-339.936 958.036,-326.72 978.947,-315.81"/>
<polygon fill="midnightblue" stroke="midnightblue" points="980.65,-318.87 987.897,-311.141 977.412,-312.663 980.65,-318.87"/>
</g>
<!-- Node17 -->
<g id="node17" class="node"><title>Node17</title>
<g id="a_node17"><a xlink:href="configurationmanager_8hpp.html" target="_top" xlink:title="components/files/configurationmanager.hpp">
<polygon fill="white" stroke="black" points="1285.5,-286.5 1285.5,-305.5 1512.5,-305.5 1512.5,-286.5 1285.5,-286.5"/>
<text text-anchor="middle" x="1399" y="-293.5" font-family="FreeSans" font-size="10.00">components/files/configurationmanager.hpp</text>
</a>
</g>
</g>
<!-- Node10&#45;&gt;Node17 -->
<g id="edge17" class="edge"><title>Node10&#45;&gt;Node17</title>
<path fill="none" stroke="midnightblue" d="M946.05,-351.463C1030.78,-341.275 1212.36,-319.441 1318.08,-306.73"/>
<polygon fill="midnightblue" stroke="midnightblue" points="1318.56,-310.198 1328.07,-305.529 1317.72,-303.248 1318.56,-310.198"/>
</g>
<!-- Node33 -->
<g id="node33" class="node"><title>Node33</title>
<g id="a_node33"><a xlink:href="gamesettings_8hpp.html" target="_top" xlink:title="components/config/gamesettings.hpp">
<polygon fill="white" stroke="black" points="621,-224.5 621,-243.5 819,-243.5 819,-224.5 621,-224.5"/>
<text text-anchor="middle" x="720" y="-231.5" font-family="FreeSans" font-size="10.00">components/config/gamesettings.hpp</text>
</a>
</g>
</g>
<!-- Node10&#45;&gt;Node33 -->
<g id="edge39" class="edge"><title>Node10&#45;&gt;Node33</title>
<path fill="none" stroke="midnightblue" d="M853.839,-356.958C779.041,-355.8 636.522,-348.695 605,-312 595.733,-301.212 596.982,-291.747 605,-280 616.116,-263.714 634.087,-253.322 652.553,-246.691"/>
<polygon fill="midnightblue" stroke="midnightblue" points="653.789,-249.969 662.221,-243.555 651.629,-243.311 653.789,-249.969"/>
</g>
<!-- Node35 -->
<g id="node35" class="node"><title>Node35</title>
<g id="a_node35"><a xlink:href="launchersettings_8hpp.html" target="_top" xlink:title="components/config/launchersettings.hpp">
<polygon fill="white" stroke="black" points="614,-286.5 614,-305.5 826,-305.5 826,-286.5 614,-286.5"/>
<text text-anchor="middle" x="720" y="-293.5" font-family="FreeSans" font-size="10.00">components/config/launchersettings.hpp</text>
</a>
</g>
</g>
<!-- Node10&#45;&gt;Node35 -->
<g id="edge46" class="edge"><title>Node10&#45;&gt;Node35</title>
<path fill="none" stroke="midnightblue" d="M874.21,-348.403C843.067,-338.022 790.519,-320.506 755.547,-308.849"/>
<polygon fill="midnightblue" stroke="midnightblue" points="756.335,-305.423 745.742,-305.581 754.122,-312.063 756.335,-305.423"/>
</g>
<!-- Node14&#45;&gt;Node11 -->
<g id="edge16" class="edge"><title>Node14&#45;&gt;Node11</title>
<path fill="none" stroke="midnightblue" d="M1035.14,-280.781C1048.59,-271.286 1066.22,-258.843 1079.7,-249.327"/>
<polygon fill="midnightblue" stroke="midnightblue" points="1081.73,-252.182 1087.88,-243.556 1077.69,-246.463 1081.73,-252.182"/>
</g>
<!-- Node15 -->
<g id="node15" class="node"><title>Node15</title>
<polygon fill="white" stroke="#bfbfbf" points="1024.5,-168.5 1024.5,-187.5 1093.5,-187.5 1093.5,-168.5 1024.5,-168.5"/>
<text text-anchor="middle" x="1059" y="-175.5" font-family="FreeSans" font-size="10.00">QStringList</text>
</g>
<!-- Node14&#45;&gt;Node15 -->
<g id="edge14" class="edge"><title>Node14&#45;&gt;Node15</title>
<path fill="none" stroke="midnightblue" d="M1020.4,-280.776C1028.36,-259.781 1043.26,-220.488 1052.04,-197.349"/>
<polygon fill="midnightblue" stroke="midnightblue" points="1055.42,-198.298 1055.7,-187.707 1048.88,-195.816 1055.42,-198.298"/>
</g>
<!-- Node16 -->
<g id="node16" class="node"><title>Node16</title>
<polygon fill="white" stroke="#bfbfbf" points="953.5,-168.5 953.5,-187.5 1006.5,-187.5 1006.5,-168.5 953.5,-168.5"/>
<text text-anchor="middle" x="980" y="-175.5" font-family="FreeSans" font-size="10.00">QString</text>
</g>
<!-- Node14&#45;&gt;Node16 -->
<g id="edge15" class="edge"><title>Node14&#45;&gt;Node16</title>
<path fill="none" stroke="midnightblue" d="M1010.71,-280.776C1004.37,-259.781 992.518,-220.488 985.536,-197.349"/>
<polygon fill="midnightblue" stroke="midnightblue" points="988.867,-196.27 982.627,-187.707 982.165,-198.292 988.867,-196.27"/>
</g>
<!-- Node18 -->
<g id="node18" class="node"><title>Node18</title>
<polygon fill="white" stroke="#bfbfbf" points="1706,-112.5 1706,-131.5 1744,-131.5 1744,-112.5 1706,-112.5"/>
<text text-anchor="middle" x="1725" y="-119.5" font-family="FreeSans" font-size="10.00">map</text>
</g>
<!-- Node17&#45;&gt;Node18 -->
<g id="edge18" class="edge"><title>Node17&#45;&gt;Node18</title>
<path fill="none" stroke="midnightblue" d="M1509.07,-286.491C1577,-279.133 1655.98,-266.09 1682,-244 1712.64,-217.995 1721.45,-168.623 1723.98,-141.682"/>
<polygon fill="midnightblue" stroke="midnightblue" points="1727.48,-141.875 1724.73,-131.643 1720.49,-141.356 1727.48,-141.875"/>
</g>
<!-- Node19 -->
<g id="node19" class="node"><title>Node19</title>
<polygon fill="white" stroke="#bfbfbf" points="1148.5,-224.5 1148.5,-243.5 1297.5,-243.5 1297.5,-224.5 1148.5,-224.5"/>
<text text-anchor="middle" x="1223" y="-231.5" font-family="FreeSans" font-size="10.00">boost/program_options.hpp</text>
</g>
<!-- Node17&#45;&gt;Node19 -->
<g id="edge19" class="edge"><title>Node17&#45;&gt;Node19</title>
<path fill="none" stroke="midnightblue" d="M1373.78,-286.403C1343.33,-276.022 1291.95,-258.506 1257.76,-246.849"/>
<polygon fill="midnightblue" stroke="midnightblue" points="1258.76,-243.495 1248.17,-243.581 1256.51,-250.12 1258.76,-243.495"/>
</g>
<!-- Node20 -->
<g id="node20" class="node"><title>Node20</title>
<g id="a_node20"><a xlink:href="fixedpath_8hpp.html" target="_top" xlink:title="components/files/fixedpath.hpp">
<polygon fill="white" stroke="black" points="1315.5,-224.5 1315.5,-243.5 1482.5,-243.5 1482.5,-224.5 1315.5,-224.5"/>
<text text-anchor="middle" x="1399" y="-231.5" font-family="FreeSans" font-size="10.00">components/files/fixedpath.hpp</text>
</a>
</g>
</g>
<!-- Node17&#45;&gt;Node20 -->
<g id="edge20" class="edge"><title>Node17&#45;&gt;Node20</title>
<path fill="none" stroke="midnightblue" d="M1399,-286.403C1399,-277.938 1399,-264.728 1399,-253.82"/>
<polygon fill="midnightblue" stroke="midnightblue" points="1402.5,-253.581 1399,-243.581 1395.5,-253.581 1402.5,-253.581"/>
</g>
<!-- Node23 -->
<g id="node23" class="node"><title>Node23</title>
<g id="a_node23"><a xlink:href="collections_8hpp.html" target="_top" xlink:title="components/files/collections.hpp">
<polygon fill="white" stroke="black" points="1500.5,-224.5 1500.5,-243.5 1673.5,-243.5 1673.5,-224.5 1500.5,-224.5"/>
<text text-anchor="middle" x="1587" y="-231.5" font-family="FreeSans" font-size="10.00">components/files/collections.hpp</text>
</a>
</g>
</g>
<!-- Node17&#45;&gt;Node23 -->
<g id="edge23" class="edge"><title>Node17&#45;&gt;Node23</title>
<path fill="none" stroke="midnightblue" d="M1425.94,-286.403C1458.6,-275.978 1513.82,-258.356 1550.34,-246.699"/>
<polygon fill="midnightblue" stroke="midnightblue" points="1551.65,-249.955 1560.11,-243.581 1549.52,-243.287 1551.65,-249.955"/>
</g>
<!-- Node21 -->
<g id="node21" class="node"><title>Node21</title>
<polygon fill="white" stroke="#bfbfbf" points="1364,-56.5 1364,-75.5 1408,-75.5 1408,-56.5 1364,-56.5"/>
<text text-anchor="middle" x="1386" y="-63.5" font-family="FreeSans" font-size="10.00">string</text>
</g>
<!-- Node20&#45;&gt;Node21 -->
<g id="edge21" class="edge"><title>Node20&#45;&gt;Node21</title>
<path fill="none" stroke="midnightblue" d="M1357.93,-224.43C1312.18,-212.449 1240.42,-185.819 1208,-132 1175.09,-77.3693 1294.1,-68.2042 1353.81,-66.9736"/>
<polygon fill="midnightblue" stroke="midnightblue" points="1353.93,-70.4724 1363.88,-66.8297 1353.83,-63.4731 1353.93,-70.4724"/>
</g>
<!-- Node22 -->
<g id="node22" class="node"><title>Node22</title>
<polygon fill="white" stroke="#bfbfbf" points="1356,-168.5 1356,-187.5 1472,-187.5 1472,-168.5 1356,-168.5"/>
<text text-anchor="middle" x="1414" y="-175.5" font-family="FreeSans" font-size="10.00">boost/filesystem.hpp</text>
</g>
<!-- Node20&#45;&gt;Node22 -->
<g id="edge22" class="edge"><title>Node20&#45;&gt;Node22</title>
<path fill="none" stroke="midnightblue" d="M1401.48,-224.083C1403.49,-216.849 1406.39,-206.409 1408.89,-197.397"/>
<polygon fill="midnightblue" stroke="midnightblue" points="1412.26,-198.323 1411.57,-187.751 1405.52,-196.449 1412.26,-198.323"/>
</g>
<!-- Node23&#45;&gt;Node22 -->
<g id="edge24" class="edge"><title>Node23&#45;&gt;Node22</title>
<path fill="none" stroke="midnightblue" d="M1559.59,-224.444C1530.23,-215.28 1483.48,-200.688 1450.9,-190.519"/>
<polygon fill="midnightblue" stroke="midnightblue" points="1451.87,-187.155 1441.28,-187.516 1449.79,-193.837 1451.87,-187.155"/>
</g>
<!-- Node24 -->
<g id="node24" class="node"><title>Node24</title>
<g id="a_node24"><a xlink:href="multidircollection_8hpp.html" target="_top" xlink:title="multidircollection.hpp">
<polygon fill="white" stroke="black" points="1505.5,-168.5 1505.5,-187.5 1624.5,-187.5 1624.5,-168.5 1505.5,-168.5"/>
<text text-anchor="middle" x="1565" y="-175.5" font-family="FreeSans" font-size="10.00">multidircollection.hpp</text>
</a>
</g>
</g>
<!-- Node23&#45;&gt;Node24 -->
<g id="edge25" class="edge"><title>Node23&#45;&gt;Node24</title>
<path fill="none" stroke="midnightblue" d="M1583.37,-224.083C1580.39,-216.77 1576.07,-206.181 1572.38,-197.103"/>
<polygon fill="midnightblue" stroke="midnightblue" points="1575.58,-195.691 1568.57,-187.751 1569.1,-198.333 1575.58,-195.691"/>
</g>
<!-- Node24&#45;&gt;Node18 -->
<g id="edge26" class="edge"><title>Node24&#45;&gt;Node18</title>
<path fill="none" stroke="midnightblue" d="M1590.35,-168.444C1619.17,-158.718 1666.11,-142.876 1696.26,-132.7"/>
<polygon fill="midnightblue" stroke="midnightblue" points="1697.44,-135.997 1705.79,-129.483 1695.2,-129.364 1697.44,-135.997"/>
</g>
<!-- Node24&#45;&gt;Node21 -->
<g id="edge28" class="edge"><title>Node24&#45;&gt;Node21</title>
<path fill="none" stroke="midnightblue" d="M1516.12,-168.458C1475.42,-160.419 1421.69,-147.342 1406,-132 1393.74,-120.017 1388.96,-100.719 1387.11,-86.2576"/>
<polygon fill="midnightblue" stroke="midnightblue" points="1390.56,-85.5713 1386.17,-75.9289 1383.59,-86.2045 1390.56,-85.5713"/>
</g>
<!-- Node25 -->
<g id="node25" class="node"><title>Node25</title>
<polygon fill="white" stroke="#bfbfbf" points="1414.5,-112.5 1414.5,-131.5 1461.5,-131.5 1461.5,-112.5 1414.5,-112.5"/>
<text text-anchor="middle" x="1438" y="-119.5" font-family="FreeSans" font-size="10.00">vector</text>
</g>
<!-- Node24&#45;&gt;Node25 -->
<g id="edge27" class="edge"><title>Node24&#45;&gt;Node25</title>
<path fill="none" stroke="midnightblue" d="M1544.88,-168.444C1523.98,-159.557 1491.07,-145.563 1467.28,-135.451"/>
<polygon fill="midnightblue" stroke="midnightblue" points="1468.6,-132.208 1458.03,-131.516 1465.86,-138.65 1468.6,-132.208"/>
</g>
<!-- Node26 -->
<g id="node26" class="node"><title>Node26</title>
<polygon fill="white" stroke="#bfbfbf" points="1654,-56.5 1654,-75.5 1702,-75.5 1702,-56.5 1654,-56.5"/>
<text text-anchor="middle" x="1678" y="-63.5" font-family="FreeSans" font-size="10.00">cctype</text>
</g>
<!-- Node24&#45;&gt;Node26 -->
<g id="edge29" class="edge"><title>Node24&#45;&gt;Node26</title>
<path fill="none" stroke="midnightblue" d="M1598.91,-168.364C1619.03,-161.595 1643.53,-150.2 1659,-132 1670.05,-118.992 1674.68,-99.832 1676.62,-85.6817"/>
<polygon fill="midnightblue" stroke="midnightblue" points="1680.11,-85.929 1677.66,-75.6207 1673.15,-85.2053 1680.11,-85.929"/>
</g>
<!-- Node27 -->
<g id="node27" class="node"><title>Node27</title>
<polygon fill="white" stroke="#bfbfbf" points="1216.5,-112.5 1216.5,-131.5 1357.5,-131.5 1357.5,-112.5 1216.5,-112.5"/>
<text text-anchor="middle" x="1287" y="-119.5" font-family="FreeSans" font-size="10.00">boost/filesystem/path.hpp</text>
</g>
<!-- Node24&#45;&gt;Node27 -->
<g id="edge30" class="edge"><title>Node24&#45;&gt;Node27</title>
<path fill="none" stroke="midnightblue" d="M1520.95,-168.444C1472.15,-158.964 1393.44,-143.675 1340.97,-133.483"/>
<polygon fill="midnightblue" stroke="midnightblue" points="1341.33,-129.988 1330.84,-131.516 1339.99,-136.859 1341.33,-129.988"/>
</g>
<!-- Node28 -->
<g id="node28" class="node"><title>Node28</title>
<g id="a_node28"><a xlink:href="stringops_8hpp.html" target="_top" xlink:title="components/misc/stringops.hpp">
<polygon fill="white" stroke="black" points="1480,-112.5 1480,-131.5 1650,-131.5 1650,-112.5 1480,-112.5"/>
<text text-anchor="middle" x="1565" y="-119.5" font-family="FreeSans" font-size="10.00">components/misc/stringops.hpp</text>
</a>
</g>
</g>
<!-- Node24&#45;&gt;Node28 -->
<g id="edge31" class="edge"><title>Node24&#45;&gt;Node28</title>
<path fill="none" stroke="midnightblue" d="M1565,-168.083C1565,-161.006 1565,-150.861 1565,-141.986"/>
<polygon fill="midnightblue" stroke="midnightblue" points="1568.5,-141.751 1565,-131.751 1561.5,-141.751 1568.5,-141.751"/>
</g>
<!-- Node28&#45;&gt;Node21 -->
<g id="edge34" class="edge"><title>Node28&#45;&gt;Node21</title>
<path fill="none" stroke="midnightblue" d="M1536.64,-112.444C1504.3,-102.687 1451.56,-86.7764 1417.83,-76.6036"/>
<polygon fill="midnightblue" stroke="midnightblue" points="1418.61,-73.1813 1408.02,-73.6439 1416.59,-79.883 1418.61,-73.1813"/>
</g>
<!-- Node28&#45;&gt;Node26 -->
<g id="edge32" class="edge"><title>Node28&#45;&gt;Node26</title>
<path fill="none" stroke="midnightblue" d="M1582.91,-112.444C1601.25,-103.675 1630.01,-89.9355 1651.09,-79.8579"/>
<polygon fill="midnightblue" stroke="midnightblue" points="1652.67,-82.9862 1660.18,-75.5164 1649.65,-76.6703 1652.67,-82.9862"/>
</g>
<!-- Node29 -->
<g id="node29" class="node"><title>Node29</title>
<polygon fill="white" stroke="#bfbfbf" points="1595.5,-0.5 1595.5,-19.5 1644.5,-19.5 1644.5,-0.5 1595.5,-0.5"/>
<text text-anchor="middle" x="1620" y="-7.5" font-family="FreeSans" font-size="10.00">cstring</text>
</g>
<!-- Node28&#45;&gt;Node29 -->
<g id="edge33" class="edge"><title>Node28&#45;&gt;Node29</title>
<path fill="none" stroke="midnightblue" d="M1575.43,-112.475C1584.88,-104.162 1598.45,-90.6582 1606,-76 1613.43,-61.568 1616.92,-43.3778 1618.56,-29.9132"/>
<polygon fill="midnightblue" stroke="midnightblue" points="1622.05,-30.1952 1619.55,-19.9005 1615.08,-29.5096 1622.05,-30.1952"/>
</g>
<!-- Node30 -->
<g id="node30" class="node"><title>Node30</title>
<polygon fill="white" stroke="#bfbfbf" points="1426,-56.5 1426,-75.5 1488,-75.5 1488,-56.5 1426,-56.5"/>
<text text-anchor="middle" x="1457" y="-63.5" font-family="FreeSans" font-size="10.00">algorithm</text>
</g>
<!-- Node28&#45;&gt;Node30 -->
<g id="edge35" class="edge"><title>Node28&#45;&gt;Node30</title>
<path fill="none" stroke="midnightblue" d="M1547.65,-112.324C1530.33,-103.664 1503.48,-90.2424 1483.5,-80.249"/>
<polygon fill="midnightblue" stroke="midnightblue" points="1484.82,-76.9962 1474.31,-75.6545 1481.69,-83.2572 1484.82,-76.9962"/>
</g>
<!-- Node31 -->
<g id="node31" class="node"><title>Node31</title>
<g id="a_node31"><a xlink:href="utf8stream_8hpp.html" target="_top" xlink:title="utf8stream.hpp">
<polygon fill="white" stroke="black" points="1506.5,-56.5 1506.5,-75.5 1597.5,-75.5 1597.5,-56.5 1506.5,-56.5"/>
<text text-anchor="middle" x="1552" y="-63.5" font-family="FreeSans" font-size="10.00">utf8stream.hpp</text>
</a>
</g>
</g>
<!-- Node28&#45;&gt;Node31 -->
<g id="edge36" class="edge"><title>Node28&#45;&gt;Node31</title>
<path fill="none" stroke="midnightblue" d="M1562.85,-112.083C1561.13,-104.927 1558.65,-94.6353 1556.5,-85.6911"/>
<polygon fill="midnightblue" stroke="midnightblue" points="1559.85,-84.6541 1554.11,-75.7511 1553.04,-86.2925 1559.85,-84.6541"/>
</g>
<!-- Node31&#45;&gt;Node29 -->
<g id="edge37" class="edge"><title>Node31&#45;&gt;Node29</title>
<path fill="none" stroke="midnightblue" d="M1562.93,-56.324C1573.17,-48.1849 1588.72,-35.8395 1601,-26.0874"/>
<polygon fill="midnightblue" stroke="midnightblue" points="1603.22,-28.7937 1608.88,-19.8339 1598.87,-23.3119 1603.22,-28.7937"/>
</g>
<!-- Node32 -->
<g id="node32" class="node"><title>Node32</title>
<polygon fill="white" stroke="#bfbfbf" points="1531.5,-0.5 1531.5,-19.5 1572.5,-19.5 1572.5,-0.5 1531.5,-0.5"/>
<text text-anchor="middle" x="1552" y="-7.5" font-family="FreeSans" font-size="10.00">tuple</text>
</g>
<!-- Node31&#45;&gt;Node32 -->
<g id="edge38" class="edge"><title>Node31&#45;&gt;Node32</title>
<path fill="none" stroke="midnightblue" d="M1552,-56.083C1552,-49.0059 1552,-38.8611 1552,-29.9865"/>
<polygon fill="midnightblue" stroke="midnightblue" points="1555.5,-29.751 1552,-19.7511 1548.5,-29.7511 1555.5,-29.751"/>
</g>
<!-- Node33&#45;&gt;Node9 -->
<g id="edge43" class="edge"><title>Node33&#45;&gt;Node9</title>
<path fill="none" stroke="midnightblue" d="M701.619,-224.444C682.784,-215.675 653.269,-201.935 631.621,-191.858"/>
<polygon fill="midnightblue" stroke="midnightblue" points="632.838,-188.564 622.295,-187.516 629.883,-194.91 632.838,-188.564"/>
</g>
<!-- Node33&#45;&gt;Node13 -->
<g id="edge44" class="edge"><title>Node33&#45;&gt;Node13</title>
<path fill="none" stroke="midnightblue" d="M723.303,-224.083C725.982,-216.849 729.849,-206.409 733.186,-197.397"/>
<polygon fill="midnightblue" stroke="midnightblue" points="736.568,-198.344 736.759,-187.751 730.004,-195.913 736.568,-198.344"/>
</g>
<!-- Node33&#45;&gt;Node15 -->
<g id="edge41" class="edge"><title>Node33&#45;&gt;Node15</title>
<path fill="none" stroke="midnightblue" d="M782.02,-224.466C839.6,-216.332 927.944,-203.32 1014.45,-188.019"/>
<polygon fill="midnightblue" stroke="midnightblue" points="1015.21,-191.438 1024.44,-186.239 1013.99,-184.547 1015.21,-191.438"/>
</g>
<!-- Node33&#45;&gt;Node16 -->
<g id="edge42" class="edge"><title>Node33&#45;&gt;Node16</title>
<path fill="none" stroke="midnightblue" d="M765.608,-224.485C808.839,-216.269 875.827,-203.164 943.336,-188.065"/>
<polygon fill="midnightblue" stroke="midnightblue" points="944.309,-191.434 953.297,-185.823 942.772,-184.604 944.309,-191.434"/>
</g>
<!-- Node33&#45;&gt;Node27 -->
<g id="edge45" class="edge"><title>Node33&#45;&gt;Node27</title>
<path fill="none" stroke="midnightblue" d="M714.485,-224.136C706.638,-210.274 694.699,-183.458 709,-168 742.054,-132.273 1055.15,-124.845 1206.22,-123.348"/>
<polygon fill="midnightblue" stroke="midnightblue" points="1206.4,-126.846 1216.37,-123.254 1206.34,-119.847 1206.4,-126.846"/>
</g>
<!-- Node34 -->
<g id="node34" class="node"><title>Node34</title>
<polygon fill="white" stroke="#bfbfbf" points="779.5,-168.5 779.5,-187.5 858.5,-187.5 858.5,-168.5 779.5,-168.5"/>
<text text-anchor="middle" x="819" y="-175.5" font-family="FreeSans" font-size="10.00">QTextStream</text>
</g>
<!-- Node33&#45;&gt;Node34 -->
<g id="edge40" class="edge"><title>Node33&#45;&gt;Node34</title>
<path fill="none" stroke="midnightblue" d="M735.906,-224.324C751.638,-215.743 775.942,-202.486 794.209,-192.522"/>
<polygon fill="midnightblue" stroke="midnightblue" points="796.03,-195.516 803.133,-187.655 792.678,-189.37 796.03,-195.516"/>
</g>
<!-- Node35&#45;&gt;Node33 -->
<g id="edge53" class="edge"><title>Node35&#45;&gt;Node33</title>
<path fill="none" stroke="midnightblue" d="M720,-286.403C720,-277.938 720,-264.728 720,-253.82"/>
<polygon fill="midnightblue" stroke="midnightblue" points="723.5,-253.581 720,-243.581 716.5,-253.581 723.5,-253.581"/>
</g>
<!-- Node36 -->
<g id="node36" class="node"><title>Node36</title>
<g id="a_node36"><a xlink:href="settingsbase_8hpp.html" target="_top" xlink:title="settingsbase.hpp">
<polygon fill="white" stroke="black" points="875.5,-224.5 875.5,-243.5 974.5,-243.5 974.5,-224.5 875.5,-224.5"/>
<text text-anchor="middle" x="925" y="-231.5" font-family="FreeSans" font-size="10.00">settingsbase.hpp</text>
</a>
</g>
</g>
<!-- Node35&#45;&gt;Node36 -->
<g id="edge47" class="edge"><title>Node35&#45;&gt;Node36</title>
<path fill="none" stroke="midnightblue" d="M749.372,-286.403C785.297,-275.889 846.232,-258.054 886.044,-246.402"/>
<polygon fill="midnightblue" stroke="midnightblue" points="887.069,-249.749 895.683,-243.581 885.102,-243.031 887.069,-249.749"/>
</g>
<!-- Node36&#45;&gt;Node13 -->
<g id="edge52" class="edge"><title>Node36&#45;&gt;Node13</title>
<path fill="none" stroke="midnightblue" d="M895.263,-224.452C865.994,-216.019 819.775,-202.654 771.872,-188.538"/>
<polygon fill="midnightblue" stroke="midnightblue" points="772.855,-185.179 762.274,-185.706 770.874,-191.893 772.855,-185.179"/>
</g>
<!-- Node36&#45;&gt;Node15 -->
<g id="edge49" class="edge"><title>Node36&#45;&gt;Node15</title>
<path fill="none" stroke="midnightblue" d="M946.233,-224.444C968.384,-215.517 1003.32,-201.439 1028.44,-191.317"/>
<polygon fill="midnightblue" stroke="midnightblue" points="1029.9,-194.501 1037.87,-187.516 1027.28,-188.008 1029.9,-194.501"/>
</g>
<!-- Node36&#45;&gt;Node16 -->
<g id="edge50" class="edge"><title>Node36&#45;&gt;Node16</title>
<path fill="none" stroke="midnightblue" d="M934.082,-224.083C942.171,-216.141 954.195,-204.335 963.91,-194.797"/>
<polygon fill="midnightblue" stroke="midnightblue" points="966.403,-197.254 971.087,-187.751 961.499,-192.26 966.403,-197.254"/>
</g>
<!-- Node36&#45;&gt;Node34 -->
<g id="edge48" class="edge"><title>Node36&#45;&gt;Node34</title>
<path fill="none" stroke="midnightblue" d="M907.969,-224.324C890.97,-215.664 864.624,-202.242 845.007,-192.249"/>
<polygon fill="midnightblue" stroke="midnightblue" points="846.488,-189.075 835.988,-187.655 843.31,-195.312 846.488,-189.075"/>
</g>
<!-- Node37 -->
<g id="node37" class="node"><title>Node37</title>
<polygon fill="white" stroke="#bfbfbf" points="876.5,-168.5 876.5,-187.5 935.5,-187.5 935.5,-168.5 876.5,-168.5"/>
<text text-anchor="middle" x="906" y="-175.5" font-family="FreeSans" font-size="10.00">QRegExp</text>
</g>
<!-- Node36&#45;&gt;Node37 -->
<g id="edge51" class="edge"><title>Node36&#45;&gt;Node37</title>
<path fill="none" stroke="midnightblue" d="M921.863,-224.083C919.317,-216.849 915.644,-206.409 912.473,-197.397"/>
<polygon fill="midnightblue" stroke="midnightblue" points="915.7,-196.023 909.079,-187.751 909.097,-198.346 915.7,-196.023"/>
</g>
</g>
</svg>
