<?xml version="1.0" encoding="UTF-8" standalone="no"?>
<!DOCTYPE svg PUBLIC "-//W3C//DTD SVG 1.1//EN"
 "http://www.w3.org/Graphics/SVG/1.1/DTD/svg11.dtd">
<!-- Generated by graphviz version 2.36.0 (20140111.2315)
 -->
<!-- Title: /home/travis/build/elsid/openmw/apps/opencs/view/doc/filewidget.hpp Pages: 1 -->
<svg width="657pt" height="128pt"
 viewBox="0.00 0.00 657.00 128.00" xmlns="http://www.w3.org/2000/svg" xmlns:xlink="http://www.w3.org/1999/xlink">
<g id="graph0" class="graph" transform="scale(1 1) rotate(0) translate(4 124)">
<title>/home/travis/build/elsid/openmw/apps/opencs/view/doc/filewidget.hpp</title>
<polygon fill="white" stroke="none" points="-4,4 -4,-124 653,-124 653,4 -4,4"/>
<!-- Node1 -->
<g id="node1" class="node"><title>Node1</title>
<polygon fill="#bfbfbf" stroke="black" points="249.5,-78.5 249.5,-119.5 398.5,-119.5 398.5,-78.5 249.5,-78.5"/>
<text text-anchor="start" x="257.5" y="-107.5" font-family="FreeSans" font-size="10.00">/home/travis/build</text>
<text text-anchor="start" x="257.5" y="-96.5" font-family="FreeSans" font-size="10.00">/elsid/openmw/apps/opencs</text>
<text text-anchor="middle" x="324" y="-85.5" font-family="FreeSans" font-size="10.00">/view/doc/filewidget.hpp</text>
</g>
<!-- Node2 -->
<g id="node2" class="node"><title>Node2</title>
<g id="a_node2"><a xlink:href="filedialog_8cpp.html" target="_top" xlink:title="/home/travis/build\l/elsid/openmw/apps/opencs\l/view/doc/filedialog.cpp">
<polygon fill="white" stroke="black" points="-0.5,-0.5 -0.5,-41.5 148.5,-41.5 148.5,-0.5 -0.5,-0.5"/>
<text text-anchor="start" x="7.5" y="-29.5" font-family="FreeSans" font-size="10.00">/home/travis/build</text>
<text text-anchor="start" x="7.5" y="-18.5" font-family="FreeSans" font-size="10.00">/elsid/openmw/apps/opencs</text>
<text text-anchor="middle" x="74" y="-7.5" font-family="FreeSans" font-size="10.00">/view/doc/filedialog.cpp</text>
</a>
</g>
</g>
<!-- Node1&#45;&gt;Node2 -->
<g id="edge1" class="edge"><title>Node1&#45;&gt;Node2</title>
<path fill="none" stroke="midnightblue" d="M249.797,-75.4423C214.313,-64.655 172.247,-51.8672 138.163,-41.5056"/>
<polygon fill="midnightblue" stroke="midnightblue" points="249.033,-78.8682 259.619,-78.4281 251.069,-72.1708 249.033,-78.8682"/>
</g>
<!-- Node3 -->
<g id="node3" class="node"><title>Node3</title>
<g id="a_node3"><a xlink:href="filewidget_8cpp.html" target="_top" xlink:title="/home/travis/build\l/elsid/openmw/apps/opencs\l/view/doc/filewidget.cpp">
<polygon fill="white" stroke="black" points="166.5,-0.5 166.5,-41.5 315.5,-41.5 315.5,-0.5 166.5,-0.5"/>
<text text-anchor="start" x="174.5" y="-29.5" font-family="FreeSans" font-size="10.00">/home/travis/build</text>
<text text-anchor="start" x="174.5" y="-18.5" font-family="FreeSans" font-size="10.00">/elsid/openmw/apps/opencs</text>
<text text-anchor="middle" x="241" y="-7.5" font-family="FreeSans" font-size="10.00">/view/doc/filewidget.cpp</text>
</a>
</g>
</g>
<!-- Node1&#45;&gt;Node3 -->
<g id="edge2" class="edge"><title>Node1&#45;&gt;Node3</title>
<path fill="none" stroke="midnightblue" d="M295.05,-71.4916C284.28,-61.6294 272.264,-50.6273 262.302,-41.5056"/>
<polygon fill="midnightblue" stroke="midnightblue" points="292.887,-74.2562 302.625,-78.4281 297.614,-69.0935 292.887,-74.2562"/>
</g>
<!-- Node4 -->
<g id="node4" class="node"><title>Node4</title>
<g id="a_node4"><a xlink:href="newgame_8cpp.html" target="_top" xlink:title="/home/travis/build\l/elsid/openmw/apps/opencs\l/view/doc/newgame.cpp">
<polygon fill="white" stroke="black" points="333.5,-0.5 333.5,-41.5 482.5,-41.5 482.5,-0.5 333.5,-0.5"/>
<text text-anchor="start" x="341.5" y="-29.5" font-family="FreeSans" font-size="10.00">/home/travis/build</text>
<text text-anchor="start" x="341.5" y="-18.5" font-family="FreeSans" font-size="10.00">/elsid/openmw/apps/opencs</text>
<text text-anchor="middle" x="408" y="-7.5" font-family="FreeSans" font-size="10.00">/view/doc/newgame.cpp</text>
</a>
</g>
</g>
<!-- Node1&#45;&gt;Node4 -->
<g id="edge3" class="edge"><title>Node1&#45;&gt;Node4</title>
<path fill="none" stroke="midnightblue" d="M353.299,-71.4916C364.199,-61.6294 376.359,-50.6273 386.441,-41.5056"/>
<polygon fill="midnightblue" stroke="midnightblue" points="350.699,-69.1236 345.632,-78.4281 355.396,-74.3143 350.699,-69.1236"/>
</g>
<!-- Node5 -->
<g id="node5" class="node"><title>Node5</title>
<g id="a_node5"><a xlink:href="merge_8cpp.html" target="_top" xlink:title="/home/travis/build\l/elsid/openmw/apps/opencs\l/view/tools/merge.cpp">
<polygon fill="white" stroke="black" points="500.5,-0.5 500.5,-41.5 649.5,-41.5 649.5,-0.5 500.5,-0.5"/>
<text text-anchor="start" x="508.5" y="-29.5" font-family="FreeSans" font-size="10.00">/home/travis/build</text>
<text text-anchor="start" x="508.5" y="-18.5" font-family="FreeSans" font-size="10.00">/elsid/openmw/apps/opencs</text>
<text text-anchor="middle" x="575" y="-7.5" font-family="FreeSans" font-size="10.00">/view/tools/merge.cpp</text>
</a>
</g>
</g>
<!-- Node1&#45;&gt;Node5 -->
<g id="edge4" class="edge"><title>Node1&#45;&gt;Node5</title>
<path fill="none" stroke="midnightblue" d="M398.5,-75.4423C434.126,-64.655 476.36,-51.8672 510.58,-41.5056"/>
<polygon fill="midnightblue" stroke="midnightblue" points="397.195,-72.1803 388.639,-78.4281 399.224,-78.8799 397.195,-72.1803"/>
</g>
</g>
</svg>
