<?xml version="1.0" encoding="UTF-8" standalone="no"?>
<!DOCTYPE svg PUBLIC "-//W3C//DTD SVG 1.1//EN"
 "http://www.w3.org/Graphics/SVG/1.1/DTD/svg11.dtd">
<!-- Generated by graphviz version 2.36.0 (20140111.2315)
 -->
<!-- Title: /home/scrawl/Dev/openmw/apps/opencs/model/world/idcompletionmanager.cpp Pages: 1 -->
<svg width="4507pt" height="342pt"
 viewBox="0.00 0.00 4507.00 342.00" xmlns="http://www.w3.org/2000/svg" xmlns:xlink="http://www.w3.org/1999/xlink">
<g id="graph0" class="graph" transform="scale(1 1) rotate(0) translate(4 338)">
<title>/home/scrawl/Dev/openmw/apps/opencs/model/world/idcompletionmanager.cpp</title>
<polygon fill="white" stroke="none" points="-4,4 -4,-338 4503,-338 4503,4 -4,4"/>
<!-- Node1 -->
<g id="node1" class="node"><title>Node1</title>
<polygon fill="#bfbfbf" stroke="black" points="2029,-292.5 2029,-333.5 2161,-333.5 2161,-292.5 2029,-292.5"/>
<text text-anchor="start" x="2037" y="-321.5" font-family="FreeSans" font-size="10.00">/home/scrawl/Dev/openmw</text>
<text text-anchor="start" x="2037" y="-310.5" font-family="FreeSans" font-size="10.00">/apps/opencs/model/world</text>
<text text-anchor="middle" x="2095" y="-299.5" font-family="FreeSans" font-size="10.00">/idcompletionmanager.cpp</text>
</g>
<!-- Node2 -->
<g id="node2" class="node"><title>Node2</title>
<g id="a_node2"><a xlink:href="idcompletionmanager_8hpp.html" target="_top" xlink:title="idcompletionmanager.hpp">
<polygon fill="white" stroke="black" points="377.5,-124.5 377.5,-143.5 504.5,-143.5 504.5,-124.5 377.5,-124.5"/>
<text text-anchor="middle" x="441" y="-131.5" font-family="FreeSans" font-size="10.00">idcompletionmanager.hpp</text>
</a>
</g>
</g>
<!-- Node1&#45;&gt;Node2 -->
<g id="edge1" class="edge"><title>Node1&#45;&gt;Node2</title>
<path fill="none" stroke="midnightblue" d="M2028.75,-310.373C1773.96,-303.613 857.454,-274.531 577,-200 534.653,-188.746 489.521,-164.408 463.363,-148.915"/>
<polygon fill="midnightblue" stroke="midnightblue" points="464.996,-145.812 454.625,-143.648 461.383,-151.807 464.996,-145.812"/>
</g>
<!-- Node8 -->
<g id="node8" class="node"><title>Node8</title>
<polygon fill="white" stroke="#bfbfbf" points="1979.5,-236.5 1979.5,-255.5 2098.5,-255.5 2098.5,-236.5 1979.5,-236.5"/>
<text text-anchor="middle" x="2039" y="-243.5" font-family="FreeSans" font-size="10.00">boost/make_shared.hpp</text>
</g>
<!-- Node1&#45;&gt;Node8 -->
<g id="edge9" class="edge"><title>Node1&#45;&gt;Node8</title>
<path fill="none" stroke="midnightblue" d="M2078.2,-292.498C2070.19,-283.203 2060.72,-272.21 2053.09,-263.358"/>
<polygon fill="midnightblue" stroke="midnightblue" points="2055.63,-260.944 2046.45,-255.652 2050.33,-265.513 2055.63,-260.944"/>
</g>
<!-- Node9 -->
<g id="node9" class="node"><title>Node9</title>
<polygon fill="white" stroke="#bfbfbf" points="2117,-236.5 2117,-255.5 2185,-255.5 2185,-236.5 2117,-236.5"/>
<text text-anchor="middle" x="2151" y="-243.5" font-family="FreeSans" font-size="10.00">QCompleter</text>
</g>
<!-- Node1&#45;&gt;Node9 -->
<g id="edge10" class="edge"><title>Node1&#45;&gt;Node9</title>
<path fill="none" stroke="midnightblue" d="M2111.8,-292.498C2119.81,-283.203 2129.28,-272.21 2136.91,-263.358"/>
<polygon fill="midnightblue" stroke="midnightblue" points="2139.67,-265.513 2143.55,-255.652 2134.37,-260.944 2139.67,-265.513"/>
</g>
<!-- Node10 -->
<g id="node10" class="node"><title>Node10</title>
<g id="a_node10"><a xlink:href="completerpopup_8hpp.html" target="_top" xlink:title="../../view/widget/completerpopup.hpp">
<polygon fill="white" stroke="black" points="2203.5,-236.5 2203.5,-255.5 2374.5,-255.5 2374.5,-236.5 2203.5,-236.5"/>
<text text-anchor="middle" x="2289" y="-243.5" font-family="FreeSans" font-size="10.00">../../view/widget/completerpopup.hpp</text>
</a>
</g>
</g>
<!-- Node1&#45;&gt;Node10 -->
<g id="edge11" class="edge"><title>Node1&#45;&gt;Node10</title>
<path fill="none" stroke="midnightblue" d="M2153.21,-292.498C2185.91,-281.541 2225.66,-268.223 2253.67,-258.836"/>
<polygon fill="midnightblue" stroke="midnightblue" points="2255.06,-262.063 2263.43,-255.567 2252.84,-255.425 2255.06,-262.063"/>
</g>
<!-- Node12 -->
<g id="node12" class="node"><title>Node12</title>
<g id="a_node12"><a xlink:href="apps_2opencs_2model_2world_2data_8hpp.html" target="_top" xlink:title="data.hpp">
<polygon fill="white" stroke="black" points="1908.5,-236.5 1908.5,-255.5 1961.5,-255.5 1961.5,-236.5 1908.5,-236.5"/>
<text text-anchor="middle" x="1935" y="-243.5" font-family="FreeSans" font-size="10.00">data.hpp</text>
</a>
</g>
</g>
<!-- Node1&#45;&gt;Node12 -->
<g id="edge13" class="edge"><title>Node1&#45;&gt;Node12</title>
<path fill="none" stroke="midnightblue" d="M2046.99,-292.498C2020.58,-281.766 1988.59,-268.769 1965.57,-259.419"/>
<polygon fill="midnightblue" stroke="midnightblue" points="1966.88,-256.174 1956.3,-255.652 1964.25,-262.659 1966.88,-256.174"/>
</g>
<!-- Node50 -->
<g id="node50" class="node"><title>Node50</title>
<g id="a_node50"><a xlink:href="idtablebase_8hpp.html" target="_top" xlink:title="idtablebase.hpp">
<polygon fill="white" stroke="red" points="2392.5,-236.5 2392.5,-255.5 2475.5,-255.5 2475.5,-236.5 2392.5,-236.5"/>
<text text-anchor="middle" x="2434" y="-243.5" font-family="FreeSans" font-size="10.00">idtablebase.hpp</text>
</a>
</g>
</g>
<!-- Node1&#45;&gt;Node50 -->
<g id="edge74" class="edge"><title>Node1&#45;&gt;Node50</title>
<path fill="none" stroke="midnightblue" d="M2161.17,-299.313C2225.83,-286.915 2322.94,-268.295 2382.18,-256.936"/>
<polygon fill="midnightblue" stroke="midnightblue" points="2382.9,-260.361 2392.07,-255.04 2381.59,-253.486 2382.9,-260.361"/>
</g>
<!-- Node3 -->
<g id="node3" class="node"><title>Node3</title>
<polygon fill="white" stroke="#bfbfbf" points="614.5,-0.5 614.5,-19.5 657.5,-19.5 657.5,-0.5 614.5,-0.5"/>
<text text-anchor="middle" x="636" y="-7.5" font-family="FreeSans" font-size="10.00">vector</text>
</g>
<!-- Node2&#45;&gt;Node3 -->
<g id="edge2" class="edge"><title>Node2&#45;&gt;Node3</title>
<path fill="none" stroke="midnightblue" d="M437.343,-124.246C431.476,-108.658 422.143,-75.8657 438,-56 458.429,-30.4075 553.488,-18.2608 604.096,-13.523"/>
<polygon fill="midnightblue" stroke="midnightblue" points="604.529,-16.9983 614.178,-12.6222 603.906,-10.0261 604.529,-16.9983"/>
</g>
<!-- Node4 -->
<g id="node4" class="node"><title>Node4</title>
<polygon fill="white" stroke="#bfbfbf" points="1147.5,-62.5 1147.5,-81.5 1182.5,-81.5 1182.5,-62.5 1147.5,-62.5"/>
<text text-anchor="middle" x="1165" y="-69.5" font-family="FreeSans" font-size="10.00">map</text>
</g>
<!-- Node2&#45;&gt;Node4 -->
<g id="edge3" class="edge"><title>Node2&#45;&gt;Node4</title>
<path fill="none" stroke="midnightblue" d="M504.688,-128.256C609.485,-120.378 824.837,-103.888 1007,-88 1052.67,-84.0167 1105.72,-78.875 1137.26,-75.7632"/>
<polygon fill="midnightblue" stroke="midnightblue" points="1137.87,-79.2204 1147.47,-74.7524 1137.18,-72.2544 1137.87,-79.2204"/>
</g>
<!-- Node5 -->
<g id="node5" class="node"><title>Node5</title>
<polygon fill="white" stroke="#bfbfbf" points="285,-62.5 285,-81.5 391,-81.5 391,-62.5 285,-62.5"/>
<text text-anchor="middle" x="338" y="-69.5" font-family="FreeSans" font-size="10.00">boost/shared_ptr.hpp</text>
</g>
<!-- Node2&#45;&gt;Node5 -->
<g id="edge4" class="edge"><title>Node2&#45;&gt;Node5</title>
<path fill="none" stroke="midnightblue" d="M426.243,-124.403C409.339,-114.557 381.417,-98.2915 361.51,-86.6949"/>
<polygon fill="midnightblue" stroke="midnightblue" points="363.133,-83.5898 352.73,-81.5806 359.609,-89.6384 363.133,-83.5898"/>
</g>
<!-- Node6 -->
<g id="node6" class="node"><title>Node6</title>
<g id="a_node6"><a xlink:href="columnbase_8hpp.html" target="_top" xlink:title="columnbase.hpp">
<polygon fill="white" stroke="red" points="545,-62.5 545,-81.5 631,-81.5 631,-62.5 545,-62.5"/>
<text text-anchor="middle" x="588" y="-69.5" font-family="FreeSans" font-size="10.00">columnbase.hpp</text>
</a>
</g>
</g>
<!-- Node2&#45;&gt;Node6 -->
<g id="edge5" class="edge"><title>Node2&#45;&gt;Node6</title>
<path fill="none" stroke="midnightblue" d="M462.062,-124.403C487.059,-114.2 528.942,-97.1055 557.487,-85.4544"/>
<polygon fill="midnightblue" stroke="midnightblue" points="559.042,-88.6001 566.978,-81.5806 556.396,-82.1192 559.042,-88.6001"/>
</g>
<!-- Node7 -->
<g id="node7" class="node"><title>Node7</title>
<g id="a_node7"><a xlink:href="universalid_8hpp.html" target="_top" xlink:title="universalid.hpp">
<polygon fill="white" stroke="red" points="447,-62.5 447,-81.5 527,-81.5 527,-62.5 447,-62.5"/>
<text text-anchor="middle" x="487" y="-69.5" font-family="FreeSans" font-size="10.00">universalid.hpp</text>
</a>
</g>
</g>
<!-- Node2&#45;&gt;Node7 -->
<g id="edge7" class="edge"><title>Node2&#45;&gt;Node7</title>
<path fill="none" stroke="midnightblue" d="M447.591,-124.403C454.491,-115.403 465.502,-101.041 474.134,-89.7824"/>
<polygon fill="midnightblue" stroke="midnightblue" points="477.115,-91.6462 480.422,-81.5806 471.56,-87.3872 477.115,-91.6462"/>
</g>
<!-- Node6&#45;&gt;Node3 -->
<g id="edge6" class="edge"><title>Node6&#45;&gt;Node3</title>
<path fill="none" stroke="midnightblue" d="M594.877,-62.4035C602.149,-53.3143 613.795,-38.7559 622.841,-27.4489"/>
<polygon fill="midnightblue" stroke="midnightblue" points="625.622,-29.5757 629.136,-19.5806 620.155,-25.2029 625.622,-29.5757"/>
</g>
<!-- Node7&#45;&gt;Node3 -->
<g id="edge8" class="edge"><title>Node7&#45;&gt;Node3</title>
<path fill="none" stroke="midnightblue" d="M508.348,-62.4035C533.686,-52.2004 576.138,-35.1055 605.071,-23.4544"/>
<polygon fill="midnightblue" stroke="midnightblue" points="606.723,-26.5627 614.692,-19.5806 604.108,-20.0694 606.723,-26.5627"/>
</g>
<!-- Node11 -->
<g id="node11" class="node"><title>Node11</title>
<polygon fill="white" stroke="#bfbfbf" points="4440.5,-180.5 4440.5,-199.5 4499.5,-199.5 4499.5,-180.5 4440.5,-180.5"/>
<text text-anchor="middle" x="4470" y="-187.5" font-family="FreeSans" font-size="10.00">QListView</text>
</g>
<!-- Node10&#45;&gt;Node11 -->
<g id="edge12" class="edge"><title>Node10&#45;&gt;Node11</title>
<path fill="none" stroke="midnightblue" d="M2374.54,-236.526C2377.39,-236.334 2380.22,-236.157 2383,-236 2836.34,-210.342 3974.66,-249.708 4426,-200 4427.45,-199.84 4428.93,-199.655 4430.42,-199.45"/>
<polygon fill="midnightblue" stroke="midnightblue" points="4430.98,-202.904 4440.3,-197.848 4429.86,-195.994 4430.98,-202.904"/>
</g>
<!-- Node12&#45;&gt;Node3 -->
<g id="edge15" class="edge"><title>Node12&#45;&gt;Node3</title>
<path fill="none" stroke="midnightblue" d="M1908.45,-245.034C1735.77,-245.127 778.065,-243.673 736,-200 729.834,-193.598 731.415,-187.615 736,-180 753.639,-150.704 786.361,-173.296 804,-144 808.585,-136.385 806.382,-132.564 804,-124 794.543,-90 790.344,-78.3103 763,-56 735.197,-33.3149 695.112,-21.6585 667.448,-15.9591"/>
<polygon fill="midnightblue" stroke="midnightblue" points="667.985,-12.4984 657.505,-14.0558 666.669,-19.3736 667.985,-12.4984"/>
</g>
<!-- Node12&#45;&gt;Node4 -->
<g id="edge14" class="edge"><title>Node12&#45;&gt;Node4</title>
<path fill="none" stroke="midnightblue" d="M1961.62,-237.463C1964.43,-236.875 1967.26,-236.368 1970,-236 2033.19,-227.502 4220.27,-245.436 4265,-200 4271.24,-193.666 4269.62,-187.595 4265,-180 4250.96,-156.899 4183.21,-130.628 4157,-124 4081.09,-104.803 1493.26,-76.5182 1193.27,-73.3012"/>
<polygon fill="midnightblue" stroke="midnightblue" points="1192.88,-69.7969 1182.84,-73.1896 1192.81,-76.7965 1192.88,-69.7969"/>
</g>
<!-- Node12&#45;&gt;Node7 -->
<g id="edge53" class="edge"><title>Node12&#45;&gt;Node7</title>
<path fill="none" stroke="midnightblue" d="M1908.46,-244.652C1727,-242.201 674.526,-226.865 613,-200 559.552,-176.663 516.722,-119.234 497.689,-90.2806"/>
<polygon fill="midnightblue" stroke="midnightblue" points="500.502,-88.1827 492.166,-81.6438 494.605,-91.954 500.502,-88.1827"/>
</g>
<!-- Node13 -->
<g id="node13" class="node"><title>Node13</title>
<polygon fill="white" stroke="#bfbfbf" points="1141.5,-180.5 1141.5,-199.5 1266.5,-199.5 1266.5,-180.5 1141.5,-180.5"/>
<text text-anchor="middle" x="1204" y="-187.5" font-family="FreeSans" font-size="10.00">boost/filesystem/path.hpp</text>
</g>
<!-- Node12&#45;&gt;Node13 -->
<g id="edge16" class="edge"><title>Node12&#45;&gt;Node13</title>
<path fill="none" stroke="midnightblue" d="M1908.23,-243.734C1819.73,-239.428 1528.3,-224.312 1276.76,-200.122"/>
<polygon fill="midnightblue" stroke="midnightblue" points="1276.99,-196.628 1266.7,-199.148 1276.31,-203.596 1276.99,-196.628"/>
</g>
<!-- Node14 -->
<g id="node14" class="node"><title>Node14</title>
<polygon fill="white" stroke="#bfbfbf" points="1284.5,-180.5 1284.5,-199.5 1337.5,-199.5 1337.5,-180.5 1284.5,-180.5"/>
<text text-anchor="middle" x="1311" y="-187.5" font-family="FreeSans" font-size="10.00">QObject</text>
</g>
<!-- Node12&#45;&gt;Node14 -->
<g id="edge17" class="edge"><title>Node12&#45;&gt;Node14</title>
<path fill="none" stroke="midnightblue" d="M1908.44,-244.559C1826.35,-242.861 1569.44,-235.041 1347.51,-199.78"/>
<polygon fill="midnightblue" stroke="midnightblue" points="1348.06,-196.325 1337.63,-198.19 1346.95,-203.236 1348.06,-196.325"/>
</g>
<!-- Node15 -->
<g id="node15" class="node"><title>Node15</title>
<polygon fill="white" stroke="#bfbfbf" points="1356,-180.5 1356,-199.5 1430,-199.5 1430,-180.5 1356,-180.5"/>
<text text-anchor="middle" x="1393" y="-187.5" font-family="FreeSans" font-size="10.00">QModelIndex</text>
</g>
<!-- Node12&#45;&gt;Node15 -->
<g id="edge18" class="edge"><title>Node12&#45;&gt;Node15</title>
<path fill="none" stroke="midnightblue" d="M1908.27,-243.544C1835.07,-239.352 1625.03,-225.952 1440.27,-200.041"/>
<polygon fill="midnightblue" stroke="midnightblue" points="1440.49,-196.538 1430.1,-198.599 1439.51,-203.468 1440.49,-196.538"/>
</g>
<!-- Node16 -->
<g id="node16" class="node"><title>Node16</title>
<g id="a_node16"><a xlink:href="loadglob_8hpp.html" target="_top" xlink:title="components/esm/loadglob.hpp">
<polygon fill="white" stroke="red" points="1448.5,-180.5 1448.5,-199.5 1595.5,-199.5 1595.5,-180.5 1448.5,-180.5"/>
<text text-anchor="middle" x="1522" y="-187.5" font-family="FreeSans" font-size="10.00">components/esm/loadglob.hpp</text>
</a>
</g>
</g>
<!-- Node12&#45;&gt;Node16 -->
<g id="edge19" class="edge"><title>Node12&#45;&gt;Node16</title>
<path fill="none" stroke="midnightblue" d="M1908.22,-241.499C1846.22,-233.392 1690.97,-213.093 1597.27,-200.841"/>
<polygon fill="midnightblue" stroke="midnightblue" points="1597.65,-197.361 1587.28,-199.535 1596.74,-204.302 1597.65,-197.361"/>
</g>
<!-- Node17 -->
<g id="node17" class="node"><title>Node17</title>
<g id="a_node17"><a xlink:href="loadgmst_8hpp.html" target="_top" xlink:title="components/esm/loadgmst.hpp">
<polygon fill="white" stroke="red" points="1614,-180.5 1614,-199.5 1764,-199.5 1764,-180.5 1614,-180.5"/>
<text text-anchor="middle" x="1689" y="-187.5" font-family="FreeSans" font-size="10.00">components/esm/loadgmst.hpp</text>
</a>
</g>
</g>
<!-- Node12&#45;&gt;Node17 -->
<g id="edge20" class="edge"><title>Node12&#45;&gt;Node17</title>
<path fill="none" stroke="midnightblue" d="M1908.21,-239.118C1867.34,-230.149 1788.83,-212.913 1737.7,-201.69"/>
<polygon fill="midnightblue" stroke="midnightblue" points="1738.38,-198.255 1727.86,-199.53 1736.88,-205.093 1738.38,-198.255"/>
</g>
<!-- Node18 -->
<g id="node18" class="node"><title>Node18</title>
<g id="a_node18"><a xlink:href="loadskil_8hpp.html" target="_top" xlink:title="components/esm/loadskil.hpp">
<polygon fill="white" stroke="red" points="1782.5,-180.5 1782.5,-199.5 1925.5,-199.5 1925.5,-180.5 1782.5,-180.5"/>
<text text-anchor="middle" x="1854" y="-187.5" font-family="FreeSans" font-size="10.00">components/esm/loadskil.hpp</text>
</a>
</g>
</g>
<!-- Node12&#45;&gt;Node18 -->
<g id="edge21" class="edge"><title>Node12&#45;&gt;Node18</title>
<path fill="none" stroke="midnightblue" d="M1921.99,-236.324C1909.47,-227.979 1890.32,-215.212 1875.53,-205.352"/>
<polygon fill="midnightblue" stroke="midnightblue" points="1877.24,-202.289 1866.98,-199.655 1873.36,-208.114 1877.24,-202.289"/>
</g>
<!-- Node19 -->
<g id="node19" class="node"><title>Node19</title>
<g id="a_node19"><a xlink:href="loadclas_8hpp.html" target="_top" xlink:title="components/esm/loadclas.hpp">
<polygon fill="white" stroke="red" points="1944,-180.5 1944,-199.5 2090,-199.5 2090,-180.5 1944,-180.5"/>
<text text-anchor="middle" x="2017" y="-187.5" font-family="FreeSans" font-size="10.00">components/esm/loadclas.hpp</text>
</a>
</g>
</g>
<!-- Node12&#45;&gt;Node19 -->
<g id="edge22" class="edge"><title>Node12&#45;&gt;Node19</title>
<path fill="none" stroke="midnightblue" d="M1948.17,-236.324C1960.85,-227.979 1980.23,-215.212 1995.21,-205.352"/>
<polygon fill="midnightblue" stroke="midnightblue" points="1997.43,-208.078 2003.86,-199.655 1993.58,-202.231 1997.43,-208.078"/>
</g>
<!-- Node20 -->
<g id="node20" class="node"><title>Node20</title>
<g id="a_node20"><a xlink:href="loadfact_8hpp.html" target="_top" xlink:title="components/esm/loadfact.hpp">
<polygon fill="white" stroke="red" points="4238,-124.5 4238,-143.5 4384,-143.5 4384,-124.5 4238,-124.5"/>
<text text-anchor="middle" x="4311" y="-131.5" font-family="FreeSans" font-size="10.00">components/esm/loadfact.hpp</text>
</a>
</g>
</g>
<!-- Node12&#45;&gt;Node20 -->
<g id="edge23" class="edge"><title>Node12&#45;&gt;Node20</title>
<path fill="none" stroke="midnightblue" d="M1961.62,-237.462C1964.43,-236.874 1967.26,-236.367 1970,-236 2034.68,-227.313 4273.21,-246.496 4319,-200 4331.06,-187.757 4326.09,-167.317 4320,-152.624"/>
<polygon fill="midnightblue" stroke="midnightblue" points="4323.17,-151.148 4315.8,-143.542 4316.82,-154.088 4323.17,-151.148"/>
</g>
<!-- Node21 -->
<g id="node21" class="node"><title>Node21</title>
<g id="a_node21"><a xlink:href="loadrace_8hpp.html" target="_top" xlink:title="components/esm/loadrace.hpp">
<polygon fill="white" stroke="red" points="2108,-180.5 2108,-199.5 2256,-199.5 2256,-180.5 2108,-180.5"/>
<text text-anchor="middle" x="2182" y="-187.5" font-family="FreeSans" font-size="10.00">components/esm/loadrace.hpp</text>
</a>
</g>
</g>
<!-- Node12&#45;&gt;Node21 -->
<g id="edge25" class="edge"><title>Node12&#45;&gt;Node21</title>
<path fill="none" stroke="midnightblue" d="M1961.72,-238.003C1964.51,-237.31 1967.31,-236.63 1970,-236 2024.09,-223.311 2086.31,-210.288 2129.29,-201.539"/>
<polygon fill="midnightblue" stroke="midnightblue" points="2130.14,-204.938 2139.25,-199.519 2128.75,-198.078 2130.14,-204.938"/>
</g>
<!-- Node22 -->
<g id="node22" class="node"><title>Node22</title>
<g id="a_node22"><a xlink:href="loadsoun_8hpp.html" target="_top" xlink:title="components/esm/loadsoun.hpp">
<polygon fill="white" stroke="red" points="2274.5,-180.5 2274.5,-199.5 2423.5,-199.5 2423.5,-180.5 2274.5,-180.5"/>
<text text-anchor="middle" x="2349" y="-187.5" font-family="FreeSans" font-size="10.00">components/esm/loadsoun.hpp</text>
</a>
</g>
</g>
<!-- Node12&#45;&gt;Node22 -->
<g id="edge26" class="edge"><title>Node12&#45;&gt;Node22</title>
<path fill="none" stroke="midnightblue" d="M1961.67,-237.751C1964.47,-237.107 1967.29,-236.508 1970,-236 1998.17,-230.731 2161.33,-212.035 2264.18,-200.464"/>
<polygon fill="midnightblue" stroke="midnightblue" points="2264.7,-203.928 2274.25,-199.332 2263.92,-196.971 2264.7,-203.928"/>
</g>
<!-- Node23 -->
<g id="node23" class="node"><title>Node23</title>
<g id="a_node23"><a xlink:href="loadscpt_8hpp.html" target="_top" xlink:title="components/esm/loadscpt.hpp">
<polygon fill="white" stroke="red" points="851.5,-62.5 851.5,-81.5 998.5,-81.5 998.5,-62.5 851.5,-62.5"/>
<text text-anchor="middle" x="925" y="-69.5" font-family="FreeSans" font-size="10.00">components/esm/loadscpt.hpp</text>
</a>
</g>
</g>
<!-- Node12&#45;&gt;Node23 -->
<g id="edge27" class="edge"><title>Node12&#45;&gt;Node23</title>
<path fill="none" stroke="midnightblue" d="M1908.27,-244.619C1753.66,-242.31 979.318,-229.309 939,-200 905.895,-175.934 913.237,-120.587 919.92,-91.5514"/>
<polygon fill="midnightblue" stroke="midnightblue" points="923.4,-92.0661 922.45,-81.5138 916.612,-90.355 923.4,-92.0661"/>
</g>
<!-- Node24 -->
<g id="node24" class="node"><title>Node24</title>
<g id="a_node24"><a xlink:href="loadregn_8hpp.html" target="_top" xlink:title="components/esm/loadregn.hpp">
<polygon fill="white" stroke="red" points="2769,-62.5 2769,-81.5 2917,-81.5 2917,-62.5 2769,-62.5"/>
<text text-anchor="middle" x="2843" y="-69.5" font-family="FreeSans" font-size="10.00">components/esm/loadregn.hpp</text>
</a>
</g>
</g>
<!-- Node12&#45;&gt;Node24 -->
<g id="edge29" class="edge"><title>Node12&#45;&gt;Node24</title>
<path fill="none" stroke="midnightblue" d="M1961.62,-237.462C1964.43,-236.874 1967.26,-236.367 1970,-236 2100.29,-218.508 4214.71,-250.694 4336,-200 4368.77,-186.305 4379.26,-176.75 4393,-144 4396.44,-135.803 4399.18,-130.388 4393,-124 4341.72,-71.0033 3242.64,-71.3663 2927.04,-72.5707"/>
<polygon fill="midnightblue" stroke="midnightblue" points="2927.03,-69.0707 2917.04,-72.6102 2927.05,-76.0706 2927.03,-69.0707"/>
</g>
<!-- Node25 -->
<g id="node25" class="node"><title>Node25</title>
<g id="a_node25"><a xlink:href="loadbsgn_8hpp.html" target="_top" xlink:title="components/esm/loadbsgn.hpp">
<polygon fill="white" stroke="red" points="2441.5,-180.5 2441.5,-199.5 2590.5,-199.5 2590.5,-180.5 2441.5,-180.5"/>
<text text-anchor="middle" x="2516" y="-187.5" font-family="FreeSans" font-size="10.00">components/esm/loadbsgn.hpp</text>
</a>
</g>
</g>
<!-- Node12&#45;&gt;Node25 -->
<g id="edge31" class="edge"><title>Node12&#45;&gt;Node25</title>
<path fill="none" stroke="midnightblue" d="M1961.65,-237.638C1964.46,-237.016 1967.28,-236.453 1970,-236 2169.89,-202.771 2225.15,-218.446 2431.11,-200.043"/>
<polygon fill="midnightblue" stroke="midnightblue" points="2431.71,-203.503 2441.36,-199.111 2431.08,-196.532 2431.71,-203.503"/>
</g>
<!-- Node26 -->
<g id="node26" class="node"><title>Node26</title>
<g id="a_node26"><a xlink:href="loadspel_8hpp.html" target="_top" xlink:title="components/esm/loadspel.hpp">
<polygon fill="white" stroke="red" points="2609,-180.5 2609,-199.5 2755,-199.5 2755,-180.5 2609,-180.5"/>
<text text-anchor="middle" x="2682" y="-187.5" font-family="FreeSans" font-size="10.00">components/esm/loadspel.hpp</text>
</a>
</g>
</g>
<!-- Node12&#45;&gt;Node26 -->
<g id="edge32" class="edge"><title>Node12&#45;&gt;Node26</title>
<path fill="none" stroke="midnightblue" d="M1961.64,-237.58C1964.45,-236.969 1967.27,-236.425 1970,-236 2243.44,-193.434 2318.2,-222.403 2598.64,-199.972"/>
<polygon fill="midnightblue" stroke="midnightblue" points="2599.02,-203.453 2608.7,-199.153 2598.45,-196.476 2599.02,-203.453"/>
</g>
<!-- Node27 -->
<g id="node27" class="node"><title>Node27</title>
<g id="a_node27"><a xlink:href="loaddial_8hpp.html" target="_top" xlink:title="components/esm/loaddial.hpp">
<polygon fill="white" stroke="red" points="927,-124.5 927,-143.5 1071,-143.5 1071,-124.5 927,-124.5"/>
<text text-anchor="middle" x="999" y="-131.5" font-family="FreeSans" font-size="10.00">components/esm/loaddial.hpp</text>
</a>
</g>
</g>
<!-- Node12&#45;&gt;Node27 -->
<g id="edge33" class="edge"><title>Node12&#45;&gt;Node27</title>
<path fill="none" stroke="midnightblue" d="M1908.34,-244.811C1754.13,-243.592 982.124,-235.715 948,-200 932.377,-183.648 955.343,-162.783 975.292,-149.165"/>
<polygon fill="midnightblue" stroke="midnightblue" points="977.331,-152.014 983.815,-143.635 973.521,-146.142 977.331,-152.014"/>
</g>
<!-- Node28 -->
<g id="node28" class="node"><title>Node28</title>
<g id="a_node28"><a xlink:href="loadench_8hpp.html" target="_top" xlink:title="components/esm/loadench.hpp">
<polygon fill="white" stroke="red" points="2773,-180.5 2773,-199.5 2923,-199.5 2923,-180.5 2773,-180.5"/>
<text text-anchor="middle" x="2848" y="-187.5" font-family="FreeSans" font-size="10.00">components/esm/loadench.hpp</text>
</a>
</g>
</g>
<!-- Node12&#45;&gt;Node28 -->
<g id="edge35" class="edge"><title>Node12&#45;&gt;Node28</title>
<path fill="none" stroke="midnightblue" d="M1961.64,-237.547C1964.44,-236.942 1967.27,-236.408 1970,-236 2316.12,-184.22 2410.03,-226.038 2762.93,-200.025"/>
<polygon fill="midnightblue" stroke="midnightblue" points="2763.2,-203.514 2772.92,-199.276 2762.68,-196.534 2763.2,-203.514"/>
</g>
<!-- Node29 -->
<g id="node29" class="node"><title>Node29</title>
<g id="a_node29"><a xlink:href="loadbody_8hpp.html" target="_top" xlink:title="components/esm/loadbody.hpp">
<polygon fill="white" stroke="red" points="2940.5,-180.5 2940.5,-199.5 3089.5,-199.5 3089.5,-180.5 2940.5,-180.5"/>
<text text-anchor="middle" x="3015" y="-187.5" font-family="FreeSans" font-size="10.00">components/esm/loadbody.hpp</text>
</a>
</g>
</g>
<!-- Node12&#45;&gt;Node29 -->
<g id="edge36" class="edge"><title>Node12&#45;&gt;Node29</title>
<path fill="none" stroke="midnightblue" d="M1961.63,-237.524C1964.44,-236.925 1967.27,-236.398 1970,-236 2389.65,-174.907 2502.93,-229.912 2930.22,-199.99"/>
<polygon fill="midnightblue" stroke="midnightblue" points="2930.64,-203.469 2940.37,-199.267 2930.15,-196.486 2930.64,-203.469"/>
</g>
<!-- Node30 -->
<g id="node30" class="node"><title>Node30</title>
<g id="a_node30"><a xlink:href="loadsndg_8hpp.html" target="_top" xlink:title="components/esm/loadsndg.hpp">
<polygon fill="white" stroke="red" points="3107.5,-180.5 3107.5,-199.5 3256.5,-199.5 3256.5,-180.5 3107.5,-180.5"/>
<text text-anchor="middle" x="3182" y="-187.5" font-family="FreeSans" font-size="10.00">components/esm/loadsndg.hpp</text>
</a>
</g>
</g>
<!-- Node12&#45;&gt;Node30 -->
<g id="edge37" class="edge"><title>Node12&#45;&gt;Node30</title>
<path fill="none" stroke="midnightblue" d="M1961.63,-237.509C1964.44,-236.912 1967.27,-236.39 1970,-236 2463.28,-165.582 2595.87,-233.83 3097.34,-199.976"/>
<polygon fill="midnightblue" stroke="midnightblue" points="3097.63,-203.465 3107.37,-199.289 3097.15,-196.481 3097.63,-203.465"/>
</g>
<!-- Node31 -->
<g id="node31" class="node"><title>Node31</title>
<g id="a_node31"><a xlink:href="loadmgef_8hpp.html" target="_top" xlink:title="components/esm/loadmgef.hpp">
<polygon fill="white" stroke="red" points="1089.5,-124.5 1089.5,-143.5 1240.5,-143.5 1240.5,-124.5 1089.5,-124.5"/>
<text text-anchor="middle" x="1165" y="-131.5" font-family="FreeSans" font-size="10.00">components/esm/loadmgef.hpp</text>
</a>
</g>
</g>
<!-- Node12&#45;&gt;Node31 -->
<g id="edge38" class="edge"><title>Node12&#45;&gt;Node31</title>
<path fill="none" stroke="midnightblue" d="M1908.3,-244.801C1754.76,-243.527 989.823,-235.413 956,-200 949.861,-193.572 950.415,-186.915 956,-180 965.075,-168.764 1040.38,-154.555 1098.02,-145.143"/>
<polygon fill="midnightblue" stroke="midnightblue" points="1098.88,-148.549 1108.2,-143.501 1097.77,-141.639 1098.88,-148.549"/>
</g>
<!-- Node32 -->
<g id="node32" class="node"><title>Node32</title>
<g id="a_node32"><a xlink:href="loadsscr_8hpp.html" target="_top" xlink:title="components/esm/loadsscr.hpp">
<polygon fill="white" stroke="red" points="3275,-180.5 3275,-199.5 3421,-199.5 3421,-180.5 3275,-180.5"/>
<text text-anchor="middle" x="3348" y="-187.5" font-family="FreeSans" font-size="10.00">components/esm/loadsscr.hpp</text>
</a>
</g>
</g>
<!-- Node12&#45;&gt;Node32 -->
<g id="edge40" class="edge"><title>Node12&#45;&gt;Node32</title>
<path fill="none" stroke="midnightblue" d="M1961.63,-237.497C1964.44,-236.903 1967.27,-236.385 1970,-236 2251.88,-196.351 2961.6,-219.01 3264.54,-199.936"/>
<polygon fill="midnightblue" stroke="midnightblue" points="3264.96,-203.416 3274.71,-199.27 3264.5,-196.431 3264.96,-203.416"/>
</g>
<!-- Node33 -->
<g id="node33" class="node"><title>Node33</title>
<g id="a_node33"><a xlink:href="debugprofile_8hpp.html" target="_top" xlink:title="components/esm/debugprofile.hpp">
<polygon fill="white" stroke="red" points="3439.5,-180.5 3439.5,-199.5 3602.5,-199.5 3602.5,-180.5 3439.5,-180.5"/>
<text text-anchor="middle" x="3521" y="-187.5" font-family="FreeSans" font-size="10.00">components/esm/debugprofile.hpp</text>
</a>
</g>
</g>
<!-- Node12&#45;&gt;Node33 -->
<g id="edge41" class="edge"><title>Node12&#45;&gt;Node33</title>
<path fill="none" stroke="midnightblue" d="M1961.63,-237.488C1964.44,-236.896 1967.27,-236.38 1970,-236 2288.23,-191.747 3089.81,-219.418 3429.02,-199.985"/>
<polygon fill="midnightblue" stroke="midnightblue" points="3429.4,-203.469 3439.17,-199.381 3428.98,-196.482 3429.4,-203.469"/>
</g>
<!-- Node34 -->
<g id="node34" class="node"><title>Node34</title>
<g id="a_node34"><a xlink:href="components_2esm_2filter_8hpp.html" target="_top" xlink:title="components/esm/filter.hpp">
<polygon fill="white" stroke="red" points="3620.5,-180.5 3620.5,-199.5 3749.5,-199.5 3749.5,-180.5 3620.5,-180.5"/>
<text text-anchor="middle" x="3685" y="-187.5" font-family="FreeSans" font-size="10.00">components/esm/filter.hpp</text>
</a>
</g>
</g>
<!-- Node12&#45;&gt;Node34 -->
<g id="edge42" class="edge"><title>Node12&#45;&gt;Node34</title>
<path fill="none" stroke="midnightblue" d="M1961.63,-237.481C1964.44,-236.889 1967.27,-236.377 1970,-236 2328.08,-186.702 3230.68,-225.339 3610.21,-199.942"/>
<polygon fill="midnightblue" stroke="midnightblue" points="3610.73,-203.414 3620.46,-199.231 3610.24,-196.431 3610.73,-203.414"/>
</g>
<!-- Node35 -->
<g id="node35" class="node"><title>Node35</title>
<g id="a_node35"><a xlink:href="resourcesystem_8hpp.html" target="_top" xlink:title="components/resource\l/resourcesystem.hpp">
<polygon fill="white" stroke="red" points="-0.5,-57 -0.5,-87 108.5,-87 108.5,-57 -0.5,-57"/>
<text text-anchor="start" x="7.5" y="-75" font-family="FreeSans" font-size="10.00">components/resource</text>
<text text-anchor="middle" x="54" y="-64" font-family="FreeSans" font-size="10.00">/resourcesystem.hpp</text>
</a>
</g>
</g>
<!-- Node12&#45;&gt;Node35 -->
<g id="edge43" class="edge"><title>Node12&#45;&gt;Node35</title>
<path fill="none" stroke="midnightblue" d="M1908.36,-244.791C1715,-243.197 530.002,-232.162 374,-200 265.867,-177.707 147.178,-121.464 89.4637,-91.8715"/>
<polygon fill="midnightblue" stroke="midnightblue" points="90.8946,-88.6711 80.4041,-87.1874 87.6796,-94.8892 90.8946,-88.6711"/>
</g>
<!-- Node36 -->
<g id="node36" class="node"><title>Node36</title>
<g id="a_node36"><a xlink:href="to__utf8_8hpp.html" target="_top" xlink:title="components/to_utf8\l/to_utf8.hpp">
<polygon fill="white" stroke="red" points="127,-57 127,-87 229,-87 229,-57 127,-57"/>
<text text-anchor="start" x="135" y="-75" font-family="FreeSans" font-size="10.00">components/to_utf8</text>
<text text-anchor="middle" x="178" y="-64" font-family="FreeSans" font-size="10.00">/to_utf8.hpp</text>
</a>
</g>
</g>
<!-- Node12&#45;&gt;Node36 -->
<g id="edge45" class="edge"><title>Node12&#45;&gt;Node36</title>
<path fill="none" stroke="midnightblue" d="M1908.35,-244.745C1719.92,-242.871 591.844,-230.436 443,-200 350.73,-181.132 253.735,-123.437 206.809,-92.7225"/>
<polygon fill="midnightblue" stroke="midnightblue" points="208.645,-89.7404 198.374,-87.1378 204.78,-95.5769 208.645,-89.7404"/>
</g>
<!-- Node37 -->
<g id="node37" class="node"><title>Node37</title>
<g id="a_node37"><a xlink:href="stage_8hpp.html" target="_top" xlink:title="../doc/stage.hpp">
<polygon fill="white" stroke="red" points="599,-124.5 599,-143.5 683,-143.5 683,-124.5 599,-124.5"/>
<text text-anchor="middle" x="641" y="-131.5" font-family="FreeSans" font-size="10.00">../doc/stage.hpp</text>
</a>
</g>
</g>
<!-- Node12&#45;&gt;Node37 -->
<g id="edge47" class="edge"><title>Node12&#45;&gt;Node37</title>
<path fill="none" stroke="midnightblue" d="M1908.39,-244.656C1733.18,-242.317 750.253,-227.975 694,-200 673.894,-190.001 658.778,-168.46 649.937,-152.912"/>
<polygon fill="midnightblue" stroke="midnightblue" points="652.839,-150.917 645.044,-143.742 646.664,-154.212 652.839,-150.917"/>
</g>
<!-- Node38 -->
<g id="node38" class="node"><title>Node38</title>
<g id="a_node38"><a xlink:href="idcollection_8hpp.html" target="_top" xlink:title="idcollection.hpp">
<polygon fill="white" stroke="red" points="3767.5,-180.5 3767.5,-199.5 3850.5,-199.5 3850.5,-180.5 3767.5,-180.5"/>
<text text-anchor="middle" x="3809" y="-187.5" font-family="FreeSans" font-size="10.00">idcollection.hpp</text>
</a>
</g>
</g>
<!-- Node12&#45;&gt;Node38 -->
<g id="edge50" class="edge"><title>Node12&#45;&gt;Node38</title>
<path fill="none" stroke="midnightblue" d="M1961.63,-237.476C1964.44,-236.885 1967.26,-236.374 1970,-236 2360.48,-182.6 3345.93,-237.717 3757.12,-199.865"/>
<polygon fill="midnightblue" stroke="midnightblue" points="3757.7,-203.326 3767.32,-198.895 3757.04,-196.358 3757.7,-203.326"/>
</g>
<!-- Node39 -->
<g id="node39" class="node"><title>Node39</title>
<g id="a_node39"><a xlink:href="nestedidcollection_8hpp.html" target="_top" xlink:title="nestedidcollection.hpp">
<polygon fill="white" stroke="red" points="4037,-124.5 4037,-143.5 4149,-143.5 4149,-124.5 4037,-124.5"/>
<text text-anchor="middle" x="4093" y="-131.5" font-family="FreeSans" font-size="10.00">nestedidcollection.hpp</text>
</a>
</g>
</g>
<!-- Node12&#45;&gt;Node39 -->
<g id="edge51" class="edge"><title>Node12&#45;&gt;Node39</title>
<path fill="none" stroke="midnightblue" d="M1961.62,-237.464C1964.43,-236.876 1967.26,-236.368 1970,-236 2032.69,-227.564 4202.62,-245.082 4247,-200 4278.81,-167.68 4214.4,-150.597 4159.39,-142.193"/>
<polygon fill="midnightblue" stroke="midnightblue" points="4159.65,-138.694 4149.25,-140.723 4158.64,-145.622 4159.65,-138.694"/>
</g>
<!-- Node40 -->
<g id="node40" class="node"><title>Node40</title>
<g id="a_node40"><a xlink:href="opencs_2model_2world_2cell_8hpp.html" target="_top" xlink:title="cell.hpp">
<polygon fill="white" stroke="red" points="309,-124.5 309,-143.5 359,-143.5 359,-124.5 309,-124.5"/>
<text text-anchor="middle" x="334" y="-131.5" font-family="FreeSans" font-size="10.00">cell.hpp</text>
</a>
</g>
</g>
<!-- Node12&#45;&gt;Node40 -->
<g id="edge54" class="edge"><title>Node12&#45;&gt;Node40</title>
<path fill="none" stroke="midnightblue" d="M1908.27,-244.642C1725.25,-242.126 660.359,-226.428 519,-200 461.19,-189.192 397.155,-163.37 361.623,-147.72"/>
<polygon fill="midnightblue" stroke="midnightblue" points="362.945,-144.477 352.386,-143.597 360.091,-150.869 362.945,-144.477"/>
</g>
<!-- Node41 -->
<g id="node41" class="node"><title>Node41</title>
<g id="a_node41"><a xlink:href="land_8hpp.html" target="_top" xlink:title="land.hpp">
<polygon fill="white" stroke="red" points="3868.5,-180.5 3868.5,-199.5 3921.5,-199.5 3921.5,-180.5 3868.5,-180.5"/>
<text text-anchor="middle" x="3895" y="-187.5" font-family="FreeSans" font-size="10.00">land.hpp</text>
</a>
</g>
</g>
<!-- Node12&#45;&gt;Node41 -->
<g id="edge56" class="edge"><title>Node12&#45;&gt;Node41</title>
<path fill="none" stroke="midnightblue" d="M1961.63,-237.473C1964.44,-236.883 1967.26,-236.373 1970,-236 2382.76,-179.779 3426.33,-254.089 3858.3,-199.673"/>
<polygon fill="midnightblue" stroke="midnightblue" points="3858.93,-203.121 3868.39,-198.363 3858.03,-196.18 3858.93,-203.121"/>
</g>
<!-- Node42 -->
<g id="node42" class="node"><title>Node42</title>
<g id="a_node42"><a xlink:href="landtexture_8hpp.html" target="_top" xlink:title="landtexture.hpp">
<polygon fill="white" stroke="red" points="3940,-180.5 3940,-199.5 4022,-199.5 4022,-180.5 3940,-180.5"/>
<text text-anchor="middle" x="3981" y="-187.5" font-family="FreeSans" font-size="10.00">landtexture.hpp</text>
</a>
</g>
</g>
<!-- Node12&#45;&gt;Node42 -->
<g id="edge57" class="edge"><title>Node12&#45;&gt;Node42</title>
<path fill="none" stroke="midnightblue" d="M1961.63,-237.471C1964.44,-236.881 1967.26,-236.372 1970,-236 2398.4,-177.8 3479.87,-241.01 3929.7,-199.786"/>
<polygon fill="midnightblue" stroke="midnightblue" points="3930.25,-203.25 3939.88,-198.825 3929.6,-196.281 3930.25,-203.25"/>
</g>
<!-- Node43 -->
<g id="node43" class="node"><title>Node43</title>
<g id="a_node43"><a xlink:href="refidcollection_8hpp.html" target="_top" xlink:title="refidcollection.hpp">
<polygon fill="white" stroke="red" points="701,-124.5 701,-143.5 795,-143.5 795,-124.5 701,-124.5"/>
<text text-anchor="middle" x="748" y="-131.5" font-family="FreeSans" font-size="10.00">refidcollection.hpp</text>
</a>
</g>
</g>
<!-- Node12&#45;&gt;Node43 -->
<g id="edge58" class="edge"><title>Node12&#45;&gt;Node43</title>
<path fill="none" stroke="midnightblue" d="M1908.28,-245.062C1732.4,-245.341 746.29,-244.9 703,-200 688.1,-184.546 708.204,-163.713 726.102,-149.842"/>
<polygon fill="midnightblue" stroke="midnightblue" points="728.555,-152.383 734.547,-143.646 724.414,-146.739 728.555,-152.383"/>
</g>
<!-- Node44 -->
<g id="node44" class="node"><title>Node44</title>
<g id="a_node44"><a xlink:href="refcollection_8hpp.html" target="_top" xlink:title="refcollection.hpp">
<polygon fill="white" stroke="red" points="745.5,-180.5 745.5,-199.5 832.5,-199.5 832.5,-180.5 745.5,-180.5"/>
<text text-anchor="middle" x="789" y="-187.5" font-family="FreeSans" font-size="10.00">refcollection.hpp</text>
</a>
</g>
</g>
<!-- Node12&#45;&gt;Node44 -->
<g id="edge62" class="edge"><title>Node12&#45;&gt;Node44</title>
<path fill="none" stroke="midnightblue" d="M1908.41,-245.002C1786.52,-244.782 1268.93,-241.329 847,-200 845.542,-199.857 844.065,-199.702 842.576,-199.536"/>
<polygon fill="midnightblue" stroke="midnightblue" points="842.991,-196.061 832.637,-198.31 842.134,-203.008 842.991,-196.061"/>
</g>
<!-- Node45 -->
<g id="node45" class="node"><title>Node45</title>
<g id="a_node45"><a xlink:href="infocollection_8hpp.html" target="_top" xlink:title="infocollection.hpp">
<polygon fill="white" stroke="red" points="1297,-124.5 1297,-143.5 1389,-143.5 1389,-124.5 1297,-124.5"/>
<text text-anchor="middle" x="1343" y="-131.5" font-family="FreeSans" font-size="10.00">infocollection.hpp</text>
</a>
</g>
</g>
<!-- Node12&#45;&gt;Node45 -->
<g id="edge65" class="edge"><title>Node12&#45;&gt;Node45</title>
<path fill="none" stroke="midnightblue" d="M1908.37,-244.524C1772.23,-241.962 1159.28,-228.852 1132,-200 1125.89,-193.541 1126.41,-186.91 1132,-180 1141.79,-167.906 1227.74,-152.557 1286.87,-143.271"/>
<polygon fill="midnightblue" stroke="midnightblue" points="1287.5,-146.715 1296.85,-141.722 1286.43,-139.798 1287.5,-146.715"/>
</g>
<!-- Node46 -->
<g id="node46" class="node"><title>Node46</title>
<g id="a_node46"><a xlink:href="nestedinfocollection_8hpp.html" target="_top" xlink:title="nestedinfocollection.hpp">
<polygon fill="white" stroke="red" points="965,-180.5 965,-199.5 1085,-199.5 1085,-180.5 965,-180.5"/>
<text text-anchor="middle" x="1025" y="-187.5" font-family="FreeSans" font-size="10.00">nestedinfocollection.hpp</text>
</a>
</g>
</g>
<!-- Node12&#45;&gt;Node46 -->
<g id="edge66" class="edge"><title>Node12&#45;&gt;Node46</title>
<path fill="none" stroke="midnightblue" d="M1908.24,-244.215C1804.23,-241.024 1416.82,-227.849 1099,-200 1097.73,-199.889 1096.45,-199.773 1095.16,-199.653"/>
<polygon fill="midnightblue" stroke="midnightblue" points="1095.44,-196.163 1085.14,-198.657 1094.75,-203.129 1095.44,-196.163"/>
</g>
<!-- Node47 -->
<g id="node47" class="node"><title>Node47</title>
<g id="a_node47"><a xlink:href="opencs_2model_2world_2pathgrid_8hpp.html" target="_top" xlink:title="pathgrid.hpp">
<polygon fill="white" stroke="red" points="649.5,-62.5 649.5,-81.5 718.5,-81.5 718.5,-62.5 649.5,-62.5"/>
<text text-anchor="middle" x="684" y="-69.5" font-family="FreeSans" font-size="10.00">pathgrid.hpp</text>
</a>
</g>
</g>
<!-- Node12&#45;&gt;Node47 -->
<g id="edge69" class="edge"><title>Node12&#45;&gt;Node47</title>
<path fill="none" stroke="midnightblue" d="M1908.5,-244.998C1736.97,-244.863 787.134,-242.201 666,-200 620.89,-184.284 565.57,-165.049 590,-124 597.167,-111.957 628.569,-96.383 653.131,-85.6299"/>
<polygon fill="midnightblue" stroke="midnightblue" points="654.666,-88.7797 662.478,-81.6221 651.908,-82.3462 654.666,-88.7797"/>
</g>
<!-- Node48 -->
<g id="node48" class="node"><title>Node48</title>
<g id="a_node48"><a xlink:href="metadata_8hpp.html" target="_top" xlink:title="metadata.hpp">
<polygon fill="white" stroke="red" points="4163.5,-180.5 4163.5,-199.5 4238.5,-199.5 4238.5,-180.5 4163.5,-180.5"/>
<text text-anchor="middle" x="4201" y="-187.5" font-family="FreeSans" font-size="10.00">metadata.hpp</text>
</a>
</g>
</g>
<!-- Node12&#45;&gt;Node48 -->
<g id="edge71" class="edge"><title>Node12&#45;&gt;Node48</title>
<path fill="none" stroke="midnightblue" d="M1961.63,-237.465C1964.43,-236.877 1967.26,-236.369 1970,-236 2447.75,-171.553 3654.52,-248.761 4153.18,-199.826"/>
<polygon fill="midnightblue" stroke="midnightblue" points="4153.78,-203.284 4163.37,-198.798 4153.07,-196.319 4153.78,-203.284"/>
</g>
<!-- Node49 -->
<g id="node49" class="node"><title>Node49</title>
<g id="a_node49"><a xlink:href="subcellcollection_8hpp.html" target="_top" xlink:title="subcellcollection.hpp">
<polygon fill="white" stroke="black" points="4040,-180.5 4040,-199.5 4146,-199.5 4146,-180.5 4040,-180.5"/>
<text text-anchor="middle" x="4093" y="-187.5" font-family="FreeSans" font-size="10.00">subcellcollection.hpp</text>
</a>
</g>
</g>
<!-- Node12&#45;&gt;Node49 -->
<g id="edge72" class="edge"><title>Node12&#45;&gt;Node49</title>
<path fill="none" stroke="midnightblue" d="M1961.63,-237.468C1964.44,-236.879 1967.26,-236.37 1970,-236 2420.71,-174.975 3558.17,-236.098 4029.96,-199.94"/>
<polygon fill="midnightblue" stroke="midnightblue" points="4030.26,-203.428 4039.95,-199.152 4029.71,-196.449 4030.26,-203.428"/>
</g>
<!-- Node20&#45;&gt;Node4 -->
<g id="edge24" class="edge"><title>Node20&#45;&gt;Node4</title>
<path fill="none" stroke="midnightblue" d="M4237.94,-124.979C4233.22,-124.605 4228.55,-124.273 4224,-124 3904.85,-104.868 1479.99,-76.6092 1192.77,-73.3165"/>
<polygon fill="midnightblue" stroke="midnightblue" points="1192.8,-69.8167 1182.76,-73.202 1192.72,-76.8163 1192.8,-69.8167"/>
</g>
<!-- Node23&#45;&gt;Node3 -->
<g id="edge28" class="edge"><title>Node23&#45;&gt;Node3</title>
<path fill="none" stroke="midnightblue" d="M883.9,-62.4672C825.729,-50.3902 720.61,-28.5662 667.92,-17.6271"/>
<polygon fill="midnightblue" stroke="midnightblue" points="668.312,-14.1338 657.809,-15.5279 666.889,-20.9877 668.312,-14.1338"/>
</g>
<!-- Node24&#45;&gt;Node3 -->
<g id="edge30" class="edge"><title>Node24&#45;&gt;Node3</title>
<path fill="none" stroke="midnightblue" d="M2768.94,-68.9865C2415.28,-59.3718 905.669,-18.3313 667.651,-11.8605"/>
<polygon fill="midnightblue" stroke="midnightblue" points="667.678,-8.36001 657.587,-11.5869 667.488,-15.3574 667.678,-8.36001"/>
</g>
<!-- Node27&#45;&gt;Node4 -->
<g id="edge34" class="edge"><title>Node27&#45;&gt;Node4</title>
<path fill="none" stroke="midnightblue" d="M1022.78,-124.403C1053.2,-113.41 1105.75,-94.414 1137.75,-82.8491"/>
<polygon fill="midnightblue" stroke="midnightblue" points="1139.15,-86.0658 1147.36,-79.3749 1136.77,-79.4826 1139.15,-86.0658"/>
</g>
<!-- Node31&#45;&gt;Node4 -->
<g id="edge39" class="edge"><title>Node31&#45;&gt;Node4</title>
<path fill="none" stroke="midnightblue" d="M1165,-124.403C1165,-115.938 1165,-102.728 1165,-91.8199"/>
<polygon fill="midnightblue" stroke="midnightblue" points="1168.5,-91.5806 1165,-81.5806 1161.5,-91.5806 1168.5,-91.5806"/>
</g>
<!-- Node35&#45;&gt;Node3 -->
<g id="edge44" class="edge"><title>Node35&#45;&gt;Node3</title>
<path fill="none" stroke="midnightblue" d="M108.71,-57.6324C111.845,-57.0366 114.957,-56.4862 118,-56 300.56,-26.8312 522.553,-15.5322 604.04,-12.1796"/>
<polygon fill="midnightblue" stroke="midnightblue" points="604.298,-15.6722 614.15,-11.7752 604.018,-8.67777 604.298,-15.6722"/>
</g>
<!-- Node36&#45;&gt;Node3 -->
<g id="edge46" class="edge"><title>Node36&#45;&gt;Node3</title>
<path fill="none" stroke="midnightblue" d="M229.339,-58.5894C233.945,-57.6466 238.549,-56.7659 243,-56 376.031,-33.1091 536.461,-18.8412 603.791,-13.4494"/>
<polygon fill="midnightblue" stroke="midnightblue" points="604.456,-16.9078 614.149,-12.6314 603.905,-9.92955 604.456,-16.9078"/>
</g>
<!-- Node37&#45;&gt;Node3 -->
<g id="edge48" class="edge"><title>Node37&#45;&gt;Node3</title>
<path fill="none" stroke="midnightblue" d="M675.184,-124.493C693.993,-117.877 715.743,-106.596 727,-88 734.365,-75.8335 734.504,-68.0816 727,-56 714.054,-35.1561 688.276,-23.6745 667.452,-17.5368"/>
<polygon fill="midnightblue" stroke="midnightblue" points="668.269,-14.1325 657.704,-14.9355 666.464,-20.8958 668.269,-14.1325"/>
</g>
<!-- Node37&#45;&gt;Node7 -->
<g id="edge49" class="edge"><title>Node37&#45;&gt;Node7</title>
<path fill="none" stroke="midnightblue" d="M618.936,-124.403C592.633,-114.156 548.487,-96.9561 518.575,-85.3021"/>
<polygon fill="midnightblue" stroke="midnightblue" points="519.612,-81.9497 509.024,-81.5806 517.071,-88.4722 519.612,-81.9497"/>
</g>
<!-- Node39&#45;&gt;Node4 -->
<g id="edge52" class="edge"><title>Node39&#45;&gt;Node4</title>
<path fill="none" stroke="midnightblue" d="M4036.8,-131.848C3656.5,-124.055 1466.59,-79.18 1193.05,-73.5748"/>
<polygon fill="midnightblue" stroke="midnightblue" points="1192.86,-70.0703 1182.79,-73.3646 1192.72,-77.0688 1192.86,-70.0703"/>
</g>
<!-- Node40&#45;&gt;Node3 -->
<g id="edge55" class="edge"><title>Node40&#45;&gt;Node3</title>
<path fill="none" stroke="midnightblue" d="M315.611,-124.471C301.899,-116.997 284.185,-104.71 276,-88 269.744,-75.2277 266.588,-66.6621 276,-56 297.589,-31.5439 519.998,-17.2 604.059,-12.6178"/>
<polygon fill="midnightblue" stroke="midnightblue" points="604.488,-16.1 614.287,-12.0715 604.114,-9.10993 604.488,-16.1"/>
</g>
<!-- Node43&#45;&gt;Node3 -->
<g id="edge59" class="edge"><title>Node43&#45;&gt;Node3</title>
<path fill="none" stroke="midnightblue" d="M750.261,-124.43C753.758,-109.134 758.652,-76.7888 744,-56 726.593,-31.3031 692.951,-20.1136 667.819,-15.0727"/>
<polygon fill="midnightblue" stroke="midnightblue" points="668.098,-11.5677 657.641,-13.2673 666.876,-18.4601 668.098,-11.5677"/>
</g>
<!-- Node43&#45;&gt;Node4 -->
<g id="edge60" class="edge"><title>Node43&#45;&gt;Node4</title>
<path fill="none" stroke="midnightblue" d="M795.025,-126.234C882.368,-113.666 1067.12,-87.083 1137.23,-76.9957"/>
<polygon fill="midnightblue" stroke="midnightblue" points="1138.06,-80.4117 1147.46,-75.5231 1137.07,-73.4831 1138.06,-80.4117"/>
</g>
<!-- Node43&#45;&gt;Node6 -->
<g id="edge61" class="edge"><title>Node43&#45;&gt;Node6</title>
<path fill="none" stroke="midnightblue" d="M725.076,-124.403C697.63,-114.111 651.484,-96.8064 620.401,-85.1504"/>
<polygon fill="midnightblue" stroke="midnightblue" points="621.474,-81.8147 610.882,-81.5806 619.016,-88.369 621.474,-81.8147"/>
</g>
<!-- Node44&#45;&gt;Node4 -->
<g id="edge63" class="edge"><title>Node44&#45;&gt;Node4</title>
<path fill="none" stroke="midnightblue" d="M803.154,-180.296C826.33,-166.41 874.187,-139.261 918,-124 994.945,-97.1984 1090.53,-82.4138 1137.01,-76.3371"/>
<polygon fill="midnightblue" stroke="midnightblue" points="1137.73,-79.7743 1147.2,-75.0418 1136.84,-72.8301 1137.73,-79.7743"/>
</g>
<!-- Node44&#45;&gt;Node37 -->
<g id="edge64" class="edge"><title>Node44&#45;&gt;Node37</title>
<path fill="none" stroke="midnightblue" d="M765.549,-180.444C740.867,-171.438 701.815,-157.189 674.023,-147.049"/>
<polygon fill="midnightblue" stroke="midnightblue" points="674.935,-143.656 664.341,-143.516 672.536,-150.232 674.935,-143.656"/>
</g>
<!-- Node46&#45;&gt;Node4 -->
<g id="edge67" class="edge"><title>Node46&#45;&gt;Node4</title>
<path fill="none" stroke="midnightblue" d="M1085.01,-180.906C1147.75,-171.83 1238.58,-156.716 1249,-144 1269.85,-118.541 1224.56,-95.1813 1192.73,-82.6335"/>
<polygon fill="midnightblue" stroke="midnightblue" points="1193.56,-79.2064 1182.97,-78.9505 1191.09,-85.7557 1193.56,-79.2064"/>
</g>
<!-- Node46&#45;&gt;Node45 -->
<g id="edge68" class="edge"><title>Node46&#45;&gt;Node45</title>
<path fill="none" stroke="midnightblue" d="M1075.39,-180.444C1133,-170.66 1227.06,-154.688 1286.94,-144.519"/>
<polygon fill="midnightblue" stroke="midnightblue" points="1287.7,-147.94 1296.98,-142.815 1286.53,-141.039 1287.7,-147.94"/>
</g>
<!-- Node47&#45;&gt;Node3 -->
<g id="edge70" class="edge"><title>Node47&#45;&gt;Node3</title>
<path fill="none" stroke="midnightblue" d="M677.123,-62.4035C669.851,-53.3143 658.205,-38.7559 649.159,-27.4489"/>
<polygon fill="midnightblue" stroke="midnightblue" points="651.845,-25.2029 642.864,-19.5806 646.378,-29.5757 651.845,-25.2029"/>
</g>
<!-- Node49&#45;&gt;Node39 -->
<g id="edge73" class="edge"><title>Node49&#45;&gt;Node39</title>
<path fill="none" stroke="midnightblue" d="M4093,-180.083C4093,-173.006 4093,-162.861 4093,-153.986"/>
<polygon fill="midnightblue" stroke="midnightblue" points="4096.5,-153.751 4093,-143.751 4089.5,-153.751 4096.5,-153.751"/>
</g>
</g>
</svg>
