<?xml version="1.0" encoding="UTF-8" standalone="no"?>
<!DOCTYPE svg PUBLIC "-//W3C//DTD SVG 1.1//EN"
 "http://www.w3.org/Graphics/SVG/1.1/DTD/svg11.dtd">
<!-- Generated by graphviz version 2.36.0 (20140111.2315)
 -->
<!-- Title: /home/travis/build/scrawl/openmw/components/widgets/imagebutton.hpp Pages: 1 -->
<svg width="1212pt" height="206pt"
 viewBox="0.00 0.00 1212.00 206.00" xmlns="http://www.w3.org/2000/svg" xmlns:xlink="http://www.w3.org/1999/xlink">
<g id="graph0" class="graph" transform="scale(1 1) rotate(0) translate(4 202)">
<title>/home/travis/build/scrawl/openmw/components/widgets/imagebutton.hpp</title>
<polygon fill="white" stroke="none" points="-4,4 -4,-202 1208,-202 1208,4 -4,4"/>
<!-- Node1 -->
<g id="node1" class="node"><title>Node1</title>
<polygon fill="#bfbfbf" stroke="black" points="598.5,-156.5 598.5,-197.5 753.5,-197.5 753.5,-156.5 598.5,-156.5"/>
<text text-anchor="start" x="606.5" y="-185.5" font-family="FreeSans" font-size="10.00">/home/travis/build</text>
<text text-anchor="start" x="606.5" y="-174.5" font-family="FreeSans" font-size="10.00">/scrawl/openmw/components</text>
<text text-anchor="middle" x="676" y="-163.5" font-family="FreeSans" font-size="10.00">/widgets/imagebutton.hpp</text>
</g>
<!-- Node2 -->
<g id="node2" class="node"><title>Node2</title>
<g id="a_node2"><a xlink:href="bookwindow_8hpp.html" target="_top" xlink:title="/home/travis/build\l/scrawl/openmw/apps\l/openmw/mwgui/bookwindow.hpp">
<polygon fill="white" stroke="black" points="104,-78.5 104,-119.5 278,-119.5 278,-78.5 104,-78.5"/>
<text text-anchor="start" x="112" y="-107.5" font-family="FreeSans" font-size="10.00">/home/travis/build</text>
<text text-anchor="start" x="112" y="-96.5" font-family="FreeSans" font-size="10.00">/scrawl/openmw/apps</text>
<text text-anchor="middle" x="191" y="-85.5" font-family="FreeSans" font-size="10.00">/openmw/mwgui/bookwindow.hpp</text>
</a>
</g>
</g>
<!-- Node1&#45;&gt;Node2 -->
<g id="edge1" class="edge"><title>Node1&#45;&gt;Node2</title>
<path fill="none" stroke="midnightblue" d="M587.882,-164.91C508.875,-154.588 389.898,-138.107 287,-120 284.066,-119.484 281.084,-118.944 278.075,-118.388"/>
<polygon fill="midnightblue" stroke="midnightblue" points="587.909,-168.443 598.277,-166.263 588.812,-161.502 587.909,-168.443"/>
</g>
<!-- Node5 -->
<g id="node5" class="node"><title>Node5</title>
<g id="a_node5"><a xlink:href="journalwindow_8cpp.html" target="_top" xlink:title="/home/travis/build\l/scrawl/openmw/apps\l/openmw/mwgui/journalwindow.cpp">
<polygon fill="white" stroke="black" points="296,-78.5 296,-119.5 478,-119.5 478,-78.5 296,-78.5"/>
<text text-anchor="start" x="304" y="-107.5" font-family="FreeSans" font-size="10.00">/home/travis/build</text>
<text text-anchor="start" x="304" y="-96.5" font-family="FreeSans" font-size="10.00">/scrawl/openmw/apps</text>
<text text-anchor="middle" x="387" y="-85.5" font-family="FreeSans" font-size="10.00">/openmw/mwgui/journalwindow.cpp</text>
</a>
</g>
</g>
<!-- Node1&#45;&gt;Node5 -->
<g id="edge4" class="edge"><title>Node1&#45;&gt;Node5</title>
<path fill="none" stroke="midnightblue" d="M591.795,-153.856C550.45,-142.983 501.079,-130 461.172,-119.506"/>
<polygon fill="midnightblue" stroke="midnightblue" points="591.014,-157.27 601.575,-156.428 592.794,-150.5 591.014,-157.27"/>
</g>
<!-- Node6 -->
<g id="node6" class="node"><title>Node6</title>
<g id="a_node6"><a xlink:href="mainmenu_8cpp.html" target="_top" xlink:title="/home/travis/build\l/scrawl/openmw/apps\l/openmw/mwgui/mainmenu.cpp">
<polygon fill="white" stroke="black" points="496.5,-78.5 496.5,-119.5 665.5,-119.5 665.5,-78.5 496.5,-78.5"/>
<text text-anchor="start" x="504.5" y="-107.5" font-family="FreeSans" font-size="10.00">/home/travis/build</text>
<text text-anchor="start" x="504.5" y="-96.5" font-family="FreeSans" font-size="10.00">/scrawl/openmw/apps</text>
<text text-anchor="middle" x="581" y="-85.5" font-family="FreeSans" font-size="10.00">/openmw/mwgui/mainmenu.cpp</text>
</a>
</g>
</g>
<!-- Node1&#45;&gt;Node6 -->
<g id="edge5" class="edge"><title>Node1&#45;&gt;Node6</title>
<path fill="none" stroke="midnightblue" d="M643.581,-150.065C631.072,-140.057 617.006,-128.804 605.382,-119.506"/>
<polygon fill="midnightblue" stroke="midnightblue" points="641.54,-152.914 651.535,-156.428 645.913,-147.448 641.54,-152.914"/>
</g>
<!-- Node7 -->
<g id="node7" class="node"><title>Node7</title>
<g id="a_node7"><a xlink:href="scrollwindow_8cpp.html" target="_top" xlink:title="/home/travis/build\l/scrawl/openmw/apps\l/openmw/mwgui/scrollwindow.cpp">
<polygon fill="white" stroke="black" points="683.5,-78.5 683.5,-119.5 858.5,-119.5 858.5,-78.5 683.5,-78.5"/>
<text text-anchor="start" x="691.5" y="-107.5" font-family="FreeSans" font-size="10.00">/home/travis/build</text>
<text text-anchor="start" x="691.5" y="-96.5" font-family="FreeSans" font-size="10.00">/scrawl/openmw/apps</text>
<text text-anchor="middle" x="771" y="-85.5" font-family="FreeSans" font-size="10.00">/openmw/mwgui/scrollwindow.cpp</text>
</a>
</g>
</g>
<!-- Node1&#45;&gt;Node7 -->
<g id="edge6" class="edge"><title>Node1&#45;&gt;Node7</title>
<path fill="none" stroke="midnightblue" d="M708.419,-150.065C720.928,-140.057 734.994,-128.804 746.618,-119.506"/>
<polygon fill="midnightblue" stroke="midnightblue" points="706.087,-147.448 700.465,-156.428 710.46,-152.914 706.087,-147.448"/>
</g>
<!-- Node8 -->
<g id="node8" class="node"><title>Node8</title>
<g id="a_node8"><a xlink:href="imagebutton_8cpp.html" target="_top" xlink:title="/home/travis/build\l/scrawl/openmw/components\l/widgets/imagebutton.cpp">
<polygon fill="white" stroke="black" points="876.5,-78.5 876.5,-119.5 1031.5,-119.5 1031.5,-78.5 876.5,-78.5"/>
<text text-anchor="start" x="884.5" y="-107.5" font-family="FreeSans" font-size="10.00">/home/travis/build</text>
<text text-anchor="start" x="884.5" y="-96.5" font-family="FreeSans" font-size="10.00">/scrawl/openmw/components</text>
<text text-anchor="middle" x="954" y="-85.5" font-family="FreeSans" font-size="10.00">/widgets/imagebutton.cpp</text>
</a>
</g>
</g>
<!-- Node1&#45;&gt;Node8 -->
<g id="edge7" class="edge"><title>Node1&#45;&gt;Node8</title>
<path fill="none" stroke="midnightblue" d="M757.252,-153.787C796.972,-142.929 844.344,-129.978 882.651,-119.506"/>
<polygon fill="midnightblue" stroke="midnightblue" points="756.315,-150.415 747.592,-156.428 758.161,-157.167 756.315,-150.415"/>
</g>
<!-- Node9 -->
<g id="node9" class="node"><title>Node9</title>
<g id="a_node9"><a xlink:href="components_2widgets_2widgets_8cpp.html" target="_top" xlink:title="/home/travis/build\l/scrawl/openmw/components\l/widgets/widgets.cpp">
<polygon fill="white" stroke="black" points="1049.5,-78.5 1049.5,-119.5 1204.5,-119.5 1204.5,-78.5 1049.5,-78.5"/>
<text text-anchor="start" x="1057.5" y="-107.5" font-family="FreeSans" font-size="10.00">/home/travis/build</text>
<text text-anchor="start" x="1057.5" y="-96.5" font-family="FreeSans" font-size="10.00">/scrawl/openmw/components</text>
<text text-anchor="middle" x="1127" y="-85.5" font-family="FreeSans" font-size="10.00">/widgets/widgets.cpp</text>
</a>
</g>
</g>
<!-- Node1&#45;&gt;Node9 -->
<g id="edge8" class="edge"><title>Node1&#45;&gt;Node9</title>
<path fill="none" stroke="midnightblue" d="M763.878,-164.321C837.795,-154.058 946.139,-137.984 1040,-120 1043.04,-119.417 1046.14,-118.803 1049.27,-118.166"/>
<polygon fill="midnightblue" stroke="midnightblue" points="763.108,-160.894 753.681,-165.73 764.066,-167.828 763.108,-160.894"/>
</g>
<!-- Node3 -->
<g id="node3" class="node"><title>Node3</title>
<g id="a_node3"><a xlink:href="bookwindow_8cpp.html" target="_top" xlink:title="/home/travis/build\l/scrawl/openmw/apps\l/openmw/mwgui/bookwindow.cpp">
<polygon fill="white" stroke="black" points="-0.5,-0.5 -0.5,-41.5 172.5,-41.5 172.5,-0.5 -0.5,-0.5"/>
<text text-anchor="start" x="7.5" y="-29.5" font-family="FreeSans" font-size="10.00">/home/travis/build</text>
<text text-anchor="start" x="7.5" y="-18.5" font-family="FreeSans" font-size="10.00">/scrawl/openmw/apps</text>
<text text-anchor="middle" x="86" y="-7.5" font-family="FreeSans" font-size="10.00">/openmw/mwgui/bookwindow.cpp</text>
</a>
</g>
</g>
<!-- Node2&#45;&gt;Node3 -->
<g id="edge2" class="edge"><title>Node2&#45;&gt;Node3</title>
<path fill="none" stroke="midnightblue" d="M155.563,-72.3503C141.639,-62.2719 125.918,-50.893 112.948,-41.5056"/>
<polygon fill="midnightblue" stroke="midnightblue" points="153.807,-75.4 163.96,-78.4281 157.911,-69.7295 153.807,-75.4"/>
</g>
<!-- Node4 -->
<g id="node4" class="node"><title>Node4</title>
<g id="a_node4"><a xlink:href="windowmanagerimp_8cpp.html" target="_top" xlink:title="/home/travis/build\l/scrawl/openmw/apps\l/openmw/mwgui/windowmanagerimp.cpp">
<polygon fill="white" stroke="black" points="191,-0.5 191,-41.5 403,-41.5 403,-0.5 191,-0.5"/>
<text text-anchor="start" x="199" y="-29.5" font-family="FreeSans" font-size="10.00">/home/travis/build</text>
<text text-anchor="start" x="199" y="-18.5" font-family="FreeSans" font-size="10.00">/scrawl/openmw/apps</text>
<text text-anchor="middle" x="297" y="-7.5" font-family="FreeSans" font-size="10.00">/openmw/mwgui/windowmanagerimp.cpp</text>
</a>
</g>
</g>
<!-- Node2&#45;&gt;Node4 -->
<g id="edge3" class="edge"><title>Node2&#45;&gt;Node4</title>
<path fill="none" stroke="midnightblue" d="M226.775,-72.3503C240.831,-62.2719 256.702,-50.893 269.795,-41.5056"/>
<polygon fill="midnightblue" stroke="midnightblue" points="224.385,-69.7568 218.298,-78.4281 228.464,-75.4456 224.385,-69.7568"/>
</g>
</g>
</svg>
