<?xml version="1.0" encoding="UTF-8" standalone="no"?>
<!DOCTYPE svg PUBLIC "-//W3C//DTD SVG 1.1//EN"
 "http://www.w3.org/Graphics/SVG/1.1/DTD/svg11.dtd">
<!-- Generated by graphviz version 2.36.0 (20140111.2315)
 -->
<!-- Title: /home/travis/build/OpenMW/openmw/apps/essimporter/importcellref.cpp Pages: 1 -->
<svg width="1317pt" height="342pt"
 viewBox="0.00 0.00 1317.00 342.00" xmlns="http://www.w3.org/2000/svg" xmlns:xlink="http://www.w3.org/1999/xlink">
<g id="graph0" class="graph" transform="scale(1 1) rotate(0) translate(4 338)">
<title>/home/travis/build/OpenMW/openmw/apps/essimporter/importcellref.cpp</title>
<polygon fill="white" stroke="none" points="-4,4 -4,-338 1313,-338 1313,4 -4,4"/>
<!-- Node1 -->
<g id="node1" class="node"><title>Node1</title>
<polygon fill="#bfbfbf" stroke="black" points="414,-292.5 414,-333.5 574,-333.5 574,-292.5 414,-292.5"/>
<text text-anchor="start" x="422" y="-321.5" font-family="FreeSans" font-size="10.00">/home/travis/build</text>
<text text-anchor="start" x="422" y="-310.5" font-family="FreeSans" font-size="10.00">/OpenMW/openmw/apps</text>
<text text-anchor="middle" x="494" y="-299.5" font-family="FreeSans" font-size="10.00">/essimporter/importcellref.cpp</text>
</g>
<!-- Node2 -->
<g id="node2" class="node"><title>Node2</title>
<g id="a_node2"><a xlink:href="importcellref_8hpp.html" target="_top" xlink:title="importcellref.hpp">
<polygon fill="white" stroke="black" points="228.5,-236.5 228.5,-255.5 325.5,-255.5 325.5,-236.5 228.5,-236.5"/>
<text text-anchor="middle" x="277" y="-243.5" font-family="FreeSans" font-size="10.00">importcellref.hpp</text>
</a>
</g>
</g>
<!-- Node1&#45;&gt;Node2 -->
<g id="edge1" class="edge"><title>Node1&#45;&gt;Node2</title>
<path fill="none" stroke="midnightblue" d="M428.893,-292.498C391.831,-281.396 346.682,-267.872 315.284,-258.468"/>
<polygon fill="midnightblue" stroke="midnightblue" points="316.185,-255.084 305.601,-255.567 314.176,-261.789 316.185,-255.084"/>
</g>
<!-- Node13 -->
<g id="node13" class="node"><title>Node13</title>
<g id="a_node13"><a xlink:href="esmreader_8hpp.html" target="_top" xlink:title="components/esm/esmreader.hpp">
<polygon fill="white" stroke="black" points="929,-180.5 929,-199.5 1105,-199.5 1105,-180.5 929,-180.5"/>
<text text-anchor="middle" x="1017" y="-187.5" font-family="FreeSans" font-size="10.00">components/esm/esmreader.hpp</text>
</a>
</g>
</g>
<!-- Node1&#45;&gt;Node13 -->
<g id="edge16" class="edge"><title>Node1&#45;&gt;Node13</title>
<path fill="none" stroke="midnightblue" d="M574.002,-293.491C684.627,-267.897 880.764,-222.519 970.204,-201.827"/>
<polygon fill="midnightblue" stroke="midnightblue" points="971.104,-205.211 980.058,-199.547 969.526,-198.391 971.104,-205.211"/>
</g>
<!-- Node3 -->
<g id="node3" class="node"><title>Node3</title>
<polygon fill="white" stroke="#bfbfbf" points="372,-0.5 372,-19.5 416,-19.5 416,-0.5 372,-0.5"/>
<text text-anchor="middle" x="394" y="-7.5" font-family="FreeSans" font-size="10.00">string</text>
</g>
<!-- Node2&#45;&gt;Node3 -->
<g id="edge2" class="edge"><title>Node2&#45;&gt;Node3</title>
<path fill="none" stroke="midnightblue" d="M282.995,-236.211C299.452,-211.769 345.966,-140.54 374,-76 380.615,-60.7712 385.997,-42.6596 389.505,-29.4276"/>
<polygon fill="midnightblue" stroke="midnightblue" points="392.924,-30.1851 391.997,-19.6308 386.14,-28.4595 392.924,-30.1851"/>
</g>
<!-- Node4 -->
<g id="node4" class="node"><title>Node4</title>
<g id="a_node4"><a xlink:href="components_2esm_2cellref_8hpp.html" target="_top" xlink:title="components/esm/cellref.hpp">
<polygon fill="white" stroke="black" points="0,-118.5 0,-137.5 152,-137.5 152,-118.5 0,-118.5"/>
<text text-anchor="middle" x="76" y="-125.5" font-family="FreeSans" font-size="10.00">components/esm/cellref.hpp</text>
</a>
</g>
</g>
<!-- Node2&#45;&gt;Node4 -->
<g id="edge3" class="edge"><title>Node2&#45;&gt;Node4</title>
<path fill="none" stroke="midnightblue" d="M249.998,-236.463C226.887,-228.6 193.146,-215.78 166,-200 138.497,-184.013 110.252,-160.31 92.9133,-144.759"/>
<polygon fill="midnightblue" stroke="midnightblue" points="95.0783,-141.997 85.3289,-137.85 90.3641,-147.172 95.0783,-141.997"/>
</g>
<!-- Node8 -->
<g id="node8" class="node"><title>Node8</title>
<g id="a_node8"><a xlink:href="importacdt_8hpp.html" target="_top" xlink:title="importacdt.hpp">
<polygon fill="white" stroke="black" points="175,-180.5 175,-199.5 265,-199.5 265,-180.5 175,-180.5"/>
<text text-anchor="middle" x="220" y="-187.5" font-family="FreeSans" font-size="10.00">importacdt.hpp</text>
</a>
</g>
</g>
<!-- Node2&#45;&gt;Node8 -->
<g id="edge8" class="edge"><title>Node2&#45;&gt;Node8</title>
<path fill="none" stroke="midnightblue" d="M267.842,-236.324C259.499,-228.42 246.968,-216.548 236.823,-206.938"/>
<polygon fill="midnightblue" stroke="midnightblue" points="238.991,-204.171 229.325,-199.834 234.177,-209.252 238.991,-204.171"/>
</g>
<!-- Node4&#45;&gt;Node3 -->
<g id="edge4" class="edge"><title>Node4&#45;&gt;Node3</title>
<path fill="none" stroke="midnightblue" d="M74.104,-118.161C71.4531,-103.147 68.6364,-72.6696 85,-56 89.8399,-51.0696 283.013,-25.4435 361.426,-15.2189"/>
<polygon fill="midnightblue" stroke="midnightblue" points="362.233,-18.6435 371.697,-13.8821 361.329,-11.7021 362.233,-18.6435"/>
</g>
<!-- Node5 -->
<g id="node5" class="node"><title>Node5</title>
<g id="a_node5"><a xlink:href="esm_2defs_8hpp.html" target="_top" xlink:title="defs.hpp">
<polygon fill="white" stroke="black" points="94,-56.5 94,-75.5 152,-75.5 152,-56.5 94,-56.5"/>
<text text-anchor="middle" x="123" y="-63.5" font-family="FreeSans" font-size="10.00">defs.hpp</text>
</a>
</g>
</g>
<!-- Node4&#45;&gt;Node5 -->
<g id="edge5" class="edge"><title>Node4&#45;&gt;Node5</title>
<path fill="none" stroke="midnightblue" d="M82.734,-118.403C89.784,-109.403 101.035,-95.0408 109.854,-83.7824"/>
<polygon fill="midnightblue" stroke="midnightblue" points="112.867,-85.6112 116.279,-75.5806 107.357,-81.2946 112.867,-85.6112"/>
</g>
<!-- Node6 -->
<g id="node6" class="node"><title>Node6</title>
<polygon fill="white" stroke="#bfbfbf" points="1058.5,-0.5 1058.5,-19.5 1111.5,-19.5 1111.5,-0.5 1058.5,-0.5"/>
<text text-anchor="middle" x="1085" y="-7.5" font-family="FreeSans" font-size="10.00">stdint.h</text>
</g>
<!-- Node5&#45;&gt;Node6 -->
<g id="edge6" class="edge"><title>Node5&#45;&gt;Node6</title>
<path fill="none" stroke="midnightblue" d="M152.183,-61.0361C166.3,-59.2487 183.506,-57.2604 199,-56 557.726,-26.8177 649.252,-48.9102 1008,-20 1021.1,-18.9442 1035.41,-17.3843 1048.1,-15.8584"/>
<polygon fill="midnightblue" stroke="midnightblue" points="1048.82,-19.296 1058.32,-14.5966 1047.97,-12.3487 1048.82,-19.296"/>
</g>
<!-- Node7 -->
<g id="node7" class="node"><title>Node7</title>
<polygon fill="white" stroke="#bfbfbf" points="91.5,-0.5 91.5,-19.5 154.5,-19.5 154.5,-0.5 91.5,-0.5"/>
<text text-anchor="middle" x="123" y="-7.5" font-family="FreeSans" font-size="10.00">osg/Vec3f</text>
</g>
<!-- Node5&#45;&gt;Node7 -->
<g id="edge7" class="edge"><title>Node5&#45;&gt;Node7</title>
<path fill="none" stroke="midnightblue" d="M123,-56.083C123,-49.0059 123,-38.8611 123,-29.9865"/>
<polygon fill="midnightblue" stroke="midnightblue" points="126.5,-29.751 123,-19.7511 119.5,-29.7511 126.5,-29.751"/>
</g>
<!-- Node8&#45;&gt;Node3 -->
<g id="edge9" class="edge"><title>Node8&#45;&gt;Node3</title>
<path fill="none" stroke="midnightblue" d="M214.675,-180.409C201.198,-157.455 168.875,-93.8682 199,-56 209.139,-43.2548 309.032,-25.0394 361.765,-16.2039"/>
<polygon fill="midnightblue" stroke="midnightblue" points="362.349,-19.6549 371.642,-14.5663 361.204,-12.7492 362.349,-19.6549"/>
</g>
<!-- Node8&#45;&gt;Node4 -->
<g id="edge10" class="edge"><title>Node8&#45;&gt;Node4</title>
<path fill="none" stroke="midnightblue" d="M199.368,-180.403C174.881,-170.2 133.853,-153.105 105.891,-141.454"/>
<polygon fill="midnightblue" stroke="midnightblue" points="107.17,-138.196 96.5934,-137.581 104.478,-144.658 107.17,-138.196"/>
</g>
<!-- Node9 -->
<g id="node9" class="node"><title>Node9</title>
<g id="a_node9"><a xlink:href="importscri_8hpp.html" target="_top" xlink:title="importscri.hpp">
<polygon fill="white" stroke="black" points="225,-118.5 225,-137.5 311,-137.5 311,-118.5 225,-118.5"/>
<text text-anchor="middle" x="268" y="-125.5" font-family="FreeSans" font-size="10.00">importscri.hpp</text>
</a>
</g>
</g>
<!-- Node8&#45;&gt;Node9 -->
<g id="edge11" class="edge"><title>Node8&#45;&gt;Node9</title>
<path fill="none" stroke="midnightblue" d="M226.877,-180.403C234.149,-171.314 245.795,-156.756 254.841,-145.449"/>
<polygon fill="midnightblue" stroke="midnightblue" points="257.622,-147.576 261.136,-137.581 252.155,-143.203 257.622,-147.576"/>
</g>
<!-- Node10 -->
<g id="node10" class="node"><title>Node10</title>
<g id="a_node10"><a xlink:href="variant_8hpp.html" target="_top" xlink:title="components/esm/variant.hpp">
<polygon fill="white" stroke="black" points="208,-56.5 208,-75.5 366,-75.5 366,-56.5 208,-56.5"/>
<text text-anchor="middle" x="287" y="-63.5" font-family="FreeSans" font-size="10.00">components/esm/variant.hpp</text>
</a>
</g>
</g>
<!-- Node9&#45;&gt;Node10 -->
<g id="edge12" class="edge"><title>Node9&#45;&gt;Node10</title>
<path fill="none" stroke="midnightblue" d="M270.722,-118.403C273.459,-109.76 277.763,-96.17 281.258,-85.1341"/>
<polygon fill="midnightblue" stroke="midnightblue" points="284.601,-86.1707 284.283,-75.5806 277.927,-84.0574 284.601,-86.1707"/>
</g>
<!-- Node12 -->
<g id="node12" class="node"><title>Node12</title>
<polygon fill="white" stroke="#bfbfbf" points="965.5,-56.5 965.5,-75.5 1012.5,-75.5 1012.5,-56.5 965.5,-56.5"/>
<text text-anchor="middle" x="989" y="-63.5" font-family="FreeSans" font-size="10.00">vector</text>
</g>
<!-- Node9&#45;&gt;Node12 -->
<g id="edge15" class="edge"><title>Node9&#45;&gt;Node12</title>
<path fill="none" stroke="midnightblue" d="M311.37,-118.925C326.125,-116.404 342.742,-113.812 358,-112 475.407,-98.0609 841.658,-75.7381 955.134,-68.9932"/>
<polygon fill="midnightblue" stroke="midnightblue" points="955.534,-72.4757 965.309,-68.3899 955.12,-65.488 955.534,-72.4757"/>
</g>
<!-- Node10&#45;&gt;Node3 -->
<g id="edge13" class="edge"><title>Node10&#45;&gt;Node3</title>
<path fill="none" stroke="midnightblue" d="M304.191,-56.324C321.351,-47.6641 347.946,-34.2424 367.747,-24.249"/>
<polygon fill="midnightblue" stroke="midnightblue" points="369.501,-27.2847 376.851,-19.6545 366.347,-21.0354 369.501,-27.2847"/>
</g>
<!-- Node11 -->
<g id="node11" class="node"><title>Node11</title>
<polygon fill="white" stroke="#bfbfbf" points="264,-0.5 264,-19.5 310,-19.5 310,-0.5 264,-0.5"/>
<text text-anchor="middle" x="287" y="-7.5" font-family="FreeSans" font-size="10.00">iosfwd</text>
</g>
<!-- Node10&#45;&gt;Node11 -->
<g id="edge14" class="edge"><title>Node10&#45;&gt;Node11</title>
<path fill="none" stroke="midnightblue" d="M287,-56.083C287,-49.0059 287,-38.8611 287,-29.9865"/>
<polygon fill="midnightblue" stroke="midnightblue" points="290.5,-29.751 287,-19.7511 283.5,-29.7511 290.5,-29.751"/>
</g>
<!-- Node13&#45;&gt;Node6 -->
<g id="edge17" class="edge"><title>Node13&#45;&gt;Node6</title>
<path fill="none" stroke="midnightblue" d="M1091.04,-180.489C1113.3,-174.071 1135.4,-163 1149,-144 1156.87,-132.996 1149.9,-66.7008 1144,-56 1136.71,-42.7868 1123.74,-32.2438 1111.81,-24.6938"/>
<polygon fill="midnightblue" stroke="midnightblue" points="1113.4,-21.5665 1103,-19.509 1109.85,-27.5987 1113.4,-21.5665"/>
</g>
<!-- Node13&#45;&gt;Node12 -->
<g id="edge20" class="edge"><title>Node13&#45;&gt;Node12</title>
<path fill="none" stroke="midnightblue" d="M1014.99,-180.226C1010.47,-160.53 999.428,-112.437 993.292,-85.7004"/>
<polygon fill="midnightblue" stroke="midnightblue" points="996.644,-84.6581 990.995,-75.6944 989.821,-86.224 996.644,-84.6581"/>
</g>
<!-- Node14 -->
<g id="node14" class="node"><title>Node14</title>
<polygon fill="white" stroke="#bfbfbf" points="1165.5,-0.5 1165.5,-19.5 1218.5,-19.5 1218.5,-0.5 1165.5,-0.5"/>
<text text-anchor="middle" x="1192" y="-7.5" font-family="FreeSans" font-size="10.00">string.h</text>
</g>
<!-- Node13&#45;&gt;Node14 -->
<g id="edge18" class="edge"><title>Node13&#45;&gt;Node14</title>
<path fill="none" stroke="midnightblue" d="M1096.85,-180.499C1121.46,-174.081 1146.62,-163.009 1164,-144 1192.97,-112.315 1194.9,-58.4925 1193.6,-30.0004"/>
<polygon fill="midnightblue" stroke="midnightblue" points="1197.08,-29.5432 1192.94,-19.7904 1190.09,-29.9957 1197.08,-29.5432"/>
</g>
<!-- Node15 -->
<g id="node15" class="node"><title>Node15</title>
<polygon fill="white" stroke="#bfbfbf" points="1257,-118.5 1257,-137.5 1309,-137.5 1309,-118.5 1257,-118.5"/>
<text text-anchor="middle" x="1283" y="-125.5" font-family="FreeSans" font-size="10.00">cassert</text>
</g>
<!-- Node13&#45;&gt;Node15 -->
<g id="edge19" class="edge"><title>Node13&#45;&gt;Node15</title>
<path fill="none" stroke="midnightblue" d="M1072.86,-180.474C1118.97,-172.818 1185.87,-160.284 1243,-144 1246.14,-143.106 1249.38,-142.075 1252.6,-140.983"/>
<polygon fill="midnightblue" stroke="midnightblue" points="1253.81,-144.265 1262.04,-137.59 1251.45,-137.677 1253.81,-144.265"/>
</g>
<!-- Node16 -->
<g id="node16" class="node"><title>Node16</title>
<polygon fill="white" stroke="#bfbfbf" points="801,-118.5 801,-137.5 857,-137.5 857,-118.5 801,-118.5"/>
<text text-anchor="middle" x="829" y="-125.5" font-family="FreeSans" font-size="10.00">sstream</text>
</g>
<!-- Node13&#45;&gt;Node16 -->
<g id="edge21" class="edge"><title>Node13&#45;&gt;Node16</title>
<path fill="none" stroke="midnightblue" d="M985.195,-180.475C954.44,-172.008 906.655,-158.262 866,-144 863.596,-143.157 861.12,-142.247 858.642,-141.306"/>
<polygon fill="midnightblue" stroke="midnightblue" points="859.81,-138.004 849.223,-137.605 857.25,-144.519 859.81,-138.004"/>
</g>
<!-- Node17 -->
<g id="node17" class="node"><title>Node17</title>
<g id="a_node17"><a xlink:href="constrainedfilestream_8hpp.html" target="_top" xlink:title="components/files/constrainedfilestream.hpp">
<polygon fill="white" stroke="black" points="367.5,-118.5 367.5,-137.5 594.5,-137.5 594.5,-118.5 367.5,-118.5"/>
<text text-anchor="middle" x="481" y="-125.5" font-family="FreeSans" font-size="10.00">components/files/constrainedfilestream.hpp</text>
</a>
</g>
</g>
<!-- Node13&#45;&gt;Node17 -->
<g id="edge22" class="edge"><title>Node13&#45;&gt;Node17</title>
<path fill="none" stroke="midnightblue" d="M935.857,-180.469C852.552,-171.638 719.177,-157.297 604,-144 589.675,-142.346 574.419,-140.53 559.701,-138.75"/>
<polygon fill="midnightblue" stroke="midnightblue" points="559.965,-135.256 549.616,-137.526 559.122,-142.205 559.965,-135.256"/>
</g>
<!-- Node20 -->
<g id="node20" class="node"><title>Node20</title>
<g id="a_node20"><a xlink:href="stringops_8hpp.html" target="_top" xlink:title="components/misc/stringops.hpp">
<polygon fill="white" stroke="black" points="613,-118.5 613,-137.5 783,-137.5 783,-118.5 613,-118.5"/>
<text text-anchor="middle" x="698" y="-125.5" font-family="FreeSans" font-size="10.00">components/misc/stringops.hpp</text>
</a>
</g>
</g>
<!-- Node13&#45;&gt;Node20 -->
<g id="edge25" class="edge"><title>Node13&#45;&gt;Node20</title>
<path fill="none" stroke="midnightblue" d="M971.634,-180.467C914.116,-169.649 815.013,-151.009 753.177,-139.378"/>
<polygon fill="midnightblue" stroke="midnightblue" points="753.684,-135.912 743.21,-137.503 752.39,-142.792 753.684,-135.912"/>
</g>
<!-- Node23 -->
<g id="node23" class="node"><title>Node23</title>
<g id="a_node23"><a xlink:href="to__utf8_8hpp.html" target="_top" xlink:title="components/to_utf8\l/to_utf8.hpp">
<polygon fill="white" stroke="black" points="875.5,-113 875.5,-143 988.5,-143 988.5,-113 875.5,-113"/>
<text text-anchor="start" x="883.5" y="-131" font-family="FreeSans" font-size="10.00">components/to_utf8</text>
<text text-anchor="middle" x="932" y="-120" font-family="FreeSans" font-size="10.00">/to_utf8.hpp</text>
</a>
</g>
</g>
<!-- Node13&#45;&gt;Node23 -->
<g id="edge29" class="edge"><title>Node13&#45;&gt;Node23</title>
<path fill="none" stroke="midnightblue" d="M1004.82,-180.403C993.31,-172.277 975.604,-159.779 960.534,-149.142"/>
<polygon fill="midnightblue" stroke="midnightblue" points="962.221,-146.048 952.033,-143.141 958.184,-151.767 962.221,-146.048"/>
</g>
<!-- Node25 -->
<g id="node25" class="node"><title>Node25</title>
<g id="a_node25"><a xlink:href="esmcommon_8hpp.html" target="_top" xlink:title="esmcommon.hpp">
<polygon fill="white" stroke="black" points="1034.5,-56.5 1034.5,-75.5 1135.5,-75.5 1135.5,-56.5 1034.5,-56.5"/>
<text text-anchor="middle" x="1085" y="-63.5" font-family="FreeSans" font-size="10.00">esmcommon.hpp</text>
</a>
</g>
</g>
<!-- Node13&#45;&gt;Node25 -->
<g id="edge33" class="edge"><title>Node13&#45;&gt;Node25</title>
<path fill="none" stroke="midnightblue" d="M1075.57,-180.483C1097.33,-174.164 1119.88,-163.16 1133,-144 1141.03,-132.265 1138.65,-125.05 1133,-112 1127.73,-99.8399 1117.38,-89.4594 1107.64,-81.7429"/>
<polygon fill="midnightblue" stroke="midnightblue" points="1109.5,-78.7707 1099.37,-75.6698 1105.36,-84.4116 1109.5,-78.7707"/>
</g>
<!-- Node26 -->
<g id="node26" class="node"><title>Node26</title>
<g id="a_node26"><a xlink:href="loadtes3_8hpp.html" target="_top" xlink:title="loadtes3.hpp">
<polygon fill="white" stroke="black" points="1045.5,-118.5 1045.5,-137.5 1124.5,-137.5 1124.5,-118.5 1045.5,-118.5"/>
<text text-anchor="middle" x="1085" y="-125.5" font-family="FreeSans" font-size="10.00">loadtes3.hpp</text>
</a>
</g>
</g>
<!-- Node13&#45;&gt;Node26 -->
<g id="edge38" class="edge"><title>Node13&#45;&gt;Node26</title>
<path fill="none" stroke="midnightblue" d="M1026.74,-180.403C1037.35,-171.047 1054.52,-155.895 1067.48,-144.46"/>
<polygon fill="midnightblue" stroke="midnightblue" points="1070.09,-146.821 1075.28,-137.581 1065.46,-141.572 1070.09,-146.821"/>
</g>
<!-- Node18 -->
<g id="node18" class="node"><title>Node18</title>
<polygon fill="white" stroke="#bfbfbf" points="559.5,-56.5 559.5,-75.5 612.5,-75.5 612.5,-56.5 559.5,-56.5"/>
<text text-anchor="middle" x="586" y="-63.5" font-family="FreeSans" font-size="10.00">istream</text>
</g>
<!-- Node17&#45;&gt;Node18 -->
<g id="edge23" class="edge"><title>Node17&#45;&gt;Node18</title>
<path fill="none" stroke="midnightblue" d="M496.044,-118.403C513.275,-108.557 541.74,-92.2915 562.034,-80.6949"/>
<polygon fill="midnightblue" stroke="midnightblue" points="564.038,-83.5809 570.984,-75.5806 560.565,-77.5032 564.038,-83.5809"/>
</g>
<!-- Node19 -->
<g id="node19" class="node"><title>Node19</title>
<polygon fill="white" stroke="#bfbfbf" points="422.5,-56.5 422.5,-75.5 541.5,-75.5 541.5,-56.5 422.5,-56.5"/>
<text text-anchor="middle" x="482" y="-63.5" font-family="FreeSans" font-size="10.00">boost/shared_ptr.hpp</text>
</g>
<!-- Node17&#45;&gt;Node19 -->
<g id="edge24" class="edge"><title>Node17&#45;&gt;Node19</title>
<path fill="none" stroke="midnightblue" d="M481.143,-118.403C481.284,-109.938 481.505,-96.7283 481.686,-85.8199"/>
<polygon fill="midnightblue" stroke="midnightblue" points="485.19,-85.6376 481.857,-75.5806 478.191,-85.5208 485.19,-85.6376"/>
</g>
<!-- Node20&#45;&gt;Node3 -->
<g id="edge27" class="edge"><title>Node20&#45;&gt;Node3</title>
<path fill="none" stroke="midnightblue" d="M691.426,-118.398C679.295,-103.182 651.798,-71.6557 621,-56 557.173,-23.5548 472.204,-14.475 426.46,-11.9526"/>
<polygon fill="midnightblue" stroke="midnightblue" points="426.401,-8.44589 416.246,-11.4637 426.067,-15.4379 426.401,-8.44589"/>
</g>
<!-- Node21 -->
<g id="node21" class="node"><title>Node21</title>
<polygon fill="white" stroke="#bfbfbf" points="671,-56.5 671,-75.5 719,-75.5 719,-56.5 671,-56.5"/>
<text text-anchor="middle" x="695" y="-63.5" font-family="FreeSans" font-size="10.00">cctype</text>
</g>
<!-- Node20&#45;&gt;Node21 -->
<g id="edge26" class="edge"><title>Node20&#45;&gt;Node21</title>
<path fill="none" stroke="midnightblue" d="M697.57,-118.403C697.147,-109.938 696.486,-96.7283 695.941,-85.8199"/>
<polygon fill="midnightblue" stroke="midnightblue" points="699.424,-85.3933 695.429,-75.5806 692.433,-85.7429 699.424,-85.3933"/>
</g>
<!-- Node22 -->
<g id="node22" class="node"><title>Node22</title>
<polygon fill="white" stroke="#bfbfbf" points="737,-56.5 737,-75.5 799,-75.5 799,-56.5 737,-56.5"/>
<text text-anchor="middle" x="768" y="-63.5" font-family="FreeSans" font-size="10.00">algorithm</text>
</g>
<!-- Node20&#45;&gt;Node22 -->
<g id="edge28" class="edge"><title>Node20&#45;&gt;Node22</title>
<path fill="none" stroke="midnightblue" d="M708.029,-118.403C719.049,-108.958 736.96,-93.6056 750.343,-82.1342"/>
<polygon fill="midnightblue" stroke="midnightblue" points="752.675,-84.7459 757.989,-75.5806 748.119,-79.4311 752.675,-84.7459"/>
</g>
<!-- Node23&#45;&gt;Node3 -->
<g id="edge30" class="edge"><title>Node23&#45;&gt;Node3</title>
<path fill="none" stroke="midnightblue" d="M912.826,-112.762C889.248,-96.0747 847.373,-69.0458 807,-56 736.083,-33.0841 510.518,-17.841 426.207,-12.8166"/>
<polygon fill="midnightblue" stroke="midnightblue" points="426.375,-9.32057 416.187,-12.2282 425.964,-16.3085 426.375,-9.32057"/>
</g>
<!-- Node23&#45;&gt;Node12 -->
<g id="edge32" class="edge"><title>Node23&#45;&gt;Node12</title>
<path fill="none" stroke="midnightblue" d="M945.508,-112.781C953.962,-103.882 964.875,-92.3943 973.655,-83.1524"/>
<polygon fill="midnightblue" stroke="midnightblue" points="976.356,-85.3912 980.706,-75.7305 971.281,-80.5699 976.356,-85.3912"/>
</g>
<!-- Node24 -->
<g id="node24" class="node"><title>Node24</title>
<polygon fill="white" stroke="#bfbfbf" points="950.5,-0.5 950.5,-19.5 999.5,-19.5 999.5,-0.5 950.5,-0.5"/>
<text text-anchor="middle" x="975" y="-7.5" font-family="FreeSans" font-size="10.00">cstring</text>
</g>
<!-- Node23&#45;&gt;Node24 -->
<g id="edge31" class="edge"><title>Node23&#45;&gt;Node24</title>
<path fill="none" stroke="midnightblue" d="M936.477,-112.746C941.085,-98.3322 948.613,-75.4638 956,-56 959.428,-46.969 963.567,-37.0656 967.105,-28.8541"/>
<polygon fill="midnightblue" stroke="midnightblue" points="970.373,-30.1158 971.168,-19.5508 963.958,-27.3144 970.373,-30.1158"/>
</g>
<!-- Node25&#45;&gt;Node3 -->
<g id="edge34" class="edge"><title>Node25&#45;&gt;Node3</title>
<path fill="none" stroke="midnightblue" d="M1034.38,-57.558C1029.86,-56.9914 1025.35,-56.4616 1021,-56 793.947,-31.9158 519.24,-17.1418 426.418,-12.5463"/>
<polygon fill="midnightblue" stroke="midnightblue" points="426.421,-9.04234 416.262,-12.0483 426.078,-16.0339 426.421,-9.04234"/>
</g>
<!-- Node25&#45;&gt;Node6 -->
<g id="edge36" class="edge"><title>Node25&#45;&gt;Node6</title>
<path fill="none" stroke="midnightblue" d="M1085,-56.083C1085,-49.0059 1085,-38.8611 1085,-29.9865"/>
<polygon fill="midnightblue" stroke="midnightblue" points="1088.5,-29.751 1085,-19.7511 1081.5,-29.7511 1088.5,-29.751"/>
</g>
<!-- Node25&#45;&gt;Node14 -->
<g id="edge37" class="edge"><title>Node25&#45;&gt;Node14</title>
<path fill="none" stroke="midnightblue" d="M1102.19,-56.324C1119.35,-47.6641 1145.95,-34.2424 1165.75,-24.249"/>
<polygon fill="midnightblue" stroke="midnightblue" points="1167.5,-27.2847 1174.85,-19.6545 1164.35,-21.0354 1167.5,-27.2847"/>
</g>
<!-- Node25&#45;&gt;Node24 -->
<g id="edge35" class="edge"><title>Node25&#45;&gt;Node24</title>
<path fill="none" stroke="midnightblue" d="M1067.33,-56.324C1049.61,-47.6247 1022.1,-34.1202 1001.71,-24.113"/>
<polygon fill="midnightblue" stroke="midnightblue" points="1003.15,-20.9195 992.63,-19.6545 1000.06,-27.2031 1003.15,-20.9195"/>
</g>
<!-- Node26&#45;&gt;Node12 -->
<g id="edge39" class="edge"><title>Node26&#45;&gt;Node12</title>
<path fill="none" stroke="midnightblue" d="M1071.25,-118.403C1055.63,-108.646 1029.94,-92.5854 1011.42,-81.0109"/>
<polygon fill="midnightblue" stroke="midnightblue" points="1013.06,-77.9126 1002.73,-75.5806 1009.35,-83.8486 1013.06,-77.9126"/>
</g>
<!-- Node26&#45;&gt;Node25 -->
<g id="edge40" class="edge"><title>Node26&#45;&gt;Node25</title>
<path fill="none" stroke="midnightblue" d="M1085,-118.403C1085,-109.938 1085,-96.7283 1085,-85.8199"/>
<polygon fill="midnightblue" stroke="midnightblue" points="1088.5,-85.5806 1085,-75.5806 1081.5,-85.5806 1088.5,-85.5806"/>
</g>
</g>
</svg>
