<?xml version="1.0" encoding="UTF-8" standalone="no"?>
<!DOCTYPE svg PUBLIC "-//W3C//DTD SVG 1.1//EN"
 "http://www.w3.org/Graphics/SVG/1.1/DTD/svg11.dtd">
<!-- Generated by graphviz version 2.36.0 (20140111.2315)
 -->
<!-- Title: Graphical Class Hierarchy Pages: 1 -->
<svg width="512pt" height="87pt"
 viewBox="0.00 0.00 512.00 87.00" xmlns="http://www.w3.org/2000/svg" xmlns:xlink="http://www.w3.org/1999/xlink">
<g id="graph0" class="graph" transform="scale(1 1) rotate(0) translate(4 83)">
<title>Graphical Class Hierarchy</title>
<polygon fill="white" stroke="none" points="-4,4 -4,-83 508,-83 508,4 -4,4"/>
<!-- Node1 -->
<g id="node1" class="node"><title>Node1</title>
<g id="a_node1"><a xlink:href="classQSortFilterProxyModel.html" target="_top" xlink:title="QSortFilterProxyModel">
<polygon fill="white" stroke="black" points="0,-29.5 0,-48.5 122,-48.5 122,-29.5 0,-29.5"/>
<text text-anchor="middle" x="61" y="-36.5" font-family="FreeSans" font-size="10.00">QSortFilterProxyModel</text>
</a>
</g>
</g>
<!-- Node2 -->
<g id="node2" class="node"><title>Node2</title>
<g id="a_node2"><a xlink:href="classCSMWorld_1_1IdTableProxyModel.html" target="_top" xlink:title="CSMWorld::IdTableProxyModel">
<polygon fill="white" stroke="black" points="158.5,-29.5 158.5,-48.5 315.5,-48.5 315.5,-29.5 158.5,-29.5"/>
<text text-anchor="middle" x="237" y="-36.5" font-family="FreeSans" font-size="10.00">CSMWorld::IdTableProxyModel</text>
</a>
</g>
</g>
<!-- Node1&#45;&gt;Node2 -->
<g id="edge1" class="edge"><title>Node1&#45;&gt;Node2</title>
<path fill="none" stroke="midnightblue" d="M132.565,-39C141.03,-39 149.71,-39 158.27,-39"/>
<polygon fill="midnightblue" stroke="midnightblue" points="132.368,-35.5001 122.368,-39 132.368,-42.5001 132.368,-35.5001"/>
</g>
<!-- Node3 -->
<g id="node3" class="node"><title>Node3</title>
<g id="a_node3"><a xlink:href="classCSMWorld_1_1InfoTableProxyModel.html" target="_top" xlink:title="CSMWorld::InfoTableProxy\lModel">
<polygon fill="white" stroke="black" points="359.5,-49 359.5,-79 496.5,-79 496.5,-49 359.5,-49"/>
<text text-anchor="start" x="367.5" y="-67" font-family="FreeSans" font-size="10.00">CSMWorld::InfoTableProxy</text>
<text text-anchor="middle" x="428" y="-56" font-family="FreeSans" font-size="10.00">Model</text>
</a>
</g>
</g>
<!-- Node2&#45;&gt;Node3 -->
<g id="edge2" class="edge"><title>Node2&#45;&gt;Node3</title>
<path fill="none" stroke="midnightblue" d="M319.944,-49.8391C333.064,-51.5745 346.512,-53.3535 359.254,-55.0388"/>
<polygon fill="midnightblue" stroke="midnightblue" points="320.365,-46.3644 309.992,-48.5227 319.447,-53.3039 320.365,-46.3644"/>
</g>
<!-- Node4 -->
<g id="node4" class="node"><title>Node4</title>
<g id="a_node4"><a xlink:href="classCSMWorld_1_1LandTextureTableProxyModel.html" target="_top" xlink:title="Removes base records from filtered results. ">
<polygon fill="white" stroke="black" points="352,-0 352,-30 504,-30 504,-0 352,-0"/>
<text text-anchor="start" x="360" y="-18" font-family="FreeSans" font-size="10.00">CSMWorld::LandTextureTable</text>
<text text-anchor="middle" x="428" y="-7" font-family="FreeSans" font-size="10.00">ProxyModel</text>
</a>
</g>
</g>
<!-- Node2&#45;&gt;Node4 -->
<g id="edge3" class="edge"><title>Node2&#45;&gt;Node4</title>
<path fill="none" stroke="midnightblue" d="M322.936,-28.2145C332.563,-26.992 342.323,-25.7526 351.812,-24.5477"/>
<polygon fill="midnightblue" stroke="midnightblue" points="322.449,-24.7482 312.969,-29.4801 323.331,-31.6924 322.449,-24.7482"/>
</g>
</g>
</svg>
