<?xml version="1.0" encoding="UTF-8" standalone="no"?>
<!DOCTYPE svg PUBLIC "-//W3C//DTD SVG 1.1//EN"
 "http://www.w3.org/Graphics/SVG/1.1/DTD/svg11.dtd">
<!-- Generated by graphviz version 2.36.0 (20140111.2315)
 -->
<!-- Title: Graphical Class Hierarchy Pages: 1 -->
<svg width="370pt" height="1018pt"
 viewBox="0.00 0.00 370.00 1018.00" xmlns="http://www.w3.org/2000/svg" xmlns:xlink="http://www.w3.org/1999/xlink">
<g id="graph0" class="graph" transform="scale(1 1) rotate(0) translate(4 1014)">
<title>Graphical Class Hierarchy</title>
<polygon fill="white" stroke="none" points="-4,4 -4,-1014 366,-1014 366,4 -4,4"/>
<!-- Node1 -->
<g id="node1" class="node"><title>Node1</title>
<g id="a_node1"><a xlink:href="structCSMWorld_1_1RefIdDataContainerBase.html" target="_top" xlink:title="CSMWorld::RefIdDataContainerBase">
<polygon fill="white" stroke="black" points="0,-495.5 0,-514.5 174,-514.5 174,-495.5 0,-495.5"/>
<text text-anchor="middle" x="87" y="-502.5" font-family="FreeSans" font-size="10.00">CSMWorld::RefIdDataContainerBase</text>
</a>
</g>
</g>
<!-- Node2 -->
<g id="node2" class="node"><title>Node2</title>
<g id="a_node2"><a xlink:href="structCSMWorld_1_1RefIdDataContainer.html" target="_top" xlink:title="CSMWorld::RefIdDataContainer\l\&lt; RecordT \&gt;">
<polygon fill="white" stroke="black" points="210,-980 210,-1010 362,-1010 362,-980 210,-980"/>
<text text-anchor="start" x="218" y="-998" font-family="FreeSans" font-size="10.00">CSMWorld::RefIdDataContainer</text>
<text text-anchor="middle" x="286" y="-987" font-family="FreeSans" font-size="10.00">&lt; RecordT &gt;</text>
</a>
</g>
</g>
<!-- Node1&#45;&gt;Node2 -->
<g id="edge1" class="edge"><title>Node1&#45;&gt;Node2</title>
<path fill="none" stroke="midnightblue" d="M90.663,-524.789C101.787,-604.717 146.911,-902.659 210,-970 213.66,-973.906 217.945,-977.203 222.58,-979.984"/>
<polygon fill="midnightblue" stroke="midnightblue" points="94.0964,-524.063 89.2704,-514.632 87.1613,-525.014 94.0964,-524.063"/>
</g>
<!-- Node3 -->
<g id="node3" class="node"><title>Node3</title>
<g id="a_node3"><a xlink:href="structCSMWorld_1_1RefIdDataContainer.html" target="_top" xlink:title="CSMWorld::RefIdDataContainer\l\&lt; ESM::Activator \&gt;">
<polygon fill="white" stroke="black" points="210,-931 210,-961 362,-961 362,-931 210,-931"/>
<text text-anchor="start" x="218" y="-949" font-family="FreeSans" font-size="10.00">CSMWorld::RefIdDataContainer</text>
<text text-anchor="middle" x="286" y="-938" font-family="FreeSans" font-size="10.00">&lt; ESM::Activator &gt;</text>
</a>
</g>
</g>
<!-- Node1&#45;&gt;Node3 -->
<g id="edge2" class="edge"><title>Node1&#45;&gt;Node3</title>
<path fill="none" stroke="midnightblue" d="M87.7441,-524.984C88.0077,-591.035 97.8852,-804.719 210,-921 213.715,-924.853 218.039,-928.113 222.7,-930.87"/>
<polygon fill="midnightblue" stroke="midnightblue" points="91.2449,-524.749 87.7806,-514.737 84.2449,-524.724 91.2449,-524.749"/>
</g>
<!-- Node4 -->
<g id="node4" class="node"><title>Node4</title>
<g id="a_node4"><a xlink:href="structCSMWorld_1_1RefIdDataContainer.html" target="_top" xlink:title="CSMWorld::RefIdDataContainer\l\&lt; ESM::Apparatus \&gt;">
<polygon fill="white" stroke="black" points="210,-882 210,-912 362,-912 362,-882 210,-882"/>
<text text-anchor="start" x="218" y="-900" font-family="FreeSans" font-size="10.00">CSMWorld::RefIdDataContainer</text>
<text text-anchor="middle" x="286" y="-889" font-family="FreeSans" font-size="10.00">&lt; ESM::Apparatus &gt;</text>
</a>
</g>
</g>
<!-- Node1&#45;&gt;Node4 -->
<g id="edge3" class="edge"><title>Node1&#45;&gt;Node4</title>
<path fill="none" stroke="midnightblue" d="M88.6429,-524.603C91.6958,-585.147 109.238,-771.156 210,-872 213.88,-875.884 218.379,-879.164 223.209,-881.935"/>
<polygon fill="midnightblue" stroke="midnightblue" points="92.1358,-524.359 88.2148,-514.516 85.1421,-524.656 92.1358,-524.359"/>
</g>
<!-- Node5 -->
<g id="node5" class="node"><title>Node5</title>
<g id="a_node5"><a xlink:href="structCSMWorld_1_1RefIdDataContainer.html" target="_top" xlink:title="CSMWorld::RefIdDataContainer\l\&lt; ESM::Armor \&gt;">
<polygon fill="white" stroke="black" points="210,-833 210,-863 362,-863 362,-833 210,-833"/>
<text text-anchor="start" x="218" y="-851" font-family="FreeSans" font-size="10.00">CSMWorld::RefIdDataContainer</text>
<text text-anchor="middle" x="286" y="-840" font-family="FreeSans" font-size="10.00">&lt; ESM::Armor &gt;</text>
</a>
</g>
</g>
<!-- Node1&#45;&gt;Node5 -->
<g id="edge4" class="edge"><title>Node1&#45;&gt;Node5</title>
<path fill="none" stroke="midnightblue" d="M89.8253,-524.854C95.9709,-580.198 120.832,-737.721 210,-823 214.067,-826.889 218.755,-830.174 223.76,-832.948"/>
<polygon fill="midnightblue" stroke="midnightblue" points="93.2818,-524.249 88.7815,-514.658 86.3182,-524.962 93.2818,-524.249"/>
</g>
<!-- Node6 -->
<g id="node6" class="node"><title>Node6</title>
<g id="a_node6"><a xlink:href="structCSMWorld_1_1RefIdDataContainer.html" target="_top" xlink:title="CSMWorld::RefIdDataContainer\l\&lt; ESM::Book \&gt;">
<polygon fill="white" stroke="black" points="210,-784 210,-814 362,-814 362,-784 210,-784"/>
<text text-anchor="start" x="218" y="-802" font-family="FreeSans" font-size="10.00">CSMWorld::RefIdDataContainer</text>
<text text-anchor="middle" x="286" y="-791" font-family="FreeSans" font-size="10.00">&lt; ESM::Book &gt;</text>
</a>
</g>
</g>
<!-- Node1&#45;&gt;Node6 -->
<g id="edge5" class="edge"><title>Node1&#45;&gt;Node6</title>
<path fill="none" stroke="midnightblue" d="M91.3577,-524.709C100.783,-574.018 132.067,-703.781 210,-774 214.283,-777.859 219.179,-781.124 224.372,-783.887"/>
<polygon fill="midnightblue" stroke="midnightblue" points="94.7735,-523.93 89.5414,-514.717 87.8864,-525.182 94.7735,-523.93"/>
</g>
<!-- Node7 -->
<g id="node7" class="node"><title>Node7</title>
<g id="a_node7"><a xlink:href="structCSMWorld_1_1RefIdDataContainer.html" target="_top" xlink:title="CSMWorld::RefIdDataContainer\l\&lt; ESM::Clothing \&gt;">
<polygon fill="white" stroke="black" points="210,-735 210,-765 362,-765 362,-735 210,-735"/>
<text text-anchor="start" x="218" y="-753" font-family="FreeSans" font-size="10.00">CSMWorld::RefIdDataContainer</text>
<text text-anchor="middle" x="286" y="-742" font-family="FreeSans" font-size="10.00">&lt; ESM::Clothing &gt;</text>
</a>
</g>
</g>
<!-- Node1&#45;&gt;Node7 -->
<g id="edge6" class="edge"><title>Node1&#45;&gt;Node7</title>
<path fill="none" stroke="midnightblue" d="M93.3864,-524.205C106.278,-566.694 142.933,-669.295 210,-725 214.646,-728.859 219.91,-732.129 225.443,-734.9"/>
<polygon fill="midnightblue" stroke="midnightblue" points="96.7269,-523.158 90.5556,-514.546 90.0095,-525.127 96.7269,-523.158"/>
</g>
<!-- Node8 -->
<g id="node8" class="node"><title>Node8</title>
<g id="a_node8"><a xlink:href="structCSMWorld_1_1RefIdDataContainer.html" target="_top" xlink:title="CSMWorld::RefIdDataContainer\l\&lt; ESM::Container \&gt;">
<polygon fill="white" stroke="black" points="210,-686 210,-716 362,-716 362,-686 210,-686"/>
<text text-anchor="start" x="218" y="-704" font-family="FreeSans" font-size="10.00">CSMWorld::RefIdDataContainer</text>
<text text-anchor="middle" x="286" y="-693" font-family="FreeSans" font-size="10.00">&lt; ESM::Container &gt;</text>
</a>
</g>
</g>
<!-- Node1&#45;&gt;Node8 -->
<g id="edge7" class="edge"><title>Node1&#45;&gt;Node8</title>
<path fill="none" stroke="midnightblue" d="M96.4928,-523.892C113.201,-558.972 153.676,-634.376 210,-676 215.188,-679.834 220.999,-683.103 227.029,-685.885"/>
<polygon fill="midnightblue" stroke="midnightblue" points="99.6349,-522.349 92.2473,-514.754 93.2866,-525.298 99.6349,-522.349"/>
</g>
<!-- Node9 -->
<g id="node9" class="node"><title>Node9</title>
<g id="a_node9"><a xlink:href="structCSMWorld_1_1RefIdDataContainer.html" target="_top" xlink:title="CSMWorld::RefIdDataContainer\l\&lt; ESM::Creature \&gt;">
<polygon fill="white" stroke="black" points="210,-637 210,-667 362,-667 362,-637 210,-637"/>
<text text-anchor="start" x="218" y="-655" font-family="FreeSans" font-size="10.00">CSMWorld::RefIdDataContainer</text>
<text text-anchor="middle" x="286" y="-644" font-family="FreeSans" font-size="10.00">&lt; ESM::Creature &gt;</text>
</a>
</g>
</g>
<!-- Node1&#45;&gt;Node9 -->
<g id="edge8" class="edge"><title>Node1&#45;&gt;Node9</title>
<path fill="none" stroke="midnightblue" d="M101.238,-522.728C121.766,-549.049 163.757,-598.42 210,-627 216.188,-630.824 223.028,-634.137 229.986,-636.985"/>
<polygon fill="midnightblue" stroke="midnightblue" points="103.985,-520.558 95.1245,-514.749 98.4285,-524.815 103.985,-520.558"/>
</g>
<!-- Node10 -->
<g id="node10" class="node"><title>Node10</title>
<g id="a_node10"><a xlink:href="structCSMWorld_1_1RefIdDataContainer.html" target="_top" xlink:title="CSMWorld::RefIdDataContainer\l\&lt; ESM::CreatureLevList \&gt;">
<polygon fill="white" stroke="black" points="210,-588 210,-618 362,-618 362,-588 210,-588"/>
<text text-anchor="start" x="218" y="-606" font-family="FreeSans" font-size="10.00">CSMWorld::RefIdDataContainer</text>
<text text-anchor="middle" x="286" y="-595" font-family="FreeSans" font-size="10.00">&lt; ESM::CreatureLevList &gt;</text>
</a>
</g>
</g>
<!-- Node1&#45;&gt;Node10 -->
<g id="edge9" class="edge"><title>Node1&#45;&gt;Node10</title>
<path fill="none" stroke="midnightblue" d="M110.06,-520.209C133.9,-536.158 173.403,-561.194 210,-578 217.858,-581.608 226.39,-584.955 234.79,-587.95"/>
<polygon fill="midnightblue" stroke="midnightblue" points="111.974,-517.278 101.729,-514.578 108.053,-523.078 111.974,-517.278"/>
</g>
<!-- Node11 -->
<g id="node11" class="node"><title>Node11</title>
<g id="a_node11"><a xlink:href="structCSMWorld_1_1RefIdDataContainer.html" target="_top" xlink:title="CSMWorld::RefIdDataContainer\l\&lt; ESM::Door \&gt;">
<polygon fill="white" stroke="black" points="210,-539 210,-569 362,-569 362,-539 210,-539"/>
<text text-anchor="start" x="218" y="-557" font-family="FreeSans" font-size="10.00">CSMWorld::RefIdDataContainer</text>
<text text-anchor="middle" x="286" y="-546" font-family="FreeSans" font-size="10.00">&lt; ESM::Door &gt;</text>
</a>
</g>
</g>
<!-- Node1&#45;&gt;Node11 -->
<g id="edge10" class="edge"><title>Node1&#45;&gt;Node11</title>
<path fill="none" stroke="midnightblue" d="M136.302,-517.014C162.92,-523.635 196.214,-531.916 224.545,-538.963"/>
<polygon fill="midnightblue" stroke="midnightblue" points="137,-513.581 126.451,-514.564 135.311,-520.374 137,-513.581"/>
</g>
<!-- Node12 -->
<g id="node12" class="node"><title>Node12</title>
<g id="a_node12"><a xlink:href="structCSMWorld_1_1RefIdDataContainer.html" target="_top" xlink:title="CSMWorld::RefIdDataContainer\l\&lt; ESM::Ingredient \&gt;">
<polygon fill="white" stroke="black" points="210,-490 210,-520 362,-520 362,-490 210,-490"/>
<text text-anchor="start" x="218" y="-508" font-family="FreeSans" font-size="10.00">CSMWorld::RefIdDataContainer</text>
<text text-anchor="middle" x="286" y="-497" font-family="FreeSans" font-size="10.00">&lt; ESM::Ingredient &gt;</text>
</a>
</g>
</g>
<!-- Node1&#45;&gt;Node12 -->
<g id="edge11" class="edge"><title>Node1&#45;&gt;Node12</title>
<path fill="none" stroke="midnightblue" d="M184.209,-505C192.825,-505 201.465,-505 209.865,-505"/>
<polygon fill="midnightblue" stroke="midnightblue" points="184.121,-501.5 174.12,-505 184.12,-508.5 184.121,-501.5"/>
</g>
<!-- Node13 -->
<g id="node13" class="node"><title>Node13</title>
<g id="a_node13"><a xlink:href="structCSMWorld_1_1RefIdDataContainer.html" target="_top" xlink:title="CSMWorld::RefIdDataContainer\l\&lt; ESM::ItemLevList \&gt;">
<polygon fill="white" stroke="black" points="210,-441 210,-471 362,-471 362,-441 210,-441"/>
<text text-anchor="start" x="218" y="-459" font-family="FreeSans" font-size="10.00">CSMWorld::RefIdDataContainer</text>
<text text-anchor="middle" x="286" y="-448" font-family="FreeSans" font-size="10.00">&lt; ESM::ItemLevList &gt;</text>
</a>
</g>
</g>
<!-- Node1&#45;&gt;Node13 -->
<g id="edge12" class="edge"><title>Node1&#45;&gt;Node13</title>
<path fill="none" stroke="midnightblue" d="M136.302,-492.986C162.92,-486.365 196.214,-478.084 224.545,-471.037"/>
<polygon fill="midnightblue" stroke="midnightblue" points="135.311,-489.626 126.451,-495.436 137,-496.419 135.311,-489.626"/>
</g>
<!-- Node14 -->
<g id="node14" class="node"><title>Node14</title>
<g id="a_node14"><a xlink:href="structCSMWorld_1_1RefIdDataContainer.html" target="_top" xlink:title="CSMWorld::RefIdDataContainer\l\&lt; ESM::Light \&gt;">
<polygon fill="white" stroke="black" points="210,-392 210,-422 362,-422 362,-392 210,-392"/>
<text text-anchor="start" x="218" y="-410" font-family="FreeSans" font-size="10.00">CSMWorld::RefIdDataContainer</text>
<text text-anchor="middle" x="286" y="-399" font-family="FreeSans" font-size="10.00">&lt; ESM::Light &gt;</text>
</a>
</g>
</g>
<!-- Node1&#45;&gt;Node14 -->
<g id="edge13" class="edge"><title>Node1&#45;&gt;Node14</title>
<path fill="none" stroke="midnightblue" d="M110.06,-489.791C133.9,-473.842 173.403,-448.806 210,-432 217.858,-428.392 226.39,-425.045 234.79,-422.05"/>
<polygon fill="midnightblue" stroke="midnightblue" points="108.053,-486.922 101.729,-495.422 111.974,-492.722 108.053,-486.922"/>
</g>
<!-- Node15 -->
<g id="node15" class="node"><title>Node15</title>
<g id="a_node15"><a xlink:href="structCSMWorld_1_1RefIdDataContainer.html" target="_top" xlink:title="CSMWorld::RefIdDataContainer\l\&lt; ESM::Lockpick \&gt;">
<polygon fill="white" stroke="black" points="210,-343 210,-373 362,-373 362,-343 210,-343"/>
<text text-anchor="start" x="218" y="-361" font-family="FreeSans" font-size="10.00">CSMWorld::RefIdDataContainer</text>
<text text-anchor="middle" x="286" y="-350" font-family="FreeSans" font-size="10.00">&lt; ESM::Lockpick &gt;</text>
</a>
</g>
</g>
<!-- Node1&#45;&gt;Node15 -->
<g id="edge14" class="edge"><title>Node1&#45;&gt;Node15</title>
<path fill="none" stroke="midnightblue" d="M101.238,-487.272C121.766,-460.951 163.757,-411.58 210,-383 216.188,-379.176 223.028,-375.863 229.986,-373.015"/>
<polygon fill="midnightblue" stroke="midnightblue" points="98.4285,-485.185 95.1245,-495.251 103.985,-489.442 98.4285,-485.185"/>
</g>
<!-- Node16 -->
<g id="node16" class="node"><title>Node16</title>
<g id="a_node16"><a xlink:href="structCSMWorld_1_1RefIdDataContainer.html" target="_top" xlink:title="CSMWorld::RefIdDataContainer\l\&lt; ESM::Miscellaneous \&gt;">
<polygon fill="white" stroke="black" points="210,-294 210,-324 362,-324 362,-294 210,-294"/>
<text text-anchor="start" x="218" y="-312" font-family="FreeSans" font-size="10.00">CSMWorld::RefIdDataContainer</text>
<text text-anchor="middle" x="286" y="-301" font-family="FreeSans" font-size="10.00">&lt; ESM::Miscellaneous &gt;</text>
</a>
</g>
</g>
<!-- Node1&#45;&gt;Node16 -->
<g id="edge15" class="edge"><title>Node1&#45;&gt;Node16</title>
<path fill="none" stroke="midnightblue" d="M96.4928,-486.108C113.201,-451.028 153.676,-375.624 210,-334 215.188,-330.166 220.999,-326.897 227.029,-324.115"/>
<polygon fill="midnightblue" stroke="midnightblue" points="93.2866,-484.702 92.2473,-495.246 99.6349,-487.651 93.2866,-484.702"/>
</g>
<!-- Node17 -->
<g id="node17" class="node"><title>Node17</title>
<g id="a_node17"><a xlink:href="structCSMWorld_1_1RefIdDataContainer.html" target="_top" xlink:title="CSMWorld::RefIdDataContainer\l\&lt; ESM::NPC \&gt;">
<polygon fill="white" stroke="black" points="210,-245 210,-275 362,-275 362,-245 210,-245"/>
<text text-anchor="start" x="218" y="-263" font-family="FreeSans" font-size="10.00">CSMWorld::RefIdDataContainer</text>
<text text-anchor="middle" x="286" y="-252" font-family="FreeSans" font-size="10.00">&lt; ESM::NPC &gt;</text>
</a>
</g>
</g>
<!-- Node1&#45;&gt;Node17 -->
<g id="edge16" class="edge"><title>Node1&#45;&gt;Node17</title>
<path fill="none" stroke="midnightblue" d="M93.3864,-485.795C106.278,-443.306 142.933,-340.705 210,-285 214.646,-281.141 219.91,-277.871 225.443,-275.1"/>
<polygon fill="midnightblue" stroke="midnightblue" points="90.0095,-484.873 90.5556,-495.454 96.7269,-486.842 90.0095,-484.873"/>
</g>
<!-- Node18 -->
<g id="node18" class="node"><title>Node18</title>
<g id="a_node18"><a xlink:href="structCSMWorld_1_1RefIdDataContainer.html" target="_top" xlink:title="CSMWorld::RefIdDataContainer\l\&lt; ESM::Potion \&gt;">
<polygon fill="white" stroke="black" points="210,-196 210,-226 362,-226 362,-196 210,-196"/>
<text text-anchor="start" x="218" y="-214" font-family="FreeSans" font-size="10.00">CSMWorld::RefIdDataContainer</text>
<text text-anchor="middle" x="286" y="-203" font-family="FreeSans" font-size="10.00">&lt; ESM::Potion &gt;</text>
</a>
</g>
</g>
<!-- Node1&#45;&gt;Node18 -->
<g id="edge17" class="edge"><title>Node1&#45;&gt;Node18</title>
<path fill="none" stroke="midnightblue" d="M91.3577,-485.291C100.783,-435.982 132.067,-306.219 210,-236 214.283,-232.141 219.179,-228.876 224.372,-226.113"/>
<polygon fill="midnightblue" stroke="midnightblue" points="87.8864,-484.818 89.5414,-495.283 94.7735,-486.07 87.8864,-484.818"/>
</g>
<!-- Node19 -->
<g id="node19" class="node"><title>Node19</title>
<g id="a_node19"><a xlink:href="structCSMWorld_1_1RefIdDataContainer.html" target="_top" xlink:title="CSMWorld::RefIdDataContainer\l\&lt; ESM::Probe \&gt;">
<polygon fill="white" stroke="black" points="210,-147 210,-177 362,-177 362,-147 210,-147"/>
<text text-anchor="start" x="218" y="-165" font-family="FreeSans" font-size="10.00">CSMWorld::RefIdDataContainer</text>
<text text-anchor="middle" x="286" y="-154" font-family="FreeSans" font-size="10.00">&lt; ESM::Probe &gt;</text>
</a>
</g>
</g>
<!-- Node1&#45;&gt;Node19 -->
<g id="edge18" class="edge"><title>Node1&#45;&gt;Node19</title>
<path fill="none" stroke="midnightblue" d="M89.8253,-485.146C95.9709,-429.802 120.832,-272.279 210,-187 214.067,-183.111 218.755,-179.826 223.76,-177.052"/>
<polygon fill="midnightblue" stroke="midnightblue" points="86.3182,-485.038 88.7815,-495.342 93.2818,-485.751 86.3182,-485.038"/>
</g>
<!-- Node20 -->
<g id="node20" class="node"><title>Node20</title>
<g id="a_node20"><a xlink:href="structCSMWorld_1_1RefIdDataContainer.html" target="_top" xlink:title="CSMWorld::RefIdDataContainer\l\&lt; ESM::Repair \&gt;">
<polygon fill="white" stroke="black" points="210,-98 210,-128 362,-128 362,-98 210,-98"/>
<text text-anchor="start" x="218" y="-116" font-family="FreeSans" font-size="10.00">CSMWorld::RefIdDataContainer</text>
<text text-anchor="middle" x="286" y="-105" font-family="FreeSans" font-size="10.00">&lt; ESM::Repair &gt;</text>
</a>
</g>
</g>
<!-- Node1&#45;&gt;Node20 -->
<g id="edge19" class="edge"><title>Node1&#45;&gt;Node20</title>
<path fill="none" stroke="midnightblue" d="M88.6429,-485.397C91.6958,-424.853 109.238,-238.844 210,-138 213.88,-134.116 218.379,-130.836 223.209,-128.065"/>
<polygon fill="midnightblue" stroke="midnightblue" points="85.1421,-485.344 88.2148,-495.484 92.1358,-485.641 85.1421,-485.344"/>
</g>
<!-- Node21 -->
<g id="node21" class="node"><title>Node21</title>
<g id="a_node21"><a xlink:href="structCSMWorld_1_1RefIdDataContainer.html" target="_top" xlink:title="CSMWorld::RefIdDataContainer\l\&lt; ESM::Static \&gt;">
<polygon fill="white" stroke="black" points="210,-49 210,-79 362,-79 362,-49 210,-49"/>
<text text-anchor="start" x="218" y="-67" font-family="FreeSans" font-size="10.00">CSMWorld::RefIdDataContainer</text>
<text text-anchor="middle" x="286" y="-56" font-family="FreeSans" font-size="10.00">&lt; ESM::Static &gt;</text>
</a>
</g>
</g>
<!-- Node1&#45;&gt;Node21 -->
<g id="edge20" class="edge"><title>Node1&#45;&gt;Node21</title>
<path fill="none" stroke="midnightblue" d="M87.7441,-485.016C88.0077,-418.965 97.8852,-205.281 210,-89 213.715,-85.1466 218.039,-81.887 222.7,-79.1299"/>
<polygon fill="midnightblue" stroke="midnightblue" points="84.2449,-485.276 87.7806,-495.263 91.2449,-485.251 84.2449,-485.276"/>
</g>
<!-- Node22 -->
<g id="node22" class="node"><title>Node22</title>
<g id="a_node22"><a xlink:href="structCSMWorld_1_1RefIdDataContainer.html" target="_top" xlink:title="CSMWorld::RefIdDataContainer\l\&lt; ESM::Weapon \&gt;">
<polygon fill="white" stroke="black" points="210,-0 210,-30 362,-30 362,-0 210,-0"/>
<text text-anchor="start" x="218" y="-18" font-family="FreeSans" font-size="10.00">CSMWorld::RefIdDataContainer</text>
<text text-anchor="middle" x="286" y="-7" font-family="FreeSans" font-size="10.00">&lt; ESM::Weapon &gt;</text>
</a>
</g>
</g>
<!-- Node1&#45;&gt;Node22 -->
<g id="edge21" class="edge"><title>Node1&#45;&gt;Node22</title>
<path fill="none" stroke="midnightblue" d="M90.663,-485.211C101.787,-405.283 146.911,-107.341 210,-40 213.66,-36.0937 217.945,-32.7974 222.58,-30.0158"/>
<polygon fill="midnightblue" stroke="midnightblue" points="87.1613,-484.986 89.2704,-495.368 94.0964,-485.937 87.1613,-484.986"/>
</g>
</g>
</svg>
