<?xml version="1.0" encoding="UTF-8" standalone="no"?>
<!DOCTYPE svg PUBLIC "-//W3C//DTD SVG 1.1//EN"
 "http://www.w3.org/Graphics/SVG/1.1/DTD/svg11.dtd">
<!-- Generated by graphviz version 2.36.0 (20140111.2315)
 -->
<!-- Title: /home/travis/build/scrawl/openmw/components/interpreter/context.hpp Pages: 1 -->
<svg width="162pt" height="106pt"
 viewBox="0.00 0.00 162.00 106.00" xmlns="http://www.w3.org/2000/svg" xmlns:xlink="http://www.w3.org/1999/xlink">
<g id="graph0" class="graph" transform="scale(1 1) rotate(0) translate(4 102)">
<title>/home/travis/build/scrawl/openmw/components/interpreter/context.hpp</title>
<polygon fill="white" stroke="none" points="-4,4 -4,-102 158,-102 158,4 -4,4"/>
<!-- Node1 -->
<g id="node1" class="node"><title>Node1</title>
<polygon fill="#bfbfbf" stroke="black" points="-0.5,-56.5 -0.5,-97.5 154.5,-97.5 154.5,-56.5 -0.5,-56.5"/>
<text text-anchor="start" x="7.5" y="-85.5" font-family="FreeSans" font-size="10.00">/home/travis/build</text>
<text text-anchor="start" x="7.5" y="-74.5" font-family="FreeSans" font-size="10.00">/scrawl/openmw/components</text>
<text text-anchor="middle" x="77" y="-63.5" font-family="FreeSans" font-size="10.00">/interpreter/context.hpp</text>
</g>
<!-- Node2 -->
<g id="node2" class="node"><title>Node2</title>
<polygon fill="white" stroke="#bfbfbf" points="23,-0.5 23,-19.5 67,-19.5 67,-0.5 23,-0.5"/>
<text text-anchor="middle" x="45" y="-7.5" font-family="FreeSans" font-size="10.00">string</text>
</g>
<!-- Node1&#45;&gt;Node2 -->
<g id="edge1" class="edge"><title>Node1&#45;&gt;Node2</title>
<path fill="none" stroke="midnightblue" d="M67.3989,-56.4979C63.0588,-47.682 57.9667,-37.3385 53.7351,-28.7432"/>
<polygon fill="midnightblue" stroke="midnightblue" points="56.8167,-27.0783 49.2597,-19.6525 50.5365,-30.1701 56.8167,-27.0783"/>
</g>
<!-- Node3 -->
<g id="node3" class="node"><title>Node3</title>
<polygon fill="white" stroke="#bfbfbf" points="85.5,-0.5 85.5,-19.5 132.5,-19.5 132.5,-0.5 85.5,-0.5"/>
<text text-anchor="middle" x="109" y="-7.5" font-family="FreeSans" font-size="10.00">vector</text>
</g>
<!-- Node1&#45;&gt;Node3 -->
<g id="edge2" class="edge"><title>Node1&#45;&gt;Node3</title>
<path fill="none" stroke="midnightblue" d="M86.6011,-56.4979C90.9412,-47.682 96.0333,-37.3385 100.265,-28.7432"/>
<polygon fill="midnightblue" stroke="midnightblue" points="103.464,-30.1701 104.74,-19.6525 97.1833,-27.0783 103.464,-30.1701"/>
</g>
</g>
</svg>
