<?xml version="1.0" encoding="UTF-8" standalone="no"?>
<!DOCTYPE svg PUBLIC "-//W3C//DTD SVG 1.1//EN"
 "http://www.w3.org/Graphics/SVG/1.1/DTD/svg11.dtd">
<!-- Generated by graphviz version 2.36.0 (20140111.2315)
 -->
<!-- Title: /home/scrawl/Dev/openmw/apps/openmw/mwgui/itemselection.hpp Pages: 1 -->
<svg width="333pt" height="208pt"
 viewBox="0.00 0.00 333.00 208.00" xmlns="http://www.w3.org/2000/svg" xmlns:xlink="http://www.w3.org/1999/xlink">
<g id="graph0" class="graph" transform="scale(1 1) rotate(0) translate(4 204)">
<title>/home/scrawl/Dev/openmw/apps/openmw/mwgui/itemselection.hpp</title>
<polygon fill="white" stroke="none" points="-4,4 -4,-204 329,-204 329,4 -4,4"/>
<!-- Node1 -->
<g id="node1" class="node"><title>Node1</title>
<polygon fill="#bfbfbf" stroke="black" points="9,-169 9,-199 197,-199 197,-169 9,-169"/>
<text text-anchor="start" x="17" y="-187" font-family="FreeSans" font-size="10.00">/home/scrawl/Dev/openmw</text>
<text text-anchor="middle" x="103" y="-176" font-family="FreeSans" font-size="10.00">/apps/openmw/mwgui/itemselection.hpp</text>
</g>
<!-- Node2 -->
<g id="node2" class="node"><title>Node2</title>
<polygon fill="white" stroke="#bfbfbf" points="-1,-112.5 -1,-131.5 97,-131.5 97,-112.5 -1,-112.5"/>
<text text-anchor="middle" x="48" y="-119.5" font-family="FreeSans" font-size="10.00">MyGUI_Delegate.h</text>
</g>
<!-- Node1&#45;&gt;Node2 -->
<g id="edge1" class="edge"><title>Node1&#45;&gt;Node2</title>
<path fill="none" stroke="midnightblue" d="M89.9658,-168.781C81.8088,-159.882 71.2781,-148.394 62.8064,-139.152"/>
<polygon fill="midnightblue" stroke="midnightblue" points="65.3403,-136.737 56.003,-131.731 60.1802,-141.467 65.3403,-136.737"/>
</g>
<!-- Node3 -->
<g id="node3" class="node"><title>Node3</title>
<g id="a_node3"><a xlink:href="windowbase_8hpp.html" target="_top" xlink:title="windowbase.hpp">
<polygon fill="white" stroke="black" points="115,-112.5 115,-131.5 201,-131.5 201,-112.5 115,-112.5"/>
<text text-anchor="middle" x="158" y="-119.5" font-family="FreeSans" font-size="10.00">windowbase.hpp</text>
</a>
</g>
</g>
<!-- Node1&#45;&gt;Node3 -->
<g id="edge2" class="edge"><title>Node1&#45;&gt;Node3</title>
<path fill="none" stroke="midnightblue" d="M116.034,-168.781C124.191,-159.882 134.722,-148.394 143.194,-139.152"/>
<polygon fill="midnightblue" stroke="midnightblue" points="145.82,-141.467 149.997,-131.731 140.66,-136.737 145.82,-141.467"/>
</g>
<!-- Node4 -->
<g id="node4" class="node"><title>Node4</title>
<g id="a_node4"><a xlink:href="layout_8hpp.html" target="_top" xlink:title="layout.hpp">
<polygon fill="white" stroke="black" points="128,-56.5 128,-75.5 188,-75.5 188,-56.5 128,-56.5"/>
<text text-anchor="middle" x="158" y="-63.5" font-family="FreeSans" font-size="10.00">layout.hpp</text>
</a>
</g>
</g>
<!-- Node3&#45;&gt;Node4 -->
<g id="edge3" class="edge"><title>Node3&#45;&gt;Node4</title>
<path fill="none" stroke="midnightblue" d="M158,-112.083C158,-105.006 158,-94.8611 158,-85.9865"/>
<polygon fill="midnightblue" stroke="midnightblue" points="161.5,-85.751 158,-75.7511 154.5,-85.7511 161.5,-85.751"/>
</g>
<!-- Node5 -->
<g id="node5" class="node"><title>Node5</title>
<polygon fill="white" stroke="#bfbfbf" points="39,-0.5 39,-19.5 79,-19.5 79,-0.5 39,-0.5"/>
<text text-anchor="middle" x="59" y="-7.5" font-family="FreeSans" font-size="10.00">string</text>
</g>
<!-- Node4&#45;&gt;Node5 -->
<g id="edge4" class="edge"><title>Node4&#45;&gt;Node5</title>
<path fill="none" stroke="midnightblue" d="M142.094,-56.324C126.362,-47.7428 102.058,-34.486 83.7911,-24.5224"/>
<polygon fill="midnightblue" stroke="midnightblue" points="85.3216,-21.3704 74.8666,-19.6545 81.9696,-27.5157 85.3216,-21.3704"/>
</g>
<!-- Node6 -->
<g id="node6" class="node"><title>Node6</title>
<polygon fill="white" stroke="#bfbfbf" points="97.5,-0.5 97.5,-19.5 218.5,-19.5 218.5,-0.5 97.5,-0.5"/>
<text text-anchor="middle" x="158" y="-7.5" font-family="FreeSans" font-size="10.00">MyGUI_WidgetDefines.h</text>
</g>
<!-- Node4&#45;&gt;Node6 -->
<g id="edge5" class="edge"><title>Node4&#45;&gt;Node6</title>
<path fill="none" stroke="midnightblue" d="M158,-56.083C158,-49.0059 158,-38.8611 158,-29.9865"/>
<polygon fill="midnightblue" stroke="midnightblue" points="161.5,-29.751 158,-19.7511 154.5,-29.7511 161.5,-29.751"/>
</g>
<!-- Node7 -->
<g id="node7" class="node"><title>Node7</title>
<polygon fill="white" stroke="#bfbfbf" points="236.5,-0.5 236.5,-19.5 325.5,-19.5 325.5,-0.5 236.5,-0.5"/>
<text text-anchor="middle" x="281" y="-7.5" font-family="FreeSans" font-size="10.00">MyGUI_Widget.h</text>
</g>
<!-- Node4&#45;&gt;Node7 -->
<g id="edge6" class="edge"><title>Node4&#45;&gt;Node7</title>
<path fill="none" stroke="midnightblue" d="M177.49,-56.4435C197.642,-47.5961 229.323,-33.6875 252.331,-23.5865"/>
<polygon fill="midnightblue" stroke="midnightblue" points="253.852,-26.7411 261.601,-19.5164 251.038,-20.3316 253.852,-26.7411"/>
</g>
</g>
</svg>
