<?xml version="1.0" encoding="UTF-8" standalone="no"?>
<!DOCTYPE svg PUBLIC "-//W3C//DTD SVG 1.1//EN"
 "http://www.w3.org/Graphics/SVG/1.1/DTD/svg11.dtd">
<!-- Generated by graphviz version 2.36.0 (20140111.2315)
 -->
<!-- Title: /home/travis/build/elsid/openmw/components/sceneutil/lightutil.hpp Pages: 1 -->
<svg width="158pt" height="106pt"
 viewBox="0.00 0.00 158.00 106.00" xmlns="http://www.w3.org/2000/svg" xmlns:xlink="http://www.w3.org/1999/xlink">
<g id="graph0" class="graph" transform="scale(1 1) rotate(0) translate(4 102)">
<title>/home/travis/build/elsid/openmw/components/sceneutil/lightutil.hpp</title>
<polygon fill="white" stroke="none" points="-4,4 -4,-102 154,-102 154,4 -4,4"/>
<!-- Node1 -->
<g id="node1" class="node"><title>Node1</title>
<polygon fill="#bfbfbf" stroke="black" points="2,-56.5 2,-97.5 150,-97.5 150,-56.5 2,-56.5"/>
<text text-anchor="start" x="10" y="-85.5" font-family="FreeSans" font-size="10.00">/home/travis/build</text>
<text text-anchor="start" x="10" y="-74.5" font-family="FreeSans" font-size="10.00">/elsid/openmw/components</text>
<text text-anchor="middle" x="76" y="-63.5" font-family="FreeSans" font-size="10.00">/sceneutil/lightutil.hpp</text>
</g>
<!-- Node2 -->
<g id="node2" class="node"><title>Node2</title>
<polygon fill="white" stroke="#bfbfbf" points="0,-0.5 0,-19.5 68,-19.5 68,-0.5 0,-0.5"/>
<text text-anchor="middle" x="34" y="-7.5" font-family="FreeSans" font-size="10.00">osg/ref_ptr</text>
</g>
<!-- Node1&#45;&gt;Node2 -->
<g id="edge1" class="edge"><title>Node1&#45;&gt;Node2</title>
<path fill="none" stroke="midnightblue" d="M63.3986,-56.4979C57.5784,-47.4904 50.7277,-36.8881 45.1043,-28.1852"/>
<polygon fill="midnightblue" stroke="midnightblue" points="47.9578,-26.1522 39.5908,-19.6525 42.0783,-29.9512 47.9578,-26.1522"/>
</g>
<!-- Node3 -->
<g id="node3" class="node"><title>Node3</title>
<polygon fill="white" stroke="#bfbfbf" points="86.5,-0.5 86.5,-19.5 149.5,-19.5 149.5,-0.5 86.5,-0.5"/>
<text text-anchor="middle" x="118" y="-7.5" font-family="FreeSans" font-size="10.00">osg/Vec4f</text>
</g>
<!-- Node1&#45;&gt;Node3 -->
<g id="edge2" class="edge"><title>Node1&#45;&gt;Node3</title>
<path fill="none" stroke="midnightblue" d="M88.6014,-56.4979C94.4216,-47.4904 101.272,-36.8881 106.896,-28.1852"/>
<polygon fill="midnightblue" stroke="midnightblue" points="109.922,-29.9512 112.409,-19.6525 104.042,-26.1522 109.922,-29.9512"/>
</g>
</g>
</svg>
