<?xml version="1.0" encoding="UTF-8" standalone="no"?>
<!DOCTYPE svg PUBLIC "-//W3C//DTD SVG 1.1//EN"
 "http://www.w3.org/Graphics/SVG/1.1/DTD/svg11.dtd">
<!-- Generated by graphviz version 2.36.0 (20140111.2315)
 -->
<!-- Title: /home/travis/build/OpenMW/openmw/components/esm/loadclot.hpp Pages: 1 -->
<svg width="174pt" height="162pt"
 viewBox="0.00 0.00 174.00 162.00" xmlns="http://www.w3.org/2000/svg" xmlns:xlink="http://www.w3.org/1999/xlink">
<g id="graph0" class="graph" transform="scale(1 1) rotate(0) translate(4 158)">
<title>/home/travis/build/OpenMW/openmw/components/esm/loadclot.hpp</title>
<polygon fill="white" stroke="none" points="-4,4 -4,-158 170,-158 170,4 -4,4"/>
<!-- Node1 -->
<g id="node1" class="node"><title>Node1</title>
<polygon fill="#bfbfbf" stroke="black" points="-1,-112.5 -1,-153.5 167,-153.5 167,-112.5 -1,-112.5"/>
<text text-anchor="start" x="7" y="-141.5" font-family="FreeSans" font-size="10.00">/home/travis/build</text>
<text text-anchor="start" x="7" y="-130.5" font-family="FreeSans" font-size="10.00">/OpenMW/openmw/components</text>
<text text-anchor="middle" x="83" y="-119.5" font-family="FreeSans" font-size="10.00">/esm/loadclot.hpp</text>
</g>
<!-- Node2 -->
<g id="node2" class="node"><title>Node2</title>
<polygon fill="white" stroke="#bfbfbf" points="29,-0.5 29,-19.5 73,-19.5 73,-0.5 29,-0.5"/>
<text text-anchor="middle" x="51" y="-7.5" font-family="FreeSans" font-size="10.00">string</text>
</g>
<!-- Node1&#45;&gt;Node2 -->
<g id="edge1" class="edge"><title>Node1&#45;&gt;Node2</title>
<path fill="none" stroke="midnightblue" d="M77.1944,-112.353C74.0757,-101.634 70.2212,-88.1171 67,-76 62.8895,-60.5374 58.5727,-42.9072 55.4604,-29.9128"/>
<polygon fill="midnightblue" stroke="midnightblue" points="58.7881,-28.7775 53.0708,-19.8578 51.9778,-30.3961 58.7881,-28.7775"/>
</g>
<!-- Node3 -->
<g id="node3" class="node"><title>Node3</title>
<g id="a_node3"><a xlink:href="loadarmo_8hpp.html" target="_top" xlink:title="loadarmo.hpp">
<polygon fill="white" stroke="black" points="76.5,-56.5 76.5,-75.5 159.5,-75.5 159.5,-56.5 76.5,-56.5"/>
<text text-anchor="middle" x="118" y="-63.5" font-family="FreeSans" font-size="10.00">loadarmo.hpp</text>
</a>
</g>
</g>
<!-- Node1&#45;&gt;Node3 -->
<g id="edge2" class="edge"><title>Node1&#45;&gt;Node3</title>
<path fill="none" stroke="midnightblue" d="M93.5012,-112.498C98.2997,-103.586 103.939,-93.1135 108.597,-84.4636"/>
<polygon fill="midnightblue" stroke="midnightblue" points="111.682,-86.1166 113.341,-75.6525 105.518,-82.7978 111.682,-86.1166"/>
</g>
<!-- Node3&#45;&gt;Node2 -->
<g id="edge4" class="edge"><title>Node3&#45;&gt;Node2</title>
<path fill="none" stroke="midnightblue" d="M107.235,-56.324C97.2339,-48.2631 82.1135,-36.0765 70.0695,-26.3695"/>
<polygon fill="midnightblue" stroke="midnightblue" points="71.9429,-23.3841 61.9606,-19.8339 67.5502,-28.8343 71.9429,-23.3841"/>
</g>
<!-- Node4 -->
<g id="node4" class="node"><title>Node4</title>
<polygon fill="white" stroke="#bfbfbf" points="94.5,-0.5 94.5,-19.5 141.5,-19.5 141.5,-0.5 94.5,-0.5"/>
<text text-anchor="middle" x="118" y="-7.5" font-family="FreeSans" font-size="10.00">vector</text>
</g>
<!-- Node3&#45;&gt;Node4 -->
<g id="edge3" class="edge"><title>Node3&#45;&gt;Node4</title>
<path fill="none" stroke="midnightblue" d="M118,-56.083C118,-49.0059 118,-38.8611 118,-29.9865"/>
<polygon fill="midnightblue" stroke="midnightblue" points="121.5,-29.751 118,-19.7511 114.5,-29.7511 121.5,-29.751"/>
</g>
</g>
</svg>
