<?xml version="1.0" encoding="UTF-8" standalone="no"?>
<!DOCTYPE svg PUBLIC "-//W3C//DTD SVG 1.1//EN"
 "http://www.w3.org/Graphics/SVG/1.1/DTD/svg11.dtd">
<!-- Generated by graphviz version 2.36.0 (20140111.2315)
 -->
<!-- Title: /home/travis/build/elsid/openmw/components/esm/loaddial.cpp Pages: 1 -->
<svg width="1601pt" height="286pt"
 viewBox="0.00 0.00 1601.00 286.00" xmlns="http://www.w3.org/2000/svg" xmlns:xlink="http://www.w3.org/1999/xlink">
<g id="graph0" class="graph" transform="scale(1 1) rotate(0) translate(4 282)">
<title>/home/travis/build/elsid/openmw/components/esm/loaddial.cpp</title>
<polygon fill="white" stroke="none" points="-4,4 -4,-282 1597,-282 1597,4 -4,4"/>
<!-- Node1 -->
<g id="node1" class="node"><title>Node1</title>
<polygon fill="#bfbfbf" stroke="black" points="281,-236.5 281,-277.5 429,-277.5 429,-236.5 281,-236.5"/>
<text text-anchor="start" x="289" y="-265.5" font-family="FreeSans" font-size="10.00">/home/travis/build</text>
<text text-anchor="start" x="289" y="-254.5" font-family="FreeSans" font-size="10.00">/elsid/openmw/components</text>
<text text-anchor="middle" x="355" y="-243.5" font-family="FreeSans" font-size="10.00">/esm/loaddial.cpp</text>
</g>
<!-- Node2 -->
<g id="node2" class="node"><title>Node2</title>
<g id="a_node2"><a xlink:href="loaddial_8hpp.html" target="_top" xlink:title="loaddial.hpp">
<polygon fill="white" stroke="black" points="318,-180.5 318,-199.5 392,-199.5 392,-180.5 318,-180.5"/>
<text text-anchor="middle" x="355" y="-187.5" font-family="FreeSans" font-size="10.00">loaddial.hpp</text>
</a>
</g>
</g>
<!-- Node1&#45;&gt;Node2 -->
<g id="edge1" class="edge"><title>Node1&#45;&gt;Node2</title>
<path fill="none" stroke="midnightblue" d="M355,-236.498C355,-228.065 355,-218.235 355,-209.874"/>
<polygon fill="midnightblue" stroke="midnightblue" points="358.5,-209.652 355,-199.652 351.5,-209.653 358.5,-209.652"/>
</g>
<!-- Node8 -->
<g id="node8" class="node"><title>Node8</title>
<g id="a_node8"><a xlink:href="esm_2defs_8hpp.html" target="_top" xlink:title="defs.hpp">
<polygon fill="white" stroke="black" points="266,-56.5 266,-75.5 324,-75.5 324,-56.5 266,-56.5"/>
<text text-anchor="middle" x="295" y="-63.5" font-family="FreeSans" font-size="10.00">defs.hpp</text>
</a>
</g>
</g>
<!-- Node1&#45;&gt;Node8 -->
<g id="edge51" class="edge"><title>Node1&#45;&gt;Node8</title>
<path fill="none" stroke="midnightblue" d="M318.025,-236.319C286.719,-217.347 243.993,-185.433 225,-144 219.073,-131.071 218.185,-124.483 225,-112 232.819,-97.6789 247.362,-87.2355 261.176,-80.0358"/>
<polygon fill="midnightblue" stroke="midnightblue" points="263.019,-83.0338 270.531,-75.5617 259.999,-76.7188 263.019,-83.0338"/>
</g>
<!-- Node13 -->
<g id="node13" class="node"><title>Node13</title>
<g id="a_node13"><a xlink:href="debuglog_8hpp.html" target="_top" xlink:title="components/debug/debuglog.hpp">
<polygon fill="white" stroke="black" points="0,-180.5 0,-199.5 178,-199.5 178,-180.5 0,-180.5"/>
<text text-anchor="middle" x="89" y="-187.5" font-family="FreeSans" font-size="10.00">components/debug/debuglog.hpp</text>
</a>
</g>
</g>
<!-- Node1&#45;&gt;Node13 -->
<g id="edge14" class="edge"><title>Node1&#45;&gt;Node13</title>
<path fill="none" stroke="midnightblue" d="M280.904,-237.894C233.571,-226.328 173.765,-211.713 133.606,-201.9"/>
<polygon fill="midnightblue" stroke="midnightblue" points="134.384,-198.487 123.839,-199.513 132.722,-205.287 134.384,-198.487"/>
</g>
<!-- Node16 -->
<g id="node16" class="node"><title>Node16</title>
<g id="a_node16"><a xlink:href="esmreader_8hpp.html" target="_top" xlink:title="esmreader.hpp">
<polygon fill="white" stroke="black" points="833.5,-180.5 833.5,-199.5 922.5,-199.5 922.5,-180.5 833.5,-180.5"/>
<text text-anchor="middle" x="878" y="-187.5" font-family="FreeSans" font-size="10.00">esmreader.hpp</text>
</a>
</g>
</g>
<!-- Node1&#45;&gt;Node16 -->
<g id="edge17" class="edge"><title>Node1&#45;&gt;Node16</title>
<path fill="none" stroke="midnightblue" d="M429.101,-246.791C535.437,-233.575 728.87,-209.534 823.255,-197.804"/>
<polygon fill="midnightblue" stroke="midnightblue" points="823.95,-201.244 833.442,-196.538 823.087,-194.298 823.95,-201.244"/>
</g>
<!-- Node32 -->
<g id="node32" class="node"><title>Node32</title>
<g id="a_node32"><a xlink:href="esmwriter_8hpp.html" target="_top" xlink:title="esmwriter.hpp">
<polygon fill="white" stroke="black" points="438,-180.5 438,-199.5 522,-199.5 522,-180.5 438,-180.5"/>
<text text-anchor="middle" x="480" y="-187.5" font-family="FreeSans" font-size="10.00">esmwriter.hpp</text>
</a>
</g>
</g>
<!-- Node1&#45;&gt;Node32 -->
<g id="edge46" class="edge"><title>Node1&#45;&gt;Node32</title>
<path fill="none" stroke="midnightblue" d="M392.504,-236.498C412.406,-226.149 436.357,-213.695 454.164,-204.435"/>
<polygon fill="midnightblue" stroke="midnightblue" points="456.103,-207.371 463.361,-199.652 452.874,-201.161 456.103,-207.371"/>
</g>
<!-- Node3 -->
<g id="node3" class="node"><title>Node3</title>
<polygon fill="white" stroke="#bfbfbf" points="743,-0.5 743,-19.5 787,-19.5 787,-0.5 743,-0.5"/>
<text text-anchor="middle" x="765" y="-7.5" font-family="FreeSans" font-size="10.00">string</text>
</g>
<!-- Node2&#45;&gt;Node3 -->
<g id="edge2" class="edge"><title>Node2&#45;&gt;Node3</title>
<path fill="none" stroke="midnightblue" d="M359.36,-180.322C367.695,-164.559 387.364,-131.095 413,-112 441.702,-90.622 529.667,-66.1053 564,-56 635.171,-35.0516 654.679,-36.5497 727,-20 728.933,-19.5576 730.921,-19.0989 732.925,-18.6332"/>
<polygon fill="midnightblue" stroke="midnightblue" points="733.973,-21.9824 742.91,-16.2917 732.375,-15.1672 733.973,-21.9824"/>
</g>
<!-- Node4 -->
<g id="node4" class="node"><title>Node4</title>
<polygon fill="white" stroke="#bfbfbf" points="422,-118.5 422,-137.5 452,-137.5 452,-118.5 422,-118.5"/>
<text text-anchor="middle" x="437" y="-125.5" font-family="FreeSans" font-size="10.00">list</text>
</g>
<!-- Node2&#45;&gt;Node4 -->
<g id="edge3" class="edge"><title>Node2&#45;&gt;Node4</title>
<path fill="none" stroke="midnightblue" d="M366.749,-180.403C379.901,-170.78 401.434,-155.024 417.198,-143.489"/>
<polygon fill="midnightblue" stroke="midnightblue" points="419.27,-146.31 425.273,-137.581 415.136,-140.661 419.27,-146.31"/>
</g>
<!-- Node5 -->
<g id="node5" class="node"><title>Node5</title>
<polygon fill="white" stroke="#bfbfbf" points="234,-118.5 234,-137.5 272,-137.5 272,-118.5 234,-118.5"/>
<text text-anchor="middle" x="253" y="-125.5" font-family="FreeSans" font-size="10.00">map</text>
</g>
<!-- Node2&#45;&gt;Node5 -->
<g id="edge4" class="edge"><title>Node2&#45;&gt;Node5</title>
<path fill="none" stroke="midnightblue" d="M340.386,-180.403C323.647,-170.557 295.996,-154.291 276.281,-142.695"/>
<polygon fill="midnightblue" stroke="midnightblue" points="277.981,-139.634 267.587,-137.581 274.432,-145.668 277.981,-139.634"/>
</g>
<!-- Node6 -->
<g id="node6" class="node"><title>Node6</title>
<g id="a_node6"><a xlink:href="loadinfo_8hpp.html" target="_top" xlink:title="loadinfo.hpp">
<polygon fill="white" stroke="black" points="290.5,-118.5 290.5,-137.5 365.5,-137.5 365.5,-118.5 290.5,-118.5"/>
<text text-anchor="middle" x="328" y="-125.5" font-family="FreeSans" font-size="10.00">loadinfo.hpp</text>
</a>
</g>
</g>
<!-- Node2&#45;&gt;Node6 -->
<g id="edge5" class="edge"><title>Node2&#45;&gt;Node6</title>
<path fill="none" stroke="midnightblue" d="M351.132,-180.403C347.202,-171.671 341,-157.889 336.007,-146.794"/>
<polygon fill="midnightblue" stroke="midnightblue" points="339.157,-145.264 331.861,-137.581 332.773,-148.136 339.157,-145.264"/>
</g>
<!-- Node6&#45;&gt;Node3 -->
<g id="edge6" class="edge"><title>Node6&#45;&gt;Node3</title>
<path fill="none" stroke="midnightblue" d="M345.529,-118.391C376.67,-103.448 444.013,-72.7148 504,-56 600.71,-29.0526 628.534,-39.5816 727,-20 728.945,-19.6132 730.942,-19.1973 732.953,-18.764"/>
<polygon fill="midnightblue" stroke="midnightblue" points="733.972,-22.1221 742.956,-16.5066 732.431,-15.2938 733.972,-22.1221"/>
</g>
<!-- Node7 -->
<g id="node7" class="node"><title>Node7</title>
<polygon fill="white" stroke="#bfbfbf" points="573.5,-56.5 573.5,-75.5 620.5,-75.5 620.5,-56.5 573.5,-56.5"/>
<text text-anchor="middle" x="597" y="-63.5" font-family="FreeSans" font-size="10.00">vector</text>
</g>
<!-- Node6&#45;&gt;Node7 -->
<g id="edge7" class="edge"><title>Node6&#45;&gt;Node7</title>
<path fill="none" stroke="midnightblue" d="M365.687,-118.594C418.334,-106.851 513.081,-85.718 563.426,-74.4887"/>
<polygon fill="midnightblue" stroke="midnightblue" points="564.466,-77.8428 573.464,-72.2497 562.942,-71.0107 564.466,-77.8428"/>
</g>
<!-- Node6&#45;&gt;Node8 -->
<g id="edge8" class="edge"><title>Node6&#45;&gt;Node8</title>
<path fill="none" stroke="midnightblue" d="M323.272,-118.403C318.42,-109.582 310.734,-95.6075 304.6,-84.4548"/>
<polygon fill="midnightblue" stroke="midnightblue" points="307.605,-82.656 299.719,-75.5806 301.472,-86.0295 307.605,-82.656"/>
</g>
<!-- Node11 -->
<g id="node11" class="node"><title>Node11</title>
<g id="a_node11"><a xlink:href="variant_8hpp.html" target="_top" xlink:title="variant.hpp">
<polygon fill="white" stroke="black" points="342.5,-56.5 342.5,-75.5 413.5,-75.5 413.5,-56.5 342.5,-56.5"/>
<text text-anchor="middle" x="378" y="-63.5" font-family="FreeSans" font-size="10.00">variant.hpp</text>
</a>
</g>
</g>
<!-- Node6&#45;&gt;Node11 -->
<g id="edge11" class="edge"><title>Node6&#45;&gt;Node11</title>
<path fill="none" stroke="midnightblue" d="M335.164,-118.403C342.738,-109.314 354.87,-94.7559 364.293,-83.4489"/>
<polygon fill="midnightblue" stroke="midnightblue" points="367.136,-85.5035 370.85,-75.5806 361.759,-81.0222 367.136,-85.5035"/>
</g>
<!-- Node9 -->
<g id="node9" class="node"><title>Node9</title>
<polygon fill="white" stroke="#bfbfbf" points="665.5,-0.5 665.5,-19.5 718.5,-19.5 718.5,-0.5 665.5,-0.5"/>
<text text-anchor="middle" x="692" y="-7.5" font-family="FreeSans" font-size="10.00">stdint.h</text>
</g>
<!-- Node8&#45;&gt;Node9 -->
<g id="edge9" class="edge"><title>Node8&#45;&gt;Node9</title>
<path fill="none" stroke="midnightblue" d="M324.393,-57.7079C327.292,-57.0881 330.198,-56.5059 333,-56 449.817,-34.9085 589.799,-20.4342 655.087,-14.3011"/>
<polygon fill="midnightblue" stroke="midnightblue" points="655.645,-17.7643 665.279,-13.3546 654.998,-10.7943 655.645,-17.7643"/>
</g>
<!-- Node10 -->
<g id="node10" class="node"><title>Node10</title>
<polygon fill="white" stroke="#bfbfbf" points="263.5,-0.5 263.5,-19.5 326.5,-19.5 326.5,-0.5 263.5,-0.5"/>
<text text-anchor="middle" x="295" y="-7.5" font-family="FreeSans" font-size="10.00">osg/Vec3f</text>
</g>
<!-- Node8&#45;&gt;Node10 -->
<g id="edge10" class="edge"><title>Node8&#45;&gt;Node10</title>
<path fill="none" stroke="midnightblue" d="M295,-56.083C295,-49.0059 295,-38.8611 295,-29.9865"/>
<polygon fill="midnightblue" stroke="midnightblue" points="298.5,-29.751 295,-19.7511 291.5,-29.7511 298.5,-29.751"/>
</g>
<!-- Node11&#45;&gt;Node3 -->
<g id="edge12" class="edge"><title>Node11&#45;&gt;Node3</title>
<path fill="none" stroke="midnightblue" d="M413.738,-58.3062C418.525,-57.486 423.377,-56.6938 428,-56 560.366,-36.1357 595.224,-43.4611 727,-20 728.952,-19.6524 730.955,-19.2667 732.97,-18.8563"/>
<polygon fill="midnightblue" stroke="midnightblue" points="733.967,-22.2207 742.985,-16.6582 732.467,-15.3835 733.967,-22.2207"/>
</g>
<!-- Node12 -->
<g id="node12" class="node"><title>Node12</title>
<polygon fill="white" stroke="#bfbfbf" points="406,-0.5 406,-19.5 452,-19.5 452,-0.5 406,-0.5"/>
<text text-anchor="middle" x="429" y="-7.5" font-family="FreeSans" font-size="10.00">iosfwd</text>
</g>
<!-- Node11&#45;&gt;Node12 -->
<g id="edge13" class="edge"><title>Node11&#45;&gt;Node12</title>
<path fill="none" stroke="midnightblue" d="M386.422,-56.083C393.848,-48.2195 404.852,-36.5688 413.812,-27.0813"/>
<polygon fill="midnightblue" stroke="midnightblue" points="416.413,-29.4244 420.735,-19.7511 411.324,-24.618 416.413,-29.4244"/>
</g>
<!-- Node14 -->
<g id="node14" class="node"><title>Node14</title>
<polygon fill="white" stroke="#bfbfbf" points="98.5,-118.5 98.5,-137.5 145.5,-137.5 145.5,-118.5 98.5,-118.5"/>
<text text-anchor="middle" x="122" y="-125.5" font-family="FreeSans" font-size="10.00">mutex</text>
</g>
<!-- Node13&#45;&gt;Node14 -->
<g id="edge15" class="edge"><title>Node13&#45;&gt;Node14</title>
<path fill="none" stroke="midnightblue" d="M93.7281,-180.403C98.5801,-171.582 106.266,-157.608 112.4,-146.455"/>
<polygon fill="midnightblue" stroke="midnightblue" points="115.528,-148.029 117.281,-137.581 109.395,-144.656 115.528,-148.029"/>
</g>
<!-- Node15 -->
<g id="node15" class="node"><title>Node15</title>
<polygon fill="white" stroke="#bfbfbf" points="21.5,-118.5 21.5,-137.5 80.5,-137.5 80.5,-118.5 21.5,-118.5"/>
<text text-anchor="middle" x="51" y="-125.5" font-family="FreeSans" font-size="10.00">iostream</text>
</g>
<!-- Node13&#45;&gt;Node15 -->
<g id="edge16" class="edge"><title>Node13&#45;&gt;Node15</title>
<path fill="none" stroke="midnightblue" d="M83.5555,-180.403C77.9119,-171.493 68.939,-157.325 61.8412,-146.118"/>
<polygon fill="midnightblue" stroke="midnightblue" points="64.7418,-144.156 56.4344,-137.581 58.8281,-147.901 64.7418,-144.156"/>
</g>
<!-- Node16&#45;&gt;Node7 -->
<g id="edge21" class="edge"><title>Node16&#45;&gt;Node7</title>
<path fill="none" stroke="midnightblue" d="M833.345,-189.187C757.334,-188.448 607.823,-182.057 575,-144 560.443,-127.122 572.745,-101.187 583.976,-84.157"/>
<polygon fill="midnightblue" stroke="midnightblue" points="587.019,-85.9143 589.927,-75.7262 581.301,-81.8774 587.019,-85.9143"/>
</g>
<!-- Node16&#45;&gt;Node9 -->
<g id="edge18" class="edge"><title>Node16&#45;&gt;Node9</title>
<path fill="none" stroke="midnightblue" d="M833.103,-182.552C789.331,-175.311 727.074,-162.153 711,-144 682.868,-112.23 685.125,-58.443 688.786,-29.9789"/>
<polygon fill="midnightblue" stroke="midnightblue" points="692.294,-30.1859 690.304,-19.7797 685.37,-29.1557 692.294,-30.1859"/>
</g>
<!-- Node17 -->
<g id="node17" class="node"><title>Node17</title>
<polygon fill="white" stroke="#bfbfbf" points="1050.5,-0.5 1050.5,-19.5 1103.5,-19.5 1103.5,-0.5 1050.5,-0.5"/>
<text text-anchor="middle" x="1077" y="-7.5" font-family="FreeSans" font-size="10.00">string.h</text>
</g>
<!-- Node16&#45;&gt;Node17 -->
<g id="edge19" class="edge"><title>Node16&#45;&gt;Node17</title>
<path fill="none" stroke="midnightblue" d="M922.794,-187.152C1020.77,-182.65 1247.2,-169.563 1270,-144 1322.92,-84.6591 1182.63,-38.4233 1113.23,-19.8564"/>
<polygon fill="midnightblue" stroke="midnightblue" points="1114.1,-16.4656 1103.54,-17.3195 1112.33,-23.2375 1114.1,-16.4656"/>
</g>
<!-- Node18 -->
<g id="node18" class="node"><title>Node18</title>
<polygon fill="white" stroke="#bfbfbf" points="852,-118.5 852,-137.5 904,-137.5 904,-118.5 852,-118.5"/>
<text text-anchor="middle" x="878" y="-125.5" font-family="FreeSans" font-size="10.00">cassert</text>
</g>
<!-- Node16&#45;&gt;Node18 -->
<g id="edge20" class="edge"><title>Node16&#45;&gt;Node18</title>
<path fill="none" stroke="midnightblue" d="M878,-180.403C878,-171.938 878,-158.728 878,-147.82"/>
<polygon fill="midnightblue" stroke="midnightblue" points="881.5,-147.581 878,-137.581 874.5,-147.581 881.5,-147.581"/>
</g>
<!-- Node19 -->
<g id="node19" class="node"><title>Node19</title>
<polygon fill="white" stroke="#bfbfbf" points="922,-118.5 922,-137.5 978,-137.5 978,-118.5 922,-118.5"/>
<text text-anchor="middle" x="950" y="-125.5" font-family="FreeSans" font-size="10.00">sstream</text>
</g>
<!-- Node16&#45;&gt;Node19 -->
<g id="edge22" class="edge"><title>Node16&#45;&gt;Node19</title>
<path fill="none" stroke="midnightblue" d="M888.316,-180.403C899.651,-170.958 918.073,-155.606 931.839,-144.134"/>
<polygon fill="midnightblue" stroke="midnightblue" points="934.262,-146.671 939.703,-137.581 929.78,-141.294 934.262,-146.671"/>
</g>
<!-- Node20 -->
<g id="node20" class="node"><title>Node20</title>
<g id="a_node20"><a xlink:href="constrainedfilestream_8hpp.html" target="_top" xlink:title="components/files/constrainedfilestream.hpp">
<polygon fill="white" stroke="black" points="1034.5,-118.5 1034.5,-137.5 1261.5,-137.5 1261.5,-118.5 1034.5,-118.5"/>
<text text-anchor="middle" x="1148" y="-125.5" font-family="FreeSans" font-size="10.00">components/files/constrainedfilestream.hpp</text>
</a>
</g>
</g>
<!-- Node16&#45;&gt;Node20 -->
<g id="edge23" class="edge"><title>Node16&#45;&gt;Node20</title>
<path fill="none" stroke="midnightblue" d="M916.398,-180.467C964.579,-169.76 1047.23,-151.392 1099.67,-139.74"/>
<polygon fill="midnightblue" stroke="midnightblue" points="1100.73,-143.089 1109.73,-137.503 1099.21,-136.256 1100.73,-143.089"/>
</g>
<!-- Node23 -->
<g id="node23" class="node"><title>Node23</title>
<g id="a_node23"><a xlink:href="stringops_8hpp.html" target="_top" xlink:title="components/misc/stringops.hpp">
<polygon fill="white" stroke="black" points="1318,-118.5 1318,-137.5 1488,-137.5 1488,-118.5 1318,-118.5"/>
<text text-anchor="middle" x="1403" y="-125.5" font-family="FreeSans" font-size="10.00">components/misc/stringops.hpp</text>
</a>
</g>
</g>
<!-- Node16&#45;&gt;Node23 -->
<g id="edge26" class="edge"><title>Node16&#45;&gt;Node23</title>
<path fill="none" stroke="midnightblue" d="M922.541,-184.962C1000.15,-177.778 1165.14,-161.845 1304,-144 1315.47,-142.526 1327.66,-140.806 1339.43,-139.066"/>
<polygon fill="midnightblue" stroke="midnightblue" points="1340.26,-142.481 1349.63,-137.538 1339.22,-135.558 1340.26,-142.481"/>
</g>
<!-- Node29 -->
<g id="node29" class="node"><title>Node29</title>
<g id="a_node29"><a xlink:href="to__utf8_8hpp.html" target="_top" xlink:title="components/to_utf8\l/to_utf8.hpp">
<polygon fill="white" stroke="black" points="720.5,-113 720.5,-143 833.5,-143 833.5,-113 720.5,-113"/>
<text text-anchor="start" x="728.5" y="-131" font-family="FreeSans" font-size="10.00">components/to_utf8</text>
<text text-anchor="middle" x="777" y="-120" font-family="FreeSans" font-size="10.00">/to_utf8.hpp</text>
</a>
</g>
</g>
<!-- Node16&#45;&gt;Node29 -->
<g id="edge34" class="edge"><title>Node16&#45;&gt;Node29</title>
<path fill="none" stroke="midnightblue" d="M863.529,-180.403C849.467,-172.049 827.626,-159.075 809.407,-148.252"/>
<polygon fill="midnightblue" stroke="midnightblue" points="811.189,-145.239 800.804,-143.141 807.614,-151.257 811.189,-145.239"/>
</g>
<!-- Node30 -->
<g id="node30" class="node"><title>Node30</title>
<g id="a_node30"><a xlink:href="esmcommon_8hpp.html" target="_top" xlink:title="esmcommon.hpp">
<polygon fill="white" stroke="black" points="720.5,-56.5 720.5,-75.5 821.5,-75.5 821.5,-56.5 720.5,-56.5"/>
<text text-anchor="middle" x="771" y="-63.5" font-family="FreeSans" font-size="10.00">esmcommon.hpp</text>
</a>
</g>
</g>
<!-- Node16&#45;&gt;Node30 -->
<g id="edge38" class="edge"><title>Node16&#45;&gt;Node30</title>
<path fill="none" stroke="midnightblue" d="M922.558,-182.376C945.628,-176.44 971.859,-165.211 986,-144 993.889,-132.166 994.968,-123.039 986,-112 966.872,-88.4542 888.48,-76.7942 831.873,-71.3407"/>
<polygon fill="midnightblue" stroke="midnightblue" points="831.855,-67.8244 821.576,-70.3932 831.213,-74.7949 831.855,-67.8244"/>
</g>
<!-- Node31 -->
<g id="node31" class="node"><title>Node31</title>
<g id="a_node31"><a xlink:href="loadtes3_8hpp.html" target="_top" xlink:title="loadtes3.hpp">
<polygon fill="white" stroke="black" points="584.5,-118.5 584.5,-137.5 663.5,-137.5 663.5,-118.5 584.5,-118.5"/>
<text text-anchor="middle" x="624" y="-125.5" font-family="FreeSans" font-size="10.00">loadtes3.hpp</text>
</a>
</g>
</g>
<!-- Node16&#45;&gt;Node31 -->
<g id="edge43" class="edge"><title>Node16&#45;&gt;Node31</title>
<path fill="none" stroke="midnightblue" d="M837.257,-180.453C796.743,-171.808 732.883,-157.788 678,-144 673.293,-142.818 668.371,-141.527 663.496,-140.214"/>
<polygon fill="midnightblue" stroke="midnightblue" points="664.208,-136.78 653.639,-137.518 662.361,-143.532 664.208,-136.78"/>
</g>
<!-- Node21 -->
<g id="node21" class="node"><title>Node21</title>
<polygon fill="white" stroke="#bfbfbf" points="1134.5,-56.5 1134.5,-75.5 1187.5,-75.5 1187.5,-56.5 1134.5,-56.5"/>
<text text-anchor="middle" x="1161" y="-63.5" font-family="FreeSans" font-size="10.00">istream</text>
</g>
<!-- Node20&#45;&gt;Node21 -->
<g id="edge24" class="edge"><title>Node20&#45;&gt;Node21</title>
<path fill="none" stroke="midnightblue" d="M1149.86,-118.403C1151.72,-109.849 1154.62,-96.4497 1157,-85.4762"/>
<polygon fill="midnightblue" stroke="midnightblue" points="1160.44,-86.095 1159.14,-75.5806 1153.6,-84.6127 1160.44,-86.095"/>
</g>
<!-- Node22 -->
<g id="node22" class="node"><title>Node22</title>
<polygon fill="white" stroke="#bfbfbf" points="1059.5,-56.5 1059.5,-75.5 1116.5,-75.5 1116.5,-56.5 1059.5,-56.5"/>
<text text-anchor="middle" x="1088" y="-63.5" font-family="FreeSans" font-size="10.00">memory</text>
</g>
<!-- Node20&#45;&gt;Node22 -->
<g id="edge25" class="edge"><title>Node20&#45;&gt;Node22</title>
<path fill="none" stroke="midnightblue" d="M1139.4,-118.403C1130.14,-109.136 1115.18,-94.1828 1103.79,-82.7876"/>
<polygon fill="midnightblue" stroke="midnightblue" points="1106.13,-80.1768 1096.58,-75.5806 1101.18,-85.1266 1106.13,-80.1768"/>
</g>
<!-- Node23&#45;&gt;Node3 -->
<g id="edge29" class="edge"><title>Node23&#45;&gt;Node3</title>
<path fill="none" stroke="midnightblue" d="M1383.16,-118.498C1346.79,-103.298 1266.68,-71.5986 1196,-56 1049.61,-23.6895 869.972,-14.4142 797.548,-11.89"/>
<polygon fill="midnightblue" stroke="midnightblue" points="797.37,-8.38241 787.261,-11.5525 797.14,-15.3786 797.37,-8.38241"/>
</g>
<!-- Node24 -->
<g id="node24" class="node"><title>Node24</title>
<polygon fill="white" stroke="#bfbfbf" points="1318,-56.5 1318,-75.5 1366,-75.5 1366,-56.5 1318,-56.5"/>
<text text-anchor="middle" x="1342" y="-63.5" font-family="FreeSans" font-size="10.00">cctype</text>
</g>
<!-- Node23&#45;&gt;Node24 -->
<g id="edge27" class="edge"><title>Node23&#45;&gt;Node24</title>
<path fill="none" stroke="midnightblue" d="M1394.26,-118.403C1384.84,-109.136 1369.64,-94.1828 1358.05,-82.7876"/>
<polygon fill="midnightblue" stroke="midnightblue" points="1360.31,-80.0978 1350.72,-75.5806 1355.4,-85.0883 1360.31,-80.0978"/>
</g>
<!-- Node25 -->
<g id="node25" class="node"><title>Node25</title>
<polygon fill="white" stroke="#bfbfbf" points="1153.5,-0.5 1153.5,-19.5 1202.5,-19.5 1202.5,-0.5 1153.5,-0.5"/>
<text text-anchor="middle" x="1178" y="-7.5" font-family="FreeSans" font-size="10.00">cstring</text>
</g>
<!-- Node23&#45;&gt;Node25 -->
<g id="edge28" class="edge"><title>Node23&#45;&gt;Node25</title>
<path fill="none" stroke="midnightblue" d="M1402.12,-118.069C1400.14,-102.916 1393.89,-72.235 1375,-56 1350.9,-35.2945 1262.3,-21.3625 1212.52,-14.9836"/>
<polygon fill="midnightblue" stroke="midnightblue" points="1212.88,-11.5016 1202.53,-13.7373 1212.02,-18.4478 1212.88,-11.5016"/>
</g>
<!-- Node26 -->
<g id="node26" class="node"><title>Node26</title>
<polygon fill="white" stroke="#bfbfbf" points="1422,-56.5 1422,-75.5 1484,-75.5 1484,-56.5 1422,-56.5"/>
<text text-anchor="middle" x="1453" y="-63.5" font-family="FreeSans" font-size="10.00">algorithm</text>
</g>
<!-- Node23&#45;&gt;Node26 -->
<g id="edge30" class="edge"><title>Node23&#45;&gt;Node26</title>
<path fill="none" stroke="midnightblue" d="M1410.16,-118.403C1417.74,-109.314 1429.87,-94.7559 1439.29,-83.4489"/>
<polygon fill="midnightblue" stroke="midnightblue" points="1442.14,-85.5035 1445.85,-75.5806 1436.76,-81.0222 1442.14,-85.5035"/>
</g>
<!-- Node27 -->
<g id="node27" class="node"><title>Node27</title>
<g id="a_node27"><a xlink:href="utf8stream_8hpp.html" target="_top" xlink:title="utf8stream.hpp">
<polygon fill="white" stroke="black" points="1502.5,-56.5 1502.5,-75.5 1593.5,-75.5 1593.5,-56.5 1502.5,-56.5"/>
<text text-anchor="middle" x="1548" y="-63.5" font-family="FreeSans" font-size="10.00">utf8stream.hpp</text>
</a>
</g>
</g>
<!-- Node23&#45;&gt;Node27 -->
<g id="edge31" class="edge"><title>Node23&#45;&gt;Node27</title>
<path fill="none" stroke="midnightblue" d="M1423.77,-118.403C1448.43,-108.2 1489.75,-91.1055 1517.9,-79.4544"/>
<polygon fill="midnightblue" stroke="midnightblue" points="1519.36,-82.6382 1527.26,-75.5806 1516.69,-76.1701 1519.36,-82.6382"/>
</g>
<!-- Node27&#45;&gt;Node25 -->
<g id="edge32" class="edge"><title>Node27&#45;&gt;Node25</title>
<path fill="none" stroke="midnightblue" d="M1502.47,-57.6166C1498.93,-57.0624 1495.41,-56.5179 1492,-56 1390.77,-40.613 1270.95,-23.8398 1212.95,-15.8103"/>
<polygon fill="midnightblue" stroke="midnightblue" points="1213.24,-12.3174 1202.85,-14.4151 1212.28,-19.2515 1213.24,-12.3174"/>
</g>
<!-- Node28 -->
<g id="node28" class="node"><title>Node28</title>
<polygon fill="white" stroke="#bfbfbf" points="1527.5,-0.5 1527.5,-19.5 1568.5,-19.5 1568.5,-0.5 1527.5,-0.5"/>
<text text-anchor="middle" x="1548" y="-7.5" font-family="FreeSans" font-size="10.00">tuple</text>
</g>
<!-- Node27&#45;&gt;Node28 -->
<g id="edge33" class="edge"><title>Node27&#45;&gt;Node28</title>
<path fill="none" stroke="midnightblue" d="M1548,-56.083C1548,-49.0059 1548,-38.8611 1548,-29.9865"/>
<polygon fill="midnightblue" stroke="midnightblue" points="1551.5,-29.751 1548,-19.7511 1544.5,-29.7511 1551.5,-29.751"/>
</g>
<!-- Node29&#45;&gt;Node3 -->
<g id="edge35" class="edge"><title>Node29&#45;&gt;Node3</title>
<path fill="none" stroke="midnightblue" d="M799.677,-112.955C818.735,-99.2489 841.208,-77.3913 830,-56 822.721,-42.1082 808.991,-31.6523 796.017,-24.3328"/>
<polygon fill="midnightblue" stroke="midnightblue" points="797.296,-21.0532 786.808,-19.553 794.072,-27.2662 797.296,-21.0532"/>
</g>
<!-- Node29&#45;&gt;Node7 -->
<g id="edge37" class="edge"><title>Node29&#45;&gt;Node7</title>
<path fill="none" stroke="midnightblue" d="M734.798,-112.933C703.008,-102.336 660.011,-88.0036 630.549,-78.183"/>
<polygon fill="midnightblue" stroke="midnightblue" points="631.327,-74.7529 620.733,-74.911 629.113,-81.3937 631.327,-74.7529"/>
</g>
<!-- Node29&#45;&gt;Node25 -->
<g id="edge36" class="edge"><title>Node29&#45;&gt;Node25</title>
<path fill="none" stroke="midnightblue" d="M825.77,-112.892C907.932,-89.1243 1071.96,-41.675 1143.41,-21.0074"/>
<polygon fill="midnightblue" stroke="midnightblue" points="1144.62,-24.2994 1153.25,-18.1584 1142.68,-17.5751 1144.62,-24.2994"/>
</g>
<!-- Node30&#45;&gt;Node3 -->
<g id="edge39" class="edge"><title>Node30&#45;&gt;Node3</title>
<path fill="none" stroke="midnightblue" d="M770.009,-56.083C769.214,-48.9272 768.071,-38.6353 767.077,-29.6911"/>
<polygon fill="midnightblue" stroke="midnightblue" points="770.555,-29.3034 765.972,-19.7511 763.598,-30.0765 770.555,-29.3034"/>
</g>
<!-- Node30&#45;&gt;Node9 -->
<g id="edge41" class="edge"><title>Node30&#45;&gt;Node9</title>
<path fill="none" stroke="midnightblue" d="M758.307,-56.324C746.099,-47.979 727.422,-35.2122 712.997,-25.3524"/>
<polygon fill="midnightblue" stroke="midnightblue" points="714.892,-22.4082 704.661,-19.6545 710.942,-28.1871 714.892,-22.4082"/>
</g>
<!-- Node30&#45;&gt;Node17 -->
<g id="edge42" class="edge"><title>Node30&#45;&gt;Node17</title>
<path fill="none" stroke="midnightblue" d="M819.487,-56.4435C880.756,-45.6313 984.858,-27.2603 1040.07,-17.5173"/>
<polygon fill="midnightblue" stroke="midnightblue" points="1040.87,-20.93 1050.11,-15.7454 1039.65,-14.0366 1040.87,-20.93"/>
</g>
<!-- Node30&#45;&gt;Node25 -->
<g id="edge40" class="edge"><title>Node30&#45;&gt;Node25</title>
<path fill="none" stroke="midnightblue" d="M821.562,-58.3969C888.148,-49.6854 1008.87,-33.8361 1112,-20 1122.12,-18.6419 1133.12,-17.1496 1143.18,-15.7774"/>
<polygon fill="midnightblue" stroke="midnightblue" points="1143.81,-19.2234 1153.24,-14.4016 1142.86,-12.2878 1143.81,-19.2234"/>
</g>
<!-- Node31&#45;&gt;Node7 -->
<g id="edge44" class="edge"><title>Node31&#45;&gt;Node7</title>
<path fill="none" stroke="midnightblue" d="M620.132,-118.403C616.202,-109.671 610,-95.8893 605.007,-84.7936"/>
<polygon fill="midnightblue" stroke="midnightblue" points="608.157,-83.2635 600.861,-75.5806 601.773,-86.1361 608.157,-83.2635"/>
</g>
<!-- Node31&#45;&gt;Node30 -->
<g id="edge45" class="edge"><title>Node31&#45;&gt;Node30</title>
<path fill="none" stroke="midnightblue" d="M645.062,-118.403C670.059,-108.2 711.942,-91.1055 740.487,-79.4544"/>
<polygon fill="midnightblue" stroke="midnightblue" points="742.042,-82.6001 749.978,-75.5806 739.396,-76.1192 742.042,-82.6001"/>
</g>
<!-- Node32&#45;&gt;Node4 -->
<g id="edge48" class="edge"><title>Node32&#45;&gt;Node4</title>
<path fill="none" stroke="midnightblue" d="M473.839,-180.403C467.389,-171.403 457.096,-157.041 449.027,-145.782"/>
<polygon fill="midnightblue" stroke="midnightblue" points="451.82,-143.67 443.149,-137.581 446.13,-147.748 451.82,-143.67"/>
</g>
<!-- Node32&#45;&gt;Node12 -->
<g id="edge47" class="edge"><title>Node32&#45;&gt;Node12</title>
<path fill="none" stroke="midnightblue" d="M477.902,-180.421C474.386,-166.165 467,-136.718 460,-112 451.777,-82.9634 441.319,-49.531 434.895,-29.3472"/>
<polygon fill="midnightblue" stroke="midnightblue" points="438.161,-28.068 431.782,-19.609 431.493,-30.1999 438.161,-28.068"/>
</g>
<!-- Node32&#45;&gt;Node30 -->
<g id="edge49" class="edge"><title>Node32&#45;&gt;Node30</title>
<path fill="none" stroke="midnightblue" d="M487.973,-180.317C503.241,-164.24 538.356,-129.855 575,-112 617.587,-91.2493 670.092,-79.8536 710.037,-73.7256"/>
<polygon fill="midnightblue" stroke="midnightblue" points="710.781,-77.1541 720.169,-72.2424 709.767,-70.228 710.781,-77.1541"/>
</g>
<!-- Node32&#45;&gt;Node31 -->
<g id="edge50" class="edge"><title>Node32&#45;&gt;Node31</title>
<path fill="none" stroke="midnightblue" d="M500.632,-180.403C525.119,-170.2 566.147,-153.105 594.109,-141.454"/>
<polygon fill="midnightblue" stroke="midnightblue" points="595.522,-144.658 603.407,-137.581 592.83,-138.196 595.522,-144.658"/>
</g>
</g>
</svg>
