<?xml version="1.0" encoding="UTF-8" standalone="no"?>
<!DOCTYPE svg PUBLIC "-//W3C//DTD SVG 1.1//EN"
 "http://www.w3.org/Graphics/SVG/1.1/DTD/svg11.dtd">
<!-- Generated by graphviz version 2.36.0 (20140111.2315)
 -->
<!-- Title: /home/scrawl/Dev/openmw/apps/openmw/mwgui/messagebox.cpp Pages: 1 -->
<svg width="1837pt" height="444pt"
 viewBox="0.00 0.00 1837.00 444.00" xmlns="http://www.w3.org/2000/svg" xmlns:xlink="http://www.w3.org/1999/xlink">
<g id="graph0" class="graph" transform="scale(1 1) rotate(0) translate(4 440)">
<title>/home/scrawl/Dev/openmw/apps/openmw/mwgui/messagebox.cpp</title>
<polygon fill="white" stroke="none" points="-4,4 -4,-440 1833,-440 1833,4 -4,4"/>
<!-- Node1 -->
<g id="node1" class="node"><title>Node1</title>
<polygon fill="#bfbfbf" stroke="black" points="1105,-405 1105,-435 1289,-435 1289,-405 1105,-405"/>
<text text-anchor="start" x="1113" y="-423" font-family="FreeSans" font-size="10.00">/home/scrawl/Dev/openmw</text>
<text text-anchor="middle" x="1197" y="-412" font-family="FreeSans" font-size="10.00">/apps/openmw/mwgui/messagebox.cpp</text>
</g>
<!-- Node2 -->
<g id="node2" class="node"><title>Node2</title>
<g id="a_node2"><a xlink:href="messagebox_8hpp.html" target="_top" xlink:title="messagebox.hpp">
<polygon fill="white" stroke="black" points="226,-348.5 226,-367.5 314,-367.5 314,-348.5 226,-348.5"/>
<text text-anchor="middle" x="270" y="-355.5" font-family="FreeSans" font-size="10.00">messagebox.hpp</text>
</a>
</g>
</g>
<!-- Node1&#45;&gt;Node2 -->
<g id="edge1" class="edge"><title>Node1&#45;&gt;Node2</title>
<path fill="none" stroke="midnightblue" d="M1104.87,-414.475C950.916,-406.666 631.652,-389.417 362,-368 349.876,-367.037 336.869,-365.856 324.563,-364.669"/>
<polygon fill="midnightblue" stroke="midnightblue" points="324.719,-361.168 314.425,-363.676 324.037,-368.135 324.719,-361.168"/>
</g>
<!-- Node8 -->
<g id="node8" class="node"><title>Node8</title>
<polygon fill="white" stroke="#bfbfbf" points="1176.5,-348.5 1176.5,-367.5 1315.5,-367.5 1315.5,-348.5 1176.5,-348.5"/>
<text text-anchor="middle" x="1246" y="-355.5" font-family="FreeSans" font-size="10.00">MyGUI_LanguageManager.h</text>
</g>
<!-- Node1&#45;&gt;Node8 -->
<g id="edge7" class="edge"><title>Node1&#45;&gt;Node8</title>
<path fill="none" stroke="midnightblue" d="M1208.61,-404.781C1215.73,-396.062 1224.88,-384.857 1232.35,-375.715"/>
<polygon fill="midnightblue" stroke="midnightblue" points="1235.26,-377.69 1238.87,-367.731 1229.83,-373.262 1235.26,-377.69"/>
</g>
<!-- Node9 -->
<g id="node9" class="node"><title>Node9</title>
<polygon fill="white" stroke="#bfbfbf" points="1334,-348.5 1334,-367.5 1426,-367.5 1426,-348.5 1334,-348.5"/>
<text text-anchor="middle" x="1380" y="-355.5" font-family="FreeSans" font-size="10.00">MyGUI_EditBox.h</text>
</g>
<!-- Node1&#45;&gt;Node9 -->
<g id="edge8" class="edge"><title>Node1&#45;&gt;Node9</title>
<path fill="none" stroke="midnightblue" d="M1239.91,-404.933C1271.7,-394.508 1314.53,-380.467 1344.43,-370.663"/>
<polygon fill="midnightblue" stroke="midnightblue" points="1345.62,-373.954 1354.04,-367.513 1343.44,-367.302 1345.62,-373.954"/>
</g>
<!-- Node10 -->
<g id="node10" class="node"><title>Node10</title>
<polygon fill="white" stroke="#bfbfbf" points="1444,-348.5 1444,-367.5 1572,-367.5 1572,-348.5 1444,-348.5"/>
<text text-anchor="middle" x="1508" y="-355.5" font-family="FreeSans" font-size="10.00">MyGUI_RenderManager.h</text>
</g>
<!-- Node1&#45;&gt;Node10 -->
<g id="edge9" class="edge"><title>Node1&#45;&gt;Node10</title>
<path fill="none" stroke="midnightblue" d="M1269.92,-404.933C1326.3,-394.054 1403.09,-379.239 1454.04,-369.409"/>
<polygon fill="midnightblue" stroke="midnightblue" points="1454.72,-372.844 1463.88,-367.513 1453.39,-365.97 1454.72,-372.844"/>
</g>
<!-- Node11 -->
<g id="node11" class="node"><title>Node11</title>
<polygon fill="white" stroke="#bfbfbf" points="1590,-348.5 1590,-367.5 1678,-367.5 1678,-348.5 1590,-348.5"/>
<text text-anchor="middle" x="1634" y="-355.5" font-family="FreeSans" font-size="10.00">MyGUI_Button.h</text>
</g>
<!-- Node1&#45;&gt;Node11 -->
<g id="edge10" class="edge"><title>Node1&#45;&gt;Node11</title>
<path fill="none" stroke="midnightblue" d="M1289.07,-407.721C1364.51,-398.259 1474.3,-383.988 1579.6,-368.169"/>
<polygon fill="midnightblue" stroke="midnightblue" points="1580.41,-371.587 1589.77,-366.633 1579.36,-364.665 1580.41,-371.587"/>
</g>
<!-- Node12 -->
<g id="node12" class="node"><title>Node12</title>
<g id="a_node12"><a xlink:href="stringops_8hpp.html" target="_top" xlink:title="components/misc/stringops.hpp">
<polygon fill="white" stroke="black" points="371,-348.5 371,-367.5 523,-367.5 523,-348.5 371,-348.5"/>
<text text-anchor="middle" x="447" y="-355.5" font-family="FreeSans" font-size="10.00">components/misc/stringops.hpp</text>
</a>
</g>
</g>
<!-- Node1&#45;&gt;Node12 -->
<g id="edge11" class="edge"><title>Node1&#45;&gt;Node12</title>
<path fill="none" stroke="midnightblue" d="M1104.66,-411.613C958.406,-399.912 675.509,-377.281 533.193,-365.895"/>
<polygon fill="midnightblue" stroke="midnightblue" points="533.44,-362.404 523.193,-365.095 532.882,-369.382 533.44,-362.404"/>
</g>
<!-- Node15 -->
<g id="node15" class="node"><title>Node15</title>
<g id="a_node15"><a xlink:href="environment_8hpp.html" target="_top" xlink:title="../mwbase/environment.hpp">
<polygon fill="white" stroke="black" points="1696.5,-348.5 1696.5,-367.5 1829.5,-367.5 1829.5,-348.5 1696.5,-348.5"/>
<text text-anchor="middle" x="1763" y="-355.5" font-family="FreeSans" font-size="10.00">../mwbase/environment.hpp</text>
</a>
</g>
</g>
<!-- Node1&#45;&gt;Node15 -->
<g id="edge15" class="edge"><title>Node1&#45;&gt;Node15</title>
<path fill="none" stroke="midnightblue" d="M1289.42,-409.707C1387.77,-399.736 1547.92,-383.269 1686,-368 1686.1,-367.988 1686.21,-367.977 1686.31,-367.965"/>
<polygon fill="midnightblue" stroke="midnightblue" points="1686.68,-371.446 1696.23,-366.856 1685.9,-364.49 1686.68,-371.446"/>
</g>
<!-- Node16 -->
<g id="node16" class="node"><title>Node16</title>
<g id="a_node16"><a xlink:href="soundmanager_8hpp.html" target="_top" xlink:title="../mwbase/soundmanager.hpp">
<polygon fill="white" stroke="black" points="696.5,-348.5 696.5,-367.5 839.5,-367.5 839.5,-348.5 696.5,-348.5"/>
<text text-anchor="middle" x="768" y="-355.5" font-family="FreeSans" font-size="10.00">../mwbase/soundmanager.hpp</text>
</a>
</g>
</g>
<!-- Node1&#45;&gt;Node16 -->
<g id="edge16" class="edge"><title>Node1&#45;&gt;Node16</title>
<path fill="none" stroke="midnightblue" d="M1104.97,-406.128C1025.26,-394.98 911.609,-379.085 838.822,-368.905"/>
<polygon fill="midnightblue" stroke="midnightblue" points="839.219,-365.427 828.83,-367.508 838.249,-372.359 839.219,-365.427"/>
</g>
<!-- Node35 -->
<g id="node35" class="node"><title>Node35</title>
<g id="a_node35"><a xlink:href="inputmanager_8hpp.html" target="_top" xlink:title="../mwbase/inputmanager.hpp">
<polygon fill="white" stroke="black" points="986.5,-124.5 986.5,-143.5 1125.5,-143.5 1125.5,-124.5 986.5,-124.5"/>
<text text-anchor="middle" x="1056" y="-131.5" font-family="FreeSans" font-size="10.00">../mwbase/inputmanager.hpp</text>
</a>
</g>
</g>
<!-- Node1&#45;&gt;Node35 -->
<g id="edge44" class="edge"><title>Node1&#45;&gt;Node35</title>
<path fill="none" stroke="midnightblue" d="M1186.19,-404.706C1178.89,-394.715 1169.29,-380.903 1162,-368 1118.55,-291.086 1078.67,-193.139 1063.01,-153.193"/>
<polygon fill="midnightblue" stroke="midnightblue" points="1066.21,-151.78 1059.33,-143.729 1059.69,-154.318 1066.21,-151.78"/>
</g>
<!-- Node36 -->
<g id="node36" class="node"><title>Node36</title>
<g id="a_node36"><a xlink:href="windowmanager_8hpp.html" target="_top" xlink:title="../mwbase/windowmanager.hpp">
<polygon fill="white" stroke="black" points="1181.5,-124.5 1181.5,-143.5 1330.5,-143.5 1330.5,-124.5 1181.5,-124.5"/>
<text text-anchor="middle" x="1256" y="-131.5" font-family="FreeSans" font-size="10.00">../mwbase/windowmanager.hpp</text>
</a>
</g>
</g>
<!-- Node1&#45;&gt;Node36 -->
<g id="edge49" class="edge"><title>Node1&#45;&gt;Node36</title>
<path fill="none" stroke="midnightblue" d="M1186.19,-404.715C1179.5,-394.949 1171.54,-381.392 1168,-368 1165.73,-359.406 1166.27,-356.719 1168,-348 1183.17,-271.56 1226.2,-188.137 1245.91,-152.606"/>
<polygon fill="midnightblue" stroke="midnightblue" points="1249.16,-153.967 1251.02,-143.537 1243.06,-150.533 1249.16,-153.967"/>
</g>
<!-- Node3 -->
<g id="node3" class="node"><title>Node3</title>
<g id="a_node3"><a xlink:href="windowbase_8hpp.html" target="_top" xlink:title="windowbase.hpp">
<polygon fill="white" stroke="black" points="194,-292.5 194,-311.5 280,-311.5 280,-292.5 194,-292.5"/>
<text text-anchor="middle" x="237" y="-299.5" font-family="FreeSans" font-size="10.00">windowbase.hpp</text>
</a>
</g>
</g>
<!-- Node2&#45;&gt;Node3 -->
<g id="edge2" class="edge"><title>Node2&#45;&gt;Node3</title>
<path fill="none" stroke="midnightblue" d="M264.551,-348.083C259.986,-340.613 253.332,-329.724 247.707,-320.52"/>
<polygon fill="midnightblue" stroke="midnightblue" points="250.549,-318.459 242.348,-311.751 244.576,-322.109 250.549,-318.459"/>
</g>
<!-- Node4 -->
<g id="node4" class="node"><title>Node4</title>
<g id="a_node4"><a xlink:href="layout_8hpp.html" target="_top" xlink:title="layout.hpp">
<polygon fill="white" stroke="black" points="190,-236.5 190,-255.5 250,-255.5 250,-236.5 190,-236.5"/>
<text text-anchor="middle" x="220" y="-243.5" font-family="FreeSans" font-size="10.00">layout.hpp</text>
</a>
</g>
</g>
<!-- Node3&#45;&gt;Node4 -->
<g id="edge3" class="edge"><title>Node3&#45;&gt;Node4</title>
<path fill="none" stroke="midnightblue" d="M234.193,-292.083C231.915,-284.849 228.629,-274.409 225.792,-265.397"/>
<polygon fill="midnightblue" stroke="midnightblue" points="229.096,-264.239 222.755,-255.751 222.419,-266.341 229.096,-264.239"/>
</g>
<!-- Node5 -->
<g id="node5" class="node"><title>Node5</title>
<polygon fill="white" stroke="#bfbfbf" points="582,-62.5 582,-81.5 622,-81.5 622,-62.5 582,-62.5"/>
<text text-anchor="middle" x="602" y="-69.5" font-family="FreeSans" font-size="10.00">string</text>
</g>
<!-- Node4&#45;&gt;Node5 -->
<g id="edge4" class="edge"><title>Node4&#45;&gt;Node5</title>
<path fill="none" stroke="midnightblue" d="M226.881,-236.302C245.215,-213.771 297.832,-153.238 356,-124 427.736,-87.9423 523.5,-77.3705 571.646,-74.2763"/>
<polygon fill="midnightblue" stroke="midnightblue" points="571.94,-77.7653 581.722,-73.6948 571.537,-70.7769 571.94,-77.7653"/>
</g>
<!-- Node6 -->
<g id="node6" class="node"><title>Node6</title>
<polygon fill="white" stroke="#bfbfbf" points="-0.5,-180.5 -0.5,-199.5 120.5,-199.5 120.5,-180.5 -0.5,-180.5"/>
<text text-anchor="middle" x="60" y="-187.5" font-family="FreeSans" font-size="10.00">MyGUI_WidgetDefines.h</text>
</g>
<!-- Node4&#45;&gt;Node6 -->
<g id="edge5" class="edge"><title>Node4&#45;&gt;Node6</title>
<path fill="none" stroke="midnightblue" d="M194.648,-236.444C167.731,-227.359 125.004,-212.939 94.913,-202.783"/>
<polygon fill="midnightblue" stroke="midnightblue" points="95.828,-199.398 85.2339,-199.516 93.5895,-206.031 95.828,-199.398"/>
</g>
<!-- Node7 -->
<g id="node7" class="node"><title>Node7</title>
<polygon fill="white" stroke="#bfbfbf" points="138.5,-180.5 138.5,-199.5 227.5,-199.5 227.5,-180.5 138.5,-180.5"/>
<text text-anchor="middle" x="183" y="-187.5" font-family="FreeSans" font-size="10.00">MyGUI_Widget.h</text>
</g>
<!-- Node4&#45;&gt;Node7 -->
<g id="edge6" class="edge"><title>Node4&#45;&gt;Node7</title>
<path fill="none" stroke="midnightblue" d="M213.89,-236.083C208.718,-228.534 201.154,-217.495 194.806,-208.23"/>
<polygon fill="midnightblue" stroke="midnightblue" points="197.536,-206.022 188.996,-199.751 191.761,-209.979 197.536,-206.022"/>
</g>
<!-- Node12&#45;&gt;Node5 -->
<g id="edge13" class="edge"><title>Node12&#45;&gt;Node5</title>
<path fill="none" stroke="midnightblue" d="M421.496,-348.472C405.013,-341.478 384.861,-329.792 375,-312 349.183,-265.42 190.794,-354.85 389,-124 412.579,-96.5375 518.891,-81.7155 571.84,-75.9214"/>
<polygon fill="midnightblue" stroke="midnightblue" points="572.402,-79.3817 581.98,-74.8513 571.668,-72.4203 572.402,-79.3817"/>
</g>
<!-- Node13 -->
<g id="node13" class="node"><title>Node13</title>
<polygon fill="white" stroke="#bfbfbf" points="458.5,-292.5 458.5,-311.5 503.5,-311.5 503.5,-292.5 458.5,-292.5"/>
<text text-anchor="middle" x="481" y="-299.5" font-family="FreeSans" font-size="10.00">cctype</text>
</g>
<!-- Node12&#45;&gt;Node13 -->
<g id="edge12" class="edge"><title>Node12&#45;&gt;Node13</title>
<path fill="none" stroke="midnightblue" d="M452.614,-348.083C457.367,-340.534 464.318,-329.495 470.152,-320.23"/>
<polygon fill="midnightblue" stroke="midnightblue" points="473.124,-322.078 475.49,-311.751 467.2,-318.349 473.124,-322.078"/>
</g>
<!-- Node14 -->
<g id="node14" class="node"><title>Node14</title>
<polygon fill="white" stroke="#bfbfbf" points="384,-292.5 384,-311.5 440,-311.5 440,-292.5 384,-292.5"/>
<text text-anchor="middle" x="412" y="-299.5" font-family="FreeSans" font-size="10.00">algorithm</text>
</g>
<!-- Node12&#45;&gt;Node14 -->
<g id="edge14" class="edge"><title>Node12&#45;&gt;Node14</title>
<path fill="none" stroke="midnightblue" d="M441.22,-348.083C436.328,-340.534 429.173,-329.495 423.167,-320.23"/>
<polygon fill="midnightblue" stroke="midnightblue" points="426.048,-318.239 417.672,-311.751 420.174,-322.046 426.048,-318.239"/>
</g>
<!-- Node16&#45;&gt;Node5 -->
<g id="edge17" class="edge"><title>Node16&#45;&gt;Node5</title>
<path fill="none" stroke="midnightblue" d="M766.292,-348.306C763.607,-335.568 757.781,-311.255 749,-292 711.516,-209.805 644.506,-124.236 615.737,-89.3067"/>
<polygon fill="midnightblue" stroke="midnightblue" points="618.373,-87.0021 609.289,-81.5502 612.99,-91.4773 618.373,-87.0021"/>
</g>
<!-- Node17 -->
<g id="node17" class="node"><title>Node17</title>
<polygon fill="white" stroke="#bfbfbf" points="1139.5,-62.5 1139.5,-81.5 1168.5,-81.5 1168.5,-62.5 1139.5,-62.5"/>
<text text-anchor="middle" x="1154" y="-69.5" font-family="FreeSans" font-size="10.00">set</text>
</g>
<!-- Node16&#45;&gt;Node17 -->
<g id="edge18" class="edge"><title>Node16&#45;&gt;Node17</title>
<path fill="none" stroke="midnightblue" d="M797.07,-348.481C866.447,-326.625 1042.71,-261.832 1134,-144 1145.62,-128.995 1150.49,-107.565 1152.53,-92.1795"/>
<polygon fill="midnightblue" stroke="midnightblue" points="1156.06,-92.1057 1153.6,-81.799 1149.09,-91.3864 1156.06,-92.1057"/>
</g>
<!-- Node18 -->
<g id="node18" class="node"><title>Node18</title>
<polygon fill="white" stroke="#bfbfbf" points="522,-292.5 522,-311.5 628,-311.5 628,-292.5 522,-292.5"/>
<text text-anchor="middle" x="575" y="-299.5" font-family="FreeSans" font-size="10.00">boost/shared_ptr.hpp</text>
</g>
<!-- Node16&#45;&gt;Node18 -->
<g id="edge19" class="edge"><title>Node16&#45;&gt;Node18</title>
<path fill="none" stroke="midnightblue" d="M737.419,-348.444C704.385,-339.201 651.612,-324.436 615.234,-314.257"/>
<polygon fill="midnightblue" stroke="midnightblue" points="616.012,-310.84 605.438,-311.516 614.125,-317.582 616.012,-310.84"/>
</g>
<!-- Node19 -->
<g id="node19" class="node"><title>Node19</title>
<g id="a_node19"><a xlink:href="ptr_8hpp.html" target="_top" xlink:title="../mwworld/ptr.hpp">
<polygon fill="white" stroke="black" points="646,-292.5 646,-311.5 740,-311.5 740,-292.5 646,-292.5"/>
<text text-anchor="middle" x="693" y="-299.5" font-family="FreeSans" font-size="10.00">../mwworld/ptr.hpp</text>
</a>
</g>
</g>
<!-- Node16&#45;&gt;Node19 -->
<g id="edge20" class="edge"><title>Node16&#45;&gt;Node19</title>
<path fill="none" stroke="midnightblue" d="M755.95,-348.324C744.537,-340.107 727.169,-327.602 713.565,-317.807"/>
<polygon fill="midnightblue" stroke="midnightblue" points="715.43,-314.837 705.269,-311.834 711.34,-320.517 715.43,-314.837"/>
</g>
<!-- Node19&#45;&gt;Node5 -->
<g id="edge22" class="edge"><title>Node19&#45;&gt;Node5</title>
<path fill="none" stroke="midnightblue" d="M691.833,-292.283C688.793,-271.655 679.337,-218.679 658,-180 647.66,-161.256 636.754,-162.51 626,-144 616.416,-127.504 609.938,-106.613 606.151,-91.7727"/>
<polygon fill="midnightblue" stroke="midnightblue" points="609.493,-90.6956 603.773,-81.777 602.683,-92.3155 609.493,-90.6956"/>
</g>
<!-- Node20 -->
<g id="node20" class="node"><title>Node20</title>
<polygon fill="white" stroke="#bfbfbf" points="617.5,-236.5 617.5,-255.5 664.5,-255.5 664.5,-236.5 617.5,-236.5"/>
<text text-anchor="middle" x="641" y="-243.5" font-family="FreeSans" font-size="10.00">cassert</text>
</g>
<!-- Node19&#45;&gt;Node20 -->
<g id="edge21" class="edge"><title>Node19&#45;&gt;Node20</title>
<path fill="none" stroke="midnightblue" d="M684.413,-292.083C676.841,-284.22 665.622,-272.569 656.486,-263.081"/>
<polygon fill="midnightblue" stroke="midnightblue" points="658.885,-260.527 649.427,-255.751 653.842,-265.382 658.885,-260.527"/>
</g>
<!-- Node21 -->
<g id="node21" class="node"><title>Node21</title>
<polygon fill="white" stroke="#bfbfbf" points="549,-236.5 549,-255.5 599,-255.5 599,-236.5 549,-236.5"/>
<text text-anchor="middle" x="574" y="-243.5" font-family="FreeSans" font-size="10.00">sstream</text>
</g>
<!-- Node19&#45;&gt;Node21 -->
<g id="edge23" class="edge"><title>Node19&#45;&gt;Node21</title>
<path fill="none" stroke="midnightblue" d="M674.144,-292.444C654.734,-283.636 624.27,-269.812 602.035,-259.722"/>
<polygon fill="midnightblue" stroke="midnightblue" points="603.32,-256.462 592.768,-255.516 600.428,-262.836 603.32,-256.462"/>
</g>
<!-- Node22 -->
<g id="node22" class="node"><title>Node22</title>
<g id="a_node22"><a xlink:href="livecellref_8hpp.html" target="_top" xlink:title="livecellref.hpp">
<polygon fill="white" stroke="black" points="455.5,-236.5 455.5,-255.5 530.5,-255.5 530.5,-236.5 455.5,-236.5"/>
<text text-anchor="middle" x="493" y="-243.5" font-family="FreeSans" font-size="10.00">livecellref.hpp</text>
</a>
</g>
</g>
<!-- Node19&#45;&gt;Node22 -->
<g id="edge24" class="edge"><title>Node19&#45;&gt;Node22</title>
<path fill="none" stroke="midnightblue" d="M661.309,-292.444C626.932,-283.162 571.923,-268.309 534.211,-258.127"/>
<polygon fill="midnightblue" stroke="midnightblue" points="535.109,-254.744 524.542,-255.516 533.284,-261.502 535.109,-254.744"/>
</g>
<!-- Node23 -->
<g id="node23" class="node"><title>Node23</title>
<polygon fill="white" stroke="#bfbfbf" points="599,-180.5 599,-199.5 649,-199.5 649,-180.5 599,-180.5"/>
<text text-anchor="middle" x="624" y="-187.5" font-family="FreeSans" font-size="10.00">typeinfo</text>
</g>
<!-- Node22&#45;&gt;Node23 -->
<g id="edge25" class="edge"><title>Node22&#45;&gt;Node23</title>
<path fill="none" stroke="midnightblue" d="M513.757,-236.444C535.316,-227.557 569.263,-213.563 593.794,-203.451"/>
<polygon fill="midnightblue" stroke="midnightblue" points="595.428,-206.563 603.34,-199.516 592.761,-200.092 595.428,-206.563"/>
</g>
<!-- Node24 -->
<g id="node24" class="node"><title>Node24</title>
<g id="a_node24"><a xlink:href="apps_2openmw_2mwworld_2cellref_8hpp.html" target="_top" xlink:title="cellref.hpp">
<polygon fill="white" stroke="black" points="436.5,-180.5 436.5,-199.5 497.5,-199.5 497.5,-180.5 436.5,-180.5"/>
<text text-anchor="middle" x="467" y="-187.5" font-family="FreeSans" font-size="10.00">cellref.hpp</text>
</a>
</g>
</g>
<!-- Node22&#45;&gt;Node24 -->
<g id="edge26" class="edge"><title>Node22&#45;&gt;Node24</title>
<path fill="none" stroke="midnightblue" d="M488.707,-236.083C485.148,-228.691 479.978,-217.953 475.576,-208.811"/>
<polygon fill="midnightblue" stroke="midnightblue" points="478.705,-207.243 471.213,-199.751 472.398,-210.279 478.705,-207.243"/>
</g>
<!-- Node29 -->
<g id="node29" class="node"><title>Node29</title>
<g id="a_node29"><a xlink:href="refdata_8hpp.html" target="_top" xlink:title="refdata.hpp">
<polygon fill="white" stroke="black" points="515.5,-180.5 515.5,-199.5 580.5,-199.5 580.5,-180.5 515.5,-180.5"/>
<text text-anchor="middle" x="548" y="-187.5" font-family="FreeSans" font-size="10.00">refdata.hpp</text>
</a>
</g>
</g>
<!-- Node22&#45;&gt;Node29 -->
<g id="edge32" class="edge"><title>Node22&#45;&gt;Node29</title>
<path fill="none" stroke="midnightblue" d="M502.082,-236.083C510.171,-228.141 522.195,-216.335 531.91,-206.797"/>
<polygon fill="midnightblue" stroke="midnightblue" points="534.403,-209.254 539.087,-199.751 529.499,-204.26 534.403,-209.254"/>
</g>
<!-- Node25 -->
<g id="node25" class="node"><title>Node25</title>
<g id="a_node25"><a xlink:href="components_2esm_2cellref_8hpp.html" target="_top" xlink:title="components/esm/cellref.hpp">
<polygon fill="white" stroke="black" points="398.5,-124.5 398.5,-143.5 535.5,-143.5 535.5,-124.5 398.5,-124.5"/>
<text text-anchor="middle" x="467" y="-131.5" font-family="FreeSans" font-size="10.00">components/esm/cellref.hpp</text>
</a>
</g>
</g>
<!-- Node24&#45;&gt;Node25 -->
<g id="edge27" class="edge"><title>Node24&#45;&gt;Node25</title>
<path fill="none" stroke="midnightblue" d="M467,-180.083C467,-173.006 467,-162.861 467,-153.986"/>
<polygon fill="midnightblue" stroke="midnightblue" points="470.5,-153.751 467,-143.751 463.5,-153.751 470.5,-153.751"/>
</g>
<!-- Node25&#45;&gt;Node5 -->
<g id="edge28" class="edge"><title>Node25&#45;&gt;Node5</title>
<path fill="none" stroke="midnightblue" d="M486.342,-124.403C509.099,-114.29 547.092,-97.4036 573.288,-85.761"/>
<polygon fill="midnightblue" stroke="midnightblue" points="574.977,-88.8404 582.694,-81.5806 572.134,-82.4437 574.977,-88.8404"/>
</g>
<!-- Node26 -->
<g id="node26" class="node"><title>Node26</title>
<g id="a_node26"><a xlink:href="esm_2defs_8hpp.html" target="_top" xlink:title="defs.hpp">
<polygon fill="white" stroke="black" points="381.5,-62.5 381.5,-81.5 434.5,-81.5 434.5,-62.5 381.5,-62.5"/>
<text text-anchor="middle" x="408" y="-69.5" font-family="FreeSans" font-size="10.00">defs.hpp</text>
</a>
</g>
</g>
<!-- Node25&#45;&gt;Node26 -->
<g id="edge29" class="edge"><title>Node25&#45;&gt;Node26</title>
<path fill="none" stroke="midnightblue" d="M458.547,-124.403C449.434,-115.136 434.73,-100.183 423.524,-88.7876"/>
<polygon fill="midnightblue" stroke="midnightblue" points="425.945,-86.2569 416.438,-81.5806 420.953,-91.1649 425.945,-86.2569"/>
</g>
<!-- Node27 -->
<g id="node27" class="node"><title>Node27</title>
<polygon fill="white" stroke="#bfbfbf" points="993.5,-0.5 993.5,-19.5 1040.5,-19.5 1040.5,-0.5 993.5,-0.5"/>
<text text-anchor="middle" x="1017" y="-7.5" font-family="FreeSans" font-size="10.00">stdint.h</text>
</g>
<!-- Node26&#45;&gt;Node27 -->
<g id="edge30" class="edge"><title>Node26&#45;&gt;Node27</title>
<path fill="none" stroke="midnightblue" d="M434.56,-68.583C528.381,-60.0285 844,-31.1061 945,-20 957.493,-18.6262 971.185,-16.9562 983.243,-15.4295"/>
<polygon fill="midnightblue" stroke="midnightblue" points="983.874,-18.8775 993.348,-14.1358 982.985,-11.9341 983.874,-18.8775"/>
</g>
<!-- Node28 -->
<g id="node28" class="node"><title>Node28</title>
<polygon fill="white" stroke="#bfbfbf" points="321.5,-0.5 321.5,-19.5 380.5,-19.5 380.5,-0.5 321.5,-0.5"/>
<text text-anchor="middle" x="351" y="-7.5" font-family="FreeSans" font-size="10.00">osg/Vec3f</text>
</g>
<!-- Node26&#45;&gt;Node28 -->
<g id="edge31" class="edge"><title>Node26&#45;&gt;Node28</title>
<path fill="none" stroke="midnightblue" d="M399.833,-62.4035C391.114,-53.2252 377.096,-38.4699 366.311,-27.1173"/>
<polygon fill="midnightblue" stroke="midnightblue" points="368.577,-24.42 359.152,-19.5806 363.502,-29.2412 368.577,-24.42"/>
</g>
<!-- Node29&#45;&gt;Node5 -->
<g id="edge42" class="edge"><title>Node29&#45;&gt;Node5</title>
<path fill="none" stroke="midnightblue" d="M552.059,-180.281C560.897,-161.294 582.033,-115.892 593.778,-90.6624"/>
<polygon fill="midnightblue" stroke="midnightblue" points="596.994,-92.0477 598.041,-81.5048 590.647,-89.0935 596.994,-92.0477"/>
</g>
<!-- Node29&#45;&gt;Node26 -->
<g id="edge33" class="edge"><title>Node29&#45;&gt;Node26</title>
<path fill="none" stroke="midnightblue" d="M515.23,-181.932C470.978,-172.061 396.722,-154.211 389,-144 377.145,-128.324 386.434,-105.808 395.715,-90.3584"/>
<polygon fill="midnightblue" stroke="midnightblue" points="398.78,-92.0662 401.304,-81.7764 392.914,-88.2463 398.78,-92.0662"/>
</g>
<!-- Node29&#45;&gt;Node28 -->
<g id="edge43" class="edge"><title>Node29&#45;&gt;Node28</title>
<path fill="none" stroke="midnightblue" d="M515.191,-181.139C467.654,-169.618 384.742,-148.97 380,-144 350.177,-112.741 348.159,-58.3025 349.443,-29.731"/>
<polygon fill="midnightblue" stroke="midnightblue" points="352.95,-29.7263 350.098,-19.5228 345.965,-29.2783 352.95,-29.7263"/>
</g>
<!-- Node30 -->
<g id="node30" class="node"><title>Node30</title>
<g id="a_node30"><a xlink:href="animationstate_8hpp.html" target="_top" xlink:title="components/esm/animationstate.hpp">
<polygon fill="white" stroke="black" points="668,-124.5 668,-143.5 842,-143.5 842,-124.5 668,-124.5"/>
<text text-anchor="middle" x="755" y="-131.5" font-family="FreeSans" font-size="10.00">components/esm/animationstate.hpp</text>
</a>
</g>
</g>
<!-- Node29&#45;&gt;Node30 -->
<g id="edge34" class="edge"><title>Node29&#45;&gt;Node30</title>
<path fill="none" stroke="midnightblue" d="M580.8,-180.444C616.38,-171.162 673.314,-156.309 712.347,-146.127"/>
<polygon fill="midnightblue" stroke="midnightblue" points="713.561,-149.427 722.354,-143.516 711.794,-142.654 713.561,-149.427"/>
</g>
<!-- Node32 -->
<g id="node32" class="node"><title>Node32</title>
<g id="a_node32"><a xlink:href="apps_2openmw_2mwscript_2locals_8hpp.html" target="_top" xlink:title="../mwscript/locals.hpp">
<polygon fill="white" stroke="black" points="860,-124.5 860,-143.5 968,-143.5 968,-124.5 860,-124.5"/>
<text text-anchor="middle" x="914" y="-131.5" font-family="FreeSans" font-size="10.00">../mwscript/locals.hpp</text>
</a>
</g>
</g>
<!-- Node29&#45;&gt;Node32 -->
<g id="edge38" class="edge"><title>Node29&#45;&gt;Node32</title>
<path fill="none" stroke="midnightblue" d="M580.513,-181.784C583.712,-181.149 586.915,-180.542 590,-180 702.175,-160.273 733.35,-160.265 849.689,-144.17"/>
<polygon fill="midnightblue" stroke="midnightblue" points="850.285,-147.62 859.706,-142.773 849.319,-140.687 850.285,-147.62"/>
</g>
<!-- Node30&#45;&gt;Node5 -->
<g id="edge35" class="edge"><title>Node30&#45;&gt;Node5</title>
<path fill="none" stroke="midnightblue" d="M733.079,-124.403C706.502,-113.981 661.588,-96.3677 631.863,-84.7111"/>
<polygon fill="midnightblue" stroke="midnightblue" points="633.001,-81.3979 622.414,-81.0053 630.446,-87.9147 633.001,-81.3979"/>
</g>
<!-- Node30&#45;&gt;Node27 -->
<g id="edge37" class="edge"><title>Node30&#45;&gt;Node27</title>
<path fill="none" stroke="midnightblue" d="M762.073,-124.366C775.652,-108.372 807.055,-74.1182 841,-56 886.709,-31.6029 946.232,-19.9867 983.016,-14.7948"/>
<polygon fill="midnightblue" stroke="midnightblue" points="983.758,-18.227 993.209,-13.439 982.835,-11.2882 983.758,-18.227"/>
</g>
<!-- Node31 -->
<g id="node31" class="node"><title>Node31</title>
<polygon fill="white" stroke="#bfbfbf" points="984.5,-62.5 984.5,-81.5 1027.5,-81.5 1027.5,-62.5 984.5,-62.5"/>
<text text-anchor="middle" x="1006" y="-69.5" font-family="FreeSans" font-size="10.00">vector</text>
</g>
<!-- Node30&#45;&gt;Node31 -->
<g id="edge36" class="edge"><title>Node30&#45;&gt;Node31</title>
<path fill="none" stroke="midnightblue" d="M815.958,-124.431C860.463,-117.226 921.873,-105.303 974,-88 976.129,-87.2933 978.303,-86.4824 980.465,-85.6116"/>
<polygon fill="midnightblue" stroke="midnightblue" points="981.954,-88.7804 989.695,-81.5473 979.133,-82.374 981.954,-88.7804"/>
</g>
<!-- Node32&#45;&gt;Node31 -->
<g id="edge39" class="edge"><title>Node32&#45;&gt;Node31</title>
<path fill="none" stroke="midnightblue" d="M927.181,-124.403C942.074,-114.691 966.544,-98.7319 984.273,-87.1697"/>
<polygon fill="midnightblue" stroke="midnightblue" points="986.379,-89.975 992.843,-81.5806 982.555,-84.1117 986.379,-89.975"/>
</g>
<!-- Node33 -->
<g id="node33" class="node"><title>Node33</title>
<g id="a_node33"><a xlink:href="types_8hpp.html" target="_top" xlink:title="components/interpreter\l/types.hpp">
<polygon fill="white" stroke="black" points="850,-57 850,-87 966,-87 966,-57 850,-57"/>
<text text-anchor="start" x="858" y="-75" font-family="FreeSans" font-size="10.00">components/interpreter</text>
<text text-anchor="middle" x="908" y="-64" font-family="FreeSans" font-size="10.00">/types.hpp</text>
</a>
</g>
</g>
<!-- Node32&#45;&gt;Node33 -->
<g id="edge40" class="edge"><title>Node32&#45;&gt;Node33</title>
<path fill="none" stroke="midnightblue" d="M913.14,-124.403C912.434,-117.341 911.398,-106.975 910.44,-97.399"/>
<polygon fill="midnightblue" stroke="midnightblue" points="913.892,-96.7429 909.414,-87.1408 906.927,-97.4395 913.892,-96.7429"/>
</g>
<!-- Node34 -->
<g id="node34" class="node"><title>Node34</title>
<polygon fill="white" stroke="#bfbfbf" points="879,-0.5 879,-19.5 937,-19.5 937,-0.5 879,-0.5"/>
<text text-anchor="middle" x="908" y="-7.5" font-family="FreeSans" font-size="10.00">stdexcept</text>
</g>
<!-- Node33&#45;&gt;Node34 -->
<g id="edge41" class="edge"><title>Node33&#45;&gt;Node34</title>
<path fill="none" stroke="midnightblue" d="M908,-56.7808C908,-48.7812 908,-38.6887 908,-30.0168"/>
<polygon fill="midnightblue" stroke="midnightblue" points="911.5,-29.7305 908,-19.7305 904.5,-29.7306 911.5,-29.7305"/>
</g>
<!-- Node35&#45;&gt;Node5 -->
<g id="edge45" class="edge"><title>Node35&#45;&gt;Node5</title>
<path fill="none" stroke="midnightblue" d="M991.435,-124.467C892.036,-111.331 705.375,-86.6619 632.367,-77.0133"/>
<polygon fill="midnightblue" stroke="midnightblue" points="632.816,-73.5423 622.444,-75.7018 631.899,-80.482 632.816,-73.5423"/>
</g>
<!-- Node35&#45;&gt;Node17 -->
<g id="edge46" class="edge"><title>Node35&#45;&gt;Node17</title>
<path fill="none" stroke="midnightblue" d="M1070.04,-124.403C1086.05,-114.601 1112.45,-98.4385 1131.37,-86.8526"/>
<polygon fill="midnightblue" stroke="midnightblue" points="1133.28,-89.7872 1139.99,-81.5806 1129.63,-83.8172 1133.28,-89.7872"/>
</g>
<!-- Node35&#45;&gt;Node27 -->
<g id="edge48" class="edge"><title>Node35&#45;&gt;Node27</title>
<path fill="none" stroke="midnightblue" d="M1054.18,-124.334C1051.07,-109.953 1044.25,-80.3298 1036,-56 1032.94,-46.9646 1028.9,-37.1801 1025.33,-29.0498"/>
<polygon fill="midnightblue" stroke="midnightblue" points="1028.47,-27.4992 1021.17,-19.8171 1022.09,-30.3725 1028.47,-27.4992"/>
</g>
<!-- Node35&#45;&gt;Node31 -->
<g id="edge47" class="edge"><title>Node35&#45;&gt;Node31</title>
<path fill="none" stroke="midnightblue" d="M1048.84,-124.403C1041.26,-115.314 1029.13,-100.756 1019.71,-89.4489"/>
<polygon fill="midnightblue" stroke="midnightblue" points="1022.24,-87.0222 1013.15,-81.5806 1016.86,-91.5035 1022.24,-87.0222"/>
</g>
<!-- Node36&#45;&gt;Node5 -->
<g id="edge51" class="edge"><title>Node36&#45;&gt;Node5</title>
<path fill="none" stroke="midnightblue" d="M1181.3,-126.146C1037.86,-112.988 729.483,-84.6957 632.108,-75.7622"/>
<polygon fill="midnightblue" stroke="midnightblue" points="632.344,-72.2692 622.066,-74.8409 631.704,-79.24 632.344,-72.2692"/>
</g>
<!-- Node36&#45;&gt;Node17 -->
<g id="edge54" class="edge"><title>Node36&#45;&gt;Node17</title>
<path fill="none" stroke="midnightblue" d="M1241.39,-124.403C1224.65,-114.557 1197,-98.2915 1177.28,-86.6949"/>
<polygon fill="midnightblue" stroke="midnightblue" points="1178.98,-83.6341 1168.59,-81.5806 1175.43,-89.6676 1178.98,-83.6341"/>
</g>
<!-- Node36&#45;&gt;Node27 -->
<g id="edge50" class="edge"><title>Node36&#45;&gt;Node27</title>
<path fill="none" stroke="midnightblue" d="M1249.63,-124.415C1237.36,-108.502 1208.85,-74.3791 1177,-56 1137.08,-32.9658 1084.7,-21.1575 1050.94,-15.5334"/>
<polygon fill="midnightblue" stroke="midnightblue" points="1051.09,-12.0149 1040.67,-13.9183 1050,-18.9299 1051.09,-12.0149"/>
</g>
<!-- Node36&#45;&gt;Node31 -->
<g id="edge52" class="edge"><title>Node36&#45;&gt;Node31</title>
<path fill="none" stroke="midnightblue" d="M1220.45,-124.467C1171.57,-112.737 1084.37,-91.8099 1037.64,-80.5946"/>
<polygon fill="midnightblue" stroke="midnightblue" points="1038.31,-77.1552 1027.77,-78.2248 1036.68,-83.9619 1038.31,-77.1552"/>
</g>
<!-- Node37 -->
<g id="node37" class="node"><title>Node37</title>
<polygon fill="white" stroke="#bfbfbf" points="1234.5,-62.5 1234.5,-81.5 1269.5,-81.5 1269.5,-62.5 1234.5,-62.5"/>
<text text-anchor="middle" x="1252" y="-69.5" font-family="FreeSans" font-size="10.00">map</text>
</g>
<!-- Node36&#45;&gt;Node37 -->
<g id="edge53" class="edge"><title>Node36&#45;&gt;Node37</title>
<path fill="none" stroke="midnightblue" d="M1255.43,-124.403C1254.86,-115.938 1253.98,-102.728 1253.25,-91.8199"/>
<polygon fill="midnightblue" stroke="midnightblue" points="1256.73,-91.3256 1252.57,-81.5806 1249.75,-91.7913 1256.73,-91.3256"/>
</g>
<!-- Node38 -->
<g id="node38" class="node"><title>Node38</title>
<g id="a_node38"><a xlink:href="mode_8hpp.html" target="_top" xlink:title="../mwgui/mode.hpp">
<polygon fill="white" stroke="black" points="1287.5,-62.5 1287.5,-81.5 1384.5,-81.5 1384.5,-62.5 1287.5,-62.5"/>
<text text-anchor="middle" x="1336" y="-69.5" font-family="FreeSans" font-size="10.00">../mwgui/mode.hpp</text>
</a>
</g>
</g>
<!-- Node36&#45;&gt;Node38 -->
<g id="edge55" class="edge"><title>Node36&#45;&gt;Node38</title>
<path fill="none" stroke="midnightblue" d="M1267.46,-124.403C1280.17,-114.869 1300.91,-99.3154 1316.25,-87.8106"/>
<polygon fill="midnightblue" stroke="midnightblue" points="1318.66,-90.3806 1324.56,-81.5806 1314.46,-84.7806 1318.66,-90.3806"/>
</g>
</g>
</svg>
