<?xml version="1.0" encoding="UTF-8" standalone="no"?>
<!DOCTYPE svg PUBLIC "-//W3C//DTD SVG 1.1//EN"
 "http://www.w3.org/Graphics/SVG/1.1/DTD/svg11.dtd">
<!-- Generated by graphviz version 2.36.0 (20140111.2315)
 -->
<!-- Title: /home/travis/build/elsid/openmw/apps/opencs/model/world/regionmap.hpp Pages: 1 -->
<svg width="939pt" height="330pt"
 viewBox="0.00 0.00 939.00 330.00" xmlns="http://www.w3.org/2000/svg" xmlns:xlink="http://www.w3.org/1999/xlink">
<g id="graph0" class="graph" transform="scale(1 1) rotate(0) translate(4 326)">
<title>/home/travis/build/elsid/openmw/apps/opencs/model/world/regionmap.hpp</title>
<polygon fill="white" stroke="none" points="-4,4 -4,-326 935,-326 935,4 -4,4"/>
<!-- Node1 -->
<g id="node1" class="node"><title>Node1</title>
<polygon fill="#bfbfbf" stroke="black" points="494.5,-280.5 494.5,-321.5 647.5,-321.5 647.5,-280.5 494.5,-280.5"/>
<text text-anchor="start" x="502.5" y="-309.5" font-family="FreeSans" font-size="10.00">/home/travis/build</text>
<text text-anchor="start" x="502.5" y="-298.5" font-family="FreeSans" font-size="10.00">/elsid/openmw/apps/opencs</text>
<text text-anchor="middle" x="571" y="-287.5" font-family="FreeSans" font-size="10.00">/model/world/regionmap.hpp</text>
</g>
<!-- Node2 -->
<g id="node2" class="node"><title>Node2</title>
<polygon fill="white" stroke="#bfbfbf" points="395,-224.5 395,-243.5 433,-243.5 433,-224.5 395,-224.5"/>
<text text-anchor="middle" x="414" y="-231.5" font-family="FreeSans" font-size="10.00">map</text>
</g>
<!-- Node1&#45;&gt;Node2 -->
<g id="edge1" class="edge"><title>Node1&#45;&gt;Node2</title>
<path fill="none" stroke="midnightblue" d="M523.895,-280.498C497.458,-269.553 465.335,-256.253 442.665,-246.868"/>
<polygon fill="midnightblue" stroke="midnightblue" points="443.849,-243.57 433.271,-242.978 441.172,-250.038 443.849,-243.57"/>
</g>
<!-- Node3 -->
<g id="node3" class="node"><title>Node3</title>
<polygon fill="white" stroke="#bfbfbf" points="362,-56.5 362,-75.5 406,-75.5 406,-56.5 362,-56.5"/>
<text text-anchor="middle" x="384" y="-63.5" font-family="FreeSans" font-size="10.00">string</text>
</g>
<!-- Node1&#45;&gt;Node3 -->
<g id="edge2" class="edge"><title>Node1&#45;&gt;Node3</title>
<path fill="none" stroke="midnightblue" d="M569.885,-280.38C566.704,-242.689 554.512,-159.679 508,-112 483.61,-86.9978 444.269,-75.8144 416.449,-70.8584"/>
<polygon fill="midnightblue" stroke="midnightblue" points="416.834,-67.3755 406.406,-69.248 415.726,-74.2872 416.834,-67.3755"/>
</g>
<!-- Node4 -->
<g id="node4" class="node"><title>Node4</title>
<polygon fill="white" stroke="#bfbfbf" points="433.5,-112.5 433.5,-131.5 480.5,-131.5 480.5,-112.5 433.5,-112.5"/>
<text text-anchor="middle" x="457" y="-119.5" font-family="FreeSans" font-size="10.00">vector</text>
</g>
<!-- Node1&#45;&gt;Node4 -->
<g id="edge3" class="edge"><title>Node1&#45;&gt;Node4</title>
<path fill="none" stroke="midnightblue" d="M558.364,-280.382C535.887,-245.483 489.324,-173.187 468.044,-140.147"/>
<polygon fill="midnightblue" stroke="midnightblue" points="470.886,-138.096 462.529,-131.584 465.001,-141.886 470.886,-138.096"/>
</g>
<!-- Node5 -->
<g id="node5" class="node"><title>Node5</title>
<polygon fill="white" stroke="#bfbfbf" points="727.5,-224.5 727.5,-243.5 844.5,-243.5 844.5,-224.5 727.5,-224.5"/>
<text text-anchor="middle" x="786" y="-231.5" font-family="FreeSans" font-size="10.00">QAbstractTableModel</text>
</g>
<!-- Node1&#45;&gt;Node5 -->
<g id="edge4" class="edge"><title>Node1&#45;&gt;Node5</title>
<path fill="none" stroke="midnightblue" d="M635.507,-280.498C672.227,-269.396 716.96,-255.872 748.069,-246.468"/>
<polygon fill="midnightblue" stroke="midnightblue" points="749.104,-249.811 757.663,-243.567 747.078,-243.111 749.104,-249.811"/>
</g>
<!-- Node6 -->
<g id="node6" class="node"><title>Node6</title>
<g id="a_node6"><a xlink:href="apps_2opencs_2model_2world_2record_8hpp.html" target="_top" xlink:title="record.hpp">
<polygon fill="white" stroke="black" points="863,-224.5 863,-243.5 931,-243.5 931,-224.5 863,-224.5"/>
<text text-anchor="middle" x="897" y="-231.5" font-family="FreeSans" font-size="10.00">record.hpp</text>
</a>
</g>
</g>
<!-- Node1&#45;&gt;Node6 -->
<g id="edge5" class="edge"><title>Node1&#45;&gt;Node6</title>
<path fill="none" stroke="midnightblue" d="M647.625,-284.907C704.353,-273.703 783.519,-258.005 853,-244 853.1,-243.98 853.201,-243.96 853.301,-243.939"/>
<polygon fill="midnightblue" stroke="midnightblue" points="853.788,-247.412 862.894,-241.996 852.398,-240.551 853.788,-247.412"/>
</g>
<!-- Node8 -->
<g id="node8" class="node"><title>Node8</title>
<g id="a_node8"><a xlink:href="opencs_2model_2world_2cell_8hpp.html" target="_top" xlink:title="cell.hpp">
<polygon fill="white" stroke="black" points="451.5,-224.5 451.5,-243.5 504.5,-243.5 504.5,-224.5 451.5,-224.5"/>
<text text-anchor="middle" x="478" y="-231.5" font-family="FreeSans" font-size="10.00">cell.hpp</text>
</a>
</g>
</g>
<!-- Node1&#45;&gt;Node8 -->
<g id="edge7" class="edge"><title>Node1&#45;&gt;Node8</title>
<path fill="none" stroke="midnightblue" d="M543.097,-280.498C528.838,-270.532 511.787,-258.614 498.712,-249.476"/>
<polygon fill="midnightblue" stroke="midnightblue" points="500.581,-246.512 490.38,-243.652 496.571,-252.25 500.581,-246.512"/>
</g>
<!-- Node20 -->
<g id="node20" class="node"><title>Node20</title>
<g id="a_node20"><a xlink:href="cellcoordinates_8hpp.html" target="_top" xlink:title="cellcoordinates.hpp">
<polygon fill="white" stroke="black" points="599,-224.5 599,-243.5 709,-243.5 709,-224.5 599,-224.5"/>
<text text-anchor="middle" x="654" y="-231.5" font-family="FreeSans" font-size="10.00">cellcoordinates.hpp</text>
</a>
</g>
</g>
<!-- Node1&#45;&gt;Node20 -->
<g id="edge28" class="edge"><title>Node1&#45;&gt;Node20</title>
<path fill="none" stroke="midnightblue" d="M595.903,-280.498C608.383,-270.724 623.262,-259.072 634.838,-250.007"/>
<polygon fill="midnightblue" stroke="midnightblue" points="637.236,-252.574 642.951,-243.652 632.92,-247.063 637.236,-252.574"/>
</g>
<!-- Node7 -->
<g id="node7" class="node"><title>Node7</title>
<polygon fill="white" stroke="#bfbfbf" points="865,-168.5 865,-187.5 929,-187.5 929,-168.5 865,-168.5"/>
<text text-anchor="middle" x="897" y="-175.5" font-family="FreeSans" font-size="10.00">stdexcept</text>
</g>
<!-- Node6&#45;&gt;Node7 -->
<g id="edge6" class="edge"><title>Node6&#45;&gt;Node7</title>
<path fill="none" stroke="midnightblue" d="M897,-224.083C897,-217.006 897,-206.861 897,-197.986"/>
<polygon fill="midnightblue" stroke="midnightblue" points="900.5,-197.751 897,-187.751 893.5,-197.751 900.5,-197.751"/>
</g>
<!-- Node8&#45;&gt;Node3 -->
<g id="edge9" class="edge"><title>Node8&#45;&gt;Node3</title>
<path fill="none" stroke="midnightblue" d="M482.109,-224.498C491.638,-203.43 512.688,-147.924 489,-112 472.951,-87.6609 440.712,-76.436 416.168,-71.2898"/>
<polygon fill="midnightblue" stroke="midnightblue" points="416.661,-67.8215 406.19,-69.4359 415.382,-74.7038 416.661,-67.8215"/>
</g>
<!-- Node8&#45;&gt;Node4 -->
<g id="edge8" class="edge"><title>Node8&#45;&gt;Node4</title>
<path fill="none" stroke="midnightblue" d="M476.352,-224.368C472.963,-206.617 465.145,-165.666 460.55,-141.597"/>
<polygon fill="midnightblue" stroke="midnightblue" points="463.953,-140.758 458.64,-131.591 457.078,-142.07 463.953,-140.758"/>
</g>
<!-- Node9 -->
<g id="node9" class="node"><title>Node9</title>
<g id="a_node9"><a xlink:href="loadcell_8hpp.html" target="_top" xlink:title="components/esm/loadcell.hpp">
<polygon fill="white" stroke="black" points="217.5,-168.5 217.5,-187.5 378.5,-187.5 378.5,-168.5 217.5,-168.5"/>
<text text-anchor="middle" x="298" y="-175.5" font-family="FreeSans" font-size="10.00">components/esm/loadcell.hpp</text>
</a>
</g>
</g>
<!-- Node8&#45;&gt;Node9 -->
<g id="edge10" class="edge"><title>Node8&#45;&gt;Node9</title>
<path fill="none" stroke="midnightblue" d="M451.44,-225.032C421,-215.9 370.859,-200.858 336.223,-190.467"/>
<polygon fill="midnightblue" stroke="midnightblue" points="337.037,-187.057 326.453,-187.536 335.026,-193.762 337.037,-187.057"/>
</g>
<!-- Node9&#45;&gt;Node3 -->
<g id="edge11" class="edge"><title>Node9&#45;&gt;Node3</title>
<path fill="none" stroke="midnightblue" d="M294.907,-168.24C290.811,-154.986 285.277,-129.528 296,-112 308.181,-92.0904 332.261,-80.6339 352.156,-74.2685"/>
<polygon fill="midnightblue" stroke="midnightblue" points="353.18,-77.6158 361.805,-71.4619 351.225,-70.8944 353.18,-77.6158"/>
</g>
<!-- Node9&#45;&gt;Node4 -->
<g id="edge12" class="edge"><title>Node9&#45;&gt;Node4</title>
<path fill="none" stroke="midnightblue" d="M323.194,-168.444C350.415,-159.199 393.906,-144.428 423.876,-134.25"/>
<polygon fill="midnightblue" stroke="midnightblue" points="425.136,-137.518 433.479,-130.988 422.884,-130.89 425.136,-137.518"/>
</g>
<!-- Node10 -->
<g id="node10" class="node"><title>Node10</title>
<polygon fill="white" stroke="#bfbfbf" points="305,-112.5 305,-131.5 335,-131.5 335,-112.5 305,-112.5"/>
<text text-anchor="middle" x="320" y="-119.5" font-family="FreeSans" font-size="10.00">list</text>
</g>
<!-- Node9&#45;&gt;Node10 -->
<g id="edge13" class="edge"><title>Node9&#45;&gt;Node10</title>
<path fill="none" stroke="midnightblue" d="M301.633,-168.083C304.612,-160.77 308.926,-150.181 312.625,-141.103"/>
<polygon fill="midnightblue" stroke="midnightblue" points="315.903,-142.333 316.435,-131.751 309.42,-139.691 315.903,-142.333"/>
</g>
<!-- Node11 -->
<g id="node11" class="node"><title>Node11</title>
<g id="a_node11"><a xlink:href="esmcommon_8hpp.html" target="_top" xlink:title="esmcommon.hpp">
<polygon fill="white" stroke="black" points="147.5,-112.5 147.5,-131.5 248.5,-131.5 248.5,-112.5 147.5,-112.5"/>
<text text-anchor="middle" x="198" y="-119.5" font-family="FreeSans" font-size="10.00">esmcommon.hpp</text>
</a>
</g>
</g>
<!-- Node9&#45;&gt;Node11 -->
<g id="edge14" class="edge"><title>Node9&#45;&gt;Node11</title>
<path fill="none" stroke="midnightblue" d="M281.933,-168.324C266.042,-159.743 241.493,-146.486 223.042,-136.522"/>
<polygon fill="midnightblue" stroke="midnightblue" points="224.489,-133.326 214.027,-131.655 221.163,-139.486 224.489,-133.326"/>
</g>
<!-- Node15 -->
<g id="node15" class="node"><title>Node15</title>
<g id="a_node15"><a xlink:href="esm_2defs_8hpp.html" target="_top" xlink:title="defs.hpp">
<polygon fill="white" stroke="black" points="2,-56.5 2,-75.5 60,-75.5 60,-56.5 2,-56.5"/>
<text text-anchor="middle" x="31" y="-63.5" font-family="FreeSans" font-size="10.00">defs.hpp</text>
</a>
</g>
</g>
<!-- Node9&#45;&gt;Node15 -->
<g id="edge19" class="edge"><title>Node9&#45;&gt;Node15</title>
<path fill="none" stroke="midnightblue" d="M217.4,-170.621C156.443,-164.26 79.2403,-152.422 55,-132 41.3642,-120.512 35.4729,-100.538 32.9292,-85.7547"/>
<polygon fill="midnightblue" stroke="midnightblue" points="36.3762,-85.1272 31.5638,-75.6885 29.4398,-86.0682 36.3762,-85.1272"/>
</g>
<!-- Node17 -->
<g id="node17" class="node"><title>Node17</title>
<g id="a_node17"><a xlink:href="components_2esm_2cellref_8hpp.html" target="_top" xlink:title="cellref.hpp">
<polygon fill="white" stroke="black" points="64.5,-112.5 64.5,-131.5 129.5,-131.5 129.5,-112.5 64.5,-112.5"/>
<text text-anchor="middle" x="97" y="-119.5" font-family="FreeSans" font-size="10.00">cellref.hpp</text>
</a>
</g>
</g>
<!-- Node9&#45;&gt;Node17 -->
<g id="edge22" class="edge"><title>Node9&#45;&gt;Node17</title>
<path fill="none" stroke="midnightblue" d="M266.151,-168.444C231.602,-159.162 176.318,-144.309 138.417,-134.127"/>
<polygon fill="midnightblue" stroke="midnightblue" points="139.266,-130.731 128.7,-131.516 137.449,-137.491 139.266,-130.731"/>
</g>
<!-- Node19 -->
<g id="node19" class="node"><title>Node19</title>
<g id="a_node19"><a xlink:href="cellid_8hpp.html" target="_top" xlink:title="cellid.hpp">
<polygon fill="white" stroke="black" points="353,-112.5 353,-131.5 415,-131.5 415,-112.5 353,-112.5"/>
<text text-anchor="middle" x="384" y="-119.5" font-family="FreeSans" font-size="10.00">cellid.hpp</text>
</a>
</g>
</g>
<!-- Node9&#45;&gt;Node19 -->
<g id="edge26" class="edge"><title>Node9&#45;&gt;Node19</title>
<path fill="none" stroke="midnightblue" d="M311.817,-168.324C325.233,-159.9 345.824,-146.971 361.586,-137.074"/>
<polygon fill="midnightblue" stroke="midnightblue" points="363.609,-139.936 370.217,-131.655 359.887,-134.008 363.609,-139.936"/>
</g>
<!-- Node11&#45;&gt;Node3 -->
<g id="edge15" class="edge"><title>Node11&#45;&gt;Node3</title>
<path fill="none" stroke="midnightblue" d="M227.472,-112.444C261.502,-102.564 317.269,-86.3734 352.24,-76.2208"/>
<polygon fill="midnightblue" stroke="midnightblue" points="353.319,-79.552 361.947,-73.4026 351.367,-72.8296 353.319,-79.552"/>
</g>
<!-- Node12 -->
<g id="node12" class="node"><title>Node12</title>
<polygon fill="white" stroke="#bfbfbf" points="247.5,-56.5 247.5,-75.5 296.5,-75.5 296.5,-56.5 247.5,-56.5"/>
<text text-anchor="middle" x="272" y="-63.5" font-family="FreeSans" font-size="10.00">cstring</text>
</g>
<!-- Node11&#45;&gt;Node12 -->
<g id="edge16" class="edge"><title>Node11&#45;&gt;Node12</title>
<path fill="none" stroke="midnightblue" d="M209.889,-112.324C221.15,-104.107 238.287,-91.6017 251.709,-81.8069"/>
<polygon fill="midnightblue" stroke="midnightblue" points="253.88,-84.5559 259.894,-75.8339 249.753,-78.9014 253.88,-84.5559"/>
</g>
<!-- Node13 -->
<g id="node13" class="node"><title>Node13</title>
<polygon fill="white" stroke="#bfbfbf" points="100.5,-0.5 100.5,-19.5 153.5,-19.5 153.5,-0.5 100.5,-0.5"/>
<text text-anchor="middle" x="127" y="-7.5" font-family="FreeSans" font-size="10.00">stdint.h</text>
</g>
<!-- Node11&#45;&gt;Node13 -->
<g id="edge17" class="edge"><title>Node11&#45;&gt;Node13</title>
<path fill="none" stroke="midnightblue" d="M191.924,-112.462C185.575,-103.477 175.39,-88.8769 167,-76 156.625,-60.0757 145.319,-41.5902 137.382,-28.4129"/>
<polygon fill="midnightblue" stroke="midnightblue" points="140.184,-26.2792 132.041,-19.5011 134.179,-29.8778 140.184,-26.2792"/>
</g>
<!-- Node14 -->
<g id="node14" class="node"><title>Node14</title>
<polygon fill="white" stroke="#bfbfbf" points="176.5,-56.5 176.5,-75.5 229.5,-75.5 229.5,-56.5 176.5,-56.5"/>
<text text-anchor="middle" x="203" y="-63.5" font-family="FreeSans" font-size="10.00">string.h</text>
</g>
<!-- Node11&#45;&gt;Node14 -->
<g id="edge18" class="edge"><title>Node11&#45;&gt;Node14</title>
<path fill="none" stroke="midnightblue" d="M198.826,-112.083C199.481,-105.006 200.42,-94.8611 201.242,-85.9865"/>
<polygon fill="midnightblue" stroke="midnightblue" points="204.753,-86.0312 202.19,-75.7511 197.783,-85.3858 204.753,-86.0312"/>
</g>
<!-- Node15&#45;&gt;Node13 -->
<g id="edge20" class="edge"><title>Node15&#45;&gt;Node13</title>
<path fill="none" stroke="midnightblue" d="M46.4241,-56.324C61.5395,-47.8215 84.8154,-34.7288 102.471,-24.7975"/>
<polygon fill="midnightblue" stroke="midnightblue" points="104.614,-27.6077 111.614,-19.6545 101.183,-21.5066 104.614,-27.6077"/>
</g>
<!-- Node16 -->
<g id="node16" class="node"><title>Node16</title>
<polygon fill="white" stroke="#bfbfbf" points="-0.5,-0.5 -0.5,-19.5 62.5,-19.5 62.5,-0.5 -0.5,-0.5"/>
<text text-anchor="middle" x="31" y="-7.5" font-family="FreeSans" font-size="10.00">osg/Vec3f</text>
</g>
<!-- Node15&#45;&gt;Node16 -->
<g id="edge21" class="edge"><title>Node15&#45;&gt;Node16</title>
<path fill="none" stroke="midnightblue" d="M31,-56.083C31,-49.0059 31,-38.8611 31,-29.9865"/>
<polygon fill="midnightblue" stroke="midnightblue" points="34.5001,-29.751 31,-19.7511 27.5001,-29.7511 34.5001,-29.751"/>
</g>
<!-- Node17&#45;&gt;Node3 -->
<g id="edge24" class="edge"><title>Node17&#45;&gt;Node3</title>
<path fill="none" stroke="midnightblue" d="M129.652,-113.724C132.473,-113.128 135.285,-112.546 138,-112 214.571,-96.5974 305.003,-80.6207 352.005,-72.4827"/>
<polygon fill="midnightblue" stroke="midnightblue" points="352.64,-75.9249 361.899,-70.7744 351.449,-69.027 352.64,-75.9249"/>
</g>
<!-- Node17&#45;&gt;Node15 -->
<g id="edge25" class="edge"><title>Node17&#45;&gt;Node15</title>
<path fill="none" stroke="midnightblue" d="M86.396,-112.324C76.5438,-104.263 61.6491,-92.0765 49.7849,-82.3695"/>
<polygon fill="midnightblue" stroke="midnightblue" points="51.7529,-79.4575 41.797,-75.8339 47.3202,-84.8752 51.7529,-79.4575"/>
</g>
<!-- Node18 -->
<g id="node18" class="node"><title>Node18</title>
<polygon fill="white" stroke="#bfbfbf" points="78,-56.5 78,-75.5 120,-75.5 120,-56.5 78,-56.5"/>
<text text-anchor="middle" x="99" y="-63.5" font-family="FreeSans" font-size="10.00">limits</text>
</g>
<!-- Node17&#45;&gt;Node18 -->
<g id="edge23" class="edge"><title>Node17&#45;&gt;Node18</title>
<path fill="none" stroke="midnightblue" d="M97.3303,-112.083C97.5924,-105.006 97.9681,-94.8611 98.2968,-85.9865"/>
<polygon fill="midnightblue" stroke="midnightblue" points="101.803,-85.8738 98.6759,-75.7511 94.8081,-85.6147 101.803,-85.8738"/>
</g>
<!-- Node19&#45;&gt;Node3 -->
<g id="edge27" class="edge"><title>Node19&#45;&gt;Node3</title>
<path fill="none" stroke="midnightblue" d="M384,-112.083C384,-105.006 384,-94.8611 384,-85.9865"/>
<polygon fill="midnightblue" stroke="midnightblue" points="387.5,-85.751 384,-75.7511 380.5,-85.7511 387.5,-85.751"/>
</g>
<!-- Node20&#45;&gt;Node3 -->
<g id="edge30" class="edge"><title>Node20&#45;&gt;Node3</title>
<path fill="none" stroke="midnightblue" d="M656.214,-224.494C659.106,-211.573 662.832,-186.542 654,-168 637.016,-132.343 620.546,-129.215 585,-112 529.339,-85.0435 457.149,-73.9712 416.166,-69.6242"/>
<polygon fill="midnightblue" stroke="midnightblue" points="416.501,-66.1403 406.204,-68.6358 415.81,-73.1061 416.501,-66.1403"/>
</g>
<!-- Node21 -->
<g id="node21" class="node"><title>Node21</title>
<polygon fill="white" stroke="#bfbfbf" points="599,-168.5 599,-187.5 645,-187.5 645,-168.5 599,-168.5"/>
<text text-anchor="middle" x="622" y="-175.5" font-family="FreeSans" font-size="10.00">iosfwd</text>
</g>
<!-- Node20&#45;&gt;Node21 -->
<g id="edge29" class="edge"><title>Node20&#45;&gt;Node21</title>
<path fill="none" stroke="midnightblue" d="M648.716,-224.083C644.289,-216.613 637.837,-205.724 632.382,-196.52"/>
<polygon fill="midnightblue" stroke="midnightblue" points="635.295,-194.57 627.186,-187.751 629.273,-198.138 635.295,-194.57"/>
</g>
<!-- Node22 -->
<g id="node22" class="node"><title>Node22</title>
<polygon fill="white" stroke="#bfbfbf" points="701,-168.5 701,-187.5 743,-187.5 743,-168.5 701,-168.5"/>
<text text-anchor="middle" x="722" y="-175.5" font-family="FreeSans" font-size="10.00">utility</text>
</g>
<!-- Node20&#45;&gt;Node22 -->
<g id="edge31" class="edge"><title>Node20&#45;&gt;Node22</title>
<path fill="none" stroke="midnightblue" d="M664.925,-224.324C675.175,-216.185 690.721,-203.839 703.001,-194.087"/>
<polygon fill="midnightblue" stroke="midnightblue" points="705.221,-196.794 710.876,-187.834 700.868,-191.312 705.221,-196.794"/>
</g>
<!-- Node23 -->
<g id="node23" class="node"><title>Node23</title>
<polygon fill="white" stroke="#bfbfbf" points="761.5,-168.5 761.5,-187.5 830.5,-187.5 830.5,-168.5 761.5,-168.5"/>
<text text-anchor="middle" x="796" y="-175.5" font-family="FreeSans" font-size="10.00">QMetaType</text>
</g>
<!-- Node20&#45;&gt;Node23 -->
<g id="edge32" class="edge"><title>Node20&#45;&gt;Node23</title>
<path fill="none" stroke="midnightblue" d="M676.5,-224.444C700.077,-215.478 737.322,-201.314 763.964,-191.183"/>
<polygon fill="midnightblue" stroke="midnightblue" points="765.502,-194.342 773.605,-187.516 763.014,-187.8 765.502,-194.342"/>
</g>
</g>
</svg>
