<?xml version="1.0" encoding="UTF-8" standalone="no"?>
<!DOCTYPE svg PUBLIC "-//W3C//DTD SVG 1.1//EN"
 "http://www.w3.org/Graphics/SVG/1.1/DTD/svg11.dtd">
<!-- Generated by graphviz version 2.36.0 (20140111.2315)
 -->
<!-- Title: /home/scrawl/Dev/openmw/components/resource/multiobjectcache.cpp Pages: 1 -->
<svg width="312pt" height="152pt"
 viewBox="0.00 0.00 312.00 152.00" xmlns="http://www.w3.org/2000/svg" xmlns:xlink="http://www.w3.org/1999/xlink">
<g id="graph0" class="graph" transform="scale(1 1) rotate(0) translate(4 148)">
<title>/home/scrawl/Dev/openmw/components/resource/multiobjectcache.cpp</title>
<polygon fill="white" stroke="none" points="-4,4 -4,-148 308,-148 308,4 -4,4"/>
<!-- Node1 -->
<g id="node1" class="node"><title>Node1</title>
<polygon fill="#bfbfbf" stroke="black" points="98,-113 98,-143 304,-143 304,-113 98,-113"/>
<text text-anchor="start" x="106" y="-131" font-family="FreeSans" font-size="10.00">/home/scrawl/Dev/openmw</text>
<text text-anchor="middle" x="201" y="-120" font-family="FreeSans" font-size="10.00">/components/resource/multiobjectcache.cpp</text>
</g>
<!-- Node2 -->
<g id="node2" class="node"><title>Node2</title>
<g id="a_node2"><a xlink:href="multiobjectcache_8hpp.html" target="_top" xlink:title="multiobjectcache.hpp">
<polygon fill="white" stroke="black" points="53,-56.5 53,-75.5 161,-75.5 161,-56.5 53,-56.5"/>
<text text-anchor="middle" x="107" y="-63.5" font-family="FreeSans" font-size="10.00">multiobjectcache.hpp</text>
</a>
</g>
</g>
<!-- Node1&#45;&gt;Node2 -->
<g id="edge1" class="edge"><title>Node1&#45;&gt;Node2</title>
<path fill="none" stroke="midnightblue" d="M178.723,-112.781C163.707,-103.196 143.983,-90.6062 129.02,-81.0555"/>
<polygon fill="midnightblue" stroke="midnightblue" points="130.716,-77.9859 120.404,-75.5557 126.95,-83.8863 130.716,-77.9859"/>
</g>
<!-- Node7 -->
<g id="node7" class="node"><title>Node7</title>
<polygon fill="white" stroke="#bfbfbf" points="179.5,-56.5 179.5,-75.5 222.5,-75.5 222.5,-56.5 179.5,-56.5"/>
<text text-anchor="middle" x="201" y="-63.5" font-family="FreeSans" font-size="10.00">vector</text>
</g>
<!-- Node1&#45;&gt;Node7 -->
<g id="edge6" class="edge"><title>Node1&#45;&gt;Node7</title>
<path fill="none" stroke="midnightblue" d="M201,-112.781C201,-104.781 201,-94.6887 201,-86.0168"/>
<polygon fill="midnightblue" stroke="midnightblue" points="204.5,-85.7305 201,-75.7305 197.5,-85.7306 204.5,-85.7305"/>
</g>
<!-- Node8 -->
<g id="node8" class="node"><title>Node8</title>
<polygon fill="white" stroke="#bfbfbf" points="240.5,-56.5 240.5,-75.5 303.5,-75.5 303.5,-56.5 240.5,-56.5"/>
<text text-anchor="middle" x="272" y="-63.5" font-family="FreeSans" font-size="10.00">osg/Object</text>
</g>
<!-- Node1&#45;&gt;Node8 -->
<g id="edge7" class="edge"><title>Node1&#45;&gt;Node8</title>
<path fill="none" stroke="midnightblue" d="M217.826,-112.781C228.675,-103.613 242.777,-91.6957 253.873,-82.3186"/>
<polygon fill="midnightblue" stroke="midnightblue" points="256.29,-84.8585 261.669,-75.7305 251.772,-79.5119 256.29,-84.8585"/>
</g>
<!-- Node3 -->
<g id="node3" class="node"><title>Node3</title>
<polygon fill="white" stroke="#bfbfbf" points="-0.5,-0.5 -0.5,-19.5 34.5,-19.5 34.5,-0.5 -0.5,-0.5"/>
<text text-anchor="middle" x="17" y="-7.5" font-family="FreeSans" font-size="10.00">map</text>
</g>
<!-- Node2&#45;&gt;Node3 -->
<g id="edge2" class="edge"><title>Node2&#45;&gt;Node3</title>
<path fill="none" stroke="midnightblue" d="M92.5399,-56.324C78.5004,-47.9002 56.9515,-34.9709 40.4569,-25.0741"/>
<polygon fill="midnightblue" stroke="midnightblue" points="41.7999,-21.7983 31.4242,-19.6545 38.1984,-27.8007 41.7999,-21.7983"/>
</g>
<!-- Node4 -->
<g id="node4" class="node"><title>Node4</title>
<polygon fill="white" stroke="#bfbfbf" points="53,-0.5 53,-19.5 93,-19.5 93,-0.5 53,-0.5"/>
<text text-anchor="middle" x="73" y="-7.5" font-family="FreeSans" font-size="10.00">string</text>
</g>
<!-- Node2&#45;&gt;Node4 -->
<g id="edge3" class="edge"><title>Node2&#45;&gt;Node4</title>
<path fill="none" stroke="midnightblue" d="M101.386,-56.083C96.6326,-48.5341 89.6819,-37.4948 83.8484,-28.2298"/>
<polygon fill="midnightblue" stroke="midnightblue" points="86.7999,-26.3486 78.5099,-19.7511 80.8763,-30.0783 86.7999,-26.3486"/>
</g>
<!-- Node5 -->
<g id="node5" class="node"><title>Node5</title>
<polygon fill="white" stroke="#bfbfbf" points="111,-0.5 111,-19.5 173,-19.5 173,-0.5 111,-0.5"/>
<text text-anchor="middle" x="142" y="-7.5" font-family="FreeSans" font-size="10.00">osg/ref_ptr</text>
</g>
<!-- Node2&#45;&gt;Node5 -->
<g id="edge4" class="edge"><title>Node2&#45;&gt;Node5</title>
<path fill="none" stroke="midnightblue" d="M112.78,-56.083C117.672,-48.5341 124.827,-37.4948 130.833,-28.2298"/>
<polygon fill="midnightblue" stroke="midnightblue" points="133.826,-30.0463 136.328,-19.7511 127.952,-26.239 133.826,-30.0463"/>
</g>
<!-- Node6 -->
<g id="node6" class="node"><title>Node6</title>
<polygon fill="white" stroke="#bfbfbf" points="191,-0.5 191,-19.5 275,-19.5 275,-0.5 191,-0.5"/>
<text text-anchor="middle" x="233" y="-7.5" font-family="FreeSans" font-size="10.00">osg/Referenced</text>
</g>
<!-- Node2&#45;&gt;Node6 -->
<g id="edge5" class="edge"><title>Node2&#45;&gt;Node6</title>
<path fill="none" stroke="midnightblue" d="M126.965,-56.4435C147.609,-47.5961 180.063,-33.6875 203.632,-23.5865"/>
<polygon fill="midnightblue" stroke="midnightblue" points="205.316,-26.6727 213.128,-19.5164 202.558,-20.2387 205.316,-26.6727"/>
</g>
</g>
</svg>
