<?xml version="1.0" encoding="UTF-8" standalone="no"?>
<!DOCTYPE svg PUBLIC "-//W3C//DTD SVG 1.1//EN"
 "http://www.w3.org/Graphics/SVG/1.1/DTD/svg11.dtd">
<!-- Generated by graphviz version 2.36.0 (20140111.2315)
 -->
<!-- Title: anonymous_namespace{spellpriority::cpp}::numEffectsToDispel Pages: 1 -->
<svg width="1636pt" height="208pt"
 viewBox="0.00 0.00 1636.00 208.00" xmlns="http://www.w3.org/2000/svg" xmlns:xlink="http://www.w3.org/1999/xlink">
<g id="graph0" class="graph" transform="scale(1 1) rotate(0) translate(4 204)">
<title>anonymous_namespace{spellpriority::cpp}::numEffectsToDispel</title>
<polygon fill="white" stroke="none" points="-4,4 -4,-204 1632,-204 1632,4 -4,4"/>
<!-- Node1 -->
<g id="node1" class="node"><title>Node1</title>
<polygon fill="#bfbfbf" stroke="black" points="0,-27.5 0,-68.5 134,-68.5 134,-27.5 0,-27.5"/>
<text text-anchor="start" x="8" y="-56.5" font-family="FreeSans" font-size="10.00">anonymous_namespace</text>
<text text-anchor="start" x="8" y="-45.5" font-family="FreeSans" font-size="10.00">{spellpriority::cpp}</text>
<text text-anchor="middle" x="67" y="-34.5" font-family="FreeSans" font-size="10.00">::numEffectsToDispel</text>
</g>
<!-- Node2 -->
<g id="node2" class="node"><title>Node2</title>
<g id="a_node2"><a xlink:href="namespaceMWMechanics.html#ab7eadd05e39e29738227aeb394c096ec" target="_top" xlink:title="MWMechanics::rateEffect">
<polygon fill="white" stroke="black" points="170,-38.5 170,-57.5 306,-57.5 306,-38.5 170,-38.5"/>
<text text-anchor="middle" x="238" y="-45.5" font-family="FreeSans" font-size="10.00">MWMechanics::rateEffect</text>
</a>
</g>
</g>
<!-- Node1&#45;&gt;Node2 -->
<g id="edge1" class="edge"><title>Node1&#45;&gt;Node2</title>
<path fill="none" stroke="midnightblue" d="M144.511,-48C152.938,-48 161.471,-48 169.772,-48"/>
<polygon fill="midnightblue" stroke="midnightblue" points="144.308,-44.5001 134.308,-48 144.308,-51.5001 144.308,-44.5001"/>
</g>
<!-- Node3 -->
<g id="node3" class="node"><title>Node3</title>
<g id="a_node3"><a xlink:href="namespaceMWMechanics.html#a2d6e40b5807589d4725ad64e263dfe1f" target="_top" xlink:title="MWMechanics::rateEffects">
<polygon fill="white" stroke="black" points="342.5,-76.5 342.5,-95.5 483.5,-95.5 483.5,-76.5 342.5,-76.5"/>
<text text-anchor="middle" x="413" y="-83.5" font-family="FreeSans" font-size="10.00">MWMechanics::rateEffects</text>
</a>
</g>
</g>
<!-- Node2&#45;&gt;Node3 -->
<g id="edge2" class="edge"><title>Node2&#45;&gt;Node3</title>
<path fill="none" stroke="midnightblue" d="M292.505,-59.7526C316.967,-65.1258 345.571,-71.4086 368.659,-76.4799"/>
<polygon fill="midnightblue" stroke="midnightblue" points="293.173,-56.316 282.655,-57.589 291.671,-63.153 293.173,-56.316"/>
</g>
<!-- Node4 -->
<g id="node4" class="node"><title>Node4</title>
<g id="a_node4"><a xlink:href="namespaceMWMechanics.html#aec953882946f6e11ec708949f7a1d0da" target="_top" xlink:title="MWMechanics::ratePotion">
<polygon fill="white" stroke="black" points="523.5,-180.5 523.5,-199.5 662.5,-199.5 662.5,-180.5 523.5,-180.5"/>
<text text-anchor="middle" x="593" y="-187.5" font-family="FreeSans" font-size="10.00">MWMechanics::ratePotion</text>
</a>
</g>
</g>
<!-- Node3&#45;&gt;Node4 -->
<g id="edge3" class="edge"><title>Node3&#45;&gt;Node4</title>
<path fill="none" stroke="midnightblue" d="M439.129,-100.682C476.165,-122.321 544.384,-162.179 575.613,-180.426"/>
<polygon fill="midnightblue" stroke="midnightblue" points="440.827,-97.6204 430.427,-95.5977 437.295,-103.664 440.827,-97.6204"/>
</g>
<!-- Node8 -->
<g id="node8" class="node"><title>Node8</title>
<g id="a_node8"><a xlink:href="namespaceMWMechanics.html#a9ea06096b26b59bb714ecbd570d51e23" target="_top" xlink:title="MWMechanics::rateSpell">
<polygon fill="white" stroke="black" points="715,-152.5 715,-171.5 847,-171.5 847,-152.5 715,-152.5"/>
<text text-anchor="middle" x="781" y="-159.5" font-family="FreeSans" font-size="10.00">MWMechanics::rateSpell</text>
</a>
</g>
</g>
<!-- Node3&#45;&gt;Node8 -->
<g id="edge7" class="edge"><title>Node3&#45;&gt;Node8</title>
<path fill="none" stroke="midnightblue" d="M469.838,-97.5947C542.224,-112.626 667.108,-138.558 734.205,-152.491"/>
<polygon fill="midnightblue" stroke="midnightblue" points="470.486,-94.1548 459.984,-95.5485 469.063,-101.009 470.486,-94.1548"/>
</g>
<!-- Node13 -->
<g id="node13" class="node"><title>Node13</title>
<g id="a_node13"><a xlink:href="namespaceMWMechanics.html#a9586872bfeceb99e5f4fc2399c5011fb" target="_top" xlink:title="MWMechanics::rateMagicItem">
<polygon fill="white" stroke="black" points="702,-76.5 702,-95.5 860,-95.5 860,-76.5 702,-76.5"/>
<text text-anchor="middle" x="781" y="-83.5" font-family="FreeSans" font-size="10.00">MWMechanics::rateMagicItem</text>
</a>
</g>
</g>
<!-- Node3&#45;&gt;Node13 -->
<g id="edge13" class="edge"><title>Node3&#45;&gt;Node13</title>
<path fill="none" stroke="midnightblue" d="M493.796,-86C555.577,-86 640.673,-86 701.997,-86"/>
<polygon fill="midnightblue" stroke="midnightblue" points="493.703,-82.5001 483.703,-86 493.703,-89.5001 493.703,-82.5001"/>
</g>
<!-- Node14 -->
<g id="node14" class="node"><title>Node14</title>
<g id="a_node14"><a xlink:href="namespaceMWMechanics.html#a34361714bc630a0c921be69cf14f6aa5" target="_top" xlink:title="MWMechanics::rateWeapon">
<polygon fill="white" stroke="black" points="520,-38.5 520,-57.5 666,-57.5 666,-38.5 520,-38.5"/>
<text text-anchor="middle" x="593" y="-45.5" font-family="FreeSans" font-size="10.00">MWMechanics::rateWeapon</text>
</a>
</g>
</g>
<!-- Node3&#45;&gt;Node14 -->
<g id="edge16" class="edge"><title>Node3&#45;&gt;Node14</title>
<path fill="none" stroke="midnightblue" d="M468.716,-74.319C493.959,-68.9301 523.545,-62.6139 547.406,-57.5201"/>
<polygon fill="midnightblue" stroke="midnightblue" points="467.966,-70.9003 458.917,-76.411 469.427,-77.746 467.966,-70.9003"/>
</g>
<!-- Node5 -->
<g id="node5" class="node"><title>Node5</title>
<g id="a_node5"><a xlink:href="namespaceMWMechanics.html#a830c73b5935624c014c7f8c28cce9aff" target="_top" xlink:title="MWMechanics::prepareNext\lAction">
<polygon fill="white" stroke="black" points="900.5,-109 900.5,-139 1049.5,-139 1049.5,-109 900.5,-109"/>
<text text-anchor="start" x="908.5" y="-127" font-family="FreeSans" font-size="10.00">MWMechanics::prepareNext</text>
<text text-anchor="middle" x="975" y="-116" font-family="FreeSans" font-size="10.00">Action</text>
</a>
</g>
</g>
<!-- Node4&#45;&gt;Node5 -->
<g id="edge4" class="edge"><title>Node4&#45;&gt;Node5</title>
<path fill="none" stroke="midnightblue" d="M672.76,-196.059C726.364,-198.074 798.468,-196.629 860,-181 893.671,-172.448 928.92,-152.947 951.146,-139.143"/>
<polygon fill="midnightblue" stroke="midnightblue" points="672.774,-192.556 662.634,-195.629 672.477,-199.55 672.774,-192.556"/>
</g>
<!-- Node6 -->
<g id="node6" class="node"><title>Node6</title>
<g id="a_node6"><a xlink:href="classMWMechanics_1_1AiCombat.html#a3caa2cf9b536a6d5a8826e3142391855" target="_top" xlink:title="Returns true if combat should end. ">
<polygon fill="white" stroke="black" points="1094.5,-109 1094.5,-139 1231.5,-139 1231.5,-109 1094.5,-109"/>
<text text-anchor="start" x="1102.5" y="-127" font-family="FreeSans" font-size="10.00">MWMechanics::AiCombat</text>
<text text-anchor="middle" x="1163" y="-116" font-family="FreeSans" font-size="10.00">::attack</text>
</a>
</g>
</g>
<!-- Node5&#45;&gt;Node6 -->
<g id="edge5" class="edge"><title>Node5&#45;&gt;Node6</title>
<path fill="none" stroke="midnightblue" d="M1059.68,-124C1071.32,-124 1083.16,-124 1094.46,-124"/>
<polygon fill="midnightblue" stroke="midnightblue" points="1059.51,-120.5 1049.51,-124 1059.51,-127.5 1059.51,-120.5"/>
</g>
<!-- Node7 -->
<g id="node7" class="node"><title>Node7</title>
<g id="a_node7"><a xlink:href="classMWMechanics_1_1AiCombat.html#aa5b6e62fabdd5c9a59ca540992330bce" target="_top" xlink:title="MWMechanics::AiCombat\l::execute">
<polygon fill="white" stroke="black" points="1272.5,-109 1272.5,-139 1409.5,-139 1409.5,-109 1272.5,-109"/>
<text text-anchor="start" x="1280.5" y="-127" font-family="FreeSans" font-size="10.00">MWMechanics::AiCombat</text>
<text text-anchor="middle" x="1341" y="-116" font-family="FreeSans" font-size="10.00">::execute</text>
</a>
</g>
</g>
<!-- Node6&#45;&gt;Node7 -->
<g id="edge6" class="edge"><title>Node6&#45;&gt;Node7</title>
<path fill="none" stroke="midnightblue" d="M1241.68,-124C1251.9,-124 1262.31,-124 1272.35,-124"/>
<polygon fill="midnightblue" stroke="midnightblue" points="1241.54,-120.5 1231.54,-124 1241.54,-127.5 1241.54,-120.5"/>
</g>
<!-- Node8&#45;&gt;Node5 -->
<g id="edge8" class="edge"><title>Node8&#45;&gt;Node5</title>
<path fill="none" stroke="midnightblue" d="M840.414,-150.439C859.352,-146.691 880.607,-142.484 900.497,-138.547"/>
<polygon fill="midnightblue" stroke="midnightblue" points="839.58,-147.036 830.45,-152.411 840.939,-153.903 839.58,-147.036"/>
</g>
<!-- Node9 -->
<g id="node9" class="node"><title>Node9</title>
<g id="a_node9"><a xlink:href="namespaceMWMechanics.html#a2063cb7e43a9a94667efe9865bcae60f" target="_top" xlink:title="MWMechanics::getBestAction\lRating">
<polygon fill="white" stroke="black" points="896.5,-50 896.5,-80 1053.5,-80 1053.5,-50 896.5,-50"/>
<text text-anchor="start" x="904.5" y="-68" font-family="FreeSans" font-size="10.00">MWMechanics::getBestAction</text>
<text text-anchor="middle" x="975" y="-57" font-family="FreeSans" font-size="10.00">Rating</text>
</a>
</g>
</g>
<!-- Node8&#45;&gt;Node9 -->
<g id="edge9" class="edge"><title>Node8&#45;&gt;Node9</title>
<path fill="none" stroke="midnightblue" d="M807.081,-147.249C829.942,-134.018 864.804,-114.377 896,-99 909.383,-92.4036 924.347,-85.7198 937.561,-80.0445"/>
<polygon fill="midnightblue" stroke="midnightblue" points="805.24,-144.271 798.356,-152.325 808.76,-150.321 805.24,-144.271"/>
</g>
<!-- Node10 -->
<g id="node10" class="node"><title>Node10</title>
<g id="a_node10"><a xlink:href="classMWMechanics_1_1AiSequence.html#afcefe571332a2f759ce594c9e95c43ee" target="_top" xlink:title="Execute current package, switching if needed. ">
<polygon fill="white" stroke="black" points="1090,-50 1090,-80 1236,-80 1236,-50 1090,-50"/>
<text text-anchor="start" x="1098" y="-68" font-family="FreeSans" font-size="10.00">MWMechanics::AiSequence</text>
<text text-anchor="middle" x="1163" y="-57" font-family="FreeSans" font-size="10.00">::execute</text>
</a>
</g>
</g>
<!-- Node9&#45;&gt;Node10 -->
<g id="edge10" class="edge"><title>Node9&#45;&gt;Node10</title>
<path fill="none" stroke="midnightblue" d="M1063.78,-65C1072.54,-65 1081.37,-65 1089.95,-65"/>
<polygon fill="midnightblue" stroke="midnightblue" points="1063.53,-61.5001 1053.53,-65 1063.53,-68.5001 1063.53,-61.5001"/>
</g>
<!-- Node11 -->
<g id="node11" class="node"><title>Node11</title>
<g id="a_node11"><a xlink:href="classMWMechanics_1_1Actors.html#a1588180bba8597286a1db1389cee106e" target="_top" xlink:title="Update actor stats and store desired velocity vectors in movement. ">
<polygon fill="white" stroke="black" points="1281,-50 1281,-80 1401,-80 1401,-50 1281,-50"/>
<text text-anchor="start" x="1289" y="-68" font-family="FreeSans" font-size="10.00">MWMechanics::Actors</text>
<text text-anchor="middle" x="1341" y="-57" font-family="FreeSans" font-size="10.00">::update</text>
</a>
</g>
</g>
<!-- Node10&#45;&gt;Node11 -->
<g id="edge11" class="edge"><title>Node10&#45;&gt;Node11</title>
<path fill="none" stroke="midnightblue" d="M1246.3,-65C1257.98,-65 1269.79,-65 1280.91,-65"/>
<polygon fill="midnightblue" stroke="midnightblue" points="1246.09,-61.5001 1236.09,-65 1246.09,-68.5001 1246.09,-61.5001"/>
</g>
<!-- Node12 -->
<g id="node12" class="node"><title>Node12</title>
<g id="a_node12"><a xlink:href="classMWMechanics_1_1MechanicsManager.html#acf3c8c25fff52b890d0d6ced4b456459" target="_top" xlink:title="MWMechanics::MechanicsManager\l::update">
<polygon fill="white" stroke="black" points="1446,-50 1446,-80 1628,-80 1628,-50 1446,-50"/>
<text text-anchor="start" x="1454" y="-68" font-family="FreeSans" font-size="10.00">MWMechanics::MechanicsManager</text>
<text text-anchor="middle" x="1537" y="-57" font-family="FreeSans" font-size="10.00">::update</text>
</a>
</g>
</g>
<!-- Node11&#45;&gt;Node12 -->
<g id="edge12" class="edge"><title>Node11&#45;&gt;Node12</title>
<path fill="none" stroke="midnightblue" d="M1411.32,-65C1422.46,-65 1434.12,-65 1445.66,-65"/>
<polygon fill="midnightblue" stroke="midnightblue" points="1411.26,-61.5001 1401.26,-65 1411.26,-68.5001 1411.26,-61.5001"/>
</g>
<!-- Node13&#45;&gt;Node5 -->
<g id="edge14" class="edge"><title>Node13&#45;&gt;Node5</title>
<path fill="none" stroke="midnightblue" d="M840.414,-97.5612C859.352,-101.309 880.607,-105.516 900.497,-109.453"/>
<polygon fill="midnightblue" stroke="midnightblue" points="840.939,-94.0972 830.45,-95.589 839.58,-100.964 840.939,-94.0972"/>
</g>
<!-- Node13&#45;&gt;Node9 -->
<g id="edge15" class="edge"><title>Node13&#45;&gt;Node9</title>
<path fill="none" stroke="midnightblue" d="M870.241,-76.3486C878.934,-75.3979 887.711,-74.4378 896.287,-73.4999"/>
<polygon fill="midnightblue" stroke="midnightblue" points="869.654,-72.8919 860.094,-77.4585 870.415,-79.8504 869.654,-72.8919"/>
</g>
<!-- Node14&#45;&gt;Node5 -->
<g id="edge17" class="edge"><title>Node14&#45;&gt;Node5</title>
<path fill="none" stroke="midnightblue" d="M616.034,-63.1667C637.078,-76.7689 670.208,-95.9379 702,-105 767.327,-123.621 844.882,-127.336 900.43,-127.005"/>
<polygon fill="midnightblue" stroke="midnightblue" points="617.801,-60.1394 607.529,-57.5447 613.941,-65.9789 617.801,-60.1394"/>
</g>
<!-- Node14&#45;&gt;Node9 -->
<g id="edge18" class="edge"><title>Node14&#45;&gt;Node9</title>
<path fill="none" stroke="midnightblue" d="M676.624,-51.6963C741.911,-54.6171 832.382,-58.6644 896.345,-61.526"/>
<polygon fill="midnightblue" stroke="midnightblue" points="676.516,-48.1881 666.37,-51.2376 676.203,-55.1811 676.516,-48.1881"/>
</g>
<!-- Node15 -->
<g id="node15" class="node"><title>Node15</title>
<g id="a_node15"><a xlink:href="namespaceMWMechanics.html#a2c14c536d3440ca240707db7bf78b2ea" target="_top" xlink:title="MWMechanics::rateAmmo">
<polygon fill="white" stroke="black" points="710.5,-0.5 710.5,-19.5 851.5,-19.5 851.5,-0.5 710.5,-0.5"/>
<text text-anchor="middle" x="781" y="-7.5" font-family="FreeSans" font-size="10.00">MWMechanics::rateAmmo</text>
</a>
</g>
</g>
<!-- Node14&#45;&gt;Node15 -->
<g id="edge19" class="edge"><title>Node14&#45;&gt;Node15</title>
<path fill="none" stroke="midnightblue" d="M650.825,-36.3905C677.279,-30.986 708.358,-24.6365 733.402,-19.5201"/>
<polygon fill="midnightblue" stroke="midnightblue" points="650.033,-32.9801 640.936,-38.411 651.434,-39.8384 650.033,-32.9801"/>
</g>
<!-- Node15&#45;&gt;Node2 -->
<g id="edge22" class="edge"><title>Node15&#45;&gt;Node2</title>
<path fill="none" stroke="midnightblue" d="M700.289,-15.5989C593.552,-23.0962 406.074,-36.2647 306.152,-43.2832"/>
<polygon fill="midnightblue" stroke="midnightblue" points="700.631,-19.0836 710.361,-14.8915 700.14,-12.1008 700.631,-19.0836"/>
</g>
<!-- Node15&#45;&gt;Node5 -->
<g id="edge20" class="edge"><title>Node15&#45;&gt;Node5</title>
<path fill="none" stroke="midnightblue" d="M802.18,-25.6914C824.405,-42.559 861.568,-69.5636 896,-89 908.925,-96.2961 923.655,-103.233 936.806,-108.977"/>
<polygon fill="midnightblue" stroke="midnightblue" points="804.229,-22.8516 794.161,-19.5514 799.973,-28.4096 804.229,-22.8516"/>
</g>
<!-- Node15&#45;&gt;Node9 -->
<g id="edge21" class="edge"><title>Node15&#45;&gt;Node9</title>
<path fill="none" stroke="midnightblue" d="M825.121,-22.3523C853.62,-30.5162 891.157,-41.2688 921.408,-49.9346"/>
<polygon fill="midnightblue" stroke="midnightblue" points="826.021,-18.9695 815.444,-19.5803 824.093,-25.6988 826.021,-18.9695"/>
</g>
<!-- Node16 -->
<g id="node16" class="node"><title>Node16</title>
<g id="a_node16"><a xlink:href="namespaceMWMechanics.html#afb3891c89c0574755a4cbe5f94748ef1" target="_top" xlink:title="MWMechanics::rateAmmo">
<polygon fill="white" stroke="black" points="904.5,-0.5 904.5,-19.5 1045.5,-19.5 1045.5,-0.5 904.5,-0.5"/>
<text text-anchor="middle" x="975" y="-7.5" font-family="FreeSans" font-size="10.00">MWMechanics::rateAmmo</text>
</a>
</g>
</g>
<!-- Node15&#45;&gt;Node16 -->
<g id="edge23" class="edge"><title>Node15&#45;&gt;Node16</title>
<path fill="none" stroke="midnightblue" d="M861.771,-10C875.897,-10 890.507,-10 904.327,-10"/>
<polygon fill="midnightblue" stroke="midnightblue" points="861.588,-6.5001 851.588,-10 861.588,-13.5001 861.588,-6.5001"/>
</g>
</g>
</svg>
