<?xml version="1.0" encoding="UTF-8" standalone="no"?>
<!DOCTYPE svg PUBLIC "-//W3C//DTD SVG 1.1//EN"
 "http://www.w3.org/Graphics/SVG/1.1/DTD/svg11.dtd">
<!-- Generated by graphviz version 2.36.0 (20140111.2315)
 -->
<!-- Title: MWScript::Animation::installOpcodes Pages: 1 -->
<svg width="262pt" height="87pt"
 viewBox="0.00 0.00 262.00 87.00" xmlns="http://www.w3.org/2000/svg" xmlns:xlink="http://www.w3.org/1999/xlink">
<g id="graph0" class="graph" transform="scale(1 1) rotate(0) translate(4 83)">
<title>MWScript::Animation::installOpcodes</title>
<polygon fill="white" stroke="none" points="-4,4 -4,-83 258,-83 258,4 -4,4"/>
<!-- Node1 -->
<g id="node1" class="node"><title>Node1</title>
<polygon fill="#bfbfbf" stroke="black" points="0.5,-24 0.5,-54 107.5,-54 107.5,-24 0.5,-24"/>
<text text-anchor="start" x="8.5" y="-42" font-family="FreeSans" font-size="10.00">MWScript::Animation</text>
<text text-anchor="middle" x="54" y="-31" font-family="FreeSans" font-size="10.00">::installOpcodes</text>
</g>
<!-- Node2 -->
<g id="node2" class="node"><title>Node2</title>
<g id="a_node2"><a xlink:href="classInterpreter_1_1Interpreter.html#a756be5f8adce192e94fd1e74b4bc5341" target="_top" xlink:title="ownership of opcode is transferred to *this. ">
<polygon fill="white" stroke="black" points="144,-49 144,-79 254,-79 254,-49 144,-49"/>
<text text-anchor="start" x="152" y="-67" font-family="FreeSans" font-size="10.00">Interpreter::Interpreter</text>
<text text-anchor="middle" x="199" y="-56" font-family="FreeSans" font-size="10.00">::installSegment5</text>
</a>
</g>
</g>
<!-- Node1&#45;&gt;Node2 -->
<g id="edge1" class="edge"><title>Node1&#45;&gt;Node2</title>
<path fill="none" stroke="midnightblue" d="M107.842,-48.238C116.305,-49.7177 125.143,-51.2628 133.835,-52.7824"/>
<polygon fill="midnightblue" stroke="midnightblue" points="133.488,-56.2746 143.941,-54.5491 134.693,-49.3792 133.488,-56.2746"/>
</g>
<!-- Node3 -->
<g id="node3" class="node"><title>Node3</title>
<g id="a_node3"><a xlink:href="classInterpreter_1_1Interpreter.html#a119ae14177542531a842b331ad941a88" target="_top" xlink:title="ownership of opcode is transferred to *this. ">
<polygon fill="white" stroke="black" points="144,-0 144,-30 254,-30 254,-0 144,-0"/>
<text text-anchor="start" x="152" y="-18" font-family="FreeSans" font-size="10.00">Interpreter::Interpreter</text>
<text text-anchor="middle" x="199" y="-7" font-family="FreeSans" font-size="10.00">::installSegment3</text>
</a>
</g>
</g>
<!-- Node1&#45;&gt;Node3 -->
<g id="edge2" class="edge"><title>Node1&#45;&gt;Node3</title>
<path fill="none" stroke="midnightblue" d="M107.842,-30.1315C116.305,-28.7111 125.143,-27.2277 133.835,-25.7689"/>
<polygon fill="midnightblue" stroke="midnightblue" points="134.658,-29.1798 143.941,-24.0728 133.5,-22.2764 134.658,-29.1798"/>
</g>
</g>
</svg>
