<?xml version="1.0" encoding="UTF-8" standalone="no"?>
<!DOCTYPE svg PUBLIC "-//W3C//DTD SVG 1.1//EN"
 "http://www.w3.org/Graphics/SVG/1.1/DTD/svg11.dtd">
<!-- Generated by graphviz version 2.36.0 (20140111.2315)
 -->
<!-- Title: MWMechanics::applyElementalShields Pages: 1 -->
<svg width="748pt" height="1108pt"
 viewBox="0.00 0.00 748.00 1108.00" xmlns="http://www.w3.org/2000/svg" xmlns:xlink="http://www.w3.org/1999/xlink">
<g id="graph0" class="graph" transform="scale(1 1) rotate(0) translate(4 1104)">
<title>MWMechanics::applyElementalShields</title>
<polygon fill="white" stroke="none" points="-4,4 -4,-1104 744,-1104 744,4 -4,4"/>
<!-- Node1 -->
<g id="node1" class="node"><title>Node1</title>
<polygon fill="#bfbfbf" stroke="black" points="0,-597 0,-627 150,-627 150,-597 0,-597"/>
<text text-anchor="start" x="8" y="-615" font-family="FreeSans" font-size="10.00">MWMechanics::applyElemental</text>
<text text-anchor="middle" x="75" y="-604" font-family="FreeSans" font-size="10.00">Shields</text>
</g>
<!-- Node2 -->
<g id="node2" class="node"><title>Node2</title>
<g id="a_node2"><a xlink:href="classMWWorld_1_1Ptr.html#aa2ac4a5579cd19eaa780596f4543ea46" target="_top" xlink:title="MWWorld::Ptr::getClass">
<polygon fill="white" stroke="black" points="212.5,-1080.5 212.5,-1099.5 329.5,-1099.5 329.5,-1080.5 212.5,-1080.5"/>
<text text-anchor="middle" x="271" y="-1087.5" font-family="FreeSans" font-size="10.00">MWWorld::Ptr::getClass</text>
</a>
</g>
</g>
<!-- Node1&#45;&gt;Node2 -->
<g id="edge1" class="edge"><title>Node1&#45;&gt;Node2</title>
<path fill="none" stroke="midnightblue" d="M77.5331,-627.181C85.0992,-699.112 120.74,-1004.87 186,-1070 190.848,-1074.84 196.641,-1078.59 202.887,-1081.48"/>
<polygon fill="midnightblue" stroke="midnightblue" points="201.716,-1084.78 212.305,-1085.13 204.249,-1078.25 201.716,-1084.78"/>
</g>
<!-- Node3 -->
<g id="node3" class="node"><title>Node3</title>
<g id="a_node3"><a xlink:href="classMWWorld_1_1Class.html#a5095a30e5baa5742b3d393610fd73d60" target="_top" xlink:title="MWWorld::Class::getCreature\lStats">
<polygon fill="white" stroke="black" points="200.5,-1031 200.5,-1061 341.5,-1061 341.5,-1031 200.5,-1031"/>
<text text-anchor="start" x="208.5" y="-1049" font-family="FreeSans" font-size="10.00">MWWorld::Class::getCreature</text>
<text text-anchor="middle" x="271" y="-1038" font-family="FreeSans" font-size="10.00">Stats</text>
</a>
</g>
</g>
<!-- Node1&#45;&gt;Node3 -->
<g id="edge2" class="edge"><title>Node1&#45;&gt;Node3</title>
<path fill="none" stroke="midnightblue" d="M78.0967,-627.256C87.6012,-694.309 128.673,-962.131 186,-1021 187.811,-1022.86 189.754,-1024.58 191.803,-1026.18"/>
<polygon fill="midnightblue" stroke="midnightblue" points="189.909,-1029.12 200.179,-1031.73 193.775,-1023.29 189.909,-1029.12"/>
</g>
<!-- Node4 -->
<g id="node4" class="node"><title>Node4</title>
<g id="a_node4"><a xlink:href="classMWMechanics_1_1CreatureStats.html#a2b7019ffe2ea9ecaace020bd12845e68" target="_top" xlink:title="MWMechanics::CreatureStats\l::getMagicEffects">
<polygon fill="white" stroke="black" points="199,-982 199,-1012 343,-1012 343,-982 199,-982"/>
<text text-anchor="start" x="207" y="-1000" font-family="FreeSans" font-size="10.00">MWMechanics::CreatureStats</text>
<text text-anchor="middle" x="271" y="-989" font-family="FreeSans" font-size="10.00">::getMagicEffects</text>
</a>
</g>
</g>
<!-- Node1&#45;&gt;Node4 -->
<g id="edge3" class="edge"><title>Node1&#45;&gt;Node4</title>
<path fill="none" stroke="midnightblue" d="M76.1359,-627.168C77.4455,-681.124 89.1231,-865.911 186,-967 189.591,-970.747 193.682,-974.027 198.079,-976.899"/>
<polygon fill="midnightblue" stroke="midnightblue" points="196.447,-979.997 206.864,-981.932 199.927,-973.924 196.447,-979.997"/>
</g>
<!-- Node5 -->
<g id="node5" class="node"><title>Node5</title>
<g id="a_node5"><a xlink:href="classMWMechanics_1_1MagicEffects.html#aa9771d1e0e2d3fa1378fc3bb0c338a28" target="_top" xlink:title="This function can safely be used for keys that are not present. ">
<polygon fill="white" stroke="black" points="392,-890.5 392,-909.5 550,-909.5 550,-890.5 392,-890.5"/>
<text text-anchor="middle" x="471" y="-897.5" font-family="FreeSans" font-size="10.00">MWMechanics::MagicEffects::get</text>
</a>
</g>
</g>
<!-- Node1&#45;&gt;Node5 -->
<g id="edge4" class="edge"><title>Node1&#45;&gt;Node5</title>
<path fill="none" stroke="midnightblue" d="M75.8378,-627.128C76.2029,-679.069 85.2432,-850.84 186,-922 263.738,-976.902 385.09,-936.828 440.553,-913.546"/>
<polygon fill="midnightblue" stroke="midnightblue" points="442.009,-916.73 449.807,-909.558 439.238,-910.301 442.009,-916.73"/>
</g>
<!-- Node6 -->
<g id="node6" class="node"><title>Node6</title>
<g id="a_node6"><a xlink:href="structMWMechanics_1_1EffectParam.html#a1bb9e5f90a32bab2fa1d7e5d08360a51" target="_top" xlink:title="Get the total magnitude including base and modifier. ">
<polygon fill="white" stroke="black" points="402.5,-807 402.5,-837 539.5,-837 539.5,-807 402.5,-807"/>
<text text-anchor="start" x="410.5" y="-825" font-family="FreeSans" font-size="10.00">MWMechanics::EffectParam</text>
<text text-anchor="middle" x="471" y="-814" font-family="FreeSans" font-size="10.00">::getMagnitude</text>
</a>
</g>
</g>
<!-- Node1&#45;&gt;Node6 -->
<g id="edge5" class="edge"><title>Node1&#45;&gt;Node6</title>
<path fill="none" stroke="midnightblue" d="M76.3731,-627.261C78.5031,-676.56 92.652,-832.051 186,-896 248.332,-938.701 283.554,-917.452 356,-896 390.306,-885.842 423.966,-861.756 445.711,-843.806"/>
<polygon fill="midnightblue" stroke="midnightblue" points="448.064,-846.399 453.438,-837.268 443.543,-841.055 448.064,-846.399"/>
</g>
<!-- Node7 -->
<g id="node7" class="node"><title>Node7</title>
<g id="a_node7"><a xlink:href="classMWWorld_1_1Class.html#a34eba4af23abc1b06b41fc93bf816b5c" target="_top" xlink:title="MWWorld::Class::getSkill">
<polygon fill="white" stroke="black" points="209.5,-867.5 209.5,-886.5 332.5,-886.5 332.5,-867.5 209.5,-867.5"/>
<text text-anchor="middle" x="271" y="-874.5" font-family="FreeSans" font-size="10.00">MWWorld::Class::getSkill</text>
</a>
</g>
</g>
<!-- Node1&#45;&gt;Node7 -->
<g id="edge6" class="edge"><title>Node1&#45;&gt;Node7</title>
<path fill="none" stroke="midnightblue" d="M78.1205,-627.15C84.9925,-670.298 110.744,-794.728 186,-857 190.259,-860.524 195.034,-863.448 200.088,-865.871"/>
<polygon fill="midnightblue" stroke="midnightblue" points="198.855,-869.149 209.434,-869.714 201.517,-862.675 198.855,-869.149"/>
</g>
<!-- Node8 -->
<g id="node8" class="node"><title>Node8</title>
<g id="a_node8"><a xlink:href="classMWMechanics_1_1CreatureStats.html#a4c54d8a712b5e278a0931b368b6bd0df" target="_top" xlink:title="MWMechanics::CreatureStats\l::getAttribute">
<polygon fill="white" stroke="black" points="199,-818 199,-848 343,-848 343,-818 199,-818"/>
<text text-anchor="start" x="207" y="-836" font-family="FreeSans" font-size="10.00">MWMechanics::CreatureStats</text>
<text text-anchor="middle" x="271" y="-825" font-family="FreeSans" font-size="10.00">::getAttribute</text>
</a>
</g>
</g>
<!-- Node1&#45;&gt;Node8 -->
<g id="edge7" class="edge"><title>Node1&#45;&gt;Node8</title>
<path fill="none" stroke="midnightblue" d="M80.1553,-627.093C91.0502,-663.812 123.973,-758.421 186,-808 188.284,-809.826 190.699,-811.518 193.212,-813.087"/>
<polygon fill="midnightblue" stroke="midnightblue" points="191.635,-816.215 202.085,-817.96 195.004,-810.079 191.635,-816.215"/>
</g>
<!-- Node9 -->
<g id="node9" class="node"><title>Node9</title>
<g id="a_node9"><a xlink:href="classMWMechanics_1_1AttributeValue.html#a3e84af12530d0e2cf3a45b25fa9b4fc8" target="_top" xlink:title="MWMechanics::AttributeValue\l::getModified">
<polygon fill="white" stroke="black" points="198,-769 198,-799 344,-799 344,-769 198,-769"/>
<text text-anchor="start" x="206" y="-787" font-family="FreeSans" font-size="10.00">MWMechanics::AttributeValue</text>
<text text-anchor="middle" x="271" y="-776" font-family="FreeSans" font-size="10.00">::getModified</text>
</a>
</g>
</g>
<!-- Node1&#45;&gt;Node9 -->
<g id="edge8" class="edge"><title>Node1&#45;&gt;Node9</title>
<path fill="none" stroke="midnightblue" d="M83.0753,-627.007C97.8773,-656.768 135.012,-723.452 186,-759 188.746,-760.914 191.64,-762.684 194.637,-764.321"/>
<polygon fill="midnightblue" stroke="midnightblue" points="193.369,-767.596 203.89,-768.839 196.44,-761.306 193.369,-767.596"/>
</g>
<!-- Node10 -->
<g id="node10" class="node"><title>Node10</title>
<g id="a_node10"><a xlink:href="classMWMechanics_1_1CreatureStats.html#ae962c8518e43e517e2aec4d89a5aafe2" target="_top" xlink:title="MWMechanics::CreatureStats\l::getFatigue">
<polygon fill="white" stroke="black" points="199,-720 199,-750 343,-750 343,-720 199,-720"/>
<text text-anchor="start" x="207" y="-738" font-family="FreeSans" font-size="10.00">MWMechanics::CreatureStats</text>
<text text-anchor="middle" x="271" y="-727" font-family="FreeSans" font-size="10.00">::getFatigue</text>
</a>
</g>
</g>
<!-- Node1&#45;&gt;Node10 -->
<g id="edge9" class="edge"><title>Node1&#45;&gt;Node10</title>
<path fill="none" stroke="midnightblue" d="M89.0149,-627.215C108.164,-648.678 146.01,-687.709 186,-710 189.919,-712.184 194.049,-714.197 198.29,-716.049"/>
<polygon fill="midnightblue" stroke="midnightblue" points="197.129,-719.355 207.712,-719.85 199.748,-712.863 197.129,-719.355"/>
</g>
<!-- Node11 -->
<g id="node11" class="node"><title>Node11</title>
<g id="a_node11"><a xlink:href="classMWMechanics_1_1DynamicStat.html#a5341e59c91e5cc6782ef8f8fa1177bda" target="_top" xlink:title="MWMechanics::DynamicStat\l::getModified">
<polygon fill="white" stroke="black" points="201,-671 201,-701 341,-701 341,-671 201,-671"/>
<text text-anchor="start" x="209" y="-689" font-family="FreeSans" font-size="10.00">MWMechanics::DynamicStat</text>
<text text-anchor="middle" x="271" y="-678" font-family="FreeSans" font-size="10.00">::getModified</text>
</a>
</g>
</g>
<!-- Node1&#45;&gt;Node11 -->
<g id="edge10" class="edge"><title>Node1&#45;&gt;Node11</title>
<path fill="none" stroke="midnightblue" d="M106.848,-627.034C128.657,-637.342 158.744,-650.922 186,-661 192.328,-663.34 198.985,-665.619 205.666,-667.789"/>
<polygon fill="midnightblue" stroke="midnightblue" points="204.846,-671.201 215.436,-670.884 206.96,-664.527 204.846,-671.201"/>
</g>
<!-- Node12 -->
<g id="node12" class="node"><title>Node12</title>
<g id="a_node12"><a xlink:href="classMWMechanics_1_1DynamicStat.html#a396a1a67b23dde7489b7afa6bcdc2dee" target="_top" xlink:title="MWMechanics::DynamicStat\l::getCurrent">
<polygon fill="white" stroke="black" points="201,-622 201,-652 341,-652 341,-622 201,-622"/>
<text text-anchor="start" x="209" y="-640" font-family="FreeSans" font-size="10.00">MWMechanics::DynamicStat</text>
<text text-anchor="middle" x="271" y="-629" font-family="FreeSans" font-size="10.00">::getCurrent</text>
</a>
</g>
</g>
<!-- Node1&#45;&gt;Node12 -->
<g id="edge11" class="edge"><title>Node1&#45;&gt;Node12</title>
<path fill="none" stroke="midnightblue" d="M150.173,-621.558C163.471,-623.272 177.375,-625.064 190.807,-626.795"/>
<polygon fill="midnightblue" stroke="midnightblue" points="190.604,-630.297 200.969,-628.104 191.498,-623.355 190.604,-630.297"/>
</g>
<!-- Node13 -->
<g id="node13" class="node"><title>Node13</title>
<g id="a_node13"><a xlink:href="classMisc_1_1Rng.html#aec419b288e293d8e9a64eccbc96713f1" target="_top" xlink:title="return value in range [0, 99] ">
<polygon fill="white" stroke="black" points="221,-534.5 221,-553.5 321,-553.5 321,-534.5 221,-534.5"/>
<text text-anchor="middle" x="271" y="-541.5" font-family="FreeSans" font-size="10.00">Misc::Rng::roll0to99</text>
</a>
</g>
</g>
<!-- Node1&#45;&gt;Node13 -->
<g id="edge12" class="edge"><title>Node1&#45;&gt;Node13</title>
<path fill="none" stroke="midnightblue" d="M105.714,-596.846C127.497,-586.215 158.026,-572.294 186,-563 193.955,-560.357 202.454,-557.961 210.878,-555.829"/>
<polygon fill="midnightblue" stroke="midnightblue" points="211.8,-559.207 220.694,-553.45 210.151,-552.404 211.8,-559.207"/>
</g>
<!-- Node15 -->
<g id="node15" class="node"><title>Node15</title>
<g id="a_node15"><a xlink:href="namespaceMWMechanics.html#a26dac939f455e243fb82cd01cbc926b7" target="_top" xlink:title="MWMechanics::getEffectResistance\lAttribute">
<polygon fill="white" stroke="black" points="186,-573 186,-603 356,-603 356,-573 186,-573"/>
<text text-anchor="start" x="194" y="-591" font-family="FreeSans" font-size="10.00">MWMechanics::getEffectResistance</text>
<text text-anchor="middle" x="271" y="-580" font-family="FreeSans" font-size="10.00">Attribute</text>
</a>
</g>
</g>
<!-- Node1&#45;&gt;Node15 -->
<g id="edge14" class="edge"><title>Node1&#45;&gt;Node15</title>
<path fill="none" stroke="midnightblue" d="M150.173,-602.824C158.554,-601.787 167.175,-600.721 175.767,-599.658"/>
<polygon fill="midnightblue" stroke="midnightblue" points="176.329,-603.115 185.824,-598.414 175.47,-596.168 176.329,-603.115"/>
</g>
<!-- Node18 -->
<g id="node18" class="node"><title>Node18</title>
<g id="a_node18"><a xlink:href="classMWBase_1_1Environment.html#a73f12633762b049c03c80fe215873faa" target="_top" xlink:title="Return instance of this class. ">
<polygon fill="white" stroke="black" points="597.5,-373.5 597.5,-392.5 728.5,-392.5 728.5,-373.5 597.5,-373.5"/>
<text text-anchor="middle" x="663" y="-380.5" font-family="FreeSans" font-size="10.00">MWBase::Environment::get</text>
</a>
</g>
</g>
<!-- Node1&#45;&gt;Node18 -->
<g id="edge19" class="edge"><title>Node1&#45;&gt;Node18</title>
<path fill="none" stroke="midnightblue" d="M77.0253,-596.864C81.0814,-550.006 100.298,-406.556 186,-341 314.798,-242.478 393.697,-272.817 550,-316 585.895,-325.917 621.864,-350.716 643.017,-367.201"/>
<polygon fill="midnightblue" stroke="midnightblue" points="640.88,-369.974 650.877,-373.481 645.249,-364.505 640.88,-369.974"/>
</g>
<!-- Node19 -->
<g id="node19" class="node"><title>Node19</title>
<g id="a_node19"><a xlink:href="classMWBase_1_1Environment.html#ae14e166d8f5ff8629be119333d502660" target="_top" xlink:title="MWBase::Environment\l::getWorld">
<polygon fill="white" stroke="black" points="606.5,-281 606.5,-311 719.5,-311 719.5,-281 606.5,-281"/>
<text text-anchor="start" x="614.5" y="-299" font-family="FreeSans" font-size="10.00">MWBase::Environment</text>
<text text-anchor="middle" x="663" y="-288" font-family="FreeSans" font-size="10.00">::getWorld</text>
</a>
</g>
</g>
<!-- Node1&#45;&gt;Node19 -->
<g id="edge20" class="edge"><title>Node1&#45;&gt;Node19</title>
<path fill="none" stroke="midnightblue" d="M75.329,-596.673C73.8549,-541.502 77.1396,-352.125 186,-273 249.584,-226.785 481.02,-261.847 596.103,-282.992"/>
<polygon fill="midnightblue" stroke="midnightblue" points="595.727,-286.482 606.198,-284.866 597.005,-279.6 595.727,-286.482"/>
</g>
<!-- Node20 -->
<g id="node20" class="node"><title>Node20</title>
<g id="a_node20"><a xlink:href="classMWBase_1_1World.html#a2ba0910cb944786065e37dc5f3fcda35" target="_top" xlink:title="MWBase::World::getStore">
<polygon fill="white" stroke="black" points="408,-527.5 408,-546.5 534,-546.5 534,-527.5 408,-527.5"/>
<text text-anchor="middle" x="471" y="-534.5" font-family="FreeSans" font-size="10.00">MWBase::World::getStore</text>
</a>
</g>
</g>
<!-- Node1&#45;&gt;Node20 -->
<g id="edge21" class="edge"><title>Node1&#45;&gt;Node20</title>
<path fill="none" stroke="midnightblue" d="M85.2313,-596.952C101.756,-571.646 139.091,-521.43 186,-502 255.804,-473.086 281.912,-487.182 356,-502 372.997,-505.399 375.562,-511.5 392,-517 400.38,-519.804 409.377,-522.443 418.176,-524.827"/>
<polygon fill="midnightblue" stroke="midnightblue" points="417.421,-528.247 427.982,-527.405 419.201,-521.477 417.421,-528.247"/>
</g>
<!-- Node21 -->
<g id="node21" class="node"><title>Node21</title>
<g id="a_node21"><a xlink:href="classMWWorld_1_1ESMStore.html#a94ffe201bd012dd41fcdabfb35c69e24" target="_top" xlink:title="MWWorld::ESMStore::get">
<polygon fill="white" stroke="black" points="408.5,-325.5 408.5,-344.5 533.5,-344.5 533.5,-325.5 408.5,-325.5"/>
<text text-anchor="middle" x="471" y="-332.5" font-family="FreeSans" font-size="10.00">MWWorld::ESMStore::get</text>
</a>
</g>
</g>
<!-- Node1&#45;&gt;Node21 -->
<g id="edge22" class="edge"><title>Node1&#45;&gt;Node21</title>
<path fill="none" stroke="midnightblue" d="M79.9549,-596.798C90.4931,-559.34 122.847,-461.962 186,-411 246.672,-362.04 336.049,-344.449 398.277,-338.223"/>
<polygon fill="midnightblue" stroke="midnightblue" points="398.772,-341.692 408.407,-337.286 398.127,-334.722 398.772,-341.692"/>
</g>
<!-- Node22 -->
<g id="node22" class="node"><title>Node22</title>
<g id="a_node22"><a xlink:href="structESM_1_1GameSetting.html#adf86d0e6166ce3e4ec8a75ab31380344" target="_top" xlink:title="Throws an exception if GMST is not of type int or float. ">
<polygon fill="white" stroke="black" points="401.5,-565.5 401.5,-584.5 540.5,-584.5 540.5,-565.5 401.5,-565.5"/>
<text text-anchor="middle" x="471" y="-572.5" font-family="FreeSans" font-size="10.00">ESM::GameSetting::getFloat</text>
</a>
</g>
</g>
<!-- Node1&#45;&gt;Node22 -->
<g id="edge23" class="edge"><title>Node1&#45;&gt;Node22</title>
<path fill="none" stroke="midnightblue" d="M89.0116,-596.656C107.874,-575.734 145.063,-539.232 186,-525 257.366,-500.189 285.168,-498.705 356,-525 375.795,-532.348 373.222,-546.345 392,-556 396.608,-558.369 401.521,-560.451 406.556,-562.279"/>
<polygon fill="midnightblue" stroke="midnightblue" points="405.744,-565.696 416.337,-565.489 407.927,-559.045 405.744,-565.696"/>
</g>
<!-- Node24 -->
<g id="node24" class="node"><title>Node24</title>
<g id="a_node24"><a xlink:href="difficultyscaling_8cpp.html#a4bf9cf7ca28d79bc217be0695dcf3a67" target="_top" xlink:title="Scales damage dealt to an actor based on difficulty setting. ">
<polygon fill="white" stroke="black" points="233.5,-420.5 233.5,-439.5 308.5,-439.5 308.5,-420.5 233.5,-420.5"/>
<text text-anchor="middle" x="271" y="-427.5" font-family="FreeSans" font-size="10.00">scaleDamage</text>
</a>
</g>
</g>
<!-- Node1&#45;&gt;Node24 -->
<g id="edge25" class="edge"><title>Node1&#45;&gt;Node24</title>
<path fill="none" stroke="midnightblue" d="M82.2986,-596.792C96.1671,-565.21 132.428,-492.283 186,-454 197.013,-446.13 210.557,-440.83 223.529,-437.265"/>
<polygon fill="midnightblue" stroke="midnightblue" points="224.411,-440.652 233.285,-434.863 222.738,-433.855 224.411,-440.652"/>
</g>
<!-- Node30 -->
<g id="node30" class="node"><title>Node30</title>
<g id="a_node30"><a xlink:href="classMWMechanics_1_1CreatureStats.html#a1c6f3d56e990e9ab329b7cc52a4947c8" target="_top" xlink:title="MWMechanics::CreatureStats\l::getHealth">
<polygon fill="white" stroke="black" points="199,-200 199,-230 343,-230 343,-200 199,-200"/>
<text text-anchor="start" x="207" y="-218" font-family="FreeSans" font-size="10.00">MWMechanics::CreatureStats</text>
<text text-anchor="middle" x="271" y="-207" font-family="FreeSans" font-size="10.00">::getHealth</text>
</a>
</g>
</g>
<!-- Node1&#45;&gt;Node30 -->
<g id="edge38" class="edge"><title>Node1&#45;&gt;Node30</title>
<path fill="none" stroke="midnightblue" d="M75.9564,-596.714C76.636,-541.47 86.3861,-349.914 186,-245 189.574,-241.236 193.651,-237.944 198.04,-235.064"/>
<polygon fill="midnightblue" stroke="midnightblue" points="199.888,-238.038 206.811,-230.018 196.398,-231.97 199.888,-238.038"/>
</g>
<!-- Node31 -->
<g id="node31" class="node"><title>Node31</title>
<g id="a_node31"><a xlink:href="classMWMechanics_1_1DynamicStat.html#abb00fb02a2face04357f86ec5117d2ec" target="_top" xlink:title="MWMechanics::DynamicStat\l::setCurrent">
<polygon fill="white" stroke="black" points="593,-186 593,-216 733,-216 733,-186 593,-186"/>
<text text-anchor="start" x="601" y="-204" font-family="FreeSans" font-size="10.00">MWMechanics::DynamicStat</text>
<text text-anchor="middle" x="663" y="-193" font-family="FreeSans" font-size="10.00">::setCurrent</text>
</a>
</g>
</g>
<!-- Node1&#45;&gt;Node31 -->
<g id="edge39" class="edge"><title>Node1&#45;&gt;Node31</title>
<path fill="none" stroke="midnightblue" d="M77.532,-596.765C84.8556,-527.326 118.752,-241.966 186,-190 245.821,-143.773 463.176,-169.223 582.398,-187.521"/>
<polygon fill="midnightblue" stroke="midnightblue" points="582.148,-191.024 592.566,-189.1 583.222,-184.107 582.148,-191.024"/>
</g>
<!-- Node32 -->
<g id="node32" class="node"><title>Node32</title>
<g id="a_node32"><a xlink:href="classMWMechanics_1_1CreatureStats.html#ac2dce1e426c133341b70c14b850e1cf5" target="_top" xlink:title="MWMechanics::CreatureStats\l::setHealth">
<polygon fill="white" stroke="black" points="199,-112 199,-142 343,-142 343,-112 199,-112"/>
<text text-anchor="start" x="207" y="-130" font-family="FreeSans" font-size="10.00">MWMechanics::CreatureStats</text>
<text text-anchor="middle" x="271" y="-119" font-family="FreeSans" font-size="10.00">::setHealth</text>
</a>
</g>
</g>
<!-- Node1&#45;&gt;Node32 -->
<g id="edge40" class="edge"><title>Node1&#45;&gt;Node32</title>
<path fill="none" stroke="midnightblue" d="M77.7588,-596.59C86.2204,-524.94 124.86,-224.977 186,-157 189.259,-153.377 192.986,-150.191 197.016,-147.39"/>
<polygon fill="midnightblue" stroke="midnightblue" points="198.916,-150.332 205.664,-142.164 195.295,-144.341 198.916,-150.332"/>
</g>
<!-- Node14 -->
<g id="node14" class="node"><title>Node14</title>
<g id="a_node14"><a xlink:href="classMisc_1_1Rng.html#aea7920431866f89996a152900e5d4208" target="_top" xlink:title="return value in range [0, max) &lt;&#45; note open upper range. ">
<polygon fill="white" stroke="black" points="423.5,-603.5 423.5,-622.5 518.5,-622.5 518.5,-603.5 423.5,-603.5"/>
<text text-anchor="middle" x="471" y="-610.5" font-family="FreeSans" font-size="10.00">Misc::Rng::rollDice</text>
</a>
</g>
</g>
<!-- Node13&#45;&gt;Node14 -->
<g id="edge13" class="edge"><title>Node13&#45;&gt;Node14</title>
<path fill="none" stroke="midnightblue" d="M321.37,-550.962C333.109,-553.745 345.318,-557.618 356,-563 374.857,-572.5 373.222,-584.345 392,-594 398.722,-597.456 406.097,-600.301 413.546,-602.638"/>
<polygon fill="midnightblue" stroke="midnightblue" points="412.757,-606.053 423.333,-605.427 414.675,-599.32 412.757,-606.053"/>
</g>
<!-- Node15&#45;&gt;Node5 -->
<g id="edge17" class="edge"><title>Node15&#45;&gt;Node5</title>
<path fill="none" stroke="midnightblue" d="M345.774,-603.109C349.534,-605.644 352.991,-608.587 356,-612 425.586,-690.929 336.2,-756.79 392,-846 402.879,-863.392 421.636,-876.644 438.03,-885.666"/>
<polygon fill="midnightblue" stroke="midnightblue" points="436.843,-888.993 447.332,-890.489 440.065,-882.779 436.843,-888.993"/>
</g>
<!-- Node15&#45;&gt;Node6 -->
<g id="edge18" class="edge"><title>Node15&#45;&gt;Node6</title>
<path fill="none" stroke="midnightblue" d="M344.438,-603.157C348.628,-605.673 352.538,-608.599 356,-612 395.115,-650.424 365.728,-681.873 392,-730 406.356,-756.299 429.031,-781.941 446.241,-799.444"/>
<polygon fill="midnightblue" stroke="midnightblue" points="444.159,-802.309 453.715,-806.886 449.099,-797.349 444.159,-802.309"/>
</g>
<!-- Node16 -->
<g id="node16" class="node"><title>Node16</title>
<g id="a_node16"><a xlink:href="structESM_1_1MagicEffect.html#aae709a791e95c8772d0a0cd2efc3821e" target="_top" xlink:title="Returns the effect that provides resistance against effect (or &#45;1 if there&#39;s none) ...">
<polygon fill="white" stroke="black" points="392,-691 392,-721 550,-721 550,-691 392,-691"/>
<text text-anchor="start" x="400" y="-709" font-family="FreeSans" font-size="10.00">ESM::MagicEffect::getResistance</text>
<text text-anchor="middle" x="471" y="-698" font-family="FreeSans" font-size="10.00">Effect</text>
</a>
</g>
</g>
<!-- Node15&#45;&gt;Node16 -->
<g id="edge15" class="edge"><title>Node15&#45;&gt;Node16</title>
<path fill="none" stroke="midnightblue" d="M342.109,-603.064C347.066,-605.595 351.769,-608.549 356,-612 382.806,-633.86 365.545,-658.716 392,-681 393.998,-682.683 396.112,-684.254 398.313,-685.719"/>
<polygon fill="midnightblue" stroke="midnightblue" points="396.779,-688.875 407.186,-690.864 400.291,-682.82 396.779,-688.875"/>
</g>
<!-- Node17 -->
<g id="node17" class="node"><title>Node17</title>
<g id="a_node17"><a xlink:href="structESM_1_1MagicEffect.html#a81f7fa57c459a3454c10fb513ed3328f" target="_top" xlink:title="Returns the effect that induces weakness against effect (or &#45;1 if there&#39;s none) ">
<polygon fill="white" stroke="black" points="393.5,-642 393.5,-672 548.5,-672 548.5,-642 393.5,-642"/>
<text text-anchor="start" x="401.5" y="-660" font-family="FreeSans" font-size="10.00">ESM::MagicEffect::getWeakness</text>
<text text-anchor="middle" x="471" y="-649" font-family="FreeSans" font-size="10.00">Effect</text>
</a>
</g>
</g>
<!-- Node15&#45;&gt;Node17 -->
<g id="edge16" class="edge"><title>Node15&#45;&gt;Node17</title>
<path fill="none" stroke="midnightblue" d="M331.332,-603.106C339.72,-605.773 348.153,-608.75 356,-612 372.91,-619.004 375.204,-624.727 392,-632 397.267,-634.281 402.811,-636.463 408.416,-638.523"/>
<polygon fill="midnightblue" stroke="midnightblue" points="407.27,-641.83 417.865,-641.867 409.605,-635.231 407.27,-641.83"/>
</g>
<!-- Node23 -->
<g id="node23" class="node"><title>Node23</title>
<g id="a_node23"><a xlink:href="classESM_1_1Variant.html#aea165a94a08dac002c27cdf5784fabc7" target="_top" xlink:title="Will throw an exception, if value can not be represented as a float value. ">
<polygon fill="white" stroke="black" points="607,-570.5 607,-589.5 719,-589.5 719,-570.5 607,-570.5"/>
<text text-anchor="middle" x="663" y="-577.5" font-family="FreeSans" font-size="10.00">ESM::Variant::getFloat</text>
</a>
</g>
</g>
<!-- Node22&#45;&gt;Node23 -->
<g id="edge24" class="edge"><title>Node22&#45;&gt;Node23</title>
<path fill="none" stroke="midnightblue" d="M540.594,-576.805C558.895,-577.287 578.616,-577.806 596.732,-578.282"/>
<polygon fill="midnightblue" stroke="midnightblue" points="596.812,-581.786 606.901,-578.55 596.996,-574.788 596.812,-581.786"/>
</g>
<!-- Node24&#45;&gt;Node18 -->
<g id="edge33" class="edge"><title>Node24&#45;&gt;Node18</title>
<path fill="none" stroke="midnightblue" d="M308.69,-425.578C372.218,-417.922 503.884,-402.055 587.316,-392"/>
<polygon fill="midnightblue" stroke="midnightblue" points="587.986,-395.445 597.495,-390.774 587.148,-388.495 587.986,-395.445"/>
</g>
<!-- Node24&#45;&gt;Node19 -->
<g id="edge34" class="edge"><title>Node24&#45;&gt;Node19</title>
<path fill="none" stroke="midnightblue" d="M301.451,-420.405C325.659,-412.642 360.908,-401.623 392,-393 461.699,-373.67 482.305,-379.474 550,-354 577.257,-343.743 606.423,-328.489 628.156,-316.198"/>
<polygon fill="midnightblue" stroke="midnightblue" points="630.054,-319.145 636.989,-311.135 626.572,-313.072 630.054,-319.145"/>
</g>
<!-- Node24&#45;&gt;Node20 -->
<g id="edge35" class="edge"><title>Node24&#45;&gt;Node20</title>
<path fill="none" stroke="midnightblue" d="M308.724,-434.2C324.566,-437.509 342.513,-443.425 356,-454 381.378,-473.899 366.353,-497.449 392,-517 395.012,-519.296 398.261,-521.33 401.661,-523.132"/>
<polygon fill="midnightblue" stroke="midnightblue" points="400.411,-526.409 410.961,-527.38 403.319,-520.042 400.411,-526.409"/>
</g>
<!-- Node24&#45;&gt;Node21 -->
<g id="edge36" class="edge"><title>Node24&#45;&gt;Node21</title>
<path fill="none" stroke="midnightblue" d="M287.191,-420.401C314.465,-403.271 370.858,-368.35 392,-359 401.721,-354.701 412.444,-350.86 422.746,-347.579"/>
<polygon fill="midnightblue" stroke="midnightblue" points="423.911,-350.882 432.447,-344.607 421.861,-344.189 423.911,-350.882"/>
</g>
<!-- Node24&#45;&gt;Node22 -->
<g id="edge37" class="edge"><title>Node24&#45;&gt;Node22</title>
<path fill="none" stroke="midnightblue" d="M289.122,-439.636C307.379,-450.544 336.317,-469.724 356,-492 377.609,-516.456 365.993,-536.284 392,-556 394.475,-557.876 397.11,-559.57 399.858,-561.098"/>
<polygon fill="midnightblue" stroke="midnightblue" points="398.431,-564.295 408.964,-565.439 401.443,-557.976 398.431,-564.295"/>
</g>
<!-- Node25 -->
<g id="node25" class="node"><title>Node25</title>
<g id="a_node25"><a xlink:href="namespaceMWMechanics.html#a90645fe67f9b8b658452cd004d2cbb65" target="_top" xlink:title="MWMechanics::getPlayer">
<polygon fill="white" stroke="black" points="408.5,-439.5 408.5,-458.5 533.5,-458.5 533.5,-439.5 408.5,-439.5"/>
<text text-anchor="middle" x="471" y="-446.5" font-family="FreeSans" font-size="10.00">MWMechanics::getPlayer</text>
</a>
</g>
</g>
<!-- Node24&#45;&gt;Node25 -->
<g id="edge26" class="edge"><title>Node24&#45;&gt;Node25</title>
<path fill="none" stroke="midnightblue" d="M308.778,-433.529C333.797,-435.93 367.732,-439.186 398.015,-442.092"/>
<polygon fill="midnightblue" stroke="midnightblue" points="397.838,-445.591 408.127,-443.063 398.507,-438.623 397.838,-445.591"/>
</g>
<!-- Node27 -->
<g id="node27" class="node"><title>Node27</title>
<g id="a_node27"><a xlink:href="classSettings_1_1Manager.html#a57ac366d14d68b494079c5ece3919415" target="_top" xlink:title="Settings::Manager::\lgetInt">
<polygon fill="white" stroke="black" points="422,-478 422,-508 520,-508 520,-478 422,-478"/>
<text text-anchor="start" x="430" y="-496" font-family="FreeSans" font-size="10.00">Settings::Manager::</text>
<text text-anchor="middle" x="471" y="-485" font-family="FreeSans" font-size="10.00">getInt</text>
</a>
</g>
</g>
<!-- Node24&#45;&gt;Node27 -->
<g id="edge30" class="edge"><title>Node24&#45;&gt;Node27</title>
<path fill="none" stroke="midnightblue" d="M308.197,-439.552C323.099,-443.688 340.475,-448.776 356,-454 372.271,-459.475 375.818,-462.266 392,-468 398.484,-470.298 405.303,-472.619 412.098,-474.874"/>
<polygon fill="midnightblue" stroke="midnightblue" points="411.403,-478.33 421.996,-478.12 413.584,-471.678 411.403,-478.33"/>
</g>
<!-- Node25&#45;&gt;Node18 -->
<g id="edge27" class="edge"><title>Node25&#45;&gt;Node18</title>
<path fill="none" stroke="midnightblue" d="M504.779,-439.394C518.773,-435.169 535.249,-430.03 550,-425 576.42,-415.991 605.972,-404.864 628.084,-396.326"/>
<polygon fill="midnightblue" stroke="midnightblue" points="629.625,-399.483 637.682,-392.603 627.093,-392.957 629.625,-399.483"/>
</g>
<!-- Node25&#45;&gt;Node19 -->
<g id="edge28" class="edge"><title>Node25&#45;&gt;Node19</title>
<path fill="none" stroke="midnightblue" d="M484.192,-439.375C499.57,-427.219 526.808,-405.638 550,-387 579.394,-363.378 612.94,-336.075 635.595,-317.586"/>
<polygon fill="midnightblue" stroke="midnightblue" points="637.889,-320.232 643.421,-311.197 633.462,-314.81 637.889,-320.232"/>
</g>
<!-- Node26 -->
<g id="node26" class="node"><title>Node26</title>
<g id="a_node26"><a xlink:href="classMWBase_1_1World.html#a95005e26dcb7b1f6dc906eb518b95762" target="_top" xlink:title="MWBase::World::getPlayerPtr">
<polygon fill="white" stroke="black" points="591.5,-433.5 591.5,-452.5 734.5,-452.5 734.5,-433.5 591.5,-433.5"/>
<text text-anchor="middle" x="663" y="-440.5" font-family="FreeSans" font-size="10.00">MWBase::World::getPlayerPtr</text>
</a>
</g>
</g>
<!-- Node25&#45;&gt;Node26 -->
<g id="edge29" class="edge"><title>Node25&#45;&gt;Node26</title>
<path fill="none" stroke="midnightblue" d="M533.688,-447.052C548.798,-446.575 565.196,-446.057 581.06,-445.556"/>
<polygon fill="midnightblue" stroke="midnightblue" points="581.504,-449.044 591.388,-445.23 581.283,-442.047 581.504,-449.044"/>
</g>
<!-- Node28 -->
<g id="node28" class="node"><title>Node28</title>
<g id="a_node28"><a xlink:href="namespaceanonymous__namespace_02settings_8cpp_03.html#a1b1be5e90ec855097d0bb28ea12e3e1f" target="_top" xlink:title="anonymous_namespace\l\{settings::cpp\}::parseInt">
<polygon fill="white" stroke="black" points="603,-521 603,-551 723,-551 723,-521 603,-521"/>
<text text-anchor="start" x="611" y="-539" font-family="FreeSans" font-size="10.00">anonymous_namespace</text>
<text text-anchor="middle" x="663" y="-528" font-family="FreeSans" font-size="10.00">{settings::cpp}::parseInt</text>
</a>
</g>
</g>
<!-- Node27&#45;&gt;Node28 -->
<g id="edge31" class="edge"><title>Node27&#45;&gt;Node28</title>
<path fill="none" stroke="midnightblue" d="M520.437,-503.962C542.469,-508.948 568.94,-514.939 593,-520.384"/>
<polygon fill="midnightblue" stroke="midnightblue" points="592.264,-523.806 602.79,-522.6 593.81,-516.979 592.264,-523.806"/>
</g>
<!-- Node29 -->
<g id="node29" class="node"><title>Node29</title>
<g id="a_node29"><a xlink:href="classSettings_1_1Manager.html#ae09758032359a72e34df4085f7bd252e" target="_top" xlink:title="Settings::Manager::\lgetString">
<polygon fill="white" stroke="black" points="614,-472 614,-502 712,-502 712,-472 614,-472"/>
<text text-anchor="start" x="622" y="-490" font-family="FreeSans" font-size="10.00">Settings::Manager::</text>
<text text-anchor="middle" x="663" y="-479" font-family="FreeSans" font-size="10.00">getString</text>
</a>
</g>
</g>
<!-- Node27&#45;&gt;Node29 -->
<g id="edge32" class="edge"><title>Node27&#45;&gt;Node29</title>
<path fill="none" stroke="midnightblue" d="M520.437,-491.47C545.882,-490.667 577.248,-489.676 603.983,-488.832"/>
<polygon fill="midnightblue" stroke="midnightblue" points="604.097,-492.33 613.981,-488.516 603.876,-485.334 604.097,-492.33"/>
</g>
<!-- Node33 -->
<g id="node33" class="node"><title>Node33</title>
<g id="a_node33"><a xlink:href="classMWMechanics_1_1CreatureStats.html#a2887c6613153d6c33d2458e2eb08ade6" target="_top" xlink:title="MWMechanics::CreatureStats\l::setDynamic">
<polygon fill="white" stroke="black" points="399,-112 399,-142 543,-142 543,-112 399,-112"/>
<text text-anchor="start" x="407" y="-130" font-family="FreeSans" font-size="10.00">MWMechanics::CreatureStats</text>
<text text-anchor="middle" x="471" y="-119" font-family="FreeSans" font-size="10.00">::setDynamic</text>
</a>
</g>
</g>
<!-- Node32&#45;&gt;Node33 -->
<g id="edge41" class="edge"><title>Node32&#45;&gt;Node33</title>
<path fill="none" stroke="midnightblue" d="M343.203,-127C357.886,-127 373.457,-127 388.474,-127"/>
<polygon fill="midnightblue" stroke="midnightblue" points="388.764,-130.5 398.764,-127 388.764,-123.5 388.764,-130.5"/>
</g>
<!-- Node33&#45;&gt;Node18 -->
<g id="edge42" class="edge"><title>Node33&#45;&gt;Node18</title>
<path fill="none" stroke="midnightblue" d="M478.729,-142.164C494.325,-176.293 535.498,-260.778 586,-320 601.669,-338.375 623.114,-355.609 639.229,-367.39"/>
<polygon fill="midnightblue" stroke="midnightblue" points="637.393,-370.38 647.564,-373.348 641.463,-364.685 637.393,-370.38"/>
</g>
<!-- Node33&#45;&gt;Node19 -->
<g id="edge43" class="edge"><title>Node33&#45;&gt;Node19</title>
<path fill="none" stroke="midnightblue" d="M489.196,-142.296C522.968,-172.335 598.067,-239.133 637.202,-273.943"/>
<polygon fill="midnightblue" stroke="midnightblue" points="635.181,-276.83 644.979,-280.861 639.834,-271.599 635.181,-276.83"/>
</g>
<!-- Node33&#45;&gt;Node31 -->
<g id="edge46" class="edge"><title>Node33&#45;&gt;Node31</title>
<path fill="none" stroke="midnightblue" d="M514.072,-142.135C525.818,-146.642 538.508,-151.779 550,-157 566.472,-164.483 569.349,-168.926 586,-176 591.323,-178.261 596.926,-180.449 602.576,-182.526"/>
<polygon fill="midnightblue" stroke="midnightblue" points="601.493,-185.856 612.088,-185.912 603.84,-179.261 601.493,-185.856"/>
</g>
<!-- Node34 -->
<g id="node34" class="node"><title>Node34</title>
<g id="a_node34"><a xlink:href="classMWBase_1_1World.html#afedfaa8a949d00d5905eb8ae070492fe" target="_top" xlink:title="Return current in&#45;game time stamp. ">
<polygon fill="white" stroke="black" points="586.5,-49.5 586.5,-68.5 739.5,-68.5 739.5,-49.5 586.5,-49.5"/>
<text text-anchor="middle" x="663" y="-56.5" font-family="FreeSans" font-size="10.00">MWBase::World::getTimeStamp</text>
</a>
</g>
</g>
<!-- Node33&#45;&gt;Node34 -->
<g id="edge44" class="edge"><title>Node33&#45;&gt;Node34</title>
<path fill="none" stroke="midnightblue" d="M503.406,-111.875C526.009,-101.394 557.424,-87.6435 586,-78 593.339,-75.5233 601.175,-73.2081 608.922,-71.1053"/>
<polygon fill="midnightblue" stroke="midnightblue" points="609.857,-74.4785 618.644,-68.5591 608.084,-67.7069 609.857,-74.4785"/>
</g>
<!-- Node35 -->
<g id="node35" class="node"><title>Node35</title>
<g id="a_node35"><a xlink:href="classMWMechanics_1_1DynamicStat.html#ad790612fbb12a028056c4fbb9a19e445" target="_top" xlink:title="MWMechanics::DynamicStat\l::setModifier">
<polygon fill="white" stroke="black" points="593,-0 593,-30 733,-30 733,-0 593,-0"/>
<text text-anchor="start" x="601" y="-18" font-family="FreeSans" font-size="10.00">MWMechanics::DynamicStat</text>
<text text-anchor="middle" x="663" y="-7" font-family="FreeSans" font-size="10.00">::setModifier</text>
</a>
</g>
</g>
<!-- Node33&#45;&gt;Node35 -->
<g id="edge45" class="edge"><title>Node33&#45;&gt;Node35</title>
<path fill="none" stroke="midnightblue" d="M488.162,-111.825C509.228,-92.7478 547.893,-60.0739 586,-40 590.159,-37.8091 594.547,-35.7605 599.03,-33.855"/>
<polygon fill="midnightblue" stroke="midnightblue" points="600.334,-37.103 608.324,-30.1446 597.739,-30.6019 600.334,-37.103"/>
</g>
<!-- Node36 -->
<g id="node36" class="node"><title>Node36</title>
<g id="a_node36"><a xlink:href="classMWBase_1_1Environment.html#a571bbf2793948af02f188c25f0a4ba23" target="_top" xlink:title="MWBase::Environment\l::getMechanicsManager">
<polygon fill="white" stroke="black" points="603.5,-137 603.5,-167 722.5,-167 722.5,-137 603.5,-137"/>
<text text-anchor="start" x="611.5" y="-155" font-family="FreeSans" font-size="10.00">MWBase::Environment</text>
<text text-anchor="middle" x="663" y="-144" font-family="FreeSans" font-size="10.00">::getMechanicsManager</text>
</a>
</g>
</g>
<!-- Node33&#45;&gt;Node36 -->
<g id="edge47" class="edge"><title>Node33&#45;&gt;Node36</title>
<path fill="none" stroke="midnightblue" d="M543.019,-136.345C559.517,-138.515 577.046,-140.822 593.435,-142.978"/>
<polygon fill="midnightblue" stroke="midnightblue" points="593.102,-146.465 603.473,-144.299 594.015,-139.524 593.102,-146.465"/>
</g>
<!-- Node37 -->
<g id="node37" class="node"><title>Node37</title>
<g id="a_node37"><a xlink:href="classMWBase_1_1MechanicsManager.html#a1ded1629794d493de5418f327db4fced" target="_top" xlink:title="Resurrects the player if necessary. ">
<polygon fill="white" stroke="black" points="591,-88 591,-118 735,-118 735,-88 591,-88"/>
<text text-anchor="start" x="599" y="-106" font-family="FreeSans" font-size="10.00">MWBase::MechanicsManager</text>
<text text-anchor="middle" x="663" y="-95" font-family="FreeSans" font-size="10.00">::keepPlayerAlive</text>
</a>
</g>
</g>
<!-- Node33&#45;&gt;Node37 -->
<g id="edge48" class="edge"><title>Node33&#45;&gt;Node37</title>
<path fill="none" stroke="midnightblue" d="M543.019,-118.029C555.328,-116.474 568.212,-114.847 580.768,-113.261"/>
<polygon fill="midnightblue" stroke="midnightblue" points="581.268,-116.726 590.751,-112 580.391,-109.781 581.268,-116.726"/>
</g>
</g>
</svg>
