<?xml version="1.0" encoding="UTF-8" standalone="no"?>
<!DOCTYPE svg PUBLIC "-//W3C//DTD SVG 1.1//EN"
 "http://www.w3.org/Graphics/SVG/1.1/DTD/svg11.dtd">
<!-- Generated by graphviz version 2.36.0 (20140111.2315)
 -->
<!-- Title: anonymous_namespace{character::cpp}::getFallDamage Pages: 1 -->
<svg width="722pt" height="38pt"
 viewBox="0.00 0.00 722.00 38.00" xmlns="http://www.w3.org/2000/svg" xmlns:xlink="http://www.w3.org/1999/xlink">
<g id="graph0" class="graph" transform="scale(1 1) rotate(0) translate(4 34)">
<title>anonymous_namespace{character::cpp}::getFallDamage</title>
<polygon fill="white" stroke="none" points="-4,4 -4,-34 718,-34 718,4 -4,4"/>
<!-- Node1 -->
<g id="node1" class="node"><title>Node1</title>
<polygon fill="#bfbfbf" stroke="black" points="0.5,-0 0.5,-30 153.5,-30 153.5,-0 0.5,-0"/>
<text text-anchor="start" x="8.5" y="-18" font-family="FreeSans" font-size="10.00">anonymous_namespace</text>
<text text-anchor="middle" x="77" y="-7" font-family="FreeSans" font-size="10.00">{character::cpp}::getFallDamage</text>
</g>
<!-- Node2 -->
<g id="node2" class="node"><title>Node2</title>
<g id="a_node2"><a xlink:href="classMWMechanics_1_1CharacterController.html#a1aa04b41faf6c46eef9310e36e405be5" target="_top" xlink:title="MWMechanics::CharacterController\l::update">
<polygon fill="white" stroke="black" points="190,-0 190,-30 358,-30 358,-0 190,-0"/>
<text text-anchor="start" x="198" y="-18" font-family="FreeSans" font-size="10.00">MWMechanics::CharacterController</text>
<text text-anchor="middle" x="274" y="-7" font-family="FreeSans" font-size="10.00">::update</text>
</a>
</g>
</g>
<!-- Node1&#45;&gt;Node2 -->
<g id="edge1" class="edge"><title>Node1&#45;&gt;Node2</title>
<path fill="none" stroke="midnightblue" d="M163.789,-15C172.472,-15 181.28,-15 189.933,-15"/>
<polygon fill="midnightblue" stroke="midnightblue" points="163.671,-11.5001 153.671,-15 163.671,-18.5001 163.671,-11.5001"/>
</g>
<!-- Node3 -->
<g id="node3" class="node"><title>Node3</title>
<g id="a_node3"><a xlink:href="classMWMechanics_1_1Actors.html#a1588180bba8597286a1db1389cee106e" target="_top" xlink:title="Update actor stats and store desired velocity vectors in movement. ">
<polygon fill="white" stroke="black" points="394.5,-0 394.5,-30 507.5,-30 507.5,-0 394.5,-0"/>
<text text-anchor="start" x="402.5" y="-18" font-family="FreeSans" font-size="10.00">MWMechanics::Actors</text>
<text text-anchor="middle" x="451" y="-7" font-family="FreeSans" font-size="10.00">::update</text>
</a>
</g>
</g>
<!-- Node2&#45;&gt;Node3 -->
<g id="edge2" class="edge"><title>Node2&#45;&gt;Node3</title>
<path fill="none" stroke="midnightblue" d="M368.418,-15C377.157,-15 385.817,-15 394.047,-15"/>
<polygon fill="midnightblue" stroke="midnightblue" points="368.144,-11.5001 358.144,-15 368.144,-18.5001 368.144,-11.5001"/>
</g>
<!-- Node4 -->
<g id="node4" class="node"><title>Node4</title>
<g id="a_node4"><a xlink:href="classMWMechanics_1_1MechanicsManager.html#acf3c8c25fff52b890d0d6ced4b456459" target="_top" xlink:title="MWMechanics::MechanicsManager\l::update">
<polygon fill="white" stroke="black" points="544.5,-0 544.5,-30 713.5,-30 713.5,-0 544.5,-0"/>
<text text-anchor="start" x="552.5" y="-18" font-family="FreeSans" font-size="10.00">MWMechanics::MechanicsManager</text>
<text text-anchor="middle" x="629" y="-7" font-family="FreeSans" font-size="10.00">::update</text>
</a>
</g>
</g>
<!-- Node3&#45;&gt;Node4 -->
<g id="edge3" class="edge"><title>Node3&#45;&gt;Node4</title>
<path fill="none" stroke="midnightblue" d="M517.731,-15C526.428,-15 535.435,-15 544.381,-15"/>
<polygon fill="midnightblue" stroke="midnightblue" points="517.688,-11.5001 507.688,-15 517.687,-18.5001 517.688,-11.5001"/>
</g>
</g>
</svg>
