<?xml version="1.0" encoding="UTF-8" standalone="no"?>
<!DOCTYPE svg PUBLIC "-//W3C//DTD SVG 1.1//EN"
 "http://www.w3.org/Graphics/SVG/1.1/DTD/svg11.dtd">
<!-- Generated by graphviz version 2.36.0 (20140111.2315)
 -->
<!-- Title: anonymous_namespace{generator::cpp}::opStoreGlobalLong Pages: 1 -->
<svg width="1166pt" height="102pt"
 viewBox="0.00 0.00 1166.00 102.10" xmlns="http://www.w3.org/2000/svg" xmlns:xlink="http://www.w3.org/1999/xlink">
<g id="graph0" class="graph" transform="scale(1 1) rotate(0) translate(4 98.1025)">
<title>anonymous_namespace{generator::cpp}::opStoreGlobalLong</title>
<polygon fill="white" stroke="none" points="-4,4 -4,-98.1025 1162,-98.1025 1162,4 -4,4"/>
<!-- Node1 -->
<g id="node1" class="node"><title>Node1</title>
<polygon fill="#bfbfbf" stroke="black" points="0.5,-44 0.5,-74 197.5,-74 197.5,-44 0.5,-44"/>
<text text-anchor="start" x="8.5" y="-62" font-family="FreeSans" font-size="10.00">anonymous_namespace</text>
<text text-anchor="middle" x="99" y="-51" font-family="FreeSans" font-size="10.00">{generator::cpp}::opStoreGlobalLong</text>
</g>
<!-- Node2 -->
<g id="node2" class="node"><title>Node2</title>
<g id="a_node2"><a xlink:href="namespaceCompiler_1_1Generator.html#a00db8ed1d45e94303f97da29ea7eb4db" target="_top" xlink:title="Compiler::Generator\l::assignToGlobal">
<polygon fill="white" stroke="black" points="234,-44 234,-74 348,-74 348,-44 234,-44"/>
<text text-anchor="start" x="242" y="-62" font-family="FreeSans" font-size="10.00">Compiler::Generator</text>
<text text-anchor="middle" x="291" y="-51" font-family="FreeSans" font-size="10.00">::assignToGlobal</text>
</a>
</g>
</g>
<!-- Node1&#45;&gt;Node2 -->
<g id="edge1" class="edge"><title>Node1&#45;&gt;Node2</title>
<path fill="none" stroke="midnightblue" d="M207.714,-59C216.713,-59 225.558,-59 233.917,-59"/>
<polygon fill="midnightblue" stroke="midnightblue" points="207.505,-55.5001 197.505,-59 207.505,-62.5001 207.505,-55.5001"/>
</g>
<!-- Node3 -->
<g id="node3" class="node"><title>Node3</title>
<g id="a_node3"><a xlink:href="classCompiler_1_1LineParser.html#afd5aea253297d8554842ab61db598f43" target="_top" xlink:title="Compiler::LineParser\l::parseKeyword">
<polygon fill="white" stroke="black" points="384.5,-44 384.5,-74 499.5,-74 499.5,-44 384.5,-44"/>
<text text-anchor="start" x="392.5" y="-62" font-family="FreeSans" font-size="10.00">Compiler::LineParser</text>
<text text-anchor="middle" x="442" y="-51" font-family="FreeSans" font-size="10.00">::parseKeyword</text>
</a>
</g>
</g>
<!-- Node2&#45;&gt;Node3 -->
<g id="edge2" class="edge"><title>Node2&#45;&gt;Node3</title>
<path fill="none" stroke="midnightblue" d="M358.608,-59C367.115,-59 375.761,-59 384.095,-59"/>
<polygon fill="midnightblue" stroke="midnightblue" points="358.331,-55.5001 348.331,-59 358.33,-62.5001 358.331,-55.5001"/>
</g>
<!-- Node4 -->
<g id="node4" class="node"><title>Node4</title>
<g id="a_node4"><a xlink:href="classCompiler_1_1ControlParser.html#af689cbd16df47d5bea28552f5c3d7da3" target="_top" xlink:title="Compiler::ControlParser\l::parseIfBody">
<polygon fill="white" stroke="black" points="536,-44 536,-74 666,-74 666,-44 536,-44"/>
<text text-anchor="start" x="544" y="-62" font-family="FreeSans" font-size="10.00">Compiler::ControlParser</text>
<text text-anchor="middle" x="601" y="-51" font-family="FreeSans" font-size="10.00">::parseIfBody</text>
</a>
</g>
</g>
<!-- Node3&#45;&gt;Node4 -->
<g id="edge3" class="edge"><title>Node3&#45;&gt;Node4</title>
<path fill="none" stroke="midnightblue" d="M509.754,-59C518.434,-59 527.31,-59 535.944,-59"/>
<polygon fill="midnightblue" stroke="midnightblue" points="509.681,-55.5001 499.681,-59 509.681,-62.5001 509.681,-55.5001"/>
</g>
<!-- Node6 -->
<g id="node6" class="node"><title>Node6</title>
<g id="a_node6"><a xlink:href="classCompiler_1_1ControlParser.html#aee85a45727396a653c0648b9510e7237" target="_top" xlink:title="Compiler::ControlParser\l::parseWhileBody">
<polygon fill="white" stroke="black" points="868,-49 868,-79 998,-79 998,-49 868,-49"/>
<text text-anchor="start" x="876" y="-67" font-family="FreeSans" font-size="10.00">Compiler::ControlParser</text>
<text text-anchor="middle" x="933" y="-56" font-family="FreeSans" font-size="10.00">::parseWhileBody</text>
</a>
</g>
</g>
<!-- Node3&#45;&gt;Node6 -->
<g id="edge10" class="edge"><title>Node3&#45;&gt;Node6</title>
<path fill="none" stroke="midnightblue" d="M501.57,-76.5016C512.895,-79.2049 524.741,-81.5707 536,-83 666.508,-99.5683 701.024,-95.3324 832,-83 843.7,-81.8984 856.069,-80.087 867.971,-78.0089"/>
<polygon fill="midnightblue" stroke="midnightblue" points="502.33,-73.084 491.78,-74.0542 500.632,-79.875 502.33,-73.084"/>
</g>
<!-- Node7 -->
<g id="node7" class="node"><title>Node7</title>
<g id="a_node7"><a xlink:href="classCompiler_1_1ScriptParser.html#a10da1e889f3f50e522c0d17dca0817c0" target="_top" xlink:title="Compiler::ScriptParser\l::parseKeyword">
<polygon fill="white" stroke="black" points="871.5,-0 871.5,-30 994.5,-30 994.5,-0 871.5,-0"/>
<text text-anchor="start" x="879.5" y="-18" font-family="FreeSans" font-size="10.00">Compiler::ScriptParser</text>
<text text-anchor="middle" x="933" y="-7" font-family="FreeSans" font-size="10.00">::parseKeyword</text>
</a>
</g>
</g>
<!-- Node3&#45;&gt;Node7 -->
<g id="edge11" class="edge"><title>Node3&#45;&gt;Node7</title>
<path fill="none" stroke="midnightblue" d="M501.211,-41.3047C512.65,-38.4101 524.63,-35.7799 536,-34 653.642,-15.5848 793.129,-13.382 871.211,-13.8893"/>
<polygon fill="midnightblue" stroke="midnightblue" points="500.109,-37.9754 491.326,-43.9018 501.887,-44.7457 500.109,-37.9754"/>
</g>
<!-- Node5 -->
<g id="node5" class="node"><title>Node5</title>
<g id="a_node5"><a xlink:href="classCompiler_1_1ControlParser.html#ab1aae5031c4fa0dd86331d37efe814b1" target="_top" xlink:title="Compiler::ControlParser\l::parseKeyword">
<polygon fill="white" stroke="black" points="702,-44 702,-74 832,-74 832,-44 702,-44"/>
<text text-anchor="start" x="710" y="-62" font-family="FreeSans" font-size="10.00">Compiler::ControlParser</text>
<text text-anchor="middle" x="767" y="-51" font-family="FreeSans" font-size="10.00">::parseKeyword</text>
</a>
</g>
</g>
<!-- Node4&#45;&gt;Node5 -->
<g id="edge4" class="edge"><title>Node4&#45;&gt;Node5</title>
<path fill="none" stroke="midnightblue" d="M676.564,-52.2747C685.004,-52.2185 693.549,-52.2582 701.839,-52.394"/>
<polygon fill="midnightblue" stroke="midnightblue" points="676.306,-48.7773 666.346,-52.391 676.386,-55.7769 676.306,-48.7773"/>
</g>
<!-- Node5&#45;&gt;Node4 -->
<g id="edge5" class="edge"><title>Node5&#45;&gt;Node4</title>
<path fill="none" stroke="midnightblue" d="M691.625,-65.724C683.187,-65.7817 674.64,-65.7434 666.346,-65.609"/>
<polygon fill="midnightblue" stroke="midnightblue" points="691.88,-69.2214 701.839,-65.606 691.799,-62.2218 691.88,-69.2214"/>
</g>
<!-- Node5&#45;&gt;Node6 -->
<g id="edge6" class="edge"><title>Node5&#45;&gt;Node6</title>
<path fill="none" stroke="midnightblue" d="M842.564,-54.548C851.004,-54.7491 859.549,-55.0494 867.839,-55.4379"/>
<polygon fill="midnightblue" stroke="midnightblue" points="842.412,-51.0446 832.346,-54.3528 842.278,-58.0433 842.412,-51.0446"/>
</g>
<!-- Node5&#45;&gt;Node7 -->
<g id="edge8" class="edge"><title>Node5&#45;&gt;Node7</title>
<path fill="none" stroke="midnightblue" d="M833.984,-41.2971C847.91,-37.5608 862.477,-33.6525 875.993,-30.0262"/>
<polygon fill="midnightblue" stroke="midnightblue" points="832.732,-38.009 823.981,-43.9808 834.546,-44.7699 832.732,-38.009"/>
</g>
<!-- Node6&#45;&gt;Node5 -->
<g id="edge7" class="edge"><title>Node6&#45;&gt;Node5</title>
<path fill="none" stroke="midnightblue" d="M857.625,-68.4565C849.187,-68.2569 840.64,-67.958 832.346,-67.5708"/>
<polygon fill="midnightblue" stroke="midnightblue" points="857.775,-71.9598 867.839,-68.6498 857.907,-64.9611 857.775,-71.9598"/>
</g>
<!-- Node8 -->
<g id="node8" class="node"><title>Node8</title>
<g id="a_node8"><a xlink:href="classCompiler_1_1ScriptParser.html#afb18ea8cd27cc9563428f9097cb7e6a6" target="_top" xlink:title="Compiler::ScriptParser\l::parseSpecial">
<polygon fill="white" stroke="black" points="1034.5,-0 1034.5,-30 1157.5,-30 1157.5,-0 1034.5,-0"/>
<text text-anchor="start" x="1042.5" y="-18" font-family="FreeSans" font-size="10.00">Compiler::ScriptParser</text>
<text text-anchor="middle" x="1096" y="-7" font-family="FreeSans" font-size="10.00">::parseSpecial</text>
</a>
</g>
</g>
<!-- Node7&#45;&gt;Node8 -->
<g id="edge9" class="edge"><title>Node7&#45;&gt;Node8</title>
<path fill="none" stroke="midnightblue" d="M1004.97,-15C1014.76,-15 1024.74,-15 1034.31,-15"/>
<polygon fill="midnightblue" stroke="midnightblue" points="1004.87,-11.5001 994.867,-15 1004.87,-18.5001 1004.87,-11.5001"/>
</g>
</g>
</svg>
