<?xml version="1.0" encoding="UTF-8" standalone="no"?>
<!DOCTYPE svg PUBLIC "-//W3C//DTD SVG 1.1//EN"
 "http://www.w3.org/Graphics/SVG/1.1/DTD/svg11.dtd">
<!-- Generated by graphviz version 2.36.0 (20140111.2315)
 -->
<!-- Title: anonymous_namespace{debugwindow::cpp}::bulletDumpRecursive Pages: 1 -->
<svg width="358pt" height="48pt"
 viewBox="0.00 0.00 358.00 48.00" xmlns="http://www.w3.org/2000/svg" xmlns:xlink="http://www.w3.org/1999/xlink">
<g id="graph0" class="graph" transform="scale(1 1) rotate(0) translate(4 44)">
<title>anonymous_namespace{debugwindow::cpp}::bulletDumpRecursive</title>
<polygon fill="white" stroke="none" points="-4,4 -4,-44 354,-44 354,4 -4,4"/>
<!-- Node1 -->
<g id="node1" class="node"><title>Node1</title>
<polygon fill="#bfbfbf" stroke="black" points="0,0.5 0,-40.5 120,-40.5 120,0.5 0,0.5"/>
<text text-anchor="start" x="8" y="-28.5" font-family="FreeSans" font-size="10.00">anonymous_namespace</text>
<text text-anchor="start" x="8" y="-17.5" font-family="FreeSans" font-size="10.00">{debugwindow::cpp}::</text>
<text text-anchor="middle" x="60" y="-6.5" font-family="FreeSans" font-size="10.00">bulletDumpRecursive</text>
</g>
<!-- Node2 -->
<g id="node2" class="node"><title>Node2</title>
<g id="a_node2"><a xlink:href="namespaceanonymous__namespace_02character_8cpp_03.html#a551df780ef62c57fe81b128fa596488c" target="_top" xlink:title="anonymous_namespace\l\{character::cpp\}::toString">
<polygon fill="white" stroke="black" points="156,-5 156,-35 278,-35 278,-5 156,-5"/>
<text text-anchor="start" x="164" y="-23" font-family="FreeSans" font-size="10.00">anonymous_namespace</text>
<text text-anchor="middle" x="217" y="-12" font-family="FreeSans" font-size="10.00">{character::cpp}::toString</text>
</a>
</g>
</g>
<!-- Node1&#45;&gt;Node2 -->
<g id="edge1" class="edge"><title>Node1&#45;&gt;Node2</title>
<path fill="none" stroke="midnightblue" d="M120.041,-20C128.465,-20 137.198,-20 145.81,-20"/>
<polygon fill="midnightblue" stroke="midnightblue" points="145.838,-23.5001 155.838,-20 145.838,-16.5001 145.838,-23.5001"/>
</g>
<!-- Node3 -->
<g id="node3" class="node"><title>Node3</title>
<g id="a_node3"><a xlink:href="gen__iconv_8cpp.html#a47a14d9c2f599fa2591017202978774d" target="_top" xlink:title="num">
<polygon fill="white" stroke="black" points="314.5,-10.5 314.5,-29.5 349.5,-29.5 349.5,-10.5 314.5,-10.5"/>
<text text-anchor="middle" x="332" y="-17.5" font-family="FreeSans" font-size="10.00">num</text>
</a>
</g>
</g>
<!-- Node2&#45;&gt;Node3 -->
<g id="edge2" class="edge"><title>Node2&#45;&gt;Node3</title>
<path fill="none" stroke="midnightblue" d="M278.139,-20C287.271,-20 296.275,-20 304.193,-20"/>
<polygon fill="midnightblue" stroke="midnightblue" points="304.226,-23.5001 314.226,-20 304.226,-16.5001 304.226,-23.5001"/>
</g>
</g>
</svg>
