<?xml version="1.0" encoding="UTF-8" standalone="no"?>
<!DOCTYPE svg PUBLIC "-//W3C//DTD SVG 1.1//EN"
 "http://www.w3.org/Graphics/SVG/1.1/DTD/svg11.dtd">
<!-- Generated by graphviz version 2.36.0 (20140111.2315)
 -->
<!-- Title: anonymous_namespace{fontloader::cpp}::fail Pages: 1 -->
<svg width="1296pt" height="486pt"
 viewBox="0.00 0.00 1296.00 486.00" xmlns="http://www.w3.org/2000/svg" xmlns:xlink="http://www.w3.org/1999/xlink">
<g id="graph0" class="graph" transform="scale(1 1) rotate(0) translate(4 482)">
<title>anonymous_namespace{fontloader::cpp}::fail</title>
<polygon fill="white" stroke="none" points="-4,4 -4,-482 1292,-482 1292,4 -4,4"/>
<!-- Node1 -->
<g id="node1" class="node"><title>Node1</title>
<polygon fill="#bfbfbf" stroke="black" points="0,-131 0,-161 134,-161 134,-131 0,-131"/>
<text text-anchor="start" x="8" y="-149" font-family="FreeSans" font-size="10.00">anonymous_namespace</text>
<text text-anchor="middle" x="67" y="-138" font-family="FreeSans" font-size="10.00">{fontloader::cpp}::fail</text>
</g>
<!-- Node2 -->
<g id="node2" class="node"><title>Node2</title>
<g id="a_node2"><a xlink:href="classMWMechanics_1_1CastSpell.html#a54e54268a860259340cbcca06a8d00fc" target="_top" xlink:title="MWMechanics::CastSpell\l::cast">
<polygon fill="white" stroke="black" points="185,-286 185,-316 319,-316 319,-286 185,-286"/>
<text text-anchor="start" x="193" y="-304" font-family="FreeSans" font-size="10.00">MWMechanics::CastSpell</text>
<text text-anchor="middle" x="252" y="-293" font-family="FreeSans" font-size="10.00">::cast</text>
</a>
</g>
</g>
<!-- Node1&#45;&gt;Node2 -->
<g id="edge1" class="edge"><title>Node1&#45;&gt;Node2</title>
<path fill="none" stroke="midnightblue" d="M93.8556,-167.9C131.505,-199.788 200.468,-258.2 233.047,-285.794"/>
<polygon fill="midnightblue" stroke="midnightblue" points="95.7728,-164.937 85.88,-161.144 91.2486,-170.278 95.7728,-164.937"/>
</g>
<!-- Node17 -->
<g id="node17" class="node"><title>Node17</title>
<g id="a_node17"><a xlink:href="classMWWorld_1_1World.html#a8f7bb14a918ca96a4b44feeba3d28c79" target="_top" xlink:title="startSpellCast attempt to start casting a spell. Might fail immediately if conditions are not met...">
<polygon fill="white" stroke="black" points="170,-174.5 170,-193.5 334,-193.5 334,-174.5 170,-174.5"/>
<text text-anchor="middle" x="252" y="-181.5" font-family="FreeSans" font-size="10.00">MWWorld::World::startSpellCast</text>
</a>
</g>
</g>
<!-- Node1&#45;&gt;Node17 -->
<g id="edge18" class="edge"><title>Node1&#45;&gt;Node17</title>
<path fill="none" stroke="midnightblue" d="M144.127,-161.808C164.835,-166.108 186.624,-170.632 205.087,-174.466"/>
<polygon fill="midnightblue" stroke="midnightblue" points="144.57,-158.325 134.067,-159.719 143.147,-165.179 144.57,-158.325"/>
</g>
<!-- Node18 -->
<g id="node18" class="node"><title>Node18</title>
<g id="a_node18"><a xlink:href="classBsa_1_1BSAFile.html#a1fb9d39804ac8e6289e0a9cb068eed6b" target="_top" xlink:title="Read header information from the input source. ">
<polygon fill="white" stroke="black" points="182.5,-136.5 182.5,-155.5 321.5,-155.5 321.5,-136.5 182.5,-136.5"/>
<text text-anchor="middle" x="252" y="-143.5" font-family="FreeSans" font-size="10.00">Bsa::BSAFile::readHeader</text>
</a>
</g>
</g>
<!-- Node1&#45;&gt;Node18 -->
<g id="edge19" class="edge"><title>Node1&#45;&gt;Node18</title>
<path fill="none" stroke="midnightblue" d="M144.105,-146C156.752,-146 169.804,-146 182.255,-146"/>
<polygon fill="midnightblue" stroke="midnightblue" points="144.067,-142.5 134.067,-146 144.067,-149.5 144.067,-142.5"/>
</g>
<!-- Node19 -->
<g id="node19" class="node"><title>Node19</title>
<g id="a_node19"><a xlink:href="classBsa_1_1BSAFile.html#a1bb47e40c7c0e07ec255da137076dff7" target="_top" xlink:title="Bsa::BSAFile::getFile">
<polygon fill="white" stroke="black" points="195.5,-98.5 195.5,-117.5 308.5,-117.5 308.5,-98.5 195.5,-98.5"/>
<text text-anchor="middle" x="252" y="-105.5" font-family="FreeSans" font-size="10.00">Bsa::BSAFile::getFile</text>
</a>
</g>
</g>
<!-- Node1&#45;&gt;Node19 -->
<g id="edge20" class="edge"><title>Node1&#45;&gt;Node19</title>
<path fill="none" stroke="midnightblue" d="M144.127,-130.192C164.835,-125.892 186.624,-121.368 205.087,-117.534"/>
<polygon fill="midnightblue" stroke="midnightblue" points="143.147,-126.821 134.067,-132.281 144.57,-133.675 143.147,-126.821"/>
</g>
<!-- Node31 -->
<g id="node31" class="node"><title>Node31</title>
<g id="a_node31"><a xlink:href="classGui_1_1FontLoader.html#ac5ac334a33969ada05b42f7adfab3086" target="_top" xlink:title="Gui::FontLoader::loadFont">
<polygon fill="white" stroke="black" points="182,-33.5 182,-52.5 322,-52.5 322,-33.5 182,-33.5"/>
<text text-anchor="middle" x="252" y="-40.5" font-family="FreeSans" font-size="10.00">Gui::FontLoader::loadFont</text>
</a>
</g>
</g>
<!-- Node1&#45;&gt;Node31 -->
<g id="edge33" class="edge"><title>Node1&#45;&gt;Node31</title>
<path fill="none" stroke="midnightblue" d="M103.979,-125.749C143.17,-103.691 204.211,-69.3348 233.784,-52.69"/>
<polygon fill="midnightblue" stroke="midnightblue" points="102,-122.847 95.0023,-130.802 105.433,-128.947 102,-122.847"/>
</g>
<!-- Node3 -->
<g id="node3" class="node"><title>Node3</title>
<g id="a_node3"><a xlink:href="classMWClass_1_1Npc.html#af6723ba6a47b408d1af74c9d34613228" target="_top" xlink:title="MWClass::Npc::apply">
<polygon fill="white" stroke="black" points="390.5,-458.5 390.5,-477.5 505.5,-477.5 505.5,-458.5 390.5,-458.5"/>
<text text-anchor="middle" x="448" y="-465.5" font-family="FreeSans" font-size="10.00">MWClass::Npc::apply</text>
</a>
</g>
</g>
<!-- Node2&#45;&gt;Node3 -->
<g id="edge2" class="edge"><title>Node2&#45;&gt;Node3</title>
<path fill="none" stroke="midnightblue" d="M265.57,-325.1C283.99,-357.993 321.461,-416.453 370,-448 376.717,-452.366 384.342,-455.78 392.12,-458.449"/>
<polygon fill="midnightblue" stroke="midnightblue" points="268.548,-323.252 260.679,-316.157 262.406,-326.611 268.548,-323.252"/>
</g>
<!-- Node4 -->
<g id="node4" class="node"><title>Node4</title>
<g id="a_node4"><a xlink:href="namespaceMWMechanics.html#ab90221f566691b0961d8e8d5daea6ddf" target="_top" xlink:title="MWMechanics::applyOnStrike\lEnchantment">
<polygon fill="white" stroke="black" points="370,-409 370,-439 526,-439 526,-409 370,-409"/>
<text text-anchor="start" x="378" y="-427" font-family="FreeSans" font-size="10.00">MWMechanics::applyOnStrike</text>
<text text-anchor="middle" x="448" y="-416" font-family="FreeSans" font-size="10.00">Enchantment</text>
</a>
</g>
</g>
<!-- Node2&#45;&gt;Node4 -->
<g id="edge3" class="edge"><title>Node2&#45;&gt;Node4</title>
<path fill="none" stroke="midnightblue" d="M274.322,-323.296C296.424,-345.269 332.882,-378.452 370,-399 376.763,-402.744 384.174,-406.033 391.643,-408.89"/>
<polygon fill="midnightblue" stroke="midnightblue" points="276.649,-320.672 267.125,-316.03 271.676,-325.598 276.649,-320.672"/>
</g>
<!-- Node12 -->
<g id="node12" class="node"><title>Node12</title>
<g id="a_node12"><a xlink:href="classMWMechanics_1_1CastSpell.html#a82cd49d48bac53c79545074d39f207f8" target="_top" xlink:title="MWMechanics::CastSpell\l::cast">
<polygon fill="white" stroke="black" points="381,-360 381,-390 515,-390 515,-360 381,-360"/>
<text text-anchor="start" x="389" y="-378" font-family="FreeSans" font-size="10.00">MWMechanics::CastSpell</text>
<text text-anchor="middle" x="448" y="-367" font-family="FreeSans" font-size="10.00">::cast</text>
</a>
</g>
</g>
<!-- Node2&#45;&gt;Node12 -->
<g id="edge13" class="edge"><title>Node2&#45;&gt;Node12</title>
<path fill="none" stroke="midnightblue" d="M296.123,-320.064C318.069,-329.509 345.27,-340.825 370,-350 379.092,-353.373 388.877,-356.745 398.321,-359.869"/>
<polygon fill="midnightblue" stroke="midnightblue" points="297.318,-316.767 286.751,-316.007 294.537,-323.191 297.318,-316.767"/>
</g>
<!-- Node13 -->
<g id="node13" class="node"><title>Node13</title>
<g id="a_node13"><a xlink:href="classMWScript_1_1Misc_1_1OpCast.html#a99e2d9dcadf9665f1a9797363f202bf0" target="_top" xlink:title="MWScript::Misc::OpCast\l::execute">
<polygon fill="white" stroke="black" points="383.5,-311 383.5,-341 512.5,-341 512.5,-311 383.5,-311"/>
<text text-anchor="start" x="391.5" y="-329" font-family="FreeSans" font-size="10.00">MWScript::Misc::OpCast</text>
<text text-anchor="middle" x="448" y="-318" font-family="FreeSans" font-size="10.00">::execute</text>
</a>
</g>
</g>
<!-- Node2&#45;&gt;Node13 -->
<g id="edge14" class="edge"><title>Node2&#45;&gt;Node13</title>
<path fill="none" stroke="midnightblue" d="M329.582,-310.869C347.4,-313.165 366.182,-315.585 383.371,-317.8"/>
<polygon fill="midnightblue" stroke="midnightblue" points="329.587,-307.341 319.221,-309.534 328.692,-314.283 329.587,-307.341"/>
</g>
<!-- Node14 -->
<g id="node14" class="node"><title>Node14</title>
<g id="a_node14"><a xlink:href="classMWScript_1_1Misc_1_1OpExplodeSpell.html#a918d78f5dc4f40aff9e75d9497e0eb1d" target="_top" xlink:title="MWScript::Misc::OpExplode\lSpell::execute">
<polygon fill="white" stroke="black" points="375.5,-262 375.5,-292 520.5,-292 520.5,-262 375.5,-262"/>
<text text-anchor="start" x="383.5" y="-280" font-family="FreeSans" font-size="10.00">MWScript::Misc::OpExplode</text>
<text text-anchor="middle" x="448" y="-269" font-family="FreeSans" font-size="10.00">Spell::execute</text>
</a>
</g>
</g>
<!-- Node2&#45;&gt;Node14 -->
<g id="edge15" class="edge"><title>Node2&#45;&gt;Node14</title>
<path fill="none" stroke="midnightblue" d="M329.558,-291.529C344.677,-289.658 360.49,-287.702 375.436,-285.853"/>
<polygon fill="midnightblue" stroke="midnightblue" points="328.716,-288.106 319.221,-292.808 329.575,-295.053 328.716,-288.106"/>
</g>
<!-- Node15 -->
<g id="node15" class="node"><title>Node15</title>
<g id="a_node15"><a xlink:href="classMWWorld_1_1ActionTrap.html#a21871cf85cb42949268933ae49b34a98" target="_top" xlink:title="MWWorld::ActionTrap\l::executeImp">
<polygon fill="white" stroke="black" points="391,-213 391,-243 505,-243 505,-213 391,-213"/>
<text text-anchor="start" x="399" y="-231" font-family="FreeSans" font-size="10.00">MWWorld::ActionTrap</text>
<text text-anchor="middle" x="448" y="-220" font-family="FreeSans" font-size="10.00">::executeImp</text>
</a>
</g>
</g>
<!-- Node2&#45;&gt;Node15 -->
<g id="edge16" class="edge"><title>Node2&#45;&gt;Node15</title>
<path fill="none" stroke="midnightblue" d="M297.12,-281.98C318.904,-272.825 345.671,-261.926 370,-253 379.237,-249.611 389.179,-246.207 398.751,-243.048"/>
<polygon fill="midnightblue" stroke="midnightblue" points="295.649,-278.802 287.8,-285.918 298.374,-285.25 295.649,-278.802"/>
</g>
<!-- Node16 -->
<g id="node16" class="node"><title>Node16</title>
<g id="a_node16"><a xlink:href="classMWWorld_1_1World.html#aa018bf3e47a39bb1bf25bdbcd2116db5" target="_top" xlink:title="Cast the actual spell, should be called mid&#45;animation. ">
<polygon fill="white" stroke="black" points="378,-174.5 378,-193.5 518,-193.5 518,-174.5 378,-174.5"/>
<text text-anchor="middle" x="448" y="-181.5" font-family="FreeSans" font-size="10.00">MWWorld::World::castSpell</text>
</a>
</g>
</g>
<!-- Node2&#45;&gt;Node16 -->
<g id="edge17" class="edge"><title>Node2&#45;&gt;Node16</title>
<path fill="none" stroke="midnightblue" d="M273.656,-278.511C295.483,-256.095 331.954,-222.306 370,-203 377.613,-199.137 386.054,-196.031 394.477,-193.541"/>
<polygon fill="midnightblue" stroke="midnightblue" points="270.949,-276.277 266.567,-285.923 276.008,-281.115 270.949,-276.277"/>
</g>
<!-- Node5 -->
<g id="node5" class="node"><title>Node5</title>
<g id="a_node5"><a xlink:href="classMWClass_1_1Creature.html#a54d172e02be3b6889d639f23b48add5d" target="_top" xlink:title="MWClass::Creature::hit">
<polygon fill="white" stroke="black" points="572.5,-452.5 572.5,-471.5 697.5,-471.5 697.5,-452.5 572.5,-452.5"/>
<text text-anchor="middle" x="635" y="-459.5" font-family="FreeSans" font-size="10.00">MWClass::Creature::hit</text>
</a>
</g>
</g>
<!-- Node4&#45;&gt;Node5 -->
<g id="edge4" class="edge"><title>Node4&#45;&gt;Node5</title>
<path fill="none" stroke="midnightblue" d="M532.051,-441.059C551.177,-444.988 570.847,-449.028 587.746,-452.499"/>
<polygon fill="midnightblue" stroke="midnightblue" points="532.617,-437.602 522.117,-439.019 531.208,-444.459 532.617,-437.602"/>
</g>
<!-- Node6 -->
<g id="node6" class="node"><title>Node6</title>
<g id="a_node6"><a xlink:href="classMWClass_1_1Npc.html#a5d266109da673f7fa11d213cb88dfc36" target="_top" xlink:title="MWClass::Npc::hit">
<polygon fill="white" stroke="black" points="584.5,-414.5 584.5,-433.5 685.5,-433.5 685.5,-414.5 584.5,-414.5"/>
<text text-anchor="middle" x="635" y="-421.5" font-family="FreeSans" font-size="10.00">MWClass::Npc::hit</text>
</a>
</g>
</g>
<!-- Node4&#45;&gt;Node6 -->
<g id="edge5" class="edge"><title>Node4&#45;&gt;Node6</title>
<path fill="none" stroke="midnightblue" d="M536.356,-424C552.877,-424 569.618,-424 584.461,-424"/>
<polygon fill="midnightblue" stroke="midnightblue" points="536.117,-420.5 526.117,-424 536.117,-427.5 536.117,-420.5"/>
</g>
<!-- Node7 -->
<g id="node7" class="node"><title>Node7</title>
<g id="a_node7"><a xlink:href="namespaceMWMechanics.html#af6ce41ddac20f6fb684311ba807c5948" target="_top" xlink:title="MWMechanics::projectileHit">
<polygon fill="white" stroke="black" points="562,-376.5 562,-395.5 708,-395.5 708,-376.5 562,-376.5"/>
<text text-anchor="middle" x="635" y="-383.5" font-family="FreeSans" font-size="10.00">MWMechanics::projectileHit</text>
</a>
</g>
</g>
<!-- Node4&#45;&gt;Node7 -->
<g id="edge6" class="edge"><title>Node4&#45;&gt;Node7</title>
<path fill="none" stroke="midnightblue" d="M532.051,-406.941C551.177,-403.012 570.847,-398.972 587.746,-395.501"/>
<polygon fill="midnightblue" stroke="midnightblue" points="531.208,-403.541 522.117,-408.981 532.617,-410.398 531.208,-403.541"/>
</g>
<!-- Node8 -->
<g id="node8" class="node"><title>Node8</title>
<g id="a_node8"><a xlink:href="classMWWorld_1_1ProjectileManager.html#a77bced8f0dfc8fec0a492cd753d0c464" target="_top" xlink:title="MWWorld::ProjectileManager\l::moveProjectiles">
<polygon fill="white" stroke="black" points="755,-393 755,-423 905,-423 905,-393 755,-393"/>
<text text-anchor="start" x="763" y="-411" font-family="FreeSans" font-size="10.00">MWWorld::ProjectileManager</text>
<text text-anchor="middle" x="830" y="-400" font-family="FreeSans" font-size="10.00">::moveProjectiles</text>
</a>
</g>
</g>
<!-- Node7&#45;&gt;Node8 -->
<g id="edge7" class="edge"><title>Node7&#45;&gt;Node8</title>
<path fill="none" stroke="midnightblue" d="M718.225,-395.373C730.336,-396.753 742.754,-398.169 754.693,-399.53"/>
<polygon fill="midnightblue" stroke="midnightblue" points="718.473,-391.878 708.141,-394.223 717.68,-398.833 718.473,-391.878"/>
</g>
<!-- Node11 -->
<g id="node11" class="node"><title>Node11</title>
<g id="a_node11"><a xlink:href="classMWWorld_1_1World.html#ae5903ca0dd09782dc14695a7f3c7d99c" target="_top" xlink:title="MWWorld::World::launchProjectile">
<polygon fill="white" stroke="black" points="744.5,-354.5 744.5,-373.5 915.5,-373.5 915.5,-354.5 744.5,-354.5"/>
<text text-anchor="middle" x="830" y="-361.5" font-family="FreeSans" font-size="10.00">MWWorld::World::launchProjectile</text>
</a>
</g>
</g>
<!-- Node7&#45;&gt;Node11 -->
<g id="edge12" class="edge"><title>Node7&#45;&gt;Node11</title>
<path fill="none" stroke="midnightblue" d="M718.26,-376.623C727.303,-375.592 736.517,-374.542 745.574,-373.51"/>
<polygon fill="midnightblue" stroke="midnightblue" points="717.68,-373.167 708.141,-377.777 718.473,-380.122 717.68,-373.167"/>
</g>
<!-- Node9 -->
<g id="node9" class="node"><title>Node9</title>
<g id="a_node9"><a xlink:href="classMWWorld_1_1ProjectileManager.html#a10e1c50b640ed158c9332d75c870c8c5" target="_top" xlink:title="MWWorld::ProjectileManager\l::update">
<polygon fill="white" stroke="black" points="952,-393 952,-423 1102,-423 1102,-393 952,-393"/>
<text text-anchor="start" x="960" y="-411" font-family="FreeSans" font-size="10.00">MWWorld::ProjectileManager</text>
<text text-anchor="middle" x="1027" y="-400" font-family="FreeSans" font-size="10.00">::update</text>
</a>
</g>
</g>
<!-- Node8&#45;&gt;Node9 -->
<g id="edge8" class="edge"><title>Node8&#45;&gt;Node9</title>
<path fill="none" stroke="midnightblue" d="M915.406,-401.304C927.562,-401.203 939.995,-401.243 951.929,-401.426"/>
<polygon fill="midnightblue" stroke="midnightblue" points="915.236,-397.806 905.277,-401.423 915.318,-404.806 915.236,-397.806"/>
</g>
<!-- Node9&#45;&gt;Node8 -->
<g id="edge11" class="edge"><title>Node9&#45;&gt;Node8</title>
<path fill="none" stroke="midnightblue" d="M941.804,-414.694C929.651,-414.797 917.218,-414.758 905.277,-414.577"/>
<polygon fill="midnightblue" stroke="midnightblue" points="941.971,-418.192 951.929,-414.574 941.888,-411.193 941.971,-418.192"/>
</g>
<!-- Node10 -->
<g id="node10" class="node"><title>Node10</title>
<g id="a_node10"><a xlink:href="classMWWorld_1_1ProjectileManager.html#ad7f820af09ff0d1c510ad52b9db7cefa" target="_top" xlink:title="MWWorld::ProjectileManager\l::moveMagicBolts">
<polygon fill="white" stroke="black" points="1138,-393 1138,-423 1288,-423 1288,-393 1138,-393"/>
<text text-anchor="start" x="1146" y="-411" font-family="FreeSans" font-size="10.00">MWWorld::ProjectileManager</text>
<text text-anchor="middle" x="1213" y="-400" font-family="FreeSans" font-size="10.00">::moveMagicBolts</text>
</a>
</g>
</g>
<!-- Node9&#45;&gt;Node10 -->
<g id="edge9" class="edge"><title>Node9&#45;&gt;Node10</title>
<path fill="none" stroke="midnightblue" d="M1112.07,-401.272C1120.65,-401.224 1129.34,-401.254 1137.81,-401.364"/>
<polygon fill="midnightblue" stroke="midnightblue" points="1112.01,-397.773 1102.04,-401.366 1112.08,-404.772 1112.01,-397.773"/>
</g>
<!-- Node10&#45;&gt;Node9 -->
<g id="edge10" class="edge"><title>Node10&#45;&gt;Node9</title>
<path fill="none" stroke="midnightblue" d="M1127.78,-414.728C1119.19,-414.776 1110.51,-414.745 1102.04,-414.634"/>
<polygon fill="midnightblue" stroke="midnightblue" points="1127.84,-418.228 1137.81,-414.636 1127.78,-411.229 1127.84,-418.228"/>
</g>
<!-- Node20 -->
<g id="node20" class="node"><title>Node20</title>
<g id="a_node20"><a xlink:href="bsatool_8cpp.html#a5f0cf41345f2013cbad03e5a442c9e81" target="_top" xlink:title="extract">
<polygon fill="white" stroke="black" points="423,-98.5 423,-117.5 473,-117.5 473,-98.5 423,-98.5"/>
<text text-anchor="middle" x="448" y="-105.5" font-family="FreeSans" font-size="10.00">extract</text>
</a>
</g>
</g>
<!-- Node19&#45;&gt;Node20 -->
<g id="edge21" class="edge"><title>Node19&#45;&gt;Node20</title>
<path fill="none" stroke="midnightblue" d="M318.99,-108C354.796,-108 396.902,-108 422.769,-108"/>
<polygon fill="midnightblue" stroke="midnightblue" points="318.593,-104.5 308.593,-108 318.593,-111.5 318.593,-104.5"/>
</g>
<!-- Node29 -->
<g id="node29" class="node"><title>Node29</title>
<g id="a_node29"><a xlink:href="bsatool_8cpp.html#a6bbf3ffe00ffe33d3de0e302f25bef3a" target="_top" xlink:title="extractAll">
<polygon fill="white" stroke="black" points="417,-136.5 417,-155.5 479,-155.5 479,-136.5 417,-136.5"/>
<text text-anchor="middle" x="448" y="-143.5" font-family="FreeSans" font-size="10.00">extractAll</text>
</a>
</g>
</g>
<!-- Node19&#45;&gt;Node29 -->
<g id="edge30" class="edge"><title>Node19&#45;&gt;Node29</title>
<path fill="none" stroke="midnightblue" d="M311.963,-119.55C346.592,-126.332 388.906,-134.621 416.834,-140.091"/>
<polygon fill="midnightblue" stroke="midnightblue" points="312.441,-116.077 301.954,-117.589 311.095,-122.946 312.441,-116.077"/>
</g>
<!-- Node30 -->
<g id="node30" class="node"><title>Node30</title>
<g id="a_node30"><a xlink:href="classVFS_1_1BsaArchiveFile.html#a899d4a46b68330611b64c3131b848b94" target="_top" xlink:title="VFS::BsaArchiveFile\l::open">
<polygon fill="white" stroke="black" points="393,-49 393,-79 503,-79 503,-49 393,-49"/>
<text text-anchor="start" x="401" y="-67" font-family="FreeSans" font-size="10.00">VFS::BsaArchiveFile</text>
<text text-anchor="middle" x="448" y="-56" font-family="FreeSans" font-size="10.00">::open</text>
</a>
</g>
</g>
<!-- Node19&#45;&gt;Node30 -->
<g id="edge32" class="edge"><title>Node19&#45;&gt;Node30</title>
<path fill="none" stroke="midnightblue" d="M305.17,-96.1675C332.288,-90.0172 365.398,-82.5077 392.805,-76.2916"/>
<polygon fill="midnightblue" stroke="midnightblue" points="304.073,-92.8274 295.095,-98.4527 305.622,-99.654 304.073,-92.8274"/>
</g>
<!-- Node21 -->
<g id="node21" class="node"><title>Node21</title>
<g id="a_node21"><a xlink:href="bsatool_8cpp.html#a3c04138a5bfe5d72780bb7e82a18e627" target="_top" xlink:title="main">
<polygon fill="white" stroke="black" points="614.5,-136.5 614.5,-155.5 655.5,-155.5 655.5,-136.5 614.5,-136.5"/>
<text text-anchor="middle" x="635" y="-143.5" font-family="FreeSans" font-size="10.00">main</text>
</a>
</g>
</g>
<!-- Node20&#45;&gt;Node21 -->
<g id="edge22" class="edge"><title>Node20&#45;&gt;Node21</title>
<path fill="none" stroke="midnightblue" d="M483.417,-115.07C521.976,-122.99 583.149,-135.555 614.328,-141.959"/>
<polygon fill="midnightblue" stroke="midnightblue" points="483.685,-111.552 473.186,-112.968 482.277,-118.408 483.685,-111.552"/>
</g>
<!-- Node28 -->
<g id="node28" class="node"><title>Node28</title>
<g id="a_node28"><a xlink:href="classWizard_1_1InstallationPage.html#a44a2f2bc81bf90b1dc2e64fd09361ddc" target="_top" xlink:title="Wizard::InstallationPage\l::InstallationPage">
<polygon fill="white" stroke="black" points="570.5,-87 570.5,-117 699.5,-117 699.5,-87 570.5,-87"/>
<text text-anchor="start" x="578.5" y="-105" font-family="FreeSans" font-size="10.00">Wizard::InstallationPage</text>
<text text-anchor="middle" x="635" y="-94" font-family="FreeSans" font-size="10.00">::InstallationPage</text>
</a>
</g>
</g>
<!-- Node20&#45;&gt;Node28 -->
<g id="edge29" class="edge"><title>Node20&#45;&gt;Node28</title>
<path fill="none" stroke="midnightblue" d="M483.374,-106.885C507.763,-106.094 541.217,-105.009 570.402,-104.063"/>
<polygon fill="midnightblue" stroke="midnightblue" points="483.067,-103.393 473.186,-107.216 483.294,-110.39 483.067,-103.393"/>
</g>
<!-- Node22 -->
<g id="node22" class="node"><title>Node22</title>
<g id="a_node22"><a xlink:href="classCSVPrefs_1_1Dialogue.html#a6044c160176f438622acbee2b6b9aafe" target="_top" xlink:title="CSVPrefs::Dialogue\l::Dialogue">
<polygon fill="white" stroke="black" points="775.5,-180 775.5,-210 884.5,-210 884.5,-180 775.5,-180"/>
<text text-anchor="start" x="783.5" y="-198" font-family="FreeSans" font-size="10.00">CSVPrefs::Dialogue</text>
<text text-anchor="middle" x="830" y="-187" font-family="FreeSans" font-size="10.00">::Dialogue</text>
</a>
</g>
</g>
<!-- Node21&#45;&gt;Node22 -->
<g id="edge23" class="edge"><title>Node21&#45;&gt;Node22</title>
<path fill="none" stroke="midnightblue" d="M665.507,-153.491C694.578,-160.872 739.664,-172.319 775.133,-181.324"/>
<polygon fill="midnightblue" stroke="midnightblue" points="666.122,-150.037 655.568,-150.968 664.399,-156.821 666.122,-150.037"/>
</g>
<!-- Node23 -->
<g id="node23" class="node"><title>Node23</title>
<g id="a_node23"><a xlink:href="classMWGui_1_1LocalMapBase.html#a1f28ce9ef060585586128b1cf313162b" target="_top" xlink:title="MWGui::LocalMapBase\l::setPlayerDir">
<polygon fill="white" stroke="black" points="768,-131 768,-161 892,-161 892,-131 768,-131"/>
<text text-anchor="start" x="776" y="-149" font-family="FreeSans" font-size="10.00">MWGui::LocalMapBase</text>
<text text-anchor="middle" x="830" y="-138" font-family="FreeSans" font-size="10.00">::setPlayerDir</text>
</a>
</g>
</g>
<!-- Node21&#45;&gt;Node23 -->
<g id="edge24" class="edge"><title>Node21&#45;&gt;Node23</title>
<path fill="none" stroke="midnightblue" d="M665.919,-146C692.967,-146 733.631,-146 767.585,-146"/>
<polygon fill="midnightblue" stroke="midnightblue" points="665.568,-142.5 655.568,-146 665.568,-149.5 665.568,-142.5"/>
</g>
<!-- Node26 -->
<g id="node26" class="node"><title>Node26</title>
<g id="a_node26"><a xlink:href="classMWGui_1_1MapWindow.html#a54c5f8edcaa4b488b100aefb676a0ee2" target="_top" xlink:title="MWGui::MapWindow::setGlobal\lMapPlayerDir">
<polygon fill="white" stroke="black" points="749.5,-82 749.5,-112 910.5,-112 910.5,-82 749.5,-82"/>
<text text-anchor="start" x="757.5" y="-100" font-family="FreeSans" font-size="10.00">MWGui::MapWindow::setGlobal</text>
<text text-anchor="middle" x="830" y="-89" font-family="FreeSans" font-size="10.00">MapPlayerDir</text>
</a>
</g>
</g>
<!-- Node21&#45;&gt;Node26 -->
<g id="edge27" class="edge"><title>Node21&#45;&gt;Node26</title>
<path fill="none" stroke="midnightblue" d="M665.392,-138.538C692.998,-131.529 735.118,-120.835 769.707,-112.054"/>
<polygon fill="midnightblue" stroke="midnightblue" points="664.399,-135.179 655.568,-141.032 666.122,-141.963 664.399,-135.179"/>
</g>
<!-- Node24 -->
<g id="node24" class="node"><title>Node24</title>
<g id="a_node24"><a xlink:href="classMWGui_1_1WindowManager.html#a2a73c34ca883705b97c4ccc2c3e4b8d8" target="_top" xlink:title="MWGui::WindowManager\l::updateMap">
<polygon fill="white" stroke="black" points="961,-131 961,-161 1093,-161 1093,-131 961,-131"/>
<text text-anchor="start" x="969" y="-149" font-family="FreeSans" font-size="10.00">MWGui::WindowManager</text>
<text text-anchor="middle" x="1027" y="-138" font-family="FreeSans" font-size="10.00">::updateMap</text>
</a>
</g>
</g>
<!-- Node23&#45;&gt;Node24 -->
<g id="edge25" class="edge"><title>Node23&#45;&gt;Node24</title>
<path fill="none" stroke="midnightblue" d="M902.296,-146C921.383,-146 941.917,-146 960.664,-146"/>
<polygon fill="midnightblue" stroke="midnightblue" points="902.164,-142.5 892.164,-146 902.164,-149.5 902.164,-142.5"/>
</g>
<!-- Node25 -->
<g id="node25" class="node"><title>Node25</title>
<g id="a_node25"><a xlink:href="classMWGui_1_1WindowManager.html#a2f52c12d86d6bb31adc62b06cef3de19" target="_top" xlink:title="MWGui::WindowManager\l::onFrame">
<polygon fill="white" stroke="black" points="1147,-131 1147,-161 1279,-161 1279,-131 1147,-131"/>
<text text-anchor="start" x="1155" y="-149" font-family="FreeSans" font-size="10.00">MWGui::WindowManager</text>
<text text-anchor="middle" x="1213" y="-138" font-family="FreeSans" font-size="10.00">::onFrame</text>
</a>
</g>
</g>
<!-- Node24&#45;&gt;Node25 -->
<g id="edge26" class="edge"><title>Node24&#45;&gt;Node25</title>
<path fill="none" stroke="midnightblue" d="M1103.51,-146C1117.93,-146 1132.9,-146 1146.96,-146"/>
<polygon fill="midnightblue" stroke="midnightblue" points="1103.13,-142.5 1093.13,-146 1103.13,-149.5 1103.13,-142.5"/>
</g>
<!-- Node27 -->
<g id="node27" class="node"><title>Node27</title>
<g id="a_node27"><a xlink:href="classMWGui_1_1MapWindow.html#afed3b115423799e4a102542c0c45471a" target="_top" xlink:title="MWGui::MapWindow::notify\lPlayerUpdate">
<polygon fill="white" stroke="black" points="956,-82 956,-112 1098,-112 1098,-82 956,-82"/>
<text text-anchor="start" x="964" y="-100" font-family="FreeSans" font-size="10.00">MWGui::MapWindow::notify</text>
<text text-anchor="middle" x="1027" y="-89" font-family="FreeSans" font-size="10.00">PlayerUpdate</text>
</a>
</g>
</g>
<!-- Node26&#45;&gt;Node27 -->
<g id="edge28" class="edge"><title>Node26&#45;&gt;Node27</title>
<path fill="none" stroke="midnightblue" d="M920.832,-97C932.544,-97 944.404,-97 955.731,-97"/>
<polygon fill="midnightblue" stroke="midnightblue" points="920.595,-93.5001 910.595,-97 920.595,-100.5 920.595,-93.5001"/>
</g>
<!-- Node29&#45;&gt;Node21 -->
<g id="edge31" class="edge"><title>Node29&#45;&gt;Node21</title>
<path fill="none" stroke="midnightblue" d="M489.532,-146C528.213,-146 584.842,-146 614.399,-146"/>
<polygon fill="midnightblue" stroke="midnightblue" points="489.135,-142.5 479.135,-146 489.135,-149.5 489.135,-142.5"/>
</g>
<!-- Node32 -->
<g id="node32" class="node"><title>Node32</title>
<g id="a_node32"><a xlink:href="classGui_1_1FontLoader.html#a7f001909dcc1207be6de3079ddea4915" target="_top" xlink:title="Gui::FontLoader::loadBitmap\lFonts">
<polygon fill="white" stroke="black" points="371.5,-0 371.5,-30 524.5,-30 524.5,-0 371.5,-0"/>
<text text-anchor="start" x="379.5" y="-18" font-family="FreeSans" font-size="10.00">Gui::FontLoader::loadBitmap</text>
<text text-anchor="middle" x="448" y="-7" font-family="FreeSans" font-size="10.00">Fonts</text>
</a>
</g>
</g>
<!-- Node31&#45;&gt;Node32 -->
<g id="edge34" class="edge"><title>Node31&#45;&gt;Node32</title>
<path fill="none" stroke="midnightblue" d="M328.939,-32.0397C342.829,-30.035 357.323,-27.943 371.208,-25.939"/>
<polygon fill="midnightblue" stroke="midnightblue" points="328.348,-28.5887 318.95,-33.4814 329.348,-35.5169 328.348,-28.5887"/>
</g>
</g>
</svg>
