<?xml version="1.0" encoding="UTF-8" standalone="no"?>
<!DOCTYPE svg PUBLIC "-//W3C//DTD SVG 1.1//EN"
 "http://www.w3.org/Graphics/SVG/1.1/DTD/svg11.dtd">
<!-- Generated by graphviz version 2.36.0 (20140111.2315)
 -->
<!-- Title: Compiler::Generator::getSecondsPassed Pages: 1 -->
<svg width="484pt" height="48pt"
 viewBox="0.00 0.00 484.00 48.00" xmlns="http://www.w3.org/2000/svg" xmlns:xlink="http://www.w3.org/1999/xlink">
<g id="graph0" class="graph" transform="scale(1 1) rotate(0) translate(4 44)">
<title>Compiler::Generator::getSecondsPassed</title>
<polygon fill="white" stroke="none" points="-4,4 -4,-44 480,-44 480,4 -4,4"/>
<!-- Node1 -->
<g id="node1" class="node"><title>Node1</title>
<polygon fill="#bfbfbf" stroke="black" points="0,-5 0,-35 114,-35 114,-5 0,-5"/>
<text text-anchor="start" x="8" y="-23" font-family="FreeSans" font-size="10.00">Compiler::Generator</text>
<text text-anchor="middle" x="57" y="-12" font-family="FreeSans" font-size="10.00">::getSecondsPassed</text>
</g>
<!-- Node2 -->
<g id="node2" class="node"><title>Node2</title>
<g id="a_node2"><a xlink:href="namespaceanonymous__namespace_02generator_8cpp_03.html#a09d6a431c72b4f3527b95d2f3c1ee846" target="_top" xlink:title="anonymous_namespace\l\{generator::cpp\}::opGetSeconds\lPassed">
<polygon fill="white" stroke="black" points="150,0.5 150,-40.5 326,-40.5 326,0.5 150,0.5"/>
<text text-anchor="start" x="158" y="-28.5" font-family="FreeSans" font-size="10.00">anonymous_namespace</text>
<text text-anchor="start" x="158" y="-17.5" font-family="FreeSans" font-size="10.00">{generator::cpp}::opGetSeconds</text>
<text text-anchor="middle" x="238" y="-6.5" font-family="FreeSans" font-size="10.00">Passed</text>
</a>
</g>
</g>
<!-- Node1&#45;&gt;Node2 -->
<g id="edge1" class="edge"><title>Node1&#45;&gt;Node2</title>
<path fill="none" stroke="midnightblue" d="M114.146,-20C122.325,-20 130.939,-20 139.653,-20"/>
<polygon fill="midnightblue" stroke="midnightblue" points="139.908,-23.5001 149.908,-20 139.908,-16.5001 139.908,-23.5001"/>
</g>
<!-- Node3 -->
<g id="node3" class="node"><title>Node3</title>
<g id="a_node3"><a xlink:href="namespaceCompiler_1_1Generator.html#adf44ec75e80e31b8203bc6adb5b25f12" target="_top" xlink:title="Compiler::Generator\l::segment5">
<polygon fill="white" stroke="black" points="362,-5 362,-35 476,-35 476,-5 362,-5"/>
<text text-anchor="start" x="370" y="-23" font-family="FreeSans" font-size="10.00">Compiler::Generator</text>
<text text-anchor="middle" x="419" y="-12" font-family="FreeSans" font-size="10.00">::segment5</text>
</a>
</g>
</g>
<!-- Node2&#45;&gt;Node3 -->
<g id="edge2" class="edge"><title>Node2&#45;&gt;Node3</title>
<path fill="none" stroke="midnightblue" d="M326.14,-20C334.737,-20 343.363,-20 351.7,-20"/>
<polygon fill="midnightblue" stroke="midnightblue" points="351.705,-23.5001 361.705,-20 351.705,-16.5001 351.705,-23.5001"/>
</g>
</g>
</svg>
