<?xml version="1.0" encoding="UTF-8" standalone="no"?>
<!DOCTYPE svg PUBLIC "-//W3C//DTD SVG 1.1//EN"
 "http://www.w3.org/Graphics/SVG/1.1/DTD/svg11.dtd">
<!-- Generated by graphviz version 2.36.0 (20140111.2315)
 -->
<!-- Title: anonymous_namespace{projectilemanager::cpp}::getMagicBoltData Pages: 1 -->
<svg width="324pt" height="154pt"
 viewBox="0.00 0.00 324.00 154.00" xmlns="http://www.w3.org/2000/svg" xmlns:xlink="http://www.w3.org/1999/xlink">
<g id="graph0" class="graph" transform="scale(1 1) rotate(0) translate(4 150)">
<title>anonymous_namespace{projectilemanager::cpp}::getMagicBoltData</title>
<polygon fill="white" stroke="none" points="-4,4 -4,-150 320,-150 320,4 -4,4"/>
<!-- Node1 -->
<g id="node1" class="node"><title>Node1</title>
<polygon fill="#bfbfbf" stroke="black" points="0,-49.5 0,-90.5 134,-90.5 134,-49.5 0,-49.5"/>
<text text-anchor="start" x="8" y="-78.5" font-family="FreeSans" font-size="10.00">anonymous_namespace</text>
<text text-anchor="start" x="8" y="-67.5" font-family="FreeSans" font-size="10.00">{projectilemanager::</text>
<text text-anchor="middle" x="67" y="-56.5" font-family="FreeSans" font-size="10.00">cpp}::getMagicBoltData</text>
</g>
<!-- Node2 -->
<g id="node2" class="node"><title>Node2</title>
<g id="a_node2"><a xlink:href="classMWBase_1_1Environment.html#a73f12633762b049c03c80fe215873faa" target="_top" xlink:title="Return instance of this class. ">
<polygon fill="white" stroke="black" points="170,-126.5 170,-145.5 316,-145.5 316,-126.5 170,-126.5"/>
<text text-anchor="middle" x="243" y="-133.5" font-family="FreeSans" font-size="10.00">MWBase::Environment::get</text>
</a>
</g>
</g>
<!-- Node1&#45;&gt;Node2 -->
<g id="edge1" class="edge"><title>Node1&#45;&gt;Node2</title>
<path fill="none" stroke="midnightblue" d="M110.081,-90.7227C128.25,-99.2111 149.907,-108.727 170,-116 177.632,-118.763 185.834,-121.369 193.871,-123.732"/>
<polygon fill="midnightblue" stroke="midnightblue" points="192.967,-127.113 203.544,-126.486 194.884,-120.381 192.967,-127.113"/>
</g>
<!-- Node3 -->
<g id="node3" class="node"><title>Node3</title>
<g id="a_node3"><a xlink:href="classMWBase_1_1Environment.html#ae14e166d8f5ff8629be119333d502660" target="_top" xlink:title="MWBase::Environment\l::getWorld">
<polygon fill="white" stroke="black" points="181,-77 181,-107 305,-107 305,-77 181,-77"/>
<text text-anchor="start" x="189" y="-95" font-family="FreeSans" font-size="10.00">MWBase::Environment</text>
<text text-anchor="middle" x="243" y="-84" font-family="FreeSans" font-size="10.00">::getWorld</text>
</a>
</g>
</g>
<!-- Node1&#45;&gt;Node3 -->
<g id="edge2" class="edge"><title>Node1&#45;&gt;Node3</title>
<path fill="none" stroke="midnightblue" d="M134.278,-78.38C146.208,-79.8884 158.69,-81.4666 170.754,-82.9919"/>
<polygon fill="midnightblue" stroke="midnightblue" points="170.408,-86.4759 180.768,-84.258 171.286,-79.5312 170.408,-86.4759"/>
</g>
<!-- Node4 -->
<g id="node4" class="node"><title>Node4</title>
<g id="a_node4"><a xlink:href="classMWBase_1_1World.html#a2ba0910cb944786065e37dc5f3fcda35" target="_top" xlink:title="MWBase::World::getStore">
<polygon fill="white" stroke="black" points="174.5,-38.5 174.5,-57.5 311.5,-57.5 311.5,-38.5 174.5,-38.5"/>
<text text-anchor="middle" x="243" y="-45.5" font-family="FreeSans" font-size="10.00">MWBase::World::getStore</text>
</a>
</g>
</g>
<!-- Node1&#45;&gt;Node4 -->
<g id="edge3" class="edge"><title>Node1&#45;&gt;Node4</title>
<path fill="none" stroke="midnightblue" d="M134.278,-61.62C144.146,-60.3723 154.392,-59.0769 164.466,-57.8031"/>
<polygon fill="midnightblue" stroke="midnightblue" points="164.981,-61.2659 174.463,-56.5391 164.103,-54.3212 164.981,-61.2659"/>
</g>
<!-- Node5 -->
<g id="node5" class="node"><title>Node5</title>
<g id="a_node5"><a xlink:href="classMWWorld_1_1ESMStore.html#a94ffe201bd012dd41fcdabfb35c69e24" target="_top" xlink:title="MWWorld::ESMStore::get">
<polygon fill="white" stroke="black" points="176,-0.5 176,-19.5 310,-19.5 310,-0.5 176,-0.5"/>
<text text-anchor="middle" x="243" y="-7.5" font-family="FreeSans" font-size="10.00">MWWorld::ESMStore::get</text>
</a>
</g>
</g>
<!-- Node1&#45;&gt;Node5 -->
<g id="edge4" class="edge"><title>Node1&#45;&gt;Node5</title>
<path fill="none" stroke="midnightblue" d="M115.542,-49.4659C132.553,-42.4996 151.975,-34.9754 170,-29 177.167,-26.6241 184.812,-24.3433 192.343,-22.2379"/>
<polygon fill="midnightblue" stroke="midnightblue" points="193.396,-25.5786 202.128,-19.5779 191.56,-18.8237 193.396,-25.5786"/>
</g>
</g>
</svg>
