<?xml version="1.0" encoding="UTF-8" standalone="no"?>
<!DOCTYPE svg PUBLIC "-//W3C//DTD SVG 1.1//EN"
 "http://www.w3.org/Graphics/SVG/1.1/DTD/svg11.dtd">
<!-- Generated by graphviz version 2.36.0 (20140111.2315)
 -->
<!-- Title: MWMechanics::blockMeleeAttack Pages: 1 -->
<svg width="608pt" height="1998pt"
 viewBox="0.00 0.00 608.00 1998.00" xmlns="http://www.w3.org/2000/svg" xmlns:xlink="http://www.w3.org/1999/xlink">
<g id="graph0" class="graph" transform="scale(1 1) rotate(0) translate(4 1994)">
<title>MWMechanics::blockMeleeAttack</title>
<polygon fill="white" stroke="none" points="-4,4 -4,-1994 604,-1994 604,4 -4,4"/>
<!-- Node1 -->
<g id="node1" class="node"><title>Node1</title>
<polygon fill="#bfbfbf" stroke="black" points="0.5,-1002.5 0.5,-1021.5 173.5,-1021.5 173.5,-1002.5 0.5,-1002.5"/>
<text text-anchor="middle" x="87" y="-1009.5" font-family="FreeSans" font-size="10.00">MWMechanics::blockMeleeAttack</text>
</g>
<!-- Node2 -->
<g id="node2" class="node"><title>Node2</title>
<g id="a_node2"><a xlink:href="classMWWorld_1_1Ptr.html#aa2ac4a5579cd19eaa780596f4543ea46" target="_top" xlink:title="MWWorld::Ptr::getClass">
<polygon fill="white" stroke="black" points="238.5,-1970.5 238.5,-1989.5 363.5,-1989.5 363.5,-1970.5 238.5,-1970.5"/>
<text text-anchor="middle" x="301" y="-1977.5" font-family="FreeSans" font-size="10.00">MWWorld::Ptr::getClass</text>
</a>
</g>
</g>
<!-- Node1&#45;&gt;Node2 -->
<g id="edge1" class="edge"><title>Node1&#45;&gt;Node2</title>
<path fill="none" stroke="midnightblue" d="M88.5833,-1021.78C94.381,-1117.61 142.861,-1886.48 210,-1960 215.194,-1965.69 221.616,-1969.94 228.621,-1973.11"/>
<polygon fill="midnightblue" stroke="midnightblue" points="227.88,-1976.56 238.473,-1976.77 230.32,-1970 227.88,-1976.56"/>
</g>
<!-- Node3 -->
<g id="node3" class="node"><title>Node3</title>
<g id="a_node3"><a xlink:href="classMWWorld_1_1Class.html#a23032de169e9d4dc8932bae21e46e9b0" target="_top" xlink:title="Does this object have an inventory store, i.e. equipment slots? (default implementation: false) ...">
<polygon fill="white" stroke="black" points="222,-1921 222,-1951 380,-1951 380,-1921 222,-1921"/>
<text text-anchor="start" x="230" y="-1939" font-family="FreeSans" font-size="10.00">MWWorld::Class::hasInventory</text>
<text text-anchor="middle" x="301" y="-1928" font-family="FreeSans" font-size="10.00">Store</text>
</a>
</g>
</g>
<!-- Node1&#45;&gt;Node3 -->
<g id="edge2" class="edge"><title>Node1&#45;&gt;Node3</title>
<path fill="none" stroke="midnightblue" d="M87.9035,-1021.77C87.2294,-1109.98 86.3926,-1769.32 210,-1911 211.173,-1912.34 212.411,-1913.62 213.706,-1914.83"/>
<polygon fill="midnightblue" stroke="midnightblue" points="211.663,-1917.67 221.703,-1921.06 215.964,-1912.15 211.663,-1917.67"/>
</g>
<!-- Node4 -->
<g id="node4" class="node"><title>Node4</title>
<g id="a_node4"><a xlink:href="classMWWorld_1_1Class.html#a5095a30e5baa5742b3d393610fd73d60" target="_top" xlink:title="MWWorld::Class::getCreature\lStats">
<polygon fill="white" stroke="black" points="224,-1872 224,-1902 378,-1902 378,-1872 224,-1872"/>
<text text-anchor="start" x="232" y="-1890" font-family="FreeSans" font-size="10.00">MWWorld::Class::getCreature</text>
<text text-anchor="middle" x="301" y="-1879" font-family="FreeSans" font-size="10.00">Stats</text>
</a>
</g>
</g>
<!-- Node1&#45;&gt;Node4 -->
<g id="edge3" class="edge"><title>Node1&#45;&gt;Node4</title>
<path fill="none" stroke="midnightblue" d="M87.9867,-1021.5C88.0607,-1105.98 92.614,-1728.49 210,-1862 211.733,-1863.97 213.607,-1865.79 215.597,-1867.48"/>
<polygon fill="midnightblue" stroke="midnightblue" points="213.617,-1870.36 223.795,-1873.31 217.675,-1864.66 213.617,-1870.36"/>
</g>
<!-- Node5 -->
<g id="node5" class="node"><title>Node5</title>
<g id="a_node5"><a xlink:href="classMWMechanics_1_1CreatureStats.html#a4a90e70442c62575c00017c0ea0626cc" target="_top" xlink:title="MWMechanics::CreatureStats\l::getKnockedDown">
<polygon fill="white" stroke="black" points="222.5,-1823 222.5,-1853 379.5,-1853 379.5,-1823 222.5,-1823"/>
<text text-anchor="start" x="230.5" y="-1841" font-family="FreeSans" font-size="10.00">MWMechanics::CreatureStats</text>
<text text-anchor="middle" x="301" y="-1830" font-family="FreeSans" font-size="10.00">::getKnockedDown</text>
</a>
</g>
</g>
<!-- Node1&#45;&gt;Node5 -->
<g id="edge4" class="edge"><title>Node1&#45;&gt;Node5</title>
<path fill="none" stroke="midnightblue" d="M88.0801,-1021.72C88.9555,-1104.3 99.0501,-1687.89 210,-1813 211.221,-1814.38 212.51,-1815.68 213.859,-1816.91"/>
<polygon fill="midnightblue" stroke="midnightblue" points="212.108,-1819.98 222.184,-1823.25 216.348,-1814.41 212.108,-1819.98"/>
</g>
<!-- Node6 -->
<g id="node6" class="node"><title>Node6</title>
<g id="a_node6"><a xlink:href="classMWMechanics_1_1CreatureStats.html#af22263b31335549cb2fa01a817d06199" target="_top" xlink:title="MWMechanics::CreatureStats\l::getHitRecovery">
<polygon fill="white" stroke="black" points="222.5,-1774 222.5,-1804 379.5,-1804 379.5,-1774 222.5,-1774"/>
<text text-anchor="start" x="230.5" y="-1792" font-family="FreeSans" font-size="10.00">MWMechanics::CreatureStats</text>
<text text-anchor="middle" x="301" y="-1781" font-family="FreeSans" font-size="10.00">::getHitRecovery</text>
</a>
</g>
</g>
<!-- Node1&#45;&gt;Node6 -->
<g id="edge5" class="edge"><title>Node1&#45;&gt;Node6</title>
<path fill="none" stroke="midnightblue" d="M88.183,-1021.63C89.8842,-1101 105.331,-1647.12 210,-1764 211.227,-1765.37 212.522,-1766.67 213.877,-1767.9"/>
<polygon fill="midnightblue" stroke="midnightblue" points="212.141,-1770.97 222.228,-1774.21 216.364,-1765.39 212.141,-1770.97"/>
</g>
<!-- Node7 -->
<g id="node7" class="node"><title>Node7</title>
<g id="a_node7"><a xlink:href="classMWMechanics_1_1CreatureStats.html#ae2b73054fdaf82052f81f3bde5a9c90c" target="_top" xlink:title="MWMechanics::CreatureStats\l::isParalyzed">
<polygon fill="white" stroke="black" points="222.5,-1725 222.5,-1755 379.5,-1755 379.5,-1725 222.5,-1725"/>
<text text-anchor="start" x="230.5" y="-1743" font-family="FreeSans" font-size="10.00">MWMechanics::CreatureStats</text>
<text text-anchor="middle" x="301" y="-1732" font-family="FreeSans" font-size="10.00">::isParalyzed</text>
</a>
</g>
</g>
<!-- Node1&#45;&gt;Node7 -->
<g id="edge6" class="edge"><title>Node1&#45;&gt;Node7</title>
<path fill="none" stroke="midnightblue" d="M88.3632,-1021.61C91.4152,-1097.49 115.064,-1599.78 210,-1710 213.045,-1713.54 216.518,-1716.66 220.287,-1719.41"/>
<polygon fill="midnightblue" stroke="midnightblue" points="218.633,-1722.5 228.961,-1724.87 222.364,-1716.58 218.633,-1722.5"/>
</g>
<!-- Node10 -->
<g id="node10" class="node"><title>Node10</title>
<g id="a_node10"><a xlink:href="classMWBase_1_1Environment.html#a73f12633762b049c03c80fe215873faa" target="_top" xlink:title="Return instance of this class. ">
<polygon fill="white" stroke="black" points="441,-1651.5 441,-1670.5 587,-1670.5 587,-1651.5 441,-1651.5"/>
<text text-anchor="middle" x="514" y="-1658.5" font-family="FreeSans" font-size="10.00">MWBase::Environment::get</text>
</a>
</g>
</g>
<!-- Node1&#45;&gt;Node10 -->
<g id="edge9" class="edge"><title>Node1&#45;&gt;Node10</title>
<path fill="none" stroke="midnightblue" d="M88.1691,-1021.92C89.6915,-1097.99 103.591,-1588.34 210,-1677 288.972,-1742.8 423.603,-1698.99 483.155,-1674.44"/>
<polygon fill="midnightblue" stroke="midnightblue" points="484.532,-1677.66 492.38,-1670.54 481.806,-1671.21 484.532,-1677.66"/>
</g>
<!-- Node11 -->
<g id="node11" class="node"><title>Node11</title>
<g id="a_node11"><a xlink:href="classMWBase_1_1Environment.html#a571bbf2793948af02f188c25f0a4ba23" target="_top" xlink:title="MWBase::Environment\l::getMechanicsManager">
<polygon fill="white" stroke="black" points="235.5,-1283 235.5,-1313 366.5,-1313 366.5,-1283 235.5,-1283"/>
<text text-anchor="start" x="243.5" y="-1301" font-family="FreeSans" font-size="10.00">MWBase::Environment</text>
<text text-anchor="middle" x="301" y="-1290" font-family="FreeSans" font-size="10.00">::getMechanicsManager</text>
</a>
</g>
</g>
<!-- Node1&#45;&gt;Node11 -->
<g id="edge10" class="edge"><title>Node1&#45;&gt;Node11</title>
<path fill="none" stroke="midnightblue" d="M89.5303,-1021.56C96.1389,-1059.61 125.805,-1201.76 210,-1273 214.793,-1277.06 220.195,-1280.46 225.912,-1283.31"/>
<polygon fill="midnightblue" stroke="midnightblue" points="224.55,-1286.53 235.114,-1287.35 227.367,-1280.12 224.55,-1286.53"/>
</g>
<!-- Node12 -->
<g id="node12" class="node"><title>Node12</title>
<g id="a_node12"><a xlink:href="classMWMechanics_1_1MechanicsManager.html#a8d7db7bd96c59b9208f1526032632fca" target="_top" xlink:title="MWMechanics::MechanicsManager\l::isReadyToBlock">
<polygon fill="white" stroke="black" points="210,-1234 210,-1264 392,-1264 392,-1234 210,-1234"/>
<text text-anchor="start" x="218" y="-1252" font-family="FreeSans" font-size="10.00">MWMechanics::MechanicsManager</text>
<text text-anchor="middle" x="301" y="-1241" font-family="FreeSans" font-size="10.00">::isReadyToBlock</text>
</a>
</g>
</g>
<!-- Node1&#45;&gt;Node12 -->
<g id="edge11" class="edge"><title>Node1&#45;&gt;Node12</title>
<path fill="none" stroke="midnightblue" d="M90.6966,-1021.79C100.498,-1055.51 137.526,-1167.78 210,-1224 212.342,-1225.82 214.809,-1227.5 217.371,-1229.06"/>
<polygon fill="midnightblue" stroke="midnightblue" points="215.936,-1232.27 226.402,-1233.92 219.251,-1226.1 215.936,-1232.27"/>
</g>
<!-- Node14 -->
<g id="node14" class="node"><title>Node14</title>
<g id="a_node14"><a xlink:href="classMWWorld_1_1Class.html#a852b8ee3c98947449511b85dfa479b28" target="_top" xlink:title="MWWorld::Class::getInventory\lStore">
<polygon fill="white" stroke="black" points="223,-1185 223,-1215 379,-1215 379,-1185 223,-1185"/>
<text text-anchor="start" x="231" y="-1203" font-family="FreeSans" font-size="10.00">MWWorld::Class::getInventory</text>
<text text-anchor="middle" x="301" y="-1192" font-family="FreeSans" font-size="10.00">Store</text>
</a>
</g>
</g>
<!-- Node1&#45;&gt;Node14 -->
<g id="edge13" class="edge"><title>Node1&#45;&gt;Node14</title>
<path fill="none" stroke="midnightblue" d="M92.4659,-1021.84C105.882,-1050.26 148.72,-1133.11 210,-1175 212.899,-1176.98 215.952,-1178.81 219.112,-1180.49"/>
<polygon fill="midnightblue" stroke="midnightblue" points="217.728,-1183.71 228.26,-1184.86 220.743,-1177.39 217.728,-1183.71"/>
</g>
<!-- Node15 -->
<g id="node15" class="node"><title>Node15</title>
<g id="a_node15"><a xlink:href="classMWWorld_1_1InventoryStore.html#a00638734d306421a8aa211947d759e65" target="_top" xlink:title="MWWorld::InventoryStore\l::getSlot">
<polygon fill="white" stroke="black" points="233.5,-1136 233.5,-1166 368.5,-1166 368.5,-1136 233.5,-1136"/>
<text text-anchor="start" x="241.5" y="-1154" font-family="FreeSans" font-size="10.00">MWWorld::InventoryStore</text>
<text text-anchor="middle" x="301" y="-1143" font-family="FreeSans" font-size="10.00">::getSlot</text>
</a>
</g>
</g>
<!-- Node1&#45;&gt;Node15 -->
<g id="edge14" class="edge"><title>Node1&#45;&gt;Node15</title>
<path fill="none" stroke="midnightblue" d="M95.4373,-1021.58C112.955,-1043.47 159.183,-1097.49 210,-1126 214.395,-1128.47 219.05,-1130.7 223.836,-1132.73"/>
<polygon fill="midnightblue" stroke="midnightblue" points="222.58,-1135.99 233.169,-1136.37 225.124,-1129.47 222.58,-1135.99"/>
</g>
<!-- Node16 -->
<g id="node16" class="node"><title>Node16</title>
<g id="a_node16"><a xlink:href="classMWWorld_1_1ContainerStore.html#ab7165a7ef4e2053f7c0b712d017a9f5d" target="_top" xlink:title="MWWorld::ContainerStore::end">
<polygon fill="white" stroke="black" points="220.5,-1097.5 220.5,-1116.5 381.5,-1116.5 381.5,-1097.5 220.5,-1097.5"/>
<text text-anchor="middle" x="301" y="-1104.5" font-family="FreeSans" font-size="10.00">MWWorld::ContainerStore::end</text>
</a>
</g>
</g>
<!-- Node1&#45;&gt;Node16 -->
<g id="edge15" class="edge"><title>Node1&#45;&gt;Node16</title>
<path fill="none" stroke="midnightblue" d="M100.038,-1021.53C121.084,-1037.71 166.478,-1070.49 210,-1088 216.37,-1090.56 223.14,-1092.8 229.995,-1094.75"/>
<polygon fill="midnightblue" stroke="midnightblue" points="229.501,-1098.24 240.063,-1097.41 231.286,-1091.47 229.501,-1098.24"/>
</g>
<!-- Node17 -->
<g id="node17" class="node"><title>Node17</title>
<g id="a_node17"><a xlink:href="classMWWorld_1_1Ptr.html#a6c33fb25a2ac50b8360397272070d298" target="_top" xlink:title="MWWorld::Ptr::getTypeName">
<polygon fill="white" stroke="red" points="226,-1059.5 226,-1078.5 376,-1078.5 376,-1059.5 226,-1059.5"/>
<text text-anchor="middle" x="301" y="-1066.5" font-family="FreeSans" font-size="10.00">MWWorld::Ptr::getTypeName</text>
</a>
</g>
</g>
<!-- Node1&#45;&gt;Node17 -->
<g id="edge16" class="edge"><title>Node1&#45;&gt;Node17</title>
<path fill="none" stroke="midnightblue" d="M115.889,-1021.51C140.479,-1029.69 177.37,-1041.49 210,-1050 219.954,-1052.59 230.597,-1055.09 240.951,-1057.36"/>
<polygon fill="midnightblue" stroke="midnightblue" points="240.246,-1060.79 250.759,-1059.48 241.721,-1053.95 240.246,-1060.79"/>
</g>
<!-- Node18 -->
<g id="node18" class="node"><title>Node18</title>
<g id="a_node18"><a xlink:href="classMWWorld_1_1Ptr.html#aa35780406bea82e5dcff038800bd10e0" target="_top" xlink:title="MWWorld::Ptr::getRefData">
<polygon fill="white" stroke="black" points="232.5,-1021.5 232.5,-1040.5 369.5,-1040.5 369.5,-1021.5 232.5,-1021.5"/>
<text text-anchor="middle" x="301" y="-1028.5" font-family="FreeSans" font-size="10.00">MWWorld::Ptr::getRefData</text>
</a>
</g>
</g>
<!-- Node1&#45;&gt;Node18 -->
<g id="edge17" class="edge"><title>Node1&#45;&gt;Node18</title>
<path fill="none" stroke="midnightblue" d="M173.617,-1019.67C189.643,-1021.11 206.315,-1022.6 222.091,-1024.02"/>
<polygon fill="midnightblue" stroke="midnightblue" points="222.041,-1027.53 232.314,-1024.93 222.666,-1020.56 222.041,-1027.53"/>
</g>
<!-- Node19 -->
<g id="node19" class="node"><title>Node19</title>
<g id="a_node19"><a xlink:href="classMWWorld_1_1RefData.html#a4e86f0a869f982a5e4273b6d0a37a0c8" target="_top" xlink:title="Return base node (can be a null pointer). ">
<polygon fill="white" stroke="black" points="214.5,-983.5 214.5,-1002.5 387.5,-1002.5 387.5,-983.5 214.5,-983.5"/>
<text text-anchor="middle" x="301" y="-990.5" font-family="FreeSans" font-size="10.00">MWWorld::RefData::getBaseNode</text>
</a>
</g>
</g>
<!-- Node1&#45;&gt;Node19 -->
<g id="edge18" class="edge"><title>Node1&#45;&gt;Node19</title>
<path fill="none" stroke="midnightblue" d="M173.617,-1004.33C183.701,-1003.42 194.041,-1002.5 204.253,-1001.58"/>
<polygon fill="midnightblue" stroke="midnightblue" points="204.76,-1005.05 214.408,-1000.67 204.135,-998.078 204.76,-1005.05"/>
</g>
<!-- Node20 -->
<g id="node20" class="node"><title>Node20</title>
<g id="a_node20"><a xlink:href="namespaceanonymous__namespace_02combat_8cpp_03.html#a8af81d1c51a9eda6a1951cea03c7a754" target="_top" xlink:title="anonymous_namespace\l\{combat::cpp\}::signedAngle\lRadians">
<polygon fill="white" stroke="black" points="224.5,-923.5 224.5,-964.5 377.5,-964.5 377.5,-923.5 224.5,-923.5"/>
<text text-anchor="start" x="232.5" y="-952.5" font-family="FreeSans" font-size="10.00">anonymous_namespace</text>
<text text-anchor="start" x="232.5" y="-941.5" font-family="FreeSans" font-size="10.00">{combat::cpp}::signedAngle</text>
<text text-anchor="middle" x="301" y="-930.5" font-family="FreeSans" font-size="10.00">Radians</text>
</a>
</g>
</g>
<!-- Node1&#45;&gt;Node20 -->
<g id="edge19" class="edge"><title>Node1&#45;&gt;Node20</title>
<path fill="none" stroke="midnightblue" d="M117.925,-1002.4C145.899,-993.428 188.815,-979.663 225.956,-967.75"/>
<polygon fill="midnightblue" stroke="midnightblue" points="227.307,-970.992 235.76,-964.605 225.169,-964.327 227.307,-970.992"/>
</g>
<!-- Node21 -->
<g id="node21" class="node"><title>Node21</title>
<g id="a_node21"><a xlink:href="classMWWorld_1_1RefData.html#a32f3f82fc97a20fd3a776751f43ca131" target="_top" xlink:title="MWWorld::RefData::getPosition">
<polygon fill="white" stroke="black" points="220.5,-885.5 220.5,-904.5 381.5,-904.5 381.5,-885.5 220.5,-885.5"/>
<text text-anchor="middle" x="301" y="-892.5" font-family="FreeSans" font-size="10.00">MWWorld::RefData::getPosition</text>
</a>
</g>
</g>
<!-- Node1&#45;&gt;Node21 -->
<g id="edge20" class="edge"><title>Node1&#45;&gt;Node21</title>
<path fill="none" stroke="midnightblue" d="M96.7461,-1002.43C115.46,-982.595 161.632,-936.912 210,-914 215.27,-911.504 220.868,-909.333 226.592,-907.445"/>
<polygon fill="midnightblue" stroke="midnightblue" points="227.739,-910.756 236.311,-904.529 225.727,-904.051 227.739,-910.756"/>
</g>
<!-- Node22 -->
<g id="node22" class="node"><title>Node22</title>
<g id="a_node22"><a xlink:href="structESM_1_1Position.html#a71dbd95e261f1976f60cbe456d450948" target="_top" xlink:title="ESM::Position::asVec3">
<polygon fill="white" stroke="black" points="240,-847.5 240,-866.5 362,-866.5 362,-847.5 240,-847.5"/>
<text text-anchor="middle" x="301" y="-854.5" font-family="FreeSans" font-size="10.00">ESM::Position::asVec3</text>
</a>
</g>
</g>
<!-- Node1&#45;&gt;Node22 -->
<g id="edge21" class="edge"><title>Node1&#45;&gt;Node22</title>
<path fill="none" stroke="midnightblue" d="M93.6688,-1002.2C108.901,-976.83 153.42,-908.684 210,-876 216.274,-872.375 223.152,-869.439 230.222,-867.06"/>
<polygon fill="midnightblue" stroke="midnightblue" points="231.367,-870.371 239.943,-864.15 229.36,-863.665 231.367,-870.371"/>
</g>
<!-- Node23 -->
<g id="node23" class="node"><title>Node23</title>
<g id="a_node23"><a xlink:href="classSceneUtil_1_1PositionAttitudeTransform.html#a9508a5c3e9de03a48807e9b9f8445026" target="_top" xlink:title="SceneUtil::PositionAttitude\lTransform::getAttitude">
<polygon fill="white" stroke="black" points="229,-798 229,-828 373,-828 373,-798 229,-798"/>
<text text-anchor="start" x="237" y="-816" font-family="FreeSans" font-size="10.00">SceneUtil::PositionAttitude</text>
<text text-anchor="middle" x="301" y="-805" font-family="FreeSans" font-size="10.00">Transform::getAttitude</text>
</a>
</g>
</g>
<!-- Node1&#45;&gt;Node23 -->
<g id="edge22" class="edge"><title>Node1&#45;&gt;Node23</title>
<path fill="none" stroke="midnightblue" d="M91.912,-1002.35C104.375,-972.843 146.122,-883.135 210,-838 213.025,-835.862 216.228,-833.907 219.551,-832.119"/>
<polygon fill="midnightblue" stroke="midnightblue" points="221.101,-835.257 228.592,-827.764 218.064,-828.95 221.101,-835.257"/>
</g>
<!-- Node24 -->
<g id="node24" class="node"><title>Node24</title>
<g id="a_node24"><a xlink:href="classMWBase_1_1Environment.html#ae14e166d8f5ff8629be119333d502660" target="_top" xlink:title="MWBase::Environment\l::getWorld">
<polygon fill="white" stroke="black" points="452,-1602 452,-1632 576,-1632 576,-1602 452,-1602"/>
<text text-anchor="start" x="460" y="-1620" font-family="FreeSans" font-size="10.00">MWBase::Environment</text>
<text text-anchor="middle" x="514" y="-1609" font-family="FreeSans" font-size="10.00">::getWorld</text>
</a>
</g>
</g>
<!-- Node1&#45;&gt;Node24 -->
<g id="edge23" class="edge"><title>Node1&#45;&gt;Node24</title>
<path fill="none" stroke="midnightblue" d="M88.5619,-1021.76C92.7469,-1090.8 121.383,-1505.2 210,-1585 272.251,-1641.06 373.441,-1640.01 441.568,-1631.05"/>
<polygon fill="midnightblue" stroke="midnightblue" points="442.373,-1634.47 451.789,-1629.61 441.4,-1627.54 442.373,-1634.47"/>
</g>
<!-- Node25 -->
<g id="node25" class="node"><title>Node25</title>
<g id="a_node25"><a xlink:href="classMWBase_1_1World.html#a2ba0910cb944786065e37dc5f3fcda35" target="_top" xlink:title="MWBase::World::getStore">
<polygon fill="white" stroke="black" points="445.5,-1562.5 445.5,-1581.5 582.5,-1581.5 582.5,-1562.5 445.5,-1562.5"/>
<text text-anchor="middle" x="514" y="-1569.5" font-family="FreeSans" font-size="10.00">MWBase::World::getStore</text>
</a>
</g>
</g>
<!-- Node1&#45;&gt;Node25 -->
<g id="edge24" class="edge"><title>Node1&#45;&gt;Node25</title>
<path fill="none" stroke="midnightblue" d="M88.6769,-1021.58C93.5515,-1087.61 125.542,-1474.96 210,-1548 281.228,-1609.6 400.387,-1596.98 466.042,-1583.68"/>
<polygon fill="midnightblue" stroke="midnightblue" points="467.046,-1587.05 476.105,-1581.56 465.597,-1580.2 467.046,-1587.05"/>
</g>
<!-- Node26 -->
<g id="node26" class="node"><title>Node26</title>
<g id="a_node26"><a xlink:href="classMWWorld_1_1ESMStore.html#a94ffe201bd012dd41fcdabfb35c69e24" target="_top" xlink:title="MWWorld::ESMStore::get">
<polygon fill="white" stroke="black" points="447,-1523.5 447,-1542.5 581,-1542.5 581,-1523.5 447,-1523.5"/>
<text text-anchor="middle" x="514" y="-1530.5" font-family="FreeSans" font-size="10.00">MWWorld::ESMStore::get</text>
</a>
</g>
</g>
<!-- Node1&#45;&gt;Node26 -->
<g id="edge25" class="edge"><title>Node1&#45;&gt;Node26</title>
<path fill="none" stroke="midnightblue" d="M88.7443,-1021.61C93.96,-1086.21 127.267,-1456.65 210,-1524 243.444,-1551.23 358.253,-1547.28 436.54,-1540.92"/>
<polygon fill="midnightblue" stroke="midnightblue" points="437.183,-1544.38 446.853,-1540.05 436.595,-1537.4 437.183,-1544.38"/>
</g>
<!-- Node27 -->
<g id="node27" class="node"><title>Node27</title>
<g id="a_node27"><a xlink:href="classMWWorld_1_1Store.html#a3ca0f52b3814776b34ecfea3a44ea5ab" target="_top" xlink:title="MWWorld::Store::find">
<polygon fill="white" stroke="black" points="457,-1482.5 457,-1501.5 571,-1501.5 571,-1482.5 457,-1482.5"/>
<text text-anchor="middle" x="514" y="-1489.5" font-family="FreeSans" font-size="10.00">MWWorld::Store::find</text>
</a>
</g>
</g>
<!-- Node1&#45;&gt;Node27 -->
<g id="edge26" class="edge"><title>Node1&#45;&gt;Node27</title>
<path fill="none" stroke="midnightblue" d="M87.5702,-1021.6C85.8669,-1072.15 84.9205,-1309.63 210,-1426 227.281,-1442.08 363.079,-1467.1 446.905,-1481.27"/>
<polygon fill="midnightblue" stroke="midnightblue" points="446.417,-1484.73 456.859,-1482.94 447.577,-1477.83 446.417,-1484.73"/>
</g>
<!-- Node28 -->
<g id="node28" class="node"><title>Node28</title>
<g id="a_node28"><a xlink:href="structESM_1_1GameSetting.html#adf86d0e6166ce3e4ec8a75ab31380344" target="_top" xlink:title="Throws an exception if GMST is not of type int or float. ">
<polygon fill="white" stroke="red" points="438,-1439.5 438,-1458.5 590,-1458.5 590,-1439.5 438,-1439.5"/>
<text text-anchor="middle" x="514" y="-1446.5" font-family="FreeSans" font-size="10.00">ESM::GameSetting::getFloat</text>
</a>
</g>
</g>
<!-- Node1&#45;&gt;Node28 -->
<g id="edge27" class="edge"><title>Node1&#45;&gt;Node28</title>
<path fill="none" stroke="midnightblue" d="M87.8635,-1021.71C87.7504,-1069.83 93.9462,-1284.59 210,-1388 241.631,-1416.19 349.528,-1432.81 427.567,-1441.41"/>
<polygon fill="midnightblue" stroke="midnightblue" points="427.572,-1444.93 437.889,-1442.52 428.321,-1437.97 427.572,-1444.93"/>
</g>
<!-- Node29 -->
<g id="node29" class="node"><title>Node29</title>
<g id="a_node29"><a xlink:href="classMWWorld_1_1Class.html#a34eba4af23abc1b06b41fc93bf816b5c" target="_top" xlink:title="MWWorld::Class::getSkill">
<polygon fill="white" stroke="black" points="235.5,-759.5 235.5,-778.5 366.5,-778.5 366.5,-759.5 235.5,-759.5"/>
<text text-anchor="middle" x="301" y="-766.5" font-family="FreeSans" font-size="10.00">MWWorld::Class::getSkill</text>
</a>
</g>
</g>
<!-- Node1&#45;&gt;Node29 -->
<g id="edge28" class="edge"><title>Node1&#45;&gt;Node29</title>
<path fill="none" stroke="midnightblue" d="M90.3013,-1002.06C99.0145,-966.759 133.443,-846.529 210,-789 214.755,-785.427 220.025,-782.47 225.561,-780.026"/>
<polygon fill="midnightblue" stroke="midnightblue" points="226.999,-783.223 235.085,-776.377 224.495,-776.686 226.999,-783.223"/>
</g>
<!-- Node30 -->
<g id="node30" class="node"><title>Node30</title>
<g id="a_node30"><a xlink:href="classMWMechanics_1_1CreatureStats.html#a4c54d8a712b5e278a0931b368b6bd0df" target="_top" xlink:title="MWMechanics::CreatureStats\l::getAttribute">
<polygon fill="white" stroke="black" points="222.5,-710 222.5,-740 379.5,-740 379.5,-710 222.5,-710"/>
<text text-anchor="start" x="230.5" y="-728" font-family="FreeSans" font-size="10.00">MWMechanics::CreatureStats</text>
<text text-anchor="middle" x="301" y="-717" font-family="FreeSans" font-size="10.00">::getAttribute</text>
</a>
</g>
</g>
<!-- Node1&#45;&gt;Node30 -->
<g id="edge29" class="edge"><title>Node1&#45;&gt;Node30</title>
<path fill="none" stroke="midnightblue" d="M89.518,-1002.41C96.0799,-964.211 125.592,-821.526 210,-750 212.003,-748.303 214.112,-746.721 216.306,-745.245"/>
<polygon fill="midnightblue" stroke="midnightblue" points="218.286,-748.142 225.147,-740.068 214.749,-742.101 218.286,-748.142"/>
</g>
<!-- Node31 -->
<g id="node31" class="node"><title>Node31</title>
<g id="a_node31"><a xlink:href="classMWMechanics_1_1AttributeValue.html#a3e84af12530d0e2cf3a45b25fa9b4fc8" target="_top" xlink:title="MWMechanics::AttributeValue\l::getModified">
<polygon fill="white" stroke="black" points="222,-661 222,-691 380,-691 380,-661 222,-661"/>
<text text-anchor="start" x="230" y="-679" font-family="FreeSans" font-size="10.00">MWMechanics::AttributeValue</text>
<text text-anchor="middle" x="301" y="-668" font-family="FreeSans" font-size="10.00">::getModified</text>
</a>
</g>
</g>
<!-- Node1&#45;&gt;Node31 -->
<g id="edge30" class="edge"><title>Node1&#45;&gt;Node31</title>
<path fill="none" stroke="midnightblue" d="M88.7457,-1002.43C92.5712,-960.093 113.747,-787.826 210,-701 211.712,-699.456 213.512,-698.006 215.384,-696.644"/>
<polygon fill="midnightblue" stroke="midnightblue" points="217.403,-699.509 224.009,-691.226 213.68,-693.581 217.403,-699.509"/>
</g>
<!-- Node32 -->
<g id="node32" class="node"><title>Node32</title>
<g id="a_node32"><a xlink:href="classMWWorld_1_1Class.html#a2fe5e15560aa224f5e5ef4e92bda540b" target="_top" xlink:title="Return desired movement. ">
<polygon fill="white" stroke="black" points="219.5,-612 219.5,-642 382.5,-642 382.5,-612 219.5,-612"/>
<text text-anchor="start" x="227.5" y="-630" font-family="FreeSans" font-size="10.00">MWWorld::Class::getMovement</text>
<text text-anchor="middle" x="301" y="-619" font-family="FreeSans" font-size="10.00">Settings</text>
</a>
</g>
</g>
<!-- Node1&#45;&gt;Node32 -->
<g id="edge31" class="edge"><title>Node1&#45;&gt;Node32</title>
<path fill="none" stroke="midnightblue" d="M88.1785,-1002.24C89.5758,-955.693 101.881,-754.249 210,-652 211.675,-650.416 213.442,-648.93 215.285,-647.538"/>
<polygon fill="midnightblue" stroke="midnightblue" points="217.324,-650.387 223.807,-642.007 213.513,-644.515 217.324,-650.387"/>
</g>
<!-- Node33 -->
<g id="node33" class="node"><title>Node33</title>
<g id="a_node33"><a xlink:href="classMWMechanics_1_1CreatureStats.html#a50da4580fdbd7e4f6daec42d92811154" target="_top" xlink:title="Return effective fatigue. ">
<polygon fill="white" stroke="red" points="222.5,-1485 222.5,-1515 379.5,-1515 379.5,-1485 222.5,-1485"/>
<text text-anchor="start" x="230.5" y="-1503" font-family="FreeSans" font-size="10.00">MWMechanics::CreatureStats</text>
<text text-anchor="middle" x="301" y="-1492" font-family="FreeSans" font-size="10.00">::getFatigueTerm</text>
</a>
</g>
</g>
<!-- Node1&#45;&gt;Node33 -->
<g id="edge32" class="edge"><title>Node1&#45;&gt;Node33</title>
<path fill="none" stroke="midnightblue" d="M89.3455,-1021.88C97.7449,-1082.19 144.75,-1400.61 210,-1470 213.417,-1473.63 217.284,-1476.83 221.448,-1479.63"/>
<polygon fill="midnightblue" stroke="midnightblue" points="219.967,-1482.82 230.363,-1484.87 223.512,-1476.79 219.967,-1482.82"/>
</g>
<!-- Node34 -->
<g id="node34" class="node"><title>Node34</title>
<g id="a_node34"><a xlink:href="classMWMechanics_1_1CreatureStats.html#ae962c8518e43e517e2aec4d89a5aafe2" target="_top" xlink:title="MWMechanics::CreatureStats\l::getFatigue">
<polygon fill="white" stroke="black" points="435.5,-1380 435.5,-1410 592.5,-1410 592.5,-1380 435.5,-1380"/>
<text text-anchor="start" x="443.5" y="-1398" font-family="FreeSans" font-size="10.00">MWMechanics::CreatureStats</text>
<text text-anchor="middle" x="514" y="-1387" font-family="FreeSans" font-size="10.00">::getFatigue</text>
</a>
</g>
</g>
<!-- Node1&#45;&gt;Node34 -->
<g id="edge49" class="edge"><title>Node1&#45;&gt;Node34</title>
<path fill="none" stroke="midnightblue" d="M88.0306,-1021.7C88.7485,-1067.9 98.4086,-1267.16 210,-1357 242.21,-1382.93 347.675,-1391.37 425.157,-1394.01"/>
<polygon fill="midnightblue" stroke="midnightblue" points="425.311,-1397.51 435.415,-1394.33 425.53,-1390.52 425.311,-1397.51"/>
</g>
<!-- Node35 -->
<g id="node35" class="node"><title>Node35</title>
<g id="a_node35"><a xlink:href="classMWMechanics_1_1DynamicStat.html#a396a1a67b23dde7489b7afa6bcdc2dee" target="_top" xlink:title="MWMechanics::DynamicStat\l::getCurrent">
<polygon fill="white" stroke="black" points="438,-1329 438,-1359 590,-1359 590,-1329 438,-1329"/>
<text text-anchor="start" x="446" y="-1347" font-family="FreeSans" font-size="10.00">MWMechanics::DynamicStat</text>
<text text-anchor="middle" x="514" y="-1336" font-family="FreeSans" font-size="10.00">::getCurrent</text>
</a>
</g>
</g>
<!-- Node1&#45;&gt;Node35 -->
<g id="edge53" class="edge"><title>Node1&#45;&gt;Node35</title>
<path fill="none" stroke="midnightblue" d="M88.3501,-1021.72C90.5025,-1065.47 105.635,-1245.24 210,-1322 272.741,-1368.15 363.919,-1368.38 429.851,-1360.31"/>
<polygon fill="midnightblue" stroke="midnightblue" points="430.338,-1363.77 439.798,-1359 429.428,-1356.83 430.338,-1363.77"/>
</g>
<!-- Node36 -->
<g id="node36" class="node"><title>Node36</title>
<g id="a_node36"><a xlink:href="classMWWorld_1_1Ptr.html#a0662c1165166221fd0f874e37ac24613" target="_top" xlink:title="MWWorld::Ptr::isEmpty">
<polygon fill="white" stroke="black" points="240,-573.5 240,-592.5 362,-592.5 362,-573.5 240,-573.5"/>
<text text-anchor="middle" x="301" y="-580.5" font-family="FreeSans" font-size="10.00">MWWorld::Ptr::isEmpty</text>
</a>
</g>
</g>
<!-- Node1&#45;&gt;Node36 -->
<g id="edge41" class="edge"><title>Node1&#45;&gt;Node36</title>
<path fill="none" stroke="midnightblue" d="M87.6125,-1002.19C86.1833,-951.582 86.6319,-717.881 210,-603 215.848,-597.555 222.837,-593.472 230.301,-590.429"/>
<polygon fill="midnightblue" stroke="midnightblue" points="231.642,-593.669 239.958,-587.105 229.364,-587.05 231.642,-593.669"/>
</g>
<!-- Node37 -->
<g id="node37" class="node"><title>Node37</title>
<g id="a_node37"><a xlink:href="classMWWorld_1_1Class.html#acf147f9b28758f5515f382777ef97f05" target="_top" xlink:title="MWWorld::Class::getEquipment\lSkill">
<polygon fill="white" stroke="black" points="219,-524 219,-554 383,-554 383,-524 219,-524"/>
<text text-anchor="start" x="227" y="-542" font-family="FreeSans" font-size="10.00">MWWorld::Class::getEquipment</text>
<text text-anchor="middle" x="301" y="-531" font-family="FreeSans" font-size="10.00">Skill</text>
</a>
</g>
</g>
<!-- Node1&#45;&gt;Node37 -->
<g id="edge42" class="edge"><title>Node1&#45;&gt;Node37</title>
<path fill="none" stroke="midnightblue" d="M89.3301,-1002.29C97.6377,-943.014 144.19,-630.145 210,-564 211.415,-562.577 212.904,-561.234 214.456,-559.965"/>
<polygon fill="midnightblue" stroke="midnightblue" points="216.49,-562.814 222.693,-554.225 212.488,-557.071 216.49,-562.814"/>
</g>
<!-- Node38 -->
<g id="node38" class="node"><title>Node38</title>
<g id="a_node38"><a xlink:href="structESM_1_1GameSetting.html#a1fcd19eb4d50405ecf1e9b4920a48f9d" target="_top" xlink:title="Throws an exception if GMST is not of type int or float. ">
<polygon fill="white" stroke="red" points="230.5,-485.5 230.5,-504.5 371.5,-504.5 371.5,-485.5 230.5,-485.5"/>
<text text-anchor="middle" x="301" y="-492.5" font-family="FreeSans" font-size="10.00">ESM::GameSetting::getInt</text>
</a>
</g>
</g>
<!-- Node1&#45;&gt;Node38 -->
<g id="edge43" class="edge"><title>Node1&#45;&gt;Node38</title>
<path fill="none" stroke="midnightblue" d="M88.9856,-1002.44C95.6417,-939.713 136.008,-587.379 210,-515 213.307,-511.765 217.016,-509.005 220.991,-506.655"/>
<polygon fill="midnightblue" stroke="midnightblue" points="222.677,-509.725 230.072,-502.138 219.56,-503.458 222.677,-509.725"/>
</g>
<!-- Node39 -->
<g id="node39" class="node"><title>Node39</title>
<g id="a_node39"><a xlink:href="classMisc_1_1Rng.html#aec419b288e293d8e9a64eccbc96713f1" target="_top" xlink:title="return value in range [0, 99] ">
<polygon fill="white" stroke="red" points="246,-447.5 246,-466.5 356,-466.5 356,-447.5 246,-447.5"/>
<text text-anchor="middle" x="301" y="-454.5" font-family="FreeSans" font-size="10.00">Misc::Rng::roll0to99</text>
</a>
</g>
</g>
<!-- Node1&#45;&gt;Node39 -->
<g id="edge44" class="edge"><title>Node1&#45;&gt;Node39</title>
<path fill="none" stroke="midnightblue" d="M88.8215,-1002.12C94.5451,-935.661 130.596,-554.164 210,-476 217.17,-468.942 226.261,-464.208 235.894,-461.08"/>
<polygon fill="midnightblue" stroke="midnightblue" points="236.905,-464.433 245.657,-458.462 235.092,-457.672 236.905,-464.433"/>
</g>
<!-- Node40 -->
<g id="node40" class="node"><title>Node40</title>
<g id="a_node40"><a xlink:href="classMWWorld_1_1Class.html#a5537c9812ceb8e5a8100652eac05ec63" target="_top" xlink:title="Return current item health or throw an exception if class does not have item health. ">
<polygon fill="white" stroke="red" points="218.5,-409.5 218.5,-428.5 383.5,-428.5 383.5,-409.5 218.5,-409.5"/>
<text text-anchor="middle" x="301" y="-416.5" font-family="FreeSans" font-size="10.00">MWWorld::Class::getItemHealth</text>
</a>
</g>
</g>
<!-- Node1&#45;&gt;Node40 -->
<g id="edge45" class="edge"><title>Node1&#45;&gt;Node40</title>
<path fill="none" stroke="midnightblue" d="M88.6485,-1002.32C93.4343,-933.812 125.476,-522.408 210,-438 211.282,-436.72 212.627,-435.516 214.027,-434.384"/>
<polygon fill="midnightblue" stroke="midnightblue" points="216.223,-437.126 222.59,-428.657 212.331,-431.307 216.223,-437.126"/>
</g>
<!-- Node41 -->
<g id="node41" class="node"><title>Node41</title>
<g id="a_node41"><a xlink:href="classMWWorld_1_1Ptr.html#acb6d9fb770fd8b8814df2358596ba656" target="_top" xlink:title="MWWorld::Ptr::getCellRef">
<polygon fill="white" stroke="black" points="235.5,-371.5 235.5,-390.5 366.5,-390.5 366.5,-371.5 235.5,-371.5"/>
<text text-anchor="middle" x="301" y="-378.5" font-family="FreeSans" font-size="10.00">MWWorld::Ptr::getCellRef</text>
</a>
</g>
</g>
<!-- Node1&#45;&gt;Node41 -->
<g id="edge46" class="edge"><title>Node1&#45;&gt;Node41</title>
<path fill="none" stroke="midnightblue" d="M88.5213,-1002.15C92.5102,-930.563 120.495,-490.521 210,-400 214.568,-395.38 219.958,-391.748 225.793,-388.908"/>
<polygon fill="midnightblue" stroke="midnightblue" points="227.319,-392.066 235.273,-385.067 224.691,-385.578 227.319,-392.066"/>
</g>
<!-- Node42 -->
<g id="node42" class="node"><title>Node42</title>
<g id="a_node42"><a xlink:href="classMWWorld_1_1CellRef.html#aa2f23953fba630de0d81b5fdfa6218a6" target="_top" xlink:title="MWWorld::CellRef::setCharge">
<polygon fill="white" stroke="black" points="225,-333.5 225,-352.5 377,-352.5 377,-333.5 225,-333.5"/>
<text text-anchor="middle" x="301" y="-340.5" font-family="FreeSans" font-size="10.00">MWWorld::CellRef::setCharge</text>
</a>
</g>
</g>
<!-- Node1&#45;&gt;Node42 -->
<g id="edge47" class="edge"><title>Node1&#45;&gt;Node42</title>
<path fill="none" stroke="midnightblue" d="M88.3832,-1002.49C91.5183,-929.542 115.283,-458.875 210,-362 211.856,-360.102 213.851,-358.37 215.958,-356.791"/>
<polygon fill="midnightblue" stroke="midnightblue" points="217.942,-359.679 224.59,-351.429 214.248,-353.732 217.942,-359.679"/>
</g>
<!-- Node43 -->
<g id="node43" class="node"><title>Node43</title>
<g id="a_node43"><a xlink:href="classMWWorld_1_1InventoryStore.html#a6e7ee321ad1de031f13715e67f53cdbc" target="_top" xlink:title="MWWorld::InventoryStore\l::unequipItem">
<polygon fill="white" stroke="black" points="233.5,-284 233.5,-314 368.5,-314 368.5,-284 233.5,-284"/>
<text text-anchor="start" x="241.5" y="-302" font-family="FreeSans" font-size="10.00">MWWorld::InventoryStore</text>
<text text-anchor="middle" x="301" y="-291" font-family="FreeSans" font-size="10.00">::unequipItem</text>
</a>
</g>
</g>
<!-- Node1&#45;&gt;Node43 -->
<g id="edge48" class="edge"><title>Node1&#45;&gt;Node43</title>
<path fill="none" stroke="midnightblue" d="M88.3364,-1002.48C91.1803,-927.351 113.522,-430.155 210,-324 214.053,-319.541 218.825,-315.85 224.022,-312.797"/>
<polygon fill="midnightblue" stroke="midnightblue" points="225.745,-315.849 233.119,-308.24 222.61,-309.59 225.745,-315.849"/>
</g>
<!-- Node44 -->
<g id="node44" class="node"><title>Node44</title>
<g id="a_node44"><a xlink:href="classMWWorld_1_1Class.html#a4b42fcf786a3235a5b278cdefbad53f3" target="_top" xlink:title="Returns encumbrance re&#45;scaled to capacity. ">
<polygon fill="white" stroke="red" points="217.5,-235 217.5,-265 384.5,-265 384.5,-235 217.5,-235"/>
<text text-anchor="start" x="225.5" y="-253" font-family="FreeSans" font-size="10.00">MWWorld::Class::getNormalized</text>
<text text-anchor="middle" x="301" y="-242" font-family="FreeSans" font-size="10.00">Encumbrance</text>
</a>
</g>
</g>
<!-- Node1&#45;&gt;Node44 -->
<g id="edge50" class="edge"><title>Node1&#45;&gt;Node44</title>
<path fill="none" stroke="midnightblue" d="M88.219,-1002.31C90.1911,-923.631 107.289,-389.323 210,-275 211.192,-273.673 212.448,-272.414 213.76,-271.219"/>
<polygon fill="midnightblue" stroke="midnightblue" points="216.006,-273.908 221.833,-265.059 211.76,-268.343 216.006,-273.908"/>
</g>
<!-- Node45 -->
<g id="node45" class="node"><title>Node45</title>
<g id="a_node45"><a xlink:href="classMWWorld_1_1Class.html#a22ea0538e88de008fb366606c30f8117" target="_top" xlink:title="MWWorld::Class::getWeight">
<polygon fill="white" stroke="black" points="229.5,-196.5 229.5,-215.5 372.5,-215.5 372.5,-196.5 229.5,-196.5"/>
<text text-anchor="middle" x="301" y="-203.5" font-family="FreeSans" font-size="10.00">MWWorld::Class::getWeight</text>
</a>
</g>
</g>
<!-- Node1&#45;&gt;Node45 -->
<g id="edge51" class="edge"><title>Node1&#45;&gt;Node45</title>
<path fill="none" stroke="midnightblue" d="M88.0601,-1002.41C88.7683,-921.005 97.7373,-345.769 210,-226 213.017,-222.781 216.428,-220.024 220.112,-217.665"/>
<polygon fill="midnightblue" stroke="midnightblue" points="221.965,-220.644 229.15,-212.858 218.678,-214.464 221.965,-220.644"/>
</g>
<!-- Node46 -->
<g id="node46" class="node"><title>Node46</title>
<g id="a_node46"><a xlink:href="classMWMechanics_1_1DynamicStat.html#abb00fb02a2face04357f86ec5117d2ec" target="_top" xlink:title="MWMechanics::DynamicStat\l::setCurrent">
<polygon fill="white" stroke="black" points="225,-147 225,-177 377,-177 377,-147 225,-147"/>
<text text-anchor="start" x="233" y="-165" font-family="FreeSans" font-size="10.00">MWMechanics::DynamicStat</text>
<text text-anchor="middle" x="301" y="-154" font-family="FreeSans" font-size="10.00">::setCurrent</text>
</a>
</g>
</g>
<!-- Node1&#45;&gt;Node46 -->
<g id="edge52" class="edge"><title>Node1&#45;&gt;Node46</title>
<path fill="none" stroke="midnightblue" d="M88.0332,-1002.25C88.5162,-918.225 95.9595,-316.154 210,-187 211.962,-184.778 214.103,-182.745 216.387,-180.887"/>
<polygon fill="midnightblue" stroke="midnightblue" points="218.387,-183.76 224.653,-175.217 214.427,-177.987 218.387,-183.76"/>
</g>
<!-- Node47 -->
<g id="node47" class="node"><title>Node47</title>
<g id="a_node47"><a xlink:href="classMWMechanics_1_1CreatureStats.html#a670dcf81e6b972c3e15b045bc866a769" target="_top" xlink:title="MWMechanics::CreatureStats\l::setFatigue">
<polygon fill="white" stroke="red" points="222.5,-98 222.5,-128 379.5,-128 379.5,-98 222.5,-98"/>
<text text-anchor="start" x="230.5" y="-116" font-family="FreeSans" font-size="10.00">MWMechanics::CreatureStats</text>
<text text-anchor="middle" x="301" y="-105" font-family="FreeSans" font-size="10.00">::setFatigue</text>
</a>
</g>
</g>
<!-- Node1&#45;&gt;Node47 -->
<g id="edge54" class="edge"><title>Node1&#45;&gt;Node47</title>
<path fill="none" stroke="midnightblue" d="M87.9449,-1002.23C87.6529,-915.383 89.6309,-275.442 210,-138 211.212,-136.616 212.493,-135.306 213.835,-134.065"/>
<polygon fill="midnightblue" stroke="midnightblue" points="216.328,-136.564 222.127,-127.696 212.064,-131.012 216.328,-136.564"/>
</g>
<!-- Node48 -->
<g id="node48" class="node"><title>Node48</title>
<g id="a_node48"><a xlink:href="classMWMechanics_1_1CreatureStats.html#a90376334e1f760a0406e84c5afb4a897" target="_top" xlink:title="MWMechanics::CreatureStats\l::setBlock">
<polygon fill="white" stroke="black" points="222.5,-49 222.5,-79 379.5,-79 379.5,-49 222.5,-49"/>
<text text-anchor="start" x="230.5" y="-67" font-family="FreeSans" font-size="10.00">MWMechanics::CreatureStats</text>
<text text-anchor="middle" x="301" y="-56" font-family="FreeSans" font-size="10.00">::setBlock</text>
</a>
</g>
</g>
<!-- Node1&#45;&gt;Node48 -->
<g id="edge55" class="edge"><title>Node1&#45;&gt;Node48</title>
<path fill="none" stroke="midnightblue" d="M87.8544,-1002.24C86.7174,-912.65 82.3935,-233.277 210,-88 211.211,-86.6218 212.491,-85.3186 213.832,-84.0864"/>
<polygon fill="midnightblue" stroke="midnightblue" points="216.28,-86.6211 222.118,-77.7794 212.041,-81.051 216.28,-86.6211"/>
</g>
<!-- Node49 -->
<g id="node49" class="node"><title>Node49</title>
<g id="a_node49"><a xlink:href="namespaceMWMechanics.html#a90645fe67f9b8b658452cd004d2cbb65" target="_top" xlink:title="MWMechanics::getPlayer">
<polygon fill="white" stroke="red" points="234,-1648.5 234,-1667.5 368,-1667.5 368,-1648.5 234,-1648.5"/>
<text text-anchor="middle" x="301" y="-1655.5" font-family="FreeSans" font-size="10.00">MWMechanics::getPlayer</text>
</a>
</g>
</g>
<!-- Node1&#45;&gt;Node49 -->
<g id="edge56" class="edge"><title>Node1&#45;&gt;Node49</title>
<path fill="none" stroke="midnightblue" d="M88.519,-1021.51C92.5816,-1092.47 121.492,-1539.36 210,-1634 214.175,-1638.46 219.079,-1642.13 224.406,-1645.14"/>
<polygon fill="midnightblue" stroke="midnightblue" points="223.186,-1648.44 233.715,-1649.62 226.217,-1642.13 223.186,-1648.44"/>
</g>
<!-- Node50 -->
<g id="node50" class="node"><title>Node50</title>
<g id="a_node50"><a xlink:href="classMWWorld_1_1Class.html#a3593e974c4000b21d5a178093bc491cc" target="_top" xlink:title="MWWorld::Class::skillUsage\lSucceeded">
<polygon fill="white" stroke="black" points="229,-0 229,-30 373,-30 373,-0 229,-0"/>
<text text-anchor="start" x="237" y="-18" font-family="FreeSans" font-size="10.00">MWWorld::Class::skillUsage</text>
<text text-anchor="middle" x="301" y="-7" font-family="FreeSans" font-size="10.00">Succeeded</text>
</a>
</g>
</g>
<!-- Node1&#45;&gt;Node50 -->
<g id="edge59" class="edge"><title>Node1&#45;&gt;Node50</title>
<path fill="none" stroke="midnightblue" d="M88.5651,-1002.28C94.2775,-905.439 142.77,-116.046 210,-39 212.93,-35.6417 216.273,-32.7283 219.905,-30.2029"/>
<polygon fill="midnightblue" stroke="midnightblue" points="221.973,-33.049 228.848,-24.988 218.447,-27.002 221.973,-33.049"/>
</g>
<!-- Node8 -->
<g id="node8" class="node"><title>Node8</title>
<g id="a_node8"><a xlink:href="classMWMechanics_1_1MagicEffects.html#aa9771d1e0e2d3fa1378fc3bb0c338a28" target="_top" xlink:title="This function can safely be used for keys that are not present. ">
<polygon fill="white" stroke="black" points="428.5,-1711.5 428.5,-1730.5 599.5,-1730.5 599.5,-1711.5 428.5,-1711.5"/>
<text text-anchor="middle" x="514" y="-1718.5" font-family="FreeSans" font-size="10.00">MWMechanics::MagicEffects::get</text>
</a>
</g>
</g>
<!-- Node7&#45;&gt;Node8 -->
<g id="edge7" class="edge"><title>Node7&#45;&gt;Node8</title>
<path fill="none" stroke="midnightblue" d="M379.67,-1733.01C392.187,-1731.88 405.267,-1730.7 418.134,-1729.54"/>
<polygon fill="midnightblue" stroke="midnightblue" points="418.746,-1733 428.392,-1728.62 418.119,-1726.03 418.746,-1733"/>
</g>
<!-- Node9 -->
<g id="node9" class="node"><title>Node9</title>
<g id="a_node9"><a xlink:href="structMWMechanics_1_1EffectParam.html#a1bb9e5f90a32bab2fa1d7e5d08360a51" target="_top" xlink:title="Get the total magnitude including base and modifier. ">
<polygon fill="white" stroke="black" points="440.5,-1750 440.5,-1780 587.5,-1780 587.5,-1750 440.5,-1750"/>
<text text-anchor="start" x="448.5" y="-1768" font-family="FreeSans" font-size="10.00">MWMechanics::EffectParam</text>
<text text-anchor="middle" x="514" y="-1757" font-family="FreeSans" font-size="10.00">::getMagnitude</text>
</a>
</g>
</g>
<!-- Node7&#45;&gt;Node9 -->
<g id="edge8" class="edge"><title>Node7&#45;&gt;Node9</title>
<path fill="none" stroke="midnightblue" d="M379.67,-1749.2C396.115,-1751.15 413.532,-1753.21 430.161,-1755.18"/>
<polygon fill="midnightblue" stroke="midnightblue" points="430.054,-1758.7 440.397,-1756.4 430.878,-1751.75 430.054,-1758.7"/>
</g>
<!-- Node13 -->
<g id="node13" class="node"><title>Node13</title>
<g id="a_node13"><a xlink:href="classMWMechanics_1_1Actors.html#a2147f8a1b855cd3c7599d1f8180fd857" target="_top" xlink:title="MWMechanics::Actors\l::isReadyToBlock">
<polygon fill="white" stroke="black" points="454,-1234 454,-1264 574,-1264 574,-1234 454,-1234"/>
<text text-anchor="start" x="462" y="-1252" font-family="FreeSans" font-size="10.00">MWMechanics::Actors</text>
<text text-anchor="middle" x="514" y="-1241" font-family="FreeSans" font-size="10.00">::isReadyToBlock</text>
</a>
</g>
</g>
<!-- Node12&#45;&gt;Node13 -->
<g id="edge12" class="edge"><title>Node12&#45;&gt;Node13</title>
<path fill="none" stroke="midnightblue" d="M392.095,-1249C409.348,-1249 427.163,-1249 443.64,-1249"/>
<polygon fill="midnightblue" stroke="midnightblue" points="443.709,-1252.5 453.709,-1249 443.709,-1245.5 443.709,-1252.5"/>
</g>
<!-- Node33&#45;&gt;Node10 -->
<g id="edge35" class="edge"><title>Node33&#45;&gt;Node10</title>
<path fill="none" stroke="midnightblue" d="M310.958,-1515.08C329.123,-1544.26 373.253,-1608.46 428,-1641 432.447,-1643.64 437.219,-1645.94 442.15,-1647.93"/>
<polygon fill="midnightblue" stroke="midnightblue" points="441.191,-1651.3 451.785,-1651.4 443.561,-1644.72 441.191,-1651.3"/>
</g>
<!-- Node33&#45;&gt;Node24 -->
<g id="edge36" class="edge"><title>Node33&#45;&gt;Node24</title>
<path fill="none" stroke="midnightblue" d="M319.159,-1515.25C342.36,-1535.18 385.712,-1569.99 428,-1591 433.312,-1593.64 438.945,-1596.07 444.683,-1598.3"/>
<polygon fill="midnightblue" stroke="midnightblue" points="443.807,-1601.71 454.401,-1601.86 446.214,-1595.14 443.807,-1601.71"/>
</g>
<!-- Node33&#45;&gt;Node25 -->
<g id="edge37" class="edge"><title>Node33&#45;&gt;Node25</title>
<path fill="none" stroke="midnightblue" d="M334.36,-1515.04C359.499,-1526.31 395.448,-1541.53 428,-1552 437.104,-1554.93 446.883,-1557.63 456.452,-1560.03"/>
<polygon fill="midnightblue" stroke="midnightblue" points="455.765,-1563.47 466.309,-1562.43 457.42,-1556.67 455.765,-1563.47"/>
</g>
<!-- Node33&#45;&gt;Node26 -->
<g id="edge38" class="edge"><title>Node33&#45;&gt;Node26</title>
<path fill="none" stroke="midnightblue" d="M379.67,-1512.15C400.076,-1515.34 421.978,-1518.76 442.014,-1521.9"/>
<polygon fill="midnightblue" stroke="midnightblue" points="441.572,-1525.37 451.993,-1523.46 442.654,-1518.46 441.572,-1525.37"/>
</g>
<!-- Node33&#45;&gt;Node27 -->
<g id="edge39" class="edge"><title>Node33&#45;&gt;Node27</title>
<path fill="none" stroke="midnightblue" d="M379.67,-1497.06C401.684,-1496.22 425.439,-1495.32 446.713,-1494.51"/>
<polygon fill="midnightblue" stroke="midnightblue" points="447.079,-1498 456.94,-1494.13 446.814,-1491.01 447.079,-1498"/>
</g>
<!-- Node33&#45;&gt;Node28 -->
<g id="edge40" class="edge"><title>Node33&#45;&gt;Node28</title>
<path fill="none" stroke="midnightblue" d="M364.166,-1484.97C395.948,-1477.29 434.08,-1468.08 463.79,-1460.89"/>
<polygon fill="midnightblue" stroke="midnightblue" points="464.624,-1464.29 473.521,-1458.54 462.979,-1457.49 464.624,-1464.29"/>
</g>
<!-- Node33&#45;&gt;Node34 -->
<g id="edge33" class="edge"><title>Node33&#45;&gt;Node34</title>
<path fill="none" stroke="midnightblue" d="M327.121,-1484.9C352.229,-1470.09 392.153,-1447.27 428,-1430 439.572,-1424.43 452.27,-1418.9 464.241,-1413.94"/>
<polygon fill="midnightblue" stroke="midnightblue" points="465.719,-1417.11 473.65,-1410.09 463.07,-1410.63 465.719,-1417.11"/>
</g>
<!-- Node33&#45;&gt;Node35 -->
<g id="edge34" class="edge"><title>Node33&#45;&gt;Node35</title>
<path fill="none" stroke="midnightblue" d="M312.709,-1484.92C332.485,-1458.15 377.364,-1402.21 428,-1371 432.898,-1367.98 438.164,-1365.27 443.589,-1362.84"/>
<polygon fill="midnightblue" stroke="midnightblue" points="444.932,-1366.07 452.832,-1359.01 442.254,-1359.61 444.932,-1366.07"/>
</g>
<!-- Node49&#45;&gt;Node10 -->
<g id="edge57" class="edge"><title>Node49&#45;&gt;Node10</title>
<path fill="none" stroke="midnightblue" d="M368.183,-1658.94C388.021,-1659.22 410.023,-1659.54 430.762,-1659.83"/>
<polygon fill="midnightblue" stroke="midnightblue" points="430.779,-1663.33 440.827,-1659.97 430.878,-1656.33 430.779,-1663.33"/>
</g>
<!-- Node49&#45;&gt;Node24 -->
<g id="edge58" class="edge"><title>Node49&#45;&gt;Node24</title>
<path fill="none" stroke="midnightblue" d="M350.938,-1648.49C377.954,-1643.24 411.996,-1636.63 441.898,-1630.82"/>
<polygon fill="midnightblue" stroke="midnightblue" points="442.715,-1634.22 451.864,-1628.88 441.38,-1627.35 442.715,-1634.22"/>
</g>
</g>
</svg>
