<?xml version="1.0" encoding="UTF-8" standalone="no"?>
<!DOCTYPE svg PUBLIC "-//W3C//DTD SVG 1.1//EN"
 "http://www.w3.org/Graphics/SVG/1.1/DTD/svg11.dtd">
<!-- Generated by graphviz version 2.36.0 (20140111.2315)
 -->
<!-- Title: anonymous_namespace{projectilemanager::cpp}::getMagicBoltLightDiffuseColor Pages: 1 -->
<svg width="332pt" height="87pt"
 viewBox="0.00 0.00 332.00 87.00" xmlns="http://www.w3.org/2000/svg" xmlns:xlink="http://www.w3.org/1999/xlink">
<g id="graph0" class="graph" transform="scale(1 1) rotate(0) translate(4 83)">
<title>anonymous_namespace{projectilemanager::cpp}::getMagicBoltLightDiffuseColor</title>
<polygon fill="white" stroke="none" points="-4,4 -4,-83 328,-83 328,4 -4,4"/>
<!-- Node1 -->
<g id="node1" class="node"><title>Node1</title>
<polygon fill="#bfbfbf" stroke="black" points="0,-13 0,-65 146,-65 146,-13 0,-13"/>
<text text-anchor="start" x="8" y="-53" font-family="FreeSans" font-size="10.00">anonymous_namespace</text>
<text text-anchor="start" x="8" y="-42" font-family="FreeSans" font-size="10.00">{projectilemanager::</text>
<text text-anchor="start" x="8" y="-31" font-family="FreeSans" font-size="10.00">cpp}::getMagicBoltLightDiffuse</text>
<text text-anchor="middle" x="73" y="-20" font-family="FreeSans" font-size="10.00">Color</text>
</g>
<!-- Node2 -->
<g id="node2" class="node"><title>Node2</title>
<g id="a_node2"><a xlink:href="classMWWorld_1_1ProjectileManager.html#ad1c8f065c091b127d2fab736f4511405" target="_top" xlink:title="If caster is an actor, the actor&#39;s facing orientation is used. Otherwise fallbackDirection is used...">
<polygon fill="white" stroke="black" points="182.5,-49 182.5,-79 323.5,-79 323.5,-49 182.5,-49"/>
<text text-anchor="start" x="190.5" y="-67" font-family="FreeSans" font-size="10.00">MWWorld::ProjectileManager</text>
<text text-anchor="middle" x="253" y="-56" font-family="FreeSans" font-size="10.00">::launchMagicBolt</text>
</a>
</g>
</g>
<!-- Node1&#45;&gt;Node2 -->
<g id="edge1" class="edge"><title>Node1&#45;&gt;Node2</title>
<path fill="none" stroke="midnightblue" d="M156.305,-50.5597C165.013,-51.7827 173.806,-53.0178 182.35,-54.2177"/>
<polygon fill="midnightblue" stroke="midnightblue" points="156.532,-47.0574 146.143,-49.1324 155.559,-53.9893 156.532,-47.0574"/>
</g>
<!-- Node3 -->
<g id="node3" class="node"><title>Node3</title>
<g id="a_node3"><a xlink:href="classMWWorld_1_1ProjectileManager.html#ab16f1fd4aa5b6392de3fe9e4e26e76c5" target="_top" xlink:title="MWWorld::ProjectileManager\l::readRecord">
<polygon fill="white" stroke="black" points="182.5,-0 182.5,-30 323.5,-30 323.5,-0 182.5,-0"/>
<text text-anchor="start" x="190.5" y="-18" font-family="FreeSans" font-size="10.00">MWWorld::ProjectileManager</text>
<text text-anchor="middle" x="253" y="-7" font-family="FreeSans" font-size="10.00">::readRecord</text>
</a>
</g>
</g>
<!-- Node1&#45;&gt;Node3 -->
<g id="edge2" class="edge"><title>Node1&#45;&gt;Node3</title>
<path fill="none" stroke="midnightblue" d="M156.305,-27.9027C165.013,-26.7286 173.806,-25.543 182.35,-24.391"/>
<polygon fill="midnightblue" stroke="midnightblue" points="155.585,-24.468 146.143,-29.2729 156.521,-31.4052 155.585,-24.468"/>
</g>
</g>
</svg>
