<?xml version="1.0" encoding="UTF-8" standalone="no"?>
<!DOCTYPE svg PUBLIC "-//W3C//DTD SVG 1.1//EN"
 "http://www.w3.org/Graphics/SVG/1.1/DTD/svg11.dtd">
<!-- Generated by graphviz version 2.36.0 (20140111.2315)
 -->
<!-- Title: Compiler::Generator::disable Pages: 1 -->
<svg width="416pt" height="195pt"
 viewBox="0.00 0.00 416.00 195.00" xmlns="http://www.w3.org/2000/svg" xmlns:xlink="http://www.w3.org/1999/xlink">
<g id="graph0" class="graph" transform="scale(1 1) rotate(0) translate(4 191)">
<title>Compiler::Generator::disable</title>
<polygon fill="white" stroke="none" points="-4,4 -4,-191 412,-191 412,4 -4,4"/>
<!-- Node1 -->
<g id="node1" class="node"><title>Node1</title>
<polygon fill="#bfbfbf" stroke="black" points="0,-81 0,-111 102,-111 102,-81 0,-81"/>
<text text-anchor="start" x="8" y="-99" font-family="FreeSans" font-size="10.00">Compiler::Generator</text>
<text text-anchor="middle" x="51" y="-88" font-family="FreeSans" font-size="10.00">::disable</text>
</g>
<!-- Node2 -->
<g id="node2" class="node"><title>Node2</title>
<g id="a_node2"><a xlink:href="namespaceanonymous__namespace_02generator_8cpp_03.html#a3421e1fcfbf6207977ec5dd87dc6b45f" target="_top" xlink:title="anonymous_namespace\l\{generator::cpp\}::opDisable">
<polygon fill="white" stroke="black" points="139,-157 139,-187 269,-187 269,-157 139,-157"/>
<text text-anchor="start" x="147" y="-175" font-family="FreeSans" font-size="10.00">anonymous_namespace</text>
<text text-anchor="middle" x="204" y="-164" font-family="FreeSans" font-size="10.00">{generator::cpp}::opDisable</text>
</a>
</g>
</g>
<!-- Node1&#45;&gt;Node2 -->
<g id="edge1" class="edge"><title>Node1&#45;&gt;Node2</title>
<path fill="none" stroke="midnightblue" d="M75.1375,-111.167C92.1222,-121.94 115.974,-136.327 138,-147 142.264,-149.066 146.745,-151.085 151.278,-153.024"/>
<polygon fill="midnightblue" stroke="midnightblue" points="150.022,-156.292 160.6,-156.879 152.697,-149.823 150.022,-156.292"/>
</g>
<!-- Node4 -->
<g id="node4" class="node"><title>Node4</title>
<g id="a_node4"><a xlink:href="classCompiler_1_1Literals.html#a0b6e9a75cce648bb5d73903331f0c050" target="_top" xlink:title="add string literal and return value. ">
<polygon fill="white" stroke="black" points="159,-108 159,-138 249,-138 249,-108 159,-108"/>
<text text-anchor="start" x="167" y="-126" font-family="FreeSans" font-size="10.00">Compiler::Literals</text>
<text text-anchor="middle" x="204" y="-115" font-family="FreeSans" font-size="10.00">::addString</text>
</a>
</g>
</g>
<!-- Node1&#45;&gt;Node4 -->
<g id="edge3" class="edge"><title>Node1&#45;&gt;Node4</title>
<path fill="none" stroke="midnightblue" d="M102.281,-104.991C117.059,-107.633 133.293,-110.536 148.331,-113.225"/>
<polygon fill="midnightblue" stroke="midnightblue" points="148.058,-116.731 158.518,-115.046 149.29,-109.841 148.058,-116.731"/>
</g>
<!-- Node5 -->
<g id="node5" class="node"><title>Node5</title>
<g id="a_node5"><a xlink:href="namespaceanonymous__namespace_02generator_8cpp_03.html#a0724d9b01fecb5cea0724bfe2858faf6" target="_top" xlink:title="anonymous_namespace\l\{generator::cpp\}::opPushInt">
<polygon fill="white" stroke="black" points="138.5,-0 138.5,-30 269.5,-30 269.5,-0 138.5,-0"/>
<text text-anchor="start" x="146.5" y="-18" font-family="FreeSans" font-size="10.00">anonymous_namespace</text>
<text text-anchor="middle" x="204" y="-7" font-family="FreeSans" font-size="10.00">{generator::cpp}::opPushInt</text>
</a>
</g>
</g>
<!-- Node1&#45;&gt;Node5 -->
<g id="edge4" class="edge"><title>Node1&#45;&gt;Node5</title>
<path fill="none" stroke="midnightblue" d="M72.0388,-80.7794C88.9703,-68.4037 114.199,-51.0755 138,-39 141.461,-37.2439 145.083,-35.5492 148.769,-33.9283"/>
<polygon fill="midnightblue" stroke="midnightblue" points="150.138,-37.1494 158.01,-30.0585 147.435,-30.6926 150.138,-37.1494"/>
</g>
<!-- Node7 -->
<g id="node7" class="node"><title>Node7</title>
<g id="a_node7"><a xlink:href="namespaceanonymous__namespace_02generator_8cpp_03.html#a38bdf16cfae4d669defc55c4072a4ffe" target="_top" xlink:title="anonymous_namespace\l\{generator::cpp\}::opDisable\lExplicit">
<polygon fill="white" stroke="black" points="139,-48.5 139,-89.5 269,-89.5 269,-48.5 139,-48.5"/>
<text text-anchor="start" x="147" y="-77.5" font-family="FreeSans" font-size="10.00">anonymous_namespace</text>
<text text-anchor="start" x="147" y="-66.5" font-family="FreeSans" font-size="10.00">{generator::cpp}::opDisable</text>
<text text-anchor="middle" x="204" y="-55.5" font-family="FreeSans" font-size="10.00">Explicit</text>
</a>
</g>
</g>
<!-- Node1&#45;&gt;Node7 -->
<g id="edge6" class="edge"><title>Node1&#45;&gt;Node7</title>
<path fill="none" stroke="midnightblue" d="M102.281,-87.0094C110.821,-85.4824 119.847,-83.8685 128.847,-82.2591"/>
<polygon fill="midnightblue" stroke="midnightblue" points="129.743,-85.6545 138.971,-80.4489 128.511,-78.7638 129.743,-85.6545"/>
</g>
<!-- Node3 -->
<g id="node3" class="node"><title>Node3</title>
<g id="a_node3"><a xlink:href="namespaceCompiler_1_1Generator.html#adf44ec75e80e31b8203bc6adb5b25f12" target="_top" xlink:title="Compiler::Generator\l::segment5">
<polygon fill="white" stroke="black" points="306,-105 306,-135 408,-135 408,-105 306,-105"/>
<text text-anchor="start" x="314" y="-123" font-family="FreeSans" font-size="10.00">Compiler::Generator</text>
<text text-anchor="middle" x="357" y="-112" font-family="FreeSans" font-size="10.00">::segment5</text>
</a>
</g>
</g>
<!-- Node2&#45;&gt;Node3 -->
<g id="edge2" class="edge"><title>Node2&#45;&gt;Node3</title>
<path fill="none" stroke="midnightblue" d="M248.675,-156.959C265.579,-151.138 285.087,-144.42 302.797,-138.322"/>
<polygon fill="midnightblue" stroke="midnightblue" points="304.107,-141.572 312.423,-135.007 301.828,-134.954 304.107,-141.572"/>
</g>
<!-- Node6 -->
<g id="node6" class="node"><title>Node6</title>
<g id="a_node6"><a xlink:href="namespaceCompiler_1_1Generator.html#a41cbce5d9c7de795e8aca7cf37ad893a" target="_top" xlink:title="Compiler::Generator\l::segment0">
<polygon fill="white" stroke="black" points="306,-0 306,-30 408,-30 408,-0 306,-0"/>
<text text-anchor="start" x="314" y="-18" font-family="FreeSans" font-size="10.00">Compiler::Generator</text>
<text text-anchor="middle" x="357" y="-7" font-family="FreeSans" font-size="10.00">::segment0</text>
</a>
</g>
</g>
<!-- Node5&#45;&gt;Node6 -->
<g id="edge5" class="edge"><title>Node5&#45;&gt;Node6</title>
<path fill="none" stroke="midnightblue" d="M269.914,-15C278.438,-15 287.146,-15 295.591,-15"/>
<polygon fill="midnightblue" stroke="midnightblue" points="295.732,-18.5001 305.732,-15 295.732,-11.5001 295.732,-18.5001"/>
</g>
<!-- Node7&#45;&gt;Node3 -->
<g id="edge7" class="edge"><title>Node7&#45;&gt;Node3</title>
<path fill="none" stroke="midnightblue" d="M265.982,-89.5966C277.876,-93.6139 290.27,-97.7998 301.921,-101.735"/>
<polygon fill="midnightblue" stroke="midnightblue" points="300.913,-105.089 311.507,-104.973 303.153,-98.4566 300.913,-105.089"/>
</g>
</g>
</svg>
