<?xml version="1.0" encoding="UTF-8" standalone="no"?>
<!DOCTYPE svg PUBLIC "-//W3C//DTD SVG 1.1//EN"
 "http://www.w3.org/Graphics/SVG/1.1/DTD/svg11.dtd">
<!-- Generated by graphviz version 2.36.0 (20140111.2315)
 -->
<!-- Title: Compiler::Generator::pushString Pages: 1 -->
<svg width="460pt" height="87pt"
 viewBox="0.00 0.00 460.00 87.00" xmlns="http://www.w3.org/2000/svg" xmlns:xlink="http://www.w3.org/1999/xlink">
<g id="graph0" class="graph" transform="scale(1 1) rotate(0) translate(4 83)">
<title>Compiler::Generator::pushString</title>
<polygon fill="white" stroke="none" points="-4,4 -4,-83 456,-83 456,4 -4,4"/>
<!-- Node1 -->
<g id="node1" class="node"><title>Node1</title>
<polygon fill="#bfbfbf" stroke="black" points="0,-24 0,-54 114,-54 114,-24 0,-24"/>
<text text-anchor="start" x="8" y="-42" font-family="FreeSans" font-size="10.00">Compiler::Generator</text>
<text text-anchor="middle" x="57" y="-31" font-family="FreeSans" font-size="10.00">::pushString</text>
</g>
<!-- Node2 -->
<g id="node2" class="node"><title>Node2</title>
<g id="a_node2"><a xlink:href="classCompiler_1_1Literals.html#a0b6e9a75cce648bb5d73903331f0c050" target="_top" xlink:title="add string literal and return value. ">
<polygon fill="white" stroke="black" points="176,-49 176,-79 276,-79 276,-49 176,-49"/>
<text text-anchor="start" x="184" y="-67" font-family="FreeSans" font-size="10.00">Compiler::Literals</text>
<text text-anchor="middle" x="226" y="-56" font-family="FreeSans" font-size="10.00">::addString</text>
</a>
</g>
</g>
<!-- Node1&#45;&gt;Node2 -->
<g id="edge1" class="edge"><title>Node1&#45;&gt;Node2</title>
<path fill="none" stroke="midnightblue" d="M114.073,-47.3942C130.63,-49.8728 148.806,-52.5937 165.567,-55.1029"/>
<polygon fill="midnightblue" stroke="midnightblue" points="165.385,-58.6146 175.793,-56.6337 166.422,-51.6917 165.385,-58.6146"/>
</g>
<!-- Node3 -->
<g id="node3" class="node"><title>Node3</title>
<g id="a_node3"><a xlink:href="namespaceanonymous__namespace_02generator_8cpp_03.html#a0724d9b01fecb5cea0724bfe2858faf6" target="_top" xlink:title="anonymous_namespace\l\{generator::cpp\}::opPushInt">
<polygon fill="white" stroke="black" points="150,-0 150,-30 302,-30 302,-0 150,-0"/>
<text text-anchor="start" x="158" y="-18" font-family="FreeSans" font-size="10.00">anonymous_namespace</text>
<text text-anchor="middle" x="226" y="-7" font-family="FreeSans" font-size="10.00">{generator::cpp}::opPushInt</text>
</a>
</g>
</g>
<!-- Node1&#45;&gt;Node3 -->
<g id="edge2" class="edge"><title>Node1&#45;&gt;Node3</title>
<path fill="none" stroke="midnightblue" d="M114.073,-30.9416C122.314,-29.7573 130.956,-28.5153 139.625,-27.2695"/>
<polygon fill="midnightblue" stroke="midnightblue" points="140.39,-30.6955 149.791,-25.8085 139.395,-23.7667 140.39,-30.6955"/>
</g>
<!-- Node4 -->
<g id="node4" class="node"><title>Node4</title>
<g id="a_node4"><a xlink:href="namespaceCompiler_1_1Generator.html#a41cbce5d9c7de795e8aca7cf37ad893a" target="_top" xlink:title="Compiler::Generator\l::segment0">
<polygon fill="white" stroke="black" points="338,-0 338,-30 452,-30 452,-0 338,-0"/>
<text text-anchor="start" x="346" y="-18" font-family="FreeSans" font-size="10.00">Compiler::Generator</text>
<text text-anchor="middle" x="395" y="-7" font-family="FreeSans" font-size="10.00">::segment0</text>
</a>
</g>
</g>
<!-- Node3&#45;&gt;Node4 -->
<g id="edge3" class="edge"><title>Node3&#45;&gt;Node4</title>
<path fill="none" stroke="midnightblue" d="M302.195,-15C310.689,-15 319.298,-15 327.667,-15"/>
<polygon fill="midnightblue" stroke="midnightblue" points="327.732,-18.5001 337.732,-15 327.732,-11.5001 327.732,-18.5001"/>
</g>
</g>
</svg>
