<?xml version="1.0" encoding="UTF-8" standalone="no"?>
<!DOCTYPE svg PUBLIC "-//W3C//DTD SVG 1.1//EN"
 "http://www.w3.org/Graphics/SVG/1.1/DTD/svg11.dtd">
<!-- Generated by graphviz version 2.36.0 (20140111.2315)
 -->
<!-- Title: ESSImport::convertANIS Pages: 1 -->
<svg width="414pt" height="38pt"
 viewBox="0.00 0.00 414.00 38.00" xmlns="http://www.w3.org/2000/svg" xmlns:xlink="http://www.w3.org/1999/xlink">
<g id="graph0" class="graph" transform="scale(1 1) rotate(0) translate(4 34)">
<title>ESSImport::convertANIS</title>
<polygon fill="white" stroke="none" points="-4,4 -4,-34 410,-34 410,4 -4,4"/>
<!-- Node1 -->
<g id="node1" class="node"><title>Node1</title>
<polygon fill="#bfbfbf" stroke="black" points="0.5,-5.5 0.5,-24.5 133.5,-24.5 133.5,-5.5 0.5,-5.5"/>
<text text-anchor="middle" x="67" y="-12.5" font-family="FreeSans" font-size="10.00">ESSImport::convertANIS</text>
</g>
<!-- Node2 -->
<g id="node2" class="node"><title>Node2</title>
<g id="a_node2"><a xlink:href="classMisc_1_1StringUtils.html#a249dcf40e5ef16618daf8bf5d2098c54" target="_top" xlink:title="Transforms input string to lower case w/o copy. ">
<polygon fill="white" stroke="black" points="170.5,-0 170.5,-30 269.5,-30 269.5,-0 170.5,-0"/>
<text text-anchor="start" x="178.5" y="-18" font-family="FreeSans" font-size="10.00">Misc::StringUtils::</text>
<text text-anchor="middle" x="220" y="-7" font-family="FreeSans" font-size="10.00">lowerCaseInPlace</text>
</a>
</g>
</g>
<!-- Node1&#45;&gt;Node2 -->
<g id="edge1" class="edge"><title>Node1&#45;&gt;Node2</title>
<path fill="none" stroke="midnightblue" d="M133.792,-15C142.588,-15 151.564,-15 160.23,-15"/>
<polygon fill="midnightblue" stroke="midnightblue" points="160.232,-18.5001 170.232,-15 160.232,-11.5001 160.232,-18.5001"/>
</g>
<!-- Node3 -->
<g id="node3" class="node"><title>Node3</title>
<g id="a_node3"><a xlink:href="classMisc_1_1StringUtils.html#a0759adb102842ee3bced227707eb6949" target="_top" xlink:title="Misc::StringUtils::\ltoLower">
<polygon fill="white" stroke="black" points="306.5,-0 306.5,-30 405.5,-30 405.5,-0 306.5,-0"/>
<text text-anchor="start" x="314.5" y="-18" font-family="FreeSans" font-size="10.00">Misc::StringUtils::</text>
<text text-anchor="middle" x="356" y="-7" font-family="FreeSans" font-size="10.00">toLower</text>
</a>
</g>
</g>
<!-- Node2&#45;&gt;Node3 -->
<g id="edge2" class="edge"><title>Node2&#45;&gt;Node3</title>
<path fill="none" stroke="midnightblue" d="M269.756,-15C278.254,-15 287.176,-15 295.916,-15"/>
<polygon fill="midnightblue" stroke="midnightblue" points="296.056,-18.5001 306.056,-15 296.056,-11.5001 296.056,-18.5001"/>
</g>
</g>
</svg>
