<?xml version="1.0" encoding="UTF-8" standalone="no"?>
<!DOCTYPE svg PUBLIC "-//W3C//DTD SVG 1.1//EN"
 "http://www.w3.org/Graphics/SVG/1.1/DTD/svg11.dtd">
<!-- Generated by graphviz version 2.36.0 (20140111.2315)
 -->
<!-- Title: /home/scrawl/Dev/openmw/apps/opencs/model/filter/narynode.hpp Pages: 1 -->
<svg width="372pt" height="162pt"
 viewBox="0.00 0.00 372.00 162.00" xmlns="http://www.w3.org/2000/svg" xmlns:xlink="http://www.w3.org/1999/xlink">
<g id="graph0" class="graph" transform="scale(1 1) rotate(0) translate(4 158)">
<title>/home/scrawl/Dev/openmw/apps/opencs/model/filter/narynode.hpp</title>
<polygon fill="white" stroke="none" points="-4,4 -4,-158 368,-158 368,4 -4,4"/>
<!-- Node1 -->
<g id="node1" class="node"><title>Node1</title>
<polygon fill="#bfbfbf" stroke="black" points="51,-112.5 51,-153.5 183,-153.5 183,-112.5 51,-112.5"/>
<text text-anchor="start" x="59" y="-141.5" font-family="FreeSans" font-size="10.00">/home/scrawl/Dev/openmw</text>
<text text-anchor="start" x="59" y="-130.5" font-family="FreeSans" font-size="10.00">/apps/opencs/model/filter</text>
<text text-anchor="middle" x="117" y="-119.5" font-family="FreeSans" font-size="10.00">/narynode.hpp</text>
</g>
<!-- Node2 -->
<g id="node2" class="node"><title>Node2</title>
<polygon fill="white" stroke="#bfbfbf" points="-0.5,-0.5 -0.5,-19.5 42.5,-19.5 42.5,-0.5 -0.5,-0.5"/>
<text text-anchor="middle" x="21" y="-7.5" font-family="FreeSans" font-size="10.00">vector</text>
</g>
<!-- Node1&#45;&gt;Node2 -->
<g id="edge1" class="edge"><title>Node1&#45;&gt;Node2</title>
<path fill="none" stroke="midnightblue" d="M101.362,-112.29C82.6836,-88.7471 51.7668,-49.779 34.2251,-27.6691"/>
<polygon fill="midnightblue" stroke="midnightblue" points="36.7604,-25.2333 27.8031,-19.5748 31.2766,-29.5841 36.7604,-25.2333"/>
</g>
<!-- Node3 -->
<g id="node3" class="node"><title>Node3</title>
<polygon fill="white" stroke="#bfbfbf" points="61,-0.5 61,-19.5 101,-19.5 101,-0.5 61,-0.5"/>
<text text-anchor="middle" x="81" y="-7.5" font-family="FreeSans" font-size="10.00">string</text>
</g>
<!-- Node1&#45;&gt;Node3 -->
<g id="edge2" class="edge"><title>Node1&#45;&gt;Node3</title>
<path fill="none" stroke="midnightblue" d="M111.136,-112.29C104.287,-89.2703 93.0506,-51.5033 86.4053,-29.1677"/>
<polygon fill="midnightblue" stroke="midnightblue" points="89.7576,-28.1615 83.5512,-19.5748 83.0482,-30.1577 89.7576,-28.1615"/>
</g>
<!-- Node4 -->
<g id="node4" class="node"><title>Node4</title>
<polygon fill="white" stroke="#bfbfbf" points="258,-0.5 258,-19.5 364,-19.5 364,-0.5 258,-0.5"/>
<text text-anchor="middle" x="311" y="-7.5" font-family="FreeSans" font-size="10.00">boost/shared_ptr.hpp</text>
</g>
<!-- Node1&#45;&gt;Node4 -->
<g id="edge3" class="edge"><title>Node1&#45;&gt;Node4</title>
<path fill="none" stroke="midnightblue" d="M148.601,-112.29C187.857,-87.8054 253.863,-46.6369 288.395,-25.0989"/>
<polygon fill="midnightblue" stroke="midnightblue" points="290.619,-27.8367 297.252,-19.5748 286.915,-21.8973 290.619,-27.8367"/>
</g>
<!-- Node5 -->
<g id="node5" class="node"><title>Node5</title>
<g id="a_node5"><a xlink:href="apps_2opencs_2model_2filter_2node_8hpp.html" target="_top" xlink:title="node.hpp">
<polygon fill="white" stroke="black" points="121,-56.5 121,-75.5 177,-75.5 177,-56.5 121,-56.5"/>
<text text-anchor="middle" x="149" y="-63.5" font-family="FreeSans" font-size="10.00">node.hpp</text>
</a>
</g>
</g>
<!-- Node1&#45;&gt;Node5 -->
<g id="edge4" class="edge"><title>Node1&#45;&gt;Node5</title>
<path fill="none" stroke="midnightblue" d="M126.601,-112.498C130.941,-103.682 136.033,-93.3385 140.265,-84.7432"/>
<polygon fill="midnightblue" stroke="midnightblue" points="143.464,-86.1701 144.74,-75.6525 137.183,-83.0783 143.464,-86.1701"/>
</g>
<!-- Node5&#45;&gt;Node2 -->
<g id="edge7" class="edge"><title>Node5&#45;&gt;Node2</title>
<path fill="none" stroke="midnightblue" d="M128.718,-56.4435C107.653,-47.5566 74.4832,-33.5632 50.5145,-23.4514"/>
<polygon fill="midnightblue" stroke="midnightblue" points="51.7612,-20.1787 41.1871,-19.5164 49.0403,-26.6283 51.7612,-20.1787"/>
</g>
<!-- Node5&#45;&gt;Node3 -->
<g id="edge5" class="edge"><title>Node5&#45;&gt;Node3</title>
<path fill="none" stroke="midnightblue" d="M138.075,-56.324C127.825,-48.1849 112.279,-35.8395 99.999,-26.0874"/>
<polygon fill="midnightblue" stroke="midnightblue" points="102.132,-23.3119 92.1242,-19.8339 97.7787,-28.7937 102.132,-23.3119"/>
</g>
<!-- Node5&#45;&gt;Node4 -->
<g id="edge8" class="edge"><title>Node5&#45;&gt;Node4</title>
<path fill="none" stroke="midnightblue" d="M174.669,-56.4435C201.923,-47.3591 245.184,-32.9388 275.651,-22.7831"/>
<polygon fill="midnightblue" stroke="midnightblue" points="277.071,-25.9992 285.451,-19.5164 274.857,-19.3584 277.071,-25.9992"/>
</g>
<!-- Node6 -->
<g id="node6" class="node"><title>Node6</title>
<polygon fill="white" stroke="#bfbfbf" points="204.5,-0.5 204.5,-19.5 239.5,-19.5 239.5,-0.5 204.5,-0.5"/>
<text text-anchor="middle" x="222" y="-7.5" font-family="FreeSans" font-size="10.00">map</text>
</g>
<!-- Node5&#45;&gt;Node6 -->
<g id="edge6" class="edge"><title>Node5&#45;&gt;Node6</title>
<path fill="none" stroke="midnightblue" d="M160.729,-56.324C171.837,-48.1066 188.742,-35.6017 201.983,-25.8069"/>
<polygon fill="midnightblue" stroke="midnightblue" points="204.1,-28.5948 210.058,-19.8339 199.937,-22.9671 204.1,-28.5948"/>
</g>
<!-- Node7 -->
<g id="node7" class="node"><title>Node7</title>
<polygon fill="white" stroke="#bfbfbf" points="119.5,-0.5 119.5,-19.5 186.5,-19.5 186.5,-0.5 119.5,-0.5"/>
<text text-anchor="middle" x="153" y="-7.5" font-family="FreeSans" font-size="10.00">QMetaType</text>
</g>
<!-- Node5&#45;&gt;Node7 -->
<g id="edge9" class="edge"><title>Node5&#45;&gt;Node7</title>
<path fill="none" stroke="midnightblue" d="M149.661,-56.083C150.185,-49.0059 150.936,-38.8611 151.594,-29.9865"/>
<polygon fill="midnightblue" stroke="midnightblue" points="155.103,-29.9823 152.352,-19.7511 148.123,-29.4652 155.103,-29.9823"/>
</g>
</g>
</svg>
