<?xml version="1.0" encoding="UTF-8" standalone="no"?>
<!DOCTYPE svg PUBLIC "-//W3C//DTD SVG 1.1//EN"
 "http://www.w3.org/Graphics/SVG/1.1/DTD/svg11.dtd">
<!-- Generated by graphviz version 2.36.0 (20140111.2315)
 -->
<!-- Title: /home/travis/build/elsid/openmw/components/nif/controller.hpp Pages: 1 -->
<svg width="1878pt" height="362pt"
 viewBox="0.00 0.00 1878.00 362.00" xmlns="http://www.w3.org/2000/svg" xmlns:xlink="http://www.w3.org/1999/xlink">
<g id="graph0" class="graph" transform="scale(1 1) rotate(0) translate(4 358)">
<title>/home/travis/build/elsid/openmw/components/nif/controller.hpp</title>
<polygon fill="white" stroke="none" points="-4,4 -4,-358 1874,-358 1874,4 -4,4"/>
<!-- Node1 -->
<g id="node1" class="node"><title>Node1</title>
<polygon fill="#bfbfbf" stroke="black" points="557,-312.5 557,-353.5 705,-353.5 705,-312.5 557,-312.5"/>
<text text-anchor="start" x="565" y="-341.5" font-family="FreeSans" font-size="10.00">/home/travis/build</text>
<text text-anchor="start" x="565" y="-330.5" font-family="FreeSans" font-size="10.00">/elsid/openmw/components</text>
<text text-anchor="middle" x="631" y="-319.5" font-family="FreeSans" font-size="10.00">/nif/controller.hpp</text>
</g>
<!-- Node2 -->
<g id="node2" class="node"><title>Node2</title>
<g id="a_node2"><a xlink:href="nif_2controller_8cpp.html" target="_top" xlink:title="/home/travis/build\l/elsid/openmw/components\l/nif/controller.cpp">
<polygon fill="white" stroke="black" points="0,-156.5 0,-197.5 148,-197.5 148,-156.5 0,-156.5"/>
<text text-anchor="start" x="8" y="-185.5" font-family="FreeSans" font-size="10.00">/home/travis/build</text>
<text text-anchor="start" x="8" y="-174.5" font-family="FreeSans" font-size="10.00">/elsid/openmw/components</text>
<text text-anchor="middle" x="74" y="-163.5" font-family="FreeSans" font-size="10.00">/nif/controller.cpp</text>
</a>
</g>
</g>
<!-- Node1&#45;&gt;Node2 -->
<g id="edge1" class="edge"><title>Node1&#45;&gt;Node2</title>
<path fill="none" stroke="midnightblue" d="M546.939,-311.171C506.125,-300.889 456.421,-288.116 412,-276 316.805,-250.036 207.201,-217.829 139.254,-197.589"/>
<polygon fill="midnightblue" stroke="midnightblue" points="546.294,-314.618 556.845,-313.662 548.001,-307.829 546.294,-314.618"/>
</g>
<!-- Node3 -->
<g id="node3" class="node"><title>Node3</title>
<g id="a_node3"><a xlink:href="components_2nif_2node_8hpp.html" target="_top" xlink:title="/home/travis/build\l/elsid/openmw/components\l/nif/node.hpp">
<polygon fill="white" stroke="black" points="421,-234.5 421,-275.5 569,-275.5 569,-234.5 421,-234.5"/>
<text text-anchor="start" x="429" y="-263.5" font-family="FreeSans" font-size="10.00">/home/travis/build</text>
<text text-anchor="start" x="429" y="-252.5" font-family="FreeSans" font-size="10.00">/elsid/openmw/components</text>
<text text-anchor="middle" x="495" y="-241.5" font-family="FreeSans" font-size="10.00">/nif/node.hpp</text>
</a>
</g>
</g>
<!-- Node1&#45;&gt;Node3 -->
<g id="edge2" class="edge"><title>Node1&#45;&gt;Node3</title>
<path fill="none" stroke="midnightblue" d="M587.132,-307.486C568.607,-297.134 547.337,-285.247 529.905,-275.506"/>
<polygon fill="midnightblue" stroke="midnightblue" points="585.54,-310.605 595.977,-312.428 588.955,-304.495 585.54,-310.605"/>
</g>
<!-- Node10 -->
<g id="node10" class="node"><title>Node10</title>
<g id="a_node10"><a xlink:href="bulletnifloader_8cpp.html" target="_top" xlink:title="/home/travis/build\l/elsid/openmw/components\l/nifbullet/bulletnifloader.cpp">
<polygon fill="white" stroke="black" points="814,-156.5 814,-197.5 962,-197.5 962,-156.5 814,-156.5"/>
<text text-anchor="start" x="822" y="-185.5" font-family="FreeSans" font-size="10.00">/home/travis/build</text>
<text text-anchor="start" x="822" y="-174.5" font-family="FreeSans" font-size="10.00">/elsid/openmw/components</text>
<text text-anchor="middle" x="888" y="-163.5" font-family="FreeSans" font-size="10.00">/nifbullet/bulletnifloader.cpp</text>
</a>
</g>
</g>
<!-- Node1&#45;&gt;Node10 -->
<g id="edge13" class="edge"><title>Node1&#45;&gt;Node10</title>
<path fill="none" stroke="midnightblue" d="M672.332,-307.233C723.253,-276.72 808.724,-225.504 855.31,-197.588"/>
<polygon fill="midnightblue" stroke="midnightblue" points="670.328,-304.353 663.549,-312.496 673.926,-310.358 670.328,-304.353"/>
</g>
<!-- Node11 -->
<g id="node11" class="node"><title>Node11</title>
<g id="a_node11"><a xlink:href="nifosg_2controller_8hpp.html" target="_top" xlink:title="/home/travis/build\l/elsid/openmw/components\l/nifosg/controller.hpp">
<polygon fill="white" stroke="black" points="1330,-234.5 1330,-275.5 1478,-275.5 1478,-234.5 1330,-234.5"/>
<text text-anchor="start" x="1338" y="-263.5" font-family="FreeSans" font-size="10.00">/home/travis/build</text>
<text text-anchor="start" x="1338" y="-252.5" font-family="FreeSans" font-size="10.00">/elsid/openmw/components</text>
<text text-anchor="middle" x="1404" y="-241.5" font-family="FreeSans" font-size="10.00">/nifosg/controller.hpp</text>
</a>
</g>
</g>
<!-- Node1&#45;&gt;Node11 -->
<g id="edge14" class="edge"><title>Node1&#45;&gt;Node11</title>
<path fill="none" stroke="midnightblue" d="M715.339,-323.708C867.479,-308.75 1185.43,-277.489 1329.82,-263.293"/>
<polygon fill="midnightblue" stroke="midnightblue" points="714.728,-320.251 705.118,-324.713 715.413,-327.217 714.728,-320.251"/>
</g>
<!-- Node3&#45;&gt;Node2 -->
<g id="edge4" class="edge"><title>Node3&#45;&gt;Node2</title>
<path fill="none" stroke="midnightblue" d="M410.98,-241.806C342.403,-231.439 243.116,-215.485 157,-198 154.095,-197.41 151.137,-196.79 148.153,-196.149"/>
<polygon fill="midnightblue" stroke="midnightblue" points="410.461,-245.267 420.87,-243.295 411.503,-238.345 410.461,-245.267"/>
</g>
<!-- Node4 -->
<g id="node4" class="node"><title>Node4</title>
<g id="a_node4"><a xlink:href="testbulletnifloader_8cpp.html" target="_top" xlink:title="/home/travis/build\l/elsid/openmw/apps/openmw\l_test_suite/nifloader/testbulletnifloader.cpp">
<polygon fill="white" stroke="black" points="574,-156.5 574,-197.5 796,-197.5 796,-156.5 574,-156.5"/>
<text text-anchor="start" x="582" y="-185.5" font-family="FreeSans" font-size="10.00">/home/travis/build</text>
<text text-anchor="start" x="582" y="-174.5" font-family="FreeSans" font-size="10.00">/elsid/openmw/apps/openmw</text>
<text text-anchor="middle" x="685" y="-163.5" font-family="FreeSans" font-size="10.00">_test_suite/nifloader/testbulletnifloader.cpp</text>
</a>
</g>
</g>
<!-- Node3&#45;&gt;Node4 -->
<g id="edge3" class="edge"><title>Node3&#45;&gt;Node4</title>
<path fill="none" stroke="midnightblue" d="M553.478,-230.609C579.998,-220.001 610.996,-207.602 636.236,-197.506"/>
<polygon fill="midnightblue" stroke="midnightblue" points="551.915,-227.464 543.93,-234.428 554.514,-233.964 551.915,-227.464"/>
</g>
<!-- Node5 -->
<g id="node5" class="node"><title>Node5</title>
<g id="a_node5"><a xlink:href="components_2nif_2data_8cpp.html" target="_top" xlink:title="/home/travis/build\l/elsid/openmw/components\l/nif/data.cpp">
<polygon fill="white" stroke="black" points="166,-156.5 166,-197.5 314,-197.5 314,-156.5 166,-156.5"/>
<text text-anchor="start" x="174" y="-185.5" font-family="FreeSans" font-size="10.00">/home/travis/build</text>
<text text-anchor="start" x="174" y="-174.5" font-family="FreeSans" font-size="10.00">/elsid/openmw/components</text>
<text text-anchor="middle" x="240" y="-163.5" font-family="FreeSans" font-size="10.00">/nif/data.cpp</text>
</a>
</g>
</g>
<!-- Node3&#45;&gt;Node5 -->
<g id="edge5" class="edge"><title>Node3&#45;&gt;Node5</title>
<path fill="none" stroke="midnightblue" d="M419.313,-231.442C383.119,-220.655 340.212,-207.867 305.446,-197.506"/>
<polygon fill="midnightblue" stroke="midnightblue" points="418.748,-234.926 429.331,-234.428 420.747,-228.218 418.748,-234.926"/>
</g>
<!-- Node6 -->
<g id="node6" class="node"><title>Node6</title>
<g id="a_node6"><a xlink:href="effect_8hpp.html" target="_top" xlink:title="/home/travis/build\l/elsid/openmw/components\l/nif/effect.hpp">
<polygon fill="white" stroke="black" points="370,-156.5 370,-197.5 518,-197.5 518,-156.5 370,-156.5"/>
<text text-anchor="start" x="378" y="-185.5" font-family="FreeSans" font-size="10.00">/home/travis/build</text>
<text text-anchor="start" x="378" y="-174.5" font-family="FreeSans" font-size="10.00">/elsid/openmw/components</text>
<text text-anchor="middle" x="444" y="-163.5" font-family="FreeSans" font-size="10.00">/nif/effect.hpp</text>
</a>
</g>
</g>
<!-- Node3&#45;&gt;Node6 -->
<g id="edge6" class="edge"><title>Node3&#45;&gt;Node6</title>
<path fill="none" stroke="midnightblue" d="M476.242,-226.048C469.88,-216.566 462.913,-206.185 457.089,-197.506"/>
<polygon fill="midnightblue" stroke="midnightblue" points="473.388,-228.075 481.866,-234.428 479.2,-224.174 473.388,-228.075"/>
</g>
<!-- Node7 -->
<g id="node7" class="node"><title>Node7</title>
<g id="a_node7"><a xlink:href="effect_8cpp.html" target="_top" xlink:title="/home/travis/build\l/elsid/openmw/components\l/nif/effect.cpp">
<polygon fill="white" stroke="black" points="209,-78.5 209,-119.5 357,-119.5 357,-78.5 209,-78.5"/>
<text text-anchor="start" x="217" y="-107.5" font-family="FreeSans" font-size="10.00">/home/travis/build</text>
<text text-anchor="start" x="217" y="-96.5" font-family="FreeSans" font-size="10.00">/elsid/openmw/components</text>
<text text-anchor="middle" x="283" y="-85.5" font-family="FreeSans" font-size="10.00">/nif/effect.cpp</text>
</a>
</g>
</g>
<!-- Node3&#45;&gt;Node7 -->
<g id="edge10" class="edge"><title>Node3&#45;&gt;Node7</title>
<path fill="none" stroke="midnightblue" d="M420.801,-230.717C400.287,-222.287 378.792,-211.447 361,-198 345.821,-186.528 314.945,-144.945 296.926,-119.779"/>
<polygon fill="midnightblue" stroke="midnightblue" points="419.555,-233.988 430.141,-234.421 422.135,-227.481 419.555,-233.988"/>
</g>
<!-- Node9 -->
<g id="node9" class="node"><title>Node9</title>
<g id="a_node9"><a xlink:href="nifloader_8cpp.html" target="_top" xlink:title="/home/travis/build\l/elsid/openmw/components\l/nifosg/nifloader.cpp">
<polygon fill="white" stroke="black" points="541,-78.5 541,-119.5 689,-119.5 689,-78.5 541,-78.5"/>
<text text-anchor="start" x="549" y="-107.5" font-family="FreeSans" font-size="10.00">/home/travis/build</text>
<text text-anchor="start" x="549" y="-96.5" font-family="FreeSans" font-size="10.00">/elsid/openmw/components</text>
<text text-anchor="middle" x="615" y="-85.5" font-family="FreeSans" font-size="10.00">/nifosg/nifloader.cpp</text>
</a>
</g>
</g>
<!-- Node3&#45;&gt;Node9 -->
<g id="edge12" class="edge"><title>Node3&#45;&gt;Node9</title>
<path fill="none" stroke="midnightblue" d="M513.76,-226.057C527.43,-206.122 546.686,-178.901 565,-156 575.012,-143.48 586.946,-130.063 596.643,-119.502"/>
<polygon fill="midnightblue" stroke="midnightblue" points="510.819,-224.156 508.079,-234.391 516.604,-228.099 510.819,-224.156"/>
</g>
<!-- Node3&#45;&gt;Node10 -->
<g id="edge11" class="edge"><title>Node3&#45;&gt;Node10</title>
<path fill="none" stroke="midnightblue" d="M579.369,-239.986C641.622,-229.336 728.305,-213.858 804,-198 807.228,-197.324 810.521,-196.616 813.845,-195.887"/>
<polygon fill="midnightblue" stroke="midnightblue" points="578.475,-236.588 569.205,-241.719 579.651,-243.488 578.475,-236.588"/>
</g>
<!-- Node6&#45;&gt;Node7 -->
<g id="edge7" class="edge"><title>Node6&#45;&gt;Node7</title>
<path fill="none" stroke="midnightblue" d="M393.261,-152.049C371.055,-141.566 345.333,-129.424 324.321,-119.506"/>
<polygon fill="midnightblue" stroke="midnightblue" points="392.001,-155.324 402.538,-156.428 394.989,-148.994 392.001,-155.324"/>
</g>
<!-- Node8 -->
<g id="node8" class="node"><title>Node8</title>
<g id="a_node8"><a xlink:href="niffile_8cpp.html" target="_top" xlink:title="/home/travis/build\l/elsid/openmw/components\l/nif/niffile.cpp">
<polygon fill="white" stroke="black" points="375,-78.5 375,-119.5 523,-119.5 523,-78.5 375,-78.5"/>
<text text-anchor="start" x="383" y="-107.5" font-family="FreeSans" font-size="10.00">/home/travis/build</text>
<text text-anchor="start" x="383" y="-96.5" font-family="FreeSans" font-size="10.00">/elsid/openmw/components</text>
<text text-anchor="middle" x="449" y="-85.5" font-family="FreeSans" font-size="10.00">/nif/niffile.cpp</text>
</a>
</g>
</g>
<!-- Node6&#45;&gt;Node8 -->
<g id="edge8" class="edge"><title>Node6&#45;&gt;Node8</title>
<path fill="none" stroke="midnightblue" d="M445.954,-146.297C446.546,-137.301 447.181,-127.653 447.717,-119.506"/>
<polygon fill="midnightblue" stroke="midnightblue" points="442.452,-146.22 445.288,-156.428 449.437,-146.679 442.452,-146.22"/>
</g>
<!-- Node6&#45;&gt;Node9 -->
<g id="edge9" class="edge"><title>Node6&#45;&gt;Node9</title>
<path fill="none" stroke="midnightblue" d="M497.26,-152.329C520.987,-141.783 548.596,-129.513 571.112,-119.506"/>
<polygon fill="midnightblue" stroke="midnightblue" points="495.753,-149.168 488.037,-156.428 498.596,-155.565 495.753,-149.168"/>
</g>
<!-- Node12 -->
<g id="node12" class="node"><title>Node12</title>
<g id="a_node12"><a xlink:href="animation_8cpp.html" target="_top" xlink:title="/home/travis/build\l/elsid/openmw/apps/openmw\l/mwrender/animation.cpp">
<polygon fill="white" stroke="black" points="1715.5,-0.5 1715.5,-41.5 1870.5,-41.5 1870.5,-0.5 1715.5,-0.5"/>
<text text-anchor="start" x="1723.5" y="-29.5" font-family="FreeSans" font-size="10.00">/home/travis/build</text>
<text text-anchor="start" x="1723.5" y="-18.5" font-family="FreeSans" font-size="10.00">/elsid/openmw/apps/openmw</text>
<text text-anchor="middle" x="1793" y="-7.5" font-family="FreeSans" font-size="10.00">/mwrender/animation.cpp</text>
</a>
</g>
</g>
<!-- Node11&#45;&gt;Node12 -->
<g id="edge15" class="edge"><title>Node11&#45;&gt;Node12</title>
<path fill="none" stroke="midnightblue" d="M1488.22,-248.981C1607.42,-241.005 1813.44,-223.669 1836,-198 1845.16,-187.572 1840.19,-104.825 1831,-78 1826.47,-64.7733 1817.94,-51.7428 1810.11,-41.5842"/>
<polygon fill="midnightblue" stroke="midnightblue" points="1487.78,-245.502 1478.03,-249.654 1488.24,-252.487 1487.78,-245.502"/>
</g>
<!-- Node13 -->
<g id="node13" class="node"><title>Node13</title>
<g id="a_node13"><a xlink:href="ripplesimulation_8cpp.html" target="_top" xlink:title="/home/travis/build\l/elsid/openmw/apps/openmw\l/mwrender/ripplesimulation.cpp">
<polygon fill="white" stroke="black" points="1320.5,-156.5 1320.5,-197.5 1487.5,-197.5 1487.5,-156.5 1320.5,-156.5"/>
<text text-anchor="start" x="1328.5" y="-185.5" font-family="FreeSans" font-size="10.00">/home/travis/build</text>
<text text-anchor="start" x="1328.5" y="-174.5" font-family="FreeSans" font-size="10.00">/elsid/openmw/apps/openmw</text>
<text text-anchor="middle" x="1404" y="-163.5" font-family="FreeSans" font-size="10.00">/mwrender/ripplesimulation.cpp</text>
</a>
</g>
</g>
<!-- Node11&#45;&gt;Node13 -->
<g id="edge16" class="edge"><title>Node11&#45;&gt;Node13</title>
<path fill="none" stroke="midnightblue" d="M1404,-224.297C1404,-215.301 1404,-205.653 1404,-197.506"/>
<polygon fill="midnightblue" stroke="midnightblue" points="1400.5,-224.428 1404,-234.428 1407.5,-224.428 1400.5,-224.428"/>
</g>
<!-- Node14 -->
<g id="node14" class="node"><title>Node14</title>
<g id="a_node14"><a xlink:href="water_8cpp.html" target="_top" xlink:title="/home/travis/build\l/elsid/openmw/apps/openmw\l/mwrender/water.cpp">
<polygon fill="white" stroke="black" points="1505.5,-156.5 1505.5,-197.5 1660.5,-197.5 1660.5,-156.5 1505.5,-156.5"/>
<text text-anchor="start" x="1513.5" y="-185.5" font-family="FreeSans" font-size="10.00">/home/travis/build</text>
<text text-anchor="start" x="1513.5" y="-174.5" font-family="FreeSans" font-size="10.00">/elsid/openmw/apps/openmw</text>
<text text-anchor="middle" x="1583" y="-163.5" font-family="FreeSans" font-size="10.00">/mwrender/water.cpp</text>
</a>
</g>
</g>
<!-- Node11&#45;&gt;Node14 -->
<g id="edge17" class="edge"><title>Node11&#45;&gt;Node14</title>
<path fill="none" stroke="midnightblue" d="M1459.42,-230.469C1484.33,-219.892 1513.38,-207.557 1537.06,-197.506"/>
<polygon fill="midnightblue" stroke="midnightblue" points="1457.93,-227.298 1450.1,-234.428 1460.67,-233.742 1457.93,-227.298"/>
</g>
<!-- Node15 -->
<g id="node15" class="node"><title>Node15</title>
<g id="a_node15"><a xlink:href="nifosg_2controller_8cpp.html" target="_top" xlink:title="/home/travis/build\l/elsid/openmw/components\l/nifosg/controller.cpp">
<polygon fill="white" stroke="black" points="1679,-156.5 1679,-197.5 1827,-197.5 1827,-156.5 1679,-156.5"/>
<text text-anchor="start" x="1687" y="-185.5" font-family="FreeSans" font-size="10.00">/home/travis/build</text>
<text text-anchor="start" x="1687" y="-174.5" font-family="FreeSans" font-size="10.00">/elsid/openmw/components</text>
<text text-anchor="middle" x="1753" y="-163.5" font-family="FreeSans" font-size="10.00">/nifosg/controller.cpp</text>
</a>
</g>
</g>
<!-- Node11&#45;&gt;Node15 -->
<g id="edge18" class="edge"><title>Node11&#45;&gt;Node15</title>
<path fill="none" stroke="midnightblue" d="M1487.95,-236.829C1540.13,-226.017 1608.55,-211.581 1669,-198 1672.22,-197.277 1675.5,-196.531 1678.82,-195.77"/>
<polygon fill="midnightblue" stroke="midnightblue" points="1487.16,-233.42 1478.07,-238.874 1488.57,-240.275 1487.16,-233.42"/>
</g>
<!-- Node16 -->
<g id="node16" class="node"><title>Node16</title>
<g id="a_node16"><a xlink:href="nifloader_8hpp.html" target="_top" xlink:title="/home/travis/build\l/elsid/openmw/components\l/nifosg/nifloader.hpp">
<polygon fill="white" stroke="black" points="1154,-156.5 1154,-197.5 1302,-197.5 1302,-156.5 1154,-156.5"/>
<text text-anchor="start" x="1162" y="-185.5" font-family="FreeSans" font-size="10.00">/home/travis/build</text>
<text text-anchor="start" x="1162" y="-174.5" font-family="FreeSans" font-size="10.00">/elsid/openmw/components</text>
<text text-anchor="middle" x="1228" y="-163.5" font-family="FreeSans" font-size="10.00">/nifosg/nifloader.hpp</text>
</a>
</g>
</g>
<!-- Node11&#45;&gt;Node16 -->
<g id="edge19" class="edge"><title>Node11&#45;&gt;Node16</title>
<path fill="none" stroke="midnightblue" d="M1349.18,-230.329C1324.76,-219.783 1296.35,-207.513 1273.17,-197.506"/>
<polygon fill="midnightblue" stroke="midnightblue" points="1348.11,-233.677 1358.68,-234.428 1350.88,-227.25 1348.11,-233.677"/>
</g>
<!-- Node25 -->
<g id="node25" class="node"><title>Node25</title>
<g id="a_node25"><a xlink:href="particle_8hpp.html" target="_top" xlink:title="/home/travis/build\l/elsid/openmw/components\l/nifosg/particle.hpp">
<polygon fill="white" stroke="black" points="980,-156.5 980,-197.5 1128,-197.5 1128,-156.5 980,-156.5"/>
<text text-anchor="start" x="988" y="-185.5" font-family="FreeSans" font-size="10.00">/home/travis/build</text>
<text text-anchor="start" x="988" y="-174.5" font-family="FreeSans" font-size="10.00">/elsid/openmw/components</text>
<text text-anchor="middle" x="1054" y="-163.5" font-family="FreeSans" font-size="10.00">/nifosg/particle.hpp</text>
</a>
</g>
</g>
<!-- Node11&#45;&gt;Node25 -->
<g id="edge32" class="edge"><title>Node11&#45;&gt;Node25</title>
<path fill="none" stroke="midnightblue" d="M1319.82,-235.874C1269.15,-224.946 1203.36,-210.723 1145,-198 1139.63,-196.829 1134.08,-195.616 1128.49,-194.393"/>
<polygon fill="midnightblue" stroke="midnightblue" points="1319.23,-239.328 1329.74,-238.015 1320.71,-232.485 1319.23,-239.328"/>
</g>
<!-- Node16&#45;&gt;Node9 -->
<g id="edge24" class="edge"><title>Node16&#45;&gt;Node9</title>
<path fill="none" stroke="midnightblue" d="M1143.7,-157.059C1141.45,-156.686 1139.21,-156.332 1137,-156 943.405,-126.923 891.292,-151.023 698,-120 695.073,-119.53 692.097,-119.012 689.097,-118.455"/>
<polygon fill="midnightblue" stroke="midnightblue" points="1143.2,-160.526 1153.66,-158.808 1144.41,-153.632 1143.2,-160.526"/>
</g>
<!-- Node16&#45;&gt;Node12 -->
<g id="edge21" class="edge"><title>Node16&#45;&gt;Node12</title>
<path fill="none" stroke="midnightblue" d="M1312.08,-155.464C1373.94,-140.263 1447.83,-121.878 1451,-120 1472.92,-107.03 1467.57,-90.0733 1490,-78 1575.7,-31.8721 1610.53,-60.9111 1706,-42 1709.04,-41.3977 1712.14,-40.7675 1715.26,-40.1173"/>
<polygon fill="midnightblue" stroke="midnightblue" points="1311.15,-152.09 1302.27,-157.873 1312.82,-158.888 1311.15,-152.09"/>
</g>
<!-- Node17 -->
<g id="node17" class="node"><title>Node17</title>
<g id="a_node17"><a xlink:href="editor_8cpp.html" target="_top" xlink:title="/home/travis/build\l/elsid/openmw/apps/opencs\l/editor.cpp">
<polygon fill="white" stroke="black" points="1498.5,-78.5 1498.5,-119.5 1647.5,-119.5 1647.5,-78.5 1498.5,-78.5"/>
<text text-anchor="start" x="1506.5" y="-107.5" font-family="FreeSans" font-size="10.00">/home/travis/build</text>
<text text-anchor="start" x="1506.5" y="-96.5" font-family="FreeSans" font-size="10.00">/elsid/openmw/apps/opencs</text>
<text text-anchor="middle" x="1573" y="-85.5" font-family="FreeSans" font-size="10.00">/editor.cpp</text>
</a>
</g>
</g>
<!-- Node16&#45;&gt;Node17 -->
<g id="edge20" class="edge"><title>Node16&#45;&gt;Node17</title>
<path fill="none" stroke="midnightblue" d="M1311.7,-156.067C1311.8,-156.045 1311.9,-156.022 1312,-156 1388.65,-138.903 1408.26,-136.703 1485,-120 1489.29,-119.067 1493.69,-118.099 1498.13,-117.114"/>
<polygon fill="midnightblue" stroke="midnightblue" points="1311.16,-152.601 1302.18,-158.217 1312.7,-159.429 1311.16,-152.601"/>
</g>
<!-- Node18 -->
<g id="node18" class="node"><title>Node18</title>
<g id="a_node18"><a xlink:href="npcanimation_8cpp.html" target="_top" xlink:title="/home/travis/build\l/elsid/openmw/apps/openmw\l/mwrender/npcanimation.cpp">
<polygon fill="white" stroke="black" points="1666,-78.5 1666,-119.5 1822,-119.5 1822,-78.5 1666,-78.5"/>
<text text-anchor="start" x="1674" y="-107.5" font-family="FreeSans" font-size="10.00">/home/travis/build</text>
<text text-anchor="start" x="1674" y="-96.5" font-family="FreeSans" font-size="10.00">/elsid/openmw/apps/openmw</text>
<text text-anchor="middle" x="1744" y="-85.5" font-family="FreeSans" font-size="10.00">/mwrender/npcanimation.cpp</text>
</a>
</g>
</g>
<!-- Node16&#45;&gt;Node18 -->
<g id="edge22" class="edge"><title>Node16&#45;&gt;Node18</title>
<path fill="none" stroke="midnightblue" d="M1311.7,-156.052C1311.8,-156.035 1311.9,-156.017 1312,-156 1463.53,-130.143 1504.34,-145.079 1656,-120 1659.25,-119.463 1662.55,-118.88 1665.89,-118.261"/>
<polygon fill="midnightblue" stroke="midnightblue" points="1311.3,-152.566 1302.1,-157.808 1312.56,-159.451 1311.3,-152.566"/>
</g>
<!-- Node19 -->
<g id="node19" class="node"><title>Node19</title>
<g id="a_node19"><a xlink:href="cellpreloader_8cpp.html" target="_top" xlink:title="/home/travis/build\l/elsid/openmw/apps/openmw\l/mwworld/cellpreloader.cpp">
<polygon fill="white" stroke="black" points="973.5,-0.5 973.5,-41.5 1128.5,-41.5 1128.5,-0.5 973.5,-0.5"/>
<text text-anchor="start" x="981.5" y="-29.5" font-family="FreeSans" font-size="10.00">/home/travis/build</text>
<text text-anchor="start" x="981.5" y="-18.5" font-family="FreeSans" font-size="10.00">/elsid/openmw/apps/openmw</text>
<text text-anchor="middle" x="1051" y="-7.5" font-family="FreeSans" font-size="10.00">/mwworld/cellpreloader.cpp</text>
</a>
</g>
</g>
<!-- Node16&#45;&gt;Node19 -->
<g id="edge23" class="edge"><title>Node16&#45;&gt;Node19</title>
<path fill="none" stroke="midnightblue" d="M1234.29,-146.406C1237.02,-125.216 1236.8,-97.1564 1222,-78 1215.46,-69.5328 1166.95,-54.0902 1123.26,-41.563"/>
<polygon fill="midnightblue" stroke="midnightblue" points="1230.8,-146.06 1232.71,-156.482 1237.72,-147.146 1230.8,-146.06"/>
</g>
<!-- Node20 -->
<g id="node20" class="node"><title>Node20</title>
<g id="a_node20"><a xlink:href="keyframemanager_8hpp.html" target="_top" xlink:title="/home/travis/build\l/elsid/openmw/components\l/resource/keyframemanager.hpp">
<polygon fill="white" stroke="black" points="1269.5,-78.5 1269.5,-119.5 1442.5,-119.5 1442.5,-78.5 1269.5,-78.5"/>
<text text-anchor="start" x="1277.5" y="-107.5" font-family="FreeSans" font-size="10.00">/home/travis/build</text>
<text text-anchor="start" x="1277.5" y="-96.5" font-family="FreeSans" font-size="10.00">/elsid/openmw/components</text>
<text text-anchor="middle" x="1356" y="-85.5" font-family="FreeSans" font-size="10.00">/resource/keyframemanager.hpp</text>
</a>
</g>
</g>
<!-- Node16&#45;&gt;Node20 -->
<g id="edge25" class="edge"><title>Node16&#45;&gt;Node20</title>
<path fill="none" stroke="midnightblue" d="M1269.76,-151.203C1287.09,-140.918 1306.89,-129.159 1323.15,-119.506"/>
<polygon fill="midnightblue" stroke="midnightblue" points="1267.77,-148.313 1260.96,-156.428 1271.35,-154.332 1267.77,-148.313"/>
</g>
<!-- Node24 -->
<g id="node24" class="node"><title>Node24</title>
<g id="a_node24"><a xlink:href="scenemanager_8cpp.html" target="_top" xlink:title="/home/travis/build\l/elsid/openmw/components\l/resource/scenemanager.cpp">
<polygon fill="white" stroke="black" points="1057,-78.5 1057,-119.5 1213,-119.5 1213,-78.5 1057,-78.5"/>
<text text-anchor="start" x="1065" y="-107.5" font-family="FreeSans" font-size="10.00">/home/travis/build</text>
<text text-anchor="start" x="1065" y="-96.5" font-family="FreeSans" font-size="10.00">/elsid/openmw/components</text>
<text text-anchor="middle" x="1135" y="-85.5" font-family="FreeSans" font-size="10.00">/resource/scenemanager.cpp</text>
</a>
</g>
</g>
<!-- Node16&#45;&gt;Node24 -->
<g id="edge31" class="edge"><title>Node16&#45;&gt;Node24</title>
<path fill="none" stroke="midnightblue" d="M1196.26,-150.065C1184.02,-140.057 1170.25,-128.804 1158.87,-119.506"/>
<polygon fill="midnightblue" stroke="midnightblue" points="1194.09,-152.81 1204.05,-156.428 1198.52,-147.39 1194.09,-152.81"/>
</g>
<!-- Node20&#45;&gt;Node12 -->
<g id="edge26" class="edge"><title>Node20&#45;&gt;Node12</title>
<path fill="none" stroke="midnightblue" d="M1452.59,-78.763C1454.07,-78.5043 1455.54,-78.2498 1457,-78 1567.21,-59.1335 1596.09,-62.5433 1706,-42 1709.05,-41.4305 1712.15,-40.828 1715.28,-40.201"/>
<polygon fill="midnightblue" stroke="midnightblue" points="1451.95,-75.3222 1442.72,-80.5256 1453.18,-82.2132 1451.95,-75.3222"/>
</g>
<!-- Node20&#45;&gt;Node19 -->
<g id="edge28" class="edge"><title>Node20&#45;&gt;Node19</title>
<path fill="none" stroke="midnightblue" d="M1267.65,-75.9841C1223.73,-65.0398 1171.12,-51.9324 1128.75,-41.3739"/>
<polygon fill="midnightblue" stroke="midnightblue" points="1266.91,-79.4063 1277.45,-78.4281 1268.6,-72.614 1266.91,-79.4063"/>
</g>
<!-- Node21 -->
<g id="node21" class="node"><title>Node21</title>
<g id="a_node21"><a xlink:href="renderingmanager_8cpp.html" target="_top" xlink:title="/home/travis/build\l/elsid/openmw/apps/openmw\l/mwrender/renderingmanager.cpp">
<polygon fill="white" stroke="black" points="1327.5,-0.5 1327.5,-41.5 1506.5,-41.5 1506.5,-0.5 1327.5,-0.5"/>
<text text-anchor="start" x="1335.5" y="-29.5" font-family="FreeSans" font-size="10.00">/home/travis/build</text>
<text text-anchor="start" x="1335.5" y="-18.5" font-family="FreeSans" font-size="10.00">/elsid/openmw/apps/openmw</text>
<text text-anchor="middle" x="1417" y="-7.5" font-family="FreeSans" font-size="10.00">/mwrender/renderingmanager.cpp</text>
</a>
</g>
</g>
<!-- Node20&#45;&gt;Node21 -->
<g id="edge27" class="edge"><title>Node20&#45;&gt;Node21</title>
<path fill="none" stroke="midnightblue" d="M1377.97,-70.627C1385.71,-60.9901 1394.24,-50.3617 1401.34,-41.5056"/>
<polygon fill="midnightblue" stroke="midnightblue" points="1375.24,-68.4386 1371.71,-78.4281 1380.7,-72.8202 1375.24,-68.4386"/>
</g>
<!-- Node22 -->
<g id="node22" class="node"><title>Node22</title>
<g id="a_node22"><a xlink:href="keyframemanager_8cpp.html" target="_top" xlink:title="/home/travis/build\l/elsid/openmw/components\l/resource/keyframemanager.cpp">
<polygon fill="white" stroke="black" points="1524.5,-0.5 1524.5,-41.5 1697.5,-41.5 1697.5,-0.5 1524.5,-0.5"/>
<text text-anchor="start" x="1532.5" y="-29.5" font-family="FreeSans" font-size="10.00">/home/travis/build</text>
<text text-anchor="start" x="1532.5" y="-18.5" font-family="FreeSans" font-size="10.00">/elsid/openmw/components</text>
<text text-anchor="middle" x="1611" y="-7.5" font-family="FreeSans" font-size="10.00">/resource/keyframemanager.cpp</text>
</a>
</g>
</g>
<!-- Node20&#45;&gt;Node22 -->
<g id="edge29" class="edge"><title>Node20&#45;&gt;Node22</title>
<path fill="none" stroke="midnightblue" d="M1431.69,-75.4423C1467.88,-64.655 1510.79,-51.8672 1545.55,-41.5056"/>
<polygon fill="midnightblue" stroke="midnightblue" points="1430.25,-72.2176 1421.67,-78.4281 1432.25,-78.926 1430.25,-72.2176"/>
</g>
<!-- Node23 -->
<g id="node23" class="node"><title>Node23</title>
<g id="a_node23"><a xlink:href="resourcesystem_8cpp.html" target="_top" xlink:title="/home/travis/build\l/elsid/openmw/components\l/resource/resourcesystem.cpp">
<polygon fill="white" stroke="black" points="1147,-0.5 1147,-41.5 1309,-41.5 1309,-0.5 1147,-0.5"/>
<text text-anchor="start" x="1155" y="-29.5" font-family="FreeSans" font-size="10.00">/home/travis/build</text>
<text text-anchor="start" x="1155" y="-18.5" font-family="FreeSans" font-size="10.00">/elsid/openmw/components</text>
<text text-anchor="middle" x="1228" y="-7.5" font-family="FreeSans" font-size="10.00">/resource/resourcesystem.cpp</text>
</a>
</g>
</g>
<!-- Node20&#45;&gt;Node23 -->
<g id="edge30" class="edge"><title>Node20&#45;&gt;Node23</title>
<path fill="none" stroke="midnightblue" d="M1314.24,-73.2029C1296.91,-62.9176 1277.11,-51.1587 1260.85,-41.5056"/>
<polygon fill="midnightblue" stroke="midnightblue" points="1312.65,-76.3322 1323.04,-78.4281 1316.23,-70.3132 1312.65,-76.3322"/>
</g>
<!-- Node25&#45;&gt;Node9 -->
<g id="edge34" class="edge"><title>Node25&#45;&gt;Node9</title>
<path fill="none" stroke="midnightblue" d="M969.85,-155.89C848.91,-134.073 815.15,-141.776 698,-120 695.085,-119.458 692.12,-118.879 689.129,-118.272"/>
<polygon fill="midnightblue" stroke="midnightblue" points="969.404,-159.366 979.871,-157.728 970.667,-152.481 969.404,-159.366"/>
</g>
<!-- Node26 -->
<g id="node26" class="node"><title>Node26</title>
<g id="a_node26"><a xlink:href="physicssystem_8cpp.html" target="_top" xlink:title="/home/travis/build\l/elsid/openmw/apps/openmw\l/mwphysics/physicssystem.cpp">
<polygon fill="white" stroke="black" points="873.5,-78.5 873.5,-119.5 1038.5,-119.5 1038.5,-78.5 873.5,-78.5"/>
<text text-anchor="start" x="881.5" y="-107.5" font-family="FreeSans" font-size="10.00">/home/travis/build</text>
<text text-anchor="start" x="881.5" y="-96.5" font-family="FreeSans" font-size="10.00">/elsid/openmw/apps/openmw</text>
<text text-anchor="middle" x="956" y="-85.5" font-family="FreeSans" font-size="10.00">/mwphysics/physicssystem.cpp</text>
</a>
</g>
</g>
<!-- Node25&#45;&gt;Node26 -->
<g id="edge33" class="edge"><title>Node25&#45;&gt;Node26</title>
<path fill="none" stroke="midnightblue" d="M1020.56,-150.065C1007.65,-140.057 993.143,-128.804 981.152,-119.506"/>
<polygon fill="midnightblue" stroke="midnightblue" points="1018.72,-153.066 1028.76,-156.428 1023.01,-147.534 1018.72,-153.066"/>
</g>
<!-- Node27 -->
<g id="node27" class="node"><title>Node27</title>
<g id="a_node27"><a xlink:href="particle_8cpp.html" target="_top" xlink:title="/home/travis/build\l/elsid/openmw/components\l/nifosg/particle.cpp">
<polygon fill="white" stroke="black" points="707,-78.5 707,-119.5 855,-119.5 855,-78.5 707,-78.5"/>
<text text-anchor="start" x="715" y="-107.5" font-family="FreeSans" font-size="10.00">/home/travis/build</text>
<text text-anchor="start" x="715" y="-96.5" font-family="FreeSans" font-size="10.00">/elsid/openmw/components</text>
<text text-anchor="middle" x="781" y="-85.5" font-family="FreeSans" font-size="10.00">/nifosg/particle.cpp</text>
</a>
</g>
</g>
<!-- Node25&#45;&gt;Node27 -->
<g id="edge35" class="edge"><title>Node25&#45;&gt;Node27</title>
<path fill="none" stroke="midnightblue" d="M973.962,-153.718C935.007,-142.874 888.604,-129.956 851.066,-119.506"/>
<polygon fill="midnightblue" stroke="midnightblue" points="973.123,-157.118 983.696,-156.428 975.001,-150.374 973.123,-157.118"/>
</g>
</g>
</svg>
