<?xml version="1.0" encoding="UTF-8" standalone="no"?>
<!DOCTYPE svg PUBLIC "-//W3C//DTD SVG 1.1//EN"
 "http://www.w3.org/Graphics/SVG/1.1/DTD/svg11.dtd">
<!-- Generated by graphviz version 2.36.0 (20140111.2315)
 -->
<!-- Title: /home/scrawl/Dev/openmw/components/widgets/numericeditbox.cpp Pages: 1 -->
<svg width="237pt" height="152pt"
 viewBox="0.00 0.00 237.00 152.00" xmlns="http://www.w3.org/2000/svg" xmlns:xlink="http://www.w3.org/1999/xlink">
<g id="graph0" class="graph" transform="scale(1 1) rotate(0) translate(4 148)">
<title>/home/scrawl/Dev/openmw/components/widgets/numericeditbox.cpp</title>
<polygon fill="white" stroke="none" points="-4,4 -4,-148 233,-148 233,4 -4,4"/>
<!-- Node1 -->
<g id="node1" class="node"><title>Node1</title>
<polygon fill="#bfbfbf" stroke="black" points="15,-113 15,-143 209,-143 209,-113 15,-113"/>
<text text-anchor="start" x="23" y="-131" font-family="FreeSans" font-size="10.00">/home/scrawl/Dev/openmw</text>
<text text-anchor="middle" x="112" y="-120" font-family="FreeSans" font-size="10.00">/components/widgets/numericeditbox.cpp</text>
</g>
<!-- Node2 -->
<g id="node2" class="node"><title>Node2</title>
<g id="a_node2"><a xlink:href="numericeditbox_8hpp.html" target="_top" xlink:title="numericeditbox.hpp">
<polygon fill="white" stroke="black" points="0,-56.5 0,-75.5 100,-75.5 100,-56.5 0,-56.5"/>
<text text-anchor="middle" x="50" y="-63.5" font-family="FreeSans" font-size="10.00">numericeditbox.hpp</text>
</a>
</g>
</g>
<!-- Node1&#45;&gt;Node2 -->
<g id="edge1" class="edge"><title>Node1&#45;&gt;Node2</title>
<path fill="none" stroke="midnightblue" d="M97.3069,-112.781C88.0189,-103.792 76.0007,-92.162 66.4022,-82.8731"/>
<polygon fill="midnightblue" stroke="midnightblue" points="68.6416,-80.1697 59.0215,-75.7305 63.7736,-85.1999 68.6416,-80.1697"/>
</g>
<!-- Node4 -->
<g id="node4" class="node"><title>Node4</title>
<polygon fill="white" stroke="#bfbfbf" points="118.5,-56.5 118.5,-75.5 229.5,-75.5 229.5,-56.5 118.5,-56.5"/>
<text text-anchor="middle" x="174" y="-63.5" font-family="FreeSans" font-size="10.00">boost/lexical_cast.hpp</text>
</g>
<!-- Node1&#45;&gt;Node4 -->
<g id="edge3" class="edge"><title>Node1&#45;&gt;Node4</title>
<path fill="none" stroke="midnightblue" d="M126.693,-112.781C135.981,-103.792 147.999,-92.162 157.598,-82.8731"/>
<polygon fill="midnightblue" stroke="midnightblue" points="160.226,-85.1999 164.978,-75.7305 155.358,-80.1697 160.226,-85.1999"/>
</g>
<!-- Node3 -->
<g id="node3" class="node"><title>Node3</title>
<polygon fill="white" stroke="#bfbfbf" points="4,-0.5 4,-19.5 96,-19.5 96,-0.5 4,-0.5"/>
<text text-anchor="middle" x="50" y="-7.5" font-family="FreeSans" font-size="10.00">MyGUI_EditBox.h</text>
</g>
<!-- Node2&#45;&gt;Node3 -->
<g id="edge2" class="edge"><title>Node2&#45;&gt;Node3</title>
<path fill="none" stroke="midnightblue" d="M50,-56.083C50,-49.0059 50,-38.8611 50,-29.9865"/>
<polygon fill="midnightblue" stroke="midnightblue" points="53.5001,-29.751 50,-19.7511 46.5001,-29.7511 53.5001,-29.751"/>
</g>
</g>
</svg>
