<?xml version="1.0" encoding="UTF-8" standalone="no"?>
<!DOCTYPE svg PUBLIC "-//W3C//DTD SVG 1.1//EN"
 "http://www.w3.org/Graphics/SVG/1.1/DTD/svg11.dtd">
<!-- Generated by graphviz version 2.36.0 (20140111.2315)
 -->
<!-- Title: /home/travis/build/elsid/openmw/apps/openmw/mwsound/openal_output.cpp Pages: 1 -->
<svg width="2423pt" height="566pt"
 viewBox="0.00 0.00 2423.39 566.00" xmlns="http://www.w3.org/2000/svg" xmlns:xlink="http://www.w3.org/1999/xlink">
<g id="graph0" class="graph" transform="scale(1 1) rotate(0) translate(4 562)">
<title>/home/travis/build/elsid/openmw/apps/openmw/mwsound/openal_output.cpp</title>
<polygon fill="white" stroke="none" points="-4,4 -4,-562 2419.39,-562 2419.39,4 -4,4"/>
<!-- Node1 -->
<g id="node1" class="node"><title>Node1</title>
<polygon fill="#bfbfbf" stroke="black" points="1086.39,-516.5 1086.39,-557.5 1244.39,-557.5 1244.39,-516.5 1086.39,-516.5"/>
<text text-anchor="start" x="1094.39" y="-545.5" font-family="FreeSans" font-size="10.00">/home/travis/build</text>
<text text-anchor="start" x="1094.39" y="-534.5" font-family="FreeSans" font-size="10.00">/elsid/openmw/apps/openmw</text>
<text text-anchor="middle" x="1165.39" y="-523.5" font-family="FreeSans" font-size="10.00">/mwsound/openal_output.cpp</text>
</g>
<!-- Node2 -->
<g id="node2" class="node"><title>Node2</title>
<polygon fill="white" stroke="#bfbfbf" points="692.392,-404.5 692.392,-423.5 754.392,-423.5 754.392,-404.5 692.392,-404.5"/>
<text text-anchor="middle" x="723.392" y="-411.5" font-family="FreeSans" font-size="10.00">algorithm</text>
</g>
<!-- Node1&#45;&gt;Node2 -->
<g id="edge1" class="edge"><title>Node1&#45;&gt;Node2</title>
<path fill="none" stroke="midnightblue" d="M1086.21,-532.902C1014.36,-527.856 906.635,-514.625 819.392,-480 789.328,-468.068 759.179,-445.502 740.899,-430.355"/>
<polygon fill="midnightblue" stroke="midnightblue" points="742.82,-427.396 732.931,-423.595 738.291,-432.733 742.82,-427.396"/>
</g>
<!-- Node3 -->
<g id="node3" class="node"><title>Node3</title>
<polygon fill="white" stroke="#bfbfbf" points="1096.39,-460.5 1096.39,-479.5 1160.39,-479.5 1160.39,-460.5 1096.39,-460.5"/>
<text text-anchor="middle" x="1128.39" y="-467.5" font-family="FreeSans" font-size="10.00">stdexcept</text>
</g>
<!-- Node1&#45;&gt;Node3 -->
<g id="edge2" class="edge"><title>Node1&#45;&gt;Node3</title>
<path fill="none" stroke="midnightblue" d="M1154.29,-516.498C1149.22,-507.586 1143.26,-497.113 1138.33,-488.464"/>
<polygon fill="midnightblue" stroke="midnightblue" points="1141.31,-486.612 1133.32,-479.652 1135.22,-490.075 1141.31,-486.612"/>
</g>
<!-- Node4 -->
<g id="node4" class="node"><title>Node4</title>
<polygon fill="white" stroke="#bfbfbf" points="1178.89,-460.5 1178.89,-479.5 1227.89,-479.5 1227.89,-460.5 1178.89,-460.5"/>
<text text-anchor="middle" x="1203.39" y="-467.5" font-family="FreeSans" font-size="10.00">cstring</text>
</g>
<!-- Node1&#45;&gt;Node4 -->
<g id="edge3" class="edge"><title>Node1&#45;&gt;Node4</title>
<path fill="none" stroke="midnightblue" d="M1176.79,-516.498C1182,-507.586 1188.13,-497.113 1193.18,-488.464"/>
<polygon fill="midnightblue" stroke="midnightblue" points="1196.31,-490.052 1198.33,-479.652 1190.27,-486.519 1196.31,-490.052"/>
</g>
<!-- Node5 -->
<g id="node5" class="node"><title>Node5</title>
<polygon fill="white" stroke="#bfbfbf" points="328.892,-348.5 328.892,-367.5 375.892,-367.5 375.892,-348.5 328.892,-348.5"/>
<text text-anchor="middle" x="352.392" y="-355.5" font-family="FreeSans" font-size="10.00">vector</text>
</g>
<!-- Node1&#45;&gt;Node5 -->
<g id="edge4" class="edge"><title>Node1&#45;&gt;Node5</title>
<path fill="none" stroke="midnightblue" d="M1086.17,-531.789C1006.99,-525.899 882.534,-512.048 779.392,-480 706.504,-457.353 698.239,-426.779 625.392,-404 524.75,-372.53 491.627,-390.069 386.102,-368.361"/>
<polygon fill="midnightblue" stroke="midnightblue" points="386.513,-364.87 376.004,-366.211 385.055,-371.717 386.513,-364.87"/>
</g>
<!-- Node6 -->
<g id="node6" class="node"><title>Node6</title>
<polygon fill="white" stroke="#bfbfbf" points="275.892,-224.5 275.892,-243.5 332.892,-243.5 332.892,-224.5 275.892,-224.5"/>
<text text-anchor="middle" x="304.392" y="-231.5" font-family="FreeSans" font-size="10.00">memory</text>
</g>
<!-- Node1&#45;&gt;Node6 -->
<g id="edge5" class="edge"><title>Node1&#45;&gt;Node6</title>
<path fill="none" stroke="midnightblue" d="M1086.28,-536.05C955.624,-534.715 687.135,-525.975 465.392,-480 389.975,-464.363 346.199,-486.647 301.392,-424 264.195,-371.992 285.358,-289.666 297.592,-253.301"/>
<polygon fill="midnightblue" stroke="midnightblue" points="300.997,-254.17 301.028,-243.575 294.397,-251.838 300.997,-254.17"/>
</g>
<!-- Node7 -->
<g id="node7" class="node"><title>Node7</title>
<polygon fill="white" stroke="#bfbfbf" points="1245.89,-460.5 1245.89,-479.5 1286.89,-479.5 1286.89,-460.5 1245.89,-460.5"/>
<text text-anchor="middle" x="1266.39" y="-467.5" font-family="FreeSans" font-size="10.00">array</text>
</g>
<!-- Node1&#45;&gt;Node7 -->
<g id="edge6" class="edge"><title>Node1&#45;&gt;Node7</title>
<path fill="none" stroke="midnightblue" d="M1195.7,-516.498C1211.33,-506.436 1230.06,-494.385 1244.31,-485.214"/>
<polygon fill="midnightblue" stroke="midnightblue" points="1246.43,-488.008 1252.95,-479.652 1242.64,-482.121 1246.43,-488.008"/>
</g>
<!-- Node8 -->
<g id="node8" class="node"><title>Node8</title>
<polygon fill="white" stroke="#bfbfbf" points="1304.89,-460.5 1304.89,-479.5 1357.89,-479.5 1357.89,-460.5 1304.89,-460.5"/>
<text text-anchor="middle" x="1331.39" y="-467.5" font-family="FreeSans" font-size="10.00">stdint.h</text>
</g>
<!-- Node1&#45;&gt;Node8 -->
<g id="edge7" class="edge"><title>Node1&#45;&gt;Node8</title>
<path fill="none" stroke="midnightblue" d="M1215.2,-516.498C1242.61,-505.766 1275.8,-492.769 1299.68,-483.419"/>
<polygon fill="midnightblue" stroke="midnightblue" points="1301.26,-486.558 1309.3,-479.652 1298.71,-480.04 1301.26,-486.558"/>
</g>
<!-- Node9 -->
<g id="node9" class="node"><title>Node9</title>
<g id="a_node9"><a xlink:href="debuglog_8hpp.html" target="_top" xlink:title="components/debug/debuglog.hpp">
<polygon fill="white" stroke="black" points="1376.39,-460.5 1376.39,-479.5 1554.39,-479.5 1554.39,-460.5 1376.39,-460.5"/>
<text text-anchor="middle" x="1465.39" y="-467.5" font-family="FreeSans" font-size="10.00">components/debug/debuglog.hpp</text>
</a>
</g>
</g>
<!-- Node1&#45;&gt;Node9 -->
<g id="edge8" class="edge"><title>Node1&#45;&gt;Node9</title>
<path fill="none" stroke="midnightblue" d="M1244.61,-518.837C1299.11,-507.028 1369.79,-491.714 1416.31,-481.634"/>
<polygon fill="midnightblue" stroke="midnightblue" points="1417.12,-485.041 1426.15,-479.503 1415.63,-478.2 1417.12,-485.041"/>
</g>
<!-- Node12 -->
<g id="node12" class="node"><title>Node12</title>
<g id="a_node12"><a xlink:href="constants_8hpp.html" target="_top" xlink:title="components/misc/constants.hpp">
<polygon fill="white" stroke="black" points="1572.89,-460.5 1572.89,-479.5 1745.89,-479.5 1745.89,-460.5 1572.89,-460.5"/>
<text text-anchor="middle" x="1659.39" y="-467.5" font-family="FreeSans" font-size="10.00">components/misc/constants.hpp</text>
</a>
</g>
</g>
<!-- Node1&#45;&gt;Node12 -->
<g id="edge11" class="edge"><title>Node1&#45;&gt;Node12</title>
<path fill="none" stroke="midnightblue" d="M1244.49,-525.593C1338.15,-513.269 1492.97,-492.897 1584.67,-480.831"/>
<polygon fill="midnightblue" stroke="midnightblue" points="1585.26,-484.285 1594.72,-479.51 1584.34,-477.345 1585.26,-484.285"/>
</g>
<!-- Node13 -->
<g id="node13" class="node"><title>Node13</title>
<g id="a_node13"><a xlink:href="manager_8hpp.html" target="_top" xlink:title="components/vfs/manager.hpp">
<polygon fill="white" stroke="black" points="438.392,-404.5 438.392,-423.5 598.392,-423.5 598.392,-404.5 438.392,-404.5"/>
<text text-anchor="middle" x="518.392" y="-411.5" font-family="FreeSans" font-size="10.00">components/vfs/manager.hpp</text>
</a>
</g>
</g>
<!-- Node1&#45;&gt;Node13 -->
<g id="edge12" class="edge"><title>Node1&#45;&gt;Node13</title>
<path fill="none" stroke="midnightblue" d="M1086.24,-533.262C929.348,-527.198 590.305,-510.685 547.392,-480 532.348,-469.242 524.982,-448.845 521.459,-433.758"/>
<polygon fill="midnightblue" stroke="midnightblue" points="524.888,-433.056 519.518,-423.923 518.021,-434.412 524.888,-433.056"/>
</g>
<!-- Node17 -->
<g id="node17" class="node"><title>Node17</title>
<polygon fill="white" stroke="#bfbfbf" points="1764.39,-460.5 1764.39,-479.5 1880.39,-479.5 1880.39,-460.5 1764.39,-460.5"/>
<text text-anchor="middle" x="1822.39" y="-467.5" font-family="FreeSans" font-size="10.00">OpenThreads/Thread</text>
</g>
<!-- Node1&#45;&gt;Node17 -->
<g id="edge18" class="edge"><title>Node1&#45;&gt;Node17</title>
<path fill="none" stroke="midnightblue" d="M1244.56,-529.404C1355.74,-519.934 1564.7,-501.376 1754.03,-479.999"/>
<polygon fill="midnightblue" stroke="midnightblue" points="1754.63,-483.454 1764.17,-478.849 1753.84,-476.498 1754.63,-483.454"/>
</g>
<!-- Node18 -->
<g id="node18" class="node"><title>Node18</title>
<polygon fill="white" stroke="#bfbfbf" points="1898.39,-460.5 1898.39,-479.5 2026.39,-479.5 2026.39,-460.5 1898.39,-460.5"/>
<text text-anchor="middle" x="1962.39" y="-467.5" font-family="FreeSans" font-size="10.00">OpenThreads/Condition</text>
</g>
<!-- Node1&#45;&gt;Node18 -->
<g id="edge19" class="edge"><title>Node1&#45;&gt;Node18</title>
<path fill="none" stroke="midnightblue" d="M1244.39,-531.016C1375.62,-522.486 1647.04,-503.781 1888.22,-479.97"/>
<polygon fill="midnightblue" stroke="midnightblue" points="1888.63,-483.447 1898.24,-478.977 1887.94,-476.481 1888.63,-483.447"/>
</g>
<!-- Node19 -->
<g id="node19" class="node"><title>Node19</title>
<polygon fill="white" stroke="#bfbfbf" points="2044.89,-460.5 2044.89,-479.5 2157.89,-479.5 2157.89,-460.5 2044.89,-460.5"/>
<text text-anchor="middle" x="2101.39" y="-467.5" font-family="FreeSans" font-size="10.00">OpenThreads/Mutex</text>
</g>
<!-- Node1&#45;&gt;Node19 -->
<g id="edge20" class="edge"><title>Node1&#45;&gt;Node19</title>
<path fill="none" stroke="midnightblue" d="M1244.42,-532.801C1395.68,-526.265 1736.77,-509.535 2034.42,-480.025"/>
<polygon fill="midnightblue" stroke="midnightblue" points="2034.94,-483.49 2044.54,-479.014 2034.24,-476.525 2034.94,-483.49"/>
</g>
<!-- Node20 -->
<g id="node20" class="node"><title>Node20</title>
<polygon fill="white" stroke="#bfbfbf" points="2175.89,-460.5 2175.89,-479.5 2316.89,-479.5 2316.89,-460.5 2175.89,-460.5"/>
<text text-anchor="middle" x="2246.39" y="-467.5" font-family="FreeSans" font-size="10.00">OpenThreads/ScopedLock</text>
</g>
<!-- Node1&#45;&gt;Node20 -->
<g id="edge21" class="edge"><title>Node1&#45;&gt;Node20</title>
<path fill="none" stroke="midnightblue" d="M1244.65,-533.08C1412.44,-526.568 1816.06,-509.163 2165.68,-480.01"/>
<polygon fill="midnightblue" stroke="midnightblue" points="2166.07,-483.489 2175.74,-479.166 2165.49,-476.513 2166.07,-483.489"/>
</g>
<!-- Node21 -->
<g id="node21" class="node"><title>Node21</title>
<g id="a_node21"><a xlink:href="openal__output_8hpp.html" target="_top" xlink:title="openal_output.hpp">
<polygon fill="white" stroke="black" points="970.892,-460.5 970.892,-479.5 1077.89,-479.5 1077.89,-460.5 970.892,-460.5"/>
<text text-anchor="middle" x="1024.39" y="-467.5" font-family="FreeSans" font-size="10.00">openal_output.hpp</text>
</a>
</g>
</g>
<!-- Node1&#45;&gt;Node21 -->
<g id="edge22" class="edge"><title>Node1&#45;&gt;Node21</title>
<path fill="none" stroke="midnightblue" d="M1123.09,-516.498C1100.22,-505.957 1072.62,-493.233 1052.43,-483.923"/>
<polygon fill="midnightblue" stroke="midnightblue" points="1053.71,-480.661 1043.16,-479.652 1050.78,-487.018 1053.71,-480.661"/>
</g>
<!-- Node31 -->
<g id="node31" class="node"><title>Node31</title>
<g id="a_node31"><a xlink:href="soundmanagerimp_8hpp.html" target="_top" xlink:title="soundmanagerimp.hpp">
<polygon fill="white" stroke="black" points="790.392,-348.5 790.392,-367.5 918.392,-367.5 918.392,-348.5 790.392,-348.5"/>
<text text-anchor="middle" x="854.392" y="-355.5" font-family="FreeSans" font-size="10.00">soundmanagerimp.hpp</text>
</a>
</g>
</g>
<!-- Node1&#45;&gt;Node31 -->
<g id="edge77" class="edge"><title>Node1&#45;&gt;Node31</title>
<path fill="none" stroke="midnightblue" d="M1086.19,-529.658C1045.15,-522.83 996.445,-508.785 961.392,-480 932.207,-456.033 948.528,-432.185 923.392,-404 911.791,-390.991 895.597,-380.17 881.813,-372.401"/>
<polygon fill="midnightblue" stroke="midnightblue" points="883.206,-369.176 872.741,-367.521 879.89,-375.341 883.206,-369.176"/>
</g>
<!-- Node47 -->
<g id="node47" class="node"><title>Node47</title>
<g id="a_node47"><a xlink:href="sound__decoder_8hpp.html" target="_top" xlink:title="sound_decoder.hpp">
<polygon fill="white" stroke="black" points="310.392,-404.5 310.392,-423.5 420.392,-423.5 420.392,-404.5 310.392,-404.5"/>
<text text-anchor="middle" x="365.392" y="-411.5" font-family="FreeSans" font-size="10.00">sound_decoder.hpp</text>
</a>
</g>
</g>
<!-- Node1&#45;&gt;Node47 -->
<g id="edge71" class="edge"><title>Node1&#45;&gt;Node47</title>
<path fill="none" stroke="midnightblue" d="M1086.26,-536.394C964.648,-535.363 725.227,-526.829 528.392,-480 478.113,-468.038 422.894,-443.387 391.36,-428.117"/>
<polygon fill="midnightblue" stroke="midnightblue" points="392.509,-424.782 381.99,-423.516 389.424,-431.065 392.509,-424.782"/>
</g>
<!-- Node48 -->
<g id="node48" class="node"><title>Node48</title>
<g id="a_node48"><a xlink:href="sound_8hpp.html" target="_top" xlink:title="sound.hpp">
<polygon fill="white" stroke="black" points="828.892,-460.5 828.892,-479.5 895.892,-479.5 895.892,-460.5 828.892,-460.5"/>
<text text-anchor="middle" x="862.392" y="-467.5" font-family="FreeSans" font-size="10.00">sound.hpp</text>
</a>
</g>
</g>
<!-- Node1&#45;&gt;Node48 -->
<g id="edge74" class="edge"><title>Node1&#45;&gt;Node48</title>
<path fill="none" stroke="midnightblue" d="M1086.18,-519.007C1028.68,-506.672 953.028,-490.443 906.068,-480.369"/>
<polygon fill="midnightblue" stroke="midnightblue" points="906.725,-476.931 896.213,-478.255 905.257,-483.775 906.725,-476.931"/>
</g>
<!-- Node49 -->
<g id="node49" class="node"><title>Node49</title>
<g id="a_node49"><a xlink:href="loudness_8hpp.html" target="_top" xlink:title="loudness.hpp">
<polygon fill="white" stroke="black" points="556.392,-460.5 556.392,-479.5 636.392,-479.5 636.392,-460.5 556.392,-460.5"/>
<text text-anchor="middle" x="596.392" y="-467.5" font-family="FreeSans" font-size="10.00">loudness.hpp</text>
</a>
</g>
</g>
<!-- Node1&#45;&gt;Node49 -->
<g id="edge78" class="edge"><title>Node1&#45;&gt;Node49</title>
<path fill="none" stroke="midnightblue" d="M1086.26,-528.804C985.009,-519.274 804.308,-501.177 650.392,-480 649.121,-479.825 647.834,-479.644 646.536,-479.457"/>
<polygon fill="midnightblue" stroke="midnightblue" points="646.868,-475.967 636.458,-477.938 645.825,-482.889 646.868,-475.967"/>
</g>
<!-- Node50 -->
<g id="node50" class="node"><title>Node50</title>
<g id="a_node50"><a xlink:href="efx-presets_8h.html" target="_top" xlink:title="efx&#45;presets.h">
<polygon fill="white" stroke="black" points="2335.39,-460.5 2335.39,-479.5 2415.39,-479.5 2415.39,-460.5 2335.39,-460.5"/>
<text text-anchor="middle" x="2375.39" y="-467.5" font-family="FreeSans" font-size="10.00">efx&#45;presets.h</text>
</a>
</g>
</g>
<!-- Node1&#45;&gt;Node50 -->
<g id="edge82" class="edge"><title>Node1&#45;&gt;Node50</title>
<path fill="none" stroke="midnightblue" d="M1244.44,-535.715C1432.43,-534.269 1920.72,-525.992 2325.39,-480 2325.49,-479.988 2325.6,-479.977 2325.7,-479.965"/>
<polygon fill="midnightblue" stroke="midnightblue" points="2325.89,-483.47 2335.34,-478.681 2324.97,-476.531 2325.89,-483.47"/>
</g>
<!-- Node10 -->
<g id="node10" class="node"><title>Node10</title>
<polygon fill="white" stroke="#bfbfbf" points="1492.89,-404.5 1492.89,-423.5 1539.89,-423.5 1539.89,-404.5 1492.89,-404.5"/>
<text text-anchor="middle" x="1516.39" y="-411.5" font-family="FreeSans" font-size="10.00">mutex</text>
</g>
<!-- Node9&#45;&gt;Node10 -->
<g id="edge9" class="edge"><title>Node9&#45;&gt;Node10</title>
<path fill="none" stroke="midnightblue" d="M1473.81,-460.083C1481.24,-452.22 1492.24,-440.569 1501.2,-431.081"/>
<polygon fill="midnightblue" stroke="midnightblue" points="1503.81,-433.424 1508.13,-423.751 1498.72,-428.618 1503.81,-433.424"/>
</g>
<!-- Node11 -->
<g id="node11" class="node"><title>Node11</title>
<polygon fill="white" stroke="#bfbfbf" points="1557.89,-404.5 1557.89,-423.5 1616.89,-423.5 1616.89,-404.5 1557.89,-404.5"/>
<text text-anchor="middle" x="1587.39" y="-411.5" font-family="FreeSans" font-size="10.00">iostream</text>
</g>
<!-- Node9&#45;&gt;Node11 -->
<g id="edge10" class="edge"><title>Node9&#45;&gt;Node11</title>
<path fill="none" stroke="midnightblue" d="M1484.72,-460.444C1504.71,-451.596 1536.14,-437.687 1558.96,-427.586"/>
<polygon fill="midnightblue" stroke="midnightblue" points="1560.42,-430.764 1568.15,-423.516 1557.59,-424.363 1560.42,-430.764"/>
</g>
<!-- Node13&#45;&gt;Node5 -->
<g id="edge16" class="edge"><title>Node13&#45;&gt;Node5</title>
<path fill="none" stroke="midnightblue" d="M492.089,-404.444C463.299,-395.078 417.075,-380.042 385.756,-369.853"/>
<polygon fill="midnightblue" stroke="midnightblue" points="386.744,-366.494 376.152,-366.729 384.579,-373.151 386.744,-366.494"/>
</g>
<!-- Node14 -->
<g id="node14" class="node"><title>Node14</title>
<g id="a_node14"><a xlink:href="constrainedfilestream_8hpp.html" target="_top" xlink:title="components/files/constrainedfilestream.hpp">
<polygon fill="white" stroke="black" points="29.8922,-348.5 29.8922,-367.5 256.892,-367.5 256.892,-348.5 29.8922,-348.5"/>
<text text-anchor="middle" x="143.392" y="-355.5" font-family="FreeSans" font-size="10.00">components/files/constrainedfilestream.hpp</text>
</a>
</g>
</g>
<!-- Node13&#45;&gt;Node14 -->
<g id="edge13" class="edge"><title>Node13&#45;&gt;Node14</title>
<path fill="none" stroke="midnightblue" d="M458.972,-404.444C392.046,-394.806 283.416,-379.163 212.685,-368.978"/>
<polygon fill="midnightblue" stroke="midnightblue" points="212.931,-365.478 202.534,-367.516 211.933,-372.406 212.931,-365.478"/>
</g>
<!-- Node16 -->
<g id="node16" class="node"><title>Node16</title>
<polygon fill="white" stroke="#bfbfbf" points="1036.39,-224.5 1036.39,-243.5 1074.39,-243.5 1074.39,-224.5 1036.39,-224.5"/>
<text text-anchor="middle" x="1055.39" y="-231.5" font-family="FreeSans" font-size="10.00">map</text>
</g>
<!-- Node13&#45;&gt;Node16 -->
<g id="edge17" class="edge"><title>Node13&#45;&gt;Node16</title>
<path fill="none" stroke="midnightblue" d="M598.415,-407.976C709.599,-400.424 900.28,-385.187 927.392,-368 966.149,-343.431 948.88,-312.382 981.392,-280 994.589,-266.857 1012.34,-255.897 1027.15,-248.085"/>
<polygon fill="midnightblue" stroke="midnightblue" points="1029.03,-251.053 1036.38,-243.415 1025.87,-244.807 1029.03,-251.053"/>
</g>
<!-- Node14&#45;&gt;Node6 -->
<g id="edge15" class="edge"><title>Node14&#45;&gt;Node6</title>
<path fill="none" stroke="midnightblue" d="M142.967,-348.34C142.684,-332.608 144.41,-299.19 162.392,-280 189.003,-251.602 233.398,-241.041 265.472,-237.159"/>
<polygon fill="midnightblue" stroke="midnightblue" points="266.249,-240.597 275.834,-236.083 265.525,-233.635 266.249,-240.597"/>
</g>
<!-- Node15 -->
<g id="node15" class="node"><title>Node15</title>
<polygon fill="white" stroke="#bfbfbf" points="171.892,-286.5 171.892,-305.5 224.892,-305.5 224.892,-286.5 171.892,-286.5"/>
<text text-anchor="middle" x="198.392" y="-293.5" font-family="FreeSans" font-size="10.00">istream</text>
</g>
<!-- Node14&#45;&gt;Node15 -->
<g id="edge14" class="edge"><title>Node14&#45;&gt;Node15</title>
<path fill="none" stroke="midnightblue" d="M151.272,-348.403C159.686,-339.225 173.212,-324.47 183.618,-313.117"/>
<polygon fill="midnightblue" stroke="midnightblue" points="186.349,-315.317 190.527,-305.581 181.189,-310.587 186.349,-315.317"/>
</g>
<!-- Node21&#45;&gt;Node5 -->
<g id="edge24" class="edge"><title>Node21&#45;&gt;Node5</title>
<path fill="none" stroke="midnightblue" d="M970.576,-462.371C924.709,-455.729 857.5,-443.626 801.392,-424 783.005,-417.568 781.085,-409.48 762.392,-404 602.995,-357.272 554.255,-395.204 390.392,-368 388.929,-367.757 387.439,-367.49 385.936,-367.205"/>
<polygon fill="midnightblue" stroke="midnightblue" points="386.514,-363.75 376.008,-365.118 385.075,-370.6 386.514,-363.75"/>
</g>
<!-- Node21&#45;&gt;Node16 -->
<g id="edge25" class="edge"><title>Node21&#45;&gt;Node16</title>
<path fill="none" stroke="midnightblue" d="M1026.85,-460.446C1029.34,-451.446 1033.15,-436.835 1035.39,-424 1046.14,-362.356 1051.94,-288.326 1054.22,-254.089"/>
<polygon fill="midnightblue" stroke="midnightblue" points="1057.74,-253.927 1054.89,-243.723 1050.76,-253.479 1057.74,-253.927"/>
</g>
<!-- Node22 -->
<g id="node22" class="node"><title>Node22</title>
<polygon fill="white" stroke="#bfbfbf" points="857.392,-0.5 857.392,-19.5 901.392,-19.5 901.392,-0.5 857.392,-0.5"/>
<text text-anchor="middle" x="879.392" y="-7.5" font-family="FreeSans" font-size="10.00">string</text>
</g>
<!-- Node21&#45;&gt;Node22 -->
<g id="edge23" class="edge"><title>Node21&#45;&gt;Node22</title>
<path fill="none" stroke="midnightblue" d="M1078.21,-461.316C1167.74,-448.528 1337.62,-424.247 1338.39,-424 1398.41,-404.819 1464.39,-422.012 1464.39,-359 1464.39,-359 1464.39,-359 1464.39,-121 1464.39,-64.3222 1034.79,-24.0046 911.881,-13.6295"/>
<polygon fill="midnightblue" stroke="midnightblue" points="911.867,-10.1162 901.611,-12.7723 911.285,-17.092 911.867,-10.1162"/>
</g>
<!-- Node23 -->
<g id="node23" class="node"><title>Node23</title>
<polygon fill="white" stroke="#bfbfbf" points="990.892,-286.5 990.892,-305.5 1037.89,-305.5 1037.89,-286.5 990.892,-286.5"/>
<text text-anchor="middle" x="1014.39" y="-293.5" font-family="FreeSans" font-size="10.00">deque</text>
</g>
<!-- Node21&#45;&gt;Node23 -->
<g id="edge26" class="edge"><title>Node21&#45;&gt;Node23</title>
<path fill="none" stroke="midnightblue" d="M1023.88,-460.234C1022.33,-433.548 1017.64,-352.877 1015.49,-315.893"/>
<polygon fill="midnightblue" stroke="midnightblue" points="1018.96,-315.324 1014.89,-305.544 1011.98,-315.731 1018.96,-315.324"/>
</g>
<!-- Node24 -->
<g id="node24" class="node"><title>Node24</title>
<polygon fill="white" stroke="#bfbfbf" points="1368.89,-286.5 1368.89,-305.5 1407.89,-305.5 1407.89,-286.5 1368.89,-286.5"/>
<text text-anchor="middle" x="1388.39" y="-293.5" font-family="FreeSans" font-size="10.00">alc.h</text>
</g>
<!-- Node21&#45;&gt;Node24 -->
<g id="edge27" class="edge"><title>Node21&#45;&gt;Node24</title>
<path fill="none" stroke="midnightblue" d="M1078.06,-461.182C1151.19,-450.361 1275.38,-431.326 1295.39,-424 1341.06,-407.283 1365.37,-410.28 1389.39,-368 1398.51,-351.958 1396.62,-330.405 1393.48,-315.268"/>
<polygon fill="midnightblue" stroke="midnightblue" points="1396.88,-314.438 1391.12,-305.551 1390.08,-316.095 1396.88,-314.438"/>
</g>
<!-- Node25 -->
<g id="node25" class="node"><title>Node25</title>
<polygon fill="white" stroke="#bfbfbf" points="1275.39,-286.5 1275.39,-305.5 1309.39,-305.5 1309.39,-286.5 1275.39,-286.5"/>
<text text-anchor="middle" x="1292.39" y="-293.5" font-family="FreeSans" font-size="10.00">al.h</text>
</g>
<!-- Node21&#45;&gt;Node25 -->
<g id="edge28" class="edge"><title>Node21&#45;&gt;Node25</title>
<path fill="none" stroke="midnightblue" d="M1036.1,-460.268C1046.92,-451.809 1062.99,-438.207 1074.39,-424 1098.69,-393.736 1086.69,-371.741 1117.39,-348 1166.51,-310.013 1193.25,-330.925 1252.39,-312 1256.6,-310.652 1261.02,-309.119 1265.33,-307.559"/>
<polygon fill="midnightblue" stroke="midnightblue" points="1266.86,-310.724 1275,-303.947 1264.41,-304.166 1266.86,-310.724"/>
</g>
<!-- Node26 -->
<g id="node26" class="node"><title>Node26</title>
<g id="a_node26"><a xlink:href="alext_8h.html" target="_top" xlink:title="alext.h">
<polygon fill="white" stroke="black" points="1237.89,-404.5 1237.89,-423.5 1286.89,-423.5 1286.89,-404.5 1237.89,-404.5"/>
<text text-anchor="middle" x="1262.39" y="-411.5" font-family="FreeSans" font-size="10.00">alext.h</text>
</a>
</g>
</g>
<!-- Node21&#45;&gt;Node26 -->
<g id="edge29" class="edge"><title>Node21&#45;&gt;Node26</title>
<path fill="none" stroke="midnightblue" d="M1062.1,-460.444C1107.61,-450.119 1183.49,-432.902 1227.63,-422.887"/>
<polygon fill="midnightblue" stroke="midnightblue" points="1228.63,-426.25 1237.6,-420.624 1227.08,-419.424 1228.63,-426.25"/>
</g>
<!-- Node30 -->
<g id="node30" class="node"><title>Node30</title>
<g id="a_node30"><a xlink:href="sound__output_8hpp.html" target="_top" xlink:title="sound_output.hpp">
<polygon fill="white" stroke="black" points="810.392,-404.5 810.392,-423.5 914.392,-423.5 914.392,-404.5 810.392,-404.5"/>
<text text-anchor="middle" x="862.392" y="-411.5" font-family="FreeSans" font-size="10.00">sound_output.hpp</text>
</a>
</g>
</g>
<!-- Node21&#45;&gt;Node30 -->
<g id="edge37" class="edge"><title>Node21&#45;&gt;Node30</title>
<path fill="none" stroke="midnightblue" d="M998.723,-460.444C971.47,-451.359 928.209,-436.939 897.742,-426.783"/>
<polygon fill="midnightblue" stroke="midnightblue" points="898.535,-423.358 887.942,-423.516 896.322,-429.999 898.535,-423.358"/>
</g>
<!-- Node26&#45;&gt;Node24 -->
<g id="edge32" class="edge"><title>Node26&#45;&gt;Node24</title>
<path fill="none" stroke="midnightblue" d="M1287.31,-409.015C1311.7,-403.805 1348.2,-392.303 1369.39,-368 1382.08,-353.45 1386.41,-331.303 1387.82,-315.618"/>
<polygon fill="midnightblue" stroke="midnightblue" points="1391.32,-315.729 1388.42,-305.54 1384.34,-315.316 1391.32,-315.729"/>
</g>
<!-- Node26&#45;&gt;Node25 -->
<g id="edge33" class="edge"><title>Node26&#45;&gt;Node25</title>
<path fill="none" stroke="midnightblue" d="M1264.65,-404.281C1269.51,-385.463 1281.09,-340.697 1287.65,-315.34"/>
<polygon fill="midnightblue" stroke="midnightblue" points="1291.08,-316.063 1290.19,-305.505 1284.3,-314.31 1291.08,-316.063"/>
</g>
<!-- Node27 -->
<g id="node27" class="node"><title>Node27</title>
<polygon fill="white" stroke="#bfbfbf" points="1126.89,-348.5 1126.89,-367.5 1181.89,-367.5 1181.89,-348.5 1126.89,-348.5"/>
<text text-anchor="middle" x="1154.39" y="-355.5" font-family="FreeSans" font-size="10.00">stddef.h</text>
</g>
<!-- Node26&#45;&gt;Node27 -->
<g id="edge30" class="edge"><title>Node26&#45;&gt;Node27</title>
<path fill="none" stroke="midnightblue" d="M1245.04,-404.324C1227.72,-395.664 1200.88,-382.242 1180.89,-372.249"/>
<polygon fill="midnightblue" stroke="midnightblue" points="1182.21,-368.996 1171.7,-367.655 1179.08,-375.257 1182.21,-368.996"/>
</g>
<!-- Node28 -->
<g id="node28" class="node"><title>Node28</title>
<polygon fill="white" stroke="#bfbfbf" points="1200.39,-348.5 1200.39,-367.5 1264.39,-367.5 1264.39,-348.5 1200.39,-348.5"/>
<text text-anchor="middle" x="1232.39" y="-355.5" font-family="FreeSans" font-size="10.00">inttypes.h</text>
</g>
<!-- Node26&#45;&gt;Node28 -->
<g id="edge31" class="edge"><title>Node26&#45;&gt;Node28</title>
<path fill="none" stroke="midnightblue" d="M1257.44,-404.083C1253.29,-396.613 1247.24,-385.724 1242.13,-376.52"/>
<polygon fill="midnightblue" stroke="midnightblue" points="1245.17,-374.793 1237.25,-367.751 1239.05,-378.192 1245.17,-374.793"/>
</g>
<!-- Node29 -->
<g id="node29" class="node"><title>Node29</title>
<g id="a_node29"><a xlink:href="efx_8h.html" target="_top" xlink:title="efx.h">
<polygon fill="white" stroke="black" points="1320.39,-348.5 1320.39,-367.5 1360.39,-367.5 1360.39,-348.5 1320.39,-348.5"/>
<text text-anchor="middle" x="1340.39" y="-355.5" font-family="FreeSans" font-size="10.00">efx.h</text>
</a>
</g>
</g>
<!-- Node26&#45;&gt;Node29 -->
<g id="edge34" class="edge"><title>Node26&#45;&gt;Node29</title>
<path fill="none" stroke="midnightblue" d="M1274.92,-404.324C1286.98,-395.979 1305.42,-383.212 1319.66,-373.352"/>
<polygon fill="midnightblue" stroke="midnightblue" points="1321.66,-376.224 1327.89,-367.655 1317.68,-370.469 1321.66,-376.224"/>
</g>
<!-- Node29&#45;&gt;Node24 -->
<g id="edge35" class="edge"><title>Node29&#45;&gt;Node24</title>
<path fill="none" stroke="midnightblue" d="M1347.27,-348.403C1354.54,-339.314 1366.19,-324.756 1375.23,-313.449"/>
<polygon fill="midnightblue" stroke="midnightblue" points="1378.01,-315.576 1381.53,-305.581 1372.55,-311.203 1378.01,-315.576"/>
</g>
<!-- Node29&#45;&gt;Node25 -->
<g id="edge36" class="edge"><title>Node29&#45;&gt;Node25</title>
<path fill="none" stroke="midnightblue" d="M1333.52,-348.403C1326.24,-339.314 1314.6,-324.756 1305.55,-313.449"/>
<polygon fill="midnightblue" stroke="midnightblue" points="1308.24,-311.203 1299.26,-305.581 1302.77,-315.576 1308.24,-311.203"/>
</g>
<!-- Node30&#45;&gt;Node5 -->
<g id="edge40" class="edge"><title>Node30&#45;&gt;Node5</title>
<path fill="none" stroke="midnightblue" d="M810.182,-405.649C805.522,-405.063 800.874,-404.504 796.392,-404 616.374,-383.756 569.216,-396.95 390.392,-368 388.928,-367.763 387.437,-367.501 385.934,-367.219"/>
<polygon fill="midnightblue" stroke="midnightblue" points="386.507,-363.764 376.003,-365.148 385.078,-370.616 386.507,-363.764"/>
</g>
<!-- Node30&#45;&gt;Node6 -->
<g id="edge39" class="edge"><title>Node30&#45;&gt;Node6</title>
<path fill="none" stroke="midnightblue" d="M810.177,-405.693C805.518,-405.098 800.872,-404.524 796.392,-404 633.17,-384.895 582.697,-424.537 428.392,-368 387.298,-352.943 376.825,-344.391 347.392,-312 331.512,-294.524 319.16,-270.16 311.848,-253.549"/>
<polygon fill="midnightblue" stroke="midnightblue" points="314.892,-251.76 307.785,-243.903 308.441,-254.478 314.892,-251.76"/>
</g>
<!-- Node30&#45;&gt;Node22 -->
<g id="edge38" class="edge"><title>Node30&#45;&gt;Node22</title>
<path fill="none" stroke="midnightblue" d="M810.165,-405.766C707.335,-390.783 483.005,-354.204 418.392,-312 382.745,-288.715 361.392,-277.579 361.392,-235 361.392,-235 361.392,-235 361.392,-121 361.392,-21.2496 733.586,-11.57 846.989,-10.9358"/>
<polygon fill="midnightblue" stroke="midnightblue" points="847.147,-14.4353 857.134,-10.8999 847.122,-7.43539 847.147,-14.4353"/>
</g>
<!-- Node30&#45;&gt;Node31 -->
<g id="edge41" class="edge"><title>Node30&#45;&gt;Node31</title>
<path fill="none" stroke="midnightblue" d="M861.071,-404.083C860.011,-396.927 858.486,-386.635 857.161,-377.691"/>
<polygon fill="midnightblue" stroke="midnightblue" points="860.616,-377.13 855.689,-367.751 853.692,-378.156 860.616,-377.13"/>
</g>
<!-- Node31&#45;&gt;Node6 -->
<g id="edge42" class="edge"><title>Node31&#45;&gt;Node6</title>
<path fill="none" stroke="midnightblue" d="M790.183,-354.208C686.006,-349.038 485.088,-336.229 418.392,-312 380.117,-298.096 342.255,-268.555 321.236,-250.375"/>
<polygon fill="midnightblue" stroke="midnightblue" points="323.36,-247.581 313.55,-243.578 318.723,-252.824 323.36,-247.581"/>
</g>
<!-- Node31&#45;&gt;Node16 -->
<g id="edge46" class="edge"><title>Node31&#45;&gt;Node16</title>
<path fill="none" stroke="midnightblue" d="M864.233,-348.324C884.523,-330.54 930.593,-290.723 948.392,-280 973.391,-264.94 1004.35,-252.518 1026.52,-244.569"/>
<polygon fill="midnightblue" stroke="midnightblue" points="1027.76,-247.845 1036.04,-241.238 1025.44,-241.238 1027.76,-247.845"/>
</g>
<!-- Node31&#45;&gt;Node22 -->
<g id="edge43" class="edge"><title>Node31&#45;&gt;Node22</title>
<path fill="none" stroke="midnightblue" d="M918.656,-357.458C1011.04,-356.755 1175.06,-349.991 1218.39,-312 1244.98,-288.69 1238.39,-270.358 1238.39,-235 1238.39,-235 1238.39,-235 1238.39,-121 1238.39,-52.9571 999.653,-22.7385 911.55,-13.9034"/>
<polygon fill="midnightblue" stroke="midnightblue" points="911.871,-10.4182 901.578,-12.9309 911.191,-17.3852 911.871,-10.4182"/>
</g>
<!-- Node31&#45;&gt;Node23 -->
<g id="edge45" class="edge"><title>Node31&#45;&gt;Node23</title>
<path fill="none" stroke="midnightblue" d="M877.316,-348.403C904.762,-338.111 950.909,-320.806 981.991,-309.15"/>
<polygon fill="midnightblue" stroke="midnightblue" points="983.376,-312.369 991.511,-305.581 980.918,-305.815 983.376,-312.369"/>
</g>
<!-- Node32 -->
<g id="node32" class="node"><title>Node32</title>
<polygon fill="white" stroke="#bfbfbf" points="743.392,-286.5 743.392,-305.5 785.392,-305.5 785.392,-286.5 743.392,-286.5"/>
<text text-anchor="middle" x="764.392" y="-293.5" font-family="FreeSans" font-size="10.00">utility</text>
</g>
<!-- Node31&#45;&gt;Node32 -->
<g id="edge44" class="edge"><title>Node31&#45;&gt;Node32</title>
<path fill="none" stroke="midnightblue" d="M841.497,-348.403C826.928,-338.691 802.99,-322.732 785.647,-311.17"/>
<polygon fill="midnightblue" stroke="midnightblue" points="787.525,-308.215 777.263,-305.581 783.642,-314.04 787.525,-308.215"/>
</g>
<!-- Node33 -->
<g id="node33" class="node"><title>Node33</title>
<polygon fill="white" stroke="#bfbfbf" points="802.892,-286.5 802.892,-305.5 895.892,-305.5 895.892,-286.5 802.892,-286.5"/>
<text text-anchor="middle" x="849.392" y="-293.5" font-family="FreeSans" font-size="10.00">unordered_map</text>
</g>
<!-- Node31&#45;&gt;Node33 -->
<g id="edge47" class="edge"><title>Node31&#45;&gt;Node33</title>
<path fill="none" stroke="midnightblue" d="M853.676,-348.403C852.97,-339.938 851.87,-326.728 850.961,-315.82"/>
<polygon fill="midnightblue" stroke="midnightblue" points="854.426,-315.255 850.107,-305.581 847.45,-315.837 854.426,-315.255"/>
</g>
<!-- Node34 -->
<g id="node34" class="node"><title>Node34</title>
<g id="a_node34"><a xlink:href="settings_8hpp.html" target="_top" xlink:title="components/settings\l/settings.hpp">
<polygon fill="white" stroke="black" points="607.392,-281 607.392,-311 725.392,-311 725.392,-281 607.392,-281"/>
<text text-anchor="start" x="615.392" y="-299" font-family="FreeSans" font-size="10.00">components/settings</text>
<text text-anchor="middle" x="666.392" y="-288" font-family="FreeSans" font-size="10.00">/settings.hpp</text>
</a>
</g>
</g>
<!-- Node31&#45;&gt;Node34 -->
<g id="edge48" class="edge"><title>Node31&#45;&gt;Node34</title>
<path fill="none" stroke="midnightblue" d="M827.456,-348.403C799.522,-339.488 755.1,-325.311 719.977,-314.101"/>
<polygon fill="midnightblue" stroke="midnightblue" points="720.929,-310.731 710.338,-311.025 718.801,-317.4 720.929,-310.731"/>
</g>
<!-- Node36 -->
<g id="node36" class="node"><title>Node36</title>
<g id="a_node36"><a xlink:href="fallback_8hpp.html" target="_top" xlink:title="components/fallback\l/fallback.hpp">
<polygon fill="white" stroke="black" points="1094.39,-281 1094.39,-311 1210.39,-311 1210.39,-281 1094.39,-281"/>
<text text-anchor="start" x="1102.39" y="-299" font-family="FreeSans" font-size="10.00">components/fallback</text>
<text text-anchor="middle" x="1152.39" y="-288" font-family="FreeSans" font-size="10.00">/fallback.hpp</text>
</a>
</g>
</g>
<!-- Node31&#45;&gt;Node36 -->
<g id="edge52" class="edge"><title>Node31&#45;&gt;Node36</title>
<path fill="none" stroke="midnightblue" d="M896.772,-348.467C945.583,-338.639 1026.45,-322.357 1084.16,-310.738"/>
<polygon fill="midnightblue" stroke="midnightblue" points="1085.18,-314.104 1094.29,-308.698 1083.8,-307.241 1085.18,-314.104"/>
</g>
<!-- Node38 -->
<g id="node38" class="node"><title>Node38</title>
<g id="a_node38"><a xlink:href="soundmanager_8hpp.html" target="_top" xlink:title="../mwbase/soundmanager.hpp">
<polygon fill="white" stroke="black" points="427.892,-286.5 427.892,-305.5 588.892,-305.5 588.892,-286.5 427.892,-286.5"/>
<text text-anchor="middle" x="508.392" y="-293.5" font-family="FreeSans" font-size="10.00">../mwbase/soundmanager.hpp</text>
</a>
</g>
</g>
<!-- Node31&#45;&gt;Node38 -->
<g id="edge56" class="edge"><title>Node31&#45;&gt;Node38</title>
<path fill="none" stroke="midnightblue" d="M805.186,-348.467C742.542,-337.604 634.422,-318.855 567.412,-307.235"/>
<polygon fill="midnightblue" stroke="midnightblue" points="567.879,-303.764 557.428,-305.503 566.683,-310.661 567.879,-303.764"/>
</g>
<!-- Node34&#45;&gt;Node16 -->
<g id="edge50" class="edge"><title>Node34&#45;&gt;Node16</title>
<path fill="none" stroke="midnightblue" d="M725.666,-281.585C728.612,-281.025 731.533,-280.493 734.392,-280 861.513,-258.083 895.848,-269.034 1022.39,-244 1023.67,-243.747 1024.97,-243.472 1026.28,-243.179"/>
<polygon fill="midnightblue" stroke="midnightblue" points="1027.44,-246.498 1036.31,-240.699 1025.76,-239.703 1027.44,-246.498"/>
</g>
<!-- Node34&#45;&gt;Node22 -->
<g id="edge51" class="edge"><title>Node34&#45;&gt;Node22</title>
<path fill="none" stroke="midnightblue" d="M631.629,-280.852C594.333,-263.095 540.392,-228.804 540.392,-179 540.392,-179 540.392,-179 540.392,-121 540.392,-56.9159 762.34,-24.5198 847.06,-14.4882"/>
<polygon fill="midnightblue" stroke="midnightblue" points="847.617,-17.9472 857.15,-13.323 846.814,-10.9934 847.617,-17.9472"/>
</g>
<!-- Node35 -->
<g id="node35" class="node"><title>Node35</title>
<polygon fill="white" stroke="#bfbfbf" points="480.392,-224.5 480.392,-243.5 512.392,-243.5 512.392,-224.5 480.392,-224.5"/>
<text text-anchor="middle" x="496.392" y="-231.5" font-family="FreeSans" font-size="10.00">set</text>
</g>
<!-- Node34&#45;&gt;Node35 -->
<g id="edge49" class="edge"><title>Node34&#45;&gt;Node35</title>
<path fill="none" stroke="midnightblue" d="M626.535,-280.933C594.337,-269.569 549.965,-253.908 522.242,-244.123"/>
<polygon fill="midnightblue" stroke="midnightblue" points="523.087,-240.71 512.492,-240.682 520.757,-247.311 523.087,-240.71"/>
</g>
<!-- Node36&#45;&gt;Node16 -->
<g id="edge53" class="edge"><title>Node36&#45;&gt;Node16</title>
<path fill="none" stroke="midnightblue" d="M1129.4,-280.781C1113.91,-271.196 1093.56,-258.606 1078.12,-249.056"/>
<polygon fill="midnightblue" stroke="midnightblue" points="1079.57,-245.84 1069.22,-243.556 1075.89,-251.793 1079.57,-245.84"/>
</g>
<!-- Node36&#45;&gt;Node22 -->
<g id="edge54" class="edge"><title>Node36&#45;&gt;Node22</title>
<path fill="none" stroke="midnightblue" d="M1141.79,-280.837C1127.11,-259.786 1102.39,-218.474 1102.39,-179 1102.39,-179 1102.39,-179 1102.39,-121 1102.39,-36.9348 973.356,-17.1133 911.595,-12.4407"/>
<polygon fill="midnightblue" stroke="midnightblue" points="911.801,-8.9467 901.59,-11.7723 911.334,-15.9311 911.801,-8.9467"/>
</g>
<!-- Node37 -->
<g id="node37" class="node"><title>Node37</title>
<polygon fill="white" stroke="#bfbfbf" points="1130.89,-224.5 1130.89,-243.5 1193.89,-243.5 1193.89,-224.5 1130.89,-224.5"/>
<text text-anchor="middle" x="1162.39" y="-231.5" font-family="FreeSans" font-size="10.00">osg/Vec4f</text>
</g>
<!-- Node36&#45;&gt;Node37 -->
<g id="edge55" class="edge"><title>Node36&#45;&gt;Node37</title>
<path fill="none" stroke="midnightblue" d="M1154.76,-280.781C1156.11,-272.691 1157.82,-262.462 1159.27,-253.725"/>
<polygon fill="midnightblue" stroke="midnightblue" points="1162.75,-254.17 1160.94,-243.731 1155.84,-253.019 1162.75,-254.17"/>
</g>
<!-- Node38&#45;&gt;Node6 -->
<g id="edge57" class="edge"><title>Node38&#45;&gt;Node6</title>
<path fill="none" stroke="midnightblue" d="M479.164,-286.403C443.286,-275.851 382.345,-257.927 342.736,-246.278"/>
<polygon fill="midnightblue" stroke="midnightblue" points="343.49,-242.851 332.909,-243.387 341.515,-249.567 343.49,-242.851"/>
</g>
<!-- Node38&#45;&gt;Node22 -->
<g id="edge58" class="edge"><title>Node38&#45;&gt;Node22</title>
<path fill="none" stroke="midnightblue" d="M555.882,-286.494C680.69,-263.819 1008.39,-202.085 1008.39,-179 1008.39,-179 1008.39,-179 1008.39,-121 1008.39,-90.9022 1009.54,-78.3591 989.392,-56 969.209,-33.6017 936.227,-22.1117 911.634,-16.3748"/>
<polygon fill="midnightblue" stroke="midnightblue" points="912.179,-12.9124 901.669,-14.2533 910.721,-19.759 912.179,-12.9124"/>
</g>
<!-- Node38&#45;&gt;Node35 -->
<g id="edge59" class="edge"><title>Node38&#45;&gt;Node35</title>
<path fill="none" stroke="midnightblue" d="M506.673,-286.403C504.962,-277.849 502.282,-264.45 500.087,-253.476"/>
<polygon fill="midnightblue" stroke="midnightblue" points="503.502,-252.7 498.108,-243.581 496.638,-254.073 503.502,-252.7"/>
</g>
<!-- Node39 -->
<g id="node39" class="node"><title>Node39</title>
<g id="a_node39"><a xlink:href="ptr_8hpp.html" target="_top" xlink:title="../mwworld/ptr.hpp">
<polygon fill="white" stroke="black" points="614.392,-224.5 614.392,-243.5 718.392,-243.5 718.392,-224.5 614.392,-224.5"/>
<text text-anchor="middle" x="666.392" y="-231.5" font-family="FreeSans" font-size="10.00">../mwworld/ptr.hpp</text>
</a>
</g>
</g>
<!-- Node38&#45;&gt;Node39 -->
<g id="edge60" class="edge"><title>Node38&#45;&gt;Node39</title>
<path fill="none" stroke="midnightblue" d="M531.03,-286.403C558.132,-276.111 603.702,-258.806 634.396,-247.15"/>
<polygon fill="midnightblue" stroke="midnightblue" points="635.691,-250.403 643.797,-243.581 633.205,-243.859 635.691,-250.403"/>
</g>
<!-- Node39&#45;&gt;Node22 -->
<g id="edge62" class="edge"><title>Node39&#45;&gt;Node22</title>
<path fill="none" stroke="midnightblue" d="M675.548,-224.234C683.85,-215.751 695.769,-202.133 702.392,-188 727.803,-133.778 688.991,-100.198 729.392,-56 759.435,-23.1342 812.43,-13.9026 846.714,-11.5165"/>
<polygon fill="midnightblue" stroke="midnightblue" points="847.335,-14.9885 857.135,-10.9611 846.962,-7.99838 847.335,-14.9885"/>
</g>
<!-- Node40 -->
<g id="node40" class="node"><title>Node40</title>
<polygon fill="white" stroke="#bfbfbf" points="568.392,-168.5 568.392,-187.5 620.392,-187.5 620.392,-168.5 568.392,-168.5"/>
<text text-anchor="middle" x="594.392" y="-175.5" font-family="FreeSans" font-size="10.00">cassert</text>
</g>
<!-- Node39&#45;&gt;Node40 -->
<g id="edge61" class="edge"><title>Node39&#45;&gt;Node40</title>
<path fill="none" stroke="midnightblue" d="M654.824,-224.324C643.972,-216.185 627.512,-203.839 614.509,-194.087"/>
<polygon fill="midnightblue" stroke="midnightblue" points="616.271,-191.034 606.171,-187.834 612.071,-196.634 616.271,-191.034"/>
</g>
<!-- Node41 -->
<g id="node41" class="node"><title>Node41</title>
<polygon fill="white" stroke="#bfbfbf" points="638.392,-168.5 638.392,-187.5 694.392,-187.5 694.392,-168.5 638.392,-168.5"/>
<text text-anchor="middle" x="666.392" y="-175.5" font-family="FreeSans" font-size="10.00">sstream</text>
</g>
<!-- Node39&#45;&gt;Node41 -->
<g id="edge63" class="edge"><title>Node39&#45;&gt;Node41</title>
<path fill="none" stroke="midnightblue" d="M666.392,-224.083C666.392,-217.006 666.392,-206.861 666.392,-197.986"/>
<polygon fill="midnightblue" stroke="midnightblue" points="669.892,-197.751 666.392,-187.751 662.892,-197.751 669.892,-197.751"/>
</g>
<!-- Node42 -->
<g id="node42" class="node"><title>Node42</title>
<g id="a_node42"><a xlink:href="livecellref_8hpp.html" target="_top" xlink:title="livecellref.hpp">
<polygon fill="white" stroke="black" points="804.892,-168.5 804.892,-187.5 885.892,-187.5 885.892,-168.5 804.892,-168.5"/>
<text text-anchor="middle" x="845.392" y="-175.5" font-family="FreeSans" font-size="10.00">livecellref.hpp</text>
</a>
</g>
</g>
<!-- Node39&#45;&gt;Node42 -->
<g id="edge64" class="edge"><title>Node39&#45;&gt;Node42</title>
<path fill="none" stroke="midnightblue" d="M694.755,-224.444C725.13,-215.28 773.502,-200.688 807.208,-190.519"/>
<polygon fill="midnightblue" stroke="midnightblue" points="808.599,-193.756 817.162,-187.516 806.577,-187.054 808.599,-193.756"/>
</g>
<!-- Node43 -->
<g id="node43" class="node"><title>Node43</title>
<polygon fill="white" stroke="#bfbfbf" points="903.892,-112.5 903.892,-131.5 958.892,-131.5 958.892,-112.5 903.892,-112.5"/>
<text text-anchor="middle" x="931.392" y="-119.5" font-family="FreeSans" font-size="10.00">typeinfo</text>
</g>
<!-- Node42&#45;&gt;Node43 -->
<g id="edge65" class="edge"><title>Node42&#45;&gt;Node43</title>
<path fill="none" stroke="midnightblue" d="M859.21,-168.324C872.625,-159.9 893.216,-146.971 908.978,-137.074"/>
<polygon fill="midnightblue" stroke="midnightblue" points="911.001,-139.936 917.609,-131.655 907.279,-134.008 911.001,-139.936"/>
</g>
<!-- Node44 -->
<g id="node44" class="node"><title>Node44</title>
<g id="a_node44"><a xlink:href="apps_2openmw_2mwworld_2cellref_8hpp.html" target="_top" xlink:title="cellref.hpp">
<polygon fill="white" stroke="black" points="781.892,-112.5 781.892,-131.5 846.892,-131.5 846.892,-112.5 781.892,-112.5"/>
<text text-anchor="middle" x="814.392" y="-119.5" font-family="FreeSans" font-size="10.00">cellref.hpp</text>
</a>
</g>
</g>
<!-- Node42&#45;&gt;Node44 -->
<g id="edge66" class="edge"><title>Node42&#45;&gt;Node44</title>
<path fill="none" stroke="midnightblue" d="M840.273,-168.083C835.985,-160.613 829.734,-149.724 824.45,-140.52"/>
<polygon fill="midnightblue" stroke="midnightblue" points="827.43,-138.681 819.416,-131.751 821.359,-142.166 827.43,-138.681"/>
</g>
<!-- Node46 -->
<g id="node46" class="node"><title>Node46</title>
<g id="a_node46"><a xlink:href="refdata_8hpp.html" target="_top" xlink:title="refdata.hpp">
<polygon fill="white" stroke="red" points="908.392,-56.5 908.392,-75.5 980.392,-75.5 980.392,-56.5 908.392,-56.5"/>
<text text-anchor="middle" x="944.392" y="-63.5" font-family="FreeSans" font-size="10.00">refdata.hpp</text>
</a>
</g>
</g>
<!-- Node42&#45;&gt;Node46 -->
<g id="edge69" class="edge"><title>Node42&#45;&gt;Node46</title>
<path fill="none" stroke="midnightblue" d="M851.239,-168.173C859.961,-155.268 877.203,-130.751 894.392,-112 904.036,-101.48 915.866,-90.7494 925.598,-82.4065"/>
<polygon fill="midnightblue" stroke="midnightblue" points="928.104,-84.8717 933.502,-75.7549 923.597,-79.5158 928.104,-84.8717"/>
</g>
<!-- Node45 -->
<g id="node45" class="node"><title>Node45</title>
<g id="a_node45"><a xlink:href="components_2esm_2cellref_8hpp.html" target="_top" xlink:title="components/esm/cellref.hpp">
<polygon fill="white" stroke="red" points="738.392,-56.5 738.392,-75.5 890.392,-75.5 890.392,-56.5 738.392,-56.5"/>
<text text-anchor="middle" x="814.392" y="-63.5" font-family="FreeSans" font-size="10.00">components/esm/cellref.hpp</text>
</a>
</g>
</g>
<!-- Node44&#45;&gt;Node45 -->
<g id="edge67" class="edge"><title>Node44&#45;&gt;Node45</title>
<path fill="none" stroke="midnightblue" d="M814.392,-112.083C814.392,-105.006 814.392,-94.8611 814.392,-85.9865"/>
<polygon fill="midnightblue" stroke="midnightblue" points="817.892,-85.751 814.392,-75.7511 810.892,-85.7511 817.892,-85.751"/>
</g>
<!-- Node45&#45;&gt;Node22 -->
<g id="edge68" class="edge"><title>Node45&#45;&gt;Node22</title>
<path fill="none" stroke="midnightblue" d="M824.836,-56.324C834.538,-48.2631 849.208,-36.0765 860.892,-26.3695"/>
<polygon fill="midnightblue" stroke="midnightblue" points="863.304,-28.9163 868.759,-19.8339 858.83,-23.532 863.304,-28.9163"/>
</g>
<!-- Node46&#45;&gt;Node22 -->
<g id="edge70" class="edge"><title>Node46&#45;&gt;Node22</title>
<path fill="none" stroke="midnightblue" d="M933.949,-56.324C924.246,-48.2631 909.577,-36.0765 897.893,-26.3695"/>
<polygon fill="midnightblue" stroke="midnightblue" points="899.954,-23.532 890.026,-19.8339 895.481,-28.9163 899.954,-23.532"/>
</g>
<!-- Node47&#45;&gt;Node5 -->
<g id="edge73" class="edge"><title>Node47&#45;&gt;Node5</title>
<path fill="none" stroke="midnightblue" d="M363.246,-404.083C361.523,-396.927 359.045,-386.635 356.892,-377.691"/>
<polygon fill="midnightblue" stroke="midnightblue" points="360.242,-376.654 354.499,-367.751 353.437,-378.293 360.242,-376.654"/>
</g>
<!-- Node47&#45;&gt;Node22 -->
<g id="edge72" class="edge"><title>Node47&#45;&gt;Node22</title>
<path fill="none" stroke="midnightblue" d="M310.198,-413.033C223.872,-411.925 62.4159,-404.821 20.3922,-368 -4.17673,-346.473 1.39224,-329.666 1.39224,-297 1.39224,-297 1.39224,-297 1.39224,-121 1.39224,-33.9943 688.971,-14.8352 847.196,-11.5781"/>
<polygon fill="midnightblue" stroke="midnightblue" points="847.321,-15.0764 857.25,-11.3782 847.182,-8.07782 847.321,-15.0764"/>
</g>
<!-- Node48&#45;&gt;Node2 -->
<g id="edge75" class="edge"><title>Node48&#45;&gt;Node2</title>
<path fill="none" stroke="midnightblue" d="M840.367,-460.444C817.288,-451.478 780.83,-437.314 754.751,-427.183"/>
<polygon fill="midnightblue" stroke="midnightblue" points="755.903,-423.875 745.314,-423.516 753.368,-430.4 755.903,-423.875"/>
</g>
<!-- Node48&#45;&gt;Node30 -->
<g id="edge76" class="edge"><title>Node48&#45;&gt;Node30</title>
<path fill="none" stroke="midnightblue" d="M862.392,-460.083C862.392,-453.006 862.392,-442.861 862.392,-433.986"/>
<polygon fill="midnightblue" stroke="midnightblue" points="865.892,-433.751 862.392,-423.751 858.892,-433.751 865.892,-433.751"/>
</g>
<!-- Node49&#45;&gt;Node5 -->
<g id="edge79" class="edge"><title>Node49&#45;&gt;Node5</title>
<path fill="none" stroke="midnightblue" d="M601.745,-460.279C609.37,-446.615 621.01,-420.063 607.392,-404 575.783,-366.714 438.314,-377.638 390.392,-368 388.938,-367.708 387.455,-367.399 385.959,-367.08"/>
<polygon fill="midnightblue" stroke="midnightblue" points="386.577,-363.632 376.054,-364.867 385.05,-370.464 386.577,-363.632"/>
</g>
<!-- Node49&#45;&gt;Node23 -->
<g id="edge80" class="edge"><title>Node49&#45;&gt;Node23</title>
<path fill="none" stroke="midnightblue" d="M636.563,-467.399C712.97,-463.724 875.86,-452.681 923.392,-424 966.226,-398.154 994.575,-343.629 1007.08,-315.165"/>
<polygon fill="midnightblue" stroke="midnightblue" points="1010.43,-316.22 1011.09,-305.646 1003.98,-313.501 1010.43,-316.22"/>
</g>
<!-- Node49&#45;&gt;Node47 -->
<g id="edge81" class="edge"><title>Node49&#45;&gt;Node47</title>
<path fill="none" stroke="midnightblue" d="M559.79,-460.444C519.661,-451.063 455.194,-435.993 411.608,-425.804"/>
<polygon fill="midnightblue" stroke="midnightblue" points="412.358,-422.385 401.824,-423.516 410.764,-429.201 412.358,-422.385"/>
</g>
</g>
</svg>
