<?xml version="1.0" encoding="UTF-8" standalone="no"?>
<!DOCTYPE svg PUBLIC "-//W3C//DTD SVG 1.1//EN"
 "http://www.w3.org/Graphics/SVG/1.1/DTD/svg11.dtd">
<!-- Generated by graphviz version 2.36.0 (20140111.2315)
 -->
<!-- Title: /home/travis/build/OpenMW/openmw/apps/opencs/view/doc/operations.hpp Pages: 1 -->
<svg width="180pt" height="106pt"
 viewBox="0.00 0.00 180.00 106.00" xmlns="http://www.w3.org/2000/svg" xmlns:xlink="http://www.w3.org/1999/xlink">
<g id="graph0" class="graph" transform="scale(1 1) rotate(0) translate(4 102)">
<title>/home/travis/build/OpenMW/openmw/apps/opencs/view/doc/operations.hpp</title>
<polygon fill="white" stroke="none" points="-4,4 -4,-102 176,-102 176,4 -4,4"/>
<!-- Node1 -->
<g id="node1" class="node"><title>Node1</title>
<polygon fill="#bfbfbf" stroke="black" points="-0.5,-56.5 -0.5,-97.5 172.5,-97.5 172.5,-56.5 -0.5,-56.5"/>
<text text-anchor="start" x="7.5" y="-85.5" font-family="FreeSans" font-size="10.00">/home/travis/build</text>
<text text-anchor="start" x="7.5" y="-74.5" font-family="FreeSans" font-size="10.00">/OpenMW/openmw/apps</text>
<text text-anchor="middle" x="86" y="-63.5" font-family="FreeSans" font-size="10.00">/opencs/view/doc/operations.hpp</text>
</g>
<!-- Node2 -->
<g id="node2" class="node"><title>Node2</title>
<polygon fill="white" stroke="#bfbfbf" points="21.5,-0.5 21.5,-19.5 68.5,-19.5 68.5,-0.5 21.5,-0.5"/>
<text text-anchor="middle" x="45" y="-7.5" font-family="FreeSans" font-size="10.00">vector</text>
</g>
<!-- Node1&#45;&gt;Node2 -->
<g id="edge1" class="edge"><title>Node1&#45;&gt;Node2</title>
<path fill="none" stroke="midnightblue" d="M73.6986,-56.4979C68.017,-47.4904 61.3294,-36.8881 55.8399,-28.1852"/>
<polygon fill="midnightblue" stroke="midnightblue" points="58.7531,-26.2432 50.4577,-19.6525 52.8325,-29.9778 58.7531,-26.2432"/>
</g>
<!-- Node3 -->
<g id="node3" class="node"><title>Node3</title>
<polygon fill="white" stroke="#bfbfbf" points="87,-0.5 87,-19.5 167,-19.5 167,-0.5 87,-0.5"/>
<text text-anchor="middle" x="127" y="-7.5" font-family="FreeSans" font-size="10.00">QDockWidget</text>
</g>
<!-- Node1&#45;&gt;Node3 -->
<g id="edge2" class="edge"><title>Node1&#45;&gt;Node3</title>
<path fill="none" stroke="midnightblue" d="M98.3014,-56.4979C103.983,-47.4904 110.671,-36.8881 116.16,-28.1852"/>
<polygon fill="midnightblue" stroke="midnightblue" points="119.167,-29.9778 121.542,-19.6525 113.247,-26.2432 119.167,-29.9778"/>
</g>
</g>
</svg>
