<?xml version="1.0" encoding="UTF-8" standalone="no"?>
<!DOCTYPE svg PUBLIC "-//W3C//DTD SVG 1.1//EN"
 "http://www.w3.org/Graphics/SVG/1.1/DTD/svg11.dtd">
<!-- Generated by graphviz version 2.36.0 (20140111.2315)
 -->
<!-- Title: /home/travis/build/scrawl/openmw/apps/openmw/mwgui/pickpocketitemmodel.hpp Pages: 1 -->
<svg width="407pt" height="128pt"
 viewBox="0.00 0.00 407.00 128.00" xmlns="http://www.w3.org/2000/svg" xmlns:xlink="http://www.w3.org/1999/xlink">
<g id="graph0" class="graph" transform="scale(1 1) rotate(0) translate(4 124)">
<title>/home/travis/build/scrawl/openmw/apps/openmw/mwgui/pickpocketitemmodel.hpp</title>
<polygon fill="white" stroke="none" points="-4,4 -4,-124 403,-124 403,4 -4,4"/>
<!-- Node1 -->
<g id="node1" class="node"><title>Node1</title>
<polygon fill="#bfbfbf" stroke="black" points="73.5,-78.5 73.5,-119.5 294.5,-119.5 294.5,-78.5 73.5,-78.5"/>
<text text-anchor="start" x="81.5" y="-107.5" font-family="FreeSans" font-size="10.00">/home/travis/build</text>
<text text-anchor="start" x="81.5" y="-96.5" font-family="FreeSans" font-size="10.00">/scrawl/openmw/apps</text>
<text text-anchor="middle" x="184" y="-85.5" font-family="FreeSans" font-size="10.00">/openmw/mwgui/pickpocketitemmodel.hpp</text>
</g>
<!-- Node2 -->
<g id="node2" class="node"><title>Node2</title>
<g id="a_node2"><a xlink:href="mwgui_2container_8cpp.html" target="_top" xlink:title="/home/travis/build\l/scrawl/openmw/apps\l/openmw/mwgui/container.cpp">
<polygon fill="white" stroke="black" points="-0.5,-0.5 -0.5,-41.5 160.5,-41.5 160.5,-0.5 -0.5,-0.5"/>
<text text-anchor="start" x="7.5" y="-29.5" font-family="FreeSans" font-size="10.00">/home/travis/build</text>
<text text-anchor="start" x="7.5" y="-18.5" font-family="FreeSans" font-size="10.00">/scrawl/openmw/apps</text>
<text text-anchor="middle" x="80" y="-7.5" font-family="FreeSans" font-size="10.00">/openmw/mwgui/container.cpp</text>
</a>
</g>
</g>
<!-- Node1&#45;&gt;Node2 -->
<g id="edge1" class="edge"><title>Node1&#45;&gt;Node2</title>
<path fill="none" stroke="midnightblue" d="M148.9,-72.3503C135.109,-62.2719 119.538,-50.893 106.692,-41.5056"/>
<polygon fill="midnightblue" stroke="midnightblue" points="147.078,-75.3538 157.217,-78.4281 151.209,-69.702 147.078,-75.3538"/>
</g>
<!-- Node3 -->
<g id="node3" class="node"><title>Node3</title>
<g id="a_node3"><a xlink:href="pickpocketitemmodel_8cpp.html" target="_top" xlink:title="/home/travis/build\l/scrawl/openmw/apps\l/openmw/mwgui/pickpocketitemmodel.cpp">
<polygon fill="white" stroke="black" points="179,-0.5 179,-41.5 399,-41.5 399,-0.5 179,-0.5"/>
<text text-anchor="start" x="187" y="-29.5" font-family="FreeSans" font-size="10.00">/home/travis/build</text>
<text text-anchor="start" x="187" y="-18.5" font-family="FreeSans" font-size="10.00">/scrawl/openmw/apps</text>
<text text-anchor="middle" x="289" y="-7.5" font-family="FreeSans" font-size="10.00">/openmw/mwgui/pickpocketitemmodel.cpp</text>
</a>
</g>
</g>
<!-- Node1&#45;&gt;Node3 -->
<g id="edge2" class="edge"><title>Node1&#45;&gt;Node3</title>
<path fill="none" stroke="midnightblue" d="M219.437,-72.3503C233.361,-62.2719 249.082,-50.893 262.052,-41.5056"/>
<polygon fill="midnightblue" stroke="midnightblue" points="217.089,-69.7295 211.04,-78.4281 221.193,-75.4 217.089,-69.7295"/>
</g>
</g>
</svg>
