<?xml version="1.0" encoding="UTF-8" standalone="no"?>
<!DOCTYPE svg PUBLIC "-//W3C//DTD SVG 1.1//EN"
 "http://www.w3.org/Graphics/SVG/1.1/DTD/svg11.dtd">
<!-- Generated by graphviz version 2.36.0 (20140111.2315)
 -->
<!-- Title: /home/scrawl/Dev/openmw/apps/openmw/mwgui/referenceinterface.cpp Pages: 1 -->
<svg width="913pt" height="444pt"
 viewBox="0.00 0.00 913.00 444.00" xmlns="http://www.w3.org/2000/svg" xmlns:xlink="http://www.w3.org/1999/xlink">
<g id="graph0" class="graph" transform="scale(1 1) rotate(0) translate(4 440)">
<title>/home/scrawl/Dev/openmw/apps/openmw/mwgui/referenceinterface.cpp</title>
<polygon fill="white" stroke="none" points="-4,4 -4,-440 909,-440 909,4 -4,4"/>
<!-- Node1 -->
<g id="node1" class="node"><title>Node1</title>
<polygon fill="#bfbfbf" stroke="black" points="506.5,-405 506.5,-435 715.5,-435 715.5,-405 506.5,-405"/>
<text text-anchor="start" x="514.5" y="-423" font-family="FreeSans" font-size="10.00">/home/scrawl/Dev/openmw</text>
<text text-anchor="middle" x="611" y="-412" font-family="FreeSans" font-size="10.00">/apps/openmw/mwgui/referenceinterface.cpp</text>
</g>
<!-- Node2 -->
<g id="node2" class="node"><title>Node2</title>
<g id="a_node2"><a xlink:href="referenceinterface_8hpp.html" target="_top" xlink:title="referenceinterface.hpp">
<polygon fill="white" stroke="black" points="482.5,-348.5 482.5,-367.5 595.5,-367.5 595.5,-348.5 482.5,-348.5"/>
<text text-anchor="middle" x="539" y="-355.5" font-family="FreeSans" font-size="10.00">referenceinterface.hpp</text>
</a>
</g>
</g>
<!-- Node1&#45;&gt;Node2 -->
<g id="edge1" class="edge"><title>Node1&#45;&gt;Node2</title>
<path fill="none" stroke="midnightblue" d="M593.937,-404.781C582.935,-395.613 568.635,-383.696 557.382,-374.319"/>
<polygon fill="midnightblue" stroke="midnightblue" points="559.4,-371.444 549.477,-367.731 554.918,-376.821 559.4,-371.444"/>
</g>
<!-- Node20 -->
<g id="node20" class="node"><title>Node20</title>
<g id="a_node20"><a xlink:href="apps_2openmw_2mwbase_2world_8hpp.html" target="_top" xlink:title="../mwbase/world.hpp">
<polygon fill="white" stroke="black" points="361.5,-348.5 361.5,-367.5 464.5,-367.5 464.5,-348.5 361.5,-348.5"/>
<text text-anchor="middle" x="413" y="-355.5" font-family="FreeSans" font-size="10.00">../mwbase/world.hpp</text>
</a>
</g>
</g>
<!-- Node1&#45;&gt;Node20 -->
<g id="edge26" class="edge"><title>Node1&#45;&gt;Node20</title>
<path fill="none" stroke="midnightblue" d="M564.578,-404.933C530.026,-394.462 483.437,-380.345 451.068,-370.536"/>
<polygon fill="midnightblue" stroke="midnightblue" points="451.677,-367.063 441.092,-367.513 449.647,-373.762 451.677,-367.063"/>
</g>
<!-- Node25 -->
<g id="node25" class="node"><title>Node25</title>
<g id="a_node25"><a xlink:href="environment_8hpp.html" target="_top" xlink:title="../mwbase/environment.hpp">
<polygon fill="white" stroke="black" points="772.5,-348.5 772.5,-367.5 905.5,-367.5 905.5,-348.5 772.5,-348.5"/>
<text text-anchor="middle" x="839" y="-355.5" font-family="FreeSans" font-size="10.00">../mwbase/environment.hpp</text>
</a>
</g>
</g>
<!-- Node1&#45;&gt;Node25 -->
<g id="edge34" class="edge"><title>Node1&#45;&gt;Node25</title>
<path fill="none" stroke="midnightblue" d="M664.456,-404.933C704.76,-394.326 759.287,-379.977 796.608,-370.156"/>
<polygon fill="midnightblue" stroke="midnightblue" points="797.872,-373.442 806.652,-367.513 796.09,-366.673 797.872,-373.442"/>
</g>
<!-- Node26 -->
<g id="node26" class="node"><title>Node26</title>
<g id="a_node26"><a xlink:href="actorutil_8hpp.html" target="_top" xlink:title="../mwmechanics/actorutil.hpp">
<polygon fill="white" stroke="black" points="613.5,-348.5 613.5,-367.5 754.5,-367.5 754.5,-348.5 613.5,-348.5"/>
<text text-anchor="middle" x="684" y="-355.5" font-family="FreeSans" font-size="10.00">../mwmechanics/actorutil.hpp</text>
</a>
</g>
</g>
<!-- Node1&#45;&gt;Node26 -->
<g id="edge35" class="edge"><title>Node1&#45;&gt;Node26</title>
<path fill="none" stroke="midnightblue" d="M628.3,-404.781C639.455,-395.613 653.954,-383.696 665.362,-374.319"/>
<polygon fill="midnightblue" stroke="midnightblue" points="667.875,-376.784 673.378,-367.731 663.43,-371.376 667.875,-376.784"/>
</g>
<!-- Node3 -->
<g id="node3" class="node"><title>Node3</title>
<g id="a_node3"><a xlink:href="ptr_8hpp.html" target="_top" xlink:title="../mwworld/ptr.hpp">
<polygon fill="white" stroke="black" points="605,-292.5 605,-311.5 699,-311.5 699,-292.5 605,-292.5"/>
<text text-anchor="middle" x="652" y="-299.5" font-family="FreeSans" font-size="10.00">../mwworld/ptr.hpp</text>
</a>
</g>
</g>
<!-- Node2&#45;&gt;Node3 -->
<g id="edge2" class="edge"><title>Node2&#45;&gt;Node3</title>
<path fill="none" stroke="midnightblue" d="M556.905,-348.444C575.254,-339.675 604.005,-325.935 625.094,-315.858"/>
<polygon fill="midnightblue" stroke="midnightblue" points="626.665,-318.986 634.179,-311.516 623.647,-312.67 626.665,-318.986"/>
</g>
<!-- Node4 -->
<g id="node4" class="node"><title>Node4</title>
<polygon fill="white" stroke="#bfbfbf" points="695.5,-236.5 695.5,-255.5 742.5,-255.5 742.5,-236.5 695.5,-236.5"/>
<text text-anchor="middle" x="719" y="-243.5" font-family="FreeSans" font-size="10.00">cassert</text>
</g>
<!-- Node3&#45;&gt;Node4 -->
<g id="edge3" class="edge"><title>Node3&#45;&gt;Node4</title>
<path fill="none" stroke="midnightblue" d="M662.765,-292.324C672.766,-284.263 687.887,-272.077 699.93,-262.369"/>
<polygon fill="midnightblue" stroke="midnightblue" points="702.45,-264.834 708.039,-255.834 698.057,-259.384 702.45,-264.834"/>
</g>
<!-- Node5 -->
<g id="node5" class="node"><title>Node5</title>
<polygon fill="white" stroke="#bfbfbf" points="534,-62.5 534,-81.5 574,-81.5 574,-62.5 534,-62.5"/>
<text text-anchor="middle" x="554" y="-69.5" font-family="FreeSans" font-size="10.00">string</text>
</g>
<!-- Node3&#45;&gt;Node5 -->
<g id="edge4" class="edge"><title>Node3&#45;&gt;Node5</title>
<path fill="none" stroke="midnightblue" d="M691.543,-292.47C723.955,-283.214 762.72,-265.636 751,-236 720.672,-159.307 630.609,-108.082 583.486,-85.7517"/>
<polygon fill="midnightblue" stroke="midnightblue" points="584.665,-82.4411 574.119,-81.4264 581.73,-88.7963 584.665,-82.4411"/>
</g>
<!-- Node6 -->
<g id="node6" class="node"><title>Node6</title>
<polygon fill="white" stroke="#bfbfbf" points="627,-236.5 627,-255.5 677,-255.5 677,-236.5 627,-236.5"/>
<text text-anchor="middle" x="652" y="-243.5" font-family="FreeSans" font-size="10.00">sstream</text>
</g>
<!-- Node3&#45;&gt;Node6 -->
<g id="edge5" class="edge"><title>Node3&#45;&gt;Node6</title>
<path fill="none" stroke="midnightblue" d="M652,-292.083C652,-285.006 652,-274.861 652,-265.986"/>
<polygon fill="midnightblue" stroke="midnightblue" points="655.5,-265.751 652,-255.751 648.5,-265.751 655.5,-265.751"/>
</g>
<!-- Node7 -->
<g id="node7" class="node"><title>Node7</title>
<g id="a_node7"><a xlink:href="livecellref_8hpp.html" target="_top" xlink:title="livecellref.hpp">
<polygon fill="white" stroke="black" points="381.5,-236.5 381.5,-255.5 456.5,-255.5 456.5,-236.5 381.5,-236.5"/>
<text text-anchor="middle" x="419" y="-243.5" font-family="FreeSans" font-size="10.00">livecellref.hpp</text>
</a>
</g>
</g>
<!-- Node3&#45;&gt;Node7 -->
<g id="edge6" class="edge"><title>Node3&#45;&gt;Node7</title>
<path fill="none" stroke="midnightblue" d="M615.08,-292.444C574.605,-283.063 509.579,-267.993 465.616,-257.804"/>
<polygon fill="midnightblue" stroke="midnightblue" points="466.279,-254.365 455.747,-255.516 464.698,-261.184 466.279,-254.365"/>
</g>
<!-- Node8 -->
<g id="node8" class="node"><title>Node8</title>
<polygon fill="white" stroke="#bfbfbf" points="432,-180.5 432,-199.5 482,-199.5 482,-180.5 432,-180.5"/>
<text text-anchor="middle" x="457" y="-187.5" font-family="FreeSans" font-size="10.00">typeinfo</text>
</g>
<!-- Node7&#45;&gt;Node8 -->
<g id="edge7" class="edge"><title>Node7&#45;&gt;Node8</title>
<path fill="none" stroke="midnightblue" d="M425.275,-236.083C430.642,-228.455 438.518,-217.264 445.079,-207.941"/>
<polygon fill="midnightblue" stroke="midnightblue" points="447.949,-209.943 450.842,-199.751 442.225,-205.915 447.949,-209.943"/>
</g>
<!-- Node9 -->
<g id="node9" class="node"><title>Node9</title>
<g id="a_node9"><a xlink:href="apps_2openmw_2mwworld_2cellref_8hpp.html" target="_top" xlink:title="cellref.hpp">
<polygon fill="white" stroke="black" points="512.5,-180.5 512.5,-199.5 573.5,-199.5 573.5,-180.5 512.5,-180.5"/>
<text text-anchor="middle" x="543" y="-187.5" font-family="FreeSans" font-size="10.00">cellref.hpp</text>
</a>
</g>
</g>
<!-- Node7&#45;&gt;Node9 -->
<g id="edge8" class="edge"><title>Node7&#45;&gt;Node9</title>
<path fill="none" stroke="midnightblue" d="M438.648,-236.444C458.965,-227.596 490.903,-213.687 514.098,-203.586"/>
<polygon fill="midnightblue" stroke="midnightblue" points="515.673,-206.718 523.444,-199.516 512.878,-200.3 515.673,-206.718"/>
</g>
<!-- Node14 -->
<g id="node14" class="node"><title>Node14</title>
<g id="a_node14"><a xlink:href="refdata_8hpp.html" target="_top" xlink:title="refdata.hpp">
<polygon fill="white" stroke="black" points="348.5,-180.5 348.5,-199.5 413.5,-199.5 413.5,-180.5 348.5,-180.5"/>
<text text-anchor="middle" x="381" y="-187.5" font-family="FreeSans" font-size="10.00">refdata.hpp</text>
</a>
</g>
</g>
<!-- Node7&#45;&gt;Node14 -->
<g id="edge14" class="edge"><title>Node7&#45;&gt;Node14</title>
<path fill="none" stroke="midnightblue" d="M412.725,-236.083C407.358,-228.455 399.482,-217.264 392.921,-207.941"/>
<polygon fill="midnightblue" stroke="midnightblue" points="395.775,-205.915 387.158,-199.751 390.051,-209.943 395.775,-205.915"/>
</g>
<!-- Node10 -->
<g id="node10" class="node"><title>Node10</title>
<g id="a_node10"><a xlink:href="components_2esm_2cellref_8hpp.html" target="_top" xlink:title="components/esm/cellref.hpp">
<polygon fill="white" stroke="black" points="485.5,-124.5 485.5,-143.5 622.5,-143.5 622.5,-124.5 485.5,-124.5"/>
<text text-anchor="middle" x="554" y="-131.5" font-family="FreeSans" font-size="10.00">components/esm/cellref.hpp</text>
</a>
</g>
</g>
<!-- Node9&#45;&gt;Node10 -->
<g id="edge9" class="edge"><title>Node9&#45;&gt;Node10</title>
<path fill="none" stroke="midnightblue" d="M544.816,-180.083C546.274,-172.927 548.371,-162.635 550.193,-153.691"/>
<polygon fill="midnightblue" stroke="midnightblue" points="553.651,-154.248 552.217,-143.751 546.792,-152.851 553.651,-154.248"/>
</g>
<!-- Node10&#45;&gt;Node5 -->
<g id="edge10" class="edge"><title>Node10&#45;&gt;Node5</title>
<path fill="none" stroke="midnightblue" d="M554,-124.403C554,-115.938 554,-102.728 554,-91.8199"/>
<polygon fill="midnightblue" stroke="midnightblue" points="557.5,-91.5806 554,-81.5806 550.5,-91.5806 557.5,-91.5806"/>
</g>
<!-- Node11 -->
<g id="node11" class="node"><title>Node11</title>
<g id="a_node11"><a xlink:href="esm_2defs_8hpp.html" target="_top" xlink:title="defs.hpp">
<polygon fill="white" stroke="black" points="337.5,-62.5 337.5,-81.5 390.5,-81.5 390.5,-62.5 337.5,-62.5"/>
<text text-anchor="middle" x="364" y="-69.5" font-family="FreeSans" font-size="10.00">defs.hpp</text>
</a>
</g>
</g>
<!-- Node10&#45;&gt;Node11 -->
<g id="edge11" class="edge"><title>Node10&#45;&gt;Node11</title>
<path fill="none" stroke="midnightblue" d="M526.778,-124.403C493.575,-113.918 437.325,-96.1552 400.42,-84.5011"/>
<polygon fill="midnightblue" stroke="midnightblue" points="401.149,-81.061 390.559,-81.3871 399.041,-87.7361 401.149,-81.061"/>
</g>
<!-- Node12 -->
<g id="node12" class="node"><title>Node12</title>
<polygon fill="white" stroke="#bfbfbf" points="270.5,-0.5 270.5,-19.5 317.5,-19.5 317.5,-0.5 270.5,-0.5"/>
<text text-anchor="middle" x="294" y="-7.5" font-family="FreeSans" font-size="10.00">stdint.h</text>
</g>
<!-- Node11&#45;&gt;Node12 -->
<g id="edge12" class="edge"><title>Node11&#45;&gt;Node12</title>
<path fill="none" stroke="midnightblue" d="M353.971,-62.4035C342.951,-52.9579 325.04,-37.6056 311.657,-26.1342"/>
<polygon fill="midnightblue" stroke="midnightblue" points="313.881,-23.4311 304.011,-19.5806 309.325,-28.7459 313.881,-23.4311"/>
</g>
<!-- Node13 -->
<g id="node13" class="node"><title>Node13</title>
<polygon fill="white" stroke="#bfbfbf" points="348.5,-0.5 348.5,-19.5 407.5,-19.5 407.5,-0.5 348.5,-0.5"/>
<text text-anchor="middle" x="378" y="-7.5" font-family="FreeSans" font-size="10.00">osg/Vec3f</text>
</g>
<!-- Node11&#45;&gt;Node13 -->
<g id="edge13" class="edge"><title>Node11&#45;&gt;Node13</title>
<path fill="none" stroke="midnightblue" d="M366.006,-62.4035C368.002,-53.849 371.128,-40.4497 373.689,-29.4762"/>
<polygon fill="midnightblue" stroke="midnightblue" points="377.134,-30.1143 375.998,-19.5806 370.317,-28.5237 377.134,-30.1143"/>
</g>
<!-- Node14&#45;&gt;Node5 -->
<g id="edge24" class="edge"><title>Node14&#45;&gt;Node5</title>
<path fill="none" stroke="midnightblue" d="M393.544,-180.294C411.668,-167.743 446.267,-143.889 476,-124 494.886,-111.367 516.525,-97.2461 532.212,-87.0719"/>
<polygon fill="midnightblue" stroke="midnightblue" points="534.204,-89.952 540.695,-81.5786 530.399,-84.0763 534.204,-89.952"/>
</g>
<!-- Node14&#45;&gt;Node11 -->
<g id="edge15" class="edge"><title>Node14&#45;&gt;Node11</title>
<path fill="none" stroke="midnightblue" d="M379.722,-180.281C376.977,-161.547 370.463,-117.098 366.738,-91.6822"/>
<polygon fill="midnightblue" stroke="midnightblue" points="370.16,-90.8916 365.246,-81.5048 363.233,-91.9066 370.16,-90.8916"/>
</g>
<!-- Node14&#45;&gt;Node13 -->
<g id="edge25" class="edge"><title>Node14&#45;&gt;Node13</title>
<path fill="none" stroke="midnightblue" d="M384.312,-180.196C391.923,-158.751 409.245,-102.178 399,-56 396.876,-46.426 392.493,-36.4756 388.279,-28.3735"/>
<polygon fill="midnightblue" stroke="midnightblue" points="391.298,-26.6012 383.384,-19.557 385.178,-29.9989 391.298,-26.6012"/>
</g>
<!-- Node15 -->
<g id="node15" class="node"><title>Node15</title>
<g id="a_node15"><a xlink:href="animationstate_8hpp.html" target="_top" xlink:title="components/esm/animationstate.hpp">
<polygon fill="white" stroke="black" points="179,-124.5 179,-143.5 353,-143.5 353,-124.5 179,-124.5"/>
<text text-anchor="middle" x="266" y="-131.5" font-family="FreeSans" font-size="10.00">components/esm/animationstate.hpp</text>
</a>
</g>
</g>
<!-- Node14&#45;&gt;Node15 -->
<g id="edge16" class="edge"><title>Node14&#45;&gt;Node15</title>
<path fill="none" stroke="midnightblue" d="M362.778,-180.444C344.104,-171.675 314.844,-157.935 293.383,-147.858"/>
<polygon fill="midnightblue" stroke="midnightblue" points="294.676,-144.599 284.137,-143.516 291.701,-150.935 294.676,-144.599"/>
</g>
<!-- Node17 -->
<g id="node17" class="node"><title>Node17</title>
<g id="a_node17"><a xlink:href="apps_2openmw_2mwscript_2locals_8hpp.html" target="_top" xlink:title="../mwscript/locals.hpp">
<polygon fill="white" stroke="black" points="53,-124.5 53,-143.5 161,-143.5 161,-124.5 53,-124.5"/>
<text text-anchor="middle" x="107" y="-131.5" font-family="FreeSans" font-size="10.00">../mwscript/locals.hpp</text>
</a>
</g>
</g>
<!-- Node14&#45;&gt;Node17 -->
<g id="edge20" class="edge"><title>Node14&#45;&gt;Node17</title>
<path fill="none" stroke="midnightblue" d="M348.493,-182.593C302.052,-173.441 216.17,-156.515 160.334,-145.511"/>
<polygon fill="midnightblue" stroke="midnightblue" points="160.762,-142.028 150.274,-143.529 159.409,-148.896 160.762,-142.028"/>
</g>
<!-- Node15&#45;&gt;Node5 -->
<g id="edge17" class="edge"><title>Node15&#45;&gt;Node5</title>
<path fill="none" stroke="midnightblue" d="M306.958,-124.467C365.508,-112.269 471.787,-90.1276 523.753,-79.3014"/>
<polygon fill="midnightblue" stroke="midnightblue" points="524.611,-82.6979 533.687,-77.2319 523.183,-75.8451 524.611,-82.6979"/>
</g>
<!-- Node15&#45;&gt;Node12 -->
<g id="edge19" class="edge"><title>Node15&#45;&gt;Node12</title>
<path fill="none" stroke="midnightblue" d="M268.014,-124.226C272.534,-104.53 283.572,-56.4371 289.708,-29.7004"/>
<polygon fill="midnightblue" stroke="midnightblue" points="293.179,-30.224 292.005,-19.6944 286.356,-28.6581 293.179,-30.224"/>
</g>
<!-- Node16 -->
<g id="node16" class="node"><title>Node16</title>
<polygon fill="white" stroke="#bfbfbf" points="134.5,-62.5 134.5,-81.5 177.5,-81.5 177.5,-62.5 134.5,-62.5"/>
<text text-anchor="middle" x="156" y="-69.5" font-family="FreeSans" font-size="10.00">vector</text>
</g>
<!-- Node15&#45;&gt;Node16 -->
<g id="edge18" class="edge"><title>Node15&#45;&gt;Node16</title>
<path fill="none" stroke="midnightblue" d="M250.24,-124.403C232.024,-114.468 201.827,-97.9966 180.532,-86.3812"/>
<polygon fill="midnightblue" stroke="midnightblue" points="182.186,-83.2965 171.731,-81.5806 178.834,-89.4418 182.186,-83.2965"/>
</g>
<!-- Node17&#45;&gt;Node16 -->
<g id="edge21" class="edge"><title>Node17&#45;&gt;Node16</title>
<path fill="none" stroke="midnightblue" d="M114.021,-124.403C121.443,-115.314 133.333,-100.756 142.567,-89.4489"/>
<polygon fill="midnightblue" stroke="midnightblue" points="145.378,-91.5398 148.993,-81.5806 139.956,-87.1121 145.378,-91.5398"/>
</g>
<!-- Node18 -->
<g id="node18" class="node"><title>Node18</title>
<g id="a_node18"><a xlink:href="types_8hpp.html" target="_top" xlink:title="components/interpreter\l/types.hpp">
<polygon fill="white" stroke="black" points="0,-57 0,-87 116,-87 116,-57 0,-57"/>
<text text-anchor="start" x="8" y="-75" font-family="FreeSans" font-size="10.00">components/interpreter</text>
<text text-anchor="middle" x="58" y="-64" font-family="FreeSans" font-size="10.00">/types.hpp</text>
</a>
</g>
</g>
<!-- Node17&#45;&gt;Node18 -->
<g id="edge22" class="edge"><title>Node17&#45;&gt;Node18</title>
<path fill="none" stroke="midnightblue" d="M99.9795,-124.403C93.7153,-116.733 84.2699,-105.167 75.9241,-94.9478"/>
<polygon fill="midnightblue" stroke="midnightblue" points="78.5846,-92.6723 69.5483,-87.1408 73.1628,-97.1 78.5846,-92.6723"/>
</g>
<!-- Node19 -->
<g id="node19" class="node"><title>Node19</title>
<polygon fill="white" stroke="#bfbfbf" points="29,-0.5 29,-19.5 87,-19.5 87,-0.5 29,-0.5"/>
<text text-anchor="middle" x="58" y="-7.5" font-family="FreeSans" font-size="10.00">stdexcept</text>
</g>
<!-- Node18&#45;&gt;Node19 -->
<g id="edge23" class="edge"><title>Node18&#45;&gt;Node19</title>
<path fill="none" stroke="midnightblue" d="M58,-56.7808C58,-48.7812 58,-38.6887 58,-30.0168"/>
<polygon fill="midnightblue" stroke="midnightblue" points="61.5001,-29.7305 58,-19.7305 54.5001,-29.7306 61.5001,-29.7305"/>
</g>
<!-- Node20&#45;&gt;Node3 -->
<g id="edge32" class="edge"><title>Node20&#45;&gt;Node3</title>
<path fill="none" stroke="midnightblue" d="M450.87,-348.444C492.476,-339.043 559.369,-323.929 604.469,-313.739"/>
<polygon fill="midnightblue" stroke="midnightblue" points="605.324,-317.134 614.307,-311.516 603.781,-310.306 605.324,-317.134"/>
</g>
<!-- Node20&#45;&gt;Node16 -->
<g id="edge27" class="edge"><title>Node20&#45;&gt;Node16</title>
<path fill="none" stroke="midnightblue" d="M361.477,-353.224C255.933,-344.07 25,-316.141 25,-247 25,-247 25,-247 25,-189 25,-158.902 24.2409,-146.704 44,-124 69.5966,-94.5889 88.5694,-104.275 124,-88 125.394,-87.3597 126.821,-86.7015 128.261,-86.0348"/>
<polygon fill="midnightblue" stroke="midnightblue" points="130.16,-89.0113 137.747,-81.6158 127.204,-82.666 130.16,-89.0113"/>
</g>
<!-- Node21 -->
<g id="node21" class="node"><title>Node21</title>
<polygon fill="white" stroke="#bfbfbf" points="275.5,-292.5 275.5,-311.5 310.5,-311.5 310.5,-292.5 275.5,-292.5"/>
<text text-anchor="middle" x="293" y="-299.5" font-family="FreeSans" font-size="10.00">map</text>
</g>
<!-- Node20&#45;&gt;Node21 -->
<g id="edge28" class="edge"><title>Node20&#45;&gt;Node21</title>
<path fill="none" stroke="midnightblue" d="M393.986,-348.444C374.067,-339.48 342.605,-325.322 320.092,-315.191"/>
<polygon fill="midnightblue" stroke="midnightblue" points="321.307,-311.9 310.752,-310.988 318.435,-318.284 321.307,-311.9"/>
</g>
<!-- Node22 -->
<g id="node22" class="node"><title>Node22</title>
<polygon fill="white" stroke="#bfbfbf" points="328.5,-292.5 328.5,-311.5 357.5,-311.5 357.5,-292.5 328.5,-292.5"/>
<text text-anchor="middle" x="343" y="-299.5" font-family="FreeSans" font-size="10.00">set</text>
</g>
<!-- Node20&#45;&gt;Node22 -->
<g id="edge29" class="edge"><title>Node20&#45;&gt;Node22</title>
<path fill="none" stroke="midnightblue" d="M401.753,-348.324C391.203,-340.185 375.199,-327.839 362.558,-318.087"/>
<polygon fill="midnightblue" stroke="midnightblue" points="364.507,-315.171 354.451,-311.834 360.231,-320.713 364.507,-315.171"/>
</g>
<!-- Node23 -->
<g id="node23" class="node"><title>Node23</title>
<g id="a_node23"><a xlink:href="cellid_8hpp.html" target="_top" xlink:title="components/esm/cellid.hpp">
<polygon fill="white" stroke="black" points="475,-236.5 475,-255.5 609,-255.5 609,-236.5 475,-236.5"/>
<text text-anchor="middle" x="542" y="-243.5" font-family="FreeSans" font-size="10.00">components/esm/cellid.hpp</text>
</a>
</g>
</g>
<!-- Node20&#45;&gt;Node23 -->
<g id="edge30" class="edge"><title>Node20&#45;&gt;Node23</title>
<path fill="none" stroke="midnightblue" d="M457.464,-348.449C479.953,-341.978 506.011,-330.854 523,-312 534.427,-299.319 539.004,-280.115 540.825,-265.865"/>
<polygon fill="midnightblue" stroke="midnightblue" points="544.327,-266.001 541.773,-255.719 537.358,-265.35 544.327,-266.001"/>
</g>
<!-- Node24 -->
<g id="node24" class="node"><title>Node24</title>
<g id="a_node24"><a xlink:href="rendermode_8hpp.html" target="_top" xlink:title="../mwrender/rendermode.hpp">
<polygon fill="white" stroke="black" points="376,-292.5 376,-311.5 514,-311.5 514,-292.5 376,-292.5"/>
<text text-anchor="middle" x="445" y="-299.5" font-family="FreeSans" font-size="10.00">../mwrender/rendermode.hpp</text>
</a>
</g>
</g>
<!-- Node20&#45;&gt;Node24 -->
<g id="edge33" class="edge"><title>Node20&#45;&gt;Node24</title>
<path fill="none" stroke="midnightblue" d="M418.284,-348.083C422.711,-340.613 429.163,-329.724 434.618,-320.52"/>
<polygon fill="midnightblue" stroke="midnightblue" points="437.727,-322.138 439.814,-311.751 431.705,-318.57 437.727,-322.138"/>
</g>
<!-- Node23&#45;&gt;Node5 -->
<g id="edge31" class="edge"><title>Node23&#45;&gt;Node5</title>
<path fill="none" stroke="midnightblue" d="M553.905,-236.364C574.357,-220.695 615.464,-185.349 631,-144 641.095,-117.134 609.472,-96.4067 583.736,-84.4615"/>
<polygon fill="midnightblue" stroke="midnightblue" points="584.824,-81.1176 574.259,-80.3189 582.02,-87.5315 584.824,-81.1176"/>
</g>
<!-- Node26&#45;&gt;Node3 -->
<g id="edge36" class="edge"><title>Node26&#45;&gt;Node3</title>
<path fill="none" stroke="midnightblue" d="M678.716,-348.083C674.289,-340.613 667.837,-329.724 662.382,-320.52"/>
<polygon fill="midnightblue" stroke="midnightblue" points="665.295,-318.57 657.186,-311.751 659.273,-322.138 665.295,-318.57"/>
</g>
</g>
</svg>
