<?xml version="1.0" encoding="UTF-8" standalone="no"?>
<!DOCTYPE svg PUBLIC "-//W3C//DTD SVG 1.1//EN"
 "http://www.w3.org/Graphics/SVG/1.1/DTD/svg11.dtd">
<!-- Generated by graphviz version 2.36.0 (20140111.2315)
 -->
<!-- Title: /home/travis/build/OpenMW/openmw/apps/opencs/model/tools/regioncheck.hpp Pages: 1 -->
<svg width="1829pt" height="454pt"
 viewBox="0.00 0.00 1829.08 454.00" xmlns="http://www.w3.org/2000/svg" xmlns:xlink="http://www.w3.org/1999/xlink">
<g id="graph0" class="graph" transform="scale(1 1) rotate(0) translate(4 450)">
<title>/home/travis/build/OpenMW/openmw/apps/opencs/model/tools/regioncheck.hpp</title>
<polygon fill="white" stroke="none" points="-4,4 -4,-450 1825.08,-450 1825.08,4 -4,4"/>
<!-- Node1 -->
<g id="node1" class="node"><title>Node1</title>
<polygon fill="#bfbfbf" stroke="black" points="875.579,-404.5 875.579,-445.5 1070.58,-445.5 1070.58,-404.5 875.579,-404.5"/>
<text text-anchor="start" x="883.579" y="-433.5" font-family="FreeSans" font-size="10.00">/home/travis/build</text>
<text text-anchor="start" x="883.579" y="-422.5" font-family="FreeSans" font-size="10.00">/OpenMW/openmw/apps</text>
<text text-anchor="middle" x="973.079" y="-411.5" font-family="FreeSans" font-size="10.00">/opencs/model/tools/regioncheck.hpp</text>
</g>
<!-- Node2 -->
<g id="node2" class="node"><title>Node2</title>
<g id="a_node2"><a xlink:href="loadregn_8hpp.html" target="_top" xlink:title="components/esm/loadregn.hpp">
<polygon fill="white" stroke="black" points="141.579,-180.5 141.579,-199.5 308.579,-199.5 308.579,-180.5 141.579,-180.5"/>
<text text-anchor="middle" x="225.079" y="-187.5" font-family="FreeSans" font-size="10.00">components/esm/loadregn.hpp</text>
</a>
</g>
</g>
<!-- Node1&#45;&gt;Node2 -->
<g id="edge1" class="edge"><title>Node1&#45;&gt;Node2</title>
<path fill="none" stroke="midnightblue" d="M910.27,-404.435C759.748,-357.548 382.033,-239.891 262.181,-202.557"/>
<polygon fill="midnightblue" stroke="midnightblue" points="262.959,-199.134 252.371,-199.501 260.877,-205.817 262.959,-199.134"/>
</g>
<!-- Node9 -->
<g id="node9" class="node"><title>Node9</title>
<g id="a_node9"><a xlink:href="idcollection_8hpp.html" target="_top" xlink:title="../world/idcollection.hpp">
<polygon fill="white" stroke="black" points="909.079,-348.5 909.079,-367.5 1037.08,-367.5 1037.08,-348.5 909.079,-348.5"/>
<text text-anchor="middle" x="973.079" y="-355.5" font-family="FreeSans" font-size="10.00">../world/idcollection.hpp</text>
</a>
</g>
</g>
<!-- Node1&#45;&gt;Node9 -->
<g id="edge9" class="edge"><title>Node1&#45;&gt;Node9</title>
<path fill="none" stroke="midnightblue" d="M973.079,-404.498C973.079,-396.065 973.079,-386.235 973.079,-377.874"/>
<polygon fill="midnightblue" stroke="midnightblue" points="976.579,-377.652 973.079,-367.652 969.579,-377.653 976.579,-377.652"/>
</g>
<!-- Node34 -->
<g id="node34" class="node"><title>Node34</title>
<g id="a_node34"><a xlink:href="stage_8hpp.html" target="_top" xlink:title="../doc/stage.hpp">
<polygon fill="white" stroke="black" points="1554.08,-236.5 1554.08,-255.5 1648.08,-255.5 1648.08,-236.5 1554.08,-236.5"/>
<text text-anchor="middle" x="1601.08" y="-243.5" font-family="FreeSans" font-size="10.00">../doc/stage.hpp</text>
</a>
</g>
</g>
<!-- Node1&#45;&gt;Node34 -->
<g id="edge60" class="edge"><title>Node1&#45;&gt;Node34</title>
<path fill="none" stroke="midnightblue" d="M1042.38,-404.467C1173.89,-367.401 1455.86,-287.93 1560.71,-258.377"/>
<polygon fill="midnightblue" stroke="midnightblue" points="1561.91,-261.675 1570.59,-255.594 1560.01,-254.938 1561.91,-261.675"/>
</g>
<!-- Node3 -->
<g id="node3" class="node"><title>Node3</title>
<polygon fill="white" stroke="#bfbfbf" points="1067.08,-56.5 1067.08,-75.5 1111.08,-75.5 1111.08,-56.5 1067.08,-56.5"/>
<text text-anchor="middle" x="1089.08" y="-63.5" font-family="FreeSans" font-size="10.00">string</text>
</g>
<!-- Node2&#45;&gt;Node3 -->
<g id="edge2" class="edge"><title>Node2&#45;&gt;Node3</title>
<path fill="none" stroke="midnightblue" d="M243.92,-180.424C281.224,-163.887 367.511,-127.83 444.079,-112 563.216,-87.3685 943.016,-72.1872 1056.66,-68.1117"/>
<polygon fill="midnightblue" stroke="midnightblue" points="1056.93,-71.6041 1066.8,-67.752 1056.69,-64.6085 1056.93,-71.6041"/>
</g>
<!-- Node4 -->
<g id="node4" class="node"><title>Node4</title>
<polygon fill="white" stroke="#bfbfbf" points="1312.58,-56.5 1312.58,-75.5 1359.58,-75.5 1359.58,-56.5 1312.58,-56.5"/>
<text text-anchor="middle" x="1336.08" y="-63.5" font-family="FreeSans" font-size="10.00">vector</text>
</g>
<!-- Node2&#45;&gt;Node4 -->
<g id="edge3" class="edge"><title>Node2&#45;&gt;Node4</title>
<path fill="none" stroke="midnightblue" d="M308.807,-180.717C311.597,-180.471 314.36,-180.231 317.079,-180 539.077,-161.153 598.515,-187.229 817.079,-144 861.612,-135.192 869.703,-121.572 914.079,-112 1056.23,-81.3384 1230.03,-71.2074 1302.18,-68.1751"/>
<polygon fill="midnightblue" stroke="midnightblue" points="1302.62,-71.6604 1312.47,-67.7624 1302.34,-64.6661 1302.62,-71.6604"/>
</g>
<!-- Node5 -->
<g id="node5" class="node"><title>Node5</title>
<g id="a_node5"><a xlink:href="esmcommon_8hpp.html" target="_top" xlink:title="esmcommon.hpp">
<polygon fill="white" stroke="black" points="174.579,-118.5 174.579,-137.5 275.579,-137.5 275.579,-118.5 174.579,-118.5"/>
<text text-anchor="middle" x="225.079" y="-125.5" font-family="FreeSans" font-size="10.00">esmcommon.hpp</text>
</a>
</g>
</g>
<!-- Node2&#45;&gt;Node5 -->
<g id="edge4" class="edge"><title>Node2&#45;&gt;Node5</title>
<path fill="none" stroke="midnightblue" d="M225.079,-180.403C225.079,-171.938 225.079,-158.728 225.079,-147.82"/>
<polygon fill="midnightblue" stroke="midnightblue" points="228.579,-147.581 225.079,-137.581 221.579,-147.581 228.579,-147.581"/>
</g>
<!-- Node5&#45;&gt;Node3 -->
<g id="edge5" class="edge"><title>Node5&#45;&gt;Node3</title>
<path fill="none" stroke="midnightblue" d="M275.633,-121.126C302.726,-118.113 336.694,-114.551 367.079,-112 633.032,-89.6756 954.958,-73.406 1056.67,-68.5222"/>
<polygon fill="midnightblue" stroke="midnightblue" points="1057.08,-72.0069 1066.9,-68.0339 1056.74,-65.0149 1057.08,-72.0069"/>
</g>
<!-- Node6 -->
<g id="node6" class="node"><title>Node6</title>
<polygon fill="white" stroke="#bfbfbf" points="476.579,-56.5 476.579,-75.5 525.579,-75.5 525.579,-56.5 476.579,-56.5"/>
<text text-anchor="middle" x="501.079" y="-63.5" font-family="FreeSans" font-size="10.00">cstring</text>
</g>
<!-- Node5&#45;&gt;Node6 -->
<g id="edge6" class="edge"><title>Node5&#45;&gt;Node6</title>
<path fill="none" stroke="midnightblue" d="M264.329,-118.467C318.352,-106.723 414.773,-85.7621 466.32,-74.5562"/>
<polygon fill="midnightblue" stroke="midnightblue" points="467.278,-77.9298 476.306,-72.3853 465.791,-71.0895 467.278,-77.9298"/>
</g>
<!-- Node7 -->
<g id="node7" class="node"><title>Node7</title>
<polygon fill="white" stroke="#bfbfbf" points="35.5785,-56.5 35.5785,-75.5 88.5785,-75.5 88.5785,-56.5 35.5785,-56.5"/>
<text text-anchor="middle" x="62.0785" y="-63.5" font-family="FreeSans" font-size="10.00">stdint.h</text>
</g>
<!-- Node5&#45;&gt;Node7 -->
<g id="edge7" class="edge"><title>Node5&#45;&gt;Node7</title>
<path fill="none" stroke="midnightblue" d="M201.725,-118.403C173.764,-108.111 126.752,-90.8064 95.0872,-79.1504"/>
<polygon fill="midnightblue" stroke="midnightblue" points="95.9826,-75.7505 85.3891,-75.5806 93.5645,-82.3196 95.9826,-75.7505"/>
</g>
<!-- Node8 -->
<g id="node8" class="node"><title>Node8</title>
<polygon fill="white" stroke="#bfbfbf" points="121.579,-56.5 121.579,-75.5 174.579,-75.5 174.579,-56.5 121.579,-56.5"/>
<text text-anchor="middle" x="148.079" y="-63.5" font-family="FreeSans" font-size="10.00">string.h</text>
</g>
<!-- Node5&#45;&gt;Node8 -->
<g id="edge8" class="edge"><title>Node5&#45;&gt;Node8</title>
<path fill="none" stroke="midnightblue" d="M214.046,-118.403C201.81,-108.869 181.85,-93.3154 167.085,-81.8106"/>
<polygon fill="midnightblue" stroke="midnightblue" points="169.13,-78.9663 159.09,-75.5806 164.827,-84.4879 169.13,-78.9663"/>
</g>
<!-- Node10 -->
<g id="node10" class="node"><title>Node10</title>
<g id="a_node10"><a xlink:href="esmreader_8hpp.html" target="_top" xlink:title="components/esm/esmreader.hpp">
<polygon fill="white" stroke="black" points="496.079,-236.5 496.079,-255.5 672.079,-255.5 672.079,-236.5 496.079,-236.5"/>
<text text-anchor="middle" x="584.079" y="-243.5" font-family="FreeSans" font-size="10.00">components/esm/esmreader.hpp</text>
</a>
</g>
</g>
<!-- Node9&#45;&gt;Node10 -->
<g id="edge10" class="edge"><title>Node9&#45;&gt;Node10</title>
<path fill="none" stroke="midnightblue" d="M942.878,-348.46C873.432,-328.822 702.37,-280.45 624.208,-258.348"/>
<polygon fill="midnightblue" stroke="midnightblue" points="624.835,-254.888 614.26,-255.535 622.93,-261.624 624.835,-254.888"/>
</g>
<!-- Node21 -->
<g id="node21" class="node"><title>Node21</title>
<g id="a_node21"><a xlink:href="collection_8hpp.html" target="_top" xlink:title="collection.hpp">
<polygon fill="white" stroke="black" points="1084.58,-292.5 1084.58,-311.5 1167.58,-311.5 1167.58,-292.5 1084.58,-292.5"/>
<text text-anchor="middle" x="1126.08" y="-299.5" font-family="FreeSans" font-size="10.00">collection.hpp</text>
</a>
</g>
</g>
<!-- Node9&#45;&gt;Node21 -->
<g id="edge31" class="edge"><title>Node9&#45;&gt;Node21</title>
<path fill="none" stroke="midnightblue" d="M997.322,-348.444C1022.95,-339.399 1063.56,-325.064 1092.32,-314.916"/>
<polygon fill="midnightblue" stroke="midnightblue" points="1093.68,-318.145 1101.95,-311.516 1091.35,-311.544 1093.68,-318.145"/>
</g>
<!-- Node10&#45;&gt;Node4 -->
<g id="edge14" class="edge"><title>Node10&#45;&gt;Node4</title>
<path fill="none" stroke="midnightblue" d="M672.33,-241.354C803.239,-235.267 1036.97,-221.536 1069.08,-200 1105.73,-175.416 1079.81,-138.532 1115.08,-112 1144.19,-90.0965 1247.76,-76.2584 1302.15,-70.3342"/>
<polygon fill="midnightblue" stroke="midnightblue" points="1302.76,-73.7891 1312.34,-69.2548 1302.03,-66.8281 1302.76,-73.7891"/>
</g>
<!-- Node10&#45;&gt;Node5 -->
<g id="edge27" class="edge"><title>Node10&#45;&gt;Node5</title>
<path fill="none" stroke="midnightblue" d="M496.074,-242.469C371.467,-237.963 155.996,-226.416 132.079,-200 110.083,-175.706 152.746,-153.834 187.308,-140.98"/>
<polygon fill="midnightblue" stroke="midnightblue" points="188.539,-144.257 196.781,-137.599 186.186,-137.664 188.539,-144.257"/>
</g>
<!-- Node10&#45;&gt;Node7 -->
<g id="edge11" class="edge"><title>Node10&#45;&gt;Node7</title>
<path fill="none" stroke="midnightblue" d="M495.995,-241.777C366.773,-236.289 137.836,-223.384 108.079,-200 72.6335,-172.147 64.3863,-115.355 62.5443,-85.8076"/>
<polygon fill="midnightblue" stroke="midnightblue" points="66.0322,-85.4508 62.1007,-75.6124 59.0388,-85.7552 66.0322,-85.4508"/>
</g>
<!-- Node10&#45;&gt;Node8 -->
<g id="edge12" class="edge"><title>Node10&#45;&gt;Node8</title>
<path fill="none" stroke="midnightblue" d="M495.976,-242.674C368.914,-238.397 146.667,-227.1 122.079,-200 92.8046,-167.736 119.482,-112.563 136.485,-84.5014"/>
<polygon fill="midnightblue" stroke="midnightblue" points="139.608,-86.1122 141.989,-75.7884 133.689,-82.374 139.608,-86.1122"/>
</g>
<!-- Node11 -->
<g id="node11" class="node"><title>Node11</title>
<polygon fill="white" stroke="#bfbfbf" points="326.079,-180.5 326.079,-199.5 378.079,-199.5 378.079,-180.5 326.079,-180.5"/>
<text text-anchor="middle" x="352.079" y="-187.5" font-family="FreeSans" font-size="10.00">cassert</text>
</g>
<!-- Node10&#45;&gt;Node11 -->
<g id="edge13" class="edge"><title>Node10&#45;&gt;Node11</title>
<path fill="none" stroke="midnightblue" d="M545.131,-236.43C507.437,-228.064 448.432,-214.777 388.455,-200.289"/>
<polygon fill="midnightblue" stroke="midnightblue" points="388.976,-196.813 378.433,-197.858 387.326,-203.616 388.976,-196.813"/>
</g>
<!-- Node12 -->
<g id="node12" class="node"><title>Node12</title>
<polygon fill="white" stroke="#bfbfbf" points="396.079,-180.5 396.079,-199.5 452.079,-199.5 452.079,-180.5 396.079,-180.5"/>
<text text-anchor="middle" x="424.079" y="-187.5" font-family="FreeSans" font-size="10.00">sstream</text>
</g>
<!-- Node10&#45;&gt;Node12 -->
<g id="edge15" class="edge"><title>Node10&#45;&gt;Node12</title>
<path fill="none" stroke="midnightblue" d="M558.726,-236.444C531.809,-227.359 489.082,-212.939 458.992,-202.783"/>
<polygon fill="midnightblue" stroke="midnightblue" points="459.907,-199.398 449.312,-199.516 457.668,-206.031 459.907,-199.398"/>
</g>
<!-- Node13 -->
<g id="node13" class="node"><title>Node13</title>
<g id="a_node13"><a xlink:href="constrainedfilestream_8hpp.html" target="_top" xlink:title="components/files/constrainedfilestream.hpp">
<polygon fill="white" stroke="black" points="470.579,-180.5 470.579,-199.5 697.579,-199.5 697.579,-180.5 470.579,-180.5"/>
<text text-anchor="middle" x="584.079" y="-187.5" font-family="FreeSans" font-size="10.00">components/files/constrainedfilestream.hpp</text>
</a>
</g>
</g>
<!-- Node10&#45;&gt;Node13 -->
<g id="edge16" class="edge"><title>Node10&#45;&gt;Node13</title>
<path fill="none" stroke="midnightblue" d="M584.079,-236.083C584.079,-229.006 584.079,-218.861 584.079,-209.986"/>
<polygon fill="midnightblue" stroke="midnightblue" points="587.579,-209.751 584.079,-199.751 580.579,-209.751 587.579,-209.751"/>
</g>
<!-- Node16 -->
<g id="node16" class="node"><title>Node16</title>
<g id="a_node16"><a xlink:href="stringops_8hpp.html" target="_top" xlink:title="components/misc/stringops.hpp">
<polygon fill="white" stroke="black" points="890.079,-180.5 890.079,-199.5 1060.08,-199.5 1060.08,-180.5 890.079,-180.5"/>
<text text-anchor="middle" x="975.079" y="-187.5" font-family="FreeSans" font-size="10.00">components/misc/stringops.hpp</text>
</a>
</g>
</g>
<!-- Node10&#45;&gt;Node16 -->
<g id="edge19" class="edge"><title>Node10&#45;&gt;Node16</title>
<path fill="none" stroke="midnightblue" d="M646.034,-236.444C715.959,-226.786 829.545,-211.099 903.282,-200.916"/>
<polygon fill="midnightblue" stroke="midnightblue" points="903.986,-204.352 913.413,-199.516 903.028,-197.418 903.986,-204.352"/>
</g>
<!-- Node19 -->
<g id="node19" class="node"><title>Node19</title>
<g id="a_node19"><a xlink:href="to__utf8_8hpp.html" target="_top" xlink:title="components/to_utf8\l/to_utf8.hpp">
<polygon fill="white" stroke="black" points="695.579,-113 695.579,-143 808.579,-143 808.579,-113 695.579,-113"/>
<text text-anchor="start" x="703.579" y="-131" font-family="FreeSans" font-size="10.00">components/to_utf8</text>
<text text-anchor="middle" x="752.079" y="-120" font-family="FreeSans" font-size="10.00">/to_utf8.hpp</text>
</a>
</g>
</g>
<!-- Node10&#45;&gt;Node19 -->
<g id="edge23" class="edge"><title>Node10&#45;&gt;Node19</title>
<path fill="none" stroke="midnightblue" d="M626.704,-236.427C651.818,-229.736 683.072,-218.402 706.079,-200 721.791,-187.432 733.86,-167.984 741.685,-152.617"/>
<polygon fill="midnightblue" stroke="midnightblue" points="745.024,-153.751 746.21,-143.222 738.718,-150.713 745.024,-153.751"/>
</g>
<!-- Node20 -->
<g id="node20" class="node"><title>Node20</title>
<g id="a_node20"><a xlink:href="loadtes3_8hpp.html" target="_top" xlink:title="loadtes3.hpp">
<polygon fill="white" stroke="black" points="754.579,-180.5 754.579,-199.5 833.579,-199.5 833.579,-180.5 754.579,-180.5"/>
<text text-anchor="middle" x="794.079" y="-187.5" font-family="FreeSans" font-size="10.00">loadtes3.hpp</text>
</a>
</g>
</g>
<!-- Node10&#45;&gt;Node20 -->
<g id="edge28" class="edge"><title>Node10&#45;&gt;Node20</title>
<path fill="none" stroke="midnightblue" d="M617.354,-236.444C653.527,-227.142 711.455,-212.246 751.06,-202.062"/>
<polygon fill="midnightblue" stroke="midnightblue" points="752.146,-205.397 760.959,-199.516 750.402,-198.617 752.146,-205.397"/>
</g>
<!-- Node14 -->
<g id="node14" class="node"><title>Node14</title>
<polygon fill="white" stroke="#bfbfbf" points="590.579,-118.5 590.579,-137.5 643.579,-137.5 643.579,-118.5 590.579,-118.5"/>
<text text-anchor="middle" x="617.079" y="-125.5" font-family="FreeSans" font-size="10.00">istream</text>
</g>
<!-- Node13&#45;&gt;Node14 -->
<g id="edge17" class="edge"><title>Node13&#45;&gt;Node14</title>
<path fill="none" stroke="midnightblue" d="M588.807,-180.403C593.659,-171.582 601.344,-157.608 607.478,-146.455"/>
<polygon fill="midnightblue" stroke="midnightblue" points="610.607,-148.029 612.359,-137.581 604.473,-144.656 610.607,-148.029"/>
</g>
<!-- Node15 -->
<g id="node15" class="node"><title>Node15</title>
<polygon fill="white" stroke="#bfbfbf" points="453.579,-118.5 453.579,-137.5 572.579,-137.5 572.579,-118.5 453.579,-118.5"/>
<text text-anchor="middle" x="513.079" y="-125.5" font-family="FreeSans" font-size="10.00">boost/shared_ptr.hpp</text>
</g>
<!-- Node13&#45;&gt;Node15 -->
<g id="edge18" class="edge"><title>Node13&#45;&gt;Node15</title>
<path fill="none" stroke="midnightblue" d="M573.906,-180.403C562.729,-170.958 544.562,-155.606 530.987,-144.134"/>
<polygon fill="midnightblue" stroke="midnightblue" points="533.129,-141.362 523.232,-137.581 528.611,-146.709 533.129,-141.362"/>
</g>
<!-- Node16&#45;&gt;Node3 -->
<g id="edge21" class="edge"><title>Node16&#45;&gt;Node3</title>
<path fill="none" stroke="midnightblue" d="M975.053,-180.323C975.457,-164.857 978.39,-132.252 995.079,-112 1010.8,-92.9206 1036.52,-81.3884 1057.08,-74.7823"/>
<polygon fill="midnightblue" stroke="midnightblue" points="1058.11,-78.1284 1066.7,-71.9236 1056.12,-71.4187 1058.11,-78.1284"/>
</g>
<!-- Node17 -->
<g id="node17" class="node"><title>Node17</title>
<polygon fill="white" stroke="#bfbfbf" points="1124.08,-118.5 1124.08,-137.5 1172.08,-137.5 1172.08,-118.5 1124.08,-118.5"/>
<text text-anchor="middle" x="1148.08" y="-125.5" font-family="FreeSans" font-size="10.00">cctype</text>
</g>
<!-- Node16&#45;&gt;Node17 -->
<g id="edge20" class="edge"><title>Node16&#45;&gt;Node17</title>
<path fill="none" stroke="midnightblue" d="M999.865,-180.403C1029.84,-170.008 1080.44,-152.458 1114.05,-140.801"/>
<polygon fill="midnightblue" stroke="midnightblue" points="1115.59,-143.971 1123.9,-137.387 1113.3,-137.357 1115.59,-143.971"/>
</g>
<!-- Node18 -->
<g id="node18" class="node"><title>Node18</title>
<polygon fill="white" stroke="#bfbfbf" points="1004.08,-118.5 1004.08,-137.5 1066.08,-137.5 1066.08,-118.5 1004.08,-118.5"/>
<text text-anchor="middle" x="1035.08" y="-125.5" font-family="FreeSans" font-size="10.00">algorithm</text>
</g>
<!-- Node16&#45;&gt;Node18 -->
<g id="edge22" class="edge"><title>Node16&#45;&gt;Node18</title>
<path fill="none" stroke="midnightblue" d="M983.675,-180.403C992.942,-171.136 1007.9,-156.183 1019.29,-144.788"/>
<polygon fill="midnightblue" stroke="midnightblue" points="1021.9,-147.127 1026.5,-137.581 1016.95,-142.177 1021.9,-147.127"/>
</g>
<!-- Node19&#45;&gt;Node3 -->
<g id="edge24" class="edge"><title>Node19&#45;&gt;Node3</title>
<path fill="none" stroke="midnightblue" d="M808.865,-116.89C880.208,-104.188 1000.18,-82.8276 1057.17,-72.6814"/>
<polygon fill="midnightblue" stroke="midnightblue" points="1057.82,-76.1207 1067.05,-70.9219 1056.59,-69.2291 1057.82,-76.1207"/>
</g>
<!-- Node19&#45;&gt;Node4 -->
<g id="edge26" class="edge"><title>Node19&#45;&gt;Node4</title>
<path fill="none" stroke="midnightblue" d="M808.787,-120.502C832.645,-117.807 860.705,-114.689 886.079,-112 1041.24,-95.5582 1226.68,-77.526 1301.88,-70.2804"/>
<polygon fill="midnightblue" stroke="midnightblue" points="1302.55,-73.7331 1312.16,-69.2911 1301.87,-66.7653 1302.55,-73.7331"/>
</g>
<!-- Node19&#45;&gt;Node6 -->
<g id="edge25" class="edge"><title>Node19&#45;&gt;Node6</title>
<path fill="none" stroke="midnightblue" d="M695.436,-113.46C646.251,-101.703 576.629,-85.0598 535.437,-75.2133"/>
<polygon fill="midnightblue" stroke="midnightblue" points="536.147,-71.7844 525.607,-72.8635 534.52,-78.5926 536.147,-71.7844"/>
</g>
<!-- Node20&#45;&gt;Node4 -->
<g id="edge29" class="edge"><title>Node20&#45;&gt;Node4</title>
<path fill="none" stroke="midnightblue" d="M817.129,-180.492C841.321,-171.531 880.44,-156.951 914.079,-144 950.201,-130.093 957.61,-121.716 995.079,-112 1105.23,-83.4371 1240.34,-72.4631 1302.21,-68.7189"/>
<polygon fill="midnightblue" stroke="midnightblue" points="1302.77,-72.1929 1312.55,-68.1205 1302.36,-65.2046 1302.77,-72.1929"/>
</g>
<!-- Node20&#45;&gt;Node5 -->
<g id="edge30" class="edge"><title>Node20&#45;&gt;Node5</title>
<path fill="none" stroke="midnightblue" d="M754.519,-184.829C656.785,-174.523 403.374,-147.801 286.178,-135.443"/>
<polygon fill="midnightblue" stroke="midnightblue" points="286.258,-131.932 275.946,-134.364 285.524,-138.893 286.258,-131.932"/>
</g>
<!-- Node21&#45;&gt;Node4 -->
<g id="edge32" class="edge"><title>Node21&#45;&gt;Node4</title>
<path fill="none" stroke="midnightblue" d="M1167.82,-297.21C1220.84,-291.513 1308.1,-278.888 1330.08,-256 1374.84,-209.397 1359.79,-175.881 1350.08,-112 1348.71,-103.001 1345.89,-93.3251 1343.13,-85.2601"/>
<polygon fill="midnightblue" stroke="midnightblue" points="1346.39,-83.9759 1339.68,-75.7782 1339.81,-86.3722 1346.39,-83.9759"/>
</g>
<!-- Node21&#45;&gt;Node16 -->
<g id="edge39" class="edge"><title>Node21&#45;&gt;Node16</title>
<path fill="none" stroke="midnightblue" d="M1084.48,-294.805C1042.83,-287.652 982.987,-274.455 969.079,-256 959.078,-242.73 962.501,-223.338 967.252,-209.19"/>
<polygon fill="midnightblue" stroke="midnightblue" points="970.624,-210.171 970.943,-199.581 964.09,-207.661 970.624,-210.171"/>
</g>
<!-- Node21&#45;&gt;Node17 -->
<g id="edge35" class="edge"><title>Node21&#45;&gt;Node17</title>
<path fill="none" stroke="midnightblue" d="M1129.51,-292.193C1132.83,-283.234 1137.71,-268.874 1140.08,-256 1147.06,-218.113 1148.24,-172.913 1148.29,-147.942"/>
<polygon fill="midnightblue" stroke="midnightblue" points="1151.79,-147.694 1148.24,-137.71 1144.79,-147.726 1151.79,-147.694"/>
</g>
<!-- Node21&#45;&gt;Node18 -->
<g id="edge34" class="edge"><title>Node21&#45;&gt;Node18</title>
<path fill="none" stroke="midnightblue" d="M1124.24,-292.296C1121.35,-279.545 1115.15,-255.217 1106.08,-236 1089.91,-201.757 1063.94,-165.847 1048.29,-145.559"/>
<polygon fill="midnightblue" stroke="midnightblue" points="1051.01,-143.352 1042.09,-137.635 1045.5,-147.667 1051.01,-143.352"/>
</g>
<!-- Node22 -->
<g id="node22" class="node"><title>Node22</title>
<polygon fill="white" stroke="#bfbfbf" points="978.079,-236.5 978.079,-255.5 1016.08,-255.5 1016.08,-236.5 978.079,-236.5"/>
<text text-anchor="middle" x="997.079" y="-243.5" font-family="FreeSans" font-size="10.00">map</text>
</g>
<!-- Node21&#45;&gt;Node22 -->
<g id="edge33" class="edge"><title>Node21&#45;&gt;Node22</title>
<path fill="none" stroke="midnightblue" d="M1105.64,-292.444C1084.03,-283.4 1049.8,-269.068 1025.55,-258.92"/>
<polygon fill="midnightblue" stroke="midnightblue" points="1026.74,-255.621 1016.16,-254.988 1024.03,-262.078 1026.74,-255.621"/>
</g>
<!-- Node23 -->
<g id="node23" class="node"><title>Node23</title>
<polygon fill="white" stroke="#bfbfbf" points="1504.08,-0.5 1504.08,-19.5 1568.08,-19.5 1568.08,-0.5 1504.08,-0.5"/>
<text text-anchor="middle" x="1536.08" y="-7.5" font-family="FreeSans" font-size="10.00">stdexcept</text>
</g>
<!-- Node21&#45;&gt;Node23 -->
<g id="edge36" class="edge"><title>Node21&#45;&gt;Node23</title>
<path fill="none" stroke="midnightblue" d="M1084.33,-301.388C880.55,-302.741 0.0785384,-302.16 0.0785384,-191 0.0785384,-191 0.0785384,-191 0.0785384,-127 0.0785384,-93.3952 -1.17808,-75.6561 26.0785,-56 87.1925,-11.9278 1255.66,-10.7195 1493.89,-10.933"/>
<polygon fill="midnightblue" stroke="midnightblue" points="1493.89,-14.4329 1503.89,-10.9433 1493.9,-7.43287 1493.89,-14.4329"/>
</g>
<!-- Node24 -->
<g id="node24" class="node"><title>Node24</title>
<polygon fill="white" stroke="#bfbfbf" points="1034.58,-236.5 1034.58,-255.5 1097.58,-255.5 1097.58,-236.5 1034.58,-236.5"/>
<text text-anchor="middle" x="1066.08" y="-243.5" font-family="FreeSans" font-size="10.00">functional</text>
</g>
<!-- Node21&#45;&gt;Node24 -->
<g id="edge37" class="edge"><title>Node21&#45;&gt;Node24</title>
<path fill="none" stroke="midnightblue" d="M1116.44,-292.324C1107.57,-284.341 1094.2,-272.313 1083.47,-262.653"/>
<polygon fill="midnightblue" stroke="midnightblue" points="1085.67,-259.922 1075.89,-255.834 1080.99,-265.125 1085.67,-259.922"/>
</g>
<!-- Node25 -->
<g id="node25" class="node"><title>Node25</title>
<polygon fill="white" stroke="#bfbfbf" points="1423.08,-56.5 1423.08,-75.5 1481.08,-75.5 1481.08,-56.5 1423.08,-56.5"/>
<text text-anchor="middle" x="1452.08" y="-63.5" font-family="FreeSans" font-size="10.00">QVariant</text>
</g>
<!-- Node21&#45;&gt;Node25 -->
<g id="edge38" class="edge"><title>Node21&#45;&gt;Node25</title>
<path fill="none" stroke="midnightblue" d="M1167.8,-296.99C1224.87,-290.795 1323.45,-277.333 1352.08,-256 1410.6,-212.397 1438.21,-124.303 1447.88,-85.7652"/>
<polygon fill="midnightblue" stroke="midnightblue" points="1451.32,-86.4306 1450.23,-75.892 1444.51,-84.81 1451.32,-86.4306"/>
</g>
<!-- Node26 -->
<g id="node26" class="node"><title>Node26</title>
<g id="a_node26"><a xlink:href="columnbase_8hpp.html" target="_top" xlink:title="columnbase.hpp">
<polygon fill="white" stroke="black" points="1554.08,-118.5 1554.08,-137.5 1650.08,-137.5 1650.08,-118.5 1554.08,-118.5"/>
<text text-anchor="middle" x="1602.08" y="-125.5" font-family="FreeSans" font-size="10.00">columnbase.hpp</text>
</a>
</g>
</g>
<!-- Node21&#45;&gt;Node26 -->
<g id="edge40" class="edge"><title>Node21&#45;&gt;Node26</title>
<path fill="none" stroke="midnightblue" d="M1167.71,-298.588C1246.08,-293.54 1412.28,-280.267 1464.08,-256 1467.75,-254.282 1549.14,-178.461 1585.17,-144.807"/>
<polygon fill="midnightblue" stroke="midnightblue" points="1587.98,-146.971 1592.9,-137.586 1583.2,-141.856 1587.98,-146.971"/>
</g>
<!-- Node29 -->
<g id="node29" class="node"><title>Node29</title>
<g id="a_node29"><a xlink:href="collectionbase_8hpp.html" target="_top" xlink:title="collectionbase.hpp">
<polygon fill="white" stroke="black" points="1216.08,-236.5 1216.08,-255.5 1322.08,-255.5 1322.08,-236.5 1216.08,-236.5"/>
<text text-anchor="middle" x="1269.08" y="-243.5" font-family="FreeSans" font-size="10.00">collectionbase.hpp</text>
</a>
</g>
</g>
<!-- Node21&#45;&gt;Node29 -->
<g id="edge48" class="edge"><title>Node21&#45;&gt;Node29</title>
<path fill="none" stroke="midnightblue" d="M1148.74,-292.444C1172.48,-283.478 1209.99,-269.314 1236.82,-259.183"/>
<polygon fill="midnightblue" stroke="midnightblue" points="1238.41,-262.324 1246.53,-255.516 1235.93,-255.775 1238.41,-262.324"/>
</g>
<!-- Node26&#45;&gt;Node3 -->
<g id="edge41" class="edge"><title>Node26&#45;&gt;Node3</title>
<path fill="none" stroke="midnightblue" d="M1554.07,-119.397C1537.6,-116.896 1519.05,-114.197 1502.08,-112 1360.85,-93.7218 1191.81,-76.8708 1121.86,-70.1177"/>
<polygon fill="midnightblue" stroke="midnightblue" points="1121.79,-66.5952 1111.5,-69.1219 1121.12,-73.5631 1121.79,-66.5952"/>
</g>
<!-- Node26&#45;&gt;Node4 -->
<g id="edge42" class="edge"><title>Node26&#45;&gt;Node4</title>
<path fill="none" stroke="midnightblue" d="M1567.35,-118.467C1558.47,-116.32 1548.93,-114.046 1540.08,-112 1480.1,-98.1319 1409.99,-82.8726 1369.54,-74.1626"/>
<polygon fill="midnightblue" stroke="midnightblue" points="1370.19,-70.7224 1359.67,-72.0421 1368.71,-77.566 1370.19,-70.7224"/>
</g>
<!-- Node26&#45;&gt;Node23 -->
<g id="edge43" class="edge"><title>Node26&#45;&gt;Node23</title>
<path fill="none" stroke="midnightblue" d="M1600.54,-118.169C1597.83,-104.195 1591.29,-76.4733 1579.08,-56 1572.53,-45.0299 1562.86,-34.5953 1554.35,-26.541"/>
<polygon fill="midnightblue" stroke="midnightblue" points="1556.45,-23.7189 1546.68,-19.6084 1551.75,-28.9112 1556.45,-23.7189"/>
</g>
<!-- Node26&#45;&gt;Node25 -->
<g id="edge45" class="edge"><title>Node26&#45;&gt;Node25</title>
<path fill="none" stroke="midnightblue" d="M1580.59,-118.403C1554.97,-108.156 1511.97,-90.9561 1482.83,-79.3021"/>
<polygon fill="midnightblue" stroke="midnightblue" points="1484.11,-76.0449 1473.53,-75.5806 1481.51,-82.5442 1484.11,-76.0449"/>
</g>
<!-- Node27 -->
<g id="node27" class="node"><title>Node27</title>
<polygon fill="white" stroke="#bfbfbf" points="1626.58,-56.5 1626.58,-75.5 1655.58,-75.5 1655.58,-56.5 1626.58,-56.5"/>
<text text-anchor="middle" x="1641.08" y="-63.5" font-family="FreeSans" font-size="10.00">Qt</text>
</g>
<!-- Node26&#45;&gt;Node27 -->
<g id="edge44" class="edge"><title>Node26&#45;&gt;Node27</title>
<path fill="none" stroke="midnightblue" d="M1607.67,-118.403C1613.46,-109.493 1622.67,-95.3247 1629.95,-84.1177"/>
<polygon fill="midnightblue" stroke="midnightblue" points="1632.99,-85.8725 1635.5,-75.5806 1627.12,-82.0576 1632.99,-85.8725"/>
</g>
<!-- Node28 -->
<g id="node28" class="node"><title>Node28</title>
<g id="a_node28"><a xlink:href="apps_2opencs_2model_2world_2record_8hpp.html" target="_top" xlink:title="record.hpp">
<polygon fill="white" stroke="black" points="1502.08,-56.5 1502.08,-75.5 1570.08,-75.5 1570.08,-56.5 1502.08,-56.5"/>
<text text-anchor="middle" x="1536.08" y="-63.5" font-family="FreeSans" font-size="10.00">record.hpp</text>
</a>
</g>
</g>
<!-- Node26&#45;&gt;Node28 -->
<g id="edge46" class="edge"><title>Node26&#45;&gt;Node28</title>
<path fill="none" stroke="midnightblue" d="M1592.62,-118.403C1582.33,-109.047 1565.66,-93.8948 1553.08,-82.4599"/>
<polygon fill="midnightblue" stroke="midnightblue" points="1555.27,-79.7176 1545.52,-75.5806 1550.56,-84.8971 1555.27,-79.7176"/>
</g>
<!-- Node28&#45;&gt;Node23 -->
<g id="edge47" class="edge"><title>Node28&#45;&gt;Node23</title>
<path fill="none" stroke="midnightblue" d="M1536.08,-56.083C1536.08,-49.0059 1536.08,-38.8611 1536.08,-29.9865"/>
<polygon fill="midnightblue" stroke="midnightblue" points="1539.58,-29.751 1536.08,-19.7511 1532.58,-29.7511 1539.58,-29.751"/>
</g>
<!-- Node29&#45;&gt;Node3 -->
<g id="edge49" class="edge"><title>Node29&#45;&gt;Node3</title>
<path fill="none" stroke="midnightblue" d="M1215.76,-240.688C1112,-232.042 892.087,-212.359 881.079,-200 823.609,-135.479 985.622,-90.1024 1057.09,-73.7272"/>
<polygon fill="midnightblue" stroke="midnightblue" points="1057.95,-77.1222 1066.94,-71.5228 1056.42,-70.2911 1057.95,-77.1222"/>
</g>
<!-- Node29&#45;&gt;Node4 -->
<g id="edge50" class="edge"><title>Node29&#45;&gt;Node4</title>
<path fill="none" stroke="midnightblue" d="M1282.44,-236.38C1293.65,-228.379 1309.06,-215.402 1317.08,-200 1336.3,-163.051 1337.95,-112.934 1337.19,-85.999"/>
<polygon fill="midnightblue" stroke="midnightblue" points="1340.67,-85.5211 1336.74,-75.682 1333.68,-85.8242 1340.67,-85.5211"/>
</g>
<!-- Node30 -->
<g id="node30" class="node"><title>Node30</title>
<g id="a_node30"><a xlink:href="universalid_8hpp.html" target="_top" xlink:title="universalid.hpp">
<polygon fill="white" stroke="black" points="1668.58,-118.5 1668.58,-137.5 1757.58,-137.5 1757.58,-118.5 1668.58,-118.5"/>
<text text-anchor="middle" x="1713.08" y="-125.5" font-family="FreeSans" font-size="10.00">universalid.hpp</text>
</a>
</g>
</g>
<!-- Node29&#45;&gt;Node30 -->
<g id="edge51" class="edge"><title>Node29&#45;&gt;Node30</title>
<path fill="none" stroke="midnightblue" d="M1302.78,-236.484C1370.42,-219.345 1527.52,-179.304 1659.08,-144 1663.53,-142.804 1668.19,-141.537 1672.82,-140.266"/>
<polygon fill="midnightblue" stroke="midnightblue" points="1674.12,-143.538 1682.83,-137.503 1672.26,-136.79 1674.12,-143.538"/>
</g>
<!-- Node33 -->
<g id="node33" class="node"><title>Node33</title>
<g id="a_node33"><a xlink:href="columns_8hpp.html" target="_top" xlink:title="columns.hpp">
<polygon fill="white" stroke="black" points="1230.08,-180.5 1230.08,-199.5 1308.08,-199.5 1308.08,-180.5 1230.08,-180.5"/>
<text text-anchor="middle" x="1269.08" y="-187.5" font-family="FreeSans" font-size="10.00">columns.hpp</text>
</a>
</g>
</g>
<!-- Node29&#45;&gt;Node33 -->
<g id="edge56" class="edge"><title>Node29&#45;&gt;Node33</title>
<path fill="none" stroke="midnightblue" d="M1269.08,-236.083C1269.08,-229.006 1269.08,-218.861 1269.08,-209.986"/>
<polygon fill="midnightblue" stroke="midnightblue" points="1272.58,-209.751 1269.08,-199.751 1265.58,-209.751 1272.58,-209.751"/>
</g>
<!-- Node30&#45;&gt;Node3 -->
<g id="edge52" class="edge"><title>Node30&#45;&gt;Node3</title>
<path fill="none" stroke="midnightblue" d="M1686.39,-118.494C1677.76,-116.036 1668.09,-113.591 1659.08,-112 1554.4,-93.5065 1225.92,-74.4607 1121.38,-68.7304"/>
<polygon fill="midnightblue" stroke="midnightblue" points="1121.31,-65.2219 1111.14,-68.1727 1120.93,-72.2115 1121.31,-65.2219"/>
</g>
<!-- Node30&#45;&gt;Node4 -->
<g id="edge54" class="edge"><title>Node30&#45;&gt;Node4</title>
<path fill="none" stroke="midnightblue" d="M1684.95,-118.425C1676.67,-116.109 1667.56,-113.76 1659.08,-112 1604.24,-100.616 1441.25,-79.9509 1370.02,-71.1493"/>
<polygon fill="midnightblue" stroke="midnightblue" points="1370.16,-67.6398 1359.81,-69.8905 1369.3,-74.5872 1370.16,-67.6398"/>
</g>
<!-- Node31 -->
<g id="node31" class="node"><title>Node31</title>
<polygon fill="white" stroke="#bfbfbf" points="1687.08,-56.5 1687.08,-75.5 1733.08,-75.5 1733.08,-56.5 1687.08,-56.5"/>
<text text-anchor="middle" x="1710.08" y="-63.5" font-family="FreeSans" font-size="10.00">iosfwd</text>
</g>
<!-- Node30&#45;&gt;Node31 -->
<g id="edge53" class="edge"><title>Node30&#45;&gt;Node31</title>
<path fill="none" stroke="midnightblue" d="M1712.65,-118.403C1712.23,-109.938 1711.56,-96.7283 1711.02,-85.8199"/>
<polygon fill="midnightblue" stroke="midnightblue" points="1714.5,-85.3933 1710.51,-75.5806 1707.51,-85.7429 1714.5,-85.3933"/>
</g>
<!-- Node32 -->
<g id="node32" class="node"><title>Node32</title>
<polygon fill="white" stroke="#bfbfbf" points="1751.58,-56.5 1751.58,-75.5 1820.58,-75.5 1820.58,-56.5 1751.58,-56.5"/>
<text text-anchor="middle" x="1786.08" y="-63.5" font-family="FreeSans" font-size="10.00">QMetaType</text>
</g>
<!-- Node30&#45;&gt;Node32 -->
<g id="edge55" class="edge"><title>Node30&#45;&gt;Node32</title>
<path fill="none" stroke="midnightblue" d="M1723.54,-118.403C1735.03,-108.958 1753.71,-93.6056 1767.67,-82.1342"/>
<polygon fill="midnightblue" stroke="midnightblue" points="1770.14,-84.6342 1775.64,-75.5806 1765.69,-79.2264 1770.14,-84.6342"/>
</g>
<!-- Node33&#45;&gt;Node3 -->
<g id="edge57" class="edge"><title>Node33&#45;&gt;Node3</title>
<path fill="none" stroke="midnightblue" d="M1265.32,-180.277C1258.07,-164.442 1240.67,-130.863 1216.08,-112 1187.93,-90.4152 1148.58,-78.6129 1121.16,-72.5771"/>
<polygon fill="midnightblue" stroke="midnightblue" points="1121.79,-69.1329 1111.29,-70.5378 1120.37,-75.9882 1121.79,-69.1329"/>
</g>
<!-- Node33&#45;&gt;Node4 -->
<g id="edge58" class="edge"><title>Node33&#45;&gt;Node4</title>
<path fill="none" stroke="midnightblue" d="M1273.9,-180.226C1284.86,-160.266 1311.84,-111.144 1326.39,-84.6378"/>
<polygon fill="midnightblue" stroke="midnightblue" points="1329.56,-86.1444 1331.3,-75.6944 1323.42,-82.7748 1329.56,-86.1444"/>
</g>
<!-- Node33&#45;&gt;Node26 -->
<g id="edge59" class="edge"><title>Node33&#45;&gt;Node26</title>
<path fill="none" stroke="midnightblue" d="M1308.26,-181.941C1366.72,-171.407 1477.13,-151.513 1544.7,-139.339"/>
<polygon fill="midnightblue" stroke="midnightblue" points="1545.53,-142.745 1554.75,-137.527 1544.29,-135.856 1545.53,-142.745"/>
</g>
<!-- Node34&#45;&gt;Node3 -->
<g id="edge62" class="edge"><title>Node34&#45;&gt;Node3</title>
<path fill="none" stroke="midnightblue" d="M1553.82,-245.047C1464.01,-244.241 1273.04,-237.969 1221.08,-200 1186.39,-174.654 1211.02,-142.805 1181.08,-112 1164.61,-95.0634 1140.46,-83.5867 1121.04,-76.4642"/>
<polygon fill="midnightblue" stroke="midnightblue" points="1121.97,-73.0834 1111.38,-73.1305 1119.69,-79.7007 1121.97,-73.0834"/>
</g>
<!-- Node34&#45;&gt;Node4 -->
<g id="edge61" class="edge"><title>Node34&#45;&gt;Node4</title>
<path fill="none" stroke="midnightblue" d="M1588.3,-236.415C1546.07,-208.048 1410.68,-117.113 1357.66,-81.4988"/>
<polygon fill="midnightblue" stroke="midnightblue" points="1359.3,-78.3782 1349.04,-75.7077 1355.39,-84.189 1359.3,-78.3782"/>
</g>
<!-- Node34&#45;&gt;Node30 -->
<g id="edge63" class="edge"><title>Node34&#45;&gt;Node30</title>
<path fill="none" stroke="midnightblue" d="M1611.87,-236.493C1622.7,-227.768 1639.65,-213.586 1653.08,-200 1670.36,-182.51 1688.33,-160.687 1700.04,-145.885"/>
<polygon fill="midnightblue" stroke="midnightblue" points="1703.06,-147.71 1706.46,-137.678 1697.54,-143.396 1703.06,-147.71"/>
</g>
<!-- Node35 -->
<g id="node35" class="node"><title>Node35</title>
<g id="a_node35"><a xlink:href="messages_8hpp.html" target="_top" xlink:title="messages.hpp">
<polygon fill="white" stroke="black" points="1557.58,-180.5 1557.58,-199.5 1644.58,-199.5 1644.58,-180.5 1557.58,-180.5"/>
<text text-anchor="middle" x="1601.08" y="-187.5" font-family="FreeSans" font-size="10.00">messages.hpp</text>
</a>
</g>
</g>
<!-- Node34&#45;&gt;Node35 -->
<g id="edge64" class="edge"><title>Node34&#45;&gt;Node35</title>
<path fill="none" stroke="midnightblue" d="M1601.08,-236.083C1601.08,-229.006 1601.08,-218.861 1601.08,-209.986"/>
<polygon fill="midnightblue" stroke="midnightblue" points="1604.58,-209.751 1601.08,-199.751 1597.58,-209.751 1604.58,-209.751"/>
</g>
<!-- Node35&#45;&gt;Node3 -->
<g id="edge65" class="edge"><title>Node35&#45;&gt;Node3</title>
<path fill="none" stroke="midnightblue" d="M1565.08,-180.421C1469.72,-157.7 1211.75,-96.2312 1121.1,-74.631"/>
<polygon fill="midnightblue" stroke="midnightblue" points="1121.68,-71.1709 1111.14,-72.2576 1120.06,-77.9803 1121.68,-71.1709"/>
</g>
<!-- Node35&#45;&gt;Node4 -->
<g id="edge66" class="edge"><title>Node35&#45;&gt;Node4</title>
<path fill="none" stroke="midnightblue" d="M1590.38,-180.495C1565.79,-160.977 1507,-114.455 1502.08,-112 1458.98,-90.4919 1404.28,-78.2218 1369.72,-72.0874"/>
<polygon fill="midnightblue" stroke="midnightblue" points="1370.12,-68.6053 1359.67,-70.3772 1368.95,-75.506 1370.12,-68.6053"/>
</g>
<!-- Node35&#45;&gt;Node30 -->
<g id="edge68" class="edge"><title>Node35&#45;&gt;Node30</title>
<path fill="none" stroke="midnightblue" d="M1617.13,-180.403C1635.67,-170.468 1666.42,-153.997 1688.1,-142.381"/>
<polygon fill="midnightblue" stroke="midnightblue" points="1689.9,-145.388 1697.06,-137.581 1686.59,-139.218 1689.9,-145.388"/>
</g>
<!-- Node35&#45;&gt;Node32 -->
<g id="edge67" class="edge"><title>Node35&#45;&gt;Node32</title>
<path fill="none" stroke="midnightblue" d="M1644.94,-188.65C1682.14,-185.95 1734.36,-176.106 1766.08,-144 1781.29,-128.606 1785.37,-103.212 1786.25,-85.8256"/>
<polygon fill="midnightblue" stroke="midnightblue" points="1789.75,-85.8094 1786.45,-75.7419 1782.75,-85.6704 1789.75,-85.8094"/>
</g>
</g>
</svg>
