<?xml version="1.0" encoding="UTF-8" standalone="no"?>
<!DOCTYPE svg PUBLIC "-//W3C//DTD SVG 1.1//EN"
 "http://www.w3.org/Graphics/SVG/1.1/DTD/svg11.dtd">
<!-- Generated by graphviz version 2.36.0 (20140111.2315)
 -->
<!-- Title: /home/travis/build/OpenMW/openmw/apps/opencs/model/world/scope.hpp Pages: 1 -->
<svg width="2551pt" height="362pt"
 viewBox="0.00 0.00 2551.00 362.00" xmlns="http://www.w3.org/2000/svg" xmlns:xlink="http://www.w3.org/1999/xlink">
<g id="graph0" class="graph" transform="scale(1 1) rotate(0) translate(4 358)">
<title>/home/travis/build/OpenMW/openmw/apps/opencs/model/world/scope.hpp</title>
<polygon fill="white" stroke="none" points="-4,4 -4,-358 2547,-358 2547,4 -4,4"/>
<!-- Node1 -->
<g id="node1" class="node"><title>Node1</title>
<polygon fill="#bfbfbf" stroke="black" points="513.5,-312.5 513.5,-353.5 680.5,-353.5 680.5,-312.5 513.5,-312.5"/>
<text text-anchor="start" x="521.5" y="-341.5" font-family="FreeSans" font-size="10.00">/home/travis/build</text>
<text text-anchor="start" x="521.5" y="-330.5" font-family="FreeSans" font-size="10.00">/OpenMW/openmw/apps</text>
<text text-anchor="middle" x="597" y="-319.5" font-family="FreeSans" font-size="10.00">/opencs/model/world/scope.hpp</text>
</g>
<!-- Node2 -->
<g id="node2" class="node"><title>Node2</title>
<g id="a_node2"><a xlink:href="savingstages_8hpp.html" target="_top" xlink:title="/home/travis/build\l/OpenMW/openmw/apps\l/opencs/model/doc/savingstages.hpp">
<polygon fill="white" stroke="black" points="196,-234.5 196,-275.5 390,-275.5 390,-234.5 196,-234.5"/>
<text text-anchor="start" x="204" y="-263.5" font-family="FreeSans" font-size="10.00">/home/travis/build</text>
<text text-anchor="start" x="204" y="-252.5" font-family="FreeSans" font-size="10.00">/OpenMW/openmw/apps</text>
<text text-anchor="middle" x="293" y="-241.5" font-family="FreeSans" font-size="10.00">/opencs/model/doc/savingstages.hpp</text>
</a>
</g>
</g>
<!-- Node1&#45;&gt;Node2 -->
<g id="edge1" class="edge"><title>Node1&#45;&gt;Node2</title>
<path fill="none" stroke="midnightblue" d="M508.975,-309.994C465.372,-299.093 413.177,-286.044 371.022,-275.506"/>
<polygon fill="midnightblue" stroke="midnightblue" points="508.162,-313.398 518.712,-312.428 509.86,-306.607 508.162,-313.398"/>
</g>
<!-- Node5 -->
<g id="node5" class="node"><title>Node5</title>
<g id="a_node5"><a xlink:href="scope_8cpp.html" target="_top" xlink:title="/home/travis/build\l/OpenMW/openmw/apps\l/opencs/model/world/scope.cpp">
<polygon fill="white" stroke="black" points="513.5,-234.5 513.5,-275.5 680.5,-275.5 680.5,-234.5 513.5,-234.5"/>
<text text-anchor="start" x="521.5" y="-263.5" font-family="FreeSans" font-size="10.00">/home/travis/build</text>
<text text-anchor="start" x="521.5" y="-252.5" font-family="FreeSans" font-size="10.00">/OpenMW/openmw/apps</text>
<text text-anchor="middle" x="597" y="-241.5" font-family="FreeSans" font-size="10.00">/opencs/model/world/scope.cpp</text>
</a>
</g>
</g>
<!-- Node1&#45;&gt;Node5 -->
<g id="edge4" class="edge"><title>Node1&#45;&gt;Node5</title>
<path fill="none" stroke="midnightblue" d="M597,-302.297C597,-293.301 597,-283.653 597,-275.506"/>
<polygon fill="midnightblue" stroke="midnightblue" points="593.5,-302.428 597,-312.428 600.5,-302.428 593.5,-302.428"/>
</g>
<!-- Node6 -->
<g id="node6" class="node"><title>Node6</title>
<g id="a_node6"><a xlink:href="creator_8hpp.html" target="_top" xlink:title="/home/travis/build\l/OpenMW/openmw/apps\l/opencs/view/world/creator.hpp">
<polygon fill="white" stroke="black" points="751.5,-234.5 751.5,-275.5 914.5,-275.5 914.5,-234.5 751.5,-234.5"/>
<text text-anchor="start" x="759.5" y="-263.5" font-family="FreeSans" font-size="10.00">/home/travis/build</text>
<text text-anchor="start" x="759.5" y="-252.5" font-family="FreeSans" font-size="10.00">/OpenMW/openmw/apps</text>
<text text-anchor="middle" x="833" y="-241.5" font-family="FreeSans" font-size="10.00">/opencs/view/world/creator.hpp</text>
</a>
</g>
</g>
<!-- Node1&#45;&gt;Node6 -->
<g id="edge5" class="edge"><title>Node1&#45;&gt;Node6</title>
<path fill="none" stroke="midnightblue" d="M667.477,-309.304C700.884,-298.546 740.392,-285.823 772.43,-275.506"/>
<polygon fill="midnightblue" stroke="midnightblue" points="666.222,-306.031 657.776,-312.428 668.367,-312.694 666.222,-306.031"/>
</g>
<!-- Node3 -->
<g id="node3" class="node"><title>Node3</title>
<g id="a_node3"><a xlink:href="saving_8cpp.html" target="_top" xlink:title="/home/travis/build\l/OpenMW/openmw/apps\l/opencs/model/doc/saving.cpp">
<polygon fill="white" stroke="black" points="212.5,-156.5 212.5,-197.5 373.5,-197.5 373.5,-156.5 212.5,-156.5"/>
<text text-anchor="start" x="220.5" y="-185.5" font-family="FreeSans" font-size="10.00">/home/travis/build</text>
<text text-anchor="start" x="220.5" y="-174.5" font-family="FreeSans" font-size="10.00">/OpenMW/openmw/apps</text>
<text text-anchor="middle" x="293" y="-163.5" font-family="FreeSans" font-size="10.00">/opencs/model/doc/saving.cpp</text>
</a>
</g>
</g>
<!-- Node2&#45;&gt;Node3 -->
<g id="edge2" class="edge"><title>Node2&#45;&gt;Node3</title>
<path fill="none" stroke="midnightblue" d="M293,-224.297C293,-215.301 293,-205.653 293,-197.506"/>
<polygon fill="midnightblue" stroke="midnightblue" points="289.5,-224.428 293,-234.428 296.5,-224.428 289.5,-224.428"/>
</g>
<!-- Node4 -->
<g id="node4" class="node"><title>Node4</title>
<g id="a_node4"><a xlink:href="savingstages_8cpp.html" target="_top" xlink:title="/home/travis/build\l/OpenMW/openmw/apps\l/opencs/model/doc/savingstages.cpp">
<polygon fill="white" stroke="black" points="0,-156.5 0,-197.5 194,-197.5 194,-156.5 0,-156.5"/>
<text text-anchor="start" x="8" y="-185.5" font-family="FreeSans" font-size="10.00">/home/travis/build</text>
<text text-anchor="start" x="8" y="-174.5" font-family="FreeSans" font-size="10.00">/OpenMW/openmw/apps</text>
<text text-anchor="middle" x="97" y="-163.5" font-family="FreeSans" font-size="10.00">/opencs/model/doc/savingstages.cpp</text>
</a>
</g>
</g>
<!-- Node2&#45;&gt;Node4 -->
<g id="edge3" class="edge"><title>Node2&#45;&gt;Node4</title>
<path fill="none" stroke="midnightblue" d="M233.035,-230.748C205.599,-220.11 173.455,-207.646 147.304,-197.506"/>
<polygon fill="midnightblue" stroke="midnightblue" points="231.936,-234.076 242.525,-234.428 234.467,-227.55 231.936,-234.076"/>
</g>
<!-- Node7 -->
<g id="node7" class="node"><title>Node7</title>
<g id="a_node7"><a xlink:href="genericcreator_8hpp.html" target="_top" xlink:title="/home/travis/build\l/OpenMW/openmw/apps\l/opencs/view/world/genericcreator.hpp">
<polygon fill="white" stroke="black" points="1214,-156.5 1214,-197.5 1412,-197.5 1412,-156.5 1214,-156.5"/>
<text text-anchor="start" x="1222" y="-185.5" font-family="FreeSans" font-size="10.00">/home/travis/build</text>
<text text-anchor="start" x="1222" y="-174.5" font-family="FreeSans" font-size="10.00">/OpenMW/openmw/apps</text>
<text text-anchor="middle" x="1313" y="-163.5" font-family="FreeSans" font-size="10.00">/opencs/view/world/genericcreator.hpp</text>
</a>
</g>
</g>
<!-- Node6&#45;&gt;Node7 -->
<g id="edge6" class="edge"><title>Node6&#45;&gt;Node7</title>
<path fill="none" stroke="midnightblue" d="M924.454,-241.019C999.623,-230.151 1108.85,-213.907 1204,-198 1207.23,-197.461 1210.5,-196.905 1213.81,-196.337"/>
<polygon fill="midnightblue" stroke="midnightblue" points="923.937,-237.557 914.539,-242.449 924.937,-244.485 923.937,-237.557"/>
</g>
<!-- Node27 -->
<g id="node27" class="node"><title>Node27</title>
<g id="a_node27"><a xlink:href="creator_8cpp.html" target="_top" xlink:title="/home/travis/build\l/OpenMW/openmw/apps\l/opencs/view/world/creator.cpp">
<polygon fill="white" stroke="black" points="392,-156.5 392,-197.5 554,-197.5 554,-156.5 392,-156.5"/>
<text text-anchor="start" x="400" y="-185.5" font-family="FreeSans" font-size="10.00">/home/travis/build</text>
<text text-anchor="start" x="400" y="-174.5" font-family="FreeSans" font-size="10.00">/OpenMW/openmw/apps</text>
<text text-anchor="middle" x="473" y="-163.5" font-family="FreeSans" font-size="10.00">/opencs/view/world/creator.cpp</text>
</a>
</g>
</g>
<!-- Node6&#45;&gt;Node27 -->
<g id="edge34" class="edge"><title>Node6&#45;&gt;Node27</title>
<path fill="none" stroke="midnightblue" d="M741.484,-235.354C689.173,-224.612 622.361,-210.751 563,-198 560.183,-197.395 557.317,-196.776 554.424,-196.148"/>
<polygon fill="midnightblue" stroke="midnightblue" points="740.912,-238.81 751.412,-237.391 742.319,-231.953 740.912,-238.81"/>
</g>
<!-- Node28 -->
<g id="node28" class="node"><title>Node28</title>
<g id="a_node28"><a xlink:href="scenesubview_8cpp.html" target="_top" xlink:title="/home/travis/build\l/OpenMW/openmw/apps\l/opencs/view/world/scenesubview.cpp">
<polygon fill="white" stroke="black" points="572,-156.5 572,-197.5 766,-197.5 766,-156.5 572,-156.5"/>
<text text-anchor="start" x="580" y="-185.5" font-family="FreeSans" font-size="10.00">/home/travis/build</text>
<text text-anchor="start" x="580" y="-174.5" font-family="FreeSans" font-size="10.00">/OpenMW/openmw/apps</text>
<text text-anchor="middle" x="669" y="-163.5" font-family="FreeSans" font-size="10.00">/opencs/view/world/scenesubview.cpp</text>
</a>
</g>
</g>
<!-- Node6&#45;&gt;Node28 -->
<g id="edge35" class="edge"><title>Node6&#45;&gt;Node28</title>
<path fill="none" stroke="midnightblue" d="M781.618,-230.189C758.93,-219.675 732.59,-207.469 711.091,-197.506"/>
<polygon fill="midnightblue" stroke="midnightblue" points="780.221,-233.399 790.766,-234.428 783.164,-227.048 780.221,-233.399"/>
</g>
<!-- Node29 -->
<g id="node29" class="node"><title>Node29</title>
<g id="a_node29"><a xlink:href="tablebottombox_8cpp.html" target="_top" xlink:title="/home/travis/build\l/OpenMW/openmw/apps\l/opencs/view/world/tablebottombox.cpp">
<polygon fill="white" stroke="black" points="783.5,-156.5 783.5,-197.5 988.5,-197.5 988.5,-156.5 783.5,-156.5"/>
<text text-anchor="start" x="791.5" y="-185.5" font-family="FreeSans" font-size="10.00">/home/travis/build</text>
<text text-anchor="start" x="791.5" y="-174.5" font-family="FreeSans" font-size="10.00">/OpenMW/openmw/apps</text>
<text text-anchor="middle" x="886" y="-163.5" font-family="FreeSans" font-size="10.00">/opencs/view/world/tablebottombox.cpp</text>
</a>
</g>
</g>
<!-- Node6&#45;&gt;Node29 -->
<g id="edge36" class="edge"><title>Node6&#45;&gt;Node29</title>
<path fill="none" stroke="midnightblue" d="M852.493,-226.048C859.106,-216.566 866.345,-206.185 872.397,-197.506"/>
<polygon fill="midnightblue" stroke="midnightblue" points="849.498,-224.224 846.649,-234.428 855.24,-228.228 849.498,-224.224"/>
</g>
<!-- Node30 -->
<g id="node30" class="node"><title>Node30</title>
<g id="a_node30"><a xlink:href="tablesubview_8cpp.html" target="_top" xlink:title="/home/travis/build\l/OpenMW/openmw/apps\l/opencs/view/world/tablesubview.cpp">
<polygon fill="white" stroke="black" points="1006.5,-156.5 1006.5,-197.5 1195.5,-197.5 1195.5,-156.5 1006.5,-156.5"/>
<text text-anchor="start" x="1014.5" y="-185.5" font-family="FreeSans" font-size="10.00">/home/travis/build</text>
<text text-anchor="start" x="1014.5" y="-174.5" font-family="FreeSans" font-size="10.00">/OpenMW/openmw/apps</text>
<text text-anchor="middle" x="1101" y="-163.5" font-family="FreeSans" font-size="10.00">/opencs/view/world/tablesubview.cpp</text>
</a>
</g>
</g>
<!-- Node6&#45;&gt;Node30 -->
<g id="edge37" class="edge"><title>Node6&#45;&gt;Node30</title>
<path fill="none" stroke="midnightblue" d="M912.058,-231.58C950.199,-220.764 995.523,-207.911 1032.22,-197.506"/>
<polygon fill="midnightblue" stroke="midnightblue" points="910.682,-228.333 902.017,-234.428 912.592,-235.067 910.682,-228.333"/>
</g>
<!-- Node8 -->
<g id="node8" class="node"><title>Node8</title>
<g id="a_node8"><a xlink:href="cellcreator_8hpp.html" target="_top" xlink:title="/home/travis/build\l/OpenMW/openmw/apps\l/opencs/view/world/cellcreator.hpp">
<polygon fill="white" stroke="black" points="347.5,-78.5 347.5,-119.5 526.5,-119.5 526.5,-78.5 347.5,-78.5"/>
<text text-anchor="start" x="355.5" y="-107.5" font-family="FreeSans" font-size="10.00">/home/travis/build</text>
<text text-anchor="start" x="355.5" y="-96.5" font-family="FreeSans" font-size="10.00">/OpenMW/openmw/apps</text>
<text text-anchor="middle" x="437" y="-85.5" font-family="FreeSans" font-size="10.00">/opencs/view/world/cellcreator.hpp</text>
</a>
</g>
</g>
<!-- Node7&#45;&gt;Node8 -->
<g id="edge7" class="edge"><title>Node7&#45;&gt;Node8</title>
<path fill="none" stroke="midnightblue" d="M1203.66,-156.064C906.515,-121.877 827.028,-157.448 535,-120 532.244,-119.647 529.45,-119.259 526.633,-118.844"/>
<polygon fill="midnightblue" stroke="midnightblue" points="1203.53,-159.573 1213.87,-157.256 1204.34,-152.62 1203.53,-159.573"/>
</g>
<!-- Node10 -->
<g id="node10" class="node"><title>Node10</title>
<g id="a_node10"><a xlink:href="world_2subviews_8cpp.html" target="_top" xlink:title="/home/travis/build\l/OpenMW/openmw/apps\l/opencs/view/world/subviews.cpp">
<polygon fill="white" stroke="black" points="1097.5,-0.5 1097.5,-41.5 1268.5,-41.5 1268.5,-0.5 1097.5,-0.5"/>
<text text-anchor="start" x="1105.5" y="-29.5" font-family="FreeSans" font-size="10.00">/home/travis/build</text>
<text text-anchor="start" x="1105.5" y="-18.5" font-family="FreeSans" font-size="10.00">/OpenMW/openmw/apps</text>
<text text-anchor="middle" x="1183" y="-7.5" font-family="FreeSans" font-size="10.00">/opencs/view/world/subviews.cpp</text>
</a>
</g>
</g>
<!-- Node7&#45;&gt;Node10 -->
<g id="edge33" class="edge"><title>Node7&#45;&gt;Node10</title>
<path fill="none" stroke="midnightblue" d="M1241.04,-151.727C1226.22,-143.719 1212.08,-133.33 1202,-120 1184.75,-97.1927 1181.84,-63.0742 1181.96,-41.7"/>
<polygon fill="midnightblue" stroke="midnightblue" points="1239.82,-155.031 1250.32,-156.411 1242.97,-148.782 1239.82,-155.031"/>
</g>
<!-- Node11 -->
<g id="node11" class="node"><title>Node11</title>
<g id="a_node11"><a xlink:href="dialoguecreator_8hpp.html" target="_top" xlink:title="/home/travis/build\l/OpenMW/openmw/apps\l/opencs/view/world/dialoguecreator.hpp">
<polygon fill="white" stroke="black" points="544.5,-78.5 544.5,-119.5 747.5,-119.5 747.5,-78.5 544.5,-78.5"/>
<text text-anchor="start" x="552.5" y="-107.5" font-family="FreeSans" font-size="10.00">/home/travis/build</text>
<text text-anchor="start" x="552.5" y="-96.5" font-family="FreeSans" font-size="10.00">/OpenMW/openmw/apps</text>
<text text-anchor="middle" x="646" y="-85.5" font-family="FreeSans" font-size="10.00">/opencs/view/world/dialoguecreator.hpp</text>
</a>
</g>
</g>
<!-- Node7&#45;&gt;Node11 -->
<g id="edge10" class="edge"><title>Node7&#45;&gt;Node11</title>
<path fill="none" stroke="midnightblue" d="M1203.93,-156.076C1004.24,-130.445 950.875,-145.481 756,-120 753.209,-119.635 750.382,-119.247 747.531,-118.841"/>
<polygon fill="midnightblue" stroke="midnightblue" points="1203.49,-159.549 1213.86,-157.369 1204.39,-152.607 1203.49,-159.549"/>
</g>
<!-- Node13 -->
<g id="node13" class="node"><title>Node13</title>
<g id="a_node13"><a xlink:href="genericcreator_8cpp.html" target="_top" xlink:title="/home/travis/build\l/OpenMW/openmw/apps\l/opencs/view/world/genericcreator.cpp">
<polygon fill="white" stroke="black" points="2137.5,-78.5 2137.5,-119.5 2334.5,-119.5 2334.5,-78.5 2137.5,-78.5"/>
<text text-anchor="start" x="2145.5" y="-107.5" font-family="FreeSans" font-size="10.00">/home/travis/build</text>
<text text-anchor="start" x="2145.5" y="-96.5" font-family="FreeSans" font-size="10.00">/OpenMW/openmw/apps</text>
<text text-anchor="middle" x="2236" y="-85.5" font-family="FreeSans" font-size="10.00">/opencs/view/world/genericcreator.cpp</text>
</a>
</g>
</g>
<!-- Node7&#45;&gt;Node13 -->
<g id="edge13" class="edge"><title>Node7&#45;&gt;Node13</title>
<path fill="none" stroke="midnightblue" d="M1422.13,-172.404C1578.68,-166.358 1875.84,-151.579 2127,-120 2130.44,-119.568 2133.93,-119.098 2137.45,-118.597"/>
<polygon fill="midnightblue" stroke="midnightblue" points="1421.88,-168.911 1412.02,-172.789 1422.15,-175.906 1421.88,-168.911"/>
</g>
<!-- Node14 -->
<g id="node14" class="node"><title>Node14</title>
<g id="a_node14"><a xlink:href="globalcreator_8hpp.html" target="_top" xlink:title="/home/travis/build\l/OpenMW/openmw/apps\l/opencs/view/world/globalcreator.hpp">
<polygon fill="white" stroke="black" points="765.5,-78.5 765.5,-119.5 956.5,-119.5 956.5,-78.5 765.5,-78.5"/>
<text text-anchor="start" x="773.5" y="-107.5" font-family="FreeSans" font-size="10.00">/home/travis/build</text>
<text text-anchor="start" x="773.5" y="-96.5" font-family="FreeSans" font-size="10.00">/OpenMW/openmw/apps</text>
<text text-anchor="middle" x="861" y="-85.5" font-family="FreeSans" font-size="10.00">/opencs/view/world/globalcreator.hpp</text>
</a>
</g>
</g>
<!-- Node7&#45;&gt;Node14 -->
<g id="edge14" class="edge"><title>Node7&#45;&gt;Node14</title>
<path fill="none" stroke="midnightblue" d="M1203.9,-156.014C1096.83,-138.31 1068.36,-137.484 966,-120 962.89,-119.469 959.731,-118.92 956.541,-118.358"/>
<polygon fill="midnightblue" stroke="midnightblue" points="1203.37,-159.475 1213.81,-157.664 1204.52,-152.57 1203.37,-159.475"/>
</g>
<!-- Node16 -->
<g id="node16" class="node"><title>Node16</title>
<g id="a_node16"><a xlink:href="infocreator_8hpp.html" target="_top" xlink:title="/home/travis/build\l/OpenMW/openmw/apps\l/opencs/view/world/infocreator.hpp">
<polygon fill="white" stroke="black" points="975,-78.5 975,-119.5 1155,-119.5 1155,-78.5 975,-78.5"/>
<text text-anchor="start" x="983" y="-107.5" font-family="FreeSans" font-size="10.00">/home/travis/build</text>
<text text-anchor="start" x="983" y="-96.5" font-family="FreeSans" font-size="10.00">/OpenMW/openmw/apps</text>
<text text-anchor="middle" x="1065" y="-85.5" font-family="FreeSans" font-size="10.00">/opencs/view/world/infocreator.hpp</text>
</a>
</g>
</g>
<!-- Node7&#45;&gt;Node16 -->
<g id="edge17" class="edge"><title>Node7&#45;&gt;Node16</title>
<path fill="none" stroke="midnightblue" d="M1239.39,-153.442C1204.19,-142.655 1162.46,-129.867 1128.65,-119.506"/>
<polygon fill="midnightblue" stroke="midnightblue" points="1238.55,-156.844 1249.13,-156.428 1240.6,-150.152 1238.55,-156.844"/>
</g>
<!-- Node18 -->
<g id="node18" class="node"><title>Node18</title>
<g id="a_node18"><a xlink:href="pathgridcreator_8hpp.html" target="_top" xlink:title="/home/travis/build\l/OpenMW/openmw/apps\l/opencs/view/world/pathgridcreator.hpp">
<polygon fill="white" stroke="black" points="1211.5,-78.5 1211.5,-119.5 1414.5,-119.5 1414.5,-78.5 1211.5,-78.5"/>
<text text-anchor="start" x="1219.5" y="-107.5" font-family="FreeSans" font-size="10.00">/home/travis/build</text>
<text text-anchor="start" x="1219.5" y="-96.5" font-family="FreeSans" font-size="10.00">/OpenMW/openmw/apps</text>
<text text-anchor="middle" x="1313" y="-85.5" font-family="FreeSans" font-size="10.00">/opencs/view/world/pathgridcreator.hpp</text>
</a>
</g>
</g>
<!-- Node7&#45;&gt;Node18 -->
<g id="edge20" class="edge"><title>Node7&#45;&gt;Node18</title>
<path fill="none" stroke="midnightblue" d="M1313,-146.297C1313,-137.301 1313,-127.653 1313,-119.506"/>
<polygon fill="midnightblue" stroke="midnightblue" points="1309.5,-146.428 1313,-156.428 1316.5,-146.428 1309.5,-146.428"/>
</g>
<!-- Node20 -->
<g id="node20" class="node"><title>Node20</title>
<g id="a_node20"><a xlink:href="referenceablecreator_8hpp.html" target="_top" xlink:title="/home/travis/build\l/OpenMW/openmw/apps\l/opencs/view/world/referenceablecreator.hpp">
<polygon fill="white" stroke="black" points="1432.5,-78.5 1432.5,-119.5 1661.5,-119.5 1661.5,-78.5 1432.5,-78.5"/>
<text text-anchor="start" x="1440.5" y="-107.5" font-family="FreeSans" font-size="10.00">/home/travis/build</text>
<text text-anchor="start" x="1440.5" y="-96.5" font-family="FreeSans" font-size="10.00">/OpenMW/openmw/apps</text>
<text text-anchor="middle" x="1547" y="-85.5" font-family="FreeSans" font-size="10.00">/opencs/view/world/referenceablecreator.hpp</text>
</a>
</g>
</g>
<!-- Node7&#45;&gt;Node20 -->
<g id="edge23" class="edge"><title>Node7&#45;&gt;Node20</title>
<path fill="none" stroke="midnightblue" d="M1382.88,-153.304C1416,-142.546 1455.18,-129.823 1486.94,-119.506"/>
<polygon fill="midnightblue" stroke="midnightblue" points="1381.69,-150.01 1373.26,-156.428 1383.85,-156.668 1381.69,-150.01"/>
</g>
<!-- Node22 -->
<g id="node22" class="node"><title>Node22</title>
<g id="a_node22"><a xlink:href="referencecreator_8hpp.html" target="_top" xlink:title="/home/travis/build\l/OpenMW/openmw/apps\l/opencs/view/world/referencecreator.hpp">
<polygon fill="white" stroke="black" points="1679.5,-78.5 1679.5,-119.5 1888.5,-119.5 1888.5,-78.5 1679.5,-78.5"/>
<text text-anchor="start" x="1687.5" y="-107.5" font-family="FreeSans" font-size="10.00">/home/travis/build</text>
<text text-anchor="start" x="1687.5" y="-96.5" font-family="FreeSans" font-size="10.00">/OpenMW/openmw/apps</text>
<text text-anchor="middle" x="1784" y="-85.5" font-family="FreeSans" font-size="10.00">/opencs/view/world/referencecreator.hpp</text>
</a>
</g>
</g>
<!-- Node7&#45;&gt;Node22 -->
<g id="edge26" class="edge"><title>Node7&#45;&gt;Node22</title>
<path fill="none" stroke="midnightblue" d="M1422.59,-159.334C1493.26,-148.456 1587.12,-133.769 1670,-120 1673.07,-119.49 1676.19,-118.968 1679.34,-118.437"/>
<polygon fill="midnightblue" stroke="midnightblue" points="1421.69,-155.931 1412.34,-160.91 1422.75,-162.85 1421.69,-155.931"/>
</g>
<!-- Node24 -->
<g id="node24" class="node"><title>Node24</title>
<g id="a_node24"><a xlink:href="scriptsubview_8cpp.html" target="_top" xlink:title="/home/travis/build\l/OpenMW/openmw/apps\l/opencs/view/world/scriptsubview.cpp">
<polygon fill="white" stroke="black" points="2352.5,-78.5 2352.5,-119.5 2543.5,-119.5 2543.5,-78.5 2352.5,-78.5"/>
<text text-anchor="start" x="2360.5" y="-107.5" font-family="FreeSans" font-size="10.00">/home/travis/build</text>
<text text-anchor="start" x="2360.5" y="-96.5" font-family="FreeSans" font-size="10.00">/OpenMW/openmw/apps</text>
<text text-anchor="middle" x="2448" y="-85.5" font-family="FreeSans" font-size="10.00">/opencs/view/world/scriptsubview.cpp</text>
</a>
</g>
</g>
<!-- Node7&#45;&gt;Node24 -->
<g id="edge29" class="edge"><title>Node7&#45;&gt;Node24</title>
<path fill="none" stroke="midnightblue" d="M1422.29,-174.857C1610.84,-171.814 2009.16,-160.684 2343,-120 2346.04,-119.63 2349.12,-119.224 2352.23,-118.789"/>
<polygon fill="midnightblue" stroke="midnightblue" points="1422.04,-171.36 1412.1,-175.016 1422.15,-178.359 1422.04,-171.36"/>
</g>
<!-- Node25 -->
<g id="node25" class="node"><title>Node25</title>
<g id="a_node25"><a xlink:href="startscriptcreator_8hpp.html" target="_top" xlink:title="/home/travis/build\l/OpenMW/openmw/apps\l/opencs/view/world/startscriptcreator.hpp">
<polygon fill="white" stroke="black" points="1907,-78.5 1907,-119.5 2119,-119.5 2119,-78.5 1907,-78.5"/>
<text text-anchor="start" x="1915" y="-107.5" font-family="FreeSans" font-size="10.00">/home/travis/build</text>
<text text-anchor="start" x="1915" y="-96.5" font-family="FreeSans" font-size="10.00">/OpenMW/openmw/apps</text>
<text text-anchor="middle" x="2013" y="-85.5" font-family="FreeSans" font-size="10.00">/opencs/view/world/startscriptcreator.hpp</text>
</a>
</g>
</g>
<!-- Node7&#45;&gt;Node25 -->
<g id="edge30" class="edge"><title>Node7&#45;&gt;Node25</title>
<path fill="none" stroke="midnightblue" d="M1422.28,-167.987C1539.83,-158.793 1732.08,-142.092 1897,-120 1900.24,-119.566 1903.53,-119.108 1906.85,-118.631"/>
<polygon fill="midnightblue" stroke="midnightblue" points="1421.9,-164.506 1412.2,-168.772 1422.44,-171.485 1421.9,-164.506"/>
</g>
<!-- Node9 -->
<g id="node9" class="node"><title>Node9</title>
<g id="a_node9"><a xlink:href="cellcreator_8cpp.html" target="_top" xlink:title="/home/travis/build\l/OpenMW/openmw/apps\l/opencs/view/world/cellcreator.cpp">
<polygon fill="white" stroke="black" points="275,-0.5 275,-41.5 453,-41.5 453,-0.5 275,-0.5"/>
<text text-anchor="start" x="283" y="-29.5" font-family="FreeSans" font-size="10.00">/home/travis/build</text>
<text text-anchor="start" x="283" y="-18.5" font-family="FreeSans" font-size="10.00">/OpenMW/openmw/apps</text>
<text text-anchor="middle" x="364" y="-7.5" font-family="FreeSans" font-size="10.00">/opencs/view/world/cellcreator.cpp</text>
</a>
</g>
</g>
<!-- Node8&#45;&gt;Node9 -->
<g id="edge8" class="edge"><title>Node8&#45;&gt;Node9</title>
<path fill="none" stroke="midnightblue" d="M411.262,-71.204C401.86,-61.416 391.412,-50.5388 382.736,-41.5056"/>
<polygon fill="midnightblue" stroke="midnightblue" points="408.749,-73.6407 418.201,-78.4281 413.798,-68.7915 408.749,-73.6407"/>
</g>
<!-- Node8&#45;&gt;Node10 -->
<g id="edge9" class="edge"><title>Node8&#45;&gt;Node10</title>
<path fill="none" stroke="midnightblue" d="M536.89,-77.8425C780.925,-46.1119 847.321,-74.9975 1088,-42 1091.09,-41.5765 1094.23,-41.1097 1097.39,-40.6082"/>
<polygon fill="midnightblue" stroke="midnightblue" points="536.094,-74.4172 526.639,-79.1972 537.011,-81.3568 536.094,-74.4172"/>
</g>
<!-- Node11&#45;&gt;Node10 -->
<g id="edge12" class="edge"><title>Node11&#45;&gt;Node10</title>
<path fill="none" stroke="midnightblue" d="M757.838,-77.7898C904.671,-57.0816 944.715,-64.7932 1088,-42 1091.08,-41.5101 1094.21,-40.9866 1097.37,-40.4369"/>
<polygon fill="midnightblue" stroke="midnightblue" points="756.948,-74.3815 747.545,-79.263 757.94,-81.3108 756.948,-74.3815"/>
</g>
<!-- Node12 -->
<g id="node12" class="node"><title>Node12</title>
<g id="a_node12"><a xlink:href="dialoguecreator_8cpp.html" target="_top" xlink:title="/home/travis/build\l/OpenMW/openmw/apps\l/opencs/view/world/dialoguecreator.cpp">
<polygon fill="white" stroke="black" points="470.5,-0.5 470.5,-41.5 673.5,-41.5 673.5,-0.5 470.5,-0.5"/>
<text text-anchor="start" x="478.5" y="-29.5" font-family="FreeSans" font-size="10.00">/home/travis/build</text>
<text text-anchor="start" x="478.5" y="-18.5" font-family="FreeSans" font-size="10.00">/OpenMW/openmw/apps</text>
<text text-anchor="middle" x="572" y="-7.5" font-family="FreeSans" font-size="10.00">/opencs/view/world/dialoguecreator.cpp</text>
</a>
</g>
</g>
<!-- Node11&#45;&gt;Node12 -->
<g id="edge11" class="edge"><title>Node11&#45;&gt;Node12</title>
<path fill="none" stroke="midnightblue" d="M619.909,-71.204C610.379,-61.416 599.788,-50.5388 590.992,-41.5056"/>
<polygon fill="midnightblue" stroke="midnightblue" points="617.459,-73.705 626.943,-78.4281 622.475,-68.8217 617.459,-73.705"/>
</g>
<!-- Node14&#45;&gt;Node10 -->
<g id="edge16" class="edge"><title>Node14&#45;&gt;Node10</title>
<path fill="none" stroke="midnightblue" d="M953.946,-76.0624C1000.19,-65.1478 1055.61,-52.0664 1100.36,-41.5056"/>
<polygon fill="midnightblue" stroke="midnightblue" points="952.852,-72.7245 943.923,-78.4281 954.46,-79.5373 952.852,-72.7245"/>
</g>
<!-- Node15 -->
<g id="node15" class="node"><title>Node15</title>
<g id="a_node15"><a xlink:href="globalcreator_8cpp.html" target="_top" xlink:title="/home/travis/build\l/OpenMW/openmw/apps\l/opencs/view/world/globalcreator.cpp">
<polygon fill="white" stroke="black" points="691.5,-0.5 691.5,-41.5 882.5,-41.5 882.5,-0.5 691.5,-0.5"/>
<text text-anchor="start" x="699.5" y="-29.5" font-family="FreeSans" font-size="10.00">/home/travis/build</text>
<text text-anchor="start" x="699.5" y="-18.5" font-family="FreeSans" font-size="10.00">/OpenMW/openmw/apps</text>
<text text-anchor="middle" x="787" y="-7.5" font-family="FreeSans" font-size="10.00">/opencs/view/world/globalcreator.cpp</text>
</a>
</g>
</g>
<!-- Node14&#45;&gt;Node15 -->
<g id="edge15" class="edge"><title>Node14&#45;&gt;Node15</title>
<path fill="none" stroke="midnightblue" d="M834.909,-71.204C825.379,-61.416 814.788,-50.5388 805.992,-41.5056"/>
<polygon fill="midnightblue" stroke="midnightblue" points="832.459,-73.705 841.943,-78.4281 837.475,-68.8217 832.459,-73.705"/>
</g>
<!-- Node16&#45;&gt;Node10 -->
<g id="edge19" class="edge"><title>Node16&#45;&gt;Node10</title>
<path fill="none" stroke="midnightblue" d="M1103.94,-72.9194C1119.8,-62.702 1137.86,-51.0701 1152.72,-41.5056"/>
<polygon fill="midnightblue" stroke="midnightblue" points="1101.9,-70.0708 1095.39,-78.4281 1105.69,-75.9558 1101.9,-70.0708"/>
</g>
<!-- Node17 -->
<g id="node17" class="node"><title>Node17</title>
<g id="a_node17"><a xlink:href="infocreator_8cpp.html" target="_top" xlink:title="/home/travis/build\l/OpenMW/openmw/apps\l/opencs/view/world/infocreator.cpp">
<polygon fill="white" stroke="black" points="900.5,-0.5 900.5,-41.5 1079.5,-41.5 1079.5,-0.5 900.5,-0.5"/>
<text text-anchor="start" x="908.5" y="-29.5" font-family="FreeSans" font-size="10.00">/home/travis/build</text>
<text text-anchor="start" x="908.5" y="-18.5" font-family="FreeSans" font-size="10.00">/OpenMW/openmw/apps</text>
<text text-anchor="middle" x="990" y="-7.5" font-family="FreeSans" font-size="10.00">/opencs/view/world/infocreator.cpp</text>
</a>
</g>
</g>
<!-- Node16&#45;&gt;Node17 -->
<g id="edge18" class="edge"><title>Node16&#45;&gt;Node17</title>
<path fill="none" stroke="midnightblue" d="M1038.56,-71.204C1028.9,-61.416 1018.16,-50.5388 1009.25,-41.5056"/>
<polygon fill="midnightblue" stroke="midnightblue" points="1036.17,-73.7688 1045.69,-78.4281 1041.15,-68.8519 1036.17,-73.7688"/>
</g>
<!-- Node18&#45;&gt;Node10 -->
<g id="edge22" class="edge"><title>Node18&#45;&gt;Node10</title>
<path fill="none" stroke="midnightblue" d="M1270.58,-73.2029C1252.99,-62.9176 1232.88,-51.1587 1216.36,-41.5056"/>
<polygon fill="midnightblue" stroke="midnightblue" points="1269.12,-76.4026 1279.52,-78.4281 1272.66,-70.3596 1269.12,-76.4026"/>
</g>
<!-- Node19 -->
<g id="node19" class="node"><title>Node19</title>
<g id="a_node19"><a xlink:href="pathgridcreator_8cpp.html" target="_top" xlink:title="/home/travis/build\l/OpenMW/openmw/apps\l/opencs/view/world/pathgridcreator.cpp">
<polygon fill="white" stroke="black" points="1287,-0.5 1287,-41.5 1489,-41.5 1489,-0.5 1287,-0.5"/>
<text text-anchor="start" x="1295" y="-29.5" font-family="FreeSans" font-size="10.00">/home/travis/build</text>
<text text-anchor="start" x="1295" y="-18.5" font-family="FreeSans" font-size="10.00">/OpenMW/openmw/apps</text>
<text text-anchor="middle" x="1388" y="-7.5" font-family="FreeSans" font-size="10.00">/opencs/view/world/pathgridcreator.cpp</text>
</a>
</g>
</g>
<!-- Node18&#45;&gt;Node19 -->
<g id="edge21" class="edge"><title>Node18&#45;&gt;Node19</title>
<path fill="none" stroke="midnightblue" d="M1339.44,-71.204C1349.1,-61.416 1359.84,-50.5388 1368.75,-41.5056"/>
<polygon fill="midnightblue" stroke="midnightblue" points="1336.85,-68.8519 1332.31,-78.4281 1341.83,-73.7688 1336.85,-68.8519"/>
</g>
<!-- Node20&#45;&gt;Node10 -->
<g id="edge25" class="edge"><title>Node20&#45;&gt;Node10</title>
<path fill="none" stroke="midnightblue" d="M1443.16,-76.4394C1393.22,-66.0555 1332.5,-53.409 1278,-42 1274.95,-41.3611 1271.84,-40.71 1268.7,-40.052"/>
<polygon fill="midnightblue" stroke="midnightblue" points="1442.5,-79.8762 1453,-78.485 1443.92,-73.0227 1442.5,-79.8762"/>
</g>
<!-- Node21 -->
<g id="node21" class="node"><title>Node21</title>
<g id="a_node21"><a xlink:href="referenceablecreator_8cpp.html" target="_top" xlink:title="/home/travis/build\l/OpenMW/openmw/apps\l/opencs/view/world/referenceablecreator.cpp">
<polygon fill="white" stroke="black" points="1507,-0.5 1507,-41.5 1735,-41.5 1735,-0.5 1507,-0.5"/>
<text text-anchor="start" x="1515" y="-29.5" font-family="FreeSans" font-size="10.00">/home/travis/build</text>
<text text-anchor="start" x="1515" y="-18.5" font-family="FreeSans" font-size="10.00">/OpenMW/openmw/apps</text>
<text text-anchor="middle" x="1621" y="-7.5" font-family="FreeSans" font-size="10.00">/opencs/view/world/referenceablecreator.cpp</text>
</a>
</g>
</g>
<!-- Node20&#45;&gt;Node21 -->
<g id="edge24" class="edge"><title>Node20&#45;&gt;Node21</title>
<path fill="none" stroke="midnightblue" d="M1573.09,-71.204C1582.62,-61.416 1593.21,-50.5388 1602.01,-41.5056"/>
<polygon fill="midnightblue" stroke="midnightblue" points="1570.53,-68.8217 1566.06,-78.4281 1575.54,-73.705 1570.53,-68.8217"/>
</g>
<!-- Node22&#45;&gt;Node10 -->
<g id="edge28" class="edge"><title>Node22&#45;&gt;Node10</title>
<path fill="none" stroke="midnightblue" d="M1669.34,-77.9797C1494.85,-55.3408 1447.79,-67.5815 1278,-42 1274.92,-41.5355 1271.78,-41.0336 1268.62,-40.5023"/>
<polygon fill="midnightblue" stroke="midnightblue" points="1669.01,-81.4655 1679.38,-79.3016 1669.92,-74.5255 1669.01,-81.4655"/>
</g>
<!-- Node23 -->
<g id="node23" class="node"><title>Node23</title>
<g id="a_node23"><a xlink:href="referencecreator_8cpp.html" target="_top" xlink:title="/home/travis/build\l/OpenMW/openmw/apps\l/opencs/view/world/referencecreator.cpp">
<polygon fill="white" stroke="black" points="1753,-0.5 1753,-41.5 1961,-41.5 1961,-0.5 1753,-0.5"/>
<text text-anchor="start" x="1761" y="-29.5" font-family="FreeSans" font-size="10.00">/home/travis/build</text>
<text text-anchor="start" x="1761" y="-18.5" font-family="FreeSans" font-size="10.00">/OpenMW/openmw/apps</text>
<text text-anchor="middle" x="1857" y="-7.5" font-family="FreeSans" font-size="10.00">/opencs/view/world/referencecreator.cpp</text>
</a>
</g>
</g>
<!-- Node22&#45;&gt;Node23 -->
<g id="edge27" class="edge"><title>Node22&#45;&gt;Node23</title>
<path fill="none" stroke="midnightblue" d="M1809.74,-71.204C1819.14,-61.416 1829.59,-50.5388 1838.26,-41.5056"/>
<polygon fill="midnightblue" stroke="midnightblue" points="1807.2,-68.7915 1802.8,-78.4281 1812.25,-73.6407 1807.2,-68.7915"/>
</g>
<!-- Node25&#45;&gt;Node10 -->
<g id="edge32" class="edge"><title>Node25&#45;&gt;Node10</title>
<path fill="none" stroke="midnightblue" d="M1896.57,-78.0411C1621.44,-47.3088 1547.82,-78.0421 1278,-42 1274.91,-41.5871 1271.77,-41.1295 1268.6,-40.6357"/>
<polygon fill="midnightblue" stroke="midnightblue" points="1896.54,-81.5592 1906.87,-79.2089 1897.33,-74.6039 1896.54,-81.5592"/>
</g>
<!-- Node26 -->
<g id="node26" class="node"><title>Node26</title>
<g id="a_node26"><a xlink:href="startscriptcreator_8cpp.html" target="_top" xlink:title="/home/travis/build\l/OpenMW/openmw/apps\l/opencs/view/world/startscriptcreator.cpp">
<polygon fill="white" stroke="black" points="1979.5,-0.5 1979.5,-41.5 2190.5,-41.5 2190.5,-0.5 1979.5,-0.5"/>
<text text-anchor="start" x="1987.5" y="-29.5" font-family="FreeSans" font-size="10.00">/home/travis/build</text>
<text text-anchor="start" x="1987.5" y="-18.5" font-family="FreeSans" font-size="10.00">/OpenMW/openmw/apps</text>
<text text-anchor="middle" x="2085" y="-7.5" font-family="FreeSans" font-size="10.00">/opencs/view/world/startscriptcreator.cpp</text>
</a>
</g>
</g>
<!-- Node25&#45;&gt;Node26 -->
<g id="edge31" class="edge"><title>Node25&#45;&gt;Node26</title>
<path fill="none" stroke="midnightblue" d="M2038.66,-70.9158C2047.86,-61.2029 2058.05,-50.4502 2066.52,-41.5056"/>
<polygon fill="midnightblue" stroke="midnightblue" points="2035.88,-68.7614 2031.54,-78.4281 2040.96,-73.5757 2035.88,-68.7614"/>
</g>
</g>
</svg>
