<?xml version="1.0" encoding="UTF-8" standalone="no"?>
<!DOCTYPE svg PUBLIC "-//W3C//DTD SVG 1.1//EN"
 "http://www.w3.org/Graphics/SVG/1.1/DTD/svg11.dtd">
<!-- Generated by graphviz version 2.36.0 (20140111.2315)
 -->
<!-- Title: /home/travis/build/scrawl/openmw/components/sdlutil/sdlgraphicswindow.cpp Pages: 1 -->
<svg width="248pt" height="162pt"
 viewBox="0.00 0.00 248.00 162.00" xmlns="http://www.w3.org/2000/svg" xmlns:xlink="http://www.w3.org/1999/xlink">
<g id="graph0" class="graph" transform="scale(1 1) rotate(0) translate(4 158)">
<title>/home/travis/build/scrawl/openmw/components/sdlutil/sdlgraphicswindow.cpp</title>
<polygon fill="white" stroke="none" points="-4,4 -4,-158 244,-158 244,4 -4,4"/>
<!-- Node1 -->
<g id="node1" class="node"><title>Node1</title>
<polygon fill="#bfbfbf" stroke="black" points="4,-112.5 4,-153.5 162,-153.5 162,-112.5 4,-112.5"/>
<text text-anchor="start" x="12" y="-141.5" font-family="FreeSans" font-size="10.00">/home/travis/build</text>
<text text-anchor="start" x="12" y="-130.5" font-family="FreeSans" font-size="10.00">/scrawl/openmw/components</text>
<text text-anchor="middle" x="83" y="-119.5" font-family="FreeSans" font-size="10.00">/sdlutil/sdlgraphicswindow.cpp</text>
</g>
<!-- Node2 -->
<g id="node2" class="node"><title>Node2</title>
<g id="a_node2"><a xlink:href="sdlgraphicswindow_8hpp.html" target="_top" xlink:title="sdlgraphicswindow.hpp">
<polygon fill="white" stroke="black" points="66.5,-56.5 66.5,-75.5 191.5,-75.5 191.5,-56.5 66.5,-56.5"/>
<text text-anchor="middle" x="129" y="-63.5" font-family="FreeSans" font-size="10.00">sdlgraphicswindow.hpp</text>
</a>
</g>
</g>
<!-- Node1&#45;&gt;Node2 -->
<g id="edge1" class="edge"><title>Node1&#45;&gt;Node2</title>
<path fill="none" stroke="midnightblue" d="M96.8015,-112.498C103.244,-103.395 110.839,-92.6623 117.034,-83.9081"/>
<polygon fill="midnightblue" stroke="midnightblue" points="119.957,-85.8371 122.877,-75.6525 114.243,-81.7934 119.957,-85.8371"/>
</g>
<!-- Node3 -->
<g id="node3" class="node"><title>Node3</title>
<polygon fill="white" stroke="#bfbfbf" points="0,-0.5 0,-19.5 76,-19.5 76,-0.5 0,-0.5"/>
<text text-anchor="middle" x="38" y="-7.5" font-family="FreeSans" font-size="10.00">SDL_video.h</text>
</g>
<!-- Node1&#45;&gt;Node3 -->
<g id="edge4" class="edge"><title>Node1&#45;&gt;Node3</title>
<path fill="none" stroke="midnightblue" d="M72.9948,-112.354C67.822,-101.751 61.6387,-88.3414 57,-76 51.1831,-60.5239 46.0236,-42.4367 42.5545,-29.2769"/>
<polygon fill="midnightblue" stroke="midnightblue" points="45.934,-28.365 40.0608,-19.5471 39.1532,-30.103 45.934,-28.365"/>
</g>
<!-- Node2&#45;&gt;Node3 -->
<g id="edge2" class="edge"><title>Node2&#45;&gt;Node3</title>
<path fill="none" stroke="midnightblue" d="M114.379,-56.324C100.051,-47.8215 77.9875,-34.7288 61.2513,-24.7975"/>
<polygon fill="midnightblue" stroke="midnightblue" points="62.9704,-21.7478 52.5844,-19.6545 59.3982,-27.7677 62.9704,-21.7478"/>
</g>
<!-- Node4 -->
<g id="node4" class="node"><title>Node4</title>
<polygon fill="white" stroke="#bfbfbf" points="94,-0.5 94,-19.5 240,-19.5 240,-0.5 94,-0.5"/>
<text text-anchor="middle" x="167" y="-7.5" font-family="FreeSans" font-size="10.00">osgViewer/GraphicsWindow</text>
</g>
<!-- Node2&#45;&gt;Node4 -->
<g id="edge3" class="edge"><title>Node2&#45;&gt;Node4</title>
<path fill="none" stroke="midnightblue" d="M135.275,-56.083C140.642,-48.4554 148.518,-37.2645 155.079,-27.9408"/>
<polygon fill="midnightblue" stroke="midnightblue" points="157.949,-29.9434 160.842,-19.7511 152.225,-25.9149 157.949,-29.9434"/>
</g>
</g>
</svg>
