<?xml version="1.0" encoding="UTF-8" standalone="no"?>
<!DOCTYPE svg PUBLIC "-//W3C//DTD SVG 1.1//EN"
 "http://www.w3.org/Graphics/SVG/1.1/DTD/svg11.dtd">
<!-- Generated by graphviz version 2.36.0 (20140111.2315)
 -->
<!-- Title: /home/travis/build/OpenMW/openmw/apps/opencs/model/tools/searchoperation.hpp Pages: 1 -->
<svg width="615pt" height="128pt"
 viewBox="0.00 0.00 615.00 128.00" xmlns="http://www.w3.org/2000/svg" xmlns:xlink="http://www.w3.org/1999/xlink">
<g id="graph0" class="graph" transform="scale(1 1) rotate(0) translate(4 124)">
<title>/home/travis/build/OpenMW/openmw/apps/opencs/model/tools/searchoperation.hpp</title>
<polygon fill="white" stroke="none" points="-4,4 -4,-124 611,-124 611,4 -4,4"/>
<!-- Node1 -->
<g id="node1" class="node"><title>Node1</title>
<polygon fill="#bfbfbf" stroke="black" points="223.5,-78.5 223.5,-119.5 438.5,-119.5 438.5,-78.5 223.5,-78.5"/>
<text text-anchor="start" x="231.5" y="-107.5" font-family="FreeSans" font-size="10.00">/home/travis/build</text>
<text text-anchor="start" x="231.5" y="-96.5" font-family="FreeSans" font-size="10.00">/OpenMW/openmw/apps</text>
<text text-anchor="middle" x="331" y="-85.5" font-family="FreeSans" font-size="10.00">/opencs/model/tools/searchoperation.hpp</text>
</g>
<!-- Node2 -->
<g id="node2" class="node"><title>Node2</title>
<g id="a_node2"><a xlink:href="searchoperation_8cpp.html" target="_top" xlink:title="/home/travis/build\l/OpenMW/openmw/apps\l/opencs/model/tools/searchoperation.cpp">
<polygon fill="white" stroke="black" points="-0.5,-0.5 -0.5,-41.5 214.5,-41.5 214.5,-0.5 -0.5,-0.5"/>
<text text-anchor="start" x="7.5" y="-29.5" font-family="FreeSans" font-size="10.00">/home/travis/build</text>
<text text-anchor="start" x="7.5" y="-18.5" font-family="FreeSans" font-size="10.00">/OpenMW/openmw/apps</text>
<text text-anchor="middle" x="107" y="-7.5" font-family="FreeSans" font-size="10.00">/opencs/model/tools/searchoperation.cpp</text>
</a>
</g>
</g>
<!-- Node1&#45;&gt;Node2 -->
<g id="edge1" class="edge"><title>Node1&#45;&gt;Node2</title>
<path fill="none" stroke="midnightblue" d="M263.698,-75.1652C232.076,-64.4366 194.769,-51.7786 164.49,-41.5056"/>
<polygon fill="midnightblue" stroke="midnightblue" points="262.72,-78.5295 273.314,-78.4281 264.969,-71.9007 262.72,-78.5295"/>
</g>
<!-- Node3 -->
<g id="node3" class="node"><title>Node3</title>
<g id="a_node3"><a xlink:href="searchstage_8cpp.html" target="_top" xlink:title="/home/travis/build\l/OpenMW/openmw/apps\l/opencs/model/tools/searchstage.cpp">
<polygon fill="white" stroke="black" points="233,-0.5 233,-41.5 429,-41.5 429,-0.5 233,-0.5"/>
<text text-anchor="start" x="241" y="-29.5" font-family="FreeSans" font-size="10.00">/home/travis/build</text>
<text text-anchor="start" x="241" y="-18.5" font-family="FreeSans" font-size="10.00">/OpenMW/openmw/apps</text>
<text text-anchor="middle" x="331" y="-7.5" font-family="FreeSans" font-size="10.00">/opencs/model/tools/searchstage.cpp</text>
</a>
</g>
</g>
<!-- Node1&#45;&gt;Node3 -->
<g id="edge2" class="edge"><title>Node1&#45;&gt;Node3</title>
<path fill="none" stroke="midnightblue" d="M331,-68.2965C331,-59.3009 331,-49.6532 331,-41.5056"/>
<polygon fill="midnightblue" stroke="midnightblue" points="327.5,-68.4281 331,-78.4281 334.5,-68.4281 327.5,-68.4281"/>
</g>
<!-- Node4 -->
<g id="node4" class="node"><title>Node4</title>
<g id="a_node4"><a xlink:href="tools_8cpp.html" target="_top" xlink:title="/home/travis/build\l/OpenMW/openmw/apps\l/opencs/model/tools/tools.cpp">
<polygon fill="white" stroke="black" points="447,-0.5 447,-41.5 607,-41.5 607,-0.5 447,-0.5"/>
<text text-anchor="start" x="455" y="-29.5" font-family="FreeSans" font-size="10.00">/home/travis/build</text>
<text text-anchor="start" x="455" y="-18.5" font-family="FreeSans" font-size="10.00">/OpenMW/openmw/apps</text>
<text text-anchor="middle" x="527" y="-7.5" font-family="FreeSans" font-size="10.00">/opencs/model/tools/tools.cpp</text>
</a>
</g>
</g>
<!-- Node1&#45;&gt;Node4 -->
<g id="edge3" class="edge"><title>Node1&#45;&gt;Node4</title>
<path fill="none" stroke="midnightblue" d="M390.965,-74.7481C418.401,-64.1096 450.545,-51.6458 476.696,-41.5056"/>
<polygon fill="midnightblue" stroke="midnightblue" points="389.533,-71.5495 381.475,-78.4281 392.064,-78.076 389.533,-71.5495"/>
</g>
</g>
</svg>
