<?xml version="1.0" encoding="UTF-8" standalone="no"?>
<!DOCTYPE svg PUBLIC "-//W3C//DTD SVG 1.1//EN"
 "http://www.w3.org/Graphics/SVG/1.1/DTD/svg11.dtd">
<!-- Generated by graphviz version 2.36.0 (20140111.2315)
 -->
<!-- Title: /home/travis/build/elsid/openmw/apps/openmw/mwdialogue/selectwrapper.hpp Pages: 1 -->
<svg width="312pt" height="218pt"
 viewBox="0.00 0.00 312.00 218.00" xmlns="http://www.w3.org/2000/svg" xmlns:xlink="http://www.w3.org/1999/xlink">
<g id="graph0" class="graph" transform="scale(1 1) rotate(0) translate(4 214)">
<title>/home/travis/build/elsid/openmw/apps/openmw/mwdialogue/selectwrapper.hpp</title>
<polygon fill="white" stroke="none" points="-4,4 -4,-214 308,-214 308,4 -4,4"/>
<!-- Node1 -->
<g id="node1" class="node"><title>Node1</title>
<polygon fill="#bfbfbf" stroke="black" points="-0.5,-168.5 -0.5,-209.5 166.5,-209.5 166.5,-168.5 -0.5,-168.5"/>
<text text-anchor="start" x="7.5" y="-197.5" font-family="FreeSans" font-size="10.00">/home/travis/build</text>
<text text-anchor="start" x="7.5" y="-186.5" font-family="FreeSans" font-size="10.00">/elsid/openmw/apps/openmw</text>
<text text-anchor="middle" x="83" y="-175.5" font-family="FreeSans" font-size="10.00">/mwdialogue/selectwrapper.hpp</text>
</g>
<!-- Node2 -->
<g id="node2" class="node"><title>Node2</title>
<g id="a_node2"><a xlink:href="loadinfo_8hpp.html" target="_top" xlink:title="components/esm/loadinfo.hpp">
<polygon fill="white" stroke="black" points="2,-112.5 2,-131.5 164,-131.5 164,-112.5 2,-112.5"/>
<text text-anchor="middle" x="83" y="-119.5" font-family="FreeSans" font-size="10.00">components/esm/loadinfo.hpp</text>
</a>
</g>
</g>
<!-- Node1&#45;&gt;Node2 -->
<g id="edge1" class="edge"><title>Node1&#45;&gt;Node2</title>
<path fill="none" stroke="midnightblue" d="M83,-168.498C83,-160.065 83,-150.235 83,-141.874"/>
<polygon fill="midnightblue" stroke="midnightblue" points="86.5001,-141.652 83,-131.652 79.5001,-141.653 86.5001,-141.652"/>
</g>
<!-- Node3 -->
<g id="node3" class="node"><title>Node3</title>
<polygon fill="white" stroke="#bfbfbf" points="4,-0.5 4,-19.5 48,-19.5 48,-0.5 4,-0.5"/>
<text text-anchor="middle" x="26" y="-7.5" font-family="FreeSans" font-size="10.00">string</text>
</g>
<!-- Node2&#45;&gt;Node3 -->
<g id="edge2" class="edge"><title>Node2&#45;&gt;Node3</title>
<path fill="none" stroke="midnightblue" d="M57.839,-112.378C41.5807,-105.343 21.7073,-93.6453 12,-76 3.93036,-61.3315 9.49744,-42.4212 15.84,-28.7832"/>
<polygon fill="midnightblue" stroke="midnightblue" points="19.1365,-30.0288 20.6284,-19.5395 12.921,-26.809 19.1365,-30.0288"/>
</g>
<!-- Node4 -->
<g id="node4" class="node"><title>Node4</title>
<polygon fill="white" stroke="#bfbfbf" points="21.5,-56.5 21.5,-75.5 68.5,-75.5 68.5,-56.5 21.5,-56.5"/>
<text text-anchor="middle" x="45" y="-63.5" font-family="FreeSans" font-size="10.00">vector</text>
</g>
<!-- Node2&#45;&gt;Node4 -->
<g id="edge3" class="edge"><title>Node2&#45;&gt;Node4</title>
<path fill="none" stroke="midnightblue" d="M76.7251,-112.083C71.3575,-104.455 63.4824,-93.2645 56.9213,-83.9408"/>
<polygon fill="midnightblue" stroke="midnightblue" points="59.7755,-81.9149 51.1582,-75.7511 54.0508,-85.9434 59.7755,-81.9149"/>
</g>
<!-- Node5 -->
<g id="node5" class="node"><title>Node5</title>
<g id="a_node5"><a xlink:href="esm_2defs_8hpp.html" target="_top" xlink:title="defs.hpp">
<polygon fill="white" stroke="black" points="176,-56.5 176,-75.5 234,-75.5 234,-56.5 176,-56.5"/>
<text text-anchor="middle" x="205" y="-63.5" font-family="FreeSans" font-size="10.00">defs.hpp</text>
</a>
</g>
</g>
<!-- Node2&#45;&gt;Node5 -->
<g id="edge4" class="edge"><title>Node2&#45;&gt;Node5</title>
<path fill="none" stroke="midnightblue" d="M102.331,-112.444C122.32,-103.596 153.743,-89.6875 176.564,-79.5865"/>
<polygon fill="midnightblue" stroke="midnightblue" points="178.032,-82.7645 185.759,-75.5164 175.198,-76.3635 178.032,-82.7645"/>
</g>
<!-- Node8 -->
<g id="node8" class="node"><title>Node8</title>
<g id="a_node8"><a xlink:href="variant_8hpp.html" target="_top" xlink:title="variant.hpp">
<polygon fill="white" stroke="black" points="86.5,-56.5 86.5,-75.5 157.5,-75.5 157.5,-56.5 86.5,-56.5"/>
<text text-anchor="middle" x="122" y="-63.5" font-family="FreeSans" font-size="10.00">variant.hpp</text>
</a>
</g>
</g>
<!-- Node2&#45;&gt;Node8 -->
<g id="edge7" class="edge"><title>Node2&#45;&gt;Node8</title>
<path fill="none" stroke="midnightblue" d="M89.4401,-112.083C94.9489,-104.455 103.031,-93.2645 109.765,-83.9408"/>
<polygon fill="midnightblue" stroke="midnightblue" points="112.662,-85.9071 115.68,-75.7511 106.987,-81.8087 112.662,-85.9071"/>
</g>
<!-- Node6 -->
<g id="node6" class="node"><title>Node6</title>
<polygon fill="white" stroke="#bfbfbf" points="170.5,-0.5 170.5,-19.5 223.5,-19.5 223.5,-0.5 170.5,-0.5"/>
<text text-anchor="middle" x="197" y="-7.5" font-family="FreeSans" font-size="10.00">stdint.h</text>
</g>
<!-- Node5&#45;&gt;Node6 -->
<g id="edge5" class="edge"><title>Node5&#45;&gt;Node6</title>
<path fill="none" stroke="midnightblue" d="M203.679,-56.083C202.619,-48.9272 201.094,-38.6353 199.769,-29.6911"/>
<polygon fill="midnightblue" stroke="midnightblue" points="203.224,-29.1302 198.296,-19.7511 196.3,-30.1561 203.224,-29.1302"/>
</g>
<!-- Node7 -->
<g id="node7" class="node"><title>Node7</title>
<polygon fill="white" stroke="#bfbfbf" points="241.5,-0.5 241.5,-19.5 304.5,-19.5 304.5,-0.5 241.5,-0.5"/>
<text text-anchor="middle" x="273" y="-7.5" font-family="FreeSans" font-size="10.00">osg/Vec3f</text>
</g>
<!-- Node5&#45;&gt;Node7 -->
<g id="edge6" class="edge"><title>Node5&#45;&gt;Node7</title>
<path fill="none" stroke="midnightblue" d="M215.925,-56.324C226.175,-48.1849 241.721,-35.8395 254.001,-26.0874"/>
<polygon fill="midnightblue" stroke="midnightblue" points="256.221,-28.7937 261.876,-19.8339 251.868,-23.3119 256.221,-28.7937"/>
</g>
<!-- Node8&#45;&gt;Node3 -->
<g id="edge8" class="edge"><title>Node8&#45;&gt;Node3</title>
<path fill="none" stroke="midnightblue" d="M106.576,-56.324C91.4605,-47.8215 68.1846,-34.7288 50.5288,-24.7975"/>
<polygon fill="midnightblue" stroke="midnightblue" points="51.8175,-21.5066 41.3858,-19.6545 48.3856,-27.6077 51.8175,-21.5066"/>
</g>
<!-- Node9 -->
<g id="node9" class="node"><title>Node9</title>
<polygon fill="white" stroke="#bfbfbf" points="99,-0.5 99,-19.5 145,-19.5 145,-0.5 99,-0.5"/>
<text text-anchor="middle" x="122" y="-7.5" font-family="FreeSans" font-size="10.00">iosfwd</text>
</g>
<!-- Node8&#45;&gt;Node9 -->
<g id="edge9" class="edge"><title>Node8&#45;&gt;Node9</title>
<path fill="none" stroke="midnightblue" d="M122,-56.083C122,-49.0059 122,-38.8611 122,-29.9865"/>
<polygon fill="midnightblue" stroke="midnightblue" points="125.5,-29.751 122,-19.7511 118.5,-29.7511 125.5,-29.751"/>
</g>
</g>
</svg>
