<?xml version="1.0" encoding="UTF-8" standalone="no"?>
<!DOCTYPE svg PUBLIC "-//W3C//DTD SVG 1.1//EN"
 "http://www.w3.org/Graphics/SVG/1.1/DTD/svg11.dtd">
<!-- Generated by graphviz version 2.36.0 (20140111.2315)
 -->
<!-- Title: /home/travis/build/OpenMW/openmw/apps/openmw/mwgui/settingswindow.hpp Pages: 1 -->
<svg width="426pt" height="128pt"
 viewBox="0.00 0.00 426.00 128.00" xmlns="http://www.w3.org/2000/svg" xmlns:xlink="http://www.w3.org/1999/xlink">
<g id="graph0" class="graph" transform="scale(1 1) rotate(0) translate(4 124)">
<title>/home/travis/build/OpenMW/openmw/apps/openmw/mwgui/settingswindow.hpp</title>
<polygon fill="white" stroke="none" points="-4,4 -4,-124 422,-124 422,4 -4,4"/>
<!-- Node1 -->
<g id="node1" class="node"><title>Node1</title>
<polygon fill="#bfbfbf" stroke="black" points="108.5,-78.5 108.5,-119.5 297.5,-119.5 297.5,-78.5 108.5,-78.5"/>
<text text-anchor="start" x="116.5" y="-107.5" font-family="FreeSans" font-size="10.00">/home/travis/build</text>
<text text-anchor="start" x="116.5" y="-96.5" font-family="FreeSans" font-size="10.00">/OpenMW/openmw/apps</text>
<text text-anchor="middle" x="203" y="-85.5" font-family="FreeSans" font-size="10.00">/openmw/mwgui/settingswindow.hpp</text>
</g>
<!-- Node2 -->
<g id="node2" class="node"><title>Node2</title>
<g id="a_node2"><a xlink:href="settingswindow_8cpp.html" target="_top" xlink:title="/home/travis/build\l/OpenMW/openmw/apps\l/openmw/mwgui/settingswindow.cpp">
<polygon fill="white" stroke="black" points="0,-0.5 0,-41.5 188,-41.5 188,-0.5 0,-0.5"/>
<text text-anchor="start" x="8" y="-29.5" font-family="FreeSans" font-size="10.00">/home/travis/build</text>
<text text-anchor="start" x="8" y="-18.5" font-family="FreeSans" font-size="10.00">/OpenMW/openmw/apps</text>
<text text-anchor="middle" x="94" y="-7.5" font-family="FreeSans" font-size="10.00">/openmw/mwgui/settingswindow.cpp</text>
</a>
</g>
</g>
<!-- Node1&#45;&gt;Node2 -->
<g id="edge1" class="edge"><title>Node1&#45;&gt;Node2</title>
<path fill="none" stroke="midnightblue" d="M166.622,-72.6352C152.067,-62.4868 135.566,-50.9816 121.975,-41.5056"/>
<polygon fill="midnightblue" stroke="midnightblue" points="164.725,-75.5796 174.93,-78.4281 168.729,-69.8376 164.725,-75.5796"/>
</g>
<!-- Node3 -->
<g id="node3" class="node"><title>Node3</title>
<g id="a_node3"><a xlink:href="windowmanagerimp_8cpp.html" target="_top" xlink:title="/home/travis/build\l/OpenMW/openmw/apps\l/openmw/mwgui/windowmanagerimp.cpp">
<polygon fill="white" stroke="black" points="206,-0.5 206,-41.5 418,-41.5 418,-0.5 206,-0.5"/>
<text text-anchor="start" x="214" y="-29.5" font-family="FreeSans" font-size="10.00">/home/travis/build</text>
<text text-anchor="start" x="214" y="-18.5" font-family="FreeSans" font-size="10.00">/OpenMW/openmw/apps</text>
<text text-anchor="middle" x="312" y="-7.5" font-family="FreeSans" font-size="10.00">/openmw/mwgui/windowmanagerimp.cpp</text>
</a>
</g>
</g>
<!-- Node1&#45;&gt;Node3 -->
<g id="edge2" class="edge"><title>Node1&#45;&gt;Node3</title>
<path fill="none" stroke="midnightblue" d="M239.378,-72.6352C253.933,-62.4868 270.434,-50.9816 284.025,-41.5056"/>
<polygon fill="midnightblue" stroke="midnightblue" points="237.271,-69.8376 231.07,-78.4281 241.275,-75.5796 237.271,-69.8376"/>
</g>
</g>
</svg>
