<?xml version="1.0" encoding="UTF-8" standalone="no"?>
<!DOCTYPE svg PUBLIC "-//W3C//DTD SVG 1.1//EN"
 "http://www.w3.org/Graphics/SVG/1.1/DTD/svg11.dtd">
<!-- Generated by graphviz version 2.36.0 (20140111.2315)
 -->
<!-- Title: /home/scrawl/Dev/openmw/apps/openmw/mwgui/settingswindow.hpp Pages: 1 -->
<svg width="435pt" height="108pt"
 viewBox="0.00 0.00 435.00 108.00" xmlns="http://www.w3.org/2000/svg" xmlns:xlink="http://www.w3.org/1999/xlink">
<g id="graph0" class="graph" transform="scale(1 1) rotate(0) translate(4 104)">
<title>/home/scrawl/Dev/openmw/apps/openmw/mwgui/settingswindow.hpp</title>
<polygon fill="white" stroke="none" points="-4,4 -4,-104 431,-104 431,4 -4,4"/>
<!-- Node1 -->
<g id="node1" class="node"><title>Node1</title>
<polygon fill="#bfbfbf" stroke="black" points="110.5,-69 110.5,-99 305.5,-99 305.5,-69 110.5,-69"/>
<text text-anchor="start" x="118.5" y="-87" font-family="FreeSans" font-size="10.00">/home/scrawl/Dev/openmw</text>
<text text-anchor="middle" x="208" y="-76" font-family="FreeSans" font-size="10.00">/apps/openmw/mwgui/settingswindow.hpp</text>
</g>
<!-- Node2 -->
<g id="node2" class="node"><title>Node2</title>
<g id="a_node2"><a xlink:href="settingswindow_8cpp.html" target="_top" xlink:title="/home/scrawl/Dev/openmw\l/apps/openmw/mwgui/settingswindow.cpp">
<polygon fill="white" stroke="black" points="-0.5,-1 -0.5,-31 194.5,-31 194.5,-1 -0.5,-1"/>
<text text-anchor="start" x="7.5" y="-19" font-family="FreeSans" font-size="10.00">/home/scrawl/Dev/openmw</text>
<text text-anchor="middle" x="97" y="-8" font-family="FreeSans" font-size="10.00">/apps/openmw/mwgui/settingswindow.cpp</text>
</a>
</g>
</g>
<!-- Node1&#45;&gt;Node2 -->
<g id="edge1" class="edge"><title>Node1&#45;&gt;Node2</title>
<path fill="none" stroke="midnightblue" d="M175.417,-63.6261C157.91,-53.2166 136.713,-40.6129 120.773,-31.1352"/>
<polygon fill="midnightblue" stroke="midnightblue" points="173.804,-66.7389 184.188,-68.8413 177.381,-60.7222 173.804,-66.7389"/>
</g>
<!-- Node3 -->
<g id="node3" class="node"><title>Node3</title>
<g id="a_node3"><a xlink:href="windowmanagerimp_8cpp.html" target="_top" xlink:title="/home/scrawl/Dev/openmw\l/apps/openmw/mwgui/windowmanagerimp.cpp">
<polygon fill="white" stroke="black" points="212.5,-1 212.5,-31 427.5,-31 427.5,-1 212.5,-1"/>
<text text-anchor="start" x="220.5" y="-19" font-family="FreeSans" font-size="10.00">/home/scrawl/Dev/openmw</text>
<text text-anchor="middle" x="320" y="-8" font-family="FreeSans" font-size="10.00">/apps/openmw/mwgui/windowmanagerimp.cpp</text>
</a>
</g>
</g>
<!-- Node1&#45;&gt;Node3 -->
<g id="edge2" class="edge"><title>Node1&#45;&gt;Node3</title>
<path fill="none" stroke="midnightblue" d="M240.877,-63.6261C258.542,-53.2166 279.93,-40.6129 296.013,-31.1352"/>
<polygon fill="midnightblue" stroke="midnightblue" points="238.865,-60.749 232.027,-68.8413 242.419,-66.7798 238.865,-60.749"/>
</g>
</g>
</svg>
