<?xml version="1.0" encoding="UTF-8" standalone="no"?>
<!DOCTYPE svg PUBLIC "-//W3C//DTD SVG 1.1//EN"
 "http://www.w3.org/Graphics/SVG/1.1/DTD/svg11.dtd">
<!-- Generated by graphviz version 2.36.0 (20140111.2315)
 -->
<!-- Title: /home/scrawl/Dev/openmw/apps/opencs/model/prefs/shortcuteventhandler.hpp Pages: 1 -->
<svg width="174pt" height="106pt"
 viewBox="0.00 0.00 174.00 106.00" xmlns="http://www.w3.org/2000/svg" xmlns:xlink="http://www.w3.org/1999/xlink">
<g id="graph0" class="graph" transform="scale(1 1) rotate(0) translate(4 102)">
<title>/home/scrawl/Dev/openmw/apps/opencs/model/prefs/shortcuteventhandler.hpp</title>
<polygon fill="white" stroke="none" points="-4,4 -4,-102 170,-102 170,4 -4,4"/>
<!-- Node1 -->
<g id="node1" class="node"><title>Node1</title>
<polygon fill="#bfbfbf" stroke="black" points="8,-56.5 8,-97.5 140,-97.5 140,-56.5 8,-56.5"/>
<text text-anchor="start" x="16" y="-85.5" font-family="FreeSans" font-size="10.00">/home/scrawl/Dev/openmw</text>
<text text-anchor="start" x="16" y="-74.5" font-family="FreeSans" font-size="10.00">/apps/opencs/model/prefs</text>
<text text-anchor="middle" x="74" y="-63.5" font-family="FreeSans" font-size="10.00">/shortcuteventhandler.hpp</text>
</g>
<!-- Node2 -->
<g id="node2" class="node"><title>Node2</title>
<polygon fill="white" stroke="#bfbfbf" points="-0.5,-0.5 -0.5,-19.5 34.5,-19.5 34.5,-0.5 -0.5,-0.5"/>
<text text-anchor="middle" x="17" y="-7.5" font-family="FreeSans" font-size="10.00">map</text>
</g>
<!-- Node1&#45;&gt;Node2 -->
<g id="edge1" class="edge"><title>Node1&#45;&gt;Node2</title>
<path fill="none" stroke="midnightblue" d="M56.8981,-56.4979C48.7472,-47.2029 39.107,-36.2097 31.3446,-27.3579"/>
<polygon fill="midnightblue" stroke="midnightblue" points="33.8124,-24.8635 24.5876,-19.6525 28.5493,-29.4788 33.8124,-24.8635"/>
</g>
<!-- Node3 -->
<g id="node3" class="node"><title>Node3</title>
<polygon fill="white" stroke="#bfbfbf" points="52.5,-0.5 52.5,-19.5 95.5,-19.5 95.5,-0.5 52.5,-0.5"/>
<text text-anchor="middle" x="74" y="-7.5" font-family="FreeSans" font-size="10.00">vector</text>
</g>
<!-- Node1&#45;&gt;Node3 -->
<g id="edge2" class="edge"><title>Node1&#45;&gt;Node3</title>
<path fill="none" stroke="midnightblue" d="M74,-56.4979C74,-48.0653 74,-38.2351 74,-29.874"/>
<polygon fill="midnightblue" stroke="midnightblue" points="77.5001,-29.6525 74,-19.6525 70.5001,-29.6525 77.5001,-29.6525"/>
</g>
<!-- Node4 -->
<g id="node4" class="node"><title>Node4</title>
<polygon fill="white" stroke="#bfbfbf" points="113.5,-0.5 113.5,-19.5 166.5,-19.5 166.5,-0.5 113.5,-0.5"/>
<text text-anchor="middle" x="140" y="-7.5" font-family="FreeSans" font-size="10.00">QObject</text>
</g>
<!-- Node1&#45;&gt;Node4 -->
<g id="edge3" class="edge"><title>Node1&#45;&gt;Node4</title>
<path fill="none" stroke="midnightblue" d="M93.8022,-56.4979C103.435,-47.0113 114.863,-35.7557 123.944,-26.8131"/>
<polygon fill="midnightblue" stroke="midnightblue" points="126.545,-29.1631 131.214,-19.6525 121.634,-24.1757 126.545,-29.1631"/>
</g>
</g>
</svg>
