<?xml version="1.0" encoding="UTF-8" standalone="no"?>
<!DOCTYPE svg PUBLIC "-//W3C//DTD SVG 1.1//EN"
 "http://www.w3.org/Graphics/SVG/1.1/DTD/svg11.dtd">
<!-- Generated by graphviz version 2.36.0 (20140111.2315)
 -->
<!-- Title: /home/scrawl/Dev/openmw/apps/opencs/model/tools/spellcheck.cpp Pages: 1 -->
<svg width="1564pt" height="510pt"
 viewBox="0.00 0.00 1564.00 510.00" xmlns="http://www.w3.org/2000/svg" xmlns:xlink="http://www.w3.org/1999/xlink">
<g id="graph0" class="graph" transform="scale(1 1) rotate(0) translate(4 506)">
<title>/home/scrawl/Dev/openmw/apps/opencs/model/tools/spellcheck.cpp</title>
<polygon fill="white" stroke="none" points="-4,4 -4,-506 1560,-506 1560,4 -4,4"/>
<!-- Node1 -->
<g id="node1" class="node"><title>Node1</title>
<polygon fill="#bfbfbf" stroke="black" points="588,-460.5 588,-501.5 720,-501.5 720,-460.5 588,-460.5"/>
<text text-anchor="start" x="596" y="-489.5" font-family="FreeSans" font-size="10.00">/home/scrawl/Dev/openmw</text>
<text text-anchor="start" x="596" y="-478.5" font-family="FreeSans" font-size="10.00">/apps/opencs/model/tools</text>
<text text-anchor="middle" x="654" y="-467.5" font-family="FreeSans" font-size="10.00">/spellcheck.cpp</text>
</g>
<!-- Node2 -->
<g id="node2" class="node"><title>Node2</title>
<g id="a_node2"><a xlink:href="spellcheck_8hpp.html" target="_top" xlink:title="spellcheck.hpp">
<polygon fill="white" stroke="black" points="614,-404.5 614,-423.5 694,-423.5 694,-404.5 614,-404.5"/>
<text text-anchor="middle" x="654" y="-411.5" font-family="FreeSans" font-size="10.00">spellcheck.hpp</text>
</a>
</g>
</g>
<!-- Node1&#45;&gt;Node2 -->
<g id="edge1" class="edge"><title>Node1&#45;&gt;Node2</title>
<path fill="none" stroke="midnightblue" d="M654,-460.498C654,-452.065 654,-442.235 654,-433.874"/>
<polygon fill="midnightblue" stroke="midnightblue" points="657.5,-433.652 654,-423.652 650.5,-433.653 657.5,-433.652"/>
</g>
<!-- Node3 -->
<g id="node3" class="node"><title>Node3</title>
<g id="a_node3"><a xlink:href="loadspel_8hpp.html" target="_top" xlink:title="components/esm/loadspel.hpp">
<polygon fill="white" stroke="black" points="513,-348.5 513,-367.5 659,-367.5 659,-348.5 513,-348.5"/>
<text text-anchor="middle" x="586" y="-355.5" font-family="FreeSans" font-size="10.00">components/esm/loadspel.hpp</text>
</a>
</g>
</g>
<!-- Node1&#45;&gt;Node3 -->
<g id="edge72" class="edge"><title>Node1&#45;&gt;Node3</title>
<path fill="none" stroke="midnightblue" d="M633.025,-460.377C623.313,-450.308 612.33,-437.366 605,-424 597.05,-409.504 592.101,-391.32 589.255,-377.874"/>
<polygon fill="midnightblue" stroke="midnightblue" points="592.659,-377.041 587.339,-367.879 585.784,-378.359 592.659,-377.041"/>
</g>
<!-- Node12 -->
<g id="node12" class="node"><title>Node12</title>
<polygon fill="white" stroke="#bfbfbf" points="1506,-180.5 1506,-199.5 1556,-199.5 1556,-180.5 1506,-180.5"/>
<text text-anchor="middle" x="1531" y="-187.5" font-family="FreeSans" font-size="10.00">sstream</text>
</g>
<!-- Node1&#45;&gt;Node12 -->
<g id="edge70" class="edge"><title>Node1&#45;&gt;Node12</title>
<path fill="none" stroke="midnightblue" d="M720.097,-476.345C904.302,-465.282 1410,-428.576 1410,-359 1410,-359 1410,-359 1410,-301 1410,-252.992 1462.8,-220.411 1498.64,-203.824"/>
<polygon fill="midnightblue" stroke="midnightblue" points="1500.52,-206.821 1508.24,-199.57 1497.68,-200.421 1500.52,-206.821"/>
</g>
<!-- Node24 -->
<g id="node24" class="node"><title>Node24</title>
<polygon fill="white" stroke="#bfbfbf" points="936.5,-236.5 936.5,-255.5 971.5,-255.5 971.5,-236.5 936.5,-236.5"/>
<text text-anchor="middle" x="954" y="-243.5" font-family="FreeSans" font-size="10.00">map</text>
</g>
<!-- Node1&#45;&gt;Node24 -->
<g id="edge71" class="edge"><title>Node1&#45;&gt;Node24</title>
<path fill="none" stroke="midnightblue" d="M680.132,-460.314C709.609,-438.056 758.929,-400.659 801,-368 849.729,-330.173 906.576,-284.915 935.317,-261.953"/>
<polygon fill="midnightblue" stroke="midnightblue" points="937.669,-264.554 943.294,-255.576 933.297,-259.086 937.669,-264.554"/>
</g>
<!-- Node32 -->
<g id="node32" class="node"><title>Node32</title>
<g id="a_node32"><a xlink:href="universalid_8hpp.html" target="_top" xlink:title="universalid.hpp">
<polygon fill="white" stroke="black" points="26,-118.5 26,-137.5 106,-137.5 106,-118.5 26,-118.5"/>
<text text-anchor="middle" x="66" y="-125.5" font-family="FreeSans" font-size="10.00">universalid.hpp</text>
</a>
</g>
</g>
<!-- Node1&#45;&gt;Node32 -->
<g id="edge73" class="edge"><title>Node1&#45;&gt;Node32</title>
<path fill="none" stroke="midnightblue" d="M587.995,-474.683C421.939,-460.426 0,-418.358 0,-359 0,-359 0,-359 0,-245 0,-204.908 30.1518,-166.019 49.696,-145.022"/>
<polygon fill="midnightblue" stroke="midnightblue" points="52.3917,-147.269 56.823,-137.645 47.3575,-142.405 52.3917,-147.269"/>
</g>
<!-- Node2&#45;&gt;Node3 -->
<g id="edge2" class="edge"><title>Node2&#45;&gt;Node3</title>
<path fill="none" stroke="midnightblue" d="M643.075,-404.324C632.825,-396.185 617.279,-383.839 604.999,-374.087"/>
<polygon fill="midnightblue" stroke="midnightblue" points="607.132,-371.312 597.124,-367.834 602.779,-376.794 607.132,-371.312"/>
</g>
<!-- Node7 -->
<g id="node7" class="node"><title>Node7</title>
<g id="a_node7"><a xlink:href="idcollection_8hpp.html" target="_top" xlink:title="../world/idcollection.hpp">
<polygon fill="white" stroke="black" points="677,-348.5 677,-367.5 793,-367.5 793,-348.5 677,-348.5"/>
<text text-anchor="middle" x="735" y="-355.5" font-family="FreeSans" font-size="10.00">../world/idcollection.hpp</text>
</a>
</g>
</g>
<!-- Node2&#45;&gt;Node7 -->
<g id="edge6" class="edge"><title>Node2&#45;&gt;Node7</title>
<path fill="none" stroke="midnightblue" d="M667.014,-404.324C679.532,-395.979 698.682,-383.212 713.471,-373.352"/>
<polygon fill="midnightblue" stroke="midnightblue" points="715.639,-376.114 722.018,-367.655 711.756,-370.289 715.639,-376.114"/>
</g>
<!-- Node36 -->
<g id="node36" class="node"><title>Node36</title>
<g id="a_node36"><a xlink:href="stage_8hpp.html" target="_top" xlink:title="../doc/stage.hpp">
<polygon fill="white" stroke="black" points="136,-236.5 136,-255.5 220,-255.5 220,-236.5 136,-236.5"/>
<text text-anchor="middle" x="178" y="-243.5" font-family="FreeSans" font-size="10.00">../doc/stage.hpp</text>
</a>
</g>
</g>
<!-- Node2&#45;&gt;Node36 -->
<g id="edge61" class="edge"><title>Node2&#45;&gt;Node36</title>
<path fill="none" stroke="midnightblue" d="M613.882,-411.431C535.357,-406.706 358.2,-387.776 234,-312 214.599,-300.163 198.432,-279.346 188.535,-264.459"/>
<polygon fill="midnightblue" stroke="midnightblue" points="191.28,-262.252 182.966,-255.685 185.37,-266.004 191.28,-262.252"/>
</g>
<!-- Node4 -->
<g id="node4" class="node"><title>Node4</title>
<polygon fill="white" stroke="#bfbfbf" points="276,-56.5 276,-75.5 316,-75.5 316,-56.5 276,-56.5"/>
<text text-anchor="middle" x="296" y="-63.5" font-family="FreeSans" font-size="10.00">string</text>
</g>
<!-- Node3&#45;&gt;Node4 -->
<g id="edge3" class="edge"><title>Node3&#45;&gt;Node4</title>
<path fill="none" stroke="midnightblue" d="M515.144,-348.473C416.032,-334.535 248,-302.693 248,-247 248,-247 248,-247 248,-189 248,-149.368 270.207,-107.207 284.411,-84.2933"/>
<polygon fill="midnightblue" stroke="midnightblue" points="287.462,-86.0204 289.921,-75.7149 281.572,-82.2375 287.462,-86.0204"/>
</g>
<!-- Node5 -->
<g id="node5" class="node"><title>Node5</title>
<g id="a_node5"><a xlink:href="effectlist_8hpp.html" target="_top" xlink:title="effectlist.hpp">
<polygon fill="white" stroke="black" points="779,-292.5 779,-311.5 849,-311.5 849,-292.5 779,-292.5"/>
<text text-anchor="middle" x="814" y="-299.5" font-family="FreeSans" font-size="10.00">effectlist.hpp</text>
</a>
</g>
</g>
<!-- Node3&#45;&gt;Node5 -->
<g id="edge4" class="edge"><title>Node3&#45;&gt;Node5</title>
<path fill="none" stroke="midnightblue" d="M622.127,-348.444C661.884,-339.028 725.844,-323.879 768.87,-313.689"/>
<polygon fill="midnightblue" stroke="midnightblue" points="769.867,-317.05 778.791,-311.339 768.253,-310.238 769.867,-317.05"/>
</g>
<!-- Node6 -->
<g id="node6" class="node"><title>Node6</title>
<polygon fill="white" stroke="#bfbfbf" points="634.5,-56.5 634.5,-75.5 677.5,-75.5 677.5,-56.5 634.5,-56.5"/>
<text text-anchor="middle" x="656" y="-63.5" font-family="FreeSans" font-size="10.00">vector</text>
</g>
<!-- Node5&#45;&gt;Node6 -->
<g id="edge5" class="edge"><title>Node5&#45;&gt;Node6</title>
<path fill="none" stroke="midnightblue" d="M818.728,-292.316C833.854,-263.238 877.584,-167.974 834,-112 816.195,-89.1342 733.879,-76.0479 687.679,-70.3848"/>
<polygon fill="midnightblue" stroke="midnightblue" points="687.928,-66.89 677.587,-69.1954 687.109,-73.8419 687.928,-66.89"/>
</g>
<!-- Node8 -->
<g id="node8" class="node"><title>Node8</title>
<g id="a_node8"><a xlink:href="esmreader_8hpp.html" target="_top" xlink:title="components/esm/esmreader.hpp">
<polygon fill="white" stroke="black" points="1103,-236.5 1103,-255.5 1259,-255.5 1259,-236.5 1103,-236.5"/>
<text text-anchor="middle" x="1181" y="-243.5" font-family="FreeSans" font-size="10.00">components/esm/esmreader.hpp</text>
</a>
</g>
</g>
<!-- Node7&#45;&gt;Node8 -->
<g id="edge7" class="edge"><title>Node7&#45;&gt;Node8</title>
<path fill="none" stroke="midnightblue" d="M769.626,-348.46C849.736,-328.702 1047.78,-279.857 1136.62,-257.945"/>
<polygon fill="midnightblue" stroke="midnightblue" points="1137.53,-261.327 1146.4,-255.535 1135.85,-254.531 1137.53,-261.327"/>
</g>
<!-- Node23 -->
<g id="node23" class="node"><title>Node23</title>
<g id="a_node23"><a xlink:href="collection_8hpp.html" target="_top" xlink:title="collection.hpp">
<polygon fill="white" stroke="black" points="652,-292.5 652,-311.5 728,-311.5 728,-292.5 652,-292.5"/>
<text text-anchor="middle" x="690" y="-299.5" font-family="FreeSans" font-size="10.00">collection.hpp</text>
</a>
</g>
</g>
<!-- Node7&#45;&gt;Node23 -->
<g id="edge32" class="edge"><title>Node7&#45;&gt;Node23</title>
<path fill="none" stroke="midnightblue" d="M727.569,-348.083C721.147,-340.377 711.694,-329.033 703.878,-319.653"/>
<polygon fill="midnightblue" stroke="midnightblue" points="706.383,-317.193 697.293,-311.751 701.006,-321.674 706.383,-317.193"/>
</g>
<!-- Node8&#45;&gt;Node6 -->
<g id="edge11" class="edge"><title>Node8&#45;&gt;Node6</title>
<path fill="none" stroke="midnightblue" d="M1118.7,-236.486C1081.97,-229.851 1035.33,-218.553 997,-200 939.703,-172.269 941.906,-138.435 884,-112 818.42,-82.0618 733.316,-71.9933 687.888,-68.6423"/>
<polygon fill="midnightblue" stroke="midnightblue" points="687.971,-65.14 677.758,-67.9591 687.5,-72.1241 687.971,-65.14"/>
</g>
<!-- Node9 -->
<g id="node9" class="node"><title>Node9</title>
<polygon fill="white" stroke="#bfbfbf" points="1354.5,-56.5 1354.5,-75.5 1401.5,-75.5 1401.5,-56.5 1354.5,-56.5"/>
<text text-anchor="middle" x="1378" y="-63.5" font-family="FreeSans" font-size="10.00">stdint.h</text>
</g>
<!-- Node8&#45;&gt;Node9 -->
<g id="edge8" class="edge"><title>Node8&#45;&gt;Node9</title>
<path fill="none" stroke="midnightblue" d="M1258.27,-236.497C1311.34,-229.267 1375.88,-217.281 1397,-200 1428.38,-174.331 1436.09,-149.628 1421,-112 1416.32,-100.328 1407.01,-89.9687 1398.24,-82.1405"/>
<polygon fill="midnightblue" stroke="midnightblue" points="1400.42,-79.4011 1390.5,-75.698 1395.95,-84.7832 1400.42,-79.4011"/>
</g>
<!-- Node10 -->
<g id="node10" class="node"><title>Node10</title>
<polygon fill="white" stroke="#bfbfbf" points="1442.5,-56.5 1442.5,-75.5 1489.5,-75.5 1489.5,-56.5 1442.5,-56.5"/>
<text text-anchor="middle" x="1466" y="-63.5" font-family="FreeSans" font-size="10.00">string.h</text>
</g>
<!-- Node8&#45;&gt;Node10 -->
<g id="edge9" class="edge"><title>Node8&#45;&gt;Node10</title>
<path fill="none" stroke="midnightblue" d="M1259.23,-238.839C1319.76,-232.552 1397.15,-220.705 1421,-200 1454.8,-170.656 1463.26,-114.98 1465.35,-85.8442"/>
<polygon fill="midnightblue" stroke="midnightblue" points="1468.85,-85.9404 1465.89,-75.7682 1461.86,-85.5677 1468.85,-85.9404"/>
</g>
<!-- Node11 -->
<g id="node11" class="node"><title>Node11</title>
<polygon fill="white" stroke="#bfbfbf" points="1015.5,-180.5 1015.5,-199.5 1062.5,-199.5 1062.5,-180.5 1015.5,-180.5"/>
<text text-anchor="middle" x="1039" y="-187.5" font-family="FreeSans" font-size="10.00">cassert</text>
</g>
<!-- Node8&#45;&gt;Node11 -->
<g id="edge10" class="edge"><title>Node8&#45;&gt;Node11</title>
<path fill="none" stroke="midnightblue" d="M1158.5,-236.444C1134.92,-227.478 1097.68,-213.314 1071.04,-203.183"/>
<polygon fill="midnightblue" stroke="midnightblue" points="1071.99,-199.8 1061.4,-199.516 1069.5,-206.342 1071.99,-199.8"/>
</g>
<!-- Node8&#45;&gt;Node12 -->
<g id="edge12" class="edge"><title>Node8&#45;&gt;Node12</title>
<path fill="none" stroke="midnightblue" d="M1251.68,-236.474C1314.9,-228.445 1409.96,-215.374 1492,-200 1493.27,-199.762 1494.56,-199.512 1495.86,-199.252"/>
<polygon fill="midnightblue" stroke="midnightblue" points="1496.84,-202.622 1505.89,-197.118 1495.38,-195.775 1496.84,-202.622"/>
</g>
<!-- Node13 -->
<g id="node13" class="node"><title>Node13</title>
<g id="a_node13"><a xlink:href="constrainedfilestream_8hpp.html" target="_top" xlink:title="components/files/constrainedfilestream.hpp">
<polygon fill="white" stroke="black" points="1081,-180.5 1081,-199.5 1281,-199.5 1281,-180.5 1081,-180.5"/>
<text text-anchor="middle" x="1181" y="-187.5" font-family="FreeSans" font-size="10.00">components/files/constrainedfilestream.hpp</text>
</a>
</g>
</g>
<!-- Node8&#45;&gt;Node13 -->
<g id="edge13" class="edge"><title>Node8&#45;&gt;Node13</title>
<path fill="none" stroke="midnightblue" d="M1181,-236.083C1181,-229.006 1181,-218.861 1181,-209.986"/>
<polygon fill="midnightblue" stroke="midnightblue" points="1184.5,-209.751 1181,-199.751 1177.5,-209.751 1184.5,-209.751"/>
</g>
<!-- Node16 -->
<g id="node16" class="node"><title>Node16</title>
<g id="a_node16"><a xlink:href="stringops_8hpp.html" target="_top" xlink:title="components/misc/stringops.hpp">
<polygon fill="white" stroke="black" points="614,-180.5 614,-199.5 766,-199.5 766,-180.5 614,-180.5"/>
<text text-anchor="middle" x="690" y="-187.5" font-family="FreeSans" font-size="10.00">components/misc/stringops.hpp</text>
</a>
</g>
</g>
<!-- Node8&#45;&gt;Node16 -->
<g id="edge16" class="edge"><title>Node8&#45;&gt;Node16</title>
<path fill="none" stroke="midnightblue" d="M1103.47,-236.473C1014.52,-226.691 869.049,-210.692 776.495,-200.513"/>
<polygon fill="midnightblue" stroke="midnightblue" points="776.638,-197.007 766.315,-199.393 775.872,-203.965 776.638,-197.007"/>
</g>
<!-- Node19 -->
<g id="node19" class="node"><title>Node19</title>
<g id="a_node19"><a xlink:href="to__utf8_8hpp.html" target="_top" xlink:title="components/to_utf8\l/to_utf8.hpp">
<polygon fill="white" stroke="black" points="974,-113 974,-143 1076,-143 1076,-113 974,-113"/>
<text text-anchor="start" x="982" y="-131" font-family="FreeSans" font-size="10.00">components/to_utf8</text>
<text text-anchor="middle" x="1025" y="-120" font-family="FreeSans" font-size="10.00">/to_utf8.hpp</text>
</a>
</g>
</g>
<!-- Node8&#45;&gt;Node19 -->
<g id="edge20" class="edge"><title>Node8&#45;&gt;Node19</title>
<path fill="none" stroke="midnightblue" d="M1114.99,-236.497C1071.26,-229.354 1019.55,-217.478 1006,-200 995.316,-186.221 1001.45,-166.924 1009.49,-151.925"/>
<polygon fill="midnightblue" stroke="midnightblue" points="1012.56,-153.622 1014.61,-143.229 1006.52,-150.07 1012.56,-153.622"/>
</g>
<!-- Node21 -->
<g id="node21" class="node"><title>Node21</title>
<g id="a_node21"><a xlink:href="esmcommon_8hpp.html" target="_top" xlink:title="esmcommon.hpp">
<polygon fill="white" stroke="black" points="1322,-118.5 1322,-137.5 1412,-137.5 1412,-118.5 1322,-118.5"/>
<text text-anchor="middle" x="1367" y="-125.5" font-family="FreeSans" font-size="10.00">esmcommon.hpp</text>
</a>
</g>
</g>
<!-- Node8&#45;&gt;Node21 -->
<g id="edge24" class="edge"><title>Node8&#45;&gt;Node21</title>
<path fill="none" stroke="midnightblue" d="M1259.01,-237.212C1307.68,-230.559 1363.85,-218.976 1379,-200 1390.9,-185.093 1384.35,-162.734 1377.12,-147.102"/>
<polygon fill="midnightblue" stroke="midnightblue" points="1380.11,-145.268 1372.45,-137.946 1373.88,-148.445 1380.11,-145.268"/>
</g>
<!-- Node22 -->
<g id="node22" class="node"><title>Node22</title>
<g id="a_node22"><a xlink:href="loadtes3_8hpp.html" target="_top" xlink:title="loadtes3.hpp">
<polygon fill="white" stroke="black" points="1299.5,-180.5 1299.5,-199.5 1370.5,-199.5 1370.5,-180.5 1299.5,-180.5"/>
<text text-anchor="middle" x="1335" y="-187.5" font-family="FreeSans" font-size="10.00">loadtes3.hpp</text>
</a>
</g>
</g>
<!-- Node8&#45;&gt;Node22 -->
<g id="edge29" class="edge"><title>Node8&#45;&gt;Node22</title>
<path fill="none" stroke="midnightblue" d="M1205.4,-236.444C1231.2,-227.399 1272.08,-213.064 1301.02,-202.916"/>
<polygon fill="midnightblue" stroke="midnightblue" points="1302.43,-206.128 1310.71,-199.516 1300.12,-199.523 1302.43,-206.128"/>
</g>
<!-- Node14 -->
<g id="node14" class="node"><title>Node14</title>
<polygon fill="white" stroke="#bfbfbf" points="1094,-118.5 1094,-137.5 1142,-137.5 1142,-118.5 1094,-118.5"/>
<text text-anchor="middle" x="1118" y="-125.5" font-family="FreeSans" font-size="10.00">istream</text>
</g>
<!-- Node13&#45;&gt;Node14 -->
<g id="edge14" class="edge"><title>Node13&#45;&gt;Node14</title>
<path fill="none" stroke="midnightblue" d="M1171.97,-180.403C1162.24,-171.136 1146.54,-156.183 1134.58,-144.788"/>
<polygon fill="midnightblue" stroke="midnightblue" points="1136.66,-141.943 1127.01,-137.581 1131.84,-147.012 1136.66,-141.943"/>
</g>
<!-- Node15 -->
<g id="node15" class="node"><title>Node15</title>
<polygon fill="white" stroke="#bfbfbf" points="1160,-118.5 1160,-137.5 1266,-137.5 1266,-118.5 1160,-118.5"/>
<text text-anchor="middle" x="1213" y="-125.5" font-family="FreeSans" font-size="10.00">boost/shared_ptr.hpp</text>
</g>
<!-- Node13&#45;&gt;Node15 -->
<g id="edge15" class="edge"><title>Node13&#45;&gt;Node15</title>
<path fill="none" stroke="midnightblue" d="M1185.58,-180.403C1190.29,-171.582 1197.74,-157.608 1203.69,-146.455"/>
<polygon fill="midnightblue" stroke="midnightblue" points="1206.81,-148.051 1208.42,-137.581 1200.63,-144.757 1206.81,-148.051"/>
</g>
<!-- Node16&#45;&gt;Node4 -->
<g id="edge18" class="edge"><title>Node16&#45;&gt;Node4</title>
<path fill="none" stroke="midnightblue" d="M613.758,-183.168C535.882,-176.282 420.909,-163.271 381,-144 362.313,-134.977 362.338,-125.978 347,-112 335.954,-101.934 323.365,-90.8218 313.458,-82.1587"/>
<polygon fill="midnightblue" stroke="midnightblue" points="315.698,-79.4678 305.86,-75.5343 311.097,-84.744 315.698,-79.4678"/>
</g>
<!-- Node17 -->
<g id="node17" class="node"><title>Node17</title>
<polygon fill="white" stroke="#bfbfbf" points="758.5,-118.5 758.5,-137.5 803.5,-137.5 803.5,-118.5 758.5,-118.5"/>
<text text-anchor="middle" x="781" y="-125.5" font-family="FreeSans" font-size="10.00">cctype</text>
</g>
<!-- Node16&#45;&gt;Node17 -->
<g id="edge17" class="edge"><title>Node16&#45;&gt;Node17</title>
<path fill="none" stroke="midnightblue" d="M703.038,-180.403C717.769,-170.691 741.973,-154.732 759.509,-143.17"/>
<polygon fill="midnightblue" stroke="midnightblue" points="761.564,-146.007 767.986,-137.581 757.711,-140.163 761.564,-146.007"/>
</g>
<!-- Node18 -->
<g id="node18" class="node"><title>Node18</title>
<polygon fill="white" stroke="#bfbfbf" points="684,-118.5 684,-137.5 740,-137.5 740,-118.5 684,-118.5"/>
<text text-anchor="middle" x="712" y="-125.5" font-family="FreeSans" font-size="10.00">algorithm</text>
</g>
<!-- Node16&#45;&gt;Node18 -->
<g id="edge19" class="edge"><title>Node16&#45;&gt;Node18</title>
<path fill="none" stroke="midnightblue" d="M693.152,-180.403C696.321,-171.76 701.304,-158.17 705.351,-147.134"/>
<polygon fill="midnightblue" stroke="midnightblue" points="708.697,-148.174 708.854,-137.581 702.125,-145.764 708.697,-148.174"/>
</g>
<!-- Node19&#45;&gt;Node4 -->
<g id="edge21" class="edge"><title>Node19&#45;&gt;Node4</title>
<path fill="none" stroke="midnightblue" d="M973.903,-123.258C841.504,-113.521 489.536,-87.3641 373,-76 357.629,-74.501 340.567,-72.5376 326.418,-70.8272"/>
<polygon fill="midnightblue" stroke="midnightblue" points="326.594,-67.3227 316.242,-69.5805 325.743,-74.2707 326.594,-67.3227"/>
</g>
<!-- Node19&#45;&gt;Node6 -->
<g id="edge23" class="edge"><title>Node19&#45;&gt;Node6</title>
<path fill="none" stroke="midnightblue" d="M973.692,-118.657C896.219,-106.06 751.655,-82.5537 687.762,-72.1645"/>
<polygon fill="midnightblue" stroke="midnightblue" points="688.299,-68.7059 677.867,-70.5556 687.175,-75.6152 688.299,-68.7059"/>
</g>
<!-- Node20 -->
<g id="node20" class="node"><title>Node20</title>
<polygon fill="white" stroke="#bfbfbf" points="1146.5,-56.5 1146.5,-75.5 1191.5,-75.5 1191.5,-56.5 1146.5,-56.5"/>
<text text-anchor="middle" x="1169" y="-63.5" font-family="FreeSans" font-size="10.00">cstring</text>
</g>
<!-- Node19&#45;&gt;Node20 -->
<g id="edge22" class="edge"><title>Node19&#45;&gt;Node20</title>
<path fill="none" stroke="midnightblue" d="M1058.76,-112.933C1083.06,-102.81 1115.53,-89.2779 1138.94,-79.5267"/>
<polygon fill="midnightblue" stroke="midnightblue" points="1140.48,-82.677 1148.36,-75.6 1137.78,-76.2155 1140.48,-82.677"/>
</g>
<!-- Node21&#45;&gt;Node4 -->
<g id="edge25" class="edge"><title>Node21&#45;&gt;Node4</title>
<path fill="none" stroke="midnightblue" d="M1321.73,-118.582C1306.61,-116.067 1289.62,-113.566 1274,-112 875.235,-72.0208 772.541,-107.286 373,-76 357.603,-74.7943 340.538,-72.8612 326.394,-71.0951"/>
<polygon fill="midnightblue" stroke="midnightblue" points="326.588,-67.5913 316.224,-69.7919 325.698,-74.5346 326.588,-67.5913"/>
</g>
<!-- Node21&#45;&gt;Node9 -->
<g id="edge27" class="edge"><title>Node21&#45;&gt;Node9</title>
<path fill="none" stroke="midnightblue" d="M1368.58,-118.403C1370.14,-109.849 1372.6,-96.4497 1374.61,-85.4762"/>
<polygon fill="midnightblue" stroke="midnightblue" points="1378.07,-86.0478 1376.43,-75.5806 1371.18,-84.7855 1378.07,-86.0478"/>
</g>
<!-- Node21&#45;&gt;Node10 -->
<g id="edge28" class="edge"><title>Node21&#45;&gt;Node10</title>
<path fill="none" stroke="midnightblue" d="M1381.18,-118.403C1397.36,-108.601 1424.03,-92.4385 1443.14,-80.8526"/>
<polygon fill="midnightblue" stroke="midnightblue" points="1445.1,-83.7569 1451.84,-75.5806 1441.48,-77.7705 1445.1,-83.7569"/>
</g>
<!-- Node21&#45;&gt;Node20 -->
<g id="edge26" class="edge"><title>Node21&#45;&gt;Node20</title>
<path fill="none" stroke="midnightblue" d="M1338.63,-118.403C1302.31,-107.398 1239.53,-88.3729 1201.38,-76.8115"/>
<polygon fill="midnightblue" stroke="midnightblue" points="1202.36,-73.4525 1191.78,-73.902 1200.33,-80.1517 1202.36,-73.4525"/>
</g>
<!-- Node22&#45;&gt;Node6 -->
<g id="edge30" class="edge"><title>Node22&#45;&gt;Node6</title>
<path fill="none" stroke="midnightblue" d="M1331.14,-180.362C1323.2,-163.716 1303.24,-127.476 1274,-112 1221.96,-84.4605 807.003,-71.1144 687.872,-67.8256"/>
<polygon fill="midnightblue" stroke="midnightblue" points="687.691,-64.3195 677.6,-67.5469 687.501,-71.3169 687.691,-64.3195"/>
</g>
<!-- Node22&#45;&gt;Node21 -->
<g id="edge31" class="edge"><title>Node22&#45;&gt;Node21</title>
<path fill="none" stroke="midnightblue" d="M1339.58,-180.403C1344.29,-171.582 1351.74,-157.608 1357.69,-146.455"/>
<polygon fill="midnightblue" stroke="midnightblue" points="1360.81,-148.051 1362.42,-137.581 1354.63,-144.757 1360.81,-148.051"/>
</g>
<!-- Node23&#45;&gt;Node6 -->
<g id="edge33" class="edge"><title>Node23&#45;&gt;Node6</title>
<path fill="none" stroke="midnightblue" d="M708.089,-292.485C723.326,-284.636 744.982,-271.823 760,-256 806.843,-206.646 852.907,-166.376 812,-112 797.074,-92.1593 728.818,-78.3157 687.697,-71.6109"/>
<polygon fill="midnightblue" stroke="midnightblue" points="688.052,-68.1237 677.629,-70.023 686.961,-75.0382 688.052,-68.1237"/>
</g>
<!-- Node23&#45;&gt;Node16 -->
<g id="edge40" class="edge"><title>Node23&#45;&gt;Node16</title>
<path fill="none" stroke="midnightblue" d="M690,-292.368C690,-274.617 690,-233.666 690,-209.597"/>
<polygon fill="midnightblue" stroke="midnightblue" points="693.5,-209.591 690,-199.591 686.5,-209.591 693.5,-209.591"/>
</g>
<!-- Node23&#45;&gt;Node17 -->
<g id="edge36" class="edge"><title>Node23&#45;&gt;Node17</title>
<path fill="none" stroke="midnightblue" d="M700.719,-292.346C719.602,-276.385 758.367,-240.242 775,-200 781.861,-183.402 782.869,-162.794 782.457,-148.063"/>
<polygon fill="midnightblue" stroke="midnightblue" points="785.932,-147.498 781.906,-137.698 778.942,-147.869 785.932,-147.498"/>
</g>
<!-- Node23&#45;&gt;Node18 -->
<g id="edge35" class="edge"><title>Node23&#45;&gt;Node18</title>
<path fill="none" stroke="midnightblue" d="M675.643,-292.396C644.891,-272.849 577.596,-223.42 605,-180 609.485,-172.894 651.799,-154.097 681.848,-141.418"/>
<polygon fill="midnightblue" stroke="midnightblue" points="683.238,-144.631 691.109,-137.54 680.533,-138.174 683.238,-144.631"/>
</g>
<!-- Node23&#45;&gt;Node24 -->
<g id="edge34" class="edge"><title>Node23&#45;&gt;Node24</title>
<path fill="none" stroke="midnightblue" d="M728.106,-293.206C782.003,-282.181 879.203,-262.299 926.566,-252.611"/>
<polygon fill="midnightblue" stroke="midnightblue" points="927.321,-256.03 936.417,-250.597 925.918,-249.172 927.321,-256.03"/>
</g>
<!-- Node25 -->
<g id="node25" class="node"><title>Node25</title>
<polygon fill="white" stroke="#bfbfbf" points="384,-0.5 384,-19.5 442,-19.5 442,-0.5 384,-0.5"/>
<text text-anchor="middle" x="413" y="-7.5" font-family="FreeSans" font-size="10.00">stdexcept</text>
</g>
<!-- Node23&#45;&gt;Node25 -->
<g id="edge37" class="edge"><title>Node23&#45;&gt;Node25</title>
<path fill="none" stroke="midnightblue" d="M715.227,-292.397C735.18,-284.81 763.067,-272.408 784,-256 837.32,-214.206 872.507,-167.741 834,-112 790.351,-48.8154 548.153,-22.1492 452.18,-13.9598"/>
<polygon fill="midnightblue" stroke="midnightblue" points="452.277,-10.4559 442.022,-13.1158 451.698,-17.4319 452.277,-10.4559"/>
</g>
<!-- Node26 -->
<g id="node26" class="node"><title>Node26</title>
<polygon fill="white" stroke="#bfbfbf" points="500.5,-236.5 500.5,-255.5 559.5,-255.5 559.5,-236.5 500.5,-236.5"/>
<text text-anchor="middle" x="530" y="-243.5" font-family="FreeSans" font-size="10.00">functional</text>
</g>
<!-- Node23&#45;&gt;Node26 -->
<g id="edge38" class="edge"><title>Node23&#45;&gt;Node26</title>
<path fill="none" stroke="midnightblue" d="M664.648,-292.444C637.731,-283.359 595.004,-268.939 564.913,-258.783"/>
<polygon fill="midnightblue" stroke="midnightblue" points="565.828,-255.398 555.234,-255.516 563.59,-262.031 565.828,-255.398"/>
</g>
<!-- Node27 -->
<g id="node27" class="node"><title>Node27</title>
<polygon fill="white" stroke="#bfbfbf" points="509,-56.5 509,-75.5 563,-75.5 563,-56.5 509,-56.5"/>
<text text-anchor="middle" x="536" y="-63.5" font-family="FreeSans" font-size="10.00">QVariant</text>
</g>
<!-- Node23&#45;&gt;Node27 -->
<g id="edge39" class="edge"><title>Node23&#45;&gt;Node27</title>
<path fill="none" stroke="midnightblue" d="M665.039,-292.428C647.278,-285.193 623.996,-273.232 609,-256 564.201,-204.523 545.378,-122.524 538.888,-85.8275"/>
<polygon fill="midnightblue" stroke="midnightblue" points="542.282,-84.8959 537.197,-75.6009 535.376,-86.0379 542.282,-84.8959"/>
</g>
<!-- Node28 -->
<g id="node28" class="node"><title>Node28</title>
<g id="a_node28"><a xlink:href="columnbase_8hpp.html" target="_top" xlink:title="columnbase.hpp">
<polygon fill="white" stroke="black" points="390,-118.5 390,-137.5 476,-137.5 476,-118.5 390,-118.5"/>
<text text-anchor="middle" x="433" y="-125.5" font-family="FreeSans" font-size="10.00">columnbase.hpp</text>
</a>
</g>
</g>
<!-- Node23&#45;&gt;Node28 -->
<g id="edge41" class="edge"><title>Node23&#45;&gt;Node28</title>
<path fill="none" stroke="midnightblue" d="M651.794,-296.437C601.145,-289.713 515.328,-275.769 491,-256 456.776,-228.189 441.903,-175.764 436.161,-147.757"/>
<polygon fill="midnightblue" stroke="midnightblue" points="439.559,-146.886 434.282,-137.699 432.678,-148.172 439.559,-146.886"/>
</g>
<!-- Node31 -->
<g id="node31" class="node"><title>Node31</title>
<g id="a_node31"><a xlink:href="collectionbase_8hpp.html" target="_top" xlink:title="collectionbase.hpp">
<polygon fill="white" stroke="black" points="322,-236.5 322,-255.5 418,-255.5 418,-236.5 322,-236.5"/>
<text text-anchor="middle" x="370" y="-243.5" font-family="FreeSans" font-size="10.00">collectionbase.hpp</text>
</a>
</g>
</g>
<!-- Node23&#45;&gt;Node31 -->
<g id="edge49" class="edge"><title>Node23&#45;&gt;Node31</title>
<path fill="none" stroke="midnightblue" d="M651.718,-294.54C596.289,-285.186 493.229,-267.795 428.31,-256.84"/>
<polygon fill="midnightblue" stroke="midnightblue" points="428.675,-253.352 418.232,-255.139 427.51,-260.254 428.675,-253.352"/>
</g>
<!-- Node28&#45;&gt;Node4 -->
<g id="edge42" class="edge"><title>Node28&#45;&gt;Node4</title>
<path fill="none" stroke="midnightblue" d="M413.371,-118.403C390.176,-108.245 351.381,-91.2547 324.787,-79.6074"/>
<polygon fill="midnightblue" stroke="midnightblue" points="326.157,-76.3863 315.592,-75.5806 323.348,-82.7984 326.157,-76.3863"/>
</g>
<!-- Node28&#45;&gt;Node6 -->
<g id="edge43" class="edge"><title>Node28&#45;&gt;Node6</title>
<path fill="none" stroke="midnightblue" d="M464.95,-118.403C507.451,-106.968 582.128,-86.8759 624.434,-75.4931"/>
<polygon fill="midnightblue" stroke="midnightblue" points="625.455,-78.8429 634.202,-72.8649 623.636,-72.0833 625.455,-78.8429"/>
</g>
<!-- Node28&#45;&gt;Node25 -->
<g id="edge44" class="edge"><title>Node28&#45;&gt;Node25</title>
<path fill="none" stroke="midnightblue" d="M416.505,-118.43C402.014,-109.873 381.894,-95.2335 373,-76 364.771,-58.2053 379.416,-39.2669 393.244,-26.4512"/>
<polygon fill="midnightblue" stroke="midnightblue" points="395.823,-28.8487 401.111,-19.668 391.252,-23.5471 395.823,-28.8487"/>
</g>
<!-- Node28&#45;&gt;Node27 -->
<g id="edge46" class="edge"><title>Node28&#45;&gt;Node27</title>
<path fill="none" stroke="midnightblue" d="M447.757,-118.403C464.661,-108.557 492.583,-92.2915 512.49,-80.6949"/>
<polygon fill="midnightblue" stroke="midnightblue" points="514.391,-83.6384 521.27,-75.5806 510.867,-77.5898 514.391,-83.6384"/>
</g>
<!-- Node29 -->
<g id="node29" class="node"><title>Node29</title>
<polygon fill="white" stroke="#bfbfbf" points="461.5,-56.5 461.5,-75.5 490.5,-75.5 490.5,-56.5 461.5,-56.5"/>
<text text-anchor="middle" x="476" y="-63.5" font-family="FreeSans" font-size="10.00">Qt</text>
</g>
<!-- Node28&#45;&gt;Node29 -->
<g id="edge45" class="edge"><title>Node28&#45;&gt;Node29</title>
<path fill="none" stroke="midnightblue" d="M439.161,-118.403C445.611,-109.403 455.904,-95.0408 463.973,-83.7824"/>
<polygon fill="midnightblue" stroke="midnightblue" points="466.87,-85.7476 469.851,-75.5806 461.18,-81.6699 466.87,-85.7476"/>
</g>
<!-- Node30 -->
<g id="node30" class="node"><title>Node30</title>
<g id="a_node30"><a xlink:href="apps_2opencs_2model_2world_2record_8hpp.html" target="_top" xlink:title="record.hpp">
<polygon fill="white" stroke="black" points="382,-56.5 382,-75.5 444,-75.5 444,-56.5 382,-56.5"/>
<text text-anchor="middle" x="413" y="-63.5" font-family="FreeSans" font-size="10.00">record.hpp</text>
</a>
</g>
</g>
<!-- Node28&#45;&gt;Node30 -->
<g id="edge47" class="edge"><title>Node28&#45;&gt;Node30</title>
<path fill="none" stroke="midnightblue" d="M430.134,-118.403C427.253,-109.76 422.723,-96.17 419.045,-85.1341"/>
<polygon fill="midnightblue" stroke="midnightblue" points="422.343,-83.9606 415.86,-75.5806 415.702,-86.1742 422.343,-83.9606"/>
</g>
<!-- Node30&#45;&gt;Node25 -->
<g id="edge48" class="edge"><title>Node30&#45;&gt;Node25</title>
<path fill="none" stroke="midnightblue" d="M413,-56.083C413,-49.0059 413,-38.8611 413,-29.9865"/>
<polygon fill="midnightblue" stroke="midnightblue" points="416.5,-29.751 413,-19.7511 409.5,-29.7511 416.5,-29.751"/>
</g>
<!-- Node31&#45;&gt;Node4 -->
<g id="edge50" class="edge"><title>Node31&#45;&gt;Node4</title>
<path fill="none" stroke="midnightblue" d="M358.146,-236.372C347.785,-228.183 333.158,-214.932 325,-200 304.766,-162.965 298.65,-112.882 296.801,-85.9755"/>
<polygon fill="midnightblue" stroke="midnightblue" points="300.278,-85.4608 296.229,-75.6703 293.289,-85.849 300.278,-85.4608"/>
</g>
<!-- Node31&#45;&gt;Node6 -->
<g id="edge51" class="edge"><title>Node31&#45;&gt;Node6</title>
<path fill="none" stroke="midnightblue" d="M418.115,-239.2C476.694,-229.617 574.859,-205.03 632,-144 646.852,-128.138 652.517,-103.211 654.675,-86.0385"/>
<polygon fill="midnightblue" stroke="midnightblue" points="658.206,-85.8846 655.679,-75.5955 651.238,-85.2146 658.206,-85.8846"/>
</g>
<!-- Node31&#45;&gt;Node32 -->
<g id="edge52" class="edge"><title>Node31&#45;&gt;Node32</title>
<path fill="none" stroke="midnightblue" d="M321.838,-242.7C252.537,-238.478 129.246,-227.278 95,-200 78.922,-187.194 71.6893,-164.014 68.4807,-147.629"/>
<polygon fill="midnightblue" stroke="midnightblue" points="71.9062,-146.888 66.8429,-137.581 64.9974,-148.014 71.9062,-146.888"/>
</g>
<!-- Node35 -->
<g id="node35" class="node"><title>Node35</title>
<g id="a_node35"><a xlink:href="columns_8hpp.html" target="_top" xlink:title="columns.hpp">
<polygon fill="white" stroke="black" points="334.5,-180.5 334.5,-199.5 405.5,-199.5 405.5,-180.5 334.5,-180.5"/>
<text text-anchor="middle" x="370" y="-187.5" font-family="FreeSans" font-size="10.00">columns.hpp</text>
</a>
</g>
</g>
<!-- Node31&#45;&gt;Node35 -->
<g id="edge57" class="edge"><title>Node31&#45;&gt;Node35</title>
<path fill="none" stroke="midnightblue" d="M370,-236.083C370,-229.006 370,-218.861 370,-209.986"/>
<polygon fill="midnightblue" stroke="midnightblue" points="373.5,-209.751 370,-199.751 366.5,-209.751 373.5,-209.751"/>
</g>
<!-- Node32&#45;&gt;Node4 -->
<g id="edge53" class="edge"><title>Node32&#45;&gt;Node4</title>
<path fill="none" stroke="midnightblue" d="M98.9534,-118.403C143.592,-106.759 222.643,-86.1366 265.808,-74.8762"/>
<polygon fill="midnightblue" stroke="midnightblue" points="266.921,-78.2031 275.714,-72.2921 265.154,-71.4297 266.921,-78.2031"/>
</g>
<!-- Node32&#45;&gt;Node6 -->
<g id="edge55" class="edge"><title>Node32&#45;&gt;Node6</title>
<path fill="none" stroke="midnightblue" d="M106.022,-123.052C191.566,-114.596 398.558,-94.0321 572,-76 589.187,-74.2132 608.345,-72.1649 624.02,-70.4742"/>
<polygon fill="midnightblue" stroke="midnightblue" points="624.683,-73.923 634.248,-69.3684 623.93,-66.9636 624.683,-73.923"/>
</g>
<!-- Node33 -->
<g id="node33" class="node"><title>Node33</title>
<polygon fill="white" stroke="#bfbfbf" points="38,-56.5 38,-75.5 82,-75.5 82,-56.5 38,-56.5"/>
<text text-anchor="middle" x="60" y="-63.5" font-family="FreeSans" font-size="10.00">iosfwd</text>
</g>
<!-- Node32&#45;&gt;Node33 -->
<g id="edge54" class="edge"><title>Node32&#45;&gt;Node33</title>
<path fill="none" stroke="midnightblue" d="M65.1403,-118.403C64.2938,-109.938 62.9728,-96.7283 61.882,-85.8199"/>
<polygon fill="midnightblue" stroke="midnightblue" points="65.3358,-85.1827 60.8581,-75.5806 58.3706,-85.8793 65.3358,-85.1827"/>
</g>
<!-- Node34 -->
<g id="node34" class="node"><title>Node34</title>
<polygon fill="white" stroke="#bfbfbf" points="100.5,-56.5 100.5,-75.5 167.5,-75.5 167.5,-56.5 100.5,-56.5"/>
<text text-anchor="middle" x="134" y="-63.5" font-family="FreeSans" font-size="10.00">QMetaType</text>
</g>
<!-- Node32&#45;&gt;Node34 -->
<g id="edge56" class="edge"><title>Node32&#45;&gt;Node34</title>
<path fill="none" stroke="midnightblue" d="M75.7427,-118.403C86.3468,-109.047 103.519,-93.8948 116.479,-82.4599"/>
<polygon fill="midnightblue" stroke="midnightblue" points="119.093,-84.8213 124.275,-75.5806 114.461,-79.5724 119.093,-84.8213"/>
</g>
<!-- Node35&#45;&gt;Node4 -->
<g id="edge58" class="edge"><title>Node35&#45;&gt;Node4</title>
<path fill="none" stroke="midnightblue" d="M364.678,-180.226C352.518,-160.178 322.513,-110.71 306.487,-84.2888"/>
<polygon fill="midnightblue" stroke="midnightblue" points="309.452,-82.4294 301.274,-75.6944 303.467,-86.0597 309.452,-82.4294"/>
</g>
<!-- Node35&#45;&gt;Node6 -->
<g id="edge59" class="edge"><title>Node35&#45;&gt;Node6</title>
<path fill="none" stroke="midnightblue" d="M405.809,-182.186C452.05,-173.071 529.708,-156.596 556,-144 573.423,-135.653 614.293,-102.269 638.04,-82.3012"/>
<polygon fill="midnightblue" stroke="midnightblue" points="640.562,-84.7522 645.939,-75.6231 636.043,-79.4066 640.562,-84.7522"/>
</g>
<!-- Node35&#45;&gt;Node28 -->
<g id="edge60" class="edge"><title>Node35&#45;&gt;Node28</title>
<path fill="none" stroke="midnightblue" d="M379.026,-180.403C388.757,-171.136 404.458,-156.183 416.423,-144.788"/>
<polygon fill="midnightblue" stroke="midnightblue" points="419.163,-147.012 423.99,-137.581 414.335,-141.943 419.163,-147.012"/>
</g>
<!-- Node36&#45;&gt;Node4 -->
<g id="edge63" class="edge"><title>Node36&#45;&gt;Node4</title>
<path fill="none" stroke="midnightblue" d="M179.903,-236.388C185.208,-213.913 201.921,-152.43 234,-112 244.045,-99.3402 258.522,-88.5604 270.961,-80.7279"/>
<polygon fill="midnightblue" stroke="midnightblue" points="272.794,-83.7096 279.566,-75.5609 269.191,-77.7084 272.794,-83.7096"/>
</g>
<!-- Node36&#45;&gt;Node6 -->
<g id="edge62" class="edge"><title>Node36&#45;&gt;Node6</title>
<path fill="none" stroke="midnightblue" d="M220.262,-244.075C299.698,-240.435 473.898,-223.259 592,-144 615.383,-128.308 634.801,-101.641 645.908,-84.1737"/>
<polygon fill="midnightblue" stroke="midnightblue" points="648.955,-85.8993 651.196,-75.5441 642.987,-82.2418 648.955,-85.8993"/>
</g>
<!-- Node36&#45;&gt;Node32 -->
<g id="edge64" class="edge"><title>Node36&#45;&gt;Node32</title>
<path fill="none" stroke="midnightblue" d="M135.795,-240.471C109.832,-235.26 78.4747,-224.062 62,-200 51.5607,-184.753 54.6955,-163.065 59.1004,-147.679"/>
<polygon fill="midnightblue" stroke="midnightblue" points="62.5591,-148.365 62.3564,-137.772 55.9091,-146.18 62.5591,-148.365"/>
</g>
<!-- Node37 -->
<g id="node37" class="node"><title>Node37</title>
<g id="a_node37"><a xlink:href="messages_8hpp.html" target="_top" xlink:title="messages.hpp">
<polygon fill="white" stroke="black" points="104.5,-180.5 104.5,-199.5 181.5,-199.5 181.5,-180.5 104.5,-180.5"/>
<text text-anchor="middle" x="143" y="-187.5" font-family="FreeSans" font-size="10.00">messages.hpp</text>
</a>
</g>
</g>
<!-- Node36&#45;&gt;Node37 -->
<g id="edge65" class="edge"><title>Node36&#45;&gt;Node37</title>
<path fill="none" stroke="midnightblue" d="M172.22,-236.083C167.328,-228.534 160.173,-217.495 154.167,-208.23"/>
<polygon fill="midnightblue" stroke="midnightblue" points="157.048,-206.239 148.672,-199.751 151.174,-210.046 157.048,-206.239"/>
</g>
<!-- Node37&#45;&gt;Node4 -->
<g id="edge66" class="edge"><title>Node37&#45;&gt;Node4</title>
<path fill="none" stroke="midnightblue" d="M147.031,-180.224C154.598,-164.601 172.325,-131.756 196,-112 216.601,-94.8091 244.828,-82.9075 266.04,-75.6818"/>
<polygon fill="midnightblue" stroke="midnightblue" points="267.394,-78.9224 275.826,-72.5075 265.234,-72.2639 267.394,-78.9224"/>
</g>
<!-- Node37&#45;&gt;Node6 -->
<g id="edge67" class="edge"><title>Node37&#45;&gt;Node6</title>
<path fill="none" stroke="midnightblue" d="M181.696,-187.582C245.869,-184.422 377.861,-174.476 485,-144 518.292,-134.53 524.44,-126.213 556,-112 580.167,-101.116 607.623,-88.7619 627.644,-79.755"/>
<polygon fill="midnightblue" stroke="midnightblue" points="629.144,-82.918 636.828,-75.6235 626.272,-76.5342 629.144,-82.918"/>
</g>
<!-- Node37&#45;&gt;Node32 -->
<g id="edge69" class="edge"><title>Node37&#45;&gt;Node32</title>
<path fill="none" stroke="midnightblue" d="M131.968,-180.403C119.732,-170.869 99.7715,-155.315 85.0069,-143.811"/>
<polygon fill="midnightblue" stroke="midnightblue" points="87.0511,-140.966 77.0118,-137.581 82.7485,-146.488 87.0511,-140.966"/>
</g>
<!-- Node37&#45;&gt;Node34 -->
<g id="edge68" class="edge"><title>Node37&#45;&gt;Node34</title>
<path fill="none" stroke="midnightblue" d="M142.353,-180.226C140.9,-160.53 137.352,-112.437 135.38,-85.7004"/>
<polygon fill="midnightblue" stroke="midnightblue" points="138.868,-85.4098 134.641,-75.6944 131.887,-85.9249 138.868,-85.4098"/>
</g>
</g>
</svg>
