<?xml version="1.0" encoding="UTF-8" standalone="no"?>
<!DOCTYPE svg PUBLIC "-//W3C//DTD SVG 1.1//EN"
 "http://www.w3.org/Graphics/SVG/1.1/DTD/svg11.dtd">
<!-- Generated by graphviz version 2.36.0 (20140111.2315)
 -->
<!-- Title: /home/travis/build/scrawl/openmw/components/esm/statstate.hpp Pages: 1 -->
<svg width="1938pt" height="518pt"
 viewBox="0.00 0.00 1938.26 518.00" xmlns="http://www.w3.org/2000/svg" xmlns:xlink="http://www.w3.org/1999/xlink">
<g id="graph0" class="graph" transform="scale(1 1) rotate(0) translate(4 514)">
<title>/home/travis/build/scrawl/openmw/components/esm/statstate.hpp</title>
<polygon fill="white" stroke="none" points="-4,4 -4,-514 1934.26,-514 1934.26,4 -4,4"/>
<!-- Node1 -->
<g id="node1" class="node"><title>Node1</title>
<polygon fill="#bfbfbf" stroke="black" points="948.044,-468.5 948.044,-509.5 1103.04,-509.5 1103.04,-468.5 948.044,-468.5"/>
<text text-anchor="start" x="956.044" y="-497.5" font-family="FreeSans" font-size="10.00">/home/travis/build</text>
<text text-anchor="start" x="956.044" y="-486.5" font-family="FreeSans" font-size="10.00">/scrawl/openmw/components</text>
<text text-anchor="middle" x="1025.54" y="-475.5" font-family="FreeSans" font-size="10.00">/esm/statstate.hpp</text>
</g>
<!-- Node2 -->
<g id="node2" class="node"><title>Node2</title>
<g id="a_node2"><a xlink:href="stat_8cpp.html" target="_top" xlink:title="/home/travis/build\l/scrawl/openmw/apps\l/openmw/mwmechanics/stat.cpp">
<polygon fill="white" stroke="black" points="670.044,-390.5 670.044,-431.5 843.044,-431.5 843.044,-390.5 670.044,-390.5"/>
<text text-anchor="start" x="678.044" y="-419.5" font-family="FreeSans" font-size="10.00">/home/travis/build</text>
<text text-anchor="start" x="678.044" y="-408.5" font-family="FreeSans" font-size="10.00">/scrawl/openmw/apps</text>
<text text-anchor="middle" x="756.544" y="-397.5" font-family="FreeSans" font-size="10.00">/openmw/mwmechanics/stat.cpp</text>
</a>
</g>
</g>
<!-- Node1&#45;&gt;Node2 -->
<g id="edge1" class="edge"><title>Node1&#45;&gt;Node2</title>
<path fill="none" stroke="midnightblue" d="M946.19,-465.58C907.907,-454.764 862.415,-441.911 825.583,-431.506"/>
<polygon fill="midnightblue" stroke="midnightblue" points="945.695,-469.077 956.27,-468.428 947.598,-462.341 945.695,-469.077"/>
</g>
<!-- Node3 -->
<g id="node3" class="node"><title>Node3</title>
<g id="a_node3"><a xlink:href="components_2esm_2creaturestats_8hpp.html" target="_top" xlink:title="/home/travis/build\l/scrawl/openmw/components\l/esm/creaturestats.hpp">
<polygon fill="white" stroke="black" points="1035.04,-390.5 1035.04,-431.5 1190.04,-431.5 1190.04,-390.5 1035.04,-390.5"/>
<text text-anchor="start" x="1043.04" y="-419.5" font-family="FreeSans" font-size="10.00">/home/travis/build</text>
<text text-anchor="start" x="1043.04" y="-408.5" font-family="FreeSans" font-size="10.00">/scrawl/openmw/components</text>
<text text-anchor="middle" x="1112.54" y="-397.5" font-family="FreeSans" font-size="10.00">/esm/creaturestats.hpp</text>
</a>
</g>
</g>
<!-- Node1&#45;&gt;Node3 -->
<g id="edge2" class="edge"><title>Node1&#45;&gt;Node3</title>
<path fill="none" stroke="midnightblue" d="M1055.56,-461.779C1066.93,-451.843 1079.67,-440.716 1090.22,-431.506"/>
<polygon fill="midnightblue" stroke="midnightblue" points="1053.18,-459.213 1047.95,-468.428 1057.78,-464.485 1053.18,-459.213"/>
</g>
<!-- Node28 -->
<g id="node28" class="node"><title>Node28</title>
<g id="a_node28"><a xlink:href="components_2esm_2npcstats_8hpp.html" target="_top" xlink:title="/home/travis/build\l/scrawl/openmw/components\l/esm/npcstats.hpp">
<polygon fill="white" stroke="black" points="861.044,-390.5 861.044,-431.5 1016.04,-431.5 1016.04,-390.5 861.044,-390.5"/>
<text text-anchor="start" x="869.044" y="-419.5" font-family="FreeSans" font-size="10.00">/home/travis/build</text>
<text text-anchor="start" x="869.044" y="-408.5" font-family="FreeSans" font-size="10.00">/scrawl/openmw/components</text>
<text text-anchor="middle" x="938.544" y="-397.5" font-family="FreeSans" font-size="10.00">/esm/npcstats.hpp</text>
</a>
</g>
</g>
<!-- Node1&#45;&gt;Node28 -->
<g id="edge35" class="edge"><title>Node1&#45;&gt;Node28</title>
<path fill="none" stroke="midnightblue" d="M995.527,-461.779C984.154,-451.843 971.416,-440.716 960.873,-431.506"/>
<polygon fill="midnightblue" stroke="midnightblue" points="993.305,-464.485 1003.14,-468.428 997.911,-459.213 993.305,-464.485"/>
</g>
<!-- Node31 -->
<g id="node31" class="node"><title>Node31</title>
<g id="a_node31"><a xlink:href="statstate_8cpp.html" target="_top" xlink:title="/home/travis/build\l/scrawl/openmw/components\l/esm/statstate.cpp">
<polygon fill="white" stroke="black" points="1208.04,-390.5 1208.04,-431.5 1363.04,-431.5 1363.04,-390.5 1208.04,-390.5"/>
<text text-anchor="start" x="1216.04" y="-419.5" font-family="FreeSans" font-size="10.00">/home/travis/build</text>
<text text-anchor="start" x="1216.04" y="-408.5" font-family="FreeSans" font-size="10.00">/scrawl/openmw/components</text>
<text text-anchor="middle" x="1285.54" y="-397.5" font-family="FreeSans" font-size="10.00">/esm/statstate.cpp</text>
</a>
</g>
</g>
<!-- Node1&#45;&gt;Node31 -->
<g id="edge40" class="edge"><title>Node1&#45;&gt;Node31</title>
<path fill="none" stroke="midnightblue" d="M1102.24,-465.58C1139.24,-454.764 1183.22,-441.911 1218.81,-431.506"/>
<polygon fill="midnightblue" stroke="midnightblue" points="1101.12,-462.263 1092.5,-468.428 1103.08,-468.982 1101.12,-462.263"/>
</g>
<!-- Node4 -->
<g id="node4" class="node"><title>Node4</title>
<g id="a_node4"><a xlink:href="convertacdt_8hpp.html" target="_top" xlink:title="/home/travis/build\l/scrawl/openmw/apps\l/essimporter/convertacdt.hpp">
<polygon fill="white" stroke="black" points="1033.54,-312.5 1033.54,-353.5 1191.54,-353.5 1191.54,-312.5 1033.54,-312.5"/>
<text text-anchor="start" x="1041.54" y="-341.5" font-family="FreeSans" font-size="10.00">/home/travis/build</text>
<text text-anchor="start" x="1041.54" y="-330.5" font-family="FreeSans" font-size="10.00">/scrawl/openmw/apps</text>
<text text-anchor="middle" x="1112.54" y="-319.5" font-family="FreeSans" font-size="10.00">/essimporter/convertacdt.hpp</text>
</a>
</g>
</g>
<!-- Node3&#45;&gt;Node4 -->
<g id="edge3" class="edge"><title>Node3&#45;&gt;Node4</title>
<path fill="none" stroke="midnightblue" d="M1112.54,-380.297C1112.54,-371.301 1112.54,-361.653 1112.54,-353.506"/>
<polygon fill="midnightblue" stroke="midnightblue" points="1109.04,-380.428 1112.54,-390.428 1116.04,-380.428 1109.04,-380.428"/>
</g>
<!-- Node9 -->
<g id="node9" class="node"><title>Node9</title>
<g id="a_node9"><a xlink:href="apps_2openmw_2mwmechanics_2creaturestats_8cpp.html" target="_top" xlink:title="/home/travis/build\l/scrawl/openmw/apps\l/openmw/mwmechanics/creaturestats.cpp">
<polygon fill="white" stroke="black" points="1496.04,-312.5 1496.04,-353.5 1715.04,-353.5 1715.04,-312.5 1496.04,-312.5"/>
<text text-anchor="start" x="1504.04" y="-341.5" font-family="FreeSans" font-size="10.00">/home/travis/build</text>
<text text-anchor="start" x="1504.04" y="-330.5" font-family="FreeSans" font-size="10.00">/scrawl/openmw/apps</text>
<text text-anchor="middle" x="1605.54" y="-319.5" font-family="FreeSans" font-size="10.00">/openmw/mwmechanics/creaturestats.cpp</text>
</a>
</g>
</g>
<!-- Node3&#45;&gt;Node9 -->
<g id="edge8" class="edge"><title>Node3&#45;&gt;Node9</title>
<path fill="none" stroke="midnightblue" d="M1200.39,-389.753C1327.29,-367.615 1362.15,-372.22 1486.54,-354 1489.65,-353.545 1492.81,-353.074 1495.99,-352.591"/>
<polygon fill="midnightblue" stroke="midnightblue" points="1199.52,-386.352 1190.28,-391.538 1200.74,-393.246 1199.52,-386.352"/>
</g>
<!-- Node10 -->
<g id="node10" class="node"><title>Node10</title>
<g id="a_node10"><a xlink:href="creaturestate_8hpp.html" target="_top" xlink:title="/home/travis/build\l/scrawl/openmw/components\l/esm/creaturestate.hpp">
<polygon fill="white" stroke="black" points="1323.04,-312.5 1323.04,-353.5 1478.04,-353.5 1478.04,-312.5 1323.04,-312.5"/>
<text text-anchor="start" x="1331.04" y="-341.5" font-family="FreeSans" font-size="10.00">/home/travis/build</text>
<text text-anchor="start" x="1331.04" y="-330.5" font-family="FreeSans" font-size="10.00">/scrawl/openmw/components</text>
<text text-anchor="middle" x="1400.54" y="-319.5" font-family="FreeSans" font-size="10.00">/esm/creaturestate.hpp</text>
</a>
</g>
</g>
<!-- Node3&#45;&gt;Node10 -->
<g id="edge9" class="edge"><title>Node3&#45;&gt;Node10</title>
<path fill="none" stroke="midnightblue" d="M1196.46,-387.856C1237.66,-376.983 1286.86,-364 1326.63,-353.506"/>
<polygon fill="midnightblue" stroke="midnightblue" points="1195.49,-384.492 1186.71,-390.428 1197.27,-391.261 1195.49,-384.492"/>
</g>
<!-- Node16 -->
<g id="node16" class="node"><title>Node16</title>
<g id="a_node16"><a xlink:href="components_2esm_2creaturestats_8cpp.html" target="_top" xlink:title="/home/travis/build\l/scrawl/openmw/components\l/esm/creaturestats.cpp">
<polygon fill="white" stroke="black" points="1733.04,-312.5 1733.04,-353.5 1888.04,-353.5 1888.04,-312.5 1733.04,-312.5"/>
<text text-anchor="start" x="1741.04" y="-341.5" font-family="FreeSans" font-size="10.00">/home/travis/build</text>
<text text-anchor="start" x="1741.04" y="-330.5" font-family="FreeSans" font-size="10.00">/scrawl/openmw/components</text>
<text text-anchor="middle" x="1810.54" y="-319.5" font-family="FreeSans" font-size="10.00">/esm/creaturestats.cpp</text>
</a>
</g>
</g>
<!-- Node3&#45;&gt;Node16 -->
<g id="edge17" class="edge"><title>Node3&#45;&gt;Node16</title>
<path fill="none" stroke="midnightblue" d="M1200.32,-389.855C1431.65,-356.319 1495.47,-387.82 1723.54,-354 1726.61,-353.545 1729.73,-353.04 1732.87,-352.494"/>
<polygon fill="midnightblue" stroke="midnightblue" points="1199.63,-386.419 1190.25,-391.341 1200.66,-393.344 1199.63,-386.419"/>
</g>
<!-- Node17 -->
<g id="node17" class="node"><title>Node17</title>
<g id="a_node17"><a xlink:href="npcstate_8hpp.html" target="_top" xlink:title="/home/travis/build\l/scrawl/openmw/components\l/esm/npcstate.hpp">
<polygon fill="white" stroke="black" points="860.044,-312.5 860.044,-353.5 1015.04,-353.5 1015.04,-312.5 860.044,-312.5"/>
<text text-anchor="start" x="868.044" y="-341.5" font-family="FreeSans" font-size="10.00">/home/travis/build</text>
<text text-anchor="start" x="868.044" y="-330.5" font-family="FreeSans" font-size="10.00">/scrawl/openmw/components</text>
<text text-anchor="middle" x="937.544" y="-319.5" font-family="FreeSans" font-size="10.00">/esm/npcstate.hpp</text>
</a>
</g>
</g>
<!-- Node3&#45;&gt;Node17 -->
<g id="edge18" class="edge"><title>Node3&#45;&gt;Node17</title>
<path fill="none" stroke="midnightblue" d="M1058.04,-386.329C1033.76,-375.783 1005.5,-363.513 982.458,-353.506"/>
<polygon fill="midnightblue" stroke="midnightblue" points="1056.91,-389.655 1067.48,-390.428 1059.7,-383.234 1056.91,-389.655"/>
</g>
<!-- Node5 -->
<g id="node5" class="node"><title>Node5</title>
<g id="a_node5"><a xlink:href="convertacdt_8cpp.html" target="_top" xlink:title="/home/travis/build\l/scrawl/openmw/apps\l/essimporter/convertacdt.cpp">
<polygon fill="white" stroke="black" points="1202.54,-234.5 1202.54,-275.5 1360.54,-275.5 1360.54,-234.5 1202.54,-234.5"/>
<text text-anchor="start" x="1210.54" y="-263.5" font-family="FreeSans" font-size="10.00">/home/travis/build</text>
<text text-anchor="start" x="1210.54" y="-252.5" font-family="FreeSans" font-size="10.00">/scrawl/openmw/apps</text>
<text text-anchor="middle" x="1281.54" y="-241.5" font-family="FreeSans" font-size="10.00">/essimporter/convertacdt.cpp</text>
</a>
</g>
</g>
<!-- Node4&#45;&gt;Node5 -->
<g id="edge4" class="edge"><title>Node4&#45;&gt;Node5</title>
<path fill="none" stroke="midnightblue" d="M1165.49,-308.189C1188.87,-297.675 1216.01,-285.469 1238.17,-275.506"/>
<polygon fill="midnightblue" stroke="midnightblue" points="1163.75,-305.135 1156.07,-312.428 1166.62,-311.519 1163.75,-305.135"/>
</g>
<!-- Node6 -->
<g id="node6" class="node"><title>Node6</title>
<g id="a_node6"><a xlink:href="converter_8hpp.html" target="_top" xlink:title="/home/travis/build\l/scrawl/openmw/apps\l/essimporter/converter.hpp">
<polygon fill="white" stroke="black" points="607.544,-78.5 607.544,-119.5 753.544,-119.5 753.544,-78.5 607.544,-78.5"/>
<text text-anchor="start" x="615.544" y="-107.5" font-family="FreeSans" font-size="10.00">/home/travis/build</text>
<text text-anchor="start" x="615.544" y="-96.5" font-family="FreeSans" font-size="10.00">/scrawl/openmw/apps</text>
<text text-anchor="middle" x="680.544" y="-85.5" font-family="FreeSans" font-size="10.00">/essimporter/converter.hpp</text>
</a>
</g>
</g>
<!-- Node4&#45;&gt;Node6 -->
<g id="edge5" class="edge"><title>Node4&#45;&gt;Node6</title>
<path fill="none" stroke="midnightblue" d="M1051.7,-307.812C1035.94,-299.461 1019.93,-288.888 1007.54,-276 966.498,-233.29 996.234,-192.455 949.544,-156 919.558,-132.588 822.515,-116.611 753.614,-107.893"/>
<polygon fill="midnightblue" stroke="midnightblue" points="1050.42,-311.087 1060.93,-312.472 1053.58,-304.839 1050.42,-311.087"/>
</g>
<!-- Node7 -->
<g id="node7" class="node"><title>Node7</title>
<g id="a_node7"><a xlink:href="converter_8cpp.html" target="_top" xlink:title="/home/travis/build\l/scrawl/openmw/apps\l/essimporter/converter.cpp">
<polygon fill="white" stroke="black" points="1330.54,-0.5 1330.54,-41.5 1476.54,-41.5 1476.54,-0.5 1330.54,-0.5"/>
<text text-anchor="start" x="1338.54" y="-29.5" font-family="FreeSans" font-size="10.00">/home/travis/build</text>
<text text-anchor="start" x="1338.54" y="-18.5" font-family="FreeSans" font-size="10.00">/scrawl/openmw/apps</text>
<text text-anchor="middle" x="1403.54" y="-7.5" font-family="FreeSans" font-size="10.00">/essimporter/converter.cpp</text>
</a>
</g>
</g>
<!-- Node6&#45;&gt;Node7 -->
<g id="edge6" class="edge"><title>Node6&#45;&gt;Node7</title>
<path fill="none" stroke="midnightblue" d="M763.858,-89.2422C906.448,-74.2535 1194.96,-43.926 1330.32,-29.6976"/>
<polygon fill="midnightblue" stroke="midnightblue" points="763.427,-85.7681 753.848,-90.2945 764.159,-92.7298 763.427,-85.7681"/>
</g>
<!-- Node8 -->
<g id="node8" class="node"><title>Node8</title>
<g id="a_node8"><a xlink:href="essimporter_2importer_8cpp.html" target="_top" xlink:title="/home/travis/build\l/scrawl/openmw/apps\l/essimporter/importer.cpp">
<polygon fill="white" stroke="black" points="238.044,-0.5 238.044,-41.5 379.044,-41.5 379.044,-0.5 238.044,-0.5"/>
<text text-anchor="start" x="246.044" y="-29.5" font-family="FreeSans" font-size="10.00">/home/travis/build</text>
<text text-anchor="start" x="246.044" y="-18.5" font-family="FreeSans" font-size="10.00">/scrawl/openmw/apps</text>
<text text-anchor="middle" x="308.544" y="-7.5" font-family="FreeSans" font-size="10.00">/essimporter/importer.cpp</text>
</a>
</g>
</g>
<!-- Node6&#45;&gt;Node8 -->
<g id="edge7" class="edge"><title>Node6&#45;&gt;Node8</title>
<path fill="none" stroke="midnightblue" d="M597.594,-81.0533C531.994,-67.651 441.404,-49.1434 379.22,-36.4392"/>
<polygon fill="midnightblue" stroke="midnightblue" points="596.994,-84.5029 607.492,-83.0755 598.395,-77.6446 596.994,-84.5029"/>
</g>
<!-- Node10&#45;&gt;Node7 -->
<g id="edge13" class="edge"><title>Node10&#45;&gt;Node7</title>
<path fill="none" stroke="midnightblue" d="M1488.63,-312.185C1565.98,-305.18 1872.78,-308.455 1902.54,-276 2035.77,-130.751 1644.97,-56.2524 1476.63,-31.5442"/>
<polygon fill="midnightblue" stroke="midnightblue" points="1487.78,-308.76 1478.26,-313.404 1488.6,-315.712 1487.78,-308.76"/>
</g>
<!-- Node11 -->
<g id="node11" class="node"><title>Node11</title>
<g id="a_node11"><a xlink:href="convertcrec_8hpp.html" target="_top" xlink:title="/home/travis/build\l/scrawl/openmw/apps\l/essimporter/convertcrec.hpp">
<polygon fill="white" stroke="black" points="1378.54,-234.5 1378.54,-275.5 1536.54,-275.5 1536.54,-234.5 1378.54,-234.5"/>
<text text-anchor="start" x="1386.54" y="-263.5" font-family="FreeSans" font-size="10.00">/home/travis/build</text>
<text text-anchor="start" x="1386.54" y="-252.5" font-family="FreeSans" font-size="10.00">/scrawl/openmw/apps</text>
<text text-anchor="middle" x="1457.54" y="-241.5" font-family="FreeSans" font-size="10.00">/essimporter/convertcrec.hpp</text>
</a>
</g>
</g>
<!-- Node10&#45;&gt;Node11 -->
<g id="edge10" class="edge"><title>Node10&#45;&gt;Node11</title>
<path fill="none" stroke="midnightblue" d="M1421.29,-304.338C1428.46,-294.778 1436.34,-284.273 1442.91,-275.506"/>
<polygon fill="midnightblue" stroke="midnightblue" points="1418.42,-302.328 1415.22,-312.428 1424.02,-306.528 1418.42,-302.328"/>
</g>
<!-- Node13 -->
<g id="node13" class="node"><title>Node13</title>
<g id="a_node13"><a xlink:href="creature_8cpp.html" target="_top" xlink:title="/home/travis/build\l/scrawl/openmw/apps\l/openmw/mwclass/creature.cpp">
<polygon fill="white" stroke="black" points="1554.04,-234.5 1554.04,-275.5 1721.04,-275.5 1721.04,-234.5 1554.04,-234.5"/>
<text text-anchor="start" x="1562.04" y="-263.5" font-family="FreeSans" font-size="10.00">/home/travis/build</text>
<text text-anchor="start" x="1562.04" y="-252.5" font-family="FreeSans" font-size="10.00">/scrawl/openmw/apps</text>
<text text-anchor="middle" x="1637.54" y="-241.5" font-family="FreeSans" font-size="10.00">/openmw/mwclass/creature.cpp</text>
</a>
</g>
</g>
<!-- Node10&#45;&gt;Node13 -->
<g id="edge14" class="edge"><title>Node10&#45;&gt;Node13</title>
<path fill="none" stroke="midnightblue" d="M1471.32,-309.304C1504.87,-298.546 1544.54,-285.823 1576.72,-275.506"/>
<polygon fill="midnightblue" stroke="midnightblue" points="1470.03,-306.042 1461.58,-312.428 1472.17,-312.707 1470.03,-306.042"/>
</g>
<!-- Node14 -->
<g id="node14" class="node"><title>Node14</title>
<g id="a_node14"><a xlink:href="cellstore_8cpp.html" target="_top" xlink:title="/home/travis/build\l/scrawl/openmw/apps\l/openmw/mwworld/cellstore.cpp">
<polygon fill="white" stroke="black" points="1016.54,-234.5 1016.54,-275.5 1184.54,-275.5 1184.54,-234.5 1016.54,-234.5"/>
<text text-anchor="start" x="1024.54" y="-263.5" font-family="FreeSans" font-size="10.00">/home/travis/build</text>
<text text-anchor="start" x="1024.54" y="-252.5" font-family="FreeSans" font-size="10.00">/scrawl/openmw/apps</text>
<text text-anchor="middle" x="1100.54" y="-241.5" font-family="FreeSans" font-size="10.00">/openmw/mwworld/cellstore.cpp</text>
</a>
</g>
</g>
<!-- Node10&#45;&gt;Node14 -->
<g id="edge15" class="edge"><title>Node10&#45;&gt;Node14</title>
<path fill="none" stroke="midnightblue" d="M1313.41,-309.925C1270.43,-299.038 1219.05,-286.022 1177.54,-275.506"/>
<polygon fill="midnightblue" stroke="midnightblue" points="1312.73,-313.365 1323.29,-312.428 1314.45,-306.579 1312.73,-313.365"/>
</g>
<!-- Node15 -->
<g id="node15" class="node"><title>Node15</title>
<g id="a_node15"><a xlink:href="creaturestate_8cpp.html" target="_top" xlink:title="/home/travis/build\l/scrawl/openmw/components\l/esm/creaturestate.cpp">
<polygon fill="white" stroke="black" points="1739.04,-234.5 1739.04,-275.5 1894.04,-275.5 1894.04,-234.5 1739.04,-234.5"/>
<text text-anchor="start" x="1747.04" y="-263.5" font-family="FreeSans" font-size="10.00">/home/travis/build</text>
<text text-anchor="start" x="1747.04" y="-252.5" font-family="FreeSans" font-size="10.00">/scrawl/openmw/components</text>
<text text-anchor="middle" x="1816.54" y="-241.5" font-family="FreeSans" font-size="10.00">/esm/creaturestate.cpp</text>
</a>
</g>
</g>
<!-- Node10&#45;&gt;Node15 -->
<g id="edge16" class="edge"><title>Node10&#45;&gt;Node15</title>
<path fill="none" stroke="midnightblue" d="M1488.23,-311.752C1595.54,-291.868 1625.4,-295.653 1729.54,-276 1732.59,-275.425 1735.69,-274.818 1738.82,-274.187"/>
<polygon fill="midnightblue" stroke="midnightblue" points="1487.48,-308.332 1478.3,-313.618 1488.77,-315.211 1487.48,-308.332"/>
</g>
<!-- Node11&#45;&gt;Node7 -->
<g id="edge12" class="edge"><title>Node11&#45;&gt;Node7</title>
<path fill="none" stroke="midnightblue" d="M1436.56,-225.928C1431.13,-217.363 1425.88,-207.65 1422.54,-198 1403.75,-143.688 1402.28,-74.8113 1402.85,-41.6283"/>
<polygon fill="midnightblue" stroke="midnightblue" points="1433.75,-228.015 1442.21,-234.387 1439.57,-224.127 1433.75,-228.015"/>
</g>
<!-- Node12 -->
<g id="node12" class="node"><title>Node12</title>
<g id="a_node12"><a xlink:href="convertcrec_8cpp.html" target="_top" xlink:title="/home/travis/build\l/scrawl/openmw/apps\l/essimporter/convertcrec.cpp">
<polygon fill="white" stroke="black" points="1432.04,-156.5 1432.04,-197.5 1589.04,-197.5 1589.04,-156.5 1432.04,-156.5"/>
<text text-anchor="start" x="1440.04" y="-185.5" font-family="FreeSans" font-size="10.00">/home/travis/build</text>
<text text-anchor="start" x="1440.04" y="-174.5" font-family="FreeSans" font-size="10.00">/scrawl/openmw/apps</text>
<text text-anchor="middle" x="1510.54" y="-163.5" font-family="FreeSans" font-size="10.00">/essimporter/convertcrec.cpp</text>
</a>
</g>
</g>
<!-- Node11&#45;&gt;Node12 -->
<g id="edge11" class="edge"><title>Node11&#45;&gt;Node12</title>
<path fill="none" stroke="midnightblue" d="M1477.04,-226.048C1483.65,-216.566 1490.89,-206.185 1496.94,-197.506"/>
<polygon fill="midnightblue" stroke="midnightblue" points="1474.04,-224.224 1471.19,-234.428 1479.78,-228.228 1474.04,-224.224"/>
</g>
<!-- Node17&#45;&gt;Node14 -->
<g id="edge23" class="edge"><title>Node17&#45;&gt;Node14</title>
<path fill="none" stroke="midnightblue" d="M988.612,-308.189C1011.16,-297.675 1037.34,-285.469 1058.71,-275.506"/>
<polygon fill="midnightblue" stroke="midnightblue" points="987.105,-305.03 979.52,-312.428 990.063,-311.374 987.105,-305.03"/>
</g>
<!-- Node18 -->
<g id="node18" class="node"><title>Node18</title>
<g id="a_node18"><a xlink:href="convertnpcc_8hpp.html" target="_top" xlink:title="/home/travis/build\l/scrawl/openmw/apps\l/essimporter/convertnpcc.hpp">
<polygon fill="white" stroke="black" points="800.544,-234.5 800.544,-275.5 960.544,-275.5 960.544,-234.5 800.544,-234.5"/>
<text text-anchor="start" x="808.544" y="-263.5" font-family="FreeSans" font-size="10.00">/home/travis/build</text>
<text text-anchor="start" x="808.544" y="-252.5" font-family="FreeSans" font-size="10.00">/scrawl/openmw/apps</text>
<text text-anchor="middle" x="880.544" y="-241.5" font-family="FreeSans" font-size="10.00">/essimporter/convertnpcc.hpp</text>
</a>
</g>
</g>
<!-- Node17&#45;&gt;Node18 -->
<g id="edge19" class="edge"><title>Node17&#45;&gt;Node18</title>
<path fill="none" stroke="midnightblue" d="M916.797,-304.338C909.627,-294.778 901.749,-284.273 895.173,-275.506"/>
<polygon fill="midnightblue" stroke="midnightblue" points="914.065,-306.528 922.865,-312.428 919.665,-302.328 914.065,-306.528"/>
</g>
<!-- Node20 -->
<g id="node20" class="node"><title>Node20</title>
<g id="a_node20"><a xlink:href="npc_8cpp.html" target="_top" xlink:title="/home/travis/build\l/scrawl/openmw/apps\l/openmw/mwclass/npc.cpp">
<polygon fill="white" stroke="black" points="464.544,-234.5 464.544,-275.5 608.544,-275.5 608.544,-234.5 464.544,-234.5"/>
<text text-anchor="start" x="472.544" y="-263.5" font-family="FreeSans" font-size="10.00">/home/travis/build</text>
<text text-anchor="start" x="472.544" y="-252.5" font-family="FreeSans" font-size="10.00">/scrawl/openmw/apps</text>
<text text-anchor="middle" x="536.544" y="-241.5" font-family="FreeSans" font-size="10.00">/openmw/mwclass/npc.cpp</text>
</a>
</g>
</g>
<!-- Node17&#45;&gt;Node20 -->
<g id="edge22" class="edge"><title>Node17&#45;&gt;Node20</title>
<path fill="none" stroke="midnightblue" d="M849.861,-312.061C849.755,-312.04 849.65,-312.02 849.544,-312 747.051,-292.426 719.85,-296.526 617.544,-276 614.703,-275.43 611.813,-274.827 608.896,-274.2"/>
<polygon fill="midnightblue" stroke="midnightblue" points="849.379,-315.533 859.868,-314.038 850.736,-308.666 849.379,-315.533"/>
</g>
<!-- Node21 -->
<g id="node21" class="node"><title>Node21</title>
<g id="a_node21"><a xlink:href="npcstate_8cpp.html" target="_top" xlink:title="/home/travis/build\l/scrawl/openmw/components\l/esm/npcstate.cpp">
<polygon fill="white" stroke="black" points="627.044,-234.5 627.044,-275.5 782.044,-275.5 782.044,-234.5 627.044,-234.5"/>
<text text-anchor="start" x="635.044" y="-263.5" font-family="FreeSans" font-size="10.00">/home/travis/build</text>
<text text-anchor="start" x="635.044" y="-252.5" font-family="FreeSans" font-size="10.00">/scrawl/openmw/components</text>
<text text-anchor="middle" x="704.544" y="-241.5" font-family="FreeSans" font-size="10.00">/esm/npcstate.cpp</text>
</a>
</g>
</g>
<!-- Node17&#45;&gt;Node21 -->
<g id="edge24" class="edge"><title>Node17&#45;&gt;Node21</title>
<path fill="none" stroke="midnightblue" d="M867.962,-309.304C834.98,-298.546 795.975,-285.823 764.344,-275.506"/>
<polygon fill="midnightblue" stroke="midnightblue" points="866.948,-312.654 877.541,-312.428 869.119,-306 866.948,-312.654"/>
</g>
<!-- Node22 -->
<g id="node22" class="node"><title>Node22</title>
<g id="a_node22"><a xlink:href="components_2esm_2player_8hpp.html" target="_top" xlink:title="/home/travis/build\l/scrawl/openmw/components\l/esm/player.hpp">
<polygon fill="white" stroke="black" points="261.044,-234.5 261.044,-275.5 416.044,-275.5 416.044,-234.5 261.044,-234.5"/>
<text text-anchor="start" x="269.044" y="-263.5" font-family="FreeSans" font-size="10.00">/home/travis/build</text>
<text text-anchor="start" x="269.044" y="-252.5" font-family="FreeSans" font-size="10.00">/scrawl/openmw/components</text>
<text text-anchor="middle" x="338.544" y="-241.5" font-family="FreeSans" font-size="10.00">/esm/player.hpp</text>
</a>
</g>
</g>
<!-- Node17&#45;&gt;Node22 -->
<g id="edge25" class="edge"><title>Node17&#45;&gt;Node22</title>
<path fill="none" stroke="midnightblue" d="M849.863,-312.051C849.757,-312.034 849.65,-312.017 849.544,-312 675.874,-284.455 629.896,-298.832 455.544,-276 442.773,-274.328 429.265,-272.28 416.14,-270.14"/>
<polygon fill="midnightblue" stroke="midnightblue" points="849.468,-315.534 859.915,-313.771 850.649,-308.634 849.468,-315.534"/>
</g>
<!-- Node18&#45;&gt;Node6 -->
<g id="edge20" class="edge"><title>Node18&#45;&gt;Node6</title>
<path fill="none" stroke="midnightblue" d="M910.734,-227.017C930.221,-206.326 948.957,-177.727 931.544,-156 909.555,-128.564 819.616,-113.691 753.66,-106.307"/>
<polygon fill="midnightblue" stroke="midnightblue" points="908.123,-224.681 903.587,-234.255 913.104,-229.599 908.123,-224.681"/>
</g>
<!-- Node19 -->
<g id="node19" class="node"><title>Node19</title>
<g id="a_node19"><a xlink:href="convertnpcc_8cpp.html" target="_top" xlink:title="/home/travis/build\l/scrawl/openmw/apps\l/essimporter/convertnpcc.cpp">
<polygon fill="white" stroke="black" points="764.044,-156.5 764.044,-197.5 923.044,-197.5 923.044,-156.5 764.044,-156.5"/>
<text text-anchor="start" x="772.044" y="-185.5" font-family="FreeSans" font-size="10.00">/home/travis/build</text>
<text text-anchor="start" x="772.044" y="-174.5" font-family="FreeSans" font-size="10.00">/scrawl/openmw/apps</text>
<text text-anchor="middle" x="843.544" y="-163.5" font-family="FreeSans" font-size="10.00">/essimporter/convertnpcc.cpp</text>
</a>
</g>
</g>
<!-- Node18&#45;&gt;Node19 -->
<g id="edge21" class="edge"><title>Node18&#45;&gt;Node19</title>
<path fill="none" stroke="midnightblue" d="M866.51,-225.174C862.011,-215.932 857.136,-205.919 853.04,-197.506"/>
<polygon fill="midnightblue" stroke="midnightblue" points="863.491,-226.969 871.015,-234.428 869.785,-223.905 863.491,-226.969"/>
</g>
<!-- Node22&#45;&gt;Node8 -->
<g id="edge32" class="edge"><title>Node22&#45;&gt;Node8</title>
<path fill="none" stroke="midnightblue" d="M250.838,-250.528C168.483,-245.206 53.8165,-231.78 25.5438,-198 -8.68693,-157.101 -8.31096,-119.21 25.5438,-78 51.9317,-45.8789 163.091,-31.8684 237.989,-25.9874"/>
<polygon fill="midnightblue" stroke="midnightblue" points="250.769,-254.03 260.965,-251.152 251.2,-247.044 250.769,-254.03"/>
</g>
<!-- Node23 -->
<g id="node23" class="node"><title>Node23</title>
<g id="a_node23"><a xlink:href="importercontext_8hpp.html" target="_top" xlink:title="/home/travis/build\l/scrawl/openmw/apps\l/essimporter/importercontext.hpp">
<polygon fill="white" stroke="black" points="219.044,-156.5 219.044,-197.5 398.044,-197.5 398.044,-156.5 219.044,-156.5"/>
<text text-anchor="start" x="227.044" y="-185.5" font-family="FreeSans" font-size="10.00">/home/travis/build</text>
<text text-anchor="start" x="227.044" y="-174.5" font-family="FreeSans" font-size="10.00">/scrawl/openmw/apps</text>
<text text-anchor="middle" x="308.544" y="-163.5" font-family="FreeSans" font-size="10.00">/essimporter/importercontext.hpp</text>
</a>
</g>
</g>
<!-- Node22&#45;&gt;Node23 -->
<g id="edge26" class="edge"><title>Node22&#45;&gt;Node23</title>
<path fill="none" stroke="midnightblue" d="M327.05,-224.882C323.434,-215.721 319.529,-205.83 316.243,-197.506"/>
<polygon fill="midnightblue" stroke="midnightblue" points="323.891,-226.412 330.818,-234.428 330.402,-223.841 323.891,-226.412"/>
</g>
<!-- Node24 -->
<g id="node24" class="node"><title>Node24</title>
<g id="a_node24"><a xlink:href="convertplayer_8hpp.html" target="_top" xlink:title="/home/travis/build\l/scrawl/openmw/apps\l/essimporter/convertplayer.hpp">
<polygon fill="white" stroke="black" points="34.5438,-156.5 34.5438,-197.5 200.544,-197.5 200.544,-156.5 34.5438,-156.5"/>
<text text-anchor="start" x="42.5438" y="-185.5" font-family="FreeSans" font-size="10.00">/home/travis/build</text>
<text text-anchor="start" x="42.5438" y="-174.5" font-family="FreeSans" font-size="10.00">/scrawl/openmw/apps</text>
<text text-anchor="middle" x="117.544" y="-163.5" font-family="FreeSans" font-size="10.00">/essimporter/convertplayer.hpp</text>
</a>
</g>
</g>
<!-- Node22&#45;&gt;Node24 -->
<g id="edge29" class="edge"><title>Node22&#45;&gt;Node24</title>
<path fill="none" stroke="midnightblue" d="M272.143,-231.165C240.945,-220.437 204.137,-207.779 174.264,-197.506"/>
<polygon fill="midnightblue" stroke="midnightblue" points="271.036,-234.486 281.631,-234.428 273.313,-227.866 271.036,-234.486"/>
</g>
<!-- Node26 -->
<g id="node26" class="node"><title>Node26</title>
<g id="a_node26"><a xlink:href="apps_2openmw_2mwworld_2player_8cpp.html" target="_top" xlink:title="/home/travis/build\l/scrawl/openmw/apps\l/openmw/mwworld/player.cpp">
<polygon fill="white" stroke="black" points="416.544,-156.5 416.544,-197.5 572.544,-197.5 572.544,-156.5 416.544,-156.5"/>
<text text-anchor="start" x="424.544" y="-185.5" font-family="FreeSans" font-size="10.00">/home/travis/build</text>
<text text-anchor="start" x="424.544" y="-174.5" font-family="FreeSans" font-size="10.00">/scrawl/openmw/apps</text>
<text text-anchor="middle" x="494.544" y="-163.5" font-family="FreeSans" font-size="10.00">/openmw/mwworld/player.cpp</text>
</a>
</g>
</g>
<!-- Node22&#45;&gt;Node26 -->
<g id="edge33" class="edge"><title>Node22&#45;&gt;Node26</title>
<path fill="none" stroke="midnightblue" d="M387.995,-229.908C409.446,-219.458 434.237,-207.38 454.506,-197.506"/>
<polygon fill="midnightblue" stroke="midnightblue" points="386.175,-226.902 378.718,-234.428 389.241,-233.195 386.175,-226.902"/>
</g>
<!-- Node27 -->
<g id="node27" class="node"><title>Node27</title>
<g id="a_node27"><a xlink:href="components_2esm_2player_8cpp.html" target="_top" xlink:title="/home/travis/build\l/scrawl/openmw/components\l/esm/player.cpp">
<polygon fill="white" stroke="black" points="591.044,-156.5 591.044,-197.5 746.044,-197.5 746.044,-156.5 591.044,-156.5"/>
<text text-anchor="start" x="599.044" y="-185.5" font-family="FreeSans" font-size="10.00">/home/travis/build</text>
<text text-anchor="start" x="599.044" y="-174.5" font-family="FreeSans" font-size="10.00">/scrawl/openmw/components</text>
<text text-anchor="middle" x="668.544" y="-163.5" font-family="FreeSans" font-size="10.00">/esm/player.cpp</text>
</a>
</g>
</g>
<!-- Node22&#45;&gt;Node27 -->
<g id="edge34" class="edge"><title>Node22&#45;&gt;Node27</title>
<path fill="none" stroke="midnightblue" d="M426.077,-233.841C477.354,-222.032 541.543,-207.249 590.993,-195.86"/>
<polygon fill="midnightblue" stroke="midnightblue" points="425.291,-230.43 416.331,-236.085 426.862,-237.252 425.291,-230.43"/>
</g>
<!-- Node23&#45;&gt;Node6 -->
<g id="edge27" class="edge"><title>Node23&#45;&gt;Node6</title>
<path fill="none" stroke="midnightblue" d="M408.038,-155.673C470.772,-142.857 550.397,-126.589 607.349,-114.954"/>
<polygon fill="midnightblue" stroke="midnightblue" points="407.217,-152.268 398.12,-157.699 408.619,-159.127 407.217,-152.268"/>
</g>
<!-- Node23&#45;&gt;Node8 -->
<g id="edge28" class="edge"><title>Node23&#45;&gt;Node8</title>
<path fill="none" stroke="midnightblue" d="M308.544,-146.365C308.544,-115.606 308.544,-68.3579 308.544,-41.8323"/>
<polygon fill="midnightblue" stroke="midnightblue" points="305.044,-146.496 308.544,-156.496 312.044,-146.496 305.044,-146.496"/>
</g>
<!-- Node24&#45;&gt;Node6 -->
<g id="edge30" class="edge"><title>Node24&#45;&gt;Node6</title>
<path fill="none" stroke="midnightblue" d="M210.764,-155.871C356.802,-131.764 516.394,-115.097 607.214,-106.524"/>
<polygon fill="midnightblue" stroke="midnightblue" points="210.008,-152.449 200.72,-157.545 211.159,-159.354 210.008,-152.449"/>
</g>
<!-- Node25 -->
<g id="node25" class="node"><title>Node25</title>
<g id="a_node25"><a xlink:href="convertplayer_8cpp.html" target="_top" xlink:title="/home/travis/build\l/scrawl/openmw/apps\l/essimporter/convertplayer.cpp">
<polygon fill="white" stroke="black" points="35.0438,-78.5 35.0438,-119.5 200.044,-119.5 200.044,-78.5 35.0438,-78.5"/>
<text text-anchor="start" x="43.0438" y="-107.5" font-family="FreeSans" font-size="10.00">/home/travis/build</text>
<text text-anchor="start" x="43.0438" y="-96.5" font-family="FreeSans" font-size="10.00">/scrawl/openmw/apps</text>
<text text-anchor="middle" x="117.544" y="-85.5" font-family="FreeSans" font-size="10.00">/essimporter/convertplayer.cpp</text>
</a>
</g>
</g>
<!-- Node24&#45;&gt;Node25 -->
<g id="edge31" class="edge"><title>Node24&#45;&gt;Node25</title>
<path fill="none" stroke="midnightblue" d="M117.544,-146.297C117.544,-137.301 117.544,-127.653 117.544,-119.506"/>
<polygon fill="midnightblue" stroke="midnightblue" points="114.044,-146.428 117.544,-156.428 121.044,-146.428 114.044,-146.428"/>
</g>
<!-- Node28&#45;&gt;Node4 -->
<g id="edge36" class="edge"><title>Node28&#45;&gt;Node4</title>
<path fill="none" stroke="midnightblue" d="M992.738,-386.329C1016.88,-375.783 1044.97,-363.513 1067.89,-353.506"/>
<polygon fill="midnightblue" stroke="midnightblue" points="991.116,-383.218 983.353,-390.428 993.918,-389.633 991.116,-383.218"/>
</g>
<!-- Node28&#45;&gt;Node17 -->
<g id="edge38" class="edge"><title>Node28&#45;&gt;Node17</title>
<path fill="none" stroke="midnightblue" d="M938.153,-380.297C938.035,-371.301 937.908,-361.653 937.8,-353.506"/>
<polygon fill="midnightblue" stroke="midnightblue" points="934.655,-380.475 938.286,-390.428 941.654,-380.383 934.655,-380.475"/>
</g>
<!-- Node29 -->
<g id="node29" class="node"><title>Node29</title>
<g id="a_node29"><a xlink:href="apps_2openmw_2mwmechanics_2npcstats_8cpp.html" target="_top" xlink:title="/home/travis/build\l/scrawl/openmw/apps\l/openmw/mwmechanics/npcstats.cpp">
<polygon fill="white" stroke="black" points="645.544,-312.5 645.544,-353.5 841.544,-353.5 841.544,-312.5 645.544,-312.5"/>
<text text-anchor="start" x="653.544" y="-341.5" font-family="FreeSans" font-size="10.00">/home/travis/build</text>
<text text-anchor="start" x="653.544" y="-330.5" font-family="FreeSans" font-size="10.00">/scrawl/openmw/apps</text>
<text text-anchor="middle" x="743.544" y="-319.5" font-family="FreeSans" font-size="10.00">/openmw/mwmechanics/npcstats.cpp</text>
</a>
</g>
</g>
<!-- Node28&#45;&gt;Node29 -->
<g id="edge37" class="edge"><title>Node28&#45;&gt;Node29</title>
<path fill="none" stroke="midnightblue" d="M878.884,-386.748C851.588,-376.11 819.609,-363.646 793.591,-353.506"/>
<polygon fill="midnightblue" stroke="midnightblue" points="877.738,-390.058 888.326,-390.428 880.28,-383.536 877.738,-390.058"/>
</g>
<!-- Node30 -->
<g id="node30" class="node"><title>Node30</title>
<g id="a_node30"><a xlink:href="components_2esm_2npcstats_8cpp.html" target="_top" xlink:title="/home/travis/build\l/scrawl/openmw/components\l/esm/npcstats.cpp">
<polygon fill="white" stroke="black" points="472.044,-312.5 472.044,-353.5 627.044,-353.5 627.044,-312.5 472.044,-312.5"/>
<text text-anchor="start" x="480.044" y="-341.5" font-family="FreeSans" font-size="10.00">/home/travis/build</text>
<text text-anchor="start" x="480.044" y="-330.5" font-family="FreeSans" font-size="10.00">/scrawl/openmw/components</text>
<text text-anchor="middle" x="549.544" y="-319.5" font-family="FreeSans" font-size="10.00">/esm/npcstats.cpp</text>
</a>
</g>
</g>
<!-- Node28&#45;&gt;Node30 -->
<g id="edge39" class="edge"><title>Node28&#45;&gt;Node30</title>
<path fill="none" stroke="midnightblue" d="M850.965,-389.948C754.832,-371.228 728.513,-372.254 636.544,-354 633.504,-353.397 630.407,-352.765 627.282,-352.114"/>
<polygon fill="midnightblue" stroke="midnightblue" points="850.318,-393.388 860.805,-391.886 851.67,-386.52 850.318,-393.388"/>
</g>
</g>
</svg>
