<?xml version="1.0" encoding="UTF-8" standalone="no"?>
<!DOCTYPE svg PUBLIC "-//W3C//DTD SVG 1.1//EN"
 "http://www.w3.org/Graphics/SVG/1.1/DTD/svg11.dtd">
<!-- Generated by graphviz version 2.36.0 (20140111.2315)
 -->
<!-- Title: /home/scrawl/Dev/openmw/components/compiler/stringparser.hpp Pages: 1 -->
<svg width="353pt" height="164pt"
 viewBox="0.00 0.00 353.00 164.00" xmlns="http://www.w3.org/2000/svg" xmlns:xlink="http://www.w3.org/1999/xlink">
<g id="graph0" class="graph" transform="scale(1 1) rotate(0) translate(4 160)">
<title>/home/scrawl/Dev/openmw/components/compiler/stringparser.hpp</title>
<polygon fill="white" stroke="none" points="-4,4 -4,-160 349,-160 349,4 -4,4"/>
<!-- Node1 -->
<g id="node1" class="node"><title>Node1</title>
<polygon fill="#bfbfbf" stroke="black" points="81,-125 81,-155 263,-155 263,-125 81,-125"/>
<text text-anchor="start" x="89" y="-143" font-family="FreeSans" font-size="10.00">/home/scrawl/Dev/openmw</text>
<text text-anchor="middle" x="172" y="-132" font-family="FreeSans" font-size="10.00">/components/compiler/stringparser.hpp</text>
</g>
<!-- Node2 -->
<g id="node2" class="node"><title>Node2</title>
<polygon fill="white" stroke="#bfbfbf" points="-0.5,-62.5 -0.5,-81.5 42.5,-81.5 42.5,-62.5 -0.5,-62.5"/>
<text text-anchor="middle" x="21" y="-69.5" font-family="FreeSans" font-size="10.00">vector</text>
</g>
<!-- Node1&#45;&gt;Node2 -->
<g id="edge1" class="edge"><title>Node1&#45;&gt;Node2</title>
<path fill="none" stroke="midnightblue" d="M137.668,-124.932C113.565,-114.928 80.6495,-101.01 52,-88 50.605,-87.3665 49.1787,-86.7096 47.7413,-86.0402"/>
<polygon fill="midnightblue" stroke="midnightblue" points="48.8435,-82.689 38.309,-81.5595 45.8398,-89.0118 48.8435,-82.689"/>
</g>
<!-- Node3 -->
<g id="node3" class="node"><title>Node3</title>
<g id="a_node3"><a xlink:href="types_8hpp.html" target="_top" xlink:title="components/interpreter\l/types.hpp">
<polygon fill="white" stroke="black" points="61,-57 61,-87 177,-87 177,-57 61,-57"/>
<text text-anchor="start" x="69" y="-75" font-family="FreeSans" font-size="10.00">components/interpreter</text>
<text text-anchor="middle" x="119" y="-64" font-family="FreeSans" font-size="10.00">/types.hpp</text>
</a>
</g>
</g>
<!-- Node1&#45;&gt;Node3 -->
<g id="edge2" class="edge"><title>Node1&#45;&gt;Node3</title>
<path fill="none" stroke="midnightblue" d="M160.5,-124.679C153.624,-116.117 144.739,-105.053 136.956,-95.3604"/>
<polygon fill="midnightblue" stroke="midnightblue" points="139.468,-92.8988 130.478,-87.2931 134.01,-97.2817 139.468,-92.8988"/>
</g>
<!-- Node5 -->
<g id="node5" class="node"><title>Node5</title>
<g id="a_node5"><a xlink:href="components_2compiler_2parser_8hpp.html" target="_top" xlink:title="parser.hpp">
<polygon fill="white" stroke="black" points="195.5,-62.5 195.5,-81.5 256.5,-81.5 256.5,-62.5 195.5,-62.5"/>
<text text-anchor="middle" x="226" y="-69.5" font-family="FreeSans" font-size="10.00">parser.hpp</text>
</a>
</g>
</g>
<!-- Node1&#45;&gt;Node5 -->
<g id="edge4" class="edge"><title>Node1&#45;&gt;Node5</title>
<path fill="none" stroke="midnightblue" d="M183.717,-124.679C192.137,-114.388 203.513,-100.484 212.345,-89.6897"/>
<polygon fill="midnightblue" stroke="midnightblue" points="215.153,-91.7842 218.777,-81.8283 209.736,-87.3515 215.153,-91.7842"/>
</g>
<!-- Node7 -->
<g id="node7" class="node"><title>Node7</title>
<g id="a_node7"><a xlink:href="tokenloc_8hpp.html" target="_top" xlink:title="tokenloc.hpp">
<polygon fill="white" stroke="black" points="274.5,-62.5 274.5,-81.5 345.5,-81.5 345.5,-62.5 274.5,-62.5"/>
<text text-anchor="middle" x="310" y="-69.5" font-family="FreeSans" font-size="10.00">tokenloc.hpp</text>
</a>
</g>
</g>
<!-- Node1&#45;&gt;Node7 -->
<g id="edge6" class="edge"><title>Node1&#45;&gt;Node7</title>
<path fill="none" stroke="midnightblue" d="M201.604,-124.841C225.688,-113.323 259.402,-97.1989 282.811,-86.0036"/>
<polygon fill="midnightblue" stroke="midnightblue" points="284.336,-89.154 291.847,-81.6819 281.316,-82.839 284.336,-89.154"/>
</g>
<!-- Node4 -->
<g id="node4" class="node"><title>Node4</title>
<polygon fill="white" stroke="#bfbfbf" points="90,-0.5 90,-19.5 148,-19.5 148,-0.5 90,-0.5"/>
<text text-anchor="middle" x="119" y="-7.5" font-family="FreeSans" font-size="10.00">stdexcept</text>
</g>
<!-- Node3&#45;&gt;Node4 -->
<g id="edge3" class="edge"><title>Node3&#45;&gt;Node4</title>
<path fill="none" stroke="midnightblue" d="M119,-56.7808C119,-48.7812 119,-38.6887 119,-30.0168"/>
<polygon fill="midnightblue" stroke="midnightblue" points="122.5,-29.7305 119,-19.7305 115.5,-29.7306 122.5,-29.7305"/>
</g>
<!-- Node6 -->
<g id="node6" class="node"><title>Node6</title>
<polygon fill="white" stroke="#bfbfbf" points="248,-0.5 248,-19.5 288,-19.5 288,-0.5 248,-0.5"/>
<text text-anchor="middle" x="268" y="-7.5" font-family="FreeSans" font-size="10.00">string</text>
</g>
<!-- Node5&#45;&gt;Node6 -->
<g id="edge5" class="edge"><title>Node5&#45;&gt;Node6</title>
<path fill="none" stroke="midnightblue" d="M232.018,-62.4035C238.318,-53.4034 248.371,-39.0408 256.252,-27.7824"/>
<polygon fill="midnightblue" stroke="midnightblue" points="259.126,-29.7801 261.994,-19.5806 253.392,-25.7658 259.126,-29.7801"/>
</g>
<!-- Node7&#45;&gt;Node6 -->
<g id="edge7" class="edge"><title>Node7&#45;&gt;Node6</title>
<path fill="none" stroke="midnightblue" d="M303.982,-62.4035C297.682,-53.4034 287.629,-39.0408 279.748,-27.7824"/>
<polygon fill="midnightblue" stroke="midnightblue" points="282.608,-25.7658 274.006,-19.5806 276.874,-29.7801 282.608,-25.7658"/>
</g>
</g>
</svg>
