<?xml version="1.0" encoding="UTF-8" standalone="no"?>
<!DOCTYPE svg PUBLIC "-//W3C//DTD SVG 1.1//EN"
 "http://www.w3.org/Graphics/SVG/1.1/DTD/svg11.dtd">
<!-- Generated by graphviz version 2.36.0 (20140111.2315)
 -->
<!-- Title: CSMWorld::Record&lt; ESXRecordT &gt; Pages: 1 -->
<svg width="178pt" height="336pt"
 viewBox="0.00 0.00 178.00 336.00" xmlns="http://www.w3.org/2000/svg" xmlns:xlink="http://www.w3.org/1999/xlink">
<g id="graph0" class="graph" transform="scale(1 1) rotate(0) translate(4 332)">
<title>CSMWorld::Record&lt; ESXRecordT &gt;</title>
<polygon fill="white" stroke="none" points="-4,4 -4,-332 174,-332 174,4 -4,4"/>
<!-- Node1 -->
<g id="node1" class="node"><title>Node1</title>
<polygon fill="#bfbfbf" stroke="black" points="-0.5,-0.5 -0.5,-167.5 170.5,-167.5 170.5,-0.5 -0.5,-0.5"/>
<text text-anchor="middle" x="85" y="-155.5" font-family="FreeSans" font-size="10.00">CSMWorld::Record&lt; ESXRecordT &gt;</text>
<polyline fill="none" stroke="black" points="-0.5,-148.5 170.5,-148.5 "/>
<text text-anchor="start" x="7.5" y="-136.5" font-family="FreeSans" font-size="10.00">+ mBase</text>
<text text-anchor="start" x="7.5" y="-125.5" font-family="FreeSans" font-size="10.00">+ mModified</text>
<polyline fill="none" stroke="black" points="-0.5,-118.5 170.5,-118.5 "/>
<text text-anchor="start" x="7.5" y="-106.5" font-family="FreeSans" font-size="10.00">+ Record()</text>
<text text-anchor="start" x="7.5" y="-95.5" font-family="FreeSans" font-size="10.00">+ Record()</text>
<text text-anchor="start" x="7.5" y="-84.5" font-family="FreeSans" font-size="10.00">+ clone()</text>
<text text-anchor="start" x="7.5" y="-73.5" font-family="FreeSans" font-size="10.00">+ modifiedCopy()</text>
<text text-anchor="start" x="7.5" y="-62.5" font-family="FreeSans" font-size="10.00">+ assign()</text>
<text text-anchor="start" x="7.5" y="-51.5" font-family="FreeSans" font-size="10.00">+ get()</text>
<text text-anchor="start" x="7.5" y="-40.5" font-family="FreeSans" font-size="10.00">+ get()</text>
<text text-anchor="start" x="7.5" y="-29.5" font-family="FreeSans" font-size="10.00">+ getBase()</text>
<text text-anchor="start" x="7.5" y="-18.5" font-family="FreeSans" font-size="10.00">+ setModified()</text>
<text text-anchor="start" x="7.5" y="-7.5" font-family="FreeSans" font-size="10.00">+ merge()</text>
</g>
<!-- Node2 -->
<g id="node2" class="node"><title>Node2</title>
<g id="a_node2"><a xlink:href="structCSMWorld_1_1RecordBase.html" target="_top" xlink:title="{CSMWorld::RecordBase\n|+ mState\l|+ ~RecordBase()\l+ clone()\l+ modifiedCopy()\l+ assign()\l+ isDeleted()\l+ isErased()\l+ isModified()\l}">
<polygon fill="white" stroke="black" points="25,-204.5 25,-327.5 145,-327.5 145,-204.5 25,-204.5"/>
<text text-anchor="middle" x="85" y="-315.5" font-family="FreeSans" font-size="10.00">CSMWorld::RecordBase</text>
<polyline fill="none" stroke="black" points="25,-308.5 145,-308.5 "/>
<text text-anchor="start" x="33" y="-296.5" font-family="FreeSans" font-size="10.00">+ mState</text>
<polyline fill="none" stroke="black" points="25,-289.5 145,-289.5 "/>
<text text-anchor="start" x="33" y="-277.5" font-family="FreeSans" font-size="10.00">+ ~RecordBase()</text>
<text text-anchor="start" x="33" y="-266.5" font-family="FreeSans" font-size="10.00">+ clone()</text>
<text text-anchor="start" x="33" y="-255.5" font-family="FreeSans" font-size="10.00">+ modifiedCopy()</text>
<text text-anchor="start" x="33" y="-244.5" font-family="FreeSans" font-size="10.00">+ assign()</text>
<text text-anchor="start" x="33" y="-233.5" font-family="FreeSans" font-size="10.00">+ isDeleted()</text>
<text text-anchor="start" x="33" y="-222.5" font-family="FreeSans" font-size="10.00">+ isErased()</text>
<text text-anchor="start" x="33" y="-211.5" font-family="FreeSans" font-size="10.00">+ isModified()</text>
</a>
</g>
</g>
<!-- Node2&#45;&gt;Node1 -->
<g id="edge1" class="edge"><title>Node2&#45;&gt;Node1</title>
<path fill="none" stroke="midnightblue" d="M85,-194.251C85,-185.566 85,-176.63 85,-167.787"/>
<polygon fill="none" stroke="midnightblue" points="81.5001,-194.311 85,-204.311 88.5001,-194.311 81.5001,-194.311"/>
</g>
</g>
</svg>
