<?xml version="1.0" encoding="UTF-8" standalone="no"?>
<!DOCTYPE svg PUBLIC "-//W3C//DTD SVG 1.1//EN"
 "http://www.w3.org/Graphics/SVG/1.1/DTD/svg11.dtd">
<!-- Generated by graphviz version 2.36.0 (20140111.2315)
 -->
<!-- Title: ESM::RefNum::save Pages: 1 -->
<svg width="450pt" height="87pt"
 viewBox="0.00 0.00 450.00 87.00" xmlns="http://www.w3.org/2000/svg" xmlns:xlink="http://www.w3.org/1999/xlink">
<g id="graph0" class="graph" transform="scale(1 1) rotate(0) translate(4 83)">
<title>ESM::RefNum::save</title>
<polygon fill="white" stroke="none" points="-4,4 -4,-83 446,-83 446,4 -4,4"/>
<!-- Node1 -->
<g id="node1" class="node"><title>Node1</title>
<polygon fill="#bfbfbf" stroke="black" points="0.5,-29.5 0.5,-48.5 101.5,-48.5 101.5,-29.5 0.5,-29.5"/>
<text text-anchor="middle" x="51" y="-36.5" font-family="FreeSans" font-size="10.00">ESM::RefNum::save</text>
</g>
<!-- Node2 -->
<g id="node2" class="node"><title>Node2</title>
<g id="a_node2"><a xlink:href="classCSMDoc_1_1WriteCellCollectionStage.html#a671f371dcc0337747df2d2009490b3f4" target="_top" xlink:title="Messages resulting from this stage will be appended to messages. ">
<polygon fill="white" stroke="black" points="138,-49 138,-79 280,-79 280,-49 138,-49"/>
<text text-anchor="start" x="146" y="-67" font-family="FreeSans" font-size="10.00">CSMDoc::WriteCellCollection</text>
<text text-anchor="middle" x="209" y="-56" font-family="FreeSans" font-size="10.00">Stage::perform</text>
</a>
</g>
</g>
<!-- Node1&#45;&gt;Node2 -->
<g id="edge1" class="edge"><title>Node1&#45;&gt;Node2</title>
<path fill="none" stroke="midnightblue" d="M111.691,-48.5659C120.273,-49.9412 129.168,-51.3666 137.928,-52.7705"/>
<polygon fill="midnightblue" stroke="midnightblue" points="112.216,-45.1054 101.788,-46.9789 111.108,-52.0173 112.216,-45.1054"/>
</g>
<!-- Node3 -->
<g id="node3" class="node"><title>Node3</title>
<g id="a_node3"><a xlink:href="classMWWorld_1_1CellStore.html#aabdeaf5ea105f38949acf64ca46268f2" target="_top" xlink:title="MWWorld::CellStore\l::writeReferences">
<polygon fill="white" stroke="black" points="157.5,-0 157.5,-30 260.5,-30 260.5,-0 157.5,-0"/>
<text text-anchor="start" x="165.5" y="-18" font-family="FreeSans" font-size="10.00">MWWorld::CellStore</text>
<text text-anchor="middle" x="209" y="-7" font-family="FreeSans" font-size="10.00">::writeReferences</text>
</a>
</g>
</g>
<!-- Node1&#45;&gt;Node3 -->
<g id="edge2" class="edge"><title>Node1&#45;&gt;Node3</title>
<path fill="none" stroke="midnightblue" d="M111.978,-29.7726C126.955,-27.4685 142.869,-25.0201 157.345,-22.793"/>
<polygon fill="midnightblue" stroke="midnightblue" points="111.14,-26.3603 101.788,-31.3403 112.204,-33.2789 111.14,-26.3603"/>
</g>
<!-- Node4 -->
<g id="node4" class="node"><title>Node4</title>
<g id="a_node4"><a xlink:href="classMWWorld_1_1Cells.html#a11891add365691b8a08b783c7e29f5c6" target="_top" xlink:title="MWWorld::Cells::writeCell">
<polygon fill="white" stroke="black" points="316.5,-5.5 316.5,-24.5 441.5,-24.5 441.5,-5.5 316.5,-5.5"/>
<text text-anchor="middle" x="379" y="-12.5" font-family="FreeSans" font-size="10.00">MWWorld::Cells::writeCell</text>
</a>
</g>
</g>
<!-- Node3&#45;&gt;Node4 -->
<g id="edge3" class="edge"><title>Node3&#45;&gt;Node4</title>
<path fill="none" stroke="midnightblue" d="M270.91,-15C285.698,-15 301.523,-15 316.346,-15"/>
<polygon fill="midnightblue" stroke="midnightblue" points="270.861,-11.5001 260.861,-15 270.861,-18.5001 270.861,-11.5001"/>
</g>
</g>
</svg>
