<?xml version="1.0" encoding="UTF-8" standalone="no"?>
<!DOCTYPE svg PUBLIC "-//W3C//DTD SVG 1.1//EN"
 "http://www.w3.org/Graphics/SVG/1.1/DTD/svg11.dtd">
<!-- Generated by graphviz version 2.36.0 (20140111.2315)
 -->
<!-- Title: ESM::Land::LandData::save Pages: 1 -->
<svg width="424pt" height="38pt"
 viewBox="0.00 0.00 424.00 38.00" xmlns="http://www.w3.org/2000/svg" xmlns:xlink="http://www.w3.org/1999/xlink">
<g id="graph0" class="graph" transform="scale(1 1) rotate(0) translate(4 34)">
<title>ESM::Land::LandData::save</title>
<polygon fill="white" stroke="none" points="-4,4 -4,-34 420,-34 420,4 -4,4"/>
<!-- Node1 -->
<g id="node1" class="node"><title>Node1</title>
<polygon fill="#bfbfbf" stroke="black" points="0.5,-0 0.5,-30 109.5,-30 109.5,-0 0.5,-0"/>
<text text-anchor="start" x="8.5" y="-18" font-family="FreeSans" font-size="10.00">ESM::Land::LandData</text>
<text text-anchor="middle" x="55" y="-7" font-family="FreeSans" font-size="10.00">::save</text>
</g>
<!-- Node2 -->
<g id="node2" class="node"><title>Node2</title>
<g id="a_node2"><a xlink:href="structESM_1_1Land.html#aa49b03ab28cab9c7700f45a917edfcdf" target="_top" xlink:title="ESM::Land::save">
<polygon fill="white" stroke="black" points="146.5,-5.5 146.5,-24.5 233.5,-24.5 233.5,-5.5 146.5,-5.5"/>
<text text-anchor="middle" x="190" y="-12.5" font-family="FreeSans" font-size="10.00">ESM::Land::save</text>
</a>
</g>
</g>
<!-- Node1&#45;&gt;Node2 -->
<g id="edge1" class="edge"><title>Node1&#45;&gt;Node2</title>
<path fill="none" stroke="midnightblue" d="M119.746,-15C128.688,-15 137.696,-15 146.123,-15"/>
<polygon fill="midnightblue" stroke="midnightblue" points="119.713,-11.5001 109.713,-15 119.713,-18.5001 119.713,-11.5001"/>
</g>
<!-- Node3 -->
<g id="node3" class="node"><title>Node3</title>
<g id="a_node3"><a xlink:href="classCSMDoc_1_1WriteLandCollectionStage.html#ad683b11857c7ae2900c58a4038302d49" target="_top" xlink:title="Messages resulting from this stage will be appended to messages. ">
<polygon fill="white" stroke="black" points="270,-0 270,-30 416,-30 416,-0 270,-0"/>
<text text-anchor="start" x="278" y="-18" font-family="FreeSans" font-size="10.00">CSMDoc::WriteLandCollection</text>
<text text-anchor="middle" x="343" y="-7" font-family="FreeSans" font-size="10.00">Stage::perform</text>
</a>
</g>
</g>
<!-- Node2&#45;&gt;Node3 -->
<g id="edge2" class="edge"><title>Node2&#45;&gt;Node3</title>
<path fill="none" stroke="midnightblue" d="M243.889,-15C252.299,-15 261.121,-15 269.883,-15"/>
<polygon fill="midnightblue" stroke="midnightblue" points="243.867,-11.5001 233.867,-15 243.867,-18.5001 243.867,-11.5001"/>
</g>
</g>
</svg>
