<?xml version="1.0" encoding="UTF-8" standalone="no"?>
<!DOCTYPE svg PUBLIC "-//W3C//DTD SVG 1.1//EN"
 "http://www.w3.org/Graphics/SVG/1.1/DTD/svg11.dtd">
<!-- Generated by graphviz version 2.36.0 (20140111.2315)
 -->
<!-- Title: MWGui::JournalBooks Pages: 1 -->
<svg width="360pt" height="272pt"
 viewBox="0.00 0.00 360.00 272.00" xmlns="http://www.w3.org/2000/svg" xmlns:xlink="http://www.w3.org/1999/xlink">
<g id="graph0" class="graph" transform="scale(1 1) rotate(0) translate(4 268)">
<title>MWGui::JournalBooks</title>
<polygon fill="white" stroke="none" points="-4,4 -4,-268 356,-268 356,4 -4,4"/>
<!-- Node1 -->
<g id="node1" class="node"><title>Node1</title>
<polygon fill="#bfbfbf" stroke="black" points="90.5,-1 90.5,-157 243.5,-157 243.5,-1 90.5,-1"/>
<text text-anchor="middle" x="167" y="-145" font-family="FreeSans" font-size="10.00">MWGui::JournalBooks</text>
<polyline fill="none" stroke="black" points="90.5,-138 243.5,-138 "/>
<text text-anchor="middle" x="167" y="-126" font-family="FreeSans" font-size="10.00"> </text>
<polyline fill="none" stroke="black" points="90.5,-119 243.5,-119 "/>
<text text-anchor="start" x="98.5" y="-107" font-family="FreeSans" font-size="10.00">+ JournalBooks()</text>
<text text-anchor="start" x="98.5" y="-96" font-family="FreeSans" font-size="10.00">+ createEmptyJournalBook()</text>
<text text-anchor="start" x="98.5" y="-85" font-family="FreeSans" font-size="10.00">+ createJournalBook()</text>
<text text-anchor="start" x="98.5" y="-74" font-family="FreeSans" font-size="10.00">+ createTopicBook()</text>
<text text-anchor="start" x="98.5" y="-63" font-family="FreeSans" font-size="10.00">+ createTopicBook()</text>
<text text-anchor="start" x="98.5" y="-52" font-family="FreeSans" font-size="10.00">+ createQuestBook()</text>
<text text-anchor="start" x="98.5" y="-41" font-family="FreeSans" font-size="10.00">+ createTopicIndexBook()</text>
<text text-anchor="start" x="98.5" y="-30" font-family="FreeSans" font-size="10.00">&#45; createTypesetter()</text>
<text text-anchor="start" x="98.5" y="-19" font-family="FreeSans" font-size="10.00">&#45; createLatinJournalIndex()</text>
<text text-anchor="start" x="98.5" y="-8" font-family="FreeSans" font-size="10.00">&#45; createCyrillicJournalIndex()</text>
</g>
<!-- Node2 -->
<g id="node2" class="node"><title>Node2</title>
<polygon fill="white" stroke="#bfbfbf" points="0,-206.5 0,-263.5 62,-263.5 62,-206.5 0,-206.5"/>
<text text-anchor="middle" x="31" y="-251.5" font-family="FreeSans" font-size="10.00">FromType</text>
<polyline fill="none" stroke="#bfbfbf" points="0,-244.5 62,-244.5 "/>
<text text-anchor="middle" x="31" y="-232.5" font-family="FreeSans" font-size="10.00"> </text>
<polyline fill="none" stroke="#bfbfbf" points="0,-225.5 62,-225.5 "/>
<text text-anchor="middle" x="31" y="-213.5" font-family="FreeSans" font-size="10.00"> </text>
</g>
<!-- Node2&#45;&gt;Node1 -->
<g id="edge1" class="edge"><title>Node2&#45;&gt;Node1</title>
<path fill="none" stroke="#404040" d="M55.3141,-206.468C65.5008,-194.933 77.9557,-180.83 90.8067,-166.278"/>
<polygon fill="none" stroke="#404040" points="90.8994,-166.173 91.8729,-159.028 98.8428,-157.178 97.8693,-164.323 90.8994,-166.173"/>
<text text-anchor="middle" x="111.5" y="-179.5" font-family="FreeSans" font-size="10.00"> +mEncoding</text>
</g>
<!-- Node3 -->
<g id="node3" class="node"><title>Node3</title>
<polygon fill="white" stroke="#bfbfbf" points="80.5,-206.5 80.5,-263.5 253.5,-263.5 253.5,-206.5 80.5,-206.5"/>
<text text-anchor="middle" x="167" y="-251.5" font-family="FreeSans" font-size="10.00">shared_ptr&lt; JournalViewModel &gt;</text>
<polyline fill="none" stroke="#bfbfbf" points="80.5,-244.5 253.5,-244.5 "/>
<text text-anchor="middle" x="167" y="-232.5" font-family="FreeSans" font-size="10.00"> </text>
<polyline fill="none" stroke="#bfbfbf" points="80.5,-225.5 253.5,-225.5 "/>
<text text-anchor="middle" x="167" y="-213.5" font-family="FreeSans" font-size="10.00"> </text>
</g>
<!-- Node3&#45;&gt;Node1 -->
<g id="edge2" class="edge"><title>Node3&#45;&gt;Node1</title>
<path fill="none" stroke="#404040" d="M167,-206.468C167,-195.804 167,-182.944 167,-169.564"/>
<polygon fill="none" stroke="#404040" points="167,-169.178 163,-163.178 167,-157.178 171,-163.178 167,-169.178"/>
<text text-anchor="middle" x="192" y="-179.5" font-family="FreeSans" font-size="10.00"> +mModel</text>
</g>
<!-- Node4 -->
<g id="node4" class="node"><title>Node4</title>
<g id="a_node4"><a xlink:href="classint.html" target="_top" xlink:title="{int\n||}">
<polygon fill="white" stroke="black" points="271.5,-206.5 271.5,-263.5 300.5,-263.5 300.5,-206.5 271.5,-206.5"/>
<text text-anchor="middle" x="286" y="-251.5" font-family="FreeSans" font-size="10.00">int</text>
<polyline fill="none" stroke="black" points="271.5,-244.5 300.5,-244.5 "/>
<text text-anchor="middle" x="286" y="-232.5" font-family="FreeSans" font-size="10.00"> </text>
<polyline fill="none" stroke="black" points="271.5,-225.5 300.5,-225.5 "/>
<text text-anchor="middle" x="286" y="-213.5" font-family="FreeSans" font-size="10.00"> </text>
</a>
</g>
</g>
<!-- Node4&#45;&gt;Node1 -->
<g id="edge3" class="edge"><title>Node4&#45;&gt;Node1</title>
<path fill="none" stroke="#404040" d="M271.408,-215.117C261.684,-202.532 248.133,-184.995 234.008,-166.717"/>
<polygon fill="none" stroke="#404040" points="233.925,-166.608 227.091,-164.306 226.587,-157.113 233.421,-159.415 233.925,-166.608"/>
<text text-anchor="middle" x="300" y="-179.5" font-family="FreeSans" font-size="10.00"> +mIndexPagesCount</text>
</g>
</g>
</svg>
