<?xml version="1.0" encoding="UTF-8" standalone="no"?>
<!DOCTYPE svg PUBLIC "-//W3C//DTD SVG 1.1//EN"
 "http://www.w3.org/Graphics/SVG/1.1/DTD/svg11.dtd">
<!-- Generated by graphviz version 2.36.0 (20140111.2315)
 -->
<!-- Title: ESM::GlobalMap::save Pages: 1 -->
<svg width="832pt" height="151pt"
 viewBox="0.00 0.00 832.00 150.59" xmlns="http://www.w3.org/2000/svg" xmlns:xlink="http://www.w3.org/1999/xlink">
<g id="graph0" class="graph" transform="scale(1 1) rotate(0) translate(4 146.588)">
<title>ESM::GlobalMap::save</title>
<polygon fill="white" stroke="none" points="-4,4 -4,-146.588 828,-146.588 828,4 -4,4"/>
<!-- Node1 -->
<g id="node1" class="node"><title>Node1</title>
<polygon fill="#bfbfbf" stroke="black" points="0,-63.5809 0,-82.5809 122,-82.5809 122,-63.5809 0,-63.5809"/>
<text text-anchor="middle" x="61" y="-70.5809" font-family="FreeSans" font-size="10.00">ESM::GlobalMap::save</text>
</g>
<!-- Node2 -->
<g id="node2" class="node"><title>Node2</title>
<g id="a_node2"><a xlink:href="classESM_1_1ESMWriter.html#a110e5e311eb1fdd91f944cb760ce0888" target="_top" xlink:title="ESM::ESMWriter::writeHNT">
<polygon fill="white" stroke="black" points="158,-25.5809 158,-44.5809 298,-44.5809 298,-25.5809 158,-25.5809"/>
<text text-anchor="middle" x="228" y="-32.5809" font-family="FreeSans" font-size="10.00">ESM::ESMWriter::writeHNT</text>
</a>
</g>
</g>
<!-- Node1&#45;&gt;Node2 -->
<g id="edge1" class="edge"><title>Node1&#45;&gt;Node2</title>
<path fill="none" stroke="midnightblue" d="M103.636,-63.4919C125.508,-58.4548 152.506,-52.2371 175.664,-46.9038"/>
<polygon fill="midnightblue" stroke="midnightblue" points="176.704,-50.256 185.663,-44.6009 175.133,-43.4346 176.704,-50.256"/>
</g>
<!-- Node3 -->
<g id="node3" class="node"><title>Node3</title>
<g id="a_node3"><a xlink:href="classESM_1_1ESMWriter.html#a8e375456001f0c1390e688bc11b318f9" target="_top" xlink:title="ESM::ESMWriter::startSub\lRecord">
<polygon fill="white" stroke="black" points="338.5,-90.0809 338.5,-120.081 477.5,-120.081 477.5,-90.0809 338.5,-90.0809"/>
<text text-anchor="start" x="346.5" y="-108.081" font-family="FreeSans" font-size="10.00">ESM::ESMWriter::startSub</text>
<text text-anchor="middle" x="408" y="-97.0809" font-family="FreeSans" font-size="10.00">Record</text>
</a>
</g>
</g>
<!-- Node1&#45;&gt;Node3 -->
<g id="edge8" class="edge"><title>Node1&#45;&gt;Node3</title>
<path fill="none" stroke="midnightblue" d="M122.171,-78.7346C134.046,-79.8468 146.416,-81.0029 158,-82.0809 214.902,-87.3761 279.123,-93.3071 328.09,-97.8198"/>
<polygon fill="midnightblue" stroke="midnightblue" points="328.021,-101.328 338.3,-98.7605 328.663,-94.3577 328.021,-101.328"/>
</g>
<!-- Node5 -->
<g id="node5" class="node"><title>Node5</title>
<g id="a_node5"><a xlink:href="classESM_1_1ESMWriter.html#a9b250b093c6c699f88224fcecc9a8a29" target="_top" xlink:title="ESM::ESMWriter::write">
<polygon fill="white" stroke="black" points="704,-95.5809 704,-114.581 824,-114.581 824,-95.5809 704,-95.5809"/>
<text text-anchor="middle" x="764" y="-102.581" font-family="FreeSans" font-size="10.00">ESM::ESMWriter::write</text>
</a>
</g>
</g>
<!-- Node1&#45;&gt;Node5 -->
<g id="edge9" class="edge"><title>Node1&#45;&gt;Node5</title>
<path fill="none" stroke="midnightblue" d="M88.5906,-82.6214C107.692,-89.1708 134.169,-97.6321 158,-103.081 379.152,-153.645 442.566,-149.466 668,-124.081 682.66,-122.43 698.426,-119.68 712.82,-116.778"/>
<polygon fill="midnightblue" stroke="midnightblue" points="713.947,-120.118 723.023,-114.651 712.519,-113.265 713.947,-120.118"/>
</g>
<!-- Node6 -->
<g id="node6" class="node"><title>Node6</title>
<g id="a_node6"><a xlink:href="classESM_1_1ESMWriter.html#abad69b94dce1ed3c6178612dbef2c65a" target="_top" xlink:title="ESM::ESMWriter::writeT">
<polygon fill="white" stroke="black" points="345.5,-0.580867 345.5,-19.5809 470.5,-19.5809 470.5,-0.580867 345.5,-0.580867"/>
<text text-anchor="middle" x="408" y="-7.58087" font-family="FreeSans" font-size="10.00">ESM::ESMWriter::writeT</text>
</a>
</g>
</g>
<!-- Node1&#45;&gt;Node6 -->
<g id="edge11" class="edge"><title>Node1&#45;&gt;Node6</title>
<path fill="none" stroke="midnightblue" d="M73.4933,-63.5416C90.6298,-49.9847 124.469,-25.7212 158,-16.0809 215.931,0.574331 284.601,0.870431 335.139,-2.31519"/>
<polygon fill="midnightblue" stroke="midnightblue" points="335.099,-5.82069 345.317,-3.01896 335.582,1.16264 335.099,-5.82069"/>
</g>
<!-- Node7 -->
<g id="node7" class="node"><title>Node7</title>
<g id="a_node7"><a xlink:href="classESM_1_1ESMWriter.html#aa9773ad75705c3078f4c4d7be8d90acb" target="_top" xlink:title="ESM::ESMWriter::endRecord">
<polygon fill="white" stroke="black" points="334,-51.5809 334,-70.5809 482,-70.5809 482,-51.5809 334,-51.5809"/>
<text text-anchor="middle" x="408" y="-58.5809" font-family="FreeSans" font-size="10.00">ESM::ESMWriter::endRecord</text>
</a>
</g>
</g>
<!-- Node1&#45;&gt;Node7 -->
<g id="edge10" class="edge"><title>Node1&#45;&gt;Node7</title>
<path fill="none" stroke="midnightblue" d="M122.094,-70.9906C177.871,-69.0506 261.42,-66.1445 323.637,-63.9804"/>
<polygon fill="midnightblue" stroke="midnightblue" points="323.949,-67.4718 333.821,-63.6262 323.706,-60.476 323.949,-67.4718"/>
</g>
<!-- Node2&#45;&gt;Node3 -->
<g id="edge2" class="edge"><title>Node2&#45;&gt;Node3</title>
<path fill="none" stroke="midnightblue" d="M250.125,-44.6881C271.194,-54.1378 304.571,-68.7536 334,-80.0809 339.743,-82.2914 345.776,-84.5136 351.809,-86.6721"/>
<polygon fill="midnightblue" stroke="midnightblue" points="350.654,-89.976 361.249,-90.0008 352.982,-83.3744 350.654,-89.976"/>
</g>
<!-- Node2&#45;&gt;Node6 -->
<g id="edge5" class="edge"><title>Node2&#45;&gt;Node6</title>
<path fill="none" stroke="midnightblue" d="M296.802,-25.5581C309.361,-23.7942 322.517,-21.9464 335.191,-20.1664"/>
<polygon fill="midnightblue" stroke="midnightblue" points="335.814,-23.6133 345.23,-18.7564 334.841,-16.6814 335.814,-23.6133"/>
</g>
<!-- Node2&#45;&gt;Node7 -->
<g id="edge6" class="edge"><title>Node2&#45;&gt;Node7</title>
<path fill="none" stroke="midnightblue" d="M294.27,-44.6147C306.483,-46.3987 319.34,-48.2766 331.825,-50.1002"/>
<polygon fill="midnightblue" stroke="midnightblue" points="331.337,-53.566 341.738,-51.5482 332.349,-46.6395 331.337,-53.566"/>
</g>
<!-- Node4 -->
<g id="node4" class="node"><title>Node4</title>
<g id="a_node4"><a xlink:href="classESM_1_1ESMWriter.html#a41f07f28edc21069fd8c1a836233b18f" target="_top" xlink:title="ESM::ESMWriter::writeName">
<polygon fill="white" stroke="black" points="518.5,-95.5809 518.5,-114.581 667.5,-114.581 667.5,-95.5809 518.5,-95.5809"/>
<text text-anchor="middle" x="593" y="-102.581" font-family="FreeSans" font-size="10.00">ESM::ESMWriter::writeName</text>
</a>
</g>
</g>
<!-- Node3&#45;&gt;Node4 -->
<g id="edge3" class="edge"><title>Node3&#45;&gt;Node4</title>
<path fill="none" stroke="midnightblue" d="M477.663,-105.081C487.628,-105.081 497.978,-105.081 508.2,-105.081"/>
<polygon fill="midnightblue" stroke="midnightblue" points="508.359,-108.581 518.359,-105.081 508.359,-101.581 508.359,-108.581"/>
</g>
<!-- Node4&#45;&gt;Node5 -->
<g id="edge4" class="edge"><title>Node4&#45;&gt;Node5</title>
<path fill="none" stroke="midnightblue" d="M667.634,-105.081C676.329,-105.081 685.18,-105.081 693.81,-105.081"/>
<polygon fill="midnightblue" stroke="midnightblue" points="693.818,-108.581 703.818,-105.081 693.818,-101.581 693.818,-108.581"/>
</g>
<!-- Node7&#45;&gt;Node5 -->
<g id="edge7" class="edge"><title>Node7&#45;&gt;Node5</title>
<path fill="none" stroke="midnightblue" d="M482.084,-66.1515C534.098,-70.2434 605.548,-76.8458 668,-86.0809 681.657,-88.1004 696.322,-90.778 709.945,-93.4842"/>
<polygon fill="midnightblue" stroke="midnightblue" points="709.629,-96.9913 720.126,-95.5487 711.021,-90.131 709.629,-96.9913"/>
</g>
</g>
</svg>
