<?xml version="1.0" encoding="UTF-8" standalone="no"?>
<!DOCTYPE svg PUBLIC "-//W3C//DTD SVG 1.1//EN"
 "http://www.w3.org/Graphics/SVG/1.1/DTD/svg11.dtd">
<!-- Generated by graphviz version 2.36.0 (20140111.2315)
 -->
<!-- Title: ESM::ProjectileState::save Pages: 1 -->
<svg width="1030pt" height="253pt"
 viewBox="0.00 0.00 1030.00 253.00" xmlns="http://www.w3.org/2000/svg" xmlns:xlink="http://www.w3.org/1999/xlink">
<g id="graph0" class="graph" transform="scale(1 1) rotate(0) translate(4 249)">
<title>ESM::ProjectileState::save</title>
<polygon fill="white" stroke="none" points="-4,4 -4,-249 1026,-249 1026,4 -4,4"/>
<!-- Node1 -->
<g id="node1" class="node"><title>Node1</title>
<polygon fill="#bfbfbf" stroke="black" points="0.5,-55 0.5,-85 113.5,-85 113.5,-55 0.5,-55"/>
<text text-anchor="start" x="8.5" y="-73" font-family="FreeSans" font-size="10.00">ESM::ProjectileState</text>
<text text-anchor="middle" x="57" y="-62" font-family="FreeSans" font-size="10.00">::save</text>
</g>
<!-- Node2 -->
<g id="node2" class="node"><title>Node2</title>
<g id="a_node2"><a xlink:href="structESM_1_1BaseProjectileState.html#a7d394148e311a19ed377344b30e7c93f" target="_top" xlink:title="ESM::BaseProjectileState\l::save">
<polygon fill="white" stroke="black" points="150.5,-55 150.5,-85 287.5,-85 287.5,-55 150.5,-55"/>
<text text-anchor="start" x="158.5" y="-73" font-family="FreeSans" font-size="10.00">ESM::BaseProjectileState</text>
<text text-anchor="middle" x="219" y="-62" font-family="FreeSans" font-size="10.00">::save</text>
</a>
</g>
</g>
<!-- Node1&#45;&gt;Node2 -->
<g id="edge1" class="edge"><title>Node1&#45;&gt;Node2</title>
<path fill="none" stroke="midnightblue" d="M113.511,-70C122.167,-70 131.247,-70 140.288,-70"/>
<polygon fill="midnightblue" stroke="midnightblue" points="140.454,-73.5001 150.454,-70 140.454,-66.5001 140.454,-73.5001"/>
</g>
<!-- Node3 -->
<g id="node3" class="node"><title>Node3</title>
<g id="a_node3"><a xlink:href="classESM_1_1ESMWriter.html#a22f1e180882cca15b613dba10a298def" target="_top" xlink:title="ESM::ESMWriter::writeHNString">
<polygon fill="white" stroke="black" points="324,-82.5 324,-101.5 488,-101.5 488,-82.5 324,-82.5"/>
<text text-anchor="middle" x="406" y="-89.5" font-family="FreeSans" font-size="10.00">ESM::ESMWriter::writeHNString</text>
</a>
</g>
</g>
<!-- Node1&#45;&gt;Node3 -->
<g id="edge18" class="edge"><title>Node1&#45;&gt;Node3</title>
<path fill="none" stroke="midnightblue" d="M106.246,-85.0538C120.219,-88.7381 135.592,-92.1516 150,-94 204.013,-100.929 264.99,-100.738 313.77,-98.6693"/>
<polygon fill="midnightblue" stroke="midnightblue" points="314.158,-102.155 323.987,-98.2012 313.837,-95.1626 314.158,-102.155"/>
</g>
<!-- Node13 -->
<g id="node13" class="node"><title>Node13</title>
<g id="a_node13"><a xlink:href="classESM_1_1ESMWriter.html#a110e5e311eb1fdd91f944cb760ce0888" target="_top" xlink:title="ESM::ESMWriter::writeHNT">
<polygon fill="white" stroke="black" points="336,-38.5 336,-57.5 476,-57.5 476,-38.5 336,-38.5"/>
<text text-anchor="middle" x="406" y="-45.5" font-family="FreeSans" font-size="10.00">ESM::ESMWriter::writeHNT</text>
</a>
</g>
</g>
<!-- Node1&#45;&gt;Node13 -->
<g id="edge19" class="edge"><title>Node1&#45;&gt;Node13</title>
<path fill="none" stroke="midnightblue" d="M103.84,-54.9772C118.429,-50.8922 134.742,-47.0361 150,-45 208.505,-37.1925 275.23,-38.3303 325.748,-41.214"/>
<polygon fill="midnightblue" stroke="midnightblue" points="325.756,-44.7208 335.95,-41.8325 326.18,-37.7337 325.756,-44.7208"/>
</g>
<!-- Node2&#45;&gt;Node3 -->
<g id="edge2" class="edge"><title>Node2&#45;&gt;Node3</title>
<path fill="none" stroke="midnightblue" d="M287.575,-78.0359C296.519,-79.0996 305.8,-80.2032 315.046,-81.3028"/>
<polygon fill="midnightblue" stroke="midnightblue" points="314.705,-84.7868 325.049,-82.4923 315.532,-77.8358 314.705,-84.7868"/>
</g>
<!-- Node2&#45;&gt;Node13 -->
<g id="edge14" class="edge"><title>Node2&#45;&gt;Node13</title>
<path fill="none" stroke="midnightblue" d="M287.575,-61.9641C299.954,-60.4919 312.978,-58.9432 325.664,-57.4346"/>
<polygon fill="midnightblue" stroke="midnightblue" points="326.23,-60.892 335.747,-56.2355 325.404,-53.9409 326.23,-60.892"/>
</g>
<!-- Node4 -->
<g id="node4" class="node"><title>Node4</title>
<g id="a_node4"><a xlink:href="classESM_1_1ESMWriter.html#a8e375456001f0c1390e688bc11b318f9" target="_top" xlink:title="ESM::ESMWriter::startSub\lRecord">
<polygon fill="white" stroke="black" points="532.5,-77 532.5,-107 671.5,-107 671.5,-77 532.5,-77"/>
<text text-anchor="start" x="540.5" y="-95" font-family="FreeSans" font-size="10.00">ESM::ESMWriter::startSub</text>
<text text-anchor="middle" x="602" y="-84" font-family="FreeSans" font-size="10.00">Record</text>
</a>
</g>
</g>
<!-- Node3&#45;&gt;Node4 -->
<g id="edge3" class="edge"><title>Node3&#45;&gt;Node4</title>
<path fill="none" stroke="midnightblue" d="M488.149,-92C499.438,-92 511.02,-92 522.263,-92"/>
<polygon fill="midnightblue" stroke="midnightblue" points="522.475,-95.5001 532.475,-92 522.475,-88.5001 522.475,-95.5001"/>
</g>
<!-- Node7 -->
<g id="node7" class="node"><title>Node7</title>
<g id="a_node7"><a xlink:href="classESM_1_1ESMWriter.html#af73c2fc8a11d37bce2c6545e0b643513" target="_top" xlink:title="ESM::ESMWriter::writeHString">
<polygon fill="white" stroke="black" points="524,-126.5 524,-145.5 680,-145.5 680,-126.5 524,-126.5"/>
<text text-anchor="middle" x="602" y="-133.5" font-family="FreeSans" font-size="10.00">ESM::ESMWriter::writeHString</text>
</a>
</g>
</g>
<!-- Node3&#45;&gt;Node7 -->
<g id="edge6" class="edge"><title>Node3&#45;&gt;Node7</title>
<path fill="none" stroke="midnightblue" d="M449.095,-101.547C478.458,-108.207 517.828,-117.136 549.13,-124.236"/>
<polygon fill="midnightblue" stroke="midnightblue" points="548.461,-127.673 558.987,-126.471 550.009,-120.846 548.461,-127.673"/>
</g>
<!-- Node12 -->
<g id="node12" class="node"><title>Node12</title>
<g id="a_node12"><a xlink:href="classESM_1_1ESMWriter.html#aa9773ad75705c3078f4c4d7be8d90acb" target="_top" xlink:title="ESM::ESMWriter::endRecord">
<polygon fill="white" stroke="black" points="528,-38.5 528,-57.5 676,-57.5 676,-38.5 528,-38.5"/>
<text text-anchor="middle" x="602" y="-45.5" font-family="FreeSans" font-size="10.00">ESM::ESMWriter::endRecord</text>
</a>
</g>
</g>
<!-- Node3&#45;&gt;Node12 -->
<g id="edge12" class="edge"><title>Node3&#45;&gt;Node12</title>
<path fill="none" stroke="midnightblue" d="M449.095,-82.4527C478.458,-75.7931 517.828,-66.8637 549.13,-59.7642"/>
<polygon fill="midnightblue" stroke="midnightblue" points="550.009,-63.154 558.987,-57.5287 548.461,-56.3273 550.009,-63.154"/>
</g>
<!-- Node5 -->
<g id="node5" class="node"><title>Node5</title>
<g id="a_node5"><a xlink:href="classESM_1_1ESMWriter.html#a41f07f28edc21069fd8c1a836233b18f" target="_top" xlink:title="ESM::ESMWriter::writeName">
<polygon fill="white" stroke="black" points="716.5,-80.5 716.5,-99.5 865.5,-99.5 865.5,-80.5 716.5,-80.5"/>
<text text-anchor="middle" x="791" y="-87.5" font-family="FreeSans" font-size="10.00">ESM::ESMWriter::writeName</text>
</a>
</g>
</g>
<!-- Node4&#45;&gt;Node5 -->
<g id="edge4" class="edge"><title>Node4&#45;&gt;Node5</title>
<path fill="none" stroke="midnightblue" d="M671.57,-91.2666C682.857,-91.1459 694.667,-91.0196 706.274,-90.8955"/>
<polygon fill="midnightblue" stroke="midnightblue" points="706.441,-94.394 716.403,-90.7871 706.366,-87.3944 706.441,-94.394"/>
</g>
<!-- Node6 -->
<g id="node6" class="node"><title>Node6</title>
<g id="a_node6"><a xlink:href="classESM_1_1ESMWriter.html#a9b250b093c6c699f88224fcecc9a8a29" target="_top" xlink:title="ESM::ESMWriter::write">
<polygon fill="white" stroke="black" points="902,-78.5 902,-97.5 1022,-97.5 1022,-78.5 902,-78.5"/>
<text text-anchor="middle" x="962" y="-85.5" font-family="FreeSans" font-size="10.00">ESM::ESMWriter::write</text>
</a>
</g>
</g>
<!-- Node5&#45;&gt;Node6 -->
<g id="edge5" class="edge"><title>Node5&#45;&gt;Node6</title>
<path fill="none" stroke="midnightblue" d="M865.634,-89.1286C874.329,-89.0257 883.18,-88.9209 891.81,-88.8188"/>
<polygon fill="midnightblue" stroke="midnightblue" points="891.86,-92.3186 901.818,-88.7004 891.777,-85.3191 891.86,-92.3186"/>
</g>
<!-- Node7&#45;&gt;Node6 -->
<g id="edge7" class="edge"><title>Node7&#45;&gt;Node6</title>
<path fill="none" stroke="midnightblue" d="M680.123,-130.437C732.705,-126.068 803.807,-119.032 866,-109 881.175,-106.552 897.565,-103.191 912.39,-99.8753"/>
<polygon fill="midnightblue" stroke="midnightblue" points="913.397,-103.235 922.368,-97.5988 911.84,-96.4108 913.397,-103.235"/>
</g>
<!-- Node8 -->
<g id="node8" class="node"><title>Node8</title>
<g id="a_node8"><a xlink:href="classToUTF8_1_1Utf8Encoder.html#a645d13bb7de23b466edb0f422605d0e4" target="_top" xlink:title="ToUTF8::Utf8Encoder\l::getLegacyEnc">
<polygon fill="white" stroke="black" points="733,-164 733,-194 849,-194 849,-164 733,-164"/>
<text text-anchor="start" x="741" y="-182" font-family="FreeSans" font-size="10.00">ToUTF8::Utf8Encoder</text>
<text text-anchor="middle" x="791" y="-171" font-family="FreeSans" font-size="10.00">::getLegacyEnc</text>
</a>
</g>
</g>
<!-- Node7&#45;&gt;Node8 -->
<g id="edge8" class="edge"><title>Node7&#45;&gt;Node8</title>
<path fill="none" stroke="midnightblue" d="M644.501,-145.543C667.496,-150.831 696.642,-157.533 722.799,-163.547"/>
<polygon fill="midnightblue" stroke="midnightblue" points="722.129,-166.985 732.659,-165.815 723.698,-160.163 722.129,-166.985"/>
</g>
<!-- Node9 -->
<g id="node9" class="node"><title>Node9</title>
<g id="a_node9"><a xlink:href="classToUTF8_1_1Utf8Encoder.html#ab8787c5838bad4f54018c2d0cd2d46d2" target="_top" xlink:title="ToUTF8::Utf8Encoder\l::getLength2">
<polygon fill="white" stroke="black" points="904,-215 904,-245 1020,-245 1020,-215 904,-215"/>
<text text-anchor="start" x="912" y="-233" font-family="FreeSans" font-size="10.00">ToUTF8::Utf8Encoder</text>
<text text-anchor="middle" x="962" y="-222" font-family="FreeSans" font-size="10.00">::getLength2</text>
</a>
</g>
</g>
<!-- Node8&#45;&gt;Node9 -->
<g id="edge9" class="edge"><title>Node8&#45;&gt;Node9</title>
<path fill="none" stroke="midnightblue" d="M841.792,-194.026C860.532,-199.681 882.03,-206.169 901.563,-212.063"/>
<polygon fill="midnightblue" stroke="midnightblue" points="900.688,-215.455 911.273,-214.994 902.71,-208.754 900.688,-215.455"/>
</g>
<!-- Node10 -->
<g id="node10" class="node"><title>Node10</title>
<g id="a_node10"><a xlink:href="classToUTF8_1_1Utf8Encoder.html#a80b3e05967c1f28c1ce5325093bda679" target="_top" xlink:title="ToUTF8::Utf8Encoder\l::resize">
<polygon fill="white" stroke="black" points="904,-166 904,-196 1020,-196 1020,-166 904,-166"/>
<text text-anchor="start" x="912" y="-184" font-family="FreeSans" font-size="10.00">ToUTF8::Utf8Encoder</text>
<text text-anchor="middle" x="962" y="-173" font-family="FreeSans" font-size="10.00">::resize</text>
</a>
</g>
</g>
<!-- Node8&#45;&gt;Node10 -->
<g id="edge10" class="edge"><title>Node8&#45;&gt;Node10</title>
<path fill="none" stroke="midnightblue" d="M849.216,-179.677C863.532,-179.847 879.018,-180.03 893.77,-180.204"/>
<polygon fill="midnightblue" stroke="midnightblue" points="893.802,-183.705 903.843,-180.324 893.885,-176.705 893.802,-183.705"/>
</g>
<!-- Node11 -->
<g id="node11" class="node"><title>Node11</title>
<g id="a_node11"><a xlink:href="classToUTF8_1_1Utf8Encoder.html#abdb4c1e6b38b7f88fb953a237c764057" target="_top" xlink:title="ToUTF8::Utf8Encoder\l::copyFromArray2">
<polygon fill="white" stroke="black" points="904,-117 904,-147 1020,-147 1020,-117 904,-117"/>
<text text-anchor="start" x="912" y="-135" font-family="FreeSans" font-size="10.00">ToUTF8::Utf8Encoder</text>
<text text-anchor="middle" x="962" y="-124" font-family="FreeSans" font-size="10.00">::copyFromArray2</text>
</a>
</g>
</g>
<!-- Node8&#45;&gt;Node11 -->
<g id="edge11" class="edge"><title>Node8&#45;&gt;Node11</title>
<path fill="none" stroke="midnightblue" d="M845.937,-164C862.249,-159.463 880.317,-154.439 897.208,-149.741"/>
<polygon fill="midnightblue" stroke="midnightblue" points="898.299,-153.07 906.995,-147.019 896.423,-146.326 898.299,-153.07"/>
</g>
<!-- Node12&#45;&gt;Node6 -->
<g id="edge13" class="edge"><title>Node12&#45;&gt;Node6</title>
<path fill="none" stroke="midnightblue" d="M676.034,-52.6189C728.92,-56.3937 802.051,-62.4995 866,-71 877.808,-72.5696 890.384,-74.5785 902.391,-76.6616"/>
<polygon fill="midnightblue" stroke="midnightblue" points="901.857,-80.1213 912.314,-78.4209 903.079,-73.2288 901.857,-80.1213"/>
</g>
<!-- Node13&#45;&gt;Node4 -->
<g id="edge15" class="edge"><title>Node13&#45;&gt;Node4</title>
<path fill="none" stroke="midnightblue" d="M449.095,-57.5473C471.23,-62.5676 499.052,-68.8777 524.817,-74.7215"/>
<polygon fill="midnightblue" stroke="midnightblue" points="524.049,-78.136 534.575,-76.9346 525.597,-71.3094 524.049,-78.136"/>
</g>
<!-- Node13&#45;&gt;Node12 -->
<g id="edge17" class="edge"><title>Node13&#45;&gt;Node12</title>
<path fill="none" stroke="midnightblue" d="M476.217,-48C489.702,-48 503.969,-48 517.849,-48"/>
<polygon fill="midnightblue" stroke="midnightblue" points="517.872,-51.5001 527.872,-48 517.872,-44.5001 517.872,-51.5001"/>
</g>
<!-- Node14 -->
<g id="node14" class="node"><title>Node14</title>
<g id="a_node14"><a xlink:href="classESM_1_1ESMWriter.html#abad69b94dce1ed3c6178612dbef2c65a" target="_top" xlink:title="ESM::ESMWriter::writeT">
<polygon fill="white" stroke="black" points="539.5,-0.5 539.5,-19.5 664.5,-19.5 664.5,-0.5 539.5,-0.5"/>
<text text-anchor="middle" x="602" y="-7.5" font-family="FreeSans" font-size="10.00">ESM::ESMWriter::writeT</text>
</a>
</g>
</g>
<!-- Node13&#45;&gt;Node14 -->
<g id="edge16" class="edge"><title>Node13&#45;&gt;Node14</title>
<path fill="none" stroke="midnightblue" d="M455.954,-38.411C482.247,-33.261 514.84,-26.8768 542.465,-21.4656"/>
<polygon fill="midnightblue" stroke="midnightblue" points="543.257,-24.8771 552.398,-19.5201 541.911,-18.0076 543.257,-24.8771"/>
</g>
</g>
</svg>
