<?xml version="1.0" encoding="UTF-8" standalone="no"?>
<!DOCTYPE svg PUBLIC "-//W3C//DTD SVG 1.1//EN"
 "http://www.w3.org/Graphics/SVG/1.1/DTD/svg11.dtd">
<!-- Generated by graphviz version 2.36.0 (20140111.2315)
 -->
<!-- Title: ESM::Light::LHDTstruct Pages: 1 -->
<svg width="216pt" height="204pt"
 viewBox="0.00 0.00 216.00 204.00" xmlns="http://www.w3.org/2000/svg" xmlns:xlink="http://www.w3.org/1999/xlink">
<g id="graph0" class="graph" transform="scale(1 1) rotate(0) translate(4 200)">
<title>ESM::Light::LHDTstruct</title>
<polygon fill="white" stroke="none" points="-4,4 -4,-200 212,-200 212,4 -4,4"/>
<!-- Node1 -->
<g id="node1" class="node"><title>Node1</title>
<polygon fill="#bfbfbf" stroke="black" points="32.5,-0.5 32.5,-57.5 157.5,-57.5 157.5,-0.5 32.5,-0.5"/>
<text text-anchor="middle" x="95" y="-45.5" font-family="FreeSans" font-size="10.00">ESM::Light::LHDTstruct</text>
<polyline fill="none" stroke="black" points="32.5,-38.5 157.5,-38.5 "/>
<text text-anchor="middle" x="95" y="-26.5" font-family="FreeSans" font-size="10.00"> </text>
<polyline fill="none" stroke="black" points="32.5,-19.5 157.5,-19.5 "/>
<text text-anchor="middle" x="95" y="-7.5" font-family="FreeSans" font-size="10.00"> </text>
</g>
<!-- Node2 -->
<g id="node2" class="node"><title>Node2</title>
<polygon fill="white" stroke="#bfbfbf" points="0,-138.5 0,-195.5 38,-195.5 38,-138.5 0,-138.5"/>
<text text-anchor="middle" x="19" y="-183.5" font-family="FreeSans" font-size="10.00">float</text>
<polyline fill="none" stroke="#bfbfbf" points="0,-176.5 38,-176.5 "/>
<text text-anchor="middle" x="19" y="-164.5" font-family="FreeSans" font-size="10.00"> </text>
<polyline fill="none" stroke="#bfbfbf" points="0,-157.5 38,-157.5 "/>
<text text-anchor="middle" x="19" y="-145.5" font-family="FreeSans" font-size="10.00"> </text>
</g>
<!-- Node2&#45;&gt;Node1 -->
<g id="edge1" class="edge"><title>Node2&#45;&gt;Node1</title>
<path fill="none" stroke="#404040" d="M20.0479,-138.238C21.8612,-119.474 26.4826,-94.7886 38,-76 40.0602,-72.6391 42.4573,-69.4177 45.0795,-66.3512"/>
<polygon fill="none" stroke="#404040" points="45.1683,-66.2593 46.4631,-59.1653 53.5094,-57.6321 52.2146,-64.726 45.1683,-66.2593"/>
<text text-anchor="middle" x="64.5" y="-95.5" font-family="FreeSans" font-size="10.00"> +mWeight</text>
</g>
<!-- Node3 -->
<g id="node3" class="node"><title>Node3</title>
<g id="a_node3"><a xlink:href="classint.html" target="_top" xlink:title="{int\n||}">
<polygon fill="white" stroke="black" points="80.5,-138.5 80.5,-195.5 109.5,-195.5 109.5,-138.5 80.5,-138.5"/>
<text text-anchor="middle" x="95" y="-183.5" font-family="FreeSans" font-size="10.00">int</text>
<polyline fill="none" stroke="black" points="80.5,-176.5 109.5,-176.5 "/>
<text text-anchor="middle" x="95" y="-164.5" font-family="FreeSans" font-size="10.00"> </text>
<polyline fill="none" stroke="black" points="80.5,-157.5 109.5,-157.5 "/>
<text text-anchor="middle" x="95" y="-145.5" font-family="FreeSans" font-size="10.00"> </text>
</a>
</g>
</g>
<!-- Node3&#45;&gt;Node1 -->
<g id="edge2" class="edge"><title>Node3&#45;&gt;Node1</title>
<path fill="none" stroke="#404040" d="M95,-138.478C95,-118.792 95,-91.9899 95,-69.9526"/>
<polygon fill="none" stroke="#404040" points="95.0001,-69.9475 91,-63.9475 95,-57.9475 99,-63.9475 95.0001,-69.9475"/>
<text text-anchor="middle" x="120" y="-112" font-family="FreeSans" font-size="10.00"> +mValue</text>
<text text-anchor="middle" x="120" y="-101" font-family="FreeSans" font-size="10.00">+mFlags</text>
<text text-anchor="middle" x="120" y="-90" font-family="FreeSans" font-size="10.00">+mTime</text>
<text text-anchor="middle" x="120" y="-79" font-family="FreeSans" font-size="10.00">+mRadius</text>
</g>
<!-- Node4 -->
<g id="node4" class="node"><title>Node4</title>
<polygon fill="white" stroke="#bfbfbf" points="138,-138.5 138,-195.5 198,-195.5 198,-138.5 138,-138.5"/>
<text text-anchor="middle" x="168" y="-183.5" font-family="FreeSans" font-size="10.00">unsigned</text>
<polyline fill="none" stroke="#bfbfbf" points="138,-176.5 198,-176.5 "/>
<text text-anchor="middle" x="168" y="-164.5" font-family="FreeSans" font-size="10.00"> </text>
<polyline fill="none" stroke="#bfbfbf" points="138,-157.5 198,-157.5 "/>
<text text-anchor="middle" x="168" y="-145.5" font-family="FreeSans" font-size="10.00"> </text>
</g>
<!-- Node4&#45;&gt;Node1 -->
<g id="edge3" class="edge"><title>Node4&#45;&gt;Node1</title>
<path fill="none" stroke="#404040" d="M165.54,-138.41C162.884,-119.722 157.38,-95.058 146,-76 144.105,-72.8264 141.921,-69.7469 139.546,-66.7852"/>
<polygon fill="none" stroke="#404040" points="139.452,-66.6803 132.466,-64.8924 131.429,-57.7562 138.415,-59.5441 139.452,-66.6803"/>
<text text-anchor="middle" x="185" y="-95.5" font-family="FreeSans" font-size="10.00"> +mColor</text>
</g>
</g>
</svg>
