<?xml version="1.0" encoding="UTF-8" standalone="no"?>
<!DOCTYPE svg PUBLIC "-//W3C//DTD SVG 1.1//EN"
 "http://www.w3.org/Graphics/SVG/1.1/DTD/svg11.dtd">
<!-- Generated by graphviz version 2.36.0 (20140111.2315)
 -->
<!-- Title: MWMechanics::AiCombatStorage Pages: 1 -->
<svg width="182pt" height="370pt"
 viewBox="0.00 0.00 182.00 370.00" xmlns="http://www.w3.org/2000/svg" xmlns:xlink="http://www.w3.org/1999/xlink">
<g id="graph0" class="graph" transform="scale(1 1) rotate(0) translate(4 366)">
<title>MWMechanics::AiCombatStorage</title>
<polygon fill="white" stroke="none" points="-4,4 -4,-366 178,-366 178,4 -4,4"/>
<!-- Node1 -->
<g id="node1" class="node"><title>Node1</title>
<polygon fill="#bfbfbf" stroke="black" points="-0.5,-1 -0.5,-267 174.5,-267 174.5,-1 -0.5,-1"/>
<text text-anchor="middle" x="87" y="-255" font-family="FreeSans" font-size="10.00">MWMechanics::AiCombatStorage</text>
<polyline fill="none" stroke="black" points="-0.5,-248 174.5,-248 "/>
<text text-anchor="start" x="7.5" y="-236" font-family="FreeSans" font-size="10.00">+ mAttackCooldown</text>
<text text-anchor="start" x="7.5" y="-225" font-family="FreeSans" font-size="10.00">+ mTimerReact</text>
<text text-anchor="start" x="7.5" y="-214" font-family="FreeSans" font-size="10.00">+ mTimerCombatMove</text>
<text text-anchor="start" x="7.5" y="-203" font-family="FreeSans" font-size="10.00">+ mReadyToAttack</text>
<text text-anchor="start" x="7.5" y="-192" font-family="FreeSans" font-size="10.00">+ mAttack</text>
<text text-anchor="start" x="7.5" y="-181" font-family="FreeSans" font-size="10.00">+ mAttackRange</text>
<text text-anchor="start" x="7.5" y="-170" font-family="FreeSans" font-size="10.00">+ mCombatMove</text>
<text text-anchor="start" x="7.5" y="-159" font-family="FreeSans" font-size="10.00">+ mLastTargetPos</text>
<text text-anchor="start" x="7.5" y="-148" font-family="FreeSans" font-size="10.00">+ mCell</text>
<text text-anchor="start" x="7.5" y="-137" font-family="FreeSans" font-size="10.00">+ mCurrentAction</text>
<text text-anchor="start" x="7.5" y="-126" font-family="FreeSans" font-size="10.00">and 10 more...</text>
<polyline fill="none" stroke="black" points="-0.5,-119 174.5,-119 "/>
<text text-anchor="start" x="7.5" y="-107" font-family="FreeSans" font-size="10.00">+ AiCombatStorage()</text>
<text text-anchor="start" x="7.5" y="-96" font-family="FreeSans" font-size="10.00">+ startCombatMove()</text>
<text text-anchor="start" x="7.5" y="-85" font-family="FreeSans" font-size="10.00">+ updateCombatMove()</text>
<text text-anchor="start" x="7.5" y="-74" font-family="FreeSans" font-size="10.00">+ stopCombatMove()</text>
<text text-anchor="start" x="7.5" y="-63" font-family="FreeSans" font-size="10.00">+ startAttackIfReady()</text>
<text text-anchor="start" x="7.5" y="-52" font-family="FreeSans" font-size="10.00">+ updateAttack()</text>
<text text-anchor="start" x="7.5" y="-41" font-family="FreeSans" font-size="10.00">+ stopAttack()</text>
<text text-anchor="start" x="7.5" y="-30" font-family="FreeSans" font-size="10.00">+ startFleeing()</text>
<text text-anchor="start" x="7.5" y="-19" font-family="FreeSans" font-size="10.00">+ stopFleeing()</text>
<text text-anchor="start" x="7.5" y="-8" font-family="FreeSans" font-size="10.00">+ isFleeing()</text>
</g>
<!-- Node2 -->
<g id="node2" class="node"><title>Node2</title>
<g id="a_node2"><a xlink:href="structMWMechanics_1_1AiTemporaryBase.html" target="_top" xlink:title="base class for the temporary storage of AiPackages. ">
<polygon fill="white" stroke="black" points="0.5,-304.5 0.5,-361.5 173.5,-361.5 173.5,-304.5 0.5,-304.5"/>
<text text-anchor="middle" x="87" y="-349.5" font-family="FreeSans" font-size="10.00">MWMechanics::AiTemporaryBase</text>
<polyline fill="none" stroke="black" points="0.5,-342.5 173.5,-342.5 "/>
<text text-anchor="middle" x="87" y="-330.5" font-family="FreeSans" font-size="10.00"> </text>
<polyline fill="none" stroke="black" points="0.5,-323.5 173.5,-323.5 "/>
<text text-anchor="start" x="8.5" y="-311.5" font-family="FreeSans" font-size="10.00">+ ~AiTemporaryBase()</text>
</a>
</g>
</g>
<!-- Node2&#45;&gt;Node1 -->
<g id="edge1" class="edge"><title>Node2&#45;&gt;Node1</title>
<path fill="none" stroke="midnightblue" d="M87,-294C87,-285.821 87,-276.734 87,-267.165"/>
<polygon fill="none" stroke="midnightblue" points="83.5001,-294.193 87,-304.193 90.5001,-294.193 83.5001,-294.193"/>
</g>
</g>
</svg>
