<?xml version="1.0" encoding="UTF-8" standalone="no"?>
<!DOCTYPE svg PUBLIC "-//W3C//DTD SVG 1.1//EN"
 "http://www.w3.org/Graphics/SVG/1.1/DTD/svg11.dtd">
<!-- Generated by graphviz version 2.36.0 (20140111.2315)
 -->
<!-- Title: ESSImport::Inventory::load Pages: 1 -->
<svg width="1588pt" height="442pt"
 viewBox="0.00 0.00 1588.00 442.31" xmlns="http://www.w3.org/2000/svg" xmlns:xlink="http://www.w3.org/1999/xlink">
<g id="graph0" class="graph" transform="scale(1 1) rotate(0) translate(4 438.305)">
<title>ESSImport::Inventory::load</title>
<polygon fill="white" stroke="none" points="-4,4 -4,-438.305 1584,-438.305 1584,4 -4,4"/>
<!-- Node1 -->
<g id="node1" class="node"><title>Node1</title>
<polygon fill="#bfbfbf" stroke="black" points="0,-122.305 0,-152.305 118,-152.305 118,-122.305 0,-122.305"/>
<text text-anchor="start" x="8" y="-140.305" font-family="FreeSans" font-size="10.00">ESSImport::Inventory</text>
<text text-anchor="middle" x="59" y="-129.305" font-family="FreeSans" font-size="10.00">::load</text>
</g>
<!-- Node2 -->
<g id="node2" class="node"><title>Node2</title>
<g id="a_node2"><a xlink:href="classESM_1_1ESMReader.html#a73984859aa2bc49103b828b2d0a1b43e" target="_top" xlink:title="ESM::ESMReader::isNextSub">
<polygon fill="white" stroke="black" points="520,-260.805 520,-279.805 672,-279.805 672,-260.805 520,-260.805"/>
<text text-anchor="middle" x="596" y="-267.805" font-family="FreeSans" font-size="10.00">ESM::ESMReader::isNextSub</text>
</a>
</g>
</g>
<!-- Node1&#45;&gt;Node2 -->
<g id="edge1" class="edge"><title>Node1&#45;&gt;Node2</title>
<path fill="none" stroke="midnightblue" d="M69.3087,-152.376C84.5435,-176.034 116.852,-222.188 154,-251.305 215.329,-299.377 236.026,-309.983 312,-327.305 385.665,-344.101 412.593,-357.16 482,-327.305 503.371,-318.113 497.894,-301.009 518,-289.305 521.853,-287.063 525.962,-285.083 530.202,-283.337"/>
<polygon fill="midnightblue" stroke="midnightblue" points="531.461,-286.603 539.644,-279.873 529.05,-280.031 531.461,-286.603"/>
</g>
<!-- Node6 -->
<g id="node6" class="node"><title>Node6</title>
<g id="a_node6"><a xlink:href="classESM_1_1ESMReader.html#a641a33a8cba2fc61d6431505391c5975" target="_top" xlink:title="Used for error handling. ">
<polygon fill="white" stroke="black" points="1282.5,-84.8054 1282.5,-103.805 1399.5,-103.805 1399.5,-84.8054 1282.5,-84.8054"/>
<text text-anchor="middle" x="1341" y="-91.8054" font-family="FreeSans" font-size="10.00">ESM::ESMReader::fail</text>
</a>
</g>
</g>
<!-- Node1&#45;&gt;Node6 -->
<g id="edge36" class="edge"><title>Node1&#45;&gt;Node6</title>
<path fill="none" stroke="midnightblue" d="M68.7343,-122.301C83.182,-99.0236 114.431,-54.7644 154,-34.3054 250.272,15.4718 287.621,-4.30538 396,-4.30538 396,-4.30538 396,-4.30538 993,-4.30538 1113.27,-4.30538 1249.69,-55.5876 1309.35,-80.731"/>
<polygon fill="midnightblue" stroke="midnightblue" points="1308.01,-83.9656 1318.58,-84.6738 1310.76,-77.528 1308.01,-83.9656"/>
</g>
<!-- Node7 -->
<g id="node7" class="node"><title>Node7</title>
<g id="a_node7"><a xlink:href="classESM_1_1FIXED__STRING__BASE.html#ac6bed15d6c4aa261d961420d4af645c7" target="_top" xlink:title="ESM::FIXED_STRING_BASE\l::toString">
<polygon fill="white" stroke="black" points="1436.5,-249.305 1436.5,-279.305 1579.5,-279.305 1579.5,-249.305 1436.5,-249.305"/>
<text text-anchor="start" x="1444.5" y="-267.305" font-family="FreeSans" font-size="10.00">ESM::FIXED_STRING_BASE</text>
<text text-anchor="middle" x="1508" y="-256.305" font-family="FreeSans" font-size="10.00">::toString</text>
</a>
</g>
</g>
<!-- Node1&#45;&gt;Node7 -->
<g id="edge15" class="edge"><title>Node1&#45;&gt;Node7</title>
<path fill="none" stroke="midnightblue" d="M65.5811,-152.467C77.5963,-183.399 108.554,-254.622 154,-299.305 241.82,-385.652 272.841,-434.305 396,-434.305 396,-434.305 396,-434.305 1174,-434.305 1302.77,-434.305 1431.94,-332.213 1483.56,-286.261"/>
<polygon fill="midnightblue" stroke="midnightblue" points="1486.09,-288.691 1491.17,-279.392 1481.4,-283.496 1486.09,-288.691"/>
</g>
<!-- Node9 -->
<g id="node9" class="node"><title>Node9</title>
<g id="a_node9"><a xlink:href="classESM_1_1ESMReader.html#a1499e8005481bc7f13f4de0c2f3b9ee4" target="_top" xlink:title="ESM::ESMReader::getHT">
<polygon fill="white" stroke="black" points="530,-32.8054 530,-51.8054 662,-51.8054 662,-32.8054 530,-32.8054"/>
<text text-anchor="middle" x="596" y="-39.8054" font-family="FreeSans" font-size="10.00">ESM::ESMReader::getHT</text>
</a>
</g>
</g>
<!-- Node1&#45;&gt;Node9 -->
<g id="edge8" class="edge"><title>Node1&#45;&gt;Node9</title>
<path fill="none" stroke="midnightblue" d="M74.2472,-122.088C91.3333,-104.996 121.732,-78.1073 154,-66.3054 276.035,-21.6715 429.757,-25.6143 519.734,-33.3793"/>
<polygon fill="midnightblue" stroke="midnightblue" points="519.574,-36.8789 529.848,-34.2915 520.203,-29.9072 519.574,-36.8789"/>
</g>
<!-- Node10 -->
<g id="node10" class="node"><title>Node10</title>
<g id="a_node10"><a xlink:href="classESM_1_1ESMReader.html#a365650896a89c3dcb43b2f240e6d5653" target="_top" xlink:title="ESM::ESMReader::getSubHeader">
<polygon fill="white" stroke="black" points="710.5,-108.805 710.5,-127.805 883.5,-127.805 883.5,-108.805 710.5,-108.805"/>
<text text-anchor="middle" x="797" y="-115.805" font-family="FreeSans" font-size="10.00">ESM::ESMReader::getSubHeader</text>
</a>
</g>
</g>
<!-- Node1&#45;&gt;Node10 -->
<g id="edge34" class="edge"><title>Node1&#45;&gt;Node10</title>
<path fill="none" stroke="midnightblue" d="M118.147,-127.899C130.005,-126.017 142.401,-124.075 154,-122.305 224.151,-111.603 241.223,-104.43 312,-99.3054 446.47,-89.5693 602.344,-99.4803 700.071,-108.248"/>
<polygon fill="midnightblue" stroke="midnightblue" points="699.948,-111.751 710.224,-109.174 700.583,-104.78 699.948,-111.751"/>
</g>
<!-- Node11 -->
<g id="node11" class="node"><title>Node11</title>
<g id="a_node11"><a xlink:href="classESM_1_1ESMReader.html#a04b4761b24d98c455289c437d28baea8" target="_top" xlink:title="ESM::ESMReader::getT">
<polygon fill="white" stroke="black" points="929.5,-122.805 929.5,-141.805 1054.5,-141.805 1054.5,-122.805 929.5,-122.805"/>
<text text-anchor="middle" x="992" y="-129.805" font-family="FreeSans" font-size="10.00">ESM::ESMReader::getT</text>
</a>
</g>
</g>
<!-- Node1&#45;&gt;Node11 -->
<g id="edge35" class="edge"><title>Node1&#45;&gt;Node11</title>
<path fill="none" stroke="midnightblue" d="M118.216,-142.598C185.171,-148.22 298.428,-156.305 396,-156.305 396,-156.305 396,-156.305 597,-156.305 709.642,-156.305 840.064,-146.411 918.997,-139.328"/>
<polygon fill="midnightblue" stroke="midnightblue" points="919.668,-142.782 929.311,-138.393 919.036,-135.811 919.668,-142.782"/>
</g>
<!-- Node12 -->
<g id="node12" class="node"><title>Node12</title>
<g id="a_node12"><a xlink:href="structESSImport_1_1SCRI.html#acdaf75a1fb81fd65dfd31b9ded3781a0" target="_top" xlink:title="ESSImport::SCRI::load">
<polygon fill="white" stroke="black" points="154,-222.805 154,-241.805 276,-241.805 276,-222.805 154,-222.805"/>
<text text-anchor="middle" x="215" y="-229.805" font-family="FreeSans" font-size="10.00">ESSImport::SCRI::load</text>
</a>
</g>
</g>
<!-- Node1&#45;&gt;Node12 -->
<g id="edge16" class="edge"><title>Node1&#45;&gt;Node12</title>
<path fill="none" stroke="midnightblue" d="M84.4018,-152.358C113.177,-170.109 160.725,-199.441 189.53,-217.21"/>
<polygon fill="midnightblue" stroke="midnightblue" points="187.827,-220.272 198.176,-222.544 191.502,-214.315 187.827,-220.272"/>
</g>
<!-- Node20 -->
<g id="node20" class="node"><title>Node20</title>
<g id="a_node20"><a xlink:href="classESM_1_1ESMReader.html#a45b4c4d5076772a527726f6d22b08759" target="_top" xlink:title="ESM::ESMReader::getHNOT">
<polygon fill="white" stroke="black" points="323.5,-108.805 323.5,-127.805 470.5,-127.805 470.5,-108.805 323.5,-108.805"/>
<text text-anchor="middle" x="397" y="-115.805" font-family="FreeSans" font-size="10.00">ESM::ESMReader::getHNOT</text>
</a>
</g>
</g>
<!-- Node1&#45;&gt;Node20 -->
<g id="edge31" class="edge"><title>Node1&#45;&gt;Node20</title>
<path fill="none" stroke="midnightblue" d="M118.143,-134.018C171.942,-130.975 252.507,-126.42 313.053,-122.996"/>
<polygon fill="midnightblue" stroke="midnightblue" points="313.564,-126.473 323.351,-122.414 313.169,-119.484 313.564,-126.473"/>
</g>
<!-- Node3 -->
<g id="node3" class="node"><title>Node3</title>
<g id="a_node3"><a xlink:href="classESM_1_1ESMReader.html#aa47320943a7a01bccbec8bab921b0df7" target="_top" xlink:title="ESM::ESMReader::getSubName">
<polygon fill="white" stroke="black" points="713.5,-260.805 713.5,-279.805 880.5,-279.805 880.5,-260.805 713.5,-260.805"/>
<text text-anchor="middle" x="797" y="-267.805" font-family="FreeSans" font-size="10.00">ESM::ESMReader::getSubName</text>
</a>
</g>
</g>
<!-- Node2&#45;&gt;Node3 -->
<g id="edge2" class="edge"><title>Node2&#45;&gt;Node3</title>
<path fill="none" stroke="midnightblue" d="M672.233,-270.305C682.304,-270.305 692.729,-270.305 703.058,-270.305"/>
<polygon fill="midnightblue" stroke="midnightblue" points="703.339,-273.805 713.339,-270.305 703.339,-266.805 703.339,-273.805"/>
</g>
<!-- Node4 -->
<g id="node4" class="node"><title>Node4</title>
<g id="a_node4"><a xlink:href="classESM_1_1FIXED__STRING__BASE.html#ab142a6277b602eba117776eb8e4c508c" target="_top" xlink:title="ESM::FIXED_STRING_BASE\l::data_size">
<polygon fill="white" stroke="black" points="920.5,-249.305 920.5,-279.305 1063.5,-279.305 1063.5,-249.305 920.5,-249.305"/>
<text text-anchor="start" x="928.5" y="-267.305" font-family="FreeSans" font-size="10.00">ESM::FIXED_STRING_BASE</text>
<text text-anchor="middle" x="992" y="-256.305" font-family="FreeSans" font-size="10.00">::data_size</text>
</a>
</g>
</g>
<!-- Node3&#45;&gt;Node4 -->
<g id="edge3" class="edge"><title>Node3&#45;&gt;Node4</title>
<path fill="none" stroke="midnightblue" d="M880.689,-267.735C890.485,-267.43 900.474,-267.12 910.242,-266.816"/>
<polygon fill="midnightblue" stroke="midnightblue" points="910.438,-270.312 920.324,-266.503 910.22,-263.315 910.438,-270.312"/>
</g>
<!-- Node5 -->
<g id="node5" class="node"><title>Node5</title>
<g id="a_node5"><a xlink:href="classESM_1_1ESMReader.html#a623f3d4d7107adf94aeb7c234d01bc9e" target="_top" xlink:title="ESM::ESMReader::getExact">
<polygon fill="white" stroke="black" points="1100,-210.805 1100,-229.805 1246,-229.805 1246,-210.805 1100,-210.805"/>
<text text-anchor="middle" x="1173" y="-217.805" font-family="FreeSans" font-size="10.00">ESM::ESMReader::getExact</text>
</a>
</g>
</g>
<!-- Node3&#45;&gt;Node5 -->
<g id="edge4" class="edge"><title>Node3&#45;&gt;Node5</title>
<path fill="none" stroke="midnightblue" d="M829.281,-260.759C853.741,-253.684 888.727,-244.418 920,-239.305 976.307,-230.101 1040.43,-225.345 1089.91,-222.893"/>
<polygon fill="midnightblue" stroke="midnightblue" points="1090.09,-226.388 1099.92,-222.418 1089.76,-219.396 1090.09,-226.388"/>
</g>
<!-- Node8 -->
<g id="node8" class="node"><title>Node8</title>
<g id="a_node8"><a xlink:href="structESM_1_1FIXED__STRING_3_014_01_4.html#a71af1f5e0756f2fa5b587bda6fc64ec3" target="_top" xlink:title="ESM::FIXED_STRING\&lt;\l 4 \&gt;::rw_data">
<polygon fill="white" stroke="black" points="932.5,-161.305 932.5,-191.305 1051.5,-191.305 1051.5,-161.305 932.5,-161.305"/>
<text text-anchor="start" x="940.5" y="-179.305" font-family="FreeSans" font-size="10.00">ESM::FIXED_STRING&lt;</text>
<text text-anchor="middle" x="992" y="-168.305" font-family="FreeSans" font-size="10.00"> 4 &gt;::rw_data</text>
</a>
</g>
</g>
<!-- Node3&#45;&gt;Node8 -->
<g id="edge7" class="edge"><title>Node3&#45;&gt;Node8</title>
<path fill="none" stroke="midnightblue" d="M850.461,-260.739C862.034,-257.273 873.856,-252.596 884,-246.305 904.327,-233.701 900.518,-220.181 920,-206.305 925.492,-202.394 931.574,-198.859 937.799,-195.706"/>
<polygon fill="midnightblue" stroke="midnightblue" points="939.434,-198.804 946.971,-191.358 936.435,-192.479 939.434,-198.804"/>
</g>
<!-- Node5&#45;&gt;Node6 -->
<g id="edge5" class="edge"><title>Node5&#45;&gt;Node6</title>
<path fill="none" stroke="midnightblue" d="M1186.75,-210.628C1215.31,-188.953 1284.61,-136.349 1319.38,-109.955"/>
<polygon fill="midnightblue" stroke="midnightblue" points="1321.58,-112.678 1327.43,-103.844 1317.35,-107.102 1321.58,-112.678"/>
</g>
<!-- Node6&#45;&gt;Node7 -->
<g id="edge6" class="edge"><title>Node6&#45;&gt;Node7</title>
<path fill="none" stroke="midnightblue" d="M1351.34,-103.932C1376.93,-130.293 1448.64,-204.179 1485.11,-241.752"/>
<polygon fill="midnightblue" stroke="midnightblue" points="1482.85,-244.451 1492.33,-249.189 1487.87,-239.575 1482.85,-244.451"/>
</g>
<!-- Node9&#45;&gt;Node6 -->
<g id="edge13" class="edge"><title>Node9&#45;&gt;Node6</title>
<path fill="none" stroke="midnightblue" d="M662.277,-45.847C720.461,-49.0812 807.932,-54.1336 884,-59.3054 1021.92,-68.6825 1183.16,-81.4937 1272.2,-88.7306"/>
<polygon fill="midnightblue" stroke="midnightblue" points="1272.19,-92.2405 1282.44,-89.5635 1272.75,-85.2636 1272.19,-92.2405"/>
</g>
<!-- Node9&#45;&gt;Node10 -->
<g id="edge9" class="edge"><title>Node9&#45;&gt;Node10</title>
<path fill="none" stroke="midnightblue" d="M637.257,-51.8879C649.427,-55.5606 662.583,-60.3385 674,-66.3054 691.964,-75.6942 691.897,-85.1871 710,-94.3054 719.232,-98.9556 729.49,-102.812 739.614,-105.972"/>
<polygon fill="midnightblue" stroke="midnightblue" points="738.659,-109.339 749.24,-108.792 740.627,-102.622 738.659,-109.339"/>
</g>
<!-- Node9&#45;&gt;Node11 -->
<g id="edge14" class="edge"><title>Node9&#45;&gt;Node11</title>
<path fill="none" stroke="midnightblue" d="M654.02,-51.8416C712.213,-61.9916 804.953,-79.323 884,-99.3054 907.161,-105.16 932.743,-112.999 953.084,-119.567"/>
<polygon fill="midnightblue" stroke="midnightblue" points="952.022,-122.902 962.615,-122.675 954.193,-116.247 952.022,-122.902"/>
</g>
<!-- Node10&#45;&gt;Node6 -->
<g id="edge10" class="edge"><title>Node10&#45;&gt;Node6</title>
<path fill="none" stroke="midnightblue" d="M883.582,-114.516C991.191,-109.751 1173.73,-101.668 1272.2,-97.3075"/>
<polygon fill="midnightblue" stroke="midnightblue" points="1272.5,-100.798 1282.33,-96.8589 1272.19,-93.8048 1272.5,-100.798"/>
</g>
<!-- Node10&#45;&gt;Node11 -->
<g id="edge11" class="edge"><title>Node10&#45;&gt;Node11</title>
<path fill="none" stroke="midnightblue" d="M883.777,-124.528C895.69,-125.392 907.824,-126.272 919.441,-127.115"/>
<polygon fill="midnightblue" stroke="midnightblue" points="919.27,-130.611 929.497,-127.844 919.777,-123.63 919.27,-130.611"/>
</g>
<!-- Node11&#45;&gt;Node5 -->
<g id="edge12" class="edge"><title>Node11&#45;&gt;Node5</title>
<path fill="none" stroke="midnightblue" d="M1037.28,-141.901C1046.3,-144.478 1055.59,-147.601 1064,-151.305 1096.6,-165.67 1130.67,-189.06 1151.62,-204.565"/>
<polygon fill="midnightblue" stroke="midnightblue" points="1149.66,-207.466 1159.75,-210.678 1153.86,-201.871 1149.66,-207.466"/>
</g>
<!-- Node12&#45;&gt;Node2 -->
<g id="edge28" class="edge"><title>Node12&#45;&gt;Node2</title>
<path fill="none" stroke="midnightblue" d="M276.099,-241.637C287.981,-243.321 300.371,-244.966 312,-246.305 378.174,-253.929 453.314,-260.19 509.531,-264.404"/>
<polygon fill="midnightblue" stroke="midnightblue" points="509.569,-267.916 519.801,-265.166 510.088,-260.935 509.569,-267.916"/>
</g>
<!-- Node12&#45;&gt;Node10 -->
<g id="edge29" class="edge"><title>Node12&#45;&gt;Node10</title>
<path fill="none" stroke="midnightblue" d="M264.453,-222.782C370.431,-201.952 622.497,-152.408 737.268,-129.849"/>
<polygon fill="midnightblue" stroke="midnightblue" points="738.14,-133.245 747.277,-127.882 736.79,-126.376 738.14,-133.245"/>
</g>
<!-- Node12&#45;&gt;Node11 -->
<g id="edge30" class="edge"><title>Node12&#45;&gt;Node11</title>
<path fill="none" stroke="midnightblue" d="M276.034,-234.607C394.879,-237.464 667.359,-235.52 884,-170.305 901.324,-165.09 903.156,-157.907 920,-151.305 926.226,-148.865 932.878,-146.628 939.521,-144.612"/>
<polygon fill="midnightblue" stroke="midnightblue" points="940.559,-147.956 949.197,-141.821 938.619,-141.23 940.559,-147.956"/>
</g>
<!-- Node13 -->
<g id="node13" class="node"><title>Node13</title>
<g id="a_node13"><a xlink:href="classESM_1_1ESMReader.html#a126070ed257a9c3751eb4c188e72e036" target="_top" xlink:title="ESM::ESMReader::getHNOString">
<polygon fill="white" stroke="black" points="312,-298.805 312,-317.805 482,-317.805 482,-298.805 312,-298.805"/>
<text text-anchor="middle" x="397" y="-305.805" font-family="FreeSans" font-size="10.00">ESM::ESMReader::getHNOString</text>
</a>
</g>
</g>
<!-- Node12&#45;&gt;Node13 -->
<g id="edge17" class="edge"><title>Node12&#45;&gt;Node13</title>
<path fill="none" stroke="midnightblue" d="M231.122,-241.847C249.62,-253.196 282.165,-272.133 312,-284.305 322.753,-288.692 334.588,-292.602 345.896,-295.928"/>
<polygon fill="midnightblue" stroke="midnightblue" points="345.082,-299.335 355.658,-298.697 346.993,-292.6 345.082,-299.335"/>
</g>
<!-- Node13&#45;&gt;Node2 -->
<g id="edge18" class="edge"><title>Node13&#45;&gt;Node2</title>
<path fill="none" stroke="midnightblue" d="M447.457,-298.765C474.154,-293.616 507.304,-287.221 535.415,-281.799"/>
<polygon fill="midnightblue" stroke="midnightblue" points="536.366,-285.18 545.523,-279.849 535.041,-278.307 536.366,-285.18"/>
</g>
<!-- Node14 -->
<g id="node14" class="node"><title>Node14</title>
<g id="a_node14"><a xlink:href="classESM_1_1ESMReader.html#ab0b044c1028b117dfb0aae39135af948" target="_top" xlink:title="ESM::ESMReader::getHString">
<polygon fill="white" stroke="black" points="518.5,-298.805 518.5,-317.805 673.5,-317.805 673.5,-298.805 518.5,-298.805"/>
<text text-anchor="middle" x="596" y="-305.805" font-family="FreeSans" font-size="10.00">ESM::ESMReader::getHString</text>
</a>
</g>
</g>
<!-- Node13&#45;&gt;Node14 -->
<g id="edge19" class="edge"><title>Node13&#45;&gt;Node14</title>
<path fill="none" stroke="midnightblue" d="M482.117,-308.305C490.761,-308.305 499.556,-308.305 508.228,-308.305"/>
<polygon fill="midnightblue" stroke="midnightblue" points="508.336,-311.805 518.336,-308.305 508.336,-304.805 508.336,-311.805"/>
</g>
<!-- Node14&#45;&gt;Node5 -->
<g id="edge21" class="edge"><title>Node14&#45;&gt;Node5</title>
<path fill="none" stroke="midnightblue" d="M673.865,-316.856C768.142,-324.684 931.721,-329.567 1064,-288.305 1068.65,-286.855 1117.85,-255.325 1148.22,-235.714"/>
<polygon fill="midnightblue" stroke="midnightblue" points="1150.47,-238.426 1156.97,-230.057 1146.67,-232.548 1150.47,-238.426"/>
</g>
<!-- Node14&#45;&gt;Node10 -->
<g id="edge20" class="edge"><title>Node14&#45;&gt;Node10</title>
<path fill="none" stroke="midnightblue" d="M655.271,-298.709C661.896,-296.254 668.304,-293.173 674,-289.305 704.039,-268.908 761.16,-176.783 785.058,-136.856"/>
<polygon fill="midnightblue" stroke="midnightblue" points="788.278,-138.289 790.382,-127.905 782.262,-134.71 788.278,-138.289"/>
</g>
<!-- Node15 -->
<g id="node15" class="node"><title>Node15</title>
<g id="a_node15"><a xlink:href="classESM_1_1ESMReader.html#a8743de63f7c4cb6d89d82f38ba452127" target="_top" xlink:title="ESM::ESMReader::getString">
<polygon fill="white" stroke="black" points="723,-336.805 723,-355.805 871,-355.805 871,-336.805 723,-336.805"/>
<text text-anchor="middle" x="797" y="-343.805" font-family="FreeSans" font-size="10.00">ESM::ESMReader::getString</text>
</a>
</g>
</g>
<!-- Node14&#45;&gt;Node15 -->
<g id="edge22" class="edge"><title>Node14&#45;&gt;Node15</title>
<path fill="none" stroke="midnightblue" d="M646.959,-317.845C674.045,-323.018 707.708,-329.446 736.183,-334.883"/>
<polygon fill="midnightblue" stroke="midnightblue" points="735.541,-338.324 746.02,-336.762 736.854,-331.448 735.541,-338.324"/>
</g>
<!-- Node15&#45;&gt;Node5 -->
<g id="edge23" class="edge"><title>Node15&#45;&gt;Node5</title>
<path fill="none" stroke="midnightblue" d="M866.946,-355.824C923.832,-360.174 1004.56,-357.982 1064,-322.305 1089.05,-307.27 1079.33,-287.951 1100,-267.305 1112.91,-254.412 1129.9,-243.116 1144.14,-234.832"/>
<polygon fill="midnightblue" stroke="midnightblue" points="1146.03,-237.788 1153.03,-229.837 1142.6,-231.686 1146.03,-237.788"/>
</g>
<!-- Node16 -->
<g id="node16" class="node"><title>Node16</title>
<g id="a_node16"><a xlink:href="classToUTF8_1_1Utf8Encoder.html#a69a05afd17b7270edf61c1e5edce79e9" target="_top" xlink:title="ToUTF8::Utf8Encoder\l::getUtf8">
<polygon fill="white" stroke="black" points="934,-375.305 934,-405.305 1050,-405.305 1050,-375.305 934,-375.305"/>
<text text-anchor="start" x="942" y="-393.305" font-family="FreeSans" font-size="10.00">ToUTF8::Utf8Encoder</text>
<text text-anchor="middle" x="992" y="-382.305" font-family="FreeSans" font-size="10.00">::getUtf8</text>
</a>
</g>
</g>
<!-- Node15&#45;&gt;Node16 -->
<g id="edge24" class="edge"><title>Node15&#45;&gt;Node16</title>
<path fill="none" stroke="midnightblue" d="M839.878,-355.853C864.365,-361.435 895.849,-368.613 923.736,-374.971"/>
<polygon fill="midnightblue" stroke="midnightblue" points="923.3,-378.461 933.828,-377.271 924.856,-371.636 923.3,-378.461"/>
</g>
<!-- Node17 -->
<g id="node17" class="node"><title>Node17</title>
<g id="a_node17"><a xlink:href="classToUTF8_1_1Utf8Encoder.html#a1dd97261b538a0a33218d31c82c37f74" target="_top" xlink:title="ToUTF8::Utf8Encoder\l::getLength">
<polygon fill="white" stroke="black" points="1115,-277.305 1115,-307.305 1231,-307.305 1231,-277.305 1115,-277.305"/>
<text text-anchor="start" x="1123" y="-295.305" font-family="FreeSans" font-size="10.00">ToUTF8::Utf8Encoder</text>
<text text-anchor="middle" x="1173" y="-284.305" font-family="FreeSans" font-size="10.00">::getLength</text>
</a>
</g>
</g>
<!-- Node16&#45;&gt;Node17 -->
<g id="edge25" class="edge"><title>Node16&#45;&gt;Node17</title>
<path fill="none" stroke="midnightblue" d="M1037.98,-375.205C1047.04,-371.112 1056.18,-366.158 1064,-360.305 1084.23,-345.167 1079.2,-330.643 1100,-316.305 1102.26,-314.747 1104.63,-313.283 1107.08,-311.909"/>
<polygon fill="midnightblue" stroke="midnightblue" points="1108.85,-314.935 1116.21,-307.316 1105.71,-308.681 1108.85,-314.935"/>
</g>
<!-- Node18 -->
<g id="node18" class="node"><title>Node18</title>
<g id="a_node18"><a xlink:href="classToUTF8_1_1Utf8Encoder.html#a80b3e05967c1f28c1ce5325093bda679" target="_top" xlink:title="ToUTF8::Utf8Encoder\l::resize">
<polygon fill="white" stroke="black" points="1115,-375.305 1115,-405.305 1231,-405.305 1231,-375.305 1115,-375.305"/>
<text text-anchor="start" x="1123" y="-393.305" font-family="FreeSans" font-size="10.00">ToUTF8::Utf8Encoder</text>
<text text-anchor="middle" x="1173" y="-382.305" font-family="FreeSans" font-size="10.00">::resize</text>
</a>
</g>
</g>
<!-- Node16&#45;&gt;Node18 -->
<g id="edge26" class="edge"><title>Node16&#45;&gt;Node18</title>
<path fill="none" stroke="midnightblue" d="M1050.13,-390.305C1067.49,-390.305 1086.72,-390.305 1104.68,-390.305"/>
<polygon fill="midnightblue" stroke="midnightblue" points="1104.8,-393.805 1114.8,-390.305 1104.8,-386.805 1104.8,-393.805"/>
</g>
<!-- Node19 -->
<g id="node19" class="node"><title>Node19</title>
<g id="a_node19"><a xlink:href="classToUTF8_1_1Utf8Encoder.html#a203f6c96dde89ec98b709f3e4f95c1f6" target="_top" xlink:title="ToUTF8::Utf8Encoder\l::copyFromArray">
<polygon fill="white" stroke="black" points="1115,-326.305 1115,-356.305 1231,-356.305 1231,-326.305 1115,-326.305"/>
<text text-anchor="start" x="1123" y="-344.305" font-family="FreeSans" font-size="10.00">ToUTF8::Utf8Encoder</text>
<text text-anchor="middle" x="1173" y="-333.305" font-family="FreeSans" font-size="10.00">::copyFromArray</text>
</a>
</g>
</g>
<!-- Node16&#45;&gt;Node19 -->
<g id="edge27" class="edge"><title>Node16&#45;&gt;Node19</title>
<path fill="none" stroke="midnightblue" d="M1048.17,-375.204C1066.88,-370.08 1087.96,-364.31 1107.35,-359.002"/>
<polygon fill="midnightblue" stroke="midnightblue" points="1108.29,-362.373 1117.02,-356.357 1106.45,-355.622 1108.29,-362.373"/>
</g>
<!-- Node20&#45;&gt;Node2 -->
<g id="edge32" class="edge"><title>Node20&#45;&gt;Node2</title>
<path fill="none" stroke="midnightblue" d="M410.323,-127.814C443.283,-153.245 533.727,-223.028 574.541,-254.52"/>
<polygon fill="midnightblue" stroke="midnightblue" points="572.626,-257.463 582.681,-260.801 576.902,-251.921 572.626,-257.463"/>
</g>
<!-- Node20&#45;&gt;Node9 -->
<g id="edge33" class="edge"><title>Node20&#45;&gt;Node9</title>
<path fill="none" stroke="midnightblue" d="M422.95,-108.68C457.884,-95.2031 521.492,-70.6637 560.812,-55.4948"/>
<polygon fill="midnightblue" stroke="midnightblue" points="562.182,-58.7175 570.252,-51.8527 559.663,-52.1866 562.182,-58.7175"/>
</g>
</g>
</svg>
