<?xml version="1.0" encoding="UTF-8" standalone="no"?>
<!DOCTYPE svg PUBLIC "-//W3C//DTD SVG 1.1//EN"
 "http://www.w3.org/Graphics/SVG/1.1/DTD/svg11.dtd">
<!-- Generated by graphviz version 2.36.0 (20140111.2315)
 -->
<!-- Title: ESM::Land::save Pages: 1 -->
<svg width="1104pt" height="263pt"
 viewBox="0.00 0.00 1104.00 263.00" xmlns="http://www.w3.org/2000/svg" xmlns:xlink="http://www.w3.org/1999/xlink">
<g id="graph0" class="graph" transform="scale(1 1) rotate(0) translate(4 259)">
<title>ESM::Land::save</title>
<polygon fill="white" stroke="none" points="-4,4 -4,-259 1100,-259 1100,4 -4,4"/>
<!-- Node1 -->
<g id="node1" class="node"><title>Node1</title>
<polygon fill="#bfbfbf" stroke="black" points="0.5,-154.5 0.5,-173.5 87.5,-173.5 87.5,-154.5 0.5,-154.5"/>
<text text-anchor="middle" x="44" y="-161.5" font-family="FreeSans" font-size="10.00">ESM::Land::save</text>
</g>
<!-- Node2 -->
<g id="node2" class="node"><title>Node2</title>
<g id="a_node2"><a xlink:href="classESM_1_1ESMWriter.html#a8e375456001f0c1390e688bc11b318f9" target="_top" xlink:title="ESM::ESMWriter::startSub\lRecord">
<polygon fill="white" stroke="black" points="477.5,-170 477.5,-200 606.5,-200 606.5,-170 477.5,-170"/>
<text text-anchor="start" x="485.5" y="-188" font-family="FreeSans" font-size="10.00">ESM::ESMWriter::startSub</text>
<text text-anchor="middle" x="542" y="-177" font-family="FreeSans" font-size="10.00">Record</text>
</a>
</g>
</g>
<!-- Node1&#45;&gt;Node2 -->
<g id="edge1" class="edge"><title>Node1&#45;&gt;Node2</title>
<path fill="none" stroke="midnightblue" d="M72.1087,-173.551C87.2128,-178.537 106.459,-184.345 124,-188 257.346,-215.785 294.331,-217.125 430,-205 442.158,-203.913 454.976,-202.17 467.412,-200.155"/>
<polygon fill="midnightblue" stroke="midnightblue" points="468.007,-203.604 477.284,-198.487 466.841,-196.702 468.007,-203.604"/>
</g>
<!-- Node5 -->
<g id="node5" class="node"><title>Node5</title>
<g id="a_node5"><a xlink:href="classESM_1_1ESMWriter.html#abad69b94dce1ed3c6178612dbef2c65a" target="_top" xlink:title="ESM::ESMWriter::writeT">
<polygon fill="white" stroke="black" points="482.5,-235.5 482.5,-254.5 601.5,-254.5 601.5,-235.5 482.5,-235.5"/>
<text text-anchor="middle" x="542" y="-242.5" font-family="FreeSans" font-size="10.00">ESM::ESMWriter::writeT</text>
</a>
</g>
</g>
<!-- Node1&#45;&gt;Node5 -->
<g id="edge4" class="edge"><title>Node1&#45;&gt;Node5</title>
<path fill="none" stroke="midnightblue" d="M56.7077,-173.571C71.4103,-184.981 97.8861,-203.564 124,-212 241.917,-250.094 387.902,-252.067 472.152,-249.147"/>
<polygon fill="midnightblue" stroke="midnightblue" points="472.506,-252.636 482.366,-248.758 472.24,-245.641 472.506,-252.636"/>
</g>
<!-- Node6 -->
<g id="node6" class="node"><title>Node6</title>
<g id="a_node6"><a xlink:href="classESM_1_1ESMWriter.html#aa9773ad75705c3078f4c4d7be8d90acb" target="_top" xlink:title="ESM::ESMWriter::endRecord">
<polygon fill="white" stroke="black" points="472,-129.5 472,-148.5 612,-148.5 612,-129.5 472,-129.5"/>
<text text-anchor="middle" x="542" y="-136.5" font-family="FreeSans" font-size="10.00">ESM::ESMWriter::endRecord</text>
</a>
</g>
</g>
<!-- Node1&#45;&gt;Node6 -->
<g id="edge5" class="edge"><title>Node1&#45;&gt;Node6</title>
<path fill="none" stroke="midnightblue" d="M52.2854,-154.488C64.9331,-138.777 92.6237,-107.776 124,-94 248.675,-39.2593 304.917,-25.1978 430,-79 451.371,-88.1925 446.153,-104.862 466,-117 471.756,-120.52 478.104,-123.502 484.599,-126.023"/>
<polygon fill="midnightblue" stroke="midnightblue" points="483.572,-129.372 494.167,-129.396 485.899,-122.77 483.572,-129.372"/>
</g>
<!-- Node7 -->
<g id="node7" class="node"><title>Node7</title>
<g id="a_node7"><a xlink:href="classESM_1_1ESMWriter.html#a110e5e311eb1fdd91f944cb760ce0888" target="_top" xlink:title="ESM::ESMWriter::writeHNT">
<polygon fill="white" stroke="black" points="283.5,-176.5 283.5,-195.5 416.5,-195.5 416.5,-176.5 283.5,-176.5"/>
<text text-anchor="middle" x="350" y="-183.5" font-family="FreeSans" font-size="10.00">ESM::ESMWriter::writeHNT</text>
</a>
</g>
</g>
<!-- Node1&#45;&gt;Node7 -->
<g id="edge7" class="edge"><title>Node1&#45;&gt;Node7</title>
<path fill="none" stroke="midnightblue" d="M87.59,-167.082C135.532,-170.552 214.364,-176.257 272.944,-180.496"/>
<polygon fill="midnightblue" stroke="midnightblue" points="273.039,-184.012 283.265,-181.243 273.544,-177.03 273.039,-184.012"/>
</g>
<!-- Node8 -->
<g id="node8" class="node"><title>Node8</title>
<g id="a_node8"><a xlink:href="classESM_1_1ESMWriter.html#a66bf14cbe79c86eff2e2877a19d845bb" target="_top" xlink:title="ESM::ESMWriter::writeHNCString">
<polygon fill="white" stroke="black" points="270.5,-88.5 270.5,-107.5 429.5,-107.5 429.5,-88.5 270.5,-88.5"/>
<text text-anchor="middle" x="350" y="-95.5" font-family="FreeSans" font-size="10.00">ESM::ESMWriter::writeHNCString</text>
</a>
</g>
</g>
<!-- Node1&#45;&gt;Node8 -->
<g id="edge11" class="edge"><title>Node1&#45;&gt;Node8</title>
<path fill="none" stroke="midnightblue" d="M57.0102,-154.457C71.8059,-143.295 98.1668,-125.288 124,-117 167.45,-103.059 217.905,-97.8681 260.012,-96.3517"/>
<polygon fill="midnightblue" stroke="midnightblue" points="260.357,-99.8431 270.249,-96.0487 260.15,-92.8462 260.357,-99.8431"/>
</g>
<!-- Node15 -->
<g id="node15" class="node"><title>Node15</title>
<g id="a_node15"><a xlink:href="structESM_1_1Land_1_1LandData.html#ae6947aec689fe1597b4c5793de7f6694" target="_top" xlink:title="ESM::Land::LandData\l::save">
<polygon fill="white" stroke="black" points="124.5,-127 124.5,-157 233.5,-157 233.5,-127 124.5,-127"/>
<text text-anchor="start" x="132.5" y="-145" font-family="FreeSans" font-size="10.00">ESM::Land::LandData</text>
<text text-anchor="middle" x="179" y="-134" font-family="FreeSans" font-size="10.00">::save</text>
</a>
</g>
</g>
<!-- Node1&#45;&gt;Node15 -->
<g id="edge22" class="edge"><title>Node1&#45;&gt;Node15</title>
<path fill="none" stroke="midnightblue" d="M87.8141,-156.918C96.2005,-155.531 105.165,-154.048 114.068,-152.575"/>
<polygon fill="midnightblue" stroke="midnightblue" points="114.765,-156.008 124.06,-150.922 113.622,-149.101 114.765,-156.008"/>
</g>
<!-- Node3 -->
<g id="node3" class="node"><title>Node3</title>
<g id="a_node3"><a xlink:href="classESM_1_1ESMWriter.html#a41f07f28edc21069fd8c1a836233b18f" target="_top" xlink:title="ESM::ESMWriter::writeName">
<polygon fill="white" stroke="black" points="657.5,-169.5 657.5,-188.5 796.5,-188.5 796.5,-169.5 657.5,-169.5"/>
<text text-anchor="middle" x="727" y="-176.5" font-family="FreeSans" font-size="10.00">ESM::ESMWriter::writeName</text>
</a>
</g>
</g>
<!-- Node2&#45;&gt;Node3 -->
<g id="edge2" class="edge"><title>Node2&#45;&gt;Node3</title>
<path fill="none" stroke="midnightblue" d="M606.748,-182.91C619.817,-182.481 633.721,-182.026 647.246,-181.582"/>
<polygon fill="midnightblue" stroke="midnightblue" points="647.615,-185.072 657.495,-181.246 647.386,-178.076 647.615,-185.072"/>
</g>
<!-- Node4 -->
<g id="node4" class="node"><title>Node4</title>
<g id="a_node4"><a xlink:href="classESM_1_1ESMWriter.html#a9b250b093c6c699f88224fcecc9a8a29" target="_top" xlink:title="ESM::ESMWriter::write">
<polygon fill="white" stroke="black" points="836.5,-114.5 836.5,-133.5 949.5,-133.5 949.5,-114.5 836.5,-114.5"/>
<text text-anchor="middle" x="893" y="-121.5" font-family="FreeSans" font-size="10.00">ESM::ESMWriter::write</text>
</a>
</g>
</g>
<!-- Node3&#45;&gt;Node4 -->
<g id="edge3" class="edge"><title>Node3&#45;&gt;Node4</title>
<path fill="none" stroke="midnightblue" d="M756.567,-169.42C783.528,-160.378 824.14,-146.758 853.86,-136.791"/>
<polygon fill="midnightblue" stroke="midnightblue" points="855.118,-140.061 863.486,-133.563 852.892,-133.424 855.118,-140.061"/>
</g>
<!-- Node6&#45;&gt;Node4 -->
<g id="edge6" class="edge"><title>Node6&#45;&gt;Node4</title>
<path fill="none" stroke="midnightblue" d="M612.368,-136.019C674.475,-133.349 764.907,-129.462 825.971,-126.838"/>
<polygon fill="midnightblue" stroke="midnightblue" points="826.422,-130.322 836.262,-126.396 826.121,-123.328 826.422,-130.322"/>
</g>
<!-- Node7&#45;&gt;Node2 -->
<g id="edge8" class="edge"><title>Node7&#45;&gt;Node2</title>
<path fill="none" stroke="midnightblue" d="M416.653,-185.654C432.909,-185.569 450.435,-185.477 467.056,-185.389"/>
<polygon fill="midnightblue" stroke="midnightblue" points="467.287,-188.888 477.269,-185.335 467.25,-181.888 467.287,-188.888"/>
</g>
<!-- Node7&#45;&gt;Node5 -->
<g id="edge9" class="edge"><title>Node7&#45;&gt;Node5</title>
<path fill="none" stroke="midnightblue" d="M381.95,-195.611C414.341,-205.669 465.328,-221.502 500.81,-232.52"/>
<polygon fill="midnightblue" stroke="midnightblue" points="499.79,-235.868 510.378,-235.491 501.866,-229.183 499.79,-235.868"/>
</g>
<!-- Node7&#45;&gt;Node6 -->
<g id="edge10" class="edge"><title>Node7&#45;&gt;Node6</title>
<path fill="none" stroke="midnightblue" d="M389.449,-176.489C419.096,-169.155 460.296,-158.964 492.257,-151.058"/>
<polygon fill="midnightblue" stroke="midnightblue" points="493.415,-154.377 502.282,-148.578 491.734,-147.581 493.415,-154.377"/>
</g>
<!-- Node8&#45;&gt;Node2 -->
<g id="edge12" class="edge"><title>Node8&#45;&gt;Node2</title>
<path fill="none" stroke="midnightblue" d="M409.17,-107.605C416.463,-110.058 423.6,-113.136 430,-117 450.76,-129.533 445.957,-144.35 466,-158 470.182,-160.848 474.699,-163.434 479.371,-165.773"/>
<polygon fill="midnightblue" stroke="midnightblue" points="477.95,-168.972 488.497,-169.974 480.877,-162.613 477.95,-168.972"/>
</g>
<!-- Node8&#45;&gt;Node6 -->
<g id="edge21" class="edge"><title>Node8&#45;&gt;Node6</title>
<path fill="none" stroke="midnightblue" d="M395.067,-107.509C422.427,-113.413 457.788,-121.044 486.85,-127.315"/>
<polygon fill="midnightblue" stroke="midnightblue" points="486.33,-130.783 496.843,-129.471 487.806,-123.941 486.33,-130.783"/>
</g>
<!-- Node9 -->
<g id="node9" class="node"><title>Node9</title>
<g id="a_node9"><a xlink:href="classESM_1_1ESMWriter.html#a75bea151d1597b7633d0e90da7f166e3" target="_top" xlink:title="ESM::ESMWriter::writeHCString">
<polygon fill="white" stroke="black" points="466,-88.5 466,-107.5 618,-107.5 618,-88.5 466,-88.5"/>
<text text-anchor="middle" x="542" y="-95.5" font-family="FreeSans" font-size="10.00">ESM::ESMWriter::writeHCString</text>
</a>
</g>
</g>
<!-- Node8&#45;&gt;Node9 -->
<g id="edge13" class="edge"><title>Node8&#45;&gt;Node9</title>
<path fill="none" stroke="midnightblue" d="M429.652,-98C438.237,-98 447.006,-98 455.666,-98"/>
<polygon fill="midnightblue" stroke="midnightblue" points="455.766,-101.5 465.766,-98 455.766,-94.5001 455.766,-101.5"/>
</g>
<!-- Node9&#45;&gt;Node4 -->
<g id="edge20" class="edge"><title>Node9&#45;&gt;Node4</title>
<path fill="none" stroke="midnightblue" d="M618.298,-103.61C680.24,-108.224 767.154,-114.699 826.309,-119.106"/>
<polygon fill="midnightblue" stroke="midnightblue" points="826.054,-122.597 836.286,-119.849 826.574,-115.616 826.054,-122.597"/>
</g>
<!-- Node10 -->
<g id="node10" class="node"><title>Node10</title>
<g id="a_node10"><a xlink:href="classESM_1_1ESMWriter.html#af73c2fc8a11d37bce2c6545e0b643513" target="_top" xlink:title="ESM::ESMWriter::writeHString">
<polygon fill="white" stroke="black" points="654,-54.5 654,-73.5 800,-73.5 800,-54.5 654,-54.5"/>
<text text-anchor="middle" x="727" y="-61.5" font-family="FreeSans" font-size="10.00">ESM::ESMWriter::writeHString</text>
</a>
</g>
</g>
<!-- Node9&#45;&gt;Node10 -->
<g id="edge14" class="edge"><title>Node9&#45;&gt;Node10</title>
<path fill="none" stroke="midnightblue" d="M594.463,-88.4386C616.288,-84.3837 641.898,-79.6254 664.693,-75.3903"/>
<polygon fill="midnightblue" stroke="midnightblue" points="665.414,-78.8163 674.607,-73.5485 664.136,-71.9341 665.414,-78.8163"/>
</g>
<!-- Node10&#45;&gt;Node4 -->
<g id="edge15" class="edge"><title>Node10&#45;&gt;Node4</title>
<path fill="none" stroke="midnightblue" d="M757.894,-73.5846C770.885,-77.8478 786.248,-83.0211 800,-88 819.683,-95.1261 841.508,-103.64 858.96,-110.598"/>
<polygon fill="midnightblue" stroke="midnightblue" points="858.097,-114.023 868.681,-114.494 860.7,-107.525 858.097,-114.023"/>
</g>
<!-- Node11 -->
<g id="node11" class="node"><title>Node11</title>
<g id="a_node11"><a xlink:href="classToUTF8_1_1Utf8Encoder.html#a645d13bb7de23b466edb0f422605d0e4" target="_top" xlink:title="ToUTF8::Utf8Encoder\l::getLegacyEnc">
<polygon fill="white" stroke="black" points="838,-49 838,-79 948,-79 948,-49 838,-49"/>
<text text-anchor="start" x="846" y="-67" font-family="FreeSans" font-size="10.00">ToUTF8::Utf8Encoder</text>
<text text-anchor="middle" x="893" y="-56" font-family="FreeSans" font-size="10.00">::getLegacyEnc</text>
</a>
</g>
</g>
<!-- Node10&#45;&gt;Node11 -->
<g id="edge16" class="edge"><title>Node10&#45;&gt;Node11</title>
<path fill="none" stroke="midnightblue" d="M800.41,-64C809.415,-64 818.575,-64 827.45,-64"/>
<polygon fill="midnightblue" stroke="midnightblue" points="827.711,-67.5001 837.711,-64 827.711,-60.5001 827.711,-67.5001"/>
</g>
<!-- Node12 -->
<g id="node12" class="node"><title>Node12</title>
<g id="a_node12"><a xlink:href="classToUTF8_1_1Utf8Encoder.html#ab8787c5838bad4f54018c2d0cd2d46d2" target="_top" xlink:title="ToUTF8::Utf8Encoder\l::getLength2">
<polygon fill="white" stroke="black" points="986,-98 986,-128 1096,-128 1096,-98 986,-98"/>
<text text-anchor="start" x="994" y="-116" font-family="FreeSans" font-size="10.00">ToUTF8::Utf8Encoder</text>
<text text-anchor="middle" x="1041" y="-105" font-family="FreeSans" font-size="10.00">::getLength2</text>
</a>
</g>
</g>
<!-- Node11&#45;&gt;Node12 -->
<g id="edge17" class="edge"><title>Node11&#45;&gt;Node12</title>
<path fill="none" stroke="midnightblue" d="M938.996,-79.1014C953.636,-84.0147 970.046,-89.5224 985.314,-94.6466"/>
<polygon fill="midnightblue" stroke="midnightblue" points="984.558,-98.0847 995.152,-97.9484 986.786,-91.4485 984.558,-98.0847"/>
</g>
<!-- Node13 -->
<g id="node13" class="node"><title>Node13</title>
<g id="a_node13"><a xlink:href="classToUTF8_1_1Utf8Encoder.html#a80b3e05967c1f28c1ce5325093bda679" target="_top" xlink:title="ToUTF8::Utf8Encoder\l::resize">
<polygon fill="white" stroke="black" points="986,-49 986,-79 1096,-79 1096,-49 986,-49"/>
<text text-anchor="start" x="994" y="-67" font-family="FreeSans" font-size="10.00">ToUTF8::Utf8Encoder</text>
<text text-anchor="middle" x="1041" y="-56" font-family="FreeSans" font-size="10.00">::resize</text>
</a>
</g>
</g>
<!-- Node11&#45;&gt;Node13 -->
<g id="edge18" class="edge"><title>Node11&#45;&gt;Node13</title>
<path fill="none" stroke="midnightblue" d="M948.365,-64C957.201,-64 966.427,-64 975.477,-64"/>
<polygon fill="midnightblue" stroke="midnightblue" points="975.59,-67.5001 985.59,-64 975.59,-60.5001 975.59,-67.5001"/>
</g>
<!-- Node14 -->
<g id="node14" class="node"><title>Node14</title>
<g id="a_node14"><a xlink:href="classToUTF8_1_1Utf8Encoder.html#abdb4c1e6b38b7f88fb953a237c764057" target="_top" xlink:title="ToUTF8::Utf8Encoder\l::copyFromArray2">
<polygon fill="white" stroke="black" points="986,-0 986,-30 1096,-30 1096,-0 986,-0"/>
<text text-anchor="start" x="994" y="-18" font-family="FreeSans" font-size="10.00">ToUTF8::Utf8Encoder</text>
<text text-anchor="middle" x="1041" y="-7" font-family="FreeSans" font-size="10.00">::copyFromArray2</text>
</a>
</g>
</g>
<!-- Node11&#45;&gt;Node14 -->
<g id="edge19" class="edge"><title>Node11&#45;&gt;Node14</title>
<path fill="none" stroke="midnightblue" d="M938.996,-48.8986C953.636,-43.9853 970.046,-38.4776 985.314,-33.3534"/>
<polygon fill="midnightblue" stroke="midnightblue" points="986.786,-36.5515 995.152,-30.0516 984.558,-29.9153 986.786,-36.5515"/>
</g>
<!-- Node15&#45;&gt;Node7 -->
<g id="edge23" class="edge"><title>Node15&#45;&gt;Node7</title>
<path fill="none" stroke="midnightblue" d="M233.748,-156.452C245.677,-159.626 258.262,-162.949 270,-166 279.962,-168.589 290.641,-171.322 300.827,-173.907"/>
<polygon fill="midnightblue" stroke="midnightblue" points="300.249,-177.372 310.802,-176.433 301.967,-170.586 300.249,-177.372"/>
</g>
<!-- Node16 -->
<g id="node16" class="node"><title>Node16</title>
<g id="a_node16"><a xlink:href="structESM_1_1Land_1_1LandData.html#a3620e84edfd356b6a706da397f60fd23" target="_top" xlink:title="ESM::Land::LandData\l::transposeTextureData">
<polygon fill="white" stroke="black" points="292.5,-127 292.5,-157 407.5,-157 407.5,-127 292.5,-127"/>
<text text-anchor="start" x="300.5" y="-145" font-family="FreeSans" font-size="10.00">ESM::Land::LandData</text>
<text text-anchor="middle" x="350" y="-134" font-family="FreeSans" font-size="10.00">::transposeTextureData</text>
</a>
</g>
</g>
<!-- Node15&#45;&gt;Node16 -->
<g id="edge24" class="edge"><title>Node15&#45;&gt;Node16</title>
<path fill="none" stroke="midnightblue" d="M233.937,-142C249.231,-142 266.068,-142 282.032,-142"/>
<polygon fill="midnightblue" stroke="midnightblue" points="282.372,-145.5 292.372,-142 282.372,-138.5 282.372,-145.5"/>
</g>
</g>
</svg>
