<?xml version="1.0" encoding="UTF-8" standalone="no"?>
<!DOCTYPE svg PUBLIC "-//W3C//DTD SVG 1.1//EN"
 "http://www.w3.org/Graphics/SVG/1.1/DTD/svg11.dtd">
<!-- Generated by graphviz version 2.36.0 (20140111.2315)
 -->
<!-- Title: ESM::AiSequence::AiActivate::save Pages: 1 -->
<svg width="848pt" height="212pt"
 viewBox="0.00 0.00 848.00 212.00" xmlns="http://www.w3.org/2000/svg" xmlns:xlink="http://www.w3.org/1999/xlink">
<g id="graph0" class="graph" transform="scale(1 1) rotate(0) translate(4 208)">
<title>ESM::AiSequence::AiActivate::save</title>
<polygon fill="white" stroke="none" points="-4,4 -4,-208 844,-208 844,4 -4,4"/>
<!-- Node1 -->
<g id="node1" class="node"><title>Node1</title>
<polygon fill="#bfbfbf" stroke="black" points="0.5,-138 0.5,-168 143.5,-168 143.5,-138 0.5,-138"/>
<text text-anchor="start" x="8.5" y="-156" font-family="FreeSans" font-size="10.00">ESM::AiSequence::AiActivate</text>
<text text-anchor="middle" x="72" y="-145" font-family="FreeSans" font-size="10.00">::save</text>
</g>
<!-- Node2 -->
<g id="node2" class="node"><title>Node2</title>
<g id="a_node2"><a xlink:href="classESM_1_1ESMWriter.html#a22f1e180882cca15b613dba10a298def" target="_top" xlink:title="ESM::ESMWriter::writeHNString">
<polygon fill="white" stroke="black" points="180,-143.5 180,-162.5 332,-162.5 332,-143.5 180,-143.5"/>
<text text-anchor="middle" x="256" y="-150.5" font-family="FreeSans" font-size="10.00">ESM::ESMWriter::writeHNString</text>
</a>
</g>
</g>
<!-- Node1&#45;&gt;Node2 -->
<g id="edge1" class="edge"><title>Node1&#45;&gt;Node2</title>
<path fill="none" stroke="midnightblue" d="M143.626,-153C152.173,-153 160.972,-153 169.7,-153"/>
<polygon fill="midnightblue" stroke="midnightblue" points="169.896,-156.5 179.896,-153 169.896,-149.5 169.896,-156.5"/>
</g>
<!-- Node3 -->
<g id="node3" class="node"><title>Node3</title>
<g id="a_node3"><a xlink:href="classESM_1_1ESMWriter.html#a8e375456001f0c1390e688bc11b318f9" target="_top" xlink:title="ESM::ESMWriter::startSub\lRecord">
<polygon fill="white" stroke="black" points="376.5,-138 376.5,-168 505.5,-168 505.5,-138 376.5,-138"/>
<text text-anchor="start" x="384.5" y="-156" font-family="FreeSans" font-size="10.00">ESM::ESMWriter::startSub</text>
<text text-anchor="middle" x="441" y="-145" font-family="FreeSans" font-size="10.00">Record</text>
</a>
</g>
</g>
<!-- Node2&#45;&gt;Node3 -->
<g id="edge2" class="edge"><title>Node2&#45;&gt;Node3</title>
<path fill="none" stroke="midnightblue" d="M332.225,-153C343.471,-153 355.056,-153 366.271,-153"/>
<polygon fill="midnightblue" stroke="midnightblue" points="366.445,-156.5 376.445,-153 366.445,-149.5 366.445,-156.5"/>
</g>
<!-- Node6 -->
<g id="node6" class="node"><title>Node6</title>
<g id="a_node6"><a xlink:href="classESM_1_1ESMWriter.html#af73c2fc8a11d37bce2c6545e0b643513" target="_top" xlink:title="ESM::ESMWriter::writeHString">
<polygon fill="white" stroke="black" points="368,-99.5 368,-118.5 514,-118.5 514,-99.5 368,-99.5"/>
<text text-anchor="middle" x="441" y="-106.5" font-family="FreeSans" font-size="10.00">ESM::ESMWriter::writeHString</text>
</a>
</g>
</g>
<!-- Node2&#45;&gt;Node6 -->
<g id="edge5" class="edge"><title>Node2&#45;&gt;Node6</title>
<path fill="none" stroke="midnightblue" d="M296.708,-143.453C324.166,-136.851 360.902,-128.018 390.303,-120.949"/>
<polygon fill="midnightblue" stroke="midnightblue" points="391.465,-124.27 400.369,-118.529 389.828,-117.464 391.465,-124.27"/>
</g>
<!-- Node11 -->
<g id="node11" class="node"><title>Node11</title>
<g id="a_node11"><a xlink:href="classESM_1_1ESMWriter.html#aa9773ad75705c3078f4c4d7be8d90acb" target="_top" xlink:title="ESM::ESMWriter::endRecord">
<polygon fill="white" stroke="black" points="550,-184.5 550,-203.5 690,-203.5 690,-184.5 550,-184.5"/>
<text text-anchor="middle" x="620" y="-191.5" font-family="FreeSans" font-size="10.00">ESM::ESMWriter::endRecord</text>
</a>
</g>
</g>
<!-- Node2&#45;&gt;Node11 -->
<g id="edge11" class="edge"><title>Node2&#45;&gt;Node11</title>
<path fill="none" stroke="midnightblue" d="M294.517,-162.534C315.911,-167.612 343.304,-173.513 368,-177 425.149,-185.07 490.179,-189.338 539.726,-191.58"/>
<polygon fill="midnightblue" stroke="midnightblue" points="539.595,-195.077 549.738,-192.015 539.899,-188.084 539.595,-195.077"/>
</g>
<!-- Node4 -->
<g id="node4" class="node"><title>Node4</title>
<g id="a_node4"><a xlink:href="classESM_1_1ESMWriter.html#a41f07f28edc21069fd8c1a836233b18f" target="_top" xlink:title="ESM::ESMWriter::writeName">
<polygon fill="white" stroke="black" points="550.5,-145.5 550.5,-164.5 689.5,-164.5 689.5,-145.5 550.5,-145.5"/>
<text text-anchor="middle" x="620" y="-152.5" font-family="FreeSans" font-size="10.00">ESM::ESMWriter::writeName</text>
</a>
</g>
</g>
<!-- Node3&#45;&gt;Node4 -->
<g id="edge3" class="edge"><title>Node3&#45;&gt;Node4</title>
<path fill="none" stroke="midnightblue" d="M505.901,-153.722C517.083,-153.848 528.834,-153.981 540.359,-154.111"/>
<polygon fill="midnightblue" stroke="midnightblue" points="540.37,-157.612 550.409,-154.225 540.449,-150.612 540.37,-157.612"/>
</g>
<!-- Node5 -->
<g id="node5" class="node"><title>Node5</title>
<g id="a_node5"><a xlink:href="classESM_1_1ESMWriter.html#a9b250b093c6c699f88224fcecc9a8a29" target="_top" xlink:title="ESM::ESMWriter::write">
<polygon fill="white" stroke="black" points="726.5,-147.5 726.5,-166.5 839.5,-166.5 839.5,-147.5 726.5,-147.5"/>
<text text-anchor="middle" x="783" y="-154.5" font-family="FreeSans" font-size="10.00">ESM::ESMWriter::write</text>
</a>
</g>
</g>
<!-- Node4&#45;&gt;Node5 -->
<g id="edge4" class="edge"><title>Node4&#45;&gt;Node5</title>
<path fill="none" stroke="midnightblue" d="M689.745,-155.854C698.469,-155.962 707.38,-156.073 716.057,-156.181"/>
<polygon fill="midnightblue" stroke="midnightblue" points="716.069,-159.681 726.112,-156.306 716.156,-152.682 716.069,-159.681"/>
</g>
<!-- Node6&#45;&gt;Node5 -->
<g id="edge6" class="edge"><title>Node6&#45;&gt;Node5</title>
<path fill="none" stroke="midnightblue" d="M514.199,-114.634C563.841,-119.052 631.165,-126.117 690,-136 704.561,-138.446 720.272,-141.773 734.519,-145.056"/>
<polygon fill="midnightblue" stroke="midnightblue" points="734.061,-148.544 744.596,-147.427 735.664,-141.73 734.061,-148.544"/>
</g>
<!-- Node7 -->
<g id="node7" class="node"><title>Node7</title>
<g id="a_node7"><a xlink:href="classToUTF8_1_1Utf8Encoder.html#a645d13bb7de23b466edb0f422605d0e4" target="_top" xlink:title="ToUTF8::Utf8Encoder\l::getLegacyEnc">
<polygon fill="white" stroke="black" points="565,-50 565,-80 675,-80 675,-50 565,-50"/>
<text text-anchor="start" x="573" y="-68" font-family="FreeSans" font-size="10.00">ToUTF8::Utf8Encoder</text>
<text text-anchor="middle" x="620" y="-57" font-family="FreeSans" font-size="10.00">::getLegacyEnc</text>
</a>
</g>
</g>
<!-- Node6&#45;&gt;Node7 -->
<g id="edge7" class="edge"><title>Node6&#45;&gt;Node7</title>
<path fill="none" stroke="midnightblue" d="M480.406,-99.4527C502.218,-94.0306 530.082,-87.1038 555.098,-80.8852"/>
<polygon fill="midnightblue" stroke="midnightblue" points="556.029,-84.2605 564.889,-78.4513 554.34,-77.4672 556.029,-84.2605"/>
</g>
<!-- Node8 -->
<g id="node8" class="node"><title>Node8</title>
<g id="a_node8"><a xlink:href="classToUTF8_1_1Utf8Encoder.html#ab8787c5838bad4f54018c2d0cd2d46d2" target="_top" xlink:title="ToUTF8::Utf8Encoder\l::getLength2">
<polygon fill="white" stroke="black" points="728,-49 728,-79 838,-79 838,-49 728,-49"/>
<text text-anchor="start" x="736" y="-67" font-family="FreeSans" font-size="10.00">ToUTF8::Utf8Encoder</text>
<text text-anchor="middle" x="783" y="-56" font-family="FreeSans" font-size="10.00">::getLength2</text>
</a>
</g>
</g>
<!-- Node7&#45;&gt;Node8 -->
<g id="edge8" class="edge"><title>Node7&#45;&gt;Node8</title>
<path fill="none" stroke="midnightblue" d="M675.059,-64.6642C688.731,-64.5793 703.549,-64.4873 717.674,-64.3995"/>
<polygon fill="midnightblue" stroke="midnightblue" points="717.832,-67.8987 727.81,-64.3366 717.788,-60.8989 717.832,-67.8987"/>
</g>
<!-- Node9 -->
<g id="node9" class="node"><title>Node9</title>
<g id="a_node9"><a xlink:href="classToUTF8_1_1Utf8Encoder.html#a80b3e05967c1f28c1ce5325093bda679" target="_top" xlink:title="ToUTF8::Utf8Encoder\l::resize">
<polygon fill="white" stroke="black" points="728,-0 728,-30 838,-30 838,-0 728,-0"/>
<text text-anchor="start" x="736" y="-18" font-family="FreeSans" font-size="10.00">ToUTF8::Utf8Encoder</text>
<text text-anchor="middle" x="783" y="-7" font-family="FreeSans" font-size="10.00">::resize</text>
</a>
</g>
</g>
<!-- Node7&#45;&gt;Node9 -->
<g id="edge9" class="edge"><title>Node7&#45;&gt;Node9</title>
<path fill="none" stroke="midnightblue" d="M669.305,-49.9984C686.421,-44.6831 705.86,-38.6459 723.718,-33.1001"/>
<polygon fill="midnightblue" stroke="midnightblue" points="724.939,-36.3859 733.451,-30.0774 722.863,-29.7008 724.939,-36.3859"/>
</g>
<!-- Node10 -->
<g id="node10" class="node"><title>Node10</title>
<g id="a_node10"><a xlink:href="classToUTF8_1_1Utf8Encoder.html#abdb4c1e6b38b7f88fb953a237c764057" target="_top" xlink:title="ToUTF8::Utf8Encoder\l::copyFromArray2">
<polygon fill="white" stroke="black" points="728,-98 728,-128 838,-128 838,-98 728,-98"/>
<text text-anchor="start" x="736" y="-116" font-family="FreeSans" font-size="10.00">ToUTF8::Utf8Encoder</text>
<text text-anchor="middle" x="783" y="-105" font-family="FreeSans" font-size="10.00">::copyFromArray2</text>
</a>
</g>
</g>
<!-- Node7&#45;&gt;Node10 -->
<g id="edge10" class="edge"><title>Node7&#45;&gt;Node10</title>
<path fill="none" stroke="midnightblue" d="M671.5,-80.0558C687.534,-84.8363 705.422,-90.1693 722.055,-95.1281"/>
<polygon fill="midnightblue" stroke="midnightblue" points="721.096,-98.4946 731.68,-97.9976 723.096,-91.7863 721.096,-98.4946"/>
</g>
<!-- Node11&#45;&gt;Node5 -->
<g id="edge12" class="edge"><title>Node11&#45;&gt;Node5</title>
<path fill="none" stroke="midnightblue" d="M662.462,-184.472C683.226,-179.7 708.563,-173.877 730.558,-168.822"/>
<polygon fill="midnightblue" stroke="midnightblue" points="731.437,-172.211 740.399,-166.56 729.87,-165.389 731.437,-172.211"/>
</g>
</g>
</svg>
