<?xml version="1.0" encoding="UTF-8" standalone="no"?>
<!DOCTYPE svg PUBLIC "-//W3C//DTD SVG 1.1//EN"
 "http://www.w3.org/Graphics/SVG/1.1/DTD/svg11.dtd">
<!-- Generated by graphviz version 2.36.0 (20140111.2315)
 -->
<!-- Title: anonymous_namespace{journalwindow::cpp}::JournalWindowImpl::SetNamesInactive::operator() Pages: 1 -->
<svg width="468pt" height="60pt"
 viewBox="0.00 0.00 468.00 60.00" xmlns="http://www.w3.org/2000/svg" xmlns:xlink="http://www.w3.org/1999/xlink">
<g id="graph0" class="graph" transform="scale(1 1) rotate(0) translate(4 56)">
<title>anonymous_namespace{journalwindow::cpp}::JournalWindowImpl::SetNamesInactive::operator()</title>
<polygon fill="white" stroke="none" points="-4,4 -4,-56 464,-56 464,4 -4,4"/>
<!-- Node1 -->
<g id="node1" class="node"><title>Node1</title>
<polygon fill="#bfbfbf" stroke="black" points="0.5,-0 0.5,-52 141.5,-52 141.5,-0 0.5,-0"/>
<text text-anchor="start" x="8.5" y="-40" font-family="FreeSans" font-size="10.00">anonymous_namespace</text>
<text text-anchor="start" x="8.5" y="-29" font-family="FreeSans" font-size="10.00">{journalwindow::cpp}</text>
<text text-anchor="start" x="8.5" y="-18" font-family="FreeSans" font-size="10.00">::JournalWindowImpl::</text>
<text text-anchor="middle" x="71" y="-7" font-family="FreeSans" font-size="10.00">SetNamesInactive::operator()</text>
</g>
<!-- Node2 -->
<g id="node2" class="node"><title>Node2</title>
<g id="a_node2"><a xlink:href="classGui_1_1MWList.html#a78d18f66b0d11b7286d43925f29b3cb4" target="_top" xlink:title="get widget for an item name, useful to set up tooltip ">
<polygon fill="white" stroke="black" points="178,-16.5 178,-35.5 314,-35.5 314,-16.5 178,-16.5"/>
<text text-anchor="middle" x="246" y="-23.5" font-family="FreeSans" font-size="10.00">Gui::MWList::getItemWidget</text>
</a>
</g>
</g>
<!-- Node1&#45;&gt;Node2 -->
<g id="edge1" class="edge"><title>Node1&#45;&gt;Node2</title>
<path fill="none" stroke="midnightblue" d="M141.867,-26C150.427,-26 159.213,-26 167.872,-26"/>
<polygon fill="midnightblue" stroke="midnightblue" points="167.958,-29.5001 177.958,-26 167.958,-22.5001 167.958,-29.5001"/>
</g>
<!-- Node3 -->
<g id="node3" class="node"><title>Node3</title>
<g id="a_node3"><a xlink:href="namespaceCSMWorld_1_1Columns.html#a5f30df1dd13565c4dd4155037a2ed81e" target="_top" xlink:title="CSMWorld::Columns::\lgetName">
<polygon fill="white" stroke="black" points="350,-11 350,-41 460,-41 460,-11 350,-11"/>
<text text-anchor="start" x="358" y="-29" font-family="FreeSans" font-size="10.00">CSMWorld::Columns::</text>
<text text-anchor="middle" x="405" y="-18" font-family="FreeSans" font-size="10.00">getName</text>
</a>
</g>
</g>
<!-- Node2&#45;&gt;Node3 -->
<g id="edge2" class="edge"><title>Node2&#45;&gt;Node3</title>
<path fill="none" stroke="midnightblue" d="M314.038,-26C322.57,-26 331.287,-26 339.774,-26"/>
<polygon fill="midnightblue" stroke="midnightblue" points="339.983,-29.5001 349.983,-26 339.983,-22.5001 339.983,-29.5001"/>
</g>
</g>
</svg>
