<?xml version="1.0" encoding="UTF-8" standalone="no"?>
<!DOCTYPE svg PUBLIC "-//W3C//DTD SVG 1.1//EN"
 "http://www.w3.org/Graphics/SVG/1.1/DTD/svg11.dtd">
<!-- Generated by graphviz version 2.36.0 (20140111.2315)
 -->
<!-- Title: ESM::Dialogue::readInfo Pages: 1 -->
<svg width="476pt" height="77pt"
 viewBox="0.00 0.00 476.00 77.00" xmlns="http://www.w3.org/2000/svg" xmlns:xlink="http://www.w3.org/1999/xlink">
<g id="graph0" class="graph" transform="scale(1 1) rotate(0) translate(4 73)">
<title>ESM::Dialogue::readInfo</title>
<polygon fill="white" stroke="none" points="-4,4 -4,-73 472,-73 472,4 -4,4"/>
<!-- Node1 -->
<g id="node1" class="node"><title>Node1</title>
<polygon fill="#bfbfbf" stroke="black" points="0.5,-22.5 0.5,-41.5 131.5,-41.5 131.5,-22.5 0.5,-22.5"/>
<text text-anchor="middle" x="66" y="-29.5" font-family="FreeSans" font-size="10.00">ESM::Dialogue::readInfo</text>
</g>
<!-- Node2 -->
<g id="node2" class="node"><title>Node2</title>
<g id="a_node2"><a xlink:href="classMWWorld_1_1ESMStore.html#a74dd25b4b1f21facc5dd7b9174cf2e74" target="_top" xlink:title="MWWorld::ESMStore::load">
<polygon fill="white" stroke="black" points="168,-22.5 168,-41.5 306,-41.5 306,-22.5 168,-22.5"/>
<text text-anchor="middle" x="237" y="-29.5" font-family="FreeSans" font-size="10.00">MWWorld::ESMStore::load</text>
</a>
</g>
</g>
<!-- Node1&#45;&gt;Node2 -->
<g id="edge1" class="edge"><title>Node1&#45;&gt;Node2</title>
<path fill="none" stroke="midnightblue" d="M141.938,-32C150.597,-32 159.393,-32 167.954,-32"/>
<polygon fill="midnightblue" stroke="midnightblue" points="141.857,-28.5001 131.856,-32 141.856,-35.5001 141.857,-28.5001"/>
</g>
<!-- Node3 -->
<g id="node3" class="node"><title>Node3</title>
<g id="a_node3"><a xlink:href="structMWWorld_1_1EsmLoader.html#a9d2aafe68a729b84bda386a9ab7c7935" target="_top" xlink:title="MWWorld::EsmLoader\l::load">
<polygon fill="white" stroke="black" points="345.5,-39 345.5,-69 464.5,-69 464.5,-39 345.5,-39"/>
<text text-anchor="start" x="353.5" y="-57" font-family="FreeSans" font-size="10.00">MWWorld::EsmLoader</text>
<text text-anchor="middle" x="405" y="-46" font-family="FreeSans" font-size="10.00">::load</text>
</a>
</g>
</g>
<!-- Node2&#45;&gt;Node3 -->
<g id="edge2" class="edge"><title>Node2&#45;&gt;Node3</title>
<path fill="none" stroke="midnightblue" d="M316.567,-42.4126C326.3,-43.7024 336.114,-45.0031 345.473,-46.2434"/>
<polygon fill="midnightblue" stroke="midnightblue" points="316.85,-38.9195 306.477,-41.0753 315.93,-45.8588 316.85,-38.9195"/>
</g>
<!-- Node4 -->
<g id="node4" class="node"><title>Node4</title>
<g id="a_node4"><a xlink:href="structContentFileTest.html#a0d9df10af237c591e67f8c7086808c9c" target="_top" xlink:title="ContentFileTest::SetUp">
<polygon fill="white" stroke="black" points="342.5,-0.5 342.5,-19.5 467.5,-19.5 467.5,-0.5 342.5,-0.5"/>
<text text-anchor="middle" x="405" y="-7.5" font-family="FreeSans" font-size="10.00">ContentFileTest::SetUp</text>
</a>
</g>
</g>
<!-- Node2&#45;&gt;Node4 -->
<g id="edge3" class="edge"><title>Node2&#45;&gt;Node4</title>
<path fill="none" stroke="midnightblue" d="M316.574,-21.5866C325.219,-20.4408 333.929,-19.2865 342.326,-18.1737"/>
<polygon fill="midnightblue" stroke="midnightblue" points="315.93,-18.1412 306.477,-22.9247 316.85,-25.0805 315.93,-18.1412"/>
</g>
</g>
</svg>
