<?xml version="1.0" encoding="UTF-8" standalone="no"?>
<!DOCTYPE svg PUBLIC "-//W3C//DTD SVG 1.1//EN"
 "http://www.w3.org/Graphics/SVG/1.1/DTD/svg11.dtd">
<!-- Generated by graphviz version 2.36.0 (20140111.2315)
 -->
<!-- Title: ContentFileTest::readContentFiles Pages: 1 -->
<svg width="630pt" height="226pt"
 viewBox="0.00 0.00 630.00 226.00" xmlns="http://www.w3.org/2000/svg" xmlns:xlink="http://www.w3.org/1999/xlink">
<g id="graph0" class="graph" transform="scale(1 1) rotate(0) translate(4 222)">
<title>ContentFileTest::readContentFiles</title>
<polygon fill="white" stroke="none" points="-4,4 -4,-222 626,-222 626,4 -4,4"/>
<!-- Node1 -->
<g id="node1" class="node"><title>Node1</title>
<polygon fill="#bfbfbf" stroke="black" points="0,-49 0,-79 142,-79 142,-49 0,-49"/>
<text text-anchor="start" x="8" y="-67" font-family="FreeSans" font-size="10.00">ContentFileTest::readContent</text>
<text text-anchor="middle" x="71" y="-56" font-family="FreeSans" font-size="10.00">Files</text>
</g>
<!-- Node2 -->
<g id="node2" class="node"><title>Node2</title>
<g id="a_node2"><a xlink:href="structFiles_1_1ConfigurationManager.html#a670cadd075f5335927dfb9a9c41de416" target="_top" xlink:title="Files::ConfigurationManager\l::readConfiguration">
<polygon fill="white" stroke="black" points="178.5,-98 178.5,-128 313.5,-128 313.5,-98 178.5,-98"/>
<text text-anchor="start" x="186.5" y="-116" font-family="FreeSans" font-size="10.00">Files::ConfigurationManager</text>
<text text-anchor="middle" x="246" y="-105" font-family="FreeSans" font-size="10.00">::readConfiguration</text>
</a>
</g>
</g>
<!-- Node1&#45;&gt;Node2 -->
<g id="edge1" class="edge"><title>Node1&#45;&gt;Node2</title>
<path fill="none" stroke="midnightblue" d="M125.317,-79.1014C143.242,-84.1785 163.408,-89.8902 182.006,-95.1577"/>
<polygon fill="midnightblue" stroke="midnightblue" points="181.283,-98.5907 191.859,-97.9484 183.191,-91.8557 181.283,-98.5907"/>
</g>
<!-- Node7 -->
<g id="node7" class="node"><title>Node7</title>
<g id="a_node7"><a xlink:href="structFiles_1_1ConfigurationManager.html#ad4ec97b944b891553d2946aa5bf066cf" target="_top" xlink:title="Files::ConfigurationManager\l::processPaths">
<polygon fill="white" stroke="black" points="178.5,-49 178.5,-79 313.5,-79 313.5,-49 178.5,-49"/>
<text text-anchor="start" x="186.5" y="-67" font-family="FreeSans" font-size="10.00">Files::ConfigurationManager</text>
<text text-anchor="middle" x="246" y="-56" font-family="FreeSans" font-size="10.00">::processPaths</text>
</a>
</g>
</g>
<!-- Node1&#45;&gt;Node7 -->
<g id="edge6" class="edge"><title>Node1&#45;&gt;Node7</title>
<path fill="none" stroke="midnightblue" d="M142.366,-64C150.905,-64 159.661,-64 168.286,-64"/>
<polygon fill="midnightblue" stroke="midnightblue" points="168.33,-67.5001 178.33,-64 168.33,-60.5001 168.33,-67.5001"/>
</g>
<!-- Node8 -->
<g id="node8" class="node"><title>Node8</title>
<g id="a_node8"><a xlink:href="classFiles_1_1Collections.html#a5ffc81ffe77b0cc81da1510a6005e475" target="_top" xlink:title="Files::Collections\l::getPath">
<polygon fill="white" stroke="black" points="201.5,-0 201.5,-30 290.5,-30 290.5,-0 201.5,-0"/>
<text text-anchor="start" x="209.5" y="-18" font-family="FreeSans" font-size="10.00">Files::Collections</text>
<text text-anchor="middle" x="246" y="-7" font-family="FreeSans" font-size="10.00">::getPath</text>
</a>
</g>
</g>
<!-- Node1&#45;&gt;Node8 -->
<g id="edge7" class="edge"><title>Node1&#45;&gt;Node8</title>
<path fill="none" stroke="midnightblue" d="M125.317,-48.8986C146.401,-42.9268 170.585,-36.077 191.67,-30.1049"/>
<polygon fill="midnightblue" stroke="midnightblue" points="192.763,-33.4333 201.43,-27.3405 190.855,-26.6983 192.763,-33.4333"/>
</g>
<!-- Node3 -->
<g id="node3" class="node"><title>Node3</title>
<g id="a_node3"><a xlink:href="structFiles_1_1ConfigurationManager.html#ac291b06df6e9d774977e9b9af0f67d55" target="_top" xlink:title="Files::ConfigurationManager\l::loadConfig">
<polygon fill="white" stroke="black" points="355.5,-188 355.5,-218 490.5,-218 490.5,-188 355.5,-188"/>
<text text-anchor="start" x="363.5" y="-206" font-family="FreeSans" font-size="10.00">Files::ConfigurationManager</text>
<text text-anchor="middle" x="423" y="-195" font-family="FreeSans" font-size="10.00">::loadConfig</text>
</a>
</g>
</g>
<!-- Node2&#45;&gt;Node3 -->
<g id="edge2" class="edge"><title>Node2&#45;&gt;Node3</title>
<path fill="none" stroke="midnightblue" d="M267.877,-128.185C288.124,-142.417 320.087,-163.603 350,-178 354.577,-180.203 359.401,-182.308 364.294,-184.294"/>
<polygon fill="midnightblue" stroke="midnightblue" points="363.154,-187.606 373.743,-187.961 365.687,-181.08 363.154,-187.606"/>
</g>
<!-- Node4 -->
<g id="node4" class="node"><title>Node4</title>
<g id="a_node4"><a xlink:href="structFiles_1_1FixedPath.html#a5cf170a82f78ec7c864f32c633bf963e" target="_top" xlink:title="Return path pointing to the user local configuration directory. ">
<polygon fill="white" stroke="black" points="362,-139 362,-169 484,-169 484,-139 362,-139"/>
<text text-anchor="start" x="370" y="-157" font-family="FreeSans" font-size="10.00">Files::FixedPath::getUser</text>
<text text-anchor="middle" x="423" y="-146" font-family="FreeSans" font-size="10.00">ConfigPath</text>
</a>
</g>
</g>
<!-- Node2&#45;&gt;Node4 -->
<g id="edge3" class="edge"><title>Node2&#45;&gt;Node4</title>
<path fill="none" stroke="midnightblue" d="M311.17,-128.034C324.385,-131.13 338.365,-134.406 351.781,-137.549"/>
<polygon fill="midnightblue" stroke="midnightblue" points="351.374,-141.048 361.909,-139.922 352.971,-134.233 351.374,-141.048"/>
</g>
<!-- Node5 -->
<g id="node5" class="node"><title>Node5</title>
<g id="a_node5"><a xlink:href="structFiles_1_1FixedPath.html#aa7fb2755c07e3f895f20033a99fd5b62" target="_top" xlink:title="Return path pointing to the directory where application was started. ">
<polygon fill="white" stroke="black" points="350,-100.5 350,-119.5 496,-119.5 496,-100.5 350,-100.5"/>
<text text-anchor="middle" x="423" y="-107.5" font-family="FreeSans" font-size="10.00">Files::FixedPath::getLocalPath</text>
</a>
</g>
</g>
<!-- Node2&#45;&gt;Node5 -->
<g id="edge4" class="edge"><title>Node2&#45;&gt;Node5</title>
<path fill="none" stroke="midnightblue" d="M313.659,-111.857C322.199,-111.711 331.019,-111.56 339.769,-111.41"/>
<polygon fill="midnightblue" stroke="midnightblue" points="340.049,-114.905 349.987,-111.235 339.929,-107.907 340.049,-114.905"/>
</g>
<!-- Node6 -->
<g id="node6" class="node"><title>Node6</title>
<g id="a_node6"><a xlink:href="structFiles_1_1FixedPath.html#aa33fac38871302bb941dcb610118cc25" target="_top" xlink:title="Return path pointing to the global (system) configuration directory. ">
<polygon fill="white" stroke="black" points="357.5,-51 357.5,-81 488.5,-81 488.5,-51 357.5,-51"/>
<text text-anchor="start" x="365.5" y="-69" font-family="FreeSans" font-size="10.00">Files::FixedPath::getGlobal</text>
<text text-anchor="middle" x="423" y="-58" font-family="FreeSans" font-size="10.00">ConfigPath</text>
</a>
</g>
</g>
<!-- Node2&#45;&gt;Node6 -->
<g id="edge5" class="edge"><title>Node2&#45;&gt;Node6</title>
<path fill="none" stroke="midnightblue" d="M302.852,-97.9997C319.743,-93.4633 338.452,-88.4385 355.943,-83.7409"/>
<polygon fill="midnightblue" stroke="midnightblue" points="357.328,-86.9931 366.078,-81.019 355.513,-80.2327 357.328,-86.9931"/>
</g>
<!-- Node9 -->
<g id="node9" class="node"><title>Node9</title>
<g id="a_node9"><a xlink:href="classMisc_1_1StringUtils.html#a0f8cb0ac134191ba8417f74ab7dc4de6" target="_top" xlink:title="Misc::StringUtils::\lciEqual">
<polygon fill="white" stroke="black" points="378,-0 378,-30 468,-30 468,-0 378,-0"/>
<text text-anchor="start" x="386" y="-18" font-family="FreeSans" font-size="10.00">Misc::StringUtils::</text>
<text text-anchor="middle" x="423" y="-7" font-family="FreeSans" font-size="10.00">ciEqual</text>
</a>
</g>
</g>
<!-- Node8&#45;&gt;Node9 -->
<g id="edge8" class="edge"><title>Node8&#45;&gt;Node9</title>
<path fill="none" stroke="midnightblue" d="M290.708,-15C314.006,-15 342.884,-15 367.619,-15"/>
<polygon fill="midnightblue" stroke="midnightblue" points="367.938,-18.5001 377.938,-15 367.938,-11.5001 367.938,-18.5001"/>
</g>
<!-- Node10 -->
<g id="node10" class="node"><title>Node10</title>
<g id="a_node10"><a xlink:href="classMisc_1_1StringUtils.html#a0759adb102842ee3bced227707eb6949" target="_top" xlink:title="Misc::StringUtils::\ltoLower">
<polygon fill="white" stroke="black" points="532,-0 532,-30 622,-30 622,-0 532,-0"/>
<text text-anchor="start" x="540" y="-18" font-family="FreeSans" font-size="10.00">Misc::StringUtils::</text>
<text text-anchor="middle" x="577" y="-7" font-family="FreeSans" font-size="10.00">toLower</text>
</a>
</g>
</g>
<!-- Node9&#45;&gt;Node10 -->
<g id="edge9" class="edge"><title>Node9&#45;&gt;Node10</title>
<path fill="none" stroke="midnightblue" d="M468.373,-15C485.074,-15 504.256,-15 521.756,-15"/>
<polygon fill="midnightblue" stroke="midnightblue" points="521.834,-18.5001 531.834,-15 521.834,-11.5001 521.834,-18.5001"/>
</g>
</g>
</svg>
