<?xml version="1.0" encoding="UTF-8" standalone="no"?>
<!DOCTYPE svg PUBLIC "-//W3C//DTD SVG 1.1//EN"
 "http://www.w3.org/Graphics/SVG/1.1/DTD/svg11.dtd">
<!-- Generated by graphviz version 2.36.0 (20140111.2315)
 -->
<!-- Title: MWGui::Topic::activated Pages: 1 -->
<svg width="558pt" height="273pt"
 viewBox="0.00 0.00 558.00 273.00" xmlns="http://www.w3.org/2000/svg" xmlns:xlink="http://www.w3.org/1999/xlink">
<g id="graph0" class="graph" transform="scale(1 1) rotate(0) translate(4 269)">
<title>MWGui::Topic::activated</title>
<polygon fill="white" stroke="none" points="-4,4 -4,-269 554,-269 554,4 -4,4"/>
<!-- Node1 -->
<g id="node1" class="node"><title>Node1</title>
<polygon fill="#bfbfbf" stroke="black" points="0.5,-127.5 0.5,-146.5 121.5,-146.5 121.5,-127.5 0.5,-127.5"/>
<text text-anchor="middle" x="61" y="-134.5" font-family="FreeSans" font-size="10.00">MWGui::Topic::activated</text>
</g>
<!-- Node2 -->
<g id="node2" class="node"><title>Node2</title>
<g id="a_node2"><a xlink:href="classMWBase_1_1Environment.html#a73f12633762b049c03c80fe215873faa" target="_top" xlink:title="Return instance of this class. ">
<polygon fill="white" stroke="black" points="160.5,-245.5 160.5,-264.5 291.5,-264.5 291.5,-245.5 160.5,-245.5"/>
<text text-anchor="middle" x="226" y="-252.5" font-family="FreeSans" font-size="10.00">MWBase::Environment::get</text>
</a>
</g>
</g>
<!-- Node1&#45;&gt;Node2 -->
<g id="edge1" class="edge"><title>Node1&#45;&gt;Node2</title>
<path fill="none" stroke="midnightblue" d="M68.7617,-146.652C82.991,-166.25 118.031,-210.884 158,-235 162.196,-237.532 166.736,-239.763 171.405,-241.725"/>
<polygon fill="midnightblue" stroke="midnightblue" points="170.514,-245.129 181.106,-245.383 172.984,-238.579 170.514,-245.129"/>
</g>
<!-- Node3 -->
<g id="node3" class="node"><title>Node3</title>
<g id="a_node3"><a xlink:href="classMWBase_1_1Environment.html#a4506cf05dc1136ff7262f69a7a0860c1" target="_top" xlink:title="MWBase::Environment\l::getSoundManager">
<polygon fill="white" stroke="black" points="169.5,-196 169.5,-226 282.5,-226 282.5,-196 169.5,-196"/>
<text text-anchor="start" x="177.5" y="-214" font-family="FreeSans" font-size="10.00">MWBase::Environment</text>
<text text-anchor="middle" x="226" y="-203" font-family="FreeSans" font-size="10.00">::getSoundManager</text>
</a>
</g>
</g>
<!-- Node1&#45;&gt;Node3 -->
<g id="edge2" class="edge"><title>Node1&#45;&gt;Node3</title>
<path fill="none" stroke="midnightblue" d="M79.4009,-146.648C98.4128,-157.007 129.911,-173.64 158,-186 162.778,-188.103 167.794,-190.189 172.841,-192.208"/>
<polygon fill="midnightblue" stroke="midnightblue" points="171.942,-195.614 182.53,-195.993 174.489,-189.094 171.942,-195.614"/>
</g>
<!-- Node4 -->
<g id="node4" class="node"><title>Node4</title>
<g id="a_node4"><a xlink:href="classMWBase_1_1SoundManager.html#a86faa2600e30cc6fd9b127e12d1c12bc" target="_top" xlink:title="MWBase::SoundManager\l::playSound">
<polygon fill="white" stroke="black" points="163.5,-147 163.5,-177 288.5,-177 288.5,-147 163.5,-147"/>
<text text-anchor="start" x="171.5" y="-165" font-family="FreeSans" font-size="10.00">MWBase::SoundManager</text>
<text text-anchor="middle" x="226" y="-154" font-family="FreeSans" font-size="10.00">::playSound</text>
</a>
</g>
</g>
<!-- Node1&#45;&gt;Node4 -->
<g id="edge3" class="edge"><title>Node1&#45;&gt;Node4</title>
<path fill="none" stroke="midnightblue" d="M121.77,-146.167C132.029,-147.741 142.784,-149.39 153.317,-151.006"/>
<polygon fill="midnightblue" stroke="midnightblue" points="152.909,-154.484 163.324,-152.54 153.97,-147.565 152.909,-154.484"/>
</g>
<!-- Node5 -->
<g id="node5" class="node"><title>Node5</title>
<g id="a_node5"><a xlink:href="classMWBase_1_1Environment.html#a772a5fed081fca8ac127ce997c5fa9a3" target="_top" xlink:title="MWBase::Environment\l::getDialogueManager">
<polygon fill="white" stroke="black" points="169.5,-98 169.5,-128 282.5,-128 282.5,-98 169.5,-98"/>
<text text-anchor="start" x="177.5" y="-116" font-family="FreeSans" font-size="10.00">MWBase::Environment</text>
<text text-anchor="middle" x="226" y="-105" font-family="FreeSans" font-size="10.00">::getDialogueManager</text>
</a>
</g>
</g>
<!-- Node1&#45;&gt;Node5 -->
<g id="edge4" class="edge"><title>Node1&#45;&gt;Node5</title>
<path fill="none" stroke="midnightblue" d="M121.77,-128.2C133.908,-126.412 146.74,-124.523 159.077,-122.706"/>
<polygon fill="midnightblue" stroke="midnightblue" points="159.915,-126.121 169.298,-121.201 158.895,-119.196 159.915,-126.121"/>
</g>
<!-- Node6 -->
<g id="node6" class="node"><title>Node6</title>
<g id="a_node6"><a xlink:href="classMWBase_1_1DialogueManager.html#a32fb9f672fb59fefc47ab574121c38e6" target="_top" xlink:title="MWBase::DialogueManager\l::keywordSelected">
<polygon fill="white" stroke="black" points="158.5,-49 158.5,-79 293.5,-79 293.5,-49 158.5,-49"/>
<text text-anchor="start" x="166.5" y="-67" font-family="FreeSans" font-size="10.00">MWBase::DialogueManager</text>
<text text-anchor="middle" x="226" y="-56" font-family="FreeSans" font-size="10.00">::keywordSelected</text>
</a>
</g>
</g>
<!-- Node1&#45;&gt;Node6 -->
<g id="edge5" class="edge"><title>Node1&#45;&gt;Node6</title>
<path fill="none" stroke="midnightblue" d="M79.7763,-127.396C98.8449,-117.264 130.149,-101.118 158,-89 162.787,-86.9173 167.809,-84.8443 172.859,-82.8341"/>
<polygon fill="midnightblue" stroke="midnightblue" points="174.504,-85.9495 182.553,-79.0595 171.964,-79.4266 174.504,-85.9495"/>
</g>
<!-- Node7 -->
<g id="node7" class="node"><title>Node7</title>
<g id="a_node7"><a xlink:href="classMisc_1_1StringUtils.html#a2982264998fde90a8e01ebab4bd69e14" target="_top" xlink:title="Returns lower case copy of input string. ">
<polygon fill="white" stroke="black" points="181,-0 181,-30 271,-30 271,-0 181,-0"/>
<text text-anchor="start" x="189" y="-18" font-family="FreeSans" font-size="10.00">Misc::StringUtils::</text>
<text text-anchor="middle" x="226" y="-7" font-family="FreeSans" font-size="10.00">lowerCase</text>
</a>
</g>
</g>
<!-- Node1&#45;&gt;Node7 -->
<g id="edge6" class="edge"><title>Node1&#45;&gt;Node7</title>
<path fill="none" stroke="midnightblue" d="M69.1453,-127.375C83.8082,-108.234 119.199,-65.0819 158,-40 162.257,-37.2482 166.86,-34.7383 171.591,-32.463"/>
<polygon fill="midnightblue" stroke="midnightblue" points="173.072,-35.6349 180.789,-28.375 170.229,-29.2383 173.072,-35.6349"/>
</g>
<!-- Node8 -->
<g id="node8" class="node"><title>Node8</title>
<g id="a_node8"><a xlink:href="classMisc_1_1StringUtils.html#a249dcf40e5ef16618daf8bf5d2098c54" target="_top" xlink:title="Transforms input string to lower case w/o copy. ">
<polygon fill="white" stroke="black" points="330,-0 330,-30 424,-30 424,-0 330,-0"/>
<text text-anchor="start" x="338" y="-18" font-family="FreeSans" font-size="10.00">Misc::StringUtils::</text>
<text text-anchor="middle" x="377" y="-7" font-family="FreeSans" font-size="10.00">lowerCaseInPlace</text>
</a>
</g>
</g>
<!-- Node7&#45;&gt;Node8 -->
<g id="edge7" class="edge"><title>Node7&#45;&gt;Node8</title>
<path fill="none" stroke="midnightblue" d="M271.301,-15C286.431,-15 303.56,-15 319.517,-15"/>
<polygon fill="midnightblue" stroke="midnightblue" points="319.8,-18.5001 329.8,-15 319.8,-11.5001 319.8,-18.5001"/>
</g>
<!-- Node9 -->
<g id="node9" class="node"><title>Node9</title>
<g id="a_node9"><a xlink:href="classMisc_1_1StringUtils.html#a0759adb102842ee3bced227707eb6949" target="_top" xlink:title="Misc::StringUtils::\ltoLower">
<polygon fill="white" stroke="black" points="460,-0 460,-30 550,-30 550,-0 460,-0"/>
<text text-anchor="start" x="468" y="-18" font-family="FreeSans" font-size="10.00">Misc::StringUtils::</text>
<text text-anchor="middle" x="505" y="-7" font-family="FreeSans" font-size="10.00">toLower</text>
</a>
</g>
</g>
<!-- Node8&#45;&gt;Node9 -->
<g id="edge8" class="edge"><title>Node8&#45;&gt;Node9</title>
<path fill="none" stroke="midnightblue" d="M424.202,-15C432.491,-15 441.198,-15 449.691,-15"/>
<polygon fill="midnightblue" stroke="midnightblue" points="449.901,-18.5001 459.901,-15 449.901,-11.5001 449.901,-18.5001"/>
</g>
</g>
</svg>
