<?xml version="1.0" encoding="UTF-8" standalone="no"?>
<!DOCTYPE svg PUBLIC "-//W3C//DTD SVG 1.1//EN"
 "http://www.w3.org/Graphics/SVG/1.1/DTD/svg11.dtd">
<!-- Generated by graphviz version 2.36.0 (20140111.2315)
 -->
<!-- Title: Nif::NiSkinData::BoneInfo Pages: 1 -->
<svg width="574pt" height="418pt"
 viewBox="0.00 0.00 574.00 418.00" xmlns="http://www.w3.org/2000/svg" xmlns:xlink="http://www.w3.org/1999/xlink">
<g id="graph0" class="graph" transform="scale(1 1) rotate(0) translate(4 414)">
<title>Nif::NiSkinData::BoneInfo</title>
<polygon fill="white" stroke="none" points="-4,4 -4,-414 570,-414 570,4 -4,4"/>
<!-- Node1 -->
<g id="node1" class="node"><title>Node1</title>
<polygon fill="#bfbfbf" stroke="black" points="251.5,-0.5 251.5,-57.5 388.5,-57.5 388.5,-0.5 251.5,-0.5"/>
<text text-anchor="middle" x="320" y="-45.5" font-family="FreeSans" font-size="10.00">Nif::NiSkinData::BoneInfo</text>
<polyline fill="none" stroke="black" points="251.5,-38.5 388.5,-38.5 "/>
<text text-anchor="middle" x="320" y="-26.5" font-family="FreeSans" font-size="10.00"> </text>
<polyline fill="none" stroke="black" points="251.5,-19.5 388.5,-19.5 "/>
<text text-anchor="middle" x="320" y="-7.5" font-family="FreeSans" font-size="10.00"> </text>
</g>
<!-- Node2 -->
<g id="node2" class="node"><title>Node2</title>
<polygon fill="white" stroke="#bfbfbf" points="63,-112 63,-180 191,-180 191,-112 63,-112"/>
<text text-anchor="start" x="71" y="-168" font-family="FreeSans" font-size="10.00">std::vector&lt; Nif::NiSkin</text>
<text text-anchor="middle" x="127" y="-157" font-family="FreeSans" font-size="10.00">Data::VertWeight &gt;</text>
<polyline fill="none" stroke="#bfbfbf" points="63,-150 191,-150 "/>
<text text-anchor="middle" x="127" y="-138" font-family="FreeSans" font-size="10.00"> </text>
<polyline fill="none" stroke="#bfbfbf" points="63,-131 191,-131 "/>
<text text-anchor="middle" x="127" y="-119" font-family="FreeSans" font-size="10.00"> </text>
</g>
<!-- Node2&#45;&gt;Node1 -->
<g id="edge1" class="edge"><title>Node2&#45;&gt;Node1</title>
<path fill="none" stroke="#404040" d="M181.106,-111.995C200.013,-100.53 221.406,-87.6334 241,-76 247.627,-72.0653 254.583,-67.9681 261.504,-63.9116"/>
<polygon fill="none" stroke="#404040" points="261.94,-63.6567 265.101,-57.1752 272.299,-57.5999 269.139,-64.0814 261.94,-63.6567"/>
<text text-anchor="middle" x="265" y="-79.5" font-family="FreeSans" font-size="10.00"> +weights</text>
</g>
<!-- Node3 -->
<g id="node3" class="node"><title>Node3</title>
<g id="a_node3"><a xlink:href="structNif_1_1NiSkinData_1_1VertWeight.html" target="_top" xlink:title="{Nif::NiSkinData::VertWeight\n||}">
<polygon fill="white" stroke="black" points="0,-240.5 0,-297.5 146,-297.5 146,-240.5 0,-240.5"/>
<text text-anchor="middle" x="73" y="-285.5" font-family="FreeSans" font-size="10.00">Nif::NiSkinData::VertWeight</text>
<polyline fill="none" stroke="black" points="0,-278.5 146,-278.5 "/>
<text text-anchor="middle" x="73" y="-266.5" font-family="FreeSans" font-size="10.00"> </text>
<polyline fill="none" stroke="black" points="0,-259.5 146,-259.5 "/>
<text text-anchor="middle" x="73" y="-247.5" font-family="FreeSans" font-size="10.00"> </text>
</a>
</g>
</g>
<!-- Node3&#45;&gt;Node2 -->
<g id="edge2" class="edge"><title>Node3&#45;&gt;Node2</title>
<path fill="none" stroke="#404040" d="M85.3887,-240.24C91.8654,-225.728 99.9473,-207.618 107.261,-191.23"/>
<polygon fill="none" stroke="#404040" points="107.282,-191.182 106.075,-184.073 112.173,-180.224 113.38,-187.333 107.282,-191.182"/>
<text text-anchor="middle" x="128.5" y="-207.5" font-family="FreeSans" font-size="10.00"> +elements</text>
</g>
<!-- Node4 -->
<g id="node4" class="node"><title>Node4</title>
<polygon fill="white" stroke="#bfbfbf" points="226,-352.5 226,-409.5 264,-409.5 264,-352.5 226,-352.5"/>
<text text-anchor="middle" x="245" y="-397.5" font-family="FreeSans" font-size="10.00">float</text>
<polyline fill="none" stroke="#bfbfbf" points="226,-390.5 264,-390.5 "/>
<text text-anchor="middle" x="245" y="-378.5" font-family="FreeSans" font-size="10.00"> </text>
<polyline fill="none" stroke="#bfbfbf" points="226,-371.5 264,-371.5 "/>
<text text-anchor="middle" x="245" y="-359.5" font-family="FreeSans" font-size="10.00"> </text>
</g>
<!-- Node4&#45;&gt;Node1 -->
<g id="edge5" class="edge"><title>Node4&#45;&gt;Node1</title>
<path fill="none" stroke="#404040" d="M264.006,-373.119C292.733,-362.015 347.799,-337.906 385,-304 431.645,-261.486 445.652,-246.387 464,-186 474.337,-151.98 482.359,-136.449 464,-106 449.569,-82.0655 424.806,-65.2825 399.844,-53.6971"/>
<polygon fill="none" stroke="#404040" points="399.788,-53.6726 392.69,-54.9492 388.782,-48.8889 395.88,-47.6123 399.788,-53.6726"/>
<text text-anchor="middle" x="512" y="-207.5" font-family="FreeSans" font-size="10.00"> +boundSphereRadius</text>
</g>
<!-- Node4&#45;&gt;Node3 -->
<g id="edge3" class="edge"><title>Node4&#45;&gt;Node3</title>
<path fill="none" stroke="#404040" d="M225.921,-370.44C208.632,-361.569 182.627,-347.707 161,-334 146.886,-325.055 132.02,-314.65 118.606,-304.863"/>
<polygon fill="none" stroke="#404040" points="118.326,-304.656 111.123,-304.314 108.668,-297.534 115.871,-297.876 118.326,-304.656"/>
<text text-anchor="middle" x="182.5" y="-325.5" font-family="FreeSans" font-size="10.00"> +weight</text>
</g>
<!-- Node7 -->
<g id="node7" class="node"><title>Node7</title>
<g id="a_node7"><a xlink:href="structNif_1_1Transformation.html" target="_top" xlink:title="{Nif::Transformation\n||+ toMatrix()\l+ isIdentity()\l+ getIdentity()\l}">
<polygon fill="white" stroke="black" points="211.5,-106.5 211.5,-185.5 318.5,-185.5 318.5,-106.5 211.5,-106.5"/>
<text text-anchor="middle" x="265" y="-173.5" font-family="FreeSans" font-size="10.00">Nif::Transformation</text>
<polyline fill="none" stroke="black" points="211.5,-166.5 318.5,-166.5 "/>
<text text-anchor="middle" x="265" y="-154.5" font-family="FreeSans" font-size="10.00"> </text>
<polyline fill="none" stroke="black" points="211.5,-147.5 318.5,-147.5 "/>
<text text-anchor="start" x="219.5" y="-135.5" font-family="FreeSans" font-size="10.00">+ toMatrix()</text>
<text text-anchor="start" x="219.5" y="-124.5" font-family="FreeSans" font-size="10.00">+ isIdentity()</text>
<text text-anchor="start" x="219.5" y="-113.5" font-family="FreeSans" font-size="10.00">+ getIdentity()</text>
</a>
</g>
</g>
<!-- Node4&#45;&gt;Node7 -->
<g id="edge8" class="edge"><title>Node4&#45;&gt;Node7</title>
<path fill="none" stroke="#404040" d="M258.435,-352.322C260.733,-346.406 262.773,-340.099 264,-334 273.118,-288.676 272.401,-235.914 269.97,-198.012"/>
<polygon fill="none" stroke="#404040" points="269.95,-197.73 265.531,-192.031 269.092,-185.761 273.511,-191.459 269.95,-197.73"/>
<text text-anchor="middle" x="290.5" y="-266.5" font-family="FreeSans" font-size="10.00"> +scale</text>
</g>
<!-- Node8 -->
<g id="node8" class="node"><title>Node8</title>
<g id="a_node8"><a xlink:href="structNif_1_1Matrix3.html" target="_top" xlink:title="{Nif::Matrix3\n||+ Matrix3()\l+ isIdentity()\l}">
<polygon fill="white" stroke="black" points="164,-235 164,-303 242,-303 242,-235 164,-235"/>
<text text-anchor="middle" x="203" y="-291" font-family="FreeSans" font-size="10.00">Nif::Matrix3</text>
<polyline fill="none" stroke="black" points="164,-284 242,-284 "/>
<text text-anchor="middle" x="203" y="-272" font-family="FreeSans" font-size="10.00"> </text>
<polyline fill="none" stroke="black" points="164,-265 242,-265 "/>
<text text-anchor="start" x="172" y="-253" font-family="FreeSans" font-size="10.00">+ Matrix3()</text>
<text text-anchor="start" x="172" y="-242" font-family="FreeSans" font-size="10.00">+ isIdentity()</text>
</a>
</g>
</g>
<!-- Node4&#45;&gt;Node8 -->
<g id="edge10" class="edge"><title>Node4&#45;&gt;Node8</title>
<path fill="none" stroke="#404040" d="M225.906,-358.928C220.206,-351.534 214.54,-342.852 211,-334 208.644,-328.108 206.939,-321.688 205.712,-315.263"/>
<polygon fill="none" stroke="#404040" points="205.659,-314.908 200.821,-309.56 203.897,-303.038 208.735,-308.385 205.659,-314.908"/>
<text text-anchor="middle" x="237.5" y="-325.5" font-family="FreeSans" font-size="10.00"> +mValues</text>
</g>
<!-- Node5 -->
<g id="node5" class="node"><title>Node5</title>
<polygon fill="white" stroke="#bfbfbf" points="43,-352.5 43,-409.5 103,-409.5 103,-352.5 43,-352.5"/>
<text text-anchor="middle" x="73" y="-397.5" font-family="FreeSans" font-size="10.00">unsigned</text>
<polyline fill="none" stroke="#bfbfbf" points="43,-390.5 103,-390.5 "/>
<text text-anchor="middle" x="73" y="-378.5" font-family="FreeSans" font-size="10.00"> </text>
<polyline fill="none" stroke="#bfbfbf" points="43,-371.5 103,-371.5 "/>
<text text-anchor="middle" x="73" y="-359.5" font-family="FreeSans" font-size="10.00"> </text>
</g>
<!-- Node5&#45;&gt;Node3 -->
<g id="edge4" class="edge"><title>Node5&#45;&gt;Node3</title>
<path fill="none" stroke="#404040" d="M73,-352.242C73,-339.475 73,-324.088 73,-310.094"/>
<polygon fill="none" stroke="#404040" points="73.0001,-309.749 69,-303.749 73,-297.749 77,-303.749 73.0001,-309.749"/>
<text text-anchor="middle" x="94" y="-325.5" font-family="FreeSans" font-size="10.00"> +vertex</text>
</g>
<!-- Node6 -->
<g id="node6" class="node"><title>Node6</title>
<polygon fill="white" stroke="#bfbfbf" points="333.5,-240.5 333.5,-297.5 376.5,-297.5 376.5,-240.5 333.5,-240.5"/>
<text text-anchor="middle" x="355" y="-285.5" font-family="FreeSans" font-size="10.00">Vec3f</text>
<polyline fill="none" stroke="#bfbfbf" points="333.5,-278.5 376.5,-278.5 "/>
<text text-anchor="middle" x="355" y="-266.5" font-family="FreeSans" font-size="10.00"> </text>
<polyline fill="none" stroke="#bfbfbf" points="333.5,-259.5 376.5,-259.5 "/>
<text text-anchor="middle" x="355" y="-247.5" font-family="FreeSans" font-size="10.00"> </text>
</g>
<!-- Node6&#45;&gt;Node1 -->
<g id="edge6" class="edge"><title>Node6&#45;&gt;Node1</title>
<path fill="none" stroke="#404040" d="M354.307,-240.336C352.902,-202.734 348.675,-133.575 336,-76 335.53,-73.8633 334.991,-71.6886 334.402,-69.5055"/>
<polygon fill="none" stroke="#404040" points="334.37,-69.3995 328.801,-64.8192 330.887,-57.9163 336.456,-62.4967 334.37,-69.3995"/>
<text text-anchor="middle" x="405.5" y="-143.5" font-family="FreeSans" font-size="10.00"> +boundSphereCenter</text>
</g>
<!-- Node6&#45;&gt;Node7 -->
<g id="edge11" class="edge"><title>Node6&#45;&gt;Node7</title>
<path fill="none" stroke="#404040" d="M333.303,-242.725C326.331,-234.351 318.686,-224.897 312,-216 307.144,-209.538 302.174,-202.618 297.369,-195.745"/>
<polygon fill="none" stroke="#404040" points="297.298,-195.643 290.598,-192.978 290.48,-185.768 297.181,-188.433 297.298,-195.643"/>
<text text-anchor="middle" x="326.5" y="-207.5" font-family="FreeSans" font-size="10.00"> +pos</text>
</g>
<!-- Node7&#45;&gt;Node1 -->
<g id="edge7" class="edge"><title>Node7&#45;&gt;Node1</title>
<path fill="none" stroke="#404040" d="M283.467,-106.387C289.238,-94.3214 295.605,-81.0079 301.385,-68.9214"/>
<polygon fill="none" stroke="#404040" points="301.532,-68.6158 300.512,-61.4771 306.709,-57.7902 307.729,-64.9288 301.532,-68.6158"/>
<text text-anchor="middle" x="315" y="-79.5" font-family="FreeSans" font-size="10.00"> +trafo</text>
</g>
<!-- Node8&#45;&gt;Node7 -->
<g id="edge9" class="edge"><title>Node8&#45;&gt;Node7</title>
<path fill="none" stroke="#404040" d="M205.807,-234.701C207.56,-224.486 210.401,-213.454 215,-204 216.409,-201.104 218.005,-198.24 219.74,-195.43"/>
<polygon fill="none" stroke="#404040" points="219.751,-195.414 219.849,-188.204 226.543,-185.522 226.445,-192.732 219.751,-195.414"/>
<text text-anchor="middle" x="239.5" y="-207.5" font-family="FreeSans" font-size="10.00"> +rotation</text>
</g>
</g>
</svg>
