<?xml version="1.0" encoding="UTF-8" standalone="no"?>
<!DOCTYPE svg PUBLIC "-//W3C//DTD SVG 1.1//EN"
 "http://www.w3.org/Graphics/SVG/1.1/DTD/svg11.dtd">
<!-- Generated by graphviz version 2.36.0 (20140111.2315)
 -->
<!-- Title: MWRender::WeatherResult Pages: 1 -->
<svg width="444pt" height="390pt"
 viewBox="0.00 0.00 444.00 390.00" xmlns="http://www.w3.org/2000/svg" xmlns:xlink="http://www.w3.org/1999/xlink">
<g id="graph0" class="graph" transform="scale(1 1) rotate(0) translate(4 386)">
<title>MWRender::WeatherResult</title>
<polygon fill="white" stroke="none" points="-4,4 -4,-386 440,-386 440,4 -4,4"/>
<!-- Node1 -->
<g id="node1" class="node"><title>Node1</title>
<polygon fill="#bfbfbf" stroke="black" points="117,-0.5 117,-57.5 249,-57.5 249,-0.5 117,-0.5"/>
<text text-anchor="middle" x="183" y="-45.5" font-family="FreeSans" font-size="10.00">MWRender::WeatherResult</text>
<polyline fill="none" stroke="black" points="117,-38.5 249,-38.5 "/>
<text text-anchor="middle" x="183" y="-26.5" font-family="FreeSans" font-size="10.00"> </text>
<polyline fill="none" stroke="black" points="117,-19.5 249,-19.5 "/>
<text text-anchor="middle" x="183" y="-7.5" font-family="FreeSans" font-size="10.00"> </text>
</g>
<!-- Node2 -->
<g id="node2" class="node"><title>Node2</title>
<polygon fill="white" stroke="#bfbfbf" points="-0.5,-216.5 -0.5,-273.5 40.5,-273.5 40.5,-216.5 -0.5,-216.5"/>
<text text-anchor="middle" x="20" y="-261.5" font-family="FreeSans" font-size="10.00">Vec4f</text>
<polyline fill="none" stroke="#bfbfbf" points="-0.5,-254.5 40.5,-254.5 "/>
<text text-anchor="middle" x="20" y="-242.5" font-family="FreeSans" font-size="10.00"> </text>
<polyline fill="none" stroke="#bfbfbf" points="-0.5,-235.5 40.5,-235.5 "/>
<text text-anchor="middle" x="20" y="-223.5" font-family="FreeSans" font-size="10.00"> </text>
</g>
<!-- Node2&#45;&gt;Node1 -->
<g id="edge1" class="edge"><title>Node2&#45;&gt;Node1</title>
<path fill="none" stroke="#404040" d="M11.7985,-216.315C2.8864,-180.062 -6.25269,-116.384 25,-76 43.9025,-51.5749 75.016,-39.5756 104.657,-33.8632"/>
<polygon fill="none" stroke="#404040" points="104.951,-33.8143 110.213,-28.8834 116.788,-31.8441 111.527,-36.7749 104.951,-33.8143"/>
<text text-anchor="middle" x="61.5" y="-156.5" font-family="FreeSans" font-size="10.00"> +mSkyColor</text>
<text text-anchor="middle" x="61.5" y="-145.5" font-family="FreeSans" font-size="10.00">+mSunDiscColor</text>
<text text-anchor="middle" x="61.5" y="-134.5" font-family="FreeSans" font-size="10.00">+mSunColor</text>
<text text-anchor="middle" x="61.5" y="-123.5" font-family="FreeSans" font-size="10.00">+mAmbientColor</text>
<text text-anchor="middle" x="61.5" y="-112.5" font-family="FreeSans" font-size="10.00">+mFogColor</text>
</g>
<!-- Node3 -->
<g id="node3" class="node"><title>Node3</title>
<polygon fill="white" stroke="#bfbfbf" points="98.5,-216.5 98.5,-273.5 133.5,-273.5 133.5,-216.5 98.5,-216.5"/>
<text text-anchor="middle" x="116" y="-261.5" font-family="FreeSans" font-size="10.00">float</text>
<polyline fill="none" stroke="#bfbfbf" points="98.5,-254.5 133.5,-254.5 "/>
<text text-anchor="middle" x="116" y="-242.5" font-family="FreeSans" font-size="10.00"> </text>
<polyline fill="none" stroke="#bfbfbf" points="98.5,-235.5 133.5,-235.5 "/>
<text text-anchor="middle" x="116" y="-223.5" font-family="FreeSans" font-size="10.00"> </text>
</g>
<!-- Node3&#45;&gt;Node1 -->
<g id="edge2" class="edge"><title>Node3&#45;&gt;Node1</title>
<path fill="none" stroke="#404040" d="M108.777,-216.253C101.272,-181.331 93.5867,-120.534 117,-76 118.763,-72.6467 120.893,-69.4876 123.293,-66.5191"/>
<polygon fill="none" stroke="#404040" points="123.456,-66.349 124.718,-59.2491 131.757,-57.6832 130.495,-64.7831 123.456,-66.349"/>
<text text-anchor="middle" x="172.5" y="-189.5" font-family="FreeSans" font-size="10.00"> +mNightFade</text>
<text text-anchor="middle" x="172.5" y="-178.5" font-family="FreeSans" font-size="10.00">+mGlareView</text>
<text text-anchor="middle" x="172.5" y="-167.5" font-family="FreeSans" font-size="10.00">+mRainFrequency</text>
<text text-anchor="middle" x="172.5" y="-156.5" font-family="FreeSans" font-size="10.00">+mCloudBlendFactor</text>
<text text-anchor="middle" x="172.5" y="-145.5" font-family="FreeSans" font-size="10.00">+mRainSpeed</text>
<text text-anchor="middle" x="172.5" y="-134.5" font-family="FreeSans" font-size="10.00">+mEffectFade</text>
<text text-anchor="middle" x="172.5" y="-123.5" font-family="FreeSans" font-size="10.00">+mCloudSpeed</text>
<text text-anchor="middle" x="172.5" y="-112.5" font-family="FreeSans" font-size="10.00">+mWindSpeed</text>
<text text-anchor="middle" x="172.5" y="-101.5" font-family="FreeSans" font-size="10.00">+mFogDepth</text>
<text text-anchor="middle" x="172.5" y="-90.5" font-family="FreeSans" font-size="10.00">+mAmbientSoundVolume</text>
<text text-anchor="middle" x="172.5" y="-79.5" font-family="FreeSans" font-size="10.00">...</text>
</g>
<!-- Node4 -->
<g id="node4" class="node"><title>Node4</title>
<g id="a_node4"><a xlink:href="classbool.html" target="_top" xlink:title="{bool\n||}">
<polygon fill="white" stroke="black" points="232.5,-216.5 232.5,-273.5 267.5,-273.5 267.5,-216.5 232.5,-216.5"/>
<text text-anchor="middle" x="250" y="-261.5" font-family="FreeSans" font-size="10.00">bool</text>
<polyline fill="none" stroke="black" points="232.5,-254.5 267.5,-254.5 "/>
<text text-anchor="middle" x="250" y="-242.5" font-family="FreeSans" font-size="10.00"> </text>
<polyline fill="none" stroke="black" points="232.5,-235.5 267.5,-235.5 "/>
<text text-anchor="middle" x="250" y="-223.5" font-family="FreeSans" font-size="10.00"> </text>
</a>
</g>
</g>
<!-- Node4&#45;&gt;Node1 -->
<g id="edge3" class="edge"><title>Node4&#45;&gt;Node1</title>
<path fill="none" stroke="#404040" d="M248.502,-216.377C245.917,-175.243 239.731,-100.143 228,-76 226.562,-73.0404 224.859,-70.1529 222.971,-67.3601"/>
<polygon fill="none" stroke="#404040" points="222.831,-67.1791 215.991,-64.8941 215.47,-57.7018 222.309,-59.9868 222.831,-67.1791"/>
<text text-anchor="middle" x="270.5" y="-140" font-family="FreeSans" font-size="10.00"> +mNight</text>
<text text-anchor="middle" x="270.5" y="-129" font-family="FreeSans" font-size="10.00">+mIsStorm</text>
</g>
<!-- Node5 -->
<g id="node5" class="node"><title>Node5</title>
<g id="a_node5"><a xlink:title="STL class. ">
<polygon fill="white" stroke="#bfbfbf" points="293.5,-216.5 293.5,-273.5 350.5,-273.5 350.5,-216.5 293.5,-216.5"/>
<text text-anchor="middle" x="322" y="-261.5" font-family="FreeSans" font-size="10.00">std::string</text>
<polyline fill="none" stroke="#bfbfbf" points="293.5,-254.5 350.5,-254.5 "/>
<text text-anchor="middle" x="322" y="-242.5" font-family="FreeSans" font-size="10.00"> </text>
<polyline fill="none" stroke="#bfbfbf" points="293.5,-235.5 350.5,-235.5 "/>
<text text-anchor="middle" x="322" y="-223.5" font-family="FreeSans" font-size="10.00"> </text>
</a>
</g>
</g>
<!-- Node5&#45;&gt;Node1 -->
<g id="edge4" class="edge"><title>Node5&#45;&gt;Node1</title>
<path fill="none" stroke="#404040" d="M326.093,-216.365C329.856,-180.168 330.776,-116.551 299,-76 289.097,-63.3623 275.206,-54.1866 260.467,-47.5276"/>
<polygon fill="none" stroke="#404040" points="260.202,-47.4203 253.139,-48.872 249.082,-42.9102 256.145,-41.4585 260.202,-47.4203"/>
<text text-anchor="middle" x="381.5" y="-156.5" font-family="FreeSans" font-size="10.00"> +mParticleEffect</text>
<text text-anchor="middle" x="381.5" y="-145.5" font-family="FreeSans" font-size="10.00">+mNextCloudTexture</text>
<text text-anchor="middle" x="381.5" y="-134.5" font-family="FreeSans" font-size="10.00">+mCloudTexture</text>
<text text-anchor="middle" x="381.5" y="-123.5" font-family="FreeSans" font-size="10.00">+mAmbientLoopSoundID</text>
<text text-anchor="middle" x="381.5" y="-112.5" font-family="FreeSans" font-size="10.00">+mRainEffect</text>
</g>
<!-- Node6 -->
<g id="node6" class="node"><title>Node6</title>
<g id="a_node6"><a xlink:title="STL class. ">
<polygon fill="white" stroke="#bfbfbf" points="276.5,-313 276.5,-381 367.5,-381 367.5,-313 276.5,-313"/>
<text text-anchor="start" x="284.5" y="-369" font-family="FreeSans" font-size="10.00">std::basic_string&lt;</text>
<text text-anchor="middle" x="322" y="-358" font-family="FreeSans" font-size="10.00"> char &gt;</text>
<polyline fill="none" stroke="#bfbfbf" points="276.5,-351 367.5,-351 "/>
<text text-anchor="middle" x="322" y="-339" font-family="FreeSans" font-size="10.00"> </text>
<polyline fill="none" stroke="#bfbfbf" points="276.5,-332 367.5,-332 "/>
<text text-anchor="middle" x="322" y="-320" font-family="FreeSans" font-size="10.00"> </text>
</a>
</g>
</g>
<!-- Node6&#45;&gt;Node5 -->
<g id="edge5" class="edge"><title>Node6&#45;&gt;Node5</title>
<path fill="none" stroke="midnightblue" d="M322,-302.857C322,-292.952 322,-282.682 322,-273.64"/>
<polygon fill="none" stroke="midnightblue" points="318.5,-302.979 322,-312.979 325.5,-302.979 318.5,-302.979"/>
</g>
</g>
</svg>
