<?xml version="1.0" encoding="UTF-8" standalone="no"?>
<!DOCTYPE svg PUBLIC "-//W3C//DTD SVG 1.1//EN"
 "http://www.w3.org/Graphics/SVG/1.1/DTD/svg11.dtd">
<!-- Generated by graphviz version 2.36.0 (20140111.2315)
 -->
<!-- Title: Nif::NiDynamicEffect::read Pages: 1 -->
<svg width="536pt" height="77pt"
 viewBox="0.00 0.00 536.00 77.00" xmlns="http://www.w3.org/2000/svg" xmlns:xlink="http://www.w3.org/1999/xlink">
<g id="graph0" class="graph" transform="scale(1 1) rotate(0) translate(4 73)">
<title>Nif::NiDynamicEffect::read</title>
<polygon fill="white" stroke="none" points="-4,4 -4,-73 532,-73 532,4 -4,4"/>
<!-- Node1 -->
<g id="node1" class="node"><title>Node1</title>
<polygon fill="#bfbfbf" stroke="black" points="0,-22 0,-52 104,-52 104,-22 0,-22"/>
<text text-anchor="start" x="8" y="-40" font-family="FreeSans" font-size="10.00">Nif::NiDynamicEffect</text>
<text text-anchor="middle" x="52" y="-29" font-family="FreeSans" font-size="10.00">::read</text>
</g>
<!-- Node2 -->
<g id="node2" class="node"><title>Node2</title>
<g id="a_node2"><a xlink:href="structNif_1_1NiLight.html#aaa5566925af253ece5cf638b13262d05" target="_top" xlink:title="Parses the record from file. ">
<polygon fill="white" stroke="black" points="146,-49.5 146,-68.5 232,-68.5 232,-49.5 146,-49.5"/>
<text text-anchor="middle" x="189" y="-56.5" font-family="FreeSans" font-size="10.00">Nif::NiLight::read</text>
</a>
</g>
</g>
<!-- Node1&#45;&gt;Node2 -->
<g id="edge1" class="edge"><title>Node1&#45;&gt;Node2</title>
<path fill="none" stroke="midnightblue" d="M114.155,-46.966C124.812,-48.7028 135.683,-50.4742 145.69,-52.1051"/>
<polygon fill="midnightblue" stroke="midnightblue" points="114.47,-43.4713 104.038,-45.3173 113.345,-50.3802 114.47,-43.4713"/>
</g>
<!-- Node5 -->
<g id="node5" class="node"><title>Node5</title>
<g id="a_node5"><a xlink:href="structNif_1_1NiTextureEffect.html#a784927c437e7205931ee622cef7126d4" target="_top" xlink:title="Parses the record from file. ">
<polygon fill="white" stroke="black" points="140,-0 140,-30 238,-30 238,-0 140,-0"/>
<text text-anchor="start" x="148" y="-18" font-family="FreeSans" font-size="10.00">Nif::NiTextureEffect</text>
<text text-anchor="middle" x="189" y="-7" font-family="FreeSans" font-size="10.00">::read</text>
</a>
</g>
</g>
<!-- Node1&#45;&gt;Node5 -->
<g id="edge4" class="edge"><title>Node1&#45;&gt;Node5</title>
<path fill="none" stroke="midnightblue" d="M113.998,-27.0597C122.566,-25.6634 131.275,-24.2441 139.566,-22.893"/>
<polygon fill="midnightblue" stroke="midnightblue" points="113.345,-23.6198 104.038,-28.6827 114.47,-30.5287 113.345,-23.6198"/>
</g>
<!-- Node3 -->
<g id="node3" class="node"><title>Node3</title>
<g id="a_node3"><a xlink:href="structNif_1_1NiPointLight.html#a3806e55568ffa18be2344ee60ffca4a7" target="_top" xlink:title="Parses the record from file. ">
<polygon fill="white" stroke="black" points="274.5,-49.5 274.5,-68.5 383.5,-68.5 383.5,-49.5 274.5,-49.5"/>
<text text-anchor="middle" x="329" y="-56.5" font-family="FreeSans" font-size="10.00">Nif::NiPointLight::read</text>
</a>
</g>
</g>
<!-- Node2&#45;&gt;Node3 -->
<g id="edge2" class="edge"><title>Node2&#45;&gt;Node3</title>
<path fill="none" stroke="midnightblue" d="M242.399,-59C252.864,-59 263.869,-59 274.374,-59"/>
<polygon fill="midnightblue" stroke="midnightblue" points="242.154,-55.5001 232.154,-59 242.154,-62.5001 242.154,-55.5001"/>
</g>
<!-- Node4 -->
<g id="node4" class="node"><title>Node4</title>
<g id="a_node4"><a xlink:href="structNif_1_1NiSpotLight.html#a55dc43859126d4c6c214fdfbe1fc56c7" target="_top" xlink:title="Parses the record from file. ">
<polygon fill="white" stroke="black" points="420.5,-49.5 420.5,-68.5 527.5,-68.5 527.5,-49.5 420.5,-49.5"/>
<text text-anchor="middle" x="474" y="-56.5" font-family="FreeSans" font-size="10.00">Nif::NiSpotLight::read</text>
</a>
</g>
</g>
<!-- Node3&#45;&gt;Node4 -->
<g id="edge3" class="edge"><title>Node3&#45;&gt;Node4</title>
<path fill="none" stroke="midnightblue" d="M393.668,-59C402.626,-59 411.75,-59 420.469,-59"/>
<polygon fill="midnightblue" stroke="midnightblue" points="393.655,-55.5001 383.655,-59 393.655,-62.5001 393.655,-55.5001"/>
</g>
</g>
</svg>
