<?xml version="1.0" encoding="UTF-8" standalone="no"?>
<!DOCTYPE svg PUBLIC "-//W3C//DTD SVG 1.1//EN"
 "http://www.w3.org/Graphics/SVG/1.1/DTD/svg11.dtd">
<!-- Generated by graphviz version 2.36.0 (20140111.2315)
 -->
<!-- Title: Nif::Record::read Pages: 1 -->
<svg width="362pt" height="28pt"
 viewBox="0.00 0.00 362.00 28.00" xmlns="http://www.w3.org/2000/svg" xmlns:xlink="http://www.w3.org/1999/xlink">
<g id="graph0" class="graph" transform="scale(1 1) rotate(0) translate(4 24)">
<title>Nif::Record::read</title>
<polygon fill="white" stroke="none" points="-4,4 -4,-24 358,-24 358,4 -4,4"/>
<!-- Node1 -->
<g id="node1" class="node"><title>Node1</title>
<polygon fill="#bfbfbf" stroke="black" points="0.5,-0.5 0.5,-19.5 87.5,-19.5 87.5,-0.5 0.5,-0.5"/>
<text text-anchor="middle" x="44" y="-7.5" font-family="FreeSans" font-size="10.00">Nif::Record::read</text>
</g>
<!-- Node2 -->
<g id="node2" class="node"><title>Node2</title>
<g id="a_node2"><a xlink:href="classNif_1_1NIFFile.html#a203092ee089e055745929e0a96cdbb7f" target="_top" xlink:title="Parse the file. ">
<polygon fill="white" stroke="black" points="124,-0.5 124,-19.5 216,-19.5 216,-0.5 124,-0.5"/>
<text text-anchor="middle" x="170" y="-7.5" font-family="FreeSans" font-size="10.00">Nif::NIFFile::parse</text>
</a>
</g>
</g>
<!-- Node1&#45;&gt;Node2 -->
<g id="edge1" class="edge"><title>Node1&#45;&gt;Node2</title>
<path fill="none" stroke="midnightblue" d="M97.6835,-10C106.343,-10 115.25,-10 123.71,-10"/>
<polygon fill="midnightblue" stroke="midnightblue" points="97.6738,-6.5001 87.6738,-10 97.6737,-13.5001 97.6738,-6.5001"/>
</g>
<!-- Node3 -->
<g id="node3" class="node"><title>Node3</title>
<g id="a_node3"><a xlink:href="classNif_1_1NIFFile.html#a1c96038c1bf4d3dd05f94d13f97340d1" target="_top" xlink:title="Open a NIF stream. The name is used for error messages. ">
<polygon fill="white" stroke="black" points="252.5,-0.5 252.5,-19.5 353.5,-19.5 353.5,-0.5 252.5,-0.5"/>
<text text-anchor="middle" x="303" y="-7.5" font-family="FreeSans" font-size="10.00">Nif::NIFFile::NIFFile</text>
</a>
</g>
</g>
<!-- Node2&#45;&gt;Node3 -->
<g id="edge2" class="edge"><title>Node2&#45;&gt;Node3</title>
<path fill="none" stroke="midnightblue" d="M226.14,-10C234.838,-10 243.786,-10 252.349,-10"/>
<polygon fill="midnightblue" stroke="midnightblue" points="226.083,-6.5001 216.083,-10 226.083,-13.5001 226.083,-6.5001"/>
</g>
</g>
</svg>
