<?xml version="1.0" encoding="UTF-8" standalone="no"?>
<!DOCTYPE svg PUBLIC "-//W3C//DTD SVG 1.1//EN"
 "http://www.w3.org/Graphics/SVG/1.1/DTD/svg11.dtd">
<!-- Generated by graphviz version 2.36.0 (20140111.2315)
 -->
<!-- Title: CSMWorld::ResponseColumn::set Pages: 1 -->
<svg width="382pt" height="66pt"
 viewBox="0.00 0.00 382.00 66.00" xmlns="http://www.w3.org/2000/svg" xmlns:xlink="http://www.w3.org/1999/xlink">
<g id="graph0" class="graph" transform="scale(1 1) rotate(0) translate(4 62)">
<title>CSMWorld::ResponseColumn::set</title>
<polygon fill="white" stroke="none" points="-4,4 -4,-62 378,-62 378,4 -4,4"/>
<!-- Node1 -->
<g id="node1" class="node"><title>Node1</title>
<polygon fill="#bfbfbf" stroke="black" points="0.5,-19.5 0.5,-38.5 173.5,-38.5 173.5,-19.5 0.5,-19.5"/>
<text text-anchor="middle" x="87" y="-26.5" font-family="FreeSans" font-size="10.00">CSMWorld::ResponseColumn::set</text>
</g>
<!-- Node2 -->
<g id="node2" class="node"><title>Node2</title>
<g id="a_node2"><a xlink:href="structCSMWorld_1_1Record.html#a405cc96a8dfcbde494e58db281b827b3" target="_top" xlink:title="Throws an exception, if the record is deleted. ">
<polygon fill="white" stroke="black" points="230,-38.5 230,-57.5 354,-57.5 354,-38.5 230,-38.5"/>
<text text-anchor="middle" x="292" y="-45.5" font-family="FreeSans" font-size="10.00">CSMWorld::Record::get</text>
</a>
</g>
</g>
<!-- Node1&#45;&gt;Node2 -->
<g id="edge1" class="edge"><title>Node1&#45;&gt;Node2</title>
<path fill="none" stroke="midnightblue" d="M173.502,-37.0026C188.909,-38.4447 204.82,-39.9339 219.768,-41.3329"/>
<polygon fill="midnightblue" stroke="midnightblue" points="219.661,-44.8382 229.944,-42.2854 220.314,-37.8686 219.661,-44.8382"/>
</g>
<!-- Node3 -->
<g id="node3" class="node"><title>Node3</title>
<g id="a_node3"><a xlink:href="structCSMWorld_1_1Record.html#aff8d9f633c4826abf47d8a6a4035a176" target="_top" xlink:title="Throws an exception, if the record is deleted. ">
<polygon fill="white" stroke="black" points="210.5,-0.5 210.5,-19.5 373.5,-19.5 373.5,-0.5 210.5,-0.5"/>
<text text-anchor="middle" x="292" y="-7.5" font-family="FreeSans" font-size="10.00">CSMWorld::Record::setModified</text>
</a>
</g>
</g>
<!-- Node1&#45;&gt;Node3 -->
<g id="edge2" class="edge"><title>Node1&#45;&gt;Node3</title>
<path fill="none" stroke="midnightblue" d="M173.502,-20.9974C182.398,-20.1647 191.463,-19.3163 200.413,-18.4786"/>
<polygon fill="midnightblue" stroke="midnightblue" points="200.823,-21.9556 210.454,-17.5388 200.171,-14.986 200.823,-21.9556"/>
</g>
</g>
</svg>
