<?xml version="1.0" encoding="UTF-8" standalone="no"?>
<!DOCTYPE svg PUBLIC "-//W3C//DTD SVG 1.1//EN"
 "http://www.w3.org/Graphics/SVG/1.1/DTD/svg11.dtd">
<!-- Generated by graphviz version 2.36.0 (20140111.2315)
 -->
<!-- Title: CSMWorld::LandTextureNicknameColumn Pages: 1 -->
<svg width="354pt" height="678pt"
 viewBox="0.00 0.00 354.00 678.00" xmlns="http://www.w3.org/2000/svg" xmlns:xlink="http://www.w3.org/1999/xlink">
<g id="graph0" class="graph" transform="scale(1 1) rotate(0) translate(4 674)">
<title>CSMWorld::LandTextureNicknameColumn</title>
<polygon fill="white" stroke="none" points="-4,4 -4,-674 350,-674 350,4 -4,4"/>
<!-- Node1 -->
<g id="node1" class="node"><title>Node1</title>
<polygon fill="#bfbfbf" stroke="black" points="4,-0.5 4,-101.5 182,-101.5 182,-0.5 4,-0.5"/>
<text text-anchor="start" x="12" y="-89.5" font-family="FreeSans" font-size="10.00">CSMWorld::LandTextureNickname</text>
<text text-anchor="middle" x="93" y="-78.5" font-family="FreeSans" font-size="10.00">Column</text>
<polyline fill="none" stroke="black" points="4,-71.5 182,-71.5 "/>
<text text-anchor="middle" x="93" y="-59.5" font-family="FreeSans" font-size="10.00"> </text>
<polyline fill="none" stroke="black" points="4,-52.5 182,-52.5 "/>
<text text-anchor="start" x="12" y="-40.5" font-family="FreeSans" font-size="10.00">+ LandTextureNicknameColumn()</text>
<text text-anchor="start" x="12" y="-29.5" font-family="FreeSans" font-size="10.00">+ get()</text>
<text text-anchor="start" x="12" y="-18.5" font-family="FreeSans" font-size="10.00">+ set()</text>
<text text-anchor="start" x="12" y="-7.5" font-family="FreeSans" font-size="10.00">+ isEditable()</text>
</g>
<!-- Node2 -->
<g id="node2" class="node"><title>Node2</title>
<g id="a_node2"><a xlink:href="structCSMWorld_1_1Column.html" target="_top" xlink:title="{CSMWorld::Column\&lt; LandTexture \&gt;\n||+ Column()\l+ get()\l+ set()\l}">
<polygon fill="white" stroke="black" points="-0.5,-140.5 -0.5,-219.5 186.5,-219.5 186.5,-140.5 -0.5,-140.5"/>
<text text-anchor="middle" x="93" y="-207.5" font-family="FreeSans" font-size="10.00">CSMWorld::Column&lt; LandTexture &gt;</text>
<polyline fill="none" stroke="black" points="-0.5,-200.5 186.5,-200.5 "/>
<text text-anchor="middle" x="93" y="-188.5" font-family="FreeSans" font-size="10.00"> </text>
<polyline fill="none" stroke="black" points="-0.5,-181.5 186.5,-181.5 "/>
<text text-anchor="start" x="7.5" y="-169.5" font-family="FreeSans" font-size="10.00">+ Column()</text>
<text text-anchor="start" x="7.5" y="-158.5" font-family="FreeSans" font-size="10.00">+ get()</text>
<text text-anchor="start" x="7.5" y="-147.5" font-family="FreeSans" font-size="10.00">+ set()</text>
</a>
</g>
</g>
<!-- Node2&#45;&gt;Node1 -->
<g id="edge1" class="edge"><title>Node2&#45;&gt;Node1</title>
<path fill="none" stroke="midnightblue" d="M93,-129.999C93,-120.756 93,-111.08 93,-101.812"/>
<polygon fill="none" stroke="midnightblue" points="89.5001,-130.206 93,-140.206 96.5001,-130.206 89.5001,-130.206"/>
</g>
<!-- Node3 -->
<g id="node3" class="node"><title>Node3</title>
<g id="a_node3"><a xlink:href="classCSMWorld_1_1NestableColumn.html" target="_top" xlink:title="{CSMWorld::NestableColumn\n||+ NestableColumn()\l+ ~NestableColumn()\l+ addColumn()\l+ nestedColumn()\l+ hasChildren()\l}">
<polygon fill="white" stroke="black" points="113.5,-268.5 113.5,-369.5 262.5,-369.5 262.5,-268.5 113.5,-268.5"/>
<text text-anchor="middle" x="188" y="-357.5" font-family="FreeSans" font-size="10.00">CSMWorld::NestableColumn</text>
<polyline fill="none" stroke="black" points="113.5,-350.5 262.5,-350.5 "/>
<text text-anchor="middle" x="188" y="-338.5" font-family="FreeSans" font-size="10.00"> </text>
<polyline fill="none" stroke="black" points="113.5,-331.5 262.5,-331.5 "/>
<text text-anchor="start" x="121.5" y="-319.5" font-family="FreeSans" font-size="10.00">+ NestableColumn()</text>
<text text-anchor="start" x="121.5" y="-308.5" font-family="FreeSans" font-size="10.00">+ ~NestableColumn()</text>
<text text-anchor="start" x="121.5" y="-297.5" font-family="FreeSans" font-size="10.00">+ addColumn()</text>
<text text-anchor="start" x="121.5" y="-286.5" font-family="FreeSans" font-size="10.00">+ nestedColumn()</text>
<text text-anchor="start" x="121.5" y="-275.5" font-family="FreeSans" font-size="10.00">+ hasChildren()</text>
</a>
</g>
</g>
<!-- Node3&#45;&gt;Node2 -->
<g id="edge2" class="edge"><title>Node3&#45;&gt;Node2</title>
<path fill="none" stroke="midnightblue" d="M147.668,-259.837C138.308,-246.338 128.567,-232.291 119.945,-219.858"/>
<polygon fill="none" stroke="midnightblue" points="144.86,-261.929 153.434,-268.152 150.612,-257.94 144.86,-261.929"/>
</g>
<!-- Node7 -->
<g id="node7" class="node"><title>Node7</title>
<polygon fill="white" stroke="#bfbfbf" points="205,-146 205,-214 331,-214 331,-146 205,-146"/>
<text text-anchor="start" x="213" y="-202" font-family="FreeSans" font-size="10.00">std::vector&lt; CSMWorld</text>
<text text-anchor="middle" x="268" y="-191" font-family="FreeSans" font-size="10.00">::NestableColumn * &gt;</text>
<polyline fill="none" stroke="#bfbfbf" points="205,-184 331,-184 "/>
<text text-anchor="middle" x="268" y="-172" font-family="FreeSans" font-size="10.00"> </text>
<polyline fill="none" stroke="#bfbfbf" points="205,-165 331,-165 "/>
<text text-anchor="middle" x="268" y="-153" font-family="FreeSans" font-size="10.00"> </text>
</g>
<!-- Node3&#45;&gt;Node7 -->
<g id="edge7" class="edge"><title>Node3&#45;&gt;Node7</title>
<path fill="none" stroke="#404040" d="M178.34,-268.409C178.392,-257.91 180.145,-247.224 185,-238 187.927,-232.439 191.669,-227.315 195.94,-222.616"/>
<polygon fill="none" stroke="#404040" points="196.111,-222.451 197.635,-215.402 204.728,-214.099 203.203,-221.147 196.111,-222.451"/>
<text text-anchor="middle" x="213.5" y="-241.5" font-family="FreeSans" font-size="10.00"> +elements</text>
</g>
<!-- Node4 -->
<g id="node4" class="node"><title>Node4</title>
<g id="a_node4"><a xlink:href="structCSMWorld_1_1ColumnBase.html" target="_top" xlink:title="{CSMWorld::ColumnBase\n||+ ColumnBase()\l+ ~ColumnBase()\l+ isEditable()\l+ isUserEditable()\l+ getTitle()\l+ getId()\l+ isId()\l+ isText()\l+ isScript()\l}">
<polygon fill="white" stroke="black" points="122.5,-408.5 122.5,-553.5 253.5,-553.5 253.5,-408.5 122.5,-408.5"/>
<text text-anchor="middle" x="188" y="-541.5" font-family="FreeSans" font-size="10.00">CSMWorld::ColumnBase</text>
<polyline fill="none" stroke="black" points="122.5,-534.5 253.5,-534.5 "/>
<text text-anchor="middle" x="188" y="-522.5" font-family="FreeSans" font-size="10.00"> </text>
<polyline fill="none" stroke="black" points="122.5,-515.5 253.5,-515.5 "/>
<text text-anchor="start" x="130.5" y="-503.5" font-family="FreeSans" font-size="10.00">+ ColumnBase()</text>
<text text-anchor="start" x="130.5" y="-492.5" font-family="FreeSans" font-size="10.00">+ ~ColumnBase()</text>
<text text-anchor="start" x="130.5" y="-481.5" font-family="FreeSans" font-size="10.00">+ isEditable()</text>
<text text-anchor="start" x="130.5" y="-470.5" font-family="FreeSans" font-size="10.00">+ isUserEditable()</text>
<text text-anchor="start" x="130.5" y="-459.5" font-family="FreeSans" font-size="10.00">+ getTitle()</text>
<text text-anchor="start" x="130.5" y="-448.5" font-family="FreeSans" font-size="10.00">+ getId()</text>
<text text-anchor="start" x="130.5" y="-437.5" font-family="FreeSans" font-size="10.00">+ isId()</text>
<text text-anchor="start" x="130.5" y="-426.5" font-family="FreeSans" font-size="10.00">+ isText()</text>
<text text-anchor="start" x="130.5" y="-415.5" font-family="FreeSans" font-size="10.00">+ isScript()</text>
</a>
</g>
</g>
<!-- Node4&#45;&gt;Node3 -->
<g id="edge3" class="edge"><title>Node4&#45;&gt;Node3</title>
<path fill="none" stroke="midnightblue" d="M188,-398.219C188,-388.416 188,-378.648 188,-369.505"/>
<polygon fill="none" stroke="midnightblue" points="184.5,-398.424 188,-408.424 191.5,-398.424 184.5,-398.424"/>
</g>
<!-- Node5 -->
<g id="node5" class="node"><title>Node5</title>
<g id="a_node5"><a xlink:href="classint.html" target="_top" xlink:title="{int\n||}">
<polygon fill="white" stroke="black" points="130.5,-612.5 130.5,-669.5 159.5,-669.5 159.5,-612.5 130.5,-612.5"/>
<text text-anchor="middle" x="145" y="-657.5" font-family="FreeSans" font-size="10.00">int</text>
<polyline fill="none" stroke="black" points="130.5,-650.5 159.5,-650.5 "/>
<text text-anchor="middle" x="145" y="-638.5" font-family="FreeSans" font-size="10.00"> </text>
<polyline fill="none" stroke="black" points="130.5,-631.5 159.5,-631.5 "/>
<text text-anchor="middle" x="145" y="-619.5" font-family="FreeSans" font-size="10.00"> </text>
</a>
</g>
</g>
<!-- Node5&#45;&gt;Node4 -->
<g id="edge4" class="edge"><title>Node5&#45;&gt;Node4</title>
<path fill="none" stroke="#404040" d="M142.793,-612.223C142.47,-599.776 143.015,-585.003 146,-572 146.528,-569.7 147.12,-567.388 147.767,-565.073"/>
<polygon fill="none" stroke="#404040" points="147.807,-564.946 145.801,-558.02 151.424,-553.504 153.429,-560.431 147.807,-564.946"/>
<text text-anchor="middle" x="178" y="-586" font-family="FreeSans" font-size="10.00"> +mFlags</text>
<text text-anchor="middle" x="178" y="-575" font-family="FreeSans" font-size="10.00">+mColumnId</text>
</g>
<!-- Node6 -->
<g id="node6" class="node"><title>Node6</title>
<polygon fill="white" stroke="#bfbfbf" points="206.5,-612.5 206.5,-669.5 257.5,-669.5 257.5,-612.5 206.5,-612.5"/>
<text text-anchor="middle" x="232" y="-657.5" font-family="FreeSans" font-size="10.00">Display</text>
<polyline fill="none" stroke="#bfbfbf" points="206.5,-650.5 257.5,-650.5 "/>
<text text-anchor="middle" x="232" y="-638.5" font-family="FreeSans" font-size="10.00"> </text>
<polyline fill="none" stroke="#bfbfbf" points="206.5,-631.5 257.5,-631.5 "/>
<text text-anchor="middle" x="232" y="-619.5" font-family="FreeSans" font-size="10.00"> </text>
</g>
<!-- Node6&#45;&gt;Node4 -->
<g id="edge5" class="edge"><title>Node6&#45;&gt;Node4</title>
<path fill="none" stroke="#404040" d="M224.336,-612.479C220.635,-599.189 215.975,-582.456 211.239,-565.448"/>
<polygon fill="none" stroke="#404040" points="211.178,-565.228 205.715,-560.521 207.958,-553.668 213.421,-558.375 211.178,-565.228"/>
<text text-anchor="middle" x="257.5" y="-580.5" font-family="FreeSans" font-size="10.00"> +mDisplayType</text>
</g>
<!-- Node7&#45;&gt;Node3 -->
<g id="edge6" class="edge"><title>Node7&#45;&gt;Node3</title>
<path fill="none" stroke="#404040" d="M260.358,-214.048C256.897,-225.82 252.171,-238.901 246,-250 244.428,-252.827 242.728,-255.644 240.931,-258.434"/>
<polygon fill="none" stroke="#404040" points="240.873,-258.518 240.754,-265.728 234.053,-268.391 234.172,-261.181 240.873,-258.518"/>
<text text-anchor="middle" x="299" y="-241.5" font-family="FreeSans" font-size="10.00"> &#45;mNestedColumns</text>
</g>
</g>
</svg>
