<?xml version="1.0" encoding="UTF-8" standalone="no"?>
<!DOCTYPE svg PUBLIC "-//W3C//DTD SVG 1.1//EN"
 "http://www.w3.org/Graphics/SVG/1.1/DTD/svg11.dtd">
<!-- Generated by graphviz version 2.36.0 (20140111.2315)
 -->
<!-- Title: MWRender::Animation::AnimState::shouldLoop Pages: 1 -->
<svg width="278pt" height="38pt"
 viewBox="0.00 0.00 278.00 38.00" xmlns="http://www.w3.org/2000/svg" xmlns:xlink="http://www.w3.org/1999/xlink">
<g id="graph0" class="graph" transform="scale(1 1) rotate(0) translate(4 34)">
<title>MWRender::Animation::AnimState::shouldLoop</title>
<polygon fill="white" stroke="none" points="-4,4 -4,-34 274,-34 274,4 -4,4"/>
<!-- Node1 -->
<g id="node1" class="node"><title>Node1</title>
<polygon fill="#bfbfbf" stroke="black" points="0,-0 0,-30 120,-30 120,-0 0,-0"/>
<text text-anchor="start" x="8" y="-18" font-family="FreeSans" font-size="10.00">MWRender::Animation</text>
<text text-anchor="middle" x="60" y="-7" font-family="FreeSans" font-size="10.00">::AnimState::shouldLoop</text>
</g>
<!-- Node2 -->
<g id="node2" class="node"><title>Node2</title>
<g id="a_node2"><a xlink:href="structMWRender_1_1Animation_1_1AnimState.html#a53d70c3f75d4b3dbdcbf0e47ce705b9e" target="_top" xlink:title="MWRender::Animation\l::AnimState::getTime">
<polygon fill="white" stroke="black" points="156.5,-0 156.5,-30 269.5,-30 269.5,-0 156.5,-0"/>
<text text-anchor="start" x="164.5" y="-18" font-family="FreeSans" font-size="10.00">MWRender::Animation</text>
<text text-anchor="middle" x="213" y="-7" font-family="FreeSans" font-size="10.00">::AnimState::getTime</text>
</a>
</g>
</g>
<!-- Node1&#45;&gt;Node2 -->
<g id="edge1" class="edge"><title>Node1&#45;&gt;Node2</title>
<path fill="none" stroke="midnightblue" d="M120.246,-15C128.797,-15 137.641,-15 146.309,-15"/>
<polygon fill="midnightblue" stroke="midnightblue" points="146.376,-18.5001 156.376,-15 146.376,-11.5001 146.376,-18.5001"/>
</g>
</g>
</svg>
