<?xml version="1.0" encoding="UTF-8" standalone="no"?>
<!DOCTYPE svg PUBLIC "-//W3C//DTD SVG 1.1//EN"
 "http://www.w3.org/Graphics/SVG/1.1/DTD/svg11.dtd">
<!-- Generated by graphviz version 2.36.0 (20140111.2315)
 -->
<!-- Title: ESM::ItemLevList Pages: 1 -->
<svg width="122pt" height="238pt"
 viewBox="0.00 0.00 122.00 238.00" xmlns="http://www.w3.org/2000/svg" xmlns:xlink="http://www.w3.org/1999/xlink">
<g id="graph0" class="graph" transform="scale(1 1) rotate(0) translate(4 234)">
<title>ESM::ItemLevList</title>
<polygon fill="white" stroke="none" points="-4,4 -4,-234 118,-234 118,4 -4,4"/>
<!-- Node1 -->
<g id="node1" class="node"><title>Node1</title>
<polygon fill="#bfbfbf" stroke="black" points="9,-1 9,-69 105,-69 105,-1 9,-1"/>
<text text-anchor="middle" x="57" y="-57" font-family="FreeSans" font-size="10.00">ESM::ItemLevList</text>
<polyline fill="none" stroke="black" points="9,-50 105,-50 "/>
<text text-anchor="start" x="17" y="-38" font-family="FreeSans" font-size="10.00">+ sRecordId</text>
<polyline fill="none" stroke="black" points="9,-31 105,-31 "/>
<text text-anchor="start" x="17" y="-19" font-family="FreeSans" font-size="10.00">+ ItemLevList()</text>
<text text-anchor="start" x="17" y="-8" font-family="FreeSans" font-size="10.00">+ getRecordType()</text>
</g>
<!-- Node2 -->
<g id="node2" class="node"><title>Node2</title>
<g id="a_node2"><a xlink:href="structESM_1_1LevelledListBase.html" target="_top" xlink:title="{ESM::LevelledListBase\n|+ mFlags\l+ mChanceNone\l+ mId\l+ mRecName\l+ mList\l|+ load()\l+ save()\l+ blank()\l}">
<polygon fill="white" stroke="black" points="0,-106.5 0,-229.5 114,-229.5 114,-106.5 0,-106.5"/>
<text text-anchor="middle" x="57" y="-217.5" font-family="FreeSans" font-size="10.00">ESM::LevelledListBase</text>
<polyline fill="none" stroke="black" points="0,-210.5 114,-210.5 "/>
<text text-anchor="start" x="8" y="-198.5" font-family="FreeSans" font-size="10.00">+ mFlags</text>
<text text-anchor="start" x="8" y="-187.5" font-family="FreeSans" font-size="10.00">+ mChanceNone</text>
<text text-anchor="start" x="8" y="-176.5" font-family="FreeSans" font-size="10.00">+ mId</text>
<text text-anchor="start" x="8" y="-165.5" font-family="FreeSans" font-size="10.00">+ mRecName</text>
<text text-anchor="start" x="8" y="-154.5" font-family="FreeSans" font-size="10.00">+ mList</text>
<polyline fill="none" stroke="black" points="0,-147.5 114,-147.5 "/>
<text text-anchor="start" x="8" y="-135.5" font-family="FreeSans" font-size="10.00">+ load()</text>
<text text-anchor="start" x="8" y="-124.5" font-family="FreeSans" font-size="10.00">+ save()</text>
<text text-anchor="start" x="8" y="-113.5" font-family="FreeSans" font-size="10.00">+ blank()</text>
</a>
</g>
</g>
<!-- Node2&#45;&gt;Node1 -->
<g id="edge1" class="edge"><title>Node2&#45;&gt;Node1</title>
<path fill="none" stroke="midnightblue" d="M57,-96.2108C57,-86.7613 57,-77.4595 57,-69.0991"/>
<polygon fill="none" stroke="midnightblue" points="53.5001,-96.4849 57,-106.485 60.5001,-96.485 53.5001,-96.4849"/>
</g>
</g>
</svg>
