<?xml version="1.0" encoding="UTF-8" standalone="no"?>
<!DOCTYPE svg PUBLIC "-//W3C//DTD SVG 1.1//EN"
 "http://www.w3.org/Graphics/SVG/1.1/DTD/svg11.dtd">
<!-- Generated by graphviz version 2.36.0 (20140111.2315)
 -->
<!-- Title: MWGui::Choice Pages: 1 -->
<svg width="311pt" height="196pt"
 viewBox="0.00 0.00 311.00 196.00" xmlns="http://www.w3.org/2000/svg" xmlns:xlink="http://www.w3.org/1999/xlink">
<g id="graph0" class="graph" transform="scale(1 1) rotate(0) translate(4 192)">
<title>MWGui::Choice</title>
<polygon fill="white" stroke="none" points="-4,4 -4,-192 307,-192 307,4 -4,4"/>
<!-- Node1 -->
<g id="node1" class="node"><title>Node1</title>
<polygon fill="#bfbfbf" stroke="black" points="69.5,-1 69.5,-69 156.5,-69 156.5,-1 69.5,-1"/>
<text text-anchor="middle" x="113" y="-57" font-family="FreeSans" font-size="10.00">MWGui::Choice</text>
<polyline fill="none" stroke="black" points="69.5,-50 156.5,-50 "/>
<text text-anchor="middle" x="113" y="-38" font-family="FreeSans" font-size="10.00"> </text>
<polyline fill="none" stroke="black" points="69.5,-31 156.5,-31 "/>
<text text-anchor="start" x="77.5" y="-19" font-family="FreeSans" font-size="10.00">+ Choice()</text>
<text text-anchor="start" x="77.5" y="-8" font-family="FreeSans" font-size="10.00">+ activated()</text>
</g>
<!-- Node2 -->
<g id="node2" class="node"><title>Node2</title>
<g id="a_node2"><a xlink:href="structMWGui_1_1Link.html" target="_top" xlink:title="{MWGui::Link\n||+ ~Link()\l+ activated()\l}">
<polygon fill="white" stroke="black" points="0,-119 0,-187 80,-187 80,-119 0,-119"/>
<text text-anchor="middle" x="40" y="-175" font-family="FreeSans" font-size="10.00">MWGui::Link</text>
<polyline fill="none" stroke="black" points="0,-168 80,-168 "/>
<text text-anchor="middle" x="40" y="-156" font-family="FreeSans" font-size="10.00"> </text>
<polyline fill="none" stroke="black" points="0,-149 80,-149 "/>
<text text-anchor="start" x="8" y="-137" font-family="FreeSans" font-size="10.00">+ ~Link()</text>
<text text-anchor="start" x="8" y="-126" font-family="FreeSans" font-size="10.00">+ activated()</text>
</a>
</g>
</g>
<!-- Node2&#45;&gt;Node1 -->
<g id="edge1" class="edge"><title>Node2&#45;&gt;Node1</title>
<path fill="none" stroke="midnightblue" d="M66.3444,-110.138C74.8064,-96.6912 84.0596,-81.9875 92.0781,-69.2458"/>
<polygon fill="none" stroke="midnightblue" points="63.2829,-108.431 60.9189,-118.759 69.2074,-112.16 63.2829,-108.431"/>
</g>
<!-- Node3 -->
<g id="node3" class="node"><title>Node3</title>
<g id="a_node3"><a xlink:href="classint.html" target="_top" xlink:title="{int\n||}">
<polygon fill="white" stroke="black" points="98.5,-124.5 98.5,-181.5 127.5,-181.5 127.5,-124.5 98.5,-124.5"/>
<text text-anchor="middle" x="113" y="-169.5" font-family="FreeSans" font-size="10.00">int</text>
<polyline fill="none" stroke="black" points="98.5,-162.5 127.5,-162.5 "/>
<text text-anchor="middle" x="113" y="-150.5" font-family="FreeSans" font-size="10.00"> </text>
<polyline fill="none" stroke="black" points="98.5,-143.5 127.5,-143.5 "/>
<text text-anchor="middle" x="113" y="-131.5" font-family="FreeSans" font-size="10.00"> </text>
</a>
</g>
</g>
<!-- Node3&#45;&gt;Node1 -->
<g id="edge2" class="edge"><title>Node3&#45;&gt;Node1</title>
<path fill="none" stroke="#404040" d="M113,-124.215C113,-111.462 113,-96.0055 113,-81.6156"/>
<polygon fill="none" stroke="#404040" points="113,-81.3393 109,-75.3393 113,-69.3393 117,-75.3393 113,-81.3393"/>
<text text-anchor="middle" x="144" y="-91.5" font-family="FreeSans" font-size="10.00"> +mChoiceId</text>
</g>
<!-- Node4 -->
<g id="node4" class="node"><title>Node4</title>
<polygon fill="white" stroke="#bfbfbf" points="146,-124.5 146,-181.5 276,-181.5 276,-124.5 146,-124.5"/>
<text text-anchor="middle" x="211" y="-169.5" font-family="FreeSans" font-size="10.00">CMultiDelegate1&lt; int &gt;</text>
<polyline fill="none" stroke="#bfbfbf" points="146,-162.5 276,-162.5 "/>
<text text-anchor="middle" x="211" y="-150.5" font-family="FreeSans" font-size="10.00"> </text>
<polyline fill="none" stroke="#bfbfbf" points="146,-143.5 276,-143.5 "/>
<text text-anchor="middle" x="211" y="-131.5" font-family="FreeSans" font-size="10.00"> </text>
</g>
<!-- Node4&#45;&gt;Node1 -->
<g id="edge3" class="edge"><title>Node4&#45;&gt;Node1</title>
<path fill="none" stroke="#404040" d="M200.357,-124.271C195.011,-112.386 187.787,-98.7873 179,-88 175.07,-83.1756 170.617,-78.5152 165.925,-74.098"/>
<polygon fill="none" stroke="#404040" points="165.671,-73.8733 158.527,-72.8954 156.681,-65.9244 163.826,-66.9023 165.671,-73.8733"/>
<text text-anchor="middle" x="245" y="-91.5" font-family="FreeSans" font-size="10.00"> +eventChoiceActivated</text>
</g>
</g>
</svg>
