<?xml version="1.0" encoding="UTF-8" standalone="no"?>
<!DOCTYPE svg PUBLIC "-//W3C//DTD SVG 1.1//EN"
 "http://www.w3.org/Graphics/SVG/1.1/DTD/svg11.dtd">
<!-- Generated by graphviz version 2.36.0 (20140111.2315)
 -->
<!-- Title: CSMWorld::Cell::load Pages: 1 -->
<svg width="1606pt" height="580pt"
 viewBox="0.00 0.00 1606.00 580.00" xmlns="http://www.w3.org/2000/svg" xmlns:xlink="http://www.w3.org/1999/xlink">
<g id="graph0" class="graph" transform="scale(1 1) rotate(0) translate(4 576)">
<title>CSMWorld::Cell::load</title>
<polygon fill="white" stroke="none" points="-4,4 -4,-576 1602,-576 1602,4 -4,4"/>
<!-- Node1 -->
<g id="node1" class="node"><title>Node1</title>
<polygon fill="#bfbfbf" stroke="black" points="0.5,-210.5 0.5,-229.5 113.5,-229.5 113.5,-210.5 0.5,-210.5"/>
<text text-anchor="middle" x="57" y="-217.5" font-family="FreeSans" font-size="10.00">CSMWorld::Cell::load</text>
</g>
<!-- Node2 -->
<g id="node2" class="node"><title>Node2</title>
<g id="a_node2"><a xlink:href="structESM_1_1Cell.html#ac1bab55af938af3911d8e1a495422def" target="_top" xlink:title="ESM::Cell::load">
<polygon fill="white" stroke="black" points="162.5,-229.5 162.5,-248.5 249.5,-248.5 249.5,-229.5 162.5,-229.5"/>
<text text-anchor="middle" x="206" y="-236.5" font-family="FreeSans" font-size="10.00">ESM::Cell::load</text>
</a>
</g>
</g>
<!-- Node1&#45;&gt;Node2 -->
<g id="edge1" class="edge"><title>Node1&#45;&gt;Node2</title>
<path fill="none" stroke="midnightblue" d="M113.574,-227.183C126.151,-228.809 139.474,-230.531 151.943,-232.142"/>
<polygon fill="midnightblue" stroke="midnightblue" points="151.816,-235.655 162.182,-233.466 152.713,-228.713 151.816,-235.655"/>
</g>
<!-- Node32 -->
<g id="node32" class="node"><title>Node32</title>
<g id="a_node32"><a xlink:href="structESM_1_1Cell.html#a81fbb05c7c9f739f7d81504aabf7bb6b" target="_top" xlink:title="ESM::Cell::isExterior">
<polygon fill="white" stroke="black" points="150.5,-191.5 150.5,-210.5 261.5,-210.5 261.5,-191.5 150.5,-191.5"/>
<text text-anchor="middle" x="206" y="-198.5" font-family="FreeSans" font-size="10.00">ESM::Cell::isExterior</text>
</a>
</g>
</g>
<!-- Node1&#45;&gt;Node32 -->
<g id="edge47" class="edge"><title>Node1&#45;&gt;Node32</title>
<path fill="none" stroke="midnightblue" d="M113.574,-212.817C122.317,-211.687 131.42,-210.51 140.347,-209.357"/>
<polygon fill="midnightblue" stroke="midnightblue" points="140.853,-212.82 150.321,-208.067 139.955,-205.878 140.853,-212.82"/>
</g>
<!-- Node3 -->
<g id="node3" class="node"><title>Node3</title>
<g id="a_node3"><a xlink:href="structESM_1_1Cell.html#af0ff80e54cff969e2812c61cdd460b92" target="_top" xlink:title="ESM::Cell::loadNameAndData">
<polygon fill="white" stroke="black" points="298,-267.5 298,-286.5 456,-286.5 456,-267.5 298,-267.5"/>
<text text-anchor="middle" x="377" y="-274.5" font-family="FreeSans" font-size="10.00">ESM::Cell::loadNameAndData</text>
</a>
</g>
</g>
<!-- Node2&#45;&gt;Node3 -->
<g id="edge2" class="edge"><title>Node2&#45;&gt;Node3</title>
<path fill="none" stroke="midnightblue" d="M249.646,-248.589C272.148,-253.649 299.948,-259.9 323.738,-265.249"/>
<polygon fill="midnightblue" stroke="midnightblue" points="323.137,-268.701 333.661,-267.48 324.672,-261.871 323.137,-268.701"/>
</g>
<!-- Node29 -->
<g id="node29" class="node"><title>Node29</title>
<g id="a_node29"><a xlink:href="structESM_1_1Cell.html#a2633a4649c5df0e7c970854e3a3dce63" target="_top" xlink:title="ESM::Cell::loadCell">
<polygon fill="white" stroke="black" points="325,-191.5 325,-210.5 429,-210.5 429,-191.5 325,-191.5"/>
<text text-anchor="middle" x="377" y="-198.5" font-family="FreeSans" font-size="10.00">ESM::Cell::loadCell</text>
</a>
</g>
</g>
<!-- Node2&#45;&gt;Node29 -->
<g id="edge37" class="edge"><title>Node2&#45;&gt;Node29</title>
<path fill="none" stroke="midnightblue" d="M249.646,-229.411C272.148,-224.351 299.948,-218.1 323.738,-212.751"/>
<polygon fill="midnightblue" stroke="midnightblue" points="324.672,-216.129 333.661,-210.52 323.137,-209.299 324.672,-216.129"/>
</g>
<!-- Node4 -->
<g id="node4" class="node"><title>Node4</title>
<g id="a_node4"><a xlink:href="structESM_1_1Cell.html#afc8def245a89fe37257f2c0f608826ce" target="_top" xlink:title="Set record to default state (does not touch the ID/index). ">
<polygon fill="white" stroke="black" points="536,-552.5 536,-571.5 628,-571.5 628,-552.5 536,-552.5"/>
<text text-anchor="middle" x="582" y="-559.5" font-family="FreeSans" font-size="10.00">ESM::Cell::blank</text>
</a>
</g>
</g>
<!-- Node3&#45;&gt;Node4 -->
<g id="edge3" class="edge"><title>Node3&#45;&gt;Node4</title>
<path fill="none" stroke="midnightblue" d="M379.034,-286.542C383.753,-325.177 406.832,-471.307 492,-542 501.52,-549.902 513.518,-554.844 525.596,-557.896"/>
<polygon fill="midnightblue" stroke="midnightblue" points="525.198,-561.389 535.706,-560.039 526.65,-554.542 525.198,-561.389"/>
</g>
<!-- Node5 -->
<g id="node5" class="node"><title>Node5</title>
<g id="a_node5"><a xlink:href="classESM_1_1ESMReader.html#abfd3da13c7227ed9d445ceed1a70f874" target="_top" xlink:title="ESM::ESMReader::hasMoreSubs">
<polygon fill="white" stroke="black" points="497.5,-153.5 497.5,-172.5 666.5,-172.5 666.5,-153.5 497.5,-153.5"/>
<text text-anchor="middle" x="582" y="-160.5" font-family="FreeSans" font-size="10.00">ESM::ESMReader::hasMoreSubs</text>
</a>
</g>
</g>
<!-- Node3&#45;&gt;Node5 -->
<g id="edge4" class="edge"><title>Node3&#45;&gt;Node5</title>
<path fill="none" stroke="midnightblue" d="M392.686,-267.444C408.829,-256.678 435.226,-238.284 456,-220 473.463,-204.629 471.712,-193.385 492,-182 495.983,-179.765 500.201,-177.792 504.55,-176.052"/>
<polygon fill="midnightblue" stroke="midnightblue" points="505.996,-179.252 514.242,-172.599 503.647,-172.658 505.996,-179.252"/>
</g>
<!-- Node6 -->
<g id="node6" class="node"><title>Node6</title>
<g id="a_node6"><a xlink:href="classESM_1_1ESMReader.html#aa47320943a7a01bccbec8bab921b0df7" target="_top" xlink:title="ESM::ESMReader::getSubName">
<polygon fill="white" stroke="black" points="498.5,-77.5 498.5,-96.5 665.5,-96.5 665.5,-77.5 498.5,-77.5"/>
<text text-anchor="middle" x="582" y="-84.5" font-family="FreeSans" font-size="10.00">ESM::ESMReader::getSubName</text>
</a>
</g>
</g>
<!-- Node3&#45;&gt;Node6 -->
<g id="edge5" class="edge"><title>Node3&#45;&gt;Node6</title>
<path fill="none" stroke="midnightblue" d="M397.421,-267.431C415.112,-257.769 440.738,-241.252 456,-220 486.993,-176.843 452.678,-141.733 492,-106 493.71,-104.446 495.515,-103.008 497.399,-101.676"/>
<polygon fill="midnightblue" stroke="midnightblue" points="499.3,-104.618 506.111,-96.5034 495.726,-98.5995 499.3,-104.618"/>
</g>
<!-- Node9 -->
<g id="node9" class="node"><title>Node9</title>
<g id="a_node9"><a xlink:href="classESM_1_1ESMReader.html#a641a33a8cba2fc61d6431505391c5975" target="_top" xlink:title="Used for error handling. ">
<polygon fill="white" stroke="black" points="1300.5,-259.5 1300.5,-278.5 1417.5,-278.5 1417.5,-259.5 1300.5,-259.5"/>
<text text-anchor="middle" x="1359" y="-266.5" font-family="FreeSans" font-size="10.00">ESM::ESMReader::fail</text>
</a>
</g>
</g>
<!-- Node3&#45;&gt;Node9 -->
<g id="edge33" class="edge"><title>Node3&#45;&gt;Node9</title>
<path fill="none" stroke="midnightblue" d="M387.147,-286.722C405.406,-305.62 448.386,-347.591 492,-372 615.627,-441.189 652.329,-474 794,-474 794,-474 794,-474 1001,-474 1118.23,-474 1166.48,-519.054 1264,-454 1322.5,-414.976 1346.44,-327.911 1354.51,-288.75"/>
<polygon fill="midnightblue" stroke="midnightblue" points="1357.96,-289.332 1356.42,-278.85 1351.09,-288.007 1357.96,-289.332"/>
</g>
<!-- Node12 -->
<g id="node12" class="node"><title>Node12</title>
<g id="a_node12"><a xlink:href="classESM_1_1ESMReader.html#afe83c43d1818dd2c3815307d97beae45" target="_top" xlink:title="ESM::ESMReader::retSubName">
<polygon fill="white" stroke="black" points="499.5,-267.5 499.5,-286.5 664.5,-286.5 664.5,-267.5 499.5,-267.5"/>
<text text-anchor="middle" x="582" y="-274.5" font-family="FreeSans" font-size="10.00">ESM::ESMReader::retSubName</text>
</a>
</g>
</g>
<!-- Node3&#45;&gt;Node12 -->
<g id="edge11" class="edge"><title>Node3&#45;&gt;Node12</title>
<path fill="none" stroke="midnightblue" d="M456.195,-277C467.055,-277 478.291,-277 489.37,-277"/>
<polygon fill="midnightblue" stroke="midnightblue" points="489.484,-280.5 499.484,-277 489.484,-273.5 489.484,-280.5"/>
</g>
<!-- Node13 -->
<g id="node13" class="node"><title>Node13</title>
<g id="a_node13"><a xlink:href="classESM_1_1ESMReader.html#ab0b044c1028b117dfb0aae39135af948" target="_top" xlink:title="ESM::ESMReader::getHString">
<polygon fill="white" stroke="black" points="504.5,-343.5 504.5,-362.5 659.5,-362.5 659.5,-343.5 504.5,-343.5"/>
<text text-anchor="middle" x="582" y="-350.5" font-family="FreeSans" font-size="10.00">ESM::ESMReader::getHString</text>
</a>
</g>
</g>
<!-- Node3&#45;&gt;Node13 -->
<g id="edge12" class="edge"><title>Node3&#45;&gt;Node13</title>
<path fill="none" stroke="midnightblue" d="M394.04,-286.663C415.601,-299.262 455.454,-321.196 492,-334 499.633,-336.674 507.771,-339.038 515.908,-341.11"/>
<polygon fill="midnightblue" stroke="midnightblue" points="515.257,-344.553 525.799,-343.493 516.897,-337.748 515.257,-344.553"/>
</g>
<!-- Node21 -->
<g id="node21" class="node"><title>Node21</title>
<g id="a_node21"><a xlink:href="classESM_1_1ESMReader.html#a1499e8005481bc7f13f4de0c2f3b9ee4" target="_top" xlink:title="ESM::ESMReader::getHT">
<polygon fill="white" stroke="black" points="516,-191.5 516,-210.5 648,-210.5 648,-191.5 516,-191.5"/>
<text text-anchor="middle" x="582" y="-198.5" font-family="FreeSans" font-size="10.00">ESM::ESMReader::getHT</text>
</a>
</g>
</g>
<!-- Node3&#45;&gt;Node21 -->
<g id="edge24" class="edge"><title>Node3&#45;&gt;Node21</title>
<path fill="none" stroke="midnightblue" d="M394.04,-267.337C415.601,-254.738 455.454,-232.804 492,-220 499.633,-217.326 507.771,-214.962 515.908,-212.89"/>
<polygon fill="midnightblue" stroke="midnightblue" points="516.897,-216.252 525.799,-210.507 515.257,-209.447 516.897,-216.252"/>
</g>
<!-- Node22 -->
<g id="node22" class="node"><title>Node22</title>
<g id="a_node22"><a xlink:href="classESM_1_1ESMReader.html#a1b4ca455240f53cfa6d49f9a4a084354" target="_top" xlink:title="ESM::ESMReader::skipHSub">
<polygon fill="white" stroke="black" points="507.5,-305.5 507.5,-324.5 656.5,-324.5 656.5,-305.5 507.5,-305.5"/>
<text text-anchor="middle" x="582" y="-312.5" font-family="FreeSans" font-size="10.00">ESM::ESMReader::skipHSub</text>
</a>
</g>
</g>
<!-- Node3&#45;&gt;Node22 -->
<g id="edge28" class="edge"><title>Node3&#45;&gt;Node22</title>
<path fill="none" stroke="midnightblue" d="M428.963,-286.54C456.594,-291.712 490.933,-298.14 519.981,-303.578"/>
<polygon fill="midnightblue" stroke="midnightblue" points="519.542,-307.056 530.016,-305.456 520.83,-300.176 519.542,-307.056"/>
</g>
<!-- Node25 -->
<g id="node25" class="node"><title>Node25</title>
<g id="a_node25"><a xlink:href="classESM_1_1ESMReader.html#a0fc314c81508490aa816a49ce0ec37ac" target="_top" xlink:title="ESM::ESMReader::cacheSubName">
<polygon fill="white" stroke="black" points="492,-229.5 492,-248.5 672,-248.5 672,-229.5 492,-229.5"/>
<text text-anchor="middle" x="582" y="-236.5" font-family="FreeSans" font-size="10.00">ESM::ESMReader::cacheSubName</text>
</a>
</g>
</g>
<!-- Node3&#45;&gt;Node25 -->
<g id="edge32" class="edge"><title>Node3&#45;&gt;Node25</title>
<path fill="none" stroke="midnightblue" d="M428.963,-267.46C456.594,-262.288 490.933,-255.86 519.981,-250.422"/>
<polygon fill="midnightblue" stroke="midnightblue" points="520.83,-253.824 530.016,-248.544 519.542,-246.944 520.83,-253.824"/>
</g>
<!-- Node26 -->
<g id="node26" class="node"><title>Node26</title>
<g id="a_node26"><a xlink:href="classMisc_1_1StringUtils.html#a2982264998fde90a8e01ebab4bd69e14" target="_top" xlink:title="Returns lower case copy of input string. ">
<polygon fill="white" stroke="black" points="532.5,-503 532.5,-533 631.5,-533 631.5,-503 532.5,-503"/>
<text text-anchor="start" x="540.5" y="-521" font-family="FreeSans" font-size="10.00">Misc::StringUtils::</text>
<text text-anchor="middle" x="582" y="-510" font-family="FreeSans" font-size="10.00">lowerCase</text>
</a>
</g>
</g>
<!-- Node3&#45;&gt;Node26 -->
<g id="edge34" class="edge"><title>Node3&#45;&gt;Node26</title>
<path fill="none" stroke="midnightblue" d="M380.443,-286.599C389.351,-319.675 423.23,-430.043 492,-488 500.872,-495.477 511.688,-501.115 522.682,-505.359"/>
<polygon fill="midnightblue" stroke="midnightblue" points="521.75,-508.741 532.344,-508.741 524.062,-502.134 521.75,-508.741"/>
</g>
<!-- Node7 -->
<g id="node7" class="node"><title>Node7</title>
<g id="a_node7"><a xlink:href="classESM_1_1FIXED__STRING__BASE.html#ab142a6277b602eba117776eb8e4c508c" target="_top" xlink:title="ESM::FIXED_STRING_BASE\l::data_size">
<polygon fill="white" stroke="black" points="723.5,-88 723.5,-118 866.5,-118 866.5,-88 723.5,-88"/>
<text text-anchor="start" x="731.5" y="-106" font-family="FreeSans" font-size="10.00">ESM::FIXED_STRING_BASE</text>
<text text-anchor="middle" x="795" y="-95" font-family="FreeSans" font-size="10.00">::data_size</text>
</a>
</g>
</g>
<!-- Node6&#45;&gt;Node7 -->
<g id="edge6" class="edge"><title>Node6&#45;&gt;Node7</title>
<path fill="none" stroke="midnightblue" d="M665.787,-93.2777C681.414,-94.4627 697.739,-95.7006 713.301,-96.8806"/>
<polygon fill="midnightblue" stroke="midnightblue" points="713.166,-100.38 723.402,-97.6466 713.695,-93.4004 713.166,-100.38"/>
</g>
<!-- Node8 -->
<g id="node8" class="node"><title>Node8</title>
<g id="a_node8"><a xlink:href="classESM_1_1ESMReader.html#a623f3d4d7107adf94aeb7c234d01bc9e" target="_top" xlink:title="ESM::ESMReader::getExact">
<polygon fill="white" stroke="black" points="1118,-240.5 1118,-259.5 1264,-259.5 1264,-240.5 1118,-240.5"/>
<text text-anchor="middle" x="1191" y="-247.5" font-family="FreeSans" font-size="10.00">ESM::ESMReader::getExact</text>
</a>
</g>
</g>
<!-- Node6&#45;&gt;Node8 -->
<g id="edge7" class="edge"><title>Node6&#45;&gt;Node8</title>
<path fill="none" stroke="midnightblue" d="M642.151,-77.4762C702.99,-69.5234 800.149,-61.9682 882,-79 976.902,-98.7474 998.644,-116.522 1082,-166 1115.93,-186.14 1151.3,-215.511 1171.96,-233.653"/>
<polygon fill="midnightblue" stroke="midnightblue" points="1169.81,-236.432 1179.61,-240.459 1174.46,-231.2 1169.81,-236.432"/>
</g>
<!-- Node11 -->
<g id="node11" class="node"><title>Node11</title>
<g id="a_node11"><a xlink:href="structESM_1_1FIXED__STRING_3_014_01_4.html#a71af1f5e0756f2fa5b587bda6fc64ec3" target="_top" xlink:title="ESM::FIXED_STRING\&lt;\l 4 \&gt;::rw_data">
<polygon fill="white" stroke="black" points="735.5,-0 735.5,-30 854.5,-30 854.5,-0 735.5,-0"/>
<text text-anchor="start" x="743.5" y="-18" font-family="FreeSans" font-size="10.00">ESM::FIXED_STRING&lt;</text>
<text text-anchor="middle" x="795" y="-7" font-family="FreeSans" font-size="10.00"> 4 &gt;::rw_data</text>
</a>
</g>
</g>
<!-- Node6&#45;&gt;Node11 -->
<g id="edge10" class="edge"><title>Node6&#45;&gt;Node11</title>
<path fill="none" stroke="midnightblue" d="M642.308,-77.447C652.406,-74.946 662.645,-71.839 672,-68 689.565,-60.7916 690.921,-53.2941 708,-45 716.551,-40.8473 725.829,-36.9906 735.02,-33.5198"/>
<polygon fill="midnightblue" stroke="midnightblue" points="736.34,-36.764 744.533,-30.0465 733.939,-30.1886 736.34,-36.764"/>
</g>
<!-- Node8&#45;&gt;Node9 -->
<g id="edge8" class="edge"><title>Node8&#45;&gt;Node9</title>
<path fill="none" stroke="midnightblue" d="M1264.33,-258.278C1272.99,-259.27 1281.82,-260.28 1290.41,-261.264"/>
<polygon fill="midnightblue" stroke="midnightblue" points="1290.04,-264.744 1300.37,-262.404 1290.84,-257.79 1290.04,-264.744"/>
</g>
<!-- Node10 -->
<g id="node10" class="node"><title>Node10</title>
<g id="a_node10"><a xlink:href="classESM_1_1FIXED__STRING__BASE.html#ac6bed15d6c4aa261d961420d4af645c7" target="_top" xlink:title="ESM::FIXED_STRING_BASE\l::toString">
<polygon fill="white" stroke="black" points="1454.5,-254 1454.5,-284 1597.5,-284 1597.5,-254 1454.5,-254"/>
<text text-anchor="start" x="1462.5" y="-272" font-family="FreeSans" font-size="10.00">ESM::FIXED_STRING_BASE</text>
<text text-anchor="middle" x="1526" y="-261" font-family="FreeSans" font-size="10.00">::toString</text>
</a>
</g>
</g>
<!-- Node9&#45;&gt;Node10 -->
<g id="edge9" class="edge"><title>Node9&#45;&gt;Node10</title>
<path fill="none" stroke="midnightblue" d="M1417.71,-269C1426.28,-269 1435.25,-269 1444.2,-269"/>
<polygon fill="midnightblue" stroke="midnightblue" points="1444.26,-272.5 1454.26,-269 1444.26,-265.5 1444.26,-272.5"/>
</g>
<!-- Node13&#45;&gt;Node8 -->
<g id="edge17" class="edge"><title>Node13&#45;&gt;Node8</title>
<path fill="none" stroke="midnightblue" d="M628.775,-343.422C642.671,-340.462 657.972,-337.151 672,-334 781.601,-309.384 807.166,-294.276 918,-276 981.209,-265.577 1053.42,-258.916 1107.55,-254.948"/>
<polygon fill="midnightblue" stroke="midnightblue" points="1108.06,-258.42 1117.78,-254.214 1107.56,-251.438 1108.06,-258.42"/>
</g>
<!-- Node14 -->
<g id="node14" class="node"><title>Node14</title>
<g id="a_node14"><a xlink:href="classESM_1_1ESMReader.html#a365650896a89c3dcb43b2f240e6d5653" target="_top" xlink:title="ESM::ESMReader::getSubHeader">
<polygon fill="white" stroke="black" points="708.5,-251.5 708.5,-270.5 881.5,-270.5 881.5,-251.5 708.5,-251.5"/>
<text text-anchor="middle" x="795" y="-258.5" font-family="FreeSans" font-size="10.00">ESM::ESMReader::getSubHeader</text>
</a>
</g>
</g>
<!-- Node13&#45;&gt;Node14 -->
<g id="edge13" class="edge"><title>Node13&#45;&gt;Node14</title>
<path fill="none" stroke="midnightblue" d="M652.547,-343.42C659.407,-340.949 666.029,-337.859 672,-334 694.696,-319.332 685.768,-300.362 708,-285 714.456,-280.539 721.722,-276.904 729.225,-273.942"/>
<polygon fill="midnightblue" stroke="midnightblue" points="730.558,-277.183 738.812,-270.54 728.217,-270.586 730.558,-277.183"/>
</g>
<!-- Node16 -->
<g id="node16" class="node"><title>Node16</title>
<g id="a_node16"><a xlink:href="classESM_1_1ESMReader.html#a8743de63f7c4cb6d89d82f38ba452127" target="_top" xlink:title="ESM::ESMReader::getString">
<polygon fill="white" stroke="black" points="721,-343.5 721,-362.5 869,-362.5 869,-343.5 721,-343.5"/>
<text text-anchor="middle" x="795" y="-350.5" font-family="FreeSans" font-size="10.00">ESM::ESMReader::getString</text>
</a>
</g>
</g>
<!-- Node13&#45;&gt;Node16 -->
<g id="edge18" class="edge"><title>Node13&#45;&gt;Node16</title>
<path fill="none" stroke="midnightblue" d="M659.773,-353C676.264,-353 693.768,-353 710.5,-353"/>
<polygon fill="midnightblue" stroke="midnightblue" points="710.803,-356.5 720.803,-353 710.803,-349.5 710.803,-356.5"/>
</g>
<!-- Node14&#45;&gt;Node9 -->
<g id="edge14" class="edge"><title>Node14&#45;&gt;Node9</title>
<path fill="none" stroke="midnightblue" d="M881.751,-263.71C946.62,-265.619 1037.9,-268.005 1118,-269 1176.03,-269.721 1241.96,-269.657 1290.01,-269.449"/>
<polygon fill="midnightblue" stroke="midnightblue" points="1290.31,-272.948 1300.29,-269.402 1290.27,-265.948 1290.31,-272.948"/>
</g>
<!-- Node15 -->
<g id="node15" class="node"><title>Node15</title>
<g id="a_node15"><a xlink:href="classESM_1_1ESMReader.html#a04b4761b24d98c455289c437d28baea8" target="_top" xlink:title="ESM::ESMReader::getT">
<polygon fill="white" stroke="black" points="937.5,-213.5 937.5,-232.5 1062.5,-232.5 1062.5,-213.5 937.5,-213.5"/>
<text text-anchor="middle" x="1000" y="-220.5" font-family="FreeSans" font-size="10.00">ESM::ESMReader::getT</text>
</a>
</g>
</g>
<!-- Node14&#45;&gt;Node15 -->
<g id="edge15" class="edge"><title>Node14&#45;&gt;Node15</title>
<path fill="none" stroke="midnightblue" d="M846.963,-251.46C874.594,-246.288 908.933,-239.86 937.981,-234.422"/>
<polygon fill="midnightblue" stroke="midnightblue" points="938.83,-237.824 948.016,-232.544 937.542,-230.944 938.83,-237.824"/>
</g>
<!-- Node15&#45;&gt;Node8 -->
<g id="edge16" class="edge"><title>Node15&#45;&gt;Node8</title>
<path fill="none" stroke="midnightblue" d="M1062.62,-231.803C1078.68,-234.097 1096.19,-236.598 1112.93,-238.99"/>
<polygon fill="midnightblue" stroke="midnightblue" points="1112.85,-242.514 1123.24,-240.463 1113.84,-235.584 1112.85,-242.514"/>
</g>
<!-- Node16&#45;&gt;Node8 -->
<g id="edge19" class="edge"><title>Node16&#45;&gt;Node8</title>
<path fill="none" stroke="midnightblue" d="M832.36,-343.495C904.249,-324.701 1064.44,-282.823 1143.73,-262.097"/>
<polygon fill="midnightblue" stroke="midnightblue" points="1144.65,-265.473 1153.44,-259.557 1142.88,-258.7 1144.65,-265.473"/>
</g>
<!-- Node17 -->
<g id="node17" class="node"><title>Node17</title>
<g id="a_node17"><a xlink:href="classToUTF8_1_1Utf8Encoder.html#a69a05afd17b7270edf61c1e5edce79e9" target="_top" xlink:title="ToUTF8::Utf8Encoder\l::getUtf8">
<polygon fill="white" stroke="black" points="942,-366 942,-396 1058,-396 1058,-366 942,-366"/>
<text text-anchor="start" x="950" y="-384" font-family="FreeSans" font-size="10.00">ToUTF8::Utf8Encoder</text>
<text text-anchor="middle" x="1000" y="-373" font-family="FreeSans" font-size="10.00">::getUtf8</text>
</a>
</g>
</g>
<!-- Node16&#45;&gt;Node17 -->
<g id="edge20" class="edge"><title>Node16&#45;&gt;Node17</title>
<path fill="none" stroke="midnightblue" d="M865.01,-362.519C886.641,-365.502 910.474,-368.789 931.966,-371.754"/>
<polygon fill="midnightblue" stroke="midnightblue" points="931.599,-375.236 941.984,-373.136 932.556,-368.302 931.599,-375.236"/>
</g>
<!-- Node18 -->
<g id="node18" class="node"><title>Node18</title>
<g id="a_node18"><a xlink:href="classToUTF8_1_1Utf8Encoder.html#a1dd97261b538a0a33218d31c82c37f74" target="_top" xlink:title="ToUTF8::Utf8Encoder\l::getLength">
<polygon fill="white" stroke="black" points="1133,-317 1133,-347 1249,-347 1249,-317 1133,-317"/>
<text text-anchor="start" x="1141" y="-335" font-family="FreeSans" font-size="10.00">ToUTF8::Utf8Encoder</text>
<text text-anchor="middle" x="1191" y="-324" font-family="FreeSans" font-size="10.00">::getLength</text>
</a>
</g>
</g>
<!-- Node17&#45;&gt;Node18 -->
<g id="edge21" class="edge"><title>Node17&#45;&gt;Node18</title>
<path fill="none" stroke="midnightblue" d="M1058.22,-366.165C1078.67,-360.864 1101.89,-354.844 1123.08,-349.35"/>
<polygon fill="midnightblue" stroke="midnightblue" points="1124.17,-352.682 1132.98,-346.784 1122.42,-345.906 1124.17,-352.682"/>
</g>
<!-- Node19 -->
<g id="node19" class="node"><title>Node19</title>
<g id="a_node19"><a xlink:href="classToUTF8_1_1Utf8Encoder.html#a80b3e05967c1f28c1ce5325093bda679" target="_top" xlink:title="ToUTF8::Utf8Encoder\l::resize">
<polygon fill="white" stroke="black" points="1133,-415 1133,-445 1249,-445 1249,-415 1133,-415"/>
<text text-anchor="start" x="1141" y="-433" font-family="FreeSans" font-size="10.00">ToUTF8::Utf8Encoder</text>
<text text-anchor="middle" x="1191" y="-422" font-family="FreeSans" font-size="10.00">::resize</text>
</a>
</g>
</g>
<!-- Node17&#45;&gt;Node19 -->
<g id="edge22" class="edge"><title>Node17&#45;&gt;Node19</title>
<path fill="none" stroke="midnightblue" d="M1058.22,-395.835C1078.67,-401.136 1101.89,-407.156 1123.08,-412.65"/>
<polygon fill="midnightblue" stroke="midnightblue" points="1122.42,-416.094 1132.98,-415.216 1124.17,-409.318 1122.42,-416.094"/>
</g>
<!-- Node20 -->
<g id="node20" class="node"><title>Node20</title>
<g id="a_node20"><a xlink:href="classToUTF8_1_1Utf8Encoder.html#a203f6c96dde89ec98b709f3e4f95c1f6" target="_top" xlink:title="ToUTF8::Utf8Encoder\l::copyFromArray">
<polygon fill="white" stroke="black" points="1133,-366 1133,-396 1249,-396 1249,-366 1133,-366"/>
<text text-anchor="start" x="1141" y="-384" font-family="FreeSans" font-size="10.00">ToUTF8::Utf8Encoder</text>
<text text-anchor="middle" x="1191" y="-373" font-family="FreeSans" font-size="10.00">::copyFromArray</text>
</a>
</g>
</g>
<!-- Node17&#45;&gt;Node20 -->
<g id="edge23" class="edge"><title>Node17&#45;&gt;Node20</title>
<path fill="none" stroke="midnightblue" d="M1058.22,-381C1078.57,-381 1101.68,-381 1122.79,-381"/>
<polygon fill="midnightblue" stroke="midnightblue" points="1122.98,-384.5 1132.98,-381 1122.98,-377.5 1122.98,-384.5"/>
</g>
<!-- Node21&#45;&gt;Node9 -->
<g id="edge26" class="edge"><title>Node21&#45;&gt;Node9</title>
<path fill="none" stroke="midnightblue" d="M636.659,-191.43C648.426,-188.811 660.731,-185.663 672,-182 688.651,-176.587 690.872,-169.635 708,-166 870.601,-131.494 918.217,-137.63 1082,-166 1177,-182.455 1281.75,-230.528 1330.38,-254.73"/>
<polygon fill="midnightblue" stroke="midnightblue" points="1329.1,-258.006 1339.61,-259.375 1332.25,-251.753 1329.1,-258.006"/>
</g>
<!-- Node21&#45;&gt;Node14 -->
<g id="edge25" class="edge"><title>Node21&#45;&gt;Node14</title>
<path fill="none" stroke="midnightblue" d="M637.665,-210.588C649.141,-213.178 661.073,-216.309 672,-220 688.764,-225.663 691.419,-230.822 708,-237 719.575,-241.313 732.277,-245.266 744.282,-248.666"/>
<polygon fill="midnightblue" stroke="midnightblue" points="743.593,-252.106 754.163,-251.387 745.452,-245.357 743.593,-252.106"/>
</g>
<!-- Node21&#45;&gt;Node15 -->
<g id="edge27" class="edge"><title>Node21&#45;&gt;Node15</title>
<path fill="none" stroke="midnightblue" d="M648.458,-204.462C724.225,-208.469 848.612,-215.047 927.038,-219.194"/>
<polygon fill="midnightblue" stroke="midnightblue" points="927.144,-222.705 937.315,-219.738 927.514,-215.715 927.144,-222.705"/>
</g>
<!-- Node22&#45;&gt;Node14 -->
<g id="edge29" class="edge"><title>Node22&#45;&gt;Node14</title>
<path fill="none" stroke="midnightblue" d="M631.215,-305.499C644.486,-302.669 658.846,-299.407 672,-296 688.196,-291.805 691.942,-289.693 708,-285 721.279,-281.119 735.752,-277.027 748.972,-273.343"/>
<polygon fill="midnightblue" stroke="midnightblue" points="750.098,-276.663 758.797,-270.615 748.225,-269.918 750.098,-276.663"/>
</g>
<!-- Node23 -->
<g id="node23" class="node"><title>Node23</title>
<g id="a_node23"><a xlink:href="classESM_1_1ESMReader.html#aabf8a943cb8d5ff5a2656333ff02b660" target="_top" xlink:title="ESM::ESMReader::skip">
<polygon fill="white" stroke="black" points="734,-175.5 734,-194.5 856,-194.5 856,-175.5 734,-175.5"/>
<text text-anchor="middle" x="795" y="-182.5" font-family="FreeSans" font-size="10.00">ESM::ESMReader::skip</text>
</a>
</g>
</g>
<!-- Node22&#45;&gt;Node23 -->
<g id="edge30" class="edge"><title>Node22&#45;&gt;Node23</title>
<path fill="none" stroke="midnightblue" d="M653.638,-305.355C660.136,-302.887 666.38,-299.817 672,-296 695.862,-279.795 687.577,-262.369 708,-242 725.172,-224.874 748.237,-209.919 766.157,-199.629"/>
<polygon fill="midnightblue" stroke="midnightblue" points="767.979,-202.62 775.001,-194.687 764.564,-196.51 767.979,-202.62"/>
</g>
<!-- Node24 -->
<g id="node24" class="node"><title>Node24</title>
<g id="a_node24"><a xlink:href="classESM_1_1ESMReader.html#a9e81c5238f123a9c0f554390d9677172" target="_top" xlink:title="Get the current position in the file. Make sure that the file has been opened! ">
<polygon fill="white" stroke="black" points="918.5,-175.5 918.5,-194.5 1081.5,-194.5 1081.5,-175.5 918.5,-175.5"/>
<text text-anchor="middle" x="1000" y="-182.5" font-family="FreeSans" font-size="10.00">ESM::ESMReader::getFileOffset</text>
</a>
</g>
</g>
<!-- Node23&#45;&gt;Node24 -->
<g id="edge31" class="edge"><title>Node23&#45;&gt;Node24</title>
<path fill="none" stroke="midnightblue" d="M856.083,-185C872.404,-185 890.45,-185 908.067,-185"/>
<polygon fill="midnightblue" stroke="midnightblue" points="908.373,-188.5 918.373,-185 908.373,-181.5 908.373,-188.5"/>
</g>
<!-- Node27 -->
<g id="node27" class="node"><title>Node27</title>
<g id="a_node27"><a xlink:href="classMisc_1_1StringUtils.html#a249dcf40e5ef16618daf8bf5d2098c54" target="_top" xlink:title="Transforms input string to lower case w/o copy. ">
<polygon fill="white" stroke="black" points="745.5,-503 745.5,-533 844.5,-533 844.5,-503 745.5,-503"/>
<text text-anchor="start" x="753.5" y="-521" font-family="FreeSans" font-size="10.00">Misc::StringUtils::</text>
<text text-anchor="middle" x="795" y="-510" font-family="FreeSans" font-size="10.00">lowerCaseInPlace</text>
</a>
</g>
</g>
<!-- Node26&#45;&gt;Node27 -->
<g id="edge35" class="edge"><title>Node26&#45;&gt;Node27</title>
<path fill="none" stroke="midnightblue" d="M631.673,-518C662.422,-518 702.353,-518 734.915,-518"/>
<polygon fill="midnightblue" stroke="midnightblue" points="735.207,-521.5 745.207,-518 735.207,-514.5 735.207,-521.5"/>
</g>
<!-- Node28 -->
<g id="node28" class="node"><title>Node28</title>
<g id="a_node28"><a xlink:href="classMisc_1_1StringUtils.html#a0759adb102842ee3bced227707eb6949" target="_top" xlink:title="Misc::StringUtils::\ltoLower">
<polygon fill="white" stroke="black" points="950.5,-503 950.5,-533 1049.5,-533 1049.5,-503 950.5,-503"/>
<text text-anchor="start" x="958.5" y="-521" font-family="FreeSans" font-size="10.00">Misc::StringUtils::</text>
<text text-anchor="middle" x="1000" y="-510" font-family="FreeSans" font-size="10.00">toLower</text>
</a>
</g>
</g>
<!-- Node27&#45;&gt;Node28 -->
<g id="edge36" class="edge"><title>Node27&#45;&gt;Node28</title>
<path fill="none" stroke="midnightblue" d="M844.624,-518C873.393,-518 910.026,-518 940.387,-518"/>
<polygon fill="midnightblue" stroke="midnightblue" points="940.422,-521.5 950.422,-518 940.422,-514.5 940.422,-521.5"/>
</g>
<!-- Node29&#45;&gt;Node5 -->
<g id="edge38" class="edge"><title>Node29&#45;&gt;Node5</title>
<path fill="none" stroke="midnightblue" d="M428.963,-191.46C456.594,-186.288 490.933,-179.86 519.981,-174.422"/>
<polygon fill="midnightblue" stroke="midnightblue" points="520.83,-177.824 530.016,-172.544 519.542,-170.944 520.83,-177.824"/>
</g>
<!-- Node29&#45;&gt;Node6 -->
<g id="edge39" class="edge"><title>Node29&#45;&gt;Node6</title>
<path fill="none" stroke="midnightblue" d="M386.367,-191.429C403.888,-172.037 446.587,-128.079 492,-106 496.973,-103.582 502.25,-101.47 507.655,-99.6258"/>
<polygon fill="midnightblue" stroke="midnightblue" points="508.964,-102.885 517.483,-96.5866 506.895,-96.1972 508.964,-102.885"/>
</g>
<!-- Node29&#45;&gt;Node12 -->
<g id="edge40" class="edge"><title>Node29&#45;&gt;Node12</title>
<path fill="none" stroke="midnightblue" d="M394.04,-210.663C415.601,-223.262 455.454,-245.196 492,-258 499.633,-260.674 507.771,-263.038 515.908,-265.11"/>
<polygon fill="midnightblue" stroke="midnightblue" points="515.257,-268.553 525.799,-267.493 516.897,-261.748 515.257,-268.553"/>
</g>
<!-- Node29&#45;&gt;Node13 -->
<g id="edge42" class="edge"><title>Node29&#45;&gt;Node13</title>
<path fill="none" stroke="midnightblue" d="M396.115,-210.686C413.357,-220.653 439.11,-237.58 456,-258 479.821,-286.801 462.69,-310.809 492,-334 494.114,-335.673 496.342,-337.207 498.658,-338.614"/>
<polygon fill="midnightblue" stroke="midnightblue" points="497.492,-341.951 507.983,-343.43 500.705,-335.731 497.492,-341.951"/>
</g>
<!-- Node29&#45;&gt;Node21 -->
<g id="edge41" class="edge"><title>Node29&#45;&gt;Node21</title>
<path fill="none" stroke="midnightblue" d="M429.225,-201C452.452,-201 480.378,-201 505.908,-201"/>
<polygon fill="midnightblue" stroke="midnightblue" points="505.932,-204.5 515.932,-201 505.932,-197.5 505.932,-204.5"/>
</g>
<!-- Node29&#45;&gt;Node25 -->
<g id="edge43" class="edge"><title>Node29&#45;&gt;Node25</title>
<path fill="none" stroke="midnightblue" d="M428.963,-210.54C456.594,-215.712 490.933,-222.14 519.981,-227.578"/>
<polygon fill="midnightblue" stroke="midnightblue" points="519.542,-231.056 530.016,-229.456 520.83,-224.176 519.542,-231.056"/>
</g>
<!-- Node30 -->
<g id="node30" class="node"><title>Node30</title>
<g id="a_node30"><a xlink:href="classESM_1_1ESMReader.html#a5a6937e8a2d8fbc7e4bf6ddfc0342d4e" target="_top" xlink:title="ESM::ESMReader::getContext">
<polygon fill="white" stroke="black" points="503.5,-39.5 503.5,-58.5 660.5,-58.5 660.5,-39.5 503.5,-39.5"/>
<text text-anchor="middle" x="582" y="-46.5" font-family="FreeSans" font-size="10.00">ESM::ESMReader::getContext</text>
</a>
</g>
</g>
<!-- Node29&#45;&gt;Node30 -->
<g id="edge44" class="edge"><title>Node29&#45;&gt;Node30</title>
<path fill="none" stroke="midnightblue" d="M383.184,-191.424C397.146,-166.623 438.146,-100.008 492,-68 495.667,-65.8205 499.551,-63.8894 503.564,-62.1785"/>
<polygon fill="midnightblue" stroke="midnightblue" points="505.003,-65.3766 513.125,-58.5729 502.533,-58.8269 505.003,-65.3766"/>
</g>
<!-- Node31 -->
<g id="node31" class="node"><title>Node31</title>
<g id="a_node31"><a xlink:href="classESM_1_1ESMReader.html#a7ba6d4076f766ae7cac77542fa0634c2" target="_top" xlink:title="ESM::ESMReader::skipRecord">
<polygon fill="white" stroke="black" points="504.5,-115.5 504.5,-134.5 659.5,-134.5 659.5,-115.5 504.5,-115.5"/>
<text text-anchor="middle" x="582" y="-122.5" font-family="FreeSans" font-size="10.00">ESM::ESMReader::skipRecord</text>
</a>
</g>
</g>
<!-- Node29&#45;&gt;Node31 -->
<g id="edge45" class="edge"><title>Node29&#45;&gt;Node31</title>
<path fill="none" stroke="midnightblue" d="M394.04,-191.337C415.601,-178.738 455.454,-156.804 492,-144 499.633,-141.326 507.771,-138.962 515.908,-136.89"/>
<polygon fill="midnightblue" stroke="midnightblue" points="516.897,-140.252 525.799,-134.507 515.257,-133.447 516.897,-140.252"/>
</g>
<!-- Node31&#45;&gt;Node23 -->
<g id="edge46" class="edge"><title>Node31&#45;&gt;Node23</title>
<path fill="none" stroke="midnightblue" d="M632.672,-134.559C645.55,-137.322 659.352,-140.537 672,-144 701.549,-152.091 734.442,-163.276 758.62,-171.92"/>
<polygon fill="midnightblue" stroke="midnightblue" points="757.492,-175.234 768.086,-175.333 759.867,-168.649 757.492,-175.234"/>
</g>
</g>
</svg>
