<?xml version="1.0" encoding="UTF-8" standalone="no"?>
<!DOCTYPE svg PUBLIC "-//W3C//DTD SVG 1.1//EN"
 "http://www.w3.org/Graphics/SVG/1.1/DTD/svg11.dtd">
<!-- Generated by graphviz version 2.36.0 (20140111.2315)
 -->
<!-- Title: MWMechanics::AiCombatStorage::updateAttack Pages: 1 -->
<svg width="404pt" height="136pt"
 viewBox="0.00 0.00 404.00 136.00" xmlns="http://www.w3.org/2000/svg" xmlns:xlink="http://www.w3.org/1999/xlink">
<g id="graph0" class="graph" transform="scale(1 1) rotate(0) translate(4 132)">
<title>MWMechanics::AiCombatStorage::updateAttack</title>
<polygon fill="white" stroke="none" points="-4,4 -4,-132 400,-132 400,4 -4,4"/>
<!-- Node1 -->
<g id="node1" class="node"><title>Node1</title>
<polygon fill="#bfbfbf" stroke="black" points="0.5,-49 0.5,-79 175.5,-79 175.5,-49 0.5,-49"/>
<text text-anchor="start" x="8.5" y="-67" font-family="FreeSans" font-size="10.00">MWMechanics::AiCombatStorage</text>
<text text-anchor="middle" x="88" y="-56" font-family="FreeSans" font-size="10.00">::updateAttack</text>
</g>
<!-- Node2 -->
<g id="node2" class="node"><title>Node2</title>
<g id="a_node2"><a xlink:href="classMWMechanics_1_1CharacterController.html#a5a2c7182bbf088b55ecfb95ac9fe9d4b" target="_top" xlink:title="MWMechanics::CharacterController\l::getAttackStrength">
<polygon fill="white" stroke="black" points="212.5,-98 212.5,-128 395.5,-128 395.5,-98 212.5,-98"/>
<text text-anchor="start" x="220.5" y="-116" font-family="FreeSans" font-size="10.00">MWMechanics::CharacterController</text>
<text text-anchor="middle" x="304" y="-105" font-family="FreeSans" font-size="10.00">::getAttackStrength</text>
</a>
</g>
</g>
<!-- Node1&#45;&gt;Node2 -->
<g id="edge1" class="edge"><title>Node1&#45;&gt;Node2</title>
<path fill="none" stroke="midnightblue" d="M154.661,-79.0346C177.668,-84.3024 203.687,-90.2601 227.438,-95.6984"/>
<polygon fill="midnightblue" stroke="midnightblue" points="226.934,-99.1735 237.463,-97.9938 228.496,-92.3501 226.934,-99.1735"/>
</g>
<!-- Node3 -->
<g id="node3" class="node"><title>Node3</title>
<g id="a_node3"><a xlink:href="classMWMechanics_1_1CharacterController.html#a6ee6d8a4895d4a729386f8b51b8aaa15" target="_top" xlink:title="MWMechanics::CharacterController\l::readyToPrepareAttack">
<polygon fill="white" stroke="black" points="212.5,-49 212.5,-79 395.5,-79 395.5,-49 212.5,-49"/>
<text text-anchor="start" x="220.5" y="-67" font-family="FreeSans" font-size="10.00">MWMechanics::CharacterController</text>
<text text-anchor="middle" x="304" y="-56" font-family="FreeSans" font-size="10.00">::readyToPrepareAttack</text>
</a>
</g>
</g>
<!-- Node1&#45;&gt;Node3 -->
<g id="edge2" class="edge"><title>Node1&#45;&gt;Node3</title>
<path fill="none" stroke="midnightblue" d="M175.733,-64C184.394,-64 193.238,-64 202.028,-64"/>
<polygon fill="midnightblue" stroke="midnightblue" points="202.308,-67.5001 212.308,-64 202.308,-60.5001 202.308,-67.5001"/>
</g>
<!-- Node4 -->
<g id="node4" class="node"><title>Node4</title>
<g id="a_node4"><a xlink:href="classMWMechanics_1_1CharacterController.html#a24984b201dcb67e830a70b7f43e0eccd" target="_top" xlink:title="MWMechanics::CharacterController\l::setAttackingOrSpell">
<polygon fill="white" stroke="black" points="212.5,-0 212.5,-30 395.5,-30 395.5,-0 212.5,-0"/>
<text text-anchor="start" x="220.5" y="-18" font-family="FreeSans" font-size="10.00">MWMechanics::CharacterController</text>
<text text-anchor="middle" x="304" y="-7" font-family="FreeSans" font-size="10.00">::setAttackingOrSpell</text>
</a>
</g>
</g>
<!-- Node1&#45;&gt;Node4 -->
<g id="edge3" class="edge"><title>Node1&#45;&gt;Node4</title>
<path fill="none" stroke="midnightblue" d="M154.661,-48.9654C177.668,-43.6976 203.687,-37.7399 227.438,-32.3016"/>
<polygon fill="midnightblue" stroke="midnightblue" points="228.496,-35.6499 237.463,-30.0062 226.934,-28.8265 228.496,-35.6499"/>
</g>
</g>
</svg>
