<?xml version="1.0" encoding="UTF-8" standalone="no"?>
<!DOCTYPE svg PUBLIC "-//W3C//DTD SVG 1.1//EN"
 "http://www.w3.org/Graphics/SVG/1.1/DTD/svg11.dtd">
<!-- Generated by graphviz version 2.36.0 (20140111.2315)
 -->
<!-- Title: CSMWorld::Pathgrid Pages: 1 -->
<svg width="525pt" height="582pt"
 viewBox="0.00 0.00 525.04 582.00" xmlns="http://www.w3.org/2000/svg" xmlns:xlink="http://www.w3.org/1999/xlink">
<g id="graph0" class="graph" transform="scale(1 1) rotate(0) translate(4 578)">
<title>CSMWorld::Pathgrid</title>
<polygon fill="white" stroke="none" points="-4,4 -4,-578 521.037,-578 521.037,4 -4,4"/>
<!-- Node1 -->
<g id="node1" class="node"><title>Node1</title>
<polygon fill="#bfbfbf" stroke="black" points="305.037,-1 305.037,-69 409.037,-69 409.037,-1 305.037,-1"/>
<text text-anchor="middle" x="357.037" y="-57" font-family="FreeSans" font-size="10.00">CSMWorld::Pathgrid</text>
<polyline fill="none" stroke="black" points="305.037,-50 409.037,-50 "/>
<text text-anchor="middle" x="357.037" y="-38" font-family="FreeSans" font-size="10.00"> </text>
<polyline fill="none" stroke="black" points="305.037,-31 409.037,-31 "/>
<text text-anchor="start" x="313.037" y="-19" font-family="FreeSans" font-size="10.00">+ load()</text>
<text text-anchor="start" x="313.037" y="-8" font-family="FreeSans" font-size="10.00">+ load()</text>
</g>
<!-- Node2 -->
<g id="node2" class="node"><title>Node2</title>
<g id="a_node2"><a xlink:href="structESM_1_1Pathgrid.html" target="_top" xlink:title="{ESM::Pathgrid\n||+ load()\l+ save()\l+ blank()\l+ getRecordType()\l}">
<polygon fill="white" stroke="black" points="199.037,-109 199.037,-199 295.037,-199 295.037,-109 199.037,-109"/>
<text text-anchor="middle" x="247.037" y="-187" font-family="FreeSans" font-size="10.00">ESM::Pathgrid</text>
<polyline fill="none" stroke="black" points="199.037,-180 295.037,-180 "/>
<text text-anchor="middle" x="247.037" y="-168" font-family="FreeSans" font-size="10.00"> </text>
<polyline fill="none" stroke="black" points="199.037,-161 295.037,-161 "/>
<text text-anchor="start" x="207.037" y="-149" font-family="FreeSans" font-size="10.00">+ load()</text>
<text text-anchor="start" x="207.037" y="-138" font-family="FreeSans" font-size="10.00">+ save()</text>
<text text-anchor="start" x="207.037" y="-127" font-family="FreeSans" font-size="10.00">+ blank()</text>
<text text-anchor="start" x="207.037" y="-116" font-family="FreeSans" font-size="10.00">+ getRecordType()</text>
</a>
</g>
</g>
<!-- Node2&#45;&gt;Node1 -->
<g id="edge1" class="edge"><title>Node2&#45;&gt;Node1</title>
<path fill="none" stroke="midnightblue" d="M295.619,-101.326C305.818,-90.4781 316.316,-79.3124 325.683,-69.3489"/>
<polygon fill="none" stroke="midnightblue" points="292.923,-99.0842 288.623,-108.767 298.023,-103.879 292.923,-99.0842"/>
</g>
<!-- Node3 -->
<g id="node3" class="node"><title>Node3</title>
<polygon fill="white" stroke="#bfbfbf" points="58.0366,-248.5 58.0366,-305.5 156.037,-305.5 156.037,-248.5 58.0366,-248.5"/>
<text text-anchor="middle" x="107.037" y="-293.5" font-family="FreeSans" font-size="10.00">std::vector&lt; Edge &gt;</text>
<polyline fill="none" stroke="#bfbfbf" points="58.0366,-286.5 156.037,-286.5 "/>
<text text-anchor="middle" x="107.037" y="-274.5" font-family="FreeSans" font-size="10.00"> </text>
<polyline fill="none" stroke="#bfbfbf" points="58.0366,-267.5 156.037,-267.5 "/>
<text text-anchor="middle" x="107.037" y="-255.5" font-family="FreeSans" font-size="10.00"> </text>
</g>
<!-- Node3&#45;&gt;Node2 -->
<g id="edge2" class="edge"><title>Node3&#45;&gt;Node2</title>
<path fill="none" stroke="#404040" d="M130.764,-248.407C139.845,-238.425 150.548,-227.323 161.037,-218 169.855,-210.161 179.615,-202.319 189.3,-194.963"/>
<polygon fill="none" stroke="#404040" points="189.303,-194.96 191.721,-188.166 198.922,-187.785 196.504,-194.579 189.303,-194.96"/>
<text text-anchor="middle" x="182.537" y="-221.5" font-family="FreeSans" font-size="10.00"> +mEdges</text>
</g>
<!-- Node4 -->
<g id="node4" class="node"><title>Node4</title>
<g id="a_node4"><a xlink:href="structESM_1_1Pathgrid_1_1Edge.html" target="_top" xlink:title="{ESM::Pathgrid::Edge\n||}">
<polygon fill="white" stroke="black" points="29.0366,-371.5 29.0366,-428.5 133.037,-428.5 133.037,-371.5 29.0366,-371.5"/>
<text text-anchor="middle" x="81.0366" y="-416.5" font-family="FreeSans" font-size="10.00">ESM::Pathgrid::Edge</text>
<polyline fill="none" stroke="black" points="29.0366,-409.5 133.037,-409.5 "/>
<text text-anchor="middle" x="81.0366" y="-397.5" font-family="FreeSans" font-size="10.00"> </text>
<polyline fill="none" stroke="black" points="29.0366,-390.5 133.037,-390.5 "/>
<text text-anchor="middle" x="81.0366" y="-378.5" font-family="FreeSans" font-size="10.00"> </text>
</a>
</g>
</g>
<!-- Node4&#45;&gt;Node3 -->
<g id="edge3" class="edge"><title>Node4&#45;&gt;Node3</title>
<path fill="none" stroke="#404040" d="M87.0015,-371.24C90.4202,-355.33 94.7676,-335.098 98.5385,-317.549"/>
<polygon fill="none" stroke="#404040" points="98.5784,-317.363 95.9282,-310.656 101.099,-305.631 103.75,-312.337 98.5784,-317.363"/>
<text text-anchor="middle" x="122.037" y="-327.5" font-family="FreeSans" font-size="10.00"> +elements</text>
</g>
<!-- Node5 -->
<g id="node5" class="node"><title>Node5</title>
<g id="a_node5"><a xlink:href="classint.html" target="_top" xlink:title="{int\n||}">
<polygon fill="white" stroke="black" points="91.5366,-516.5 91.5366,-573.5 120.537,-573.5 120.537,-516.5 91.5366,-516.5"/>
<text text-anchor="middle" x="106.037" y="-561.5" font-family="FreeSans" font-size="10.00">int</text>
<polyline fill="none" stroke="black" points="91.5366,-554.5 120.537,-554.5 "/>
<text text-anchor="middle" x="106.037" y="-542.5" font-family="FreeSans" font-size="10.00"> </text>
<polyline fill="none" stroke="black" points="91.5366,-535.5 120.537,-535.5 "/>
<text text-anchor="middle" x="106.037" y="-523.5" font-family="FreeSans" font-size="10.00"> </text>
</a>
</g>
</g>
<!-- Node5&#45;&gt;Node2 -->
<g id="edge10" class="edge"><title>Node5&#45;&gt;Node2</title>
<path fill="none" stroke="#404040" d="M91.2513,-533.027C70.6722,-516.724 34.3155,-483.919 20.0366,-446 -11.3056,-362.767 -8.2163,-316.06 49.0366,-248 84.3079,-206.071 142.71,-181.864 186.969,-168.721"/>
<polygon fill="none" stroke="#404040" points="187.211,-168.652 191.893,-163.168 198.757,-165.38 194.075,-170.864 187.211,-168.652"/>
<text text-anchor="middle" x="31.0366" y="-327.5" font-family="FreeSans" font-size="10.00"> +sRecordId</text>
</g>
<!-- Node5&#45;&gt;Node4 -->
<g id="edge4" class="edge"><title>Node5&#45;&gt;Node4</title>
<path fill="none" stroke="#404040" d="M91.3362,-520.978C87.5592,-513.884 84.0077,-505.864 82.0366,-498 77.4013,-479.507 76.6699,-458.402 77.2962,-440.611"/>
<polygon fill="none" stroke="#404040" points="77.2969,-440.595 73.6218,-434.391 77.9354,-428.612 81.6105,-434.817 77.2969,-440.595"/>
<text text-anchor="middle" x="96.0366" y="-484" font-family="FreeSans" font-size="10.00"> +mV0</text>
<text text-anchor="middle" x="96.0366" y="-473" font-family="FreeSans" font-size="10.00">+mV1</text>
</g>
<!-- Node7 -->
<g id="node7" class="node"><title>Node7</title>
<g id="a_node7"><a xlink:href="structESM_1_1Pathgrid_1_1Point.html" target="_top" xlink:title="{ESM::Pathgrid::Point\n||+ operator=()\l+ Point()\l+ Point()\l+ Point()\l}">
<polygon fill="white" stroke="black" points="302.537,-355 302.537,-445 407.537,-445 407.537,-355 302.537,-355"/>
<text text-anchor="middle" x="355.037" y="-433" font-family="FreeSans" font-size="10.00">ESM::Pathgrid::Point</text>
<polyline fill="none" stroke="black" points="302.537,-426 407.537,-426 "/>
<text text-anchor="middle" x="355.037" y="-414" font-family="FreeSans" font-size="10.00"> </text>
<polyline fill="none" stroke="black" points="302.537,-407 407.537,-407 "/>
<text text-anchor="start" x="310.537" y="-395" font-family="FreeSans" font-size="10.00">+ operator=()</text>
<text text-anchor="start" x="310.537" y="-384" font-family="FreeSans" font-size="10.00">+ Point()</text>
<text text-anchor="start" x="310.537" y="-373" font-family="FreeSans" font-size="10.00">+ Point()</text>
<text text-anchor="start" x="310.537" y="-362" font-family="FreeSans" font-size="10.00">+ Point()</text>
</a>
</g>
</g>
<!-- Node5&#45;&gt;Node7 -->
<g id="edge8" class="edge"><title>Node5&#45;&gt;Node7</title>
<path fill="none" stroke="#404040" d="M120.847,-530.803C131.07,-521.655 144.945,-509.16 157.037,-498 173.209,-483.073 173.39,-473.917 193.037,-464 230.201,-445.24 248.525,-460.821 291.143,-445.906"/>
<polygon fill="none" stroke="#404040" points="291.365,-445.819 295.48,-439.897 302.528,-441.418 298.414,-447.34 291.365,-445.819"/>
<text text-anchor="middle" x="205.037" y="-489.5" font-family="FreeSans" font-size="10.00"> +mX</text>
<text text-anchor="middle" x="205.037" y="-478.5" font-family="FreeSans" font-size="10.00">+mY</text>
<text text-anchor="middle" x="205.037" y="-467.5" font-family="FreeSans" font-size="10.00">+mZ</text>
</g>
<!-- Node12 -->
<g id="node12" class="node"><title>Node12</title>
<g id="a_node12"><a xlink:href="structESM_1_1Pathgrid_1_1DATAstruct.html" target="_top" xlink:title="{ESM::Pathgrid::DATAstruct\n||}">
<polygon fill="white" stroke="black" points="151.537,-371.5 151.537,-428.5 284.537,-428.5 284.537,-371.5 151.537,-371.5"/>
<text text-anchor="middle" x="218.037" y="-416.5" font-family="FreeSans" font-size="10.00">ESM::Pathgrid::DATAstruct</text>
<polyline fill="none" stroke="black" points="151.537,-409.5 284.537,-409.5 "/>
<text text-anchor="middle" x="218.037" y="-397.5" font-family="FreeSans" font-size="10.00"> </text>
<polyline fill="none" stroke="black" points="151.537,-390.5 284.537,-390.5 "/>
<text text-anchor="middle" x="218.037" y="-378.5" font-family="FreeSans" font-size="10.00"> </text>
</a>
</g>
</g>
<!-- Node5&#45;&gt;Node12 -->
<g id="edge15" class="edge"><title>Node5&#45;&gt;Node12</title>
<path fill="none" stroke="#404040" d="M111.07,-516.134C115.034,-499.796 121.822,-479.407 133.037,-464 140.573,-453.646 150.309,-444.26 160.488,-436.081"/>
<polygon fill="none" stroke="#404040" points="160.765,-435.871 163.127,-429.058 170.324,-428.617 167.962,-435.431 160.765,-435.871"/>
<text text-anchor="middle" x="145.037" y="-484" font-family="FreeSans" font-size="10.00"> +mX</text>
<text text-anchor="middle" x="145.037" y="-473" font-family="FreeSans" font-size="10.00">+mY</text>
</g>
<!-- Node6 -->
<g id="node6" class="node"><title>Node6</title>
<polygon fill="white" stroke="#bfbfbf" points="273.537,-248.5 273.537,-305.5 372.537,-305.5 372.537,-248.5 273.537,-248.5"/>
<text text-anchor="middle" x="323.037" y="-293.5" font-family="FreeSans" font-size="10.00">std::vector&lt; Point &gt;</text>
<polyline fill="none" stroke="#bfbfbf" points="273.537,-286.5 372.537,-286.5 "/>
<text text-anchor="middle" x="323.037" y="-274.5" font-family="FreeSans" font-size="10.00"> </text>
<polyline fill="none" stroke="#bfbfbf" points="273.537,-267.5 372.537,-267.5 "/>
<text text-anchor="middle" x="323.037" y="-255.5" font-family="FreeSans" font-size="10.00"> </text>
</g>
<!-- Node6&#45;&gt;Node2 -->
<g id="edge5" class="edge"><title>Node6&#45;&gt;Node2</title>
<path fill="none" stroke="#404040" d="M303.057,-248.013C298.994,-242.12 294.812,-235.9 291.037,-230 286.925,-223.574 282.723,-216.763 278.625,-209.969"/>
<polygon fill="none" stroke="#404040" points="278.447,-209.671 271.939,-206.567 272.301,-199.365 278.81,-202.469 278.447,-209.671"/>
<text text-anchor="middle" x="313.037" y="-221.5" font-family="FreeSans" font-size="10.00"> +mPoints</text>
</g>
<!-- Node7&#45;&gt;Node6 -->
<g id="edge6" class="edge"><title>Node7&#45;&gt;Node6</title>
<path fill="none" stroke="#404040" d="M343.393,-354.974C340.157,-342.737 336.664,-329.527 333.499,-317.563"/>
<polygon fill="none" stroke="#404040" points="333.414,-317.24 328.013,-312.462 330.346,-305.639 335.747,-310.417 333.414,-317.24"/>
<text text-anchor="middle" x="363.037" y="-327.5" font-family="FreeSans" font-size="10.00"> +elements</text>
</g>
<!-- Node8 -->
<g id="node8" class="node"><title>Node8</title>
<polygon fill="white" stroke="#bfbfbf" points="233.037,-516.5 233.037,-573.5 271.037,-573.5 271.037,-516.5 233.037,-516.5"/>
<text text-anchor="middle" x="252.037" y="-561.5" font-family="FreeSans" font-size="10.00">short</text>
<polyline fill="none" stroke="#bfbfbf" points="233.037,-554.5 271.037,-554.5 "/>
<text text-anchor="middle" x="252.037" y="-542.5" font-family="FreeSans" font-size="10.00"> </text>
<polyline fill="none" stroke="#bfbfbf" points="233.037,-535.5 271.037,-535.5 "/>
<text text-anchor="middle" x="252.037" y="-523.5" font-family="FreeSans" font-size="10.00"> </text>
</g>
<!-- Node8&#45;&gt;Node7 -->
<g id="edge7" class="edge"><title>Node8&#45;&gt;Node7</title>
<path fill="none" stroke="#404040" d="M265.1,-516.316C273.12,-500.421 284.12,-480.421 296.037,-464 298.325,-460.847 300.757,-457.684 303.28,-454.546"/>
<polygon fill="none" stroke="#404040" points="303.365,-454.444 304.15,-447.276 311.069,-445.243 310.284,-452.412 303.365,-454.444"/>
<text text-anchor="middle" x="324.537" y="-478.5" font-family="FreeSans" font-size="10.00"> +mUnknown</text>
</g>
<!-- Node8&#45;&gt;Node12 -->
<g id="edge14" class="edge"><title>Node8&#45;&gt;Node12</title>
<path fill="none" stroke="#404040" d="M234.553,-516.078C231.595,-510.285 228.887,-504.087 227.037,-498 221.467,-479.682 219.063,-458.597 218.115,-440.774"/>
<polygon fill="none" stroke="#404040" points="218.113,-440.737 213.891,-434.892 217.663,-428.746 221.885,-434.591 218.113,-440.737"/>
<text text-anchor="middle" x="241.537" y="-484" font-family="FreeSans" font-size="10.00"> +mS1</text>
<text text-anchor="middle" x="241.537" y="-473" font-family="FreeSans" font-size="10.00">+mS2</text>
</g>
<!-- Node9 -->
<g id="node9" class="node"><title>Node9</title>
<polygon fill="white" stroke="#bfbfbf" points="330.537,-516.5 330.537,-573.5 385.537,-573.5 385.537,-516.5 330.537,-516.5"/>
<text text-anchor="middle" x="358.037" y="-561.5" font-family="FreeSans" font-size="10.00">unsigned</text>
<polyline fill="none" stroke="#bfbfbf" points="330.537,-554.5 385.537,-554.5 "/>
<text text-anchor="middle" x="358.037" y="-542.5" font-family="FreeSans" font-size="10.00"> </text>
<polyline fill="none" stroke="#bfbfbf" points="330.537,-535.5 385.537,-535.5 "/>
<text text-anchor="middle" x="358.037" y="-523.5" font-family="FreeSans" font-size="10.00"> </text>
</g>
<!-- Node9&#45;&gt;Node7 -->
<g id="edge9" class="edge"><title>Node9&#45;&gt;Node7</title>
<path fill="none" stroke="#404040" d="M357.458,-516.428C357.105,-499.614 356.642,-477.507 356.214,-457.145"/>
<polygon fill="none" stroke="#404040" points="356.213,-457.081 352.088,-451.166 355.961,-445.084 360.086,-450.998 356.213,-457.081"/>
<text text-anchor="middle" x="401.037" y="-484" font-family="FreeSans" font-size="10.00"> +mConnectionNum</text>
<text text-anchor="middle" x="401.037" y="-473" font-family="FreeSans" font-size="10.00">+mAutogenerated</text>
</g>
<!-- Node10 -->
<g id="node10" class="node"><title>Node10</title>
<g id="a_node10"><a xlink:title="STL class. ">
<polygon fill="white" stroke="#bfbfbf" points="390.537,-248.5 390.537,-305.5 447.537,-305.5 447.537,-248.5 390.537,-248.5"/>
<text text-anchor="middle" x="419.037" y="-293.5" font-family="FreeSans" font-size="10.00">std::string</text>
<polyline fill="none" stroke="#bfbfbf" points="390.537,-286.5 447.537,-286.5 "/>
<text text-anchor="middle" x="419.037" y="-274.5" font-family="FreeSans" font-size="10.00"> </text>
<polyline fill="none" stroke="#bfbfbf" points="390.537,-267.5 447.537,-267.5 "/>
<text text-anchor="middle" x="419.037" y="-255.5" font-family="FreeSans" font-size="10.00"> </text>
</a>
</g>
</g>
<!-- Node10&#45;&gt;Node1 -->
<g id="edge16" class="edge"><title>Node10&#45;&gt;Node1</title>
<path fill="none" stroke="#404040" d="M411.924,-248.469C401.368,-207.607 381.436,-130.448 368.717,-81.2154"/>
<polygon fill="none" stroke="#404040" points="368.651,-80.958 363.277,-76.1492 365.649,-69.3394 371.023,-74.1482 368.651,-80.958"/>
<text text-anchor="middle" x="412.537" y="-151.5" font-family="FreeSans" font-size="10.00"> +mId</text>
</g>
<!-- Node10&#45;&gt;Node2 -->
<g id="edge11" class="edge"><title>Node10&#45;&gt;Node2</title>
<path fill="none" stroke="#404040" d="M390.466,-254.814C387.294,-252.502 384.103,-250.193 381.037,-248 356.458,-230.421 329.088,-211.339 305.523,-195.06"/>
<polygon fill="none" stroke="#404040" points="305.211,-194.845 298.001,-194.731 295.333,-188.031 302.543,-188.146 305.211,-194.845"/>
<text text-anchor="middle" x="373.037" y="-221.5" font-family="FreeSans" font-size="10.00"> +mCell</text>
</g>
<!-- Node11 -->
<g id="node11" class="node"><title>Node11</title>
<g id="a_node11"><a xlink:title="STL class. ">
<polygon fill="white" stroke="#bfbfbf" points="425.537,-366 425.537,-434 516.537,-434 516.537,-366 425.537,-366"/>
<text text-anchor="start" x="433.537" y="-422" font-family="FreeSans" font-size="10.00">std::basic_string&lt;</text>
<text text-anchor="middle" x="471.037" y="-411" font-family="FreeSans" font-size="10.00"> char &gt;</text>
<polyline fill="none" stroke="#bfbfbf" points="425.537,-404 516.537,-404 "/>
<text text-anchor="middle" x="471.037" y="-392" font-family="FreeSans" font-size="10.00"> </text>
<polyline fill="none" stroke="#bfbfbf" points="425.537,-385 516.537,-385 "/>
<text text-anchor="middle" x="471.037" y="-373" font-family="FreeSans" font-size="10.00"> </text>
</a>
</g>
</g>
<!-- Node11&#45;&gt;Node10 -->
<g id="edge12" class="edge"><title>Node11&#45;&gt;Node10</title>
<path fill="none" stroke="midnightblue" d="M452.693,-356.316C445.469,-339.507 437.38,-320.683 430.942,-305.703"/>
<polygon fill="none" stroke="midnightblue" points="449.663,-358.131 456.827,-365.936 456.095,-355.367 449.663,-358.131"/>
</g>
<!-- Node12&#45;&gt;Node2 -->
<g id="edge13" class="edge"><title>Node12&#45;&gt;Node2</title>
<path fill="none" stroke="#404040" d="M218.424,-371.323C219.143,-340.947 221.193,-290.804 227.037,-248 228.679,-235.973 231.026,-223.186 233.539,-211.067"/>
<polygon fill="none" stroke="#404040" points="233.563,-210.955 230.915,-204.248 236.087,-199.223 238.736,-205.93 233.563,-210.955"/>
<text text-anchor="middle" x="245.537" y="-274.5" font-family="FreeSans" font-size="10.00"> +mData</text>
</g>
</g>
</svg>
