<?xml version="1.0" encoding="UTF-8" standalone="no"?>
<!DOCTYPE svg PUBLIC "-//W3C//DTD SVG 1.1//EN"
 "http://www.w3.org/Graphics/SVG/1.1/DTD/svg11.dtd">
<!-- Generated by graphviz version 2.36.0 (20140111.2315)
 -->
<!-- Title: CSMWorld::ToolColumns Pages: 1 -->
<svg width="508pt" height="1100pt"
 viewBox="0.00 0.00 508.00 1100.00" xmlns="http://www.w3.org/2000/svg" xmlns:xlink="http://www.w3.org/1999/xlink">
<g id="graph0" class="graph" transform="scale(1 1) rotate(0) translate(4 1096)">
<title>CSMWorld::ToolColumns</title>
<polygon fill="white" stroke="none" points="-4,4 -4,-1096 504,-1096 504,4 -4,4"/>
<!-- Node1 -->
<g id="node1" class="node"><title>Node1</title>
<polygon fill="#bfbfbf" stroke="black" points="49,-0.5 49,-57.5 179,-57.5 179,-0.5 49,-0.5"/>
<text text-anchor="middle" x="114" y="-45.5" font-family="FreeSans" font-size="10.00">CSMWorld::ToolColumns</text>
<polyline fill="none" stroke="black" points="49,-38.5 179,-38.5 "/>
<text text-anchor="middle" x="114" y="-26.5" font-family="FreeSans" font-size="10.00"> </text>
<polyline fill="none" stroke="black" points="49,-19.5 179,-19.5 "/>
<text text-anchor="start" x="57" y="-7.5" font-family="FreeSans" font-size="10.00">+ ToolColumns()</text>
</g>
<!-- Node2 -->
<g id="node2" class="node"><title>Node2</title>
<g id="a_node2"><a xlink:href="structCSMWorld_1_1InventoryColumns.html" target="_top" xlink:title="{CSMWorld::InventoryColumns\n||+ InventoryColumns()\l}">
<polygon fill="white" stroke="black" points="110,-96.5 110,-153.5 266,-153.5 266,-96.5 110,-96.5"/>
<text text-anchor="middle" x="188" y="-141.5" font-family="FreeSans" font-size="10.00">CSMWorld::InventoryColumns</text>
<polyline fill="none" stroke="black" points="110,-134.5 266,-134.5 "/>
<text text-anchor="middle" x="188" y="-122.5" font-family="FreeSans" font-size="10.00"> </text>
<polyline fill="none" stroke="black" points="110,-115.5 266,-115.5 "/>
<text text-anchor="start" x="118" y="-103.5" font-family="FreeSans" font-size="10.00">+ InventoryColumns()</text>
</a>
</g>
</g>
<!-- Node2&#45;&gt;Node1 -->
<g id="edge1" class="edge"><title>Node2&#45;&gt;Node1</title>
<path fill="none" stroke="midnightblue" d="M159.967,-88.3904C152.002,-78.2724 143.446,-67.405 135.902,-57.8216"/>
<polygon fill="none" stroke="midnightblue" points="157.262,-90.6129 166.198,-96.3053 162.762,-86.2829 157.262,-90.6129"/>
</g>
<!-- Node3 -->
<g id="node3" class="node"><title>Node3</title>
<g id="a_node3"><a xlink:href="structCSMWorld_1_1NameColumns.html" target="_top" xlink:title="{CSMWorld::NameColumns\n||+ NameColumns()\l}">
<polygon fill="white" stroke="black" points="180.5,-192.5 180.5,-249.5 321.5,-249.5 321.5,-192.5 180.5,-192.5"/>
<text text-anchor="middle" x="251" y="-237.5" font-family="FreeSans" font-size="10.00">CSMWorld::NameColumns</text>
<polyline fill="none" stroke="black" points="180.5,-230.5 321.5,-230.5 "/>
<text text-anchor="middle" x="251" y="-218.5" font-family="FreeSans" font-size="10.00"> </text>
<polyline fill="none" stroke="black" points="180.5,-211.5 321.5,-211.5 "/>
<text text-anchor="start" x="188.5" y="-199.5" font-family="FreeSans" font-size="10.00">+ NameColumns()</text>
</a>
</g>
</g>
<!-- Node3&#45;&gt;Node2 -->
<g id="edge2" class="edge"><title>Node3&#45;&gt;Node2</title>
<path fill="none" stroke="midnightblue" d="M226.731,-183.788C220.065,-173.842 212.942,-163.215 206.646,-153.822"/>
<polygon fill="none" stroke="midnightblue" points="223.964,-185.947 232.439,-192.305 229.779,-182.05 223.964,-185.947"/>
</g>
<!-- Node4 -->
<g id="node4" class="node"><title>Node4</title>
<g id="a_node4"><a xlink:href="structCSMWorld_1_1ModelColumns.html" target="_top" xlink:title="{CSMWorld::ModelColumns\n||+ ModelColumns()\l}">
<polygon fill="white" stroke="black" points="258,-308.5 258,-365.5 398,-365.5 398,-308.5 258,-308.5"/>
<text text-anchor="middle" x="328" y="-353.5" font-family="FreeSans" font-size="10.00">CSMWorld::ModelColumns</text>
<polyline fill="none" stroke="black" points="258,-346.5 398,-346.5 "/>
<text text-anchor="middle" x="328" y="-334.5" font-family="FreeSans" font-size="10.00"> </text>
<polyline fill="none" stroke="black" points="258,-327.5 398,-327.5 "/>
<text text-anchor="start" x="266" y="-315.5" font-family="FreeSans" font-size="10.00">+ ModelColumns()</text>
</a>
</g>
</g>
<!-- Node4&#45;&gt;Node3 -->
<g id="edge3" class="edge"><title>Node4&#45;&gt;Node3</title>
<path fill="none" stroke="midnightblue" d="M303.494,-299.718C292.563,-283.535 279.89,-264.772 269.735,-249.737"/>
<polygon fill="none" stroke="midnightblue" points="300.863,-302.076 309.36,-308.404 306.664,-298.158 300.863,-302.076"/>
</g>
<!-- Node5 -->
<g id="node5" class="node"><title>Node5</title>
<g id="a_node5"><a xlink:href="structCSMWorld_1_1BaseColumns.html" target="_top" xlink:title="{CSMWorld::BaseColumns\n||}">
<polygon fill="white" stroke="black" points="364,-424.5 364,-481.5 500,-481.5 500,-424.5 364,-424.5"/>
<text text-anchor="middle" x="432" y="-469.5" font-family="FreeSans" font-size="10.00">CSMWorld::BaseColumns</text>
<polyline fill="none" stroke="black" points="364,-462.5 500,-462.5 "/>
<text text-anchor="middle" x="432" y="-450.5" font-family="FreeSans" font-size="10.00"> </text>
<polyline fill="none" stroke="black" points="364,-443.5 500,-443.5 "/>
<text text-anchor="middle" x="432" y="-431.5" font-family="FreeSans" font-size="10.00"> </text>
</a>
</g>
</g>
<!-- Node5&#45;&gt;Node4 -->
<g id="edge4" class="edge"><title>Node5&#45;&gt;Node4</title>
<path fill="none" stroke="midnightblue" d="M399.719,-416.615C384.772,-400.231 367.275,-381.051 353.304,-365.737"/>
<polygon fill="none" stroke="midnightblue" points="397.499,-419.375 406.825,-424.404 402.671,-414.657 397.499,-419.375"/>
</g>
<!-- Node6 -->
<g id="node6" class="node"><title>Node6</title>
<g id="a_node6"><a xlink:href="classCSMWorld_1_1RefIdColumn.html" target="_top" xlink:title="{CSMWorld::RefIdColumn\n||+ RefIdColumn()\l+ isEditable()\l+ isUserEditable()\l}">
<polygon fill="white" stroke="black" points="165.5,-552.5 165.5,-631.5 294.5,-631.5 294.5,-552.5 165.5,-552.5"/>
<text text-anchor="middle" x="230" y="-619.5" font-family="FreeSans" font-size="10.00">CSMWorld::RefIdColumn</text>
<polyline fill="none" stroke="black" points="165.5,-612.5 294.5,-612.5 "/>
<text text-anchor="middle" x="230" y="-600.5" font-family="FreeSans" font-size="10.00"> </text>
<polyline fill="none" stroke="black" points="165.5,-593.5 294.5,-593.5 "/>
<text text-anchor="start" x="173.5" y="-581.5" font-family="FreeSans" font-size="10.00">+ RefIdColumn()</text>
<text text-anchor="start" x="173.5" y="-570.5" font-family="FreeSans" font-size="10.00">+ isEditable()</text>
<text text-anchor="start" x="173.5" y="-559.5" font-family="FreeSans" font-size="10.00">+ isUserEditable()</text>
</a>
</g>
</g>
<!-- Node6&#45;&gt;Node1 -->
<g id="edge16" class="edge"><title>Node6&#45;&gt;Node1</title>
<path fill="none" stroke="#404040" d="M165.085,-561.557C125.319,-538.615 82,-502.493 82,-454 82,-454 82,-454 82,-124 82,-105.273 87.7622,-85.5124 94.3964,-68.9682"/>
<polygon fill="none" stroke="#404040" points="94.5665,-68.5728 93.2648,-61.4802 99.3112,-57.5506 100.613,-64.6433 94.5665,-68.5728"/>
<text text-anchor="middle" x="109.5" y="-282" font-family="FreeSans" font-size="10.00"> +mQuality</text>
<text text-anchor="middle" x="109.5" y="-271" font-family="FreeSans" font-size="10.00">+mUses</text>
</g>
<!-- Node6&#45;&gt;Node2 -->
<g id="edge15" class="edge"><title>Node6&#45;&gt;Node2</title>
<path fill="none" stroke="#404040" d="M193.74,-552.301C173.371,-526.492 152,-490.675 152,-454 152,-454 152,-454 152,-220 152,-200.974 158.511,-181.129 165.996,-164.603"/>
<polygon fill="none" stroke="#404040" points="166.027,-164.539 165.047,-157.395 171.265,-153.743 172.244,-160.887 166.027,-164.539"/>
<text text-anchor="middle" x="177" y="-345.5" font-family="FreeSans" font-size="10.00"> +mValue</text>
<text text-anchor="middle" x="177" y="-334.5" font-family="FreeSans" font-size="10.00">+mIcon</text>
<text text-anchor="middle" x="177" y="-323.5" font-family="FreeSans" font-size="10.00">+mWeight</text>
</g>
<!-- Node6&#45;&gt;Node3 -->
<g id="edge14" class="edge"><title>Node6&#45;&gt;Node3</title>
<path fill="none" stroke="#404040" d="M232.208,-552.208C236.213,-481.833 244.637,-333.804 248.705,-262.321"/>
<polygon fill="none" stroke="#404040" points="248.73,-261.881 245.078,-255.663 249.412,-249.9 253.065,-256.118 248.73,-261.881"/>
<text text-anchor="middle" x="267.5" y="-398" font-family="FreeSans" font-size="10.00"> +mName</text>
<text text-anchor="middle" x="267.5" y="-387" font-family="FreeSans" font-size="10.00">+mScript</text>
</g>
<!-- Node6&#45;&gt;Node4 -->
<g id="edge13" class="edge"><title>Node6&#45;&gt;Node4</title>
<path fill="none" stroke="#404040" d="M244.991,-552.299C263.379,-504.829 294.375,-424.808 312.84,-377.138"/>
<polygon fill="none" stroke="#404040" points="312.914,-376.945 311.352,-369.906 317.249,-365.756 318.812,-372.795 312.914,-376.945"/>
<text text-anchor="middle" x="319" y="-450.5" font-family="FreeSans" font-size="10.00"> +mModel</text>
</g>
<!-- Node6&#45;&gt;Node5 -->
<g id="edge5" class="edge"><title>Node6&#45;&gt;Node5</title>
<path fill="none" stroke="#404040" d="M286.806,-552.473C316.426,-532.385 352.362,-508.012 381.072,-488.54"/>
<polygon fill="none" stroke="#404040" points="381.367,-488.341 384.087,-481.662 391.298,-481.605 388.577,-488.283 381.367,-488.341"/>
<text text-anchor="middle" x="390" y="-525.5" font-family="FreeSans" font-size="10.00"> +mType</text>
<text text-anchor="middle" x="390" y="-514.5" font-family="FreeSans" font-size="10.00">+mId</text>
<text text-anchor="middle" x="390" y="-503.5" font-family="FreeSans" font-size="10.00">+mModified</text>
</g>
<!-- Node7 -->
<g id="node7" class="node"><title>Node7</title>
<g id="a_node7"><a xlink:href="classCSMWorld_1_1NestableColumn.html" target="_top" xlink:title="{CSMWorld::NestableColumn\n||+ NestableColumn()\l+ ~NestableColumn()\l+ addColumn()\l+ nestedColumn()\l+ hasChildren()\l}">
<polygon fill="white" stroke="black" points="30.5,-690.5 30.5,-791.5 179.5,-791.5 179.5,-690.5 30.5,-690.5"/>
<text text-anchor="middle" x="105" y="-779.5" font-family="FreeSans" font-size="10.00">CSMWorld::NestableColumn</text>
<polyline fill="none" stroke="black" points="30.5,-772.5 179.5,-772.5 "/>
<text text-anchor="middle" x="105" y="-760.5" font-family="FreeSans" font-size="10.00"> </text>
<polyline fill="none" stroke="black" points="30.5,-753.5 179.5,-753.5 "/>
<text text-anchor="start" x="38.5" y="-741.5" font-family="FreeSans" font-size="10.00">+ NestableColumn()</text>
<text text-anchor="start" x="38.5" y="-730.5" font-family="FreeSans" font-size="10.00">+ ~NestableColumn()</text>
<text text-anchor="start" x="38.5" y="-719.5" font-family="FreeSans" font-size="10.00">+ addColumn()</text>
<text text-anchor="start" x="38.5" y="-708.5" font-family="FreeSans" font-size="10.00">+ nestedColumn()</text>
<text text-anchor="start" x="38.5" y="-697.5" font-family="FreeSans" font-size="10.00">+ hasChildren()</text>
</a>
</g>
</g>
<!-- Node7&#45;&gt;Node6 -->
<g id="edge6" class="edge"><title>Node7&#45;&gt;Node6</title>
<path fill="none" stroke="midnightblue" d="M177.187,-683.005C180.633,-679.409 183.93,-675.731 187,-672 196.921,-659.941 205.653,-645.249 212.61,-631.821"/>
<polygon fill="none" stroke="midnightblue" points="174.524,-680.718 169.929,-690.264 179.474,-685.667 174.524,-680.718"/>
</g>
<!-- Node11 -->
<g id="node11" class="node"><title>Node11</title>
<polygon fill="white" stroke="#bfbfbf" points="0,-558 0,-626 126,-626 126,-558 0,-558"/>
<text text-anchor="start" x="8" y="-614" font-family="FreeSans" font-size="10.00">std::vector&lt; CSMWorld</text>
<text text-anchor="middle" x="63" y="-603" font-family="FreeSans" font-size="10.00">::NestableColumn * &gt;</text>
<polyline fill="none" stroke="#bfbfbf" points="0,-596 126,-596 "/>
<text text-anchor="middle" x="63" y="-584" font-family="FreeSans" font-size="10.00"> </text>
<polyline fill="none" stroke="#bfbfbf" points="0,-577 126,-577 "/>
<text text-anchor="middle" x="63" y="-565" font-family="FreeSans" font-size="10.00"> </text>
</g>
<!-- Node7&#45;&gt;Node11 -->
<g id="edge11" class="edge"><title>Node7&#45;&gt;Node11</title>
<path fill="none" stroke="#404040" d="M33.8935,-690.408C29.1969,-684.71 25.1089,-678.566 22,-672 16.5379,-660.464 18.8692,-648.148 24.5332,-636.755"/>
<polygon fill="none" stroke="#404040" points="24.6968,-636.481 24.3318,-629.279 30.8393,-626.172 31.2043,-633.374 24.6968,-636.481"/>
<text text-anchor="middle" x="50.5" y="-658.5" font-family="FreeSans" font-size="10.00"> +elements</text>
</g>
<!-- Node8 -->
<g id="node8" class="node"><title>Node8</title>
<g id="a_node8"><a xlink:href="structCSMWorld_1_1ColumnBase.html" target="_top" xlink:title="{CSMWorld::ColumnBase\n||+ ColumnBase()\l+ ~ColumnBase()\l+ isEditable()\l+ isUserEditable()\l+ getTitle()\l+ getId()\l+ isId()\l+ isText()\l+ isScript()\l}">
<polygon fill="white" stroke="black" points="39.5,-830.5 39.5,-975.5 170.5,-975.5 170.5,-830.5 39.5,-830.5"/>
<text text-anchor="middle" x="105" y="-963.5" font-family="FreeSans" font-size="10.00">CSMWorld::ColumnBase</text>
<polyline fill="none" stroke="black" points="39.5,-956.5 170.5,-956.5 "/>
<text text-anchor="middle" x="105" y="-944.5" font-family="FreeSans" font-size="10.00"> </text>
<polyline fill="none" stroke="black" points="39.5,-937.5 170.5,-937.5 "/>
<text text-anchor="start" x="47.5" y="-925.5" font-family="FreeSans" font-size="10.00">+ ColumnBase()</text>
<text text-anchor="start" x="47.5" y="-914.5" font-family="FreeSans" font-size="10.00">+ ~ColumnBase()</text>
<text text-anchor="start" x="47.5" y="-903.5" font-family="FreeSans" font-size="10.00">+ isEditable()</text>
<text text-anchor="start" x="47.5" y="-892.5" font-family="FreeSans" font-size="10.00">+ isUserEditable()</text>
<text text-anchor="start" x="47.5" y="-881.5" font-family="FreeSans" font-size="10.00">+ getTitle()</text>
<text text-anchor="start" x="47.5" y="-870.5" font-family="FreeSans" font-size="10.00">+ getId()</text>
<text text-anchor="start" x="47.5" y="-859.5" font-family="FreeSans" font-size="10.00">+ isId()</text>
<text text-anchor="start" x="47.5" y="-848.5" font-family="FreeSans" font-size="10.00">+ isText()</text>
<text text-anchor="start" x="47.5" y="-837.5" font-family="FreeSans" font-size="10.00">+ isScript()</text>
</a>
</g>
</g>
<!-- Node8&#45;&gt;Node7 -->
<g id="edge7" class="edge"><title>Node8&#45;&gt;Node7</title>
<path fill="none" stroke="midnightblue" d="M105,-820.219C105,-810.416 105,-800.648 105,-791.505"/>
<polygon fill="none" stroke="midnightblue" points="101.5,-820.424 105,-830.424 108.5,-820.424 101.5,-820.424"/>
</g>
<!-- Node9 -->
<g id="node9" class="node"><title>Node9</title>
<g id="a_node9"><a xlink:href="classint.html" target="_top" xlink:title="{int\n||}">
<polygon fill="white" stroke="black" points="47.5,-1034.5 47.5,-1091.5 76.5,-1091.5 76.5,-1034.5 47.5,-1034.5"/>
<text text-anchor="middle" x="62" y="-1079.5" font-family="FreeSans" font-size="10.00">int</text>
<polyline fill="none" stroke="black" points="47.5,-1072.5 76.5,-1072.5 "/>
<text text-anchor="middle" x="62" y="-1060.5" font-family="FreeSans" font-size="10.00"> </text>
<polyline fill="none" stroke="black" points="47.5,-1053.5 76.5,-1053.5 "/>
<text text-anchor="middle" x="62" y="-1041.5" font-family="FreeSans" font-size="10.00"> </text>
</a>
</g>
</g>
<!-- Node9&#45;&gt;Node8 -->
<g id="edge8" class="edge"><title>Node9&#45;&gt;Node8</title>
<path fill="none" stroke="#404040" d="M59.793,-1034.22C59.47,-1021.78 60.0147,-1007 63,-994 63.5281,-991.7 64.1198,-989.388 64.7667,-987.073"/>
<polygon fill="none" stroke="#404040" points="64.8067,-986.946 62.8013,-980.02 68.4238,-975.504 70.4292,-982.431 64.8067,-986.946"/>
<text text-anchor="middle" x="95" y="-1008" font-family="FreeSans" font-size="10.00"> +mFlags</text>
<text text-anchor="middle" x="95" y="-997" font-family="FreeSans" font-size="10.00">+mColumnId</text>
</g>
<!-- Node10 -->
<g id="node10" class="node"><title>Node10</title>
<polygon fill="white" stroke="#bfbfbf" points="123.5,-1034.5 123.5,-1091.5 174.5,-1091.5 174.5,-1034.5 123.5,-1034.5"/>
<text text-anchor="middle" x="149" y="-1079.5" font-family="FreeSans" font-size="10.00">Display</text>
<polyline fill="none" stroke="#bfbfbf" points="123.5,-1072.5 174.5,-1072.5 "/>
<text text-anchor="middle" x="149" y="-1060.5" font-family="FreeSans" font-size="10.00"> </text>
<polyline fill="none" stroke="#bfbfbf" points="123.5,-1053.5 174.5,-1053.5 "/>
<text text-anchor="middle" x="149" y="-1041.5" font-family="FreeSans" font-size="10.00"> </text>
</g>
<!-- Node10&#45;&gt;Node8 -->
<g id="edge9" class="edge"><title>Node10&#45;&gt;Node8</title>
<path fill="none" stroke="#404040" d="M141.336,-1034.48C137.635,-1021.19 132.975,-1004.46 128.239,-987.448"/>
<polygon fill="none" stroke="#404040" points="128.178,-987.228 122.715,-982.521 124.958,-975.668 130.421,-980.375 128.178,-987.228"/>
<text text-anchor="middle" x="174.5" y="-1002.5" font-family="FreeSans" font-size="10.00"> +mDisplayType</text>
</g>
<!-- Node11&#45;&gt;Node7 -->
<g id="edge10" class="edge"><title>Node11&#45;&gt;Node7</title>
<path fill="none" stroke="#404040" d="M75.2893,-626.278C77.9766,-634.018 80.7017,-642.259 83,-650 85.7039,-659.107 88.3311,-668.803 90.7732,-678.33"/>
<polygon fill="none" stroke="#404040" points="90.8435,-678.612 96.1815,-683.46 93.7593,-690.252 88.4213,-685.404 90.8435,-678.612"/>
<text text-anchor="middle" x="136" y="-658.5" font-family="FreeSans" font-size="10.00"> &#45;mNestedColumns</text>
</g>
<!-- Node12 -->
<g id="node12" class="node"><title>Node12</title>
<g id="a_node12"><a xlink:href="classbool.html" target="_top" xlink:title="{bool\n||}">
<polygon fill="white" stroke="black" points="228.5,-712.5 228.5,-769.5 265.5,-769.5 265.5,-712.5 228.5,-712.5"/>
<text text-anchor="middle" x="247" y="-757.5" font-family="FreeSans" font-size="10.00">bool</text>
<polyline fill="none" stroke="black" points="228.5,-750.5 265.5,-750.5 "/>
<text text-anchor="middle" x="247" y="-738.5" font-family="FreeSans" font-size="10.00"> </text>
<polyline fill="none" stroke="black" points="228.5,-731.5 265.5,-731.5 "/>
<text text-anchor="middle" x="247" y="-719.5" font-family="FreeSans" font-size="10.00"> </text>
</a>
</g>
</g>
<!-- Node12&#45;&gt;Node6 -->
<g id="edge12" class="edge"><title>Node12&#45;&gt;Node6</title>
<path fill="none" stroke="#404040" d="M243.802,-712.35C241.569,-693.034 238.521,-666.683 235.858,-643.654"/>
<polygon fill="none" stroke="#404040" points="235.845,-643.54 231.182,-638.039 234.466,-631.62 239.129,-637.12 235.845,-643.54"/>
<text text-anchor="middle" x="277.5" y="-664" font-family="FreeSans" font-size="10.00"> &#45;mEditable</text>
<text text-anchor="middle" x="277.5" y="-653" font-family="FreeSans" font-size="10.00">&#45;mUserEditable</text>
</g>
</g>
</svg>
