<?xml version="1.0" encoding="UTF-8" standalone="no"?>
<!DOCTYPE svg PUBLIC "-//W3C//DTD SVG 1.1//EN"
 "http://www.w3.org/Graphics/SVG/1.1/DTD/svg11.dtd">
<!-- Generated by graphviz version 2.36.0 (20140111.2315)
 -->
<!-- Title: Nif::NiRotatingParticles::read Pages: 1 -->
<svg width="892pt" height="284pt"
 viewBox="0.00 0.00 892.00 284.00" xmlns="http://www.w3.org/2000/svg" xmlns:xlink="http://www.w3.org/1999/xlink">
<g id="graph0" class="graph" transform="scale(1 1) rotate(0) translate(4 280)">
<title>Nif::NiRotatingParticles::read</title>
<polygon fill="white" stroke="none" points="-4,4 -4,-280 888,-280 888,4 -4,4"/>
<!-- Node1 -->
<g id="node1" class="node"><title>Node1</title>
<polygon fill="#bfbfbf" stroke="black" points="0,-23 0,-53 124,-53 124,-23 0,-23"/>
<text text-anchor="start" x="8" y="-41" font-family="FreeSans" font-size="10.00">Nif::NiRotatingParticles</text>
<text text-anchor="middle" x="62" y="-30" font-family="FreeSans" font-size="10.00">::read</text>
</g>
<!-- Node2 -->
<g id="node2" class="node"><title>Node2</title>
<g id="a_node2"><a xlink:href="classNif_1_1Node.html#ab5aa39a09a43ed33298c16a440a8bcc5" target="_top" xlink:title="Parses the record from file. ">
<polygon fill="white" stroke="black" points="160.5,-123.5 160.5,-142.5 249.5,-142.5 249.5,-123.5 160.5,-123.5"/>
<text text-anchor="middle" x="205" y="-130.5" font-family="FreeSans" font-size="10.00">Nif::Node::read</text>
</a>
</g>
</g>
<!-- Node1&#45;&gt;Node2 -->
<g id="edge1" class="edge"><title>Node1&#45;&gt;Node2</title>
<path fill="none" stroke="midnightblue" d="M85.3419,-53.053C111.46,-70.6503 154.469,-99.6283 180.906,-117.44"/>
<polygon fill="midnightblue" stroke="midnightblue" points="179.263,-120.553 189.512,-123.238 183.174,-114.748 179.263,-120.553"/>
</g>
<!-- Node7 -->
<g id="node7" class="node"><title>Node7</title>
<g id="a_node7"><a xlink:href="classNif_1_1RecordPtrT.html#a29b8d20a390329c7d5786939cc69273b" target="_top" xlink:title="Read the index from the nif. ">
<polygon fill="white" stroke="black" points="770.5,-180.5 770.5,-199.5 883.5,-199.5 883.5,-180.5 770.5,-180.5"/>
<text text-anchor="middle" x="827" y="-187.5" font-family="FreeSans" font-size="10.00">Nif::RecordPtrT::read</text>
</a>
</g>
</g>
<!-- Node1&#45;&gt;Node7 -->
<g id="edge17" class="edge"><title>Node1&#45;&gt;Node7</title>
<path fill="none" stroke="midnightblue" d="M124.152,-25.3993C183.22,-14.3379 275.34,-0 356,-0 356,-0 356,-0 538,-0 662.365,-0 774.436,-124.971 812.355,-172.207"/>
<polygon fill="midnightblue" stroke="midnightblue" points="809.807,-174.629 818.745,-180.317 815.305,-170.296 809.807,-174.629"/>
</g>
<!-- Node14 -->
<g id="node14" class="node"><title>Node14</title>
<g id="a_node14"><a xlink:href="classNif_1_1NIFStream.html#ac2ff4f85241ed39c84a9997c87ad8192" target="_top" xlink:title="Nif::NIFStream::getInt">
<polygon fill="white" stroke="black" points="297,-28.5 297,-47.5 417,-47.5 417,-28.5 297,-28.5"/>
<text text-anchor="middle" x="357" y="-35.5" font-family="FreeSans" font-size="10.00">Nif::NIFStream::getInt</text>
</a>
</g>
</g>
<!-- Node1&#45;&gt;Node14 -->
<g id="edge18" class="edge"><title>Node1&#45;&gt;Node14</title>
<path fill="none" stroke="midnightblue" d="M124.066,-38C171.352,-38 236.892,-38 286.243,-38"/>
<polygon fill="midnightblue" stroke="midnightblue" points="286.515,-41.5001 296.515,-38 286.515,-34.5001 286.515,-41.5001"/>
</g>
<!-- Node3 -->
<g id="node3" class="node"><title>Node3</title>
<g id="a_node3"><a xlink:href="classNif_1_1Named.html#aeb9607690d72fd76d198502dd7dc3d03" target="_top" xlink:title="Parses the record from file. ">
<polygon fill="white" stroke="black" points="308,-256.5 308,-275.5 406,-275.5 406,-256.5 308,-256.5"/>
<text text-anchor="middle" x="357" y="-263.5" font-family="FreeSans" font-size="10.00">Nif::Named::read</text>
</a>
</g>
</g>
<!-- Node2&#45;&gt;Node3 -->
<g id="edge2" class="edge"><title>Node2&#45;&gt;Node3</title>
<path fill="none" stroke="midnightblue" d="M209.983,-142.659C219.59,-164.726 246.221,-219.081 286,-247 289.754,-249.635 293.857,-251.904 298.133,-253.86"/>
<polygon fill="midnightblue" stroke="midnightblue" points="297.118,-257.222 307.704,-257.657 299.699,-250.716 297.118,-257.222"/>
</g>
<!-- Node8 -->
<g id="node8" class="node"><title>Node8</title>
<g id="a_node8"><a xlink:href="classNif_1_1NIFStream.html#a2986df675228d5744cbf465e00fb7af1" target="_top" xlink:title="Nif::NIFStream::getUShort">
<polygon fill="white" stroke="black" points="286,-218.5 286,-237.5 428,-237.5 428,-218.5 286,-218.5"/>
<text text-anchor="middle" x="357" y="-225.5" font-family="FreeSans" font-size="10.00">Nif::NIFStream::getUShort</text>
</a>
</g>
</g>
<!-- Node2&#45;&gt;Node8 -->
<g id="edge8" class="edge"><title>Node2&#45;&gt;Node8</title>
<path fill="none" stroke="midnightblue" d="M214.421,-142.604C228.07,-157.637 256.486,-186.783 286,-204 293.338,-208.281 301.555,-211.951 309.709,-215.041"/>
<polygon fill="midnightblue" stroke="midnightblue" points="308.599,-218.361 319.193,-218.403 310.938,-211.763 308.599,-218.361"/>
</g>
<!-- Node9 -->
<g id="node9" class="node"><title>Node9</title>
<g id="a_node9"><a xlink:href="classNif_1_1NIFStream.html#a2acc475ac542790af2f20a1efbf83d9b" target="_top" xlink:title="Nif::NIFStream::getTrafo">
<polygon fill="white" stroke="black" points="291.5,-142.5 291.5,-161.5 422.5,-161.5 422.5,-142.5 291.5,-142.5"/>
<text text-anchor="middle" x="357" y="-149.5" font-family="FreeSans" font-size="10.00">Nif::NIFStream::getTrafo</text>
</a>
</g>
</g>
<!-- Node2&#45;&gt;Node9 -->
<g id="edge9" class="edge"><title>Node2&#45;&gt;Node9</title>
<path fill="none" stroke="midnightblue" d="M249.789,-138.547C259.619,-139.792 270.319,-141.147 281.019,-142.502"/>
<polygon fill="midnightblue" stroke="midnightblue" points="280.888,-146.014 291.249,-143.798 281.768,-139.069 280.888,-146.014"/>
</g>
<!-- Node10 -->
<g id="node10" class="node"><title>Node10</title>
<g id="a_node10"><a xlink:href="classNif_1_1NIFStream.html#a1bb5b0fa3fa9c1ba8a4f1cfc2901b59e" target="_top" xlink:title="Nif::NIFStream::getVector3">
<polygon fill="white" stroke="black" points="464.5,-180.5 464.5,-199.5 609.5,-199.5 609.5,-180.5 464.5,-180.5"/>
<text text-anchor="middle" x="537" y="-187.5" font-family="FreeSans" font-size="10.00">Nif::NIFStream::getVector3</text>
</a>
</g>
</g>
<!-- Node2&#45;&gt;Node10 -->
<g id="edge13" class="edge"><title>Node2&#45;&gt;Node10</title>
<path fill="none" stroke="midnightblue" d="M221.576,-142.529C237.233,-151.585 262.372,-164.723 286,-171 340.904,-185.585 404.801,-190.237 454.254,-191.293"/>
<polygon fill="midnightblue" stroke="midnightblue" points="454.204,-194.793 464.261,-191.463 454.322,-187.794 454.204,-194.793"/>
</g>
<!-- Node11 -->
<g id="node11" class="node"><title>Node11</title>
<g id="a_node11"><a xlink:href="classNif_1_1NIFStream.html#ae7160009dfbb4bfd1fbf43a50d4ed40c" target="_top" xlink:title="Nif::NIFStream::getMatrix3">
<polygon fill="white" stroke="black" points="465.5,-104.5 465.5,-123.5 608.5,-123.5 608.5,-104.5 465.5,-104.5"/>
<text text-anchor="middle" x="537" y="-111.5" font-family="FreeSans" font-size="10.00">Nif::NIFStream::getMatrix3</text>
</a>
</g>
</g>
<!-- Node2&#45;&gt;Node11 -->
<g id="edge16" class="edge"><title>Node2&#45;&gt;Node11</title>
<path fill="none" stroke="midnightblue" d="M249.821,-130.477C302.078,-127.468 390.475,-122.379 455.226,-118.651"/>
<polygon fill="midnightblue" stroke="midnightblue" points="455.624,-122.134 465.406,-118.065 455.221,-115.145 455.624,-122.134"/>
</g>
<!-- Node13 -->
<g id="node13" class="node"><title>Node13</title>
<g id="a_node13"><a xlink:href="classNif_1_1RecordListT.html#aee5fb46679cd666711fc8a5183d65aff" target="_top" xlink:title="Nif::RecordListT::read">
<polygon fill="white" stroke="black" points="299,-66.5 299,-85.5 415,-85.5 415,-66.5 299,-66.5"/>
<text text-anchor="middle" x="357" y="-73.5" font-family="FreeSans" font-size="10.00">Nif::RecordListT::read</text>
</a>
</g>
</g>
<!-- Node2&#45;&gt;Node13 -->
<g id="edge14" class="edge"><title>Node2&#45;&gt;Node13</title>
<path fill="none" stroke="midnightblue" d="M228.269,-123.387C244.239,-116.598 266.32,-107.425 286,-100 296.111,-96.1853 307.135,-92.2863 317.381,-88.7703"/>
<polygon fill="midnightblue" stroke="midnightblue" points="318.568,-92.0635 326.91,-85.5318 316.315,-85.4357 318.568,-92.0635"/>
</g>
<!-- Node2&#45;&gt;Node14 -->
<g id="edge15" class="edge"><title>Node2&#45;&gt;Node14</title>
<path fill="none" stroke="midnightblue" d="M213.291,-123.499C226.18,-107.368 254.61,-74.6574 286,-57 289.934,-54.7871 294.139,-52.8214 298.461,-51.077"/>
<polygon fill="midnightblue" stroke="midnightblue" points="299.842,-54.2992 308.052,-47.6019 297.458,-47.7179 299.842,-54.2992"/>
</g>
<!-- Node4 -->
<g id="node4" class="node"><title>Node4</title>
<g id="a_node4"><a xlink:href="classNif_1_1NIFStream.html#a54ecca8e87497f8e867ea0785cd7f9f6" target="_top" xlink:title="Read in a string of the given length. ">
<polygon fill="white" stroke="black" points="468.5,-256.5 468.5,-275.5 605.5,-275.5 605.5,-256.5 468.5,-256.5"/>
<text text-anchor="middle" x="537" y="-263.5" font-family="FreeSans" font-size="10.00">Nif::NIFStream::getString</text>
</a>
</g>
</g>
<!-- Node3&#45;&gt;Node4 -->
<g id="edge3" class="edge"><title>Node3&#45;&gt;Node4</title>
<path fill="none" stroke="midnightblue" d="M406.169,-266C422.178,-266 440.437,-266 458.103,-266"/>
<polygon fill="midnightblue" stroke="midnightblue" points="458.414,-269.5 468.414,-266 458.414,-262.5 458.414,-269.5"/>
</g>
<!-- Node5 -->
<g id="node5" class="node"><title>Node5</title>
<g id="a_node5"><a xlink:href="classNif_1_1Controlled.html#a7f34607b366f17d8cf8527df9cf3511e" target="_top" xlink:title="Parses the record from file. ">
<polygon fill="white" stroke="black" points="481,-218.5 481,-237.5 593,-237.5 593,-218.5 481,-218.5"/>
<text text-anchor="middle" x="537" y="-225.5" font-family="FreeSans" font-size="10.00">Nif::Controlled::read</text>
</a>
</g>
</g>
<!-- Node3&#45;&gt;Node5 -->
<g id="edge4" class="edge"><title>Node3&#45;&gt;Node5</title>
<path fill="none" stroke="midnightblue" d="M402.917,-256.411C426.829,-251.306 456.421,-244.989 481.625,-239.608"/>
<polygon fill="midnightblue" stroke="midnightblue" points="482.357,-243.031 491.406,-237.52 480.896,-236.185 482.357,-243.031"/>
</g>
<!-- Node6 -->
<g id="node6" class="node"><title>Node6</title>
<g id="a_node6"><a xlink:href="classNif_1_1Extra.html#a3071adc83274bf50b018460e984ae5a0" target="_top" xlink:title="Parses the record from file. ">
<polygon fill="white" stroke="black" points="646,-218.5 646,-237.5 734,-237.5 734,-218.5 646,-218.5"/>
<text text-anchor="middle" x="690" y="-225.5" font-family="FreeSans" font-size="10.00">Nif::Extra::read</text>
</a>
</g>
</g>
<!-- Node5&#45;&gt;Node6 -->
<g id="edge5" class="edge"><title>Node5&#45;&gt;Node6</title>
<path fill="none" stroke="midnightblue" d="M593.369,-228C607.187,-228 621.974,-228 635.689,-228"/>
<polygon fill="midnightblue" stroke="midnightblue" points="635.935,-231.5 645.935,-228 635.935,-224.5 635.935,-231.5"/>
</g>
<!-- Node5&#45;&gt;Node7 -->
<g id="edge7" class="edge"><title>Node5&#45;&gt;Node7</title>
<path fill="none" stroke="midnightblue" d="M587.892,-218.482C606.132,-215.199 626.959,-211.677 646,-209 683.648,-203.708 725.913,-199.174 760.024,-195.864"/>
<polygon fill="midnightblue" stroke="midnightblue" points="760.713,-199.314 770.334,-194.877 760.046,-192.346 760.713,-199.314"/>
</g>
<!-- Node6&#45;&gt;Node7 -->
<g id="edge6" class="edge"><title>Node6&#45;&gt;Node7</title>
<path fill="none" stroke="midnightblue" d="M725.066,-218.411C742.413,-213.528 763.702,-207.536 782.249,-202.315"/>
<polygon fill="midnightblue" stroke="midnightblue" points="783.267,-205.665 791.945,-199.586 781.37,-198.926 783.267,-205.665"/>
</g>
<!-- Node9&#45;&gt;Node10 -->
<g id="edge10" class="edge"><title>Node9&#45;&gt;Node10</title>
<path fill="none" stroke="midnightblue" d="M402.917,-161.589C426.829,-166.694 456.421,-173.011 481.625,-178.392"/>
<polygon fill="midnightblue" stroke="midnightblue" points="480.896,-181.815 491.406,-180.48 482.357,-174.969 480.896,-181.815"/>
</g>
<!-- Node9&#45;&gt;Node11 -->
<g id="edge11" class="edge"><title>Node9&#45;&gt;Node11</title>
<path fill="none" stroke="midnightblue" d="M402.917,-142.411C426.829,-137.306 456.421,-130.989 481.625,-125.608"/>
<polygon fill="midnightblue" stroke="midnightblue" points="482.357,-129.031 491.406,-123.52 480.896,-122.185 482.357,-129.031"/>
</g>
<!-- Node12 -->
<g id="node12" class="node"><title>Node12</title>
<g id="a_node12"><a xlink:href="classNif_1_1NIFStream.html#a2ab9619cfc563d721b267748e6805800" target="_top" xlink:title="Nif::NIFStream::getFloat">
<polygon fill="white" stroke="black" points="471.5,-142.5 471.5,-161.5 602.5,-161.5 602.5,-142.5 471.5,-142.5"/>
<text text-anchor="middle" x="537" y="-149.5" font-family="FreeSans" font-size="10.00">Nif::NIFStream::getFloat</text>
</a>
</g>
</g>
<!-- Node9&#45;&gt;Node12 -->
<g id="edge12" class="edge"><title>Node9&#45;&gt;Node12</title>
<path fill="none" stroke="midnightblue" d="M422.514,-152C435.075,-152 448.341,-152 461.202,-152"/>
<polygon fill="midnightblue" stroke="midnightblue" points="461.408,-155.5 471.408,-152 461.408,-148.5 461.408,-155.5"/>
</g>
</g>
</svg>
