<?xml version="1.0" encoding="UTF-8" standalone="no"?>
<!DOCTYPE svg PUBLIC "-//W3C//DTD SVG 1.1//EN"
 "http://www.w3.org/Graphics/SVG/1.1/DTD/svg11.dtd">
<!-- Generated by graphviz version 2.36.0 (20140111.2315)
 -->
<!-- Title: /home/travis/build/OpenMW/openmw/apps/openmw/mwphysics/trace.cpp Pages: 1 -->
<svg width="1741pt" height="466pt"
 viewBox="0.00 0.00 1741.00 466.00" xmlns="http://www.w3.org/2000/svg" xmlns:xlink="http://www.w3.org/1999/xlink">
<g id="graph0" class="graph" transform="scale(1 1) rotate(0) translate(4 462)">
<title>/home/travis/build/OpenMW/openmw/apps/openmw/mwphysics/trace.cpp</title>
<polygon fill="white" stroke="none" points="-4,4 -4,-462 1737,-462 1737,4 -4,4"/>
<!-- Node1 -->
<g id="node1" class="node"><title>Node1</title>
<polygon fill="#bfbfbf" stroke="black" points="948.5,-416.5 948.5,-457.5 1111.5,-457.5 1111.5,-416.5 948.5,-416.5"/>
<text text-anchor="start" x="956.5" y="-445.5" font-family="FreeSans" font-size="10.00">/home/travis/build</text>
<text text-anchor="start" x="956.5" y="-434.5" font-family="FreeSans" font-size="10.00">/OpenMW/openmw/apps</text>
<text text-anchor="middle" x="1030" y="-423.5" font-family="FreeSans" font-size="10.00">/openmw/mwphysics/trace.cpp</text>
</g>
<!-- Node2 -->
<g id="node2" class="node"><title>Node2</title>
<g id="a_node2"><a xlink:href="trace_8h.html" target="_top" xlink:title="trace.h">
<polygon fill="white" stroke="black" points="1158,-236.5 1158,-255.5 1208,-255.5 1208,-236.5 1158,-236.5"/>
<text text-anchor="middle" x="1183" y="-243.5" font-family="FreeSans" font-size="10.00">trace.h</text>
</a>
</g>
</g>
<!-- Node1&#45;&gt;Node2 -->
<g id="edge1" class="edge"><title>Node1&#45;&gt;Node2</title>
<path fill="none" stroke="midnightblue" d="M1111.75,-430.546C1183.79,-423.835 1280.92,-409.479 1305,-380 1342.55,-334.028 1257.71,-283.261 1211.06,-259.972"/>
<polygon fill="midnightblue" stroke="midnightblue" points="1212.54,-256.798 1202.02,-255.56 1209.47,-263.089 1212.54,-256.798"/>
</g>
<!-- Node4 -->
<g id="node4" class="node"><title>Node4</title>
<polygon fill="white" stroke="#bfbfbf" points="660,-354.5 660,-373.5 698,-373.5 698,-354.5 660,-354.5"/>
<text text-anchor="middle" x="679" y="-361.5" font-family="FreeSans" font-size="10.00">map</text>
</g>
<!-- Node1&#45;&gt;Node4 -->
<g id="edge3" class="edge"><title>Node1&#45;&gt;Node4</title>
<path fill="none" stroke="midnightblue" d="M948.229,-429.12C881.828,-421.815 786.504,-407.387 707,-380 705.351,-379.432 703.682,-378.775 702.024,-378.061"/>
<polygon fill="midnightblue" stroke="midnightblue" points="703.363,-374.819 692.845,-373.546 700.273,-381.1 703.363,-374.819"/>
</g>
<!-- Node5 -->
<g id="node5" class="node"><title>Node5</title>
<polygon fill="white" stroke="#bfbfbf" points="716.5,-349 716.5,-379 861.5,-379 861.5,-349 716.5,-349"/>
<text text-anchor="start" x="724.5" y="-367" font-family="FreeSans" font-size="10.00">BulletCollision/Collision</text>
<text text-anchor="middle" x="789" y="-356" font-family="FreeSans" font-size="10.00">Dispatch/btCollisionWorld.h</text>
</g>
<!-- Node1&#45;&gt;Node5 -->
<g id="edge4" class="edge"><title>Node1&#45;&gt;Node5</title>
<path fill="none" stroke="midnightblue" d="M963.508,-416.411C926.703,-405.568 881.423,-392.228 846.21,-381.855"/>
<polygon fill="midnightblue" stroke="midnightblue" points="847.143,-378.48 836.561,-379.012 845.164,-385.195 847.143,-378.48"/>
</g>
<!-- Node6 -->
<g id="node6" class="node"><title>Node6</title>
<polygon fill="white" stroke="#bfbfbf" points="880,-349 880,-379 1020,-379 1020,-349 880,-349"/>
<text text-anchor="start" x="888" y="-367" font-family="FreeSans" font-size="10.00">BulletCollision/Collision</text>
<text text-anchor="middle" x="950" y="-356" font-family="FreeSans" font-size="10.00">Shapes/btConvexShape.h</text>
</g>
<!-- Node1&#45;&gt;Node6 -->
<g id="edge5" class="edge"><title>Node1&#45;&gt;Node6</title>
<path fill="none" stroke="midnightblue" d="M1007.72,-416.223C997.001,-406.713 984.161,-395.318 973.315,-385.692"/>
<polygon fill="midnightblue" stroke="midnightblue" points="975.632,-383.069 965.829,-379.049 970.985,-388.304 975.632,-383.069"/>
</g>
<!-- Node7 -->
<g id="node7" class="node"><title>Node7</title>
<polygon fill="white" stroke="#bfbfbf" points="1038.5,-349 1038.5,-379 1181.5,-379 1181.5,-349 1038.5,-349"/>
<text text-anchor="start" x="1046.5" y="-367" font-family="FreeSans" font-size="10.00">BulletCollision/Collision</text>
<text text-anchor="middle" x="1110" y="-356" font-family="FreeSans" font-size="10.00">Shapes/btCylinderShape.h</text>
</g>
<!-- Node1&#45;&gt;Node7 -->
<g id="edge6" class="edge"><title>Node1&#45;&gt;Node7</title>
<path fill="none" stroke="midnightblue" d="M1052.28,-416.223C1063,-406.713 1075.84,-395.318 1086.68,-385.692"/>
<polygon fill="midnightblue" stroke="midnightblue" points="1089.01,-388.304 1094.17,-379.049 1084.37,-383.069 1089.01,-388.304"/>
</g>
<!-- Node8 -->
<g id="node8" class="node"><title>Node8</title>
<g id="a_node8"><a xlink:href="collisiontype_8hpp.html" target="_top" xlink:title="collisiontype.hpp">
<polygon fill="white" stroke="black" points="1200,-354.5 1200,-373.5 1296,-373.5 1296,-354.5 1200,-354.5"/>
<text text-anchor="middle" x="1248" y="-361.5" font-family="FreeSans" font-size="10.00">collisiontype.hpp</text>
</a>
</g>
</g>
<!-- Node1&#45;&gt;Node8 -->
<g id="edge7" class="edge"><title>Node1&#45;&gt;Node8</title>
<path fill="none" stroke="midnightblue" d="M1090.15,-416.411C1129.32,-403.652 1179.11,-387.436 1212.19,-376.663"/>
<polygon fill="midnightblue" stroke="midnightblue" points="1213.46,-379.929 1221.89,-373.504 1211.3,-373.273 1213.46,-379.929"/>
</g>
<!-- Node9 -->
<g id="node9" class="node"><title>Node9</title>
<g id="a_node9"><a xlink:href="mwphysics_2actor_8hpp.html" target="_top" xlink:title="actor.hpp">
<polygon fill="white" stroke="black" points="580,-354.5 580,-373.5 642,-373.5 642,-354.5 580,-354.5"/>
<text text-anchor="middle" x="611" y="-361.5" font-family="FreeSans" font-size="10.00">actor.hpp</text>
</a>
</g>
</g>
<!-- Node1&#45;&gt;Node9 -->
<g id="edge8" class="edge"><title>Node1&#45;&gt;Node9</title>
<path fill="none" stroke="midnightblue" d="M948.42,-428.993C870.986,-421.162 751.786,-406.029 651,-380 647.769,-379.165 644.437,-378.161 641.141,-377.072"/>
<polygon fill="midnightblue" stroke="midnightblue" points="642.087,-373.693 631.492,-373.636 639.739,-380.288 642.087,-373.693"/>
</g>
<!-- Node29 -->
<g id="node29" class="node"><title>Node29</title>
<g id="a_node29"><a xlink:href="convert_8hpp.html" target="_top" xlink:title="convert.hpp">
<polygon fill="white" stroke="black" points="1377,-354.5 1377,-373.5 1451,-373.5 1451,-354.5 1377,-354.5"/>
<text text-anchor="middle" x="1414" y="-361.5" font-family="FreeSans" font-size="10.00">convert.hpp</text>
</a>
</g>
</g>
<!-- Node1&#45;&gt;Node29 -->
<g id="edge37" class="edge"><title>Node1&#45;&gt;Node29</title>
<path fill="none" stroke="midnightblue" d="M1111.77,-421.477C1173.88,-410.364 1261.37,-394.527 1338,-380 1347.41,-378.215 1357.48,-376.262 1367.09,-374.372"/>
<polygon fill="midnightblue" stroke="midnightblue" points="1367.78,-377.805 1376.91,-372.436 1366.42,-370.937 1367.78,-377.805"/>
</g>
<!-- Node3 -->
<g id="node3" class="node"><title>Node3</title>
<polygon fill="white" stroke="#bfbfbf" points="690.5,-0.5 690.5,-19.5 753.5,-19.5 753.5,-0.5 690.5,-0.5"/>
<text text-anchor="middle" x="722" y="-7.5" font-family="FreeSans" font-size="10.00">osg/Vec3f</text>
</g>
<!-- Node2&#45;&gt;Node3 -->
<g id="edge2" class="edge"><title>Node2&#45;&gt;Node3</title>
<path fill="none" stroke="midnightblue" d="M1166.05,-236.394C1096.44,-201.064 832.338,-67.0068 748.033,-24.214"/>
<polygon fill="midnightblue" stroke="midnightblue" points="749.609,-21.0893 739.108,-19.6839 746.441,-27.3312 749.609,-21.0893"/>
</g>
<!-- Node9&#45;&gt;Node3 -->
<g id="edge34" class="edge"><title>Node9&#45;&gt;Node3</title>
<path fill="none" stroke="midnightblue" d="M634.723,-354.366C654.168,-346.183 681.139,-332.135 698,-312 717.771,-288.39 722,-277.795 722,-247 722,-247 722,-247 722,-133 722,-96.4139 722,-53.6562 722,-29.7123"/>
<polygon fill="midnightblue" stroke="midnightblue" points="725.5,-29.5788 722,-19.5789 718.5,-29.5789 725.5,-29.5788"/>
</g>
<!-- Node10 -->
<g id="node10" class="node"><title>Node10</title>
<polygon fill="white" stroke="#bfbfbf" points="632.5,-292.5 632.5,-311.5 689.5,-311.5 689.5,-292.5 632.5,-292.5"/>
<text text-anchor="middle" x="661" y="-299.5" font-family="FreeSans" font-size="10.00">memory</text>
</g>
<!-- Node9&#45;&gt;Node10 -->
<g id="edge9" class="edge"><title>Node9&#45;&gt;Node10</title>
<path fill="none" stroke="midnightblue" d="M618.164,-354.403C625.738,-345.314 637.87,-330.756 647.293,-319.449"/>
<polygon fill="midnightblue" stroke="midnightblue" points="650.136,-321.503 653.85,-311.581 644.759,-317.022 650.136,-321.503"/>
</g>
<!-- Node11 -->
<g id="node11" class="node"><title>Node11</title>
<g id="a_node11"><a xlink:href="ptr_8hpp.html" target="_top" xlink:title="../mwworld/ptr.hpp">
<polygon fill="white" stroke="black" points="510,-292.5 510,-311.5 614,-311.5 614,-292.5 510,-292.5"/>
<text text-anchor="middle" x="562" y="-299.5" font-family="FreeSans" font-size="10.00">../mwworld/ptr.hpp</text>
</a>
</g>
</g>
<!-- Node9&#45;&gt;Node11 -->
<g id="edge10" class="edge"><title>Node9&#45;&gt;Node11</title>
<path fill="none" stroke="midnightblue" d="M603.979,-354.403C596.557,-345.314 584.667,-330.756 575.433,-319.449"/>
<polygon fill="midnightblue" stroke="midnightblue" points="578.044,-317.112 569.007,-311.581 572.622,-321.54 578.044,-317.112"/>
</g>
<!-- Node27 -->
<g id="node27" class="node"><title>Node27</title>
<polygon fill="white" stroke="#bfbfbf" points="1326,-292.5 1326,-311.5 1386,-311.5 1386,-292.5 1326,-292.5"/>
<text text-anchor="middle" x="1356" y="-299.5" font-family="FreeSans" font-size="10.00">osg/Quat</text>
</g>
<!-- Node9&#45;&gt;Node27 -->
<g id="edge35" class="edge"><title>Node9&#45;&gt;Node27</title>
<path fill="none" stroke="midnightblue" d="M630.185,-354.496C636.673,-351.976 644.038,-349.493 651,-348 779.303,-320.484 1185.69,-307.527 1315.63,-304.015"/>
<polygon fill="midnightblue" stroke="midnightblue" points="1316.02,-307.506 1325.92,-303.741 1315.83,-300.509 1316.02,-307.506"/>
</g>
<!-- Node28 -->
<g id="node28" class="node"><title>Node28</title>
<polygon fill="white" stroke="#bfbfbf" points="750,-292.5 750,-311.5 818,-311.5 818,-292.5 750,-292.5"/>
<text text-anchor="middle" x="784" y="-299.5" font-family="FreeSans" font-size="10.00">osg/ref_ptr</text>
</g>
<!-- Node9&#45;&gt;Node28 -->
<g id="edge36" class="edge"><title>Node9&#45;&gt;Node28</title>
<path fill="none" stroke="midnightblue" d="M633.378,-354.462C639.109,-352.316 645.272,-350.043 651,-348 683.778,-336.312 721.36,-323.666 748.193,-314.764"/>
<polygon fill="midnightblue" stroke="midnightblue" points="749.525,-318.011 757.919,-311.546 747.326,-311.365 749.525,-318.011"/>
</g>
<!-- Node12 -->
<g id="node12" class="node"><title>Node12</title>
<polygon fill="white" stroke="#bfbfbf" points="642,-236.5 642,-255.5 694,-255.5 694,-236.5 642,-236.5"/>
<text text-anchor="middle" x="668" y="-243.5" font-family="FreeSans" font-size="10.00">cassert</text>
</g>
<!-- Node11&#45;&gt;Node12 -->
<g id="edge11" class="edge"><title>Node11&#45;&gt;Node12</title>
<path fill="none" stroke="midnightblue" d="M579.031,-292.324C596.03,-283.664 622.376,-270.242 641.993,-260.249"/>
<polygon fill="midnightblue" stroke="midnightblue" points="643.69,-263.312 651.012,-255.655 640.512,-257.075 643.69,-263.312"/>
</g>
<!-- Node13 -->
<g id="node13" class="node"><title>Node13</title>
<polygon fill="white" stroke="#bfbfbf" points="506,-62.5 506,-81.5 550,-81.5 550,-62.5 506,-62.5"/>
<text text-anchor="middle" x="528" y="-69.5" font-family="FreeSans" font-size="10.00">string</text>
</g>
<!-- Node11&#45;&gt;Node13 -->
<g id="edge12" class="edge"><title>Node11&#45;&gt;Node13</title>
<path fill="none" stroke="midnightblue" d="M570.751,-292.286C578.563,-283.84 589.451,-270.246 594,-256 596.704,-247.532 594.707,-244.861 594,-236 589.975,-185.595 596.626,-169.221 574,-124 567.247,-110.504 555.928,-97.8874 546.209,-88.5791"/>
<polygon fill="midnightblue" stroke="midnightblue" points="548.3,-85.7494 538.555,-81.5915 543.58,-90.9189 548.3,-85.7494"/>
</g>
<!-- Node14 -->
<g id="node14" class="node"><title>Node14</title>
<polygon fill="white" stroke="#bfbfbf" points="530,-236.5 530,-255.5 586,-255.5 586,-236.5 530,-236.5"/>
<text text-anchor="middle" x="558" y="-243.5" font-family="FreeSans" font-size="10.00">sstream</text>
</g>
<!-- Node11&#45;&gt;Node14 -->
<g id="edge13" class="edge"><title>Node11&#45;&gt;Node14</title>
<path fill="none" stroke="midnightblue" d="M561.339,-292.083C560.815,-285.006 560.064,-274.861 559.406,-265.986"/>
<polygon fill="midnightblue" stroke="midnightblue" points="562.877,-265.465 558.648,-255.751 555.897,-265.982 562.877,-265.465"/>
</g>
<!-- Node15 -->
<g id="node15" class="node"><title>Node15</title>
<g id="a_node15"><a xlink:href="livecellref_8hpp.html" target="_top" xlink:title="livecellref.hpp">
<polygon fill="white" stroke="black" points="430.5,-236.5 430.5,-255.5 511.5,-255.5 511.5,-236.5 430.5,-236.5"/>
<text text-anchor="middle" x="471" y="-243.5" font-family="FreeSans" font-size="10.00">livecellref.hpp</text>
</a>
</g>
</g>
<!-- Node11&#45;&gt;Node15 -->
<g id="edge14" class="edge"><title>Node11&#45;&gt;Node15</title>
<path fill="none" stroke="midnightblue" d="M547.379,-292.324C533.051,-283.822 510.987,-270.729 494.251,-260.797"/>
<polygon fill="midnightblue" stroke="midnightblue" points="495.97,-257.748 485.584,-255.655 492.398,-263.768 495.97,-257.748"/>
</g>
<!-- Node16 -->
<g id="node16" class="node"><title>Node16</title>
<polygon fill="white" stroke="#bfbfbf" points="521.5,-180.5 521.5,-199.5 576.5,-199.5 576.5,-180.5 521.5,-180.5"/>
<text text-anchor="middle" x="549" y="-187.5" font-family="FreeSans" font-size="10.00">typeinfo</text>
</g>
<!-- Node15&#45;&gt;Node16 -->
<g id="edge15" class="edge"><title>Node15&#45;&gt;Node16</title>
<path fill="none" stroke="midnightblue" d="M483.532,-236.324C495.586,-227.979 514.027,-215.212 528.269,-205.352"/>
<polygon fill="midnightblue" stroke="midnightblue" points="530.269,-208.224 536.499,-199.655 526.285,-202.469 530.269,-208.224"/>
</g>
<!-- Node17 -->
<g id="node17" class="node"><title>Node17</title>
<g id="a_node17"><a xlink:href="apps_2openmw_2mwworld_2cellref_8hpp.html" target="_top" xlink:title="cellref.hpp">
<polygon fill="white" stroke="black" points="438.5,-180.5 438.5,-199.5 503.5,-199.5 503.5,-180.5 438.5,-180.5"/>
<text text-anchor="middle" x="471" y="-187.5" font-family="FreeSans" font-size="10.00">cellref.hpp</text>
</a>
</g>
</g>
<!-- Node15&#45;&gt;Node17 -->
<g id="edge16" class="edge"><title>Node15&#45;&gt;Node17</title>
<path fill="none" stroke="midnightblue" d="M471,-236.083C471,-229.006 471,-218.861 471,-209.986"/>
<polygon fill="midnightblue" stroke="midnightblue" points="474.5,-209.751 471,-199.751 467.5,-209.751 474.5,-209.751"/>
</g>
<!-- Node21 -->
<g id="node21" class="node"><title>Node21</title>
<g id="a_node21"><a xlink:href="refdata_8hpp.html" target="_top" xlink:title="refdata.hpp">
<polygon fill="white" stroke="black" points="340,-180.5 340,-199.5 412,-199.5 412,-180.5 340,-180.5"/>
<text text-anchor="middle" x="376" y="-187.5" font-family="FreeSans" font-size="10.00">refdata.hpp</text>
</a>
</g>
</g>
<!-- Node15&#45;&gt;Node21 -->
<g id="edge22" class="edge"><title>Node15&#45;&gt;Node21</title>
<path fill="none" stroke="midnightblue" d="M455.737,-236.324C440.779,-227.822 417.745,-214.729 400.273,-204.797"/>
<polygon fill="midnightblue" stroke="midnightblue" points="401.649,-201.553 391.226,-199.655 398.19,-207.639 401.649,-201.553"/>
</g>
<!-- Node18 -->
<g id="node18" class="node"><title>Node18</title>
<g id="a_node18"><a xlink:href="components_2esm_2cellref_8hpp.html" target="_top" xlink:title="components/esm/cellref.hpp">
<polygon fill="white" stroke="black" points="396,-124.5 396,-143.5 548,-143.5 548,-124.5 396,-124.5"/>
<text text-anchor="middle" x="472" y="-131.5" font-family="FreeSans" font-size="10.00">components/esm/cellref.hpp</text>
</a>
</g>
</g>
<!-- Node17&#45;&gt;Node18 -->
<g id="edge17" class="edge"><title>Node17&#45;&gt;Node18</title>
<path fill="none" stroke="midnightblue" d="M471.165,-180.083C471.296,-173.006 471.484,-162.861 471.648,-153.986"/>
<polygon fill="midnightblue" stroke="midnightblue" points="475.152,-153.814 471.838,-143.751 468.153,-153.685 475.152,-153.814"/>
</g>
<!-- Node18&#45;&gt;Node13 -->
<g id="edge18" class="edge"><title>Node18&#45;&gt;Node13</title>
<path fill="none" stroke="midnightblue" d="M480.023,-124.403C488.59,-115.225 502.361,-100.47 512.957,-89.1173"/>
<polygon fill="midnightblue" stroke="midnightblue" points="515.727,-91.2793 519.991,-81.5806 510.61,-86.503 515.727,-91.2793"/>
</g>
<!-- Node19 -->
<g id="node19" class="node"><title>Node19</title>
<g id="a_node19"><a xlink:href="esm_2defs_8hpp.html" target="_top" xlink:title="defs.hpp">
<polygon fill="white" stroke="black" points="413,-62.5 413,-81.5 471,-81.5 471,-62.5 413,-62.5"/>
<text text-anchor="middle" x="442" y="-69.5" font-family="FreeSans" font-size="10.00">defs.hpp</text>
</a>
</g>
</g>
<!-- Node18&#45;&gt;Node19 -->
<g id="edge19" class="edge"><title>Node18&#45;&gt;Node19</title>
<path fill="none" stroke="midnightblue" d="M467.702,-124.403C463.335,-115.671 456.445,-101.889 450.897,-90.7936"/>
<polygon fill="midnightblue" stroke="midnightblue" points="453.893,-88.9596 446.29,-81.5806 447.632,-92.0901 453.893,-88.9596"/>
</g>
<!-- Node19&#45;&gt;Node3 -->
<g id="edge21" class="edge"><title>Node19&#45;&gt;Node3</title>
<path fill="none" stroke="midnightblue" d="M471.019,-62.6842C479.375,-60.3989 488.523,-58.0011 497,-56 560.485,-41.0133 634.809,-26.7878 680.134,-18.4812"/>
<polygon fill="midnightblue" stroke="midnightblue" points="680.968,-21.8868 690.178,-16.6502 679.713,-15.0003 680.968,-21.8868"/>
</g>
<!-- Node20 -->
<g id="node20" class="node"><title>Node20</title>
<polygon fill="white" stroke="#bfbfbf" points="354.5,-0.5 354.5,-19.5 407.5,-19.5 407.5,-0.5 354.5,-0.5"/>
<text text-anchor="middle" x="381" y="-7.5" font-family="FreeSans" font-size="10.00">stdint.h</text>
</g>
<!-- Node19&#45;&gt;Node20 -->
<g id="edge20" class="edge"><title>Node19&#45;&gt;Node20</title>
<path fill="none" stroke="midnightblue" d="M433.26,-62.4035C423.838,-53.1361 408.636,-38.1828 397.051,-26.7876"/>
<polygon fill="midnightblue" stroke="midnightblue" points="399.307,-24.0978 389.724,-19.5806 394.399,-29.0883 399.307,-24.0978"/>
</g>
<!-- Node21&#45;&gt;Node3 -->
<g id="edge33" class="edge"><title>Node21&#45;&gt;Node3</title>
<path fill="none" stroke="midnightblue" d="M412.06,-181.831C465.173,-171.116 559.717,-151.395 574,-144 631.826,-114.059 684.737,-56.1009 708.619,-27.6187"/>
<polygon fill="midnightblue" stroke="midnightblue" points="711.412,-29.7322 715.072,-19.7894 706.01,-25.2801 711.412,-29.7322"/>
</g>
<!-- Node21&#45;&gt;Node13 -->
<g id="edge32" class="edge"><title>Node21&#45;&gt;Node13</title>
<path fill="none" stroke="midnightblue" d="M412.012,-182.492C462.188,-173.063 548.025,-155.479 557,-144 569.87,-127.538 556.062,-104.577 543.448,-89.2715"/>
<polygon fill="midnightblue" stroke="midnightblue" points="545.973,-86.8428 536.741,-81.6462 540.718,-91.4663 545.973,-86.8428"/>
</g>
<!-- Node21&#45;&gt;Node19 -->
<g id="edge23" class="edge"><title>Node21&#45;&gt;Node19</title>
<path fill="none" stroke="midnightblue" d="M375.744,-180.44C375.716,-167.448 377.098,-142.326 387,-124 394.87,-109.434 408.489,-96.7568 420.205,-87.6851"/>
<polygon fill="midnightblue" stroke="midnightblue" points="422.307,-90.4843 428.291,-81.7413 418.161,-84.8443 422.307,-90.4843"/>
</g>
<!-- Node22 -->
<g id="node22" class="node"><title>Node22</title>
<g id="a_node22"><a xlink:href="animationstate_8hpp.html" target="_top" xlink:title="components/esm/animationstate.hpp">
<polygon fill="white" stroke="black" points="142.5,-124.5 142.5,-143.5 339.5,-143.5 339.5,-124.5 142.5,-124.5"/>
<text text-anchor="middle" x="241" y="-131.5" font-family="FreeSans" font-size="10.00">components/esm/animationstate.hpp</text>
</a>
</g>
</g>
<!-- Node21&#45;&gt;Node22 -->
<g id="edge24" class="edge"><title>Node21&#45;&gt;Node22</title>
<path fill="none" stroke="midnightblue" d="M354.609,-180.444C332.293,-171.517 297.097,-157.439 271.792,-147.317"/>
<polygon fill="midnightblue" stroke="midnightblue" points="272.876,-143.981 262.291,-143.516 270.276,-150.48 272.876,-143.981"/>
</g>
<!-- Node24 -->
<g id="node24" class="node"><title>Node24</title>
<g id="a_node24"><a xlink:href="apps_2openmw_2mwscript_2locals_8hpp.html" target="_top" xlink:title="../mwscript/locals.hpp">
<polygon fill="white" stroke="black" points="5.5,-124.5 5.5,-143.5 124.5,-143.5 124.5,-124.5 5.5,-124.5"/>
<text text-anchor="middle" x="65" y="-131.5" font-family="FreeSans" font-size="10.00">../mwscript/locals.hpp</text>
</a>
</g>
</g>
<!-- Node21&#45;&gt;Node24 -->
<g id="edge28" class="edge"><title>Node21&#45;&gt;Node24</title>
<path fill="none" stroke="midnightblue" d="M339.716,-182.7C286.711,-173.496 187.52,-156.274 123.952,-145.236"/>
<polygon fill="midnightblue" stroke="midnightblue" points="124.519,-141.782 114.068,-143.52 123.322,-148.679 124.519,-141.782"/>
</g>
<!-- Node22&#45;&gt;Node13 -->
<g id="edge25" class="edge"><title>Node22&#45;&gt;Node13</title>
<path fill="none" stroke="midnightblue" d="M295.245,-124.495C343.724,-116.479 416.535,-103.416 479,-88 484.506,-86.641 490.309,-85.0287 495.919,-83.3734"/>
<polygon fill="midnightblue" stroke="midnightblue" points="497.156,-86.6553 505.702,-80.3932 495.117,-79.9591 497.156,-86.6553"/>
</g>
<!-- Node22&#45;&gt;Node20 -->
<g id="edge27" class="edge"><title>Node22&#45;&gt;Node20</title>
<path fill="none" stroke="midnightblue" d="M251.068,-124.226C274.579,-103.739 333.346,-52.5266 363.116,-26.5844"/>
<polygon fill="midnightblue" stroke="midnightblue" points="365.783,-28.9029 371.023,-19.6944 361.184,-23.6256 365.783,-28.9029"/>
</g>
<!-- Node23 -->
<g id="node23" class="node"><title>Node23</title>
<polygon fill="white" stroke="#bfbfbf" points="183.5,-62.5 183.5,-81.5 230.5,-81.5 230.5,-62.5 183.5,-62.5"/>
<text text-anchor="middle" x="207" y="-69.5" font-family="FreeSans" font-size="10.00">vector</text>
</g>
<!-- Node22&#45;&gt;Node23 -->
<g id="edge26" class="edge"><title>Node22&#45;&gt;Node23</title>
<path fill="none" stroke="midnightblue" d="M236.129,-124.403C231.13,-115.582 223.211,-101.608 216.891,-90.4548"/>
<polygon fill="midnightblue" stroke="midnightblue" points="219.838,-88.5553 211.862,-81.5806 213.747,-92.0064 219.838,-88.5553"/>
</g>
<!-- Node24&#45;&gt;Node23 -->
<g id="edge29" class="edge"><title>Node24&#45;&gt;Node23</title>
<path fill="none" stroke="midnightblue" d="M85.3451,-124.403C109.387,-114.245 149.597,-97.2547 177.163,-85.6074"/>
<polygon fill="midnightblue" stroke="midnightblue" points="178.843,-88.6968 186.693,-81.5806 176.119,-82.2488 178.843,-88.6968"/>
</g>
<!-- Node25 -->
<g id="node25" class="node"><title>Node25</title>
<g id="a_node25"><a xlink:href="types_8hpp.html" target="_top" xlink:title="components/interpreter\l/types.hpp">
<polygon fill="white" stroke="black" points="-0.5,-57 -0.5,-87 130.5,-87 130.5,-57 -0.5,-57"/>
<text text-anchor="start" x="7.5" y="-75" font-family="FreeSans" font-size="10.00">components/interpreter</text>
<text text-anchor="middle" x="65" y="-64" font-family="FreeSans" font-size="10.00">/types.hpp</text>
</a>
</g>
</g>
<!-- Node24&#45;&gt;Node25 -->
<g id="edge30" class="edge"><title>Node24&#45;&gt;Node25</title>
<path fill="none" stroke="midnightblue" d="M65,-124.403C65,-117.341 65,-106.975 65,-97.399"/>
<polygon fill="midnightblue" stroke="midnightblue" points="68.5001,-97.1408 65,-87.1408 61.5001,-97.1408 68.5001,-97.1408"/>
</g>
<!-- Node26 -->
<g id="node26" class="node"><title>Node26</title>
<polygon fill="white" stroke="#bfbfbf" points="33,-0.5 33,-19.5 97,-19.5 97,-0.5 33,-0.5"/>
<text text-anchor="middle" x="65" y="-7.5" font-family="FreeSans" font-size="10.00">stdexcept</text>
</g>
<!-- Node25&#45;&gt;Node26 -->
<g id="edge31" class="edge"><title>Node25&#45;&gt;Node26</title>
<path fill="none" stroke="midnightblue" d="M65,-56.7808C65,-48.7812 65,-38.6887 65,-30.0168"/>
<polygon fill="midnightblue" stroke="midnightblue" points="68.5001,-29.7305 65,-19.7305 61.5001,-29.7306 68.5001,-29.7305"/>
</g>
<!-- Node29&#45;&gt;Node3 -->
<g id="edge40" class="edge"><title>Node29&#45;&gt;Node3</title>
<path fill="none" stroke="midnightblue" d="M1414,-354.269C1414,-334.941 1414,-287.076 1414,-247 1414,-247 1414,-247 1414,-133 1414,-66.5836 913.233,-24.8795 763.681,-13.9057"/>
<polygon fill="midnightblue" stroke="midnightblue" points="763.759,-10.4022 753.532,-13.1688 763.252,-17.3839 763.759,-10.4022"/>
</g>
<!-- Node29&#45;&gt;Node27 -->
<g id="edge41" class="edge"><title>Node29&#45;&gt;Node27</title>
<path fill="none" stroke="midnightblue" d="M1405.69,-354.403C1396.73,-345.136 1382.28,-330.183 1371.26,-318.788"/>
<polygon fill="midnightblue" stroke="midnightblue" points="1373.76,-316.338 1364.29,-311.581 1368.73,-321.203 1373.76,-316.338"/>
</g>
<!-- Node30 -->
<g id="node30" class="node"><title>Node30</title>
<polygon fill="white" stroke="#bfbfbf" points="1442,-292.5 1442,-311.5 1570,-311.5 1570,-292.5 1442,-292.5"/>
<text text-anchor="middle" x="1506" y="-299.5" font-family="FreeSans" font-size="10.00">LinearMath/btVector3.h</text>
</g>
<!-- Node29&#45;&gt;Node30 -->
<g id="edge38" class="edge"><title>Node29&#45;&gt;Node30</title>
<path fill="none" stroke="midnightblue" d="M1427.18,-354.403C1442.07,-344.691 1466.54,-328.732 1484.27,-317.17"/>
<polygon fill="midnightblue" stroke="midnightblue" points="1486.38,-319.975 1492.84,-311.581 1482.56,-314.112 1486.38,-319.975"/>
</g>
<!-- Node31 -->
<g id="node31" class="node"><title>Node31</title>
<polygon fill="white" stroke="#bfbfbf" points="1588.5,-292.5 1588.5,-311.5 1733.5,-311.5 1733.5,-292.5 1588.5,-292.5"/>
<text text-anchor="middle" x="1661" y="-299.5" font-family="FreeSans" font-size="10.00">LinearMath/btQuaternion.h</text>
</g>
<!-- Node29&#45;&gt;Node31 -->
<g id="edge39" class="edge"><title>Node29&#45;&gt;Node31</title>
<path fill="none" stroke="midnightblue" d="M1449.13,-354.467C1493.02,-343.805 1568.19,-325.545 1616.19,-313.886"/>
<polygon fill="midnightblue" stroke="midnightblue" points="1617.1,-317.265 1625.99,-311.503 1615.45,-310.463 1617.1,-317.265"/>
</g>
</g>
</svg>
