<?xml version="1.0" encoding="UTF-8" standalone="no"?>
<!DOCTYPE svg PUBLIC "-//W3C//DTD SVG 1.1//EN"
 "http://www.w3.org/Graphics/SVG/1.1/DTD/svg11.dtd">
<!-- Generated by graphviz version 2.36.0 (20140111.2315)
 -->
<!-- Title: /home/scrawl/Dev/openmw/apps/opencs/view/render/unpagedworldspacewidget.hpp Pages: 1 -->
<svg width="308pt" height="128pt"
 viewBox="0.00 0.00 308.00 128.00" xmlns="http://www.w3.org/2000/svg" xmlns:xlink="http://www.w3.org/1999/xlink">
<g id="graph0" class="graph" transform="scale(1 1) rotate(0) translate(4 124)">
<title>/home/scrawl/Dev/openmw/apps/opencs/view/render/unpagedworldspacewidget.hpp</title>
<polygon fill="white" stroke="none" points="-4,4 -4,-124 304,-124 304,4 -4,4"/>
<!-- Node1 -->
<g id="node1" class="node"><title>Node1</title>
<polygon fill="#bfbfbf" stroke="black" points="79,-78.5 79,-119.5 229,-119.5 229,-78.5 79,-78.5"/>
<text text-anchor="start" x="87" y="-107.5" font-family="FreeSans" font-size="10.00">/home/scrawl/Dev/openmw</text>
<text text-anchor="start" x="87" y="-96.5" font-family="FreeSans" font-size="10.00">/apps/opencs/view/render</text>
<text text-anchor="middle" x="154" y="-85.5" font-family="FreeSans" font-size="10.00">/unpagedworldspacewidget.hpp</text>
</g>
<!-- Node2 -->
<g id="node2" class="node"><title>Node2</title>
<g id="a_node2"><a xlink:href="unpagedworldspacewidget_8cpp.html" target="_top" xlink:title="/home/scrawl/Dev/openmw\l/apps/opencs/view/render\l/unpagedworldspacewidget.cpp">
<polygon fill="white" stroke="black" points="0,-0.5 0,-41.5 150,-41.5 150,-0.5 0,-0.5"/>
<text text-anchor="start" x="8" y="-29.5" font-family="FreeSans" font-size="10.00">/home/scrawl/Dev/openmw</text>
<text text-anchor="start" x="8" y="-18.5" font-family="FreeSans" font-size="10.00">/apps/opencs/view/render</text>
<text text-anchor="middle" x="75" y="-7.5" font-family="FreeSans" font-size="10.00">/unpagedworldspacewidget.cpp</text>
</a>
</g>
</g>
<!-- Node1&#45;&gt;Node2 -->
<g id="edge1" class="edge"><title>Node1&#45;&gt;Node2</title>
<path fill="none" stroke="midnightblue" d="M126.445,-71.4916C116.194,-61.6294 104.757,-50.6273 95.2755,-41.5056"/>
<polygon fill="midnightblue" stroke="midnightblue" points="124.022,-74.0175 133.656,-78.4281 128.875,-68.9729 124.022,-74.0175"/>
</g>
<!-- Node3 -->
<g id="node3" class="node"><title>Node3</title>
<g id="a_node3"><a xlink:href="scenesubview_8cpp.html" target="_top" xlink:title="/home/scrawl/Dev/openmw\l/apps/opencs/view/world\l/scenesubview.cpp">
<polygon fill="white" stroke="black" points="168,-0.5 168,-41.5 300,-41.5 300,-0.5 168,-0.5"/>
<text text-anchor="start" x="176" y="-29.5" font-family="FreeSans" font-size="10.00">/home/scrawl/Dev/openmw</text>
<text text-anchor="start" x="176" y="-18.5" font-family="FreeSans" font-size="10.00">/apps/opencs/view/world</text>
<text text-anchor="middle" x="234" y="-7.5" font-family="FreeSans" font-size="10.00">/scenesubview.cpp</text>
</a>
</g>
</g>
<!-- Node1&#45;&gt;Node3 -->
<g id="edge2" class="edge"><title>Node1&#45;&gt;Node3</title>
<path fill="none" stroke="midnightblue" d="M181.904,-71.4916C192.285,-61.6294 203.866,-50.6273 213.468,-41.5056"/>
<polygon fill="midnightblue" stroke="midnightblue" points="179.441,-69.0031 174.602,-78.4281 184.263,-74.0781 179.441,-69.0031"/>
</g>
</g>
</svg>
