<?xml version="1.0" encoding="UTF-8" standalone="no"?>
<!DOCTYPE svg PUBLIC "-//W3C//DTD SVG 1.1//EN"
 "http://www.w3.org/Graphics/SVG/1.1/DTD/svg11.dtd">
<!-- Generated by graphviz version 2.36.0 (20140111.2315)
 -->
<!-- Title: /home/travis/build/elsid/openmw/components/sceneutil/unrefqueue.hpp Pages: 1 -->
<svg width="796pt" height="174pt"
 viewBox="0.00 0.00 796.00 174.00" xmlns="http://www.w3.org/2000/svg" xmlns:xlink="http://www.w3.org/1999/xlink">
<g id="graph0" class="graph" transform="scale(1 1) rotate(0) translate(4 170)">
<title>/home/travis/build/elsid/openmw/components/sceneutil/unrefqueue.hpp</title>
<polygon fill="white" stroke="none" points="-4,4 -4,-170 792,-170 792,4 -4,4"/>
<!-- Node1 -->
<g id="node1" class="node"><title>Node1</title>
<polygon fill="#bfbfbf" stroke="black" points="38,-124.5 38,-165.5 186,-165.5 186,-124.5 38,-124.5"/>
<text text-anchor="start" x="46" y="-153.5" font-family="FreeSans" font-size="10.00">/home/travis/build</text>
<text text-anchor="start" x="46" y="-142.5" font-family="FreeSans" font-size="10.00">/elsid/openmw/components</text>
<text text-anchor="middle" x="112" y="-131.5" font-family="FreeSans" font-size="10.00">/sceneutil/unrefqueue.hpp</text>
</g>
<!-- Node2 -->
<g id="node2" class="node"><title>Node2</title>
<polygon fill="white" stroke="#bfbfbf" points="17.5,-62.5 17.5,-81.5 64.5,-81.5 64.5,-62.5 17.5,-62.5"/>
<text text-anchor="middle" x="41" y="-69.5" font-family="FreeSans" font-size="10.00">deque</text>
</g>
<!-- Node1&#45;&gt;Node2 -->
<g id="edge1" class="edge"><title>Node1&#45;&gt;Node2</title>
<path fill="none" stroke="midnightblue" d="M92.2225,-124.223C81.1055,-113.105 67.4105,-99.4105 56.979,-88.979"/>
<polygon fill="midnightblue" stroke="midnightblue" points="59.2809,-86.3311 49.7349,-81.7349 54.3311,-91.2809 59.2809,-86.3311"/>
</g>
<!-- Node3 -->
<g id="node3" class="node"><title>Node3</title>
<polygon fill="white" stroke="#bfbfbf" points="0,-0.5 0,-19.5 68,-19.5 68,-0.5 0,-0.5"/>
<text text-anchor="middle" x="34" y="-7.5" font-family="FreeSans" font-size="10.00">osg/ref_ptr</text>
</g>
<!-- Node1&#45;&gt;Node3 -->
<g id="edge2" class="edge"><title>Node1&#45;&gt;Node3</title>
<path fill="none" stroke="midnightblue" d="M105.192,-124.282C98.3975,-105.872 86.9716,-78.0088 73,-56 66.4342,-45.6572 57.5905,-35.2476 49.9845,-27.049"/>
<polygon fill="midnightblue" stroke="midnightblue" points="52.3651,-24.4745 42.9213,-19.6719 47.309,-29.3156 52.3651,-24.4745"/>
</g>
<!-- Node4 -->
<g id="node4" class="node"><title>Node4</title>
<polygon fill="white" stroke="#bfbfbf" points="86,-0.5 86,-19.5 176,-19.5 176,-0.5 86,-0.5"/>
<text text-anchor="middle" x="131" y="-7.5" font-family="FreeSans" font-size="10.00">osg/Referenced</text>
</g>
<!-- Node1&#45;&gt;Node4 -->
<g id="edge3" class="edge"><title>Node1&#45;&gt;Node4</title>
<path fill="none" stroke="midnightblue" d="M114.804,-124.375C118.438,-98.9349 124.733,-54.8715 128.31,-29.8273"/>
<polygon fill="midnightblue" stroke="midnightblue" points="131.794,-30.1885 129.744,-19.794 124.865,-29.1985 131.794,-30.1885"/>
</g>
<!-- Node5 -->
<g id="node5" class="node"><title>Node5</title>
<g id="a_node5"><a xlink:href="workqueue_8hpp.html" target="_top" xlink:title="components/sceneutil\l/workqueue.hpp">
<polygon fill="white" stroke="black" points="259,-57 259,-87 381,-87 381,-57 259,-57"/>
<text text-anchor="start" x="267" y="-75" font-family="FreeSans" font-size="10.00">components/sceneutil</text>
<text text-anchor="middle" x="320" y="-64" font-family="FreeSans" font-size="10.00">/workqueue.hpp</text>
</a>
</g>
</g>
<!-- Node1&#45;&gt;Node5 -->
<g id="edge4" class="edge"><title>Node1&#45;&gt;Node5</title>
<path fill="none" stroke="midnightblue" d="M169.388,-124.411C200.745,-113.707 239.232,-100.57 269.45,-90.2549"/>
<polygon fill="midnightblue" stroke="midnightblue" points="270.618,-93.5546 278.951,-87.0117 268.357,-86.9299 270.618,-93.5546"/>
</g>
<!-- Node5&#45;&gt;Node3 -->
<g id="edge10" class="edge"><title>Node5&#45;&gt;Node3</title>
<path fill="none" stroke="midnightblue" d="M258.997,-58.2021C204.625,-46.7955 126.367,-30.3777 77.9295,-20.216"/>
<polygon fill="midnightblue" stroke="midnightblue" points="78.5709,-16.7744 68.0653,-18.1466 77.1336,-23.6253 78.5709,-16.7744"/>
</g>
<!-- Node5&#45;&gt;Node4 -->
<g id="edge9" class="edge"><title>Node5&#45;&gt;Node4</title>
<path fill="none" stroke="midnightblue" d="M275.688,-56.9327C242.849,-46.5077 198.62,-32.4667 167.74,-22.6635"/>
<polygon fill="midnightblue" stroke="midnightblue" points="168.405,-19.2026 157.815,-19.5127 166.287,-25.8745 168.405,-19.2026"/>
</g>
<!-- Node6 -->
<g id="node6" class="node"><title>Node6</title>
<polygon fill="white" stroke="#bfbfbf" points="671.5,-0.5 671.5,-19.5 788.5,-19.5 788.5,-0.5 671.5,-0.5"/>
<text text-anchor="middle" x="730" y="-7.5" font-family="FreeSans" font-size="10.00">OpenThreads/Atomic</text>
</g>
<!-- Node5&#45;&gt;Node6 -->
<g id="edge5" class="edge"><title>Node5&#45;&gt;Node6</title>
<path fill="none" stroke="midnightblue" d="M381.381,-62.0174C456.529,-51.0201 583.421,-32.4506 661.623,-21.0064"/>
<polygon fill="midnightblue" stroke="midnightblue" points="662.465,-24.4205 671.853,-19.5093 661.451,-17.4943 662.465,-24.4205"/>
</g>
<!-- Node7 -->
<g id="node7" class="node"><title>Node7</title>
<polygon fill="white" stroke="#bfbfbf" points="194.5,-0.5 194.5,-19.5 307.5,-19.5 307.5,-0.5 194.5,-0.5"/>
<text text-anchor="middle" x="251" y="-7.5" font-family="FreeSans" font-size="10.00">OpenThreads/Mutex</text>
</g>
<!-- Node5&#45;&gt;Node7 -->
<g id="edge6" class="edge"><title>Node5&#45;&gt;Node7</title>
<path fill="none" stroke="midnightblue" d="M303.648,-56.7808C293.105,-47.6127 279.4,-35.6957 268.616,-26.3186"/>
<polygon fill="midnightblue" stroke="midnightblue" points="270.883,-23.6512 261.04,-19.7305 266.29,-28.9335 270.883,-23.6512"/>
</g>
<!-- Node8 -->
<g id="node8" class="node"><title>Node8</title>
<polygon fill="white" stroke="#bfbfbf" points="326,-0.5 326,-19.5 454,-19.5 454,-0.5 326,-0.5"/>
<text text-anchor="middle" x="390" y="-7.5" font-family="FreeSans" font-size="10.00">OpenThreads/Condition</text>
</g>
<!-- Node5&#45;&gt;Node8 -->
<g id="edge7" class="edge"><title>Node5&#45;&gt;Node8</title>
<path fill="none" stroke="midnightblue" d="M336.589,-56.7808C347.285,-47.6127 361.188,-35.6957 372.128,-26.3186"/>
<polygon fill="midnightblue" stroke="midnightblue" points="374.5,-28.8959 379.814,-19.7305 369.944,-23.5811 374.5,-28.8959"/>
</g>
<!-- Node9 -->
<g id="node9" class="node"><title>Node9</title>
<polygon fill="white" stroke="#bfbfbf" points="472,-0.5 472,-19.5 588,-19.5 588,-0.5 472,-0.5"/>
<text text-anchor="middle" x="530" y="-7.5" font-family="FreeSans" font-size="10.00">OpenThreads/Thread</text>
</g>
<!-- Node5&#45;&gt;Node9 -->
<g id="edge8" class="edge"><title>Node5&#45;&gt;Node9</title>
<path fill="none" stroke="midnightblue" d="M369.236,-56.9327C406.199,-46.3717 456.151,-32.0998 490.513,-22.282"/>
<polygon fill="midnightblue" stroke="midnightblue" points="491.552,-25.6253 500.206,-19.5127 489.629,-18.8946 491.552,-25.6253"/>
</g>
<!-- Node10 -->
<g id="node10" class="node"><title>Node10</title>
<polygon fill="white" stroke="#bfbfbf" points="606.5,-0.5 606.5,-19.5 653.5,-19.5 653.5,-0.5 606.5,-0.5"/>
<text text-anchor="middle" x="630" y="-7.5" font-family="FreeSans" font-size="10.00">queue</text>
</g>
<!-- Node5&#45;&gt;Node10 -->
<g id="edge11" class="edge"><title>Node5&#45;&gt;Node10</title>
<path fill="none" stroke="midnightblue" d="M381.114,-61.0797C437.223,-51.6472 522.542,-36.4841 596,-20 596.104,-19.9766 596.209,-19.9531 596.313,-19.9295"/>
<polygon fill="midnightblue" stroke="midnightblue" points="597.378,-23.2731 606.278,-17.5255 595.736,-16.4684 597.378,-23.2731"/>
</g>
</g>
</svg>
