<?xml version="1.0" encoding="UTF-8" standalone="no"?>
<!DOCTYPE svg PUBLIC "-//W3C//DTD SVG 1.1//EN"
 "http://www.w3.org/Graphics/SVG/1.1/DTD/svg11.dtd">
<!-- Generated by graphviz version 2.36.0 (20140111.2315)
 -->
<!-- Title: /home/travis/build/elsid/openmw/components/sceneutil/visitor.hpp Pages: 1 -->
<svg width="231pt" height="106pt"
 viewBox="0.00 0.00 231.00 106.00" xmlns="http://www.w3.org/2000/svg" xmlns:xlink="http://www.w3.org/1999/xlink">
<g id="graph0" class="graph" transform="scale(1 1) rotate(0) translate(4 102)">
<title>/home/travis/build/elsid/openmw/components/sceneutil/visitor.hpp</title>
<polygon fill="white" stroke="none" points="-4,4 -4,-102 227,-102 227,4 -4,4"/>
<!-- Node1 -->
<g id="node1" class="node"><title>Node1</title>
<polygon fill="#bfbfbf" stroke="black" points="42,-56.5 42,-97.5 190,-97.5 190,-56.5 42,-56.5"/>
<text text-anchor="start" x="50" y="-85.5" font-family="FreeSans" font-size="10.00">/home/travis/build</text>
<text text-anchor="start" x="50" y="-74.5" font-family="FreeSans" font-size="10.00">/elsid/openmw/components</text>
<text text-anchor="middle" x="116" y="-63.5" font-family="FreeSans" font-size="10.00">/sceneutil/visitor.hpp</text>
</g>
<!-- Node2 -->
<g id="node2" class="node"><title>Node2</title>
<polygon fill="white" stroke="#bfbfbf" points="-0.5,-0.5 -0.5,-19.5 112.5,-19.5 112.5,-0.5 -0.5,-0.5"/>
<text text-anchor="middle" x="56" y="-7.5" font-family="FreeSans" font-size="10.00">osg/MatrixTransform</text>
</g>
<!-- Node1&#45;&gt;Node2 -->
<g id="edge1" class="edge"><title>Node1&#45;&gt;Node2</title>
<path fill="none" stroke="midnightblue" d="M97.998,-56.4979C89.3296,-47.1071 79.0611,-35.9829 70.8475,-27.0848"/>
<polygon fill="midnightblue" stroke="midnightblue" points="73.3416,-24.6266 63.9869,-19.6525 68.1979,-29.3745 73.3416,-24.6266"/>
</g>
<!-- Node3 -->
<g id="node3" class="node"><title>Node3</title>
<polygon fill="white" stroke="#bfbfbf" points="131,-0.5 131,-19.5 223,-19.5 223,-0.5 131,-0.5"/>
<text text-anchor="middle" x="177" y="-7.5" font-family="FreeSans" font-size="10.00">osg/NodeVisitor</text>
</g>
<!-- Node1&#45;&gt;Node3 -->
<g id="edge2" class="edge"><title>Node1&#45;&gt;Node3</title>
<path fill="none" stroke="midnightblue" d="M134.302,-56.4979C143.115,-47.1071 153.555,-35.9829 161.905,-27.0848"/>
<polygon fill="midnightblue" stroke="midnightblue" points="164.589,-29.3395 168.88,-19.6525 159.485,-24.5493 164.589,-29.3395"/>
</g>
</g>
</svg>
