<?xml version="1.0" encoding="UTF-8" standalone="no"?>
<!DOCTYPE svg PUBLIC "-//W3C//DTD SVG 1.1//EN"
 "http://www.w3.org/Graphics/SVG/1.1/DTD/svg11.dtd">
<!-- Generated by graphviz version 2.36.0 (20140111.2315)
 -->
<!-- Title: /home/travis/build/OpenMW/openmw/components/sceneutil/waterutil.cpp Pages: 1 -->
<svg width="465pt" height="162pt"
 viewBox="0.00 0.00 465.00 162.00" xmlns="http://www.w3.org/2000/svg" xmlns:xlink="http://www.w3.org/1999/xlink">
<g id="graph0" class="graph" transform="scale(1 1) rotate(0) translate(4 158)">
<title>/home/travis/build/OpenMW/openmw/components/sceneutil/waterutil.cpp</title>
<polygon fill="white" stroke="none" points="-4,4 -4,-158 461,-158 461,4 -4,4"/>
<!-- Node1 -->
<g id="node1" class="node"><title>Node1</title>
<polygon fill="#bfbfbf" stroke="black" points="139,-112.5 139,-153.5 307,-153.5 307,-112.5 139,-112.5"/>
<text text-anchor="start" x="147" y="-141.5" font-family="FreeSans" font-size="10.00">/home/travis/build</text>
<text text-anchor="start" x="147" y="-130.5" font-family="FreeSans" font-size="10.00">/OpenMW/openmw/components</text>
<text text-anchor="middle" x="223" y="-119.5" font-family="FreeSans" font-size="10.00">/sceneutil/waterutil.cpp</text>
</g>
<!-- Node2 -->
<g id="node2" class="node"><title>Node2</title>
<g id="a_node2"><a xlink:href="waterutil_8hpp.html" target="_top" xlink:title="waterutil.hpp">
<polygon fill="white" stroke="black" points="0,-56.5 0,-75.5 78,-75.5 78,-56.5 0,-56.5"/>
<text text-anchor="middle" x="39" y="-63.5" font-family="FreeSans" font-size="10.00">waterutil.hpp</text>
</a>
</g>
</g>
<!-- Node1&#45;&gt;Node2 -->
<g id="edge1" class="edge"><title>Node1&#45;&gt;Node2</title>
<path fill="none" stroke="midnightblue" d="M167.794,-112.498C137.006,-101.622 99.6368,-88.4206 73.0979,-79.0455"/>
<polygon fill="midnightblue" stroke="midnightblue" points="74.088,-75.6833 63.4932,-75.6525 71.7563,-82.2836 74.088,-75.6833"/>
</g>
<!-- Node4 -->
<g id="node4" class="node"><title>Node4</title>
<polygon fill="white" stroke="#bfbfbf" points="96,-56.5 96,-75.5 162,-75.5 162,-56.5 96,-56.5"/>
<text text-anchor="middle" x="129" y="-63.5" font-family="FreeSans" font-size="10.00">osg/Depth</text>
</g>
<!-- Node1&#45;&gt;Node4 -->
<g id="edge3" class="edge"><title>Node1&#45;&gt;Node4</title>
<path fill="none" stroke="midnightblue" d="M194.797,-112.498C180.385,-102.532 163.15,-90.6142 149.935,-81.4764"/>
<polygon fill="midnightblue" stroke="midnightblue" points="151.729,-78.4613 141.513,-75.6525 147.747,-84.2189 151.729,-78.4613"/>
</g>
<!-- Node5 -->
<g id="node5" class="node"><title>Node5</title>
<polygon fill="white" stroke="#bfbfbf" points="180.5,-56.5 180.5,-75.5 265.5,-75.5 265.5,-56.5 180.5,-56.5"/>
<text text-anchor="middle" x="223" y="-63.5" font-family="FreeSans" font-size="10.00">osg/Geometry</text>
</g>
<!-- Node1&#45;&gt;Node5 -->
<g id="edge4" class="edge"><title>Node1&#45;&gt;Node5</title>
<path fill="none" stroke="midnightblue" d="M223,-112.498C223,-104.065 223,-94.2351 223,-85.874"/>
<polygon fill="midnightblue" stroke="midnightblue" points="226.5,-85.6525 223,-75.6525 219.5,-85.6525 226.5,-85.6525"/>
</g>
<!-- Node6 -->
<g id="node6" class="node"><title>Node6</title>
<polygon fill="white" stroke="#bfbfbf" points="283.5,-56.5 283.5,-75.5 358.5,-75.5 358.5,-56.5 283.5,-56.5"/>
<text text-anchor="middle" x="321" y="-63.5" font-family="FreeSans" font-size="10.00">osg/Material</text>
</g>
<!-- Node1&#45;&gt;Node6 -->
<g id="edge5" class="edge"><title>Node1&#45;&gt;Node6</title>
<path fill="none" stroke="midnightblue" d="M252.403,-112.498C267.573,-102.436 285.743,-90.3849 299.57,-81.2136"/>
<polygon fill="midnightblue" stroke="midnightblue" points="301.556,-84.0967 307.955,-75.6525 297.687,-78.2631 301.556,-84.0967"/>
</g>
<!-- Node7 -->
<g id="node7" class="node"><title>Node7</title>
<polygon fill="white" stroke="#bfbfbf" points="377,-56.5 377,-75.5 457,-75.5 457,-56.5 377,-56.5"/>
<text text-anchor="middle" x="417" y="-63.5" font-family="FreeSans" font-size="10.00">osg/StateSet</text>
</g>
<!-- Node1&#45;&gt;Node7 -->
<g id="edge6" class="edge"><title>Node1&#45;&gt;Node7</title>
<path fill="none" stroke="midnightblue" d="M281.206,-112.498C313.91,-101.541 353.657,-88.2233 381.674,-78.8361"/>
<polygon fill="midnightblue" stroke="midnightblue" points="383.061,-82.0628 391.431,-75.5671 380.837,-75.4254 383.061,-82.0628"/>
</g>
<!-- Node3 -->
<g id="node3" class="node"><title>Node3</title>
<polygon fill="white" stroke="#bfbfbf" points="5,-0.5 5,-19.5 73,-19.5 73,-0.5 5,-0.5"/>
<text text-anchor="middle" x="39" y="-7.5" font-family="FreeSans" font-size="10.00">osg/ref_ptr</text>
</g>
<!-- Node2&#45;&gt;Node3 -->
<g id="edge2" class="edge"><title>Node2&#45;&gt;Node3</title>
<path fill="none" stroke="midnightblue" d="M39,-56.083C39,-49.0059 39,-38.8611 39,-29.9865"/>
<polygon fill="midnightblue" stroke="midnightblue" points="42.5001,-29.751 39,-19.7511 35.5001,-29.7511 42.5001,-29.751"/>
</g>
</g>
</svg>
