<?xml version="1.0" encoding="UTF-8" standalone="no"?>
<!DOCTYPE svg PUBLIC "-//W3C//DTD SVG 1.1//EN"
 "http://www.w3.org/Graphics/SVG/1.1/DTD/svg11.dtd">
<!-- Generated by graphviz version 2.36.0 (20140111.2315)
 -->
<!-- Title: /home/scrawl/Dev/openmw/apps/openmw/mwrender/weaponanimation.hpp Pages: 1 -->
<svg width="1063pt" height="206pt"
 viewBox="0.00 0.00 1063.00 206.00" xmlns="http://www.w3.org/2000/svg" xmlns:xlink="http://www.w3.org/1999/xlink">
<g id="graph0" class="graph" transform="scale(1 1) rotate(0) translate(4 202)">
<title>/home/scrawl/Dev/openmw/apps/openmw/mwrender/weaponanimation.hpp</title>
<polygon fill="white" stroke="none" points="-4,4 -4,-202 1059,-202 1059,4 -4,4"/>
<!-- Node1 -->
<g id="node1" class="node"><title>Node1</title>
<polygon fill="#bfbfbf" stroke="black" points="773,-156.5 773,-197.5 905,-197.5 905,-156.5 773,-156.5"/>
<text text-anchor="start" x="781" y="-185.5" font-family="FreeSans" font-size="10.00">/home/scrawl/Dev/openmw</text>
<text text-anchor="start" x="781" y="-174.5" font-family="FreeSans" font-size="10.00">/apps/openmw/mwrender</text>
<text text-anchor="middle" x="839" y="-163.5" font-family="FreeSans" font-size="10.00">/weaponanimation.hpp</text>
</g>
<!-- Node2 -->
<g id="node2" class="node"><title>Node2</title>
<g id="a_node2"><a xlink:href="npcanimation_8hpp.html" target="_top" xlink:title="/home/scrawl/Dev/openmw\l/apps/openmw/mwrender\l/npcanimation.hpp">
<polygon fill="white" stroke="black" points="473,-78.5 473,-119.5 605,-119.5 605,-78.5 473,-78.5"/>
<text text-anchor="start" x="481" y="-107.5" font-family="FreeSans" font-size="10.00">/home/scrawl/Dev/openmw</text>
<text text-anchor="start" x="481" y="-96.5" font-family="FreeSans" font-size="10.00">/apps/openmw/mwrender</text>
<text text-anchor="middle" x="539" y="-85.5" font-family="FreeSans" font-size="10.00">/npcanimation.hpp</text>
</a>
</g>
</g>
<!-- Node1&#45;&gt;Node2 -->
<g id="edge1" class="edge"><title>Node1&#45;&gt;Node2</title>
<path fill="none" stroke="midnightblue" d="M762.933,-156.73C714.227,-144.391 651.654,-128.539 605.039,-116.73"/>
<polygon fill="midnightblue" stroke="midnightblue" points="762.239,-160.164 772.792,-159.227 763.958,-153.379 762.239,-160.164"/>
</g>
<!-- Node9 -->
<g id="node9" class="node"><title>Node9</title>
<g id="a_node9"><a xlink:href="creatureanimation_8hpp.html" target="_top" xlink:title="/home/scrawl/Dev/openmw\l/apps/openmw/mwrender\l/creatureanimation.hpp">
<polygon fill="white" stroke="black" points="773,-78.5 773,-119.5 905,-119.5 905,-78.5 773,-78.5"/>
<text text-anchor="start" x="781" y="-107.5" font-family="FreeSans" font-size="10.00">/home/scrawl/Dev/openmw</text>
<text text-anchor="start" x="781" y="-96.5" font-family="FreeSans" font-size="10.00">/apps/openmw/mwrender</text>
<text text-anchor="middle" x="839" y="-85.5" font-family="FreeSans" font-size="10.00">/creatureanimation.hpp</text>
</a>
</g>
</g>
<!-- Node1&#45;&gt;Node9 -->
<g id="edge8" class="edge"><title>Node1&#45;&gt;Node9</title>
<path fill="none" stroke="midnightblue" d="M839,-146.297C839,-137.301 839,-127.653 839,-119.506"/>
<polygon fill="midnightblue" stroke="midnightblue" points="835.5,-146.428 839,-156.428 842.5,-146.428 835.5,-146.428"/>
</g>
<!-- Node11 -->
<g id="node11" class="node"><title>Node11</title>
<g id="a_node11"><a xlink:href="weaponanimation_8cpp.html" target="_top" xlink:title="/home/scrawl/Dev/openmw\l/apps/openmw/mwrender\l/weaponanimation.cpp">
<polygon fill="white" stroke="black" points="923,-78.5 923,-119.5 1055,-119.5 1055,-78.5 923,-78.5"/>
<text text-anchor="start" x="931" y="-107.5" font-family="FreeSans" font-size="10.00">/home/scrawl/Dev/openmw</text>
<text text-anchor="start" x="931" y="-96.5" font-family="FreeSans" font-size="10.00">/apps/openmw/mwrender</text>
<text text-anchor="middle" x="989" y="-85.5" font-family="FreeSans" font-size="10.00">/weaponanimation.cpp</text>
</a>
</g>
</g>
<!-- Node1&#45;&gt;Node11 -->
<g id="edge11" class="edge"><title>Node1&#45;&gt;Node11</title>
<path fill="none" stroke="midnightblue" d="M886.55,-151.908C907.175,-141.458 931.013,-129.38 950.502,-119.506"/>
<polygon fill="midnightblue" stroke="midnightblue" points="884.967,-148.786 877.629,-156.428 888.131,-155.031 884.967,-148.786"/>
</g>
<!-- Node3 -->
<g id="node3" class="node"><title>Node3</title>
<g id="a_node3"><a xlink:href="npc_8cpp.html" target="_top" xlink:title="/home/scrawl/Dev/openmw\l/apps/openmw/mwclass/npc.cpp">
<polygon fill="white" stroke="black" points="-0.5,-6 -0.5,-36 154.5,-36 154.5,-6 -0.5,-6"/>
<text text-anchor="start" x="7.5" y="-24" font-family="FreeSans" font-size="10.00">/home/scrawl/Dev/openmw</text>
<text text-anchor="middle" x="77" y="-13" font-family="FreeSans" font-size="10.00">/apps/openmw/mwclass/npc.cpp</text>
</a>
</g>
</g>
<!-- Node2&#45;&gt;Node3 -->
<g id="edge2" class="edge"><title>Node2&#45;&gt;Node3</title>
<path fill="none" stroke="midnightblue" d="M462.729,-88.3783C386.75,-78.3784 266.906,-61.4814 164,-42 154.711,-40.2415 144.909,-38.1855 135.366,-36.0736"/>
<polygon fill="midnightblue" stroke="midnightblue" points="462.322,-91.8548 472.692,-89.6831 463.231,-84.9141 462.322,-91.8548"/>
</g>
<!-- Node4 -->
<g id="node4" class="node"><title>Node4</title>
<g id="a_node4"><a xlink:href="camera_8cpp.html" target="_top" xlink:title="/home/scrawl/Dev/openmw\l/apps/openmw/mwrender\l/camera.cpp">
<polygon fill="white" stroke="black" points="173,-0.5 173,-41.5 305,-41.5 305,-0.5 173,-0.5"/>
<text text-anchor="start" x="181" y="-29.5" font-family="FreeSans" font-size="10.00">/home/scrawl/Dev/openmw</text>
<text text-anchor="start" x="181" y="-18.5" font-family="FreeSans" font-size="10.00">/apps/openmw/mwrender</text>
<text text-anchor="middle" x="239" y="-7.5" font-family="FreeSans" font-size="10.00">/camera.cpp</text>
</a>
</g>
</g>
<!-- Node2&#45;&gt;Node4 -->
<g id="edge3" class="edge"><title>Node2&#45;&gt;Node4</title>
<path fill="none" stroke="midnightblue" d="M462.995,-79.4175C419.353,-68.6638 363.544,-54.7703 314,-42 311.129,-41.26 308.198,-40.4995 305.238,-39.7275"/>
<polygon fill="midnightblue" stroke="midnightblue" points="462.417,-82.8795 472.963,-81.8713 464.09,-76.0824 462.417,-82.8795"/>
</g>
<!-- Node5 -->
<g id="node5" class="node"><title>Node5</title>
<g id="a_node5"><a xlink:href="characterpreview_8cpp.html" target="_top" xlink:title="/home/scrawl/Dev/openmw\l/apps/openmw/mwrender\l/characterpreview.cpp">
<polygon fill="white" stroke="black" points="323,-0.5 323,-41.5 455,-41.5 455,-0.5 323,-0.5"/>
<text text-anchor="start" x="331" y="-29.5" font-family="FreeSans" font-size="10.00">/home/scrawl/Dev/openmw</text>
<text text-anchor="start" x="331" y="-18.5" font-family="FreeSans" font-size="10.00">/apps/openmw/mwrender</text>
<text text-anchor="middle" x="389" y="-7.5" font-family="FreeSans" font-size="10.00">/characterpreview.cpp</text>
</a>
</g>
</g>
<!-- Node2&#45;&gt;Node5 -->
<g id="edge4" class="edge"><title>Node2&#45;&gt;Node5</title>
<path fill="none" stroke="midnightblue" d="M491.45,-73.9082C470.825,-63.4581 446.987,-51.3801 427.498,-41.5056"/>
<polygon fill="midnightblue" stroke="midnightblue" points="489.869,-77.0305 500.371,-78.4281 493.033,-70.7863 489.869,-77.0305"/>
</g>
<!-- Node6 -->
<g id="node6" class="node"><title>Node6</title>
<g id="a_node6"><a xlink:href="npcanimation_8cpp.html" target="_top" xlink:title="/home/scrawl/Dev/openmw\l/apps/openmw/mwrender\l/npcanimation.cpp">
<polygon fill="white" stroke="black" points="473,-0.5 473,-41.5 605,-41.5 605,-0.5 473,-0.5"/>
<text text-anchor="start" x="481" y="-29.5" font-family="FreeSans" font-size="10.00">/home/scrawl/Dev/openmw</text>
<text text-anchor="start" x="481" y="-18.5" font-family="FreeSans" font-size="10.00">/apps/openmw/mwrender</text>
<text text-anchor="middle" x="539" y="-7.5" font-family="FreeSans" font-size="10.00">/npcanimation.cpp</text>
</a>
</g>
</g>
<!-- Node2&#45;&gt;Node6 -->
<g id="edge5" class="edge"><title>Node2&#45;&gt;Node6</title>
<path fill="none" stroke="midnightblue" d="M539,-68.2965C539,-59.3009 539,-49.6532 539,-41.5056"/>
<polygon fill="midnightblue" stroke="midnightblue" points="535.5,-68.4281 539,-78.4281 542.5,-68.4281 535.5,-68.4281"/>
</g>
<!-- Node7 -->
<g id="node7" class="node"><title>Node7</title>
<g id="a_node7"><a xlink:href="mwrender_2objects_8cpp.html" target="_top" xlink:title="/home/scrawl/Dev/openmw\l/apps/openmw/mwrender\l/objects.cpp">
<polygon fill="white" stroke="black" points="773,-0.5 773,-41.5 905,-41.5 905,-0.5 773,-0.5"/>
<text text-anchor="start" x="781" y="-29.5" font-family="FreeSans" font-size="10.00">/home/scrawl/Dev/openmw</text>
<text text-anchor="start" x="781" y="-18.5" font-family="FreeSans" font-size="10.00">/apps/openmw/mwrender</text>
<text text-anchor="middle" x="839" y="-7.5" font-family="FreeSans" font-size="10.00">/objects.cpp</text>
</a>
</g>
</g>
<!-- Node2&#45;&gt;Node7 -->
<g id="edge6" class="edge"><title>Node2&#45;&gt;Node7</title>
<path fill="none" stroke="midnightblue" d="M615.005,-79.4175C658.647,-68.6638 714.456,-54.7703 764,-42 766.871,-41.26 769.802,-40.4995 772.762,-39.7275"/>
<polygon fill="midnightblue" stroke="midnightblue" points="613.91,-76.0824 605.037,-81.8713 615.583,-82.8795 613.91,-76.0824"/>
</g>
<!-- Node8 -->
<g id="node8" class="node"><title>Node8</title>
<g id="a_node8"><a xlink:href="renderingmanager_8cpp.html" target="_top" xlink:title="/home/scrawl/Dev/openmw\l/apps/openmw/mwrender\l/renderingmanager.cpp">
<polygon fill="white" stroke="black" points="623,-0.5 623,-41.5 755,-41.5 755,-0.5 623,-0.5"/>
<text text-anchor="start" x="631" y="-29.5" font-family="FreeSans" font-size="10.00">/home/scrawl/Dev/openmw</text>
<text text-anchor="start" x="631" y="-18.5" font-family="FreeSans" font-size="10.00">/apps/openmw/mwrender</text>
<text text-anchor="middle" x="689" y="-7.5" font-family="FreeSans" font-size="10.00">/renderingmanager.cpp</text>
</a>
</g>
</g>
<!-- Node2&#45;&gt;Node8 -->
<g id="edge7" class="edge"><title>Node2&#45;&gt;Node8</title>
<path fill="none" stroke="midnightblue" d="M586.55,-73.9082C607.175,-63.4581 631.013,-51.3801 650.502,-41.5056"/>
<polygon fill="midnightblue" stroke="midnightblue" points="584.967,-70.7863 577.629,-78.4281 588.131,-77.0305 584.967,-70.7863"/>
</g>
<!-- Node9&#45;&gt;Node7 -->
<g id="edge10" class="edge"><title>Node9&#45;&gt;Node7</title>
<path fill="none" stroke="midnightblue" d="M839,-68.2965C839,-59.3009 839,-49.6532 839,-41.5056"/>
<polygon fill="midnightblue" stroke="midnightblue" points="835.5,-68.4281 839,-78.4281 842.5,-68.4281 835.5,-68.4281"/>
</g>
<!-- Node10 -->
<g id="node10" class="node"><title>Node10</title>
<g id="a_node10"><a xlink:href="creatureanimation_8cpp.html" target="_top" xlink:title="/home/scrawl/Dev/openmw\l/apps/openmw/mwrender\l/creatureanimation.cpp">
<polygon fill="white" stroke="black" points="923,-0.5 923,-41.5 1055,-41.5 1055,-0.5 923,-0.5"/>
<text text-anchor="start" x="931" y="-29.5" font-family="FreeSans" font-size="10.00">/home/scrawl/Dev/openmw</text>
<text text-anchor="start" x="931" y="-18.5" font-family="FreeSans" font-size="10.00">/apps/openmw/mwrender</text>
<text text-anchor="middle" x="989" y="-7.5" font-family="FreeSans" font-size="10.00">/creatureanimation.cpp</text>
</a>
</g>
</g>
<!-- Node9&#45;&gt;Node10 -->
<g id="edge9" class="edge"><title>Node9&#45;&gt;Node10</title>
<path fill="none" stroke="midnightblue" d="M886.55,-73.9082C907.175,-63.4581 931.013,-51.3801 950.502,-41.5056"/>
<polygon fill="midnightblue" stroke="midnightblue" points="884.967,-70.7863 877.629,-78.4281 888.131,-77.0305 884.967,-70.7863"/>
</g>
</g>
</svg>
